<?xml version="1.0" encoding="utf-8"?>
<!-- Generator: Adobe Illustrator 22.0.1, SVG Export Plug-In . SVG Version: 6.00 Build 0)  -->
<svg version="1.1" id="Layer_1" xmlns="http://www.w3.org/2000/svg" xmlns:xlink="http://www.w3.org/1999/xlink" x="0px" y="0px"
	 viewBox="0 0 628.1 365.4" style="enable-background:new 0 0 628.1 365.4;" xml:space="preserve">
<style type="text/css">
	.st0{fill:#FFFFFF;}
	.st1{fill:#DDDDDD;}
	.st2{fill:none;}
	.st3{enable-background:new    ;}
	.st4{fill:#1D1D1B;}
	.st5{fill:none;stroke:#FFFFFF;stroke-miterlimit:10;}
	.st6{fill:#2341C1;}
	.st7{fill:none;stroke:#1D1D1B;stroke-miterlimit:10;}
	.st8{fill:#1E1E1E;}
	.st9{fill:#FFFFFF;stroke:#1D1D1B;stroke-miterlimit:10;}
</style>
<path class="st0" d="M552.9,355.8H73.6c-8.4,0-15.2-6.8-15.2-15.2V17.3c0-8.4,6.8-15.2,15.2-15.2h479.3c8.4,0,15.2,6.8,15.2,15.2
	v323.3C568.1,349,561.3,355.8,552.9,355.8z"/>
<path class="st1" d="M232.4,30.2h-8c-1.4,0-2.9-1.1-3.3-2.4l-3.2-9.4c-0.4-1.3-1.9-2.4-3.3-2.4h-68.7c-1.4,0-3,1-3.6,2.3l-4.6,9.6
	c-0.6,1.2-2.2,2.3-3.6,2.3h-8.5H70.3V48h485.5V30.2H232.4z"/>
<circle class="st1" cx="78.7" cy="23.3" r="3.4"/>
<circle class="st1" cx="91.2" cy="23.3" r="3.4"/>
<circle class="st1" cx="102.9" cy="23.3" r="3.4"/>
<path class="st0" d="M370.5,44.8H115.2c-2.5,0-4.6-2.1-4.6-4.6v-1.7c0-2.5,2.1-4.6,4.6-4.6h255.3c2.5,0,4.6,2.1,4.6,4.6v1.7
	C375.1,42.7,373,44.8,370.5,44.8z"/>
<rect x="81" y="35.8" class="st2" width="48.9" height="9"/>
<g class="st3">
	<path class="st4" d="M81.6,39.7V39l3-1.5v0.7l-2.4,1.2l2.4,1.2v0.7L81.6,39.7z"/>
	<path class="st4" d="M95.5,39v0.8l-3,1.5v-0.7l2.4-1.2l-2.4-1.2v-0.7L95.5,39z"/>
</g>
<line class="st5" x1="392.3" y1="326.2" x2="420.1" y2="326.2"/>
<g class="st3">
	<path d="M119,38.3l0.7,2.7l0.8-2.7h0.6l-1,3.6h-0.6l-0.7-2.7l-0.7,2.7h-0.6l-1-3.6h0.6l0.8,2.7l0.7-2.7H119z"/>
	<path d="M124.1,38.3l0.7,2.7l0.8-2.7h0.6l-1,3.6h-0.6l-0.7-2.7l-0.7,2.7h-0.6l-1-3.6h0.6L123,41l0.7-2.7H124.1z"/>
	<path d="M129.1,38.3l0.7,2.7l0.8-2.7h0.6l-1,3.6h-0.6l-0.7-2.7l-0.7,2.7h-0.6l-1-3.6h0.6L128,41l0.7-2.7H129.1z"/>
	<path d="M131.5,41.7c-0.1-0.1-0.1-0.2-0.1-0.3s0-0.2,0.1-0.3s0.2-0.1,0.3-0.1s0.2,0,0.3,0.1s0.1,0.2,0.1,0.3s0,0.2-0.1,0.3
		s-0.2,0.1-0.3,0.1C131.7,41.9,131.6,41.8,131.5,41.7z"/>
	<path d="M135.6,41.8H135v-0.3c-0.1,0.1-0.2,0.2-0.4,0.2c-0.2,0.1-0.4,0.1-0.6,0.1c-0.4,0-0.7-0.1-0.9-0.3c-0.3-0.2-0.4-0.5-0.4-0.8
		s0.1-0.6,0.4-0.8s0.6-0.3,1-0.3c0.2,0,0.3,0,0.5,0.1s0.3,0.1,0.4,0.2v-0.4c0-0.2-0.1-0.4-0.2-0.6c-0.1-0.1-0.3-0.2-0.6-0.2
		c-0.4,0-0.6,0.2-0.7,0.5h-0.6c0.1-0.3,0.2-0.5,0.5-0.7s0.5-0.3,0.9-0.3s0.8,0.1,1,0.3s0.4,0.5,0.4,0.9L135.6,41.8L135.6,41.8z
		 M135,40.9v-0.4c-0.1-0.1-0.2-0.2-0.3-0.3c-0.2-0.1-0.3-0.1-0.5-0.1s-0.4,0.1-0.6,0.2c-0.2,0.1-0.2,0.3-0.2,0.5s0.1,0.4,0.2,0.5
		c0.2,0.1,0.4,0.2,0.6,0.2c0.2,0,0.4,0,0.5-0.1C134.8,41.2,134.9,41.1,135,40.9z"/>
	<path d="M136.3,40.9h0.6c0.1,0.4,0.4,0.5,0.8,0.5c0.2,0,0.4,0,0.5-0.1s0.2-0.2,0.2-0.4s-0.2-0.4-0.5-0.5l-0.7-0.2
		c-0.6-0.1-0.9-0.5-0.9-0.9c0-0.3,0.1-0.6,0.4-0.8c0.2-0.2,0.5-0.3,0.9-0.3s0.7,0.1,0.9,0.3s0.4,0.4,0.4,0.7h-0.6
		c-0.1-0.3-0.4-0.5-0.8-0.5c-0.2,0-0.3,0-0.5,0.1s-0.2,0.2-0.2,0.4c0,0.1,0,0.2,0.1,0.3s0.2,0.1,0.4,0.2l0.7,0.2
		c0.6,0.2,0.9,0.5,0.9,1c0,0.3-0.1,0.6-0.4,0.8c-0.2,0.2-0.6,0.3-1,0.3s-0.7-0.1-1-0.3C136.5,41.4,136.4,41.2,136.3,40.9z"/>
	<path d="M140.5,36.9c0.1,0.1,0.1,0.2,0.1,0.3s0,0.2-0.1,0.3s-0.2,0.1-0.3,0.1s-0.2,0-0.3-0.1s-0.1-0.2-0.1-0.3s0-0.2,0.1-0.3
		s0.2-0.1,0.3-0.1C140.3,36.8,140.4,36.9,140.5,36.9z M140.5,38.3v3.6h-0.6v-3.6H140.5z"/>
	<path d="M141.8,40.9v-2.1h-0.6v-0.5h0.6v-0.9h0.6v0.9h0.9v0.5h-0.9v2.1c0,0.3,0.2,0.5,0.5,0.5c0.2,0,0.3,0,0.5-0.1v0.6
		c-0.1,0.1-0.3,0.1-0.6,0.1s-0.5-0.1-0.7-0.2C141.8,41.5,141.8,41.2,141.8,40.9z"/>
	<path d="M146.3,40.8h0.6c-0.1,0.3-0.2,0.6-0.5,0.8s-0.6,0.3-1,0.3c-0.5,0-0.9-0.2-1.2-0.5s-0.5-0.8-0.5-1.3s0.1-1,0.4-1.3
		c0.3-0.3,0.7-0.5,1.2-0.5s0.8,0.2,1.1,0.5s0.4,0.7,0.4,1.3v0.2h-2.5c0,0.4,0.1,0.7,0.3,0.9s0.4,0.3,0.7,0.3c0.2,0,0.4-0.1,0.6-0.2
		S146.3,41,146.3,40.8z M145.4,38.7c-0.3,0-0.5,0.1-0.7,0.3s-0.3,0.4-0.3,0.7h1.9c0-0.3-0.1-0.5-0.2-0.7
		C145.9,38.8,145.7,38.7,145.4,38.7z"/>
	<path d="M147.6,41.7c-0.1-0.1-0.1-0.2-0.1-0.3s0-0.2,0.1-0.3s0.2-0.1,0.3-0.1s0.2,0,0.3,0.1s0.1,0.2,0.1,0.3s0,0.2-0.1,0.3
		s-0.2,0.1-0.3,0.1C147.8,41.9,147.7,41.8,147.6,41.7z"/>
	<path d="M149.2,41.4c-0.3-0.3-0.4-0.8-0.4-1.3s0.1-1,0.4-1.3c0.3-0.3,0.7-0.5,1.2-0.5c0.4,0,0.7,0.1,1,0.3s0.4,0.5,0.5,0.8h-0.6
		c0-0.2-0.1-0.3-0.3-0.5c-0.1-0.1-0.3-0.2-0.5-0.2c-0.3,0-0.5,0.1-0.7,0.4c-0.2,0.2-0.3,0.6-0.3,1s0.1,0.7,0.3,1s0.4,0.4,0.7,0.4
		c0.2,0,0.4-0.1,0.5-0.2c0.1-0.1,0.2-0.3,0.3-0.5h0.6c-0.1,0.3-0.2,0.6-0.5,0.8s-0.6,0.3-1,0.3C149.9,41.9,149.5,41.7,149.2,41.4z"
		/>
	<path d="M155.1,38.7c0.3,0.3,0.5,0.8,0.5,1.3s-0.2,1-0.5,1.3s-0.7,0.5-1.2,0.5s-0.9-0.2-1.2-0.5s-0.5-0.8-0.5-1.3s0.2-1,0.5-1.3
		s0.7-0.5,1.2-0.5S154.8,38.4,155.1,38.7z M154.7,41c0.2-0.2,0.3-0.6,0.3-1s-0.1-0.7-0.3-1c-0.2-0.2-0.4-0.4-0.7-0.4
		s-0.6,0.1-0.7,0.4c-0.2,0.2-0.3,0.6-0.3,1s0.1,0.7,0.3,1c0.2,0.2,0.4,0.4,0.7,0.4C154.2,41.4,154.5,41.2,154.7,41z"/>
	<path d="M158.9,38.8c0.3-0.4,0.6-0.6,1.1-0.6c0.4,0,0.6,0.1,0.8,0.3s0.3,0.5,0.3,0.9v2.4h-0.6v-2.3c0-0.3-0.1-0.5-0.2-0.6
		c-0.1-0.1-0.3-0.2-0.5-0.2s-0.3,0.1-0.5,0.2c-0.1,0.1-0.2,0.3-0.3,0.5v2.4h-0.6v-2.3c0-0.3-0.1-0.5-0.2-0.6
		c-0.1-0.1-0.3-0.2-0.5-0.2s-0.3,0.1-0.5,0.2c-0.1,0.1-0.2,0.3-0.3,0.5v2.4h-0.6v-3.6h0.6v0.4c0.2-0.3,0.5-0.5,1-0.5
		C158.4,38.2,158.7,38.4,158.9,38.8z"/>
</g>
<rect x="115.3" y="159.8" class="st1" width="178.9" height="137.3"/>
<rect x="321.1" y="159.8" class="st1" width="179" height="137.3"/>
<rect x="70.3" y="298.7" class="st6" width="485.2" height="40.7"/>
<rect x="86.1" y="313.1" class="st2" width="505" height="24"/>
<g class="st3">
	<path class="st0" d="M98.3,313.3h2l-2.7,9.9h-2l-2.3-7.1l-2.3,7.1h-2l-2.8-9.9h2l1.8,6.8l2.2-6.8h2l2.2,6.9L98.3,313.3z"/>
	<path class="st0" d="M107.1,321.2c-0.1,0.3-0.2,0.6-0.4,0.8s-0.4,0.5-0.7,0.7c-0.3,0.2-0.6,0.4-0.9,0.5c-0.4,0.1-0.7,0.2-1.2,0.2
		s-0.9-0.1-1.4-0.2s-0.8-0.4-1.1-0.7s-0.6-0.7-0.8-1.2c-0.2-0.5-0.3-1-0.3-1.6s0.1-1.1,0.3-1.5c0.2-0.4,0.4-0.8,0.7-1.1
		c0.3-0.3,0.7-0.6,1.1-0.7s0.8-0.3,1.3-0.3c1.1,0,1.9,0.3,2.5,1c0.6,0.6,0.9,1.5,0.9,2.6c0,0.1,0,0.3,0,0.4s0,0.2,0,0.2h-4.9
		c0,0.2,0.1,0.4,0.2,0.6s0.2,0.4,0.4,0.5c0.2,0.1,0.3,0.2,0.5,0.3c0.2,0.1,0.4,0.1,0.7,0.1c0.4,0,0.8-0.1,1-0.3
		c0.2-0.2,0.4-0.4,0.5-0.8L107.1,321.2z M105.4,319c0-0.2,0-0.3-0.1-0.5s-0.2-0.3-0.3-0.4s-0.3-0.2-0.5-0.3s-0.4-0.1-0.7-0.1
		c-0.2,0-0.5,0-0.6,0.1c-0.2,0.1-0.3,0.2-0.5,0.3s-0.2,0.3-0.3,0.4c-0.1,0.2-0.1,0.3-0.1,0.5H105.4z"/>
	<path class="st0" d="M108.7,323.2v-10.1h1.9v10.1H108.7z"/>
	<path class="st0" d="M115.6,317.8c-0.2,0-0.5,0-0.7,0.1s-0.4,0.2-0.6,0.4s-0.3,0.4-0.4,0.6s-0.1,0.5-0.1,0.8s0,0.6,0.1,0.8
		c0.1,0.2,0.2,0.4,0.4,0.6c0.2,0.2,0.4,0.3,0.6,0.4s0.4,0.1,0.7,0.1c0.2,0,0.4,0,0.6-0.1s0.3-0.2,0.5-0.3s0.2-0.2,0.3-0.4
		c0.1-0.1,0.1-0.3,0.2-0.4l1.6,0.5c-0.1,0.3-0.2,0.6-0.4,0.8c-0.2,0.3-0.4,0.5-0.7,0.7c-0.3,0.2-0.6,0.4-1,0.5s-0.8,0.2-1.2,0.2
		c-0.5,0-1-0.1-1.4-0.3c-0.4-0.2-0.8-0.4-1.2-0.8c-0.3-0.3-0.6-0.7-0.8-1.2c-0.2-0.4-0.3-0.9-0.3-1.5c0-0.5,0.1-1,0.3-1.5
		s0.4-0.8,0.8-1.2c0.3-0.3,0.7-0.6,1.1-0.8c0.4-0.2,0.9-0.3,1.4-0.3s0.9,0.1,1.3,0.2s0.7,0.3,1,0.5s0.5,0.5,0.7,0.7s0.3,0.6,0.4,0.9
		l-1.7,0.6c-0.1-0.3-0.2-0.6-0.5-0.8C116.4,317.9,116.1,317.8,115.6,317.8z"/>
	<path class="st0" d="M123.3,316.1c0.5,0,1,0.1,1.4,0.3c0.4,0.2,0.8,0.4,1.1,0.8c0.3,0.3,0.6,0.7,0.8,1.2c0.2,0.4,0.3,0.9,0.3,1.5
		c0,0.5-0.1,1-0.3,1.5c-0.2,0.4-0.4,0.8-0.8,1.2c-0.3,0.3-0.7,0.6-1.1,0.8c-0.4,0.2-0.9,0.3-1.4,0.3s-1-0.1-1.4-0.3
		c-0.4-0.2-0.8-0.4-1.1-0.8c-0.3-0.3-0.6-0.7-0.8-1.2c-0.2-0.4-0.3-0.9-0.3-1.5c0-0.5,0.1-1,0.3-1.5s0.4-0.8,0.8-1.2
		c0.3-0.3,0.7-0.6,1.1-0.8S122.8,316.1,123.3,316.1z M123.3,321.7c0.2,0,0.4,0,0.7-0.1c0.2-0.1,0.4-0.2,0.6-0.4
		c0.2-0.2,0.3-0.4,0.4-0.6s0.1-0.5,0.1-0.9c0-0.3,0-0.6-0.1-0.9c-0.1-0.2-0.2-0.4-0.4-0.6c-0.2-0.2-0.3-0.3-0.6-0.4
		c-0.2-0.1-0.4-0.1-0.7-0.1s-0.4,0-0.7,0.1c-0.2,0.1-0.4,0.2-0.6,0.4c-0.2,0.2-0.3,0.4-0.4,0.6s-0.1,0.5-0.1,0.9
		c0,0.3,0,0.6,0.1,0.9c0.1,0.2,0.2,0.4,0.4,0.6c0.2,0.2,0.3,0.3,0.6,0.4C122.8,321.7,123,321.7,123.3,321.7z"/>
	<path class="st0" d="M128.3,323.2v-6.9h1.8v0.8c0.1-0.2,0.2-0.3,0.4-0.4c0.1-0.1,0.3-0.2,0.5-0.3c0.2-0.1,0.4-0.1,0.6-0.2
		s0.4-0.1,0.6-0.1c0.5,0,0.9,0.1,1.2,0.3c0.4,0.2,0.6,0.5,0.8,0.9c0.3-0.4,0.6-0.7,1-0.9c0.4-0.2,0.8-0.3,1.2-0.3
		c0.3,0,0.6,0,0.9,0.1c0.3,0.1,0.6,0.3,0.8,0.5s0.4,0.5,0.6,0.8c0.1,0.3,0.2,0.7,0.2,1.2v4.5h-1.8v-4.1c0-0.4-0.1-0.7-0.3-0.9
		c-0.2-0.2-0.5-0.4-0.9-0.4s-0.7,0.1-0.9,0.4s-0.3,0.6-0.3,1v4h-1.8v-4.1c0-0.4-0.1-0.7-0.3-0.9c-0.2-0.2-0.5-0.4-0.9-0.4
		s-0.7,0.1-1,0.4c-0.2,0.3-0.3,0.6-0.3,1v4H128.3z"/>
	<path class="st0" d="M146.9,321.2c-0.1,0.3-0.2,0.6-0.4,0.8s-0.4,0.5-0.7,0.7s-0.6,0.4-0.9,0.5c-0.4,0.1-0.7,0.2-1.2,0.2
		s-0.9-0.1-1.4-0.2s-0.8-0.4-1.1-0.7s-0.6-0.7-0.8-1.2s-0.3-1-0.3-1.6s0.1-1.1,0.3-1.5s0.4-0.8,0.7-1.1c0.3-0.3,0.7-0.6,1.1-0.7
		s0.8-0.3,1.3-0.3c1.1,0,1.9,0.3,2.5,1c0.6,0.6,0.9,1.5,0.9,2.6c0,0.1,0,0.3,0,0.4s0,0.2,0,0.2H142c0,0.2,0.1,0.4,0.2,0.6
		c0.1,0.2,0.2,0.4,0.4,0.5s0.3,0.2,0.5,0.3c0.2,0.1,0.4,0.1,0.7,0.1c0.4,0,0.8-0.1,1-0.3c0.2-0.2,0.4-0.4,0.5-0.8L146.9,321.2z
		 M145.2,319c0-0.2,0-0.3-0.1-0.5s-0.2-0.3-0.3-0.4s-0.3-0.2-0.5-0.3s-0.4-0.1-0.7-0.1c-0.2,0-0.5,0-0.6,0.1
		c-0.2,0.1-0.3,0.2-0.5,0.3s-0.2,0.3-0.3,0.4c-0.1,0.2-0.1,0.3-0.1,0.5H145.2z"/>
	<path class="st0" d="M148.2,322c0-0.4,0.1-0.7,0.4-0.9c0.2-0.2,0.5-0.4,0.9-0.4c0.2,0,0.3,0,0.5,0.1s0.3,0.2,0.4,0.3
		c0.1,0.1,0.2,0.3,0.3,0.4s0.1,0.3,0.1,0.5s0,0.3-0.1,0.5s-0.2,0.3-0.3,0.4s-0.3,0.2-0.4,0.3s-0.3,0.1-0.5,0.1
		c-0.4,0-0.7-0.1-0.9-0.4C148.4,322.7,148.2,322.4,148.2,322z"/>
	<path class="st0" d="M160.4,315.1v8.1h-1.9v-8.1h-3.1v-1.8h8.2v1.8H160.4z"/>
	<path class="st0" d="M166.7,323.2h-1.9v-10.1h1.9v3.8c0.2-0.3,0.5-0.5,0.9-0.6c0.3-0.1,0.7-0.2,1-0.2c0.4,0,0.8,0.1,1.1,0.2
		s0.6,0.3,0.8,0.6c0.2,0.2,0.4,0.5,0.5,0.9c0.1,0.3,0.2,0.7,0.2,1.1v4.3h-1.9v-4c0-0.4-0.1-0.7-0.3-1s-0.5-0.4-1-0.4
		c-0.4,0-0.7,0.1-0.9,0.4s-0.3,0.6-0.4,1L166.7,323.2L166.7,323.2z"/>
	<path class="st0" d="M172.8,314.1c0-0.3,0.1-0.6,0.3-0.8c0.2-0.2,0.5-0.3,0.8-0.3s0.6,0.1,0.8,0.3c0.2,0.2,0.3,0.5,0.3,0.8
		s-0.1,0.6-0.3,0.8c-0.2,0.2-0.5,0.3-0.8,0.3s-0.6-0.1-0.8-0.3C172.9,314.6,172.8,314.4,172.8,314.1z M173,323.2v-6.9h1.9v6.9H173z"
		/>
	<path class="st0" d="M177.9,320.9c0,0.3,0.1,0.5,0.3,0.7s0.5,0.3,0.9,0.3c0.3,0,0.5-0.1,0.7-0.2c0.1-0.1,0.2-0.3,0.2-0.5
		s-0.1-0.3-0.2-0.4c-0.1-0.1-0.3-0.2-0.6-0.3l-0.9-0.2c-0.7-0.1-1.2-0.4-1.5-0.8s-0.5-0.8-0.5-1.3c0-0.3,0.1-0.6,0.2-0.9
		c0.1-0.3,0.3-0.5,0.5-0.7s0.5-0.4,0.8-0.5s0.7-0.2,1-0.2c0.5,0,0.9,0.1,1.2,0.2s0.6,0.3,0.8,0.5s0.4,0.4,0.5,0.7
		c0.1,0.2,0.2,0.4,0.2,0.6l-1.6,0.4c0-0.1,0-0.2-0.1-0.3s-0.1-0.2-0.2-0.3c-0.1-0.1-0.2-0.2-0.3-0.2c-0.1-0.1-0.3-0.1-0.5-0.1
		s-0.5,0.1-0.6,0.2c-0.2,0.1-0.3,0.3-0.3,0.5s0.1,0.3,0.2,0.4c0.1,0.1,0.3,0.2,0.5,0.2l1,0.2c0.7,0.1,1.2,0.4,1.5,0.8
		s0.5,0.8,0.5,1.3c0,0.3-0.1,0.6-0.2,0.8c-0.1,0.3-0.3,0.5-0.5,0.7s-0.5,0.4-0.8,0.5s-0.7,0.2-1.2,0.2s-1-0.1-1.3-0.2
		c-0.4-0.1-0.6-0.3-0.9-0.5c-0.2-0.2-0.4-0.4-0.5-0.7c-0.1-0.2-0.2-0.5-0.2-0.7L177.9,320.9z"/>
	<path class="st0" d="M187.8,320.9c0,0.3,0.1,0.5,0.3,0.7s0.5,0.3,0.9,0.3c0.3,0,0.5-0.1,0.7-0.2c0.1-0.1,0.2-0.3,0.2-0.5
		s-0.1-0.3-0.2-0.4c-0.1-0.1-0.3-0.2-0.6-0.3l-0.9-0.2c-0.7-0.1-1.2-0.4-1.5-0.8s-0.5-0.8-0.5-1.3c0-0.3,0.1-0.6,0.2-0.9
		c0.1-0.3,0.3-0.5,0.5-0.7s0.5-0.4,0.8-0.5s0.7-0.2,1-0.2c0.5,0,0.9,0.1,1.2,0.2s0.6,0.3,0.8,0.5s0.4,0.4,0.5,0.7
		c0.1,0.2,0.2,0.4,0.2,0.6l-1.6,0.4c0-0.1,0-0.2-0.1-0.3s-0.1-0.2-0.2-0.3c-0.1-0.1-0.2-0.2-0.3-0.2c-0.1-0.1-0.3-0.1-0.5-0.1
		s-0.5,0.1-0.6,0.2c-0.2,0.1-0.3,0.3-0.3,0.5s0.1,0.3,0.2,0.4c0.1,0.1,0.3,0.2,0.5,0.2l1,0.2c0.7,0.1,1.2,0.4,1.5,0.8
		s0.5,0.8,0.5,1.3c0,0.3-0.1,0.6-0.2,0.8c-0.1,0.3-0.3,0.5-0.5,0.7s-0.5,0.4-0.8,0.5s-0.7,0.2-1.2,0.2s-1-0.1-1.3-0.2
		c-0.4-0.1-0.6-0.3-0.9-0.5c-0.2-0.2-0.4-0.4-0.5-0.7c-0.1-0.2-0.2-0.5-0.2-0.7L187.8,320.9z"/>
	<path class="st0" d="M193,314.1c0-0.3,0.1-0.6,0.3-0.8c0.2-0.2,0.5-0.3,0.8-0.3s0.6,0.1,0.8,0.3c0.2,0.2,0.3,0.5,0.3,0.8
		s-0.1,0.6-0.3,0.8c-0.2,0.2-0.5,0.3-0.8,0.3s-0.6-0.1-0.8-0.3C193.1,314.6,193,314.4,193,314.1z M193.2,323.2v-6.9h1.9v6.9H193.2z"
		/>
	<path class="st0" d="M199.4,316.3h1.4v1.7h-1.4v2.9c0,0.3,0.1,0.5,0.2,0.6c0.1,0.1,0.3,0.2,0.6,0.2c0.1,0,0.2,0,0.3,0s0.2,0,0.2,0
		v1.5c-0.1,0-0.2,0.1-0.4,0.1s-0.4,0.1-0.7,0.1c-0.7,0-1.2-0.2-1.6-0.6c-0.4-0.4-0.6-0.9-0.6-1.6V318h-1.2v-1.7h0.4
		c0.4,0,0.6-0.1,0.8-0.3c0.2-0.2,0.3-0.5,0.3-0.8v-1h1.7V316.3z"/>
	<path class="st0" d="M208.5,321.2c-0.1,0.3-0.2,0.6-0.4,0.8s-0.4,0.5-0.7,0.7s-0.6,0.4-0.9,0.5c-0.4,0.1-0.7,0.2-1.2,0.2
		s-0.9-0.1-1.4-0.2s-0.8-0.4-1.1-0.7s-0.6-0.7-0.8-1.2s-0.3-1-0.3-1.6s0.1-1.1,0.3-1.5s0.4-0.8,0.7-1.1c0.3-0.3,0.7-0.6,1.1-0.7
		s0.8-0.3,1.3-0.3c1.1,0,1.9,0.3,2.5,1c0.6,0.6,0.9,1.5,0.9,2.6c0,0.1,0,0.3,0,0.4s0,0.2,0,0.2h-4.9c0,0.2,0.1,0.4,0.2,0.6
		c0.1,0.2,0.2,0.4,0.4,0.5s0.3,0.2,0.5,0.3c0.2,0.1,0.4,0.1,0.7,0.1c0.4,0,0.8-0.1,1-0.3c0.2-0.2,0.4-0.4,0.5-0.8L208.5,321.2z
		 M206.7,319c0-0.2,0-0.3-0.1-0.5s-0.2-0.3-0.3-0.4s-0.3-0.2-0.5-0.3s-0.4-0.1-0.7-0.1c-0.2,0-0.5,0-0.6,0.1
		c-0.2,0.1-0.3,0.2-0.5,0.3s-0.2,0.3-0.3,0.4c-0.1,0.2-0.1,0.3-0.1,0.5H206.7z"/>
	<path class="st0" d="M218,323.2c0-0.1,0-0.2,0-0.3c0-0.1,0-0.3,0-0.4c-0.2,0.3-0.5,0.6-0.8,0.7s-0.7,0.2-1.1,0.2
		c-0.4,0-0.8-0.1-1.1-0.2s-0.6-0.3-0.8-0.6c-0.2-0.2-0.4-0.5-0.5-0.9c-0.1-0.3-0.2-0.7-0.2-1.1v-4.4h1.9v4c0,0.4,0.1,0.7,0.3,1
		s0.5,0.4,1,0.4c0.4,0,0.7-0.1,1-0.4c0.2-0.3,0.3-0.6,0.3-1v-4h1.9v5.6c0,0.3,0,0.5,0,0.7s0,0.4,0,0.5H218V323.2z"/>
	<path class="st0" d="M222.7,320.9c0,0.3,0.1,0.5,0.3,0.7s0.5,0.3,0.9,0.3c0.3,0,0.5-0.1,0.7-0.2c0.1-0.1,0.2-0.3,0.2-0.5
		s-0.1-0.3-0.2-0.4c-0.1-0.1-0.3-0.2-0.6-0.3l-0.9-0.2c-0.7-0.1-1.2-0.4-1.5-0.8s-0.5-0.8-0.5-1.3c0-0.3,0.1-0.6,0.2-0.9
		c0.1-0.3,0.3-0.5,0.5-0.7s0.5-0.4,0.8-0.5s0.7-0.2,1-0.2c0.5,0,0.9,0.1,1.2,0.2s0.6,0.3,0.8,0.5s0.4,0.4,0.5,0.7
		c0.1,0.2,0.2,0.4,0.2,0.6l-1.6,0.4c0-0.1,0-0.2-0.1-0.3s-0.1-0.2-0.2-0.3c-0.1-0.1-0.2-0.2-0.3-0.2c-0.1-0.1-0.3-0.1-0.5-0.1
		s-0.5,0.1-0.6,0.2c-0.2,0.1-0.3,0.3-0.3,0.5s0.1,0.3,0.2,0.4c0.1,0.1,0.3,0.2,0.5,0.2l1,0.2c0.7,0.1,1.2,0.4,1.5,0.8
		s0.5,0.8,0.5,1.3c0,0.3-0.1,0.6-0.2,0.8c-0.1,0.3-0.3,0.5-0.5,0.7s-0.5,0.4-0.8,0.5s-0.7,0.2-1.2,0.2s-1-0.1-1.3-0.2
		c-0.4-0.1-0.6-0.3-0.9-0.5c-0.2-0.2-0.4-0.4-0.5-0.7c-0.1-0.2-0.2-0.5-0.2-0.7L222.7,320.9z"/>
	<path class="st0" d="M234.3,321.2c-0.1,0.3-0.2,0.6-0.4,0.8s-0.4,0.5-0.7,0.7s-0.6,0.4-0.9,0.5c-0.4,0.1-0.7,0.2-1.2,0.2
		s-0.9-0.1-1.4-0.2s-0.8-0.4-1.1-0.7s-0.6-0.7-0.8-1.2s-0.3-1-0.3-1.6s0.1-1.1,0.3-1.5s0.4-0.8,0.7-1.1c0.3-0.3,0.7-0.6,1.1-0.7
		s0.8-0.3,1.3-0.3c1.1,0,1.9,0.3,2.5,1c0.6,0.6,0.9,1.5,0.9,2.6c0,0.1,0,0.3,0,0.4s0,0.2,0,0.2h-4.9c0,0.2,0.1,0.4,0.2,0.6
		c0.1,0.2,0.2,0.4,0.4,0.5s0.3,0.2,0.5,0.3c0.2,0.1,0.4,0.1,0.7,0.1c0.4,0,0.8-0.1,1-0.3c0.2-0.2,0.4-0.4,0.5-0.8L234.3,321.2z
		 M232.5,319c0-0.2,0-0.3-0.1-0.5s-0.2-0.3-0.3-0.4s-0.3-0.2-0.5-0.3s-0.4-0.1-0.7-0.1c-0.2,0-0.5,0-0.6,0.1
		c-0.2,0.1-0.3,0.2-0.5,0.3s-0.2,0.3-0.3,0.4c-0.1,0.2-0.1,0.3-0.1,0.5H232.5z"/>
	<path class="st0" d="M236.9,320.9c0,0.3,0.1,0.5,0.3,0.7s0.5,0.3,0.9,0.3c0.3,0,0.5-0.1,0.7-0.2c0.1-0.1,0.2-0.3,0.2-0.5
		s-0.1-0.3-0.2-0.4c-0.1-0.1-0.3-0.2-0.6-0.3l-0.9-0.2c-0.7-0.1-1.2-0.4-1.5-0.8s-0.5-0.8-0.5-1.3c0-0.3,0.1-0.6,0.2-0.9
		c0.1-0.3,0.3-0.5,0.5-0.7s0.5-0.4,0.8-0.5s0.7-0.2,1-0.2c0.5,0,0.9,0.1,1.2,0.2s0.6,0.3,0.8,0.5s0.4,0.4,0.5,0.7
		c0.1,0.2,0.2,0.4,0.2,0.6l-1.6,0.4c0-0.1,0-0.2-0.1-0.3s-0.1-0.2-0.2-0.3c-0.1-0.1-0.2-0.2-0.3-0.2c-0.1-0.1-0.3-0.1-0.5-0.1
		s-0.5,0.1-0.6,0.2c-0.2,0.1-0.3,0.3-0.3,0.5s0.1,0.3,0.2,0.4c0.1,0.1,0.3,0.2,0.5,0.2l1,0.2c0.7,0.1,1.2,0.4,1.5,0.8
		s0.5,0.8,0.5,1.3c0,0.3-0.1,0.6-0.2,0.8c-0.1,0.3-0.3,0.5-0.5,0.7s-0.5,0.4-0.8,0.5s-0.7,0.2-1.2,0.2s-1-0.1-1.3-0.2
		c-0.4-0.1-0.6-0.3-0.9-0.5c-0.2-0.2-0.4-0.4-0.5-0.7c-0.1-0.2-0.2-0.5-0.2-0.7L236.9,320.9z"/>
	<path class="st0" d="M248.9,317.8c-0.2,0-0.5,0-0.7,0.1s-0.4,0.2-0.6,0.4s-0.3,0.4-0.4,0.6c-0.1,0.2-0.1,0.5-0.1,0.8s0,0.6,0.1,0.8
		c0.1,0.2,0.2,0.4,0.4,0.6s0.4,0.3,0.6,0.4s0.4,0.1,0.7,0.1c0.2,0,0.4,0,0.6-0.1c0.2-0.1,0.3-0.2,0.5-0.3s0.2-0.2,0.3-0.4
		c0.1-0.1,0.1-0.3,0.2-0.4l1.6,0.5c-0.1,0.3-0.2,0.6-0.4,0.8c-0.2,0.3-0.4,0.5-0.7,0.7s-0.6,0.4-1,0.5s-0.8,0.2-1.2,0.2
		c-0.5,0-1-0.1-1.4-0.3c-0.4-0.2-0.8-0.4-1.2-0.8c-0.3-0.3-0.6-0.7-0.8-1.2c-0.2-0.4-0.3-0.9-0.3-1.5c0-0.5,0.1-1,0.3-1.5
		s0.4-0.8,0.8-1.2c0.3-0.3,0.7-0.6,1.1-0.8c0.4-0.2,0.9-0.3,1.4-0.3s0.9,0.1,1.3,0.2c0.4,0.1,0.7,0.3,1,0.5s0.5,0.5,0.7,0.7
		s0.3,0.6,0.4,0.9l-1.7,0.6c-0.1-0.3-0.2-0.6-0.5-0.8C249.7,317.9,249.3,317.8,248.9,317.8z"/>
	<path class="st0" d="M256.5,316.1c0.5,0,1,0.1,1.4,0.3c0.4,0.2,0.8,0.4,1.1,0.8c0.3,0.3,0.6,0.7,0.8,1.2c0.2,0.4,0.3,0.9,0.3,1.5
		c0,0.5-0.1,1-0.3,1.5c-0.2,0.4-0.4,0.8-0.8,1.2c-0.3,0.3-0.7,0.6-1.1,0.8c-0.4,0.2-0.9,0.3-1.4,0.3s-1-0.1-1.4-0.3
		c-0.4-0.2-0.8-0.4-1.1-0.8c-0.3-0.3-0.6-0.7-0.8-1.2c-0.2-0.4-0.3-0.9-0.3-1.5c0-0.5,0.1-1,0.3-1.5s0.4-0.8,0.8-1.2
		c0.3-0.3,0.7-0.6,1.1-0.8C255.5,316.2,256,316.1,256.5,316.1z M256.5,321.7c0.2,0,0.4,0,0.7-0.1c0.2-0.1,0.4-0.2,0.6-0.4
		c0.2-0.2,0.3-0.4,0.4-0.6s0.1-0.5,0.1-0.9c0-0.3,0-0.6-0.1-0.9c-0.1-0.2-0.2-0.4-0.4-0.6c-0.2-0.2-0.3-0.3-0.6-0.4
		c-0.2-0.1-0.4-0.1-0.7-0.1s-0.4,0-0.7,0.1c-0.2,0.1-0.4,0.2-0.6,0.4c-0.2,0.2-0.3,0.4-0.4,0.6c-0.1,0.2-0.1,0.5-0.1,0.9
		c0,0.3,0,0.6,0.1,0.9c0.1,0.2,0.2,0.4,0.4,0.6s0.3,0.3,0.6,0.4C256,321.7,256.3,321.7,256.5,321.7z"/>
	<path class="st0" d="M264.7,316.1c0.5,0,1,0.1,1.4,0.3c0.4,0.2,0.8,0.4,1.1,0.8c0.3,0.3,0.6,0.7,0.8,1.2c0.2,0.4,0.3,0.9,0.3,1.5
		c0,0.5-0.1,1-0.3,1.5c-0.2,0.4-0.4,0.8-0.8,1.2c-0.3,0.3-0.7,0.6-1.1,0.8c-0.4,0.2-0.9,0.3-1.4,0.3s-1-0.1-1.4-0.3
		c-0.4-0.2-0.8-0.4-1.1-0.8c-0.3-0.3-0.6-0.7-0.8-1.2c-0.2-0.4-0.3-0.9-0.3-1.5c0-0.5,0.1-1,0.3-1.5s0.4-0.8,0.8-1.2
		c0.3-0.3,0.7-0.6,1.1-0.8S264.2,316.1,264.7,316.1z M264.7,321.7c0.2,0,0.4,0,0.7-0.1c0.2-0.1,0.4-0.2,0.6-0.4
		c0.2-0.2,0.3-0.4,0.4-0.6s0.1-0.5,0.1-0.9c0-0.3,0-0.6-0.1-0.9c-0.1-0.2-0.2-0.4-0.4-0.6c-0.2-0.2-0.3-0.3-0.6-0.4
		c-0.2-0.1-0.4-0.1-0.7-0.1s-0.4,0-0.7,0.1c-0.2,0.1-0.4,0.2-0.6,0.4c-0.2,0.2-0.3,0.4-0.4,0.6s-0.1,0.5-0.1,0.9
		c0,0.3,0,0.6,0.1,0.9c0.1,0.2,0.2,0.4,0.4,0.6c0.2,0.2,0.3,0.3,0.6,0.4C264.2,321.7,264.4,321.7,264.7,321.7z"/>
	<path class="st0" d="M273.7,319.2l2.8,4h-2.3l-1.8-2.6l-0.8,0.8v1.8h-1.9v-10.1h1.9v5.8l2.4-2.6h2.4L273.7,319.2z"/>
	<path class="st0" d="M277.3,314.1c0-0.3,0.1-0.6,0.3-0.8c0.2-0.2,0.5-0.3,0.8-0.3s0.6,0.1,0.8,0.3c0.2,0.2,0.3,0.5,0.3,0.8
		s-0.1,0.6-0.3,0.8c-0.2,0.2-0.5,0.3-0.8,0.3s-0.6-0.1-0.8-0.3C277.5,314.6,277.3,314.4,277.3,314.1z M277.6,323.2v-6.9h1.9v6.9
		H277.6z"/>
	<path class="st0" d="M287.6,321.2c-0.1,0.3-0.2,0.6-0.4,0.8s-0.4,0.5-0.7,0.7c-0.3,0.2-0.6,0.4-0.9,0.5c-0.4,0.1-0.7,0.2-1.2,0.2
		s-0.9-0.1-1.4-0.2s-0.8-0.4-1.1-0.7s-0.6-0.7-0.8-1.2c-0.2-0.5-0.3-1-0.3-1.6s0.1-1.1,0.3-1.5c0.2-0.4,0.4-0.8,0.7-1.1
		c0.3-0.3,0.7-0.6,1.1-0.7s0.8-0.3,1.3-0.3c1.1,0,1.9,0.3,2.5,1c0.6,0.6,0.9,1.5,0.9,2.6c0,0.1,0,0.3,0,0.4s0,0.2,0,0.2h-4.9
		c0,0.2,0.1,0.4,0.2,0.6s0.2,0.4,0.4,0.5c0.2,0.1,0.3,0.2,0.5,0.3c0.2,0.1,0.4,0.1,0.7,0.1c0.4,0,0.8-0.1,1-0.3
		c0.2-0.2,0.4-0.4,0.5-0.8L287.6,321.2z M285.9,319c0-0.2,0-0.3-0.1-0.5s-0.2-0.3-0.3-0.4s-0.3-0.2-0.5-0.3s-0.4-0.1-0.7-0.1
		c-0.2,0-0.5,0-0.6,0.1c-0.2,0.1-0.3,0.2-0.5,0.3s-0.2,0.3-0.3,0.4c-0.1,0.2-0.1,0.3-0.1,0.5H285.9z"/>
	<path class="st0" d="M290.2,320.9c0,0.3,0.1,0.5,0.3,0.7s0.5,0.3,0.9,0.3c0.3,0,0.5-0.1,0.7-0.2c0.1-0.1,0.2-0.3,0.2-0.5
		s-0.1-0.3-0.2-0.4s-0.3-0.2-0.6-0.3l-0.9-0.2c-0.7-0.1-1.2-0.4-1.5-0.8s-0.5-0.8-0.5-1.3c0-0.3,0.1-0.6,0.2-0.9s0.3-0.5,0.5-0.7
		s0.5-0.4,0.8-0.5s0.7-0.2,1-0.2c0.5,0,0.9,0.1,1.2,0.2c0.3,0.1,0.6,0.3,0.8,0.5s0.4,0.4,0.5,0.7c0.1,0.2,0.2,0.4,0.2,0.6l-1.6,0.4
		c0-0.1,0-0.2-0.1-0.3s-0.1-0.2-0.2-0.3c-0.1-0.1-0.2-0.2-0.3-0.2c-0.1-0.1-0.3-0.1-0.5-0.1s-0.5,0.1-0.6,0.2
		c-0.2,0.1-0.3,0.3-0.3,0.5s0.1,0.3,0.2,0.4s0.3,0.2,0.5,0.2l1,0.2c0.7,0.1,1.2,0.4,1.5,0.8s0.5,0.8,0.5,1.3c0,0.3-0.1,0.6-0.2,0.8
		c-0.1,0.3-0.3,0.5-0.5,0.7s-0.5,0.4-0.8,0.5s-0.7,0.2-1.2,0.2s-1-0.1-1.3-0.2c-0.4-0.1-0.6-0.3-0.9-0.5c-0.2-0.2-0.4-0.4-0.5-0.7
		c-0.1-0.2-0.2-0.5-0.2-0.7L290.2,320.9z"/>
	<path class="st0" d="M295.5,322.1c0-0.3,0.1-0.6,0.4-0.8s0.5-0.3,0.9-0.3s0.8,0.2,1,0.5s0.4,0.7,0.4,1.1c0,0.5-0.1,1-0.2,1.3
		c-0.2,0.4-0.4,0.7-0.6,0.9c-0.2,0.2-0.5,0.4-0.8,0.6c-0.3,0.1-0.6,0.2-0.8,0.2v-0.9c0.2,0,0.3-0.1,0.5-0.2s0.3-0.2,0.4-0.3
		s0.2-0.3,0.3-0.4c0.1-0.2,0.1-0.3,0.1-0.5c-0.1,0.1-0.2,0.1-0.4,0.1c-0.3,0-0.6-0.1-0.8-0.3C295.6,322.7,295.5,322.4,295.5,322.1z"
		/>
	<path class="st0" d="M307.6,318.2c-0.2,0-0.4-0.1-0.6-0.1s-0.5,0-0.7,0.1s-0.4,0.2-0.6,0.3c-0.2,0.1-0.3,0.3-0.4,0.6
		s-0.1,0.6-0.1,0.9v3.2h-1.9v-6.9h1.8v1c0.1-0.2,0.2-0.4,0.4-0.6c0.2-0.1,0.3-0.3,0.5-0.3c0.2-0.1,0.4-0.1,0.5-0.2
		c0.2,0,0.3,0,0.5,0c0.1,0,0.1,0,0.2,0s0.1,0,0.2,0v2H307.6z"/>
	<path class="st0" d="M315.1,321.2c-0.1,0.3-0.2,0.6-0.4,0.8s-0.4,0.5-0.7,0.7c-0.3,0.2-0.6,0.4-0.9,0.5c-0.4,0.1-0.7,0.2-1.2,0.2
		s-0.9-0.1-1.4-0.2s-0.8-0.4-1.1-0.7s-0.6-0.7-0.8-1.2c-0.2-0.5-0.3-1-0.3-1.6s0.1-1.1,0.3-1.5c0.2-0.4,0.4-0.8,0.7-1.1
		c0.3-0.3,0.7-0.6,1.1-0.7s0.8-0.3,1.3-0.3c1.1,0,1.9,0.3,2.5,1c0.6,0.6,0.9,1.5,0.9,2.6c0,0.1,0,0.3,0,0.4s0,0.2,0,0.2h-4.9
		c0,0.2,0.1,0.4,0.2,0.6s0.2,0.4,0.4,0.5c0.2,0.1,0.3,0.2,0.5,0.3c0.2,0.1,0.4,0.1,0.7,0.1c0.4,0,0.8-0.1,1-0.3
		c0.2-0.2,0.4-0.4,0.5-0.8L315.1,321.2z M313.3,319c0-0.2,0-0.3-0.1-0.5s-0.2-0.3-0.3-0.4s-0.3-0.2-0.5-0.3s-0.4-0.1-0.7-0.1
		c-0.2,0-0.5,0-0.6,0.1c-0.2,0.1-0.3,0.2-0.5,0.3s-0.2,0.3-0.3,0.4c-0.1,0.2-0.1,0.3-0.1,0.5H313.3z"/>
	<path class="st0" d="M316.2,321.3c0-0.3,0.1-0.6,0.2-0.8c0.1-0.2,0.3-0.4,0.4-0.6c0.2-0.2,0.4-0.3,0.7-0.4c0.2-0.1,0.5-0.2,0.8-0.2
		l1.7-0.3c0.2,0,0.3-0.1,0.4-0.2s0.1-0.2,0.1-0.3c0-0.2-0.1-0.5-0.3-0.6c-0.2-0.2-0.5-0.3-0.9-0.3s-0.7,0.1-0.9,0.3
		c-0.2,0.2-0.3,0.5-0.4,0.8l-1.7-0.3c0-0.3,0.1-0.5,0.3-0.8c0.1-0.3,0.3-0.5,0.6-0.7c0.2-0.2,0.5-0.4,0.9-0.5s0.8-0.2,1.2-0.2
		c0.5,0,1,0.1,1.4,0.2s0.7,0.3,0.9,0.6c0.2,0.2,0.4,0.5,0.5,0.8s0.2,0.6,0.2,1v3.4c0,0.2,0,0.4,0,0.6s0,0.4,0.1,0.5h-1.7
		c0-0.1,0-0.2,0-0.4s0-0.3,0-0.4c-0.2,0.3-0.4,0.5-0.8,0.7s-0.8,0.3-1.3,0.3c-0.4,0-0.7-0.1-1-0.2s-0.5-0.3-0.7-0.5
		s-0.4-0.4-0.5-0.7S316.2,321.6,316.2,321.3z M319,322c0.2,0,0.4,0,0.6-0.1s0.3-0.1,0.5-0.3c0.1-0.1,0.3-0.3,0.3-0.5
		c0.1-0.2,0.1-0.5,0.1-0.8V320l-1.6,0.2c-0.2,0-0.4,0.1-0.6,0.3c-0.2,0.1-0.2,0.3-0.2,0.6c0,0.2,0.1,0.4,0.2,0.6
		C318.4,321.9,318.7,322,319,322z"/>
	<path class="st0" d="M330.7,322c0,0.2,0,0.5,0,0.7s0,0.4,0,0.6H329c0-0.1,0-0.2,0-0.3c0-0.1,0-0.3,0-0.5c-0.2,0.3-0.4,0.5-0.7,0.7
		c-0.3,0.2-0.7,0.3-1.2,0.3s-0.9-0.1-1.4-0.3c-0.4-0.2-0.8-0.4-1.1-0.8c-0.3-0.3-0.5-0.7-0.7-1.1s-0.3-0.9-0.3-1.4s0.1-1,0.2-1.4
		s0.4-0.8,0.7-1.1c0.3-0.3,0.6-0.6,1-0.8c0.4-0.2,0.9-0.3,1.3-0.3c0.3,0,0.6,0,0.8,0.1c0.2,0.1,0.4,0.1,0.6,0.2s0.3,0.2,0.4,0.3
		c0.1,0.1,0.2,0.2,0.2,0.3v-3.9h1.8v8.7H330.7z M325.5,319.7c0,0.6,0.2,1.1,0.5,1.4s0.7,0.5,1.2,0.5s0.9-0.2,1.2-0.5
		c0.3-0.3,0.5-0.8,0.5-1.5c0-0.6-0.2-1.1-0.5-1.4s-0.7-0.5-1.2-0.5s-0.9,0.2-1.2,0.5S325.5,319.1,325.5,319.7z"/>
	<path class="st0" d="M339.3,316.1c0.5,0,1,0.1,1.4,0.3c0.4,0.2,0.8,0.4,1.1,0.8c0.3,0.3,0.6,0.7,0.8,1.2c0.2,0.4,0.3,0.9,0.3,1.5
		c0,0.5-0.1,1-0.3,1.5c-0.2,0.4-0.4,0.8-0.8,1.2c-0.3,0.3-0.7,0.6-1.1,0.8c-0.4,0.2-0.9,0.3-1.4,0.3s-1-0.1-1.4-0.3
		c-0.4-0.2-0.8-0.4-1.1-0.8c-0.3-0.3-0.6-0.7-0.8-1.2c-0.2-0.4-0.3-0.9-0.3-1.5c0-0.5,0.1-1,0.3-1.5c0.2-0.4,0.4-0.8,0.8-1.2
		c0.3-0.3,0.7-0.6,1.1-0.8S338.8,316.1,339.3,316.1z M339.3,321.7c0.2,0,0.4,0,0.7-0.1s0.4-0.2,0.6-0.4c0.2-0.2,0.3-0.4,0.4-0.6
		s0.1-0.5,0.1-0.9c0-0.3,0-0.6-0.1-0.9c-0.1-0.2-0.2-0.4-0.4-0.6c-0.2-0.2-0.3-0.3-0.6-0.4s-0.4-0.1-0.7-0.1c-0.2,0-0.4,0-0.7,0.1
		c-0.2,0.1-0.4,0.2-0.6,0.4c-0.2,0.2-0.3,0.4-0.4,0.6s-0.1,0.5-0.1,0.9c0,0.3,0,0.6,0.1,0.9c0.1,0.2,0.2,0.4,0.4,0.6
		c0.2,0.2,0.3,0.3,0.6,0.4C338.8,321.7,339.1,321.7,339.3,321.7z"/>
	<path class="st0" d="M348.8,323.2c0-0.1,0-0.2,0-0.3c0-0.1,0-0.3,0-0.4c-0.2,0.3-0.5,0.6-0.8,0.7s-0.7,0.2-1.1,0.2
		s-0.8-0.1-1.1-0.2s-0.6-0.3-0.8-0.6c-0.2-0.2-0.4-0.5-0.5-0.9c-0.1-0.3-0.2-0.7-0.2-1.1v-4.4h1.9v4c0,0.4,0.1,0.7,0.3,1
		c0.2,0.3,0.5,0.4,1,0.4c0.4,0,0.7-0.1,1-0.4s0.3-0.6,0.3-1v-4h1.9v5.6c0,0.3,0,0.5,0,0.7s0,0.4,0,0.5h-1.9V323.2z"/>
	<path class="st0" d="M356.7,318.2c-0.2,0-0.4-0.1-0.6-0.1s-0.5,0-0.7,0.1s-0.4,0.2-0.6,0.3c-0.2,0.1-0.3,0.3-0.4,0.6
		c-0.1,0.2-0.1,0.6-0.1,0.9v3.2h-1.9v-6.9h1.8v1c0.1-0.2,0.2-0.4,0.4-0.6c0.2-0.1,0.3-0.3,0.5-0.3c0.2-0.1,0.4-0.1,0.5-0.2
		c0.2,0,0.3,0,0.5,0c0.1,0,0.1,0,0.2,0s0.1,0,0.2,0v2H356.7z"/>
	<path class="st0" d="M361.5,325.9v-9.5h1.8v0.8c0.2-0.3,0.4-0.5,0.8-0.7s0.8-0.3,1.3-0.3s1,0.1,1.3,0.3c0.4,0.2,0.7,0.4,1,0.8
		c0.3,0.3,0.5,0.7,0.6,1.1s0.2,0.9,0.2,1.4s-0.1,1-0.2,1.4s-0.4,0.8-0.7,1.1c-0.3,0.3-0.6,0.6-1,0.8c-0.4,0.2-0.8,0.3-1.3,0.3
		s-0.9-0.1-1.2-0.2s-0.6-0.4-0.8-0.6v3.3L361.5,325.9L361.5,325.9z M366.7,319.8c0-0.6-0.2-1.1-0.5-1.4s-0.7-0.5-1.2-0.5
		c-0.2,0-0.5,0-0.7,0.1s-0.4,0.2-0.5,0.4c-0.2,0.2-0.3,0.4-0.4,0.6s-0.1,0.5-0.1,0.8s0,0.6,0.1,0.8s0.2,0.4,0.4,0.6
		c0.2,0.2,0.3,0.3,0.5,0.4s0.4,0.1,0.7,0.1c0.5,0,0.9-0.2,1.2-0.5C366.6,320.8,366.7,320.4,366.7,319.8z"/>
	<path class="st0" d="M373.1,316.1c0.5,0,1,0.1,1.4,0.3c0.4,0.2,0.8,0.4,1.1,0.8c0.3,0.3,0.6,0.7,0.8,1.2s0.3,0.9,0.3,1.5
		c0,0.5-0.1,1-0.3,1.5c-0.2,0.4-0.4,0.8-0.8,1.2c-0.3,0.3-0.7,0.6-1.1,0.8c-0.4,0.2-0.9,0.3-1.4,0.3s-1-0.1-1.4-0.3
		c-0.4-0.2-0.8-0.4-1.1-0.8c-0.3-0.3-0.6-0.7-0.8-1.2c-0.2-0.4-0.3-0.9-0.3-1.5c0-0.5,0.1-1,0.3-1.5c0.2-0.4,0.4-0.8,0.8-1.2
		c0.3-0.3,0.7-0.6,1.1-0.8S372.6,316.1,373.1,316.1z M373.1,321.7c0.2,0,0.4,0,0.7-0.1c0.2-0.1,0.4-0.2,0.6-0.4
		c0.2-0.2,0.3-0.4,0.4-0.6s0.1-0.5,0.1-0.9c0-0.3,0-0.6-0.1-0.9c-0.1-0.2-0.2-0.4-0.4-0.6c-0.2-0.2-0.3-0.3-0.6-0.4
		c-0.2-0.1-0.4-0.1-0.7-0.1c-0.2,0-0.4,0-0.7,0.1s-0.4,0.2-0.6,0.4c-0.2,0.2-0.3,0.4-0.4,0.6s-0.1,0.5-0.1,0.9c0,0.3,0,0.6,0.1,0.9
		c0.1,0.2,0.2,0.4,0.4,0.6c0.2,0.2,0.3,0.3,0.6,0.4S372.9,321.7,373.1,321.7z"/>
	<path class="st0" d="M378.2,323.2v-10.1h1.9v10.1H378.2z"/>
	<path class="st0" d="M381.8,314.1c0-0.3,0.1-0.6,0.3-0.8c0.2-0.2,0.5-0.3,0.8-0.3s0.6,0.1,0.8,0.3c0.2,0.2,0.3,0.5,0.3,0.8
		s-0.1,0.6-0.3,0.8c-0.2,0.2-0.5,0.3-0.8,0.3s-0.6-0.1-0.8-0.3C382,314.6,381.8,314.4,381.8,314.1z M382.1,323.2v-6.9h1.9v6.9H382.1
		z"/>
	<path class="st0" d="M389,317.8c-0.2,0-0.5,0-0.7,0.1s-0.4,0.2-0.6,0.4c-0.2,0.2-0.3,0.4-0.4,0.6s-0.1,0.5-0.1,0.8s0,0.6,0.1,0.8
		c0.1,0.2,0.2,0.4,0.4,0.6s0.3,0.3,0.6,0.4s0.4,0.1,0.7,0.1c0.2,0,0.4,0,0.6-0.1s0.3-0.2,0.5-0.3s0.2-0.2,0.3-0.4
		c0.1-0.1,0.1-0.3,0.2-0.4l1.6,0.5c-0.1,0.3-0.2,0.6-0.4,0.8s-0.4,0.5-0.7,0.7c-0.3,0.2-0.6,0.4-1,0.5s-0.8,0.2-1.2,0.2
		c-0.5,0-1-0.1-1.4-0.3c-0.4-0.2-0.8-0.4-1.2-0.8c-0.3-0.3-0.6-0.7-0.8-1.2c-0.2-0.4-0.3-0.9-0.3-1.5c0-0.5,0.1-1,0.3-1.5
		c0.2-0.4,0.4-0.8,0.8-1.2c0.3-0.3,0.7-0.6,1.1-0.8c0.4-0.2,0.9-0.3,1.4-0.3s0.9,0.1,1.3,0.2s0.7,0.3,1,0.5s0.5,0.5,0.7,0.7
		s0.3,0.6,0.4,0.9l-1.7,0.6c-0.1-0.3-0.2-0.6-0.5-0.8C389.8,317.9,389.5,317.8,389,317.8z"/>
	<path class="st0" d="M393.9,325.9l1.6-3.6l-2.9-6h2.1l1.8,4l1.7-4h2l-4.3,9.6H393.9z"/>
</g>
<g>
	<path class="st0" d="M407.7,323.2h-1.9v-10.1h1.9v3.8c0.2-0.3,0.5-0.5,0.9-0.6c0.3-0.1,0.7-0.2,1-0.2c0.4,0,0.8,0.1,1.1,0.2
		c0.3,0.1,0.6,0.3,0.8,0.6c0.2,0.2,0.4,0.5,0.5,0.9c0.1,0.3,0.2,0.7,0.2,1.1v4.3h-1.9v-4c0-0.4-0.1-0.7-0.3-1
		c-0.2-0.3-0.5-0.4-1-0.4c-0.4,0-0.7,0.1-0.9,0.4s-0.3,0.6-0.4,1L407.7,323.2L407.7,323.2z"/>
	<path class="st0" d="M420.2,321.2c-0.1,0.3-0.2,0.6-0.4,0.8c-0.2,0.3-0.4,0.5-0.7,0.7c-0.3,0.2-0.6,0.4-0.9,0.5s-0.7,0.2-1.2,0.2
		s-0.9-0.1-1.4-0.2c-0.4-0.2-0.8-0.4-1.1-0.7c-0.3-0.3-0.6-0.7-0.8-1.2s-0.3-1-0.3-1.6s0.1-1.1,0.3-1.5c0.2-0.4,0.4-0.8,0.7-1.1
		c0.3-0.3,0.7-0.6,1.1-0.7c0.4-0.2,0.8-0.3,1.3-0.3c1.1,0,1.9,0.3,2.5,1c0.6,0.6,0.9,1.5,0.9,2.6c0,0.1,0,0.3,0,0.4s0,0.2,0,0.2
		h-4.9c0,0.2,0.1,0.4,0.2,0.6s0.2,0.4,0.4,0.5s0.3,0.2,0.5,0.3s0.4,0.1,0.7,0.1c0.4,0,0.8-0.1,1-0.3c0.2-0.2,0.4-0.4,0.5-0.8
		L420.2,321.2z M418.4,319c0-0.2,0-0.3-0.1-0.5s-0.2-0.3-0.3-0.4s-0.3-0.2-0.5-0.3s-0.4-0.1-0.7-0.1c-0.2,0-0.5,0-0.6,0.1
		c-0.2,0.1-0.3,0.2-0.5,0.3s-0.2,0.3-0.3,0.4c-0.1,0.2-0.1,0.3-0.1,0.5H418.4z"/>
	<path class="st0" d="M425.9,318.2c-0.2,0-0.4-0.1-0.6-0.1s-0.5,0-0.7,0.1s-0.4,0.2-0.6,0.3c-0.2,0.1-0.3,0.3-0.4,0.6
		c-0.1,0.2-0.1,0.6-0.1,0.9v3.2h-1.9v-6.9h1.8v1c0.1-0.2,0.2-0.4,0.4-0.6c0.2-0.1,0.3-0.3,0.5-0.3c0.2-0.1,0.4-0.1,0.5-0.2
		c0.2,0,0.3,0,0.5,0c0.1,0,0.1,0,0.2,0s0.1,0,0.2,0v2H425.9z"/>
	<path class="st0" d="M433.3,321.2c-0.1,0.3-0.2,0.6-0.4,0.8c-0.2,0.3-0.4,0.5-0.7,0.7c-0.3,0.2-0.6,0.4-0.9,0.5
		c-0.4,0.1-0.7,0.2-1.2,0.2s-0.9-0.1-1.4-0.2c-0.4-0.2-0.8-0.4-1.1-0.7c-0.3-0.3-0.6-0.7-0.8-1.2c-0.2-0.5-0.3-1-0.3-1.6
		s0.1-1.1,0.3-1.5c0.2-0.4,0.4-0.8,0.7-1.1c0.3-0.3,0.7-0.6,1.1-0.7c0.4-0.2,0.8-0.3,1.3-0.3c1.1,0,1.9,0.3,2.5,1
		c0.6,0.6,0.9,1.5,0.9,2.6c0,0.1,0,0.3,0,0.4s0,0.2,0,0.2h-4.9c0,0.2,0.1,0.4,0.2,0.6s0.2,0.4,0.4,0.5c0.2,0.1,0.3,0.2,0.5,0.3
		c0.2,0.1,0.4,0.1,0.7,0.1c0.4,0,0.8-0.1,1-0.3c0.2-0.2,0.4-0.4,0.5-0.8L433.3,321.2z M431.6,319c0-0.2,0-0.3-0.1-0.5
		s-0.2-0.3-0.3-0.4s-0.3-0.2-0.5-0.3s-0.4-0.1-0.7-0.1c-0.2,0-0.5,0-0.6,0.1s-0.3,0.2-0.5,0.3s-0.2,0.3-0.3,0.4
		c-0.1,0.2-0.1,0.3-0.1,0.5H431.6z"/>
	<path class="st0" d="M404.8,325.9v-1.1h29.1v1.1H404.8z"/>
</g>
<rect x="116.8" y="73.8" class="st1" width="66" height="66"/>
<rect x="221.3" y="73.8" class="st1" width="279.5" height="66"/>
<g>
	<path class="st7" d="M553.7,2.1H73.6c-8.4,0-15.2,6.8-15.2,15.2v319.3c0,8.4,6.8,15.2,15.2,15.2h480.1c8.4,0,15.2-6.8,15.2-15.2
		V17.3C568.9,8.9,562.1,2.1,553.7,2.1z M555.8,339.4H70.3V15.1h485.5V339.4z"/>
</g>
<g>
	<polygon class="st8" points="70.3,339.4 191.6,338.8 312.9,338.5 434.1,338.4 555.4,338.5 554.5,339.4 554.6,258.3 554.8,177.2 
		555,96.1 555.4,15.1 555.8,96.1 556.1,177.2 556.3,258.3 556.4,339.4 556.4,340.3 555.4,340.3 434.1,340.3 312.9,340.2 
		191.6,339.9 	"/>
</g>
<g>
	<path class="st4" d="M381.1,346.2c0,0,39,1.1,97.5,2.6c14.6,0.4,30.5,0.9,47.2,1.4c8.4,0.2,17,0.5,25.8,0.8h1.7h0.4h0.4
		c0.3,0,0.5,0,0.8,0c1-0.1,2.1-0.3,3.1-0.6c2-0.6,3.9-1.7,5.5-3.2s2.8-3.2,3.6-5.2c0.4-1,0.7-2,0.9-3.1s0.2-2.1,0.2-3.3
		c0-36.6-0.1-75.6-0.1-114.6s0-78,0-114.6c0-18.3,0-36,0.1-52.7c0-8.4,0-16.5,0-24.4c0-3.9,0-7.8,0-11.6c0.1-3.6-1.3-7.1-3.6-9.7
		s-5.4-4.3-8.7-4.8c-0.8-0.1-1.6-0.2-2.5-0.2s-1.7,0-2.6,0c-1.7,0-3.4,0-5.1,0c-6.7,0-13-0.1-18.9-0.1c-11.9-0.1-22.3-0.2-30.8-0.3
		c-17.1-0.2-26.8-0.3-26.8-0.3S479,2.2,496,2c8.5-0.1,18.9-0.2,30.8-0.3c5.9,0,12.3-0.1,18.9-0.1c1.7,0,3.4,0,5.1,0
		c0.9,0,1.7,0,2.6,0c0.9,0,1.8,0,2.7,0.2c3.7,0.5,7.2,2.4,9.8,5.3s4.1,6.8,4,10.8c0,3.8,0,7.7,0,11.6c0,7.9,0,16,0,24.4
		c0,16.8,0,34.5,0.1,52.7c0,36.6,0,75.6,0,114.6s-0.1,78-0.1,114.6c0,1.1,0,2.4-0.2,3.5c-0.2,1.2-0.5,2.3-1,3.4
		c-0.9,2.2-2.3,4.2-4,5.8c-1.7,1.6-3.8,2.8-6.1,3.5c-1.1,0.3-2.3,0.6-3.4,0.6c-0.3,0-0.6,0-0.9,0h-0.5h-0.4l-1.7-0.1
		c-8.8-0.3-17.4-0.6-25.8-0.9c-16.8-0.6-32.6-1.1-47.2-1.7C420.1,347.7,381.1,346.2,381.1,346.2z"/>
</g>
<path class="st9" d="M626.7,358.3L626.7,358.3c0,4-3.3,7.2-7.2,7.2H7.8c-4,0-7.2-3.3-7.2-7.2l0,0"/>
<g>
	<path class="st9" d="M626.7,358.8v-12.6H364.9v1.4c0,2.3-1.9,4.2-4.2,4.2h-94c-2.3,0-4.2-1.9-4.2-4.2v-1.4H0.6v12"/>
	<path class="st9" d="M266.7,351.9h94c2.3,0,4.2-1.9,4.2-4.2v-1.4H262.5v1.4C262.5,350,264.4,351.9,266.7,351.9z"/>
</g>
<path class="st9" d="M7.8,365.5c-4,0-7.2-3.3-7.2-7.2l0,0"/>
<path class="st9" d="M562.1,365.5"/>
<g>
	<path class="st9" d="M364.9,346.2v1.4c0,2.3-1.9,4.2-4.2,4.2h-94c-2.3,0-4.2-1.9-4.2-4.2v-1.4H0.6v12"/>
	<path class="st9" d="M562.1,346.2"/>
	<g>
		<path class="st4" d="M364.9,346.2l65.5-0.4l65.5-0.3l65.5-0.2l65.5-0.1c0.5,0,1,0.4,1,1l0,0v8.7v2.2v1.1c0,0.5,0,0.7-0.1,1.2
			c-0.2,1.7-1,3.2-2.1,4.4c-1.1,1.2-2.6,2.1-4.2,2.4c-0.4,0.1-0.8,0.2-1.2,0.2h-0.6h-0.5H617h-8.7h-34.8l-69.5-0.2l-69.5-0.3
			l-69.5-0.4l69.5-0.4l69.5-0.3l69.5-0.2h34.8h8.7h2.2h0.5h0.5c0.3,0,0.6-0.1,0.9-0.2c1.2-0.3,2.4-1,3.2-1.9
			c0.9-0.9,1.4-2.2,1.6-3.3c0.1-0.2,0.1-0.7,0.1-1v-1.1v-2.2v-8.7l1,1l-65.5-0.1l-65.5-0.2l-65.5-0.3L364.9,346.2z"/>
	</g>
	<path class="st9" d="M266.7,351.9h94c2.3,0,4.2-1.9,4.2-4.2v-1.4H262.5v1.4C262.5,350,264.4,351.9,266.7,351.9z"/>
</g>
</svg>
