<svg id="OUTLINES" xmlns="http://www.w3.org/2000/svg" viewBox="0 0 1152 1008"><defs><style>.cls-1{fill:#fff;}.cls-2{fill:#000f7d;}</style></defs><title>multi-factor-with-generator</title><rect class="cls-1" x="683.99" y="414" width="360" height="144" rx="18" ry="18"/><path class="cls-1" d="M1026,564H702a24,24,0,0,1-24-24V432a24,24,0,0,1,24-24h324a24,24,0,0,1,24,24V540A24,24,0,0,1,1026,564ZM702,420a12,12,0,0,0-12,12V540a12,12,0,0,0,12,12h324a12,12,0,0,0,12-12V432a12,12,0,0,0-12-12Z"/><path class="cls-1" d="M652.49,558h-414a18,18,0,0,1-18-18V432a18,18,0,0,1,18-18h414"/><path class="cls-1" d="M652.49,564h-414a24,24,0,0,1-24-24V432a24,24,0,0,1,24-24h414v12h-414a12,12,0,0,0-12,12V540a12,12,0,0,0,12,12h414Z"/><path class="cls-2" d="M918,833H666a23,23,0,0,1-23-23V342a23,23,0,0,1,23-23H918a23,23,0,0,1,23,23v67.5H931V342a13,13,0,0,0-13-13H666a13,13,0,0,0-13,13V810a13,13,0,0,0,13,13H918a13,13,0,0,0,13-13V697.5h10V810A23,23,0,0,1,918,833Z"/><path class="cls-2" d="M792,801.5a23,23,0,1,1,23-23A23,23,0,0,1,792,801.5Zm0-36a13,13,0,1,0,13,13A13,13,0,0,0,792,765.5Z"/><path class="cls-2" d="M648,720.5H162a23,23,0,0,1-23-23V269.28a23,23,0,0,1,23-23H846a23,23,0,0,1,23,23V324H859V269.28a13,13,0,0,0-13-13H162a13,13,0,0,0-13,13V697.5a13,13,0,0,0,13,13H648Z"/><path class="cls-2" d="M648,761H90a23,23,0,0,1-23-23v-4.5a23,23,0,0,1,23-23H648v10H90a13,13,0,0,0-13,13V738a13,13,0,0,0,13,13H648Z"/><path class="cls-2" d="M733.52,482.1a8.24,8.24,0,0,0-6.42,3h-7.3V459.18h26.28v8.1H727.39v9.13a12.46,12.46,0,0,1,7.23-2.05,13.83,13.83,0,0,1,10.47,4.16,15.37,15.37,0,0,1-11.42,26.21q-7,0-11.39-4a15.32,15.32,0,0,1-4.89-10.62h9.05a7.84,7.84,0,0,0,2.23,4.86,6.92,6.92,0,0,0,5,1.78,6.17,6.17,0,0,0,4.82-2,7.73,7.73,0,0,0,1.82-5.33,7.65,7.65,0,0,0-1.82-5.26A6.33,6.33,0,0,0,733.52,482.1Z"/><path class="cls-2" d="M769.51,504.73a18.5,18.5,0,0,1-11.53-3.5,11.3,11.3,0,0,1-4.6-9.49,10.89,10.89,0,0,1,2.23-6.94,10.54,10.54,0,0,1,5.58-3.79,10.39,10.39,0,0,1-4.67-3.87,10.67,10.67,0,0,1-1.75-6.06,11.13,11.13,0,0,1,4.27-9.27,17.95,17.95,0,0,1,20.91,0,11.19,11.19,0,0,1,4.23,9.27,10.67,10.67,0,0,1-1.75,6.06,10.39,10.39,0,0,1-4.67,3.87,10.6,10.6,0,0,1,5.59,3.79,10.94,10.94,0,0,1,2.22,6.94,11.3,11.3,0,0,1-4.6,9.49A18.37,18.37,0,0,1,769.51,504.73Zm0-7.37a7.47,7.47,0,0,0,5.07-1.72,6.35,6.35,0,0,0,0-9.27,7.52,7.52,0,0,0-5.07-1.71,7.63,7.63,0,0,0-5.14,1.71,6.35,6.35,0,0,0,0,9.27A7.59,7.59,0,0,0,769.51,497.36Zm0-20.3a6.33,6.33,0,0,0,4.31-1.53,5.15,5.15,0,0,0,1.75-4.09,5.33,5.33,0,0,0-1.75-4.19,6.22,6.22,0,0,0-4.31-1.57,6.31,6.31,0,0,0-4.38,1.57,5.33,5.33,0,0,0-1.75,4.19,5.15,5.15,0,0,0,1.75,4.09A6.43,6.43,0,0,0,769.51,477.06Z"/><path class="cls-2" d="M790,492.69h9.06a5.69,5.69,0,0,0,5.91,4.38q3.87,0,6.28-3.8a16,16,0,0,0,2.41-8.76v-.66a8.08,8.08,0,0,1-3.65,3.43,12.41,12.41,0,0,1-5.77,1.32,13.89,13.89,0,0,1-10.59-4.27,14.75,14.75,0,0,1-4-10.48,15.15,15.15,0,0,1,4.27-11q4.27-4.42,11.57-4.42,9.12,0,13.58,8.1,3.13,5.47,3.14,14.09,0,10.67-4.64,17.37a14.46,14.46,0,0,1-12.52,6.72q-6.19,0-10-3.14A15.3,15.3,0,0,1,790,492.69Zm22.85-19.06a7.46,7.46,0,0,0-2-5.44,7.92,7.92,0,0,0-10.7,0,7.4,7.4,0,0,0-2.08,5.44,7.75,7.75,0,0,0,2.05,5.62,7,7,0,0,0,5.33,2.12,7.13,7.13,0,0,0,5.4-2.12A7.75,7.75,0,0,0,812.87,473.63Z"/><path class="cls-2" d="M853.9,484.8v-7.22h2.55a7.66,7.66,0,0,0,4.86-1.46,5,5,0,0,0,1.86-4.17,5.36,5.36,0,0,0-1.57-4,5.76,5.76,0,0,0-4.27-1.57,6.29,6.29,0,0,0-4.64,1.71,6.81,6.81,0,0,0-1.93,4.42h-9a15.6,15.6,0,0,1,4.89-10.11,15.14,15.14,0,0,1,10.8-4q6.72,0,10.66,3.61a12.22,12.22,0,0,1,3.94,9.46,11.55,11.55,0,0,1-1.53,5.87,9.12,9.12,0,0,1-3.94,3.83,10,10,0,0,1,4.6,3.95,11,11,0,0,1,1.6,5.84,12.87,12.87,0,0,1-4.16,9.85q-4.16,3.87-11.17,3.87t-11.68-4a14.61,14.61,0,0,1-4.89-10.59H850a7.78,7.78,0,0,0,2.22,4.86,7.06,7.06,0,0,0,5.08,1.78,6.69,6.69,0,0,0,4.67-1.64,5.91,5.91,0,0,0-.15-8.69,7.72,7.72,0,0,0-5.11-1.64Z"/><path class="cls-2" d="M906.17,465.82,891.49,504h-9.41l14.38-36.65H875.87v-8.17h30.3Z"/><path class="cls-2" d="M931.13,472.17a5.22,5.22,0,0,0-1.53-3.9,5.69,5.69,0,0,0-4.16-1.5,5.47,5.47,0,0,0-4.27,1.72,7,7,0,0,0-1.72,4.49h-9.64a16.35,16.35,0,0,1,4.86-10.48,14.77,14.77,0,0,1,10.69-4.05q7,0,11,3.61a12.49,12.49,0,0,1,4,9.75,11.85,11.85,0,0,1-1.46,5.44,23.2,23.2,0,0,1-2.88,4.45c-.95,1.09-2.47,2.74-4.56,4.93l-8.62,9.27h18V504h-31v-6.06l14.23-15a53.18,53.18,0,0,0,6-7.38A7.06,7.06,0,0,0,931.13,472.17Z"/><path class="cls-2" d="M741.63,603.18,727,631.43H737v-9.27h8.33v9.27h6.79v7.66h-6.79V648H737v-8.91H717v-6.71l15.47-29.2Z"/><path class="cls-2" d="M756.08,636.69h9a5.7,5.7,0,0,0,5.91,4.38c2.58,0,4.68-1.27,6.28-3.8a16,16,0,0,0,2.41-8.76v-.66a8.08,8.08,0,0,1-3.65,3.43,12.36,12.36,0,0,1-5.77,1.32,13.87,13.87,0,0,1-10.58-4.27,14.72,14.72,0,0,1-4-10.48,15.19,15.19,0,0,1,4.27-11q4.28-4.43,11.57-4.42,9.13,0,13.58,8.1,3.14,5.48,3.14,14.09,0,10.67-4.63,17.37a14.48,14.48,0,0,1-12.52,6.72q-6.21,0-10-3.14A15.24,15.24,0,0,1,756.08,636.69Zm22.85-19.06a7.42,7.42,0,0,0-2-5.44,7.91,7.91,0,0,0-10.69,0,7.36,7.36,0,0,0-2.08,5.44,7.75,7.75,0,0,0,2,5.62,7,7,0,0,0,5.33,2.12,7.13,7.13,0,0,0,5.4-2.12A7.71,7.71,0,0,0,778.93,617.63Z"/><path class="cls-2" d="M808.71,626.1a8.24,8.24,0,0,0-6.42,3H795V603.18h26.28v8.1H802.58v9.13a12.44,12.44,0,0,1,7.23-2,13.83,13.83,0,0,1,10.47,4.16,15.11,15.11,0,0,1,4,10.88A14.94,14.94,0,0,1,820,644.5a15.14,15.14,0,0,1-11.13,4.23q-7,0-11.39-4a15.32,15.32,0,0,1-4.89-10.62h9a7.79,7.79,0,0,0,2.23,4.86,6.91,6.91,0,0,0,5,1.78,6.17,6.17,0,0,0,4.82-2,7.73,7.73,0,0,0,1.82-5.33,7.65,7.65,0,0,0-1.82-5.26A6.35,6.35,0,0,0,808.71,626.1Z"/><path class="cls-2" d="M864.7,616.17a5.22,5.22,0,0,0-1.53-3.9,5.69,5.69,0,0,0-4.16-1.5,5.47,5.47,0,0,0-4.27,1.72A7,7,0,0,0,853,617h-9.63a16.29,16.29,0,0,1,4.85-10.48,14.77,14.77,0,0,1,10.69-4q7,0,11,3.61a12.49,12.49,0,0,1,4,9.75,11.73,11.73,0,0,1-1.46,5.44,23.2,23.2,0,0,1-2.88,4.45c-1,1.09-2.47,2.74-4.56,4.93l-8.62,9.27h18V648h-31v-6.06l14.23-15a53.18,53.18,0,0,0,6-7.38A7.06,7.06,0,0,0,864.7,616.17Z"/><path class="cls-2" d="M897.4,603.18V648h-9.12V613.84L877.84,619v-9.13l13.65-6.71Z"/><path class="cls-2" d="M927.92,603.18l-14.6,28.25h9.93v-9.27h8.32v9.27h6.79v7.66h-6.79V648h-8.32v-8.91H903.32v-6.71l15.47-29.2Z"/><path class="cls-2" d="M648,559.5H234a24,24,0,0,1-24-24v-108a24,24,0,0,1,24-24H648v12H234a12,12,0,0,0-12,12v108a12,12,0,0,0,12,12H648Z"/><path class="cls-2" d="M270,482.1a8.24,8.24,0,0,0-6.42,3h-7.3V459.18h26.28v8.1H263.89v9.13a12.46,12.46,0,0,1,7.23-2.05,13.83,13.83,0,0,1,10.47,4.16,15.37,15.37,0,0,1-11.42,26.21q-7,0-11.39-4a15.32,15.32,0,0,1-4.89-10.62h9.05a7.84,7.84,0,0,0,2.23,4.86,6.92,6.92,0,0,0,5,1.78,6.17,6.17,0,0,0,4.82-2,7.73,7.73,0,0,0,1.82-5.33,7.65,7.65,0,0,0-1.82-5.26A6.33,6.33,0,0,0,270,482.1Z"/><path class="cls-2" d="M306,504.73a18.5,18.5,0,0,1-11.53-3.5,11.3,11.3,0,0,1-4.6-9.49,10.89,10.89,0,0,1,2.23-6.94,10.54,10.54,0,0,1,5.58-3.79,10.39,10.39,0,0,1-4.67-3.87,10.67,10.67,0,0,1-1.75-6.06,11.13,11.13,0,0,1,4.27-9.27,17.95,17.95,0,0,1,20.91,0,11.19,11.19,0,0,1,4.23,9.27,10.67,10.67,0,0,1-1.75,6.06,10.39,10.39,0,0,1-4.67,3.87,10.6,10.6,0,0,1,5.59,3.79,10.94,10.94,0,0,1,2.22,6.94,11.3,11.3,0,0,1-4.6,9.49A18.37,18.37,0,0,1,306,504.73Zm0-7.37a7.47,7.47,0,0,0,5.07-1.72,6.35,6.35,0,0,0,0-9.27,7.52,7.52,0,0,0-5.07-1.71,7.63,7.63,0,0,0-5.14,1.71,6.35,6.35,0,0,0,0,9.27A7.59,7.59,0,0,0,306,497.36Zm0-20.3a6.33,6.33,0,0,0,4.31-1.53,5.15,5.15,0,0,0,1.75-4.09,5.33,5.33,0,0,0-1.75-4.19,6.22,6.22,0,0,0-4.31-1.57,6.31,6.31,0,0,0-4.38,1.57,5.33,5.33,0,0,0-1.75,4.19,5.15,5.15,0,0,0,1.75,4.09A6.43,6.43,0,0,0,306,477.06Z"/><path class="cls-2" d="M326.52,492.69h9.06a5.69,5.69,0,0,0,5.91,4.38q3.87,0,6.28-3.8a16,16,0,0,0,2.41-8.76v-.66a8.08,8.08,0,0,1-3.65,3.43,12.41,12.41,0,0,1-5.77,1.32,13.89,13.89,0,0,1-10.59-4.27,14.75,14.75,0,0,1-4-10.48,15.15,15.15,0,0,1,4.27-11q4.27-4.42,11.57-4.42,9.12,0,13.58,8.1,3.14,5.47,3.14,14.09,0,10.67-4.64,17.37a14.46,14.46,0,0,1-12.52,6.72q-6.19,0-10-3.14A15.3,15.3,0,0,1,326.52,492.69Zm22.85-19.06a7.46,7.46,0,0,0-2-5.44,7.92,7.92,0,0,0-10.7,0,7.4,7.4,0,0,0-2.08,5.44,7.75,7.75,0,0,0,2.05,5.62,7,7,0,0,0,5.33,2.12,7.13,7.13,0,0,0,5.4-2.12A7.75,7.75,0,0,0,349.37,473.63Z"/><path class="cls-2" d="M369,540.39a3,3,0,0,1-3-3V425.61a3,3,0,0,1,6,0V537.39A3,3,0,0,1,369,540.39Z"/><path class="cls-2" d="M1021.49,559.5h-324a24,24,0,0,1-24-24v-108a24,24,0,0,1,24-24h324a24,24,0,0,1,24,24v108A24,24,0,0,1,1021.49,559.5Zm-324-144a12,12,0,0,0-12,12v108a12,12,0,0,0,12,12h324a12,12,0,0,0,12-12v-108a12,12,0,0,0-12-12Z"/><path class="cls-2" d="M1021.49,703.5h-324a24,24,0,0,1-24-24v-108a24,24,0,0,1,24-24h324a24,24,0,0,1,24,24v108A24,24,0,0,1,1021.49,703.5Zm-324-144a12,12,0,0,0-12,12v108a12,12,0,0,0,12,12h324a12,12,0,0,0,12-12v-108a12,12,0,0,0-12-12Z"/><path class="cls-2" d="M991.44,500.45a18.95,18.95,0,1,1,0-37.89,4,4,0,0,1,0,8,10.95,10.95,0,1,0,10.94,10.94,4,4,0,0,1,8,0A19,19,0,0,1,991.44,500.45Z"/><path class="cls-2" d="M980.87,640.07A4,4,0,0,1,978,638.9a18.94,18.94,0,0,1,13.4-32.34,4,4,0,0,1,0,8,10.94,10.94,0,0,0-7.74,18.68,4,4,0,0,1-2.83,6.83Z"/></svg>