<svg id="OUTLINES" xmlns="http://www.w3.org/2000/svg" viewBox="0 0 1152 1008"><defs><style>.cls-1{fill:#fff;}.cls-2{fill:#000f7d;}</style></defs><title>physical-security</title><path class="cls-1" d="M855,694.5H306a24,24,0,0,1-24-24v-324a24,24,0,0,1,24-24H855a24,24,0,0,1,24,24v324A24,24,0,0,1,855,694.5Z"/><path class="cls-2" d="M576,221a5,5,0,0,1-5-5,30.64,30.64,0,0,0-.76-6.84,5,5,0,0,1,3.78-6,39.23,39.23,0,0,1,4,0,5,5,0,0,1,3.78,6A31.4,31.4,0,0,0,581,216,5,5,0,0,1,576,221Z"/><path class="cls-2" d="M152.11,495.4a5,5,0,0,1-3.88-1.84,41,41,0,0,1-8-16,5,5,0,1,1,9.7-2.41A31,31,0,0,0,156,487.24a5,5,0,0,1-3.87,8.16ZM147,458.16a5.1,5.1,0,0,1-2-.42,5,5,0,0,1-2.56-6.59A41.29,41.29,0,0,1,153,436.75a5,5,0,0,1,6.58,7.54,31.25,31.25,0,0,0-8,10.88A5,5,0,0,1,147,458.16Zm29.09-25.27a5,5,0,0,1-3.92-8.1,13,13,0,0,0,2.8-8.06V413a5,5,0,0,1,10,0v3.78A23.14,23.14,0,0,1,180.05,431,5,5,0,0,1,176.12,432.89ZM180,394.22a5,5,0,0,1-5-5V373.4a5,5,0,0,1,10,0v15.82A5,5,0,0,1,180,394.22Zm0-39.54a5,5,0,0,1-5-5V333.86a5,5,0,0,1,10,0v15.82A5,5,0,0,1,180,354.68Zm0-39.55a5,5,0,0,1-5-5V296.34a14.28,14.28,0,0,0-.08-1.46,5,5,0,0,1,9.93-1.13,22.49,22.49,0,0,1,.15,2.59v13.79A5,5,0,0,1,180,315.13Zm-14.75-33.2a4.93,4.93,0,0,1-3-1,59.24,59.24,0,0,1-12-12.32,5,5,0,0,1,8.1-5.87,49.28,49.28,0,0,0,10,10.25,5,5,0,0,1-3,9ZM144.93,249A5,5,0,0,1,140,245a59.05,59.05,0,0,1-1-11c0-1.11,0-2.24.09-3.35s.13-1.93.23-2.88a5,5,0,1,1,10,1c-.08.79-.15,1.58-.19,2.38s-.08,1.87-.08,2.8a48.83,48.83,0,0,0,.85,9.12,5,5,0,0,1-4,5.84A6,6,0,0,1,144.93,249Zm344.16-28h-3.61a5,5,0,0,1,0-10h3.61a13,13,0,0,0,8.15-2.88,5,5,0,1,1,6.28,7.79A23.08,23.08,0,0,1,489.09,221Zm-27.34,0H445.94a5,5,0,0,1,0-10h15.81a5,5,0,0,1,0,10Zm-39.54,0H406.39a5,5,0,0,1,0-10h15.82a5,5,0,1,1,0,10Zm-39.55,0H366.85a5,5,0,0,1,0-10h15.81a5,5,0,1,1,0,10Zm-39.54,0H327.3a5,5,0,1,1,0-10h15.82a5,5,0,0,1,0,10Zm-39.55,0H287.76a5,5,0,0,1,0-10h15.81a5,5,0,0,1,0,10ZM264,221h-3.69A23.08,23.08,0,0,1,246,216a5,5,0,1,1,6.24-7.81,13,13,0,0,0,8.11,2.84H264a5,5,0,0,1,0,10ZM151.85,211a5,5,0,0,1-4.26-7.61,59.37,59.37,0,0,1,11-13.23,5,5,0,1,1,6.69,7.43,49.26,49.26,0,0,0-9.14,11A5,5,0,0,1,151.85,211Zm82.24-12.18a5,5,0,0,1-3.34-1.28,48.85,48.85,0,0,0-11.91-7.92,5,5,0,0,1,4.26-9,59.05,59.05,0,0,1,14.34,9.54,5,5,0,0,1-3.35,8.71ZM513,197.19a5,5,0,0,1-3.75-8.3,41.4,41.4,0,0,1,14.45-10.52,5,5,0,0,1,4,9.18,31.46,31.46,0,0,0-10.93,7.95A5,5,0,0,1,513,197.19Zm49.9-4a5,5,0,0,1-3.18-1.15,31,31,0,0,0-12-6.11,5,5,0,0,1,2.47-9.7,41.25,41.25,0,0,1,15.93,8.1,5,5,0,0,1-3.18,8.86ZM182.4,187.3a5,5,0,0,1-1.45-9.79,58.52,58.52,0,0,1,13.7-2.42c1.12-.06,2.24-.09,3.35-.09a5,5,0,0,1,0,10c-.92,0-1.87,0-2.8.08a47.92,47.92,0,0,0-11.34,2A4.93,4.93,0,0,1,182.4,187.3Z"/><path class="cls-2" d="M172.05,509.52a5,5,0,0,1-4.87-3.9,39.23,39.23,0,0,1,0-4,5,5,0,0,1,6-3.78,30.86,30.86,0,0,0,6.85.76,5,5,0,0,1,0,10,31.47,31.47,0,0,0-6.85.76A5.22,5.22,0,0,1,172.05,509.52Z"/><path class="cls-2" d="M197.68,833h0c-.94,0-1.91,0-2.88-.09a53.78,53.78,0,0,1-14.22-2.73,5,5,0,1,1,3.17-9.48,44.25,44.25,0,0,0,11.58,2.23c.81,0,1.61.07,2.41.07a5,5,0,0,1,0,10Zm351.38-1.15a5,5,0,0,1-1.25-9.84,31.18,31.18,0,0,0,12-6.18,5,5,0,0,1,6.4,7.68,41.27,41.27,0,0,1-15.91,8.18A5,5,0,0,1,549.06,831.85Zm-23.24-1.75a5.05,5.05,0,0,1-2-.4,41.3,41.3,0,0,1-14.5-10.46,5,5,0,0,1,7.47-6.64,31.25,31.25,0,0,0,11,7.9,5,5,0,0,1-2,9.6ZM220.69,828a5,5,0,0,1-2.11-9.53,48.91,48.91,0,0,0,12-7.86,5,5,0,1,1,6.65,7.47,59,59,0,0,1-14.4,9.46A4.92,4.92,0,0,1,220.69,828Zm-58.78-9.66a5,5,0,0,1-3.39-1.33,63.12,63.12,0,0,1-10.9-13.21,5,5,0,0,1,8.51-5.26,53.62,53.62,0,0,0,9.18,11.13,5,5,0,0,1-3.4,8.67Zm87-17.23a5,5,0,0,1-3.18-8.86A23,23,0,0,1,260.33,787h3.42a5,5,0,0,1,0,10h-3.42a13,13,0,0,0-8.26,3A5,5,0,0,1,248.88,801.12Zm251.61,0a4.93,4.93,0,0,1-3.16-1.14,13,13,0,0,0-8.24-2.94h-3.47a5,5,0,1,1,0-10h3.47a23.07,23.07,0,0,1,14.58,5.21,5,5,0,0,1-3.18,8.87ZM461.84,797H446a5,5,0,0,1,0-10h15.85a5,5,0,0,1,0,10Zm-39.62,0H406.37a5,5,0,1,1,0-10h15.85a5,5,0,0,1,0,10Zm-39.62,0H366.76a5,5,0,0,1,0-10H382.6a5,5,0,0,1,0,10ZM343,797H327.16a5,5,0,0,1,0-10H343a5,5,0,0,1,0,10Zm-39.62,0H287.53a5,5,0,0,1,0-10h15.85a5,5,0,1,1,0,10ZM144.22,783.93a5,5,0,0,1-5-4.52c-.06-.65-.11-1.31-.15-2-.07-1.14-.1-2.3-.1-3.45a59.81,59.81,0,0,1,1.18-11.81,5,5,0,0,1,9.8,2,49.56,49.56,0,0,0-1,9.82c0,1,0,1.92.08,2.88,0,.53.07,1,.12,1.58a5,5,0,0,1-4.5,5.45A3.85,3.85,0,0,1,144.22,783.93Zm10.49-37.22a5,5,0,0,1-4-8,59.58,59.58,0,0,1,12.21-12.15,5,5,0,0,1,6,8,49.32,49.32,0,0,0-10.15,10.1A5,5,0,0,1,154.71,746.71ZM180,717.88h-.34a5,5,0,0,1-4.65-5.33c0-.29,0-.59,0-.88v-14.6a5,5,0,0,1,10,0v14.6c0,.52,0,1-.05,1.56A5,5,0,0,1,180,717.88Zm0-39.56a5,5,0,0,1-5-5V657.5a5,5,0,0,1,10,0v15.82A5,5,0,0,1,180,678.32Zm0-39.56a5,5,0,0,1-5-5V617.94a5,5,0,0,1,10,0v15.82A5,5,0,0,1,180,638.76Zm0-39.56a5,5,0,0,1-5-5v-3.64a13.08,13.08,0,0,0-2.86-8.14,5,5,0,0,1,7.8-6.26,23.11,23.11,0,0,1,5.06,14.4v3.64A5,5,0,0,1,180,599.2Zm-23.79-27.53a5,5,0,0,1-3.3-1.25A41.37,41.37,0,0,1,142.39,556a5,5,0,0,1,9.17-4,31.23,31.23,0,0,0,8,10.92,5,5,0,0,1-3.31,8.76Zm-11.1-35.92a4.72,4.72,0,0,1-1.23-.16,5,5,0,0,1-3.62-6.07,41.18,41.18,0,0,1,8.09-15.95,5,5,0,0,1,7.72,6.36A31.11,31.11,0,0,0,150,532,5,5,0,0,1,145.11,535.75Z"/><path class="cls-2" d="M575.13,804.94a5.24,5.24,0,0,1-1.11-.12,5,5,0,0,1-3.78-6A30.71,30.71,0,0,0,571,792a5,5,0,0,1,10,0,31.47,31.47,0,0,0,.76,6.85,5,5,0,0,1-3.78,6,25.93,25.93,0,0,0-2.85.12Z"/><path class="cls-2" d="M954.37,833a5,5,0,0,1,0-10c.82,0,1.65,0,2.47-.08a48.65,48.65,0,0,0,11.67-2.1,5,5,0,1,1,3,9.54,58,58,0,0,1-14.09,2.55c-1,.05-2,.08-3,.09Zm-351.24-1.1a5.17,5.17,0,0,1-1.23-.15,41.35,41.35,0,0,1-16-8.09,5,5,0,0,1,6.36-7.72,31.13,31.13,0,0,0,12.06,6.11,5,5,0,0,1-1.23,9.85ZM626.37,830a5,5,0,0,1-2-9.59,31.1,31.1,0,0,0,10.93-8,5,5,0,0,1,7.51,6.6,41.45,41.45,0,0,1-14.44,10.55A5.06,5.06,0,0,1,626.37,830Zm305-2a5.07,5.07,0,0,1-2.1-.46,59.49,59.49,0,0,1-14.41-9.45,5,5,0,0,1,6.65-7.48,48.64,48.64,0,0,0,12,7.85,5,5,0,0,1-2.11,9.54Zm59-9.19a5,5,0,0,1-3.37-8.69,49.82,49.82,0,0,0,9.07-11.09,5,5,0,1,1,8.58,5.14,60,60,0,0,1-10.9,13.33A5,5,0,0,1,990.37,818.84Zm-87.24-17.71a5,5,0,0,1-3.19-1.15,13,13,0,0,0-8.28-3h-3.39a5,5,0,0,1,0-10h3.39a23,23,0,0,1,14.66,5.28,5,5,0,0,1-3.19,8.85Zm-251.44-.2a5,5,0,0,1-3.12-8.91,23.07,23.07,0,0,1,14.35-5h3.7a5,5,0,0,1,0,10h-3.7a13.09,13.09,0,0,0-8.12,2.84A5,5,0,0,1,651.69,800.93ZM864.52,797H848.69a5,5,0,0,1,0-10h15.83a5,5,0,0,1,0,10Zm-39.58,0H809.11a5,5,0,0,1,0-10h15.83a5,5,0,0,1,0,10Zm-39.58,0H769.53a5,5,0,0,1,0-10h15.83a5,5,0,1,1,0,10Zm-39.58,0H730a5,5,0,0,1,0-10h15.83a5,5,0,0,1,0,10Zm-39.58,0H690.37a5,5,0,1,1,0-10H706.2a5,5,0,0,1,0,10Zm301.55-12.73-.48,0a5,5,0,0,1-4.5-5.46c.06-.66.12-1.33.15-2,.05-.94.08-1.88.08-2.8a49.63,49.63,0,0,0-.92-9.52,5,5,0,1,1,9.81-1.93A59.25,59.25,0,0,1,1013,774c0,1.1,0,2.23-.09,3.35,0,.81-.11,1.61-.19,2.4A5,5,0,0,1,1007.75,784.27ZM997.48,747a5,5,0,0,1-4-2,49.32,49.32,0,0,0-10.09-10.16,5,5,0,0,1,6-8A59.33,59.33,0,0,1,1001.49,739a5,5,0,0,1-4,8Zm-25.42-28.79a5,5,0,0,1-5-4.58c-.05-.64-.08-1.3-.08-1.94V697.35a5,5,0,1,1,10,0v14.31c0,.37,0,.73,0,1.1a5,5,0,0,1-4.56,5.4ZM972,678.6a5,5,0,0,1-5-5V657.77a5,5,0,0,1,10,0V673.6A5,5,0,0,1,972,678.6ZM972,639a5,5,0,0,1-5-5V618.19a5,5,0,0,1,10,0V634A5,5,0,0,1,972,639Zm0-39.58a5,5,0,0,1-5-5v-3.88a23.09,23.09,0,0,1,4.88-14.17,5,5,0,0,1,7.88,6.15,13.1,13.1,0,0,0-2.76,8v3.88A5,5,0,0,1,972,599.44Zm23.62-27.63a5,5,0,0,1-3.28-8.77,31.4,31.4,0,0,0,8-10.88,5,5,0,1,1,9.15,4,41.36,41.36,0,0,1-10.62,14.38A4.93,4.93,0,0,1,995.62,571.81Zm11.32-35.87a5,5,0,0,1-4.85-3.8A31.15,31.15,0,0,0,996,520.06a5,5,0,0,1,7.75-6.32,41.42,41.42,0,0,1,8,16,5,5,0,0,1-3.65,6A5.07,5.07,0,0,1,1006.94,535.94Z"/><path class="cls-2" d="M980,509.52a5.22,5.22,0,0,1-1.1-.12,31.47,31.47,0,0,0-6.85-.76,5,5,0,0,1,0-10,30.86,30.86,0,0,0,6.85-.76,5,5,0,0,1,6,3.78,39.23,39.23,0,0,1,0,4A5,5,0,0,1,980,509.52Z"/><path class="cls-2" d="M999.78,495.53a5,5,0,0,1-3.85-8.18,31.13,31.13,0,0,0,6.12-12,5,5,0,0,1,9.69,2.47,41.25,41.25,0,0,1-8.1,15.93A5,5,0,0,1,999.78,495.53Zm5.26-37.21a5,5,0,0,1-4.59-3,31.46,31.46,0,0,0-8-10.93,5,5,0,0,1,6.61-7.5,41.4,41.4,0,0,1,10.52,14.45,5,5,0,0,1-4.59,7ZM976,433a5,5,0,0,1-3.9-1.86A23.08,23.08,0,0,1,967,416.73v-3.61a5,5,0,1,1,10,0v3.61a13.06,13.06,0,0,0,2.88,8.16A5,5,0,0,1,976,433Zm-4-38.62a5,5,0,0,1-5-5V373.58a5,5,0,1,1,10,0V389.4A5,5,0,0,1,972,394.4Zm0-39.55a5,5,0,0,1-5-5V334a5,5,0,0,1,10,0v15.82A5,5,0,0,1,972,354.85Zm0-39.55a5,5,0,0,1-5-5v-14a23.51,23.51,0,0,1,.12-2.37,5,5,0,0,1,10,1,12.16,12.16,0,0,0-.07,1.34v14A5,5,0,0,1,972,315.3ZM986.61,282a5,5,0,0,1-3-9,49.23,49.23,0,0,0,10-10.21,5,5,0,0,1,8.08,5.9A59.23,59.23,0,0,1,989.63,281,5,5,0,0,1,986.61,282ZM1007,249.21a5,5,0,0,1-4.92-5.94A48.62,48.62,0,0,0,1003,234c0-.92,0-1.87-.08-2.8,0-.75-.1-1.49-.17-2.23a5,5,0,1,1,10-1c.09.89.16,1.79.21,2.69.06,1.11.09,2.24.09,3.35a59.33,59.33,0,0,1-1,11.15A5,5,0,0,1,1007,249.21ZM891.66,221h-3.52a5,5,0,1,1,0-10h3.52a13.06,13.06,0,0,0,8.21-2.92,5,5,0,1,1,6.31,7.75A23,23,0,0,1,891.66,221Zm-27.24,0H848.6a5,5,0,1,1,0-10h15.82a5,5,0,1,1,0,10Zm-39.55,0H809.05a5,5,0,0,1,0-10h15.82a5,5,0,0,1,0,10Zm-39.54,0H769.51a5,5,0,0,1,0-10h15.82a5,5,0,0,1,0,10Zm-39.55,0H730a5,5,0,0,1,0-10h15.82a5,5,0,0,1,0,10Zm-39.54,0H690.42a5,5,0,0,1,0-10h15.82a5,5,0,0,1,0,10Zm-39.55,0h-3.78a23.14,23.14,0,0,1-14.26-4.95,5,5,0,0,1,6.2-7.85,13,13,0,0,0,8.06,2.8h3.78a5,5,0,0,1,0,10Zm333.55-9.84a5,5,0,0,1-4.28-2.41,49.78,49.78,0,0,0-9.12-11,5,5,0,0,1,6.72-7.41,59.86,59.86,0,0,1,11,13.27,5,5,0,0,1-4.27,7.59ZM918,198.72A5,5,0,0,1,914.7,190a59.12,59.12,0,0,1,14.37-9.49,5,5,0,0,1,4.24,9.06,49.16,49.16,0,0,0-11.94,7.88A5,5,0,0,1,918,198.72Zm-278.92-1.39a5,5,0,0,1-3.76-1.72,31.48,31.48,0,0,0-10.89-8,5,5,0,0,1,4-9.16A41.44,41.44,0,0,1,642.89,189a5,5,0,0,1-3.77,8.29Zm-49.88-4.23a5,5,0,0,1-3.16-8.87,41,41,0,0,1,16-8,5,5,0,1,1,2.42,9.7A31.13,31.13,0,0,0,592.4,192,4.93,4.93,0,0,1,589.24,193.1Zm380.52-5.75a5,5,0,0,1-1.47-.22,47.63,47.63,0,0,0-11.49-2c-.88-.05-1.76-.08-2.64-.08a5,5,0,0,1,0-10h0c1,0,2.12,0,3.17.09a58.38,58.38,0,0,1,13.87,2.48,5,5,0,0,1-1.47,9.78Z"/><path class="cls-2" d="M900,725h-8a5,5,0,0,1,0-10h3v-3a5,5,0,0,1,10,0v8A5,5,0,0,1,900,725Z"/><path class="cls-2" d="M867.69,725h-16.2a5,5,0,0,1,0-10h16.2a5,5,0,0,1,0,10Zm-40.51,0H811a5,5,0,0,1,0-10h16.21a5,5,0,0,1,0,10Zm-40.51,0H770.46a5,5,0,0,1,0-10h16.21a5,5,0,1,1,0,10Zm-40.52,0H730a5,5,0,0,1,0-10h16.2a5,5,0,1,1,0,10Zm-40.51,0h-16.2a5,5,0,0,1,0-10h16.2a5,5,0,0,1,0,10Zm-40.51,0H648.92a5,5,0,0,1,0-10h16.21a5,5,0,1,1,0,10Zm-40.51,0H608.41a5,5,0,1,1,0-10h16.21a5,5,0,0,1,0,10Zm-40.52,0H567.9a5,5,0,0,1,0-10h16.2a5,5,0,0,1,0,10Zm-40.51,0h-16.2a5,5,0,1,1,0-10h16.2a5,5,0,1,1,0,10Zm-40.51,0H486.87a5,5,0,1,1,0-10h16.21a5,5,0,0,1,0,10Zm-40.52,0h-16.2a5,5,0,0,1,0-10h16.2a5,5,0,0,1,0,10Zm-40.51,0h-16.2a5,5,0,1,1,0-10h16.2a5,5,0,0,1,0,10Zm-40.51,0H365.33a5,5,0,1,1,0-10h16.21a5,5,0,0,1,0,10ZM341,725H324.82a5,5,0,1,1,0-10H341a5,5,0,0,1,0,10Zm-40.52,0h-16.2a5,5,0,1,1,0-10h16.2a5,5,0,0,1,0,10Z"/><path class="cls-2" d="M260,725h-8a5,5,0,0,1-5-5v-8a5,5,0,0,1,10,0v3h3a5,5,0,0,1,0,10Z"/><path class="cls-2" d="M252,693.45a5,5,0,0,1-5-5v-15.7a5,5,0,0,1,10,0v15.7A5,5,0,0,1,252,693.45Zm0-39.24a5,5,0,0,1-5-5v-15.7a5,5,0,0,1,10,0v15.7A5,5,0,0,1,252,654.21ZM252,615a5,5,0,0,1-5-5v-15.7a5,5,0,0,1,10,0V610A5,5,0,0,1,252,615Zm0-39.24a5,5,0,0,1-5-5V555a5,5,0,0,1,10,0v15.7A5,5,0,0,1,252,575.72Zm0-39.25a5,5,0,0,1-5-5v-15.7a5,5,0,0,1,10,0v15.7A5,5,0,0,1,252,536.47Zm0-39.24a5,5,0,0,1-5-5v-15.7a5,5,0,0,1,10,0v15.7A5,5,0,0,1,252,497.23ZM252,458a5,5,0,0,1-5-5v-15.7a5,5,0,0,1,10,0V453A5,5,0,0,1,252,458Zm0-39.24a5,5,0,0,1-5-5V398a5,5,0,1,1,10,0v15.7A5,5,0,0,1,252,418.74Zm0-39.25a5,5,0,0,1-5-5v-15.7a5,5,0,1,1,10,0v15.7A5,5,0,0,1,252,379.49Zm0-39.24a5,5,0,0,1-5-5v-15.7a5,5,0,1,1,10,0v15.7A5,5,0,0,1,252,340.25Z"/><path class="cls-2" d="M252,301a5,5,0,0,1-5-5v-8a5,5,0,0,1,5-5h8a5,5,0,0,1,0,10h-3v3A5,5,0,0,1,252,301Z"/><path class="cls-2" d="M867.69,293h-16.2a5,5,0,0,1,0-10h16.2a5,5,0,0,1,0,10Zm-40.51,0H811a5,5,0,0,1,0-10h16.21a5,5,0,0,1,0,10Zm-40.51,0H770.46a5,5,0,0,1,0-10h16.21a5,5,0,1,1,0,10Zm-40.52,0H730a5,5,0,0,1,0-10h16.2a5,5,0,1,1,0,10Zm-40.51,0h-16.2a5,5,0,0,1,0-10h16.2a5,5,0,0,1,0,10Zm-40.51,0H648.92a5,5,0,0,1,0-10h16.21a5,5,0,0,1,0,10Zm-40.51,0H608.41a5,5,0,0,1,0-10h16.21a5,5,0,0,1,0,10Zm-40.52,0H567.9a5,5,0,0,1,0-10h16.2a5,5,0,0,1,0,10Zm-40.51,0h-16.2a5,5,0,0,1,0-10h16.2a5,5,0,0,1,0,10Zm-40.51,0H486.87a5,5,0,0,1,0-10h16.21a5,5,0,0,1,0,10Zm-40.52,0h-16.2a5,5,0,0,1,0-10h16.2a5,5,0,0,1,0,10Zm-40.51,0h-16.2a5,5,0,0,1,0-10h16.2a5,5,0,0,1,0,10Zm-40.51,0H365.33a5,5,0,1,1,0-10h16.21a5,5,0,0,1,0,10ZM341,293H324.82a5,5,0,1,1,0-10H341a5,5,0,0,1,0,10Zm-40.52,0h-16.2a5,5,0,1,1,0-10h16.2a5,5,0,0,1,0,10Z"/><path class="cls-2" d="M900,301a5,5,0,0,1-5-5v-3h-3a5,5,0,0,1,0-10h8a5,5,0,0,1,5,5v8A5,5,0,0,1,900,301Z"/><path class="cls-2" d="M900,693.45a5,5,0,0,1-5-5v-15.7a5,5,0,0,1,10,0v15.7A5,5,0,0,1,900,693.45Zm0-39.24a5,5,0,0,1-5-5v-15.7a5,5,0,0,1,10,0v15.7A5,5,0,0,1,900,654.21ZM900,615a5,5,0,0,1-5-5v-15.7a5,5,0,0,1,10,0V610A5,5,0,0,1,900,615Zm0-39.24a5,5,0,0,1-5-5V555a5,5,0,0,1,10,0v15.7A5,5,0,0,1,900,575.72Zm0-39.25a5,5,0,0,1-5-5v-15.7a5,5,0,0,1,10,0v15.7A5,5,0,0,1,900,536.47Zm0-39.24a5,5,0,0,1-5-5v-15.7a5,5,0,0,1,10,0v15.7A5,5,0,0,1,900,497.23ZM900,458a5,5,0,0,1-5-5v-15.7a5,5,0,0,1,10,0V453A5,5,0,0,1,900,458Zm0-39.24a5,5,0,0,1-5-5V398a5,5,0,1,1,10,0v15.7A5,5,0,0,1,900,418.74Zm0-39.25a5,5,0,0,1-5-5v-15.7a5,5,0,1,1,10,0v15.7A5,5,0,0,1,900,379.49Zm0-39.24a5,5,0,0,1-5-5v-15.7a5,5,0,1,1,10,0v15.7A5,5,0,0,1,900,340.25Z"/><path class="cls-2" d="M850.5,690h-549a24,24,0,0,1-24-24V342a24,24,0,0,1,24-24h549a24,24,0,0,1,24,24V666A24,24,0,0,1,850.5,690Zm-549-360a12,12,0,0,0-12,12V666a12,12,0,0,0,12,12h549a12,12,0,0,0,12-12V342a12,12,0,0,0-12-12Z"/><path class="cls-2" d="M396,582a78,78,0,1,1,78-78A78.09,78.09,0,0,1,396,582Zm0-144a66,66,0,1,0,66,66A66.08,66.08,0,0,0,396,438Z"/><path class="cls-2" d="M396,532.5A28.5,28.5,0,1,1,424.5,504,28.54,28.54,0,0,1,396,532.5Zm0-45A16.5,16.5,0,1,0,412.5,504,16.52,16.52,0,0,0,396,487.5Z"/><path class="cls-2" d="M396,468.5a5,5,0,0,1-5-5V450a5,5,0,0,1,10,0v13.5A5,5,0,0,1,396,468.5Z"/><path class="cls-2" d="M367.36,480.36a5,5,0,0,1-3.53-1.46l-9.55-9.55a5,5,0,0,1,7.07-7.07l9.55,9.55a5,5,0,0,1-3.54,8.53Z"/><path class="cls-2" d="M355.5,509H342a5,5,0,0,1,0-10h13.5a5,5,0,0,1,0,10Z"/><path class="cls-2" d="M357.82,547.18a5,5,0,0,1-3.54-8.53l9.55-9.55a5,5,0,1,1,7.07,7.07l-9.55,9.55A4.94,4.94,0,0,1,357.82,547.18Z"/><path class="cls-2" d="M396,563a5,5,0,0,1-5-5V544.5a5,5,0,0,1,10,0V558A5,5,0,0,1,396,563Z"/><path class="cls-2" d="M434.18,547.18a4.94,4.94,0,0,1-3.53-1.46l-9.55-9.55a5,5,0,1,1,7.07-7.07l9.55,9.55a5,5,0,0,1-3.54,8.53Z"/><path class="cls-2" d="M450,509H436.5a5,5,0,0,1,0-10H450a5,5,0,0,1,0,10Z"/><path class="cls-2" d="M424.64,480.36a5,5,0,0,1-3.54-8.53l9.55-9.55a5,5,0,0,1,7.07,7.07l-9.55,9.55A5,5,0,0,1,424.64,480.36Z"/><path class="cls-2" d="M522.06,459.5H522a59.09,59.09,0,0,1-18.17-2.85,5,5,0,0,1,3.08-9.52A49,49,0,0,0,522,449.5a5,5,0,0,1,5,5A5,5,0,0,1,522.06,459.5Zm24.5-5.89a5,5,0,0,1-2.28-9.45,49,49,0,0,0,12.38-9,5,5,0,1,1,7.08,7.07,59.17,59.17,0,0,1-14.91,10.86A5,5,0,0,1,546.56,453.61Zm-62.69-9.87a5,5,0,0,1-3.53-1.46,59,59,0,0,1-10.87-14.9,5,5,0,1,1,8.9-4.56,48.85,48.85,0,0,0,9,12.38,5,5,0,0,1-3.53,8.54Zm89.51-21.56a5.17,5.17,0,0,1-1.55-.24,5,5,0,0,1-3.21-6.3A49,49,0,0,0,571,400.5v-.19a5,5,0,0,1,5-5h0a5,5,0,0,1,5,5v.26a59.08,59.08,0,0,1-2.87,18.22A5,5,0,0,1,573.38,422.18ZM468,405.61a5,5,0,0,1-5-5v-.11a59,59,0,0,1,2.83-18.11,5,5,0,0,1,9.52,3.07,49,49,0,0,0-2.35,15v.11A5,5,0,0,1,468,405.61ZM570,380.8a5,5,0,0,1-4.44-2.71,49.14,49.14,0,0,0-9.07-12.36,5,5,0,0,1,7.05-7.1,59.4,59.4,0,0,1,10.91,14.87,5,5,0,0,1-2.16,6.74A4.93,4.93,0,0,1,570,380.8Zm-86.31-13.39a5,5,0,0,1-3.54-8.52A58.71,58.71,0,0,1,495.06,348a5,5,0,1,1,4.57,8.89,49,49,0,0,0-12.37,9.05A5,5,0,0,1,483.72,367.41Zm54.8-13.33a4.85,4.85,0,0,1-1.53-.25,49.22,49.22,0,0,0-15-2.33h-.17a5,5,0,0,1,0-10H522a59.15,59.15,0,0,1,18,2.81,5,5,0,0,1-1.53,9.77Z"/><path class="cls-2" d="M695,535.55a5,5,0,0,1-5-4.56l-.7-8a5,5,0,1,1,10-.87l.26,3,3-.26a5,5,0,1,1,.87,10l-8,.7Z"/><path class="cls-2" d="M692.22,504.37a5,5,0,0,1-5-4.57l-1.35-15.48a5,5,0,0,1,10-.87l1.35,15.48a5,5,0,0,1-4.54,5.42Zm-3.39-38.7a5,5,0,0,1-5-4.57l-1.35-15.48a5,5,0,0,1,10-.87l1.36,15.48a5,5,0,0,1-4.55,5.42Z"/><path class="cls-2" d="M685.44,427a5,5,0,0,1-5-4.56l-.7-8a5,5,0,0,1,8.2-4.27l6.12,5.14a14.36,14.36,0,0,1-8.2,11.64Z"/><path class="cls-2" d="M786.29,504.2a5,5,0,0,1-3.21-1.17l-12.72-10.67a5,5,0,1,1,6.43-7.66l12.72,10.67a5,5,0,0,1-3.22,8.83Zm-31.8-26.68a5,5,0,0,1-3.21-1.17l-12.73-10.68A5,5,0,0,1,745,458l12.72,10.68a5,5,0,0,1-3.21,8.83Zm-31.81-26.69a5,5,0,0,1-3.21-1.17L706.75,439a5,5,0,1,1,6.43-7.66L725.9,442a5,5,0,0,1-3.22,8.83Z"/><path class="cls-2" d="M803.53,526.05a5,5,0,0,1-2.85-9.1,5,5,0,0,1,7.91-5.57l6.13,5.15a5,5,0,0,1-2.78,8.81l-8,.7Z"/><path class="cls-2" d="M726.13,532.83a5,5,0,0,1-.43-10l15.48-1.35a5,5,0,1,1,.87,10l-15.48,1.36Zm38.7-3.39a5,5,0,0,1-.43-10l15.48-1.36a5,5,0,1,1,.87,10l-15.48,1.35Z"/><path class="cls-2" d="M647.56,535.55h-.44l-8-.7a5,5,0,1,1,.87-10l3,.26.26-3a5,5,0,1,1,10,.87l-.69,8A5,5,0,0,1,647.56,535.55Z"/><path class="cls-2" d="M650.29,504.37l-.44,0a5,5,0,0,1-4.55-5.42l1.36-15.48a5,5,0,0,1,10,.87l-1.36,15.48A5,5,0,0,1,650.29,504.37Zm3.39-38.7-.45,0a5,5,0,0,1-4.54-5.42L650,444.75a5,5,0,0,1,10,.87l-1.35,15.48A5,5,0,0,1,653.68,465.67Z"/><path class="cls-2" d="M657.06,427l-.44,0a18.85,18.85,0,0,0-8.83-4.59,5,5,0,0,1,.62-7.05l6.13-5.14a5,5,0,0,1,8.19,4.27l-.69,8A5,5,0,0,1,657.06,427Z"/><path class="cls-2" d="M556.21,504.2a5,5,0,0,1-3.21-8.83l12.72-10.67a5,5,0,0,1,6.43,7.66L559.43,503A5,5,0,0,1,556.21,504.2ZM588,477.52a5,5,0,0,1-3.22-8.83L597.52,458a5,5,0,1,1,6.43,7.66l-12.72,10.68A5,5,0,0,1,588,477.52Zm31.8-26.69a5,5,0,0,1-3.21-8.83l12.72-10.68a5,5,0,0,1,6.43,7.66L623,449.66A4.93,4.93,0,0,1,619.82,450.83Z"/><path class="cls-2" d="M539,526.05h-.45l-8-.7a5,5,0,0,1-2.77-8.81l6.12-5.15a5,5,0,0,1,7.91,5.57,5,5,0,0,1-2.84,9.1Z"/><path class="cls-2" d="M616.37,532.83l-.44,0-15.48-1.36a5,5,0,0,1,.87-10l15.48,1.35a5,5,0,0,1-.43,10Zm-38.7-3.39-.44,0-15.48-1.35a5,5,0,0,1,.87-10l15.48,1.36a5,5,0,0,1-.43,10Z"/><path class="cls-2" d="M600.28,625.83a5,5,0,0,1-3.61-1.54l-5.54-5.78a5,5,0,0,1,7.23-6.92l5.53,5.78a5,5,0,0,1-3.61,8.46Z"/><path class="cls-2" d="M576.57,601.08a5,5,0,0,1-3.61-1.54l-12.11-12.65a5,5,0,0,1,7.22-6.91l12.11,12.64a5,5,0,0,1-3.61,8.46Z"/><path class="cls-2" d="M546.29,569.46a5,5,0,0,1-3.61-1.54l-5.54-5.77a5,5,0,0,1,3.61-8.46h8a5,5,0,0,1,2.35,9.41,5,5,0,0,1-4.81,6.36Z"/><path class="cls-2" d="M771.48,563.69H756.63a5,5,0,0,1,0-10h14.85a5,5,0,0,1,0,10Zm-37.12,0H719.51a5,5,0,0,1,0-10h14.85a5,5,0,1,1,0,10Zm-37.12,0H682.39a5,5,0,1,1,0-10h14.85a5,5,0,0,1,0,10Zm-37.12,0H645.27a5,5,0,0,1,0-10h14.85a5,5,0,0,1,0,10Zm-37.13,0H608.15a5,5,0,0,1,0-10H623a5,5,0,0,1,0,10Zm-37.12,0H571a5,5,0,0,1,0-10h14.85a5,5,0,0,1,0,10Z"/><path class="cls-2" d="M796,569.26a8,8,0,0,1-2.26-15.57h8a5,5,0,0,1,3.48,8.59l-5.74,5.57A5,5,0,0,1,796,569.26Z"/><path class="cls-2" d="M763.12,601.14a5,5,0,0,1-3.48-8.59l13.16-12.76a5,5,0,1,1,7,7.18L766.6,599.73A5,5,0,0,1,763.12,601.14Z"/><path class="cls-2" d="M737.65,625.83a5,5,0,0,1-3.48-8.59l5.74-5.57a5,5,0,1,1,7,7.18l-5.74,5.57A5,5,0,0,1,737.65,625.83Z"/><path class="cls-2" d="M260,618.36a4,4,0,0,1-.49,0c-2.34-.23-4.87-.34-7.51-.34a5,5,0,0,1,0-10c3,0,5.81.13,8.47.39a5,5,0,0,1-.47,10Z"/><path class="cls-2" d="M446.37,634a80.8,80.8,0,0,1-12.88-1,5,5,0,0,1,1.59-9.88,70.21,70.21,0,0,0,11.29.83h0c1.19,0,2.36,0,3.5-.07a5,5,0,1,1,.4,10C449,634,447.67,634,446.37,634Zm259.22,0c-1.74,0-3.45,0-5.09-.13a5,5,0,0,1,.54-10c1.46.08,3,.12,4.55.12a72.8,72.8,0,0,0,10.29-.67,5,5,0,1,1,1.41,9.9A82.29,82.29,0,0,1,705.59,634Zm-384.81-.08a5,5,0,0,1-.22-10,57.54,57.54,0,0,0,14.37-2.31,5,5,0,1,1,2.9,9.57A67.18,67.18,0,0,1,321,633.91Zm509.3-.06h-.29a66.12,66.12,0,0,1-16.82-3,5,5,0,0,1,3.11-9.51,56.14,56.14,0,0,0,14.29,2.57,5,5,0,0,1-.29,10Zm-242.8-.62a5,5,0,0,1-.72-10,52.18,52.18,0,0,0,13.88-4,5,5,0,1,1,4,9.15A61.15,61.15,0,0,1,588,633.18,4.59,4.59,0,0,1,587.28,633.24Zm-23.68-.18a5.79,5.79,0,0,1-.83-.06,63.08,63.08,0,0,1-16.34-5.09,5,5,0,0,1,4.15-9.1,52.53,52.53,0,0,0,13.83,4.32,5,5,0,0,1-.81,9.93Zm290.06-1.34a5,5,0,0,1-1.34-9.81,73.25,73.25,0,0,0,13.06-5.39l.7-.35a5,5,0,1,1,4.42,9l-.69.34A81.65,81.65,0,0,1,855,631.54,5.35,5.35,0,0,1,853.66,631.72Zm-556.43-.32a5.19,5.19,0,0,1-1.45-.21,84.72,84.72,0,0,1-13.59-5.71l-1.72-.84a5,5,0,1,1,4.39-9l1.75.87a76.63,76.63,0,0,0,12.07,5.1,5,5,0,0,1-1.45,9.78Zm175.89-2.69a5,5,0,0,1-2-9.57c1.86-.83,3.62-1.7,5.49-2.62,2.84-1.4,5.77-2.85,9.1-4.15a5,5,0,0,1,3.63,9.32c-2.92,1.14-5.54,2.43-8.3,3.79-1.88.93-3.81,1.88-5.86,2.8A5,5,0,0,1,473.12,628.71Zm204.72-.47a4.88,4.88,0,0,1-2.09-.46c-1.65-.75-3.24-1.54-4.78-2.3a92.35,92.35,0,0,0-9.26-4.15,5,5,0,0,1,3.46-9.39,102.74,102.74,0,0,1,10.23,4.57c1.54.77,3,1.49,4.53,2.19a5,5,0,0,1-2.09,9.54Zm61.1-2.7a5,5,0,0,1-2.22-9.49A73.57,73.57,0,0,1,752.49,610a5,5,0,0,1,2.37,9.72A64.11,64.11,0,0,0,741.14,625,5,5,0,0,1,738.94,625.54ZM412,625a4.91,4.91,0,0,1-2.19-.51,59.59,59.59,0,0,0-13.73-5.09,5,5,0,0,1,2.18-9.76,69.86,69.86,0,0,1,15.93,5.86A5,5,0,0,1,412,625Zm-53.87-3.11a5,5,0,0,1-1.8-9.67,62.27,62.27,0,0,1,16.7-3.87,5,5,0,0,1,1,10A52.37,52.37,0,0,0,360,621.59,4.94,4.94,0,0,1,358.17,621.93Zm434.59-.4a4.84,4.84,0,0,1-1.7-.3,53.27,53.27,0,0,0-14.16-3,5,5,0,0,1,.81-10,62.85,62.85,0,0,1,16.75,3.55,5,5,0,0,1-1.7,9.7Zm-168.4-1.78a5,5,0,0,1-1.16-9.86A73.83,73.83,0,0,1,640.05,608h0a5,5,0,0,1,0,10,64.42,64.42,0,0,0-14.59,1.61A5.26,5.26,0,0,1,624.36,619.75Zm-97.83-.25a4.94,4.94,0,0,1-1.07-.12A66.62,66.62,0,0,0,511.19,618h-.41a5,5,0,0,1,0-10h.45a76.69,76.69,0,0,1,16.4,1.61,5,5,0,0,1-1.06,9.89Z"/><path class="cls-2" d="M892,618.36a5,5,0,0,1-.47-10c2.66-.26,5.51-.39,8.47-.39a5,5,0,0,1,0,10c-2.64,0-5.17.11-7.51.34A4,4,0,0,1,892,618.36Z"/></svg>