<?xml version="1.0" encoding="utf-8"?>
<!-- Generator: Adobe Illustrator 22.0.1, SVG Export Plug-In . SVG Version: 6.00 Build 0)  -->
<svg version="1.1" id="Layer_1" xmlns="http://www.w3.org/2000/svg" xmlns:xlink="http://www.w3.org/1999/xlink" x="0px" y="0px"
	 viewBox="0 0 409 331.2" style="enable-background:new 0 0 409 331.2;" xml:space="preserve">
<style type="text/css">
	.st0{fill:#FFFFFF;}
	.st1{fill:#DDDDDD;}
	.st2{fill:#C1C1C1;}
	.st3{fill:none;stroke:#FFFFFF;stroke-linecap:round;stroke-miterlimit:10;}
	.st4{fill:#2341C1;}
	.st5{fill:none;}
	.st6{enable-background:new    ;}
	.st7{fill:#1D1D1B;}
	.st8{fill:none;stroke:#DDDDDD;stroke-miterlimit:10;}
	.st9{fill:none;stroke:#1E1E1E;stroke-miterlimit:10;}
	.st10{fill:none;stroke:#1E1E1E;stroke-width:2;stroke-miterlimit:10;}
</style>
<rect x="14.2" y="10.3" class="st0" width="379" height="311.1"/>
<rect x="14.2" y="29.2" class="st1" width="379.8" height="1"/>
<circle class="st1" cx="25.8" cy="20.2" r="3.4"/>
<circle class="st1" cx="38.3" cy="20.2" r="3.4"/>
<circle class="st1" cx="50" cy="20.2" r="3.4"/>
<g>
	<circle class="st2" cx="165.3" cy="259.2" r="14.5"/>
	<line class="st3" x1="158.2" y1="259.7" x2="174.8" y2="259.7"/>
	<polyline class="st3" points="164.9,250 158,259.7 164.8,268.8 	"/>
</g>
<g>
	<circle class="st4" cx="242.9" cy="259.2" r="14.5"/>
	<line class="st3" x1="250.9" y1="259" x2="234.3" y2="259"/>
	<polyline class="st3" points="244.2,268.8 251.1,259.1 244.4,250 	"/>
</g>
<rect x="128.8" y="283" class="st5" width="73" height="16.4"/>
<g class="st6">
	<path class="st7" d="M142.5,283.5h2.8c2.5,0,4.2,1.7,4.2,4.3s-1.7,4.3-4.2,4.3h-2.8V283.5z M145.2,291.1c1.9,0,3.1-1.3,3.1-3.3
		s-1.1-3.3-3.1-3.3h-1.6v6.6L145.2,291.1L145.2,291.1z"/>
	<path class="st7" d="M151.4,284.7c-0.4,0-0.7-0.3-0.7-0.7c0-0.4,0.3-0.7,0.7-0.7s0.7,0.3,0.7,0.7
		C152,284.4,151.7,284.7,151.4,284.7z M151.9,292.1h-1.1v-6.2h1.1V292.1z"/>
	<path class="st7" d="M154.3,290.4c0.2,0.6,0.7,1,1.5,1c0.7,0,1.3-0.3,1.3-0.9c0-0.4-0.3-0.7-0.9-0.9l-1.2-0.3
		c-0.9-0.2-1.5-0.7-1.5-1.6c0-1.1,1-1.8,2.2-1.8c1.4,0,2.2,0.7,2.4,1.8H157c-0.2-0.6-0.6-0.9-1.4-0.9c-0.6,0-1.2,0.3-1.2,0.9
		c0,0.4,0.3,0.6,0.9,0.8l1.2,0.3c1.1,0.3,1.6,0.9,1.6,1.7c0,1.2-1,1.9-2.3,1.9c-1.4,0-2.4-0.7-2.5-1.8h1V290.4z"/>
	<path class="st7" d="M163.1,292.1v-0.5c-0.2,0.3-0.9,0.6-1.6,0.6c-1.3,0-2.3-0.8-2.3-2s1.1-1.9,2.4-1.9c0.6,0,1.3,0.3,1.6,0.5V288
		c0-0.8-0.5-1.3-1.4-1.3c-0.7,0-1.1,0.3-1.3,0.9h-1c0.2-1.1,1.1-1.8,2.3-1.8c1.5,0,2.4,0.8,2.4,2.2v4.1L163.1,292.1L163.1,292.1z
		 M163.1,289.9c-0.2-0.5-0.8-0.8-1.5-0.8c-0.8,0-1.5,0.3-1.5,1.1c0,0.8,0.7,1.1,1.5,1.1c0.6,0,1.3-0.3,1.5-0.8V289.9z"/>
	<path class="st7" d="M170,291.2c-0.3,0.4-1,0.8-1.7,0.8c-1.8,0-2.8-1.5-2.8-3.2s1-3.2,2.8-3.2c0.8,0,1.4,0.4,1.7,0.8v-0.7h1.1v5.7
		c0,2-1.2,3-2.8,3c-1.5,0-2.5-0.8-2.7-2.1h1c0.2,0.8,0.8,1.2,1.6,1.2c1.1,0,1.7-0.7,1.7-2L170,291.2L170,291.2z M170,287.6
		c-0.3-0.6-0.9-1-1.6-1c-1.2,0-1.9,0.9-1.9,2.2c0,1.3,0.7,2.2,1.9,2.2c0.7,0,1.3-0.4,1.6-1V287.6z"/>
	<path class="st7" d="M176.1,286.9c-0.2-0.1-0.4-0.2-0.7-0.2c-0.7,0-1.2,0.4-1.4,1.2v4.2h-1.1v-6.2h1.1v0.8c0.3-0.5,0.9-0.9,1.5-0.9
		c0.3,0,0.5,0,0.6,0.1L176.1,286.9L176.1,286.9z"/>
	<path class="st7" d="M182.1,290.2c-0.2,1.2-1.1,2-2.5,2c-1.7,0-2.9-1.3-2.9-3.2c0-1.9,1.1-3.2,2.8-3.2s2.6,1.2,2.6,3.1v0.4h-4.4
		c0,1.3,0.8,2.1,1.8,2.1c0.8,0,1.3-0.4,1.5-1.1L182.1,290.2L182.1,290.2z M177.8,288.4h3.3c0-0.9-0.5-1.7-1.5-1.7
		C178.7,286.6,178,287.3,177.8,288.4z"/>
	<path class="st7" d="M188.6,290.2c-0.2,1.2-1.1,2-2.5,2c-1.7,0-2.9-1.3-2.9-3.2c0-1.9,1.1-3.2,2.8-3.2s2.6,1.2,2.6,3.1v0.4h-4.4
		c0,1.3,0.8,2.1,1.8,2.1c0.8,0,1.3-0.4,1.5-1.1L188.6,290.2L188.6,290.2z M184.3,288.4h3.3c0-0.9-0.5-1.7-1.5-1.7
		C185.1,286.6,184.4,287.3,184.3,288.4z"/>
</g>
<rect x="206.3" y="283" class="st5" width="73" height="16.4"/>
<g class="st6">
	<path class="st4" d="M231.2,283.5l3.4,8.6h-1.1l-1-2.6H229l-1,2.6h-1.1l3.4-8.6H231.2z M229.3,288.5h2.8l-1.4-3.7L229.3,288.5z"/>
	<path class="st4" d="M239.9,291.2c-0.3,0.4-1,0.8-1.7,0.8c-1.8,0-2.8-1.5-2.8-3.2s1-3.2,2.8-3.2c0.8,0,1.4,0.4,1.7,0.8v-0.7h1.1
		v5.7c0,2-1.2,3-2.8,3c-1.5,0-2.5-0.8-2.7-2.1h1c0.2,0.8,0.8,1.2,1.6,1.2c1.1,0,1.7-0.7,1.7-2L239.9,291.2L239.9,291.2z
		 M239.9,287.6c-0.3-0.6-0.9-1-1.6-1c-1.2,0-1.9,0.9-1.9,2.2c0,1.3,0.7,2.2,1.9,2.2c0.7,0,1.3-0.4,1.6-1V287.6z"/>
	<path class="st4" d="M246,286.9c-0.2-0.1-0.4-0.2-0.7-0.2c-0.7,0-1.2,0.4-1.4,1.2v4.2h-1.1v-6.2h1.1v0.8c0.3-0.5,0.9-0.9,1.5-0.9
		c0.3,0,0.5,0,0.6,0.1L246,286.9L246,286.9z"/>
	<path class="st4" d="M252,290.2c-0.2,1.2-1.1,2-2.5,2c-1.7,0-2.9-1.3-2.9-3.2c0-1.9,1.1-3.2,2.8-3.2s2.6,1.2,2.6,3.1v0.4h-4.4
		c0,1.3,0.8,2.1,1.8,2.1c0.8,0,1.3-0.4,1.5-1.1L252,290.2L252,290.2z M247.7,288.4h3.3c0-0.9-0.5-1.7-1.5-1.7
		C248.6,286.6,247.9,287.3,247.7,288.4z"/>
	<path class="st4" d="M258.4,290.2c-0.2,1.2-1.1,2-2.5,2c-1.7,0-2.9-1.3-2.9-3.2c0-1.9,1.1-3.2,2.8-3.2s2.6,1.2,2.6,3.1v0.4H254
		c0,1.3,0.8,2.1,1.8,2.1c0.8,0,1.3-0.4,1.5-1.1L258.4,290.2L258.4,290.2z M254.2,288.4h3.3c0-0.9-0.5-1.7-1.5-1.7
		C255,286.6,254.3,287.3,254.2,288.4z"/>
</g>
<rect x="44.6" y="56.7" class="st5" width="291.6" height="53.2"/>
<g class="st6">
	<path class="st7" d="M45,57.2h7.1v1h-3v7.6H48v-7.6h-3V57.2z"/>
	<path class="st7" d="M54.9,65.9c-1.7,0-2.9-1.3-2.9-3.2c0-1.9,1.1-3.2,2.9-3.2c1.7,0,2.9,1.3,2.9,3.2
		C57.8,64.6,56.6,65.9,54.9,65.9z M54.9,60.4c-1.1,0-1.8,1-1.8,2.3c0,1.4,0.7,2.3,1.8,2.3s1.8-1,1.8-2.3
		C56.7,61.3,56,60.4,54.9,60.4z"/>
	<path class="st7" d="M64.7,59.5c1.4,0,2.3,0.8,2.5,2h-1.1c-0.1-0.7-0.7-1.1-1.4-1.1c-1.1,0-1.8,1-1.8,2.3c0,1.4,0.7,2.3,1.8,2.3
		c0.7,0,1.3-0.4,1.4-1.1h1.1c-0.2,1.2-1.1,2-2.5,2c-1.7,0-2.8-1.3-2.8-3.2C61.9,60.8,63,59.5,64.7,59.5z"/>
	<path class="st7" d="M70.9,65.9c-1.7,0-2.9-1.3-2.9-3.2c0-1.9,1.1-3.2,2.9-3.2c1.7,0,2.9,1.3,2.9,3.2
		C73.8,64.6,72.6,65.9,70.9,65.9z M70.9,60.4c-1.1,0-1.8,1-1.8,2.3c0,1.4,0.7,2.3,1.8,2.3c1.1,0,1.8-1,1.8-2.3
		C72.7,61.3,72,60.4,70.9,60.4z"/>
	<path class="st7" d="M75.2,59.6h1.1v0.8c0.4-0.5,1-0.9,1.8-0.9c1.4,0,2.2,0.9,2.2,2.3v4.1h-1.1V62c0-0.9-0.4-1.5-1.4-1.5
		c-0.7,0-1.4,0.5-1.6,1.2v4.2h-1.1L75.2,59.6L75.2,59.6z"/>
	<path class="st7" d="M82.3,60.5h-1v-0.9h1V58h1.1v1.6h1.5v0.9h-1.5v3.6c0,0.6,0.3,0.9,0.8,0.9c0.3,0,0.6-0.1,0.8-0.3v1
		c-0.2,0.1-0.6,0.2-1,0.2c-1,0-1.7-0.5-1.7-1.7C82.3,64.2,82.3,60.5,82.3,60.5z"/>
	<path class="st7" d="M87,58.4c-0.4,0-0.7-0.3-0.7-0.7S86.6,57,87,57c0.4,0,0.7,0.3,0.7,0.7C87.7,58.1,87.4,58.4,87,58.4z
		 M87.5,65.8h-1.1v-6.2h1.1V65.8z"/>
	<path class="st7" d="M89.4,59.6h1.1v0.8c0.4-0.5,1-0.9,1.8-0.9c1.4,0,2.2,0.9,2.2,2.3v4.1h-1.1V62c0-0.9-0.4-1.5-1.4-1.5
		c-0.7,0-1.4,0.5-1.6,1.2v4.2h-1.1L89.4,59.6L89.4,59.6z"/>
	<path class="st7" d="M101.2,65.8h-1.1V65c-0.4,0.5-1,0.9-1.8,0.9c-1.4,0-2.2-0.9-2.2-2.3v-4.1h1.1v3.9c0,0.9,0.4,1.5,1.4,1.5
		c0.7,0,1.3-0.5,1.6-1.2v-4.2h1.1L101.2,65.8L101.2,65.8z"/>
	<path class="st7" d="M108,63.9c-0.2,1.2-1.1,2-2.5,2c-1.7,0-2.9-1.3-2.9-3.2c0-1.9,1.1-3.2,2.8-3.2c1.7,0,2.6,1.2,2.6,3.1V63h-4.4
		c0,1.3,0.8,2.1,1.8,2.1c0.8,0,1.3-0.4,1.5-1.1L108,63.9L108,63.9z M103.7,62.1h3.3c0-0.9-0.5-1.7-1.5-1.7
		C104.5,60.4,103.9,61,103.7,62.1z"/>
	<path class="st7" d="M113.1,58.4c-0.4,0-0.7-0.3-0.7-0.7s0.3-0.7,0.7-0.7c0.4,0,0.7,0.3,0.7,0.7C113.8,58.1,113.5,58.4,113.1,58.4z
		 M113.6,65.8h-1.1v-6.2h1.1V65.8z"/>
	<path class="st7" d="M115.5,59.6h1.1v0.8c0.4-0.5,1-0.9,1.8-0.9c1.4,0,2.2,0.9,2.2,2.3v4.1h-1.1V62c0-0.9-0.4-1.5-1.4-1.5
		c-0.7,0-1.4,0.5-1.6,1.2v4.2h-1.1L115.5,59.6L115.5,59.6z"/>
	<path class="st7" d="M122.9,64.1c0.2,0.6,0.7,1,1.5,1c0.7,0,1.3-0.3,1.3-0.9c0-0.4-0.3-0.7-0.9-0.9l-1.2-0.3
		c-0.9-0.2-1.5-0.7-1.5-1.6c0-1.1,1-1.8,2.2-1.8c1.4,0,2.2,0.7,2.4,1.8h-1.1c-0.2-0.6-0.6-0.9-1.4-0.9c-0.6,0-1.2,0.3-1.2,0.9
		c0,0.4,0.3,0.6,0.9,0.8l1.2,0.3c1.1,0.3,1.6,0.9,1.6,1.7c0,1.2-1,1.9-2.3,1.9c-1.4,0-2.4-0.7-2.5-1.8h1V64.1z"/>
	<path class="st7" d="M128.4,60.5h-1v-0.9h1V58h1.1v1.6h1.5v0.9h-1.5v3.6c0,0.6,0.3,0.9,0.8,0.9c0.3,0,0.6-0.1,0.8-0.3v1
		c-0.2,0.1-0.6,0.2-1,0.2c-1,0-1.7-0.5-1.7-1.7L128.4,60.5L128.4,60.5z"/>
	<path class="st7" d="M136,65.8v-0.5c-0.2,0.3-0.9,0.6-1.6,0.6c-1.3,0-2.3-0.8-2.3-2c0-1.2,1.1-1.9,2.4-1.9c0.6,0,1.3,0.3,1.6,0.5
		v-0.8c0-0.8-0.5-1.3-1.4-1.3c-0.7,0-1.1,0.3-1.3,0.9h-1c0.2-1.1,1.1-1.8,2.3-1.8c1.5,0,2.4,0.8,2.4,2.2v4.1H136z M136,63.6
		c-0.2-0.5-0.8-0.8-1.5-0.8c-0.8,0-1.5,0.3-1.5,1.1s0.7,1.1,1.5,1.1c0.6,0,1.3-0.3,1.5-0.8V63.6z"/>
	<path class="st7" d="M139.8,65.8h-1.1v-9.1h1.1V65.8z"/>
	<path class="st7" d="M142.8,65.8h-1.1v-9.1h1.1V65.8z"/>
	<path class="st7" d="M145.2,58.4c-0.4,0-0.7-0.3-0.7-0.7s0.3-0.7,0.7-0.7s0.7,0.3,0.7,0.7C145.8,58.1,145.5,58.4,145.2,58.4z
		 M145.7,65.8h-1.1v-6.2h1.1V65.8z"/>
	<path class="st7" d="M147.6,59.6h1.1v0.8c0.4-0.5,1-0.9,1.8-0.9c1.4,0,2.2,0.9,2.2,2.3v4.1h-1.1V62c0-0.9-0.4-1.5-1.4-1.5
		c-0.7,0-1.4,0.5-1.6,1.2v4.2h-1.1v-6.3H147.6z"/>
	<path class="st7" d="M158.5,64.9c-0.3,0.4-1,0.8-1.7,0.8c-1.8,0-2.8-1.5-2.8-3.2s1-3.2,2.8-3.2c0.8,0,1.4,0.4,1.7,0.8v-0.7h1.1v5.7
		c0,2-1.2,3-2.8,3c-1.5,0-2.5-0.8-2.7-2.1h1c0.2,0.8,0.8,1.2,1.6,1.2c1.1,0,1.7-0.7,1.7-2L158.5,64.9L158.5,64.9z M158.5,61.4
		c-0.3-0.6-0.9-1-1.6-1c-1.2,0-1.9,0.9-1.9,2.2s0.7,2.2,1.9,2.2c0.7,0,1.3-0.4,1.6-1V61.4z"/>
	<path class="st7" d="M164.8,60.5h-1v-0.9h1V58h1.1v1.6h1.5v0.9h-1.5v3.6c0,0.6,0.3,0.9,0.8,0.9c0.3,0,0.6-0.1,0.8-0.3v1
		c-0.2,0.1-0.6,0.2-1,0.2c-1,0-1.7-0.5-1.7-1.7L164.8,60.5L164.8,60.5z"/>
	<path class="st7" d="M169,56.7h1.1v3.7c0.4-0.5,1-0.9,1.8-0.9c1.4,0,2.2,0.9,2.2,2.3v4.1H173V62c0-0.9-0.4-1.5-1.4-1.5
		c-0.7,0-1.4,0.5-1.6,1.2v4.2h-1V56.7z"/>
	<path class="st7" d="M176.3,58.4c-0.4,0-0.7-0.3-0.7-0.7s0.3-0.7,0.7-0.7s0.7,0.3,0.7,0.7C177,58.1,176.7,58.4,176.3,58.4z
		 M176.8,65.8h-1.1v-6.2h1.1V65.8z"/>
	<path class="st7" d="M179.3,64.1c0.2,0.6,0.7,1,1.5,1c0.7,0,1.3-0.3,1.3-0.9c0-0.4-0.3-0.7-0.9-0.9L180,63
		c-0.9-0.2-1.5-0.7-1.5-1.6c0-1.1,1-1.8,2.2-1.8c1.4,0,2.2,0.7,2.4,1.8H182c-0.2-0.6-0.6-0.9-1.4-0.9c-0.6,0-1.2,0.3-1.2,0.9
		c0,0.4,0.3,0.6,0.9,0.8l1.2,0.3c1.1,0.3,1.6,0.9,1.6,1.7c0,1.2-1,1.9-2.3,1.9c-1.4,0-2.4-0.7-2.5-1.8h1V64.1z"/>
	<path class="st7" d="M188.2,64.1c0.2,0.6,0.7,1,1.5,1c0.7,0,1.3-0.3,1.3-0.9c0-0.4-0.3-0.7-0.9-0.9l-1.2-0.3
		c-0.9-0.2-1.5-0.7-1.5-1.6c0-1.1,1-1.8,2.2-1.8c1.4,0,2.2,0.7,2.4,1.8h-1.1c-0.2-0.6-0.6-0.9-1.4-0.9c-0.6,0-1.2,0.3-1.2,0.9
		c0,0.4,0.3,0.6,0.9,0.8l1.2,0.3c1.1,0.3,1.6,0.9,1.6,1.7c0,1.2-1,1.9-2.3,1.9c-1.4,0-2.4-0.7-2.5-1.8h1V64.1z"/>
	<path class="st7" d="M195.8,65.9c-1.7,0-2.9-1.3-2.9-3.2c0-1.9,1.1-3.2,2.9-3.2c1.7,0,2.9,1.3,2.9,3.2
		C198.7,64.6,197.5,65.9,195.8,65.9z M195.8,60.4c-1.1,0-1.8,1-1.8,2.3c0,1.4,0.7,2.3,1.8,2.3s1.8-1,1.8-2.3
		C197.6,61.3,196.9,60.4,195.8,60.4z"/>
	<path class="st7" d="M203.2,57.7c-0.2-0.1-0.4-0.2-0.7-0.2c-0.6,0-1,0.4-1,1.1v1h1.4v0.9h-1.4v5.3h-1v-5.3h-1.1v-0.9h1.1v-1
		c0-1.2,0.8-2,1.9-2c0.3,0,0.6,0,0.8,0.1V57.7z"/>
	<path class="st7" d="M204.5,60.5h-1v-0.9h1V58h1.1v1.6h1.5v0.9h-1.5v3.6c0,0.6,0.3,0.9,0.8,0.9c0.3,0,0.6-0.1,0.8-0.3v1
		c-0.2,0.1-0.6,0.2-1,0.2c-1,0-1.7-0.5-1.7-1.7L204.5,60.5L204.5,60.5z"/>
	<path class="st7" d="M213.8,64.3l1.4-4.7h1l-1.8,6.2h-1l-1.3-4.7l-1.3,4.7h-1l-1.8-6.2h1.1l1.4,4.7l1.3-4.7h0.9L213.8,64.3z"/>
	<path class="st7" d="M220.8,65.8v-0.5c-0.2,0.3-0.9,0.6-1.6,0.6c-1.3,0-2.3-0.8-2.3-2c0-1.2,1.1-1.9,2.4-1.9c0.6,0,1.3,0.3,1.6,0.5
		v-0.8c0-0.8-0.5-1.3-1.4-1.3c-0.7,0-1.1,0.3-1.3,0.9h-1c0.2-1.1,1.1-1.8,2.3-1.8c1.5,0,2.4,0.8,2.4,2.2v4.1H220.8z M220.8,63.6
		c-0.2-0.5-0.8-0.8-1.5-0.8c-0.8,0-1.5,0.3-1.5,1.1s0.7,1.1,1.5,1.1c0.6,0,1.3-0.3,1.5-0.8V63.6z"/>
	<path class="st7" d="M226.8,60.6c-0.2-0.1-0.4-0.2-0.7-0.2c-0.7,0-1.2,0.4-1.4,1.2v4.2h-1.1v-6.2h1.1v0.8c0.3-0.5,0.9-0.9,1.5-0.9
		c0.3,0,0.5,0,0.6,0.1L226.8,60.6L226.8,60.6z"/>
	<path class="st7" d="M232.8,63.9c-0.2,1.2-1.1,2-2.5,2c-1.7,0-2.9-1.3-2.9-3.2c0-1.9,1.1-3.2,2.8-3.2s2.6,1.2,2.6,3.1V63h-4.4
		c0,1.3,0.8,2.1,1.8,2.1c0.8,0,1.3-0.4,1.5-1.1L232.8,63.9L232.8,63.9z M228.5,62.1h3.3c0-0.9-0.5-1.7-1.5-1.7
		C229.4,60.4,228.7,61,228.5,62.1z"/>
	<path class="st7" d="M238.2,68.2l0.9-2.3l-2.4-6.3h1.1l1.8,4.9l1.8-4.9h1.1l-3.3,8.6C239.2,68.2,238.2,68.2,238.2,68.2z"/>
	<path class="st7" d="M246.1,65.9c-1.7,0-2.9-1.3-2.9-3.2c0-1.9,1.1-3.2,2.9-3.2c1.7,0,2.9,1.3,2.9,3.2
		C248.9,64.6,247.8,65.9,246.1,65.9z M246.1,60.4c-1.1,0-1.8,1-1.8,2.3c0,1.4,0.7,2.3,1.8,2.3s1.8-1,1.8-2.3
		C247.9,61.3,247.2,60.4,246.1,60.4z"/>
	<path class="st7" d="M255.3,65.8h-1.1V65c-0.4,0.5-1,0.9-1.8,0.9c-1.4,0-2.2-0.9-2.2-2.3v-4.1h1.1v3.9c0,0.9,0.4,1.5,1.4,1.5
		c0.7,0,1.3-0.5,1.6-1.2v-4.2h1.1v6.3H255.3z"/>
	<path class="st7" d="M266.6,59.5c1.3,0,2,0.9,2,2.2v4.1h-1.1v-4c0-0.9-0.4-1.4-1.2-1.4c-0.6,0-1.2,0.4-1.4,1.1v4.3h-1.1v-4
		c0-0.9-0.4-1.4-1.2-1.4c-0.6,0-1.2,0.4-1.4,1.1v4.3h-1.1v-6.2h1.1v0.7c0.3-0.5,0.9-0.9,1.7-0.9c0.8,0,1.4,0.4,1.7,1
		C265.1,59.9,265.7,59.5,266.6,59.5z"/>
	<path class="st7" d="M275.3,65.8h-1.1V65c-0.4,0.5-1,0.9-1.8,0.9c-1.4,0-2.2-0.9-2.2-2.3v-4.1h1.1v3.9c0,0.9,0.4,1.5,1.4,1.5
		c0.7,0,1.3-0.5,1.6-1.2v-4.2h1.1v6.3H275.3z"/>
	<path class="st7" d="M277.7,64.1c0.2,0.6,0.7,1,1.5,1c0.7,0,1.3-0.3,1.3-0.9c0-0.4-0.3-0.7-0.9-0.9l-1.2-0.3
		c-0.9-0.2-1.5-0.7-1.5-1.6c0-1.1,1-1.8,2.2-1.8c1.4,0,2.2,0.7,2.4,1.8h-1.1c-0.2-0.6-0.6-0.9-1.4-0.9c-0.6,0-1.2,0.3-1.2,0.9
		c0,0.4,0.3,0.6,0.9,0.8l1.2,0.3c1.1,0.3,1.6,0.9,1.6,1.7c0,1.2-1,1.9-2.3,1.9c-1.4,0-2.4-0.7-2.5-1.8h1V64.1z"/>
	<path class="st7" d="M283.2,60.5h-1v-0.9h1V58h1.1v1.6h1.5v0.9h-1.5v3.6c0,0.6,0.3,0.9,0.8,0.9c0.3,0,0.6-0.1,0.8-0.3v1
		c-0.2,0.1-0.6,0.2-1,0.2c-1,0-1.7-0.5-1.7-1.7L283.2,60.5L283.2,60.5z"/>
	<path class="st7" d="M293.9,65.8v-0.5c-0.2,0.3-0.9,0.6-1.6,0.6c-1.3,0-2.3-0.8-2.3-2c0-1.2,1.1-1.9,2.4-1.9c0.6,0,1.3,0.3,1.6,0.5
		v-0.8c0-0.8-0.5-1.3-1.4-1.3c-0.7,0-1.1,0.3-1.3,0.9h-1c0.2-1.1,1.1-1.8,2.3-1.8c1.5,0,2.4,0.8,2.4,2.2v4.1H293.9z M293.9,63.6
		c-0.2-0.5-0.8-0.8-1.5-0.8c-0.8,0-1.5,0.3-1.5,1.1s0.7,1.1,1.5,1.1c0.6,0,1.3-0.3,1.5-0.8V63.6z"/>
	<path class="st7" d="M300.8,64.9c-0.3,0.4-1,0.8-1.7,0.8c-1.8,0-2.8-1.5-2.8-3.2s1-3.2,2.8-3.2c0.8,0,1.4,0.4,1.7,0.8v-0.7h1.1v5.7
		c0,2-1.2,3-2.8,3c-1.5,0-2.5-0.8-2.7-2.1h1c0.2,0.8,0.8,1.2,1.6,1.2c1.1,0,1.7-0.7,1.7-2L300.8,64.9L300.8,64.9z M300.8,61.4
		c-0.3-0.6-0.9-1-1.6-1c-1.2,0-1.9,0.9-1.9,2.2s0.7,2.2,1.9,2.2c0.7,0,1.3-0.4,1.6-1V61.4z"/>
	<path class="st7" d="M306.9,60.6c-0.2-0.1-0.4-0.2-0.7-0.2c-0.7,0-1.2,0.4-1.4,1.2v4.2h-1.1v-6.2h1.1v0.8c0.3-0.5,0.9-0.9,1.5-0.9
		c0.3,0,0.5,0,0.6,0.1V60.6z"/>
	<path class="st7" d="M313,63.9c-0.2,1.2-1.1,2-2.5,2c-1.7,0-2.9-1.3-2.9-3.2c0-1.9,1.1-3.2,2.8-3.2c1.7,0,2.6,1.2,2.6,3.1V63h-4.4
		c0,1.3,0.8,2.1,1.8,2.1c0.8,0,1.3-0.4,1.5-1.1L313,63.9L313,63.9z M308.7,62.1h3.3c0-0.9-0.5-1.7-1.5-1.7
		C309.5,60.4,308.9,61,308.7,62.1z"/>
	<path class="st7" d="M319.4,63.9c-0.2,1.2-1.1,2-2.5,2c-1.7,0-2.9-1.3-2.9-3.2c0-1.9,1.1-3.2,2.8-3.2c1.7,0,2.6,1.2,2.6,3.1V63H315
		c0,1.3,0.8,2.1,1.8,2.1c0.8,0,1.3-0.4,1.5-1.1L319.4,63.9L319.4,63.9z M315.1,62.1h3.3c0-0.9-0.5-1.7-1.5-1.7
		C315.9,60.4,315.3,61,315.1,62.1z"/>
	<path class="st7" d="M324.3,60.5h-1v-0.9h1V58h1.1v1.6h1.5v0.9h-1.5v3.6c0,0.6,0.3,0.9,0.8,0.9c0.3,0,0.6-0.1,0.8-0.3v1
		c-0.2,0.1-0.6,0.2-1,0.2c-1,0-1.7-0.5-1.7-1.7L324.3,60.5L324.3,60.5z"/>
	<path class="st7" d="M330.8,65.9c-1.7,0-2.9-1.3-2.9-3.2c0-1.9,1.1-3.2,2.9-3.2c1.7,0,2.9,1.3,2.9,3.2
		C333.6,64.6,332.5,65.9,330.8,65.9z M330.8,60.4c-1.1,0-1.8,1-1.8,2.3c0,1.4,0.7,2.3,1.8,2.3c1.1,0,1.8-1,1.8-2.3
		C332.6,61.3,331.9,60.4,330.8,60.4z"/>
</g>
<g class="st6">
	<path class="st7" d="M45.8,79.5h-1v-0.9h1V77h1.1v1.6h1.5v0.9h-1.5v3.6c0,0.6,0.3,0.9,0.8,0.9c0.3,0,0.6-0.1,0.8-0.3v1
		c-0.2,0.1-0.6,0.2-1,0.2c-1,0-1.7-0.5-1.7-1.7C45.8,83.2,45.8,79.5,45.8,79.5z"/>
	<path class="st7" d="M50,75.7h1v3.7c0.4-0.5,1-0.9,1.8-0.9c1.4,0,2.2,0.9,2.2,2.3v4.1h-1V81c0-0.9-0.4-1.5-1.4-1.5
		c-0.7,0-1.4,0.5-1.6,1.2v4.2h-1V75.7z"/>
	<path class="st7" d="M61.7,82.9c-0.2,1.2-1.1,2-2.5,2c-1.7,0-2.9-1.3-2.9-3.2c0-1.9,1.1-3.2,2.8-3.2s2.6,1.2,2.6,3.1V82h-4.4
		c0,1.3,0.8,2.1,1.8,2.1c0.8,0,1.3-0.4,1.5-1.1h1.1V82.9z M57.4,81.1h3.3c0-0.9-0.5-1.7-1.5-1.7C58.3,79.4,57.6,80,57.4,81.1z"/>
	<path class="st7" d="M63.8,83.1c0.2,0.6,0.7,1,1.5,1c0.7,0,1.3-0.3,1.3-0.9c0-0.4-0.3-0.7-0.9-0.9L64.5,82
		c-0.9-0.2-1.5-0.7-1.5-1.6c0-1.1,1-1.8,2.2-1.8c1.4,0,2.2,0.7,2.4,1.8h-1.1c-0.2-0.6-0.6-0.9-1.4-0.9c-0.6,0-1.2,0.3-1.2,0.9
		c0,0.4,0.3,0.6,0.9,0.8l1.2,0.3c1.1,0.3,1.6,0.9,1.6,1.7c0,1.2-1,1.9-2.3,1.9c-1.4,0-2.4-0.7-2.5-1.8h1V83.1z"/>
	<path class="st7" d="M73.9,82.9c-0.2,1.2-1.1,2-2.5,2c-1.7,0-2.9-1.3-2.9-3.2c0-1.9,1.1-3.2,2.8-3.2c1.7,0,2.6,1.2,2.6,3.1V82h-4.4
		c0,1.3,0.8,2.1,1.8,2.1c0.8,0,1.3-0.4,1.5-1.1h1.1V82.9z M69.6,81.1H73c0-0.9-0.5-1.7-1.5-1.7S69.8,80,69.6,81.1z"/>
	<path class="st7" d="M78.8,79.5h-1v-0.9h1V77h1.1v1.6h1.5v0.9h-1.5v3.6c0,0.6,0.3,0.9,0.8,0.9c0.3,0,0.6-0.1,0.8-0.3v1
		c-0.2,0.1-0.6,0.2-1,0.2c-1,0-1.7-0.5-1.7-1.7C78.8,83.2,78.8,79.5,78.8,79.5z"/>
	<path class="st7" d="M87.8,82.9c-0.2,1.2-1.1,2-2.5,2c-1.7,0-2.9-1.3-2.9-3.2c0-1.9,1.1-3.2,2.8-3.2c1.7,0,2.6,1.2,2.6,3.1V82h-4.4
		c0,1.3,0.8,2.1,1.8,2.1c0.8,0,1.3-0.4,1.5-1.1h1.1V82.9z M83.5,81.1h3.3c0-0.9-0.5-1.7-1.5-1.7S83.7,80,83.5,81.1z"/>
	<path class="st7" d="M92.5,79.6c-0.2-0.1-0.4-0.2-0.7-0.2c-0.7,0-1.2,0.4-1.4,1.2v4.2h-1.1v-6.2h1.1v0.8c0.3-0.5,0.9-0.9,1.5-0.9
		c0.3,0,0.5,0,0.6,0.1V79.6z"/>
	<path class="st7" d="M100.1,78.5c1.3,0,2,0.9,2,2.2v4.1H101v-4c0-0.9-0.4-1.4-1.2-1.4c-0.6,0-1.2,0.4-1.4,1.1v4.3h-1.1v-4
		c0-0.9-0.4-1.4-1.2-1.4c-0.6,0-1.2,0.4-1.4,1.1v4.3h-1.1v-6.2h1.1v0.7c0.3-0.5,0.9-0.9,1.7-0.9c0.8,0,1.4,0.4,1.7,1
		C98.6,78.9,99.2,78.5,100.1,78.5z"/>
	<path class="st7" d="M104.4,83.1c0.2,0.6,0.7,1,1.5,1c0.7,0,1.3-0.3,1.3-0.9c0-0.4-0.3-0.7-0.9-0.9l-1.2-0.3
		c-0.9-0.2-1.5-0.7-1.5-1.6c0-1.1,1-1.8,2.2-1.8c1.4,0,2.2,0.7,2.4,1.8h-1.1c-0.2-0.6-0.6-0.9-1.4-0.9c-0.6,0-1.2,0.3-1.2,0.9
		c0,0.4,0.3,0.6,0.9,0.8l1.2,0.3c1.1,0.3,1.6,0.9,1.6,1.7c0,1.2-1,1.9-2.3,1.9c-1.4,0-2.4-0.7-2.5-1.8h1V83.1z"/>
	<path class="st7" d="M116.2,84.8v-0.5c-0.2,0.3-0.9,0.6-1.6,0.6c-1.3,0-2.3-0.8-2.3-2s1.1-1.9,2.4-1.9c0.6,0,1.3,0.3,1.6,0.5v-0.8
		c0-0.8-0.5-1.3-1.4-1.3c-0.7,0-1.1,0.3-1.3,0.9h-1c0.2-1.1,1.1-1.8,2.3-1.8c1.5,0,2.4,0.8,2.4,2.2v4.1L116.2,84.8L116.2,84.8z
		 M116.2,82.6c-0.2-0.5-0.8-0.8-1.5-0.8c-0.8,0-1.5,0.3-1.5,1.1c0,0.8,0.7,1.1,1.5,1.1c0.6,0,1.3-0.3,1.5-0.8V82.6z"/>
	<path class="st7" d="M119,78.6h1.1v0.8c0.4-0.5,1-0.9,1.8-0.9c1.4,0,2.2,0.9,2.2,2.3v4.1H123V81c0-0.9-0.4-1.5-1.4-1.5
		c-0.7,0-1.4,0.5-1.6,1.2v4.2h-1V78.6z"/>
	<path class="st7" d="M129.9,84.1c-0.3,0.4-1,0.9-1.8,0.9c-1.8,0-2.8-1.5-2.8-3.2c0-1.8,1-3.2,2.8-3.2c0.8,0,1.4,0.4,1.8,0.9v-3.6
		h1.1V85h-1.1V84.1z M129.9,80.4c-0.3-0.6-0.9-1-1.6-1c-1.2,0-1.9,1-1.9,2.3s0.7,2.3,1.9,2.3c0.7,0,1.3-0.4,1.6-1V80.4z"/>
	<path class="st7" d="M138.3,78.5c1.4,0,2.3,0.8,2.5,2h-1.1c-0.1-0.7-0.7-1.1-1.4-1.1c-1.1,0-1.8,1-1.8,2.3c0,1.4,0.7,2.3,1.8,2.3
		c0.7,0,1.3-0.4,1.4-1.1h1.1c-0.2,1.2-1.1,2-2.5,2c-1.7,0-2.8-1.3-2.8-3.2C135.5,79.8,136.7,78.5,138.3,78.5z"/>
	<path class="st7" d="M144.6,84.9c-1.7,0-2.9-1.3-2.9-3.2c0-1.9,1.1-3.2,2.9-3.2c1.7,0,2.9,1.3,2.9,3.2
		C147.4,83.6,146.3,84.9,144.6,84.9z M144.6,79.4c-1.1,0-1.8,1-1.8,2.3c0,1.4,0.7,2.3,1.8,2.3s1.8-1,1.8-2.3
		C146.4,80.3,145.7,79.4,144.6,79.4z"/>
	<path class="st7" d="M148.9,78.6h1.1v0.8c0.4-0.5,1-0.9,1.8-0.9c1.4,0,2.2,0.9,2.2,2.3v4.1h-1.1V81c0-0.9-0.4-1.5-1.4-1.5
		c-0.7,0-1.4,0.5-1.6,1.2v4.2h-1.1v-6.3H148.9z"/>
	<path class="st7" d="M159.8,84.1c-0.3,0.4-1,0.9-1.8,0.9c-1.8,0-2.8-1.5-2.8-3.2c0-1.8,1-3.2,2.8-3.2c0.8,0,1.4,0.4,1.8,0.9v-3.6
		h1.1V85h-1.1V84.1z M159.8,80.4c-0.3-0.6-0.9-1-1.6-1c-1.2,0-1.9,1-1.9,2.3s0.7,2.3,1.9,2.3c0.7,0,1.3-0.4,1.6-1V80.4z"/>
	<path class="st7" d="M163.3,77.4c-0.4,0-0.7-0.3-0.7-0.7c0-0.4,0.3-0.7,0.7-0.7s0.7,0.3,0.7,0.7S163.6,77.4,163.3,77.4z
		 M163.8,84.8h-1.1v-6.2h1.1V84.8z"/>
	<path class="st7" d="M166,79.5h-1v-0.9h1V77h1.1v1.6h1.5v0.9H167v3.6c0,0.6,0.3,0.9,0.8,0.9c0.3,0,0.6-0.1,0.8-0.3v1
		c-0.2,0.1-0.6,0.2-1,0.2c-1,0-1.7-0.5-1.7-1.7L166,79.5L166,79.5z"/>
	<path class="st7" d="M170.6,77.4c-0.4,0-0.7-0.3-0.7-0.7c0-0.4,0.3-0.7,0.7-0.7s0.7,0.3,0.7,0.7S171,77.4,170.6,77.4z M171.2,84.8
		h-1.1v-6.2h1.1V84.8z"/>
	<path class="st7" d="M175.4,84.9c-1.7,0-2.9-1.3-2.9-3.2c0-1.9,1.1-3.2,2.9-3.2c1.7,0,2.9,1.3,2.9,3.2
		C178.3,83.6,177.1,84.9,175.4,84.9z M175.4,79.4c-1.1,0-1.8,1-1.8,2.3c0,1.4,0.7,2.3,1.8,2.3s1.8-1,1.8-2.3
		C177.2,80.3,176.6,79.4,175.4,79.4z"/>
	<path class="st7" d="M179.7,78.6h1.1v0.8c0.4-0.5,1-0.9,1.8-0.9c1.4,0,2.2,0.9,2.2,2.3v4.1h-1.1V81c0-0.9-0.4-1.5-1.4-1.5
		c-0.7,0-1.4,0.5-1.6,1.2v4.2h-1.1v-6.3H179.7z"/>
	<path class="st7" d="M187.1,83.1c0.2,0.6,0.7,1,1.5,1c0.7,0,1.3-0.3,1.3-0.9c0-0.4-0.3-0.7-0.9-0.9l-1.2-0.3
		c-0.9-0.2-1.5-0.7-1.5-1.6c0-1.1,1-1.8,2.2-1.8c1.4,0,2.2,0.7,2.4,1.8h-1.1c-0.2-0.6-0.6-0.9-1.4-0.9c-0.6,0-1.2,0.3-1.2,0.9
		c0,0.4,0.3,0.6,0.9,0.8l1.2,0.3c1.1,0.3,1.6,0.9,1.6,1.7c0,1.2-1,1.9-2.3,1.9c-1.4,0-2.4-0.7-2.5-1.8h1V83.1z"/>
</g>
<rect x="45.9" y="103.3" class="st8" width="321" height="116"/>
<rect x="56.2" y="118.8" class="st5" width="291.6" height="92.8"/>
<g class="st6">
	<path class="st7" d="M56,117.6v3h-0.9v-7.4h2.8c1.5,0,2.4,0.8,2.4,2.2c0,1.4-0.9,2.2-2.4,2.2C57.9,117.6,56,117.6,56,117.6z
		 M57.8,114H56v2.7h1.8c1,0,1.5-0.5,1.5-1.4C59.3,114.6,58.8,114,57.8,114z"/>
	<path class="st7" d="M61.5,113.2h0.9v6.5h3.8v0.9h-4.7C61.5,120.6,61.5,113.2,61.5,113.2z"/>
	<path class="st7" d="M72.3,113.2v0.8h-3.8v2.3h3.4v0.8h-3.4v2.5h3.8v0.9h-4.7v-7.4L72.3,113.2L72.3,113.2z"/>
	<path class="st7" d="M76.9,113.2l2.9,7.4h-1l-0.9-2.2h-3l-0.8,2.2h-1l2.9-7.4H76.9z M75.2,117.5h2.4l-1.2-3.1L75.2,117.5z"/>
	<path class="st7" d="M81.2,118.7c0.3,0.8,1,1.2,1.9,1.2c1,0,1.6-0.5,1.6-1.3c0-0.6-0.3-0.9-1.2-1.2l-1.3-0.3
		c-1-0.3-1.8-0.8-1.8-1.9c0-1.2,1-2.1,2.4-2.1c1.5,0,2.4,0.8,2.7,1.9h-0.9c-0.2-0.7-0.8-1.1-1.8-1.1c-0.9,0-1.5,0.5-1.5,1.2
		c0,0.6,0.4,0.9,1.2,1.1l1.3,0.3c1.2,0.3,1.8,0.9,1.8,2c0,1.3-1.1,2.1-2.5,2.1s-2.6-0.7-2.8-2h0.9V118.7z"/>
	<path class="st7" d="M91.7,113.2v0.8h-3.8v2.3h3.4v0.8h-3.4v2.5h3.8v0.9H87v-7.4L91.7,113.2L91.7,113.2z"/>
	<path class="st7" d="M96.8,117.5v3.1h-0.9v-7.4h2.7c1.5,0,2.4,0.7,2.4,2.1c0,1.2-0.7,1.9-1.9,2.1l2.2,3.2h-1.1l-2.1-3.1
		C98.1,117.5,96.8,117.5,96.8,117.5z M96.8,116.7h1.8c1,0,1.5-0.5,1.5-1.3s-0.5-1.3-1.5-1.3h-1.8V116.7z"/>
	<path class="st7" d="M107.1,113.2v0.8h-3.8v2.3h3.4v0.8h-3.4v2.5h3.8v0.9h-4.7v-7.4L107.1,113.2L107.1,113.2z"/>
	<path class="st7" d="M111.8,113.2l2.9,7.4h-1l-0.9-2.2h-3l-0.8,2.2h-1l2.9-7.4H111.8z M110.1,117.5h2.4l-1.2-3.1L110.1,117.5z"/>
	<path class="st7" d="M115.8,113.2h2.4c2.2,0,3.6,1.4,3.6,3.7c0,2.2-1.4,3.7-3.6,3.7h-2.4V113.2z M118.1,119.7
		c1.7,0,2.7-1.1,2.7-2.8c0-1.7-1-2.8-2.7-2.8h-1.4v5.7L118.1,119.7L118.1,119.7z"/>
	<path class="st7" d="M125.2,113.2h6.1v0.8h-2.6v6.5h-0.9V114h-2.6V113.2z"/>
	<path class="st7" d="M138.5,113.2v7.4h-0.9v-3.4h-4.2v3.4h-0.9v-7.4h0.9v3.2h4.2v-3.2H138.5z"/>
	<path class="st7" d="M141.2,120.6h-0.9v-7.4h0.9V120.6z"/>
	<path class="st7" d="M143.4,118.7c0.3,0.8,1,1.2,1.9,1.2c1,0,1.6-0.5,1.6-1.3c0-0.6-0.3-0.9-1.2-1.2l-1.3-0.3
		c-1-0.3-1.8-0.8-1.8-1.9c0-1.2,1-2.1,2.4-2.1c1.5,0,2.4,0.8,2.7,1.9h-0.9c-0.2-0.7-0.8-1.1-1.8-1.1c-0.9,0-1.5,0.5-1.5,1.2
		c0,0.6,0.4,0.9,1.2,1.1l1.3,0.3c1.2,0.3,1.8,0.9,1.8,2c0,1.3-1.1,2.1-2.5,2.1s-2.6-0.7-2.8-2h0.9V118.7z"/>
	<path class="st7" d="M152.1,118.7c0.3,0.8,1,1.2,1.9,1.2c1,0,1.6-0.5,1.6-1.3c0-0.6-0.3-0.9-1.2-1.2l-1.3-0.3
		c-1-0.3-1.8-0.8-1.8-1.9c0-1.2,1-2.1,2.4-2.1c1.5,0,2.4,0.8,2.7,1.9h-0.9c-0.2-0.7-0.8-1.1-1.8-1.1c-0.9,0-1.5,0.5-1.5,1.2
		c0,0.6,0.4,0.9,1.2,1.1l1.3,0.3c1.2,0.3,1.8,0.9,1.8,2c0,1.3-1.1,2.1-2.5,2.1s-2.6-0.7-2.8-2h0.9V118.7z"/>
	<path class="st7" d="M160.8,120.7c-1.9,0-3.3-1.6-3.3-3.8c0-2.2,1.4-3.8,3.3-3.8c1.9,0,3.3,1.6,3.3,3.8S162.7,120.7,160.8,120.7z
		 M160.8,114c-1.4,0-2.4,1.2-2.4,2.9c0,1.7,1,2.9,2.4,2.9s2.4-1.2,2.4-2.9C163.1,115.2,162.2,114,160.8,114z"/>
	<path class="st7" d="M165.4,120.6v-7.4h4.5v0.8h-3.5v2.5h3.3v0.8h-3.3v3.2L165.4,120.6L165.4,120.6z"/>
	<path class="st7" d="M170.7,113.2h6.1v0.8h-2.6v6.5h-0.9V114h-2.6V113.2z"/>
	<path class="st7" d="M182.2,113.2l1.6,5.9l1.5-5.9h0.9l-2,7.4h-0.9l-1.5-5.7l-1.6,5.7h-0.9l-2-7.4h0.9l1.5,5.9l1.6-5.9H182.2z"/>
	<path class="st7" d="M190.1,113.2l2.9,7.4h-1l-0.9-2.2h-3l-0.8,2.2h-1l2.9-7.4H190.1z M188.5,117.5h2.4l-1.2-3.1L188.5,117.5z"/>
	<path class="st7" d="M195.1,117.5v3.1h-0.9v-7.4h2.7c1.5,0,2.4,0.7,2.4,2.1c0,1.2-0.7,1.9-1.9,2.1l2.2,3.2h-1.1l-2.1-3.1
		C196.4,117.5,195.1,117.5,195.1,117.5z M195.1,116.7h1.8c1,0,1.5-0.5,1.5-1.3s-0.5-1.3-1.5-1.3h-1.8V116.7z"/>
	<path class="st7" d="M205.4,113.2v0.8h-3.8v2.3h3.4v0.8h-3.4v2.5h3.8v0.9h-4.7v-7.4L205.4,113.2L205.4,113.2z"/>
	<path class="st7" d="M209.6,113.2h0.9v6.5h3.8v0.9h-4.7V113.2z"/>
	<path class="st7" d="M216.6,120.6h-0.9v-7.4h0.9V120.6z"/>
	<path class="st7" d="M221.2,113.1c1.5,0,2.6,0.9,2.9,2.3h-0.9c-0.3-0.9-0.9-1.4-1.9-1.4c-1.4,0-2.4,1.2-2.4,2.9
		c0,1.7,0.9,2.9,2.4,2.9c1,0,1.6-0.6,1.9-1.4h0.9c-0.3,1.4-1.3,2.3-2.9,2.3c-1.9,0-3.3-1.5-3.3-3.8S219.3,113.1,221.2,113.1z"/>
	<path class="st7" d="M230,113.2v0.8h-3.8v2.3h3.4v0.8h-3.4v2.5h3.8v0.9h-4.7v-7.4L230,113.2L230,113.2z"/>
	<path class="st7" d="M237.3,120.6h-0.7l-4.1-5.9v5.9h-0.9v-7.4h0.9l3.9,5.6v-5.6h0.9L237.3,120.6L237.3,120.6z"/>
	<path class="st7" d="M239.4,118.7c0.3,0.8,1,1.2,1.9,1.2c1,0,1.6-0.5,1.6-1.3c0-0.6-0.3-0.9-1.2-1.2l-1.3-0.3
		c-1-0.3-1.8-0.8-1.8-1.9c0-1.2,1-2.1,2.4-2.1c1.5,0,2.4,0.8,2.7,1.9h-0.9c-0.2-0.7-0.8-1.1-1.8-1.1c-0.9,0-1.5,0.5-1.5,1.2
		c0,0.6,0.4,0.9,1.2,1.1l1.3,0.3c1.2,0.3,1.8,0.9,1.8,2c0,1.3-1.1,2.1-2.5,2.1s-2.6-0.7-2.8-2h0.9V118.7z"/>
	<path class="st7" d="M249.8,113.2v0.8H246v2.3h3.4v0.8H246v2.5h3.8v0.9h-4.7v-7.4L249.8,113.2L249.8,113.2z"/>
	<path class="st7" d="M257.1,113.2l2.9,7.4h-1l-0.9-2.2h-3l-0.8,2.2h-1l2.9-7.4H257.1z M255.4,117.5h2.4l-1.2-3.1L255.4,117.5z"/>
	<path class="st7" d="M264.2,117.8V117h2.7v0.5c0,2-1.2,3.2-3,3.2c-1.9,0-3.4-1.5-3.4-3.8s1.5-3.8,3.4-3.8c1.6,0,2.6,0.9,2.9,2.3
		h-0.9c-0.3-0.9-0.9-1.4-2-1.4c-1.4,0-2.4,1.2-2.4,2.9c0,1.8,1,3,2.4,3c1.3,0,2-0.8,2.1-2.1C266,117.8,264.2,117.8,264.2,117.8z"/>
	<path class="st7" d="M269.1,117.5v3.1h-0.9v-7.4h2.7c1.5,0,2.4,0.7,2.4,2.1c0,1.2-0.7,1.9-1.9,2.1l2.2,3.2h-1.1l-2.1-3.1
		C270.4,117.5,269.1,117.5,269.1,117.5z M269.1,116.7h1.8c1,0,1.5-0.5,1.5-1.3s-0.5-1.3-1.5-1.3h-1.8V116.7z"/>
	<path class="st7" d="M279.5,113.2v0.8h-3.8v2.3h3.4v0.8h-3.4v2.5h3.8v0.9h-4.7v-7.4L279.5,113.2L279.5,113.2z"/>
	<path class="st7" d="M285.7,113.2v0.8h-3.8v2.3h3.4v0.8h-3.4v2.5h3.8v0.9H281v-7.4L285.7,113.2L285.7,113.2z"/>
	<path class="st7" d="M290.4,120.6l-2.3-5.6v5.6h-0.9v-7.4h1.1l2.5,6l2.5-6h1v7.4h-0.9V115l-2.3,5.6H290.4z"/>
	<path class="st7" d="M300.7,113.2v0.8h-3.8v2.3h3.4v0.8h-3.4v2.5h3.8v0.9H296v-7.4L300.7,113.2L300.7,113.2z"/>
	<path class="st7" d="M307.9,120.6h-0.7l-4.1-5.9v5.9h-0.9v-7.4h0.9l3.9,5.6v-5.6h0.9L307.9,120.6L307.9,120.6z"/>
	<path class="st7" d="M309.1,113.2h6.1v0.8h-2.6v6.5h-0.9V114h-2.6V113.2z"/>
</g>
<g class="st6">
	<path class="st7" d="M57.8,127.8v1c-1.3,0.3-2.3,1.6-2.3,3.4c0,1.8,1,3.1,2.3,3.4v1c-2-0.5-3.2-2.2-3.2-4.4S55.8,128.3,57.8,127.8z
		"/>
	<path class="st7" d="M59,129.3c-0.3,0-0.5-0.3-0.5-0.6c0-0.4,0.3-0.6,0.6-0.6c0.4,0,0.6,0.3,0.6,0.7c0,0.3-0.1,0.5-0.3,0.8l-0.6,1
		h-0.6L59,129.3z M60.9,129.3c-0.3,0-0.5-0.3-0.5-0.6c0-0.4,0.3-0.6,0.6-0.6s0.6,0.3,0.6,0.7c0,0.3-0.1,0.5-0.3,0.8l-0.6,1h-0.6
		L60.9,129.3z"/>
	<path class="st7" d="M62.7,128.2h0.9v6.5h3.8v0.9h-4.7V128.2z"/>
	<path class="st7" d="M69.7,135.6h-0.9v-7.4h0.9V135.6z"/>
	<path class="st7" d="M74.3,128.1c1.5,0,2.6,0.9,2.9,2.3h-0.9c-0.3-0.9-0.9-1.4-1.9-1.4c-1.4,0-2.4,1.2-2.4,2.9s0.9,2.9,2.4,2.9
		c1,0,1.6-0.6,1.9-1.4h0.9c-0.3,1.4-1.3,2.3-2.9,2.3c-1.9,0-3.3-1.5-3.3-3.8S72.5,128.1,74.3,128.1z"/>
	<path class="st7" d="M83.2,128.2v0.8h-3.8v2.3h3.4v0.8h-3.4v2.5h3.8v0.9h-4.7v-7.4L83.2,128.2L83.2,128.2z"/>
	<path class="st7" d="M90.4,135.6h-0.7l-4.1-5.9v5.9h-0.9v-7.4h0.9l3.9,5.6v-5.6h0.9C90.4,128.2,90.4,135.6,90.4,135.6z"/>
	<path class="st7" d="M92.5,133.7c0.3,0.8,1,1.2,1.9,1.2c1,0,1.6-0.5,1.6-1.3c0-0.6-0.3-0.9-1.2-1.2l-1.3-0.3
		c-1-0.3-1.8-0.8-1.8-1.9c0-1.2,1-2.1,2.4-2.1c1.5,0,2.4,0.8,2.7,1.9h-0.9c-0.2-0.7-0.8-1.1-1.8-1.1c-0.9,0-1.5,0.5-1.5,1.2
		c0,0.6,0.4,0.9,1.2,1.1l1.3,0.3c1.2,0.3,1.8,0.9,1.8,2c0,1.3-1.1,2.1-2.5,2.1s-2.6-0.7-2.8-2h0.9V133.7z"/>
	<path class="st7" d="M103,128.2v0.8h-3.8v2.3h3.4v0.8h-3.4v2.5h3.8v0.9h-4.7v-7.4L103,128.2L103,128.2z"/>
	<path class="st7" d="M104.6,129.3c-0.3,0-0.5-0.3-0.5-0.6c0-0.4,0.3-0.6,0.6-0.6c0.4,0,0.6,0.3,0.6,0.7c0,0.3-0.1,0.5-0.3,0.8
		l-0.6,1h-0.6L104.6,129.3z M106.5,129.3c-0.3,0-0.5-0.3-0.5-0.6c0-0.4,0.3-0.6,0.6-0.6c0.4,0,0.6,0.3,0.6,0.7
		c0,0.3-0.1,0.5-0.3,0.8l-0.6,1h-0.6L106.5,129.3z"/>
	<path class="st7" d="M107.8,136.6v-1c1.3-0.3,2.3-1.6,2.3-3.4c0-1.8-1-3.1-2.3-3.4v-1c2,0.5,3.2,2.2,3.2,4.4
		C111,134.4,109.8,136.1,107.8,136.6z"/>
	<path class="st7" d="M117.8,128.1c1.5,0,2.6,0.9,2.9,2.3h-0.9c-0.3-0.9-0.9-1.4-1.9-1.4c-1.4,0-2.4,1.2-2.4,2.9s0.9,2.9,2.4,2.9
		c1,0,1.6-0.6,1.9-1.4h0.9c-0.3,1.4-1.3,2.3-2.9,2.3c-1.9,0-3.3-1.5-3.3-3.8S115.9,128.1,117.8,128.1z"/>
	<path class="st7" d="M125,128.2l2.9,7.4h-1l-0.9-2.2h-3l-0.8,2.2h-1l2.9-7.4H125z M123.3,132.5h2.4l-1.2-3.1L123.3,132.5z"/>
	<path class="st7" d="M129.9,132.5v3.1H129v-7.4h2.7c1.5,0,2.4,0.7,2.4,2.1c0,1.2-0.7,1.9-1.9,2.1l2.2,3.2h-1.1l-2.1-3.1
		L129.9,132.5L129.9,132.5z M129.9,131.7h1.8c1,0,1.5-0.5,1.5-1.3s-0.5-1.3-1.5-1.3h-1.8V131.7z"/>
	<path class="st7" d="M140.3,128.2v0.8h-3.8v2.3h3.4v0.8h-3.4v2.5h3.8v0.9h-4.7v-7.4L140.3,128.2L140.3,128.2z"/>
	<path class="st7" d="M141.8,135.6v-7.4h4.5v0.8h-3.5v2.5h3.3v0.8h-3.3v3.2L141.8,135.6L141.8,135.6z"/>
	<path class="st7" d="M147.5,132.7v-4.4h0.9v4.3c0,1.6,0.8,2.3,1.9,2.3s1.9-0.7,1.9-2.3v-4.3h0.9v4.5c0,2-1.2,3-2.9,3
		C148.7,135.7,147.5,134.7,147.5,132.7z"/>
	<path class="st7" d="M154.9,128.2h0.9v6.5h3.8v0.9h-4.7V128.2z"/>
	<path class="st7" d="M160.9,128.2h0.9v6.5h3.8v0.9h-4.7V128.2z"/>
	<path class="st7" d="M170.6,128.2h1l-2.7,4.3v3H168v-3l-2.7-4.3h1l2.1,3.5L170.6,128.2z"/>
	<path class="st7" d="M180.4,133.5c0,1.3-0.9,2.1-2.4,2.1h-2.7v-7.4h2.4c1.5,0,2.4,0.7,2.4,2c0,0.9-0.5,1.4-1.1,1.6
		C179.9,132,180.4,132.7,180.4,133.5z M177.8,131.4c1,0,1.5-0.4,1.5-1.2s-0.5-1.2-1.5-1.2h-1.5v2.4H177.8z M176.3,134.8h1.7
		c1,0,1.5-0.5,1.5-1.3s-0.5-1.3-1.5-1.3h-1.7V134.8z"/>
	<path class="st7" d="M186.5,128.2v0.8h-3.8v2.3h3.4v0.8h-3.4v2.5h3.8v0.9h-4.7v-7.4L186.5,128.2L186.5,128.2z"/>
	<path class="st7" d="M188,135.6v-7.4h4.5v0.8H189v2.5h3.3v0.8H189v3.2L188,135.6L188,135.6z"/>
	<path class="st7" d="M196.7,135.7c-1.9,0-3.3-1.6-3.3-3.8s1.4-3.8,3.3-3.8c1.9,0,3.3,1.6,3.3,3.8
		C200,134.1,198.6,135.7,196.7,135.7z M196.7,129c-1.4,0-2.4,1.2-2.4,2.9s1,2.9,2.4,2.9s2.4-1.2,2.4-2.9
		C199.1,130.2,198.1,129,196.7,129z"/>
	<path class="st7" d="M202.3,132.5v3.1h-0.9v-7.4h2.7c1.5,0,2.4,0.7,2.4,2.1c0,1.2-0.7,1.9-1.9,2.1l2.2,3.2h-1.1l-2.1-3.1
		L202.3,132.5L202.3,132.5z M202.3,131.7h1.8c1,0,1.5-0.5,1.5-1.3s-0.5-1.3-1.5-1.3h-1.8V131.7z"/>
	<path class="st7" d="M212.7,128.2v0.8h-3.8v2.3h3.4v0.8h-3.4v2.5h3.8v0.9H208v-7.4L212.7,128.2L212.7,128.2z"/>
	<path class="st7" d="M216.7,132.7v-4.4h0.9v4.3c0,1.6,0.8,2.3,1.9,2.3s1.9-0.7,1.9-2.3v-4.3h0.9v4.5c0,2-1.2,3-2.9,3
		C217.9,135.7,216.7,134.7,216.7,132.7z"/>
	<path class="st7" d="M224.4,133.7c0.3,0.8,1,1.2,1.9,1.2c1,0,1.6-0.5,1.6-1.3c0-0.6-0.3-0.9-1.2-1.2l-1.3-0.3
		c-1-0.3-1.8-0.8-1.8-1.9c0-1.2,1-2.1,2.4-2.1c1.5,0,2.4,0.8,2.7,1.9h-0.9c-0.2-0.7-0.8-1.1-1.8-1.1c-0.9,0-1.5,0.5-1.5,1.2
		c0,0.6,0.4,0.9,1.2,1.1l1.3,0.3c1.2,0.3,1.8,0.9,1.8,2c0,1.3-1.1,2.1-2.5,2.1s-2.6-0.7-2.8-2h0.9V133.7z"/>
	<path class="st7" d="M231.1,135.6h-0.9v-7.4h0.9V135.6z"/>
	<path class="st7" d="M238.6,135.6h-0.7l-4.1-5.9v5.9h-0.9v-7.4h0.9l3.9,5.6v-5.6h0.9L238.6,135.6L238.6,135.6z"/>
	<path class="st7" d="M243.7,132.8V132h2.7v0.5c0,2-1.2,3.2-3,3.2c-1.9,0-3.4-1.5-3.4-3.8s1.5-3.8,3.4-3.8c1.6,0,2.6,0.9,2.9,2.3
		h-0.9c-0.3-0.9-0.9-1.4-2-1.4c-1.4,0-2.4,1.2-2.4,2.9c0,1.8,1,3,2.4,3c1.3,0,2-0.8,2.1-2.1L243.7,132.8L243.7,132.8z"/>
	<path class="st7" d="M249.8,128.2h6.1v0.8h-2.6v6.5h-0.9V129h-2.6V128.2z"/>
	<path class="st7" d="M263.2,128.2v7.4h-0.9v-3.4h-4.2v3.4h-0.9v-7.4h0.9v3.2h4.2v-3.2H263.2z"/>
	<path class="st7" d="M269.6,128.2v0.8h-3.8v2.3h3.4v0.8h-3.4v2.5h3.8v0.9H265v-7.4L269.6,128.2L269.6,128.2z"/>
	<path class="st7" d="M274.1,133.7c0.3,0.8,1,1.2,1.9,1.2c1,0,1.6-0.5,1.6-1.3c0-0.6-0.3-0.9-1.2-1.2l-1.3-0.3
		c-1-0.3-1.8-0.8-1.8-1.9c0-1.2,1-2.1,2.4-2.1c1.5,0,2.4,0.8,2.7,1.9h-0.9c-0.2-0.7-0.8-1.1-1.8-1.1c-0.9,0-1.5,0.5-1.5,1.2
		c0,0.6,0.4,0.9,1.2,1.1l1.3,0.3c1.2,0.3,1.8,0.9,1.8,2c0,1.3-1.1,2.1-2.5,2.1s-2.6-0.7-2.8-2h0.9V133.7z"/>
	<path class="st7" d="M282.8,135.7c-1.9,0-3.3-1.6-3.3-3.8s1.4-3.8,3.3-3.8s3.3,1.6,3.3,3.8C286.1,134.1,284.7,135.7,282.8,135.7z
		 M282.8,129c-1.4,0-2.4,1.2-2.4,2.9s1,2.9,2.4,2.9s2.4-1.2,2.4-2.9C285.2,130.2,284.2,129,282.8,129z"/>
	<path class="st7" d="M287.4,135.6v-7.4h4.5v0.8h-3.5v2.5h3.3v0.8h-3.3v3.2L287.4,135.6L287.4,135.6z"/>
	<path class="st7" d="M292.7,128.2h6.1v0.8h-2.6v6.5h-0.9V129h-2.6V128.2z"/>
	<path class="st7" d="M304.2,128.2l1.6,5.9l1.5-5.9h0.9l-2,7.4h-0.9l-1.5-5.7l-1.6,5.7h-0.9l-2-7.4h0.9l1.5,5.9l1.6-5.9H304.2z"/>
	<path class="st7" d="M312.1,128.2l2.9,7.4h-1l-0.9-2.2h-3l-0.8,2.2h-1l2.9-7.4H312.1z M310.5,132.5h2.4l-1.2-3.1L310.5,132.5z"/>
	<path class="st7" d="M317.1,132.5v3.1h-0.9v-7.4h2.7c1.5,0,2.4,0.7,2.4,2.1c0,1.2-0.7,1.9-1.9,2.1l2.2,3.2h-1.1l-2.1-3.1
		L317.1,132.5L317.1,132.5z M317.1,131.7h1.8c1,0,1.5-0.5,1.5-1.3s-0.5-1.3-1.5-1.3h-1.8V131.7z"/>
	<path class="st7" d="M327.5,128.2v0.8h-3.8v2.3h3.4v0.8h-3.4v2.5h3.8v0.9h-4.7v-7.4L327.5,128.2L327.5,128.2z"/>
	<path class="st7" d="M329.2,134.3c0.3,0,0.6,0.3,0.6,0.7s-0.3,0.6-0.6,0.6c-0.4,0-0.6-0.3-0.6-0.6
		C328.5,134.6,328.8,134.3,329.2,134.3z"/>
</g>
<g class="st6">
	<path class="st7" d="M60.2,148.5c0,1.3-0.9,2.1-2.4,2.1h-2.7v-7.4h2.4c1.5,0,2.4,0.7,2.4,2c0,0.9-0.5,1.4-1.1,1.6
		C59.7,147,60.2,147.7,60.2,148.5z M57.5,146.4c1,0,1.5-0.4,1.5-1.2s-0.5-1.2-1.5-1.2H56v2.4H57.5z M56,149.8h1.7
		c1,0,1.5-0.5,1.5-1.3s-0.5-1.3-1.5-1.3H56V149.8z"/>
	<path class="st7" d="M65.9,143.2h1l-2.7,4.3v3h-0.9v-3l-2.7-4.3h1l2.1,3.5L65.9,143.2z"/>
	<path class="st7" d="M70.5,147.7v-4.4h0.9v4.3c0,1.6,0.8,2.3,1.9,2.3s1.9-0.7,1.9-2.3v-4.3h0.9v4.5c0,2-1.2,3-2.9,3
		C71.8,150.7,70.5,149.7,70.5,147.7z"/>
	<path class="st7" d="M78.3,148.7c0.3,0.8,1,1.2,1.9,1.2c1,0,1.6-0.5,1.6-1.3c0-0.6-0.3-0.9-1.2-1.2l-1.3-0.3
		c-1-0.3-1.8-0.8-1.8-1.9c0-1.2,1-2.1,2.4-2.1c1.5,0,2.4,0.8,2.7,1.9h-0.9c-0.2-0.7-0.8-1.1-1.8-1.1c-0.9,0-1.5,0.5-1.5,1.2
		c0,0.6,0.4,0.9,1.2,1.1l1.3,0.3c1.2,0.3,1.8,0.9,1.8,2c0,1.3-1.1,2.1-2.5,2.1s-2.6-0.7-2.8-2h0.9V148.7z"/>
	<path class="st7" d="M85,150.6h-0.9v-7.4H85V150.6z"/>
	<path class="st7" d="M92.5,150.6h-0.7l-4.1-5.9v5.9h-0.9v-7.4h0.9l3.9,5.6v-5.6h0.9C92.5,143.2,92.5,150.6,92.5,150.6z"/>
	<path class="st7" d="M97.6,147.8V147h2.7v0.5c0,2-1.2,3.2-3,3.2c-1.9,0-3.4-1.5-3.4-3.8s1.5-3.8,3.4-3.8c1.6,0,2.6,0.9,2.9,2.3
		h-0.9c-0.3-0.9-0.9-1.4-2-1.4c-1.4,0-2.4,1.2-2.4,2.9c0,1.8,1,3,2.4,3c1.3,0,2-0.8,2.1-2.1L97.6,147.8L97.6,147.8z"/>
	<path class="st7" d="M103.7,143.2h6.1v0.8h-2.6v6.5h-0.9V144h-2.6V143.2z"/>
	<path class="st7" d="M117.1,143.2v7.4h-0.9v-3.4H112v3.4h-1v-7.4h0.9v3.2h4.2v-3.2H117.1z"/>
	<path class="st7" d="M123.5,143.2v0.8h-3.8v2.3h3.4v0.8h-3.4v2.5h3.8v0.9h-4.7v-7.4L123.5,143.2L123.5,143.2z"/>
	<path class="st7" d="M128,148.7c0.3,0.8,1,1.2,1.9,1.2c1,0,1.6-0.5,1.6-1.3c0-0.6-0.3-0.9-1.2-1.2l-1.3-0.3c-1-0.3-1.8-0.8-1.8-1.9
		c0-1.2,1-2.1,2.4-2.1c1.5,0,2.4,0.8,2.7,1.9h-0.9c-0.2-0.7-0.8-1.1-1.8-1.1c-0.9,0-1.5,0.5-1.5,1.2c0,0.6,0.4,0.9,1.2,1.1l1.3,0.3
		c1.2,0.3,1.8,0.9,1.8,2c0,1.3-1.1,2.1-2.5,2.1s-2.6-0.7-2.8-2h0.9V148.7z"/>
	<path class="st7" d="M136.7,150.7c-1.9,0-3.3-1.6-3.3-3.8s1.4-3.8,3.3-3.8c1.9,0,3.3,1.6,3.3,3.8
		C140,149.1,138.6,150.7,136.7,150.7z M136.7,144c-1.4,0-2.4,1.2-2.4,2.9s1,2.9,2.4,2.9s2.4-1.2,2.4-2.9
		C139,145.2,138.1,144,136.7,144z"/>
	<path class="st7" d="M141.3,150.6v-7.4h4.5v0.8h-3.5v2.5h3.3v0.8h-3.3v3.2L141.3,150.6L141.3,150.6z"/>
	<path class="st7" d="M146.6,143.2h6.1v0.8h-2.6v6.5h-0.9V144h-2.6V143.2z"/>
	<path class="st7" d="M158,143.2l1.6,5.9l1.5-5.9h0.9l-2,7.4h-0.9l-1.5-5.7l-1.6,5.7h-0.9l-2-7.4h0.9l1.5,5.9l1.6-5.9H158z"/>
	<path class="st7" d="M166,143.2l2.9,7.4h-1l-0.9-2.2h-3l-0.8,2.2h-1l2.9-7.4H166z M164.3,147.5h2.4l-1.2-3.1L164.3,147.5z"/>
	<path class="st7" d="M171,147.5v3.1h-1v-7.4h2.7c1.5,0,2.4,0.7,2.4,2.1c0,1.2-0.7,1.9-1.9,2.1l2.2,3.2h-1.1l-2.1-3.1L171,147.5
		L171,147.5z M171,146.7h1.8c1,0,1.5-0.5,1.5-1.3s-0.5-1.3-1.5-1.3H171V146.7z"/>
	<path class="st7" d="M181.3,143.2v0.8h-3.8v2.3h3.4v0.8h-3.4v2.5h3.8v0.9h-4.7v-7.4L181.3,143.2L181.3,143.2z"/>
	<path class="st7" d="M182.9,150.6c-0.3,0-0.5-0.3-0.5-0.6c0-0.4,0.3-0.6,0.6-0.6c0.4,0,0.6,0.3,0.6,0.7c0,0.3-0.1,0.5-0.3,0.8
		l-0.6,1.1h-0.6L182.9,150.6z"/>
	<path class="st7" d="M192.2,143.2h1l-2.7,4.3v3h-0.9v-3l-2.7-4.3h1l2.1,3.5L192.2,143.2z"/>
	<path class="st7" d="M196.8,150.7c-1.9,0-3.3-1.6-3.3-3.8s1.4-3.8,3.3-3.8c1.9,0,3.3,1.6,3.3,3.8
		C200.1,149.1,198.7,150.7,196.8,150.7z M196.8,144c-1.4,0-2.4,1.2-2.4,2.9s1,2.9,2.4,2.9s2.4-1.2,2.4-2.9S198.2,144,196.8,144z"/>
	<path class="st7" d="M201.3,147.7v-4.4h0.9v4.3c0,1.6,0.8,2.3,1.9,2.3s1.9-0.7,1.9-2.3v-4.3h0.9v4.5c0,2-1.2,3-2.9,3
		C202.6,150.7,201.3,149.7,201.3,147.7z"/>
	<path class="st7" d="M214.5,143.2l2.9,7.4h-1l-0.9-2.2h-3l-0.8,2.2h-1l2.9-7.4H214.5z M212.9,147.5h2.4l-1.2-3.1L212.9,147.5z"/>
	<path class="st7" d="M219.5,147.5v3.1h-0.9v-7.4h2.7c1.5,0,2.4,0.7,2.4,2.1c0,1.2-0.7,1.9-1.9,2.1l2.2,3.2h-1.1l-2.1-3.1
		L219.5,147.5L219.5,147.5z M219.5,146.7h1.8c1,0,1.5-0.5,1.5-1.3s-0.5-1.3-1.5-1.3h-1.8V146.7z"/>
	<path class="st7" d="M229.9,143.2v0.8h-3.8v2.3h3.4v0.8h-3.4v2.5h3.8v0.9h-4.7v-7.4L229.9,143.2L229.9,143.2z"/>
	<path class="st7" d="M237.1,143.2l2.9,7.4h-1l-0.9-2.2h-3l-0.8,2.2h-1l2.9-7.4H237.1z M235.5,147.5h2.4l-1.2-3.1L235.5,147.5z"/>
	<path class="st7" d="M244.3,147.8V147h2.7v0.5c0,2-1.2,3.2-3,3.2c-1.9,0-3.4-1.5-3.4-3.8s1.5-3.8,3.4-3.8c1.6,0,2.6,0.9,2.9,2.3
		H246c-0.3-0.9-0.9-1.4-2-1.4c-1.4,0-2.4,1.2-2.4,2.9c0,1.8,1,3,2.4,3c1.3,0,2-0.8,2.1-2.1L244.3,147.8L244.3,147.8z"/>
	<path class="st7" d="M249.2,147.5v3.1h-0.9v-7.4h2.7c1.5,0,2.4,0.7,2.4,2.1c0,1.2-0.7,1.9-1.9,2.1l2.2,3.2h-1.1l-2.1-3.1
		L249.2,147.5L249.2,147.5z M249.2,146.7h1.8c1,0,1.5-0.5,1.5-1.3s-0.5-1.3-1.5-1.3h-1.8V146.7z"/>
	<path class="st7" d="M259.6,143.2v0.8h-3.8v2.3h3.4v0.8h-3.4v2.5h3.8v0.9h-4.7v-7.4L259.6,143.2L259.6,143.2z"/>
	<path class="st7" d="M265.7,143.2v0.8H262v2.3h3.4v0.8H262v2.5h3.8v0.9H261v-7.4L265.7,143.2L265.7,143.2z"/>
	<path class="st7" d="M268.2,150.6h-0.9v-7.4h0.9V150.6z"/>
	<path class="st7" d="M275.6,150.6h-0.7l-4.1-5.9v5.9h-0.9v-7.4h0.9l3.9,5.6v-5.6h0.9L275.6,150.6L275.6,150.6z"/>
	<path class="st7" d="M280.7,147.8V147h2.7v0.5c0,2-1.2,3.2-3,3.2c-1.9,0-3.4-1.5-3.4-3.8s1.5-3.8,3.4-3.8c1.6,0,2.6,0.9,2.9,2.3
		h-0.9c-0.3-0.9-0.9-1.4-2-1.4c-1.4,0-2.4,1.2-2.4,2.9c0,1.8,1,3,2.4,3c1.3,0,2-0.8,2.1-2.1L280.7,147.8L280.7,147.8z"/>
	<path class="st7" d="M286.9,143.2h6.1v0.8h-2.6v6.5h-0.9V144h-2.6V143.2z"/>
	<path class="st7" d="M296.7,150.7c-1.9,0-3.3-1.6-3.3-3.8s1.4-3.8,3.3-3.8s3.3,1.6,3.3,3.8C300,149.1,298.6,150.7,296.7,150.7z
		 M296.7,144c-1.4,0-2.4,1.2-2.4,2.9s1,2.9,2.4,2.9s2.4-1.2,2.4-2.9S298.1,144,296.7,144z"/>
	<path class="st7" d="M309.1,148.5c0,1.3-0.9,2.1-2.4,2.1H304v-7.4h2.4c1.5,0,2.4,0.7,2.4,2c0,0.9-0.5,1.4-1.1,1.6
		C308.6,147,309.1,147.7,309.1,148.5z M306.4,146.4c1,0,1.5-0.4,1.5-1.2s-0.5-1.2-1.5-1.2h-1.5v2.4H306.4z M304.9,149.8h1.7
		c1,0,1.5-0.5,1.5-1.3s-0.5-1.3-1.5-1.3h-1.7V149.8z"/>
	<path class="st7" d="M315.1,143.2v0.8h-3.8v2.3h3.4v0.8h-3.4v2.5h3.8v0.9h-4.7v-7.4L315.1,143.2L315.1,143.2z"/>
</g>
<g class="st6">
	<path class="st7" d="M60.2,163.5c0,1.3-0.9,2.1-2.4,2.1h-2.7v-7.4h2.4c1.5,0,2.4,0.7,2.4,2c0,0.9-0.5,1.4-1.1,1.6
		C59.7,162,60.2,162.7,60.2,163.5z M57.5,161.4c1,0,1.5-0.4,1.5-1.2s-0.5-1.2-1.5-1.2H56v2.4H57.5z M56,164.8h1.7
		c1,0,1.5-0.5,1.5-1.3s-0.5-1.3-1.5-1.3H56V164.8z"/>
	<path class="st7" d="M64.5,165.7c-1.9,0-3.3-1.6-3.3-3.8s1.4-3.8,3.3-3.8c1.9,0,3.3,1.6,3.3,3.8C67.8,164.1,66.4,165.7,64.5,165.7z
		 M64.5,159c-1.4,0-2.4,1.2-2.4,2.9s1,2.9,2.4,2.9s2.4-1.2,2.4-2.9C66.8,160.2,65.9,159,64.5,159z"/>
	<path class="st7" d="M69,162.7v-4.4h0.9v4.3c0,1.6,0.8,2.3,1.9,2.3s1.9-0.7,1.9-2.3v-4.3h0.9v4.5c0,2-1.2,3-2.9,3
		C70.2,165.7,69,164.7,69,162.7z"/>
	<path class="st7" d="M82.1,165.6h-0.7l-4.1-5.9v5.9h-0.9v-7.4h0.9l3.9,5.6v-5.6h0.9C82.1,158.2,82.1,165.6,82.1,165.6z"/>
	<path class="st7" d="M83.9,158.2h2.4c2.2,0,3.6,1.4,3.6,3.7c0,2.2-1.4,3.7-3.6,3.7h-2.4V158.2z M86.2,164.7c1.7,0,2.7-1.1,2.7-2.8
		s-1-2.8-2.7-2.8h-1.4v5.7L86.2,164.7L86.2,164.7z"/>
	<path class="st7" d="M98.9,163.5c0,1.3-0.9,2.1-2.4,2.1h-2.7v-7.4h2.4c1.5,0,2.4,0.7,2.4,2c0,0.9-0.5,1.4-1.1,1.6
		C98.4,162,98.9,162.7,98.9,163.5z M96.2,161.4c1,0,1.5-0.4,1.5-1.2s-0.5-1.2-1.5-1.2h-1.5v2.4H96.2z M94.7,164.8h1.7
		c1,0,1.5-0.5,1.5-1.3s-0.5-1.3-1.5-1.3h-1.7V164.8z"/>
	<path class="st7" d="M104.6,158.2h1l-2.7,4.3v3H102v-3l-2.7-4.3h1l2.1,3.5L104.6,158.2z"/>
	<path class="st7" d="M108.8,158.2h6.1v0.8h-2.6v6.5h-0.9V159h-2.6V158.2z"/>
	<path class="st7" d="M122.2,158.2v7.4h-0.9v-3.4h-4.2v3.4h-0.9v-7.4h0.9v3.2h4.2v-3.2H122.2z"/>
	<path class="st7" d="M128.7,158.2v0.8h-3.8v2.3h3.4v0.8h-3.4v2.5h3.8v0.9H124v-7.4L128.7,158.2L128.7,158.2z"/>
	<path class="st7" d="M132.3,158.2h6.1v0.8h-2.6v6.5h-0.9V159h-2.6V158.2z"/>
	<path class="st7" d="M144.3,158.2v0.8h-3.8v2.3h3.4v0.8h-3.4v2.5h3.8v0.9h-4.7v-7.4L144.3,158.2L144.3,158.2z"/>
	<path class="st7" d="M146.7,162.5v3.1h-0.9v-7.4h2.7c1.5,0,2.4,0.7,2.4,2.1c0,1.2-0.7,1.9-1.9,2.1l2.2,3.2h-1.1l-2.1-3.1
		L146.7,162.5L146.7,162.5z M146.7,161.7h1.8c1,0,1.5-0.5,1.5-1.3s-0.5-1.3-1.5-1.3h-1.8V161.7z"/>
	<path class="st7" d="M155.6,165.6l-2.3-5.6v5.6h-0.9v-7.4h1.1l2.5,6l2.5-6h1v7.4h-0.9V160l-2.3,5.6H155.6z"/>
	<path class="st7" d="M161.6,163.7c0.3,0.8,1,1.2,1.9,1.2c1,0,1.6-0.5,1.6-1.3c0-0.6-0.3-0.9-1.2-1.2l-1.3-0.3
		c-1-0.3-1.8-0.8-1.8-1.9c0-1.2,1-2.1,2.4-2.1c1.5,0,2.4,0.8,2.7,1.9H165c-0.2-0.7-0.8-1.1-1.8-1.1c-0.9,0-1.5,0.5-1.5,1.2
		c0,0.6,0.4,0.9,1.2,1.1l1.3,0.3c1.2,0.3,1.8,0.9,1.8,2c0,1.3-1.1,2.1-2.5,2.1s-2.6-0.7-2.8-2h0.9V163.7z"/>
	<path class="st7" d="M172.9,165.7c-1.9,0-3.3-1.6-3.3-3.8s1.4-3.8,3.3-3.8c1.9,0,3.3,1.6,3.3,3.8
		C176.2,164.1,174.8,165.7,172.9,165.7z M172.9,159c-1.4,0-2.4,1.2-2.4,2.9s1,2.9,2.4,2.9s2.4-1.2,2.4-2.9
		C175.3,160.2,174.3,159,172.9,159z"/>
	<path class="st7" d="M177.6,165.6v-7.4h4.5v0.8h-3.5v2.5h3.3v0.8h-3.3v3.2L177.6,165.6L177.6,165.6z"/>
	<path class="st7" d="M185.5,158.2h6.1v0.8H189v6.5h-0.9V159h-2.6V158.2z"/>
	<path class="st7" d="M198.9,158.2v7.4H198v-3.4h-4.2v3.4h-0.9v-7.4h0.9v3.2h4.2v-3.2H198.9z"/>
	<path class="st7" d="M201.6,165.6h-0.9v-7.4h0.9V165.6z"/>
	<path class="st7" d="M203.7,163.7c0.3,0.8,1,1.2,1.9,1.2c1,0,1.6-0.5,1.6-1.3c0-0.6-0.3-0.9-1.2-1.2l-1.3-0.3
		c-1-0.3-1.8-0.8-1.8-1.9c0-1.2,1-2.1,2.4-2.1c1.5,0,2.4,0.8,2.7,1.9h-0.9c-0.2-0.7-0.8-1.1-1.8-1.1c-0.9,0-1.5,0.5-1.5,1.2
		c0,0.6,0.4,0.9,1.2,1.1l1.3,0.3c1.2,0.3,1.8,0.9,1.8,2c0,1.3-1.1,2.1-2.5,2.1s-2.6-0.7-2.8-2h0.9V163.7z"/>
	<path class="st7" d="M212.1,158.2h0.9v6.5h3.8v0.9h-4.7V158.2z"/>
	<path class="st7" d="M219.1,165.6h-0.9v-7.4h0.9V165.6z"/>
	<path class="st7" d="M223.7,158.1c1.5,0,2.6,0.9,2.9,2.3h-0.9c-0.3-0.9-0.9-1.4-1.9-1.4c-1.4,0-2.4,1.2-2.4,2.9s0.9,2.9,2.4,2.9
		c1,0,1.6-0.6,1.9-1.4h0.9c-0.3,1.4-1.3,2.3-2.9,2.3c-1.9,0-3.3-1.5-3.3-3.8S221.9,158.1,223.7,158.1z"/>
	<path class="st7" d="M232.6,158.2v0.8h-3.8v2.3h3.4v0.8h-3.4v2.5h3.8v0.9h-4.7v-7.4L232.6,158.2L232.6,158.2z"/>
	<path class="st7" d="M239.8,165.6h-0.7l-4.1-5.9v5.9h-0.9v-7.4h0.9l3.9,5.6v-5.6h0.9L239.8,165.6L239.8,165.6z"/>
	<path class="st7" d="M241.9,163.7c0.3,0.8,1,1.2,1.9,1.2c1,0,1.6-0.5,1.6-1.3c0-0.6-0.3-0.9-1.2-1.2l-1.3-0.3
		c-1-0.3-1.8-0.8-1.8-1.9c0-1.2,1-2.1,2.4-2.1c1.5,0,2.4,0.8,2.7,1.9h-0.9c-0.2-0.7-0.8-1.1-1.8-1.1c-0.9,0-1.5,0.5-1.5,1.2
		c0,0.6,0.4,0.9,1.2,1.1l1.3,0.3c1.2,0.3,1.8,0.9,1.8,2c0,1.3-1.1,2.1-2.5,2.1s-2.6-0.7-2.8-2h0.9V163.7z"/>
	<path class="st7" d="M252.3,158.2v0.8h-3.8v2.3h3.4v0.8h-3.4v2.5h3.8v0.9h-4.7v-7.4L252.3,158.2L252.3,158.2z"/>
	<path class="st7" d="M254.1,164.3c0.3,0,0.6,0.3,0.6,0.7s-0.3,0.6-0.6,0.6c-0.4,0-0.6-0.3-0.6-0.6
		C253.4,164.6,253.7,164.3,254.1,164.3z"/>
	<path class="st7" d="M259.6,165.6h-0.9v-7.4h0.9V165.6z"/>
	<path class="st7" d="M261.3,165.6v-7.4h4.5v0.8h-3.5v2.5h3.3v0.8h-3.3v3.2L261.3,165.6L261.3,165.6z"/>
	<path class="st7" d="M274.4,158.2h1l-2.7,4.3v3h-0.9v-3l-2.7-4.3h1l2.1,3.5L274.4,158.2z"/>
	<path class="st7" d="M279,165.7c-1.9,0-3.3-1.6-3.3-3.8s1.4-3.8,3.3-3.8s3.3,1.6,3.3,3.8C282.3,164.1,280.9,165.7,279,165.7z
		 M279,159c-1.4,0-2.4,1.2-2.4,2.9s1,2.9,2.4,2.9s2.4-1.2,2.4-2.9S280.4,159,279,159z"/>
	<path class="st7" d="M283.5,162.7v-4.4h0.9v4.3c0,1.6,0.8,2.3,1.9,2.3s1.9-0.7,1.9-2.3v-4.3h0.9v4.5c0,2-1.2,3-2.9,3
		C284.7,165.7,283.5,164.7,283.5,162.7z"/>
	<path class="st7" d="M296.7,158.2l2.9,7.4h-1l-0.9-2.2h-3l-0.8,2.2h-1l2.9-7.4H296.7z M295.1,162.5h2.4l-1.2-3.1L295.1,162.5z"/>
	<path class="st7" d="M301.7,162.5v3.1h-0.9v-7.4h2.7c1.5,0,2.4,0.7,2.4,2.1c0,1.2-0.7,1.9-1.9,2.1l2.2,3.2h-1.1l-2.1-3.1
		L301.7,162.5L301.7,162.5z M301.7,161.7h1.8c1,0,1.5-0.5,1.5-1.3s-0.5-1.3-1.5-1.3h-1.8V161.7z"/>
	<path class="st7" d="M312,158.2v0.8h-3.8v2.3h3.4v0.8h-3.4v2.5h3.8v0.9h-4.7v-7.4L312,158.2L312,158.2z"/>
</g>
<g class="st6">
	<path class="st7" d="M58.2,173.2l2.9,7.4h-1l-0.9-2.2h-3l-0.8,2.2h-1l2.9-7.4H58.2z M56.6,177.5H59l-1.2-3.1L56.6,177.5z"/>
	<path class="st7" d="M64.9,173.1c1.5,0,2.6,0.9,2.9,2.3h-0.9c-0.3-0.9-0.9-1.4-1.9-1.4c-1.4,0-2.4,1.2-2.4,2.9s0.9,2.9,2.4,2.9
		c1,0,1.6-0.6,1.9-1.4h0.9c-0.3,1.4-1.3,2.3-2.9,2.3c-1.9,0-3.3-1.5-3.3-3.8C61.6,174.6,63,173.1,64.9,173.1z"/>
	<path class="st7" d="M71.9,173.1c1.5,0,2.6,0.9,2.9,2.3h-0.9c-0.3-0.9-0.9-1.4-1.9-1.4c-1.4,0-2.4,1.2-2.4,2.9s0.9,2.9,2.4,2.9
		c1,0,1.6-0.6,1.9-1.4h0.9c-0.3,1.4-1.3,2.3-2.9,2.3c-1.9,0-3.3-1.5-3.3-3.8S70,173.1,71.9,173.1z"/>
	<path class="st7" d="M80.8,173.2v0.8H77v2.3h3.4v0.8H77v2.5h3.8v0.9h-4.7v-7.4L80.8,173.2L80.8,173.2z"/>
	<path class="st7" d="M82.6,178.7c0.3,0.8,1,1.2,1.9,1.2c1,0,1.6-0.5,1.6-1.3c0-0.6-0.3-0.9-1.2-1.2l-1.3-0.3
		c-1-0.3-1.8-0.8-1.8-1.9c0-1.2,1-2.1,2.4-2.1c1.5,0,2.4,0.8,2.7,1.9H86c-0.2-0.7-0.8-1.1-1.8-1.1c-0.9,0-1.5,0.5-1.5,1.2
		c0,0.6,0.4,0.9,1.2,1.1l1.3,0.3c1.2,0.3,1.8,0.9,1.8,2c0,1.3-1.1,2.1-2.5,2.1s-2.6-0.7-2.8-2h0.9V178.7z"/>
	<path class="st7" d="M88.7,178.7c0.3,0.8,1,1.2,1.9,1.2c1,0,1.6-0.5,1.6-1.3c0-0.6-0.3-0.9-1.2-1.2l-1.3-0.3
		c-1-0.3-1.8-0.8-1.8-1.9c0-1.2,1-2.1,2.4-2.1c1.5,0,2.4,0.8,2.7,1.9h-0.9c-0.2-0.7-0.8-1.1-1.8-1.1c-0.9,0-1.5,0.5-1.5,1.2
		c0,0.6,0.4,0.9,1.2,1.1l1.3,0.3c1.2,0.3,1.8,0.9,1.8,2c0,1.3-1.1,2.1-2.5,2.1s-2.6-0.7-2.8-2h0.9V178.7z"/>
	<path class="st7" d="M95.4,180.6h-0.9v-7.4h0.9V180.6z"/>
	<path class="st7" d="M102.9,180.6h-0.7l-4.1-5.9v5.9h-0.9v-7.4h0.9l3.9,5.6v-5.6h0.9C102.9,173.2,102.9,180.6,102.9,180.6z"/>
	<path class="st7" d="M108,177.8V177h2.7v0.5c0,2-1.2,3.2-3,3.2c-1.9,0-3.4-1.5-3.4-3.8s1.5-3.8,3.4-3.8c1.6,0,2.6,0.9,2.9,2.3h-0.9
		c-0.3-0.9-0.9-1.4-2-1.4c-1.4,0-2.4,1.2-2.4,2.9c0,1.8,1,3,2.4,3c1.3,0,2-0.8,2.1-2.1L108,177.8L108,177.8z"/>
	<path class="st7" d="M114.1,173.2h6.1v0.8h-2.6v6.5h-0.9V174h-2.6V173.2z"/>
	<path class="st7" d="M127.5,173.2v7.4h-0.9v-3.4h-4.2v3.4h-0.9v-7.4h0.9v3.2h4.2v-3.2H127.5z"/>
	<path class="st7" d="M133.9,173.2v0.8h-3.8v2.3h3.4v0.8h-3.4v2.5h3.8v0.9h-4.7v-7.4L133.9,173.2L133.9,173.2z"/>
	<path class="st7" d="M138.4,178.7c0.3,0.8,1,1.2,1.9,1.2c1,0,1.6-0.5,1.6-1.3c0-0.6-0.3-0.9-1.2-1.2l-1.3-0.3
		c-1-0.3-1.8-0.8-1.8-1.9c0-1.2,1-2.1,2.4-2.1c1.5,0,2.4,0.8,2.7,1.9h-0.9c-0.2-0.7-0.8-1.1-1.8-1.1c-0.9,0-1.5,0.5-1.5,1.2
		c0,0.6,0.4,0.9,1.2,1.1l1.3,0.3c1.2,0.3,1.8,0.9,1.8,2c0,1.3-1.1,2.1-2.5,2.1s-2.6-0.7-2.8-2h0.9V178.7z"/>
	<path class="st7" d="M147.1,180.7c-1.9,0-3.3-1.6-3.3-3.8s1.4-3.8,3.3-3.8c1.9,0,3.3,1.6,3.3,3.8
		C150.4,179.1,149,180.7,147.1,180.7z M147.1,174c-1.4,0-2.4,1.2-2.4,2.9s1,2.9,2.4,2.9s2.4-1.2,2.4-2.9S148.5,174,147.1,174z"/>
	<path class="st7" d="M151.7,180.6v-7.4h4.5v0.8h-3.5v2.5h3.3v0.8h-3.3v3.2L151.7,180.6L151.7,180.6z"/>
	<path class="st7" d="M157,173.2h6.1v0.8h-2.6v6.5h-0.9V174H157V173.2z"/>
	<path class="st7" d="M168.5,173.2l1.6,5.9l1.5-5.9h0.9l-2,7.4h-0.9l-1.5-5.7l-1.6,5.7h-0.9l-2-7.4h0.9l1.5,5.9l1.6-5.9H168.5z"/>
	<path class="st7" d="M176.4,173.2l2.9,7.4h-1l-0.9-2.2h-3l-0.8,2.2h-1l2.9-7.4H176.4z M174.8,177.5h2.4l-1.2-3.1L174.8,177.5z"/>
	<path class="st7" d="M181.4,177.5v3.1h-0.9v-7.4h2.7c1.5,0,2.4,0.7,2.4,2.1c0,1.2-0.7,1.9-1.9,2.1l2.2,3.2h-1.1l-2.1-3.1
		L181.4,177.5L181.4,177.5z M181.4,176.7h1.8c1,0,1.5-0.5,1.5-1.3s-0.5-1.3-1.5-1.3h-1.8V176.7z"/>
	<path class="st7" d="M191.8,173.2v0.8H188v2.3h3.4v0.8H188v2.5h3.8v0.9h-4.7v-7.4L191.8,173.2L191.8,173.2z"/>
	<path class="st7" d="M200.6,173.2v0.8h-3.8v2.3h3.4v0.8h-3.4v2.5h3.8v0.9h-4.7v-7.4L200.6,173.2L200.6,173.2z"/>
	<path class="st7" d="M202.1,173.2h0.9v6.5h3.8v0.9h-4.7V173.2z"/>
	<path class="st7" d="M212.8,173.2v0.8H209v2.3h3.4v0.8H209v2.5h3.8v0.9h-4.7v-7.4L212.8,173.2L212.8,173.2z"/>
	<path class="st7" d="M217.2,173.1c1.5,0,2.6,0.9,2.9,2.3h-0.9c-0.3-0.9-0.9-1.4-1.9-1.4c-1.4,0-2.4,1.2-2.4,2.9s0.9,2.9,2.4,2.9
		c1,0,1.6-0.6,1.9-1.4h0.9c-0.3,1.4-1.3,2.3-2.9,2.3c-1.9,0-3.3-1.5-3.3-3.8S215.3,173.1,217.2,173.1z"/>
	<path class="st7" d="M220.6,173.2h6.1v0.8h-2.6v6.5h-0.9V174h-2.6V173.2z"/>
	<path class="st7" d="M228.9,177.5v3.1H228v-7.4h2.7c1.5,0,2.4,0.7,2.4,2.1c0,1.2-0.7,1.9-1.9,2.1l2.2,3.2h-1.1l-2.1-3.1
		L228.9,177.5L228.9,177.5z M228.9,176.7h1.8c1,0,1.5-0.5,1.5-1.3s-0.5-1.3-1.5-1.3h-1.8V176.7z"/>
	<path class="st7" d="M237.4,180.7c-1.9,0-3.3-1.6-3.3-3.8s1.4-3.8,3.3-3.8c1.9,0,3.3,1.6,3.3,3.8
		C240.8,179.1,239.4,180.7,237.4,180.7z M237.4,174c-1.4,0-2.4,1.2-2.4,2.9s1,2.9,2.4,2.9s2.4-1.2,2.4-2.9
		C239.8,175.2,238.9,174,237.4,174z"/>
	<path class="st7" d="M247.8,180.6h-0.7l-4.1-5.9v5.9h-0.9v-7.4h0.9l3.9,5.6v-5.6h0.9L247.8,180.6L247.8,180.6z"/>
	<path class="st7" d="M250.5,180.6h-0.9v-7.4h0.9V180.6z"/>
	<path class="st7" d="M255.1,173.1c1.5,0,2.6,0.9,2.9,2.3h-0.9c-0.3-0.9-0.9-1.4-1.9-1.4c-1.4,0-2.4,1.2-2.4,2.9s0.9,2.9,2.4,2.9
		c1,0,1.6-0.6,1.9-1.4h0.9c-0.3,1.4-1.3,2.3-2.9,2.3c-1.9,0-3.3-1.5-3.3-3.8S253.3,173.1,255.1,173.1z"/>
	<path class="st7" d="M262.3,173.2l2.9,7.4h-1l-0.9-2.2h-3l-0.8,2.2h-1l2.9-7.4H262.3z M260.7,177.5h2.4l-1.2-3.1L260.7,177.5z"/>
	<path class="st7" d="M266.3,173.2h0.9v6.5h3.8v0.9h-4.7L266.3,173.2L266.3,173.2z"/>
	<path class="st7" d="M272.4,173.2h0.9v6.5h3.8v0.9h-4.7L272.4,173.2L272.4,173.2z"/>
	<path class="st7" d="M282.1,173.2h1l-2.7,4.3v3h-0.9v-3l-2.7-4.3h1l2.1,3.5L282.1,173.2z"/>
	<path class="st7" d="M283.4,180.6c-0.3,0-0.5-0.3-0.5-0.6c0-0.4,0.3-0.6,0.6-0.6c0.4,0,0.6,0.3,0.6,0.7c0,0.3-0.1,0.5-0.3,0.8
		l-0.6,1.1h-0.6L283.4,180.6z"/>
	<path class="st7" d="M288.5,178.7c0.3,0.8,1,1.2,1.9,1.2c1,0,1.6-0.5,1.6-1.3c0-0.6-0.3-0.9-1.2-1.2l-1.3-0.3
		c-1-0.3-1.8-0.8-1.8-1.9c0-1.2,1-2.1,2.4-2.1c1.5,0,2.4,0.8,2.7,1.9h-0.9c-0.2-0.7-0.8-1.1-1.8-1.1c-0.9,0-1.5,0.5-1.5,1.2
		c0,0.6,0.4,0.9,1.2,1.1l1.3,0.3c1.2,0.3,1.8,0.9,1.8,2c0,1.3-1.1,2.1-2.5,2.1s-2.6-0.7-2.8-2h0.9V178.7z"/>
	<path class="st7" d="M295.1,180.6h-0.9v-7.4h0.9V180.6z"/>
	<path class="st7" d="M300.2,177.8V177h2.7v0.5c0,2-1.2,3.2-3,3.2c-1.9,0-3.4-1.5-3.4-3.8s1.5-3.8,3.4-3.8c1.6,0,2.6,0.9,2.9,2.3
		h-0.9c-0.3-0.9-0.9-1.4-2-1.4c-1.4,0-2.4,1.2-2.4,2.9c0,1.8,1,3,2.4,3c1.3,0,2-0.8,2.1-2.1L300.2,177.8L300.2,177.8z"/>
	<path class="st7" d="M309.9,180.6h-0.7l-4.1-5.9v5.9h-0.9v-7.4h0.9l3.9,5.6v-5.6h0.9L309.9,180.6L309.9,180.6z"/>
	<path class="st7" d="M312.6,180.6h-0.9v-7.4h0.9V180.6z"/>
	<path class="st7" d="M314.4,180.6v-7.4h4.5v0.8h-3.5v2.5h3.3v0.8h-3.3v3.2L314.4,180.6L314.4,180.6z"/>
	<path class="st7" d="M324.8,173.2h1l-2.7,4.3v3h-0.9v-3l-2.7-4.3h1l2.1,3.5L324.8,173.2z"/>
</g>
<g class="st6">
	<path class="st7" d="M59.7,188.2h1l-2.7,4.3v3h-0.9v-3l-2.7-4.3h1l2.1,3.5L59.7,188.2z"/>
	<path class="st7" d="M64.3,195.7c-1.9,0-3.3-1.6-3.3-3.8s1.4-3.8,3.3-3.8c1.9,0,3.3,1.6,3.3,3.8C67.6,194.1,66.2,195.7,64.3,195.7z
		 M64.3,189c-1.4,0-2.4,1.2-2.4,2.9s1,2.9,2.4,2.9s2.4-1.2,2.4-2.9C66.7,190.2,65.7,189,64.3,189z"/>
	<path class="st7" d="M68.8,192.7v-4.4h0.9v4.3c0,1.6,0.8,2.3,1.9,2.3s1.9-0.7,1.9-2.3v-4.3h0.9v4.5c0,2-1.2,3-2.9,3
		C70,195.7,68.8,194.7,68.8,192.7z"/>
	<path class="st7" d="M77.2,192.5v3.1h-0.9v-7.4H79c1.5,0,2.4,0.7,2.4,2.1c0,1.2-0.7,1.9-1.9,2.1l2.2,3.2h-1.1l-2.1-3.1L77.2,192.5
		L77.2,192.5z M77.2,191.7H79c1,0,1.5-0.5,1.5-1.3s-0.5-1.3-1.5-1.3h-1.8V191.7z"/>
	<path class="st7" d="M88.7,188.2l2.9,7.4h-1l-0.9-2.2h-3l-0.8,2.2h-1l2.9-7.4H88.7z M87,192.5h2.4l-1.2-3.1L87,192.5z"/>
	<path class="st7" d="M95.8,192.8V192h2.7v0.5c0,2-1.2,3.2-3,3.2c-1.9,0-3.4-1.5-3.4-3.8s1.5-3.8,3.4-3.8c1.6,0,2.6,0.9,2.9,2.3
		h-0.9c-0.3-0.9-0.9-1.4-2-1.4c-1.4,0-2.4,1.2-2.4,2.9c0,1.8,1,3,2.4,3c1.3,0,2-0.8,2.1-2.1L95.8,192.8L95.8,192.8z"/>
	<path class="st7" d="M100.7,192.5v3.1h-0.9v-7.4h2.7c1.5,0,2.4,0.7,2.4,2.1c0,1.2-0.7,1.9-1.9,2.1l2.2,3.2h-1.1l-2.1-3.1
		L100.7,192.5L100.7,192.5z M100.7,191.7h1.8c1,0,1.5-0.5,1.5-1.3s-0.5-1.3-1.5-1.3h-1.8V191.7z"/>
	<path class="st7" d="M111.1,188.2v0.8h-3.8v2.3h3.4v0.8h-3.4v2.5h3.8v0.9h-4.7v-7.4L111.1,188.2L111.1,188.2z"/>
	<path class="st7" d="M117.2,188.2v0.8h-3.8v2.3h3.4v0.8h-3.4v2.5h3.8v0.9h-4.7v-7.4L117.2,188.2L117.2,188.2z"/>
	<path class="st7" d="M122,195.6l-2.3-5.6v5.6h-0.9v-7.4h1.1l2.5,6l2.5-6h1v7.4H125V190l-2.3,5.6H122z"/>
	<path class="st7" d="M132.2,188.2v0.8h-3.8v2.3h3.4v0.8h-3.4v2.5h3.8v0.9h-4.7v-7.4L132.2,188.2L132.2,188.2z"/>
	<path class="st7" d="M139.5,195.6h-0.7l-4.1-5.9v5.9h-0.9v-7.4h0.9l3.9,5.6v-5.6h0.9L139.5,195.6L139.5,195.6z"/>
	<path class="st7" d="M140.7,188.2h6.1v0.8h-2.6v6.5h-0.9V189h-2.6V188.2z"/>
	<path class="st7" d="M150.2,188.2h6.1v0.8h-2.6v6.5h-0.9V189h-2.6V188.2z"/>
	<path class="st7" d="M160,195.7c-1.9,0-3.3-1.6-3.3-3.8s1.4-3.8,3.3-3.8c1.9,0,3.3,1.6,3.3,3.8C163.3,194.1,161.9,195.7,160,195.7z
		 M160,189c-1.4,0-2.4,1.2-2.4,2.9s1,2.9,2.4,2.9s2.4-1.2,2.4-2.9S161.4,189,160,189z"/>
	<path class="st7" d="M172.4,193.5c0,1.3-0.9,2.1-2.4,2.1h-2.7v-7.4h2.4c1.5,0,2.4,0.7,2.4,2c0,0.9-0.5,1.4-1.1,1.6
		C171.9,192,172.4,192.7,172.4,193.5z M169.7,191.4c1,0,1.5-0.4,1.5-1.2s-0.5-1.2-1.5-1.2h-1.5v2.4H169.7z M168.2,194.8h1.7
		c1,0,1.5-0.5,1.5-1.3s-0.5-1.3-1.5-1.3h-1.7V194.8z"/>
	<path class="st7" d="M178.4,188.2v0.8h-3.8v2.3h3.4v0.8h-3.4v2.5h3.8v0.9h-4.7v-7.4L178.4,188.2L178.4,188.2z"/>
	<path class="st7" d="M187.7,193.5c0,1.3-0.9,2.1-2.4,2.1h-2.7v-7.4h2.4c1.5,0,2.4,0.7,2.4,2c0,0.9-0.5,1.4-1.1,1.6
		C187.1,192,187.7,192.7,187.7,193.5z M185,191.4c1,0,1.5-0.4,1.5-1.2S186,189,185,189h-1.5v2.4H185z M183.5,194.8h1.7
		c1,0,1.5-0.5,1.5-1.3s-0.5-1.3-1.5-1.3h-1.7V194.8z"/>
	<path class="st7" d="M191.9,195.7c-1.9,0-3.3-1.6-3.3-3.8s1.4-3.8,3.3-3.8c1.9,0,3.3,1.6,3.3,3.8
		C195.3,194.1,193.9,195.7,191.9,195.7z M191.9,189c-1.4,0-2.4,1.2-2.4,2.9s1,2.9,2.4,2.9s2.4-1.2,2.4-2.9
		C194.3,190.2,193.4,189,191.9,189z"/>
	<path class="st7" d="M196.5,192.7v-4.4h0.9v4.3c0,1.6,0.8,2.3,1.9,2.3s1.9-0.7,1.9-2.3v-4.3h0.9v4.5c0,2-1.2,3-2.9,3
		C197.7,195.7,196.5,194.7,196.5,192.7z"/>
	<path class="st7" d="M209.6,195.6h-0.7l-4.1-5.9v5.9h-0.9v-7.4h0.9l3.9,5.6v-5.6h0.9L209.6,195.6L209.6,195.6z"/>
	<path class="st7" d="M211.4,188.2h2.4c2.2,0,3.6,1.4,3.6,3.7c0,2.2-1.4,3.7-3.6,3.7h-2.4V188.2z M213.7,194.7
		c1.7,0,2.7-1.1,2.7-2.8s-1-2.8-2.7-2.8h-1.4v5.7L213.7,194.7L213.7,194.7z"/>
	<path class="st7" d="M226.4,193.5c0,1.3-0.9,2.1-2.4,2.1h-2.7v-7.4h2.4c1.5,0,2.4,0.7,2.4,2c0,0.9-0.5,1.4-1.1,1.6
		C225.8,192,226.4,192.7,226.4,193.5z M223.7,191.4c1,0,1.5-0.4,1.5-1.2s-0.5-1.2-1.5-1.2h-1.5v2.4H223.7z M222.2,194.8h1.7
		c1,0,1.5-0.5,1.5-1.3s-0.5-1.3-1.5-1.3h-1.7V194.8z"/>
	<path class="st7" d="M232.1,188.2h1l-2.7,4.3v3h-0.9v-3l-2.7-4.3h1l2.1,3.5L232.1,188.2z"/>
	<path class="st7" d="M236.3,188.2h6.1v0.8h-2.6v6.5h-0.9V189h-2.6V188.2z"/>
	<path class="st7" d="M249.7,188.2v7.4h-0.9v-3.4h-4.2v3.4h-0.9v-7.4h0.9v3.2h4.2v-3.2H249.7z"/>
	<path class="st7" d="M256.2,188.2v0.8h-3.8v2.3h3.4v0.8h-3.4v2.5h3.8v0.9h-4.7v-7.4L256.2,188.2L256.2,188.2z"/>
	<path class="st7" d="M259.8,188.2h6.1v0.8h-2.6v6.5h-0.9V189h-2.6V188.2z"/>
	<path class="st7" d="M271.8,188.2v0.8H268v2.3h3.4v0.8H268v2.5h3.8v0.9h-4.7v-7.4L271.8,188.2L271.8,188.2z"/>
	<path class="st7" d="M274.2,192.5v3.1h-0.9v-7.4h2.7c1.5,0,2.4,0.7,2.4,2.1c0,1.2-0.7,1.9-1.9,2.1l2.2,3.2h-1.1l-2.1-3.1
		L274.2,192.5L274.2,192.5z M274.2,191.7h1.8c1,0,1.5-0.5,1.5-1.3S277,189,276,189h-1.8V191.7z"/>
	<path class="st7" d="M283.1,195.6l-2.3-5.6v5.6h-0.9v-7.4h1.1l2.5,6l2.5-6h1v7.4h-0.9V190l-2.3,5.6H283.1z"/>
	<path class="st7" d="M289.1,193.7c0.3,0.8,1,1.2,1.9,1.2c1,0,1.6-0.5,1.6-1.3c0-0.6-0.3-0.9-1.2-1.2l-1.3-0.3
		c-1-0.3-1.8-0.8-1.8-1.9c0-1.2,1-2.1,2.4-2.1c1.5,0,2.4,0.8,2.7,1.9h-0.9c-0.2-0.7-0.8-1.1-1.8-1.1c-0.9,0-1.5,0.5-1.5,1.2
		c0,0.6,0.4,0.9,1.2,1.1l1.3,0.3c1.2,0.3,1.8,0.9,1.8,2c0,1.3-1.1,2.1-2.5,2.1s-2.6-0.7-2.8-2h0.9V193.7z"/>
	<path class="st7" d="M300.4,195.7c-1.9,0-3.3-1.6-3.3-3.8s1.4-3.8,3.3-3.8s3.3,1.6,3.3,3.8C303.7,194.1,302.3,195.7,300.4,195.7z
		 M300.4,189c-1.4,0-2.4,1.2-2.4,2.9s1,2.9,2.4,2.9s2.4-1.2,2.4-2.9S301.8,189,300.4,189z"/>
	<path class="st7" d="M305,195.6v-7.4h4.5v0.8H306v2.5h3.3v0.8H306v3.2L305,195.6L305,195.6z"/>
	<path class="st7" d="M313,188.2h6.1v0.8h-2.6v6.5h-0.9V189H313V188.2z"/>
	<path class="st7" d="M326.4,188.2v7.4h-0.9v-3.4h-4.2v3.4h-0.9v-7.4h0.9v3.2h4.2v-3.2H326.4z"/>
	<path class="st7" d="M329.1,195.6h-0.9v-7.4h0.9V195.6z"/>
	<path class="st7" d="M331.2,193.7c0.3,0.8,1,1.2,1.9,1.2c1,0,1.6-0.5,1.6-1.3c0-0.6-0.3-0.9-1.2-1.2l-1.3-0.3
		c-1-0.3-1.8-0.8-1.8-1.9c0-1.2,1-2.1,2.4-2.1c1.5,0,2.4,0.8,2.7,1.9h-0.9c-0.2-0.7-0.8-1.1-1.8-1.1c-0.9,0-1.5,0.5-1.5,1.2
		c0,0.6,0.4,0.9,1.2,1.1l1.3,0.3c1.2,0.3,1.8,0.9,1.8,2c0,1.3-1.1,2.1-2.5,2.1s-2.6-0.7-2.8-2h0.9V193.7z"/>
</g>
<g class="st6">
	<path class="st7" d="M55.1,203.2H56v6.5h3.8v0.9h-4.7V203.2z"/>
	<path class="st7" d="M62.1,210.6h-0.9v-7.4h0.9V210.6z"/>
	<path class="st7" d="M66.7,203.1c1.5,0,2.6,0.9,2.9,2.3h-0.9c-0.3-0.9-0.9-1.4-1.9-1.4c-1.4,0-2.4,1.2-2.4,2.9s0.9,2.9,2.4,2.9
		c1,0,1.6-0.6,1.9-1.4h0.9c-0.3,1.4-1.3,2.3-2.9,2.3c-1.9,0-3.3-1.5-3.3-3.8C63.4,204.6,64.8,203.1,66.7,203.1z"/>
	<path class="st7" d="M75.6,203.2v0.8h-3.8v2.3h3.4v0.8h-3.4v2.5h3.8v0.9h-4.7v-7.4L75.6,203.2L75.6,203.2z"/>
	<path class="st7" d="M82.8,210.6h-0.7l-4.1-5.9v5.9h-1v-7.4h0.9l3.9,5.6v-5.6h0.9L82.8,210.6L82.8,210.6z"/>
	<path class="st7" d="M84.9,208.7c0.3,0.8,1,1.2,1.9,1.2c1,0,1.6-0.5,1.6-1.3c0-0.6-0.3-0.9-1.2-1.2l-1.3-0.3
		c-1-0.3-1.8-0.8-1.8-1.9c0-1.2,1-2.1,2.4-2.1c1.5,0,2.4,0.8,2.7,1.9h-0.9c-0.2-0.7-0.8-1.1-1.8-1.1c-0.9,0-1.5,0.5-1.5,1.2
		c0,0.6,0.4,0.9,1.2,1.1l1.3,0.3c1.2,0.3,1.8,0.9,1.8,2c0,1.3-1.1,2.1-2.5,2.1s-2.6-0.7-2.8-2h0.9V208.7z"/>
	<path class="st7" d="M95.3,203.2v0.8h-3.8v2.3H95v0.8h-3.4v2.5h3.8v0.9h-4.7v-7.4L95.3,203.2L95.3,203.2z"/>
	<path class="st7" d="M104.6,208.5c0,1.3-0.9,2.1-2.4,2.1h-2.7v-7.4h2.4c1.5,0,2.4,0.7,2.4,2c0,0.9-0.5,1.4-1.1,1.6
		C104,207,104.6,207.7,104.6,208.5z M101.9,206.4c1,0,1.5-0.4,1.5-1.2s-0.5-1.2-1.5-1.2h-1.5v2.4H101.9z M100.4,209.8h1.7
		c1,0,1.5-0.5,1.5-1.3s-0.5-1.3-1.5-1.3h-1.7V209.8z"/>
	<path class="st7" d="M110.3,203.2h1l-2.7,4.3v3h-0.9v-3l-2.7-4.3h1l2.1,3.5L110.3,203.2z"/>
	<path class="st7" d="M117.9,203.1c1.5,0,2.6,0.9,2.9,2.3h-0.9c-0.3-0.9-0.9-1.4-1.9-1.4c-1.4,0-2.4,1.2-2.4,2.9s0.9,2.9,2.4,2.9
		c1,0,1.6-0.6,1.9-1.4h0.9c-0.3,1.4-1.3,2.3-2.9,2.3c-1.9,0-3.3-1.5-3.3-3.8S116,203.1,117.9,203.1z"/>
	<path class="st7" d="M122.1,203.2h0.9v6.5h3.8v0.9h-4.7C122.1,210.6,122.1,203.2,122.1,203.2z"/>
	<path class="st7" d="M129.1,210.6h-0.9v-7.4h0.9V210.6z"/>
	<path class="st7" d="M133.7,203.1c1.5,0,2.6,0.9,2.9,2.3h-0.9c-0.3-0.9-0.9-1.4-1.9-1.4c-1.4,0-2.4,1.2-2.4,2.9s0.9,2.9,2.4,2.9
		c1,0,1.6-0.6,1.9-1.4h0.9c-0.3,1.4-1.3,2.3-2.9,2.3c-1.9,0-3.3-1.5-3.3-3.8S131.8,203.1,133.7,203.1z"/>
	<path class="st7" d="M138.8,206.9l3.4-3.7h1.2l-3.2,3.4l3.3,4h-1.2l-2.8-3.4l-0.8,0.9v2.5h-0.9v-7.4h0.9v3.7H138.8z"/>
	<path class="st7" d="M145.6,210.6h-0.9v-7.4h0.9V210.6z"/>
	<path class="st7" d="M153,210.6h-0.7l-4.1-5.9v5.9h-0.9v-7.4h0.9l3.9,5.6v-5.6h0.9L153,210.6L153,210.6z"/>
	<path class="st7" d="M158.1,207.8V207h2.7v0.5c0,2-1.2,3.2-3,3.2c-1.9,0-3.4-1.5-3.4-3.8s1.5-3.8,3.4-3.8c1.6,0,2.6,0.9,2.9,2.3
		h-0.9c-0.3-0.9-0.9-1.4-2-1.4c-1.4,0-2.4,1.2-2.4,2.9c0,1.8,1,3,2.4,3c1.3,0,2-0.8,2.1-2.1L158.1,207.8L158.1,207.8z"/>
	<path class="st7" d="M164.3,203.2h6.1v0.8h-2.6v6.5h-0.9V204h-2.6V203.2z"/>
	<path class="st7" d="M177.6,203.2v7.4h-0.9v-3.4h-4.2v3.4h-0.9v-7.4h0.9v3.2h4.2v-3.2H177.6z"/>
	<path class="st7" d="M184.1,203.2v0.8h-3.8v2.3h3.4v0.8h-3.4v2.5h3.8v0.9h-4.7v-7.4L184.1,203.2L184.1,203.2z"/>
	<path class="st7" d="M188.4,204.5c0.3,0,0.5,0.3,0.5,0.6c0,0.4-0.3,0.6-0.6,0.6c-0.4,0-0.6-0.3-0.6-0.7c0-0.3,0.1-0.5,0.3-0.8
		l0.6-1h0.6L188.4,204.5z M190.2,204.5c0.3,0,0.5,0.3,0.5,0.6c0,0.4-0.3,0.6-0.6,0.6s-0.6-0.3-0.6-0.7c0-0.3,0.1-0.5,0.3-0.8l0.6-1
		h0.6L190.2,204.5z"/>
	<path class="st7" d="M194.5,203.2l2.9,7.4h-1l-0.9-2.2h-3l-0.8,2.2h-1l2.9-7.4H194.5z M192.8,207.5h2.4l-1.2-3.1L192.8,207.5z"/>
	<path class="st7" d="M201.6,207.8V207h2.7v0.5c0,2-1.2,3.2-3,3.2c-1.9,0-3.4-1.5-3.4-3.8s1.5-3.8,3.4-3.8c1.6,0,2.6,0.9,2.9,2.3
		h-0.9c-0.3-0.9-0.9-1.4-2-1.4c-1.4,0-2.4,1.2-2.4,2.9c0,1.8,1,3,2.4,3c1.3,0,2-0.8,2.1-2.1L201.6,207.8L201.6,207.8z"/>
	<path class="st7" d="M206.5,207.5v3.1h-0.9v-7.4h2.7c1.5,0,2.4,0.7,2.4,2.1c0,1.2-0.7,1.9-1.9,2.1l2.2,3.2h-1.1l-2.1-3.1
		L206.5,207.5L206.5,207.5z M206.5,206.7h1.8c1,0,1.5-0.5,1.5-1.3s-0.5-1.3-1.5-1.3h-1.8V206.7z"/>
	<path class="st7" d="M216.9,203.2v0.8h-3.8v2.3h3.4v0.8h-3.4v2.5h3.8v0.9h-4.7v-7.4L216.9,203.2L216.9,203.2z"/>
	<path class="st7" d="M223,203.2v0.8h-3.8v2.3h3.4v0.8h-3.4v2.5h3.8v0.9h-4.7v-7.4L223,203.2L223,203.2z"/>
	<path class="st7" d="M226.7,202.8h0.9l-3,8.8h-0.9L226.7,202.8z"/>
	<path class="st7" d="M231.1,203.2l2.9,7.4h-1l-0.9-2.2h-3l-0.8,2.2h-1l2.9-7.4H231.1z M229.5,207.5h2.4l-1.2-3.1L229.5,207.5z"/>
	<path class="st7" d="M237.8,203.1c1.5,0,2.6,0.9,2.9,2.3h-0.9c-0.3-0.9-0.9-1.4-1.9-1.4c-1.4,0-2.4,1.2-2.4,2.9s0.9,2.9,2.4,2.9
		c1,0,1.6-0.6,1.9-1.4h0.9c-0.3,1.4-1.3,2.3-2.9,2.3c-1.9,0-3.3-1.5-3.3-3.8S235.9,203.1,237.8,203.1z"/>
	<path class="st7" d="M244.8,203.1c1.5,0,2.6,0.9,2.9,2.3h-0.9c-0.3-0.9-0.9-1.4-1.9-1.4c-1.4,0-2.4,1.2-2.4,2.9s0.9,2.9,2.4,2.9
		c1,0,1.6-0.6,1.9-1.4h0.9c-0.3,1.4-1.3,2.3-2.9,2.3c-1.9,0-3.3-1.5-3.3-3.8S242.9,203.1,244.8,203.1z"/>
	<path class="st7" d="M253.6,203.2v0.8h-3.8v2.3h3.4v0.8h-3.4v2.5h3.8v0.9h-4.7v-7.4L253.6,203.2L253.6,203.2z"/>
	<path class="st7" d="M256.1,207.6v3h-0.9v-7.4h2.8c1.5,0,2.4,0.8,2.4,2.2s-0.9,2.2-2.4,2.2H256.1z M257.9,204h-1.8v2.7h1.8
		c1,0,1.5-0.5,1.5-1.4C259.4,204.6,258.9,204,257.9,204z"/>
	<path class="st7" d="M261,203.2h6.1v0.8h-2.6v6.5h-0.9V204H261V203.2z"/>
	<path class="st7" d="M268.5,204.3c-0.3,0-0.5-0.3-0.5-0.6c0-0.4,0.3-0.6,0.6-0.6c0.4,0,0.6,0.3,0.6,0.7c0,0.3-0.1,0.5-0.3,0.8
		l-0.6,1h-0.6L268.5,204.3z M270.4,204.3c-0.3,0-0.5-0.3-0.5-0.6c0-0.4,0.3-0.6,0.6-0.6c0.4,0,0.6,0.3,0.6,0.7
		c0,0.3-0.1,0.5-0.3,0.8l-0.6,1h-0.6L270.4,204.3z"/>
	<path class="st7" d="M280.1,208.5c0,1.3-0.9,2.1-2.4,2.1H275v-7.4h2.4c1.5,0,2.4,0.7,2.4,2c0,0.9-0.5,1.4-1.1,1.6
		C279.5,207,280.1,207.7,280.1,208.5z M277.4,206.4c1,0,1.5-0.4,1.5-1.2s-0.5-1.2-1.5-1.2h-1.5v2.4H277.4z M275.9,209.8h1.7
		c1,0,1.5-0.5,1.5-1.3s-0.5-1.3-1.5-1.3h-1.7V209.8z"/>
	<path class="st7" d="M281.3,207.7v-4.4h0.9v4.3c0,1.6,0.8,2.3,1.9,2.3s1.9-0.7,1.9-2.3v-4.3h0.9v4.5c0,2-1.2,3-2.9,3
		C282.5,210.7,281.3,209.7,281.3,207.7z"/>
	<path class="st7" d="M288.2,203.2h6.1v0.8h-2.6v6.5h-0.9V204h-2.6V203.2z"/>
	<path class="st7" d="M295,203.2h6.1v0.8h-2.6v6.5h-0.9V204H295V203.2z"/>
	<path class="st7" d="M304.8,210.7c-1.9,0-3.3-1.6-3.3-3.8s1.4-3.8,3.3-3.8s3.3,1.6,3.3,3.8C308.1,209.1,306.7,210.7,304.8,210.7z
		 M304.8,204c-1.4,0-2.4,1.2-2.4,2.9s1,2.9,2.4,2.9s2.4-1.2,2.4-2.9C307.2,205.2,306.2,204,304.8,204z"/>
	<path class="st7" d="M315.2,210.6h-0.7l-4.1-5.9v5.9h-0.9v-7.4h0.9l3.9,5.6v-5.6h0.9L315.2,210.6L315.2,210.6z"/>
	<path class="st7" d="M317.1,209.3c0.3,0,0.6,0.3,0.6,0.7s-0.3,0.6-0.6,0.6c-0.4,0-0.6-0.3-0.6-0.6
		C316.4,209.6,316.7,209.3,317.1,209.3z"/>
</g>
<rect x="14.2" y="10.3" class="st9" width="379.7" height="312"/>
<polyline class="st10" points="14.2,321.4 393.2,321.4 393.2,10.3 "/>
</svg>
