<?xml version="1.0" encoding="utf-8"?>
<!-- Generator: Adobe Illustrator 22.0.1, SVG Export Plug-In . SVG Version: 6.00 Build 0)  -->
<svg version="1.1" id="Layer_1" xmlns="http://www.w3.org/2000/svg" xmlns:xlink="http://www.w3.org/1999/xlink" x="0px" y="0px"
	 viewBox="0 0 841.9 506" style="enable-background:new 0 0 841.9 506;" xml:space="preserve">
<style type="text/css">
	.st0{fill:#FFFFFF;}
	.st1{fill:#DDDDDD;}
	.st2{fill:#1D1D1B;}
	.st3{fill:#FFFFFF;stroke:#1D1D1B;stroke-miterlimit:10;}
	.st4{fill:#1E1E1E;}
	.st5{fill:#ECECEC;}
	.st6{fill:none;}
	.st7{fill:#C1C1C1;}
	.st8{fill:#2341C1;}
</style>
<path class="st0" d="M735.9,471.7H106.2c-10,0-18.1-8.1-18.1-18.1V34.4c0-10,8.1-18.1,18.1-18.1h629.7c10,0,18.1,8.1,18.1,18.1
	v419.1C754,463.6,745.9,471.7,735.9,471.7z"/>
<g>
	<rect x="103.1" y="75.9" class="st1" width="633.5" height="379.7"/>
	<path class="st1" d="M314.6,52.6h-10.5c-1.8,0-3.7-1.4-4.3-3.1l-4.1-12.2c-0.6-1.7-2.5-3.1-4.3-3.1h-89.7c-1.8,0-3.9,1.3-4.7,3
		l-6,12.5c-0.8,1.6-2.9,3-4.7,3h-11.1h-72.1v23.3h633.5V52.6H314.6z"/>
	<circle class="st1" cx="114.1" cy="43.5" r="4.4"/>
	<circle class="st1" cx="130.4" cy="43.5" r="4.4"/>
	<circle class="st1" cx="145.7" cy="43.5" r="4.4"/>
	<path class="st0" d="M494.8,71.5H161.7c-3.3,0-6-2.7-6-6v-2.2c0-3.3,2.7-6,6-6h333.2c3.3,0,6,2.7,6,6v2.2
		C500.9,68.8,498.1,71.5,494.8,71.5z"/>
	<g>
		<path class="st2" d="M117.8,65v-1l3.9-2v0.9l-3.1,1.6l3.1,1.6V67L117.8,65z"/>
		<path class="st2" d="M136,64v1l-3.9,2V66l3.1-1.6l-3.1-1.6V62L136,64z"/>
	</g>
	<g>
		<path d="M166.7,63.1l0.9,3.5l1-3.5h0.8l-1.4,4.6h-0.8l-1-3.5l-1,3.5h-0.8l-1.4-4.6h0.8l1,3.5l0.9-3.5
			C166,63.1,166.7,63.1,166.7,63.1z"/>
		<path d="M173.3,63.1l0.9,3.5l1-3.5h0.8l-1.4,4.6h-0.8l-1-3.5l-1,3.5h-0.8l-1.4-4.6h0.8l1,3.5l0.9-3.5
			C172.6,63.1,173.3,63.1,173.3,63.1z"/>
		<path d="M179.8,63.1l0.9,3.5l1-3.5h0.8l-1.4,4.6h-0.8l-1-3.5l-1,3.5h-0.8l-1.4-4.6h0.8l1,3.5l0.9-3.5
			C179.1,63.1,179.8,63.1,179.8,63.1z"/>
		<path d="M182.9,67.6c-0.1-0.1-0.2-0.2-0.2-0.4s0.1-0.3,0.2-0.4c0.1-0.1,0.2-0.2,0.4-0.2c0.2,0,0.3,0.1,0.4,0.2s0.2,0.2,0.2,0.4
			s-0.1,0.3-0.2,0.4c-0.1,0.1-0.2,0.2-0.4,0.2C183.2,67.8,183,67.7,182.9,67.6z"/>
		<path d="M187.9,67.4V67c-0.1,0.2-0.3,0.3-0.5,0.4s-0.5,0.2-0.8,0.2c-0.6,0-1.2-0.2-1.5-0.7c-0.4-0.5-0.6-1-0.6-1.7
			c0-0.7,0.2-1.2,0.6-1.7c0.4-0.5,0.9-0.7,1.5-0.7c0.3,0,0.5,0.1,0.8,0.2c0.2,0.1,0.4,0.3,0.5,0.4v-0.5h0.8v4.3
			c0,0.7-0.2,1.3-0.6,1.7c-0.4,0.4-0.9,0.6-1.5,0.6c-0.6,0-1-0.1-1.4-0.4s-0.6-0.6-0.6-1.1h0.8c0.1,0.6,0.5,0.9,1.2,0.9
			C187.4,68.9,187.9,68.4,187.9,67.4z M187.9,66.2v-1.8c-0.3-0.5-0.7-0.7-1.2-0.7c-0.4,0-0.8,0.2-1,0.5c-0.2,0.3-0.4,0.7-0.4,1.2
			s0.1,0.9,0.4,1.2c0.2,0.3,0.6,0.5,1,0.5C187.2,67,187.6,66.7,187.9,66.2z"/>
		<path d="M193.3,63.7c0.3-0.5,0.8-0.7,1.4-0.7c0.5,0,0.8,0.2,1.1,0.4c0.3,0.3,0.4,0.7,0.4,1.2v3.1h-0.8v-2.9c0-0.3-0.1-0.6-0.2-0.8
			s-0.4-0.3-0.7-0.3c-0.2,0-0.4,0.1-0.6,0.2c-0.2,0.2-0.3,0.3-0.4,0.6v3.2h-0.8v-2.9c0-0.3-0.1-0.6-0.2-0.8
			c-0.1-0.2-0.4-0.3-0.7-0.3c-0.2,0-0.4,0.1-0.6,0.2c-0.2,0.2-0.3,0.3-0.4,0.6v3.2h-0.8v-4.6h0.8v0.5c0.3-0.4,0.7-0.6,1.3-0.6
			C192.7,63,193.1,63.2,193.3,63.7z"/>
		<path d="M200.9,67.7h-0.8v-0.3c-0.1,0.1-0.3,0.2-0.5,0.3c-0.2,0.1-0.5,0.1-0.7,0.1c-0.5,0-0.9-0.1-1.2-0.4s-0.5-0.6-0.5-1.1
			c0-0.4,0.2-0.8,0.5-1c0.3-0.3,0.8-0.4,1.3-0.4c0.2,0,0.5,0,0.7,0.1c0.2,0.1,0.4,0.2,0.5,0.3v-0.6c0-0.3-0.1-0.5-0.3-0.7
			c-0.2-0.2-0.4-0.3-0.8-0.3c-0.5,0-0.8,0.2-0.9,0.6h-0.8c0.1-0.4,0.3-0.7,0.6-0.9c0.3-0.2,0.7-0.4,1.1-0.4c0.5,0,1,0.1,1.3,0.4
			c0.3,0.3,0.5,0.7,0.5,1.2L200.9,67.7L200.9,67.7z M200.1,66.6v-0.5c-0.1-0.2-0.2-0.3-0.4-0.4c-0.2-0.1-0.4-0.2-0.7-0.2
			c-0.3,0-0.6,0.1-0.8,0.2c-0.2,0.1-0.3,0.3-0.3,0.6c0,0.3,0.1,0.5,0.3,0.6c0.2,0.1,0.5,0.2,0.8,0.2c0.2,0,0.5-0.1,0.7-0.2
			C199.9,66.9,200.1,66.7,200.1,66.6z"/>
		<path d="M203,61.3c0.1,0.1,0.2,0.2,0.2,0.4c0,0.1-0.1,0.3-0.2,0.4s-0.2,0.1-0.4,0.1c-0.1,0-0.3,0-0.4-0.1
			c-0.1-0.1-0.1-0.2-0.1-0.4s0-0.3,0.1-0.4c0.1-0.1,0.2-0.1,0.4-0.1C202.8,61.2,202.9,61.2,203,61.3z M203,63.1v4.6h-0.8v-4.6
			C202.2,63.1,203,63.1,203,63.1z"/>
		<path d="M205.2,60.9v6.8h-0.8v-6.8C204.4,60.9,205.2,60.9,205.2,60.9z"/>
		<path d="M206.4,67.6c-0.1-0.1-0.2-0.2-0.2-0.4s0.1-0.3,0.2-0.4c0.1-0.1,0.2-0.2,0.4-0.2c0.2,0,0.3,0.1,0.4,0.2s0.2,0.2,0.2,0.4
			s-0.1,0.3-0.2,0.4c-0.1,0.1-0.2,0.2-0.4,0.2C206.6,67.8,206.5,67.7,206.4,67.6z"/>
		<path d="M208.5,67.1c-0.4-0.4-0.6-1-0.6-1.7s0.2-1.3,0.6-1.7c0.4-0.4,0.9-0.7,1.5-0.7c0.5,0,0.9,0.1,1.2,0.4s0.5,0.6,0.6,1.1h-0.8
			c-0.1-0.3-0.2-0.4-0.4-0.6c-0.2-0.1-0.4-0.2-0.7-0.2c-0.4,0-0.7,0.2-1,0.5c-0.2,0.3-0.4,0.7-0.4,1.2s0.1,0.9,0.4,1.2
			s0.6,0.5,1,0.5c0.3,0,0.5-0.1,0.7-0.2s0.3-0.3,0.4-0.6h0.8c-0.1,0.5-0.3,0.8-0.6,1.1s-0.7,0.4-1.2,0.4
			C209.4,67.8,208.9,67.6,208.5,67.1z"/>
		<path d="M216.2,63.6c0.4,0.4,0.6,1,0.6,1.7s-0.2,1.3-0.6,1.7c-0.4,0.4-0.9,0.7-1.5,0.7s-1.1-0.2-1.5-0.7c-0.4-0.4-0.6-1-0.6-1.7
			s0.2-1.3,0.6-1.7s0.9-0.7,1.5-0.7S215.8,63.2,216.2,63.6z M215.7,66.6c0.2-0.3,0.4-0.7,0.4-1.2c0-0.5-0.1-0.9-0.4-1.2
			c-0.2-0.3-0.6-0.5-1-0.5s-0.7,0.2-1,0.5c-0.2,0.3-0.4,0.7-0.4,1.2c0,0.5,0.1,0.9,0.4,1.2c0.2,0.3,0.6,0.5,1,0.5
			S215.4,66.9,215.7,66.6z"/>
		<path d="M221.2,63.7c0.3-0.5,0.8-0.7,1.4-0.7c0.5,0,0.8,0.2,1.1,0.4c0.3,0.3,0.4,0.7,0.4,1.2v3.1h-0.8v-2.9c0-0.3-0.1-0.6-0.2-0.8
			s-0.4-0.3-0.7-0.3c-0.2,0-0.4,0.1-0.6,0.2c-0.2,0.2-0.3,0.3-0.4,0.6v3.2h-0.8v-2.9c0-0.3-0.1-0.6-0.2-0.8
			c-0.1-0.2-0.4-0.3-0.7-0.3c-0.2,0-0.4,0.1-0.6,0.2c-0.2,0.2-0.3,0.3-0.4,0.6v3.2h-0.8v-4.6h0.8v0.5c0.3-0.4,0.7-0.6,1.3-0.6
			C220.5,63,220.9,63.2,221.2,63.7z"/>
		<path d="M224.7,68.6l2.6-7.7h0.8l-2.6,7.7H224.7z"/>
	</g>
	<g>
		<path class="st2" d="M734,472.7H107.4c-11.2,0-20.3-9.1-20.3-20.3V35.6c0-11.2,9.1-20.3,20.3-20.3H734c11.2,0,20.3,9.1,20.3,20.3
			v416.7C754.3,463.6,745.2,472.7,734,472.7z M107.4,16.3c-10.7,0-19.3,8.7-19.3,19.3v416.7c0,10.7,8.7,19.3,19.3,19.3H734
			c10.7,0,19.3-8.7,19.3-19.3V35.6c0-10.7-8.7-19.3-19.3-19.3H107.4z M737.1,456.5H102.6V32.3h634.5V456.5z M103.6,455.5h632.5V33.3
			H103.6V455.5z"/>
	</g>
	<path class="st2" d="M508.7,464.9c0,0,50.9,1.4,127.3,3.6c19.1,0.6,39.8,1.2,61.6,1.8c10.9,0.3,22.2,0.7,33.7,1l2.2,0.1l0.5,0
		l0.5,0c0.4,0,0.7,0,1-0.1c1.4-0.1,2.8-0.4,4.1-0.8c2.7-0.8,5.2-2.3,7.2-4.2c2.1-1.9,3.7-4.3,4.8-6.9c0.5-1.3,0.9-2.7,1.1-4.1
		c0.2-1.4,0.3-2.8,0.2-4.3c0-47.7-0.1-98.7-0.1-149.6c0-50.9,0-101.9,0-149.6c0-23.9,0-46.9,0.1-68.8c0-10.9,0-21.6,0-31.9
		c-0.5-10.1,2.1-21-4.7-28c-3-3.5-7.2-5.7-11.5-6.3c-1.1-0.2-2.2-0.2-3.3-0.2c-1.1,0-2.3,0-3.4,0c-2.2,0-4.4,0-6.6,0
		c-8.7,0-17-0.1-24.7-0.1c-15.5-0.1-29-0.2-40.2-0.3c-22.3-0.2-35-0.3-35-0.3s12.7-0.1,35-0.3c11.1-0.1,24.7-0.2,40.2-0.3
		c7.8,0,16-0.1,24.7-0.1c2.2,0,4.4,0,6.6,0c1.1,0,2.2,0,3.4,0c1.1,0,2.3,0,3.5,0.2c4.7,0.7,9.3,3.1,12.6,6.8c1.6,1.9,3,4.1,3.9,6.4
		c0.4,1.2,0.8,2.4,1,3.7c0.2,1.3,0.3,2.6,0.3,3.8c0,5,0,10,0,15.2c0,10.3,0,20.9,0,31.9c0,21.9,0,45,0.1,68.8c0,47.7,0,98.7,0,149.6
		c0,50.9-0.1,101.9-0.1,149.6c0,1.5,0,3.1-0.3,4.6c-0.3,1.5-0.7,3-1.3,4.4c-1.2,2.9-3,5.4-5.2,7.5c-2.2,2-4.9,3.6-7.8,4.5
		c-1.4,0.4-2.9,0.7-4.4,0.8c-0.4,0-0.8,0.1-1.1,0.1l-0.6,0l-0.5,0l-2.2-0.1c-11.5-0.4-22.7-0.8-33.6-1.2
		c-21.9-0.8-42.5-1.5-61.6-2.1C559.6,466.8,508.7,464.9,508.7,464.9z"/>
	<g>
		<path class="st0" d="M829.2,480.7L829.2,480.7c0,5.2-4.2,9.4-9.4,9.4H21.6c-5.2,0-9.4-4.2-9.4-9.4l0,0"/>
		<path class="st2" d="M819.8,490.6H21.6c-5.5,0-9.9-4.5-9.9-9.9h1c0,4.9,4,8.9,8.9,8.9h798.2c4.9,0,8.9-4,8.9-8.9h1
			C829.7,486.1,825.3,490.6,819.8,490.6z"/>
	</g>
	<g>
		<g>
			<path class="st0" d="M829.2,481.4v-16.4H487.5v1.9c0,3-2.5,5.5-5.5,5.5H359.4c-3,0-5.5-2.5-5.5-5.5v-1.9H12.2v15.7"/>
			<path class="st2" d="M829.7,481.4h-1v-15.9H488v1.4c0,3.3-2.7,6-6,6H359.4c-3.3,0-6-2.7-6-6v-1.4H12.7v15.2h-1v-16.2h342.7v2.4
				c0,2.7,2.2,5,5,5H482c2.7,0,5-2.2,5-5v-2.4h342.7L829.7,481.4L829.7,481.4z"/>
		</g>
		<g>
			<path class="st0" d="M359.4,472.3H482c3,0,5.5-2.5,5.5-5.5v-1.9H353.9v1.9C353.9,469.8,356.4,472.3,359.4,472.3z"/>
			<path class="st2" d="M482,472.8H359.4c-3.3,0-6-2.7-6-6v-2.4H488v2.4C488,470.1,485.3,472.8,482,472.8z M354.4,465.4v1.4
				c0,2.7,2.2,5,5,5H482c2.7,0,5-2.2,5-5v-1.4H354.4z"/>
		</g>
	</g>
	<g>
		<g>
			<path class="st0" d="M487.5,464.9v1.9c0,3-2.5,5.5-5.5,5.5H359.4c-3,0-5.5-2.5-5.5-5.5v-1.9H12.2v15.7"/>
			<path class="st2" d="M12.7,480.7h-1v-16.2h342.7v2.4c0,2.7,2.2,5,5,5H482c2.7,0,5-2.2,5-5v-1.9h1v1.9c0,3.3-2.7,6-6,6H359.4
				c-3.3,0-6-2.7-6-6v-1.4H12.7V480.7z"/>
		</g>
		<path class="st3" d="M744.9,464.9"/>
		<path class="st2" d="M487.5,464.9l85.4-0.4l85.4-0.3l85.4-0.2l85.4-0.1c0.5,0,1,0.4,1,1l0,11.3l0,2.8l0,1.4c0,0.6,0,0.9-0.1,1.5
			c-0.1,1.1-0.5,2.1-0.9,3c-0.4,0.9-1,1.8-1.7,2.6c-1.4,1.5-3.3,2.6-5.3,3.1c-0.5,0.1-1,0.2-1.5,0.2l-0.8,0l-0.7,0l-2.8,0l-11.3,0
			l-45.3,0l-90.7-0.2l-90.7-0.3l-90.7-0.4l90.7-0.4l90.7-0.3l90.7-0.2l45.3,0l11.3,0l2.8,0l0.7,0l0.6,0c0.4,0,0.8-0.1,1.3-0.2
			c1.7-0.4,3.2-1.3,4.3-2.6c1.2-1.2,1.9-2.9,2.1-4.5c0.1-0.3,0.1-1,0.1-1.3l0-1.4l0-2.8l0-11.3l1,1l-85.4-0.1l-85.4-0.2l-85.4-0.3
			L487.5,464.9z"/>
		<g>
			<path class="st0" d="M359.4,472.3H482c3,0,5.5-2.5,5.5-5.5v-1.9H353.9v1.9C353.9,469.8,356.4,472.3,359.4,472.3z"/>
			<path class="st2" d="M482,472.8H359.4c-3.3,0-6-2.7-6-6v-2.4H488v2.4C488,470.1,485.3,472.8,482,472.8z M354.4,465.4v1.4
				c0,2.7,2.2,5,5,5H482c2.7,0,5-2.2,5-5v-1.4H354.4z"/>
		</g>
	</g>
	<polygon class="st4" points="103.1,456 261.3,455.5 419.6,455.1 577.9,455 736.2,455.1 735.3,456 735.5,244.4 735.8,138.6 
		736.2,32.8 736.6,138.6 736.8,244.4 737.1,456 737.1,456.9 736.2,456.9 577.9,457 419.6,456.9 261.3,456.5 	"/>
	<g>
		<rect x="196.4" y="109.8" class="st0" width="438.7" height="314.5"/>
		<path class="st4" d="M635.7,424.8H195.9V109.3h439.7V424.8z M196.9,423.8h437.7V110.3H196.9V423.8z"/>
	</g>
	<polygon class="st4" points="636.2,425.3 196.4,425.3 196.4,423.3 634.2,423.3 633.2,109.4 635.2,109.4 	"/>
	<circle class="st1" cx="214.4" cy="123.5" r="4.4"/>
	<circle class="st1" cx="230.8" cy="123.5" r="4.4"/>
	<circle class="st1" cx="246" cy="123.5" r="4.4"/>
	<rect x="210.3" y="204.9" class="st5" width="412.1" height="211.4"/>
	<g>
		<line class="st6" x1="209.2" y1="174.8" x2="622.5" y2="174.8"/>
		<rect x="209.2" y="174.3" class="st7" width="413.2" height="1"/>
	</g>
	<g>
		<line class="st6" x1="209.2" y1="198.4" x2="622.5" y2="198.4"/>
		<rect x="209.2" y="197.9" class="st7" width="413.2" height="1"/>
	</g>
	<path class="st8" d="M597.7,186.4v-2.2c0-2.4-2-4.4-4.4-4.4c-2.4,0-4.4,2-4.4,4.4v2.2h-0.8v8h10.4v-8H597.7z M590.1,184.2
		c0-1.8,1.4-3.2,3.2-3.2c1.8,0,3.2,1.4,3.2,3.2v2.2h-6.4V184.2z"/>
	<rect x="196.8" y="136.7" class="st2" width="437.4" height="1"/>
	<path class="st8" d="M610,194.3l-6.2-4.4c-0.2-0.2-0.3-0.5-0.1-0.7c0.2-0.2,0.5-0.3,0.7-0.1l5.5,3.9l10.8-12.3
		c0.2-0.2,0.5-0.2,0.7,0c0.2,0.2,0.2,0.5,0,0.7L610,194.3z"/>
	<g>
		<path class="st2" d="M211.9,166.3h-1v-7.8h4.8v0.9h-3.8v2.6h3.5v0.9h-3.5V166.3z"/>
		<path class="st2" d="M219.7,160.7v1c-0.2-0.1-0.4-0.2-0.6-0.2c-0.3,0-0.6,0.1-0.8,0.3c-0.2,0.2-0.4,0.4-0.5,0.8v3.8h-1v-5.6h1v0.7
			c0.1-0.2,0.3-0.4,0.6-0.6c0.2-0.2,0.5-0.2,0.8-0.2C219.4,160.6,219.6,160.6,219.7,160.7z"/>
		<path class="st2" d="M224.8,161.4c0.5,0.5,0.7,1.2,0.7,2.1s-0.2,1.6-0.7,2.1s-1.1,0.8-1.9,0.8s-1.4-0.3-1.9-0.8
			c-0.5-0.5-0.7-1.2-0.7-2.1s0.2-1.6,0.7-2.1c0.5-0.5,1.1-0.8,1.9-0.8S224.3,160.8,224.8,161.4z M224.1,165c0.3-0.4,0.4-0.9,0.4-1.5
			s-0.1-1.1-0.4-1.5c-0.3-0.4-0.7-0.6-1.2-0.6s-0.9,0.2-1.2,0.6s-0.4,0.9-0.4,1.5s0.1,1.1,0.4,1.5c0.3,0.4,0.7,0.6,1.2,0.6
			S223.8,165.4,224.1,165z"/>
		<path class="st2" d="M230.8,161.5c0.4-0.6,1-0.9,1.7-0.9c0.6,0,1,0.2,1.3,0.5s0.5,0.9,0.5,1.5v3.7h-1v-3.6c0-0.4-0.1-0.7-0.3-1
			c-0.2-0.2-0.4-0.3-0.8-0.3c-0.3,0-0.5,0.1-0.8,0.3c-0.2,0.2-0.4,0.4-0.5,0.7v3.9h-1v-3.6c0-0.4-0.1-0.7-0.3-1s-0.4-0.3-0.8-0.3
			c-0.3,0-0.5,0.1-0.8,0.3c-0.2,0.2-0.4,0.4-0.5,0.7v3.9h-1v-5.6h1v0.7c0.3-0.5,0.8-0.8,1.5-0.8C230,160.6,230.5,160.9,230.8,161.5z
			"/>
		<path class="st2" d="M241.2,158.5h0.9l3,7.8h-1l-0.9-2.3H240l-0.9,2.3h-1L241.2,158.5z M241.6,159.8l-1.3,3.3h2.5L241.6,159.8z"/>
		<path class="st2" d="M247.2,158.1v8.2h-1v-8.2H247.2z"/>
		<path class="st2" d="M249.8,158.6c0.1,0.1,0.2,0.3,0.2,0.4c0,0.2-0.1,0.3-0.2,0.4c-0.1,0.1-0.3,0.2-0.4,0.2s-0.3-0.1-0.4-0.2
			c-0.1-0.1-0.2-0.3-0.2-0.4c0-0.2,0.1-0.3,0.2-0.4c0.1-0.1,0.3-0.2,0.4-0.2C249.5,158.4,249.7,158.4,249.8,158.6z M249.9,160.7v5.6
			h-1v-5.6H249.9z"/>
		<path class="st2" d="M251.9,165.6c-0.5-0.5-0.7-1.2-0.7-2.1s0.2-1.6,0.7-2.1s1.1-0.8,1.9-0.8c0.6,0,1.1,0.2,1.5,0.5
			c0.4,0.3,0.6,0.8,0.7,1.3h-1c-0.1-0.3-0.2-0.5-0.4-0.7c-0.2-0.2-0.5-0.3-0.8-0.3c-0.5,0-0.9,0.2-1.2,0.6c-0.3,0.4-0.4,0.9-0.4,1.5
			s0.1,1.1,0.4,1.5c0.3,0.4,0.7,0.6,1.2,0.6c0.3,0,0.6-0.1,0.8-0.3c0.2-0.2,0.4-0.4,0.4-0.7h1c-0.1,0.6-0.3,1-0.7,1.3
			c-0.4,0.3-0.9,0.5-1.5,0.5C253,166.4,252.3,166.2,251.9,165.6z"/>
		<path class="st2" d="M260.7,164.6h0.9c-0.1,0.6-0.4,1-0.7,1.3c-0.4,0.3-0.9,0.5-1.5,0.5c-0.8,0-1.4-0.3-1.9-0.8s-0.7-1.2-0.7-2.1
			c0-0.9,0.2-1.6,0.7-2.1c0.5-0.6,1.1-0.8,1.9-0.8c0.8,0,1.3,0.3,1.8,0.8c0.4,0.5,0.6,1.2,0.6,2v0.3h-4c0,0.6,0.2,1.1,0.5,1.4
			c0.3,0.4,0.7,0.5,1.2,0.5c0.4,0,0.7-0.1,0.9-0.3C260.5,165.2,260.7,164.9,260.7,164.6z M259.4,161.4c-0.4,0-0.8,0.1-1.1,0.4
			c-0.3,0.3-0.5,0.7-0.5,1.2h3c0-0.4-0.1-0.8-0.4-1.1S259.8,161.4,259.4,161.4z"/>
		<path class="st2" d="M213.3,184.6h0.9l3,7.8h-1l-0.9-2.3h-3.2l-0.9,2.3h-1L213.3,184.6z M213.7,185.9l-1.3,3.3h2.5L213.7,185.9z"
			/>
		<path class="st2" d="M222.8,186.8v5.6h-1v-0.7c-0.2,0.2-0.4,0.4-0.7,0.6c-0.3,0.2-0.6,0.2-1,0.2c-0.6,0-1.1-0.2-1.5-0.6
			c-0.3-0.4-0.5-0.9-0.5-1.5v-3.7h1v3.5c0,0.4,0.1,0.7,0.3,1c0.2,0.2,0.5,0.4,0.9,0.4c0.3,0,0.6-0.1,0.9-0.3s0.4-0.4,0.5-0.8v-3.8
			L222.8,186.8L222.8,186.8z"/>
		<path class="st2" d="M224.7,191v-3.4h-0.9v-0.8h0.9v-1.5h1v1.5h1.4v0.8h-1.4v3.3c0,0.5,0.2,0.8,0.7,0.8c0.3,0,0.5-0.1,0.7-0.2v0.9
			c-0.2,0.1-0.5,0.2-0.9,0.2c-0.5,0-0.9-0.1-1.1-0.4C224.9,191.9,224.7,191.5,224.7,191z"/>
		<path class="st2" d="M232.5,187.5c0.5,0.5,0.7,1.2,0.7,2.1s-0.2,1.6-0.7,2.1s-1.1,0.8-1.9,0.8s-1.4-0.3-1.9-0.8
			c-0.5-0.5-0.7-1.2-0.7-2.1s0.2-1.6,0.7-2.1c0.5-0.5,1.1-0.8,1.9-0.8S232,186.9,232.5,187.5z M231.8,191.1c0.3-0.4,0.4-0.9,0.4-1.5
			s-0.1-1.1-0.4-1.5c-0.3-0.4-0.7-0.6-1.2-0.6s-0.9,0.2-1.2,0.6s-0.4,0.9-0.4,1.5s0.1,1.1,0.4,1.5c0.3,0.4,0.7,0.6,1.2,0.6
			S231.5,191.5,231.8,191.1z"/>
		<path class="st2" d="M238.5,187.6c0.4-0.6,1-0.9,1.7-0.9c0.6,0,1,0.2,1.3,0.5s0.5,0.9,0.5,1.5v3.7h-1v-3.6c0-0.4-0.1-0.7-0.3-1
			c-0.2-0.2-0.4-0.3-0.8-0.3c-0.3,0-0.5,0.1-0.8,0.3c-0.2,0.2-0.4,0.4-0.5,0.7v3.9h-1v-3.6c0-0.4-0.1-0.7-0.3-1s-0.4-0.3-0.8-0.3
			c-0.3,0-0.5,0.1-0.8,0.3c-0.2,0.2-0.4,0.4-0.5,0.7v3.9h-1v-5.6h1v0.7c0.3-0.5,0.8-0.8,1.5-0.8C237.7,186.7,238.2,187,238.5,187.6z
			"/>
		<path class="st2" d="M247.7,192.4h-0.9V192c-0.1,0.1-0.3,0.2-0.6,0.4c-0.3,0.1-0.6,0.2-0.9,0.2c-0.6,0-1.1-0.2-1.5-0.5
			c-0.4-0.3-0.6-0.8-0.6-1.3c0-0.5,0.2-0.9,0.6-1.3c0.4-0.3,0.9-0.5,1.5-0.5c0.3,0,0.6,0,0.8,0.1c0.3,0.1,0.5,0.2,0.6,0.3v-0.7
			c0-0.4-0.1-0.7-0.3-0.9c-0.2-0.2-0.5-0.3-0.9-0.3c-0.6,0-1,0.3-1.2,0.8h-0.9c0.1-0.5,0.3-0.9,0.7-1.2s0.8-0.4,1.4-0.4
			c0.7,0,1.2,0.2,1.6,0.5c0.4,0.4,0.6,0.8,0.6,1.5L247.7,192.4L247.7,192.4z M246.8,191v-0.6c-0.1-0.2-0.3-0.4-0.5-0.5
			c-0.2-0.1-0.5-0.2-0.8-0.2c-0.4,0-0.7,0.1-1,0.3s-0.4,0.4-0.4,0.7c0,0.3,0.1,0.6,0.4,0.7c0.3,0.2,0.6,0.3,1,0.3
			c0.3,0,0.6-0.1,0.8-0.2C246.5,191.4,246.7,191.2,246.8,191z"/>
		<path class="st2" d="M249.5,191v-3.4h-0.9v-0.8h0.9v-1.5h1v1.5h1.4v0.8h-1.4v3.3c0,0.5,0.2,0.8,0.7,0.8c0.3,0,0.5-0.1,0.7-0.2v0.9
			c-0.2,0.1-0.5,0.2-0.9,0.2c-0.5,0-0.9-0.1-1.1-0.4C249.7,191.9,249.5,191.5,249.5,191z"/>
		<path class="st2" d="M254.2,184.7c0.1,0.1,0.2,0.3,0.2,0.4c0,0.2-0.1,0.3-0.2,0.4c-0.1,0.1-0.3,0.2-0.4,0.2s-0.3-0.1-0.4-0.2
			c-0.1-0.1-0.2-0.3-0.2-0.4c0-0.2,0.1-0.3,0.2-0.4c0.1-0.1,0.3-0.2,0.4-0.2S254.1,184.5,254.2,184.7z M254.2,186.8v5.6h-1v-5.6
			H254.2z"/>
		<path class="st2" d="M256.2,191.7c-0.5-0.5-0.7-1.2-0.7-2.1s0.2-1.6,0.7-2.1c0.5-0.5,1.1-0.8,1.9-0.8c0.6,0,1.1,0.2,1.5,0.5
			c0.4,0.3,0.6,0.8,0.7,1.3h-1c-0.1-0.3-0.2-0.5-0.4-0.7c-0.2-0.2-0.5-0.3-0.8-0.3c-0.5,0-0.9,0.2-1.2,0.6c-0.3,0.4-0.4,0.9-0.4,1.5
			s0.1,1.1,0.4,1.5c0.3,0.4,0.7,0.6,1.2,0.6c0.3,0,0.6-0.1,0.8-0.3c0.2-0.2,0.4-0.4,0.4-0.7h1c-0.1,0.6-0.3,1-0.7,1.3
			c-0.4,0.3-0.9,0.5-1.5,0.5C257.3,192.5,256.7,192.3,256.2,191.7z"/>
		<path class="st2" d="M265.7,192.4h-0.9V192c-0.1,0.1-0.3,0.2-0.6,0.4c-0.3,0.1-0.6,0.2-0.9,0.2c-0.6,0-1.1-0.2-1.5-0.5
			c-0.4-0.3-0.6-0.8-0.6-1.3c0-0.5,0.2-0.9,0.6-1.3c0.4-0.3,0.9-0.5,1.5-0.5c0.3,0,0.6,0,0.8,0.1c0.3,0.1,0.5,0.2,0.6,0.3v-0.7
			c0-0.4-0.1-0.7-0.3-0.9c-0.2-0.2-0.5-0.3-0.9-0.3c-0.6,0-1,0.3-1.2,0.8h-0.9c0.1-0.5,0.3-0.9,0.7-1.2s0.8-0.4,1.4-0.4
			c0.7,0,1.2,0.2,1.6,0.5c0.4,0.4,0.6,0.8,0.6,1.5L265.7,192.4L265.7,192.4z M264.8,191v-0.6c-0.1-0.2-0.3-0.4-0.5-0.5
			c-0.2-0.1-0.5-0.2-0.8-0.2c-0.4,0-0.7,0.1-1,0.3s-0.4,0.4-0.4,0.7c0,0.3,0.1,0.6,0.4,0.7c0.3,0.2,0.6,0.3,1,0.3
			c0.3,0,0.6-0.1,0.8-0.2C264.5,191.4,264.7,191.2,264.8,191z"/>
		<path class="st2" d="M268.3,184.2v8.2h-1v-8.2H268.3z"/>
		<path class="st2" d="M270.9,184.2v8.2h-1v-8.2H270.9z"/>
		<path class="st2" d="M274.3,194.6h-0.9l0.9-2.1l-2.2-5.7h1l1.7,4.4l1.6-4.4h1L274.3,194.6z"/>
		<path class="st2" d="M282.1,184.2v8.2h-1v-8.2H282.1z"/>
		<path class="st2" d="M287.9,187.5c0.5,0.5,0.7,1.2,0.7,2.1s-0.2,1.6-0.7,2.1s-1.1,0.8-1.9,0.8s-1.4-0.3-1.9-0.8
			c-0.5-0.5-0.7-1.2-0.7-2.1s0.2-1.6,0.7-2.1c0.5-0.5,1.1-0.8,1.9-0.8S287.4,186.9,287.9,187.5z M287.2,191.1
			c0.3-0.4,0.4-0.9,0.4-1.5s-0.1-1.1-0.4-1.5c-0.3-0.4-0.7-0.6-1.2-0.6s-0.9,0.2-1.2,0.6s-0.4,0.9-0.4,1.5s0.1,1.1,0.4,1.5
			c0.3,0.4,0.7,0.6,1.2,0.6S286.9,191.5,287.2,191.1z"/>
		<path class="st2" d="M293.6,192v-0.4c-0.2,0.2-0.4,0.4-0.7,0.5c-0.3,0.1-0.6,0.2-0.9,0.2c-0.8,0-1.4-0.3-1.9-0.8
			c-0.4-0.6-0.7-1.2-0.7-2c0-0.8,0.2-1.5,0.7-2s1.1-0.8,1.9-0.8c0.3,0,0.6,0.1,0.9,0.2c0.3,0.1,0.5,0.3,0.7,0.5v-0.6h1v5.2
			c0,0.9-0.2,1.6-0.7,2s-1.1,0.7-1.8,0.7c-0.7,0-1.2-0.2-1.6-0.5c-0.4-0.3-0.7-0.8-0.8-1.4h0.9c0.2,0.7,0.7,1.1,1.5,1.1
			C293.1,193.9,293.6,193.3,293.6,192z M293.6,190.6v-2.2c-0.3-0.6-0.8-0.9-1.4-0.9c-0.5,0-0.9,0.2-1.2,0.6s-0.5,0.9-0.5,1.4
			s0.1,1.1,0.5,1.4c0.3,0.4,0.7,0.6,1.2,0.6C292.8,191.5,293.3,191.2,293.6,190.6z"/>
		<path class="st2" d="M300,184.7c0.1,0.1,0.2,0.3,0.2,0.4c0,0.2-0.1,0.3-0.2,0.4c-0.1,0.1-0.3,0.2-0.4,0.2c-0.2,0-0.3-0.1-0.4-0.2
			c-0.1-0.1-0.2-0.3-0.2-0.4c0-0.2,0.1-0.3,0.2-0.4c0.1-0.1,0.3-0.2,0.4-0.2C299.7,184.5,299.9,184.5,300,184.7z M300,186.8v5.6h-1
			v-5.6H300z"/>
		<path class="st2" d="M301.7,192.4v-5.6h1v0.7c0.2-0.2,0.4-0.4,0.7-0.6c0.3-0.2,0.6-0.2,1-0.2c0.6,0,1.1,0.2,1.5,0.6
			c0.3,0.4,0.5,0.9,0.5,1.5v3.7h-1v-3.5c0-0.4-0.1-0.7-0.3-1c-0.2-0.2-0.5-0.4-0.9-0.4c-0.3,0-0.6,0.1-0.9,0.3
			c-0.3,0.2-0.4,0.4-0.5,0.8v3.8L301.7,192.4L301.7,192.4z"/>
	</g>
	<g>
		<path class="st8" d="M486.7,362.1H345.9c-8.6,0-15.5-7-15.5-15.5c0-8.6,7-15.5,15.5-15.5h140.8c8.6,0,15.5,7,15.5,15.5
			C502.3,355.1,495.3,362.1,486.7,362.1z"/>
	</g>
	<g>
		<path class="st0" d="M358.5,349.8c-0.8-0.9-1.2-2.1-1.2-3.6s0.4-2.7,1.2-3.6c0.8-0.9,1.8-1.4,3.1-1.4c1,0,1.8,0.3,2.5,0.8
			s1.1,1.3,1.3,2.2h-1.2c-0.4-1.2-1.3-1.8-2.5-1.8c-0.9,0-1.7,0.4-2.2,1.1c-0.6,0.7-0.8,1.6-0.8,2.8c0,1.1,0.3,2.1,0.8,2.8
			c0.6,0.7,1.3,1.1,2.2,1.1c1.3,0,2.1-0.6,2.5-1.9h1.2c-0.2,0.9-0.6,1.6-1.3,2.2c-0.7,0.5-1.5,0.8-2.5,0.8
			C360.4,351.2,359.4,350.7,358.5,349.8z"/>
		<path class="st0" d="M368.1,340.9V351h-1.2v-10.2H368.1z"/>
		<path class="st0" d="M371.3,341.4c0.2,0.1,0.2,0.3,0.2,0.5s-0.1,0.4-0.2,0.5s-0.3,0.2-0.5,0.2s-0.4-0.1-0.5-0.2s-0.2-0.3-0.2-0.5
			s0.1-0.4,0.2-0.5c0.1-0.1,0.3-0.2,0.5-0.2S371.2,341.3,371.3,341.4z M371.4,344.1v7h-1.2v-7H371.4z"/>
		<path class="st0" d="M373.9,350.2c-0.6-0.7-0.9-1.5-0.9-2.6s0.3-1.9,0.9-2.6c0.6-0.7,1.3-1,2.3-1c0.8,0,1.4,0.2,1.9,0.6
			s0.8,1,0.9,1.6h-1.2c-0.1-0.4-0.3-0.7-0.5-0.9c-0.3-0.2-0.6-0.3-1-0.3c-0.6,0-1.1,0.2-1.4,0.7c-0.4,0.5-0.5,1.1-0.5,1.9
			c0,0.8,0.2,1.4,0.5,1.9c0.4,0.5,0.8,0.7,1.4,0.7c0.4,0,0.8-0.1,1-0.3c0.3-0.2,0.5-0.5,0.5-0.9h1.2c-0.1,0.7-0.4,1.2-0.9,1.6
			s-1.1,0.6-1.9,0.6C375.2,351.2,374.5,350.8,373.9,350.2z"/>
		<path class="st0" d="M385.1,351l-2.6-3.2l-0.8,0.7v2.5h-1.2v-10.2h1.2v6.3l3.2-3.1h1.5l-3.1,3l3.2,3.9L385.1,351L385.1,351z"/>
		<path class="st0" d="M391.2,351v-10.2h1.2v4.1c0.2-0.3,0.5-0.5,0.9-0.7s0.8-0.3,1.2-0.3c0.8,0,1.4,0.2,1.8,0.7
			c0.4,0.5,0.6,1.1,0.6,1.8v4.6h-1.2v-4.4c0-0.5-0.1-0.9-0.4-1.2c-0.3-0.3-0.6-0.4-1.1-0.4c-0.4,0-0.8,0.1-1.1,0.4
			c-0.3,0.2-0.5,0.6-0.7,0.9v4.7L391.2,351L391.2,351z"/>
		<path class="st0" d="M403.2,348.9h1.1c-0.1,0.7-0.4,1.2-0.9,1.6c-0.5,0.4-1.1,0.6-1.9,0.6c-0.9,0-1.7-0.3-2.3-1s-0.9-1.5-0.9-2.6
			c0-1.1,0.3-1.9,0.9-2.6c0.6-0.7,1.3-1,2.3-1c0.9,0,1.6,0.3,2.2,0.9c0.5,0.6,0.8,1.4,0.8,2.5v0.4h-4.9c0,0.7,0.2,1.3,0.6,1.7
			c0.4,0.4,0.9,0.6,1.4,0.6c0.4,0,0.8-0.1,1.1-0.3C403,349.6,403.2,349.3,403.2,348.9z M401.5,344.9c-0.5,0-1,0.2-1.3,0.5
			c-0.4,0.3-0.6,0.8-0.7,1.4h3.7c0-0.6-0.2-1-0.5-1.4C402.5,345.1,402.1,344.9,401.5,344.9z"/>
		<path class="st0" d="M409.6,344v1.2c-0.2-0.1-0.4-0.2-0.8-0.2c-0.4,0-0.7,0.1-1,0.3c-0.3,0.2-0.5,0.5-0.6,1v4.7H406v-7h1.2v0.9
			c0.2-0.3,0.4-0.6,0.7-0.8c0.3-0.2,0.6-0.3,1-0.3C409.2,343.9,409.4,344,409.6,344z"/>
		<path class="st0" d="M415.2,348.9h1.1c-0.1,0.7-0.4,1.2-0.9,1.6c-0.5,0.4-1.1,0.6-1.9,0.6c-1,0-1.7-0.3-2.3-1s-0.9-1.5-0.9-2.6
			c0-1.1,0.3-1.9,0.9-2.6c0.6-0.7,1.3-1,2.3-1c0.9,0,1.6,0.3,2.2,0.9s0.8,1.4,0.8,2.5v0.4h-4.9c0,0.7,0.2,1.3,0.6,1.7
			c0.4,0.4,0.9,0.6,1.4,0.6c0.4,0,0.8-0.1,1.1-0.3C414.9,349.6,415.1,349.3,415.2,348.9z M413.5,344.9c-0.5,0-1,0.2-1.3,0.5
			c-0.4,0.3-0.6,0.8-0.7,1.4h3.7c0-0.6-0.2-1-0.5-1.4C414.5,345.1,414.1,344.9,413.5,344.9z"/>
		<path class="st0" d="M421.8,349.3v-4.2h-1.1v-1h1.1v-1.8h1.2v1.8h1.7v1H423v4.1c0,0.6,0.3,1,0.9,1c0.3,0,0.6-0.1,0.9-0.3v1.1
			c-0.3,0.2-0.7,0.2-1.1,0.2c-0.6,0-1-0.2-1.4-0.5C422,350.4,421.8,349.9,421.8,349.3z"/>
		<path class="st0" d="M431.3,344.9c0.6,0.7,0.9,1.5,0.9,2.6c0,1.1-0.3,1.9-0.9,2.6c-0.6,0.7-1.4,1-2.3,1c-0.9,0-1.7-0.3-2.3-1
			c-0.6-0.7-0.9-1.5-0.9-2.6c0-1.1,0.3-1.9,0.9-2.6s1.4-1,2.3-1C430,343.9,430.8,344.3,431.3,344.9z M430.5,349.4
			c0.4-0.5,0.5-1.1,0.5-1.9s-0.2-1.4-0.5-1.9c-0.4-0.5-0.8-0.7-1.5-0.7c-0.6,0-1.1,0.2-1.5,0.7c-0.4,0.5-0.5,1.1-0.5,1.9
			s0.2,1.4,0.5,1.9c0.4,0.5,0.8,0.7,1.5,0.7C429.7,350.1,430.1,349.9,430.5,349.4z"/>
		<path class="st0" d="M436.7,349.1h1.2c0.2,0.7,0.8,1.1,1.6,1.1c0.4,0,0.8-0.1,1-0.3c0.3-0.2,0.4-0.4,0.4-0.8c0-0.5-0.3-0.8-1-1
			l-1.4-0.4c-1.1-0.3-1.7-0.9-1.7-1.8c0-0.6,0.2-1.1,0.7-1.5c0.5-0.4,1.1-0.6,1.8-0.6c0.8,0,1.4,0.2,1.8,0.5s0.8,0.8,0.9,1.5h-1.2
			c-0.2-0.7-0.7-1-1.5-1c-0.4,0-0.7,0.1-0.9,0.3c-0.3,0.2-0.4,0.4-0.4,0.7c0,0.2,0.1,0.4,0.2,0.5c0.1,0.1,0.4,0.2,0.7,0.3l1.3,0.3
			c1.2,0.3,1.8,1,1.8,1.9c0,0.6-0.2,1.2-0.7,1.5s-1.1,0.6-1.9,0.6s-1.4-0.2-1.9-0.5C437.1,350.3,436.8,349.8,436.7,349.1z"/>
		<path class="st0" d="M444.9,341.4c0.2,0.1,0.2,0.3,0.2,0.5s-0.1,0.4-0.2,0.5c-0.1,0.1-0.3,0.2-0.5,0.2c-0.2,0-0.4-0.1-0.5-0.2
			s-0.2-0.3-0.2-0.5s0.1-0.4,0.2-0.5c0.1-0.1,0.3-0.2,0.5-0.2C444.6,341.2,444.7,341.3,444.9,341.4z M444.9,344.1v7h-1.2v-7H444.9z"
			/>
		<path class="st0" d="M451.6,350.6V350c-0.2,0.3-0.5,0.5-0.8,0.7s-0.7,0.3-1.1,0.3c-1,0-1.7-0.3-2.3-1c-0.6-0.7-0.8-1.5-0.8-2.5
			c0-1,0.3-1.8,0.8-2.5c0.6-0.7,1.3-1,2.3-1c0.4,0,0.8,0.1,1.1,0.3s0.6,0.4,0.8,0.7v-0.8h1.2v6.4c0,1.1-0.3,1.9-0.9,2.5
			c-0.6,0.6-1.3,0.9-2.2,0.9c-0.8,0-1.5-0.2-2-0.6c-0.5-0.4-0.8-1-0.9-1.7h1.2c0.2,0.9,0.8,1.3,1.8,1.3
			C451,352.8,451.6,352.1,451.6,350.6z M451.6,348.8v-2.8c-0.4-0.7-1-1.1-1.8-1.1c-0.6,0-1.2,0.2-1.5,0.7s-0.6,1.1-0.6,1.8
			s0.2,1.3,0.6,1.8s0.9,0.7,1.5,0.7C450.6,349.9,451.2,349.6,451.6,348.8z"/>
		<path class="st0" d="M454.9,351v-7h1.2v0.9c0.2-0.3,0.5-0.5,0.9-0.7c0.4-0.2,0.8-0.3,1.2-0.3c0.8,0,1.4,0.2,1.8,0.7
			c0.4,0.5,0.6,1.1,0.6,1.8v4.6h-1.2v-4.4c0-0.5-0.1-0.9-0.4-1.2c-0.3-0.3-0.6-0.4-1.2-0.4c-0.4,0-0.8,0.1-1.1,0.4
			c-0.3,0.2-0.5,0.6-0.7,0.9v4.7L454.9,351L454.9,351z"/>
		<path class="st0" d="M467.1,341.4c0.1,0.1,0.2,0.3,0.2,0.5s-0.1,0.4-0.2,0.5c-0.2,0.1-0.3,0.2-0.5,0.2s-0.4-0.1-0.5-0.2
			c-0.1-0.1-0.2-0.3-0.2-0.5s0.1-0.4,0.2-0.5c0.1-0.1,0.3-0.2,0.5-0.2S467,341.3,467.1,341.4z M467.2,344.1v7H466v-7H467.2z"/>
		<path class="st0" d="M469.3,351v-7h1.2v0.9c0.2-0.3,0.5-0.5,0.9-0.7c0.4-0.2,0.8-0.3,1.2-0.3c0.8,0,1.4,0.2,1.8,0.7
			c0.4,0.5,0.6,1.1,0.6,1.8v4.6h-1.2v-4.4c0-0.5-0.1-0.9-0.4-1.2c-0.3-0.3-0.6-0.4-1.1-0.4c-0.4,0-0.8,0.1-1.1,0.4
			c-0.3,0.2-0.5,0.6-0.7,0.9v4.7L469.3,351L469.3,351z"/>
	</g>
	<g>
		<path class="st2" d="M312.1,238.9v9.1h-2.2v-9.1h-3.5v-2.1h9.2v2.1H312.1z"/>
		<path class="st2" d="M319.1,247.9H317v-11.3h2.1v4.3c0.3-0.3,0.6-0.5,1-0.6c0.4-0.1,0.8-0.2,1.1-0.2c0.5,0,0.9,0.1,1.3,0.2
			c0.4,0.2,0.7,0.4,0.9,0.6c0.2,0.3,0.4,0.6,0.5,1c0.1,0.4,0.2,0.8,0.2,1.2v4.9h-2.1v-4.5c0-0.4-0.1-0.8-0.3-1.1
			c-0.2-0.3-0.6-0.4-1.1-0.4c-0.4,0-0.8,0.1-1,0.4c-0.2,0.3-0.4,0.6-0.4,1.1L319.1,247.9L319.1,247.9z"/>
		<path class="st2" d="M333,245.7c-0.1,0.3-0.2,0.6-0.4,0.9s-0.5,0.6-0.7,0.8s-0.6,0.4-1,0.5c-0.4,0.1-0.8,0.2-1.3,0.2
			c-0.5,0-1-0.1-1.5-0.3c-0.5-0.2-0.9-0.5-1.3-0.8c-0.4-0.4-0.7-0.8-0.9-1.3c-0.2-0.5-0.3-1.1-0.3-1.7c0-0.6,0.1-1.2,0.3-1.7
			c0.2-0.5,0.5-0.9,0.8-1.3c0.4-0.4,0.8-0.6,1.2-0.8s0.9-0.3,1.4-0.3c1.2,0,2.1,0.4,2.8,1.1s1,1.7,1,2.9c0,0.1,0,0.3,0,0.4
			s0,0.2,0,0.2h-5.5c0,0.2,0.1,0.5,0.2,0.7s0.3,0.4,0.4,0.6s0.4,0.3,0.6,0.4c0.2,0.1,0.5,0.1,0.7,0.1c0.5,0,0.9-0.1,1.2-0.3
			c0.3-0.2,0.5-0.5,0.6-0.8L333,245.7z M331.1,243.2c0-0.2,0-0.4-0.1-0.6s-0.2-0.3-0.3-0.5c-0.1-0.1-0.3-0.3-0.5-0.3
			c-0.2-0.1-0.5-0.1-0.8-0.1c-0.3,0-0.5,0-0.7,0.1s-0.4,0.2-0.5,0.4c-0.1,0.1-0.3,0.3-0.3,0.5c-0.1,0.2-0.1,0.4-0.1,0.5L331.1,243.2
			L331.1,243.2z"/>
		<path class="st2" d="M342.2,238.3c-0.1,0-0.2,0-0.4,0c-0.1,0-0.2,0.1-0.4,0.2c-0.1,0.1-0.2,0.2-0.3,0.3c-0.1,0.1-0.1,0.3-0.1,0.5
			v0.8h1.7v1.8h-1.7v5.9h-2.1V242h-1.3v-1.8h1.3v-0.9c0-0.4,0.1-0.8,0.2-1.2c0.1-0.4,0.3-0.6,0.6-0.9s0.5-0.4,0.9-0.6
			c0.3-0.1,0.7-0.2,1.2-0.2c0.2,0,0.4,0,0.6,0s0.3,0.1,0.4,0.1v1.8c-0.1,0-0.1,0-0.2-0.1C342.5,238.3,342.4,238.3,342.2,238.3z"/>
		<path class="st2" d="M347.5,240c0.6,0,1.1,0.1,1.6,0.3c0.5,0.2,0.9,0.5,1.3,0.8c0.4,0.4,0.6,0.8,0.8,1.3c0.2,0.5,0.3,1,0.3,1.6
			c0,0.6-0.1,1.1-0.3,1.6c-0.2,0.5-0.5,0.9-0.8,1.3c-0.4,0.4-0.8,0.6-1.3,0.9c-0.5,0.2-1,0.3-1.6,0.3s-1.1-0.1-1.6-0.3
			c-0.5-0.2-0.9-0.5-1.3-0.9c-0.4-0.4-0.6-0.8-0.8-1.3s-0.3-1-0.3-1.6c0-0.6,0.1-1.1,0.3-1.6c0.2-0.5,0.5-0.9,0.8-1.3
			c0.4-0.4,0.8-0.6,1.3-0.8C346.4,240.1,346.9,240,347.5,240z M347.5,246.3c0.2,0,0.5,0,0.7-0.1s0.4-0.2,0.6-0.4s0.3-0.4,0.4-0.7
			c0.1-0.3,0.2-0.6,0.2-1c0-0.4-0.1-0.7-0.2-1c-0.1-0.3-0.3-0.5-0.4-0.7s-0.4-0.3-0.6-0.4c-0.2-0.1-0.5-0.1-0.7-0.1s-0.5,0-0.7,0.1
			c-0.2,0.1-0.4,0.2-0.6,0.4s-0.3,0.4-0.4,0.7c-0.1,0.3-0.2,0.6-0.2,1c0,0.4,0.1,0.7,0.2,1c0.1,0.3,0.3,0.5,0.4,0.7
			c0.2,0.2,0.4,0.3,0.6,0.4S347.3,246.3,347.5,246.3z"/>
		<path class="st2" d="M353.2,247.9v-11.3h2.1v11.3H353.2z"/>
		<path class="st2" d="M357.5,247.9v-11.3h2.1v11.3H357.5z"/>
		<path class="st2" d="M365.3,240c0.6,0,1.1,0.1,1.6,0.3c0.5,0.2,0.9,0.5,1.3,0.8c0.4,0.4,0.6,0.8,0.8,1.3c0.2,0.5,0.3,1,0.3,1.6
			c0,0.6-0.1,1.1-0.3,1.6c-0.2,0.5-0.5,0.9-0.8,1.3c-0.4,0.4-0.8,0.6-1.3,0.9c-0.5,0.2-1,0.3-1.6,0.3s-1.1-0.1-1.6-0.3
			c-0.5-0.2-0.9-0.5-1.3-0.9c-0.4-0.4-0.6-0.8-0.8-1.3s-0.3-1-0.3-1.6c0-0.6,0.1-1.1,0.3-1.6c0.2-0.5,0.5-0.9,0.8-1.3
			c0.4-0.4,0.8-0.6,1.3-0.8C364.2,240.1,364.7,240,365.3,240z M365.3,246.3c0.2,0,0.5,0,0.7-0.1s0.4-0.2,0.6-0.4s0.3-0.4,0.4-0.7
			c0.1-0.3,0.2-0.6,0.2-1c0-0.4-0.1-0.7-0.2-1c-0.1-0.3-0.3-0.5-0.4-0.7s-0.4-0.3-0.6-0.4c-0.2-0.1-0.5-0.1-0.7-0.1s-0.5,0-0.7,0.1
			c-0.2,0.1-0.4,0.2-0.6,0.4s-0.3,0.4-0.4,0.7c-0.1,0.3-0.2,0.6-0.2,1c0,0.4,0.1,0.7,0.2,1c0.1,0.3,0.3,0.5,0.4,0.7
			c0.2,0.2,0.4,0.3,0.6,0.4S365,246.3,365.3,246.3z"/>
		<path class="st2" d="M377.3,240.2l1.7,5l1.4-5h2.1l-2.4,7.7H378l-1.8-5.3l-1.8,5.3h-2.1l-2.5-7.7h2.2l1.4,4.9l1.7-4.9H377.3z"/>
		<path class="st2" d="M383.5,237.7c0-0.4,0.1-0.7,0.4-0.9c0.3-0.3,0.6-0.4,0.9-0.4c0.4,0,0.7,0.1,0.9,0.4c0.2,0.2,0.4,0.6,0.4,0.9
			c0,0.3-0.1,0.6-0.4,0.9s-0.6,0.4-0.9,0.4c-0.4,0-0.7-0.1-0.9-0.4S383.5,238,383.5,237.7z M383.8,247.9v-7.7h2.1v7.7H383.8z"/>
		<path class="st2" d="M390.2,247.9h-2.1v-7.7h2v1c0.2-0.4,0.6-0.7,1-0.9c0.4-0.2,0.8-0.3,1.2-0.3c0.5,0,0.9,0.1,1.2,0.2
			s0.6,0.4,0.9,0.6c0.2,0.3,0.4,0.6,0.5,1c0.1,0.4,0.2,0.8,0.2,1.2v4.9H393v-4.5c0-0.4-0.1-0.8-0.3-1.1c-0.2-0.3-0.6-0.4-1.1-0.4
			c-0.5,0-0.8,0.2-1.1,0.5c-0.3,0.3-0.4,0.7-0.4,1.1L390.2,247.9L390.2,247.9z"/>
		<path class="st2" d="M398.6,247.8c0.1,0.4,0.3,0.8,0.6,1s0.7,0.4,1.2,0.4c0.7,0,1.2-0.2,1.5-0.5c0.4-0.3,0.5-0.9,0.5-1.6v-0.6
			c-0.2,0.3-0.4,0.5-0.8,0.7c-0.4,0.2-0.8,0.3-1.4,0.3c-0.5,0-1-0.1-1.4-0.3c-0.4-0.2-0.8-0.4-1.1-0.8s-0.6-0.7-0.8-1.2
			c-0.2-0.5-0.3-1-0.3-1.5c0-0.5,0.1-1,0.3-1.4s0.4-0.9,0.7-1.2c0.3-0.3,0.7-0.6,1.1-0.8s0.9-0.3,1.5-0.3c0.6,0,1.1,0.1,1.5,0.3
			c0.4,0.2,0.6,0.5,0.7,0.7v-0.9h2v6.9c0,0.5-0.1,1-0.2,1.5c-0.2,0.5-0.4,0.9-0.7,1.3c-0.3,0.4-0.7,0.7-1.3,0.9s-1.1,0.3-1.8,0.3
			c-0.5,0-1-0.1-1.4-0.2s-0.8-0.4-1.1-0.6c-0.3-0.3-0.6-0.6-0.8-0.9c-0.2-0.3-0.3-0.7-0.4-1.1L398.6,247.8z M400.6,245.8
			c0.5,0,1-0.2,1.3-0.5c0.3-0.4,0.5-0.8,0.5-1.4c0-0.6-0.2-1.1-0.5-1.4s-0.8-0.5-1.3-0.5c-0.3,0-0.5,0-0.7,0.1s-0.4,0.2-0.6,0.4
			c-0.2,0.2-0.3,0.4-0.4,0.6s-0.1,0.5-0.1,0.8c0,0.6,0.2,1.1,0.5,1.4S400.1,245.8,400.6,245.8z"/>
		<path class="st2" d="M410.4,247.9v-11.3h2.1v11.3H410.4z"/>
		<path class="st2" d="M414.5,237.7c0-0.4,0.1-0.7,0.4-0.9c0.2-0.3,0.6-0.4,0.9-0.4c0.4,0,0.7,0.1,0.9,0.4c0.2,0.2,0.4,0.6,0.4,0.9
			c0,0.3-0.1,0.6-0.4,0.9c-0.2,0.3-0.6,0.4-0.9,0.4c-0.4,0-0.7-0.1-0.9-0.4C414.6,238.3,414.5,238,414.5,237.7z M414.7,247.9v-7.7
			h2.1v7.7H414.7z"/>
		<path class="st2" d="M421.1,247.9h-2.1v-7.7h2v1c0.2-0.4,0.6-0.7,1-0.9s0.8-0.3,1.2-0.3c0.5,0,0.9,0.1,1.2,0.2s0.6,0.4,0.9,0.6
			c0.2,0.3,0.4,0.6,0.5,1c0.1,0.4,0.2,0.8,0.2,1.2v4.9H424v-4.5c0-0.4-0.1-0.8-0.3-1.1c-0.2-0.3-0.6-0.4-1.1-0.4
			c-0.5,0-0.8,0.2-1.1,0.5c-0.2,0.3-0.4,0.7-0.4,1.1L421.1,247.9L421.1,247.9z"/>
		<path class="st2" d="M432.6,243.5l3.1,4.5h-2.6l-2-2.9l-0.9,0.9v2h-2.1v-11.3h2.1v6.5l2.7-2.9h2.7L432.6,243.5z"/>
		<path class="st2" d="M444.3,241.9c-0.3,0-0.5,0-0.8,0.1s-0.4,0.2-0.6,0.4s-0.3,0.4-0.4,0.7c-0.1,0.3-0.2,0.6-0.2,0.9
			c0,0.3,0.1,0.7,0.2,0.9c0.1,0.3,0.2,0.5,0.4,0.7c0.2,0.2,0.4,0.3,0.6,0.4s0.5,0.1,0.8,0.1c0.3,0,0.5,0,0.7-0.1
			c0.2-0.1,0.4-0.2,0.5-0.3c0.1-0.1,0.3-0.3,0.4-0.4c0.1-0.2,0.2-0.3,0.2-0.5l1.8,0.6c-0.1,0.3-0.2,0.6-0.4,0.9
			c-0.2,0.3-0.4,0.6-0.7,0.8s-0.7,0.4-1.1,0.6c-0.4,0.2-0.9,0.2-1.4,0.2c-0.6,0-1.1-0.1-1.6-0.3c-0.5-0.2-0.9-0.5-1.3-0.9
			s-0.7-0.8-0.9-1.3s-0.3-1-0.3-1.6c0-0.6,0.1-1.1,0.3-1.6c0.2-0.5,0.5-0.9,0.8-1.3c0.4-0.4,0.8-0.6,1.3-0.8c0.5-0.2,1-0.3,1.6-0.3
			c0.5,0,1,0.1,1.4,0.2c0.4,0.2,0.8,0.3,1.1,0.6s0.5,0.5,0.7,0.8c0.2,0.3,0.3,0.6,0.4,1l-1.9,0.6c-0.1-0.3-0.3-0.6-0.5-0.9
			C445.2,242,444.8,241.9,444.3,241.9z"/>
		<path class="st2" d="M448.9,245.8c0-0.3,0.1-0.6,0.2-0.9c0.1-0.3,0.3-0.5,0.5-0.7s0.5-0.4,0.7-0.5c0.3-0.1,0.6-0.2,0.9-0.3
			l1.9-0.3c0.2,0,0.4-0.1,0.5-0.2s0.1-0.2,0.1-0.4c0-0.3-0.1-0.5-0.3-0.7c-0.2-0.2-0.5-0.3-1-0.3c-0.5,0-0.8,0.1-1.1,0.4
			c-0.2,0.2-0.4,0.5-0.4,0.9l-1.8-0.4c0-0.3,0.1-0.6,0.3-0.9c0.2-0.3,0.4-0.6,0.6-0.8s0.6-0.4,1-0.6s0.9-0.2,1.4-0.2
			c0.6,0,1.1,0.1,1.6,0.2c0.4,0.2,0.8,0.4,1,0.6c0.3,0.3,0.5,0.6,0.6,0.9c0.1,0.4,0.2,0.7,0.2,1.1v3.8c0,0.2,0,0.4,0,0.7
			c0,0.2,0,0.4,0.1,0.6h-1.9c0-0.1,0-0.2-0.1-0.4s0-0.3,0-0.5c-0.2,0.3-0.5,0.6-0.9,0.8c-0.4,0.2-0.8,0.3-1.4,0.3
			c-0.4,0-0.8-0.1-1.1-0.2c-0.3-0.1-0.6-0.3-0.8-0.5c-0.2-0.2-0.4-0.5-0.5-0.7C449,246.4,448.9,246.1,448.9,245.8z M452,246.6
			c0.2,0,0.4,0,0.6-0.1s0.4-0.2,0.5-0.3s0.3-0.3,0.4-0.5s0.1-0.5,0.1-0.9v-0.3l-1.7,0.3c-0.3,0-0.5,0.1-0.7,0.3
			c-0.2,0.2-0.3,0.4-0.3,0.7c0,0.2,0.1,0.4,0.3,0.6C451.4,246.5,451.7,246.6,452,246.6z"/>
		<path class="st2" d="M459.9,247.9h-2.1v-7.7h2v1c0.2-0.4,0.6-0.7,1-0.9c0.4-0.2,0.8-0.3,1.2-0.3c0.5,0,0.9,0.1,1.2,0.2
			s0.6,0.4,0.9,0.6c0.2,0.3,0.4,0.6,0.5,1c0.1,0.4,0.2,0.8,0.2,1.2v4.9h-2.1v-4.5c0-0.4-0.1-0.8-0.3-1.1c-0.2-0.3-0.6-0.4-1.1-0.4
			c-0.5,0-0.8,0.2-1.1,0.5c-0.3,0.3-0.4,0.7-0.4,1.1L459.9,247.9L459.9,247.9z"/>
		<path class="st2" d="M470.9,247.9v-11.3h2.1v4.5c0.2-0.3,0.5-0.5,0.9-0.7c0.4-0.2,0.9-0.3,1.5-0.3c0.6,0,1.1,0.1,1.5,0.3
			c0.4,0.2,0.8,0.5,1.1,0.8c0.3,0.4,0.5,0.8,0.7,1.3c0.2,0.5,0.2,1,0.2,1.6c0,0.6-0.1,1.1-0.3,1.6s-0.4,0.9-0.7,1.3
			s-0.7,0.6-1.1,0.9c-0.4,0.2-0.9,0.3-1.5,0.3c-0.5,0-1-0.1-1.4-0.3c-0.4-0.2-0.7-0.5-0.9-0.8v0.9L470.9,247.9L470.9,247.9z
			 M476.7,244.1c0-0.7-0.2-1.2-0.6-1.6c-0.4-0.4-0.8-0.6-1.4-0.6c-0.3,0-0.5,0-0.7,0.1c-0.2,0.1-0.4,0.2-0.6,0.4
			c-0.2,0.2-0.3,0.4-0.4,0.7c-0.1,0.3-0.2,0.6-0.2,0.9c0,0.3,0.1,0.7,0.2,0.9c0.1,0.3,0.2,0.5,0.4,0.7c0.2,0.2,0.4,0.3,0.6,0.4
			s0.5,0.1,0.7,0.1c0.5,0,1-0.2,1.4-0.6C476.5,245.3,476.7,244.8,476.7,244.1z"/>
		<path class="st2" d="M487.3,245.7c-0.1,0.3-0.2,0.6-0.4,0.9s-0.5,0.6-0.7,0.8s-0.6,0.4-1,0.5c-0.4,0.1-0.8,0.2-1.3,0.2
			c-0.5,0-1-0.1-1.5-0.3c-0.5-0.2-0.9-0.5-1.3-0.8c-0.4-0.4-0.7-0.8-0.9-1.3c-0.2-0.5-0.3-1.1-0.3-1.7c0-0.6,0.1-1.2,0.3-1.7
			c0.2-0.5,0.5-0.9,0.8-1.3s0.8-0.6,1.2-0.8c0.5-0.2,0.9-0.3,1.4-0.3c1.2,0,2.1,0.4,2.8,1.1s1,1.7,1,2.9c0,0.1,0,0.3,0,0.4
			c0,0.1,0,0.2,0,0.2h-5.5c0,0.2,0.1,0.5,0.2,0.7s0.3,0.4,0.4,0.6s0.4,0.3,0.6,0.4c0.2,0.1,0.5,0.1,0.7,0.1c0.5,0,0.9-0.1,1.2-0.3
			c0.3-0.2,0.5-0.5,0.6-0.8L487.3,245.7z M485.4,243.2c0-0.2,0-0.4-0.1-0.6s-0.2-0.3-0.3-0.5c-0.1-0.1-0.3-0.3-0.5-0.3
			c-0.2-0.1-0.5-0.1-0.8-0.1c-0.3,0-0.5,0-0.7,0.1s-0.4,0.2-0.5,0.4s-0.3,0.3-0.3,0.5s-0.1,0.4-0.1,0.5L485.4,243.2L485.4,243.2z"/>
		<path class="st2" d="M498,247.9c0-0.1,0-0.2,0-0.4c0-0.2,0-0.3,0-0.5c-0.2,0.4-0.5,0.6-0.9,0.8s-0.8,0.2-1.2,0.2
			c-0.5,0-0.9-0.1-1.2-0.2c-0.4-0.2-0.7-0.4-0.9-0.6c-0.2-0.3-0.4-0.6-0.6-1c-0.1-0.4-0.2-0.8-0.2-1.2v-4.9h2.1v4.4
			c0,0.4,0.1,0.8,0.3,1.1s0.6,0.4,1.1,0.4c0.5,0,0.8-0.1,1.1-0.4c0.2-0.3,0.4-0.6,0.4-1.1v-4.5h2.1v6.3c0,0.3,0,0.6,0,0.8
			s0,0.4,0.1,0.6L498,247.9L498,247.9z"/>
		<path class="st2" d="M503.3,245.4c0,0.3,0.1,0.6,0.4,0.8c0.2,0.2,0.6,0.4,1,0.4c0.3,0,0.6-0.1,0.8-0.2c0.2-0.1,0.2-0.3,0.2-0.5
			c0-0.2-0.1-0.3-0.2-0.5c-0.1-0.1-0.3-0.2-0.6-0.3l-1-0.2c-0.8-0.2-1.3-0.5-1.6-0.9s-0.5-0.9-0.5-1.4c0-0.3,0.1-0.7,0.2-1
			c0.1-0.3,0.3-0.6,0.6-0.8s0.6-0.4,0.9-0.5s0.7-0.2,1.2-0.2c0.5,0,1,0.1,1.4,0.2c0.4,0.2,0.7,0.3,0.9,0.6c0.2,0.2,0.4,0.5,0.5,0.7
			s0.2,0.5,0.2,0.7l-1.7,0.4c0-0.1-0.1-0.2-0.1-0.4s-0.1-0.2-0.2-0.3c-0.1-0.1-0.2-0.2-0.4-0.2c-0.1-0.1-0.3-0.1-0.6-0.1
			c-0.3,0-0.5,0.1-0.7,0.2s-0.3,0.3-0.3,0.5c0,0.2,0.1,0.3,0.2,0.5c0.1,0.1,0.3,0.2,0.5,0.2l1.1,0.2c0.8,0.2,1.3,0.4,1.7,0.9
			c0.4,0.4,0.6,0.9,0.6,1.5c0,0.3-0.1,0.6-0.2,0.9s-0.3,0.6-0.6,0.8c-0.2,0.2-0.6,0.4-0.9,0.6c-0.4,0.1-0.8,0.2-1.3,0.2
			c-0.6,0-1.1-0.1-1.5-0.3s-0.7-0.4-1-0.6s-0.4-0.5-0.6-0.8c-0.1-0.3-0.2-0.5-0.2-0.7L503.3,245.4z"/>
		<path class="st2" d="M516.2,245.7c-0.1,0.3-0.2,0.6-0.4,0.9c-0.2,0.3-0.5,0.6-0.7,0.8c-0.3,0.2-0.6,0.4-1,0.5
			c-0.4,0.1-0.8,0.2-1.3,0.2c-0.5,0-1-0.1-1.5-0.3s-0.9-0.5-1.3-0.8c-0.4-0.4-0.7-0.8-0.9-1.3c-0.2-0.5-0.3-1.1-0.3-1.7
			c0-0.6,0.1-1.2,0.3-1.7c0.2-0.5,0.5-0.9,0.8-1.3s0.8-0.6,1.2-0.8s0.9-0.3,1.4-0.3c1.2,0,2.1,0.4,2.8,1.1s1,1.7,1,2.9
			c0,0.1,0,0.3,0,0.4s0,0.2,0,0.2h-5.5c0,0.2,0.1,0.5,0.2,0.7s0.2,0.4,0.4,0.6c0.2,0.2,0.4,0.3,0.6,0.4c0.2,0.1,0.5,0.1,0.7,0.1
			c0.5,0,0.9-0.1,1.2-0.3c0.3-0.2,0.5-0.5,0.6-0.8L516.2,245.7z M514.3,243.2c0-0.2-0.1-0.4-0.1-0.6c-0.1-0.2-0.2-0.3-0.3-0.5
			s-0.3-0.3-0.5-0.3c-0.2-0.1-0.5-0.1-0.8-0.1c-0.3,0-0.5,0-0.7,0.1s-0.4,0.2-0.5,0.4s-0.3,0.3-0.3,0.5s-0.1,0.4-0.1,0.5
			L514.3,243.2L514.3,243.2z"/>
		<path class="st2" d="M525.3,246.5c0,0.3,0,0.5,0,0.8c0,0.3,0,0.5,0,0.6h-2c0-0.1,0-0.2-0.1-0.4s0-0.3,0-0.5
			c-0.2,0.3-0.5,0.6-0.8,0.8c-0.4,0.2-0.8,0.3-1.3,0.3c-0.6,0-1.1-0.1-1.5-0.3c-0.5-0.2-0.9-0.5-1.2-0.8s-0.6-0.8-0.8-1.3
			s-0.3-1-0.3-1.6c0-0.6,0.1-1.1,0.3-1.6c0.2-0.5,0.4-0.9,0.8-1.3s0.7-0.6,1.2-0.9c0.5-0.2,1-0.3,1.5-0.3c0.3,0,0.6,0,0.9,0.1
			c0.2,0.1,0.5,0.1,0.6,0.2s0.3,0.2,0.4,0.3c0.1,0.1,0.2,0.2,0.2,0.3v-4.4h2.1L525.3,246.5L525.3,246.5z M519.5,244.1
			c0,0.7,0.2,1.2,0.5,1.6c0.4,0.4,0.8,0.6,1.4,0.6c0.5,0,1-0.2,1.3-0.6c0.4-0.4,0.5-0.9,0.5-1.6c0-0.7-0.2-1.2-0.5-1.6
			c-0.4-0.4-0.8-0.6-1.3-0.6c-0.5,0-1,0.2-1.4,0.6S519.5,243.4,519.5,244.1z"/>
		<path class="st2" d="M269.7,259h1.5v1.8h-1.5v3.2c0,0.3,0.1,0.6,0.2,0.7c0.2,0.1,0.4,0.2,0.7,0.2c0.1,0,0.2,0,0.4,0
			c0.1,0,0.2,0,0.3,0v1.7c-0.1,0-0.2,0.1-0.4,0.1s-0.4,0.1-0.7,0.1c-0.8,0-1.3-0.2-1.8-0.6s-0.7-1-0.7-1.8v-3.6h-1.4V259h0.4
			c0.4,0,0.7-0.1,0.9-0.4s0.3-0.5,0.3-0.9v-1.1h1.9L269.7,259L269.7,259z"/>
		<path class="st2" d="M276.4,258.8c0.6,0,1.1,0.1,1.6,0.3c0.5,0.2,0.9,0.5,1.3,0.8c0.4,0.4,0.6,0.8,0.8,1.3c0.2,0.5,0.3,1,0.3,1.6
			c0,0.6-0.1,1.1-0.3,1.6c-0.2,0.5-0.5,0.9-0.8,1.3c-0.4,0.4-0.8,0.6-1.3,0.9c-0.5,0.2-1,0.3-1.6,0.3s-1.1-0.1-1.6-0.3
			c-0.5-0.2-0.9-0.5-1.3-0.9c-0.4-0.4-0.6-0.8-0.8-1.3s-0.3-1-0.3-1.6c0-0.6,0.1-1.1,0.3-1.6c0.2-0.5,0.5-0.9,0.8-1.3
			c0.4-0.4,0.8-0.6,1.3-0.8C275.3,258.9,275.8,258.8,276.4,258.8z M276.4,265.1c0.2,0,0.5,0,0.7-0.1s0.4-0.2,0.6-0.4
			s0.3-0.4,0.4-0.7c0.1-0.3,0.2-0.6,0.2-1c0-0.4-0.1-0.7-0.2-1c-0.1-0.3-0.3-0.5-0.4-0.7s-0.4-0.3-0.6-0.4c-0.2-0.1-0.5-0.1-0.7-0.1
			s-0.5,0-0.7,0.1c-0.2,0.1-0.4,0.2-0.6,0.4s-0.3,0.4-0.4,0.7c-0.1,0.3-0.2,0.6-0.2,1c0,0.4,0.1,0.7,0.2,1c0.1,0.3,0.3,0.5,0.4,0.7
			c0.2,0.2,0.4,0.3,0.6,0.4S276.1,265.1,276.4,265.1z"/>
		<path class="st2" d="M285.5,264.6c0-0.3,0.1-0.6,0.2-0.9c0.1-0.3,0.3-0.5,0.5-0.7c0.2-0.2,0.5-0.4,0.7-0.5
			c0.3-0.1,0.6-0.2,0.9-0.3l1.9-0.3c0.2,0,0.4-0.1,0.5-0.2c0.1-0.1,0.1-0.2,0.1-0.4c0-0.3-0.1-0.5-0.3-0.7s-0.5-0.3-1-0.3
			c-0.5,0-0.8,0.1-1.1,0.4c-0.2,0.2-0.4,0.5-0.4,0.9l-1.8-0.4c0-0.3,0.1-0.6,0.3-0.9s0.4-0.6,0.6-0.8s0.6-0.4,1-0.6s0.9-0.2,1.4-0.2
			c0.6,0,1.1,0.1,1.5,0.2c0.4,0.2,0.8,0.4,1,0.6c0.3,0.3,0.5,0.6,0.6,0.9c0.1,0.4,0.2,0.7,0.2,1.1v3.8c0,0.2,0,0.4,0,0.7
			c0,0.2,0,0.4,0.1,0.6h-1.9c0-0.1,0-0.2-0.1-0.4s0-0.3,0-0.5c-0.2,0.3-0.5,0.6-0.9,0.8s-0.8,0.3-1.4,0.3c-0.4,0-0.8-0.1-1.1-0.2
			c-0.3-0.1-0.6-0.3-0.8-0.5s-0.4-0.5-0.5-0.7C285.5,265.2,285.5,264.9,285.5,264.6z M288.5,265.4c0.2,0,0.4,0,0.6-0.1
			s0.4-0.2,0.5-0.3s0.3-0.3,0.4-0.5s0.1-0.5,0.1-0.9v-0.3l-1.7,0.3c-0.3,0-0.5,0.1-0.7,0.3c-0.2,0.2-0.3,0.4-0.3,0.7
			c0,0.2,0.1,0.4,0.2,0.6C288,265.3,288.2,265.4,288.5,265.4z"/>
		<path class="st2" d="M299.3,266.7c0-0.1,0-0.2,0-0.4c0-0.2,0-0.3,0-0.5c-0.2,0.4-0.5,0.6-0.9,0.8s-0.8,0.2-1.2,0.2
			c-0.5,0-0.9-0.1-1.2-0.2c-0.4-0.2-0.7-0.4-0.9-0.6c-0.2-0.3-0.4-0.6-0.6-1c-0.1-0.4-0.2-0.8-0.2-1.2V259h2.1v4.4
			c0,0.4,0.1,0.8,0.3,1.1c0.2,0.3,0.6,0.4,1.1,0.4c0.5,0,0.8-0.1,1.1-0.4c0.2-0.3,0.4-0.6,0.4-1.1V259h2.1v6.3c0,0.3,0,0.6,0,0.8
			c0,0.2,0,0.4,0.1,0.6L299.3,266.7L299.3,266.7z"/>
		<path class="st2" d="M306,259h1.5v1.8H306v3.2c0,0.3,0.1,0.6,0.2,0.7c0.2,0.1,0.4,0.2,0.7,0.2c0.1,0,0.2,0,0.4,0
			c0.1,0,0.2,0,0.3,0v1.7c-0.1,0-0.2,0.1-0.4,0.1s-0.4,0.1-0.7,0.1c-0.8,0-1.3-0.2-1.8-0.6s-0.7-1-0.7-1.8v-3.6h-1.4V259h0.4
			c0.4,0,0.7-0.1,0.9-0.4s0.3-0.5,0.3-0.9v-1.1h1.9L306,259L306,259z"/>
		<path class="st2" d="M312.7,258.8c0.6,0,1.1,0.1,1.6,0.3c0.5,0.2,0.9,0.5,1.3,0.8c0.4,0.4,0.6,0.8,0.8,1.3c0.2,0.5,0.3,1,0.3,1.6
			c0,0.6-0.1,1.1-0.3,1.6c-0.2,0.5-0.5,0.9-0.8,1.3c-0.4,0.4-0.8,0.6-1.3,0.9c-0.5,0.2-1,0.3-1.6,0.3s-1.1-0.1-1.6-0.3
			c-0.5-0.2-0.9-0.5-1.3-0.9c-0.4-0.4-0.6-0.8-0.8-1.3s-0.3-1-0.3-1.6c0-0.6,0.1-1.1,0.3-1.6c0.2-0.5,0.5-0.9,0.8-1.3
			c0.4-0.4,0.8-0.6,1.3-0.8C311.6,258.9,312.1,258.8,312.7,258.8z M312.7,265.1c0.2,0,0.5,0,0.7-0.1s0.4-0.2,0.6-0.4
			s0.3-0.4,0.4-0.7c0.1-0.3,0.2-0.6,0.2-1c0-0.4-0.1-0.7-0.2-1c-0.1-0.3-0.3-0.5-0.4-0.7s-0.4-0.3-0.6-0.4c-0.2-0.1-0.5-0.1-0.7-0.1
			s-0.5,0-0.7,0.1c-0.2,0.1-0.4,0.2-0.6,0.4s-0.3,0.4-0.4,0.7c-0.1,0.3-0.2,0.6-0.2,1c0,0.4,0.1,0.7,0.2,1c0.1,0.3,0.3,0.5,0.4,0.7
			c0.2,0.2,0.4,0.3,0.6,0.4S312.5,265.1,312.7,265.1z"/>
		<path class="st2" d="M318.4,266.7V259h2v0.9c0.1-0.2,0.2-0.4,0.4-0.5c0.2-0.1,0.4-0.3,0.6-0.4s0.4-0.2,0.6-0.2
			c0.2-0.1,0.4-0.1,0.6-0.1c0.5,0,1,0.1,1.4,0.3c0.4,0.2,0.7,0.5,0.9,1c0.3-0.5,0.7-0.8,1.1-1s0.9-0.3,1.4-0.3c0.4,0,0.7,0.1,1,0.2
			c0.3,0.1,0.6,0.3,0.9,0.5c0.3,0.2,0.5,0.5,0.6,0.9c0.2,0.4,0.2,0.8,0.2,1.3v5h-2v-4.6c0-0.4-0.1-0.8-0.3-1c-0.2-0.3-0.6-0.4-1-0.4
			c-0.4,0-0.8,0.1-1,0.4c-0.2,0.3-0.4,0.7-0.4,1.1v4.5h-2.1v-4.6c0-0.4-0.1-0.8-0.3-1c-0.2-0.3-0.6-0.4-1-0.4
			c-0.5,0-0.8,0.1-1.1,0.4c-0.2,0.3-0.4,0.7-0.4,1.1v4.5L318.4,266.7L318.4,266.7z"/>
		<path class="st2" d="M331.8,264.6c0-0.3,0.1-0.6,0.2-0.9c0.1-0.3,0.3-0.5,0.5-0.7c0.2-0.2,0.5-0.4,0.7-0.5
			c0.3-0.1,0.6-0.2,0.9-0.3l1.9-0.3c0.2,0,0.4-0.1,0.5-0.2c0.1-0.1,0.1-0.2,0.1-0.4c0-0.3-0.1-0.5-0.3-0.7s-0.5-0.3-1-0.3
			c-0.5,0-0.8,0.1-1.1,0.4c-0.2,0.2-0.4,0.5-0.4,0.9l-1.8-0.4c0-0.3,0.1-0.6,0.3-0.9s0.4-0.6,0.6-0.8s0.6-0.4,1-0.6s0.9-0.2,1.4-0.2
			c0.6,0,1.1,0.1,1.5,0.2c0.4,0.2,0.8,0.4,1,0.6c0.3,0.3,0.5,0.6,0.6,0.9c0.1,0.4,0.2,0.7,0.2,1.1v3.8c0,0.2,0,0.4,0,0.7
			c0,0.2,0,0.4,0.1,0.6h-1.9c0-0.1,0-0.2-0.1-0.4s0-0.3,0-0.5c-0.2,0.3-0.5,0.6-0.9,0.8s-0.8,0.3-1.4,0.3c-0.4,0-0.8-0.1-1.1-0.2
			c-0.3-0.1-0.6-0.3-0.8-0.5s-0.4-0.5-0.5-0.7C331.9,265.2,331.8,264.9,331.8,264.6z M334.9,265.4c0.2,0,0.4,0,0.6-0.1
			s0.4-0.2,0.5-0.3s0.3-0.3,0.4-0.5s0.1-0.5,0.1-0.9v-0.3l-1.7,0.3c-0.3,0-0.5,0.1-0.7,0.3c-0.2,0.2-0.3,0.4-0.3,0.7
			c0,0.2,0.1,0.4,0.2,0.6C334.3,265.3,334.6,265.4,334.9,265.4z"/>
		<path class="st2" d="M343.2,259h1.5v1.8h-1.5v3.2c0,0.3,0.1,0.6,0.2,0.7c0.2,0.1,0.4,0.2,0.7,0.2c0.1,0,0.2,0,0.4,0
			c0.1,0,0.2,0,0.3,0v1.7c-0.1,0-0.2,0.1-0.4,0.1s-0.4,0.1-0.7,0.1c-0.8,0-1.3-0.2-1.8-0.6s-0.7-1-0.7-1.8v-3.6h-1.4V259h0.4
			c0.4,0,0.7-0.1,0.9-0.4s0.3-0.5,0.3-0.9v-1.1h1.9L343.2,259L343.2,259z"/>
		<path class="st2" d="M346.3,256.5c0-0.4,0.1-0.7,0.4-0.9c0.2-0.3,0.6-0.4,0.9-0.4c0.4,0,0.7,0.1,0.9,0.4c0.2,0.2,0.4,0.6,0.4,0.9
			c0,0.3-0.1,0.6-0.4,0.9c-0.2,0.3-0.6,0.4-0.9,0.4c-0.4,0-0.7-0.1-0.9-0.4C346.4,257.1,346.3,256.8,346.3,256.5z M346.6,266.7V259
			h2.1v7.7H346.6z"/>
		<path class="st2" d="M354.3,260.7c-0.3,0-0.5,0-0.8,0.1s-0.4,0.2-0.6,0.4c-0.2,0.2-0.3,0.4-0.4,0.7c-0.1,0.3-0.2,0.6-0.2,0.9
			c0,0.3,0.1,0.7,0.2,0.9c0.1,0.3,0.2,0.5,0.4,0.7s0.4,0.3,0.6,0.4s0.5,0.1,0.8,0.1c0.3,0,0.5,0,0.7-0.1s0.4-0.2,0.5-0.3
			c0.1-0.1,0.3-0.3,0.4-0.4c0.1-0.2,0.2-0.3,0.2-0.5l1.8,0.6c-0.1,0.3-0.2,0.6-0.4,0.9c-0.2,0.3-0.4,0.6-0.7,0.8
			c-0.3,0.2-0.7,0.4-1.1,0.6s-0.9,0.2-1.4,0.2c-0.6,0-1.1-0.1-1.6-0.3c-0.5-0.2-0.9-0.5-1.3-0.9c-0.4-0.4-0.7-0.8-0.9-1.3
			c-0.2-0.5-0.3-1-0.3-1.6c0-0.6,0.1-1.1,0.3-1.6c0.2-0.5,0.5-0.9,0.8-1.3c0.4-0.4,0.8-0.6,1.3-0.8c0.5-0.2,1-0.3,1.6-0.3
			c0.5,0,1,0.1,1.4,0.2c0.4,0.2,0.8,0.3,1.1,0.6c0.3,0.2,0.5,0.5,0.7,0.8s0.3,0.6,0.4,1L356,262c-0.1-0.3-0.3-0.6-0.5-0.9
			C355.2,260.8,354.8,260.7,354.3,260.7z"/>
		<path class="st2" d="M359,264.6c0-0.3,0.1-0.6,0.2-0.9c0.1-0.3,0.3-0.5,0.5-0.7c0.2-0.2,0.5-0.4,0.7-0.5c0.3-0.1,0.6-0.2,0.9-0.3
			l1.9-0.3c0.2,0,0.4-0.1,0.5-0.2c0.1-0.1,0.1-0.2,0.1-0.4c0-0.3-0.1-0.5-0.3-0.7s-0.5-0.3-1-0.3c-0.5,0-0.8,0.1-1.1,0.4
			c-0.2,0.2-0.4,0.5-0.4,0.9l-1.8-0.4c0-0.3,0.1-0.6,0.3-0.9s0.4-0.6,0.6-0.8s0.6-0.4,1-0.6s0.9-0.2,1.4-0.2c0.6,0,1.1,0.1,1.5,0.2
			c0.4,0.2,0.8,0.4,1,0.6c0.3,0.3,0.5,0.6,0.6,0.9c0.1,0.4,0.2,0.7,0.2,1.1v3.8c0,0.2,0,0.4,0,0.7c0,0.2,0,0.4,0.1,0.6H364
			c0-0.1,0-0.2-0.1-0.4s0-0.3,0-0.5c-0.2,0.3-0.5,0.6-0.9,0.8s-0.8,0.3-1.4,0.3c-0.4,0-0.8-0.1-1.1-0.2c-0.3-0.1-0.6-0.3-0.8-0.5
			s-0.4-0.5-0.5-0.7C359,265.2,359,264.9,359,264.6z M362.1,265.4c0.2,0,0.4,0,0.6-0.1s0.4-0.2,0.5-0.3s0.3-0.3,0.4-0.5
			s0.1-0.5,0.1-0.9v-0.3l-1.7,0.3c-0.3,0-0.5,0.1-0.7,0.3c-0.2,0.2-0.3,0.4-0.3,0.7c0,0.2,0.1,0.4,0.2,0.6
			C361.5,265.3,361.7,265.4,362.1,265.4z"/>
		<path class="st2" d="M367.9,266.7v-11.3h2.1v11.3H367.9z"/>
		<path class="st2" d="M372.2,266.7v-11.3h2.1v11.3H372.2z"/>
		<path class="st2" d="M376.9,269.8l1.8-4l-3.3-6.7h2.3l2.1,4.5l1.9-4.5h2.2l-4.8,10.7H376.9z"/>
		<path class="st2" d="M389.1,266.7v-11.3h2.1v11.3H389.1z"/>
		<path class="st2" d="M396.9,258.8c0.6,0,1.1,0.1,1.6,0.3c0.5,0.2,0.9,0.5,1.3,0.8c0.4,0.4,0.6,0.8,0.8,1.3c0.2,0.5,0.3,1,0.3,1.6
			c0,0.6-0.1,1.1-0.3,1.6s-0.5,0.9-0.8,1.3c-0.4,0.4-0.8,0.6-1.3,0.9c-0.5,0.2-1,0.3-1.6,0.3c-0.6,0-1.1-0.1-1.6-0.3
			c-0.5-0.2-0.9-0.5-1.3-0.9s-0.6-0.8-0.8-1.3s-0.3-1-0.3-1.6c0-0.6,0.1-1.1,0.3-1.6c0.2-0.5,0.5-0.9,0.8-1.3s0.8-0.6,1.3-0.8
			C395.8,258.9,396.3,258.8,396.9,258.8z M396.9,265.1c0.2,0,0.5,0,0.7-0.1s0.4-0.2,0.6-0.4s0.3-0.4,0.4-0.7c0.1-0.3,0.2-0.6,0.2-1
			c0-0.4-0.1-0.7-0.2-1c-0.1-0.3-0.3-0.5-0.4-0.7s-0.4-0.3-0.6-0.4c-0.2-0.1-0.5-0.1-0.7-0.1c-0.3,0-0.5,0-0.7,0.1
			c-0.2,0.1-0.4,0.2-0.6,0.4s-0.3,0.4-0.4,0.7c-0.1,0.3-0.2,0.6-0.2,1c0,0.4,0.1,0.7,0.2,1c0.1,0.3,0.3,0.5,0.4,0.7s0.4,0.3,0.6,0.4
			S396.6,265.1,396.9,265.1z"/>
		<path class="st2" d="M403.9,266.6c0.1,0.4,0.3,0.8,0.6,1c0.3,0.3,0.7,0.4,1.2,0.4c0.7,0,1.2-0.2,1.5-0.5c0.4-0.3,0.5-0.9,0.5-1.6
			v-0.6c-0.2,0.3-0.4,0.5-0.8,0.7c-0.4,0.2-0.8,0.3-1.4,0.3c-0.5,0-1-0.1-1.4-0.3c-0.4-0.2-0.8-0.4-1.1-0.8s-0.6-0.7-0.8-1.2
			c-0.2-0.5-0.3-1-0.3-1.5c0-0.5,0.1-1,0.3-1.4c0.2-0.5,0.4-0.9,0.7-1.2s0.7-0.6,1.1-0.8c0.4-0.2,0.9-0.3,1.5-0.3
			c0.6,0,1.1,0.1,1.5,0.3c0.4,0.2,0.6,0.5,0.7,0.7V259h2v6.9c0,0.5-0.1,1-0.2,1.5c-0.2,0.5-0.4,0.9-0.7,1.3
			c-0.3,0.4-0.7,0.7-1.3,0.9c-0.5,0.2-1.1,0.3-1.8,0.3c-0.5,0-1-0.1-1.4-0.2s-0.8-0.4-1.1-0.6c-0.3-0.3-0.6-0.6-0.8-0.9
			c-0.2-0.3-0.3-0.7-0.4-1.1L403.9,266.6z M406,264.6c0.5,0,1-0.2,1.3-0.5c0.3-0.4,0.5-0.8,0.5-1.4c0-0.6-0.2-1.1-0.5-1.4
			c-0.4-0.4-0.8-0.5-1.3-0.5c-0.3,0-0.5,0-0.7,0.1s-0.4,0.2-0.6,0.4c-0.2,0.2-0.3,0.4-0.4,0.6s-0.1,0.5-0.1,0.8
			c0,0.6,0.2,1.1,0.5,1.4C405,264.4,405.4,264.6,406,264.6z"/>
		<path class="st2" d="M415.5,256.5c0-0.4,0.1-0.7,0.4-0.9c0.2-0.3,0.6-0.4,0.9-0.4c0.4,0,0.7,0.1,0.9,0.4c0.2,0.2,0.4,0.6,0.4,0.9
			c0,0.3-0.1,0.6-0.4,0.9c-0.2,0.3-0.6,0.4-0.9,0.4c-0.4,0-0.7-0.1-0.9-0.4C415.7,257.1,415.5,256.8,415.5,256.5z M415.8,266.7V259
			h2.1v7.7H415.8z"/>
		<path class="st2" d="M422.2,266.7h-2.1V259h2v1c0.2-0.4,0.6-0.7,1-0.9c0.4-0.2,0.8-0.3,1.2-0.3c0.5,0,0.9,0.1,1.2,0.2
			s0.6,0.4,0.9,0.6c0.2,0.3,0.4,0.6,0.5,1c0.1,0.4,0.2,0.8,0.2,1.2v4.9h-2.1v-4.5c0-0.4-0.1-0.8-0.3-1.1c-0.2-0.3-0.6-0.4-1.1-0.4
			c-0.5,0-0.8,0.2-1.1,0.5c-0.2,0.3-0.4,0.7-0.4,1.1L422.2,266.7L422.2,266.7z"/>
		<path class="st2" d="M435.7,259h1.6v1.8h-1.6v3.2c0,0.3,0.1,0.6,0.2,0.7c0.1,0.1,0.4,0.2,0.7,0.2c0.1,0,0.3,0,0.4,0
			c0.1,0,0.2,0,0.3,0v1.7c-0.1,0-0.2,0.1-0.4,0.1c-0.2,0-0.4,0.1-0.7,0.1c-0.8,0-1.3-0.2-1.8-0.6c-0.4-0.4-0.7-1-0.7-1.8v-3.6h-1.4
			V259h0.4c0.4,0,0.7-0.1,0.9-0.4s0.3-0.5,0.3-0.9v-1.1h1.9L435.7,259L435.7,259z"/>
		<path class="st2" d="M442.4,258.8c0.6,0,1.1,0.1,1.6,0.3c0.5,0.2,0.9,0.5,1.3,0.8c0.4,0.4,0.6,0.8,0.8,1.3c0.2,0.5,0.3,1,0.3,1.6
			c0,0.6-0.1,1.1-0.3,1.6c-0.2,0.5-0.5,0.9-0.8,1.3c-0.4,0.4-0.8,0.6-1.3,0.9c-0.5,0.2-1,0.3-1.6,0.3s-1.1-0.1-1.6-0.3
			c-0.5-0.2-0.9-0.5-1.3-0.9c-0.4-0.4-0.6-0.8-0.8-1.3s-0.3-1-0.3-1.6c0-0.6,0.1-1.1,0.3-1.6c0.2-0.5,0.5-0.9,0.8-1.3
			c0.4-0.4,0.8-0.6,1.3-0.8C441.3,258.9,441.8,258.8,442.4,258.8z M442.4,265.1c0.3,0,0.5,0,0.7-0.1s0.4-0.2,0.6-0.4
			s0.3-0.4,0.4-0.7c0.1-0.3,0.2-0.6,0.2-1c0-0.4-0.1-0.7-0.2-1c-0.1-0.3-0.3-0.5-0.4-0.7s-0.4-0.3-0.6-0.4c-0.2-0.1-0.5-0.1-0.7-0.1
			c-0.2,0-0.5,0-0.7,0.1c-0.2,0.1-0.4,0.2-0.6,0.4s-0.3,0.4-0.4,0.7c-0.1,0.3-0.2,0.6-0.2,1c0,0.4,0.1,0.7,0.2,1
			c0.1,0.3,0.3,0.5,0.4,0.7s0.4,0.3,0.6,0.4C441.9,265,442.1,265.1,442.4,265.1z"/>
		<path class="st2" d="M452.4,269.8l1.8-4l-3.3-6.7h2.3l2.1,4.5l1.9-4.5h2.2l-4.8,10.7H452.4z"/>
		<path class="st2" d="M463.8,258.8c0.6,0,1.1,0.1,1.6,0.3c0.5,0.2,0.9,0.5,1.3,0.8c0.4,0.4,0.6,0.8,0.8,1.3c0.2,0.5,0.3,1,0.3,1.6
			c0,0.6-0.1,1.1-0.3,1.6s-0.5,0.9-0.8,1.3c-0.4,0.4-0.8,0.6-1.3,0.9c-0.5,0.2-1,0.3-1.6,0.3s-1.1-0.1-1.6-0.3
			c-0.5-0.2-0.9-0.5-1.3-0.9c-0.4-0.4-0.6-0.8-0.8-1.3c-0.2-0.5-0.3-1-0.3-1.6c0-0.6,0.1-1.1,0.3-1.6c0.2-0.5,0.5-0.9,0.8-1.3
			c0.4-0.4,0.8-0.6,1.3-0.8C462.7,258.9,463.2,258.8,463.8,258.8z M463.8,265.1c0.2,0,0.5,0,0.7-0.1s0.4-0.2,0.6-0.4
			s0.3-0.4,0.4-0.7c0.1-0.3,0.2-0.6,0.2-1c0-0.4-0.1-0.7-0.2-1s-0.3-0.5-0.4-0.7s-0.4-0.3-0.6-0.4c-0.2-0.1-0.5-0.1-0.7-0.1
			s-0.5,0-0.7,0.1c-0.2,0.1-0.4,0.2-0.6,0.4s-0.3,0.4-0.4,0.7s-0.2,0.6-0.2,1c0,0.4,0.1,0.7,0.2,1c0.1,0.3,0.3,0.5,0.4,0.7
			s0.4,0.3,0.6,0.4S463.6,265.1,463.8,265.1z"/>
		<path class="st2" d="M474.5,266.7c0-0.1,0-0.2,0-0.4c0-0.2,0-0.3,0-0.5c-0.2,0.4-0.5,0.6-0.9,0.8c-0.4,0.2-0.8,0.2-1.2,0.2
			c-0.5,0-0.9-0.1-1.2-0.2c-0.4-0.2-0.7-0.4-0.9-0.6c-0.3-0.3-0.4-0.6-0.6-1c-0.1-0.4-0.2-0.8-0.2-1.2V259h2.1v4.4
			c0,0.4,0.1,0.8,0.3,1.1s0.6,0.4,1.1,0.4c0.5,0,0.8-0.1,1.1-0.4c0.2-0.3,0.4-0.6,0.4-1.1V259h2.1v6.3c0,0.3,0,0.6,0,0.8
			s0,0.4,0.1,0.6L474.5,266.7L474.5,266.7z"/>
		<path class="st2" d="M483.3,261.1c-0.2,0-0.4-0.1-0.6-0.1c-0.3,0-0.5,0-0.8,0.1c-0.2,0.1-0.4,0.2-0.6,0.4
			c-0.2,0.2-0.3,0.4-0.4,0.7s-0.2,0.6-0.2,1v3.5h-2.1V259h2v1.1c0.1-0.2,0.3-0.5,0.4-0.6c0.2-0.2,0.4-0.3,0.6-0.4
			c0.2-0.1,0.4-0.1,0.6-0.2c0.2,0,0.4,0,0.6,0c0.1,0,0.2,0,0.2,0c0.1,0,0.2,0,0.2,0L483.3,261.1L483.3,261.1z"/>
		<path class="st2" d="M501.2,255.6h2.2l-3.1,11.1h-2.2l-2.5-7.9l-2.5,7.9h-2.3l-3.1-11.1h2.3l2,7.6l2.5-7.6h2.2l2.5,7.7
			L501.2,255.6z"/>
		<path class="st2" d="M507.6,258.8c0.6,0,1.1,0.1,1.6,0.3c0.5,0.2,0.9,0.5,1.3,0.8c0.4,0.4,0.6,0.8,0.8,1.3c0.2,0.5,0.3,1,0.3,1.6
			c0,0.6-0.1,1.1-0.3,1.6s-0.5,0.9-0.8,1.3c-0.4,0.4-0.8,0.6-1.3,0.9c-0.5,0.2-1,0.3-1.6,0.3s-1.1-0.1-1.6-0.3
			c-0.5-0.2-0.9-0.5-1.3-0.9c-0.4-0.4-0.6-0.8-0.8-1.3c-0.2-0.5-0.3-1-0.3-1.6c0-0.6,0.1-1.1,0.3-1.6c0.2-0.5,0.5-0.9,0.8-1.3
			c0.4-0.4,0.8-0.6,1.3-0.8C506.5,258.9,507,258.8,507.6,258.8z M507.6,265.1c0.2,0,0.5,0,0.7-0.1s0.4-0.2,0.6-0.4s0.3-0.4,0.4-0.7
			c0.1-0.3,0.2-0.6,0.2-1c0-0.4-0.1-0.7-0.2-1s-0.3-0.5-0.4-0.7s-0.4-0.3-0.6-0.4c-0.2-0.1-0.5-0.1-0.7-0.1s-0.5,0-0.7,0.1
			c-0.2,0.1-0.4,0.2-0.6,0.4s-0.3,0.4-0.4,0.7s-0.2,0.6-0.2,1c0,0.4,0.1,0.7,0.2,1c0.1,0.3,0.3,0.5,0.4,0.7s0.4,0.3,0.6,0.4
			S507.3,265.1,507.6,265.1z"/>
		<path class="st2" d="M518,261.1c-0.2,0-0.4-0.1-0.6-0.1c-0.3,0-0.5,0-0.8,0.1c-0.2,0.1-0.4,0.2-0.6,0.4c-0.2,0.2-0.3,0.4-0.4,0.7
			s-0.2,0.6-0.2,1v3.5h-2.1V259h2v1.1c0.1-0.2,0.3-0.5,0.4-0.6c0.2-0.2,0.4-0.3,0.6-0.4c0.2-0.1,0.4-0.1,0.6-0.2c0.2,0,0.4,0,0.6,0
			c0.1,0,0.2,0,0.2,0c0.1,0,0.2,0,0.2,0L518,261.1L518,261.1z"/>
		<path class="st2" d="M526.7,265.3c0,0.3,0,0.5,0,0.8c0,0.3,0,0.5,0,0.6h-2c0-0.1,0-0.2-0.1-0.4s0-0.3,0-0.5
			c-0.2,0.3-0.5,0.6-0.8,0.8c-0.4,0.2-0.8,0.3-1.3,0.3c-0.6,0-1.1-0.1-1.5-0.3c-0.5-0.2-0.9-0.5-1.2-0.8c-0.3-0.4-0.6-0.8-0.8-1.3
			c-0.2-0.5-0.3-1-0.3-1.6c0-0.6,0.1-1.1,0.3-1.6c0.2-0.5,0.4-0.9,0.8-1.3c0.3-0.4,0.7-0.6,1.2-0.9c0.5-0.2,1-0.3,1.5-0.3
			c0.3,0,0.6,0,0.9,0.1c0.2,0.1,0.5,0.1,0.6,0.2s0.3,0.2,0.4,0.3c0.1,0.1,0.2,0.2,0.2,0.3v-4.4h2.1L526.7,265.3L526.7,265.3z
			 M520.9,262.8c0,0.7,0.2,1.2,0.5,1.6c0.4,0.4,0.8,0.6,1.4,0.6c0.5,0,1-0.2,1.3-0.6c0.4-0.4,0.5-0.9,0.5-1.6c0-0.7-0.2-1.2-0.5-1.6
			c-0.4-0.4-0.8-0.6-1.3-0.6c-0.5,0-1,0.2-1.4,0.6C521.1,261.6,520.9,262.2,520.9,262.8z"/>
		<path class="st2" d="M529,269.7V259h2v0.9c0.2-0.3,0.5-0.6,0.9-0.8c0.4-0.2,0.9-0.3,1.5-0.3c0.6,0,1.1,0.1,1.5,0.3
			c0.4,0.2,0.8,0.5,1.1,0.8c0.3,0.4,0.5,0.8,0.7,1.3s0.2,1,0.2,1.6c0,0.6-0.1,1.1-0.3,1.6c-0.2,0.5-0.4,0.9-0.7,1.3
			s-0.7,0.6-1.2,0.8c-0.4,0.2-0.9,0.3-1.5,0.3c-0.5,0-1-0.1-1.4-0.3s-0.7-0.4-0.9-0.7v3.7L529,269.7L529,269.7z M534.8,262.9
			c0-0.7-0.2-1.2-0.6-1.6s-0.8-0.6-1.4-0.6c-0.3,0-0.5,0-0.8,0.1c-0.2,0.1-0.4,0.2-0.6,0.4s-0.3,0.4-0.4,0.7
			c-0.1,0.3-0.1,0.6-0.1,0.9c0,0.3,0.1,0.6,0.1,0.9c0.1,0.3,0.2,0.5,0.4,0.7c0.2,0.2,0.4,0.3,0.6,0.4c0.2,0.1,0.5,0.1,0.8,0.1
			c0.5,0,1-0.2,1.4-0.6S534.8,263.5,534.8,262.9z"/>
		<path class="st2" d="M543.2,261.1c-0.2,0-0.4-0.1-0.6-0.1c-0.3,0-0.5,0-0.8,0.1c-0.2,0.1-0.4,0.2-0.6,0.4
			c-0.2,0.2-0.3,0.4-0.4,0.7s-0.2,0.6-0.2,1v3.5h-2.1V259h2v1.1c0.1-0.2,0.3-0.5,0.4-0.6c0.2-0.2,0.4-0.3,0.6-0.4
			c0.2-0.1,0.4-0.1,0.6-0.2c0.2,0,0.4,0,0.6,0c0.1,0,0.2,0,0.2,0c0.1,0,0.2,0,0.2,0L543.2,261.1L543.2,261.1z"/>
		<path class="st2" d="M551.5,264.5c-0.1,0.3-0.2,0.6-0.4,0.9s-0.5,0.6-0.7,0.8s-0.6,0.4-1,0.5c-0.4,0.1-0.8,0.2-1.3,0.2
			c-0.5,0-1-0.1-1.5-0.3c-0.5-0.2-0.9-0.5-1.3-0.8c-0.4-0.4-0.7-0.8-0.9-1.3c-0.2-0.5-0.3-1.1-0.3-1.7c0-0.6,0.1-1.2,0.3-1.7
			c0.2-0.5,0.5-0.9,0.8-1.3s0.8-0.6,1.2-0.8c0.5-0.2,0.9-0.3,1.4-0.3c1.2,0,2.1,0.4,2.8,1.1s1,1.7,1,2.9c0,0.1,0,0.3,0,0.4
			c0,0.1,0,0.2,0,0.2h-5.5c0,0.2,0.1,0.5,0.2,0.7s0.3,0.4,0.4,0.6s0.4,0.3,0.6,0.4c0.2,0.1,0.5,0.1,0.7,0.1c0.5,0,0.9-0.1,1.2-0.3
			c0.3-0.2,0.5-0.5,0.6-0.8L551.5,264.5z M549.6,262c0-0.2,0-0.4-0.1-0.6s-0.2-0.3-0.3-0.5c-0.1-0.1-0.3-0.3-0.5-0.3
			c-0.2-0.1-0.5-0.1-0.8-0.1c-0.3,0-0.5,0-0.7,0.1s-0.4,0.2-0.5,0.4s-0.3,0.3-0.3,0.5s-0.1,0.4-0.1,0.5L549.6,262L549.6,262z"/>
		<path class="st2" d="M554.4,264.2c0,0.3,0.1,0.6,0.4,0.8c0.2,0.2,0.6,0.4,1,0.4c0.3,0,0.6-0.1,0.8-0.2c0.2-0.1,0.2-0.3,0.2-0.5
			c0-0.2-0.1-0.3-0.2-0.5c-0.1-0.1-0.3-0.2-0.6-0.3l-1-0.2c-0.8-0.2-1.3-0.5-1.6-0.9s-0.5-0.9-0.5-1.4c0-0.3,0.1-0.7,0.2-1
			c0.1-0.3,0.3-0.6,0.6-0.8s0.6-0.4,0.9-0.5s0.7-0.2,1.2-0.2c0.5,0,1,0.1,1.4,0.2c0.4,0.2,0.7,0.3,0.9,0.6c0.2,0.2,0.4,0.5,0.5,0.7
			s0.2,0.5,0.2,0.7l-1.7,0.4c0-0.1-0.1-0.2-0.1-0.4s-0.1-0.2-0.2-0.3c-0.1-0.1-0.2-0.2-0.4-0.2c-0.2-0.1-0.3-0.1-0.6-0.1
			c-0.3,0-0.5,0.1-0.7,0.2s-0.3,0.3-0.3,0.5c0,0.2,0.1,0.3,0.2,0.5c0.1,0.1,0.3,0.2,0.5,0.2l1.1,0.2c0.8,0.2,1.3,0.4,1.7,0.9
			c0.4,0.4,0.6,0.9,0.6,1.5c0,0.3-0.1,0.6-0.2,0.9s-0.3,0.6-0.6,0.8c-0.2,0.2-0.6,0.4-0.9,0.6c-0.4,0.1-0.8,0.2-1.3,0.2
			c-0.6,0-1.1-0.1-1.5-0.3s-0.7-0.4-1-0.6s-0.4-0.5-0.6-0.8c-0.1-0.3-0.2-0.5-0.2-0.7L554.4,264.2z"/>
		<path class="st2" d="M561.6,264.2c0,0.3,0.1,0.6,0.4,0.8c0.2,0.2,0.6,0.4,1,0.4c0.3,0,0.6-0.1,0.8-0.2c0.2-0.1,0.2-0.3,0.2-0.5
			c0-0.2-0.1-0.3-0.2-0.5c-0.1-0.1-0.3-0.2-0.6-0.3l-1-0.2c-0.8-0.2-1.3-0.5-1.6-0.9s-0.5-0.9-0.5-1.4c0-0.3,0.1-0.7,0.2-1
			c0.1-0.3,0.3-0.6,0.6-0.8s0.6-0.4,0.9-0.5s0.7-0.2,1.2-0.2c0.5,0,1,0.1,1.4,0.2c0.4,0.2,0.7,0.3,0.9,0.6c0.2,0.2,0.4,0.5,0.5,0.7
			s0.2,0.5,0.2,0.7l-1.7,0.4c0-0.1-0.1-0.2-0.1-0.4s-0.1-0.2-0.2-0.3c-0.1-0.1-0.2-0.2-0.4-0.2c-0.2-0.1-0.3-0.1-0.6-0.1
			c-0.3,0-0.5,0.1-0.7,0.2s-0.3,0.3-0.3,0.5c0,0.2,0.1,0.3,0.2,0.5c0.1,0.1,0.3,0.2,0.5,0.2l1.1,0.2c0.8,0.2,1.3,0.4,1.7,0.9
			c0.4,0.4,0.6,0.9,0.6,1.5c0,0.3-0.1,0.6-0.2,0.9s-0.3,0.6-0.6,0.8c-0.2,0.2-0.6,0.4-0.9,0.6c-0.4,0.1-0.8,0.2-1.3,0.2
			c-0.6,0-1.1-0.1-1.5-0.3s-0.7-0.4-1-0.6s-0.4-0.5-0.6-0.8c-0.1-0.3-0.2-0.5-0.2-0.7L561.6,264.2z"/>
		<path class="st2" d="M295.8,283c0,0.3,0.1,0.6,0.4,0.8c0.2,0.2,0.6,0.4,1,0.4c0.3,0,0.6-0.1,0.8-0.2c0.2-0.1,0.2-0.3,0.2-0.5
			c0-0.2-0.1-0.3-0.2-0.5c-0.1-0.1-0.3-0.2-0.6-0.3l-1-0.2c-0.8-0.2-1.3-0.5-1.6-0.9c-0.3-0.4-0.5-0.9-0.5-1.4c0-0.3,0.1-0.7,0.2-1
			c0.1-0.3,0.3-0.6,0.6-0.8c0.3-0.2,0.6-0.4,0.9-0.5c0.4-0.1,0.7-0.2,1.2-0.2c0.5,0,1,0.1,1.4,0.2s0.7,0.3,0.9,0.6s0.4,0.5,0.5,0.7
			s0.2,0.5,0.2,0.7l-1.7,0.4c0-0.1-0.1-0.2-0.1-0.4s-0.1-0.2-0.2-0.3c-0.1-0.1-0.2-0.2-0.4-0.2c-0.2-0.1-0.3-0.1-0.6-0.1
			c-0.3,0-0.5,0.1-0.7,0.2s-0.3,0.3-0.3,0.5c0,0.2,0.1,0.3,0.2,0.5c0.1,0.1,0.3,0.2,0.5,0.2l1.1,0.2c0.8,0.2,1.3,0.4,1.7,0.9
			c0.4,0.4,0.6,0.9,0.6,1.5c0,0.3-0.1,0.6-0.2,0.9s-0.3,0.6-0.6,0.8s-0.6,0.4-0.9,0.6c-0.4,0.1-0.8,0.2-1.3,0.2
			c-0.6,0-1.1-0.1-1.5-0.3c-0.4-0.2-0.7-0.4-1-0.6s-0.4-0.5-0.6-0.8s-0.2-0.5-0.2-0.7L295.8,283z"/>
		<path class="st2" d="M301.6,275.3c0-0.4,0.1-0.7,0.4-0.9c0.2-0.3,0.6-0.4,0.9-0.4c0.4,0,0.7,0.1,0.9,0.4c0.2,0.2,0.4,0.6,0.4,0.9
			c0,0.3-0.1,0.6-0.4,0.9c-0.2,0.3-0.6,0.4-0.9,0.4c-0.4,0-0.7-0.1-0.9-0.4C301.7,275.9,301.6,275.6,301.6,275.3z M301.9,285.5v-7.7
			h2.1v7.7H301.9z"/>
		<path class="st2" d="M308.7,277.8h1.5v1.8h-1.5v3.2c0,0.3,0.1,0.6,0.2,0.7c0.2,0.1,0.4,0.2,0.7,0.2c0.1,0,0.2,0,0.4,0
			c0.1,0,0.2,0,0.3,0v1.7c-0.1,0-0.2,0.1-0.4,0.1s-0.4,0.1-0.7,0.1c-0.8,0-1.3-0.2-1.8-0.6s-0.7-1-0.7-1.8v-3.6h-1.4v-1.8h0.4
			c0.4,0,0.7-0.1,0.9-0.4s0.3-0.5,0.3-0.9v-1.1h1.9L308.7,277.8L308.7,277.8z"/>
		<path class="st2" d="M318.9,283.3c-0.1,0.3-0.2,0.6-0.4,0.9s-0.5,0.6-0.7,0.8s-0.6,0.4-1,0.5c-0.4,0.1-0.8,0.2-1.3,0.2
			c-0.5,0-1-0.1-1.5-0.3c-0.5-0.2-0.9-0.5-1.3-0.8c-0.4-0.4-0.7-0.8-0.9-1.3c-0.2-0.5-0.3-1.1-0.3-1.7c0-0.6,0.1-1.2,0.3-1.7
			c0.2-0.5,0.5-0.9,0.8-1.3c0.4-0.4,0.8-0.6,1.2-0.8s0.9-0.3,1.4-0.3c1.2,0,2.1,0.4,2.8,1.1s1,1.7,1,2.9c0,0.1,0,0.3,0,0.4
			s0,0.2,0,0.2h-5.5c0,0.2,0.1,0.5,0.2,0.7c0.1,0.2,0.3,0.4,0.4,0.6s0.4,0.3,0.6,0.4c0.2,0.1,0.5,0.1,0.7,0.1c0.5,0,0.9-0.1,1.2-0.3
			c0.3-0.2,0.5-0.5,0.6-0.8L318.9,283.3z M316.9,280.8c0-0.2,0-0.4-0.1-0.6s-0.2-0.3-0.3-0.5c-0.1-0.1-0.3-0.3-0.5-0.3
			c-0.2-0.1-0.5-0.1-0.8-0.1c-0.3,0-0.5,0-0.7,0.1s-0.4,0.2-0.5,0.4c-0.1,0.1-0.3,0.3-0.3,0.5c-0.1,0.2-0.1,0.4-0.1,0.5L316.9,280.8
			L316.9,280.8z"/>
		<path class="st2" d="M320.3,284.3c0-0.4,0.1-0.7,0.4-0.9s0.6-0.4,1-0.4c0.5,0,0.9,0.2,1.1,0.5c0.3,0.3,0.4,0.8,0.4,1.3
			c0,0.6-0.1,1.1-0.3,1.5c-0.2,0.4-0.4,0.8-0.7,1s-0.6,0.5-0.9,0.6s-0.6,0.2-0.9,0.3v-1c0.2,0,0.4-0.1,0.5-0.2
			c0.2-0.1,0.3-0.2,0.5-0.4c0.1-0.1,0.3-0.3,0.3-0.5c0.1-0.2,0.1-0.4,0.1-0.6c-0.1,0.1-0.2,0.1-0.4,0.1c-0.4,0-0.7-0.1-0.9-0.4
			C320.4,284.9,320.3,284.6,320.3,284.3z"/>
		<path class="st2" d="M329.2,285.5v-11.3h2.1v4.5c0.2-0.3,0.5-0.5,0.9-0.7s0.9-0.3,1.5-0.3c0.6,0,1.1,0.1,1.5,0.3
			c0.4,0.2,0.8,0.5,1.1,0.8c0.3,0.4,0.5,0.8,0.7,1.3c0.2,0.5,0.2,1,0.2,1.6c0,0.6-0.1,1.1-0.3,1.6s-0.4,0.9-0.7,1.3
			s-0.7,0.6-1.2,0.9c-0.4,0.2-0.9,0.3-1.5,0.3c-0.5,0-1-0.1-1.4-0.3c-0.4-0.2-0.7-0.5-0.9-0.8v0.9L329.2,285.5L329.2,285.5z
			 M335,281.6c0-0.7-0.2-1.2-0.6-1.6c-0.4-0.4-0.8-0.6-1.4-0.6c-0.3,0-0.5,0-0.7,0.1c-0.2,0.1-0.4,0.2-0.6,0.4s-0.3,0.4-0.4,0.7
			c-0.1,0.3-0.2,0.6-0.2,0.9c0,0.3,0.1,0.7,0.2,0.9c0.1,0.3,0.2,0.5,0.4,0.7s0.4,0.3,0.6,0.4s0.5,0.1,0.7,0.1c0.5,0,1-0.2,1.4-0.6
			S335,282.3,335,281.6z"/>
		<path class="st2" d="M345.7,283.3c-0.1,0.3-0.2,0.6-0.4,0.9s-0.5,0.6-0.7,0.8s-0.6,0.4-1,0.5c-0.4,0.1-0.8,0.2-1.3,0.2
			c-0.5,0-1-0.1-1.5-0.3c-0.5-0.2-0.9-0.5-1.3-0.8c-0.4-0.4-0.7-0.8-0.9-1.3c-0.2-0.5-0.3-1.1-0.3-1.7c0-0.6,0.1-1.2,0.3-1.7
			c0.2-0.5,0.5-0.9,0.8-1.3c0.4-0.4,0.8-0.6,1.2-0.8s0.9-0.3,1.4-0.3c1.2,0,2.1,0.4,2.8,1.1s1,1.7,1,2.9c0,0.1,0,0.3,0,0.4
			s0,0.2,0,0.2h-5.5c0,0.2,0.1,0.5,0.2,0.7c0.1,0.2,0.3,0.4,0.4,0.6s0.4,0.3,0.6,0.4c0.2,0.1,0.5,0.1,0.7,0.1c0.5,0,0.9-0.1,1.2-0.3
			c0.3-0.2,0.5-0.5,0.6-0.8L345.7,283.3z M343.7,280.8c0-0.2,0-0.4-0.1-0.6s-0.2-0.3-0.3-0.5c-0.1-0.1-0.3-0.3-0.5-0.3
			c-0.2-0.1-0.5-0.1-0.8-0.1c-0.3,0-0.5,0-0.7,0.1s-0.4,0.2-0.5,0.4c-0.1,0.1-0.3,0.3-0.3,0.5c-0.1,0.2-0.1,0.4-0.1,0.5L343.7,280.8
			L343.7,280.8z"/>
		<path class="st2" d="M354.8,279.5c-0.3,0-0.5,0-0.8,0.1s-0.4,0.2-0.6,0.4c-0.2,0.2-0.3,0.4-0.4,0.7c-0.1,0.3-0.2,0.6-0.2,0.9
			c0,0.3,0.1,0.7,0.2,0.9c0.1,0.3,0.2,0.5,0.4,0.7s0.4,0.3,0.6,0.4s0.5,0.1,0.8,0.1c0.3,0,0.5,0,0.7-0.1s0.4-0.2,0.5-0.3
			c0.1-0.1,0.3-0.3,0.4-0.4c0.1-0.2,0.2-0.3,0.2-0.5l1.8,0.6c-0.1,0.3-0.2,0.6-0.4,0.9c-0.2,0.3-0.4,0.6-0.7,0.8
			c-0.3,0.2-0.7,0.4-1.1,0.6s-0.9,0.2-1.4,0.2c-0.6,0-1.1-0.1-1.6-0.3c-0.5-0.2-0.9-0.5-1.3-0.9c-0.4-0.4-0.7-0.8-0.9-1.3
			c-0.2-0.5-0.3-1-0.3-1.6c0-0.6,0.1-1.1,0.3-1.6c0.2-0.5,0.5-0.9,0.8-1.3c0.4-0.4,0.8-0.6,1.3-0.8c0.5-0.2,1-0.3,1.6-0.3
			c0.5,0,1,0.1,1.4,0.2c0.4,0.2,0.8,0.3,1.1,0.6c0.3,0.2,0.5,0.5,0.7,0.8s0.3,0.6,0.4,1l-1.9,0.6c-0.1-0.3-0.3-0.6-0.5-0.9
			C355.7,279.6,355.3,279.5,354.8,279.5z"/>
		<path class="st2" d="M359.4,283.4c0-0.3,0.1-0.6,0.2-0.9c0.1-0.3,0.3-0.5,0.5-0.7c0.2-0.2,0.5-0.4,0.7-0.5
			c0.3-0.1,0.6-0.2,0.9-0.3l1.9-0.3c0.2,0,0.4-0.1,0.5-0.2c0.1-0.1,0.1-0.2,0.1-0.4c0-0.3-0.1-0.5-0.3-0.7s-0.5-0.3-1-0.3
			c-0.5,0-0.8,0.1-1.1,0.4c-0.2,0.2-0.4,0.5-0.4,0.9l-1.8-0.4c0-0.3,0.1-0.6,0.3-0.9s0.4-0.6,0.6-0.8s0.6-0.4,1-0.6s0.9-0.2,1.4-0.2
			c0.6,0,1.1,0.1,1.5,0.2c0.4,0.2,0.8,0.4,1,0.6c0.3,0.3,0.5,0.6,0.6,0.9c0.1,0.4,0.2,0.7,0.2,1.1v3.8c0,0.2,0,0.4,0,0.7
			c0,0.2,0,0.4,0.1,0.6h-1.9c0-0.1,0-0.2-0.1-0.4s0-0.3,0-0.5c-0.2,0.3-0.5,0.6-0.9,0.8s-0.8,0.3-1.4,0.3c-0.4,0-0.8-0.1-1.1-0.2
			c-0.3-0.1-0.6-0.3-0.8-0.5s-0.4-0.5-0.5-0.7C359.5,284,359.4,283.7,359.4,283.4z M362.5,284.2c0.2,0,0.4,0,0.6-0.1
			s0.4-0.2,0.5-0.3s0.3-0.3,0.4-0.5s0.1-0.5,0.1-0.9V282l-1.7,0.3c-0.3,0-0.5,0.1-0.7,0.3c-0.2,0.2-0.3,0.4-0.3,0.7
			c0,0.2,0.1,0.4,0.2,0.6C361.9,284.1,362.2,284.2,362.5,284.2z"/>
		<path class="st2" d="M373,279.9c-0.2,0-0.4-0.1-0.6-0.1c-0.3,0-0.5,0-0.8,0.1c-0.2,0.1-0.4,0.2-0.6,0.4c-0.2,0.2-0.3,0.4-0.4,0.7
			c-0.1,0.3-0.2,0.6-0.2,1v3.5h-2.1v-7.7h2v1.1c0.1-0.2,0.3-0.5,0.4-0.6s0.4-0.3,0.6-0.4c0.2-0.1,0.4-0.1,0.6-0.2s0.4,0,0.6,0
			c0.1,0,0.2,0,0.2,0c0.1,0,0.2,0,0.2,0L373,279.9L373,279.9z"/>
		<path class="st2" d="M381.3,283.3c-0.1,0.3-0.2,0.6-0.4,0.9c-0.2,0.3-0.5,0.6-0.7,0.8c-0.3,0.2-0.6,0.4-1,0.5
			c-0.4,0.1-0.8,0.2-1.3,0.2c-0.5,0-1-0.1-1.5-0.3c-0.5-0.2-0.9-0.5-1.3-0.8c-0.4-0.4-0.7-0.8-0.9-1.3c-0.2-0.5-0.3-1.1-0.3-1.7
			c0-0.6,0.1-1.2,0.3-1.7c0.2-0.5,0.5-0.9,0.8-1.3s0.8-0.6,1.2-0.8s0.9-0.3,1.4-0.3c1.2,0,2.1,0.4,2.8,1.1s1,1.7,1,2.9
			c0,0.1,0,0.3,0,0.4s0,0.2,0,0.2h-5.5c0,0.2,0.1,0.5,0.2,0.7c0.1,0.2,0.3,0.4,0.4,0.6s0.4,0.3,0.6,0.4c0.2,0.1,0.5,0.1,0.7,0.1
			c0.5,0,0.9-0.1,1.2-0.3c0.3-0.2,0.5-0.5,0.6-0.8L381.3,283.3z M379.4,280.8c0-0.2,0-0.4-0.1-0.6s-0.2-0.3-0.3-0.5
			c-0.1-0.1-0.3-0.3-0.5-0.3c-0.2-0.1-0.5-0.1-0.8-0.1c-0.3,0-0.5,0-0.7,0.1s-0.4,0.2-0.5,0.4c-0.1,0.1-0.3,0.3-0.3,0.5
			c-0.1,0.2-0.1,0.4-0.1,0.5L379.4,280.8L379.4,280.8z"/>
		<path class="st2" d="M386.6,275.9c-0.1,0-0.2,0-0.4,0c-0.1,0-0.2,0.1-0.4,0.2s-0.2,0.2-0.3,0.3s-0.1,0.3-0.1,0.5v0.8h1.7v1.8h-1.7
			v5.9h-2.1v-5.9h-1.3v-1.8h1.3v-0.9c0-0.4,0.1-0.8,0.2-1.2s0.3-0.6,0.6-0.9s0.5-0.4,0.9-0.6s0.7-0.2,1.2-0.2c0.2,0,0.4,0,0.6,0
			s0.3,0.1,0.4,0.1v1.8c-0.1,0-0.1,0-0.2-0.1C387,275.9,386.8,275.9,386.6,275.9z"/>
		<path class="st2" d="M393.7,285.5c0-0.1,0-0.2,0-0.4c0-0.2,0-0.3,0-0.5c-0.2,0.4-0.5,0.6-0.9,0.8c-0.4,0.2-0.8,0.2-1.2,0.2
			c-0.5,0-0.9-0.1-1.2-0.2c-0.4-0.2-0.7-0.4-0.9-0.6c-0.2-0.3-0.4-0.6-0.6-1c-0.1-0.4-0.2-0.8-0.2-1.2v-4.9h2.1v4.4
			c0,0.4,0.1,0.8,0.3,1.1s0.6,0.4,1.1,0.4c0.5,0,0.8-0.1,1.1-0.4c0.3-0.3,0.4-0.6,0.4-1.1v-4.5h2.1v6.3c0,0.3,0,0.6,0,0.8
			s0,0.4,0.1,0.6H393.7z"/>
		<path class="st2" d="M397.8,285.5v-11.3h2.1v11.3H397.8z"/>
		<path class="st2" d="M412.5,277.8l1.7,5l1.4-5h2.1l-2.4,7.7h-2.1l-1.8-5.3l-1.8,5.3h-2.1l-2.5-7.7h2.2l1.4,4.9l1.7-4.9H412.5z"/>
		<path class="st2" d="M421.1,285.5H419v-11.3h2.1v4.3c0.3-0.3,0.6-0.5,1-0.6c0.4-0.1,0.8-0.2,1.1-0.2c0.5,0,0.9,0.1,1.3,0.2
			c0.4,0.2,0.7,0.4,0.9,0.6c0.2,0.3,0.4,0.6,0.5,1c0.1,0.4,0.2,0.8,0.2,1.2v4.9h-2.1V281c0-0.4-0.1-0.8-0.3-1.1
			c-0.2-0.3-0.6-0.4-1.1-0.4c-0.4,0-0.8,0.1-1,0.4c-0.2,0.3-0.4,0.6-0.4,1.1L421.1,285.5L421.1,285.5z"/>
		<path class="st2" d="M431.6,277.6c0.6,0,1.1,0.1,1.6,0.3c0.5,0.2,0.9,0.5,1.3,0.8c0.4,0.4,0.6,0.8,0.8,1.3c0.2,0.5,0.3,1,0.3,1.6
			c0,0.6-0.1,1.1-0.3,1.6s-0.5,0.9-0.8,1.3c-0.4,0.4-0.8,0.6-1.3,0.9c-0.5,0.2-1,0.3-1.6,0.3s-1.1-0.1-1.6-0.3
			c-0.5-0.2-0.9-0.5-1.3-0.9c-0.4-0.4-0.6-0.8-0.8-1.3c-0.2-0.5-0.3-1-0.3-1.6c0-0.6,0.1-1.1,0.3-1.6c0.2-0.5,0.5-0.9,0.8-1.3
			c0.4-0.4,0.8-0.6,1.3-0.8C430.5,277.7,431,277.6,431.6,277.6z M431.6,283.8c0.2,0,0.5,0,0.7-0.1s0.4-0.2,0.6-0.4s0.3-0.4,0.4-0.7
			c0.1-0.3,0.2-0.6,0.2-1c0-0.4-0.1-0.7-0.2-1s-0.3-0.5-0.4-0.7s-0.4-0.3-0.6-0.4c-0.2-0.1-0.5-0.1-0.7-0.1s-0.5,0-0.7,0.1
			c-0.2,0.1-0.4,0.2-0.6,0.4s-0.3,0.4-0.4,0.7s-0.2,0.6-0.2,1c0,0.4,0.1,0.7,0.2,1c0.1,0.3,0.3,0.5,0.4,0.7s0.4,0.3,0.6,0.4
			S431.3,283.8,431.6,283.8z"/>
		<path class="st2" d="M441.6,288.5l1.8-4l-3.3-6.7h2.3l2.1,4.5l1.9-4.5h2.2l-4.8,10.7H441.6z"/>
		<path class="st2" d="M453,277.6c0.6,0,1.1,0.1,1.6,0.3c0.5,0.2,0.9,0.5,1.3,0.8c0.4,0.4,0.6,0.8,0.8,1.3c0.2,0.5,0.3,1,0.3,1.6
			c0,0.6-0.1,1.1-0.3,1.6s-0.5,0.9-0.8,1.3c-0.4,0.4-0.8,0.6-1.3,0.9c-0.5,0.2-1,0.3-1.6,0.3s-1.1-0.1-1.6-0.3
			c-0.5-0.2-0.9-0.5-1.3-0.9c-0.4-0.4-0.6-0.8-0.8-1.3c-0.2-0.5-0.3-1-0.3-1.6c0-0.6,0.1-1.1,0.3-1.6c0.2-0.5,0.5-0.9,0.8-1.3
			c0.4-0.4,0.8-0.6,1.3-0.8C451.9,277.7,452.4,277.6,453,277.6z M453,283.8c0.2,0,0.5,0,0.7-0.1s0.4-0.2,0.6-0.4s0.3-0.4,0.4-0.7
			c0.1-0.3,0.2-0.6,0.2-1c0-0.4-0.1-0.7-0.2-1s-0.3-0.5-0.4-0.7s-0.4-0.3-0.6-0.4c-0.2-0.1-0.5-0.1-0.7-0.1s-0.5,0-0.7,0.1
			c-0.2,0.1-0.4,0.2-0.6,0.4s-0.3,0.4-0.4,0.7s-0.2,0.6-0.2,1c0,0.4,0.1,0.7,0.2,1c0.1,0.3,0.3,0.5,0.4,0.7s0.4,0.3,0.6,0.4
			S452.8,283.8,453,283.8z"/>
		<path class="st2" d="M463.7,285.5c0-0.1,0-0.2,0-0.4c0-0.2,0-0.3,0-0.5c-0.2,0.4-0.5,0.6-0.9,0.8s-0.8,0.2-1.2,0.2
			c-0.5,0-0.9-0.1-1.2-0.2c-0.4-0.2-0.7-0.4-0.9-0.6c-0.2-0.3-0.4-0.6-0.6-1c-0.1-0.4-0.2-0.8-0.2-1.2v-4.9h2.1v4.4
			c0,0.4,0.1,0.8,0.3,1.1s0.6,0.4,1.1,0.4c0.5,0,0.8-0.1,1.1-0.4c0.2-0.3,0.4-0.6,0.4-1.1v-4.5h2.1v6.3c0,0.3,0,0.6,0,0.8
			s0,0.4,0.1,0.6H463.7z"/>
		<path class="st2" d="M473,285.4c0.1,0.4,0.3,0.8,0.6,1c0.3,0.3,0.7,0.4,1.2,0.4c0.7,0,1.2-0.2,1.5-0.5c0.4-0.3,0.5-0.9,0.5-1.6
			v-0.6c-0.2,0.3-0.4,0.5-0.8,0.7c-0.4,0.2-0.8,0.3-1.4,0.3c-0.5,0-1-0.1-1.4-0.3c-0.4-0.2-0.8-0.4-1.1-0.8
			c-0.3-0.3-0.6-0.7-0.8-1.2c-0.2-0.5-0.3-1-0.3-1.5c0-0.5,0.1-1,0.3-1.4s0.4-0.9,0.7-1.2c0.3-0.3,0.7-0.6,1.1-0.8
			c0.4-0.2,0.9-0.3,1.5-0.3c0.6,0,1.1,0.1,1.5,0.3c0.4,0.2,0.6,0.5,0.7,0.7v-0.9h2v6.9c0,0.5-0.1,1-0.2,1.5
			c-0.2,0.5-0.4,0.9-0.7,1.3c-0.3,0.4-0.7,0.7-1.3,0.9s-1.1,0.3-1.8,0.3c-0.5,0-1-0.1-1.4-0.2s-0.8-0.4-1.1-0.6
			c-0.3-0.3-0.6-0.6-0.8-0.9c-0.2-0.3-0.3-0.7-0.4-1.1L473,285.4z M475.1,283.4c0.5,0,1-0.2,1.3-0.5c0.3-0.4,0.5-0.8,0.5-1.4
			c0-0.6-0.2-1.1-0.5-1.4c-0.4-0.4-0.8-0.5-1.3-0.5c-0.3,0-0.5,0-0.7,0.1s-0.4,0.2-0.6,0.4c-0.2,0.2-0.3,0.4-0.4,0.6
			s-0.1,0.5-0.1,0.8c0,0.6,0.2,1.1,0.5,1.4C474.1,283.2,474.6,283.4,475.1,283.4z"/>
		<path class="st2" d="M480.8,275.3c0-0.4,0.1-0.7,0.4-0.9c0.2-0.3,0.6-0.4,0.9-0.4c0.4,0,0.7,0.1,0.9,0.4c0.2,0.2,0.4,0.6,0.4,0.9
			c0,0.3-0.1,0.6-0.4,0.9c-0.2,0.3-0.6,0.4-0.9,0.4c-0.4,0-0.7-0.1-0.9-0.4C480.9,275.9,480.8,275.6,480.8,275.3z M481.1,285.5v-7.7
			h2.1v7.7H481.1z"/>
		<path class="st2" d="M489.6,285.5h-2.1l-3.1-7.7h2.3l1.9,5.2l1.8-5.2h2.2L489.6,285.5z"/>
		<path class="st2" d="M500.6,283.3c-0.1,0.3-0.2,0.6-0.4,0.9s-0.5,0.6-0.7,0.8s-0.6,0.4-1,0.5c-0.4,0.1-0.8,0.2-1.3,0.2
			c-0.5,0-1-0.1-1.5-0.3c-0.5-0.2-0.9-0.5-1.3-0.8c-0.4-0.4-0.7-0.8-0.9-1.3c-0.2-0.5-0.3-1.1-0.3-1.7c0-0.6,0.1-1.2,0.3-1.7
			c0.2-0.5,0.5-0.9,0.8-1.3s0.8-0.6,1.2-0.8c0.5-0.2,0.9-0.3,1.4-0.3c1.2,0,2.1,0.4,2.8,1.1s1,1.7,1,2.9c0,0.1,0,0.3,0,0.4
			c0,0.1,0,0.2,0,0.2h-5.5c0,0.2,0.1,0.5,0.2,0.7s0.3,0.4,0.4,0.6s0.4,0.3,0.6,0.4c0.2,0.1,0.5,0.1,0.7,0.1c0.5,0,0.9-0.1,1.2-0.3
			c0.3-0.2,0.5-0.5,0.6-0.8L500.6,283.3z M498.6,280.8c0-0.2,0-0.4-0.1-0.6s-0.2-0.3-0.3-0.5c-0.1-0.1-0.3-0.3-0.5-0.3
			c-0.2-0.1-0.5-0.1-0.8-0.1c-0.3,0-0.5,0-0.7,0.1s-0.4,0.2-0.5,0.4s-0.3,0.3-0.3,0.5s-0.1,0.4-0.1,0.5L498.6,280.8L498.6,280.8z"/>
		<path class="st2" d="M505.9,275.3c0-0.4,0.1-0.7,0.4-0.9c0.2-0.3,0.6-0.4,0.9-0.4c0.4,0,0.7,0.1,0.9,0.4c0.2,0.2,0.4,0.6,0.4,0.9
			c0,0.3-0.1,0.6-0.4,0.9c-0.2,0.3-0.6,0.4-0.9,0.4c-0.4,0-0.7-0.1-0.9-0.4C506.1,275.9,505.9,275.6,505.9,275.3z M506.2,285.5v-7.7
			h2.1v7.7H506.2z"/>
		<path class="st2" d="M513.1,277.8h1.6v1.8h-1.6v3.2c0,0.3,0.1,0.6,0.2,0.7c0.2,0.1,0.4,0.2,0.7,0.2c0.1,0,0.3,0,0.4,0
			c0.1,0,0.2,0,0.3,0v1.7c-0.1,0-0.2,0.1-0.4,0.1c-0.2,0-0.4,0.1-0.7,0.1c-0.8,0-1.3-0.2-1.8-0.6c-0.4-0.4-0.7-1-0.7-1.8v-3.6h-1.4
			v-1.8h0.4c0.4,0,0.7-0.1,0.9-0.4s0.3-0.5,0.3-0.9v-1.1h1.9L513.1,277.8L513.1,277.8z"/>
		<path class="st2" d="M522.8,277.8h1.6v1.8h-1.6v3.2c0,0.3,0.1,0.6,0.2,0.7c0.2,0.1,0.4,0.2,0.7,0.2c0.1,0,0.2,0,0.4,0
			c0.1,0,0.2,0,0.3,0v1.7c-0.1,0-0.2,0.1-0.4,0.1s-0.4,0.1-0.7,0.1c-0.8,0-1.3-0.2-1.8-0.6c-0.4-0.4-0.7-1-0.7-1.8v-3.6h-1.4v-1.8
			h0.4c0.4,0,0.7-0.1,0.9-0.4c0.2-0.2,0.3-0.5,0.3-0.9v-1.1h1.9L522.8,277.8L522.8,277.8z"/>
		<path class="st2" d="M529.5,277.6c0.6,0,1.1,0.1,1.6,0.3c0.5,0.2,0.9,0.5,1.3,0.8c0.4,0.4,0.6,0.8,0.8,1.3c0.2,0.5,0.3,1,0.3,1.6
			c0,0.6-0.1,1.1-0.3,1.6c-0.2,0.5-0.5,0.9-0.8,1.3c-0.4,0.4-0.8,0.6-1.3,0.9c-0.5,0.2-1,0.3-1.6,0.3s-1.1-0.1-1.6-0.3
			c-0.5-0.2-0.9-0.5-1.3-0.9c-0.4-0.4-0.6-0.8-0.8-1.3s-0.3-1-0.3-1.6c0-0.6,0.1-1.1,0.3-1.6c0.2-0.5,0.5-0.9,0.8-1.3
			c0.4-0.4,0.8-0.6,1.3-0.8C528.4,277.7,528.9,277.6,529.5,277.6z M529.5,283.8c0.3,0,0.5,0,0.7-0.1s0.4-0.2,0.6-0.4
			s0.3-0.4,0.4-0.7c0.1-0.3,0.2-0.6,0.2-1c0-0.4-0.1-0.7-0.2-1c-0.1-0.3-0.3-0.5-0.4-0.7s-0.4-0.3-0.6-0.4c-0.2-0.1-0.5-0.1-0.7-0.1
			c-0.2,0-0.5,0-0.7,0.1c-0.2,0.1-0.4,0.2-0.6,0.4s-0.3,0.4-0.4,0.7c-0.1,0.3-0.2,0.6-0.2,1c0,0.4,0.1,0.7,0.2,1
			c0.1,0.3,0.3,0.5,0.4,0.7s0.4,0.3,0.6,0.4C529,283.8,529.2,283.8,529.5,283.8z"/>
		<path class="st2" d="M537.2,282.1h-1.5l-0.5-7.7h2.5L537.2,282.1z M535.2,284.4c0-0.3,0.1-0.6,0.4-0.9c0.2-0.2,0.5-0.4,0.9-0.4
			c0.3,0,0.6,0.1,0.9,0.4c0.2,0.2,0.4,0.5,0.4,0.9c0,0.3-0.1,0.6-0.4,0.9c-0.2,0.2-0.5,0.4-0.9,0.4c-0.3,0-0.6-0.1-0.9-0.4
			C535.4,285,535.2,284.7,535.2,284.4z"/>
	</g>
	<g>
		<path class="st2" d="M354.2,388c0.5,0.6,0.8,1.4,0.8,2.4c0,1-0.3,1.8-0.8,2.4s-1.2,0.9-2.1,0.9c-0.8,0-1.5-0.3-2.1-0.9
			s-0.8-1.4-0.8-2.4c0-1,0.3-1.8,0.8-2.4s1.2-0.9,2.1-0.9C353,387.1,353.7,387.4,354.2,388z M353.6,392.3c0.4-0.5,0.6-1.1,0.6-1.8
			s-0.2-1.4-0.6-1.8c-0.4-0.5-0.9-0.7-1.5-0.7c-0.6,0-1.1,0.2-1.5,0.7c-0.4,0.5-0.6,1.1-0.6,1.8s0.2,1.4,0.6,1.8s0.9,0.7,1.5,0.7
			C352.8,393,353.3,392.7,353.6,392.3z"/>
		<path class="st2" d="M358.5,389v0.8c-0.1-0.1-0.3-0.1-0.5-0.1c-0.2,0-0.5,0.1-0.7,0.2c-0.2,0.2-0.3,0.4-0.4,0.6v3.1h-0.8V389h0.8
			v0.6c0.1-0.2,0.3-0.4,0.5-0.5c0.2-0.1,0.4-0.2,0.7-0.2C358.3,388.9,358.4,388.9,358.5,389z"/>
		<path class="st2" d="M362,393.1c-0.4-0.4-0.6-1-0.6-1.7s0.2-1.3,0.6-1.7c0.4-0.4,0.9-0.7,1.5-0.7c0.5,0,0.9,0.1,1.2,0.4
			s0.5,0.6,0.6,1.1h-0.8c-0.1-0.3-0.2-0.4-0.4-0.6c-0.2-0.1-0.4-0.2-0.7-0.2c-0.4,0-0.7,0.2-1,0.5s-0.4,0.7-0.4,1.2s0.1,0.9,0.4,1.2
			s0.6,0.5,1,0.5c0.3,0,0.5-0.1,0.7-0.2c0.2-0.1,0.3-0.3,0.4-0.6h0.8c-0.1,0.5-0.3,0.8-0.6,1.1s-0.7,0.4-1.2,0.4
			C362.9,393.7,362.4,393.5,362,393.1z"/>
		<path class="st2" d="M369.8,389.6c0.4,0.4,0.6,1,0.6,1.7s-0.2,1.3-0.6,1.7c-0.4,0.4-0.9,0.7-1.5,0.7s-1.1-0.2-1.5-0.7
			c-0.4-0.4-0.6-1-0.6-1.7s0.2-1.3,0.6-1.7s0.9-0.7,1.5-0.7S369.4,389.1,369.8,389.6z M369.2,392.6c0.2-0.3,0.4-0.7,0.4-1.2
			c0-0.5-0.1-0.9-0.4-1.2c-0.2-0.3-0.6-0.5-1-0.5s-0.7,0.2-1,0.5c-0.2,0.3-0.4,0.7-0.4,1.2c0,0.5,0.1,0.9,0.4,1.2
			c0.2,0.3,0.6,0.5,1,0.5S369,392.9,369.2,392.6z"/>
		<path class="st2" d="M372.2,393.1v2.3h-0.8V389h0.8v0.5c0.1-0.2,0.3-0.3,0.5-0.5c0.2-0.1,0.5-0.2,0.8-0.2c0.7,0,1.2,0.2,1.5,0.7
			c0.4,0.5,0.6,1,0.6,1.7c0,0.7-0.2,1.3-0.6,1.7c-0.4,0.5-0.9,0.7-1.5,0.7c-0.3,0-0.5-0.1-0.8-0.2
			C372.5,393.4,372.3,393.3,372.2,393.1z M372.2,390.4v1.9c0.1,0.2,0.3,0.4,0.5,0.6c0.2,0.1,0.4,0.2,0.7,0.2c0.4,0,0.8-0.2,1-0.5
			s0.4-0.7,0.4-1.2s-0.1-0.9-0.4-1.2s-0.6-0.5-1-0.5c-0.2,0-0.5,0.1-0.7,0.2C372.5,389.9,372.3,390.1,372.2,390.4z"/>
		<path class="st2" d="M377.9,395.4h-0.8l0.7-1.7l-1.8-4.7h0.8l1.4,3.7l1.3-3.7h0.8L377.9,395.4z"/>
		<path class="st2" d="M383.8,392.5v-2.8h-0.8V389h0.8v-1.2h0.8v1.2h1.1v0.7h-1.1v2.7c0,0.4,0.2,0.6,0.6,0.6c0.2,0,0.4-0.1,0.6-0.2
			v0.7c-0.2,0.1-0.4,0.2-0.7,0.2c-0.4,0-0.7-0.1-0.9-0.3C384,393.2,383.8,392.9,383.8,392.5z"/>
		<path class="st2" d="M386.9,393.6v-6.8h0.8v2.7c0.1-0.2,0.3-0.4,0.6-0.5c0.2-0.1,0.5-0.2,0.8-0.2c0.5,0,0.9,0.2,1.2,0.5
			c0.3,0.3,0.4,0.7,0.4,1.2v3h-0.8v-2.9c0-0.3-0.1-0.6-0.3-0.8s-0.4-0.3-0.8-0.3c-0.3,0-0.5,0.1-0.7,0.2c-0.2,0.2-0.4,0.4-0.4,0.6
			v3.1L386.9,393.6L386.9,393.6z"/>
		<path class="st2" d="M392.8,387.2c0.1,0.1,0.1,0.2,0.1,0.4c0,0.1,0,0.3-0.1,0.4c-0.1,0.1-0.2,0.1-0.4,0.1s-0.3,0-0.4-0.1
			c-0.1-0.1-0.1-0.2-0.1-0.4s0-0.3,0.1-0.4c0.1-0.1,0.2-0.1,0.4-0.1S392.7,387.1,392.8,387.2z M392.8,389v4.6H392V389H392.8z"/>
		<path class="st2" d="M393.8,392.4h0.8c0.1,0.5,0.5,0.7,1.1,0.7c0.3,0,0.5-0.1,0.7-0.2c0.2-0.1,0.3-0.3,0.3-0.5
			c0-0.3-0.2-0.5-0.7-0.6l-0.9-0.2c-0.7-0.2-1.1-0.6-1.1-1.2c0-0.4,0.2-0.7,0.5-1c0.3-0.3,0.7-0.4,1.2-0.4c0.5,0,0.9,0.1,1.2,0.3
			c0.3,0.2,0.5,0.6,0.6,1h-0.8c-0.1-0.4-0.5-0.7-1-0.7c-0.2,0-0.5,0.1-0.6,0.2c-0.2,0.1-0.3,0.3-0.3,0.5c0,0.2,0,0.3,0.2,0.4
			s0.3,0.2,0.5,0.2l0.9,0.2c0.8,0.2,1.2,0.6,1.2,1.3c0,0.4-0.2,0.8-0.5,1c-0.3,0.3-0.7,0.4-1.2,0.4c-0.5,0-0.9-0.1-1.3-0.4
			C394.1,393.1,393.9,392.8,393.8,392.4z"/>
		<path class="st2" d="M404.6,389v4.6h-0.8V393c-0.1,0.2-0.3,0.4-0.6,0.5c-0.2,0.1-0.5,0.2-0.8,0.2c-0.5,0-0.9-0.2-1.2-0.5
			s-0.4-0.7-0.4-1.2v-3h0.8v2.9c0,0.3,0.1,0.6,0.2,0.8c0.2,0.2,0.4,0.3,0.8,0.3c0.3,0,0.5-0.1,0.7-0.2s0.4-0.4,0.4-0.6V389
			L404.6,389L404.6,389z"/>
		<path class="st2" d="M408.3,389v0.8c-0.1-0.1-0.3-0.1-0.5-0.1c-0.2,0-0.5,0.1-0.7,0.2c-0.2,0.2-0.3,0.4-0.4,0.6v3.1h-0.8V389h0.8
			v0.6c0.1-0.2,0.3-0.4,0.5-0.5c0.2-0.1,0.4-0.2,0.7-0.2C408.1,388.9,408.2,388.9,408.3,389z"/>
		<path class="st2" d="M410.1,386.8v6.8h-0.8v-6.8H410.1z"/>
		<path class="st2" d="M414.5,387.2c0.1,0.1,0.2,0.2,0.2,0.4c0,0.1,0,0.3-0.2,0.4c-0.1,0.1-0.2,0.1-0.4,0.1c-0.1,0-0.3,0-0.4-0.1
			c-0.1-0.1-0.1-0.2-0.1-0.4s0-0.3,0.1-0.4c0.1-0.1,0.2-0.1,0.4-0.1C414.3,387.1,414.4,387.1,414.5,387.2z M414.6,389v4.6h-0.8V389
			H414.6z"/>
		<path class="st2" d="M416,393.6V389h0.8v0.6c0.1-0.2,0.3-0.4,0.6-0.5c0.2-0.1,0.5-0.2,0.8-0.2c0.5,0,0.9,0.2,1.2,0.5
			c0.3,0.3,0.4,0.7,0.4,1.2v3h-0.8v-2.9c0-0.3-0.1-0.6-0.3-0.8s-0.4-0.3-0.8-0.3c-0.3,0-0.5,0.1-0.7,0.2c-0.2,0.2-0.4,0.4-0.4,0.6
			v3.1H416z"/>
		<path class="st2" d="M421.3,392.5v-2.8h-0.8V389h0.8v-1.2h0.8v1.2h1.1v0.7h-1.1v2.7c0,0.4,0.2,0.6,0.6,0.6c0.2,0,0.4-0.1,0.6-0.2
			v0.7c-0.2,0.1-0.4,0.2-0.7,0.2c-0.4,0-0.7-0.1-0.9-0.3C421.4,393.2,421.3,392.9,421.3,392.5z"/>
		<path class="st2" d="M427.7,389.6c0.4,0.4,0.6,1,0.6,1.7s-0.2,1.3-0.6,1.7c-0.4,0.4-0.9,0.7-1.5,0.7s-1.1-0.2-1.5-0.7
			c-0.4-0.4-0.6-1-0.6-1.7s0.2-1.3,0.6-1.7c0.4-0.4,0.9-0.7,1.5-0.7S427.3,389.1,427.7,389.6z M427.1,392.6c0.2-0.3,0.4-0.7,0.4-1.2
			c0-0.5-0.1-0.9-0.4-1.2c-0.2-0.3-0.6-0.5-1-0.5s-0.7,0.2-1,0.5c-0.2,0.3-0.4,0.7-0.4,1.2c0,0.5,0.1,0.9,0.4,1.2
			c0.2,0.3,0.6,0.5,1,0.5S426.9,392.9,427.1,392.6z"/>
		<path class="st2" d="M433,395.4h-0.8l0.7-1.7l-1.8-4.7h0.8l1.4,3.7l1.3-3.7h0.8L433,395.4z"/>
		<path class="st2" d="M439.6,389.6c0.4,0.4,0.6,1,0.6,1.7s-0.2,1.3-0.6,1.7c-0.4,0.4-0.9,0.7-1.5,0.7s-1.1-0.2-1.5-0.7
			c-0.4-0.4-0.6-1-0.6-1.7s0.2-1.3,0.6-1.7c0.4-0.4,0.9-0.7,1.5-0.7S439.2,389.1,439.6,389.6z M439.1,392.6c0.2-0.3,0.4-0.7,0.4-1.2
			c0-0.5-0.1-0.9-0.4-1.2c-0.2-0.3-0.6-0.5-1-0.5s-0.7,0.2-1,0.5c-0.2,0.3-0.4,0.7-0.4,1.2c0,0.5,0.1,0.9,0.4,1.2
			c0.2,0.3,0.6,0.5,1,0.5S438.8,392.9,439.1,392.6z"/>
		<path class="st2" d="M445,389v4.6h-0.8V393c-0.1,0.2-0.3,0.4-0.6,0.5c-0.2,0.1-0.5,0.2-0.8,0.2c-0.5,0-0.9-0.2-1.2-0.5
			c-0.3-0.3-0.4-0.7-0.4-1.2v-3h0.8v2.9c0,0.3,0.1,0.6,0.2,0.8c0.2,0.2,0.4,0.3,0.8,0.3c0.3,0,0.5-0.1,0.7-0.2
			c0.2-0.2,0.4-0.4,0.4-0.6V389L445,389L445,389z"/>
		<path class="st2" d="M448.7,389v0.8c-0.1-0.1-0.3-0.1-0.5-0.1c-0.2,0-0.5,0.1-0.7,0.2c-0.2,0.2-0.3,0.4-0.4,0.6v3.1h-0.8V389h0.8
			v0.6c0.1-0.2,0.3-0.4,0.5-0.5c0.2-0.1,0.4-0.2,0.7-0.2C448.5,388.9,448.6,388.9,448.7,389z"/>
		<path class="st2" d="M452.8,393.1v0.5H452v-6.8h0.8v2.7c0.1-0.2,0.3-0.3,0.5-0.5c0.2-0.1,0.5-0.2,0.8-0.2c0.7,0,1.2,0.2,1.5,0.7
			c0.4,0.5,0.6,1,0.6,1.7c0,0.7-0.2,1.3-0.6,1.7c-0.4,0.5-0.9,0.7-1.5,0.7c-0.3,0-0.5-0.1-0.8-0.2
			C453.1,393.4,452.9,393.3,452.8,393.1z M452.8,390.4v1.9c0.1,0.2,0.3,0.4,0.5,0.6c0.2,0.1,0.4,0.2,0.7,0.2c0.4,0,0.8-0.2,1-0.5
			c0.3-0.3,0.4-0.7,0.4-1.2s-0.1-0.9-0.4-1.2c-0.3-0.3-0.6-0.5-1-0.5c-0.2,0-0.5,0.1-0.7,0.2C453.1,389.9,452.9,390.1,452.8,390.4z"
			/>
		<path class="st2" d="M459.6,389v0.8c-0.1-0.1-0.3-0.1-0.5-0.1c-0.2,0-0.5,0.1-0.7,0.2c-0.2,0.2-0.3,0.4-0.4,0.6v3.1h-0.8V389h0.8
			v0.6c0.1-0.2,0.3-0.4,0.5-0.5c0.2-0.1,0.4-0.2,0.7-0.2C459.4,388.9,459.5,388.9,459.6,389z"/>
		<path class="st2" d="M463.8,389.6c0.4,0.4,0.6,1,0.6,1.7s-0.2,1.3-0.6,1.7c-0.4,0.4-0.9,0.7-1.5,0.7c-0.6,0-1.1-0.2-1.5-0.7
			c-0.4-0.4-0.6-1-0.6-1.7s0.2-1.3,0.6-1.7c0.4-0.4,0.9-0.7,1.5-0.7C462.9,388.9,463.4,389.1,463.8,389.6z M463.2,392.6
			c0.2-0.3,0.4-0.7,0.4-1.2c0-0.5-0.1-0.9-0.4-1.2c-0.2-0.3-0.6-0.5-1-0.5c-0.4,0-0.7,0.2-1,0.5c-0.2,0.3-0.4,0.7-0.4,1.2
			c0,0.5,0.1,0.9,0.4,1.2c0.2,0.3,0.6,0.5,1,0.5C462.7,393,463,392.9,463.2,392.6z"/>
		<path class="st2" d="M468.4,389l0.9,3.5l1-3.5h0.8l-1.4,4.6H469l-1-3.5l-1,3.5h-0.8L465,389h0.8l1,3.5l1-3.5H468.4z"/>
		<path class="st2" d="M471.6,392.4h0.8c0.1,0.5,0.5,0.7,1.1,0.7c0.3,0,0.5-0.1,0.7-0.2c0.2-0.1,0.3-0.3,0.3-0.5
			c0-0.3-0.2-0.5-0.7-0.6l-0.9-0.2c-0.7-0.2-1.1-0.6-1.1-1.2c0-0.4,0.2-0.7,0.5-1c0.3-0.3,0.7-0.4,1.2-0.4c0.5,0,0.9,0.1,1.2,0.3
			s0.5,0.6,0.6,1h-0.8c-0.1-0.4-0.5-0.7-1-0.7c-0.2,0-0.5,0.1-0.6,0.2c-0.2,0.1-0.3,0.3-0.3,0.5c0,0.2,0.1,0.3,0.2,0.4
			c0.1,0.1,0.3,0.2,0.5,0.2l0.9,0.2c0.8,0.2,1.2,0.6,1.2,1.3c0,0.4-0.2,0.8-0.5,1c-0.3,0.3-0.7,0.4-1.2,0.4s-0.9-0.1-1.3-0.4
			C471.9,393.1,471.7,392.8,471.6,392.4z"/>
		<path class="st2" d="M479.2,392.2h0.7c-0.1,0.5-0.3,0.8-0.6,1.1c-0.3,0.3-0.7,0.4-1.3,0.4c-0.6,0-1.1-0.2-1.5-0.7
			c-0.4-0.4-0.6-1-0.6-1.7c0-0.7,0.2-1.3,0.6-1.7c0.4-0.5,0.9-0.7,1.5-0.7c0.6,0,1.1,0.2,1.4,0.6c0.3,0.4,0.5,1,0.5,1.7v0.3h-3.3
			c0,0.5,0.1,0.9,0.4,1.2c0.2,0.3,0.6,0.4,1,0.4c0.3,0,0.5-0.1,0.7-0.2C479.1,392.7,479.2,392.5,479.2,392.2z M478.1,389.6
			c-0.3,0-0.6,0.1-0.9,0.3s-0.4,0.5-0.4,1h2.5c0-0.4-0.1-0.7-0.3-0.9C478.8,389.7,478.5,389.6,478.1,389.6z"/>
		<path class="st2" d="M483.5,389v0.8c-0.1-0.1-0.3-0.1-0.5-0.1c-0.2,0-0.5,0.1-0.7,0.2c-0.2,0.2-0.3,0.4-0.4,0.6v3.1h-0.8V389h0.8
			v0.6c0.1-0.2,0.3-0.4,0.5-0.5c0.2-0.1,0.4-0.2,0.7-0.2C483.2,388.9,483.4,388.9,483.5,389z"/>
		<path class="st2" d="M342.7,406.2v-6.8h0.8v2.7c0.1-0.2,0.3-0.4,0.6-0.5c0.2-0.1,0.5-0.2,0.8-0.2c0.5,0,0.9,0.2,1.2,0.5
			c0.3,0.3,0.4,0.7,0.4,1.2v3h-0.8v-2.9c0-0.3-0.1-0.6-0.3-0.8c-0.2-0.2-0.4-0.3-0.8-0.3c-0.3,0-0.5,0.1-0.7,0.2
			c-0.2,0.2-0.4,0.4-0.4,0.6v3.1L342.7,406.2L342.7,406.2z"/>
		<path class="st2" d="M348,405v-2.8h-0.8v-0.7h0.8v-1.2h0.8v1.2h1.1v0.7h-1.1v2.7c0,0.4,0.2,0.6,0.6,0.6c0.2,0,0.4-0.1,0.6-0.2v0.7
			c-0.2,0.1-0.4,0.2-0.7,0.2c-0.4,0-0.7-0.1-0.9-0.3C348.1,405.7,348,405.4,348,405z"/>
		<path class="st2" d="M351.3,405v-2.8h-0.8v-0.7h0.8v-1.2h0.8v1.2h1.1v0.7h-1.1v2.7c0,0.4,0.2,0.6,0.6,0.6c0.2,0,0.4-0.1,0.6-0.2
			v0.7c-0.2,0.1-0.4,0.2-0.7,0.2c-0.4,0-0.7-0.1-0.9-0.3C351.4,405.7,351.3,405.4,351.3,405z"/>
		<path class="st2" d="M355.2,405.6v2.3h-0.8v-6.4h0.8v0.5c0.1-0.2,0.3-0.3,0.5-0.5c0.2-0.1,0.5-0.2,0.8-0.2c0.7,0,1.2,0.2,1.5,0.7
			c0.4,0.5,0.6,1,0.6,1.7c0,0.7-0.2,1.3-0.6,1.7s-0.9,0.7-1.5,0.7c-0.3,0-0.5-0.1-0.8-0.2C355.5,405.9,355.3,405.8,355.2,405.6z
			 M355.2,402.9v1.9c0.1,0.2,0.3,0.4,0.5,0.6s0.4,0.2,0.7,0.2c0.4,0,0.8-0.2,1-0.5s0.4-0.7,0.4-1.2s-0.1-0.9-0.4-1.2s-0.6-0.5-1-0.5
			c-0.2,0-0.5,0.1-0.7,0.2C355.5,402.5,355.3,402.7,355.2,402.9z"/>
		<path class="st2" d="M359.5,402.8c-0.1-0.1-0.2-0.2-0.2-0.4c0-0.2,0.1-0.3,0.2-0.4c0.1-0.1,0.2-0.2,0.4-0.2c0.2,0,0.3,0.1,0.4,0.2
			s0.2,0.2,0.2,0.4c0,0.2-0.1,0.3-0.2,0.4c-0.1,0.1-0.2,0.2-0.4,0.2C359.7,402.9,359.6,402.9,359.5,402.8z M359.5,406
			c-0.1-0.1-0.2-0.2-0.2-0.4s0.1-0.3,0.2-0.4c0.1-0.1,0.2-0.2,0.4-0.2c0.2,0,0.3,0.1,0.4,0.2s0.2,0.2,0.2,0.4s-0.1,0.3-0.2,0.4
			c-0.1,0.1-0.2,0.2-0.4,0.2C359.7,406.2,359.6,406.2,359.5,406z"/>
		<path class="st2" d="M360.9,407l2.6-7.7h0.8l-2.6,7.7H360.9z"/>
		<path class="st2" d="M363.2,407l2.6-7.7h0.8l-2.6,7.7H363.2z"/>
		<path class="st2" d="M370.1,402.2c0.3-0.5,0.8-0.7,1.4-0.7c0.5,0,0.8,0.1,1.1,0.4c0.3,0.3,0.4,0.7,0.4,1.2v3.1h-0.8v-2.9
			c0-0.3-0.1-0.6-0.2-0.8s-0.4-0.3-0.7-0.3c-0.2,0-0.4,0.1-0.6,0.2s-0.3,0.4-0.4,0.6v3.2h-0.8v-2.9c0-0.3-0.1-0.6-0.2-0.8
			s-0.4-0.3-0.7-0.3c-0.2,0-0.4,0.1-0.6,0.2s-0.3,0.4-0.4,0.6v3.2h-0.8v-4.6h0.8v0.5c0.3-0.4,0.7-0.6,1.3-0.6
			C369.4,401.4,369.8,401.7,370.1,402.2z"/>
		<path class="st2" d="M377.6,406.2h-0.8v-0.3c-0.1,0.1-0.3,0.2-0.5,0.3c-0.2,0.1-0.5,0.1-0.7,0.1c-0.5,0-0.9-0.1-1.2-0.4
			s-0.5-0.6-0.5-1.1c0-0.4,0.2-0.8,0.5-1c0.3-0.3,0.8-0.4,1.3-0.4c0.2,0,0.5,0,0.7,0.1c0.2,0.1,0.4,0.2,0.5,0.3v-0.6
			c0-0.3-0.1-0.5-0.3-0.7c-0.2-0.2-0.4-0.3-0.8-0.3c-0.5,0-0.8,0.2-1,0.6h-0.8c0.1-0.4,0.3-0.7,0.6-0.9c0.3-0.2,0.7-0.4,1.1-0.4
			c0.5,0,1,0.1,1.3,0.4c0.3,0.3,0.5,0.7,0.5,1.2L377.6,406.2L377.6,406.2z M376.9,405v-0.5c-0.1-0.2-0.2-0.3-0.4-0.4
			c-0.2-0.1-0.4-0.2-0.7-0.2c-0.3,0-0.6,0.1-0.8,0.2c-0.2,0.1-0.3,0.3-0.3,0.6c0,0.3,0.1,0.5,0.3,0.6s0.5,0.2,0.8,0.2
			c0.2,0,0.5-0.1,0.7-0.2C376.7,405.3,376.8,405.2,376.9,405z"/>
		<path class="st2" d="M382,405.8v-0.3c-0.1,0.2-0.3,0.3-0.5,0.4s-0.5,0.2-0.8,0.2c-0.6,0-1.2-0.2-1.5-0.7c-0.4-0.5-0.6-1-0.6-1.7
			c0-0.7,0.2-1.2,0.6-1.7c0.4-0.5,0.9-0.7,1.5-0.7c0.3,0,0.5,0.1,0.8,0.2s0.4,0.3,0.5,0.4v-0.5h0.8v4.3c0,0.7-0.2,1.3-0.6,1.7
			c-0.4,0.4-0.9,0.6-1.5,0.6c-0.6,0-1-0.1-1.4-0.4s-0.6-0.6-0.6-1.1h0.8c0.1,0.6,0.5,0.9,1.2,0.9C381.6,407.4,382,406.9,382,405.8z
			 M382,404.7v-1.8c-0.3-0.5-0.7-0.7-1.2-0.7c-0.4,0-0.8,0.2-1,0.5c-0.2,0.3-0.4,0.7-0.4,1.2s0.1,0.9,0.4,1.2c0.2,0.3,0.6,0.5,1,0.5
			C381.3,405.4,381.7,405.2,382,404.7z"/>
		<path class="st2" d="M384.9,399.8c0.1,0.1,0.2,0.2,0.2,0.4c0,0.1-0.1,0.3-0.2,0.4c-0.1,0.1-0.2,0.1-0.4,0.1c-0.1,0-0.3,0-0.4-0.1
			c-0.1-0.1-0.1-0.2-0.1-0.4s0-0.3,0.1-0.4c0.1-0.1,0.2-0.1,0.4-0.1S384.8,399.7,384.9,399.8z M385,401.5v4.6h-0.8v-4.6H385z"/>
		<path class="st2" d="M386.6,405.6c-0.4-0.4-0.6-1-0.6-1.7s0.2-1.3,0.6-1.7c0.4-0.4,0.9-0.7,1.5-0.7c0.5,0,0.9,0.1,1.2,0.4
			c0.3,0.3,0.5,0.6,0.6,1.1h-0.8c-0.1-0.3-0.2-0.4-0.4-0.6s-0.4-0.2-0.7-0.2c-0.4,0-0.7,0.2-1,0.5s-0.4,0.7-0.4,1.2s0.1,0.9,0.4,1.2
			s0.6,0.5,1,0.5c0.3,0,0.5-0.1,0.7-0.2s0.3-0.3,0.4-0.6h0.8c-0.1,0.5-0.3,0.8-0.6,1.1c-0.3,0.3-0.7,0.4-1.2,0.4
			C387.5,406.2,387,406,386.6,405.6z"/>
		<path class="st2" d="M394.7,401.5v4.6h-0.8v-0.6c-0.1,0.2-0.3,0.4-0.6,0.5c-0.2,0.1-0.5,0.2-0.8,0.2c-0.5,0-0.9-0.2-1.2-0.5
			c-0.3-0.3-0.4-0.7-0.4-1.2v-3h0.8v2.9c0,0.3,0.1,0.6,0.3,0.8c0.2,0.2,0.4,0.3,0.8,0.3c0.3,0,0.5-0.1,0.7-0.2
			c0.2-0.2,0.4-0.4,0.4-0.6v-3.1L394.7,401.5L394.7,401.5z"/>
		<path class="st2" d="M398.5,401.5v0.8c-0.1-0.1-0.3-0.1-0.5-0.1c-0.3,0-0.5,0.1-0.7,0.2c-0.2,0.2-0.3,0.4-0.4,0.6v3.1h-0.8v-4.6
			h0.8v0.6c0.1-0.2,0.3-0.4,0.5-0.5c0.2-0.1,0.4-0.2,0.7-0.2C398.2,401.4,398.4,401.4,398.5,401.5z"/>
		<path class="st2" d="M400.2,399.4v6.8h-0.8v-6.8H400.2z"/>
		<path class="st2" d="M401.4,406c-0.1-0.1-0.2-0.2-0.2-0.4s0.1-0.3,0.2-0.4c0.1-0.1,0.2-0.2,0.4-0.2c0.2,0,0.3,0.1,0.4,0.2
			s0.2,0.2,0.2,0.4s-0.1,0.3-0.2,0.4c-0.1,0.1-0.2,0.2-0.4,0.2C401.7,406.2,401.6,406.2,401.4,406z"/>
		<path class="st2" d="M403.5,405.6c-0.4-0.4-0.6-1-0.6-1.7s0.2-1.3,0.6-1.7c0.4-0.4,0.9-0.7,1.5-0.7c0.5,0,0.9,0.1,1.2,0.4
			s0.5,0.6,0.6,1.1h-0.8c-0.1-0.3-0.2-0.4-0.4-0.6c-0.2-0.1-0.4-0.2-0.7-0.2c-0.4,0-0.7,0.2-1,0.5s-0.4,0.7-0.4,1.2s0.1,0.9,0.4,1.2
			s0.6,0.5,1,0.5c0.3,0,0.5-0.1,0.7-0.2c0.2-0.1,0.3-0.3,0.4-0.6h0.8c-0.1,0.5-0.3,0.8-0.6,1.1s-0.7,0.4-1.2,0.4
			C404.4,406.2,403.9,406,403.5,405.6z"/>
		<path class="st2" d="M411.3,402.1c0.4,0.4,0.6,1,0.6,1.7s-0.2,1.3-0.6,1.7c-0.4,0.4-0.9,0.7-1.5,0.7c-0.6,0-1.1-0.2-1.5-0.7
			c-0.4-0.4-0.6-1-0.6-1.7s0.2-1.3,0.6-1.7c0.4-0.4,0.9-0.7,1.5-0.7C410.4,401.4,410.9,401.6,411.3,402.1z M410.7,405.1
			c0.2-0.3,0.4-0.7,0.4-1.2c0-0.5-0.1-0.9-0.4-1.2c-0.2-0.3-0.6-0.5-1-0.5c-0.4,0-0.7,0.2-1,0.5c-0.2,0.3-0.4,0.7-0.4,1.2
			c0,0.5,0.1,0.9,0.4,1.2c0.2,0.3,0.6,0.5,1,0.5C410.1,405.6,410.5,405.4,410.7,405.1z"/>
		<path class="st2" d="M416.2,402.2c0.3-0.5,0.8-0.7,1.4-0.7c0.5,0,0.8,0.1,1.1,0.4c0.3,0.3,0.4,0.7,0.4,1.2v3.1h-0.8v-2.9
			c0-0.3-0.1-0.6-0.2-0.8s-0.4-0.3-0.7-0.3c-0.2,0-0.4,0.1-0.6,0.2c-0.2,0.1-0.3,0.4-0.4,0.6v3.2h-0.8v-2.9c0-0.3-0.1-0.6-0.2-0.8
			c-0.1-0.2-0.4-0.3-0.7-0.3c-0.2,0-0.4,0.1-0.6,0.2s-0.3,0.4-0.4,0.6v3.2h-0.8v-4.6h0.8v0.5c0.3-0.4,0.7-0.6,1.3-0.6
			C415.5,401.4,416,401.7,416.2,402.2z"/>
		<path class="st2" d="M423.7,401.4c0,0.1,0,0.2,0,0.2c0,0.1,0,0.2-0.1,0.2c0,0.1-0.1,0.2-0.1,0.2s-0.1,0.1-0.1,0.2
			c-0.1,0.1-0.1,0.2-0.1,0.2c0,0-0.1,0.1-0.2,0.2c-0.1,0.1-0.1,0.2-0.2,0.2c0,0-0.1,0.1-0.2,0.2l-0.2,0.2c-0.3,0.3-0.4,0.6-0.4,0.9
			h-0.8c0-0.3,0.1-0.5,0.2-0.6c0.1-0.2,0.2-0.4,0.5-0.6c0,0,0.1-0.1,0.3-0.3c0.1-0.2,0.3-0.3,0.3-0.4s0.1-0.2,0.2-0.3
			c0.1-0.1,0.1-0.3,0.1-0.4c0-0.3-0.1-0.6-0.3-0.8c-0.2-0.2-0.5-0.3-0.8-0.3c-0.4,0-0.7,0.1-0.9,0.4c-0.2,0.2-0.3,0.5-0.4,0.9h-0.8
			c0.1-0.6,0.3-1.1,0.7-1.5c0.4-0.4,0.9-0.6,1.4-0.6c0.6,0,1.1,0.2,1.4,0.5C423.5,400.5,423.7,400.9,423.7,401.4z M421.3,406
			c-0.1-0.1-0.2-0.2-0.2-0.4s0.1-0.3,0.2-0.4c0.1-0.1,0.2-0.2,0.4-0.2c0.2,0,0.3,0.1,0.4,0.2c0.1,0.1,0.2,0.2,0.2,0.4
			s-0.1,0.3-0.2,0.4c-0.1,0.1-0.2,0.2-0.4,0.2C421.6,406.2,421.4,406.2,421.3,406z"/>
		<path class="st2" d="M427.5,404.8h0.7c-0.1,0.5-0.3,0.8-0.6,1.1c-0.3,0.3-0.7,0.4-1.3,0.4c-0.6,0-1.1-0.2-1.5-0.7
			c-0.4-0.4-0.6-1-0.6-1.7c0-0.7,0.2-1.3,0.6-1.7c0.4-0.5,0.9-0.7,1.5-0.7c0.6,0,1.1,0.2,1.4,0.6c0.3,0.4,0.5,1,0.5,1.7v0.3h-3.3
			c0,0.5,0.1,0.9,0.4,1.2c0.2,0.3,0.6,0.4,1,0.4c0.3,0,0.5-0.1,0.7-0.2C427.3,405.2,427.5,405,427.5,404.8z M426.4,402.1
			c-0.3,0-0.6,0.1-0.9,0.3s-0.4,0.5-0.4,1h2.5c0-0.4-0.1-0.7-0.3-0.9C427,402.2,426.8,402.1,426.4,402.1z"/>
		<path class="st2" d="M433.2,401.2h-0.8c0-0.3-0.1-0.5-0.3-0.7c-0.2-0.2-0.4-0.3-0.7-0.3c-0.3,0-0.5,0.1-0.7,0.3
			c-0.2,0.2-0.3,0.4-0.3,0.7c0,0.1,0,0.3,0.1,0.4c0.1,0.2,0.1,0.3,0.2,0.4c0.1,0.1,0.2,0.2,0.4,0.4l1.8,1.9c0.2-0.4,0.3-0.9,0.3-1.4
			h0.7c0,0.7-0.2,1.4-0.6,1.9l1.2,1.3h-1l-0.6-0.7c-0.5,0.5-1.1,0.8-1.8,0.8c-0.6,0-1.1-0.2-1.5-0.6c-0.4-0.4-0.6-0.8-0.6-1.4
			c0-0.4,0.1-0.7,0.3-1c0.2-0.3,0.5-0.6,0.8-0.7c-0.3-0.4-0.5-0.8-0.5-1.3c0-0.5,0.2-0.9,0.5-1.2s0.8-0.4,1.3-0.4
			c0.5,0,0.9,0.1,1.2,0.4C433,400.4,433.2,400.8,433.2,401.2z M431.2,405.6c0.6,0,1-0.2,1.4-0.6l-1.9-2c-0.2,0.1-0.5,0.3-0.6,0.5
			c-0.2,0.2-0.2,0.5-0.2,0.8c0,0.4,0.1,0.7,0.4,0.9C430.5,405.5,430.8,405.6,431.2,405.6z"/>
		<path class="st2" d="M436.4,407.9h-0.8l0.7-1.7l-1.8-4.7h0.8l1.4,3.7l1.3-3.7h0.8L436.4,407.9z"/>
		<path class="st2" d="M439.8,406.2v-6.8h0.8v2.7c0.1-0.2,0.3-0.4,0.6-0.5s0.5-0.2,0.8-0.2c0.5,0,0.9,0.2,1.2,0.5
			c0.3,0.3,0.4,0.7,0.4,1.2v3h-0.8v-2.9c0-0.3-0.1-0.6-0.3-0.8c-0.2-0.2-0.4-0.3-0.8-0.3c-0.3,0-0.5,0.1-0.7,0.2
			c-0.2,0.2-0.4,0.4-0.4,0.6v3.1L439.8,406.2L439.8,406.2z"/>
		<path class="st2" d="M447.3,401.5v0.8c-0.1-0.1-0.3-0.1-0.5-0.1c-0.2,0-0.5,0.1-0.7,0.2c-0.2,0.2-0.3,0.4-0.4,0.6v3.1h-0.8v-4.6
			h0.8v0.6c0.1-0.2,0.3-0.4,0.5-0.5c0.2-0.1,0.4-0.2,0.7-0.2C447,401.4,447.2,401.4,447.3,401.5z"/>
		<path class="st2" d="M447.8,404.5h0.8c0.2,0.7,0.8,1.1,1.6,1.1c0.4,0,0.8-0.1,1-0.3s0.4-0.5,0.4-0.8c0-0.3-0.1-0.5-0.2-0.6
			c-0.2-0.2-0.4-0.3-0.8-0.4l-1.1-0.3c-1-0.3-1.5-0.8-1.5-1.6c0-0.5,0.2-1,0.6-1.3c0.4-0.3,0.9-0.5,1.5-0.5c0.6,0,1.2,0.2,1.6,0.5
			c0.4,0.3,0.7,0.7,0.8,1.2h-0.8c-0.2-0.7-0.7-1-1.5-1c-0.4,0-0.7,0.1-1,0.3c-0.2,0.2-0.4,0.4-0.4,0.8c0,0.3,0.1,0.5,0.2,0.6
			c0.2,0.1,0.4,0.3,0.8,0.4l1.1,0.3c1.1,0.3,1.6,0.8,1.6,1.7c0,0.6-0.2,1-0.6,1.4s-0.9,0.5-1.6,0.5c-0.6,0-1.2-0.2-1.6-0.5
			C448.2,405.5,447.9,405,447.8,404.5z"/>
		<path class="st2" d="M455.3,402.7c-0.5,0-0.8,0.2-1.1,0.6h-0.6v-3.5h3.5v0.7h-2.8v1.9c0.3-0.3,0.7-0.4,1.2-0.4
			c0.6,0,1.1,0.2,1.5,0.6c0.4,0.4,0.6,0.9,0.6,1.5c0,0.6-0.2,1.1-0.6,1.5c-0.4,0.4-0.9,0.6-1.5,0.6c-0.6,0-1.1-0.2-1.5-0.5
			c-0.4-0.3-0.6-0.8-0.7-1.4h0.8c0.1,0.8,0.6,1.2,1.4,1.2c0.4,0,0.7-0.1,0.9-0.4c0.2-0.3,0.4-0.6,0.4-1c0-0.4-0.1-0.7-0.4-1
			S455.7,402.7,455.3,402.7z"/>
		<path class="st2" d="M458.2,404.7h0.8c0.2,0.6,0.6,0.9,1.2,0.9c0.5,0,0.9-0.2,1.2-0.7s0.5-1.1,0.5-1.7c0,0,0-0.1,0-0.1
			c0-0.1,0-0.1,0-0.1c-0.1,0.3-0.3,0.6-0.6,0.8s-0.6,0.3-1,0.3c-0.6,0-1.1-0.2-1.5-0.6c-0.4-0.4-0.6-0.9-0.6-1.5
			c0-0.6,0.2-1.1,0.6-1.5c0.4-0.4,0.9-0.6,1.6-0.6c0.9,0,1.5,0.4,1.9,1.2c0.2,0.5,0.4,1.2,0.4,2c0,1-0.2,1.9-0.7,2.5
			c-0.4,0.6-1,0.9-1.7,0.9C459.1,406.2,458.5,405.7,458.2,404.7z M461.6,401.8c0-0.4-0.1-0.8-0.4-1c-0.3-0.3-0.6-0.4-1-0.4
			c-0.4,0-0.7,0.1-1,0.4s-0.4,0.6-0.4,1c0,0.4,0.1,0.8,0.4,1c0.3,0.3,0.6,0.4,1,0.4c0.4,0,0.7-0.1,1-0.4
			C461.5,402.6,461.6,402.2,461.6,401.8z"/>
		<path class="st2" d="M464.9,403.2v-0.7h0.4c0.3,0,0.6-0.1,0.9-0.3s0.3-0.5,0.3-0.8c0-0.3-0.1-0.6-0.3-0.8
			c-0.2-0.2-0.5-0.3-0.9-0.3s-0.6,0.1-0.9,0.3c-0.2,0.2-0.4,0.5-0.4,0.8h-0.8c0.1-0.5,0.3-1,0.7-1.3c0.4-0.3,0.8-0.5,1.4-0.5
			c0.6,0,1.1,0.2,1.4,0.5c0.4,0.3,0.5,0.7,0.5,1.3c0,0.3-0.1,0.7-0.3,0.9c-0.2,0.3-0.4,0.4-0.7,0.5c0.3,0.1,0.6,0.3,0.8,0.5
			c0.2,0.3,0.3,0.6,0.3,0.9c0,0.5-0.2,1-0.6,1.4c-0.4,0.4-0.9,0.5-1.5,0.5c-0.6,0-1.1-0.2-1.5-0.5c-0.4-0.3-0.6-0.8-0.7-1.4h0.8
			c0.1,0.4,0.2,0.7,0.4,0.9c0.2,0.2,0.6,0.3,1,0.3c0.4,0,0.7-0.1,0.9-0.3c0.2-0.2,0.4-0.5,0.4-0.9c0-0.3-0.1-0.6-0.4-0.8
			c-0.2-0.2-0.6-0.3-0.9-0.3L464.9,403.2L464.9,403.2z"/>
		<path class="st2" d="M469.8,403.2v-0.7h0.4c0.4,0,0.6-0.1,0.9-0.3c0.2-0.2,0.3-0.5,0.3-0.8c0-0.3-0.1-0.6-0.3-0.8
			c-0.2-0.2-0.5-0.3-0.9-0.3c-0.4,0-0.6,0.1-0.9,0.3c-0.2,0.2-0.4,0.5-0.4,0.8h-0.8c0.1-0.5,0.3-1,0.7-1.3c0.4-0.3,0.8-0.5,1.4-0.5
			c0.6,0,1.1,0.2,1.4,0.5c0.4,0.3,0.5,0.7,0.5,1.3c0,0.3-0.1,0.7-0.3,0.9c-0.2,0.3-0.4,0.4-0.7,0.5c0.3,0.1,0.6,0.3,0.8,0.5
			s0.3,0.6,0.3,0.9c0,0.5-0.2,1-0.6,1.4s-0.9,0.5-1.5,0.5s-1.1-0.2-1.5-0.5c-0.4-0.3-0.6-0.8-0.7-1.4h0.8c0.1,0.4,0.2,0.7,0.4,0.9
			s0.6,0.3,1,0.3c0.4,0,0.7-0.1,0.9-0.3c0.2-0.2,0.4-0.5,0.4-0.9c0-0.3-0.1-0.6-0.4-0.8c-0.2-0.2-0.6-0.3-0.9-0.3L469.8,403.2
			L469.8,403.2z"/>
		<path class="st2" d="M476.2,399.7l-2.4,4.3h2v-1.5h0.8v1.5h1.1v0.7h-1.1v1.5h-0.8v-1.5h-3v-0.6l2.5-4.4H476.2z"/>
		<path class="st2" d="M482,406.2h-0.8v-0.3c-0.1,0.1-0.3,0.2-0.5,0.3c-0.2,0.1-0.5,0.1-0.7,0.1c-0.5,0-0.9-0.1-1.2-0.4
			s-0.5-0.6-0.5-1.1c0-0.4,0.2-0.8,0.5-1c0.3-0.3,0.8-0.4,1.3-0.4c0.2,0,0.5,0,0.7,0.1c0.2,0.1,0.4,0.2,0.5,0.3v-0.6
			c0-0.3-0.1-0.5-0.3-0.7c-0.2-0.2-0.4-0.3-0.8-0.3c-0.5,0-0.8,0.2-1,0.6h-0.8c0.1-0.4,0.3-0.7,0.6-0.9c0.3-0.2,0.7-0.4,1.1-0.4
			c0.6,0,1,0.1,1.3,0.4c0.3,0.3,0.5,0.7,0.5,1.2L482,406.2L482,406.2z M481.3,405v-0.5c-0.1-0.2-0.2-0.3-0.4-0.4
			c-0.2-0.1-0.4-0.2-0.7-0.2c-0.3,0-0.6,0.1-0.8,0.2c-0.2,0.1-0.3,0.3-0.3,0.6c0,0.3,0.1,0.5,0.3,0.6c0.2,0.1,0.5,0.2,0.8,0.2
			c0.2,0,0.5-0.1,0.7-0.2C481.1,405.3,481.2,405.2,481.3,405z"/>
		<path class="st2" d="M483.8,400.9l-0.9-0.6l0.2-0.4l0.9,0.5v-1.1h0.5v1.1l1-0.5l0.2,0.4l-0.9,0.6l0.9,0.5l-0.2,0.4l-1-0.5v1.1H484
			v-1.1l-0.9,0.5l-0.2-0.4L483.8,400.9z"/>
		<path class="st2" d="M488.8,399.7l-2.4,4.3h2v-1.5h0.8v1.5h1.1v0.7h-1.1v1.5h-0.8v-1.5h-3v-0.6l2.5-4.4H488.8z"/>
	</g>
</g>
</svg>
