<svg id="OUTLINES" xmlns="http://www.w3.org/2000/svg" viewBox="0 0 1152 1181.5"><defs><style>.cls-1{fill:#fff;}.cls-2{fill:#000f7d;}.cls-3{fill:#000f82;}</style></defs><title>access-through-letter</title><rect class="cls-1" x="647.81" y="580.4" width="144" height="144"/><path class="cls-2" d="M720,909.35a23,23,0,1,1,23-23A23,23,0,0,1,720,909.35Zm0-36a13,13,0,1,0,13,13A13,13,0,0,0,720,873.35Z"/><path class="cls-2" d="M719.81,770.9a123,123,0,1,1,123-123A123.14,123.14,0,0,1,719.81,770.9Zm0-234a111,111,0,1,0,111,111A111.12,111.12,0,0,0,719.81,536.9Z"/><path class="cls-2" d="M756.87,576.14v34.7h34.7v-34.7Zm29.74,9.91v19.83H761.83V581.1h24.78Z"/><polygon class="cls-2" points="657.73 591.01 657.73 595.97 657.73 600.93 672.6 600.93 672.6 595.97 672.6 591.01 672.6 586.05 657.73 586.05 657.73 591.01"/><polygon class="cls-2" points="781.66 595.97 781.66 591.01 781.66 586.05 766.78 586.05 766.78 591.01 766.78 595.97 766.78 600.93 781.66 600.93 781.66 595.97"/><path class="cls-2" d="M682.51,605.88V576.14h-34.7v34.7h34.7Zm-29.74,0V581.1h24.78v24.78Z"/><path class="cls-2" d="M647.81,690.16V719.9h34.7V685.2h-34.7Zm29.74,0v24.78H652.77V690.16Z"/><polygon class="cls-2" points="672.6 705.03 672.6 700.07 672.6 695.11 657.73 695.11 657.73 700.07 657.73 705.03 657.73 709.99 672.6 709.99 672.6 705.03"/><polygon class="cls-2" points="692.43 581.1 702.34 581.1 702.34 586.05 707.3 586.05 707.3 576.14 687.47 576.14 687.47 586.05 692.43 586.05 692.43 581.1 692.43 581.1"/><polygon class="cls-2" points="722.17 586.05 727.13 586.05 727.13 576.14 712.25 576.14 712.25 581.1 722.17 581.1 722.17 586.05 722.17 586.05"/><polygon class="cls-2" points="742 581.1 742 576.14 732.08 576.14 732.08 581.1 737.04 581.1 737.04 586.05 742 586.05 742 581.1 742 581.1"/><polygon class="cls-2" points="697.38 591.01 697.38 586.05 692.43 586.05 692.43 591.01 697.38 591.01 697.38 591.01"/><polygon class="cls-2" points="717.21 586.05 712.25 586.05 712.25 591.01 717.21 591.01 717.21 586.05 717.21 586.05"/><polygon class="cls-2" points="751.91 586.05 746.96 586.05 746.96 591.01 751.91 591.01 751.91 586.05 751.91 586.05"/><polygon class="cls-2" points="707.3 605.88 707.3 610.84 712.25 610.84 712.25 605.88 717.21 605.88 717.21 610.84 722.17 610.84 722.17 600.93 712.25 600.93 712.25 591.01 702.34 591.01 702.34 600.93 707.3 600.93 707.3 605.88 707.3 605.88"/><polygon class="cls-2" points="727.13 605.88 727.13 610.84 722.17 610.84 722.17 615.8 727.13 615.8 727.13 620.75 732.08 620.75 732.08 605.88 737.04 605.88 737.04 600.93 742 600.93 742 595.97 746.96 595.97 746.96 591.01 737.04 591.01 737.04 586.05 732.08 586.05 732.08 595.97 727.13 595.97 727.13 591.01 722.17 591.01 722.17 600.93 727.13 600.93 727.13 605.88 727.13 605.88"/><polygon class="cls-2" points="662.68 620.75 662.68 615.8 647.81 615.8 647.81 625.71 657.73 625.71 657.73 620.75 662.68 620.75 662.68 620.75"/><polygon class="cls-2" points="672.6 615.8 672.6 620.75 682.51 620.75 682.51 615.8 672.6 615.8 672.6 615.8"/><polygon class="cls-2" points="771.74 620.75 771.74 615.8 751.91 615.8 751.91 600.93 746.96 600.93 746.96 610.84 742 610.84 742 605.88 737.04 605.88 737.04 615.8 746.96 615.8 746.96 620.75 737.04 620.75 737.04 625.71 742 625.71 742 640.58 737.04 640.58 737.04 655.46 742 655.46 742 650.5 751.91 650.5 751.91 640.58 746.96 640.58 746.96 630.67 751.91 630.67 751.91 620.75 756.87 620.75 756.87 625.71 766.78 625.71 766.78 620.75 771.74 620.75 771.74 620.75"/><polygon class="cls-2" points="781.66 620.75 781.66 625.71 786.61 625.71 786.61 630.67 791.57 630.67 791.57 615.8 781.66 615.8 781.66 620.75 781.66 620.75"/><polygon class="cls-2" points="732.08 630.67 737.04 630.67 737.04 625.71 732.08 625.71 732.08 630.67 732.08 630.67"/><polygon class="cls-2" points="766.78 630.67 771.74 630.67 771.74 635.63 776.7 635.63 776.7 630.67 781.66 630.67 781.66 625.71 766.78 625.71 766.78 630.67 766.78 630.67"/><polygon class="cls-2" points="682.51 640.58 682.51 635.63 677.55 635.63 677.55 640.58 682.51 640.58 682.51 640.58"/><polygon class="cls-2" points="786.61 640.58 781.66 640.58 781.66 645.54 786.61 645.54 786.61 650.5 791.57 650.5 791.57 635.63 786.61 635.63 786.61 640.58 786.61 640.58"/><polygon class="cls-2" points="657.73 645.54 657.73 635.63 647.81 635.63 647.81 650.5 652.77 650.5 652.77 645.54 657.73 645.54 657.73 645.54"/><polygon class="cls-2" points="677.55 645.54 677.55 640.58 672.6 640.58 672.6 650.5 682.51 650.5 682.51 645.54 677.55 645.54 677.55 645.54"/><polygon class="cls-2" points="692.43 650.5 697.38 650.5 697.38 645.54 692.43 645.54 692.43 650.5 692.43 650.5"/><polygon class="cls-2" points="707.3 650.5 707.3 645.54 702.34 645.54 702.34 650.5 707.3 650.5 707.3 650.5"/><polygon class="cls-2" points="657.73 650.5 652.77 650.5 652.77 655.46 657.73 655.46 657.73 650.5 657.73 650.5"/><polygon class="cls-2" points="692.43 650.5 682.51 650.5 682.51 655.46 692.43 655.46 692.43 650.5 692.43 650.5"/><path class="cls-2" d="M756.87,655.46v14.87h-5v-9.92H747v-4.95h-5v9.91h-5v5h5v4.95h5v19.83h-5V705h5v-5h4.95v5h5v-5h9.91V710h-4.95v5h-5v5H776.7V710h-5v-5h9.92v-5h-5v-5h-5V685.2h9.92v-5h-5v-5H761.83v-9.91h4.95v-5h-4.95v-4.95h4.95v-5h5v-5h-5v-9.91h-9.91v9.91h5v5h-9.92v5Zm9.91,24.78v14.87H751.91V680.24Z"/><polygon class="cls-2" points="647.81 655.46 647.81 660.41 652.77 660.41 652.77 655.46 647.81 655.46 647.81 655.46"/><polygon class="cls-2" points="677.55 655.46 677.55 660.41 682.51 660.41 682.51 655.46 677.55 655.46 677.55 655.46"/><polygon class="cls-2" points="657.73 660.41 652.77 660.41 652.77 665.37 647.81 665.37 647.81 670.33 657.73 670.33 657.73 660.41 657.73 660.41"/><polygon class="cls-2" points="677.55 660.41 672.6 660.41 672.6 655.46 667.64 655.46 667.64 635.63 662.68 635.63 662.68 660.41 667.64 660.41 667.64 665.37 672.6 665.37 672.6 670.33 682.51 670.33 682.51 665.37 677.55 665.37 677.55 660.41 677.55 660.41"/><polygon class="cls-2" points="662.68 670.33 657.73 670.33 657.73 675.28 667.64 675.28 667.64 665.37 662.68 665.37 662.68 670.33 662.68 670.33"/><polygon class="cls-2" points="776.7 670.33 776.7 665.37 766.78 665.37 766.78 670.33 776.7 670.33 776.7 670.33"/><polygon class="cls-2" points="786.61 670.33 791.57 670.33 791.57 655.46 786.61 655.46 786.61 660.41 776.7 660.41 776.7 665.37 786.61 665.37 786.61 670.33 786.61 670.33"/><polygon class="cls-2" points="647.81 680.24 657.73 680.24 657.73 675.28 647.81 675.28 647.81 680.24 647.81 680.24"/><polygon class="cls-2" points="682.51 680.24 682.51 675.28 667.64 675.28 667.64 680.24 682.51 680.24 682.51 680.24"/><polygon class="cls-2" points="786.61 675.28 781.66 675.28 781.66 680.24 786.61 680.24 786.61 675.28 786.61 675.28"/><polygon class="cls-2" points="687.47 680.24 687.47 685.2 692.43 685.2 692.43 680.24 687.47 680.24 687.47 680.24"/><polygon class="cls-2" points="697.38 685.2 702.34 685.2 702.34 675.28 712.25 675.28 712.25 670.33 717.21 670.33 717.21 675.28 712.25 675.28 712.25 685.2 722.17 685.2 722.17 695.11 727.13 695.11 727.13 700.07 732.08 700.07 732.08 690.16 737.04 690.16 737.04 695.11 742 695.11 742 680.24 732.08 680.24 732.08 675.28 727.13 675.28 727.13 665.37 732.08 665.37 732.08 650.5 727.13 650.5 727.13 645.54 732.08 645.54 732.08 630.67 727.13 630.67 727.13 640.58 722.17 640.58 722.17 630.67 727.13 630.67 727.13 620.75 722.17 620.75 722.17 625.71 712.25 625.71 712.25 620.75 717.21 620.75 717.21 610.84 712.25 610.84 712.25 615.8 702.34 615.8 702.34 620.75 707.3 620.75 707.3 630.67 702.34 630.67 702.34 625.71 692.43 625.71 692.43 620.75 697.38 620.75 697.38 610.84 692.43 610.84 692.43 605.88 697.38 605.88 697.38 610.84 702.34 610.84 702.34 600.93 692.43 600.93 692.43 595.97 687.47 595.97 687.47 620.75 682.51 620.75 682.51 625.71 667.64 625.71 667.64 620.75 662.68 620.75 662.68 625.71 657.73 625.71 657.73 630.67 667.64 630.67 667.64 635.63 677.55 635.63 677.55 630.67 687.47 630.67 687.47 635.63 692.43 635.63 692.43 630.67 697.38 630.67 697.38 635.63 692.43 635.63 692.43 640.58 697.38 640.58 697.38 645.54 702.34 645.54 702.34 635.63 712.25 635.63 712.25 630.67 717.21 630.67 717.21 635.63 712.25 635.63 712.25 645.54 722.17 645.54 722.17 655.46 727.13 655.46 727.13 660.41 722.17 660.41 722.17 665.37 712.25 665.37 712.25 660.41 717.21 660.41 717.21 650.5 712.25 650.5 712.25 655.46 702.34 655.46 702.34 650.5 697.38 650.5 697.38 660.41 682.51 660.41 682.51 665.37 702.34 665.37 702.34 660.41 707.3 660.41 707.3 670.33 687.47 670.33 687.47 675.28 692.43 675.28 692.43 680.24 697.38 680.24 697.38 685.2 697.38 685.2"/><polygon class="cls-2" points="707.3 690.16 707.3 685.2 702.34 685.2 702.34 690.16 707.3 690.16 707.3 690.16"/><polygon class="cls-2" points="761.83 685.2 756.87 685.2 756.87 690.16 761.83 690.16 761.83 685.2 761.83 685.2"/><polygon class="cls-2" points="786.61 690.16 781.66 690.16 781.66 700.07 786.61 700.07 786.61 705.03 781.66 705.03 781.66 709.99 791.57 709.99 791.57 680.24 786.61 680.24 786.61 690.16 786.61 690.16"/><polygon class="cls-2" points="697.38 690.16 697.38 685.2 692.43 685.2 692.43 690.16 687.47 690.16 687.47 695.11 692.43 695.11 692.43 700.07 697.38 700.07 697.38 695.11 702.34 695.11 702.34 690.16 697.38 690.16 697.38 690.16"/><polygon class="cls-2" points="737.04 700.07 732.08 700.07 732.08 705.03 727.13 705.03 727.13 700.07 722.17 700.07 722.17 705.03 712.25 705.03 712.25 700.07 717.21 700.07 717.21 690.16 712.25 690.16 712.25 695.11 702.34 695.11 702.34 700.07 707.3 700.07 707.3 709.99 697.38 709.99 697.38 714.94 692.43 714.94 692.43 705.03 687.47 705.03 687.47 719.9 702.34 719.9 702.34 714.94 712.25 714.94 712.25 709.99 717.21 709.99 717.21 714.94 712.25 714.94 712.25 719.9 732.08 719.9 732.08 709.99 737.04 709.99 737.04 714.94 742 714.94 742 705.03 737.04 705.03 737.04 700.07 737.04 700.07"/><polygon class="cls-2" points="751.91 709.99 751.91 705.03 746.96 705.03 746.96 719.9 751.91 719.9 751.91 714.94 756.87 714.94 756.87 709.99 751.91 709.99 751.91 709.99"/><polygon class="cls-2" points="786.61 719.9 791.57 719.9 791.57 714.94 786.61 714.94 786.61 719.9 786.61 719.9"/><path class="cls-2" d="M557.65,223.26,547.71,214l4.89-24.66a2.5,2.5,0,0,0-4.27-2.21l-26.09,27.54a2.5,2.5,0,0,0-.68,1.8,2.47,2.47,0,0,0,.79,1.75l9.94,9.26-4.89,24.66a2.5,2.5,0,0,0,1.31,2.71,2.43,2.43,0,0,0,1.14.28,2.52,2.52,0,0,0,1.82-.78l26.09-27.54a2.5,2.5,0,0,0,.68-1.8A2.47,2.47,0,0,0,557.65,223.26Z"/><path class="cls-2" d="M450.65,288.61h4.5l4.77,18.58,4.55-18.58h5.67l-7.2,27.63h-5.27L452.81,298,448,316.24h-5.26l-7.2-27.63h5.8l4.5,18.58Z"/><path class="cls-2" d="M484.09,309.67h5.17a8,8,0,0,1-2.85,5.15,9.35,9.35,0,0,1-6.06,1.87,9.18,9.18,0,0,1-7.06-2.91,11.89,11.89,0,0,1,0-15.11,9,9,0,0,1,6.95-3A8.5,8.5,0,0,1,487,298.4a10.52,10.52,0,0,1,2.41,7.26v1.71H476a5.54,5.54,0,0,0,1.3,3.53,3.94,3.94,0,0,0,3.06,1.29Q483.41,312.19,484.09,309.67Zm-3.78-9.45q-3.42,0-4.19,3.78h7.79a4.09,4.09,0,0,0-1-2.72A3.31,3.31,0,0,0,480.31,300.22Z"/><path class="cls-2" d="M498.53,287v29.25H493V287Z"/><path class="cls-2" d="M502.13,306.2a10.76,10.76,0,0,1,2.7-7.6,10,10,0,0,1,13-1,8.08,8.08,0,0,1,2.79,5.27h-5.49a2.9,2.9,0,0,0-1.1-1.83,3.68,3.68,0,0,0-2.23-.65,3.54,3.54,0,0,0-3,1.58,8.29,8.29,0,0,0,0,8.32,3.54,3.54,0,0,0,3,1.58,3.62,3.62,0,0,0,2.23-.66,2.85,2.85,0,0,0,1.1-1.82h5.49a8.1,8.1,0,0,1-2.77,5.27,10,10,0,0,1-13-.95A10.71,10.71,0,0,1,502.13,306.2Z"/><path class="cls-2" d="M542.54,306.2a10.6,10.6,0,0,1-2.74,7.56,10.09,10.09,0,0,1-14.22,0,11.82,11.82,0,0,1,0-15.16,10.09,10.09,0,0,1,14.22,0A10.65,10.65,0,0,1,542.54,306.2Zm-5.53,0a7,7,0,0,0-1.15-4.21,4,4,0,0,0-6.34,0,7,7,0,0,0-1.15,4.21,6.92,6.92,0,0,0,1.15,4.16,3.94,3.94,0,0,0,6.34,0A6.92,6.92,0,0,0,537,306.2Z"/><path class="cls-2" d="M562.16,298.24a7.86,7.86,0,0,1,6.08-2.57,6.11,6.11,0,0,1,4.86,2,7.92,7.92,0,0,1,1.75,5.42v13.14h-5.58v-12a4.22,4.22,0,0,0-.74-2.64,2.54,2.54,0,0,0-2.14-1,3.1,3.1,0,0,0-2,.67,3.23,3.23,0,0,0-1.12,1.94v13h-5.63v-12q0-3.6-2.83-3.6a3.14,3.14,0,0,0-2,.69,3.27,3.27,0,0,0-1.15,1.92v13H546.1V296.12h5.58v1.67a6.07,6.07,0,0,1,5.08-2.12A6.38,6.38,0,0,1,562.16,298.24Z"/><path class="cls-2" d="M591.73,309.67h5.17a8,8,0,0,1-2.86,5.15,9.31,9.31,0,0,1-6,1.87,9.18,9.18,0,0,1-7.06-2.91,11.89,11.89,0,0,1,0-15.11,9,9,0,0,1,6.95-3,8.51,8.51,0,0,1,6.73,2.73,10.57,10.57,0,0,1,2.41,7.26v1.71H583.63a5.54,5.54,0,0,0,1.3,3.53,3.94,3.94,0,0,0,3.06,1.29Q591.05,312.19,591.73,309.67ZM588,300.22q-3.42,0-4.19,3.78h7.79a4.09,4.09,0,0,0-1-2.72A3.31,3.31,0,0,0,588,300.22Z"/><path class="cls-2" d="M611.35,310.16v-9.54h-3.06v-4.5h3.06v-5.44h5.53v5.44h4.41v4.5h-4.41v8.82a2,2,0,0,0,2.3,2.3,4.35,4.35,0,0,0,2.43-.68V316a7.89,7.89,0,0,1-3.6.63A7,7,0,0,1,613.1,315,6.29,6.29,0,0,1,611.35,310.16Z"/><path class="cls-2" d="M643.93,306.2a10.61,10.61,0,0,1-2.75,7.56,10.09,10.09,0,0,1-14.22,0,11.85,11.85,0,0,1,0-15.16,10.09,10.09,0,0,1,14.22,0A10.65,10.65,0,0,1,643.93,306.2Zm-5.54,0a7,7,0,0,0-1.15-4.21,4,4,0,0,0-6.34,0,7,7,0,0,0-1.15,4.21,6.92,6.92,0,0,0,1.15,4.16,3.94,3.94,0,0,0,6.34,0A6.92,6.92,0,0,0,638.39,306.2Z"/><path class="cls-2" d="M417,357.71a16.35,16.35,0,0,1,0-20.57,12,12,0,0,1,9.23-4A11.58,11.58,0,0,1,434,335.7a11.41,11.41,0,0,1,3.8,6.82h-5.71a5.83,5.83,0,0,0-5.85-4.23,6.07,6.07,0,0,0-5.13,2.54,12.4,12.4,0,0,0,0,13.16,6,6,0,0,0,5.13,2.57q4.27,0,5.85-4.28h5.71a11.4,11.4,0,0,1-3.8,6.86,11.54,11.54,0,0,1-7.76,2.55A12,12,0,0,1,417,357.71Z"/><path class="cls-2" d="M457.94,361.24h-5.35v-1.08a5,5,0,0,1-1.94,1,9.62,9.62,0,0,1-3,.45,8.13,8.13,0,0,1-5.33-1.76,5.86,5.86,0,0,1-2.14-4.77,5.7,5.7,0,0,1,2.23-4.63,8.57,8.57,0,0,1,5.56-1.8,10.12,10.12,0,0,1,2.61.36,6.34,6.34,0,0,1,2,.81v-1.49a3.14,3.14,0,0,0-.83-2.23,3.27,3.27,0,0,0-2.46-.87,2.86,2.86,0,0,0-3,1.89H441a7.16,7.16,0,0,1,2.77-4.61,10.15,10.15,0,0,1,11.93.22,7.36,7.36,0,0,1,2.22,5.69Zm-5.35-5.49v-1.44a2.67,2.67,0,0,0-1.37-1.29,5.44,5.44,0,0,0-2.28-.47,4.75,4.75,0,0,0-2.49.63,2.15,2.15,0,0,0,0,3.69,4.76,4.76,0,0,0,2.52.63,5.44,5.44,0,0,0,2.28-.47A2.62,2.62,0,0,0,452.59,355.75Z"/><path class="cls-2" d="M468.07,359.57v1.67h-5.63V332h5.63v10.8a5.85,5.85,0,0,1,2.11-1.49,7.05,7.05,0,0,1,2.93-.63,8.15,8.15,0,0,1,6.68,3,12.7,12.7,0,0,1,0,15,8.16,8.16,0,0,1-6.68,3,7.05,7.05,0,0,1-2.93-.63A5.85,5.85,0,0,1,468.07,359.57Zm0-11.7v6.62a4.17,4.17,0,0,0,3.78,2.34,4.33,4.33,0,0,0,3.51-1.58,6.13,6.13,0,0,0,1.3-4.05,6.23,6.23,0,0,0-1.3-4.07,4.31,4.31,0,0,0-3.51-1.6,4.18,4.18,0,0,0-2.25.65A4.07,4.07,0,0,0,468.07,347.87Z"/><path class="cls-2" d="M491.42,332v29.25h-5.58V332Z"/><path class="cls-2" d="M508.52,354.67h5.18a8,8,0,0,1-2.86,5.15,9.32,9.32,0,0,1-6,1.87,9.23,9.23,0,0,1-7.07-2.9,11.88,11.88,0,0,1,0-15.12,9,9,0,0,1,6.95-3,8.5,8.5,0,0,1,6.72,2.72,10.56,10.56,0,0,1,2.41,7.27v1.71H500.42a5.6,5.6,0,0,0,1.31,3.54,4,4,0,0,0,3.06,1.28Q507.85,357.19,508.52,354.67Zm-3.78-9.45q-3.42,0-4.18,3.78h7.78a4.14,4.14,0,0,0-1-2.73A3.33,3.33,0,0,0,504.74,345.22Z"/><path class="cls-2" d="M529.58,341v5.58a5.34,5.34,0,0,0-2.79-.67,4.08,4.08,0,0,0-2.47.74,3.44,3.44,0,0,0-1.35,2.09v12.47h-5.58V341.12H523v2a4.86,4.86,0,0,1,4.5-2.43A4.51,4.51,0,0,1,529.58,341Z"/><path class="cls-2" d="M543,333.61h18.76v5H548.62v6H560.5v4.9H548.62v6.57h13.09v5.09H543Z"/><path class="cls-2" d="M565.94,361.24V341.12h5.58V343a7.63,7.63,0,0,1,10.64-.27,7.63,7.63,0,0,1,1.87,5.4v13.14h-5.58v-12a3.87,3.87,0,0,0-.83-2.59,3.08,3.08,0,0,0-2.45-1,3.79,3.79,0,0,0-2.32.75,3.4,3.4,0,0,0-1.33,2v12.74Z"/><path class="cls-2" d="M600.91,354.67h5.17a8,8,0,0,1-2.86,5.15,9.31,9.31,0,0,1-6.05,1.87,9.21,9.21,0,0,1-7.06-2.9,11.9,11.9,0,0,1,0-15.12,9,9,0,0,1,7-3,8.54,8.54,0,0,1,6.73,2.72,10.61,10.61,0,0,1,2.41,7.27v1.71H592.81a5.6,5.6,0,0,0,1.3,3.54,4,4,0,0,0,3.06,1.28Q600.23,357.19,600.91,354.67Zm-3.78-9.45q-3.42,0-4.19,3.78h7.79a4.14,4.14,0,0,0-1-2.73A3.33,3.33,0,0,0,597.13,345.22Z"/><path class="cls-2" d="M622,341v5.58a5.34,5.34,0,0,0-2.79-.67,4.11,4.11,0,0,0-2.48.74,3.44,3.44,0,0,0-1.35,2.09v12.47h-5.58V341.12h5.58v2a4.86,4.86,0,0,1,4.5-2.43A4.58,4.58,0,0,1,622,341Z"/><path class="cls-2" d="M638.08,359.89v-1.17a6.05,6.05,0,0,1-5,2.07,8.28,8.28,0,0,1-6.66-2.93,11.49,11.49,0,0,1,0-14.26,8.28,8.28,0,0,1,6.66-2.93,6.2,6.2,0,0,1,5,2v-1.58h5.53V359c0,3.33-.9,5.85-2.7,7.54a10,10,0,0,1-7.15,2.54,10.37,10.37,0,0,1-6.42-1.89A7.56,7.56,0,0,1,624.4,362h5.4q.68,2.84,4,2.83Q638.08,364.79,638.08,359.89Zm0-5.9v-6.57a4.14,4.14,0,0,0-3.78-2.07,4.32,4.32,0,0,0-3.47,1.49,5.78,5.78,0,0,0-1.26,3.87,5.87,5.87,0,0,0,1.26,3.89,4.27,4.27,0,0,0,3.47,1.51,4.17,4.17,0,0,0,2.22-.61A4.44,4.44,0,0,0,638.08,354Z"/><path class="cls-2" d="M656.89,368.66H651.4l2.92-7.33-7.69-20.21h5.89l4.64,13.37,4.59-13.37h5.62Z"/><path class="cls-3" d="M919.22,818.62,869,768.4V449.85a23,23,0,0,0-23-23H797v-175s0-.06,0-.09a5,5,0,0,0-.35-1.74,1.89,1.89,0,0,0-.09-.21,4.3,4.3,0,0,0-.32-.6,1.37,1.37,0,0,0-.13-.2,5.28,5.28,0,0,0-.56-.69l-108-108a5,5,0,0,0-3.59-1.45l-.14,0H306a23,23,0,0,0-23,23v684a23,23,0,0,0,23,23l265,0v49a23,23,0,0,0,23,23H714.57a3.91,3.91,0,0,0-.05.48v29.19a77.91,77.91,0,0,0,40.9,68.85v23.46a5,5,0,0,0,10,0v-26.5a5,5,0,0,0-2.78-4.48,68,68,0,0,1-38.12-61.33V941.33c0-.16,0-.32,0-.48h96.7a78.35,78.35,0,0,0,5.05,95.75,5,5,0,1,0,7.57-6.53,68.37,68.37,0,0,1,0-89.22,5,5,0,0,0-.07-6.61L770.5,864A28.6,28.6,0,0,1,789.77,816l70.69,70.7,0,0L894.84,921a5,5,0,0,0,7.07-7.07L869,881v-98.5l43.15,43.15a139.61,139.61,0,0,1,41.16,99.37V1058.3a5,5,0,0,0,10,0V925.06A149.54,149.54,0,0,0,919.22,818.62ZM689,156.1l90.91,90.75H711a22,22,0,0,1-22-22ZM306,858.81a13,13,0,0,1-13-13v-684a13,13,0,0,1,13-13H679v76a32,32,0,0,0,32,32h76v170H594a23,23,0,0,0-23,23v13H360.48a5,5,0,0,0,0,10H571v26H360.48a5,5,0,0,0,0,10H571v26H360.48a5,5,0,0,0,0,10H571v26H360.48a5,5,0,0,0,0,10H571v26H360.48a5,5,0,0,0,0,10H571v26H360.48a5,5,0,0,0,0,10H571v26H360.48a5,5,0,1,0,0,10H571v26H360.48a5,5,0,1,0,0,10H571v26H360.48a5,5,0,1,0,0,10H571v26H360.48a5,5,0,1,0,0,10H571v62ZM859,871l-63.66-63.67a5,5,0,0,0-3.48-1.46h-.46a38.64,38.64,0,0,0-38.6,38.6h0a38.32,38.32,0,0,0,10.34,26.28l54.08,60.06H594a13,13,0,0,1-13-13v-468a13,13,0,0,1,13-13H846a13,13,0,0,1,13,13Z"/></svg>