<svg id="OUTLINES" xmlns="http://www.w3.org/2000/svg" viewBox="0 0 1152 1008"><defs><style>.cls-1{fill:#000f7d;}.cls-2{fill:#fff;}</style></defs><title>passwordless-authentication</title><path class="cls-1" d="M720,720.86H234a23,23,0,0,1-23-23V269.64a23,23,0,0,1,23-23H918a23,23,0,0,1,23,23v54.72H931V269.64a13,13,0,0,0-13-13H234a13,13,0,0,0-13,13V697.86a13,13,0,0,0,13,13H720Z"/><path class="cls-1" d="M918,720.86H234a23,23,0,0,1-23-23V269.64a23,23,0,0,1,23-23H918a23,23,0,0,1,23,23V697.86A23,23,0,0,1,918,720.86ZM234,256.64a13,13,0,0,0-13,13V697.86a13,13,0,0,0,13,13H918a13,13,0,0,0,13-13V269.64a13,13,0,0,0-13-13Z"/><path class="cls-1" d="M990,761.36H162a23,23,0,0,1-23-23v-4.5a23,23,0,0,1,23-23H990a23,23,0,0,1,23,23v4.5A23,23,0,0,1,990,761.36Zm-828-40.5a13,13,0,0,0-13,13v4.5a13,13,0,0,0,13,13H990a13,13,0,0,0,13-13v-4.5a13,13,0,0,0-13-13Z"/><path class="cls-1" d="M274.61,306a4.68,4.68,0,0,0-1.68.31l27,22.91a2.35,2.35,0,0,0,3.17,0l27-22.91a4.68,4.68,0,0,0-1.68-.31Zm-4.56,3.94a4.91,4.91,0,0,0-.05.67v30.73a4.63,4.63,0,0,0,.36,1.83l18.75-17.1-19.06-16.13Zm62.9,0-19,16.11,18.7,17.12a4.63,4.63,0,0,0,.36-1.83V310.61a4.91,4.91,0,0,0-.05-.67Zm-22.54,19.11-4.32,3.67a7.08,7.08,0,0,1-9.13,0l-4.3-3.65-18.48,16.86.43,0h53.78l.46,0-18.44-16.88Z"/><path class="cls-1" d="M504,319.73H364.5a5,5,0,0,1,0-10H504a5,5,0,0,1,0,10Z"/><path class="cls-1" d="M477,342.23H364.5a5,5,0,0,1,0-10H477a5,5,0,0,1,0,10Z"/><rect class="cls-2" x="330.5" y="524" width="507" height="111" rx="24"/><path class="cls-1" d="M805.5,627h-459a24,24,0,0,1-24-24V540a24,24,0,0,1,24-24h459a24,24,0,0,1,24,24v63A24,24,0,0,1,805.5,627Zm-459-99a12,12,0,0,0-12,12v63a12,12,0,0,0,12,12h459a12,12,0,0,0,12-12V540a12,12,0,0,0-12-12Z"/><path class="cls-1" d="M403,581.47a16.32,16.32,0,0,1,0-20.57,12,12,0,0,1,9.22-4,11.63,11.63,0,0,1,7.77,2.54,11.46,11.46,0,0,1,3.8,6.82h-5.72a5.83,5.83,0,0,0-5.85-4.23,6.07,6.07,0,0,0-5.13,2.54,12.45,12.45,0,0,0,0,13.16,6,6,0,0,0,5.13,2.57c2.85,0,4.8-1.42,5.85-4.28h5.72a11.5,11.5,0,0,1-3.8,6.87,11.63,11.63,0,0,1-7.77,2.54A12,12,0,0,1,403,581.47Z"/><path class="cls-1" d="M433,555.75V585h-5.58V555.75Z"/><path class="cls-1" d="M444,559.08a3,3,0,0,1-1,2.3,3.28,3.28,0,0,1-2.32.9,3.34,3.34,0,0,1-2.36-.9,3,3,0,0,1-1-2.3,3,3,0,0,1,1-2.27,3.3,3.3,0,0,1,2.34-.93,3.22,3.22,0,0,1,2.32.93A3,3,0,0,1,444,559.08Zm-.5,5.8V585h-5.58V564.88Z"/><path class="cls-1" d="M447.05,575a10.82,10.82,0,0,1,2.7-7.6,9.93,9.93,0,0,1,13-.94,8.05,8.05,0,0,1,2.79,5.26h-5.49a2.85,2.85,0,0,0-1.1-1.82,3.62,3.62,0,0,0-2.23-.65,3.53,3.53,0,0,0-3,1.57,8.3,8.3,0,0,0,0,8.33,3.53,3.53,0,0,0,3,1.57A3.68,3.68,0,0,0,459,580a2.87,2.87,0,0,0,1.1-1.82h5.49a8.07,8.07,0,0,1-2.77,5.26,10,10,0,0,1-13-.94A10.76,10.76,0,0,1,447.05,575Z"/><path class="cls-1" d="M482.06,585l-5.89-8.1-1.62,1.76V585H469V555.75h5.58v16.61l6.88-7.48h6.93l-8.14,8.55L488.68,585Z"/><path class="cls-1" d="M501,585V555.75h5.58v11a7.64,7.64,0,0,1,10.65-.27,7.67,7.67,0,0,1,1.86,5.4V585h-5.58V573a3.82,3.82,0,0,0-.83-2.59,3.08,3.08,0,0,0-2.45-1,3.79,3.79,0,0,0-2.32.75,3.47,3.47,0,0,0-1.33,2V585Z"/><path class="cls-1" d="M535.93,578.43h5.17a8,8,0,0,1-2.86,5.15,9.31,9.31,0,0,1-6,1.87,9.21,9.21,0,0,1-7.06-2.9,11.9,11.9,0,0,1,0-15.12,9,9,0,0,1,7-3,8.51,8.51,0,0,1,6.73,2.73,10.59,10.59,0,0,1,2.41,7.26v1.71H527.83a5.57,5.57,0,0,0,1.3,3.54,4,4,0,0,0,3.06,1.28Q535.25,581,535.93,578.43ZM532.15,569q-3.42,0-4.19,3.78h7.79a4.09,4.09,0,0,0-1-2.72A3.31,3.31,0,0,0,532.15,569Z"/><path class="cls-1" d="M557,564.79v5.59a5.25,5.25,0,0,0-2.79-.68,4.18,4.18,0,0,0-2.48.74,3.44,3.44,0,0,0-1.35,2.1V585h-5.58V564.88h5.58v2a4.87,4.87,0,0,1,4.5-2.44A4.69,4.69,0,0,1,557,564.79Z"/><path class="cls-1" d="M572.33,578.43h5.18a8,8,0,0,1-2.86,5.15,10.35,10.35,0,0,1-13.12-1,11.9,11.9,0,0,1,0-15.12,9,9,0,0,1,7-3,8.48,8.48,0,0,1,6.72,2.73,10.54,10.54,0,0,1,2.41,7.26v1.71H564.23a5.58,5.58,0,0,0,1.31,3.54A4,4,0,0,0,568.6,581Q571.66,581,572.33,578.43ZM568.55,569q-3.42,0-4.18,3.78h7.78a4.09,4.09,0,0,0-1-2.72A3.31,3.31,0,0,0,568.55,569Z"/><path class="cls-1" d="M592,578.92v-9.54h-3.06v-4.5H592v-5.44h5.54v5.44h4.41v4.5h-4.41v8.83a2,2,0,0,0,2.29,2.29,4.35,4.35,0,0,0,2.43-.67v4.95a8,8,0,0,1-3.6.63,7,7,0,0,1-4.9-1.62A6.32,6.32,0,0,1,592,578.92Z"/><path class="cls-1" d="M624.53,575a10.61,10.61,0,0,1-2.74,7.57,10.12,10.12,0,0,1-14.22,0,11.84,11.84,0,0,1,0-15.17,10.09,10.09,0,0,1,14.22,0A10.67,10.67,0,0,1,624.53,575ZM619,575a7,7,0,0,0-1.15-4.2,4,4,0,0,0-6.35,0,8.25,8.25,0,0,0,0,8.37,4,4,0,0,0,6.35,0A7,7,0,0,0,619,575Z"/><path class="cls-1" d="M636.32,579h5.54c.45,1.48,1.57,2.21,3.37,2.21s2.84-.66,2.84-2a1.29,1.29,0,0,0-.48-1.06,4.16,4.16,0,0,0-1.55-.65l-4-.9q-5.22-1.21-5.22-5.67a5.73,5.73,0,0,1,2.3-4.7,8.86,8.86,0,0,1,5.71-1.83,9.37,9.37,0,0,1,5.87,1.65,7.14,7.14,0,0,1,2.68,4.56H648c-.42-1.31-1.47-2-3.15-2a3.45,3.45,0,0,0-1.87.49,1.58,1.58,0,0,0-.79,1.39c0,.76.61,1.28,1.81,1.58l4.14,1c3.56.87,5.35,2.82,5.35,5.84a5.66,5.66,0,0,1-2.32,4.78,9.49,9.49,0,0,1-5.91,1.75,10.32,10.32,0,0,1-6.12-1.69A6.71,6.71,0,0,1,636.32,579Z"/><path class="cls-1" d="M663.37,559.08a3,3,0,0,1-1,2.3,3.49,3.49,0,0,1-4.68,0,3.15,3.15,0,0,1,0-4.57,3.3,3.3,0,0,1,2.34-.93,3.24,3.24,0,0,1,2.32.93A3,3,0,0,1,663.37,559.08Zm-.5,5.8V585h-5.58V564.88Z"/><path class="cls-1" d="M680.55,583.65v-1.17a6,6,0,0,1-4.94,2.07,8.24,8.24,0,0,1-6.66-2.93,11.49,11.49,0,0,1,0-14.26,8.27,8.27,0,0,1,6.66-2.93,6.19,6.19,0,0,1,4.94,2v-1.58h5.54v17.91c0,3.33-.9,5.85-2.7,7.54a10,10,0,0,1-7.16,2.55,10.34,10.34,0,0,1-6.41-1.89,7.6,7.6,0,0,1-2.94-5.27h5.4q.66,2.84,4,2.83C679.12,588.55,680.55,586.92,680.55,583.65Zm0-5.9v-6.57a4.13,4.13,0,0,0-3.77-2.06,4.3,4.3,0,0,0-3.47,1.48,5.78,5.78,0,0,0-1.26,3.87,5.85,5.85,0,0,0,1.26,3.89,4.26,4.26,0,0,0,3.47,1.51,4.48,4.48,0,0,0,3.77-2.12Z"/><path class="cls-1" d="M691,585V564.88h5.58v1.85a7.63,7.63,0,0,1,10.64-.27,7.63,7.63,0,0,1,1.87,5.4V585h-5.58V573a3.87,3.87,0,0,0-.83-2.59,3.08,3.08,0,0,0-2.45-1,3.77,3.77,0,0,0-2.32.75,3.43,3.43,0,0,0-1.33,2V585Z"/><path class="cls-1" d="M729.29,559.08a3,3,0,0,1-1,2.3,3.28,3.28,0,0,1-2.32.9,3.34,3.34,0,0,1-2.36-.9,3,3,0,0,1-1-2.3,3,3,0,0,1,1-2.27,3.32,3.32,0,0,1,2.34-.93,3.22,3.22,0,0,1,2.32.93A3,3,0,0,1,729.29,559.08Zm-.5,5.8V585h-5.58V564.88Z"/><path class="cls-1" d="M733.65,585V564.88h5.58v1.85a7.64,7.64,0,0,1,10.65-.27,7.67,7.67,0,0,1,1.86,5.4V585h-5.58V573a3.82,3.82,0,0,0-.83-2.59,3.06,3.06,0,0,0-2.45-1,3.81,3.81,0,0,0-2.32.75,3.47,3.47,0,0,0-1.33,2V585Z"/><path class="cls-1" d="M299.84,413.91v-5h23.58v5h-8.91V436.5h-5.8V413.91Z"/><path class="cls-1" d="M327,436.5V407.25h5.58v11A7.64,7.64,0,0,1,343.2,418a7.67,7.67,0,0,1,1.86,5.4V436.5h-5.57v-12a3.82,3.82,0,0,0-.84-2.59,3.06,3.06,0,0,0-2.45-1,3.81,3.81,0,0,0-2.32.75,3.47,3.47,0,0,0-1.33,2V436.5Z"/><path class="cls-1" d="M361.94,429.93h5.17a8,8,0,0,1-2.85,5.15A9.35,9.35,0,0,1,358.2,437a9.21,9.21,0,0,1-7.06-2.9,11.9,11.9,0,0,1,0-15.12,9,9,0,0,1,6.95-3,8.5,8.5,0,0,1,6.73,2.73,10.54,10.54,0,0,1,2.41,7.26v1.71H353.84a5.57,5.57,0,0,0,1.3,3.54,4,4,0,0,0,3.06,1.28Q361.26,432.45,361.94,429.93Zm-3.78-9.45q-3.42,0-4.19,3.78h7.79a4.09,4.09,0,0,0-1-2.72A3.31,3.31,0,0,0,358.16,420.48Z"/><path class="cls-1" d="M392.13,407.38v4.73a3.36,3.36,0,0,0-2-.54c-1.83,0-2.74.93-2.74,2.79v2h4.18v4.5h-4.18V436.5h-5.49V420.88h-3.29v-4.5h3.29V414a6.61,6.61,0,0,1,7.11-7.16A7.84,7.84,0,0,1,392.13,407.38Z"/><path class="cls-1" d="M413.15,426.46A10.61,10.61,0,0,1,410.4,434a10.12,10.12,0,0,1-14.22,0,11.87,11.87,0,0,1,0-15.17,10.09,10.09,0,0,1,14.22,0A10.67,10.67,0,0,1,413.15,426.46Zm-5.54,0a7.08,7.08,0,0,0-1.14-4.2,4,4,0,0,0-6.35,0,8.19,8.19,0,0,0,0,8.37,4,4,0,0,0,6.35,0A7,7,0,0,0,407.61,426.46Z"/><path class="cls-1" d="M422.28,407.25V436.5H416.7V407.25Z"/><path class="cls-1" d="M432.72,407.25V436.5h-5.58V407.25Z"/><path class="cls-1" d="M456,426.46a10.61,10.61,0,0,1-2.74,7.57,10.12,10.12,0,0,1-14.22,0,11.84,11.84,0,0,1,0-15.17,10.09,10.09,0,0,1,14.22,0A10.67,10.67,0,0,1,456,426.46Zm-5.53,0a7,7,0,0,0-1.15-4.2,3.94,3.94,0,0,0-6.34,0,8.19,8.19,0,0,0,0,8.37,4,4,0,0,0,6.34,0A7,7,0,0,0,450.5,426.46Z"/><path class="cls-1" d="M474.26,416.38l3.33,12.83,3.6-12.83h5.4l-6.12,20.12h-5.13l-3.29-12.33-3.28,12.33h-5.13l-6.12-20.12h5.58l3.6,12.83L470,416.38Z"/><path class="cls-1" d="M495.68,410.58a3,3,0,0,1-1,2.3,3.28,3.28,0,0,1-2.32.9,3.34,3.34,0,0,1-2.36-.9,3,3,0,0,1-1-2.3,3,3,0,0,1,1-2.27,3.3,3.3,0,0,1,2.34-.93,3.22,3.22,0,0,1,2.32.93A3,3,0,0,1,495.68,410.58Zm-.5,5.8V436.5H489.6V416.38Z"/><path class="cls-1" d="M500,436.5V416.38h5.58v1.85a7.64,7.64,0,0,1,10.65-.27,7.67,7.67,0,0,1,1.86,5.4V436.5h-5.58v-12a3.82,3.82,0,0,0-.83-2.59,3.06,3.06,0,0,0-2.45-1,3.81,3.81,0,0,0-2.32.75,3.47,3.47,0,0,0-1.33,2V436.5Z"/><path class="cls-1" d="M535.59,435.15V434a6.05,6.05,0,0,1-5,2.07,8.25,8.25,0,0,1-6.66-2.93,11.53,11.53,0,0,1,0-14.26,8.28,8.28,0,0,1,6.66-2.93,6.2,6.2,0,0,1,5,2v-1.58h5.54v17.91c0,3.33-.9,5.85-2.7,7.54a10,10,0,0,1-7.16,2.55,10.34,10.34,0,0,1-6.41-1.89,7.61,7.61,0,0,1-3-5.27h5.4q.68,2.83,4,2.83Q535.59,440.05,535.59,435.15Zm0-5.9v-6.57a4.15,4.15,0,0,0-3.78-2.06,4.29,4.29,0,0,0-3.46,1.48,5.78,5.78,0,0,0-1.26,3.87,5.85,5.85,0,0,0,1.26,3.89,4.25,4.25,0,0,0,3.46,1.51,4.2,4.2,0,0,0,2.23-.61A4.24,4.24,0,0,0,535.59,429.25Z"/><path class="cls-1" d="M561.11,407.25V436.5h-5.58V407.25Z"/><path class="cls-1" d="M572,410.58a3,3,0,0,1-1,2.3,3.26,3.26,0,0,1-2.31.9,3.37,3.37,0,0,1-2.37-.9,3,3,0,0,1-1-2.3,3,3,0,0,1,1-2.27,3.3,3.3,0,0,1,2.34-.93,3.2,3.2,0,0,1,2.31.93A3,3,0,0,1,572,410.58Zm-.49,5.8V436.5H566V416.38Z"/><path class="cls-1" d="M576.41,436.5V416.38H582v1.85a7.63,7.63,0,0,1,10.64-.27,7.68,7.68,0,0,1,1.87,5.4V436.5h-5.58v-12a3.82,3.82,0,0,0-.84-2.59,3.06,3.06,0,0,0-2.45-1,3.81,3.81,0,0,0-2.32.75,3.46,3.46,0,0,0-1.32,2V436.5Z"/><path class="cls-1" d="M612.23,436.5l-5.9-8.1-1.62,1.76v6.34h-5.58V407.25h5.58v16.61l6.89-7.48h6.93l-8.15,8.55,8.46,11.57Z"/><path class="cls-1" d="M629.87,426.46a10.77,10.77,0,0,1,2.7-7.6,9.92,9.92,0,0,1,13-.94,8.05,8.05,0,0,1,2.79,5.26h-5.49a2.85,2.85,0,0,0-1.1-1.82,3.62,3.62,0,0,0-2.23-.65,3.5,3.5,0,0,0-3,1.57,8.24,8.24,0,0,0,0,8.33,3.5,3.5,0,0,0,3,1.57,3.68,3.68,0,0,0,2.23-.65,2.87,2.87,0,0,0,1.1-1.82h5.49a8.07,8.07,0,0,1-2.77,5.26,10,10,0,0,1-13-.94A10.71,10.71,0,0,1,629.87,426.46Z"/><path class="cls-1" d="M668.29,436.5h-5.35v-1.08a5,5,0,0,1-1.94,1,9.62,9.62,0,0,1-3,.45,8.13,8.13,0,0,1-5.33-1.75,5.88,5.88,0,0,1-2.14-4.78,5.71,5.71,0,0,1,2.23-4.63,8.57,8.57,0,0,1,5.56-1.8,10.12,10.12,0,0,1,2.61.36,6.34,6.34,0,0,1,2,.81v-1.49a3.1,3.1,0,0,0-.83-2.22,3.23,3.23,0,0,0-2.46-.88,2.86,2.86,0,0,0-3,1.89h-5.3a7.11,7.11,0,0,1,2.76-4.61,10.15,10.15,0,0,1,11.93.22,7.37,7.37,0,0,1,2.22,5.69ZM662.94,431v-1.44a2.62,2.62,0,0,0-1.37-1.28,5.29,5.29,0,0,0-2.28-.47,4.75,4.75,0,0,0-2.49.63,2.14,2.14,0,0,0,0,3.68,4.67,4.67,0,0,0,2.52.63,5.29,5.29,0,0,0,2.28-.47A2.62,2.62,0,0,0,662.94,431Z"/><path class="cls-1" d="M672.84,436.5V416.38h5.58v1.85a7.63,7.63,0,0,1,10.64-.27,7.63,7.63,0,0,1,1.87,5.4V436.5h-5.58v-12a3.87,3.87,0,0,0-.83-2.59,3.1,3.1,0,0,0-2.46-1,3.76,3.76,0,0,0-2.31.75,3.43,3.43,0,0,0-1.33,2V436.5Z"/><path class="cls-1" d="M710.68,434.83v1.67h-5.62V407.25h5.62v10.8a5.89,5.89,0,0,1,2.12-1.48,7,7,0,0,1,2.92-.64,8.18,8.18,0,0,1,6.69,3,12.72,12.72,0,0,1,0,15,8.21,8.21,0,0,1-6.69,3,7,7,0,0,1-2.92-.63A5.78,5.78,0,0,1,710.68,434.83Zm0-11.7v6.62a4.17,4.17,0,0,0,3.78,2.34,4.3,4.3,0,0,0,3.51-1.58,6.12,6.12,0,0,0,1.31-4.05,6.25,6.25,0,0,0-1.31-4.07,4.31,4.31,0,0,0-3.51-1.6,4.1,4.1,0,0,0-2.25.66A4,4,0,0,0,710.68,423.13Z"/><path class="cls-1" d="M740.88,429.93h5.17a8,8,0,0,1-2.85,5.15,9.35,9.35,0,0,1-6.06,1.87,9.21,9.21,0,0,1-7.06-2.9,11.9,11.9,0,0,1,0-15.12,9,9,0,0,1,6.95-3,8.51,8.51,0,0,1,6.73,2.73,10.59,10.59,0,0,1,2.41,7.26v1.71H732.78a5.57,5.57,0,0,0,1.3,3.54,4,4,0,0,0,3.06,1.28Q740.2,432.45,740.88,429.93Zm-3.78-9.45q-3.42,0-4.19,3.78h7.79a4.09,4.09,0,0,0-1-2.72A3.31,3.31,0,0,0,737.1,420.48Z"/><path class="cls-1" d="M777.1,416.38V436.5h-5.58v-1.84a7,7,0,0,1-5.4,2.29,6.7,6.7,0,0,1-5.2-2,7.63,7.63,0,0,1-1.86-5.39V416.38h5.58v12a3.88,3.88,0,0,0,.81,2.61,3,3,0,0,0,2.43.95,3.68,3.68,0,0,0,2.29-.75,3.46,3.46,0,0,0,1.31-2V416.38Z"/><path class="cls-1" d="M780.61,430.51h5.54c.45,1.48,1.57,2.21,3.37,2.21s2.84-.66,2.84-2a1.29,1.29,0,0,0-.48-1.06,4.16,4.16,0,0,0-1.55-.65l-4.05-.9q-5.22-1.22-5.22-5.67a5.73,5.73,0,0,1,2.3-4.7,8.86,8.86,0,0,1,5.71-1.83,9.37,9.37,0,0,1,5.87,1.65,7.14,7.14,0,0,1,2.68,4.56h-5.31c-.42-1.31-1.47-2-3.15-2a3.45,3.45,0,0,0-1.87.49,1.57,1.57,0,0,0-.78,1.39c0,.76.6,1.28,1.8,1.58l4.14.95q5.35,1.31,5.35,5.84a5.66,5.66,0,0,1-2.32,4.78,9.49,9.49,0,0,1-5.91,1.75,10.32,10.32,0,0,1-6.12-1.69A6.74,6.74,0,0,1,780.61,430.51Z"/><path class="cls-1" d="M813.82,429.93H819a8,8,0,0,1-2.86,5.15,9.32,9.32,0,0,1-6,1.87,9.23,9.23,0,0,1-7.07-2.9,11.9,11.9,0,0,1,0-15.12,9,9,0,0,1,7-3,8.48,8.48,0,0,1,6.72,2.73,10.54,10.54,0,0,1,2.41,7.26v1.71H805.72a5.58,5.58,0,0,0,1.31,3.54,4,4,0,0,0,3.06,1.28Q813.15,432.45,813.82,429.93ZM810,420.48q-3.42,0-4.18,3.78h7.78a4.09,4.09,0,0,0-1-2.72A3.31,3.31,0,0,0,810,420.48Z"/><path class="cls-1" d="M835.78,436.5v-1.67a5.74,5.74,0,0,1-2.11,1.49,7.05,7.05,0,0,1-2.93.63,8.18,8.18,0,0,1-6.68-3,12.72,12.72,0,0,1,0-15,8.15,8.15,0,0,1,6.68-3,7.06,7.06,0,0,1,2.93.64,5.84,5.84,0,0,1,2.11,1.48v-10.8h5.63V436.5Zm0-6.75v-6.62a4,4,0,0,0-1.53-1.68,4.1,4.1,0,0,0-2.25-.66,4.31,4.31,0,0,0-3.51,1.6,6.25,6.25,0,0,0-1.3,4.07,6.12,6.12,0,0,0,1.3,4.05,4.3,4.3,0,0,0,3.51,1.58,4.17,4.17,0,0,0,3.78-2.34Z"/><path class="cls-1" d="M331.43,475.42v-9.54h-3.06v-4.5h3.06v-5.44H337v5.44h4.42v4.5H337v8.83a2,2,0,0,0,2.3,2.29,4.35,4.35,0,0,0,2.43-.67v4.95a8,8,0,0,1-3.6.63,7,7,0,0,1-4.9-1.62A6.32,6.32,0,0,1,331.43,475.42Z"/><path class="cls-1" d="M364,471.46a10.61,10.61,0,0,1-2.75,7.57A10.12,10.12,0,0,1,347,479a11.87,11.87,0,0,1,0-15.17,10.09,10.09,0,0,1,14.22,0A10.67,10.67,0,0,1,364,471.46Zm-5.54,0a7.08,7.08,0,0,0-1.14-4.2,4,4,0,0,0-6.35,0,8.19,8.19,0,0,0,0,8.37,4,4,0,0,0,6.35,0A7,7,0,0,0,358.47,471.46Z"/><path class="cls-1" d="M393.62,481.5h-5.36v-1.08a4.93,4.93,0,0,1-1.93,1,9.62,9.62,0,0,1-3,.45,8.11,8.11,0,0,1-5.33-1.75,5.85,5.85,0,0,1-2.14-4.78,5.68,5.68,0,0,1,2.23-4.63,8.53,8.53,0,0,1,5.55-1.8,10.12,10.12,0,0,1,2.61.36,6.34,6.34,0,0,1,2,.81v-1.49a3.06,3.06,0,0,0-.83-2.22,3.19,3.19,0,0,0-2.45-.88,2.86,2.86,0,0,0-3,1.89H376.7a7.12,7.12,0,0,1,2.77-4.61,10.13,10.13,0,0,1,11.92.22,7.35,7.35,0,0,1,2.23,5.69ZM388.26,476v-1.44a2.58,2.58,0,0,0-1.37-1.28,5.21,5.21,0,0,0-2.27-.47,4.81,4.81,0,0,0-2.5.63,2.14,2.14,0,0,0,0,3.68,4.67,4.67,0,0,0,2.52.63,5.21,5.21,0,0,0,2.27-.47A2.58,2.58,0,0,0,388.26,476Z"/><path class="cls-1" d="M416,461.38V481.5H410.4v-1.84A7,7,0,0,1,405,482a6.66,6.66,0,0,1-5.19-2,7.59,7.59,0,0,1-1.87-5.39V461.38h5.58v12a3.88,3.88,0,0,0,.81,2.61,3,3,0,0,0,2.43.95,3.68,3.68,0,0,0,2.29-.75,3.46,3.46,0,0,0,1.31-2V461.38Z"/><path class="cls-1" d="M422,475.42v-9.54H419v-4.5H422v-5.44h5.54v5.44H432v4.5h-4.41v8.83a2,2,0,0,0,2.29,2.29,4.35,4.35,0,0,0,2.43-.67v4.95a8,8,0,0,1-3.6.63,7,7,0,0,1-4.9-1.62A6.32,6.32,0,0,1,422,475.42Z"/><path class="cls-1" d="M454.59,471.46a10.61,10.61,0,0,1-2.74,7.57,10.12,10.12,0,0,1-14.22,0,11.84,11.84,0,0,1,0-15.17,10.09,10.09,0,0,1,14.22,0A10.67,10.67,0,0,1,454.59,471.46Zm-5.53,0a7,7,0,0,0-1.15-4.2,3.94,3.94,0,0,0-6.34,0,8.19,8.19,0,0,0,0,8.37,4,4,0,0,0,6.34,0A7,7,0,0,0,449.06,471.46Z"/><path class="cls-1" d="M474.21,463.5a7.86,7.86,0,0,1,6.08-2.57,6.11,6.11,0,0,1,4.86,2,7.92,7.92,0,0,1,1.75,5.42V481.5h-5.58v-12a4.17,4.17,0,0,0-.74-2.63,2.53,2.53,0,0,0-2.14-1,3.11,3.11,0,0,0-2,.68,3.18,3.18,0,0,0-1.12,1.93v13h-5.63v-12q0-3.6-2.83-3.6a3.09,3.09,0,0,0-2,.7,3.21,3.21,0,0,0-1.15,1.91v13h-5.58V461.38h5.58v1.67a6.07,6.07,0,0,1,5.08-2.12A6.38,6.38,0,0,1,474.21,463.5Z"/><path class="cls-1" d="M508.05,481.5H502.7v-1.08a5,5,0,0,1-1.94,1,9.62,9.62,0,0,1-3,.45,8.11,8.11,0,0,1-5.33-1.75,5.88,5.88,0,0,1-2.14-4.78,5.68,5.68,0,0,1,2.23-4.63,8.57,8.57,0,0,1,5.56-1.8,10.12,10.12,0,0,1,2.61.36,6.34,6.34,0,0,1,2,.81v-1.49a3.1,3.1,0,0,0-.83-2.22,3.23,3.23,0,0,0-2.46-.88,2.86,2.86,0,0,0-3,1.89h-5.31a7.12,7.12,0,0,1,2.77-4.61,10.15,10.15,0,0,1,11.93.22,7.37,7.37,0,0,1,2.22,5.69ZM502.7,476v-1.44a2.62,2.62,0,0,0-1.37-1.28,5.29,5.29,0,0,0-2.28-.47,4.81,4.81,0,0,0-2.5.63,2.15,2.15,0,0,0,0,3.68,4.67,4.67,0,0,0,2.52.63,5.29,5.29,0,0,0,2.28-.47A2.62,2.62,0,0,0,502.7,476Z"/><path class="cls-1" d="M513.63,475.42v-9.54h-3.06v-4.5h3.06v-5.44h5.54v5.44h4.41v4.5h-4.41v8.83a2,2,0,0,0,2.29,2.29,4.35,4.35,0,0,0,2.43-.67v4.95a8,8,0,0,1-3.6.63,7,7,0,0,1-4.9-1.62A6.32,6.32,0,0,1,513.63,475.42Z"/><path class="cls-1" d="M534,455.58a3,3,0,0,1-1,2.3,3.49,3.49,0,0,1-4.68,0,3.15,3.15,0,0,1,0-4.57,3.3,3.3,0,0,1,2.34-.93,3.24,3.24,0,0,1,2.32.93A3,3,0,0,1,534,455.58Zm-.5,5.8V481.5h-5.58V461.38Z"/><path class="cls-1" d="M537.12,471.46a10.77,10.77,0,0,1,2.7-7.6,9.93,9.93,0,0,1,13-.94,8.1,8.1,0,0,1,2.79,5.26h-5.5a2.81,2.81,0,0,0-1.1-1.82,3.58,3.58,0,0,0-2.23-.65,3.52,3.52,0,0,0-3,1.57,8.3,8.3,0,0,0,0,8.33,3.52,3.52,0,0,0,3,1.57,3.64,3.64,0,0,0,2.23-.65,2.83,2.83,0,0,0,1.1-1.82h5.5a8.12,8.12,0,0,1-2.77,5.26,10,10,0,0,1-13-.94A10.71,10.71,0,0,1,537.12,471.46Z"/><path class="cls-1" d="M575.55,481.5H570.2v-1.08a5,5,0,0,1-1.94,1,9.62,9.62,0,0,1-3,.45,8.11,8.11,0,0,1-5.33-1.75,5.85,5.85,0,0,1-2.14-4.78,5.68,5.68,0,0,1,2.23-4.63,8.54,8.54,0,0,1,5.56-1.8,10.12,10.12,0,0,1,2.61.36,6.34,6.34,0,0,1,2,.81v-1.49a3.06,3.06,0,0,0-.84-2.22,3.19,3.19,0,0,0-2.45-.88,2.86,2.86,0,0,0-3,1.89h-5.31a7.12,7.12,0,0,1,2.77-4.61,10.13,10.13,0,0,1,11.92.22,7.35,7.35,0,0,1,2.23,5.69ZM570.2,476v-1.44a2.6,2.6,0,0,0-1.38-1.28,5.21,5.21,0,0,0-2.27-.47,4.81,4.81,0,0,0-2.5.63,2.15,2.15,0,0,0,0,3.68,4.67,4.67,0,0,0,2.52.63,5.21,5.21,0,0,0,2.27-.47A2.6,2.6,0,0,0,570.2,476Z"/><path class="cls-1" d="M585.67,452.25V481.5h-5.58V452.25Z"/><path class="cls-1" d="M596.11,452.25V481.5h-5.58V452.25Z"/><path class="cls-1" d="M609.39,488.92H603.9l2.93-7.33-7.7-20.21H605l4.63,13.37,4.59-13.37h5.63Z"/><path class="cls-1" d="M631.12,475.51h5.54c.45,1.48,1.57,2.21,3.37,2.21s2.84-.66,2.84-2a1.31,1.31,0,0,0-.47-1.06,4.3,4.3,0,0,0-1.56-.65l-4.05-.9q-5.22-1.22-5.22-5.67a5.73,5.73,0,0,1,2.3-4.7,8.86,8.86,0,0,1,5.71-1.83,9.42,9.42,0,0,1,5.88,1.65,7.17,7.17,0,0,1,2.67,4.56h-5.31c-.42-1.31-1.47-2-3.15-2a3.4,3.4,0,0,0-1.86.49,1.56,1.56,0,0,0-.79,1.39c0,.76.6,1.28,1.8,1.58l4.14.95q5.35,1.31,5.35,5.84A5.68,5.68,0,0,1,646,480.2a9.55,9.55,0,0,1-5.92,1.75,10.32,10.32,0,0,1-6.12-1.69A6.74,6.74,0,0,1,631.12,475.51Z"/><path class="cls-1" d="M658.17,455.58a3,3,0,0,1-1,2.3,3.28,3.28,0,0,1-2.32.9,3.34,3.34,0,0,1-2.36-.9,3,3,0,0,1-1-2.3,3,3,0,0,1,1-2.27,3.3,3.3,0,0,1,2.34-.93,3.22,3.22,0,0,1,2.32.93A3,3,0,0,1,658.17,455.58Zm-.5,5.8V481.5h-5.58V461.38Z"/><path class="cls-1" d="M675.36,480.15V479a6.05,6.05,0,0,1-5,2.07,8.25,8.25,0,0,1-6.66-2.93,11.49,11.49,0,0,1,0-14.26,8.28,8.28,0,0,1,6.66-2.93,6.2,6.2,0,0,1,5,2v-1.58h5.53v17.91c0,3.33-.9,5.85-2.7,7.54a10,10,0,0,1-7.15,2.55,10.32,10.32,0,0,1-6.41-1.89,7.57,7.57,0,0,1-3-5.27h5.4q.67,2.83,4,2.83Q675.36,485.05,675.36,480.15Zm0-5.9v-6.57a4.15,4.15,0,0,0-3.78-2.06,4.31,4.31,0,0,0-3.47,1.48,5.78,5.78,0,0,0-1.26,3.87,5.85,5.85,0,0,0,1.26,3.89,4.27,4.27,0,0,0,3.47,1.51,4.23,4.23,0,0,0,2.23-.61A4.32,4.32,0,0,0,675.36,474.25Z"/><path class="cls-1" d="M685.75,481.5V461.38h5.58v1.85A7.64,7.64,0,0,1,702,463a7.67,7.67,0,0,1,1.86,5.4V481.5h-5.58v-12a3.82,3.82,0,0,0-.83-2.59,3.06,3.06,0,0,0-2.45-1,3.81,3.81,0,0,0-2.32.75,3.47,3.47,0,0,0-1.33,2V481.5Z"/><path class="cls-1" d="M726.43,488.92h-5.49l2.93-7.33-7.7-20.21h5.9l4.63,13.37,4.59-13.37h5.63Z"/><path class="cls-1" d="M757.75,471.46A10.61,10.61,0,0,1,755,479a10.12,10.12,0,0,1-14.22,0,11.84,11.84,0,0,1,0-15.17,10.09,10.09,0,0,1,14.22,0A10.67,10.67,0,0,1,757.75,471.46Zm-5.53,0a7,7,0,0,0-1.15-4.2,3.94,3.94,0,0,0-6.34,0,8.19,8.19,0,0,0,0,8.37,4,4,0,0,0,6.34,0A7,7,0,0,0,752.22,471.46Z"/><path class="cls-1" d="M779.13,461.38V481.5h-5.58v-1.84a7,7,0,0,1-5.4,2.29,6.7,6.7,0,0,1-5.2-2,7.63,7.63,0,0,1-1.87-5.39V461.38h5.58v12a3.88,3.88,0,0,0,.81,2.61,3,3,0,0,0,2.43.95,3.71,3.71,0,0,0,2.3-.75,3.45,3.45,0,0,0,1.3-2V461.38Z"/><path class="cls-1" d="M799.56,455.58a3,3,0,0,1-1,2.3,3.49,3.49,0,0,1-4.68,0,3.15,3.15,0,0,1,0-4.57,3.3,3.3,0,0,1,2.34-.93,3.24,3.24,0,0,1,2.32.93A3,3,0,0,1,799.56,455.58Zm-.5,5.8V481.5h-5.58V461.38Z"/><path class="cls-1" d="M803.92,481.5V461.38h5.58v1.85a7.63,7.63,0,0,1,10.64-.27,7.63,7.63,0,0,1,1.87,5.4V481.5h-5.58v-12a3.87,3.87,0,0,0-.83-2.59,3.08,3.08,0,0,0-2.45-1,3.79,3.79,0,0,0-2.32.75,3.43,3.43,0,0,0-1.33,2V481.5Z"/></svg>