<svg id="OUTLINES" xmlns="http://www.w3.org/2000/svg" xmlns:xlink="http://www.w3.org/1999/xlink" viewBox="0 0 1152 1008"><defs><style>.cls-1{fill:none;}.cls-2{isolation:isolate;}.cls-3{clip-path:url(#clip-path);}.cls-4{fill:#fff;}.cls-5{fill:#000f7d;}</style><clipPath id="clip-path"><polygon class="cls-1" points="314.15 602.97 315.47 139.47 549.73 274.72 548.41 738.22 314.15 602.97"/></clipPath></defs><title>activity-based-permission</title><g class="cls-2"><g class="cls-3"><path class="cls-4" d="M382.09,208.74l-25-14.45c-9.13-5.26-16.57-1-16.6,9.45l-.08,28.76a31.51,31.51,0,0,0,3.12,13c3,6.5,7.87,12.41,13.37,15.59l25,14.45c9.12,5.27,16.56,1,16.59-9.45l.09-28.76a29.21,29.21,0,0,0-1.56-9c-2.64-8-8.33-15.72-14.93-19.53"/><path class="cls-4" d="M449,247.39l-25-14.45c-9.12-5.26-16.56-1-16.59,9.45l-.08,28.76a31.49,31.49,0,0,0,3.11,13c3,6.5,7.87,12.41,13.37,15.59l25,14.45c9.11,5.26,16.55,1,16.58-9.45l.09-28.76a29.06,29.06,0,0,0-1.57-9c-2.63-8-8.32-15.7-14.91-19.51"/><path class="cls-4" d="M516,286l-25-14.45c-9.12-5.26-16.56-1-16.59,9.45l-.08,28.76a31.53,31.53,0,0,0,3.11,13c3,6.49,7.87,12.41,13.37,15.58l25,14.46c9.11,5.26,16.55,1,16.58-9.46l.08-28.76a28.74,28.74,0,0,0-1.56-9c-2.63-8-8.32-15.71-14.91-19.51"/><path class="cls-4" d="M381.87,285.66l-25-14.45c-9.12-5.27-16.56-1-16.59,9.45l-.09,28.76a31.56,31.56,0,0,0,3.11,12.94c3,6.5,7.87,12.43,13.38,15.61l25,14.45c9.13,5.26,16.57,1,16.6-9.45l.08-28.76a28.57,28.57,0,0,0-1.56-9c-2.63-8-8.32-15.73-14.93-19.54"/><path class="cls-4" d="M448.82,324.31l-25-14.45c-9.12-5.26-16.56-1-16.59,9.45l-.08,28.76A31.44,31.44,0,0,0,410.23,361c3,6.5,7.87,12.43,13.37,15.61l25,14.45c9.12,5.26,16.56,1,16.59-9.46l.08-28.76a28.62,28.62,0,0,0-1.56-9c-2.63-8-8.33-15.72-14.92-19.53"/><path class="cls-4" d="M515.76,363l-25-14.45c-9.12-5.27-16.56-1-16.59,9.45l-.08,28.76a31.44,31.44,0,0,0,3.11,12.94c3,6.5,7.86,12.43,13.37,15.6l25,14.45c9.11,5.27,16.56,1,16.58-9.45l.09-28.76a29,29,0,0,0-1.56-9c-2.63-8-8.33-15.71-14.92-19.52"/><path class="cls-4" d="M381.65,362.58l-25-14.45c-9.12-5.27-16.56-1-16.59,9.46L340,386.35a31.37,31.37,0,0,0,3.11,13c3,6.49,7.87,12.41,13.37,15.58l25,14.45c9.12,5.27,16.56,1,16.59-9.45l.08-28.76a28.68,28.68,0,0,0-1.56-9c-2.63-8-8.32-15.72-14.93-19.53"/><path class="cls-4" d="M448.6,401.23l-25-14.45c-9.12-5.27-16.56-1-16.59,9.46L406.9,425A31.47,31.47,0,0,0,410,438c3,6.5,7.86,12.42,13.36,15.59l25,14.45c9.12,5.27,16.56,1,16.59-9.45l.08-28.76a28.74,28.74,0,0,0-1.56-9c-2.64-8-8.33-15.72-14.92-19.52"/><path class="cls-4" d="M381.29,492.54l-25-14.45c-9.12-5.27-16.56-1-16.59,9.45l-.08,28.76a31.35,31.35,0,0,0,3.12,13c3,6.5,7.86,12.41,13.36,15.59l25,14.44c9.12,5.27,16.56,1,16.59-9.44l.08-28.77a28.73,28.73,0,0,0-1.56-9c-2.63-8-8.32-15.71-14.92-19.52"/><path class="cls-4" d="M448.23,531.19l-25-14.45c-9.11-5.27-16.56-1-16.59,9.45L406.53,555a31.55,31.55,0,0,0,3.12,13c3,6.49,7.86,12.41,13.36,15.58L448,598c9.12,5.26,16.56,1,16.59-9.46l.08-28.76a28.74,28.74,0,0,0-1.56-9c-2.64-8-8.33-15.71-14.92-19.51"/><path class="cls-4" d="M515.17,569.84l-25-14.45c-9.12-5.27-16.56-1-16.59,9.45l-.08,28.76a31.47,31.47,0,0,0,3.12,12.95c3,6.5,7.86,12.42,13.36,15.59l25,14.45c9.12,5.27,16.56,1,16.59-9.45l.08-28.76a28.74,28.74,0,0,0-1.56-9c-2.64-8-8.33-15.71-14.92-19.51"/><path class="cls-5" d="M330.71,602.44C326.44,600,323,594,323,589l1.2-425.51c0-4.91,3.51-6.9,7.79-4.43L533.16,275.25c4.28,2.48,7.75,8.48,7.73,13.4l-1.2,425.51c0,4.91-3.51,6.91-7.79,4.44L330.71,602.44M533.19,265.17,332,149c-9.12-5.26-16.56-1-16.59,9.46L314.21,584c0,10.47,7.36,23.27,16.47,28.54L531.87,728.67c9.12,5.27,16.57,1,16.59-9.45l1.21-425.51c0-10.47-7.36-23.27-16.48-28.54"/><path class="cls-5" d="M431.39,632.18c-5.35-3.09-9.69-10.61-9.68-16.76s4.39-8.64,9.74-5.55,9.69,10.61,9.67,16.76-4.38,8.63-9.73,5.55m.09-32.39c-10.19-5.88-18.5-1.15-18.54,10.56s8.23,26,18.42,31.91,18.51,1.14,18.54-10.57-8.23-26-18.42-31.9"/><path class="cls-5" d="M347.15,237.69a15.36,15.36,0,0,1-2-7.12l.08-28.76c0-4.92,3.51-6.91,7.79-4.44l25,14.45c3.39,2,6.27,6.13,7.32,10.22a13.18,13.18,0,0,1,.42,3.18L385.72,254c0,4.92-3.51,6.91-7.79,4.44l-25-14.45a16.05,16.05,0,0,1-5.76-6.28m30.94-35.95-25-14.45c-9.13-5.26-16.57-1-16.6,9.45l-.08,28.76a31.51,31.51,0,0,0,3.12,13c3,6.5,7.87,12.41,13.37,15.59l25,14.45c9.12,5.27,16.56,1,16.59-9.45l.09-28.76a29.21,29.21,0,0,0-1.56-9c-2.64-8-8.33-15.72-14.93-19.53"/><path class="cls-5" d="M414.09,276.34a15.36,15.36,0,0,1-2-7.12l.08-28.76c0-4.92,3.51-6.91,7.79-4.44l25,14.45c3.38,1.95,6.26,6.13,7.31,10.22a12.31,12.31,0,0,1,.42,3.18l-.08,28.76c0,4.92-3.51,6.91-7.78,4.44l-25-14.45a16.05,16.05,0,0,1-5.76-6.28m31-35.95-25-14.45c-9.12-5.26-16.56-1-16.59,9.45l-.08,28.76a31.49,31.49,0,0,0,3.11,13c3,6.5,7.87,12.41,13.37,15.59l25,14.45c9.11,5.26,16.55,1,16.58-9.45l.09-28.76a29.06,29.06,0,0,0-1.57-9c-2.63-8-8.32-15.7-14.91-19.51"/><path class="cls-5" d="M481,315a15.32,15.32,0,0,1-2-7.11l.08-28.77c0-4.92,3.51-6.9,7.79-4.43l25,14.45c3.38,1.95,6.26,6.12,7.31,10.22a12.25,12.25,0,0,1,.42,3.18l-.08,28.76c0,4.92-3.5,6.91-7.79,4.44l-25-14.45A16.06,16.06,0,0,1,481,315M512,279l-25-14.45c-9.12-5.26-16.56-1-16.59,9.45l-.08,28.76a31.53,31.53,0,0,0,3.11,13c3,6.49,7.87,12.41,13.37,15.58l25,14.46c9.11,5.26,16.55,1,16.58-9.46l.08-28.76a28.74,28.74,0,0,0-1.56-9c-2.63-8-8.32-15.71-14.91-19.51"/><path class="cls-5" d="M346.93,314.6a15.29,15.29,0,0,1-2-7.11l.08-28.76c0-4.92,3.51-6.91,7.79-4.43l25,14.44c3.39,2,6.27,6.13,7.32,10.22a13.18,13.18,0,0,1,.42,3.18l-.08,28.76c0,4.92-3.51,6.91-7.79,4.44l-25-14.45a16,16,0,0,1-5.76-6.29m30.94-35.94-25-14.45c-9.12-5.27-16.56-1-16.59,9.45l-.09,28.76a31.56,31.56,0,0,0,3.11,12.94c3,6.5,7.87,12.43,13.38,15.61l25,14.45c9.13,5.26,16.57,1,16.6-9.45l.08-28.76a28.57,28.57,0,0,0-1.56-9c-2.63-8-8.32-15.73-14.93-19.54"/><path class="cls-5" d="M413.87,353.25a15.32,15.32,0,0,1-2-7.11l.08-28.76c0-4.92,3.51-6.91,7.79-4.44l25,14.46c3.38,2,6.26,6.12,7.31,10.21a12.72,12.72,0,0,1,.43,3.18l-.08,28.76c0,4.92-3.52,6.91-7.79,4.44l-25-14.45a16,16,0,0,1-5.76-6.29m30.95-35.94-25-14.45c-9.12-5.26-16.56-1-16.59,9.45l-.08,28.76A31.44,31.44,0,0,0,406.23,354c3,6.5,7.87,12.43,13.37,15.61l25,14.45c9.12,5.26,16.56,1,16.59-9.46l.08-28.76a28.62,28.62,0,0,0-1.56-9c-2.63-8-8.33-15.72-14.92-19.53"/><path class="cls-5" d="M480.81,391.89a15.29,15.29,0,0,1-2-7.11l.08-28.76c0-4.91,3.51-6.9,7.79-4.43l25,14.45c3.39,2,6.26,6.13,7.31,10.21a12.8,12.8,0,0,1,.43,3.19l-.09,28.76c0,4.92-3.5,6.91-7.78,4.44l-25-14.46a15.94,15.94,0,0,1-5.76-6.29M511.76,356l-25-14.45c-9.12-5.27-16.56-1-16.59,9.45l-.08,28.76a31.44,31.44,0,0,0,3.11,12.94c3,6.5,7.86,12.43,13.37,15.6l25,14.45c9.11,5.27,16.56,1,16.58-9.45l.09-28.76a29,29,0,0,0-1.56-9c-2.63-8-8.33-15.71-14.92-19.52"/><path class="cls-5" d="M346.71,391.52a15.53,15.53,0,0,1-2-7.11l.08-28.76c0-4.92,3.51-6.91,7.79-4.43l25,14.44a17.35,17.35,0,0,1,7.31,10.21,12.33,12.33,0,0,1,.42,3.19l-.08,28.77c0,4.91-3.5,6.9-7.79,4.43l-25-14.45a16.09,16.09,0,0,1-5.76-6.29m30.94-35.94-25-14.45c-9.12-5.27-16.56-1-16.59,9.46L336,379.35a31.37,31.37,0,0,0,3.11,13c3,6.49,7.87,12.41,13.37,15.58l25,14.45c9.12,5.27,16.56,1,16.59-9.45l.08-28.76a28.68,28.68,0,0,0-1.56-9c-2.63-8-8.32-15.72-14.93-19.53"/><path class="cls-5" d="M413.65,430.17a15.41,15.41,0,0,1-2-7.11l.08-28.76c0-4.92,3.51-6.91,7.79-4.44l25,14.45a17.35,17.35,0,0,1,7.31,10.21,12.92,12.92,0,0,1,.43,3.19l-.08,28.77c0,4.91-3.51,6.9-7.79,4.43l-25-14.45a16.23,16.23,0,0,1-5.76-6.29m31-35.94-25-14.45c-9.12-5.27-16.56-1-16.59,9.46L402.9,418A31.47,31.47,0,0,0,406,431c3,6.5,7.86,12.42,13.36,15.59l25,14.45c9.12,5.27,16.56,1,16.59-9.45l.08-28.76a28.74,28.74,0,0,0-1.56-9c-2.64-8-8.33-15.72-14.92-19.52"/><path class="cls-5" d="M346.34,521.47a15.52,15.52,0,0,1-2-7.1l.09-28.76c0-4.92,3.5-6.91,7.78-4.44l25,14.45c3.38,1.95,6.26,6.11,7.31,10.2A12.46,12.46,0,0,1,385,509l-.08,28.76c0,4.91-3.5,6.9-7.78,4.43l-25-14.45a16.09,16.09,0,0,1-5.76-6.29m31-35.93-25-14.45c-9.12-5.27-16.56-1-16.59,9.45l-.08,28.76a31.35,31.35,0,0,0,3.12,13c3,6.5,7.86,12.41,13.36,15.59l25,14.44c9.12,5.27,16.56,1,16.59-9.44l.08-28.77a28.73,28.73,0,0,0-1.56-9c-2.63-8-8.32-15.71-14.92-19.52"/><path class="cls-5" d="M413.28,560.12a15.52,15.52,0,0,1-2-7.1l.09-28.77c0-4.92,3.5-6.91,7.78-4.43l25,14.45c3.38,2,6.26,6.12,7.31,10.21a12.8,12.8,0,0,1,.43,3.19l-.08,28.76c0,4.91-3.51,6.9-7.79,4.43l-25-14.45a16.09,16.09,0,0,1-5.76-6.29m31-35.93-25-14.45c-9.11-5.27-16.56-1-16.59,9.45L402.53,548a31.55,31.55,0,0,0,3.12,13c3,6.49,7.86,12.41,13.36,15.58L444,591c9.12,5.26,16.56,1,16.59-9.46l.08-28.76a28.74,28.74,0,0,0-1.56-9c-2.64-8-8.33-15.71-14.92-19.51"/><path class="cls-5" d="M480.22,598.76a15.49,15.49,0,0,1-2-7.1l.08-28.76c0-4.92,3.52-6.91,7.79-4.44l25,14.45c3.39,2,6.26,6.12,7.31,10.21a12.88,12.88,0,0,1,.43,3.2l-.08,28.76c0,4.91-3.51,6.9-7.79,4.43l-25-14.45a16.12,16.12,0,0,1-5.76-6.3m30.95-35.92-25-14.45c-9.12-5.27-16.56-1-16.59,9.45l-.08,28.76a31.47,31.47,0,0,0,3.12,12.95c3,6.5,7.86,12.42,13.36,15.59l25,14.45c9.12,5.27,16.56,1,16.59-9.45l.08-28.76a28.74,28.74,0,0,0-1.56-9c-2.64-8-8.33-15.71-14.92-19.51"/></g></g><path class="cls-5" d="M542.72,730.58l-4.28-7.41,14.64-8.45a11.84,11.84,0,0,0,5.9-10.23v-414a36.12,36.12,0,0,0-18-31.2c-31.51-18.19-72.2-41.77-111.55-64.57C398.93,177.08,370,160.31,348.6,148a11.83,11.83,0,0,0-11.82,0l-13.56,7.83-4.29-7.41,13.57-7.84a20.43,20.43,0,0,1,20.38,0c21.4,12.37,50.34,29.14,80.83,46.81,39.35,22.8,80,46.37,111.54,64.56a44.7,44.7,0,0,1,22.29,38.62v414a20.41,20.41,0,0,1-10.18,17.64Z"/><path class="cls-4" d="M812.07,687.48l-6.67-3.85a10.81,10.81,0,0,0-3.3-1.19l-22.92-4.51a13.25,13.25,0,0,0-8.8,1.19l-10.22,5.94a6.93,6.93,0,0,0-.75.49c1-1.71.27-3.66-2.06-5l-.05,0-5.2-3,18.95-3.5a8.54,8.54,0,0,0,5.14-2.63,3.8,3.8,0,0,0,.55-.92c.7-1.68-.17-3.46-2.29-4.68l-10.29-5.94a13.36,13.36,0,0,0-8.58-1.24l-31.33,5.59-4.2.74a10,10,0,0,0,4.29-4.72,6.32,6.32,0,0,0,.39-2.19c0-2.74-1.83-5.24-5.25-7.21a22.91,22.91,0,0,0-8-2.69,28.47,28.47,0,0,0-4-.33c3.5-2.46,5.67-5.22,6.4-8.15a9.47,9.47,0,0,0,.23-3.14c-.45-4.56-4.11-8.86-10.9-12.78a45.39,45.39,0,0,0-22.51-5.78c-1.1,0-2.19,0-3.28.06a55.22,55.22,0,0,0-7.11.78l5.29-3.07a6.11,6.11,0,0,0,1.7-1.41c1.46-1.83.88-4.08-1.74-5.6l-6.67-3.85a10.61,10.61,0,0,0-3.31-1.19l-22.91-4.51a13.34,13.34,0,0,0-8.81,1.18l-10.22,5.94c-2.09,1.22-2.95,3-2.26,4.64a3.72,3.72,0,0,0,.45.8,6.07,6.07,0,0,0,1.85,1.58,10.88,10.88,0,0,0,3.33,1.19l4.47.87-5.18,3L603,631.92c-2.53,1.47-3.13,3.63-1.81,5.43a5.77,5.77,0,0,0,1.85,1.58l10.29,6a12.86,12.86,0,0,0,6.9,1.43,3.11,3.11,0,0,0,.64,2.4,5.8,5.8,0,0,0,1.85,1.59l35,20.19a13.23,13.23,0,0,0,8.21,1.3,6,6,0,0,0,.28,1.77c.63,2,2.3,3.83,4.93,5.35a25,25,0,0,0,12.61,3,28.09,28.09,0,0,0,8.07-1.18c.77-.24,1.51-.52,2.23-.82l.4.24,16.4,9.47-3.52,2-.42.24c-2.53,1.47-3.13,3.63-1.81,5.43a5.91,5.91,0,0,0,1.85,1.59l9.38,5.41a13.33,13.33,0,0,0,12.11,0l3.94-2.29,1.58.92A13.39,13.39,0,0,0,746,703l8.59-5a6,6,0,0,0,1.7-1.41,3.18,3.18,0,0,0-.18-4.38,6.46,6.46,0,0,0-1.56-1.22L753,690l4.35-2.53a6.11,6.11,0,0,0,.75-.5,4.81,4.81,0,0,1,.92-1.09,4.81,4.81,0,0,0-.92,1.09,3,3,0,0,0-.19,2.69,3.71,3.71,0,0,0,.45.79,5.84,5.84,0,0,0,1.85,1.58,10.65,10.65,0,0,0,3.32,1.19l4.48.88-5.18,3-8.06,4.68-9.11,5.29-6.19,3.6c-2.53,1.47-3.13,3.63-1.81,5.44a6,6,0,0,0,1.85,1.58l10.29,5.94a13.37,13.37,0,0,0,12.1,0l50.22-29.19a5.84,5.84,0,0,0,1.7-1.41C815.28,691.25,814.69,689,812.07,687.48ZM680,636.5a4.63,4.63,0,0,1,1.5-.53,2.27,2.27,0,0,1,.41.21,2.65,2.65,0,0,1,.34.21h0a5.71,5.71,0,0,1-1.27.3c-.18,0-.68.1-1.82.2Q679.61,636.71,680,636.5Zm-16.84,1-18.69.27-7,.1,17.56-10.2a3.55,3.55,0,0,0,.46.82,5.94,5.94,0,0,0,1.84,1.58l10.87,6.27a9.75,9.75,0,0,0,2.5,1l-2.75.09ZM689.47,660a7.37,7.37,0,0,0,1.09,2.12c-.48-.12-1-.23-1.47-.32a29.47,29.47,0,0,0-5.4-.49c-.8,0-1.59,0-2.36.09a4.33,4.33,0,0,0-2.18-3l-.33-.2-6.41-3.7h.42c5-.07,8.59-.15,11-.25a64.2,64.2,0,0,0,7.24-.74,7.07,7.07,0,0,0-1.89,4.28,2.62,2.62,0,0,0,0,.28A6,6,0,0,0,689.47,660Zm12.41,8.75-.91.53a7.29,7.29,0,0,0-1-1.71,26.19,26.19,0,0,0,3.15.57A10.13,10.13,0,0,0,701.88,668.75Z"/><polygon class="cls-1" points="307.4 754.58 708.15 521.69 942.41 656.94 541.65 889.83 307.4 754.58"/><path class="cls-5" d="M457.74,802.9c-5.36-3.09-5.38-8.12-.07-11.21s14-3.09,19.36,0,5.38,8.12.05,11.21-14,3.09-19.34,0m28-16.28c-10.19-5.88-26.71-5.88-36.84,0S438.84,802.08,449,808s26.72,5.89,36.84,0,10.07-15.46-.12-21.35"/><path class="cls-5" d="M629.74,604.76,640,598.82l22.93,4.52,6.66,3.85-3.52,2-46.69,27.13-6.88-4-3.42-2,33.07-19.22,5.21-3-12.47-2.42-5.11-1m45.85-1.08-6.67-3.85a10.61,10.61,0,0,0-3.31-1.19l-22.91-4.51a13.34,13.34,0,0,0-8.81,1.18l-10.22,5.94c-2.09,1.22-2.95,3-2.26,4.64a3.72,3.72,0,0,0,.45.8,6.07,6.07,0,0,0,1.85,1.58,10.88,10.88,0,0,0,3.33,1.19l4.47.87-5.18,3L603,626.92c-2.53,1.47-3.13,3.63-1.81,5.43a5.77,5.77,0,0,0,1.85,1.58l10.29,6a12.86,12.86,0,0,0,6.9,1.43,4.53,4.53,0,0,1,2.45-3l6.79-3.94a12.13,12.13,0,0,1,5.82-1.45l2.24,0,17.56-10.2a2.91,2.91,0,0,1-.22-1.36c.12-1.4,1.25-2.71,3.13-3.6a49.34,49.34,0,0,1,12.37-3.93l5.29-3.07a6.11,6.11,0,0,0,1.7-1.41c1.46-1.83.88-4.08-1.74-5.6"/><path class="cls-5" d="M679.17,631.89q.44-.18.84-.39a4.63,4.63,0,0,1,1.5-.53,2.27,2.27,0,0,1,.41.21,2.65,2.65,0,0,1,.34.21h0a5.71,5.71,0,0,1-1.27.3c-.18,0-.68.1-1.82.2m-15.78-10.35a38.9,38.9,0,0,1,17.21-3.66,33.23,33.23,0,0,1,16.6,4.33q7.9,4.56,8.39,9.52a6.5,6.5,0,0,1-.34,2.8q-1.17,3.33-6,6.16a24.4,24.4,0,0,1-7.74,2.6,62.42,62.42,0,0,1-8.24,1q-3.45.13-10.67.23l-20.1.43,6.71,3.88,13.62,7.86-3.52,2L663.71,662l-31.58-18.23-3.41-2,6.79-3.95,32.81-.47a147.3,147.3,0,0,0,15-.9,15.26,15.26,0,0,0,5-1.57,7.1,7.1,0,0,0,1.79-1.4,3.09,3.09,0,0,0,.86-2.15c0-1.31-1-2.54-3-3.68a12.5,12.5,0,0,0-6.73-1.66,15.66,15.66,0,0,0-7,1.8l-6.81-3.92-4.06-2.35m39.85-2.84a45.39,45.39,0,0,0-22.51-5.78c-1.1,0-2.19,0-3.28.06a55.22,55.22,0,0,0-7.11.78A49.34,49.34,0,0,0,658,617.69c-1.88.89-3,2.2-3.13,3.6a2.91,2.91,0,0,0,.22,1.36,3.55,3.55,0,0,0,.46.82,5.94,5.94,0,0,0,1.84,1.58l10.87,6.27a9.75,9.75,0,0,0,2.5,1l-2.75.09-4.81.07-18.69.27-7,.1-2.24,0a12.13,12.13,0,0,0-5.82,1.45l-6.79,3.94a4.53,4.53,0,0,0-2.45,3,3.11,3.11,0,0,0,.64,2.4,5.8,5.8,0,0,0,1.85,1.59l35,20.19a13.23,13.23,0,0,0,8.21,1.3.48.48,0,0,1,0-.17c0-2.74,1.86-5.25,5.29-7.24a23.93,23.93,0,0,1,10.16-3,4.33,4.33,0,0,0-2.18-3l-.33-.2-6.41-3.7h.42c5-.07,8.59-.15,11-.25a64.2,64.2,0,0,0,7.24-.74,13.77,13.77,0,0,1,3.39-2.67A24.92,24.92,0,0,1,707,642.77h.51c3.5-2.46,5.67-5.22,6.4-8.15a9.47,9.47,0,0,0,.23-3.14c-.45-4.56-4.11-8.86-10.9-12.78"/><path class="cls-5" d="M675.07,668.64a3.28,3.28,0,0,1-.63-2q0-2.17,2.8-3.78a13.82,13.82,0,0,1,12.89,0q2.72,1.57,2.73,3.71a3.37,3.37,0,0,1-.75,2.09,7.14,7.14,0,0,1-2,1.67,12.88,12.88,0,0,1-6.51,1.63,12.53,12.53,0,0,1-6.45-1.54,6.12,6.12,0,0,1-2.06-1.76m23.31-13.55a3.28,3.28,0,0,1-.63-2c0-1.44,1-2.7,2.8-3.78a12.74,12.74,0,0,1,6.48-1.61,12.56,12.56,0,0,1,6.41,1.57c1.81,1,2.72,2.28,2.73,3.7a3.37,3.37,0,0,1-.75,2.09,6.84,6.84,0,0,1-2,1.67,12.91,12.91,0,0,1-6.51,1.64,12.53,12.53,0,0,1-6.45-1.55,6.12,6.12,0,0,1-2.06-1.76m21.1-9.3a22.91,22.91,0,0,0-8-2.69,28.47,28.47,0,0,0-4-.33H707a24.92,24.92,0,0,0-12.52,3.07,13.77,13.77,0,0,0-3.39,2.67,7.07,7.07,0,0,0-1.89,4.28,2.62,2.62,0,0,0,0,.28,6,6,0,0,0,.28,1.93,7.37,7.37,0,0,0,1.09,2.12c-.48-.12-1-.23-1.47-.32a29.47,29.47,0,0,0-5.4-.49c-.8,0-1.59,0-2.36.09a23.93,23.93,0,0,0-10.16,3c-3.43,2-5.26,4.5-5.29,7.24a.48.48,0,0,0,0,.17,6,6,0,0,0,.28,1.77c.63,2,2.3,3.83,4.93,5.35a25,25,0,0,0,12.61,3,28.09,28.09,0,0,0,8.07-1.18c.77-.24,1.51-.52,2.23-.82-3-1.95-2.84-4.92.36-6.77l6.61-3.85a7.29,7.29,0,0,0-1-1.71,26.19,26.19,0,0,0,3.15.57,11.87,11.87,0,0,1,2.26-.62l14.63-2.61a10,10,0,0,0,4.29-4.72,6.32,6.32,0,0,0,.39-2.19c0-2.74-1.84-5.24-5.25-7.21"/><path class="cls-5" d="M762.38,667.77h0m-62,3.86,7.52-4.37,50.18-8.93,10.29,5.94-5.36,1-42.76,7.89,5.25,3,6,3.43,10.39-6,9.38,5.42-3.52,2-6.86,4,3.42,2,4.23,2.44-3.53,2-5.06,3L732.29,690l-10,5.8-6-3.45-3.42-2,6.46-3.75,3.52-2-19.06-11-3.42-2m74-10.87-10.29-5.94a13.36,13.36,0,0,0-8.58-1.24l-31.33,5.59-4.2.74-14.63,2.61a11.87,11.87,0,0,0-2.26.62,10.83,10.83,0,0,0-1.28.61l-.91.53-6.61,3.85c-3.2,1.85-3.31,4.82-.36,6.77l.4.24,16.4,9.47-3.52,2-.42.24c-2.53,1.47-3.13,3.63-1.81,5.43a5.91,5.91,0,0,0,1.85,1.59l9.38,5.41a13.33,13.33,0,0,0,12.11,0l3.94-2.29,1.58.92A13.39,13.39,0,0,0,746,698l8.59-5a6,6,0,0,0,1.7-1.41,3.18,3.18,0,0,0-.18-4.38,6.46,6.46,0,0,0-1.56-1.22L753,685l4.35-2.53a6.11,6.11,0,0,0,.75-.5,5,5,0,0,1,1.32-1.46c1-1.71.27-3.66-2.06-5l-.05,0-5.2-3,18.95-3.5a8.54,8.54,0,0,0,5.14-2.63,3.8,3.8,0,0,0,.55-.92c.7-1.68-.17-3.46-2.29-4.68"/><path class="cls-5" d="M812.07,682.48l-6.67-3.85a10.81,10.81,0,0,0-3.3-1.19l-22.92-4.51a13.25,13.25,0,0,0-8.8,1.19l-10.22,5.94a6.93,6.93,0,0,0-.75.49,5,5,0,0,0-1.32,1.46,3,3,0,0,0-.19,2.69,3.71,3.71,0,0,0,.45.79,5.84,5.84,0,0,0,1.85,1.58,10.65,10.65,0,0,0,3.32,1.19l4.48.88-5.18,3-8.06,4.68-9.11,5.29-6.19,3.6c-2.53,1.47-3.13,3.63-1.81,5.44a6,6,0,0,0,1.85,1.58l10.29,5.94a13.37,13.37,0,0,0,12.1,0l50.22-29.19a5.84,5.84,0,0,0,1.7-1.41C815.28,686.25,814.69,684,812.07,682.48ZM802.51,688l-46.69,27.14-6.87-4-3.42-2L778.6,690l5.21-3-12.48-2.43-5.1-1,10.22-5.94,22.92,4.52L806,686Z"/><path class="cls-5" d="M541.91,904.5a44.54,44.54,0,0,1-22.29-6c-31.5-18.19-72.24-41.63-111.65-64.3C377.4,816.67,348.4,800,327,787.63A20.41,20.41,0,0,1,316.79,770V754.32h8.57V770a11.84,11.84,0,0,0,5.9,10.23c21.41,12.35,50.42,29,81,46.61,39.41,22.67,80.16,46.11,111.66,64.3a36.11,36.11,0,0,0,36,0l358.51-207a11.83,11.83,0,0,0,5.9-10.22V657h8.56v16.9a20.43,20.43,0,0,1-10.18,17.64l-358.51,207A44.61,44.61,0,0,1,541.91,904.5Z"/><path class="cls-5" d="M925.87,647.39,724.68,531.23c-9.12-5.26-23.91-5.26-33,0L563.26,605.88v10.17L700.49,536.3a17.07,17.07,0,0,1,15.47,0L917.15,652.46c4.28,2.47,4.3,6.49.05,9L549.3,875.21c-4.25,2.48-11.19,2.48-15.46,0L332.64,759.06c-4.27-2.47-4.3-6.49,0-9l121.48-70.6-8.86-5L323.82,745c-9.06,5.27-9,13.83.11,19.09L525.12,880.28c9.12,5.27,23.9,5.27,33,0L926,666.49C935,661.22,935,652.65,925.87,647.39Z"/><path class="cls-5" d="M708.89,480.44a5.7,5.7,0,0,1-4.14-1.78l-60.5-63.92a5.71,5.71,0,0,1,4.14-9.64h34.37V307.56A121.5,121.5,0,0,0,561.4,186.2H545.47a5.66,5.66,0,0,1-2.87-.77l-73.88-42.8A5.71,5.71,0,0,1,471.58,132H561.4C658.22,132,737,210.74,737,307.56v97.55h32.4a5.71,5.71,0,0,1,4.15,9.63L713,478.66A5.71,5.71,0,0,1,708.89,480.44Zm-47.23-63.92,47.23,49.91,47.24-49.91H731.28a5.71,5.71,0,0,1-5.71-5.71V307.56c0-90.52-73.64-164.17-164.17-164.17H492.81L547,174.79h14.4c73.22,0,132.78,59.56,132.78,132.77V410.81a5.71,5.71,0,0,1-5.71,5.71Z"/></svg>