<svg id="OUTLINES" xmlns="http://www.w3.org/2000/svg" viewBox="0 0 1152 1008"><defs><style>.cls-1{fill:#fff;}.cls-2{fill:#000f7d;}</style></defs><title>activity-log</title><rect class="cls-1" x="265.25" y="191" width="637.5" height="111" rx="24"/><path class="cls-2" d="M828.18,868.5h0l-486,0v-9l481.5,0V282.21h9V864a4.51,4.51,0,0,1-4.5,4.5Z"/><rect class="cls-2" x="319.68" y="282.21" width="9" height="581.79"/><path class="cls-2" d="M832.68,184.5h-9V162a13.52,13.52,0,0,0-13.5-13.5h-468a13.52,13.52,0,0,0-13.5,13.5v22.5h-9V162a22.52,22.52,0,0,1,22.5-22.5h468a22.52,22.52,0,0,1,22.5,22.5Z"/><path class="cls-2" d="M886.68,868.5h-621a4.5,4.5,0,0,1,0-9h621a4.5,4.5,0,0,1,0,9Z"/><path class="cls-2" d="M784.18,396h-416a12.52,12.52,0,0,1-12.5-12.5V332a12.52,12.52,0,0,1,12.5-12.5h416a12.52,12.52,0,0,1,12.5,12.5v51.5A12.52,12.52,0,0,1,784.18,396Zm-416-67.5a3.5,3.5,0,0,0-3.5,3.5v51.5a3.5,3.5,0,0,0,3.5,3.5h416a3.5,3.5,0,0,0,3.5-3.5V332a3.5,3.5,0,0,0-3.5-3.5Z"/><path class="cls-2" d="M784.18,490.5h-416a12.52,12.52,0,0,1-12.5-12.5V426.5a12.52,12.52,0,0,1,12.5-12.5h416a12.52,12.52,0,0,1,12.5,12.5V478A12.52,12.52,0,0,1,784.18,490.5Zm-416-67.5a3.5,3.5,0,0,0-3.5,3.5V478a3.5,3.5,0,0,0,3.5,3.5h416a3.5,3.5,0,0,0,3.5-3.5V426.5a3.5,3.5,0,0,0-3.5-3.5Z"/><path class="cls-2" d="M784.18,585h-416a12.52,12.52,0,0,1-12.5-12.5V521a12.52,12.52,0,0,1,12.5-12.5h416a12.52,12.52,0,0,1,12.5,12.5v51.5A12.52,12.52,0,0,1,784.18,585Zm-416-67.5a3.5,3.5,0,0,0-3.5,3.5v51.5a3.5,3.5,0,0,0,3.5,3.5h416a3.5,3.5,0,0,0,3.5-3.5V521a3.5,3.5,0,0,0-3.5-3.5Z"/><path class="cls-2" d="M784.18,679.5h-416a12.52,12.52,0,0,1-12.5-12.5V615.5a12.52,12.52,0,0,1,12.5-12.5h416a12.52,12.52,0,0,1,12.5,12.5V667A12.52,12.52,0,0,1,784.18,679.5Zm-416-67.5a3.5,3.5,0,0,0-3.5,3.5V667a3.5,3.5,0,0,0,3.5,3.5h416a3.5,3.5,0,0,0,3.5-3.5V615.5a3.5,3.5,0,0,0-3.5-3.5Z"/><path class="cls-2" d="M784.18,774h-416a12.52,12.52,0,0,1-12.5-12.5V710a12.52,12.52,0,0,1,12.5-12.5h416a12.52,12.52,0,0,1,12.5,12.5v51.5A12.52,12.52,0,0,1,784.18,774Zm-416-67.5a3.5,3.5,0,0,0-3.5,3.5v51.5a3.5,3.5,0,0,0,3.5,3.5h416a3.5,3.5,0,0,0,3.5-3.5V710a3.5,3.5,0,0,0-3.5-3.5Z"/><path class="cls-2" d="M784.18,868.5h-416a12.52,12.52,0,0,1-12.5-12.5V804.5a12.52,12.52,0,0,1,12.5-12.5h416a12.52,12.52,0,0,1,12.5,12.5V856A12.52,12.52,0,0,1,784.18,868.5Zm-416-67.5a3.5,3.5,0,0,0-3.5,3.5V856a3.5,3.5,0,0,0,3.5,3.5h416a3.5,3.5,0,0,0,3.5-3.5V804.5a3.5,3.5,0,0,0-3.5-3.5Z"/><path class="cls-2" d="M870.93,294H281.43a24,24,0,0,1-24-24V207a24,24,0,0,1,24-24h589.5a24,24,0,0,1,24,24v63A24,24,0,0,1,870.93,294Zm-589.5-99a12,12,0,0,0-12,12v63a12,12,0,0,0,12,12h589.5a12,12,0,0,0,12-12V207a12,12,0,0,0-12-12Z"/><path class="cls-2" d="M295.74,251.56V223.93h9.77q6.25,0,9.94,3.74t3.69,10.08q0,6.34-3.69,10.08t-9.94,3.73Zm5.72-5.08h3.82a7.71,7.71,0,0,0,6-2.34,10.77,10.77,0,0,0,0-12.83,7.71,7.71,0,0,0-6-2.34h-3.82Z"/><path class="cls-2" d="M339.21,251.56h-5.35v-1.08a5,5,0,0,1-1.94,1,9.62,9.62,0,0,1-3,.45,8.11,8.11,0,0,1-5.33-1.75,5.83,5.83,0,0,1-2.14-4.77,5.69,5.69,0,0,1,2.23-4.64,8.54,8.54,0,0,1,5.56-1.8,10.17,10.17,0,0,1,2.61.36,6.34,6.34,0,0,1,2,.81v-1.48a3.11,3.11,0,0,0-.84-2.23,3.23,3.23,0,0,0-2.45-.88,2.86,2.86,0,0,0-3,1.89h-5.31a7.14,7.14,0,0,1,2.77-4.61,8.94,8.94,0,0,1,5.69-1.82,8.83,8.83,0,0,1,6.23,2.05,7.32,7.32,0,0,1,2.23,5.69Zm-5.35-5.49v-1.44a2.64,2.64,0,0,0-1.38-1.28,5.36,5.36,0,0,0-2.27-.47,4.81,4.81,0,0,0-2.5.63,2.15,2.15,0,0,0,0,3.69,4.76,4.76,0,0,0,2.52.63,5.36,5.36,0,0,0,2.27-.47A2.65,2.65,0,0,0,333.86,246.07Z"/><path class="cls-2" d="M344.79,245.49V236h-3.06v-4.5h3.06V226h5.53v5.45h4.41V236h-4.41v8.82a2,2,0,0,0,2.3,2.29,4.35,4.35,0,0,0,2.43-.67v5a7.89,7.89,0,0,1-3.6.63,7,7,0,0,1-4.91-1.62A6.33,6.33,0,0,1,344.79,245.49Z"/><path class="cls-2" d="M375.3,251.56H370v-1.08a5,5,0,0,1-1.94,1,9.62,9.62,0,0,1-3,.45,8.11,8.11,0,0,1-5.33-1.75,5.83,5.83,0,0,1-2.14-4.77,5.69,5.69,0,0,1,2.23-4.64,8.54,8.54,0,0,1,5.56-1.8,10,10,0,0,1,2.6.36,6.31,6.31,0,0,1,2,.81v-1.48a3.11,3.11,0,0,0-.84-2.23,3.23,3.23,0,0,0-2.45-.88,2.86,2.86,0,0,0-3,1.89h-5.31a7.14,7.14,0,0,1,2.77-4.61,8.94,8.94,0,0,1,5.69-1.82,8.83,8.83,0,0,1,6.23,2.05,7.32,7.32,0,0,1,2.23,5.69ZM370,246.07v-1.44a2.64,2.64,0,0,0-1.38-1.28,5.36,5.36,0,0,0-2.27-.47,4.81,4.81,0,0,0-2.5.63,2.15,2.15,0,0,0,0,3.69,4.76,4.76,0,0,0,2.52.63,5.36,5.36,0,0,0,2.27-.47A2.65,2.65,0,0,0,370,246.07Z"/><path class="cls-2" d="M449.53,241.26h-3v10.3H440.8V223.93h11.38a10.34,10.34,0,0,1,7.07,2.3,8.17,8.17,0,0,1,2.61,6.48,8.28,8.28,0,0,1-1.67,5.33,8.12,8.12,0,0,1-4.63,2.81l7.29,10.71h-6.48Zm-3-12.42v7.69h5.31a4.62,4.62,0,0,0,3.24-1,3.61,3.61,0,0,0,1.13-2.79,3.68,3.68,0,0,0-1.13-2.84,4.62,4.62,0,0,0-3.24-1Z"/><path class="cls-2" d="M477.92,245h5.18a8,8,0,0,1-2.86,5.16,9.36,9.36,0,0,1-6.05,1.86,9.19,9.19,0,0,1-7.07-2.9,11.88,11.88,0,0,1,0-15.12,9,9,0,0,1,7-3,8.54,8.54,0,0,1,6.73,2.72,10.61,10.61,0,0,1,2.4,7.27v1.71H469.82a5.55,5.55,0,0,0,1.31,3.53,3.93,3.93,0,0,0,3.06,1.28Q477.25,247.51,477.92,245Zm-3.78-9.45q-3.42,0-4.18,3.78h7.78a4.11,4.11,0,0,0-1-2.72A3.34,3.34,0,0,0,474.14,235.54Z"/><path class="cls-2" d="M503.35,251.56H498v-1.08a4.93,4.93,0,0,1-1.93,1,9.62,9.62,0,0,1-3,.45,8.11,8.11,0,0,1-5.33-1.75,5.83,5.83,0,0,1-2.14-4.77,5.69,5.69,0,0,1,2.23-4.64,8.53,8.53,0,0,1,5.55-1.8,10.12,10.12,0,0,1,2.61.36,6.34,6.34,0,0,1,2,.81v-1.48a3.1,3.1,0,0,0-.83-2.23,3.23,3.23,0,0,0-2.45-.88,2.86,2.86,0,0,0-3,1.89h-5.31a7.14,7.14,0,0,1,2.77-4.61,8.94,8.94,0,0,1,5.69-1.82,8.83,8.83,0,0,1,6.23,2.05,7.32,7.32,0,0,1,2.23,5.69ZM498,246.07v-1.44a2.62,2.62,0,0,0-1.37-1.28,5.36,5.36,0,0,0-2.27-.47,4.81,4.81,0,0,0-2.5.63,2.15,2.15,0,0,0,0,3.69,4.76,4.76,0,0,0,2.52.63,5.36,5.36,0,0,0,2.27-.47A2.63,2.63,0,0,0,498,246.07Z"/><path class="cls-2" d="M506.59,245.58h5.53c.45,1.47,1.58,2.2,3.38,2.2s2.83-.66,2.83-2a1.25,1.25,0,0,0-.47-1.05,4.06,4.06,0,0,0-1.55-.66l-4-.9Q507,242,507,237.52a5.73,5.73,0,0,1,2.29-4.7,8.94,8.94,0,0,1,5.72-1.82,9.45,9.45,0,0,1,5.87,1.64,7.21,7.21,0,0,1,2.68,4.57h-5.31q-.63-2-3.15-2a3.43,3.43,0,0,0-1.87.49,1.56,1.56,0,0,0-.79,1.4c0,.75.6,1.27,1.8,1.57l4.14.95q5.36,1.31,5.36,5.85a5.68,5.68,0,0,1-2.32,4.77,9.55,9.55,0,0,1-5.92,1.75,10.39,10.39,0,0,1-6.12-1.68A6.77,6.77,0,0,1,506.59,245.58Z"/><path class="cls-2" d="M546,241.53a10.61,10.61,0,0,1-2.75,7.56,10.12,10.12,0,0,1-14.22,0,11.87,11.87,0,0,1,0-15.17,10.12,10.12,0,0,1,14.22,0A10.68,10.68,0,0,1,546,241.53Zm-5.54,0a7,7,0,0,0-1.15-4.21,3.94,3.94,0,0,0-6.34,0,7,7,0,0,0-1.15,4.21,6.92,6.92,0,0,0,1.15,4.16,3.94,3.94,0,0,0,6.34,0A6.92,6.92,0,0,0,540.47,241.53Z"/><path class="cls-2" d="M549.56,251.56V231.45h5.58v1.84a7.66,7.66,0,0,1,10.65-.27,7.67,7.67,0,0,1,1.86,5.4v13.14h-5.58v-12a3.83,3.83,0,0,0-.83-2.58,3,3,0,0,0-2.45-1,3.84,3.84,0,0,0-2.32.74,3.45,3.45,0,0,0-1.33,2.05v12.73Z"/><path class="cls-2" d="M641.86,223.93h5.71l10.58,27.63H652.3l-2.48-6.66H639.47L637,251.56h-5.76Zm2.79,6.93L641.27,240H648Z"/><path class="cls-2" d="M659.36,241.53a10.78,10.78,0,0,1,2.7-7.61,10,10,0,0,1,13-.94,8.05,8.05,0,0,1,2.79,5.26h-5.49a2.87,2.87,0,0,0-1.1-1.82,3.68,3.68,0,0,0-2.23-.65,3.53,3.53,0,0,0-3,1.57,7.07,7.07,0,0,0-1.12,4.19,7,7,0,0,0,1.12,4.14,3.53,3.53,0,0,0,3,1.57,3.62,3.62,0,0,0,2.23-.65,2.85,2.85,0,0,0,1.1-1.82h5.49a8.07,8.07,0,0,1-2.77,5.26,10,10,0,0,1-13-.94A10.71,10.71,0,0,1,659.36,241.53Z"/><path class="cls-2" d="M680.06,241.53a10.78,10.78,0,0,1,2.7-7.61,10,10,0,0,1,13-.94,8.05,8.05,0,0,1,2.79,5.26h-5.49a2.87,2.87,0,0,0-1.1-1.82,3.68,3.68,0,0,0-2.23-.65,3.53,3.53,0,0,0-3,1.57,7.07,7.07,0,0,0-1.12,4.19,7,7,0,0,0,1.12,4.14,3.53,3.53,0,0,0,3,1.57,3.62,3.62,0,0,0,2.23-.65,2.85,2.85,0,0,0,1.1-1.82h5.49a8.07,8.07,0,0,1-2.77,5.26,10,10,0,0,1-13-.94A10.71,10.71,0,0,1,680.06,241.53Z"/><path class="cls-2" d="M714.26,245h5.18a8.07,8.07,0,0,1-2.86,5.16,9.36,9.36,0,0,1-6.05,1.86,9.19,9.19,0,0,1-7.07-2.9,11.88,11.88,0,0,1,0-15.12,9,9,0,0,1,7-3,8.54,8.54,0,0,1,6.73,2.72,10.61,10.61,0,0,1,2.4,7.27v1.71H706.16a5.55,5.55,0,0,0,1.31,3.53,3.93,3.93,0,0,0,3.06,1.28Q713.59,247.51,714.26,245Zm-3.78-9.45q-3.42,0-4.18,3.78h7.78a4.11,4.11,0,0,0-1-2.72A3.34,3.34,0,0,0,710.48,235.54Z"/><path class="cls-2" d="M721.87,245.58h5.53c.45,1.47,1.58,2.2,3.38,2.2s2.83-.66,2.83-2a1.25,1.25,0,0,0-.47-1.05,4.06,4.06,0,0,0-1.55-.66l-4.05-.9q-5.22-1.22-5.22-5.67a5.73,5.73,0,0,1,2.29-4.7,8.94,8.94,0,0,1,5.72-1.82,9.45,9.45,0,0,1,5.87,1.64,7.21,7.21,0,0,1,2.68,4.57h-5.31q-.63-2-3.15-2a3.43,3.43,0,0,0-1.87.49,1.56,1.56,0,0,0-.79,1.4c0,.75.6,1.27,1.8,1.57l4.14.95q5.35,1.31,5.36,5.85a5.68,5.68,0,0,1-2.32,4.77,9.55,9.55,0,0,1-5.92,1.75,10.39,10.39,0,0,1-6.12-1.68A6.77,6.77,0,0,1,721.87,245.58Z"/><path class="cls-2" d="M741.53,245.58h5.54c.45,1.47,1.57,2.2,3.37,2.2s2.84-.66,2.84-2a1.26,1.26,0,0,0-.48-1.05,4,4,0,0,0-1.55-.66l-4-.9Q742,242,742,237.52a5.74,5.74,0,0,1,2.3-4.7A8.92,8.92,0,0,1,750,231a9.43,9.43,0,0,1,5.87,1.64,7.16,7.16,0,0,1,2.68,4.57h-5.31q-.63-2-3.15-2a3.45,3.45,0,0,0-1.87.49,1.57,1.57,0,0,0-.78,1.4c0,.75.6,1.27,1.8,1.57l4.14.95q5.36,1.31,5.35,5.85a5.65,5.65,0,0,1-2.32,4.77,9.49,9.49,0,0,1-5.91,1.75,10.39,10.39,0,0,1-6.12-1.68A6.78,6.78,0,0,1,741.53,245.58Z"/><path class="cls-2" d="M774.74,245h5.18a8.07,8.07,0,0,1-2.86,5.16,9.38,9.38,0,0,1-6,1.86,9.19,9.19,0,0,1-7.07-2.9,10.67,10.67,0,0,1-2.7-7.58A10.81,10.81,0,0,1,764,234a9,9,0,0,1,7-3,8.5,8.5,0,0,1,6.72,2.72,10.56,10.56,0,0,1,2.41,7.27v1.71H766.64a5.55,5.55,0,0,0,1.31,3.53,3.93,3.93,0,0,0,3.06,1.28Q774.07,247.51,774.74,245ZM771,235.54q-3.42,0-4.18,3.78h7.78a4.11,4.11,0,0,0-1-2.72A3.34,3.34,0,0,0,771,235.54Z"/><path class="cls-2" d="M796.7,251.56V249.9a5.84,5.84,0,0,1-2.11,1.48,7.05,7.05,0,0,1-2.93.63,8.15,8.15,0,0,1-6.68-3,11.39,11.39,0,0,1-2.45-7.49A11.51,11.51,0,0,1,785,234a8.14,8.14,0,0,1,6.68-3,7.05,7.05,0,0,1,2.93.63,5.84,5.84,0,0,1,2.11,1.48v-10.8h5.63v29.25Zm0-6.75V238.2a4.07,4.07,0,0,0-1.53-1.69,4.18,4.18,0,0,0-2.25-.65,4.29,4.29,0,0,0-3.51,1.6,6.21,6.21,0,0,0-1.3,4.07,6.13,6.13,0,0,0,1.3,4.05,4.32,4.32,0,0,0,3.51,1.57,4.17,4.17,0,0,0,3.78-2.34Z"/><path class="cls-2" d="M822.26,249.9v1.66h-5.62V222.31h5.62v10.8a5.89,5.89,0,0,1,2.12-1.48,7,7,0,0,1,2.92-.63,8.14,8.14,0,0,1,6.68,3,11.51,11.51,0,0,1,2.46,7.52A11.39,11.39,0,0,1,834,249a8.15,8.15,0,0,1-6.68,3,7,7,0,0,1-2.92-.63A5.89,5.89,0,0,1,822.26,249.9Zm0-11.7v6.61a4.17,4.17,0,0,0,3.78,2.34,4.32,4.32,0,0,0,3.51-1.57,6.14,6.14,0,0,0,1.31-4.05,6.21,6.21,0,0,0-1.31-4.07,4.29,4.29,0,0,0-3.51-1.6,4.18,4.18,0,0,0-2.25.65A4.07,4.07,0,0,0,822.26,238.2Z"/><path class="cls-2" d="M847.82,259h-5.49l2.93-7.34-7.7-20.2h5.9l4.63,13.36,4.59-13.36h5.63Z"/><rect class="cls-2" x="594.93" y="193.5" width="12" height="94.5"/><rect class="cls-2" x="401.43" y="193.5" width="12" height="94.5"/></svg>