<svg id="OUTLINES" xmlns="http://www.w3.org/2000/svg" viewBox="0 0 1152 1008"><defs><style>.cls-1{fill:#fff;}.cls-2{fill:#000f7d;}</style></defs><rect class="cls-1" x="286.06" y="289.53" width="595.29" height="201.36" rx="22.96"/><path class="cls-2" d="M886.68,859.5h-54V483.36h18a23,23,0,0,0,23-23V305a23,23,0,0,0-23-23h-18V162a22.52,22.52,0,0,0-22.5-22.5h-468a22.52,22.52,0,0,0-22.5,22.5V282H301.32a23,23,0,0,0-23,23V460.4a23,23,0,0,0,23,23h18.36V859.5h-54a4.5,4.5,0,0,0,0,9h621a4.5,4.5,0,0,0,0-9ZM328.68,162a13.52,13.52,0,0,1,13.5-13.5h468a13.52,13.52,0,0,1,13.5,13.5V282h-495ZM290.36,460.4V305a11,11,0,0,1,11-11H850.68a11,11,0,0,1,11,11V460.4a11,11,0,0,1-11,11H301.32A11,11,0,0,1,290.36,460.4Zm38.32,23h495V859.5H796.17a12.29,12.29,0,0,0,.51-3.5V804.5a12.52,12.52,0,0,0-12.5-12.5h-416a12.52,12.52,0,0,0-12.5,12.5V856a12.24,12.24,0,0,0,.5,3.45h-14v0h-13.5Zm36,372.64V804.5a3.5,3.5,0,0,1,3.5-3.5h416a3.5,3.5,0,0,1,3.5,3.5V856a3.5,3.5,0,0,1-3.47,3.5l-416.47,0A3.5,3.5,0,0,1,364.68,856Z"/><path class="cls-2" d="M339.75,391.12a5.61,5.61,0,0,1-3.37.92q-4.38,0-5.5-3.56H325a9.3,9.3,0,0,0,3.77,6.12,12.87,12.87,0,0,0,7.7,2.21,11.33,11.33,0,0,0,7.38-2.34,7.66,7.66,0,0,0,2.88-6.26q0-6.12-7.24-7.78l-5.05-1.17q-3.11-.72-3.1-3a2.8,2.8,0,0,1,1.19-2.36,5.27,5.27,0,0,1,3.17-.88q4,0,5.09,3.29h5.72a9.6,9.6,0,0,0-3.49-5.83,11.6,11.6,0,0,0-7.36-2.18,10.59,10.59,0,0,0-7.15,2.38,7.66,7.66,0,0,0-2.79,6.12q0,6,7,7.56l4.94,1.13a5.71,5.71,0,0,1,2.59,1.12,2.53,2.53,0,0,1,.79,2A3,3,0,0,1,339.75,391.12Z"/><path class="cls-2" d="M359.19,396.81a9.31,9.31,0,0,0,6.05-1.87,8,8,0,0,0,2.86-5.15h-5.18q-.68,2.52-3.73,2.52a4,4,0,0,1-3.06-1.28,5.6,5.6,0,0,1-1.31-3.54h13.41v-1.71a10.56,10.56,0,0,0-2.4-7.26,8.51,8.51,0,0,0-6.73-2.73,9,9,0,0,0-7,3,11.88,11.88,0,0,0,0,15.12A9.23,9.23,0,0,0,359.19,396.81Zm-.05-16.47a3.31,3.31,0,0,1,2.61,1.06,4.09,4.09,0,0,1,1,2.72H355Q355.73,380.34,359.14,380.34Z"/><path class="cls-2" d="M381,384.12a10.12,10.12,0,0,0-2.61-.36,8.53,8.53,0,0,0-5.55,1.8,5.67,5.67,0,0,0-2.23,4.63,5.83,5.83,0,0,0,2.14,4.77,8.11,8.11,0,0,0,5.33,1.76,9.62,9.62,0,0,0,3-.45,4.93,4.93,0,0,0,1.93-1v1.08h5.36V383.53a7.33,7.33,0,0,0-2.23-5.69,10.13,10.13,0,0,0-11.92-.22,7.12,7.12,0,0,0-2.77,4.61h5.31a2.86,2.86,0,0,1,3-1.89,3.19,3.19,0,0,1,2.45.88,3.06,3.06,0,0,1,.83,2.22v1.49A6.34,6.34,0,0,0,381,384.12Zm2,6.75a2.58,2.58,0,0,1-1.37,1.28,5.21,5.21,0,0,1-2.27.47,4.67,4.67,0,0,1-2.52-.63,2.15,2.15,0,0,1,0-3.69,4.81,4.81,0,0,1,2.5-.63,5.21,5.21,0,0,1,2.27.48,2.58,2.58,0,0,1,1.37,1.28Z"/><path class="cls-2" d="M398.47,378.22v-2h-5.58v20.12h5.58V383.89a3.44,3.44,0,0,1,1.35-2.09,4.18,4.18,0,0,1,2.48-.74,5.34,5.34,0,0,1,2.79.67v-5.58a4.55,4.55,0,0,0-2.12-.36A4.86,4.86,0,0,0,398.47,378.22Z"/><path class="cls-2" d="M419.94,389.56a2.9,2.9,0,0,1-1.1,1.83,3.68,3.68,0,0,1-2.23.65,3.54,3.54,0,0,1-3-1.58,8.29,8.29,0,0,1,0-8.32,3.54,3.54,0,0,1,3-1.58,3.62,3.62,0,0,1,2.23.66,2.85,2.85,0,0,1,1.1,1.82h5.49a8.08,8.08,0,0,0-2.79-5.27,10,10,0,0,0-13,1,12,12,0,0,0,0,15.16,9.08,9.08,0,0,0,7,2.93,9,9,0,0,0,6.05-2,8.1,8.1,0,0,0,2.77-5.27Z"/><path class="cls-2" d="M446.94,396.36V383.22a7.63,7.63,0,0,0-1.87-5.4,7.63,7.63,0,0,0-10.64.27v-11h-5.58v29.25h5.58V383.62a3.4,3.4,0,0,1,1.33-2,3.76,3.76,0,0,1,2.31-.75,3.1,3.1,0,0,1,2.46,1,3.87,3.87,0,0,1,.83,2.59v12Z"/><path class="cls-2" d="M469,389.79h-5.18q-.68,2.52-3.73,2.52A4,4,0,0,1,457,391a5.6,5.6,0,0,1-1.31-3.54h13.41v-1.71a10.52,10.52,0,0,0-2.41-7.26,8.48,8.48,0,0,0-6.72-2.73,9,9,0,0,0-6.95,3,11.88,11.88,0,0,0,0,15.12,10.35,10.35,0,0,0,13.12,1A8,8,0,0,0,469,389.79Zm-9-9.45a3.31,3.31,0,0,1,2.61,1.06,4.09,4.09,0,0,1,1,2.72h-7.78Q456.62,380.34,460,380.34Z"/><path class="cls-2" d="M485.77,394.69v1.67h5.63V367.11h-5.63v10.8a5.85,5.85,0,0,0-2.11-1.49,7.05,7.05,0,0,0-2.93-.63,8.16,8.16,0,0,0-6.68,3,12.72,12.72,0,0,0,0,15,8.19,8.19,0,0,0,6.68,3,7.05,7.05,0,0,0,2.93-.63A5.85,5.85,0,0,0,485.77,394.69Zm-7.29-4.32a6.13,6.13,0,0,1-1.3-4.05,6.23,6.23,0,0,1,1.3-4.07,4.31,4.31,0,0,1,3.51-1.6,4.1,4.1,0,0,1,2.25.66,4,4,0,0,1,1.53,1.68v6.62a4.13,4.13,0,0,1-1.5,1.69A4.18,4.18,0,0,1,482,392,4.33,4.33,0,0,1,478.48,390.37Z"/><path class="cls-2" d="M509.26,368.59a7,7,0,0,0-1.93,5.27v2.38H504v4.5h3.29v15.62h5.49V380.74H517v-4.5h-4.18v-2c0-1.86.91-2.79,2.74-2.79a3.36,3.36,0,0,1,2,.54v-4.73a7.66,7.66,0,0,0-3.1-.54A7.1,7.1,0,0,0,509.26,368.59Z"/><path class="cls-2" d="M535.81,378.72a10.09,10.09,0,0,0-14.22,0,11.85,11.85,0,0,0,0,15.16,10.09,10.09,0,0,0,14.22,0,11.82,11.82,0,0,0,0-15.16Zm-3.93,11.77a4,4,0,0,1-6.35,0,8.19,8.19,0,0,1,0-8.37,4,4,0,0,1,6.35,0,8.25,8.25,0,0,1,0,8.37Z"/><path class="cls-2" d="M547.69,383.89A3.44,3.44,0,0,1,549,381.8a4.18,4.18,0,0,1,2.48-.74,5.34,5.34,0,0,1,2.79.67v-5.58a4.55,4.55,0,0,0-2.12-.36,4.86,4.86,0,0,0-4.5,2.43v-2h-5.58v20.12h5.58Z"/><path class="cls-2" d="M329.09,413.73l-2.48,3.73a7.43,7.43,0,0,0-1.49,4.05,3.81,3.81,0,0,0,1,2.82,3.7,3.7,0,0,0,5,0,3.25,3.25,0,0,0,1-2.45,3.11,3.11,0,0,0-.76-2.16,3.43,3.43,0,0,0-2-1.08l3.19-4.95Z"/><path class="cls-2" d="M347.45,422.91a6,6,0,0,0-2.12-1.49,7.05,7.05,0,0,0-2.93-.63,8.16,8.16,0,0,0-6.68,3,12.72,12.72,0,0,0,0,15,8.19,8.19,0,0,0,6.68,3,7.05,7.05,0,0,0,2.93-.63,6,6,0,0,0,2.12-1.49v1.67h5.62V412.11h-5.62Zm0,11.7a4.17,4.17,0,0,1-3.78,2.34,4.36,4.36,0,0,1-3.52-1.58,6.19,6.19,0,0,1-1.3-4.05,6.28,6.28,0,0,1,1.3-4.07,4.35,4.35,0,0,1,3.52-1.6,4.15,4.15,0,0,1,2.25.66,4,4,0,0,1,1.53,1.68Z"/><path class="cls-2" d="M365.94,420.79a8.88,8.88,0,0,0-5.69,1.83,7.12,7.12,0,0,0-2.77,4.61h5.31a2.86,2.86,0,0,1,3-1.89,3.19,3.19,0,0,1,2.45.88,3.06,3.06,0,0,1,.83,2.22v1.49a6.34,6.34,0,0,0-2-.81,10.1,10.1,0,0,0-2.6-.36,8.54,8.54,0,0,0-5.56,1.8,5.67,5.67,0,0,0-2.23,4.63,5.82,5.82,0,0,0,2.14,4.77,8.11,8.11,0,0,0,5.33,1.76,9.62,9.62,0,0,0,3-.45,4.85,4.85,0,0,0,1.93-1v1.08h5.36V428.53a7.33,7.33,0,0,0-2.23-5.69A8.88,8.88,0,0,0,365.94,420.79Zm3.1,15.08a2.58,2.58,0,0,1-1.37,1.28,5.21,5.21,0,0,1-2.27.47,4.67,4.67,0,0,1-2.52-.63,2.15,2.15,0,0,1,0-3.69,4.81,4.81,0,0,1,2.5-.63,5.21,5.21,0,0,1,2.27.48,2.58,2.58,0,0,1,1.37,1.28Z"/><path class="cls-2" d="M385.51,434.56v-8.82h4.41v-4.5h-4.41V415.8H380v5.44h-3.06v4.5H380v9.54a6.29,6.29,0,0,0,1.75,4.86,7,7,0,0,0,4.91,1.62,7.89,7.89,0,0,0,3.6-.63v-4.95a4.35,4.35,0,0,1-2.43.68A2,2,0,0,1,385.51,434.56Z"/><path class="cls-2" d="M402,420.79a8.88,8.88,0,0,0-5.69,1.83,7.12,7.12,0,0,0-2.77,4.61h5.31a2.86,2.86,0,0,1,3-1.89,3.19,3.19,0,0,1,2.45.88,3.06,3.06,0,0,1,.83,2.22v1.49a6.34,6.34,0,0,0-2-.81,10.12,10.12,0,0,0-2.61-.36,8.53,8.53,0,0,0-5.55,1.8,5.67,5.67,0,0,0-2.23,4.63A5.82,5.82,0,0,0,394.9,440a8.11,8.11,0,0,0,5.33,1.76,9.62,9.62,0,0,0,3-.45,4.85,4.85,0,0,0,1.93-1v1.08h5.36V428.53a7.33,7.33,0,0,0-2.23-5.69A8.88,8.88,0,0,0,402,420.79Zm3.1,15.08a2.58,2.58,0,0,1-1.37,1.28,5.21,5.21,0,0,1-2.27.47A4.67,4.67,0,0,1,399,437a2.15,2.15,0,0,1,0-3.69,4.81,4.81,0,0,1,2.5-.63,5.21,5.21,0,0,1,2.27.48,2.58,2.58,0,0,1,1.37,1.28Z"/><path class="cls-2" d="M435.19,420.79a7,7,0,0,0-2.92.63,5.9,5.9,0,0,0-2.12,1.49v-1.67h-5.58v27.54h5.58v-9.09a5.9,5.9,0,0,0,2.12,1.49,7,7,0,0,0,2.92.63,8.23,8.23,0,0,0,6.71-3,12.56,12.56,0,0,0,0-15A8.22,8.22,0,0,0,435.19,420.79Zm2.25,14.58a4.33,4.33,0,0,1-3.51,1.58,4.18,4.18,0,0,1-2.25-.65,4.07,4.07,0,0,1-1.53-1.69V428a4.34,4.34,0,0,1,1.56-1.68,4,4,0,0,1,2.22-.66,4.31,4.31,0,0,1,3.51,1.6,6.23,6.23,0,0,1,1.31,4.07A6.14,6.14,0,0,1,437.44,435.37Z"/><path class="cls-2" d="M456,420.79a8.88,8.88,0,0,0-5.69,1.83,7.12,7.12,0,0,0-2.77,4.61h5.31a2.86,2.86,0,0,1,3-1.89,3.21,3.21,0,0,1,2.45.88,3.06,3.06,0,0,1,.83,2.22v1.49a6.34,6.34,0,0,0-2-.81,10.12,10.12,0,0,0-2.61-.36,8.57,8.57,0,0,0-5.56,1.8,5.69,5.69,0,0,0-2.22,4.63,5.84,5.84,0,0,0,2.13,4.77,8.16,8.16,0,0,0,5.34,1.76,9.62,9.62,0,0,0,3-.45,4.93,4.93,0,0,0,1.93-1v1.08h5.36V428.53a7.37,7.37,0,0,0-2.23-5.69A8.88,8.88,0,0,0,456,420.79Zm3.1,15.08a2.58,2.58,0,0,1-1.37,1.28,5.21,5.21,0,0,1-2.27.47A4.67,4.67,0,0,1,453,437a2.15,2.15,0,0,1,0-3.69,4.81,4.81,0,0,1,2.5-.63,5.21,5.21,0,0,1,2.27.48,2.58,2.58,0,0,1,1.37,1.28Z"/><path class="cls-2" d="M475.6,434.56v-8.82H480v-4.5H475.6V415.8h-5.53v5.44H467v4.5h3.06v9.54a6.29,6.29,0,0,0,1.75,4.86,7,7,0,0,0,4.91,1.62,7.89,7.89,0,0,0,3.6-.63v-4.95a4.35,4.35,0,0,1-2.43.68A2,2,0,0,1,475.6,434.56Z"/><path class="cls-2" d="M491.13,434.56v-8.82h4.41v-4.5h-4.41V415.8h-5.54v5.44h-3.06v4.5h3.06v9.54a6.3,6.3,0,0,0,1.76,4.86,7,7,0,0,0,4.9,1.62,7.89,7.89,0,0,0,3.6-.63v-4.95a4.35,4.35,0,0,1-2.43.68A2,2,0,0,1,491.13,434.56Z"/><path class="cls-2" d="M508.14,420.79a9,9,0,0,0-7,3,11.9,11.9,0,0,0,0,15.12,9.23,9.23,0,0,0,7.07,2.9,9.32,9.32,0,0,0,6-1.87,8,8,0,0,0,2.86-5.15H512q-.68,2.52-3.73,2.52a4,4,0,0,1-3.06-1.28,5.58,5.58,0,0,1-1.31-3.54h13.41v-1.71a10.52,10.52,0,0,0-2.41-7.26A8.48,8.48,0,0,0,508.14,420.79ZM504,429.12q.76-3.78,4.18-3.78a3.31,3.31,0,0,1,2.61,1.06,4.09,4.09,0,0,1,1,2.72Z"/><path class="cls-2" d="M526.41,423.22v-2h-5.58v20.12h5.58V428.89a3.44,3.44,0,0,1,1.35-2.09,4.15,4.15,0,0,1,2.47-.74,5.34,5.34,0,0,1,2.79.67v-5.58a4.64,4.64,0,0,0-2.11-.36A4.86,4.86,0,0,0,526.41,423.22Z"/><path class="cls-2" d="M547.6,420.79a6.76,6.76,0,0,0-5.4,2.3v-1.85h-5.58v20.12h5.58V428.62a3.4,3.4,0,0,1,1.33-2,3.77,3.77,0,0,1,2.32-.75,3.08,3.08,0,0,1,2.45,1,3.87,3.87,0,0,1,.83,2.59v12h5.58V428.22a7.63,7.63,0,0,0-1.87-5.4A6.77,6.77,0,0,0,547.6,420.79Z"/><path class="cls-2" d="M569.88,429.43l-4.14-.94c-1.2-.3-1.8-.82-1.8-1.58a1.56,1.56,0,0,1,.78-1.39,3.46,3.46,0,0,1,1.87-.5q2.52,0,3.15,2h5.31a7.12,7.12,0,0,0-2.68-4.56,9.37,9.37,0,0,0-5.87-1.65,8.86,8.86,0,0,0-5.71,1.83,5.73,5.73,0,0,0-2.3,4.7q0,4.46,5.22,5.67l4,.9a4.16,4.16,0,0,1,1.55.65,1.29,1.29,0,0,1,.48,1.06c0,1.32-.95,2-2.84,2s-2.92-.74-3.37-2.21H558a6.74,6.74,0,0,0,2.84,4.75,10.3,10.3,0,0,0,6.12,1.69,9.52,9.52,0,0,0,5.91-1.76,5.65,5.65,0,0,0,2.32-4.77Q575.23,430.74,569.88,429.43Z"/><path class="cls-2" d="M597,425.56a3.58,3.58,0,0,1,2.23.66,2.81,2.81,0,0,1,1.1,1.82h5.5a8.13,8.13,0,0,0-2.8-5.27,9.94,9.94,0,0,0-13,1,12,12,0,0,0,0,15.16,10,10,0,0,0,13,.95,8.19,8.19,0,0,0,2.77-5.27h-5.5a2.85,2.85,0,0,1-1.1,1.83A3.64,3.64,0,0,1,597,437a3.53,3.53,0,0,1-3-1.58,7,7,0,0,1-1.13-4.14,7,7,0,0,1,1.13-4.18A3.53,3.53,0,0,1,597,425.56Z"/><path class="cls-2" d="M617.26,420.79a8.88,8.88,0,0,0-5.69,1.83,7.12,7.12,0,0,0-2.77,4.61h5.31a2.86,2.86,0,0,1,3-1.89,3.19,3.19,0,0,1,2.45.88,3.06,3.06,0,0,1,.84,2.22v1.49a6.31,6.31,0,0,0-2-.81,10,10,0,0,0-2.6-.36,8.54,8.54,0,0,0-5.56,1.8,5.67,5.67,0,0,0-2.23,4.63,5.82,5.82,0,0,0,2.14,4.77,8.11,8.11,0,0,0,5.33,1.76,9.62,9.62,0,0,0,3-.45,5,5,0,0,0,1.94-1v1.08h5.35V428.53a7.33,7.33,0,0,0-2.23-5.69A8.88,8.88,0,0,0,617.26,420.79Zm3.11,15.08a2.64,2.64,0,0,1-1.38,1.28,5.21,5.21,0,0,1-2.27.47,4.67,4.67,0,0,1-2.52-.63,2.15,2.15,0,0,1,0-3.69,4.81,4.81,0,0,1,2.5-.63,5.21,5.21,0,0,1,2.27.48,2.64,2.64,0,0,1,1.38,1.28Z"/><path class="cls-2" d="M636.83,434.56v-8.82h4.41v-4.5h-4.41V415.8H631.3v5.44h-3.06v4.5h3.06v9.54a6.29,6.29,0,0,0,1.75,4.86,7,7,0,0,0,4.91,1.62,7.89,7.89,0,0,0,3.6-.63v-4.95a4.35,4.35,0,0,1-2.43.68A2,2,0,0,1,636.83,434.56Z"/><path class="cls-2" d="M653.35,420.79a8.88,8.88,0,0,0-5.69,1.83,7.12,7.12,0,0,0-2.77,4.61h5.31a2.86,2.86,0,0,1,3-1.89,3.19,3.19,0,0,1,2.45.88,3.06,3.06,0,0,1,.83,2.22v1.49a6.34,6.34,0,0,0-2-.81,10.12,10.12,0,0,0-2.61-.36,8.53,8.53,0,0,0-5.55,1.8,5.67,5.67,0,0,0-2.23,4.63,5.82,5.82,0,0,0,2.14,4.77,8.11,8.11,0,0,0,5.33,1.76,9.62,9.62,0,0,0,3-.45,4.93,4.93,0,0,0,1.93-1v1.08h5.36V428.53a7.33,7.33,0,0,0-2.23-5.69A8.88,8.88,0,0,0,653.35,420.79Zm3.1,15.08a2.58,2.58,0,0,1-1.37,1.28,5.21,5.21,0,0,1-2.27.47,4.67,4.67,0,0,1-2.52-.63,2.15,2.15,0,0,1,0-3.69,4.81,4.81,0,0,1,2.5-.63,5.21,5.21,0,0,1,2.27.48,2.58,2.58,0,0,1,1.37,1.28Z"/><rect class="cls-2" x="666.35" y="412.11" width="5.58" height="29.25"/><path class="cls-2" d="M685.39,420.79a9.31,9.31,0,0,0-7.11,2.93,11.82,11.82,0,0,0,0,15.16,10.09,10.09,0,0,0,14.22,0,11.85,11.85,0,0,0,0-15.16A9.31,9.31,0,0,0,685.39,420.79Zm3.17,14.7a4,4,0,0,1-6.35,0,8.25,8.25,0,0,1,0-8.37,4,4,0,0,1,6.35,0,8.19,8.19,0,0,1,0,8.37Z"/><path class="cls-2" d="M711.8,422.82a6.2,6.2,0,0,0-4.95-2,8.28,8.28,0,0,0-6.66,2.93,11.53,11.53,0,0,0,0,14.26,8.28,8.28,0,0,0,6.66,2.93,6.05,6.05,0,0,0,4.95-2.07V440q0,4.9-4.32,4.9-3.29,0-4-2.83h-5.4a7.57,7.57,0,0,0,3,5.26,10.34,10.34,0,0,0,6.41,1.89,10,10,0,0,0,7.16-2.54c1.8-1.69,2.7-4.21,2.7-7.54V421.24H711.8Zm0,11.29a4.32,4.32,0,0,1-1.55,1.51,4.2,4.2,0,0,1-2.23.61,4.25,4.25,0,0,1-3.46-1.51,5.85,5.85,0,0,1-1.26-3.89,5.78,5.78,0,0,1,1.26-3.87,4.3,4.3,0,0,1,3.46-1.49,4.16,4.16,0,0,1,3.78,2.07Z"/><path class="cls-2" d="M734.39,434a3.47,3.47,0,0,1-1.3,2.05,3.7,3.7,0,0,1-2.3.74,3,3,0,0,1-2.43-.94,3.88,3.88,0,0,1-.81-2.61v-12H722v13.14a7.68,7.68,0,0,0,1.87,5.4,6.73,6.73,0,0,0,5.2,2,6.93,6.93,0,0,0,5.4-2.3v1.85H740V421.24h-5.63Z"/><path class="cls-2" d="M753.25,420.79a9,9,0,0,0-7,3,11.9,11.9,0,0,0,0,15.12,9.23,9.23,0,0,0,7.07,2.9,9.32,9.32,0,0,0,6-1.87,8,8,0,0,0,2.86-5.15h-5.18q-.68,2.52-3.73,2.52a4,4,0,0,1-3.06-1.28,5.58,5.58,0,0,1-1.31-3.54h13.41v-1.71a10.52,10.52,0,0,0-2.41-7.26A8.48,8.48,0,0,0,753.25,420.79Zm-4.14,8.33q.76-3.78,4.18-3.78a3.31,3.31,0,0,1,2.61,1.06,4.09,4.09,0,0,1,1,2.72Z"/><path class="cls-2" d="M768.05,413.28a3.47,3.47,0,0,0-2.5,1,3.25,3.25,0,0,0-1,2.45,3.12,3.12,0,0,0,.77,2.16,3.4,3.4,0,0,0,2,1.08l-3.2,4.95h3.56l2.47-3.74a7.43,7.43,0,0,0,1.49-4,3.8,3.8,0,0,0-1-2.81A3.45,3.45,0,0,0,768.05,413.28Z"/><polygon class="cls-2" points="328.98 342 332.73 342 332.73 323.58 330.3 323.58 324.69 326.34 324.69 330.09 328.98 327.96 328.98 342"/><path class="cls-2" d="M342.39,342.3A6.14,6.14,0,0,0,348.9,336a6,6,0,0,0-1.65-4.3,5.7,5.7,0,0,0-4.35-1.76,5.11,5.11,0,0,0-2.37.54,3.33,3.33,0,0,0-1.5,1.41v-.27a6.57,6.57,0,0,1,1-3.6,3,3,0,0,1,2.58-1.56,2.34,2.34,0,0,1,2.43,1.8h3.72a5.8,5.8,0,0,0-6.18-5,6,6,0,0,0-5.15,2.76,12.31,12.31,0,0,0-1.9,7.14,11.54,11.54,0,0,0,1.29,5.79A6,6,0,0,0,342.39,342.3Zm-2.19-8.55a2.94,2.94,0,0,1,2.22-.87,2.91,2.91,0,0,1,2.19.87,3.19,3.19,0,0,1,.84,2.31,3,3,0,0,1-.85,2.23,3.24,3.24,0,0,1-4.4,0,3,3,0,0,1-.84-2.23A3.19,3.19,0,0,1,340.2,333.75Z"/><path class="cls-2" d="M363.33,342.3a6.63,6.63,0,0,0,4.86-1.77,7,7,0,0,0,1.8-5.19V323.58h-3.84v11.73q0,3.51-2.85,3.51-2.46,0-2.7-2.67h-4a6.18,6.18,0,0,0,6.69,6.15Z"/><path class="cls-2" d="M377.64,342.3a4.62,4.62,0,0,0,3.6-1.53V342H385V328.59h-3.75v8.52a2.34,2.34,0,0,1-.87,1.37,2.48,2.48,0,0,1-1.53.49,2,2,0,0,1-1.62-.63,2.59,2.59,0,0,1-.54-1.74v-8h-3.72v8.76a5.1,5.1,0,0,0,1.24,3.6A4.49,4.49,0,0,0,377.64,342.3Z"/><path class="cls-2" d="M394.32,331.65a2.06,2.06,0,0,1,1.63.64,2.59,2.59,0,0,1,.56,1.73v8h3.72v-8.76a5.1,5.1,0,0,0-1.25-3.6,5.09,5.09,0,0,0-7.09.18v-1.23h-3.72V342h3.72v-8.49a2.28,2.28,0,0,1,.88-1.36A2.5,2.5,0,0,1,394.32,331.65Z"/><path class="cls-2" d="M413.44,327.4a2.3,2.3,0,0,1,1.76-.7,2.38,2.38,0,0,1,1.71.61,2.17,2.17,0,0,1,.63,1.61,2.91,2.91,0,0,1-.42,1.41,22,22,0,0,1-2.46,3l-5.85,6.15V342h12.75v-3.33h-7.41l3.54-3.81c.86-.9,1.48-1.57,1.87-2a9.21,9.21,0,0,0,1.19-1.83,4.79,4.79,0,0,0,.6-2.23,5.1,5.1,0,0,0-1.65-4,6.48,6.48,0,0,0-4.53-1.49,6.08,6.08,0,0,0-4.4,1.66,6.75,6.75,0,0,0-2,4.31h4A2.89,2.89,0,0,1,413.44,327.4Z"/><path class="cls-2" d="M430.65,342.3a6.29,6.29,0,0,0,5.25-2.64,12.75,12.75,0,0,0,0-13.74,6.54,6.54,0,0,0-10.5,0,12.75,12.75,0,0,0,0,13.74A6.29,6.29,0,0,0,430.65,342.3ZM428,328.38a2.91,2.91,0,0,1,5.28,0,11.61,11.61,0,0,1,0,8.82,2.91,2.91,0,0,1-5.28,0,11.61,11.61,0,0,1,0-8.82Z"/><path class="cls-2" d="M444,327.4a2.3,2.3,0,0,1,1.76-.7,2.38,2.38,0,0,1,1.71.61,2.17,2.17,0,0,1,.63,1.61,2.91,2.91,0,0,1-.42,1.41,22,22,0,0,1-2.46,3l-5.85,6.15V342h12.75v-3.33h-7.41l3.54-3.81c.86-.9,1.48-1.57,1.87-2a9.21,9.21,0,0,0,1.19-1.83,4.79,4.79,0,0,0,.6-2.23,5.1,5.1,0,0,0-1.65-4,6.48,6.48,0,0,0-4.53-1.49,6.08,6.08,0,0,0-4.4,1.66,6.75,6.75,0,0,0-2,4.31h4A2.89,2.89,0,0,1,444,327.4Z"/><polygon class="cls-2" points="457.83 342 461.58 342 461.58 323.58 459.15 323.58 453.54 326.34 453.54 330.09 457.83 327.96 457.83 342"/><path class="cls-2" d="M466.2,345.27l1.71-2.55a4.93,4.93,0,0,0,1-2.7,2.56,2.56,0,0,0-.66-1.87,2.22,2.22,0,0,0-1.68-.68,2.33,2.33,0,0,0-1.67.65,2.15,2.15,0,0,0-.67,1.63,2.08,2.08,0,0,0,.51,1.44,2.25,2.25,0,0,0,1.29.72l-2.19,3.36Z"/><polygon class="cls-2" points="480.84 342 484.59 342 484.59 323.58 482.16 323.58 476.55 326.34 476.55 330.09 480.84 327.96 480.84 342"/><polygon class="cls-2" points="495.21 342 498.63 342 498.63 338.34 501.42 338.34 501.42 335.19 498.63 335.19 498.63 331.38 495.21 331.38 495.21 335.19 491.13 335.19 497.13 323.58 493.38 323.58 487.02 335.58 487.02 338.34 495.21 338.34 495.21 342"/><path class="cls-2" d="M505.14,333.66a2.24,2.24,0,0,0,1.66-.69,2.48,2.48,0,0,0,0-3.41,2.4,2.4,0,0,0-3.33,0,2.48,2.48,0,0,0,0,3.41A2.25,2.25,0,0,0,505.14,333.66Z"/><path class="cls-2" d="M505.14,342.21a2.24,2.24,0,0,0,1.66-.69,2.35,2.35,0,0,0,.68-1.71,2.35,2.35,0,1,0-4.69,0,2.35,2.35,0,0,0,.68,1.71A2.25,2.25,0,0,0,505.14,342.21Z"/><path class="cls-2" d="M515.57,339a2.83,2.83,0,0,1-2.08-.74,3.15,3.15,0,0,1-.92-2h-3.78a6,6,0,0,0,2,4.35,7,7,0,0,0,4.81,1.65,6.49,6.49,0,0,0,4.59-1.59,5.31,5.31,0,0,0,1.7-4,4.51,4.51,0,0,0-.66-2.4,4.09,4.09,0,0,0-1.88-1.62,3.76,3.76,0,0,0,1.61-1.58,4.75,4.75,0,0,0,.64-2.41,5,5,0,0,0-1.63-3.88,6.16,6.16,0,0,0-4.37-1.49,6.24,6.24,0,0,0-4.45,1.64,6.43,6.43,0,0,0-2,4.15h3.73a2.82,2.82,0,0,1,.79-1.82,2.62,2.62,0,0,1,1.9-.7,2.42,2.42,0,0,1,1.76.64,2.24,2.24,0,0,1,.64,1.64,2,2,0,0,1-.76,1.71,3.13,3.13,0,0,1-2,.6h-1.05v3h1.17a3.17,3.17,0,0,1,2.11.68,2.43,2.43,0,0,1,0,3.56A2.7,2.7,0,0,1,515.57,339Z"/><path class="cls-2" d="M528.13,327.4a2.28,2.28,0,0,1,1.75-.7,2.37,2.37,0,0,1,1.71.61,2.17,2.17,0,0,1,.63,1.61,2.91,2.91,0,0,1-.42,1.41,22,22,0,0,1-2.46,3l-5.85,6.15V342h12.75v-3.33h-7.41l3.55-3.81c.85-.9,1.48-1.57,1.87-2a9.21,9.21,0,0,0,1.19-1.83,4.91,4.91,0,0,0,.6-2.23,5.1,5.1,0,0,0-1.66-4,6.44,6.44,0,0,0-4.52-1.49,6.06,6.06,0,0,0-4.4,1.66,6.76,6.76,0,0,0-2,4.31h4A2.9,2.9,0,0,1,528.13,327.4Z"/><path class="cls-2" d="M784.18,180h-416a12.52,12.52,0,0,0-12.5,12.5V244a12.52,12.52,0,0,0,12.5,12.5h416a12.52,12.52,0,0,0,12.5-12.5V192.5A12.52,12.52,0,0,0,784.18,180Zm3.5,64a3.5,3.5,0,0,1-3.5,3.5h-416a3.5,3.5,0,0,1-3.5-3.5V192.5a3.5,3.5,0,0,1,3.5-3.5h416a3.5,3.5,0,0,1,3.5,3.5Z"/><path class="cls-2" d="M380.55,211.5h57.66a4.5,4.5,0,1,0,0-9H380.55a4.5,4.5,0,1,0,0,9Z"/><path class="cls-2" d="M607.86,225.5H380.55a4.5,4.5,0,1,0,0,9H607.86a4.5,4.5,0,0,0,0-9Z"/><path class="cls-2" d="M368.18,585h416a12.52,12.52,0,0,0,12.5-12.5V521a12.52,12.52,0,0,0-12.5-12.5h-416a12.52,12.52,0,0,0-12.5,12.5v51.5A12.52,12.52,0,0,0,368.18,585Zm-3.5-64a3.5,3.5,0,0,1,3.5-3.5h416a3.5,3.5,0,0,1,3.5,3.5v51.5a3.5,3.5,0,0,1-3.5,3.5h-416a3.5,3.5,0,0,1-3.5-3.5Z"/><path class="cls-2" d="M380.55,540h57.66a4.5,4.5,0,1,0,0-9H380.55a4.5,4.5,0,1,0,0,9Z"/><path class="cls-2" d="M380.55,563H607.86a4.5,4.5,0,1,0,0-9H380.55a4.5,4.5,0,1,0,0,9Z"/><path class="cls-2" d="M368.18,679.5h416a12.52,12.52,0,0,0,12.5-12.5V615.5a12.52,12.52,0,0,0-12.5-12.5h-416a12.52,12.52,0,0,0-12.5,12.5V667A12.52,12.52,0,0,0,368.18,679.5Zm-3.5-64a3.5,3.5,0,0,1,3.5-3.5h416a3.5,3.5,0,0,1,3.5,3.5V667a3.5,3.5,0,0,1-3.5,3.5h-416a3.5,3.5,0,0,1-3.5-3.5Z"/><path class="cls-2" d="M380.55,634.5h57.66a4.5,4.5,0,1,0,0-9H380.55a4.5,4.5,0,1,0,0,9Z"/><path class="cls-2" d="M380.55,657.5H607.86a4.5,4.5,0,1,0,0-9H380.55a4.5,4.5,0,1,0,0,9Z"/><path class="cls-2" d="M368.18,774h416a12.52,12.52,0,0,0,12.5-12.5V710a12.52,12.52,0,0,0-12.5-12.5h-416a12.52,12.52,0,0,0-12.5,12.5v51.5A12.52,12.52,0,0,0,368.18,774Zm-3.5-64a3.5,3.5,0,0,1,3.5-3.5h416a3.5,3.5,0,0,1,3.5,3.5v51.5a3.5,3.5,0,0,1-3.5,3.5h-416a3.5,3.5,0,0,1-3.5-3.5Z"/><path class="cls-2" d="M380.55,729h57.66a4.5,4.5,0,1,0,0-9H380.55a4.5,4.5,0,1,0,0,9Z"/><path class="cls-2" d="M380.55,752H607.86a4.5,4.5,0,1,0,0-9H380.55a4.5,4.5,0,1,0,0,9Z"/><path class="cls-2" d="M380.55,823.5h57.66a4.5,4.5,0,1,0,0-9H380.55a4.5,4.5,0,1,0,0,9Z"/><path class="cls-2" d="M607.86,837.5H380.55a4.5,4.5,0,1,0,0,9H607.86a4.5,4.5,0,1,0,0-9Z"/></svg>
