<svg id="OUTLINES" xmlns="http://www.w3.org/2000/svg" viewBox="0 0 1152 1008"><defs><style>.cls-1{fill:#fff;}.cls-2{fill:#000f7d;}</style></defs><title>pseudo-anonymous-data</title><path class="cls-1" d="M477.43,490.21H626.85a0,0,0,0,1,0,0V775.5a74.71,74.71,0,0,1-74.71,74.71h0a74.71,74.71,0,0,1-74.71-74.71V490.21a0,0,0,0,1,0,0Z" transform="translate(-261.13 365.86) rotate(-30)"/><path class="cls-1" d="M604.92,842.14a81.27,81.27,0,0,1-21-2.78,80.18,80.18,0,0,1-49-37.61L392.24,554.68a6,6,0,0,1,2.2-8.19l129.4-74.71A6,6,0,0,1,532,474L674.68,721a80.77,80.77,0,0,1-69.76,121.1ZM405.64,553.88,545.28,795.75a68.71,68.71,0,0,0,119-68.71L524.65,485.17Z"/><path class="cls-1" d="M627.38,269.72l47.52,86.39a21.61,21.61,0,0,0,18.93,11.19H875.45A21.6,21.6,0,0,0,897,345.7V172.9a21.6,21.6,0,0,0-21.6-21.6H693.82A21.63,21.63,0,0,0,674.9,162.5l-47.52,86.4A21.63,21.63,0,0,0,627.38,269.72Z"/><path class="cls-1" d="M875.45,373.3H693.83A27.6,27.6,0,0,1,669.64,359l-47.51-86.39h0a27.47,27.47,0,0,1,0-26.6l47.51-86.4a27.62,27.62,0,0,1,24.18-14.3H875.44A27.59,27.59,0,0,1,903,172.9V345.7A27.63,27.63,0,0,1,875.45,373.3ZM632.64,266.82l47.52,86.4a15.61,15.61,0,0,0,13.67,8.08H875.45A15.61,15.61,0,0,0,891,345.7V172.9a15.59,15.59,0,0,0-15.6-15.6H693.83a15.62,15.62,0,0,0-13.67,8.09l-47.52,86.39A15.51,15.51,0,0,0,632.64,266.82Z"/><path class="cls-2" d="M822,183.09v34.7h34.7v-34.7ZM851.76,193v19.83H827V188.05h24.79Z"/><polygon class="cls-2" points="722.87 197.96 722.87 202.92 722.87 207.88 737.74 207.88 737.74 202.92 737.74 197.96 737.74 193 722.87 193 722.87 197.96"/><polygon class="cls-2" points="846.8 202.92 846.8 197.96 846.8 193 831.93 193 831.93 197.96 831.93 202.92 831.93 207.88 846.8 207.88 846.8 202.92"/><path class="cls-2" d="M747.65,212.83V183.09H713v34.7h34.7Zm-29.74,0V188.05H742.7v24.78Z"/><path class="cls-2" d="M713,297.11v29.74h34.7v-34.7H713Zm29.75,0v24.78H717.91V297.11Z"/><polygon class="cls-2" points="737.74 311.98 737.74 307.02 737.74 302.06 722.87 302.06 722.87 307.02 722.87 311.98 722.87 316.93 737.74 316.93 737.74 311.98"/><polygon class="cls-2" points="757.57 188.05 767.48 188.05 767.48 193 772.44 193 772.44 183.09 752.61 183.09 752.61 193 757.57 193 757.57 188.05 757.57 188.05"/><polygon class="cls-2" points="787.31 193 792.27 193 792.27 183.09 777.4 183.09 777.4 188.05 787.31 188.05 787.31 193 787.31 193"/><polygon class="cls-2" points="807.14 188.05 807.14 183.09 797.23 183.09 797.23 188.05 802.18 188.05 802.18 193 807.14 193 807.14 188.05 807.14 188.05"/><polygon class="cls-2" points="762.53 197.96 762.53 193 757.57 193 757.57 197.96 762.53 197.96 762.53 197.96"/><polygon class="cls-2" points="782.36 193 777.4 193 777.4 197.96 782.36 197.96 782.36 193 782.36 193"/><polygon class="cls-2" points="817.05 193 812.1 193 812.1 197.96 817.05 197.96 817.05 193 817.05 193"/><polygon class="cls-2" points="772.44 212.83 772.44 217.79 777.4 217.79 777.4 212.83 782.36 212.83 782.36 217.79 787.31 217.79 787.31 207.88 777.4 207.88 777.4 197.96 767.48 197.96 767.48 207.88 772.44 207.88 772.44 212.83 772.44 212.83"/><polygon class="cls-2" points="792.27 212.83 792.27 217.79 787.31 217.79 787.31 222.75 792.27 222.75 792.27 227.7 797.23 227.7 797.23 212.83 802.18 212.83 802.18 207.88 807.14 207.88 807.14 202.92 812.1 202.92 812.1 197.96 802.18 197.96 802.18 193 797.23 193 797.23 202.92 792.27 202.92 792.27 197.96 787.31 197.96 787.31 207.88 792.27 207.88 792.27 212.83 792.27 212.83"/><polygon class="cls-2" points="727.83 227.7 727.83 222.75 712.95 222.75 712.95 232.66 722.87 232.66 722.87 227.7 727.83 227.7 727.83 227.7"/><polygon class="cls-2" points="737.74 222.75 737.74 227.7 747.65 227.7 747.65 222.75 737.74 222.75 737.74 222.75"/><polygon class="cls-2" points="836.88 227.7 836.88 222.75 817.05 222.75 817.05 207.88 812.1 207.88 812.1 217.79 807.14 217.79 807.14 212.83 802.18 212.83 802.18 222.75 812.1 222.75 812.1 227.7 802.18 227.7 802.18 232.66 807.14 232.66 807.14 247.53 802.18 247.53 802.18 262.4 807.14 262.4 807.14 257.45 817.05 257.45 817.05 247.53 812.1 247.53 812.1 237.62 817.05 237.62 817.05 227.7 822.01 227.7 822.01 232.66 831.93 232.66 831.93 227.7 836.88 227.7 836.88 227.7"/><polygon class="cls-2" points="846.8 227.7 846.8 232.66 851.76 232.66 851.76 237.62 856.71 237.62 856.71 222.75 846.8 222.75 846.8 227.7 846.8 227.7"/><polygon class="cls-2" points="797.23 237.62 802.18 237.62 802.18 232.66 797.23 232.66 797.23 237.62 797.23 237.62"/><polygon class="cls-2" points="831.93 237.62 836.88 237.62 836.88 242.58 841.84 242.58 841.84 237.62 846.8 237.62 846.8 232.66 831.93 232.66 831.93 237.62 831.93 237.62"/><polygon class="cls-2" points="747.65 247.53 747.65 242.58 742.7 242.58 742.7 247.53 747.65 247.53 747.65 247.53"/><polygon class="cls-2" points="851.76 247.53 846.8 247.53 846.8 252.49 851.76 252.49 851.76 257.45 856.71 257.45 856.71 242.58 851.76 242.58 851.76 247.53 851.76 247.53"/><polygon class="cls-2" points="722.87 252.49 722.87 242.58 712.95 242.58 712.95 257.45 717.91 257.45 717.91 252.49 722.87 252.49 722.87 252.49"/><polygon class="cls-2" points="742.7 252.49 742.7 247.53 737.74 247.53 737.74 257.45 747.65 257.45 747.65 252.49 742.7 252.49 742.7 252.49"/><polygon class="cls-2" points="757.57 257.45 762.53 257.45 762.53 252.49 757.57 252.49 757.57 257.45 757.57 257.45"/><polygon class="cls-2" points="772.44 257.45 772.44 252.49 767.48 252.49 767.48 257.45 772.44 257.45 772.44 257.45"/><polygon class="cls-2" points="722.87 257.45 717.91 257.45 717.91 262.4 722.87 262.4 722.87 257.45 722.87 257.45"/><polygon class="cls-2" points="757.57 257.45 747.65 257.45 747.65 262.4 757.57 262.4 757.57 257.45 757.57 257.45"/><path class="cls-2" d="M822,262.4v14.88h-5v-9.92h-5v-5h-5v9.92h-5v5h5v5h5v19.83h-5V312h5v-5h5v5h5v-5h9.92v9.91h-5v5h-5v5h19.83v-9.92h-5V312h9.92v-5h-5v-5h-5v-9.91h9.92v-5h-5v-5H827v-9.91h5v-5h-5v-5h5v-4.95h5v-5h-5v-9.91H822v9.91h5v5h-9.91v4.95Zm9.92,24.79v14.87H817.06V287.19Z"/><polygon class="cls-2" points="712.95 262.4 712.95 267.36 717.91 267.36 717.91 262.4 712.95 262.4 712.95 262.4"/><polygon class="cls-2" points="742.7 262.4 742.7 267.36 747.65 267.36 747.65 262.4 742.7 262.4 742.7 262.4"/><polygon class="cls-2" points="722.87 267.36 717.91 267.36 717.91 272.32 712.95 272.32 712.95 277.28 722.87 277.28 722.87 267.36 722.87 267.36"/><polygon class="cls-2" points="742.7 267.36 737.74 267.36 737.74 262.4 732.78 262.4 732.78 242.58 727.83 242.58 727.83 267.36 732.78 267.36 732.78 272.32 737.74 272.32 737.74 277.28 747.65 277.28 747.65 272.32 742.7 272.32 742.7 267.36 742.7 267.36"/><polygon class="cls-2" points="727.83 277.28 722.87 277.28 722.87 282.23 732.78 282.23 732.78 272.32 727.83 272.32 727.83 277.28 727.83 277.28"/><polygon class="cls-2" points="841.84 277.28 841.84 272.32 831.93 272.32 831.93 277.28 841.84 277.28 841.84 277.28"/><polygon class="cls-2" points="851.76 277.28 856.71 277.28 856.71 262.4 851.76 262.4 851.76 267.36 841.84 267.36 841.84 272.32 851.76 272.32 851.76 277.28 851.76 277.28"/><polygon class="cls-2" points="712.95 287.19 722.87 287.19 722.87 282.23 712.95 282.23 712.95 287.19 712.95 287.19"/><polygon class="cls-2" points="747.65 287.19 747.65 282.23 732.78 282.23 732.78 287.19 747.65 287.19 747.65 287.19"/><polygon class="cls-2" points="851.76 282.23 846.8 282.23 846.8 287.19 851.76 287.19 851.76 282.23 851.76 282.23"/><polygon class="cls-2" points="752.61 287.19 752.61 292.15 757.57 292.15 757.57 287.19 752.61 287.19 752.61 287.19"/><polygon class="cls-2" points="762.53 292.15 767.48 292.15 767.48 282.23 777.4 282.23 777.4 277.28 782.36 277.28 782.36 282.23 777.4 282.23 777.4 292.15 787.31 292.15 787.31 302.06 792.27 302.06 792.27 307.02 797.23 307.02 797.23 297.11 802.18 297.11 802.18 302.06 807.14 302.06 807.14 287.19 797.23 287.19 797.23 282.23 792.27 282.23 792.27 272.32 797.23 272.32 797.23 257.45 792.27 257.45 792.27 252.49 797.23 252.49 797.23 237.62 792.27 237.62 792.27 247.53 787.31 247.53 787.31 237.62 792.27 237.62 792.27 227.7 787.31 227.7 787.31 232.66 777.4 232.66 777.4 227.7 782.36 227.7 782.36 217.79 777.4 217.79 777.4 222.75 767.48 222.75 767.48 227.7 772.44 227.7 772.44 237.62 767.48 237.62 767.48 232.66 757.57 232.66 757.57 227.7 762.53 227.7 762.53 217.79 757.57 217.79 757.57 212.83 762.53 212.83 762.53 217.79 767.48 217.79 767.48 207.88 757.57 207.88 757.57 202.92 752.61 202.92 752.61 227.7 747.65 227.7 747.65 232.66 732.78 232.66 732.78 227.7 727.83 227.7 727.83 232.66 722.87 232.66 722.87 237.62 732.78 237.62 732.78 242.58 742.7 242.58 742.7 237.62 752.61 237.62 752.61 242.58 757.57 242.58 757.57 237.62 762.53 237.62 762.53 242.58 757.57 242.58 757.57 247.53 762.53 247.53 762.53 252.49 767.48 252.49 767.48 242.58 777.4 242.58 777.4 237.62 782.36 237.62 782.36 242.58 777.4 242.58 777.4 252.49 787.31 252.49 787.31 262.4 792.27 262.4 792.27 267.36 787.31 267.36 787.31 272.32 777.4 272.32 777.4 267.36 782.36 267.36 782.36 257.45 777.4 257.45 777.4 262.4 767.48 262.4 767.48 257.45 762.53 257.45 762.53 267.36 747.65 267.36 747.65 272.32 767.48 272.32 767.48 267.36 772.44 267.36 772.44 277.28 752.61 277.28 752.61 282.23 757.57 282.23 757.57 287.19 762.53 287.19 762.53 292.15 762.53 292.15"/><polygon class="cls-2" points="772.44 297.11 772.44 292.15 767.48 292.15 767.48 297.11 772.44 297.11 772.44 297.11"/><polygon class="cls-2" points="826.97 292.15 822.01 292.15 822.01 297.11 826.97 297.11 826.97 292.15 826.97 292.15"/><polygon class="cls-2" points="851.76 297.11 846.8 297.11 846.8 307.02 851.76 307.02 851.76 311.98 846.8 311.98 846.8 316.93 856.71 316.93 856.71 287.19 851.76 287.19 851.76 297.11 851.76 297.11"/><polygon class="cls-2" points="762.53 297.11 762.53 292.15 757.57 292.15 757.57 297.11 752.61 297.11 752.61 302.06 757.57 302.06 757.57 307.02 762.53 307.02 762.53 302.06 767.48 302.06 767.48 297.11 762.53 297.11 762.53 297.11"/><polygon class="cls-2" points="802.18 307.02 797.23 307.02 797.23 311.98 792.27 311.98 792.27 307.02 787.31 307.02 787.31 311.98 777.4 311.98 777.4 307.02 782.36 307.02 782.36 297.11 777.4 297.11 777.4 302.06 767.48 302.06 767.48 307.02 772.44 307.02 772.44 316.93 762.53 316.93 762.53 321.89 757.57 321.89 757.57 311.98 752.61 311.98 752.61 326.85 767.48 326.85 767.48 321.89 777.4 321.89 777.4 316.93 782.36 316.93 782.36 321.89 777.4 321.89 777.4 326.85 797.23 326.85 797.23 316.93 802.18 316.93 802.18 321.89 807.14 321.89 807.14 311.98 802.18 311.98 802.18 307.02 802.18 307.02"/><polygon class="cls-2" points="817.05 316.93 817.05 311.98 812.1 311.98 812.1 326.85 817.05 326.85 817.05 321.89 822.01 321.89 822.01 316.93 817.05 316.93 817.05 316.93"/><polygon class="cls-2" points="851.76 326.85 856.71 326.85 856.71 321.89 851.76 321.89 851.76 326.85 851.76 326.85"/><path class="cls-2" d="M871.11,369H689.49a27.6,27.6,0,0,1-24.18-14.3l-47.52-86.39a27.49,27.49,0,0,1,0-26.61l47.52-86.39A27.6,27.6,0,0,1,689.49,141H871.11a27.59,27.59,0,0,1,27.6,27.6v172.8A27.63,27.63,0,0,1,871.11,369ZM628.31,262.49l47.52,86.4A15.6,15.6,0,0,0,689.49,357H871.11a15.61,15.61,0,0,0,15.6-15.6V168.57a15.6,15.6,0,0,0-15.6-15.6H689.49a15.6,15.6,0,0,0-13.66,8.08l-47.52,86.4A15.51,15.51,0,0,0,628.31,262.49Z"/><path class="cls-2" d="M659.48,275.55A20.59,20.59,0,1,1,680.06,255,20.61,20.61,0,0,1,659.48,275.55Zm0-31.17A10.59,10.59,0,1,0,670.06,255,10.6,10.6,0,0,0,659.48,244.38Z"/><path class="cls-2" d="M605.08,873a114.27,114.27,0,0,1-29.64-3.93,113,113,0,0,1-69.11-53L288.91,439.46l-2.82,1.63a33.17,33.17,0,0,1-33.17-57.45l202.63-117,3,5.19-3-5.19a33.16,33.16,0,0,1,33.17,57.44L486,325.66,703.45,702.24A113.89,113.89,0,0,1,605.08,873Zm-314-447.74a5.85,5.85,0,0,1,1.55.21,6,6,0,0,1,3.64,2.79L516.73,810.05A101.81,101.81,0,0,0,693.06,708.24L472.63,326.46a6,6,0,0,1,2.2-8.2l7.89-4.55a21.17,21.17,0,1,0-21.17-36.66h0L258.92,394a21.17,21.17,0,0,0,21.17,36.67l8-4.63A6,6,0,0,1,291.11,425.26Z"/><path class="cls-2" d="M269.82,386.81a6,6,0,0,1-3.81-1.36L221.2,348.58a6,6,0,0,1,.81-9.83L433.76,216.5a6,6,0,0,1,8.91,4.21L452.2,278a6,6,0,0,1-2.92,6.18L272.82,386A6,6,0,0,1,269.82,386.81Zm-34.31-42,34.91,28.73,169.26-97.72-7.42-44.6Z"/><path class="cls-2" d="M604.32,836.94a81.27,81.27,0,0,1-21-2.78,80.18,80.18,0,0,1-49-37.61L391.64,549.48a6,6,0,0,1,2.2-8.19l129.4-74.71a6,6,0,0,1,8.2,2.19L674.08,715.84a80.77,80.77,0,0,1-69.76,121.1ZM405,548.68,544.68,790.55a68.71,68.71,0,1,0,119-68.71L524.05,480Z"/><path class="cls-2" d="M313.21,475.06a5,5,0,0,1-2.5-9.33L493.87,360l.18-.09c46.36-24.38,57.08-32.34,65.36-61.29a65.54,65.54,0,0,1,32.92-40.73c18.1-9.64,41-12.27,68-7.84a5,5,0,0,1-1.63,9.87c-24.43-4-45.74-1.66-61.63,6.79a55.83,55.83,0,0,0-28,34.65c-9.72,34-25.65,43.9-70.23,67.35L315.71,474.39A4.94,4.94,0,0,1,313.21,475.06Z"/></svg>