<svg id="OUTLINES" xmlns="http://www.w3.org/2000/svg" viewBox="0 0 1152 1008"><defs><style>.cls-1{fill:#fff;}.cls-2{fill:#000f7d;}</style></defs><title>authentication-by-secret-answer</title><path class="cls-1" d="M782.81,498h-50.4a24,24,0,0,0-18,8.15,23.94,23.94,0,0,0-18-8.15H646a24,24,0,0,0-18,8.15A24,24,0,0,0,610,498h-50.4a24,24,0,0,0-18,8.15,24,24,0,0,0-18-8.15h-50.4a24,24,0,0,0-18,8.15,23.94,23.94,0,0,0-18-8.15h-50.4a24,24,0,0,0-24,24v45a24,24,0,0,0,24,24h50.4a23.94,23.94,0,0,0,18-8.15,24,24,0,0,0,18,8.15h50.4a24,24,0,0,0,18-8.15,24,24,0,0,0,18,8.15H610a24,24,0,0,0,18-8.15A24,24,0,0,0,646,591h50.4a23.94,23.94,0,0,0,18-8.15,24,24,0,0,0,18,8.15h50.4a24,24,0,0,0,24-24V522A24,24,0,0,0,782.81,498Z"/><rect class="cls-1" x="363" y="327" width="444" height="156" rx="24"/><path class="cls-2" d="M607.11,272.8c0,4.77-7.74,8.64-17.28,8.64s-17.28-3.87-17.28-8.64,7.73-8.64,17.28-8.64S607.11,268,607.11,272.8Zm-17.28,13.25c-9.48,0-17.18-3.82-17.27-8.55h0v5.83c0,4.77,7.73,8.64,17.28,8.64s17.28-3.87,17.28-8.64V277.5h0C607,282.23,599.31,286.05,589.83,286.05Zm0,10.53c-9.48,0-17.18-3.82-17.27-8.55h0v5.83c0,4.77,7.73,8.64,17.28,8.64s17.28-3.87,17.28-8.64V288h0C607,292.76,599.31,296.58,589.83,296.58Zm-17.28-43.72c9.54,0,17.28-3.87,17.28-8.65s-7.74-8.64-17.28-8.64-17.28,3.87-17.28,8.64S563,252.86,572.55,252.86Zm17.27,6.59c0,1.81-1.18,3.47-3.11,4.85,1-.09,2-.14,3.12-.14v-4.71Zm-17.27,3.94c9.54,0,17.28-3.87,17.28-8.64v-5.83h0c-.1,4.73-7.79,8.55-17.27,8.55s-17.18-3.82-17.27-8.55h0v5.83C555.27,259.52,563,263.39,572.55,263.39Zm0,10.53h0v-1s0-.05,0-.08c0-1.84,1.16-3.54,3.11-4.95-1,.1-2,.15-3.11.15-9.49,0-17.18-3.82-17.27-8.55h0v5.83C555.27,270.05,563,273.92,572.55,273.92Zm0,10.53v-5.92h0c-9.49,0-17.18-3.82-17.27-8.55h0v5.83c0,4.77,7.73,8.64,17.28,8.64Z"/><path class="cls-2" d="M419.46,359.37h18.76v5H425.13v6H437v4.91H425.13v6.57h13.09V387H419.46Z"/><path class="cls-2" d="M442.45,387V366.89H448v1.84a7.65,7.65,0,0,1,10.64-.27,7.63,7.63,0,0,1,1.87,5.4V387H455V375a3.87,3.87,0,0,0-.83-2.59,3.07,3.07,0,0,0-2.45-1,3.76,3.76,0,0,0-2.32.74,3.42,3.42,0,0,0-1.33,2V387Z"/><path class="cls-2" d="M466.39,380.93v-9.54h-3.06v-4.5h3.06v-5.45h5.53v5.45h4.41v4.5h-4.41v8.82a2,2,0,0,0,2.3,2.29,4.35,4.35,0,0,0,2.43-.67v4.95a7.89,7.89,0,0,1-3.6.63,7,7,0,0,1-4.9-1.62A6.3,6.3,0,0,1,466.39,380.93Z"/><path class="cls-2" d="M492.76,380.43h5.17a8,8,0,0,1-2.85,5.15,9.35,9.35,0,0,1-6.06,1.87,9.21,9.21,0,0,1-7.06-2.9,11.9,11.9,0,0,1,0-15.12,9,9,0,0,1,6.95-3,8.49,8.49,0,0,1,6.73,2.72,10.55,10.55,0,0,1,2.41,7.27v1.71H484.66a5.57,5.57,0,0,0,1.3,3.53A4,4,0,0,0,489,383Q492.08,383,492.76,380.43ZM489,371q-3.42,0-4.19,3.78h7.79a4.09,4.09,0,0,0-1-2.72A3.31,3.31,0,0,0,489,371Z"/><path class="cls-2" d="M513.82,366.8v5.58a5.34,5.34,0,0,0-2.79-.68,4.18,4.18,0,0,0-2.48.74,3.47,3.47,0,0,0-1.35,2.1V387h-5.58V366.89h5.58v2a4.86,4.86,0,0,1,4.5-2.43A4.55,4.55,0,0,1,513.82,366.8Z"/><path class="cls-2" d="M535.37,394.43h-5.49l2.93-7.34-7.7-20.2H531l4.63,13.36,4.59-13.36h5.63Z"/><path class="cls-2" d="M566.69,377a10.6,10.6,0,0,1-2.74,7.56,10.12,10.12,0,0,1-14.22,0,11.84,11.84,0,0,1,0-15.17,10.12,10.12,0,0,1,14.22,0A10.67,10.67,0,0,1,566.69,377Zm-5.53,0a7,7,0,0,0-1.15-4.21,3.94,3.94,0,0,0-6.34,0,7,7,0,0,0-1.15,4.21,6.94,6.94,0,0,0,1.15,4.16,3.94,3.94,0,0,0,6.34,0A6.94,6.94,0,0,0,561.16,377Z"/><path class="cls-2" d="M588.07,366.89V387h-5.58v-1.84a6.93,6.93,0,0,1-5.4,2.29,6.73,6.73,0,0,1-5.2-2A7.68,7.68,0,0,1,570,380V366.89h5.58v12a3.88,3.88,0,0,0,.81,2.61,3,3,0,0,0,2.43.95,3.71,3.71,0,0,0,2.3-.75,3.45,3.45,0,0,0,1.3-2V366.89Z"/><path class="cls-2" d="M605.08,366.8v5.58a5.34,5.34,0,0,0-2.79-.68,4.18,4.18,0,0,0-2.48.74,3.47,3.47,0,0,0-1.35,2.1V387h-5.58V366.89h5.58v2a4.86,4.86,0,0,1,4.5-2.43A4.55,4.55,0,0,1,605.08,366.8Z"/><path class="cls-2" d="M626.9,373.5a5.08,5.08,0,0,0-4,1.85h-4.5v-16h16.2v5H623.12V370a7.72,7.72,0,0,1,4.46-1.26A8.54,8.54,0,0,1,634,371.3a9.47,9.47,0,0,1-7,16.15,10.06,10.06,0,0,1-7-2.45,9.46,9.46,0,0,1-3-6.55h5.58a4.78,4.78,0,0,0,1.37,3,4.25,4.25,0,0,0,3.08,1.11,3.79,3.79,0,0,0,3-1.26,4.76,4.76,0,0,0,1.13-3.29,4.68,4.68,0,0,0-1.13-3.24A3.89,3.89,0,0,0,626.9,373.5Z"/><path class="cls-2" d="M639.37,377.64v-4.86h10.84v4.86Z"/><path class="cls-2" d="M667.94,387v-1.66a5.84,5.84,0,0,1-2.11,1.48,7.05,7.05,0,0,1-2.93.63,8.18,8.18,0,0,1-6.68-3,12.72,12.72,0,0,1,0-15,8.14,8.14,0,0,1,6.68-3,7.05,7.05,0,0,1,2.93.63,5.84,5.84,0,0,1,2.11,1.48v-10.8h5.63V387Zm0-6.75v-6.61a4,4,0,0,0-1.53-1.69,4.09,4.09,0,0,0-2.25-.65,4.31,4.31,0,0,0-3.51,1.59,6.26,6.26,0,0,0-1.3,4.08,6.13,6.13,0,0,0,1.3,4,4.32,4.32,0,0,0,3.51,1.57,4.17,4.17,0,0,0,3.78-2.34Z"/><path class="cls-2" d="M684.46,361.08a3,3,0,0,1-1,2.3,3.49,3.49,0,0,1-4.68,0,3.15,3.15,0,0,1,0-4.57,3.29,3.29,0,0,1,2.34-.92,3.23,3.23,0,0,1,2.32.92A3,3,0,0,1,684.46,361.08Zm-.5,5.81V387h-5.58V366.89Z"/><path class="cls-2" d="M701.65,385.65v-1.17a6.05,6.05,0,0,1-4.95,2.07,8.27,8.27,0,0,1-6.66-2.92,11.5,11.5,0,0,1,0-14.27,8.27,8.27,0,0,1,6.66-2.92,6.2,6.2,0,0,1,4.95,2v-1.57h5.53V384.8q0,5-2.7,7.53a10,10,0,0,1-7.15,2.55,10.37,10.37,0,0,1-6.42-1.89,7.58,7.58,0,0,1-2.94-5.27h5.4q.68,2.83,4,2.84Q701.65,390.56,701.65,385.65Zm0-5.89v-6.57a4.14,4.14,0,0,0-3.78-2.07,4.31,4.31,0,0,0-3.47,1.48,5.78,5.78,0,0,0-1.26,3.87,5.85,5.85,0,0,0,1.26,3.89,4.27,4.27,0,0,0,3.47,1.51,4.17,4.17,0,0,0,2.22-.61A4.33,4.33,0,0,0,701.65,379.76Z"/><path class="cls-2" d="M718.12,361.08a3,3,0,0,1-1,2.3,3.49,3.49,0,0,1-4.68,0,3.15,3.15,0,0,1,0-4.57,3.29,3.29,0,0,1,2.34-.92,3.23,3.23,0,0,1,2.32.92A3,3,0,0,1,718.12,361.08Zm-.5,5.81V387H712V366.89Z"/><path class="cls-2" d="M723.7,380.93v-9.54h-3.06v-4.5h3.06v-5.45h5.53v5.45h4.41v4.5h-4.41v8.82a2,2,0,0,0,2.3,2.29,4.35,4.35,0,0,0,2.43-.67v4.95a7.89,7.89,0,0,1-3.6.63,7,7,0,0,1-4.91-1.62A6.29,6.29,0,0,1,723.7,380.93Z"/><path class="cls-2" d="M425.91,430.34v9.09h-5.58V411.89h5.58v1.66a5.89,5.89,0,0,1,2.12-1.48,7,7,0,0,1,2.92-.63,8.21,8.21,0,0,1,6.71,3,11.5,11.5,0,0,1,2.47,7.5,11.38,11.38,0,0,1-2.47,7.47,8.22,8.22,0,0,1-6.71,3,7,7,0,0,1-2.92-.63A5.89,5.89,0,0,1,425.91,430.34Zm0-11.7v6.61a4.07,4.07,0,0,0,1.53,1.69,4.18,4.18,0,0,0,2.25.65A4.32,4.32,0,0,0,433.2,426a6.14,6.14,0,0,0,1.31-4,6.26,6.26,0,0,0-1.31-4.08,4.31,4.31,0,0,0-3.51-1.59,4,4,0,0,0-2.22.65A4.36,4.36,0,0,0,425.91,418.64Z"/><path class="cls-2" d="M460.25,432h-5.36v-1.08a4.93,4.93,0,0,1-1.93,1,9.62,9.62,0,0,1-3,.45,8.11,8.11,0,0,1-5.33-1.75,5.83,5.83,0,0,1-2.14-4.77,5.69,5.69,0,0,1,2.23-4.64,8.53,8.53,0,0,1,5.55-1.8,10.12,10.12,0,0,1,2.61.36,6.34,6.34,0,0,1,2,.81v-1.48a3.08,3.08,0,0,0-.83-2.23,3.21,3.21,0,0,0-2.45-.88,2.86,2.86,0,0,0-3,1.89h-5.31a7.12,7.12,0,0,1,2.77-4.61,10.17,10.17,0,0,1,11.92.22,7.39,7.39,0,0,1,2.23,5.7Zm-5.36-5.49v-1.44a2.58,2.58,0,0,0-1.37-1.28,5.21,5.21,0,0,0-2.27-.47,4.81,4.81,0,0,0-2.5.63,2,2,0,0,0-1.06,1.84,2,2,0,0,0,1,1.85,4.76,4.76,0,0,0,2.52.63,5.21,5.21,0,0,0,2.27-.48A2.58,2.58,0,0,0,454.89,426.51Z"/><path class="cls-2" d="M463.49,426H469c.45,1.47,1.58,2.2,3.38,2.2s2.83-.66,2.83-2a1.28,1.28,0,0,0-.47-1.06,4.24,4.24,0,0,0-1.55-.65l-4-.9q-5.22-1.22-5.22-5.67a5.72,5.72,0,0,1,2.29-4.7,8.89,8.89,0,0,1,5.72-1.82,9.39,9.39,0,0,1,5.87,1.64,7.18,7.18,0,0,1,2.68,4.57h-5.31q-.63-2-3.15-2a3.43,3.43,0,0,0-1.87.49,1.56,1.56,0,0,0-.79,1.4c0,.75.6,1.27,1.8,1.57l4.14.95q5.35,1.31,5.36,5.85a5.68,5.68,0,0,1-2.32,4.77,9.55,9.55,0,0,1-5.92,1.75,10.32,10.32,0,0,1-6.12-1.69A6.73,6.73,0,0,1,463.49,426Z"/><path class="cls-2" d="M483.15,426h5.54c.45,1.47,1.57,2.2,3.37,2.2s2.84-.66,2.84-2a1.29,1.29,0,0,0-.48-1.06,4.16,4.16,0,0,0-1.55-.65l-4.05-.9q-5.22-1.22-5.22-5.67a5.73,5.73,0,0,1,2.3-4.7,8.86,8.86,0,0,1,5.71-1.82,9.37,9.37,0,0,1,5.87,1.64,7.14,7.14,0,0,1,2.68,4.57h-5.31q-.63-2-3.15-2a3.45,3.45,0,0,0-1.87.49,1.57,1.57,0,0,0-.78,1.4c0,.75.6,1.27,1.8,1.57l4.14.95q5.36,1.31,5.35,5.85A5.65,5.65,0,0,1,498,430.7a9.49,9.49,0,0,1-5.91,1.75,10.32,10.32,0,0,1-6.12-1.69A6.74,6.74,0,0,1,483.15,426Z"/><path class="cls-2" d="M502.86,422a10.78,10.78,0,0,1,2.7-7.61,10,10,0,0,1,13-.94,8.05,8.05,0,0,1,2.79,5.26h-5.49a2.82,2.82,0,0,0-1.11-1.82,3.57,3.57,0,0,0-2.22-.65,3.53,3.53,0,0,0-3,1.57A7.07,7.07,0,0,0,508.4,422a7,7,0,0,0,1.12,4.14,3.53,3.53,0,0,0,3,1.57,3.63,3.63,0,0,0,2.22-.65,2.84,2.84,0,0,0,1.11-1.82h5.49a8.12,8.12,0,0,1-2.77,5.26,10,10,0,0,1-13-.94A10.71,10.71,0,0,1,502.86,422Z"/><path class="cls-2" d="M543.27,422a10.6,10.6,0,0,1-2.74,7.56,10.12,10.12,0,0,1-14.22,0,11.84,11.84,0,0,1,0-15.17,10.12,10.12,0,0,1,14.22,0A10.67,10.67,0,0,1,543.27,422Zm-5.53,0a7.09,7.09,0,0,0-1.15-4.21,4,4,0,0,0-6.35,0A7.09,7.09,0,0,0,529.1,422a7,7,0,0,0,1.14,4.16,4,4,0,0,0,6.35,0A7,7,0,0,0,537.74,422Z"/><path class="cls-2" d="M559.92,432v-1.66a5.84,5.84,0,0,1-2.11,1.48,7.05,7.05,0,0,1-2.93.63,8.18,8.18,0,0,1-6.68-3,12.72,12.72,0,0,1,0-15,8.14,8.14,0,0,1,6.68-3,7.05,7.05,0,0,1,2.93.63,5.84,5.84,0,0,1,2.11,1.48v-10.8h5.63V432Zm0-6.75v-6.61a4,4,0,0,0-1.53-1.69,4.09,4.09,0,0,0-2.25-.65,4.31,4.31,0,0,0-3.51,1.59,6.26,6.26,0,0,0-1.3,4.08,6.13,6.13,0,0,0,1.3,4,4.32,4.32,0,0,0,3.51,1.57,4.17,4.17,0,0,0,3.78-2.34Z"/><path class="cls-2" d="M582.6,425.43h5.18a8,8,0,0,1-2.86,5.15,9.32,9.32,0,0,1-6,1.87,9.23,9.23,0,0,1-7.07-2.9,11.9,11.9,0,0,1,0-15.12,9,9,0,0,1,7-3,8.47,8.47,0,0,1,6.72,2.72,10.55,10.55,0,0,1,2.41,7.27v1.71H574.5a5.57,5.57,0,0,0,1.31,3.53,4,4,0,0,0,3.06,1.28Q581.93,428,582.6,425.43ZM578.82,416q-3.42,0-4.18,3.78h7.78a4.09,4.09,0,0,0-1-2.72A3.31,3.31,0,0,0,578.82,416Z"/><path class="cls-2" d="M602.22,425.93v-9.54h-3.06v-4.5h3.06v-5.45h5.53v5.45h4.42v4.5h-4.42v8.82a2,2,0,0,0,2.3,2.29,4.35,4.35,0,0,0,2.43-.67v4.95a8,8,0,0,1-3.6.63,7,7,0,0,1-4.9-1.62A6.3,6.3,0,0,1,602.22,425.93Z"/><path class="cls-2" d="M634.8,422a10.61,10.61,0,0,1-2.75,7.56,10.12,10.12,0,0,1-14.22,0,11.87,11.87,0,0,1,0-15.17,10.12,10.12,0,0,1,14.22,0A10.68,10.68,0,0,1,634.8,422Zm-5.54,0a7.09,7.09,0,0,0-1.14-4.21,4,4,0,0,0-6.35,0,7.09,7.09,0,0,0-1.15,4.21,7,7,0,0,0,1.15,4.16,4,4,0,0,0,6.35,0A7,7,0,0,0,629.26,422Z"/><path class="cls-2" d="M653.47,402.75V432h-5.58V402.75Z"/><path class="cls-2" d="M676.78,422a10.6,10.6,0,0,1-2.74,7.56,10.12,10.12,0,0,1-14.22,0,11.84,11.84,0,0,1,0-15.17,10.12,10.12,0,0,1,14.22,0A10.67,10.67,0,0,1,676.78,422Zm-5.53,0a7,7,0,0,0-1.15-4.21,3.94,3.94,0,0,0-6.34,0,7,7,0,0,0-1.15,4.21,6.94,6.94,0,0,0,1.15,4.16,3.94,3.94,0,0,0,6.34,0A6.94,6.94,0,0,0,671.25,422Z"/><path class="cls-2" d="M693.34,430.65v-1.17a6.05,6.05,0,0,1-5,2.07,8.27,8.27,0,0,1-6.66-2.92,11.54,11.54,0,0,1,0-14.27,8.27,8.27,0,0,1,6.66-2.92,6.2,6.2,0,0,1,5,2v-1.57h5.54V429.8q0,5-2.7,7.53a10,10,0,0,1-7.16,2.55,10.34,10.34,0,0,1-6.41-1.89,7.59,7.59,0,0,1-3-5.27h5.4q.68,2.83,4,2.84Q693.34,435.56,693.34,430.65Zm0-5.89v-6.57a4.14,4.14,0,0,0-3.78-2.07,4.29,4.29,0,0,0-3.46,1.48,5.78,5.78,0,0,0-1.26,3.87,5.85,5.85,0,0,0,1.26,3.89,4.25,4.25,0,0,0,3.46,1.51,4.2,4.2,0,0,0,2.23-.61A4.3,4.3,0,0,0,693.34,424.76Z"/><path class="cls-2" d="M709.81,406.08a3,3,0,0,1-1,2.3,3.49,3.49,0,0,1-4.68,0,3.15,3.15,0,0,1,0-4.57,3.29,3.29,0,0,1,2.34-.92,3.23,3.23,0,0,1,2.32.92A3,3,0,0,1,709.81,406.08Zm-.49,5.81V432h-5.58V411.89Z"/><path class="cls-2" d="M714.18,432V411.89h5.58v1.84a7.65,7.65,0,0,1,10.64-.27,7.63,7.63,0,0,1,1.87,5.4V432h-5.58V420a3.87,3.87,0,0,0-.83-2.59,3.09,3.09,0,0,0-2.46-1,3.75,3.75,0,0,0-2.31.74,3.42,3.42,0,0,0-1.33,2V432Z"/><circle class="cls-2" cx="403.2" cy="535.5" r="11.25"/><circle class="cls-2" cx="489.6" cy="535.5" r="11.25"/><circle class="cls-2" cx="576" cy="533.25" r="11.25"/><path class="cls-2" d="M662.4,559.5a1.5,1.5,0,0,1-1.5-1.5V508.5a1.5,1.5,0,0,1,3,0V558A1.5,1.5,0,0,1,662.4,559.5Z"/><path class="cls-2" d="M576.19,647.5a23,23,0,1,0,23,23A23,23,0,0,0,576.19,647.5Zm0,36a13,13,0,1,1,13-13A13,13,0,0,1,576.19,683.5Z"/><path class="cls-2" d="M775.41,602.76,754.65,582H774a24,24,0,0,0,24-24V513a24,24,0,0,0-24-24H724.65l-.11-15h49.65a24,24,0,0,0,24-24V342a24,24,0,0,0-24-24h-49.5V234a22.53,22.53,0,0,0-22.5-22.5h-252a22.52,22.52,0,0,0-22.5,22.5v84h-49.5a24,24,0,0,0-24,24V450a24,24,0,0,0,24,24H427.5v15H378a24,24,0,0,0-24,24v45a24,24,0,0,0,24,24h49.69V702a22.52,22.52,0,0,0,22.5,22.5h121v29.19a77.91,77.91,0,0,0,40.9,68.85V846a5,5,0,0,0,10,0V819.5a5,5,0,0,0-2.78-4.48,68,68,0,0,1-38.12-61.33V724.5H677.7a78.37,78.37,0,0,0,4.71,96.25,5,5,0,0,0,7.57-6.53A68.38,68.38,0,0,1,690,725a5,5,0,0,0-.07-6.61l-63.22-70.21A28.6,28.6,0,0,1,646,600.1L751,705.17a5,5,0,1,0,7.07-7.07l-33.41-33.41V582H740.5l27.84,27.84A139.61,139.61,0,0,1,809.5,709.2V842.44a5,5,0,0,0,10,0V709.2A149.58,149.58,0,0,0,775.41,602.76ZM774,501a12,12,0,0,1,12,12v45a12,12,0,0,1-12,12H723.6a12,12,0,0,1-12-12V513a12,12,0,0,1,12-12Zm-86.4-12H637.2a24,24,0,0,0-18,8.15,24,24,0,0,0-18-8.15H550.8a24,24,0,0,0-18,8.15,24,24,0,0,0-18-8.15H464.4a24,24,0,0,0-18,8.15,24,24,0,0,0-9.9-6.74V474h279l.12,16.36a24,24,0,0,0-10.06,6.79A24,24,0,0,0,687.6,489Zm12,24v45a12,12,0,0,1-12,12H637.2a12,12,0,0,1-12-12V513a12,12,0,0,1,12-12h50.4A12,12,0,0,1,699.6,513Zm-86.4,0v45a12,12,0,0,1-12,12H550.8a12,12,0,0,1-12-12V513a12,12,0,0,1,12-12h50.4A12,12,0,0,1,613.2,513Zm-86.4,0v45a12,12,0,0,1-12,12H464.4a12,12,0,0,1-12-12V513a12,12,0,0,1,12-12h50.4A12,12,0,0,1,526.8,513ZM436.69,234a13.51,13.51,0,0,1,13.5-13.5h252a13.52,13.52,0,0,1,13.5,13.5v84h-279Zm-58.5,228a12,12,0,0,1-12-12V342a12,12,0,0,1,12-12h396a12,12,0,0,1,12,12V450a12,12,0,0,1-12,12ZM366,558V513a12,12,0,0,1,12-12h50.4a12,12,0,0,1,12,12v45a12,12,0,0,1-12,12H378A12,12,0,0,1,366,558Zm285.53,33.52a5,5,0,0,0-3.49-1.46h-.45a38.6,38.6,0,0,0-28.26,64.89l54.53,60.56H450.19a13.51,13.51,0,0,1-13.5-13.5V580.51a24.05,24.05,0,0,0,9.71-6.66,24,24,0,0,0,18,8.15h50.4a24,24,0,0,0,18-8.15,24,24,0,0,0,18,8.15h50.4a24,24,0,0,0,18-8.15,24,24,0,0,0,18,8.15h50.4a24,24,0,0,0,18-8.15,24,24,0,0,0,10.09,6.8v75Z"/></svg>