<svg id="OUTLINES" xmlns="http://www.w3.org/2000/svg" viewBox="0 0 1152 1008"><defs><style>.cls-1{fill:#fff;}.cls-2{fill:#000f7c;}.cls-3{fill:#000f7d;}</style></defs><title>automation-detection</title><path class="cls-1" d="M956.63,599.16h-756a24,24,0,0,1-24-24V275.5a24,24,0,0,1,24-24h756a24,24,0,0,1,24,24V575.16A24,24,0,0,1,956.63,599.16Z"/><path class="cls-2" d="M424.23,437.83c-1.63-14.64-3.08-27.67-4.74-42.5l-9.66-8.55,13-14.95c.86-10.21,1.37-12.05,3.85-16.81l6.45,7.45,2.41-2.17v16.61l13.85,6.87-14.43,14.27c5.29,11,3.25,24.1,12.26,35.75.76-5.95,1.16-9.12,1.65-13h6.87c2.79-8.43,7.24-14,14.23-16.7-4.47-5.31-11.9-7.72-12.43-18.21,13.37-10.76,27.58-17.32,44.69-8.81l6.58,8.84c2.63,14.94,5.21,29.7,8.14,46.36l10.25-7.88,3.67,8.15c-1,2.37-2.14,5.23-3.67,9-9.27-.68-19.46,2.55-27.87-7.05-7.91,9.37-18.17,6.61-28.09,7l-15.87-13.88c-.4,4-.8,8.17-1.19,12.08C443.77,449.42,434.31,443.37,424.23,437.83Zm73.42-30.11c-8.68-1.58-8.68-1.58-18,2.81l-4.25,13.31c7.46,12.92,14.9,5.15,22.21,2.16Zm-18.08-5.87,11.83.67c1.43-4.15,2.8-8.13,4.06-11.77-5.23-4.76-7.79-13-15.89-8.66Z"/><path class="cls-2" d="M275.12,392.3l-9.4-7.32c1.27-2.12,1.8-3.8,2.36-3.82,7.17-.17,14.34-.11,20.45-.11l6.71,4c7.85-2,13.07-10.55,21-7.15,3.76,2.6,7.9,4.62,11.06,7.91,2.79,2.91,4.47,7.23,7.17,11.83v35.93l10.18,1.95c-2,3.78-3.51,6.54-4.93,9.17H310.59c-3-6.62,2.73-7.93,5.82-13.66-.89-11.43-1.93-24.94-3-38.81H301.32c-9,11.63-6.84,26.34-7.15,40.38,3.45,3.34,10.26,2.94,8.88,11.81H264.72L277.89,434C281.24,420,276.81,406.78,275.12,392.3Z"/><path class="cls-2" d="M530.82,392.28h16.53c10.55,8,23.1,9.82,35,13.66,3.69,1.18,7.35,3.23,11.06,3.33,4.41.13,5.63,5.55,8.59,6.15,7.22,1.47,5.24,11.89,12.22,12.83l-5.29,6.1c-14.05,1.13-23.2-18.75-39.92-12.58,7.07,12.48,15.78,19.82,29.21,25.33l8.3,11.3c-2,3.91-5.91,6.6-10.47,3.62-12.62-8.23-26.69-11.6-40.18-16.88-4.11-1.6-7.14-3.56-7.12-10.4l12-.61a15.62,15.62,0,0,0-1.11-3.15c-4.58-6.53-9.61-12.64-10.95-21.47-.66-4.28-3-7.24-7.25-7.12-5.27.15-8.07-4.2-11.86-6.74Z"/><path class="cls-2" d="M813.34,454.8c-19.74,14.72-21.48,13.17-47.43,11.51q-2.83-4.05-7.52-10.74c-.08-3.52-.2-8.15-2.65-13.17-2-4-.4-10.38-.4-17.28L773.53,406c17.68.12,35.4-4.63,43.73,22.77C816.34,435,814.91,444.39,813.34,454.8Zm-15.11-29.62-4-4.58c-9.61-1.91-18.45,1.56-26.08,7.4v16.94c9.93,4.77,19.17,12.34,30.05,3.16Z"/><path class="cls-2" d="M672,484.17H649.82c-8.77-4.47-14.51-11.45-18.09-22.27-3.69-11.14-9.88-21.18-15.46-32.71l9.66-8.87c22.28-2.84,42.58,4.44,58.32,26.61v24.72C680.92,475.06,677.13,478.91,672,484.17Zm-12.8-45-19.82-4.31-5.07,5.85c1.55,4.46,2.12,11.1,5.28,14.21,6.83,6.73,14,13.92,25.07,15.52l3.12-7.21,1.27,1.44V450.34C665.44,446.28,661.8,442.15,659.17,439.15Z"/><path class="cls-2" d="M857.06,411.11c8.1,10.28,21.61,6.5,25,21.59-8,3.88-13.93-2.84-20.84-4.83l-4.07,4.69v18.71c4.59,1.08,9.2,2.89,13.47-2.1l7.34,4.71c3.69,5.32,5,13.27,3.22,22.57H857.35l-15-13.68c-1.33-7.07-3.49-13.55-3.51-20,0-5.79,2.34-11.59,4-18.79l-22.6-9c-.05-1.16-.09-2.32-.19-4.73h18c9.08-4.54,4.13-16.8,13.89-18.8C856.85,396.7,857.58,404.19,857.06,411.11Z"/><path class="cls-2" d="M343.52,418.36c-4.43-26.91,16-44.62,38.75-41.15,17.85,9.79,26.6,22.87,21.55,47.22C393.64,451.94,358.47,451.87,343.52,418.36Zm16.74-19.83c3.72,13-1.43,26.41,6.64,35.83h15.17l4.29-4.95V397.17l-7-12.32H368.66Z"/><path class="cls-2" d="M738.22,416.41c-9.69,1.4-19.53-2.45-29.42,3.36-2.07-7.61-3.89-14.3-5.66-20.79-5.75.32-9.73-.93-14.2,2.73-2.89,2.38-8.5.43-9.68,5.22L693,416.44c.71,7.15,0,13.06,2,17.25,5.06,10.61,5,21.74,4.87,33.12-.06,5.72,0,11.44,0,18.33,7.6-1.73,13.7-4.05,19.87-4.33,12.83-.59,23-7.25,32.53-15.24V433.2Zm-2,42.56a2.55,2.55,0,0,1-2,2.13l-9.7,3.19a4.35,4.35,0,0,1-5.67-4,48.43,48.43,0,0,0-2.27-11.72c-.9-2.93-2-5.78-3-8.67-.36-1-.49-1.56-.32-1.91s.73-.53,1.73-.87c4.75-1.59,9.52-3.14,14.26-4.78a1.38,1.38,0,0,1,.63-.11,1.41,1.41,0,0,1,.7.46c1.77,1.8,3.56,3.59,5.35,5.38.59.59,5.61,4.9,5.43,5.43Z"/><path class="cls-3" d="M951.37,593.92h-756a24,24,0,0,1-24-24V270.25a24,24,0,0,1,24-24h756a24,24,0,0,1,24,24V569.92A24,24,0,0,1,951.37,593.92Zm-756-335.67a12,12,0,0,0-12,12V569.92a12,12,0,0,0,12,12h756a12,12,0,0,0,12-12V270.25a12,12,0,0,0-12-12Z"/><path class="cls-3" d="M223.94,698.06V660h10.55v3.48a12.77,12.77,0,0,1,10.21-4.34q6.38,0,9.91,3.83t3.53,10.21v24.85H247.59V675.43a7.25,7.25,0,0,0-1.58-4.9,5.77,5.77,0,0,0-4.63-1.83,7.17,7.17,0,0,0-4.38,1.41,6.44,6.44,0,0,0-2.51,3.87v24.08Z"/><path class="cls-3" d="M301.78,679.08q0,8.77-5.19,14.3a19.1,19.1,0,0,1-26.88,0q-5.19-5.53-5.19-14.3t5.19-14.38a19.1,19.1,0,0,1,26.88,0Q301.78,670.23,301.78,679.08Zm-10.46,0a13.29,13.29,0,0,0-2.17-8,7.47,7.47,0,0,0-12,0,13.36,13.36,0,0,0-2.17,8,13.21,13.21,0,0,0,2.17,7.87,7.47,7.47,0,0,0,12,0A13.14,13.14,0,0,0,291.32,679.08Z"/><path class="cls-3" d="M310.8,686.57v-18H305V660h5.78v-10.3h10.47V660h8.34v8.5h-8.34v16.68c0,2.89,1.44,4.34,4.34,4.34a8.22,8.22,0,0,0,4.59-1.28v9.36c-1.47.8-3.74,1.19-6.81,1.19q-6,0-9.27-3.06T310.8,686.57Z"/><path class="cls-3" d="M952.38,761.75h-758a23,23,0,0,1-23-23V604.92a23,23,0,0,1,23-23h758a23,23,0,0,1,23,23V738.75A23,23,0,0,1,952.38,761.75Zm-758-167.83a11,11,0,0,0-11,11V738.75a11,11,0,0,0,11,11h758a11,11,0,0,0,11-11V604.92a11,11,0,0,0-11-11Z"/><path class="cls-3" d="M340,742.18a3,3,0,0,1-3-3V608.9a3,3,0,0,1,6,0V739.18A3,3,0,0,1,340,742.18Z"/></svg>