<?xml version="1.0" encoding="utf-8"?>
<!-- Generator: Adobe Illustrator 16.0.4, SVG Export Plug-In . SVG Version: 6.00 Build 0)  -->
<!DOCTYPE svg PUBLIC "-//W3C//DTD SVG 1.1//EN" "http://www.w3.org/Graphics/SVG/1.1/DTD/svg11.dtd">
<svg version="1.1" id="Layer_1" xmlns="http://www.w3.org/2000/svg" xmlns:xlink="http://www.w3.org/1999/xlink" x="0px" y="0px"
	 width="559px" height="1181.001px" viewBox="141.445 7.985 559 1181.001" enable-background="new 141.445 7.985 559 1181.001"
	 xml:space="preserve">
<g>
	<path fill="#FFFFFF" d="M699.945,1105.244c0,45.953-37.388,83.242-83.341,83.242h-391.25c-45.959,0-83.409-37.289-83.409-83.242
		V92.192c0-45.956,37.45-83.707,83.409-83.707h391.25c45.953,0,83.341,37.751,83.341,83.707V1105.244z"/>
	<path d="M616.604,1188.986h-391.25c-46.268,0-83.909-37.566-83.909-83.742V92.192c0-46.432,37.642-84.207,83.909-84.207h391.25
		c46.23,0,83.841,37.775,83.841,84.207v1013.052C700.445,1151.42,662.834,1188.986,616.604,1188.986z M225.354,8.985
		c-45.716,0-82.909,37.327-82.909,83.207v1013.052c0,45.624,37.193,82.742,82.909,82.742h391.25
		c45.679,0,82.841-37.118,82.841-82.742V92.192c0-45.88-37.162-83.207-82.841-83.207H225.354z"/>
</g>
<g>
	<path d="M590.981,588.124v20.578h-2.577v-17.399l-5.086,2.61v-2.678l6.09-3.111H590.981z"/>
	<path d="M595.246,608.35c-0.347-0.346-0.52-0.773-0.52-1.287s0.173-0.949,0.52-1.305c0.347-0.357,0.774-0.535,1.287-0.535
		c0.491,0,0.909,0.178,1.256,0.535c0.347,0.355,0.519,0.791,0.519,1.305s-0.172,0.941-0.519,1.287
		c-0.347,0.348-0.765,0.52-1.256,0.52C596.022,608.867,595.593,608.695,595.246,608.35z"/>
	<rect x="181.445" y="168.205" fill="#DDDDDD" width="479" height="845"/>
	<rect x="227.503" y="385.882" fill="#FFFFFF" width="394.72" height="424.782"/>
	<path fill="#575756" d="M622.723,811.164h-395.72V385.382h395.72V811.164z M228.003,810.164h393.72V386.382h-393.72V810.164
		L228.003,810.164z"/>
	<rect x="270.537" y="640.08" fill="#DDDDDD" width="311.145" height="83.49"/>
	<path fill="#1D1D1B" d="M324.557,442.24v-2.732h19.792v2.732h-8.354v21.236h-3.084V442.24H324.557z"/>
	<path fill="#1D1D1B" d="M348.135,463.476v-25.374h2.928v10.229c0.546-0.729,1.27-1.333,2.167-1.815
		c0.897-0.481,1.88-0.722,2.947-0.722c1.925,0,3.422,0.572,4.489,1.717c1.065,1.146,1.6,2.681,1.6,4.605v11.36h-2.967v-10.891
		c0-1.25-0.319-2.245-0.956-2.986c-0.639-0.742-1.596-1.113-2.869-1.113c-1.015,0-1.926,0.307-2.733,0.917
		c-0.807,0.612-1.365,1.387-1.678,2.323v11.75H348.135z"/>
	<path fill="#1D1D1B" d="M370.015,439.586c0.377,0.365,0.565,0.807,0.565,1.327s-0.188,0.963-0.565,1.327
		c-0.378,0.365-0.827,0.547-1.347,0.547c-0.521,0-0.964-0.183-1.328-0.547c-0.365-0.363-0.546-0.807-0.546-1.327
		s0.182-0.962,0.546-1.327c0.363-0.364,0.807-0.546,1.328-0.546C369.188,439.04,369.637,439.221,370.015,439.586z M370.152,446.144
		v17.333h-2.928v-17.333H370.152z"/>
	<path fill="#1D1D1B" d="M373.938,458.713h3.045c0.547,1.771,1.913,2.654,4.099,2.654c1.067,0,1.926-0.215,2.576-0.644
		c0.65-0.43,0.977-1.074,0.977-1.933c0-1.171-0.859-1.979-2.577-2.42l-3.436-0.898c-2.784-0.703-4.177-2.225-4.177-4.567
		c0-1.509,0.585-2.738,1.756-3.688s2.655-1.425,4.45-1.425c1.874,0,3.383,0.429,4.528,1.288c1.145,0.858,1.874,2.068,2.186,3.63
		h-2.928c-0.521-1.641-1.795-2.459-3.826-2.459c-0.911,0-1.691,0.215-2.342,0.645c-0.651,0.429-0.976,1.048-0.976,1.854
		c0,0.572,0.188,1.021,0.565,1.347c0.377,0.326,0.996,0.604,1.854,0.839l3.356,0.82c2.94,0.781,4.411,2.395,4.411,4.841
		c0,1.614-0.599,2.889-1.795,3.825c-1.198,0.937-2.746,1.406-4.646,1.406c-1.899,0-3.493-0.455-4.781-1.367
		C374.972,461.55,374.198,460.301,373.938,458.713z"/>
	<path fill="#1D1D1B" d="M411.608,463.476v-2.03c-0.468,0.678-1.146,1.243-2.03,1.698s-1.835,0.685-2.85,0.685
		c-2.447,0-4.359-0.859-5.739-2.577c-1.38-1.719-2.068-3.865-2.068-6.441c0-2.55,0.688-4.69,2.068-6.422
		c1.379-1.73,3.292-2.596,5.739-2.596c1.015,0,1.964,0.228,2.85,0.683c0.885,0.456,1.562,1.021,2.03,1.698v-10.072h2.967v25.374
		L411.608,463.476L411.608,463.476z M411.608,458.323v-7.026c-0.443-0.884-1.061-1.581-1.854-2.088
		c-0.794-0.507-1.659-0.762-2.597-0.762c-1.613,0-2.896,0.593-3.845,1.776c-0.95,1.185-1.425,2.713-1.425,4.587
		s0.475,3.403,1.425,4.586c0.95,1.186,2.231,1.776,3.845,1.776c0.938,0,1.803-0.254,2.597-0.761
		C410.547,459.904,411.164,459.208,411.608,458.323z"/>
	<path fill="#1D1D1B" d="M430.697,458.284h2.771c-0.312,1.692-1.08,3.039-2.304,4.041c-1.225,1.003-2.784,1.504-4.686,1.504
		c-2.368,0-4.287-0.826-5.757-2.479c-1.472-1.652-2.206-3.819-2.206-6.5c0-2.628,0.729-4.795,2.186-6.5
		c1.458-1.704,3.357-2.557,5.7-2.557c2.315,0,4.111,0.773,5.387,2.322c1.274,1.549,1.913,3.611,1.913,6.188v1.054h-12.258
		c0.026,1.822,0.501,3.273,1.425,4.354c0.925,1.08,2.127,1.62,3.61,1.62c1.094,0,2.012-0.268,2.753-0.801
		C429.974,459.997,430.462,459.248,430.697,458.284z M426.441,448.292c-1.301,0-2.394,0.43-3.278,1.289
		c-0.885,0.858-1.432,2.043-1.64,3.552h9.213c-0.025-1.379-0.404-2.531-1.133-3.455
		C428.873,448.753,427.821,448.292,426.441,448.292z"/>
	<path fill="#1D1D1B" d="M445.101,463.476h-2.889l-6.716-17.333h3.162l5.075,13.624l5.036-13.624h3.084L445.101,463.476z"/>
	<path fill="#1D1D1B" d="M457.963,439.586c0.377,0.365,0.564,0.807,0.564,1.327s-0.188,0.963-0.564,1.327
		c-0.378,0.365-0.827,0.547-1.348,0.547s-0.963-0.183-1.328-0.547c-0.363-0.363-0.546-0.807-0.546-1.327s0.183-0.962,0.546-1.327
		c0.365-0.364,0.808-0.546,1.328-0.546C457.136,439.04,457.585,439.221,457.963,439.586z M458.1,446.144v17.333h-2.929v-17.333
		H458.1z"/>
	<path fill="#1D1D1B" d="M464.267,461.33c-1.457-1.665-2.187-3.839-2.187-6.52c0-2.68,0.729-4.854,2.187-6.52
		c1.458-1.665,3.356-2.498,5.7-2.498c1.898,0,3.454,0.507,4.665,1.521c1.21,1.016,1.971,2.368,2.282,4.061h-3.006
		c-0.209-0.938-0.656-1.672-1.347-2.206c-0.69-0.533-1.556-0.8-2.596-0.8c-1.483,0-2.675,0.599-3.572,1.796
		c-0.897,1.196-1.347,2.746-1.347,4.646c0,1.9,0.448,3.449,1.347,4.646c0.897,1.197,2.089,1.796,3.572,1.796
		c1.04,0,1.904-0.268,2.596-0.8c0.689-0.533,1.138-1.27,1.347-2.206h3.006c-0.312,1.691-1.072,3.045-2.282,4.06
		c-1.211,1.015-2.767,1.522-4.665,1.522C467.623,463.829,465.725,462.996,464.267,461.33z"/>
	<path fill="#1D1D1B" d="M491.593,458.284h2.771c-0.312,1.692-1.08,3.039-2.303,4.041c-1.225,1.003-2.785,1.504-4.687,1.504
		c-2.366,0-4.286-0.826-5.758-2.479c-1.471-1.652-2.205-3.819-2.205-6.5c0-2.628,0.729-4.795,2.187-6.5
		c1.458-1.704,3.356-2.557,5.7-2.557c2.314,0,4.11,0.773,5.387,2.322c1.274,1.549,1.913,3.611,1.913,6.188v1.054H482.34
		c0.024,1.822,0.501,3.273,1.425,4.354s2.128,1.62,3.609,1.62c1.095,0,2.013-0.268,2.754-0.801
		C490.869,459.997,491.359,459.248,491.593,458.284z M487.337,448.292c-1.302,0-2.396,0.43-3.278,1.289
		c-0.886,0.858-1.432,2.043-1.64,3.552h9.213c-0.026-1.379-0.404-2.531-1.134-3.455C489.77,448.753,488.717,448.292,487.337,448.292
		z"/>
	<path fill="#1D1D1B" d="M509.92,439.586c0.377,0.365,0.564,0.807,0.564,1.327s-0.188,0.963-0.564,1.327
		c-0.378,0.365-0.827,0.547-1.348,0.547s-0.963-0.183-1.328-0.547c-0.363-0.363-0.546-0.807-0.546-1.327s0.183-0.962,0.546-1.327
		c0.365-0.364,0.808-0.546,1.328-0.546C509.093,439.04,509.541,439.221,509.92,439.586z M510.057,446.144v17.333h-2.929v-17.333
		H510.057z"/>
	<path fill="#1D1D1B" d="M513.843,458.713h3.045c0.547,1.771,1.913,2.654,4.1,2.654c1.066,0,1.925-0.215,2.576-0.644
		c0.65-0.43,0.976-1.074,0.976-1.933c0-1.171-0.857-1.979-2.576-2.42l-3.436-0.898c-2.785-0.703-4.177-2.225-4.177-4.567
		c0-1.509,0.586-2.738,1.756-3.688c1.172-0.95,2.655-1.425,4.451-1.425c1.873,0,3.383,0.429,4.526,1.288
		c1.146,0.858,1.875,2.068,2.188,3.63h-2.928c-0.521-1.641-1.796-2.459-3.825-2.459c-0.912,0-1.692,0.215-2.342,0.645
		c-0.651,0.429-0.978,1.048-0.978,1.854c0,0.572,0.188,1.021,0.566,1.347c0.377,0.326,0.995,0.604,1.854,0.839l3.357,0.82
		c2.939,0.781,4.411,2.395,4.411,4.841c0,1.614-0.6,2.889-1.796,3.825c-1.197,0.937-2.746,1.406-4.646,1.406
		s-3.494-0.455-4.783-1.367C514.878,461.55,514.103,460.301,513.843,458.713z"/>
	<path fill="#1D1D1B" d="M311.851,492.988v17.333h-2.967v-2.186c-0.521,0.729-1.224,1.334-2.108,1.814
		c-0.885,0.481-1.86,0.724-2.928,0.724c-1.926,0-3.416-0.572-4.47-1.718s-1.581-2.681-1.581-4.606v-11.36h2.967v10.893
		c0,1.275,0.312,2.277,0.938,3.006s1.573,1.093,2.85,1.093c0.989,0,1.88-0.299,2.674-0.897c0.793-0.599,1.347-1.379,1.659-2.342
		v-11.75h2.967V492.988z"/>
	<path fill="#1D1D1B" d="M317.041,510.32v-17.333h2.929v2.187c0.546-0.729,1.269-1.333,2.167-1.815
		c0.896-0.48,1.88-0.722,2.947-0.722c1.925,0,3.422,0.573,4.488,1.717c1.066,1.146,1.601,2.682,1.601,4.606v11.359h-2.968v-10.891
		c0-1.25-0.318-2.245-0.955-2.986c-0.639-0.741-1.596-1.112-2.869-1.112c-1.016,0-1.927,0.306-2.733,0.917s-1.366,1.386-1.678,2.322
		v11.75L317.041,510.32L317.041,510.32z"/>
	<path fill="#1D1D1B" d="M344.798,484.985v2.655c-0.495-0.312-1.106-0.469-1.835-0.469c-0.886,0-1.581,0.272-2.088,0.819
		c-0.508,0.548-0.762,1.327-0.762,2.343v2.653h3.904v2.499h-3.904v14.834h-2.889v-14.834h-2.928v-2.499h2.928v-2.889
		c0-1.691,0.494-3.031,1.482-4.021c0.989-0.989,2.265-1.483,3.826-1.483C343.418,484.595,344.173,484.726,344.798,484.985z"/>
	<path fill="#1D1D1B" d="M359.593,510.32h-2.812v-1.288c-0.365,0.391-0.976,0.756-1.834,1.094c-0.857,0.338-1.77,0.508-2.732,0.508
		c-1.822,0-3.352-0.508-4.586-1.522c-1.236-1.015-1.854-2.354-1.854-4.021c0-1.587,0.638-2.889,1.913-3.904
		c1.274-1.015,2.85-1.521,4.723-1.521c0.859,0,1.704,0.144,2.538,0.43c0.833,0.287,1.444,0.612,1.834,0.976v-2.186
		c0-1.119-0.332-2.016-0.995-2.693c-0.664-0.676-1.606-1.015-2.831-1.015c-1.821,0-3.005,0.794-3.552,2.381h-2.889
		c0.286-1.457,1.021-2.641,2.206-3.552c1.184-0.911,2.608-1.366,4.273-1.366c2.057,0,3.669,0.546,4.842,1.64
		c1.171,1.094,1.757,2.591,1.757,4.489L359.593,510.32L359.593,510.32z M356.781,506.026v-1.796
		c-0.26-0.625-0.773-1.138-1.542-1.542c-0.768-0.402-1.606-0.604-2.518-0.604c-1.146,0-2.122,0.26-2.928,0.78
		c-0.808,0.521-1.211,1.264-1.211,2.226c0,0.989,0.403,1.75,1.211,2.284c0.806,0.533,1.781,0.8,2.928,0.8
		c0.911,0,1.75-0.201,2.518-0.605C356.007,507.166,356.521,506.651,356.781,506.026z"/>
	<path fill="#1D1D1B" d="M376.885,495.408c1.301-1.848,3.058-2.771,5.27-2.771c1.743,0,3.09,0.56,4.04,1.679
		s1.425,2.629,1.425,4.528v11.477h-2.967v-11.008c0-1.249-0.272-2.23-0.818-2.947c-0.548-0.715-1.367-1.073-2.46-1.073
		c-0.885,0-1.679,0.279-2.381,0.839c-0.703,0.56-1.185,1.308-1.443,2.245v11.944h-2.929v-11.008c0-1.249-0.272-2.23-0.819-2.947
		c-0.546-0.715-1.366-1.073-2.459-1.073c-0.886,0-1.679,0.279-2.382,0.839c-0.702,0.56-1.185,1.308-1.443,2.245v11.944h-2.928
		v-17.333h2.928v2.03c0.988-1.587,2.55-2.381,4.684-2.381C374.387,492.637,375.948,493.561,376.885,495.408z"/>
	<path fill="#1D1D1B" d="M395.368,486.43c0.377,0.365,0.566,0.807,0.566,1.327s-0.189,0.963-0.566,1.328
		c-0.378,0.364-0.827,0.546-1.347,0.546c-0.521,0-0.963-0.183-1.328-0.546c-0.365-0.364-0.546-0.808-0.546-1.328
		s0.182-0.962,0.546-1.327c0.364-0.364,0.808-0.546,1.328-0.546C394.543,485.883,394.99,486.065,395.368,486.43z M395.506,492.988
		v17.333h-2.929v-17.333H395.506L395.506,492.988z"/>
	<path fill="#1D1D1B" d="M403.664,484.946v25.374h-2.928v-25.374H403.664L403.664,484.946z"/>
	<path fill="#1D1D1B" d="M411.687,486.43c0.377,0.365,0.566,0.807,0.566,1.327s-0.189,0.963-0.566,1.328
		c-0.378,0.364-0.827,0.546-1.347,0.546c-0.521,0-0.963-0.183-1.328-0.546c-0.365-0.364-0.546-0.808-0.546-1.328
		s0.182-0.962,0.546-1.327c0.364-0.364,0.807-0.546,1.328-0.546C410.86,485.883,411.309,486.065,411.687,486.43z M411.823,492.988
		v17.333h-2.928v-17.333H411.823L411.823,492.988z"/>
	<path fill="#1D1D1B" d="M429.623,510.32h-2.811v-1.288c-0.365,0.391-0.977,0.756-1.835,1.094c-0.859,0.338-1.771,0.508-2.733,0.508
		c-1.821,0-3.351-0.508-4.586-1.522s-1.854-2.354-1.854-4.021c0-1.587,0.638-2.889,1.913-3.904c1.273-1.015,2.85-1.521,4.723-1.521
		c0.859,0,1.704,0.144,2.538,0.43c0.833,0.287,1.444,0.612,1.835,0.976v-2.186c0-1.119-0.332-2.016-0.996-2.693
		c-0.663-0.676-1.606-1.015-2.83-1.015c-1.822,0-3.005,0.794-3.552,2.381h-2.889c0.285-1.457,1.021-2.641,2.206-3.552
		c1.184-0.911,2.608-1.366,4.273-1.366c2.056,0,3.67,0.546,4.841,1.64s1.757,2.591,1.757,4.489L429.623,510.32L429.623,510.32z
		 M426.814,506.026v-1.796c-0.261-0.625-0.775-1.138-1.542-1.542c-0.768-0.402-1.607-0.604-2.518-0.604
		c-1.146,0-2.122,0.26-2.929,0.78c-0.807,0.521-1.21,1.264-1.21,2.226c0,0.989,0.403,1.75,1.21,2.284
		c0.807,0.533,1.782,0.8,2.929,0.8c0.91,0,1.75-0.201,2.518-0.605C426.037,507.166,426.553,506.651,426.814,506.026z"/>
	<path fill="#1D1D1B" d="M443.521,492.911v3.006c-0.469-0.312-1.119-0.469-1.951-0.469c-0.938,0-1.771,0.287-2.499,0.859
		c-0.729,0.573-1.235,1.366-1.521,2.381v11.633h-2.929v-17.333h2.929v2.265c0.391-0.754,0.969-1.379,1.736-1.874
		c0.769-0.494,1.62-0.742,2.559-0.742C442.597,492.637,443.156,492.728,443.521,492.911z"/>
	<path fill="#1D1D1B" d="M444.828,509.912c-0.403-0.403-0.604-0.904-0.604-1.503c0-0.6,0.201-1.106,0.604-1.522
		c0.402-0.416,0.904-0.625,1.502-0.625c0.572,0,1.062,0.209,1.466,0.625c0.401,0.417,0.604,0.924,0.604,1.522
		c0,0.598-0.203,1.1-0.604,1.503c-0.404,0.403-0.894,0.604-1.466,0.604C445.734,510.516,445.232,510.315,444.828,509.912z"/>
	<path fill="#1D1D1B" d="M470.105,500.717h-5.895v9.603h-3.084v-23.969h8.979c2.473,0,4.404,0.619,5.797,1.854
		c1.394,1.235,2.088,3.012,2.088,5.329c0,2.316-0.702,4.093-2.106,5.327C474.477,500.1,472.55,500.717,470.105,500.717z
		 M474.946,493.536c0-1.406-0.423-2.506-1.269-3.3c-0.847-0.793-2.062-1.189-3.65-1.189h-5.815v8.938h5.815
		c1.588,0,2.805-0.396,3.65-1.19C474.523,496.001,474.946,494.915,474.946,493.536z"/>
	<path fill="#1D1D1B" d="M484.781,484.946v25.374h-2.928v-25.374H484.781L484.781,484.946z"/>
	<path fill="#1D1D1B" d="M500.944,505.128h2.771c-0.312,1.691-1.08,3.039-2.305,4.041c-1.223,1.002-2.784,1.503-4.684,1.503
		c-2.369,0-4.288-0.826-5.758-2.479c-1.472-1.651-2.206-3.818-2.206-6.5c0-2.628,0.729-4.795,2.187-6.5
		c1.457-1.704,3.357-2.557,5.699-2.557c2.316,0,4.111,0.774,5.387,2.323c1.276,1.549,1.913,3.61,1.913,6.187v1.054h-12.258
		c0.026,1.822,0.501,3.273,1.425,4.354s2.127,1.62,3.611,1.62c1.093,0,2.01-0.268,2.752-0.8
		C500.222,506.84,500.709,506.091,500.944,505.128z M496.689,495.135c-1.302,0-2.395,0.43-3.279,1.289
		c-0.884,0.858-1.432,2.043-1.64,3.552h9.213c-0.026-1.379-0.403-2.531-1.132-3.455C499.12,495.597,498.068,495.135,496.689,495.135
		z"/>
	<path fill="#1D1D1B" d="M520.423,510.32h-2.812v-1.288c-0.364,0.391-0.976,0.756-1.835,1.094c-0.857,0.338-1.77,0.508-2.731,0.508
		c-1.822,0-3.353-0.508-4.587-1.522c-1.235-1.015-1.854-2.354-1.854-4.021c0-1.587,0.639-2.889,1.914-3.904
		c1.272-1.015,2.85-1.521,4.723-1.521c0.859,0,1.704,0.144,2.537,0.43c0.833,0.287,1.445,0.612,1.835,0.976v-2.186
		c0-1.119-0.331-2.016-0.995-2.693c-0.664-0.676-1.606-1.015-2.83-1.015c-1.821,0-3.006,0.794-3.553,2.381h-2.889
		c0.286-1.457,1.021-2.641,2.205-3.552s2.608-1.366,4.274-1.366c2.056,0,3.669,0.546,4.84,1.64c1.172,1.094,1.759,2.591,1.759,4.489
		V510.32L520.423,510.32z M517.612,506.026v-1.796c-0.261-0.625-0.773-1.138-1.542-1.542c-0.768-0.402-1.606-0.604-2.518-0.604
		c-1.146,0-2.121,0.26-2.929,0.78c-0.807,0.521-1.211,1.264-1.211,2.226c0,0.989,0.404,1.75,1.211,2.284
		c0.808,0.533,1.782,0.8,2.929,0.8c0.91,0,1.75-0.201,2.518-0.605C516.837,507.166,517.351,506.651,517.612,506.026z"/>
	<path fill="#1D1D1B" d="M523.974,505.558h3.045c0.547,1.771,1.914,2.655,4.1,2.655c1.066,0,1.927-0.215,2.576-0.645
		c0.65-0.43,0.978-1.073,0.978-1.933c0-1.171-0.859-1.978-2.577-2.42l-3.436-0.898c-2.785-0.703-4.178-2.225-4.178-4.566
		c0-1.509,0.586-2.739,1.757-3.689s2.655-1.425,4.45-1.425c1.874,0,3.383,0.429,4.528,1.288c1.145,0.859,1.874,2.069,2.187,3.63
		h-2.928c-0.521-1.64-1.796-2.459-3.826-2.459c-0.911,0-1.69,0.215-2.342,0.645c-0.65,0.43-0.978,1.049-0.978,1.854
		c0,0.573,0.189,1.022,0.566,1.347c0.377,0.326,0.996,0.605,1.854,0.839l3.355,0.82c2.941,0.781,4.412,2.396,4.412,4.841
		c0,1.614-0.6,2.89-1.796,3.825c-1.198,0.938-2.746,1.406-4.646,1.406c-1.899,0-3.494-0.455-4.781-1.367
		C525.009,508.395,524.235,507.146,523.974,505.558z"/>
	<path fill="#1D1D1B" d="M552.51,505.128h2.771c-0.312,1.691-1.08,3.039-2.304,4.041c-1.223,1.002-2.785,1.503-4.684,1.503
		c-2.369,0-4.288-0.826-5.759-2.479c-1.471-1.651-2.206-3.818-2.206-6.5c0-2.628,0.729-4.795,2.188-6.5
		c1.457-1.704,3.356-2.557,5.699-2.557c2.315,0,4.11,0.774,5.387,2.323s1.913,3.61,1.913,6.187v1.054h-12.258
		c0.025,1.822,0.501,3.273,1.425,4.354s2.127,1.62,3.611,1.62c1.093,0,2.01-0.268,2.752-0.8
		C551.787,506.84,552.276,506.091,552.51,505.128z M548.255,495.135c-1.303,0-2.396,0.43-3.279,1.289
		c-0.884,0.858-1.432,2.043-1.64,3.552h9.213c-0.026-1.379-0.403-2.531-1.133-3.455
		C550.688,495.597,549.634,495.135,548.255,495.135z"/>
	<path fill="#1D1D1B" d="M334.003,555.018c-1.458-1.665-2.187-3.838-2.187-6.519s0.729-4.854,2.187-6.521
		c1.458-1.665,3.356-2.498,5.699-2.498c1.899,0,3.455,0.507,4.665,1.522c1.21,1.015,1.973,2.368,2.284,4.06h-3.006
		c-0.208-0.937-0.657-1.672-1.347-2.206c-0.69-0.533-1.556-0.8-2.597-0.8c-1.482,0-2.674,0.599-3.571,1.796
		s-1.348,2.746-1.348,4.646c0,1.899,0.449,3.448,1.348,4.645c0.897,1.198,2.089,1.796,3.571,1.796c1.041,0,1.906-0.267,2.597-0.8
		c0.688-0.533,1.138-1.269,1.347-2.206h3.006c-0.312,1.692-1.073,3.045-2.284,4.061c-1.21,1.015-2.766,1.521-4.665,1.521
		C337.361,557.516,335.461,556.683,334.003,555.018z"/>
	<path fill="#1D1D1B" d="M362.87,542c1.471,1.679,2.206,3.845,2.206,6.5c0,2.653-0.735,4.82-2.206,6.5
		c-1.471,1.679-3.39,2.518-5.758,2.518s-4.288-0.839-5.758-2.518c-1.471-1.68-2.206-3.846-2.206-6.5c0-2.655,0.735-4.821,2.206-6.5
		c1.47-1.679,3.39-2.519,5.758-2.519S361.4,540.32,362.87,542z M360.763,553.164c0.896-1.185,1.347-2.738,1.347-4.665
		s-0.449-3.48-1.347-4.665c-0.898-1.185-2.115-1.776-3.65-1.776s-2.752,0.592-3.649,1.776s-1.348,2.738-1.348,4.665
		c0,1.926,0.449,3.48,1.348,4.665c0.897,1.185,2.113,1.775,3.649,1.775S359.865,554.348,360.763,553.164z"/>
	<path fill="#1D1D1B" d="M369.058,557.166v-17.333h2.928v2.186c0.546-0.728,1.27-1.333,2.167-1.814s1.88-0.723,2.947-0.723
		c1.925,0,3.422,0.573,4.489,1.717c1.065,1.146,1.6,2.682,1.6,4.606v11.36h-2.967v-10.892c0-1.25-0.319-2.245-0.956-2.985
		c-0.638-0.742-1.595-1.113-2.869-1.113c-1.015,0-1.926,0.306-2.733,0.917c-0.807,0.612-1.365,1.386-1.678,2.323v11.75
		L369.058,557.166L369.058,557.166z"/>
	<path fill="#1D1D1B" d="M396.813,531.831v2.654c-0.495-0.312-1.106-0.469-1.835-0.469c-0.885,0-1.581,0.273-2.088,0.82
		s-0.761,1.327-0.761,2.342v2.654h3.903v2.499h-3.903v14.834h-2.89v-14.834h-2.928v-2.499h2.928v-2.89
		c0-1.69,0.494-3.03,1.483-4.021c0.989-0.989,2.264-1.483,3.826-1.483C395.433,531.44,396.189,531.57,396.813,531.831z"/>
	<path fill="#1D1D1B" d="M402.219,533.274c0.377,0.365,0.565,0.808,0.565,1.327c0,0.521-0.188,0.963-0.565,1.328
		c-0.378,0.365-0.827,0.546-1.348,0.546s-0.963-0.182-1.327-0.546c-0.365-0.364-0.547-0.807-0.547-1.328
		c0-0.52,0.183-0.962,0.547-1.327c0.363-0.363,0.807-0.546,1.327-0.546C401.393,532.728,401.842,532.911,402.219,533.274z
		 M402.356,539.833v17.333h-2.928v-17.333H402.356z"/>
	<path fill="#1D1D1B" d="M416.487,539.754v3.006c-0.468-0.312-1.119-0.468-1.952-0.468c-0.937,0-1.77,0.286-2.499,0.858
		c-0.729,0.573-1.235,1.366-1.521,2.381v11.634h-2.928v-17.333h2.928v2.264c0.39-0.754,0.969-1.379,1.737-1.874
		c0.768-0.494,1.619-0.742,2.557-0.742C415.563,539.481,416.121,539.572,416.487,539.754z"/>
	<path fill="#1D1D1B" d="M432.413,542.253c1.302-1.849,3.059-2.771,5.271-2.771c1.742,0,3.09,0.561,4.039,1.68
		c0.95,1.118,1.426,2.629,1.426,4.527v11.478h-2.967v-11.008c0-1.25-0.273-2.231-0.82-2.947c-0.547-0.715-1.366-1.074-2.459-1.074
		c-0.885,0-1.679,0.28-2.381,0.839c-0.703,0.561-1.186,1.308-1.445,2.245v11.945h-2.928v-11.008c0-1.25-0.273-2.231-0.819-2.947
		c-0.546-0.715-1.365-1.074-2.46-1.074c-0.885,0-1.678,0.28-2.38,0.839c-0.703,0.561-1.185,1.308-1.443,2.245v11.945h-2.929v-17.333
		h2.929v2.029c0.987-1.587,2.549-2.381,4.684-2.381C429.914,539.481,431.478,540.405,432.413,542.253z"/>
	<path fill="#1D1D1B" d="M461.848,563.801h-2.891l2.616-6.52l-6.753-17.449h3.162l5.113,13.663l5.035-13.663h3.045L461.848,563.801z
		"/>
	<path fill="#1D1D1B" d="M486.656,542c1.471,1.679,2.205,3.845,2.205,6.5c0,2.653-0.734,4.82-2.205,6.5
		c-1.471,1.679-3.391,2.518-5.758,2.518c-2.369,0-4.288-0.839-5.758-2.518c-1.471-1.68-2.206-3.846-2.206-6.5
		c0-2.655,0.735-4.821,2.206-6.5c1.47-1.679,3.389-2.519,5.758-2.519C483.265,539.481,485.185,540.32,486.656,542z M484.548,553.164
		c0.896-1.185,1.346-2.738,1.346-4.665s-0.449-3.48-1.346-4.665c-0.898-1.185-2.115-1.776-3.65-1.776
		c-1.536,0-2.752,0.592-3.65,1.776c-0.896,1.185-1.347,2.738-1.347,4.665c0,1.926,0.449,3.48,1.347,4.665
		c0.898,1.185,2.114,1.775,3.65,1.775C482.433,554.94,483.65,554.348,484.548,553.164z"/>
	<path fill="#1D1D1B" d="M506.66,539.833v17.333h-2.967v-2.187c-0.521,0.729-1.223,1.334-2.106,1.815
		c-0.886,0.48-1.861,0.723-2.929,0.723c-1.926,0-3.416-0.572-4.47-1.718s-1.581-2.68-1.581-4.606v-11.359h2.967v10.892
		c0,1.275,0.312,2.277,0.938,3.006c0.624,0.729,1.574,1.094,2.85,1.094c0.988,0,1.879-0.3,2.674-0.898
		c0.793-0.598,1.347-1.379,1.658-2.342v-11.75h2.966V539.833z"/>
	<path fill="#1D1D1B" d="M520.753,539.754v3.006c-0.469-0.312-1.119-0.468-1.951-0.468c-0.938,0-1.771,0.286-2.498,0.858
		c-0.729,0.573-1.236,1.366-1.522,2.381v11.634h-2.929v-17.333h2.929v2.264c0.391-0.754,0.97-1.379,1.737-1.874
		c0.768-0.494,1.619-0.742,2.557-0.742C519.828,539.481,520.389,539.572,520.753,539.754z"/>
	<path fill="#1D1D1B" d="M359.592,601.979v8.668h-2.929v-23.97h2.929v2.03c0.494-0.677,1.177-1.242,2.049-1.698
		c0.872-0.455,1.814-0.683,2.83-0.683c2.446,0,4.358,0.864,5.738,2.596c1.379,1.73,2.068,3.871,2.068,6.422
		c0,2.551-0.688,4.692-2.068,6.422c-1.381,1.73-3.292,2.596-5.738,2.596c-1.016,0-1.958-0.229-2.83-0.684
		C360.768,603.223,360.085,602.656,359.592,601.979z M359.592,591.83v7.026c0.441,0.885,1.06,1.58,1.854,2.088
		c0.793,0.508,1.659,0.764,2.597,0.764c1.612,0,2.895-0.594,3.845-1.777s1.425-2.713,1.425-4.586c0-1.874-0.475-3.402-1.425-4.587
		s-2.231-1.776-3.845-1.776c-0.938,0-1.804,0.254-2.597,0.763C360.652,590.249,360.032,590.945,359.592,591.83z"/>
	<path fill="#1D1D1B" d="M388.829,604.01h-2.811v-1.289c-0.365,0.391-0.976,0.756-1.834,1.094s-1.771,0.508-2.733,0.508
		c-1.821,0-3.351-0.508-4.586-1.521c-1.235-1.018-1.854-2.355-1.854-4.021c0-1.588,0.638-2.891,1.913-3.904
		c1.273-1.016,2.85-1.522,4.723-1.522c0.859,0,1.704,0.145,2.538,0.431c0.833,0.285,1.444,0.61,1.834,0.976v-2.187
		c0-1.118-0.332-2.017-0.995-2.692s-1.606-1.017-2.831-1.017c-1.822,0-3.005,0.795-3.552,2.383h-2.889
		c0.285-1.458,1.021-2.643,2.205-3.554c1.185-0.909,2.609-1.365,4.274-1.365c2.056,0,3.669,0.546,4.841,1.64
		c1.171,1.093,1.757,2.59,1.757,4.489L388.829,604.01L388.829,604.01z M386.019,599.715v-1.795c-0.26-0.625-0.774-1.139-1.542-1.543
		c-0.768-0.402-1.607-0.604-2.518-0.604c-1.146,0-2.122,0.26-2.929,0.78c-0.807,0.521-1.21,1.264-1.21,2.227
		c0,0.988,0.403,1.75,1.21,2.283s1.782,0.799,2.929,0.799c0.91,0,1.75-0.199,2.518-0.604
		C385.244,600.855,385.759,600.34,386.019,599.715z"/>
	<path fill="#1D1D1B" d="M392.382,599.246h3.045c0.547,1.771,1.913,2.654,4.099,2.654c1.067,0,1.925-0.215,2.576-0.645
		c0.65-0.43,0.976-1.072,0.976-1.934c0-1.17-0.858-1.977-2.576-2.42l-3.436-0.896c-2.785-0.703-4.177-2.226-4.177-4.568
		c0-1.509,0.585-2.738,1.756-3.688s2.655-1.426,4.45-1.426c1.874,0,3.383,0.43,4.528,1.288c1.145,0.858,1.873,2.069,2.186,3.632
		h-2.928c-0.521-1.641-1.795-2.461-3.826-2.461c-0.911,0-1.692,0.216-2.342,0.646c-0.651,0.43-0.977,1.048-0.977,1.854
		c0,0.571,0.188,1.021,0.566,1.347c0.377,0.325,0.996,0.604,1.854,0.839l3.357,0.82c2.939,0.779,4.411,2.394,4.411,4.839
		c0,1.615-0.6,2.889-1.795,3.826c-1.198,0.938-2.746,1.404-4.646,1.404c-1.899,0-3.494-0.455-4.782-1.365
		C393.416,602.084,392.642,600.834,392.382,599.246z"/>
	<path fill="#1D1D1B" d="M408.62,599.246h3.046c0.547,1.771,1.912,2.654,4.099,2.654c1.066,0,1.925-0.215,2.576-0.645
		c0.649-0.43,0.976-1.072,0.976-1.934c0-1.17-0.859-1.977-2.577-2.42l-3.435-0.896c-2.785-0.703-4.177-2.226-4.177-4.568
		c0-1.509,0.585-2.738,1.756-3.688s2.654-1.426,4.45-1.426c1.874,0,3.383,0.43,4.527,1.288c1.146,0.858,1.874,2.069,2.187,3.632
		h-2.929c-0.521-1.641-1.795-2.461-3.825-2.461c-0.911,0-1.692,0.216-2.343,0.646s-0.976,1.048-0.976,1.854
		c0,0.571,0.188,1.021,0.566,1.347c0.377,0.325,0.995,0.604,1.854,0.839l3.357,0.82c2.939,0.779,4.411,2.394,4.411,4.839
		c0,1.615-0.6,2.889-1.796,3.826c-1.197,0.938-2.745,1.404-4.646,1.404s-3.494-0.455-4.782-1.365
		C409.656,602.084,408.881,600.834,408.62,599.246z"/>
	<path fill="#1D1D1B" d="M436.962,586.676l3.552,13.234l3.825-13.234h2.85l-5.113,17.333h-2.85l-3.592-13.156l-3.631,13.156h-2.851
		l-5.113-17.333h2.929l3.826,13.234l3.552-13.234H436.962z"/>
	<path fill="#1D1D1B" d="M462.98,588.843c1.47,1.679,2.205,3.846,2.205,6.5c0,2.655-0.735,4.821-2.205,6.499
		c-1.471,1.68-3.391,2.52-5.758,2.52c-2.369,0-4.288-0.84-5.758-2.52c-1.472-1.678-2.206-3.844-2.206-6.499
		c0-2.654,0.734-4.821,2.206-6.5c1.47-1.679,3.389-2.519,5.758-2.519C459.589,586.325,461.509,587.165,462.98,588.843z
		 M460.871,600.008c0.896-1.186,1.347-2.738,1.347-4.665c0-1.926-0.449-3.48-1.347-4.665c-0.897-1.184-2.114-1.776-3.649-1.776
		c-1.536,0-2.752,0.594-3.65,1.776c-0.896,1.185-1.347,2.739-1.347,4.665c0,1.926,0.449,3.479,1.347,4.665
		c0.898,1.186,2.114,1.775,3.65,1.775C458.757,601.783,459.974,601.191,460.871,600.008z"/>
	<path fill="#1D1D1B" d="M478.068,586.598v3.007c-0.469-0.312-1.119-0.469-1.952-0.469c-0.937,0-1.771,0.287-2.499,0.858
		c-0.729,0.572-1.235,1.366-1.521,2.382v11.633h-2.928v-17.333h2.928v2.265c0.391-0.754,0.969-1.379,1.735-1.874
		c0.769-0.494,1.621-0.74,2.559-0.74C477.144,586.325,477.701,586.417,478.068,586.598z"/>
	<path fill="#1D1D1B" d="M492.628,604.01v-2.031c-0.469,0.678-1.146,1.244-2.029,1.699s-1.835,0.684-2.851,0.684
		c-2.446,0-4.358-0.859-5.737-2.578c-1.38-1.717-2.069-3.863-2.069-6.439c0-2.551,0.689-4.69,2.069-6.422
		c1.379-1.73,3.291-2.597,5.737-2.597c1.016,0,1.966,0.229,2.851,0.684c0.885,0.456,1.562,1.021,2.029,1.698v-10.071h2.967v25.374
		H492.628L492.628,604.01z M492.628,598.855v-7.025c-0.442-0.885-1.062-1.581-1.854-2.088c-0.795-0.509-1.659-0.763-2.596-0.763
		c-1.614,0-2.896,0.593-3.847,1.776c-0.949,1.185-1.425,2.713-1.425,4.587c0,1.874,0.476,3.401,1.425,4.586s2.231,1.777,3.847,1.777
		c0.937,0,1.801-0.256,2.596-0.764C491.568,600.438,492.186,599.74,492.628,598.855z"/>
	
		<rect x="425.588" y="637.92" transform="matrix(-1 -0.0059 0.0059 -1 848.1874 1361.2192)" fill="#DDDDDD" width="1" height="82.894"/>
	<path fill="#575756" d="M622.723,811.164h-395.72V385.382h395.72V811.164z M228.003,810.164h393.72V386.382h-393.72V810.164
		L228.003,810.164z"/>
	<path fill="#2341C1" d="M421.642,760.326c2.03,2.305,3.045,5.266,3.045,8.883s-1.015,6.576-3.045,8.881
		c-2.03,2.303-4.633,3.455-7.808,3.455c-3.149,0-5.738-1.152-7.769-3.455c-2.03-2.305-3.045-5.264-3.045-8.881
		s1.015-6.578,3.045-8.883c2.03-2.303,4.619-3.453,7.769-3.453C417.01,756.873,419.613,758.023,421.642,760.326z M419.455,776.098
		c1.432-1.781,2.147-4.078,2.147-6.889c0-2.812-0.716-5.107-2.147-6.891c-1.432-1.781-3.305-2.674-5.621-2.674
		c-2.29,0-4.151,0.893-5.582,2.674c-1.433,1.781-2.147,4.078-2.147,6.891c0,2.811,0.715,5.105,2.147,6.889
		c1.431,1.783,3.292,2.676,5.582,2.676C416.151,778.773,418.025,777.881,419.455,776.098z"/>
	<path fill="#2341C1" d="M432.066,757.225v11.984l11.164-11.984h3.904l-10.269,10.93l10.618,13.039h-3.825l-9.018-10.932
		l-2.576,2.771v8.158h-3.084v-23.969h3.085V757.225z"/>
</g>
<g>
	<circle fill="#FFFFFF" cx="420.945" cy="1096.205" r="48.882"/>
	<path d="M420.945,1145.588c-27.229,0-49.382-22.153-49.382-49.383c0-27.229,22.153-49.381,49.382-49.381
		c27.229,0,49.382,22.152,49.382,49.381C470.326,1123.435,448.174,1145.588,420.945,1145.588z M420.945,1047.824
		c-26.678,0-48.382,21.703-48.382,48.381c0,26.679,21.704,48.383,48.382,48.383s48.382-21.704,48.382-48.383
		C469.326,1069.527,447.622,1047.824,420.945,1047.824z"/>
</g>
<g>
	<path fill="#FFFFFF" d="M489.079,84.815c0,2.94-2.385,5.324-5.324,5.324H358.134c-2.94,0-5.324-2.384-5.324-5.324l0,0
		c0-2.94,2.384-5.324,5.324-5.324h125.621C486.695,79.491,489.079,81.875,489.079,84.815L489.079,84.815z"/>
	<path d="M483.755,90.639H358.134c-3.211,0-5.824-2.613-5.824-5.824s2.613-5.824,5.824-5.824h125.621
		c3.212,0,5.824,2.612,5.824,5.824S486.967,90.639,483.755,90.639z M358.134,79.991c-2.66,0-4.824,2.164-4.824,4.824
		c0,2.66,2.164,4.824,4.824,4.824h125.621c2.66,0,4.824-2.164,4.824-4.824c0-2.66-2.164-4.824-4.824-4.824H358.134z"/>
</g>
<g>
	<path fill="#FFFFFF" d="M428.42,49.541c0-4.129-3.347-7.476-7.476-7.476l0,0c-4.129,0-7.476,3.347-7.476,7.476l0,0
		c0,4.128,3.347,7.476,7.476,7.476l0,0C425.073,57.017,428.42,53.669,428.42,49.541L428.42,49.541z"/>
	<path d="M420.945,57.517c-4.398,0-7.976-3.578-7.976-7.976s3.578-7.976,7.976-7.976c4.397,0,7.976,3.578,7.976,7.976
		S425.342,57.517,420.945,57.517z M420.945,42.565c-3.846,0-6.976,3.129-6.976,6.976c0,3.846,3.129,6.976,6.976,6.976
		c3.847,0,6.976-3.129,6.976-6.976C427.92,45.694,424.791,42.565,420.945,42.565z"/>
</g>
</svg>
