<svg id="OUTLINES" xmlns="http://www.w3.org/2000/svg" viewBox="0 0 1152 1008"><defs><style>.cls-1{fill:#fff;}.cls-2{fill:#000f7d;}.cls-3{fill:none;}</style></defs><title>physical-biometrics</title><path class="cls-1" d="M590.3,336.26H472.94a20.52,20.52,0,0,1-20.5-20.5V182a20.52,20.52,0,0,1,20.5-20.5H590.3A20.52,20.52,0,0,1,610.8,182V315.76A20.53,20.53,0,0,1,590.3,336.26Z"/><path class="cls-2" d="M819.16,533.4c.53-22.45-.08-45.73-.11-47.11a45.85,45.85,0,0,0-44.12-45.41l-.47,0h-1c-.39,0-.77,0-1.16,0A45.62,45.62,0,0,0,737.74,458v-2.36a47,47,0,0,0-14.14-33.34,44.88,44.88,0,0,0-32.48-13l-1.08.06c-.48,0-1,0-1.45.08l-1.1.11q-.78.07-1.56.18l-1,.14q-.91.15-1.8.33l-.68.13a46.18,46.18,0,0,0-7.67,2.4l0,0a46.19,46.19,0,0,0-20.61,16.92l-.19-.54c-.19-.55-.39-1.11-.6-1.66-.11-.3-.23-.59-.35-.89-.22-.53-.45-1.06-.68-1.59-.13-.27-.25-.55-.38-.83-.28-.6-.58-1.19-.89-1.78-.1-.18-.18-.37-.28-.55-.41-.76-.85-1.51-1.3-2.25l-.36-.55c-.35-.55-.71-1.1-1.08-1.64-.17-.25-.36-.5-.54-.75-.33-.47-.68-.93-1-1.38-.19-.26-.39-.5-.59-.75q-.57-.71-1.17-1.38l-.55-.63c-.6-.64-1.2-1.28-1.83-1.89a44.87,44.87,0,0,0-32.48-13q-1.25,0-2.46.12l-.81.08c-.54.05-1.09.11-1.63.18l-.93.14-1.47.24-1,.2c-.47.09-.94.2-1.4.31l-1,.24-1.38.4-.91.28c-.48.15-1,.32-1.43.49l-.81.3c-.57.21-1.13.45-1.69.69-.16.07-.33.13-.49.21-.72.31-1.42.65-2.12,1l-.58.31c-.5.26-1,.53-1.48.81l-.75.45-1.25.77c-.27.17-.52.34-.78.52s-.78.53-1.17.81l-.76.55-1.12.88-.72.58-1.13,1c-.21.18-.42.36-.62.55-.43.39-.85.8-1.26,1.21l-.41.4c-.56.57-1.1,1.14-1.62,1.73l-.07.09c-.49.56-1,1.12-1.43,1.7l-.09.11-.42-178a47,47,0,0,0-14.13-33.33,44.88,44.88,0,0,0-32.48-13,45.85,45.85,0,0,0-44.63,45.72l.83,349.89a12,12,0,0,1-12,12.07h0c-4.94,0-8.26-2.34-11.39-8.08L409.45,471.48l-.12-.25a39.82,39.82,0,0,0-36.08-22.41h-.1a40.63,40.63,0,0,0-40.53,40.72c0,5.63,1.19,9.65,3,15.1,7.36,23.27,23.44,74.11,41,129.52L388.5,671.9a198,198,0,0,0,102.08,118,44.1,44.1,0,0,1,25.17,39.77l0,14.14a5,5,0,0,0,5,5h0a5,5,0,0,0,5-5l0-14.14a54,54,0,0,0-30.81-48.75,187.88,187.88,0,0,1-96.9-112l-12-37.74c-17.53-55.41-33.62-106.25-41-129.56-1.68-5.16-2.47-8-2.48-12.07a30.63,30.63,0,0,1,30.55-30.69h.08a29.81,29.81,0,0,1,27.08,16.76l51.47,119c.06.13.12.26.19.38,4.9,9.1,11.54,13.52,20.29,13.52h.06a22,22,0,0,0,22-22.09l-.83-349.9a35.79,35.79,0,0,1,34.84-35.69,34.9,34.9,0,0,1,25.28,10.12,37,37,0,0,1,11.12,26.21l.49,206.25v150.1A45.6,45.6,0,0,0,653,610.82a45.59,45.59,0,0,0,81.15-6A45.64,45.64,0,0,0,773.29,627a43.22,43.22,0,0,0,32.65-14.67c-1.22,25-2.76,54.3-4.6,87.33a104.57,104.57,0,0,1-35.46,73.1,55,55,0,0,0-18.33,41.46c.05,22.44.06,27.85.06,29v0h0v.22h0a5,5,0,0,0,5,5h0c.79,0,4.55-.26,5-5h0v-.86l-.06-28.33a45,45,0,0,1,15-33.94,114.47,114.47,0,0,0,38.82-80c2-35.75,4.3-79.22,5.94-115.67,0-.52,0-1,.07-1.57C818.19,563.66,818.85,546.37,819.16,533.4Zm-172.7,60.05a35.61,35.61,0,0,1-71.22,0V466.75a4.89,4.89,0,0,0,0-.55l0-22.82c0-.29,0-.58,0-.86s0-.64,0-1,0-.54.06-.81,0-.64.07-1,.07-.54.1-.81.07-.63.12-.94.1-.54.14-.81.1-.62.16-.92.13-.53.19-.8.13-.6.2-.89.15-.53.23-.8.15-.58.24-.87.17-.51.26-.77.18-.58.29-.86.2-.52.3-.78.21-.55.32-.82.23-.52.35-.78.22-.53.35-.78.25-.5.37-.75.26-.52.4-.78.28-.5.43-.76.26-.48.4-.71l.48-.76c.14-.23.28-.46.43-.68s.35-.5.52-.75l.45-.64c.19-.26.39-.51.59-.76s.29-.39.45-.58.4-.48.6-.72.32-.39.49-.57.43-.47.65-.7.33-.37.5-.54.49-.48.74-.72l.47-.46.79-.71.48-.42c.26-.22.54-.44.81-.65l.51-.42c.29-.23.6-.44.9-.66l.46-.34,1-.64.45-.3c.31-.19.62-.38.94-.56l.52-.31c.33-.19.68-.37,1-.55l.48-.26,1.1-.52.44-.21c.38-.17.77-.32,1.15-.48l.44-.18,1.12-.41c.17-.05.33-.12.5-.18l1.12-.34.53-.16,1.21-.31.48-.12c.53-.12,1.06-.22,1.6-.32l.11,0c.54-.1,1.07-.17,1.61-.24l.14,0c.51-.07,1-.11,1.53-.15l.24,0c.59,0,1.19-.07,1.79-.08h1.31l.76,0c.34,0,.67,0,1,.06l.71.05,1,.11.69.08,1,.16c.22,0,.45.07.67.12s.67.13,1,.21.44.09.66.15l1,.26c.22.06.45.11.67.18l1,.3.67.22.93.35.67.26.9.38.67.3.87.43.67.33c.29.15.57.31.85.47l.66.37.83.51.63.41c.28.18.55.37.82.56l.61.42.83.63.56.44c.3.24.59.49.88.74l.46.39c.45.39.88.8,1.3,1.21s.87.87,1.29,1.32c.63.68,1.22,1.39,1.79,2.11.19.23.38.47.56.71s.19.25.28.38c.27.36.53.73.79,1.1l.35.55c.22.33.43.65.64,1,.09.14.17.29.25.44.23.38.45.75.66,1.14s.28.54.42.81.28.53.41.81.27.59.41.88.24.52.35.78l.32.81c.12.3.24.58.35.88s.21.63.32.94.18.52.26.78.2.7.3,1.05.14.46.2.7.15.61.22.92.14.57.2.85.1.59.16.89.11.6.16.9.08.59.12.89.09.61.12.92,0,.58.07.86.06.64.07,1,0,.56,0,.84,0,.66,0,1v9.85c0,.4,0,.8,0,1.2V593.45Zm81.22-6.15a35.61,35.61,0,0,1-71.22,0V480.41a5.27,5.27,0,0,0,.09-.89l-.06-24.47A35.85,35.85,0,0,1,686,419.87a35.24,35.24,0,0,1,5.27-.51h.85c.54,0,1.08,0,1.61,0h0a35,35,0,0,1,22.82,10.1,36.94,36.94,0,0,1,11.12,26.2ZM773.29,617a35.66,35.66,0,0,1-35.61-35.61V511.1a4.89,4.89,0,0,0,.19-1.28l-.06-22.47a37,37,0,0,1,11-26.26,34.9,34.9,0,0,1,24.92-10.24l.88,0,.58,0A35,35,0,0,1,797.8,461a37,37,0,0,1,11.12,26.16l-1.56,94.3c0,.38,0,.76,0,1.14s0,.87-.06,1.3C806.11,602.65,791.6,617,773.29,617Z"/><path class="cls-2" d="M510,215.32a1.5,1.5,0,0,1-.58-2.89,51.12,51.12,0,0,1,10-3.05,1.5,1.5,0,1,1,.57,2.94,47.87,47.87,0,0,0-9.45,2.88A1.47,1.47,0,0,1,510,215.32Z"/><path class="cls-2" d="M510,215.32a1.5,1.5,0,0,1-.58-2.88,50.5,50.5,0,0,1,10-3.06,1.5,1.5,0,1,1,.57,2.94,48.08,48.08,0,0,0-9.45,2.88A1.51,1.51,0,0,1,510,215.32Z"/><path class="cls-2" d="M547.68,215.26a1.47,1.47,0,0,1-.58-.12A47.16,47.16,0,0,0,520,212.32a1.5,1.5,0,1,1-.57-2.94,50.13,50.13,0,0,1,28.81,3,1.5,1.5,0,0,1-.57,2.89Z"/><path class="cls-2" d="M498.3,233.3a1.49,1.49,0,0,1-1.12-2.49,42.17,42.17,0,0,1,18.53-12.23,1.5,1.5,0,1,1,.93,2.85,39.14,39.14,0,0,0-17.21,11.36A1.49,1.49,0,0,1,498.3,233.3Z"/><path class="cls-2" d="M498.3,233.31a1.47,1.47,0,0,1-1-.38,1.5,1.5,0,0,1-.14-2.11,42.19,42.19,0,0,1,18.54-12.24,1.5,1.5,0,1,1,.93,2.85,39.08,39.08,0,0,0-17.21,11.37A1.49,1.49,0,0,1,498.3,233.31Z"/><path class="cls-2" d="M559.41,233.19a1.48,1.48,0,0,1-1.12-.5,39.37,39.37,0,0,0-38-12.25c-1.21.27-2.42.61-3.6,1a1.5,1.5,0,1,1-.93-2.85c1.26-.41,2.56-.77,3.87-1.07a42.39,42.39,0,0,1,40.95,13.18,1.51,1.51,0,0,1-.12,2.12A1.54,1.54,0,0,1,559.41,233.19Z"/><path class="cls-2" d="M514.5,230.72a1.52,1.52,0,0,1-1.35-.85,1.49,1.49,0,0,1,.7-2,3.62,3.62,0,0,1,.45-.2l.24-.11a1.5,1.5,0,0,1,1.25,2.73l-.35.15-.28.12A1.46,1.46,0,0,1,514.5,230.72Z"/><path class="cls-2" d="M497.52,250.58a1.41,1.41,0,0,1-.45-.07,1.5,1.5,0,0,1-1-1.87,34.45,34.45,0,0,1,17.77-20.77,1.5,1.5,0,0,1,1.31,2.69,31.44,31.44,0,0,0-16.21,19A1.49,1.49,0,0,1,497.52,250.58Z"/><path class="cls-2" d="M515.17,230.43a1.5,1.5,0,0,1-.63-2.86,33.14,33.14,0,0,1,5.15-1.91,1.5,1.5,0,0,1,.8,2.89,31.87,31.87,0,0,0-4.7,1.74A1.4,1.4,0,0,1,515.17,230.43Z"/><path class="cls-2" d="M515.17,230.43a1.5,1.5,0,0,1-.63-2.86,33.14,33.14,0,0,1,5.15-1.91,1.5,1.5,0,0,1,.8,2.89,31.87,31.87,0,0,0-4.7,1.74A1.4,1.4,0,0,1,515.17,230.43Z"/><path class="cls-2" d="M497.52,250.59a1.41,1.41,0,0,1-.45-.07,1.5,1.5,0,0,1-1-1.87,34.44,34.44,0,0,1,17.77-20.78,1.5,1.5,0,0,1,1.31,2.69,31.46,31.46,0,0,0-16.21,19A1.49,1.49,0,0,1,497.52,250.59Z"/><path class="cls-2" d="M514.5,230.72a1.52,1.52,0,0,1-1.35-.85,1.49,1.49,0,0,1,.7-2,3.62,3.62,0,0,1,.45-.2l.24-.11a1.5,1.5,0,0,1,1.25,2.73l-.35.15-.28.12A1.46,1.46,0,0,1,514.5,230.72Z"/><path class="cls-2" d="M560.22,250.39a1.52,1.52,0,0,1-1.43-1,31.26,31.26,0,0,0-38.3-20.79,1.5,1.5,0,1,1-.8-2.89,34.26,34.26,0,0,1,42,22.77,1.5,1.5,0,0,1-1,1.89A1.83,1.83,0,0,1,560.22,250.39Z"/><path class="cls-2" d="M553.42,257.87a1.5,1.5,0,0,1-1.49-1.35,23.44,23.44,0,0,0-1.27-5.67,1.5,1.5,0,0,1,.89-1.92,1.52,1.52,0,0,1,1.93.89,26.53,26.53,0,0,1,1.44,6.4,1.5,1.5,0,0,1-1.35,1.64Z"/><path class="cls-2" d="M504.36,262.75a1.5,1.5,0,0,1-1.49-1.35,26.16,26.16,0,0,1,13-25.28,1.5,1.5,0,0,1,1.5,2.6,23.19,23.19,0,0,0-11.48,22.39,1.49,1.49,0,0,1-1.34,1.64Z"/><path class="cls-2" d="M556.82,272.5a1.5,1.5,0,0,1-1.42-1,66.81,66.81,0,0,1-3.47-15,1.5,1.5,0,0,1,3-.3,63.94,63.94,0,0,0,3.32,14.3,1.49,1.49,0,0,1-.94,1.9A1.34,1.34,0,0,1,556.82,272.5Z"/><path class="cls-2" d="M509.92,283.21a1.49,1.49,0,0,1-1.39-.94c-2.23-5.62-4.88-13.07-5.66-20.87a1.5,1.5,0,1,1,3-.29c.74,7.42,3.31,14.61,5.46,20.05a1.5,1.5,0,0,1-.84,1.95A1.52,1.52,0,0,1,509.92,283.21Z"/><path class="cls-2" d="M504.36,262.75a1.5,1.5,0,0,1-1.49-1.35,26.16,26.16,0,0,1,13-25.28,1.5,1.5,0,0,1,1.5,2.6,23.19,23.19,0,0,0-11.48,22.39,1.49,1.49,0,0,1-1.34,1.64Z"/><path class="cls-2" d="M553.42,257.87a1.5,1.5,0,0,1-1.49-1.35,23.44,23.44,0,0,0-1.27-5.67,1.5,1.5,0,0,1,.89-1.92,1.52,1.52,0,0,1,1.93.89,26.53,26.53,0,0,1,1.44,6.4,1.5,1.5,0,0,1-1.35,1.64Z"/><path class="cls-2" d="M552.07,251.84a1.5,1.5,0,0,1-1.41-1,23.17,23.17,0,0,0-33.33-12.13,1.5,1.5,0,1,1-1.5-2.6,26.38,26.38,0,0,1,4.07-1.89,26.18,26.18,0,0,1,33.58,15.59,1.5,1.5,0,0,1-1.41,2Z"/><path class="cls-2" d="M545.38,258.67a1.5,1.5,0,0,1-1.49-1.35,15.12,15.12,0,0,0-1.77-5.73,1.5,1.5,0,1,1,2.63-1.44,17.86,17.86,0,0,1,2.12,6.87,1.49,1.49,0,0,1-1.34,1.64Z"/><path class="cls-2" d="M512.4,262a1.5,1.5,0,0,1-1.49-1.35,18.18,18.18,0,0,1,7-16.15,1.5,1.5,0,0,1,1.82,2.39,15.17,15.17,0,0,0-5.85,13.47,1.49,1.49,0,0,1-1.34,1.64Z"/><path class="cls-2" d="M551.34,280.15a1.5,1.5,0,0,1-1.39-.94c-2.55-6.33-5.26-13.88-6.06-21.89a1.5,1.5,0,1,1,3-.3c.76,7.64,3.39,14.93,5.86,21.06a1.51,1.51,0,0,1-.83,2A1.55,1.55,0,0,1,551.34,280.15Z"/><path class="cls-2" d="M545.38,258.67a1.5,1.5,0,0,1-1.49-1.35,15.07,15.07,0,0,0-1.77-5.73,1.5,1.5,0,1,1,2.63-1.44,18,18,0,0,1,2.12,6.87,1.49,1.49,0,0,1-1.34,1.64Z"/><path class="cls-2" d="M512.4,262a1.5,1.5,0,0,1-1.49-1.35,18.18,18.18,0,0,1,7-16.15,1.5,1.5,0,0,1,1.82,2.39,15.17,15.17,0,0,0-5.85,13.47,1.5,1.5,0,0,1-1.34,1.64Z"/><path class="cls-2" d="M520.41,288.37a1.49,1.49,0,0,1-1.38-.91c-3.6-8.44-7.19-17.47-8.12-26.86a1.5,1.5,0,1,1,3-.29c.89,9,4.39,17.74,7.9,26a1.51,1.51,0,0,1-1.38,2.09Z"/><path class="cls-2" d="M543.43,252.37a1.48,1.48,0,0,1-1.31-.78,15.09,15.09,0,0,0-20.45-6,16.32,16.32,0,0,0-1.93,1.25,1.5,1.5,0,0,1-1.82-2.39,19.42,19.42,0,0,1,2.31-1.5,18.1,18.1,0,0,1,24.52,7.2,1.5,1.5,0,0,1-.6,2A1.54,1.54,0,0,1,543.43,252.37Z"/><path class="cls-2" d="M520.34,261.16a1.5,1.5,0,0,1-1.49-1.35,10.21,10.21,0,0,1,.4-4,1.5,1.5,0,1,1,2.87.89,7.21,7.21,0,0,0-.29,2.85,1.5,1.5,0,0,1-1.34,1.65Z"/><path class="cls-2" d="M545.1,285.05a1.49,1.49,0,0,1-1.38-.92c-3.28-7.73-6.85-16.76-7.77-26a1.5,1.5,0,1,1,3-.3c.88,8.84,4.36,17.62,7.55,25.15a1.5,1.5,0,0,1-.8,2A1.47,1.47,0,0,1,545.1,285.05Z"/><path class="cls-2" d="M529.17,289.5a1.51,1.51,0,0,1-1.38-.91c-4.33-10.08-8-19.2-8.94-28.78a1.5,1.5,0,1,1,3-.3c.91,9.16,4.49,18.05,8.72,27.9a1.5,1.5,0,0,1-.79,2A1.52,1.52,0,0,1,529.17,289.5Z"/><path class="cls-2" d="M520.34,261.16a1.5,1.5,0,0,1-1.49-1.35,10.21,10.21,0,0,1,.4-4,1.5,1.5,0,1,1,2.87.89,7.21,7.21,0,0,0-.29,2.85,1.5,1.5,0,0,1-1.34,1.65Z"/><path class="cls-2" d="M537.44,259.46a1.5,1.5,0,0,1-1.49-1.35,7.09,7.09,0,0,0-12.38-4,6.77,6.77,0,0,0-1.45,2.57,1.5,1.5,0,0,1-2.87-.89,9.83,9.83,0,0,1,2.07-3.67,10.08,10.08,0,0,1,17.61,5.71,1.49,1.49,0,0,1-1.34,1.64Z"/><path class="cls-2" d="M537.65,288.29a1.5,1.5,0,0,1-1.38-.91c-4.25-9.9-7.84-18.87-8.8-28.43a1.5,1.5,0,0,1,3-.3c.91,9.13,4.42,17.88,8.57,27.55a1.5,1.5,0,0,1-1.38,2.09Z"/><path class="cls-2" d="M498.3,233.31a1.5,1.5,0,1,1,.48-2.93,1.51,1.51,0,0,1,1,1.9h0A1.5,1.5,0,0,1,498.3,233.31Z"/><path class="cls-2" d="M497.52,250.59a1.5,1.5,0,1,1,1.5-1.51h0A1.5,1.5,0,0,1,497.52,250.59Z"/><path class="cls-3" d="M510,213.82h0"/><path class="cls-2" d="M587.55,334H470.19a20.53,20.53,0,0,1-20.5-20.5V179.75a20.52,20.52,0,0,1,20.5-20.5H587.55a20.52,20.52,0,0,1,20.5,20.5V313.51A20.53,20.53,0,0,1,587.55,334ZM470.19,169.25a10.51,10.51,0,0,0-10.5,10.5V313.51a10.51,10.51,0,0,0,10.5,10.5H587.55a10.51,10.51,0,0,0,10.5-10.5V179.75a10.51,10.51,0,0,0-10.5-10.5Z"/></svg>