<svg id="OUTLINES" xmlns="http://www.w3.org/2000/svg" viewBox="0 0 1152 1008"><defs><style>.cls-1{fill:#fff;}.cls-2{fill:#000f7d;}</style></defs><title>biometric-using-facial-recognition</title><path class="cls-1" d="M738.43,223.59a232.06,232.06,0,0,0-69.93-43.32,227.56,227.56,0,0,0-169,0,232.06,232.06,0,0,0-69.93,43.32C387.9,261.1,364,310.62,364,359.45l4.37,107.27,1.75,77.33A270.5,270.5,0,0,0,422.17,698l.18.25,66.32,74A89.8,89.8,0,0,0,555.45,802h57.1a89.8,89.8,0,0,0,66.78-29.82l66.12-73.74.38-.47a270.5,270.5,0,0,0,52-153.92l1.75-77.33,4.37-107v-.24C804,310.62,780.1,261.1,738.43,223.59Z"/><path class="cls-2" d="M721.22,616.57a12.48,12.48,0,0,0,.17-25L698,536a12.43,12.43,0,0,0,3.43-8.58,12.28,12.28,0,0,0-.66-4l27.47-25a12.46,12.46,0,0,0,16.32-16.8l9.33-10.88a12.48,12.48,0,1,0-2.16-23L709.06,413.7a12.77,12.77,0,0,0,.43-3.23,12.47,12.47,0,0,0-5.27-10.18l23.63-114.77A12.47,12.47,0,1,0,715.94,265L588.41,223.68a12.47,12.47,0,0,0-24.82,0L436.06,265a12.47,12.47,0,1,0-11.91,20.48l23.63,114.77a12.47,12.47,0,0,0-5.27,10.18,12.77,12.77,0,0,0,.43,3.23l-42.66,34.13a12.47,12.47,0,1,0-2.16,23l9.33,10.88a12.46,12.46,0,0,0,16.32,16.8l27.47,25a12.28,12.28,0,0,0-.66,4A12.43,12.43,0,0,0,454,536l-23.4,55.59a12.48,12.48,0,1,0,2,24.8l40.27,64A12.48,12.48,0,0,0,491.26,697l72.29,35.61c0,.18,0,.37,0,.56a12.48,12.48,0,0,0,25,0c0-.19,0-.38,0-.56L660.74,697a12.47,12.47,0,0,0,18.36-16.55l40.27-64A12.59,12.59,0,0,0,721.22,616.57ZM668.78,675a12.44,12.44,0,0,0-9.89,4.89l-70.61-17.41a12.47,12.47,0,0,0-7.28-9.31V635.69a12.48,12.48,0,0,0,7.48-11.43,11.91,11.91,0,0,0-.21-2.17l29.41-19.6a12.44,12.44,0,0,0,17.44-4.12l74.14,9.27a12.56,12.56,0,0,0,1.64,3.47l-40.28,64A12.35,12.35,0,0,0,668.78,675Zm-175.67,4.89a12.29,12.29,0,0,0-11.73-4.74l-40.28-64a12.56,12.56,0,0,0,1.64-3.47l74.14-9.27a12.44,12.44,0,0,0,17.44,4.12l29.41,19.6a11.91,11.91,0,0,0-.21,2.17A12.48,12.48,0,0,0,571,635.69v17.48a12.47,12.47,0,0,0-7.28,9.31ZM418.68,474.63a12.48,12.48,0,0,0-3.64.55l-9.34-10.89a12.3,12.3,0,0,0,1.25-5.42,12.77,12.77,0,0,0-.43-3.23l42.67-34.13a12.45,12.45,0,0,0,15.54-3.27l38.44,10.25a12.48,12.48,0,0,0,12.32,10.59,12.3,12.3,0,0,0,3.81-.6l44.21,50.1-40.09-5a12.44,12.44,0,0,0-19.3-6.53l-28.68-16.73a13.57,13.57,0,0,0,.09-1.44,12.48,12.48,0,0,0-24.95,0,12,12,0,0,0,.16,1.91l-25.1,16A12.48,12.48,0,0,0,418.68,474.63Zm20.48-200.08,127.52-41.36a12.52,12.52,0,0,0,4.32,3.15V482l-44.2-50.09a12.47,12.47,0,0,0-21.06-13L467.3,408.58a12.48,12.48,0,0,0-9.72-10.32L434,283.49A12.44,12.44,0,0,0,439.16,274.55Zm278.89,8.94L694.42,398.26a12.48,12.48,0,0,0-9.72,10.32l-38.44,10.25a12.47,12.47,0,0,0-21.06,13L581,482V236.34a12.52,12.52,0,0,0,4.32-3.15l127.52,41.36A12.44,12.44,0,0,0,718.05,283.49Zm28.25,180.8L737,475.18a12.43,12.43,0,0,0-10.6,1.57l-25.1-16a12,12,0,0,0,.16-1.91,12.48,12.48,0,0,0-24.95,0,13.57,13.57,0,0,0,.09,1.44L647.88,477a12.44,12.44,0,0,0-19.3,6.53l-40.09,5,44.21-50.1a12.3,12.3,0,0,0,3.81.6,12.48,12.48,0,0,0,12.32-10.59l38.44-10.25a12.45,12.45,0,0,0,15.54,3.27l42.67,34.13a12.77,12.77,0,0,0-.43,3.23A12.3,12.3,0,0,0,746.3,464.29ZM710.51,597.71l-74.15-9.26a12.46,12.46,0,0,0-12-8.94c-.22,0-.43,0-.64,0l-38.19-76.39a12.3,12.3,0,0,0,2.38-4.44l41.87-5.23a12.42,12.42,0,0,0,16.28,4.77L677,524a12.45,12.45,0,0,0,11.8,15.94l23.41,55.59A12.27,12.27,0,0,0,710.51,597.71ZM582.73,613.77a12.38,12.38,0,0,0-13.46,0l-29.4-19.61a12.87,12.87,0,0,0,.2-2.17,12.47,12.47,0,0,0-2.89-8l38.19-76.38.63,0,.63,0L614.82,584a12.47,12.47,0,0,0-2.89,8,12.87,12.87,0,0,0,.2,2.17ZM689,515a12.4,12.4,0,0,0-5.57,1.33l-30.86-25.72a12.38,12.38,0,0,0,.5-3.47,13.74,13.74,0,0,0-.09-1.44l28.68-16.73a12.43,12.43,0,0,0,14.3.29l25.09,16a13.3,13.3,0,0,0-.16,1.91,12.44,12.44,0,0,0,.66,4l-27.46,25A12.56,12.56,0,0,0,689,515ZM431,485.2l25.09-16a12.43,12.43,0,0,0,14.3-.29l28.68,16.73a13.74,13.74,0,0,0-.09,1.44,12.38,12.38,0,0,0,.5,3.47L468.62,516.3a12.4,12.4,0,0,0-5.57-1.33,12.56,12.56,0,0,0-5.09,1.09l-27.46-25a12.44,12.44,0,0,0,.66-4A13.3,13.3,0,0,0,431,485.2Zm32.23,54.72A12.45,12.45,0,0,0,475,524l30.86-25.72a12.42,12.42,0,0,0,16.28-4.77L564,498.72a12.3,12.3,0,0,0,2.38,4.44l-38.19,76.39c-.21,0-.42,0-.64,0a12.46,12.46,0,0,0-12,8.94l-74.15,9.26a12.27,12.27,0,0,0-1.67-2.2ZM584,723.64a12.46,12.46,0,0,0-16.08,0l-70.23-34.59,68.38-16.86a12.45,12.45,0,0,0,19.78,0l68.38,16.86Z"/><path class="cls-2" d="M810,188.5H693.58a235.29,235.29,0,0,0-33.08-16.23,227.56,227.56,0,0,0-169,0,235.29,235.29,0,0,0-33.08,16.23H342a14,14,0,0,0-14,14v549a14,14,0,0,0,14,14H481.88A89.8,89.8,0,0,0,547.45,794h57.1a89.8,89.8,0,0,0,65.57-28.5H810a14,14,0,0,0,14-14v-549A14,14,0,0,0,810,188.5ZM576,168a219.21,219.21,0,0,1,91.64,20.5H484.36A219.21,219.21,0,0,1,576,168ZM489,755.5l-65.31-72.84a258.68,258.68,0,0,1-49.58-146.88l-1.74-77.39L368,351.33c0-45.4,22.49-91.61,61.6-126.82a216.84,216.84,0,0,1,35.64-26H686.76a216.84,216.84,0,0,1,35.64,26C761.51,259.72,784,305.93,784,351.33l-4.36,107-1.75,77.5a258.68,258.68,0,0,1-49.58,146.88L663,755.5Zm-151-4v-549a4,4,0,0,1,4-4H443a230.46,230.46,0,0,0-21.42,17.09C379.9,253.1,356,302.62,356,351.45l4.37,107.27,1.75,77.33A270.5,270.5,0,0,0,414.17,690l.18.25,58.53,65.28H342A4,4,0,0,1,338,751.5ZM604.55,782h-57.1a77.79,77.79,0,0,1-47.83-16.5H652.38A77.79,77.79,0,0,1,604.55,782ZM814,751.5a4,4,0,0,1-4,4H679.12l58.33-65.06.38-.47a270.5,270.5,0,0,0,52-153.92l1.75-77.33,4.37-107v-.24c0-48.83-23.9-98.35-65.57-135.86A230.46,230.46,0,0,0,709,198.5H810a4,4,0,0,1,4,4Z"/><path class="cls-2" d="M350.55,805.48a8.33,8.33,0,0,0,1.66-5.34,8.19,8.19,0,0,0-2.6-6.47,10.29,10.29,0,0,0-7.07-2.3H331.15V819h5.72V808.7h3l6.84,10.3h6.49l-7.3-10.71A8.2,8.2,0,0,0,350.55,805.48Zm-5.13-2.55a4.62,4.62,0,0,1-3.24,1h-5.31v-7.69h5.31a4.62,4.62,0,0,1,3.24,1,3.66,3.66,0,0,1,1.12,2.83A3.57,3.57,0,0,1,345.42,802.93Z"/><path class="cls-2" d="M365.45,818.91a4.93,4.93,0,0,0,1.93-1V819h5.35V806.17a7.37,7.37,0,0,0-2.22-5.69,10.15,10.15,0,0,0-11.93-.22,7.16,7.16,0,0,0-2.77,4.61h5.31a2.86,2.86,0,0,1,3-1.89,3.23,3.23,0,0,1,2.46.88,3.1,3.1,0,0,1,.83,2.22v1.49a6.34,6.34,0,0,0-2-.81,10.12,10.12,0,0,0-2.61-.36,8.57,8.57,0,0,0-5.56,1.8,5.71,5.71,0,0,0-2.23,4.63,5.88,5.88,0,0,0,2.14,4.78,8.13,8.13,0,0,0,5.33,1.75A9.73,9.73,0,0,0,365.45,818.91Zm-5.27-6.12a2,2,0,0,1,1.06-1.84,4.75,4.75,0,0,1,2.49-.63,5.29,5.29,0,0,1,2.28.47,2.62,2.62,0,0,1,1.37,1.28v1.44a2.62,2.62,0,0,1-1.37,1.28,5.29,5.29,0,0,1-2.28.47,4.67,4.67,0,0,1-2.52-.63A2,2,0,0,1,360.18,812.79Z"/><path class="cls-2" d="M377.28,798.88V819h5.58V806.26a3.43,3.43,0,0,1,1.33-2,3.76,3.76,0,0,1,2.31-.75,3.1,3.1,0,0,1,2.46,1,3.87,3.87,0,0,1,.83,2.59v12h5.58V805.86a7.63,7.63,0,0,0-1.87-5.4,7.63,7.63,0,0,0-10.64.27v-1.85Z"/><path class="cls-2" d="M405.11,790.81a3.24,3.24,0,0,0-2.32-.93,3.3,3.3,0,0,0-2.34.93,3,3,0,0,0-1,2.27,3,3,0,0,0,1,2.3,3.34,3.34,0,0,0,2.36.9,3.3,3.3,0,0,0,2.32-.9,3.18,3.18,0,0,0,0-4.57Z"/><rect class="cls-2" x="400" y="798.88" width="5.58" height="20.12"/><path class="cls-2" d="M431.28,817.16a8.77,8.77,0,0,1-5.13-3.74,14.16,14.16,0,0,1,0-14.31,8.75,8.75,0,0,1,5.13-3.73v-5.63a15.52,15.52,0,0,0-9,5.83,18.81,18.81,0,0,0,0,21.37,15.52,15.52,0,0,0,9,5.83Z"/><path class="cls-2" d="M444.51,819.45a9.43,9.43,0,0,0,7.87-4q3-4,3-10.31t-3-10.3a9.81,9.81,0,0,0-15.75,0q-3,4-3,10.3t3,10.31A9.45,9.45,0,0,0,444.51,819.45Zm-4-20.88a4.37,4.37,0,0,1,7.92,0,17.48,17.48,0,0,1,0,13.23,4.37,4.37,0,0,1-7.92,0,17.36,17.36,0,0,1,0-13.23Z"/><path class="cls-2" d="M462.85,818.28a3.54,3.54,0,0,0,1-2.57,3.48,3.48,0,0,0-1-2.54,3.6,3.6,0,0,0-5,0,3.48,3.48,0,0,0-1,2.54,3.54,3.54,0,0,0,1,2.57,3.52,3.52,0,0,0,5,0Z"/><path class="cls-2" d="M485.5,810a9.33,9.33,0,0,0-2.45-6.71,8.53,8.53,0,0,0-6.46-2.56,7.69,7.69,0,0,0-4.45,1.26v-5.62h11.52v-5h-16.2v16H472a5.1,5.1,0,0,1,4-1.84,3.89,3.89,0,0,1,3.06,1.26A4.68,4.68,0,0,1,480.1,810a4.76,4.76,0,0,1-1.12,3.29,3.81,3.81,0,0,1-3,1.25,4.27,4.27,0,0,1-3.09-1.1,4.78,4.78,0,0,1-1.37-3H466a9.47,9.47,0,0,0,3,6.55,10.06,10.06,0,0,0,7,2.45A9,9,0,0,0,485.5,810Z"/><path class="cls-2" d="M487.57,789.75v5.63a8.75,8.75,0,0,1,5.13,3.73,14.16,14.16,0,0,1,0,14.31,8.77,8.77,0,0,1-5.13,3.74v5.62a15.52,15.52,0,0,0,9.05-5.83,18.81,18.81,0,0,0,0-21.37A15.52,15.52,0,0,0,487.57,789.75Z"/><path class="cls-2" d="M347.94,852.3q0,7-5.72,7t-5.71-7V836.37h-5.76v16.51c0,3.73,1,6.58,3.11,8.58a13.24,13.24,0,0,0,16.76,0c2.05-2,3.08-4.85,3.08-8.58V836.37h-5.76Z"/><path class="cls-2" d="M369.36,843.43a6.76,6.76,0,0,0-5.4,2.3v-1.85h-5.58V864H364V851.26a3.43,3.43,0,0,1,1.33-2,3.76,3.76,0,0,1,2.31-.75,3.1,3.1,0,0,1,2.46,1,3.87,3.87,0,0,1,.83,2.59v12h5.58V850.86a7.63,7.63,0,0,0-1.87-5.4A6.77,6.77,0,0,0,369.36,843.43Z"/><polygon class="cls-2" points="400.5 843.88 393.57 843.88 386.68 851.36 386.68 834.75 381.1 834.75 381.1 864 386.68 864 386.68 857.65 388.3 855.9 394.2 864 400.81 864 392.35 852.43 400.5 843.88"/><path class="cls-2" d="M414.54,843.43a6.76,6.76,0,0,0-5.4,2.3v-1.85h-5.58V864h5.58V851.26a3.43,3.43,0,0,1,1.33-2,3.76,3.76,0,0,1,2.31-.75,3.1,3.1,0,0,1,2.46,1,3.87,3.87,0,0,1,.83,2.59v12h5.58V850.86a7.63,7.63,0,0,0-1.87-5.4A6.77,6.77,0,0,0,414.54,843.43Z"/><path class="cls-2" d="M434.88,843.43a9.31,9.31,0,0,0-7.11,2.93,11.84,11.84,0,0,0,0,15.17,10.12,10.12,0,0,0,14.22,0,11.87,11.87,0,0,0,0-15.17A9.31,9.31,0,0,0,434.88,843.43Zm3.17,14.7a4,4,0,0,1-6.34,0,8.19,8.19,0,0,1,0-8.37,3.94,3.94,0,0,1,6.34,0,8.19,8.19,0,0,1,0,8.37Z"/><polygon class="cls-2" points="466.29 856.71 462.96 843.88 458.68 843.88 455.4 856.71 451.8 843.88 446.22 843.88 452.34 864 457.47 864 460.75 851.67 464.04 864 469.17 864 475.29 843.88 469.89 843.88 466.29 856.71"/><path class="cls-2" d="M489.28,843.43a6.76,6.76,0,0,0-5.4,2.3v-1.85H478.3V864h5.58V851.26a3.47,3.47,0,0,1,1.33-2,3.79,3.79,0,0,1,2.32-.75,3.08,3.08,0,0,1,2.45,1,3.82,3.82,0,0,1,.83,2.59v12h5.58V850.86a7.67,7.67,0,0,0-1.86-5.4A6.8,6.8,0,0,0,489.28,843.43Z"/><path class="cls-2" d="M512.82,840.58a18.81,18.81,0,0,0,0,21.37,15.5,15.5,0,0,0,9,5.83v-5.62a8.77,8.77,0,0,1-5.13-3.74,14.23,14.23,0,0,1,0-14.31,8.75,8.75,0,0,1,5.13-3.73v-5.63A15.5,15.5,0,0,0,512.82,840.58Z"/><polygon class="cls-2" points="523.53 840.51 523.53 846.13 529.96 842.94 529.96 864 535.59 864 535.59 836.37 531.94 836.37 523.53 840.51"/><path class="cls-2" d="M543,857.16a3.42,3.42,0,0,0-2.5,1,3.48,3.48,0,0,0-1,2.54,3.54,3.54,0,0,0,1,2.57,3.52,3.52,0,0,0,5,0,3.54,3.54,0,0,0,1-2.57,3.48,3.48,0,0,0-1-2.54A3.42,3.42,0,0,0,543,857.16Z"/><path class="cls-2" d="M562.63,853.29c1.29-1.35,2.23-2.36,2.81-3a14,14,0,0,0,1.78-2.74,7.27,7.27,0,0,0,.9-3.35,7.69,7.69,0,0,0-2.47-6,9.78,9.78,0,0,0-6.8-2.23,9.07,9.07,0,0,0-6.59,2.5,10,10,0,0,0-3,6.46h5.94a4.31,4.31,0,0,1,1-2.77,3.4,3.4,0,0,1,2.64-1.06,3.52,3.52,0,0,1,2.56.92,3.23,3.23,0,0,1,.95,2.41,4.38,4.38,0,0,1-.63,2.12,33.7,33.7,0,0,1-3.69,4.54l-8.78,9.22V864h19.13v-5H557.32Z"/><path class="cls-2" d="M571,834.75v5.63a8.76,8.76,0,0,1,5.12,3.73,14.16,14.16,0,0,1,0,14.31,8.78,8.78,0,0,1-5.12,3.74v5.62a15.53,15.53,0,0,0,9-5.83,18.81,18.81,0,0,0,0-21.37A15.53,15.53,0,0,0,571,834.75Z"/></svg>