<?xml version="1.0" encoding="UTF-8"?>
<svg id="OUTLINES" xmlns="http://www.w3.org/2000/svg" viewBox="0 0 1152 1008">
  <defs>
    <style>
      .cls-1 {
        fill: #000f7d;
      }

      .cls-2 {
        fill: #fff;
      }
    </style>
  </defs>
  <rect class="cls-2" x="336" y="606" width="498" height="111" rx="24" ry="24"/>
  <rect class="cls-2" x="336" y="705" width="498" height="111" rx="24" ry="24"/>
  <path class="cls-1" d="M864,293H288c-2.76,0-5-2.24-5-5s2.24-5,5-5H864c2.76,0,5,2.24,5,5s-2.24,5-5,5Z"/>
  <path class="cls-1" d="M864,329H288c-2.76,0-5-2.24-5-5s2.24-5,5-5H864c2.76,0,5,2.24,5,5s-2.24,5-5,5Z"/>
  <path class="cls-1" d="M864,365H288c-2.76,0-5-2.24-5-5s2.24-5,5-5H864c2.76,0,5,2.24,5,5s-2.24,5-5,5Z"/>
  <path class="cls-1" d="M864,401H288c-2.76,0-5-2.24-5-5s2.24-5,5-5H864c2.76,0,5,2.24,5,5s-2.24,5-5,5Z"/>
  <path class="cls-1" d="M864,437H288c-2.76,0-5-2.24-5-5s2.24-5,5-5H864c2.76,0,5,2.24,5,5s-2.24,5-5,5Z"/>
  <g>
    <path class="cls-1" d="M459.81,666.35h-3.92l-6.84-18.04v18.04h-5.4v-27.63h6.84l7.38,19.48,7.33-19.48h6.75v27.63h-5.45v-18.04l-6.71,18.04Z"/>
    <path class="cls-1" d="M495.49,656.32c0,3.09-.92,5.61-2.75,7.56-1.83,1.95-4.2,2.93-7.11,2.93s-5.28-.97-7.11-2.93c-1.83-1.95-2.75-4.47-2.75-7.56s.92-5.65,2.75-7.6c1.83-1.95,4.2-2.92,7.11-2.92s5.28,.98,7.11,2.92c1.83,1.95,2.75,4.49,2.75,7.6Zm-5.54,0c0-1.74-.38-3.14-1.15-4.21-.76-1.06-1.82-1.6-3.17-1.6s-2.41,.53-3.17,1.6c-.76,1.07-1.15,2.47-1.15,4.21s.38,3.1,1.15,4.16c.76,1.07,1.82,1.6,3.17,1.6s2.41-.53,3.17-1.6c.77-1.06,1.15-2.45,1.15-4.16Z"/>
    <path class="cls-1" d="M511.25,646.15v5.58c-.75-.45-1.68-.67-2.79-.67-.96,0-1.79,.25-2.47,.74-.69,.5-1.14,1.19-1.35,2.09v12.46h-5.58v-20.12h5.58v1.98c.96-1.62,2.46-2.43,4.5-2.43,.99,0,1.69,.12,2.12,.36Z"/>
    <path class="cls-1" d="M526.59,659.78h5.17c-.36,2.19-1.31,3.91-2.86,5.15-1.54,1.25-3.56,1.87-6.05,1.87-2.91,0-5.26-.97-7.06-2.9s-2.7-4.46-2.7-7.58,.91-5.54,2.72-7.54c1.81-2,4.13-2.99,6.95-2.99s5.12,.91,6.73,2.72c1.6,1.82,2.41,4.24,2.41,7.27v1.71h-13.41c.09,1.5,.52,2.68,1.3,3.53,.78,.85,1.8,1.28,3.06,1.28,2.04,0,3.29-.84,3.74-2.52Zm-3.78-9.45c-2.28,0-3.67,1.26-4.18,3.78h7.79c-.03-1.11-.36-2.02-.99-2.72-.63-.7-1.5-1.06-2.61-1.06Z"/>
    <path class="cls-1" d="M543.73,656.32c0-3.12,.9-5.65,2.7-7.6,1.8-1.95,4.12-2.92,6.97-2.92,2.46,0,4.47,.66,6.03,1.98,1.56,1.32,2.49,3.08,2.79,5.27h-5.49c-.15-.78-.52-1.39-1.1-1.82-.58-.43-1.33-.65-2.23-.65-1.26,0-2.27,.53-3.01,1.57-.75,1.05-1.12,2.45-1.12,4.19s.38,3.09,1.12,4.14c.75,1.05,1.75,1.58,3.01,1.58,.9,0,1.64-.22,2.23-.65,.58-.43,.95-1.04,1.1-1.82h5.49c-.3,2.19-1.22,3.95-2.77,5.27-1.55,1.32-3.56,1.98-6.05,1.98-2.85,0-5.17-.97-6.97-2.93-1.8-1.95-2.7-4.47-2.7-7.56Z"/>
    <path class="cls-1" d="M582.17,666.35h-5.36v-1.08c-.36,.36-1,.69-1.93,.99-.93,.3-1.92,.45-2.97,.45-2.13,0-3.91-.58-5.33-1.75s-2.14-2.76-2.14-4.77c0-1.89,.74-3.43,2.23-4.63,1.49-1.2,3.34-1.8,5.56-1.8,.84,0,1.71,.12,2.61,.36,.9,.24,1.56,.51,1.98,.81v-1.48c0-.9-.28-1.64-.83-2.23-.56-.58-1.37-.88-2.45-.88-1.5,0-2.49,.63-2.97,1.89h-5.31c.3-1.86,1.22-3.4,2.77-4.61,1.54-1.21,3.44-1.82,5.69-1.82,2.67,0,4.75,.68,6.23,2.05,1.48,1.37,2.23,3.26,2.23,5.69v12.83Zm-5.36-5.49v-1.44c-.24-.54-.7-.97-1.37-1.28s-1.43-.47-2.27-.47c-.96,0-1.79,.21-2.5,.63-.71,.42-1.06,1.04-1.06,1.85s.34,1.43,1.04,1.84c.69,.42,1.53,.63,2.52,.63,.84,0,1.6-.16,2.27-.47s1.13-.74,1.37-1.28Z"/>
    <path class="cls-1" d="M585.4,660.37h5.54c.45,1.47,1.58,2.21,3.38,2.21,1.89,0,2.83-.66,2.83-1.98,0-.45-.16-.8-.47-1.06s-.83-.47-1.55-.65l-4.05-.9c-3.48-.81-5.22-2.7-5.22-5.67,0-1.92,.76-3.49,2.29-4.7,1.53-1.21,3.43-1.82,5.71-1.82,2.49,0,4.45,.55,5.87,1.64,1.42,1.1,2.32,2.62,2.68,4.57h-5.31c-.42-1.32-1.47-1.98-3.15-1.98-.72,0-1.34,.17-1.87,.5-.53,.33-.79,.79-.79,1.4,0,.75,.6,1.28,1.8,1.57l4.14,.95c3.57,.87,5.36,2.82,5.36,5.85,0,2.01-.77,3.6-2.32,4.77-1.54,1.17-3.52,1.76-5.92,1.76s-4.53-.56-6.12-1.69c-1.59-1.12-2.54-2.71-2.83-4.75Z"/>
    <path class="cls-1" d="M624.19,646.24v20.12h-5.58v-1.85c-1.38,1.53-3.18,2.3-5.4,2.3s-3.95-.68-5.2-2.03c-1.25-1.35-1.87-3.15-1.87-5.4v-13.14h5.58v12.02c0,1.11,.27,1.98,.81,2.61,.54,.63,1.35,.95,2.43,.95,.87,0,1.63-.25,2.29-.74,.66-.5,1.09-1.18,1.3-2.05v-12.78h5.62Z"/>
    <path class="cls-1" d="M645.52,666.35h-5.36v-1.08c-.36,.36-1,.69-1.93,.99-.93,.3-1.92,.45-2.97,.45-2.13,0-3.91-.58-5.33-1.75s-2.14-2.76-2.14-4.77c0-1.89,.74-3.43,2.23-4.63,1.49-1.2,3.34-1.8,5.56-1.8,.84,0,1.71,.12,2.61,.36,.9,.24,1.56,.51,1.98,.81v-1.48c0-.9-.28-1.64-.83-2.23-.56-.58-1.37-.88-2.45-.88-1.5,0-2.49,.63-2.97,1.89h-5.31c.3-1.86,1.22-3.4,2.77-4.61,1.54-1.21,3.44-1.82,5.69-1.82,2.67,0,4.75,.68,6.23,2.05,1.48,1.37,2.23,3.26,2.23,5.69v12.83Zm-5.36-5.49v-1.44c-.24-.54-.7-.97-1.37-1.28s-1.43-.47-2.27-.47c-.96,0-1.79,.21-2.5,.63-.71,.42-1.06,1.04-1.06,1.85s.34,1.43,1.04,1.84c.69,.42,1.53,.63,2.52,.63,.84,0,1.6-.16,2.27-.47s1.13-.74,1.37-1.28Z"/>
    <path class="cls-1" d="M655.65,637.1v29.25h-5.58v-29.25h5.58Z"/>
  </g>
  <g>
    <path class="cls-1" d="M404.82,567.35h-3.92l-6.84-18.04v18.04h-5.4v-27.63h6.84l7.38,19.48,7.33-19.48h6.75v27.63h-5.45v-18.04l-6.71,18.04Z"/>
    <path class="cls-1" d="M440.51,557.32c0,3.09-.92,5.61-2.75,7.56-1.83,1.95-4.2,2.93-7.11,2.93s-5.28-.97-7.11-2.93c-1.83-1.95-2.75-4.47-2.75-7.56s.92-5.65,2.75-7.6c1.83-1.95,4.2-2.92,7.11-2.92s5.28,.98,7.11,2.92c1.83,1.95,2.75,4.49,2.75,7.6Zm-5.54,0c0-1.74-.38-3.14-1.15-4.21-.76-1.06-1.82-1.6-3.17-1.6s-2.41,.53-3.17,1.6c-.76,1.07-1.15,2.47-1.15,4.21s.38,3.1,1.15,4.16c.76,1.07,1.82,1.6,3.17,1.6s2.41-.53,3.17-1.6c.77-1.06,1.15-2.45,1.15-4.16Z"/>
    <path class="cls-1" d="M457.16,567.35v-1.67c-.48,.57-1.19,1.07-2.11,1.48-.93,.42-1.91,.63-2.93,.63-2.82,0-5.05-1-6.68-2.99-1.63-1.99-2.45-4.49-2.45-7.49s.82-5.5,2.45-7.51c1.63-2.01,3.86-3.02,6.68-3.02,1.02,0,2,.21,2.93,.63,.93,.42,1.63,.92,2.11,1.48v-10.8h5.62v29.25h-5.62Zm0-6.75v-6.62c-.33-.69-.84-1.25-1.53-1.69-.69-.43-1.44-.65-2.25-.65-1.47,0-2.64,.53-3.51,1.6-.87,1.06-1.3,2.42-1.3,4.07s.43,3,1.3,4.05c.87,1.05,2.04,1.57,3.51,1.57,.84,0,1.6-.22,2.27-.65,.67-.43,1.18-1,1.51-1.69Z"/>
    <path class="cls-1" d="M473.67,541.43c0,.93-.32,1.7-.97,2.29-.65,.6-1.42,.9-2.32,.9s-1.72-.3-2.36-.9c-.65-.6-.97-1.36-.97-2.29s.33-1.66,.99-2.27c.66-.61,1.44-.92,2.34-.92s1.67,.31,2.32,.92c.65,.62,.97,1.37,.97,2.27Zm-.5,5.8v20.12h-5.58v-20.12h5.58Z"/>
    <path class="cls-1" d="M489.83,538.24v4.73c-.51-.36-1.17-.54-1.98-.54-1.83,0-2.75,.93-2.75,2.79v2.02h4.18v4.5h-4.18v15.62h-5.49v-15.62h-3.29v-4.5h3.29v-2.38c0-2.25,.64-4,1.94-5.27,1.29-1.26,3.01-1.89,5.17-1.89,1.26,0,2.29,.18,3.1,.54Z"/>
    <path class="cls-1" d="M500.81,574.78h-5.49l2.92-7.33-7.7-20.21h5.9l4.63,13.37,4.59-13.37h5.62l-10.49,27.54Z"/>
    <path class="cls-1" d="M525.06,561.28v-9.54h-3.06v-4.5h3.06v-5.44h5.54v5.44h4.41v4.5h-4.41v8.82c0,1.53,.77,2.29,2.29,2.29,.93,0,1.74-.23,2.43-.67v4.95c-.78,.42-1.98,.63-3.6,.63-2.1,0-3.73-.54-4.9-1.62s-1.76-2.7-1.76-4.86Z"/>
    <path class="cls-1" d="M539.37,567.35v-29.25h5.58v10.98c1.32-1.53,3.12-2.29,5.4-2.29s4,.67,5.24,2.02,1.87,3.15,1.87,5.4v13.14h-5.58v-11.97c0-1.08-.28-1.94-.83-2.59-.56-.64-1.37-.97-2.45-.97-.87,0-1.64,.25-2.32,.74-.68,.5-1.12,1.18-1.33,2.05v12.73h-5.58Z"/>
    <path class="cls-1" d="M568.17,541.43c0,.93-.32,1.7-.97,2.29-.65,.6-1.42,.9-2.32,.9s-1.72-.3-2.36-.9c-.65-.6-.97-1.36-.97-2.29s.33-1.66,.99-2.27c.66-.61,1.44-.92,2.34-.92s1.67,.31,2.32,.92c.65,.62,.97,1.37,.97,2.27Zm-.5,5.8v20.12h-5.58v-20.12h5.58Z"/>
    <path class="cls-1" d="M571.23,561.37h5.54c.45,1.47,1.58,2.21,3.38,2.21,1.89,0,2.83-.66,2.83-1.98,0-.45-.16-.8-.47-1.06s-.83-.47-1.55-.65l-4.05-.9c-3.48-.81-5.22-2.7-5.22-5.67,0-1.92,.76-3.49,2.29-4.7,1.53-1.21,3.43-1.82,5.71-1.82,2.49,0,4.45,.55,5.87,1.64,1.42,1.1,2.32,2.62,2.68,4.57h-5.31c-.42-1.32-1.47-1.98-3.15-1.98-.72,0-1.34,.17-1.87,.5-.53,.33-.79,.79-.79,1.4,0,.75,.6,1.28,1.8,1.57l4.14,.95c3.57,.87,5.36,2.82,5.36,5.85,0,2.01-.77,3.6-2.32,4.77-1.54,1.17-3.52,1.76-5.92,1.76s-4.53-.56-6.12-1.69c-1.59-1.12-2.54-2.71-2.83-4.75Z"/>
    <path class="cls-1" d="M613.93,547.15v5.58c-.75-.45-1.68-.67-2.79-.67-.96,0-1.79,.25-2.47,.74-.69,.5-1.14,1.19-1.35,2.09v12.46h-5.58v-20.12h5.58v1.98c.96-1.62,2.46-2.43,4.5-2.43,.99,0,1.69,.12,2.12,.36Z"/>
    <path class="cls-1" d="M629.28,560.78h5.17c-.36,2.19-1.31,3.91-2.86,5.15-1.54,1.25-3.56,1.87-6.05,1.87-2.91,0-5.26-.97-7.06-2.9s-2.7-4.46-2.7-7.58,.91-5.54,2.72-7.54c1.81-2,4.13-2.99,6.95-2.99s5.12,.91,6.73,2.72c1.6,1.82,2.41,4.24,2.41,7.27v1.71h-13.41c.09,1.5,.52,2.68,1.3,3.53,.78,.85,1.8,1.28,3.06,1.28,2.04,0,3.29-.84,3.74-2.52Zm-3.78-9.45c-2.28,0-3.67,1.26-4.18,3.78h7.79c-.03-1.11-.36-2.02-.99-2.72-.63-.7-1.5-1.06-2.61-1.06Z"/>
    <path class="cls-1" d="M636.88,561.37h5.54c.45,1.47,1.58,2.21,3.38,2.21,1.89,0,2.83-.66,2.83-1.98,0-.45-.16-.8-.47-1.06s-.83-.47-1.55-.65l-4.05-.9c-3.48-.81-5.22-2.7-5.22-5.67,0-1.92,.76-3.49,2.29-4.7,1.53-1.21,3.43-1.82,5.71-1.82,2.49,0,4.45,.55,5.87,1.64,1.42,1.1,2.32,2.62,2.68,4.57h-5.31c-.42-1.32-1.47-1.98-3.15-1.98-.72,0-1.34,.17-1.87,.5-.53,.33-.79,.79-.79,1.4,0,.75,.6,1.28,1.8,1.57l4.14,.95c3.57,.87,5.36,2.82,5.36,5.85,0,2.01-.77,3.6-2.32,4.77-1.54,1.17-3.52,1.76-5.92,1.76s-4.53-.56-6.12-1.69c-1.59-1.12-2.54-2.71-2.83-4.75Z"/>
    <path class="cls-1" d="M663.43,565.69v9.09h-5.58v-27.54h5.58v1.67c.48-.57,1.18-1.06,2.12-1.48,.93-.42,1.9-.63,2.92-.63,2.82,0,5.05,1.01,6.71,3.04,1.65,2.02,2.48,4.52,2.48,7.49s-.83,5.46-2.48,7.47c-1.65,2.01-3.89,3.02-6.71,3.02-1.02,0-2-.21-2.92-.63-.93-.42-1.64-.91-2.12-1.48Zm0-11.7v6.62c.33,.69,.84,1.25,1.53,1.69,.69,.44,1.44,.65,2.25,.65,1.47,0,2.64-.52,3.51-1.57,.87-1.05,1.31-2.4,1.31-4.05s-.44-3.01-1.31-4.07c-.87-1.06-2.04-1.6-3.51-1.6-.81,0-1.55,.22-2.23,.65-.67,.44-1.19,1-1.55,1.69Z"/>
    <path class="cls-1" d="M699.84,557.32c0,3.09-.92,5.61-2.75,7.56-1.83,1.95-4.2,2.93-7.11,2.93s-5.28-.97-7.11-2.93c-1.83-1.95-2.75-4.47-2.75-7.56s.92-5.65,2.75-7.6c1.83-1.95,4.2-2.92,7.11-2.92s5.28,.98,7.11,2.92c1.83,1.95,2.75,4.49,2.75,7.6Zm-5.54,0c0-1.74-.38-3.14-1.15-4.21-.76-1.06-1.82-1.6-3.17-1.6s-2.41,.53-3.17,1.6c-.76,1.07-1.15,2.47-1.15,4.21s.38,3.1,1.15,4.16c.76,1.07,1.82,1.6,3.17,1.6s2.41-.53,3.17-1.6c.77-1.06,1.15-2.45,1.15-4.16Z"/>
    <path class="cls-1" d="M703.39,567.35v-20.12h5.58v1.85c1.32-1.53,3.12-2.29,5.4-2.29s4,.67,5.24,2.02,1.87,3.15,1.87,5.4v13.14h-5.58v-11.97c0-1.08-.28-1.94-.83-2.59-.56-.64-1.37-.97-2.45-.97-.87,0-1.64,.25-2.32,.74-.68,.5-1.12,1.18-1.33,2.05v12.73h-5.58Z"/>
    <path class="cls-1" d="M724.81,561.37h5.54c.45,1.47,1.58,2.21,3.38,2.21,1.89,0,2.83-.66,2.83-1.98,0-.45-.16-.8-.47-1.06s-.83-.47-1.55-.65l-4.05-.9c-3.48-.81-5.22-2.7-5.22-5.67,0-1.92,.76-3.49,2.29-4.7,1.53-1.21,3.43-1.82,5.71-1.82,2.49,0,4.45,.55,5.87,1.64,1.42,1.1,2.32,2.62,2.68,4.57h-5.31c-.42-1.32-1.47-1.98-3.15-1.98-.72,0-1.34,.17-1.87,.5-.53,.33-.79,.79-.79,1.4,0,.75,.6,1.28,1.8,1.57l4.14,.95c3.57,.87,5.36,2.82,5.36,5.85,0,2.01-.77,3.6-2.32,4.77-1.54,1.17-3.52,1.76-5.92,1.76s-4.53-.56-6.12-1.69c-1.59-1.12-2.54-2.71-2.83-4.75Z"/>
    <path class="cls-1" d="M758.02,560.78h5.17c-.36,2.19-1.31,3.91-2.86,5.15-1.54,1.25-3.56,1.87-6.05,1.87-2.91,0-5.26-.97-7.06-2.9s-2.7-4.46-2.7-7.58,.91-5.54,2.72-7.54c1.81-2,4.13-2.99,6.95-2.99s5.12,.91,6.73,2.72c1.6,1.82,2.41,4.24,2.41,7.27v1.71h-13.41c.09,1.5,.52,2.68,1.3,3.53,.78,.85,1.8,1.28,3.06,1.28,2.04,0,3.29-.84,3.74-2.52Zm-3.78-9.45c-2.28,0-3.67,1.26-4.18,3.78h7.79c-.03-1.11-.36-2.02-.99-2.72-.63-.7-1.5-1.06-2.61-1.06Z"/>
  </g>
  <path class="cls-1" d="M825,684v-63c0-12.9-10.23-23.45-23-23.97v-75.03c0-13.23-10.77-24-24-24H374c-13.23,0-24,10.77-24,24v75.03c-12.77,.53-23,11.08-23,23.97v63c0,7.16,3.16,13.6,8.15,18-4.99,4.4-8.15,10.84-8.15,18v63c0,12.9,10.23,23.45,23,23.97v3.03c0,13.23,10.77,24,24,24h404c13.23,0,24-10.77,24-24v-3.03c12.77-.53,23-11.08,23-23.97v-63c0-7.16-3.16-13.6-8.15-18,4.99-4.4,8.15-10.84,8.15-18Zm-463-162c0-6.62,5.38-12,12-12h404c6.62,0,12,5.38,12,12v75H362v-75Zm428,288c0,6.62-5.38,12-12,12H374c-6.62,0-12-5.38-12-12v-3h428v3Zm23-90v63c0,6.62-5.38,12-12,12H351c-6.62,0-12-5.38-12-12v-63c0-6.62,5.38-12,12-12h450c6.62,0,12,5.38,12,12Zm-462-24c-6.62,0-12-5.38-12-12v-63c0-6.62,5.38-12,12-12h450c6.62,0,12,5.38,12,12v63c0,6.62-5.38,12-12,12H351Z"/>
  <g>
    <path class="cls-1" d="M459.81,765.35h-3.92l-6.84-18.04v18.04h-5.4v-27.63h6.84l7.38,19.48,7.33-19.48h6.75v27.63h-5.45v-18.04l-6.71,18.04Z"/>
    <path class="cls-1" d="M495.49,755.32c0,3.09-.92,5.61-2.75,7.56-1.83,1.95-4.2,2.93-7.11,2.93s-5.28-.97-7.11-2.93c-1.83-1.95-2.75-4.47-2.75-7.56s.92-5.65,2.75-7.6c1.83-1.95,4.2-2.92,7.11-2.92s5.28,.98,7.11,2.92c1.83,1.95,2.75,4.49,2.75,7.6Zm-5.54,0c0-1.74-.38-3.14-1.15-4.21-.76-1.06-1.82-1.6-3.17-1.6s-2.41,.53-3.17,1.6c-.76,1.07-1.15,2.47-1.15,4.21s.38,3.1,1.15,4.16c.76,1.07,1.82,1.6,3.17,1.6s2.41-.53,3.17-1.6c.77-1.06,1.15-2.45,1.15-4.16Z"/>
    <path class="cls-1" d="M511.25,745.15v5.58c-.75-.45-1.68-.67-2.79-.67-.96,0-1.79,.25-2.47,.74-.69,.5-1.14,1.19-1.35,2.09v12.46h-5.58v-20.12h5.58v1.98c.96-1.62,2.46-2.43,4.5-2.43,.99,0,1.69,.12,2.12,.36Z"/>
    <path class="cls-1" d="M526.59,758.78h5.17c-.36,2.19-1.31,3.91-2.86,5.15-1.54,1.25-3.56,1.87-6.05,1.87-2.91,0-5.26-.97-7.06-2.9s-2.7-4.46-2.7-7.58,.91-5.54,2.72-7.54c1.81-2,4.13-2.99,6.95-2.99s5.12,.91,6.73,2.72c1.6,1.82,2.41,4.24,2.41,7.27v1.71h-13.41c.09,1.5,.52,2.68,1.3,3.53,.78,.85,1.8,1.28,3.06,1.28,2.04,0,3.29-.84,3.74-2.52Zm-3.78-9.45c-2.28,0-3.67,1.26-4.18,3.78h7.79c-.03-1.11-.36-2.02-.99-2.72-.63-.7-1.5-1.06-2.61-1.06Z"/>
    <path class="cls-1" d="M550.57,763.69v9.09h-5.58v-27.54h5.58v1.67c.48-.57,1.18-1.06,2.12-1.48,.93-.42,1.9-.63,2.92-.63,2.82,0,5.05,1.01,6.71,3.04,1.65,2.02,2.48,4.52,2.48,7.49s-.83,5.46-2.48,7.47c-1.65,2.01-3.89,3.02-6.71,3.02-1.02,0-2-.21-2.92-.63-.93-.42-1.64-.91-2.12-1.48Zm0-11.7v6.62c.33,.69,.84,1.25,1.53,1.69,.69,.44,1.44,.65,2.25,.65,1.47,0,2.64-.52,3.51-1.57,.87-1.05,1.31-2.4,1.31-4.05s-.44-3.01-1.31-4.07c-.87-1.06-2.04-1.6-3.51-1.6-.81,0-1.55,.22-2.23,.65-.67,.44-1.19,1-1.55,1.69Z"/>
    <path class="cls-1" d="M580.54,745.15v5.58c-.75-.45-1.68-.67-2.79-.67-.96,0-1.79,.25-2.47,.74-.69,.5-1.14,1.19-1.35,2.09v12.46h-5.58v-20.12h5.58v1.98c.96-1.62,2.46-2.43,4.5-2.43,.99,0,1.69,.12,2.12,.36Z"/>
    <path class="cls-1" d="M602.1,755.32c0,3.09-.92,5.61-2.75,7.56-1.83,1.95-4.2,2.93-7.11,2.93s-5.28-.97-7.11-2.93c-1.83-1.95-2.75-4.47-2.75-7.56s.92-5.65,2.75-7.6c1.83-1.95,4.2-2.92,7.11-2.92s5.28,.98,7.11,2.92c1.83,1.95,2.75,4.49,2.75,7.6Zm-5.54,0c0-1.74-.38-3.14-1.15-4.21-.76-1.06-1.82-1.6-3.17-1.6s-2.41,.53-3.17,1.6c-.76,1.07-1.15,2.47-1.15,4.21s.38,3.1,1.15,4.16c.76,1.07,1.82,1.6,3.17,1.6s2.41-.53,3.17-1.6c.77-1.06,1.15-2.45,1.15-4.16Z"/>
    <path class="cls-1" d="M617.44,736.24v4.73c-.51-.36-1.17-.54-1.98-.54-1.83,0-2.75,.93-2.75,2.79v2.02h4.18v4.5h-4.18v15.62h-5.49v-15.62h-3.29v-4.5h3.29v-2.38c0-2.25,.64-4,1.94-5.27,1.29-1.26,3.01-1.89,5.17-1.89,1.26,0,2.29,.18,3.1,.54Z"/>
    <path class="cls-1" d="M632.25,758.78h5.17c-.36,2.19-1.31,3.91-2.86,5.15-1.54,1.25-3.56,1.87-6.05,1.87-2.91,0-5.26-.97-7.06-2.9s-2.7-4.46-2.7-7.58,.91-5.54,2.72-7.54c1.81-2,4.13-2.99,6.95-2.99s5.12,.91,6.73,2.72c1.6,1.82,2.41,4.24,2.41,7.27v1.71h-13.41c.09,1.5,.52,2.68,1.3,3.53,.78,.85,1.8,1.28,3.06,1.28,2.04,0,3.29-.84,3.74-2.52Zm-3.78-9.45c-2.28,0-3.67,1.26-4.18,3.78h7.79c-.03-1.11-.36-2.02-.99-2.72-.63-.7-1.5-1.06-2.61-1.06Z"/>
    <path class="cls-1" d="M639.85,759.37h5.54c.45,1.47,1.58,2.21,3.38,2.21,1.89,0,2.83-.66,2.83-1.98,0-.45-.16-.8-.47-1.06s-.83-.47-1.55-.65l-4.05-.9c-3.48-.81-5.22-2.7-5.22-5.67,0-1.92,.76-3.49,2.29-4.7,1.53-1.21,3.43-1.82,5.71-1.82,2.49,0,4.45,.55,5.87,1.64,1.42,1.1,2.32,2.62,2.68,4.57h-5.31c-.42-1.32-1.47-1.98-3.15-1.98-.72,0-1.34,.17-1.87,.5-.53,.33-.79,.79-.79,1.4,0,.75,.6,1.28,1.8,1.57l4.14,.95c3.57,.87,5.36,2.82,5.36,5.85,0,2.01-.77,3.6-2.32,4.77-1.54,1.17-3.52,1.76-5.92,1.76s-4.53-.56-6.12-1.69c-1.59-1.12-2.54-2.71-2.83-4.75Z"/>
    <path class="cls-1" d="M659.52,759.37h5.54c.45,1.47,1.58,2.21,3.38,2.21,1.89,0,2.83-.66,2.83-1.98,0-.45-.16-.8-.47-1.06s-.83-.47-1.55-.65l-4.05-.9c-3.48-.81-5.22-2.7-5.22-5.67,0-1.92,.76-3.49,2.29-4.7,1.53-1.21,3.43-1.82,5.71-1.82,2.49,0,4.45,.55,5.87,1.64,1.42,1.1,2.32,2.62,2.68,4.57h-5.31c-.42-1.32-1.47-1.98-3.15-1.98-.72,0-1.34,.17-1.87,.5-.53,.33-.79,.79-.79,1.4,0,.75,.6,1.28,1.8,1.57l4.14,.95c3.57,.87,5.36,2.82,5.36,5.85,0,2.01-.77,3.6-2.32,4.77-1.54,1.17-3.52,1.76-5.92,1.76s-4.53-.56-6.12-1.69c-1.59-1.12-2.54-2.71-2.83-4.75Z"/>
    <path class="cls-1" d="M686.56,739.43c0,.93-.32,1.7-.97,2.29-.65,.6-1.42,.9-2.32,.9s-1.72-.3-2.36-.9c-.65-.6-.97-1.36-.97-2.29s.33-1.66,.99-2.27c.66-.61,1.44-.92,2.34-.92s1.67,.31,2.32,.92c.65,.62,.97,1.37,.97,2.27Zm-.5,5.8v20.12h-5.58v-20.12h5.58Z"/>
    <path class="cls-1" d="M709.38,755.32c0,3.09-.92,5.61-2.75,7.56-1.83,1.95-4.2,2.93-7.11,2.93s-5.28-.97-7.11-2.93c-1.83-1.95-2.75-4.47-2.75-7.56s.92-5.65,2.75-7.6c1.83-1.95,4.2-2.92,7.11-2.92s5.28,.98,7.11,2.92c1.83,1.95,2.75,4.49,2.75,7.6Zm-5.54,0c0-1.74-.38-3.14-1.15-4.21-.76-1.06-1.82-1.6-3.17-1.6s-2.41,.53-3.17,1.6c-.76,1.07-1.15,2.47-1.15,4.21s.38,3.1,1.15,4.16c.76,1.07,1.82,1.6,3.17,1.6s2.41-.53,3.17-1.6c.77-1.06,1.15-2.45,1.15-4.16Z"/>
    <path class="cls-1" d="M712.93,765.35v-20.12h5.58v1.85c1.32-1.53,3.12-2.29,5.4-2.29s4,.67,5.24,2.02,1.87,3.15,1.87,5.4v13.14h-5.58v-11.97c0-1.08-.28-1.94-.83-2.59-.56-.64-1.37-.97-2.45-.97-.87,0-1.64,.25-2.32,.74-.68,.5-1.12,1.18-1.33,2.05v12.73h-5.58Z"/>
    <path class="cls-1" d="M752.17,765.35h-5.36v-1.08c-.36,.36-1,.69-1.93,.99-.93,.3-1.92,.45-2.97,.45-2.13,0-3.91-.58-5.33-1.75s-2.14-2.76-2.14-4.77c0-1.89,.74-3.43,2.23-4.63,1.49-1.2,3.34-1.8,5.56-1.8,.84,0,1.71,.12,2.61,.36,.9,.24,1.56,.51,1.98,.81v-1.48c0-.9-.28-1.64-.83-2.23-.56-.58-1.37-.88-2.45-.88-1.5,0-2.49,.63-2.97,1.89h-5.31c.3-1.86,1.22-3.4,2.77-4.61,1.54-1.21,3.44-1.82,5.69-1.82,2.67,0,4.75,.68,6.23,2.05,1.48,1.37,2.23,3.26,2.23,5.69v12.83Zm-5.36-5.49v-1.44c-.24-.54-.7-.97-1.37-1.28s-1.43-.47-2.27-.47c-.96,0-1.79,.21-2.5,.63-.71,.42-1.06,1.04-1.06,1.85s.34,1.43,1.04,1.84c.69,.42,1.53,.63,2.52,.63,.84,0,1.6-.16,2.27-.47s1.13-.74,1.37-1.28Z"/>
    <path class="cls-1" d="M762.3,736.1v29.25h-5.58v-29.25h5.58Z"/>
  </g>
  <path class="cls-1" d="M918,685.22h-94v-10h94c7.17,0,13-5.83,13-13V234c0-7.17-5.83-13-13-13H234c-7.17,0-13,5.83-13,13v428.22c0,7.17,5.83,13,13,13h94v10h-94c-12.68,0-23-10.32-23-23V234c0-12.68,10.32-23,23-23H918c12.68,0,23,10.32,23,23v428.22c0,12.68-10.32,23-23,23Z"/>
  <path class="cls-1" d="M398.13,674.82c-5.71,0-7.21-9.16-9.28-21.83-.81-4.96-2.09-12.78-3.44-15.89-1.27,2.73-2.5,9.29-3.28,13.47-2.02,10.77-3.62,19.27-9.26,19.27-6.03,0-7.77-7.63-9.28-16.85l5.92-.97c1.34,8.19,2.48,10.76,3.1,11.55,1.38-2.18,2.77-9.55,3.62-14.11,2.02-10.77,3.62-19.27,9.26-19.27s7.21,9.16,9.28,21.83c.81,4.97,2.09,12.79,3.45,15.9,1.27-2.72,2.51-9.29,3.29-13.48,2.02-10.77,3.62-19.27,9.27-19.27,6.04,0,7.78,7.63,9.29,16.85l-5.92,.97c-1.34-8.21-2.48-10.77-3.11-11.55-1.39,2.17-2.77,9.55-3.63,14.11-2.02,10.77-3.62,19.27-9.27,19.27Z"/>
  <polygon class="cls-1" points="388.83 778.9 388.83 739.71 363.54 767.72 363.54 743.08 369.54 743.08 369.54 752.12 394.83 724.1 394.83 763.29 420.11 735.28 420.11 759.92 414.11 759.92 414.11 750.88 388.83 778.9"/>
</svg>