<svg id="OUTLINES" xmlns="http://www.w3.org/2000/svg" viewBox="0 0 1152 1008"><defs><style>.cls-1{fill:#fff;}.cls-2{fill:#000f7d;}</style></defs><title>checking-active-access</title><rect class="cls-1" x="682.47" y="408" width="228" height="200.88" rx="24"/><rect class="cls-1" x="313.47" y="408" width="228" height="200.88" rx="24"/><path class="cls-2" d="M583.23,652.11c-5-8.24-9.65-16-15-22.14h0l-.06-.06,0,0h0a55,55,0,0,0-41.31-18.34H504.12a24,24,0,0,0,.35-4v-7.56h4a24,24,0,0,0,24-24V527h1a16,16,0,0,0,16-16V488a16,16,0,0,0-16-16h-1V423.06a24,24,0,0,0-24-24h-4V391.5a24,24,0,0,0-.35-4h22.65a55,55,0,0,0,41.32-18.34,105.13,105.13,0,0,1,32.58-24.88,5,5,0,1,0-4.4-9,114.92,114.92,0,0,0-35.67,27.23,44.88,44.88,0,0,1-34,15H499.7a23,23,0,0,0-18.23-9h-126a23,23,0,0,0-18.23,9h-61.9v-13a5,5,0,0,0-5-5H229.52a5,5,0,1,0,0,10h35.82v11.14a4.86,4.86,0,0,0,0,3.72v2.14H229.47a5,5,0,0,0,0,10h35.87v17H229.47a5,5,0,0,0,0,10h35.87v17H229.47a5,5,0,0,0,0,10h35.87v17H229.47a5,5,0,0,0,0,10h35.87v17H229.47a5,5,0,0,0,0,10h35.87v17H229.47a5,5,0,0,0,0,10h35.87v17H229.47a5,5,0,0,0,0,10h35.87v17H229.47a5,5,0,0,0,0,10h35.87v17H229.47a5,5,0,0,0,0,10h35.87v2.14a4.86,4.86,0,0,0,0,3.72V629.5H229.52a5,5,0,1,0,0,10h40.82a5,5,0,0,0,5-5v-13h61.9a23,23,0,0,0,18.23,9h126a23,23,0,0,0,18.23-9h27.07a45,45,0,0,1,33.83,15h0c4.82,5.46,9.3,12.91,14,20.8,5.62,9.33,12,19.92,20.09,28.94a5,5,0,1,0,7.44-6.67C594.74,671.22,588.89,661.5,583.23,652.11ZM533.46,482a6,6,0,0,1,6,6v23a6,6,0,0,1-6,6h-1V482Zm-13-58.94V575.94a12,12,0,0,1-12,12h-180a12,12,0,0,1-12-12V423.06a12,12,0,0,1,12-12h180A12,12,0,0,1,520.47,423.06Zm-165-44.56h126a13,13,0,0,1,10.88,5.91,5.67,5.67,0,0,0,.64,1.09,12.87,12.87,0,0,1,1.48,6v7.56h-152V391.5A13,13,0,0,1,355.47,378.5Zm-80.13,233v-224h57.49a23,23,0,0,0-.36,4v7.56h-4a24,24,0,0,0-24,24V575.94a24,24,0,0,0,24,24h4v7.56a23,23,0,0,0,.36,4Zm206.13,9h-126a13,13,0,0,1-13-13v-7.56h152v7.56a12.87,12.87,0,0,1-1.48,6,5.67,5.67,0,0,0-.64,1.09A13,13,0,0,1,481.47,620.5Z"/><path class="cls-2" d="M395.41,541.38a6,6,0,0,0,8.48,0l75.29-75.28a6,6,0,0,0-8.49-8.48l-71,71-33.4-33.4a6,6,0,0,0-8.48,8.48Z"/><path class="cls-2" d="M902.46,472h-1V423.06a24,24,0,0,0-24-24h-4V171a23,23,0,0,0-23-23h-126a23,23,0,0,0-23,23V399.06h-4a24,24,0,0,0-24,24V575.94a24,24,0,0,0,24,24h4V828a23,23,0,0,0,23,23h126a23,23,0,0,0,23-23V599.94h4a24,24,0,0,0,24-24V527h1a16,16,0,0,0,16-16V488A16,16,0,0,0,902.46,472Zm-191-301a13,13,0,0,1,13-13h126a13,13,0,0,1,13,13V399.06h-152Zm152,657a13,13,0,0,1-13,13h-126a13,13,0,0,1-13-13V599.94h152Zm26-252.06a12,12,0,0,1-12,12h-180a12,12,0,0,1-12-12V423.06a12,12,0,0,1,12-12h180a12,12,0,0,1,12,12Zm19-65a6,6,0,0,1-6,6h-1V482h1a6,6,0,0,1,6,6Z"/><path class="cls-2" d="M829.35,457.62a6,6,0,0,0-8.48,0L787.47,491l-33.4-33.4a6,6,0,0,0-8.48,8.48L779,499.5l-33.4,33.4a6,6,0,1,0,8.48,8.48l33.4-33.4,33.4,33.4a6,6,0,0,0,8.48-8.48L796,499.5l33.39-33.4A6,6,0,0,0,829.35,457.62Z"/></svg>