<svg id="OUTLINES" xmlns="http://www.w3.org/2000/svg" viewBox="0 0 1152 1008"><defs><style>.cls-1{fill:#fff;}.cls-2{fill:#000f7d;}</style></defs><rect class="cls-1" x="362" y="381.98" width="444" height="274" rx="24"/><path class="cls-2" d="M575.79,729.5a23,23,0,1,0-23-23A23,23,0,0,0,575.79,729.5Zm0-36a13,13,0,1,1-13,13A13,13,0,0,1,575.79,693.5Z"/><polygon class="cls-2" points="487.5 280.56 480.84 292.26 474.13 280.56 467.88 280.56 477.82 297.71 477.82 308.19 483.54 308.19 483.54 297.71 493.57 280.56 487.5 280.56"/><path class="cls-2" d="M511.57,298.16a10.67,10.67,0,0,0-2.74-7.61,10.12,10.12,0,0,0-14.22,0,11.84,11.84,0,0,0,0,15.17,10.12,10.12,0,0,0,14.22,0A10.6,10.6,0,0,0,511.57,298.16Zm-6.68,4.16a4,4,0,0,1-6.35,0,7,7,0,0,1-1.14-4.16,7.09,7.09,0,0,1,1.14-4.21,4,4,0,0,1,6.35,0,7,7,0,0,1,1.15,4.21A6.94,6.94,0,0,1,504.89,302.32Z"/><path class="cls-2" d="M527.37,306.35v1.84H533V288.08h-5.63v12.78a3.5,3.5,0,0,1-1.3,2.05,3.76,3.76,0,0,1-2.3.74,3,3,0,0,1-2.43-.95,3.88,3.88,0,0,1-.81-2.61v-12H514.9v13.14a7.63,7.63,0,0,0,1.87,5.4,6.71,6.71,0,0,0,5.2,2A6.93,6.93,0,0,0,527.37,306.35Z"/><path class="cls-2" d="M539.88,280.11a3.5,3.5,0,0,0-2.5,1,3.26,3.26,0,0,0-1,2.45,3.11,3.11,0,0,0,.76,2.16,3.4,3.4,0,0,0,2,1.08l-3.19,5h3.55L542,288a7.4,7.4,0,0,0,1.48-4.05,3.85,3.85,0,0,0-1-2.82A3.45,3.45,0,0,0,539.88,280.11Z"/><polygon class="cls-2" points="554.77 301.44 550.14 288.08 544.29 288.08 551.89 308.19 557.29 308.19 564.94 288.08 559.32 288.08 554.77 301.44"/><path class="cls-2" d="M584.74,301.62h-5.17q-.68,2.52-3.74,2.52a4,4,0,0,1-3.06-1.28,5.57,5.57,0,0,1-1.3-3.53h13.41v-1.71a10.61,10.61,0,0,0-2.41-7.27,8.54,8.54,0,0,0-6.73-2.72,9,9,0,0,0-7,3,11.9,11.9,0,0,0,0,15.12,9.21,9.21,0,0,0,7.06,2.9,9.31,9.31,0,0,0,6-1.87A8,8,0,0,0,584.74,301.62Zm-9-9.45a3.34,3.34,0,0,1,2.61,1.06,4.11,4.11,0,0,1,1,2.72H571.6Q572.37,292.17,575.79,292.17Z"/><path class="cls-2" d="M603.55,306.53a5.8,5.8,0,0,0,2.12,1.48,7,7,0,0,0,2.92.63,8.15,8.15,0,0,0,6.68-3,11.39,11.39,0,0,0,2.45-7.49,11.51,11.51,0,0,0-2.45-7.52,8.14,8.14,0,0,0-6.68-3,7,7,0,0,0-2.92.63,5.8,5.8,0,0,0-2.12,1.48v-10.8h-5.63v29.25h5.63Zm0-11.7a4.07,4.07,0,0,1,1.53-1.69,4.18,4.18,0,0,1,2.25-.65,4.31,4.31,0,0,1,3.51,1.59,6.26,6.26,0,0,1,1.31,4.08,6.14,6.14,0,0,1-1.31,4,4.32,4.32,0,0,1-3.51,1.57,4.17,4.17,0,0,1-3.78-2.34Z"/><path class="cls-2" d="M630,308.64a9.31,9.31,0,0,0,6-1.87,8,8,0,0,0,2.86-5.15h-5.17c-.46,1.68-1.7,2.52-3.74,2.52a4,4,0,0,1-3.06-1.28,5.57,5.57,0,0,1-1.3-3.53h13.41v-1.71a10.61,10.61,0,0,0-2.41-7.27,8.54,8.54,0,0,0-6.73-2.72,9,9,0,0,0-6.95,3,11.9,11.9,0,0,0,0,15.12A9.21,9.21,0,0,0,630,308.64Zm0-16.47a3.35,3.35,0,0,1,2.62,1.06,4.11,4.11,0,0,1,1,2.72h-7.79Q626.54,292.17,630,292.17Z"/><path class="cls-2" d="M660.2,301.62H655q-.67,2.52-3.74,2.52a4,4,0,0,1-3.06-1.28,5.57,5.57,0,0,1-1.3-3.53h13.41v-1.71a10.56,10.56,0,0,0-2.41-7.27,8.52,8.52,0,0,0-6.73-2.72,9,9,0,0,0-7,3,10.81,10.81,0,0,0-2.72,7.54,10.69,10.69,0,0,0,2.7,7.58,9.21,9.21,0,0,0,7.06,2.9,9.35,9.35,0,0,0,6.06-1.87A8,8,0,0,0,660.2,301.62Zm-9-9.45a3.34,3.34,0,0,1,2.61,1.06,4.11,4.11,0,0,1,1,2.72h-7.79Q647.83,292.17,651.25,292.17Z"/><path class="cls-2" d="M674.88,287.63a6.76,6.76,0,0,0-5.41,2.29v-1.84h-5.58v20.11h5.58V295.46a3.5,3.5,0,0,1,1.33-2,3.87,3.87,0,0,1,2.32-.74,3.06,3.06,0,0,1,2.45,1,3.82,3.82,0,0,1,.84,2.59v12H682V295.05a7.67,7.67,0,0,0-1.86-5.4A6.79,6.79,0,0,0,674.88,287.63Z"/><rect class="cls-2" x="492.38" y="333.08" width="5.58" height="20.12"/><path class="cls-2" d="M495.17,324.08a3.34,3.34,0,0,0-2.34.92,3.15,3.15,0,0,0,0,4.57,3.49,3.49,0,0,0,4.68,0,3.18,3.18,0,0,0,0-4.57A3.27,3.27,0,0,0,495.17,324.08Z"/><path class="cls-2" d="M513.8,332.63a6.76,6.76,0,0,0-5.4,2.29v-1.84h-5.58v20.11h5.58V340.46a3.45,3.45,0,0,1,1.33-2,3.82,3.82,0,0,1,2.31-.74,3.09,3.09,0,0,1,2.46,1,3.87,3.87,0,0,1,.83,2.59v12h5.58V340.05a7.63,7.63,0,0,0-1.87-5.4A6.76,6.76,0,0,0,513.8,332.63Z"/><path class="cls-2" d="M533.6,332.63a8.94,8.94,0,0,0-5.69,1.82,7.14,7.14,0,0,0-2.77,4.61h5.31a2.86,2.86,0,0,1,3-1.89,3.19,3.19,0,0,1,2.45.88,3.08,3.08,0,0,1,.83,2.23v1.48a6.34,6.34,0,0,0-2-.81,10.12,10.12,0,0,0-2.61-.36,8.53,8.53,0,0,0-5.55,1.8,5.69,5.69,0,0,0-2.23,4.64,5.83,5.83,0,0,0,2.14,4.77,8.11,8.11,0,0,0,5.33,1.75,9.62,9.62,0,0,0,3-.45,4.93,4.93,0,0,0,1.93-1v1.08h5.36V340.37a7.35,7.35,0,0,0-2.23-5.7A8.87,8.87,0,0,0,533.6,332.63Zm3.1,15.07a2.63,2.63,0,0,1-1.37,1.29,5.36,5.36,0,0,1-2.27.47,4.76,4.76,0,0,1-2.52-.63,2.15,2.15,0,0,1,0-3.69,4.81,4.81,0,0,1,2.5-.63,5.36,5.36,0,0,1,2.27.47,2.58,2.58,0,0,1,1.37,1.28Z"/><path class="cls-2" d="M555,337.4a3.68,3.68,0,0,1,2.23.65,2.87,2.87,0,0,1,1.1,1.82h5.49a8.05,8.05,0,0,0-2.79-5.26,10,10,0,0,0-13,.94,12,12,0,0,0,0,15.17,10,10,0,0,0,13,.94,8.07,8.07,0,0,0,2.77-5.26h-5.49a2.85,2.85,0,0,1-1.1,1.82,3.62,3.62,0,0,1-2.23.65,3.53,3.53,0,0,1-3-1.57,7,7,0,0,1-1.12-4.14A7.07,7.07,0,0,1,552,339,3.53,3.53,0,0,1,555,337.4Z"/><path class="cls-2" d="M574.19,346.4v-8.82h4.41v-4.5h-4.41v-5.45h-5.54v5.45h-3.06v4.5h3.06v9.54a6.3,6.3,0,0,0,1.76,4.86,7,7,0,0,0,4.9,1.62,7.89,7.89,0,0,0,3.6-.63v-5a4.35,4.35,0,0,1-2.43.67A2,2,0,0,1,574.19,346.4Z"/><path class="cls-2" d="M585.75,324.08a3.34,3.34,0,0,0-2.34.92,3,3,0,0,0-1,2.27,3,3,0,0,0,1,2.3,3.34,3.34,0,0,0,2.36.9,3.3,3.3,0,0,0,2.32-.9,3.18,3.18,0,0,0,0-4.57A3.27,3.27,0,0,0,585.75,324.08Z"/><rect class="cls-2" x="582.96" y="333.08" width="5.58" height="20.12"/><polygon class="cls-2" points="602.04 346.44 597.41 333.08 591.56 333.08 599.16 353.19 604.56 353.19 612.21 333.08 606.59 333.08 602.04 346.44"/><path class="cls-2" d="M623,332.63a9,9,0,0,0-7,3,10.81,10.81,0,0,0-2.72,7.54,10.69,10.69,0,0,0,2.7,7.58,9.21,9.21,0,0,0,7.06,2.9,9.35,9.35,0,0,0,6.06-1.87,8,8,0,0,0,2.85-5.15h-5.17q-.68,2.52-3.74,2.52a4,4,0,0,1-3.06-1.28,5.57,5.57,0,0,1-1.3-3.53h13.41v-1.71a10.61,10.61,0,0,0-2.41-7.27A8.54,8.54,0,0,0,623,332.63ZM618.87,341q.76-3.78,4.19-3.78a3.34,3.34,0,0,1,2.61,1.06,4.11,4.11,0,0,1,1,2.72Z"/><path class="cls-2" d="M638,346.35a3.38,3.38,0,0,0-2.5,1,3.45,3.45,0,0,0-1,2.54,3.53,3.53,0,0,0,1,2.56,3.52,3.52,0,0,0,5,0,3.53,3.53,0,0,0,1-2.56,3.45,3.45,0,0,0-1-2.54A3.39,3.39,0,0,0,638,346.35Z"/><path class="cls-2" d="M647.45,346.35a3.38,3.38,0,0,0-2.5,1,3.41,3.41,0,0,0-1,2.54,3.49,3.49,0,0,0,1,2.56,3.51,3.51,0,0,0,5,0,3.5,3.5,0,0,0,1-2.56,3.42,3.42,0,0,0-1-2.54A3.36,3.36,0,0,0,647.45,346.35Z"/><path class="cls-2" d="M656.9,346.35a3.38,3.38,0,0,0-2.5,1,3.41,3.41,0,0,0-1,2.54,3.49,3.49,0,0,0,1,2.56,3.51,3.51,0,0,0,5,0,3.5,3.5,0,0,0,1-2.56,3.42,3.42,0,0,0-1-2.54A3.36,3.36,0,0,0,656.9,346.35Z"/><path class="cls-2" d="M434.29,427.7l-5-1.17q-3.11-.72-3.1-3a2.76,2.76,0,0,1,1.19-2.36,5.18,5.18,0,0,1,3.17-.88q4,0,5.09,3.28h5.71a9.46,9.46,0,0,0-3.49-5.82,11.49,11.49,0,0,0-7.35-2.19,10.64,10.64,0,0,0-7.16,2.39,7.69,7.69,0,0,0-2.79,6.12q0,6,7,7.56l4.95,1.12a5.76,5.76,0,0,1,2.59,1.13,2.57,2.57,0,0,1,.79,2,3,3,0,0,1-1.26,2.54,5.57,5.57,0,0,1-3.38.92q-4.37,0-5.49-3.55H419.8a9.31,9.31,0,0,0,3.78,6.12,12.84,12.84,0,0,0,7.7,2.2,11.33,11.33,0,0,0,7.38-2.34,7.64,7.64,0,0,0,2.88-6.25Q441.54,429.37,434.29,427.7Z"/><path class="cls-2" d="M447.93,414.52a3.34,3.34,0,0,0-2.34.92,3,3,0,0,0-1,2.27,3,3,0,0,0,1,2.3,3.37,3.37,0,0,0,2.37.9,3.26,3.26,0,0,0,2.31-.9,3.18,3.18,0,0,0,0-4.57A3.23,3.23,0,0,0,447.93,414.52Z"/><rect class="cls-2" x="445.14" y="423.52" width="5.58" height="20.12"/><path class="cls-2" d="M468.4,425.09a6.2,6.2,0,0,0-4.95-2,8.27,8.27,0,0,0-6.66,2.92,11.54,11.54,0,0,0,0,14.27,8.27,8.27,0,0,0,6.66,2.92,6.05,6.05,0,0,0,4.95-2.07v1.17q0,4.91-4.32,4.91-3.29,0-4-2.84h-5.4a7.55,7.55,0,0,0,2.95,5.27,10.32,10.32,0,0,0,6.41,1.89,10,10,0,0,0,7.16-2.55q2.7-2.54,2.7-7.53V423.52H468.4Zm0,11.3a4.49,4.49,0,0,1-1.55,1.51,4.63,4.63,0,0,1-5.69-.9,5.9,5.9,0,0,1-1.26-3.9,5.78,5.78,0,0,1,1.26-3.87,4.29,4.29,0,0,1,3.46-1.48,4.14,4.14,0,0,1,3.78,2.07Z"/><path class="cls-2" d="M489.78,423.07a6.76,6.76,0,0,0-5.4,2.29v-1.84H478.8v20.11h5.58V430.9a3.48,3.48,0,0,1,1.32-2,3.87,3.87,0,0,1,2.32-.74,3,3,0,0,1,2.45,1,3.78,3.78,0,0,1,.84,2.58v12h5.58V430.49a7.68,7.68,0,0,0-1.87-5.4A6.77,6.77,0,0,0,489.78,423.07Z"/><path class="cls-2" d="M504.31,420.91a3.3,3.3,0,0,0,2.32-.9,3.18,3.18,0,0,0,0-4.57,3.27,3.27,0,0,0-2.32-.92,3.34,3.34,0,0,0-2.34.92,3.15,3.15,0,0,0,0,4.57A3.33,3.33,0,0,0,504.31,420.91Z"/><rect class="cls-2" x="501.52" y="423.52" width="5.58" height="20.12"/><path class="cls-2" d="M517.54,430.9a3.45,3.45,0,0,1,1.33-2,3.84,3.84,0,0,1,2.32-.74,3,3,0,0,1,2.45,1,3.83,3.83,0,0,1,.83,2.58v12h5.58V430.49a7.63,7.63,0,0,0-1.87-5.4,7.65,7.65,0,0,0-10.64.27v-1.84H512v20.11h5.58Z"/><path class="cls-2" d="M542.56,443.18a6.05,6.05,0,0,0,5-2.07v1.17q0,4.91-4.32,4.91-3.29,0-4-2.84h-5.4a7.55,7.55,0,0,0,2.95,5.27,10.32,10.32,0,0,0,6.41,1.89,10,10,0,0,0,7.15-2.55q2.7-2.54,2.7-7.53V423.52h-5.53v1.57a6.2,6.2,0,0,0-5-2A8.27,8.27,0,0,0,535.9,426a11.5,11.5,0,0,0,0,14.27A8.27,8.27,0,0,0,542.56,443.18Zm-2.3-13.95a4.31,4.31,0,0,1,3.47-1.48,4.14,4.14,0,0,1,3.78,2.07v6.57A4.49,4.49,0,0,1,546,437.9a4.64,4.64,0,0,1-5.7-.9,5.9,5.9,0,0,1-1.26-3.9A5.78,5.78,0,0,1,540.26,429.23Z"/><polygon class="cls-2" points="570.37 451.06 575.86 451.06 586.35 423.52 580.72 423.52 576.13 436.88 571.5 423.52 565.6 423.52 573.29 443.72 570.37 451.06"/><path class="cls-2" d="M597.33,444.08a9.3,9.3,0,0,0,7.1-2.92,11.84,11.84,0,0,0,0-15.17,10.12,10.12,0,0,0-14.22,0,11.87,11.87,0,0,0,0,15.17A9.33,9.33,0,0,0,597.33,444.08Zm-3.18-14.69a4,4,0,0,1,6.35,0,7.11,7.11,0,0,1,1.14,4.21,7,7,0,0,1-1.14,4.16,4,4,0,0,1-6.35,0A7,7,0,0,1,593,433.6,7.11,7.11,0,0,1,594.15,429.39Z"/><path class="cls-2" d="M617.57,444.08a6.93,6.93,0,0,0,5.4-2.29v1.84h5.58V423.52h-5.62V436.3a3.52,3.52,0,0,1-1.31,2.05,3.74,3.74,0,0,1-2.29.74,3,3,0,0,1-2.43-.95,3.88,3.88,0,0,1-.81-2.61v-12h-5.58v13.14a7.63,7.63,0,0,0,1.87,5.4A6.69,6.69,0,0,0,617.57,444.08Z"/><path class="cls-2" d="M651.5,423.07a9.3,9.3,0,0,0-7.11,2.92,11.87,11.87,0,0,0,0,15.17,10.12,10.12,0,0,0,14.22,0,11.84,11.84,0,0,0,0-15.17A9.3,9.3,0,0,0,651.5,423.07Zm3.18,14.69a4,4,0,0,1-6.35,0,7,7,0,0,1-1.15-4.16,7.11,7.11,0,0,1,1.15-4.21,4,4,0,0,1,6.35,0,7.11,7.11,0,0,1,1.14,4.21A7,7,0,0,1,654.68,437.76Z"/><path class="cls-2" d="M681.52,415.87a7,7,0,0,0-1.94,5.26v2.39H672v-1.85a2.63,2.63,0,0,1,.74-2,2.83,2.83,0,0,1,2-.7,3.36,3.36,0,0,1,2,.54v-4.72a7.66,7.66,0,0,0-3.1-.54,7.1,7.1,0,0,0-5.18,1.89,7,7,0,0,0-1.93,5.26v2.12H663.2V428h3.29v15.61H672V428h7.6v15.61h5.49V428h4.19v-4.5h-4.19v-2a2.55,2.55,0,0,1,2.75-2.79,3.36,3.36,0,0,1,2,.54v-4.72a7.71,7.71,0,0,0-3.11-.54A7.08,7.08,0,0,0,681.52,415.87Z"/><path class="cls-2" d="M705,414.52a3.34,3.34,0,0,0-2.34.92,3.15,3.15,0,0,0,0,4.57,3.49,3.49,0,0,0,4.68,0,3.2,3.2,0,0,0,0-4.57A3.27,3.27,0,0,0,705,414.52Z"/><rect class="cls-2" x="702.22" y="423.52" width="5.58" height="20.12"/><path class="cls-2" d="M723.64,423.07a6.76,6.76,0,0,0-5.4,2.29v-1.84h-5.58v20.11h5.58V430.9a3.45,3.45,0,0,1,1.33-2,3.82,3.82,0,0,1,2.31-.74,3,3,0,0,1,2.45,1,3.78,3.78,0,0,1,.84,2.58v12h5.58V430.49a7.68,7.68,0,0,0-1.87-5.4A6.77,6.77,0,0,0,723.64,423.07Z"/><path class="cls-2" d="M528.47,493.17a12.39,12.39,0,0,1,9.73-4q6,0,9.59,3.36a11.55,11.55,0,0,1,3.57,8.82,14,14,0,0,1-.21,2.45,9.81,9.81,0,0,1-.84,2.52c-.42.89-.82,1.71-1.19,2.45a20.42,20.42,0,0,1-1.68,2.66L545.55,514c-.52.7-1.29,1.64-2.31,2.8s-1.85,2.1-2.45,2.8-1.54,1.75-2.8,3.15-2.22,2.43-2.87,3.08l-25.48,28.28v9.52H566.9V550.92H529.52L548,530.34c.37-.46,1.33-1.54,2.87-3.22l3-3.29c.46-.51,1.3-1.51,2.52-3s2.05-2.59,2.52-3.29,1.16-1.7,2.1-3a18.38,18.38,0,0,0,2-3.29q.56-1.32,1.26-3.15a18.7,18.7,0,0,0,1-3.5,21.16,21.16,0,0,0,.28-3.36q0-11.48-7.21-18.2T538.2,476.3q-11.91,0-19.67,7.49t-9,19.67h15A16.58,16.58,0,0,1,528.47,493.17Z"/><path class="cls-2" d="M641.38,520.68q0-19.74-9-32.06T608.89,476.3q-14.55,0-23.51,12.32t-9,32.06q0,19.74,9,32.06t23.51,12.32q14.57,0,23.53-12.32T641.38,520.68Zm-18.84,22.75q-4.54,8.48-13.65,8.47t-13.79-8.47q-4.54-8.46-4.55-22.75t4.55-22.75q4.56-8.46,13.79-8.47t13.65,8.47q4.56,8.47,4.55,22.75T622.54,543.43Z"/><path class="cls-2" d="M514.26,596.26l-4.14-.94c-1.2-.3-1.8-.83-1.8-1.58a1.56,1.56,0,0,1,.78-1.39,3.46,3.46,0,0,1,1.87-.5q2.52,0,3.15,2h5.31a7.12,7.12,0,0,0-2.68-4.56,9.37,9.37,0,0,0-5.87-1.65,8.86,8.86,0,0,0-5.71,1.83,5.73,5.73,0,0,0-2.3,4.7q0,4.46,5.22,5.67l4.05.9a4.16,4.16,0,0,1,1.55.65,1.29,1.29,0,0,1,.48,1.06c0,1.32-.95,2-2.84,2s-2.92-.74-3.37-2.21h-5.54a6.76,6.76,0,0,0,2.84,4.75,10.32,10.32,0,0,0,6.12,1.69,9.5,9.5,0,0,0,5.91-1.76,5.65,5.65,0,0,0,2.32-4.77Q519.61,597.57,514.26,596.26Z"/><path class="cls-2" d="M531.81,587.62a9,9,0,0,0-7,3,11.9,11.9,0,0,0,0,15.12,9.23,9.23,0,0,0,7.07,2.9,9.32,9.32,0,0,0,6.05-1.87,8,8,0,0,0,2.86-5.15h-5.18q-.68,2.52-3.73,2.52a4,4,0,0,1-3.06-1.28,5.6,5.6,0,0,1-1.31-3.54h13.41v-1.71a10.52,10.52,0,0,0-2.41-7.26A8.48,8.48,0,0,0,531.81,587.62ZM527.67,596q.76-3.78,4.18-3.78a3.31,3.31,0,0,1,2.61,1.06,4.09,4.09,0,0,1,1,2.72Z"/><path class="cls-2" d="M553.09,592.39a3.62,3.62,0,0,1,2.23.66,2.85,2.85,0,0,1,1.1,1.82h5.49a8.08,8.08,0,0,0-2.79-5.27,9.94,9.94,0,0,0-13,.95,12,12,0,0,0,0,15.16,10,10,0,0,0,13,.95,8.1,8.1,0,0,0,2.77-5.27h-5.49a2.9,2.9,0,0,1-1.1,1.83,3.68,3.68,0,0,1-2.23.65,3.51,3.51,0,0,1-3-1.58,8.22,8.22,0,0,1,0-8.32A3.51,3.51,0,0,1,553.09,592.39Z"/><path class="cls-2" d="M574,587.62a9.31,9.31,0,0,0-7.11,2.93,11.85,11.85,0,0,0,0,15.16,10.09,10.09,0,0,0,14.22,0,11.82,11.82,0,0,0,0-15.16A9.31,9.31,0,0,0,574,587.62Zm3.17,14.7a4,4,0,0,1-6.34,0,8.19,8.19,0,0,1,0-8.37,3.94,3.94,0,0,1,6.34,0,8.19,8.19,0,0,1,0,8.37Z"/><path class="cls-2" d="M598.36,587.62a6.76,6.76,0,0,0-5.4,2.3v-1.85h-5.58v20.12H593V595.45a3.4,3.4,0,0,1,1.33-2,3.77,3.77,0,0,1,2.32-.75,3.08,3.08,0,0,1,2.45,1,3.87,3.87,0,0,1,.83,2.59v12h5.58V595.05a7.63,7.63,0,0,0-1.87-5.4A6.77,6.77,0,0,0,598.36,587.62Z"/><path class="cls-2" d="M623,589.74a5.94,5.94,0,0,0-2.11-1.49,7.08,7.08,0,0,0-2.93-.63,8.15,8.15,0,0,0-6.68,3,12.68,12.68,0,0,0,0,15,8.18,8.18,0,0,0,6.68,3,7.08,7.08,0,0,0,2.93-.63,5.94,5.94,0,0,0,2.11-1.49v1.67h5.62V578.94H623Zm0,11.7a4.17,4.17,0,0,1-3.78,2.34,4.33,4.33,0,0,1-3.51-1.58,6.14,6.14,0,0,1-1.31-4.05,6.23,6.23,0,0,1,1.31-4.07,4.31,4.31,0,0,1,3.51-1.6,4.1,4.1,0,0,1,2.25.66,4,4,0,0,1,1.53,1.68Z"/><path class="cls-2" d="M644,596.26l-4.14-.94c-1.2-.3-1.8-.83-1.8-1.58a1.55,1.55,0,0,1,.79-1.39,3.4,3.4,0,0,1,1.86-.5q2.52,0,3.15,2h5.31a7.15,7.15,0,0,0-2.67-4.56,9.42,9.42,0,0,0-5.88-1.65,8.86,8.86,0,0,0-5.71,1.83,5.73,5.73,0,0,0-2.3,4.7q0,4.46,5.22,5.67l4,.9a4.3,4.3,0,0,1,1.56.65,1.31,1.31,0,0,1,.47,1.06c0,1.32-.95,2-2.84,2s-2.92-.74-3.37-2.21h-5.54A6.76,6.76,0,0,0,635,607a10.32,10.32,0,0,0,6.12,1.69,9.55,9.55,0,0,0,5.92-1.76,5.67,5.67,0,0,0,2.31-4.77Q649.34,597.57,644,596.26Z"/><path class="cls-2" d="M774,374.45H724.79V270a23,23,0,0,0-23-23h-252a23,23,0,0,0-23,23V374.45H378a24,24,0,0,0-24,24v226a24,24,0,0,0,24,24h48.79V738a23,23,0,0,0,23,23h252a23,23,0,0,0,23-23V648.45H774a24,24,0,0,0,24-24v-226A24,24,0,0,0,774,374.45ZM436.79,270a13,13,0,0,1,13-13h252a13,13,0,0,1,13,13V374.45h-278Zm278,468a13,13,0,0,1-13,13h-252a13,13,0,0,1-13-13V648.45h278ZM786,624.45a12,12,0,0,1-12,12H378a12,12,0,0,1-12-12v-226a12,12,0,0,1,12-12H774a12,12,0,0,1,12,12Z"/></svg>