<?xml version="1.0" encoding="UTF-8"?>
<svg id="OUTLINES" xmlns="http://www.w3.org/2000/svg" viewBox="0 0 1152 1008">
  <defs>
    <style>
      .cls-1 {
        fill: #000f7d;
      }

      .cls-2 {
        fill: #fff;
      }
    </style>
  </defs>
  <rect class="cls-2" x="264" y="534" width="642" height="138"/>
  <g>
    <path class="cls-1" d="M332.33,486h-5.48l-9.58-25.26v25.26h-7.56v-38.68h9.58l10.33,27.28,10.27-27.28h9.45v38.68h-7.62v-25.26l-9.39,25.26Z"/>
    <path class="cls-1" d="M382.29,471.95c0,4.33-1.28,7.85-3.84,10.58s-5.88,4.09-9.95,4.09-7.39-1.36-9.95-4.09c-2.56-2.73-3.84-6.26-3.84-10.58s1.28-7.92,3.84-10.65c2.56-2.73,5.88-4.09,9.95-4.09s7.39,1.37,9.95,4.09c2.56,2.73,3.84,6.28,3.84,10.65Zm-7.75,0c0-2.44-.54-4.4-1.61-5.89-1.07-1.49-2.55-2.24-4.44-2.24s-3.37,.75-4.44,2.24c-1.07,1.49-1.61,3.46-1.61,5.89s.54,4.34,1.61,5.83c1.07,1.49,2.55,2.24,4.44,2.24s3.37-.74,4.44-2.24c1.07-1.49,1.61-3.43,1.61-5.83Z"/>
    <path class="cls-1" d="M405.6,486v-2.33c-.67,.8-1.66,1.49-2.96,2.08-1.3,.59-2.67,.88-4.1,.88-3.95,0-7.07-1.39-9.36-4.19-2.29-2.79-3.43-6.29-3.43-10.49s1.14-7.71,3.43-10.52,5.41-4.22,9.36-4.22c1.43,0,2.79,.29,4.1,.88,1.3,.59,2.29,1.28,2.96,2.08v-15.12h7.88v40.95h-7.88Zm0-9.45v-9.26c-.46-.97-1.18-1.75-2.14-2.36-.97-.61-2.02-.91-3.15-.91-2.06,0-3.7,.75-4.91,2.24-1.22,1.49-1.83,3.39-1.83,5.7s.61,4.2,1.83,5.67c1.22,1.47,2.86,2.21,4.91,2.21,1.17,0,2.24-.3,3.18-.91,.95-.61,1.65-1.4,2.11-2.36Z"/>
    <path class="cls-1" d="M437.35,476.8h7.25c-.5,3.07-1.84,5.47-4,7.21s-4.99,2.61-8.47,2.61c-4.07,0-7.37-1.35-9.89-4.06-2.52-2.71-3.78-6.25-3.78-10.62s1.27-7.76,3.81-10.55,5.79-4.19,9.73-4.19,7.17,1.27,9.42,3.81c2.25,2.54,3.37,5.93,3.37,10.18v2.39h-18.77c.13,2.1,.73,3.75,1.83,4.95,1.09,1.2,2.52,1.8,4.28,1.8,2.86,0,4.6-1.18,5.23-3.53Zm-5.29-13.23c-3.19,0-5.15,1.76-5.86,5.29h10.9c-.04-1.55-.5-2.82-1.39-3.81-.88-.99-2.1-1.48-3.65-1.48Z"/>
    <path class="cls-1" d="M457.58,445.05v40.95h-7.81v-40.95h7.81Z"/>
    <path class="cls-1" d="M490.08,447.32h8l14.8,38.68h-8.19l-3.46-9.32h-14.49l-3.4,9.32h-8.06l14.8-38.68Zm3.91,9.7l-4.73,12.85h9.45l-4.72-12.85Z"/>
  </g>
  <g>
    <path class="cls-1" d="M267.93,274.05c-3.4-3.72-5.1-8.51-5.1-14.4s1.7-10.68,5.1-14.4c3.4-3.72,7.71-5.58,12.92-5.58,4.45,0,8.07,1.19,10.87,3.56,2.79,2.37,4.57,5.56,5.32,9.54h-8c-1.47-3.95-4.2-5.92-8.19-5.92-3.02,0-5.42,1.19-7.18,3.56-1.76,2.37-2.65,5.45-2.65,9.23s.88,6.8,2.65,9.2c1.76,2.39,4.16,3.59,7.18,3.59,3.99,0,6.72-1.99,8.19-5.99h8c-.76,4.03-2.53,7.24-5.32,9.61-2.79,2.37-6.42,3.56-10.87,3.56-5.21,0-9.51-1.86-12.92-5.58Z"/>
    <path class="cls-1" d="M302.14,279v-40.95h7.81v15.37c1.85-2.14,4.37-3.21,7.56-3.21s5.6,.95,7.34,2.83c1.74,1.89,2.61,4.41,2.61,7.56v18.4h-7.81v-16.76c0-1.51-.39-2.72-1.17-3.62-.78-.9-1.92-1.35-3.43-1.35-1.22,0-2.3,.35-3.25,1.04-.94,.69-1.56,1.65-1.86,2.87v17.83h-7.81Z"/>
    <path class="cls-1" d="M359.78,264.95c0,4.33-1.28,7.85-3.84,10.58-2.56,2.73-5.88,4.09-9.95,4.09s-7.39-1.36-9.95-4.09c-2.56-2.73-3.84-6.26-3.84-10.58s1.28-7.92,3.84-10.65c2.56-2.73,5.88-4.09,9.95-4.09s7.39,1.37,9.95,4.09c2.56,2.73,3.84,6.28,3.84,10.65Zm-7.75,0c0-2.44-.54-4.4-1.61-5.89-1.07-1.49-2.55-2.24-4.44-2.24s-3.37,.75-4.44,2.24c-1.07,1.49-1.61,3.46-1.61,5.89s.54,4.34,1.61,5.83c1.07,1.49,2.55,2.24,4.44,2.24s3.37-.75,4.44-2.24c1.07-1.49,1.61-3.43,1.61-5.83Z"/>
    <path class="cls-1" d="M390.84,264.95c0,4.33-1.28,7.85-3.84,10.58-2.56,2.73-5.88,4.09-9.95,4.09s-7.39-1.36-9.95-4.09c-2.56-2.73-3.84-6.26-3.84-10.58s1.28-7.92,3.84-10.65c2.56-2.73,5.88-4.09,9.95-4.09s7.39,1.37,9.95,4.09c2.56,2.73,3.84,6.28,3.84,10.65Zm-7.75,0c0-2.44-.54-4.4-1.61-5.89-1.07-1.49-2.55-2.24-4.44-2.24s-3.37,.75-4.44,2.24c-1.07,1.49-1.61,3.46-1.61,5.89s.54,4.34,1.61,5.83c1.07,1.49,2.55,2.24,4.44,2.24s3.37-.75,4.44-2.24c1.07-1.49,1.61-3.43,1.61-5.83Z"/>
    <path class="cls-1" d="M394.05,270.62h7.75c.63,2.06,2.21,3.09,4.72,3.09,2.65,0,3.97-.92,3.97-2.77,0-.63-.22-1.12-.66-1.48-.44-.36-1.17-.66-2.17-.91l-5.67-1.26c-4.87-1.13-7.31-3.78-7.31-7.94,0-2.69,1.07-4.88,3.21-6.58s4.81-2.55,8-2.55c3.49,0,6.23,.77,8.22,2.3,1.99,1.53,3.24,3.66,3.75,6.39h-7.43c-.59-1.85-2.06-2.77-4.41-2.77-1.01,0-1.88,.23-2.61,.69-.74,.46-1.1,1.11-1.1,1.95,0,1.05,.84,1.79,2.52,2.21l5.8,1.32c5,1.22,7.5,3.95,7.5,8.19,0,2.81-1.08,5.04-3.24,6.68-2.16,1.64-4.92,2.46-8.28,2.46s-6.34-.79-8.57-2.36c-2.23-1.58-3.55-3.79-3.97-6.65Z"/>
    <path class="cls-1" d="M440.55,269.8h7.25c-.5,3.07-1.84,5.47-4,7.21-2.16,1.74-4.99,2.61-8.47,2.61-4.07,0-7.37-1.35-9.89-4.06-2.52-2.71-3.78-6.25-3.78-10.62s1.27-7.76,3.81-10.55c2.54-2.79,5.79-4.19,9.73-4.19s7.17,1.27,9.42,3.81c2.25,2.54,3.37,5.93,3.37,10.17v2.39h-18.77c.13,2.1,.73,3.75,1.83,4.95,1.09,1.2,2.52,1.8,4.28,1.8,2.86,0,4.6-1.18,5.23-3.53Zm-5.29-13.23c-3.19,0-5.15,1.76-5.86,5.29h10.9c-.04-1.55-.5-2.82-1.39-3.81-.88-.99-2.1-1.48-3.65-1.48Z"/>
    <path class="cls-1" d="M468.01,270.5v-13.36h-4.28v-6.3h4.28v-7.62h7.75v7.62h6.17v6.3h-6.17v12.35c0,2.14,1.07,3.21,3.21,3.21,1.3,0,2.43-.32,3.4-.95v6.93c-1.09,.59-2.77,.88-5.04,.88-2.94,0-5.23-.76-6.87-2.27-1.64-1.51-2.46-3.78-2.46-6.8Z"/>
    <path class="cls-1" d="M488.05,279v-40.95h7.81v15.37c1.85-2.14,4.37-3.21,7.56-3.21s5.6,.95,7.34,2.83c1.74,1.89,2.61,4.41,2.61,7.56v18.4h-7.81v-16.76c0-1.51-.39-2.72-1.17-3.62-.78-.9-1.92-1.35-3.43-1.35-1.22,0-2.3,.35-3.25,1.04-.94,.69-1.56,1.65-1.86,2.87v17.83h-7.81Z"/>
    <path class="cls-1" d="M537,269.8h7.25c-.5,3.07-1.84,5.47-4,7.21-2.16,1.74-4.99,2.61-8.47,2.61-4.07,0-7.37-1.35-9.89-4.06-2.52-2.71-3.78-6.25-3.78-10.62s1.27-7.76,3.81-10.55c2.54-2.79,5.79-4.19,9.73-4.19s7.17,1.27,9.42,3.81c2.25,2.54,3.37,5.93,3.37,10.17v2.39h-18.77c.13,2.1,.73,3.75,1.83,4.95,1.09,1.2,2.52,1.8,4.28,1.8,2.86,0,4.6-1.18,5.23-3.53Zm-5.29-13.23c-3.19,0-5.15,1.76-5.86,5.29h10.9c-.04-1.55-.5-2.82-1.39-3.81-.88-.99-2.1-1.48-3.65-1.48Z"/>
    <path class="cls-1" d="M585.25,253.8c2.18-2.39,5.02-3.59,8.51-3.59,2.9,0,5.17,.94,6.8,2.8,1.64,1.87,2.46,4.4,2.46,7.59v18.4h-7.81v-16.76c0-1.55-.35-2.78-1.04-3.69-.69-.9-1.69-1.35-2.99-1.35-1.05,0-1.97,.31-2.77,.95-.8,.63-1.32,1.53-1.58,2.71v18.14h-7.88v-16.76c0-3.36-1.32-5.04-3.97-5.04-1.05,0-1.98,.33-2.8,.98-.82,.65-1.35,1.54-1.61,2.68v18.14h-7.81v-28.16h7.81v2.33c1.55-1.97,3.93-2.96,7.12-2.96s5.75,1.2,7.56,3.59Z"/>
    <path class="cls-1" d="M635.34,264.95c0,4.33-1.28,7.85-3.84,10.58-2.56,2.73-5.88,4.09-9.95,4.09s-7.39-1.36-9.95-4.09c-2.56-2.73-3.84-6.26-3.84-10.58s1.28-7.92,3.84-10.65c2.56-2.73,5.88-4.09,9.95-4.09s7.39,1.37,9.95,4.09c2.56,2.73,3.84,6.28,3.84,10.65Zm-7.75,0c0-2.44-.54-4.4-1.61-5.89-1.07-1.49-2.55-2.24-4.44-2.24s-3.37,.75-4.44,2.24c-1.07,1.49-1.61,3.46-1.61,5.89s.54,4.34,1.61,5.83c1.07,1.49,2.55,2.24,4.44,2.24s3.37-.75,4.44-2.24c1.07-1.49,1.61-3.43,1.61-5.83Z"/>
    <path class="cls-1" d="M658.65,279v-2.33c-.67,.8-1.66,1.49-2.96,2.08-1.3,.59-2.67,.88-4.1,.88-3.95,0-7.07-1.4-9.36-4.19-2.29-2.79-3.43-6.29-3.43-10.49s1.14-7.71,3.43-10.52c2.29-2.81,5.41-4.22,9.36-4.22,1.43,0,2.79,.29,4.1,.88,1.3,.59,2.29,1.28,2.96,2.08v-15.12h7.88v40.95h-7.88Zm0-9.45v-9.26c-.46-.97-1.18-1.75-2.14-2.36-.97-.61-2.02-.91-3.15-.91-2.06,0-3.7,.75-4.91,2.24-1.22,1.49-1.83,3.39-1.83,5.7s.61,4.2,1.83,5.67c1.22,1.47,2.86,2.21,4.91,2.21,1.17,0,2.24-.3,3.18-.91,.95-.61,1.65-1.4,2.11-2.36Z"/>
    <path class="cls-1" d="M690.4,269.8h7.25c-.5,3.07-1.84,5.47-4,7.21-2.16,1.74-4.99,2.61-8.47,2.61-4.07,0-7.37-1.35-9.89-4.06-2.52-2.71-3.78-6.25-3.78-10.62s1.27-7.76,3.81-10.55c2.54-2.79,5.79-4.19,9.73-4.19s7.17,1.27,9.42,3.81c2.25,2.54,3.37,5.93,3.37,10.17v2.39h-18.77c.13,2.1,.73,3.75,1.83,4.95,1.09,1.2,2.52,1.8,4.28,1.8,2.86,0,4.6-1.18,5.23-3.53Zm-5.29-13.23c-3.19,0-5.15,1.76-5.86,5.29h10.9c-.04-1.55-.5-2.82-1.39-3.81-.88-.99-2.1-1.48-3.65-1.48Z"/>
    <path class="cls-1" d="M710.62,238.05v40.95h-7.81v-40.95h7.81Z"/>
    <path class="cls-1" d="M276.18,357.39h-7.69l4.09-10.27-10.77-28.29h8.25l6.49,18.71,6.43-18.71h7.88l-14.68,38.56Z"/>
    <path class="cls-1" d="M320.03,332.95c0,4.33-1.28,7.85-3.84,10.58-2.56,2.73-5.88,4.09-9.95,4.09s-7.39-1.36-9.95-4.09c-2.56-2.73-3.84-6.26-3.84-10.58s1.28-7.92,3.84-10.65c2.56-2.73,5.88-4.09,9.95-4.09s7.39,1.37,9.95,4.09c2.56,2.73,3.84,6.28,3.84,10.65Zm-7.75,0c0-2.44-.54-4.4-1.61-5.89-1.07-1.49-2.55-2.24-4.44-2.24s-3.37,.75-4.44,2.24c-1.07,1.49-1.61,3.46-1.61,5.89s.54,4.34,1.61,5.83c1.07,1.49,2.55,2.24,4.44,2.24s3.37-.75,4.44-2.24c1.07-1.49,1.61-3.43,1.61-5.83Z"/>
    <path class="cls-1" d="M349.96,318.84v28.16h-7.81v-2.58c-1.93,2.14-4.45,3.21-7.56,3.21s-5.53-.95-7.28-2.83c-1.74-1.89-2.61-4.41-2.61-7.56v-18.4h7.81v16.82c0,1.55,.38,2.77,1.13,3.65,.76,.88,1.89,1.32,3.4,1.32,1.22,0,2.29-.35,3.21-1.04,.92-.69,1.53-1.65,1.83-2.87v-17.89h7.88Z"/>
    <path class="cls-1" d="M390.91,318.84l4.66,17.96,5.04-17.96h7.56l-8.57,28.16h-7.18l-4.6-17.26-4.6,17.26h-7.18l-8.57-28.16h7.81l5.04,17.96,4.6-17.96h5.99Z"/>
    <path class="cls-1" d="M434.75,347h-7.5v-1.51c-.5,.5-1.41,.97-2.71,1.39-1.3,.42-2.69,.63-4.16,.63-2.98,0-5.47-.82-7.47-2.46-2-1.64-2.99-3.86-2.99-6.68,0-2.65,1.04-4.81,3.12-6.49,2.08-1.68,4.67-2.52,7.78-2.52,1.18,0,2.39,.17,3.65,.5s2.18,.71,2.77,1.13v-2.08c0-1.26-.39-2.3-1.17-3.12-.78-.82-1.92-1.23-3.43-1.23-2.1,0-3.49,.88-4.16,2.65h-7.43c.42-2.6,1.71-4.76,3.88-6.46,2.16-1.7,4.82-2.55,7.97-2.55,3.74,0,6.65,.96,8.73,2.87,2.08,1.91,3.12,4.57,3.12,7.97v17.96Zm-7.5-7.69v-2.02c-.34-.76-.98-1.35-1.92-1.79-.95-.44-2.01-.66-3.18-.66-1.34,0-2.51,.29-3.5,.88-.99,.59-1.48,1.45-1.48,2.58s.48,2,1.45,2.58c.97,.59,2.14,.88,3.53,.88,1.18,0,2.24-.22,3.18-.66,.95-.44,1.58-1.04,1.92-1.79Z"/>
    <path class="cls-1" d="M441.12,347v-28.16h7.81v2.58c1.85-2.14,4.37-3.21,7.56-3.21s5.6,.95,7.34,2.83c1.74,1.89,2.61,4.41,2.61,7.56v18.4h-7.81v-16.76c0-1.51-.39-2.72-1.17-3.62-.78-.9-1.92-1.35-3.43-1.35-1.22,0-2.3,.35-3.25,1.04-.94,.69-1.56,1.65-1.86,2.87v17.83h-7.81Z"/>
    <path class="cls-1" d="M474.63,338.5v-13.36h-4.28v-6.3h4.28v-7.62h7.75v7.62h6.17v6.3h-6.17v12.35c0,2.14,1.07,3.21,3.21,3.21,1.3,0,2.43-.32,3.4-.95v6.93c-1.09,.59-2.77,.88-5.04,.88-2.94,0-5.23-.76-6.87-2.27-1.64-1.51-2.46-3.78-2.46-6.8Z"/>
    <path class="cls-1" d="M509.72,338.5v-13.36h-4.28v-6.3h4.28v-7.62h7.75v7.62h6.17v6.3h-6.17v12.35c0,2.14,1.07,3.21,3.21,3.21,1.3,0,2.43-.32,3.4-.95v6.93c-1.09,.59-2.77,.88-5.04,.88-2.94,0-5.23-.76-6.87-2.27-1.64-1.51-2.46-3.78-2.46-6.8Z"/>
    <path class="cls-1" d="M555.33,332.95c0,4.33-1.28,7.85-3.84,10.58-2.56,2.73-5.88,4.09-9.95,4.09s-7.39-1.36-9.95-4.09c-2.56-2.73-3.84-6.26-3.84-10.58s1.28-7.92,3.84-10.65c2.56-2.73,5.88-4.09,9.95-4.09s7.39,1.37,9.95,4.09c2.56,2.73,3.84,6.28,3.84,10.65Zm-7.75,0c0-2.44-.54-4.4-1.61-5.89-1.07-1.49-2.55-2.24-4.44-2.24s-3.37,.75-4.44,2.24c-1.07,1.49-1.61,3.46-1.61,5.89s.54,4.34,1.61,5.83c1.07,1.49,2.55,2.24,4.44,2.24s3.37-.75,4.44-2.24c1.07-1.49,1.61-3.43,1.61-5.83Z"/>
    <path class="cls-1" d="M598.61,318.84v28.16h-7.81v-2.58c-1.93,2.14-4.45,3.21-7.56,3.21s-5.53-.95-7.28-2.83c-1.74-1.89-2.61-4.41-2.61-7.56v-18.4h7.81v16.82c0,1.55,.38,2.77,1.13,3.65,.76,.88,1.89,1.32,3.4,1.32,1.22,0,2.29-.35,3.21-1.04,.92-.69,1.53-1.65,1.83-2.87v-17.89h7.88Z"/>
    <path class="cls-1" d="M603.53,338.62h7.75c.63,2.06,2.21,3.09,4.72,3.09,2.65,0,3.97-.92,3.97-2.77,0-.63-.22-1.12-.66-1.48-.44-.36-1.17-.66-2.17-.91l-5.67-1.26c-4.87-1.13-7.31-3.78-7.31-7.94,0-2.69,1.07-4.88,3.21-6.58s4.81-2.55,8-2.55c3.49,0,6.23,.77,8.22,2.3,1.99,1.53,3.24,3.66,3.75,6.39h-7.43c-.59-1.85-2.06-2.77-4.41-2.77-1.01,0-1.88,.23-2.61,.69-.74,.46-1.1,1.11-1.1,1.95,0,1.05,.84,1.79,2.52,2.21l5.8,1.32c5,1.22,7.5,3.95,7.5,8.19,0,2.81-1.08,5.04-3.24,6.68-2.16,1.64-4.92,2.46-8.28,2.46s-6.34-.79-8.57-2.36c-2.23-1.58-3.55-3.79-3.97-6.65Z"/>
    <path class="cls-1" d="M650.02,337.8h7.25c-.5,3.07-1.84,5.47-4,7.21-2.16,1.74-4.99,2.61-8.47,2.61-4.07,0-7.37-1.35-9.89-4.06-2.52-2.71-3.78-6.25-3.78-10.62s1.27-7.76,3.81-10.55c2.54-2.79,5.79-4.19,9.73-4.19s7.17,1.27,9.42,3.81c2.25,2.54,3.37,5.93,3.37,10.17v2.39h-18.77c.13,2.1,.73,3.75,1.83,4.95,1.09,1.2,2.52,1.8,4.28,1.8,2.86,0,4.6-1.18,5.23-3.53Zm-5.29-13.23c-3.19,0-5.15,1.76-5.86,5.29h10.9c-.04-1.55-.5-2.82-1.39-3.81-.88-.99-2.1-1.48-3.65-1.48Z"/>
  </g>
  <path class="cls-1" d="M828,492c-1.5,0-3.01-.56-4.18-1.69-2.38-2.31-2.44-6.11-.13-8.48l13.4-13.82-13.4-13.82c-2.31-2.38-2.25-6.18,.13-8.48,2.38-2.31,6.18-2.25,8.48,.13l21.5,22.18-21.5,22.18c-1.18,1.21-2.74,1.82-4.31,1.82Z"/>
  <g>
    <path class="cls-1" d="M332.33,612h-5.48l-9.58-25.26v25.26h-7.56v-38.68h9.58l10.33,27.28,10.27-27.28h9.45v38.68h-7.62v-25.26l-9.39,25.26Z"/>
    <path class="cls-1" d="M382.29,597.95c0,4.33-1.28,7.85-3.84,10.58s-5.88,4.09-9.95,4.09-7.39-1.36-9.95-4.09c-2.56-2.73-3.84-6.26-3.84-10.58s1.28-7.92,3.84-10.65c2.56-2.73,5.88-4.09,9.95-4.09s7.39,1.37,9.95,4.09c2.56,2.73,3.84,6.28,3.84,10.65Zm-7.75,0c0-2.44-.54-4.4-1.61-5.89-1.07-1.49-2.55-2.24-4.44-2.24s-3.37,.75-4.44,2.24c-1.07,1.49-1.61,3.46-1.61,5.89s.54,4.34,1.61,5.83c1.07,1.49,2.55,2.24,4.44,2.24s3.37-.74,4.44-2.24c1.07-1.49,1.61-3.43,1.61-5.83Z"/>
    <path class="cls-1" d="M405.6,612v-2.33c-.67,.8-1.66,1.49-2.96,2.08-1.3,.59-2.67,.88-4.1,.88-3.95,0-7.07-1.39-9.36-4.19-2.29-2.79-3.43-6.29-3.43-10.49s1.14-7.71,3.43-10.52,5.41-4.22,9.36-4.22c1.43,0,2.79,.29,4.1,.88,1.3,.59,2.29,1.28,2.96,2.08v-15.12h7.88v40.95h-7.88Zm0-9.45v-9.26c-.46-.97-1.18-1.75-2.14-2.36-.97-.61-2.02-.91-3.15-.91-2.06,0-3.7,.75-4.91,2.24-1.22,1.49-1.83,3.39-1.83,5.7s.61,4.2,1.83,5.67c1.22,1.47,2.86,2.21,4.91,2.21,1.17,0,2.24-.3,3.18-.91,.95-.61,1.65-1.4,2.11-2.36Z"/>
    <path class="cls-1" d="M437.35,602.8h7.25c-.5,3.07-1.84,5.47-4,7.21s-4.99,2.61-8.47,2.61c-4.07,0-7.37-1.35-9.89-4.06-2.52-2.71-3.78-6.25-3.78-10.62s1.27-7.76,3.81-10.55,5.79-4.19,9.73-4.19,7.17,1.27,9.42,3.81c2.25,2.54,3.37,5.93,3.37,10.18v2.39h-18.77c.13,2.1,.73,3.75,1.83,4.95,1.09,1.2,2.52,1.8,4.28,1.8,2.86,0,4.6-1.18,5.23-3.53Zm-5.29-13.23c-3.19,0-5.15,1.76-5.86,5.29h10.9c-.04-1.55-.5-2.82-1.39-3.81-.88-.99-2.1-1.48-3.65-1.48Z"/>
    <path class="cls-1" d="M457.58,571.05v40.95h-7.81v-40.95h7.81Z"/>
    <path class="cls-1" d="M500.79,592.03c1.85,.59,3.36,1.71,4.54,3.37,1.17,1.66,1.76,3.54,1.76,5.64,0,3.53-1.14,6.24-3.43,8.13-2.29,1.89-5.47,2.84-9.54,2.84h-16.07v-38.68h14.81c4.12,0,7.32,.9,9.61,2.71,2.29,1.8,3.43,4.41,3.43,7.81,0,2.02-.48,3.75-1.45,5.2-.97,1.45-2.18,2.45-3.65,2.99Zm-14.99-2.84h6.55c3.91,0,5.86-1.53,5.86-4.6s-1.95-4.47-5.86-4.47h-6.55v9.07Zm0,6.3v9.7h7.62c1.85,0,3.28-.43,4.28-1.29s1.51-2.05,1.51-3.56-.49-2.7-1.48-3.56c-.99-.86-2.43-1.29-4.32-1.29h-7.62Z"/>
  </g>
  <path class="cls-1" d="M828,618c-1.5,0-3.01-.56-4.18-1.69-2.38-2.31-2.44-6.11-.13-8.48l13.4-13.82-13.4-13.82c-2.31-2.38-2.25-6.18,.13-8.48,2.38-2.31,6.18-2.25,8.48,.13l21.5,22.18-21.5,22.18c-1.18,1.21-2.74,1.82-4.31,1.82Z"/>
  <path class="cls-1" d="M874.04,399H277.96c-12.66,0-22.96,10.3-22.96,22.96v344.08c0,12.66,10.3,22.96,22.96,22.96H874.04c12.66,0,22.96-10.3,22.96-22.96V421.96c0-12.66-10.3-22.96-22.96-22.96Zm10.96,367.04c0,6.04-4.92,10.96-10.96,10.96H277.96c-6.04,0-10.96-4.92-10.96-10.96v-103.04H885v103.04Zm0-115.04H267v-114H885v114Zm-618-126v-103.04c0-6.04,4.92-10.96,10.96-10.96H874.04c6.04,0,10.96,4.92,10.96,10.96v103.04H267Z"/>
  <g>
    <path class="cls-1" d="M332.33,738h-5.48l-9.58-25.26v25.26h-7.56v-38.68h9.58l10.33,27.28,10.27-27.28h9.45v38.68h-7.62v-25.26l-9.39,25.26Z"/>
    <path class="cls-1" d="M382.29,723.95c0,4.33-1.28,7.85-3.84,10.58s-5.88,4.09-9.95,4.09-7.39-1.36-9.95-4.09c-2.56-2.73-3.84-6.26-3.84-10.58s1.28-7.92,3.84-10.65c2.56-2.73,5.88-4.09,9.95-4.09s7.39,1.37,9.95,4.09c2.56,2.73,3.84,6.28,3.84,10.65Zm-7.75,0c0-2.44-.54-4.4-1.61-5.89-1.07-1.49-2.55-2.24-4.44-2.24s-3.37,.75-4.44,2.24c-1.07,1.49-1.61,3.46-1.61,5.89s.54,4.34,1.61,5.83c1.07,1.49,2.55,2.24,4.44,2.24s3.37-.74,4.44-2.24c1.07-1.49,1.61-3.43,1.61-5.83Z"/>
    <path class="cls-1" d="M405.6,738v-2.33c-.67,.8-1.66,1.49-2.96,2.08-1.3,.59-2.67,.88-4.1,.88-3.95,0-7.07-1.39-9.36-4.19-2.29-2.79-3.43-6.29-3.43-10.49s1.14-7.71,3.43-10.52,5.41-4.22,9.36-4.22c1.43,0,2.79,.29,4.1,.88,1.3,.59,2.29,1.28,2.96,2.08v-15.12h7.88v40.95h-7.88Zm0-9.45v-9.26c-.46-.97-1.18-1.75-2.14-2.36-.97-.61-2.02-.91-3.15-.91-2.06,0-3.7,.75-4.91,2.24-1.22,1.49-1.83,3.39-1.83,5.7s.61,4.2,1.83,5.67c1.22,1.47,2.86,2.21,4.91,2.21,1.17,0,2.24-.3,3.18-.91,.95-.61,1.65-1.4,2.11-2.36Z"/>
    <path class="cls-1" d="M437.35,728.8h7.25c-.5,3.07-1.84,5.47-4,7.21s-4.99,2.61-8.47,2.61c-4.07,0-7.37-1.35-9.89-4.06-2.52-2.71-3.78-6.25-3.78-10.62s1.27-7.76,3.81-10.55,5.79-4.19,9.73-4.19,7.17,1.27,9.42,3.81c2.25,2.54,3.37,5.93,3.37,10.18v2.39h-18.77c.13,2.1,.73,3.75,1.83,4.95,1.09,1.2,2.52,1.8,4.28,1.8,2.86,0,4.6-1.18,5.23-3.53Zm-5.29-13.23c-3.19,0-5.15,1.76-5.86,5.29h10.9c-.04-1.55-.5-2.82-1.39-3.81-.88-.99-2.1-1.48-3.65-1.48Z"/>
    <path class="cls-1" d="M457.58,697.05v40.95h-7.81v-40.95h7.81Z"/>
    <path class="cls-1" d="M481.26,733.05c-3.4-3.72-5.1-8.52-5.1-14.4s1.7-10.68,5.1-14.39c3.4-3.72,7.71-5.58,12.92-5.58,4.45,0,8.07,1.19,10.87,3.56,2.79,2.38,4.57,5.56,5.32,9.54h-8c-1.47-3.95-4.2-5.92-8.19-5.92-3.02,0-5.42,1.19-7.18,3.56s-2.65,5.45-2.65,9.23,.88,6.8,2.65,9.2c1.76,2.39,4.16,3.59,7.18,3.59,3.99,0,6.72-1.99,8.19-5.98h8c-.76,4.03-2.53,7.23-5.32,9.61-2.79,2.37-6.42,3.56-10.87,3.56-5.21,0-9.51-1.86-12.92-5.57Z"/>
  </g>
  <path class="cls-1" d="M828,744c-1.5,0-3.01-.56-4.18-1.69-2.38-2.31-2.44-6.11-.13-8.48l13.4-13.82-13.4-13.82c-2.31-2.38-2.25-6.18,.13-8.48,2.38-2.31,6.18-2.25,8.48,.13l21.5,22.18-21.5,22.18c-1.18,1.21-2.74,1.82-4.31,1.82Z"/>
</svg>