<?xml version="1.0" encoding="UTF-8"?>
<svg id="OUTLINES" xmlns="http://www.w3.org/2000/svg" viewBox="0 0 1152 1008">
  <defs>
    <style>
      .cls-1 {
        fill: #030f78;
      }

      .cls-2 {
        fill: #000f7d;
      }

      .cls-3 {
        fill: #fff;
      }
    </style>
  </defs>
  <rect class="cls-3" x="534" y="461.68" width="201" height="174" rx="6" ry="6"/>
  <g>
    <path class="cls-2" d="M282.83,404.05v27.63h-5.62v-21.06l-6.44,3.19v-5.62l8.42-4.14h3.65Z"/>
    <path class="cls-2" d="M306.85,411.03h-5.58c-.57-1.8-1.79-2.7-3.64-2.7-1.59,0-2.88,.78-3.87,2.34-.99,1.56-1.49,3.36-1.49,5.4v.41c.45-.87,1.2-1.58,2.25-2.12,1.05-.54,2.23-.81,3.55-.81,2.7,0,4.88,.88,6.53,2.63,1.65,1.76,2.47,3.91,2.47,6.46,0,2.7-.88,4.96-2.63,6.77s-4.13,2.72-7.13,2.72c-3.75,0-6.54-1.67-8.37-5-1.29-2.25-1.93-5.14-1.93-8.69,0-4.38,.95-7.95,2.86-10.71,1.9-2.76,4.48-4.14,7.72-4.14,2.55,0,4.61,.65,6.17,1.94,1.56,1.29,2.59,3.12,3.11,5.49Zm-14.08,11.74c0,1.38,.42,2.5,1.26,3.35s1.95,1.28,3.33,1.28,2.41-.43,3.26-1.28c.85-.86,1.28-1.97,1.28-3.35s-.42-2.59-1.26-3.46c-.84-.87-1.94-1.3-3.29-1.3s-2.49,.44-3.33,1.3c-.84,.87-1.26,2.03-1.26,3.46Z"/>
    <path class="cls-2" d="M308.16,435.46l11.16-33.03h5.17l-11.16,33.03h-5.18Z"/>
    <path class="cls-2" d="M344.02,428.17c-2.01,2.64-4.63,3.96-7.88,3.96s-5.87-1.32-7.88-3.96c-2.01-2.64-3.01-6.07-3.01-10.3s1-7.66,3.01-10.3c2.01-2.64,4.63-3.96,7.88-3.96s5.86,1.32,7.88,3.96c2.01,2.64,3.01,6.07,3.01,10.3s-1,7.67-3.01,10.3Zm-3.92-16.92c-.87-1.68-2.19-2.52-3.96-2.52s-3.09,.84-3.96,2.52-1.3,3.88-1.3,6.62,.43,4.94,1.3,6.62,2.19,2.52,3.96,2.52,3.09-.84,3.96-2.52,1.3-3.88,1.3-6.62-.43-4.94-1.3-6.62Z"/>
    <path class="cls-2" d="M369.81,411.03h-5.58c-.57-1.8-1.79-2.7-3.64-2.7-1.59,0-2.88,.78-3.87,2.34-.99,1.56-1.49,3.36-1.49,5.4v.41c.45-.87,1.2-1.58,2.25-2.12,1.05-.54,2.23-.81,3.55-.81,2.7,0,4.88,.88,6.53,2.63,1.65,1.76,2.47,3.91,2.47,6.46,0,2.7-.88,4.96-2.63,6.77s-4.13,2.72-7.13,2.72c-3.75,0-6.54-1.67-8.37-5-1.29-2.25-1.93-5.14-1.93-8.69,0-4.38,.95-7.95,2.86-10.71,1.9-2.76,4.48-4.14,7.72-4.14,2.55,0,4.61,.65,6.17,1.94,1.56,1.29,2.59,3.12,3.11,5.49Zm-14.08,11.74c0,1.38,.42,2.5,1.26,3.35s1.95,1.28,3.33,1.28,2.41-.43,3.26-1.28c.85-.86,1.28-1.97,1.28-3.35s-.42-2.59-1.26-3.46c-.84-.87-1.94-1.3-3.29-1.3s-2.49,.44-3.33,1.3c-.84,.87-1.26,2.03-1.26,3.46Z"/>
    <path class="cls-2" d="M371.11,435.46l11.16-33.03h5.17l-11.16,33.03h-5.18Z"/>
    <path class="cls-2" d="M400.5,404.05v27.63h-5.62v-21.06l-6.44,3.19v-5.62l8.42-4.14h3.65Z"/>
    <path class="cls-2" d="M404.82,424.71h5.58c.57,1.8,1.78,2.7,3.64,2.7,1.59,0,2.88-.78,3.87-2.34,.99-1.56,1.49-3.36,1.49-5.4v-.41c-.45,.87-1.2,1.58-2.25,2.12-1.05,.54-2.24,.81-3.56,.81-2.7,0-4.88-.88-6.52-2.63-1.65-1.76-2.48-3.91-2.48-6.46,0-2.7,.88-4.96,2.63-6.77,1.75-1.81,4.13-2.72,7.13-2.72,3.75,0,6.54,1.67,8.37,5,1.29,2.25,1.93,5.14,1.93,8.68,0,4.38-.95,7.95-2.86,10.71s-4.48,4.14-7.72,4.14c-2.55,0-4.61-.64-6.17-1.94-1.56-1.29-2.59-3.12-3.1-5.49Zm14.08-11.74c0-1.38-.42-2.5-1.26-3.35-.84-.86-1.95-1.28-3.33-1.28s-2.41,.43-3.26,1.28c-.86,.86-1.28,1.97-1.28,3.35s.42,2.59,1.26,3.46c.84,.87,1.93,1.3,3.29,1.3s2.49-.44,3.33-1.3c.84-.87,1.26-2.03,1.26-3.46Z"/>
    <path class="cls-2" d="M427.77,424.71h5.58c.57,1.8,1.78,2.7,3.64,2.7,1.59,0,2.88-.78,3.87-2.34,.99-1.56,1.49-3.36,1.49-5.4v-.41c-.45,.87-1.2,1.58-2.25,2.12-1.05,.54-2.24,.81-3.56,.81-2.7,0-4.88-.88-6.52-2.63-1.65-1.76-2.48-3.91-2.48-6.46,0-2.7,.88-4.96,2.63-6.77,1.75-1.81,4.13-2.72,7.13-2.72,3.75,0,6.54,1.67,8.37,5,1.29,2.25,1.93,5.14,1.93,8.68,0,4.38-.95,7.95-2.86,10.71s-4.48,4.14-7.72,4.14c-2.55,0-4.61-.64-6.17-1.94-1.56-1.29-2.59-3.12-3.1-5.49Zm14.08-11.74c0-1.38-.42-2.5-1.26-3.35-.84-.86-1.95-1.28-3.33-1.28s-2.41,.43-3.26,1.28c-.86,.86-1.28,1.97-1.28,3.35s.42,2.59,1.26,3.46c.84,.87,1.93,1.3,3.29,1.3s2.49-.44,3.33-1.3c.84-.87,1.26-2.03,1.26-3.46Z"/>
    <path class="cls-2" d="M457.6,419.85v-4.46h1.58c1.23,0,2.23-.3,2.99-.9,.77-.6,1.15-1.46,1.15-2.56,0-.99-.32-1.81-.97-2.45-.65-.64-1.52-.97-2.63-.97-1.2,0-2.15,.35-2.86,1.06-.71,.71-1.1,1.61-1.19,2.72h-5.58c.27-2.52,1.27-4.6,3.01-6.23,1.74-1.63,3.96-2.45,6.66-2.45s4.95,.74,6.57,2.23c1.62,1.48,2.43,3.43,2.43,5.83,0,1.32-.32,2.53-.95,3.62-.63,1.1-1.44,1.88-2.43,2.36,1.23,.54,2.17,1.35,2.83,2.43,.66,1.08,.99,2.28,.99,3.6,0,2.46-.86,4.49-2.57,6.08s-4,2.38-6.88,2.38-5.34-.83-7.2-2.48c-1.86-1.65-2.87-3.82-3.01-6.52h5.67c.15,1.26,.61,2.26,1.37,2.99,.77,.73,1.81,1.1,3.13,1.1,1.17,0,2.13-.34,2.88-1.01,.75-.68,1.12-1.55,1.12-2.63,0-1.14-.41-2.05-1.21-2.72-.81-.67-1.86-1.01-3.15-1.01h-1.75Z"/>
  </g>
  <path class="cls-2" d="M531,463.68H243c-2.76,0-5-2.24-5-5v-80.68c0-2.76,2.24-5,5-5h288c2.76,0,5,2.24,5,5v80.68c0,2.76-2.24,5-5,5Zm-283-10h278v-70.68H248v70.68Z"/>
  <g>
    <path class="cls-2" d="M272.66,350.68v-27.63h9.76c4.17,0,7.48,1.25,9.95,3.74,2.46,2.49,3.69,5.85,3.69,10.08s-1.23,7.59-3.69,10.08c-2.46,2.49-5.78,3.74-9.95,3.74h-9.76Zm5.71-5.08h3.83c2.61,0,4.62-.78,6.03-2.34s2.12-3.69,2.12-6.39-.71-4.87-2.12-6.43c-1.41-1.56-3.42-2.34-6.03-2.34h-3.83v17.5Z"/>
    <path class="cls-2" d="M316.13,350.68h-5.36v-1.08c-.36,.36-1,.69-1.93,.99-.93,.3-1.92,.45-2.97,.45-2.13,0-3.91-.58-5.33-1.75-1.42-1.17-2.14-2.76-2.14-4.77,0-1.89,.74-3.43,2.23-4.63s3.34-1.8,5.56-1.8c.84,0,1.71,.12,2.61,.36,.9,.24,1.56,.51,1.98,.81v-1.49c0-.9-.28-1.64-.83-2.23-.56-.58-1.37-.88-2.45-.88-1.5,0-2.49,.63-2.97,1.89h-5.31c.3-1.86,1.22-3.4,2.77-4.61,1.54-1.21,3.44-1.82,5.69-1.82,2.67,0,4.75,.68,6.23,2.05,1.48,1.37,2.23,3.26,2.23,5.69v12.83Zm-5.36-5.49v-1.44c-.24-.54-.7-.97-1.37-1.28-.67-.31-1.43-.47-2.27-.47-.96,0-1.79,.21-2.5,.63s-1.06,1.04-1.06,1.84,.34,1.42,1.04,1.84c.69,.42,1.53,.63,2.52,.63,.84,0,1.6-.16,2.27-.47,.67-.32,1.13-.74,1.37-1.28Z"/>
    <path class="cls-2" d="M321.7,344.61v-9.54h-3.06v-4.5h3.06v-5.44h5.54v5.44h4.41v4.5h-4.41v8.82c0,1.53,.77,2.29,2.29,2.29,.93,0,1.74-.22,2.43-.67v4.95c-.78,.42-1.98,.63-3.6,.63-2.1,0-3.73-.54-4.9-1.62s-1.76-2.7-1.76-4.86Z"/>
    <path class="cls-2" d="M348.07,344.11h5.17c-.36,2.19-1.31,3.91-2.86,5.15-1.54,1.25-3.56,1.87-6.05,1.87-2.91,0-5.26-.97-7.06-2.9-1.8-1.94-2.7-4.46-2.7-7.58s.91-5.54,2.72-7.54c1.81-2,4.13-2.99,6.95-2.99s5.12,.91,6.73,2.72c1.6,1.82,2.41,4.24,2.41,7.27v1.71h-13.41c.09,1.5,.52,2.68,1.3,3.53,.78,.85,1.8,1.28,3.06,1.28,2.04,0,3.29-.84,3.74-2.52Zm-3.78-9.45c-2.28,0-3.67,1.26-4.18,3.78h7.79c-.03-1.11-.36-2.02-.99-2.72-.63-.7-1.5-1.06-2.61-1.06Z"/>
    <path class="cls-2" d="M384.93,340.65c0,3.09-.92,5.61-2.75,7.56s-4.2,2.92-7.11,2.92-5.28-.97-7.11-2.92c-1.83-1.95-2.75-4.47-2.75-7.56s.92-5.65,2.75-7.6c1.83-1.95,4.2-2.93,7.11-2.93s5.28,.98,7.11,2.93,2.75,4.49,2.75,7.6Zm-5.54,0c0-1.74-.38-3.14-1.15-4.21-.76-1.06-1.82-1.6-3.17-1.6s-2.41,.53-3.17,1.6-1.15,2.47-1.15,4.21,.38,3.1,1.15,4.16c.76,1.06,1.82,1.6,3.17,1.6s2.41-.53,3.17-1.6c.77-1.07,1.15-2.45,1.15-4.16Z"/>
    <path class="cls-2" d="M400.27,321.57v4.73c-.51-.36-1.17-.54-1.98-.54-1.83,0-2.75,.93-2.75,2.79v2.02h4.18v4.5h-4.18v15.62h-5.49v-15.62h-3.29v-4.5h3.29v-2.38c0-2.25,.64-4,1.94-5.26,1.29-1.26,3.01-1.89,5.17-1.89,1.26,0,2.29,.18,3.1,.54Z"/>
    <path class="cls-2" d="M418.27,349.02v1.67h-5.62v-29.25h5.62v10.8c.48-.57,1.18-1.06,2.12-1.48,.93-.42,1.9-.63,2.92-.63,2.82,0,5.05,1.01,6.68,3.02,1.63,2.01,2.45,4.52,2.45,7.51s-.82,5.5-2.45,7.49c-1.64,2-3.86,2.99-6.68,2.99-1.02,0-2-.21-2.92-.63-.93-.42-1.64-.92-2.12-1.49Zm0-11.7v6.62c.33,.69,.83,1.25,1.51,1.69,.67,.44,1.43,.65,2.27,.65,1.47,0,2.64-.52,3.51-1.58,.87-1.05,1.31-2.4,1.31-4.05s-.44-3.01-1.31-4.07c-.87-1.06-2.04-1.6-3.51-1.6-.81,0-1.56,.22-2.25,.65-.69,.44-1.2,1-1.53,1.69Z"/>
    <path class="cls-2" d="M442.12,324.76c0,.93-.32,1.7-.97,2.29-.65,.6-1.42,.9-2.32,.9s-1.72-.3-2.36-.9c-.65-.6-.97-1.37-.97-2.29s.33-1.66,.99-2.27c.66-.61,1.44-.92,2.34-.92s1.67,.31,2.32,.92c.65,.62,.97,1.37,.97,2.27Zm-.5,5.8v20.12h-5.58v-20.12h5.58Z"/>
    <path class="cls-2" d="M458.68,330.48v5.58c-.75-.45-1.68-.67-2.79-.67-.96,0-1.79,.25-2.47,.74-.69,.5-1.14,1.19-1.35,2.09v12.46h-5.58v-20.12h5.58v1.98c.96-1.62,2.46-2.43,4.5-2.43,.99,0,1.69,.12,2.12,.36Z"/>
    <path class="cls-2" d="M463.54,344.61v-9.54h-3.06v-4.5h3.06v-5.44h5.54v5.44h4.41v4.5h-4.41v8.82c0,1.53,.77,2.29,2.29,2.29,.93,0,1.74-.22,2.43-.67v4.95c-.78,.42-1.98,.63-3.6,.63-2.1,0-3.73-.54-4.9-1.62s-1.76-2.7-1.76-4.86Z"/>
    <path class="cls-2" d="M477.85,350.68v-29.25h5.58v10.98c1.32-1.53,3.12-2.3,5.4-2.3s4,.68,5.24,2.03,1.87,3.15,1.87,5.4v13.14h-5.58v-11.97c0-1.08-.28-1.94-.83-2.59-.56-.64-1.37-.97-2.45-.97-.87,0-1.64,.25-2.32,.74-.68,.5-1.12,1.18-1.33,2.05v12.74h-5.58Z"/>
  </g>
  <g>
    <path class="cls-2" d="M282.83,484.73v27.63h-5.62v-21.06l-6.44,3.19v-5.62l8.42-4.14h3.65Z"/>
    <path class="cls-2" d="M298.35,484.73v27.63h-5.62v-21.06l-6.44,3.19v-5.62l8.42-4.14h3.65Z"/>
    <path class="cls-2" d="M301.14,516.14l11.16-33.03h5.17l-11.16,33.03h-5.18Z"/>
    <path class="cls-2" d="M330.52,484.73v27.63h-5.62v-21.06l-6.44,3.19v-5.62l8.42-4.14h3.65Z"/>
    <path class="cls-2" d="M353.43,508.85c-2.01,2.64-4.63,3.96-7.88,3.96s-5.87-1.32-7.88-3.96c-2.01-2.64-3.01-6.08-3.01-10.31s1-7.66,3.01-10.3c2.01-2.64,4.63-3.96,7.88-3.96s5.86,1.32,7.88,3.96c2.01,2.64,3.01,6.08,3.01,10.3s-1,7.67-3.01,10.31Zm-3.92-16.92c-.87-1.68-2.19-2.52-3.96-2.52s-3.09,.84-3.96,2.52-1.3,3.88-1.3,6.61,.43,4.94,1.3,6.62c.87,1.68,2.19,2.52,3.96,2.52s3.09-.84,3.96-2.52c.87-1.68,1.3-3.88,1.3-6.62s-.43-4.93-1.3-6.61Z"/>
    <path class="cls-2" d="M356.89,516.14l11.16-33.03h5.17l-11.16,33.03h-5.18Z"/>
    <path class="cls-2" d="M386.28,484.73v27.63h-5.62v-21.06l-6.44,3.19v-5.62l8.42-4.14h3.65Z"/>
    <path class="cls-2" d="M390.6,505.39h5.58c.57,1.8,1.78,2.7,3.64,2.7,1.59,0,2.88-.78,3.87-2.34,.99-1.56,1.49-3.36,1.49-5.4v-.41c-.45,.87-1.2,1.58-2.25,2.12-1.05,.54-2.24,.81-3.56,.81-2.7,0-4.88-.88-6.52-2.63-1.65-1.75-2.48-3.91-2.48-6.46,0-2.7,.88-4.96,2.63-6.77,1.75-1.81,4.13-2.72,7.13-2.72,3.75,0,6.54,1.67,8.37,5,1.29,2.25,1.93,5.15,1.93,8.68,0,4.38-.95,7.95-2.86,10.71-1.91,2.76-4.48,4.14-7.72,4.14-2.55,0-4.61-.64-6.17-1.94-1.56-1.29-2.59-3.12-3.1-5.49Zm14.08-11.75c0-1.38-.42-2.5-1.26-3.35-.84-.86-1.95-1.28-3.33-1.28s-2.41,.43-3.26,1.28c-.86,.85-1.28,1.97-1.28,3.35s.42,2.59,1.26,3.46,1.93,1.3,3.29,1.3,2.49-.43,3.33-1.3c.84-.87,1.26-2.03,1.26-3.46Z"/>
    <path class="cls-2" d="M423.18,512.81c-2.85,0-5.22-.72-7.11-2.16-1.89-1.44-2.83-3.39-2.83-5.85,0-1.68,.46-3.11,1.37-4.28,.91-1.17,2.06-1.95,3.44-2.34-1.2-.51-2.16-1.31-2.88-2.38-.72-1.08-1.08-2.33-1.08-3.74,0-2.43,.88-4.33,2.63-5.71,1.75-1.38,3.91-2.07,6.46-2.07s4.69,.69,6.43,2.07,2.61,3.29,2.61,5.71c0,1.41-.36,2.66-1.08,3.74-.72,1.08-1.68,1.88-2.88,2.38,1.38,.39,2.53,1.17,3.44,2.34s1.37,2.59,1.37,4.28c0,2.46-.95,4.41-2.83,5.85-1.89,1.44-4.25,2.16-7.07,2.16Zm0-4.54c1.26,0,2.3-.35,3.13-1.06,.82-.71,1.24-1.66,1.24-2.86s-.41-2.15-1.24-2.86c-.83-.71-1.87-1.06-3.13-1.06s-2.35,.35-3.17,1.06-1.24,1.66-1.24,2.86,.41,2.15,1.24,2.86,1.88,1.06,3.17,1.06Zm0-12.51c1.05,0,1.93-.31,2.66-.94,.72-.63,1.08-1.47,1.08-2.52s-.36-1.94-1.08-2.59c-.72-.65-1.61-.97-2.66-.97s-1.98,.32-2.7,.97-1.08,1.51-1.08,2.59,.36,1.89,1.08,2.52,1.62,.94,2.7,.94Z"/>
    <path class="cls-2" d="M453.55,488.83l-9.04,23.54h-5.8l8.87-22.59h-12.69v-5.04h18.67v4.09Z"/>
  </g>
  <g>
    <path class="cls-2" d="M278.5,581.21v-4.46h1.58c1.23,0,2.23-.3,2.99-.9,.77-.6,1.15-1.45,1.15-2.56,0-.99-.32-1.81-.97-2.45s-1.52-.97-2.63-.97c-1.2,0-2.15,.35-2.86,1.06-.71,.71-1.1,1.61-1.19,2.72h-5.58c.27-2.52,1.27-4.6,3.01-6.23,1.74-1.63,3.96-2.45,6.66-2.45s4.95,.74,6.57,2.23,2.43,3.43,2.43,5.83c0,1.32-.32,2.53-.95,3.62-.63,1.1-1.44,1.88-2.43,2.36,1.23,.54,2.17,1.35,2.83,2.43,.66,1.08,.99,2.28,.99,3.6,0,2.46-.86,4.49-2.57,6.08s-4,2.38-6.88,2.38-5.34-.83-7.2-2.48c-1.86-1.65-2.87-3.82-3.01-6.52h5.67c.15,1.26,.61,2.26,1.37,2.99,.77,.74,1.81,1.1,3.13,1.1,1.17,0,2.13-.34,2.88-1.01s1.12-1.55,1.12-2.63c0-1.14-.41-2.05-1.21-2.72-.81-.67-1.86-1.01-3.15-1.01h-1.75Z"/>
    <path class="cls-2" d="M311.54,589.53c-2.01,2.64-4.63,3.96-7.88,3.96s-5.87-1.32-7.88-3.96c-2.01-2.64-3.01-6.08-3.01-10.31s1-7.66,3.01-10.3c2.01-2.64,4.63-3.96,7.88-3.96s5.86,1.32,7.88,3.96c2.01,2.64,3.01,6.08,3.01,10.3s-1,7.67-3.01,10.31Zm-3.92-16.92c-.87-1.68-2.19-2.52-3.96-2.52s-3.09,.84-3.96,2.52-1.3,3.88-1.3,6.61,.43,4.94,1.3,6.62c.87,1.68,2.19,2.52,3.96,2.52s3.09-.84,3.96-2.52c.87-1.68,1.3-3.88,1.3-6.62s-.43-4.93-1.3-6.61Z"/>
    <path class="cls-2" d="M315,596.82l11.16-33.03h5.17l-11.16,33.03h-5.18Z"/>
    <path class="cls-2" d="M350.86,589.53c-2.01,2.64-4.63,3.96-7.88,3.96s-5.87-1.32-7.88-3.96c-2.01-2.64-3.01-6.08-3.01-10.31s1-7.66,3.01-10.3c2.01-2.64,4.63-3.96,7.88-3.96s5.86,1.32,7.88,3.96c2.01,2.64,3.01,6.08,3.01,10.3s-1,7.67-3.01,10.31Zm-3.92-16.92c-.87-1.68-2.19-2.52-3.96-2.52s-3.09,.84-3.96,2.52-1.3,3.88-1.3,6.61,.43,4.94,1.3,6.62c.87,1.68,2.19,2.52,3.96,2.52s3.09-.84,3.96-2.52c.87-1.68,1.3-3.88,1.3-6.62s-.43-4.93-1.3-6.61Z"/>
    <path class="cls-2" d="M356.94,586.07h5.58c.57,1.8,1.78,2.7,3.64,2.7,1.59,0,2.88-.78,3.87-2.34,.99-1.56,1.49-3.36,1.49-5.4v-.41c-.45,.87-1.2,1.58-2.25,2.12-1.05,.54-2.24,.81-3.56,.81-2.7,0-4.88-.88-6.52-2.63-1.65-1.75-2.48-3.91-2.48-6.46,0-2.7,.88-4.96,2.63-6.77,1.75-1.81,4.13-2.72,7.13-2.72,3.75,0,6.54,1.67,8.37,5,1.29,2.25,1.93,5.15,1.93,8.68,0,4.38-.95,7.95-2.86,10.71-1.91,2.76-4.48,4.14-7.72,4.14-2.55,0-4.61-.64-6.17-1.94-1.56-1.29-2.59-3.12-3.1-5.49Zm14.08-11.75c0-1.38-.42-2.5-1.26-3.35-.84-.86-1.95-1.28-3.33-1.28s-2.41,.43-3.26,1.28c-.86,.85-1.28,1.97-1.28,3.35s.42,2.59,1.26,3.46,1.93,1.3,3.29,1.3,2.49-.43,3.33-1.3c.84-.87,1.26-2.03,1.26-3.46Z"/>
    <path class="cls-2" d="M376.78,596.82l11.16-33.03h5.17l-11.16,33.03h-5.18Z"/>
    <path class="cls-2" d="M407.07,573.42c0-.99-.31-1.79-.94-2.41-.63-.61-1.49-.92-2.57-.92s-1.99,.35-2.63,1.06c-.65,.71-1,1.63-1.06,2.77h-5.94c.27-2.64,1.27-4.79,2.99-6.46,1.72-1.67,3.92-2.5,6.59-2.5,2.88,0,5.14,.74,6.79,2.23,1.65,1.49,2.47,3.49,2.47,6.01,0,1.08-.3,2.2-.9,3.35-.6,1.16-1.19,2.07-1.78,2.75-.58,.67-1.52,1.69-2.81,3.04l-5.31,5.71h11.12v5h-19.12v-3.74l8.78-9.22c2.01-2.22,3.24-3.74,3.69-4.54,.42-.75,.63-1.46,.63-2.12Z"/>
    <path class="cls-2" d="M434.61,589.53c-2.01,2.64-4.63,3.96-7.88,3.96s-5.87-1.32-7.88-3.96c-2.01-2.64-3.01-6.08-3.01-10.31s1-7.66,3.01-10.3c2.01-2.64,4.63-3.96,7.88-3.96s5.86,1.32,7.88,3.96c2.01,2.64,3.01,6.08,3.01,10.3s-1,7.67-3.01,10.31Zm-3.92-16.92c-.87-1.68-2.19-2.52-3.96-2.52s-3.09,.84-3.96,2.52-1.3,3.88-1.3,6.61,.43,4.94,1.3,6.62c.87,1.68,2.19,2.52,3.96,2.52s3.09-.84,3.96-2.52c.87-1.68,1.3-3.88,1.3-6.62s-.43-4.93-1.3-6.61Z"/>
    <path class="cls-2" d="M459.27,589.53c-2.01,2.64-4.63,3.96-7.88,3.96s-5.87-1.32-7.88-3.96c-2.01-2.64-3.01-6.08-3.01-10.31s1-7.66,3.01-10.3c2.01-2.64,4.63-3.96,7.88-3.96s5.86,1.32,7.88,3.96c2.01,2.64,3.01,6.08,3.01,10.3s-1,7.67-3.01,10.31Zm-3.92-16.92c-.87-1.68-2.19-2.52-3.96-2.52s-3.09,.84-3.96,2.52-1.3,3.88-1.3,6.61,.43,4.94,1.3,6.62c.87,1.68,2.19,2.52,3.96,2.52s3.09-.84,3.96-2.52c.87-1.68,1.3-3.88,1.3-6.62s-.43-4.93-1.3-6.61Z"/>
    <path class="cls-2" d="M476.55,565.41v27.63h-5.62v-21.06l-6.44,3.19v-5.62l8.42-4.14h3.65Z"/>
  </g>
  <g>
    <path class="cls-2" d="M566.5,419.85v-4.46h1.58c1.23,0,2.23-.3,2.99-.9,.77-.6,1.15-1.46,1.15-2.56,0-.99-.32-1.81-.97-2.45-.65-.64-1.52-.97-2.63-.97-1.2,0-2.15,.35-2.86,1.06-.71,.71-1.1,1.61-1.19,2.72h-5.58c.27-2.52,1.27-4.6,3.01-6.23,1.74-1.63,3.96-2.45,6.66-2.45s4.95,.74,6.57,2.23c1.62,1.48,2.43,3.43,2.43,5.83,0,1.32-.32,2.53-.95,3.62-.63,1.1-1.44,1.88-2.43,2.36,1.23,.54,2.17,1.35,2.83,2.43,.66,1.08,.99,2.28,.99,3.6,0,2.46-.86,4.49-2.57,6.08s-4,2.38-6.88,2.38-5.34-.83-7.2-2.48c-1.86-1.65-2.87-3.82-3.01-6.52h5.67c.15,1.26,.61,2.26,1.37,2.99,.77,.73,1.81,1.1,3.13,1.1,1.17,0,2.13-.34,2.88-1.01,.75-.68,1.12-1.55,1.12-2.63,0-1.14-.41-2.05-1.21-2.72-.81-.67-1.86-1.01-3.15-1.01h-1.75Z"/>
    <path class="cls-2" d="M592.16,404.05v27.63h-5.62v-21.06l-6.44,3.19v-5.62l8.42-4.14h3.65Z"/>
  </g>
  <g>
    <path class="cls-2" d="M569.25,323.05h5.71l10.58,27.63h-5.85l-2.48-6.66h-10.35l-2.43,6.66h-5.76l10.58-27.63Zm2.79,6.93l-3.38,9.18h6.75l-3.38-9.18Z"/>
    <path class="cls-2" d="M601.29,349.33v-1.17c-1.14,1.38-2.79,2.07-4.95,2.07-2.79,0-5.01-.97-6.66-2.92-1.65-1.95-2.47-4.33-2.47-7.16s.83-5.16,2.47-7.11c1.65-1.95,3.87-2.93,6.66-2.93,2.13,0,3.78,.68,4.95,2.03v-1.58h5.54v17.91c0,3.33-.9,5.84-2.7,7.54-1.8,1.7-4.18,2.54-7.16,2.54-2.61,0-4.75-.63-6.41-1.89-1.67-1.26-2.65-3.02-2.95-5.27h5.4c.45,1.89,1.77,2.83,3.96,2.83,2.88,0,4.32-1.63,4.32-4.9Zm0-5.9v-6.57c-.84-1.38-2.1-2.07-3.78-2.07-1.47,0-2.62,.5-3.46,1.48-.84,.99-1.26,2.28-1.26,3.87s.42,2.89,1.26,3.89c.84,1.01,2,1.51,3.46,1.51,.81,0,1.55-.2,2.23-.61,.68-.41,1.19-.91,1.55-1.51Z"/>
    <path class="cls-2" d="M623.92,344.11h5.17c-.36,2.19-1.31,3.91-2.86,5.15-1.54,1.25-3.56,1.87-6.05,1.87-2.91,0-5.26-.97-7.06-2.9-1.8-1.94-2.7-4.46-2.7-7.58s.91-5.54,2.72-7.54c1.81-2,4.13-2.99,6.95-2.99s5.12,.91,6.73,2.72c1.6,1.82,2.41,4.24,2.41,7.27v1.71h-13.41c.09,1.5,.52,2.68,1.3,3.53,.78,.85,1.8,1.28,3.06,1.28,2.04,0,3.29-.84,3.74-2.52Zm-3.78-9.45c-2.28,0-3.67,1.26-4.18,3.78h7.79c-.03-1.11-.36-2.02-.99-2.72-.63-.7-1.5-1.06-2.61-1.06Z"/>
  </g>
  <g>
    <path class="cls-2" d="M566.5,500.53v-4.46h1.58c1.23,0,2.23-.3,2.99-.9,.77-.6,1.15-1.45,1.15-2.56,0-.99-.32-1.81-.97-2.45s-1.52-.97-2.63-.97c-1.2,0-2.15,.35-2.86,1.06-.71,.71-1.1,1.61-1.19,2.72h-5.58c.27-2.52,1.27-4.6,3.01-6.23,1.74-1.63,3.96-2.45,6.66-2.45s4.95,.74,6.57,2.23,2.43,3.43,2.43,5.83c0,1.32-.32,2.53-.95,3.62-.63,1.1-1.44,1.88-2.43,2.36,1.23,.54,2.17,1.35,2.83,2.43,.66,1.08,.99,2.28,.99,3.6,0,2.46-.86,4.49-2.57,6.08s-4,2.38-6.88,2.38-5.34-.83-7.2-2.48c-1.86-1.65-2.87-3.82-3.01-6.52h5.67c.15,1.26,.61,2.26,1.37,2.99,.77,.74,1.81,1.1,3.13,1.1,1.17,0,2.13-.34,2.88-1.01s1.12-1.55,1.12-2.63c0-1.14-.41-2.05-1.21-2.72-.81-.67-1.86-1.01-3.15-1.01h-1.75Z"/>
    <path class="cls-2" d="M598.72,488.83l-9.04,23.54h-5.8l8.87-22.59h-12.69v-5.04h18.67v4.09Z"/>
  </g>
  <path class="cls-2" d="M720,544.36h-189c-2.76,0-5-2.24-5-5v-80.68c0-2.76,2.24-5,5-5h189c2.76,0,5,2.24,5,5v80.68c0,2.76-2.24,5-5,5Zm-184-10h179v-70.68h-179v70.68Z"/>
  <g>
    <path class="cls-2" d="M572.22,573.42c0-.99-.31-1.79-.94-2.41-.63-.61-1.49-.92-2.57-.92s-1.99,.35-2.63,1.06c-.65,.71-1,1.63-1.06,2.77h-5.94c.27-2.64,1.27-4.79,2.99-6.46,1.72-1.67,3.92-2.5,6.59-2.5,2.88,0,5.14,.74,6.79,2.23,1.65,1.49,2.47,3.49,2.47,6.01,0,1.08-.3,2.2-.9,3.35-.6,1.16-1.19,2.07-1.78,2.75-.58,.67-1.52,1.69-2.81,3.04l-5.31,5.71h11.12v5h-19.12v-3.74l8.78-9.22c2.01-2.22,3.24-3.74,3.69-4.54,.42-.75,.63-1.46,.63-2.12Z"/>
    <path class="cls-2" d="M588.37,581.21v-4.46h1.58c1.23,0,2.23-.3,2.99-.9,.77-.6,1.15-1.45,1.15-2.56,0-.99-.32-1.81-.97-2.45s-1.52-.97-2.63-.97c-1.2,0-2.15,.35-2.86,1.06-.71,.71-1.1,1.61-1.19,2.72h-5.58c.27-2.52,1.27-4.6,3.01-6.23,1.74-1.63,3.96-2.45,6.66-2.45s4.95,.74,6.57,2.23,2.43,3.43,2.43,5.83c0,1.32-.32,2.53-.95,3.62-.63,1.1-1.44,1.88-2.43,2.36,1.23,.54,2.17,1.35,2.83,2.43,.66,1.08,.99,2.28,.99,3.6,0,2.46-.86,4.49-2.57,6.08s-4,2.38-6.88,2.38-5.34-.83-7.2-2.48c-1.86-1.65-2.87-3.82-3.01-6.52h5.67c.15,1.26,.61,2.26,1.37,2.99,.77,.74,1.81,1.1,3.13,1.1,1.17,0,2.13-.34,2.88-1.01s1.12-1.55,1.12-2.63c0-1.14-.41-2.05-1.21-2.72-.81-.67-1.86-1.01-3.15-1.01h-1.75Z"/>
  </g>
  <path class="cls-2" d="M725,455.37v-77.37c0-.05-.01-.11-.02-.16,0-.05,.02-.11,.02-.16v-80.68c0-2.76-2.24-5-5-5H243c-2.76,0-5,2.24-5,5v80.68c0,2.76,2.24,5,5,5h283v71H243c-2.76,0-5,2.24-5,5v161.36c0,2.76,2.24,5,5,5h283.89c1.07,1.01,2.52,1.64,4.11,1.64h189c3.31,0,6-2.69,6-6v-162c0-1.23-.37-2.36-1-3.31Zm-11,159.31h-177v-70.32h177v70.32Zm1-231.68v69.68h-179v-69.68h179Zm-178,151.36v-69.68h177v69.68h-177Zm178-161.68h-179v-70.68h179v70.68Zm-467-70.68h278v70.68H248v-70.68Zm0,161.68h277v70.68H248v-70.68Zm0,80.68h277v70.68H248v-70.68Z"/>
  <rect class="cls-3" x="714" y="614.36" width="264" height="111.32" rx="24" ry="24"/>
  <g>
    <path class="cls-2" d="M802.49,647.05h5.71l10.58,27.63h-5.85l-2.48-6.66h-10.35l-2.43,6.66h-5.76l10.58-27.63Zm2.79,6.93l-3.38,9.18h6.75l-3.38-9.18Z"/>
    <path class="cls-2" d="M839.3,654.56v20.12h-5.58v-1.84c-1.38,1.53-3.18,2.3-5.4,2.3s-3.95-.68-5.2-2.03-1.87-3.15-1.87-5.4v-13.14h5.58v12.02c0,1.11,.27,1.98,.81,2.61,.54,.63,1.35,.95,2.43,.95,.87,0,1.63-.25,2.29-.74,.66-.5,1.09-1.18,1.3-2.05v-12.78h5.62Z"/>
    <path class="cls-2" d="M845.33,668.61v-9.54h-3.06v-4.5h3.06v-5.44h5.54v5.44h4.41v4.5h-4.41v8.82c0,1.53,.77,2.29,2.29,2.29,.93,0,1.74-.22,2.43-.67v4.95c-.78,.42-1.98,.63-3.6,.63-2.1,0-3.73-.54-4.9-1.62s-1.76-2.7-1.76-4.86Z"/>
    <path class="cls-2" d="M877.91,664.64c0,3.09-.92,5.61-2.75,7.56-1.83,1.95-4.2,2.93-7.11,2.93s-5.28-.97-7.11-2.93c-1.83-1.95-2.75-4.47-2.75-7.56s.92-5.65,2.75-7.6c1.83-1.95,4.2-2.92,7.11-2.92s5.28,.97,7.11,2.92,2.75,4.49,2.75,7.6Zm-5.54,0c0-1.74-.38-3.14-1.15-4.21-.76-1.06-1.82-1.6-3.17-1.6s-2.41,.53-3.17,1.6c-.76,1.07-1.15,2.47-1.15,4.21s.38,3.1,1.15,4.16c.76,1.07,1.82,1.6,3.17,1.6s2.41-.53,3.17-1.6c.77-1.06,1.15-2.45,1.15-4.16Z"/>
    <path class="cls-2" d="M893.25,645.56v4.73c-.51-.36-1.17-.54-1.98-.54-1.83,0-2.75,.93-2.75,2.79v2.02h4.18v4.5h-4.18v15.62h-5.49v-15.62h-3.29v-4.5h3.29v-2.38c0-2.25,.64-4,1.94-5.26,1.29-1.26,3.01-1.89,5.17-1.89,1.26,0,2.29,.18,3.1,.54Z"/>
    <path class="cls-2" d="M902.2,648.76c0,.93-.32,1.7-.97,2.29-.65,.6-1.42,.9-2.32,.9s-1.72-.3-2.36-.9c-.65-.6-.97-1.36-.97-2.29s.33-1.66,.99-2.27c.66-.62,1.44-.92,2.34-.92s1.67,.31,2.32,.92,.97,1.37,.97,2.27Zm-.5,5.8v20.12h-5.58v-20.12h5.58Z"/>
    <path class="cls-2" d="M912.15,645.43v29.25h-5.58v-29.25h5.58Z"/>
    <path class="cls-2" d="M922.59,645.43v29.25h-5.58v-29.25h5.58Z"/>
  </g>
  <path class="cls-2" d="M945,717h-216c-13.23,0-24-10.77-24-24v-63.32c0-13.23,10.77-24,24-24h216c13.23,0,24,10.77,24,24v63.32c0,13.23-10.77,24-24,24Zm-216-99.32c-6.62,0-12,5.38-12,12v63.32c0,6.62,5.38,12,12,12h216c6.62,0,12-5.38,12-12v-63.32c0-6.62-5.38-12-12-12h-216Z"/>
  <path class="cls-1" d="M772.18,658.92c-7.35,0-13.33-5.98-13.33-13.33,0-.83-.7-1.5-1.53-1.5s-1.5,.67-1.5,1.5c0,7.35-5.98,13.33-13.33,13.33-.83,0-1.5,.67-1.5,1.5s.67,1.5,1.5,1.5c7.35,0,13.33,5.98,13.33,13.33,0,.41,.19,.82,.49,1.11,.29,.28,.66,.42,1.04,.42,.2,0,.4-.04,.59-.12,.55-.24,.91-.78,.91-1.38,0-7.35,5.98-13.33,13.33-13.33,.83,0,1.5-.7,1.5-1.53s-.67-1.5-1.5-1.5Z"/>
</svg>