<?xml version="1.0" encoding="UTF-8"?>
<svg id="OUTLINES" xmlns="http://www.w3.org/2000/svg" viewBox="0 0 1152 1008">
  <defs>
    <style>
      .cls-1 {
        fill: #000f7d;
      }

      .cls-2 {
        fill: #fff;
      }
    </style>
  </defs>
  <rect class="cls-2" x="264" y="237" width="642" height="561" rx="22.96" ry="22.96"/>
  <path class="cls-1" d="M874.04,789H277.96c-12.66,0-22.96-10.3-22.96-22.96V250.96c0-12.66,10.3-22.96,22.96-22.96H874.04c12.66,0,22.96,10.3,22.96,22.96V766.04c0,12.66-10.3,22.96-22.96,22.96ZM277.96,240c-6.04,0-10.96,4.92-10.96,10.96V766.04c0,6.04,4.92,10.96,10.96,10.96H874.04c6.04,0,10.96-4.92,10.96-10.96V250.96c0-6.04-4.92-10.96-10.96-10.96H277.96Z"/>
  <g>
    <path class="cls-1" d="M434.72,454.5h-8v-38.68h25.77v7.06h-17.77v9.83h16.44v6.99h-16.44v14.8Z"/>
    <path class="cls-1" d="M482.16,426.34v28.16h-7.81v-2.58c-1.93,2.14-4.45,3.21-7.56,3.21s-5.53-.95-7.28-2.83c-1.74-1.89-2.61-4.41-2.61-7.56v-18.4h7.81v16.82c0,1.55,.38,2.77,1.13,3.65,.76,.88,1.89,1.32,3.4,1.32,1.22,0,2.29-.35,3.21-1.04,.92-.69,1.53-1.65,1.83-2.87v-17.89h7.88Z"/>
    <path class="cls-1" d="M496.71,413.55v40.95h-7.81v-40.95h7.81Z"/>
    <path class="cls-1" d="M511.33,413.55v40.95h-7.81v-40.95h7.81Z"/>
    <path class="cls-1" d="M529.91,464.89h-7.69l4.09-10.27-10.77-28.29h8.25l6.49,18.71,6.43-18.71h7.88l-14.68,38.56Z"/>
    <path class="cls-1" d="M585.29,454.5h-7.5v-1.51c-.5,.5-1.41,.97-2.71,1.39-1.3,.42-2.69,.63-4.16,.63-2.98,0-5.47-.82-7.47-2.46-2-1.64-2.99-3.86-2.99-6.68,0-2.65,1.04-4.81,3.12-6.49,2.08-1.68,4.67-2.52,7.78-2.52,1.18,0,2.39,.17,3.65,.5s2.18,.71,2.77,1.13v-2.08c0-1.26-.39-2.3-1.17-3.12-.78-.82-1.92-1.23-3.43-1.23-2.1,0-3.49,.88-4.16,2.65h-7.43c.42-2.6,1.71-4.76,3.88-6.46,2.16-1.7,4.82-2.55,7.97-2.55,3.74,0,6.65,.96,8.73,2.87,2.08,1.91,3.12,4.57,3.12,7.97v17.96Zm-7.5-7.69v-2.02c-.34-.76-.98-1.35-1.92-1.79-.95-.44-2.01-.66-3.18-.66-1.34,0-2.51,.29-3.5,.88-.99,.59-1.48,1.45-1.48,2.58s.48,2,1.45,2.58c.97,.59,2.14,.88,3.53,.88,1.18,0,2.24-.22,3.18-.66,.95-.44,1.58-1.04,1.92-1.79Z"/>
    <path class="cls-1" d="M616.6,426.34v28.16h-7.81v-2.58c-1.93,2.14-4.45,3.21-7.56,3.21s-5.53-.95-7.28-2.83c-1.74-1.89-2.61-4.41-2.61-7.56v-18.4h7.81v16.82c0,1.55,.38,2.77,1.13,3.65,.76,.88,1.89,1.32,3.4,1.32,1.22,0,2.29-.35,3.21-1.04,.92-.69,1.53-1.65,1.83-2.87v-17.89h7.88Z"/>
    <path class="cls-1" d="M625.04,446v-13.36h-4.28v-6.3h4.28v-7.62h7.75v7.62h6.17v6.3h-6.17v12.35c0,2.14,1.07,3.21,3.21,3.21,1.3,0,2.43-.32,3.4-.95v6.93c-1.09,.59-2.77,.88-5.04,.88-2.94,0-5.23-.76-6.87-2.27-1.64-1.51-2.46-3.78-2.46-6.8Z"/>
    <path class="cls-1" d="M670.65,440.45c0,4.33-1.28,7.85-3.84,10.58-2.56,2.73-5.88,4.09-9.95,4.09s-7.39-1.36-9.95-4.09c-2.56-2.73-3.84-6.26-3.84-10.58s1.28-7.92,3.84-10.65c2.56-2.73,5.88-4.09,9.95-4.09s7.39,1.37,9.95,4.09c2.56,2.73,3.84,6.28,3.84,10.65Zm-7.75,0c0-2.44-.54-4.4-1.61-5.89-1.07-1.49-2.55-2.24-4.44-2.24s-3.37,.75-4.44,2.24c-1.07,1.49-1.61,3.46-1.61,5.89s.54,4.34,1.61,5.83c1.07,1.49,2.55,2.24,4.44,2.24s3.37-.75,4.44-2.24c1.07-1.49,1.61-3.43,1.61-5.83Z"/>
    <path class="cls-1" d="M698.12,429.3c2.18-2.39,5.02-3.59,8.51-3.59,2.9,0,5.17,.94,6.8,2.8,1.64,1.87,2.46,4.4,2.46,7.59v18.4h-7.81v-16.76c0-1.55-.35-2.78-1.04-3.69-.69-.9-1.69-1.35-2.99-1.35-1.05,0-1.97,.31-2.77,.95-.8,.63-1.32,1.53-1.58,2.71v18.14h-7.88v-16.76c0-3.36-1.32-5.04-3.97-5.04-1.05,0-1.98,.33-2.8,.98-.82,.65-1.35,1.54-1.61,2.68v18.14h-7.81v-28.16h7.81v2.33c1.55-1.97,3.93-2.96,7.12-2.96s5.75,1.2,7.56,3.59Z"/>
    <path class="cls-1" d="M745.49,454.5h-7.5v-1.51c-.5,.5-1.41,.97-2.71,1.39-1.3,.42-2.69,.63-4.16,.63-2.98,0-5.47-.82-7.47-2.46-2-1.64-2.99-3.86-2.99-6.68,0-2.65,1.04-4.81,3.12-6.49,2.08-1.68,4.67-2.52,7.78-2.52,1.18,0,2.39,.17,3.65,.5s2.18,.71,2.77,1.13v-2.08c0-1.26-.39-2.3-1.17-3.12-.78-.82-1.92-1.23-3.43-1.23-2.1,0-3.49,.88-4.16,2.65h-7.43c.42-2.6,1.71-4.76,3.88-6.46,2.16-1.7,4.82-2.55,7.97-2.55,3.74,0,6.65,.96,8.73,2.87,2.08,1.91,3.12,4.57,3.12,7.97v17.96Zm-7.5-7.69v-2.02c-.34-.76-.98-1.35-1.92-1.79-.95-.44-2.01-.66-3.18-.66-1.34,0-2.51,.29-3.5,.88-.99,.59-1.48,1.45-1.48,2.58s.48,2,1.45,2.58c.97,.59,2.14,.88,3.53,.88,1.18,0,2.24-.22,3.18-.66,.95-.44,1.58-1.04,1.92-1.79Z"/>
    <path class="cls-1" d="M753.3,446v-13.36h-4.28v-6.3h4.28v-7.62h7.75v7.62h6.17v6.3h-6.17v12.35c0,2.14,1.07,3.21,3.21,3.21,1.3,0,2.43-.32,3.4-.95v6.93c-1.09,.59-2.77,.88-5.04,.88-2.94,0-5.23-.76-6.87-2.27-1.64-1.51-2.46-3.78-2.46-6.8Z"/>
    <path class="cls-1" d="M790.22,445.3h7.25c-.5,3.07-1.84,5.47-4,7.21-2.16,1.74-4.99,2.61-8.47,2.61-4.07,0-7.37-1.35-9.89-4.06-2.52-2.71-3.78-6.25-3.78-10.62s1.27-7.76,3.81-10.55c2.54-2.79,5.79-4.19,9.73-4.19s7.17,1.27,9.42,3.81c2.25,2.54,3.37,5.93,3.37,10.17v2.39h-18.77c.13,2.1,.73,3.75,1.83,4.95,1.09,1.2,2.52,1.8,4.28,1.8,2.86,0,4.6-1.18,5.23-3.53Zm-5.29-13.23c-3.19,0-5.15,1.76-5.86,5.29h10.9c-.04-1.55-.5-2.82-1.39-3.81-.88-.99-2.1-1.48-3.65-1.48Z"/>
    <path class="cls-1" d="M820.96,454.5v-2.33c-.67,.8-1.66,1.49-2.96,2.08-1.3,.59-2.67,.88-4.1,.88-3.95,0-7.07-1.4-9.36-4.19-2.29-2.79-3.43-6.29-3.43-10.49s1.14-7.71,3.43-10.52c2.29-2.81,5.41-4.22,9.36-4.22,1.43,0,2.79,.29,4.1,.88,1.3,.59,2.29,1.28,2.96,2.08v-15.12h7.88v40.95h-7.88Zm0-9.45v-9.26c-.46-.97-1.18-1.75-2.14-2.36-.97-.61-2.02-.91-3.15-.91-2.06,0-3.7,.75-4.91,2.24-1.22,1.49-1.83,3.39-1.83,5.7s.61,4.2,1.83,5.67c1.22,1.47,2.86,2.21,4.91,2.21,1.17,0,2.24-.3,3.18-.91,.95-.61,1.65-1.4,2.11-2.36Z"/>
  </g>
  <g>
    <path class="cls-1" d="M424.07,569.47h8.32c1.05,3.32,3.61,4.98,7.69,4.98,1.97,0,3.55-.43,4.72-1.29,1.18-.86,1.76-2.05,1.76-3.56,0-1.17-.37-2.1-1.1-2.77-.74-.67-1.94-1.2-3.62-1.58l-6.93-1.58c-6.55-1.47-9.83-5-9.83-10.58,0-3.49,1.3-6.34,3.91-8.57,2.6-2.23,5.94-3.34,10.02-3.34,4.28,0,7.72,1.02,10.3,3.05,2.58,2.04,4.21,4.76,4.88,8.16h-8c-1.05-3.07-3.42-4.6-7.12-4.6-1.85,0-3.33,.41-4.44,1.23-1.11,.82-1.67,1.92-1.67,3.31,0,2.14,1.45,3.55,4.35,4.22l7.06,1.64c6.76,1.55,10.14,5.19,10.14,10.9,0,3.65-1.34,6.57-4.03,8.76-2.69,2.18-6.13,3.28-10.33,3.28s-7.92-1.03-10.77-3.09c-2.86-2.06-4.62-4.91-5.29-8.57Z"/>
    <path class="cls-1" d="M484.74,552.34v28.16h-7.81v-2.58c-1.93,2.14-4.45,3.21-7.56,3.21s-5.53-.95-7.28-2.83c-1.74-1.89-2.61-4.41-2.61-7.56v-18.4h7.81v16.82c0,1.55,.38,2.77,1.13,3.65,.76,.88,1.89,1.32,3.4,1.32,1.22,0,2.29-.35,3.21-1.04,.92-.69,1.53-1.65,1.83-2.87v-17.89h7.88Z"/>
    <path class="cls-1" d="M509.44,578.61v-1.64c-1.6,1.93-3.91,2.9-6.93,2.9-3.91,0-7.01-1.36-9.32-4.09s-3.46-6.07-3.46-10.02,1.16-7.22,3.46-9.95c2.31-2.73,5.42-4.09,9.32-4.09,2.98,0,5.29,.95,6.93,2.83v-2.21h7.75v25.07c0,4.66-1.26,8.18-3.78,10.55-2.52,2.37-5.86,3.56-10.02,3.56-3.65,0-6.65-.88-8.98-2.65-2.33-1.76-3.71-4.22-4.13-7.37h7.56c.63,2.65,2.48,3.97,5.54,3.97,4.03,0,6.05-2.29,6.05-6.87Zm0-8.25v-9.2c-1.18-1.93-2.94-2.9-5.29-2.9-2.06,0-3.68,.69-4.85,2.08s-1.76,3.19-1.76,5.42,.59,4.04,1.76,5.45c1.18,1.41,2.79,2.11,4.85,2.11,1.13,0,2.17-.28,3.12-.85,.95-.57,1.67-1.27,2.17-2.11Z"/>
    <path class="cls-1" d="M541.94,578.61v-1.64c-1.6,1.93-3.91,2.9-6.93,2.9-3.91,0-7.01-1.36-9.32-4.09s-3.46-6.07-3.46-10.02,1.16-7.22,3.46-9.95c2.31-2.73,5.42-4.09,9.32-4.09,2.98,0,5.29,.95,6.93,2.83v-2.21h7.75v25.07c0,4.66-1.26,8.18-3.78,10.55-2.52,2.37-5.86,3.56-10.02,3.56-3.65,0-6.65-.88-8.98-2.65-2.33-1.76-3.71-4.22-4.13-7.37h7.56c.63,2.65,2.48,3.97,5.54,3.97,4.03,0,6.05-2.29,6.05-6.87Zm0-8.25v-9.2c-1.18-1.93-2.94-2.9-5.29-2.9-2.06,0-3.68,.69-4.85,2.08s-1.76,3.19-1.76,5.42,.59,4.04,1.76,5.45c1.18,1.41,2.79,2.11,4.85,2.11,1.13,0,2.17-.28,3.12-.85,.95-.57,1.67-1.27,2.17-2.11Z"/>
    <path class="cls-1" d="M573.63,571.3h7.25c-.5,3.07-1.84,5.47-4,7.21-2.16,1.74-4.99,2.61-8.47,2.61-4.07,0-7.37-1.35-9.89-4.06-2.52-2.71-3.78-6.25-3.78-10.62s1.27-7.76,3.81-10.55c2.54-2.79,5.79-4.19,9.73-4.19s7.17,1.27,9.42,3.81c2.25,2.54,3.37,5.93,3.37,10.17v2.39h-18.77c.13,2.1,.73,3.75,1.83,4.95,1.09,1.2,2.52,1.8,4.28,1.8,2.86,0,4.6-1.18,5.23-3.53Zm-5.29-13.23c-3.19,0-5.15,1.76-5.86,5.29h10.9c-.04-1.55-.5-2.82-1.39-3.81-.88-.99-2.1-1.48-3.65-1.48Z"/>
    <path class="cls-1" d="M584.28,572.12h7.75c.63,2.06,2.21,3.09,4.72,3.09,2.65,0,3.97-.92,3.97-2.77,0-.63-.22-1.12-.66-1.48-.44-.36-1.17-.66-2.17-.91l-5.67-1.26c-4.87-1.13-7.31-3.78-7.31-7.94,0-2.69,1.07-4.88,3.21-6.58s4.81-2.55,8-2.55c3.49,0,6.23,.77,8.22,2.3,1.99,1.53,3.24,3.66,3.75,6.39h-7.43c-.59-1.85-2.06-2.77-4.41-2.77-1.01,0-1.88,.23-2.61,.69-.74,.46-1.1,1.11-1.1,1.95,0,1.05,.84,1.79,2.52,2.21l5.8,1.32c5,1.22,7.5,3.95,7.5,8.19,0,2.81-1.08,5.04-3.24,6.68-2.16,1.64-4.92,2.46-8.28,2.46s-6.34-.79-8.57-2.36c-2.23-1.58-3.55-3.79-3.97-6.65Z"/>
    <path class="cls-1" d="M615.34,572v-13.36h-4.28v-6.3h4.28v-7.62h7.75v7.62h6.17v6.3h-6.17v12.35c0,2.14,1.07,3.21,3.21,3.21,1.3,0,2.43-.32,3.4-.95v6.93c-1.09,.59-2.77,.88-5.04,.88-2.94,0-5.23-.76-6.87-2.27-1.64-1.51-2.46-3.78-2.46-6.8Z"/>
    <path class="cls-1" d="M643.87,544.21c0,1.3-.45,2.37-1.35,3.21-.9,.84-1.98,1.26-3.25,1.26s-2.4-.42-3.31-1.26c-.9-.84-1.35-1.91-1.35-3.21s.46-2.32,1.39-3.18c.92-.86,2.02-1.29,3.28-1.29s2.34,.43,3.25,1.29c.9,.86,1.35,1.92,1.35,3.18Zm-.69,8.13v28.16h-7.81v-28.16h7.81Z"/>
    <path class="cls-1" d="M649.99,580.5v-28.16h7.81v2.58c1.85-2.14,4.37-3.21,7.56-3.21s5.6,.95,7.34,2.83c1.74,1.89,2.61,4.41,2.61,7.56v18.4h-7.81v-16.76c0-1.51-.39-2.72-1.17-3.62-.78-.9-1.92-1.35-3.43-1.35-1.22,0-2.3,.35-3.25,1.04-.94,.69-1.56,1.65-1.86,2.87v17.83h-7.81Z"/>
    <path class="cls-1" d="M699.75,578.61v-1.64c-1.6,1.93-3.91,2.9-6.93,2.9-3.91,0-7.01-1.36-9.32-4.09s-3.46-6.07-3.46-10.02,1.16-7.22,3.46-9.95c2.31-2.73,5.42-4.09,9.32-4.09,2.98,0,5.29,.95,6.93,2.83v-2.21h7.75v25.07c0,4.66-1.26,8.18-3.78,10.55-2.52,2.37-5.86,3.56-10.02,3.56-3.65,0-6.65-.88-8.98-2.65-2.33-1.76-3.71-4.22-4.13-7.37h7.56c.63,2.65,2.48,3.97,5.54,3.97,4.03,0,6.05-2.29,6.05-6.87Zm0-8.25v-9.2c-1.18-1.93-2.94-2.9-5.29-2.9-2.06,0-3.68,.69-4.85,2.08s-1.76,3.19-1.76,5.42,.59,4.04,1.76,5.45c1.18,1.41,2.79,2.11,4.85,2.11,1.13,0,2.17-.28,3.12-.85,.95-.57,1.67-1.27,2.17-2.11Z"/>
  </g>
  <g>
    <path class="cls-1" d="M456.3,672.83c3.42,3.76,5.13,8.54,5.13,14.33s-1.71,10.57-5.13,14.33c-3.42,3.76-7.82,5.64-13.2,5.64s-9.76-1.88-13.17-5.64c-3.4-3.76-5.1-8.54-5.1-14.33s1.7-10.63,5.1-14.36c3.4-3.74,7.79-5.61,13.17-5.61s9.78,1.88,13.2,5.64Zm-5.8,23.59c1.87-2.35,2.8-5.44,2.8-9.26s-.93-6.91-2.8-9.26-4.34-3.53-7.4-3.53-5.46,1.18-7.31,3.53c-1.85,2.35-2.77,5.44-2.77,9.26s.92,6.91,2.77,9.26c1.85,2.35,4.28,3.53,7.31,3.53s5.53-1.18,7.4-3.53Z"/>
    <path class="cls-1" d="M501.56,665.74v6.61c-.71-.5-1.64-.76-2.77-.76s-2.11,.34-2.8,1.01c-.69,.67-1.04,1.64-1.04,2.9v2.83h5.86v6.3h-5.86v21.86h-7.69v-21.86h-10.65v21.86h-7.69v-21.86h-4.6v-6.3h4.6v-2.96c0-3.15,.9-5.61,2.71-7.37,1.8-1.76,4.22-2.65,7.24-2.65,1.76,0,3.21,.25,4.35,.76v6.62c-.71-.5-1.64-.76-2.77-.76s-2.11,.33-2.8,.98c-.69,.65-1.04,1.59-1.04,2.8v2.58h10.65v-3.34c0-3.15,.9-5.61,2.71-7.37,1.8-1.76,4.22-2.65,7.24-2.65,1.76,0,3.21,.25,4.35,.76Z"/>
  </g>
  <g>
    <path class="cls-1" d="M330.75,294.32h8l14.8,38.68h-8.19l-3.46-9.32h-14.49l-3.4,9.32h-8.06l14.8-38.68Zm3.91,9.7l-4.73,12.85h9.45l-4.72-12.85Z"/>
    <path class="cls-1" d="M382.28,304.84v28.16h-7.81v-2.58c-1.93,2.14-4.45,3.21-7.56,3.21s-5.53-.95-7.28-2.84c-1.74-1.89-2.61-4.41-2.61-7.56v-18.4h7.81v16.82c0,1.55,.38,2.77,1.13,3.65s1.89,1.32,3.4,1.32c1.22,0,2.29-.35,3.21-1.04,.92-.69,1.53-1.65,1.83-2.87v-17.89h7.88Z"/>
    <path class="cls-1" d="M390.73,324.5v-13.36h-4.28v-6.3h4.28v-7.62h7.75v7.62h6.17v6.3h-6.17v12.35c0,2.14,1.07,3.21,3.21,3.21,1.3,0,2.43-.32,3.4-.95v6.93c-1.09,.59-2.77,.88-5.04,.88-2.94,0-5.23-.76-6.87-2.27-1.64-1.51-2.46-3.78-2.46-6.8Z"/>
    <path class="cls-1" d="M436.34,318.95c0,4.33-1.28,7.86-3.84,10.58-2.56,2.73-5.88,4.1-9.95,4.1s-7.39-1.37-9.95-4.1c-2.56-2.73-3.84-6.26-3.84-10.58s1.28-7.92,3.84-10.65c2.56-2.73,5.88-4.1,9.95-4.1s7.39,1.37,9.95,4.1,3.84,6.28,3.84,10.65Zm-7.75,0c0-2.44-.54-4.4-1.61-5.89-1.07-1.49-2.55-2.24-4.44-2.24s-3.37,.75-4.44,2.24c-1.07,1.49-1.61,3.46-1.61,5.89s.54,4.34,1.61,5.83c1.07,1.49,2.55,2.24,4.44,2.24s3.37-.75,4.44-2.24c1.07-1.49,1.61-3.43,1.61-5.83Z"/>
    <path class="cls-1" d="M457.82,292.24v6.61c-.71-.5-1.64-.76-2.77-.76-2.56,0-3.84,1.3-3.84,3.91v2.84h5.86v6.3h-5.86v21.86h-7.69v-21.86h-4.6v-6.3h4.6v-3.34c0-3.15,.9-5.61,2.71-7.37,1.8-1.76,4.22-2.64,7.24-2.64,1.76,0,3.21,.25,4.35,.76Z"/>
    <path class="cls-1" d="M470.36,296.71c0,1.3-.45,2.37-1.35,3.21-.9,.84-1.98,1.26-3.25,1.26s-2.4-.42-3.31-1.26c-.9-.84-1.35-1.91-1.35-3.21s.46-2.32,1.39-3.18c.92-.86,2.02-1.29,3.28-1.29s2.34,.43,3.25,1.29c.9,.86,1.35,1.92,1.35,3.18Zm-.69,8.13v28.16h-7.81v-28.16h7.81Z"/>
    <path class="cls-1" d="M484.28,292.05v40.95h-7.81v-40.95h7.81Z"/>
    <path class="cls-1" d="M498.89,292.05v40.95h-7.81v-40.95h7.81Z"/>
    <path class="cls-1" d="M517.23,324.62h7.75c.63,2.06,2.21,3.09,4.72,3.09,2.65,0,3.97-.92,3.97-2.77,0-.63-.22-1.12-.66-1.48-.44-.36-1.17-.66-2.17-.91l-5.67-1.26c-4.87-1.13-7.31-3.78-7.31-7.94,0-2.69,1.07-4.88,3.21-6.58s4.81-2.55,8-2.55c3.49,0,6.23,.77,8.22,2.3,1.99,1.53,3.24,3.66,3.75,6.39h-7.43c-.59-1.85-2.06-2.77-4.41-2.77-1.01,0-1.88,.23-2.61,.69-.74,.46-1.1,1.11-1.1,1.95,0,1.05,.84,1.79,2.52,2.21l5.8,1.32c5,1.22,7.5,3.95,7.5,8.19,0,2.81-1.08,5.04-3.24,6.68-2.16,1.64-4.92,2.46-8.28,2.46s-6.34-.79-8.57-2.36c-2.23-1.57-3.55-3.79-3.97-6.65Z"/>
    <path class="cls-1" d="M563.72,323.8h7.25c-.5,3.07-1.84,5.47-4,7.21-2.16,1.74-4.99,2.62-8.47,2.62-4.07,0-7.37-1.36-9.89-4.06-2.52-2.71-3.78-6.25-3.78-10.62s1.27-7.76,3.81-10.55c2.54-2.79,5.79-4.19,9.73-4.19s7.17,1.27,9.42,3.81c2.25,2.54,3.37,5.93,3.37,10.17v2.39h-18.77c.13,2.1,.73,3.75,1.83,4.95,1.09,1.2,2.52,1.79,4.28,1.79,2.86,0,4.6-1.18,5.23-3.53Zm-5.29-13.23c-3.19,0-5.15,1.76-5.86,5.29h10.9c-.04-1.55-.5-2.82-1.39-3.81-.88-.99-2.1-1.48-3.65-1.48Z"/>
    <path class="cls-1" d="M577.83,324.5v-13.36h-4.28v-6.3h4.28v-7.62h7.75v7.62h6.17v6.3h-6.17v12.35c0,2.14,1.07,3.21,3.21,3.21,1.3,0,2.43-.32,3.4-.95v6.93c-1.09,.59-2.77,.88-5.04,.88-2.94,0-5.23-.76-6.87-2.27-1.64-1.51-2.46-3.78-2.46-6.8Z"/>
    <path class="cls-1" d="M599.57,324.5v-13.36h-4.28v-6.3h4.28v-7.62h7.75v7.62h6.17v6.3h-6.17v12.35c0,2.14,1.07,3.21,3.21,3.21,1.3,0,2.43-.32,3.4-.95v6.93c-1.09,.59-2.77,.88-5.04,.88-2.94,0-5.23-.76-6.87-2.27-1.64-1.51-2.46-3.78-2.46-6.8Z"/>
    <path class="cls-1" d="M628.1,296.71c0,1.3-.45,2.37-1.35,3.21-.9,.84-1.98,1.26-3.25,1.26s-2.4-.42-3.31-1.26c-.9-.84-1.35-1.91-1.35-3.21s.46-2.32,1.39-3.18c.92-.86,2.02-1.29,3.28-1.29s2.34,.43,3.25,1.29c.9,.86,1.35,1.92,1.35,3.18Zm-.69,8.13v28.16h-7.81v-28.16h7.81Z"/>
    <path class="cls-1" d="M634.22,333v-28.16h7.81v2.58c1.85-2.14,4.37-3.21,7.56-3.21s5.6,.95,7.34,2.84c1.74,1.89,2.61,4.41,2.61,7.56v18.4h-7.81v-16.76c0-1.51-.39-2.72-1.17-3.62-.78-.9-1.92-1.35-3.43-1.35-1.22,0-2.3,.35-3.25,1.04-.94,.69-1.56,1.65-1.86,2.87v17.83h-7.81Z"/>
    <path class="cls-1" d="M683.99,331.11v-1.64c-1.6,1.93-3.91,2.9-6.93,2.9-3.91,0-7.01-1.37-9.32-4.1s-3.46-6.07-3.46-10.02,1.16-7.22,3.46-9.95,5.42-4.1,9.32-4.1c2.98,0,5.29,.95,6.93,2.84v-2.21h7.75v25.07c0,4.66-1.26,8.18-3.78,10.55-2.52,2.37-5.86,3.56-10.02,3.56-3.65,0-6.65-.88-8.98-2.65-2.33-1.76-3.71-4.22-4.13-7.37h7.56c.63,2.65,2.48,3.97,5.54,3.97,4.03,0,6.05-2.29,6.05-6.87Zm0-8.25v-9.2c-1.18-1.93-2.94-2.9-5.29-2.9-2.06,0-3.68,.69-4.85,2.08-1.18,1.39-1.76,3.19-1.76,5.42s.59,4.04,1.76,5.45c1.18,1.41,2.79,2.11,4.85,2.11,1.13,0,2.17-.28,3.12-.85,.95-.57,1.67-1.27,2.17-2.11Z"/>
    <path class="cls-1" d="M696.71,324.62h7.75c.63,2.06,2.21,3.09,4.72,3.09,2.65,0,3.97-.92,3.97-2.77,0-.63-.22-1.12-.66-1.48-.44-.36-1.17-.66-2.17-.91l-5.67-1.26c-4.87-1.13-7.31-3.78-7.31-7.94,0-2.69,1.07-4.88,3.21-6.58s4.81-2.55,8-2.55c3.49,0,6.23,.77,8.22,2.3,1.99,1.53,3.24,3.66,3.75,6.39h-7.43c-.59-1.85-2.06-2.77-4.41-2.77-1.01,0-1.88,.23-2.61,.69-.74,.46-1.1,1.11-1.1,1.95,0,1.05,.84,1.79,2.52,2.21l5.8,1.32c5,1.22,7.5,3.95,7.5,8.19,0,2.81-1.08,5.04-3.24,6.68-2.16,1.64-4.92,2.46-8.28,2.46s-6.34-.79-8.57-2.36c-2.23-1.57-3.55-3.79-3.97-6.65Z"/>
  </g>
  <path class="cls-1" d="M355.5,478.5c-23.16,0-42-18.84-42-42s18.84-42,42-42,42,18.84,42,42-18.84,42-42,42Zm0-72c-16.54,0-30,13.46-30,30s13.46,30,30,30,30-13.46,30-30-13.46-30-30-30Z"/>
  <g>
    <path class="cls-1" d="M355.5,520.5c-23.16,0-42,18.84-42,42s18.84,42,42,42,42-18.84,42-42-18.84-42-42-42Zm0,72c-16.54,0-30-13.46-30-30s13.46-30,30-30,30,13.46,30,30-13.46,30-30,30Z"/>
    <circle class="cls-1" cx="355.5" cy="562.5" r="18"/>
  </g>
  <path class="cls-1" d="M355.5,730.5c-23.16,0-42-18.84-42-42s18.84-42,42-42,42,18.84,42,42-18.84,42-42,42Zm0-72c-16.54,0-30,13.46-30,30s13.46,30,30,30,30-13.46,30-30-13.46-30-30-30Z"/>
</svg>