<?xml version="1.0" encoding="UTF-8"?>
<svg id="OUTLINES" xmlns="http://www.w3.org/2000/svg" viewBox="0 0 1152 1008">
  <defs>
    <style>
      .cls-1 {
        fill: #000f7d;
      }

      .cls-2 {
        fill: #fff;
      }
    </style>
  </defs>
  <path class="cls-2" d="M287.26,453H973.34c12.67,0,22.96,10.29,22.96,22.96v164.08c0,12.67-10.29,22.96-22.96,22.96H287.26c-12.67,0-22.96-10.29-22.96-22.96v-164.08c0-12.67,10.29-22.96,22.96-22.96Z"/>
  <g>
    <path class="cls-1" d="M229.42,362.36c.14-.91,.21-1.88,.21-2.79,0-9.69-7.88-17.57-17.57-17.57-4.18,0-8.09,1.46-11.22,4.04-1.53-.49-3.14-.77-4.74-.77-6.55,0-12.27,4.25-14.29,10.25-6.34,1.95-10.81,7.81-10.81,14.57,0,8.37,6.76,15.13,15.13,15.13h35.76c6.97-.21,12.41-5.86,12.41-12.83,0-3.97-1.81-7.6-4.88-10.04Z"/>
    <path class="cls-1" d="M193.87,388.85c-1.39-.56-3.07,.07-3.63,1.53l-4.39,10.81c-.56,1.39,.07,3.07,1.53,3.63,.35,.14,.7,.21,1.05,.21,1.12,0,2.16-.63,2.58-1.74l4.39-10.81c.63-1.39-.07-3.07-1.53-3.62Z"/>
    <path class="cls-1" d="M203.97,388.85c-1.39-.56-3.07,.07-3.63,1.53l-4.39,10.81c-.56,1.39,.07,3.07,1.53,3.63,.35,.14,.7,.21,1.05,.21,1.12,0,2.16-.63,2.58-1.74l4.39-10.81c.56-1.39-.14-3.07-1.53-3.62Z"/>
    <path class="cls-1" d="M214.08,388.85c-1.39-.56-3.07,.07-3.63,1.53l-4.39,10.81c-.63,1.39,.07,3,1.46,3.63,.35,.14,.7,.21,1.05,.21,1.12,0,2.16-.63,2.58-1.74l4.39-10.81c.63-1.39-.07-3.07-1.46-3.62Z"/>
    <path class="cls-1" d="M964.34,444H278.26c-12.66,0-22.96,10.3-22.96,22.96v164.08c0,12.66,10.3,22.96,22.96,22.96H964.34c12.66,0,22.96-10.3,22.96-22.96v-164.08c0-12.66-10.3-22.96-22.96-22.96Zm10.96,187.04c0,6.04-4.92,10.96-10.96,10.96H278.26c-6.04,0-10.96-4.92-10.96-10.96v-164.08c0-6.04,4.92-10.96,10.96-10.96H964.34c6.04,0,10.96,4.92,10.96,10.96v164.08Z"/>
    <rect class="cls-1" x="310.02" y="492.32" width="8.06" height="38.68"/>
    <path class="cls-1" d="M327.34,531h7.69v-21.86h5.86v-6.3h-5.86v-2.83c0-2.6,1.28-3.91,3.84-3.91,1.13,0,2.06,.25,2.77,.76v-6.61c-1.13-.5-2.58-.76-4.35-.76-3.02,0-5.44,.88-7.24,2.65-1.81,1.76-2.71,4.22-2.71,7.37v3.34h-4.6v6.3h4.6v21.86Z"/>
    <path class="cls-1" d="M366.84,528.67c.67,.8,1.66,1.49,2.96,2.08s2.67,.88,4.09,.88c3.95,0,7.07-1.4,9.36-4.19,2.29-2.79,3.43-6.29,3.43-10.49s-1.14-7.71-3.43-10.52c-2.29-2.81-5.41-4.22-9.36-4.22-1.43,0-2.79,.29-4.09,.88-1.3,.59-2.29,1.28-2.96,2.08v-15.12h-7.88v40.95h7.88v-2.33Zm0-16.38c.46-.97,1.18-1.75,2.14-2.36,.96-.61,2.02-.91,3.15-.91,2.06,0,3.7,.75,4.91,2.24,1.22,1.49,1.83,3.39,1.83,5.7s-.61,4.2-1.83,5.67c-1.22,1.47-2.86,2.21-4.91,2.21-1.18,0-2.24-.3-3.18-.91-.94-.61-1.65-1.4-2.11-2.36v-9.26Z"/>
    <path class="cls-1" d="M409.11,521.8c-.63,2.35-2.37,3.53-5.23,3.53-1.76,0-3.19-.6-4.28-1.8-1.09-1.2-1.7-2.84-1.83-4.95h18.77v-2.39c0-4.24-1.12-7.63-3.37-10.17-2.25-2.54-5.39-3.81-9.42-3.81s-7.19,1.4-9.73,4.19c-2.54,2.79-3.81,6.31-3.81,10.55s1.26,7.91,3.78,10.62c2.52,2.71,5.82,4.06,9.89,4.06,3.49,0,6.31-.87,8.47-2.61,2.16-1.74,3.5-4.15,4-7.21h-7.25Zm-5.29-13.23c1.55,0,2.77,.49,3.65,1.48,.88,.99,1.34,2.26,1.39,3.81h-10.9c.71-3.53,2.67-5.29,5.86-5.29Z"/>
    <rect class="cls-1" x="421.52" y="490.05" width="7.81" height="40.95"/>
    <path class="cls-1" d="M448.17,502.21c-4.07,0-7.39,1.37-9.95,4.09-2.56,2.73-3.84,6.28-3.84,10.65s1.28,7.85,3.84,10.58c2.56,2.73,5.88,4.09,9.95,4.09s7.39-1.36,9.95-4.09c2.56-2.73,3.84-6.26,3.84-10.58s-1.28-7.92-3.84-10.65c-2.56-2.73-5.88-4.09-9.95-4.09Zm4.44,20.57c-1.07,1.49-2.55,2.24-4.44,2.24s-3.37-.75-4.44-2.24c-1.07-1.49-1.61-3.43-1.61-5.83s.54-4.4,1.61-5.89c1.07-1.49,2.55-2.24,4.44-2.24s3.37,.75,4.44,2.24c1.07,1.49,1.61,3.46,1.61,5.89s-.54,4.34-1.61,5.83Z"/>
    <polygon class="cls-1" points="492.15 520.79 487.49 502.84 481.5 502.84 476.9 520.79 471.86 502.84 464.05 502.84 472.62 531 479.8 531 484.4 513.74 489 531 496.18 531 504.75 502.84 497.19 502.84 492.15 520.79"/>
    <path class="cls-1" d="M535.43,531.63c4.2,0,7.53-1.27,9.99-3.81,2.46-2.54,3.69-5.7,3.69-9.48,0-3.57-1.16-6.58-3.46-9.04-2.31-2.46-5.35-3.69-9.13-3.69-1.85,0-3.51,.38-4.98,1.13-1.47,.76-2.52,1.74-3.15,2.96v-.57c0-2.86,.69-5.38,2.08-7.56,1.39-2.18,3.19-3.28,5.42-3.28,2.6,0,4.3,1.26,5.1,3.78h7.81c-.71-3.32-2.16-5.88-4.35-7.69s-5.06-2.71-8.63-2.71c-4.54,0-8.14,1.93-10.8,5.8s-4,8.86-4,14.99c0,4.96,.9,9.01,2.71,12.16,2.56,4.66,6.47,6.99,11.72,6.99Zm-4.6-17.96c1.17-1.22,2.73-1.83,4.66-1.83s3.42,.61,4.6,1.83c1.18,1.22,1.76,2.83,1.76,4.85s-.6,3.5-1.79,4.69c-1.2,1.2-2.72,1.79-4.57,1.79s-3.49-.6-4.66-1.79c-1.18-1.2-1.76-2.76-1.76-4.69s.59-3.63,1.76-4.85Z"/>
    <polygon class="cls-1" points="569.57 531 576.76 531 576.76 523.31 582.62 523.31 582.62 516.7 576.76 516.7 576.76 508.7 569.57 508.7 569.57 516.7 561.01 516.7 573.61 492.32 565.73 492.32 552.38 517.52 552.38 523.31 569.57 523.31 569.57 531"/>
    <polygon class="cls-1" points="611.97 492.32 588.03 531 593.32 531 617.26 492.32 611.97 492.32"/>
    <path class="cls-1" d="M592.19,509.58c2.48,0,4.59-.86,6.33-2.58,1.74-1.72,2.61-3.82,2.61-6.3s-.87-4.6-2.61-6.36c-1.74-1.76-3.85-2.65-6.33-2.65s-4.59,.88-6.33,2.65c-1.74,1.76-2.61,3.89-2.61,6.36s.87,4.58,2.61,6.3c1.74,1.72,3.85,2.58,6.33,2.58Zm-2.65-11.56c.71-.73,1.6-1.1,2.65-1.1s1.88,.37,2.61,1.1c.73,.74,1.1,1.63,1.1,2.68s-.37,1.87-1.1,2.58c-.74,.71-1.61,1.07-2.61,1.07s-1.93-.36-2.65-1.07c-.71-.71-1.07-1.58-1.07-2.58s.36-1.94,1.07-2.68Z"/>
    <path class="cls-1" d="M619.44,528.98c1.74-1.76,2.61-3.88,2.61-6.36s-.87-4.58-2.61-6.3c-1.74-1.72-3.85-2.58-6.33-2.58s-4.59,.86-6.33,2.58c-1.74,1.72-2.61,3.82-2.61,6.3s.87,4.6,2.61,6.36c1.74,1.76,3.85,2.65,6.33,2.65s4.59-.88,6.33-2.65Zm-10.11-6.36c0-1.01,.37-1.87,1.1-2.58,.73-.71,1.63-1.07,2.68-1.07s1.93,.36,2.65,1.07c.71,.71,1.07,1.58,1.07,2.58s-.36,1.94-1.07,2.68c-.71,.74-1.6,1.1-2.65,1.1s-1.94-.37-2.68-1.1c-.74-.73-1.1-1.63-1.1-2.68Z"/>
    <path class="cls-1" d="M629.67,537.87l3.59-5.36c1.34-2.02,2.02-3.91,2.02-5.67s-.46-2.99-1.39-3.94c-.92-.94-2.1-1.42-3.53-1.42s-2.55,.45-3.5,1.35c-.94,.9-1.42,2.05-1.42,3.43,0,1.22,.36,2.23,1.07,3.02,.71,.8,1.62,1.3,2.71,1.51l-4.6,7.06h5.04Z"/>
    <polygon class="cls-1" points="672.33 502.84 665.9 521.55 659.41 502.84 651.16 502.84 661.93 531.13 657.83 541.39 665.52 541.39 680.2 502.84 672.33 502.84"/>
    <path class="cls-1" d="M709.37,516.95c0-4.37-1.28-7.92-3.84-10.65-2.56-2.73-5.88-4.09-9.95-4.09s-7.39,1.37-9.95,4.09c-2.56,2.73-3.84,6.28-3.84,10.65s1.28,7.85,3.84,10.58c2.56,2.73,5.88,4.09,9.95,4.09s7.39-1.36,9.95-4.09c2.56-2.73,3.84-6.26,3.84-10.58Zm-9.36,5.83c-1.07,1.49-2.55,2.24-4.44,2.24s-3.37-.75-4.44-2.24c-1.07-1.49-1.61-3.43-1.61-5.83s.54-4.4,1.61-5.89c1.07-1.49,2.55-2.24,4.44-2.24s3.37,.75,4.44,2.24c1.07,1.49,1.61,3.46,1.61,5.89s-.54,4.34-1.61,5.83Z"/>
    <path class="cls-1" d="M731.42,520.73c-.29,1.22-.9,2.17-1.83,2.87-.92,.69-2,1.04-3.21,1.04-1.51,0-2.65-.44-3.4-1.32-.76-.88-1.13-2.1-1.13-3.65v-16.82h-7.81v18.4c0,3.15,.87,5.67,2.61,7.56,1.74,1.89,4.17,2.83,7.28,2.83s5.63-1.07,7.56-3.21v2.58h7.81v-28.16h-7.88v17.89Z"/>
    <path class="cls-1" d="M753.85,513.55c.29-1.26,.92-2.24,1.89-2.93,.97-.69,2.12-1.04,3.47-1.04,1.55,0,2.86,.31,3.91,.95v-7.81c-.59-.34-1.57-.5-2.96-.5-2.86,0-4.96,1.13-6.3,3.4v-2.77h-7.81v28.16h7.81v-17.45Z"/>
    <path class="cls-1" d="M792.53,531.63c1.43,0,2.79-.29,4.1-.88,1.3-.59,2.29-1.28,2.96-2.08v12.73h7.81v-38.56h-7.81v2.33c-.67-.8-1.66-1.49-2.96-2.08-1.3-.59-2.67-.88-4.1-.88-3.95,0-7.08,1.42-9.39,4.25-2.31,2.83-3.46,6.33-3.46,10.49s1.15,7.64,3.46,10.46c2.31,2.81,5.44,4.22,9.39,4.22Zm-3.15-20.38c1.22-1.49,2.86-2.24,4.91-2.24,1.13,0,2.17,.31,3.12,.91,.95,.61,1.67,1.4,2.17,2.36v9.26c-.46,.97-1.18,1.75-2.14,2.36-.97,.61-2.02,.91-3.15,.91-2.06,0-3.7-.73-4.91-2.21-1.22-1.47-1.83-3.36-1.83-5.67s.61-4.21,1.83-5.7Z"/>
    <path class="cls-1" d="M839.15,531v-28.16h-7.88v17.89c-.29,1.22-.9,2.17-1.83,2.87-.92,.69-2,1.04-3.21,1.04-1.51,0-2.65-.44-3.4-1.32-.76-.88-1.13-2.1-1.13-3.65v-16.82h-7.81v18.4c0,3.15,.87,5.67,2.61,7.56,1.74,1.89,4.17,2.83,7.28,2.83s5.63-1.07,7.56-3.21v2.58h7.81Z"/>
    <path class="cls-1" d="M857.92,531.63c4.07,0,7.39-1.36,9.95-4.09,2.56-2.73,3.84-6.26,3.84-10.58s-1.28-7.92-3.84-10.65c-2.56-2.73-5.88-4.09-9.95-4.09s-7.39,1.37-9.95,4.09c-2.56,2.73-3.84,6.28-3.84,10.65s1.28,7.85,3.84,10.58c2.56,2.73,5.88,4.09,9.95,4.09Zm-4.44-20.57c1.07-1.49,2.55-2.24,4.44-2.24s3.37,.75,4.44,2.24c1.07,1.49,1.61,3.46,1.61,5.89s-.54,4.34-1.61,5.83c-1.07,1.49-2.55,2.24-4.44,2.24s-3.37-.75-4.44-2.24c-1.07-1.49-1.61-3.43-1.61-5.83s.54-4.4,1.61-5.89Z"/>
    <path class="cls-1" d="M878.4,522.5c0,3.02,.82,5.29,2.46,6.8,1.64,1.51,3.93,2.27,6.87,2.27,2.27,0,3.95-.29,5.04-.88v-6.93c-.97,.63-2.1,.95-3.4,.95-2.14,0-3.21-1.07-3.21-3.21v-12.35h6.17v-6.3h-6.17v-7.62h-7.75v7.62h-4.28v6.3h4.28v13.36Z"/>
    <path class="cls-1" d="M909.96,502.21c-3.95,0-7.19,1.4-9.73,4.19-2.54,2.79-3.81,6.31-3.81,10.55s1.26,7.91,3.78,10.62c2.52,2.71,5.82,4.06,9.89,4.06,3.49,0,6.31-.87,8.47-2.61,2.16-1.74,3.5-4.15,4-7.21h-7.25c-.63,2.35-2.37,3.53-5.23,3.53-1.76,0-3.19-.6-4.28-1.8-1.09-1.2-1.7-2.84-1.83-4.95h18.77v-2.39c0-4.24-1.12-7.63-3.37-10.17-2.25-2.54-5.39-3.81-9.42-3.81Zm-5.8,11.66c.71-3.53,2.67-5.29,5.86-5.29,1.55,0,2.77,.49,3.65,1.48,.88,.99,1.34,2.26,1.39,3.81h-10.9Z"/>
    <polygon class="cls-1" points="335.22 596.39 330.55 578.44 324.57 578.44 319.97 596.39 314.93 578.44 307.12 578.44 315.69 606.6 322.87 606.6 327.47 589.34 332.07 606.6 339.25 606.6 347.82 578.44 340.26 578.44 335.22 596.39"/>
    <path class="cls-1" d="M363.76,577.81c-4.07,0-7.39,1.37-9.95,4.09-2.56,2.73-3.84,6.28-3.84,10.65s1.28,7.85,3.84,10.58c2.56,2.73,5.88,4.09,9.95,4.09s7.39-1.36,9.95-4.09c2.56-2.73,3.84-6.26,3.84-10.58s-1.28-7.92-3.84-10.65c-2.56-2.73-5.88-4.09-9.95-4.09Zm4.44,20.57c-1.07,1.49-2.55,2.24-4.44,2.24s-3.37-.75-4.44-2.24c-1.07-1.49-1.61-3.43-1.61-5.83s.54-4.4,1.61-5.89c1.07-1.49,2.55-2.24,4.44-2.24s3.37,.75,4.44,2.24c1.07,1.49,1.61,3.46,1.61,5.89s-.54,4.34-1.61,5.83Z"/>
    <path class="cls-1" d="M399.6,596.33c-.29,1.22-.9,2.17-1.83,2.87-.92,.69-2,1.04-3.21,1.04-1.51,0-2.65-.44-3.4-1.32-.76-.88-1.13-2.1-1.13-3.65v-16.82h-7.81v18.4c0,3.15,.87,5.67,2.61,7.56,1.74,1.89,4.17,2.83,7.28,2.83s5.63-1.07,7.56-3.21v2.58h7.81v-28.16h-7.88v17.89Z"/>
    <rect class="cls-1" x="414.22" y="565.65" width="7.81" height="40.95"/>
    <path class="cls-1" d="M446.92,580.77c-.67-.8-1.66-1.49-2.96-2.08-1.3-.59-2.67-.88-4.1-.88-3.95,0-7.07,1.41-9.36,4.22-2.29,2.81-3.43,6.32-3.43,10.52s1.14,7.7,3.43,10.49c2.29,2.79,5.41,4.19,9.36,4.19,1.43,0,2.79-.29,4.1-.88,1.3-.59,2.29-1.28,2.96-2.08v2.33h7.88v-40.95h-7.88v15.12Zm0,16.38c-.46,.97-1.17,1.75-2.11,2.36-.94,.61-2.01,.91-3.18,.91-2.06,0-3.7-.73-4.91-2.21-1.22-1.47-1.83-3.36-1.83-5.67s.61-4.21,1.83-5.7c1.22-1.49,2.86-2.24,4.91-2.24,1.13,0,2.18,.31,3.15,.91,.97,.61,1.68,1.4,2.14,2.36v9.26Z"/>
    <path class="cls-1" d="M490.26,577.81c-3.19,0-5.71,1.07-7.56,3.21v-15.37h-7.81v40.95h7.81v-17.83c.29-1.22,.91-2.17,1.86-2.87,.95-.69,2.03-1.04,3.25-1.04,1.51,0,2.66,.45,3.43,1.35,.78,.9,1.17,2.11,1.17,3.62v16.76h7.81v-18.4c0-3.15-.87-5.67-2.61-7.56-1.74-1.89-4.19-2.83-7.34-2.83Z"/>
    <path class="cls-1" d="M517.98,577.81c-3.15,0-5.81,.85-7.97,2.55-2.16,1.7-3.46,3.85-3.88,6.46h7.43c.67-1.76,2.06-2.65,4.16-2.65,1.51,0,2.66,.41,3.43,1.23,.78,.82,1.17,1.86,1.17,3.12v2.08c-.59-.42-1.51-.8-2.77-1.13s-2.48-.5-3.65-.5c-3.11,0-5.7,.84-7.78,2.52-2.08,1.68-3.12,3.84-3.12,6.49,0,2.81,1,5.04,2.99,6.68,1.99,1.64,4.48,2.46,7.47,2.46,1.47,0,2.86-.21,4.16-.63,1.3-.42,2.21-.88,2.71-1.39v1.51h7.5v-17.96c0-3.4-1.04-6.06-3.12-7.97-2.08-1.91-4.99-2.87-8.73-2.87Zm4.35,21.11c-.34,.76-.98,1.35-1.92,1.79-.95,.44-2.01,.66-3.18,.66-1.39,0-2.56-.29-3.53-.88-.97-.59-1.45-1.45-1.45-2.58s.49-1.99,1.48-2.58c.99-.59,2.15-.88,3.5-.88,1.18,0,2.24,.22,3.18,.66,.95,.44,1.58,1.04,1.92,1.79v2.02Z"/>
    <polygon class="cls-1" points="547.46 597.15 540.97 578.44 532.78 578.44 543.43 606.6 550.99 606.6 561.7 578.44 553.83 578.44 547.46 597.15"/>
    <path class="cls-1" d="M576.82,577.81c-3.95,0-7.19,1.4-9.73,4.19-2.54,2.79-3.81,6.31-3.81,10.55s1.26,7.91,3.78,10.62c2.52,2.71,5.82,4.06,9.89,4.06,3.49,0,6.31-.87,8.47-2.61,2.16-1.74,3.5-4.15,4-7.21h-7.25c-.63,2.35-2.37,3.53-5.23,3.53-1.76,0-3.19-.6-4.28-1.8-1.09-1.2-1.7-2.84-1.83-4.95h18.77v-2.39c0-4.24-1.12-7.63-3.37-10.17-2.25-2.54-5.39-3.81-9.42-3.81Zm-5.8,11.66c.71-3.53,2.67-5.29,5.86-5.29,1.55,0,2.77,.49,3.65,1.48,.88,.99,1.34,2.26,1.39,3.81h-10.9Z"/>
    <path class="cls-1" d="M622.81,577.81c-1.43,0-2.79,.29-4.09,.88-1.3,.59-2.29,1.28-2.96,2.08v-15.12h-7.88v40.95h7.88v-2.33c.67,.8,1.66,1.49,2.96,2.08s2.67,.88,4.09,.88c3.95,0,7.07-1.4,9.36-4.19,2.29-2.79,3.43-6.29,3.43-10.49s-1.14-7.71-3.43-10.52c-2.29-2.81-5.41-4.22-9.36-4.22Zm3.15,20.41c-1.22,1.47-2.86,2.21-4.91,2.21-1.18,0-2.24-.3-3.18-.91-.94-.61-1.65-1.4-2.11-2.36v-9.26c.46-.97,1.18-1.75,2.14-2.36,.96-.61,2.02-.91,3.15-.91,2.06,0,3.7,.75,4.91,2.24,1.22,1.49,1.83,3.39,1.83,5.7s-.61,4.2-1.83,5.67Z"/>
    <path class="cls-1" d="M652.67,577.81c-3.95,0-7.19,1.4-9.73,4.19-2.54,2.79-3.81,6.31-3.81,10.55s1.26,7.91,3.78,10.62c2.52,2.71,5.82,4.06,9.89,4.06,3.49,0,6.31-.87,8.47-2.61,2.16-1.74,3.5-4.15,4-7.21h-7.25c-.63,2.35-2.37,3.53-5.23,3.53-1.76,0-3.19-.6-4.28-1.8-1.09-1.2-1.7-2.84-1.83-4.95h18.77v-2.39c0-4.24-1.12-7.63-3.37-10.17-2.25-2.54-5.39-3.81-9.42-3.81Zm-5.8,11.66c.71-3.53,2.67-5.29,5.86-5.29,1.55,0,2.77,.49,3.65,1.48,.88,.99,1.34,2.26,1.39,3.81h-10.9Z"/>
    <path class="cls-1" d="M682.47,577.81c-3.95,0-7.19,1.4-9.73,4.19-2.54,2.79-3.81,6.31-3.81,10.55s1.26,7.91,3.78,10.62c2.52,2.71,5.82,4.06,9.89,4.06,3.49,0,6.31-.87,8.47-2.61,2.16-1.74,3.5-4.15,4-7.21h-7.25c-.63,2.35-2.37,3.53-5.23,3.53-1.76,0-3.19-.6-4.28-1.8-1.09-1.2-1.7-2.84-1.83-4.95h18.77v-2.39c0-4.24-1.12-7.63-3.37-10.17-2.25-2.54-5.39-3.81-9.42-3.81Zm-5.8,11.66c.71-3.53,2.67-5.29,5.86-5.29,1.55,0,2.77,.49,3.65,1.48,.88,.99,1.34,2.26,1.39,3.81h-10.9Z"/>
    <path class="cls-1" d="M715.61,577.81c-3.19,0-5.71,1.07-7.56,3.21v-2.58h-7.81v28.16h7.81v-17.83c.29-1.22,.91-2.17,1.86-2.87,.95-.69,2.03-1.04,3.25-1.04,1.51,0,2.66,.45,3.43,1.35,.78,.9,1.17,2.11,1.17,3.62v16.76h7.81v-18.4c0-3.15-.87-5.67-2.61-7.56-1.74-1.89-4.19-2.83-7.34-2.83Z"/>
    <path class="cls-1" d="M757.18,584.49c1.26,0,2.3,.31,3.12,.91,.82,.61,1.33,1.46,1.54,2.55h7.69c-.42-3.06-1.72-5.52-3.91-7.37-2.18-1.85-5-2.77-8.44-2.77-3.99,0-7.24,1.37-9.76,4.09-2.52,2.73-3.78,6.28-3.78,10.65s1.26,7.85,3.78,10.58c2.52,2.73,5.77,4.09,9.76,4.09,3.49,0,6.31-.92,8.47-2.77,2.16-1.85,3.45-4.3,3.88-7.37h-7.69c-.21,1.09-.72,1.94-1.54,2.55-.82,.61-1.86,.91-3.12,.91-1.76,0-3.17-.73-4.22-2.21-1.05-1.47-1.58-3.4-1.58-5.8s.53-4.39,1.58-5.86c1.05-1.47,2.46-2.21,4.22-2.21Z"/>
    <path class="cls-1" d="M789.69,577.81c-3.19,0-5.71,1.07-7.56,3.21v-15.37h-7.81v40.95h7.81v-17.83c.29-1.22,.91-2.17,1.86-2.87,.95-.69,2.03-1.04,3.25-1.04,1.51,0,2.66,.45,3.43,1.35,.78,.9,1.17,2.11,1.17,3.62v16.76h7.81v-18.4c0-3.15-.87-5.67-2.61-7.56-1.74-1.89-4.19-2.83-7.34-2.83Z"/>
    <path class="cls-1" d="M817.92,577.81c-3.95,0-7.19,1.4-9.73,4.19-2.54,2.79-3.81,6.31-3.81,10.55s1.26,7.91,3.78,10.62c2.52,2.71,5.82,4.06,9.89,4.06,3.49,0,6.31-.87,8.47-2.61,2.16-1.74,3.5-4.15,4-7.21h-7.25c-.63,2.35-2.37,3.53-5.23,3.53-1.76,0-3.19-.6-4.28-1.8-1.09-1.2-1.7-2.84-1.83-4.95h18.77v-2.39c0-4.24-1.12-7.63-3.37-10.17-2.25-2.54-5.39-3.81-9.42-3.81Zm-5.8,11.66c.71-3.53,2.67-5.29,5.86-5.29,1.55,0,2.77,.49,3.65,1.48,.88,.99,1.34,2.26,1.39,3.81h-10.9Z"/>
    <path class="cls-1" d="M847.02,577.81c-3.15,0-5.81,.85-7.97,2.55-2.16,1.7-3.46,3.85-3.88,6.46h7.43c.67-1.76,2.06-2.65,4.16-2.65,1.51,0,2.66,.41,3.43,1.23,.78,.82,1.17,1.86,1.17,3.12v2.08c-.59-.42-1.51-.8-2.77-1.13s-2.48-.5-3.65-.5c-3.11,0-5.7,.84-7.78,2.52-2.08,1.68-3.12,3.84-3.12,6.49,0,2.81,1,5.04,2.99,6.68,1.99,1.64,4.48,2.46,7.47,2.46,1.47,0,2.86-.21,4.16-.63,1.3-.42,2.21-.88,2.71-1.39v1.51h7.5v-17.96c0-3.4-1.04-6.06-3.12-7.97-2.08-1.91-4.99-2.87-8.73-2.87Zm4.35,21.11c-.34,.76-.98,1.35-1.92,1.79-.95,.44-2.01,.66-3.18,.66-1.39,0-2.56-.29-3.53-.88-.97-.59-1.45-1.45-1.45-2.58s.49-1.99,1.48-2.58c.99-.59,2.15-.88,3.5-.88,1.18,0,2.24,.22,3.18,.66,.95,.44,1.58,1.04,1.92,1.79v2.02Z"/>
    <path class="cls-1" d="M880.1,577.81c-1.43,0-2.79,.29-4.09,.88-1.3,.59-2.29,1.28-2.96,2.08v-2.33h-7.81v38.56h7.81v-12.73c.67,.8,1.66,1.49,2.96,2.08s2.67,.88,4.09,.88c3.95,0,7.08-1.41,9.39-4.22,2.31-2.81,3.46-6.3,3.46-10.46s-1.16-7.65-3.46-10.49c-2.31-2.83-5.44-4.25-9.39-4.25Zm3.15,20.41c-1.22,1.47-2.86,2.21-4.91,2.21-1.13,0-2.18-.3-3.15-.91-.97-.61-1.68-1.4-2.14-2.36v-9.26c.5-.97,1.23-1.75,2.17-2.36,.94-.61,1.98-.91,3.12-.91,2.06,0,3.7,.75,4.91,2.24,1.22,1.49,1.83,3.39,1.83,5.7s-.61,4.2-1.83,5.67Z"/>
    <path class="cls-1" d="M909.96,577.81c-3.95,0-7.19,1.4-9.73,4.19-2.54,2.79-3.81,6.31-3.81,10.55s1.26,7.91,3.78,10.62c2.52,2.71,5.82,4.06,9.89,4.06,3.49,0,6.31-.87,8.47-2.61,2.16-1.74,3.5-4.15,4-7.21h-7.25c-.63,2.35-2.37,3.53-5.23,3.53-1.76,0-3.19-.6-4.28-1.8-1.09-1.2-1.7-2.84-1.83-4.95h18.77v-2.39c0-4.24-1.12-7.63-3.37-10.17-2.25-2.54-5.39-3.81-9.42-3.81Zm-5.8,11.66c.71-3.53,2.67-5.29,5.86-5.29,1.55,0,2.77,.49,3.65,1.48,.88,.99,1.34,2.26,1.39,3.81h-10.9Z"/>
    <path class="cls-1" d="M935.54,581.21v-2.77h-7.81v28.16h7.81v-17.45c.29-1.26,.92-2.24,1.89-2.93,.97-.69,2.12-1.04,3.47-1.04,1.55,0,2.86,.31,3.91,.95v-7.81c-.59-.34-1.57-.5-2.96-.5-2.86,0-4.96,1.13-6.3,3.4Z"/>
    <path class="cls-1" d="M272.15,390.31c4.45,0,8.07-1.19,10.87-3.56,2.79-2.37,4.57-5.58,5.32-9.61h-8c-1.47,3.99-4.2,5.99-8.19,5.99-3.02,0-5.42-1.2-7.18-3.59-1.76-2.39-2.65-5.46-2.65-9.2s.88-6.86,2.65-9.23c1.76-2.37,4.16-3.56,7.18-3.56,3.99,0,6.72,1.97,8.19,5.92h8c-.76-3.99-2.53-7.17-5.32-9.54-2.79-2.37-6.42-3.56-10.87-3.56-5.21,0-9.51,1.86-12.92,5.58-3.4,3.72-5.1,8.52-5.1,14.4s1.7,10.68,5.1,14.4c3.4,3.72,7.71,5.58,12.92,5.58Z"/>
    <path class="cls-1" d="M301.25,371.85c.29-1.22,.91-2.17,1.86-2.87,.95-.69,2.03-1.04,3.25-1.04,1.51,0,2.66,.45,3.43,1.35,.78,.9,1.17,2.11,1.17,3.62v16.76h7.81v-18.4c0-3.15-.87-5.67-2.61-7.56-1.74-1.89-4.19-2.83-7.34-2.83s-5.71,1.07-7.56,3.21v-15.37h-7.81v40.95h7.81v-17.83Z"/>
    <path class="cls-1" d="M338.11,372.55c-1.26-.34-2.48-.5-3.65-.5-3.11,0-5.7,.84-7.78,2.52-2.08,1.68-3.12,3.84-3.12,6.49,0,2.81,1,5.04,2.99,6.68,1.99,1.64,4.48,2.46,7.47,2.46,1.47,0,2.86-.21,4.16-.63,1.3-.42,2.21-.88,2.71-1.39v1.51h7.5v-17.96c0-3.4-1.04-6.06-3.12-7.97-2.08-1.91-4.99-2.87-8.73-2.87-3.15,0-5.81,.85-7.97,2.55-2.16,1.7-3.46,3.85-3.88,6.46h7.43c.67-1.76,2.06-2.65,4.16-2.65,1.51,0,2.66,.41,3.43,1.23,.78,.82,1.17,1.86,1.17,3.12v2.08c-.59-.42-1.51-.8-2.77-1.13Zm2.77,9.45c-.34,.76-.98,1.35-1.92,1.79-.95,.44-2.01,.66-3.18,.66-1.39,0-2.56-.29-3.53-.88-.97-.59-1.45-1.45-1.45-2.58s.49-1.99,1.48-2.58c.99-.59,2.15-.88,3.5-.88,1.18,0,2.24,.22,3.18,.66,.95,.44,1.58,1.04,1.92,1.79v2.02Z"/>
    <path class="cls-1" d="M362.55,371.85c.29-1.22,.91-2.17,1.86-2.87,.95-.69,2.03-1.04,3.25-1.04,1.51,0,2.66,.45,3.43,1.35,.78,.9,1.17,2.11,1.17,3.62v16.76h7.81v-18.4c0-3.15-.87-5.67-2.61-7.56-1.74-1.89-4.19-2.83-7.34-2.83s-5.71,1.07-7.56,3.21v-2.58h-7.81v28.16h7.81v-17.83Z"/>
    <path class="cls-1" d="M398.33,390.31c3.49,0,6.31-.92,8.47-2.77,2.16-1.85,3.45-4.3,3.88-7.37h-7.69c-.21,1.09-.72,1.94-1.54,2.55-.82,.61-1.86,.91-3.12,.91-1.76,0-3.17-.73-4.22-2.21-1.05-1.47-1.58-3.4-1.58-5.8s.53-4.39,1.58-5.86c1.05-1.47,2.46-2.21,4.22-2.21,1.26,0,2.3,.31,3.12,.91,.82,.61,1.33,1.46,1.54,2.55h7.69c-.42-3.06-1.72-5.52-3.91-7.37-2.18-1.85-5-2.77-8.44-2.77-3.99,0-7.24,1.37-9.76,4.09-2.52,2.73-3.78,6.28-3.78,10.65s1.26,7.85,3.78,10.58c2.52,2.73,5.77,4.09,9.76,4.09Z"/>
    <path class="cls-1" d="M427.44,390.31c3.49,0,6.31-.87,8.47-2.61,2.16-1.74,3.5-4.15,4-7.21h-7.25c-.63,2.35-2.37,3.53-5.23,3.53-1.76,0-3.19-.6-4.28-1.8-1.09-1.2-1.7-2.84-1.83-4.95h18.77v-2.39c0-4.24-1.12-7.63-3.37-10.17-2.25-2.54-5.39-3.81-9.42-3.81s-7.19,1.4-9.73,4.19c-2.54,2.79-3.81,6.31-3.81,10.55s1.26,7.91,3.78,10.62c2.52,2.71,5.82,4.06,9.89,4.06Zm-.06-23.06c1.55,0,2.77,.49,3.65,1.48,.88,.99,1.34,2.26,1.39,3.81h-10.9c.71-3.53,2.67-5.29,5.86-5.29Z"/>
    <path class="cls-1" d="M470.47,390.31c4.07,0,7.39-1.36,9.95-4.09,2.56-2.73,3.84-6.26,3.84-10.58s-1.28-7.92-3.84-10.65c-2.56-2.73-5.88-4.09-9.95-4.09s-7.39,1.37-9.95,4.09c-2.56,2.73-3.84,6.28-3.84,10.65s1.28,7.85,3.84,10.58c2.56,2.73,5.88,4.09,9.95,4.09Zm-4.44-20.57c1.07-1.49,2.55-2.24,4.44-2.24s3.37,.75,4.44,2.24c1.07,1.49,1.61,3.46,1.61,5.89s-.54,4.34-1.61,5.83c-1.07,1.49-2.55,2.24-4.44,2.24s-3.37-.75-4.44-2.24c-1.07-1.49-1.61-3.43-1.61-5.83s.54-4.4,1.61-5.89Z"/>
    <path class="cls-1" d="M491.44,389.68h7.69v-21.86h5.86v-6.3h-5.86v-2.83c0-2.6,1.28-3.91,3.84-3.91,1.13,0,2.06,.25,2.77,.76v-6.61c-1.13-.5-2.58-.76-4.35-.76-3.02,0-5.44,.88-7.24,2.65-1.81,1.76-2.71,4.22-2.71,7.37v3.34h-4.6v6.3h4.6v21.86Z"/>
    <path class="cls-1" d="M530.94,372.23c.29-1.26,.92-2.24,1.89-2.93,.97-.69,2.12-1.04,3.47-1.04,1.55,0,2.86,.31,3.91,.95v-7.81c-.59-.34-1.57-.5-2.96-.5-2.86,0-4.96,1.13-6.3,3.4v-2.77h-7.81v28.16h7.81v-17.45Z"/>
    <path class="cls-1" d="M557.22,372.55c-1.26-.34-2.48-.5-3.65-.5-3.11,0-5.7,.84-7.78,2.52-2.08,1.68-3.12,3.84-3.12,6.49,0,2.81,1,5.04,2.99,6.68,1.99,1.64,4.48,2.46,7.47,2.46,1.47,0,2.86-.21,4.16-.63,1.3-.42,2.21-.88,2.71-1.39v1.51h7.5v-17.96c0-3.4-1.04-6.06-3.12-7.97-2.08-1.91-4.99-2.87-8.73-2.87-3.15,0-5.81,.85-7.97,2.55-2.16,1.7-3.46,3.85-3.88,6.46h7.43c.67-1.76,2.06-2.65,4.16-2.65,1.51,0,2.66,.41,3.43,1.23,.78,.82,1.17,1.86,1.17,3.12v2.08c-.59-.42-1.51-.8-2.77-1.13Zm2.77,9.45c-.34,.76-.98,1.35-1.92,1.79-.95,.44-2.01,.66-3.18,.66-1.39,0-2.56-.29-3.53-.88-.97-.59-1.45-1.45-1.45-2.58s.49-1.99,1.48-2.58c.99-.59,2.15-.88,3.5-.88,1.18,0,2.24,.22,3.18,.66,.95,.44,1.58,1.04,1.92,1.79v2.02Z"/>
    <path class="cls-1" d="M577.75,357.87c1.26,0,2.34-.42,3.25-1.26,.9-.84,1.35-1.91,1.35-3.21s-.45-2.32-1.35-3.18c-.9-.86-1.98-1.29-3.25-1.29s-2.35,.43-3.28,1.29c-.92,.86-1.39,1.92-1.39,3.18s.45,2.37,1.35,3.21c.9,.84,2,1.26,3.31,1.26Z"/>
    <rect class="cls-1" x="573.85" y="361.52" width="7.81" height="28.16"/>
    <path class="cls-1" d="M596.27,371.85c.29-1.22,.91-2.17,1.86-2.87,.95-.69,2.03-1.04,3.25-1.04,1.51,0,2.66,.45,3.43,1.35,.78,.9,1.17,2.11,1.17,3.62v16.76h7.81v-18.4c0-3.15-.87-5.67-2.61-7.56-1.74-1.89-4.19-2.83-7.34-2.83s-5.71,1.07-7.56,3.21v-2.58h-7.81v28.16h7.81v-17.83Z"/>
    <path class="cls-1" d="M623.49,390.12c1.39,0,2.55-.48,3.5-1.45,.95-.97,1.42-2.16,1.42-3.59s-.47-2.62-1.42-3.56c-.95-.95-2.11-1.42-3.5-1.42s-2.55,.47-3.5,1.42-1.42,2.13-1.42,3.56,.47,2.62,1.42,3.59c.95,.97,2.11,1.45,3.5,1.45Z"/>
    <path class="cls-1" d="M623.49,372.17c1.39,0,2.55-.48,3.5-1.45,.95-.97,1.42-2.16,1.42-3.59s-.47-2.62-1.42-3.56c-.95-.95-2.11-1.42-3.5-1.42s-2.55,.47-3.5,1.42-1.42,2.13-1.42,3.56,.47,2.62,1.42,3.59c.95,.97,2.11,1.45,3.5,1.45Z"/>
    <path class="cls-1" d="M647.21,373.11c-1.28,1.64-1.92,3.63-1.92,5.99,0,3.44,1.32,6.17,3.97,8.19,2.65,2.02,5.96,3.02,9.95,3.02s7.25-1.01,9.89-3.02c2.65-2.02,3.97-4.75,3.97-8.19,0-2.35-.64-4.35-1.92-5.99-1.28-1.64-2.89-2.73-4.82-3.28,1.68-.71,3.02-1.83,4.03-3.34,1.01-1.51,1.51-3.25,1.51-5.23,0-3.4-1.22-6.07-3.65-8-2.44-1.93-5.44-2.9-9.01-2.9s-6.58,.97-9.04,2.9c-2.46,1.93-3.69,4.6-3.69,8,0,1.97,.5,3.72,1.51,5.23,1.01,1.51,2.35,2.62,4.03,3.34-1.93,.55-3.54,1.64-4.82,3.28Zm8.22-15.15c1.01-.9,2.27-1.35,3.78-1.35s2.71,.45,3.72,1.35c1.01,.9,1.51,2.11,1.51,3.62s-.5,2.65-1.51,3.53-2.25,1.32-3.72,1.32-2.77-.44-3.78-1.32-1.51-2.06-1.51-3.53,.5-2.72,1.51-3.62Zm-.66,16.51c1.15-.99,2.63-1.48,4.44-1.48s3.22,.49,4.38,1.48c1.15,.99,1.73,2.32,1.73,4s-.58,3.01-1.73,4c-1.16,.99-2.62,1.48-4.38,1.48s-3.29-.49-4.44-1.48c-1.16-.99-1.73-2.32-1.73-4s.58-3.01,1.73-4Z"/>
    <polygon class="cls-1" points="680.94 389.68 689.07 389.68 701.73 356.73 701.73 351 675.59 351 675.59 358.06 693.36 358.06 680.94 389.68"/>
    <path class="cls-1" d="M728.67,375c-1.74,1.72-2.61,3.82-2.61,6.3s.87,4.6,2.61,6.36c1.74,1.76,3.85,2.65,6.33,2.65s4.59-.88,6.33-2.65c1.74-1.76,2.61-3.88,2.61-6.36s-.87-4.58-2.61-6.3c-1.74-1.72-3.85-2.58-6.33-2.58s-4.59,.86-6.33,2.58Zm10.05,6.3c0,1.05-.36,1.94-1.07,2.68-.71,.74-1.6,1.1-2.65,1.1s-1.94-.37-2.68-1.1c-.74-.73-1.1-1.63-1.1-2.68s.37-1.87,1.1-2.58c.73-.71,1.63-1.07,2.68-1.07s1.93,.36,2.65,1.07c.71,.71,1.07,1.58,1.07,2.58Z"/>
    <path class="cls-1" d="M714.08,368.26c2.48,0,4.59-.86,6.33-2.58,1.74-1.72,2.61-3.82,2.61-6.3s-.87-4.6-2.61-6.36c-1.74-1.76-3.85-2.65-6.33-2.65s-4.59,.88-6.33,2.65c-1.74,1.76-2.61,3.89-2.61,6.36s.87,4.58,2.61,6.3c1.74,1.72,3.85,2.58,6.33,2.58Zm-2.65-11.56c.71-.73,1.6-1.1,2.65-1.1s1.88,.37,2.61,1.1c.73,.74,1.1,1.63,1.1,2.68s-.37,1.87-1.1,2.58c-.74,.71-1.61,1.07-2.61,1.07s-1.93-.36-2.65-1.07c-.71-.71-1.07-1.58-1.07-2.58s.36-1.94,1.07-2.68Z"/>
    <polygon class="cls-1" points="715.22 389.68 739.15 351 733.86 351 709.92 389.68 715.22 389.68"/>
  </g>
</svg>