<svg id="OUTLINES" xmlns="http://www.w3.org/2000/svg" viewBox="0 0 1152 1008"><defs><style>.cls-1{fill:#fff;}.cls-2{fill:#000f7d;}</style></defs><title>data-licences</title><circle class="cls-1" cx="380.25" cy="670.5" r="126"/><path class="cls-1" d="M380.25,802.49c-72.79,0-132-59.21-132-132a132.14,132.14,0,0,1,132-132c72.78,0,132,59.21,132,132S453,802.49,380.25,802.49Zm0-252a120,120,0,1,0,120,120A120.13,120.13,0,0,0,380.25,550.5Z"/><circle class="cls-1" cx="776.25" cy="346.5" r="126"/><path class="cls-1" d="M776.25,478.49c-72.78,0-132-59.21-132-132s59.21-132,132-132a132.14,132.14,0,0,1,132,132C908.25,419.28,849,478.49,776.25,478.49Zm0-252a120,120,0,1,0,120,120A120.13,120.13,0,0,0,776.25,226.5Z"/><path class="cls-2" d="M771.75,474c-72.78,0-132-59.22-132-132s59.22-132,132-132,132,59.22,132,132S844.54,474,771.75,474Zm0-252a120,120,0,1,0,120,120A120.13,120.13,0,0,0,771.75,222Z"/><path class="cls-2" d="M771.75,257.51v21.65a62.86,62.86,0,1,0,44.44,18.41l-9.28,9.29V272.93h33.92l-9.33,9.33a84.49,84.49,0,1,1-59.75-24.75m0-10a94.47,94.47,0,1,0,73.52,35.12L847.9,280a10,10,0,0,0-7.07-17.07H806.91a10,10,0,0,0-10,10v33.93A10,10,0,0,0,814,313.93l1.55-1.55a52.85,52.85,0,1,1-43.78-23.22,10,10,0,0,0,10-10V257.51a10,10,0,0,0-10-10Z"/><path class="cls-2" d="M375.75,474a132.14,132.14,0,0,1-132-132c0-72.78,59.21-132,132-132s132,59.21,132,132S448.53,474,375.75,474Zm0-252a120,120,0,1,0,120,120A120.13,120.13,0,0,0,375.75,222Z"/><path class="cls-2" d="M375.75,257.46l24,24h-13v45.7a62.83,62.83,0,0,0,62.48,56.37v.25a85.22,85.22,0,0,1-15.72,19.93,84.58,84.58,0,0,1-57.76-41.34A84.6,84.6,0,0,1,318,403.69a84.92,84.92,0,0,1-15.71-19.93v-.25a62.81,62.81,0,0,0,62.47-56.37v-45.7h-13l24-24m0-10a10,10,0,0,0-7.07,2.92l-24,24a10,10,0,0,0,7.07,17.07h3v35.17a52.83,52.83,0,0,1-52.47,46.9,10,10,0,0,0-10,10v.25a10,10,0,0,0,1.31,4.95A94.69,94.69,0,0,0,311.15,411a10,10,0,0,0,6.83,2.71,9.77,9.77,0,0,0,1.86-.18,94.15,94.15,0,0,0,55.91-33.45,94.15,94.15,0,0,0,55.91,33.45,9.59,9.59,0,0,0,1.85.18,10,10,0,0,0,6.83-2.71,94.43,94.43,0,0,0,17.57-22.27,10,10,0,0,0,1.32-4.95v-.25a10,10,0,0,0-10-10,52.83,52.83,0,0,1-52.48-46.9V291.44h3a10,10,0,0,0,7.07-17.07l-24-24a10,10,0,0,0-7.07-2.92Z"/><path class="cls-2" d="M771.75,798c-72.78,0-132-59.22-132-132s59.22-132,132-132,132,59.22,132,132S844.54,798,771.75,798Zm0-252a120,120,0,1,0,120,120A120.14,120.14,0,0,0,771.75,546Z"/><path class="cls-2" d="M734.48,634.05a27.5,27.5,0,1,1,27.5-27.5A27.53,27.53,0,0,1,734.48,634.05Zm0-45a17.5,17.5,0,1,0,17.5,17.5A17.52,17.52,0,0,0,734.48,589.05Z"/><path class="cls-2" d="M838,693.62a27.5,27.5,0,1,1,27.5-27.5A27.52,27.52,0,0,1,838,693.62Zm0-45a17.5,17.5,0,1,0,17.5,17.5A17.52,17.52,0,0,0,838,648.62Z"/><path class="cls-2" d="M734.48,753.19a27.5,27.5,0,1,1,27.5-27.5A27.53,27.53,0,0,1,734.48,753.19Zm0-45a17.5,17.5,0,1,0,17.5,17.5A17.52,17.52,0,0,0,734.48,708.19Z"/><path class="cls-2" d="M375.75,798c-72.79,0-132-59.21-132-132a132.14,132.14,0,0,1,132-132c72.78,0,132,59.21,132,132S448.53,798,375.75,798Zm0-252a120,120,0,1,0,120,120A120.13,120.13,0,0,0,375.75,546Z"/><path class="cls-2" d="M338.48,753.19a27.5,27.5,0,0,1,0-55,27.23,27.23,0,0,1,11.9,2.73l60.27-34.8-60.27-34.79a27.49,27.49,0,1,1,15.5-27.05l64.21,37.07a27.5,27.5,0,1,1,0,49.55L365.88,728A27.53,27.53,0,0,1,338.48,753.19Zm0-45a17.5,17.5,0,1,0,17.5,17.5,4.46,4.46,0,0,1,0-.5,5,5,0,0,1,2.49-4.48l69.09-39.88a5,5,0,0,1,5.17.09,17.5,17.5,0,1,0,0-29.6,5,5,0,0,1-5.17.1l-69.09-39.89a5,5,0,0,1-2.49-4.47c0-.16,0-.32,0-.49a17.55,17.55,0,1,0-8.2,14.79,5,5,0,0,1,5.17-.1L422,661.15a5,5,0,0,1,2.5,4.47l0,.48c0,.2,0,.36,0,.53a5,5,0,0,1-2.5,4.47L352.94,711a5,5,0,0,1-5.17-.1A17.36,17.36,0,0,0,338.48,708.19Z"/><path class="cls-2" d="M645.75,348h-144a6,6,0,0,1,0-12h144a6,6,0,0,1,0,12Z"/><path class="cls-2" d="M645.75,672h-144a6,6,0,0,1,0-12h144a6,6,0,0,1,0,12Z"/></svg>