<svg id="OUTLINES" xmlns="http://www.w3.org/2000/svg" viewBox="0 0 1152 1008"><defs><style>.cls-1{fill:#fff;}.cls-2{fill:#000f7d;}</style></defs><rect class="cls-1" x="146" y="376.43" width="876" height="212.08" rx="24"/><path class="cls-2" d="M941,581h49a24,24,0,0,0,24-24V392.9a24,24,0,0,0-24-24H941V269.64a23,23,0,0,0-23-23H234a23,23,0,0,0-23,23V368.9H162a24,24,0,0,0-24,24V557a24,24,0,0,0,24,24h49V697.86a22.83,22.83,0,0,0,4,13H162a23,23,0,0,0-23,23v4.5a23,23,0,0,0,23,23H990a23,23,0,0,0,23-23v-4.5a23,23,0,0,0-23-23H937a22.83,22.83,0,0,0,4-13ZM221,269.64a13,13,0,0,1,13-13H918a13,13,0,0,1,13,13V368.9H221ZM150,557V392.9a12,12,0,0,1,12-12H990a12,12,0,0,1,12,12V557a12,12,0,0,1-12,12H162A12,12,0,0,1,150,557Zm853,176.88v4.5a13,13,0,0,1-13,13H162a13,13,0,0,1-13-13v-4.5a13,13,0,0,1,13-13H990A13,13,0,0,1,1003,733.86Zm-138.77-23H277.62v-71a13,13,0,0,1,13-13H851.23a13,13,0,0,1,13,13Zm10,0v-71a23,23,0,0,0-23-23H290.62a23,23,0,0,0-23,23v71H234a13,13,0,0,1-13-13V581H931V697.86a13,13,0,0,1-13,13Z"/><path class="cls-2" d="M216,400.15a46.76,46.76,0,1,0,46.75,46.75A46.8,46.8,0,0,0,216,400.15Zm0,83.51a36.76,36.76,0,1,1,28.64-59.76H225a5,5,0,0,0,0,10h25.39a36.61,36.61,0,0,1,2,8c-.14,0-.27,0-.41,0H225a5,5,0,0,0,0,10h27c.14,0,.27,0,.41,0a36.47,36.47,0,0,1-2,8H225a5,5,0,0,0,0,10h19.66A36.69,36.69,0,0,1,216,483.66Z"/><path class="cls-2" d="M308.39,437.31a5.61,5.61,0,0,1-3.37.92q-4.36,0-5.49-3.55h-5.94a9.31,9.31,0,0,0,3.78,6.12,12.81,12.81,0,0,0,7.69,2.2,11.33,11.33,0,0,0,7.38-2.34,7.64,7.64,0,0,0,2.88-6.25q0-6.12-7.24-7.79l-5-1.17q-3.1-.72-3.11-3a2.81,2.81,0,0,1,1.19-2.37,5.3,5.3,0,0,1,3.18-.87q4,0,5.08,3.28h5.72a9.51,9.51,0,0,0-3.49-5.83,11.6,11.6,0,0,0-7.36-2.18,10.61,10.61,0,0,0-7.15,2.39,7.69,7.69,0,0,0-2.79,6.12q0,6,7,7.56l4.95,1.12a5.76,5.76,0,0,1,2.59,1.13,2.56,2.56,0,0,1,.78,2A3,3,0,0,1,308.39,437.31Z"/><path class="cls-2" d="M327.74,443a9,9,0,0,0,6.05-2,8.07,8.07,0,0,0,2.77-5.26h-5.49a2.87,2.87,0,0,1-1.1,1.82,3.68,3.68,0,0,1-2.23.65,3.5,3.5,0,0,1-3-1.57,7,7,0,0,1-1.13-4.14,7.07,7.07,0,0,1,1.13-4.19,3.5,3.5,0,0,1,3-1.57,3.62,3.62,0,0,1,2.23.65,2.85,2.85,0,0,1,1.1,1.82h5.49a8.05,8.05,0,0,0-2.79-5.26,10,10,0,0,0-13,.94,12,12,0,0,0,0,15.17A9,9,0,0,0,327.74,443Z"/><path class="cls-2" d="M358.07,442.55V429.41a7.63,7.63,0,0,0-1.87-5.4,7.65,7.65,0,0,0-10.64.27v-11H340v29.25h5.58V429.82a3.42,3.42,0,0,1,1.33-2.05,3.78,3.78,0,0,1,2.32-.74,3.07,3.07,0,0,1,2.45,1,3.87,3.87,0,0,1,.83,2.59v12Z"/><path class="cls-2" d="M371.21,443a9.31,9.31,0,0,0,6.05-1.87,8,8,0,0,0,2.86-5.15H375q-.68,2.52-3.74,2.52a4,4,0,0,1-3.06-1.28,5.57,5.57,0,0,1-1.3-3.53h13.41V432a10.59,10.59,0,0,0-2.41-7.27,8.51,8.51,0,0,0-6.73-2.72,9,9,0,0,0-6.95,3,11.9,11.9,0,0,0,0,15.12A9.21,9.21,0,0,0,371.21,443Zm0-16.47a3.31,3.31,0,0,1,2.61,1.06,4.09,4.09,0,0,1,1,2.72H367C367.49,427.79,368.88,426.53,371.17,426.53Z"/><path class="cls-2" d="M391.87,443a7,7,0,0,0,2.92-.63,5.75,5.75,0,0,0,2.11-1.48v1.66h5.63V413.3H396.9v10.8a5.75,5.75,0,0,0-2.11-1.48,7,7,0,0,0-2.92-.63,8.16,8.16,0,0,0-6.69,3,12.72,12.72,0,0,0,0,15A8.2,8.2,0,0,0,391.87,443Zm-2.25-14.56a4.27,4.27,0,0,1,3.5-1.59,4.1,4.1,0,0,1,2.26.65,4,4,0,0,1,1.52,1.69v6.61a4.13,4.13,0,0,1-1.5,1.69,4.18,4.18,0,0,1-2.28.65,4.29,4.29,0,0,1-3.5-1.57,6.09,6.09,0,0,1-1.31-4.05A6.21,6.21,0,0,1,389.62,428.44Z"/><path class="cls-2" d="M414.19,443a6.93,6.93,0,0,0,5.4-2.29v1.84h5.58V422.44h-5.63v12.78a3.5,3.5,0,0,1-1.3,2,3.71,3.71,0,0,1-2.3.75,3,3,0,0,1-2.43-.95,3.88,3.88,0,0,1-.81-2.61v-12h-5.58v13.14A7.63,7.63,0,0,0,409,441,6.7,6.7,0,0,0,414.19,443Z"/><rect class="cls-2" x="429.98" y="413.3" width="5.58" height="29.25"/><path class="cls-2" d="M448.92,443a9.35,9.35,0,0,0,6.06-1.87,8,8,0,0,0,2.85-5.15h-5.17q-.68,2.52-3.74,2.52a3.93,3.93,0,0,1-3.05-1.28,5.52,5.52,0,0,1-1.31-3.53H458V432a10.55,10.55,0,0,0-2.41-7.27,8.49,8.49,0,0,0-6.73-2.72,9,9,0,0,0-6.95,3,11.9,11.9,0,0,0,0,15.12A9.21,9.21,0,0,0,448.92,443Zm0-16.47a3.31,3.31,0,0,1,2.61,1.06,4.09,4.09,0,0,1,1,2.72H444.7Q445.47,426.53,448.88,426.53Z"/><path class="cls-2" d="M473.72,422.35a4.55,4.55,0,0,0-2.12-.36,4.86,4.86,0,0,0-4.5,2.43v-2h-5.58v20.11h5.58V430.09a3.44,3.44,0,0,1,1.36-2.1,4.13,4.13,0,0,1,2.47-.74,5.34,5.34,0,0,1,2.79.68Z"/><polygon class="cls-2" points="310.19 490.53 320.59 462.9 314.65 462.9 307.49 482.88 300.34 462.9 294.26 462.9 304.61 490.53 310.19 490.53"/><rect class="cls-2" x="323.65" y="470.41" width="5.58" height="20.12"/><path class="cls-2" d="M328.75,462.33a3.23,3.23,0,0,0-2.31-.92,3.32,3.32,0,0,0-2.34.92,3.17,3.17,0,0,0,0,4.57,3.37,3.37,0,0,0,2.37.9,3.26,3.26,0,0,0,2.31-.9,3,3,0,0,0,1-2.29A3,3,0,0,0,328.75,462.33Z"/><path class="cls-2" d="M342.5,470a9,9,0,0,0-6.95,3,11.9,11.9,0,0,0,0,15.12,9.18,9.18,0,0,0,7.06,2.91,9.36,9.36,0,0,0,6.05-1.87A8,8,0,0,0,351.5,484h-5.17q-.68,2.52-3.74,2.52a3.94,3.94,0,0,1-3.06-1.29,5.54,5.54,0,0,1-1.3-3.53h13.41V480a10.61,10.61,0,0,0-2.41-7.27A8.54,8.54,0,0,0,342.5,470Zm-4.14,8.33q.76-3.78,4.18-3.78a3.34,3.34,0,0,1,2.62,1.05,4.14,4.14,0,0,1,1,2.73Z"/><polygon class="cls-2" points="376.07 490.53 382.19 470.41 376.79 470.41 373.19 483.24 369.86 470.41 365.59 470.41 362.3 483.24 358.7 470.41 353.12 470.41 359.24 490.53 364.37 490.53 367.66 478.2 370.94 490.53 376.07 490.53"/><path class="cls-2" d="M384.94,490.39l-3.29,5h3.6l2.57-3.82a7.4,7.4,0,0,0,1.44-4.05,3.88,3.88,0,0,0-1-2.82,3.39,3.39,0,0,0-2.52-1,3.46,3.46,0,0,0-2.5,1,3.21,3.21,0,0,0-1,2.45,3.11,3.11,0,0,0,.76,2.16A3.39,3.39,0,0,0,384.94,490.39Z"/><path class="cls-2" d="M410.86,470a9,9,0,0,0-7,3,10.81,10.81,0,0,0-2.72,7.54,10.67,10.67,0,0,0,2.7,7.58A9.2,9.2,0,0,0,411,491a9.38,9.38,0,0,0,6.05-1.87,8,8,0,0,0,2.86-5.15h-5.18q-.68,2.52-3.73,2.52a3.94,3.94,0,0,1-3.06-1.29,5.55,5.55,0,0,1-1.31-3.53H420V480a10.56,10.56,0,0,0-2.41-7.27A8.5,8.5,0,0,0,410.86,470Zm-4.14,8.33q.76-3.78,4.18-3.78a3.33,3.33,0,0,1,2.61,1.05,4.14,4.14,0,0,1,1,2.73Z"/><path class="cls-2" d="M436.64,472.08a5.94,5.94,0,0,0-2.11-1.49,7.08,7.08,0,0,0-2.93-.63,8.15,8.15,0,0,0-6.68,3,12.66,12.66,0,0,0,0,15,8.16,8.16,0,0,0,6.68,3,7.08,7.08,0,0,0,2.93-.63,5.94,5.94,0,0,0,2.11-1.49v1.67h5.62V461.28h-5.62Zm0,11.7a4,4,0,0,1-1.51,1.68,4.05,4.05,0,0,1-2.27.66,4.33,4.33,0,0,1-3.51-1.58,6.14,6.14,0,0,1-1.31-4.05,6.21,6.21,0,0,1,1.31-4.07,4.29,4.29,0,0,1,3.51-1.6,4.18,4.18,0,0,1,2.25.65,4.07,4.07,0,0,1,1.53,1.69Z"/><path class="cls-2" d="M452.19,462.33a3.27,3.27,0,0,0-2.32-.92,3.34,3.34,0,0,0-2.34.92,3,3,0,0,0-1,2.28,3,3,0,0,0,1,2.29,3.49,3.49,0,0,0,4.68,0,3,3,0,0,0,1-2.29A3.06,3.06,0,0,0,452.19,462.33Z"/><rect class="cls-2" x="447.08" y="470.41" width="5.58" height="20.12"/><path class="cls-2" d="M464.27,483.73v-8.82h4.41v-4.5h-4.41V465h-5.54v5.44h-3.06v4.5h3.06v9.54a6.3,6.3,0,0,0,1.76,4.86,7,7,0,0,0,4.9,1.62,8,8,0,0,0,3.61-.63v-4.95a4.41,4.41,0,0,1-2.44.68A2,2,0,0,1,464.27,483.73Z"/><path class="cls-2" d="M499.1,490.53V477.7a7.32,7.32,0,0,0-2.23-5.69,8.83,8.83,0,0,0-6.23-2.05,8.94,8.94,0,0,0-5.69,1.82,7.16,7.16,0,0,0-2.77,4.62h5.31a2.86,2.86,0,0,1,3-1.89,3.23,3.23,0,0,1,2.45.87,3.1,3.1,0,0,1,.83,2.23v1.49a6.34,6.34,0,0,0-2-.81,10.12,10.12,0,0,0-2.61-.36,8.53,8.53,0,0,0-5.55,1.8,5.67,5.67,0,0,0-2.23,4.63,5.83,5.83,0,0,0,2.14,4.77,8.11,8.11,0,0,0,5.33,1.76,9.62,9.62,0,0,0,3-.45,4.93,4.93,0,0,0,1.93-1v1.08Zm-6.73-4.21a5.36,5.36,0,0,1-2.27.47,4.76,4.76,0,0,1-2.52-.63,2.15,2.15,0,0,1,0-3.69,4.81,4.81,0,0,1,2.5-.63,5.36,5.36,0,0,1,2.27.47,2.63,2.63,0,0,1,1.37,1.29V485A2.62,2.62,0,0,1,492.37,486.32Z"/><path class="cls-2" d="M521.73,490.53V477.39a7.67,7.67,0,0,0-1.86-5.4,7.64,7.64,0,0,0-10.65.27v-1.85h-5.58v20.12h5.58V477.79a3.5,3.5,0,0,1,1.33-2.05,3.87,3.87,0,0,1,2.32-.74,3,3,0,0,1,2.45,1,3.8,3.8,0,0,1,.83,2.59v12Z"/><path class="cls-2" d="M544.91,490.53V461.28h-5.63v10.8a5.85,5.85,0,0,0-2.11-1.49,7.05,7.05,0,0,0-2.93-.63,8.15,8.15,0,0,0-6.68,3,12.7,12.7,0,0,0,0,15,8.16,8.16,0,0,0,6.68,3,7.05,7.05,0,0,0,2.93-.63,5.85,5.85,0,0,0,2.11-1.49v1.67Zm-7.13-5.07a4.11,4.11,0,0,1-2.28.66,4.33,4.33,0,0,1-3.51-1.58,6.13,6.13,0,0,1-1.3-4.05,6.21,6.21,0,0,1,1.3-4.07,4.29,4.29,0,0,1,3.51-1.6,4.18,4.18,0,0,1,2.25.65,4.07,4.07,0,0,1,1.53,1.69v6.62A4,4,0,0,1,537.78,485.46Z"/><path class="cls-2" d="M564.84,478.06a3.41,3.41,0,0,1,1.35-2.09,4.11,4.11,0,0,1,2.48-.74,5.34,5.34,0,0,1,2.79.67v-5.58a4.55,4.55,0,0,0-2.12-.36,4.86,4.86,0,0,0-4.5,2.43v-2h-5.58v20.12h5.58Z"/><path class="cls-2" d="M583.07,491a9.36,9.36,0,0,0,6-1.87A8,8,0,0,0,592,484H586.8q-.67,2.52-3.73,2.52a3.94,3.94,0,0,1-3.06-1.29,5.55,5.55,0,0,1-1.31-3.53h13.41V480a10.61,10.61,0,0,0-2.4-7.27A8.54,8.54,0,0,0,583,470a9,9,0,0,0-7,3,11.88,11.88,0,0,0,0,15.12A9.2,9.2,0,0,0,583.07,491ZM583,474.51a3.33,3.33,0,0,1,2.61,1.05,4.14,4.14,0,0,1,1,2.73h-7.78Q579.61,474.51,583,474.51Z"/><path class="cls-2" d="M618.1,475.92a4.29,4.29,0,0,1,.74,2.64v12h5.58V477.39a8,8,0,0,0-1.75-5.43,6.14,6.14,0,0,0-4.86-2,7.86,7.86,0,0,0-6.08,2.57,6.38,6.38,0,0,0-5.4-2.57,6.07,6.07,0,0,0-5.08,2.12v-1.67h-5.58v20.12h5.58v-13a3.31,3.31,0,0,1,1.14-1.92,3.18,3.18,0,0,1,2-.69q2.83,0,2.83,3.6v12h5.63v-13a3.23,3.23,0,0,1,1.12-1.94,3.1,3.1,0,0,1,2-.67A2.55,2.55,0,0,1,618.1,475.92Z"/><path class="cls-2" d="M647.51,480.49a10.65,10.65,0,0,0-2.75-7.6,10.09,10.09,0,0,0-14.22,0,11.85,11.85,0,0,0,0,15.16,10.09,10.09,0,0,0,14.22,0A10.61,10.61,0,0,0,647.51,480.49Zm-6.69,4.16a3.94,3.94,0,0,1-6.34,0,6.92,6.92,0,0,1-1.15-4.16,7,7,0,0,1,1.15-4.21,4,4,0,0,1,6.34,0,7,7,0,0,1,1.15,4.21A6.92,6.92,0,0,1,640.82,484.65Z"/><polygon class="cls-2" points="661.59 490.53 669.24 470.41 663.62 470.41 659.07 483.78 654.44 470.41 648.59 470.41 656.19 490.53 661.59 490.53"/><path class="cls-2" d="M680.13,491a9.36,9.36,0,0,0,6-1.87A8,8,0,0,0,689,484h-5.17q-.68,2.52-3.74,2.52a3.94,3.94,0,0,1-3.06-1.29,5.54,5.54,0,0,1-1.3-3.53h13.41V480a10.61,10.61,0,0,0-2.41-7.27A8.54,8.54,0,0,0,680,470a9,9,0,0,0-6.95,3,11.9,11.9,0,0,0,0,15.12A9.18,9.18,0,0,0,680.13,491Zm0-16.47a3.33,3.33,0,0,1,2.61,1.05,4.14,4.14,0,0,1,1,2.73H675.9Q676.67,474.51,680.09,474.51Z"/><path class="cls-2" d="M304.43,513a9,9,0,0,0-6.95,3,11.9,11.9,0,0,0,0,15.12,9.18,9.18,0,0,0,7.06,2.91,9.36,9.36,0,0,0,6.05-1.87,8,8,0,0,0,2.86-5.15h-5.17q-.67,2.52-3.74,2.52a3.94,3.94,0,0,1-3.06-1.29,5.54,5.54,0,0,1-1.3-3.53h13.41V523a10.61,10.61,0,0,0-2.41-7.27A8.54,8.54,0,0,0,304.43,513Zm-4.14,8.33q.76-3.78,4.19-3.78a3.33,3.33,0,0,1,2.61,1,4.14,4.14,0,0,1,1,2.73Z"/><path class="cls-2" d="M328.1,513a6.76,6.76,0,0,0-5.4,2.3v-1.85h-5.58v20.12h5.58V520.79a3.45,3.45,0,0,1,1.33-2,3.82,3.82,0,0,1,2.32-.74,3,3,0,0,1,2.45,1,3.85,3.85,0,0,1,.83,2.59v12h5.58V520.39a7.63,7.63,0,0,0-1.87-5.4A6.77,6.77,0,0,0,328.1,513Z"/><path class="cls-2" d="M346.59,526.73v-8.82H351v-4.5h-4.41V508h-5.53v5.44H338v4.5h3.06v9.54a6.3,6.3,0,0,0,1.76,4.86,7,7,0,0,0,4.9,1.62,7.89,7.89,0,0,0,3.6-.63v-4.95a4.35,4.35,0,0,1-2.43.68A2,2,0,0,1,346.59,526.73Z"/><path class="cls-2" d="M361,515.39v-2h-5.58v20.12H361V521.06A3.41,3.41,0,0,1,362.3,519a4.08,4.08,0,0,1,2.47-.74,5.34,5.34,0,0,1,2.79.67v-5.58a4.51,4.51,0,0,0-2.11-.36A4.86,4.86,0,0,0,361,515.39Z"/><path class="cls-2" d="M374,504.41a3.34,3.34,0,0,0-2.34.92,3.15,3.15,0,0,0,0,4.57,3.34,3.34,0,0,0,2.36.9,3.28,3.28,0,0,0,2.32-.9,3,3,0,0,0,1-2.29,3,3,0,0,0-1-2.28A3.26,3.26,0,0,0,374,504.41Z"/><rect class="cls-2" x="371.16" y="513.41" width="5.58" height="20.12"/><path class="cls-2" d="M390,513a9,9,0,0,0-6.95,3,11.88,11.88,0,0,0,0,15.12,9.2,9.2,0,0,0,7.07,2.91,9.36,9.36,0,0,0,6.05-1.87A8,8,0,0,0,399,527h-5.18q-.68,2.52-3.73,2.52a3.94,3.94,0,0,1-3.06-1.29,5.55,5.55,0,0,1-1.31-3.53h13.41V523a10.61,10.61,0,0,0-2.4-7.27A8.54,8.54,0,0,0,390,513Zm-4.14,8.33q.76-3.78,4.18-3.78a3.33,3.33,0,0,1,2.61,1,4.14,4.14,0,0,1,1,2.73Z"/><path class="cls-2" d="M413.28,521.6l-4.14-.94c-1.2-.3-1.8-.83-1.8-1.58a1.56,1.56,0,0,1,.79-1.39,3.46,3.46,0,0,1,1.87-.5q2.52,0,3.15,2h5.31a7.16,7.16,0,0,0-2.68-4.57,9.43,9.43,0,0,0-5.87-1.64,8.94,8.94,0,0,0-5.72,1.82,5.75,5.75,0,0,0-2.29,4.71q0,4.46,5.22,5.67l4.05.9a4,4,0,0,1,1.55.65,1.27,1.27,0,0,1,.47,1.06c0,1.32-.94,2-2.83,2s-2.93-.74-3.38-2.21h-5.53a6.77,6.77,0,0,0,2.83,4.75A10.39,10.39,0,0,0,410.4,534a9.53,9.53,0,0,0,5.92-1.76,5.65,5.65,0,0,0,2.32-4.77Q418.64,522.91,413.28,521.6Z"/><rect class="cls-2" x="431.96" y="513.41" width="5.58" height="20.12"/><path class="cls-2" d="M434.75,504.41a3.34,3.34,0,0,0-2.34.92,3,3,0,0,0-1,2.28,3,3,0,0,0,1,2.29,3.49,3.49,0,0,0,4.68,0,3,3,0,0,0,1-2.29,3.05,3.05,0,0,0-1-2.28A3.27,3.27,0,0,0,434.75,504.41Z"/><path class="cls-2" d="M453.38,513a6.76,6.76,0,0,0-5.4,2.3v-1.85H442.4v20.12H448V520.79a3.45,3.45,0,0,1,1.33-2,3.82,3.82,0,0,1,2.31-.74,3.07,3.07,0,0,1,2.46,1,3.85,3.85,0,0,1,.83,2.59v12h5.58V520.39a7.63,7.63,0,0,0-1.87-5.4A6.77,6.77,0,0,0,453.38,513Z"/><polygon class="cls-2" points="483.35 526.78 478.71 513.41 472.82 513.41 480.51 533.62 477.59 540.95 483.08 540.95 493.56 513.41 487.94 513.41 483.35 526.78"/><path class="cls-2" d="M504.54,513a9.31,9.31,0,0,0-7.11,2.93,11.85,11.85,0,0,0,0,15.16,10.09,10.09,0,0,0,14.22,0,11.82,11.82,0,0,0,0-15.16A9.31,9.31,0,0,0,504.54,513Zm3.17,14.69a3.94,3.94,0,0,1-6.34,0,7,7,0,0,1-1.15-4.16,7.11,7.11,0,0,1,1.15-4.21,4,4,0,0,1,6.34,0,7,7,0,0,1,1.15,4.21A6.92,6.92,0,0,1,507.71,527.65Z"/><path class="cls-2" d="M530.15,526.19a3.52,3.52,0,0,1-1.31,2,3.74,3.74,0,0,1-2.29.74,3,3,0,0,1-2.43-.94,3.88,3.88,0,0,1-.81-2.61v-12h-5.58v13.14a7.67,7.67,0,0,0,1.86,5.4,6.73,6.73,0,0,0,5.2,2,6.93,6.93,0,0,0,5.4-2.3v1.85h5.58V513.41h-5.62Z"/><path class="cls-2" d="M546.17,515.39v-2h-5.58v20.12h5.58V521.06a3.41,3.41,0,0,1,1.35-2.09,4.08,4.08,0,0,1,2.47-.74,5.34,5.34,0,0,1,2.79.67v-5.58a4.51,4.51,0,0,0-2.11-.36A4.86,4.86,0,0,0,546.17,515.39Z"/><path class="cls-2" d="M574.34,517.73a3.63,3.63,0,0,1,2.22.65,2.87,2.87,0,0,1,1.11,1.83h5.49a8.08,8.08,0,0,0-2.79-5.27,10,10,0,0,0-13,.95,12,12,0,0,0,0,15.16,10,10,0,0,0,13,1,8.14,8.14,0,0,0,2.77-5.27h-5.49a2.82,2.82,0,0,1-1.11,1.82,3.82,3.82,0,0,1-5.24-.92,8.29,8.29,0,0,1,0-8.32A3.54,3.54,0,0,1,574.34,517.73Z"/><path class="cls-2" d="M594.63,513a8.94,8.94,0,0,0-5.69,1.82,7.16,7.16,0,0,0-2.77,4.62h5.31a2.86,2.86,0,0,1,3-1.89,3.23,3.23,0,0,1,2.45.87,3.11,3.11,0,0,1,.84,2.23v1.49a6.34,6.34,0,0,0-2-.81,10.12,10.12,0,0,0-2.61-.36,8.55,8.55,0,0,0-5.56,1.8,5.67,5.67,0,0,0-2.23,4.63,5.83,5.83,0,0,0,2.14,4.77,8.11,8.11,0,0,0,5.33,1.76,9.62,9.62,0,0,0,3-.45,5,5,0,0,0,1.94-1v1.08h5.35V520.7a7.32,7.32,0,0,0-2.23-5.69A8.83,8.83,0,0,0,594.63,513ZM597.74,528a2.64,2.64,0,0,1-1.38,1.28,5.36,5.36,0,0,1-2.27.47,4.76,4.76,0,0,1-2.52-.63,2.16,2.16,0,0,1,0-3.69,4.81,4.81,0,0,1,2.5-.63,5.36,5.36,0,0,1,2.27.47,2.65,2.65,0,0,1,1.38,1.29Z"/><rect class="cls-2" x="607.63" y="504.28" width="5.58" height="29.25"/><path class="cls-2" d="M626.49,513a9,9,0,0,0-7,3,11.9,11.9,0,0,0,0,15.12,9.18,9.18,0,0,0,7.06,2.91,9.36,9.36,0,0,0,6-1.87,8,8,0,0,0,2.86-5.15h-5.17q-.68,2.52-3.74,2.52a3.94,3.94,0,0,1-3.06-1.29,5.54,5.54,0,0,1-1.3-3.53h13.41V523a10.61,10.61,0,0,0-2.41-7.27A8.54,8.54,0,0,0,626.49,513Zm-4.14,8.33c.51-2.52,1.9-3.78,4.19-3.78a3.33,3.33,0,0,1,2.61,1,4.14,4.14,0,0,1,1,2.73Z"/><path class="cls-2" d="M650.16,513a6.76,6.76,0,0,0-5.4,2.3v-1.85h-5.58v20.12h5.58V520.79a3.45,3.45,0,0,1,1.33-2,3.82,3.82,0,0,1,2.32-.74,3,3,0,0,1,2.45,1,3.85,3.85,0,0,1,.83,2.59v12h5.58V520.39a7.63,7.63,0,0,0-1.87-5.4A6.77,6.77,0,0,0,650.16,513Z"/><path class="cls-2" d="M674.82,515.08a5.94,5.94,0,0,0-2.11-1.49,7.08,7.08,0,0,0-2.93-.63,8.15,8.15,0,0,0-6.68,3,12.66,12.66,0,0,0,0,15,8.16,8.16,0,0,0,6.68,3,7.08,7.08,0,0,0,2.93-.63,5.94,5.94,0,0,0,2.11-1.49v1.67h5.62V504.28h-5.62Zm0,11.7a4,4,0,0,1-1.51,1.68,4.05,4.05,0,0,1-2.27.66,4.33,4.33,0,0,1-3.51-1.58,6.14,6.14,0,0,1-1.31-4,6.21,6.21,0,0,1,1.31-4.07,4.29,4.29,0,0,1,3.51-1.6,4.18,4.18,0,0,1,2.25.65,4.07,4.07,0,0,1,1.53,1.69Z"/><path class="cls-2" d="M693.31,513a9,9,0,0,0-5.69,1.82,7.21,7.21,0,0,0-2.77,4.62h5.31a2.86,2.86,0,0,1,3-1.89,3.27,3.27,0,0,1,2.46.87,3.14,3.14,0,0,1,.83,2.23v1.49a6.34,6.34,0,0,0-2-.81,10.12,10.12,0,0,0-2.61-.36,8.57,8.57,0,0,0-5.56,1.8,5.7,5.7,0,0,0-2.23,4.63,5.86,5.86,0,0,0,2.14,4.77,8.13,8.13,0,0,0,5.33,1.76,9.62,9.62,0,0,0,3-.45,5,5,0,0,0,1.94-1v1.08h5.35V520.7a7.35,7.35,0,0,0-2.22-5.69A8.87,8.87,0,0,0,693.31,513ZM696.42,528a2.65,2.65,0,0,1-1.37,1.28,5.44,5.44,0,0,1-2.28.47,4.76,4.76,0,0,1-2.52-.63,2.15,2.15,0,0,1,0-3.69,4.75,4.75,0,0,1,2.49-.63,5.44,5.44,0,0,1,2.28.47,2.67,2.67,0,0,1,1.37,1.29Z"/><path class="cls-2" d="M711.9,515.39v-2h-5.58v20.12h5.58V521.06a3.41,3.41,0,0,1,1.35-2.09,4.08,4.08,0,0,1,2.47-.74,5.34,5.34,0,0,1,2.79.67v-5.58a4.51,4.51,0,0,0-2.11-.36A4.86,4.86,0,0,0,711.9,515.39Z"/><path class="cls-2" d="M959.23,439.18h-180a23,23,0,0,0-23,23v63a23,23,0,0,0,23,23h180a23,23,0,0,0,23-23v-63A23,23,0,0,0,959.23,439.18Zm13,86a13,13,0,0,1-13,13h-180a13,13,0,0,1-13-13v-63a13,13,0,0,1,13-13h180a13,13,0,0,1,13,13Z"/><path class="cls-2" d="M819.64,493.25a8.3,8.3,0,0,0,1.67-5.33,8.17,8.17,0,0,0-2.61-6.48,10.34,10.34,0,0,0-7.07-2.3H800.25v27.63H806v-10.3h3l6.84,10.3h6.48L815,496.06A8.17,8.17,0,0,0,819.64,493.25Zm-8.37-1.51H806v-7.69h5.31a4.62,4.62,0,0,1,3.24,1,3.68,3.68,0,0,1,1.13,2.84,3.61,3.61,0,0,1-1.13,2.79A4.62,4.62,0,0,1,811.27,491.74Z"/><path class="cls-2" d="M833.55,486.21a9,9,0,0,0-6.95,3,11.88,11.88,0,0,0,0,15.12,10.35,10.35,0,0,0,13.12,1,8,8,0,0,0,2.86-5.15h-5.18q-.68,2.52-3.73,2.52a4,4,0,0,1-3.06-1.28,5.57,5.57,0,0,1-1.31-3.53h13.41V496.2a10.59,10.59,0,0,0-2.4-7.27A8.51,8.51,0,0,0,833.55,486.21Zm-4.14,8.32q.76-3.78,4.18-3.78a3.31,3.31,0,0,1,2.61,1.06,4.09,4.09,0,0,1,1,2.72Z"/><path class="cls-2" d="M868.38,486.21a7.85,7.85,0,0,0-6.08,2.56,6.37,6.37,0,0,0-5.4-2.56,6.06,6.06,0,0,0-5.08,2.11v-1.66h-5.58v20.11h5.58v-13A3.21,3.21,0,0,1,853,491.9a3.09,3.09,0,0,1,2-.7q2.84,0,2.83,3.6v12h5.63v-13a3.21,3.21,0,0,1,1.12-1.93,3.11,3.11,0,0,1,2-.68,2.52,2.52,0,0,1,2.14,1,4.17,4.17,0,0,1,.74,2.63v12H875V493.63a7.92,7.92,0,0,0-1.75-5.42A6.11,6.11,0,0,0,868.38,486.21Z"/><path class="cls-2" d="M888.22,486.21a9.3,9.3,0,0,0-7.11,2.92,11.87,11.87,0,0,0,0,15.17,10.12,10.12,0,0,0,14.22,0,11.84,11.84,0,0,0,0-15.17A9.3,9.3,0,0,0,888.22,486.21Zm3.18,14.69a4,4,0,0,1-6.35,0,7,7,0,0,1-1.15-4.16,7.09,7.09,0,0,1,1.15-4.21,4,4,0,0,1,6.35,0,7.09,7.09,0,0,1,1.14,4.21A7,7,0,0,1,891.4,500.9Z"/><polygon class="cls-2" points="909.64 500.02 905.01 486.65 899.16 486.65 906.76 506.77 912.16 506.77 919.81 486.65 914.19 486.65 909.64 500.02"/><path class="cls-2" d="M930.61,486.21a9,9,0,0,0-7,3,11.9,11.9,0,0,0,0,15.12,9.21,9.21,0,0,0,7.06,2.9,9.31,9.31,0,0,0,6-1.87,8,8,0,0,0,2.86-5.15h-5.17q-.68,2.52-3.74,2.52a4,4,0,0,1-3.06-1.28,5.57,5.57,0,0,1-1.3-3.53h13.41V496.2a10.59,10.59,0,0,0-2.41-7.27A8.51,8.51,0,0,0,930.61,486.21Zm-4.14,8.32q.76-3.78,4.19-3.78a3.31,3.31,0,0,1,2.61,1.06,4.09,4.09,0,0,1,1,2.72Z"/><path class="cls-2" d="M208,423.9h-1a5,5,0,0,0,0,10h1a5,5,0,0,0,0-10Z"/><path class="cls-2" d="M208,441.9h-1a5,5,0,0,0,0,10h1a5,5,0,0,0,0-10Z"/><path class="cls-2" d="M208,459.9h-1a5,5,0,0,0,0,10h1a5,5,0,0,0,0-10Z"/><polygon class="cls-2" points="272.62 307.07 281.48 307.07 281.48 329.66 287.29 329.66 287.29 307.07 296.2 307.07 296.2 302.03 272.62 302.03 272.62 307.07"/><path class="cls-2" d="M310.73,309.1a6.76,6.76,0,0,0-5.4,2.29v-11h-5.58v29.25h5.58V316.93a3.47,3.47,0,0,1,1.33-2.05,3.8,3.8,0,0,1,2.32-.74,3.06,3.06,0,0,1,2.45,1,3.82,3.82,0,0,1,.83,2.59v12h5.58V316.52a7.67,7.67,0,0,0-1.86-5.4A6.8,6.8,0,0,0,310.73,309.1Z"/><path class="cls-2" d="M325.27,300.55a3.29,3.29,0,0,0-2.34.92,3.15,3.15,0,0,0,0,4.57,3.33,3.33,0,0,0,2.36.9,3.26,3.26,0,0,0,2.31-.9,3.18,3.18,0,0,0,0-4.57A3.19,3.19,0,0,0,325.27,300.55Z"/><rect class="cls-2" x="322.48" y="309.55" width="5.58" height="20.12"/><path class="cls-2" d="M338.5,311.53v-2h-5.58v20.11h5.58V317.2a3.47,3.47,0,0,1,1.35-2.1,4.15,4.15,0,0,1,2.47-.74,5.34,5.34,0,0,1,2.79.68v-5.58a4.51,4.51,0,0,0-2.11-.36A4.86,4.86,0,0,0,338.5,311.53Z"/><path class="cls-2" d="M361.13,311.21a5.84,5.84,0,0,0-2.11-1.48,7.05,7.05,0,0,0-2.93-.63,8.14,8.14,0,0,0-6.68,3,12.72,12.72,0,0,0,0,15,8.18,8.18,0,0,0,6.68,3,7.05,7.05,0,0,0,2.93-.63,5.84,5.84,0,0,0,2.11-1.48v1.66h5.63V300.41h-5.63Zm0,11.7a4.13,4.13,0,0,1-1.5,1.69,4.18,4.18,0,0,1-2.28.65,4.32,4.32,0,0,1-3.51-1.57,6.13,6.13,0,0,1-1.3-4.05,6.26,6.26,0,0,1,1.3-4.08,4.31,4.31,0,0,1,3.51-1.59,4.09,4.09,0,0,1,2.25.65,4,4,0,0,1,1.53,1.69Z"/><rect class="cls-2" x="370.85" y="315.44" width="10.84" height="4.86"/><path class="cls-2" d="M396.46,309.1a7.05,7.05,0,0,0-2.93.63,5.84,5.84,0,0,0-2.11,1.48v-1.66h-5.58v27.54h5.58V328a5.84,5.84,0,0,0,2.11,1.48,7.05,7.05,0,0,0,2.93.63,8.2,8.2,0,0,0,6.7-3,11.39,11.39,0,0,0,2.48-7.47,11.51,11.51,0,0,0-2.48-7.5A8.19,8.19,0,0,0,396.46,309.1Zm2.25,14.58a4.32,4.32,0,0,1-3.51,1.57,4.18,4.18,0,0,1-2.25-.65,4.07,4.07,0,0,1-1.53-1.69V316.3a4.34,4.34,0,0,1,1.55-1.69,4,4,0,0,1,2.23-.65,4.31,4.31,0,0,1,3.51,1.59,6.26,6.26,0,0,1,1.3,4.08A6.13,6.13,0,0,1,398.71,323.68Z"/><path class="cls-2" d="M417.29,309.1a8.88,8.88,0,0,0-5.69,1.82,7.12,7.12,0,0,0-2.77,4.61h5.31a2.86,2.86,0,0,1,3-1.89,3.19,3.19,0,0,1,2.45.88,3.09,3.09,0,0,1,.84,2.23v1.48a6.34,6.34,0,0,0-2-.81,10.12,10.12,0,0,0-2.61-.36,8.55,8.55,0,0,0-5.56,1.8A5.69,5.69,0,0,0,408,323.5a5.83,5.83,0,0,0,2.14,4.77,8.11,8.11,0,0,0,5.33,1.75,9.62,9.62,0,0,0,3-.45,5,5,0,0,0,1.94-1v1.08h5.35V316.84a7.35,7.35,0,0,0-2.23-5.7A8.87,8.87,0,0,0,417.29,309.1Zm3.11,15.07a2.6,2.6,0,0,1-1.38,1.28,5.21,5.21,0,0,1-2.27.48,4.76,4.76,0,0,1-2.52-.63,2.16,2.16,0,0,1,0-3.69,4.81,4.81,0,0,1,2.5-.63,5.21,5.21,0,0,1,2.27.47,2.6,2.6,0,0,1,1.38,1.28Z"/><path class="cls-2" d="M435.88,311.53v-2H430.3v20.11h5.58V317.2a3.47,3.47,0,0,1,1.35-2.1,4.15,4.15,0,0,1,2.47-.74,5.34,5.34,0,0,1,2.79.68v-5.58a4.51,4.51,0,0,0-2.11-.36A4.86,4.86,0,0,0,435.88,311.53Z"/><path class="cls-2" d="M452.89,322.87v-8.82h4.41v-4.5h-4.41V304.1h-5.54v5.45h-3.06v4.5h3.06v9.54a6.3,6.3,0,0,0,1.76,4.86,7,7,0,0,0,4.9,1.62,7.89,7.89,0,0,0,3.6-.63v-4.95a4.35,4.35,0,0,1-2.43.67A2,2,0,0,1,452.89,322.87Z"/><polygon class="cls-2" points="469.9 322.91 465.26 309.55 459.37 309.55 467.06 329.75 464.14 337.09 469.63 337.09 480.11 309.55 474.49 309.55 469.9 322.91"/><path class="cls-2" d="M500.72,309.1a8.88,8.88,0,0,0-5.69,1.82,7.12,7.12,0,0,0-2.77,4.61h5.31a2.86,2.86,0,0,1,3-1.89,3.19,3.19,0,0,1,2.45.88,3.08,3.08,0,0,1,.83,2.23v1.48a6.34,6.34,0,0,0-2-.81,10.12,10.12,0,0,0-2.61-.36,8.53,8.53,0,0,0-5.55,1.8,5.69,5.69,0,0,0-2.23,4.64,5.83,5.83,0,0,0,2.14,4.77,8.11,8.11,0,0,0,5.33,1.75,9.62,9.62,0,0,0,3-.45,4.93,4.93,0,0,0,1.93-1v1.08h5.36V316.84a7.35,7.35,0,0,0-2.23-5.7A8.87,8.87,0,0,0,500.72,309.1Zm3.1,15.07a2.58,2.58,0,0,1-1.37,1.28,5.21,5.21,0,0,1-2.27.48,4.76,4.76,0,0,1-2.52-.63,2.15,2.15,0,0,1,0-3.69,4.81,4.81,0,0,1,2.5-.63,5.21,5.21,0,0,1,2.27.47,2.58,2.58,0,0,1,1.37,1.28Z"/><path class="cls-2" d="M522.14,313.87a3.62,3.62,0,0,1,2.23.65,2.85,2.85,0,0,1,1.1,1.82H531a8.05,8.05,0,0,0-2.79-5.26,10,10,0,0,0-13,.94,12,12,0,0,0,0,15.17,10,10,0,0,0,13,.94,8.07,8.07,0,0,0,2.77-5.26h-5.49a2.87,2.87,0,0,1-1.1,1.82,3.68,3.68,0,0,1-2.23.65,3.53,3.53,0,0,1-3-1.57,7,7,0,0,1-1.12-4.14,7.07,7.07,0,0,1,1.12-4.19A3.53,3.53,0,0,1,522.14,313.87Z"/><path class="cls-2" d="M542.84,313.87a3.62,3.62,0,0,1,2.23.65,2.85,2.85,0,0,1,1.1,1.82h5.49a8.05,8.05,0,0,0-2.79-5.26,10,10,0,0,0-13,.94,12,12,0,0,0,0,15.17,10,10,0,0,0,13,.94,8.07,8.07,0,0,0,2.77-5.26h-5.49a2.87,2.87,0,0,1-1.1,1.82,3.68,3.68,0,0,1-2.23.65,3.53,3.53,0,0,1-3-1.57,7,7,0,0,1-1.12-4.14,7.07,7.07,0,0,1,1.12-4.19A3.53,3.53,0,0,1,542.84,313.87Z"/><path class="cls-2" d="M563.54,309.1a9,9,0,0,0-6.95,3,11.88,11.88,0,0,0,0,15.12,10.35,10.35,0,0,0,13.12,1,8,8,0,0,0,2.86-5.15h-5.18q-.68,2.52-3.73,2.52a4,4,0,0,1-3.06-1.28,5.57,5.57,0,0,1-1.31-3.53h13.41v-1.71a10.59,10.59,0,0,0-2.4-7.27A8.51,8.51,0,0,0,563.54,309.1Zm-4.14,8.32q.76-3.78,4.18-3.78a3.31,3.31,0,0,1,2.61,1.06,4.09,4.09,0,0,1,1,2.72Z"/><path class="cls-2" d="M586.8,317.74l-4.14-.95c-1.2-.3-1.8-.82-1.8-1.57a1.56,1.56,0,0,1,.79-1.4,3.43,3.43,0,0,1,1.87-.49q2.52,0,3.15,2H592a7.18,7.18,0,0,0-2.68-4.57,9.37,9.37,0,0,0-5.87-1.64,8.89,8.89,0,0,0-5.72,1.82,5.72,5.72,0,0,0-2.29,4.7q0,4.45,5.22,5.67l4.05.9a4.24,4.24,0,0,1,1.55.65,1.28,1.28,0,0,1,.47,1.06c0,1.32-.94,2-2.83,2s-2.93-.73-3.38-2.2H575a6.73,6.73,0,0,0,2.83,4.74,10.32,10.32,0,0,0,6.12,1.69,9.55,9.55,0,0,0,5.92-1.75,5.68,5.68,0,0,0,2.32-4.77Q592.16,319,586.8,317.74Z"/><path class="cls-2" d="M606.47,317.74l-4.14-.95c-1.2-.3-1.8-.82-1.8-1.57a1.56,1.56,0,0,1,.79-1.4,3.4,3.4,0,0,1,1.86-.49q2.52,0,3.15,2h5.31a7.14,7.14,0,0,0-2.68-4.57,9.37,9.37,0,0,0-5.87-1.64,8.86,8.86,0,0,0-5.71,1.82,5.73,5.73,0,0,0-2.3,4.7q0,4.45,5.22,5.67l4.05.9a4.3,4.3,0,0,1,1.56.65,1.31,1.31,0,0,1,.47,1.06c0,1.32-1,2-2.84,2s-2.92-.73-3.37-2.2h-5.54a6.74,6.74,0,0,0,2.84,4.74,10.32,10.32,0,0,0,6.12,1.69,9.49,9.49,0,0,0,5.91-1.75,5.65,5.65,0,0,0,2.32-4.77Q611.82,319,606.47,317.74Z"/></svg>