<?xml version="1.0" encoding="UTF-8"?>
<svg id="OUTLINES" xmlns="http://www.w3.org/2000/svg" viewBox="0 0 1152 1008">
  <defs>
    <style>
      .cls-1 {
        fill: #030f78;
      }

      .cls-2 {
        fill: #000f7d;
      }

      .cls-3 {
        fill: #fff;
      }
    </style>
  </defs>
  <rect class="cls-3" x="300" y="452.68" width="642" height="228.32" rx="24" ry="24"/>
  <g>
    <polygon class="cls-1" points="300.9 389.68 309.03 389.68 309.03 358.06 321.5 358.06 321.5 351 288.49 351 288.49 358.06 300.9 358.06 300.9 389.68"/>
    <path class="cls-1" d="M333.29,367.25c1.51,0,2.66,.41,3.43,1.23,.78,.82,1.17,1.86,1.17,3.12v2.08c-.59-.42-1.51-.8-2.77-1.13s-2.48-.5-3.65-.5c-3.11,0-5.7,.84-7.78,2.52-2.08,1.68-3.12,3.84-3.12,6.49,0,2.81,1,5.04,2.99,6.68,1.99,1.64,4.48,2.46,7.47,2.46,1.47,0,2.86-.21,4.16-.63,1.3-.42,2.21-.88,2.71-1.39v1.51h7.5v-17.96c0-3.4-1.04-6.06-3.12-7.97-2.08-1.91-4.99-2.87-8.73-2.87-3.15,0-5.81,.85-7.97,2.55-2.16,1.7-3.46,3.85-3.88,6.46h7.43c.67-1.76,2.06-2.65,4.16-2.65Zm4.6,14.74c-.34,.76-.98,1.35-1.92,1.79-.95,.44-2.01,.66-3.18,.66-1.39,0-2.56-.29-3.53-.88-.97-.59-1.45-1.45-1.45-2.58s.49-1.99,1.48-2.58c.99-.59,2.15-.88,3.5-.88,1.18,0,2.24,.22,3.18,.66,.95,.44,1.58,1.04,1.92,1.79v2.02Z"/>
    <path class="cls-1" d="M362.39,384.39c-2.52,0-4.09-1.03-4.72-3.09h-7.75c.42,2.86,1.74,5.07,3.97,6.65,2.23,1.58,5.08,2.36,8.57,2.36s6.12-.82,8.28-2.46c2.16-1.64,3.24-3.86,3.24-6.68,0-4.24-2.5-6.97-7.5-8.19l-5.8-1.32c-1.68-.42-2.52-1.16-2.52-2.21,0-.84,.37-1.49,1.1-1.95,.73-.46,1.61-.69,2.61-.69,2.35,0,3.82,.92,4.41,2.77h7.43c-.5-2.73-1.75-4.86-3.75-6.39-2-1.53-4.74-2.3-8.22-2.3-3.19,0-5.86,.85-8,2.55s-3.21,3.9-3.21,6.58c0,4.16,2.44,6.8,7.31,7.94l5.67,1.26c1.01,.25,1.73,.56,2.17,.91,.44,.36,.66,.85,.66,1.48,0,1.85-1.32,2.77-3.97,2.77Z"/>
    <path class="cls-1" d="M380.97,381.18c0,3.02,.82,5.29,2.46,6.8,1.64,1.51,3.93,2.27,6.87,2.27,2.27,0,3.95-.29,5.04-.88v-6.93c-.97,.63-2.1,.95-3.4,.95-2.14,0-3.21-1.07-3.21-3.21v-12.35h6.17v-6.3h-6.17v-7.62h-7.75v7.62h-4.28v6.3h4.28v13.36Z"/>
    <path class="cls-1" d="M412.66,390.31c3.49,0,6.31-.87,8.47-2.61,2.16-1.74,3.5-4.15,4-7.21h-7.25c-.63,2.35-2.37,3.53-5.23,3.53-1.76,0-3.19-.6-4.28-1.8-1.09-1.2-1.7-2.84-1.83-4.95h18.77v-2.39c0-4.24-1.12-7.63-3.37-10.17-2.25-2.54-5.39-3.81-9.42-3.81s-7.19,1.4-9.73,4.19c-2.54,2.79-3.81,6.31-3.81,10.55s1.26,7.91,3.78,10.62c2.52,2.71,5.82,4.06,9.89,4.06Zm-.06-23.06c1.55,0,2.77,.49,3.65,1.48,.88,.99,1.34,2.26,1.39,3.81h-10.9c.71-3.53,2.67-5.29,5.86-5.29Z"/>
    <path class="cls-1" d="M451.97,376.26h7.75c4.16,0,7.47-1.09,9.92-3.28,2.46-2.18,3.69-5.29,3.69-9.32s-1.23-7.15-3.69-9.36c-2.46-2.21-5.76-3.31-9.92-3.31h-15.75v38.68h8v-13.42Zm0-18.4h7.25c2.02,0,3.55,.52,4.6,1.54,1.05,1.03,1.58,2.45,1.58,4.25s-.53,3.11-1.58,4.16c-1.05,1.05-2.58,1.58-4.6,1.58h-7.25v-11.53Z"/>
    <path class="cls-1" d="M486.25,372.23c.29-1.26,.92-2.24,1.89-2.93,.97-.69,2.12-1.04,3.47-1.04,1.55,0,2.86,.31,3.91,.95v-7.81c-.59-.34-1.57-.5-2.96-.5-2.86,0-4.96,1.13-6.3,3.4v-2.77h-7.81v28.16h7.81v-17.45Z"/>
    <path class="cls-1" d="M511.76,390.31c3.49,0,6.31-.87,8.47-2.61,2.16-1.74,3.5-4.15,4-7.21h-7.25c-.63,2.35-2.37,3.53-5.23,3.53-1.76,0-3.19-.6-4.28-1.8-1.09-1.2-1.7-2.84-1.83-4.95h18.77v-2.39c0-4.24-1.12-7.63-3.37-10.17-2.25-2.54-5.39-3.81-9.42-3.81s-7.19,1.4-9.73,4.19c-2.54,2.79-3.81,6.31-3.81,10.55s1.26,7.91,3.78,10.62c2.52,2.71,5.82,4.06,9.89,4.06Zm-.06-23.06c1.55,0,2.77,.49,3.65,1.48,.88,.99,1.34,2.26,1.39,3.81h-10.9c.71-3.53,2.67-5.29,5.86-5.29Z"/>
    <path class="cls-1" d="M540.68,390.31c1.43,0,2.79-.29,4.1-.88,1.3-.59,2.29-1.28,2.96-2.08v2.33h7.88v-40.95h-7.88v15.12c-.67-.8-1.66-1.49-2.96-2.08-1.3-.59-2.67-.88-4.1-.88-3.95,0-7.07,1.41-9.36,4.22-2.29,2.81-3.43,6.32-3.43,10.52s1.14,7.7,3.43,10.49c2.29,2.79,5.41,4.19,9.36,4.19Zm-3.15-20.38c1.22-1.49,2.86-2.24,4.91-2.24,1.13,0,2.18,.31,3.15,.91,.97,.61,1.68,1.4,2.14,2.36v9.26c-.46,.97-1.17,1.75-2.11,2.36-.94,.61-2.01,.91-3.18,.91-2.06,0-3.7-.73-4.91-2.21-1.22-1.47-1.83-3.36-1.83-5.67s.61-4.21,1.83-5.7Z"/>
    <path class="cls-1" d="M566.25,357.87c1.26,0,2.34-.42,3.25-1.26,.9-.84,1.35-1.91,1.35-3.21s-.45-2.32-1.35-3.18c-.9-.86-1.98-1.29-3.25-1.29s-2.35,.43-3.28,1.29c-.92,.86-1.39,1.92-1.39,3.18s.45,2.37,1.35,3.21c.9,.84,2,1.26,3.31,1.26Z"/>
    <rect class="cls-1" x="562.35" y="361.52" width="7.81" height="28.16"/>
    <path class="cls-1" d="M588.75,390.31c3.49,0,6.31-.92,8.47-2.77,2.16-1.85,3.45-4.3,3.88-7.37h-7.69c-.21,1.09-.72,1.94-1.54,2.55-.82,.61-1.86,.91-3.12,.91-1.76,0-3.17-.73-4.22-2.21-1.05-1.47-1.58-3.4-1.58-5.8s.53-4.39,1.58-5.86c1.05-1.47,2.46-2.21,4.22-2.21,1.26,0,2.3,.31,3.12,.91,.82,.61,1.33,1.46,1.54,2.55h7.69c-.42-3.06-1.72-5.52-3.91-7.37-2.18-1.85-5-2.77-8.44-2.77-3.99,0-7.24,1.37-9.76,4.09-2.52,2.73-3.78,6.28-3.78,10.65s1.26,7.85,3.78,10.58c2.52,2.73,5.77,4.09,9.76,4.09Z"/>
    <path class="cls-1" d="M607.83,381.18c0,3.02,.82,5.29,2.46,6.8,1.64,1.51,3.93,2.27,6.87,2.27,2.27,0,3.95-.29,5.04-.88v-6.93c-.97,.63-2.1,.95-3.4,.95-2.14,0-3.21-1.07-3.21-3.21v-12.35h6.17v-6.3h-6.17v-7.62h-7.75v7.62h-4.28v6.3h4.28v13.36Z"/>
    <rect class="cls-1" x="627.87" y="361.52" width="7.81" height="28.16"/>
    <path class="cls-1" d="M631.77,357.87c1.26,0,2.34-.42,3.25-1.26,.9-.84,1.35-1.91,1.35-3.21s-.45-2.32-1.35-3.18c-.9-.86-1.98-1.29-3.25-1.29s-2.35,.43-3.28,1.29c-.92,.86-1.39,1.92-1.39,3.18s.45,2.37,1.35,3.21c.9,.84,2,1.26,3.31,1.26Z"/>
    <path class="cls-1" d="M654.52,390.31c4.07,0,7.39-1.36,9.95-4.09,2.56-2.73,3.84-6.26,3.84-10.58s-1.28-7.92-3.84-10.65c-2.56-2.73-5.88-4.09-9.95-4.09s-7.39,1.37-9.95,4.09c-2.56,2.73-3.84,6.28-3.84,10.65s1.28,7.85,3.84,10.58c2.56,2.73,5.88,4.09,9.95,4.09Zm-4.44-20.57c1.07-1.49,2.55-2.24,4.44-2.24s3.37,.75,4.44,2.24c1.07,1.49,1.61,3.46,1.61,5.89s-.54,4.34-1.61,5.83c-1.07,1.49-2.55,2.24-4.44,2.24s-3.37-.75-4.44-2.24c-1.07-1.49-1.61-3.43-1.61-5.83s.54-4.4,1.61-5.89Z"/>
    <path class="cls-1" d="M681.1,371.85c.29-1.22,.91-2.17,1.86-2.87,.95-.69,2.03-1.04,3.25-1.04,1.51,0,2.66,.45,3.43,1.35,.78,.9,1.17,2.11,1.17,3.62v16.76h7.81v-18.4c0-3.15-.87-5.67-2.61-7.56-1.74-1.89-4.19-2.83-7.34-2.83s-5.71,1.07-7.56,3.21v-2.58h-7.81v28.16h7.81v-17.83Z"/>
    <path class="cls-1" d="M749.46,360.89c-3.49,0-6.32,1.2-8.51,3.59-1.81-2.39-4.33-3.59-7.56-3.59s-5.57,.99-7.12,2.96v-2.33h-7.81v28.16h7.81v-18.14c.25-1.13,.79-2.03,1.61-2.68,.82-.65,1.75-.98,2.8-.98,2.65,0,3.97,1.68,3.97,5.04v16.76h7.88v-18.14c.25-1.18,.78-2.08,1.58-2.71,.8-.63,1.72-.95,2.77-.95,1.3,0,2.3,.45,2.99,1.35,.69,.9,1.04,2.13,1.04,3.69v16.76h7.81v-18.4c0-3.19-.82-5.72-2.46-7.59-1.64-1.87-3.91-2.8-6.8-2.8Z"/>
    <path class="cls-1" d="M777.24,360.89c-4.07,0-7.39,1.37-9.95,4.09-2.56,2.73-3.84,6.28-3.84,10.65s1.28,7.85,3.84,10.58c2.56,2.73,5.88,4.09,9.95,4.09s7.39-1.36,9.95-4.09c2.56-2.73,3.84-6.26,3.84-10.58s-1.28-7.92-3.84-10.65c-2.56-2.73-5.88-4.09-9.95-4.09Zm4.44,20.57c-1.07,1.49-2.55,2.24-4.44,2.24s-3.37-.75-4.44-2.24c-1.07-1.49-1.61-3.43-1.61-5.83s.54-4.4,1.61-5.89c1.07-1.49,2.55-2.24,4.44-2.24s3.37,.75,4.44,2.24c1.07,1.49,1.61,3.46,1.61,5.89s-.54,4.34-1.61,5.83Z"/>
    <path class="cls-1" d="M814.35,363.85c-.67-.8-1.66-1.49-2.96-2.08-1.3-.59-2.67-.88-4.1-.88-3.95,0-7.07,1.41-9.36,4.22-2.29,2.81-3.43,6.32-3.43,10.52s1.14,7.7,3.43,10.49c2.29,2.79,5.41,4.19,9.36,4.19,1.43,0,2.79-.29,4.1-.88,1.3-.59,2.29-1.28,2.96-2.08v2.33h7.88v-40.95h-7.88v15.12Zm0,16.38c-.46,.97-1.17,1.75-2.11,2.36-.94,.61-2.01,.91-3.18,.91-2.06,0-3.7-.73-4.91-2.21-1.22-1.47-1.83-3.36-1.83-5.67s.61-4.21,1.83-5.7c1.22-1.49,2.86-2.24,4.91-2.24,1.13,0,2.18,.31,3.15,.91,.97,.61,1.68,1.4,2.14,2.36v9.26Z"/>
    <path class="cls-1" d="M840.74,360.89c-3.95,0-7.19,1.4-9.73,4.19-2.54,2.79-3.81,6.31-3.81,10.55s1.26,7.91,3.78,10.62c2.52,2.71,5.82,4.06,9.89,4.06,3.49,0,6.31-.87,8.47-2.61,2.16-1.74,3.5-4.15,4-7.21h-7.25c-.63,2.35-2.37,3.53-5.23,3.53-1.76,0-3.19-.6-4.28-1.8-1.09-1.2-1.7-2.84-1.83-4.95h18.77v-2.39c0-4.24-1.12-7.63-3.37-10.17-2.25-2.54-5.39-3.81-9.42-3.81Zm-5.8,11.66c.71-3.53,2.67-5.29,5.86-5.29,1.55,0,2.77,.49,3.65,1.48,.88,.99,1.34,2.26,1.39,3.81h-10.9Z"/>
    <rect class="cls-1" x="858.51" y="348.73" width="7.81" height="40.95"/>
    <path class="cls-1" d="M263.68,368.82c-9.83,0-17.82-8-17.82-17.82,0-.83-.71-1.5-1.53-1.5s-1.5,.67-1.5,1.5c0,9.83-8,17.82-17.82,17.82-.83,0-1.5,.67-1.5,1.5s.67,1.5,1.5,1.5c9.83,0,17.82,8,17.82,17.82,0,.4,.19,.81,.47,1.09,.29,.29,.67,.44,1.06,.44,.19,0,.39-.04,.57-.11,.56-.23,.93-.78,.93-1.39,0-9.83,8-17.82,17.82-17.82,.83,0,1.5-.71,1.5-1.53s-.67-1.5-1.5-1.5Z"/>
    <path class="cls-1" d="M698.45,399.28H291.89c-1.1,0-2,.9-2,2s.9,2,2,2h406.56c1.1,0,2-.9,2-2s-.9-2-2-2Z"/>
  </g>
  <path class="cls-2" d="M909,672.32H315c-13.23,0-24-10.77-24-24v-180.32c0-13.23,10.77-24,24-24H909c13.23,0,24,10.77,24,24v180.32c0,13.23-10.77,24-24,24ZM315,456c-6.62,0-12,5.38-12,12v180.32c0,6.62,5.38,12,12,12H909c6.62,0,12-5.38,12-12v-180.32c0-6.62-5.38-12-12-12H315Z"/>
  <g>
    <path class="cls-2" d="M337.8,513.32h-5.4l-7.61-20.12h5.85l4.64,13.37,4.54-13.37h5.62l-7.65,20.12Z"/>
    <path class="cls-2" d="M360.25,493.7c0-.99-.31-1.79-.94-2.41-.63-.62-1.49-.92-2.57-.92s-1.99,.35-2.63,1.06-1,1.63-1.06,2.77h-5.94c.27-2.64,1.27-4.79,2.99-6.46,1.72-1.67,3.92-2.5,6.59-2.5,2.88,0,5.14,.74,6.79,2.23,1.65,1.48,2.47,3.49,2.47,6.01,0,1.08-.3,2.2-.9,3.35-.6,1.16-1.19,2.07-1.78,2.75-.58,.68-1.52,1.69-2.81,3.04l-5.31,5.71h11.12v5h-19.12v-3.74l8.78-9.22c2.01-2.22,3.24-3.74,3.69-4.54,.42-.75,.63-1.46,.63-2.12Z"/>
    <path class="cls-2" d="M370.45,512.6c-.67-.69-1.01-1.54-1.01-2.56s.34-1.87,1.01-2.54c.67-.67,1.51-1.01,2.5-1.01s1.82,.34,2.5,1.01c.67,.68,1.01,1.52,1.01,2.54s-.34,1.88-1.01,2.56c-.67,.69-1.51,1.04-2.5,1.04s-1.82-.34-2.5-1.04Z"/>
    <path class="cls-2" d="M393.73,485.69l-9,17.42h6.12v-5.72h5.13v5.72h4.18v4.72h-4.18v5.49h-5.13v-5.49h-12.29v-4.14l9.54-18h5.62Z"/>
    <path class="cls-2" d="M413.17,485.69v27.63h-5.62v-21.06l-6.44,3.2v-5.62l8.42-4.14h3.65Z"/>
    <path class="cls-2" d="M430.27,493.7c0-.99-.31-1.79-.94-2.41-.63-.62-1.49-.92-2.57-.92s-1.99,.35-2.63,1.06-1,1.63-1.06,2.77h-5.94c.27-2.64,1.27-4.79,2.99-6.46,1.72-1.67,3.92-2.5,6.59-2.5,2.88,0,5.14,.74,6.79,2.23,1.65,1.48,2.47,3.49,2.47,6.01,0,1.08-.3,2.2-.9,3.35-.6,1.16-1.19,2.07-1.78,2.75-.58,.68-1.52,1.69-2.81,3.04l-5.31,5.71h11.12v5h-19.12v-3.74l8.78-9.22c2.01-2.22,3.24-3.74,3.69-4.54,.42-.75,.63-1.46,.63-2.12Z"/>
    <path class="cls-2" d="M332.62,540.69v27.63h-5.76v-27.63h5.76Z"/>
    <path class="cls-2" d="M336.4,562.33h5.54c.45,1.47,1.58,2.21,3.38,2.21,1.89,0,2.83-.66,2.83-1.98,0-.45-.16-.8-.47-1.06s-.83-.47-1.55-.65l-4.05-.9c-3.48-.81-5.22-2.7-5.22-5.67,0-1.92,.76-3.49,2.29-4.7s3.43-1.82,5.71-1.82c2.49,0,4.45,.55,5.87,1.64,1.42,1.1,2.32,2.62,2.68,4.57h-5.31c-.42-1.32-1.47-1.98-3.15-1.98-.72,0-1.34,.17-1.87,.5-.53,.33-.79,.79-.79,1.39,0,.75,.6,1.28,1.8,1.58l4.14,.95c3.57,.87,5.36,2.82,5.36,5.85,0,2.01-.77,3.6-2.32,4.77s-3.52,1.75-5.92,1.75-4.53-.56-6.12-1.69c-1.59-1.12-2.54-2.71-2.83-4.75Z"/>
    <path class="cls-2" d="M356.07,562.33h5.54c.45,1.47,1.58,2.21,3.38,2.21,1.89,0,2.83-.66,2.83-1.98,0-.45-.16-.8-.47-1.06s-.83-.47-1.55-.65l-4.05-.9c-3.48-.81-5.22-2.7-5.22-5.67,0-1.92,.76-3.49,2.29-4.7s3.43-1.82,5.71-1.82c2.49,0,4.45,.55,5.87,1.64,1.42,1.1,2.32,2.62,2.68,4.57h-5.31c-.42-1.32-1.47-1.98-3.15-1.98-.72,0-1.34,.17-1.87,.5-.53,.33-.79,.79-.79,1.39,0,.75,.6,1.28,1.8,1.58l4.14,.95c3.57,.87,5.36,2.82,5.36,5.85,0,2.01-.77,3.6-2.32,4.77s-3.52,1.75-5.92,1.75-4.53-.56-6.12-1.69c-1.59-1.12-2.54-2.71-2.83-4.75Z"/>
    <path class="cls-2" d="M394.86,548.21v20.12h-5.58v-1.84c-1.38,1.53-3.18,2.29-5.4,2.29s-3.95-.67-5.2-2.03c-1.25-1.35-1.87-3.15-1.87-5.4v-13.14h5.58v12.02c0,1.11,.27,1.98,.81,2.61s1.35,.95,2.43,.95c.87,0,1.63-.25,2.29-.74,.66-.5,1.09-1.18,1.3-2.05v-12.78h5.62Z"/>
    <path class="cls-2" d="M411.91,561.75h5.17c-.36,2.19-1.31,3.91-2.86,5.15-1.54,1.25-3.56,1.87-6.05,1.87-2.91,0-5.26-.97-7.06-2.9-1.8-1.94-2.7-4.46-2.7-7.58s.91-5.54,2.72-7.54c1.81-2,4.13-2.99,6.95-2.99s5.12,.91,6.73,2.72c1.6,1.82,2.41,4.24,2.41,7.27v1.71h-13.41c.09,1.5,.52,2.68,1.3,3.53,.78,.85,1.8,1.28,3.06,1.28,2.04,0,3.29-.84,3.74-2.52Zm-3.78-9.45c-2.28,0-3.67,1.26-4.18,3.78h7.79c-.03-1.11-.36-2.02-.99-2.72-.63-.7-1.5-1.06-2.61-1.06Z"/>
    <path class="cls-2" d="M433.87,568.32v-1.67c-.48,.57-1.19,1.07-2.11,1.49-.93,.42-1.91,.63-2.93,.63-2.82,0-5.05-1-6.68-2.99-1.63-1.99-2.45-4.49-2.45-7.49s.82-5.5,2.45-7.51,3.86-3.02,6.68-3.02c1.02,0,2,.21,2.93,.63,.93,.42,1.63,.92,2.11,1.48v-10.8h5.62v29.25h-5.62Zm0-6.75v-6.62c-.33-.69-.84-1.25-1.53-1.69-.69-.43-1.44-.65-2.25-.65-1.47,0-2.64,.53-3.51,1.6-.87,1.07-1.3,2.42-1.3,4.07s.43,3,1.3,4.05c.87,1.05,2.04,1.58,3.51,1.58,.84,0,1.6-.22,2.27-.65,.67-.43,1.18-1,1.51-1.69Z"/>
    <path class="cls-2" d="M472.3,558.29c0,3.09-.92,5.61-2.75,7.56s-4.2,2.92-7.11,2.92-5.28-.97-7.11-2.92c-1.83-1.95-2.75-4.47-2.75-7.56s.92-5.65,2.75-7.6c1.83-1.95,4.2-2.93,7.11-2.93s5.28,.98,7.11,2.93,2.75,4.49,2.75,7.6Zm-5.54,0c0-1.74-.38-3.14-1.15-4.21-.76-1.06-1.82-1.6-3.17-1.6s-2.41,.53-3.17,1.6-1.15,2.47-1.15,4.21,.38,3.1,1.15,4.16c.76,1.06,1.82,1.6,3.17,1.6s2.41-.53,3.17-1.6c.77-1.07,1.15-2.45,1.15-4.16Z"/>
    <path class="cls-2" d="M475.86,568.32v-20.12h5.58v1.85c1.32-1.53,3.12-2.3,5.4-2.3s4,.68,5.24,2.03,1.87,3.15,1.87,5.4v13.14h-5.58v-11.97c0-1.08-.28-1.94-.83-2.59-.56-.64-1.37-.97-2.45-.97-.87,0-1.64,.25-2.32,.74-.68,.5-1.12,1.18-1.33,2.05v12.74h-5.58Z"/>
    <path class="cls-2" d="M527.02,547.67h-5.58c-.57-1.8-1.79-2.7-3.64-2.7-1.59,0-2.88,.78-3.87,2.34-.99,1.56-1.49,3.36-1.49,5.4v.41c.45-.87,1.2-1.58,2.25-2.12,1.05-.54,2.23-.81,3.55-.81,2.7,0,4.88,.88,6.53,2.63,1.65,1.76,2.47,3.91,2.47,6.46,0,2.7-.88,4.96-2.63,6.77-1.75,1.82-4.13,2.72-7.13,2.72-3.75,0-6.54-1.67-8.37-5-1.29-2.25-1.93-5.14-1.93-8.69,0-4.38,.95-7.95,2.86-10.71,1.9-2.76,4.48-4.14,7.72-4.14,2.55,0,4.61,.65,6.17,1.94s2.59,3.12,3.11,5.49Zm-14.08,11.75c0,1.38,.42,2.5,1.26,3.35,.84,.86,1.95,1.28,3.33,1.28s2.41-.43,3.26-1.28,1.28-1.97,1.28-3.35-.42-2.59-1.26-3.46c-.84-.87-1.94-1.3-3.29-1.3s-2.49,.43-3.33,1.3-1.26,2.03-1.26,3.46Z"/>
    <path class="cls-2" d="M538.85,559.54h5.94c.24,2.67,1.59,4.01,4.05,4.01,2.85,0,4.28-1.76,4.28-5.27v-17.59h5.76v17.64c0,3.42-.9,6.02-2.7,7.79-1.8,1.77-4.23,2.66-7.29,2.66s-5.42-.84-7.16-2.52c-1.74-1.68-2.7-3.92-2.88-6.71Z"/>
    <path class="cls-2" d="M581.33,548.21v20.12h-5.58v-1.84c-1.38,1.53-3.18,2.29-5.4,2.29s-3.95-.67-5.2-2.03c-1.25-1.35-1.87-3.15-1.87-5.4v-13.14h5.58v12.02c0,1.11,.27,1.98,.81,2.61s1.35,.95,2.43,.95c.87,0,1.63-.25,2.29-.74,.66-.5,1.09-1.18,1.3-2.05v-12.78h5.62Z"/>
    <path class="cls-2" d="M586.15,568.32v-20.12h5.58v1.85c1.32-1.53,3.12-2.3,5.4-2.3s4,.68,5.24,2.03,1.87,3.15,1.87,5.4v13.14h-5.58v-11.97c0-1.08-.28-1.94-.83-2.59-.56-.64-1.37-.97-2.45-.97-.87,0-1.64,.25-2.32,.74-.68,.5-1.12,1.18-1.33,2.05v12.74h-5.58Z"/>
    <path class="cls-2" d="M630.2,548.7c0-.99-.31-1.79-.94-2.41-.63-.61-1.49-.92-2.57-.92s-1.99,.35-2.63,1.06c-.65,.71-1,1.63-1.06,2.77h-5.94c.27-2.64,1.27-4.79,2.99-6.46,1.72-1.67,3.92-2.5,6.59-2.5,2.88,0,5.14,.74,6.79,2.23,1.65,1.49,2.47,3.49,2.47,6.01,0,1.08-.3,2.2-.9,3.35-.6,1.16-1.19,2.07-1.78,2.75-.58,.67-1.52,1.69-2.81,3.04l-5.31,5.71h11.12v5h-19.12v-3.74l8.78-9.22c2.01-2.22,3.24-3.74,3.69-4.54,.42-.75,.63-1.46,.63-2.12Z"/>
    <path class="cls-2" d="M657.74,564.81c-2.01,2.64-4.63,3.96-7.88,3.96s-5.87-1.32-7.88-3.96c-2.01-2.64-3.01-6.08-3.01-10.31s1-7.66,3.01-10.3c2.01-2.64,4.63-3.96,7.88-3.96s5.86,1.32,7.88,3.96c2.01,2.64,3.01,6.08,3.01,10.3s-1,7.67-3.01,10.31Zm-3.92-16.92c-.87-1.68-2.19-2.52-3.96-2.52s-3.09,.84-3.96,2.52-1.3,3.88-1.3,6.61,.43,4.94,1.3,6.62c.87,1.68,2.19,2.52,3.96,2.52s3.09-.84,3.96-2.52c.87-1.68,1.3-3.88,1.3-6.62s-.43-4.93-1.3-6.61Z"/>
    <path class="cls-2" d="M676.1,548.7c0-.99-.31-1.79-.94-2.41-.63-.61-1.49-.92-2.57-.92s-1.99,.35-2.63,1.06c-.65,.71-1,1.63-1.06,2.77h-5.94c.27-2.64,1.27-4.79,2.99-6.46,1.72-1.67,3.92-2.5,6.59-2.5,2.88,0,5.14,.74,6.79,2.23,1.65,1.49,2.47,3.49,2.47,6.01,0,1.08-.3,2.2-.9,3.35-.6,1.16-1.19,2.07-1.78,2.75-.58,.67-1.52,1.69-2.81,3.04l-5.31,5.71h11.12v5h-19.12v-3.74l8.78-9.22c2.01-2.22,3.24-3.74,3.69-4.54,.42-.75,.63-1.46,.63-2.12Z"/>
    <path class="cls-2" d="M694.73,554.82c-1.56,0-2.88,.62-3.96,1.84h-4.5v-15.97h16.2v5h-11.52v5.62c1.23-.84,2.71-1.26,4.46-1.26,2.67,0,4.82,.85,6.46,2.56s2.45,3.95,2.45,6.71-.88,5.1-2.63,6.84c-1.75,1.74-4.04,2.61-6.86,2.61s-5.22-.82-7.02-2.45c-1.8-1.63-2.8-3.82-3.01-6.55h5.58c.15,1.26,.61,2.26,1.37,2.99,.77,.74,1.79,1.1,3.08,1.1s2.22-.42,2.97-1.26,1.12-1.94,1.12-3.29-.38-2.4-1.12-3.24c-.75-.84-1.77-1.26-3.06-1.26Z"/>
    <path class="cls-2" d="M332.58,623.32h-5.71v-27.63h18.4v5.04h-12.69v7.02h11.75v5h-11.75v10.58Z"/>
    <path class="cls-2" d="M355.26,597.4c0,.93-.32,1.7-.97,2.29-.65,.6-1.42,.9-2.32,.9s-1.72-.3-2.36-.9c-.65-.6-.97-1.37-.97-2.29s.33-1.66,.99-2.27c.66-.61,1.44-.92,2.34-.92s1.67,.31,2.32,.92c.65,.62,.97,1.37,.97,2.27Zm-.5,5.8v20.12h-5.58v-20.12h5.58Z"/>
    <path class="cls-2" d="M359.62,623.32v-20.12h5.58v1.85c1.32-1.53,3.12-2.3,5.4-2.3s4,.68,5.24,2.03,1.87,3.15,1.87,5.4v13.14h-5.58v-11.97c0-1.08-.28-1.94-.83-2.59-.56-.64-1.37-.97-2.45-.97-.87,0-1.64,.25-2.32,.74-.68,.5-1.12,1.18-1.33,2.05v12.74h-5.58Z"/>
    <path class="cls-2" d="M395.17,621.97v-1.17c-1.14,1.38-2.79,2.07-4.95,2.07-2.79,0-5.01-.97-6.66-2.92-1.65-1.95-2.47-4.33-2.47-7.16s.83-5.16,2.47-7.11c1.65-1.95,3.87-2.93,6.66-2.93,2.13,0,3.78,.68,4.95,2.03v-1.58h5.54v17.91c0,3.33-.9,5.84-2.7,7.54-1.8,1.7-4.18,2.54-7.16,2.54-2.61,0-4.75-.63-6.41-1.89-1.67-1.26-2.65-3.02-2.95-5.27h5.4c.45,1.89,1.77,2.83,3.96,2.83,2.88,0,4.32-1.63,4.32-4.9Zm0-5.9v-6.57c-.84-1.38-2.1-2.07-3.78-2.07-1.47,0-2.62,.5-3.46,1.48-.84,.99-1.26,2.28-1.26,3.87s.42,2.89,1.26,3.89c.84,1.01,2,1.51,3.46,1.51,.81,0,1.55-.2,2.23-.61,.68-.41,1.19-.91,1.55-1.51Z"/>
    <path class="cls-2" d="M417.81,616.75h5.17c-.36,2.19-1.31,3.91-2.86,5.15-1.54,1.25-3.56,1.87-6.05,1.87-2.91,0-5.26-.97-7.06-2.9-1.8-1.94-2.7-4.46-2.7-7.58s.91-5.54,2.72-7.54c1.81-2,4.13-2.99,6.95-2.99s5.12,.91,6.73,2.72c1.6,1.82,2.41,4.24,2.41,7.27v1.71h-13.41c.09,1.5,.52,2.68,1.3,3.53,.78,.85,1.8,1.28,3.06,1.28,2.04,0,3.29-.84,3.74-2.52Zm-3.78-9.45c-2.28,0-3.67,1.26-4.18,3.78h7.79c-.03-1.11-.36-2.02-.99-2.72-.63-.7-1.5-1.06-2.61-1.06Z"/>
    <path class="cls-2" d="M438.87,603.12v5.58c-.75-.45-1.68-.67-2.79-.67-.96,0-1.79,.25-2.47,.74-.69,.5-1.14,1.19-1.35,2.09v12.46h-5.58v-20.12h5.58v1.98c.96-1.62,2.46-2.43,4.5-2.43,.99,0,1.69,.12,2.12,.36Z"/>
    <path class="cls-2" d="M448.05,621.66v9.09h-5.58v-27.54h5.58v1.67c.48-.57,1.18-1.06,2.12-1.48,.93-.42,1.9-.63,2.92-.63,2.82,0,5.05,1.01,6.71,3.04,1.65,2.02,2.48,4.52,2.48,7.49s-.83,5.46-2.48,7.47c-1.65,2.01-3.89,3.02-6.71,3.02-1.02,0-2-.21-2.92-.63-.93-.42-1.64-.92-2.12-1.49Zm0-11.7v6.62c.33,.69,.84,1.25,1.53,1.69,.69,.44,1.44,.65,2.25,.65,1.47,0,2.64-.52,3.51-1.58,.87-1.05,1.31-2.4,1.31-4.05s-.44-3.01-1.31-4.07c-.87-1.06-2.04-1.6-3.51-1.6-.81,0-1.55,.22-2.23,.65-.67,.44-1.19,1-1.55,1.69Z"/>
    <path class="cls-2" d="M478.02,603.12v5.58c-.75-.45-1.68-.67-2.79-.67-.96,0-1.79,.25-2.47,.74-.69,.5-1.14,1.19-1.35,2.09v12.46h-5.58v-20.12h5.58v1.98c.96-1.62,2.46-2.43,4.5-2.43,.99,0,1.69,.12,2.12,.36Z"/>
    <path class="cls-2" d="M487.69,597.4c0,.93-.32,1.7-.97,2.29-.65,.6-1.42,.9-2.32,.9s-1.72-.3-2.36-.9c-.65-.6-.97-1.37-.97-2.29s.33-1.66,.99-2.27c.66-.61,1.44-.92,2.34-.92s1.67,.31,2.32,.92c.65,.62,.97,1.37,.97,2.27Zm-.5,5.8v20.12h-5.58v-20.12h5.58Z"/>
    <path class="cls-2" d="M492.06,623.32v-20.12h5.58v1.85c1.32-1.53,3.12-2.3,5.4-2.3s4,.68,5.24,2.03,1.87,3.15,1.87,5.4v13.14h-5.58v-11.97c0-1.08-.28-1.94-.83-2.59-.56-.64-1.37-.97-2.45-.97-.87,0-1.64,.25-2.32,.74-.68,.5-1.12,1.18-1.33,2.05v12.74h-5.58Z"/>
    <path class="cls-2" d="M516,617.25v-9.54h-3.06v-4.5h3.06v-5.44h5.54v5.44h4.41v4.5h-4.41v8.82c0,1.53,.77,2.29,2.29,2.29,.93,0,1.74-.22,2.43-.67v4.95c-.78,.42-1.98,.63-3.6,.63-2.1,0-3.73-.54-4.9-1.62s-1.76-2.7-1.76-4.86Z"/>
    <path class="cls-2" d="M530.1,609.78c-.67-.69-1.01-1.54-1.01-2.57s.34-1.87,1.01-2.54,1.51-1.01,2.5-1.01,1.82,.34,2.5,1.01,1.01,1.52,1.01,2.54-.34,1.88-1.01,2.57c-.67,.69-1.51,1.04-2.5,1.04s-1.82-.34-2.5-1.04Zm0,12.83c-.67-.69-1.01-1.54-1.01-2.57s.34-1.87,1.01-2.54c.67-.68,1.51-1.01,2.5-1.01s1.82,.34,2.5,1.01c.67,.67,1.01,1.52,1.01,2.54s-.34,1.88-1.01,2.57-1.51,1.04-2.5,1.04-1.82-.34-2.5-1.04Z"/>
    <path class="cls-2" d="M555.37,597.4c0,.93-.32,1.7-.97,2.29-.65,.6-1.42,.9-2.32,.9s-1.72-.3-2.36-.9c-.65-.6-.97-1.37-.97-2.29s.33-1.66,.99-2.27c.66-.61,1.44-.92,2.34-.92s1.67,.31,2.32,.92c.65,.62,.97,1.37,.97,2.27Zm-.5,5.8v20.12h-5.58v-20.12h5.58Z"/>
    <path class="cls-2" d="M576.25,623.32h-5.36v-1.08c-.36,.36-1,.69-1.93,.99-.93,.3-1.92,.45-2.97,.45-2.13,0-3.91-.58-5.33-1.75-1.42-1.17-2.14-2.76-2.14-4.77,0-1.89,.74-3.43,2.23-4.63s3.34-1.8,5.56-1.8c.84,0,1.71,.12,2.61,.36,.9,.24,1.56,.51,1.98,.81v-1.49c0-.9-.28-1.64-.83-2.23-.56-.58-1.37-.88-2.45-.88-1.5,0-2.49,.63-2.97,1.89h-5.31c.3-1.86,1.22-3.4,2.77-4.61,1.54-1.21,3.44-1.82,5.69-1.82,2.67,0,4.75,.68,6.23,2.05,1.48,1.37,2.23,3.26,2.23,5.69v12.83Zm-5.36-5.49v-1.44c-.24-.54-.7-.97-1.37-1.28-.67-.31-1.43-.47-2.27-.47-.96,0-1.79,.21-2.5,.63s-1.06,1.04-1.06,1.84,.34,1.42,1.04,1.84c.69,.42,1.53,.63,2.52,.63,.84,0,1.6-.16,2.27-.47,.67-.32,1.13-.74,1.37-1.28Z"/>
    <path class="cls-2" d="M579.53,613.29c0-3.12,.9-5.65,2.7-7.6s4.12-2.93,6.97-2.93c2.46,0,4.47,.66,6.03,1.98,1.56,1.32,2.49,3.08,2.79,5.26h-5.49c-.15-.78-.52-1.39-1.1-1.82-.58-.43-1.33-.65-2.23-.65-1.26,0-2.27,.53-3.01,1.58-.75,1.05-1.12,2.45-1.12,4.18s.38,3.09,1.12,4.14c.75,1.05,1.75,1.57,3.01,1.57,.9,0,1.64-.22,2.23-.65,.58-.43,.95-1.04,1.1-1.82h5.49c-.3,2.19-1.22,3.95-2.77,5.26-1.55,1.32-3.56,1.98-6.05,1.98-2.85,0-5.17-.97-6.97-2.92s-2.7-4.47-2.7-7.56Z"/>
    <path class="cls-2" d="M610.27,623.77c-2.85,0-5.22-.72-7.11-2.16-1.89-1.44-2.83-3.39-2.83-5.85,0-1.68,.46-3.11,1.37-4.28,.91-1.17,2.06-1.95,3.44-2.34-1.2-.51-2.16-1.31-2.88-2.38-.72-1.08-1.08-2.33-1.08-3.74,0-2.43,.88-4.33,2.63-5.71,1.75-1.38,3.91-2.07,6.46-2.07s4.69,.69,6.43,2.07,2.61,3.29,2.61,5.71c0,1.41-.36,2.66-1.08,3.74-.72,1.08-1.68,1.88-2.88,2.38,1.38,.39,2.53,1.17,3.44,2.34s1.37,2.59,1.37,4.28c0,2.46-.95,4.41-2.83,5.85-1.89,1.44-4.25,2.16-7.07,2.16Zm0-4.54c1.26,0,2.3-.35,3.13-1.06,.82-.71,1.24-1.66,1.24-2.86s-.41-2.15-1.24-2.86c-.83-.71-1.87-1.06-3.13-1.06s-2.35,.35-3.17,1.06-1.24,1.66-1.24,2.86,.41,2.15,1.24,2.86,1.88,1.06,3.17,1.06Zm0-12.51c1.05,0,1.93-.31,2.66-.94,.72-.63,1.08-1.47,1.08-2.52s-.36-1.94-1.08-2.59c-.72-.65-1.61-.97-2.66-.97s-1.98,.32-2.7,.97-1.08,1.51-1.08,2.59,.36,1.89,1.08,2.52,1.62,.94,2.7,.94Z"/>
    <path class="cls-2" d="M622.91,616.35h5.58c.57,1.8,1.78,2.7,3.64,2.7,1.59,0,2.88-.78,3.87-2.34,.99-1.56,1.49-3.36,1.49-5.4v-.41c-.45,.87-1.2,1.58-2.25,2.12-1.05,.54-2.24,.81-3.56,.81-2.7,0-4.88-.88-6.52-2.63-1.65-1.75-2.48-3.91-2.48-6.46,0-2.7,.88-4.96,2.63-6.77,1.75-1.81,4.13-2.72,7.13-2.72,3.75,0,6.54,1.67,8.37,5,1.29,2.25,1.93,5.15,1.93,8.68,0,4.38-.95,7.95-2.86,10.71-1.91,2.76-4.48,4.14-7.72,4.14-2.55,0-4.61-.64-6.17-1.94-1.56-1.29-2.59-3.12-3.1-5.49Zm14.08-11.75c0-1.38-.42-2.5-1.26-3.35-.84-.86-1.95-1.28-3.33-1.28s-2.41,.43-3.26,1.28c-.86,.85-1.28,1.97-1.28,3.35s.42,2.59,1.26,3.46,1.93,1.3,3.29,1.3,2.49-.43,3.33-1.3c.84-.87,1.26-2.03,1.26-3.46Z"/>
    <path class="cls-2" d="M659.77,623.32l-5.9-8.1-1.62,1.75v6.34h-5.58v-29.25h5.58v16.61l6.88-7.47h6.93l-8.15,8.55,8.46,11.57h-6.61Z"/>
    <path class="cls-2" d="M674.71,603.21v20.92c0,2.25-.6,3.99-1.8,5.22-1.2,1.23-2.94,1.84-5.22,1.84-.99,0-1.71-.08-2.16-.22v-4.46c.63,.09,1.04,.13,1.21,.13,1.59,0,2.38-.86,2.38-2.57v-20.88h5.58Zm.5-5.8c0,.93-.32,1.7-.97,2.29-.65,.6-1.42,.9-2.32,.9s-1.72-.3-2.36-.9c-.65-.6-.97-1.37-.97-2.29s.33-1.66,.99-2.27c.66-.61,1.44-.92,2.34-.92s1.67,.31,2.32,.92c.65,.62,.97,1.37,.97,2.27Z"/>
    <path class="cls-2" d="M679.28,622.6c-.67-.69-1.01-1.54-1.01-2.57s.34-1.87,1.01-2.54c.67-.68,1.51-1.01,2.5-1.01s1.82,.34,2.5,1.01c.67,.67,1.01,1.52,1.01,2.54s-.34,1.88-1.01,2.57-1.51,1.04-2.5,1.04-1.82-.34-2.5-1.04Z"/>
    <path class="cls-2" d="M688.72,622.6c-.67-.69-1.01-1.54-1.01-2.57s.34-1.87,1.01-2.54c.67-.68,1.51-1.01,2.5-1.01s1.82,.34,2.5,1.01c.67,.67,1.01,1.52,1.01,2.54s-.34,1.88-1.01,2.57-1.51,1.04-2.5,1.04-1.82-.34-2.5-1.04Z"/>
    <path class="cls-2" d="M698.17,622.6c-.67-.69-1.01-1.54-1.01-2.57s.34-1.87,1.01-2.54c.67-.68,1.51-1.01,2.5-1.01s1.82,.34,2.5,1.01c.67,.67,1.01,1.52,1.01,2.54s-.34,1.88-1.01,2.57-1.51,1.04-2.5,1.04-1.82-.34-2.5-1.04Z"/>
  </g>
  <g>
    <polygon class="cls-2" points="751.36 547.41 755.73 547.41 755.73 543.05 760.09 543.05 760.09 538.68 755.73 538.68 755.73 534.32 760.09 534.32 760.09 538.68 764.45 538.68 768.82 538.68 768.82 534.32 773.18 534.32 777.55 534.32 777.55 538.68 773.18 538.68 773.18 543.05 777.55 543.05 777.55 547.41 773.18 547.41 773.18 551.77 777.55 551.77 781.91 551.77 781.91 556.14 786.27 556.14 786.27 551.77 786.27 547.41 781.91 547.41 781.91 543.05 786.27 543.05 786.27 538.68 781.91 538.68 781.91 534.32 781.91 529.96 781.91 525.59 777.55 525.59 777.55 529.96 773.18 529.96 773.18 525.59 777.55 525.59 777.55 521.23 773.18 521.23 768.82 521.23 764.45 521.23 764.45 525.59 768.82 525.59 768.82 529.96 764.45 529.96 764.45 525.59 760.09 525.59 760.09 521.23 755.73 521.23 755.73 525.59 755.73 529.96 751.36 529.96 747 529.96 747 534.32 751.36 534.32 751.36 538.68 751.36 543.05 747 543.05 747 547.41 747 551.77 747 556.14 751.36 556.14 751.36 551.77 751.36 547.41"/>
    <rect class="cls-2" x="747" y="586.68" width="4.36" height="4.36"/>
    <rect class="cls-2" x="755.73" y="547.41" width="4.36" height="4.36"/>
    <polygon class="cls-2" points="755.73 591.05 751.36 591.05 751.36 595.41 755.73 595.41 760.09 595.41 760.09 591.05 760.09 586.68 755.73 586.68 755.73 591.05"/>
    <rect class="cls-2" x="768.82" y="543.05" width="4.36" height="4.36"/>
    <rect class="cls-2" x="781.91" y="490.68" width="4.36" height="4.36"/>
    <rect class="cls-2" x="781.91" y="503.77" width="4.36" height="4.36"/>
    <rect class="cls-2" x="781.91" y="512.5" width="4.36" height="4.36"/>
    <rect class="cls-2" x="781.91" y="521.23" width="4.36" height="4.36"/>
    <polygon class="cls-2" points="786.27 604.14 781.91 604.14 781.91 608.5 781.91 612.87 786.27 612.87 786.27 608.5 786.27 604.14"/>
    <rect class="cls-2" x="786.27" y="508.14" width="4.36" height="4.36"/>
    <rect class="cls-2" x="786.27" y="525.59" width="4.36" height="4.36"/>
    <rect class="cls-2" x="786.27" y="543.05" width="4.36" height="4.36"/>
    <polygon class="cls-2" points="786.27 612.87 786.27 617.23 781.91 617.23 781.91 621.59 786.27 621.59 790.64 621.59 790.64 617.23 795 617.23 795 612.87 790.64 612.87 786.27 612.87"/>
    <polygon class="cls-2" points="790.64 495.05 795 495.05 795 490.68 799.36 490.68 799.36 486.32 795 486.32 790.64 486.32 786.27 486.32 786.27 490.68 790.64 490.68 790.64 495.05"/>
    <rect class="cls-2" x="790.64" y="621.59" width="4.36" height="4.36"/>
    <polygon class="cls-2" points="795 529.96 795 534.32 799.36 534.32 799.36 538.68 795 538.68 795 534.32 790.64 534.32 790.64 538.68 790.64 543.05 795 543.05 799.36 543.05 803.73 543.05 803.73 547.41 799.36 547.41 795 547.41 795 551.77 799.36 551.77 803.73 551.77 808.09 551.77 808.09 556.14 812.45 556.14 812.45 560.5 808.09 560.5 803.73 560.5 803.73 564.87 803.73 569.23 799.36 569.23 795 569.23 795 573.59 799.36 573.59 803.73 573.59 803.73 577.96 808.09 577.96 812.45 577.96 812.45 573.59 808.09 573.59 808.09 569.23 812.45 569.23 816.82 569.23 816.82 564.87 816.82 560.5 821.18 560.5 825.55 560.5 825.55 556.14 825.55 551.77 821.18 551.77 821.18 556.14 816.82 556.14 816.82 551.77 812.45 551.77 812.45 547.41 808.09 547.41 808.09 543.05 808.09 538.68 812.45 538.68 812.45 534.32 808.09 534.32 803.73 534.32 803.73 529.96 799.36 529.96 799.36 525.59 799.36 521.23 803.73 521.23 803.73 516.87 803.73 512.5 803.73 508.14 803.73 503.77 799.36 503.77 799.36 499.41 795 499.41 790.64 499.41 790.64 495.05 786.27 495.05 786.27 499.41 786.27 503.77 790.64 503.77 795 503.77 795 508.14 795 512.5 799.36 512.5 799.36 516.87 795 516.87 795 512.5 790.64 512.5 790.64 516.87 790.64 521.23 790.64 525.59 795 525.59 795 529.96"/>
    <polygon class="cls-2" points="799.36 560.5 799.36 556.14 795 556.14 790.64 556.14 790.64 560.5 795 560.5 799.36 560.5"/>
    <path class="cls-2" d="M795,599.77v-8.73h4.36v-4.36h4.36v-4.36h-8.73v4.36h-8.73v-4.36h4.36v-4.36h-4.36v-4.36h-4.36v-4.36h-4.36v4.36h-8.73v4.36h-8.73v-4.36h8.73v-4.36h-8.73v-4.36h8.73v4.36h8.73v-4.36h-4.36v-4.36h4.36v4.36h8.73v4.36h8.73v-4.36h-4.36v-4.36h-8.73v-4.36h-13.09v-8.73h-4.36v4.36h-4.36v4.36h-8.73v4.36h4.36v4.36h-8.73v4.36h4.36v4.36h4.36v8.73h4.36v4.36h8.73v8.73h13.09v4.36h8.73v4.36h13.09v-4.36h-8.73Zm-17.45-8.73h-4.36v-4.36h4.36v-4.36h-4.36v-4.36h4.36v4.36h4.36v8.73h-4.36Zm8.73,4.36v-4.36h4.36v4.36h-4.36Z"/>
    <polygon class="cls-2" points="799.36 499.41 803.73 499.41 808.09 499.41 808.09 495.05 803.73 495.05 803.73 490.68 799.36 490.68 799.36 495.05 799.36 499.41"/>
    <polygon class="cls-2" points="803.73 608.5 799.36 608.5 799.36 612.87 799.36 617.23 803.73 617.23 803.73 612.87 803.73 608.5"/>
    <rect class="cls-2" x="799.36" y="625.96" width="4.36" height="4.36"/>
    <rect class="cls-2" x="803.73" y="486.32" width="4.36" height="4.36"/>
    <polygon class="cls-2" points="803.73 529.96 808.09 529.96 812.45 529.96 812.45 534.32 816.82 534.32 816.82 529.96 821.18 529.96 821.18 534.32 825.55 534.32 825.55 529.96 825.55 525.59 821.18 525.59 821.18 521.23 825.55 521.23 829.91 521.23 829.91 525.59 834.27 525.59 834.27 521.23 834.27 516.87 829.91 516.87 829.91 512.5 825.55 512.5 825.55 516.87 821.18 516.87 821.18 512.5 816.82 512.5 816.82 516.87 812.45 516.87 812.45 512.5 812.45 508.14 812.45 503.77 808.09 503.77 808.09 508.14 808.09 512.5 808.09 516.87 808.09 521.23 803.73 521.23 803.73 525.59 803.73 529.96"/>
    <polygon class="cls-2" points="803.73 617.23 803.73 621.59 808.09 621.59 808.09 625.96 812.45 625.96 812.45 621.59 812.45 617.23 808.09 617.23 803.73 617.23"/>
    <polygon class="cls-2" points="821.18 495.05 825.55 495.05 825.55 490.68 829.91 490.68 834.27 490.68 834.27 486.32 829.91 486.32 825.55 486.32 821.18 486.32 816.82 486.32 816.82 490.68 812.45 490.68 812.45 495.05 816.82 495.05 821.18 495.05"/>
    <polygon class="cls-2" points="816.82 508.14 821.18 508.14 825.55 508.14 825.55 503.77 829.91 503.77 834.27 503.77 834.27 499.41 829.91 499.41 825.55 499.41 821.18 499.41 816.82 499.41 812.45 499.41 812.45 503.77 816.82 503.77 816.82 508.14"/>
    <rect class="cls-2" x="816.82" y="569.23" width="4.36" height="4.36"/>
    <polygon class="cls-2" points="816.82 608.5 812.45 608.5 812.45 612.87 816.82 612.87 821.18 612.87 821.18 608.5 816.82 608.5"/>
    <rect class="cls-2" x="816.82" y="621.59" width="4.36" height="4.36"/>
    <rect class="cls-2" x="821.18" y="564.87" width="4.36" height="4.36"/>
    <rect class="cls-2" x="821.18" y="595.41" width="4.36" height="4.36"/>
    <polygon class="cls-2" points="829.91 543.05 829.91 538.68 825.55 538.68 821.18 538.68 821.18 534.32 816.82 534.32 816.82 538.68 812.45 538.68 812.45 543.05 816.82 543.05 821.18 543.05 825.55 543.05 825.55 547.41 825.55 551.77 829.91 551.77 829.91 556.14 834.27 556.14 834.27 551.77 834.27 547.41 829.91 547.41 829.91 543.05"/>
    <polygon class="cls-2" points="829.91 617.23 829.91 612.87 825.55 612.87 821.18 612.87 821.18 617.23 821.18 621.59 825.55 621.59 825.55 617.23 829.91 617.23"/>
    <rect class="cls-2" x="829.91" y="529.96" width="4.36" height="4.36"/>
    <rect class="cls-2" x="834.27" y="495.05" width="4.36" height="4.36"/>
    <polygon class="cls-2" points="838.64 512.5 838.64 508.14 834.27 508.14 834.27 512.5 834.27 516.87 838.64 516.87 838.64 512.5"/>
    <rect class="cls-2" x="834.27" y="534.32" width="4.36" height="4.36"/>
    <polygon class="cls-2" points="834.27 564.87 838.64 564.87 838.64 560.5 838.64 556.14 834.27 556.14 834.27 560.5 834.27 564.87"/>
    <path class="cls-2" d="M834.27,569.23v8.73h4.36v-4.36h8.73v4.36h-4.36v4.36h8.73v4.36h-8.73v-4.36h-4.36v8.73h-4.36v-4.36h-4.36v-4.36h4.36v-4.36h-8.73v4.36h-4.36v-4.36h-8.73v4.36h4.36v8.73h-4.36v-4.36h-4.36v4.36h-8.73v4.36h4.36v4.36h4.36v8.73h4.36v-4.36h8.73v-4.36h-4.36v-4.36h4.36v-4.36h8.73v13.09h-4.36v4.36h8.73v-4.36h4.36v-4.36h-4.36v-4.36h4.36v4.36h4.36v-4.36h4.36v13.09h4.36v8.73h4.36v-4.36h4.36v4.36h4.36v-4.36h4.36v4.36h4.36v-4.36h8.73v-8.73h4.36v-8.73h4.36v-8.73h-17.45v4.36h-13.09v-4.36h-4.36v-4.36h4.36v-4.36h-8.73v-8.73h-8.73v-4.36h-4.36v4.36h-4.36Zm43.64,26.18v-4.36h4.36v8.73h-8.73v-4.36h4.36Zm-13.09,0h4.36v13.09h-13.09v-13.09h8.73Z"/>
    <polygon class="cls-2" points="834.27 617.23 838.64 617.23 838.64 612.87 838.64 608.5 834.27 608.5 834.27 612.87 834.27 617.23"/>
    <polygon class="cls-2" points="843 490.68 843 486.32 838.64 486.32 838.64 490.68 838.64 495.05 843 495.05 843 490.68"/>
    <rect class="cls-2" x="838.64" y="604.14" width="4.36" height="4.36"/>
    <polygon class="cls-2" points="843 499.41 843 503.77 843 508.14 847.36 508.14 851.73 508.14 851.73 503.77 847.36 503.77 847.36 499.41 843 499.41"/>
    <rect class="cls-2" x="843" y="512.5" width="4.36" height="4.36"/>
    <polygon class="cls-2" points="847.36 534.32 847.36 529.96 843 529.96 843 525.59 843 521.23 838.64 521.23 838.64 525.59 838.64 529.96 838.64 534.32 843 534.32 847.36 534.32"/>
    <polygon class="cls-2" points="856.09 499.41 856.09 495.05 856.09 490.68 856.09 486.32 851.73 486.32 851.73 490.68 851.73 495.05 851.73 499.41 851.73 503.77 856.09 503.77 856.09 499.41"/>
    <polygon class="cls-2" points="851.73 516.87 856.09 516.87 856.09 512.5 856.09 508.14 851.73 508.14 851.73 512.5 851.73 516.87"/>
    <polygon class="cls-2" points="856.09 621.59 851.73 621.59 847.36 621.59 847.36 617.23 847.36 612.87 847.36 608.5 843 608.5 843 612.87 843 617.23 838.64 617.23 838.64 621.59 834.27 621.59 829.91 621.59 825.55 621.59 825.55 625.96 829.91 625.96 829.91 630.32 834.27 630.32 838.64 630.32 838.64 625.96 843 625.96 847.36 625.96 847.36 630.32 851.73 630.32 856.09 630.32 856.09 625.96 860.45 625.96 864.82 625.96 869.18 625.96 869.18 621.59 864.82 621.59 860.45 621.59 860.45 617.23 856.09 617.23 856.09 621.59"/>
    <polygon class="cls-2" points="860.45 525.59 860.45 521.23 856.09 521.23 856.09 525.59 851.73 525.59 851.73 529.96 856.09 529.96 860.45 529.96 864.82 529.96 864.82 525.59 860.45 525.59"/>
    <polygon class="cls-2" points="860.45 564.87 860.45 569.23 864.82 569.23 864.82 573.59 864.82 577.96 869.18 577.96 869.18 573.59 869.18 569.23 869.18 564.87 864.82 564.87 860.45 564.87"/>
    <rect class="cls-2" x="860.45" y="599.77" width="4.36" height="4.36"/>
    <rect class="cls-2" x="869.18" y="521.23" width="4.36" height="4.36"/>
    <polygon class="cls-2" points="869.18 551.77 864.82 551.77 864.82 556.14 860.45 556.14 860.45 551.77 856.09 551.77 856.09 556.14 851.73 556.14 851.73 551.77 851.73 547.41 856.09 547.41 856.09 543.05 856.09 538.68 851.73 538.68 847.36 538.68 843 538.68 838.64 538.68 838.64 543.05 834.27 543.05 834.27 547.41 838.64 547.41 843 547.41 847.36 547.41 847.36 551.77 843 551.77 843 556.14 843 560.5 847.36 560.5 851.73 560.5 856.09 560.5 860.45 560.5 864.82 560.5 869.18 560.5 869.18 556.14 873.55 556.14 873.55 560.5 869.18 560.5 869.18 564.87 873.55 564.87 877.91 564.87 877.91 569.23 882.27 569.23 886.64 569.23 886.64 564.87 882.27 564.87 882.27 560.5 882.27 556.14 877.91 556.14 877.91 551.77 873.55 551.77 873.55 547.41 873.55 543.05 869.18 543.05 869.18 547.41 869.18 551.77"/>
    <polygon class="cls-2" points="869.18 582.32 864.82 582.32 864.82 586.68 869.18 586.68 873.55 586.68 873.55 582.32 869.18 582.32"/>
    <rect class="cls-2" x="869.18" y="625.96" width="4.36" height="4.36"/>
    <rect class="cls-2" x="873.55" y="621.59" width="4.36" height="4.36"/>
    <polygon class="cls-2" points="886.64 521.23 882.27 521.23 882.27 525.59 882.27 529.96 877.91 529.96 877.91 525.59 873.55 525.59 873.55 529.96 869.18 529.96 864.82 529.96 864.82 534.32 860.45 534.32 856.09 534.32 856.09 538.68 860.45 538.68 860.45 543.05 860.45 547.41 860.45 551.77 864.82 551.77 864.82 547.41 864.82 543.05 869.18 543.05 869.18 538.68 869.18 534.32 873.55 534.32 873.55 538.68 877.91 538.68 877.91 543.05 882.27 543.05 882.27 538.68 886.64 538.68 886.64 534.32 891 534.32 891 529.96 891 525.59 886.64 525.59 886.64 521.23"/>
    <rect class="cls-2" x="882.27" y="543.05" width="4.36" height="4.36"/>
    <rect class="cls-2" x="882.27" y="551.77" width="4.36" height="4.36"/>
    <rect class="cls-2" x="886.64" y="538.68" width="4.36" height="4.36"/>
    <rect class="cls-2" x="886.64" y="560.5" width="4.36" height="4.36"/>
    <polygon class="cls-2" points="886.64 577.96 882.27 577.96 882.27 573.59 877.91 573.59 877.91 569.23 873.55 569.23 873.55 573.59 873.55 577.96 877.91 577.96 877.91 582.32 882.27 582.32 886.64 582.32 891 582.32 891 577.96 891 573.59 891 569.23 886.64 569.23 886.64 573.59 886.64 577.96"/>
    <rect class="cls-2" x="886.64" y="625.96" width="4.36" height="4.36"/>
    <path class="cls-2" d="M777.55,486.32h-30.55v30.55h30.55v-30.55Zm-4.36,26.18h-21.82v-21.82h21.82v21.82Z"/>
    <rect class="cls-2" x="755.73" y="495.05" width="13.09" height="13.09"/>
    <path class="cls-2" d="M860.45,486.32v30.55h30.55v-30.55h-30.55Zm26.18,26.18h-21.82v-21.82h21.82v21.82Z"/>
    <rect class="cls-2" x="869.18" y="495.05" width="13.09" height="13.09"/>
    <path class="cls-2" d="M747,630.32h30.55v-30.55h-30.55v30.55Zm4.36-26.18h21.82v21.82h-21.82v-21.82Z"/>
    <rect class="cls-2" x="755.73" y="608.5" width="13.09" height="13.09"/>
  </g>
</svg>