<svg id="OUTLINES" xmlns="http://www.w3.org/2000/svg" viewBox="0 0 1152 1008"><defs><style>.cls-1{fill:#fff;}.cls-2{fill:#000f7d;}</style></defs><title>trusted-contacts</title><rect class="cls-1" x="368" y="282.15" width="432" height="99" rx="18" transform="translate(1168 663.3) rotate(180)"/><path class="cls-1" d="M782,387.15H386a24,24,0,0,1-24-24v-63a24,24,0,0,1,24-24H782a24,24,0,0,1,24,24v63A24,24,0,0,1,782,387.15Zm-396-99a12,12,0,0,0-12,12v63a12,12,0,0,0,12,12H782a12,12,0,0,0,12-12v-63a12,12,0,0,0-12-12Z"/><rect class="cls-1" x="368" y="381.15" width="432" height="202.85" rx="18" transform="translate(1168 965.15) rotate(180)"/><path class="cls-1" d="M782,590H386a24,24,0,0,1-24-24V399.15a24,24,0,0,1,24-24H782a24,24,0,0,1,24,24V566A24,24,0,0,1,782,590ZM386,387.15a12,12,0,0,0-12,12V566a12,12,0,0,0,12,12H782a12,12,0,0,0,12-12V399.15a12,12,0,0,0-12-12Z"/><path class="cls-2" d="M549.78,543.78h-3.91l-6.84-18v18h-5.4V516.15h6.84l7.38,19.49,7.33-19.49h6.75v27.63h-5.44v-18Z"/><path class="cls-2" d="M584.84,523.67v20.11h-5.58v-1.84a6.93,6.93,0,0,1-5.4,2.29,6.71,6.71,0,0,1-5.2-2,7.63,7.63,0,0,1-1.87-5.4V523.67h5.58v12a3.88,3.88,0,0,0,.81,2.61,3,3,0,0,0,2.43,1,3.76,3.76,0,0,0,2.3-.74,3.5,3.5,0,0,0,1.3-2V523.67Z"/><path class="cls-2" d="M605.72,525.78a7.83,7.83,0,0,1,6.07-2.56,6.14,6.14,0,0,1,4.86,2,7.94,7.94,0,0,1,1.76,5.42v13.14h-5.58v-12a4.21,4.21,0,0,0-.75-2.63,2.53,2.53,0,0,0-2.13-1,3.11,3.11,0,0,0-2,.68,3.22,3.22,0,0,0-1.13,1.93v13h-5.62v-12q0-3.6-2.84-3.6a3.14,3.14,0,0,0-2,.7,3.24,3.24,0,0,0-1.15,1.91v13h-5.58V523.67h5.58v1.66a6.08,6.08,0,0,1,5.09-2.11A6.39,6.39,0,0,1,605.72,525.78Z"/><path class="cls-2" d="M430.18,533.48h-3v10.31h-5.71V516.15h11.38a10.34,10.34,0,0,1,7.07,2.3,8.17,8.17,0,0,1,2.61,6.48,8.28,8.28,0,0,1-1.67,5.33,8.07,8.07,0,0,1-4.63,2.81l7.29,10.72H437Zm-3-12.42v7.69h5.31a4.62,4.62,0,0,0,3.24-1,3.61,3.61,0,0,0,1.13-2.79,3.69,3.69,0,0,0-1.13-2.84,4.62,4.62,0,0,0-3.24-1Z"/><path class="cls-2" d="M452.63,517.87a3,3,0,0,1-1,2.29,3.26,3.26,0,0,1-2.31.9,3.37,3.37,0,0,1-2.37-.9,3.17,3.17,0,0,1,0-4.57,3.34,3.34,0,0,1,2.34-.92,3.23,3.23,0,0,1,2.31.92A3,3,0,0,1,452.63,517.87Zm-.49,5.8v20.12h-5.58V523.67Z"/><path class="cls-2" d="M470.09,543.79l-5.89-8.1-1.62,1.75v6.35H457V514.54h5.58v16.6l6.88-7.47h6.93l-8.14,8.55,8.46,11.57Z"/><path class="cls-2" d="M682.63,535h5.94q.36,4,4,4,4.27,0,4.27-5.27v-17.6h5.76v17.64q0,5.13-2.7,7.79a11.38,11.38,0,0,1-14.44.13A9.79,9.79,0,0,1,682.63,535Z"/><path class="cls-2" d="M725.74,533.75a10.61,10.61,0,0,1-2.75,7.56,10.12,10.12,0,0,1-14.22,0,11.87,11.87,0,0,1,0-15.17,10.12,10.12,0,0,1,14.22,0A10.7,10.7,0,0,1,725.74,533.75Zm-5.54,0a7,7,0,0,0-1.15-4.21,4,4,0,0,0-6.34,0,7.11,7.11,0,0,0-1.15,4.21,7,7,0,0,0,1.15,4.16,3.94,3.94,0,0,0,6.34,0A6.92,6.92,0,0,0,720.2,533.75Z"/><path class="cls-2" d="M422.48,315.26v-5h23.58v5h-8.91v22.59h-5.81V315.26Z"/><path class="cls-2" d="M459.74,317.64v5.58a5.34,5.34,0,0,0-2.79-.67,4.18,4.18,0,0,0-2.48.74,3.44,3.44,0,0,0-1.35,2.09v12.47h-5.58V317.73h5.58v2a4.85,4.85,0,0,1,4.5-2.42A4.72,4.72,0,0,1,459.74,317.64Z"/><path class="cls-2" d="M481.16,317.73v20.12h-5.58V336a6.9,6.9,0,0,1-5.4,2.3,6.73,6.73,0,0,1-5.2-2,7.67,7.67,0,0,1-1.87-5.39V317.73h5.58v12a3.88,3.88,0,0,0,.81,2.61,3,3,0,0,0,2.43.94,3.7,3.7,0,0,0,2.3-.74,3.44,3.44,0,0,0,1.3-2.05V317.73Z"/><path class="cls-2" d="M484.67,331.87h5.53c.45,1.46,1.58,2.2,3.38,2.2s2.83-.66,2.83-2a1.28,1.28,0,0,0-.47-1.06,4.24,4.24,0,0,0-1.55-.65l-4.05-.9q-5.22-1.22-5.22-5.67a5.72,5.72,0,0,1,2.29-4.7,8.89,8.89,0,0,1,5.72-1.82,9.37,9.37,0,0,1,5.87,1.64,7.16,7.16,0,0,1,2.68,4.57h-5.31c-.42-1.33-1.47-2-3.15-2a3.46,3.46,0,0,0-1.87.5,1.57,1.57,0,0,0-.79,1.4c0,.75.6,1.27,1.8,1.57l4.14.94c3.57.87,5.36,2.83,5.36,5.85a5.65,5.65,0,0,1-2.32,4.77,9.53,9.53,0,0,1-5.92,1.76,10.32,10.32,0,0,1-6.12-1.69A6.73,6.73,0,0,1,484.67,331.87Z"/><path class="cls-2" d="M506.85,331.77v-9.54h-3.06v-4.5h3.06v-5.44h5.54v5.44h4.41v4.5h-4.41v8.82a2,2,0,0,0,2.29,2.3,4.35,4.35,0,0,0,2.43-.68v4.95a7.89,7.89,0,0,1-3.6.63,7,7,0,0,1-4.9-1.62A6.3,6.3,0,0,1,506.85,331.77Z"/><path class="cls-2" d="M533.22,331.28h5.18a8,8,0,0,1-2.86,5.15,10.35,10.35,0,0,1-13.12-1,11.88,11.88,0,0,1,0-15.12,9,9,0,0,1,6.95-3,8.47,8.47,0,0,1,6.72,2.72,10.54,10.54,0,0,1,2.41,7.26V329H525.12a5.58,5.58,0,0,0,1.31,3.54,4,4,0,0,0,3.06,1.28Q532.55,333.8,533.22,331.28Zm-3.78-9.45q-3.42,0-4.18,3.78H533a4.09,4.09,0,0,0-1-2.72A3.31,3.31,0,0,0,529.44,321.83Z"/><path class="cls-2" d="M555.18,337.85v-1.67a5.85,5.85,0,0,1-2.11,1.49,7.05,7.05,0,0,1-2.93.63,8.18,8.18,0,0,1-6.68-3,12.72,12.72,0,0,1,0-15,8.14,8.14,0,0,1,6.68-3,7.05,7.05,0,0,1,2.93.63,5.72,5.72,0,0,1,2.11,1.48V308.6h5.63v29.25Zm0-6.75v-6.62a4,4,0,0,0-1.53-1.68,4.1,4.1,0,0,0-2.25-.66,4.31,4.31,0,0,0-3.51,1.6,6.25,6.25,0,0,0-1.3,4.07,6.16,6.16,0,0,0,1.3,4.06,4.32,4.32,0,0,0,3.51,1.57,4.17,4.17,0,0,0,3.78-2.34Z"/><path class="cls-2" d="M573.9,327.81a10.77,10.77,0,0,1,2.7-7.6,10,10,0,0,1,13-.95,8.08,8.08,0,0,1,2.79,5.27h-5.49a2.82,2.82,0,0,0-1.11-1.82,3.82,3.82,0,0,0-5.24.92,8.3,8.3,0,0,0,0,8.33,3.55,3.55,0,0,0,3,1.57,3.63,3.63,0,0,0,2.22-.65,2.87,2.87,0,0,0,1.11-1.83h5.49a8.12,8.12,0,0,1-2.77,5.27,10,10,0,0,1-13-.94A10.73,10.73,0,0,1,573.9,327.81Z"/><path class="cls-2" d="M614.31,327.81a10.62,10.62,0,0,1-2.74,7.57,10.12,10.12,0,0,1-14.22,0,11.84,11.84,0,0,1,0-15.17,10.12,10.12,0,0,1,14.22,0A10.67,10.67,0,0,1,614.31,327.81Zm-5.53,0a7.08,7.08,0,0,0-1.15-4.2,4,4,0,0,0-6.35,0,8.25,8.25,0,0,0,0,8.37,4,4,0,0,0,6.35,0A7,7,0,0,0,608.78,327.81Z"/><path class="cls-2" d="M617.87,337.85V317.73h5.58v1.85a7.65,7.65,0,0,1,10.64-.27,7.68,7.68,0,0,1,1.87,5.4v13.14h-5.58v-12a3.82,3.82,0,0,0-.84-2.59,3.06,3.06,0,0,0-2.45-1,3.8,3.8,0,0,0-2.32.74,3.45,3.45,0,0,0-1.32,2.05v12.73Z"/><path class="cls-2" d="M641.81,331.77v-9.54h-3.06v-4.5h3.06v-5.44h5.53v5.44h4.41v4.5h-4.41v8.82a2,2,0,0,0,2.3,2.3,4.35,4.35,0,0,0,2.43-.68v4.95a7.89,7.89,0,0,1-3.6.63,7,7,0,0,1-4.91-1.62A6.29,6.29,0,0,1,641.81,331.77Z"/><path class="cls-2" d="M672.32,337.85H667v-1.08a4.93,4.93,0,0,1-1.93,1,9.62,9.62,0,0,1-3,.45,8.21,8.21,0,0,1-5.34-1.75,5.86,5.86,0,0,1-2.13-4.78,5.69,5.69,0,0,1,2.22-4.63,8.57,8.57,0,0,1,5.56-1.8,10.12,10.12,0,0,1,2.61.36,6.34,6.34,0,0,1,2,.81v-1.49a3.12,3.12,0,0,0-.83-2.22,3.21,3.21,0,0,0-2.45-.88,2.86,2.86,0,0,0-3,1.89H655.4a7.15,7.15,0,0,1,2.76-4.61,10.19,10.19,0,0,1,11.93.22,7.37,7.37,0,0,1,2.23,5.69ZM667,332.36v-1.44a2.62,2.62,0,0,0-1.37-1.28,5.24,5.24,0,0,0-2.27-.47,4.88,4.88,0,0,0-2.5.62,2.15,2.15,0,0,0,0,3.69,4.67,4.67,0,0,0,2.52.64,5.24,5.24,0,0,0,2.27-.48A2.62,2.62,0,0,0,667,332.36Z"/><path class="cls-2" d="M675.6,327.81a10.77,10.77,0,0,1,2.7-7.6,10,10,0,0,1,13-.95,8.08,8.08,0,0,1,2.79,5.27H688.6a2.81,2.81,0,0,0-1.1-1.82,3.6,3.6,0,0,0-2.23-.66,3.52,3.52,0,0,0-3,1.58,8.24,8.24,0,0,0,0,8.33,3.53,3.53,0,0,0,3,1.57,3.66,3.66,0,0,0,2.23-.65,2.85,2.85,0,0,0,1.1-1.83h5.49a8.11,8.11,0,0,1-2.76,5.27,10,10,0,0,1-13-.94A10.73,10.73,0,0,1,675.6,327.81Z"/><path class="cls-2" d="M698.91,331.77v-9.54h-3.06v-4.5h3.06v-5.44h5.53v5.44h4.41v4.5h-4.41v8.82a2,2,0,0,0,2.3,2.3,4.35,4.35,0,0,0,2.43-.68v4.95a7.89,7.89,0,0,1-3.6.63,6.93,6.93,0,0,1-4.9-1.62A6.3,6.3,0,0,1,698.91,331.77Z"/><path class="cls-2" d="M711.73,331.87h5.54c.45,1.46,1.57,2.2,3.37,2.2s2.84-.66,2.84-2A1.31,1.31,0,0,0,723,331a4.3,4.3,0,0,0-1.56-.65l-4.05-.9q-5.22-1.22-5.22-5.67a5.73,5.73,0,0,1,2.3-4.7,8.86,8.86,0,0,1,5.71-1.82,9.42,9.42,0,0,1,5.88,1.64,7.14,7.14,0,0,1,2.67,4.57h-5.31c-.42-1.33-1.47-2-3.15-2a3.4,3.4,0,0,0-1.86.5,1.55,1.55,0,0,0-.79,1.4c0,.75.6,1.27,1.8,1.57l4.14.94c3.57.87,5.35,2.83,5.35,5.85a5.65,5.65,0,0,1-2.31,4.77,9.55,9.55,0,0,1-5.92,1.76,10.32,10.32,0,0,1-6.12-1.69A6.74,6.74,0,0,1,711.73,331.87Z"/><path class="cls-2" d="M575.79,693.05a23,23,0,1,0-23-23A23,23,0,0,0,575.79,693.05Zm0-36a13,13,0,1,1-13,13A13,13,0,0,1,575.79,657.05Z"/><path class="cls-2" d="M775,602.31l-20-20h18.73a24,24,0,0,0,24-24V391.5a24,24,0,0,0-8.15-18,24,24,0,0,0,8.15-18v-63a24,24,0,0,0-24-24h-49V233.55a23,23,0,0,0-23-23h-252a23,23,0,0,0-23,23V268.5h-49a24,24,0,0,0-24,24v63a24,24,0,0,0,8.15,18,24,24,0,0,0-8.15,18V558.35a24,24,0,0,0,24,24h49v119.2a23,23,0,0,0,23,23h121v28.69a77.91,77.91,0,0,0,40.9,68.85v23.46a5,5,0,0,0,10,0v-26.5a5,5,0,0,0-2.78-4.48,68,68,0,0,1-38.12-61.33V724.55H677a78.33,78.33,0,0,0,5,95.75,5,5,0,0,0,7.58-6.53,68.35,68.35,0,0,1,0-89.23,5,5,0,0,0-.07-6.61l-63.22-70.21a28.59,28.59,0,0,1,17.86-48l1.39-.11,70.7,70.7.12.11,34.26,34.26a5,5,0,0,0,7.07-7.07l-32.92-32.93V582.35h16.13l27,27a139.65,139.65,0,0,1,41.16,99.37V842a5,5,0,0,0,10,0V708.75A149.58,149.58,0,0,0,775,602.31ZM436.79,233.55a13,13,0,0,1,13-13h252a13,13,0,0,1,13,13V268.5h-278Zm-71,122v-63a12,12,0,0,1,12-12h396a12,12,0,0,1,12,12v63a12,12,0,0,1-12,12h-396A12,12,0,0,1,365.79,355.5Zm0,202.85V391.5a12,12,0,0,1,12-12h396a12,12,0,0,1,12,12V558.35a12,12,0,0,1-12,12h-396A12,12,0,0,1,365.79,558.35Zm349,96.37-63.65-63.65a5,5,0,0,0-3.5-1.46h-.44a36.91,36.91,0,0,0-4,.21,38.59,38.59,0,0,0-24.32,64.68L673,714.55H449.79a13,13,0,0,1-13-13V582.35h278Z"/><path class="cls-2" d="M447.91,415.79a20.2,20.2,0,1,0,20.2,20.2A20.22,20.22,0,0,0,447.91,415.79Zm0,31.4a11.2,11.2,0,1,1,11.2-11.2A11.21,11.21,0,0,1,447.91,447.19Z"/><path class="cls-2" d="M447.91,400.5A47.09,47.09,0,1,0,495,447.59,47.14,47.14,0,0,0,447.91,400.5ZM425,478a33.54,33.54,0,0,1,45.9,0,38.09,38.09,0,0,1-45.9,0Zm52.39-6.23a42.51,42.51,0,0,0-58.89,0,38.1,38.1,0,1,1,58.89,0Z"/><path class="cls-2" d="M575.79,415.79A20.2,20.2,0,1,0,596,436,20.22,20.22,0,0,0,575.79,415.79Zm0,31.4A11.2,11.2,0,1,1,587,436,11.21,11.21,0,0,1,575.79,447.19Z"/><path class="cls-2" d="M575.79,400.5a47.09,47.09,0,1,0,47.09,47.09A47.14,47.14,0,0,0,575.79,400.5ZM552.84,478a33.54,33.54,0,0,1,45.9,0,38.09,38.09,0,0,1-45.9,0Zm52.4-6.23a42.52,42.52,0,0,0-58.9,0,38.09,38.09,0,1,1,58.9,0Z"/><path class="cls-2" d="M704.41,415.79a20.2,20.2,0,1,0,20.2,20.2A20.22,20.22,0,0,0,704.41,415.79Zm0,31.4a11.2,11.2,0,1,1,11.2-11.2A11.21,11.21,0,0,1,704.41,447.19Z"/><path class="cls-2" d="M704.41,400.5a47.09,47.09,0,1,0,47.09,47.09A47.14,47.14,0,0,0,704.41,400.5ZM681.46,478a33.54,33.54,0,0,1,45.9,0,38.09,38.09,0,0,1-45.9,0Zm52.39-6.23a42.51,42.51,0,0,0-58.89,0,38.1,38.1,0,1,1,58.89,0Z"/></svg>