<?xml version="1.0" encoding="utf-8"?>
<!-- Generator: Adobe Illustrator 22.0.1, SVG Export Plug-In . SVG Version: 6.00 Build 0)  -->
<svg version="1.1" id="Layer_1" xmlns="http://www.w3.org/2000/svg" xmlns:xlink="http://www.w3.org/1999/xlink" x="0px" y="0px"
	 viewBox="0 0 350.4 221.5" style="enable-background:new 0 0 350.4 221.5;" xml:space="preserve">
<style type="text/css">
	.st0{fill:#FFFFFF;}
	.st1{fill:#ECECEC;}
	.st2{fill:none;}
	.st3{enable-background:new    ;}
	.st4{fill:#1D1D1B;}
	.st5{fill:none;stroke:#C1C1C1;stroke-miterlimit:10;}
	.st6{fill:#2341C1;}
	.st7{fill:#C1C1C1;}
	.st8{fill:none;stroke:#1E1E1E;stroke-miterlimit:10;}
	.st9{fill:none;stroke:#1E1E1E;stroke-width:2;stroke-miterlimit:10;}
</style>
<rect x="7.7" y="6.9" class="st0" width="336.2" height="207.4"/>
<rect x="17.5" y="148" class="st1" width="315.8" height="62.2"/>
<rect x="22.5" y="48.4" class="st2" width="172.7" height="91"/>
<g class="st3">
	<path class="st4" d="M27.8,50.4v8.1h-1.9v-8.1h-3.1v-1.8H31v1.8H27.8z"/>
	<path class="st4" d="M33.9,51.4c0.5,0,1,0.1,1.4,0.3s0.8,0.4,1.1,0.8c0.3,0.3,0.6,0.7,0.8,1.2c0.2,0.4,0.3,0.9,0.3,1.5
		c0,0.5-0.1,1-0.3,1.5c-0.2,0.4-0.4,0.8-0.8,1.2c-0.3,0.3-0.7,0.6-1.1,0.8c-0.4,0.2-0.9,0.3-1.4,0.3s-1-0.1-1.4-0.3
		s-0.8-0.4-1.1-0.8c-0.3-0.3-0.6-0.7-0.8-1.2c-0.2-0.4-0.3-0.9-0.3-1.5c0-0.5,0.1-1,0.3-1.5s0.4-0.8,0.8-1.2
		c0.3-0.3,0.7-0.6,1.1-0.8S33.4,51.4,33.9,51.4z M33.9,57c0.2,0,0.4,0,0.7-0.1c0.2-0.1,0.4-0.2,0.6-0.4c0.2-0.2,0.3-0.4,0.4-0.6
		c0.1-0.2,0.1-0.5,0.1-0.9c0-0.3,0-0.6-0.1-0.9c-0.1-0.2-0.2-0.4-0.4-0.6c-0.2-0.2-0.3-0.3-0.6-0.4C34.4,53,34.2,53,33.9,53
		s-0.4,0-0.7,0.1c-0.2,0.1-0.4,0.2-0.6,0.4c-0.2,0.2-0.3,0.4-0.4,0.6c-0.1,0.2-0.1,0.5-0.1,0.9c0,0.3,0,0.6,0.1,0.9
		c0.1,0.2,0.2,0.4,0.4,0.6c0.2,0.2,0.3,0.3,0.6,0.4C33.4,57,33.7,57,33.9,57z"/>
</g>
<g class="st3">
	<path class="st4" d="M46,49.9h1l3.4,8.6h-1.1l-1-2.6h-3.5l-1,2.6h-1.1L46,49.9z M46.5,51.3L45.1,55h2.8L46.5,51.3z"/>
	<path class="st4" d="M52.7,49.4v9.1h-1v-9.1H52.7z"/>
	<path class="st4" d="M55.6,49.9c0.1,0.1,0.2,0.3,0.2,0.5s-0.1,0.3-0.2,0.5s-0.3,0.2-0.5,0.2s-0.3-0.1-0.5-0.2
		c-0.1-0.1-0.2-0.3-0.2-0.5s0.1-0.3,0.2-0.5c0.1-0.1,0.3-0.2,0.5-0.2S55.4,49.8,55.6,49.9z M55.6,52.3v6.2h-1v-6.2H55.6z"/>
	<path class="st4" d="M57.8,57.7c-0.5-0.6-0.8-1.4-0.8-2.3c0-1,0.3-1.7,0.8-2.3s1.2-0.9,2-0.9c0.7,0,1.2,0.2,1.7,0.5
		c0.4,0.4,0.7,0.8,0.8,1.5h-1.1c-0.1-0.3-0.2-0.6-0.5-0.8c-0.2-0.2-0.6-0.3-0.9-0.3c-0.5,0-1,0.2-1.3,0.6c-0.3,0.4-0.5,1-0.5,1.7
		s0.2,1.2,0.5,1.7c0.3,0.4,0.7,0.6,1.3,0.6c0.4,0,0.7-0.1,0.9-0.3s0.4-0.5,0.5-0.8h1.1c-0.1,0.6-0.4,1.1-0.8,1.5
		c-0.4,0.4-1,0.5-1.7,0.5C59,58.6,58.3,58.3,57.8,57.7z"/>
	<path class="st4" d="M67.6,56.6h1c-0.1,0.6-0.4,1.1-0.8,1.4s-1,0.5-1.7,0.5c-0.8,0-1.5-0.3-2.1-0.9s-0.8-1.4-0.8-2.3
		c0-0.9,0.3-1.7,0.8-2.3s1.2-0.9,2-0.9s1.5,0.3,1.9,0.8c0.5,0.6,0.7,1.3,0.7,2.2v0.4h-4.4c0,0.7,0.2,1.2,0.5,1.6
		c0.3,0.4,0.8,0.6,1.3,0.6c0.4,0,0.7-0.1,1-0.3S67.5,57,67.6,56.6z M66.1,53.1c-0.5,0-0.9,0.2-1.2,0.5c-0.3,0.3-0.5,0.7-0.6,1.3h3.3
		c0-0.5-0.1-0.9-0.4-1.2C67,53.2,66.6,53.1,66.1,53.1z"/>
</g>
<g class="st3">
	<path class="st4" d="M28.5,88.3c0-0.1-0.1-0.3-0.1-0.5c-0.1-0.2-0.2-0.3-0.3-0.5C28,87.2,27.8,87,27.6,87c-0.2-0.1-0.5-0.1-0.8-0.1
		c-0.2,0-0.4,0-0.6,0.1s-0.4,0.2-0.5,0.3c-0.1,0.1-0.2,0.2-0.3,0.4s-0.1,0.3-0.1,0.5c0,0.3,0.1,0.5,0.3,0.7c0.2,0.2,0.4,0.3,0.8,0.4
		l1.4,0.3c0.4,0.1,0.8,0.2,1.2,0.4c0.3,0.2,0.6,0.4,0.9,0.7s0.4,0.5,0.5,0.9c0.1,0.3,0.2,0.6,0.2,1s-0.1,0.8-0.2,1.1
		c-0.2,0.4-0.4,0.7-0.7,1c-0.3,0.3-0.7,0.5-1.1,0.7s-1,0.3-1.5,0.3c-0.7,0-1.2-0.1-1.7-0.3s-0.9-0.4-1.2-0.7c-0.3-0.3-0.6-0.6-0.7-1
		c-0.2-0.4-0.3-0.7-0.3-1.1l1.8-0.5c0,0.2,0.1,0.5,0.2,0.7s0.2,0.4,0.4,0.6s0.4,0.3,0.7,0.4s0.6,0.2,0.9,0.2c0.5,0,0.9-0.1,1.2-0.3
		c0.3-0.2,0.4-0.5,0.4-0.9c0-0.3-0.1-0.5-0.3-0.7c-0.2-0.2-0.5-0.4-0.9-0.4l-1.4-0.3c-0.8-0.2-1.4-0.5-1.9-1s-0.7-1.1-0.7-1.9
		c0-0.4,0.1-0.8,0.3-1.2c0.2-0.4,0.4-0.7,0.7-1c0.3-0.3,0.7-0.5,1.1-0.7s0.9-0.2,1.3-0.2c0.6,0,1.1,0.1,1.5,0.2
		c0.4,0.2,0.8,0.4,1.1,0.6c0.3,0.3,0.5,0.5,0.7,0.8s0.3,0.6,0.3,0.9L28.5,88.3z"/>
	<path class="st4" d="M36.2,95.3c0-0.1,0-0.2,0-0.3c0-0.1,0-0.3,0-0.4c-0.2,0.3-0.5,0.6-0.8,0.7s-0.7,0.2-1.1,0.2
		c-0.4,0-0.8-0.1-1.1-0.2s-0.6-0.3-0.8-0.6c-0.2-0.2-0.4-0.5-0.5-0.9c-0.1-0.3-0.2-0.7-0.2-1.1v-4.4h1.9v4c0,0.4,0.1,0.7,0.3,1
		s0.5,0.4,1,0.4c0.4,0,0.7-0.1,1-0.4c0.2-0.3,0.3-0.6,0.3-1v-4h1.9v5.6c0,0.3,0,0.5,0,0.7s0,0.4,0,0.5h-1.9V95.3z"/>
	<path class="st4" d="M39.9,95.3V85.2h1.8v4c0.2-0.2,0.4-0.5,0.8-0.7s0.8-0.3,1.3-0.3s1,0.1,1.3,0.3c0.4,0.2,0.7,0.4,1,0.8
		s0.5,0.7,0.6,1.1s0.2,0.9,0.2,1.4s-0.1,1-0.2,1.4c-0.2,0.4-0.4,0.8-0.7,1.2c-0.3,0.3-0.6,0.6-1,0.8c-0.4,0.2-0.8,0.3-1.3,0.3
		s-0.9-0.1-1.2-0.3s-0.6-0.4-0.8-0.7v0.8C41.7,95.3,39.9,95.3,39.9,95.3z M45.2,91.8c0-0.6-0.2-1.1-0.5-1.4s-0.7-0.5-1.2-0.5
		c-0.2,0-0.5,0-0.7,0.1s-0.4,0.2-0.5,0.4c-0.2,0.2-0.3,0.4-0.4,0.6c-0.1,0.2-0.1,0.5-0.1,0.8s0,0.6,0.1,0.8c0.1,0.2,0.2,0.4,0.4,0.6
		s0.3,0.3,0.5,0.4s0.4,0.1,0.7,0.1c0.5,0,0.9-0.2,1.2-0.5C45,93,45.2,92.5,45.2,91.8z"/>
	<path class="st4" d="M48.5,88.4h1.9v7.5c0,0.3,0,0.6-0.1,0.9s-0.2,0.5-0.4,0.7s-0.4,0.4-0.7,0.5s-0.6,0.2-0.9,0.2
		c-0.3,0-0.5,0-0.7-0.1c-0.2,0-0.3-0.1-0.4-0.1v-1.6c0.1,0,0.1,0,0.2,0s0.2,0,0.3,0c0.3,0,0.5-0.1,0.6-0.2s0.2-0.3,0.2-0.6
		C48.5,95.6,48.5,88.4,48.5,88.4z M48.3,86.1c0-0.3,0.1-0.6,0.3-0.8c0.2-0.2,0.5-0.3,0.8-0.3s0.6,0.1,0.8,0.3
		c0.2,0.2,0.3,0.5,0.3,0.8s-0.1,0.6-0.3,0.8c-0.2,0.2-0.5,0.3-0.8,0.3s-0.6-0.1-0.8-0.3C48.4,86.7,48.3,86.5,48.3,86.1z"/>
	<path class="st4" d="M58.5,93.3c-0.1,0.3-0.2,0.6-0.4,0.8s-0.4,0.5-0.7,0.7s-0.6,0.4-0.9,0.5c-0.4,0.1-0.7,0.2-1.2,0.2
		s-0.9-0.1-1.4-0.2s-0.8-0.4-1.1-0.7s-0.6-0.7-0.8-1.2s-0.3-1-0.3-1.6s0.1-1.1,0.3-1.5s0.4-0.8,0.7-1.1c0.3-0.3,0.7-0.6,1.1-0.7
		s0.8-0.3,1.3-0.3c1.1,0,1.9,0.3,2.5,1c0.6,0.6,0.9,1.5,0.9,2.6c0,0.1,0,0.3,0,0.4s0,0.2,0,0.2h-4.9c0,0.2,0.1,0.4,0.2,0.6
		c0.1,0.2,0.2,0.4,0.4,0.5s0.3,0.2,0.5,0.3c0.2,0.1,0.4,0.1,0.7,0.1c0.4,0,0.8-0.1,1-0.3c0.2-0.2,0.4-0.4,0.5-0.8L58.5,93.3z
		 M56.8,91.1c0-0.2,0-0.3-0.1-0.5s-0.2-0.3-0.3-0.4s-0.3-0.2-0.5-0.3s-0.4-0.1-0.7-0.1c-0.2,0-0.5,0-0.6,0.1
		c-0.2,0.1-0.3,0.2-0.5,0.3s-0.2,0.3-0.3,0.4c-0.1,0.2-0.1,0.3-0.1,0.5H56.8z"/>
	<path class="st4" d="M63.2,89.9c-0.2,0-0.5,0-0.7,0.1s-0.4,0.2-0.6,0.4s-0.3,0.4-0.4,0.6c-0.1,0.2-0.1,0.5-0.1,0.8s0,0.6,0.1,0.8
		c0.1,0.2,0.2,0.4,0.4,0.6s0.4,0.3,0.6,0.4s0.4,0.1,0.7,0.1c0.2,0,0.4,0,0.6-0.1c0.2-0.1,0.3-0.2,0.5-0.3s0.2-0.2,0.3-0.4
		c0.1-0.1,0.1-0.3,0.2-0.4l1.6,0.5c-0.1,0.3-0.2,0.6-0.4,0.8c-0.2,0.3-0.4,0.5-0.7,0.7c-0.3,0.2-0.6,0.4-1,0.5s-0.8,0.2-1.2,0.2
		c-0.5,0-1-0.1-1.4-0.3c-0.4-0.2-0.8-0.4-1.2-0.8c-0.3-0.3-0.6-0.7-0.8-1.2c-0.2-0.4-0.3-0.9-0.3-1.5c0-0.5,0.1-1,0.3-1.5
		s0.4-0.8,0.8-1.2c0.3-0.3,0.7-0.6,1.1-0.8c0.4-0.2,0.9-0.3,1.4-0.3s0.9,0.1,1.3,0.2s0.7,0.3,1,0.5s0.5,0.5,0.7,0.7s0.3,0.6,0.4,0.9
		l-1.7,0.6c-0.1-0.3-0.2-0.6-0.5-0.8C64,90,63.6,89.9,63.2,89.9z"/>
	<path class="st4" d="M70.1,88.4h1.4v1.7h-1.4V93c0,0.3,0.1,0.5,0.2,0.6s0.3,0.2,0.6,0.2c0.1,0,0.2,0,0.3,0c0.1,0,0.2,0,0.2,0v1.5
		c-0.1,0-0.2,0.1-0.4,0.1c-0.2,0-0.4,0.1-0.7,0.1c-0.7,0-1.2-0.2-1.6-0.6s-0.6-0.9-0.6-1.6v-3.2H67v-1.7h0.4c0.4,0,0.6-0.1,0.8-0.3
		c0.2-0.2,0.3-0.5,0.3-0.8v-1h1.7v2.1H70.1z"/>
</g>
<g class="st3">
	<path class="st4" d="M79.5,91.9h-2.1v3.4h-1.1v-8.6h3.2c0.9,0,1.6,0.2,2.1,0.7c0.5,0.4,0.7,1.1,0.7,1.9s-0.3,1.5-0.8,1.9
		C81.1,91.6,80.4,91.9,79.5,91.9z M81.2,89.3c0-0.5-0.2-0.9-0.5-1.2c-0.3-0.3-0.7-0.4-1.3-0.4h-2.1v3.2h2.1c0.6,0,1-0.1,1.3-0.4
		C81.1,90.2,81.2,89.8,81.2,89.3z"/>
	<path class="st4" d="M84.8,86.2v9.1h-1v-9.1H84.8z"/>
	<path class="st4" d="M91.1,95.3h-1v-0.5c-0.1,0.1-0.4,0.3-0.7,0.4c-0.3,0.1-0.6,0.2-1,0.2c-0.7,0-1.2-0.2-1.6-0.5
		c-0.4-0.4-0.7-0.8-0.7-1.4s0.2-1,0.7-1.4s1-0.5,1.7-0.5c0.3,0,0.6,0.1,0.9,0.2s0.5,0.2,0.7,0.3v-0.8c0-0.4-0.1-0.7-0.4-1
		c-0.2-0.2-0.6-0.4-1-0.4c-0.7,0-1.1,0.3-1.3,0.9h-1c0.1-0.5,0.4-0.9,0.8-1.3c0.4-0.3,0.9-0.5,1.5-0.5c0.7,0,1.3,0.2,1.7,0.6
		c0.4,0.4,0.6,0.9,0.6,1.6v4.1H91.1z M90.1,93.8v-0.6c-0.1-0.2-0.3-0.4-0.6-0.6c-0.3-0.1-0.6-0.2-0.9-0.2c-0.4,0-0.8,0.1-1,0.3
		c-0.3,0.2-0.4,0.5-0.4,0.8c0,0.4,0.1,0.6,0.4,0.8c0.3,0.2,0.6,0.3,1,0.3c0.3,0,0.6-0.1,0.9-0.2C89.9,94.2,90,94,90.1,93.8z"/>
	<path class="st4" d="M92.9,95.3v-6.2h1v0.8c0.2-0.3,0.5-0.5,0.8-0.7s0.7-0.3,1.1-0.3c0.7,0,1.2,0.2,1.6,0.6s0.6,1,0.6,1.7v4.1h-1.1
		v-3.9c0-0.4-0.1-0.8-0.3-1.1c-0.2-0.3-0.6-0.4-1-0.4s-0.7,0.1-1,0.3c-0.3,0.2-0.5,0.5-0.6,0.8v4.2L92.9,95.3L92.9,95.3z"/>
	<path class="st4" d="M106,86.2v1c-0.2-0.1-0.4-0.2-0.7-0.2c-0.3,0-0.6,0.1-0.7,0.3c-0.2,0.2-0.3,0.5-0.3,0.8v1h1.4V90h-1.4v5.3h-1
		V90h-1.1v-0.9h1.1v-1c0-0.6,0.2-1.1,0.5-1.4c0.4-0.4,0.8-0.5,1.4-0.5C105.5,86.1,105.8,86.1,106,86.2z"/>
	<path class="st4" d="M111.3,89.9c0.5,0.6,0.8,1.4,0.8,2.3c0,1-0.3,1.7-0.8,2.3c-0.5,0.6-1.2,0.9-2.1,0.9c-0.8,0-1.5-0.3-2.1-0.9
		c-0.5-0.6-0.8-1.4-0.8-2.3c0-1,0.3-1.7,0.8-2.3c0.5-0.6,1.2-0.9,2.1-0.9C110.1,89,110.8,89.3,111.3,89.9z M110.5,93.9
		c0.3-0.4,0.5-1,0.5-1.7s-0.2-1.2-0.5-1.7c-0.3-0.4-0.8-0.6-1.3-0.6c-0.6,0-1,0.2-1.3,0.6s-0.5,1-0.5,1.7s0.2,1.2,0.5,1.7
		c0.3,0.4,0.8,0.6,1.3,0.6C109.8,94.5,110.2,94.3,110.5,93.9z"/>
	<path class="st4" d="M116.7,89.1v1.1c-0.2-0.1-0.4-0.2-0.7-0.2c-0.3,0-0.6,0.1-0.9,0.3c-0.3,0.2-0.4,0.5-0.5,0.9v4.2h-1v-6.2h1V90
		c0.1-0.3,0.3-0.5,0.6-0.7c0.3-0.2,0.6-0.3,0.9-0.3C116.4,89,116.6,89,116.7,89.1z"/>
	<path class="st4" d="M121.1,95.3v-6.2h1v0.8c0.2-0.3,0.5-0.5,0.8-0.7s0.7-0.3,1.1-0.3c0.7,0,1.2,0.2,1.6,0.6s0.6,1,0.6,1.7v4.1
		h-1.1v-3.9c0-0.4-0.1-0.8-0.3-1.1c-0.2-0.3-0.6-0.4-1-0.4s-0.7,0.1-1,0.3c-0.3,0.2-0.5,0.5-0.6,0.8v4.2L121.1,95.3L121.1,95.3z"/>
	<path class="st4" d="M131.9,93.4h1c-0.1,0.6-0.4,1.1-0.8,1.4s-1,0.5-1.7,0.5c-0.8,0-1.5-0.3-2.1-0.9s-0.8-1.4-0.8-2.3
		s0.3-1.7,0.8-2.3c0.5-0.6,1.2-0.9,2-0.9s1.5,0.3,1.9,0.8c0.5,0.6,0.7,1.3,0.7,2.2v0.4h-4.4c0,0.7,0.2,1.2,0.5,1.6s0.8,0.6,1.3,0.6
		c0.4,0,0.7-0.1,1-0.3S131.8,93.8,131.9,93.4z M130.3,89.9c-0.5,0-0.9,0.2-1.2,0.5s-0.5,0.7-0.6,1.3h3.3c0-0.5-0.1-0.9-0.4-1.2
		C131.2,90,130.8,89.9,130.3,89.9z"/>
	<path class="st4" d="M139.2,89.1l-2.2,3l2.3,3.2h-1.2l-1.7-2.4l-1.7,2.4h-1.1l2.3-3.2l-2.2-3h1.2l1.6,2.2l1.6-2.2H139.2z"/>
	<path class="st4" d="M140.8,93.7V90h-1v-0.9h1v-1.6h1.1v1.6h1.5V90h-1.5v3.6c0,0.6,0.3,0.9,0.8,0.9c0.3,0,0.6-0.1,0.8-0.3v1
		c-0.3,0.1-0.6,0.2-1,0.2c-0.5,0-0.9-0.1-1.2-0.4C140.9,94.7,140.8,94.3,140.8,93.7z"/>
	<path class="st4" d="M152,89.1l1.3,4.7l1.4-4.7h1l-1.8,6.2h-1l-1.3-4.7l-1.3,4.7h-1l-1.8-6.2h1l1.4,4.7l1.3-4.7H152z"/>
	<path class="st4" d="M160.7,93.4h1c-0.1,0.6-0.4,1.1-0.8,1.4s-1,0.5-1.7,0.5c-0.8,0-1.5-0.3-2.1-0.9s-0.8-1.4-0.8-2.3
		s0.3-1.7,0.8-2.3c0.5-0.6,1.2-0.9,2-0.9s1.5,0.3,1.9,0.8c0.5,0.6,0.7,1.3,0.7,2.2v0.4h-4.4c0,0.7,0.2,1.2,0.5,1.6s0.8,0.6,1.3,0.6
		c0.4,0,0.7-0.1,1-0.3S160.7,93.8,160.7,93.4z M159.2,89.9c-0.5,0-0.9,0.2-1.2,0.5s-0.5,0.7-0.6,1.3h3.3c0-0.5-0.1-0.9-0.4-1.2
		C160.1,90,159.7,89.9,159.2,89.9z"/>
	<path class="st4" d="M167.2,93.4h1c-0.1,0.6-0.4,1.1-0.8,1.4s-1,0.5-1.7,0.5c-0.8,0-1.5-0.3-2.1-0.9s-0.8-1.4-0.8-2.3
		s0.3-1.7,0.8-2.3c0.5-0.6,1.2-0.9,2-0.9s1.5,0.3,1.9,0.8c0.5,0.6,0.7,1.3,0.7,2.2v0.4h-4.4c0,0.7,0.2,1.2,0.5,1.6s0.8,0.6,1.3,0.6
		c0.4,0,0.7-0.1,1-0.3S167.1,93.8,167.2,93.4z M165.6,89.9c-0.5,0-0.9,0.2-1.2,0.5s-0.5,0.7-0.6,1.3h3.3c0-0.5-0.1-0.9-0.4-1.2
		C166.5,90,166.1,89.9,165.6,89.9z"/>
	<path class="st4" d="M173.7,95.3l-2.4-2.9l-0.7,0.6v2.2h-1v-9.1h1v5.6l2.8-2.8h1.4l-2.8,2.7l2.9,3.5h-1.2V95.3z"/>
</g>
<g class="st3">
	<path class="st4" d="M23.6,132.1v-9.9h6.3v1.8h-4.3v2.5h3.9v1.8h-3.9v3.9L23.6,132.1L23.6,132.1z"/>
	<path class="st4" d="M35,127.1c-0.2,0-0.4-0.1-0.6-0.1c-0.2,0-0.5,0-0.7,0.1s-0.4,0.2-0.6,0.3c-0.2,0.1-0.3,0.3-0.4,0.6
		c-0.1,0.3-0.1,0.6-0.1,0.9v3.2h-1.9v-6.9h1.8v1c0.1-0.2,0.2-0.4,0.4-0.6c0.2-0.1,0.3-0.3,0.5-0.3c0.2-0.1,0.4-0.1,0.5-0.2
		c0.2,0,0.3,0,0.5,0c0.1,0,0.1,0,0.2,0c0.1,0,0.1,0,0.2,0v2H35z"/>
	<path class="st4" d="M39.4,125c0.5,0,1,0.1,1.4,0.3c0.4,0.2,0.8,0.4,1.1,0.8c0.3,0.3,0.6,0.7,0.8,1.2c0.2,0.4,0.3,0.9,0.3,1.5
		c0,0.5-0.1,1-0.3,1.5c-0.2,0.4-0.4,0.8-0.8,1.2c-0.3,0.3-0.7,0.6-1.1,0.8c-0.4,0.2-0.9,0.3-1.4,0.3s-1-0.1-1.4-0.3
		s-0.8-0.4-1.1-0.8c-0.3-0.3-0.6-0.7-0.8-1.2c-0.2-0.4-0.3-0.9-0.3-1.5c0-0.5,0.1-1,0.3-1.5s0.4-0.8,0.8-1.2
		c0.3-0.3,0.7-0.6,1.1-0.8C38.4,125.1,38.9,125,39.4,125z M39.4,130.6c0.2,0,0.4,0,0.7-0.1c0.2-0.1,0.4-0.2,0.6-0.4
		c0.2-0.2,0.3-0.4,0.4-0.6c0.1-0.2,0.1-0.5,0.1-0.9c0-0.3,0-0.6-0.1-0.9c-0.1-0.2-0.2-0.4-0.4-0.6s-0.3-0.3-0.6-0.4
		c-0.2-0.1-0.4-0.1-0.7-0.1s-0.4,0-0.7,0.1c-0.2,0.1-0.4,0.2-0.6,0.4c-0.2,0.2-0.3,0.4-0.4,0.6c-0.1,0.2-0.1,0.5-0.1,0.9
		c0,0.3,0,0.6,0.1,0.9c0.1,0.2,0.2,0.4,0.4,0.6c0.2,0.2,0.3,0.3,0.6,0.4C38.9,130.6,39.2,130.6,39.4,130.6z"/>
	<path class="st4" d="M44.5,132.1v-6.9h1.8v0.8c0.1-0.2,0.2-0.3,0.4-0.4c0.1-0.1,0.3-0.2,0.5-0.3c0.2-0.1,0.4-0.1,0.6-0.2
		s0.4-0.1,0.6-0.1c0.5,0,0.9,0.1,1.2,0.3c0.4,0.2,0.6,0.5,0.8,0.9c0.3-0.4,0.6-0.7,1-0.9c0.4-0.2,0.8-0.3,1.2-0.3
		c0.3,0,0.6,0,0.9,0.1c0.3,0.1,0.6,0.3,0.8,0.5s0.4,0.5,0.6,0.8c0.1,0.3,0.2,0.7,0.2,1.2v4.5h-1.8V128c0-0.4-0.1-0.7-0.3-0.9
		c-0.2-0.2-0.5-0.4-0.9-0.4s-0.7,0.1-0.9,0.4s-0.3,0.6-0.3,1v4h-1.8V128c0-0.4-0.1-0.7-0.3-0.9c-0.2-0.2-0.5-0.4-0.9-0.4
		s-0.7,0.1-1,0.4c-0.2,0.3-0.3,0.6-0.3,1v4H44.5z"/>
</g>
<g class="st3">
	<path class="st4" d="M64.9,127.7c0.5,0.1,0.8,0.4,1.1,0.7c0.3,0.4,0.4,0.8,0.4,1.3c0,0.8-0.3,1.4-0.8,1.8s-1.2,0.6-2.1,0.6h-3.1
		v-8.6h2.8c0.9,0,1.6,0.2,2.1,0.6s0.7,1,0.7,1.7c0,0.5-0.1,0.9-0.4,1.2C65.5,127.3,65.2,127.5,64.9,127.7z M61.6,127.2h1.8
		c1.2,0,1.8-0.5,1.8-1.4s-0.6-1.4-1.8-1.4h-1.8V127.2z M61.6,128.2v3h2c0.6,0,1-0.1,1.3-0.4c0.3-0.3,0.5-0.6,0.5-1.1
		s-0.2-0.8-0.5-1.1s-0.7-0.4-1.3-0.4H61.6z"/>
	<path class="st4" d="M72.4,126.7c0.5,0.6,0.8,1.4,0.8,2.3c0,1-0.3,1.7-0.8,2.3s-1.2,0.9-2.1,0.9c-0.8,0-1.5-0.3-2.1-0.9
		c-0.5-0.6-0.8-1.4-0.8-2.3c0-1,0.3-1.7,0.8-2.3c0.5-0.6,1.2-0.9,2.1-0.9C71.2,125.8,71.9,126.1,72.4,126.7z M71.7,130.7
		c0.3-0.4,0.5-1,0.5-1.7s-0.2-1.2-0.5-1.7c-0.3-0.4-0.8-0.6-1.3-0.6c-0.6,0-1,0.2-1.3,0.6s-0.5,1-0.5,1.7s0.2,1.2,0.5,1.7
		c0.3,0.4,0.8,0.6,1.3,0.6C70.9,131.3,71.4,131.1,71.7,130.7z"/>
	<path class="st4" d="M75.7,131.4v0.7h-1.1V123h1.1v3.6c0.2-0.2,0.4-0.4,0.7-0.6s0.7-0.2,1-0.2c0.9,0,1.6,0.3,2.1,0.9
		s0.7,1.4,0.7,2.3s-0.2,1.7-0.7,2.3s-1.2,0.9-2.1,0.9c-0.4,0-0.7-0.1-1-0.2S75.9,131.6,75.7,131.4z M75.7,127.7v2.5
		c0.2,0.3,0.4,0.6,0.7,0.7c0.3,0.2,0.6,0.3,0.9,0.3c0.6,0,1-0.2,1.4-0.6s0.5-1,0.5-1.6c0-0.7-0.2-1.2-0.5-1.6s-0.8-0.6-1.4-0.6
		c-0.3,0-0.6,0.1-0.9,0.3C76.1,127.2,75.9,127.4,75.7,127.7z"/>
</g>
<line class="st5" x1="17.5" y1="67.7" x2="334.2" y2="67.7"/>
<line class="st5" x1="17.5" y1="110.7" x2="334.2" y2="110.7"/>
<line class="st5" x1="17.5" y1="148" x2="334.2" y2="148"/>
<path class="st6" d="M282.7,87.7v-3.6c0-3.9-3.2-7.1-7.1-7.1s-7.1,3.2-7.1,7.1v3.6h-1.3v13.1H284V87.7H282.7z M270.3,84.1
	c0-2.9,2.3-5.2,5.2-5.2c2.9,0,5.2,2.3,5.2,5.2v3.6h-10.5L270.3,84.1L270.3,84.1z"/>
<line class="st5" x1="8" y1="27.9" x2="343.2" y2="27.9"/>
<circle class="st7" cx="21.5" cy="18" r="3.4"/>
<circle class="st7" cx="34" cy="18" r="3.4"/>
<circle class="st7" cx="45.7" cy="18" r="3.4"/>
<rect x="7.7" y="6.9" class="st8" width="336.2" height="208"/>
<polyline class="st9" points="8.1,214.3 343.2,214.3 343.2,6.6 "/>
<g>
	<path class="st6" d="M307.7,99.4l-9.2-6.5c-0.2-0.1-0.2-0.4-0.1-0.6s0.4-0.2,0.6-0.1l8.6,6.1l16.5-18.9c0.1-0.2,0.4-0.2,0.6,0
		c0.2,0.1,0.2,0.4,0,0.6L307.7,99.4z"/>
</g>
</svg>
