<?xml version="1.0" encoding="UTF-8"?>
<svg id="OUTLINES" xmlns="http://www.w3.org/2000/svg" viewBox="0 0 1152 1008">
  <defs>
    <style>
      .cls-1 {
        fill: #030f78;
      }

      .cls-2 {
        fill: #000f7d;
      }

      .cls-3 {
        fill: #fff;
      }
    </style>
  </defs>
  <rect class="cls-3" x="255" y="375.02" width="657.94" height="359.98" rx="22" ry="22"/>
  <path class="cls-2" d="M884,732.01H270.06c-12.13,0-22-9.87-22-22V394.02c0-12.13,9.87-22,22-22H884c12.13,0,22,9.87,22,22v315.98c0,12.13-9.87,22-22,22ZM270.06,384.02c-5.51,0-10,4.49-10,10v315.98c0,5.51,4.49,10,10,10H884c5.51,0,10-4.49,10-10V394.02c0-5.51-4.49-10-10-10H270.06Z"/>
  <g>
    <path class="cls-2" d="M291.23,424.42v-5.04h23.58v5.04h-8.91v22.59h-5.8v-22.59h-8.87Z"/>
    <path class="cls-2" d="M328.49,426.8v5.58c-.75-.45-1.68-.67-2.79-.67-.96,0-1.79,.25-2.47,.74-.69,.5-1.14,1.19-1.35,2.09v12.46h-5.58v-20.12h5.58v1.98c.96-1.62,2.46-2.43,4.5-2.43,.99,0,1.69,.12,2.12,.36Z"/>
    <path class="cls-2" d="M347.97,447.01h-5.36v-1.08c-.36,.36-1,.69-1.93,.99-.93,.3-1.92,.45-2.97,.45-2.13,0-3.91-.58-5.33-1.75-1.42-1.17-2.14-2.76-2.14-4.77,0-1.89,.74-3.43,2.23-4.63s3.34-1.8,5.56-1.8c.84,0,1.71,.12,2.61,.36,.9,.24,1.56,.51,1.98,.81v-1.49c0-.9-.28-1.64-.83-2.23-.56-.58-1.37-.88-2.45-.88-1.5,0-2.49,.63-2.97,1.89h-5.31c.3-1.86,1.22-3.4,2.77-4.61,1.54-1.21,3.44-1.82,5.69-1.82,2.67,0,4.75,.68,6.23,2.05,1.48,1.37,2.23,3.26,2.23,5.69v12.83Zm-5.36-5.49v-1.44c-.24-.54-.7-.97-1.37-1.28-.67-.31-1.43-.47-2.27-.47-.96,0-1.79,.21-2.5,.63s-1.06,1.04-1.06,1.84,.34,1.42,1.04,1.84c.69,.42,1.53,.63,2.52,.63,.84,0,1.6-.16,2.27-.47,.67-.32,1.13-.74,1.37-1.28Z"/>
    <path class="cls-2" d="M358.59,421.09c0,.93-.32,1.7-.97,2.29-.65,.6-1.42,.9-2.32,.9s-1.72-.3-2.36-.9c-.65-.6-.97-1.37-.97-2.29s.33-1.66,.99-2.27c.66-.61,1.44-.92,2.34-.92s1.67,.31,2.32,.92c.65,.62,.97,1.37,.97,2.27Zm-.5,5.8v20.12h-5.58v-20.12h5.58Z"/>
    <path class="cls-2" d="M362.96,447.01v-20.12h5.58v1.85c1.32-1.53,3.12-2.3,5.4-2.3s4,.68,5.24,2.03,1.87,3.15,1.87,5.4v13.14h-5.58v-11.97c0-1.08-.28-1.94-.83-2.59-.56-.64-1.37-.97-2.45-.97-.87,0-1.64,.25-2.32,.74-.68,.5-1.12,1.18-1.33,2.05v12.74h-5.58Z"/>
    <path class="cls-2" d="M391.76,421.09c0,.93-.32,1.7-.97,2.29-.65,.6-1.42,.9-2.32,.9s-1.72-.3-2.36-.9c-.65-.6-.97-1.37-.97-2.29s.33-1.66,.99-2.27c.66-.61,1.44-.92,2.34-.92s1.67,.31,2.32,.92c.65,.62,.97,1.37,.97,2.27Zm-.5,5.8v20.12h-5.58v-20.12h5.58Z"/>
    <path class="cls-2" d="M396.12,447.01v-20.12h5.58v1.85c1.32-1.53,3.12-2.3,5.4-2.3s4,.68,5.24,2.03,1.87,3.15,1.87,5.4v13.14h-5.58v-11.97c0-1.08-.28-1.94-.83-2.59-.56-.64-1.37-.97-2.45-.97-.87,0-1.64,.25-2.32,.74-.68,.5-1.12,1.18-1.33,2.05v12.74h-5.58Z"/>
    <path class="cls-2" d="M431.67,445.66v-1.17c-1.14,1.38-2.79,2.07-4.95,2.07-2.79,0-5.01-.97-6.66-2.92-1.65-1.95-2.47-4.33-2.47-7.16s.83-5.16,2.47-7.11c1.65-1.95,3.87-2.93,6.66-2.93,2.13,0,3.78,.68,4.95,2.03v-1.58h5.54v17.91c0,3.33-.9,5.84-2.7,7.54-1.8,1.7-4.18,2.54-7.16,2.54-2.61,0-4.75-.63-6.41-1.89-1.67-1.26-2.65-3.02-2.95-5.27h5.4c.45,1.89,1.77,2.83,3.96,2.83,2.88,0,4.32-1.63,4.32-4.9Zm0-5.9v-6.57c-.84-1.38-2.1-2.07-3.78-2.07-1.47,0-2.62,.5-3.46,1.48-.84,.99-1.26,2.28-1.26,3.87s.42,2.89,1.26,3.89c.84,1.01,2,1.51,3.46,1.51,.81,0,1.55-.2,2.23-.61,.68-.41,1.19-.91,1.55-1.51Z"/>
    <path class="cls-2" d="M464.52,447.01v-1.67c-.48,.57-1.19,1.07-2.11,1.49-.93,.42-1.91,.63-2.93,.63-2.82,0-5.05-1-6.68-2.99-1.63-1.99-2.45-4.49-2.45-7.49s.82-5.5,2.45-7.51,3.86-3.02,6.68-3.02c1.02,0,2,.21,2.93,.63,.93,.42,1.63,.92,2.11,1.48v-10.8h5.62v29.25h-5.62Zm0-6.75v-6.62c-.33-.69-.84-1.25-1.53-1.69-.69-.43-1.44-.65-2.25-.65-1.47,0-2.64,.53-3.51,1.6-.87,1.07-1.3,2.42-1.3,4.07s.43,3,1.3,4.05c.87,1.05,2.04,1.58,3.51,1.58,.84,0,1.6-.22,2.27-.65,.67-.43,1.18-1,1.51-1.69Z"/>
    <path class="cls-2" d="M491.48,447.01h-5.36v-1.08c-.36,.36-1,.69-1.93,.99-.93,.3-1.92,.45-2.97,.45-2.13,0-3.91-.58-5.33-1.75-1.42-1.17-2.14-2.76-2.14-4.77,0-1.89,.74-3.43,2.23-4.63s3.34-1.8,5.56-1.8c.84,0,1.71,.12,2.61,.36,.9,.24,1.56,.51,1.98,.81v-1.49c0-.9-.28-1.64-.83-2.23-.56-.58-1.37-.88-2.45-.88-1.5,0-2.49,.63-2.97,1.89h-5.31c.3-1.86,1.22-3.4,2.77-4.61,1.54-1.21,3.44-1.82,5.69-1.82,2.67,0,4.75,.68,6.23,2.05,1.48,1.37,2.23,3.26,2.23,5.69v12.83Zm-5.36-5.49v-1.44c-.24-.54-.7-.97-1.37-1.28-.67-.31-1.43-.47-2.27-.47-.96,0-1.79,.21-2.5,.63s-1.06,1.04-1.06,1.84,.34,1.42,1.04,1.84c.69,.42,1.53,.63,2.52,.63,.84,0,1.6-.16,2.27-.47,.67-.32,1.13-.74,1.37-1.28Z"/>
    <path class="cls-2" d="M497.06,440.93v-9.54h-3.06v-4.5h3.06v-5.44h5.54v5.44h4.41v4.5h-4.41v8.82c0,1.53,.77,2.29,2.29,2.29,.93,0,1.74-.22,2.43-.67v4.95c-.78,.42-1.98,.63-3.6,.63-2.1,0-3.73-.54-4.9-1.62s-1.76-2.7-1.76-4.86Z"/>
    <path class="cls-2" d="M527.56,447.01h-5.36v-1.08c-.36,.36-1,.69-1.93,.99-.93,.3-1.92,.45-2.97,.45-2.13,0-3.91-.58-5.33-1.75-1.42-1.17-2.14-2.76-2.14-4.77,0-1.89,.74-3.43,2.23-4.63s3.34-1.8,5.56-1.8c.84,0,1.71,.12,2.61,.36,.9,.24,1.56,.51,1.98,.81v-1.49c0-.9-.28-1.64-.83-2.23-.56-.58-1.37-.88-2.45-.88-1.5,0-2.49,.63-2.97,1.89h-5.31c.3-1.86,1.22-3.4,2.77-4.61,1.54-1.21,3.44-1.82,5.69-1.82,2.67,0,4.75,.68,6.23,2.05,1.48,1.37,2.23,3.26,2.23,5.69v12.83Zm-5.36-5.49v-1.44c-.24-.54-.7-.97-1.37-1.28-.67-.31-1.43-.47-2.27-.47-.96,0-1.79,.21-2.5,.63s-1.06,1.04-1.06,1.84,.34,1.42,1.04,1.84c.69,.42,1.53,.63,2.52,.63,.84,0,1.6-.16,2.27-.47,.67-.32,1.13-.74,1.37-1.28Z"/>
  </g>
  <g>
    <path class="cls-2" d="M311.81,507.22c0,1.98-.67,3.62-2,4.91s-2.98,1.93-4.93,1.93-3.59-.64-4.91-1.91c-1.32-1.28-1.98-2.92-1.98-4.93s.66-3.66,1.98-4.95c1.32-1.29,2.95-1.93,4.91-1.93s3.59,.65,4.93,1.93c1.33,1.29,2,2.94,2,4.95Z"/>
    <path class="cls-2" d="M343.01,515.48c-2.43-2.66-3.65-6.08-3.65-10.28s1.21-7.63,3.65-10.28c2.43-2.66,5.5-3.98,9.22-3.98,3.18,0,5.77,.85,7.76,2.54s3.26,3.97,3.8,6.82h-5.71c-1.05-2.82-3-4.23-5.85-4.23-2.16,0-3.87,.85-5.13,2.54-1.26,1.7-1.89,3.89-1.89,6.59s.63,4.86,1.89,6.57,2.97,2.57,5.13,2.57c2.85,0,4.8-1.42,5.85-4.28h5.71c-.54,2.88-1.81,5.17-3.8,6.86-2,1.7-4.58,2.54-7.76,2.54-3.72,0-6.79-1.33-9.22-3.98Z"/>
    <path class="cls-2" d="M386.03,508.97c0,3.09-.92,5.61-2.75,7.56s-4.2,2.92-7.11,2.92-5.28-.97-7.11-2.92c-1.83-1.95-2.75-4.47-2.75-7.56s.92-5.65,2.75-7.6c1.83-1.95,4.2-2.93,7.11-2.93s5.28,.98,7.11,2.93,2.75,4.49,2.75,7.6Zm-5.54,0c0-1.74-.38-3.14-1.15-4.21-.76-1.06-1.82-1.6-3.17-1.6s-2.41,.53-3.17,1.6-1.15,2.47-1.15,4.21,.38,3.1,1.15,4.16c.76,1.06,1.82,1.6,3.17,1.6s2.41-.53,3.17-1.6c.77-1.07,1.15-2.45,1.15-4.16Z"/>
    <path class="cls-2" d="M395.17,489.76v29.25h-5.58v-29.25h5.58Z"/>
    <path class="cls-2" d="M405.61,489.76v29.25h-5.58v-29.25h5.58Z"/>
    <path class="cls-2" d="M422.71,512.44h5.17c-.36,2.19-1.31,3.91-2.86,5.15-1.54,1.25-3.56,1.87-6.05,1.87-2.91,0-5.26-.97-7.06-2.9-1.8-1.94-2.7-4.46-2.7-7.58s.91-5.54,2.72-7.54c1.81-2,4.13-2.99,6.95-2.99s5.12,.91,6.73,2.72c1.6,1.82,2.41,4.24,2.41,7.27v1.71h-13.41c.09,1.5,.52,2.68,1.3,3.53,.78,.85,1.8,1.28,3.06,1.28,2.04,0,3.29-.84,3.74-2.52Zm-3.78-9.45c-2.28,0-3.67,1.26-4.18,3.78h7.79c-.03-1.11-.36-2.02-.99-2.72-.63-.7-1.5-1.06-2.61-1.06Z"/>
    <path class="cls-2" d="M430.49,508.97c0-3.12,.9-5.65,2.7-7.6s4.12-2.93,6.97-2.93c2.46,0,4.47,.66,6.03,1.98,1.56,1.32,2.49,3.08,2.79,5.26h-5.49c-.15-.78-.52-1.39-1.1-1.82-.58-.43-1.33-.65-2.23-.65-1.26,0-2.27,.53-3.01,1.58-.75,1.05-1.12,2.45-1.12,4.18s.38,3.09,1.12,4.14c.75,1.05,1.75,1.57,3.01,1.57,.9,0,1.64-.22,2.23-.65,.58-.43,.95-1.04,1.1-1.82h5.49c-.3,2.19-1.22,3.95-2.77,5.26-1.55,1.32-3.56,1.98-6.05,1.98-2.85,0-5.17-.97-6.97-2.92s-2.7-4.47-2.7-7.56Z"/>
    <path class="cls-2" d="M453.8,512.93v-9.54h-3.06v-4.5h3.06v-5.44h5.54v5.44h4.41v4.5h-4.41v8.82c0,1.53,.77,2.29,2.29,2.29,.93,0,1.74-.22,2.43-.67v4.95c-.78,.42-1.98,.63-3.6,.63-2.1,0-3.73-.54-4.9-1.62s-1.76-2.7-1.76-4.86Z"/>
    <path class="cls-2" d="M480.17,512.44h5.17c-.36,2.19-1.31,3.91-2.86,5.15-1.54,1.25-3.56,1.87-6.05,1.87-2.91,0-5.26-.97-7.06-2.9-1.8-1.94-2.7-4.46-2.7-7.58s.91-5.54,2.72-7.54c1.81-2,4.13-2.99,6.95-2.99s5.12,.91,6.73,2.72c1.6,1.82,2.41,4.24,2.41,7.27v1.71h-13.41c.09,1.5,.52,2.68,1.3,3.53,.78,.85,1.8,1.28,3.06,1.28,2.04,0,3.29-.84,3.74-2.52Zm-3.78-9.45c-2.28,0-3.67,1.26-4.18,3.78h7.79c-.03-1.11-.36-2.02-.99-2.72-.63-.7-1.5-1.06-2.61-1.06Z"/>
    <path class="cls-2" d="M502.13,519.01v-1.67c-.48,.57-1.19,1.07-2.11,1.49-.93,.42-1.91,.63-2.93,.63-2.82,0-5.05-1-6.68-2.99-1.63-1.99-2.45-4.49-2.45-7.49s.82-5.5,2.45-7.51,3.86-3.02,6.68-3.02c1.02,0,2,.21,2.93,.63,.93,.42,1.63,.92,2.11,1.48v-10.8h5.62v29.25h-5.62Zm0-6.75v-6.62c-.33-.69-.84-1.25-1.53-1.69-.69-.43-1.44-.65-2.25-.65-1.47,0-2.64,.53-3.51,1.6-.87,1.07-1.3,2.42-1.3,4.07s.43,3,1.3,4.05c.87,1.05,2.04,1.58,3.51,1.58,.84,0,1.6-.22,2.27-.65,.67-.43,1.18-1,1.51-1.69Z"/>
    <path class="cls-2" d="M533.9,489.89v4.73c-.51-.36-1.17-.54-1.98-.54-1.83,0-2.75,.93-2.75,2.79v2.02h4.18v4.5h-4.18v15.62h-5.49v-15.62h-3.29v-4.5h3.29v-2.38c0-2.25,.64-4,1.94-5.26,1.29-1.26,3.01-1.89,5.17-1.89,1.26,0,2.29,.18,3.1,.54Z"/>
    <path class="cls-2" d="M548.97,498.8v5.58c-.75-.45-1.68-.67-2.79-.67-.96,0-1.79,.25-2.47,.74-.69,.5-1.14,1.19-1.35,2.09v12.46h-5.58v-20.12h5.58v1.98c.96-1.62,2.46-2.43,4.5-2.43,.99,0,1.69,.12,2.12,.36Z"/>
    <path class="cls-2" d="M570.53,508.97c0,3.09-.92,5.61-2.75,7.56s-4.2,2.92-7.11,2.92-5.28-.97-7.11-2.92c-1.83-1.95-2.75-4.47-2.75-7.56s.92-5.65,2.75-7.6c1.83-1.95,4.2-2.93,7.11-2.93s5.28,.98,7.11,2.93,2.75,4.49,2.75,7.6Zm-5.54,0c0-1.74-.38-3.14-1.15-4.21-.76-1.06-1.82-1.6-3.17-1.6s-2.41,.53-3.17,1.6-1.15,2.47-1.15,4.21,.38,3.1,1.15,4.16c.76,1.06,1.82,1.6,3.17,1.6s2.41-.53,3.17-1.6c.77-1.07,1.15-2.45,1.15-4.16Z"/>
    <path class="cls-2" d="M590.15,501.01c1.56-1.71,3.58-2.57,6.08-2.57,2.07,0,3.69,.67,4.86,2s1.75,3.14,1.75,5.42v13.14h-5.58v-11.97c0-1.11-.25-1.99-.74-2.63-.5-.64-1.21-.97-2.14-.97-.75,0-1.41,.23-1.98,.68-.57,.45-.95,1.09-1.12,1.93v12.96h-5.62v-11.97c0-2.4-.95-3.6-2.83-3.6-.75,0-1.42,.23-2,.7s-.97,1.1-1.15,1.91v12.96h-5.58v-20.12h5.58v1.67c1.11-1.41,2.8-2.12,5.08-2.12s4.11,.86,5.4,2.57Z"/>
    <path class="cls-2" d="M628.8,499.39c0-.99-.31-1.79-.94-2.41-.63-.61-1.49-.92-2.57-.92s-1.99,.35-2.63,1.06c-.65,.71-1,1.63-1.06,2.77h-5.94c.27-2.64,1.27-4.79,2.99-6.46,1.72-1.67,3.92-2.5,6.59-2.5,2.88,0,5.14,.74,6.79,2.23,1.65,1.49,2.47,3.49,2.47,6.01,0,1.08-.3,2.2-.9,3.35-.6,1.16-1.19,2.07-1.78,2.75-.58,.67-1.52,1.69-2.81,3.04l-5.31,5.71h11.12v5h-19.12v-3.74l8.78-9.22c2.01-2.22,3.24-3.74,3.69-4.54,.42-.75,.63-1.46,.63-2.12Z"/>
    <path class="cls-2" d="M656.34,515.5c-2.01,2.64-4.63,3.96-7.88,3.96s-5.87-1.32-7.88-3.96c-2.01-2.64-3.01-6.08-3.01-10.31s1-7.66,3.01-10.3c2.01-2.64,4.63-3.96,7.88-3.96s5.86,1.32,7.88,3.96c2.01,2.64,3.01,6.08,3.01,10.3s-1,7.67-3.01,10.31Zm-3.92-16.92c-.87-1.68-2.19-2.52-3.96-2.52s-3.09,.84-3.96,2.52-1.3,3.88-1.3,6.61,.43,4.94,1.3,6.62c.87,1.68,2.19,2.52,3.96,2.52s3.09-.84,3.96-2.52c.87-1.68,1.3-3.88,1.3-6.62s-.43-4.93-1.3-6.61Z"/>
    <path class="cls-2" d="M674.7,499.39c0-.99-.31-1.79-.94-2.41-.63-.61-1.49-.92-2.57-.92s-1.99,.35-2.63,1.06c-.65,.71-1,1.63-1.06,2.77h-5.94c.27-2.64,1.27-4.79,2.99-6.46,1.72-1.67,3.92-2.5,6.59-2.5,2.88,0,5.14,.74,6.79,2.23,1.65,1.49,2.47,3.49,2.47,6.01,0,1.08-.3,2.2-.9,3.35-.6,1.16-1.19,2.07-1.78,2.75-.58,.67-1.52,1.69-2.81,3.04l-5.31,5.71h11.12v5h-19.12v-3.74l8.78-9.22c2.01-2.22,3.24-3.74,3.69-4.54,.42-.75,.63-1.46,.63-2.12Z"/>
    <path class="cls-2" d="M702.24,515.5c-2.01,2.64-4.63,3.96-7.88,3.96s-5.87-1.32-7.88-3.96c-2.01-2.64-3.01-6.08-3.01-10.31s1-7.66,3.01-10.3c2.01-2.64,4.63-3.96,7.88-3.96s5.86,1.32,7.88,3.96c2.01,2.64,3.01,6.08,3.01,10.3s-1,7.67-3.01,10.31Zm-3.92-16.92c-.87-1.68-2.19-2.52-3.96-2.52s-3.09,.84-3.96,2.52-1.3,3.88-1.3,6.61,.43,4.94,1.3,6.62c.87,1.68,2.19,2.52,3.96,2.52s3.09-.84,3.96-2.52c.87-1.68,1.3-3.88,1.3-6.62s-.43-4.93-1.3-6.61Z"/>
    <path class="cls-2" d="M708.86,509.65v-4.86h10.84v4.86h-10.84Z"/>
    <path class="cls-2" d="M734.46,499.39c0-.99-.31-1.79-.94-2.41-.63-.61-1.49-.92-2.57-.92s-1.99,.35-2.63,1.06c-.65,.71-1,1.63-1.06,2.77h-5.94c.27-2.64,1.27-4.79,2.99-6.46,1.72-1.67,3.92-2.5,6.59-2.5,2.88,0,5.14,.74,6.79,2.23,1.65,1.49,2.47,3.49,2.47,6.01,0,1.08-.3,2.2-.9,3.35-.6,1.16-1.19,2.07-1.78,2.75-.58,.67-1.52,1.69-2.81,3.04l-5.31,5.71h11.12v5h-19.12v-3.74l8.78-9.22c2.01-2.22,3.24-3.74,3.69-4.54,.42-.75,.63-1.46,.63-2.12Z"/>
    <path class="cls-2" d="M762,515.5c-2.01,2.64-4.63,3.96-7.88,3.96s-5.87-1.32-7.88-3.96c-2.01-2.64-3.01-6.08-3.01-10.31s1-7.66,3.01-10.3c2.01-2.64,4.63-3.96,7.88-3.96s5.86,1.32,7.88,3.96c2.01,2.64,3.01,6.08,3.01,10.3s-1,7.67-3.01,10.31Zm-3.92-16.92c-.87-1.68-2.19-2.52-3.96-2.52s-3.09,.84-3.96,2.52-1.3,3.88-1.3,6.61,.43,4.94,1.3,6.62c.87,1.68,2.19,2.52,3.96,2.52s3.09-.84,3.96-2.52c.87-1.68,1.3-3.88,1.3-6.62s-.43-4.93-1.3-6.61Z"/>
    <path class="cls-2" d="M780.36,499.39c0-.99-.31-1.79-.94-2.41-.63-.61-1.49-.92-2.57-.92s-1.99,.35-2.63,1.06c-.65,.71-1,1.63-1.06,2.77h-5.94c.27-2.64,1.27-4.79,2.99-6.46,1.72-1.67,3.92-2.5,6.59-2.5,2.88,0,5.14,.74,6.79,2.23,1.65,1.49,2.47,3.49,2.47,6.01,0,1.08-.3,2.2-.9,3.35-.6,1.16-1.19,2.07-1.78,2.75-.58,.67-1.52,1.69-2.81,3.04l-5.31,5.71h11.12v5h-19.12v-3.74l8.78-9.22c2.01-2.22,3.24-3.74,3.69-4.54,.42-.75,.63-1.46,.63-2.12Z"/>
    <path class="cls-2" d="M798.99,505.51c-1.56,0-2.88,.62-3.96,1.84h-4.5v-15.97h16.2v5h-11.52v5.62c1.23-.84,2.71-1.26,4.46-1.26,2.67,0,4.82,.85,6.46,2.56s2.45,3.95,2.45,6.71-.88,5.1-2.63,6.84c-1.75,1.74-4.04,2.61-6.86,2.61s-5.22-.82-7.02-2.45c-1.8-1.63-2.8-3.82-3.01-6.55h5.58c.15,1.26,.61,2.26,1.37,2.99,.77,.74,1.79,1.1,3.08,1.1s2.22-.42,2.97-1.26,1.12-1.94,1.12-3.29-.38-2.4-1.12-3.24c-.75-.84-1.77-1.26-3.06-1.26Z"/>
    <path class="cls-2" d="M311.81,562.22c0,1.98-.67,3.62-2,4.91s-2.98,1.93-4.93,1.93-3.59-.64-4.91-1.91c-1.32-1.28-1.98-2.92-1.98-4.93s.66-3.66,1.98-4.95c1.32-1.29,2.95-1.93,4.91-1.93s3.59,.65,4.93,1.93c1.33,1.29,2,2.94,2,4.95Z"/>
    <path class="cls-2" d="M338.83,566.13h5.94c.75,2.37,2.58,3.55,5.49,3.55,1.41,0,2.53-.31,3.38-.92,.84-.62,1.26-1.46,1.26-2.54,0-.84-.26-1.5-.79-1.98-.53-.48-1.39-.86-2.59-1.12l-4.95-1.12c-4.68-1.05-7.02-3.57-7.02-7.56,0-2.49,.93-4.53,2.79-6.12,1.86-1.59,4.24-2.38,7.15-2.38,3.06,0,5.51,.73,7.36,2.18,1.85,1.46,3.01,3.4,3.49,5.83h-5.72c-.75-2.19-2.45-3.29-5.08-3.29-1.32,0-2.38,.29-3.17,.88-.8,.58-1.19,1.37-1.19,2.36,0,1.53,1.03,2.54,3.1,3.02l5.04,1.17c4.83,1.11,7.25,3.71,7.25,7.79,0,2.61-.96,4.7-2.88,6.25-1.92,1.56-4.38,2.34-7.38,2.34s-5.66-.74-7.7-2.21-3.3-3.51-3.78-6.12Z"/>
    <path class="cls-2" d="M380.9,574.01h-5.36v-1.08c-.36,.36-1,.69-1.93,.99-.93,.3-1.92,.45-2.97,.45-2.13,0-3.91-.58-5.33-1.75-1.42-1.17-2.14-2.76-2.14-4.77,0-1.89,.74-3.43,2.23-4.63s3.34-1.8,5.56-1.8c.84,0,1.71,.12,2.61,.36,.9,.24,1.56,.51,1.98,.81v-1.49c0-.9-.28-1.64-.83-2.23-.56-.58-1.37-.88-2.45-.88-1.5,0-2.49,.63-2.97,1.89h-5.31c.3-1.86,1.22-3.4,2.77-4.61,1.54-1.21,3.44-1.82,5.69-1.82,2.67,0,4.75,.68,6.23,2.05,1.48,1.37,2.23,3.26,2.23,5.69v12.83Zm-5.36-5.49v-1.44c-.24-.54-.7-.97-1.37-1.28-.67-.31-1.43-.47-2.27-.47-.96,0-1.79,.21-2.5,.63s-1.06,1.04-1.06,1.84,.34,1.42,1.04,1.84c.69,.42,1.53,.63,2.52,.63,.84,0,1.6-.16,2.27-.47,.67-.32,1.13-.74,1.37-1.28Z"/>
    <path class="cls-2" d="M401.51,556.01c1.56-1.71,3.58-2.57,6.08-2.57,2.07,0,3.69,.67,4.86,2s1.75,3.14,1.75,5.42v13.14h-5.58v-11.97c0-1.11-.25-1.99-.74-2.63-.5-.64-1.21-.97-2.14-.97-.75,0-1.41,.23-1.98,.68-.57,.45-.95,1.09-1.12,1.93v12.96h-5.62v-11.97c0-2.4-.95-3.6-2.83-3.6-.75,0-1.42,.23-2,.7s-.97,1.1-1.15,1.91v12.96h-5.58v-20.12h5.58v1.67c1.11-1.41,2.8-2.12,5.08-2.12s4.11,.86,5.4,2.57Z"/>
    <path class="cls-2" d="M424.42,572.34v9.09h-5.58v-27.54h5.58v1.67c.48-.57,1.18-1.06,2.12-1.48,.93-.42,1.9-.63,2.92-.63,2.82,0,5.05,1.01,6.71,3.04,1.65,2.02,2.48,4.52,2.48,7.49s-.83,5.46-2.48,7.47c-1.65,2.01-3.89,3.02-6.71,3.02-1.02,0-2-.21-2.92-.63-.93-.42-1.64-.92-2.12-1.49Zm0-11.7v6.62c.33,.69,.84,1.25,1.53,1.69,.69,.44,1.44,.65,2.25,.65,1.47,0,2.64-.52,3.51-1.58,.87-1.05,1.31-2.4,1.31-4.05s-.44-3.01-1.31-4.07c-.87-1.06-2.04-1.6-3.51-1.6-.81,0-1.55,.22-2.23,.65-.67,.44-1.19,1-1.55,1.69Z"/>
    <path class="cls-2" d="M447.77,544.76v29.25h-5.58v-29.25h5.58Z"/>
    <path class="cls-2" d="M464.87,567.44h5.17c-.36,2.19-1.31,3.91-2.86,5.15-1.54,1.25-3.56,1.87-6.05,1.87-2.91,0-5.26-.97-7.06-2.9-1.8-1.94-2.7-4.46-2.7-7.58s.91-5.54,2.72-7.54c1.81-2,4.13-2.99,6.95-2.99s5.12,.91,6.73,2.72c1.6,1.82,2.41,4.24,2.41,7.27v1.71h-13.41c.09,1.5,.52,2.68,1.3,3.53,.78,.85,1.8,1.28,3.06,1.28,2.04,0,3.29-.84,3.74-2.52Zm-3.78-9.45c-2.28,0-3.67,1.26-4.18,3.78h7.79c-.03-1.11-.36-2.02-.99-2.72-.63-.7-1.5-1.06-2.61-1.06Z"/>
    <path class="cls-2" d="M495.07,544.89v4.73c-.51-.36-1.17-.54-1.98-.54-1.83,0-2.75,.93-2.75,2.79v2.02h4.18v4.5h-4.18v15.62h-5.49v-15.62h-3.29v-4.5h3.29v-2.38c0-2.25,.64-4,1.94-5.26,1.29-1.26,3.01-1.89,5.17-1.89,1.26,0,2.29,.18,3.1,.54Z"/>
    <path class="cls-2" d="M510.14,553.8v5.58c-.75-.45-1.68-.67-2.79-.67-.96,0-1.79,.25-2.47,.74-.69,.5-1.14,1.19-1.35,2.09v12.46h-5.58v-20.12h5.58v1.98c.96-1.62,2.46-2.43,4.5-2.43,.99,0,1.69,.12,2.12,.36Z"/>
    <path class="cls-2" d="M531.7,563.97c0,3.09-.92,5.61-2.75,7.56s-4.2,2.92-7.11,2.92-5.28-.97-7.11-2.92c-1.83-1.95-2.75-4.47-2.75-7.56s.92-5.65,2.75-7.6c1.83-1.95,4.2-2.93,7.11-2.93s5.28,.98,7.11,2.93,2.75,4.49,2.75,7.6Zm-5.54,0c0-1.74-.38-3.14-1.15-4.21-.76-1.06-1.82-1.6-3.17-1.6s-2.41,.53-3.17,1.6-1.15,2.47-1.15,4.21,.38,3.1,1.15,4.16c.76,1.06,1.82,1.6,3.17,1.6s2.41-.53,3.17-1.6c.77-1.07,1.15-2.45,1.15-4.16Z"/>
    <path class="cls-2" d="M551.32,556.01c1.56-1.71,3.58-2.57,6.08-2.57,2.07,0,3.69,.67,4.86,2s1.75,3.14,1.75,5.42v13.14h-5.58v-11.97c0-1.11-.25-1.99-.74-2.63-.5-.64-1.21-.97-2.14-.97-.75,0-1.41,.23-1.98,.68-.57,.45-.95,1.09-1.12,1.93v12.96h-5.62v-11.97c0-2.4-.95-3.6-2.83-3.6-.75,0-1.42,.23-2,.7s-.97,1.1-1.15,1.91v12.96h-5.58v-20.12h5.58v1.67c1.11-1.41,2.8-2.12,5.08-2.12s4.11,.86,5.4,2.57Z"/>
    <path class="cls-2" d="M588.58,546.38v27.63h-5.62v-21.06l-6.44,3.19v-5.62l8.42-4.14h3.65Z"/>
    <path class="cls-2" d="M602.52,574.46c-2.85,0-5.22-.72-7.11-2.16-1.89-1.44-2.83-3.39-2.83-5.85,0-1.68,.46-3.11,1.37-4.28,.91-1.17,2.06-1.95,3.44-2.34-1.2-.51-2.16-1.31-2.88-2.38-.72-1.08-1.08-2.33-1.08-3.74,0-2.43,.88-4.33,2.63-5.71,1.75-1.38,3.91-2.07,6.46-2.07s4.69,.69,6.43,2.07,2.61,3.29,2.61,5.71c0,1.41-.36,2.66-1.08,3.74-.72,1.08-1.68,1.88-2.88,2.38,1.38,.39,2.53,1.17,3.44,2.34s1.37,2.59,1.37,4.28c0,2.46-.95,4.41-2.83,5.85-1.89,1.44-4.25,2.16-7.07,2.16Zm0-4.54c1.26,0,2.3-.35,3.13-1.06,.82-.71,1.24-1.66,1.24-2.86s-.41-2.15-1.24-2.86c-.83-.71-1.87-1.06-3.13-1.06s-2.35,.35-3.17,1.06-1.24,1.66-1.24,2.86,.41,2.15,1.24,2.86,1.88,1.06,3.17,1.06Zm0-12.51c1.05,0,1.93-.31,2.66-.94,.72-.63,1.08-1.47,1.08-2.52s-.36-1.94-1.08-2.59c-.72-.65-1.61-.97-2.66-.97s-1.98,.32-2.7,.97-1.08,1.51-1.08,2.59,.36,1.89,1.08,2.52,1.62,.94,2.7,.94Z"/>
    <path class="cls-2" d="M615.44,564.65v-4.86h10.84v4.86h-10.84Z"/>
    <path class="cls-2" d="M645.41,550.47l-9.04,23.54h-5.8l8.87-22.59h-12.69v-5.04h18.67v4.09Z"/>
    <path class="cls-2" d="M657.65,560.51c-1.56,0-2.88,.62-3.96,1.84h-4.5v-15.97h16.2v5h-11.52v5.62c1.23-.84,2.71-1.26,4.46-1.26,2.67,0,4.82,.85,6.46,2.56s2.45,3.95,2.45,6.71-.88,5.1-2.63,6.84c-1.75,1.74-4.04,2.61-6.86,2.61s-5.22-.82-7.02-2.45c-1.8-1.63-2.8-3.82-3.01-6.55h5.58c.15,1.26,.61,2.26,1.37,2.99,.77,.74,1.79,1.1,3.08,1.1s2.22-.42,2.97-1.26,1.12-1.94,1.12-3.29-.38-2.4-1.12-3.24c-.75-.84-1.77-1.26-3.06-1.26Z"/>
    <path class="cls-2" d="M688.79,581.43h-5.49l2.92-7.33-7.7-20.21h5.9l4.63,13.37,4.59-13.37h5.62l-10.49,27.54Z"/>
    <path class="cls-2" d="M713.9,567.44h5.17c-.36,2.19-1.31,3.91-2.86,5.15-1.54,1.25-3.56,1.87-6.05,1.87-2.91,0-5.26-.97-7.06-2.9-1.8-1.94-2.7-4.46-2.7-7.58s.91-5.54,2.72-7.54c1.81-2,4.13-2.99,6.95-2.99s5.12,.91,6.73,2.72c1.6,1.82,2.41,4.24,2.41,7.27v1.71h-13.41c.09,1.5,.52,2.68,1.3,3.53,.78,.85,1.8,1.28,3.06,1.28,2.04,0,3.29-.84,3.74-2.52Zm-3.78-9.45c-2.28,0-3.67,1.26-4.18,3.78h7.79c-.03-1.11-.36-2.02-.99-2.72-.63-.7-1.5-1.06-2.61-1.06Z"/>
    <path class="cls-2" d="M739.32,574.01h-5.36v-1.08c-.36,.36-1,.69-1.93,.99-.93,.3-1.92,.45-2.97,.45-2.13,0-3.91-.58-5.33-1.75-1.42-1.17-2.14-2.76-2.14-4.77,0-1.89,.74-3.43,2.23-4.63s3.34-1.8,5.56-1.8c.84,0,1.71,.12,2.61,.36,.9,.24,1.56,.51,1.98,.81v-1.49c0-.9-.28-1.64-.83-2.23-.56-.58-1.37-.88-2.45-.88-1.5,0-2.49,.63-2.97,1.89h-5.31c.3-1.86,1.22-3.4,2.77-4.61,1.54-1.21,3.44-1.82,5.69-1.82,2.67,0,4.75,.68,6.23,2.05,1.48,1.37,2.23,3.26,2.23,5.69v12.83Zm-5.36-5.49v-1.44c-.24-.54-.7-.97-1.37-1.28-.67-.31-1.43-.47-2.27-.47-.96,0-1.79,.21-2.5,.63s-1.06,1.04-1.06,1.84,.34,1.42,1.04,1.84c.69,.42,1.53,.63,2.52,.63,.84,0,1.6-.16,2.27-.47,.67-.32,1.13-.74,1.37-1.28Z"/>
    <path class="cls-2" d="M756.06,553.8v5.58c-.75-.45-1.68-.67-2.79-.67-.96,0-1.79,.25-2.47,.74-.69,.5-1.14,1.19-1.35,2.09v12.46h-5.58v-20.12h5.58v1.98c.96-1.62,2.46-2.43,4.5-2.43,.99,0,1.69,.12,2.12,.36Z"/>
    <path class="cls-2" d="M787.65,563.97c0,3.09-.92,5.61-2.75,7.56s-4.2,2.92-7.11,2.92-5.28-.97-7.11-2.92c-1.83-1.95-2.75-4.47-2.75-7.56s.92-5.65,2.75-7.6c1.83-1.95,4.2-2.93,7.11-2.93s5.28,.98,7.11,2.93,2.75,4.49,2.75,7.6Zm-5.54,0c0-1.74-.38-3.14-1.15-4.21-.76-1.06-1.82-1.6-3.17-1.6s-2.41,.53-3.17,1.6-1.15,2.47-1.15,4.21,.38,3.1,1.15,4.16c.76,1.06,1.82,1.6,3.17,1.6s2.41-.53,3.17-1.6c.77-1.07,1.15-2.45,1.15-4.16Z"/>
    <path class="cls-2" d="M796.79,544.76v29.25h-5.58v-29.25h5.58Z"/>
    <path class="cls-2" d="M814.56,574.01v-1.67c-.48,.57-1.19,1.07-2.11,1.49-.93,.42-1.91,.63-2.93,.63-2.82,0-5.05-1-6.68-2.99-1.63-1.99-2.45-4.49-2.45-7.49s.82-5.5,2.45-7.51,3.86-3.02,6.68-3.02c1.02,0,2,.21,2.93,.63,.93,.42,1.63,.92,2.11,1.48v-10.8h5.62v29.25h-5.62Zm0-6.75v-6.62c-.33-.69-.84-1.25-1.53-1.69-.69-.43-1.44-.65-2.25-.65-1.47,0-2.64,.53-3.51,1.6-.87,1.07-1.3,2.42-1.3,4.07s.43,3,1.3,4.05c.87,1.05,2.04,1.58,3.51,1.58,.84,0,1.6-.22,2.27-.65,.67-.43,1.18-1,1.51-1.69Z"/>
    <path class="cls-2" d="M823.7,568.02h5.54c.45,1.47,1.58,2.21,3.38,2.21,1.89,0,2.83-.66,2.83-1.98,0-.45-.16-.8-.47-1.06s-.83-.47-1.55-.65l-4.05-.9c-3.48-.81-5.22-2.7-5.22-5.67,0-1.92,.76-3.49,2.29-4.7s3.43-1.82,5.71-1.82c2.49,0,4.45,.55,5.87,1.64,1.42,1.1,2.32,2.62,2.68,4.57h-5.31c-.42-1.32-1.47-1.98-3.15-1.98-.72,0-1.34,.17-1.87,.5-.53,.33-.79,.79-.79,1.39,0,.75,.6,1.28,1.8,1.58l4.14,.95c3.57,.87,5.36,2.82,5.36,5.85,0,2.01-.77,3.6-2.32,4.77s-3.52,1.75-5.92,1.75-4.53-.56-6.12-1.69c-1.59-1.12-2.54-2.71-2.83-4.75Z"/>
    <path class="cls-2" d="M311.81,617.22c0,1.98-.67,3.62-2,4.91s-2.98,1.93-4.93,1.93-3.59-.64-4.91-1.91c-1.32-1.28-1.98-2.92-1.98-4.93s.66-3.66,1.98-4.95c1.32-1.29,2.95-1.93,4.91-1.93s3.59,.65,4.93,1.93c1.33,1.29,2,2.94,2,4.95Z"/>
    <path class="cls-2" d="M349.45,618.7h-3.01v10.3h-5.71v-27.63h11.38c2.97,0,5.33,.76,7.07,2.29,1.74,1.53,2.61,3.69,2.61,6.48,0,2.16-.56,3.94-1.67,5.33-1.11,1.39-2.66,2.33-4.63,2.81l7.29,10.71h-6.48l-6.84-10.3Zm-3.01-12.42v7.69h5.31c1.41,0,2.49-.34,3.24-1.04,.75-.69,1.12-1.62,1.12-2.79s-.38-2.14-1.12-2.83c-.75-.69-1.83-1.03-3.24-1.03h-5.31Z"/>
    <path class="cls-2" d="M377.84,622.44h5.17c-.36,2.19-1.31,3.91-2.86,5.15-1.54,1.25-3.56,1.87-6.05,1.87-2.91,0-5.26-.97-7.06-2.9-1.8-1.94-2.7-4.46-2.7-7.58s.91-5.54,2.72-7.54c1.81-2,4.13-2.99,6.95-2.99s5.12,.91,6.73,2.72c1.6,1.82,2.41,4.24,2.41,7.27v1.71h-13.41c.09,1.5,.52,2.68,1.3,3.53,.78,.85,1.8,1.28,3.06,1.28,2.04,0,3.29-.84,3.74-2.52Zm-3.78-9.45c-2.28,0-3.67,1.26-4.18,3.78h7.79c-.03-1.11-.36-2.02-.99-2.72-.63-.7-1.5-1.06-2.61-1.06Z"/>
    <path class="cls-2" d="M385.45,623.02h5.54c.45,1.47,1.58,2.21,3.38,2.21,1.89,0,2.83-.66,2.83-1.98,0-.45-.16-.8-.47-1.06s-.83-.47-1.55-.65l-4.05-.9c-3.48-.81-5.22-2.7-5.22-5.67,0-1.92,.76-3.49,2.29-4.7s3.43-1.82,5.71-1.82c2.49,0,4.45,.55,5.87,1.64,1.42,1.1,2.32,2.62,2.68,4.57h-5.31c-.42-1.32-1.47-1.98-3.15-1.98-.72,0-1.34,.17-1.87,.5-.53,.33-.79,.79-.79,1.39,0,.75,.6,1.28,1.8,1.58l4.14,.95c3.57,.87,5.36,2.82,5.36,5.85,0,2.01-.77,3.6-2.32,4.77s-3.52,1.75-5.92,1.75-4.53-.56-6.12-1.69c-1.59-1.12-2.54-2.71-2.83-4.75Z"/>
    <path class="cls-2" d="M412.49,603.09c0,.93-.32,1.7-.97,2.29-.65,.6-1.42,.9-2.32,.9s-1.72-.3-2.36-.9c-.65-.6-.97-1.37-.97-2.29s.33-1.66,.99-2.27c.66-.61,1.44-.92,2.34-.92s1.67,.31,2.32,.92c.65,.62,.97,1.37,.97,2.27Zm-.5,5.8v20.12h-5.58v-20.12h5.58Z"/>
    <path class="cls-2" d="M429.77,629.01v-1.67c-.48,.57-1.19,1.07-2.11,1.49-.93,.42-1.91,.63-2.93,.63-2.82,0-5.05-1-6.68-2.99-1.63-1.99-2.45-4.49-2.45-7.49s.82-5.5,2.45-7.51,3.86-3.02,6.68-3.02c1.02,0,2,.21,2.93,.63,.93,.42,1.63,.92,2.11,1.48v-10.8h5.62v29.25h-5.62Zm0-6.75v-6.62c-.33-.69-.84-1.25-1.53-1.69-.69-.43-1.44-.65-2.25-.65-1.47,0-2.64,.53-3.51,1.6-.87,1.07-1.3,2.42-1.3,4.07s.43,3,1.3,4.05c.87,1.05,2.04,1.58,3.51,1.58,.84,0,1.6-.22,2.27-.65,.67-.43,1.18-1,1.51-1.69Z"/>
    <path class="cls-2" d="M452.45,622.44h5.17c-.36,2.19-1.31,3.91-2.86,5.15-1.54,1.25-3.56,1.87-6.05,1.87-2.91,0-5.26-.97-7.06-2.9-1.8-1.94-2.7-4.46-2.7-7.58s.91-5.54,2.72-7.54c1.81-2,4.13-2.99,6.95-2.99s5.12,.91,6.73,2.72c1.6,1.82,2.41,4.24,2.41,7.27v1.71h-13.41c.09,1.5,.52,2.68,1.3,3.53,.78,.85,1.8,1.28,3.06,1.28,2.04,0,3.29-.84,3.74-2.52Zm-3.78-9.45c-2.28,0-3.67,1.26-4.18,3.78h7.79c-.03-1.11-.36-2.02-.99-2.72-.63-.7-1.5-1.06-2.61-1.06Z"/>
    <path class="cls-2" d="M461.32,629.01v-20.12h5.58v1.85c1.32-1.53,3.12-2.3,5.4-2.3s4,.68,5.24,2.03,1.87,3.15,1.87,5.4v13.14h-5.58v-11.97c0-1.08-.28-1.94-.83-2.59-.56-.64-1.37-.97-2.45-.97-.87,0-1.64,.25-2.32,.74-.68,.5-1.12,1.18-1.33,2.05v12.74h-5.58Z"/>
    <path class="cls-2" d="M485.26,622.93v-9.54h-3.06v-4.5h3.06v-5.44h5.54v5.44h4.41v4.5h-4.41v8.82c0,1.53,.77,2.29,2.29,2.29,.93,0,1.74-.22,2.43-.67v4.95c-.78,.42-1.98,.63-3.6,.63-2.1,0-3.73-.54-4.9-1.62s-1.76-2.7-1.76-4.86Z"/>
    <path class="cls-2" d="M515.18,603.09c0,.93-.32,1.7-.97,2.29-.65,.6-1.42,.9-2.32,.9s-1.72-.3-2.36-.9c-.65-.6-.97-1.37-.97-2.29s.33-1.66,.99-2.27c.66-.61,1.44-.92,2.34-.92s1.67,.31,2.32,.92c.65,.62,.97,1.37,.97,2.27Zm-.5,5.8v20.12h-5.58v-20.12h5.58Z"/>
    <path class="cls-2" d="M519.54,629.01v-20.12h5.58v1.85c1.32-1.53,3.12-2.3,5.4-2.3s4,.68,5.24,2.03,1.87,3.15,1.87,5.4v13.14h-5.58v-11.97c0-1.08-.28-1.94-.83-2.59-.56-.64-1.37-.97-2.45-.97-.87,0-1.64,.25-2.32,.74-.68,.5-1.12,1.18-1.33,2.05v12.74h-5.58Z"/>
    <path class="cls-2" d="M550.14,621.13h5.94c.75,2.37,2.58,3.55,5.49,3.55,1.41,0,2.53-.31,3.38-.92,.84-.62,1.26-1.46,1.26-2.54,0-.84-.26-1.5-.79-1.98-.53-.48-1.39-.86-2.59-1.12l-4.95-1.12c-4.68-1.05-7.02-3.57-7.02-7.56,0-2.49,.93-4.53,2.79-6.12,1.86-1.59,4.24-2.38,7.15-2.38,3.06,0,5.51,.73,7.36,2.18,1.85,1.46,3.01,3.4,3.49,5.83h-5.72c-.75-2.19-2.45-3.29-5.08-3.29-1.32,0-2.38,.29-3.17,.88-.8,.58-1.19,1.37-1.19,2.36,0,1.53,1.03,2.54,3.1,3.02l5.04,1.17c4.83,1.11,7.25,3.71,7.25,7.79,0,2.61-.96,4.7-2.88,6.25-1.92,1.56-4.38,2.34-7.38,2.34s-5.66-.74-7.7-2.21-3.3-3.51-3.78-6.12Z"/>
    <path class="cls-2" d="M592.22,629.01h-5.36v-1.08c-.36,.36-1,.69-1.93,.99-.93,.3-1.92,.45-2.97,.45-2.13,0-3.91-.58-5.33-1.75-1.42-1.17-2.14-2.76-2.14-4.77,0-1.89,.74-3.43,2.23-4.63s3.34-1.8,5.56-1.8c.84,0,1.71,.12,2.61,.36,.9,.24,1.56,.51,1.98,.81v-1.49c0-.9-.28-1.64-.83-2.23-.56-.58-1.37-.88-2.45-.88-1.5,0-2.49,.63-2.97,1.89h-5.31c.3-1.86,1.22-3.4,2.77-4.61,1.54-1.21,3.44-1.82,5.69-1.82,2.67,0,4.75,.68,6.23,2.05,1.48,1.37,2.23,3.26,2.23,5.69v12.83Zm-5.36-5.49v-1.44c-.24-.54-.7-.97-1.37-1.28-.67-.31-1.43-.47-2.27-.47-.96,0-1.79,.21-2.5,.63s-1.06,1.04-1.06,1.84,.34,1.42,1.04,1.84c.69,.42,1.53,.63,2.52,.63,.84,0,1.6-.16,2.27-.47,.67-.32,1.13-.74,1.37-1.28Z"/>
    <path class="cls-2" d="M614.99,608.89l-6.89,9.72,7.34,10.39h-6.17l-4.32-6.3-4.37,6.3h-5.85l7.25-10.26-6.84-9.86h6.17l3.87,5.71,3.96-5.71h5.85Z"/>
    <path class="cls-2" d="M630.02,599.89v4.73c-.51-.36-1.17-.54-1.98-.54-1.83,0-2.75,.93-2.75,2.79v2.02h4.18v4.5h-4.18v15.62h-5.49v-15.62h-3.29v-4.5h3.29v-2.38c0-2.25,.64-4,1.94-5.26,1.29-1.26,3.01-1.89,5.17-1.89,1.26,0,2.29,.18,3.1,.54Z"/>
    <path class="cls-2" d="M651.03,618.97c0,3.09-.92,5.61-2.75,7.56s-4.2,2.92-7.11,2.92-5.28-.97-7.11-2.92c-1.83-1.95-2.75-4.47-2.75-7.56s.92-5.65,2.75-7.6c1.83-1.95,4.2-2.93,7.11-2.93s5.28,.98,7.11,2.93,2.75,4.49,2.75,7.6Zm-5.54,0c0-1.74-.38-3.14-1.15-4.21-.76-1.06-1.82-1.6-3.17-1.6s-2.41,.53-3.17,1.6-1.15,2.47-1.15,4.21,.38,3.1,1.15,4.16c.76,1.06,1.82,1.6,3.17,1.6s2.41-.53,3.17-1.6c.77-1.07,1.15-2.45,1.15-4.16Z"/>
    <path class="cls-2" d="M666.78,608.8v5.58c-.75-.45-1.68-.67-2.79-.67-.96,0-1.79,.25-2.47,.74-.69,.5-1.14,1.19-1.35,2.09v12.46h-5.58v-20.12h5.58v1.98c.96-1.62,2.46-2.43,4.5-2.43,.99,0,1.69,.12,2.12,.36Z"/>
    <path class="cls-2" d="M682.8,629.01v-1.67c-.48,.57-1.19,1.07-2.11,1.49-.93,.42-1.91,.63-2.93,.63-2.82,0-5.05-1-6.68-2.99-1.63-1.99-2.45-4.49-2.45-7.49s.82-5.5,2.45-7.51,3.86-3.02,6.68-3.02c1.02,0,2,.21,2.93,.63,.93,.42,1.63,.92,2.11,1.48v-10.8h5.62v29.25h-5.62Zm0-6.75v-6.62c-.33-.69-.84-1.25-1.53-1.69-.69-.43-1.44-.65-2.25-.65-1.47,0-2.64,.53-3.51,1.6-.87,1.07-1.3,2.42-1.3,4.07s.43,3,1.3,4.05c.87,1.05,2.04,1.58,3.51,1.58,.84,0,1.6-.22,2.27-.65,.67-.43,1.18-1,1.51-1.69Z"/>
    <path class="cls-2" d="M311.81,672.22c0,1.98-.67,3.62-2,4.91s-2.98,1.93-4.93,1.93-3.59-.64-4.91-1.91c-1.32-1.28-1.98-2.92-1.98-4.93s.66-3.66,1.98-4.95c1.32-1.29,2.95-1.93,4.91-1.93s3.59,.65,4.93,1.93c1.33,1.29,2,2.94,2,4.95Z"/>
    <path class="cls-2" d="M346.43,684.01h-5.71v-27.63h18.4v5.04h-12.69v7.02h11.75v5h-11.75v10.58Z"/>
    <path class="cls-2" d="M380.32,663.89v20.12h-5.58v-1.84c-1.38,1.53-3.18,2.29-5.4,2.29s-3.95-.67-5.2-2.03c-1.25-1.35-1.87-3.15-1.87-5.4v-13.14h5.58v12.02c0,1.11,.27,1.98,.81,2.61s1.35,.95,2.43,.95c.87,0,1.63-.25,2.29-.74,.66-.5,1.09-1.18,1.3-2.05v-12.78h5.62Z"/>
    <path class="cls-2" d="M385.13,684.01v-20.12h5.58v1.85c1.32-1.53,3.12-2.3,5.4-2.3s4,.68,5.24,2.03,1.87,3.15,1.87,5.4v13.14h-5.58v-11.97c0-1.08-.28-1.94-.83-2.59-.56-.64-1.37-.97-2.45-.97-.87,0-1.64,.25-2.32,.74-.68,.5-1.12,1.18-1.33,2.05v12.74h-5.58Z"/>
    <path class="cls-2" d="M420.77,684.01v-1.67c-.48,.57-1.19,1.07-2.11,1.49-.93,.42-1.91,.63-2.93,.63-2.82,0-5.05-1-6.68-2.99-1.63-1.99-2.45-4.49-2.45-7.49s.82-5.5,2.45-7.51,3.86-3.02,6.68-3.02c1.02,0,2,.21,2.93,.63,.93,.42,1.63,.92,2.11,1.48v-10.8h5.62v29.25h-5.62Zm0-6.75v-6.62c-.33-.69-.84-1.25-1.53-1.69-.69-.43-1.44-.65-2.25-.65-1.47,0-2.64,.53-3.51,1.6-.87,1.07-1.3,2.42-1.3,4.07s.43,3,1.3,4.05c.87,1.05,2.04,1.58,3.51,1.58,.84,0,1.6-.22,2.27-.65,.67-.43,1.18-1,1.51-1.69Z"/>
    <path class="cls-2" d="M443.45,677.44h5.17c-.36,2.19-1.31,3.91-2.86,5.15-1.54,1.25-3.56,1.87-6.05,1.87-2.91,0-5.26-.97-7.06-2.9-1.8-1.94-2.7-4.46-2.7-7.58s.91-5.54,2.72-7.54c1.81-2,4.13-2.99,6.95-2.99s5.12,.91,6.73,2.72c1.6,1.82,2.41,4.24,2.41,7.27v1.71h-13.41c.09,1.5,.52,2.68,1.3,3.53,.78,.85,1.8,1.28,3.06,1.28,2.04,0,3.29-.84,3.74-2.52Zm-3.78-9.45c-2.28,0-3.67,1.26-4.18,3.78h7.79c-.03-1.11-.36-2.02-.99-2.72-.63-.7-1.5-1.06-2.61-1.06Z"/>
    <path class="cls-2" d="M465.41,684.01v-1.67c-.48,.57-1.19,1.07-2.11,1.49-.93,.42-1.91,.63-2.93,.63-2.82,0-5.05-1-6.68-2.99-1.63-1.99-2.45-4.49-2.45-7.49s.82-5.5,2.45-7.51,3.86-3.02,6.68-3.02c1.02,0,2,.21,2.93,.63,.93,.42,1.63,.92,2.11,1.48v-10.8h5.62v29.25h-5.62Zm0-6.75v-6.62c-.33-.69-.84-1.25-1.53-1.69-.69-.43-1.44-.65-2.25-.65-1.47,0-2.64,.53-3.51,1.6-.87,1.07-1.3,2.42-1.3,4.07s.43,3,1.3,4.05c.87,1.05,2.04,1.58,3.51,1.58,.84,0,1.6-.22,2.27-.65,.67-.43,1.18-1,1.51-1.69Z"/>
    <path class="cls-2" d="M490.97,682.34v1.67h-5.62v-29.25h5.62v10.8c.48-.57,1.18-1.06,2.12-1.48,.93-.42,1.9-.63,2.92-.63,2.82,0,5.05,1.01,6.68,3.02,1.63,2.01,2.45,4.52,2.45,7.51s-.82,5.5-2.45,7.49c-1.64,2-3.86,2.99-6.68,2.99-1.02,0-2-.21-2.92-.63-.93-.42-1.64-.92-2.12-1.49Zm0-11.7v6.62c.33,.69,.83,1.25,1.51,1.69,.67,.44,1.43,.65,2.27,.65,1.47,0,2.64-.52,3.51-1.58,.87-1.05,1.31-2.4,1.31-4.05s-.44-3.01-1.31-4.07c-.87-1.06-2.04-1.6-3.51-1.6-.81,0-1.56,.22-2.25,.65-.69,.44-1.2,1-1.53,1.69Z"/>
    <path class="cls-2" d="M516.53,691.43h-5.49l2.92-7.33-7.7-20.21h5.9l4.63,13.37,4.59-13.37h5.62l-10.49,27.54Z"/>
    <path class="cls-2" d="M537.91,676.13h5.94c.75,2.37,2.58,3.55,5.49,3.55,1.41,0,2.53-.31,3.38-.92,.84-.62,1.26-1.46,1.26-2.54,0-.84-.26-1.5-.79-1.98-.53-.48-1.39-.86-2.59-1.12l-4.95-1.12c-4.68-1.05-7.02-3.57-7.02-7.56,0-2.49,.93-4.53,2.79-6.12,1.86-1.59,4.24-2.38,7.15-2.38,3.06,0,5.51,.73,7.36,2.18,1.85,1.46,3.01,3.4,3.49,5.83h-5.72c-.75-2.19-2.45-3.29-5.08-3.29-1.32,0-2.38,.29-3.17,.88-.8,.58-1.19,1.37-1.19,2.36,0,1.53,1.03,2.54,3.1,3.02l5.04,1.17c4.83,1.11,7.25,3.71,7.25,7.79,0,2.61-.96,4.7-2.88,6.25-1.92,1.56-4.38,2.34-7.38,2.34s-5.66-.74-7.7-2.21-3.3-3.51-3.78-6.12Z"/>
    <path class="cls-2" d="M579.98,684.01h-5.36v-1.08c-.36,.36-1,.69-1.93,.99-.93,.3-1.92,.45-2.97,.45-2.13,0-3.91-.58-5.33-1.75-1.42-1.17-2.14-2.76-2.14-4.77,0-1.89,.74-3.43,2.23-4.63s3.34-1.8,5.56-1.8c.84,0,1.71,.12,2.61,.36,.9,.24,1.56,.51,1.98,.81v-1.49c0-.9-.28-1.64-.83-2.23-.56-.58-1.37-.88-2.45-.88-1.5,0-2.49,.63-2.97,1.89h-5.31c.3-1.86,1.22-3.4,2.77-4.61,1.54-1.21,3.44-1.82,5.69-1.82,2.67,0,4.75,.68,6.23,2.05,1.48,1.37,2.23,3.26,2.23,5.69v12.83Zm-5.36-5.49v-1.44c-.24-.54-.7-.97-1.37-1.28-.67-.31-1.43-.47-2.27-.47-.96,0-1.79,.21-2.5,.63s-1.06,1.04-1.06,1.84,.34,1.42,1.04,1.84c.69,.42,1.53,.63,2.52,.63,.84,0,1.6-.16,2.27-.47,.67-.32,1.13-.74,1.37-1.28Z"/>
    <path class="cls-2" d="M602.75,663.89l-6.89,9.72,7.34,10.39h-6.17l-4.32-6.3-4.37,6.3h-5.85l7.25-10.26-6.84-9.86h6.17l3.87,5.71,3.96-5.71h5.85Z"/>
    <path class="cls-2" d="M617.78,654.89v4.73c-.51-.36-1.17-.54-1.98-.54-1.83,0-2.75,.93-2.75,2.79v2.02h4.18v4.5h-4.18v15.62h-5.49v-15.62h-3.29v-4.5h3.29v-2.38c0-2.25,.64-4,1.94-5.26,1.29-1.26,3.01-1.89,5.17-1.89,1.26,0,2.29,.18,3.1,.54Z"/>
    <path class="cls-2" d="M638.79,673.97c0,3.09-.92,5.61-2.75,7.56s-4.2,2.92-7.11,2.92-5.28-.97-7.11-2.92c-1.83-1.95-2.75-4.47-2.75-7.56s.92-5.65,2.75-7.6c1.83-1.95,4.2-2.93,7.11-2.93s5.28,.98,7.11,2.93,2.75,4.49,2.75,7.6Zm-5.54,0c0-1.74-.38-3.14-1.15-4.21-.76-1.06-1.82-1.6-3.17-1.6s-2.41,.53-3.17,1.6-1.15,2.47-1.15,4.21,.38,3.1,1.15,4.16c.76,1.06,1.82,1.6,3.17,1.6s2.41-.53,3.17-1.6c.77-1.07,1.15-2.45,1.15-4.16Z"/>
    <path class="cls-2" d="M654.54,663.8v5.58c-.75-.45-1.68-.67-2.79-.67-.96,0-1.79,.25-2.47,.74-.69,.5-1.14,1.19-1.35,2.09v12.46h-5.58v-20.12h5.58v1.98c.96-1.62,2.46-2.43,4.5-2.43,.99,0,1.69,.12,2.12,.36Z"/>
    <path class="cls-2" d="M670.57,684.01v-1.67c-.48,.57-1.19,1.07-2.11,1.49-.93,.42-1.91,.63-2.93,.63-2.82,0-5.05-1-6.68-2.99-1.63-1.99-2.45-4.49-2.45-7.49s.82-5.5,2.45-7.51,3.86-3.02,6.68-3.02c1.02,0,2,.21,2.93,.63,.93,.42,1.63,.92,2.11,1.48v-10.8h5.62v29.25h-5.62Zm0-6.75v-6.62c-.33-.69-.84-1.25-1.53-1.69-.69-.43-1.44-.65-2.25-.65-1.47,0-2.64,.53-3.51,1.6-.87,1.07-1.3,2.42-1.3,4.07s.43,3,1.3,4.05c.87,1.05,2.04,1.58,3.51,1.58,.84,0,1.6-.22,2.27-.65,.67-.43,1.18-1,1.51-1.69Z"/>
    <path class="cls-2" d="M693.06,680.48c-2.43-2.66-3.65-6.08-3.65-10.28s1.21-7.63,3.65-10.28c2.43-2.66,5.5-3.98,9.22-3.98,3.18,0,5.77,.85,7.76,2.54s3.26,3.97,3.8,6.82h-5.71c-1.05-2.82-3-4.23-5.85-4.23-2.16,0-3.87,.85-5.13,2.54-1.26,1.7-1.89,3.89-1.89,6.59s.63,4.86,1.89,6.57,2.97,2.57,5.13,2.57c2.85,0,4.8-1.42,5.85-4.28h5.71c-.54,2.88-1.81,5.17-3.8,6.86-2,1.7-4.58,2.54-7.76,2.54-3.72,0-6.79-1.33-9.22-3.98Z"/>
    <path class="cls-2" d="M736.08,673.97c0,3.09-.92,5.61-2.75,7.56s-4.2,2.92-7.11,2.92-5.28-.97-7.11-2.92c-1.83-1.95-2.75-4.47-2.75-7.56s.92-5.65,2.75-7.6c1.83-1.95,4.2-2.93,7.11-2.93s5.28,.98,7.11,2.93,2.75,4.49,2.75,7.6Zm-5.54,0c0-1.74-.38-3.14-1.15-4.21-.76-1.06-1.82-1.6-3.17-1.6s-2.41,.53-3.17,1.6-1.15,2.47-1.15,4.21,.38,3.1,1.15,4.16c.76,1.06,1.82,1.6,3.17,1.6s2.41-.53,3.17-1.6c.77-1.07,1.15-2.45,1.15-4.16Z"/>
    <path class="cls-2" d="M757.46,663.89v20.12h-5.58v-1.84c-1.38,1.53-3.18,2.29-5.4,2.29s-3.95-.67-5.2-2.03c-1.25-1.35-1.87-3.15-1.87-5.4v-13.14h5.58v12.02c0,1.11,.27,1.98,.81,2.61s1.35,.95,2.43,.95c.87,0,1.63-.25,2.29-.74,.66-.5,1.09-1.18,1.3-2.05v-12.78h5.62Z"/>
    <path class="cls-2" d="M762.27,684.01v-20.12h5.58v1.85c1.32-1.53,3.12-2.3,5.4-2.3s4,.68,5.24,2.03,1.87,3.15,1.87,5.4v13.14h-5.58v-11.97c0-1.08-.28-1.94-.83-2.59-.56-.64-1.37-.97-2.45-.97-.87,0-1.64,.25-2.32,.74-.68,.5-1.12,1.18-1.33,2.05v12.74h-5.58Z"/>
    <path class="cls-2" d="M783.74,673.97c0-3.12,.9-5.65,2.7-7.6s4.12-2.93,6.97-2.93c2.46,0,4.47,.66,6.03,1.98,1.56,1.32,2.49,3.08,2.79,5.26h-5.49c-.15-.78-.52-1.39-1.1-1.82-.58-.43-1.33-.65-2.23-.65-1.26,0-2.27,.53-3.01,1.58-.75,1.05-1.12,2.45-1.12,4.18s.38,3.09,1.12,4.14c.75,1.05,1.75,1.57,3.01,1.57,.9,0,1.64-.22,2.23-.65,.58-.43,.95-1.04,1.1-1.82h5.49c-.3,2.19-1.22,3.95-2.77,5.26-1.55,1.32-3.56,1.98-6.05,1.98-2.85,0-5.17-.97-6.97-2.92s-2.7-4.47-2.7-7.56Z"/>
    <path class="cls-2" d="M811.73,658.09c0,.93-.32,1.7-.97,2.29-.65,.6-1.42,.9-2.32,.9s-1.72-.3-2.36-.9c-.65-.6-.97-1.37-.97-2.29s.33-1.66,.99-2.27c.66-.61,1.44-.92,2.34-.92s1.67,.31,2.32,.92c.65,.62,.97,1.37,.97,2.27Zm-.5,5.8v20.12h-5.58v-20.12h5.58Z"/>
    <path class="cls-2" d="M821.67,654.76v29.25h-5.58v-29.25h5.58Z"/>
  </g>
  <g>
    <path class="cls-1" d="M331.75,310.53l-7.06-1.64c-2.9-.67-4.35-2.08-4.35-4.22,0-1.38,.56-2.49,1.67-3.31s2.59-1.23,4.44-1.23c3.7,0,6.07,1.53,7.12,4.6h8c-.67-3.4-2.3-6.12-4.88-8.16-2.58-2.04-6.02-3.05-10.3-3.05s-7.41,1.11-10.02,3.34c-2.61,2.23-3.91,5.08-3.91,8.57,0,5.59,3.28,9.12,9.83,10.58l6.93,1.58c1.68,.38,2.89,.9,3.62,1.57,.73,.67,1.1,1.6,1.1,2.77,0,1.51-.59,2.7-1.76,3.56s-2.75,1.29-4.72,1.29c-4.07,0-6.64-1.66-7.69-4.98h-8.32c.67,3.65,2.43,6.51,5.29,8.57,2.86,2.06,6.45,3.09,10.77,3.09s7.64-1.09,10.33-3.28c2.69-2.18,4.03-5.1,4.03-8.76,0-5.71-3.38-9.34-10.14-10.9Z"/>
    <path class="cls-1" d="M358.52,304.04c-3.15,0-5.81,.85-7.97,2.55-2.16,1.7-3.46,3.85-3.88,6.46h7.43c.67-1.76,2.06-2.64,4.16-2.64,1.51,0,2.66,.41,3.43,1.23,.78,.82,1.17,1.86,1.17,3.12v2.08c-.59-.42-1.51-.8-2.77-1.13s-2.48-.5-3.65-.5c-3.11,0-5.7,.84-7.78,2.52-2.08,1.68-3.12,3.84-3.12,6.49,0,2.81,1,5.04,2.99,6.68,1.99,1.64,4.48,2.46,7.47,2.46,1.47,0,2.86-.21,4.16-.63,1.3-.42,2.21-.88,2.71-1.38v1.51h7.5v-17.96c0-3.4-1.04-6.06-3.12-7.97-2.08-1.91-4.99-2.87-8.73-2.87Zm4.35,21.11c-.34,.76-.98,1.35-1.92,1.79s-2.01,.66-3.18,.66c-1.39,0-2.56-.29-3.53-.88s-1.45-1.45-1.45-2.58,.49-1.99,1.48-2.58c.99-.59,2.15-.88,3.5-.88,1.18,0,2.24,.22,3.18,.66s1.58,1.04,1.92,1.79v2.02Z"/>
    <polygon class="cls-1" points="402.25 304.67 394.05 304.67 388.51 312.67 383.09 304.67 374.46 304.67 384.04 318.47 373.9 332.83 382.08 332.83 388.2 324.01 394.24 332.83 402.88 332.83 392.61 318.28 402.25 304.67"/>
    <path class="cls-1" d="M411.7,293.96c-1.81,1.76-2.71,4.22-2.71,7.37v3.34h-4.6v6.3h4.6v21.86h7.69v-21.86h5.86v-6.3h-5.86v-2.83c0-2.6,1.28-3.91,3.84-3.91,1.13,0,2.06,.25,2.77,.76v-6.62c-1.13-.5-2.58-.76-4.35-.76-3.02,0-5.44,.88-7.24,2.65Z"/>
    <path class="cls-1" d="M438.91,304.04c-4.07,0-7.39,1.37-9.95,4.09-2.56,2.73-3.84,6.28-3.84,10.65s1.28,7.85,3.84,10.58c2.56,2.73,5.88,4.09,9.95,4.09s7.39-1.36,9.95-4.09,3.84-6.26,3.84-10.58-1.28-7.92-3.84-10.65c-2.56-2.73-5.88-4.09-9.95-4.09Zm4.44,20.57c-1.07,1.49-2.55,2.24-4.44,2.24s-3.37-.74-4.44-2.24c-1.07-1.49-1.61-3.43-1.61-5.83s.54-4.4,1.61-5.89c1.07-1.49,2.55-2.24,4.44-2.24s3.37,.75,4.44,2.24c1.07,1.49,1.61,3.46,1.61,5.89s-.54,4.34-1.61,5.83Z"/>
    <path class="cls-1" d="M465.5,307.45v-2.77h-7.81v28.16h7.81v-17.45c.29-1.26,.92-2.24,1.89-2.93s2.12-1.04,3.47-1.04c1.55,0,2.86,.31,3.91,.95v-7.81c-.59-.34-1.57-.5-2.96-.5-2.86,0-4.96,1.13-6.3,3.4Z"/>
    <path class="cls-1" d="M497.19,307c-.67-.8-1.66-1.49-2.96-2.08-1.3-.59-2.67-.88-4.1-.88-3.95,0-7.07,1.41-9.36,4.22s-3.43,6.32-3.43,10.52,1.14,7.7,3.43,10.49c2.29,2.79,5.41,4.19,9.36,4.19,1.43,0,2.79-.29,4.1-.88,1.3-.59,2.29-1.28,2.96-2.08v2.33h7.88v-40.95h-7.88v15.12Zm0,16.38c-.46,.97-1.17,1.75-2.11,2.36-.94,.61-2.01,.91-3.18,.91-2.06,0-3.7-.73-4.91-2.21-1.22-1.47-1.83-3.36-1.83-5.67s.61-4.21,1.83-5.7c1.22-1.49,2.86-2.24,4.91-2.24,1.13,0,2.18,.31,3.15,.91,.97,.61,1.68,1.4,2.14,2.36v9.26Z"/>
    <path class="cls-1" d="M537.51,294.15l-14.8,38.68h8.06l3.4-9.32h14.49l3.46,9.32h8.19l-14.8-38.68h-8Zm-.82,22.55l4.73-12.85,4.72,12.85h-9.45Z"/>
    <path class="cls-1" d="M581.86,307c-.67-.8-1.66-1.49-2.96-2.08-1.3-.59-2.67-.88-4.1-.88-3.95,0-7.07,1.41-9.36,4.22s-3.43,6.32-3.43,10.52,1.14,7.7,3.43,10.49c2.29,2.79,5.41,4.19,9.36,4.19,1.43,0,2.79-.29,4.1-.88,1.3-.59,2.29-1.28,2.96-2.08v2.33h7.88v-40.95h-7.88v15.12Zm0,16.38c-.46,.97-1.17,1.75-2.11,2.36-.94,.61-2.01,.91-3.18,.91-2.06,0-3.7-.73-4.91-2.21-1.22-1.47-1.83-3.36-1.83-5.67s.61-4.21,1.83-5.7c1.22-1.49,2.86-2.24,4.91-2.24,1.13,0,2.18,.31,3.15,.91,.97,.61,1.68,1.4,2.14,2.36v9.26Z"/>
    <polygon class="cls-1" points="608.57 323.38 602.08 304.67 593.89 304.67 604.54 332.83 612.1 332.83 622.81 304.67 614.93 304.67 608.57 323.38"/>
    <rect class="cls-1" x="627.03" y="304.67" width="7.81" height="28.16"/>
    <path class="cls-1" d="M630.93,292.07c-1.26,0-2.35,.43-3.28,1.29-.92,.86-1.39,1.92-1.39,3.18s.45,2.37,1.35,3.21c.9,.84,2,1.26,3.31,1.26s2.34-.42,3.25-1.26c.9-.84,1.35-1.91,1.35-3.21s-.45-2.32-1.35-3.18c-.9-.86-1.98-1.29-3.25-1.29Z"/>
    <path class="cls-1" d="M656.38,316.14l-5.8-1.32c-1.68-.42-2.52-1.16-2.52-2.21,0-.84,.37-1.49,1.1-1.95,.73-.46,1.61-.69,2.61-.69,2.35,0,3.82,.92,4.41,2.77h7.43c-.5-2.73-1.75-4.86-3.75-6.39-2-1.53-4.74-2.3-8.22-2.3-3.19,0-5.86,.85-8,2.55s-3.21,3.9-3.21,6.58c0,4.16,2.44,6.8,7.31,7.94l5.67,1.26c1.01,.25,1.73,.56,2.17,.91,.44,.36,.66,.85,.66,1.48,0,1.85-1.32,2.77-3.97,2.77s-4.09-1.03-4.72-3.09h-7.75c.42,2.86,1.74,5.07,3.97,6.65,2.23,1.57,5.08,2.36,8.57,2.36s6.12-.82,8.28-2.46c2.16-1.64,3.24-3.86,3.24-6.68,0-4.24-2.5-6.97-7.5-8.19Z"/>
    <path class="cls-1" d="M681.21,304.04c-4.07,0-7.39,1.37-9.95,4.09-2.56,2.73-3.84,6.28-3.84,10.65s1.28,7.85,3.84,10.58c2.56,2.73,5.88,4.09,9.95,4.09s7.39-1.36,9.95-4.09,3.84-6.26,3.84-10.58-1.28-7.92-3.84-10.65c-2.56-2.73-5.88-4.09-9.95-4.09Zm4.44,20.57c-1.07,1.49-2.55,2.24-4.44,2.24s-3.37-.74-4.44-2.24c-1.07-1.49-1.61-3.43-1.61-5.83s.54-4.4,1.61-5.89c1.07-1.49,2.55-2.24,4.44-2.24s3.37,.75,4.44,2.24c1.07,1.49,1.61,3.46,1.61,5.89s-.54,4.34-1.61,5.83Z"/>
    <path class="cls-1" d="M707.79,307.45v-2.77h-7.81v28.16h7.81v-17.45c.29-1.26,.92-2.24,1.89-2.93s2.12-1.04,3.47-1.04c1.55,0,2.86,.31,3.91,.95v-7.81c-.59-.34-1.57-.5-2.96-.5-2.86,0-4.96,1.13-6.3,3.4Z"/>
    <path class="cls-1" d="M766.45,304.04c-3.49,0-6.32,1.2-8.51,3.59-1.81-2.39-4.33-3.59-7.56-3.59s-5.57,.99-7.12,2.96v-2.33h-7.81v28.16h7.81v-18.14c.25-1.13,.79-2.03,1.61-2.68,.82-.65,1.75-.98,2.8-.98,2.65,0,3.97,1.68,3.97,5.04v16.76h7.88v-18.14c.25-1.18,.78-2.08,1.58-2.71s1.72-.95,2.77-.95c1.3,0,2.3,.45,2.99,1.36s1.04,2.13,1.04,3.69v16.76h7.81v-18.4c0-3.19-.82-5.72-2.46-7.59-1.64-1.87-3.91-2.8-6.8-2.8Z"/>
    <path class="cls-1" d="M794.23,304.04c-4.07,0-7.39,1.37-9.95,4.09-2.56,2.73-3.84,6.28-3.84,10.65s1.28,7.85,3.84,10.58c2.56,2.73,5.88,4.09,9.95,4.09s7.39-1.36,9.95-4.09,3.84-6.26,3.84-10.58-1.28-7.92-3.84-10.65c-2.56-2.73-5.88-4.09-9.95-4.09Zm4.44,20.57c-1.07,1.49-2.55,2.24-4.44,2.24s-3.37-.74-4.44-2.24c-1.07-1.49-1.61-3.43-1.61-5.83s.54-4.4,1.61-5.89c1.07-1.49,2.55-2.24,4.44-2.24s3.37,.75,4.44,2.24c1.07,1.49,1.61,3.46,1.61,5.89s-.54,4.34-1.61,5.83Z"/>
    <path class="cls-1" d="M831.33,307c-.67-.8-1.66-1.49-2.96-2.08-1.3-.59-2.67-.88-4.1-.88-3.95,0-7.07,1.41-9.36,4.22s-3.43,6.32-3.43,10.52,1.14,7.7,3.43,10.49c2.29,2.79,5.41,4.19,9.36,4.19,1.43,0,2.79-.29,4.1-.88,1.3-.59,2.29-1.28,2.96-2.08v2.33h7.88v-40.95h-7.88v15.12Zm0,16.38c-.46,.97-1.17,1.75-2.11,2.36-.94,.61-2.01,.91-3.18,.91-2.06,0-3.7-.73-4.91-2.21-1.22-1.47-1.83-3.36-1.83-5.67s.61-4.21,1.83-5.7c1.22-1.49,2.86-2.24,4.91-2.24,1.13,0,2.18,.31,3.15,.91,.97,.61,1.68,1.4,2.14,2.36v9.26Z"/>
    <path class="cls-1" d="M857.73,304.04c-3.95,0-7.19,1.4-9.73,4.19s-3.81,6.31-3.81,10.55,1.26,7.91,3.78,10.62c2.52,2.71,5.82,4.06,9.89,4.06,3.49,0,6.31-.87,8.47-2.61s3.5-4.15,4-7.21h-7.25c-.63,2.35-2.37,3.53-5.23,3.53-1.76,0-3.19-.6-4.28-1.8-1.09-1.2-1.7-2.84-1.83-4.95h18.77v-2.39c0-4.24-1.12-7.63-3.37-10.18-2.25-2.54-5.39-3.81-9.42-3.81Zm-5.8,11.65c.71-3.53,2.67-5.29,5.86-5.29,1.55,0,2.77,.49,3.65,1.48,.88,.99,1.34,2.26,1.39,3.81h-10.9Z"/>
    <rect class="cls-1" x="875.5" y="291.88" width="7.81" height="40.95"/>
    <path class="cls-1" d="M290,311.98c-9.83,0-17.82-8-17.82-17.82,0-.83-.71-1.5-1.53-1.5s-1.5,.67-1.5,1.5c0,9.83-8,17.82-17.82,17.82-.83,0-1.5,.67-1.5,1.5s.67,1.5,1.5,1.5c9.83,0,17.82,8,17.82,17.82,0,.41,.2,.83,.49,1.11,.29,.28,.66,.42,1.05,.42,.2,0,.4-.04,.58-.12,.56-.24,.92-.78,.92-1.38,0-9.83,8-17.82,17.82-17.82,.83,0,1.5-.71,1.5-1.53s-.67-1.5-1.5-1.5Z"/>
  </g>
</svg>