<?xml version="1.0" encoding="UTF-8"?>
<svg id="OUTLINES" xmlns="http://www.w3.org/2000/svg" viewBox="0 0 1152 1008">
  <defs>
    <style>
      .cls-1 {
        fill: #000f7d;
      }

      .cls-2 {
        fill: #fff;
      }
    </style>
  </defs>
  <rect class="cls-2" x="291" y="525" width="254.97" height="120" rx="24" ry="24"/>
  <g>
    <path class="cls-1" d="M512.97,516h-206.97c-13.23,0-24,10.77-24,24v72c0,13.23,10.77,24,24,24h206.97c13.23,0,24-10.77,24-24v-72c0-13.23-10.77-24-24-24Zm12,96c0,6.62-5.38,12-12,12h-206.97c-6.62,0-12-5.38-12-12v-72c0-6.62,5.38-12,12-12h206.97c6.62,0,12,5.38,12,12v72Z"/>
    <polygon class="cls-1" points="329.03 591.79 337.04 591.79 337.04 576.99 353.48 576.99 353.48 570 337.04 570 337.04 560.17 354.8 560.17 354.8 553.11 329.03 553.11 329.03 591.79"/>
    <path class="cls-1" d="M371.37,563c-4.07,0-7.39,1.37-9.95,4.09-2.56,2.73-3.84,6.28-3.84,10.65s1.28,7.85,3.84,10.58c2.56,2.73,5.88,4.09,9.95,4.09s7.39-1.36,9.95-4.09c2.56-2.73,3.84-6.26,3.84-10.58s-1.28-7.92-3.84-10.65c-2.56-2.73-5.88-4.09-9.95-4.09Zm4.44,20.57c-1.07,1.49-2.55,2.24-4.44,2.24s-3.37-.75-4.44-2.24c-1.07-1.49-1.61-3.43-1.61-5.83s.54-4.4,1.61-5.89c1.07-1.49,2.55-2.24,4.44-2.24s3.37,.75,4.44,2.24c1.07,1.49,1.61,3.46,1.61,5.89s-.54,4.34-1.61,5.83Z"/>
    <path class="cls-1" d="M397.96,566.41v-2.77h-7.81v28.16h7.81v-17.45c.29-1.26,.92-2.24,1.89-2.93,.97-.69,2.12-1.04,3.47-1.04,1.55,0,2.86,.31,3.91,.95v-7.81c-.59-.34-1.57-.5-2.96-.5-2.86,0-4.96,1.13-6.3,3.4Z"/>
    <path class="cls-1" d="M429.77,565.84c-1.64-1.89-3.95-2.83-6.93-2.83-3.91,0-7.01,1.37-9.32,4.09-2.31,2.73-3.46,6.05-3.46,9.95s1.16,7.29,3.46,10.02,5.42,4.09,9.32,4.09c3.02,0,5.33-.97,6.93-2.9v1.64c0,4.58-2.02,6.87-6.05,6.87-3.07,0-4.91-1.32-5.54-3.97h-7.56c.42,3.15,1.8,5.61,4.13,7.37,2.33,1.76,5.32,2.65,8.98,2.65,4.16,0,7.5-1.19,10.02-3.56,2.52-2.37,3.78-5.89,3.78-10.55v-25.07h-7.75v2.21Zm0,15.81c-.5,.84-1.23,1.54-2.17,2.11-.95,.57-1.98,.85-3.12,.85-2.06,0-3.68-.7-4.85-2.11-1.18-1.41-1.76-3.22-1.76-5.45s.59-4.03,1.76-5.42,2.79-2.08,4.85-2.08c2.35,0,4.12,.97,5.29,2.9v9.2Z"/>
    <path class="cls-1" d="M456.1,563c-3.95,0-7.19,1.4-9.73,4.19-2.54,2.79-3.81,6.31-3.81,10.55s1.26,7.91,3.78,10.62c2.52,2.71,5.82,4.06,9.89,4.06,3.49,0,6.31-.87,8.47-2.61,2.16-1.74,3.5-4.15,4-7.21h-7.25c-.63,2.35-2.37,3.53-5.23,3.53-1.76,0-3.19-.6-4.28-1.8-1.09-1.2-1.7-2.84-1.83-4.95h18.77v-2.39c0-4.24-1.12-7.63-3.37-10.17-2.25-2.54-5.39-3.81-9.42-3.81Zm-5.8,11.66c.71-3.53,2.67-5.29,5.86-5.29,1.55,0,2.77,.49,3.65,1.48,.88,.99,1.34,2.26,1.39,3.81h-10.9Z"/>
    <path class="cls-1" d="M483.32,582.28v-12.35h6.17v-6.3h-6.17v-7.62h-7.75v7.62h-4.28v6.3h4.28v13.36c0,3.02,.82,5.29,2.46,6.8,1.64,1.51,3.93,2.27,6.87,2.27,2.27,0,3.95-.29,5.04-.88v-6.93c-.97,.63-2.1,.95-3.4,.95-2.14,0-3.21-1.07-3.21-3.21Z"/>
    <polygon class="cls-1" points="264 311.61 264 296.93 278.05 272.92 269.54 272.92 260.22 289.3 250.83 272.92 242.07 272.92 256 296.93 256 311.61 264 311.61"/>
    <path class="cls-1" d="M279.5,308.14c2.56,2.73,5.88,4.09,9.95,4.09s7.39-1.36,9.95-4.09c2.56-2.73,3.84-6.26,3.84-10.58s-1.28-7.92-3.84-10.65c-2.56-2.73-5.88-4.09-9.95-4.09s-7.39,1.37-9.95,4.09c-2.56,2.73-3.84,6.28-3.84,10.65s1.28,7.85,3.84,10.58Zm5.51-16.47c1.07-1.49,2.55-2.24,4.44-2.24s3.37,.75,4.44,2.24c1.07,1.49,1.61,3.46,1.61,5.89s-.54,4.34-1.61,5.83c-1.07,1.49-2.55,2.24-4.44,2.24s-3.37-.75-4.44-2.24c-1.07-1.49-1.61-3.43-1.61-5.83s.54-4.4,1.61-5.89Z"/>
    <path class="cls-1" d="M317.8,312.24c3.11,0,5.63-1.07,7.56-3.21v2.58h7.81v-28.16h-7.88v17.89c-.29,1.22-.9,2.17-1.83,2.87-.92,.69-2,1.04-3.21,1.04-1.51,0-2.65-.44-3.4-1.32-.76-.88-1.13-2.1-1.13-3.65v-16.82h-7.81v18.4c0,3.15,.87,5.67,2.61,7.56,1.74,1.89,4.17,2.83,7.28,2.83Z"/>
    <path class="cls-1" d="M342.31,288.55l3.46-5.23c1.39-2.06,2.08-3.95,2.08-5.67s-.47-2.99-1.42-3.94c-.95-.95-2.13-1.42-3.56-1.42s-2.55,.45-3.5,1.35c-.94,.9-1.42,2.05-1.42,3.43,0,1.22,.36,2.23,1.07,3.02,.71,.8,1.64,1.3,2.77,1.51l-4.47,6.93h4.98Z"/>
    <path class="cls-1" d="M359.38,294.16c.29-1.26,.92-2.24,1.89-2.93,.97-.69,2.12-1.04,3.47-1.04,1.55,0,2.86,.31,3.91,.95v-7.81c-.59-.34-1.57-.5-2.96-.5-2.86,0-4.96,1.13-6.3,3.4v-2.77h-7.81v28.16h7.81v-17.45Z"/>
    <path class="cls-1" d="M384.89,312.24c3.49,0,6.31-.87,8.47-2.61,2.16-1.74,3.5-4.15,4-7.21h-7.25c-.63,2.35-2.37,3.53-5.23,3.53-1.76,0-3.19-.6-4.28-1.8-1.09-1.2-1.7-2.84-1.83-4.95h18.77v-2.39c0-4.24-1.12-7.63-3.37-10.17-2.25-2.54-5.39-3.81-9.42-3.81s-7.19,1.4-9.73,4.19c-2.54,2.79-3.81,6.31-3.81,10.55s1.26,7.91,3.78,10.62c2.52,2.71,5.82,4.06,9.89,4.06Zm-.06-23.06c1.55,0,2.77,.49,3.65,1.48,.88,.99,1.34,2.26,1.39,3.81h-10.9c.71-3.53,2.67-5.29,5.86-5.29Z"/>
    <path class="cls-1" d="M426.54,306.31c-2.52,0-4.09-1.03-4.72-3.09h-7.75c.42,2.86,1.74,5.07,3.97,6.65,2.23,1.58,5.08,2.36,8.57,2.36s6.12-.82,8.28-2.46c2.16-1.64,3.24-3.86,3.24-6.68,0-4.24-2.5-6.97-7.5-8.19l-5.8-1.32c-1.68-.42-2.52-1.16-2.52-2.21,0-.84,.37-1.49,1.1-1.95,.73-.46,1.61-.69,2.61-.69,2.35,0,3.82,.92,4.41,2.77h7.43c-.5-2.73-1.75-4.86-3.75-6.39-2-1.53-4.74-2.3-8.22-2.3-3.19,0-5.86,.85-8,2.55s-3.21,3.9-3.21,6.58c0,4.16,2.44,6.8,7.31,7.94l5.67,1.26c1.01,.25,1.73,.56,2.17,.91,.44,.36,.66,.85,.66,1.48,0,1.85-1.32,2.77-3.97,2.77Z"/>
    <path class="cls-1" d="M455.33,312.24c3.49,0,6.31-.87,8.47-2.61,2.16-1.74,3.5-4.15,4-7.21h-7.25c-.63,2.35-2.37,3.53-5.23,3.53-1.76,0-3.19-.6-4.28-1.8-1.09-1.2-1.7-2.84-1.83-4.95h18.77v-2.39c0-4.24-1.12-7.63-3.37-10.17-2.25-2.54-5.39-3.81-9.42-3.81s-7.19,1.4-9.73,4.19c-2.54,2.79-3.81,6.31-3.81,10.55s1.26,7.91,3.78,10.62c2.52,2.71,5.82,4.06,9.89,4.06Zm-.06-23.06c1.55,0,2.77,.49,3.65,1.48,.88,.99,1.34,2.26,1.39,3.81h-10.9c.71-3.53,2.67-5.29,5.86-5.29Z"/>
    <path class="cls-1" d="M485.12,312.24c3.49,0,6.31-.87,8.47-2.61,2.16-1.74,3.5-4.15,4-7.21h-7.25c-.63,2.35-2.37,3.53-5.23,3.53-1.76,0-3.19-.6-4.28-1.8-1.09-1.2-1.7-2.84-1.83-4.95h18.77v-2.39c0-4.24-1.12-7.63-3.37-10.17-2.25-2.54-5.39-3.81-9.42-3.81s-7.19,1.4-9.73,4.19c-2.54,2.79-3.81,6.31-3.81,10.55s1.26,7.91,3.78,10.62c2.52,2.71,5.82,4.06,9.89,4.06Zm-.06-23.06c1.55,0,2.77,.49,3.65,1.48,.88,.99,1.34,2.26,1.39,3.81h-10.9c.71-3.53,2.67-5.29,5.86-5.29Z"/>
    <rect class="cls-1" x="502.77" y="283.45" width="7.81" height="28.16"/>
    <path class="cls-1" d="M506.67,279.79c1.26,0,2.34-.42,3.25-1.26,.9-.84,1.35-1.91,1.35-3.21s-.45-2.32-1.35-3.18c-.9-.86-1.98-1.29-3.25-1.29s-2.35,.43-3.28,1.29c-.92,.86-1.39,1.92-1.39,3.18s.45,2.37,1.35,3.21c.9,.84,2,1.26,3.31,1.26Z"/>
    <path class="cls-1" d="M525.19,293.78c.29-1.22,.91-2.17,1.86-2.87,.95-.69,2.03-1.04,3.25-1.04,1.51,0,2.66,.45,3.43,1.35,.78,.9,1.17,2.11,1.17,3.62v16.76h7.81v-18.4c0-3.15-.87-5.67-2.61-7.56-1.74-1.89-4.19-2.83-7.34-2.83s-5.71,1.07-7.56,3.21v-2.58h-7.81v28.16h7.81v-17.83Z"/>
    <path class="cls-1" d="M574.9,308.52v-25.07h-7.75v2.21c-1.64-1.89-3.95-2.83-6.93-2.83-3.91,0-7.01,1.37-9.32,4.09-2.31,2.73-3.46,6.05-3.46,9.95s1.16,7.29,3.46,10.02,5.42,4.09,9.32,4.09c3.02,0,5.33-.97,6.93-2.9v1.64c0,4.58-2.02,6.87-6.05,6.87-3.07,0-4.91-1.32-5.54-3.97h-7.56c.42,3.15,1.8,5.61,4.13,7.37,2.33,1.76,5.32,2.65,8.98,2.65,4.16,0,7.5-1.19,10.02-3.56,2.52-2.37,3.78-5.89,3.78-10.55Zm-7.75-7.06c-.5,.84-1.23,1.54-2.17,2.11-.95,.57-1.98,.85-3.12,.85-2.06,0-3.68-.7-4.85-2.11-1.18-1.41-1.76-3.22-1.76-5.45s.59-4.03,1.76-5.42,2.79-2.08,4.85-2.08c2.35,0,4.12,.97,5.29,2.9v9.2Z"/>
    <path class="cls-1" d="M596.76,303.1c0,3.02,.82,5.29,2.46,6.8,1.64,1.51,3.93,2.27,6.87,2.27,2.27,0,3.95-.29,5.04-.88v-6.93c-.97,.63-2.1,.95-3.4,.95-2.14,0-3.21-1.07-3.21-3.21v-12.35h6.17v-6.3h-6.17v-7.62h-7.75v7.62h-4.28v6.3h4.28v13.36Z"/>
    <path class="cls-1" d="M624.6,293.78c.29-1.22,.91-2.17,1.86-2.87,.95-.69,2.03-1.04,3.25-1.04,1.51,0,2.66,.45,3.43,1.35,.78,.9,1.17,2.11,1.17,3.62v16.76h7.81v-18.4c0-3.15-.87-5.67-2.61-7.56-1.74-1.89-4.19-2.83-7.34-2.83s-5.71,1.07-7.56,3.21v-15.37h-7.81v40.95h7.81v-17.83Z"/>
    <rect class="cls-1" x="648.61" y="283.45" width="7.81" height="28.16"/>
    <path class="cls-1" d="M652.51,279.79c1.26,0,2.34-.42,3.25-1.26,.9-.84,1.35-1.91,1.35-3.21s-.45-2.32-1.35-3.18c-.9-.86-1.98-1.29-3.25-1.29s-2.35,.43-3.28,1.29c-.92,.86-1.39,1.92-1.39,3.18s.45,2.37,1.35,3.21c.9,.84,2,1.26,3.31,1.26Z"/>
    <path class="cls-1" d="M673.87,306.31c-2.52,0-4.09-1.03-4.72-3.09h-7.75c.42,2.86,1.74,5.07,3.97,6.65,2.23,1.58,5.08,2.36,8.57,2.36s6.12-.82,8.28-2.46c2.16-1.64,3.24-3.86,3.24-6.68,0-4.24-2.5-6.97-7.5-8.19l-5.8-1.32c-1.68-.42-2.52-1.16-2.52-2.21,0-.84,.37-1.49,1.1-1.95,.73-.46,1.61-.69,2.61-.69,2.35,0,3.82,.92,4.41,2.77h7.43c-.5-2.73-1.75-4.86-3.75-6.39-2-1.53-4.74-2.3-8.22-2.3-3.19,0-5.86,.85-8,2.55s-3.21,3.9-3.21,6.58c0,4.16,2.44,6.8,7.31,7.94l5.67,1.26c1.01,.25,1.73,.56,2.17,.91,.44,.36,.66,.85,.66,1.48,0,1.85-1.32,2.77-3.97,2.77Z"/>
    <path class="cls-1" d="M711.92,309.28c.67,.8,1.66,1.49,2.96,2.08s2.67,.88,4.09,.88c3.95,0,7.07-1.4,9.36-4.19,2.29-2.79,3.43-6.29,3.43-10.49s-1.14-7.71-3.43-10.52c-2.29-2.81-5.41-4.22-9.36-4.22-1.43,0-2.79,.29-4.09,.88-1.3,.59-2.29,1.28-2.96,2.08v-15.12h-7.88v40.95h7.88v-2.33Zm0-16.38c.46-.97,1.18-1.75,2.14-2.36,.96-.61,2.02-.91,3.15-.91,2.06,0,3.7,.75,4.91,2.24,1.22,1.49,1.83,3.39,1.83,5.7s-.61,4.2-1.83,5.67c-1.22,1.47-2.86,2.21-4.91,2.21-1.18,0-2.24-.3-3.18-.91-.94-.61-1.65-1.4-2.11-2.36v-9.26Z"/>
    <path class="cls-1" d="M748.96,312.24c3.49,0,6.31-.87,8.47-2.61,2.16-1.74,3.5-4.15,4-7.21h-7.25c-.63,2.35-2.37,3.53-5.23,3.53-1.76,0-3.19-.6-4.28-1.8-1.09-1.2-1.7-2.84-1.83-4.95h18.77v-2.39c0-4.24-1.12-7.63-3.37-10.17-2.25-2.54-5.39-3.81-9.42-3.81s-7.19,1.4-9.73,4.19c-2.54,2.79-3.81,6.31-3.81,10.55s1.26,7.91,3.78,10.62c2.52,2.71,5.82,4.06,9.89,4.06Zm-.06-23.06c1.55,0,2.77,.49,3.65,1.48,.88,.99,1.34,2.26,1.39,3.81h-10.9c.71-3.53,2.67-5.29,5.86-5.29Z"/>
    <path class="cls-1" d="M778.64,312.24c3.49,0,6.31-.92,8.47-2.77,2.16-1.85,3.45-4.3,3.88-7.37h-7.69c-.21,1.09-.72,1.94-1.54,2.55-.82,.61-1.86,.91-3.12,.91-1.76,0-3.17-.73-4.22-2.21-1.05-1.47-1.58-3.4-1.58-5.8s.53-4.39,1.58-5.86c1.05-1.47,2.46-2.21,4.22-2.21,1.26,0,2.3,.31,3.12,.91,.82,.61,1.33,1.46,1.54,2.55h7.69c-.42-3.06-1.72-5.52-3.91-7.37-2.18-1.85-5-2.77-8.44-2.77-3.99,0-7.24,1.37-9.76,4.09-2.52,2.73-3.78,6.28-3.78,10.65s1.26,7.85,3.78,10.58c2.52,2.73,5.77,4.09,9.76,4.09Z"/>
    <path class="cls-1" d="M808.62,294.47c-1.26-.34-2.48-.5-3.65-.5-3.11,0-5.7,.84-7.78,2.52-2.08,1.68-3.12,3.84-3.12,6.49,0,2.81,1,5.04,2.99,6.68,1.99,1.64,4.48,2.46,7.47,2.46,1.47,0,2.86-.21,4.16-.63,1.3-.42,2.21-.88,2.71-1.39v1.51h7.5v-17.96c0-3.4-1.04-6.06-3.12-7.97-2.08-1.91-4.99-2.87-8.73-2.87-3.15,0-5.81,.85-7.97,2.55-2.16,1.7-3.46,3.85-3.88,6.46h7.43c.67-1.76,2.06-2.65,4.16-2.65,1.51,0,2.66,.41,3.43,1.23,.78,.82,1.17,1.86,1.17,3.12v2.08c-.59-.42-1.51-.8-2.77-1.13Zm2.77,9.45c-.34,.76-.98,1.35-1.92,1.79-.95,.44-2.01,.66-3.18,.66-1.39,0-2.56-.29-3.53-.88-.97-.59-1.45-1.45-1.45-2.58s.49-1.99,1.48-2.58c.99-.59,2.15-.88,3.5-.88,1.18,0,2.24,.22,3.18,.66,.95,.44,1.58,1.04,1.92,1.79v2.02Z"/>
    <path class="cls-1" d="M834.83,312.24c3.11,0,5.63-1.07,7.56-3.21v2.58h7.81v-28.16h-7.88v17.89c-.29,1.22-.9,2.17-1.83,2.87-.92,.69-2,1.04-3.21,1.04-1.51,0-2.65-.44-3.4-1.32-.76-.88-1.13-2.1-1.13-3.65v-16.82h-7.81v18.4c0,3.15,.87,5.67,2.61,7.56,1.74,1.89,4.17,2.83,7.28,2.83Z"/>
    <path class="cls-1" d="M867.59,306.31c-2.52,0-4.09-1.03-4.72-3.09h-7.75c.42,2.86,1.74,5.07,3.97,6.65,2.23,1.58,5.08,2.36,8.57,2.36s6.12-.82,8.28-2.46c2.16-1.64,3.24-3.86,3.24-6.68,0-4.24-2.5-6.97-7.5-8.19l-5.8-1.32c-1.68-.42-2.52-1.16-2.52-2.21,0-.84,.37-1.49,1.1-1.95,.73-.46,1.61-.69,2.61-.69,2.35,0,3.82,.92,4.41,2.77h7.43c-.5-2.73-1.75-4.86-3.75-6.39-2-1.53-4.74-2.3-8.22-2.3-3.19,0-5.86,.85-8,2.55s-3.21,3.9-3.21,6.58c0,4.16,2.44,6.8,7.31,7.94l5.67,1.26c1.01,.25,1.73,.56,2.17,.91,.44,.36,.66,.85,.66,1.48,0,1.85-1.32,2.77-3.97,2.77Z"/>
    <path class="cls-1" d="M896.38,312.24c3.49,0,6.31-.87,8.47-2.61,2.16-1.74,3.5-4.15,4-7.21h-7.25c-.63,2.35-2.37,3.53-5.23,3.53-1.76,0-3.19-.6-4.28-1.8-1.09-1.2-1.7-2.84-1.83-4.95h18.77v-2.39c0-4.24-1.12-7.63-3.37-10.17-2.25-2.54-5.39-3.81-9.42-3.81s-7.19,1.4-9.73,4.19c-2.54,2.79-3.81,6.31-3.81,10.55s1.26,7.91,3.78,10.62c2.52,2.71,5.82,4.06,9.89,4.06Zm-.06-23.06c1.55,0,2.77,.49,3.65,1.48,.88,.99,1.34,2.26,1.39,3.81h-10.9c.71-3.53,2.67-5.29,5.86-5.29Z"/>
    <polygon class="cls-1" points="278.42 359.04 272 377.76 265.51 359.04 257.26 359.04 268.03 387.33 263.93 397.6 271.62 397.6 286.3 359.04 278.42 359.04"/>
    <path class="cls-1" d="M311.62,383.74c2.56-2.73,3.84-6.26,3.84-10.58s-1.28-7.92-3.84-10.65c-2.56-2.73-5.88-4.09-9.95-4.09s-7.39,1.37-9.95,4.09c-2.56,2.73-3.84,6.28-3.84,10.65s1.28,7.85,3.84,10.58c2.56,2.73,5.88,4.09,9.95,4.09s7.39-1.36,9.95-4.09Zm-14.4-4.76c-1.07-1.49-1.61-3.43-1.61-5.83s.54-4.4,1.61-5.89c1.07-1.49,2.55-2.24,4.44-2.24s3.37,.75,4.44,2.24c1.07,1.49,1.61,3.46,1.61,5.89s-.54,4.34-1.61,5.83c-1.07,1.49-2.55,2.24-4.44,2.24s-3.37-.75-4.44-2.24Z"/>
    <path class="cls-1" d="M329.08,379.52c-.76-.88-1.13-2.1-1.13-3.65v-16.82h-7.81v18.4c0,3.15,.87,5.67,2.61,7.56,1.74,1.89,4.17,2.83,7.28,2.83s5.63-1.07,7.56-3.21v2.58h7.81v-28.16h-7.88v17.89c-.29,1.22-.9,2.17-1.83,2.87-.92,.69-2,1.04-3.21,1.04-1.51,0-2.65-.44-3.4-1.32Z"/>
    <rect class="cls-1" x="365.49" y="346.26" width="7.81" height="40.95"/>
    <rect class="cls-1" x="380.11" y="359.04" width="7.81" height="28.16"/>
    <path class="cls-1" d="M384.01,346.45c-1.26,0-2.35,.43-3.28,1.29-.92,.86-1.39,1.92-1.39,3.18s.45,2.37,1.35,3.21c.9,.84,2,1.26,3.31,1.26s2.34-.42,3.25-1.26c.9-.84,1.35-1.91,1.35-3.21s-.45-2.32-1.35-3.18c-.9-.86-1.98-1.29-3.25-1.29Z"/>
    <polygon class="cls-1" points="394.72 346.26 394.72 387.21 402.53 387.21 402.53 378.32 404.8 375.87 413.05 387.21 422.31 387.21 410.47 371.01 421.87 359.04 412.17 359.04 402.53 369.5 402.53 346.26 394.72 346.26"/>
    <path class="cls-1" d="M436.74,358.42c-3.95,0-7.19,1.4-9.73,4.19-2.54,2.79-3.81,6.31-3.81,10.55s1.26,7.91,3.78,10.62c2.52,2.71,5.82,4.06,9.89,4.06,3.49,0,6.31-.87,8.47-2.61,2.16-1.74,3.5-4.15,4-7.21h-7.25c-.63,2.35-2.37,3.53-5.23,3.53-1.76,0-3.19-.6-4.28-1.8-1.09-1.2-1.7-2.84-1.83-4.95h18.77v-2.39c0-4.24-1.12-7.63-3.37-10.17-2.25-2.54-5.39-3.81-9.42-3.81Zm-5.8,11.66c.71-3.53,2.67-5.29,5.86-5.29,1.55,0,2.77,.49,3.65,1.48,.88,.99,1.34,2.26,1.39,3.81h-10.9Z"/>
    <path class="cls-1" d="M456.43,362.64c-2.29,2.81-3.43,6.32-3.43,10.52s1.14,7.7,3.43,10.49c2.29,2.79,5.41,4.19,9.36,4.19,1.43,0,2.79-.29,4.1-.88,1.3-.59,2.29-1.28,2.96-2.08v2.33h7.88v-40.95h-7.88v15.12c-.67-.8-1.66-1.49-2.96-2.08-1.3-.59-2.67-.88-4.1-.88-3.95,0-7.07,1.41-9.36,4.22Zm14.27,3.5c.97,.61,1.68,1.4,2.14,2.36v9.26c-.46,.97-1.17,1.75-2.11,2.36-.94,.61-2.01,.91-3.18,.91-2.06,0-3.7-.73-4.91-2.21-1.22-1.47-1.83-3.36-1.83-5.67s.61-4.21,1.83-5.7c1.22-1.49,2.86-2.24,4.91-2.24,1.13,0,2.18,.31,3.15,.91Z"/>
    <path class="cls-1" d="M508.62,384.88c.67,.8,1.66,1.49,2.96,2.08s2.67,.88,4.09,.88c3.95,0,7.08-1.41,9.39-4.22,2.31-2.81,3.46-6.3,3.46-10.46s-1.16-7.65-3.46-10.49c-2.31-2.83-5.44-4.25-9.39-4.25-1.43,0-2.79,.29-4.09,.88-1.3,.59-2.29,1.28-2.96,2.08v-2.33h-7.81v38.56h7.81v-12.73Zm0-16.38c.5-.97,1.23-1.75,2.17-2.36,.94-.61,1.98-.91,3.12-.91,2.06,0,3.7,.75,4.91,2.24,1.22,1.49,1.83,3.39,1.83,5.7s-.61,4.2-1.83,5.67c-1.22,1.47-2.86,2.21-4.91,2.21-1.13,0-2.18-.3-3.15-.91-.97-.61-1.68-1.4-2.14-2.36v-9.26Z"/>
    <path class="cls-1" d="M559.59,373.16c0-4.37-1.28-7.92-3.84-10.65-2.56-2.73-5.88-4.09-9.95-4.09s-7.39,1.37-9.95,4.09c-2.56,2.73-3.84,6.28-3.84,10.65s1.28,7.85,3.84,10.58c2.56,2.73,5.88,4.09,9.95,4.09s7.39-1.36,9.95-4.09c2.56-2.73,3.84-6.26,3.84-10.58Zm-9.36,5.83c-1.07,1.49-2.55,2.24-4.44,2.24s-3.37-.75-4.44-2.24c-1.07-1.49-1.61-3.43-1.61-5.83s.54-4.4,1.61-5.89c1.07-1.49,2.55-2.24,4.44-2.24s3.37,.75,4.44,2.24c1.07,1.49,1.61,3.46,1.61,5.89s-.54,4.34-1.61,5.83Z"/>
    <path class="cls-1" d="M566.64,360.97c-2.14,1.7-3.21,3.9-3.21,6.58,0,4.16,2.44,6.8,7.31,7.94l5.67,1.26c1.01,.25,1.73,.56,2.17,.91,.44,.36,.66,.85,.66,1.48,0,1.85-1.32,2.77-3.97,2.77s-4.09-1.03-4.72-3.09h-7.75c.42,2.86,1.74,5.07,3.97,6.65,2.23,1.58,5.08,2.36,8.57,2.36s6.12-.82,8.28-2.46c2.16-1.64,3.24-3.86,3.24-6.68,0-4.24-2.5-6.97-7.5-8.19l-5.8-1.32c-1.68-.42-2.52-1.16-2.52-2.21,0-.84,.37-1.49,1.1-1.95,.73-.46,1.61-.69,2.61-.69,2.35,0,3.82,.92,4.41,2.77h7.43c-.5-2.73-1.75-4.86-3.75-6.39-2-1.53-4.74-2.3-8.22-2.3-3.19,0-5.86,.85-8,2.55Z"/>
    <path class="cls-1" d="M593.86,378.7c0,3.02,.82,5.29,2.46,6.8,1.64,1.51,3.93,2.27,6.87,2.27,2.27,0,3.95-.29,5.04-.88v-6.93c-.97,.63-2.1,.95-3.4,.95-2.14,0-3.21-1.07-3.21-3.21v-12.35h6.17v-6.3h-6.17v-7.62h-7.75v7.62h-4.28v6.3h4.28v13.36Z"/>
    <path class="cls-1" d="M624.29,381.91c-2.52,0-4.09-1.03-4.72-3.09h-7.75c.42,2.86,1.74,5.07,3.97,6.65,2.23,1.58,5.08,2.36,8.57,2.36s6.12-.82,8.28-2.46c2.16-1.64,3.24-3.86,3.24-6.68,0-4.24-2.5-6.97-7.5-8.19l-5.8-1.32c-1.68-.42-2.52-1.16-2.52-2.21,0-.84,.37-1.49,1.1-1.95,.73-.46,1.61-.69,2.61-.69,2.35,0,3.82,.92,4.41,2.77h7.43c-.5-2.73-1.75-4.86-3.75-6.39-2-1.53-4.74-2.3-8.22-2.3-3.19,0-5.86,.85-8,2.55s-3.21,3.9-3.21,6.58c0,4.16,2.44,6.8,7.31,7.94l5.67,1.26c1.01,.25,1.73,.56,2.17,.91,.44,.36,.66,.85,.66,1.48,0,1.85-1.32,2.77-3.97,2.77Z"/>
    <path class="cls-1" d="M671.6,358.92c-.59-.34-1.57-.5-2.96-.5-2.86,0-4.96,1.13-6.3,3.4v-2.77h-7.81v28.16h7.81v-17.45c.29-1.26,.92-2.24,1.89-2.93,.97-.69,2.12-1.04,3.47-1.04,1.55,0,2.86,.31,3.91,.95v-7.81Z"/>
    <path class="cls-1" d="M674.18,373.16c0,4.37,1.26,7.91,3.78,10.62,2.52,2.71,5.82,4.06,9.89,4.06,3.49,0,6.31-.87,8.47-2.61,2.16-1.74,3.5-4.15,4-7.21h-7.25c-.63,2.35-2.37,3.53-5.23,3.53-1.76,0-3.19-.6-4.28-1.8-1.09-1.2-1.7-2.84-1.83-4.95h18.77v-2.39c0-4.24-1.12-7.63-3.37-10.17-2.25-2.54-5.39-3.81-9.42-3.81s-7.19,1.4-9.73,4.19c-2.54,2.79-3.81,6.31-3.81,10.55Zm13.61-8.38c1.55,0,2.77,.49,3.65,1.48,.88,.99,1.34,2.26,1.39,3.81h-10.9c.71-3.53,2.67-5.29,5.86-5.29Z"/>
    <rect class="cls-1" x="705.5" y="346.26" width="7.81" height="40.95"/>
    <path class="cls-1" d="M743.23,387.21v-17.96c0-3.4-1.04-6.06-3.12-7.97-2.08-1.91-4.99-2.87-8.73-2.87-3.15,0-5.81,.85-7.97,2.55-2.16,1.7-3.46,3.85-3.88,6.46h7.43c.67-1.76,2.06-2.65,4.16-2.65,1.51,0,2.66,.41,3.43,1.23,.78,.82,1.17,1.86,1.17,3.12v2.08c-.59-.42-1.51-.8-2.77-1.13s-2.48-.5-3.65-.5c-3.11,0-5.7,.84-7.78,2.52-2.08,1.68-3.12,3.84-3.12,6.49,0,2.81,1,5.04,2.99,6.68,1.99,1.64,4.48,2.46,7.47,2.46,1.47,0,2.86-.21,4.16-.63,1.3-.42,2.21-.88,2.71-1.39v1.51h7.5Zm-9.42-5.89c-.95,.44-2.01,.66-3.18,.66-1.39,0-2.56-.29-3.53-.88-.97-.59-1.45-1.45-1.45-2.58s.49-1.99,1.48-2.58c.99-.59,2.15-.88,3.5-.88,1.18,0,2.24,.22,3.18,.66,.95,.44,1.58,1.04,1.92,1.79v2.02c-.34,.76-.98,1.35-1.92,1.79Z"/>
    <path class="cls-1" d="M764.97,365.34v-6.3h-6.17v-7.62h-7.75v7.62h-4.28v6.3h4.28v13.36c0,3.02,.82,5.29,2.46,6.8,1.64,1.51,3.93,2.27,6.87,2.27,2.27,0,3.95-.29,5.04-.88v-6.93c-.97,.63-2.1,.95-3.4,.95-2.14,0-3.21-1.07-3.21-3.21v-12.35h6.17Z"/>
    <path class="cls-1" d="M772.87,362.6c-2.54,2.79-3.81,6.31-3.81,10.55s1.26,7.91,3.78,10.62c2.52,2.71,5.82,4.06,9.89,4.06,3.49,0,6.31-.87,8.47-2.61,2.16-1.74,3.5-4.15,4-7.21h-7.25c-.63,2.35-2.37,3.53-5.23,3.53-1.76,0-3.19-.6-4.28-1.8-1.09-1.2-1.7-2.84-1.83-4.95h18.77v-2.39c0-4.24-1.12-7.63-3.37-10.17-2.25-2.54-5.39-3.81-9.42-3.81s-7.19,1.4-9.73,4.19Zm13.45,3.65c.88,.99,1.34,2.26,1.39,3.81h-10.9c.71-3.53,2.67-5.29,5.86-5.29,1.55,0,2.77,.49,3.65,1.48Z"/>
    <path class="cls-1" d="M815.74,386.95c1.3-.59,2.29-1.28,2.96-2.08v2.33h7.88v-40.95h-7.88v15.12c-.67-.8-1.66-1.49-2.96-2.08-1.3-.59-2.67-.88-4.1-.88-3.95,0-7.07,1.41-9.36,4.22-2.29,2.81-3.43,6.32-3.43,10.52s1.14,7.7,3.43,10.49c2.29,2.79,5.41,4.19,9.36,4.19,1.43,0,2.79-.29,4.1-.88Zm-7.25-8.13c-1.22-1.47-1.83-3.36-1.83-5.67s.61-4.21,1.83-5.7c1.22-1.49,2.86-2.24,4.91-2.24,1.13,0,2.18,.31,3.15,.91,.97,.61,1.68,1.4,2.14,2.36v9.26c-.46,.97-1.17,1.75-2.11,2.36-.94,.61-2.01,.91-3.18,.91-2.06,0-3.7-.73-4.91-2.21Z"/>
    <path class="cls-1" d="M862.74,386.89v-6.93c-.97,.63-2.1,.95-3.4,.95-2.14,0-3.21-1.07-3.21-3.21v-12.35h6.17v-6.3h-6.17v-7.62h-7.75v7.62h-4.28v6.3h4.28v13.36c0,3.02,.82,5.29,2.46,6.8,1.64,1.51,3.93,2.27,6.87,2.27,2.27,0,3.95-.29,5.04-.88Z"/>
    <path class="cls-1" d="M866.39,373.16c0,4.33,1.28,7.85,3.84,10.58,2.56,2.73,5.88,4.09,9.95,4.09s7.39-1.36,9.95-4.09c2.56-2.73,3.84-6.26,3.84-10.58s-1.28-7.92-3.84-10.65c-2.56-2.73-5.88-4.09-9.95-4.09s-7.39,1.37-9.95,4.09c-2.56,2.73-3.84,6.28-3.84,10.65Zm9.36-5.89c1.07-1.49,2.55-2.24,4.44-2.24s3.37,.75,4.44,2.24c1.07,1.49,1.61,3.46,1.61,5.89s-.54,4.34-1.61,5.83c-1.07,1.49-2.55,2.24-4.44,2.24s-3.37-.75-4.44-2.24c-1.07-1.49-1.61-3.43-1.61-5.83s.54-4.4,1.61-5.89Z"/>
    <path class="cls-1" d="M324.63,441.95c.8-.63,1.72-.95,2.77-.95,1.3,0,2.3,.45,2.99,1.35,.69,.9,1.04,2.13,1.04,3.69v16.76h7.81v-18.4c0-3.19-.82-5.72-2.46-7.59-1.64-1.87-3.91-2.8-6.8-2.8-3.49,0-6.32,1.2-8.51,3.59-1.81-2.39-4.33-3.59-7.56-3.59s-5.57,.99-7.12,2.96v-2.33h-7.81v28.16h7.81v-18.14c.25-1.13,.79-2.03,1.61-2.68,.82-.65,1.75-.98,2.8-.98,2.65,0,3.97,1.68,3.97,5.04v16.76h7.88v-18.14c.25-1.18,.78-2.08,1.58-2.71Z"/>
    <path class="cls-1" d="M367.73,459.34c2.56-2.73,3.84-6.26,3.84-10.58s-1.28-7.92-3.84-10.65c-2.56-2.73-5.88-4.09-9.95-4.09s-7.39,1.37-9.95,4.09c-2.56,2.73-3.84,6.28-3.84,10.65s1.28,7.85,3.84,10.58c2.56,2.73,5.88,4.09,9.95,4.09s7.39-1.36,9.95-4.09Zm-14.4-4.76c-1.07-1.49-1.61-3.43-1.61-5.83s.54-4.4,1.61-5.89c1.07-1.49,2.55-2.24,4.44-2.24s3.37,.75,4.44,2.24c1.07,1.49,1.61,3.46,1.61,5.89s-.54,4.34-1.61,5.83c-1.07,1.49-2.55,2.24-4.44,2.24s-3.37-.75-4.44-2.24Z"/>
    <path class="cls-1" d="M392.61,462.49v-6.93c-.97,.63-2.1,.95-3.4,.95-2.14,0-3.21-1.07-3.21-3.21v-12.35h6.17v-6.3h-6.17v-7.62h-7.75v7.62h-4.28v6.3h4.28v13.36c0,3.02,.82,5.29,2.46,6.8,1.64,1.51,3.93,2.27,6.87,2.27,2.27,0,3.95-.29,5.04-.88Z"/>
    <path class="cls-1" d="M423.86,448.76c0-4.37-1.28-7.92-3.84-10.65-2.56-2.73-5.88-4.09-9.95-4.09s-7.39,1.37-9.95,4.09c-2.56,2.73-3.84,6.28-3.84,10.65s1.28,7.85,3.84,10.58c2.56,2.73,5.88,4.09,9.95,4.09s7.39-1.36,9.95-4.09c2.56-2.73,3.84-6.26,3.84-10.58Zm-9.36,5.83c-1.07,1.49-2.55,2.24-4.44,2.24s-3.37-.75-4.44-2.24c-1.07-1.49-1.61-3.43-1.61-5.83s.54-4.4,1.61-5.89c1.07-1.49,2.55-2.24,4.44-2.24s3.37,.75,4.44,2.24c1.07,1.49,1.61,3.46,1.61,5.89s-.54,4.34-1.61,5.83Z"/>
    <path class="cls-1" d="M449.34,460.67c2.16-1.85,3.45-4.3,3.88-7.37h-7.69c-.21,1.09-.72,1.94-1.54,2.55-.82,.61-1.86,.91-3.12,.91-1.76,0-3.17-.73-4.22-2.21-1.05-1.47-1.58-3.4-1.58-5.8s.53-4.39,1.58-5.86c1.05-1.47,2.46-2.21,4.22-2.21,1.26,0,2.3,.31,3.12,.91,.82,.61,1.33,1.46,1.54,2.55h7.69c-.42-3.06-1.72-5.52-3.91-7.37-2.18-1.85-5-2.77-8.44-2.77-3.99,0-7.24,1.37-9.76,4.09-2.52,2.73-3.78,6.28-3.78,10.65s1.26,7.85,3.78,10.58c2.52,2.73,5.77,4.09,9.76,4.09,3.49,0,6.31-.92,8.47-2.77Z"/>
    <path class="cls-1" d="M475.08,442.33v-7.81c-.59-.34-1.57-.5-2.96-.5-2.86,0-4.96,1.13-6.3,3.4v-2.77h-7.81v28.16h7.81v-17.45c.29-1.26,.92-2.24,1.89-2.93,.97-.69,2.12-1.04,3.47-1.04,1.55,0,2.86,.31,3.91,.95Z"/>
    <path class="cls-1" d="M505.25,448.76c0-4.37-1.28-7.92-3.84-10.65-2.56-2.73-5.88-4.09-9.95-4.09s-7.39,1.37-9.95,4.09c-2.56,2.73-3.84,6.28-3.84,10.65s1.28,7.85,3.84,10.58c2.56,2.73,5.88,4.09,9.95,4.09s7.39-1.36,9.95-4.09c2.56-2.73,3.84-6.26,3.84-10.58Zm-9.36,5.83c-1.07,1.49-2.55,2.24-4.44,2.24s-3.37-.75-4.44-2.24c-1.07-1.49-1.61-3.43-1.61-5.83s.54-4.4,1.61-5.89c1.07-1.49,2.55-2.24,4.44-2.24s3.37,.75,4.44,2.24c1.07,1.49,1.61,3.46,1.61,5.89s-.54,4.34-1.61,5.83Z"/>
    <path class="cls-1" d="M532.53,454.3c0-4.24-2.5-6.97-7.5-8.19l-5.8-1.32c-1.68-.42-2.52-1.16-2.52-2.21,0-.84,.37-1.49,1.1-1.95,.73-.46,1.61-.69,2.61-.69,2.35,0,3.82,.92,4.41,2.77h7.43c-.5-2.73-1.75-4.86-3.75-6.39-2-1.53-4.74-2.3-8.22-2.3-3.19,0-5.86,.85-8,2.55s-3.21,3.9-3.21,6.58c0,4.16,2.44,6.8,7.31,7.94l5.67,1.26c1.01,.25,1.73,.56,2.17,.91,.44,.36,.66,.85,.66,1.48,0,1.85-1.32,2.77-3.97,2.77s-4.09-1.03-4.72-3.09h-7.75c.42,2.86,1.74,5.07,3.97,6.65,2.23,1.58,5.08,2.36,8.57,2.36s6.12-.82,8.28-2.46c2.16-1.64,3.24-3.86,3.24-6.68Z"/>
    <path class="cls-1" d="M552.57,446.11l-5.8-1.32c-1.68-.42-2.52-1.16-2.52-2.21,0-.84,.37-1.49,1.1-1.95,.73-.46,1.61-.69,2.61-.69,2.35,0,3.82,.92,4.41,2.77h7.43c-.5-2.73-1.75-4.86-3.75-6.39-2-1.53-4.74-2.3-8.22-2.3-3.19,0-5.86,.85-8,2.55s-3.21,3.9-3.21,6.58c0,4.16,2.44,6.8,7.31,7.94l5.67,1.26c1.01,.25,1.73,.56,2.17,.91,.44,.36,.66,.85,.66,1.48,0,1.85-1.32,2.77-3.97,2.77s-4.09-1.03-4.72-3.09h-7.75c.42,2.86,1.74,5.07,3.97,6.65,2.23,1.58,5.08,2.36,8.57,2.36s6.12-.82,8.28-2.46c2.16-1.64,3.24-3.86,3.24-6.68,0-4.24-2.5-6.97-7.5-8.19Z"/>
    <path class="cls-1" d="M599.22,423.34c-.9-.86-1.98-1.29-3.25-1.29s-2.35,.43-3.28,1.29c-.92,.86-1.39,1.92-1.39,3.18s.45,2.37,1.35,3.21c.9,.84,2,1.26,3.31,1.26s2.34-.42,3.25-1.26c.9-.84,1.35-1.91,1.35-3.21s-.45-2.32-1.35-3.18Z"/>
    <rect class="cls-1" x="592.07" y="434.65" width="7.81" height="28.16"/>
    <path class="cls-1" d="M632.01,462.81v-18.4c0-3.15-.87-5.67-2.61-7.56-1.74-1.89-4.19-2.83-7.34-2.83s-5.71,1.07-7.56,3.21v-2.58h-7.81v28.16h7.81v-17.83c.29-1.22,.91-2.17,1.86-2.87,.95-.69,2.03-1.04,3.25-1.04,1.51,0,2.66,.45,3.43,1.35,.78,.9,1.17,2.11,1.17,3.62v16.76h7.81Z"/>
    <path class="cls-1" d="M656.01,461.11c1.64,1.51,3.93,2.27,6.87,2.27,2.27,0,3.95-.29,5.04-.88v-6.93c-.97,.63-2.1,.95-3.4,.95-2.14,0-3.21-1.07-3.21-3.21v-12.35h6.17v-6.3h-6.17v-7.62h-7.75v7.62h-4.28v6.3h4.28v13.36c0,3.02,.82,5.29,2.46,6.8Z"/>
    <path class="cls-1" d="M698.91,462.81v-18.4c0-3.15-.87-5.67-2.61-7.56-1.74-1.89-4.19-2.83-7.34-2.83s-5.71,1.07-7.56,3.21v-15.37h-7.81v40.95h7.81v-17.83c.29-1.22,.91-2.17,1.86-2.87,.95-.69,2.03-1.04,3.25-1.04,1.51,0,2.66,.45,3.43,1.35,.78,.9,1.17,2.11,1.17,3.62v16.76h7.81Z"/>
    <path class="cls-1" d="M717.31,463.44c3.49,0,6.31-.87,8.47-2.61,2.16-1.74,3.5-4.15,4-7.21h-7.25c-.63,2.35-2.37,3.53-5.23,3.53-1.76,0-3.19-.6-4.28-1.8-1.09-1.2-1.7-2.84-1.83-4.95h18.77v-2.39c0-4.24-1.12-7.63-3.37-10.17-2.25-2.54-5.39-3.81-9.42-3.81s-7.19,1.4-9.73,4.19c-2.54,2.79-3.81,6.31-3.81,10.55s1.26,7.91,3.78,10.62c2.52,2.71,5.82,4.06,9.89,4.06Zm-.06-23.06c1.55,0,2.77,.49,3.65,1.48,.88,.99,1.34,2.26,1.39,3.81h-10.9c.71-3.53,2.67-5.29,5.86-5.29Z"/>
    <path class="cls-1" d="M748.3,434.65v38.56h7.81v-12.73c.67,.8,1.66,1.49,2.96,2.08s2.67,.88,4.09,.88c3.95,0,7.08-1.41,9.39-4.22,2.31-2.81,3.46-6.3,3.46-10.46s-1.16-7.65-3.46-10.49c-2.31-2.83-5.44-4.25-9.39-4.25-1.43,0-2.79,.29-4.09,.88-1.3,.59-2.29,1.28-2.96,2.08v-2.33h-7.81Zm9.99,7.09c.94-.61,1.98-.91,3.12-.91,2.06,0,3.7,.75,4.91,2.24,1.22,1.49,1.83,3.39,1.83,5.7s-.61,4.2-1.83,5.67c-1.22,1.47-2.86,2.21-4.91,2.21-1.13,0-2.18-.3-3.15-.91-.97-.61-1.68-1.4-2.14-2.36v-9.26c.5-.97,1.23-1.75,2.17-2.36Z"/>
    <path class="cls-1" d="M804.18,462.81v-17.96c0-3.4-1.04-6.06-3.12-7.97-2.08-1.91-4.99-2.87-8.73-2.87-3.15,0-5.81,.85-7.97,2.55-2.16,1.7-3.46,3.85-3.88,6.46h7.43c.67-1.76,2.06-2.65,4.16-2.65,1.51,0,2.66,.41,3.43,1.23,.78,.82,1.17,1.86,1.17,3.12v2.08c-.59-.42-1.51-.8-2.77-1.13s-2.48-.5-3.65-.5c-3.11,0-5.7,.84-7.78,2.52-2.08,1.68-3.12,3.84-3.12,6.49,0,2.81,1,5.04,2.99,6.68,1.99,1.64,4.48,2.46,7.47,2.46,1.47,0,2.86-.21,4.16-.63,1.3-.42,2.21-.88,2.71-1.39v1.51h7.5Zm-9.42-5.89c-.95,.44-2.01,.66-3.18,.66-1.39,0-2.56-.29-3.53-.88-.97-.59-1.45-1.45-1.45-2.58s.49-1.99,1.48-2.58c.99-.59,2.15-.88,3.5-.88,1.18,0,2.24,.22,3.18,.66,.95,.44,1.58,1.04,1.92,1.79v2.02c-.34,.76-.98,1.35-1.92,1.79Z"/>
    <path class="cls-1" d="M821.19,457.51c-2.52,0-4.09-1.03-4.72-3.09h-7.75c.42,2.86,1.74,5.07,3.97,6.65,2.23,1.58,5.08,2.36,8.57,2.36s6.12-.82,8.28-2.46c2.16-1.64,3.24-3.86,3.24-6.68,0-4.24-2.5-6.97-7.5-8.19l-5.8-1.32c-1.68-.42-2.52-1.16-2.52-2.21,0-.84,.37-1.49,1.1-1.95,.73-.46,1.61-.69,2.61-.69,2.35,0,3.82,.92,4.41,2.77h7.43c-.5-2.73-1.75-4.86-3.75-6.39-2-1.53-4.74-2.3-8.22-2.3-3.19,0-5.86,.85-8,2.55s-3.21,3.9-3.21,6.58c0,4.16,2.44,6.8,7.31,7.94l5.67,1.26c1.01,.25,1.73,.56,2.17,.91,.44,.36,.66,.85,.66,1.48,0,1.85-1.32,2.77-3.97,2.77Z"/>
    <path class="cls-1" d="M842.23,461.11c1.64,1.51,3.93,2.27,6.87,2.27,2.27,0,3.95-.29,5.04-.88v-6.93c-.97,.63-2.1,.95-3.4,.95-2.14,0-3.21-1.07-3.21-3.21v-12.35h6.17v-6.3h-6.17v-7.62h-7.75v7.62h-4.28v6.3h4.28v13.36c0,3.02,.82,5.29,2.46,6.8Z"/>
    <path class="cls-1" d="M572.68,466.7c-1.66,0-3,1.34-3,3v5h-5c-1.66,0-3,1.34-3,3s1.34,3,3,3h8c1.66,0,3-1.34,3-3v-8c0-1.66-1.34-3-3-3Z"/>
    <path class="cls-1" d="M320.16,474.7h-16.58c-1.66,0-3,1.34-3,3s1.34,3,3,3h16.58c1.66,0,3-1.34,3-3s-1.34-3-3-3Z"/>
    <path class="cls-1" d="M552.25,474.7h-16.58c-1.66,0-3,1.34-3,3s1.34,3,3,3h16.58c1.66,0,3-1.34,3-3s-1.34-3-3-3Z"/>
    <path class="cls-1" d="M332.6,480.7h16.58c1.66,0,3-1.34,3-3s-1.34-3-3-3h-16.58c-1.66,0-3,1.34-3,3s1.34,3,3,3Z"/>
    <path class="cls-1" d="M361.61,480.7h16.58c1.66,0,3-1.34,3-3s-1.34-3-3-3h-16.58c-1.66,0-3,1.34-3,3s1.34,3,3,3Z"/>
    <path class="cls-1" d="M506.66,480.7h16.58c1.66,0,3-1.34,3-3s-1.34-3-3-3h-16.58c-1.66,0-3,1.34-3,3s1.34,3,3,3Z"/>
    <path class="cls-1" d="M390.62,480.7h16.58c1.66,0,3-1.34,3-3s-1.34-3-3-3h-16.58c-1.66,0-3,1.34-3,3s1.34,3,3,3Z"/>
    <path class="cls-1" d="M448.64,480.7h16.58c1.66,0,3-1.34,3-3s-1.34-3-3-3h-16.58c-1.66,0-3,1.34-3,3s1.34,3,3,3Z"/>
    <path class="cls-1" d="M477.65,480.7h16.58c1.66,0,3-1.34,3-3s-1.34-3-3-3h-16.58c-1.66,0-3,1.34-3,3s1.34,3,3,3Z"/>
    <path class="cls-1" d="M419.63,480.7h16.58c1.66,0,3-1.34,3-3s-1.34-3-3-3h-16.58c-1.66,0-3,1.34-3,3s1.34,3,3,3Z"/>
    <path class="cls-1" d="M291.15,480.7c1.66,0,3-1.34,3-3s-1.34-3-3-3h-5v-5c0-1.66-1.34-3-3-3s-3,1.34-3,3v8c0,1.66,1.34,3,3,3h8Z"/>
    <path class="cls-1" d="M283.15,432.54c-1.66,0-3,1.34-3,3v19.52c0,1.66,1.34,3,3,3s3-1.34,3-3v-19.52c0-1.66-1.34-3-3-3Z"/>
    <path class="cls-1" d="M286.15,415.9h5c1.66,0,3-1.34,3-3s-1.34-3-3-3h-8c-1.66,0-3,1.34-3,3v8c0,1.66,1.34,3,3,3s3-1.34,3-3v-5Z"/>
    <path class="cls-1" d="M358.61,412.9c0,1.66,1.34,3,3,3h16.58c1.66,0,3-1.34,3-3s-1.34-3-3-3h-16.58c-1.66,0-3,1.34-3,3Z"/>
    <path class="cls-1" d="M329.6,412.9c0,1.66,1.34,3,3,3h16.58c1.66,0,3-1.34,3-3s-1.34-3-3-3h-16.58c-1.66,0-3,1.34-3,3Z"/>
    <path class="cls-1" d="M477.65,415.9h16.58c1.66,0,3-1.34,3-3s-1.34-3-3-3h-16.58c-1.66,0-3,1.34-3,3s1.34,3,3,3Z"/>
    <path class="cls-1" d="M445.64,412.9c0,1.66,1.34,3,3,3h16.58c1.66,0,3-1.34,3-3s-1.34-3-3-3h-16.58c-1.66,0-3,1.34-3,3Z"/>
    <path class="cls-1" d="M390.62,415.9h16.58c1.66,0,3-1.34,3-3s-1.34-3-3-3h-16.58c-1.66,0-3,1.34-3,3s1.34,3,3,3Z"/>
    <path class="cls-1" d="M523.24,415.9c1.66,0,3-1.34,3-3s-1.34-3-3-3h-16.58c-1.66,0-3,1.34-3,3s1.34,3,3,3h16.58Z"/>
    <path class="cls-1" d="M300.59,412.9c0,1.66,1.34,3,3,3h16.58c1.66,0,3-1.34,3-3s-1.34-3-3-3h-16.58c-1.66,0-3,1.34-3,3Z"/>
    <path class="cls-1" d="M416.63,412.9c0,1.66,1.34,3,3,3h16.58c1.66,0,3-1.34,3-3s-1.34-3-3-3h-16.58c-1.66,0-3,1.34-3,3Z"/>
    <path class="cls-1" d="M535.67,409.9c-1.66,0-3,1.34-3,3s1.34,3,3,3h16.58c1.66,0,3-1.34,3-3s-1.34-3-3-3h-16.58Z"/>
    <path class="cls-1" d="M572.68,409.9h-8c-1.66,0-3,1.34-3,3s1.34,3,3,3h5v5c0,1.66,1.34,3,3,3s3-1.34,3-3v-8c0-1.66-1.34-3-3-3Z"/>
    <path class="cls-1" d="M572.68,432.54c-1.66,0-3,1.34-3,3v19.52c0,1.66,1.34,3,3,3s3-1.34,3-3v-19.52c0-1.66-1.34-3-3-3Z"/>
    <path class="cls-1" d="M996.12,747.73h.01s-.1-.11-.1-.11c-.04-.04-.08-.08-.12-.12-.05-.06-.11-.11-.17-.17l-13.04-12.98c-5.69-5.66-8.68-13.35-8.2-21.09,1.28-20.62-5.6-40.45-19.37-55.84-24-26.82-56.14-62.52-73.03-80.22-10.01-10.5-20.92-20.86-21.72-21.62-12.03-11.92-31.7-12.06-43.88-.28-5.92,5.72-9.24,13.46-9.39,21.81-5.85-4.94-13.46-7.67-21.15-7.58-8.49,.1-16.34,3.47-22.11,9.5-6.5,6.79-9.33,15.86-8.51,24.64-3.81-1.48-7.89-2.24-12.04-2.19-8.49,.1-16.34,3.47-22.11,9.5-5.53,5.77-8.4,13.2-8.63,20.69l-78.71-78.34c-6.06-6.03-14.45-9.43-23.05-9.32-8.49,.1-16.34,3.47-22.11,9.5-11.73,12.25-11.5,31.95,.53,43.92l160.99,160.23c2.37,2.36,2.38,6.21,.02,8.58-1.52,1.52-3.25,2.24-7.14,1.11l-78.11-30.92c-.09-.03-.17-.07-.26-.1-4.16-1.38-8.31-1.82-12.34-1.31-6.25,.8-11.9,3.58-16.35,8.06-5.3,5.32-8.21,12.39-8.19,19.91s2.96,14.57,8.28,19.87c2.77,2.75,5.37,4.18,8.72,5.89,15.17,7.88,49.75,25.84,86.26,44.79l14.81,7.69c31.5,16.36,68.82,19.05,102.38,7.39,9.91-3.44,20.64-1.03,27.99,6.29l6.5,6.47c.98,.97,2.25,1.46,3.53,1.46s2.57-.49,3.54-1.47c1.95-1.96,1.94-5.12-.02-7.07l-6.5-6.47c-10.09-10.04-24.78-13.36-38.33-8.65-30.98,10.76-65.42,8.28-94.49-6.81l-14.81-7.69c-36.51-18.96-71.09-36.91-86.29-44.81-3.04-1.55-4.55-2.4-6.24-4.08-3.43-3.42-5.33-7.96-5.34-12.8-.01-4.84,1.86-9.4,5.28-12.83,2.87-2.88,6.51-4.68,10.53-5.19,2.49-.32,5.11-.04,7.79,.84l78.18,30.95c.13,.05,.27,.1,.41,.14,7.02,2.1,12.84,.9,17.29-3.58,6.25-6.28,6.22-16.47-.05-22.72l-160.99-160.23c-8.19-8.15-8.36-21.58-.36-29.92,3.9-4.07,9.23-6.35,15-6.42,5.93-.06,11.71,2.27,15.87,6.41l105.43,104.93c1.96,1.95,5.12,1.94,7.07-.02s1.94-5.12-.02-7.07l-10.5-10.45c-8.19-8.15-8.36-21.58-.36-29.92,3.9-4.07,9.23-6.35,15-6.42,5.93-.06,11.71,2.27,15.87,6.41l16.34,16.27c1.96,1.95,5.12,1.94,7.07-.02,1.95-1.96,1.94-5.12-.02-7.07l-11.26-11.21c-8.19-8.15-8.36-21.58-.36-29.92,3.9-4.07,9.23-6.35,15-6.42,5.94-.07,11.71,2.27,15.87,6.41l14.52,14.46s.04,.04,.06,.06l10.34,10.29c1.96,1.95,5.12,1.94,7.07-.02,1.95-1.96,1.94-5.12-.02-7.07l-10.37-10.33c-4.15-4.14-6.5-9.9-6.45-15.81,.04-5.78,2.29-11.12,6.35-15.03,8.31-8.03,21.73-7.93,29.92,.22,.03,.03,.06,.06,.09,.09,.11,.1,11.23,10.63,21.4,21.3,13.29,13.94,38.47,41.6,72.81,79.99,11.97,13.38,17.95,30.63,16.84,48.55-.66,10.61,3.4,21.1,11.12,28.8,10.22,10.17,12.76,12.7,13.3,13.24,0,0,.02,.02,.03,.03,0,0,.02,.02,.03,.03,.05,.05,.07,.07,.07,.07h0c2.28,2.16,5.37,1.71,7.08,0,.14-.14,3.25-3.35-.03-7.07Z"/>
  </g>
</svg>