<svg id="OUTLINES" xmlns="http://www.w3.org/2000/svg" viewBox="0 0 1152 1008"><defs><style>.cls-1{fill:#fff;}.cls-2{fill:#000f7d;}</style></defs><title>gesture-matching</title><circle class="cls-1" cx="549" cy="351" r="22.5"/><path class="cls-1" d="M549,378.5A27.5,27.5,0,1,1,576.5,351,27.53,27.53,0,0,1,549,378.5Zm0-45A17.5,17.5,0,1,0,566.5,351,17.52,17.52,0,0,0,549,333.5Z"/><circle class="cls-1" cx="477" cy="351" r="22.5"/><path class="cls-1" d="M477,378.5A27.5,27.5,0,1,1,504.5,351,27.53,27.53,0,0,1,477,378.5Zm0-45A17.5,17.5,0,1,0,494.5,351,17.52,17.52,0,0,0,477,333.5Z"/><circle class="cls-1" cx="549" cy="423" r="22.5"/><path class="cls-1" d="M549,450.5A27.5,27.5,0,1,1,576.5,423,27.53,27.53,0,0,1,549,450.5Zm0-45A17.5,17.5,0,1,0,566.5,423,17.52,17.52,0,0,0,549,405.5Z"/><path class="cls-1" d="M526.5,356h-27a5,5,0,0,1,0-10h27a5,5,0,0,1,0,10Z"/><path class="cls-1" d="M549,405.5a5,5,0,0,1-5-5v-27a5,5,0,0,1,10,0v27A5,5,0,0,1,549,405.5Z"/><path class="cls-1" d="M549,473a5,5,0,0,1-5-5V445.5a5,5,0,0,1,10,0V468A5,5,0,0,1,549,473Z"/><path class="cls-2" d="M307.89,833.94a5,5,0,0,1-5-5V695.7A149.54,149.54,0,0,1,347,589.27l50.46-50.46a5,5,0,0,1,7.07,7.07l-50.46,50.46a139.61,139.61,0,0,0-41.16,99.36V828.94A5,5,0,0,1,307.89,833.94Z"/><path class="cls-2" d="M505.3,837.5a5,5,0,0,1-5-5V806a5,5,0,0,1,2.78-4.48,68,68,0,0,0,38.12-61.33V711a5,5,0,0,1,10,0v29.19A77.91,77.91,0,0,1,510.3,809V832.5A5,5,0,0,1,505.3,837.5Z"/><path class="cls-2" d="M546.2,680a23,23,0,1,1,23-23A23,23,0,0,1,546.2,680Zm0-36a13,13,0,1,0,13,13A13,13,0,0,0,546.2,644Z"/><path class="cls-2" d="M436.19,809a5,5,0,0,1-3.78-8.27,68.38,68.38,0,0,0,0-89.23,5,5,0,0,1,.07-6.61l63.15-70.14a28.59,28.59,0,0,0-19.2-48.14L371.36,691.67a5,5,0,0,1-7.07-7.07L470.86,578a5,5,0,0,1,3.5-1.46h.44a38.6,38.6,0,0,1,28.2,65l-60.23,66.88A78.37,78.37,0,0,1,440,807.25,5,5,0,0,1,436.19,809Z"/><path class="cls-2" d="M546.39,374a27.5,27.5,0,1,1,27.5-27.5A27.54,27.54,0,0,1,546.39,374Zm0-45a17.5,17.5,0,1,0,17.5,17.5A17.52,17.52,0,0,0,546.39,329Z"/><path class="cls-2" d="M474.39,374a27.5,27.5,0,1,1,27.5-27.5A27.54,27.54,0,0,1,474.39,374Zm0-45a17.5,17.5,0,1,0,17.5,17.5A17.52,17.52,0,0,0,474.39,329Z"/><path class="cls-2" d="M618.39,374a27.5,27.5,0,1,1,27.5-27.5A27.54,27.54,0,0,1,618.39,374Zm0-45a17.5,17.5,0,1,0,17.5,17.5A17.52,17.52,0,0,0,618.39,329Z"/><path class="cls-2" d="M546.39,446a27.5,27.5,0,1,1,27.5-27.5A27.54,27.54,0,0,1,546.39,446Zm0-45a17.5,17.5,0,1,0,17.5,17.5A17.52,17.52,0,0,0,546.39,401Z"/><path class="cls-2" d="M474.39,446a27.5,27.5,0,1,1,27.5-27.5A27.54,27.54,0,0,1,474.39,446Zm0-45a17.5,17.5,0,1,0,17.5,17.5A17.52,17.52,0,0,0,474.39,401Z"/><path class="cls-2" d="M618.39,446a27.5,27.5,0,1,1,27.5-27.5A27.54,27.54,0,0,1,618.39,446Zm0-45a17.5,17.5,0,1,0,17.5,17.5A17.52,17.52,0,0,0,618.39,401Z"/><path class="cls-2" d="M474.39,518a27.5,27.5,0,1,1,27.5-27.5A27.54,27.54,0,0,1,474.39,518Zm0-45a17.5,17.5,0,1,0,17.5,17.5A17.52,17.52,0,0,0,474.39,473Z"/><path class="cls-2" d="M618.39,518a27.5,27.5,0,1,1,27.5-27.5A27.54,27.54,0,0,1,618.39,518Zm0-45a17.5,17.5,0,1,0,17.5,17.5A17.52,17.52,0,0,0,618.39,473Z"/><path class="cls-2" d="M523.89,351.5h-27a5,5,0,0,1,0-10h27a5,5,0,0,1,0,10Z"/><path class="cls-2" d="M546.39,401a5,5,0,0,1-5-5V369a5,5,0,0,1,10,0v27A5,5,0,0,1,546.39,401Z"/><path class="cls-2" d="M546.39,473a5,5,0,0,1-5-5V441a5,5,0,0,1,10,0v27A5,5,0,0,1,546.39,473Z"/><path class="cls-2" d="M825.22,781.82a5,5,0,0,1-3.53-1.45l-6.5-6.48a26.89,26.89,0,0,0-28-6.29,130.34,130.34,0,0,1-102.39-7.38l-26.08-13.55-75-38.94a30.86,30.86,0,0,1-8.71-5.89,28,28,0,0,1,28.59-46.52l.27.1L682,686.34c3.9,1.13,5.63.41,7.14-1.11a6.07,6.07,0,0,0,0-8.58,5,5,0,0,1,7.06-7.08,16.07,16.07,0,0,1,.05,22.71c-4.46,4.48-10.27,5.69-17.29,3.59l-.41-.15-78.18-31A17.56,17.56,0,0,0,582,669.13a18.12,18.12,0,0,0,.06,25.63c1.69,1.68,3.2,2.53,6.24,4.08l75,39,26.08,13.54a120.23,120.23,0,0,0,94.49,6.82,36.79,36.79,0,0,1,38.33,8.65l6.51,6.47a5,5,0,0,1-3.53,8.54Z"/><path class="cls-2" d="M692.64,678.11a5,5,0,0,1-3.53-1.46l-161-160.23a31.51,31.51,0,0,1-.53-43.92,30.85,30.85,0,0,1,22.1-9.5h.38a32.31,32.31,0,0,1,22.67,9.33l78.71,78.34A31.23,31.23,0,0,1,660.1,530a30.89,30.89,0,0,1,22.1-9.5,31.59,31.59,0,0,1,12,2.2A31.36,31.36,0,0,1,702.75,498a30.85,30.85,0,0,1,22.11-9.49A32.31,32.31,0,0,1,746,496.11a30.86,30.86,0,0,1,9.39-21.81,31.53,31.53,0,0,1,43.88.27c.79.75,11.71,11.12,21.73,21.63,16.88,17.7,49,53.39,73,80.22a76.07,76.07,0,0,1,19.37,55.84,27.47,27.47,0,0,0,8.2,21.09l13.31,13.24,0,0v0l.09.09h0a5,5,0,1,1-7,7.07h0l-.1-.1-.12-.12-.17-.17-13-13a37.5,37.5,0,0,1-11.12-28.8,66.16,66.16,0,0,0-16.84-48.55c-34.34-38.39-59.52-66.05-72.81-80-10.18-10.67-21.29-21.2-21.4-21.3l-.1-.09a21.46,21.46,0,0,0-29.92-.22,20.89,20.89,0,0,0-6.34,15,22.23,22.23,0,0,0,6.49,15.84l10.34,10.3a5,5,0,0,1-7.06,7.08l-24.92-24.8A22.17,22.17,0,0,0,725,498.53a20.89,20.89,0,0,0-15,6.41,21.47,21.47,0,0,0,.37,29.92l11.25,11.21a5,5,0,1,1-7.05,7.08L698.2,536.89a22.43,22.43,0,0,0-15.88-6.42,20.9,20.9,0,0,0-15,6.42,21.47,21.47,0,0,0,.27,29.83l10.59,10.54a5,5,0,1,1-7.06,7.09L660.63,573.9l-.12-.11L565.7,479.42A22.24,22.24,0,0,0,550.08,473h-.26a20.93,20.93,0,0,0-15,6.42,21.48,21.48,0,0,0,.36,29.92l161,160.23a5,5,0,0,1-3.53,8.54Z"/><path class="cls-2" d="M592.22,711H437.75a4.5,4.5,0,0,1-3.34-7.51L496,635.08a29.09,29.09,0,0,0-19.77-49l-70.85,70.85a4.5,4.5,0,0,1-7.68-3.18V220.5A22.52,22.52,0,0,1,420.2,198h252a22.52,22.52,0,0,1,22.5,22.5V526.56a4.52,4.52,0,0,1-1.8,3.6,4.47,4.47,0,0,1-3.95.72,21.74,21.74,0,0,0-21.62,36.28h0a4.5,4.5,0,0,1-6.35,6.38l-94.93-94.48a22.55,22.55,0,0,0-16.23-6.56,21.43,21.43,0,0,0-15.36,6.57,22,22,0,0,0,.37,30.62l158.54,157.8a4.5,4.5,0,0,1,1.33,3.19V688.5a22.06,22.06,0,0,1-.19,2.8,4.52,4.52,0,0,1-2.35,3.42c-3.71,2-8,2.19-13.09.67l-.36-.13-78.2-31a18.24,18.24,0,0,0-8-.86,18.62,18.62,0,0,0-10.76,31.67c1.74,1.73,3.27,2.6,6.36,4.18l6.2,3.22a4.5,4.5,0,0,1-2.07,8.49Zm-144.36-9h128l-.53-.51a27.49,27.49,0,0,1,28.09-45.69l.23.08,78.13,30.94a11.57,11.57,0,0,0,3.87.55V672.55L528.48,516.07a31,31,0,0,1-.52-43.22,30.35,30.35,0,0,1,21.75-9.35,31.9,31.9,0,0,1,22.69,9.18L652,551.85a30.52,30.52,0,0,1,33.75-30.73V220.5A13.52,13.52,0,0,0,672.2,207h-252a13.52,13.52,0,0,0-13.5,13.5V642.9l64.52-64.52a4.48,4.48,0,0,1,3.11-1.32h.47a38.09,38.09,0,0,1,27.83,64.11Z"/></svg>