<svg id="OUTLINES" xmlns="http://www.w3.org/2000/svg" viewBox="0 0 1152 1008"><defs><style>.cls-1{fill:#fff;}.cls-2{fill:#000f7d;}</style></defs><title>gesture-matching</title><circle class="cls-1" cx="549.5" cy="351.5" r="22.5"/><path class="cls-1" d="M549.5,379A27.5,27.5,0,1,1,577,351.5,27.53,27.53,0,0,1,549.5,379Zm0-45A17.5,17.5,0,1,0,567,351.5,17.52,17.52,0,0,0,549.5,334Z"/><circle class="cls-1" cx="477" cy="351" r="22.5"/><path class="cls-1" d="M477,378.5A27.5,27.5,0,1,1,504.5,351,27.53,27.53,0,0,1,477,378.5Zm0-45A17.5,17.5,0,1,0,494.5,351,17.52,17.52,0,0,0,477,333.5Z"/><circle class="cls-1" cx="549" cy="423" r="22.5"/><path class="cls-1" d="M549,450.5A27.5,27.5,0,1,1,576.5,423,27.53,27.53,0,0,1,549,450.5Zm0-45A17.5,17.5,0,1,0,566.5,423,17.52,17.52,0,0,0,549,405.5Z"/><path class="cls-1" d="M526.5,356h-27a5,5,0,0,1,0-10h27a5,5,0,0,1,0,10Z"/><path class="cls-1" d="M549,405.5a5,5,0,0,1-5-5v-27a5,5,0,0,1,10,0v27A5,5,0,0,1,549,405.5Z"/><path class="cls-1" d="M549,473a5,5,0,0,1-5-5V445.5a5,5,0,0,1,10,0V468A5,5,0,0,1,549,473Z"/><path class="cls-2" d="M505.3,837.5a5,5,0,0,1-5-5V806a5,5,0,0,1,2.78-4.48,68,68,0,0,0,38.12-61.33V711a5,5,0,0,1,10,0v29.19A77.91,77.91,0,0,1,510.3,809V832.5A5,5,0,0,1,505.3,837.5Z"/><path class="cls-2" d="M546.2,680a23,23,0,1,1,23-23A23,23,0,0,1,546.2,680Zm0-36a13,13,0,1,0,13,13A13,13,0,0,0,546.2,644Z"/><path class="cls-2" d="M618.39,374a27.5,27.5,0,1,1,27.5-27.5A27.54,27.54,0,0,1,618.39,374Zm0-45a17.5,17.5,0,1,0,17.5,17.5A17.52,17.52,0,0,0,618.39,329Z"/><path class="cls-2" d="M474.39,446a27.5,27.5,0,1,1,27.5-27.5A27.54,27.54,0,0,1,474.39,446Zm0-45a17.5,17.5,0,1,0,17.5,17.5A17.52,17.52,0,0,0,474.39,401Z"/><path class="cls-2" d="M618.39,446a27.5,27.5,0,1,1,27.5-27.5A27.54,27.54,0,0,1,618.39,446Zm0-45a17.5,17.5,0,1,0,17.5,17.5A17.52,17.52,0,0,0,618.39,401Z"/><path class="cls-2" d="M474.39,518a27.5,27.5,0,1,1,27.5-27.5A27.54,27.54,0,0,1,474.39,518Zm0-45a17.5,17.5,0,1,0,17.5,17.5A17.52,17.52,0,0,0,474.39,473Z"/><path class="cls-2" d="M935,666.72h0l-.09-.09v0l0,0-13.31-13.24a27.47,27.47,0,0,1-8.2-21.09A76.07,76.07,0,0,0,894,576.42c-24-26.83-56.14-62.52-73-80.22-10-10.51-20.94-20.88-21.73-21.63a31.53,31.53,0,0,0-43.88-.27A30.86,30.86,0,0,0,746,496.11a32.31,32.31,0,0,0-21.14-7.58,30.85,30.85,0,0,0-30.16,25.09V220.5A22.52,22.52,0,0,0,672.2,198h-252a22.52,22.52,0,0,0-22.5,22.5V538.59a2.75,2.75,0,0,0-.26.22L347,589.27A149.54,149.54,0,0,0,302.89,695.7V828.94a5,5,0,0,0,10,0V695.7a139.61,139.61,0,0,1,41.16-99.36l43.65-43.66v98.51L364.29,684.6a5,5,0,0,0,7.07,7.07L476.43,586.6a28.59,28.59,0,0,1,19.2,48.14l-63.15,70.14a5,5,0,0,0-.07,6.61,68.38,68.38,0,0,1,0,89.23,5,5,0,1,0,7.57,6.53A78.37,78.37,0,0,0,444.69,711H590l68.7,35.67,26.08,13.55A130.34,130.34,0,0,0,787.2,767.6a26.89,26.89,0,0,1,28,6.29l6.5,6.48a5,5,0,1,0,7.06-7.09l-6.51-6.47a36.79,36.79,0,0,0-38.33-8.65,120.23,120.23,0,0,1-94.49-6.82L663.34,737.8l-75-39c-3-1.55-4.55-2.4-6.24-4.08a18.14,18.14,0,0,1,10.47-30.83,17.8,17.8,0,0,1,7.79.84l78.18,31,.41.15c7,2.1,12.83.89,17.29-3.59a16.07,16.07,0,0,0-.05-22.71l-161-160.23a21.48,21.48,0,0,1-.36-29.92,20.93,20.93,0,0,1,15-6.42h.26a22.24,22.24,0,0,1,15.62,6.42l94.81,94.37.12.11,10.49,10.45a5,5,0,1,0,7.06-7.09l-10.59-10.54a21.47,21.47,0,0,1-.27-29.83,20.9,20.9,0,0,1,15-6.42,22.43,22.43,0,0,1,15.88,6.42l16.34,16.26a5,5,0,1,0,7.05-7.08l-11.25-11.21a21.47,21.47,0,0,1-.37-29.92,20.89,20.89,0,0,1,15-6.41,22.17,22.17,0,0,1,15.87,6.41l24.92,24.8a5,5,0,0,0,7.06-7.08l-10.34-10.3A22.23,22.23,0,0,1,756,496.52a20.89,20.89,0,0,1,6.34-15,21.46,21.46,0,0,1,29.92.22l.1.09c.11.1,11.22,10.63,21.4,21.3,13.29,13.94,38.47,41.6,72.81,80a66.16,66.16,0,0,1,16.84,48.55,37.5,37.5,0,0,0,11.12,28.8l13,13,.17.17.12.12.1.1h0a5,5,0,1,0,7-7.07ZM546.39,364a17.5,17.5,0,1,1,17.5-17.5A17.52,17.52,0,0,1,546.39,364Zm0,37a17.5,17.5,0,1,1-17.5,17.5A17.52,17.52,0,0,1,546.39,401Zm54.5,89.5a17.5,17.5,0,1,1,17.5,17.5A17.52,17.52,0,0,1,600.89,490.5Zm84.81,30.12a31.31,31.31,0,0,0-3.5-.15,30.89,30.89,0,0,0-22.1,9.5,31.23,31.23,0,0,0-8.64,20.7L618.64,518a27.5,27.5,0,1,0-27.75-27.61l-18.14-18.05a32.27,32.27,0,0,0-21.36-9.3V445.54a27.5,27.5,0,0,0,0-54.08V373.54a27.5,27.5,0,1,0-32-32H501.43a27.5,27.5,0,1,0,0,10h17.92a27.58,27.58,0,0,0,22,22v17.92a27.5,27.5,0,0,0,0,54.08v18.67a30.53,30.53,0,0,0-13.79,8.29,31.51,31.51,0,0,0,.53,43.92L685.7,673.26v13.61a10.66,10.66,0,0,1-3.71-.53l-78.1-30.92-.27-.1A28,28,0,0,0,575,701.84l.16.16H448.53L503,641.51a38.6,38.6,0,0,0-28.2-65h-.44a5,5,0,0,0-3.5,1.46L406.7,642.19V220.5A13.52,13.52,0,0,1,420.2,207h252a13.52,13.52,0,0,1,13.5,13.5ZM491.89,346.5a17.5,17.5,0,1,1-17.5-17.5A17.52,17.52,0,0,1,491.89,346.5Z"/></svg>