<svg id="OUTLINES" xmlns="http://www.w3.org/2000/svg" viewBox="0 0 1152 1008"><defs><style>.cls-1{fill:#fff;}.cls-2{fill:#000f7d;}</style></defs><title>key-ceremony</title><path class="cls-1" d="M918.25,684.87l-40.47-6a59.12,59.12,0,1,1,.27-67.51h51.46a105.58,105.58,0,0,0-203.09,10.34H530.52a18,18,0,0,0-18,18V728a18,18,0,0,0,18,18H544a18,18,0,0,0,18-18V683h36v45a18,18,0,0,0,18,18h13.5a18,18,0,0,0,18-18V668.15h78.9A105.57,105.57,0,0,0,918.25,702Z"/><path class="cls-1" d="M829.42,756.5a111.61,111.61,0,0,1-107.69-82.35H653.52V728a24,24,0,0,1-24,24H616a24,24,0,0,1-24-24V689H568v39a24,24,0,0,1-24,24h-13.5a24,24,0,0,1-24-24V639.71a24,24,0,0,1,24-24H721.73a111.58,111.58,0,0,1,213.47-6.25,6,6,0,0,1-5.69,7.91H878.05a6,6,0,0,1-4.94-2.59,53.12,53.12,0,0,0-96.81,30.94c.41,28.18,23.66,51.65,51.83,52.32a53.15,53.15,0,0,0,44.74-22.61,6,6,0,0,1,5.79-2.48l40.47,6a6,6,0,0,1,5.12,5.93V702a6,6,0,0,1-1,3.24A111.21,111.21,0,0,1,829.42,756.5Zm-181.9-94.35h78.9a6,6,0,0,1,5.86,4.69,99.57,99.57,0,0,0,180,33.33V690.05l-31.81-4.71a65.12,65.12,0,1,1,.66-80h39.7A99.58,99.58,0,0,0,732.28,623a6,6,0,0,1-5.86,4.68H530.52a12,12,0,0,0-12,12V728a12,12,0,0,0,12,12H544a12,12,0,0,0,12-12V683a6,6,0,0,1,6-6h36a6,6,0,0,1,6,6v45a12,12,0,0,0,12,12h13.5a12,12,0,0,0,12-12V668.15A6,6,0,0,1,647.52,662.15Z"/><path class="cls-1" d="M241,342.87l40.48-6a59.12,59.12,0,1,0-.27-67.51H229.75a105.58,105.58,0,0,1,203.09,10.34H628.75a18,18,0,0,1,18,18V386a18,18,0,0,1-18,18h-13.5a18,18,0,0,1-18-18V341h-36v45a18,18,0,0,1-18,18h-13.5a18,18,0,0,1-18-18V326.15H432.84A105.57,105.57,0,0,1,241,360Z"/><path class="cls-1" d="M329.85,414.5A111.2,111.2,0,0,1,236,363.2a5.93,5.93,0,0,1-1-3.24V342.87a6,6,0,0,1,5.13-5.93l40.47-6a6,6,0,0,1,5.78,2.48A53.13,53.13,0,0,0,331.13,356c28.17-.67,51.42-24.14,51.84-52.32a53.1,53.1,0,0,0-96.82-30.94,6,6,0,0,1-4.93,2.59H229.75a6,6,0,0,1-5.69-7.91,111.59,111.59,0,0,1,213.48,6.25H628.75a24,24,0,0,1,24,24V386a24,24,0,0,1-24,24h-13.5a24,24,0,0,1-24-24V347h-24v39a24,24,0,0,1-24,24h-13.5a24,24,0,0,1-24-24V332.15H437.54A111.61,111.61,0,0,1,329.85,414.5ZM247,358.17a99.58,99.58,0,0,0,180-33.33,6,6,0,0,1,5.85-4.69h78.91a6,6,0,0,1,6,6V386a12,12,0,0,0,12,12h13.5a12,12,0,0,0,12-12V341a6,6,0,0,1,6-6h36a6,6,0,0,1,6,6v45a12,12,0,0,0,12,12h13.5a12,12,0,0,0,12-12V297.71a12,12,0,0,0-12-12H432.84A6,6,0,0,1,427,281a99.58,99.58,0,0,0-188.52-17.66h39.7a65.13,65.13,0,1,1,.66,80L247,348.05Z"/><path class="cls-2" d="M823.5,465.13a123,123,0,1,1,123-123A123.14,123.14,0,0,1,823.5,465.13Zm0-234a111,111,0,1,0,111,111A111.12,111.12,0,0,0,823.5,231.13Z"/><path class="cls-2" d="M868.5,420.13h-90a6,6,0,0,1-5.68-7.93l21.78-64.05a51,51,0,1,1,57.8,0l21.78,64.05a6,6,0,0,1-5.68,7.93Zm-81.62-12h73.24l-20.61-60.64a6,6,0,0,1,2.78-7.18,39,39,0,1,0-37.58,0,6,6,0,0,1,2.78,7.18Z"/><path class="cls-2" d="M328.5,807.5a123,123,0,1,1,123-123A123.14,123.14,0,0,1,328.5,807.5Zm0-234a111,111,0,1,0,111,111A111.12,111.12,0,0,0,328.5,573.5Z"/><path class="cls-2" d="M373.5,762.5h-90a6,6,0,0,1-5.68-7.93l21.78-64.05a51,51,0,1,1,57.8,0l21.78,64.05a6,6,0,0,1-5.68,7.93Zm-81.62-12h73.24l-20.61-60.64a6,6,0,0,1,2.78-7.18,39,39,0,1,0-37.58,0,6,6,0,0,1,2.78,7.18Z"/><path class="cls-2" d="M424.82,624.07a6,6,0,0,1-3.41-10.94L722.79,405.24a6,6,0,1,1,6.81,9.88L428.22,623A6,6,0,0,1,424.82,624.07Z"/><path class="cls-2" d="M54,335.68a5,5,0,0,1-3.54-8.53L144.57,233A149.38,149.38,0,0,1,250.9,189h72.61a5,5,0,0,1,0,10H250.9a139.43,139.43,0,0,0-99.25,41.11L57.54,334.22A5,5,0,0,1,54,335.68Z"/><path class="cls-2" d="M190.92,477.63a5,5,0,0,1-3.54-8.54l18.72-18.71a5,5,0,0,1,5.14-1.2,67.91,67.91,0,0,0,70.23-16.39l30.06-30.06a5,5,0,1,1,7.07,7.07l-30.05,30.06A77.87,77.87,0,0,1,211,459.6l-16.56,16.56A5,5,0,0,1,190.92,477.63Z"/><path class="cls-2" d="M162.25,408.68a5,5,0,0,1-.37-10,68.28,68.28,0,0,0,63-63,5,5,0,0,1,4.72-4.63l94.15-4.93a28.56,28.56,0,0,0,20.44-47.56H195.79a5,5,0,0,1,0-10H346.34a5,5,0,0,1,3.49,1.42l.33.33a38.55,38.55,0,0,1-26,65.8l-89.78,4.71a78.28,78.28,0,0,1-71.8,67.85Z"/><path class="cls-2" d="M326.6,411.13a111.42,111.42,0,0,1-102.75-68l11-4.69a99.6,99.6,0,0,0,188.85-16.93,6,6,0,0,1,5.86-4.69h78.9a6,6,0,0,1,6,6v59.85a12,12,0,0,0,12,12H540a12,12,0,0,0,12-12v-45a6,6,0,0,1,6-6h36a6,6,0,0,1,6,6v45a12,12,0,0,0,12,12h13.5a12,12,0,0,0,12-12V294.34a12,12,0,0,0-12-12H429.6a6,6,0,0,1-5.86-4.68A99.59,99.59,0,0,0,230.08,275l-11.63-3a111.6,111.6,0,0,1,215.84-1.75H625.5a24,24,0,0,1,24,24v88.29a24,24,0,0,1-24,24H612a24,24,0,0,1-24-24v-39H564v39a24,24,0,0,1-24,24H526.5a24,24,0,0,1-24-24V328.78H434.29A111.61,111.61,0,0,1,326.6,411.13Z"/><path class="cls-2" d="M326.6,364.69A65.27,65.27,0,0,1,273.33,337l9.82-6.91a53.1,53.1,0,1,0-4.25-53.85l-10.77-5.29a65.12,65.12,0,1,1,58.47,93.77Z"/><path class="cls-2" d="M1094.46,676.59l-94.11-94.11a139.42,139.42,0,0,0-99.24-41.11H828.49a5,5,0,0,1,0-10h72.62a149.34,149.34,0,0,1,106.31,44l94.12,94.11Z"/><path class="cls-2" d="M961.08,820a5,5,0,0,1-3.54-1.46L941,802a77.83,77.83,0,0,1-77.53-19.74L833.4,752.17a5,5,0,1,1,7.07-7.07l30.06,30.06a67.91,67.91,0,0,0,70.23,16.39,5,5,0,0,1,5.14,1.2l18.72,18.71a5,5,0,0,1-3.54,8.54Z"/><path class="cls-2" d="M989.75,751.06l-.37,0a78.28,78.28,0,0,1-71.8-67.85l-89.87-4.71a38.55,38.55,0,0,1-28-63.55c.76-.89,1.57-1.76,2.41-2.58a5,5,0,0,1,3.49-1.42H956.21a5,5,0,0,1,0,10H807.79l-.43.5a28.67,28.67,0,0,0,0,37,28.31,28.31,0,0,0,20.79,10l94.25,4.94a5,5,0,0,1,4.72,4.62,68.28,68.28,0,0,0,63,63,5,5,0,0,1-.37,10Z"/><path class="cls-2" d="M825.4,753.5a111.62,111.62,0,0,1-107.69-82.34H649.5V725a24,24,0,0,1-24,24H612a24,24,0,0,1-24-24V686H564v39a24,24,0,0,1-24,24H526.5a24,24,0,0,1-24-24V636.72a24,24,0,0,1,24-24H717.71a111.59,111.59,0,0,1,215.84,1.74l-11.63,2.95A99.59,99.59,0,0,0,728.26,620a6,6,0,0,1-5.86,4.69H526.5a12,12,0,0,0-12,12V725a12,12,0,0,0,12,12H540a12,12,0,0,0,12-12V680a6,6,0,0,1,6-6h36a6,6,0,0,1,6,6v45a12,12,0,0,0,12,12h13.5a12,12,0,0,0,12-12V665.16a6,6,0,0,1,6-6h78.9a6,6,0,0,1,5.86,4.68,99.6,99.6,0,0,0,188.85,16.93l11,4.69A111.42,111.42,0,0,1,825.4,753.5Z"/><path class="cls-2" d="M825.4,707.06a65.12,65.12,0,1,1,58.47-93.77l-10.77,5.29a53.16,53.16,0,1,0-4.25,53.85l9.82,6.91A65.27,65.27,0,0,1,825.4,707.06Z"/></svg>