<svg width="58" height="58" viewBox="0 0 58 58" fill="none" xmlns="http://www.w3.org/2000/svg">
<path d="M0 0H18V3H0V0Z" fill="#F1F1F1"/>
<path d="M3 20L3 40C3 48.2843 9.71573 55 18 55H20C28.2843 55 35 48.2843 35 40H38C38 49.9411 29.9411 58 20 58H18C8.05887 58 0 49.9411 0 40V20H3Z" fill="#F1F1F1"/>
<path d="M18 5H0V8H18V5Z" fill="#F1F1F1"/>
<path d="M0 10H18V13H0V10Z" fill="#F1F1F1"/>
<path d="M18 15H0V18H18V15Z" fill="#F1F1F1"/>
<path d="M38 0H58V3H38C29.7157 3 23 9.71573 23 18H20C20 8.05887 28.0589 0 38 0Z" fill="#F1F1F1"/>
<path d="M58 5H38C30.8203 5 25 10.8203 25 18H28C28 12.4772 32.4772 8 38 8H58V5Z" fill="#F1F1F1"/>
<path d="M38 10H58V13H38C35.2386 13 33 15.2386 33 18H30C30 13.5817 33.5817 10 38 10Z" fill="#F1F1F1"/>
<path d="M38 15C36.3431 15 35 16.3431 35 18H58V15H38Z" fill="#F1F1F1"/>
<path d="M20 20H58V23H20V20Z" fill="#F1F1F1"/>
<path d="M58 25H20V28H58V25Z" fill="#F1F1F1"/>
<path d="M20 30H58V33H20V30Z" fill="#F1F1F1"/>
<path d="M58 35H20V38H58V35Z" fill="#F1F1F1"/>
<path d="M18 20V40H23C23 41.6569 21.6569 43 20 43H18C16.3431 43 15 41.6569 15 40L15 20H18Z" fill="#F1F1F1"/>
<path d="M13 40L13 20H10L10 40C10 44.4183 13.5817 48 18 48H20C24.4183 48 28 44.4183 28 40H25C25 42.7614 22.7614 45 20 45H18C15.2386 45 13 42.7614 13 40Z" fill="#F1F1F1"/>
<path d="M8 20L8 40C8 45.5228 12.4771 50 18 50H20C25.5228 50 30 45.5229 30 40H33C33 47.1797 27.1797 53 20 53H18C10.8203 53 5 47.1797 5 40L5 20H8Z" fill="#F1F1F1"/>
</svg>
