
<svg width="30px" height="40px" viewBox="0 0 30 40" version="1.1" xmlns="http://www.w3.org/2000/svg" xmlns:xlink="http://www.w3.org/1999/xlink">
    <defs>
        <polygon id="path-1" points="0.0113576874 9.42695103e-06 29.4829708 9.42695103e-06 29.4829708 39.9977778 0.0113576874 39.9977778"></polygon>
    </defs>
    <g id="Symbols" stroke="none" stroke-width="1" fill="none" fill-rule="evenodd">
        <g id="FooterB" transform="translate(-851.000000, -98.000000)">
            <rect fill="#242249" x="0" y="0" width="1024" height="264"></rect>
            <g id="Logo/IF-white" transform="translate(851.000000, 98.000000)">
                <g id="if-logo">
                    <g id="Group-3" transform="translate(0.500000, 0.000000)">
                        <mask id="mask-2" fill="white">
                            <use xlink:href="#path-1"></use>
                        </mask>
                        <g id="Clip-2"></g>
                        <path d="M29.3683558,7.31277778 C29.0152929,5.0627037 27.797209,3.04811111 25.9436569,1.63525926 C23.5693005,-0.170037037 19.835695,-0.527592593 17.0818119,0.798037037 C13.9749034,2.28937037 11.9359549,4.87955556 10.8503024,8.73433333 C9.94120013,11.9612222 9.80876874,15.7985556 9.79111372,19.4701852 C9.78230496,21.790037 9.88823507,24.3191852 10.0470928,26.796037 C9.31450318,27.4327037 8.58187611,28.0693333 7.85813278,28.706 C7.29324714,29.2031111 6.72832402,29.6914815 6.17224714,30.1798889 C5.8721493,30.4415185 5.59855273,30.6595556 5.36903748,30.8427037 L4.86592567,20.0196296 L0.0113576874,20.228963 L0.602707116,32.9445185 C0.620399619,34.0434074 1.16763024,35.5172963 2.64165565,36.1800741 C3.1182662,36.3981111 3.61256925,36.4940741 4.09802605,36.4940741 C5.97807942,36.4940741 7.85813278,35.0986667 9.376277,33.773037 C9.75580368,33.4416296 10.1353679,33.1102222 10.5237408,32.7788148 C10.9032675,36.7731481 11.2916404,39.7559259 11.3181042,40 L16.1285909,39.3807407 C16.1197446,39.3022222 15.4930476,34.4532593 15.0517471,28.8106667 C17.1965883,26.9007037 19.3149282,24.9645926 21.2744479,22.9761481 L17.814439,19.6184444 C16.8170616,20.6214074 15.775528,21.6243704 14.6986842,22.6185556 C14.6633742,21.5371111 14.6457192,20.4818519 14.6457192,19.4789259 C14.672183,11.7518889 15.4224651,6.92033333 19.1913806,5.11503704 C20.3123431,4.58303704 22.04231,4.7312963 22.9779511,5.43774074 C25.1757573,7.11218519 25.1757573,9.95533333 22.9867598,13.4438148 C22.6866995,13.9234815 22.3336366,14.4292963 21.9452262,14.9351481 L25.8200718,17.8218889 C26.2967198,17.2026667 26.7292116,16.5747407 27.1087382,15.9642593 C29.0417567,12.9118148 29.7920013,9.99892593 29.3683558,7.31277778" id="Fill-1" fill="#FFFFFF" mask="url(#mask-2)"></path>
                    </g>
                    <path d="M2.74998047,12.345679 C4.26878555,12.345679 5.5,13.5616933 5.5,15.0617091 C5.5,16.5617635 4.26878555,17.7777778 2.74998047,17.7777778 C1.23121445,17.7777778 0,16.5617635 0,15.0617091 C0,13.5616933 1.23121445,12.345679 2.74998047,12.345679" id="Fill-4" fill="#FFFFFF"></path>
                </g>
            </g>
        </g>
    </g>
</svg>
