<svg id="OUTLINES" xmlns="http://www.w3.org/2000/svg" viewBox="0 0 1152 1008"><defs><style>.cls-1{fill:#fff;}.cls-2{fill:#000f7d;}</style></defs><title>implied-consent</title><rect class="cls-1" x="147" y="291.36" width="876" height="156" rx="24"/><path class="cls-2" d="M383.4,337.09a6.23,6.23,0,0,1,3.24,2.41,6.81,6.81,0,0,1,1.26,4,7.1,7.1,0,0,1-2.45,5.8,10.43,10.43,0,0,1-6.82,2H367.16V323.73h10.57a10.81,10.81,0,0,1,6.86,1.93,6.67,6.67,0,0,1,2.45,5.58,6.57,6.57,0,0,1-1,3.72A5.31,5.31,0,0,1,383.4,337.09Zm-10.71-2h4.68q4.19,0,4.18-3.29t-4.18-3.19h-4.68Zm0,4.5v6.93h5.44a4.63,4.63,0,0,0,3.07-.92,3.56,3.56,0,0,0,0-5.09,4.6,4.6,0,0,0-3.09-.92Z"/><path class="cls-2" d="M400.05,358.78h-5.49l2.93-7.33-7.7-20.21h5.9l4.63,13.37,4.59-13.37h5.63Z"/><path class="cls-2" d="M440.91,331.24v20.12h-5.58v-1.85a6.93,6.93,0,0,1-5.4,2.3,6.73,6.73,0,0,1-5.2-2,7.68,7.68,0,0,1-1.87-5.4V331.24h5.58v12a3.88,3.88,0,0,0,.81,2.61,3,3,0,0,0,2.43.94,3.7,3.7,0,0,0,2.3-.74,3.44,3.44,0,0,0,1.3-2.05V331.24Z"/><path class="cls-2" d="M444.42,345.37H450c.45,1.47,1.58,2.21,3.38,2.21s2.83-.66,2.83-2a1.28,1.28,0,0,0-.47-1.06,4.16,4.16,0,0,0-1.55-.65l-4.05-.9q-5.22-1.22-5.22-5.67a5.72,5.72,0,0,1,2.29-4.7,8.89,8.89,0,0,1,5.72-1.83,9.37,9.37,0,0,1,5.87,1.65,7.12,7.12,0,0,1,2.68,4.56h-5.31q-.63-2-3.15-2a3.46,3.46,0,0,0-1.87.5,1.56,1.56,0,0,0-.79,1.39c0,.75.6,1.28,1.8,1.58l4.14.94q5.36,1.31,5.36,5.85a5.65,5.65,0,0,1-2.32,4.77,9.53,9.53,0,0,1-5.92,1.76,10.32,10.32,0,0,1-6.12-1.69A6.73,6.73,0,0,1,444.42,345.37Z"/><path class="cls-2" d="M471.46,325.44a3,3,0,0,1-1,2.29,3.49,3.49,0,0,1-4.68,0,3.14,3.14,0,0,1,0-4.56,3.3,3.3,0,0,1,2.34-.93,3.24,3.24,0,0,1,2.32.93A3,3,0,0,1,471.46,325.44Zm-.49,5.8v20.12h-5.58V331.24Z"/><path class="cls-2" d="M475.83,351.36V331.24h5.58v1.85a7.63,7.63,0,0,1,10.64-.27,7.63,7.63,0,0,1,1.87,5.4v13.14h-5.58v-12a3.87,3.87,0,0,0-.83-2.59,3.1,3.1,0,0,0-2.46-1,3.76,3.76,0,0,0-2.31.75,3.4,3.4,0,0,0-1.33,2v12.74Z"/><path class="cls-2" d="M511.38,350v-1.17a6.05,6.05,0,0,1-4.95,2.07,8.25,8.25,0,0,1-6.66-2.93,11.49,11.49,0,0,1,0-14.26,8.28,8.28,0,0,1,6.66-2.93,6.2,6.2,0,0,1,4.95,2v-1.58h5.53v17.91c0,3.33-.9,5.85-2.7,7.54a10,10,0,0,1-7.15,2.54,10.32,10.32,0,0,1-6.41-1.89,7.53,7.53,0,0,1-2.95-5.26h5.4q.67,2.84,4,2.83Q511.38,354.91,511.38,350Zm0-5.9v-6.57a4.16,4.16,0,0,0-3.78-2.07,4.32,4.32,0,0,0-3.47,1.49,5.78,5.78,0,0,0-1.26,3.87,5.85,5.85,0,0,0,1.26,3.89,4.27,4.27,0,0,0,3.47,1.51,4.23,4.23,0,0,0,2.23-.61A4.4,4.4,0,0,0,511.38,344.11Z"/><path class="cls-2" d="M549.76,341.32a10.6,10.6,0,0,1-2.74,7.56,10.09,10.09,0,0,1-14.22,0,11.82,11.82,0,0,1,0-15.16,10.09,10.09,0,0,1,14.22,0A10.65,10.65,0,0,1,549.76,341.32Zm-5.53,0a7.06,7.06,0,0,0-1.15-4.2,4,4,0,0,0-6.35,0,8.25,8.25,0,0,0,0,8.37,4,4,0,0,0,6.35,0A7,7,0,0,0,544.23,341.32Z"/><path class="cls-2" d="M571.14,331.24v20.12h-5.58v-1.85a6.93,6.93,0,0,1-5.4,2.3,6.72,6.72,0,0,1-5.2-2,7.63,7.63,0,0,1-1.87-5.4V331.24h5.58v12a3.88,3.88,0,0,0,.81,2.61,3,3,0,0,0,2.43.94,3.7,3.7,0,0,0,2.3-.74,3.44,3.44,0,0,0,1.3-2.05V331.24Z"/><path class="cls-2" d="M588.15,331.15v5.58a5.34,5.34,0,0,0-2.79-.67,4.18,4.18,0,0,0-2.48.74,3.44,3.44,0,0,0-1.35,2.09v12.47H576V331.24h5.58v2a4.86,4.86,0,0,1,4.5-2.43A4.55,4.55,0,0,1,588.15,331.15Z"/><path class="cls-2" d="M600,345.37h5.54c.45,1.47,1.57,2.21,3.37,2.21s2.84-.66,2.84-2a1.29,1.29,0,0,0-.48-1.06,4.16,4.16,0,0,0-1.55-.65l-4.05-.9q-5.22-1.22-5.22-5.67a5.73,5.73,0,0,1,2.3-4.7,8.86,8.86,0,0,1,5.71-1.83,9.37,9.37,0,0,1,5.87,1.65A7.12,7.12,0,0,1,617,337h-5.31q-.63-2-3.15-2a3.46,3.46,0,0,0-1.87.5,1.56,1.56,0,0,0-.78,1.39c0,.75.6,1.28,1.8,1.58l4.14.94q5.35,1.31,5.35,5.85a5.65,5.65,0,0,1-2.32,4.77,9.5,9.5,0,0,1-5.91,1.76,10.32,10.32,0,0,1-6.12-1.69A6.74,6.74,0,0,1,600,345.37Z"/><path class="cls-2" d="M633.19,344.79h5.18a8,8,0,0,1-2.86,5.15,9.32,9.32,0,0,1-6,1.87,9.23,9.23,0,0,1-7.07-2.9,11.9,11.9,0,0,1,0-15.12,9,9,0,0,1,7-3,8.48,8.48,0,0,1,6.72,2.73,10.52,10.52,0,0,1,2.41,7.26v1.71H625.09A5.6,5.6,0,0,0,626.4,346a4,4,0,0,0,3.06,1.28Q632.52,347.31,633.19,344.79Zm-3.78-9.45q-3.42,0-4.18,3.78H633a4.09,4.09,0,0,0-1-2.72A3.31,3.31,0,0,0,629.41,335.34Z"/><path class="cls-2" d="M654.25,331.15v5.58a5.34,5.34,0,0,0-2.79-.67,4.15,4.15,0,0,0-2.47.74,3.44,3.44,0,0,0-1.35,2.09v12.47h-5.58V331.24h5.58v2a4.86,4.86,0,0,1,4.5-2.43A4.51,4.51,0,0,1,654.25,331.15Z"/><path class="cls-2" d="M669,351.36h-5.4L656,331.24h5.85l4.63,13.37L671,331.24h5.62Z"/><path class="cls-2" d="M685.75,325.44a3,3,0,0,1-1,2.29,3.26,3.26,0,0,1-2.32.9,3.36,3.36,0,0,1-2.36-.9,3,3,0,0,1-1-2.29,3,3,0,0,1,1-2.27,3.32,3.32,0,0,1,2.34-.93,3.21,3.21,0,0,1,2.32.93A3,3,0,0,1,685.75,325.44Zm-.5,5.8v20.12h-5.58V331.24Z"/><path class="cls-2" d="M688.85,341.32a10.76,10.76,0,0,1,2.7-7.6,10,10,0,0,1,13-1,8.08,8.08,0,0,1,2.79,5.27h-5.49a2.85,2.85,0,0,0-1.1-1.82,3.62,3.62,0,0,0-2.23-.66,3.54,3.54,0,0,0-3,1.58,8.29,8.29,0,0,0,0,8.32,3.54,3.54,0,0,0,3,1.58,3.68,3.68,0,0,0,2.23-.65,2.9,2.9,0,0,0,1.1-1.83h5.49a8.1,8.1,0,0,1-2.77,5.27,9,9,0,0,1-6.05,2,9.08,9.08,0,0,1-7-2.93A10.71,10.71,0,0,1,688.85,341.32Z"/><path class="cls-2" d="M723.05,344.79h5.18a8,8,0,0,1-2.86,5.15,10.35,10.35,0,0,1-13.12-1,11.88,11.88,0,0,1,0-15.12,9,9,0,0,1,7-3,8.51,8.51,0,0,1,6.73,2.73,10.57,10.57,0,0,1,2.41,7.26v1.71H715a5.54,5.54,0,0,0,1.3,3.54,4,4,0,0,0,3.06,1.28Q722.38,347.31,723.05,344.79Zm-3.78-9.45q-3.42,0-4.18,3.78h7.79a4.15,4.15,0,0,0-1-2.72A3.31,3.31,0,0,0,719.27,335.34Z"/><path class="cls-2" d="M375.34,403.78h-5.48l2.92-7.33-7.7-20.21H371l4.64,13.37,4.59-13.37h5.62Z"/><path class="cls-2" d="M406.67,386.32a10.59,10.59,0,0,1-2.75,7.56,10.09,10.09,0,0,1-14.22,0,11.85,11.85,0,0,1,0-15.16,10.09,10.09,0,0,1,14.22,0A10.67,10.67,0,0,1,406.67,386.32Zm-5.54,0a7,7,0,0,0-1.15-4.2,3.94,3.94,0,0,0-6.34,0,8.19,8.19,0,0,0,0,8.37,4,4,0,0,0,6.34,0A7,7,0,0,0,401.13,386.32Z"/><path class="cls-2" d="M428,376.24v20.12h-5.58v-1.85a6.93,6.93,0,0,1-5.4,2.3,6.73,6.73,0,0,1-5.2-2,7.67,7.67,0,0,1-1.86-5.4V376.24h5.58v12a3.88,3.88,0,0,0,.8,2.61,3,3,0,0,0,2.44.94,3.69,3.69,0,0,0,2.29-.74,3.49,3.49,0,0,0,1.31-2.05V376.24Z"/><path class="cls-2" d="M458.91,396.36h-5.36v-1.08a4.85,4.85,0,0,1-1.93,1,9.62,9.62,0,0,1-3,.45,8.11,8.11,0,0,1-5.33-1.76,5.82,5.82,0,0,1-2.14-4.77,5.67,5.67,0,0,1,2.23-4.63,8.53,8.53,0,0,1,5.55-1.8,10.25,10.25,0,0,1,2.62.36,6.37,6.37,0,0,1,2,.81v-1.49a3.06,3.06,0,0,0-.83-2.22,3.19,3.19,0,0,0-2.45-.88,2.86,2.86,0,0,0-3,1.89H442a7.12,7.12,0,0,1,2.77-4.61,10.13,10.13,0,0,1,11.92.22,7.33,7.33,0,0,1,2.23,5.69Zm-5.36-5.49v-1.44a2.58,2.58,0,0,0-1.37-1.28,5.21,5.21,0,0,0-2.27-.48,4.81,4.81,0,0,0-2.5.63,2.15,2.15,0,0,0,0,3.69,4.67,4.67,0,0,0,2.52.63,5.21,5.21,0,0,0,2.27-.47A2.58,2.58,0,0,0,453.55,390.87Z"/><path class="cls-2" d="M476.28,395v-1.17a6.05,6.05,0,0,1-4.95,2.07,8.28,8.28,0,0,1-6.66-2.93,11.49,11.49,0,0,1,0-14.26,8.28,8.28,0,0,1,6.66-2.93,6.2,6.2,0,0,1,4.95,2v-1.58h5.53v17.91c0,3.33-.9,5.85-2.7,7.54a10,10,0,0,1-7.15,2.54,10.32,10.32,0,0,1-6.41-1.89,7.53,7.53,0,0,1-2.95-5.26H468q.67,2.84,4,2.83Q476.28,399.91,476.28,395Zm0-5.9v-6.57a4.16,4.16,0,0,0-3.78-2.07A4.32,4.32,0,0,0,469,382a5.78,5.78,0,0,0-1.26,3.87,5.85,5.85,0,0,0,1.26,3.89,4.27,4.27,0,0,0,3.47,1.51,4.23,4.23,0,0,0,2.23-.61A4.4,4.4,0,0,0,476.28,389.11Z"/><path class="cls-2" d="M498.87,376.15v5.58a5.34,5.34,0,0,0-2.79-.67,4.18,4.18,0,0,0-2.48.74,3.44,3.44,0,0,0-1.35,2.09v12.47h-5.58V376.24h5.58v2a4.86,4.86,0,0,1,4.5-2.43A4.69,4.69,0,0,1,498.87,376.15Z"/><path class="cls-2" d="M514.21,389.79h5.18a8,8,0,0,1-2.86,5.15,10.35,10.35,0,0,1-13.12-1,11.88,11.88,0,0,1,0-15.12,9,9,0,0,1,6.95-3,8.51,8.51,0,0,1,6.73,2.73,10.56,10.56,0,0,1,2.4,7.26v1.71H506.11a5.58,5.58,0,0,0,1.31,3.54,4,4,0,0,0,3.06,1.28Q513.54,392.31,514.21,389.79Zm-3.78-9.45q-3.42,0-4.18,3.78H514a4.09,4.09,0,0,0-1-2.72A3.31,3.31,0,0,0,510.43,380.34Z"/><path class="cls-2" d="M535.5,389.79h5.17a8,8,0,0,1-2.85,5.15,9.35,9.35,0,0,1-6.06,1.87,9.21,9.21,0,0,1-7.06-2.9,11.9,11.9,0,0,1,0-15.12,9,9,0,0,1,6.95-3,8.51,8.51,0,0,1,6.73,2.73,10.57,10.57,0,0,1,2.41,7.26v1.71H527.4a5.57,5.57,0,0,0,1.3,3.54,4,4,0,0,0,3.06,1.28Q534.82,392.31,535.5,389.79Zm-3.78-9.45q-3.42,0-4.19,3.78h7.79a4.09,4.09,0,0,0-1-2.72A3.31,3.31,0,0,0,531.72,380.34Z"/><path class="cls-2" d="M555.12,390.28v-9.54h-3.06v-4.5h3.06V370.8h5.53v5.44h4.41v4.5h-4.41v8.82a2,2,0,0,0,2.3,2.3,4.35,4.35,0,0,0,2.43-.68v4.95a7.89,7.89,0,0,1-3.6.63,7,7,0,0,1-4.91-1.62A6.29,6.29,0,0,1,555.12,390.28Z"/><path class="cls-2" d="M587.7,386.32a10.59,10.59,0,0,1-2.75,7.56,10.09,10.09,0,0,1-14.22,0,11.85,11.85,0,0,1,0-15.16,10.09,10.09,0,0,1,14.22,0A10.67,10.67,0,0,1,587.7,386.32Zm-5.54,0a7,7,0,0,0-1.15-4.2,3.94,3.94,0,0,0-6.34,0,8.19,8.19,0,0,0,0,8.37,4,4,0,0,0,6.34,0A7,7,0,0,0,582.16,386.32Z"/><path class="cls-2" d="M619.24,386.32a10.58,10.58,0,0,1-2.74,7.56,10.09,10.09,0,0,1-14.22,0,11.82,11.82,0,0,1,0-15.16,10.09,10.09,0,0,1,14.22,0A10.67,10.67,0,0,1,619.24,386.32Zm-5.53,0a7,7,0,0,0-1.15-4.2,4,4,0,0,0-6.35,0,8.25,8.25,0,0,0,0,8.37,4,4,0,0,0,6.35,0A7,7,0,0,0,613.71,386.32Z"/><path class="cls-2" d="M640.62,376.24v20.12H635v-1.85a6.93,6.93,0,0,1-5.4,2.3,6.72,6.72,0,0,1-5.2-2,7.63,7.63,0,0,1-1.87-5.4V376.24h5.58v12a3.88,3.88,0,0,0,.81,2.61,3,3,0,0,0,2.43.94,3.7,3.7,0,0,0,2.3-.74A3.47,3.47,0,0,0,635,389V376.24Z"/><path class="cls-2" d="M657.63,376.15v5.58a5.34,5.34,0,0,0-2.79-.67,4.18,4.18,0,0,0-2.48.74,3.44,3.44,0,0,0-1.35,2.09v12.47h-5.58V376.24H651v2a4.86,4.86,0,0,1,4.5-2.43A4.69,4.69,0,0,1,657.63,376.15Z"/><path class="cls-2" d="M688.59,376.24v20.12H683v-1.85a6.93,6.93,0,0,1-5.4,2.3,6.72,6.72,0,0,1-5.2-2,7.63,7.63,0,0,1-1.87-5.4V376.24h5.58v12a3.88,3.88,0,0,0,.81,2.61,3,3,0,0,0,2.43.94,3.7,3.7,0,0,0,2.3-.74A3.47,3.47,0,0,0,683,389V376.24Z"/><path class="cls-2" d="M692.1,390.37h5.53c.45,1.47,1.58,2.21,3.38,2.21s2.83-.66,2.83-2a1.31,1.31,0,0,0-.47-1.06,4.24,4.24,0,0,0-1.55-.65l-4.05-.9q-5.22-1.22-5.22-5.67a5.72,5.72,0,0,1,2.29-4.7,8.89,8.89,0,0,1,5.72-1.83,9.39,9.39,0,0,1,5.87,1.65,7.16,7.16,0,0,1,2.68,4.56H703.8q-.63-2-3.15-2a3.44,3.44,0,0,0-1.87.5,1.55,1.55,0,0,0-.79,1.39c0,.76.6,1.28,1.8,1.58l4.14.94q5.36,1.31,5.36,5.85a5.68,5.68,0,0,1-2.32,4.77,9.55,9.55,0,0,1-5.92,1.76,10.32,10.32,0,0,1-6.12-1.69A6.73,6.73,0,0,1,692.1,390.37Z"/><path class="cls-2" d="M725.31,389.79h5.17a8,8,0,0,1-2.86,5.15,9.31,9.31,0,0,1-6,1.87,9.21,9.21,0,0,1-7.06-2.9,11.9,11.9,0,0,1,0-15.12,9,9,0,0,1,7-3,8.51,8.51,0,0,1,6.73,2.73,10.57,10.57,0,0,1,2.41,7.26v1.71H717.21a5.57,5.57,0,0,0,1.3,3.54,4,4,0,0,0,3.06,1.28Q724.63,392.31,725.31,389.79Zm-3.78-9.45q-3.42,0-4.19,3.78h7.79a4.09,4.09,0,0,0-1-2.72A3.31,3.31,0,0,0,721.53,380.34Z"/><path class="cls-2" d="M762.16,386.32a10.59,10.59,0,0,1-2.75,7.56,10.09,10.09,0,0,1-14.22,0,11.85,11.85,0,0,1,0-15.16,10.09,10.09,0,0,1,14.22,0A10.67,10.67,0,0,1,762.16,386.32Zm-5.54,0a7.06,7.06,0,0,0-1.14-4.2,4,4,0,0,0-6.35,0,8.19,8.19,0,0,0,0,8.37,4,4,0,0,0,6.35,0A7,7,0,0,0,756.62,386.32Z"/><path class="cls-2" d="M777.5,367.24V372a3.36,3.36,0,0,0-2-.54c-1.83,0-2.74.93-2.74,2.79v2H777v4.5h-4.18v15.62h-5.49V380.74H764v-4.5h3.29v-2.38a6.6,6.6,0,0,1,7.11-7.16A7.66,7.66,0,0,1,777.5,367.24Z"/><path class="cls-2" d="M788.66,386.32a10.77,10.77,0,0,1,2.7-7.6,10,10,0,0,1,13-1,8.08,8.08,0,0,1,2.79,5.27h-5.49a2.85,2.85,0,0,0-1.1-1.82,3.62,3.62,0,0,0-2.23-.66,3.54,3.54,0,0,0-3,1.58,7,7,0,0,0-1.12,4.18,7,7,0,0,0,1.12,4.14,3.54,3.54,0,0,0,3,1.58,3.68,3.68,0,0,0,2.23-.65,2.9,2.9,0,0,0,1.1-1.83h5.49a8.1,8.1,0,0,1-2.77,5.27,10,10,0,0,1-13-.95A10.69,10.69,0,0,1,788.66,386.32Z"/><path class="cls-2" d="M829.07,386.32a10.58,10.58,0,0,1-2.74,7.56,10.09,10.09,0,0,1-14.22,0,11.82,11.82,0,0,1,0-15.16,10.09,10.09,0,0,1,14.22,0A10.67,10.67,0,0,1,829.07,386.32Zm-5.53,0a7,7,0,0,0-1.15-4.2,3.94,3.94,0,0,0-6.34,0,8.19,8.19,0,0,0,0,8.37,4,4,0,0,0,6.34,0A7,7,0,0,0,823.54,386.32Z"/><path class="cls-2" d="M851.26,386.32a10.59,10.59,0,0,1-2.75,7.56,10.09,10.09,0,0,1-14.22,0,11.85,11.85,0,0,1,0-15.16,10.09,10.09,0,0,1,14.22,0A10.67,10.67,0,0,1,851.26,386.32Zm-5.54,0a7.06,7.06,0,0,0-1.14-4.2,4,4,0,0,0-6.35,0,8.19,8.19,0,0,0,0,8.37,4,4,0,0,0,6.35,0A7,7,0,0,0,845.72,386.32Z"/><path class="cls-2" d="M867.91,396.36l-5.9-8.1L860.39,390v6.35h-5.58V367.11h5.58v16.6l6.89-7.47h6.93l-8.15,8.55,8.46,11.57Z"/><path class="cls-2" d="M883.34,370.44a3,3,0,0,1-1,2.29,3.49,3.49,0,0,1-4.68,0,3.14,3.14,0,0,1,0-4.56,3.3,3.3,0,0,1,2.34-.93,3.24,3.24,0,0,1,2.32.93A3,3,0,0,1,883.34,370.44Zm-.49,5.8v20.12h-5.58V376.24Z"/><path class="cls-2" d="M900,389.79h5.17a8,8,0,0,1-2.86,5.15,9.31,9.31,0,0,1-6,1.87,9.21,9.21,0,0,1-7.06-2.9,11.9,11.9,0,0,1,0-15.12,9,9,0,0,1,7-3,8.51,8.51,0,0,1,6.73,2.73,10.57,10.57,0,0,1,2.41,7.26v1.71H891.85a5.57,5.57,0,0,0,1.3,3.54,4,4,0,0,0,3.06,1.28Q899.27,392.31,900,389.79Zm-3.78-9.45q-3.42,0-4.19,3.78h7.79a4.09,4.09,0,0,0-1-2.72A3.31,3.31,0,0,0,896.17,380.34Z"/><path class="cls-2" d="M907.55,390.37h5.54c.45,1.47,1.57,2.21,3.37,2.21s2.84-.66,2.84-2a1.29,1.29,0,0,0-.48-1.06,4.16,4.16,0,0,0-1.55-.65l-4-.9q-5.22-1.22-5.22-5.67a5.73,5.73,0,0,1,2.3-4.7,8.86,8.86,0,0,1,5.71-1.83,9.37,9.37,0,0,1,5.87,1.65,7.12,7.12,0,0,1,2.68,4.56h-5.31q-.63-2-3.15-2a3.46,3.46,0,0,0-1.87.5,1.56,1.56,0,0,0-.78,1.39c0,.76.6,1.28,1.8,1.58l4.14.94q5.36,1.31,5.35,5.85a5.65,5.65,0,0,1-2.32,4.77,9.5,9.5,0,0,1-5.91,1.76,10.32,10.32,0,0,1-6.12-1.69A6.74,6.74,0,0,1,907.55,390.37Z"/><path class="cls-2" d="M261,410.17a50,50,0,0,1-6.38-99.58,5,5,0,0,1,4.88,2.32,13.42,13.42,0,0,0,1.85,2.36,13,13,0,0,0,12.8,3.29,5,5,0,0,1,6.18,6.19,13,13,0,0,0,3.3,12.79,12.88,12.88,0,0,0,11.24,3.63,5,5,0,0,1,5.31,7.08A13,13,0,0,0,302.72,363h0a12.82,12.82,0,0,0,4.08,2.75,5,5,0,0,1,2.9,5.72,50,50,0,0,1-48.7,38.7ZM253,321A40,40,0,1,0,299,372.81a23.3,23.3,0,0,1-3.3-2.74h0a23,23,0,0,1-6.55-19,23,23,0,0,1-19.26-22,23,23,0,0,1-15.56-6.72C253.85,321.91,253.43,321.45,253,321Z"/><path class="cls-2" d="M276.75,380.3a6.25,6.25,0,1,1,6.25-6.25A6.26,6.26,0,0,1,276.75,380.3Zm0-8a1.75,1.75,0,1,0,1.75,1.75A1.75,1.75,0,0,0,276.75,372.3Z"/><path class="cls-2" d="M240.75,360.05A6.25,6.25,0,1,1,247,353.8,6.26,6.26,0,0,1,240.75,360.05Zm0-8a1.75,1.75,0,1,0,1.75,1.75A1.75,1.75,0,0,0,240.75,352.05Z"/><rect class="cls-2" x="261" y="347.05" width="4.5" height="9" rx="2.25"/><path class="cls-2" d="M263.25,360.05A6.26,6.26,0,0,1,257,353.8v-4.5a6.25,6.25,0,1,1,12.5,0v4.5A6.26,6.26,0,0,1,263.25,360.05Z"/><rect class="cls-2" x="247.5" y="374.05" width="4.5" height="9" rx="2.25" transform="translate(-128.8 628.3) rotate(-90)"/><path class="cls-2" d="M252,384.8h-4.5a6.25,6.25,0,1,1,0-12.5H252a6.25,6.25,0,0,1,0,12.5Zm0-4.5h0Z"/><path class="cls-2" d="M603,463.36H306a23,23,0,0,0-23,23v139.5a23,23,0,0,0,23,23H603a23,23,0,0,0,23-23V486.36A23,23,0,0,0,603,463.36Zm13,162.5a13,13,0,0,1-13,13H306a13,13,0,0,1-13-13V486.36a13,13,0,0,1,13-13H603a13,13,0,0,1,13,13Z"/><path class="cls-2" d="M846,463.36H666a23,23,0,0,0-23,23v139.5a23,23,0,0,0,23,23H846a23,23,0,0,0,23-23V486.36A23,23,0,0,0,846,463.36Zm13,162.5a13,13,0,0,1-13,13H666a13,13,0,0,1-13-13V486.36a13,13,0,0,1,13-13H846a13,13,0,0,1,13,13Z"/><path class="cls-2" d="M941,438.36h49a24,24,0,0,0,24-24v-108a24,24,0,0,0-24-24H941V269.64a23,23,0,0,0-23-23H234a23,23,0,0,0-23,23v12.72H162a24,24,0,0,0-24,24v108a24,24,0,0,0,24,24h49v259.5a22.83,22.83,0,0,0,4,13H162a23,23,0,0,0-23,23v4.5a23,23,0,0,0,23,23H990a23,23,0,0,0,23-23v-4.5a23,23,0,0,0-23-23H937a22.83,22.83,0,0,0,4-13ZM221,269.64a13,13,0,0,1,13-13H918a13,13,0,0,1,13,13v12.72H221ZM150,414.36v-108a12,12,0,0,1,12-12H990a12,12,0,0,1,12,12v108a12,12,0,0,1-12,12H162A12,12,0,0,1,150,414.36Zm853,319.5v4.5a13,13,0,0,1-13,13H162a13,13,0,0,1-13-13v-4.5a13,13,0,0,1,13-13H990A13,13,0,0,1,1003,733.86Zm-769-23a13,13,0,0,1-13-13V438.36H931v259.5a13,13,0,0,1-13,13Z"/></svg>