<svg id="OUTLINES" xmlns="http://www.w3.org/2000/svg" viewBox="0 0 1152 1008"><defs><style>.cls-1{fill:#fff;}.cls-2{fill:#000f7d;}</style></defs><title>just-in-time-consent</title><rect class="cls-1" x="616.49" y="483.05" width="432" height="99" rx="18" ry="18"/><path class="cls-1" d="M1030.49,588.05h-396a24,24,0,0,1-24-24v-63a24,24,0,0,1,24-24h396a24,24,0,0,1,24,24v63A24,24,0,0,1,1030.49,588.05Zm-396-99a12,12,0,0,0-12,12v63a12,12,0,0,0,12,12h396a12,12,0,0,0,12-12v-63a12,12,0,0,0-12-12Z"/><path class="cls-2" d="M972,348.45H684a5,5,0,0,1-5-5v-108a23,23,0,0,1,23-23H954a23,23,0,0,1,23,23v108A5,5,0,0,1,972,348.45Zm-283-10H967v-103a13,13,0,0,0-13-13H702a13,13,0,0,0-13,13Z"/><path class="cls-2" d="M936.44,726.45H702a23,23,0,0,1-23-23V582h10V703.45a13,13,0,0,0,13,13H925.21l-54.08-60.06a38.59,38.59,0,0,1,28.26-64.88h.46a5,5,0,0,1,3.48,1.46L967,656.64V577.5h10v91.21a5,5,0,0,1-8.53,3.54l-70.69-70.7a28.59,28.59,0,0,0-19.28,48.07l61.67,68.48a5,5,0,0,1-3.72,8.35Z"/><rect class="cls-1" x="616.49" y="339.05" width="432" height="144" rx="18" ry="18"/><path class="cls-1" d="M1030.49,489.05h-396a24,24,0,0,1-24-24v-108a24,24,0,0,1,24-24h396a24,24,0,0,1,24,24v108A24,24,0,0,1,1030.49,489.05Zm-396-144a12,12,0,0,0-12,12v108a12,12,0,0,0,12,12h396a12,12,0,0,0,12-12v-108a12,12,0,0,0-12-12Z"/><path class="cls-2" d="M828,695a23,23,0,1,1,23-23A23,23,0,0,1,828,695Zm0-36a13,13,0,1,0,13,13A13,13,0,0,0,828,659Z"/><path class="cls-2" d="M1026,484.5H630a24,24,0,0,1-24-24v-108a24,24,0,0,1,24-24h396a24,24,0,0,1,24,24v108A24,24,0,0,1,1026,484.5Zm-396-144a12,12,0,0,0-12,12v108a12,12,0,0,0,12,12h396a12,12,0,0,0,12-12v-108a12,12,0,0,0-12-12Z"/><path class="cls-2" d="M810,583.5H630a24,24,0,0,1-24-24v-63a24,24,0,0,1,24-24H810a24,24,0,0,1,24,24v63A24,24,0,0,1,810,583.5Zm-180-99a12,12,0,0,0-12,12v63a12,12,0,0,0,12,12H810a12,12,0,0,0,12-12v-63a12,12,0,0,0-12-12Z"/><path class="cls-2" d="M1026,583.5H846a24,24,0,0,1-24-24v-63a24,24,0,0,1,24-24h180a24,24,0,0,1,24,24v63A24,24,0,0,1,1026,583.5Zm-180-99a12,12,0,0,0-12,12v63a12,12,0,0,0,12,12h180a12,12,0,0,0,12-12v-63a12,12,0,0,0-12-12Z"/><path class="cls-2" d="M720.55,513.87V541.5H716l-13-18.41V541.5h-5.54V513.87h5.4L715,531.33V513.87Z"/><path class="cls-2" d="M744.09,531.46a10.61,10.61,0,0,1-2.75,7.57,10.12,10.12,0,0,1-14.22,0,11.87,11.87,0,0,1,0-15.17,10.09,10.09,0,0,1,14.22,0A10.67,10.67,0,0,1,744.09,531.46Zm-5.54,0a7.08,7.08,0,0,0-1.14-4.2,4,4,0,0,0-6.35,0,8.19,8.19,0,0,0,0,8.37,4,4,0,0,0,6.35,0A7,7,0,0,0,738.55,531.46Z"/><path class="cls-2" d="M917.38,525.57l6.66-11.7h6.08l-10,17.14V541.5h-5.71V531l-10-17.14h6.26Z"/><path class="cls-2" d="M941.91,534.93h5.17a8,8,0,0,1-2.85,5.15,9.35,9.35,0,0,1-6.06,1.87,9.21,9.21,0,0,1-7.06-2.9,11.9,11.9,0,0,1,0-15.12,9,9,0,0,1,7-3,8.5,8.5,0,0,1,6.73,2.73,10.54,10.54,0,0,1,2.41,7.26v1.71H933.81a5.57,5.57,0,0,0,1.3,3.54,4,4,0,0,0,3.06,1.28Q941.23,537.45,941.91,534.93Zm-3.78-9.45q-3.42,0-4.19,3.78h7.79a4.09,4.09,0,0,0-1-2.72A3.31,3.31,0,0,0,938.13,525.48Z"/><path class="cls-2" d="M949.51,535.51h5.54c.45,1.48,1.57,2.21,3.37,2.21s2.84-.66,2.84-2a1.31,1.31,0,0,0-.47-1.06,4.3,4.3,0,0,0-1.56-.65l-4.05-.9q-5.22-1.21-5.22-5.67a5.73,5.73,0,0,1,2.3-4.7,8.86,8.86,0,0,1,5.71-1.83,9.42,9.42,0,0,1,5.88,1.65,7.17,7.17,0,0,1,2.67,4.56h-5.31c-.42-1.31-1.47-2-3.15-2a3.4,3.4,0,0,0-1.86.49,1.56,1.56,0,0,0-.79,1.39c0,.76.6,1.28,1.8,1.58l4.14,1q5.35,1.3,5.35,5.84a5.68,5.68,0,0,1-2.31,4.78,9.55,9.55,0,0,1-5.92,1.75,10.32,10.32,0,0,1-6.12-1.69A6.74,6.74,0,0,1,949.51,535.51Z"/><path class="cls-2" d="M722.45,369.87h5.71l10.58,27.63h-5.85l-2.48-6.66H720.06l-2.43,6.66h-5.76Zm2.79,6.93L721.86,386h6.75Z"/><path class="cls-2" d="M747.42,368.25V397.5h-5.58V368.25Z"/><path class="cls-2" d="M757.86,368.25V397.5h-5.58V368.25Z"/><path class="cls-2" d="M781.17,387.46a10.58,10.58,0,0,1-2.74,7.56,10.09,10.09,0,0,1-14.22,0,11.82,11.82,0,0,1,0-15.16,10.09,10.09,0,0,1,14.22,0A10.65,10.65,0,0,1,781.17,387.46Zm-5.53,0a7.08,7.08,0,0,0-1.15-4.2,4,4,0,0,0-6.35,0,8.25,8.25,0,0,0,0,8.37,4,4,0,0,0,6.35,0A7,7,0,0,0,775.64,387.46Z"/><path class="cls-2" d="M799.4,377.38l3.33,12.83,3.6-12.83h5.4l-6.12,20.12h-5.13l-3.29-12.33-3.28,12.33h-5.13l-6.12-20.12h5.58l3.6,12.83,3.28-12.83Z"/><path class="cls-2" d="M840.8,397.5h-5.36v-1.08a4.93,4.93,0,0,1-1.93,1,9.66,9.66,0,0,1-3,.45,8.16,8.16,0,0,1-5.34-1.76,5.85,5.85,0,0,1-2.13-4.77,5.69,5.69,0,0,1,2.22-4.63,8.57,8.57,0,0,1,5.56-1.8,10.12,10.12,0,0,1,2.61.36,6.34,6.34,0,0,1,2,.81v-1.49a3.1,3.1,0,0,0-.83-2.22,3.21,3.21,0,0,0-2.45-.88,2.86,2.86,0,0,0-3,1.89h-5.31a7.11,7.11,0,0,1,2.76-4.61,10.15,10.15,0,0,1,11.93.22,7.38,7.38,0,0,1,2.23,5.69ZM835.44,392v-1.44a2.62,2.62,0,0,0-1.37-1.28,5.28,5.28,0,0,0-2.27-.48,4.86,4.86,0,0,0-2.5.63,2,2,0,0,0-1.06,1.85,2,2,0,0,0,1,1.84,4.67,4.67,0,0,0,2.52.63,5.27,5.27,0,0,0,2.27-.47A2.62,2.62,0,0,0,835.44,392Z"/><path class="cls-2" d="M844.08,387.46a10.76,10.76,0,0,1,2.7-7.6,9.93,9.93,0,0,1,13-.94,8.1,8.1,0,0,1,2.79,5.26h-5.5a2.81,2.81,0,0,0-1.1-1.82,3.58,3.58,0,0,0-2.23-.65,3.52,3.52,0,0,0-3,1.57,7.06,7.06,0,0,0-1.12,4.18,7,7,0,0,0,1.12,4.14,3.51,3.51,0,0,0,3,1.58,3.64,3.64,0,0,0,2.23-.65,2.83,2.83,0,0,0,1.1-1.82h5.5a8.14,8.14,0,0,1-2.77,5.26,10,10,0,0,1-13-1A10.69,10.69,0,0,1,844.08,387.46Z"/><path class="cls-2" d="M864.78,387.46a10.76,10.76,0,0,1,2.7-7.6,9.92,9.92,0,0,1,13-.94,8.05,8.05,0,0,1,2.79,5.26h-5.49a2.81,2.81,0,0,0-1.1-1.82,3.6,3.6,0,0,0-2.23-.65,3.51,3.51,0,0,0-3,1.57,7.06,7.06,0,0,0-1.13,4.18,7,7,0,0,0,1.13,4.14,3.5,3.5,0,0,0,3,1.58,3.66,3.66,0,0,0,2.23-.65,2.83,2.83,0,0,0,1.1-1.82h5.49a8.13,8.13,0,0,1-2.76,5.26,10,10,0,0,1-13-1A10.69,10.69,0,0,1,864.78,387.46Z"/><path class="cls-2" d="M899,390.93h5.17a8,8,0,0,1-2.85,5.15,9.35,9.35,0,0,1-6.06,1.87,9.21,9.21,0,0,1-7.06-2.9,11.9,11.9,0,0,1,0-15.12,9,9,0,0,1,6.95-3,8.5,8.5,0,0,1,6.73,2.73,10.52,10.52,0,0,1,2.41,7.26v1.71H890.88a5.6,5.6,0,0,0,1.3,3.54,4,4,0,0,0,3.06,1.28Q898.3,393.45,899,390.93Zm-3.78-9.45q-3.42,0-4.19,3.78h7.79a4.09,4.09,0,0,0-1-2.72A3.31,3.31,0,0,0,895.2,381.48Z"/><path class="cls-2" d="M906.58,391.51h5.54c.45,1.48,1.57,2.21,3.37,2.21s2.84-.66,2.84-2a1.31,1.31,0,0,0-.47-1.06,4.3,4.3,0,0,0-1.56-.65l-4-.9q-5.22-1.22-5.22-5.67a5.73,5.73,0,0,1,2.3-4.7,8.86,8.86,0,0,1,5.71-1.83,9.42,9.42,0,0,1,5.88,1.65,7.17,7.17,0,0,1,2.67,4.56h-5.31c-.42-1.31-1.47-2-3.15-2a3.4,3.4,0,0,0-1.86.49,1.56,1.56,0,0,0-.79,1.39c0,.75.6,1.28,1.8,1.58l4.14.95c3.57.87,5.35,2.81,5.35,5.84a5.67,5.67,0,0,1-2.31,4.77,9.49,9.49,0,0,1-5.92,1.76,10.32,10.32,0,0,1-6.12-1.69A6.74,6.74,0,0,1,906.58,391.51Z"/><path class="cls-2" d="M926.25,391.51h5.53c.45,1.48,1.58,2.21,3.38,2.21s2.83-.66,2.83-2a1.28,1.28,0,0,0-.47-1.06A4.16,4.16,0,0,0,936,390l-4.05-.9q-5.22-1.22-5.22-5.67a5.72,5.72,0,0,1,2.29-4.7,8.89,8.89,0,0,1,5.72-1.83,9.37,9.37,0,0,1,5.87,1.65,7.18,7.18,0,0,1,2.68,4.56H938c-.42-1.31-1.47-2-3.15-2a3.45,3.45,0,0,0-1.87.49,1.58,1.58,0,0,0-.79,1.39c0,.75.6,1.28,1.8,1.58l4.14.95c3.57.87,5.36,2.81,5.36,5.84a5.65,5.65,0,0,1-2.32,4.77A9.47,9.47,0,0,1,935.2,398a10.32,10.32,0,0,1-6.12-1.69A6.73,6.73,0,0,1,926.25,391.51Z"/><path class="cls-2" d="M680.48,436.42v-9.54h-3.06v-4.5h3.06v-5.44H686v5.44h4.41v4.5H686v8.83a2,2,0,0,0,2.29,2.29,4.35,4.35,0,0,0,2.43-.67v4.95a8,8,0,0,1-3.6.63,7,7,0,0,1-4.9-1.62A6.32,6.32,0,0,1,680.48,436.42Z"/><path class="cls-2" d="M713.06,432.46a10.61,10.61,0,0,1-2.74,7.57,10.12,10.12,0,0,1-14.22,0,11.84,11.84,0,0,1,0-15.17,10.09,10.09,0,0,1,14.22,0A10.67,10.67,0,0,1,713.06,432.46Zm-5.53,0a7,7,0,0,0-1.15-4.2,3.94,3.94,0,0,0-6.34,0,8.19,8.19,0,0,0,0,8.37,4,4,0,0,0,6.34,0A7,7,0,0,0,707.53,432.46Z"/><path class="cls-2" d="M734.57,449.92h-5.49l2.93-7.33-7.7-20.21h5.9l4.63,13.37,4.59-13.37h5.63Z"/><path class="cls-2" d="M765.89,432.46a10.61,10.61,0,0,1-2.74,7.57,10.12,10.12,0,0,1-14.22,0,11.84,11.84,0,0,1,0-15.17,10.09,10.09,0,0,1,14.22,0A10.67,10.67,0,0,1,765.89,432.46Zm-5.53,0a7,7,0,0,0-1.15-4.2,3.94,3.94,0,0,0-6.34,0,8.19,8.19,0,0,0,0,8.37,4,4,0,0,0,6.34,0A7,7,0,0,0,760.36,432.46Z"/><path class="cls-2" d="M787.27,422.38V442.5h-5.58v-1.84a7,7,0,0,1-5.4,2.29,6.7,6.7,0,0,1-5.2-2,7.63,7.63,0,0,1-1.87-5.39V422.38h5.58v12a3.88,3.88,0,0,0,.81,2.61A3,3,0,0,0,778,438a3.71,3.71,0,0,0,2.3-.75,3.45,3.45,0,0,0,1.3-2V422.38Z"/><path class="cls-2" d="M804.28,422.29v5.59a5.25,5.25,0,0,0-2.79-.68,4.18,4.18,0,0,0-2.48.74,3.44,3.44,0,0,0-1.35,2.1V442.5h-5.58V422.38h5.58v2a4.87,4.87,0,0,1,4.5-2.44A4.69,4.69,0,0,1,804.28,422.29Z"/><path class="cls-2" d="M823,413.25V442.5h-5.58V413.25Z"/><path class="cls-2" d="M846.31,432.46a10.61,10.61,0,0,1-2.75,7.57,10.12,10.12,0,0,1-14.22,0,11.87,11.87,0,0,1,0-15.17,10.09,10.09,0,0,1,14.22,0A10.67,10.67,0,0,1,846.31,432.46Zm-5.54,0a7,7,0,0,0-1.15-4.2,3.94,3.94,0,0,0-6.34,0,8.19,8.19,0,0,0,0,8.37,4,4,0,0,0,6.34,0A7,7,0,0,0,840.77,432.46Z"/><path class="cls-2" d="M848.78,432.46a10.77,10.77,0,0,1,2.7-7.6,9.93,9.93,0,0,1,13-.94,8.05,8.05,0,0,1,2.79,5.26h-5.49a2.82,2.82,0,0,0-1.11-1.82,3.57,3.57,0,0,0-2.22-.65,3.53,3.53,0,0,0-3,1.57,8.3,8.3,0,0,0,0,8.33,3.53,3.53,0,0,0,3,1.57,3.63,3.63,0,0,0,2.22-.65,2.84,2.84,0,0,0,1.11-1.82h5.49a8.12,8.12,0,0,1-2.77,5.26,10,10,0,0,1-13-.94A10.71,10.71,0,0,1,848.78,432.46Z"/><path class="cls-2" d="M887.21,442.5h-5.35v-1.08a5,5,0,0,1-1.94,1,9.62,9.62,0,0,1-3,.45,8.11,8.11,0,0,1-5.33-1.75,5.85,5.85,0,0,1-2.14-4.78,5.68,5.68,0,0,1,2.23-4.63,8.55,8.55,0,0,1,5.56-1.8,10.12,10.12,0,0,1,2.61.36,6.34,6.34,0,0,1,2,.81v-1.49a3.06,3.06,0,0,0-.84-2.22,3.19,3.19,0,0,0-2.45-.88,2.86,2.86,0,0,0-3,1.89h-5.31a7.12,7.12,0,0,1,2.77-4.61A10.13,10.13,0,0,1,885,424a7.35,7.35,0,0,1,2.23,5.69ZM881.86,437v-1.44a2.6,2.6,0,0,0-1.38-1.28,5.21,5.21,0,0,0-2.27-.47,4.81,4.81,0,0,0-2.5.63,2.15,2.15,0,0,0,0,3.68,4.67,4.67,0,0,0,2.52.63,5.21,5.21,0,0,0,2.27-.47A2.6,2.6,0,0,0,881.86,437Z"/><path class="cls-2" d="M892.79,436.42v-9.54h-3.06v-4.5h3.06v-5.44h5.54v5.44h4.41v4.5h-4.41v8.83a2,2,0,0,0,2.29,2.29,4.35,4.35,0,0,0,2.43-.67v4.95a8,8,0,0,1-3.6.63,7,7,0,0,1-4.9-1.62A6.32,6.32,0,0,1,892.79,436.42Z"/><path class="cls-2" d="M913.18,416.58a3,3,0,0,1-1,2.3,3.49,3.49,0,0,1-4.68,0,3.15,3.15,0,0,1,0-4.57,3.3,3.3,0,0,1,2.34-.93,3.24,3.24,0,0,1,2.32.93A3,3,0,0,1,913.18,416.58Zm-.5,5.8V442.5H907.1V422.38Z"/><path class="cls-2" d="M936,432.46a10.61,10.61,0,0,1-2.74,7.57A10.12,10.12,0,0,1,919,440a11.84,11.84,0,0,1,0-15.17,10.09,10.09,0,0,1,14.22,0A10.67,10.67,0,0,1,936,432.46Zm-5.53,0a7.08,7.08,0,0,0-1.15-4.2,4,4,0,0,0-6.35,0,8.25,8.25,0,0,0,0,8.37,4,4,0,0,0,6.35,0A7,7,0,0,0,930.46,432.46Z"/><path class="cls-2" d="M939.54,442.5V422.38h5.58v1.85a7.64,7.64,0,0,1,10.65-.27,7.67,7.67,0,0,1,1.86,5.4V442.5h-5.57v-12a3.82,3.82,0,0,0-.84-2.59,3.06,3.06,0,0,0-2.45-1,3.81,3.81,0,0,0-2.32.75,3.47,3.47,0,0,0-1.33,2V442.5Z"/><path class="cls-2" d="M978.25,422.57a6.84,6.84,0,0,1-.14,1.37,5.58,5.58,0,0,1-.45,1.3c-.21.44-.39.81-.54,1.1a5.77,5.77,0,0,1-.79,1.13l-.81,1c-.16.19-.48.54-.94,1s-.76.81-.88.92a4.9,4.9,0,0,0-1.62,3.2h-5.54a7.27,7.27,0,0,1,.61-2.7,13.22,13.22,0,0,1,1.92-2.7c.14-.18.52-.59,1.12-1.24s1-1.1,1.22-1.37a7.07,7.07,0,0,0,.67-1.17,3.57,3.57,0,0,0,.36-1.53,3.29,3.29,0,0,0-.92-2.41,3.48,3.48,0,0,0-2.55-.92,3.28,3.28,0,0,0-2.6,1.08,4.41,4.41,0,0,0-1,2.75h-5.94a10,10,0,0,1,3-6.46,9.25,9.25,0,0,1,6.7-2.5,9.66,9.66,0,0,1,6.68,2.2A7.62,7.62,0,0,1,978.25,422.57ZM965.6,439.35a3.36,3.36,0,0,1,1-2.5,3.53,3.53,0,0,1,2.53-1,3.48,3.48,0,0,1,2.51,1,3.34,3.34,0,0,1,1,2.5,3.26,3.26,0,0,1-1,2.45,3.45,3.45,0,0,1-2.51,1,3.49,3.49,0,0,1-2.53-1A3.29,3.29,0,0,1,965.6,439.35Z"/><path class="cls-2" d="M323.8,695a23,23,0,1,1,23-23A23,23,0,0,1,323.8,695Zm0-36a13,13,0,1,0,13,13A13,13,0,0,0,323.8,659Z"/><path class="cls-2" d="M562.12,848.89a5,5,0,0,1-5-5V710.65A139.57,139.57,0,0,0,516,611.29l-29.84-29.83a5,5,0,1,1,7.06-7.07L523,604.21a149.55,149.55,0,0,1,44.1,106.44V843.89A5,5,0,0,1,562.12,848.89Z"/><path class="cls-2" d="M364.71,852.45a5,5,0,0,1-5-5V824a77.92,77.92,0,0,1-40.91-68.85V726a5,5,0,0,1,10,0v29.19a68,68,0,0,0,38.12,61.33,5,5,0,0,1,2.79,4.48v26.5A5,5,0,0,1,364.71,852.45Z"/><path class="cls-2" d="M433.81,823.94A5,5,0,0,1,430,822.2a78.35,78.35,0,0,1-2.79-98.85l-60.29-67a38.59,38.59,0,0,1,28.26-64.88h.46a5,5,0,0,1,3.48,1.46L505.71,699.55a5,5,0,1,1-7.07,7.07L393.58,601.55a28.59,28.59,0,0,0-19.27,48.07l63.21,70.22a5,5,0,0,1,.08,6.61,68.35,68.35,0,0,0,0,89.22,5,5,0,0,1-3.78,8.27Z"/><path class="cls-2" d="M432.25,726.45H197.8a23,23,0,0,1-23-23v-126h10v126a13,13,0,0,0,13,13H421l-54.08-60.06a38.59,38.59,0,0,1,28.26-64.88h.46a5,5,0,0,1,3.48,1.46l63.66,63.67V577.5h10v91.21a5,5,0,0,1-8.53,3.54l-70.69-70.7a28.59,28.59,0,0,0-19.28,48.07L436,718.1a5,5,0,0,1-3.72,8.35Z"/><path class="cls-2" d="M828.51,240h-1c-23.54.19-36.16,27.86-21.12,46L828,312l21.63-26C864.66,267.86,852.05,240.19,828.51,240ZM828,280.55a13.5,13.5,0,1,1,13.5-13.5A13.5,13.5,0,0,1,828,280.55Z"/><path class="cls-2" d="M150.74,473.86v-5h23.58v5h-8.91v22.59H159.6V473.86Z"/><path class="cls-2" d="M191.37,496.45H186v-1.08a5,5,0,0,1-1.94,1,9.62,9.62,0,0,1-3,.45,8.11,8.11,0,0,1-5.33-1.75,5.83,5.83,0,0,1-2.14-4.77,5.69,5.69,0,0,1,2.23-4.64,8.55,8.55,0,0,1,5.56-1.8,10.12,10.12,0,0,1,2.61.36,6.34,6.34,0,0,1,2,.81v-1.48a3.12,3.12,0,0,0-.83-2.23,3.23,3.23,0,0,0-2.46-.88,2.86,2.86,0,0,0-3,1.89h-5.31a7.12,7.12,0,0,1,2.77-4.61,10.19,10.19,0,0,1,11.93.22,7.38,7.38,0,0,1,2.22,5.7ZM186,491v-1.44a2.62,2.62,0,0,0-1.37-1.28,5.29,5.29,0,0,0-2.28-.47,4.81,4.81,0,0,0-2.5.63,2.16,2.16,0,0,0,0,3.69,4.76,4.76,0,0,0,2.52.63,5.29,5.29,0,0,0,2.28-.48A2.62,2.62,0,0,0,186,491Z"/><path class="cls-2" d="M208.74,495.1v-1.17a6.05,6.05,0,0,1-5,2.07,8.27,8.27,0,0,1-6.66-2.92,11.54,11.54,0,0,1,0-14.27,8.27,8.27,0,0,1,6.66-2.92,6.2,6.2,0,0,1,5,2v-1.57h5.54v17.91q0,5-2.7,7.53a10,10,0,0,1-7.16,2.55,10.32,10.32,0,0,1-6.41-1.89,7.55,7.55,0,0,1-2.95-5.27h5.4q.67,2.83,4,2.84Q208.74,500,208.74,495.1Zm0-5.89v-6.57a4.14,4.14,0,0,0-3.78-2.07,4.29,4.29,0,0,0-3.46,1.48,5.78,5.78,0,0,0-1.26,3.87,5.85,5.85,0,0,0,1.26,3.89,4.59,4.59,0,0,0,5.69.9A4.38,4.38,0,0,0,208.74,489.21Z"/><path class="cls-2" d="M229.89,490.38v-9.54h-3.06v-4.5h3.06v-5.45h5.54v5.45h4.41v4.5h-4.41v8.82a2,2,0,0,0,2.29,2.29,4.35,4.35,0,0,0,2.43-.67v5a7.89,7.89,0,0,1-3.6.63,7,7,0,0,1-4.9-1.62A6.3,6.3,0,0,1,229.89,490.38Z"/><path class="cls-2" d="M244.2,496.45V467.2h5.58v11a7.65,7.65,0,0,1,10.64-.27,7.63,7.63,0,0,1,1.87,5.4v13.14h-5.58v-12a3.87,3.87,0,0,0-.83-2.59,3.07,3.07,0,0,0-2.45-1,3.76,3.76,0,0,0-2.32.74,3.42,3.42,0,0,0-1.33,2.05v12.73Z"/><path class="cls-2" d="M273,470.53a3,3,0,0,1-1,2.3,3.28,3.28,0,0,1-2.32.9,3.34,3.34,0,0,1-2.36-.9,3,3,0,0,1-1-2.3,3,3,0,0,1,1-2.27,3.29,3.29,0,0,1,2.34-.92,3.21,3.21,0,0,1,2.32.92A3,3,0,0,1,273,470.53Zm-.5,5.81v20.11h-5.58V476.34Z"/><path class="cls-2" d="M276.06,490.47h5.54c.45,1.47,1.57,2.2,3.37,2.2s2.84-.66,2.84-2a1.29,1.29,0,0,0-.48-1.06,4.16,4.16,0,0,0-1.55-.65l-4-.9q-5.22-1.21-5.22-5.67a5.7,5.7,0,0,1,2.3-4.7,8.86,8.86,0,0,1,5.71-1.82,9.37,9.37,0,0,1,5.87,1.64,7.14,7.14,0,0,1,2.68,4.57h-5.31q-.63-2-3.15-2a3.45,3.45,0,0,0-1.87.49A1.58,1.58,0,0,0,282,482c0,.75.61,1.27,1.81,1.57l4.14.95c3.56.87,5.35,2.82,5.35,5.85a5.65,5.65,0,0,1-2.32,4.77A9.51,9.51,0,0,1,285,496.9a10.28,10.28,0,0,1-6.12-1.69A6.71,6.71,0,0,1,276.06,490.47Z"/><path class="cls-2" d="M312.15,494.79v9.09h-5.58V476.34h5.58V478a5.84,5.84,0,0,1,2.11-1.48,7.05,7.05,0,0,1,2.93-.63,8.19,8.19,0,0,1,6.7,3,11.51,11.51,0,0,1,2.48,7.5,11.39,11.39,0,0,1-2.48,7.47,8.2,8.2,0,0,1-6.7,3,7.05,7.05,0,0,1-2.93-.63A5.84,5.84,0,0,1,312.15,494.79Zm0-11.7v6.61a4.07,4.07,0,0,0,1.53,1.69,4.18,4.18,0,0,0,2.25.65,4.32,4.32,0,0,0,3.51-1.57,6.13,6.13,0,0,0,1.3-4.05,6.26,6.26,0,0,0-1.3-4.08,4.31,4.31,0,0,0-3.51-1.59,4,4,0,0,0-2.23.65A4.41,4.41,0,0,0,312.15,483.09Z"/><path class="cls-2" d="M329.92,496.45V467.2h5.58v11a7.66,7.66,0,0,1,10.65-.27,7.67,7.67,0,0,1,1.86,5.4v13.14h-5.58v-12a3.82,3.82,0,0,0-.83-2.59,3.06,3.06,0,0,0-2.45-1,3.8,3.8,0,0,0-2.32.74,3.47,3.47,0,0,0-1.33,2.05v12.73Z"/><path class="cls-2" d="M371.1,486.42a10.61,10.61,0,0,1-2.75,7.56,10.12,10.12,0,0,1-14.22,0,11.87,11.87,0,0,1,0-15.17,10.12,10.12,0,0,1,14.22,0A10.68,10.68,0,0,1,371.1,486.42Zm-5.54,0a7.09,7.09,0,0,0-1.14-4.21,4,4,0,0,0-6.35,0,7.09,7.09,0,0,0-1.15,4.21,7,7,0,0,0,1.15,4.16,4,4,0,0,0,6.35,0A7,7,0,0,0,365.56,486.42Z"/><path class="cls-2" d="M375.87,490.38v-9.54h-3.06v-4.5h3.06v-5.45h5.53v5.45h4.41v4.5H381.4v8.82a2,2,0,0,0,2.3,2.29,4.35,4.35,0,0,0,2.43-.67v5a7.89,7.89,0,0,1-3.6.63,7,7,0,0,1-4.91-1.62A6.29,6.29,0,0,1,375.87,490.38Z"/><path class="cls-2" d="M408.45,486.42A10.61,10.61,0,0,1,405.7,494a10.12,10.12,0,0,1-14.22,0,11.87,11.87,0,0,1,0-15.17,10.12,10.12,0,0,1,14.22,0A10.68,10.68,0,0,1,408.45,486.42Zm-5.54,0a7.09,7.09,0,0,0-1.14-4.21,4,4,0,0,0-6.35,0,7.09,7.09,0,0,0-1.15,4.21,7,7,0,0,0,1.15,4.16,4,4,0,0,0,6.35,0A7,7,0,0,0,402.91,486.42Z"/><path class="cls-2" d="M436.44,476.34l3.33,12.82,3.6-12.82h5.4l-6.12,20.11h-5.13l-3.29-12.33L431,496.45h-5.13l-6.12-20.11h5.58l3.6,12.82,3.28-12.82Z"/><path class="cls-2" d="M457.86,470.53a3,3,0,0,1-1,2.3,3.49,3.49,0,0,1-4.68,0,3.15,3.15,0,0,1,0-4.57,3.29,3.29,0,0,1,2.34-.92,3.23,3.23,0,0,1,2.32.92A3,3,0,0,1,457.86,470.53Zm-.5,5.81v20.11h-5.58V476.34Z"/><path class="cls-2" d="M463.44,490.38v-9.54h-3.06v-4.5h3.06v-5.45H469v5.45h4.41v4.5H469v8.82a2,2,0,0,0,2.3,2.29,4.35,4.35,0,0,0,2.43-.67v5a7.89,7.89,0,0,1-3.6.63,7,7,0,0,1-4.91-1.62A6.29,6.29,0,0,1,463.44,490.38Z"/><path class="cls-2" d="M477.75,496.45V467.2h5.58v11a7.65,7.65,0,0,1,10.64-.27,7.68,7.68,0,0,1,1.87,5.4v13.14h-5.58v-12a3.82,3.82,0,0,0-.84-2.59,3.06,3.06,0,0,0-2.45-1,3.8,3.8,0,0,0-2.32.74,3.45,3.45,0,0,0-1.32,2.05v12.73Z"/><path class="cls-2" d="M206.94,548.88h-5.49l2.93-7.34-7.7-20.2h5.9l4.63,13.36,4.59-13.36h5.63Z"/><path class="cls-2" d="M238.26,531.42a10.6,10.6,0,0,1-2.74,7.56,10.12,10.12,0,0,1-14.22,0,11.84,11.84,0,0,1,0-15.17,10.12,10.12,0,0,1,14.22,0A10.67,10.67,0,0,1,238.26,531.42Zm-5.53,0a7.09,7.09,0,0,0-1.15-4.21,4,4,0,0,0-6.35,0,7.09,7.09,0,0,0-1.14,4.21,7,7,0,0,0,1.14,4.16,4,4,0,0,0,6.35,0A7,7,0,0,0,232.73,531.42Z"/><path class="cls-2" d="M259.64,521.34v20.11h-5.58v-1.84a6.93,6.93,0,0,1-5.41,2.29,6.71,6.71,0,0,1-5.19-2,7.63,7.63,0,0,1-1.87-5.4V521.34h5.58v12A3.88,3.88,0,0,0,248,536a3,3,0,0,0,2.43.95,3.71,3.71,0,0,0,2.3-.75,3.5,3.5,0,0,0,1.3-2V521.34Z"/><path class="cls-2" d="M276.65,521.25v5.58a5.38,5.38,0,0,0-2.8-.68,4.17,4.17,0,0,0-2.47.74A3.47,3.47,0,0,0,270,529v12.46h-5.58V521.34H270v2a4.86,4.86,0,0,1,4.5-2.43A4.58,4.58,0,0,1,276.65,521.25Z"/><path class="cls-2" d="M295.36,512.2v29.25h-5.58V512.2Z"/><path class="cls-2" d="M318.67,531.42a10.6,10.6,0,0,1-2.74,7.56,10.12,10.12,0,0,1-14.22,0,11.84,11.84,0,0,1,0-15.17,10.12,10.12,0,0,1,14.22,0A10.67,10.67,0,0,1,318.67,531.42Zm-5.53,0a7,7,0,0,0-1.15-4.21,3.94,3.94,0,0,0-6.34,0,7,7,0,0,0-1.15,4.21,6.94,6.94,0,0,0,1.15,4.16,3.94,3.94,0,0,0,6.34,0A6.94,6.94,0,0,0,313.14,531.42Z"/><path class="cls-2" d="M321.15,531.42a10.78,10.78,0,0,1,2.7-7.61,10,10,0,0,1,13-.94,8.05,8.05,0,0,1,2.79,5.26h-5.49a2.81,2.81,0,0,0-1.1-1.82,3.6,3.6,0,0,0-2.23-.65,3.51,3.51,0,0,0-3,1.57,7.07,7.07,0,0,0-1.13,4.19,7,7,0,0,0,1.13,4.14,3.51,3.51,0,0,0,3,1.57,3.66,3.66,0,0,0,2.23-.65,2.83,2.83,0,0,0,1.1-1.82h5.49a8.11,8.11,0,0,1-2.76,5.26,10,10,0,0,1-13-.94A10.71,10.71,0,0,1,321.15,531.42Z"/><path class="cls-2" d="M359.58,541.45h-5.36v-1.08a4.93,4.93,0,0,1-1.93,1,9.62,9.62,0,0,1-3,.45,8.11,8.11,0,0,1-5.33-1.75,5.83,5.83,0,0,1-2.14-4.77,5.69,5.69,0,0,1,2.23-4.64,8.53,8.53,0,0,1,5.55-1.8,10.12,10.12,0,0,1,2.61.36,6.34,6.34,0,0,1,2,.81v-1.48a3.08,3.08,0,0,0-.83-2.23,3.19,3.19,0,0,0-2.45-.88,2.86,2.86,0,0,0-3,1.89h-5.31a7.12,7.12,0,0,1,2.77-4.61,10.17,10.17,0,0,1,11.92.22,7.35,7.35,0,0,1,2.23,5.7ZM354.22,536v-1.44a2.58,2.58,0,0,0-1.37-1.28,5.21,5.21,0,0,0-2.27-.47,4.81,4.81,0,0,0-2.5.63,2.15,2.15,0,0,0,0,3.69,4.76,4.76,0,0,0,2.52.63,5.21,5.21,0,0,0,2.27-.48A2.58,2.58,0,0,0,354.22,536Z"/><path class="cls-2" d="M365.16,535.38v-9.54H362.1v-4.5h3.06v-5.45h5.53v5.45h4.41v4.5h-4.41v8.82A2,2,0,0,0,373,537a4.35,4.35,0,0,0,2.43-.67v5a7.89,7.89,0,0,1-3.6.63,7,7,0,0,1-4.91-1.62A6.29,6.29,0,0,1,365.16,535.38Z"/><path class="cls-2" d="M385.54,515.53a3,3,0,0,1-1,2.3,3.26,3.26,0,0,1-2.31.9,3.33,3.33,0,0,1-2.36-.9,3.15,3.15,0,0,1,0-4.57,3.29,3.29,0,0,1,2.34-.92,3.19,3.19,0,0,1,2.31.92A3,3,0,0,1,385.54,515.53Zm-.49,5.81v20.11h-5.58V521.34Z"/><path class="cls-2" d="M408.36,531.42a10.61,10.61,0,0,1-2.75,7.56,10.12,10.12,0,0,1-14.22,0,11.87,11.87,0,0,1,0-15.17,10.12,10.12,0,0,1,14.22,0A10.68,10.68,0,0,1,408.36,531.42Zm-5.54,0a7.09,7.09,0,0,0-1.14-4.21,4,4,0,0,0-6.35,0,7.09,7.09,0,0,0-1.15,4.21,7,7,0,0,0,1.15,4.16,4,4,0,0,0,6.35,0A7,7,0,0,0,402.82,531.42Z"/><path class="cls-2" d="M411.91,541.45V521.34h5.58v1.84a7.66,7.66,0,0,1,10.65-.27,7.67,7.67,0,0,1,1.86,5.4v13.14h-5.58v-12a3.82,3.82,0,0,0-.83-2.59,3.07,3.07,0,0,0-2.45-1,3.8,3.8,0,0,0-2.32.74,3.47,3.47,0,0,0-1.33,2.05v12.73Z"/><path class="cls-2" d="M450.61,521.52a6.78,6.78,0,0,1-.13,1.37,5.58,5.58,0,0,1-.45,1.3l-.54,1.11a6.6,6.6,0,0,1-.79,1.12l-.81,1c-.16.19-.48.54-.95,1l-.87.93a4.86,4.86,0,0,0-1.62,3.19h-5.54a7.27,7.27,0,0,1,.61-2.7,13.1,13.1,0,0,1,1.91-2.7c.15-.18.53-.59,1.13-1.24s1-1.1,1.21-1.37a6.37,6.37,0,0,0,.68-1.17,3.57,3.57,0,0,0,.36-1.53,3.29,3.29,0,0,0-.92-2.41,3.48,3.48,0,0,0-2.55-.92,3.29,3.29,0,0,0-2.61,1.08,4.41,4.41,0,0,0-1,2.75h-5.94a10,10,0,0,1,3-6.46,9.29,9.29,0,0,1,6.71-2.5,9.63,9.63,0,0,1,6.68,2.21A7.57,7.57,0,0,1,450.61,521.52ZM438,538.3a3.36,3.36,0,0,1,1-2.5,3.65,3.65,0,0,1,5,0,3.37,3.37,0,0,1,1,2.5,3.3,3.3,0,0,1-1,2.45,3.62,3.62,0,0,1-5,0A3.29,3.29,0,0,1,438,538.3Z"/><path class="cls-2" d="M521.8,583.45h-396a24,24,0,0,1-24-24v-108a24,24,0,0,1,24-24h396a24,24,0,0,1,24,24v108A24,24,0,0,1,521.8,583.45Zm-396-144a12,12,0,0,0-12,12v108a12,12,0,0,0,12,12h396a12,12,0,0,0,12-12v-108a12,12,0,0,0-12-12Z"/><path class="cls-2" d="M521.8,439.5h-396a24,24,0,0,1-24-24v-180a24,24,0,0,1,24-24h396a24,24,0,0,1,24,24v180A24,24,0,0,1,521.8,439.5Zm-396-216a12,12,0,0,0-12,12v180a12,12,0,0,0,12,12h396a12,12,0,0,0,12-12v-180a12,12,0,0,0-12-12Z"/><path class="cls-2" d="M193,437,186,430,320.27,295.64a5,5,0,0,1,7.07,0L461.61,429.92,454.54,437,323.8,306.25Z"/><path class="cls-2" d="M536.27,382.36l-94.6-94.6L377,352.4,370,345.33l68.18-68.18a5,5,0,0,1,7.07,0l98.13,98.14Z"/><path class="cls-2" d="M216,407a81.5,81.5,0,1,1,81.5-81.5c0,1.83-.06,3.68-.18,5.5l-10-.67c.11-1.6.16-3.22.16-4.83A71.5,71.5,0,1,0,216,397c1.61,0,3.24-.05,4.84-.16l.66,10C219.67,406.94,217.82,407,216,407Z"/><path class="cls-2" d="M1066.32,848.89a5,5,0,0,1-5-5V710.65a139.65,139.65,0,0,0-41.16-99.37L989.91,581A5,5,0,1,1,997,574l30.25,30.25a149.56,149.56,0,0,1,44.09,106.44V843.89A5,5,0,0,1,1066.32,848.89Z"/><path class="cls-2" d="M868.91,852.45a5,5,0,0,1-5-5V824A77.91,77.91,0,0,1,823,755.14V724.52a5,5,0,0,1,10,0v30.62a68,68,0,0,0,38.12,61.33,5,5,0,0,1,2.78,4.48v26.5A5,5,0,0,1,868.91,852.45Z"/><path class="cls-2" d="M938,823.94a5,5,0,0,1-3.79-1.74,78.37,78.37,0,0,1-2.79-98.86l-60.29-67a38.6,38.6,0,0,1,28.27-64.89h.47a5,5,0,0,1,3.47,1.46l106.57,106.58a5,5,0,1,1-7.08,7.07L897.78,601.55a28.59,28.59,0,0,0-19.27,48.07l63.22,70.21a5,5,0,0,1,.07,6.61,68.35,68.35,0,0,0,0,89.23,5,5,0,0,1-3.79,8.27Z"/><path class="cls-2" d="M515.86,708.08H502.18a5,5,0,1,1,0-10h13.68a5,5,0,0,1,0,10Z"/></svg>