<?xml version="1.0" encoding="UTF-8"?>
<svg id="OUTLINES" xmlns="http://www.w3.org/2000/svg" viewBox="0 0 1152 1008">
  <defs>
    <style>
      .cls-1 {
        fill: #000f7d;
      }

      .cls-2 {
        fill: #fff;
      }
    </style>
  </defs>
  <path class="cls-2" d="M570.29,543.7c-10.2-10.15-11.03-27.89-.52-38.82,11.63-12.1,30.02-10.09,40.5,.34l11.78,11.73c-2.2-17.77-18.68-30.56-37.05-30.96-20.63-.45-36.89,15.58-36,36,.86,19.86,15.19,36.52,35.07,36.52,.53,0,1.05-.02,1.58-.04l-15.36-14.78Z"/>
  <path class="cls-2" d="M584.07,564.52c-22.36,0-40.02-18.17-41.06-42.26-.49-11.36,3.53-22,11.33-29.97,8.01-8.19,18.96-12.53,30.8-12.29,21.94,.48,40.38,16.05,42.87,36.22,.31,2.54-1.02,5-3.32,6.13-2.3,1.12-5.06,.67-6.87-1.14l-11.78-11.73c-4.41-4.38-10.71-6.95-16.98-6.89-4.04,.04-9.91,1.2-14.97,6.46-7.97,8.29-7.79,22.19,.4,30.37l15.32,14.74c1.73,1.66,2.3,4.2,1.45,6.45-.85,2.25-2.96,3.77-5.35,3.87-.61,.03-1.22,.05-1.83,.05Zm-6.29-71.89c-5.7,1.17-10.83,3.92-14.88,8.06-5.45,5.57-8.26,13.05-7.91,21.05,.21,4.79,1.29,9.27,3.08,13.24-3.85-11.61-1.42-25.11,7.37-34.25,3.52-3.66,7.72-6.4,12.34-8.1Z"/>
  <path class="cls-2" d="M655.3,441h-141.67v-141.67s79.97-86.23,141.67,0c44.32,61.93,0,141.67,0,141.67Z"/>
  <path class="cls-2" d="M655.3,447h-141.67c-3.31,0-6-2.69-6-6v-141.67c0-1.51,.57-2.97,1.6-4.08,1.63-1.76,40.45-43.01,86.59-40.1,24.5,1.55,46.16,15.24,64.36,40.69,19.11,26.71,25.21,60.85,17.62,98.73-5.66,28.27-16.79,48.5-17.26,49.35-1.06,1.9-3.07,3.08-5.24,3.08Zm-5.24-8.92h0Zm-130.43-3.08h132.01c3.19-6.51,10.44-22.75,14.47-43.12,6.91-34.9,1.63-64.86-15.68-89.06-15.99-22.35-34.6-34.36-55.31-35.69-20.91-1.34-40.6,8.45-53.45,16.9-10.84,7.13-18.8,14.55-22.04,17.75v133.22Z"/>
  <path class="cls-1" d="M432,437h-144c-2.76,0-5-2.24-5-5v-144c0-2.76,2.24-5,5-5h144c2.76,0,5,2.24,5,5v144c0,2.76-2.24,5-5,5Zm-139-10h134v-134h-134v134Z"/>
  <path class="cls-1" d="M645.67,438h-141.67c-3.31,0-6-2.69-6-6v-141.67c0-1.51,.57-2.97,1.6-4.08,1.63-1.76,40.5-43,86.59-40.1,24.5,1.55,46.16,15.24,64.36,40.69,19.11,26.71,25.2,60.85,17.62,98.73-5.66,28.27-16.79,48.5-17.26,49.35-1.06,1.9-3.07,3.08-5.24,3.08Zm-135.67-12h132.01c3.19-6.51,10.44-22.75,14.47-43.12,6.91-34.9,1.63-64.86-15.68-89.06-15.99-22.35-34.6-34.36-55.31-35.69-20.9-1.35-40.6,8.45-53.45,16.9-10.84,7.13-18.8,14.55-22.04,17.75v133.22Z"/>
  <path class="cls-1" d="M858.79,446.03c-9.29,0-17.04-5.17-25.12-10.56-14.52-9.69-30.98-20.68-64.8-9.71-18.12,5.88-33.54,2.8-43.41-8.67-17.04-19.81-12.98-60.05,10.84-107.66,8.23-16.45,31.69-41.81,62.58-44.25,18.18-1.43,45.63,4.97,73.26,43.57,25.53,35.68,35.7,72.17,27.91,100.11-4.52,16.2-14.89,28.19-30,34.69-4.04,1.73-7.75,2.47-11.25,2.47Zm-64.12-34.8c20.71,0,34.01,8.88,44.55,15.92,11.25,7.5,17.55,11.23,26.87,7.23h0c12.24-5.26,20.65-15.01,24.32-28.19,6.87-24.65-3-58.89-26.41-91.61-20-27.95-41.63-41.21-64.34-39.42-26.57,2.09-47.48,24.88-54.42,38.75-16.95,33.88-29.06,77.06-12.2,96.67,7.07,8.22,18.7,10.24,32.74,5.68,11.02-3.58,20.56-5.02,28.89-5.02Z"/>
  <path class="cls-1" d="M974.71,696.67h.01s-.1-.11-.1-.11c-.04-.04-.08-.08-.12-.12-.05-.06-.11-.11-.17-.17l-13.04-12.98c-5.69-5.66-8.68-13.35-8.2-21.09,1.28-20.62-5.6-40.45-19.37-55.84-23.99-26.82-56.14-62.51-73.03-80.22-2.65-2.78-5.36-5.55-7.94-8.14h11.23c2.76,0,5-2.24,5-5s-2.24-5-5-5h-21.39c-2.03-1.96-3.37-3.24-3.64-3.49-12.03-11.92-31.7-12.06-43.88-.28-1.21,1.17-2.31,2.44-3.3,3.77h-173.58l-.61-.61c-2.78-20.78-20.58-36.39-41.61-36.39s-39.21,16.19-41.69,37h-246.31c-2.76,0-5,2.24-5,5s2.24,5,5,5h246.31c2.48,20.81,20.23,37,41.69,37,.17,0,.33,0,.5-.01l152.32,151.6c2.37,2.36,2.38,6.21,.02,8.58-1.52,1.52-3.25,2.24-7.14,1.11l-78.11-30.92c-.09-.04-.17-.07-.26-.1-4.16-1.38-8.32-1.83-12.34-1.31-6.25,.8-11.9,3.58-16.35,8.06-10.94,10.99-10.9,28.83,.09,39.77,2.76,2.75,5.37,4.18,8.72,5.89,13.52,7.03,42.45,22.05,74.42,38.65l26.65,13.83c31.5,16.36,68.82,19.05,102.38,7.39,9.91-3.44,20.64-1.03,28,6.29l6.5,6.47c.98,.97,2.25,1.46,3.53,1.46s2.57-.49,3.54-1.47c1.95-1.96,1.94-5.12-.02-7.07l-6.5-6.47c-10.09-10.04-24.78-13.36-38.33-8.65-30.98,10.76-65.42,8.28-94.49-6.82l-26.64-13.83c-31.98-16.6-60.9-31.62-74.46-38.67-3.04-1.55-4.55-2.4-6.24-4.08-3.43-3.42-5.33-7.96-5.34-12.8-.01-4.84,1.86-9.4,5.28-12.83,2.87-2.88,6.51-4.68,10.53-5.19,2.49-.32,5.11-.04,7.79,.84l78.18,30.95c.13,.05,.27,.1,.41,.14,7.02,2.1,12.84,.9,17.29-3.58,3.03-3.04,4.69-7.08,4.68-11.37,0-4.29-1.69-8.32-4.73-11.35l-160.99-160.23c-8.19-8.15-8.36-21.58-.36-29.92,3.9-4.07,9.23-6.35,15.01-6.42,5.9-.07,11.71,2.27,15.87,6.41l105.43,104.93c1.96,1.95,5.12,1.94,7.07-.02,1.95-1.96,1.94-5.12-.02-7.07l-10.5-10.45c-8.19-8.15-8.36-21.58-.36-29.92,3.9-4.07,9.23-6.35,15-6.42,5.96-.09,11.71,2.27,15.88,6.41l16.34,16.27c1.96,1.95,5.12,1.94,7.07-.02,1.95-1.96,1.94-5.12-.02-7.07l-11.26-11.21c-8.19-8.15-8.36-21.58-.36-29.92,3.9-4.07,9.23-6.35,15-6.42,5.96-.06,11.71,2.27,15.88,6.41l14.46,14.4,.12,.12,10.34,10.29c1.96,1.95,5.12,1.94,7.07-.02,1.95-1.96,1.94-5.12-.02-7.07l-10.43-10.38c-4.11-4.14-6.44-9.87-6.4-15.75,.04-5.78,2.3-11.12,6.35-15.03,8.3-8.03,21.72-7.93,29.92,.22,.03,.03,.06,.06,.09,.09,.11,.11,11.24,10.64,21.4,21.3,16.79,17.61,48.87,53.22,72.81,79.99,11.97,13.38,17.95,30.62,16.84,48.55-.66,10.61,3.4,21.1,11.12,28.8,10.23,10.18,12.77,12.71,13.3,13.24l.02,.02s.02,.02,.03,.03c.05,.05,.07,.07,.08,.08h0c2.28,2.16,5.37,1.71,7.08,0,.14-.14,3.25-3.35-.04-7.07Zm-385.3-203.73c-8.49,.1-16.34,3.47-22.11,9.5-9.83,10.26-11.25,25.76-4.38,37.56-10.01-4.87-16.92-15.14-16.92-26.99,0-16.54,13.46-30,30-30,9.5,0,18.08,4.46,23.61,11.5-3.28-1.05-6.72-1.59-10.19-1.56Zm196.3,33.11c-5.85-4.94-13.43-7.65-21.15-7.58-8.49,.1-16.34,3.47-22.11,9.5-6.5,6.79-9.33,15.86-8.51,24.64-3.81-1.48-7.88-2.22-12.04-2.19-8.49,.1-16.34,3.47-22.11,9.5-5.53,5.77-8.4,13.2-8.63,20.7l-62.9-62.61h158.62c-.73,2.58-1.13,5.28-1.18,8.05Z"/>
</svg>