<svg id="OUTLINES" xmlns="http://www.w3.org/2000/svg" viewBox="0 0 1152 1008"><defs><style>.cls-1{fill:#fff;}.cls-2{fill:#000f7d;}</style></defs><title>multi-factor-with-object</title><rect class="cls-1" x="904.51" y="400.5" width="180" height="99" rx="18"/><path class="cls-1" d="M1066.51,505.5h-144a24,24,0,0,1-24-24v-63a24,24,0,0,1,24-24h144a24,24,0,0,1,24,24v63A24,24,0,0,1,1066.51,505.5Zm-144-99a12,12,0,0,0-12,12v63a12,12,0,0,0,12,12h144a12,12,0,0,0,12-12v-63a12,12,0,0,0-12-12Z"/><path class="cls-2" d="M684,720.5H198a23,23,0,0,1-23-23V269.28a23,23,0,0,1,23-23H882a23,23,0,0,1,23,23V324H895V269.28a13,13,0,0,0-13-13H198a13,13,0,0,0-13,13V697.5a13,13,0,0,0,13,13H684Z"/><path class="cls-2" d="M882,720.5H198a23,23,0,0,1-23-23V269.28a23,23,0,0,1,23-23H882a23,23,0,0,1,23,23V697.5A23,23,0,0,1,882,720.5ZM198,256.28a13,13,0,0,0-13,13V697.5a13,13,0,0,0,13,13H882a13,13,0,0,0,13-13V269.28a13,13,0,0,0-13-13Z"/><path class="cls-2" d="M954,761H126a23,23,0,0,1-23-23v-4.5a23,23,0,0,1,23-23H954a23,23,0,0,1,23,23V738A23,23,0,0,1,954,761ZM126,720.5a13,13,0,0,0-13,13V738a13,13,0,0,0,13,13H954a13,13,0,0,0,13-13v-4.5a13,13,0,0,0-13-13Z"/><path class="cls-2" d="M1062,501H918a24,24,0,0,1-24-24V414a24,24,0,0,1,24-24h144a24,24,0,0,1,24,24v63A24,24,0,0,1,1062,501ZM918,402a12,12,0,0,0-12,12v63a12,12,0,0,0,12,12h144a12,12,0,0,0,12-12V414a12,12,0,0,0-12-12Z"/><circle class="cls-1" cx="539.99" cy="485.64" r="117"/><path class="cls-1" d="M540,608.64a123,123,0,1,1,123-123A123.14,123.14,0,0,1,540,608.64Zm0-234a111,111,0,1,0,111,111A111.13,111.13,0,0,0,540,374.64Z"/><path class="cls-2" d="M540,604.14a123,123,0,1,1,123-123A123.14,123.14,0,0,1,540,604.14Zm0-234a111,111,0,1,0,111,111A111.13,111.13,0,0,0,540,370.14Z"/><path class="cls-2" d="M522,527.64a6,6,0,0,1-4.24-1.76l-40.5-40.5a6,6,0,0,1,8.48-8.48L522,513.16l76.76-76.76a6,6,0,0,1,8.48,8.48l-81,81A5.93,5.93,0,0,1,522,527.64Z"/><path class="cls-2" d="M1036.36,418.69c-20.79-10.5-41.44,1.65-45.58,20.06h-55a7.2,7.2,0,0,0-7.2,7.2v21.74a7.2,7.2,0,0,0,7.2,7.2h0a7.2,7.2,0,0,0,7.2-7.2V456.57h10.47v11.12a7.19,7.19,0,0,0,7.19,7.2h0a7.2,7.2,0,0,0,7.2-7.2V452.25h22.94a30.71,30.71,0,0,0,30,23.95c22,0,38.64-23.22,26.7-46.53A25.23,25.23,0,0,0,1036.36,418.69Zm-5.63,41.13c-16.76,9.88-34.19-7.56-24.31-24.31a12.27,12.27,0,0,1,4.32-4.33c16.76-9.88,34.19,7.56,24.31,24.31A12.27,12.27,0,0,1,1030.73,459.82Z"/><polygon class="cls-2" points="905.01 486.5 886.01 486.5 886.01 476.5 895.01 476.5 895.01 467.5 905.01 467.5 905.01 486.5"/><path class="cls-2" d="M876.45,486.5H873a23.07,23.07,0,0,1-22.14-16.74l9.62-2.72A13.06,13.06,0,0,0,873,476.5h3.44ZM860,458.9H850V432.14h10Zm.48-34.91-9.63-2.7A23.07,23.07,0,0,1,873,404.5h3.4v10H873A13,13,0,0,0,860.49,424Z"/><polygon class="cls-2" points="905.01 423.5 895.01 423.5 895.01 414.5 886.01 414.5 886.01 404.5 905.01 404.5 905.01 423.5"/><rect class="cls-2" x="895.01" y="432.67" width="10" height="25.67"/></svg>