<svg id="OUTLINES" xmlns="http://www.w3.org/2000/svg" viewBox="0 0 1152 1008"><defs><style>.cls-1{fill:#fff;}.cls-2{fill:#000f7d;}</style></defs><title>multi-factor-with-text-message</title><path class="cls-1" d="M685,411.54H278a24,24,0,0,0-24,24v108a24,24,0,0,0,24,24H685Z"/><path class="cls-1" d="M998,411.54H746a24,24,0,0,0-24,24v162a6,6,0,0,0,3.71,5.54,6,6,0,0,0,6.53-1.3L763,571.05a11.91,11.91,0,0,1,8.49-3.51H998a24,24,0,0,0,24-24v-108A24,24,0,0,0,998,411.54Z"/><path class="cls-2" d="M954,833H702a23,23,0,0,1-23-23V342a23,23,0,0,1,23-23H954a23,23,0,0,1,23,23v67.5H967V342a13,13,0,0,0-13-13H702a13,13,0,0,0-13,13V810a13,13,0,0,0,13,13H954a13,13,0,0,0,13-13V553.5h10V810A23,23,0,0,1,954,833Z"/><path class="cls-2" d="M828,801.5a23,23,0,1,1,23-23A23,23,0,0,1,828,801.5Zm0-36a13,13,0,1,0,13,13A13,13,0,0,0,828,765.5Z"/><path class="cls-2" d="M684,720.5H198a23,23,0,0,1-23-23V269.28a23,23,0,0,1,23-23H882a23,23,0,0,1,23,23V324H895V269.28a13,13,0,0,0-13-13H198a13,13,0,0,0-13,13V697.5a13,13,0,0,0,13,13H684Z"/><path class="cls-2" d="M684,761H126a23,23,0,0,1-23-23v-4.5a23,23,0,0,1,23-23H684v10H126a13,13,0,0,0-13,13V738a13,13,0,0,0,13,13H684Z"/><path class="cls-2" d="M787.42,470.49h-9a5.71,5.71,0,0,0-5.92-4.38q-3.87,0-6.28,3.8a16,16,0,0,0-2.4,8.76v.66a8,8,0,0,1,3.65-3.43,12.34,12.34,0,0,1,5.76-1.32,13.89,13.89,0,0,1,10.59,4.27,14.75,14.75,0,0,1,4,10.48,15.15,15.15,0,0,1-4.27,11q-4.26,4.43-11.57,4.42-9.12,0-13.58-8.1-3.14-5.47-3.14-14.09,0-10.67,4.64-17.37a14.46,14.46,0,0,1,12.52-6.72q6.21,0,10,3.14A15.3,15.3,0,0,1,787.42,470.49Zm-22.85,19.06a7.44,7.44,0,0,0,2,5.44,7.92,7.92,0,0,0,10.7,0,7.39,7.39,0,0,0,2.08-5.44,7.71,7.71,0,0,0-2-5.62,7,7,0,0,0-5.33-2.12,7.14,7.14,0,0,0-5.4,2.12A7.75,7.75,0,0,0,764.57,489.55Z"/><path class="cls-2" d="M813.11,472.17a5.22,5.22,0,0,0-1.53-3.9,5.69,5.69,0,0,0-4.16-1.5,5.47,5.47,0,0,0-4.27,1.72,7,7,0,0,0-1.72,4.49H791.8a16.34,16.34,0,0,1,4.85-10.48,14.77,14.77,0,0,1,10.7-4.05q7,0,11,3.61a12.49,12.49,0,0,1,4,9.75,11.73,11.73,0,0,1-1.46,5.44A23.2,23.2,0,0,1,818,481.7c-.95,1.09-2.47,2.74-4.56,4.93l-8.62,9.27h18V504h-31v-6.06l14.23-15a52.39,52.39,0,0,0,6-7.38A7.06,7.06,0,0,0,813.11,472.17Z"/><path class="cls-2" d="M857.79,498.31a15.92,15.92,0,0,1-25.55,0q-4.89-6.42-4.89-16.72t4.89-16.72a15.92,15.92,0,0,1,25.55,0q4.89,6.44,4.89,16.72T857.79,498.31Zm-6.35-27.45a7.09,7.09,0,0,0-12.85,0q-2.12,4.08-2.12,10.73t2.12,10.73a7.09,7.09,0,0,0,12.85,0q2.12-4.08,2.11-10.73T851.44,470.86Z"/><path class="cls-2" d="M891.15,459.18l-14.6,28.25h9.93v-9.27h8.32v9.27h6.79v7.66H894.8V504h-8.32v-8.91H866.55v-6.71L882,459.18Z"/><path class="cls-2" d="M921.52,504.73a18.53,18.53,0,0,1-11.54-3.5,11.32,11.32,0,0,1-4.6-9.49,10.89,10.89,0,0,1,2.23-6.94,10.54,10.54,0,0,1,5.58-3.79,10.45,10.45,0,0,1-4.67-3.87,10.67,10.67,0,0,1-1.75-6.06,11.13,11.13,0,0,1,4.27-9.27,18,18,0,0,1,20.92,0,11.19,11.19,0,0,1,4.23,9.27,10.74,10.74,0,0,1-1.75,6.06,10.42,10.42,0,0,1-4.68,3.87,10.6,10.6,0,0,1,5.59,3.79,11,11,0,0,1,2.23,6.94,11.32,11.32,0,0,1-4.6,9.49A18.41,18.41,0,0,1,921.52,504.73Zm0-7.37a7.51,7.51,0,0,0,5.07-1.72,6.35,6.35,0,0,0,0-9.27,7.55,7.55,0,0,0-5.07-1.71,7.66,7.66,0,0,0-5.15,1.71,6.35,6.35,0,0,0,0,9.27A7.61,7.61,0,0,0,921.52,497.36Zm0-20.3a6.31,6.31,0,0,0,4.3-1.53,5.15,5.15,0,0,0,1.75-4.09,5.33,5.33,0,0,0-1.75-4.19,6.2,6.2,0,0,0-4.3-1.57,6.28,6.28,0,0,0-4.38,1.57,5.33,5.33,0,0,0-1.76,4.19,5.15,5.15,0,0,0,1.76,4.09A6.39,6.39,0,0,0,921.52,477.06Z"/><path class="cls-2" d="M957.72,482.1a8.24,8.24,0,0,0-6.42,3H944V459.18h26.28v8.1H951.59v9.13a12.48,12.48,0,0,1,7.23-2.05,13.83,13.83,0,0,1,10.47,4.16,15.37,15.37,0,0,1-11.42,26.21q-7,0-11.39-4a15.32,15.32,0,0,1-4.89-10.62h9a7.84,7.84,0,0,0,2.23,4.86,6.92,6.92,0,0,0,5,1.78,6.17,6.17,0,0,0,4.82-2,7.73,7.73,0,0,0,1.82-5.33,7.65,7.65,0,0,0-1.82-5.26A6.33,6.33,0,0,0,957.72,482.1Z"/><path class="cls-2" d="M720,595.5a6,6,0,0,1-6-6v-162a24,24,0,0,1,24-24H990a24,24,0,0,1,24,24v108a24,24,0,0,1-24,24H763.45A11.92,11.92,0,0,0,755,563l-30.73,30.72A6,6,0,0,1,720,595.5Zm18-180a12,12,0,0,0-12,12V575l20.49-20.49a23.85,23.85,0,0,1,17-7H990a12,12,0,0,0,12-12v-108a12,12,0,0,0-12-12Z"/><path class="cls-2" d="M684,559.5H270a24,24,0,0,1-24-24v-108a24,24,0,0,1,24-24H684v12H270a12,12,0,0,0-12,12v108a12,12,0,0,0,12,12H684Z"/><path class="cls-2" d="M322.59,470.49h-9a5.69,5.69,0,0,0-5.91-4.38q-3.87,0-6.28,3.8a16,16,0,0,0-2.41,8.76v.66a8.08,8.08,0,0,1,3.65-3.43,12.39,12.39,0,0,1,5.77-1.32,13.85,13.85,0,0,1,10.58,4.27,14.72,14.72,0,0,1,4,10.48,15.15,15.15,0,0,1-4.27,11q-4.28,4.43-11.57,4.42-9.14,0-13.58-8.1-3.14-5.47-3.14-14.09,0-10.67,4.64-17.37a14.46,14.46,0,0,1,12.52-6.72q6.19,0,10,3.14A15.23,15.23,0,0,1,322.59,470.49Zm-22.84,19.06a7.44,7.44,0,0,0,2,5.44,7.91,7.91,0,0,0,10.69,0,7.35,7.35,0,0,0,2.08-5.44,7.75,7.75,0,0,0-2-5.62,7,7,0,0,0-5.33-2.12,7.13,7.13,0,0,0-5.4,2.12A7.75,7.75,0,0,0,299.75,489.55Z"/><path class="cls-2" d="M348.29,472.17a5.22,5.22,0,0,0-1.53-3.9,5.71,5.71,0,0,0-4.16-1.5,5.46,5.46,0,0,0-4.27,1.72,7,7,0,0,0-1.72,4.49H327a16.35,16.35,0,0,1,4.86-10.48,14.77,14.77,0,0,1,10.69-4.05q7,0,11,3.61a12.49,12.49,0,0,1,4,9.75,11.85,11.85,0,0,1-1.46,5.44,23.2,23.2,0,0,1-2.88,4.45c-1,1.09-2.47,2.74-4.57,4.93L340,495.9h18V504h-31v-6.06l14.23-15a53.18,53.18,0,0,0,6-7.38A7.06,7.06,0,0,0,348.29,472.17Z"/><path class="cls-2" d="M393,498.31a15.92,15.92,0,0,1-25.55,0q-4.89-6.42-4.89-16.72t4.89-16.72a15.92,15.92,0,0,1,25.55,0q4.89,6.44,4.9,16.72T393,498.31Zm-6.35-27.45a7.08,7.08,0,0,0-12.84,0q-2.13,4.08-2.12,10.73t2.12,10.73a7.08,7.08,0,0,0,12.84,0q2.11-4.08,2.12-10.73T386.61,470.86Z"/><path class="cls-2" d="M409.49,540.39a3,3,0,0,1-3-3V425.61a3,3,0,0,1,6,0V537.39A3,3,0,0,1,409.49,540.39Z"/></svg>