<svg id="OUTLINES" xmlns="http://www.w3.org/2000/svg" viewBox="0 0 1152 1008"><defs><style>.cls-1{fill:#fff;}.cls-2{fill:#000f7d;}</style></defs><rect class="cls-1" x="362" y="334.62" width="444" height="155.98" rx="24"/><path class="cls-2" d="M575.79,693.05a23,23,0,1,0-23-23A23,23,0,0,0,575.79,693.05Zm0-36a13,13,0,1,1-13,13A13,13,0,0,1,575.79,657.05Z"/><polygon class="cls-2" points="434.56 394.65 440.27 394.65 440.27 384.17 450.31 367.02 444.23 367.02 437.57 378.72 430.87 367.02 424.61 367.02 434.56 384.17 434.56 394.65"/><path class="cls-2" d="M451.34,392.18a10.12,10.12,0,0,0,14.22,0,11.84,11.84,0,0,0,0-15.17,10.12,10.12,0,0,0-14.22,0,11.87,11.87,0,0,0,0,15.17Zm3.94-11.77a3.94,3.94,0,0,1,6.34,0,7,7,0,0,1,1.15,4.21,6.94,6.94,0,0,1-1.15,4.16,3.94,3.94,0,0,1-6.34,0,6.94,6.94,0,0,1-1.15-4.16A7,7,0,0,1,455.28,380.41Z"/><path class="cls-2" d="M478.7,395.1a6.93,6.93,0,0,0,5.4-2.29v1.84h5.58V374.54h-5.62v12.78a3.46,3.46,0,0,1-1.31,2,3.68,3.68,0,0,1-2.29.75,3,3,0,0,1-2.43-.95,3.88,3.88,0,0,1-.81-2.61v-12h-5.58v13.14a7.67,7.67,0,0,0,1.86,5.4A6.73,6.73,0,0,0,478.7,395.1Z"/><path class="cls-2" d="M500.08,382.19a3.47,3.47,0,0,1,1.35-2.1,4.15,4.15,0,0,1,2.47-.74,5.34,5.34,0,0,1,2.79.68v-5.58a4.51,4.51,0,0,0-2.11-.36,4.86,4.86,0,0,0-4.5,2.43v-2H494.5v20.11h5.58Z"/><path class="cls-2" d="M527.7,395.1a7.05,7.05,0,0,0,2.93-.63,5.84,5.84,0,0,0,2.11-1.48v1.66h5.63V365.4h-5.63v10.8a5.84,5.84,0,0,0-2.11-1.48,7.05,7.05,0,0,0-2.93-.63,8.15,8.15,0,0,0-6.68,3,12.72,12.72,0,0,0,0,15A8.19,8.19,0,0,0,527.7,395.1Zm-2.25-14.56A4.31,4.31,0,0,1,529,379a4.09,4.09,0,0,1,2.25.65,4,4,0,0,1,1.53,1.69v6.61a4.13,4.13,0,0,1-1.5,1.69,4.18,4.18,0,0,1-2.28.65,4.32,4.32,0,0,1-3.51-1.57,6.13,6.13,0,0,1-1.3-4.05A6.26,6.26,0,0,1,525.45,380.54Z"/><path class="cls-2" d="M546,371.93a3.26,3.26,0,0,0,2.32-.9,3.18,3.18,0,0,0,0-4.57,3.2,3.2,0,0,0-2.32-.92,3.31,3.31,0,0,0-2.34.92,3,3,0,0,0-1,2.27,3,3,0,0,0,1,2.3A3.34,3.34,0,0,0,546,371.93Z"/><rect class="cls-2" x="543.18" y="374.54" width="5.58" height="20.12"/><path class="cls-2" d="M559.2,382.19a3.47,3.47,0,0,1,1.35-2.1,4.18,4.18,0,0,1,2.48-.74,5.34,5.34,0,0,1,2.79.68v-5.58a4.55,4.55,0,0,0-2.12-.36,4.86,4.86,0,0,0-4.5,2.43v-2h-5.58v20.11h5.58Z"/><path class="cls-2" d="M577.43,395.1a9.31,9.31,0,0,0,6.05-1.87,8,8,0,0,0,2.86-5.15h-5.17c-.46,1.68-1.7,2.52-3.74,2.52a4,4,0,0,1-3.06-1.28,5.57,5.57,0,0,1-1.3-3.53h13.41v-1.71a10.59,10.59,0,0,0-2.41-7.27,8.51,8.51,0,0,0-6.73-2.72,9,9,0,0,0-7,3,11.9,11.9,0,0,0,0,15.12A9.21,9.21,0,0,0,577.43,395.1Zm0-16.47a3.31,3.31,0,0,1,2.62,1.06,4.14,4.14,0,0,1,1,2.72H573.2Q574,378.63,577.38,378.63Z"/><path class="cls-2" d="M598.62,395.1a9,9,0,0,0,6.06-2,8.11,8.11,0,0,0,2.76-5.26H602a2.83,2.83,0,0,1-1.1,1.82,3.66,3.66,0,0,1-2.23.65,3.51,3.51,0,0,1-3-1.57,7,7,0,0,1-1.13-4.14,7.07,7.07,0,0,1,1.13-4.19,3.51,3.51,0,0,1,3-1.57,3.6,3.6,0,0,1,2.23.65,2.81,2.81,0,0,1,1.1,1.82h5.49a8.05,8.05,0,0,0-2.79-5.26,10,10,0,0,0-13,.94,12,12,0,0,0,0,15.17A9,9,0,0,0,598.62,395.1Z"/><path class="cls-2" d="M612.26,388.58a6.29,6.29,0,0,0,1.75,4.86,7,7,0,0,0,4.91,1.62,7.89,7.89,0,0,0,3.6-.63v-4.95a4.35,4.35,0,0,1-2.43.67,2,2,0,0,1-2.3-2.29V379h4.41v-4.5h-4.41v-5.45h-5.53v5.45H609.2V379h3.06Z"/><path class="cls-2" d="M644,395.1a7.05,7.05,0,0,0,2.93-.63A5.84,5.84,0,0,0,649,393v1.66h5.63V365.4H649v10.8a5.84,5.84,0,0,0-2.11-1.48,7.05,7.05,0,0,0-2.93-.63,8.15,8.15,0,0,0-6.68,3,12.72,12.72,0,0,0,0,15A8.19,8.19,0,0,0,644,395.1Zm-2.25-14.56a4.31,4.31,0,0,1,3.51-1.59,4.09,4.09,0,0,1,2.25.65,4,4,0,0,1,1.53,1.69v6.61a4.13,4.13,0,0,1-1.5,1.69,4.18,4.18,0,0,1-2.28.65,4.32,4.32,0,0,1-3.51-1.57,6.13,6.13,0,0,1-1.3-4.05A6.26,6.26,0,0,1,641.73,380.54Z"/><path class="cls-2" d="M668,395.1a9.31,9.31,0,0,0,6-1.87,8,8,0,0,0,2.86-5.15H671.7Q671,390.6,668,390.6a4,4,0,0,1-3.06-1.28,5.57,5.57,0,0,1-1.31-3.53H677v-1.71a10.59,10.59,0,0,0-2.4-7.27,8.51,8.51,0,0,0-6.73-2.72,9,9,0,0,0-7,3,11.88,11.88,0,0,0,0,15.12A9.23,9.23,0,0,0,668,395.1Zm-.05-16.47a3.31,3.31,0,0,1,2.61,1.06,4.09,4.09,0,0,1,1,2.72h-7.78Q664.51,378.63,667.92,378.63Z"/><path class="cls-2" d="M686.15,393a5.84,5.84,0,0,0,2.11,1.48,7.05,7.05,0,0,0,2.93.63,8.19,8.19,0,0,0,6.68-3,12.72,12.72,0,0,0,0-15,8.15,8.15,0,0,0-6.68-3,7.05,7.05,0,0,0-2.93.63,5.84,5.84,0,0,0-2.11,1.48V365.4h-5.63v29.25h5.63Zm0-11.7a4,4,0,0,1,1.53-1.69,4.09,4.09,0,0,1,2.25-.65,4.31,4.31,0,0,1,3.51,1.59,6.26,6.26,0,0,1,1.3,4.08,6.13,6.13,0,0,1-1.3,4.05,4.32,4.32,0,0,1-3.51,1.57,4.17,4.17,0,0,1-3.78-2.34Z"/><rect class="cls-2" x="703.92" y="374.54" width="5.58" height="20.12"/><path class="cls-2" d="M706.71,371.93A3.3,3.3,0,0,0,709,371a3.18,3.18,0,0,0,0-4.57,3.23,3.23,0,0,0-2.32-.92,3.29,3.29,0,0,0-2.34.92,3,3,0,0,0-1,2.27,3,3,0,0,0,1,2.3A3.34,3.34,0,0,0,706.71,371.93Z"/><path class="cls-2" d="M715.58,388.58a6.29,6.29,0,0,0,1.75,4.86,7,7,0,0,0,4.91,1.62,7.89,7.89,0,0,0,3.6-.63v-4.95a4.35,4.35,0,0,1-2.43.67,2,2,0,0,1-2.3-2.29V379h4.41v-4.5h-4.41v-5.45h-5.53v5.45h-3.06V379h3.06Z"/><rect class="cls-2" x="431.38" y="419.54" width="5.58" height="20.12"/><path class="cls-2" d="M434.17,410.54a3.29,3.29,0,0,0-2.34.92,3,3,0,0,0-1,2.27,3,3,0,0,0,1,2.3,3.34,3.34,0,0,0,2.36.9,3.3,3.3,0,0,0,2.32-.9,3.18,3.18,0,0,0,0-4.57A3.23,3.23,0,0,0,434.17,410.54Z"/><path class="cls-2" d="M452.35,427.73l-4.14-1c-1.2-.3-1.8-.82-1.8-1.57a1.56,1.56,0,0,1,.79-1.4,3.43,3.43,0,0,1,1.87-.49c1.68,0,2.73.66,3.15,2h5.31a7.18,7.18,0,0,0-2.68-4.56,9.39,9.39,0,0,0-5.87-1.64,8.89,8.89,0,0,0-5.72,1.82,5.72,5.72,0,0,0-2.29,4.7q0,4.45,5.22,5.67l4.05.9a4.24,4.24,0,0,1,1.55.65,1.28,1.28,0,0,1,.47,1.06c0,1.32-.94,2-2.83,2s-2.93-.73-3.38-2.2h-5.53a6.73,6.73,0,0,0,2.83,4.74,10.32,10.32,0,0,0,6.12,1.69,9.55,9.55,0,0,0,5.92-1.75,5.68,5.68,0,0,0,2.32-4.77Q457.71,429,452.35,427.73Z"/><path class="cls-2" d="M478.9,440.1a7.05,7.05,0,0,0,2.93-.63,5.84,5.84,0,0,0,2.11-1.48v1.66h5.63V410.4h-5.63v10.8a5.84,5.84,0,0,0-2.11-1.48,7.05,7.05,0,0,0-2.93-.63,8.14,8.14,0,0,0-6.68,3,12.72,12.72,0,0,0,0,15A8.18,8.18,0,0,0,478.9,440.1Zm-2.25-14.56a4.31,4.31,0,0,1,3.51-1.59,4.09,4.09,0,0,1,2.25.65,4,4,0,0,1,1.53,1.69v6.61a4.13,4.13,0,0,1-1.5,1.69,4.18,4.18,0,0,1-2.28.65,4.32,4.32,0,0,1-3.51-1.57,6.13,6.13,0,0,1-1.3-4.05A6.26,6.26,0,0,1,476.65,425.54Z"/><path class="cls-2" d="M501.22,440.1a6.93,6.93,0,0,0,5.4-2.29v1.84h5.58V419.54h-5.62v12.78a3.46,3.46,0,0,1-1.31,2,3.68,3.68,0,0,1-2.29.75,3,3,0,0,1-2.43-.95,3.88,3.88,0,0,1-.81-2.61v-12h-5.58v13.14a7.67,7.67,0,0,0,1.86,5.4A6.73,6.73,0,0,0,501.22,440.1Z"/><path class="cls-2" d="M525.52,440.1a9.31,9.31,0,0,0,6.05-1.87,8,8,0,0,0,2.86-5.15h-5.17q-.68,2.52-3.74,2.52a4,4,0,0,1-3.06-1.28,5.57,5.57,0,0,1-1.3-3.53h13.41v-1.71a10.59,10.59,0,0,0-2.41-7.27,8.51,8.51,0,0,0-6.73-2.72,9,9,0,0,0-6.95,3,11.9,11.9,0,0,0,0,15.12A9.21,9.21,0,0,0,525.52,440.1Zm0-16.47a3.31,3.31,0,0,1,2.61,1.06,4.09,4.09,0,0,1,1,2.72h-7.79Q522.05,423.63,525.48,423.63Z"/><rect class="cls-2" x="547.66" y="419.54" width="5.58" height="20.12"/><path class="cls-2" d="M547.12,413.73a3,3,0,0,0,1,2.3,3.49,3.49,0,0,0,4.68,0,3.18,3.18,0,0,0,0-4.57,3.23,3.23,0,0,0-2.32-.92,3.29,3.29,0,0,0-2.34.92A3,3,0,0,0,547.12,413.73Z"/><path class="cls-2" d="M569.08,419.09a6.76,6.76,0,0,0-5.4,2.29v-1.84H558.1v20.11h5.58V426.92a3.42,3.42,0,0,1,1.33-2.05,3.79,3.79,0,0,1,2.32-.75,3.08,3.08,0,0,1,2.45,1,3.87,3.87,0,0,1,.83,2.59v12h5.58V426.51a7.63,7.63,0,0,0-1.87-5.4A6.76,6.76,0,0,0,569.08,419.09Z"/><polygon class="cls-2" points="595.13 439.65 600.76 439.65 600.76 412.02 597.11 412.02 588.7 416.16 588.7 421.79 595.13 418.59 595.13 439.65"/><path class="cls-2" d="M607.91,436.14a9.81,9.81,0,0,0,15.75,0q3-4,3-10.3t-3-10.31a9.81,9.81,0,0,0-15.75,0q-3,4-3,10.31T607.91,436.14Zm3.92-16.92a4.37,4.37,0,0,1,7.92,0,17.48,17.48,0,0,1,0,13.23,4.37,4.37,0,0,1-7.92,0,17.36,17.36,0,0,1,0-13.23Z"/><path class="cls-2" d="M653,421.2a5.84,5.84,0,0,0-2.11-1.48,7.05,7.05,0,0,0-2.93-.63,8.15,8.15,0,0,0-6.68,3,12.72,12.72,0,0,0,0,15,8.19,8.19,0,0,0,6.68,3,7.05,7.05,0,0,0,2.93-.63A5.84,5.84,0,0,0,653,438v1.66h5.63V410.4H653Zm0,11.7a4.13,4.13,0,0,1-1.5,1.69,4.18,4.18,0,0,1-2.28.65,4.32,4.32,0,0,1-3.51-1.57,6.13,6.13,0,0,1-1.3-4.05,6.26,6.26,0,0,1,1.3-4.08,4.31,4.31,0,0,1,3.51-1.59,4.09,4.09,0,0,1,2.25.65,4,4,0,0,1,1.53,1.69Z"/><path class="cls-2" d="M665.81,420.91a7.12,7.12,0,0,0-2.77,4.61h5.31a2.86,2.86,0,0,1,3-1.89,3.19,3.19,0,0,1,2.45.88,3.08,3.08,0,0,1,.83,2.23v1.48a6.34,6.34,0,0,0-2-.81,10.12,10.12,0,0,0-2.61-.36,8.53,8.53,0,0,0-5.55,1.8,5.69,5.69,0,0,0-2.23,4.64,5.83,5.83,0,0,0,2.14,4.77A8.11,8.11,0,0,0,669.7,440a9.62,9.62,0,0,0,3-.45,4.93,4.93,0,0,0,1.93-1v1.08H680V426.83a7.35,7.35,0,0,0-2.23-5.7,10.17,10.17,0,0,0-11.92-.22Zm8.79,13.25a2.58,2.58,0,0,1-1.37,1.28,5.21,5.21,0,0,1-2.27.48,4.76,4.76,0,0,1-2.52-.63,2.15,2.15,0,0,1,0-3.69A4.81,4.81,0,0,1,671,431a5.21,5.21,0,0,1,2.27.47,2.58,2.58,0,0,1,1.37,1.28Z"/><polygon class="cls-2" points="692.6 432.9 687.97 419.54 682.07 419.54 689.77 439.74 686.84 447.08 692.33 447.08 702.82 419.54 697.19 419.54 692.6 432.9"/><path class="cls-2" d="M715.91,427.73l-4.14-1c-1.2-.3-1.8-.82-1.8-1.57a1.58,1.58,0,0,1,.79-1.4,3.45,3.45,0,0,1,1.87-.49c1.68,0,2.73.66,3.15,2h5.31a7.18,7.18,0,0,0-2.68-4.56,9.37,9.37,0,0,0-5.87-1.64,8.89,8.89,0,0,0-5.72,1.82,5.72,5.72,0,0,0-2.29,4.7q0,4.45,5.22,5.67l4,.9a4.16,4.16,0,0,1,1.55.65,1.28,1.28,0,0,1,.47,1.06c0,1.32-.94,2-2.83,2s-2.93-.73-3.38-2.2h-5.53a6.73,6.73,0,0,0,2.83,4.74A10.32,10.32,0,0,0,713,440.1a9.53,9.53,0,0,0,5.92-1.75,5.65,5.65,0,0,0,2.32-4.77Q721.27,429,715.91,427.73Z"/><path class="cls-2" d="M445.36,528.27q0,7-5.72,7t-5.71-7V512.34h-5.76v16.52c0,3.72,1,6.57,3.1,8.57a13.24,13.24,0,0,0,16.76,0c2.06-2,3.09-4.85,3.09-8.57V512.34h-5.76Z"/><path class="cls-2" d="M466.42,519.41a7.05,7.05,0,0,0-2.93.63,5.84,5.84,0,0,0-2.11,1.48v-1.66H455.8v27.53h5.58V538.3a5.74,5.74,0,0,0,2.11,1.49,7.05,7.05,0,0,0,2.93.63,8.2,8.2,0,0,0,6.7-3,12.54,12.54,0,0,0,0-15A8.19,8.19,0,0,0,466.42,519.41ZM468.67,534a4.32,4.32,0,0,1-3.51,1.57,4.18,4.18,0,0,1-2.25-.65,4.07,4.07,0,0,1-1.53-1.69v-6.61a4.34,4.34,0,0,1,1.55-1.69,4,4,0,0,1,2.23-.65,4.31,4.31,0,0,1,3.51,1.59,6.26,6.26,0,0,1,1.3,4.08A6.13,6.13,0,0,1,468.67,534Z"/><path class="cls-2" d="M492.25,521.52a5.89,5.89,0,0,0-2.12-1.48,7,7,0,0,0-2.92-.63,8.17,8.17,0,0,0-6.69,3,12.72,12.72,0,0,0,0,15,8.21,8.21,0,0,0,6.69,3,7,7,0,0,0,2.92-.63,5.78,5.78,0,0,0,2.12-1.49V540h5.62V510.72h-5.62Zm0,11.7a4.17,4.17,0,0,1-3.78,2.34A4.32,4.32,0,0,1,485,534a6.14,6.14,0,0,1-1.31-4,6.26,6.26,0,0,1,1.31-4.08,4.31,4.31,0,0,1,3.51-1.59,4.09,4.09,0,0,1,2.25.65,4,4,0,0,1,1.53,1.69Z"/><path class="cls-2" d="M510.74,519.41a8.88,8.88,0,0,0-5.69,1.82,7.12,7.12,0,0,0-2.77,4.61h5.31a2.86,2.86,0,0,1,3-1.89,3.19,3.19,0,0,1,2.45.88,3.08,3.08,0,0,1,.84,2.22v1.49a6.34,6.34,0,0,0-2-.81,10.12,10.12,0,0,0-2.61-.36,8.55,8.55,0,0,0-5.56,1.8,5.68,5.68,0,0,0-2.23,4.63,5.84,5.84,0,0,0,2.14,4.78,8.11,8.11,0,0,0,5.33,1.75,9.62,9.62,0,0,0,3-.45,5,5,0,0,0,1.94-1V540h5.35V527.14a7.33,7.33,0,0,0-2.23-5.69A8.87,8.87,0,0,0,510.74,519.41Zm3.11,15.07a2.6,2.6,0,0,1-1.38,1.28,5.21,5.21,0,0,1-2.27.48,4.76,4.76,0,0,1-2.52-.63,2.16,2.16,0,0,1,0-3.69,4.81,4.81,0,0,1,2.5-.63,5.21,5.21,0,0,1,2.27.47,2.6,2.6,0,0,1,1.38,1.28Z"/><path class="cls-2" d="M530.32,533.18v-8.82h4.41v-4.5h-4.41v-5.45h-5.54v5.45h-3.06v4.5h3.06v9.53a6.32,6.32,0,0,0,1.76,4.87,7,7,0,0,0,4.9,1.62,7.89,7.89,0,0,0,3.6-.63v-5a4.27,4.27,0,0,1-2.43.68A2,2,0,0,1,530.32,533.18Z"/><path class="cls-2" d="M547.32,519.41a9,9,0,0,0-7,3,11.9,11.9,0,0,0,0,15.12,9.21,9.21,0,0,0,7.06,2.9,9.35,9.35,0,0,0,6.06-1.87,8,8,0,0,0,2.85-5.15h-5.17q-.67,2.52-3.74,2.52a4,4,0,0,1-3.06-1.28,5.57,5.57,0,0,1-1.3-3.53h13.41v-1.72a10.54,10.54,0,0,0-2.41-7.26A8.49,8.49,0,0,0,547.32,519.41Zm-4.14,8.32q.77-3.78,4.19-3.78A3.31,3.31,0,0,1,550,525a4.09,4.09,0,0,1,1,2.72Z"/><path class="cls-2" d="M580.17,519.41a7,7,0,0,0-2.92.63,5.89,5.89,0,0,0-2.12,1.48v-1.66h-5.58v27.53h5.58V538.3a5.78,5.78,0,0,0,2.12,1.49,7,7,0,0,0,2.92.63,8.22,8.22,0,0,0,6.71-3,12.58,12.58,0,0,0,0-15A8.21,8.21,0,0,0,580.17,519.41ZM582.42,534a4.32,4.32,0,0,1-3.51,1.57,4.18,4.18,0,0,1-2.25-.65,4.07,4.07,0,0,1-1.53-1.69v-6.61a4.36,4.36,0,0,1,1.56-1.69,4,4,0,0,1,2.22-.65,4.31,4.31,0,0,1,3.51,1.59,6.26,6.26,0,0,1,1.31,4.08A6.14,6.14,0,0,1,582.42,534Z"/><path class="cls-2" d="M601,519.41a8.88,8.88,0,0,0-5.69,1.82,7.12,7.12,0,0,0-2.77,4.61h5.31a2.86,2.86,0,0,1,3-1.89,3.19,3.19,0,0,1,2.45.88,3.07,3.07,0,0,1,.83,2.22v1.49a6.34,6.34,0,0,0-2-.81,10.12,10.12,0,0,0-2.61-.36,8.53,8.53,0,0,0-5.55,1.8,5.68,5.68,0,0,0-2.23,4.63,5.84,5.84,0,0,0,2.14,4.78,8.11,8.11,0,0,0,5.33,1.75,9.62,9.62,0,0,0,3-.45,4.93,4.93,0,0,0,1.93-1V540h5.36V527.14a7.33,7.33,0,0,0-2.23-5.69A8.87,8.87,0,0,0,601,519.41Zm3.1,15.07a2.58,2.58,0,0,1-1.37,1.28,5.21,5.21,0,0,1-2.27.48,4.76,4.76,0,0,1-2.52-.63,2.15,2.15,0,0,1,0-3.69,4.81,4.81,0,0,1,2.5-.63,5.21,5.21,0,0,1,2.27.47,2.58,2.58,0,0,1,1.37,1.28Z"/><polygon class="cls-2" points="622.11 533.22 617.48 519.86 611.58 519.86 619.28 540.06 616.35 547.39 621.84 547.39 632.33 519.86 626.7 519.86 622.11 533.22"/><path class="cls-2" d="M657.48,519.41a7.83,7.83,0,0,0-6.07,2.56,6.37,6.37,0,0,0-5.4-2.56,6.08,6.08,0,0,0-5.09,2.11v-1.66h-5.58V540h5.58V527a3.26,3.26,0,0,1,1.15-1.91,3.11,3.11,0,0,1,2-.7q2.83,0,2.84,3.6v12h5.62V527a3.22,3.22,0,0,1,1.13-1.93,3.05,3.05,0,0,1,2-.68,2.53,2.53,0,0,1,2.14,1,4.24,4.24,0,0,1,.74,2.63v12h5.58V526.83a7.92,7.92,0,0,0-1.76-5.42A6.11,6.11,0,0,0,657.48,519.41Z"/><path class="cls-2" d="M677.15,519.41a9,9,0,0,0-6.95,3,11.88,11.88,0,0,0,0,15.12,10.35,10.35,0,0,0,13.12,1,8,8,0,0,0,2.86-5.15H681q-.68,2.52-3.73,2.52a4,4,0,0,1-3.06-1.28,5.57,5.57,0,0,1-1.31-3.53h13.41v-1.72a10.58,10.58,0,0,0-2.4-7.26A8.51,8.51,0,0,0,677.15,519.41ZM673,527.73q.76-3.78,4.18-3.78A3.31,3.31,0,0,1,679.8,525a4.09,4.09,0,0,1,1,2.72Z"/><path class="cls-2" d="M700.82,519.41a6.76,6.76,0,0,0-5.4,2.29v-1.84h-5.58V540h5.58V527.24a3.42,3.42,0,0,1,1.33-2,3.75,3.75,0,0,1,2.31-.74,3.09,3.09,0,0,1,2.46,1,3.87,3.87,0,0,1,.83,2.59v12h5.58V526.83a7.63,7.63,0,0,0-1.87-5.4A6.76,6.76,0,0,0,700.82,519.41Z"/><path class="cls-2" d="M719.31,533.18v-8.82h4.41v-4.5h-4.41v-5.45h-5.53v5.45h-3.06v4.5h3.06v9.53a6.32,6.32,0,0,0,1.75,4.87,7,7,0,0,0,4.91,1.62,7.89,7.89,0,0,0,3.6-.63v-5a4.27,4.27,0,0,1-2.43.68A2,2,0,0,1,719.31,533.18Z"/><path class="cls-2" d="M775,602.31l-20-20h18.79a24,24,0,0,0,24-24V495a24,24,0,0,0-8.15-18,24,24,0,0,0,8.15-18V351a24,24,0,0,0-24-24h-49V233.55a23,23,0,0,0-23-23h-252a23,23,0,0,0-23,23V327h-49a24,24,0,0,0-24,24V459a24,24,0,0,0,8.15,18,24,24,0,0,0-8.15,18v63.32a24,24,0,0,0,24,24h49V701.55a23,23,0,0,0,23,23h121v28.69a77.91,77.91,0,0,0,40.9,68.85v23.46a5,5,0,0,0,10,0v-26.5a5,5,0,0,0-2.78-4.48,68,68,0,0,1-38.12-61.33V724.55H677a78.33,78.33,0,0,0,5,95.75,5,5,0,0,0,7.58-6.53,68.35,68.35,0,0,1,0-89.23,5,5,0,0,0-.07-6.61l-63.22-70.21a28.59,28.59,0,0,1,17.86-48l1.39-.11,70.7,70.7.12.11,34.26,34.26a5,5,0,0,0,7.07-7.07l-32.92-32.93V582.29h16.07L768,609.38a139.65,139.65,0,0,1,41.16,99.37V842a5,5,0,0,0,10,0V708.75A149.58,149.58,0,0,0,775,602.31ZM436.79,233.55a13,13,0,0,1,13-13h252a13,13,0,0,1,13,13V327h-278ZM365.79,351a12,12,0,0,1,12-12h396a12,12,0,0,1,12,12V459a12,12,0,0,1-12,12h-396a12,12,0,0,1-12-12Zm349,303.75-63.65-63.65a5,5,0,0,0-3.5-1.46h-.44a36.91,36.91,0,0,0-4,.21,38.59,38.59,0,0,0-24.32,64.68L673,714.55H449.79a13,13,0,0,1-13-13V582.29h278Zm-337-84.43a12,12,0,0,1-12-12V495a12,12,0,0,1,12-12h396a12,12,0,0,1,12,12v63.32a12,12,0,0,1-12,12Z"/><path class="cls-2" d="M576.19,242.1a32,32,0,1,0,31.95,32A32,32,0,0,0,576.19,242.1Zm3.19,44.73a3.2,3.2,0,1,1-6.39,0V274.05a3.2,3.2,0,0,1,6.39,0Zm-3.19-21.78a3.78,3.78,0,1,1,3.78-3.78A3.78,3.78,0,0,1,576.19,265.05Z"/></svg>