<svg id="OUTLINES" xmlns="http://www.w3.org/2000/svg" viewBox="0 0 1152 1008"><defs><style>.cls-1{fill:#fff;}.cls-2{fill:#000f7d;}</style></defs><title>One-time access</title><path class="cls-1" d="M782,276.44H734.5v-25.5a24,24,0,0,0-24-24h-252a24,24,0,0,0-24,24v25.5H386a24,24,0,0,0-24,24V521a24,24,0,0,0,24,24H782a24,24,0,0,0,24-24V300.44A24,24,0,0,0,782,276.44Z"/><path class="cls-2" d="M476.81,586.23h5.94q1.13,3.56,5.49,3.56a5.54,5.54,0,0,0,3.37-.93,3,3,0,0,0,1.26-2.54,2.56,2.56,0,0,0-.78-2,5.76,5.76,0,0,0-2.59-1.12l-4.95-1.13q-7-1.58-7-7.56a7.69,7.69,0,0,1,2.79-6.12,10.61,10.61,0,0,1,7.15-2.38,11.52,11.52,0,0,1,7.36,2.18,9.48,9.48,0,0,1,3.49,5.83H492.6q-1.12-3.28-5.08-3.29a5.18,5.18,0,0,0-3.17.88,2.77,2.77,0,0,0-1.2,2.36q0,2.29,3.11,3l5,1.17q7.24,1.67,7.24,7.78a7.66,7.66,0,0,1-2.88,6.26,11.33,11.33,0,0,1-7.38,2.34,12.81,12.81,0,0,1-7.69-2.21A9.31,9.31,0,0,1,476.81,586.23Z"/><path class="cls-2" d="M502.32,594.11V564.86h5.58v11a7.63,7.63,0,0,1,10.64-.27,7.63,7.63,0,0,1,1.87,5.4v13.14h-5.58v-12a3.85,3.85,0,0,0-.83-2.59,3,3,0,0,0-2.45-1,3.87,3.87,0,0,0-2.32.74,3.45,3.45,0,0,0-1.33,2v12.74Z"/><path class="cls-2" d="M541.56,594.11h-5.35V593a5,5,0,0,1-1.94,1,9.62,9.62,0,0,1-3,.45,8.11,8.11,0,0,1-5.33-1.76,5.83,5.83,0,0,1-2.14-4.77,5.67,5.67,0,0,1,2.23-4.63,8.55,8.55,0,0,1,5.56-1.8,10.12,10.12,0,0,1,2.61.36,6.34,6.34,0,0,1,2,.81v-1.49a3.14,3.14,0,0,0-.83-2.23,3.27,3.27,0,0,0-2.46-.87,2.86,2.86,0,0,0-3,1.89h-5.31a7.16,7.16,0,0,1,2.77-4.62,8.94,8.94,0,0,1,5.69-1.82,8.83,8.83,0,0,1,6.23,2.05,7.32,7.32,0,0,1,2.23,5.69Zm-5.35-5.49v-1.44a2.65,2.65,0,0,0-1.38-1.29,5.36,5.36,0,0,0-2.27-.47,4.81,4.81,0,0,0-2.5.63,2.16,2.16,0,0,0,0,3.69,4.76,4.76,0,0,0,2.52.63,5.36,5.36,0,0,0,2.27-.47A2.64,2.64,0,0,0,536.21,588.62Z"/><path class="cls-2" d="M558.3,573.9v5.58a5.34,5.34,0,0,0-2.79-.67,4.08,4.08,0,0,0-2.47.74,3.41,3.41,0,0,0-1.35,2.09v12.47h-5.58V574h5.58v2a4.86,4.86,0,0,1,4.5-2.43A4.51,4.51,0,0,1,558.3,573.9Z"/><path class="cls-2" d="M573.65,587.54h5.17a8,8,0,0,1-2.86,5.15,9.36,9.36,0,0,1-6.05,1.87,9.18,9.18,0,0,1-7.06-2.91,11.9,11.9,0,0,1,0-15.12,9,9,0,0,1,7-3,8.54,8.54,0,0,1,6.73,2.72,10.61,10.61,0,0,1,2.41,7.27v1.71H565.55a5.54,5.54,0,0,0,1.3,3.53,3.94,3.94,0,0,0,3.06,1.29Q573,590.06,573.65,587.54Zm-3.78-9.45q-3.42,0-4.19,3.78h7.79a4.14,4.14,0,0,0-1-2.73A3.33,3.33,0,0,0,569.87,578.09Z"/><path class="cls-2" d="M590.79,584.07a10.76,10.76,0,0,1,2.7-7.6,10,10,0,0,1,13-1,8.08,8.08,0,0,1,2.79,5.27H603.8a2.87,2.87,0,0,0-1.11-1.83,3.63,3.63,0,0,0-2.22-.65,3.54,3.54,0,0,0-3,1.58,8.29,8.29,0,0,0,0,8.32,3.82,3.82,0,0,0,5.24.92,2.82,2.82,0,0,0,1.11-1.82h5.49a8.14,8.14,0,0,1-2.77,5.27,10,10,0,0,1-13-1A10.71,10.71,0,0,1,590.79,584.07Z"/><path class="cls-2" d="M631.2,584.07a10.6,10.6,0,0,1-2.74,7.56,10.09,10.09,0,0,1-14.22,0,11.82,11.82,0,0,1,0-15.16,10.09,10.09,0,0,1,14.22,0A10.65,10.65,0,0,1,631.2,584.07Zm-5.53,0a7.11,7.11,0,0,0-1.15-4.21,4,4,0,0,0-6.35,0,7.11,7.11,0,0,0-1.14,4.21,7,7,0,0,0,1.14,4.16,4,4,0,0,0,6.35,0A7,7,0,0,0,625.67,584.07Z"/><path class="cls-2" d="M647.85,594.11v-1.67a5.85,5.85,0,0,1-2.11,1.49,7.05,7.05,0,0,1-2.93.63,8.16,8.16,0,0,1-6.68-3,12.7,12.7,0,0,1,0-15,8.15,8.15,0,0,1,6.68-3,7.05,7.05,0,0,1,2.93.63,5.85,5.85,0,0,1,2.11,1.49v-10.8h5.63v29.25Zm0-6.75v-6.62a4.07,4.07,0,0,0-1.53-1.69,4.18,4.18,0,0,0-2.25-.65,4.29,4.29,0,0,0-3.51,1.6,6.21,6.21,0,0,0-1.3,4.07,6.13,6.13,0,0,0,1.3,4,4.33,4.33,0,0,0,3.51,1.58,4.05,4.05,0,0,0,2.27-.66A4,4,0,0,0,647.85,587.36Z"/><path class="cls-2" d="M670.53,587.54h5.18a8,8,0,0,1-2.86,5.15,9.38,9.38,0,0,1-6.05,1.87,9.2,9.2,0,0,1-7.07-2.91,10.67,10.67,0,0,1-2.7-7.58,10.81,10.81,0,0,1,2.72-7.54,9,9,0,0,1,7-3,8.5,8.5,0,0,1,6.72,2.72,10.56,10.56,0,0,1,2.41,7.27v1.71H662.43a5.55,5.55,0,0,0,1.31,3.53,3.94,3.94,0,0,0,3.06,1.29Q669.86,590.06,670.53,587.54Zm-3.78-9.45q-3.42,0-4.18,3.78h7.78a4.14,4.14,0,0,0-1-2.73A3.33,3.33,0,0,0,666.75,578.09Z"/><path class="cls-2" d="M489.69,253.83h26.69V261H497.75v8.57h16.9v7h-16.9v9.34h18.63v7.23H489.69Z"/><path class="cls-2" d="M531,276.29V270h2.24a6.73,6.73,0,0,0,4.26-1.28,4.37,4.37,0,0,0,1.63-3.65,4.72,4.72,0,0,0-1.38-3.49,5,5,0,0,0-3.74-1.38,5.49,5.49,0,0,0-4.06,1.51,5.92,5.92,0,0,0-1.7,3.87h-7.94a13.79,13.79,0,0,1,4.29-8.86,13.26,13.26,0,0,1,9.47-3.49q5.89,0,9.35,3.17a10.71,10.71,0,0,1,3.45,8.28,10.13,10.13,0,0,1-1.34,5.16,8.15,8.15,0,0,1-3.46,3.36,8.67,8.67,0,0,1,4,3.45,9.73,9.73,0,0,1,1.4,5.12,11.28,11.28,0,0,1-3.64,8.64q-3.66,3.39-9.8,3.39a14.85,14.85,0,0,1-10.24-3.52,12.8,12.8,0,0,1-4.28-9.28h8.06a6.77,6.77,0,0,0,2,4.26,6.14,6.14,0,0,0,4.45,1.57,5.91,5.91,0,0,0,4.1-1.44,5.19,5.19,0,0,0-.13-7.62,6.77,6.77,0,0,0-4.48-1.44Z"/><path class="cls-2" d="M580.89,295.88l-3.2-4A18.41,18.41,0,0,1,556.31,288q-5.17-5.73-5.18-14.56t5.18-14.6a18.57,18.57,0,0,1,26.79,0q5.21,5.73,5.21,14.56A20.65,20.65,0,0,1,583,287.94l3.14,3.84Zm-.83-22.4a14.66,14.66,0,0,0-2.85-9.41,9.14,9.14,0,0,0-7.52-3.59,9,9,0,0,0-7.43,3.59,14.83,14.83,0,0,0-2.81,9.41,15.23,15.23,0,0,0,2.81,9.5,8.92,8.92,0,0,0,7.43,3.68,11.23,11.23,0,0,0,3.39-.45l-3.2-4,5.25-4L578.2,282A16.86,16.86,0,0,0,580.06,273.48Z"/><path class="cls-2" d="M606.17,293.76a16.15,16.15,0,0,1-10.11-3.07,9.91,9.91,0,0,1-4-8.32,9.53,9.53,0,0,1,2-6.08,9.35,9.35,0,0,1,4.89-3.33,9,9,0,0,1-4.09-3.39,9.28,9.28,0,0,1-1.54-5.31,9.78,9.78,0,0,1,3.74-8.13,15.77,15.77,0,0,1,18.34,0,9.81,9.81,0,0,1,3.71,8.13,9.35,9.35,0,0,1-1.53,5.31,9.06,9.06,0,0,1-4.1,3.39,9.41,9.41,0,0,1,4.9,3.33,9.59,9.59,0,0,1,2,6.08,9.93,9.93,0,0,1-4,8.32A16.1,16.1,0,0,1,606.17,293.76Zm0-6.46a6.64,6.64,0,0,0,4.45-1.5,5.57,5.57,0,0,0,0-8.13,7.4,7.4,0,0,0-9,0,5.57,5.57,0,0,0,0,8.13A6.69,6.69,0,0,0,606.17,287.3Zm0-17.79a5.5,5.5,0,0,0,3.77-1.35,4.5,4.5,0,0,0,1.54-3.58,4.68,4.68,0,0,0-1.54-3.68,5.43,5.43,0,0,0-3.77-1.38,5.52,5.52,0,0,0-3.84,1.38,4.68,4.68,0,0,0-1.54,3.68,4.5,4.5,0,0,0,1.54,3.58A5.59,5.59,0,0,0,606.17,269.51Z"/><path class="cls-2" d="M624,288.64a4.92,4.92,0,0,1,5-5,4.94,4.94,0,0,1,3.58,1.44,4.78,4.78,0,0,1,1.47,3.55,4.7,4.7,0,0,1-1.47,3.49,4.94,4.94,0,0,1-3.58,1.44,4.84,4.84,0,0,1-3.56-1.44A4.75,4.75,0,0,1,624,288.64Zm2.12-8.19-1.92-26.62h9.66L632,280.45Z"/><path class="cls-2" d="M651.8,273.92a7.21,7.21,0,0,0-5.63,2.63h-6.4V253.83h23v7.1H646.42v8a11,11,0,0,1,6.34-1.79,12.11,12.11,0,0,1,9.18,3.65,13.47,13.47,0,0,1-10,23,14.3,14.3,0,0,1-10-3.48,13.41,13.41,0,0,1-4.28-9.32h7.93a6.82,6.82,0,0,0,1.95,4.26,6.05,6.05,0,0,0,4.39,1.57,5.4,5.4,0,0,0,4.22-1.79,6.77,6.77,0,0,0,1.6-4.68,6.63,6.63,0,0,0-1.6-4.6A5.53,5.53,0,0,0,651.8,273.92Z"/><path class="cls-2" d="M576.5,656.5a23,23,0,1,0,23,23A23,23,0,0,0,576.5,656.5Zm0,36a13,13,0,1,1,13-13A13,13,0,0,1,576.5,692.5Z"/><path class="cls-2" d="M791,629.57a24,24,0,0,0,7.55-17.46v-63a24,24,0,0,0-8.43-18.25,23.92,23.92,0,0,0,7.93-17.8V292.5a24,24,0,0,0-24-24H726.5V243a24,24,0,0,0-24-24h-252a24,24,0,0,0-24,24v25.5H378a24,24,0,0,0-24,24V513.06a24,24,0,0,0,8.43,18.24,24,24,0,0,0-7.93,17.81v63a24,24,0,0,0,24,24h49V711a23,23,0,0,0,23,23h121v28.69a77.92,77.92,0,0,0,40.91,68.85V855a5,5,0,0,0,10,0V828.5a5,5,0,0,0-2.79-4.48,68,68,0,0,1-38.12-61.33V734h96.16a78.31,78.31,0,0,0,5.05,95.75,5,5,0,0,0,7.57-6.53,68.35,68.35,0,0,1,0-89.23,5,5,0,0,0-.07-6.61l-1.46-1.62a1,1,0,0,1-.08-.11L627,657.17a28.51,28.51,0,0,1-7-25.94,2.89,2.89,0,0,0,0-.29,28.67,28.67,0,0,1,26.18-21.84L751.33,714.17a5,5,0,0,0,7.07-7.07l-32.9-32.9V636.11h49a23.75,23.75,0,0,0,7.86-1.33,141.14,141.14,0,0,1,27.46,83.42V851.44a5,5,0,0,0,10,0V718.2A151.21,151.21,0,0,0,791,629.57ZM438.5,243a12,12,0,0,1,12-12h252a12,12,0,0,1,12,12v63a12,12,0,0,1-12,12h-252a12,12,0,0,1-12-12V243ZM366,292.5a12,12,0,0,1,12-12h48.5V306a24,24,0,0,0,24,24h252a24,24,0,0,0,24-24V280.5H774a12,12,0,0,1,12,12V513.06a12,12,0,0,1-12,12H378a12,12,0,0,1-12-12ZM437.5,711V636.11H609.32c0,.51,0,1,0,1.54a38.38,38.38,0,0,0,10.33,26.29L673.71,724H450.5A13,13,0,0,1,437.5,711Zm278-46.81-28.08-28.08H715.5Zm-40.09-40.08-23.58-23.59a5,5,0,0,0-3.47-1.46h-.47a38.66,38.66,0,0,0-36.14,25.06H378.5a12,12,0,0,1-12-12v-63a12,12,0,0,1,12-12h396a12,12,0,0,1,12,12v63a12,12,0,0,1-12,12Z"/><path class="cls-2" d="M484.49,487.23h5.94q1.13,3.56,5.49,3.56a5.57,5.57,0,0,0,3.38-.93,3,3,0,0,0,1.26-2.54,2.53,2.53,0,0,0-.79-2,5.71,5.71,0,0,0-2.59-1.12l-4.95-1.13q-7-1.57-7-7.56a7.69,7.69,0,0,1,2.79-6.12,10.63,10.63,0,0,1,7.16-2.38,11.54,11.54,0,0,1,7.36,2.18A9.51,9.51,0,0,1,506,475h-5.71q-1.12-3.29-5.09-3.29a5.2,5.2,0,0,0-3.17.88,2.78,2.78,0,0,0-1.19,2.36q0,2.29,3.1,3l5,1.17q7.25,1.67,7.25,7.78a7.66,7.66,0,0,1-2.88,6.26,11.33,11.33,0,0,1-7.38,2.34,12.84,12.84,0,0,1-7.7-2.21A9.31,9.31,0,0,1,484.49,487.23Z"/><path class="cls-2" d="M515.9,469.19a3,3,0,0,1-1,2.29,3.49,3.49,0,0,1-4.68,0,3,3,0,0,1-1-2.29,3,3,0,0,1,1-2.28,3.34,3.34,0,0,1,2.34-.92,3.27,3.27,0,0,1,2.32.92A3.05,3.05,0,0,1,515.9,469.19Zm-.49,5.8v20.12h-5.58V475Z"/><path class="cls-2" d="M520.27,495.11V475h5.58v1.85a7.63,7.63,0,0,1,10.64-.27,7.63,7.63,0,0,1,1.87,5.4v13.14h-5.58v-12a3.85,3.85,0,0,0-.83-2.59,3.07,3.07,0,0,0-2.46-1,3.82,3.82,0,0,0-2.31.74,3.45,3.45,0,0,0-1.33,2.05v12.74Z"/><path class="cls-2" d="M555.82,493.76v-1.17a6.05,6.05,0,0,1-5,2.07,8.28,8.28,0,0,1-6.66-2.93,11.49,11.49,0,0,1,0-14.26,8.28,8.28,0,0,1,6.66-2.93,6.2,6.2,0,0,1,5,2V475h5.53V492.9q0,5-2.7,7.54A10,10,0,0,1,551.5,503a10.32,10.32,0,0,1-6.41-1.89,7.53,7.53,0,0,1-3-5.26h5.4q.68,2.84,4,2.83Q555.82,498.66,555.82,493.76Zm0-5.9v-6.57a4.14,4.14,0,0,0-3.78-2.07,4.32,4.32,0,0,0-3.47,1.49,5.78,5.78,0,0,0-1.26,3.87,5.87,5.87,0,0,0,1.26,3.89,4.6,4.6,0,0,0,5.7.9A4.49,4.49,0,0,0,555.82,487.86Z"/><path class="cls-2" d="M571.79,465.86v29.25h-5.58V465.86Z"/><path class="cls-2" d="M588.89,488.54h5.18a8,8,0,0,1-2.86,5.15,9.38,9.38,0,0,1-6.05,1.87,9.2,9.2,0,0,1-7.07-2.91,11.88,11.88,0,0,1,0-15.12,9,9,0,0,1,7-3,8.5,8.5,0,0,1,6.72,2.72,10.56,10.56,0,0,1,2.41,7.27v1.71H580.79a5.55,5.55,0,0,0,1.31,3.53,3.94,3.94,0,0,0,3.06,1.29Q588.22,491.06,588.89,488.54Zm-3.78-9.45q-3.42,0-4.18,3.78h7.78a4.14,4.14,0,0,0-1-2.73A3.33,3.33,0,0,0,585.11,479.09Z"/><path class="cls-2" d="M625.12,475v20.12h-5.58v-1.85a6.93,6.93,0,0,1-5.4,2.3,6.72,6.72,0,0,1-5.2-2,7.63,7.63,0,0,1-1.87-5.4V475h5.58v12a3.88,3.88,0,0,0,.81,2.61,3,3,0,0,0,2.43.94,3.76,3.76,0,0,0,2.3-.74,3.5,3.5,0,0,0,1.3-2.05V475Z"/><path class="cls-2" d="M628.63,489.12h5.53c.45,1.47,1.58,2.21,3.38,2.21s2.83-.66,2.83-2a1.3,1.3,0,0,0-.47-1.06,4.07,4.07,0,0,0-1.55-.65l-4.05-.9q-5.22-1.22-5.22-5.67a5.75,5.75,0,0,1,2.29-4.71,8.94,8.94,0,0,1,5.72-1.82,9.45,9.45,0,0,1,5.87,1.64,7.21,7.21,0,0,1,2.68,4.57h-5.31q-.63-2-3.15-2a3.44,3.44,0,0,0-1.87.5,1.55,1.55,0,0,0-.79,1.39c0,.75.6,1.28,1.8,1.58l4.14.94q5.35,1.31,5.36,5.85a5.68,5.68,0,0,1-2.32,4.77,9.55,9.55,0,0,1-5.92,1.76,10.39,10.39,0,0,1-6.12-1.69A6.77,6.77,0,0,1,628.63,489.12Z"/><path class="cls-2" d="M661.84,488.54H667a8,8,0,0,1-2.86,5.15,9.36,9.36,0,0,1-6,1.87,9.18,9.18,0,0,1-7.06-2.91,11.9,11.9,0,0,1,0-15.12,9,9,0,0,1,7-3,8.54,8.54,0,0,1,6.73,2.72,10.61,10.61,0,0,1,2.41,7.27v1.71H653.74a5.54,5.54,0,0,0,1.3,3.53,3.94,3.94,0,0,0,3.06,1.29Q661.16,491.06,661.84,488.54Zm-3.78-9.45q-3.42,0-4.19,3.78h7.79a4.14,4.14,0,0,0-1-2.73A3.33,3.33,0,0,0,658.06,479.09Z"/><rect class="cls-2" x="531.23" y="392.5" width="81.44" height="8.84" transform="translate(-113.15 520.68) rotate(-45)"/><path class="cls-2" d="M595.59,413.1H576.15l9.81-9.71q3.88-3.69,5.88-5.93a27,27,0,0,0,3.78-5.83,15.9,15.9,0,0,0,1.8-7.19c0-.14,0-.28,0-.42l-42.1,42.11a2,2,0,0,0,1.11.38h39.18a2,2,0,0,0,2-2v-9.35A2,2,0,0,0,595.59,413.1Z"/><path class="cls-2" d="M574.88,396.1,555,415.91a2,2,0,0,0-.59,1.43s41.82-39.88,41.5-40.6a16.44,16.44,0,0,0-4.25-5.75q-5.77-5.1-15.59-5.1-9.22,0-15.16,5.63a21.68,21.68,0,0,0-6.43,11.83,2,2,0,0,0,2,2.45h12.08a2,2,0,0,0,2-1.53,6.68,6.68,0,0,1,1.44-2.69,5.24,5.24,0,0,1,4.13-1.7,5.25,5.25,0,0,1,5.63,5.54,8.08,8.08,0,0,1-1.6,4.71A53.06,53.06,0,0,1,574.88,396.1Z"/><path class="cls-2" d="M576,445a47.06,47.06,0,1,1,47.06-47.06A47.11,47.11,0,0,1,576,445Zm0-85.28a38.22,38.22,0,1,0,38.22,38.22A38.27,38.27,0,0,0,576,359.71Z"/></svg>