<svg id="OUTLINES" xmlns="http://www.w3.org/2000/svg" viewBox="0 0 1152 1008"><defs><style>.cls-1{fill:#fff;}.cls-2{fill:#000f7d;}.cls-3{fill:none;}</style></defs><title>Opt-in to give consent</title><path class="cls-1" d="M806,467V305a24,24,0,0,0-24-24H386a24,24,0,0,0-24,24V467a24,24,0,0,0,8.15,18A24,24,0,0,0,362,503v63a24,24,0,0,0,24,24H566a24,24,0,0,0,18-8.15A24,24,0,0,0,602,590H782a24,24,0,0,0,24-24V503a24,24,0,0,0-8.15-18A24,24,0,0,0,806,467Z"/><path class="cls-2" d="M468.35,512V539.6h-4.54l-13.05-18.41V539.6h-5.54V512h5.4l12.2,17.46V512Z"/><path class="cls-2" d="M491.89,529.56a10.59,10.59,0,0,1-2.75,7.56,10.09,10.09,0,0,1-14.22,0,11.85,11.85,0,0,1,0-15.16,10.09,10.09,0,0,1,14.22,0A10.67,10.67,0,0,1,491.89,529.56Zm-5.54,0a7.08,7.08,0,0,0-1.14-4.2,4,4,0,0,0-6.35,0,8.19,8.19,0,0,0,0,8.37,4,4,0,0,0,6.35,0A7,7,0,0,0,486.35,529.56Z"/><path class="cls-2" d="M665.18,523.67l6.66-11.7h6.08l-10,17.15V539.6h-5.71V529.12L652.22,512h6.26Z"/><path class="cls-2" d="M689.71,533h5.17a8,8,0,0,1-2.85,5.15,9.35,9.35,0,0,1-6.06,1.87,9.21,9.21,0,0,1-7.06-2.9,11.9,11.9,0,0,1,0-15.12,9,9,0,0,1,7-3,8.51,8.51,0,0,1,6.73,2.72A10.59,10.59,0,0,1,695,529v1.71H681.61a5.57,5.57,0,0,0,1.3,3.53,4,4,0,0,0,3.06,1.28Q689,535.55,689.71,533Zm-3.78-9.45q-3.42,0-4.19,3.78h7.79a4.09,4.09,0,0,0-1-2.72A3.31,3.31,0,0,0,685.93,523.58Z"/><path class="cls-2" d="M697.31,533.62h5.54c.45,1.47,1.57,2.2,3.37,2.2s2.84-.66,2.84-2a1.29,1.29,0,0,0-.48-1.06,4.16,4.16,0,0,0-1.55-.65l-4-.9q-5.22-1.22-5.22-5.67a5.73,5.73,0,0,1,2.3-4.7,8.86,8.86,0,0,1,5.71-1.82,9.37,9.37,0,0,1,5.87,1.64,7.14,7.14,0,0,1,2.68,4.57H709q-.63-2-3.15-2a3.45,3.45,0,0,0-1.87.49,1.57,1.57,0,0,0-.78,1.4c0,.75.6,1.27,1.8,1.57l4.14.95q5.36,1.3,5.35,5.85a5.65,5.65,0,0,1-2.32,4.77,9.49,9.49,0,0,1-5.91,1.75,10.32,10.32,0,0,1-6.12-1.69A6.74,6.74,0,0,1,697.31,533.62Z"/><path class="cls-2" d="M405.79,337.75h-4.91v8.52h-5.09V321.71h10a9.08,9.08,0,0,1,6.3,2.1,8.68,8.68,0,0,1,0,11.86A9.17,9.17,0,0,1,405.79,337.75Zm3.6-8a3.62,3.62,0,0,0-1-2.71,4,4,0,0,0-2.92-1h-4.59v7.32h4.59a4,4,0,0,0,2.92-1A3.57,3.57,0,0,0,409.39,329.75Z"/><path class="cls-2" d="M427.79,340.43h4.6a7.12,7.12,0,0,1-2.54,4.58,8.33,8.33,0,0,1-5.38,1.66,8.16,8.16,0,0,1-6.28-2.59,9.46,9.46,0,0,1-2.4-6.73,9.58,9.58,0,0,1,2.42-6.7,8,8,0,0,1,6.18-2.66,7.53,7.53,0,0,1,6,2.42,9.36,9.36,0,0,1,2.14,6.46v1.52H420.59a5,5,0,0,0,1.16,3.14,3.52,3.52,0,0,0,2.72,1.14C426.29,342.67,427.39,341.92,427.79,340.43Zm-3.36-8.4q-3,0-3.72,3.36h6.92a3.6,3.6,0,0,0-.88-2.42A2.94,2.94,0,0,0,424.43,332Z"/><path class="cls-2" d="M446.51,328.31v5a4.72,4.72,0,0,0-2.48-.6,3.7,3.7,0,0,0-2.2.66,3.08,3.08,0,0,0-1.2,1.86v11.08h-5V328.39h5v1.76a4.33,4.33,0,0,1,4-2.16A3.93,3.93,0,0,1,446.51,328.31Z"/><path class="cls-2" d="M448.39,341h4.92a2.77,2.77,0,0,0,3,2c1.68,0,2.52-.59,2.52-1.76a1.13,1.13,0,0,0-.42-.94,3.77,3.77,0,0,0-1.38-.59l-3.6-.79q-4.64-1.08-4.64-5a5.09,5.09,0,0,1,2-4.18,7.93,7.93,0,0,1,5.08-1.62,8.31,8.31,0,0,1,5.22,1.46,6.33,6.33,0,0,1,2.38,4.06h-4.72a2.57,2.57,0,0,0-2.8-1.76,3,3,0,0,0-1.66.44,1.39,1.39,0,0,0-.7,1.24c0,.66.54,1.13,1.6,1.4l3.68.84c3.18.77,4.76,2.5,4.76,5.2a5,5,0,0,1-2.06,4.24,8.45,8.45,0,0,1-5.26,1.56,9.22,9.22,0,0,1-5.44-1.5A6,6,0,0,1,448.39,341Z"/><path class="cls-2" d="M483.43,337.35a9.43,9.43,0,0,1-2.44,6.72,9,9,0,0,1-12.64,0,10.54,10.54,0,0,1,0-13.49,9,9,0,0,1,12.64,0A9.49,9.49,0,0,1,483.43,337.35Zm-4.92,0a6.25,6.25,0,0,0-1-3.74,3.51,3.51,0,0,0-5.64,0,6.25,6.25,0,0,0-1,3.74,6.15,6.15,0,0,0,1,3.69,3.5,3.5,0,0,0,5.64,0A6.15,6.15,0,0,0,478.51,337.35Z"/><path class="cls-2" d="M486.59,346.27V328.39h5V330a6.79,6.79,0,0,1,9.46-.24,6.76,6.76,0,0,1,1.66,4.79v11.69h-5V335.62a3.36,3.36,0,0,0-.74-2.29,2.69,2.69,0,0,0-2.18-.86,3.46,3.46,0,0,0-2.06.65,3.12,3.12,0,0,0-1.18,1.83v11.32Z"/><path class="cls-2" d="M521.47,346.27h-4.76v-1a4.56,4.56,0,0,1-1.72.88,8.69,8.69,0,0,1-2.64.39,7.23,7.23,0,0,1-4.74-1.55,5.22,5.22,0,0,1-1.9-4.24,5,5,0,0,1,2-4.12,7.59,7.59,0,0,1,4.94-1.6,8.69,8.69,0,0,1,2.32.32,5.44,5.44,0,0,1,1.76.72v-1.32a2.73,2.73,0,0,0-.74-2,2.86,2.86,0,0,0-2.18-.78,2.54,2.54,0,0,0-2.64,1.68h-4.72a6.37,6.37,0,0,1,2.46-4.1A8,8,0,0,1,514,328a7.84,7.84,0,0,1,5.54,1.82,6.52,6.52,0,0,1,2,5.06Zm-4.76-4.88v-1.28a2.28,2.28,0,0,0-1.22-1.14,4.71,4.71,0,0,0-2-.43,4.22,4.22,0,0,0-2.22.57,1.91,1.91,0,0,0,0,3.28,4.28,4.28,0,0,0,2.24.56,4.71,4.71,0,0,0,2-.42A2.32,2.32,0,0,0,516.71,341.39Z"/><path class="cls-2" d="M530.47,320.27v26h-5v-26Z"/><path class="cls-2" d="M540.19,323.23a2.66,2.66,0,0,1-.86,2,2.93,2.93,0,0,1-2.06.8,3,3,0,0,1-2.1-.8,2.7,2.7,0,0,1-.86-2,2.67,2.67,0,0,1,.88-2,2.94,2.94,0,0,1,2.08-.82,2.86,2.86,0,0,1,2.06.82A2.65,2.65,0,0,1,540.19,323.23Zm-.44,5.16v17.88h-5V328.39Z"/><path class="cls-2" d="M542.91,341h4.92a2.77,2.77,0,0,0,3,2c1.68,0,2.52-.59,2.52-1.76a1.13,1.13,0,0,0-.42-.94,3.77,3.77,0,0,0-1.38-.59l-3.6-.79q-4.63-1.08-4.64-5a5.09,5.09,0,0,1,2-4.18,7.93,7.93,0,0,1,5.08-1.62,8.33,8.33,0,0,1,5.22,1.46,6.33,6.33,0,0,1,2.38,4.06h-4.72a2.58,2.58,0,0,0-2.8-1.76,3,3,0,0,0-1.66.44,1.37,1.37,0,0,0-.7,1.24c0,.66.54,1.13,1.6,1.4l3.68.84c3.18.77,4.76,2.5,4.76,5.2a5.05,5.05,0,0,1-2.06,4.24,8.47,8.47,0,0,1-5.26,1.56,9.22,9.22,0,0,1-5.44-1.5A6,6,0,0,1,542.91,341Z"/><path class="cls-2" d="M572.43,340.43H577a7.12,7.12,0,0,1-2.54,4.58,8.33,8.33,0,0,1-5.38,1.66,8.16,8.16,0,0,1-6.28-2.59,9.46,9.46,0,0,1-2.4-6.73,9.58,9.58,0,0,1,2.42-6.7A8,8,0,0,1,569,328a7.53,7.53,0,0,1,6,2.42,9.36,9.36,0,0,1,2.14,6.46v1.52H565.23a5,5,0,0,0,1.16,3.14,3.52,3.52,0,0,0,2.72,1.14C570.93,342.67,572,341.92,572.43,340.43Zm-3.36-8.4q-3,0-3.72,3.36h6.92a3.6,3.6,0,0,0-.88-2.42A2.94,2.94,0,0,0,569.07,332Z"/><path class="cls-2" d="M589.87,340.87v-8.48h-2.72v-4h2.72v-4.85h4.92v4.85h3.92v4h-3.92v7.84a1.81,1.81,0,0,0,2,2,3.85,3.85,0,0,0,2.16-.6v4.4a7.07,7.07,0,0,1-3.2.55,6.18,6.18,0,0,1-4.36-1.43A5.6,5.6,0,0,1,589.87,340.87Z"/><path class="cls-2" d="M602.59,346.27v-26h5V330a6.79,6.79,0,0,1,9.46-.24,6.76,6.76,0,0,1,1.66,4.79v11.69h-5V335.62a3.41,3.41,0,0,0-.74-2.29,2.69,2.69,0,0,0-2.18-.86,3.46,3.46,0,0,0-2.06.65,3.12,3.12,0,0,0-1.18,1.83v11.32Z"/><path class="cls-2" d="M628.19,323.23a2.7,2.7,0,0,1-.86,2,2.93,2.93,0,0,1-2.06.8,3,3,0,0,1-2.1-.8,2.7,2.7,0,0,1-.86-2,2.63,2.63,0,0,1,.88-2,2.94,2.94,0,0,1,2.08-.82,2.86,2.86,0,0,1,2.06.82A2.68,2.68,0,0,1,628.19,323.23Zm-.44,5.16v17.88h-5V328.39Z"/><path class="cls-2" d="M630.91,341h4.92a2.77,2.77,0,0,0,3,2c1.68,0,2.52-.59,2.52-1.76a1.13,1.13,0,0,0-.42-.94,3.77,3.77,0,0,0-1.38-.59l-3.6-.79q-4.63-1.08-4.64-5a5.09,5.09,0,0,1,2-4.18,7.91,7.91,0,0,1,5.08-1.62,8.35,8.35,0,0,1,5.22,1.46,6.33,6.33,0,0,1,2.38,4.06h-4.72a2.58,2.58,0,0,0-2.8-1.76,3,3,0,0,0-1.66.44,1.37,1.37,0,0,0-.7,1.24c0,.66.53,1.13,1.6,1.4l3.68.84q4.76,1.15,4.76,5.2a5.05,5.05,0,0,1-2.06,4.24,8.47,8.47,0,0,1-5.26,1.56,9.2,9.2,0,0,1-5.44-1.5A6,6,0,0,1,630.91,341Z"/><path class="cls-2" d="M672.71,346.27H668v-1a4.56,4.56,0,0,1-1.72.88,8.78,8.78,0,0,1-2.64.39,7.23,7.23,0,0,1-4.74-1.55,5.19,5.19,0,0,1-1.9-4.24,5,5,0,0,1,2-4.12,7.59,7.59,0,0,1,4.94-1.6,8.69,8.69,0,0,1,2.32.32,5.44,5.44,0,0,1,1.76.72v-1.32a2.78,2.78,0,0,0-.74-2A2.86,2.86,0,0,0,665,332a2.54,2.54,0,0,0-2.64,1.68h-4.72a6.37,6.37,0,0,1,2.46-4.1,9,9,0,0,1,10.6.2,6.52,6.52,0,0,1,2,5.06ZM668,341.39v-1.28a2.28,2.28,0,0,0-1.22-1.14,4.71,4.71,0,0,0-2-.43,4.22,4.22,0,0,0-2.22.57,1.79,1.79,0,0,0-.94,1.64,1.82,1.82,0,0,0,.92,1.64,4.25,4.25,0,0,0,2.24.56,4.71,4.71,0,0,0,2-.42A2.32,2.32,0,0,0,668,341.39Z"/><path class="cls-2" d="M687.59,328.31v5a4.77,4.77,0,0,0-2.48-.6,3.65,3.65,0,0,0-2.2.66,3,3,0,0,0-1.2,1.86v11.08h-5V328.39h5v1.76a4.32,4.32,0,0,1,4-2.16A4,4,0,0,1,687.59,328.31Z"/><path class="cls-2" d="M691.91,340.87v-8.48h-2.72v-4h2.72v-4.85h4.92v4.85h3.92v4h-3.92v7.84a1.81,1.81,0,0,0,2,2,3.85,3.85,0,0,0,2.16-.6v4.4a7.1,7.1,0,0,1-3.2.55,6.18,6.18,0,0,1-4.36-1.43A5.6,5.6,0,0,1,691.91,340.87Z"/><path class="cls-2" d="M710,323.23a2.7,2.7,0,0,1-.86,2,3.1,3.1,0,0,1-4.16,0,2.66,2.66,0,0,1-.86-2,2.63,2.63,0,0,1,.88-2,2.94,2.94,0,0,1,2.08-.82,2.88,2.88,0,0,1,2.06.82A2.68,2.68,0,0,1,710,323.23Zm-.44,5.16v17.88h-5V328.39Z"/><path class="cls-2" d="M712.79,337.35a9.6,9.6,0,0,1,2.4-6.77,8.86,8.86,0,0,1,11.56-.83,7.2,7.2,0,0,1,2.48,4.68h-4.88a2.52,2.52,0,0,0-1-1.62,3.21,3.21,0,0,0-2-.58,3.12,3.12,0,0,0-2.68,1.39,6.29,6.29,0,0,0-1,3.73,6.19,6.19,0,0,0,1,3.68,3.13,3.13,0,0,0,2.68,1.4,3.27,3.27,0,0,0,2-.58,2.58,2.58,0,0,0,1-1.62h4.88a7.27,7.27,0,0,1-2.46,4.68,8.87,8.87,0,0,1-11.58-.84A9.54,9.54,0,0,1,712.79,337.35Z"/><path class="cls-2" d="M737.23,320.27v26h-5v-26Z"/><path class="cls-2" d="M752.43,340.43H757a7.16,7.16,0,0,1-2.54,4.58,8.37,8.37,0,0,1-5.38,1.66,8.15,8.15,0,0,1-6.28-2.59,10.56,10.56,0,0,1,0-13.43A8,8,0,0,1,749,328a7.55,7.55,0,0,1,6,2.42,9.41,9.41,0,0,1,2.14,6.46v1.52H745.23a4.92,4.92,0,0,0,1.16,3.14,3.5,3.5,0,0,0,2.72,1.14C750.92,342.67,752,341.92,752.43,340.43Zm-3.36-8.4q-3,0-3.72,3.36h6.92a3.65,3.65,0,0,0-.88-2.42A3,3,0,0,0,749.07,332Z"/><path class="cls-2" d="M434.45,387.79v1.48h-5v-26h5v9.6a5.23,5.23,0,0,1,1.88-1.32,6.18,6.18,0,0,1,2.6-.56,7.23,7.23,0,0,1,5.94,2.68,11.29,11.29,0,0,1,0,13.34,7.27,7.27,0,0,1-5.94,2.66,6.33,6.33,0,0,1-2.6-.56A5.48,5.48,0,0,1,434.45,387.79Zm0-10.4v5.88a3.71,3.71,0,0,0,3.36,2.08,3.84,3.84,0,0,0,3.12-1.4,6.2,6.2,0,0,0,0-7.22,3.8,3.8,0,0,0-3.12-1.42,3.67,3.67,0,0,0-2,.58A3.57,3.57,0,0,0,434.45,377.39Z"/><path class="cls-2" d="M457.17,395.87h-4.88l2.6-6.52-6.84-18h5.24l4.12,11.88,4.08-11.88h5Z"/><path class="cls-2" d="M478.73,383.87v-8.48H476v-4h2.72v-4.84h4.92v4.84h3.92v4h-3.92v7.84a1.8,1.8,0,0,0,2,2,3.85,3.85,0,0,0,2.16-.6v4.4a7,7,0,0,1-3.2.56,6.2,6.2,0,0,1-4.36-1.44A5.6,5.6,0,0,1,478.73,383.87Z"/><path class="cls-2" d="M502.17,383.43h4.6a7.12,7.12,0,0,1-2.54,4.58,8.33,8.33,0,0,1-5.38,1.66,8.19,8.19,0,0,1-6.28-2.58,10.57,10.57,0,0,1,0-13.44,8,8,0,0,1,6.18-2.66,7.53,7.53,0,0,1,6,2.42,9.36,9.36,0,0,1,2.14,6.46v1.52H495a5,5,0,0,0,1.16,3.14,3.52,3.52,0,0,0,2.72,1.14C500.67,385.67,501.77,384.92,502.17,383.43Zm-3.36-8.4q-3,0-3.72,3.36H502a3.6,3.6,0,0,0-.88-2.42A2.94,2.94,0,0,0,498.81,375Z"/><path class="cls-2" d="M515,363.27v26h-5v-26Z"/><path class="cls-2" d="M524.29,363.27v26h-5v-26Z"/><path class="cls-2" d="M534,366.23a2.66,2.66,0,0,1-.86,2,2.93,2.93,0,0,1-2.06.8,3,3,0,0,1-2.1-.8,2.7,2.7,0,0,1-.86-2,2.63,2.63,0,0,1,.88-2,2.94,2.94,0,0,1,2.08-.82,2.86,2.86,0,0,1,2.06.82A2.65,2.65,0,0,1,534,366.23Zm-.44,5.16v17.88h-5V371.39Z"/><path class="cls-2" d="M537.89,389.27V371.39h5V373a6.79,6.79,0,0,1,9.46-.24,6.79,6.79,0,0,1,1.66,4.8v11.68h-5V378.63a3.37,3.37,0,0,0-.74-2.3,2.69,2.69,0,0,0-2.18-.86,3.4,3.4,0,0,0-2.06.66,3.06,3.06,0,0,0-1.18,1.82v11.32Z"/><path class="cls-2" d="M569.49,388.07v-1a5.4,5.4,0,0,1-4.4,1.84,7.37,7.37,0,0,1-5.92-2.6,10.24,10.24,0,0,1,0-12.68,7.34,7.34,0,0,1,5.92-2.6,5.51,5.51,0,0,1,4.4,1.8v-1.4h4.92v15.92q0,4.44-2.4,6.7a8.93,8.93,0,0,1-6.36,2.26,9.19,9.19,0,0,1-5.7-1.68,6.73,6.73,0,0,1-2.62-4.68h4.8c.4,1.68,1.58,2.52,3.52,2.52C568.21,392.43,569.49,391,569.49,388.07Zm0-5.24V377a3.67,3.67,0,0,0-3.36-1.84,3.84,3.84,0,0,0-3.08,1.32,5.11,5.11,0,0,0-1.12,3.44,5.21,5.21,0,0,0,1.12,3.46,3.82,3.82,0,0,0,3.08,1.34,3.78,3.78,0,0,0,2-.54A4,4,0,0,0,569.49,382.83Z"/><path class="cls-2" d="M603.05,371.39v17.88h-5v-1.64a6.16,6.16,0,0,1-4.8,2,6,6,0,0,1-4.62-1.8,6.79,6.79,0,0,1-1.66-4.8V371.39h5v10.68a3.46,3.46,0,0,0,.72,2.32,2.69,2.69,0,0,0,2.16.84,3.32,3.32,0,0,0,2-.66,3.07,3.07,0,0,0,1.16-1.82V371.39Z"/><path class="cls-2" d="M606.17,384h4.92a2.77,2.77,0,0,0,3,2c1.68,0,2.52-.59,2.52-1.76a1.13,1.13,0,0,0-.42-.94,3.62,3.62,0,0,0-1.38-.58l-3.6-.8q-4.63-1.08-4.64-5a5.09,5.09,0,0,1,2-4.18,7.91,7.91,0,0,1,5.08-1.62,8.35,8.35,0,0,1,5.22,1.46,6.33,6.33,0,0,1,2.38,4.06h-4.72a2.58,2.58,0,0,0-2.8-1.76,3,3,0,0,0-1.66.44,1.37,1.37,0,0,0-.7,1.24c0,.66.53,1.13,1.6,1.4l3.68.84q4.75,1.15,4.76,5.2a5.05,5.05,0,0,1-2.06,4.24,8.47,8.47,0,0,1-5.26,1.56,9.2,9.2,0,0,1-5.44-1.5A6,6,0,0,1,606.17,384Z"/><path class="cls-2" d="M648,389.27h-4.76v-1a4.42,4.42,0,0,1-1.72.88,8.78,8.78,0,0,1-2.64.4,7.24,7.24,0,0,1-4.74-1.56,5.19,5.19,0,0,1-1.9-4.24,5,5,0,0,1,2-4.12,7.59,7.59,0,0,1,4.94-1.6,8.69,8.69,0,0,1,2.32.32,5.44,5.44,0,0,1,1.76.72v-1.32a2.78,2.78,0,0,0-.74-2,2.86,2.86,0,0,0-2.18-.78,2.55,2.55,0,0,0-2.64,1.68h-4.72a6.37,6.37,0,0,1,2.46-4.1,9,9,0,0,1,10.6.2,6.52,6.52,0,0,1,2,5.06Zm-4.76-4.88v-1.28A2.32,2.32,0,0,0,642,382a4.71,4.71,0,0,0-2-.42,4.21,4.21,0,0,0-2.22.56,1.79,1.79,0,0,0-.94,1.64,1.82,1.82,0,0,0,.92,1.64A4.25,4.25,0,0,0,640,386a4.71,4.71,0,0,0,2-.42A2.32,2.32,0,0,0,643.21,384.39Z"/><path class="cls-2" d="M657,387.79v1.48h-5v-26h5v9.6a5.14,5.14,0,0,1,1.88-1.32,6.14,6.14,0,0,1,2.6-.56,7.23,7.23,0,0,1,5.94,2.68,11.29,11.29,0,0,1,0,13.34,7.27,7.27,0,0,1-5.94,2.66,6.3,6.3,0,0,1-2.6-.56A5.39,5.39,0,0,1,657,387.79Zm0-10.4v5.88a3.64,3.64,0,0,0,1.34,1.5,3.7,3.7,0,0,0,2,.58,3.84,3.84,0,0,0,3.12-1.4,6.2,6.2,0,0,0,0-7.22,3.8,3.8,0,0,0-3.12-1.42,3.64,3.64,0,0,0-2,.58A3.51,3.51,0,0,0,657,377.39Z"/><path class="cls-2" d="M689.33,380.35a9.43,9.43,0,0,1-2.44,6.72,9,9,0,0,1-12.64,0,10.53,10.53,0,0,1,0-13.48,9,9,0,0,1,12.64,0A9.45,9.45,0,0,1,689.33,380.35Zm-4.92,0a6.25,6.25,0,0,0-1-3.74,3.51,3.51,0,0,0-5.64,0,7.29,7.29,0,0,0,0,7.44,3.51,3.51,0,0,0,5.64,0A6.21,6.21,0,0,0,684.41,380.35Z"/><path class="cls-2" d="M708.33,371.39v17.88h-5v-1.64a6.17,6.17,0,0,1-4.8,2,6,6,0,0,1-4.62-1.8,6.79,6.79,0,0,1-1.66-4.8V371.39h5v10.68a3.46,3.46,0,0,0,.72,2.32,2.69,2.69,0,0,0,2.16.84,3.32,3.32,0,0,0,2-.66,3.16,3.16,0,0,0,1.16-1.82V371.39Z"/><path class="cls-2" d="M713.69,383.87v-8.48H711v-4h2.72v-4.84h4.92v4.84h3.92v4h-3.92v7.84a1.8,1.8,0,0,0,2,2,3.85,3.85,0,0,0,2.16-.6v4.4a7,7,0,0,1-3.2.56,6.18,6.18,0,0,1-4.36-1.44A5.6,5.6,0,0,1,713.69,383.87Z"/><path class="cls-2" d="M415.49,438.87h-4.88l2.6-6.52-6.84-18h5.24l4.12,11.88,4.08-11.88h5Z"/><path class="cls-2" d="M443.33,423.35a9.43,9.43,0,0,1-2.44,6.72,9,9,0,0,1-12.64,0,10.53,10.53,0,0,1,0-13.48,9,9,0,0,1,12.64,0A9.45,9.45,0,0,1,443.33,423.35Zm-4.92,0a6.25,6.25,0,0,0-1-3.74,3.51,3.51,0,0,0-5.64,0,7.29,7.29,0,0,0,0,7.44,3.51,3.51,0,0,0,5.64,0A6.21,6.21,0,0,0,438.41,423.35Z"/><path class="cls-2" d="M462.33,414.39v17.88h-5v-1.64a6.14,6.14,0,0,1-4.8,2,6,6,0,0,1-4.62-1.8,6.83,6.83,0,0,1-1.66-4.8V414.39h5v10.68a3.46,3.46,0,0,0,.72,2.32,2.69,2.69,0,0,0,2.16.84,3.28,3.28,0,0,0,2-.66,3.07,3.07,0,0,0,1.16-1.82V414.39Z"/><path class="cls-2" d="M477.45,414.31v5a4.72,4.72,0,0,0-2.48-.6,3.7,3.7,0,0,0-2.2.66,3.08,3.08,0,0,0-1.2,1.86v11.08h-5V414.39h5v1.76a4.32,4.32,0,0,1,4-2.16A3.93,3.93,0,0,1,477.45,414.31Z"/><path class="cls-2" d="M500,426.43h4.6a7.16,7.16,0,0,1-2.54,4.58,8.33,8.33,0,0,1-5.38,1.66,8.17,8.17,0,0,1-6.28-2.58,10.57,10.57,0,0,1,0-13.44,8,8,0,0,1,6.18-2.66,7.53,7.53,0,0,1,6,2.42,9.36,9.36,0,0,1,2.14,6.46v1.52H492.81a5,5,0,0,0,1.16,3.14,3.52,3.52,0,0,0,2.72,1.14C498.5,428.67,499.61,427.92,500,426.43Zm-3.36-8.4q-3,0-3.72,3.36h6.92A3.6,3.6,0,0,0,499,419,2.94,2.94,0,0,0,496.65,418Z"/><path class="cls-2" d="M523.57,414.39,517.45,423l6.52,9.24h-5.48l-3.84-5.6-3.88,5.6h-5.2l6.44-9.12-6.08-8.76h5.48l3.44,5.08,3.52-5.08Z"/><path class="cls-2" d="M536.81,426.43h4.6a7.12,7.12,0,0,1-2.54,4.58,8.33,8.33,0,0,1-5.38,1.66,8.19,8.19,0,0,1-6.28-2.58,10.57,10.57,0,0,1,0-13.44,8,8,0,0,1,6.18-2.66,7.53,7.53,0,0,1,6,2.42,9.36,9.36,0,0,1,2.14,6.46v1.52H529.61a5,5,0,0,0,1.16,3.14,3.52,3.52,0,0,0,2.72,1.14C535.31,428.67,536.41,427.92,536.81,426.43Zm-3.36-8.4q-3,0-3.72,3.36h6.92a3.6,3.6,0,0,0-.88-2.42A2.94,2.94,0,0,0,533.45,418Z"/><path class="cls-2" d="M555.53,414.31v5a4.72,4.72,0,0,0-2.48-.6,3.7,3.7,0,0,0-2.2.66,3.08,3.08,0,0,0-1.2,1.86v11.08h-5V414.39h5v1.76a4.32,4.32,0,0,1,4-2.16A3.93,3.93,0,0,1,555.53,414.31Z"/><path class="cls-2" d="M557.17,423.35a9.56,9.56,0,0,1,2.4-6.76,8.85,8.85,0,0,1,11.56-.84,7.11,7.11,0,0,1,2.48,4.68h-4.88a2.48,2.48,0,0,0-1-1.62,3.21,3.21,0,0,0-2-.58,3.12,3.12,0,0,0-2.68,1.4,7.34,7.34,0,0,0,0,7.4,3.14,3.14,0,0,0,2.68,1.4,3.27,3.27,0,0,0,2-.58,2.53,2.53,0,0,0,1-1.62h4.88a7.18,7.18,0,0,1-2.46,4.68,8.87,8.87,0,0,1-11.58-.84A9.54,9.54,0,0,1,557.17,423.35Z"/><path class="cls-2" d="M582.05,409.23a2.66,2.66,0,0,1-.86,2,2.93,2.93,0,0,1-2.06.8,3,3,0,0,1-2.1-.8,2.7,2.7,0,0,1-.86-2,2.67,2.67,0,0,1,.88-2,2.94,2.94,0,0,1,2.08-.82,2.86,2.86,0,0,1,2.06.82A2.65,2.65,0,0,1,582.05,409.23Zm-.44,5.16v17.88h-5V414.39Z"/><path class="cls-2" d="M584.77,427h4.92a2.77,2.77,0,0,0,3,2c1.68,0,2.52-.59,2.52-1.76a1.13,1.13,0,0,0-.42-.94,3.62,3.62,0,0,0-1.38-.58l-3.6-.8q-4.63-1.08-4.64-5a5.09,5.09,0,0,1,2-4.18,7.93,7.93,0,0,1,5.08-1.62,8.31,8.31,0,0,1,5.22,1.46,6.33,6.33,0,0,1,2.38,4.06h-4.72a2.57,2.57,0,0,0-2.8-1.76,3,3,0,0,0-1.66.44,1.39,1.39,0,0,0-.7,1.24c0,.66.54,1.13,1.6,1.4l3.68.84c3.18.77,4.76,2.5,4.76,5.2a5,5,0,0,1-2.06,4.24,8.45,8.45,0,0,1-5.26,1.56,9.22,9.22,0,0,1-5.44-1.5A6,6,0,0,1,584.77,427Z"/><path class="cls-2" d="M614.29,426.43h4.6a7.16,7.16,0,0,1-2.54,4.58,8.33,8.33,0,0,1-5.38,1.66,8.17,8.17,0,0,1-6.28-2.58,10.57,10.57,0,0,1,0-13.44,8,8,0,0,1,6.18-2.66,7.53,7.53,0,0,1,6,2.42,9.36,9.36,0,0,1,2.14,6.46v1.52H607.09a5,5,0,0,0,1.16,3.14,3.52,3.52,0,0,0,2.72,1.14C612.79,428.67,613.89,427.92,614.29,426.43Zm-3.36-8.4q-3,0-3.72,3.36h6.92a3.6,3.6,0,0,0-.88-2.42A2.94,2.94,0,0,0,610.93,418Z"/><path class="cls-2" d="M630.65,432.27v-26h5V416a6.79,6.79,0,0,1,9.46-.24,6.79,6.79,0,0,1,1.66,4.8v11.68h-5V421.63a3.42,3.42,0,0,0-.74-2.3,2.69,2.69,0,0,0-2.18-.86,3.4,3.4,0,0,0-2.06.66,3.06,3.06,0,0,0-1.18,1.82v11.32Z"/><path class="cls-2" d="M665.53,432.27h-4.76v-1a4.42,4.42,0,0,1-1.72.88,8.78,8.78,0,0,1-2.64.4,7.24,7.24,0,0,1-4.74-1.56,5.19,5.19,0,0,1-1.9-4.24,5,5,0,0,1,2-4.12,7.59,7.59,0,0,1,4.94-1.6,8.69,8.69,0,0,1,2.32.32,5.44,5.44,0,0,1,1.76.72v-1.32a2.78,2.78,0,0,0-.74-2,2.86,2.86,0,0,0-2.18-.78,2.55,2.55,0,0,0-2.64,1.68h-4.72a6.37,6.37,0,0,1,2.46-4.1,9,9,0,0,1,10.6.2,6.52,6.52,0,0,1,2,5.06Zm-4.76-4.88v-1.28a2.32,2.32,0,0,0-1.22-1.14,4.71,4.71,0,0,0-2-.42,4.21,4.21,0,0,0-2.22.56,1.79,1.79,0,0,0-.94,1.64,1.82,1.82,0,0,0,.92,1.64,4.25,4.25,0,0,0,2.24.56,4.71,4.71,0,0,0,2-.42A2.32,2.32,0,0,0,660.77,427.39Z"/><path class="cls-2" d="M674.53,430.79v1.48h-5v-26h5v9.6a5.14,5.14,0,0,1,1.88-1.32A6.14,6.14,0,0,1,679,414a7.23,7.23,0,0,1,5.94,2.68A11.29,11.29,0,0,1,685,430a7.27,7.27,0,0,1-5.94,2.66,6.3,6.3,0,0,1-2.6-.56A5.39,5.39,0,0,1,674.53,430.79Zm0-10.4v5.88a3.64,3.64,0,0,0,1.34,1.5,3.7,3.7,0,0,0,2,.58A3.84,3.84,0,0,0,681,427a6.2,6.2,0,0,0,0-7.22,3.8,3.8,0,0,0-3.12-1.42,3.64,3.64,0,0,0-2,.58A3.51,3.51,0,0,0,674.53,420.39Z"/><path class="cls-2" d="M695.73,409.23a2.7,2.7,0,0,1-.86,2,2.93,2.93,0,0,1-2.06.8,3,3,0,0,1-2.1-.8,2.7,2.7,0,0,1-.86-2,2.63,2.63,0,0,1,.88-2,2.94,2.94,0,0,1,2.08-.82,2.86,2.86,0,0,1,2.06.82A2.68,2.68,0,0,1,695.73,409.23Zm-.44,5.16v17.88h-5V414.39Z"/><path class="cls-2" d="M700.69,426.87v-8.48H698v-4h2.72v-4.84h4.92v4.84h3.92v4h-3.92v7.84a1.8,1.8,0,0,0,2,2,3.85,3.85,0,0,0,2.16-.6v4.4a7,7,0,0,1-3.2.56,6.18,6.18,0,0,1-4.36-1.44A5.6,5.6,0,0,1,700.69,426.87Z"/><path class="cls-2" d="M712.09,427H717a2.77,2.77,0,0,0,3,2c1.68,0,2.52-.59,2.52-1.76a1.13,1.13,0,0,0-.42-.94,3.62,3.62,0,0,0-1.38-.58l-3.6-.8q-4.64-1.08-4.64-5a5.09,5.09,0,0,1,2-4.18,7.91,7.91,0,0,1,5.08-1.62,8.35,8.35,0,0,1,5.22,1.46,6.33,6.33,0,0,1,2.38,4.06h-4.72a2.58,2.58,0,0,0-2.8-1.76,3,3,0,0,0-1.66.44,1.37,1.37,0,0,0-.7,1.24c0,.66.53,1.13,1.6,1.4l3.68.84q4.75,1.15,4.76,5.2a5.05,5.05,0,0,1-2.06,4.24,8.47,8.47,0,0,1-5.26,1.56,9.2,9.2,0,0,1-5.44-1.5A6,6,0,0,1,712.09,427Z"/><path class="cls-2" d="M744.93,414.55a6.08,6.08,0,0,1-.12,1.22,5,5,0,0,1-.4,1.16l-.48,1a5.84,5.84,0,0,1-.7,1l-.72.86-.84.92-.78.82a4.32,4.32,0,0,0-1.44,2.84h-4.92a6.25,6.25,0,0,1,.54-2.4,11.85,11.85,0,0,1,1.7-2.4c.13-.16.47-.53,1-1.1s.89-1,1.08-1.22a5.42,5.42,0,0,0,.6-1,3.25,3.25,0,0,0,.32-1.36,2.87,2.87,0,0,0-.82-2.14,3,3,0,0,0-2.26-.82,2.92,2.92,0,0,0-2.32,1,3.88,3.88,0,0,0-.92,2.44h-5.28a8.89,8.89,0,0,1,2.68-5.74,8.27,8.27,0,0,1,6-2.22,8.53,8.53,0,0,1,5.94,2A6.74,6.74,0,0,1,744.93,414.55Zm-11.24,14.92a3,3,0,0,1,.92-2.22,3.24,3.24,0,0,1,4.48,0,3,3,0,0,1,.92,2.22,3,3,0,0,1-.92,2.18,3.24,3.24,0,0,1-4.48,0A3,3,0,0,1,733.69,429.47Z"/><path class="cls-2" d="M688.53,252.05H463.05a5,5,0,0,1,0-10H688.53a5,5,0,0,1,0,10Z"/><path class="cls-3" d="M714.79,233.55a13,13,0,0,0-13-13h-252a13,13,0,0,0-13,13v39.1h278Z"/><path class="cls-3" d="M593.79,470.6h180a12,12,0,0,0,12-12v-162a12,12,0,0,0-12-12h-396a12,12,0,0,0-12,12v162a12,12,0,0,0,12,12h216Z"/><rect class="cls-3" x="365.79" y="482.6" width="204" height="87" rx="12"/><rect class="cls-3" x="581.79" y="482.6" width="204" height="87" rx="12"/><path class="cls-3" d="M575.79,573.45a24,24,0,0,1-18,8.15h-121V701.55a13,13,0,0,0,13,13H673l-54.08-60.06a38.55,38.55,0,0,1-6.81-42.39H463.05a5,5,0,0,1,0-10H618.79a38.53,38.53,0,0,1,24.46-12.29,36.91,36.91,0,0,1,4-.21h.44a5,5,0,0,1,3.5,1.46l11,11h26.36a5,5,0,0,1,0,10H672.17l42.62,42.62V581.6h-121A24,24,0,0,1,575.79,573.45Zm0,73.6a23,23,0,1,1-23,23A23,23,0,0,1,575.79,647.05Z"/><circle class="cls-3" cx="575.79" cy="670.05" r="13"/><path class="cls-2" d="M575.79,693.05a23,23,0,1,0-23-23A23,23,0,0,0,575.79,693.05Zm0-36a13,13,0,1,1-13,13A13,13,0,0,1,575.79,657.05Z"/><path class="cls-2" d="M775,602.31,754.32,581.6h19.47a24,24,0,0,0,24-24v-63a24,24,0,0,0-8.15-18,24,24,0,0,0,8.15-18v-162a24,24,0,0,0-24-24h-49v-39.1a23,23,0,0,0-23-23h-252a23,23,0,0,0-23,23v39.1h-49a24,24,0,0,0-24,24v162a24,24,0,0,0,8.15,18,24,24,0,0,0-8.15,18v63a24,24,0,0,0,24,24h49V701.55a23,23,0,0,0,23,23h121v28.69a77.91,77.91,0,0,0,40.9,68.85v23.46a5,5,0,0,0,10,0v-26.5a5,5,0,0,0-2.78-4.48,68,68,0,0,1-38.12-61.33V724.55H677a78.33,78.33,0,0,0,5,95.75,5,5,0,0,0,7.58-6.53,68.35,68.35,0,0,1,0-89.23,5,5,0,0,0-.07-6.61l-63.22-70.21a28.59,28.59,0,0,1,17.86-48l1.39-.11,70.7,70.7.12.11,34.26,34.26a5,5,0,0,0,7.07-7.07l-32.92-32.93V581.6h15.38L768,609.38a139.65,139.65,0,0,1,41.16,99.37V842a5,5,0,0,0,10,0V708.75A149.58,149.58,0,0,0,775,602.31ZM785.79,494.6v63a12,12,0,0,1-12,12h-180a12,12,0,0,1-12-12v-63a12,12,0,0,1,12-12h180A12,12,0,0,1,785.79,494.6Zm-349-261a13,13,0,0,1,13-13h252a13,13,0,0,1,13,13v39.1h-278Zm-71,225.05v-162a12,12,0,0,1,12-12h396a12,12,0,0,1,12,12v162a12,12,0,0,1-12,12h-396A12,12,0,0,1,365.79,458.6Zm0,99v-63a12,12,0,0,1,12-12h180a12,12,0,0,1,12,12v63a12,12,0,0,1-12,12h-180A12,12,0,0,1,365.79,557.6Zm349,97.12L672.17,612.1h16.36a5,5,0,0,0,0-10H662.17l-11-11a5,5,0,0,0-3.5-1.46h-.44a36.91,36.91,0,0,0-4,.21,38.53,38.53,0,0,0-24.46,12.29H463.05a5,5,0,0,0,0,10H612.12a38.55,38.55,0,0,0,6.81,42.39L673,714.55H449.79a13,13,0,0,1-13-13V581.6h121a24,24,0,0,0,18-8.15,24,24,0,0,0,18,8.15h121Z"/></svg>