<svg id="OUTLINES" xmlns="http://www.w3.org/2000/svg" viewBox="0 0 1152 1008"><defs><style>.cls-1{fill:#fff;}.cls-2{fill:#000f7d;}</style></defs><rect class="cls-1" x="577.79" y="479.15" width="228" height="111" rx="24"/><path class="cls-2" d="M575.79,647.05a23,23,0,1,0,23,23A23,23,0,0,0,575.79,647.05Zm0,36a13,13,0,1,1,13-13A13,13,0,0,1,575.79,683.05Z"/><path class="cls-2" d="M626.91,541.07a12.17,12.17,0,0,0,9.43-4,16.11,16.11,0,0,0,0-20.47,13,13,0,0,0-18.83,0,16.22,16.22,0,0,0,0,20.5A12.08,12.08,0,0,0,626.91,541.07Zm-5.22-20.88a6.32,6.32,0,0,1,5.22-2.52,6.43,6.43,0,0,1,5.29,2.52,11.94,11.94,0,0,1,0,13.23,6.43,6.43,0,0,1-5.29,2.52,6.32,6.32,0,0,1-5.22-2.52,12,12,0,0,1,0-13.23Z"/><path class="cls-2" d="M649.37,539a5.74,5.74,0,0,0,2.11,1.49,7,7,0,0,0,2.93.63,8.2,8.2,0,0,0,6.7-3,11.37,11.37,0,0,0,2.48-7.47,11.5,11.5,0,0,0-2.48-7.49,8.21,8.21,0,0,0-6.7-3,7,7,0,0,0-2.93.64,5.84,5.84,0,0,0-2.11,1.48V520.5h-5.58V548h5.58Zm0-11.7a4.38,4.38,0,0,1,1.55-1.68,4,4,0,0,1,2.23-.66,4.31,4.31,0,0,1,3.51,1.6,6.25,6.25,0,0,1,1.3,4.07,6.12,6.12,0,0,1-1.3,4,4.3,4.3,0,0,1-3.51,1.58,4.18,4.18,0,0,1-2.25-.65,4.07,4.07,0,0,1-1.53-1.69Z"/><path class="cls-2" d="M668.36,534.54a6.33,6.33,0,0,0,1.75,4.87A7,7,0,0,0,675,541a8,8,0,0,0,3.6-.63v-4.95a4.35,4.35,0,0,1-2.43.67,2,2,0,0,1-2.3-2.3V525h4.41v-4.5h-4.41v-5.44h-5.53v5.44H665.3V525h3.06Z"/><rect class="cls-2" x="681.63" y="526.4" width="10.84" height="4.86"/><path class="cls-2" d="M705.88,541.07a9.3,9.3,0,0,0,7.11-2.92A11.84,11.84,0,0,0,713,523a10.08,10.08,0,0,0-14.21,0,11.84,11.84,0,0,0,0,15.17A9.27,9.27,0,0,0,705.88,541.07Zm-3.17-14.69a4,4,0,0,1,6.35,0,8.19,8.19,0,0,1,0,8.37,4,4,0,0,1-6.35,0,8.19,8.19,0,0,1,0-8.37Z"/><path class="cls-2" d="M726.13,541.07a7,7,0,0,0,5.41-2.29v1.84h5.58V520.5h-5.63v12.78a3.49,3.49,0,0,1-1.3,2.05,3.7,3.7,0,0,1-2.3.74,3,3,0,0,1-2.43-.94,3.88,3.88,0,0,1-.81-2.61v-12h-5.58v13.15a7.59,7.59,0,0,0,1.87,5.39A6.66,6.66,0,0,0,726.13,541.07Z"/><path class="cls-2" d="M743.14,534.54a6.34,6.34,0,0,0,1.76,4.87,7,7,0,0,0,4.9,1.62,8,8,0,0,0,3.6-.63v-4.95a4.35,4.35,0,0,1-2.43.67,2,2,0,0,1-2.29-2.3V525h4.41v-4.5h-4.41v-5.44h-5.54v5.44h-3.06V525h3.06Z"/><polygon class="cls-2" points="401.49 319.66 394.83 331.36 388.12 319.66 381.87 319.66 391.81 336.8 391.81 347.29 397.53 347.29 397.53 336.8 407.56 319.66 401.49 319.66"/><path class="cls-2" d="M422.82,344.81a11.87,11.87,0,0,0,0-15.17,10.12,10.12,0,0,0-14.22,0,11.84,11.84,0,0,0,0,15.17,10.09,10.09,0,0,0,14.22,0Zm-10.28-3.4a6.92,6.92,0,0,1-1.15-4.16,7,7,0,0,1,1.15-4.21,4,4,0,0,1,6.34,0,7,7,0,0,1,1.15,4.21,6.92,6.92,0,0,1-1.15,4.16,3.94,3.94,0,0,1-6.34,0Z"/><path class="cls-2" d="M436,347.74a6.93,6.93,0,0,0,5.4-2.3v1.85h5.58V327.17h-5.63V340A3.5,3.5,0,0,1,440,342a3.76,3.76,0,0,1-2.3.74,3,3,0,0,1-2.43-.94,3.89,3.89,0,0,1-.81-2.62v-12h-5.58v13.14a7.63,7.63,0,0,0,1.87,5.4A6.72,6.72,0,0,0,436,347.74Z"/><path class="cls-2" d="M470.47,335.05a9.73,9.73,0,0,0-2.61-.37,8.58,8.58,0,0,0-5.56,1.81,5.69,5.69,0,0,0-2.22,4.63,5.85,5.85,0,0,0,2.13,4.77,8.15,8.15,0,0,0,5.34,1.75,9.92,9.92,0,0,0,3-.44,5.06,5.06,0,0,0,1.93-1v1.08h5.36V334.46a7.35,7.35,0,0,0-2.23-5.69,8.85,8.85,0,0,0-6.23-2,9,9,0,0,0-5.7,1.82,7.19,7.19,0,0,0-2.76,4.62h5.31a2.86,2.86,0,0,1,3-1.9,3.25,3.25,0,0,1,2.45.88,3.14,3.14,0,0,1,.83,2.23v1.48A6.61,6.61,0,0,0,470.47,335.05Zm2,6.75a2.65,2.65,0,0,1-1.37,1.28,5.39,5.39,0,0,1-2.27.47,4.76,4.76,0,0,1-2.52-.63,2.15,2.15,0,0,1,0-3.69,4.79,4.79,0,0,1,2.5-.63,5.39,5.39,0,0,1,2.27.47,2.65,2.65,0,0,1,1.37,1.28Z"/><path class="cls-2" d="M487.93,334.82a3.41,3.41,0,0,1,1.35-2.09,4.11,4.11,0,0,1,2.48-.74,5.34,5.34,0,0,1,2.79.67v-5.58a4.58,4.58,0,0,0-2.12-.36,4.86,4.86,0,0,0-4.5,2.43v-2h-5.58v20.12h5.58Z"/><path class="cls-2" d="M515.07,340.72h-5.18q-.67,2.52-3.73,2.52A3.94,3.94,0,0,1,503.1,342a5.55,5.55,0,0,1-1.31-3.53H515.2v-1.71a10.56,10.56,0,0,0-2.41-7.27,8.5,8.5,0,0,0-6.72-2.72,9,9,0,0,0-7,3,10.81,10.81,0,0,0-2.72,7.54,10.67,10.67,0,0,0,2.7,7.58,9.2,9.2,0,0,0,7.07,2.91,9.38,9.38,0,0,0,6.05-1.87A8,8,0,0,0,515.07,340.72Zm-9-9.46a3.34,3.34,0,0,1,2.61,1.06,4.14,4.14,0,0,1,1,2.73h-7.78C502.44,332.53,503.83,331.26,506.11,331.26Z"/><path class="cls-2" d="M536.17,346.84a6,6,0,0,0,5-2.08v1.17q0,4.9-4.32,4.91c-2.19,0-3.51-.95-4-2.83h-5.4a7.53,7.53,0,0,0,2.95,5.26,10.32,10.32,0,0,0,6.41,1.89,10,10,0,0,0,7.16-2.54q2.7-2.55,2.7-7.54V327.17h-5.54v1.58a6.17,6.17,0,0,0-5-2,8.3,8.3,0,0,0-6.66,2.92,11.54,11.54,0,0,0,0,14.27A8.28,8.28,0,0,0,536.17,346.84Zm-2.29-13.95a4.27,4.27,0,0,1,3.46-1.49,4.14,4.14,0,0,1,3.78,2.07V340a4.49,4.49,0,0,1-1.55,1.51,4.59,4.59,0,0,1-5.69-.9,5.87,5.87,0,0,1-1.26-3.89A5.78,5.78,0,0,1,533.88,332.89Z"/><path class="cls-2" d="M554.31,324.56a3.26,3.26,0,0,0,2.31-.9,3,3,0,0,0,1-2.29,3,3,0,0,0-1-2.28,3.23,3.23,0,0,0-2.31-.92,3.32,3.32,0,0,0-2.34.92,3.17,3.17,0,0,0,0,4.57A3.37,3.37,0,0,0,554.31,324.56Z"/><rect class="cls-2" x="551.52" y="327.17" width="5.58" height="20.12"/><polygon class="cls-2" points="573.12 347.29 580.77 327.17 575.14 327.17 570.6 340.54 565.96 327.17 560.11 327.17 567.72 347.29 573.12 347.29"/><path class="cls-2" d="M586.57,324.56a3.3,3.3,0,0,0,2.32-.9,3,3,0,0,0,1-2.29,3.05,3.05,0,0,0-1-2.28,3.27,3.27,0,0,0-2.32-.92,3.34,3.34,0,0,0-2.34.92,3,3,0,0,0-1,2.28,3,3,0,0,0,1,2.29A3.33,3.33,0,0,0,586.57,324.56Z"/><rect class="cls-2" x="583.78" y="327.17" width="5.58" height="20.12"/><path class="cls-2" d="M599.8,334.55a3.45,3.45,0,0,1,1.33-2.05,3.82,3.82,0,0,1,2.31-.74,3.07,3.07,0,0,1,2.46,1,3.84,3.84,0,0,1,.83,2.58v12h5.58V334.14a7.6,7.6,0,0,0-1.87-5.39,7.64,7.64,0,0,0-10.64.26v-1.84h-5.58v20.12h5.58Z"/><path class="cls-2" d="M624.82,346.84a6,6,0,0,0,4.95-2.08v1.17q0,4.9-4.32,4.91c-2.19,0-3.51-.95-4-2.83h-5.4a7.53,7.53,0,0,0,2.95,5.26,10.32,10.32,0,0,0,6.41,1.89,10,10,0,0,0,7.15-2.54q2.7-2.55,2.7-7.54V327.17h-5.53v1.58a6.17,6.17,0,0,0-4.95-2,8.3,8.3,0,0,0-6.66,2.92,11.5,11.5,0,0,0,0,14.27A8.28,8.28,0,0,0,624.82,346.84Zm-2.3-13.95A4.29,4.29,0,0,1,626,331.4a4.14,4.14,0,0,1,3.78,2.07V340a4.49,4.49,0,0,1-1.55,1.51,4.6,4.6,0,0,1-5.7-.9,5.87,5.87,0,0,1-1.26-3.89A5.78,5.78,0,0,1,622.52,332.89Z"/><path class="cls-2" d="M658.88,335.05a9.73,9.73,0,0,0-2.61-.37,8.53,8.53,0,0,0-5.55,1.81,5.67,5.67,0,0,0-2.23,4.63,5.83,5.83,0,0,0,2.14,4.77,8.11,8.11,0,0,0,5.33,1.75,9.92,9.92,0,0,0,3-.44,5.06,5.06,0,0,0,1.93-1v1.08h5.36V334.46a7.32,7.32,0,0,0-2.23-5.69,8.83,8.83,0,0,0-6.23-2,8.94,8.94,0,0,0-5.69,1.82,7.16,7.16,0,0,0-2.77,4.62h5.31a2.86,2.86,0,0,1,3-1.9,3.23,3.23,0,0,1,2.45.88,3.1,3.1,0,0,1,.83,2.23v1.48A6.61,6.61,0,0,0,658.88,335.05Zm2,6.75a2.62,2.62,0,0,1-1.37,1.28,5.36,5.36,0,0,1-2.27.47,4.76,4.76,0,0,1-2.52-.63,2.15,2.15,0,0,1,0-3.69,4.81,4.81,0,0,1,2.5-.63,5.36,5.36,0,0,1,2.27.47,2.62,2.62,0,0,1,1.37,1.28Z"/><path class="cls-2" d="M679.18,347.74a9,9,0,0,0,6.05-2,8.14,8.14,0,0,0,2.77-5.27h-5.49a2.82,2.82,0,0,1-1.11,1.82,3.82,3.82,0,0,1-5.24-.92,7,7,0,0,1-1.12-4.14,7.09,7.09,0,0,1,1.12-4.19,3.55,3.55,0,0,1,3-1.57,3.63,3.63,0,0,1,2.22.65,2.87,2.87,0,0,1,1.11,1.83H688a8.08,8.08,0,0,0-2.79-5.27,10,10,0,0,0-13,.94,12,12,0,0,0,0,15.17A9.08,9.08,0,0,0,679.18,347.74Z"/><path class="cls-2" d="M699.88,347.74a9,9,0,0,0,6-2,8.14,8.14,0,0,0,2.77-5.27h-5.49a2.82,2.82,0,0,1-1.11,1.82,3.82,3.82,0,0,1-5.24-.92,7,7,0,0,1-1.12-4.14,7.09,7.09,0,0,1,1.12-4.19,3.55,3.55,0,0,1,3-1.57,3.63,3.63,0,0,1,2.22.65,2.87,2.87,0,0,1,1.11,1.83h5.49a8.08,8.08,0,0,0-2.79-5.27,10,10,0,0,0-13,.94,12,12,0,0,0,0,15.17A9.08,9.08,0,0,0,699.88,347.74Z"/><path class="cls-2" d="M720.67,347.74a9.38,9.38,0,0,0,6.05-1.87,8,8,0,0,0,2.86-5.15H724.4q-.67,2.52-3.73,2.52a3.94,3.94,0,0,1-3.06-1.29,5.55,5.55,0,0,1-1.31-3.53h13.41v-1.71a10.56,10.56,0,0,0-2.41-7.27,8.5,8.5,0,0,0-6.72-2.72,9,9,0,0,0-7,3,10.81,10.81,0,0,0-2.72,7.54,10.67,10.67,0,0,0,2.7,7.58A9.2,9.2,0,0,0,720.67,347.74Zm0-16.48a3.34,3.34,0,0,1,2.61,1.06,4.14,4.14,0,0,1,1,2.73h-7.78C717,332.53,718.34,331.26,720.62,331.26Z"/><path class="cls-2" d="M740.92,343.51c-1.8,0-2.93-.74-3.38-2.21H732a6.77,6.77,0,0,0,2.83,4.75,10.39,10.39,0,0,0,6.12,1.69,9.55,9.55,0,0,0,5.92-1.76,5.68,5.68,0,0,0,2.32-4.77q0-4.54-5.36-5.85l-4.14-.94c-1.2-.3-1.8-.83-1.8-1.58a1.55,1.55,0,0,1,.79-1.39,3.44,3.44,0,0,1,1.87-.5q2.52,0,3.15,2H749a7.21,7.21,0,0,0-2.68-4.57,9.45,9.45,0,0,0-5.87-1.64,8.94,8.94,0,0,0-5.72,1.82,5.75,5.75,0,0,0-2.29,4.71c0,3,1.74,4.85,5.22,5.67l4.05.89a4.22,4.22,0,0,1,1.55.66,1.3,1.3,0,0,1,.47,1.06C743.75,342.85,742.81,343.51,740.92,343.51Z"/><path class="cls-2" d="M760.58,343.51c-1.8,0-2.92-.74-3.37-2.21h-5.54a6.78,6.78,0,0,0,2.84,4.75,10.39,10.39,0,0,0,6.12,1.69,9.5,9.5,0,0,0,5.91-1.76,5.65,5.65,0,0,0,2.32-4.77q0-4.54-5.35-5.85l-4.14-.94c-1.2-.3-1.8-.83-1.8-1.58a1.56,1.56,0,0,1,.78-1.39,3.46,3.46,0,0,1,1.87-.5q2.52,0,3.15,2h5.31a7.16,7.16,0,0,0-2.68-4.57,9.43,9.43,0,0,0-5.87-1.64,8.92,8.92,0,0,0-5.71,1.82,5.76,5.76,0,0,0-2.3,4.71c0,3,1.74,4.85,5.22,5.67l4,.89a4.15,4.15,0,0,1,1.55.66,1.28,1.28,0,0,1,.48,1.06C763.42,342.85,762.47,343.51,760.58,343.51Z"/><path class="cls-2" d="M428.49,374.67v-4.5h-4.41v-5.44h-5.54v5.44h-3.06v4.5h3.06v9.54a6.3,6.3,0,0,0,1.76,4.86,7,7,0,0,0,4.9,1.62,7.89,7.89,0,0,0,3.6-.63v-4.95a4.35,4.35,0,0,1-2.43.68,2,2,0,0,1-2.29-2.3v-8.82Z"/><path class="cls-2" d="M434.16,372.65a11.82,11.82,0,0,0,0,15.16,10.09,10.09,0,0,0,14.22,0,11.85,11.85,0,0,0,0-15.16,10.09,10.09,0,0,0-14.22,0ZM444.44,376a7,7,0,0,1,1.15,4.21,6.92,6.92,0,0,1-1.15,4.16,4,4,0,0,1-6.35,0,7,7,0,0,1-1.14-4.16,7.11,7.11,0,0,1,1.14-4.21,4,4,0,0,1,6.35,0Z"/><path class="cls-2" d="M469.8,377.55a3.48,3.48,0,0,1,1.32-2.05,3.87,3.87,0,0,1,2.32-.74,3,3,0,0,1,2.45,1,3.81,3.81,0,0,1,.84,2.59v12h5.58V377.15a7.68,7.68,0,0,0-1.87-5.4,7.63,7.63,0,0,0-10.64.27V361h-5.58v29.25h5.58Z"/><path class="cls-2" d="M495.45,390.74a9.38,9.38,0,0,0,6.05-1.87,8,8,0,0,0,2.86-5.15h-5.18q-.68,2.52-3.73,2.52a3.94,3.94,0,0,1-3.06-1.29,5.55,5.55,0,0,1-1.31-3.53h13.41v-1.71a10.56,10.56,0,0,0-2.41-7.27,8.5,8.5,0,0,0-6.72-2.72,9,9,0,0,0-7,3,10.81,10.81,0,0,0-2.72,7.54,10.67,10.67,0,0,0,2.7,7.58A9.2,9.2,0,0,0,495.45,390.74Zm-.05-16.47a3.33,3.33,0,0,1,2.61,1.05,4.14,4.14,0,0,1,1,2.73h-7.78Q492,374.27,495.4,374.27Z"/><path class="cls-2" d="M517.32,390.2a4.93,4.93,0,0,0,1.93-1v1.08h5.36V377.46a7.35,7.35,0,0,0-2.23-5.69,8.86,8.86,0,0,0-6.23-2,9,9,0,0,0-5.7,1.82,7.15,7.15,0,0,0-2.76,4.62H513a2.84,2.84,0,0,1,3-1.89,3.27,3.27,0,0,1,2.46.87,3.14,3.14,0,0,1,.83,2.23v1.49a6.34,6.34,0,0,0-2-.81,10.12,10.12,0,0,0-2.61-.36,8.57,8.57,0,0,0-5.56,1.8,5.69,5.69,0,0,0-2.22,4.63,5.85,5.85,0,0,0,2.13,4.77,8.13,8.13,0,0,0,5.33,1.76A9.73,9.73,0,0,0,517.32,390.2Zm-5.27-6.12a2,2,0,0,1,1.06-1.85,4.76,4.76,0,0,1,2.5-.63,5.42,5.42,0,0,1,2.27.47,2.67,2.67,0,0,1,1.37,1.29v1.44a2.65,2.65,0,0,1-1.37,1.28,5.42,5.42,0,0,1-2.27.47,4.82,4.82,0,0,1-2.53-.63A2,2,0,0,1,512.05,384.08Z"/><rect class="cls-2" x="529.15" y="361.04" width="5.58" height="29.25"/><path class="cls-2" d="M551.06,390.06v-4.95a4.35,4.35,0,0,1-2.43.68,2,2,0,0,1-2.29-2.3v-8.82h4.41v-4.5h-4.41v-5.44H540.8v5.44h-3.06v4.5h3.06v9.54a6.3,6.3,0,0,0,1.76,4.86,7,7,0,0,0,4.9,1.62A7.89,7.89,0,0,0,551.06,390.06Z"/><path class="cls-2" d="M566.09,369.72a6.76,6.76,0,0,0-5.4,2.3V361h-5.58v29.25h5.58V377.55A3.5,3.5,0,0,1,562,375.5a3.87,3.87,0,0,1,2.32-.74,3,3,0,0,1,2.45,1,3.8,3.8,0,0,1,.83,2.59v12h5.58V377.15a7.67,7.67,0,0,0-1.86-5.4A6.8,6.8,0,0,0,566.09,369.72Z"/><path class="cls-2" d="M605.92,390.29V361h-5.63v10.8a5.85,5.85,0,0,0-2.11-1.49,7.05,7.05,0,0,0-2.93-.63,8.16,8.16,0,0,0-6.68,3,12.7,12.7,0,0,0,0,15,8.17,8.17,0,0,0,6.68,3,7.05,7.05,0,0,0,2.93-.63,5.85,5.85,0,0,0,2.11-1.49v1.67Zm-7.13-5.07a4.11,4.11,0,0,1-2.28.66A4.33,4.33,0,0,1,593,384.3a6.13,6.13,0,0,1-1.3-4.05,6.21,6.21,0,0,1,1.3-4.07,4.29,4.29,0,0,1,3.51-1.6,4.18,4.18,0,0,1,2.25.65,4.07,4.07,0,0,1,1.53,1.69v6.62A4,4,0,0,1,598.79,385.22Z"/><path class="cls-2" d="M615.64,376.16a2.86,2.86,0,0,1,3-1.89,3.24,3.24,0,0,1,2.45.87,3.1,3.1,0,0,1,.83,2.23v1.49a6.34,6.34,0,0,0-2-.81,10.12,10.12,0,0,0-2.61-.36,8.53,8.53,0,0,0-5.55,1.8,5.67,5.67,0,0,0-2.23,4.63,5.83,5.83,0,0,0,2.14,4.77,8.11,8.11,0,0,0,5.33,1.76,9.62,9.62,0,0,0,3-.45,4.93,4.93,0,0,0,1.93-1v1.08h5.36V377.46a7.35,7.35,0,0,0-2.23-5.69,8.83,8.83,0,0,0-6.23-2,8.94,8.94,0,0,0-5.69,1.82,7.16,7.16,0,0,0-2.77,4.62Zm6.25,8.64a2.62,2.62,0,0,1-1.37,1.28,5.36,5.36,0,0,1-2.27.47,4.76,4.76,0,0,1-2.52-.63,2.15,2.15,0,0,1,0-3.69,4.81,4.81,0,0,1,2.5-.63,5.36,5.36,0,0,1,2.27.47,2.63,2.63,0,0,1,1.37,1.29Z"/><path class="cls-2" d="M632.83,364.73v5.44h-3.06v4.5h3.06v9.54a6.29,6.29,0,0,0,1.75,4.86,7,7,0,0,0,4.91,1.62,7.89,7.89,0,0,0,3.6-.63v-4.95a4.35,4.35,0,0,1-2.43.68,2,2,0,0,1-2.3-2.3v-8.82h4.41v-4.5h-4.41v-5.44Z"/><path class="cls-2" d="M656,378.05a10.12,10.12,0,0,0-2.61-.36,8.57,8.57,0,0,0-5.56,1.8,5.69,5.69,0,0,0-2.22,4.63,5.83,5.83,0,0,0,2.14,4.77,8.11,8.11,0,0,0,5.33,1.76,9.62,9.62,0,0,0,3-.45,4.93,4.93,0,0,0,1.93-1v1.08h5.36V377.46a7.35,7.35,0,0,0-2.23-5.69,10.15,10.15,0,0,0-11.92-.23,7.16,7.16,0,0,0-2.77,4.62h5.31a2.86,2.86,0,0,1,3-1.89,3.24,3.24,0,0,1,2.45.87,3.1,3.1,0,0,1,.83,2.23v1.49A6.34,6.34,0,0,0,656,378.05Zm2,6.75a2.62,2.62,0,0,1-1.37,1.28,5.36,5.36,0,0,1-2.27.47,4.76,4.76,0,0,1-2.52-.63,2.15,2.15,0,0,1,0-3.69,4.79,4.79,0,0,1,2.5-.63,5.36,5.36,0,0,1,2.27.47,2.63,2.63,0,0,1,1.37,1.29Z"/><path class="cls-2" d="M680.93,362.52a7,7,0,0,0-1.93,5.27v2.38h-3.29v4.5H679v15.62h5.49V374.67h4.18v-4.5h-4.18v-2c0-1.86.91-2.79,2.74-2.79a3.36,3.36,0,0,1,2,.54v-4.73a7.66,7.66,0,0,0-3.1-.54A7.1,7.1,0,0,0,680.93,362.52Z"/><path class="cls-2" d="M700.37,369.72a9.31,9.31,0,0,0-7.11,2.93,11.85,11.85,0,0,0,0,15.16,10.09,10.09,0,0,0,14.22,0,11.82,11.82,0,0,0,0-15.16A9.31,9.31,0,0,0,700.37,369.72Zm3.17,14.69a3.94,3.94,0,0,1-6.34,0,6.92,6.92,0,0,1-1.15-4.16A7,7,0,0,1,697.2,376a4,4,0,0,1,6.34,0,7,7,0,0,1,1.15,4.21A6.92,6.92,0,0,1,703.54,384.41Z"/><path class="cls-2" d="M726,370.08a4.55,4.55,0,0,0-2.12-.36,4.86,4.86,0,0,0-4.5,2.43v-2h-5.58v20.12h5.58V377.82a3.41,3.41,0,0,1,1.35-2.09,4.11,4.11,0,0,1,2.48-.74,5.34,5.34,0,0,1,2.79.67Z"/><path class="cls-2" d="M416.61,415.15v-2H411v20.12h5.58V420.82a3.41,3.41,0,0,1,1.35-2.09,4.08,4.08,0,0,1,2.47-.74,5.34,5.34,0,0,1,2.79.67v-5.58a4.51,4.51,0,0,0-2.11-.36A4.86,4.86,0,0,0,416.61,415.15Z"/><path class="cls-2" d="M434.74,412.72a9,9,0,0,0-6.95,3,11.9,11.9,0,0,0,0,15.12,9.18,9.18,0,0,0,7.06,2.91,9.36,9.36,0,0,0,6.05-1.87,8,8,0,0,0,2.86-5.15h-5.17q-.68,2.52-3.74,2.52a3.94,3.94,0,0,1-3.06-1.29,5.54,5.54,0,0,1-1.3-3.53h13.41v-1.71a10.61,10.61,0,0,0-2.41-7.27A8.54,8.54,0,0,0,434.74,412.72Zm-4.14,8.33q.76-3.78,4.19-3.78a3.33,3.33,0,0,1,2.61,1.05,4.14,4.14,0,0,1,1,2.73Z"/><path class="cls-2" d="M458,421.36l-4.14-.94c-1.2-.3-1.8-.83-1.8-1.58a1.56,1.56,0,0,1,.78-1.39,3.46,3.46,0,0,1,1.87-.5q2.52,0,3.15,2h5.31a7.16,7.16,0,0,0-2.68-4.57,9.43,9.43,0,0,0-5.87-1.64,8.92,8.92,0,0,0-5.71,1.82,5.76,5.76,0,0,0-2.3,4.71q0,4.46,5.22,5.67l4.05.9a4,4,0,0,1,1.55.65,1.28,1.28,0,0,1,.48,1.06c0,1.32-.95,2-2.84,2s-2.92-.74-3.37-2.21h-5.54a6.78,6.78,0,0,0,2.84,4.75,10.39,10.39,0,0,0,6.12,1.69A9.5,9.5,0,0,0,461,432a5.65,5.65,0,0,0,2.32-4.77Q463.36,422.67,458,421.36Z"/><path class="cls-2" d="M475.56,412.72a9,9,0,0,0-7,3,10.81,10.81,0,0,0-2.72,7.54,10.67,10.67,0,0,0,2.7,7.58,9.2,9.2,0,0,0,7.07,2.91,9.38,9.38,0,0,0,6.05-1.87,8,8,0,0,0,2.86-5.15h-5.18q-.67,2.52-3.73,2.52a3.94,3.94,0,0,1-3.06-1.29,5.55,5.55,0,0,1-1.31-3.53h13.41v-1.71a10.56,10.56,0,0,0-2.41-7.27A8.5,8.5,0,0,0,475.56,412.72Zm-4.14,8.33q.76-3.78,4.18-3.78a3.33,3.33,0,0,1,2.61,1.05,4.14,4.14,0,0,1,1,2.73Z"/><path class="cls-2" d="M496.35,412.72a9,9,0,0,0-5.7,1.82,7.15,7.15,0,0,0-2.76,4.62h5.31a2.86,2.86,0,0,1,3-1.89,3.24,3.24,0,0,1,2.45.87,3.14,3.14,0,0,1,.83,2.23v1.49a6.34,6.34,0,0,0-2-.81,10.12,10.12,0,0,0-2.61-.36,8.57,8.57,0,0,0-5.56,1.8,5.69,5.69,0,0,0-2.22,4.63,5.85,5.85,0,0,0,2.13,4.77,8.15,8.15,0,0,0,5.33,1.76,9.73,9.73,0,0,0,3-.45,4.93,4.93,0,0,0,1.93-1v1.08h5.36V420.46a7.35,7.35,0,0,0-2.23-5.69A8.86,8.86,0,0,0,496.35,412.72Zm3.1,15.08a2.65,2.65,0,0,1-1.37,1.28,5.42,5.42,0,0,1-2.27.47,4.76,4.76,0,0,1-2.52-.63,2.15,2.15,0,0,1,0-3.69,4.76,4.76,0,0,1,2.5-.63,5.42,5.42,0,0,1,2.27.47,2.67,2.67,0,0,1,1.37,1.29Z"/><path class="cls-2" d="M514.93,415.15v-2h-5.58v20.12h5.58V420.82a3.41,3.41,0,0,1,1.35-2.09,4.08,4.08,0,0,1,2.47-.74,5.34,5.34,0,0,1,2.79.67v-5.58a4.51,4.51,0,0,0-2.11-.36A4.86,4.86,0,0,0,514.93,415.15Z"/><path class="cls-2" d="M533.07,417.49a3.63,3.63,0,0,1,2.22.65A2.87,2.87,0,0,1,536.4,420h5.49a8.08,8.08,0,0,0-2.79-5.27,10,10,0,0,0-13,.95,12,12,0,0,0,0,15.16,10,10,0,0,0,13,.95,8.14,8.14,0,0,0,2.77-5.27H536.4a2.82,2.82,0,0,1-1.11,1.82,3.82,3.82,0,0,1-5.24-.92,8.29,8.29,0,0,1,0-8.32A3.54,3.54,0,0,1,533.07,417.49Z"/><path class="cls-2" d="M556.29,412.72a6.76,6.76,0,0,0-5.4,2.3V404h-5.58v29.25h5.58V420.55a3.48,3.48,0,0,1,1.32-2.05,3.87,3.87,0,0,1,2.32-.74,3,3,0,0,1,2.45,1,3.81,3.81,0,0,1,.84,2.59v12h5.58V420.15a7.68,7.68,0,0,0-1.87-5.4A6.78,6.78,0,0,0,556.29,412.72Z"/><path class="cls-2" d="M594.89,430.72a12.52,12.52,0,0,0,0-15,8.17,8.17,0,0,0-6.7-3,7.05,7.05,0,0,0-2.93.63,5.85,5.85,0,0,0-2.11,1.49v-1.67h-5.58v27.54h5.58v-9.09a5.85,5.85,0,0,0,2.11,1.49,7.05,7.05,0,0,0,2.93.63A8.21,8.21,0,0,0,594.89,430.72Zm-4.45-3.42a4.33,4.33,0,0,1-3.51,1.58,4.1,4.1,0,0,1-2.25-.66,4,4,0,0,1-1.53-1.68v-6.62a4.48,4.48,0,0,1,1.55-1.69,4.09,4.09,0,0,1,2.23-.65,4.29,4.29,0,0,1,3.51,1.6,6.21,6.21,0,0,1,1.31,4.07A6.14,6.14,0,0,1,590.44,427.3Z"/><path class="cls-2" d="M613.12,426a3.55,3.55,0,0,1-1.3,2.05,3.76,3.76,0,0,1-2.3.74,3,3,0,0,1-2.43-.94,3.88,3.88,0,0,1-.81-2.61v-12H600.7v13.14a7.63,7.63,0,0,0,1.87,5.4,6.7,6.7,0,0,0,5.19,2,6.94,6.94,0,0,0,5.41-2.3v1.85h5.58V413.17h-5.63Z"/><path class="cls-2" d="M629.14,415.15v-2h-5.58v20.12h5.58V420.82a3.41,3.41,0,0,1,1.35-2.09A4.08,4.08,0,0,1,633,418a5.34,5.34,0,0,1,2.79.67v-5.58a4.51,4.51,0,0,0-2.11-.36A4.86,4.86,0,0,0,629.14,415.15Z"/><path class="cls-2" d="M639.35,413.17v27.54h5.58v-9.09a5.9,5.9,0,0,0,2.12,1.49,7,7,0,0,0,2.92.63,8.23,8.23,0,0,0,6.71-3,12.56,12.56,0,0,0,0-15,8.19,8.19,0,0,0-6.71-3,7,7,0,0,0-2.92.63,5.9,5.9,0,0,0-2.12,1.49v-1.67Zm7.14,5.06a4,4,0,0,1,2.22-.65,4.29,4.29,0,0,1,3.51,1.6,6.21,6.21,0,0,1,1.31,4.07,6.14,6.14,0,0,1-1.31,4.05,4.33,4.33,0,0,1-3.51,1.58,4.1,4.1,0,0,1-2.25-.66,4,4,0,0,1-1.53-1.68v-6.62A4.43,4.43,0,0,1,646.49,418.23Z"/><path class="cls-2" d="M671.48,412.72a9.31,9.31,0,0,0-7.11,2.93,11.85,11.85,0,0,0,0,15.16,10.09,10.09,0,0,0,14.22,0,11.82,11.82,0,0,0,0-15.16A9.31,9.31,0,0,0,671.48,412.72Zm3.18,14.69a4,4,0,0,1-6.35,0,7,7,0,0,1-1.15-4.16,7.11,7.11,0,0,1,1.15-4.21,4,4,0,0,1,6.35,0,7.11,7.11,0,0,1,1.14,4.21A7,7,0,0,1,674.66,427.41Z"/><path class="cls-2" d="M695.47,421.36l-4.14-.94c-1.2-.3-1.8-.83-1.8-1.58a1.55,1.55,0,0,1,.79-1.39,3.4,3.4,0,0,1,1.86-.5q2.52,0,3.15,2h5.31a7.19,7.19,0,0,0-2.67-4.57,9.49,9.49,0,0,0-5.88-1.64,8.92,8.92,0,0,0-5.71,1.82,5.76,5.76,0,0,0-2.3,4.71q0,4.46,5.22,5.67l4.05.9a4.13,4.13,0,0,1,1.56.65,1.3,1.3,0,0,1,.47,1.06c0,1.32-1,2-2.84,2s-2.92-.74-3.37-2.21h-5.54a6.78,6.78,0,0,0,2.84,4.75,10.39,10.39,0,0,0,6.12,1.69,9.55,9.55,0,0,0,5.92-1.76,5.67,5.67,0,0,0,2.31-4.77Q700.82,422.67,695.47,421.36Z"/><path class="cls-2" d="M713,412.72a9,9,0,0,0-6.95,3,11.88,11.88,0,0,0,0,15.12,9.2,9.2,0,0,0,7.07,2.91,9.36,9.36,0,0,0,6-1.87,8,8,0,0,0,2.86-5.15h-5.18q-.68,2.52-3.73,2.52a3.94,3.94,0,0,1-3.06-1.29,5.55,5.55,0,0,1-1.31-3.53h13.41v-1.71a10.61,10.61,0,0,0-2.4-7.27A8.54,8.54,0,0,0,713,412.72Zm-4.14,8.33q.76-3.78,4.18-3.78a3.33,3.33,0,0,1,2.61,1.05,4.14,4.14,0,0,1,1,2.73Z"/><path class="cls-2" d="M736.28,421.36l-4.14-.94c-1.2-.3-1.8-.83-1.8-1.58a1.55,1.55,0,0,1,.79-1.39A3.44,3.44,0,0,1,733,417q2.52,0,3.15,2h5.31a7.21,7.21,0,0,0-2.68-4.57,9.45,9.45,0,0,0-5.87-1.64,8.94,8.94,0,0,0-5.72,1.82,5.75,5.75,0,0,0-2.29,4.71q0,4.46,5.22,5.67l4,.9a4.07,4.07,0,0,1,1.55.65,1.27,1.27,0,0,1,.47,1.06c0,1.32-.94,2-2.83,2s-2.93-.74-3.38-2.21h-5.53a6.77,6.77,0,0,0,2.83,4.75,10.39,10.39,0,0,0,6.12,1.69,9.55,9.55,0,0,0,5.92-1.76,5.68,5.68,0,0,0,2.32-4.77Q741.64,422.67,736.28,421.36Z"/><path class="cls-2" d="M775,602.31l-19.7-19.69h18.46a24,24,0,0,0,24-24v-63a24,24,0,0,0-8.15-18,24,24,0,0,0,8.15-18V297.67a24,24,0,0,0-24-24h-49V233.55a23,23,0,0,0-23-23h-252a23,23,0,0,0-23,23v40.12h-49a24,24,0,0,0-24,24v162a24,24,0,0,0,24,24h49V701.55a23,23,0,0,0,23,23h121v28.69a77.91,77.91,0,0,0,40.9,68.85v23.46a5,5,0,0,0,10,0v-26.5a5,5,0,0,0-2.78-4.48,68,68,0,0,1-38.12-61.33V724.55H677a78.33,78.33,0,0,0,5,95.75,5,5,0,0,0,7.58-6.53,68.35,68.35,0,0,1,0-89.23,5,5,0,0,0-.07-6.61l-63.22-70.21a28.59,28.59,0,0,1,16.48-47.78c.91-.14,1.84-.24,2.77-.29l70.7,70.7.13.12,34.25,34.25a5,5,0,0,0,7.07-7.07l-32.92-32.93v-82.1h16.4L768,609.38a139.65,139.65,0,0,1,41.16,99.37V842a5,5,0,0,0,10,0V708.75A149.58,149.58,0,0,0,775,602.31ZM436.79,233.55a13,13,0,0,1,13-13h252a13,13,0,0,1,13,13v40h-278Zm349,262.07v63a12,12,0,0,1-12,12h-180a12,12,0,0,1-12-12v-63a12,12,0,0,1,12-12h180A12,12,0,0,1,785.79,495.62Zm-420-36V297.67a12,12,0,0,1,12-12h396a12,12,0,0,1,12,12v162a12,12,0,0,1-12,12h-396A12,12,0,0,1,365.79,459.62Zm349,195.1-63.65-63.65a5,5,0,0,0-3.48-1.46h-.46a39.42,39.42,0,0,0-5.88.45,38.6,38.6,0,0,0-22.39,64.44L673,714.55H449.79a13,13,0,0,1-13-13V483.62H573a23.83,23.83,0,0,0-3.23,12v63a24,24,0,0,0,24,24h121Z"/></svg>
