<svg id="OUTLINES" xmlns="http://www.w3.org/2000/svg" viewBox="0 0 1152 1008"><defs><style>.cls-1{fill:#fff;}.cls-2{fill:#000f7d;}.cls-3{fill:none;}</style></defs><title>physical-biometrics</title><rect class="cls-1" x="457.44" y="166.5" width="148.35" height="164.76" rx="15.5"/><path class="cls-1" d="M590.3,336.26H472.94a20.52,20.52,0,0,1-20.5-20.5V182a20.52,20.52,0,0,1,20.5-20.5H590.3A20.52,20.52,0,0,1,610.8,182V315.76A20.53,20.53,0,0,1,590.3,336.26ZM472.94,171.5a10.51,10.51,0,0,0-10.5,10.5V315.76a10.51,10.51,0,0,0,10.5,10.5H590.3a10.51,10.51,0,0,0,10.5-10.5V182a10.51,10.51,0,0,0-10.5-10.5Z"/><path class="cls-2" d="M520.78,848.75a5,5,0,0,1-5-5l0-14.14a44.1,44.1,0,0,0-25.17-39.77,198,198,0,0,1-102.08-118l-11.94-37.74c-17.54-55.41-33.62-106.25-41-129.52-1.77-5.45-2.94-9.47-3-15.1a40.63,40.63,0,0,1,40.53-40.72h.1a39.82,39.82,0,0,1,36.08,22.41l.12.25,51.44,118.88c3.13,5.74,6.45,8.08,11.39,8.08h0a12,12,0,0,0,12-12.07,5,5,0,0,1,5-5h0a5,5,0,0,1,5,5,22,22,0,0,1-22,22.09h-.06c-8.75,0-15.39-4.42-20.29-13.52-.07-.12-.13-.25-.19-.38l-51.47-119a29.81,29.81,0,0,0-27.08-16.76h-.08a30.63,30.63,0,0,0-30.55,30.69c0,4,.8,6.91,2.48,12.07,7.37,23.31,23.46,74.15,41,129.56l12,37.74a187.88,187.88,0,0,0,96.9,112,54,54,0,0,1,30.81,48.75l0,14.14a5,5,0,0,1-5,5Z"/><path class="cls-2" d="M752.61,848.44a5,5,0,0,1-5-5h0v-.22h0v0c0-1.1,0-6.51-.06-29a55,55,0,0,1,18.33-41.46,104.57,104.57,0,0,0,35.46-73.1c4.41-79.26,7.11-136.85,7.82-166.53.54-22.77-.1-46.42-.11-46.65v-.13a35.79,35.79,0,0,0-35-35.53,34.93,34.93,0,0,0-25.23,10.24,37,37,0,0,0-11,26.26l.06,22.47a5,5,0,0,1-5,5h0a5,5,0,0,1-5-5l-.13-54.17a37,37,0,0,0-11.12-26.2,35,35,0,0,0-25.28-10.13,35.8,35.8,0,0,0-34.84,35.7l.06,24.47a5,5,0,0,1-5,5h0a5,5,0,0,1-5-5L646.47,444a37,37,0,0,0-11.12-26.21,34.9,34.9,0,0,0-25.28-10.12,35.79,35.79,0,0,0-34.83,35.64l0,22.87a5,5,0,0,1-5,5h0a5,5,0,0,1-5-5l0-22.82v-.07l-.49-206.25a37,37,0,0,0-11.12-26.21,34.9,34.9,0,0,0-25.28-10.12,35.79,35.79,0,0,0-34.84,35.69l.83,349.9a5,5,0,0,1-5,5h0a5,5,0,0,1-5-5l-.83-349.89a45.85,45.85,0,0,1,44.63-45.72,44.88,44.88,0,0,1,32.48,13,47,47,0,0,1,14.13,33.33l.42,178a45.6,45.6,0,0,1,34.69-17.33,44.92,44.92,0,0,1,32.48,13,47.12,47.12,0,0,1,11.84,19.1,45.74,45.74,0,0,1,36.94-20.41,44.88,44.88,0,0,1,32.48,13,47,47,0,0,1,14.14,33.34v2.86a47.18,47.18,0,0,1,4-4.55,44.79,44.79,0,0,1,32.42-13.12,45.85,45.85,0,0,1,44.84,45.44c0,1.38.64,24.66.11,47.11-.9,37.63-4.76,111.5-7.84,166.84a114.47,114.47,0,0,1-38.82,80,45,45,0,0,0-15,33.94l.06,28.33v.86h0c-.4,4.76-4.16,5-5,5Z"/><path class="cls-2" d="M610.85,639.05a45.66,45.66,0,0,1-45.61-45.61V443.39a45.84,45.84,0,0,1,44.62-45.7,44.87,44.87,0,0,1,32.48,13A47,47,0,0,1,656.47,444V593.45A45.67,45.67,0,0,1,610.85,639.05Zm0-231.37h-.76a35.78,35.78,0,0,0-34.83,35.69V593.44a35.61,35.61,0,0,0,71.22,0V444a37,37,0,0,0-11.12-26.19A34.93,34.93,0,0,0,610.83,407.68Z"/><path class="cls-2" d="M692.07,632.9a45.66,45.66,0,0,1-45.61-45.61V455.07a45.84,45.84,0,0,1,44.62-45.71,44.9,44.9,0,0,1,32.48,13,47.05,47.05,0,0,1,14.13,33.34h0V587.3A45.67,45.67,0,0,1,692.07,632.9Zm0-213.55h-.75a35.79,35.79,0,0,0-34.83,35.7V587.29a35.61,35.61,0,0,0,71.22,0V455.69a36.94,36.94,0,0,0-11.12-26.2A34.9,34.9,0,0,0,692,419.35Z"/><path class="cls-2" d="M773.29,627a45.66,45.66,0,0,1-45.61-45.61V486.55a45.85,45.85,0,0,1,44.63-45.7,44.83,44.83,0,0,1,32.48,13,47,47,0,0,1,14.13,33.33v.1l-1.56,94.26C817.36,607,798,627,773.29,627Zm0-176.19h-.75a35.79,35.79,0,0,0-34.84,35.69v94.88A35.66,35.66,0,0,0,773.29,617c19.1,0,34.07-15.64,34.07-35.6l1.56-94.3A37,37,0,0,0,797.8,461,34.94,34.94,0,0,0,773.27,450.84Z"/><path class="cls-2" d="M510,215.32a1.5,1.5,0,0,1-.58-2.89,51.12,51.12,0,0,1,10-3.05,1.5,1.5,0,1,1,.57,2.94,47.87,47.87,0,0,0-9.45,2.88A1.47,1.47,0,0,1,510,215.32Z"/><path class="cls-2" d="M510,215.32a1.5,1.5,0,0,1-.58-2.88,50.5,50.5,0,0,1,10-3.06,1.5,1.5,0,1,1,.57,2.94,48.08,48.08,0,0,0-9.45,2.88A1.51,1.51,0,0,1,510,215.32Z"/><path class="cls-2" d="M547.68,215.26a1.47,1.47,0,0,1-.58-.12A47.16,47.16,0,0,0,520,212.32a1.5,1.5,0,1,1-.57-2.94,50.13,50.13,0,0,1,28.81,3,1.5,1.5,0,0,1-.57,2.89Z"/><path class="cls-2" d="M498.3,233.3a1.49,1.49,0,0,1-1.12-2.49,42.17,42.17,0,0,1,18.53-12.23,1.5,1.5,0,1,1,.93,2.85,39.14,39.14,0,0,0-17.21,11.36A1.49,1.49,0,0,1,498.3,233.3Z"/><path class="cls-2" d="M498.3,233.31a1.47,1.47,0,0,1-1-.38,1.5,1.5,0,0,1-.14-2.11,42.19,42.19,0,0,1,18.54-12.24,1.5,1.5,0,1,1,.93,2.85,39.08,39.08,0,0,0-17.21,11.37A1.49,1.49,0,0,1,498.3,233.31Z"/><path class="cls-2" d="M559.41,233.19a1.48,1.48,0,0,1-1.12-.5,39.37,39.37,0,0,0-38-12.25c-1.21.27-2.42.61-3.6,1a1.5,1.5,0,1,1-.93-2.85c1.26-.41,2.56-.77,3.87-1.07a42.39,42.39,0,0,1,40.95,13.18,1.51,1.51,0,0,1-.12,2.12A1.54,1.54,0,0,1,559.41,233.19Z"/><path class="cls-2" d="M514.5,230.72a1.52,1.52,0,0,1-1.35-.85,1.49,1.49,0,0,1,.7-2,3.62,3.62,0,0,1,.45-.2l.24-.11a1.5,1.5,0,0,1,1.25,2.73l-.35.15-.28.12A1.46,1.46,0,0,1,514.5,230.72Z"/><path class="cls-2" d="M497.52,250.58a1.41,1.41,0,0,1-.45-.07,1.5,1.5,0,0,1-1-1.87,34.45,34.45,0,0,1,17.77-20.77,1.5,1.5,0,0,1,1.31,2.69,31.44,31.44,0,0,0-16.21,19A1.49,1.49,0,0,1,497.52,250.58Z"/><path class="cls-2" d="M515.17,230.43a1.5,1.5,0,0,1-.63-2.86,33.14,33.14,0,0,1,5.15-1.91,1.5,1.5,0,0,1,.8,2.89,31.87,31.87,0,0,0-4.7,1.74A1.4,1.4,0,0,1,515.17,230.43Z"/><path class="cls-2" d="M515.17,230.43a1.5,1.5,0,0,1-.63-2.86,33.14,33.14,0,0,1,5.15-1.91,1.5,1.5,0,0,1,.8,2.89,31.87,31.87,0,0,0-4.7,1.74A1.4,1.4,0,0,1,515.17,230.43Z"/><path class="cls-2" d="M497.52,250.59a1.41,1.41,0,0,1-.45-.07,1.5,1.5,0,0,1-1-1.87,34.44,34.44,0,0,1,17.77-20.78,1.5,1.5,0,0,1,1.31,2.69,31.46,31.46,0,0,0-16.21,19A1.49,1.49,0,0,1,497.52,250.59Z"/><path class="cls-2" d="M514.5,230.72a1.52,1.52,0,0,1-1.35-.85,1.49,1.49,0,0,1,.7-2,3.62,3.62,0,0,1,.45-.2l.24-.11a1.5,1.5,0,0,1,1.25,2.73l-.35.15-.28.12A1.46,1.46,0,0,1,514.5,230.72Z"/><path class="cls-2" d="M560.22,250.39a1.52,1.52,0,0,1-1.43-1,31.26,31.26,0,0,0-38.3-20.79,1.5,1.5,0,1,1-.8-2.89,34.26,34.26,0,0,1,42,22.77,1.5,1.5,0,0,1-1,1.89A1.83,1.83,0,0,1,560.22,250.39Z"/><path class="cls-2" d="M553.42,257.87a1.5,1.5,0,0,1-1.49-1.35,23.44,23.44,0,0,0-1.27-5.67,1.5,1.5,0,0,1,.89-1.92,1.52,1.52,0,0,1,1.93.89,26.53,26.53,0,0,1,1.44,6.4,1.5,1.5,0,0,1-1.35,1.64Z"/><path class="cls-2" d="M504.36,262.75a1.5,1.5,0,0,1-1.49-1.35,26.16,26.16,0,0,1,13-25.28,1.5,1.5,0,0,1,1.5,2.6,23.19,23.19,0,0,0-11.48,22.39,1.49,1.49,0,0,1-1.34,1.64Z"/><path class="cls-2" d="M556.82,272.5a1.5,1.5,0,0,1-1.42-1,66.81,66.81,0,0,1-3.47-15,1.5,1.5,0,0,1,3-.3,63.94,63.94,0,0,0,3.32,14.3,1.49,1.49,0,0,1-.94,1.9A1.34,1.34,0,0,1,556.82,272.5Z"/><path class="cls-2" d="M509.92,283.21a1.49,1.49,0,0,1-1.39-.94c-2.23-5.62-4.88-13.07-5.66-20.87a1.5,1.5,0,1,1,3-.29c.74,7.42,3.31,14.61,5.46,20.05a1.5,1.5,0,0,1-.84,1.95A1.52,1.52,0,0,1,509.92,283.21Z"/><path class="cls-2" d="M504.36,262.75a1.5,1.5,0,0,1-1.49-1.35,26.16,26.16,0,0,1,13-25.28,1.5,1.5,0,0,1,1.5,2.6,23.19,23.19,0,0,0-11.48,22.39,1.49,1.49,0,0,1-1.34,1.64Z"/><path class="cls-2" d="M553.42,257.87a1.5,1.5,0,0,1-1.49-1.35,23.44,23.44,0,0,0-1.27-5.67,1.5,1.5,0,0,1,.89-1.92,1.52,1.52,0,0,1,1.93.89,26.53,26.53,0,0,1,1.44,6.4,1.5,1.5,0,0,1-1.35,1.64Z"/><path class="cls-2" d="M552.07,251.84a1.5,1.5,0,0,1-1.41-1,23.17,23.17,0,0,0-33.33-12.13,1.5,1.5,0,1,1-1.5-2.6,26.38,26.38,0,0,1,4.07-1.89,26.18,26.18,0,0,1,33.58,15.59,1.5,1.5,0,0,1-1.41,2Z"/><path class="cls-2" d="M545.38,258.67a1.5,1.5,0,0,1-1.49-1.35,15.12,15.12,0,0,0-1.77-5.73,1.5,1.5,0,1,1,2.63-1.44,17.86,17.86,0,0,1,2.12,6.87,1.49,1.49,0,0,1-1.34,1.64Z"/><path class="cls-2" d="M512.4,262a1.5,1.5,0,0,1-1.49-1.35,18.18,18.18,0,0,1,7-16.15,1.5,1.5,0,0,1,1.82,2.39,15.17,15.17,0,0,0-5.85,13.47,1.49,1.49,0,0,1-1.34,1.64Z"/><path class="cls-2" d="M551.34,280.15a1.5,1.5,0,0,1-1.39-.94c-2.55-6.33-5.26-13.88-6.06-21.89a1.5,1.5,0,1,1,3-.3c.76,7.64,3.39,14.93,5.86,21.06a1.51,1.51,0,0,1-.83,2A1.55,1.55,0,0,1,551.34,280.15Z"/><path class="cls-2" d="M545.38,258.67a1.5,1.5,0,0,1-1.49-1.35,15.07,15.07,0,0,0-1.77-5.73,1.5,1.5,0,1,1,2.63-1.44,18,18,0,0,1,2.12,6.87,1.49,1.49,0,0,1-1.34,1.64Z"/><path class="cls-2" d="M512.4,262a1.5,1.5,0,0,1-1.49-1.35,18.18,18.18,0,0,1,7-16.15,1.5,1.5,0,0,1,1.82,2.39,15.17,15.17,0,0,0-5.85,13.47,1.5,1.5,0,0,1-1.34,1.64Z"/><path class="cls-2" d="M520.41,288.37a1.49,1.49,0,0,1-1.38-.91c-3.6-8.44-7.19-17.47-8.12-26.86a1.5,1.5,0,1,1,3-.29c.89,9,4.39,17.74,7.9,26a1.51,1.51,0,0,1-1.38,2.09Z"/><path class="cls-2" d="M543.43,252.37a1.48,1.48,0,0,1-1.31-.78,15.09,15.09,0,0,0-20.45-6,16.32,16.32,0,0,0-1.93,1.25,1.5,1.5,0,0,1-1.82-2.39,19.42,19.42,0,0,1,2.31-1.5,18.1,18.1,0,0,1,24.52,7.2,1.5,1.5,0,0,1-.6,2A1.54,1.54,0,0,1,543.43,252.37Z"/><path class="cls-2" d="M520.34,261.16a1.5,1.5,0,0,1-1.49-1.35,10.21,10.21,0,0,1,.4-4,1.5,1.5,0,1,1,2.87.89,7.21,7.21,0,0,0-.29,2.85,1.5,1.5,0,0,1-1.34,1.65Z"/><path class="cls-2" d="M545.1,285.05a1.49,1.49,0,0,1-1.38-.92c-3.28-7.73-6.85-16.76-7.77-26a1.5,1.5,0,1,1,3-.3c.88,8.84,4.36,17.62,7.55,25.15a1.5,1.5,0,0,1-.8,2A1.47,1.47,0,0,1,545.1,285.05Z"/><path class="cls-2" d="M529.17,289.5a1.51,1.51,0,0,1-1.38-.91c-4.33-10.08-8-19.2-8.94-28.78a1.5,1.5,0,1,1,3-.3c.91,9.16,4.49,18.05,8.72,27.9a1.5,1.5,0,0,1-.79,2A1.52,1.52,0,0,1,529.17,289.5Z"/><path class="cls-2" d="M520.34,261.16a1.5,1.5,0,0,1-1.49-1.35,10.21,10.21,0,0,1,.4-4,1.5,1.5,0,1,1,2.87.89,7.21,7.21,0,0,0-.29,2.85,1.5,1.5,0,0,1-1.34,1.65Z"/><path class="cls-2" d="M537.44,259.46a1.5,1.5,0,0,1-1.49-1.35,7.09,7.09,0,0,0-12.38-4,6.77,6.77,0,0,0-1.45,2.57,1.5,1.5,0,0,1-2.87-.89,9.83,9.83,0,0,1,2.07-3.67,10.08,10.08,0,0,1,17.61,5.71,1.49,1.49,0,0,1-1.34,1.64Z"/><path class="cls-2" d="M537.65,288.29a1.5,1.5,0,0,1-1.38-.91c-4.25-9.9-7.84-18.87-8.8-28.43a1.5,1.5,0,0,1,3-.3c.91,9.13,4.42,17.88,8.57,27.55a1.5,1.5,0,0,1-1.38,2.09Z"/><path class="cls-2" d="M498.3,233.31a1.5,1.5,0,1,1,.48-2.93,1.51,1.51,0,0,1,1,1.9h0A1.5,1.5,0,0,1,498.3,233.31Z"/><path class="cls-2" d="M497.52,250.59a1.5,1.5,0,1,1,1.5-1.51h0A1.5,1.5,0,0,1,497.52,250.59Z"/><path class="cls-3" d="M510,213.82h0"/><path class="cls-2" d="M587.55,334H470.19a20.53,20.53,0,0,1-20.5-20.5V179.75a20.52,20.52,0,0,1,20.5-20.5H587.55a20.52,20.52,0,0,1,20.5,20.5V313.51A20.53,20.53,0,0,1,587.55,334ZM470.19,169.25a10.51,10.51,0,0,0-10.5,10.5V313.51a10.51,10.51,0,0,0,10.5,10.5H587.55a10.51,10.51,0,0,0,10.5-10.5V179.75a10.51,10.51,0,0,0-10.5-10.5Z"/></svg>