<svg id="OUTLINES" xmlns="http://www.w3.org/2000/svg" viewBox="0 0 1152 1008"><defs><style>.cls-1{fill:#fff;}.cls-2{fill:#000f7d;}</style></defs><title>prevent-automated-sign-ins-with-challenges</title><rect class="cls-1" x="344" y="187.5" width="480" height="174" rx="24"/><path class="cls-2" d="M792,179.5H360a24,24,0,0,0-24,24v126a24,24,0,0,0,24,24H792a24,24,0,0,0,24-24v-126A24,24,0,0,0,792,179.5Zm12,150a12,12,0,0,1-12,12H360a12,12,0,0,1-12-12v-126a12,12,0,0,1,12-12H792a12,12,0,0,1,12,12Z"/><path class="cls-2" d="M388.47,232.92l-5-1.17q-3.1-.72-3.11-3a2.81,2.81,0,0,1,1.19-2.37,5.3,5.3,0,0,1,3.18-.87q4,0,5.08,3.28h5.72A9.55,9.55,0,0,0,392,223a11.6,11.6,0,0,0-7.36-2.18,10.61,10.61,0,0,0-7.15,2.39,7.66,7.66,0,0,0-2.79,6.12q0,6,7,7.56l4.95,1.12a5.66,5.66,0,0,1,2.58,1.13,2.53,2.53,0,0,1,.79,2,3,3,0,0,1-1.26,2.54,5.61,5.61,0,0,1-3.37.92q-4.37,0-5.49-3.55H374a9.31,9.31,0,0,0,3.78,6.12,12.81,12.81,0,0,0,7.69,2.2,11.33,11.33,0,0,0,7.38-2.34,7.64,7.64,0,0,0,2.88-6.25Q395.71,234.59,388.47,232.92Z"/><path class="cls-2" d="M408.13,228.29a9,9,0,0,0-6.95,3,11.9,11.9,0,0,0,0,15.12,9.21,9.21,0,0,0,7.06,2.9,9.31,9.31,0,0,0,6-1.87,8,8,0,0,0,2.86-5.15H412c-.46,1.68-1.7,2.52-3.74,2.52a4,4,0,0,1-3.06-1.28,5.57,5.57,0,0,1-1.3-3.53h13.41v-1.71a10.59,10.59,0,0,0-2.41-7.27A8.51,8.51,0,0,0,408.13,228.29ZM404,236.61q.76-3.78,4.18-3.78a3.31,3.31,0,0,1,2.62,1.06,4.09,4.09,0,0,1,1,2.72Z"/><rect class="cls-2" x="420.82" y="219.6" width="5.58" height="29.25"/><path class="cls-2" d="M443.5,242.28q-.67,2.52-3.74,2.52a3.93,3.93,0,0,1-3.05-1.28A5.52,5.52,0,0,1,435.4,240h13.41v-1.71A10.55,10.55,0,0,0,446.4,231a8.49,8.49,0,0,0-6.73-2.72,9,9,0,0,0-6.95,3,11.9,11.9,0,0,0,0,15.12,9.21,9.21,0,0,0,7.06,2.9,9.35,9.35,0,0,0,6.06-1.87,8,8,0,0,0,2.85-5.15Zm-3.78-9.45a3.31,3.31,0,0,1,2.61,1.06,4.09,4.09,0,0,1,1,2.72h-7.78C436,234.09,437.44,232.83,439.72,232.83Z"/><path class="cls-2" d="M461,249.3a9,9,0,0,0,6.05-2,8.07,8.07,0,0,0,2.77-5.26h-5.49a2.87,2.87,0,0,1-1.1,1.82,3.68,3.68,0,0,1-2.23.65,3.53,3.53,0,0,1-3-1.57,7,7,0,0,1-1.12-4.14,7.07,7.07,0,0,1,1.12-4.19,3.53,3.53,0,0,1,3-1.57,3.62,3.62,0,0,1,2.23.65,2.85,2.85,0,0,1,1.1,1.82h5.49a8.05,8.05,0,0,0-2.79-5.26,10,10,0,0,0-13,.94,12,12,0,0,0,0,15.17A9.07,9.07,0,0,0,461,249.3Z"/><path class="cls-2" d="M480.13,242.06v-8.82h4.41v-4.5h-4.41v-5.45h-5.54v5.45h-3.06v4.5h3.06v9.54a6.3,6.3,0,0,0,1.76,4.86,7,7,0,0,0,4.9,1.62,7.89,7.89,0,0,0,3.6-.63v-4.95a4.35,4.35,0,0,1-2.43.67A2,2,0,0,1,480.13,242.06Z"/><path class="cls-2" d="M507.67,248.76a4.93,4.93,0,0,0,1.93-1v1.08H515V236a7.35,7.35,0,0,0-2.23-5.7,10.17,10.17,0,0,0-11.92-.22,7.12,7.12,0,0,0-2.77,4.61h5.31a2.86,2.86,0,0,1,3-1.89,3.19,3.19,0,0,1,2.45.88,3.08,3.08,0,0,1,.83,2.23v1.48a6.34,6.34,0,0,0-2-.81,10.12,10.12,0,0,0-2.61-.36,8.53,8.53,0,0,0-5.55,1.8,5.69,5.69,0,0,0-2.23,4.64,5.83,5.83,0,0,0,2.14,4.77,8.11,8.11,0,0,0,5.33,1.75A9.62,9.62,0,0,0,507.67,248.76Zm-5.27-6.12a2,2,0,0,1,1.06-1.84,4.81,4.81,0,0,1,2.5-.63,5.21,5.21,0,0,1,2.27.47,2.58,2.58,0,0,1,1.37,1.28v1.44a2.58,2.58,0,0,1-1.37,1.28,5.21,5.21,0,0,1-2.27.48,4.76,4.76,0,0,1-2.52-.63A2,2,0,0,1,502.4,242.64Z"/><rect class="cls-2" x="519.5" y="219.6" width="5.58" height="29.25"/><rect class="cls-2" x="529.94" y="219.6" width="5.58" height="29.25"/><path class="cls-2" d="M565.81,242.78q0-4.54-5.36-5.85l-4.14-1c-1.2-.3-1.8-.82-1.8-1.57a1.56,1.56,0,0,1,.79-1.4,3.43,3.43,0,0,1,1.87-.49q2.52,0,3.15,2h5.31a7.18,7.18,0,0,0-2.68-4.57,9.39,9.39,0,0,0-5.87-1.64,8.89,8.89,0,0,0-5.72,1.82,5.72,5.72,0,0,0-2.29,4.7q0,4.45,5.22,5.67l4.05.9a4.24,4.24,0,0,1,1.55.65,1.28,1.28,0,0,1,.47,1.06c0,1.32-.94,2-2.83,2s-2.93-.73-3.38-2.2h-5.53a6.73,6.73,0,0,0,2.83,4.74,10.32,10.32,0,0,0,6.12,1.69,9.55,9.55,0,0,0,5.92-1.75A5.68,5.68,0,0,0,565.81,242.78Z"/><path class="cls-2" d="M580.39,248.67a5.84,5.84,0,0,0,2.11-1.48v9.09h5.58V228.74H582.5v1.66a5.84,5.84,0,0,0-2.11-1.48,7.05,7.05,0,0,0-2.93-.63,8.19,8.19,0,0,0-6.7,3,11.51,11.51,0,0,0-2.48,7.5,11.39,11.39,0,0,0,2.48,7.47,8.2,8.2,0,0,0,6.7,3A7.05,7.05,0,0,0,580.39,248.67Zm-6.48-9.85a6.26,6.26,0,0,1,1.3-4.08,4.31,4.31,0,0,1,3.51-1.59,4,4,0,0,1,2.23.65,4.41,4.41,0,0,1,1.55,1.69v6.61a4.07,4.07,0,0,1-1.53,1.69,4.18,4.18,0,0,1-2.25.65,4.32,4.32,0,0,1-3.51-1.57A6.13,6.13,0,0,1,573.91,238.82Z"/><path class="cls-2" d="M610.76,248.85V228.74h-5.62v12.78a3.46,3.46,0,0,1-1.31,2,3.68,3.68,0,0,1-2.29.75,3,3,0,0,1-2.43-.95,3.88,3.88,0,0,1-.81-2.61v-12h-5.58v13.14a7.67,7.67,0,0,0,1.86,5.4,6.73,6.73,0,0,0,5.2,2,6.93,6.93,0,0,0,5.4-2.29v1.84Z"/><path class="cls-2" d="M624.76,236.61a10.12,10.12,0,0,0-2.61-.36,8.55,8.55,0,0,0-5.56,1.8,5.69,5.69,0,0,0-2.23,4.64,5.83,5.83,0,0,0,2.14,4.77,8.11,8.11,0,0,0,5.33,1.75,9.62,9.62,0,0,0,3-.45,5,5,0,0,0,1.94-1v1.08h5.35V236a7.35,7.35,0,0,0-2.23-5.7,10.17,10.17,0,0,0-11.92-.22,7.12,7.12,0,0,0-2.77,4.61h5.31a2.86,2.86,0,0,1,3-1.89,3.19,3.19,0,0,1,2.45.88,3.09,3.09,0,0,1,.84,2.23v1.48A6.34,6.34,0,0,0,624.76,236.61Zm2,6.75a2.6,2.6,0,0,1-1.38,1.28,5.21,5.21,0,0,1-2.27.48,4.76,4.76,0,0,1-2.52-.63,2.16,2.16,0,0,1,0-3.69,4.81,4.81,0,0,1,2.5-.63,5.21,5.21,0,0,1,2.27.47,2.6,2.6,0,0,1,1.38,1.28Z"/><path class="cls-2" d="M642.22,236.39a3.47,3.47,0,0,1,1.35-2.1,4.15,4.15,0,0,1,2.47-.74,5.34,5.34,0,0,1,2.79.68v-5.58a4.51,4.51,0,0,0-2.11-.36,4.86,4.86,0,0,0-4.5,2.43v-2h-5.58v20.11h5.58Z"/><path class="cls-2" d="M660.44,249.3a9.31,9.31,0,0,0,6-1.87,8,8,0,0,0,2.86-5.15h-5.17q-.67,2.52-3.74,2.52a4,4,0,0,1-3.06-1.28,5.57,5.57,0,0,1-1.3-3.53h13.41v-1.71a10.59,10.59,0,0,0-2.41-7.27,8.51,8.51,0,0,0-6.73-2.72,9,9,0,0,0-7,3,11.9,11.9,0,0,0,0,15.12A9.21,9.21,0,0,0,660.44,249.3Zm0-16.47a3.31,3.31,0,0,1,2.61,1.06,4.09,4.09,0,0,1,1,2.72h-7.79Q657,232.83,660.4,232.83Z"/><path class="cls-2" d="M683.62,236.93l-4.14-1c-1.2-.3-1.81-.82-1.81-1.57a1.58,1.58,0,0,1,.79-1.4,3.45,3.45,0,0,1,1.87-.49q2.52,0,3.15,2h5.31a7.14,7.14,0,0,0-2.68-4.57,9.37,9.37,0,0,0-5.87-1.64,8.86,8.86,0,0,0-5.71,1.82,5.73,5.73,0,0,0-2.3,4.7q0,4.45,5.22,5.67l4,.9a4.16,4.16,0,0,1,1.55.65,1.29,1.29,0,0,1,.48,1.06c0,1.32-.95,2-2.84,2s-2.92-.73-3.37-2.2h-5.54a6.71,6.71,0,0,0,2.84,4.74,10.32,10.32,0,0,0,6.12,1.69,9.51,9.51,0,0,0,5.91-1.75,5.65,5.65,0,0,0,2.32-4.77C689,239.75,687.18,237.8,683.62,236.93Z"/><polygon class="cls-2" points="720.52 241.56 717.19 228.74 712.91 228.74 709.63 241.56 706.02 228.74 700.45 228.74 706.57 248.85 711.7 248.85 714.98 236.52 718.27 248.85 723.4 248.85 729.52 228.74 724.12 228.74 720.52 241.56"/><path class="cls-2" d="M735.32,219.74a3.29,3.29,0,0,0-2.34.92,3.15,3.15,0,0,0,0,4.57,3.49,3.49,0,0,0,4.68,0,3.2,3.2,0,0,0,0-4.57A3.23,3.23,0,0,0,735.32,219.74Z"/><rect class="cls-2" x="732.53" y="228.74" width="5.58" height="20.12"/><path class="cls-2" d="M749.72,242.06v-8.82h4.41v-4.5h-4.41v-5.45h-5.54v5.45h-3.06v4.5h3.06v9.54a6.3,6.3,0,0,0,1.76,4.86,7,7,0,0,0,4.9,1.62,7.89,7.89,0,0,0,3.6-.63v-4.95a4.35,4.35,0,0,1-2.43.67A2,2,0,0,1,749.72,242.06Z"/><path class="cls-2" d="M769.47,228.29a6.76,6.76,0,0,0-5.4,2.29v-11h-5.58v29.25h5.58V236.12a3.47,3.47,0,0,1,1.33-2.05,3.8,3.8,0,0,1,2.32-.74,3.06,3.06,0,0,1,2.45,1,3.82,3.82,0,0,1,.83,2.59v12h5.58V235.71a7.67,7.67,0,0,0-1.86-5.4A6.8,6.8,0,0,0,769.47,228.29Z"/><path class="cls-2" d="M386.35,302V289.64h6.18v-6.3h-6.18v-7.62H378.6v7.62h-4.28v6.3h4.28V303q0,4.53,2.46,6.8a9.77,9.77,0,0,0,6.87,2.27,11,11,0,0,0,5-.89v-6.93a6.1,6.1,0,0,1-3.4.95Q386.35,305.2,386.35,302Z"/><path class="cls-2" d="M406.45,286.11v-2.77h-7.81V311.5h7.81V294.05a4.77,4.77,0,0,1,1.89-2.93,5.79,5.79,0,0,1,3.46-1,7.47,7.47,0,0,1,3.91.94v-7.81a6.45,6.45,0,0,0-3-.5A6.79,6.79,0,0,0,406.45,286.11Z"/><path class="cls-2" d="M431.14,282.71a12.49,12.49,0,0,0-8,2.55,10,10,0,0,0-3.88,6.46h7.43a4,4,0,0,1,4.16-2.65,4.52,4.52,0,0,1,3.44,1.23,4.38,4.38,0,0,1,1.16,3.12v2.08a9,9,0,0,0-2.77-1.14,14.42,14.42,0,0,0-3.65-.5,12,12,0,0,0-7.78,2.52,8,8,0,0,0-3.12,6.49,8.18,8.18,0,0,0,3,6.68,11.39,11.39,0,0,0,7.46,2.45,13.47,13.47,0,0,0,4.16-.63,7,7,0,0,0,2.71-1.38v1.51H443v-18a10.26,10.26,0,0,0-3.12-8Q436.75,282.72,431.14,282.71Zm4.35,21.1a3.62,3.62,0,0,1-1.92,1.8,7.48,7.48,0,0,1-3.18.66,6.65,6.65,0,0,1-3.53-.88,3,3,0,0,1,0-5.17,6.69,6.69,0,0,1,3.5-.88,7.48,7.48,0,0,1,3.18.66,3.62,3.62,0,0,1,1.92,1.8Z"/><path class="cls-2" d="M472.6,272.63a9.81,9.81,0,0,0-2.71,7.37v3.34H459.24v-2.58a3.68,3.68,0,0,1,1-2.81,3.93,3.93,0,0,1,2.8-1,4.76,4.76,0,0,1,2.78.75v-6.61a10.7,10.7,0,0,0-4.35-.76,9.24,9.24,0,0,0-9.95,10v3H447v6.3h4.6V311.5h7.68V289.64h10.65V311.5h7.68V289.64h5.86v-6.3h-5.86V280.5a3.55,3.55,0,0,1,3.85-3.9,4.74,4.74,0,0,1,2.77.75v-6.61a10.64,10.64,0,0,0-4.35-.76A9.93,9.93,0,0,0,472.6,272.63Z"/><rect class="cls-2" x="488.22" y="283.34" width="7.81" height="28.16"/><path class="cls-2" d="M492.13,270.74a4.65,4.65,0,0,0-3.28,1.29,4.42,4.42,0,0,0,0,6.39,4.64,4.64,0,0,0,3.31,1.26,4.54,4.54,0,0,0,3.24-1.26,4.43,4.43,0,0,0,0-6.39A4.52,4.52,0,0,0,492.13,270.74Z"/><path class="cls-2" d="M514.62,289.39a5.08,5.08,0,0,1,3.12.91,4,4,0,0,1,1.54,2.55H527a11.37,11.37,0,0,0-3.91-7.37,13.95,13.95,0,0,0-18.21,1.32,16.81,16.81,0,0,0,0,21.24,14,14,0,0,0,18.24,1.32A11.43,11.43,0,0,0,527,302h-7.69a4,4,0,0,1-1.54,2.55,5.08,5.08,0,0,1-3.12.91,4.92,4.92,0,0,1-4.22-2.2,9.78,9.78,0,0,1-1.58-5.8,9.89,9.89,0,0,1,1.58-5.86A4.92,4.92,0,0,1,514.62,289.39Z"/><rect class="cls-2" x="545.11" y="270.55" width="7.81" height="40.95"/><rect class="cls-2" x="559.72" y="283.34" width="7.81" height="28.16"/><path class="cls-2" d="M563.63,270.74a4.67,4.67,0,0,0-3.28,1.29,4.42,4.42,0,0,0,0,6.39,4.66,4.66,0,0,0,3.31,1.26,4.58,4.58,0,0,0,3.25-1.26,4.46,4.46,0,0,0,0-6.39A4.56,4.56,0,0,0,563.63,270.74Z"/><path class="cls-2" d="M592.3,285.54a8.68,8.68,0,0,0-6.93-2.83A11.59,11.59,0,0,0,576,286.8a16.14,16.14,0,0,0,0,20,11.57,11.57,0,0,0,9.33,4.1,8.49,8.49,0,0,0,6.93-2.9v1.64q0,6.87-6,6.87c-3.07,0-4.92-1.33-5.55-4h-7.56a10.58,10.58,0,0,0,4.13,7.37,14.49,14.49,0,0,0,9,2.64q6.24,0,10-3.56T600,308.41V283.34H592.3Zm0,15.82a6.22,6.22,0,0,1-2.18,2.11,6.45,6.45,0,0,1-8-1.26,8.26,8.26,0,0,1-1.76-5.45,8.12,8.12,0,0,1,1.76-5.42,6,6,0,0,1,4.85-2.08,5.81,5.81,0,0,1,5.3,2.9Z"/><path class="cls-2" d="M622.22,282.71a9.47,9.47,0,0,0-7.56,3.21V270.55h-7.81V311.5h7.81V293.67a4.82,4.82,0,0,1,1.86-2.87,5.34,5.34,0,0,1,3.24-1,4.32,4.32,0,0,1,3.44,1.36,5.39,5.39,0,0,1,1.16,3.62V311.5h7.81V293.1a10.72,10.72,0,0,0-2.61-7.56A9.48,9.48,0,0,0,622.22,282.71Z"/><path class="cls-2" d="M648.11,302V289.64h6.18v-6.3h-6.18v-7.62h-7.75v7.62h-4.28v6.3h4.28V303q0,4.53,2.46,6.8a9.77,9.77,0,0,0,6.87,2.27,11,11,0,0,0,5-.89v-6.93a6.1,6.1,0,0,1-3.4.95Q648.1,305.2,648.11,302Z"/><path class="cls-2" d="M674.89,294.8l-5.8-1.32c-1.68-.42-2.52-1.15-2.52-2.2a2.21,2.21,0,0,1,1.1-2,4.85,4.85,0,0,1,2.62-.69q3.53,0,4.41,2.77h7.43a10,10,0,0,0-3.75-6.39q-3-2.29-8.22-2.3a12.46,12.46,0,0,0-8,2.55,8,8,0,0,0-3.21,6.58q0,6.24,7.3,7.94l5.67,1.26a5.71,5.71,0,0,1,2.18.92,1.79,1.79,0,0,1,.66,1.48c0,1.84-1.32,2.77-4,2.77s-4.09-1-4.72-3.09h-7.75a9.46,9.46,0,0,0,4,6.65,14.5,14.5,0,0,0,8.56,2.36,13.36,13.36,0,0,0,8.29-2.46,7.92,7.92,0,0,0,3.24-6.67Q682.38,296.63,674.89,294.8Z"/><path class="cls-1" d="M651.5,384.5h-279a6,6,0,0,0-6,6v423a15,15,0,0,0,15,15h270a15,15,0,0,0,15-15v-414A15,15,0,0,0,651.5,384.5Z"/><path class="cls-2" d="M787.5,377.5H648.84a14.82,14.82,0,0,0-5.34-1h-270a15,15,0,0,0-15,15v414a15,15,0,0,0,15,15h270a14.82,14.82,0,0,0,5.34-1H787.5a14,14,0,0,0,14-14v-414A14,14,0,0,0,787.5,377.5Zm-336,299h29.09a41,41,0,0,0,21.91,70.56V759h-48a3,3,0,0,1-3-3Zm-81-72h69v24h-69Zm69-12h-69v-60h69Zm-69,48h69v24h-69Zm81-6v-102h16.44a41.12,41.12,0,0,0,34.56,34.56v8.88a41,41,0,0,0,0,81.12v7.44h-51Zm126-102h69v60h-69Zm0,72h69v24h-69Zm69-213v129h-69V477a15,15,0,0,0-15-15h-48V388.5h129A3,3,0,0,1,646.5,391.5Zm-84,82.5a3,3,0,0,1,3,3v43.5H549.06a41.12,41.12,0,0,0-34.56-34.56V474Zm-23,232.5a31,31,0,0,1-25,30.41V676.5h1.82A31.05,31.05,0,0,1,539.5,706.5Zm-38.82-30h1.82v60.41a31,31,0,0,1-1.82-60.41Zm1.82-29.59a31,31,0,0,1,0-60.82Zm12-60.82a31,31,0,0,1,0,60.82Zm-12-65.59H478.09a31.08,31.08,0,0,1,24.41-24.41Zm0,12v24.41a31.08,31.08,0,0,1-24.41-24.41Zm12,0h24.41a31.08,31.08,0,0,1-24.41,24.41Zm0-12V496.09a31.08,31.08,0,0,1,24.41,24.41Zm-12-34.56a41.12,41.12,0,0,0-34.56,34.56H451.5V477a3,3,0,0,1,3-3h48Zm12,261.12a41,41,0,0,0,21.91-70.56H565.5V756a3,3,0,0,1-3,3h-48Zm0-82.56v-7.44a41,41,0,0,0,0-81.12v-8.88a41.12,41.12,0,0,0,34.56-34.56H565.5v132Zm63-24h69v24h-69Zm81,.11a171.72,171.72,0,0,1,73,18.84c3.68,1.88,7.28,3.91,10.82,6H658.5Zm78.5,8.15a183.72,183.72,0,0,0-78.5-20.16v-24a209.52,209.52,0,0,1,133,52.52v8.38H763.81A186,186,0,0,0,737,648.76Zm54.5,26.74v15.43a189,189,0,0,0-15.45-15.43Zm-133-82.91V531.5h133V641.43A221.54,221.54,0,0,0,658.5,592.59Zm133-201.09v130h-133v-130a14.69,14.69,0,0,0-.56-4H787.5A4,4,0,0,1,791.5,391.5Zm-421,0a3,3,0,0,1,3-3h129V462h-48a15,15,0,0,0-15,15v43.5h-69Zm0,414v-129h69V756a15,15,0,0,0,15,15h48v37.5h-129A3,3,0,0,1,370.5,805.5Zm144-34.5h48a15,15,0,0,0,15-15V676.5h69v129a3,3,0,0,1-3,3h-129Zm273,38.5H657.94a14.69,14.69,0,0,0,.56-4v-130h98.63a175.76,175.76,0,0,1,34.37,34.33V805.5A4,4,0,0,1,787.5,809.5Z"/></svg>