<svg id="OUTLINES" xmlns="http://www.w3.org/2000/svg" viewBox="0 0 1152 1008"><defs><style>.cls-1{fill:#fff;}.cls-2{fill:#000f7d;}</style></defs><title>prevent-automated-sign-ins-with-behaviour-analysis</title><path class="cls-1" d="M826.33,823.08c-36.41-10.52-72.1-41.94-103.59-69.65-23.41-20.61-45.53-40.08-64.94-48.14-36.25-15.06-59.21-10.41-83.53-5.49-12.51,2.54-25.43,5.2-40.91,5-41.39-.31-80.8-37.76-120.48-114.47L409.05,582l11.27-4.66a3.47,3.47,0,0,0,1.12-5.66L400.16,550.4a23.87,23.87,0,0,0,3.09-11.76v-54a24,24,0,0,0-24-24h-54a24,24,0,0,0-24,24v54a24,24,0,0,0,24,24h54c.59,0,1.17,0,1.75-.07v25.87a3.47,3.47,0,0,0,4.8,3.21l12.16-5L402,595.5a.41.41,0,0,0,0,.09,1.11,1.11,0,0,0,.07.16C444.09,676.88,487,716.49,533.27,716.84c16.71.13,30.27-2.62,43.38-5.28,23.44-4.74,43.69-8.84,76.55,4.81,17.57,7.3,39,26.13,61.61,46.06C747.25,791,784,823.34,823,834.61a6,6,0,0,0,3.33-11.53Z"/><path class="cls-2" d="M884.25,386.5H267.75a23,23,0,0,0-23,23v189a23,23,0,0,0,23,23H408.48l.75,1.33a6,6,0,0,0,11-1.33H884.25a23,23,0,0,0,23-23v-189A23,23,0,0,0,884.25,386.5Zm13,212a13,13,0,0,1-13,13H416.61c-1.52-2.7-3.08-5.5-4.72-8.51a6,6,0,1,0-10.53,5.77l1.51,2.74H267.75a13,13,0,0,1-13-13v-189a13,13,0,0,1,13-13h616.5a13,13,0,0,1,13,13Z"/><rect class="cls-2" x="438.56" y="481.42" width="9.34" height="44.82"/><path class="cls-2" d="M459.8,480.69a5.65,5.65,0,0,0-4.05,1.57,5.26,5.26,0,0,0-1.64,4,5.07,5.07,0,0,0,1.24,3.51,5.57,5.57,0,0,0,3.21,1.75l-5.18,8h5.76l4-6.06a12.08,12.08,0,0,0,2.41-6.57,6.13,6.13,0,0,0-1.65-4.56A5.57,5.57,0,0,0,459.8,480.69Z"/><path class="cls-2" d="M505.79,492.88a12.72,12.72,0,0,0-9.86,4.17,10.33,10.33,0,0,0-8.76-4.17q-5.54,0-8.24,3.44v-2.7h-9.06v32.63h9.06v-21a5.29,5.29,0,0,1,1.86-3.1A5.1,5.1,0,0,1,484,501q4.59,0,4.59,5.84v19.42h9.13v-21a5.25,5.25,0,0,1,1.82-3.14A5.06,5.06,0,0,1,502.8,501a4.09,4.09,0,0,1,3.46,1.57,6.79,6.79,0,0,1,1.21,4.27v19.42h9V504.93q0-5.55-2.85-8.8A9.93,9.93,0,0,0,505.79,492.88Z"/><path class="cls-2" d="M557.33,492.88a11,11,0,0,0-8.76,3.73v-3h-9.06v32.63h9.06V505.59a5.56,5.56,0,0,1,2.15-3.32,6.15,6.15,0,0,1,3.76-1.21,5,5,0,0,1,4,1.57,6.23,6.23,0,0,1,1.35,4.2v19.42h9.05V504.93a12.41,12.41,0,0,0-3-8.76Q562.8,492.89,557.33,492.88Z"/><path class="cls-2" d="M590.32,492.88a15.11,15.11,0,0,0-11.53,4.75q-4.45,4.74-4.46,12.34t4.46,12.26a16.38,16.38,0,0,0,23.07,0q4.44-4.74,4.45-12.26t-4.45-12.34A15.13,15.13,0,0,0,590.32,492.88Zm5.15,23.84a6.42,6.42,0,0,1-10.3,0,11.32,11.32,0,0,1-1.86-6.75,11.48,11.48,0,0,1,1.86-6.83,6.42,6.42,0,0,1,10.3,0,11.48,11.48,0,0,1,1.86,6.83A11.32,11.32,0,0,1,595.47,516.72Z"/><path class="cls-2" d="M623,515.22v-14.3h7.16v-7.3H623v-8.84h-9v8.84h-5v7.3h5v15.47c0,3.51,1,6.13,2.84,7.89s4.55,2.62,8,2.62a12.83,12.83,0,0,0,5.84-1v-8a7,7,0,0,1-3.94,1.1C624.27,519,623,517.71,623,515.22Z"/><path class="cls-2" d="M665.8,492.88a14.46,14.46,0,0,0-9.23,3,11.57,11.57,0,0,0-4.49,7.48h8.61q1.17-3.06,4.82-3.06a5.23,5.23,0,0,1,4,1.42,5,5,0,0,1,1.35,3.61v2.41a10.44,10.44,0,0,0-3.21-1.31,16.43,16.43,0,0,0-4.24-.58,13.85,13.85,0,0,0-9,2.92,9.22,9.22,0,0,0-3.62,7.52,9.48,9.48,0,0,0,3.47,7.73,13.16,13.16,0,0,0,8.65,2.85,15.54,15.54,0,0,0,4.82-.73,8,8,0,0,0,3.14-1.61v1.76h8.69V505.44q0-5.91-3.62-9.23T665.8,492.88Zm5,24.46a4.23,4.23,0,0,1-2.23,2.08,8.61,8.61,0,0,1-3.69.77,7.72,7.72,0,0,1-4.08-1,3.49,3.49,0,0,1,0-6,7.81,7.81,0,0,1,4-1,8.6,8.6,0,0,1,3.69.76,4.27,4.27,0,0,1,2.23,2.08Z"/><path class="cls-2" d="M711.42,496.83v-3.21h-9v32.63h9V506a5.57,5.57,0,0,1,2.19-3.4,6.73,6.73,0,0,1,4-1.2,8.68,8.68,0,0,1,4.53,1.09v-9a7.38,7.38,0,0,0-3.44-.59A7.9,7.9,0,0,0,711.42,496.83Z"/><path class="cls-2" d="M741.14,492.88a15.13,15.13,0,0,0-11.54,4.75q-4.46,4.74-4.45,12.34t4.45,12.26a16.38,16.38,0,0,0,23.07,0q4.46-4.74,4.45-12.26t-4.45-12.34A15.11,15.11,0,0,0,741.14,492.88Zm5.14,23.84a6.41,6.41,0,0,1-10.29,0,11.32,11.32,0,0,1-1.86-6.75,11.48,11.48,0,0,1,1.86-6.83,6.41,6.41,0,0,1,10.29,0,11.48,11.48,0,0,1,1.86,6.83A11.32,11.32,0,0,1,746.28,516.72Z"/><path class="cls-2" d="M780.12,492.88a11.44,11.44,0,0,0-4.75,1,9.44,9.44,0,0,0-3.43,2.41V478.8h-9.12v47.45h9.12v-2.71a9.44,9.44,0,0,0,3.43,2.41,11.44,11.44,0,0,0,4.75,1A13.26,13.26,0,0,0,791,522.12a20.6,20.6,0,0,0,0-24.34A13.24,13.24,0,0,0,780.12,492.88Zm3.65,23.66a7,7,0,0,1-5.7,2.55,6.8,6.8,0,0,1-6.13-3.79V504.57a6.53,6.53,0,0,1,2.48-2.74,6.69,6.69,0,0,1,3.65-1.06,7,7,0,0,1,5.7,2.59,10.11,10.11,0,0,1,2.11,6.61A10,10,0,0,1,783.77,516.54Z"/><path class="cls-2" d="M815,492.88a15.11,15.11,0,0,0-11.53,4.75Q799,502.37,799,510t4.45,12.26a16.38,16.38,0,0,0,23.07,0Q831,517.49,831,510t-4.45-12.34A15.13,15.13,0,0,0,815,492.88Zm5.15,23.84a6.41,6.41,0,0,1-10.29,0A11.26,11.26,0,0,1,808,510a11.41,11.41,0,0,1,1.87-6.83,6.41,6.41,0,0,1,10.29,0A11.48,11.48,0,0,1,822,510,11.32,11.32,0,0,1,820.16,516.72Z"/><path class="cls-2" d="M847.72,515.22v-14.3h7.15v-7.3h-7.15v-8.84h-9v8.84h-5v7.3h5v15.47c0,3.51,1,6.13,2.84,7.89s4.55,2.62,8,2.62a12.8,12.8,0,0,0,5.84-1v-8a7,7,0,0,1-3.94,1.1Q847.72,519,847.72,515.22Z"/><path class="cls-2" d="M390.59,544.83a23.82,23.82,0,0,0,4.66-14.19v-54a24,24,0,0,0-24-24h-54a24,24,0,0,0-24,24v54a24,24,0,0,0,24,24H369v25.8a3.47,3.47,0,0,0,4.8,3.21l12.16-5L390,587.5a6,6,0,0,0,5.46,3.5,5.84,5.84,0,0,0,2.49-.55,6,6,0,0,0,3-8l-3.9-8.49,11.27-4.66a3.47,3.47,0,0,0,1.12-5.66Zm-73.34-2.19a12,12,0,0,1-12-12v-54a12,12,0,0,1,12-12h54a11.92,11.92,0,0,1,4.28.8l0,0-36.17,46.87-15.61-19.11a6,6,0,1,0-9.29,7.59l20.39,25a6,6,0,0,0,4.65,2.21h.08a6,6,0,0,0,4.67-2.33l38.93-50.47a11.35,11.35,0,0,1,.1,1.44v54a11.88,11.88,0,0,1-1.35,5.51l-7-7a3.47,3.47,0,0,0-5.92,2.45v11Z"/><path class="cls-2" d="M498.88,696.6A79.87,79.87,0,0,1,485,691.23,6,6,0,1,0,479.69,702a91.37,91.37,0,0,0,15.91,6.17,5.87,5.87,0,0,0,1.64.24,6,6,0,0,0,1.64-11.78Z"/><path class="cls-2" d="M575.21,692.49c-4,.71-8.06,1.53-12,2.32l-3.85.78a6,6,0,0,0,1.17,11.88,6.08,6.08,0,0,0,1.19-.12l3.88-.78c4-.81,7.81-1.58,11.68-2.27a6,6,0,1,0-2.09-11.81Z"/><path class="cls-2" d="M431.9,637.12a6,6,0,1,0-10.09,6.5c3.1,4.81,6.19,9.35,9.18,13.49a6,6,0,0,0,9.73-7C437.85,646.12,434.89,641.75,431.9,637.12Z"/><path class="cls-2" d="M466.35,678.73a128.67,128.67,0,0,1-11-10.59,6,6,0,0,0-8.8,8.16,140.84,140.84,0,0,0,12,11.58,6,6,0,0,0,7.76-9.15Z"/><path class="cls-2" d="M617,691.49a105.41,105.41,0,0,0-16.87-1.41h0a6,6,0,0,0,0,12,94.63,94.63,0,0,1,15,1.25,5.29,5.29,0,0,0,1,.08,6,6,0,0,0,1-11.92Z"/><path class="cls-2" d="M536.31,699.22c-4.43.42-8.66.63-12.95.63h-1l-1.33,0h-.12a6,6,0,0,0-.13,12l1.49,0h1.1c4.67,0,9.27-.23,14.08-.68a6,6,0,1,0-1.13-11.95Z"/><path class="cls-2" d="M656.63,705.15a92,92,0,0,0-9.83-4.87c-1.86-.77-3.73-1.51-5.56-2.19a6,6,0,1,0-4.2,11.24c1.69.63,3.43,1.32,5.16,2a77.49,77.49,0,0,1,8.5,4.21,5.87,5.87,0,0,0,3,.79,6,6,0,0,0,3-11.22Z"/><path class="cls-2" d="M817.79,818.76a117.32,117.32,0,0,1-14.4-4.85,6,6,0,1,0-4.54,11.1,127,127,0,0,0,15.89,5.36,6.18,6.18,0,0,0,1.53.2,6,6,0,0,0,1.52-11.81Z"/><path class="cls-2" d="M750.49,781.25c-3.92-3.07-7.94-6.33-12.3-10a6,6,0,1,0-7.69,9.21c4.46,3.71,8.57,7,12.58,10.2a6,6,0,0,0,7.41-9.45Z"/><path class="cls-2" d="M782.7,803.56c-4.25-2.49-8.69-5.29-13.19-8.35a6,6,0,0,0-6.73,9.94c4.71,3.2,9.38,6.15,13.86,8.77a5.92,5.92,0,0,0,3,.82,6,6,0,0,0,3-11.18Z"/><path class="cls-2" d="M689.78,729.38c-4.65-3.91-8.78-7.25-12.63-10.23a6,6,0,0,0-7.34,9.5c3.72,2.87,7.73,6.12,12.25,9.92a6,6,0,1,0,7.72-9.19Z"/><path class="cls-2" d="M720.07,755.75l-8.17-7.18-3.85-3.39a6,6,0,0,0-7.92,9l3.84,3.38,8.2,7.2a6,6,0,0,0,7.9-9Z"/></svg>