<?xml version="1.0" encoding="utf-8"?>
<!-- Generator: Adobe Illustrator 22.0.1, SVG Export Plug-In . SVG Version: 6.00 Build 0)  -->
<svg version="1.1" id="Ebene_1" xmlns="http://www.w3.org/2000/svg" xmlns:xlink="http://www.w3.org/1999/xlink" x="0px" y="0px"
	 viewBox="0 0 506.7 209.7" style="enable-background:new 0 0 506.7 209.7;" xml:space="preserve">
<style type="text/css">
	.st0{fill:#FFFFFF;}
	.st1{fill:#1F1F1F;}
	.st2{fill:#ECECEC;}
	.st3{fill:#1E1E1C;}
	.st4{fill:#324C9B;}
	.st5{fill:#DDDDDD;}
</style>
<rect x="0.7" y="1" class="st0" width="503.7" height="206.7"/>
<g>
	<path class="st1" d="M507,209.7H-0.3V0H507V209.7z M0.7,208.7H506V1H0.7V208.7z"/>
	<polygon class="st1" points="506.4,209.6 0.8,209.6 0.8,207.6 504.4,207.6 504.4,0.2 506.4,0.2 	"/>
	<rect x="15" y="118.5" class="st2" width="471.5" height="26.9"/>
	<g>
		<path class="st3" d="M21,52.2c0-0.1-0.1-0.3-0.1-0.5c-0.1-0.2-0.2-0.3-0.3-0.5c-0.1-0.1-0.3-0.3-0.5-0.3c-0.2-0.1-0.5-0.1-0.8-0.1
			c-0.2,0-0.4,0-0.6,0.1c-0.2,0.1-0.4,0.2-0.5,0.3c-0.1,0.1-0.2,0.2-0.3,0.4c-0.1,0.1-0.1,0.3-0.1,0.5c0,0.3,0.1,0.5,0.3,0.7
			c0.2,0.2,0.4,0.3,0.8,0.4l1.4,0.3c0.4,0.1,0.8,0.2,1.2,0.4c0.3,0.2,0.6,0.4,0.9,0.7c0.2,0.3,0.4,0.5,0.5,0.9
			c0.1,0.3,0.2,0.6,0.2,1c0,0.4-0.1,0.8-0.2,1.1c-0.2,0.4-0.4,0.7-0.7,1c-0.3,0.3-0.7,0.5-1.1,0.7c-0.4,0.2-1,0.3-1.5,0.3
			c-0.7,0-1.2-0.1-1.7-0.3c-0.5-0.2-0.9-0.4-1.2-0.7c-0.3-0.3-0.6-0.6-0.7-1c-0.2-0.4-0.3-0.7-0.3-1.1l1.8-0.5
			c0,0.2,0.1,0.5,0.2,0.7c0.1,0.2,0.2,0.4,0.4,0.6c0.2,0.2,0.4,0.3,0.7,0.4c0.3,0.1,0.6,0.2,0.9,0.2c0.5,0,0.9-0.1,1.2-0.3
			c0.3-0.2,0.4-0.5,0.4-0.9c0-0.3-0.1-0.5-0.3-0.7c-0.2-0.2-0.5-0.4-0.9-0.4l-1.4-0.3c-0.8-0.2-1.4-0.5-1.9-1s-0.7-1.1-0.7-1.9
			c0-0.4,0.1-0.8,0.3-1.2c0.2-0.4,0.4-0.7,0.7-1c0.3-0.3,0.7-0.5,1.1-0.7c0.4-0.2,0.9-0.2,1.3-0.2c0.6,0,1.1,0.1,1.5,0.2
			s0.8,0.4,1.1,0.6c0.3,0.3,0.5,0.5,0.7,0.8c0.2,0.3,0.3,0.6,0.3,0.9L21,52.2z"/>
		<path class="st3" d="M26.2,59.3h-1.9V49.1h1.9v3.8c0.2-0.3,0.5-0.5,0.9-0.6c0.3-0.1,0.7-0.2,1-0.2c0.4,0,0.8,0.1,1.1,0.2
			c0.3,0.1,0.6,0.3,0.8,0.6c0.2,0.2,0.4,0.5,0.5,0.9s0.2,0.7,0.2,1.1v4.3h-1.9v-4c0-0.4-0.1-0.7-0.3-1c-0.2-0.3-0.5-0.4-1-0.4
			c-0.4,0-0.7,0.1-0.9,0.4c-0.2,0.3-0.3,0.6-0.4,1L26.2,59.3L26.2,59.3z"/>
		<path class="st3" d="M32.1,57.4c0-0.3,0.1-0.6,0.2-0.8c0.1-0.2,0.3-0.4,0.4-0.6c0.2-0.2,0.4-0.3,0.7-0.4c0.2-0.1,0.5-0.2,0.8-0.2
			l1.7-0.3c0.2,0,0.3-0.1,0.4-0.2c0.1-0.1,0.1-0.2,0.1-0.3c0-0.2-0.1-0.5-0.3-0.6c-0.2-0.2-0.5-0.3-0.9-0.3c-0.4,0-0.7,0.1-0.9,0.3
			c-0.2,0.2-0.3,0.5-0.4,0.8l-1.7-0.3c0-0.3,0.1-0.5,0.3-0.8c0.1-0.3,0.3-0.5,0.6-0.7c0.2-0.2,0.5-0.4,0.9-0.5
			c0.4-0.1,0.8-0.2,1.2-0.2c0.5,0,1,0.1,1.4,0.2s0.7,0.3,0.9,0.6c0.2,0.2,0.4,0.5,0.5,0.8s0.2,0.6,0.2,1v3.4c0,0.2,0,0.4,0,0.6
			c0,0.2,0,0.4,0.1,0.5h-1.7c0-0.1,0-0.2,0-0.4c0-0.2,0-0.3,0-0.4c-0.2,0.3-0.4,0.5-0.8,0.7s-0.8,0.3-1.3,0.3c-0.4,0-0.7-0.1-1-0.2
			c-0.3-0.1-0.5-0.3-0.7-0.5c-0.2-0.2-0.4-0.4-0.5-0.7C32.1,57.9,32.1,57.6,32.1,57.4z M34.9,58.1c0.2,0,0.4,0,0.6-0.1
			c0.2-0.1,0.3-0.1,0.5-0.3c0.1-0.1,0.3-0.3,0.3-0.5c0.1-0.2,0.1-0.5,0.1-0.8v-0.3l-1.6,0.2c-0.2,0-0.4,0.1-0.6,0.3
			C34,56.8,34,57,34,57.3c0,0.2,0.1,0.4,0.2,0.6C34.3,58,34.6,58.1,34.9,58.1z"/>
		<path class="st3" d="M44.3,54.2c-0.2,0-0.4-0.1-0.6-0.1c-0.2,0-0.5,0-0.7,0.1c-0.2,0.1-0.4,0.2-0.6,0.3c-0.2,0.1-0.3,0.3-0.4,0.6
			s-0.1,0.6-0.1,0.9v3.2h-1.9v-6.9h1.8v1c0.1-0.2,0.2-0.4,0.4-0.6c0.2-0.1,0.3-0.3,0.5-0.3c0.2-0.1,0.4-0.1,0.5-0.2
			c0.2,0,0.3,0,0.5,0c0.1,0,0.1,0,0.2,0c0.1,0,0.1,0,0.2,0L44.3,54.2L44.3,54.2z"/>
		<path class="st3" d="M51.7,57.3c-0.1,0.3-0.2,0.6-0.4,0.8s-0.4,0.5-0.7,0.7c-0.3,0.2-0.6,0.4-0.9,0.5c-0.3,0.1-0.7,0.2-1.2,0.2
			c-0.5,0-0.9-0.1-1.4-0.2s-0.8-0.4-1.1-0.7c-0.3-0.3-0.6-0.7-0.8-1.2s-0.3-1-0.3-1.6c0-0.6,0.1-1.1,0.3-1.5
			c0.2-0.4,0.4-0.8,0.7-1.1c0.3-0.3,0.7-0.6,1.1-0.7s0.8-0.3,1.3-0.3c1.1,0,1.9,0.3,2.5,1c0.6,0.6,0.9,1.5,0.9,2.6
			c0,0.1,0,0.3,0,0.4c0,0.1,0,0.2,0,0.2h-4.9c0,0.2,0.1,0.4,0.2,0.6c0.1,0.2,0.2,0.4,0.4,0.5c0.2,0.1,0.3,0.2,0.5,0.3
			s0.4,0.1,0.7,0.1c0.4,0,0.8-0.1,1-0.3c0.2-0.2,0.4-0.4,0.5-0.8L51.7,57.3z M49.9,55c0-0.2,0-0.3-0.1-0.5c-0.1-0.2-0.2-0.3-0.3-0.4
			s-0.3-0.2-0.5-0.3s-0.4-0.1-0.7-0.1c-0.2,0-0.5,0-0.6,0.1s-0.3,0.2-0.5,0.3c-0.1,0.1-0.2,0.3-0.3,0.4c-0.1,0.2-0.1,0.3-0.1,0.5
			C46.9,55,49.9,55,49.9,55z"/>
		<path class="st3" d="M62.6,52.4l1.5,4.4l1.3-4.4h1.8L65,59.3h-1.9l-1.6-4.7L60,59.3h-1.9l-2.2-6.9h2l1.3,4.4l1.5-4.4H62.6z"/>
		<path class="st3" d="M68.1,50.1c0-0.3,0.1-0.6,0.3-0.8c0.2-0.2,0.5-0.3,0.8-0.3c0.3,0,0.6,0.1,0.8,0.3c0.2,0.2,0.3,0.5,0.3,0.8
			c0,0.3-0.1,0.6-0.3,0.8c-0.2,0.2-0.5,0.3-0.8,0.3c-0.3,0-0.6-0.1-0.8-0.3C68.2,50.7,68.1,50.4,68.1,50.1z M68.3,59.3v-6.9h1.9v6.9
			H68.3z"/>
		<path class="st3" d="M74.5,52.4h1.4V54h-1.4v2.9c0,0.3,0.1,0.5,0.2,0.6c0.1,0.1,0.3,0.2,0.6,0.2c0.1,0,0.2,0,0.3,0
			c0.1,0,0.2,0,0.2,0v1.5c-0.1,0-0.2,0.1-0.4,0.1s-0.4,0.1-0.7,0.1c-0.7,0-1.2-0.2-1.6-0.6c-0.4-0.4-0.6-0.9-0.6-1.6V54h-1.2v-1.7
			h0.3c0.4,0,0.6-0.1,0.8-0.3s0.3-0.5,0.3-0.8v-1h1.7V52.4z"/>
		<path class="st3" d="M79,59.3h-1.9V49.1H79v3.8c0.2-0.3,0.5-0.5,0.9-0.6c0.3-0.1,0.7-0.2,1-0.2c0.4,0,0.8,0.1,1.1,0.2
			c0.3,0.1,0.6,0.3,0.8,0.6c0.2,0.2,0.4,0.5,0.5,0.9s0.2,0.7,0.2,1.1v4.3h-1.9v-4c0-0.4-0.1-0.7-0.3-1c-0.2-0.3-0.5-0.4-1-0.4
			c-0.4,0-0.7,0.1-0.9,0.4c-0.2,0.3-0.3,0.6-0.4,1L79,59.3L79,59.3z"/>
		<path class="st3" d="M91.8,52.2c0.5,0,1,0.1,1.4,0.3c0.4,0.2,0.8,0.4,1.1,0.8c0.3,0.3,0.6,0.7,0.8,1.2c0.2,0.4,0.3,0.9,0.3,1.5
			s-0.1,1-0.3,1.5c-0.2,0.4-0.4,0.8-0.8,1.2c-0.3,0.3-0.7,0.6-1.1,0.8c-0.4,0.2-0.9,0.3-1.4,0.3s-1-0.1-1.4-0.3s-0.8-0.4-1.1-0.8
			c-0.3-0.3-0.6-0.7-0.8-1.2c-0.2-0.4-0.3-0.9-0.3-1.5c0-0.5,0.1-1,0.3-1.5s0.4-0.8,0.8-1.2c0.3-0.3,0.7-0.6,1.1-0.8
			C90.9,52.2,91.3,52.2,91.8,52.2z M91.8,57.8c0.2,0,0.4,0,0.7-0.1s0.4-0.2,0.6-0.4c0.2-0.2,0.3-0.4,0.4-0.6
			c0.1-0.2,0.1-0.5,0.1-0.9c0-0.3,0-0.6-0.1-0.9c-0.1-0.2-0.2-0.4-0.4-0.6c-0.2-0.2-0.3-0.3-0.6-0.4s-0.4-0.1-0.7-0.1
			s-0.4,0-0.7,0.1s-0.4,0.2-0.6,0.4c-0.2,0.2-0.3,0.4-0.4,0.6c-0.1,0.2-0.1,0.5-0.1,0.9s0,0.6,0.1,0.9c0.1,0.2,0.2,0.4,0.4,0.6
			c0.2,0.2,0.3,0.3,0.6,0.4S91.6,57.8,91.8,57.8z"/>
		<path class="st3" d="M99.2,52.4h1.4V54h-1.4v2.9c0,0.3,0.1,0.5,0.2,0.6c0.1,0.1,0.3,0.2,0.6,0.2c0.1,0,0.2,0,0.3,0
			c0.1,0,0.2,0,0.2,0v1.5c-0.1,0-0.2,0.1-0.4,0.1s-0.4,0.1-0.7,0.1c-0.7,0-1.2-0.2-1.6-0.6c-0.4-0.4-0.6-0.9-0.6-1.6V54h-1.2v-1.7
			h0.3c0.4,0,0.6-0.1,0.8-0.3s0.3-0.5,0.3-0.8v-1h1.7V52.4z"/>
		<path class="st3" d="M103.7,59.3h-1.9V49.1h1.9v3.8c0.2-0.3,0.5-0.5,0.9-0.6c0.3-0.1,0.7-0.2,1-0.2c0.4,0,0.8,0.1,1.1,0.2
			c0.3,0.1,0.6,0.3,0.8,0.6c0.2,0.2,0.4,0.5,0.5,0.9s0.2,0.7,0.2,1.1v4.3h-1.9v-4c0-0.4-0.1-0.7-0.3-1c-0.2-0.3-0.5-0.4-1-0.4
			c-0.4,0-0.7,0.1-0.9,0.4c-0.2,0.3-0.3,0.6-0.4,1L103.7,59.3L103.7,59.3z"/>
		<path class="st3" d="M116.2,57.3c-0.1,0.3-0.2,0.6-0.4,0.8s-0.4,0.5-0.7,0.7c-0.3,0.2-0.6,0.4-0.9,0.5c-0.3,0.1-0.7,0.2-1.2,0.2
			c-0.5,0-0.9-0.1-1.4-0.2s-0.8-0.4-1.1-0.7c-0.3-0.3-0.6-0.7-0.8-1.2s-0.3-1-0.3-1.6c0-0.6,0.1-1.1,0.3-1.5
			c0.2-0.4,0.4-0.8,0.7-1.1c0.3-0.3,0.7-0.6,1.1-0.7s0.8-0.3,1.3-0.3c1.1,0,1.9,0.3,2.5,1c0.6,0.6,0.9,1.5,0.9,2.6
			c0,0.1,0,0.3,0,0.4c0,0.1,0,0.2,0,0.2h-4.9c0,0.2,0.1,0.4,0.2,0.6c0.1,0.2,0.2,0.4,0.4,0.5c0.2,0.1,0.3,0.2,0.5,0.3
			s0.4,0.1,0.7,0.1c0.4,0,0.8-0.1,1-0.3c0.2-0.2,0.4-0.4,0.5-0.8L116.2,57.3z M114.4,55c0-0.2,0-0.3-0.1-0.5
			c-0.1-0.2-0.2-0.3-0.3-0.4s-0.3-0.2-0.5-0.3c-0.2-0.1-0.4-0.1-0.7-0.1c-0.2,0-0.5,0-0.6,0.1s-0.3,0.2-0.5,0.3
			c-0.1,0.1-0.2,0.3-0.3,0.4c-0.1,0.2-0.1,0.3-0.1,0.5C111.4,55,114.4,55,114.4,55z"/>
		<path class="st3" d="M121.9,54.2c-0.2,0-0.4-0.1-0.6-0.1c-0.2,0-0.5,0-0.7,0.1c-0.2,0.1-0.4,0.2-0.6,0.3c-0.2,0.1-0.3,0.3-0.4,0.6
			s-0.1,0.6-0.1,0.9v3.2h-1.9v-6.9h1.8v1c0.1-0.2,0.2-0.4,0.4-0.6c0.2-0.1,0.3-0.3,0.5-0.3c0.2-0.1,0.4-0.1,0.5-0.2
			c0.2,0,0.3,0,0.5,0c0.1,0,0.1,0,0.2,0c0.1,0,0.1,0,0.2,0C121.9,52.3,121.9,54.2,121.9,54.2z"/>
		<path class="st3" d="M124.3,57c0,0.3,0.1,0.5,0.3,0.7s0.5,0.3,0.9,0.3c0.3,0,0.5-0.1,0.7-0.2s0.2-0.3,0.2-0.5
			c0-0.2-0.1-0.3-0.2-0.4c-0.1-0.1-0.3-0.2-0.6-0.3l-0.9-0.2c-0.7-0.1-1.2-0.4-1.5-0.8c-0.3-0.4-0.5-0.8-0.5-1.3
			c0-0.3,0.1-0.6,0.2-0.9s0.3-0.5,0.5-0.7c0.2-0.2,0.5-0.4,0.8-0.5s0.7-0.2,1-0.2c0.5,0,0.9,0.1,1.2,0.2c0.3,0.1,0.6,0.3,0.8,0.5
			s0.4,0.4,0.5,0.7c0.1,0.2,0.2,0.4,0.2,0.6l-1.6,0.4c0-0.1,0-0.2-0.1-0.3s-0.1-0.2-0.2-0.3c-0.1-0.1-0.2-0.2-0.3-0.2
			c-0.1-0.1-0.3-0.1-0.5-0.1c-0.2,0-0.4,0.1-0.6,0.2c-0.2,0.1-0.3,0.3-0.3,0.5c0,0.2,0.1,0.3,0.2,0.4c0.1,0.1,0.3,0.2,0.5,0.2l1,0.2
			c0.7,0.1,1.2,0.4,1.5,0.8c0.3,0.4,0.5,0.8,0.5,1.3c0,0.3-0.1,0.6-0.2,0.8c-0.1,0.3-0.3,0.5-0.5,0.7s-0.5,0.4-0.8,0.5
			c-0.3,0.1-0.7,0.2-1.2,0.2c-0.5,0-1-0.1-1.3-0.2c-0.4-0.1-0.6-0.3-0.9-0.5s-0.4-0.4-0.5-0.7s-0.2-0.5-0.2-0.7L124.3,57z"/>
	</g>
	<g>
		<path class="st3" d="M16,103.5v-8.6h1.1v7.6h4.4v1H16z"/>
		<path class="st3" d="M24,94.9c0.1,0.1,0.2,0.3,0.2,0.5s-0.1,0.3-0.2,0.5c-0.1,0.1-0.3,0.2-0.5,0.2S23.1,96,23,95.9
			c-0.1-0.1-0.2-0.3-0.2-0.5s0.1-0.3,0.2-0.5c0.1-0.1,0.3-0.2,0.5-0.2S23.8,94.8,24,94.9z M24,97.3v6.2h-1v-6.2H24z"/>
		<path class="st3" d="M25.9,103.5v-6.2h1v0.8c0.2-0.3,0.5-0.5,0.8-0.7c0.3-0.2,0.7-0.3,1.1-0.3c0.7,0,1.2,0.2,1.6,0.6
			c0.4,0.4,0.6,1,0.6,1.7v4.1h-1.1v-3.9c0-0.4-0.1-0.8-0.3-1.1c-0.2-0.3-0.6-0.4-1-0.4c-0.4,0-0.7,0.1-1,0.3s-0.5,0.5-0.6,0.8v4.2
			L25.9,103.5L25.9,103.5z"/>
		<path class="st3" d="M36.8,103.5l-2.4-2.9l-0.7,0.6v2.2h-1v-9.1h1v5.6l2.8-2.8H38l-2.8,2.7l2.9,3.5L36.8,103.5L36.8,103.5z"/>
		<path class="st3" d="M41.8,101.8h1.1c0.2,0.6,0.7,1,1.5,1c0.4,0,0.7-0.1,0.9-0.2c0.2-0.2,0.3-0.4,0.3-0.7c0-0.4-0.3-0.7-0.9-0.9
			l-1.2-0.3c-1-0.3-1.5-0.8-1.5-1.6c0-0.5,0.2-1,0.6-1.3c0.4-0.3,1-0.5,1.6-0.5c0.7,0,1.2,0.2,1.6,0.5c0.4,0.3,0.7,0.7,0.8,1.3h-1.1
			c-0.2-0.6-0.6-0.9-1.4-0.9c-0.3,0-0.6,0.1-0.8,0.2c-0.2,0.2-0.4,0.4-0.4,0.7c0,0.2,0.1,0.4,0.2,0.5c0.1,0.1,0.4,0.2,0.7,0.3
			l1.2,0.3c1.1,0.3,1.6,0.9,1.6,1.7c0,0.6-0.2,1-0.6,1.4c-0.4,0.3-1,0.5-1.7,0.5s-1.3-0.2-1.7-0.5C42.2,102.8,41.9,102.3,41.8,101.8
			z"/>
		<path class="st3" d="M48.1,103.5v-9.1h1v3.7c0.2-0.3,0.5-0.5,0.8-0.7c0.3-0.2,0.7-0.3,1.1-0.3c0.7,0,1.2,0.2,1.6,0.6
			c0.4,0.4,0.6,1,0.6,1.7v4.1h-1.1v-3.9c0-0.4-0.1-0.8-0.3-1.1c-0.2-0.3-0.6-0.4-1-0.4c-0.4,0-0.7,0.1-1,0.3s-0.5,0.5-0.6,0.8v4.2
			L48.1,103.5L48.1,103.5z"/>
		<path class="st3" d="M59.5,103.5h-1V103c-0.1,0.1-0.4,0.3-0.7,0.4c-0.3,0.1-0.6,0.2-1,0.2c-0.7,0-1.2-0.2-1.6-0.5
			c-0.4-0.4-0.7-0.8-0.7-1.4c0-0.6,0.2-1,0.7-1.4c0.5-0.4,1-0.5,1.7-0.5c0.3,0,0.6,0.1,0.9,0.2c0.3,0.1,0.5,0.2,0.7,0.3v-0.8
			c0-0.4-0.1-0.7-0.4-1c-0.2-0.2-0.6-0.4-1-0.4c-0.7,0-1.1,0.3-1.3,0.9h-1c0.1-0.5,0.4-0.9,0.8-1.3c0.4-0.3,0.9-0.5,1.5-0.5
			c0.7,0,1.3,0.2,1.7,0.6c0.4,0.4,0.6,0.9,0.6,1.6C59.5,99.3,59.5,103.5,59.5,103.5z M58.5,101.9v-0.6c-0.1-0.2-0.3-0.4-0.6-0.6
			c-0.3-0.1-0.6-0.2-0.9-0.2c-0.4,0-0.8,0.1-1.1,0.3s-0.4,0.5-0.4,0.8c0,0.4,0.1,0.6,0.4,0.8s0.6,0.3,1.1,0.3c0.3,0,0.6-0.1,0.9-0.2
			C58.2,102.4,58.4,102.2,58.5,101.9z"/>
		<path class="st3" d="M64.4,97.2v1.1c-0.2-0.1-0.4-0.2-0.7-0.2c-0.3,0-0.6,0.1-0.9,0.3c-0.3,0.2-0.4,0.5-0.5,0.9v4.2h-1v-6.2h1v0.8
			c0.1-0.3,0.3-0.5,0.6-0.7c0.3-0.2,0.6-0.3,0.9-0.3C64.1,97.1,64.3,97.2,64.4,97.2z"/>
		<path class="st3" d="M66.8,94.9c0.1,0.1,0.2,0.3,0.2,0.5s-0.1,0.3-0.2,0.5c-0.1,0.1-0.3,0.2-0.5,0.2s-0.3-0.1-0.5-0.2
			c-0.1-0.1-0.2-0.3-0.2-0.5s0.1-0.3,0.2-0.5c0.1-0.1,0.3-0.2,0.5-0.2S66.6,94.8,66.8,94.9z M66.8,97.3v6.2h-1.1v-6.2H66.8z"/>
		<path class="st3" d="M68.7,103.5v-6.2h1.1v0.8c0.2-0.3,0.5-0.5,0.8-0.7c0.3-0.2,0.7-0.3,1.1-0.3c0.7,0,1.2,0.2,1.6,0.6
			c0.4,0.4,0.6,1,0.6,1.7v4.1h-1.1v-3.9c0-0.4-0.1-0.8-0.3-1.1c-0.2-0.3-0.6-0.4-1-0.4c-0.4,0-0.7,0.1-1,0.3s-0.5,0.5-0.6,0.8v4.2
			L68.7,103.5L68.7,103.5z"/>
		<path class="st3" d="M79.6,103.1v-0.5c-0.2,0.2-0.4,0.4-0.7,0.6s-0.7,0.2-1,0.2c-0.9,0-1.6-0.3-2-0.9c-0.5-0.6-0.7-1.4-0.7-2.2
			c0-0.9,0.2-1.6,0.7-2.2c0.5-0.6,1.2-0.9,2-0.9c0.4,0,0.7,0.1,1,0.2c0.3,0.2,0.6,0.4,0.7,0.6v-0.7h1.1v5.7c0,1-0.3,1.7-0.8,2.2
			c-0.5,0.5-1.2,0.8-2,0.8c-0.7,0-1.4-0.2-1.8-0.5c-0.5-0.4-0.7-0.9-0.8-1.5h1c0.2,0.8,0.7,1.2,1.6,1.2
			C79,105.1,79.6,104.4,79.6,103.1z M79.6,101.5V99c-0.4-0.6-0.9-1-1.6-1c-0.6,0-1,0.2-1.4,0.6c-0.3,0.4-0.5,0.9-0.5,1.6
			s0.2,1.2,0.5,1.6c0.3,0.4,0.8,0.6,1.4,0.6C78.7,102.5,79.2,102.2,79.6,101.5z"/>
		<path class="st3" d="M90.1,98c0.5,0.6,0.8,1.4,0.8,2.3c0,1-0.3,1.7-0.8,2.3c-0.5,0.6-1.2,0.9-2.1,0.9s-1.5-0.3-2.1-0.9
			s-0.8-1.4-0.8-2.3c0-1,0.3-1.7,0.8-2.3c0.5-0.6,1.2-0.9,2.1-0.9C88.9,97.1,89.6,97.4,90.1,98z M89.3,102.1c0.3-0.4,0.5-1,0.5-1.7
			c0-0.7-0.2-1.2-0.5-1.7c-0.3-0.4-0.8-0.6-1.3-0.6s-1,0.2-1.3,0.6s-0.5,1-0.5,1.7c0,0.7,0.2,1.2,0.5,1.7s0.8,0.6,1.3,0.6
			S89,102.5,89.3,102.1z"/>
		<path class="st3" d="M92.3,103.5v-6.2h1.1v0.8c0.2-0.3,0.5-0.5,0.8-0.7c0.3-0.2,0.7-0.3,1.1-0.3c0.7,0,1.2,0.2,1.6,0.6
			c0.4,0.4,0.6,1,0.6,1.7v4.1h-1.1v-3.9c0-0.4-0.1-0.8-0.3-1.1c-0.2-0.3-0.6-0.4-1-0.4c-0.4,0-0.7,0.1-1,0.3s-0.5,0.5-0.6,0.8v4.2
			L92.3,103.5L92.3,103.5z"/>
	</g>
	<g>
		<path class="st3" d="M28.6,127.5h1l3.4,8.6h-1.1l-1-2.6h-3.5l-1,2.6h-1.1L28.6,127.5z M29.1,128.9l-1.4,3.7h2.8L29.1,128.9z"/>
		<path class="st3" d="M34.2,136.1v-6.2h1v0.8c0.2-0.3,0.5-0.5,0.8-0.7c0.3-0.2,0.7-0.3,1.1-0.3c0.7,0,1.2,0.2,1.6,0.6
			s0.6,1,0.6,1.7v4.1h-1.1v-3.9c0-0.4-0.1-0.8-0.3-1.1c-0.2-0.3-0.6-0.4-1-0.4c-0.4,0-0.7,0.1-1,0.3c-0.3,0.2-0.5,0.5-0.6,0.8v4.2
			L34.2,136.1L34.2,136.1z"/>
		<path class="st3" d="M42.9,138.5h-1l0.9-2.3l-2.4-6.3h1.1l1.8,4.9l1.8-4.9h1.1L42.9,138.5z"/>
		<path class="st3" d="M51.7,130.6c0.5,0.6,0.8,1.4,0.8,2.3c0,1-0.3,1.7-0.8,2.3s-1.2,0.9-2.1,0.9s-1.5-0.3-2.1-0.9
			s-0.8-1.4-0.8-2.3c0-1,0.3-1.7,0.8-2.3s1.2-0.9,2.1-0.9C50.5,129.7,51.2,130,51.7,130.6z M51,134.6c0.3-0.4,0.5-1,0.5-1.7
			c0-0.7-0.2-1.2-0.5-1.7c-0.3-0.4-0.8-0.6-1.3-0.6s-1,0.2-1.3,0.6c-0.3,0.4-0.5,1-0.5,1.7c0,0.7,0.2,1.2,0.5,1.7
			c0.3,0.4,0.8,0.6,1.3,0.6S50.7,135.1,51,134.6z"/>
		<path class="st3" d="M54,136.1v-6.2h1v0.8c0.2-0.3,0.5-0.5,0.8-0.7c0.3-0.2,0.7-0.3,1.1-0.3c0.7,0,1.2,0.2,1.6,0.6s0.6,1,0.6,1.7
			v4.1H58v-3.9c0-0.4-0.1-0.8-0.3-1.1c-0.2-0.3-0.6-0.4-1-0.4c-0.4,0-0.7,0.1-1,0.3c-0.3,0.2-0.5,0.5-0.6,0.8v4.2L54,136.1L54,136.1
			z"/>
		<path class="st3" d="M64.7,134.2h1c-0.1,0.6-0.4,1.1-0.8,1.4c-0.4,0.4-1,0.5-1.7,0.5c-0.8,0-1.5-0.3-2.1-0.9
			c-0.5-0.6-0.8-1.4-0.8-2.3c0-0.9,0.3-1.7,0.8-2.3c0.5-0.6,1.2-0.9,2-0.9c0.8,0,1.5,0.3,1.9,0.8c0.5,0.6,0.7,1.3,0.7,2.2v0.4h-4.4
			c0,0.7,0.2,1.2,0.5,1.6s0.8,0.6,1.3,0.6c0.4,0,0.7-0.1,1-0.3C64.5,134.8,64.6,134.6,64.7,134.2z M63.2,130.6
			c-0.5,0-0.9,0.2-1.2,0.5s-0.5,0.7-0.6,1.3h3.3c0-0.5-0.1-0.9-0.4-1.2C64.1,130.8,63.7,130.6,63.2,130.6z"/>
		<path class="st3" d="M74.3,129.9l1.3,4.7l1.4-4.7h1l-1.8,6.2h-1l-1.3-4.7l-1.3,4.7h-1l-1.8-6.2h1.1l1.4,4.7l1.3-4.7H74.3z"/>
		<path class="st3" d="M80.1,127.5c0.1,0.1,0.2,0.3,0.2,0.5c0,0.2-0.1,0.3-0.2,0.5c-0.1,0.1-0.3,0.2-0.5,0.2s-0.3-0.1-0.5-0.2
			c-0.1-0.1-0.2-0.3-0.2-0.5c0-0.2,0.1-0.3,0.2-0.5c0.1-0.1,0.3-0.2,0.5-0.2S80,127.4,80.1,127.5z M80.2,129.9v6.2h-1.1v-6.2H80.2z"
			/>
		<path class="st3" d="M82.3,134.5v-3.8h-1v-0.9h1v-1.6h1.1v1.6h1.5v0.9h-1.5v3.6c0,0.6,0.3,0.9,0.8,0.9c0.3,0,0.6-0.1,0.8-0.3v1
			c-0.3,0.1-0.6,0.2-1,0.2c-0.5,0-0.9-0.1-1.2-0.4C82.5,135.5,82.3,135.1,82.3,134.5z"/>
		<path class="st3" d="M86.5,136.1V127h1.1v3.7c0.2-0.3,0.5-0.5,0.8-0.7c0.3-0.2,0.7-0.3,1.1-0.3c0.7,0,1.2,0.2,1.6,0.6
			s0.6,1,0.6,1.7v4.1h-1.1v-3.9c0-0.4-0.1-0.8-0.3-1.1c-0.2-0.3-0.6-0.4-1-0.4c-0.4,0-0.7,0.1-1,0.3c-0.3,0.2-0.5,0.5-0.6,0.8v4.2
			L86.5,136.1L86.5,136.1z"/>
		<path class="st3" d="M96.7,134.5v-3.8h-1v-0.9h1v-1.6h1.1v1.6h1.5v0.9h-1.5v3.6c0,0.6,0.3,0.9,0.8,0.9c0.3,0,0.6-0.1,0.8-0.3v1
			c-0.3,0.1-0.6,0.2-1,0.2c-0.5,0-0.9-0.1-1.2-0.4C96.9,135.5,96.7,135.1,96.7,134.5z"/>
		<path class="st3" d="M100.9,136.1V127h1.1v3.7c0.2-0.3,0.5-0.5,0.8-0.7c0.3-0.2,0.7-0.3,1.1-0.3c0.7,0,1.2,0.2,1.6,0.6
			s0.6,1,0.6,1.7v4.1h-1.1v-3.9c0-0.4-0.1-0.8-0.3-1.1c-0.2-0.3-0.6-0.4-1-0.4c-0.4,0-0.7,0.1-1,0.3c-0.3,0.2-0.5,0.5-0.6,0.8v4.2
			L100.9,136.1L100.9,136.1z"/>
		<path class="st3" d="M111.6,134.2h1c-0.1,0.6-0.4,1.1-0.8,1.4c-0.4,0.4-1,0.5-1.7,0.5c-0.8,0-1.5-0.3-2.1-0.9
			c-0.5-0.6-0.8-1.4-0.8-2.3c0-0.9,0.3-1.7,0.8-2.3c0.5-0.6,1.2-0.9,2-0.9c0.8,0,1.5,0.3,1.9,0.8c0.5,0.6,0.7,1.3,0.7,2.2v0.4h-4.4
			c0,0.7,0.2,1.2,0.5,1.6s0.8,0.6,1.3,0.6c0.4,0,0.7-0.1,1-0.3S111.5,134.6,111.6,134.2z M110.1,130.6c-0.5,0-0.9,0.2-1.2,0.5
			s-0.5,0.7-0.6,1.3h3.3c0-0.5-0.1-0.9-0.4-1.2C111,130.8,110.6,130.6,110.1,130.6z"/>
		<path class="st3" d="M118.2,127v9.1h-1.1V127C117.2,127,118.2,127,118.2,127z"/>
		<path class="st3" d="M121.1,127.5c0.1,0.1,0.2,0.3,0.2,0.5c0,0.2-0.1,0.3-0.2,0.5c-0.1,0.1-0.3,0.2-0.5,0.2s-0.3-0.1-0.5-0.2
			c-0.1-0.1-0.2-0.3-0.2-0.5c0-0.2,0.1-0.3,0.2-0.5c0.1-0.1,0.3-0.2,0.5-0.2S121,127.4,121.1,127.5z M121.2,129.9v6.2h-1.1v-6.2
			H121.2z"/>
		<path class="st3" d="M123,136.1v-6.2h1.1v0.8c0.2-0.3,0.5-0.5,0.8-0.7c0.3-0.2,0.7-0.3,1.1-0.3c0.7,0,1.2,0.2,1.6,0.6
			s0.6,1,0.6,1.7v4.1H127v-3.9c0-0.4-0.1-0.8-0.3-1.1c-0.2-0.3-0.6-0.4-1-0.4c-0.4,0-0.7,0.1-1,0.3c-0.3,0.2-0.5,0.5-0.6,0.8v4.2
			L123,136.1L123,136.1z"/>
		<path class="st3" d="M134,136.1l-2.4-2.9l-0.7,0.6v2.2h-1.1V127h1.1v5.6l2.8-2.8h1.4l-2.8,2.7l2.9,3.5L134,136.1L134,136.1z"/>
		<path class="st3" d="M139.8,135.3c-0.5-0.6-0.8-1.4-0.8-2.3c0-1,0.3-1.7,0.8-2.3c0.5-0.6,1.2-0.9,2-0.9c0.7,0,1.2,0.2,1.7,0.5
			c0.4,0.4,0.7,0.9,0.8,1.5h-1.1c-0.1-0.3-0.2-0.6-0.5-0.8s-0.6-0.3-0.9-0.3c-0.5,0-1,0.2-1.3,0.6c-0.3,0.4-0.5,1-0.5,1.7
			c0,0.7,0.2,1.2,0.5,1.7c0.3,0.4,0.7,0.6,1.3,0.6c0.4,0,0.7-0.1,0.9-0.3s0.4-0.5,0.5-0.8h1.1c-0.1,0.6-0.4,1.1-0.8,1.5
			c-0.4,0.4-1,0.5-1.7,0.5C141,136.2,140.3,135.9,139.8,135.3z"/>
		<path class="st3" d="M150.2,136.1h-1v-0.5c-0.1,0.1-0.4,0.3-0.7,0.4c-0.3,0.1-0.6,0.2-1,0.2c-0.7,0-1.2-0.2-1.6-0.5
			c-0.4-0.4-0.7-0.8-0.7-1.4c0-0.6,0.2-1,0.7-1.4c0.5-0.4,1-0.5,1.7-0.5c0.3,0,0.6,0.1,0.9,0.2c0.3,0.1,0.5,0.2,0.7,0.4V132
			c0-0.4-0.1-0.7-0.4-1s-0.6-0.4-1-0.4c-0.7,0-1.1,0.3-1.3,0.9h-1c0.1-0.5,0.4-0.9,0.8-1.3c0.4-0.3,0.9-0.5,1.5-0.5
			c0.7,0,1.3,0.2,1.7,0.6c0.4,0.4,0.6,0.9,0.6,1.6L150.2,136.1L150.2,136.1z M149.2,134.5v-0.6c-0.1-0.2-0.3-0.4-0.6-0.6
			c-0.3-0.1-0.6-0.2-0.9-0.2c-0.4,0-0.8,0.1-1.1,0.3c-0.3,0.2-0.4,0.5-0.4,0.8c0,0.4,0.1,0.6,0.4,0.8s0.6,0.3,1.1,0.3
			c0.3,0,0.6-0.1,0.9-0.2C148.9,134.9,149.1,134.8,149.2,134.5z"/>
		<path class="st3" d="M152,136.1v-6.2h1.1v0.8c0.2-0.3,0.5-0.5,0.8-0.7c0.3-0.2,0.7-0.3,1.1-0.3c0.7,0,1.2,0.2,1.6,0.6
			s0.6,1,0.6,1.7v4.1H156v-3.9c0-0.4-0.1-0.8-0.3-1.1c-0.2-0.3-0.6-0.4-1-0.4c-0.4,0-0.7,0.1-1,0.3c-0.3,0.2-0.5,0.5-0.6,0.8v4.2
			L152,136.1L152,136.1z"/>
		<path class="st3" d="M164.7,136.1h-1l-2.4-6.2h1.1l1.8,4.9l1.8-4.9h1.1L164.7,136.1z"/>
		<path class="st3" d="M169.3,127.5c0.1,0.1,0.2,0.3,0.2,0.5c0,0.2-0.1,0.3-0.2,0.5c-0.1,0.1-0.3,0.2-0.5,0.2s-0.3-0.1-0.5-0.2
			c-0.1-0.1-0.2-0.3-0.2-0.5c0-0.2,0.1-0.3,0.2-0.5c0.1-0.1,0.3-0.2,0.5-0.2S169.2,127.4,169.3,127.5z M169.4,129.9v6.2h-1.1v-6.2
			H169.4z"/>
		<path class="st3" d="M175.2,134.2h1c-0.1,0.6-0.4,1.1-0.8,1.4c-0.4,0.4-1,0.5-1.7,0.5c-0.8,0-1.5-0.3-2.1-0.9
			c-0.5-0.6-0.8-1.4-0.8-2.3c0-0.9,0.3-1.7,0.8-2.3c0.5-0.6,1.2-0.9,2-0.9c0.8,0,1.5,0.3,1.9,0.8c0.5,0.6,0.7,1.3,0.7,2.2v0.4h-4.4
			c0,0.7,0.2,1.2,0.5,1.6s0.8,0.6,1.3,0.6c0.4,0,0.7-0.1,1-0.3S175.1,134.6,175.2,134.2z M173.7,130.6c-0.5,0-0.9,0.2-1.2,0.5
			s-0.5,0.7-0.6,1.3h3.3c0-0.5-0.1-0.9-0.4-1.2C174.5,130.8,174.1,130.6,173.7,130.6z"/>
		<path class="st3" d="M181.6,129.9l1.3,4.7l1.4-4.7h1l-1.8,6.2h-1l-1.3-4.7l-1.3,4.7h-1l-1.8-6.2h1.1l1.4,4.7l1.3-4.7H181.6z"/>
	</g>
	<g>
		<path class="st4" d="M21.9,164.5v-9.1h1v3.7c0.2-0.3,0.5-0.5,0.8-0.6c0.3-0.2,0.7-0.3,1.1-0.3c0.7,0,1.2,0.2,1.6,0.6
			c0.4,0.4,0.6,1,0.6,1.6v4.1h-1.1v-3.9c0-0.4-0.1-0.8-0.3-1.1s-0.6-0.4-1-0.4c-0.4,0-0.7,0.1-1,0.3c-0.3,0.2-0.5,0.5-0.6,0.8v4.2
			H21.9z"/>
		<path class="st4" d="M29,162.9v-3.8h-1v-0.9h1v-1.6h1v1.6h1.5v0.9h-1.5v3.6c0,0.6,0.3,0.9,0.8,0.9c0.3,0,0.6-0.1,0.8-0.3v1
			c-0.3,0.1-0.6,0.2-1,0.2c-0.5,0-0.9-0.1-1.2-0.4C29.2,163.9,29,163.5,29,162.9z"/>
		<path class="st4" d="M33.5,162.9v-3.8h-1v-0.9h1v-1.6h1v1.6H36v0.9h-1.5v3.6c0,0.6,0.3,0.9,0.8,0.9c0.3,0,0.6-0.1,0.8-0.3v1
			c-0.3,0.1-0.6,0.2-1,0.2c-0.5,0-0.9-0.1-1.2-0.4C33.6,163.9,33.5,163.5,33.5,162.9z"/>
		<path class="st4" d="M38.7,163.8v3.1h-1v-8.6h1v0.7c0.2-0.2,0.4-0.4,0.7-0.6c0.3-0.2,0.7-0.2,1-0.2c0.9,0,1.6,0.3,2.1,0.9
			s0.7,1.4,0.7,2.3s-0.2,1.7-0.7,2.3s-1.2,0.9-2.1,0.9c-0.4,0-0.7-0.1-1-0.2C39.1,164.2,38.8,164,38.7,163.8z M38.7,160.1v2.5
			c0.2,0.3,0.4,0.6,0.7,0.8c0.3,0.2,0.6,0.3,0.9,0.3c0.6,0,1-0.2,1.4-0.6c0.3-0.4,0.5-1,0.5-1.6s-0.2-1.2-0.5-1.6
			c-0.3-0.4-0.8-0.6-1.4-0.6c-0.3,0-0.6,0.1-0.9,0.3C39,159.6,38.8,159.8,38.7,160.1z"/>
		<path class="st4" d="M44.1,162.8h1.1c0.2,0.6,0.7,1,1.5,1c0.4,0,0.7-0.1,0.9-0.2s0.3-0.4,0.3-0.7c0-0.4-0.3-0.7-0.9-0.9l-1.2-0.3
			c-1-0.3-1.5-0.8-1.5-1.6c0-0.5,0.2-1,0.6-1.3c0.4-0.3,1-0.5,1.6-0.5c0.7,0,1.2,0.2,1.6,0.5c0.4,0.3,0.7,0.7,0.8,1.3h-1.1
			c-0.2-0.6-0.6-0.9-1.4-0.9c-0.3,0-0.6,0.1-0.8,0.2s-0.3,0.4-0.3,0.7c0,0.2,0.1,0.4,0.2,0.5c0.1,0.1,0.4,0.2,0.7,0.3l1.2,0.3
			c1.1,0.3,1.6,0.9,1.6,1.7c0,0.6-0.2,1-0.6,1.4c-0.4,0.3-1,0.5-1.7,0.5s-1.3-0.2-1.7-0.5S44.2,163.4,44.1,162.8z"/>
		<path class="st4" d="M50.2,160c-0.1-0.1-0.2-0.3-0.2-0.5s0.1-0.4,0.2-0.5c0.1-0.1,0.3-0.2,0.5-0.2c0.2,0,0.4,0.1,0.5,0.2
			c0.1,0.1,0.2,0.3,0.2,0.5s-0.1,0.4-0.2,0.5c-0.1,0.1-0.3,0.2-0.5,0.2C50.5,160.2,50.3,160.1,50.2,160z M50.2,164.4
			c-0.1-0.1-0.2-0.3-0.2-0.5s0.1-0.4,0.2-0.5c0.1-0.1,0.3-0.2,0.5-0.2c0.2,0,0.4,0.1,0.5,0.2c0.1,0.1,0.2,0.3,0.2,0.5
			s-0.1,0.4-0.2,0.5c-0.1,0.1-0.3,0.2-0.5,0.2C50.5,164.6,50.3,164.5,50.2,164.4z"/>
		<path class="st4" d="M52.1,165.7l3.5-10.3h1l-3.5,10.3H52.1z"/>
		<path class="st4" d="M55.1,165.7l3.5-10.3h1l-3.5,10.3H55.1z"/>
		<path class="st4" d="M64,164.5v-0.7c-0.2,0.2-0.4,0.4-0.7,0.6c-0.3,0.2-0.7,0.2-1,0.2c-0.9,0-1.6-0.3-2.1-0.9
			c-0.5-0.6-0.7-1.4-0.7-2.3c0-0.9,0.2-1.7,0.7-2.3c0.5-0.6,1.2-0.9,2.1-0.9c0.4,0,0.7,0.1,1,0.2c0.3,0.2,0.6,0.4,0.7,0.6v-3.6H65
			v9.1L64,164.5L64,164.5z M64,162.7v-2.5c-0.2-0.3-0.4-0.6-0.7-0.8c-0.3-0.2-0.6-0.3-0.9-0.3c-0.6,0-1,0.2-1.4,0.6
			c-0.3,0.4-0.5,1-0.5,1.6s0.2,1.2,0.5,1.6c0.3,0.4,0.8,0.6,1.4,0.6c0.3,0,0.6-0.1,0.9-0.3C63.6,163.2,63.8,163,64,162.7z"/>
		<path class="st4" d="M71.3,159.1c0.5,0.6,0.8,1.4,0.8,2.3s-0.3,1.7-0.8,2.3c-0.5,0.6-1.2,0.9-2.1,0.9s-1.5-0.3-2.1-0.9
			c-0.5-0.6-0.8-1.4-0.8-2.3s0.3-1.7,0.8-2.3c0.5-0.6,1.2-0.9,2.1-0.9C70.1,158.2,70.8,158.5,71.3,159.1z M70.6,163.1
			c0.3-0.4,0.5-1,0.5-1.7s-0.2-1.2-0.5-1.7c-0.3-0.4-0.8-0.6-1.3-0.6s-1,0.2-1.3,0.6c-0.3,0.4-0.5,1-0.5,1.7s0.2,1.2,0.5,1.7
			c0.3,0.4,0.8,0.6,1.3,0.6S70.3,163.5,70.6,163.1z"/>
		<path class="st4" d="M73.9,163.7c-0.5-0.6-0.8-1.4-0.8-2.3s0.3-1.7,0.8-2.3c0.5-0.6,1.2-0.9,2-0.9c0.7,0,1.2,0.2,1.7,0.5
			c0.4,0.4,0.7,0.9,0.8,1.5h-1.1c-0.1-0.3-0.2-0.6-0.5-0.8s-0.6-0.3-0.9-0.3c-0.5,0-1,0.2-1.3,0.6s-0.5,1-0.5,1.7s0.2,1.2,0.5,1.7
			s0.7,0.6,1.3,0.6c0.4,0,0.7-0.1,0.9-0.3s0.4-0.5,0.5-0.8h1.1c-0.1,0.6-0.4,1.1-0.8,1.5c-0.4,0.4-1,0.5-1.7,0.5
			C75.1,164.6,74.5,164.3,73.9,163.7z"/>
		<path class="st4" d="M79.4,162.8h1.1c0.2,0.6,0.7,1,1.5,1c0.4,0,0.7-0.1,0.9-0.2s0.3-0.4,0.3-0.7c0-0.4-0.3-0.7-0.9-0.9l-1.2-0.3
			c-1-0.3-1.5-0.8-1.5-1.6c0-0.5,0.2-1,0.6-1.3c0.4-0.3,1-0.5,1.6-0.5c0.7,0,1.2,0.2,1.6,0.5c0.4,0.3,0.7,0.7,0.8,1.3h-1.1
			c-0.2-0.6-0.6-0.9-1.4-0.9c-0.3,0-0.6,0.1-0.8,0.2s-0.3,0.4-0.3,0.7c0,0.2,0.1,0.4,0.2,0.5c0.1,0.1,0.4,0.2,0.7,0.3l1.2,0.3
			c1.1,0.3,1.6,0.9,1.6,1.7c0,0.6-0.2,1-0.6,1.4c-0.4,0.3-1,0.5-1.7,0.5s-1.3-0.2-1.7-0.5S79.4,163.4,79.4,162.8z"/>
		<path class="st4" d="M85.4,164.4c-0.1-0.1-0.2-0.3-0.2-0.5s0.1-0.4,0.2-0.5c0.1-0.1,0.3-0.2,0.5-0.2c0.2,0,0.4,0.1,0.5,0.2
			c0.1,0.1,0.2,0.3,0.2,0.5s-0.1,0.4-0.2,0.5c-0.1,0.1-0.3,0.2-0.5,0.2C85.7,164.6,85.5,164.5,85.4,164.4z"/>
		<path class="st4" d="M92,164.1v-0.5c-0.2,0.2-0.4,0.4-0.7,0.6c-0.3,0.2-0.7,0.2-1,0.2c-0.9,0-1.6-0.3-2-0.9
			c-0.5-0.6-0.7-1.4-0.7-2.2c0-0.9,0.2-1.6,0.7-2.2c0.5-0.6,1.2-0.9,2-0.9c0.4,0,0.7,0.1,1,0.2s0.6,0.4,0.7,0.6v-0.7h1.1v5.7
			c0,1-0.3,1.7-0.8,2.2c-0.5,0.5-1.2,0.8-2,0.8c-0.7,0-1.4-0.2-1.8-0.5s-0.7-0.9-0.8-1.5h1c0.2,0.8,0.7,1.2,1.6,1.2
			C91.4,166.1,92,165.4,92,164.1z M92,162.5v-2.5c-0.4-0.6-0.9-1-1.6-1c-0.6,0-1,0.2-1.4,0.6c-0.3,0.4-0.5,0.9-0.5,1.6
			s0.2,1.2,0.5,1.6c0.3,0.4,0.8,0.6,1.4,0.6C91.1,163.5,91.6,163.2,92,162.5z"/>
		<path class="st4" d="M99.4,159.1c0.5,0.6,0.8,1.4,0.8,2.3s-0.3,1.7-0.8,2.3c-0.5,0.6-1.2,0.9-2.1,0.9s-1.5-0.3-2.1-0.9
			c-0.5-0.6-0.8-1.4-0.8-2.3s0.3-1.7,0.8-2.3c0.5-0.6,1.2-0.9,2.1-0.9C98.2,158.2,98.9,158.5,99.4,159.1z M98.7,163.1
			c0.3-0.4,0.5-1,0.5-1.7s-0.2-1.2-0.5-1.7c-0.3-0.4-0.8-0.6-1.3-0.6s-1,0.2-1.3,0.6c-0.3,0.4-0.5,1-0.5,1.7s0.2,1.2,0.5,1.7
			c0.3,0.4,0.8,0.6,1.3,0.6S98.3,163.5,98.7,163.1z"/>
		<path class="st4" d="M106.1,159.1c0.5,0.6,0.8,1.4,0.8,2.3s-0.3,1.7-0.8,2.3c-0.5,0.6-1.2,0.9-2.1,0.9s-1.5-0.3-2.1-0.9
			c-0.5-0.6-0.8-1.4-0.8-2.3s0.3-1.7,0.8-2.3c0.5-0.6,1.2-0.9,2.1-0.9C104.9,158.2,105.6,158.5,106.1,159.1z M105.4,163.1
			c0.3-0.4,0.5-1,0.5-1.7s-0.2-1.2-0.5-1.7c-0.3-0.4-0.8-0.6-1.3-0.6s-1,0.2-1.3,0.6c-0.3,0.4-0.5,1-0.5,1.7s0.2,1.2,0.5,1.7
			c0.3,0.4,0.8,0.6,1.3,0.6S105,163.5,105.4,163.1z"/>
		<path class="st4" d="M112.4,164.1v-0.5c-0.2,0.2-0.4,0.4-0.7,0.6c-0.3,0.2-0.7,0.2-1,0.2c-0.9,0-1.6-0.3-2-0.9
			c-0.5-0.6-0.7-1.4-0.7-2.2c0-0.9,0.2-1.6,0.7-2.2c0.5-0.6,1.2-0.9,2-0.9c0.4,0,0.7,0.1,1,0.2s0.6,0.4,0.7,0.6v-0.7h1.1v5.7
			c0,1-0.3,1.7-0.8,2.2c-0.5,0.5-1.2,0.8-2,0.8c-0.7,0-1.4-0.2-1.8-0.5s-0.7-0.9-0.8-1.5h1c0.2,0.8,0.7,1.2,1.6,1.2
			C111.9,166.1,112.4,165.4,112.4,164.1z M112.4,162.5v-2.5c-0.4-0.6-0.9-1-1.6-1c-0.6,0-1,0.2-1.4,0.6c-0.3,0.4-0.5,0.9-0.5,1.6
			s0.2,1.2,0.5,1.6c0.3,0.4,0.8,0.6,1.4,0.6C111.6,163.5,112.1,163.2,112.4,162.5z"/>
		<path class="st4" d="M116.4,155.4v9.1h-1.1v-9.1H116.4z"/>
		<path class="st4" d="M122.2,162.6h1c-0.1,0.6-0.4,1.1-0.8,1.4c-0.4,0.4-1,0.5-1.7,0.5c-0.8,0-1.5-0.3-2.1-0.9
			c-0.5-0.6-0.8-1.4-0.8-2.3c0-0.9,0.3-1.7,0.8-2.3c0.5-0.6,1.2-0.9,2-0.9c0.8,0,1.5,0.3,1.9,0.8c0.5,0.6,0.7,1.3,0.7,2.2v0.4h-4.4
			c0,0.7,0.2,1.2,0.5,1.6c0.3,0.4,0.8,0.6,1.3,0.6c0.4,0,0.7-0.1,1-0.3S122.1,163,122.2,162.6z M120.7,159.1c-0.5,0-0.9,0.2-1.2,0.5
			c-0.3,0.3-0.5,0.7-0.6,1.3h3.3c0-0.5-0.1-0.9-0.4-1.2C121.6,159.2,121.2,159.1,120.7,159.1z"/>
		<path class="st4" d="M124.4,164.4c-0.1-0.1-0.2-0.3-0.2-0.5s0.1-0.4,0.2-0.5c0.1-0.1,0.3-0.2,0.5-0.2c0.2,0,0.4,0.1,0.5,0.2
			c0.1,0.1,0.2,0.3,0.2,0.5s-0.1,0.4-0.2,0.5c-0.1,0.1-0.3,0.2-0.5,0.2C124.8,164.6,124.6,164.5,124.4,164.4z"/>
		<path class="st4" d="M127.3,163.7c-0.5-0.6-0.8-1.4-0.8-2.3s0.3-1.7,0.8-2.3c0.5-0.6,1.2-0.9,2-0.9c0.7,0,1.2,0.2,1.7,0.5
			c0.4,0.4,0.7,0.9,0.8,1.5h-1.1c-0.1-0.3-0.2-0.6-0.5-0.8s-0.6-0.3-0.9-0.3c-0.5,0-1,0.2-1.3,0.6s-0.5,1-0.5,1.7s0.2,1.2,0.5,1.7
			c0.3,0.4,0.7,0.6,1.3,0.6c0.4,0,0.7-0.1,0.9-0.3s0.4-0.5,0.5-0.8h1.1c-0.1,0.6-0.4,1.1-0.8,1.5c-0.4,0.4-1,0.5-1.7,0.5
			C128.5,164.6,127.8,164.3,127.3,163.7z"/>
		<path class="st4" d="M137.6,159.1c0.5,0.6,0.8,1.4,0.8,2.3s-0.3,1.7-0.8,2.3c-0.5,0.6-1.2,0.9-2.1,0.9s-1.5-0.3-2.1-0.9
			c-0.5-0.6-0.8-1.4-0.8-2.3s0.3-1.7,0.8-2.3c0.5-0.6,1.2-0.9,2.1-0.9C136.4,158.2,137.1,158.5,137.6,159.1z M136.9,163.1
			c0.3-0.4,0.5-1,0.5-1.7s-0.2-1.2-0.5-1.7c-0.3-0.4-0.8-0.6-1.3-0.6s-1,0.2-1.3,0.6c-0.3,0.4-0.5,1-0.5,1.7s0.2,1.2,0.5,1.7
			c0.3,0.4,0.8,0.6,1.3,0.6S136.5,163.5,136.9,163.1z"/>
		<path class="st4" d="M144.2,159.2c0.5-0.7,1.1-1,1.9-1c0.6,0,1.1,0.2,1.4,0.6c0.3,0.4,0.5,0.9,0.5,1.6v4.1H147v-3.9
			c0-0.4-0.1-0.8-0.3-1.1c-0.2-0.3-0.5-0.4-0.9-0.4c-0.3,0-0.6,0.1-0.9,0.3c-0.3,0.2-0.4,0.5-0.5,0.8v4.3h-1.1v-3.9
			c0-0.4-0.1-0.8-0.3-1.1c-0.2-0.3-0.5-0.4-0.9-0.4c-0.3,0-0.6,0.1-0.9,0.3c-0.3,0.2-0.4,0.5-0.5,0.8v4.3h-1.1v-6.2h1.1v0.7
			c0.4-0.6,0.9-0.9,1.7-0.9C143.3,158.2,143.9,158.5,144.2,159.2z"/>
		<path class="st4" d="M149,165.7l3.5-10.3h1.1l-3.5,10.3H149z"/>
		<path class="st4" d="M157.8,164.5v-0.7c-0.2,0.2-0.4,0.4-0.7,0.6c-0.3,0.2-0.7,0.2-1,0.2c-0.9,0-1.6-0.3-2.1-0.9
			c-0.5-0.6-0.7-1.4-0.7-2.3c0-0.9,0.2-1.7,0.7-2.3c0.5-0.6,1.2-0.9,2.1-0.9c0.4,0,0.7,0.1,1,0.2c0.3,0.2,0.6,0.4,0.7,0.6v-3.6h1.1
			v9.1L157.8,164.5L157.8,164.5z M157.8,162.7v-2.5c-0.2-0.3-0.4-0.6-0.7-0.8c-0.3-0.2-0.6-0.3-0.9-0.3c-0.6,0-1,0.2-1.4,0.6
			c-0.3,0.4-0.5,1-0.5,1.6s0.2,1.2,0.5,1.6c0.3,0.4,0.8,0.6,1.4,0.6c0.3,0,0.6-0.1,0.9-0.3C157.4,163.2,157.7,163,157.8,162.7z"/>
		<path class="st4" d="M165.2,159.1c0.5,0.6,0.8,1.4,0.8,2.3s-0.3,1.7-0.8,2.3c-0.5,0.6-1.2,0.9-2.1,0.9s-1.5-0.3-2.1-0.9
			c-0.5-0.6-0.8-1.4-0.8-2.3s0.3-1.7,0.8-2.3c0.5-0.6,1.2-0.9,2.1-0.9C164,158.2,164.7,158.5,165.2,159.1z M164.5,163.1
			c0.3-0.4,0.5-1,0.5-1.7s-0.2-1.2-0.5-1.7c-0.3-0.4-0.8-0.6-1.3-0.6s-1,0.2-1.3,0.6c-0.3,0.4-0.5,1-0.5,1.7s0.2,1.2,0.5,1.7
			c0.3,0.4,0.8,0.6,1.3,0.6S164.1,163.5,164.5,163.1z"/>
		<path class="st4" d="M167.8,163.7c-0.5-0.6-0.8-1.4-0.8-2.3s0.3-1.7,0.8-2.3c0.5-0.6,1.2-0.9,2-0.9c0.7,0,1.2,0.2,1.7,0.5
			c0.4,0.4,0.7,0.9,0.8,1.5h-1.1c-0.1-0.3-0.2-0.6-0.5-0.8s-0.6-0.3-0.9-0.3c-0.5,0-1,0.2-1.3,0.6s-0.5,1-0.5,1.7s0.2,1.2,0.5,1.7
			s0.7,0.6,1.3,0.6c0.4,0,0.7-0.1,0.9-0.3s0.4-0.5,0.5-0.8h1.1c-0.1,0.6-0.4,1.1-0.8,1.5c-0.4,0.4-1,0.5-1.7,0.5
			C169,164.6,168.3,164.3,167.8,163.7z"/>
		<path class="st4" d="M178.7,158.3v6.2h-1.1v-0.8c-0.2,0.3-0.4,0.5-0.8,0.6c-0.3,0.2-0.7,0.3-1.1,0.3c-0.7,0-1.2-0.2-1.6-0.6
			c-0.4-0.4-0.6-1-0.6-1.6v-4.1h1.1v3.9c0,0.5,0.1,0.8,0.3,1.1c0.2,0.3,0.6,0.4,1,0.4c0.4,0,0.7-0.1,1-0.3c0.3-0.2,0.5-0.5,0.6-0.8
			v-4.2L178.7,158.3L178.7,158.3z"/>
		<path class="st4" d="M184.9,159.2c0.5-0.7,1.1-1,1.9-1c0.6,0,1.1,0.2,1.4,0.6c0.3,0.4,0.5,0.9,0.5,1.6v4.1h-1.1v-3.9
			c0-0.4-0.1-0.8-0.3-1.1c-0.2-0.3-0.5-0.4-0.9-0.4c-0.3,0-0.6,0.1-0.9,0.3c-0.3,0.2-0.4,0.5-0.5,0.8v4.3h-1.1v-3.9
			c0-0.4-0.1-0.8-0.3-1.1c-0.2-0.3-0.5-0.4-0.9-0.4c-0.3,0-0.6,0.1-0.9,0.3c-0.3,0.2-0.4,0.5-0.5,0.8v4.3h-1.1v-6.2h1.1v0.7
			c0.4-0.6,0.9-0.9,1.7-0.9C184,158.2,184.6,158.5,184.9,159.2z"/>
		<path class="st4" d="M194.5,162.6h1c-0.1,0.6-0.4,1.1-0.8,1.4c-0.4,0.4-1,0.5-1.7,0.5c-0.8,0-1.5-0.3-2.1-0.9
			c-0.5-0.6-0.8-1.4-0.8-2.3c0-0.9,0.3-1.7,0.8-2.3c0.5-0.6,1.2-0.9,2-0.9c0.8,0,1.5,0.3,1.9,0.8c0.5,0.6,0.7,1.3,0.7,2.2v0.4h-4.4
			c0,0.7,0.2,1.2,0.5,1.6c0.3,0.4,0.8,0.6,1.3,0.6c0.4,0,0.7-0.1,1-0.3S194.4,163,194.5,162.6z M193,159.1c-0.5,0-0.9,0.2-1.2,0.5
			c-0.3,0.3-0.5,0.7-0.6,1.3h3.3c0-0.5-0.1-0.9-0.4-1.2C193.8,159.2,193.5,159.1,193,159.1z"/>
		<path class="st4" d="M197,164.5v-6.2h1.1v0.8c0.2-0.3,0.5-0.5,0.8-0.6c0.3-0.2,0.7-0.3,1.1-0.3c0.7,0,1.2,0.2,1.6,0.6
			c0.4,0.4,0.6,1,0.6,1.6v4.1H201v-3.9c0-0.4-0.1-0.8-0.3-1.1s-0.6-0.4-1-0.4c-0.4,0-0.7,0.1-1,0.3c-0.3,0.2-0.5,0.5-0.6,0.8v4.2
			L197,164.5L197,164.5z"/>
		<path class="st4" d="M204.1,162.9v-3.8h-1v-0.9h1v-1.6h1.1v1.6h1.5v0.9h-1.5v3.6c0,0.6,0.3,0.9,0.8,0.9c0.3,0,0.6-0.1,0.8-0.3v1
			c-0.3,0.1-0.6,0.2-1,0.2c-0.5,0-0.9-0.1-1.2-0.4C204.3,163.9,204.1,163.5,204.1,162.9z"/>
		<path class="st4" d="M207.4,165.7l3.5-10.3h1.1l-3.5,10.3H207.4z"/>
		<path class="st4" d="M216.3,164.5v-0.7c-0.2,0.2-0.4,0.4-0.7,0.6c-0.3,0.2-0.7,0.2-1,0.2c-0.9,0-1.6-0.3-2.1-0.9
			c-0.5-0.6-0.7-1.4-0.7-2.3c0-0.9,0.2-1.7,0.7-2.3c0.5-0.6,1.2-0.9,2.1-0.9c0.4,0,0.7,0.1,1,0.2c0.3,0.2,0.6,0.4,0.7,0.6v-3.6h1.1
			v9.1L216.3,164.5L216.3,164.5z M216.3,162.7v-2.5c-0.2-0.3-0.4-0.6-0.7-0.8c-0.3-0.2-0.6-0.3-0.9-0.3c-0.6,0-1,0.2-1.4,0.6
			c-0.3,0.4-0.5,1-0.5,1.6s0.2,1.2,0.5,1.6c0.3,0.4,0.8,0.6,1.4,0.6c0.3,0,0.6-0.1,0.9-0.3C215.9,163.2,216.1,163,216.3,162.7z"/>
		<path class="st4" d="M218.3,165.7l3.5-10.3h1.1l-3.5,10.3H218.3z"/>
		<path class="st4" d="M226.5,155.9v8.6h-1.1v-7.3l-2.1,1.1v-1.1l2.5-1.3L226.5,155.9L226.5,155.9z"/>
		<path class="st4" d="M232.6,164.5v-0.7c-0.2,0.2-0.4,0.4-0.7,0.6c-0.3,0.2-0.7,0.2-1,0.2c-0.9,0-1.6-0.3-2.1-0.9
			c-0.5-0.6-0.7-1.4-0.7-2.3c0-0.9,0.2-1.7,0.7-2.3c0.5-0.6,1.2-0.9,2.1-0.9c0.4,0,0.7,0.1,1,0.2c0.3,0.2,0.6,0.4,0.7,0.6v-3.6h1.1
			v9.1L232.6,164.5L232.6,164.5z M232.6,162.7v-2.5c-0.2-0.3-0.4-0.6-0.7-0.8c-0.3-0.2-0.6-0.3-0.9-0.3c-0.6,0-1,0.2-1.4,0.6
			c-0.3,0.4-0.5,1-0.5,1.6s0.2,1.2,0.5,1.6c0.3,0.4,0.8,0.6,1.4,0.6c0.3,0,0.6-0.1,0.9-0.3C232.2,163.2,232.4,163,232.6,162.7z"/>
		<path class="st4" d="M238.8,161.1h-2.1v3.4h-1.1v-8.6h3.2c0.9,0,1.6,0.2,2.1,0.7c0.5,0.4,0.7,1.1,0.7,1.9s-0.3,1.5-0.8,1.9
			C240.3,160.8,239.7,161.1,238.8,161.1z M240.5,158.5c0-0.5-0.2-0.9-0.5-1.2c-0.3-0.3-0.7-0.4-1.3-0.4h-2.1v3.2h2.1
			c0.6,0,1-0.1,1.3-0.4C240.4,159.4,240.5,159,240.5,158.5z"/>
		<path class="st4" d="M245.9,160l2.5-4.1h1.2l-3.1,5.1v3.5h-1.1V161l-3.1-5.1h1.2L245.9,160z"/>
		<path class="st4" d="M255.3,164.5h-0.8l-2.7-6.6v6.6h-1.1v-8.6h1.2l2.9,7.1l2.9-7.1h1.2v8.6h-1V158L255.3,164.5z"/>
		<path class="st4" d="M265.5,160.1c0.5,0.1,0.8,0.4,1.1,0.7s0.4,0.8,0.4,1.3c0,0.8-0.3,1.4-0.8,1.8s-1.2,0.6-2.1,0.6h-3.1v-8.6h2.8
			c0.9,0,1.6,0.2,2.1,0.6s0.8,1,0.8,1.7c0,0.5-0.1,0.9-0.4,1.2C266.2,159.7,265.9,159.9,265.5,160.1z M262.2,159.6h1.8
			c1.2,0,1.8-0.5,1.8-1.4c0-0.9-0.6-1.4-1.8-1.4h-1.8V159.6z M262.2,160.6v3h2c0.6,0,1-0.1,1.3-0.4c0.3-0.3,0.5-0.6,0.5-1.1
			c0-0.5-0.2-0.8-0.5-1.1c-0.3-0.3-0.7-0.4-1.3-0.4H262.2z"/>
		<path class="st4" d="M272.4,158.2c0-0.4-0.1-0.8-0.4-1.1c-0.3-0.3-0.7-0.4-1.1-0.4c-0.5,0-0.9,0.2-1.2,0.5
			c-0.3,0.3-0.5,0.7-0.5,1.3H268c0.1-0.8,0.4-1.5,0.9-2c0.5-0.5,1.1-0.7,1.9-0.7c0.8,0,1.5,0.2,1.9,0.7c0.5,0.4,0.7,1,0.7,1.8
			c0,0.1,0,0.3,0,0.4c0,0.1-0.1,0.3-0.1,0.4c0,0.1-0.1,0.2-0.2,0.4c-0.1,0.2-0.2,0.3-0.2,0.3c0,0.1-0.1,0.2-0.3,0.4
			s-0.2,0.3-0.3,0.3s-0.2,0.2-0.3,0.4c-0.2,0.2-0.3,0.3-0.3,0.4l-2.2,2.4h4.1v1H268v-0.7l2.8-3.1c0.4-0.5,0.7-0.8,0.9-1
			c0.1-0.2,0.3-0.4,0.5-0.7C272.3,158.7,272.4,158.5,272.4,158.2z"/>
		<path class="st4" d="M274.3,161.3v-1h3.4v1H274.3z"/>
		<path class="st4" d="M284.1,158.3v6.2h-1.1v-0.8c-0.2,0.3-0.4,0.5-0.8,0.6c-0.3,0.2-0.7,0.3-1,0.3c-0.7,0-1.2-0.2-1.6-0.6
			c-0.4-0.4-0.6-1-0.6-1.6v-4.1h1.1v3.9c0,0.5,0.1,0.8,0.3,1.1c0.2,0.3,0.6,0.4,1,0.4c0.4,0,0.7-0.1,1-0.3c0.3-0.2,0.5-0.5,0.6-0.8
			v-4.2L284.1,158.3L284.1,158.3z"/>
		<path class="st4" d="M287,155.4v9.1h-1v-9.1H287z"/>
		<path class="st4" d="M293,164.5v-0.7c-0.2,0.2-0.4,0.4-0.7,0.6c-0.3,0.2-0.7,0.2-1,0.2c-0.9,0-1.6-0.3-2.1-0.9
			c-0.5-0.6-0.7-1.4-0.7-2.3c0-0.9,0.2-1.7,0.7-2.3s1.2-0.9,2.1-0.9c0.4,0,0.7,0.1,1,0.2c0.3,0.2,0.6,0.4,0.7,0.6v-3.6h1.1v9.1
			L293,164.5L293,164.5z M293,162.7v-2.5c-0.2-0.3-0.4-0.6-0.7-0.8c-0.3-0.2-0.6-0.3-0.9-0.3c-0.6,0-1,0.2-1.4,0.6
			c-0.3,0.4-0.5,1-0.5,1.6s0.2,1.2,0.5,1.6c0.3,0.4,0.8,0.6,1.4,0.6c0.3,0,0.6-0.1,0.9-0.3C292.6,163.2,292.9,163,293,162.7z"/>
		<path class="st4" d="M295.4,162.8h1.1c0.2,0.6,0.7,1,1.5,1c0.4,0,0.7-0.1,0.9-0.2c0.2-0.2,0.4-0.4,0.4-0.7c0-0.4-0.3-0.7-0.9-0.9
			l-1.2-0.3c-1-0.3-1.5-0.8-1.5-1.6c0-0.5,0.2-1,0.6-1.3c0.4-0.3,1-0.5,1.6-0.5c0.7,0,1.2,0.2,1.6,0.5c0.4,0.3,0.7,0.7,0.8,1.3h-1.1
			c-0.2-0.6-0.6-0.9-1.4-0.9c-0.3,0-0.6,0.1-0.8,0.2c-0.2,0.2-0.4,0.4-0.4,0.7c0,0.2,0.1,0.4,0.2,0.5s0.4,0.2,0.7,0.3l1.2,0.3
			c1.1,0.3,1.6,0.9,1.6,1.7c0,0.6-0.2,1-0.6,1.4c-0.4,0.3-1,0.5-1.7,0.5s-1.3-0.2-1.7-0.5C295.8,163.8,295.5,163.4,295.4,162.8z"/>
		<path class="st4" d="M304.8,155.4v1c-0.2-0.1-0.4-0.2-0.7-0.2c-0.3,0-0.6,0.1-0.8,0.3c-0.2,0.2-0.3,0.5-0.3,0.8v1h1.4v0.9h-1.4
			v5.3h-1v-5.3h-1v-0.9h1v-1c0-0.6,0.2-1.1,0.5-1.4c0.4-0.4,0.8-0.5,1.4-0.5C304.4,155.3,304.6,155.3,304.8,155.4z"/>
		<path class="st4" d="M306.8,158.3v6.9c0,0.6-0.2,1-0.5,1.3c-0.3,0.3-0.8,0.5-1.3,0.5c-0.2,0-0.3,0-0.4-0.1v-0.9c0.2,0,0.3,0,0.4,0
			c0.6,0,0.8-0.3,0.8-1v-6.9L306.8,158.3L306.8,158.3z M306.8,155.9c0.1,0.1,0.2,0.3,0.2,0.5c0,0.2-0.1,0.3-0.2,0.5
			s-0.3,0.2-0.5,0.2c-0.2,0-0.3-0.1-0.5-0.2s-0.2-0.3-0.2-0.5c0-0.2,0.1-0.3,0.2-0.5c0.1-0.1,0.3-0.2,0.5-0.2
			C306.5,155.7,306.6,155.8,306.8,155.9z"/>
		<path class="st4" d="M313.2,159.1c0.5,0.6,0.8,1.4,0.8,2.3s-0.3,1.7-0.8,2.3c-0.5,0.6-1.2,0.9-2.1,0.9c-0.8,0-1.5-0.3-2.1-0.9
			c-0.5-0.6-0.8-1.4-0.8-2.3s0.3-1.7,0.8-2.3c0.5-0.6,1.2-0.9,2.1-0.9C311.9,158.2,312.6,158.5,313.2,159.1z M312.4,163.1
			c0.3-0.4,0.5-1,0.5-1.7s-0.2-1.2-0.5-1.7c-0.3-0.4-0.8-0.6-1.3-0.6s-1,0.2-1.3,0.6c-0.3,0.4-0.5,1-0.5,1.7s0.2,1.2,0.5,1.7
			c0.3,0.4,0.8,0.6,1.3,0.6S312.1,163.5,312.4,163.1z"/>
		<path class="st4" d="M319.3,158.3l1.3,4.7l1.4-4.7h1l-1.8,6.2h-1l-1.3-4.7l-1.3,4.7h-1l-1.8-6.2h1.1l1.4,4.7l1.3-4.7H319.3z"/>
		<path class="st4" d="M330.2,155.9h1.1v8.6h-1.1v-3.9h-4.9v3.9h-1.1v-8.6h1.1v3.7h4.9V155.9z"/>
		<path class="st4" d="M336,160.9h-1.5v3.6h-1.1v-8.6h3.2c0.9,0,1.6,0.2,2.1,0.6s0.8,1,0.8,1.8c0,0.7-0.2,1.3-0.6,1.7
			s-0.9,0.7-1.6,0.8l2.5,3.7h-1.3L336,160.9z M334.5,156.9v3.1h2.1c0.6,0,1-0.1,1.3-0.4c0.3-0.3,0.5-0.6,0.5-1.1s-0.1-0.9-0.5-1.1
			c-0.3-0.3-0.7-0.4-1.3-0.4L334.5,156.9L334.5,156.9z"/>
		<path class="st4" d="M341,164.5v-9.1h1v3.7c0.2-0.3,0.5-0.5,0.8-0.6c0.3-0.2,0.7-0.3,1.1-0.3c0.7,0,1.2,0.2,1.6,0.6
			c0.4,0.4,0.6,1,0.6,1.6v4.1H345v-3.9c0-0.4-0.1-0.8-0.3-1.1s-0.6-0.4-1-0.4c-0.4,0-0.7,0.1-1,0.3c-0.3,0.2-0.5,0.5-0.6,0.8v4.2
			H341z"/>
		<path class="st4" d="M347.4,162.8h1.1c0.2,0.6,0.7,1,1.5,1c0.4,0,0.7-0.1,0.9-0.2c0.2-0.2,0.4-0.4,0.4-0.7c0-0.4-0.3-0.7-0.9-0.9
			l-1.2-0.3c-1-0.3-1.5-0.8-1.5-1.6c0-0.5,0.2-1,0.6-1.3c0.4-0.3,1-0.5,1.6-0.5c0.7,0,1.2,0.2,1.6,0.5c0.4,0.3,0.7,0.7,0.8,1.3h-1.1
			c-0.2-0.6-0.6-0.9-1.4-0.9c-0.3,0-0.6,0.1-0.8,0.2c-0.2,0.2-0.4,0.4-0.4,0.7c0,0.2,0.1,0.4,0.2,0.5c0.1,0.1,0.4,0.2,0.7,0.3
			l1.2,0.3c1.1,0.3,1.6,0.9,1.6,1.7c0,0.6-0.2,1-0.6,1.4s-1,0.5-1.7,0.5s-1.3-0.2-1.7-0.5C347.7,163.8,347.4,163.4,347.4,162.8z"/>
		<path class="st4" d="M357.7,164.1v-0.5c-0.2,0.2-0.4,0.4-0.7,0.6c-0.3,0.2-0.7,0.2-1,0.2c-0.9,0-1.5-0.3-2-0.9
			c-0.5-0.6-0.7-1.4-0.7-2.2c0-0.9,0.2-1.6,0.7-2.2c0.5-0.6,1.2-0.9,2-0.9c0.4,0,0.7,0.1,1,0.2s0.6,0.4,0.7,0.6v-0.7h1.1v5.7
			c0,1-0.3,1.7-0.8,2.2c-0.5,0.5-1.2,0.8-2,0.8c-0.7,0-1.4-0.2-1.8-0.5c-0.5-0.4-0.7-0.9-0.8-1.5h1c0.2,0.8,0.7,1.2,1.6,1.2
			C357.2,166.1,357.7,165.4,357.7,164.1z M357.7,162.5v-2.5c-0.4-0.6-0.9-1-1.6-1c-0.6,0-1,0.2-1.4,0.6s-0.5,0.9-0.5,1.6
			s0.2,1.2,0.5,1.6c0.3,0.4,0.8,0.6,1.4,0.6C356.9,163.5,357.4,163.2,357.7,162.5z"/>
		<path class="st4" d="M365.2,163.6v0.9h-4.9v-0.7l3.5-4.6h-3.4v-0.9h4.7v0.7l-3.5,4.6L365.2,163.6L365.2,163.6z"/>
		<path class="st4" d="M366.2,156.9v-1h7.1v1h-3v7.6h-1.1v-7.6H366.2z"/>
		<path class="st4" d="M380.7,155.9h1.1v8.6h-1.1v-3.9h-4.9v3.9h-1.1v-8.6h1.1v3.7h4.9V155.9z"/>
		<path class="st4" d="M387.9,164.5l-2.4-2.9l-0.7,0.6v2.2h-1.1v-9.1h1.1v5.6l2.8-2.8h1.4l-2.8,2.7l2.9,3.5L387.9,164.5L387.9,164.5
			z"/>
		<path class="st4" d="M390.3,164.5v-6.2h1.1v0.8c0.2-0.3,0.5-0.5,0.8-0.6c0.3-0.2,0.7-0.3,1.1-0.3c0.7,0,1.2,0.2,1.6,0.6
			c0.4,0.4,0.6,1,0.6,1.6v4.1h-1.1v-3.9c0-0.4-0.1-0.8-0.3-1.1s-0.6-0.4-1-0.4c-0.4,0-0.7,0.1-1,0.3c-0.3,0.2-0.5,0.5-0.6,0.8v4.2
			L390.3,164.5L390.3,164.5z"/>
		<path class="st4" d="M403.2,165l-0.7-0.9c-0.6,0.3-1.2,0.5-1.9,0.5c-1.1,0-2.1-0.4-2.8-1.2s-1.1-1.9-1.1-3.2s0.4-2.4,1.1-3.2
			s1.7-1.2,2.8-1.2c1.1,0,2.1,0.4,2.8,1.2s1.1,1.9,1.1,3.2c0,1.4-0.4,2.5-1.2,3.3l0.7,0.9L403.2,165z M403.4,160.2
			c0-1-0.3-1.8-0.8-2.5c-0.5-0.6-1.2-1-2-1c-0.8,0-1.5,0.3-2,1c-0.5,0.6-0.8,1.5-0.8,2.5s0.3,1.8,0.8,2.5c0.5,0.6,1.2,1,2,1
			c0.5,0,0.9-0.1,1.3-0.3l-0.7-0.9l0.8-0.6l0.7,0.9C403.1,162.1,403.4,161.3,403.4,160.2z"/>
		<path class="st4" d="M410,164.5l-2.4-2.9l-0.7,0.6v2.2h-1v-9.1h1v5.6l2.8-2.8h1.4l-2.8,2.7l2.9,3.5L410,164.5L410,164.5z"/>
		<path class="st4" d="M414.8,159.9c-0.6,0-1.1,0.2-1.5,0.7h-0.9v-4.7h4.7v1h-3.8v2.6c0.4-0.4,0.9-0.5,1.6-0.5
			c0.8,0,1.4,0.3,1.9,0.8c0.5,0.5,0.8,1.2,0.8,2.1c0,0.8-0.3,1.5-0.8,2c-0.5,0.5-1.2,0.8-2,0.8c-0.8,0-1.5-0.2-2-0.7
			c-0.5-0.5-0.8-1.1-0.9-1.9h1.1c0.2,1.1,0.8,1.6,1.9,1.6c0.5,0,0.9-0.2,1.3-0.5c0.3-0.4,0.5-0.8,0.5-1.4s-0.2-1-0.5-1.4
			C415.8,160.1,415.3,159.9,414.8,159.9z"/>
	</g>
	<g>
		<path class="st4" d="M423,135c-0.7-0.8-1.1-1.9-1.1-3.2s0.4-2.4,1.1-3.2s1.6-1.2,2.8-1.2c0.9,0,1.6,0.2,2.2,0.7
			c0.6,0.5,1,1.1,1.1,1.9H428c-0.4-1.1-1.1-1.7-2.3-1.7c-0.8,0-1.5,0.3-2,0.9c-0.5,0.6-0.8,1.5-0.8,2.5c0,1,0.3,1.8,0.8,2.5
			s1.2,1,2,1c1.1,0,1.9-0.6,2.3-1.7h1.1c-0.2,0.8-0.6,1.5-1.1,1.9c-0.6,0.5-1.3,0.7-2.2,0.7C424.7,136.2,423.7,135.8,423,135z"/>
		<path class="st4" d="M435,130.6c0.5,0.6,0.8,1.4,0.8,2.3c0,1-0.3,1.7-0.8,2.3s-1.2,0.9-2.1,0.9c-0.8,0-1.5-0.3-2.1-0.9
			s-0.8-1.4-0.8-2.3c0-1,0.3-1.7,0.8-2.3s1.2-0.9,2.1-0.9C433.8,129.7,434.5,130,435,130.6z M434.3,134.6c0.3-0.4,0.5-1,0.5-1.7
			c0-0.7-0.2-1.2-0.5-1.7c-0.3-0.4-0.8-0.6-1.3-0.6s-1,0.2-1.3,0.6c-0.3,0.4-0.5,1-0.5,1.7c0,0.7,0.2,1.2,0.5,1.7
			c0.3,0.4,0.8,0.6,1.3,0.6S434,135.1,434.3,134.6z"/>
		<path class="st4" d="M438.3,135.3v3.1h-1v-8.6h1v0.7c0.2-0.2,0.4-0.4,0.7-0.6c0.3-0.2,0.7-0.2,1-0.2c0.9,0,1.6,0.3,2.1,0.9
			c0.5,0.6,0.7,1.4,0.7,2.3c0,0.9-0.2,1.7-0.7,2.3c-0.5,0.6-1.2,0.9-2.1,0.9c-0.4,0-0.7-0.1-1-0.2
			C438.7,135.8,438.5,135.6,438.3,135.3z M438.3,131.7v2.5c0.2,0.3,0.4,0.6,0.7,0.7c0.3,0.2,0.6,0.3,0.9,0.3c0.6,0,1-0.2,1.4-0.6
			c0.3-0.4,0.5-1,0.5-1.6c0-0.7-0.2-1.2-0.5-1.6c-0.3-0.4-0.8-0.6-1.4-0.6c-0.3,0-0.6,0.1-0.9,0.3
			C438.7,131.1,438.5,131.4,438.3,131.7z"/>
		<path class="st4" d="M446,138.5h-1l0.9-2.3l-2.4-6.3h1.1l1.8,4.9l1.8-4.9h1.1L446,138.5z"/>
		<path class="st4" d="M454.7,127v9.1h-1.1V127C453.6,127,454.7,127,454.7,127z"/>
		<path class="st4" d="M457.6,127.5c0.1,0.1,0.2,0.3,0.2,0.5c0,0.2-0.1,0.3-0.2,0.5c-0.1,0.1-0.3,0.2-0.5,0.2
			c-0.2,0-0.3-0.1-0.5-0.2c-0.1-0.1-0.2-0.3-0.2-0.5c0-0.2,0.1-0.3,0.2-0.5c0.1-0.1,0.3-0.2,0.5-0.2
			C457.3,127.3,457.4,127.4,457.6,127.5z M457.6,129.9v6.2h-1.1v-6.2H457.6z"/>
		<path class="st4" d="M459.5,136.1v-6.2h1v0.8c0.2-0.3,0.5-0.5,0.8-0.7c0.3-0.2,0.7-0.3,1.1-0.3c0.7,0,1.2,0.2,1.6,0.6
			s0.6,1,0.6,1.7v4.1h-1.1v-3.9c0-0.4-0.1-0.8-0.3-1.1c-0.2-0.3-0.6-0.4-1-0.4c-0.4,0-0.7,0.1-1,0.3c-0.3,0.2-0.5,0.5-0.6,0.8v4.2
			L459.5,136.1L459.5,136.1z"/>
		<path class="st4" d="M470.4,136.1l-2.4-2.9l-0.7,0.6v2.2h-1V127h1v5.6l2.8-2.8h1.4l-2.8,2.7l2.9,3.5L470.4,136.1L470.4,136.1z"/>
	</g>
	<polygon class="st3" points="204.9,130.4 200.5,134.9 196.1,130.4 	"/>
	<g>
		<circle class="st5" cx="12.9" cy="11.8" r="3.4"/>
		<circle class="st5" cx="25.4" cy="11.8" r="3.4"/>
		<circle class="st5" cx="37.1" cy="11.8" r="3.4"/>
	</g>
	<rect x="0.2" y="20.9" class="st1" width="505.2" height="1"/>
</g>
</svg>
