<?xml version="1.0" encoding="UTF-8"?>
<svg id="OUTLINES" xmlns="http://www.w3.org/2000/svg" viewBox="0 0 1152 1008">
  <defs>
    <style>
      .cls-1 {
        fill: #030f78;
      }

      .cls-2 {
        fill: #000f7d;
      }

      .cls-3 {
        fill: #fff;
      }
    </style>
  </defs>
  <rect class="cls-3" x="264" y="255" width="642" height="156" rx="24" ry="24"/>
  <rect class="cls-3" x="264" y="525" width="642" height="246" rx="24" ry="24"/>
  <path class="cls-1" d="M576,498.31c-3.31,0-6-2.69-6-6v-69.31c0-3.31,2.69-6,6-6s6,2.69,6,6v69.31c0,3.31-2.69,6-6,6Z"/>
  <path class="cls-1" d="M576,498.17c-1.59,0-3.12-.63-4.24-1.76l-23.39-23.39c-2.34-2.34-2.34-6.14,0-8.49s6.14-2.34,8.49,0l19.15,19.15,19.15-19.15c2.34-2.34,6.14-2.34,8.49,0,2.34,2.34,2.34,6.14,0,8.49l-23.39,23.39c-1.12,1.12-2.65,1.76-4.24,1.76Z"/>
  <g>
    <path class="cls-2" d="M298.17,571.41v-5.04h23.58v5.04h-8.91v22.59h-5.8v-22.59h-8.87Z"/>
    <path class="cls-2" d="M338.81,594h-5.36v-1.08c-.36,.36-1,.69-1.93,.99-.93,.3-1.92,.45-2.97,.45-2.13,0-3.91-.58-5.33-1.75s-2.14-2.76-2.14-4.77c0-1.89,.74-3.43,2.23-4.63,1.49-1.2,3.34-1.8,5.56-1.8,.84,0,1.71,.12,2.61,.36,.9,.24,1.56,.51,1.98,.81v-1.48c0-.9-.28-1.64-.83-2.23-.56-.58-1.37-.88-2.45-.88-1.5,0-2.49,.63-2.97,1.89h-5.31c.3-1.86,1.22-3.4,2.77-4.61,1.54-1.21,3.44-1.82,5.69-1.82,2.67,0,4.75,.68,6.23,2.05,1.48,1.37,2.23,3.26,2.23,5.69v12.83Zm-5.36-5.49v-1.44c-.24-.54-.7-.97-1.37-1.28s-1.43-.47-2.27-.47c-.96,0-1.79,.21-2.5,.63-.71,.42-1.06,1.04-1.06,1.85s.34,1.43,1.04,1.84c.69,.42,1.53,.63,2.52,.63,.84,0,1.6-.16,2.27-.47s1.13-.74,1.37-1.28Z"/>
    <path class="cls-2" d="M342.04,588.02h5.54c.45,1.47,1.58,2.21,3.38,2.21,1.89,0,2.83-.66,2.83-1.98,0-.45-.16-.8-.47-1.06s-.83-.47-1.55-.65l-4.05-.9c-3.48-.81-5.22-2.7-5.22-5.67,0-1.92,.76-3.49,2.29-4.7,1.53-1.21,3.43-1.82,5.71-1.82,2.49,0,4.45,.55,5.87,1.64,1.42,1.1,2.32,2.62,2.68,4.57h-5.31c-.42-1.32-1.47-1.98-3.15-1.98-.72,0-1.34,.17-1.87,.5-.53,.33-.79,.79-.79,1.4,0,.75,.6,1.28,1.8,1.57l4.14,.95c3.57,.87,5.36,2.82,5.36,5.85,0,2.01-.77,3.6-2.32,4.77-1.54,1.17-3.52,1.76-5.92,1.76s-4.53-.56-6.12-1.69c-1.59-1.12-2.54-2.71-2.83-4.75Z"/>
    <path class="cls-2" d="M376.11,594l-5.9-8.1-1.62,1.75v6.35h-5.58v-29.25h5.58v16.6l6.88-7.47h6.93l-8.15,8.55,8.46,11.56h-6.61Z"/>
    <path class="cls-2" d="M393.75,583.96c0-3.12,.9-5.65,2.7-7.6,1.8-1.95,4.12-2.92,6.97-2.92,2.46,0,4.47,.66,6.03,1.98,1.56,1.32,2.49,3.08,2.79,5.27h-5.49c-.15-.78-.52-1.39-1.1-1.82-.58-.43-1.33-.65-2.23-.65-1.26,0-2.27,.53-3.01,1.57-.75,1.05-1.12,2.45-1.12,4.19s.38,3.09,1.12,4.14c.75,1.05,1.75,1.58,3.01,1.58,.9,0,1.64-.22,2.23-.65,.58-.43,.95-1.04,1.1-1.82h5.49c-.3,2.19-1.22,3.95-2.77,5.27-1.55,1.32-3.56,1.98-6.05,1.98-2.85,0-5.17-.97-6.97-2.93-1.8-1.95-2.7-4.47-2.7-7.56Z"/>
    <path class="cls-2" d="M434.16,583.96c0,3.09-.92,5.61-2.75,7.56-1.83,1.95-4.2,2.93-7.11,2.93s-5.28-.97-7.11-2.93c-1.83-1.95-2.75-4.47-2.75-7.56s.92-5.65,2.75-7.6c1.83-1.95,4.2-2.92,7.11-2.92s5.28,.98,7.11,2.92c1.83,1.95,2.75,4.49,2.75,7.6Zm-5.54,0c0-1.74-.38-3.14-1.15-4.21-.76-1.06-1.82-1.6-3.17-1.6s-2.41,.53-3.17,1.6c-.76,1.07-1.15,2.47-1.15,4.21s.38,3.1,1.15,4.16c.76,1.07,1.82,1.6,3.17,1.6s2.41-.53,3.17-1.6c.77-1.06,1.15-2.45,1.15-4.16Z"/>
    <path class="cls-2" d="M453.78,576c1.56-1.71,3.58-2.56,6.08-2.56,2.07,0,3.69,.67,4.86,2,1.17,1.34,1.75,3.14,1.75,5.42v13.14h-5.58v-11.97c0-1.11-.25-1.99-.74-2.63-.5-.64-1.21-.97-2.14-.97-.75,0-1.41,.22-1.98,.67-.57,.45-.95,1.1-1.12,1.94v12.96h-5.62v-11.97c0-2.4-.95-3.6-2.83-3.6-.75,0-1.42,.23-2,.7-.58,.47-.97,1.1-1.15,1.91v12.96h-5.58v-20.12h5.58v1.67c1.11-1.41,2.8-2.11,5.08-2.11s4.11,.85,5.4,2.56Z"/>
    <path class="cls-2" d="M476.68,592.33v9.09h-5.58v-27.54h5.58v1.67c.48-.57,1.18-1.06,2.12-1.48,.93-.42,1.9-.63,2.92-.63,2.82,0,5.05,1.01,6.71,3.04,1.65,2.02,2.48,4.52,2.48,7.49s-.83,5.46-2.48,7.47c-1.65,2.01-3.89,3.02-6.71,3.02-1.02,0-2-.21-2.92-.63-.93-.42-1.64-.91-2.12-1.48Zm0-11.7v6.62c.33,.69,.84,1.25,1.53,1.69,.69,.44,1.44,.65,2.25,.65,1.47,0,2.64-.52,3.51-1.57,.87-1.05,1.31-2.4,1.31-4.05s-.44-3.01-1.31-4.07c-.87-1.06-2.04-1.6-3.51-1.6-.81,0-1.55,.22-2.23,.65-.67,.44-1.19,1-1.55,1.69Z"/>
    <path class="cls-2" d="M500.04,564.75v29.25h-5.58v-29.25h5.58Z"/>
    <path class="cls-2" d="M517.14,587.43h5.17c-.36,2.19-1.31,3.91-2.86,5.15-1.54,1.25-3.56,1.87-6.05,1.87-2.91,0-5.26-.97-7.06-2.9s-2.7-4.46-2.7-7.58,.91-5.54,2.72-7.54c1.81-2,4.13-2.99,6.95-2.99s5.12,.91,6.73,2.72c1.6,1.82,2.41,4.24,2.41,7.27v1.71h-13.41c.09,1.5,.52,2.68,1.3,3.53,.78,.85,1.8,1.28,3.06,1.28,2.04,0,3.29-.84,3.74-2.52Zm-3.78-9.45c-2.28,0-3.67,1.26-4.18,3.78h7.79c-.03-1.11-.36-2.02-.99-2.72-.63-.7-1.5-1.06-2.61-1.06Z"/>
    <path class="cls-2" d="M527.22,587.92v-9.54h-3.06v-4.5h3.06v-5.44h5.54v5.44h4.41v4.5h-4.41v8.82c0,1.53,.77,2.29,2.29,2.29,.93,0,1.74-.23,2.43-.67v4.95c-.78,.42-1.98,.63-3.6,.63-2.1,0-3.73-.54-4.9-1.62s-1.76-2.7-1.76-4.86Z"/>
    <path class="cls-2" d="M553.59,587.43h5.17c-.36,2.19-1.31,3.91-2.86,5.15-1.54,1.25-3.56,1.87-6.05,1.87-2.91,0-5.26-.97-7.06-2.9s-2.7-4.46-2.7-7.58,.91-5.54,2.72-7.54c1.81-2,4.13-2.99,6.95-2.99s5.12,.91,6.73,2.72c1.6,1.82,2.41,4.24,2.41,7.27v1.71h-13.41c.09,1.5,.52,2.68,1.3,3.53,.78,.85,1.8,1.28,3.06,1.28,2.04,0,3.29-.84,3.74-2.52Zm-3.78-9.45c-2.28,0-3.67,1.26-4.18,3.78h7.79c-.03-1.11-.36-2.02-.99-2.72-.63-.7-1.5-1.06-2.61-1.06Z"/>
    <path class="cls-2" d="M575.55,594v-1.67c-.48,.57-1.19,1.07-2.11,1.48-.93,.42-1.91,.63-2.93,.63-2.82,0-5.05-1-6.68-2.99-1.63-1.99-2.45-4.49-2.45-7.49s.82-5.5,2.45-7.51c1.63-2.01,3.86-3.02,6.68-3.02,1.02,0,2,.21,2.93,.63,.93,.42,1.63,.92,2.11,1.48v-10.8h5.62v29.25h-5.62Zm0-6.75v-6.62c-.33-.69-.84-1.25-1.53-1.69-.69-.43-1.44-.65-2.25-.65-1.47,0-2.64,.53-3.51,1.6-.87,1.06-1.3,2.42-1.3,4.07s.43,3,1.3,4.05c.87,1.05,2.04,1.57,3.51,1.57,.84,0,1.6-.22,2.27-.65,.67-.43,1.18-1,1.51-1.69Z"/>
    <path class="cls-2" d="M613.98,583.96c0,3.09-.92,5.61-2.75,7.56-1.83,1.95-4.2,2.93-7.11,2.93s-5.28-.97-7.11-2.93c-1.83-1.95-2.75-4.47-2.75-7.56s.92-5.65,2.75-7.6c1.83-1.95,4.2-2.92,7.11-2.92s5.28,.98,7.11,2.92c1.83,1.95,2.75,4.49,2.75,7.6Zm-5.54,0c0-1.74-.38-3.14-1.15-4.21-.76-1.06-1.82-1.6-3.17-1.6s-2.41,.53-3.17,1.6c-.76,1.07-1.15,2.47-1.15,4.21s.38,3.1,1.15,4.16c.76,1.07,1.82,1.6,3.17,1.6s2.41-.53,3.17-1.6c.77-1.06,1.15-2.45,1.15-4.16Z"/>
    <path class="cls-2" d="M617.53,594v-20.12h5.58v1.85c1.32-1.53,3.12-2.29,5.4-2.29s4,.67,5.24,2.02,1.87,3.15,1.87,5.4v13.14h-5.58v-11.97c0-1.08-.28-1.94-.83-2.59-.56-.64-1.37-.97-2.45-.97-.87,0-1.64,.25-2.32,.74-.68,.5-1.12,1.18-1.33,2.05v12.73h-5.58Z"/>
    <path class="cls-2" d="M660.19,566.37v27.63h-5.62v-21.06l-6.44,3.19v-5.62l8.42-4.14h3.65Z"/>
    <path class="cls-2" d="M675.71,566.37v27.63h-5.62v-21.06l-6.44,3.19v-5.62l8.42-4.14h3.65Z"/>
    <path class="cls-2" d="M678.5,597.78l11.16-33.03h5.17l-11.16,33.03h-5.18Z"/>
    <path class="cls-2" d="M707.89,566.37v27.63h-5.62v-21.06l-6.44,3.19v-5.62l8.42-4.14h3.65Z"/>
    <path class="cls-2" d="M730.79,590.49c-2.01,2.64-4.63,3.96-7.88,3.96s-5.87-1.32-7.88-3.96c-2.01-2.64-3.01-6.08-3.01-10.31s1-7.67,3.01-10.31c2.01-2.64,4.63-3.96,7.88-3.96s5.86,1.32,7.88,3.96c2.01,2.64,3.01,6.08,3.01,10.31s-1,7.67-3.01,10.31Zm-3.92-16.92c-.87-1.68-2.19-2.52-3.96-2.52s-3.09,.84-3.96,2.52c-.87,1.68-1.3,3.89-1.3,6.62s.43,4.94,1.3,6.61c.87,1.68,2.19,2.52,3.96,2.52s3.09-.84,3.96-2.52c.87-1.68,1.3-3.88,1.3-6.61s-.43-4.93-1.3-6.62Z"/>
    <path class="cls-2" d="M734.26,597.78l11.16-33.03h5.17l-11.16,33.03h-5.18Z"/>
    <path class="cls-2" d="M764.54,574.38c0-.99-.31-1.79-.94-2.41-.63-.61-1.49-.92-2.57-.92s-1.99,.35-2.63,1.06c-.65,.71-1,1.63-1.06,2.77h-5.94c.27-2.64,1.27-4.79,2.99-6.46,1.72-1.67,3.92-2.5,6.59-2.5,2.88,0,5.14,.74,6.79,2.23,1.65,1.48,2.47,3.49,2.47,6.01,0,1.08-.3,2.2-.9,3.35-.6,1.16-1.19,2.07-1.78,2.75-.58,.68-1.52,1.69-2.81,3.04l-5.31,5.71h11.12v5h-19.12v-3.73l8.78-9.23c2.01-2.22,3.24-3.73,3.69-4.54,.42-.75,.63-1.46,.63-2.12Z"/>
    <path class="cls-2" d="M792.08,590.49c-2.01,2.64-4.63,3.96-7.88,3.96s-5.87-1.32-7.88-3.96c-2.01-2.64-3.01-6.08-3.01-10.31s1-7.67,3.01-10.31c2.01-2.64,4.63-3.96,7.88-3.96s5.86,1.32,7.88,3.96c2.01,2.64,3.01,6.08,3.01,10.31s-1,7.67-3.01,10.31Zm-3.92-16.92c-.87-1.68-2.19-2.52-3.96-2.52s-3.09,.84-3.96,2.52c-.87,1.68-1.3,3.89-1.3,6.62s.43,4.94,1.3,6.61c.87,1.68,2.19,2.52,3.96,2.52s3.09-.84,3.96-2.52c.87-1.68,1.3-3.88,1.3-6.61s-.43-4.93-1.3-6.62Z"/>
    <path class="cls-2" d="M810.44,574.38c0-.99-.31-1.79-.94-2.41-.63-.61-1.49-.92-2.57-.92s-1.99,.35-2.63,1.06c-.65,.71-1,1.63-1.06,2.77h-5.94c.27-2.64,1.27-4.79,2.99-6.46,1.72-1.67,3.92-2.5,6.59-2.5,2.88,0,5.14,.74,6.79,2.23,1.65,1.48,2.47,3.49,2.47,6.01,0,1.08-.3,2.2-.9,3.35-.6,1.16-1.19,2.07-1.78,2.75-.58,.68-1.52,1.69-2.81,3.04l-5.31,5.71h11.12v5h-19.12v-3.73l8.78-9.23c2.01-2.22,3.24-3.73,3.69-4.54,.42-.75,.63-1.46,.63-2.12Z"/>
    <path class="cls-2" d="M839.11,573.35h-5.58c-.57-1.8-1.79-2.7-3.64-2.7-1.59,0-2.88,.78-3.87,2.34-.99,1.56-1.49,3.36-1.49,5.4v.41c.45-.87,1.2-1.58,2.25-2.12,1.05-.54,2.23-.81,3.55-.81,2.7,0,4.88,.88,6.53,2.63,1.65,1.75,2.47,3.91,2.47,6.46,0,2.7-.88,4.96-2.63,6.77-1.75,1.82-4.13,2.72-7.13,2.72-3.75,0-6.54-1.67-8.37-5-1.29-2.25-1.93-5.15-1.93-8.69,0-4.38,.95-7.95,2.86-10.71,1.9-2.76,4.48-4.14,7.72-4.14,2.55,0,4.61,.65,6.17,1.94,1.56,1.29,2.59,3.12,3.11,5.49Zm-14.08,11.74c0,1.38,.42,2.5,1.26,3.35s1.95,1.28,3.33,1.28,2.41-.43,3.26-1.28c.85-.85,1.28-1.97,1.28-3.35s-.42-2.59-1.26-3.46c-.84-.87-1.94-1.31-3.29-1.31s-2.49,.44-3.33,1.31c-.84,.87-1.26,2.02-1.26,3.46Z"/>
    <path class="cls-2" d="M305.01,647.33v1.67h-5.62v-29.25h5.62v10.8c.48-.57,1.18-1.06,2.12-1.48,.93-.42,1.9-.63,2.92-.63,2.82,0,5.05,1.01,6.68,3.02,1.63,2.01,2.45,4.52,2.45,7.51s-.82,5.5-2.45,7.49c-1.64,2-3.86,2.99-6.68,2.99-1.02,0-2-.21-2.92-.63-.93-.42-1.64-.92-2.12-1.49Zm0-11.7v6.62c.33,.69,.83,1.25,1.51,1.69,.67,.44,1.43,.65,2.27,.65,1.47,0,2.64-.52,3.51-1.58,.87-1.05,1.31-2.4,1.31-4.05s-.44-3.01-1.31-4.07c-.87-1.06-2.04-1.6-3.51-1.6-.81,0-1.56,.22-2.25,.65-.69,.44-1.2,1-1.53,1.69Z"/>
    <path class="cls-2" d="M330.57,656.42h-5.49l2.92-7.33-7.7-20.21h5.9l4.63,13.37,4.59-13.37h5.62l-10.49,27.54Z"/>
    <path class="cls-2" d="M370.12,649h-5.36v-1.08c-.36,.36-1,.69-1.93,.99-.93,.3-1.92,.45-2.97,.45-2.13,0-3.91-.58-5.33-1.75-1.42-1.17-2.14-2.76-2.14-4.77,0-1.89,.74-3.43,2.23-4.63s3.34-1.8,5.56-1.8c.84,0,1.71,.12,2.61,.36,.9,.24,1.56,.51,1.98,.81v-1.49c0-.9-.28-1.64-.83-2.23-.56-.58-1.37-.88-2.45-.88-1.5,0-2.49,.63-2.97,1.89h-5.31c.3-1.86,1.22-3.4,2.77-4.61,1.54-1.21,3.44-1.82,5.69-1.82,2.67,0,4.75,.68,6.23,2.05,1.48,1.37,2.23,3.26,2.23,5.69v12.83Zm-5.36-5.49v-1.44c-.24-.54-.7-.97-1.37-1.28-.67-.31-1.43-.47-2.27-.47-.96,0-1.79,.21-2.5,.63s-1.06,1.04-1.06,1.84,.34,1.42,1.04,1.84c.69,.42,1.53,.63,2.52,.63,.84,0,1.6-.16,2.27-.47,.67-.32,1.13-.74,1.37-1.28Z"/>
    <path class="cls-2" d="M392.49,628.88v20.12h-5.58v-1.84c-1.38,1.53-3.18,2.29-5.4,2.29s-3.95-.67-5.2-2.03c-1.25-1.35-1.87-3.15-1.87-5.4v-13.14h5.58v12.02c0,1.11,.27,1.98,.81,2.61s1.35,.95,2.43,.95c.87,0,1.63-.25,2.29-.74,.66-.5,1.09-1.18,1.3-2.05v-12.78h5.62Z"/>
    <path class="cls-2" d="M398.52,642.92v-9.54h-3.06v-4.5h3.06v-5.44h5.54v5.44h4.41v4.5h-4.41v8.82c0,1.53,.77,2.29,2.29,2.29,.93,0,1.74-.22,2.43-.67v4.95c-.78,.42-1.98,.63-3.6,.63-2.1,0-3.73-.54-4.9-1.62s-1.76-2.7-1.76-4.86Z"/>
    <path class="cls-2" d="M431.1,638.96c0,3.09-.92,5.61-2.75,7.56s-4.2,2.92-7.11,2.92-5.28-.97-7.11-2.92c-1.83-1.95-2.75-4.47-2.75-7.56s.92-5.65,2.75-7.6c1.83-1.95,4.2-2.93,7.11-2.93s5.28,.98,7.11,2.93,2.75,4.49,2.75,7.6Zm-5.54,0c0-1.74-.38-3.14-1.15-4.21-.76-1.06-1.82-1.6-3.17-1.6s-2.41,.53-3.17,1.6-1.15,2.47-1.15,4.21,.38,3.1,1.15,4.16c.76,1.06,1.82,1.6,3.17,1.6s2.41-.53,3.17-1.6c.77-1.07,1.15-2.45,1.15-4.16Z"/>
    <path class="cls-2" d="M450.72,631c1.56-1.71,3.58-2.57,6.08-2.57,2.07,0,3.69,.67,4.86,2s1.75,3.14,1.75,5.42v13.14h-5.58v-11.97c0-1.11-.25-1.99-.74-2.63-.5-.64-1.21-.97-2.14-.97-.75,0-1.41,.23-1.98,.68-.57,.45-.95,1.09-1.12,1.93v12.96h-5.62v-11.97c0-2.4-.95-3.6-2.83-3.6-.75,0-1.42,.23-2,.7s-.97,1.1-1.15,1.91v12.96h-5.58v-20.12h5.58v1.67c1.11-1.41,2.8-2.12,5.08-2.12s4.11,.86,5.4,2.57Z"/>
    <path class="cls-2" d="M484.56,649h-5.36v-1.08c-.36,.36-1,.69-1.93,.99-.93,.3-1.92,.45-2.97,.45-2.13,0-3.91-.58-5.33-1.75-1.42-1.17-2.14-2.76-2.14-4.77,0-1.89,.74-3.43,2.23-4.63s3.34-1.8,5.56-1.8c.84,0,1.71,.12,2.61,.36,.9,.24,1.56,.51,1.98,.81v-1.49c0-.9-.28-1.64-.83-2.23-.56-.58-1.37-.88-2.45-.88-1.5,0-2.49,.63-2.97,1.89h-5.31c.3-1.86,1.22-3.4,2.77-4.61,1.54-1.21,3.44-1.82,5.69-1.82,2.67,0,4.75,.68,6.23,2.05,1.48,1.37,2.23,3.26,2.23,5.69v12.83Zm-5.36-5.49v-1.44c-.24-.54-.7-.97-1.37-1.28-.67-.31-1.43-.47-2.27-.47-.96,0-1.79,.21-2.5,.63s-1.06,1.04-1.06,1.84,.34,1.42,1.04,1.84c.69,.42,1.53,.63,2.52,.63,.84,0,1.6-.16,2.27-.47,.67-.32,1.13-.74,1.37-1.28Z"/>
    <path class="cls-2" d="M490.14,642.92v-9.54h-3.06v-4.5h3.06v-5.44h5.54v5.44h4.41v4.5h-4.41v8.82c0,1.53,.77,2.29,2.29,2.29,.93,0,1.74-.22,2.43-.67v4.95c-.78,.42-1.98,.63-3.6,.63-2.1,0-3.73-.54-4.9-1.62s-1.76-2.7-1.76-4.86Z"/>
    <path class="cls-2" d="M516.51,642.43h5.17c-.36,2.19-1.31,3.91-2.86,5.15-1.54,1.25-3.56,1.87-6.05,1.87-2.91,0-5.26-.97-7.06-2.9-1.8-1.94-2.7-4.46-2.7-7.58s.91-5.54,2.72-7.54c1.81-2,4.13-2.99,6.95-2.99s5.12,.91,6.73,2.72c1.6,1.82,2.41,4.24,2.41,7.27v1.71h-13.41c.09,1.5,.52,2.68,1.3,3.53,.78,.85,1.8,1.28,3.06,1.28,2.04,0,3.29-.84,3.74-2.52Zm-3.78-9.45c-2.28,0-3.67,1.26-4.18,3.78h7.79c-.03-1.11-.36-2.02-.99-2.72-.63-.7-1.5-1.06-2.61-1.06Z"/>
    <path class="cls-2" d="M538.47,649v-1.67c-.48,.57-1.19,1.07-2.11,1.49-.93,.42-1.91,.63-2.93,.63-2.82,0-5.05-1-6.68-2.99-1.63-1.99-2.45-4.49-2.45-7.49s.82-5.5,2.45-7.51,3.86-3.02,6.68-3.02c1.02,0,2,.21,2.93,.63,.93,.42,1.63,.92,2.11,1.48v-10.8h5.62v29.25h-5.62Zm0-6.75v-6.62c-.33-.69-.84-1.25-1.53-1.69-.69-.43-1.44-.65-2.25-.65-1.47,0-2.64,.53-3.51,1.6-.87,1.07-1.3,2.42-1.3,4.07s.43,3,1.3,4.05c.87,1.05,2.04,1.58,3.51,1.58,.84,0,1.6-.22,2.27-.65,.67-.43,1.18-1,1.51-1.69Z"/>
    <path class="cls-2" d="M557.14,643.01h5.54c.45,1.47,1.58,2.21,3.38,2.21,1.89,0,2.83-.66,2.83-1.98,0-.45-.16-.8-.47-1.06s-.83-.47-1.55-.65l-4.05-.9c-3.48-.81-5.22-2.7-5.22-5.67,0-1.92,.76-3.49,2.29-4.7s3.43-1.82,5.71-1.82c2.49,0,4.45,.55,5.87,1.64,1.42,1.1,2.32,2.62,2.68,4.57h-5.31c-.42-1.32-1.47-1.98-3.15-1.98-.72,0-1.34,.17-1.87,.5-.53,.33-.79,.79-.79,1.39,0,.75,.6,1.28,1.8,1.58l4.14,.95c3.57,.87,5.36,2.82,5.36,5.85,0,2.01-.77,3.6-2.32,4.77s-3.52,1.75-5.92,1.75-4.53-.56-6.12-1.69c-1.59-1.12-2.54-2.71-2.83-4.75Z"/>
    <path class="cls-2" d="M590.35,642.43h5.17c-.36,2.19-1.31,3.91-2.86,5.15-1.54,1.25-3.56,1.87-6.05,1.87-2.91,0-5.26-.97-7.06-2.9-1.8-1.94-2.7-4.46-2.7-7.58s.91-5.54,2.72-7.54c1.81-2,4.13-2.99,6.95-2.99s5.12,.91,6.73,2.72c1.6,1.82,2.41,4.24,2.41,7.27v1.71h-13.41c.09,1.5,.52,2.68,1.3,3.53,.78,.85,1.8,1.28,3.06,1.28,2.04,0,3.29-.84,3.74-2.52Zm-3.78-9.45c-2.28,0-3.67,1.26-4.18,3.78h7.79c-.03-1.11-.36-2.02-.99-2.72-.63-.7-1.5-1.06-2.61-1.06Z"/>
    <path class="cls-2" d="M611.41,628.79v5.58c-.75-.45-1.68-.67-2.79-.67-.96,0-1.79,.25-2.47,.74-.69,.5-1.14,1.19-1.35,2.09v12.46h-5.58v-20.12h5.58v1.98c.96-1.62,2.46-2.43,4.5-2.43,.99,0,1.69,.12,2.12,.36Z"/>
    <path class="cls-2" d="M626.17,649h-5.4l-7.61-20.12h5.85l4.64,13.37,4.54-13.37h5.62l-7.65,20.12Z"/>
    <path class="cls-2" d="M642.91,623.08c0,.93-.32,1.7-.97,2.29-.65,.6-1.42,.9-2.32,.9s-1.72-.3-2.36-.9c-.65-.6-.97-1.37-.97-2.29s.33-1.66,.99-2.27c.66-.61,1.44-.92,2.34-.92s1.67,.31,2.32,.92c.65,.62,.97,1.37,.97,2.27Zm-.5,5.8v20.12h-5.58v-20.12h5.58Z"/>
    <path class="cls-2" d="M646.01,638.96c0-3.12,.9-5.65,2.7-7.6s4.12-2.93,6.97-2.93c2.46,0,4.47,.66,6.03,1.98,1.56,1.32,2.49,3.08,2.79,5.26h-5.49c-.15-.78-.52-1.39-1.1-1.82-.58-.43-1.33-.65-2.23-.65-1.26,0-2.27,.53-3.01,1.58-.75,1.05-1.12,2.45-1.12,4.18s.38,3.09,1.12,4.14c.75,1.05,1.75,1.57,3.01,1.57,.9,0,1.64-.22,2.23-.65,.58-.43,.95-1.04,1.1-1.82h5.49c-.3,2.19-1.22,3.95-2.77,5.26-1.55,1.32-3.56,1.98-6.05,1.98-2.85,0-5.17-.97-6.97-2.92s-2.7-4.47-2.7-7.56Z"/>
    <path class="cls-2" d="M680.21,642.43h5.17c-.36,2.19-1.31,3.91-2.86,5.15-1.54,1.25-3.56,1.87-6.05,1.87-2.91,0-5.26-.97-7.06-2.9-1.8-1.94-2.7-4.46-2.7-7.58s.91-5.54,2.72-7.54c1.81-2,4.13-2.99,6.95-2.99s5.12,.91,6.73,2.72c1.6,1.82,2.41,4.24,2.41,7.27v1.71h-13.41c.09,1.5,.52,2.68,1.3,3.53,.78,.85,1.8,1.28,3.06,1.28,2.04,0,3.29-.84,3.74-2.52Zm-3.78-9.45c-2.28,0-3.67,1.26-4.18,3.78h7.79c-.03-1.11-.36-2.02-.99-2.72-.63-.7-1.5-1.06-2.61-1.06Z"/>
    <path class="cls-2" d="M715.09,634.74c1.32,.42,2.4,1.22,3.24,2.41,.84,1.19,1.26,2.53,1.26,4.03,0,2.52-.82,4.46-2.45,5.8-1.63,1.35-3.91,2.03-6.82,2.03h-11.47v-27.63h10.58c2.94,0,5.23,.65,6.86,1.93,1.63,1.29,2.45,3.15,2.45,5.58,0,1.44-.34,2.68-1.04,3.71s-1.56,1.75-2.61,2.14Zm-10.71-2.03h4.68c2.79,0,4.18-1.09,4.18-3.29s-1.39-3.19-4.18-3.19h-4.68v6.48Zm0,4.5v6.93h5.44c1.32,0,2.34-.31,3.06-.92,.72-.62,1.08-1.46,1.08-2.54s-.35-1.93-1.06-2.54c-.71-.62-1.73-.92-3.08-.92h-5.44Z"/>
    <path class="cls-2" d="M735.74,642.43h5.17c-.36,2.19-1.31,3.91-2.86,5.15-1.54,1.25-3.56,1.87-6.05,1.87-2.91,0-5.26-.97-7.06-2.9-1.8-1.94-2.7-4.46-2.7-7.58s.91-5.54,2.72-7.54c1.81-2,4.13-2.99,6.95-2.99s5.12,.91,6.73,2.72c1.6,1.82,2.41,4.24,2.41,7.27v1.71h-13.41c.09,1.5,.52,2.68,1.3,3.53,.78,.85,1.8,1.28,3.06,1.28,2.04,0,3.29-.84,3.74-2.52Zm-3.78-9.45c-2.28,0-3.67,1.26-4.18,3.78h7.79c-.03-1.11-.36-2.02-.99-2.72-.63-.7-1.5-1.06-2.61-1.06Z"/>
    <path class="cls-2" d="M743.35,643.01h5.54c.45,1.47,1.58,2.21,3.38,2.21,1.89,0,2.83-.66,2.83-1.98,0-.45-.16-.8-.47-1.06s-.83-.47-1.55-.65l-4.05-.9c-3.48-.81-5.22-2.7-5.22-5.67,0-1.92,.76-3.49,2.29-4.7s3.43-1.82,5.71-1.82c2.49,0,4.45,.55,5.87,1.64,1.42,1.1,2.32,2.62,2.68,4.57h-5.31c-.42-1.32-1.47-1.98-3.15-1.98-.72,0-1.34,.17-1.87,.5-.53,.33-.79,.79-.79,1.39,0,.75,.6,1.28,1.8,1.58l4.14,.95c3.57,.87,5.36,2.82,5.36,5.85,0,2.01-.77,3.6-2.32,4.77s-3.52,1.75-5.92,1.75-4.53-.56-6.12-1.69c-1.59-1.12-2.54-2.71-2.83-4.75Z"/>
    <path class="cls-2" d="M765.53,642.92v-9.54h-3.06v-4.5h3.06v-5.44h5.54v5.44h4.41v4.5h-4.41v8.82c0,1.53,.77,2.29,2.29,2.29,.93,0,1.74-.22,2.43-.67v4.95c-.78,.42-1.98,.63-3.6,.63-2.1,0-3.73-.54-4.9-1.62s-1.76-2.7-1.76-4.86Z"/>
    <path class="cls-2" d="M796.31,634.74c1.32,.42,2.4,1.22,3.24,2.41,.84,1.19,1.26,2.53,1.26,4.03,0,2.52-.82,4.46-2.45,5.8-1.63,1.35-3.91,2.03-6.82,2.03h-11.47v-27.63h10.58c2.94,0,5.23,.65,6.86,1.93,1.63,1.29,2.45,3.15,2.45,5.58,0,1.44-.34,2.68-1.04,3.71s-1.56,1.75-2.61,2.14Zm-10.71-2.03h4.68c2.79,0,4.18-1.09,4.18-3.29s-1.39-3.19-4.18-3.19h-4.68v6.48Zm0,4.5v6.93h5.44c1.32,0,2.34-.31,3.06-.92,.72-.62,1.08-1.46,1.08-2.54s-.35-1.93-1.06-2.54c-.71-.62-1.73-.92-3.08-.92h-5.44Z"/>
    <path class="cls-2" d="M823.18,638.96c0,3.09-.92,5.61-2.75,7.56s-4.2,2.92-7.11,2.92-5.28-.97-7.11-2.92c-1.83-1.95-2.75-4.47-2.75-7.56s.92-5.65,2.75-7.6c1.83-1.95,4.2-2.93,7.11-2.93s5.28,.98,7.11,2.93,2.75,4.49,2.75,7.6Zm-5.54,0c0-1.74-.38-3.14-1.15-4.21-.76-1.06-1.82-1.6-3.17-1.6s-2.41,.53-3.17,1.6-1.15,2.47-1.15,4.21,.38,3.1,1.15,4.16c.76,1.06,1.82,1.6,3.17,1.6s2.41-.53,3.17-1.6c.77-1.07,1.15-2.45,1.15-4.16Z"/>
    <path class="cls-2" d="M827.95,642.92v-9.54h-3.06v-4.5h3.06v-5.44h5.54v5.44h4.41v4.5h-4.41v8.82c0,1.53,.77,2.29,2.29,2.29,.93,0,1.74-.22,2.43-.67v4.95c-.78,.42-1.98,.63-3.6,.63-2.1,0-3.73-.54-4.9-1.62s-1.76-2.7-1.76-4.86Z"/>
    <path class="cls-2" d="M318.01,694.1h-5.26v-4.59h10.89v2.43c0,3.78-1.12,6.81-3.35,9.09-2.23,2.28-5.12,3.42-8.66,3.42-3.87,0-7.06-1.33-9.56-3.98-2.5-2.66-3.76-6.08-3.76-10.28s1.25-7.63,3.76-10.28,5.65-3.98,9.43-3.98c3.24,0,5.86,.85,7.88,2.54,2.01,1.7,3.29,3.97,3.83,6.82h-5.81c-1.08-2.82-3.04-4.23-5.89-4.23-2.25,0-4.04,.85-5.36,2.54-1.32,1.7-1.98,3.89-1.98,6.59s.67,4.94,2.02,6.64c1.35,1.7,3.17,2.54,5.45,2.54,1.74,0,3.16-.47,4.25-1.42,1.09-.94,1.81-2.23,2.14-3.85Z"/>
    <path class="cls-2" d="M340.02,697.43h5.17c-.36,2.19-1.31,3.91-2.86,5.15-1.54,1.25-3.56,1.87-6.05,1.87-2.91,0-5.26-.97-7.06-2.9-1.8-1.94-2.7-4.46-2.7-7.58s.91-5.54,2.72-7.54c1.81-2,4.13-2.99,6.95-2.99s5.12,.91,6.73,2.72c1.6,1.82,2.41,4.24,2.41,7.27v1.71h-13.41c.09,1.5,.52,2.68,1.3,3.53,.78,.85,1.8,1.28,3.06,1.28,2.04,0,3.29-.84,3.74-2.52Zm-3.78-9.45c-2.28,0-3.67,1.26-4.18,3.78h7.79c-.03-1.11-.36-2.02-.99-2.72-.63-.7-1.5-1.06-2.61-1.06Z"/>
    <path class="cls-2" d="M350.1,697.92v-9.54h-3.06v-4.5h3.06v-5.44h5.54v5.44h4.41v4.5h-4.41v8.82c0,1.53,.77,2.29,2.29,2.29,.93,0,1.74-.22,2.43-.67v4.95c-.78,.42-1.98,.63-3.6,.63-2.1,0-3.73-.54-4.9-1.62s-1.76-2.7-1.76-4.86Z"/>
    <path class="cls-2" d="M386.86,704v-1.67c-.48,.57-1.19,1.07-2.11,1.49-.93,.42-1.91,.63-2.93,.63-2.82,0-5.05-1-6.68-2.99-1.63-1.99-2.45-4.49-2.45-7.49s.82-5.5,2.45-7.51,3.86-3.02,6.68-3.02c1.02,0,2,.21,2.93,.63,.93,.42,1.63,.92,2.11,1.48v-10.8h5.62v29.25h-5.62Zm0-6.75v-6.62c-.33-.69-.84-1.25-1.53-1.69-.69-.43-1.44-.65-2.25-.65-1.47,0-2.64,.53-3.51,1.6-.87,1.07-1.3,2.42-1.3,4.07s.43,3,1.3,4.05c.87,1.05,2.04,1.58,3.51,1.58,.84,0,1.6-.22,2.27-.65,.67-.43,1.18-1,1.51-1.69Z"/>
    <path class="cls-2" d="M403.38,678.08c0,.93-.32,1.7-.97,2.29-.65,.6-1.42,.9-2.32,.9s-1.72-.3-2.36-.9c-.65-.6-.97-1.37-.97-2.29s.33-1.66,.99-2.27c.66-.61,1.44-.92,2.34-.92s1.67,.31,2.32,.92c.65,.62,.97,1.37,.97,2.27Zm-.5,5.8v20.12h-5.58v-20.12h5.58Z"/>
    <path class="cls-2" d="M420.57,702.65v-1.17c-1.14,1.38-2.79,2.07-4.95,2.07-2.79,0-5.01-.97-6.66-2.92-1.65-1.95-2.47-4.33-2.47-7.16s.83-5.16,2.47-7.11c1.65-1.95,3.87-2.93,6.66-2.93,2.13,0,3.78,.68,4.95,2.03v-1.58h5.54v17.91c0,3.33-.9,5.84-2.7,7.54-1.8,1.7-4.18,2.54-7.16,2.54-2.61,0-4.75-.63-6.41-1.89-1.67-1.26-2.65-3.02-2.95-5.27h5.4c.45,1.89,1.77,2.83,3.96,2.83,2.88,0,4.32-1.63,4.32-4.9Zm0-5.9v-6.57c-.84-1.38-2.1-2.07-3.78-2.07-1.47,0-2.62,.5-3.46,1.48-.84,.99-1.26,2.28-1.26,3.87s.42,2.89,1.26,3.89c.84,1.01,2,1.51,3.46,1.51,.81,0,1.55-.2,2.23-.61,.68-.41,1.19-.91,1.55-1.51Z"/>
    <path class="cls-2" d="M437.04,678.08c0,.93-.32,1.7-.97,2.29-.65,.6-1.42,.9-2.32,.9s-1.72-.3-2.36-.9c-.65-.6-.97-1.37-.97-2.29s.33-1.66,.99-2.27c.66-.61,1.44-.92,2.34-.92s1.67,.31,2.32,.92c.65,.62,.97,1.37,.97,2.27Zm-.5,5.8v20.12h-5.58v-20.12h5.58Z"/>
    <path class="cls-2" d="M442.62,697.92v-9.54h-3.06v-4.5h3.06v-5.44h5.54v5.44h4.41v4.5h-4.41v8.82c0,1.53,.77,2.29,2.29,2.29,.93,0,1.74-.22,2.43-.67v4.95c-.78,.42-1.98,.63-3.6,.63-2.1,0-3.73-.54-4.9-1.62s-1.76-2.7-1.76-4.86Z"/>
    <path class="cls-2" d="M473.13,704h-5.36v-1.08c-.36,.36-1,.69-1.93,.99-.93,.3-1.92,.45-2.97,.45-2.13,0-3.91-.58-5.33-1.75-1.42-1.17-2.14-2.76-2.14-4.77,0-1.89,.74-3.43,2.23-4.63s3.34-1.8,5.56-1.8c.84,0,1.71,.12,2.61,.36,.9,.24,1.56,.51,1.98,.81v-1.49c0-.9-.28-1.64-.83-2.23-.56-.58-1.37-.88-2.45-.88-1.5,0-2.49,.63-2.97,1.89h-5.31c.3-1.86,1.22-3.4,2.77-4.61,1.54-1.21,3.44-1.82,5.69-1.82,2.67,0,4.75,.68,6.23,2.05,1.48,1.37,2.23,3.26,2.23,5.69v12.83Zm-5.36-5.49v-1.44c-.24-.54-.7-.97-1.37-1.28-.67-.31-1.43-.47-2.27-.47-.96,0-1.79,.21-2.5,.63s-1.06,1.04-1.06,1.84,.34,1.42,1.04,1.84c.69,.42,1.53,.63,2.52,.63,.84,0,1.6-.16,2.27-.47,.67-.32,1.13-.74,1.37-1.28Z"/>
    <path class="cls-2" d="M483.25,674.75v29.25h-5.58v-29.25h5.58Z"/>
    <path class="cls-2" d="M503.23,702.33v9.09h-5.58v-27.54h5.58v1.67c.48-.57,1.18-1.06,2.12-1.48,.93-.42,1.9-.63,2.92-.63,2.82,0,5.05,1.01,6.71,3.04,1.65,2.02,2.48,4.52,2.48,7.49s-.83,5.46-2.48,7.47c-1.65,2.01-3.89,3.02-6.71,3.02-1.02,0-2-.21-2.92-.63-.93-.42-1.64-.92-2.12-1.49Zm0-11.7v6.62c.33,.69,.84,1.25,1.53,1.69,.69,.44,1.44,.65,2.25,.65,1.47,0,2.64-.52,3.51-1.58,.87-1.05,1.31-2.4,1.31-4.05s-.44-3.01-1.31-4.07c-.87-1.06-2.04-1.6-3.51-1.6-.81,0-1.55,.22-2.23,.65-.67,.44-1.19,1-1.55,1.69Z"/>
    <path class="cls-2" d="M533.2,683.79v5.58c-.75-.45-1.68-.67-2.79-.67-.96,0-1.79,.25-2.47,.74-.69,.5-1.14,1.19-1.35,2.09v12.46h-5.58v-20.12h5.58v1.98c.96-1.62,2.46-2.43,4.5-2.43,.99,0,1.69,.12,2.12,.36Z"/>
    <path class="cls-2" d="M554.76,693.96c0,3.09-.92,5.61-2.75,7.56s-4.2,2.92-7.11,2.92-5.28-.97-7.11-2.92c-1.83-1.95-2.75-4.47-2.75-7.56s.92-5.65,2.75-7.6c1.83-1.95,4.2-2.93,7.11-2.93s5.28,.98,7.11,2.93,2.75,4.49,2.75,7.6Zm-5.54,0c0-1.74-.38-3.14-1.15-4.21-.76-1.06-1.82-1.6-3.17-1.6s-2.41,.53-3.17,1.6-1.15,2.47-1.15,4.21,.38,3.1,1.15,4.16c.76,1.06,1.82,1.6,3.17,1.6s2.41-.53,3.17-1.6c.77-1.07,1.15-2.45,1.15-4.16Z"/>
    <path class="cls-2" d="M576.94,693.96c0,3.09-.92,5.61-2.75,7.56s-4.2,2.92-7.11,2.92-5.28-.97-7.11-2.92c-1.83-1.95-2.75-4.47-2.75-7.56s.92-5.65,2.75-7.6c1.83-1.95,4.2-2.93,7.11-2.93s5.28,.98,7.11,2.93,2.75,4.49,2.75,7.6Zm-5.54,0c0-1.74-.38-3.14-1.15-4.21-.76-1.06-1.82-1.6-3.17-1.6s-2.41,.53-3.17,1.6-1.15,2.47-1.15,4.21,.38,3.1,1.15,4.16c.76,1.06,1.82,1.6,3.17,1.6s2.41-.53,3.17-1.6c.77-1.07,1.15-2.45,1.15-4.16Z"/>
    <path class="cls-2" d="M592.29,674.88v4.73c-.51-.36-1.17-.54-1.98-.54-1.83,0-2.75,.93-2.75,2.79v2.02h4.18v4.5h-4.18v15.62h-5.49v-15.62h-3.29v-4.5h3.29v-2.38c0-2.25,.64-4,1.94-5.26,1.29-1.26,3.01-1.89,5.17-1.89,1.26,0,2.29,.18,3.1,.54Z"/>
  </g>
  <g>
    <path class="cls-2" d="M433.89,291.09v-5.04h23.58v5.04h-8.91v22.59h-5.8v-22.59h-8.87Z"/>
    <path class="cls-2" d="M474.52,313.68h-5.36v-1.08c-.36,.36-1,.69-1.93,.99-.93,.3-1.92,.45-2.97,.45-2.13,0-3.91-.58-5.33-1.75-1.42-1.17-2.14-2.76-2.14-4.77,0-1.89,.74-3.43,2.23-4.63s3.34-1.8,5.56-1.8c.84,0,1.71,.12,2.61,.36,.9,.24,1.56,.51,1.98,.81v-1.49c0-.9-.28-1.64-.83-2.23-.56-.58-1.37-.88-2.45-.88-1.5,0-2.49,.63-2.97,1.89h-5.31c.3-1.86,1.22-3.4,2.77-4.61,1.54-1.21,3.44-1.82,5.69-1.82,2.67,0,4.75,.68,6.23,2.05,1.48,1.37,2.23,3.26,2.23,5.69v12.83Zm-5.36-5.49v-1.44c-.24-.54-.7-.97-1.37-1.28-.67-.31-1.43-.47-2.27-.47-.96,0-1.79,.21-2.5,.63s-1.06,1.04-1.06,1.84,.34,1.42,1.04,1.84c.69,.42,1.53,.63,2.52,.63,.84,0,1.6-.16,2.27-.47,.67-.32,1.13-.74,1.37-1.28Z"/>
    <path class="cls-2" d="M477.76,307.7h5.54c.45,1.47,1.58,2.21,3.38,2.21,1.89,0,2.83-.66,2.83-1.98,0-.45-.16-.8-.47-1.06s-.83-.47-1.55-.65l-4.05-.9c-3.48-.81-5.22-2.7-5.22-5.67,0-1.92,.76-3.49,2.29-4.7s3.43-1.82,5.71-1.82c2.49,0,4.45,.55,5.87,1.64,1.42,1.1,2.32,2.62,2.68,4.57h-5.31c-.42-1.32-1.47-1.98-3.15-1.98-.72,0-1.34,.17-1.87,.5-.53,.33-.79,.79-.79,1.39,0,.75,.6,1.28,1.8,1.58l4.14,.95c3.57,.87,5.36,2.82,5.36,5.85,0,2.01-.77,3.6-2.32,4.77s-3.52,1.75-5.92,1.75-4.53-.56-6.12-1.69c-1.59-1.12-2.54-2.71-2.83-4.75Z"/>
    <path class="cls-2" d="M511.83,313.68l-5.9-8.1-1.62,1.75v6.34h-5.58v-29.25h5.58v16.61l6.88-7.47h6.93l-8.15,8.55,8.46,11.57h-6.61Z"/>
    <path class="cls-2" d="M529.46,303.65c0-3.12,.9-5.65,2.7-7.6s4.12-2.93,6.97-2.93c2.46,0,4.47,.66,6.03,1.98,1.56,1.32,2.49,3.08,2.79,5.26h-5.49c-.15-.78-.52-1.39-1.1-1.82-.58-.43-1.33-.65-2.23-.65-1.26,0-2.27,.53-3.01,1.58-.75,1.05-1.12,2.45-1.12,4.18s.38,3.09,1.12,4.14c.75,1.05,1.75,1.57,3.01,1.57,.9,0,1.64-.22,2.23-.65,.58-.43,.95-1.04,1.1-1.82h5.49c-.3,2.19-1.22,3.95-2.77,5.26-1.55,1.32-3.56,1.98-6.05,1.98-2.85,0-5.17-.97-6.97-2.92s-2.7-4.47-2.7-7.56Z"/>
    <path class="cls-2" d="M569.87,303.65c0,3.09-.92,5.61-2.75,7.56s-4.2,2.92-7.11,2.92-5.28-.97-7.11-2.92c-1.83-1.95-2.75-4.47-2.75-7.56s.92-5.65,2.75-7.6c1.83-1.95,4.2-2.93,7.11-2.93s5.28,.98,7.11,2.93,2.75,4.49,2.75,7.6Zm-5.54,0c0-1.74-.38-3.14-1.15-4.21-.76-1.06-1.82-1.6-3.17-1.6s-2.41,.53-3.17,1.6-1.15,2.47-1.15,4.21,.38,3.1,1.15,4.16c.76,1.06,1.82,1.6,3.17,1.6s2.41-.53,3.17-1.6c.77-1.07,1.15-2.45,1.15-4.16Z"/>
    <path class="cls-2" d="M589.49,295.68c1.56-1.71,3.58-2.57,6.08-2.57,2.07,0,3.69,.67,4.86,2s1.75,3.14,1.75,5.42v13.14h-5.58v-11.97c0-1.11-.25-1.99-.74-2.63-.5-.64-1.21-.97-2.14-.97-.75,0-1.41,.23-1.98,.68-.57,.45-.95,1.09-1.12,1.93v12.96h-5.62v-11.97c0-2.4-.95-3.6-2.83-3.6-.75,0-1.42,.23-2,.7s-.97,1.1-1.15,1.91v12.96h-5.58v-20.12h5.58v1.67c1.11-1.41,2.8-2.12,5.08-2.12s4.11,.86,5.4,2.57Z"/>
    <path class="cls-2" d="M612.4,312.02v9.09h-5.58v-27.54h5.58v1.67c.48-.57,1.18-1.06,2.12-1.48,.93-.42,1.9-.63,2.92-.63,2.82,0,5.05,1.01,6.71,3.04,1.65,2.02,2.48,4.52,2.48,7.49s-.83,5.46-2.48,7.47c-1.65,2.01-3.89,3.02-6.71,3.02-1.02,0-2-.21-2.92-.63-.93-.42-1.64-.92-2.12-1.49Zm0-11.7v6.62c.33,.69,.84,1.25,1.53,1.69,.69,.44,1.44,.65,2.25,.65,1.47,0,2.64-.52,3.51-1.58,.87-1.05,1.31-2.4,1.31-4.05s-.44-3.01-1.31-4.07c-.87-1.06-2.04-1.6-3.51-1.6-.81,0-1.55,.22-2.23,.65-.67,.44-1.19,1-1.55,1.69Z"/>
    <path class="cls-2" d="M635.75,284.43v29.25h-5.58v-29.25h5.58Z"/>
    <path class="cls-2" d="M652.85,307.11h5.17c-.36,2.19-1.31,3.91-2.86,5.15-1.54,1.25-3.56,1.87-6.05,1.87-2.91,0-5.26-.97-7.06-2.9-1.8-1.94-2.7-4.46-2.7-7.58s.91-5.54,2.72-7.54c1.81-2,4.13-2.99,6.95-2.99s5.12,.91,6.73,2.72c1.6,1.82,2.41,4.24,2.41,7.27v1.71h-13.41c.09,1.5,.52,2.68,1.3,3.53,.78,.85,1.8,1.28,3.06,1.28,2.04,0,3.29-.84,3.74-2.52Zm-3.78-9.45c-2.28,0-3.67,1.26-4.18,3.78h7.79c-.03-1.11-.36-2.02-.99-2.72-.63-.7-1.5-1.06-2.61-1.06Z"/>
    <path class="cls-2" d="M662.93,307.61v-9.54h-3.06v-4.5h3.06v-5.44h5.54v5.44h4.41v4.5h-4.41v8.82c0,1.53,.77,2.29,2.29,2.29,.93,0,1.74-.22,2.43-.67v4.95c-.78,.42-1.98,.63-3.6,.63-2.1,0-3.73-.54-4.9-1.62s-1.76-2.7-1.76-4.86Z"/>
    <path class="cls-2" d="M689.3,307.11h5.17c-.36,2.19-1.31,3.91-2.86,5.15-1.54,1.25-3.56,1.87-6.05,1.87-2.91,0-5.26-.97-7.06-2.9-1.8-1.94-2.7-4.46-2.7-7.58s.91-5.54,2.72-7.54c1.81-2,4.13-2.99,6.95-2.99s5.12,.91,6.73,2.72c1.6,1.82,2.41,4.24,2.41,7.27v1.71h-13.41c.09,1.5,.52,2.68,1.3,3.53,.78,.85,1.8,1.28,3.06,1.28,2.04,0,3.29-.84,3.74-2.52Zm-3.78-9.45c-2.28,0-3.67,1.26-4.18,3.78h7.79c-.03-1.11-.36-2.02-.99-2.72-.63-.7-1.5-1.06-2.61-1.06Z"/>
    <path class="cls-2" d="M711.26,313.68v-1.67c-.48,.57-1.19,1.07-2.11,1.49-.93,.42-1.91,.63-2.93,.63-2.82,0-5.05-1-6.68-2.99-1.63-1.99-2.45-4.49-2.45-7.49s.82-5.5,2.45-7.51,3.86-3.02,6.68-3.02c1.02,0,2,.21,2.93,.63,.93,.42,1.63,.92,2.11,1.48v-10.8h5.62v29.25h-5.62Zm0-6.75v-6.62c-.33-.69-.84-1.25-1.53-1.69-.69-.43-1.44-.65-2.25-.65-1.47,0-2.64,.53-3.51,1.6-.87,1.07-1.3,2.42-1.3,4.07s.43,3,1.3,4.05c.87,1.05,2.04,1.58,3.51,1.58,.84,0,1.6-.22,2.27-.65,.67-.43,1.18-1,1.51-1.69Z"/>
    <path class="cls-2" d="M497.04,366.11h-5.49l2.92-7.33-7.7-20.21h5.9l4.63,13.37,4.59-13.37h5.62l-10.49,27.54Z"/>
    <path class="cls-2" d="M522.15,352.11h5.17c-.36,2.19-1.31,3.91-2.86,5.15-1.54,1.25-3.56,1.87-6.05,1.87-2.91,0-5.26-.97-7.06-2.9-1.8-1.94-2.7-4.46-2.7-7.58s.91-5.54,2.72-7.54c1.81-2,4.13-2.99,6.95-2.99s5.12,.91,6.73,2.72c1.6,1.82,2.41,4.24,2.41,7.27v1.71h-13.41c.09,1.5,.52,2.68,1.3,3.53,.78,.85,1.8,1.28,3.06,1.28,2.04,0,3.29-.84,3.74-2.52Zm-3.78-9.45c-2.28,0-3.67,1.26-4.18,3.78h7.79c-.03-1.11-.36-2.02-.99-2.72-.63-.7-1.5-1.06-2.61-1.06Z"/>
    <path class="cls-2" d="M529.76,352.7h5.54c.45,1.47,1.58,2.21,3.38,2.21,1.89,0,2.83-.66,2.83-1.98,0-.45-.16-.8-.47-1.06s-.83-.47-1.55-.65l-4.05-.9c-3.48-.81-5.22-2.7-5.22-5.67,0-1.92,.76-3.49,2.29-4.7s3.43-1.82,5.71-1.82c2.49,0,4.45,.55,5.87,1.64,1.42,1.1,2.32,2.62,2.68,4.57h-5.31c-.42-1.32-1.47-1.98-3.15-1.98-.72,0-1.34,.17-1.87,.5-.53,.33-.79,.79-.79,1.39,0,.75,.6,1.28,1.8,1.58l4.14,.95c3.57,.87,5.36,2.82,5.36,5.85,0,2.01-.77,3.6-2.32,4.77s-3.52,1.75-5.92,1.75-4.53-.56-6.12-1.69c-1.59-1.12-2.54-2.71-2.83-4.75Z"/>
    <path class="cls-2" d="M551.94,352.61v-9.54h-3.06v-4.5h3.06v-5.44h5.54v5.44h4.41v4.5h-4.41v8.82c0,1.53,.77,2.29,2.29,2.29,.93,0,1.74-.22,2.43-.67v4.95c-.78,.42-1.98,.63-3.6,.63-2.1,0-3.73-.54-4.9-1.62s-1.76-2.7-1.76-4.86Z"/>
    <path class="cls-2" d="M578.31,352.11h5.17c-.36,2.19-1.31,3.91-2.86,5.15-1.54,1.25-3.56,1.87-6.05,1.87-2.91,0-5.26-.97-7.06-2.9-1.8-1.94-2.7-4.46-2.7-7.58s.91-5.54,2.72-7.54c1.81-2,4.13-2.99,6.95-2.99s5.12,.91,6.73,2.72c1.6,1.82,2.41,4.24,2.41,7.27v1.71h-13.41c.09,1.5,.52,2.68,1.3,3.53,.78,.85,1.8,1.28,3.06,1.28,2.04,0,3.29-.84,3.74-2.52Zm-3.78-9.45c-2.28,0-3.67,1.26-4.18,3.78h7.79c-.03-1.11-.36-2.02-.99-2.72-.63-.7-1.5-1.06-2.61-1.06Z"/>
    <path class="cls-2" d="M599.37,338.48v5.58c-.75-.45-1.68-.67-2.79-.67-.96,0-1.79,.25-2.47,.74-.69,.5-1.14,1.19-1.35,2.09v12.46h-5.58v-20.12h5.58v1.98c.96-1.62,2.46-2.43,4.5-2.43,.99,0,1.69,.12,2.12,.36Z"/>
    <path class="cls-2" d="M615.39,358.68v-1.67c-.48,.57-1.19,1.07-2.11,1.49-.93,.42-1.91,.63-2.93,.63-2.82,0-5.05-1-6.68-2.99-1.63-1.99-2.45-4.49-2.45-7.49s.82-5.5,2.45-7.51,3.86-3.02,6.68-3.02c1.02,0,2,.21,2.93,.63,.93,.42,1.63,.92,2.11,1.48v-10.8h5.62v29.25h-5.62Zm0-6.75v-6.62c-.33-.69-.84-1.25-1.53-1.69-.69-.43-1.44-.65-2.25-.65-1.47,0-2.64,.53-3.51,1.6-.87,1.07-1.3,2.42-1.3,4.07s.43,3,1.3,4.05c.87,1.05,2.04,1.58,3.51,1.58,.84,0,1.6-.22,2.27-.65,.67-.43,1.18-1,1.51-1.69Z"/>
    <path class="cls-2" d="M642.35,358.68h-5.36v-1.08c-.36,.36-1,.69-1.93,.99-.93,.3-1.92,.45-2.97,.45-2.13,0-3.91-.58-5.33-1.75-1.42-1.17-2.14-2.76-2.14-4.77,0-1.89,.74-3.43,2.23-4.63s3.34-1.8,5.56-1.8c.84,0,1.71,.12,2.61,.36,.9,.24,1.56,.51,1.98,.81v-1.49c0-.9-.28-1.64-.83-2.23-.56-.58-1.37-.88-2.45-.88-1.5,0-2.49,.63-2.97,1.89h-5.31c.3-1.86,1.22-3.4,2.77-4.61,1.54-1.21,3.44-1.82,5.69-1.82,2.67,0,4.75,.68,6.23,2.05,1.48,1.37,2.23,3.26,2.23,5.69v12.83Zm-5.36-5.49v-1.44c-.24-.54-.7-.97-1.37-1.28-.67-.31-1.43-.47-2.27-.47-.96,0-1.79,.21-2.5,.63s-1.06,1.04-1.06,1.84,.34,1.42,1.04,1.84c.69,.42,1.53,.63,2.52,.63,.84,0,1.6-.16,2.27-.47,.67-.32,1.13-.74,1.37-1.28Z"/>
    <path class="cls-2" d="M654.72,366.11h-5.49l2.92-7.33-7.7-20.21h5.9l4.63,13.37,4.59-13.37h5.62l-10.49,27.54Z"/>
  </g>
  <path class="cls-2" d="M873,402H279c-13.23,0-24-10.77-24-24v-108c0-13.23,10.77-24,24-24H873c13.23,0,24,10.77,24,24v108c0,13.23-10.77,24-24,24ZM279,258c-6.62,0-12,5.38-12,12v108c0,6.62,5.38,12,12,12H873c6.62,0,12-5.38,12-12v-108c0-6.62-5.38-12-12-12H279Z"/>
  <path class="cls-2" d="M873,762H279c-13.23,0-24-10.77-24-24v-198c0-13.23,10.77-24,24-24H873c13.23,0,24,10.77,24,24v198c0,13.23-10.77,24-24,24Zm-594-234c-6.62,0-12,5.38-12,12v198c0,6.62,5.38,12,12,12H873c6.62,0,12-5.38,12-12v-198c0-6.62-5.38-12-12-12H279Z"/>
  <path class="cls-1" d="M592.37,717.89H298.21c-.83,0-1.5-.67-1.5-1.5s.67-1.5,1.5-1.5h294.17c.83,0,1.5,.67,1.5,1.5s-.67,1.5-1.5,1.5Z"/>
</svg>