<svg id="OUTLINES" xmlns="http://www.w3.org/2000/svg" viewBox="0 0 1152 1008"><defs><style>.cls-1{fill:#fff;}.cls-2{fill:#000f7d;}</style></defs><title>proximity-sharing</title><rect class="cls-1" x="616.49" y="482.1" width="432" height="99" rx="18"/><path class="cls-1" d="M1030.49,587.1h-396a24,24,0,0,1-24-24v-63a24,24,0,0,1,24-24h396a24,24,0,0,1,24,24v63A24,24,0,0,1,1030.49,587.1Zm-396-99a12,12,0,0,0-12,12v63a12,12,0,0,0,12,12h396a12,12,0,0,0,12-12v-63a12,12,0,0,0-12-12Z"/><path class="cls-2" d="M1066.3,847.94a5,5,0,0,1-5-5V709.7a139.56,139.56,0,0,0-41.16-99.36l-30.25-30.26A5,5,0,0,1,997,573l30.25,30.26A149.5,149.5,0,0,1,1071.3,709.7V842.94A5,5,0,0,1,1066.3,847.94Z"/><path class="cls-2" d="M868.9,851.5a5,5,0,0,1-5-5V823A77.9,77.9,0,0,1,823,754.19V723.58a5,5,0,0,1,10,0v30.61a68,68,0,0,0,38.12,61.33A5,5,0,0,1,873.9,820v26.5A5,5,0,0,1,868.9,851.5Z"/><path class="cls-2" d="M828,694a23,23,0,1,1,23-23A23,23,0,0,1,828,694Zm0-36a13,13,0,1,0,13,13A13,13,0,0,0,828,658Z"/><path class="cls-2" d="M938,823a5,5,0,0,1-3.79-1.74,78.35,78.35,0,0,1-2.79-98.85l-60.29-67a38.59,38.59,0,0,1,28.26-64.88h.48a5,5,0,0,1,3.46,1.46L1009.9,698.6a5,5,0,0,1-7.07,7.07L897.77,600.6a28.59,28.59,0,0,0-19.28,48.07l63.22,70.22a5,5,0,0,1,.07,6.61,68.37,68.37,0,0,0,0,89.22A5,5,0,0,1,938,823Z"/><path class="cls-2" d="M972,338.55H684a5,5,0,0,1-5-5V234.5a23,23,0,0,1,23-23H954a23,23,0,0,1,23,23v99.05A5,5,0,0,1,972,338.55Zm-283-10H967V234.5a13,13,0,0,0-13-13H702a13,13,0,0,0-13,13Z"/><path class="cls-2" d="M936.44,725.5H702a23,23,0,0,1-23-23v-126a5,5,0,0,1,5-5H972a5,5,0,0,1,5,5v91.21a5,5,0,0,1-8.53,3.54l-33.23-33.2-37.51-37.5a28.6,28.6,0,0,0-19.23,48.07l61.66,68.48a5,5,0,0,1-3.71,8.35ZM689,581.55v121a13,13,0,0,0,13,13H925.21l-54.08-60.06a38.59,38.59,0,0,1,28.26-64.88,6.34,6.34,0,0,1,1,.08,5,5,0,0,1,3,1.43c12.44,12.45,25.92,25.92,39,38.95L967,655.69V581.55Zm211,9.06Zm-.07,0h0Zm0,0h0Z"/><path class="cls-2" d="M1026,483.55H630a24,24,0,0,1-24-24v-108a24,24,0,0,1,24-24h396a24,24,0,0,1,24,24v108A24,24,0,0,1,1026,483.55Zm-396-144a12,12,0,0,0-12,12v108a12,12,0,0,0,12,12h396a12,12,0,0,0,12-12v-108a12,12,0,0,0-12-12Z"/><path class="cls-2" d="M1026,582.55H630a24,24,0,0,1-24-24v-63a24,24,0,0,1,24-24h396a24,24,0,0,1,24,24v63A24,24,0,0,1,1026,582.55Zm-396-99a12,12,0,0,0-12,12v63a12,12,0,0,0,12,12h396a12,12,0,0,0,12-12v-63a12,12,0,0,0-12-12Z"/><path class="cls-2" d="M685,532.67H691q1.13,3.55,5.49,3.56a5.61,5.61,0,0,0,3.37-.92,3,3,0,0,0,1.26-2.55,2.52,2.52,0,0,0-.78-2,5.65,5.65,0,0,0-2.59-1.13l-5-1.12q-7-1.59-7-7.57a7.7,7.7,0,0,1,2.79-6.12,10.61,10.61,0,0,1,7.15-2.38,11.58,11.58,0,0,1,7.36,2.18,9.51,9.51,0,0,1,3.49,5.83h-5.72q-1.12-3.29-5.08-3.29a5.25,5.25,0,0,0-3.17.88,2.78,2.78,0,0,0-1.2,2.36q0,2.3,3.11,3l5,1.17q7.25,1.67,7.24,7.78a7.66,7.66,0,0,1-2.88,6.26A11.33,11.33,0,0,1,696.5,541a12.81,12.81,0,0,1-7.69-2.21A9.29,9.29,0,0,1,685,532.67Z"/><path class="cls-2" d="M710.54,540.55V511.3h5.58v11a7.64,7.64,0,0,1,10.65-.27,7.67,7.67,0,0,1,1.86,5.4v13.14h-5.58v-12a3.87,3.87,0,0,0-.83-2.59,3.08,3.08,0,0,0-2.45-1,3.81,3.81,0,0,0-2.32.75,3.43,3.43,0,0,0-1.33,2v12.74Z"/><path class="cls-2" d="M749.78,540.55h-5.35v-1.08a5,5,0,0,1-1.94,1,9.62,9.62,0,0,1-3,.45,8.11,8.11,0,0,1-5.33-1.76,5.86,5.86,0,0,1-2.14-4.77,5.67,5.67,0,0,1,2.23-4.63,8.57,8.57,0,0,1,5.56-1.8,10.12,10.12,0,0,1,2.61.36,6.34,6.34,0,0,1,2,.81v-1.49a3.1,3.1,0,0,0-.83-2.22,3.23,3.23,0,0,0-2.46-.88,2.86,2.86,0,0,0-3,1.89h-5.31a7.12,7.12,0,0,1,2.77-4.61,10.15,10.15,0,0,1,11.93.22,7.36,7.36,0,0,1,2.22,5.69Zm-5.35-5.49v-1.44a2.62,2.62,0,0,0-1.37-1.28,5.29,5.29,0,0,0-2.28-.47,4.81,4.81,0,0,0-2.5.62,2.16,2.16,0,0,0,0,3.69,4.67,4.67,0,0,0,2.52.63,5.29,5.29,0,0,0,2.28-.47A2.62,2.62,0,0,0,744.43,535.06Z"/><path class="cls-2" d="M766.52,520.34v5.58a5.34,5.34,0,0,0-2.79-.67,4.15,4.15,0,0,0-2.47.74,3.44,3.44,0,0,0-1.35,2.09v12.47h-5.58V520.43h5.58v2a4.86,4.86,0,0,1,4.5-2.43A4.64,4.64,0,0,1,766.52,520.34Z"/><path class="cls-2" d="M781.87,534H787a8,8,0,0,1-2.85,5.15,9.35,9.35,0,0,1-6.06,1.87,9.21,9.21,0,0,1-7.06-2.9,11.9,11.9,0,0,1,0-15.12,9,9,0,0,1,6.95-3,8.51,8.51,0,0,1,6.73,2.73,10.59,10.59,0,0,1,2.41,7.26v1.71H773.77a5.57,5.57,0,0,0,1.3,3.54,4,4,0,0,0,3.06,1.28Q781.19,536.5,781.87,534Zm-3.78-9.45q-3.42,0-4.19,3.78h7.79a4.09,4.09,0,0,0-1-2.72A3.31,3.31,0,0,0,778.09,524.53Z"/><path class="cls-2" d="M805.85,538.88V548h-5.58V520.43h5.58v1.67a5.89,5.89,0,0,1,2.12-1.48,7,7,0,0,1,2.92-.64,8.22,8.22,0,0,1,6.71,3,12.56,12.56,0,0,1,0,15,8.23,8.23,0,0,1-6.71,3,7,7,0,0,1-2.92-.63A5.78,5.78,0,0,1,805.85,538.88Zm0-11.7v6.62a4.07,4.07,0,0,0,1.53,1.69,4.18,4.18,0,0,0,2.25.65,4.3,4.3,0,0,0,3.51-1.58,6.14,6.14,0,0,0,1.31-4,6.25,6.25,0,0,0-1.31-4.07,4.31,4.31,0,0,0-3.51-1.6,4,4,0,0,0-2.23.66A4.39,4.39,0,0,0,805.85,527.18Z"/><path class="cls-2" d="M840.19,540.55h-5.36v-1.08a4.93,4.93,0,0,1-1.93,1,9.62,9.62,0,0,1-3,.45,8.16,8.16,0,0,1-5.34-1.76,5.85,5.85,0,0,1-2.13-4.77,5.69,5.69,0,0,1,2.22-4.63,8.57,8.57,0,0,1,5.56-1.8,10.12,10.12,0,0,1,2.61.36,6.34,6.34,0,0,1,2,.81v-1.49a3.1,3.1,0,0,0-.83-2.22,3.21,3.21,0,0,0-2.45-.88,2.86,2.86,0,0,0-3,1.89h-5.31a7.15,7.15,0,0,1,2.76-4.61A10.15,10.15,0,0,1,838,522a7.37,7.37,0,0,1,2.23,5.69Zm-5.36-5.49v-1.44a2.62,2.62,0,0,0-1.37-1.28,5.24,5.24,0,0,0-2.27-.47,4.78,4.78,0,0,0-2.5.62,2.15,2.15,0,0,0,0,3.69,4.67,4.67,0,0,0,2.52.63,5.24,5.24,0,0,0,2.27-.47A2.62,2.62,0,0,0,834.83,535.06Z"/><path class="cls-2" d="M843.43,534.56H849c.45,1.48,1.58,2.21,3.38,2.21s2.83-.66,2.83-2a1.31,1.31,0,0,0-.47-1.06,4.24,4.24,0,0,0-1.55-.65l-4-.9q-5.22-1.21-5.22-5.67a5.72,5.72,0,0,1,2.29-4.7,8.89,8.89,0,0,1,5.72-1.83,9.39,9.39,0,0,1,5.87,1.65,7.16,7.16,0,0,1,2.68,4.56h-5.31c-.42-1.31-1.47-2-3.15-2a3.44,3.44,0,0,0-1.87.5,1.55,1.55,0,0,0-.79,1.39c0,.76.6,1.28,1.8,1.58l4.14.94c3.57.87,5.36,2.83,5.36,5.85a5.68,5.68,0,0,1-2.32,4.77,9.55,9.55,0,0,1-5.92,1.76,10.32,10.32,0,0,1-6.12-1.69A6.73,6.73,0,0,1,843.43,534.56Z"/><path class="cls-2" d="M863.09,534.56h5.54c.45,1.48,1.57,2.21,3.37,2.21s2.84-.66,2.84-2a1.29,1.29,0,0,0-.48-1.06,4.16,4.16,0,0,0-1.55-.65l-4-.9q-5.22-1.21-5.22-5.67a5.73,5.73,0,0,1,2.3-4.7,8.86,8.86,0,0,1,5.71-1.83,9.37,9.37,0,0,1,5.87,1.65,7.12,7.12,0,0,1,2.68,4.56h-5.31c-.42-1.31-1.47-2-3.15-2a3.46,3.46,0,0,0-1.87.5,1.56,1.56,0,0,0-.79,1.39c0,.76.61,1.28,1.81,1.58l4.14.94c3.56.87,5.35,2.83,5.35,5.85a5.65,5.65,0,0,1-2.32,4.77,9.52,9.52,0,0,1-5.91,1.76,10.32,10.32,0,0,1-6.12-1.69A6.71,6.71,0,0,1,863.09,534.56Z"/><path class="cls-2" d="M898.37,520.43l3.33,12.83,3.6-12.83h5.4l-6.12,20.12h-5.13l-3.28-12.33-3.29,12.33h-5.13l-6.12-20.12h5.58l3.6,12.83,3.29-12.83Z"/><path class="cls-2" d="M931.94,530.51a10.58,10.58,0,0,1-2.74,7.56,10.09,10.09,0,0,1-14.22,0,11.82,11.82,0,0,1,0-15.16,10.09,10.09,0,0,1,14.22,0A10.65,10.65,0,0,1,931.94,530.51Zm-5.53,0a7.08,7.08,0,0,0-1.15-4.2,4,4,0,0,0-6.35,0,8.25,8.25,0,0,0,0,8.37,4,4,0,0,0,6.35,0A7,7,0,0,0,926.41,530.51Z"/><path class="cls-2" d="M947.69,520.34v5.58a5.34,5.34,0,0,0-2.79-.67,4.15,4.15,0,0,0-2.47.74,3.44,3.44,0,0,0-1.35,2.09v12.47H935.5V520.43h5.58v2a4.86,4.86,0,0,1,4.5-2.43A4.64,4.64,0,0,1,947.69,520.34Z"/><path class="cls-2" d="M963.71,540.55v-1.67a5.74,5.74,0,0,1-2.11,1.49,7.05,7.05,0,0,1-2.93.63,8.18,8.18,0,0,1-6.68-3,12.72,12.72,0,0,1,0-15,8.15,8.15,0,0,1,6.68-3,7.06,7.06,0,0,1,2.93.64,5.84,5.84,0,0,1,2.11,1.48V511.3h5.63v29.25Zm0-6.75v-6.62a4,4,0,0,0-1.53-1.68,4.1,4.1,0,0,0-2.25-.66,4.31,4.31,0,0,0-3.51,1.6,6.25,6.25,0,0,0-1.3,4.07,6.13,6.13,0,0,0,1.3,4,4.3,4.3,0,0,0,3.51,1.58,4.17,4.17,0,0,0,3.78-2.34Z"/><path class="cls-2" d="M658.73,387.78h5.94q.36,4,4.05,4c2.85,0,4.27-1.75,4.27-5.27V368.92h5.76v17.64c0,3.42-.9,6-2.7,7.78a10,10,0,0,1-17.32-6.56Z"/><path class="cls-2" d="M701.84,386.51a10.59,10.59,0,0,1-2.75,7.56,10.09,10.09,0,0,1-14.22,0,11.85,11.85,0,0,1,0-15.16,10.09,10.09,0,0,1,14.22,0A10.65,10.65,0,0,1,701.84,386.51Zm-5.54,0a7,7,0,0,0-1.15-4.2,3.94,3.94,0,0,0-6.34,0,8.19,8.19,0,0,0,0,8.37,3.94,3.94,0,0,0,6.34,0A7,7,0,0,0,696.3,386.51Z"/><path class="cls-2" d="M705.39,396.55V367.3H711v11a7.63,7.63,0,0,1,10.64-.27,7.63,7.63,0,0,1,1.87,5.4v13.14H717.9v-12a3.87,3.87,0,0,0-.83-2.59,3.07,3.07,0,0,0-2.45-1,3.78,3.78,0,0,0-2.32.74,3.43,3.43,0,0,0-1.33,2v12.74Z"/><path class="cls-2" d="M728.12,396.55V376.43h5.58v1.85a7.63,7.63,0,0,1,10.64-.27,7.68,7.68,0,0,1,1.87,5.4v13.14h-5.58v-12a3.82,3.82,0,0,0-.84-2.59,3.06,3.06,0,0,0-2.45-1,3.8,3.8,0,0,0-2.32.74,3.46,3.46,0,0,0-1.32,2v12.74Z"/><path class="cls-2" d="M775.28,376.43l3.33,12.83,3.6-12.83h5.4l-6.12,20.12h-5.13l-3.29-12.33-3.28,12.33h-5.13l-6.12-20.12h5.58l3.6,12.83L771,376.43Z"/><path class="cls-2" d="M806.6,396.55h-5.36v-1.08a4.93,4.93,0,0,1-1.93,1,9.62,9.62,0,0,1-3,.45,8.16,8.16,0,0,1-5.34-1.76,5.85,5.85,0,0,1-2.13-4.77,5.69,5.69,0,0,1,2.22-4.63,8.57,8.57,0,0,1,5.56-1.8,10.12,10.12,0,0,1,2.61.36,6.34,6.34,0,0,1,2,.81v-1.49a3.1,3.1,0,0,0-.83-2.22,3.21,3.21,0,0,0-2.45-.88,2.86,2.86,0,0,0-3,1.89h-5.31a7.15,7.15,0,0,1,2.76-4.61,10.15,10.15,0,0,1,11.93.22,7.37,7.37,0,0,1,2.23,5.69Zm-5.36-5.49v-1.44a2.62,2.62,0,0,0-1.37-1.28,5.24,5.24,0,0,0-2.27-.47,4.88,4.88,0,0,0-2.5.62,2.15,2.15,0,0,0,0,3.69,4.67,4.67,0,0,0,2.52.63,5.24,5.24,0,0,0,2.27-.47A2.62,2.62,0,0,0,801.24,391.06Z"/><path class="cls-2" d="M811.14,396.55V376.43h5.58v1.85a7.63,7.63,0,0,1,10.64-.27,7.63,7.63,0,0,1,1.87,5.4v13.14h-5.58v-12a3.87,3.87,0,0,0-.83-2.59,3.07,3.07,0,0,0-2.45-1,3.76,3.76,0,0,0-2.32.74,3.43,3.43,0,0,0-1.33,2v12.74Z"/><path class="cls-2" d="M835.08,390.47v-9.54H832v-4.5h3.06V371h5.53v5.44H845v4.5h-4.41v8.82a2,2,0,0,0,2.3,2.3,4.43,4.43,0,0,0,2.43-.67v4.94a7.87,7.87,0,0,1-3.6.64,6.93,6.93,0,0,1-4.91-1.63A6.33,6.33,0,0,1,835.08,390.47Z"/><path class="cls-2" d="M847.9,390.56h5.54c.45,1.48,1.57,2.21,3.37,2.21s2.84-.66,2.84-2a1.31,1.31,0,0,0-.47-1.06,4.3,4.3,0,0,0-1.56-.65l-4-.9q-5.22-1.21-5.22-5.67a5.73,5.73,0,0,1,2.3-4.7,8.86,8.86,0,0,1,5.71-1.83,9.42,9.42,0,0,1,5.88,1.65,7.17,7.17,0,0,1,2.67,4.57H859.6c-.42-1.32-1.47-2-3.15-2a3.4,3.4,0,0,0-1.86.5,1.55,1.55,0,0,0-.79,1.4c0,.75.6,1.27,1.8,1.57l4.14.94q5.35,1.32,5.35,5.85a5.67,5.67,0,0,1-2.31,4.77,9.49,9.49,0,0,1-5.92,1.76,10.32,10.32,0,0,1-6.12-1.69A6.74,6.74,0,0,1,847.9,390.56Z"/><path class="cls-2" d="M879.63,390.47v-9.54h-3.06v-4.5h3.06V371h5.53v5.44h4.41v4.5h-4.41v8.82a2,2,0,0,0,2.3,2.3,4.43,4.43,0,0,0,2.43-.67v4.94a7.87,7.87,0,0,1-3.6.64,6.93,6.93,0,0,1-4.91-1.63A6.29,6.29,0,0,1,879.63,390.47Z"/><path class="cls-2" d="M912.21,386.51a10.59,10.59,0,0,1-2.75,7.56,10.09,10.09,0,0,1-14.22,0,11.85,11.85,0,0,1,0-15.16,10.09,10.09,0,0,1,14.22,0A10.65,10.65,0,0,1,912.21,386.51Zm-5.54,0a7.08,7.08,0,0,0-1.14-4.2,4,4,0,0,0-6.35,0,8.19,8.19,0,0,0,0,8.37,4,4,0,0,0,6.35,0A7,7,0,0,0,906.67,386.51Z"/><path class="cls-2" d="M930.88,376.43v20.93a7.16,7.16,0,0,1-1.8,5.22,7,7,0,0,1-5.22,1.84,7.49,7.49,0,0,1-2.16-.22v-4.46a12.17,12.17,0,0,0,1.22.14c1.59,0,2.38-.85,2.38-2.57V376.43Zm.5-5.8a3,3,0,0,1-1,2.29,3.26,3.26,0,0,1-2.32.9,3.3,3.3,0,0,1-2.36-.9,3.14,3.14,0,0,1,0-4.56,3.3,3.3,0,0,1,2.34-.93,3.24,3.24,0,0,1,2.32.93A3,3,0,0,1,931.38,370.63Z"/><path class="cls-2" d="M954.1,386.51a10.58,10.58,0,0,1-2.74,7.56,10.09,10.09,0,0,1-14.22,0,11.82,11.82,0,0,1,0-15.16,10.09,10.09,0,0,1,14.22,0A10.65,10.65,0,0,1,954.1,386.51Zm-5.53,0a7,7,0,0,0-1.15-4.2,3.94,3.94,0,0,0-6.34,0,8.19,8.19,0,0,0,0,8.37,3.94,3.94,0,0,0,6.34,0A7,7,0,0,0,948.57,386.51Z"/><path class="cls-2" d="M963.73,370.63a3,3,0,0,1-1,2.29,3.22,3.22,0,0,1-2.31.9,3.32,3.32,0,0,1-2.37-.9,3.15,3.15,0,0,1,0-4.56,3.3,3.3,0,0,1,2.34-.93,3.2,3.2,0,0,1,2.31.93A3,3,0,0,1,963.73,370.63Zm-.49,5.8v20.12h-5.58V376.43Z"/><path class="cls-2" d="M968.1,396.55V376.43h5.58v1.85a7.63,7.63,0,0,1,10.64-.27,7.68,7.68,0,0,1,1.87,5.4v13.14h-5.58v-12a3.82,3.82,0,0,0-.84-2.59,3.06,3.06,0,0,0-2.45-1,3.8,3.8,0,0,0-2.32.74,3.46,3.46,0,0,0-1.32,2v12.74Z"/><path class="cls-2" d="M667.14,449h-5.49l2.93-7.33-7.7-20.21h5.9l4.63,13.37L672,421.43h5.63Z"/><path class="cls-2" d="M698.46,431.51a10.62,10.62,0,0,1-2.74,7.57,10.12,10.12,0,0,1-14.22,0,11.84,11.84,0,0,1,0-15.17,10.09,10.09,0,0,1,14.22,0A10.67,10.67,0,0,1,698.46,431.51Zm-5.53,0a7.08,7.08,0,0,0-1.15-4.2,4,4,0,0,0-6.35,0,8.25,8.25,0,0,0,0,8.37,4,4,0,0,0,6.35,0A7,7,0,0,0,692.93,431.51Z"/><path class="cls-2" d="M719.84,421.43v20.12h-5.58v-1.84a7,7,0,0,1-5.4,2.29,6.68,6.68,0,0,1-5.2-2,7.6,7.6,0,0,1-1.87-5.39V421.43h5.58v12a3.88,3.88,0,0,0,.81,2.61,3,3,0,0,0,2.43.94,3.7,3.7,0,0,0,2.3-.74,3.47,3.47,0,0,0,1.3-2.05V421.43Z"/><path class="cls-2" d="M736.85,421.34v5.58a5.34,5.34,0,0,0-2.79-.67,4.18,4.18,0,0,0-2.48.74,3.44,3.44,0,0,0-1.35,2.09v12.47h-5.58V421.43h5.58v2a4.85,4.85,0,0,1,4.5-2.44A4.69,4.69,0,0,1,736.85,421.34Z"/><path class="cls-2" d="M763.26,413.92h4.5l4.77,18.58,4.55-18.58h5.67l-7.2,27.63h-5.27l-4.86-18.22-4.86,18.22H755.3l-7.2-27.63h5.8l4.5,18.58Z"/><path class="cls-2" d="M791.79,415.63a3,3,0,0,1-1,2.29,3.22,3.22,0,0,1-2.31.91,3.33,3.33,0,0,1-2.37-.91,3.15,3.15,0,0,1,0-4.56,3.3,3.3,0,0,1,2.34-.93,3.2,3.2,0,0,1,2.31.93A3,3,0,0,1,791.79,415.63Zm-.49,5.8v20.12h-5.58V421.43Z"/><path class="cls-2" d="M795.44,432.19v-4.86h10.84v4.86Z"/><path class="cls-2" d="M816.36,441.55h-5.71V413.92h18.4v5H816.36v7h11.75v5H816.36Z"/><path class="cls-2" d="M839,415.63a3,3,0,0,1-1,2.29,3.25,3.25,0,0,1-2.32.91,3.31,3.31,0,0,1-2.36-.91,3.14,3.14,0,0,1,0-4.56,3.3,3.3,0,0,1,2.34-.93,3.22,3.22,0,0,1,2.32.93A3,3,0,0,1,839,415.63Zm-.5,5.8v20.12H833V421.43Z"/><path class="cls-2" d="M852.94,441.55V421.43h5.58v1.85a7.64,7.64,0,0,1,10.65-.27,7.67,7.67,0,0,1,1.86,5.4v13.14h-5.58v-12a3.82,3.82,0,0,0-.83-2.59,3.06,3.06,0,0,0-2.45-1,3.81,3.81,0,0,0-2.32.75,3.47,3.47,0,0,0-1.33,2v12.74Z"/><path class="cls-2" d="M887.91,435h5.17a8,8,0,0,1-2.85,5.15,9.35,9.35,0,0,1-6.06,1.87,9.21,9.21,0,0,1-7.06-2.9,11.9,11.9,0,0,1,0-15.12,9,9,0,0,1,7-3,8.5,8.5,0,0,1,6.73,2.73,10.54,10.54,0,0,1,2.41,7.26v1.71H879.81a5.57,5.57,0,0,0,1.3,3.54,4,4,0,0,0,3.06,1.28Q887.23,437.5,887.91,435Zm-3.78-9.45q-3.42,0-4.19,3.78h7.79a4.09,4.09,0,0,0-1-2.72A3.31,3.31,0,0,0,884.13,425.53Z"/><path class="cls-2" d="M898,435.47v-9.54h-3.06v-4.5H898V416h5.53v5.44h4.41v4.5h-4.41v8.82a2,2,0,0,0,2.3,2.3,4.35,4.35,0,0,0,2.43-.67v4.95a8,8,0,0,1-3.6.63,6.93,6.93,0,0,1-4.91-1.63A6.29,6.29,0,0,1,898,435.47Z"/><path class="cls-2" d="M926.74,421.43l3.33,12.83,3.6-12.83h5.4L933,441.55h-5.13l-3.28-12.33-3.29,12.33h-5.13L910,421.43h5.58l3.6,12.83,3.29-12.83Z"/><path class="cls-2" d="M960.31,431.51a10.62,10.62,0,0,1-2.74,7.57,10.12,10.12,0,0,1-14.22,0,11.84,11.84,0,0,1,0-15.17,10.09,10.09,0,0,1,14.22,0A10.67,10.67,0,0,1,960.31,431.51Zm-5.53,0a7,7,0,0,0-1.15-4.2,3.94,3.94,0,0,0-6.34,0,8.19,8.19,0,0,0,0,8.37,4,4,0,0,0,6.34,0A7,7,0,0,0,954.78,431.51Z"/><path class="cls-2" d="M976.06,421.34v5.58a5.34,5.34,0,0,0-2.79-.67,4.15,4.15,0,0,0-2.47.74,3.44,3.44,0,0,0-1.35,2.09v12.47h-5.58V421.43h5.58v2A4.85,4.85,0,0,1,974,421,4.64,4.64,0,0,1,976.06,421.34Z"/><path class="cls-2" d="M992.76,441.55l-5.9-8.1-1.62,1.76v6.34h-5.58V412.3h5.58v16.61l6.89-7.48h6.93L990.91,430l8.46,11.57Z"/><path class="cls-2" d="M85.49,847.94a5,5,0,0,1-5-5V709.7a149.54,149.54,0,0,1,44.09-106.43L175,552.81a5,5,0,0,1,7.07,7.07l-50.46,50.46A139.61,139.61,0,0,0,90.49,709.7V842.94A5,5,0,0,1,85.49,847.94Z"/><path class="cls-2" d="M282.9,851.5a5,5,0,0,1-5-5V820a5,5,0,0,1,2.78-4.48,68,68,0,0,0,38.12-61.33V725a5,5,0,0,1,10,0v29.19A77.91,77.91,0,0,1,287.9,823V846.5A5,5,0,0,1,282.9,851.5Z"/><path class="cls-2" d="M521.8,483.55h-396a24,24,0,0,1-24-24v-108a24,24,0,0,1,24-24h396a24,24,0,0,1,24,24v108A24,24,0,0,1,521.8,483.55Zm-396-144a12,12,0,0,0-12,12v108a12,12,0,0,0,12,12h396a12,12,0,0,0,12-12v-108a12,12,0,0,0-12-12Z"/><path class="cls-2" d="M205.77,387.78h5.94q.36,4,4,4c2.85,0,4.28-1.75,4.28-5.27V368.92h5.76v17.64c0,3.42-.9,6-2.7,7.78a10,10,0,0,1-17.33-6.56Z"/><path class="cls-2" d="M248.88,386.51a10.58,10.58,0,0,1-2.74,7.56,10.09,10.09,0,0,1-14.22,0,11.82,11.82,0,0,1,0-15.16,10.09,10.09,0,0,1,14.22,0A10.65,10.65,0,0,1,248.88,386.51Zm-5.53,0a7.08,7.08,0,0,0-1.15-4.2,4,4,0,0,0-6.35,0,8.25,8.25,0,0,0,0,8.37,4,4,0,0,0,6.35,0A7,7,0,0,0,243.35,386.51Z"/><path class="cls-2" d="M258.51,370.63a3,3,0,0,1-1,2.29,3.22,3.22,0,0,1-2.31.9,3.32,3.32,0,0,1-2.37-.9,3.15,3.15,0,0,1,0-4.56,3.29,3.29,0,0,1,2.34-.93,3.2,3.2,0,0,1,2.31.93A3,3,0,0,1,258.51,370.63Zm-.49,5.8v20.12h-5.58V376.43Z"/><path class="cls-2" d="M262.88,396.55V376.43h5.58v1.85A7.63,7.63,0,0,1,279.1,378a7.68,7.68,0,0,1,1.87,5.4v13.14h-5.58v-12a3.82,3.82,0,0,0-.84-2.59,3.06,3.06,0,0,0-2.45-1,3.8,3.8,0,0,0-2.32.74,3.46,3.46,0,0,0-1.32,2v12.74Z"/><path class="cls-2" d="M291.67,370.63a3,3,0,0,1-1,2.29,3.49,3.49,0,0,1-4.68,0,3.14,3.14,0,0,1,0-4.56,3.3,3.3,0,0,1,2.34-.93,3.24,3.24,0,0,1,2.32.93A3,3,0,0,1,291.67,370.63Zm-.49,5.8v20.12H285.6V376.43Z"/><path class="cls-2" d="M296,396.55V376.43h5.58v1.85a7.63,7.63,0,0,1,10.64-.27,7.63,7.63,0,0,1,1.87,5.4v13.14h-5.58v-12a3.87,3.87,0,0,0-.83-2.59,3.07,3.07,0,0,0-2.45-1,3.76,3.76,0,0,0-2.32.74,3.43,3.43,0,0,0-1.33,2v12.74Z"/><path class="cls-2" d="M331.59,395.2V394a6.05,6.05,0,0,1-4.95,2.07,8.28,8.28,0,0,1-6.66-2.93,11.49,11.49,0,0,1,0-14.26,8.28,8.28,0,0,1,6.66-2.93,6.2,6.2,0,0,1,4.95,2v-1.58h5.53v17.91c0,3.33-.9,5.85-2.7,7.54a10,10,0,0,1-7.15,2.54,10.38,10.38,0,0,1-6.41-1.88,7.55,7.55,0,0,1-2.95-5.27h5.4q.68,2.84,4,2.84Q331.59,400.11,331.59,395.2Zm0-5.9v-6.57a4.15,4.15,0,0,0-3.78-2.06,4.31,4.31,0,0,0-3.47,1.48,5.78,5.78,0,0,0-1.26,3.87,5.85,5.85,0,0,0,1.26,3.89,4.27,4.27,0,0,0,3.47,1.51,4.23,4.23,0,0,0,2.23-.61A4.32,4.32,0,0,0,331.59,389.3Z"/><path class="cls-2" d="M364.8,368.92h4.5l4.77,18.58,4.54-18.58h5.67l-7.2,27.63h-5.26L367,378.32l-4.86,18.23h-5.27l-7.2-27.63h5.81l4.5,18.58Z"/><path class="cls-2" d="M393.33,370.63a3,3,0,0,1-1,2.29,3.49,3.49,0,0,1-4.68,0,3.14,3.14,0,0,1,0-4.56,3.3,3.3,0,0,1,2.34-.93,3.24,3.24,0,0,1,2.32.93A3,3,0,0,1,393.33,370.63Zm-.5,5.8v20.12h-5.58V376.43Z"/><path class="cls-2" d="M397,387.19v-4.86h10.85v4.86Z"/><path class="cls-2" d="M417.9,396.55h-5.72V368.92h18.41v5H417.9v7h11.74v5H417.9Z"/><path class="cls-2" d="M440.58,370.63a3,3,0,0,1-1,2.29,3.49,3.49,0,0,1-4.68,0,3.14,3.14,0,0,1,0-4.56,3.3,3.3,0,0,1,2.34-.93,3.24,3.24,0,0,1,2.32.93A3,3,0,0,1,440.58,370.63Zm-.5,5.8v20.12H434.5V376.43Z"/><path class="cls-2" d="M237.36,441.55V421.43h5.58v1.85a7.63,7.63,0,0,1,10.64-.27,7.63,7.63,0,0,1,1.87,5.4v13.14h-5.58v-12A3.87,3.87,0,0,0,249,427a3.08,3.08,0,0,0-2.45-1,3.77,3.77,0,0,0-2.32.75,3.43,3.43,0,0,0-1.33,2v12.74Z"/><path class="cls-2" d="M272.32,435h5.18a8,8,0,0,1-2.86,5.15,10.35,10.35,0,0,1-13.12-1,11.88,11.88,0,0,1,0-15.12,9,9,0,0,1,6.95-3,8.51,8.51,0,0,1,6.73,2.73,10.59,10.59,0,0,1,2.41,7.26v1.71H264.23a5.52,5.52,0,0,0,1.3,3.54,4,4,0,0,0,3.06,1.28Q271.65,437.5,272.32,435Zm-3.78-9.45q-3.42,0-4.18,3.78h7.79a4.15,4.15,0,0,0-1-2.72A3.31,3.31,0,0,0,268.54,425.53Z"/><path class="cls-2" d="M282.4,435.47v-9.54h-3.06v-4.5h3.06V416h5.54v5.44h4.41v4.5h-4.41v8.82a2,2,0,0,0,2.29,2.3,4.35,4.35,0,0,0,2.43-.67v4.95a8,8,0,0,1-3.6.63,6.91,6.91,0,0,1-4.9-1.63A6.3,6.3,0,0,1,282.4,435.47Z"/><path class="cls-2" d="M311.16,421.43l3.33,12.83,3.6-12.83h5.4l-6.12,20.12h-5.13L309,429.22l-3.28,12.33h-5.13l-6.12-20.12H300l3.6,12.83,3.28-12.83Z"/><path class="cls-2" d="M344.73,431.51a10.63,10.63,0,0,1-2.75,7.57,10.12,10.12,0,0,1-14.22,0,11.87,11.87,0,0,1,0-15.17,10.09,10.09,0,0,1,14.22,0A10.67,10.67,0,0,1,344.73,431.51Zm-5.54,0a7.08,7.08,0,0,0-1.14-4.2,4,4,0,0,0-6.35,0,8.19,8.19,0,0,0,0,8.37,4,4,0,0,0,6.35,0A7,7,0,0,0,339.19,431.51Z"/><path class="cls-2" d="M360.48,421.34v5.58a5.34,5.34,0,0,0-2.79-.67,4.18,4.18,0,0,0-2.48.74,3.44,3.44,0,0,0-1.35,2.09v12.47h-5.58V421.43h5.58v2a4.85,4.85,0,0,1,4.5-2.44A4.69,4.69,0,0,1,360.48,421.34Z"/><path class="cls-2" d="M377.17,441.55l-5.89-8.1-1.62,1.76v6.34h-5.58V412.3h5.58v16.61l6.88-7.48h6.93L375.33,430l8.46,11.57Z"/><path class="cls-2" d="M386.56,440.83a3.51,3.51,0,0,1-1-2.57,3.45,3.45,0,0,1,1-2.54,3.59,3.59,0,0,1,5,0,3.44,3.44,0,0,1,1,2.54,3.5,3.5,0,0,1-1,2.57,3.51,3.51,0,0,1-5,0Z"/><path class="cls-2" d="M396,440.83a3.51,3.51,0,0,1-1-2.57,3.45,3.45,0,0,1,1-2.54,3.59,3.59,0,0,1,5,0,3.44,3.44,0,0,1,1,2.54,3.5,3.5,0,0,1-1,2.57,3.51,3.51,0,0,1-5,0Z"/><path class="cls-2" d="M405.46,440.83a3.51,3.51,0,0,1-1-2.57,3.45,3.45,0,0,1,1-2.54,3.59,3.59,0,0,1,5,0,3.44,3.44,0,0,1,1,2.54,3.5,3.5,0,0,1-1,2.57,3.51,3.51,0,0,1-5,0Z"/><path class="cls-2" d="M323.8,694a23,23,0,1,1,23-23A23,23,0,0,1,323.8,694Zm0-36a13,13,0,1,0,13,13A13,13,0,0,0,323.8,658Z"/><path class="cls-2" d="M213.8,823a5,5,0,0,1-3.79-8.27,68.33,68.33,0,0,0,0-89.22,5,5,0,0,1,.07-6.61l63.16-70.14A28.6,28.6,0,0,0,254,600.6L149,705.67a5,5,0,0,1-7.07-7.07L248.47,592a5,5,0,0,1,3.46-1.46h.48a38.59,38.59,0,0,1,28.19,65L220.38,722.4a78.35,78.35,0,0,1-2.79,98.85A5,5,0,0,1,213.8,823Z"/><path class="cls-2" d="M467.8,338.55h-288a5,5,0,0,1-5-5V234.5a23,23,0,0,1,23-23h252a23,23,0,0,1,23,23v99.05A5,5,0,0,1,467.8,338.55Zm-283-10h278V234.5a13,13,0,0,0-13-13h-252a13,13,0,0,0-13,13Z"/><path class="cls-2" d="M449.8,725.5H215.36a5,5,0,0,1-3.72-8.35l61.6-68.4A28.6,28.6,0,0,0,254,600.6l-70.69,70.7a5,5,0,0,1-8.54-3.54V477.55a5,5,0,0,1,5-5h288a5,5,0,0,1,5,5v225A23,23,0,0,1,449.8,725.5Zm-223.21-10H449.8a13,13,0,0,0,13-13V482.55h-278V655.69L248.47,592a5,5,0,0,1,3.46-1.46h.48a38.59,38.59,0,0,1,28.19,65Z"/><path class="cls-2" d="M791.41,267a53.38,53.38,0,0,1,73.13,0L873,256.88a65.7,65.7,0,0,0-90,0Z"/><path class="cls-2" d="M799.85,277.19l8.44,10.16a28.74,28.74,0,0,1,39.37,0l8.44-10.16a41.07,41.07,0,0,0-56.25,0Z"/><path class="cls-2" d="M828,311.05l11.24-13.53a16.38,16.38,0,0,0-22.49,0Z"/><path class="cls-2" d="M287.23,267a53.37,53.37,0,0,1,73.12,0l8.44-10.16a65.7,65.7,0,0,0-90,0Z"/><path class="cls-2" d="M295.66,277.19l8.44,10.16a28.75,28.75,0,0,1,39.38,0l8.43-10.16a41.07,41.07,0,0,0-56.25,0Z"/><path class="cls-2" d="M323.79,311.05,335,297.52a16.37,16.37,0,0,0-22.48,0Z"/></svg>