<svg id="OUTLINES" xmlns="http://www.w3.org/2000/svg" viewBox="0 0 1152 1008"><defs><style>.cls-1{fill:#fff;}.cls-2{fill:#000f7d;}</style></defs><rect class="cls-1" x="362.87" y="425.93" width="444" height="156" rx="26"/><path class="cls-2" d="M775.39,602.77,745.63,573h28.16a24,24,0,0,0,24-24V441a24,24,0,0,0-24-24H725.17V234a23,23,0,0,0-23-23h-252a23,23,0,0,0-23,23V417H377.79a24,24,0,0,0-24,24V549a24,24,0,0,0,24,24h49.38V702a23,23,0,0,0,23,23H570.74a3.91,3.91,0,0,0,0,.48v29.19a77.9,77.9,0,0,0,40.91,68.85V847a5,5,0,0,0,10,0v-26.5a5,5,0,0,0-2.79-4.48,68,68,0,0,1-38.12-61.33V725.48a3.91,3.91,0,0,0-.05-.48h96.71a78.33,78.33,0,0,0,5,95.75,5,5,0,0,0,7.57-6.53A68.37,68.37,0,0,1,690,725a5,5,0,0,0-.07-6.62l-63.22-70.21A28.59,28.59,0,0,1,646,600.1l70.69,70.7,0,0L751,705.17a5,5,0,1,0,7.07-7.07l-32.91-32.91V573h6.32l36.83,36.84a139.57,139.57,0,0,1,41.16,99.37V842.45a5,5,0,0,0,10,0V709.21A149.5,149.5,0,0,0,775.39,602.77ZM437.17,234a13,13,0,0,1,13-13h252a13,13,0,0,1,13,13V417h-278Zm278,421.19-63.66-63.67a5,5,0,0,0-3.48-1.46h-.46a38.64,38.64,0,0,0-38.6,38.6h0a38.36,38.36,0,0,0,10.34,26.28L673.39,715H450.17a13,13,0,0,1-13-13V573h278ZM377.79,561a12,12,0,0,1-12-12V441a12,12,0,0,1,12-12h396a12,12,0,0,1,12,12V549a12,12,0,0,1-12,12Z"/><path class="cls-2" d="M576.17,693.5a23,23,0,1,0-23-23A23,23,0,0,0,576.17,693.5Zm0-36a13,13,0,1,1-13,13A13,13,0,0,1,576.17,657.5Z"/><path class="cls-2" d="M421.91,468.75l-5-1.17q-3.11-.72-3.1-3A2.79,2.79,0,0,1,415,462.2a5.25,5.25,0,0,1,3.17-.87q4,0,5.08,3.28h5.72a9.51,9.51,0,0,0-3.49-5.83,11.56,11.56,0,0,0-7.36-2.18,10.61,10.61,0,0,0-7.15,2.39,7.69,7.69,0,0,0-2.79,6.12q0,6,7,7.56l4.95,1.12a5.76,5.76,0,0,1,2.59,1.13,2.57,2.57,0,0,1,.79,2,3,3,0,0,1-1.26,2.54,5.66,5.66,0,0,1-3.38.92q-4.37,0-5.49-3.55h-5.94a9.31,9.31,0,0,0,3.78,6.12,12.82,12.82,0,0,0,7.7,2.2,11.35,11.35,0,0,0,7.38-2.34,7.67,7.67,0,0,0,2.88-6.25Q429.16,470.42,421.91,468.75Z"/><path class="cls-2" d="M441.75,464.12a9.3,9.3,0,0,0-7.11,2.92,11.87,11.87,0,0,0,0,15.17,10.12,10.12,0,0,0,14.22,0,11.84,11.84,0,0,0,0-15.17A9.3,9.3,0,0,0,441.75,464.12Zm3.18,14.69a4,4,0,0,1-6.35,0,7,7,0,0,1-1.15-4.16,7.09,7.09,0,0,1,1.15-4.21,4,4,0,0,1,6.35,0,7.09,7.09,0,0,1,1.14,4.21A7,7,0,0,1,444.93,478.81Z"/><path class="cls-2" d="M477.3,464.12a7.83,7.83,0,0,0-6.07,2.56,6.37,6.37,0,0,0-5.4-2.56,6.08,6.08,0,0,0-5.09,2.11v-1.66h-5.58v20.11h5.58v-13a3.26,3.26,0,0,1,1.15-1.91,3.11,3.11,0,0,1,2-.7q2.83,0,2.84,3.6v12h5.62v-13a3.22,3.22,0,0,1,1.13-1.93,3.11,3.11,0,0,1,2-.68,2.53,2.53,0,0,1,2.14,1,4.24,4.24,0,0,1,.74,2.63v12h5.58V471.54a7.92,7.92,0,0,0-1.76-5.42A6.11,6.11,0,0,0,477.3,464.12Z"/><path class="cls-2" d="M506,478.11h-5.18q-.68,2.52-3.73,2.52a4,4,0,0,1-3.06-1.28,5.57,5.57,0,0,1-1.31-3.53H506.1v-1.71a10.59,10.59,0,0,0-2.4-7.27,8.51,8.51,0,0,0-6.73-2.72,9,9,0,0,0-7,3,11.88,11.88,0,0,0,0,15.12,10.35,10.35,0,0,0,13.12,1A8,8,0,0,0,506,478.11Zm-9-9.45a3.31,3.31,0,0,1,2.61,1.06,4.09,4.09,0,0,1,1,2.72h-7.78Q493.6,468.66,497,468.66Z"/><path class="cls-2" d="M510.87,478.61a6.3,6.3,0,0,0,1.76,4.86,7,7,0,0,0,4.9,1.62,8,8,0,0,0,3.6-.63v-4.95a4.35,4.35,0,0,1-2.43.67,2,2,0,0,1-2.29-2.29v-8.82h4.41v-4.5h-4.41v-5.45h-5.54v5.45h-3.06v4.5h3.06Z"/><path class="cls-2" d="M530.76,472a3.47,3.47,0,0,1,1.33-2.05,3.8,3.8,0,0,1,2.32-.74,3.07,3.07,0,0,1,2.45,1,3.82,3.82,0,0,1,.83,2.59v12h5.58V471.54a7.67,7.67,0,0,0-1.86-5.4,7.66,7.66,0,0,0-10.65.27v-11h-5.58v29.25h5.58Z"/><path class="cls-2" d="M550.7,462a3.26,3.26,0,0,0,2.31-.9,3.18,3.18,0,0,0,0-4.57,3.19,3.19,0,0,0-2.31-.92,3.29,3.29,0,0,0-2.34.92,3,3,0,0,0-1,2.27,3,3,0,0,0,1,2.3A3.37,3.37,0,0,0,550.7,462Z"/><rect class="cls-2" x="547.91" y="464.57" width="5.58" height="20.12"/><path class="cls-2" d="M569.33,464.12a6.76,6.76,0,0,0-5.4,2.29v-1.84h-5.58v20.11h5.58V472a3.42,3.42,0,0,1,1.33-2.05,3.75,3.75,0,0,1,2.31-.74,3.09,3.09,0,0,1,2.46,1,3.87,3.87,0,0,1,.83,2.59v12h5.58V471.54a7.63,7.63,0,0,0-1.87-5.4A6.76,6.76,0,0,0,569.33,464.12Z"/><path class="cls-2" d="M599.43,464.57H593.9v1.57a6.2,6.2,0,0,0-4.95-2,8.27,8.27,0,0,0-6.66,2.92,11.5,11.5,0,0,0,0,14.27,8.27,8.27,0,0,0,6.66,2.92,6.05,6.05,0,0,0,4.95-2.07v1.17q0,4.91-4.32,4.91-3.29,0-4-2.84h-5.4a7.55,7.55,0,0,0,2.95,5.27,10.32,10.32,0,0,0,6.41,1.89,10,10,0,0,0,7.15-2.55q2.7-2.53,2.7-7.53Zm-5.53,12.87a4.33,4.33,0,0,1-1.56,1.5,4.17,4.17,0,0,1-2.22.61,4.27,4.27,0,0,1-3.47-1.51,5.85,5.85,0,0,1-1.26-3.89,5.78,5.78,0,0,1,1.26-3.87,4.31,4.31,0,0,1,3.47-1.48,4.14,4.14,0,0,1,3.78,2.07Z"/><polygon class="cls-2" points="641.06 464.56 635.66 464.56 632.06 477.39 628.73 464.56 624.45 464.56 621.17 477.39 617.57 464.56 611.99 464.56 618.11 484.68 623.24 484.68 626.52 472.35 629.81 484.68 634.94 484.68 641.06 464.56"/><path class="cls-2" d="M649.65,466.55v-2h-5.58v20.11h5.58V472.22a3.47,3.47,0,0,1,1.35-2.1,4.18,4.18,0,0,1,2.48-.74,5.34,5.34,0,0,1,2.79.68v-5.58a4.55,4.55,0,0,0-2.12-.36A4.86,4.86,0,0,0,649.65,466.55Z"/><path class="cls-2" d="M668,464.12a9.3,9.3,0,0,0-7.11,2.92,11.84,11.84,0,0,0,0,15.17,10.12,10.12,0,0,0,14.22,0,11.87,11.87,0,0,0,0-15.17A9.3,9.3,0,0,0,668,464.12Zm3.17,14.69a4,4,0,0,1-6.35,0,7,7,0,0,1-1.14-4.16,7.09,7.09,0,0,1,1.14-4.21,4,4,0,0,1,6.35,0,7.09,7.09,0,0,1,1.15,4.21A7,7,0,0,1,671.14,478.81Z"/><path class="cls-2" d="M692.36,464.12a6.76,6.76,0,0,0-5.4,2.29v-1.84h-5.58v20.11H687V472a3.45,3.45,0,0,1,1.32-2.05,3.8,3.8,0,0,1,2.32-.74,3.06,3.06,0,0,1,2.45,1,3.82,3.82,0,0,1,.84,2.59v12h5.58V471.54a7.68,7.68,0,0,0-1.87-5.4A6.77,6.77,0,0,0,692.36,464.12Z"/><path class="cls-2" d="M722.46,482.48V464.57h-5.53v1.57a6.2,6.2,0,0,0-4.95-2,8.27,8.27,0,0,0-6.66,2.92,11.5,11.5,0,0,0,0,14.27,8.27,8.27,0,0,0,6.66,2.92,6.05,6.05,0,0,0,4.95-2.07v1.17q0,4.91-4.32,4.91-3.29,0-4-2.84h-5.4a7.58,7.58,0,0,0,2.94,5.27,10.37,10.37,0,0,0,6.42,1.89,10,10,0,0,0,7.15-2.55Q722.46,487.48,722.46,482.48Zm-5.53-5a4.33,4.33,0,0,1-1.56,1.5,4.17,4.17,0,0,1-2.22.61,4.27,4.27,0,0,1-3.47-1.51,5.85,5.85,0,0,1-1.26-3.89,5.78,5.78,0,0,1,1.26-3.87,4.31,4.31,0,0,1,3.47-1.48,4.14,4.14,0,0,1,3.78,2.07Z"/><path class="cls-2" d="M732.14,462.81a3.29,3.29,0,0,1,2.61-1.08,3.46,3.46,0,0,1,2.54.92,3.29,3.29,0,0,1,.92,2.41,3.57,3.57,0,0,1-.36,1.53,6.42,6.42,0,0,1-.67,1.17c-.21.27-.62.73-1.22,1.37s-1,1.06-1.12,1.24a13.63,13.63,0,0,0-1.92,2.7,7.28,7.28,0,0,0-.6,2.7h5.53a4.86,4.86,0,0,1,1.62-3.19l.88-.93c.46-.49.78-.84.94-1l.81-1a6.07,6.07,0,0,0,.79-1.12l.54-1.11a5.58,5.58,0,0,0,.45-1.3,6.77,6.77,0,0,0,.14-1.37,7.58,7.58,0,0,0-2.46-5.94,9.61,9.61,0,0,0-6.68-2.21,9.27,9.27,0,0,0-6.7,2.5,10,10,0,0,0-3,6.46h5.94A4.41,4.41,0,0,1,732.14,462.81Z"/><path class="cls-2" d="M734.93,478a3.49,3.49,0,0,0-2.52,1,3.37,3.37,0,0,0-1,2.5,3.3,3.3,0,0,0,1,2.45,3.62,3.62,0,0,0,5,0,3.29,3.29,0,0,0,1-2.45,3.36,3.36,0,0,0-1-2.5A3.49,3.49,0,0,0,734.93,478Z"/><path class="cls-2" d="M515.47,519.78h5.26a6.66,6.66,0,0,1-2.14,3.85,6.29,6.29,0,0,1-4.25,1.42,6.58,6.58,0,0,1-5.44-2.55,10.3,10.3,0,0,1-2-6.63,10.45,10.45,0,0,1,2-6.6,6.45,6.45,0,0,1,5.36-2.54A5.9,5.9,0,0,1,520.1,511h5.81a11.39,11.39,0,0,0-3.83-6.82,11.81,11.81,0,0,0-7.87-2.54,12.43,12.43,0,0,0-9.43,4,15.95,15.95,0,0,0,0,20.57,12.58,12.58,0,0,0,9.56,4,11.58,11.58,0,0,0,8.66-3.42,12.41,12.41,0,0,0,3.36-9.09v-2.43H515.47Z"/><path class="cls-2" d="M538.91,509.12a9,9,0,0,0-6.95,3,11.88,11.88,0,0,0,0,15.12,10.35,10.35,0,0,0,13.12,1,8,8,0,0,0,2.86-5.15h-5.18q-.68,2.52-3.73,2.52a4,4,0,0,1-3.06-1.28,5.57,5.57,0,0,1-1.31-3.53H548v-1.71a10.59,10.59,0,0,0-2.4-7.27A8.51,8.51,0,0,0,538.91,509.12Zm-4.14,8.32q.76-3.78,4.18-3.78a3.31,3.31,0,0,1,2.61,1.06,4.09,4.09,0,0,1,1,2.72Z"/><path class="cls-2" d="M558.35,522.89v-8.82h4.41v-4.5h-4.41v-5.45h-5.54v5.45h-3.06v4.5h3.06v9.54a6.3,6.3,0,0,0,1.76,4.86,7,7,0,0,0,4.9,1.62,8,8,0,0,0,3.6-.63v-5a4.35,4.35,0,0,1-2.43.67A2,2,0,0,1,558.35,522.89Z"/><path class="cls-2" d="M587.64,509.12a6.76,6.76,0,0,0-5.4,2.29v-11h-5.58v29.25h5.58V517a3.47,3.47,0,0,1,1.33-2.05,3.8,3.8,0,0,1,2.32-.74,3.06,3.06,0,0,1,2.45,1,3.82,3.82,0,0,1,.83,2.59v12h5.58V516.54a7.67,7.67,0,0,0-1.86-5.4A6.8,6.8,0,0,0,587.64,509.12Z"/><path class="cls-2" d="M607.8,509.12a9,9,0,0,0-6.95,3,11.9,11.9,0,0,0,0,15.12,9.21,9.21,0,0,0,7.06,2.9,9.35,9.35,0,0,0,6.06-1.87,8,8,0,0,0,2.85-5.15h-5.17q-.68,2.52-3.74,2.52a4,4,0,0,1-3.06-1.28,5.57,5.57,0,0,1-1.3-3.53h13.41v-1.71a10.59,10.59,0,0,0-2.41-7.27A8.51,8.51,0,0,0,607.8,509.12Zm-4.14,8.32q.76-3.78,4.19-3.78a3.31,3.31,0,0,1,2.61,1.06,4.09,4.09,0,0,1,1,2.72Z"/><rect class="cls-2" x="620.49" y="500.43" width="5.58" height="29.25"/><path class="cls-2" d="M641.55,509.12a7,7,0,0,0-2.92.63,5.89,5.89,0,0,0-2.12,1.48v-1.66h-5.58v27.54h5.58V528a5.89,5.89,0,0,0,2.12,1.48,7,7,0,0,0,2.92.63,8.22,8.22,0,0,0,6.71-3,11.38,11.38,0,0,0,2.47-7.47,11.5,11.5,0,0,0-2.47-7.5A8.21,8.21,0,0,0,641.55,509.12Zm2.25,14.58a4.32,4.32,0,0,1-3.51,1.57,4.18,4.18,0,0,1-2.25-.65,4.07,4.07,0,0,1-1.53-1.69v-6.61a4.41,4.41,0,0,1,1.55-1.69,4,4,0,0,1,2.23-.65,4.31,4.31,0,0,1,3.51,1.59,6.26,6.26,0,0,1,1.31,4.08A6.14,6.14,0,0,1,643.8,523.7Z"/><path class="cls-2" d="M476.37,278.42h5.54a10.3,10.3,0,0,0,7.08-2.34,9.79,9.79,0,0,0,0-13.35,10.21,10.21,0,0,0-7.08-2.36H470.66V288h5.71Zm0-13.14h5.17a4.48,4.48,0,0,1,3.29,1.1,4,4,0,0,1,1.13,3,4,4,0,0,1-1.13,3,4.45,4.45,0,0,1-3.29,1.13h-5.17Z"/><path class="cls-2" d="M503.59,275.76a10.12,10.12,0,0,0-2.61-.36,8.53,8.53,0,0,0-5.55,1.8,5.68,5.68,0,0,0-2.23,4.63,5.85,5.85,0,0,0,2.14,4.78,8.11,8.11,0,0,0,5.33,1.75,9.62,9.62,0,0,0,3-.45,4.93,4.93,0,0,0,1.93-1V288h5.36V275.17a7.35,7.35,0,0,0-2.23-5.69,10.13,10.13,0,0,0-11.92-.22,7.12,7.12,0,0,0-2.77,4.61h5.31a2.86,2.86,0,0,1,3-1.89,3.19,3.19,0,0,1,2.45.88,3.06,3.06,0,0,1,.83,2.22v1.49A6.34,6.34,0,0,0,503.59,275.76Zm2,6.75a2.58,2.58,0,0,1-1.37,1.28,5.21,5.21,0,0,1-2.27.47,4.67,4.67,0,0,1-2.52-.63,2.14,2.14,0,0,1,0-3.68,4.81,4.81,0,0,1,2.5-.63,5.21,5.21,0,0,1,2.27.47,2.58,2.58,0,0,1,1.37,1.28Z"/><rect class="cls-2" x="515.47" y="267.88" width="5.58" height="20.12"/><path class="cls-2" d="M518.26,265.28a3.25,3.25,0,0,0,2.32-.91,3,3,0,0,0,1-2.29,3,3,0,0,0-1-2.27,3.22,3.22,0,0,0-2.32-.93,3.3,3.3,0,0,0-2.34.93,3.14,3.14,0,0,0,0,4.56A3.31,3.31,0,0,0,518.26,265.28Z"/><path class="cls-2" d="M533.79,288.45a7,7,0,0,0,2.92-.63,5.78,5.78,0,0,0,2.12-1.49V288h5.62V258.75h-5.62v10.8a5.89,5.89,0,0,0-2.12-1.48,7,7,0,0,0-2.92-.64,8.15,8.15,0,0,0-6.68,3,12.68,12.68,0,0,0,0,15A8.18,8.18,0,0,0,533.79,288.45Zm-2.25-14.56a4.31,4.31,0,0,1,3.51-1.6,4.1,4.1,0,0,1,2.25.66,4,4,0,0,1,1.53,1.68v6.62a4.17,4.17,0,0,1-3.78,2.34,4.3,4.3,0,0,1-3.51-1.58,6.12,6.12,0,0,1-1.31-4.05A6.25,6.25,0,0,1,531.54,273.89Z"/><path class="cls-2" d="M571.18,282.37a4.88,4.88,0,0,1-3.06.86q-4,0-5.13-3.33h-5.58a9.16,9.16,0,0,0,2.73,5.2,10.15,10.15,0,0,0,5.46,2.54V292h4.77v-4.36a9.23,9.23,0,0,0,5.34-2.63,7.37,7.37,0,0,0,2-5.29q0-5.89-6.75-7.56L566.28,271q-2.88-.77-2.88-2.88a2.68,2.68,0,0,1,1.06-2.23,4.44,4.44,0,0,1,2.85-.84q3.74,0,4.77,3h5.36a9.42,9.42,0,0,0-2.36-4.7,9.15,9.15,0,0,0-4.71-2.54v-4.28H565.6v4.09a9.1,9.1,0,0,0-5.49,2.59,7.32,7.32,0,0,0-2.07,5.29q0,5.81,6.57,7.33L569,277a5.71,5.71,0,0,1,2.52,1.11,2.52,2.52,0,0,1,.77,2A2.75,2.75,0,0,1,571.18,282.37Z"/><path class="cls-2" d="M593.41,277.29c1.29-1.35,2.23-2.36,2.82-3a14.47,14.47,0,0,0,1.77-2.74,7.27,7.27,0,0,0,.9-3.35,7.66,7.66,0,0,0-2.47-6,9.78,9.78,0,0,0-6.8-2.23,9.07,9.07,0,0,0-6.59,2.5,10,10,0,0,0-3,6.45H586a4.3,4.3,0,0,1,1-2.76,3.4,3.4,0,0,1,2.64-1.06,3.52,3.52,0,0,1,2.56.92,3.23,3.23,0,0,1,1,2.41,4.38,4.38,0,0,1-.63,2.12,33.7,33.7,0,0,1-3.69,4.54l-8.78,9.22V288h19.13v-5H588.1Z"/><path class="cls-2" d="M620.73,263.88a9.81,9.81,0,0,0-15.75,0q-3,4-3,10.3t3,10.31a9.81,9.81,0,0,0,15.75,0q3-4,3-10.31T620.73,263.88Zm-3.92,16.92a4.37,4.37,0,0,1-7.92,0,17.48,17.48,0,0,1,0-13.23,4.37,4.37,0,0,1,7.92,0,17.36,17.36,0,0,1,0,13.23Z"/><path class="cls-2" d="M471.64,326.92a6.32,6.32,0,0,0,1.76,4.87,7,7,0,0,0,4.9,1.62,8.11,8.11,0,0,0,3.61-.63v-4.95a4.4,4.4,0,0,1-2.44.67,2,2,0,0,1-2.29-2.29v-8.83h4.41v-4.5h-4.41v-5.44h-5.54v5.44h-3.06v4.5h3.06Z"/><path class="cls-2" d="M501.48,315.36a10.09,10.09,0,0,0-14.22,0,11.84,11.84,0,0,0,0,15.17,10.12,10.12,0,0,0,14.22,0,11.87,11.87,0,0,0,0-15.17Zm-3.94,11.77a4,4,0,0,1-6.34,0,8.19,8.19,0,0,1,0-8.37,3.94,3.94,0,0,1,6.34,0,8.19,8.19,0,0,1,0,8.37Z"/><path class="cls-2" d="M541.53,318.51H530.64v4.59h5.26a6.7,6.7,0,0,1-2.13,3.85,6.33,6.33,0,0,1-4.26,1.42,6.58,6.58,0,0,1-5.44-2.55,10.32,10.32,0,0,1-2-6.64,10.44,10.44,0,0,1,2-6.59,6.45,6.45,0,0,1,5.36-2.54,5.9,5.9,0,0,1,5.89,4.23h5.81a11.39,11.39,0,0,0-3.83-6.82,11.81,11.81,0,0,0-7.87-2.54,12.45,12.45,0,0,0-9.43,4,15.95,15.95,0,0,0,0,20.57,12.59,12.59,0,0,0,9.56,4,11.62,11.62,0,0,0,8.67-3.42,12.44,12.44,0,0,0,3.35-9.09Z"/><rect class="cls-2" x="545.26" y="303.75" width="5.58" height="29.25"/><path class="cls-2" d="M564.3,333.45a9.3,9.3,0,0,0,7.11-2.92,11.87,11.87,0,0,0,0-15.17,10.09,10.09,0,0,0-14.22,0,11.84,11.84,0,0,0,0,15.17A9.3,9.3,0,0,0,564.3,333.45Zm-3.17-14.69a3.94,3.94,0,0,1,6.34,0,8.19,8.19,0,0,1,0,8.37,4,4,0,0,1-6.34,0,8.19,8.19,0,0,1,0-8.37Z"/><path class="cls-2" d="M588.33,312.43a7.06,7.06,0,0,0-2.93.64,5.84,5.84,0,0,0-2.11,1.48v-10.8h-5.63V333h5.63v-1.67a5.74,5.74,0,0,0,2.11,1.49,7.05,7.05,0,0,0,2.93.63,8.18,8.18,0,0,0,6.68-3,12.72,12.72,0,0,0,0-15A8.15,8.15,0,0,0,588.33,312.43ZM590.58,327a4.3,4.3,0,0,1-3.51,1.58,4.17,4.17,0,0,1-3.78-2.34v-6.62a4,4,0,0,1,1.53-1.68,4.1,4.1,0,0,1,2.25-.66,4.31,4.31,0,0,1,3.51,1.6,6.25,6.25,0,0,1,1.3,4.07A6.12,6.12,0,0,1,590.58,327Z"/><path class="cls-2" d="M609.16,312.43a8.88,8.88,0,0,0-5.69,1.83,7.12,7.12,0,0,0-2.77,4.61H606a2.86,2.86,0,0,1,3-1.89,3.23,3.23,0,0,1,2.46.88,3.1,3.1,0,0,1,.83,2.22v1.49a6.34,6.34,0,0,0-2-.81,10.12,10.12,0,0,0-2.61-.36,8.57,8.57,0,0,0-5.56,1.8,5.68,5.68,0,0,0-2.23,4.63,5.88,5.88,0,0,0,2.14,4.78,8.13,8.13,0,0,0,5.33,1.75,9.62,9.62,0,0,0,3-.45,5,5,0,0,0,1.94-1V333h5.35V320.17a7.37,7.37,0,0,0-2.22-5.69A8.92,8.92,0,0,0,609.16,312.43Zm3.11,15.08a2.62,2.62,0,0,1-1.37,1.28,5.29,5.29,0,0,1-2.28.47,4.67,4.67,0,0,1-2.52-.63,2.15,2.15,0,0,1,0-3.68,4.81,4.81,0,0,1,2.5-.63,5.29,5.29,0,0,1,2.28.47,2.62,2.62,0,0,1,1.37,1.28Z"/><rect class="cls-2" x="622.17" y="303.75" width="5.58" height="29.25"/><polygon class="cls-2" points="484.88 369.86 477.5 350.37 470.65 350.37 470.65 378 476.06 378 476.06 359.95 482.89 378 486.81 378 493.51 359.95 493.51 378 498.96 378 498.96 350.37 492.21 350.37 484.88 369.86"/><path class="cls-2" d="M512.1,357.43a8.88,8.88,0,0,0-5.69,1.83,7.12,7.12,0,0,0-2.77,4.61H509a2.86,2.86,0,0,1,3-1.89,3.19,3.19,0,0,1,2.45.88,3.06,3.06,0,0,1,.83,2.22v1.49a6.34,6.34,0,0,0-2-.81,10.12,10.12,0,0,0-2.61-.36,8.53,8.53,0,0,0-5.55,1.8,5.68,5.68,0,0,0-2.23,4.63,5.85,5.85,0,0,0,2.14,4.78,8.11,8.11,0,0,0,5.33,1.75,9.62,9.62,0,0,0,3-.45,4.93,4.93,0,0,0,1.93-1V378h5.36V365.17a7.35,7.35,0,0,0-2.23-5.69A8.88,8.88,0,0,0,512.1,357.43Zm3.1,15.08a2.58,2.58,0,0,1-1.37,1.28,5.21,5.21,0,0,1-2.27.47,4.67,4.67,0,0,1-2.52-.63,2.14,2.14,0,0,1,0-3.68,4.81,4.81,0,0,1,2.5-.63,5.21,5.21,0,0,1,2.27.47,2.58,2.58,0,0,1,1.37,1.28Z"/><path class="cls-2" d="M530.68,359.87v-2H525.1V378h5.58V365.54a3.44,3.44,0,0,1,1.35-2.1,4.18,4.18,0,0,1,2.48-.74,5.34,5.34,0,0,1,2.79.67v-5.58a4.69,4.69,0,0,0-2.12-.36A4.87,4.87,0,0,0,530.68,359.87Z"/><polygon class="cls-2" points="560.29 357.88 553.36 357.88 546.48 365.36 546.48 348.75 540.9 348.75 540.9 378 546.48 378 546.48 371.65 548.1 369.9 553.99 378 560.61 378 552.15 366.44 560.29 357.88"/><path class="cls-2" d="M570.91,357.43a9,9,0,0,0-6.95,3,11.9,11.9,0,0,0,0,15.12,9.21,9.21,0,0,0,7.06,2.9,9.35,9.35,0,0,0,6.06-1.87,8,8,0,0,0,2.85-5.15h-5.17Q574.06,374,571,374a4,4,0,0,1-3.06-1.28,5.57,5.57,0,0,1-1.3-3.54h13.41v-1.71a10.54,10.54,0,0,0-2.41-7.26A8.5,8.5,0,0,0,570.91,357.43Zm-4.14,8.33Q567.54,362,571,362a3.31,3.31,0,0,1,2.61,1.06,4.09,4.09,0,0,1,1,2.72Z"/><path class="cls-2" d="M590.35,371.21v-8.83h4.41v-4.5h-4.41v-5.44h-5.53v5.44h-3.06v4.5h3.06v9.54a6.32,6.32,0,0,0,1.75,4.87,7,7,0,0,0,4.91,1.62,8,8,0,0,0,3.6-.63v-4.95a4.35,4.35,0,0,1-2.43.67A2,2,0,0,1,590.35,371.21Z"/></svg>