<svg id="OUTLINES" xmlns="http://www.w3.org/2000/svg" viewBox="0 0 1152 1008"><defs><style>.cls-1{fill:#fff;}.cls-2{fill:#000f7d;}</style></defs><title>recovery-codes</title><path class="cls-1" d="M884.25,730.5h-612a24,24,0,0,1-24-24v-396a24,24,0,0,1,24-24h612a24,24,0,0,1,24,24v396A24,24,0,0,1,884.25,730.5Z"/><path class="cls-2" d="M825.75,256.5h-81a31.53,31.53,0,0,1-31.5-31.5V144a4.5,4.5,0,0,1,7.68-3.18l108,108a4.5,4.5,0,0,1-3.18,7.68ZM722.25,154.86V225a22.52,22.52,0,0,0,22.5,22.5h70.14Z"/><path class="cls-2" d="M336.69,351.06h17.52q10.52,0,15.55,6.24t5,17.71q0,12.18-4.86,18.21t-15.07,6H336.69Zm18,40.44q5.84,0,8.69-3.79t2.84-12.7q0-7.81-2.81-12T354,358.8h-8.68v32.7Z"/><path class="cls-2" d="M384.07,393.69q-5.19-6.12-5.18-18.54t5.18-18.58q5.18-6.09,14.67-6.09t14.68,6.09q5.18,6.1,5.18,18.58t-5.18,18.58q-5.19,6.09-14.68,6.1T384.07,393.69Zm23.1-5.69q2.82-4.1,2.81-12.85t-2.81-12.85q-2.81-4.08-8.43-4.08t-8.43,4q-2.81,4.05-2.81,12.88T390.31,388q2.81,4.1,8.43,4.09T407.17,388Z"/><path class="cls-2" d="M455.1,371.65a12.42,12.42,0,0,1,5.54,5,13.86,13.86,0,0,1,1.76,6.87,16,16,0,0,1-2.3,8.65,15,15,0,0,1-6.5,5.65,22.63,22.63,0,0,1-9.75,2q-10.29,0-15.73-6.36t-5.44-19.12q0-10.44,5.55-17.16t17.3-6.71a39.17,39.17,0,0,1,6.94.62,34.29,34.29,0,0,1,6.35,1.71V361a34.56,34.56,0,0,0-6.61-2.15,31.69,31.69,0,0,0-6.46-.62q-7.74,0-11.09,4.3T431.3,374c0,1.46,0,2.53.07,3.22h.37a8,8,0,0,1,4.38-5.44,19.24,19.24,0,0,1,9.34-2A21.46,21.46,0,0,1,455.1,371.65Zm-3.8,18.21a7.52,7.52,0,0,0,2.48-5.88,6.52,6.52,0,0,0-2.37-5.22q-2.37-2-7.63-2a13.47,13.47,0,0,0-7.23,1.82,10.55,10.55,0,0,0-4.23,5,11,11,0,0,0,4,6.46,12.72,12.72,0,0,0,7.55,2C447.16,392.09,449.65,391.35,451.3,389.86Z"/><path class="cls-2" d="M500.72,356.28q5.47,5.81,5.48,17.48,0,26.07-24.24,26.07a42.39,42.39,0,0,1-6.42-.55,37.6,37.6,0,0,1-6.65-1.65v-8A40.83,40.83,0,0,0,482,392.09q8.25,0,11.94-4.46c2.45-3,3.68-7.47,3.68-13.5v-.88h-.36a8,8,0,0,1-3.87,5.77,16.2,16.2,0,0,1-9.05,2.26,22.8,22.8,0,0,1-9.89-1.9,13.45,13.45,0,0,1-6-5.14,13.83,13.83,0,0,1-2-7.34,17,17,0,0,1,2.08-8.39,14.63,14.63,0,0,1,6.32-5.88,22.55,22.55,0,0,1,10.29-2.15Q495.25,350.48,500.72,356.28Zm-8.1,15.84a9.69,9.69,0,0,0,4.16-5.51,10.67,10.67,0,0,0-4-6.42,13.12,13.12,0,0,0-7.56-2c-3.45,0-6,.75-7.63,2.26a7.76,7.76,0,0,0-2.44,6q0,7.82,9.42,7.82A14.2,14.2,0,0,0,492.62,372.12Z"/><path class="cls-2" d="M548.39,391.5v7.74h-36.5V391.5q11.9-8.1,17.56-12.84t7.22-7.49a11.56,11.56,0,0,0,1.57-5.87,6.32,6.32,0,0,0-2.3-5.22q-2.3-1.86-6.9-1.86a23.14,23.14,0,0,0-7.81,1.27,53.69,53.69,0,0,0-7.81,3.62v-8.62a42.17,42.17,0,0,1,7.37-2.92,30.3,30.3,0,0,1,8.4-1.09q8.91,0,13.29,4.12a14,14,0,0,1,4.38,10.7,17.21,17.21,0,0,1-1.68,7.52,28.07,28.07,0,0,1-5.66,7.44,101,101,0,0,1-11.13,9.2,8.3,8.3,0,0,1-2.08,1c-1,.34-2,.63-2.89.87v.22Z"/><path class="cls-2" d="M632.12,356.28q5.48,5.81,5.47,17.48,0,26.07-24.23,26.07a42.62,42.62,0,0,1-6.43-.55,37.49,37.49,0,0,1-6.64-1.65v-8a40.78,40.78,0,0,0,13.07,2.48q8.25,0,11.93-4.46c2.46-3,3.69-7.47,3.69-13.5v-.88h-.36a8,8,0,0,1-3.87,5.77,16.21,16.21,0,0,1-9.06,2.26,22.83,22.83,0,0,1-9.89-1.9,13.56,13.56,0,0,1-5.95-5.14,13.91,13.91,0,0,1-2-7.34,17,17,0,0,1,2.08-8.39,14.57,14.57,0,0,1,6.32-5.88,22.55,22.55,0,0,1,10.29-2.15Q626.65,350.48,632.12,356.28ZM624,372.12a9.74,9.74,0,0,0,4.16-5.51,10.63,10.63,0,0,0-4.06-6.42,13.08,13.08,0,0,0-7.55-2q-5.19,0-7.63,2.26a7.76,7.76,0,0,0-2.44,6q0,7.82,9.41,7.82A14.26,14.26,0,0,0,624,372.12Z"/><path class="cls-2" d="M676.69,373.11a13.06,13.06,0,0,1,4.63,10.36,15.92,15.92,0,0,1-2.19,8.29,15.21,15.21,0,0,1-6.68,5.87,25.25,25.25,0,0,1-11.13,2.2A37.51,37.51,0,0,1,651,398.47a32.52,32.52,0,0,1-7.85-3.17v-8.61a33,33,0,0,0,8.25,3.83,31.16,31.16,0,0,0,9.49,1.57q6.21,0,9-2.23a7.09,7.09,0,0,0,2.85-5.88,7,7,0,0,0-2.77-5.8q-2.78-2.15-8.18-2.15A26.86,26.86,0,0,0,647.89,380l-4.38-4.16L646,351.06h33.07v7.74H653l-1.17,12.41a28,28,0,0,1,10.8-2.12Q672.05,369.09,676.69,373.11Z"/><path class="cls-2" d="M725.34,351.06v7.74l-25.77,40.44H689l27.09-40.44H685.19v-7.74Z"/><path class="cls-2" d="M767.09,391.5v7.74H731.25V391.5h16.13V361.13l-13.57,8.62v-8.47L750,351.06h6V391.5Z"/><path class="cls-2" d="M802.21,387.93H783.74l-3.29,11.31h-9l13.95-48.18h15.11l13.94,48.18h-9Zm-2-7-6.14-21.24h-2.26l-6.13,21.24Z"/><path class="cls-2" d="M374.94,439.06v7.74l-25.77,40.44H338.59l27.08-40.44H334.79v-7.74Z"/><path class="cls-2" d="M419.62,476.22h-6.94v11h-8.61v-11h-24.6v-7.74l21.24-29.42h12v29.42h6.94Zm-15.55-7.74V446.14l-15.91,22.34Z"/><path class="cls-2" d="M424.29,439.06h17.52q10.51,0,15.55,6.24t5,17.71q0,12.18-4.86,18.21t-15.07,6H424.29Zm18,40.44q5.83,0,8.69-3.79t2.84-12.7q0-7.81-2.81-12t-9.38-4.2H432.9v32.7Z"/><path class="cls-2" d="M505,479.5v7.74H468.89V439.06h34.75v7.74H477.51v12.12h24.82v7H477.51V479.5Z"/><path class="cls-2" d="M544.52,444.28q5.47,5.81,5.48,17.48,0,26.07-24.24,26.07a42.62,42.62,0,0,1-6.43-.55,37.49,37.49,0,0,1-6.64-1.65v-8a40.83,40.83,0,0,0,13.07,2.48q8.25,0,11.93-4.46c2.46-3,3.69-7.47,3.69-13.5v-.88H541a8,8,0,0,1-3.87,5.77,16.2,16.2,0,0,1-9,2.26,22.88,22.88,0,0,1-9.9-1.9,13.56,13.56,0,0,1-6-5.14,13.91,13.91,0,0,1-2-7.34,17,17,0,0,1,2.08-8.39,14.63,14.63,0,0,1,6.32-5.88A22.55,22.55,0,0,1,529,438.48Q539.05,438.48,544.52,444.28Zm-8.1,15.84a9.69,9.69,0,0,0,4.16-5.51,10.67,10.67,0,0,0-4.05-6.42,13.14,13.14,0,0,0-7.56-2c-3.45,0-6,.75-7.63,2.26a7.76,7.76,0,0,0-2.44,6q0,7.82,9.41,7.82A14.24,14.24,0,0,0,536.42,460.12Z"/><path class="cls-2" d="M599.49,439.06H617q10.51,0,15.55,6.24t5,17.71q0,12.18-4.85,18.21t-15.07,6H599.49Zm18,40.44q5.84,0,8.68-3.79T629,463q0-7.81-2.81-12t-9.38-4.2H608.1v32.7Z"/><path class="cls-2" d="M674.09,459.65a12.5,12.5,0,0,1,5.55,5,13.85,13.85,0,0,1,1.75,6.87,16,16,0,0,1-2.3,8.65,14.88,14.88,0,0,1-6.49,5.65,22.63,22.63,0,0,1-9.75,2q-10.29,0-15.73-6.36t-5.44-19.12q0-10.44,5.55-17.16t17.3-6.71a39.17,39.17,0,0,1,6.94.62,34.29,34.29,0,0,1,6.35,1.71V449a34.56,34.56,0,0,0-6.61-2.15,31.69,31.69,0,0,0-6.46-.62q-7.74,0-11.1,4.3T650.3,462c0,1.46,0,2.53.07,3.22h.36a8.09,8.09,0,0,1,4.38-5.44,19.28,19.28,0,0,1,9.35-2A21.42,21.42,0,0,1,674.09,459.65Zm-3.79,18.21a7.52,7.52,0,0,0,2.48-5.88,6.52,6.52,0,0,0-2.37-5.22c-1.58-1.33-4.13-2-7.63-2a13.47,13.47,0,0,0-7.23,1.82,10.44,10.44,0,0,0-4.23,5,11,11,0,0,0,4,6.46,12.72,12.72,0,0,0,7.55,2Q667.82,480.09,670.3,477.86Z"/><path class="cls-2" d="M687.09,439.06h17.52q10.5,0,15.55,6.24t5,17.71q0,12.18-4.85,18.21t-15.08,6H687.09ZM705,479.5q5.85,0,8.69-3.79t2.85-12.7q0-7.81-2.81-12t-9.38-4.2H695.7v32.7Z"/><path class="cls-2" d="M763.85,444.46q5.14,6,5.14,18.69t-5.14,18.69q-5.15,6-14.71,6t-14.71-6q-5.14-6-5.15-18.65t5.15-18.69q5.15-6,14.71-6T763.85,444.46Zm-23.18,5.62q-2.77,3.87-2.78,13.07a37.2,37.2,0,0,0,.73,8.1l18.4-21.9q-2.7-3.14-7.88-3.13Q743.44,446.22,740.67,450.08Zm16.93,26.14q2.77-3.87,2.78-13.07a37.53,37.53,0,0,0-1-9l-18.69,22.12q2.7,3.79,8.4,3.8T757.6,476.22Z"/><path class="cls-2" d="M813.81,476.22h-6.93v11h-8.62v-11h-24.6v-7.74l21.25-29.42h12v29.42h6.93Zm-15.55-7.74V446.14l-15.91,22.34Z"/><path class="cls-2" d="M360.86,547.43a16.14,16.14,0,0,1,7.44,1.6,11.65,11.65,0,0,1,4.75,4.27,11.08,11.08,0,0,1,1.6,5.81,15.24,15.24,0,0,1-9.49,14.6,26.69,26.69,0,0,1-11.09,2.12,39,39,0,0,1-17.89-4.31V563a45,45,0,0,0,8.51,3.68,30,30,0,0,0,9.3,1.5q5.77,0,8.95-2.08a7,7,0,0,0,3.17-6.24q0-6.93-11-6.94a47.59,47.59,0,0,0-5.26.3,21.58,21.58,0,0,0-4.09.73v-6.36l18.11-12.84h-27v-7.67h36.28v9.05L357,547.57v.15A24.94,24.94,0,0,1,360.86,547.43Z"/><path class="cls-2" d="M389.91,534.8V549h24.45v7H389.91v19.2h-8.62V527.06h36.36v7.74Z"/><path class="cls-2" d="M424.29,527.06h17.52q10.51,0,15.55,6.24t5,17.71q0,12.18-4.86,18.21t-15.07,6H424.29Zm18,40.44q5.83,0,8.69-3.79t2.84-12.7q0-7.82-2.81-12t-9.38-4.2H432.9v32.7Z"/><path class="cls-2" d="M505,567.5v7.74H468.89V527.06h34.75v7.74H477.51v12.12h24.82v7H477.51V567.5Z"/><path class="cls-2" d="M551,564.22h-6.94v11h-8.61v-11h-24.6v-7.74l21.24-29.42h12v29.42H551Zm-15.55-7.74V534.14l-15.92,22.34Z"/><path class="cls-2" d="M622,534.8v32.7h9.35v7.74H604.16V567.5h9.27V534.8h-9.27v-7.74h27.23v7.74Z"/><path class="cls-2" d="M663.07,557.21H651.9v18h-8.61V527.06h18.54q8.91,0,13.32,3.8t4.42,11.46a16.09,16.09,0,0,1-1.94,8.17,12.11,12.11,0,0,1-5.58,5l10.44,19.71h-9.86Zm-11.17-6.35h9.86q4.51,0,6.86-2.12a7.56,7.56,0,0,0,2.34-5.91c0-3-.8-5.11-2.38-6.28s-4-1.75-7.33-1.75H651.9Z"/><path class="cls-2" d="M711.25,547.43a16.21,16.21,0,0,1,7.45,1.6,11.56,11.56,0,0,1,4.74,4.27,11.09,11.09,0,0,1,1.61,5.81,15.24,15.24,0,0,1-9.49,14.6,26.78,26.78,0,0,1-11.1,2.12,38.9,38.9,0,0,1-17.88-4.31V563a44.92,44.92,0,0,0,8.5,3.68,30.06,30.06,0,0,0,9.31,1.5q5.76,0,8.94-2.08a7,7,0,0,0,3.18-6.24q0-6.93-11-6.94a47.54,47.54,0,0,0-5.25.3,21.42,21.42,0,0,0-4.09.73v-6.36l18.1-12.84h-27v-7.67h36.28v9.05l-16.13,11.46v.15A25.13,25.13,0,0,1,711.25,547.43Z"/><path class="cls-2" d="M768.33,560.5q0,8-5,11.38t-13.61,3.36H730.89V527.06H749.5q8.32,0,12.59,3.54a11.65,11.65,0,0,1,4.27,9.46,10.37,10.37,0,0,1-5.91,9.78Q768.34,552.32,768.33,560.5ZM739.5,534.8v12.48h9.64a10.64,10.64,0,0,0,6.38-1.64,5.71,5.71,0,0,0,2.23-4.93q0-3.65-2.37-4.78a13.67,13.67,0,0,0-5.88-1.13ZM755.16,567a5.71,5.71,0,0,0,3.36-2.11,7.73,7.73,0,0,0,1.2-4.68c0-2.72-1-4.51-3-5.36a19.4,19.4,0,0,0-7.62-1.28H739.5V567.5h10A25.41,25.41,0,0,0,755.16,567Z"/><path class="cls-2" d="M812.13,560.5q0,8-5,11.38t-13.61,3.36H774.69V527.06H793.3q8.33,0,12.59,3.54a11.65,11.65,0,0,1,4.27,9.46,10.37,10.37,0,0,1-5.91,9.78Q812.14,552.32,812.13,560.5ZM783.3,534.8v12.48h9.64a10.64,10.64,0,0,0,6.38-1.64,5.71,5.71,0,0,0,2.23-4.93q0-3.65-2.37-4.78a13.7,13.7,0,0,0-5.88-1.13ZM799,567a5.71,5.71,0,0,0,3.36-2.11,7.73,7.73,0,0,0,1.2-4.68q0-4.08-3-5.36a19.4,19.4,0,0,0-7.62-1.28H783.3V567.5h10A25.41,25.41,0,0,0,799,567Z"/><path class="cls-2" d="M376.55,615.06l-17.3,31.32v16.86h-8.62V646.38l-17.22-31.32H343l11.17,21.83h1.54l11.16-21.83Z"/><path class="cls-2" d="M416.7,655.5v7.74H380.86V655.5H397V625.13l-13.58,8.62v-8.47l16.21-10.22h6V655.5Z"/><path class="cls-2" d="M456.92,620.28q5.47,5.81,5.48,17.48,0,26.07-24.24,26.07a42.39,42.39,0,0,1-6.42-.55,37.6,37.6,0,0,1-6.65-1.65v-8a40.83,40.83,0,0,0,13.07,2.48q8.25,0,11.94-4.46c2.45-3,3.68-7.47,3.68-13.5v-.88h-.36a8,8,0,0,1-3.87,5.77,16.2,16.2,0,0,1-9.05,2.26,22.8,22.8,0,0,1-9.89-1.9,13.45,13.45,0,0,1-5.95-5.14,13.83,13.83,0,0,1-2-7.34,17,17,0,0,1,2.08-8.39,14.63,14.63,0,0,1,6.32-5.88,22.55,22.55,0,0,1,10.29-2.15Q451.45,614.48,456.92,620.28Zm-8.1,15.84a9.69,9.69,0,0,0,4.16-5.51,10.67,10.67,0,0,0-4.05-6.42,13.12,13.12,0,0,0-7.56-2c-3.45,0-6,.75-7.63,2.26a7.76,7.76,0,0,0-2.44,6q0,7.81,9.42,7.82A14.2,14.2,0,0,0,448.82,636.12Z"/><path class="cls-2" d="M468.09,615.06h17.52q10.51,0,15.55,6.24t5,17.71q0,12.18-4.86,18.21t-15.07,6H468.09Zm18,40.44q5.83,0,8.69-3.79t2.84-12.7q0-7.82-2.81-12t-9.38-4.2H476.7v32.7Z"/><path class="cls-2" d="M547.55,641.6a11.33,11.33,0,0,1,2.45,7.7,12.68,12.68,0,0,1-5.11,10.58q-5.11,3.95-14.75,4T515.39,660a12.15,12.15,0,0,1-5.11-10.15,10.53,10.53,0,0,1,2.34-7,10,10,0,0,1,6.86-3.32v-.37a13,13,0,0,1-5.33-4.42,12.05,12.05,0,0,1-1.82-6.82,12.19,12.19,0,0,1,2-6.79,13.54,13.54,0,0,1,6-4.85,23.8,23.8,0,0,1,9.78-1.79,25.24,25.24,0,0,1,9.82,1.71,13.66,13.66,0,0,1,6.06,4.6,11.12,11.12,0,0,1,2,6.46,8.71,8.71,0,0,1-2.15,6.32,11.21,11.21,0,0,1-6.31,2.95v.37Q545.1,638.78,547.55,641.6Zm-8.94,12.48a5.87,5.87,0,0,0,2.77-4.85,4.25,4.25,0,0,0-1.79-3.65,17.55,17.55,0,0,0-6-2.34l-7.37-1.9a12.13,12.13,0,0,0-5.62,3,7,7,0,0,0-1.68,4.86,5.86,5.86,0,0,0,2.81,4.81q2.81,2.06,8.43,2.05T538.61,654.08Zm-15.26-30.29a4.84,4.84,0,0,0-2.41,4.27,4.62,4.62,0,0,0,1.57,3.46,9.31,9.31,0,0,0,4.42,2.16l6.13,1.46c4.23-1.76,6.35-4.16,6.35-7.23a4.71,4.71,0,0,0-2.41-4.16,12.8,12.8,0,0,0-6.86-1.53A12.38,12.38,0,0,0,523.35,623.79Z"/><path class="cls-2" d="M630.29,635.65a12.5,12.5,0,0,1,5.55,5,13.85,13.85,0,0,1,1.75,6.87,16,16,0,0,1-2.3,8.65,14.88,14.88,0,0,1-6.49,5.65,22.63,22.63,0,0,1-9.75,2q-10.29,0-15.73-6.36t-5.44-19.12q0-10.44,5.55-17.16t17.3-6.71a39.17,39.17,0,0,1,6.94.62,34.29,34.29,0,0,1,6.35,1.71V625a34.56,34.56,0,0,0-6.61-2.15,31.69,31.69,0,0,0-6.46-.62q-7.74,0-11.1,4.3T606.5,638c0,1.46,0,2.53.07,3.22h.36a8.09,8.09,0,0,1,4.38-5.44,19.28,19.28,0,0,1,9.35-2A21.42,21.42,0,0,1,630.29,635.65Zm-3.79,18.21A7.52,7.52,0,0,0,629,648a6.52,6.52,0,0,0-2.37-5.22c-1.58-1.33-4.13-2-7.63-2a13.47,13.47,0,0,0-7.23,1.82,10.44,10.44,0,0,0-4.23,5,11,11,0,0,0,4,6.46,12.72,12.72,0,0,0,7.55,2Q624,656.09,626.5,653.86Z"/><path class="cls-2" d="M648.25,615.06l2.7,27.23-.07,10.22h.88l6.78-21.75h6l6.86,21.75h.81V642.29l2.62-27.23h8.54l-5.62,48.18h-9.56l-6.35-19.71h-.58l-6.36,19.71h-9.56l-5.62-48.18Z"/><path class="cls-2" d="M685.85,639.88h8.32v5.48c0,3.74.93,6.47,2.81,8.17a11,11,0,0,0,7.7,2.56q5,0,7.63-3.11T715,642.44V615.06h8.62v27.38q0,21.39-18.91,21.39-8.61,0-13.87-4.28t-5.26-14.19A52.29,52.29,0,0,1,685.85,639.88Z"/><path class="cls-2" d="M760.6,663.24l-12-18.18-11.53,18.18H727.6L744,638.13l-15.19-23.07H739l10.73,16.21,10.37-16.21h9.34L754.25,638.2l16.49,25Z"/><path class="cls-2" d="M798.85,635.43a16.14,16.14,0,0,1,7.44,1.6A11.53,11.53,0,0,1,811,641.3a11.09,11.09,0,0,1,1.61,5.81,15.24,15.24,0,0,1-9.49,14.6,26.78,26.78,0,0,1-11.1,2.12,39,39,0,0,1-17.89-4.31V651a45.3,45.3,0,0,0,8.51,3.68,30.06,30.06,0,0,0,9.31,1.5q5.76,0,8.94-2.08a7,7,0,0,0,3.17-6.24q0-6.93-11-6.94a47.41,47.41,0,0,0-5.25.3,21.27,21.27,0,0,0-4.09.73v-6.36l18.1-12.84h-27v-7.67h36.28v9.05L795,635.57v.15A25.13,25.13,0,0,1,798.85,635.43Z"/><path class="cls-2" d="M879.75,726h-612a24,24,0,0,1-24-24V306a24,24,0,0,1,24-24h612a24,24,0,0,1,24,24V702A24,24,0,0,1,879.75,726Zm-612-432a12,12,0,0,0-12,12V702a12,12,0,0,0,12,12h612a12,12,0,0,0,12-12V306a12,12,0,0,0-12-12Z"/><path class="cls-2" d="M807.94,868.5h0l-468,0a22.52,22.52,0,0,1-22.5-22.5V720a4.49,4.49,0,0,1,4.5-4.5h504a4.5,4.5,0,0,1,4.5,4.5V846a22.5,22.5,0,0,1-22.5,22.5Zm-481.5-144V846a13.51,13.51,0,0,0,13.5,13.5l468,0h0a13.5,13.5,0,0,0,13.5-13.5V724.5Z"/><path class="cls-2" d="M825.94,292.5h-504a4.49,4.49,0,0,1-4.5-4.5V162a22.52,22.52,0,0,1,22.5-22.5H717.75a4.47,4.47,0,0,1,3.18,1.32l108.19,108a4.51,4.51,0,0,1,1.32,3.18v36A4.5,4.5,0,0,1,825.94,292.5Zm-499.5-9h495V253.87L715.89,148.5H339.94a13.51,13.51,0,0,0-13.5,13.5Z"/></svg>