<svg version="1" xmlns="http://www.w3.org/2000/svg" width="213.333" height="213.333" viewBox="0 0 160.000000 160.000000"><path d="M25.1 5.3c-1.3.6-3.3 2.4-4.4 3.9-2 2.7-2.1 4.1-2.1 61-.1 32.1.2 58.4.7 58.5.4.2 2.1 1 3.7 1.8 1.7.9 3 1.3 3 1 0-.3.8-.1 1.8.4s3.8 1.2 6.2 1.6c2.5.4 4.8.9 5.2 1.1.4.3 1.7.7 2.8 1 4.2.9 5.9 1.3 22.5 5.9 9.3 2.6 17.6 4.8 18.5 5 .8.2 4.9 1.2 9 2.4 19.6 5.5 30 8 31.4 7.5 1.6-.6 2.9-3.2 2.1-4.4-.7-1.1 11.4-9.3 13-8.7 3.9 1.6 4-.3 4-63.2 0-64.5.1-62.9-4.8-63.6-4.5-.5-13.3-1.6-17.2-2-4.6-.5-11.5-1.3-18.2-2.1-2.7-.3-6.6-.7-8.8-.9-2.2-.2-6-.7-8.5-1-2.4-.4-6.3-.8-8.5-1-2.2-.2-6-.7-8.5-1-2.5-.3-6.4-.7-8.7-1-5.5-.6-13.1-1.6-16.3-2.1-7.7-1.2-15.7-1.2-17.9-.1z"/></svg>