<?xml version="1.0" encoding="utf-8"?>
<!-- Generator: Adobe Illustrator 22.0.1, SVG Export Plug-In . SVG Version: 6.00 Build 0)  -->
<svg version="1.1" id="Layer_1" xmlns="http://www.w3.org/2000/svg" xmlns:xlink="http://www.w3.org/1999/xlink" x="0px" y="0px"
	 viewBox="0 0 415.2 375.1" style="enable-background:new 0 0 415.2 375.1;" xml:space="preserve">
<style type="text/css">
	.st0{fill:#FFFFFF;}
	.st1{fill:#DDDDDD;}
	.st2{fill:none;}
	.st3{enable-background:new    ;}
	.st4{fill:#1D1D1B;}
	.st5{fill:none;stroke:#DDDDDD;stroke-miterlimit:10;}
	.st6{fill:none;stroke:#1E1E1E;stroke-miterlimit:10;}
	.st7{fill:none;stroke:#1E1E1E;stroke-width:2;stroke-miterlimit:10;}
	.st8{fill:#2341C1;}
</style>
<rect x="12.9" y="13.1" class="st0" width="392.4" height="352.9"/>
<rect x="37.5" y="121.6" class="st1" width="202.4" height="21.6"/>
<rect x="37.1" y="93.4" class="st2" width="262.6" height="35.2"/>
<g class="st3">
	<path class="st4" d="M42.1,93.9H43l1.8,6.8l1.8-6.8h1.1l-2.3,8.6h-1l-1.8-6.7l-1.8,6.7h-1l-2.3-8.6h1.1l1.8,6.8L42.1,93.9z"/>
	<path class="st4" d="M48.8,102.5v-9.1h1V97c0.2-0.3,0.5-0.5,0.8-0.7s0.7-0.3,1.1-0.3c0.7,0,1.2,0.2,1.6,0.6c0.4,0.4,0.6,1,0.6,1.7
		v4.1h-1.1v-3.9c0-0.4-0.1-0.8-0.3-1.1c-0.2-0.3-0.6-0.4-1-0.4s-0.7,0.1-1,0.3c-0.3,0.2-0.5,0.5-0.6,0.8v4.2h-1.1V102.5z"/>
	<path class="st4" d="M60.2,102.5h-1V102c-0.1,0.1-0.4,0.3-0.7,0.4s-0.6,0.2-1,0.2c-0.7,0-1.2-0.2-1.6-0.5c-0.4-0.4-0.7-0.8-0.7-1.4
		s0.2-1,0.7-1.4s1-0.5,1.7-0.5c0.3,0,0.6,0.1,0.9,0.2s0.5,0.2,0.7,0.3v-0.8c0-0.4-0.1-0.7-0.4-1c-0.2-0.2-0.6-0.4-1-0.4
		c-0.7,0-1.1,0.3-1.3,0.9h-1c0.1-0.5,0.4-0.9,0.8-1.3c0.4-0.3,0.9-0.5,1.5-0.5c0.7,0,1.3,0.2,1.7,0.6s0.6,0.9,0.6,1.6L60.2,102.5
		L60.2,102.5z M59.2,100.9v-0.6c-0.1-0.2-0.3-0.4-0.6-0.6c-0.3-0.1-0.6-0.2-0.9-0.2c-0.4,0-0.8,0.1-1,0.3c-0.3,0.2-0.4,0.5-0.4,0.8
		c0,0.4,0.1,0.6,0.4,0.8c0.3,0.2,0.6,0.3,1,0.3c0.3,0,0.6-0.1,0.9-0.2C58.9,101.3,59.1,101.2,59.2,100.9z"/>
	<path class="st4" d="M62.2,100.9v-3.8h-1v-0.9h1v-1.6h1.1v1.6h1.5v0.9h-1.5v3.6c0,0.6,0.3,0.9,0.8,0.9c0.3,0,0.6-0.1,0.8-0.3v1
		c-0.3,0.1-0.6,0.2-1,0.2c-0.5,0-0.9-0.1-1.2-0.4C62.4,101.9,62.2,101.5,62.2,100.9z"/>
	<path class="st4" d="M70.5,93.9c0.1,0.1,0.2,0.3,0.2,0.5s-0.1,0.3-0.2,0.5s-0.3,0.2-0.5,0.2s-0.3-0.1-0.5-0.2
		c-0.1-0.1-0.2-0.3-0.2-0.5s0.1-0.3,0.2-0.5c0.1-0.1,0.3-0.2,0.5-0.2C70.2,93.7,70.3,93.8,70.5,93.9z M70.5,96.3v6.2h-1v-6.2H70.5z"
		/>
	<path class="st4" d="M71.9,100.8H73c0.2,0.6,0.7,1,1.5,1c0.4,0,0.7-0.1,0.9-0.2c0.2-0.2,0.4-0.4,0.4-0.7c0-0.4-0.3-0.7-0.9-0.9
		l-1.2-0.3c-1-0.3-1.5-0.8-1.5-1.6c0-0.5,0.2-1,0.6-1.3s1-0.5,1.6-0.5c0.7,0,1.2,0.2,1.6,0.5s0.7,0.7,0.8,1.3h-1
		C75.4,97.3,75,97,74.3,97c-0.3,0-0.6,0.1-0.8,0.2c-0.2,0.2-0.4,0.4-0.4,0.7c0,0.2,0.1,0.4,0.2,0.5s0.4,0.2,0.7,0.3l1.2,0.3
		c1.1,0.3,1.6,0.9,1.6,1.7c0,0.6-0.2,1-0.6,1.4s-1,0.5-1.7,0.5s-1.3-0.2-1.7-0.5C72.2,101.8,72,101.3,71.9,100.8z"/>
	<path class="st4" d="M83.1,104.9h-1l0.9-2.3l-2.4-6.3h1.1l1.8,4.9l1.8-4.9h1.1L83.1,104.9z"/>
	<path class="st4" d="M92,97c0.5,0.6,0.8,1.4,0.8,2.3c0,1-0.3,1.7-0.8,2.3c-0.5,0.6-1.2,0.9-2.1,0.9c-0.8,0-1.5-0.3-2.1-0.9
		c-0.5-0.6-0.8-1.4-0.8-2.3c0-1,0.3-1.7,0.8-2.3c0.5-0.6,1.2-0.9,2.1-0.9S91.5,96.4,92,97z M91.2,101c0.3-0.4,0.5-1,0.5-1.7
		s-0.2-1.2-0.5-1.7c-0.3-0.4-0.8-0.6-1.3-0.6c-0.6,0-1,0.2-1.3,0.6s-0.5,1-0.5,1.7s0.2,1.2,0.5,1.7c0.3,0.4,0.8,0.6,1.3,0.6
		C90.5,101.7,90.9,101.5,91.2,101z"/>
	<path class="st4" d="M99.2,96.3v6.2h-1.1v-0.8c-0.2,0.3-0.4,0.5-0.8,0.7c-0.3,0.2-0.7,0.3-1.1,0.3c-0.7,0-1.2-0.2-1.6-0.6
		s-0.6-1-0.6-1.7v-4.1h1.1v3.9c0,0.5,0.1,0.8,0.3,1.1c0.2,0.3,0.6,0.4,1,0.4s0.7-0.1,1-0.3s0.5-0.5,0.6-0.8v-4.2L99.2,96.3
		L99.2,96.3z"/>
	<path class="st4" d="M104.2,96.2v1.1c-0.2-0.1-0.4-0.2-0.7-0.2c-0.3,0-0.6,0.1-0.9,0.3c-0.3,0.2-0.4,0.5-0.5,0.9v4.2h-1v-6.2h1v0.8
		c0.1-0.3,0.3-0.5,0.6-0.7c0.3-0.2,0.6-0.3,0.9-0.3C103.9,96.1,104.1,96.2,104.2,96.2z"/>
	<path class="st4" d="M113,97.1c0.5-0.7,1.1-1,1.9-1c0.6,0,1.1,0.2,1.4,0.6s0.5,0.9,0.5,1.6v4.1h-1.1v-3.9c0-0.4-0.1-0.8-0.3-1.1
		c-0.2-0.3-0.5-0.4-0.9-0.4c-0.3,0-0.6,0.1-0.9,0.3c-0.3,0.2-0.4,0.5-0.5,0.8v4.3h-1v-3.9c0-0.4-0.1-0.8-0.3-1.1
		c-0.2-0.3-0.5-0.4-0.9-0.4c-0.3,0-0.6,0.1-0.9,0.3c-0.3,0.2-0.4,0.5-0.5,0.8v4.3h-1v-6.2h1V97c0.4-0.6,0.9-0.9,1.7-0.9
		C112.1,96.1,112.7,96.5,113,97.1z"/>
	<path class="st4" d="M123.1,97c0.5,0.6,0.8,1.4,0.8,2.3c0,1-0.3,1.7-0.8,2.3c-0.5,0.6-1.2,0.9-2.1,0.9c-0.8,0-1.5-0.3-2.1-0.9
		c-0.5-0.6-0.8-1.4-0.8-2.3c0-1,0.3-1.7,0.8-2.3c0.5-0.6,1.2-0.9,2.1-0.9S122.6,96.4,123.1,97z M122.4,101c0.3-0.4,0.5-1,0.5-1.7
		s-0.2-1.2-0.5-1.7c-0.3-0.4-0.8-0.6-1.3-0.6c-0.6,0-1,0.2-1.3,0.6s-0.5,1-0.5,1.7s0.2,1.2,0.5,1.7c0.3,0.4,0.8,0.6,1.3,0.6
		C121.6,101.7,122.1,101.5,122.4,101z"/>
	<path class="st4" d="M125.6,100.9v-3.8h-1v-0.9h1v-1.6h1.1v1.6h1.5v0.9h-1.5v3.6c0,0.6,0.3,0.9,0.8,0.9c0.3,0,0.6-0.1,0.8-0.3v1
		c-0.3,0.1-0.6,0.2-1,0.2c-0.5,0-0.9-0.1-1.2-0.4C125.8,101.9,125.6,101.5,125.6,100.9z"/>
	<path class="st4" d="M129.8,102.5v-9.1h1V97c0.2-0.3,0.5-0.5,0.8-0.7s0.7-0.3,1.1-0.3c0.7,0,1.2,0.2,1.6,0.6c0.4,0.4,0.6,1,0.6,1.7
		v4.1h-1.1v-3.9c0-0.4-0.1-0.8-0.3-1.1c-0.2-0.3-0.6-0.4-1-0.4s-0.7,0.1-1,0.3c-0.3,0.2-0.5,0.5-0.6,0.8v4.2h-1.1V102.5z"/>
	<path class="st4" d="M140.6,100.6h1c-0.1,0.6-0.4,1.1-0.8,1.4s-1,0.5-1.7,0.5c-0.8,0-1.5-0.3-2.1-0.9s-0.8-1.4-0.8-2.3
		s0.3-1.7,0.8-2.3c0.5-0.6,1.2-0.9,2-0.9s1.5,0.3,1.9,0.8c0.5,0.6,0.7,1.3,0.7,2.2v0.4h-4.4c0,0.7,0.2,1.2,0.5,1.6s0.8,0.6,1.3,0.6
		c0.4,0,0.7-0.1,1-0.3S140.5,101,140.6,100.6z M139,97c-0.5,0-0.9,0.2-1.2,0.5s-0.5,0.7-0.6,1.3h3.3c0-0.5-0.1-0.9-0.4-1.2
		C139.9,97.2,139.5,97,139,97z"/>
	<path class="st4" d="M146.2,96.2v1.1c-0.2-0.1-0.4-0.2-0.7-0.2s-0.6,0.1-0.9,0.3c-0.3,0.2-0.4,0.5-0.5,0.9v4.2h-1v-6.2h1v0.8
		c0.1-0.3,0.3-0.5,0.6-0.7s0.6-0.3,0.9-0.3C145.9,96.1,146.1,96.2,146.2,96.2z"/>
	<path class="st4" d="M147.3,96.6l0.9-1.4c-0.2,0-0.3-0.1-0.4-0.2c-0.1-0.1-0.2-0.3-0.2-0.5s0.1-0.4,0.2-0.5
		c0.1-0.1,0.3-0.2,0.5-0.2s0.4,0.1,0.5,0.2s0.2,0.3,0.2,0.6c0,0.2-0.1,0.5-0.3,0.9l-0.7,1.2L147.3,96.6L147.3,96.6z"/>
	<path class="st4" d="M149.3,100.8h1.1c0.2,0.6,0.7,1,1.5,1c0.4,0,0.7-0.1,0.9-0.2c0.2-0.2,0.4-0.4,0.4-0.7c0-0.4-0.3-0.7-0.9-0.9
		l-1.2-0.3c-1-0.3-1.5-0.8-1.5-1.6c0-0.5,0.2-1,0.6-1.3s1-0.5,1.6-0.5c0.7,0,1.2,0.2,1.6,0.5c0.4,0.3,0.7,0.7,0.8,1.3h-1
		c-0.2-0.6-0.6-0.9-1.4-0.9c-0.3,0-0.6,0.1-0.8,0.2c-0.2,0.2-0.4,0.4-0.4,0.7c0,0.2,0.1,0.4,0.2,0.5c0.1,0.1,0.4,0.2,0.7,0.3
		l1.2,0.3c1.1,0.3,1.6,0.9,1.6,1.7c0,0.6-0.2,1-0.6,1.4s-1,0.5-1.7,0.5s-1.3-0.2-1.7-0.5C149.6,101.8,149.4,101.3,149.3,100.8z"/>
	<path class="st4" d="M163.1,97.1c0.5-0.7,1.1-1,1.9-1c0.6,0,1.1,0.2,1.4,0.6s0.5,0.9,0.5,1.6v4.1h-1.1v-3.9c0-0.4-0.1-0.8-0.3-1.1
		c-0.2-0.3-0.5-0.4-0.9-0.4c-0.3,0-0.6,0.1-0.9,0.3c-0.3,0.2-0.4,0.5-0.5,0.8v4.3h-1v-3.9c0-0.4-0.1-0.8-0.3-1.1
		c-0.2-0.3-0.5-0.4-0.9-0.4c-0.3,0-0.6,0.1-0.9,0.3c-0.3,0.2-0.4,0.5-0.5,0.8v4.3h-1v-6.2h1V97c0.4-0.6,0.9-0.9,1.7-0.9
		C162.2,96.1,162.8,96.5,163.1,97.1z"/>
	<path class="st4" d="M173.2,102.5h-1V102c-0.1,0.1-0.4,0.3-0.7,0.4s-0.6,0.2-1,0.2c-0.7,0-1.2-0.2-1.6-0.5
		c-0.4-0.4-0.7-0.8-0.7-1.4s0.2-1,0.7-1.4s1-0.5,1.7-0.5c0.3,0,0.6,0.1,0.9,0.2s0.5,0.2,0.7,0.3v-0.8c0-0.4-0.1-0.7-0.4-1
		c-0.2-0.2-0.6-0.4-1-0.4c-0.7,0-1.1,0.3-1.3,0.9h-1c0.1-0.5,0.4-0.9,0.8-1.3c0.4-0.3,0.9-0.5,1.5-0.5c0.7,0,1.3,0.2,1.7,0.6
		s0.6,0.9,0.6,1.6v4.1L173.2,102.5L173.2,102.5z M172.2,100.9v-0.6c-0.1-0.2-0.3-0.4-0.6-0.6c-0.3-0.1-0.6-0.2-0.9-0.2
		c-0.4,0-0.8,0.1-1,0.3c-0.3,0.2-0.4,0.5-0.4,0.8c0,0.4,0.1,0.6,0.4,0.8c0.3,0.2,0.6,0.3,1,0.3c0.3,0,0.6-0.1,0.9-0.2
		C171.9,101.3,172.1,101.2,172.2,100.9z"/>
	<path class="st4" d="M176,93.9c0.1,0.1,0.2,0.3,0.2,0.5s-0.1,0.3-0.2,0.5s-0.3,0.2-0.5,0.2s-0.3-0.1-0.5-0.2
		c-0.1-0.1-0.2-0.3-0.2-0.5s0.1-0.3,0.2-0.5c0.1-0.1,0.3-0.2,0.5-0.2C175.7,93.7,175.9,93.8,176,93.9z M176.1,96.3v6.2h-1v-6.2
		H176.1z"/>
	<path class="st4" d="M182.1,102.5v-0.7c-0.2,0.2-0.4,0.4-0.7,0.6s-0.7,0.2-1,0.2c-0.9,0-1.6-0.3-2.1-0.9s-0.7-1.4-0.7-2.3
		s0.2-1.7,0.7-2.3c0.5-0.6,1.2-0.9,2.1-0.9c0.4,0,0.7,0.1,1,0.2s0.6,0.4,0.7,0.6v-3.6h1.1v9.1L182.1,102.5L182.1,102.5z
		 M182.1,100.6v-2.5c-0.2-0.3-0.4-0.6-0.7-0.7c-0.3-0.2-0.6-0.3-0.9-0.3c-0.6,0-1,0.2-1.4,0.6s-0.5,1-0.5,1.6c0,0.7,0.2,1.2,0.5,1.6
		s0.8,0.6,1.4,0.6c0.3,0,0.6-0.1,0.9-0.3C181.7,101.2,181.9,100.9,182.1,100.6z"/>
	<path class="st4" d="M188.9,100.6h1c-0.1,0.6-0.4,1.1-0.8,1.4s-1,0.5-1.7,0.5c-0.8,0-1.5-0.3-2.1-0.9s-0.8-1.4-0.8-2.3
		s0.3-1.7,0.8-2.3c0.5-0.6,1.2-0.9,2-0.9s1.5,0.3,1.9,0.8c0.5,0.6,0.7,1.3,0.7,2.2v0.4h-4.4c0,0.7,0.2,1.2,0.5,1.6s0.8,0.6,1.3,0.6
		c0.4,0,0.7-0.1,1-0.3S188.8,101,188.9,100.6z M187.4,97c-0.5,0-0.9,0.2-1.2,0.5s-0.5,0.7-0.6,1.3h3.3c0-0.5-0.1-0.9-0.4-1.2
		C188.2,97.2,187.9,97,187.4,97z"/>
	<path class="st4" d="M191.4,102.5v-6.2h1V97c0.2-0.3,0.5-0.5,0.8-0.7s0.7-0.3,1.1-0.3c0.7,0,1.2,0.2,1.6,0.6c0.4,0.4,0.6,1,0.6,1.7
		v4.1h-1.1v-3.9c0-0.4-0.1-0.8-0.3-1.1c-0.2-0.3-0.6-0.4-1-0.4s-0.7,0.1-1,0.3c-0.3,0.2-0.5,0.5-0.6,0.8v4.2h-1.1V102.5z"/>
	<path class="st4" d="M201.3,102.5v-6.2h1V97c0.2-0.3,0.5-0.5,0.8-0.7s0.7-0.3,1.1-0.3c0.7,0,1.2,0.2,1.6,0.6c0.4,0.4,0.6,1,0.6,1.7
		v4.1h-1.1v-3.9c0-0.4-0.1-0.8-0.3-1.1c-0.2-0.3-0.6-0.4-1-0.4s-0.7,0.1-1,0.3c-0.3,0.2-0.5,0.5-0.6,0.8v4.2h-1.1V102.5z"/>
	<path class="st4" d="M212.7,102.5h-1V102c-0.1,0.1-0.3,0.3-0.7,0.4c-0.3,0.1-0.6,0.2-1,0.2c-0.7,0-1.2-0.2-1.6-0.5
		c-0.4-0.4-0.7-0.8-0.7-1.4s0.2-1,0.7-1.4s1-0.5,1.7-0.5c0.3,0,0.6,0.1,0.9,0.2s0.5,0.2,0.7,0.3v-0.8c0-0.4-0.1-0.7-0.4-1
		c-0.2-0.2-0.6-0.4-1-0.4c-0.7,0-1.1,0.3-1.3,0.9h-1c0.1-0.5,0.4-0.9,0.8-1.3c0.4-0.3,0.9-0.5,1.5-0.5c0.7,0,1.3,0.2,1.7,0.6
		s0.6,0.9,0.6,1.6v4.1L212.7,102.5L212.7,102.5z M211.7,100.9v-0.6c-0.1-0.2-0.3-0.4-0.6-0.6c-0.3-0.1-0.6-0.2-0.9-0.2
		c-0.4,0-0.8,0.1-1,0.3s-0.4,0.5-0.4,0.8c0,0.4,0.1,0.6,0.4,0.8s0.6,0.3,1,0.3c0.3,0,0.6-0.1,0.9-0.2
		C211.4,101.3,211.6,101.2,211.7,100.9z"/>
	<path class="st4" d="M218.9,97.1c0.5-0.7,1.1-1,1.9-1c0.6,0,1.1,0.2,1.4,0.6s0.5,0.9,0.5,1.6v4.1h-1.1v-3.9c0-0.4-0.1-0.8-0.3-1.1
		s-0.5-0.4-0.9-0.4c-0.3,0-0.6,0.1-0.9,0.3c-0.3,0.2-0.4,0.5-0.5,0.8v4.3h-1v-3.9c0-0.4-0.1-0.8-0.3-1.1c-0.2-0.3-0.5-0.4-0.9-0.4
		c-0.3,0-0.6,0.1-0.9,0.3c-0.3,0.2-0.4,0.5-0.5,0.8v4.3h-1v-6.2h1V97c0.4-0.6,0.9-0.9,1.7-0.9C218,96.1,218.5,96.5,218.9,97.1z"/>
	<path class="st4" d="M228.4,100.6h1c-0.1,0.6-0.4,1.1-0.8,1.4s-1,0.5-1.7,0.5c-0.8,0-1.5-0.3-2.1-0.9s-0.8-1.4-0.8-2.3
		s0.3-1.7,0.8-2.3s1.2-0.9,2-0.9s1.5,0.3,1.9,0.8c0.5,0.6,0.7,1.3,0.7,2.2v0.4H225c0,0.7,0.2,1.2,0.5,1.6s0.8,0.6,1.3,0.6
		c0.4,0,0.7-0.1,1-0.3C228.2,101.2,228.3,101,228.4,100.6z M226.9,97c-0.5,0-0.9,0.2-1.2,0.5s-0.5,0.7-0.6,1.3h3.3
		c0-0.5-0.1-0.9-0.4-1.2C227.8,97.2,227.4,97,226.9,97z"/>
	<path class="st4" d="M235.2,96.2c0,0.1,0,0.2,0,0.3c0,0.1,0,0.2-0.1,0.3c0,0.1-0.1,0.2-0.1,0.3c0,0.1-0.1,0.2-0.2,0.3
		s-0.1,0.2-0.2,0.3s-0.1,0.1-0.2,0.3c-0.1,0.1-0.2,0.2-0.2,0.2s-0.1,0.1-0.2,0.3l-0.2,0.2c-0.4,0.4-0.6,0.8-0.6,1.1h-1
		c0-0.3,0.1-0.6,0.2-0.9c0.1-0.2,0.3-0.5,0.6-0.8c0-0.1,0.2-0.2,0.4-0.4c0.2-0.2,0.3-0.4,0.4-0.5s0.2-0.3,0.3-0.5s0.1-0.4,0.1-0.6
		c0-0.4-0.1-0.8-0.4-1c-0.3-0.3-0.7-0.4-1.1-0.4c-0.5,0-0.9,0.2-1.2,0.5s-0.5,0.7-0.5,1.3h-1.1c0.1-0.8,0.4-1.5,0.9-2
		s1.2-0.7,1.9-0.7c0.8,0,1.5,0.2,1.9,0.7C235,94.8,235.2,95.4,235.2,96.2z M232.1,102.3c-0.1-0.1-0.2-0.3-0.2-0.5s0.1-0.4,0.2-0.5
		c0.1-0.1,0.3-0.2,0.5-0.2s0.4,0.1,0.5,0.2s0.2,0.3,0.2,0.5s-0.1,0.4-0.2,0.5c-0.1,0.1-0.3,0.2-0.5,0.2
		C232.4,102.5,232.3,102.5,232.1,102.3z"/>
</g>
<rect x="37.1" y="58.4" class="st2" width="33.9" height="26.6"/>
<g class="st3">
	<path class="st4" d="M42.5,59.1V72h-1.6V61.1l-3.2,1.6V61l3.8-2L42.5,59.1L42.5,59.1z"/>
	<path class="st4" d="M45,71.8c-0.2-0.2-0.3-0.5-0.3-0.8s0.1-0.6,0.3-0.8c0.2-0.2,0.5-0.3,0.8-0.3s0.6,0.1,0.8,0.3
		c0.2,0.2,0.3,0.5,0.3,0.8s-0.1,0.6-0.3,0.8c-0.2,0.2-0.5,0.3-0.8,0.3C45.5,72.1,45.3,72,45,71.8z"/>
</g>
<rect x="37.1" y="167.4" class="st2" width="33.9" height="26.6"/>
<g class="st3">
	<path class="st4" d="M44.3,171.6c0-0.7-0.2-1.2-0.6-1.6c-0.4-0.4-1-0.6-1.7-0.6c-0.8,0-1.3,0.2-1.8,0.7c-0.4,0.5-0.7,1.1-0.7,1.9
		h-1.7c0.1-1.2,0.6-2.2,1.3-2.9c0.8-0.7,1.7-1.1,2.9-1.1s2.2,0.3,2.9,1s1,1.5,1,2.6c0,0.2,0,0.4-0.1,0.6c0,0.2-0.1,0.4-0.1,0.5
		c0,0.2-0.1,0.3-0.3,0.6c-0.1,0.2-0.2,0.4-0.3,0.5s-0.2,0.3-0.4,0.5s-0.4,0.4-0.4,0.5c-0.1,0.1-0.2,0.3-0.5,0.6s-0.4,0.5-0.5,0.5
		l-3.3,3.6h6.2v1.5h-8.4v-1.1l4.2-4.6c0.6-0.7,1.1-1.2,1.3-1.4s0.5-0.6,0.7-1.1C44.2,172.4,44.3,172,44.3,171.6z"/>
	<path class="st4" d="M48.1,180.8c-0.2-0.2-0.3-0.5-0.3-0.8s0.1-0.6,0.3-0.8s0.5-0.3,0.8-0.3s0.6,0.1,0.8,0.3s0.3,0.5,0.3,0.8
		s-0.1,0.6-0.3,0.8s-0.5,0.3-0.8,0.3S48.3,181,48.1,180.8z"/>
</g>
<rect x="40" y="243.9" class="st1" width="21.6" height="21.6"/>
<rect x="37.1" y="201.4" class="st2" width="262.6" height="35.2"/>
<g class="st3">
	<path class="st4" d="M38.2,201.9h5.5v1h-4.4v2.7h4v1h-4v2.9h4.4v1h-5.5V201.9z"/>
	<path class="st4" d="M45.3,210.5v-6.2h1v0.8c0.2-0.3,0.5-0.5,0.8-0.7s0.7-0.3,1.1-0.3c0.7,0,1.2,0.2,1.6,0.6c0.4,0.4,0.6,1,0.6,1.7
		v4.1h-1.1v-3.9c0-0.4-0.1-0.8-0.3-1.1s-0.6-0.4-1-0.4s-0.7,0.1-1,0.3s-0.5,0.5-0.6,0.8v4.2L45.3,210.5L45.3,210.5z"/>
	<path class="st4" d="M52.4,208.9v-3.8h-1v-0.9h1v-1.6h1.1v1.6H55v0.9h-1.5v3.6c0,0.6,0.3,0.9,0.8,0.9c0.3,0,0.6-0.1,0.8-0.3v1
		c-0.3,0.1-0.6,0.2-1,0.2c-0.5,0-0.9-0.1-1.2-0.4C52.6,209.9,52.4,209.5,52.4,208.9z"/>
	<path class="st4" d="M60.4,208.6h1c-0.1,0.6-0.4,1.1-0.8,1.4s-1,0.5-1.7,0.5c-0.8,0-1.5-0.3-2.1-0.9s-0.8-1.4-0.8-2.3
		c0-0.9,0.3-1.7,0.8-2.3s1.2-0.9,2-0.9s1.5,0.3,1.9,0.8c0.5,0.6,0.7,1.3,0.7,2.2v0.4H57c0,0.7,0.2,1.2,0.5,1.6
		c0.3,0.4,0.8,0.6,1.3,0.6c0.4,0,0.7-0.1,1-0.3S60.3,208.9,60.4,208.6z M58.9,205c-0.5,0-0.9,0.2-1.2,0.5s-0.5,0.7-0.6,1.3h3.3
		c0-0.5-0.1-0.9-0.4-1.2C59.8,205.2,59.4,205,58.9,205z"/>
	<path class="st4" d="M66.1,204.2v1.1c-0.2-0.1-0.4-0.2-0.7-0.2c-0.3,0-0.6,0.1-0.9,0.3s-0.4,0.5-0.5,0.9v4.2h-1v-6.2h1v0.8
		c0.1-0.3,0.3-0.5,0.6-0.7c0.3-0.2,0.6-0.3,0.9-0.3S66,204.2,66.1,204.2z"/>
	<path class="st4" d="M72.1,206.5v-0.9h0.6c0.5,0,0.9-0.1,1.2-0.4c0.3-0.3,0.5-0.6,0.5-1.1c0-0.4-0.1-0.8-0.4-1
		c-0.3-0.3-0.7-0.4-1.1-0.4s-0.9,0.1-1.2,0.4c-0.3,0.3-0.5,0.6-0.5,1.1H70c0.1-0.7,0.4-1.3,0.9-1.8s1.1-0.7,1.9-0.7s1.4,0.2,1.9,0.7
		c0.5,0.4,0.7,1,0.7,1.7c0,0.5-0.1,0.9-0.4,1.2c-0.2,0.4-0.6,0.6-1,0.7c0.5,0.1,0.8,0.4,1.1,0.7c0.3,0.4,0.4,0.8,0.4,1.3
		c0,0.7-0.2,1.3-0.7,1.8s-1.2,0.7-2,0.7s-1.5-0.2-2.1-0.7s-0.8-1.1-0.9-1.9h1.1c0.1,0.5,0.3,0.9,0.6,1.2s0.8,0.4,1.3,0.4
		s0.9-0.1,1.2-0.4c0.3-0.3,0.5-0.7,0.5-1.1c0-0.5-0.2-0.8-0.5-1.1s-0.7-0.4-1.3-0.4H72.1z"/>
	<path class="st4" d="M80.1,204.2v1.1c-0.2-0.1-0.4-0.2-0.7-0.2c-0.3,0-0.6,0.1-0.9,0.3s-0.4,0.5-0.5,0.9v4.2h-1v-6.2h1v0.8
		c0.1-0.3,0.3-0.5,0.6-0.7c0.3-0.2,0.6-0.3,0.9-0.3S80,204.2,80.1,204.2z"/>
	<path class="st4" d="M85.3,210.5v-0.7c-0.2,0.2-0.4,0.4-0.7,0.6s-0.7,0.2-1,0.2c-0.9,0-1.6-0.3-2.1-0.9s-0.7-1.4-0.7-2.3
		c0-0.9,0.2-1.7,0.7-2.3s1.2-0.9,2.1-0.9c0.4,0,0.7,0.1,1,0.2s0.6,0.4,0.7,0.6v-3.6h1.1v9.1L85.3,210.5L85.3,210.5z M85.3,208.6
		v-2.5c-0.2-0.3-0.4-0.6-0.7-0.7c-0.3-0.2-0.6-0.3-0.9-0.3c-0.6,0-1,0.2-1.4,0.6s-0.5,1-0.5,1.6c0,0.7,0.2,1.2,0.5,1.6
		s0.8,0.6,1.4,0.6c0.3,0,0.6-0.1,0.9-0.3C85,209.2,85.2,208.9,85.3,208.6z"/>
	<path class="st4" d="M87.5,212l0.9-1.5c-0.4-0.1-0.6-0.3-0.6-0.7c0-0.2,0.1-0.4,0.2-0.5s0.3-0.2,0.5-0.2s0.4,0.1,0.5,0.2
		c0.1,0.1,0.2,0.3,0.2,0.6s-0.1,0.6-0.3,0.9l-0.7,1.2H87.5z"/>
	<path class="st4" d="M96.1,205.8c-0.6,0-1.1,0.2-1.5,0.7h-0.9v-4.7h4.7v1h-3.8v2.6c0.4-0.4,0.9-0.5,1.6-0.5c0.8,0,1.4,0.3,1.9,0.8
		s0.8,1.2,0.8,2.1c0,0.8-0.3,1.5-0.8,2s-1.2,0.8-2,0.8s-1.5-0.2-2-0.7s-0.8-1.1-0.9-1.9h1.1c0.2,1.1,0.8,1.6,1.9,1.6
		c0.5,0,0.9-0.2,1.3-0.5s0.5-0.8,0.5-1.4s-0.2-1-0.5-1.4S96.7,205.8,96.1,205.8z"/>
	<path class="st4" d="M100.6,208.9v-3.8h-1v-0.9h1v-1.6h1.1v1.6h1.5v0.9h-1.5v3.6c0,0.6,0.3,0.9,0.8,0.9c0.3,0,0.6-0.1,0.8-0.3v1
		c-0.3,0.1-0.6,0.2-1,0.2c-0.5,0-0.9-0.1-1.2-0.4C100.8,209.9,100.6,209.5,100.6,208.9z"/>
	<path class="st4" d="M104.8,210.5v-9.1h1v3.7c0.2-0.3,0.5-0.5,0.8-0.7s0.7-0.3,1.1-0.3c0.7,0,1.2,0.2,1.6,0.6
		c0.4,0.4,0.6,1,0.6,1.7v4.1h-1.1v-3.9c0-0.4-0.1-0.8-0.3-1.1c-0.2-0.3-0.6-0.4-1-0.4s-0.7,0.1-1,0.3s-0.5,0.5-0.6,0.8v4.2
		L104.8,210.5L104.8,210.5z"/>
	<path class="st4" d="M119.2,210.5h-1V210c-0.1,0.1-0.4,0.3-0.7,0.4c-0.3,0.1-0.6,0.2-1,0.2c-0.7,0-1.2-0.2-1.6-0.5
		c-0.4-0.4-0.7-0.8-0.7-1.4c0-0.6,0.2-1,0.7-1.4s1-0.5,1.7-0.5c0.3,0,0.6,0.1,0.9,0.2s0.5,0.2,0.7,0.3v-0.8c0-0.4-0.1-0.7-0.4-1
		c-0.2-0.2-0.6-0.4-1-0.4c-0.7,0-1.1,0.3-1.3,0.9h-1c0.1-0.5,0.4-0.9,0.8-1.3c0.4-0.3,0.9-0.5,1.5-0.5c0.7,0,1.3,0.2,1.7,0.6
		c0.4,0.4,0.6,0.9,0.6,1.6v4.1L119.2,210.5L119.2,210.5z M118.2,208.9v-0.6c-0.1-0.2-0.3-0.4-0.6-0.6c-0.3-0.1-0.6-0.2-0.9-0.2
		c-0.4,0-0.8,0.1-1,0.3c-0.3,0.2-0.4,0.5-0.4,0.8c0,0.4,0.1,0.6,0.4,0.8s0.6,0.3,1,0.3c0.3,0,0.6-0.1,0.9-0.2
		C117.9,209.3,118.1,209.1,118.2,208.9z"/>
	<path class="st4" d="M121,210.5v-6.2h1v0.8c0.2-0.3,0.5-0.5,0.8-0.7s0.7-0.3,1.1-0.3c0.7,0,1.2,0.2,1.6,0.6c0.4,0.4,0.6,1,0.6,1.7
		v4.1H125v-3.9c0-0.4-0.1-0.8-0.3-1.1c-0.2-0.3-0.6-0.4-1-0.4s-0.7,0.1-1,0.3s-0.5,0.5-0.6,0.8v4.2L121,210.5L121,210.5z"/>
	<path class="st4" d="M131.9,210.5v-0.7c-0.2,0.2-0.4,0.4-0.7,0.6s-0.7,0.2-1,0.2c-0.9,0-1.6-0.3-2.1-0.9s-0.7-1.4-0.7-2.3
		c0-0.9,0.2-1.7,0.7-2.3s1.2-0.9,2.1-0.9c0.4,0,0.7,0.1,1,0.2s0.6,0.4,0.7,0.6v-3.6h1.1v9.1L131.9,210.5L131.9,210.5z M131.9,208.6
		v-2.5c-0.2-0.3-0.4-0.6-0.7-0.7c-0.3-0.2-0.6-0.3-0.9-0.3c-0.6,0-1,0.2-1.4,0.6s-0.5,1-0.5,1.6c0,0.7,0.2,1.2,0.5,1.6
		s0.8,0.6,1.4,0.6c0.3,0,0.6-0.1,0.9-0.3C131.6,209.2,131.8,208.9,131.9,208.6z"/>
	<path class="st4" d="M137.6,208.5h1.1c0.3,0.8,0.8,1.2,1.6,1.2c0.6,0,1.1-0.3,1.6-0.9c0.4-0.6,0.6-1.4,0.6-2.3c0,0,0-0.1,0-0.2
		c0-0.1,0-0.2,0-0.2c-0.1,0.4-0.4,0.8-0.8,1.1s-0.9,0.4-1.4,0.4c-0.8,0-1.5-0.3-2-0.8c-0.5-0.6-0.8-1.2-0.8-2s0.3-1.5,0.8-2.1
		s1.2-0.8,2.1-0.8c1.2,0,2,0.5,2.6,1.6c0.3,0.7,0.5,1.6,0.5,2.6c0,1.4-0.3,2.5-0.9,3.3c-0.6,0.8-1.3,1.3-2.3,1.3
		C138.9,210.6,138,209.9,137.6,208.5z M142.2,204.6c0-0.6-0.2-1-0.5-1.4s-0.8-0.5-1.3-0.5s-1,0.2-1.3,0.5s-0.5,0.8-0.5,1.4
		s0.2,1,0.5,1.4s0.8,0.6,1.3,0.6c0.6,0,1-0.2,1.3-0.5C142.1,205.7,142.2,205.2,142.2,204.6z"/>
	<path class="st4" d="M145.3,208.9v-3.8h-1v-0.9h1v-1.6h1.1v1.6h1.5v0.9h-1.5v3.6c0,0.6,0.3,0.9,0.8,0.9c0.3,0,0.6-0.1,0.8-0.3v1
		c-0.3,0.1-0.6,0.2-1,0.2c-0.5,0-0.9-0.1-1.2-0.4C145.4,209.9,145.3,209.5,145.3,208.9z"/>
	<path class="st4" d="M149.4,210.5v-9.1h1v3.7c0.2-0.3,0.5-0.5,0.8-0.7s0.7-0.3,1.1-0.3c0.7,0,1.2,0.2,1.6,0.6
		c0.4,0.4,0.6,1,0.6,1.7v4.1h-1.1v-3.9c0-0.4-0.1-0.8-0.3-1.1s-0.6-0.4-1-0.4s-0.7,0.1-1,0.3s-0.5,0.5-0.6,0.8v4.2L149.4,210.5
		L149.4,210.5z"/>
	<path class="st4" d="M159.7,209.7c-0.5-0.6-0.8-1.4-0.8-2.3c0-1,0.3-1.7,0.8-2.3s1.2-0.9,2-0.9c0.7,0,1.2,0.2,1.7,0.5
		c0.4,0.4,0.7,0.8,0.8,1.5h-1.1c-0.1-0.3-0.2-0.6-0.5-0.8c-0.2-0.2-0.6-0.3-0.9-0.3c-0.5,0-1,0.2-1.3,0.6c-0.3,0.4-0.5,1-0.5,1.7
		s0.2,1.2,0.5,1.7c0.3,0.4,0.7,0.6,1.3,0.6c0.4,0,0.7-0.1,0.9-0.3s0.4-0.5,0.5-0.8h1.1c-0.1,0.6-0.4,1.1-0.8,1.5
		c-0.4,0.4-1,0.5-1.7,0.5C160.9,210.6,160.2,210.3,159.7,209.7z"/>
	<path class="st4" d="M165.6,210.5v-9.1h1v3.7c0.2-0.3,0.5-0.5,0.8-0.7s0.7-0.3,1.1-0.3c0.7,0,1.2,0.2,1.6,0.6
		c0.4,0.4,0.6,1,0.6,1.7v4.1h-1.1v-3.9c0-0.4-0.1-0.8-0.3-1.1s-0.6-0.4-1-0.4s-0.7,0.1-1,0.3s-0.5,0.5-0.6,0.8v4.2L165.6,210.5
		L165.6,210.5z"/>
	<path class="st4" d="M176.9,210.5h-1V210c-0.1,0.1-0.4,0.3-0.7,0.4c-0.3,0.1-0.6,0.2-1,0.2c-0.7,0-1.2-0.2-1.6-0.5
		c-0.4-0.4-0.7-0.8-0.7-1.4c0-0.6,0.2-1,0.7-1.4s1-0.5,1.7-0.5c0.3,0,0.6,0.1,0.9,0.2s0.5,0.2,0.7,0.3v-0.8c0-0.4-0.1-0.7-0.4-1
		c-0.2-0.2-0.6-0.4-1-0.4c-0.7,0-1.1,0.3-1.3,0.9h-1c0.1-0.5,0.4-0.9,0.8-1.3c0.4-0.3,0.9-0.5,1.5-0.5c0.7,0,1.3,0.2,1.7,0.6
		c0.4,0.4,0.6,0.9,0.6,1.6v4.1L176.9,210.5L176.9,210.5z M175.9,208.9v-0.6c-0.1-0.2-0.3-0.4-0.6-0.6c-0.3-0.1-0.6-0.2-0.9-0.2
		c-0.4,0-0.8,0.1-1,0.3c-0.3,0.2-0.4,0.5-0.4,0.8c0,0.4,0.1,0.6,0.4,0.8c0.3,0.2,0.6,0.3,1,0.3c0.3,0,0.6-0.1,0.9-0.2
		C175.7,209.3,175.8,209.1,175.9,208.9z"/>
	<path class="st4" d="M181.9,204.2v1.1c-0.2-0.1-0.4-0.2-0.7-0.2s-0.6,0.1-0.9,0.3c-0.3,0.2-0.4,0.5-0.5,0.9v4.2h-1v-6.2h1v0.8
		c0.1-0.3,0.3-0.5,0.6-0.7s0.6-0.3,0.9-0.3C181.6,204.1,181.8,204.2,181.9,204.2z"/>
	<path class="st4" d="M187.6,210.5h-1V210c-0.1,0.1-0.4,0.3-0.7,0.4c-0.3,0.1-0.6,0.2-1,0.2c-0.7,0-1.2-0.2-1.6-0.5
		c-0.4-0.4-0.7-0.8-0.7-1.4c0-0.6,0.2-1,0.7-1.4s1-0.5,1.7-0.5c0.3,0,0.6,0.1,0.9,0.2s0.5,0.2,0.7,0.3v-0.8c0-0.4-0.1-0.7-0.4-1
		c-0.2-0.2-0.6-0.4-1-0.4c-0.7,0-1.1,0.3-1.3,0.9h-1c0.1-0.5,0.4-0.9,0.8-1.3c0.4-0.3,0.9-0.5,1.5-0.5c0.7,0,1.3,0.2,1.7,0.6
		c0.4,0.4,0.6,0.9,0.6,1.6v4.1L187.6,210.5L187.6,210.5z M186.6,208.9v-0.6c-0.1-0.2-0.3-0.4-0.6-0.6c-0.3-0.1-0.6-0.2-0.9-0.2
		c-0.4,0-0.8,0.1-1,0.3c-0.3,0.2-0.4,0.5-0.4,0.8c0,0.4,0.1,0.6,0.4,0.8c0.3,0.2,0.6,0.3,1,0.3c0.3,0,0.6-0.1,0.9-0.2
		C186.3,209.3,186.5,209.1,186.6,208.9z"/>
	<path class="st4" d="M189.7,209.7c-0.5-0.6-0.8-1.4-0.8-2.3c0-1,0.3-1.7,0.8-2.3s1.2-0.9,2-0.9c0.7,0,1.2,0.2,1.7,0.5
		c0.4,0.4,0.7,0.8,0.8,1.5h-1.1c-0.1-0.3-0.2-0.6-0.5-0.8c-0.2-0.2-0.6-0.3-0.9-0.3c-0.5,0-1,0.2-1.3,0.6c-0.3,0.4-0.5,1-0.5,1.7
		s0.2,1.2,0.5,1.7c0.3,0.4,0.7,0.6,1.3,0.6c0.4,0,0.7-0.1,0.9-0.3s0.4-0.5,0.5-0.8h1.1c-0.1,0.6-0.4,1.1-0.8,1.5
		c-0.4,0.4-1,0.5-1.7,0.5C190.9,210.6,190.2,210.3,189.7,209.7z"/>
	<path class="st4" d="M195.9,208.9v-3.8h-1v-0.9h1v-1.6h1.1v1.6h1.5v0.9H197v3.6c0,0.6,0.3,0.9,0.8,0.9c0.3,0,0.6-0.1,0.8-0.3v1
		c-0.3,0.1-0.6,0.2-1,0.2c-0.5,0-0.9-0.1-1.2-0.4C196.1,209.9,195.9,209.5,195.9,208.9z"/>
	<path class="st4" d="M203.9,208.6h1c-0.1,0.6-0.4,1.1-0.8,1.4s-1,0.5-1.7,0.5c-0.8,0-1.5-0.3-2.1-0.9s-0.8-1.4-0.8-2.3
		c0-0.9,0.3-1.7,0.8-2.3s1.2-0.9,2-0.9s1.5,0.3,1.9,0.8c0.5,0.6,0.7,1.3,0.7,2.2v0.4h-4.4c0,0.7,0.2,1.2,0.5,1.6
		c0.3,0.4,0.8,0.6,1.3,0.6c0.4,0,0.7-0.1,1-0.3S203.8,208.9,203.9,208.6z M202.4,205c-0.5,0-0.9,0.2-1.2,0.5s-0.5,0.7-0.6,1.3h3.3
		c0-0.5-0.1-0.9-0.4-1.2C203.3,205.2,202.9,205,202.4,205z"/>
	<path class="st4" d="M209.6,204.2v1.1c-0.2-0.1-0.4-0.2-0.7-0.2s-0.6,0.1-0.9,0.3c-0.3,0.2-0.4,0.5-0.5,0.9v4.2h-1v-6.2h1v0.8
		c0.1-0.3,0.3-0.5,0.6-0.7s0.6-0.3,0.9-0.3S209.5,204.2,209.6,204.2z"/>
	<path class="st4" d="M210.3,208.8h1.1c0.2,0.6,0.7,1,1.5,1c0.4,0,0.7-0.1,0.9-0.2c0.2-0.2,0.4-0.4,0.4-0.7c0-0.4-0.3-0.7-0.9-0.9
		l-1.2-0.3c-1-0.3-1.5-0.8-1.5-1.6c0-0.5,0.2-1,0.6-1.3s1-0.5,1.6-0.5c0.7,0,1.2,0.2,1.6,0.5c0.4,0.3,0.7,0.7,0.8,1.3h-1
		c-0.2-0.6-0.6-0.9-1.4-0.9c-0.3,0-0.6,0.1-0.8,0.2c-0.2,0.2-0.3,0.4-0.3,0.7c0,0.2,0.1,0.4,0.2,0.5c0.1,0.1,0.4,0.2,0.7,0.3
		l1.2,0.3c1.1,0.3,1.6,0.9,1.6,1.7c0,0.6-0.2,1-0.6,1.4c-0.4,0.3-1,0.5-1.7,0.5s-1.3-0.2-1.7-0.5
		C210.7,209.8,210.4,209.3,210.3,208.8z"/>
	<path class="st4" d="M222.9,201.4v1c-0.2-0.1-0.4-0.2-0.7-0.2s-0.6,0.1-0.7,0.3s-0.3,0.5-0.3,0.8v1h1.4v0.9h-1.4v5.3h-1v-5.3h-1.1
		v-0.9h1.1v-1c0-0.6,0.2-1.1,0.5-1.4c0.4-0.4,0.8-0.5,1.4-0.5C222.4,201.2,222.6,201.3,222.9,201.4z"/>
	<path class="st4" d="M227,204.2v1.1c-0.2-0.1-0.4-0.2-0.7-0.2s-0.6,0.1-0.9,0.3c-0.3,0.2-0.4,0.5-0.5,0.9v4.2h-1v-6.2h1v0.8
		c0.1-0.3,0.3-0.5,0.6-0.7s0.6-0.3,0.9-0.3S226.9,204.2,227,204.2z"/>
	<path class="st4" d="M232.6,205c0.5,0.6,0.8,1.4,0.8,2.3c0,1-0.3,1.7-0.8,2.3s-1.2,0.9-2.1,0.9s-1.5-0.3-2.1-0.9
		c-0.5-0.6-0.8-1.4-0.8-2.3c0-1,0.3-1.7,0.8-2.3s1.2-0.9,2.1-0.9S232.1,204.4,232.6,205z M231.8,209c0.3-0.4,0.5-1,0.5-1.7
		s-0.2-1.2-0.5-1.7c-0.3-0.4-0.8-0.6-1.3-0.6s-1,0.2-1.3,0.6c-0.3,0.4-0.5,1-0.5,1.7s0.2,1.2,0.5,1.7c0.3,0.4,0.8,0.6,1.3,0.6
		S231.5,209.5,231.8,209z"/>
	<path class="st4" d="M239.2,205.1c0.5-0.7,1.1-1,1.9-1c0.6,0,1.1,0.2,1.4,0.6s0.5,0.9,0.5,1.6v4.1h-1v-3.9c0-0.4-0.1-0.8-0.3-1.1
		s-0.5-0.4-0.9-0.4c-0.3,0-0.6,0.1-0.9,0.3c-0.3,0.2-0.4,0.5-0.5,0.8v4.3h-1v-3.9c0-0.4-0.1-0.8-0.3-1.1s-0.5-0.4-0.9-0.4
		c-0.3,0-0.6,0.1-0.9,0.3c-0.3,0.2-0.4,0.5-0.5,0.8v4.3h-1v-6.2h1v0.7c0.4-0.6,0.9-0.9,1.7-0.9C238.3,204.1,238.9,204.5,239.2,205.1
		z"/>
	<path class="st4" d="M249.8,212.8h-1l0.9-2.3l-2.4-6.3h1.1l1.8,4.9l1.8-4.9h1.1L249.8,212.8z"/>
	<path class="st4" d="M258.7,205c0.5,0.6,0.8,1.4,0.8,2.3c0,1-0.3,1.7-0.8,2.3s-1.2,0.9-2.1,0.9c-0.8,0-1.5-0.3-2.1-0.9
		c-0.5-0.6-0.8-1.4-0.8-2.3c0-1,0.3-1.7,0.8-2.3s1.2-0.9,2.1-0.9C257.5,204.1,258.1,204.4,258.7,205z M257.9,209
		c0.3-0.4,0.5-1,0.5-1.7s-0.2-1.2-0.5-1.7s-0.8-0.6-1.3-0.6c-0.6,0-1,0.2-1.3,0.6s-0.5,1-0.5,1.7s0.2,1.2,0.5,1.7s0.8,0.6,1.3,0.6
		C257.2,209.7,257.6,209.5,257.9,209z"/>
	<path class="st4" d="M265.8,204.2v6.2h-1.1v-0.8c-0.2,0.3-0.4,0.5-0.8,0.7c-0.3,0.2-0.7,0.3-1.1,0.3c-0.7,0-1.2-0.2-1.6-0.6
		c-0.4-0.4-0.6-1-0.6-1.7v-4.1h1.1v3.9c0,0.5,0.1,0.8,0.3,1.1c0.2,0.3,0.6,0.4,1,0.4s0.7-0.1,1-0.3s0.5-0.5,0.6-0.8v-4.2
		L265.8,204.2L265.8,204.2z"/>
	<path class="st4" d="M270.9,204.2v1.1c-0.2-0.1-0.4-0.2-0.7-0.2c-0.3,0-0.6,0.1-0.9,0.3s-0.4,0.5-0.5,0.9v4.2h-1v-6.2h1v0.8
		c0.1-0.3,0.3-0.5,0.6-0.7c0.3-0.2,0.6-0.3,0.9-0.3C270.6,204.1,270.8,204.2,270.9,204.2z"/>
</g>
<g class="st3">
	<path class="st4" d="M39.1,226.5v3.1h-1V221h1v0.7c0.2-0.2,0.4-0.4,0.7-0.6c0.3-0.2,0.7-0.2,1-0.2c0.9,0,1.6,0.3,2.1,0.9
		c0.5,0.6,0.7,1.4,0.7,2.3c0,0.9-0.2,1.7-0.7,2.3s-1.2,0.9-2.1,0.9c-0.4,0-0.7-0.1-1-0.2S39.3,226.8,39.1,226.5z M39.1,222.9v2.5
		c0.2,0.3,0.4,0.6,0.7,0.7c0.3,0.2,0.6,0.3,0.9,0.3c0.6,0,1-0.2,1.4-0.6s0.5-1,0.5-1.6c0-0.7-0.2-1.2-0.5-1.6s-0.8-0.6-1.4-0.6
		c-0.3,0-0.6,0.1-0.9,0.3C39.5,222.3,39.3,222.6,39.1,222.9z"/>
	<path class="st4" d="M49.6,227.3h-1v-0.5c-0.1,0.1-0.4,0.3-0.7,0.4c-0.3,0.1-0.6,0.2-1,0.2c-0.7,0-1.2-0.2-1.6-0.5
		c-0.4-0.4-0.7-0.8-0.7-1.4c0-0.6,0.2-1,0.7-1.4s1-0.5,1.7-0.5c0.3,0,0.6,0.1,0.9,0.2s0.5,0.2,0.7,0.3v-0.8c0-0.4-0.1-0.7-0.4-1
		c-0.2-0.2-0.6-0.4-1-0.4c-0.7,0-1.1,0.3-1.3,0.9h-1c0.1-0.5,0.4-0.9,0.8-1.3c0.4-0.3,0.9-0.5,1.5-0.5c0.7,0,1.3,0.2,1.7,0.6
		c0.4,0.4,0.6,0.9,0.6,1.6L49.6,227.3L49.6,227.3z M48.6,225.7v-0.6c-0.1-0.2-0.3-0.4-0.6-0.6c-0.3-0.1-0.6-0.2-0.9-0.2
		c-0.4,0-0.8,0.1-1,0.3c-0.3,0.2-0.4,0.5-0.4,0.8c0,0.4,0.1,0.6,0.4,0.8c0.3,0.2,0.6,0.3,1,0.3c0.3,0,0.6-0.1,0.9-0.2
		C48.3,226.1,48.5,225.9,48.6,225.7z"/>
	<path class="st4" d="M50.9,225.6H52c0.2,0.6,0.7,1,1.5,1c0.4,0,0.7-0.1,0.9-0.2c0.2-0.2,0.4-0.4,0.4-0.7c0-0.4-0.3-0.7-0.9-0.9
		l-1.2-0.3c-1-0.3-1.5-0.8-1.5-1.6c0-0.5,0.2-1,0.6-1.3s1-0.5,1.6-0.5c0.7,0,1.2,0.2,1.6,0.5c0.4,0.3,0.7,0.7,0.8,1.3h-1
		c-0.2-0.6-0.6-0.9-1.4-0.9c-0.3,0-0.6,0.1-0.8,0.2c-0.2,0.2-0.4,0.4-0.4,0.7c0,0.2,0.1,0.4,0.2,0.5c0.1,0.1,0.4,0.2,0.7,0.3
		l1.2,0.3c1.1,0.3,1.6,0.9,1.6,1.7c0,0.6-0.2,1-0.6,1.4s-1,0.5-1.7,0.5s-1.3-0.2-1.7-0.5C51.3,226.6,51,226.1,50.9,225.6z"/>
	<path class="st4" d="M56.7,225.6h1.1c0.2,0.6,0.7,1,1.5,1c0.4,0,0.7-0.1,0.9-0.2c0.2-0.2,0.4-0.4,0.4-0.7c0-0.4-0.3-0.7-0.9-0.9
		l-1.2-0.3c-1-0.3-1.5-0.8-1.5-1.6c0-0.5,0.2-1,0.6-1.3s1-0.5,1.6-0.5c0.7,0,1.2,0.2,1.6,0.5c0.4,0.3,0.7,0.7,0.8,1.3h-1
		c-0.2-0.6-0.6-0.9-1.4-0.9c-0.3,0-0.6,0.1-0.8,0.2c-0.2,0.2-0.4,0.4-0.4,0.7c0,0.2,0.1,0.4,0.2,0.5c0.1,0.1,0.4,0.2,0.7,0.3
		l1.2,0.3c1.1,0.3,1.6,0.9,1.6,1.7c0,0.6-0.2,1-0.6,1.4s-1,0.5-1.7,0.5s-1.3-0.2-1.7-0.5C57.1,226.6,56.8,226.1,56.7,225.6z"/>
	<path class="st4" d="M66.9,221l1.3,4.7l1.4-4.7h1l-1.8,6.2h-1l-1.3-4.7l-1.3,4.7h-1l-1.8-6.2h1l1.4,4.7l1.3-4.7H66.9z"/>
	<path class="st4" d="M76.2,221.8c0.5,0.6,0.8,1.4,0.8,2.3c0,1-0.3,1.7-0.8,2.3s-1.2,0.9-2.1,0.9c-0.8,0-1.5-0.3-2.1-0.9
		c-0.5-0.6-0.8-1.4-0.8-2.3c0-1,0.3-1.7,0.8-2.3s1.2-0.9,2.1-0.9C75,220.9,75.7,221.2,76.2,221.8z M75.4,225.8
		c0.3-0.4,0.5-1,0.5-1.7s-0.2-1.2-0.5-1.7c-0.3-0.4-0.8-0.6-1.3-0.6c-0.6,0-1,0.2-1.3,0.6c-0.3,0.4-0.5,1-0.5,1.7s0.2,1.2,0.5,1.7
		c0.3,0.4,0.8,0.6,1.3,0.6C74.7,226.5,75.1,226.3,75.4,225.8z"/>
	<path class="st4" d="M81.6,221v1.1c-0.2-0.1-0.4-0.2-0.7-0.2c-0.3,0-0.6,0.1-0.9,0.3s-0.4,0.5-0.5,0.9v4.2h-1V221h1v0.8
		c0.1-0.3,0.3-0.5,0.6-0.7c0.3-0.2,0.6-0.3,0.9-0.3C81.3,220.9,81.5,221,81.6,221z"/>
	<path class="st4" d="M86.8,227.3v-0.7c-0.2,0.2-0.4,0.4-0.7,0.6s-0.7,0.2-1,0.2c-0.9,0-1.6-0.3-2.1-0.9s-0.7-1.4-0.7-2.3
		c0-0.9,0.2-1.7,0.7-2.3s1.2-0.9,2.1-0.9c0.4,0,0.7,0.1,1,0.2s0.6,0.4,0.7,0.6v-3.6h1.1v9.1L86.8,227.3L86.8,227.3z M86.8,225.4
		v-2.5c-0.2-0.3-0.4-0.6-0.7-0.7c-0.3-0.2-0.6-0.3-0.9-0.3c-0.6,0-1,0.2-1.4,0.6s-0.5,1-0.5,1.6c0,0.7,0.2,1.2,0.5,1.6
		s0.8,0.6,1.4,0.6c0.3,0,0.6-0.1,0.9-0.3C86.5,226,86.7,225.7,86.8,225.4z"/>
</g>
<rect x="76" y="243.9" class="st1" width="21.6" height="21.6"/>
<rect x="112" y="243.9" class="st1" width="21.6" height="21.6"/>
<line class="st5" x1="12.3" y1="32.3" x2="405" y2="32.3"/>
<circle class="st1" cx="25.8" cy="22.8" r="3.4"/>
<circle class="st1" cx="38.3" cy="22.8" r="3.4"/>
<circle class="st1" cx="50" cy="22.8" r="3.4"/>
<rect x="12.9" y="13.1" class="st6" width="393.3" height="353.9"/>
<polyline class="st7" points="13.3,366 405.3,366 405.3,12.6 "/>
<g>
	<path class="st1" d="M134.7,331.9H57.1c-9.4,0-17.1-7.7-17.1-17.1l0,0c0-9.4,7.7-17.1,17.1-17.1h77.5c9.4,0,17.1,7.7,17.1,17.1l0,0
		C151.8,324.3,144.1,331.9,134.7,331.9z"/>
</g>
<g>
	<g class="st3">
		<path class="st8" d="M72.9,318.6c-0.7-0.8-1.1-1.9-1.1-3.2c0-1.3,0.4-2.4,1.1-3.2c0.7-0.8,1.6-1.2,2.8-1.2c0.9,0,1.6,0.2,2.2,0.7
			s1,1.1,1.1,1.9h-1.1c-0.4-1.1-1.1-1.7-2.3-1.7c-0.8,0-1.5,0.3-2,0.9s-0.8,1.5-0.8,2.5s0.3,1.8,0.8,2.5s1.2,1,2,1
			c1.1,0,1.9-0.6,2.3-1.7H79c-0.2,0.8-0.6,1.5-1.1,1.9c-0.6,0.5-1.3,0.7-2.2,0.7C74.6,319.8,73.7,319.4,72.9,318.6z"/>
		<path class="st8" d="M85,314.3c0.5,0.6,0.8,1.4,0.8,2.3c0,1-0.3,1.7-0.8,2.3c-0.5,0.6-1.2,0.9-2.1,0.9c-0.8,0-1.5-0.3-2.1-0.9
			c-0.5-0.6-0.8-1.4-0.8-2.3c0-1,0.3-1.7,0.8-2.3c0.5-0.6,1.2-0.9,2.1-0.9S84.5,313.7,85,314.3z M84.2,318.3c0.3-0.4,0.5-1,0.5-1.7
			s-0.2-1.2-0.5-1.7c-0.3-0.4-0.8-0.6-1.3-0.6c-0.6,0-1,0.2-1.3,0.6s-0.5,1-0.5,1.7s0.2,1.2,0.5,1.7c0.3,0.4,0.8,0.6,1.3,0.6
			C83.5,318.9,83.9,318.7,84.2,318.3z"/>
		<path class="st8" d="M87.2,319.7v-6.2h1v0.8c0.2-0.3,0.5-0.5,0.8-0.7s0.7-0.3,1.1-0.3c0.7,0,1.2,0.2,1.6,0.6s0.6,1,0.6,1.7v4.1
			h-1.1v-3.9c0-0.4-0.1-0.8-0.3-1.1c-0.2-0.3-0.6-0.4-1-0.4s-0.7,0.1-1,0.3c-0.3,0.2-0.5,0.5-0.6,0.8v4.2h-1.1V319.7z"/>
		<path class="st8" d="M94.3,318.1v-3.8h-1v-0.9h1v-1.6h1.1v1.6h1.5v0.9h-1.5v3.6c0,0.6,0.3,0.9,0.8,0.9c0.3,0,0.6-0.1,0.8-0.3v1
			c-0.3,0.1-0.6,0.2-1,0.2c-0.5,0-0.9-0.1-1.2-0.4C94.5,319.1,94.3,318.7,94.3,318.1z"/>
		<path class="st8" d="M99.5,311.1c0.1,0.1,0.2,0.3,0.2,0.5s-0.1,0.3-0.2,0.5s-0.3,0.2-0.5,0.2s-0.3-0.1-0.5-0.2
			c-0.1-0.1-0.2-0.3-0.2-0.5s0.1-0.3,0.2-0.5c0.1-0.1,0.3-0.2,0.5-0.2S99.3,311,99.5,311.1z M99.5,313.5v6.2h-1v-6.2H99.5z"/>
		<path class="st8" d="M101.4,319.7v-6.2h1v0.8c0.2-0.3,0.5-0.5,0.8-0.7s0.7-0.3,1.1-0.3c0.7,0,1.2,0.2,1.6,0.6s0.6,1,0.6,1.7v4.1
			h-1.1v-3.9c0-0.4-0.1-0.8-0.3-1.1c-0.2-0.3-0.6-0.4-1-0.4s-0.7,0.1-1,0.3c-0.3,0.2-0.5,0.5-0.6,0.8v4.2h-1.1V319.7z"/>
		<path class="st8" d="M113.2,313.5v6.2h-1.1v-0.8c-0.2,0.3-0.4,0.5-0.8,0.7c-0.3,0.2-0.7,0.3-1.1,0.3c-0.7,0-1.2-0.2-1.6-0.6
			s-0.6-1-0.6-1.7v-4.1h1.1v3.9c0,0.5,0.1,0.8,0.3,1.1c0.2,0.3,0.6,0.4,1,0.4s0.7-0.1,1-0.3s0.5-0.5,0.6-0.8v-4.2h1.2V313.5z"/>
		<path class="st8" d="M119,317.8h1c-0.1,0.6-0.4,1.1-0.8,1.4s-1,0.5-1.7,0.5c-0.8,0-1.5-0.3-2.1-0.9s-0.8-1.4-0.8-2.3
			s0.3-1.7,0.8-2.3c0.5-0.6,1.2-0.9,2-0.9s1.5,0.3,1.9,0.8c0.5,0.6,0.7,1.3,0.7,2.2v0.4h-4.4c0,0.7,0.2,1.2,0.5,1.6s0.8,0.6,1.3,0.6
			c0.4,0,0.7-0.1,1-0.3S118.9,318.2,119,317.8z M117.5,314.3c-0.5,0-0.9,0.2-1.2,0.5c-0.3,0.3-0.5,0.7-0.6,1.3h3.3
			c0-0.5-0.1-0.9-0.4-1.2C118.3,314.4,118,314.3,117.5,314.3z"/>
	</g>
</g>
</svg>
