<?xml version="1.0" encoding="UTF-8"?>
<svg id="OUTLINES" xmlns="http://www.w3.org/2000/svg" viewBox="0 0 1152 1008">
  <defs>
    <style>
      .cls-1 {
        fill: #000f7d;
      }

      .cls-2 {
        fill: #fff;
      }
    </style>
  </defs>
  <rect class="cls-2" x="363" y="335.97" width="444" height="201.03" rx="24" ry="24"/>
  <g>
    <path class="cls-1" d="M575.79,647.05c-12.68,0-23,10.32-23,23s10.32,23,23,23,23-10.32,23-23-10.32-23-23-23Zm0,36c-7.17,0-13-5.83-13-13s5.83-13,13-13,13,5.83,13,13-5.83,13-13,13Z"/>
    <polygon class="cls-1" points="385.01 372.06 393.88 372.06 393.88 394.65 399.68 394.65 399.68 372.06 408.59 372.06 408.59 367.02 385.01 367.02 385.01 372.06"/>
    <path class="cls-1" d="M430.24,394.65v-13.14c0-2.25-.62-4.05-1.87-5.4s-2.99-2.03-5.24-2.03-4.08,.77-5.4,2.29v-10.98h-5.58v29.25h5.58v-12.73c.21-.87,.65-1.55,1.33-2.05,.67-.5,1.45-.74,2.32-.74,1.08,0,1.9,.32,2.45,.97,.55,.64,.83,1.51,.83,2.59v11.97h5.58Z"/>
    <rect class="cls-1" x="434.87" y="374.54" width="5.58" height="20.12"/>
    <path class="cls-1" d="M437.66,371.93c.9,0,1.67-.3,2.32-.9,.65-.6,.97-1.37,.97-2.29s-.32-1.66-.97-2.27-1.42-.92-2.32-.92-1.68,.31-2.34,.92c-.66,.62-.99,1.37-.99,2.27s.32,1.7,.97,2.29c.64,.6,1.43,.9,2.36,.9Z"/>
    <path class="cls-1" d="M452.92,390.87c-1.8,0-2.92-.73-3.38-2.21h-5.54c.3,2.04,1.24,3.62,2.83,4.75,1.59,1.12,3.63,1.69,6.12,1.69s4.37-.59,5.92-1.76,2.32-2.76,2.32-4.77c0-3.03-1.79-4.98-5.36-5.85l-4.14-.95c-1.2-.3-1.8-.82-1.8-1.58,0-.6,.26-1.06,.79-1.39,.52-.33,1.15-.49,1.87-.49,1.68,0,2.73,.66,3.15,1.98h5.31c-.36-1.95-1.25-3.47-2.68-4.57s-3.38-1.64-5.87-1.64c-2.28,0-4.18,.61-5.71,1.82s-2.29,2.78-2.29,4.7c0,2.97,1.74,4.86,5.22,5.67l4.05,.9c.72,.18,1.24,.4,1.55,.65,.32,.25,.47,.61,.47,1.06,0,1.32-.95,1.98-2.83,1.98Z"/>
    <rect class="cls-1" x="474.51" y="374.54" width="5.58" height="20.12"/>
    <path class="cls-1" d="M477.3,371.93c.9,0,1.67-.3,2.32-.9,.65-.6,.97-1.37,.97-2.29s-.32-1.66-.97-2.27-1.42-.92-2.32-.92-1.68,.31-2.34,.92c-.66,.62-.99,1.37-.99,2.27s.32,1.7,.97,2.29c.64,.6,1.43,.9,2.36,.9Z"/>
    <path class="cls-1" d="M492.56,390.87c-1.8,0-2.92-.73-3.38-2.21h-5.54c.3,2.04,1.24,3.62,2.83,4.75,1.59,1.12,3.63,1.69,6.12,1.69s4.37-.59,5.92-1.76,2.32-2.76,2.32-4.77c0-3.03-1.79-4.98-5.36-5.85l-4.14-.95c-1.2-.3-1.8-.82-1.8-1.58,0-.6,.26-1.06,.79-1.39,.52-.33,1.15-.49,1.87-.49,1.68,0,2.73,.66,3.15,1.98h5.31c-.36-1.95-1.25-3.47-2.68-4.57s-3.38-1.64-5.87-1.64c-2.28,0-4.18,.61-5.71,1.82s-2.29,2.78-2.29,4.7c0,2.97,1.74,4.86,5.22,5.67l4.05,.9c.72,.18,1.24,.4,1.55,.65,.32,.25,.47,.61,.47,1.06,0,1.32-.95,1.98-2.83,1.98Z"/>
    <path class="cls-1" d="M523.34,382.41c-.9-.24-1.77-.36-2.61-.36-2.22,0-4.07,.6-5.56,1.8-1.49,1.2-2.23,2.74-2.23,4.63,0,2.01,.71,3.6,2.14,4.77s3.2,1.76,5.33,1.76c1.05,0,2.04-.15,2.97-.45,.93-.3,1.58-.63,1.93-.99v1.08h5.36v-12.82c0-2.43-.74-4.33-2.23-5.69-1.49-1.36-3.56-2.05-6.23-2.05-2.25,0-4.15,.61-5.69,1.82-1.55,1.21-2.47,2.75-2.77,4.61h5.31c.48-1.26,1.47-1.89,2.97-1.89,1.08,0,1.9,.29,2.45,.88,.55,.59,.83,1.33,.83,2.23v1.48c-.42-.3-1.08-.57-1.98-.81Zm1.98,6.75c-.24,.54-.7,.97-1.37,1.28s-1.43,.47-2.27,.47c-.99,0-1.83-.21-2.52-.63-.69-.42-1.04-1.04-1.04-1.84s.35-1.43,1.06-1.85,1.54-.63,2.5-.63c.84,0,1.6,.16,2.27,.47,.67,.32,1.13,.74,1.37,1.28v1.44Z"/>
    <path class="cls-1" d="M550.34,381.92c.21-.87,.65-1.55,1.33-2.05,.67-.5,1.45-.74,2.32-.74,1.08,0,1.9,.32,2.45,.97,.55,.64,.83,1.51,.83,2.59v11.97h5.58v-13.14c0-2.25-.62-4.05-1.87-5.4s-2.99-2.03-5.24-2.03-4.08,.77-5.4,2.29v-1.85h-5.58v20.12h5.58v-12.73Z"/>
    <path class="cls-1" d="M575.99,395.1c2.49,0,4.51-.62,6.05-1.87,1.54-1.24,2.5-2.96,2.86-5.15h-5.17c-.45,1.68-1.7,2.52-3.74,2.52-1.26,0-2.28-.43-3.06-1.28-.78-.86-1.21-2.03-1.3-3.53h13.41v-1.71c0-3.03-.8-5.45-2.41-7.27-1.61-1.81-3.85-2.72-6.73-2.72s-5.14,1-6.95,2.99c-1.82,2-2.72,4.51-2.72,7.54s.9,5.65,2.7,7.58c1.8,1.93,4.15,2.9,7.06,2.9Zm-.04-16.47c1.11,0,1.98,.35,2.61,1.06,.63,.71,.96,1.61,.99,2.72h-7.79c.51-2.52,1.9-3.78,4.18-3.78Z"/>
    <polygon class="cls-1" points="606.59 387.36 603.26 374.54 598.98 374.54 595.7 387.36 592.1 374.54 586.52 374.54 592.64 394.65 597.77 394.65 601.05 382.32 604.34 394.65 609.47 394.65 615.59 374.54 610.19 374.54 606.59 387.36"/>
    <path class="cls-1" d="M633.72,392.99c.48,.57,1.18,1.06,2.12,1.48,.93,.42,1.9,.63,2.92,.63,2.82,0,5.05-1.01,6.71-3.02,1.65-2.01,2.48-4.5,2.48-7.47s-.83-5.47-2.48-7.49c-1.65-2.03-3.89-3.04-6.71-3.04-1.02,0-2,.21-2.92,.63-.93,.42-1.64,.91-2.12,1.48v-1.67h-5.58v27.54h5.58v-9.09Zm0-11.7c.36-.69,.88-1.25,1.55-1.69,.67-.43,1.42-.65,2.23-.65,1.47,0,2.64,.53,3.51,1.6,.87,1.07,1.31,2.42,1.31,4.07s-.44,3-1.31,4.05-2.04,1.57-3.51,1.57c-.81,0-1.56-.22-2.25-.65-.69-.43-1.2-1-1.53-1.69v-6.62Z"/>
    <path class="cls-1" d="M657.08,382.19c.21-.9,.66-1.6,1.35-2.09,.69-.5,1.51-.74,2.47-.74,1.11,0,2.04,.22,2.79,.67v-5.58c-.42-.24-1.12-.36-2.12-.36-2.04,0-3.54,.81-4.5,2.43v-1.98h-5.58v20.12h5.58v-12.46Z"/>
    <path class="cls-1" d="M675.39,395.1c2.91,0,5.28-.97,7.11-2.93,1.83-1.95,2.75-4.47,2.75-7.56s-.92-5.65-2.75-7.6c-1.83-1.95-4.2-2.93-7.11-2.93s-5.28,.97-7.11,2.93c-1.83,1.95-2.75,4.48-2.75,7.6s.92,5.61,2.75,7.56c1.83,1.95,4.2,2.93,7.11,2.93Zm-3.17-14.69c.76-1.06,1.82-1.6,3.17-1.6s2.41,.53,3.17,1.6c.77,1.06,1.15,2.47,1.15,4.21s-.38,3.1-1.15,4.16c-.76,1.06-1.82,1.6-3.17,1.6s-2.41-.53-3.17-1.6c-.76-1.07-1.15-2.45-1.15-4.16s.38-3.14,1.15-4.21Z"/>
    <path class="cls-1" d="M697.4,395.1c2.49,0,4.51-.66,6.05-1.98,1.54-1.32,2.47-3.07,2.77-5.27h-5.49c-.15,.78-.52,1.39-1.1,1.82-.58,.44-1.33,.65-2.23,.65-1.26,0-2.27-.52-3.01-1.57-.75-1.05-1.12-2.43-1.12-4.14s.38-3.13,1.12-4.18c.75-1.05,1.75-1.58,3.01-1.58,.9,0,1.64,.22,2.23,.65,.58,.44,.95,1.04,1.1,1.82h5.49c-.3-2.19-1.23-3.94-2.79-5.26-1.56-1.32-3.57-1.98-6.03-1.98-2.85,0-5.17,.97-6.97,2.93-1.8,1.95-2.7,4.48-2.7,7.6s.9,5.61,2.7,7.56c1.8,1.95,4.12,2.93,6.97,2.93Z"/>
    <path class="cls-1" d="M718.1,374.09c-2.82,0-5.14,1-6.95,2.99-1.82,2-2.72,4.51-2.72,7.54s.9,5.65,2.7,7.58c1.8,1.93,4.15,2.9,7.06,2.9,2.49,0,4.51-.62,6.05-1.87,1.54-1.24,2.5-2.96,2.86-5.15h-5.17c-.45,1.68-1.7,2.52-3.74,2.52-1.26,0-2.28-.43-3.06-1.28-.78-.86-1.21-2.03-1.3-3.53h13.41v-1.71c0-3.03-.8-5.45-2.41-7.27-1.61-1.81-3.85-2.72-6.73-2.72Zm-4.14,8.32c.51-2.52,1.9-3.78,4.18-3.78,1.11,0,1.98,.35,2.61,1.06,.63,.71,.96,1.61,.99,2.72h-7.79Z"/>
    <path class="cls-1" d="M741.36,382.73l-4.14-.95c-1.2-.3-1.8-.82-1.8-1.58,0-.6,.26-1.06,.79-1.39,.52-.33,1.15-.49,1.87-.49,1.68,0,2.73,.66,3.15,1.98h5.31c-.36-1.95-1.25-3.47-2.68-4.57s-3.38-1.64-5.87-1.64c-2.28,0-4.18,.61-5.71,1.82s-2.29,2.78-2.29,4.7c0,2.97,1.74,4.86,5.22,5.67l4.05,.9c.72,.18,1.24,.4,1.55,.65,.32,.25,.47,.61,.47,1.06,0,1.32-.95,1.98-2.83,1.98s-2.92-.73-3.38-2.21h-5.54c.3,2.04,1.24,3.62,2.83,4.75,1.59,1.12,3.63,1.69,6.12,1.69s4.37-.59,5.92-1.76,2.32-2.76,2.32-4.77c0-3.03-1.79-4.98-5.36-5.85Z"/>
    <path class="cls-1" d="M761.03,382.73l-4.14-.95c-1.2-.3-1.8-.82-1.8-1.58,0-.6,.26-1.06,.79-1.39,.52-.33,1.15-.49,1.87-.49,1.68,0,2.73,.66,3.15,1.98h5.31c-.36-1.95-1.25-3.47-2.68-4.57s-3.38-1.64-5.87-1.64c-2.28,0-4.18,.61-5.71,1.82s-2.29,2.78-2.29,4.7c0,2.97,1.74,4.86,5.22,5.67l4.05,.9c.72,.18,1.24,.4,1.55,.65,.32,.25,.47,.61,.47,1.06,0,1.32-.95,1.98-2.83,1.98s-2.92-.73-3.38-2.21h-5.54c.3,2.04,1.24,3.62,2.83,4.75,1.59,1.12,3.63,1.69,6.12,1.69s4.37-.59,5.92-1.76,2.32-2.76,2.32-4.77c0-3.03-1.79-4.98-5.36-5.85Z"/>
    <path class="cls-1" d="M452.44,438.57v1.08h5.36v-12.82c0-2.43-.74-4.33-2.23-5.69-1.49-1.36-3.56-2.05-6.23-2.05-2.25,0-4.15,.61-5.69,1.82-1.55,1.21-2.47,2.75-2.77,4.61h5.31c.48-1.26,1.47-1.89,2.97-1.89,1.08,0,1.9,.29,2.45,.88,.55,.59,.83,1.33,.83,2.23v1.48c-.42-.3-1.08-.57-1.98-.81-.9-.24-1.77-.36-2.61-.36-2.22,0-4.07,.6-5.56,1.8-1.49,1.2-2.23,2.74-2.23,4.63,0,2.01,.71,3.6,2.14,4.77s3.2,1.76,5.33,1.76c1.05,0,2.04-.15,2.97-.45,.93-.3,1.58-.63,1.93-.99Zm-6.17-3.29c-.69-.42-1.04-1.04-1.04-1.84s.35-1.43,1.06-1.85,1.54-.63,2.5-.63c.84,0,1.6,.16,2.27,.47,.67,.32,1.13,.74,1.37,1.28v1.44c-.24,.54-.7,.97-1.37,1.28s-1.43,.47-2.27,.47c-.99,0-1.83-.21-2.52-.63Z"/>
    <path class="cls-1" d="M480.43,439.65v-13.14c0-2.25-.62-4.05-1.87-5.4s-2.99-2.03-5.24-2.03-4.08,.77-5.4,2.29v-1.85h-5.58v20.12h5.58v-12.73c.21-.87,.65-1.55,1.33-2.05,.67-.5,1.45-.74,2.32-.74,1.08,0,1.9,.32,2.45,.97,.55,.64,.83,1.51,.83,2.59v11.97h5.58Z"/>
    <path class="cls-1" d="M497.98,437.99v1.66h5.62v-29.25h-5.62v10.8c-.48-.57-1.19-1.06-2.11-1.48-.93-.42-1.91-.63-2.93-.63-2.82,0-5.05,1.01-6.68,3.02s-2.45,4.52-2.45,7.51,.82,5.5,2.45,7.49c1.63,2,3.86,2.99,6.68,2.99,1.02,0,2-.21,2.93-.63,.93-.42,1.63-.91,2.11-1.48Zm-1.51-3.4c-.68,.44-1.43,.65-2.27,.65-1.47,0-2.64-.52-3.51-1.57s-1.3-2.4-1.3-4.05,.43-3.01,1.3-4.07c.87-1.06,2.04-1.6,3.51-1.6,.81,0,1.56,.22,2.25,.65,.69,.44,1.2,1,1.53,1.69v6.62c-.33,.69-.83,1.25-1.51,1.69Z"/>
    <path class="cls-1" d="M535.2,432.86h-5.49c-.15,.78-.52,1.39-1.1,1.82-.58,.44-1.33,.65-2.23,.65-1.26,0-2.27-.52-3.01-1.57-.75-1.05-1.12-2.43-1.12-4.14s.38-3.13,1.12-4.18c.75-1.05,1.75-1.58,3.01-1.58,.9,0,1.64,.22,2.23,.65,.58,.44,.95,1.04,1.1,1.82h5.49c-.3-2.19-1.23-3.94-2.79-5.26-1.56-1.32-3.57-1.98-6.03-1.98-2.85,0-5.17,.97-6.97,2.93-1.8,1.95-2.7,4.48-2.7,7.6s.9,5.61,2.7,7.56c1.8,1.95,4.12,2.93,6.97,2.93,2.49,0,4.51-.66,6.05-1.98,1.54-1.32,2.47-3.07,2.77-5.27Z"/>
    <path class="cls-1" d="M547.26,440.1c2.91,0,5.28-.97,7.11-2.93,1.83-1.95,2.75-4.47,2.75-7.56s-.92-5.65-2.75-7.6c-1.83-1.95-4.2-2.93-7.11-2.93s-5.28,.97-7.11,2.93c-1.83,1.95-2.75,4.48-2.75,7.6s.92,5.61,2.75,7.56c1.83,1.95,4.2,2.93,7.11,2.93Zm-3.17-14.69c.76-1.06,1.82-1.6,3.17-1.6s2.41,.53,3.17,1.6c.77,1.06,1.15,2.47,1.15,4.21s-.38,3.1-1.15,4.16c-.76,1.06-1.82,1.6-3.17,1.6s-2.41-.53-3.17-1.6c-.76-1.07-1.15-2.45-1.15-4.16s.38-3.14,1.15-4.21Z"/>
    <path class="cls-1" d="M560.44,419.54v13.14c0,2.25,.62,4.05,1.87,5.4s2.98,2.03,5.2,2.03,4.02-.77,5.4-2.29v1.84h5.58v-20.12h-5.62v12.78c-.21,.87-.65,1.55-1.3,2.05-.66,.49-1.43,.74-2.29,.74-1.08,0-1.89-.31-2.43-.95-.54-.63-.81-1.5-.81-2.61v-12.02h-5.58Z"/>
    <rect class="cls-1" x="583.3" y="410.4" width="5.58" height="29.25"/>
    <path class="cls-1" d="M612.28,439.65v-29.25h-5.62v10.8c-.48-.57-1.19-1.06-2.11-1.48-.93-.42-1.91-.63-2.93-.63-2.82,0-5.05,1.01-6.68,3.02s-2.45,4.52-2.45,7.51,.82,5.5,2.45,7.49c1.63,2,3.86,2.99,6.68,2.99,1.02,0,2-.21,2.93-.63,.93-.42,1.63-.91,2.11-1.48v1.66h5.62Zm-7.13-5.06c-.68,.44-1.43,.65-2.27,.65-1.47,0-2.64-.52-3.51-1.57s-1.3-2.4-1.3-4.05,.43-3.01,1.3-4.07c.87-1.06,2.04-1.6,3.51-1.6,.81,0,1.56,.22,2.25,.65,.69,.44,1.2,1,1.53,1.69v6.62c-.33,.69-.83,1.25-1.51,1.69Z"/>
    <path class="cls-1" d="M627.85,433.58c0,2.16,.59,3.78,1.76,4.86s2.8,1.62,4.9,1.62c1.62,0,2.82-.21,3.6-.63v-4.95c-.69,.45-1.5,.67-2.43,.67-1.53,0-2.29-.76-2.29-2.29v-8.82h4.41v-4.5h-4.41v-5.44h-5.54v5.44h-3.06v4.5h3.06v9.54Z"/>
    <path class="cls-1" d="M641.44,425.52h5.31c.48-1.26,1.47-1.89,2.97-1.89,1.08,0,1.9,.29,2.45,.88,.55,.59,.83,1.33,.83,2.23v1.48c-.42-.3-1.08-.57-1.98-.81-.9-.24-1.77-.36-2.61-.36-2.22,0-4.07,.6-5.56,1.8-1.49,1.2-2.23,2.74-2.23,4.63,0,2.01,.71,3.6,2.14,4.77s3.2,1.76,5.33,1.76c1.05,0,2.04-.15,2.97-.45,.93-.3,1.58-.63,1.93-.99v1.08h5.36v-12.82c0-2.43-.74-4.33-2.23-5.69-1.49-1.36-3.56-2.05-6.23-2.05-2.25,0-4.15,.61-5.69,1.82-1.55,1.21-2.47,2.75-2.77,4.61Zm11.56,8.64c-.24,.54-.7,.97-1.37,1.28s-1.43,.47-2.27,.47c-.99,0-1.83-.21-2.52-.63-.69-.42-1.04-1.04-1.04-1.84s.35-1.43,1.06-1.85,1.54-.63,2.5-.63c.84,0,1.6,.16,2.27,.47,.67,.32,1.13,.74,1.37,1.28v1.44Z"/>
    <polygon class="cls-1" points="662.9 410.4 662.9 439.65 668.48 439.65 668.48 433.31 670.1 431.55 676 439.65 682.61 439.65 674.15 428.09 682.3 419.54 675.37 419.54 668.48 427.01 668.48 410.4 662.9 410.4"/>
    <path class="cls-1" d="M699.06,438.23c1.54-1.24,2.5-2.96,2.86-5.15h-5.17c-.45,1.68-1.7,2.52-3.74,2.52-1.26,0-2.28-.43-3.06-1.28-.78-.86-1.21-2.03-1.3-3.53h13.41v-1.71c0-3.03-.8-5.45-2.41-7.27-1.61-1.81-3.85-2.72-6.73-2.72s-5.14,1-6.95,2.99c-1.82,2-2.72,4.51-2.72,7.54s.9,5.65,2.7,7.58c1.8,1.93,4.15,2.9,7.06,2.9,2.49,0,4.51-.62,6.05-1.87Zm-6.1-14.6c1.11,0,1.98,.35,2.61,1.06,.63,.71,.96,1.61,.99,2.72h-7.79c.51-2.52,1.9-3.78,4.18-3.78Z"/>
    <path class="cls-1" d="M438.65,477.32c-.21,.87-.65,1.55-1.3,2.05-.66,.49-1.43,.74-2.29,.74-1.08,0-1.89-.31-2.43-.95-.54-.63-.81-1.5-.81-2.61v-12.02h-5.58v13.14c0,2.25,.62,4.05,1.87,5.4s2.98,2.03,5.2,2.03,4.02-.77,5.4-2.29v1.84h5.58v-20.12h-5.62v12.78Z"/>
    <path class="cls-1" d="M459.71,464.09c-1.02,0-2,.21-2.92,.63-.93,.42-1.64,.91-2.12,1.48v-1.67h-5.58v27.54h5.58v-9.09c.48,.57,1.18,1.06,2.12,1.48,.93,.42,1.9,.63,2.92,.63,2.82,0,5.05-1.01,6.71-3.02,1.65-2.01,2.48-4.5,2.48-7.47s-.83-5.47-2.48-7.49c-1.65-2.03-3.89-3.04-6.71-3.04Zm2.25,14.58c-.87,1.05-2.04,1.57-3.51,1.57-.81,0-1.56-.22-2.25-.65-.69-.43-1.2-1-1.53-1.69v-6.62c.36-.69,.88-1.25,1.55-1.69,.67-.43,1.42-.65,2.23-.65,1.47,0,2.64,.53,3.51,1.6,.87,1.07,1.31,2.42,1.31,4.07s-.44,3-1.31,4.05Z"/>
    <path class="cls-1" d="M488.74,477.86v-8.82h4.41v-4.5h-4.41v-5.44h-5.54v5.44h-3.06v4.5h3.06v9.54c0,2.16,.59,3.78,1.76,4.86s2.8,1.62,4.9,1.62c1.62,0,2.82-.21,3.6-.63v-4.95c-.69,.45-1.5,.67-2.43,.67-1.53,0-2.29-.76-2.29-2.29Z"/>
    <path class="cls-1" d="M505.92,464.09c-2.91,0-5.28,.97-7.11,2.93-1.83,1.95-2.75,4.48-2.75,7.6s.92,5.61,2.75,7.56c1.83,1.95,4.2,2.93,7.11,2.93s5.28-.97,7.11-2.93c1.83-1.95,2.75-4.47,2.75-7.56s-.92-5.65-2.75-7.6c-1.83-1.95-4.2-2.93-7.11-2.93Zm3.17,14.69c-.76,1.06-1.82,1.6-3.17,1.6s-2.41-.53-3.17-1.6c-.76-1.07-1.15-2.45-1.15-4.16s.38-3.14,1.15-4.21,1.82-1.6,3.17-1.6,2.41,.53,3.17,1.6c.77,1.06,1.15,2.47,1.15,4.21s-.38,3.1-1.15,4.16Z"/>
    <path class="cls-1" d="M527.52,465.53h5.94c.06-1.14,.41-2.06,1.06-2.77,.65-.7,1.52-1.06,2.63-1.06s1.93,.31,2.57,.92c.63,.62,.94,1.42,.94,2.41,0,.66-.21,1.37-.63,2.12-.45,.81-1.68,2.32-3.69,4.54l-8.78,9.22v3.73h19.12v-4.99h-11.12l5.31-5.71c1.29-1.35,2.23-2.36,2.81-3.04,.58-.68,1.18-1.59,1.78-2.75,.6-1.15,.9-2.27,.9-3.35,0-2.52-.83-4.52-2.47-6.01-1.65-1.49-3.92-2.23-6.79-2.23-2.67,0-4.87,.83-6.59,2.5-1.73,1.66-2.72,3.82-2.99,6.46Z"/>
    <path class="cls-1" d="M568.2,460.53c-2.01-2.64-4.63-3.96-7.88-3.96s-5.87,1.32-7.88,3.96c-2.01,2.64-3.01,6.07-3.01,10.3s1,7.67,3.01,10.3c2.01,2.64,4.63,3.96,7.88,3.96s5.86-1.32,7.88-3.96c2.01-2.64,3.01-6.07,3.01-10.3s-1-7.66-3.01-10.3Zm-3.92,16.92c-.87,1.68-2.19,2.52-3.96,2.52s-3.09-.84-3.96-2.52-1.3-3.88-1.3-6.62,.43-4.94,1.3-6.62,2.19-2.52,3.96-2.52,3.09,.84,3.96,2.52,1.3,3.88,1.3,6.62-.43,4.94-1.3,6.62Z"/>
    <path class="cls-1" d="M606.77,464.09c-2.49,0-4.52,.86-6.08,2.56-1.29-1.71-3.09-2.56-5.4-2.56s-3.98,.71-5.08,2.12v-1.67h-5.58v20.12h5.58v-12.96c.18-.81,.56-1.45,1.15-1.91s1.25-.7,2-.7c1.89,0,2.83,1.2,2.83,3.6v11.97h5.62v-12.96c.18-.84,.55-1.49,1.12-1.94,.57-.45,1.23-.68,1.98-.68,.93,0,1.64,.32,2.14,.97s.74,1.52,.74,2.63v11.97h5.58v-13.14c0-2.28-.58-4.09-1.75-5.42-1.17-1.33-2.79-2-4.86-2Z"/>
    <path class="cls-1" d="M620.81,461.93c.9,0,1.67-.3,2.32-.9,.65-.6,.97-1.37,.97-2.29s-.32-1.66-.97-2.27-1.42-.92-2.32-.92-1.68,.31-2.34,.92c-.66,.62-.99,1.37-.99,2.27s.32,1.7,.97,2.29c.64,.6,1.43,.9,2.36,.9Z"/>
    <rect class="cls-1" x="618.02" y="464.54" width="5.58" height="20.12"/>
    <path class="cls-1" d="M646.55,484.65v-13.14c0-2.25-.62-4.05-1.87-5.4s-2.99-2.03-5.24-2.03-4.08,.77-5.4,2.29v-1.85h-5.58v20.12h5.58v-12.73c.21-.87,.65-1.55,1.33-2.05,.67-.5,1.45-.74,2.32-.74,1.08,0,1.9,.32,2.45,.97,.55,.64,.83,1.51,.83,2.59v11.97h5.58Z"/>
    <path class="cls-1" d="M669,484.65v-20.12h-5.62v12.78c-.21,.87-.65,1.55-1.3,2.05-.66,.49-1.43,.74-2.29,.74-1.08,0-1.89-.31-2.43-.95-.54-.63-.81-1.5-.81-2.61v-12.02h-5.58v13.14c0,2.25,.62,4.05,1.87,5.4s2.98,2.03,5.2,2.03,4.02-.77,5.4-2.29v1.84h5.58Z"/>
    <path class="cls-1" d="M680.57,477.86v-8.82h4.41v-4.5h-4.41v-5.44h-5.54v5.44h-3.06v4.5h3.06v9.54c0,2.16,.59,3.78,1.76,4.86s2.8,1.62,4.9,1.62c1.62,0,2.82-.21,3.6-.63v-4.95c-.69,.45-1.5,.67-2.43,.67-1.53,0-2.29-.76-2.29-2.29Z"/>
    <path class="cls-1" d="M697.67,485.1c2.49,0,4.51-.62,6.05-1.87,1.54-1.24,2.5-2.96,2.86-5.15h-5.17c-.45,1.68-1.7,2.52-3.74,2.52-1.26,0-2.28-.43-3.06-1.28-.78-.86-1.21-2.03-1.3-3.53h13.41v-1.71c0-3.03-.8-5.45-2.41-7.27-1.61-1.81-3.85-2.72-6.73-2.72s-5.14,1-6.95,2.99c-1.82,2-2.72,4.51-2.72,7.54s.9,5.65,2.7,7.58c1.8,1.93,4.15,2.9,7.06,2.9Zm-.04-16.47c1.11,0,1.98,.35,2.61,1.06,.63,.71,.96,1.61,.99,2.72h-7.79c.51-2.52,1.9-3.78,4.18-3.78Z"/>
    <path class="cls-1" d="M723.88,483.35c1.54-1.17,2.32-2.76,2.32-4.77,0-3.03-1.79-4.98-5.36-5.85l-4.14-.95c-1.2-.3-1.8-.82-1.8-1.58,0-.6,.26-1.06,.79-1.39,.52-.33,1.15-.49,1.87-.49,1.68,0,2.73,.66,3.15,1.98h5.31c-.36-1.95-1.25-3.47-2.68-4.57s-3.38-1.64-5.87-1.64c-2.28,0-4.18,.61-5.71,1.82s-2.29,2.78-2.29,4.7c0,2.97,1.74,4.86,5.22,5.67l4.05,.9c.72,.18,1.24,.4,1.55,.65,.32,.25,.47,.61,.47,1.06,0,1.32-.95,1.98-2.83,1.98s-2.92-.73-3.38-2.21h-5.54c.3,2.04,1.24,3.62,2.83,4.75,1.59,1.12,3.63,1.69,6.12,1.69s4.37-.59,5.92-1.76Z"/>
    <path class="cls-1" d="M536.63,493.34h-8c-1.1,0-2,.9-2,2s.9,2,2,2h8c1.1,0,2-.9,2-2s-.9-2-2-2Z"/>
    <path class="cls-1" d="M682.99,493.34h-15.01c-1.1,0-2,.9-2,2s.9,2,2,2h15.01c1.1,0,2-.9,2-2s-.9-2-2-2Z"/>
    <path class="cls-1" d="M707.38,493.34h-15.01c-1.1,0-2,.9-2,2s.9,2,2,2h15.01c1.1,0,2-.9,2-2s-.9-2-2-2Z"/>
    <path class="cls-1" d="M634.2,493.34h-15.01c-1.1,0-2,.9-2,2s.9,2,2,2h15.01c1.1,0,2-.9,2-2s-.9-2-2-2Z"/>
    <path class="cls-1" d="M658.59,493.34h-15.01c-1.1,0-2,.9-2,2s.9,2,2,2h15.01c1.1,0,2-.9,2-2s-.9-2-2-2Z"/>
    <path class="cls-1" d="M561.03,493.34h-15.01c-1.1,0-2,.9-2,2s.9,2,2,2h15.01c1.1,0,2-.9,2-2s-.9-2-2-2Z"/>
    <path class="cls-1" d="M585.42,493.34h-15.01c-1.1,0-2,.9-2,2s.9,2,2,2h15.01c1.1,0,2-.9,2-2s-.9-2-2-2Z"/>
    <path class="cls-1" d="M609.81,493.34h-15.01c-1.1,0-2,.9-2,2s.9,2,2,2h15.01c1.1,0,2-.9,2-2s-.9-2-2-2Z"/>
    <path class="cls-1" d="M724.76,493.34h-8c-1.1,0-2,.9-2,2s.9,2,2,2h8c1.1,0,2-.9,2-2s-.9-2-2-2Z"/>
    <path class="cls-1" d="M775.39,602.77l-50.46-50.46s-.1-.08-.14-.12v-24.19h49c13.23,0,24-10.77,24-24v-153.03c0-13.23-10.77-24-24-24h-49v-93.42c0-12.68-10.32-23-23-23h-252c-12.68,0-23,10.32-23,23v93.42h-49c-13.23,0-24,10.77-24,24v153.03c0,13.23,10.77,24,24,24h49v173.55c0,12.68,10.32,23,23,23h120.99c-.06,.3-.09,.61-.09,.93v29.19c0,28.99,15.59,55.09,40.9,68.85v23.46c0,2.76,2.24,5,5,5s5-2.24,5-5v-26.5c0-1.9-1.08-3.64-2.79-4.48-23.51-11.62-38.12-35.12-38.12-61.33v-29.19c0-.32-.04-.63-.09-.93h97.05c-9.23,13.13-14.25,28.87-14.25,45.06,0,18.78,6.74,36.94,18.99,51.14,.99,1.15,2.38,1.74,3.79,1.74,1.16,0,2.32-.4,3.26-1.21,2.09-1.8,2.33-4.96,.52-7.05-10.68-12.39-16.56-28.23-16.56-44.62s5.88-32.23,16.57-44.61c1.64-1.91,1.61-4.74-.07-6.61l-1.8-2c-.05-.06-.09-.12-.14-.18l-61.66-68.48c-.25-.26-.48-.53-.72-.8-4.27-5.12-6.6-11.54-6.6-18.26,0-15.23,11.96-27.71,26.98-28.56,34.22,34.22,85.86,85.86,105.06,105.07,1.95,1.95,5.12,1.95,7.07,0,1.95-1.95,1.95-5.12,0-7.07-7.31-7.31-19.33-19.33-33.29-33.29v-98.5l43.53,43.53c26.54,26.54,41.16,61.83,41.16,99.37v133.24c0,2.76,2.24,5,5,5s5-2.24,5-5v-133.24c0-40.21-15.66-78.01-44.09-106.44ZM436.79,233.55c0-7.17,5.83-13,13-13h252c7.17,0,13,5.83,13,13v93.42H436.79v-93.42Zm-71,270.45v-153.03c0-6.62,5.38-12,12-12h396c6.62,0,12,5.38,12,12v153.03c0,6.62-5.38,12-12,12H377.79c-6.62,0-12-5.38-12-12Zm71,197.55v-173.55h278v126.74l-63.66-63.67c-.92-.92-2.16-1.45-3.46-1.46h-.48c-21.28,0-38.6,17.31-38.6,38.6,0,9.31,3.32,18.2,9.32,25.14,.45,.54,.92,1.07,1.4,1.59l53.68,59.61h-223.2c-7.17,0-13-5.83-13-13Z"/>
  </g>
</svg>