<?xml version="1.0" encoding="UTF-8"?>
<svg id="OUTLINES" xmlns="http://www.w3.org/2000/svg" viewBox="0 0 1152 1008">
  <defs>
    <style>
      .cls-1 {
        fill: #000f7d;
      }

      .cls-2 {
        fill: #fff;
      }
    </style>
  </defs>
  <path class="cls-2" d="M786.04,386.28c-1.6-1.89-4.56-4.14-9.6-4.14-4.64,0-7.09,1.44-9.03,2.78-.11,.08-.25,.18-.36,.25-55.77,0-106.11,30-150.52,56.47-34.43,20.52-66.94,39.9-94.35,39.9-7.44,0-9.73-1.76-9.9-2.21,0-1.2,.32-4.64,.69-8.63,3.34-36.21,4.68-71.47-7.98-84.13-9.83-9.83-44.72-10.85-55.17-10.93-40.5-.29-52.59,7.37-55.91,10.68h0c-7.38,7.38-11.27,27.77-12.45,44.38-.99,13.99-1.22,41.37,8.36,67.61,12.36,33.83,36.53,53.22,69.9,56.06,4.99,.42,9.86,.63,14.65,.63,64.46,0,111.07-37.16,156.23-73.18,44.33-35.36,86.21-68.75,143.39-68.75,8.57,0,14.98-9.57,14.98-18.12,0-3.4-1.02-6.4-2.94-8.66Z"/>
  <rect class="cls-2" x="291" y="641.68" width="588" height="111.32" rx="24" ry="24"/>
  <path class="cls-1" d="M471.06,551.87c-4.78,0-9.66-.2-14.65-.63-33.37-2.84-57.54-22.23-69.9-56.06-9.59-26.24-9.35-53.63-8.36-67.61,1.18-16.62,5.06-37,12.45-44.38h0c3.31-3.31,15.37-10.97,55.91-10.68,10.46,.08,45.34,1.1,55.17,10.93,12.66,12.66,11.31,47.91,7.98,84.13-.37,3.99-.69,7.43-.69,8.63,.17,.45,2.46,2.21,9.9,2.21,27.41,0,59.92-19.38,94.35-39.9,44.41-26.47,94.74-56.46,150.52-56.47,.11-.07,.25-.17,.36-.25,1.94-1.34,4.39-2.78,9.03-2.78,5.04,0,8,2.25,9.6,4.14,1.92,2.27,2.94,5.26,2.94,8.66,0,8.55-6.41,18.12-14.98,18.12-57.18,0-99.05,33.4-143.39,68.75-45.16,36.02-91.77,73.18-156.23,73.18Zm-71.98-160.2c-6.66,6.66-16.65,57.36-1.3,99.39,10.79,29.54,30.86,45.77,59.65,48.22,30.57,2.61,58.59-3.23,88.18-18.36,26.37-13.48,50.68-32.87,74.19-51.62,44-35.09,89.49-71.37,150.87-71.37,.23-.07,1.36-.92,2.24-2.92,.78-1.79,.83-3.34,.67-3.97-.11-.02-.26-.03-.47-.03-1.27,0-1.41,.1-2.18,.64-1.29,.89-3.44,2.39-7.2,2.39-52.47,0-101.3,29.1-144.38,54.77-35.88,21.39-69.78,41.59-100.49,41.59-20.32,0-21.9-10.88-21.9-14.21,0-1.75,.29-4.92,.74-9.73,1.46-15.86,5.91-64.12-4.51-74.54-2.96-2.96-19.42-7.21-46.78-7.42-25.89-.21-43.71,3.54-47.33,7.16h0Z"/>
  <path class="cls-1" d="M869,650.16V261c0-2.76-2.24-5-5-5H288c-2.76,0-5,2.24-5,5v389.16c-.65,2.17-1,4.47-1,6.84v63.32c0,13.23,10.77,24,24,24H846c13.23,0,24-10.77,24-24v-63.32c0-2.38-.35-4.67-1-6.84Zm-10-384.16v370.84c-3.75-2.43-8.21-3.84-13-3.84H306c-4.79,0-9.25,1.42-13,3.84V266H859Zm-1,454.32c0,6.62-5.38,12-12,12H306c-6.62,0-12-5.38-12-12v-63.32c0-6.62,5.38-12,12-12H846c6.62,0,12,5.38,12,12v63.32Z"/>
  <g>
    <path class="cls-1" d="M351.18,679.41v-5.04h23.58v5.04h-8.91v22.59h-5.8v-22.59h-8.87Z"/>
    <path class="cls-1" d="M378.32,702v-29.25h5.58v10.98c1.32-1.53,3.12-2.29,5.4-2.29s4,.67,5.24,2.02c1.25,1.35,1.87,3.15,1.87,5.4v13.14h-5.58v-11.97c0-1.08-.28-1.94-.83-2.59-.56-.64-1.37-.97-2.45-.97-.87,0-1.64,.25-2.32,.74-.68,.5-1.12,1.18-1.33,2.05v12.73h-5.58Z"/>
    <path class="cls-1" d="M407.12,676.08c0,.93-.32,1.7-.97,2.29-.65,.6-1.42,.9-2.32,.9s-1.72-.3-2.36-.9c-.65-.6-.97-1.36-.97-2.29s.33-1.66,.99-2.27c.66-.61,1.44-.92,2.34-.92s1.67,.31,2.32,.92c.65,.62,.97,1.37,.97,2.27Zm-.5,5.8v20.12h-5.58v-20.12h5.58Z"/>
    <path class="cls-1" d="M410.18,696.02h5.54c.45,1.47,1.58,2.21,3.38,2.21,1.89,0,2.83-.66,2.83-1.98,0-.45-.16-.8-.47-1.06s-.83-.47-1.55-.65l-4.05-.9c-3.48-.81-5.22-2.7-5.22-5.67,0-1.92,.76-3.49,2.29-4.7s3.43-1.82,5.71-1.82c2.49,0,4.45,.55,5.87,1.64s2.32,2.62,2.68,4.57h-5.31c-.42-1.32-1.47-1.98-3.15-1.98-.72,0-1.34,.17-1.87,.5-.53,.33-.79,.79-.79,1.4,0,.75,.6,1.28,1.8,1.57l4.14,.95c3.57,.87,5.36,2.82,5.36,5.85,0,2.01-.77,3.6-2.32,4.77s-3.52,1.75-5.92,1.75-4.53-.56-6.12-1.69c-1.59-1.12-2.54-2.71-2.83-4.75Z"/>
    <path class="cls-1" d="M446.76,676.08c0,.93-.32,1.7-.97,2.29-.65,.6-1.42,.9-2.32,.9s-1.72-.3-2.36-.9c-.65-.6-.97-1.36-.97-2.29s.33-1.66,.99-2.27c.66-.61,1.44-.92,2.34-.92s1.67,.31,2.32,.92c.65,.62,.97,1.37,.97,2.27Zm-.5,5.8v20.12h-5.58v-20.12h5.58Z"/>
    <path class="cls-1" d="M449.82,696.02h5.54c.45,1.47,1.58,2.21,3.38,2.21,1.89,0,2.83-.66,2.83-1.98,0-.45-.16-.8-.47-1.06s-.83-.47-1.55-.65l-4.05-.9c-3.48-.81-5.22-2.7-5.22-5.67,0-1.92,.76-3.49,2.29-4.7s3.43-1.82,5.71-1.82c2.49,0,4.45,.55,5.87,1.64s2.32,2.62,2.68,4.57h-5.31c-.42-1.32-1.47-1.98-3.15-1.98-.72,0-1.34,.17-1.87,.5-.53,.33-.79,.79-.79,1.4,0,.75,.6,1.28,1.8,1.57l4.14,.95c3.57,.87,5.36,2.82,5.36,5.85,0,2.01-.77,3.6-2.32,4.77s-3.52,1.75-5.92,1.75-4.53-.56-6.12-1.69c-1.59-1.12-2.54-2.71-2.83-4.75Z"/>
    <path class="cls-1" d="M496.4,684c1.56-1.71,3.58-2.56,6.08-2.56,2.07,0,3.69,.67,4.86,2,1.17,1.34,1.75,3.14,1.75,5.42v13.14h-5.58v-11.97c0-1.11-.25-1.99-.74-2.63-.5-.64-1.21-.97-2.14-.97-.75,0-1.41,.22-1.98,.67-.57,.45-.95,1.1-1.12,1.93v12.96h-5.62v-11.97c0-2.4-.95-3.6-2.83-3.6-.75,0-1.42,.23-2,.7s-.97,1.1-1.15,1.91v12.96h-5.58v-20.12h5.58v1.67c1.11-1.41,2.8-2.11,5.08-2.11s4.11,.85,5.4,2.56Z"/>
    <path class="cls-1" d="M532.17,691.96c0,3.09-.92,5.61-2.75,7.56s-4.2,2.92-7.11,2.92-5.28-.97-7.11-2.92c-1.83-1.95-2.75-4.47-2.75-7.56s.92-5.65,2.75-7.6c1.83-1.95,4.2-2.92,7.11-2.92s5.28,.97,7.11,2.92,2.75,4.49,2.75,7.6Zm-5.54,0c0-1.74-.38-3.14-1.15-4.21-.76-1.06-1.82-1.6-3.17-1.6s-2.41,.53-3.17,1.6c-.76,1.07-1.15,2.47-1.15,4.21s.38,3.1,1.15,4.16c.76,1.07,1.82,1.6,3.17,1.6s2.41-.53,3.17-1.6c.77-1.06,1.15-2.45,1.15-4.16Z"/>
    <path class="cls-1" d="M534.47,696.02h5.54c.45,1.47,1.58,2.21,3.38,2.21,1.89,0,2.83-.66,2.83-1.98,0-.45-.16-.8-.47-1.06s-.83-.47-1.55-.65l-4.05-.9c-3.48-.81-5.22-2.7-5.22-5.67,0-1.92,.76-3.49,2.29-4.7s3.43-1.82,5.71-1.82c2.49,0,4.45,.55,5.87,1.64s2.32,2.62,2.68,4.57h-5.31c-.42-1.32-1.47-1.98-3.15-1.98-.72,0-1.34,.17-1.87,.5-.53,.33-.79,.79-.79,1.4,0,.75,.6,1.28,1.8,1.57l4.14,.95c3.57,.87,5.36,2.82,5.36,5.85,0,2.01-.77,3.6-2.32,4.77s-3.52,1.75-5.92,1.75-4.53-.56-6.12-1.69c-1.59-1.12-2.54-2.71-2.83-4.75Z"/>
    <path class="cls-1" d="M556.65,695.92v-9.54h-3.06v-4.5h3.06v-5.44h5.54v5.44h4.41v4.5h-4.41v8.82c0,1.53,.77,2.29,2.29,2.29,.93,0,1.74-.22,2.43-.67v4.95c-.78,.42-1.98,.63-3.6,.63-2.1,0-3.73-.54-4.9-1.62s-1.76-2.7-1.76-4.86Z"/>
    <path class="cls-1" d="M586.08,672.75v29.25h-5.58v-29.25h5.58Z"/>
    <path class="cls-1" d="M597.01,676.08c0,.93-.32,1.7-.97,2.29-.65,.6-1.42,.9-2.32,.9s-1.72-.3-2.36-.9c-.65-.6-.97-1.36-.97-2.29s.33-1.66,.99-2.27c.66-.61,1.44-.92,2.34-.92s1.67,.31,2.32,.92c.65,.62,.97,1.37,.97,2.27Zm-.5,5.8v20.12h-5.58v-20.12h5.58Z"/>
    <path class="cls-1" d="M614.48,702l-5.9-8.1-1.62,1.75v6.34h-5.58v-29.25h5.58v16.61l6.88-7.47h6.93l-8.15,8.55,8.46,11.56h-6.61Z"/>
    <path class="cls-1" d="M635.22,695.43h5.17c-.36,2.19-1.31,3.91-2.86,5.15s-3.56,1.87-6.05,1.87c-2.91,0-5.26-.97-7.06-2.9-1.8-1.94-2.7-4.46-2.7-7.58s.91-5.54,2.72-7.54c1.81-2,4.13-2.99,6.95-2.99s5.12,.91,6.73,2.72c1.6,1.82,2.41,4.24,2.41,7.27v1.71h-13.41c.09,1.5,.52,2.68,1.3,3.53,.78,.85,1.8,1.28,3.06,1.28,2.04,0,3.29-.84,3.74-2.52Zm-3.78-9.45c-2.28,0-3.67,1.26-4.18,3.78h7.79c-.03-1.11-.36-2.02-.99-2.72s-1.5-1.06-2.61-1.06Z"/>
    <path class="cls-1" d="M649.66,672.75v29.25h-5.58v-29.25h5.58Z"/>
    <path class="cls-1" d="M662.94,709.42h-5.49l2.92-7.33-7.7-20.21h5.9l4.63,13.37,4.59-13.37h5.62l-10.49,27.54Z"/>
    <path class="cls-1" d="M702.49,702h-5.36v-1.08c-.36,.36-1,.69-1.93,.99-.93,.3-1.92,.45-2.97,.45-2.13,0-3.91-.58-5.33-1.75s-2.14-2.76-2.14-4.77c0-1.89,.74-3.43,2.23-4.63,1.49-1.2,3.34-1.8,5.56-1.8,.84,0,1.71,.12,2.61,.36,.9,.24,1.56,.51,1.98,.81v-1.49c0-.9-.28-1.64-.83-2.23-.56-.58-1.37-.88-2.45-.88-1.5,0-2.49,.63-2.97,1.89h-5.31c.3-1.86,1.22-3.4,2.77-4.61,1.54-1.21,3.44-1.82,5.69-1.82,2.67,0,4.75,.68,6.23,2.05,1.48,1.37,2.23,3.26,2.23,5.69v12.83Zm-5.36-5.49v-1.44c-.24-.54-.7-.97-1.37-1.28-.67-.32-1.43-.47-2.27-.47-.96,0-1.79,.21-2.5,.63s-1.06,1.04-1.06,1.84,.34,1.43,1.04,1.84c.69,.42,1.53,.63,2.52,.63,.84,0,1.6-.16,2.27-.47,.67-.32,1.13-.74,1.37-1.28Z"/>
    <path class="cls-1" d="M722.16,700.33v9.09h-5.58v-27.54h5.58v1.67c.48-.57,1.18-1.06,2.12-1.48,.93-.42,1.9-.63,2.92-.63,2.82,0,5.05,1.01,6.71,3.04,1.65,2.03,2.48,4.52,2.48,7.49s-.83,5.46-2.48,7.47c-1.65,2.01-3.89,3.01-6.71,3.01-1.02,0-2-.21-2.92-.63-.93-.42-1.64-.92-2.12-1.49Zm0-11.7v6.62c.33,.69,.84,1.25,1.53,1.69,.69,.44,1.44,.65,2.25,.65,1.47,0,2.64-.52,3.51-1.57s1.31-2.4,1.31-4.05-.44-3.01-1.31-4.07c-.87-1.06-2.04-1.6-3.51-1.6-.81,0-1.55,.22-2.23,.65-.67,.44-1.19,1-1.55,1.69Z"/>
    <path class="cls-1" d="M746.01,676.08c0,.93-.32,1.7-.97,2.29-.65,.6-1.42,.9-2.32,.9s-1.72-.3-2.36-.9c-.65-.6-.97-1.36-.97-2.29s.33-1.66,.99-2.27c.66-.61,1.44-.92,2.34-.92s1.67,.31,2.32,.92c.65,.62,.97,1.37,.97,2.27Zm-.5,5.8v20.12h-5.58v-20.12h5.58Z"/>
    <path class="cls-1" d="M755.95,700.33v9.09h-5.58v-27.54h5.58v1.67c.48-.57,1.18-1.06,2.12-1.48,.93-.42,1.9-.63,2.92-.63,2.82,0,5.05,1.01,6.71,3.04,1.65,2.03,2.48,4.52,2.48,7.49s-.83,5.46-2.48,7.47c-1.65,2.01-3.89,3.01-6.71,3.01-1.02,0-2-.21-2.92-.63-.93-.42-1.64-.92-2.12-1.49Zm0-11.7v6.62c.33,.69,.84,1.25,1.53,1.69,.69,.44,1.44,.65,2.25,.65,1.47,0,2.64-.52,3.51-1.57s1.31-2.4,1.31-4.05-.44-3.01-1.31-4.07c-.87-1.06-2.04-1.6-3.51-1.6-.81,0-1.55,.22-2.23,.65-.67,.44-1.19,1-1.55,1.69Z"/>
    <path class="cls-1" d="M786.15,695.43h5.17c-.36,2.19-1.31,3.91-2.86,5.15s-3.56,1.87-6.05,1.87c-2.91,0-5.26-.97-7.06-2.9-1.8-1.94-2.7-4.46-2.7-7.58s.91-5.54,2.72-7.54c1.81-2,4.13-2.99,6.95-2.99s5.12,.91,6.73,2.72c1.6,1.82,2.41,4.24,2.41,7.27v1.71h-13.41c.09,1.5,.52,2.68,1.3,3.53,.78,.85,1.8,1.28,3.06,1.28,2.04,0,3.29-.84,3.74-2.52Zm-3.78-9.45c-2.28,0-3.67,1.26-4.18,3.78h7.79c-.03-1.11-.36-2.02-.99-2.72s-1.5-1.06-2.61-1.06Z"/>
    <path class="cls-1" d="M794.81,701.28c-.67-.69-1.01-1.54-1.01-2.57s.34-1.87,1.01-2.54,1.51-1.01,2.5-1.01,1.82,.34,2.5,1.01,1.01,1.52,1.01,2.54-.34,1.88-1.01,2.57c-.67,.69-1.51,1.04-2.5,1.04s-1.82-.34-2.5-1.04Z"/>
  </g>
</svg>