<svg id="OUTLINES" xmlns="http://www.w3.org/2000/svg" viewBox="0 0 1152 1008"><defs><style>.cls-1{fill:#fff;}.cls-2{fill:#000f7d;}</style></defs><title>sign-up-with-another-account</title><path class="cls-1" d="M817.66,525.5H350a18,18,0,0,0-18,18v63a18,18,0,0,0,18,18H613a33.94,33.94,0,0,1,33.89-32.07h.41l32.06,32.07H817.66a18,18,0,0,0,18-18v-63A18,18,0,0,0,817.66,525.5Z"/><path class="cls-1" d="M817.66,630.5H676.9l-32-32A27.93,27.93,0,0,0,619,624.82l-.3,5.68H350a24,24,0,0,1-24-24v-63a24,24,0,0,1,24-24H817.66a24,24,0,0,1,24,24v63A24,24,0,0,1,817.66,630.5Zm-135.79-12H817.66a12,12,0,0,0,12-12v-63a12,12,0,0,0-12-12H350a12,12,0,0,0-12,12v63a12,12,0,0,0,12,12H607.75a39.93,39.93,0,0,1,39.16-32.07l2.93,0Z"/><rect class="cls-1" x="332" y="260" width="503.66" height="99" rx="18" transform="translate(1167.66 619) rotate(180)"/><path class="cls-1" d="M817.66,365H350a24,24,0,0,1-24-24V278a24,24,0,0,1,24-24H817.66a24,24,0,0,1,24,24v63A24,24,0,0,1,817.66,365ZM350,266a12,12,0,0,0-12,12v63a12,12,0,0,0,12,12H817.66a12,12,0,0,0,12-12V278a12,12,0,0,0-12-12Z"/><rect class="cls-1" x="332" y="359" width="503.66" height="99" rx="18" transform="translate(1167.66 817) rotate(180)"/><path class="cls-1" d="M817.66,464H350a24,24,0,0,1-24-24V377a24,24,0,0,1,24-24H817.66a24,24,0,0,1,24,24v63A24,24,0,0,1,817.66,464ZM350,365a12,12,0,0,0-12,12v63a12,12,0,0,0,12,12H817.66a12,12,0,0,0,12-12V377a12,12,0,0,0-12-12Z"/><path class="cls-2" d="M578.15,485a10.6,10.6,0,0,1-2.74,7.56,10.12,10.12,0,0,1-14.22,0,11.84,11.84,0,0,1,0-15.17,10.12,10.12,0,0,1,14.22,0A10.67,10.67,0,0,1,578.15,485Zm-5.53,0a7,7,0,0,0-1.15-4.21,4,4,0,0,0-6.35,0A7.11,7.11,0,0,0,564,485a7,7,0,0,0,1.14,4.16,4,4,0,0,0,6.35,0A6.92,6.92,0,0,0,572.62,485Z"/><path class="cls-2" d="M593.9,474.8v5.58a5.34,5.34,0,0,0-2.79-.68,4.09,4.09,0,0,0-2.47.75,3.41,3.41,0,0,0-1.35,2.09V495h-5.58V474.89h5.58v2a4.86,4.86,0,0,1,4.5-2.43A4.51,4.51,0,0,1,593.9,474.8Z"/><path class="cls-2" d="M432.76,307.48h5.95c.74,2.37,2.58,3.55,5.49,3.55a5.56,5.56,0,0,0,3.37-.92,3,3,0,0,0,1.26-2.54,2.53,2.53,0,0,0-.79-2,5.71,5.71,0,0,0-2.58-1.13l-5-1.12q-7-1.57-7-7.56a7.66,7.66,0,0,1,2.79-6.12,10.6,10.6,0,0,1,7.15-2.39,11.54,11.54,0,0,1,7.36,2.19,9.55,9.55,0,0,1,3.49,5.82h-5.72q-1.12-3.28-5.09-3.28a5.2,5.2,0,0,0-3.17.88,2.78,2.78,0,0,0-1.19,2.36q0,2.29,3.1,3l5,1.17q7.25,1.66,7.25,7.79a7.64,7.64,0,0,1-2.88,6.25,11.33,11.33,0,0,1-7.38,2.34,12.84,12.84,0,0,1-7.7-2.2A9.31,9.31,0,0,1,432.76,307.48Z"/><path class="cls-2" d="M464.17,289.43a3,3,0,0,1-1,2.3,3.49,3.49,0,0,1-4.68,0,3.15,3.15,0,0,1,0-4.57,3.34,3.34,0,0,1,2.34-.92,3.27,3.27,0,0,1,2.32.92A3,3,0,0,1,464.17,289.43Zm-.49,5.81v20.11H458.1V295.24Z"/><path class="cls-2" d="M481.36,314v-1.17a6.05,6.05,0,0,1-4.95,2.07,8.27,8.27,0,0,1-6.66-2.92,11.54,11.54,0,0,1,0-14.27,8.27,8.27,0,0,1,6.66-2.92,6.2,6.2,0,0,1,4.95,2v-1.57h5.54v17.91q0,5-2.7,7.54a10,10,0,0,1-7.16,2.54,10.34,10.34,0,0,1-6.41-1.89,7.59,7.59,0,0,1-2.95-5.27h5.4q.68,2.83,4,2.84Q481.36,318.91,481.36,314Zm0-5.89v-6.57a4.14,4.14,0,0,0-3.78-2.07,4.29,4.29,0,0,0-3.46,1.48,5.78,5.78,0,0,0-1.26,3.87,5.9,5.9,0,0,0,1.26,3.9,4.63,4.63,0,0,0,5.69.9A4.41,4.41,0,0,0,481.36,308.11Z"/><path class="cls-2" d="M491.76,315.35V295.24h5.58v1.84a7.65,7.65,0,0,1,10.64-.27,7.63,7.63,0,0,1,1.87,5.4v13.14h-5.58v-12a3.83,3.83,0,0,0-.83-2.58,3.07,3.07,0,0,0-2.46-1,3.82,3.82,0,0,0-2.31.74,3.45,3.45,0,0,0-1.33,2.05v12.73Z"/><path class="cls-2" d="M541.84,295.24v20.11h-5.58v-1.84a6.93,6.93,0,0,1-5.4,2.29,6.69,6.69,0,0,1-5.19-2,7.63,7.63,0,0,1-1.87-5.4V295.24h5.58v12a3.88,3.88,0,0,0,.81,2.61,3,3,0,0,0,2.43.95,3.74,3.74,0,0,0,2.29-.74,3.52,3.52,0,0,0,1.31-2.05V295.24Z"/><path class="cls-2" d="M552.24,313.69v9.09h-5.58V295.24h5.58v1.66a5.84,5.84,0,0,1,2.11-1.48,7.05,7.05,0,0,1,2.93-.63,8.17,8.17,0,0,1,6.7,3,12.52,12.52,0,0,1,0,15,8.2,8.2,0,0,1-6.7,3,7.05,7.05,0,0,1-2.93-.63A5.84,5.84,0,0,1,552.24,313.69Zm0-11.7v6.61a4,4,0,0,0,1.53,1.69,4.09,4.09,0,0,0,2.25.65,4.32,4.32,0,0,0,3.51-1.57,6.13,6.13,0,0,0,1.3-4.05,6.21,6.21,0,0,0-1.3-4.07,4.29,4.29,0,0,0-3.51-1.6,4.09,4.09,0,0,0-2.23.65A4.48,4.48,0,0,0,552.24,302Z"/><path class="cls-2" d="M594.45,295.24l3.33,12.82,3.6-12.82h5.4l-6.12,20.11h-5.13L592.24,303,589,315.35h-5.13l-6.12-20.11h5.58l3.6,12.82,3.28-12.82Z"/><path class="cls-2" d="M615.87,289.43a3,3,0,0,1-1,2.3,3.49,3.49,0,0,1-4.68,0,3.15,3.15,0,0,1,0-4.57,3.34,3.34,0,0,1,2.34-.92,3.27,3.27,0,0,1,2.32.92A3,3,0,0,1,615.87,289.43Zm-.5,5.81v20.11h-5.58V295.24Z"/><path class="cls-2" d="M621.45,309.28v-9.54h-3.06v-4.5h3.06v-5.45H627v5.45h4.41v4.5H627v8.82a2,2,0,0,0,2.3,2.29,4.35,4.35,0,0,0,2.43-.67v4.95a7.89,7.89,0,0,1-3.6.63,7,7,0,0,1-4.91-1.62A6.29,6.29,0,0,1,621.45,309.28Z"/><path class="cls-2" d="M635.76,315.35V286.1h5.58v11a7.65,7.65,0,0,1,10.64-.27,7.68,7.68,0,0,1,1.87,5.4v13.14h-5.58v-12a3.78,3.78,0,0,0-.84-2.58,3,3,0,0,0-2.45-1,3.87,3.87,0,0,0-2.32.74,3.48,3.48,0,0,0-1.32,2.05v12.73Z"/><path class="cls-2" d="M686.61,305.45h-5.27v-4.59h10.89v2.43a12.44,12.44,0,0,1-3.35,9.09,11.62,11.62,0,0,1-8.66,3.42,12.58,12.58,0,0,1-9.57-4,16,16,0,0,1,0-20.56,12.42,12.42,0,0,1,9.43-4,11.79,11.79,0,0,1,7.88,2.55,11.33,11.33,0,0,1,3.82,6.81H686a5.91,5.91,0,0,0-5.9-4.23,6.41,6.41,0,0,0-5.35,2.55,11.94,11.94,0,0,0,0,13.23,6.62,6.62,0,0,0,5.45,2.54,6.26,6.26,0,0,0,4.25-1.42A6.68,6.68,0,0,0,686.61,305.45Z"/><path class="cls-2" d="M714.82,305.32a10.61,10.61,0,0,1-2.75,7.56,10.12,10.12,0,0,1-14.22,0,11.87,11.87,0,0,1,0-15.17,10.12,10.12,0,0,1,14.22,0A10.68,10.68,0,0,1,714.82,305.32Zm-5.54,0a7.11,7.11,0,0,0-1.14-4.21,4,4,0,0,0-6.35,0,7.11,7.11,0,0,0-1.15,4.21,7,7,0,0,0,1.15,4.16,4,4,0,0,0,6.35,0A7,7,0,0,0,709.28,305.32Z"/><path class="cls-2" d="M737,305.32a10.6,10.6,0,0,1-2.74,7.56,10.12,10.12,0,0,1-14.22,0,11.84,11.84,0,0,1,0-15.17,10.12,10.12,0,0,1,14.22,0A10.67,10.67,0,0,1,737,305.32Zm-5.53,0a7,7,0,0,0-1.15-4.21,3.94,3.94,0,0,0-6.34,0,7,7,0,0,0-1.15,4.21,6.92,6.92,0,0,0,1.15,4.16,3.94,3.94,0,0,0,6.34,0A6.92,6.92,0,0,0,731.47,305.32Z"/><path class="cls-2" d="M753.56,314v-1.17a6.05,6.05,0,0,1-4.95,2.07A8.27,8.27,0,0,1,742,312a11.54,11.54,0,0,1,0-14.27,8.27,8.27,0,0,1,6.66-2.92,6.2,6.2,0,0,1,4.95,2v-1.57h5.54v17.91q0,5-2.7,7.54a10,10,0,0,1-7.16,2.54,10.34,10.34,0,0,1-6.41-1.89,7.59,7.59,0,0,1-3-5.27h5.4q.68,2.83,4,2.84Q753.56,318.91,753.56,314Zm0-5.89v-6.57a4.14,4.14,0,0,0-3.78-2.07,4.29,4.29,0,0,0-3.46,1.48,5.78,5.78,0,0,0-1.26,3.87,5.9,5.9,0,0,0,1.26,3.9,4.63,4.63,0,0,0,5.69.9A4.41,4.41,0,0,0,753.56,308.11Z"/><path class="cls-2" d="M769.54,286.1v29.25H764V286.1Z"/><path class="cls-2" d="M786.64,308.78h5.17a8.06,8.06,0,0,1-2.85,5.16,9.41,9.41,0,0,1-6.06,1.86,9.17,9.17,0,0,1-7.06-2.9,10.67,10.67,0,0,1-2.7-7.58,10.81,10.81,0,0,1,2.72-7.54,9,9,0,0,1,6.95-3,8.52,8.52,0,0,1,6.73,2.72,10.56,10.56,0,0,1,2.41,7.27v1.71H778.54a5.54,5.54,0,0,0,1.3,3.53,3.93,3.93,0,0,0,3.06,1.28Q786,311.3,786.64,308.78Zm-3.78-9.45q-3.42,0-4.19,3.78h7.79a4.11,4.11,0,0,0-1-2.72A3.34,3.34,0,0,0,782.86,299.33Z"/><path class="cls-2" d="M432.76,406.48h5.95c.74,2.37,2.58,3.55,5.49,3.55a5.56,5.56,0,0,0,3.37-.92,3,3,0,0,0,1.26-2.54,2.53,2.53,0,0,0-.79-2,5.71,5.71,0,0,0-2.58-1.13l-5-1.12q-7-1.57-7-7.56a7.66,7.66,0,0,1,2.79-6.12,10.6,10.6,0,0,1,7.15-2.39,11.54,11.54,0,0,1,7.36,2.19,9.55,9.55,0,0,1,3.49,5.82h-5.72q-1.12-3.28-5.09-3.28a5.2,5.2,0,0,0-3.17.88,2.78,2.78,0,0,0-1.19,2.36q0,2.29,3.1,3l5,1.17q7.25,1.66,7.25,7.79a7.64,7.64,0,0,1-2.88,6.25,11.33,11.33,0,0,1-7.38,2.34,12.84,12.84,0,0,1-7.7-2.2A9.31,9.31,0,0,1,432.76,406.48Z"/><path class="cls-2" d="M464.17,388.43a3,3,0,0,1-1,2.3,3.49,3.49,0,0,1-4.68,0,3.15,3.15,0,0,1,0-4.57,3.34,3.34,0,0,1,2.34-.92,3.27,3.27,0,0,1,2.32.92A3,3,0,0,1,464.17,388.43Zm-.49,5.81v20.11H458.1V394.24Z"/><path class="cls-2" d="M481.36,413v-1.17a6.05,6.05,0,0,1-4.95,2.07,8.27,8.27,0,0,1-6.66-2.92,11.54,11.54,0,0,1,0-14.27,8.27,8.27,0,0,1,6.66-2.92,6.2,6.2,0,0,1,4.95,2v-1.57h5.54v17.91q0,5-2.7,7.54a10,10,0,0,1-7.16,2.54,10.34,10.34,0,0,1-6.41-1.89,7.59,7.59,0,0,1-2.95-5.27h5.4q.68,2.83,4,2.84Q481.36,417.91,481.36,413Zm0-5.89v-6.57a4.14,4.14,0,0,0-3.78-2.07,4.29,4.29,0,0,0-3.46,1.48,5.78,5.78,0,0,0-1.26,3.87,5.9,5.9,0,0,0,1.26,3.9,4.63,4.63,0,0,0,5.69.9A4.41,4.41,0,0,0,481.36,407.11Z"/><path class="cls-2" d="M491.76,414.35V394.24h5.58v1.84a7.65,7.65,0,0,1,10.64-.27,7.63,7.63,0,0,1,1.87,5.4v13.14h-5.58v-12a3.83,3.83,0,0,0-.83-2.58,3.07,3.07,0,0,0-2.46-1,3.82,3.82,0,0,0-2.31.74,3.45,3.45,0,0,0-1.33,2.05v12.73Z"/><path class="cls-2" d="M541.84,394.24v20.11h-5.58v-1.84a6.93,6.93,0,0,1-5.4,2.29,6.69,6.69,0,0,1-5.19-2,7.63,7.63,0,0,1-1.87-5.4V394.24h5.58v12a3.88,3.88,0,0,0,.81,2.61,3,3,0,0,0,2.43.95,3.74,3.74,0,0,0,2.29-.74,3.52,3.52,0,0,0,1.31-2.05V394.24Z"/><path class="cls-2" d="M552.24,412.69v9.09h-5.58V394.24h5.58v1.66a5.84,5.84,0,0,1,2.11-1.48,7.05,7.05,0,0,1,2.93-.63,8.17,8.17,0,0,1,6.7,3,12.52,12.52,0,0,1,0,15,8.2,8.2,0,0,1-6.7,3,7.05,7.05,0,0,1-2.93-.63A5.84,5.84,0,0,1,552.24,412.69Zm0-11.7v6.61a4,4,0,0,0,1.53,1.69,4.09,4.09,0,0,0,2.25.65,4.32,4.32,0,0,0,3.51-1.57,6.13,6.13,0,0,0,1.3-4.05,6.21,6.21,0,0,0-1.3-4.07,4.29,4.29,0,0,0-3.51-1.6,4.09,4.09,0,0,0-2.23.65A4.48,4.48,0,0,0,552.24,401Z"/><path class="cls-2" d="M594.45,394.24l3.33,12.82,3.6-12.82h5.4l-6.12,20.11h-5.13L592.24,402,589,414.35h-5.13l-6.12-20.11h5.58l3.6,12.82,3.28-12.82Z"/><path class="cls-2" d="M615.87,388.43a3,3,0,0,1-1,2.3,3.49,3.49,0,0,1-4.68,0,3.15,3.15,0,0,1,0-4.57,3.34,3.34,0,0,1,2.34-.92,3.27,3.27,0,0,1,2.32.92A3,3,0,0,1,615.87,388.43Zm-.5,5.81v20.11h-5.58V394.24Z"/><path class="cls-2" d="M621.45,408.28v-9.54h-3.06v-4.5h3.06v-5.45H627v5.45h4.41v4.5H627v8.82a2,2,0,0,0,2.3,2.29,4.35,4.35,0,0,0,2.43-.67v4.95a7.89,7.89,0,0,1-3.6.63,7,7,0,0,1-4.91-1.62A6.29,6.29,0,0,1,621.45,408.28Z"/><path class="cls-2" d="M635.76,414.35V385.1h5.58v11a7.65,7.65,0,0,1,10.64-.27,7.68,7.68,0,0,1,1.87,5.4v13.14h-5.58v-12a3.78,3.78,0,0,0-.84-2.58,3,3,0,0,0-2.45-1,3.87,3.87,0,0,0-2.32.74,3.48,3.48,0,0,0-1.32,2.05v12.73Z"/><path class="cls-2" d="M666.76,391.76v-5h23.58v5h-8.91v22.59h-5.8V391.76Z"/><path class="cls-2" d="M707.17,394.24l3.33,12.82,3.6-12.82h5.4l-6.12,20.11h-5.13L705,402l-3.29,12.33h-5.13l-6.12-20.11H696l3.6,12.82,3.29-12.82Z"/><path class="cls-2" d="M728.59,388.43a3,3,0,0,1-1,2.3,3.26,3.26,0,0,1-2.31.9,3.37,3.37,0,0,1-2.37-.9,3,3,0,0,1-1-2.3,3,3,0,0,1,1-2.27,3.32,3.32,0,0,1,2.34-.92,3.23,3.23,0,0,1,2.31.92A3,3,0,0,1,728.59,388.43Zm-.49,5.81v20.11h-5.58V394.24Z"/><path class="cls-2" d="M734.17,408.28v-9.54h-3.06v-4.5h3.06v-5.45h5.54v5.45h4.41v4.5h-4.41v8.82a2,2,0,0,0,2.29,2.29,4.35,4.35,0,0,0,2.43-.67v4.95a7.89,7.89,0,0,1-3.6.63,7,7,0,0,1-4.9-1.62A6.3,6.3,0,0,1,734.17,408.28Z"/><path class="cls-2" d="M749.69,408.28v-9.54h-3.06v-4.5h3.06v-5.45h5.54v5.45h4.41v4.5h-4.41v8.82a2,2,0,0,0,2.29,2.29,4.4,4.4,0,0,0,2.44-.67v4.95a8,8,0,0,1-3.61.63,7,7,0,0,1-4.9-1.62A6.3,6.3,0,0,1,749.69,408.28Z"/><path class="cls-2" d="M776.06,407.78h5.18a8,8,0,0,1-2.86,5.16,9.36,9.36,0,0,1-6,1.86,9.19,9.19,0,0,1-7.07-2.9,11.88,11.88,0,0,1,0-15.12,9,9,0,0,1,7-3,8.54,8.54,0,0,1,6.73,2.72,10.61,10.61,0,0,1,2.41,7.27v1.71H768a5.55,5.55,0,0,0,1.31,3.53,3.93,3.93,0,0,0,3.06,1.28Q775.39,410.3,776.06,407.78Zm-3.78-9.45q-3.42,0-4.18,3.78h7.78a4.11,4.11,0,0,0-1-2.72A3.34,3.34,0,0,0,772.28,398.33Z"/><path class="cls-2" d="M797.12,394.15v5.58a5.34,5.34,0,0,0-2.79-.68,4.09,4.09,0,0,0-2.47.75,3.41,3.41,0,0,0-1.35,2.09v12.46h-5.58V394.24h5.58v2a4.86,4.86,0,0,1,4.5-2.43A4.51,4.51,0,0,1,797.12,394.15Z"/><path class="cls-2" d="M432.76,573h5.95c.74,2.37,2.58,3.55,5.49,3.55a5.56,5.56,0,0,0,3.37-.92,3,3,0,0,0,1.26-2.54,2.53,2.53,0,0,0-.79-2,5.71,5.71,0,0,0-2.58-1.13l-5-1.12q-7-1.58-7-7.56a7.66,7.66,0,0,1,2.79-6.12,10.6,10.6,0,0,1,7.15-2.39,11.54,11.54,0,0,1,7.36,2.19,9.55,9.55,0,0,1,3.49,5.82h-5.72q-1.12-3.28-5.09-3.28a5.2,5.2,0,0,0-3.17.88,2.78,2.78,0,0,0-1.19,2.36q0,2.29,3.1,3l5,1.17q7.25,1.67,7.25,7.79a7.64,7.64,0,0,1-2.88,6.25,11.33,11.33,0,0,1-7.38,2.34,12.84,12.84,0,0,1-7.7-2.2A9.31,9.31,0,0,1,432.76,573Z"/><path class="cls-2" d="M464.17,554.93a3,3,0,0,1-1,2.3,3.49,3.49,0,0,1-4.68,0,3.15,3.15,0,0,1,0-4.57,3.34,3.34,0,0,1,2.34-.92,3.27,3.27,0,0,1,2.32.92A3,3,0,0,1,464.17,554.93Zm-.49,5.81v20.11H458.1V560.74Z"/><path class="cls-2" d="M481.36,579.5v-1.17a6.05,6.05,0,0,1-4.95,2.07,8.27,8.27,0,0,1-6.66-2.92,11.54,11.54,0,0,1,0-14.27,8.27,8.27,0,0,1,6.66-2.92,6.2,6.2,0,0,1,4.95,2v-1.57h5.54v17.91q0,5-2.7,7.54a10,10,0,0,1-7.16,2.54,10.34,10.34,0,0,1-6.41-1.89,7.59,7.59,0,0,1-2.95-5.27h5.4q.68,2.83,4,2.84Q481.36,584.41,481.36,579.5Zm0-5.89V567a4.14,4.14,0,0,0-3.78-2.07,4.29,4.29,0,0,0-3.46,1.48,5.78,5.78,0,0,0-1.26,3.87,5.9,5.9,0,0,0,1.26,3.9,4.63,4.63,0,0,0,5.69.9A4.41,4.41,0,0,0,481.36,573.61Z"/><path class="cls-2" d="M491.76,580.85V560.74h5.58v1.84a7.65,7.65,0,0,1,10.64-.27,7.63,7.63,0,0,1,1.87,5.4v13.14h-5.58v-12a3.83,3.83,0,0,0-.83-2.58,3.07,3.07,0,0,0-2.46-1,3.82,3.82,0,0,0-2.31.74,3.45,3.45,0,0,0-1.33,2v12.73Z"/><path class="cls-2" d="M541.84,560.74v20.11h-5.58V579a6.93,6.93,0,0,1-5.4,2.29,6.69,6.69,0,0,1-5.19-2,7.63,7.63,0,0,1-1.87-5.4V560.74h5.58v12a3.88,3.88,0,0,0,.81,2.61,3,3,0,0,0,2.43.95,3.74,3.74,0,0,0,2.29-.74,3.52,3.52,0,0,0,1.31-2.05V560.74Z"/><path class="cls-2" d="M552.24,579.19v9.09h-5.58V560.74h5.58v1.66a5.84,5.84,0,0,1,2.11-1.48,7.05,7.05,0,0,1,2.93-.63,8.17,8.17,0,0,1,6.7,3,12.52,12.52,0,0,1,0,15,8.2,8.2,0,0,1-6.7,3,7.05,7.05,0,0,1-2.93-.63A5.84,5.84,0,0,1,552.24,579.19Zm0-11.7v6.61a4,4,0,0,0,1.53,1.69,4.09,4.09,0,0,0,2.25.65,4.32,4.32,0,0,0,3.51-1.57,6.13,6.13,0,0,0,1.3-4,6.21,6.21,0,0,0-1.3-4.07,4.29,4.29,0,0,0-3.51-1.6,4.09,4.09,0,0,0-2.23.65A4.48,4.48,0,0,0,552.24,567.49Z"/><path class="cls-2" d="M594.45,560.74l3.33,12.82,3.6-12.82h5.4l-6.12,20.11h-5.13l-3.29-12.33L589,580.85h-5.13l-6.12-20.11h5.58l3.6,12.82,3.28-12.82Z"/><path class="cls-2" d="M615.87,554.93a3,3,0,0,1-1,2.3,3.49,3.49,0,0,1-4.68,0,3.15,3.15,0,0,1,0-4.57,3.34,3.34,0,0,1,2.34-.92,3.27,3.27,0,0,1,2.32.92A3,3,0,0,1,615.87,554.93Zm-.5,5.81v20.11h-5.58V560.74Z"/><path class="cls-2" d="M621.45,574.78v-9.54h-3.06v-4.5h3.06v-5.45H627v5.45h4.41v4.5H627v8.82a2,2,0,0,0,2.3,2.29,4.35,4.35,0,0,0,2.43-.67v5a7.89,7.89,0,0,1-3.6.63,7,7,0,0,1-4.91-1.62A6.29,6.29,0,0,1,621.45,574.78Z"/><path class="cls-2" d="M635.76,580.85V551.6h5.58v11a7.65,7.65,0,0,1,10.64-.27,7.68,7.68,0,0,1,1.87,5.4v13.14h-5.58v-12a3.78,3.78,0,0,0-.84-2.58,3,3,0,0,0-2.45-1,3.87,3.87,0,0,0-2.32.74,3.48,3.48,0,0,0-1.32,2v12.73Z"/><path class="cls-2" d="M680.26,574.28h5.18a8.07,8.07,0,0,1-2.86,5.16,9.38,9.38,0,0,1-6.05,1.86,9.19,9.19,0,0,1-7.07-2.9,10.67,10.67,0,0,1-2.7-7.58,10.81,10.81,0,0,1,2.72-7.54,9,9,0,0,1,7-3,8.5,8.5,0,0,1,6.72,2.72,10.56,10.56,0,0,1,2.41,7.27V572H672.16a5.55,5.55,0,0,0,1.31,3.53,3.93,3.93,0,0,0,3.06,1.28Q679.59,576.8,680.26,574.28Zm-3.78-9.45q-3.42,0-4.18,3.78h7.78a4.11,4.11,0,0,0-1-2.72A3.34,3.34,0,0,0,676.48,564.83Z"/><path class="cls-2" d="M705.19,562.85a7.83,7.83,0,0,1,6.08-2.56,6.12,6.12,0,0,1,4.85,2,7.94,7.94,0,0,1,1.76,5.42v13.14H712.3v-12a4.26,4.26,0,0,0-.74-2.63,2.56,2.56,0,0,0-2.14-1,3.11,3.11,0,0,0-2,.68,3.21,3.21,0,0,0-1.12,1.93v13h-5.63v-12q0-3.6-2.83-3.6a3.19,3.19,0,0,0-2,.7,3.28,3.28,0,0,0-1.14,1.91v13h-5.59V560.74h5.59v1.66a6,6,0,0,1,5.08-2.11A6.37,6.37,0,0,1,705.19,562.85Z"/><path class="cls-2" d="M739,580.85h-5.36v-1.08a4.85,4.85,0,0,1-1.93,1,9.62,9.62,0,0,1-3,.45,8.11,8.11,0,0,1-5.33-1.75,5.83,5.83,0,0,1-2.14-4.77,5.69,5.69,0,0,1,2.23-4.64,8.53,8.53,0,0,1,5.55-1.8,10.25,10.25,0,0,1,2.62.36,6.37,6.37,0,0,1,2,.81v-1.48a3.1,3.1,0,0,0-.83-2.23,3.23,3.23,0,0,0-2.45-.88,2.86,2.86,0,0,0-3,1.89h-5.31a7.14,7.14,0,0,1,2.77-4.61,8.94,8.94,0,0,1,5.69-1.82,8.83,8.83,0,0,1,6.23,2.05A7.32,7.32,0,0,1,739,568Zm-5.36-5.49v-1.44a2.62,2.62,0,0,0-1.37-1.28,5.36,5.36,0,0,0-2.27-.47,4.81,4.81,0,0,0-2.5.63,2.15,2.15,0,0,0,0,3.69,4.76,4.76,0,0,0,2.52.63,5.36,5.36,0,0,0,2.27-.47A2.63,2.63,0,0,0,733.67,575.36Z"/><path class="cls-2" d="M749.65,554.93a3,3,0,0,1-1,2.3,3.28,3.28,0,0,1-2.32.9,3.34,3.34,0,0,1-2.36-.9,3,3,0,0,1-1-2.3,3,3,0,0,1,1-2.27,3.34,3.34,0,0,1,2.34-.92,3.26,3.26,0,0,1,2.32.92A3,3,0,0,1,749.65,554.93Zm-.5,5.81v20.11h-5.58V560.74Z"/><path class="cls-2" d="M759.59,551.6v29.25H754V551.6Z"/><path class="cls-2" d="M371.07,320.16a21.41,21.41,0,0,1,0-37.31,21.78,21.78,0,0,1,10.86-2.78,22.23,22.23,0,0,1,8.8,1.69,19,19,0,0,1,6.79,4.78l-5.33,5.22a14,14,0,0,0-4.55-3.27,14.6,14.6,0,0,0-5.82-1.09,14,14,0,0,0-6.91,1.78,13.2,13.2,0,0,0-5,5,15.28,15.28,0,0,0,0,14.67,13.41,13.41,0,0,0,5.07,5,14.07,14.07,0,0,0,7,1.77,13.63,13.63,0,0,0,9.46-3.38,10.31,10.31,0,0,0,2-2.66,13.58,13.58,0,0,0,1.23-3.47H381.76V299.5h20.12a14.77,14.77,0,0,1,.4,3.61,22.62,22.62,0,0,1-1.23,7.56,16.82,16.82,0,0,1-3.76,6.14,18.82,18.82,0,0,1-6.67,4.55,22.88,22.88,0,0,1-8.69,1.58A21.89,21.89,0,0,1,371.07,320.16Z"/><path class="cls-2" d="M372.47,421.39c17.91,0,27.7-14.84,27.7-27.7q0-.63,0-1.26a19.74,19.74,0,0,0,4.86-5,19.36,19.36,0,0,1-5.59,1.53,9.76,9.76,0,0,0,4.28-5.38,19.66,19.66,0,0,1-6.18,2.36,9.73,9.73,0,0,0-16.84,6.66,9.63,9.63,0,0,0,.25,2.22,27.66,27.66,0,0,1-20.07-10.17,9.73,9.73,0,0,0,3,13,9.65,9.65,0,0,1-4.4-1.22.62.62,0,0,0,0,.13,9.74,9.74,0,0,0,7.81,9.54,9.37,9.37,0,0,1-2.56.35,10,10,0,0,1-1.83-.18A9.74,9.74,0,0,0,372,413a19.54,19.54,0,0,1-12.09,4.17,19.8,19.8,0,0,1-2.32-.14,27.48,27.48,0,0,0,14.92,4.38"/><path class="cls-2" d="M361,551.93a3.58,3.58,0,0,0-1.27.24l20.38,17.28a1.77,1.77,0,0,0,2.39,0l20.33-17.28a3.53,3.53,0,0,0-1.26-.24Zm-3.44,3a4.38,4.38,0,0,0,0,.51v23.18a3.51,3.51,0,0,0,.28,1.38l14.14-12.9L357.55,554.9Zm47.45,0-14.34,12.16L404.76,580a3.5,3.5,0,0,0,.27-1.38V555.41a4.07,4.07,0,0,0,0-.5Zm-17,14.42-3.26,2.77a5.33,5.33,0,0,1-6.88,0l-3.24-2.75-13.94,12.71.32,0h40.57l.34,0L388,569.32Z"/><path class="cls-2" d="M576.17,647.5a23,23,0,1,0,23,23A23,23,0,0,0,576.17,647.5Zm0,36a13,13,0,1,1,13-13A13,13,0,0,1,576.17,683.5Z"/><path class="cls-2" d="M834,333V270a24,24,0,0,0-24-24H725.17V234a23,23,0,0,0-23-23h-252a23,23,0,0,0-23,23v12H342.35a24,24,0,0,0-24,24v63a23.9,23.9,0,0,0,8.15,18,23.92,23.92,0,0,0-8.15,18v63a24,24,0,0,0,24,24H427v55.5H342.35a24,24,0,0,0-24,24v63a24,24,0,0,0,24,24h84.82V702a23,23,0,0,0,23,23h121v28.69a77.91,77.91,0,0,0,40.9,68.85V846a5,5,0,0,0,10,0V819.5a5,5,0,0,0-2.78-4.48,68,68,0,0,1-38.12-61.33V725h96.17a78.35,78.35,0,0,0,5,95.75,5,5,0,0,0,3.78,1.74,5,5,0,0,0,3.79-8.27A68.37,68.37,0,0,1,690,725a5,5,0,0,0-.07-6.62l-63.22-70.21a28.6,28.6,0,0,1,15.13-47.53,27.92,27.92,0,0,1,4.13-.54l70.69,70.7.13.11L751,705.17a5,5,0,1,0,7.07-7.07l-32.93-32.93V622.5h54.39a140.85,140.85,0,0,1,29.94,86.7V842.44a5,5,0,0,0,10,0V709.2A150.93,150.93,0,0,0,792,622.5h18a24,24,0,0,0,24-24v-63a24,24,0,0,0-24-24H725V456h85a24,24,0,0,0,24-24V369a24,24,0,0,0-8.15-18A23.94,23.94,0,0,0,834,333ZM437.17,234a13,13,0,0,1,13-13h252a13,13,0,0,1,13,13v12h-278Zm13,481a13,13,0,0,1-13-13V622.5h172.3a37.93,37.93,0,0,0-.5,6.16,38.36,38.36,0,0,0,10.34,26.28L673.39,715Zm265-59.83L682.5,622.5h32.67ZM822,535.5v63a12,12,0,0,1-12,12H670.5l-19-19a5,5,0,0,0-3.47-1.46h-.47a38.5,38.5,0,0,0-34.07,20.44H342.35a12,12,0,0,1-12-12v-63a12,12,0,0,1,12-12H810A12,12,0,0,1,822,535.5Zm-107-24H437V456H715ZM822,369v63a12,12,0,0,1-12,12H342.35a12,12,0,0,1-12-12V369a12,12,0,0,1,12-12H810A12,12,0,0,1,822,369ZM342.35,345a12,12,0,0,1-12-12V270a12,12,0,0,1,12-12H810a12,12,0,0,1,12,12v63a12,12,0,0,1-12,12Z"/></svg>