<svg id="OUTLINES" xmlns="http://www.w3.org/2000/svg" viewBox="0 0 1152 1008"><defs><style>.cls-1{fill:#fff;}.cls-2{fill:#000f7d;}</style></defs><title>sign-in-using-another-account</title><path class="cls-1" d="M838.15,427.5v-63a24,24,0,0,0-24-24h-460a24,24,0,0,0-24,24v63a23.93,23.93,0,0,0,8.16,18,23.93,23.93,0,0,0-8.16,18v63a24,24,0,0,0,24,24h460a24,24,0,0,0,24-24v-63a23.92,23.92,0,0,0-8.15-18A23.92,23.92,0,0,0,838.15,427.5Z"/><path class="cls-2" d="M576.17,693.5a23,23,0,1,0-23-23A23,23,0,0,0,576.17,693.5Zm0-36a13,13,0,1,1-13,13A13,13,0,0,1,576.17,657.5Z"/><path class="cls-2" d="M830.5,419.5v-63a24,24,0,0,0-24-24H725.17V234a23,23,0,0,0-23-23h-252a23,23,0,0,0-23,23v98.5H346.5a24,24,0,0,0-24,24v63a23.94,23.94,0,0,0,8.15,18,24,24,0,0,0-8.15,18v63a24,24,0,0,0,24,24h80.67V702a23,23,0,0,0,23,23H570.74a3.91,3.91,0,0,0,0,.48v29.19a77.9,77.9,0,0,0,40.91,68.85V847a5,5,0,0,0,10,0v-26.5a5,5,0,0,0-2.79-4.48,68,68,0,0,1-38.12-61.33V725.48a3.91,3.91,0,0,0-.05-.48h96.71a78.33,78.33,0,0,0,5,95.75,5,5,0,1,0,7.57-6.53A68.37,68.37,0,0,1,690,725a5,5,0,0,0-.07-6.62l-63.22-70.21A28.59,28.59,0,0,1,646,600.1l70.69,70.7h0L751,705.17a5,5,0,1,0,7.07-7.07l-32.91-32.91v-98.5l43.15,43.15a139.57,139.57,0,0,1,41.16,99.37V842.45a5,5,0,0,0,10,0V709.21a149.5,149.5,0,0,0-44.09-106.44l-50.22-50.22v-10H806.5a24,24,0,0,0,24-24v-63a24,24,0,0,0-8.15-18A23.94,23.94,0,0,0,830.5,419.5ZM437.17,234a13,13,0,0,1,13-13h252a13,13,0,0,1,13,13v98.5h-278Zm278,421.19-63.66-63.67a5,5,0,0,0-3.46-1.46h-.48a38.64,38.64,0,0,0-38.6,38.6h0a38.36,38.36,0,0,0,10.34,26.28L673.39,715H450.17a13,13,0,0,1-13-13V542.5h278ZM818.5,455.5v63a12,12,0,0,1-12,12h-460a12,12,0,0,1-12-12v-63a12,12,0,0,1,12-12h460A12,12,0,0,1,818.5,455.5Zm-472-24a12,12,0,0,1-12-12v-63a12,12,0,0,1,12-12h460a12,12,0,0,1,12,12v63a12,12,0,0,1-12,12Z"/><path class="cls-2" d="M451.41,385.92l-5-1.17c-2.07-.47-3.11-1.48-3.11-3a2.77,2.77,0,0,1,1.2-2.36,5.18,5.18,0,0,1,3.17-.88q4,0,5.08,3.29h5.72a9.48,9.48,0,0,0-3.49-5.83,11.52,11.52,0,0,0-7.36-2.18,10.61,10.61,0,0,0-7.15,2.38,7.69,7.69,0,0,0-2.79,6.12q0,6,7,7.56l4.95,1.12a5.76,5.76,0,0,1,2.59,1.13,2.56,2.56,0,0,1,.78,2,3,3,0,0,1-1.26,2.54,5.54,5.54,0,0,1-3.37.93q-4.37,0-5.49-3.56h-5.94a9.31,9.31,0,0,0,3.78,6.12,12.81,12.81,0,0,0,7.69,2.2,11.27,11.27,0,0,0,7.38-2.34,7.62,7.62,0,0,0,2.88-6.25Q458.65,387.59,451.41,385.92Z"/><path class="cls-2" d="M465,372.74a3.34,3.34,0,0,0-2.34.92,3.15,3.15,0,0,0,0,4.57,3.34,3.34,0,0,0,2.36.9,3.28,3.28,0,0,0,2.32-.9,3,3,0,0,0,1-2.29,3,3,0,0,0-1-2.28A3.26,3.26,0,0,0,465,372.74Z"/><rect class="cls-2" x="462.25" y="381.74" width="5.58" height="20.12"/><path class="cls-2" d="M485.52,383.31a6.2,6.2,0,0,0-4.95-2,8.3,8.3,0,0,0-6.66,2.92,11.5,11.5,0,0,0,0,14.27,8.27,8.27,0,0,0,6.66,2.92,6.05,6.05,0,0,0,4.95-2.07v1.17q0,4.9-4.32,4.91c-2.19,0-3.51-1-4-2.83h-5.4a7.53,7.53,0,0,0,3,5.26,10.32,10.32,0,0,0,6.41,1.89,10,10,0,0,0,7.15-2.54q2.7-2.55,2.7-7.54V381.74h-5.53Zm0,11.3a4.49,4.49,0,0,1-1.55,1.51,4.64,4.64,0,0,1-5.7-.9,5.87,5.87,0,0,1-1.26-3.89,5.78,5.78,0,0,1,1.26-3.87,4.29,4.29,0,0,1,3.47-1.49,4.14,4.14,0,0,1,3.78,2.07Z"/><path class="cls-2" d="M506.89,381.29a6.76,6.76,0,0,0-5.4,2.29v-1.84h-5.58v20.12h5.58V389.12a3.5,3.5,0,0,1,1.33-2.05,3.87,3.87,0,0,1,2.32-.74,3,3,0,0,1,2.45,1,3.78,3.78,0,0,1,.83,2.58v12H514V388.71a7.69,7.69,0,0,0-1.86-5.4A6.8,6.8,0,0,0,506.89,381.29Z"/><path class="cls-2" d="M531,372.74a3.34,3.34,0,0,0-2.34.92,3,3,0,0,0-1,2.28,3,3,0,0,0,1,2.29,3.49,3.49,0,0,0,4.68,0,3,3,0,0,0,1-2.29,3.05,3.05,0,0,0-1-2.28A3.27,3.27,0,0,0,531,372.74Z"/><rect class="cls-2" x="528.18" y="381.74" width="5.58" height="20.12"/><path class="cls-2" d="M549.6,381.29a6.76,6.76,0,0,0-5.4,2.29v-1.84h-5.58v20.12h5.58V389.12a3.45,3.45,0,0,1,1.33-2.05,3.82,3.82,0,0,1,2.31-.74,3,3,0,0,1,2.45,1,3.78,3.78,0,0,1,.84,2.58v12h5.58V388.71a7.69,7.69,0,0,0-1.87-5.4A6.77,6.77,0,0,0,549.6,381.29Z"/><polygon class="cls-2" points="589.11 394.56 585.78 381.74 581.5 381.74 578.22 394.56 574.62 381.74 569.04 381.74 575.16 401.86 580.29 401.86 583.57 389.52 586.86 401.86 591.99 401.86 598.11 381.74 592.71 381.74 589.11 394.56"/><rect class="cls-2" x="601.12" y="381.74" width="5.58" height="20.12"/><path class="cls-2" d="M603.91,372.74a3.34,3.34,0,0,0-2.34.92,3,3,0,0,0-1,2.28,3,3,0,0,0,1,2.29,3.49,3.49,0,0,0,4.68,0,3,3,0,0,0,1-2.29,3.06,3.06,0,0,0-1-2.28A3.27,3.27,0,0,0,603.91,372.74Z"/><path class="cls-2" d="M618.31,395.06v-8.82h4.41v-4.5h-4.41v-5.45h-5.53v5.45h-3.06v4.5h3.06v9.54a6.29,6.29,0,0,0,1.75,4.86,7,7,0,0,0,4.91,1.62,7.89,7.89,0,0,0,3.6-.63v-4.95a4.35,4.35,0,0,1-2.43.68A2,2,0,0,1,618.31,395.06Z"/><path class="cls-2" d="M638.07,381.29a6.76,6.76,0,0,0-5.4,2.29v-11h-5.59v29.25h5.59V389.12a3.48,3.48,0,0,1,1.32-2.05,3.87,3.87,0,0,1,2.32-.74,3,3,0,0,1,2.45,1,3.78,3.78,0,0,1,.84,2.58v12h5.57V388.71a7.69,7.69,0,0,0-1.86-5.4A6.77,6.77,0,0,0,638.07,381.29Z"/><path class="cls-2" d="M672.67,392h5.26a6.64,6.64,0,0,1-2.13,3.84,6.28,6.28,0,0,1-4.26,1.42,6.6,6.6,0,0,1-5.44-2.54,12,12,0,0,1-.05-13.23,6.44,6.44,0,0,1,5.36-2.55,5.91,5.91,0,0,1,5.89,4.23h5.81a11.41,11.41,0,0,0-3.82-6.81,11.81,11.81,0,0,0-7.88-2.54,12.41,12.41,0,0,0-9.43,4,15.93,15.93,0,0,0,0,20.56,12.56,12.56,0,0,0,9.56,4,11.59,11.59,0,0,0,8.67-3.42,12.41,12.41,0,0,0,3.35-9.09v-2.42H672.67Z"/><path class="cls-2" d="M696.29,381.29a9.34,9.34,0,0,0-7.11,2.92,11.87,11.87,0,0,0,0,15.17,10.12,10.12,0,0,0,14.22,0,11.84,11.84,0,0,0,0-15.17A9.34,9.34,0,0,0,696.29,381.29ZM699.47,396a4,4,0,0,1-6.35,0,7,7,0,0,1-1.15-4.16,7.11,7.11,0,0,1,1.15-4.21,4,4,0,0,1,6.35,0,7.11,7.11,0,0,1,1.14,4.21A7,7,0,0,1,699.47,396Z"/><path class="cls-2" d="M718.48,381.29a9.34,9.34,0,0,0-7.11,2.92,11.84,11.84,0,0,0,0,15.17,10.12,10.12,0,0,0,14.22,0,11.87,11.87,0,0,0,0-15.17A9.34,9.34,0,0,0,718.48,381.29ZM721.65,396a3.94,3.94,0,0,1-6.34,0,6.92,6.92,0,0,1-1.15-4.16,7,7,0,0,1,1.15-4.21,4,4,0,0,1,6.34,0,7,7,0,0,1,1.15,4.21A6.92,6.92,0,0,1,721.65,396Z"/><path class="cls-2" d="M744.89,383.31a6.2,6.2,0,0,0-4.95-2,8.3,8.3,0,0,0-6.66,2.92,11.54,11.54,0,0,0,0,14.27,8.27,8.27,0,0,0,6.66,2.92,6.05,6.05,0,0,0,4.95-2.07v1.17q0,4.9-4.32,4.91c-2.19,0-3.51-1-4-2.83h-5.4a7.57,7.57,0,0,0,2.95,5.26,10.34,10.34,0,0,0,6.41,1.89,10,10,0,0,0,7.16-2.54q2.7-2.55,2.7-7.54V381.74h-5.54Zm0,11.3a4.41,4.41,0,0,1-1.55,1.51,4.63,4.63,0,0,1-5.69-.9,5.87,5.87,0,0,1-1.26-3.89,5.78,5.78,0,0,1,1.26-3.87,4.27,4.27,0,0,1,3.46-1.49,4.14,4.14,0,0,1,3.78,2.07Z"/><rect class="cls-2" x="755.29" y="372.61" width="5.58" height="29.25"/><path class="cls-2" d="M774.14,381.29a9,9,0,0,0-6.95,3,10.81,10.81,0,0,0-2.72,7.54,10.67,10.67,0,0,0,2.7,7.58,9.17,9.17,0,0,0,7.06,2.9,9.41,9.41,0,0,0,6.06-1.86,8.06,8.06,0,0,0,2.85-5.15H778q-.68,2.5-3.74,2.51a3.93,3.93,0,0,1-3.06-1.28,5.54,5.54,0,0,1-1.3-3.53h13.41v-1.71a10.61,10.61,0,0,0-2.41-7.27A8.54,8.54,0,0,0,774.14,381.29ZM770,389.62c.51-2.52,1.91-3.79,4.19-3.79a3.34,3.34,0,0,1,2.61,1.06,4.14,4.14,0,0,1,1,2.73Z"/><path class="cls-2" d="M451.72,495.61a5.54,5.54,0,0,1-3.37.93q-4.37,0-5.49-3.56h-5.94a9.31,9.31,0,0,0,3.78,6.12,12.81,12.81,0,0,0,7.69,2.21,11.28,11.28,0,0,0,7.38-2.35,7.62,7.62,0,0,0,2.88-6.25q0-6.12-7.24-7.78l-5-1.17q-3.11-.72-3.11-3a2.77,2.77,0,0,1,1.2-2.36,5.18,5.18,0,0,1,3.17-.88q4,0,5.08,3.29h5.72a9.48,9.48,0,0,0-3.49-5.83,11.52,11.52,0,0,0-7.36-2.18,10.61,10.61,0,0,0-7.15,2.38,7.69,7.69,0,0,0-2.79,6.12q0,6,7,7.56l4.95,1.12a5.87,5.87,0,0,1,2.59,1.13,2.56,2.56,0,0,1,.78,2A3,3,0,0,1,451.72,495.61Z"/><path class="cls-2" d="M465,478.13a3.28,3.28,0,0,0,2.32-.9,3,3,0,0,0,1-2.29,3,3,0,0,0-1-2.28,3.26,3.26,0,0,0-2.32-.92,3.34,3.34,0,0,0-2.34.92,3.15,3.15,0,0,0,0,4.57A3.34,3.34,0,0,0,465,478.13Z"/><rect class="cls-2" x="462.25" y="480.74" width="5.58" height="20.12"/><path class="cls-2" d="M480.57,500.41a6.05,6.05,0,0,0,4.95-2.07v1.17q0,4.9-4.32,4.9c-2.19,0-3.51-1-4-2.83h-5.4a7.53,7.53,0,0,0,3,5.26,10.32,10.32,0,0,0,6.41,1.89,10,10,0,0,0,7.15-2.54q2.7-2.55,2.7-7.54V480.74h-5.53v1.58a6.17,6.17,0,0,0-4.95-2,8.3,8.3,0,0,0-6.66,2.92,11.5,11.5,0,0,0,0,14.27A8.28,8.28,0,0,0,480.57,500.41Zm-2.3-14a4.29,4.29,0,0,1,3.47-1.49,4.14,4.14,0,0,1,3.78,2.07v6.57a4.49,4.49,0,0,1-1.55,1.51,4.6,4.6,0,0,1-5.7-.9,5.87,5.87,0,0,1-1.26-3.89A5.78,5.78,0,0,1,478.27,486.46Z"/><path class="cls-2" d="M501.49,488.12a3.5,3.5,0,0,1,1.33-2.05,3.87,3.87,0,0,1,2.32-.74,3,3,0,0,1,2.45,1,3.79,3.79,0,0,1,.83,2.58v12H514V487.71a7.64,7.64,0,0,0-1.86-5.39,7.64,7.64,0,0,0-10.65.27v-1.85h-5.58v20.12h5.58Z"/><rect class="cls-2" x="528.18" y="480.74" width="5.58" height="20.12"/><path class="cls-2" d="M531,478.13a3.3,3.3,0,0,0,2.32-.9,3,3,0,0,0,1-2.29,3.05,3.05,0,0,0-1-2.28,3.27,3.27,0,0,0-2.32-.92,3.34,3.34,0,0,0-2.34.92,3,3,0,0,0-1,2.28,3,3,0,0,0,1,2.29A3.33,3.33,0,0,0,531,478.13Z"/><path class="cls-2" d="M544.2,488.12a3.45,3.45,0,0,1,1.33-2.05,3.82,3.82,0,0,1,2.31-.74,3,3,0,0,1,2.45,1,3.8,3.8,0,0,1,.84,2.58v12h5.58V487.71a7.65,7.65,0,0,0-1.87-5.39,7.63,7.63,0,0,0-10.64.27v-1.85h-5.58v20.12h5.58Z"/><polygon class="cls-2" points="580.29 500.86 583.57 488.52 586.86 500.86 591.99 500.86 598.11 480.74 592.71 480.74 589.11 493.56 585.78 480.74 581.5 480.74 578.22 493.56 574.62 480.74 569.04 480.74 575.16 500.86 580.29 500.86"/><rect class="cls-2" x="601.12" y="480.74" width="5.58" height="20.12"/><path class="cls-2" d="M603.91,478.13a3.3,3.3,0,0,0,2.32-.9,3,3,0,0,0,1-2.29,3.06,3.06,0,0,0-1-2.28,3.27,3.27,0,0,0-2.32-.92,3.34,3.34,0,0,0-2.34.92,3,3,0,0,0-1,2.28,3,3,0,0,0,1,2.29A3.33,3.33,0,0,0,603.91,478.13Z"/><path class="cls-2" d="M612.78,494.78a6.29,6.29,0,0,0,1.75,4.86,7,7,0,0,0,4.91,1.62,7.89,7.89,0,0,0,3.6-.63v-4.95a4.35,4.35,0,0,1-2.43.68,2,2,0,0,1-2.3-2.3v-8.82h4.41v-4.5h-4.41v-5.45h-5.53v5.45h-3.06v4.5h3.06Z"/><path class="cls-2" d="M632.67,488.12a3.48,3.48,0,0,1,1.32-2.05,3.87,3.87,0,0,1,2.32-.74,3,3,0,0,1,2.45,1,3.8,3.8,0,0,1,.84,2.58v12h5.57V487.71a7.64,7.64,0,0,0-1.86-5.39,7.63,7.63,0,0,0-10.64.27v-11h-5.59v29.25h5.59Z"/><polygon class="cls-2" points="666.96 500.86 672.76 500.86 672.76 478.27 681.67 478.27 681.67 473.23 658.09 473.23 658.09 478.27 666.96 478.27 666.96 500.86"/><polygon class="cls-2" points="693.01 500.86 696.29 488.52 699.58 500.86 704.71 500.86 710.83 480.74 705.43 480.74 701.83 493.56 698.5 480.74 694.23 480.74 690.94 493.56 687.34 480.74 681.76 480.74 687.88 500.86 693.01 500.86"/><rect class="cls-2" x="713.84" y="480.74" width="5.58" height="20.12"/><path class="cls-2" d="M716.63,478.13a3.26,3.26,0,0,0,2.32-.9,3,3,0,0,0,1-2.29,3,3,0,0,0-1-2.28,3.24,3.24,0,0,0-2.32-.92,3.36,3.36,0,0,0-2.34.92,3.15,3.15,0,0,0,0,4.57A3.36,3.36,0,0,0,716.63,478.13Z"/><path class="cls-2" d="M725.5,494.78a6.29,6.29,0,0,0,1.75,4.86,7,7,0,0,0,4.91,1.62,7.89,7.89,0,0,0,3.6-.63v-4.95a4.35,4.35,0,0,1-2.43.68,2,2,0,0,1-2.3-2.3v-8.82h4.41v-4.5H731v-5.45H725.5v5.45h-3.06v4.5h3.06Z"/><path class="cls-2" d="M741,494.78a6.3,6.3,0,0,0,1.76,4.86,7,7,0,0,0,4.9,1.62,7.89,7.89,0,0,0,3.6-.63v-4.95a4.35,4.35,0,0,1-2.43.68,2,2,0,0,1-2.29-2.3v-8.82H751v-4.5h-4.41v-5.45H741v5.45H738v4.5H741Z"/><path class="cls-2" d="M763.66,501.31a9.36,9.36,0,0,0,6.05-1.87,8,8,0,0,0,2.86-5.15h-5.18q-.67,2.52-3.73,2.52a3.94,3.94,0,0,1-3.06-1.29,5.55,5.55,0,0,1-1.31-3.53H772.7v-1.71a10.61,10.61,0,0,0-2.4-7.27,8.54,8.54,0,0,0-6.73-2.72,9,9,0,0,0-7,3,11.88,11.88,0,0,0,0,15.12A9.2,9.2,0,0,0,763.66,501.31Zm0-16.47a3.33,3.33,0,0,1,2.61,1.05,4.14,4.14,0,0,1,1,2.73h-7.78Q760.2,484.84,763.61,484.84Z"/><path class="cls-2" d="M781.84,488.39a3.41,3.41,0,0,1,1.35-2.09,4.08,4.08,0,0,1,2.47-.74,5.34,5.34,0,0,1,2.79.67v-5.58a4.51,4.51,0,0,0-2.11-.36,4.86,4.86,0,0,0-4.5,2.43v-2h-5.58v20.12h5.58Z"/><path class="cls-2" d="M385.92,386v6.59h12.83a12.86,12.86,0,0,1-1.23,3.47,9.87,9.87,0,0,1-2,2.66,13.62,13.62,0,0,1-9.45,3.38,14.11,14.11,0,0,1-7-1.77,13.41,13.41,0,0,1-5.07-5,15.28,15.28,0,0,1,0-14.67,13.22,13.22,0,0,1,5.05-5,14,14,0,0,1,6.9-1.78,14.53,14.53,0,0,1,5.82,1.09,14.16,14.16,0,0,1,4.56,3.27l5.33-5.22a19.1,19.1,0,0,0-6.79-4.78,22.27,22.27,0,0,0-8.8-1.69,21.73,21.73,0,0,0-10.86,2.78,21.41,21.41,0,0,0,0,37.31,21.83,21.83,0,0,0,10.86,2.78,22.83,22.83,0,0,0,8.68-1.58,18.86,18.86,0,0,0,6.68-4.55,16.93,16.93,0,0,0,3.75-6.14,22.62,22.62,0,0,0,1.23-7.56A14.77,14.77,0,0,0,406,386Z"/><path class="cls-2" d="M361.7,503.51a27.52,27.52,0,0,0,14.93,4.38c17.9,0,27.7-14.84,27.7-27.7q0-.63,0-1.26a19.7,19.7,0,0,0,4.85-5,19.36,19.36,0,0,1-5.59,1.53,9.72,9.72,0,0,0,4.28-5.38,19.66,19.66,0,0,1-6.18,2.36,9.73,9.73,0,0,0-16.84,6.66,10.21,10.21,0,0,0,.25,2.22A27.64,27.64,0,0,1,365,471.11a9.73,9.73,0,0,0,3,13,9.66,9.66,0,0,1-4.41-1.22V483a9.73,9.73,0,0,0,7.81,9.54,9.49,9.49,0,0,1-2.57.35,10,10,0,0,1-1.83-.18,9.74,9.74,0,0,0,9.1,6.76A19.56,19.56,0,0,1,364,503.65,19.84,19.84,0,0,1,361.7,503.51Z"/></svg>