<?xml version="1.0" encoding="utf-8"?>
<!-- Generator: Adobe Illustrator 22.0.1, SVG Export Plug-In . SVG Version: 6.00 Build 0)  -->
<svg version="1.1" id="Layer_1" xmlns="http://www.w3.org/2000/svg" xmlns:xlink="http://www.w3.org/1999/xlink" x="0px" y="0px"
	 viewBox="0 0 224 166" style="enable-background:new 0 0 224 166;" xml:space="preserve">
<style type="text/css">
	.st0{fill:#FFFFFF;}
	.st1{fill:none;stroke:#2341C1;stroke-linecap:round;stroke-miterlimit:10;}
	.st2{fill:none;stroke:#2341C1;stroke-width:1.8474;stroke-linecap:round;stroke-miterlimit:10;}
</style>
<rect x="2.3" y="2.2" class="st0" width="218.5" height="160.8"/>
<g>
	<g>
		<rect x="2.3" y="2.2" class="st1" width="218.5" height="160.8"/>
		<path class="st2" d="M111.5,82.6"/>
		<path class="st1" d="M2.3,2.2l96.3,97.6c7,7,19.7,7,26.5,0.1l95.7-97.6"/>
		<line class="st1" x1="2.3" y1="163" x2="81.3" y2="82.3"/>
		<line class="st1" x1="220.7" y1="163" x2="142.4" y2="82.9"/>
	</g>
</g>
<g>
	<path d="M29.5,88.4c-0.2-0.9-0.2-1.7,0-2.5s0.5-1.5,0.9-2.1s1-1.1,1.6-1.5c0.6-0.4,1.3-0.7,2.1-0.8c0.8-0.1,1.5-0.1,2.3,0
		c0.7,0.1,1.4,0.4,2,0.8s1.1,0.9,1.6,1.6c0.4,0.7,0.8,1.4,0.9,2.3c0.2,0.9,0.2,1.7,0,2.5s-0.5,1.5-0.9,2.1s-1,1.1-1.6,1.5
		c-0.7,0.4-1.4,0.7-2.1,0.8c-0.8,0.1-1.5,0.1-2.2,0s-1.4-0.4-2-0.8c-0.6-0.4-1.1-0.9-1.6-1.6C30,90.1,29.7,89.3,29.5,88.4z M31.8,88
		c0.1,0.6,0.3,1.2,0.6,1.6s0.6,0.8,1,1s0.8,0.4,1.2,0.5s0.9,0.1,1.3,0c0.4-0.1,0.8-0.2,1.2-0.5c0.4-0.2,0.7-0.5,1-0.9
		s0.5-0.8,0.6-1.3s0.1-1.1,0-1.7s-0.3-1.2-0.6-1.6s-0.6-0.8-1-1s-0.8-0.4-1.2-0.5s-0.9-0.1-1.3,0c-0.4,0.1-0.8,0.2-1.2,0.5
		c-0.4,0.2-0.7,0.5-1,0.9s-0.5,0.8-0.6,1.3C31.7,86.8,31.7,87.4,31.8,88z"/>
	<path d="M44.3,94.6l-1.9-10.7l2-0.4l0.2,0.9c0.1-0.3,0.4-0.7,0.7-0.9s0.8-0.5,1.4-0.6c0.6-0.1,1.1-0.1,1.6,0s0.9,0.3,1.3,0.6
		s0.7,0.7,0.9,1.1c0.2,0.5,0.4,1,0.5,1.6s0.1,1.1,0,1.7c-0.1,0.5-0.3,1-0.5,1.4c-0.3,0.4-0.6,0.8-1,1.1c-0.4,0.3-0.9,0.5-1.4,0.6
		s-1,0.1-1.4,0s-0.7-0.3-1-0.5l0.7,3.7L44.3,94.6z M49,86.7c-0.1-0.7-0.4-1.2-0.9-1.5c-0.4-0.3-0.9-0.4-1.5-0.3
		c-0.3,0-0.5,0.1-0.7,0.3c-0.2,0.1-0.4,0.3-0.5,0.5s-0.2,0.5-0.3,0.8s0,0.6,0,0.9c0.1,0.3,0.2,0.6,0.3,0.9c0.1,0.2,0.3,0.5,0.5,0.6
		c0.2,0.2,0.4,0.3,0.7,0.3c0.2,0.1,0.5,0.1,0.8,0c0.5-0.1,1-0.4,1.3-0.8C49,87.9,49.1,87.3,49,86.7z"/>
	<path d="M59.9,86.4c0,0.4-0.1,0.7-0.3,1S59.2,88,59,88.3c-0.3,0.3-0.6,0.5-0.9,0.7c-0.4,0.2-0.8,0.3-1.3,0.4s-1.1,0.1-1.6,0
		s-1-0.3-1.4-0.6c-0.4-0.3-0.8-0.7-1.1-1.1c-0.3-0.5-0.5-1-0.6-1.7c-0.1-0.6-0.1-1.2,0-1.7s0.3-1,0.6-1.4s0.6-0.8,1.1-1
		c0.4-0.3,0.9-0.5,1.4-0.6c1.2-0.2,2.2,0,3,0.6s1.3,1.5,1.5,2.8c0,0.1,0,0.3,0.1,0.4c0,0.1,0,0.2,0,0.2l-5.5,1
		c0.1,0.2,0.2,0.5,0.3,0.7s0.3,0.4,0.5,0.5s0.4,0.2,0.7,0.3s0.5,0,0.8,0c0.5-0.1,0.9-0.3,1.1-0.5c0.2-0.3,0.4-0.6,0.5-1L59.9,86.4z
		 M57.5,84.2c0-0.2-0.1-0.4-0.2-0.5c-0.1-0.2-0.2-0.3-0.4-0.4s-0.4-0.2-0.6-0.2s-0.5,0-0.8,0s-0.5,0.1-0.7,0.3
		c-0.2,0.1-0.3,0.3-0.5,0.5s-0.2,0.4-0.2,0.5c0,0.2-0.1,0.4,0,0.6L57.5,84.2z"/>
	<path d="M64.2,87.9l-2.1,0.4l-1.4-7.7l2-0.4l0.2,1c0.2-0.4,0.4-0.8,0.8-1.1c0.4-0.3,0.8-0.4,1.2-0.5c0.5-0.1,0.9-0.1,1.3,0
		s0.7,0.3,1,0.5s0.5,0.5,0.7,0.9s0.3,0.7,0.4,1.2l0.9,4.9l-2.1,0.4L66.3,83c-0.1-0.4-0.3-0.8-0.5-1c-0.3-0.3-0.7-0.3-1.2-0.2
		c-0.5,0.1-0.8,0.3-1,0.7c-0.2,0.4-0.3,0.8-0.2,1.2L64.2,87.9z"/>
	<path d="M77.2,77.3c0.6-0.1,1.1-0.1,1.7,0c0.5,0.1,1,0.3,1.4,0.6c0.4,0.3,0.8,0.7,1.1,1.1c0.3,0.5,0.5,1,0.6,1.6s0.1,1.2,0,1.7
		s-0.3,1-0.6,1.5c-0.3,0.4-0.7,0.8-1.1,1.1c-0.5,0.3-1,0.5-1.6,0.6s-1.1,0.1-1.7,0c-0.5-0.1-1-0.3-1.4-0.6c-0.4-0.3-0.8-0.7-1.1-1.1
		c-0.3-0.5-0.5-1-0.6-1.6s-0.1-1.2,0-1.7s0.3-1,0.6-1.5c0.3-0.4,0.7-0.8,1.1-1.1C76.1,77.6,76.6,77.4,77.2,77.3z M78.4,83.6
		c0.3,0,0.5-0.1,0.7-0.3s0.4-0.3,0.6-0.5c0.1-0.2,0.2-0.5,0.3-0.8c0.1-0.3,0.1-0.6,0-1s-0.2-0.7-0.3-0.9c-0.2-0.3-0.3-0.5-0.6-0.6
		c-0.2-0.2-0.4-0.3-0.7-0.3c-0.3-0.1-0.5-0.1-0.8,0c-0.3,0-0.5,0.1-0.7,0.3c-0.2,0.1-0.4,0.3-0.6,0.5c-0.1,0.2-0.2,0.5-0.3,0.8
		c-0.1,0.3-0.1,0.6,0,1s0.2,0.7,0.3,0.9c0.2,0.3,0.3,0.5,0.6,0.6c0.2,0.2,0.4,0.3,0.7,0.3S78.1,83.7,78.4,83.6z"/>
	<path d="M86.5,83.9l-2.1,0.4L83,76.5l2-0.4l0.2,1c0.2-0.4,0.4-0.8,0.8-1.1c0.4-0.3,0.8-0.4,1.2-0.5c0.5-0.1,0.9-0.1,1.3,0
		s0.7,0.3,1,0.5s0.5,0.5,0.7,0.9s0.3,0.7,0.4,1.2l0.9,4.9l-2.1,0.4l-0.8-4.5c-0.1-0.4-0.3-0.8-0.5-1c-0.3-0.3-0.7-0.3-1.2-0.2
		c-0.5,0.1-0.8,0.3-1,0.7c-0.2,0.4-0.3,0.8-0.2,1.2L86.5,83.9z"/>
	<path d="M98.5,84.8l1.1-4.4L95,74.3l2.3-0.4l2.9,4.2l1.1-4.9l2.2-0.4l-2.9,11.7L98.5,84.8z"/>
	<path d="M107.9,71.7c0.6-0.1,1.1-0.1,1.7,0c0.5,0.1,1,0.3,1.4,0.6c0.4,0.3,0.8,0.7,1.1,1.1c0.3,0.5,0.5,1,0.6,1.6s0.1,1.2,0,1.7
		s-0.3,1-0.6,1.5c-0.3,0.4-0.7,0.8-1.1,1.1c-0.5,0.3-1,0.5-1.6,0.6s-1.1,0.1-1.7,0c-0.5-0.1-1-0.3-1.4-0.6c-0.4-0.3-0.8-0.7-1.1-1.1
		c-0.3-0.5-0.5-1-0.6-1.6s-0.1-1.2,0-1.7s0.3-1,0.6-1.5c0.3-0.4,0.7-0.8,1.1-1.1C106.8,72,107.4,71.8,107.9,71.7z M109.1,78
		c0.3,0,0.5-0.1,0.7-0.3s0.4-0.3,0.6-0.5c0.1-0.2,0.2-0.5,0.3-0.8c0.1-0.3,0.1-0.6,0-1s-0.2-0.7-0.3-0.9c-0.2-0.3-0.3-0.5-0.6-0.6
		c-0.2-0.2-0.4-0.3-0.7-0.3c-0.3-0.1-0.5-0.1-0.8,0c-0.3,0-0.5,0.1-0.7,0.3c-0.2,0.1-0.4,0.3-0.6,0.5c-0.1,0.2-0.2,0.5-0.3,0.8
		c-0.1,0.3-0.1,0.6,0,1s0.2,0.7,0.3,0.9c0.2,0.3,0.3,0.5,0.6,0.6c0.2,0.2,0.4,0.3,0.7,0.3S108.8,78.1,109.1,78z"/>
	<path d="M120.1,77.8c0-0.1-0.1-0.2-0.1-0.4c0-0.2-0.1-0.3-0.1-0.5c-0.1,0.4-0.4,0.7-0.8,1c-0.4,0.2-0.8,0.4-1.2,0.5
		c-0.5,0.1-0.9,0.1-1.3,0s-0.7-0.3-1-0.5s-0.6-0.5-0.8-0.9c-0.2-0.3-0.3-0.7-0.4-1.2l-0.9-4.9l2.1-0.4l0.8,4.5
		c0.1,0.4,0.3,0.8,0.5,1c0.3,0.3,0.7,0.3,1.2,0.3c0.5-0.1,0.8-0.3,1-0.6c0.2-0.3,0.3-0.7,0.2-1.2l-0.8-4.5l2.1-0.4l1.1,6.3
		c0.1,0.3,0.1,0.6,0.2,0.8c0.1,0.2,0.1,0.4,0.2,0.6L120.1,77.8z"/>
	<path d="M128,70.5c-0.2,0-0.4,0-0.6,0.1c-0.3,0-0.5,0.1-0.8,0.3c-0.2,0.1-0.4,0.3-0.6,0.5c-0.1,0.2-0.3,0.4-0.3,0.7
		c-0.1,0.3-0.1,0.7,0,1.1l0.6,3.5l-2.1,0.4l-1.4-7.7l2-0.4l0.2,1.1c0.1-0.3,0.2-0.5,0.3-0.7c0.2-0.2,0.3-0.4,0.5-0.5
		s0.4-0.2,0.6-0.3c0.2-0.1,0.4-0.1,0.6-0.1c0.1,0,0.2,0,0.2,0c0.1,0,0.2,0,0.2,0L128,70.5z"/>
	<path d="M134.3,75.2l-2.1-11.4l2.1-0.4l0.8,4.5c0.1-0.3,0.4-0.6,0.7-0.9c0.4-0.3,0.8-0.5,1.4-0.6c0.6-0.1,1.1-0.1,1.6,0
		s0.9,0.3,1.3,0.6s0.7,0.7,0.9,1.2s0.4,1,0.5,1.6s0.1,1.1,0,1.7c-0.1,0.5-0.3,1-0.5,1.4c-0.3,0.4-0.6,0.8-1,1.1
		c-0.4,0.3-0.9,0.5-1.4,0.6s-1,0.1-1.5-0.1c-0.4-0.1-0.8-0.4-1.1-0.7l0.2,0.9L134.3,75.2z M139.5,70.2c-0.1-0.7-0.4-1.2-0.9-1.5
		c-0.4-0.3-0.9-0.4-1.5-0.3c-0.3,0-0.5,0.1-0.7,0.3c-0.2,0.1-0.4,0.3-0.5,0.5s-0.2,0.5-0.3,0.8s-0.1,0.6,0,1
		c0.1,0.3,0.2,0.6,0.3,0.9c0.2,0.3,0.3,0.5,0.5,0.6c0.2,0.2,0.4,0.3,0.7,0.3c0.3,0.1,0.5,0.1,0.8,0c0.5-0.1,1-0.4,1.3-0.8
		S139.6,70.9,139.5,70.2z"/>
	<path d="M141.9,63.2c-0.1-0.4,0-0.7,0.2-1s0.5-0.5,0.8-0.5c0.4-0.1,0.7,0,1,0.2s0.5,0.5,0.5,0.9c0.1,0.3,0,0.7-0.2,1
		c-0.2,0.3-0.5,0.5-0.9,0.5c-0.4,0.1-0.7,0-1-0.2C142.1,63.8,141.9,63.5,141.9,63.2z M144,73.4l-1.4-7.7l2.1-0.4l1.4,7.7L144,73.4z"
		/>
	<path d="M152,66.1c-0.2,0-0.4,0-0.6,0.1c-0.3,0-0.5,0.1-0.8,0.3c-0.2,0.1-0.4,0.3-0.6,0.5c-0.1,0.2-0.3,0.4-0.3,0.7
		c-0.1,0.3-0.1,0.7,0,1.1l0.6,3.5l-2.1,0.4l-1.4-7.7l2-0.4l0.2,1.1c0.1-0.3,0.2-0.5,0.3-0.7c0.2-0.2,0.3-0.4,0.5-0.5
		s0.4-0.2,0.6-0.3c0.2-0.1,0.4-0.1,0.6-0.1c0.1,0,0.2,0,0.2,0c0.1,0,0.2,0,0.2,0L152,66.1z"/>
	<path d="M156,63.3l1.6-0.3l0.3,1.9l-1.6,0.3l0.6,3.2c0.1,0.3,0.2,0.6,0.4,0.7s0.4,0.1,0.7,0.1c0.1,0,0.3-0.1,0.4-0.1
		c0.1,0,0.2-0.1,0.3-0.1l0.3,1.7c-0.1,0.1-0.2,0.1-0.4,0.2s-0.4,0.1-0.7,0.2c-0.8,0.1-1.4,0-1.9-0.3s-0.8-0.9-1-1.6l-0.7-3.6
		l-1.4,0.3l-0.3-1.9l0.4-0.1c0.4-0.1,0.7-0.2,0.8-0.5c0.2-0.3,0.2-0.6,0.1-0.9l-0.2-1.1l1.9-0.3L156,63.3z"/>
	<path d="M162.4,70.1l-2.1,0.4l-2.1-11.4l2.1-0.4l0.8,4.3c0.2-0.4,0.5-0.6,0.8-0.8c0.4-0.2,0.7-0.3,1.1-0.4c0.5-0.1,0.9-0.1,1.3,0
		c0.4,0.1,0.7,0.3,1,0.5s0.5,0.5,0.7,0.9s0.3,0.7,0.4,1.2l0.9,4.9l-2.1,0.4l-0.8-4.5c-0.1-0.4-0.3-0.8-0.5-1
		c-0.3-0.3-0.7-0.3-1.2-0.2c-0.4,0.1-0.8,0.3-1,0.6s-0.3,0.7-0.2,1.2L162.4,70.1z"/>
	<path d="M176.7,66.1c0,0.3,0.1,0.5,0.2,0.8c0.1,0.3,0.1,0.5,0.2,0.6l-2,0.4c0-0.1-0.1-0.2-0.1-0.4c0-0.2-0.1-0.3-0.1-0.5
		c-0.1,0.3-0.4,0.6-0.7,0.9s-0.8,0.5-1.3,0.6c-0.6,0.1-1.1,0.1-1.6,0s-0.9-0.3-1.3-0.6c-0.4-0.3-0.7-0.7-1-1.1
		c-0.3-0.5-0.5-1-0.6-1.6s-0.1-1.1,0-1.6s0.3-1,0.5-1.4c0.3-0.4,0.6-0.8,1-1.1s0.9-0.5,1.4-0.6c0.3-0.1,0.6-0.1,0.9-0.1
		c0.3,0,0.5,0.1,0.7,0.1c0.2,0.1,0.4,0.1,0.5,0.2c0.1,0.1,0.2,0.2,0.3,0.3l-0.8-4.4l2.1-0.4L176.7,66.1z M170.4,64.6
		c0.1,0.7,0.4,1.2,0.8,1.5c0.4,0.3,0.9,0.4,1.5,0.3c0.5-0.1,1-0.4,1.2-0.8c0.3-0.5,0.4-1,0.3-1.7c-0.1-0.7-0.4-1.2-0.8-1.5
		c-0.4-0.3-0.9-0.4-1.5-0.3c-0.5,0.1-1,0.4-1.3,0.8S170.2,63.9,170.4,64.6z"/>
	<path d="M178.3,65c-0.1-0.3-0.1-0.7,0-1c0.1-0.3,0.2-0.6,0.4-0.8s0.4-0.4,0.6-0.6c0.3-0.2,0.5-0.3,0.9-0.4l1.9-0.6
		c0.2-0.1,0.4-0.2,0.4-0.3c0.1-0.1,0.1-0.2,0.1-0.4c0-0.3-0.2-0.5-0.5-0.6c-0.3-0.2-0.6-0.2-1-0.1c-0.5,0.1-0.8,0.3-1,0.6
		s-0.3,0.6-0.3,1l-1.9-0.1c0-0.3,0-0.6,0.1-1c0.1-0.3,0.3-0.6,0.5-0.9c0.2-0.3,0.5-0.5,0.9-0.8c0.4-0.2,0.8-0.4,1.3-0.5
		c0.6-0.1,1.1-0.1,1.6,0s0.8,0.2,1.2,0.5c0.3,0.2,0.6,0.5,0.8,0.8s0.3,0.7,0.4,1.1l0.7,3.8c0,0.2,0.1,0.4,0.2,0.7
		c0.1,0.2,0.1,0.4,0.2,0.5l-1.9,0.3c0-0.1-0.1-0.2-0.1-0.4c0-0.2-0.1-0.3-0.1-0.5c-0.1,0.3-0.4,0.7-0.7,1s-0.8,0.5-1.4,0.6
		c-0.4,0.1-0.8,0.1-1.1,0c-0.4-0.1-0.7-0.2-0.9-0.4c-0.3-0.2-0.5-0.4-0.7-0.6S178.3,65.3,178.3,65z M181.5,65.2
		c0.2,0,0.4-0.1,0.6-0.2c0.2-0.1,0.4-0.2,0.5-0.4c0.1-0.2,0.2-0.4,0.3-0.6c0.1-0.2,0-0.5,0-0.9l-0.1-0.3l-1.7,0.6
		c-0.3,0.1-0.5,0.2-0.6,0.4c-0.2,0.2-0.2,0.4-0.2,0.7c0,0.2,0.2,0.4,0.4,0.6S181.2,65.3,181.5,65.2z"/>
	<path d="M188.4,68.5l1.1-4.4L185,58l2.3-0.4l2.9,4.2l1.1-4.9l2.2-0.4l-2.9,11.7L188.4,68.5z"/>
</g>
</svg>
