<?xml version="1.0" encoding="UTF-8"?>
<svg id="OUTLINES" xmlns="http://www.w3.org/2000/svg" viewBox="0 0 1152 1008">
  <defs>
    <style>
      .cls-1 {
        fill: #030f78;
      }

      .cls-2 {
        fill: #fff;
      }
    </style>
  </defs>
  <rect class="cls-2" x="363" y="479.68" width="444" height="111.32" rx="24" ry="24"/>
  <g>
    <path class="cls-1" d="M575.79,693.05c12.68,0,23-10.32,23-23s-10.32-23-23-23-23,10.32-23,23,10.32,23,23,23Zm0-36c7.17,0,13,5.83,13,13s-5.83,13-13,13-13-5.83-13-13,5.83-13,13-13Z"/>
    <path class="cls-1" d="M425.98,367.02h-5.76v15.93c0,4.65-1.91,6.97-5.72,6.97s-5.71-2.32-5.71-6.97v-15.93h-5.76v16.51c0,3.72,1.04,6.58,3.11,8.57,2.07,2,4.86,2.99,8.37,2.99s6.34-1,8.39-2.99c2.05-1.99,3.08-4.85,3.08-8.57v-16.51Z"/>
    <path class="cls-1" d="M448.75,394.65v-13.14c0-2.25-.62-4.05-1.87-5.4s-2.99-2.03-5.24-2.03-4.08,.77-5.4,2.29v-1.85h-5.58v20.12h5.58v-12.73c.21-.87,.65-1.55,1.33-2.05,.67-.5,1.45-.74,2.32-.74,1.08,0,1.9,.32,2.45,.97,.55,.64,.83,1.51,.83,2.59v11.97h5.58Z"/>
    <path class="cls-1" d="M469.9,394.65v-12.82c0-2.43-.74-4.33-2.23-5.69-1.49-1.36-3.56-2.05-6.23-2.05-2.25,0-4.15,.61-5.69,1.82-1.55,1.21-2.47,2.75-2.77,4.61h5.31c.48-1.26,1.47-1.89,2.97-1.89,1.08,0,1.9,.29,2.45,.88,.55,.59,.83,1.33,.83,2.23v1.48c-.42-.3-1.08-.57-1.98-.81-.9-.24-1.77-.36-2.61-.36-2.22,0-4.07,.6-5.56,1.8-1.49,1.2-2.23,2.74-2.23,4.63,0,2.01,.71,3.6,2.14,4.77s3.2,1.76,5.33,1.76c1.05,0,2.04-.15,2.97-.45,.93-.3,1.58-.63,1.93-.99v1.08h5.36Zm-6.73-4.21c-.67,.31-1.43,.47-2.27,.47-.99,0-1.83-.21-2.52-.63-.69-.42-1.04-1.04-1.04-1.84s.35-1.43,1.06-1.85,1.54-.63,2.5-.63c.84,0,1.6,.16,2.27,.47,.67,.32,1.13,.74,1.37,1.28v1.44c-.24,.54-.7,.97-1.37,1.28Z"/>
    <path class="cls-1" d="M485.07,374.09c-1.02,0-2,.21-2.92,.63-.93,.42-1.64,.91-2.12,1.48v-10.8h-5.62v29.25h5.62v-1.66c.48,.57,1.18,1.06,2.12,1.48,.93,.42,1.9,.63,2.92,.63,2.82,0,5.05-1,6.68-2.99,1.63-1.99,2.45-4.49,2.45-7.49s-.82-5.5-2.45-7.51c-1.64-2.01-3.86-3.02-6.68-3.02Zm2.25,14.58c-.87,1.05-2.04,1.57-3.51,1.57-.84,0-1.6-.22-2.27-.65-.67-.43-1.18-1-1.51-1.69v-6.62c.33-.69,.84-1.25,1.53-1.69,.69-.43,1.44-.65,2.25-.65,1.47,0,2.64,.53,3.51,1.6,.87,1.07,1.31,2.42,1.31,4.07s-.44,3-1.31,4.05Z"/>
    <rect class="cls-1" x="497.8" y="365.4" width="5.58" height="29.25"/>
    <path class="cls-1" d="M525.66,388.08h-5.17c-.45,1.68-1.7,2.52-3.74,2.52-1.26,0-2.28-.43-3.06-1.28-.78-.86-1.21-2.03-1.3-3.53h13.41v-1.71c0-3.03-.8-5.45-2.41-7.27-1.61-1.81-3.85-2.72-6.73-2.72s-5.14,1-6.95,2.99c-1.82,2-2.72,4.51-2.72,7.54s.9,5.65,2.7,7.58c1.8,1.93,4.15,2.9,7.06,2.9,2.49,0,4.51-.62,6.05-1.87,1.54-1.24,2.5-2.96,2.86-5.15Zm-8.96-9.45c1.11,0,1.98,.35,2.61,1.06,.63,.71,.96,1.61,.99,2.72h-7.79c.51-2.52,1.9-3.78,4.18-3.78Z"/>
    <path class="cls-1" d="M541.86,393.44c1.17,1.08,2.8,1.62,4.9,1.62,1.62,0,2.82-.21,3.6-.63v-4.95c-.69,.45-1.5,.67-2.43,.67-1.53,0-2.29-.76-2.29-2.29v-8.82h4.41v-4.5h-4.41v-5.44h-5.54v5.44h-3.06v4.5h3.06v9.54c0,2.16,.59,3.78,1.76,4.86Z"/>
    <path class="cls-1" d="M569.94,392.18c1.83-1.95,2.75-4.47,2.75-7.56s-.92-5.65-2.75-7.6c-1.83-1.95-4.2-2.93-7.11-2.93s-5.28,.97-7.11,2.93c-1.83,1.95-2.75,4.48-2.75,7.6s.92,5.61,2.75,7.56c1.83,1.95,4.2,2.93,7.11,2.93s5.28-.97,7.11-2.93Zm-10.28-3.4c-.76-1.07-1.15-2.45-1.15-4.16s.38-3.14,1.15-4.21,1.82-1.6,3.17-1.6,2.41,.53,3.17,1.6c.77,1.06,1.15,2.47,1.15,4.21s-.38,3.1-1.15,4.16c-.76,1.06-1.82,1.6-3.17,1.6s-2.41-.53-3.17-1.6Z"/>
    <path class="cls-1" d="M594.19,395.1c2.49,0,4.51-.66,6.05-1.98,1.54-1.32,2.47-3.07,2.77-5.27h-5.49c-.15,.78-.52,1.39-1.1,1.82-.58,.44-1.33,.65-2.23,.65-1.26,0-2.27-.52-3.01-1.57-.75-1.05-1.12-2.43-1.12-4.14s.38-3.13,1.12-4.18c.75-1.05,1.75-1.58,3.01-1.58,.9,0,1.64,.22,2.23,.65,.58,.44,.95,1.04,1.1,1.82h5.49c-.3-2.19-1.23-3.94-2.79-5.26-1.56-1.32-3.57-1.98-6.03-1.98-2.85,0-5.17,.97-6.97,2.93-1.8,1.95-2.7,4.48-2.7,7.6s.9,5.61,2.7,7.56c1.8,1.95,4.12,2.93,6.97,2.93Z"/>
    <path class="cls-1" d="M615.07,395.1c2.91,0,5.28-.97,7.11-2.93,1.83-1.95,2.75-4.47,2.75-7.56s-.92-5.65-2.75-7.6c-1.83-1.95-4.2-2.93-7.11-2.93s-5.28,.97-7.11,2.93c-1.83,1.95-2.75,4.48-2.75,7.6s.92,5.61,2.75,7.56c1.83,1.95,4.2,2.93,7.11,2.93Zm-3.17-14.69c.76-1.06,1.82-1.6,3.17-1.6s2.41,.53,3.17,1.6c.77,1.06,1.15,2.47,1.15,4.21s-.38,3.1-1.15,4.16c-.76,1.06-1.82,1.6-3.17,1.6s-2.41-.53-3.17-1.6c-.76-1.07-1.15-2.45-1.15-4.16s.38-3.14,1.15-4.21Z"/>
    <path class="cls-1" d="M650.62,374.09c-2.49,0-4.52,.86-6.08,2.56-1.29-1.71-3.09-2.56-5.4-2.56s-3.98,.71-5.08,2.12v-1.67h-5.58v20.12h5.58v-12.96c.18-.81,.56-1.45,1.15-1.91s1.25-.7,2-.7c1.89,0,2.83,1.2,2.83,3.6v11.97h5.62v-12.96c.18-.84,.55-1.49,1.12-1.94,.57-.45,1.23-.68,1.98-.68,.93,0,1.64,.32,2.14,.97s.74,1.52,.74,2.63v11.97h5.58v-13.14c0-2.28-.58-4.09-1.75-5.42-1.17-1.33-2.79-2-4.86-2Z"/>
    <path class="cls-1" d="M679.19,377.12c-1.65-2.03-3.89-3.04-6.71-3.04-1.02,0-2,.21-2.92,.63-.93,.42-1.64,.91-2.12,1.48v-1.67h-5.58v27.54h5.58v-9.09c.48,.57,1.18,1.06,2.12,1.48,.93,.42,1.9,.63,2.92,.63,2.82,0,5.05-1.01,6.71-3.02,1.65-2.01,2.48-4.5,2.48-7.47s-.83-5.47-2.48-7.49Zm-4.46,11.54c-.87,1.05-2.04,1.57-3.51,1.57-.81,0-1.56-.22-2.25-.65-.69-.43-1.2-1-1.53-1.69v-6.62c.36-.69,.88-1.25,1.55-1.69,.67-.43,1.42-.65,2.23-.65,1.47,0,2.64,.53,3.51,1.6,.87,1.07,1.31,2.42,1.31,4.07s-.44,3-1.31,4.05Z"/>
    <rect class="cls-1" x="685.22" y="365.4" width="5.58" height="29.25"/>
    <path class="cls-1" d="M707.9,388.08c-.45,1.68-1.7,2.52-3.74,2.52-1.26,0-2.28-.43-3.06-1.28-.78-.86-1.21-2.03-1.3-3.53h13.41v-1.71c0-3.03-.8-5.45-2.41-7.27-1.61-1.81-3.85-2.72-6.73-2.72s-5.14,1-6.95,2.99c-1.82,2-2.72,4.51-2.72,7.54s.9,5.65,2.7,7.58c1.8,1.93,4.15,2.9,7.06,2.9,2.49,0,4.51-.62,6.05-1.87,1.54-1.24,2.5-2.96,2.86-5.15h-5.17Zm-3.78-9.45c1.11,0,1.98,.35,2.61,1.06,.63,.71,.96,1.61,.99,2.72h-7.79c.51-2.52,1.9-3.78,4.18-3.78Z"/>
    <path class="cls-1" d="M728.24,394.43v-4.95c-.69,.45-1.5,.67-2.43,.67-1.53,0-2.29-.76-2.29-2.29v-8.82h4.41v-4.5h-4.41v-5.44h-5.54v5.44h-3.06v4.5h3.06v9.54c0,2.16,.59,3.78,1.76,4.86s2.8,1.62,4.9,1.62c1.62,0,2.82-.21,3.6-.63Z"/>
    <path class="cls-1" d="M740.53,374.09c-2.82,0-5.14,1-6.95,2.99-1.82,2-2.72,4.51-2.72,7.54s.9,5.65,2.7,7.58c1.8,1.93,4.15,2.9,7.06,2.9,2.49,0,4.51-.62,6.05-1.87,1.54-1.24,2.5-2.96,2.86-5.15h-5.17c-.45,1.68-1.7,2.52-3.74,2.52-1.26,0-2.28-.43-3.06-1.28-.78-.86-1.21-2.03-1.3-3.53h13.41v-1.71c0-3.03-.8-5.45-2.41-7.27-1.61-1.81-3.85-2.72-6.73-2.72Zm-4.14,8.32c.51-2.52,1.9-3.78,4.18-3.78,1.11,0,1.98,.35,2.61,1.06,.63,.71,.96,1.61,.99,2.72h-7.79Z"/>
    <path class="cls-1" d="M418.11,432.86v-8.82h4.41v-4.5h-4.41v-5.44h-5.54v5.44h-3.06v4.5h3.06v9.54c0,2.16,.59,3.78,1.76,4.86s2.8,1.62,4.9,1.62c1.62,0,2.82-.21,3.6-.63v-4.95c-.69,.45-1.5,.67-2.43,.67-1.53,0-2.29-.76-2.29-2.29Z"/>
    <path class="cls-1" d="M434.62,419.09c-2.25,0-4.15,.61-5.69,1.82-1.55,1.21-2.47,2.75-2.77,4.61h5.31c.48-1.26,1.47-1.89,2.97-1.89,1.08,0,1.9,.29,2.45,.88,.55,.59,.83,1.33,.83,2.23v1.48c-.42-.3-1.08-.57-1.98-.81-.9-.24-1.77-.36-2.61-.36-2.22,0-4.07,.6-5.56,1.8-1.49,1.2-2.23,2.74-2.23,4.63,0,2.01,.71,3.6,2.14,4.77s3.2,1.76,5.33,1.76c1.05,0,2.04-.15,2.97-.45,.93-.3,1.58-.63,1.93-.99v1.08h5.36v-12.82c0-2.43-.74-4.33-2.23-5.69-1.49-1.36-3.56-2.05-6.23-2.05Zm3.1,15.07c-.24,.54-.7,.97-1.37,1.28s-1.43,.47-2.27,.47c-.99,0-1.83-.21-2.52-.63-.69-.42-1.04-1.04-1.04-1.84s.35-1.43,1.06-1.85,1.54-.63,2.5-.63c.84,0,1.6,.16,2.27,.47,.67,.32,1.13,.74,1.37,1.28v1.44Z"/>
    <path class="cls-1" d="M458.16,427.73l-4.14-.95c-1.2-.3-1.8-.82-1.8-1.58,0-.6,.26-1.06,.79-1.39,.52-.33,1.15-.49,1.87-.49,1.68,0,2.73,.66,3.15,1.98h5.31c-.36-1.95-1.25-3.47-2.68-4.57s-3.38-1.64-5.87-1.64c-2.28,0-4.18,.61-5.71,1.82s-2.29,2.78-2.29,4.7c0,2.97,1.74,4.86,5.22,5.67l4.05,.9c.72,.18,1.24,.4,1.55,.65,.32,.25,.47,.61,.47,1.06,0,1.32-.95,1.98-2.83,1.98s-2.92-.73-3.38-2.21h-5.54c.3,2.04,1.24,3.62,2.83,4.75,1.59,1.12,3.63,1.69,6.12,1.69s4.37-.59,5.92-1.76,2.32-2.76,2.32-4.77c0-3.03-1.79-4.98-5.36-5.85Z"/>
    <polygon class="cls-1" points="486.69 419.54 479.76 419.54 472.87 427.01 472.87 410.4 467.29 410.4 467.29 439.65 472.87 439.65 472.87 433.31 474.49 431.55 480.39 439.65 487 439.65 478.54 428.09 486.69 419.54"/>
    <path class="cls-1" d="M507.34,419.09c-2.25,0-4.15,.61-5.69,1.82-1.55,1.21-2.47,2.75-2.77,4.61h5.31c.48-1.26,1.47-1.89,2.97-1.89,1.08,0,1.9,.29,2.45,.88,.55,.59,.83,1.33,.83,2.23v1.48c-.42-.3-1.08-.57-1.98-.81-.9-.24-1.77-.36-2.61-.36-2.22,0-4.07,.6-5.56,1.8-1.49,1.2-2.23,2.74-2.23,4.63,0,2.01,.71,3.6,2.14,4.77s3.2,1.76,5.33,1.76c1.05,0,2.04-.15,2.97-.45,.93-.3,1.58-.63,1.93-.99v1.08h5.36v-12.82c0-2.43-.74-4.33-2.23-5.69-1.49-1.36-3.56-2.05-6.23-2.05Zm3.1,15.07c-.24,.54-.7,.97-1.37,1.28s-1.43,.47-2.27,.47c-.99,0-1.83-.21-2.52-.63-.69-.42-1.04-1.04-1.04-1.84s.35-1.43,1.06-1.85,1.54-.63,2.5-.63c.84,0,1.6,.16,2.27,.47,.67,.32,1.13,.74,1.37,1.28v1.44Z"/>
    <path class="cls-1" d="M532.54,432.32c-.21,.87-.65,1.55-1.3,2.05-.66,.49-1.43,.74-2.29,.74-1.08,0-1.89-.31-2.43-.95-.54-.63-.81-1.5-.81-2.61v-12.02h-5.58v13.14c0,2.25,.62,4.05,1.87,5.4s2.98,2.03,5.2,2.03,4.02-.77,5.4-2.29v1.84h5.58v-20.12h-5.62v12.78Z"/>
    <path class="cls-1" d="M549.73,432.86v-8.82h4.41v-4.5h-4.41v-5.44h-5.54v5.44h-3.06v4.5h3.06v9.54c0,2.16,.59,3.78,1.76,4.86s2.8,1.62,4.9,1.62c1.62,0,2.82-.21,3.6-.63v-4.95c-.69,.45-1.5,.67-2.43,.67-1.53,0-2.29-.76-2.29-2.29Z"/>
    <path class="cls-1" d="M566.92,419.09c-2.91,0-5.28,.97-7.11,2.93-1.83,1.95-2.75,4.48-2.75,7.6s.92,5.61,2.75,7.56c1.83,1.95,4.2,2.93,7.11,2.93s5.28-.97,7.11-2.93c1.83-1.95,2.75-4.47,2.75-7.56s-.92-5.65-2.75-7.6c-1.83-1.95-4.2-2.93-7.11-2.93Zm3.17,14.69c-.76,1.06-1.82,1.6-3.17,1.6s-2.41-.53-3.17-1.6c-.76-1.07-1.15-2.45-1.15-4.16s.38-3.14,1.15-4.21,1.82-1.6,3.17-1.6,2.41,.53,3.17,1.6c.77,1.06,1.15,2.47,1.15,4.21s-.38,3.1-1.15,4.16Z"/>
    <path class="cls-1" d="M602.47,419.09c-2.49,0-4.52,.86-6.08,2.56-1.29-1.71-3.09-2.56-5.4-2.56s-3.98,.71-5.08,2.12v-1.67h-5.58v20.12h5.58v-12.96c.18-.81,.56-1.45,1.15-1.91s1.25-.7,2-.7c1.89,0,2.83,1.2,2.83,3.6v11.97h5.62v-12.96c.18-.84,.55-1.49,1.12-1.94,.57-.45,1.23-.68,1.98-.68,.93,0,1.64,.32,2.14,.97s.74,1.52,.74,2.63v11.97h5.58v-13.14c0-2.28-.58-4.09-1.75-5.42-1.17-1.33-2.79-2-4.86-2Z"/>
    <path class="cls-1" d="M621.78,419.09c-2.25,0-4.15,.61-5.69,1.82-1.55,1.21-2.47,2.75-2.77,4.61h5.31c.48-1.26,1.47-1.89,2.97-1.89,1.08,0,1.9,.29,2.45,.88,.55,.59,.83,1.33,.83,2.23v1.48c-.42-.3-1.08-.57-1.98-.81-.9-.24-1.77-.36-2.61-.36-2.22,0-4.07,.6-5.56,1.8-1.49,1.2-2.23,2.74-2.23,4.63,0,2.01,.71,3.6,2.14,4.77s3.2,1.76,5.33,1.76c1.05,0,2.04-.15,2.97-.45,.93-.3,1.58-.63,1.93-.99v1.08h5.36v-12.82c0-2.43-.74-4.33-2.23-5.69-1.49-1.36-3.56-2.05-6.23-2.05Zm3.1,15.07c-.24,.54-.7,.97-1.37,1.28s-1.43,.47-2.27,.47c-.99,0-1.83-.21-2.52-.63-.69-.42-1.04-1.04-1.04-1.84s.35-1.43,1.06-1.85,1.54-.63,2.5-.63c.84,0,1.6,.16,2.27,.47,.67,.32,1.13,.74,1.37,1.28v1.44Z"/>
    <path class="cls-1" d="M641.35,432.86v-8.82h4.41v-4.5h-4.41v-5.44h-5.54v5.44h-3.06v4.5h3.06v9.54c0,2.16,.59,3.78,1.76,4.86s2.8,1.62,4.9,1.62c1.62,0,2.82-.21,3.6-.63v-4.95c-.69,.45-1.5,.67-2.43,.67-1.53,0-2.29-.76-2.29-2.29Z"/>
    <path class="cls-1" d="M652.92,410.54c-.9,0-1.68,.31-2.34,.92-.66,.62-.99,1.37-.99,2.27s.32,1.7,.97,2.29c.64,.6,1.43,.9,2.36,.9s1.67-.3,2.32-.9c.65-.6,.97-1.37,.97-2.29s-.32-1.66-.97-2.27-1.42-.92-2.32-.92Z"/>
    <rect class="cls-1" x="650.12" y="419.54" width="5.58" height="20.12"/>
    <path class="cls-1" d="M668.98,423.86c.9,0,1.64,.22,2.23,.65,.58,.44,.95,1.04,1.1,1.82h5.49c-.3-2.19-1.23-3.94-2.79-5.26-1.56-1.32-3.57-1.98-6.03-1.98-2.85,0-5.17,.97-6.97,2.93-1.8,1.95-2.7,4.48-2.7,7.6s.9,5.61,2.7,7.56c1.8,1.95,4.12,2.93,6.97,2.93,2.49,0,4.51-.66,6.05-1.98,1.54-1.32,2.47-3.07,2.77-5.27h-5.49c-.15,.78-.52,1.39-1.1,1.82-.58,.44-1.33,.65-2.23,.65-1.26,0-2.27-.52-3.01-1.57-.75-1.05-1.12-2.43-1.12-4.14s.38-3.13,1.12-4.18c.75-1.05,1.75-1.58,3.01-1.58Z"/>
    <path class="cls-1" d="M689.28,419.09c-2.25,0-4.15,.61-5.69,1.82-1.55,1.21-2.47,2.75-2.77,4.61h5.31c.48-1.26,1.47-1.89,2.97-1.89,1.08,0,1.9,.29,2.45,.88,.55,.59,.83,1.33,.83,2.23v1.48c-.42-.3-1.08-.57-1.98-.81-.9-.24-1.77-.36-2.61-.36-2.22,0-4.07,.6-5.56,1.8-1.49,1.2-2.23,2.74-2.23,4.63,0,2.01,.71,3.6,2.14,4.77s3.2,1.76,5.33,1.76c1.05,0,2.04-.15,2.97-.45,.93-.3,1.58-.63,1.93-.99v1.08h5.36v-12.82c0-2.43-.74-4.33-2.23-5.69-1.49-1.36-3.56-2.05-6.23-2.05Zm3.1,15.07c-.24,.54-.7,.97-1.37,1.28s-1.43,.47-2.27,.47c-.99,0-1.83-.21-2.52-.63-.69-.42-1.04-1.04-1.04-1.84s.35-1.43,1.06-1.85,1.54-.63,2.5-.63c.84,0,1.6,.16,2.27,.47,.67,.32,1.13,.74,1.37,1.28v1.44Z"/>
    <rect class="cls-1" x="702.28" y="410.4" width="5.58" height="29.25"/>
    <rect class="cls-1" x="712.72" y="410.4" width="5.58" height="29.25"/>
    <polygon class="cls-1" points="731.84 432.9 727.21 419.54 721.31 419.54 729.01 439.74 726.08 447.08 731.57 447.08 742.06 419.54 736.43 419.54 731.84 432.9"/>
    <polygon class="cls-1" points="512.72 512.34 489.14 512.34 489.14 517.38 498.01 517.38 498.01 539.97 503.81 539.97 503.81 517.38 512.72 517.38 512.72 512.34"/>
    <path class="cls-1" d="M521.32,519.41c-2.25,0-4.15,.61-5.69,1.82-1.55,1.22-2.47,2.75-2.77,4.61h5.31c.48-1.26,1.47-1.89,2.97-1.89,1.08,0,1.9,.29,2.45,.88,.55,.58,.83,1.33,.83,2.23v1.49c-.42-.3-1.08-.57-1.98-.81-.9-.24-1.77-.36-2.61-.36-2.22,0-4.07,.6-5.56,1.8-1.49,1.2-2.23,2.75-2.23,4.63,0,2.01,.71,3.6,2.14,4.77s3.2,1.75,5.33,1.75c1.05,0,2.04-.15,2.97-.45,.93-.3,1.58-.63,1.93-.99v1.08h5.36v-12.83c0-2.43-.74-4.33-2.23-5.69-1.49-1.37-3.56-2.05-6.23-2.05Zm3.1,15.08c-.24,.54-.7,.97-1.37,1.28s-1.43,.47-2.27,.47c-.99,0-1.83-.21-2.52-.63s-1.04-1.04-1.04-1.85,.35-1.42,1.06-1.84c.71-.42,1.54-.63,2.5-.63,.84,0,1.6,.16,2.27,.47s1.13,.74,1.37,1.28v1.44Z"/>
    <polygon class="cls-1" points="553.72 519.86 546.79 519.86 539.9 527.33 539.9 510.72 534.32 510.72 534.32 539.97 539.9 539.97 539.9 533.62 541.52 531.87 547.42 539.97 554.03 539.97 545.57 528.41 553.72 519.86"/>
    <path class="cls-1" d="M564.33,519.41c-2.82,0-5.14,1-6.95,2.99-1.82,1.99-2.72,4.51-2.72,7.54s.9,5.65,2.7,7.58,4.15,2.9,7.06,2.9c2.49,0,4.51-.62,6.05-1.87,1.54-1.24,2.5-2.96,2.86-5.15h-5.17c-.45,1.68-1.7,2.52-3.74,2.52-1.26,0-2.28-.43-3.06-1.28-.78-.85-1.21-2.03-1.3-3.53h13.41v-1.71c0-3.03-.8-5.45-2.41-7.27-1.61-1.82-3.85-2.72-6.73-2.72Zm-4.14,8.33c.51-2.52,1.9-3.78,4.18-3.78,1.11,0,1.98,.35,2.61,1.06s.96,1.61,.99,2.72h-7.79Z"/>
    <path class="cls-1" d="M595.16,519.41c-2.91,0-5.28,.98-7.11,2.92-1.83,1.95-2.75,4.49-2.75,7.61s.92,5.61,2.75,7.56c1.83,1.95,4.2,2.92,7.11,2.92s5.28-.97,7.11-2.92,2.75-4.47,2.75-7.56-.92-5.65-2.75-7.61c-1.83-1.95-4.2-2.92-7.11-2.92Zm3.17,14.69c-.76,1.07-1.82,1.6-3.17,1.6s-2.41-.53-3.17-1.6c-.76-1.06-1.15-2.45-1.15-4.16s.38-3.14,1.15-4.21c.76-1.06,1.82-1.6,3.17-1.6s2.41,.53,3.17,1.6c.77,1.07,1.15,2.47,1.15,4.21s-.38,3.1-1.15,4.16Z"/>
    <polygon class="cls-1" points="616.58 533.22 611.94 519.86 606.09 519.86 613.7 539.97 619.1 539.97 626.75 519.86 621.12 519.86 616.58 533.22"/>
    <path class="cls-1" d="M637.55,519.41c-2.82,0-5.14,1-6.95,2.99-1.82,1.99-2.72,4.51-2.72,7.54s.9,5.65,2.7,7.58,4.15,2.9,7.06,2.9c2.49,0,4.51-.62,6.05-1.87,1.54-1.24,2.5-2.96,2.86-5.15h-5.17c-.45,1.68-1.7,2.52-3.74,2.52-1.26,0-2.28-.43-3.06-1.28-.78-.85-1.21-2.03-1.3-3.53h13.41v-1.71c0-3.03-.8-5.45-2.41-7.27-1.61-1.82-3.85-2.72-6.73-2.72Zm-4.14,8.33c.51-2.52,1.9-3.78,4.18-3.78,1.11,0,1.98,.35,2.61,1.06s.96,1.61,.99,2.72h-7.79Z"/>
    <path class="cls-1" d="M655.82,521.84v-1.98h-5.58v20.12h5.58v-12.46c.21-.9,.66-1.6,1.35-2.09,.69-.49,1.51-.74,2.47-.74,1.11,0,2.04,.22,2.79,.68v-5.58c-.42-.24-1.12-.36-2.12-.36-2.04,0-3.54,.81-4.5,2.43Z"/>
    <path class="cls-1" d="M775.03,602.31l-20.02-20.02h18.79c13.23,0,24-10.77,24-24v-63.32c0-7.16-3.16-13.6-8.15-18,4.99-4.4,8.15-10.84,8.15-18v-108c0-13.23-10.77-24-24-24h-49v-93.42c0-12.68-10.32-23-23-23h-252c-12.68,0-23,10.32-23,23v93.42h-49c-13.23,0-24,10.77-24,24v108c0,7.16,3.16,13.6,8.15,18-4.99,4.4-8.15,10.84-8.15,18v63.32c0,13.23,10.77,24,24,24h49v119.26c0,12.68,10.32,23,23,23h121.02v28.69c0,28.99,15.59,55.09,40.9,68.85v23.46c0,2.76,2.24,5,5,5s5-2.24,5-5v-26.5c0-1.9-1.08-3.64-2.79-4.48-23.51-11.62-38.12-35.12-38.12-61.33v-28.69h96.17c-9.03,13.04-13.94,28.6-13.94,44.61,0,18.78,6.74,36.94,18.99,51.14,.99,1.15,2.38,1.74,3.79,1.74,1.16,0,2.32-.4,3.26-1.21,2.09-1.8,2.33-4.96,.52-7.05-10.68-12.39-16.56-28.23-16.56-44.61s5.88-32.23,16.56-44.61c1.64-1.91,1.61-4.74-.07-6.61l-63.22-70.21c-4.97-5.3-7.7-12.24-7.7-19.52,0-14.75,11.22-26.92,25.57-28.44,.46-.05,.93-.09,1.39-.11l70.69,70.7s.09,.07,.13,.11l34.26,34.26c1.95,1.95,5.12,1.95,7.07,0,1.95-1.95,1.95-5.12,0-7.07-7.39-7.39-19.24-19.24-32.92-32.92v-82.43h16.07l27.09,27.09c26.54,26.54,41.16,61.83,41.16,99.37v133.24c0,2.76,2.24,5,5,5s5-2.24,5-5v-133.24c0-40.21-15.66-78-44.09-106.44ZM436.79,233.55c0-7.17,5.83-13,13-13h252c7.17,0,13,5.83,13,13v93.42H436.79v-93.42Zm-71,225.42v-108c0-6.62,5.38-12,12-12h396c6.62,0,12,5.38,12,12v108c0,6.62-5.38,12-12,12H377.79c-6.62,0-12-5.38-12-12Zm0,99.32v-63.32c0-6.62,5.38-12,12-12h396c6.62,0,12,5.38,12,12v63.32c0,6.62-5.38,12-12,12H377.79c-6.62,0-12-5.38-12-12Zm349,96.43c-21.4-21.41-45.48-45.49-63.65-63.65-.93-.93-2.19-1.46-3.5-1.46h-.44c-1.34,0-2.66,.07-3.96,.2-19.44,1.98-34.66,18.45-34.66,38.4,0,9.83,3.7,19.19,10.34,26.28l54.08,60.06h-223.22c-7.17,0-13-5.83-13-13v-119.26h278v72.43Z"/>
    <path class="cls-1" d="M598.71,264.99c0-.83-.67-1.5-1.5-1.5-16.26,0-29.49-13.23-29.49-29.49,0-.83-.73-1.5-1.55-1.5s-1.5,.67-1.5,1.5c0,16.26-13.23,29.49-29.49,29.49-.83,0-1.5,.67-1.5,1.5s.67,1.5,1.5,1.5c16.26,0,29.49,13.23,29.49,29.49,0,.4,.21,.83,.49,1.12s.67,.44,1.06,.44c.19,0,.39-.04,.57-.11,.56-.23,.93-.78,.93-1.39,0-16.26,13.23-29.49,29.49-29.49,.83,0,1.5-.73,1.5-1.55Z"/>
    <path class="cls-1" d="M616.82,296.1c-8.75,0-15.87-7.12-15.87-15.87,0-.83-.7-1.5-1.53-1.5s-1.5,.67-1.5,1.5c0,8.75-7.12,15.87-15.87,15.87-.83,0-1.5,.67-1.5,1.5s.67,1.5,1.5,1.5c8.75,0,15.87,7.12,15.87,15.87,0,.41,.2,.83,.49,1.11,.29,.28,.66,.42,1.04,.42,.2,0,.4-.04,.58-.12,.55-.23,.92-.78,.92-1.38,0-8.75,7.12-15.87,15.87-15.87,.83,0,1.5-.7,1.5-1.53s-.67-1.5-1.5-1.5Z"/>
  </g>
</svg>