<?xml version="1.0" encoding="UTF-8"?>
<svg id="OUTLINES" xmlns="http://www.w3.org/2000/svg" viewBox="0 0 1152 1008">
  <defs>
    <style>
      .cls-1 {
        fill: #000f7d;
      }

      .cls-2 {
        fill: #fff;
      }
    </style>
  </defs>
  <rect class="cls-2" x="363" y="398.68" width="444" height="111.32" rx="24" ry="24"/>
  <g>
    <path class="cls-1" d="M415.84,451.1h5.94c.75,2.37,2.58,3.56,5.49,3.56,1.41,0,2.53-.31,3.38-.92,.84-.61,1.26-1.46,1.26-2.54,0-.84-.26-1.5-.79-1.98-.53-.48-1.39-.85-2.59-1.12l-4.95-1.12c-4.68-1.05-7.02-3.57-7.02-7.56,0-2.49,.93-4.53,2.79-6.12,1.86-1.59,4.24-2.39,7.15-2.39,3.06,0,5.51,.73,7.36,2.18,1.85,1.46,3.01,3.4,3.49,5.83h-5.72c-.75-2.19-2.45-3.29-5.08-3.29-1.32,0-2.38,.29-3.17,.88-.8,.58-1.19,1.37-1.19,2.36,0,1.53,1.03,2.54,3.1,3.02l5.04,1.17c4.83,1.11,7.25,3.71,7.25,7.79,0,2.61-.96,4.7-2.88,6.25-1.92,1.56-4.38,2.34-7.38,2.34s-5.66-.73-7.7-2.21c-2.04-1.47-3.3-3.51-3.78-6.12Z"/>
    <path class="cls-1" d="M446.75,457.31v9.09h-5.58v-27.54h5.58v1.67c.48-.57,1.18-1.06,2.12-1.48,.93-.42,1.9-.63,2.92-.63,2.82,0,5.05,1.01,6.71,3.04,1.65,2.02,2.48,4.52,2.48,7.49s-.83,5.46-2.48,7.47c-1.65,2.01-3.89,3.02-6.71,3.02-1.02,0-2-.21-2.92-.63-.93-.42-1.64-.91-2.12-1.48Zm0-11.7v6.62c.33,.69,.84,1.25,1.53,1.69,.69,.44,1.44,.65,2.25,.65,1.47,0,2.64-.52,3.51-1.57,.87-1.05,1.31-2.4,1.31-4.05s-.44-3.01-1.31-4.07c-.87-1.06-2.04-1.6-3.51-1.6-.81,0-1.55,.22-2.23,.65-.67,.44-1.19,1-1.55,1.69Z"/>
    <path class="cls-1" d="M476.95,452.4h5.17c-.36,2.19-1.31,3.91-2.86,5.15-1.54,1.25-3.56,1.87-6.05,1.87-2.91,0-5.26-.97-7.06-2.9s-2.7-4.46-2.7-7.58,.91-5.54,2.72-7.54c1.81-2,4.13-2.99,6.95-2.99s5.12,.91,6.73,2.72c1.6,1.82,2.41,4.24,2.41,7.27v1.71h-13.41c.09,1.5,.52,2.68,1.3,3.53,.78,.85,1.8,1.28,3.06,1.28,2.04,0,3.29-.84,3.74-2.52Zm-3.78-9.45c-2.28,0-3.67,1.26-4.18,3.78h7.79c-.03-1.11-.36-2.02-.99-2.72-.63-.7-1.5-1.06-2.61-1.06Z"/>
    <path class="cls-1" d="M502.37,458.97h-5.36v-1.08c-.36,.36-1,.69-1.93,.99-.93,.3-1.92,.45-2.97,.45-2.13,0-3.91-.58-5.33-1.75s-2.14-2.76-2.14-4.77c0-1.89,.74-3.43,2.23-4.63,1.49-1.2,3.34-1.8,5.56-1.8,.84,0,1.71,.12,2.61,.36,.9,.24,1.56,.51,1.98,.81v-1.48c0-.9-.28-1.64-.83-2.23-.56-.58-1.37-.88-2.45-.88-1.5,0-2.49,.63-2.97,1.89h-5.31c.3-1.86,1.22-3.4,2.77-4.61,1.54-1.21,3.44-1.82,5.69-1.82,2.67,0,4.75,.68,6.23,2.05,1.48,1.37,2.23,3.26,2.23,5.69v12.83Zm-5.36-5.49v-1.44c-.24-.54-.7-.97-1.37-1.28s-1.43-.47-2.27-.47c-.96,0-1.79,.21-2.5,.63-.71,.42-1.06,1.04-1.06,1.85s.34,1.43,1.04,1.84c.69,.42,1.53,.63,2.52,.63,.84,0,1.6-.16,2.27-.47s1.13-.74,1.37-1.28Z"/>
    <path class="cls-1" d="M520.01,458.97l-5.9-8.1-1.62,1.75v6.35h-5.58v-29.25h5.58v16.6l6.88-7.47h6.93l-8.15,8.55,8.46,11.56h-6.61Z"/>
    <path class="cls-1" d="M540.12,452.9v-9.54h-3.06v-4.5h3.06v-5.44h5.54v5.44h4.41v4.5h-4.41v8.82c0,1.53,.77,2.29,2.29,2.29,.93,0,1.74-.23,2.43-.67v4.95c-.78,.42-1.98,.63-3.6,.63-2.1,0-3.73-.54-4.9-1.62s-1.76-2.7-1.76-4.86Z"/>
    <path class="cls-1" d="M572.7,448.94c0,3.09-.92,5.61-2.75,7.56-1.83,1.95-4.2,2.93-7.11,2.93s-5.28-.97-7.11-2.93c-1.83-1.95-2.75-4.47-2.75-7.56s.92-5.65,2.75-7.6c1.83-1.95,4.2-2.92,7.11-2.92s5.28,.98,7.11,2.92c1.83,1.95,2.75,4.49,2.75,7.6Zm-5.54,0c0-1.74-.38-3.14-1.15-4.21-.76-1.06-1.82-1.6-3.17-1.6s-2.41,.53-3.17,1.6c-.76,1.07-1.15,2.47-1.15,4.21s.38,3.1,1.15,4.16c.76,1.07,1.82,1.6,3.17,1.6s2.41-.53,3.17-1.6c.77-1.06,1.15-2.45,1.15-4.16Z"/>
    <path class="cls-1" d="M602.31,458.97h-5.36v-1.08c-.36,.36-1,.69-1.93,.99-.93,.3-1.92,.45-2.97,.45-2.13,0-3.91-.58-5.33-1.75s-2.14-2.76-2.14-4.77c0-1.89,.74-3.43,2.23-4.63,1.49-1.2,3.34-1.8,5.56-1.8,.84,0,1.71,.12,2.61,.36,.9,.24,1.56,.51,1.98,.81v-1.48c0-.9-.28-1.64-.83-2.23-.56-.58-1.37-.88-2.45-.88-1.5,0-2.49,.63-2.97,1.89h-5.31c.3-1.86,1.22-3.4,2.77-4.61,1.54-1.21,3.44-1.82,5.69-1.82,2.67,0,4.75,.68,6.23,2.05,1.48,1.37,2.23,3.26,2.23,5.69v12.83Zm-5.36-5.49v-1.44c-.24-.54-.7-.97-1.37-1.28s-1.43-.47-2.27-.47c-.96,0-1.79,.21-2.5,.63-.71,.42-1.06,1.04-1.06,1.85s.34,1.43,1.04,1.84c.69,.42,1.53,.63,2.52,.63,.84,0,1.6-.16,2.27-.47s1.13-.74,1.37-1.28Z"/>
    <path class="cls-1" d="M616.4,458.97v-29.25h5.58v10.98c1.32-1.53,3.12-2.29,5.4-2.29s4,.67,5.24,2.02,1.87,3.15,1.87,5.4v13.14h-5.58v-11.97c0-1.08-.28-1.94-.83-2.59-.56-.64-1.37-.97-2.45-.97-.87,0-1.64,.25-2.32,.74-.68,.5-1.12,1.18-1.33,2.05v12.73h-5.58Z"/>
    <path class="cls-1" d="M656.94,438.86v20.12h-5.58v-1.85c-1.38,1.53-3.18,2.3-5.4,2.3s-3.95-.68-5.2-2.03c-1.25-1.35-1.87-3.15-1.87-5.4v-13.14h5.58v12.02c0,1.11,.27,1.98,.81,2.61,.54,.63,1.35,.95,2.43,.95,.87,0,1.63-.25,2.29-.74,.66-.5,1.09-1.18,1.3-2.05v-12.78h5.62Z"/>
    <path class="cls-1" d="M677.82,440.97c1.56-1.71,3.58-2.56,6.08-2.56,2.07,0,3.69,.67,4.86,2,1.17,1.34,1.75,3.14,1.75,5.42v13.14h-5.58v-11.97c0-1.11-.25-1.99-.74-2.63-.5-.64-1.21-.97-2.14-.97-.75,0-1.41,.22-1.98,.67-.57,.45-.95,1.1-1.12,1.94v12.96h-5.62v-11.97c0-2.4-.95-3.6-2.83-3.6-.75,0-1.42,.23-2,.7-.58,.47-.97,1.1-1.15,1.91v12.96h-5.58v-20.12h5.58v1.67c1.11-1.41,2.8-2.11,5.08-2.11s4.11,.85,5.4,2.56Z"/>
    <path class="cls-1" d="M711.66,458.97h-5.36v-1.08c-.36,.36-1,.69-1.93,.99-.93,.3-1.92,.45-2.97,.45-2.13,0-3.91-.58-5.33-1.75s-2.14-2.76-2.14-4.77c0-1.89,.74-3.43,2.23-4.63,1.49-1.2,3.34-1.8,5.56-1.8,.84,0,1.71,.12,2.61,.36,.9,.24,1.56,.51,1.98,.81v-1.48c0-.9-.28-1.64-.83-2.23-.56-.58-1.37-.88-2.45-.88-1.5,0-2.49,.63-2.97,1.89h-5.31c.3-1.86,1.22-3.4,2.77-4.61,1.54-1.21,3.44-1.82,5.69-1.82,2.67,0,4.75,.68,6.23,2.05,1.48,1.37,2.23,3.26,2.23,5.69v12.83Zm-5.36-5.49v-1.44c-.24-.54-.7-.97-1.37-1.28s-1.43-.47-2.27-.47c-.96,0-1.79,.21-2.5,.63-.71,.42-1.06,1.04-1.06,1.85s.34,1.43,1.04,1.84c.69,.42,1.53,.63,2.52,.63,.84,0,1.6-.16,2.27-.47s1.13-.74,1.37-1.28Z"/>
    <path class="cls-1" d="M716.21,458.97v-20.12h5.58v1.85c1.32-1.53,3.12-2.29,5.4-2.29s4,.67,5.24,2.02,1.87,3.15,1.87,5.4v13.14h-5.58v-11.97c0-1.08-.28-1.94-.83-2.59-.56-.64-1.37-.97-2.45-.97-.87,0-1.64,.25-2.32,.74-.68,.5-1.12,1.18-1.33,2.05v12.73h-5.58Z"/>
  </g>
  <g>
    <path class="cls-1" d="M575.79,647.05c-12.68,0-23,10.32-23,23s10.32,23,23,23,23-10.32,23-23-10.32-23-23-23Zm0,36c-7.17,0-13-5.83-13-13s5.83-13,13-13,13,5.83,13,13-5.83,13-13,13Z"/>
    <path class="cls-1" d="M775.01,602.3l-50.22-49.75v-51.25h49c13.23,0,24-10.77,24-24v-63.32c0-13.23-10.77-24-24-24h-49V233.55c0-12.68-10.32-23-23-23h-252c-12.68,0-23,10.32-23,23v156.42h-49c-13.23,0-24,10.77-24,24v63.32c0,13.23,10.77,24,24,24h49.2l-.2,200.26c0,12.68,10.32,23,23,23h121.02v28.69c0,28.99,15.59,55.09,40.9,68.85v23.46c0,2.76,2.24,5,5,5s5-2.24,5-5v-26.5c0-1.9-1.08-3.64-2.79-4.48-23.51-11.62-38.12-35.12-38.12-61.33v-28.69h96.17c-9.03,13.04-13.94,28.6-13.94,44.61,0,18.78,6.74,36.94,18.99,51.14,.99,1.15,2.38,1.73,3.79,1.73,1.16,0,2.32-.4,3.26-1.21,2.09-1.8,2.33-4.96,.52-7.05-10.68-12.39-16.56-28.23-16.56-44.61s5.88-32.23,16.57-44.61c1.64-1.91,1.61-4.74-.07-6.61l-63.22-70.21c-4.97-5.3-7.71-12.24-7.71-19.52,0-14.27,10.51-26.14,24.19-28.26,.91-.14,1.83-.24,2.77-.29l70.69,70.7s.09,.08,.14,.12l34.25,34.25c1.95,1.95,5.12,1.95,7.07,0,1.95-1.95,1.95-5.12,0-7.07l-32.92-32.92v-98.1l43.17,42.77c26.54,26.54,41.16,61.83,41.16,99.37v133.24c0,2.76,2.24,5,5,5s5-2.24,5-5v-133.24c0-40.21-15.66-78.01-44.11-106.45ZM436.79,233.55c0-7.17,5.83-13,13-13h252c7.17,0,13,5.83,13,13v156.42H436.79V233.55Zm-71,243.74v-63.32c0-6.62,5.38-12,12-12h396c6.62,0,12,5.38,12,12v63.32c0,6.62-5.38,12-12,12H377.79c-6.62,0-12-5.38-12-12Zm285.35,113.78c-.92-.92-2.17-1.45-3.47-1.46h-.47c-2,0-3.96,.15-5.87,.44-18.51,2.83-32.74,18.86-32.74,38.16,0,9.83,3.7,19.19,10.34,26.28l54.08,60.06h-223.22c-7.17,0-13-5.83-13-13l.2-200.27h277.8v53.36h0v100.07l-63.65-63.65Z"/>
  </g>
  <g>
    <path class="cls-1" d="M516.11,299.8c0-.83-.67-1.5-1.5-1.5-8.37,0-15.17-6.81-15.17-15.17,0-.83-.7-1.5-1.53-1.5s-1.5,.67-1.5,1.5c0,8.37-6.81,15.17-15.17,15.17-.83,0-1.5,.67-1.5,1.5s.67,1.5,1.5,1.5c8.37,0,15.17,6.81,15.17,15.17,0,.4,.19,.81,.47,1.09s.67,.44,1.06,.44c.19,0,.39-.04,.57-.11,.56-.23,.93-.78,.93-1.39,0-8.37,6.81-15.17,15.17-15.17,.83,0,1.5-.7,1.5-1.53Z"/>
    <path class="cls-1" d="M525.17,315.85c-4.33,0-7.85-3.52-7.85-7.84,0-.83-.69-1.5-1.52-1.5s-1.5,.67-1.5,1.5c0,4.33-3.52,7.84-7.85,7.84-.83,0-1.5,.67-1.5,1.5s.67,1.5,1.5,1.5c4.33,0,7.85,3.52,7.85,7.84,0,.39,.17,.79,.45,1.07,.29,.29,.67,.45,1.07,.45,.19,0,.38-.04,.57-.11,.56-.23,.93-.78,.93-1.39,0-4.33,3.52-7.84,7.85-7.84,.83,0,1.5-.69,1.5-1.52s-.67-1.5-1.5-1.5Z"/>
    <path class="cls-1" d="M504.33,266.17c-22.15,0-40.16,18.02-40.16,40.17s18.02,40.17,40.16,40.17,40.17-18.02,40.17-40.17-18.02-40.17-40.17-40.17Zm0,71.33c-17.18,0-31.16-13.98-31.16-31.17s13.98-31.17,31.16-31.17,31.17,13.98,31.17,31.17-13.98,31.17-31.17,31.17Z"/>
    <path class="cls-1" d="M587.43,302.28l-13.28-9c-1.38-.93-3.16-1.03-4.63-.25-1.47,.78-2.39,2.31-2.39,3.98v18c0,1.67,.92,3.2,2.39,3.98,.66,.35,1.39,.52,2.11,.52,.88,0,1.77-.26,2.53-.78l13.28-9c1.24-.84,1.98-2.23,1.98-3.72s-.74-2.89-1.98-3.72Z"/>
    <circle class="cls-1" cx="648.34" cy="297.2" r="14.7" transform="translate(125.65 782.45) rotate(-67.5)"/>
    <path class="cls-1" d="M648.33,266.17c-22.15,0-40.16,18.02-40.16,40.17s18.02,40.17,40.16,40.17,40.17-18.02,40.17-40.17-18.02-40.17-40.17-40.17Zm23.42,60.69c-6.27-5.47-14.45-8.79-23.42-8.79s-17.15,3.32-23.42,8.79c-4.82-5.49-7.74-12.67-7.74-20.53,0-17.18,13.98-31.17,31.16-31.17s31.17,13.98,31.17,31.17c0,7.86-2.93,15.04-7.74,20.53Z"/>
  </g>
</svg>