<svg id="OUTLINES" xmlns="http://www.w3.org/2000/svg" viewBox="0 0 1152 1008"><defs><style>.cls-1{fill:#fff;}.cls-2{fill:#000f7d;}</style></defs><title>unusual-activity-check</title><rect class="cls-1" x="362" y="334.62" width="444" height="111.32" rx="24"/><path class="cls-1" d="M593.21,238H561a8.22,8.22,0,0,0-8.21,8.21v53.94a22,22,0,0,0,22,22h18.42a22,22,0,0,0,22-22V260A22,22,0,0,0,593.21,238Z"/><path class="cls-2" d="M435.3,466.34H441L451.59,494h-5.85l-2.47-6.66H432.92L430.49,494h-5.76Zm2.79,6.93-3.37,9.18h6.75Z"/><path class="cls-2" d="M454.7,494V473.85h5.58v1.85a7.63,7.63,0,0,1,10.64-.27,7.63,7.63,0,0,1,1.87,5.4V494h-5.58V482a3.87,3.87,0,0,0-.83-2.59,3.1,3.1,0,0,0-2.46-1,3.76,3.76,0,0,0-2.31.75,3.43,3.43,0,0,0-1.33,2V494Z"/><path class="cls-2" d="M476.12,488h5.53c.45,1.48,1.58,2.21,3.38,2.21s2.83-.66,2.83-2a1.28,1.28,0,0,0-.47-1.06,4.24,4.24,0,0,0-1.55-.65l-4-.9q-5.22-1.22-5.22-5.67a5.72,5.72,0,0,1,2.29-4.7,8.89,8.89,0,0,1,5.72-1.83,9.39,9.39,0,0,1,5.87,1.65,7.18,7.18,0,0,1,2.68,4.56h-5.31c-.42-1.31-1.47-2-3.15-2a3.43,3.43,0,0,0-1.87.49,1.56,1.56,0,0,0-.79,1.39c0,.76.6,1.28,1.8,1.58l4.14.95q5.35,1.31,5.36,5.84a5.69,5.69,0,0,1-2.32,4.78,9.55,9.55,0,0,1-5.92,1.75,10.32,10.32,0,0,1-6.12-1.69A6.73,6.73,0,0,1,476.12,488Z"/><path class="cls-2" d="M511.4,473.85l3.33,12.83,3.6-12.83h5.4L517.61,494h-5.13l-3.29-12.33L505.91,494h-5.13l-6.12-20.12h5.58l3.6,12.83,3.28-12.83Z"/><path class="cls-2" d="M538.76,487.4h5.17a8,8,0,0,1-2.85,5.15,9.35,9.35,0,0,1-6.06,1.87,9.21,9.21,0,0,1-7.06-2.9,11.9,11.9,0,0,1,0-15.12,9,9,0,0,1,6.95-3,8.51,8.51,0,0,1,6.73,2.73,10.59,10.59,0,0,1,2.41,7.26v1.71H530.66a5.57,5.57,0,0,0,1.3,3.54,4,4,0,0,0,3.06,1.28Q538.08,489.92,538.76,487.4ZM535,478q-3.42,0-4.19,3.78h7.79a4.09,4.09,0,0,0-1-2.72A3.31,3.31,0,0,0,535,478Z"/><path class="cls-2" d="M559.82,473.76v5.58a5.34,5.34,0,0,0-2.79-.67,4.18,4.18,0,0,0-2.48.74,3.44,3.44,0,0,0-1.35,2.1V494h-5.58V473.85h5.58v2a4.87,4.87,0,0,1,4.5-2.44A4.69,4.69,0,0,1,559.82,473.76Z"/><path class="cls-2" d="M571.65,488h5.54c.45,1.48,1.57,2.21,3.37,2.21s2.84-.66,2.84-2a1.29,1.29,0,0,0-.48-1.06,4.16,4.16,0,0,0-1.55-.65l-4-.9q-5.22-1.22-5.22-5.67a5.73,5.73,0,0,1,2.3-4.7,8.86,8.86,0,0,1,5.71-1.83,9.37,9.37,0,0,1,5.87,1.65,7.14,7.14,0,0,1,2.68,4.56h-5.31c-.42-1.31-1.47-2-3.15-2a3.45,3.45,0,0,0-1.87.49,1.57,1.57,0,0,0-.78,1.39c0,.76.6,1.28,1.8,1.58l4.14.95q5.35,1.31,5.35,5.84a5.66,5.66,0,0,1-2.32,4.78,9.49,9.49,0,0,1-5.91,1.75,10.32,10.32,0,0,1-6.12-1.69A6.74,6.74,0,0,1,571.65,488Z"/><path class="cls-2" d="M604.86,487.4H610a8,8,0,0,1-2.86,5.15,9.32,9.32,0,0,1-6,1.87,9.23,9.23,0,0,1-7.07-2.9,11.9,11.9,0,0,1,0-15.12,9,9,0,0,1,7-3,8.48,8.48,0,0,1,6.72,2.73,10.54,10.54,0,0,1,2.41,7.26v1.71H596.76a5.58,5.58,0,0,0,1.31,3.54,4,4,0,0,0,3.06,1.28Q604.19,489.92,604.86,487.4ZM601.08,478q-3.42,0-4.18,3.78h7.78a4.09,4.09,0,0,0-1-2.72A3.31,3.31,0,0,0,601.08,478Z"/><path class="cls-2" d="M612.65,483.93a10.77,10.77,0,0,1,2.7-7.6,9.92,9.92,0,0,1,13-.94,8.05,8.05,0,0,1,2.79,5.26h-5.49a2.85,2.85,0,0,0-1.1-1.82,3.62,3.62,0,0,0-2.23-.65,3.51,3.51,0,0,0-3,1.57,8.24,8.24,0,0,0,0,8.33,3.51,3.51,0,0,0,3,1.57,3.68,3.68,0,0,0,2.23-.65,2.87,2.87,0,0,0,1.1-1.82h5.49a8.07,8.07,0,0,1-2.77,5.26,10,10,0,0,1-13-.94A10.71,10.71,0,0,1,612.65,483.93Z"/><path class="cls-2" d="M652.38,473.85V494H646.8v-1.84a7,7,0,0,1-5.4,2.29,6.7,6.7,0,0,1-5.2-2,7.63,7.63,0,0,1-1.86-5.39V473.85h5.58v12a3.88,3.88,0,0,0,.81,2.61,3,3,0,0,0,2.43.95,3.68,3.68,0,0,0,2.29-.75,3.46,3.46,0,0,0,1.31-2V473.85Z"/><path class="cls-2" d="M669.39,473.76v5.58a5.34,5.34,0,0,0-2.79-.67,4.15,4.15,0,0,0-2.47.74,3.44,3.44,0,0,0-1.35,2.1V494H657.2V473.85h5.58v2a4.87,4.87,0,0,1,4.5-2.44A4.64,4.64,0,0,1,669.39,473.76Z"/><path class="cls-2" d="M679.07,468.05a3,3,0,0,1-1,2.29,3.46,3.46,0,0,1-4.68,0,3.14,3.14,0,0,1,0-4.56,3.3,3.3,0,0,1,2.34-.93,3.24,3.24,0,0,1,2.32.93A3,3,0,0,1,679.07,468.05Zm-.5,5.8V494H673V473.85Z"/><path class="cls-2" d="M684.65,487.89v-9.54h-3.06v-4.5h3.06v-5.44h5.53v5.44h4.41v4.5h-4.41v8.83a2,2,0,0,0,2.3,2.29,4.35,4.35,0,0,0,2.43-.67v4.95a8,8,0,0,1-3.6.63,7,7,0,0,1-4.91-1.62A6.32,6.32,0,0,1,684.65,487.89Z"/><path class="cls-2" d="M706.92,501.39h-5.49l2.93-7.33-7.7-20.21h5.9l4.63,13.37,4.59-13.37h5.63Z"/><path class="cls-2" d="M405.24,546.39V537.3a5.74,5.74,0,0,1-2.11,1.49,7.05,7.05,0,0,1-2.93.63,8.18,8.18,0,0,1-6.7-3,11.37,11.37,0,0,1-2.48-7.47,11.5,11.5,0,0,1,2.48-7.49,8.2,8.2,0,0,1,6.7-3,7.06,7.06,0,0,1,2.93.64,5.84,5.84,0,0,1,2.11,1.48v-1.67h5.58v27.54Zm0-14.17V525.6a4.38,4.38,0,0,0-1.55-1.68,4,4,0,0,0-2.23-.66,4.31,4.31,0,0,0-3.51,1.6,6.25,6.25,0,0,0-1.3,4.07A6.12,6.12,0,0,0,398,533a4.3,4.3,0,0,0,3.51,1.58,4.18,4.18,0,0,0,2.25-.65A4.07,4.07,0,0,0,405.24,532.22Z"/><path class="cls-2" d="M433.5,518.85V539h-5.58v-1.84a7,7,0,0,1-5.4,2.29,6.66,6.66,0,0,1-5.19-2,7.59,7.59,0,0,1-1.87-5.39V518.85H421v12a3.88,3.88,0,0,0,.81,2.61,3,3,0,0,0,2.43.95,3.68,3.68,0,0,0,2.29-.75,3.46,3.46,0,0,0,1.31-2V518.85Z"/><path class="cls-2" d="M450.56,532.4h5.17a8,8,0,0,1-2.85,5.15,9.35,9.35,0,0,1-6.06,1.87,9.21,9.21,0,0,1-7.06-2.9,11.9,11.9,0,0,1,0-15.12,9,9,0,0,1,7-3,8.5,8.5,0,0,1,6.73,2.73,10.54,10.54,0,0,1,2.41,7.26v1.71H442.46a5.57,5.57,0,0,0,1.3,3.54,4,4,0,0,0,3.06,1.28Q449.88,534.92,450.56,532.4ZM446.78,523q-3.42,0-4.19,3.78h7.79a4.09,4.09,0,0,0-1-2.72A3.31,3.31,0,0,0,446.78,523Z"/><path class="cls-2" d="M458.16,533h5.54c.45,1.48,1.57,2.21,3.37,2.21s2.84-.66,2.84-2a1.31,1.31,0,0,0-.47-1.06,4.3,4.3,0,0,0-1.56-.65l-4.05-.9q-5.22-1.22-5.22-5.67a5.73,5.73,0,0,1,2.3-4.7,8.86,8.86,0,0,1,5.71-1.83,9.42,9.42,0,0,1,5.88,1.65,7.17,7.17,0,0,1,2.67,4.56h-5.31c-.42-1.31-1.47-2-3.15-2a3.4,3.4,0,0,0-1.86.49,1.56,1.56,0,0,0-.79,1.39c0,.76.6,1.28,1.8,1.58l4.14.95q5.36,1.31,5.35,5.84a5.68,5.68,0,0,1-2.31,4.78,9.55,9.55,0,0,1-5.92,1.75,10.32,10.32,0,0,1-6.12-1.69A6.74,6.74,0,0,1,458.16,533Z"/><path class="cls-2" d="M480.35,532.89v-9.54h-3.06v-4.5h3.06v-5.44h5.53v5.44h4.41v4.5h-4.41v8.83a2,2,0,0,0,2.3,2.29,4.35,4.35,0,0,0,2.43-.67v5a8,8,0,0,1-3.6.63,7,7,0,0,1-4.91-1.62A6.32,6.32,0,0,1,480.35,532.89Z"/><path class="cls-2" d="M500.73,513.05a3,3,0,0,1-1,2.29,3.22,3.22,0,0,1-2.31.91,3.33,3.33,0,0,1-2.37-.91,3.15,3.15,0,0,1,0-4.56,3.3,3.3,0,0,1,2.34-.93,3.2,3.2,0,0,1,2.31.93A3,3,0,0,1,500.73,513.05Zm-.49,5.8V539h-5.58V518.85Z"/><path class="cls-2" d="M523.55,528.93a10.61,10.61,0,0,1-2.75,7.57,10.12,10.12,0,0,1-14.22,0,11.87,11.87,0,0,1,0-15.17,10.09,10.09,0,0,1,14.22,0A10.67,10.67,0,0,1,523.55,528.93Zm-5.54,0a7,7,0,0,0-1.15-4.2,3.94,3.94,0,0,0-6.34,0,8.19,8.19,0,0,0,0,8.37,4,4,0,0,0,6.34,0A7,7,0,0,0,518,528.93Z"/><path class="cls-2" d="M527.1,539V518.85h5.58v1.85a7.63,7.63,0,0,1,10.64-.27,7.63,7.63,0,0,1,1.87,5.4V539h-5.58V527a3.87,3.87,0,0,0-.83-2.59,3.08,3.08,0,0,0-2.45-1,3.79,3.79,0,0,0-2.32.75,3.43,3.43,0,0,0-1.33,2V539Z"/><path class="cls-2" d="M560.58,532.89v-9.54h-3.06v-4.5h3.06v-5.44h5.54v5.44h4.41v4.5h-4.41v8.83a2,2,0,0,0,2.29,2.29,4.35,4.35,0,0,0,2.43-.67v5a8,8,0,0,1-3.6.63,7,7,0,0,1-4.9-1.62A6.32,6.32,0,0,1,560.58,532.89Z"/><path class="cls-2" d="M593.16,528.93a10.61,10.61,0,0,1-2.74,7.57,10.12,10.12,0,0,1-14.22,0,11.84,11.84,0,0,1,0-15.17,10.09,10.09,0,0,1,14.22,0A10.67,10.67,0,0,1,593.16,528.93Zm-5.54,0a7.08,7.08,0,0,0-1.14-4.2,4,4,0,0,0-6.35,0,8.25,8.25,0,0,0,0,8.37,4,4,0,0,0,6.35,0A7,7,0,0,0,587.62,528.93Z"/><path class="cls-2" d="M605,528.93a10.77,10.77,0,0,1,2.7-7.6,9.92,9.92,0,0,1,13-.94,8.05,8.05,0,0,1,2.79,5.26H618a2.85,2.85,0,0,0-1.1-1.82,3.62,3.62,0,0,0-2.23-.65,3.5,3.5,0,0,0-3,1.57,8.24,8.24,0,0,0,0,8.33,3.5,3.5,0,0,0,3,1.57,3.68,3.68,0,0,0,2.23-.65,2.87,2.87,0,0,0,1.1-1.82h5.49a8.07,8.07,0,0,1-2.77,5.26,10,10,0,0,1-13-.94A10.71,10.71,0,0,1,605,528.93Z"/><path class="cls-2" d="M645.4,528.93a10.61,10.61,0,0,1-2.74,7.57,10.12,10.12,0,0,1-14.22,0,11.84,11.84,0,0,1,0-15.17,10.09,10.09,0,0,1,14.22,0A10.67,10.67,0,0,1,645.4,528.93Zm-5.53,0a7,7,0,0,0-1.15-4.2,3.94,3.94,0,0,0-6.34,0,8.19,8.19,0,0,0,0,8.37,4,4,0,0,0,6.34,0A7,7,0,0,0,639.87,528.93Z"/><path class="cls-2" d="M649,539V518.85h5.58v1.85a7.63,7.63,0,0,1,10.64-.27,7.63,7.63,0,0,1,1.87,5.4V539h-5.58V527a3.87,3.87,0,0,0-.83-2.59,3.1,3.1,0,0,0-2.46-1,3.76,3.76,0,0,0-2.31.75,3.43,3.43,0,0,0-1.33,2V539Z"/><path class="cls-2" d="M672.9,532.89v-9.54h-3.06v-4.5h3.06v-5.44h5.53v5.44h4.41v4.5h-4.41v8.83a2,2,0,0,0,2.3,2.29,4.35,4.35,0,0,0,2.43-.67v5a8,8,0,0,1-3.6.63,7,7,0,0,1-4.91-1.62A6.32,6.32,0,0,1,672.9,532.89Z"/><path class="cls-2" d="M693.28,513.05a3,3,0,0,1-1,2.29,3.46,3.46,0,0,1-4.68,0,3.14,3.14,0,0,1,0-4.56,3.3,3.3,0,0,1,2.34-.93,3.24,3.24,0,0,1,2.32.93A3,3,0,0,1,693.28,513.05Zm-.49,5.8V539h-5.58V518.85Z"/><path class="cls-2" d="M697.65,539V518.85h5.58v1.85a7.63,7.63,0,0,1,10.64-.27,7.63,7.63,0,0,1,1.87,5.4V539h-5.58V527a3.87,3.87,0,0,0-.83-2.59,3.1,3.1,0,0,0-2.46-1,3.76,3.76,0,0,0-2.31.75,3.43,3.43,0,0,0-1.33,2V539Z"/><path class="cls-2" d="M738.19,518.85V539h-5.58v-1.84a7,7,0,0,1-5.4,2.29,6.66,6.66,0,0,1-5.19-2,7.59,7.59,0,0,1-1.87-5.39V518.85h5.58v12a3.88,3.88,0,0,0,.81,2.61,3,3,0,0,0,2.43.95,3.68,3.68,0,0,0,2.29-.75,3.46,3.46,0,0,0,1.31-2V518.85Z"/><path class="cls-2" d="M755.25,532.4h5.17a8,8,0,0,1-2.86,5.15,9.31,9.31,0,0,1-6,1.87,9.21,9.21,0,0,1-7.06-2.9,11.9,11.9,0,0,1,0-15.12,9,9,0,0,1,6.95-3,8.51,8.51,0,0,1,6.73,2.73,10.59,10.59,0,0,1,2.41,7.26v1.71H747.15a5.57,5.57,0,0,0,1.3,3.54,4,4,0,0,0,3.06,1.28Q754.57,534.92,755.25,532.4ZM751.47,523q-3.42,0-4.19,3.78h7.79a4.09,4.09,0,0,0-1-2.72A3.31,3.31,0,0,0,751.47,523Z"/><path class="cls-2" d="M432.29,396.42a11.57,11.57,0,0,1-8.37-3q-3.1-3-3.11-8.58V368.34h5.76v15.93q0,7,5.72,7t5.71-7V368.34h5.76v16.51c0,3.72-1,6.58-3.08,8.58A11.54,11.54,0,0,1,432.29,396.42Z"/><path class="cls-2" d="M448.44,396V375.85H454v1.85a7.64,7.64,0,0,1,10.65-.27,7.67,7.67,0,0,1,1.86,5.4V396H461V384a3.82,3.82,0,0,0-.83-2.59,3.06,3.06,0,0,0-2.45-1,3.81,3.81,0,0,0-2.32.75,3.44,3.44,0,0,0-1.33,2V396Z"/><path class="cls-2" d="M483,366.85v4.73a3.36,3.36,0,0,0-2-.54,2.45,2.45,0,0,0-2.75,2.79v2h4.19v4.5h-4.19V396h-5.49V380.35h-3.28v-4.5h3.28v-2.38a6.61,6.61,0,0,1,7.11-7.16A7.71,7.71,0,0,1,483,366.85Z"/><path class="cls-2" d="M501.72,396h-5.35v-1.08a5,5,0,0,1-1.94,1,9.62,9.62,0,0,1-3,.45,8.13,8.13,0,0,1-5.33-1.76A5.86,5.86,0,0,1,484,389.8a5.7,5.7,0,0,1,2.23-4.63,8.57,8.57,0,0,1,5.56-1.8,10.12,10.12,0,0,1,2.61.36,6.34,6.34,0,0,1,2,.81v-1.49a3.1,3.1,0,0,0-.83-2.22,3.23,3.23,0,0,0-2.46-.88,2.86,2.86,0,0,0-3,1.89H484.8a7.16,7.16,0,0,1,2.77-4.61,10.15,10.15,0,0,1,11.93.22,7.36,7.36,0,0,1,2.22,5.69Zm-5.35-5.49V389a2.62,2.62,0,0,0-1.37-1.28,5.29,5.29,0,0,0-2.28-.48,4.75,4.75,0,0,0-2.49.63,2.15,2.15,0,0,0,0,3.69,4.76,4.76,0,0,0,2.52.63,5.29,5.29,0,0,0,2.28-.47A2.62,2.62,0,0,0,496.37,390.48Z"/><path class="cls-2" d="M522.33,378a7.86,7.86,0,0,1,6.08-2.57,6.11,6.11,0,0,1,4.86,2,7.92,7.92,0,0,1,1.75,5.42V396h-5.58V384a4.17,4.17,0,0,0-.74-2.63,2.52,2.52,0,0,0-2.14-1,3.1,3.1,0,0,0-2,.67,3.23,3.23,0,0,0-1.12,1.94v13h-5.63V384q0-3.6-2.83-3.6a3.09,3.09,0,0,0-2,.7,3.21,3.21,0,0,0-1.15,1.91v13h-5.58V375.85h5.58v1.67a6.07,6.07,0,0,1,5.08-2.12A6.38,6.38,0,0,1,522.33,378Z"/><path class="cls-2" d="M545.73,370.05a3,3,0,0,1-1,2.29,3.26,3.26,0,0,1-2.31.9,3.37,3.37,0,0,1-2.37-.9,3.15,3.15,0,0,1,0-4.56,3.3,3.3,0,0,1,2.34-.93,3.2,3.2,0,0,1,2.31.93A3,3,0,0,1,545.73,370.05Zm-.49,5.8V396h-5.58V375.85Z"/><path class="cls-2" d="M555.68,366.72V396H550.1V366.72Z"/><path class="cls-2" d="M566.61,370.05a3,3,0,0,1-1,2.29,3.26,3.26,0,0,1-2.31.9,3.37,3.37,0,0,1-2.37-.9,3.15,3.15,0,0,1,0-4.56,3.3,3.3,0,0,1,2.34-.93,3.2,3.2,0,0,1,2.31.93A3,3,0,0,1,566.61,370.05Zm-.49,5.8V396h-5.58V375.85Z"/><path class="cls-2" d="M587.49,396h-5.35v-1.08a5,5,0,0,1-1.94,1,9.62,9.62,0,0,1-3,.45,8.11,8.11,0,0,1-5.33-1.76,5.83,5.83,0,0,1-2.14-4.77,5.67,5.67,0,0,1,2.23-4.63,8.55,8.55,0,0,1,5.56-1.8,10.12,10.12,0,0,1,2.61.36,6.34,6.34,0,0,1,2,.81v-1.49a3.06,3.06,0,0,0-.84-2.22,3.19,3.19,0,0,0-2.45-.88,2.86,2.86,0,0,0-3,1.89h-5.31a7.12,7.12,0,0,1,2.77-4.61,10.13,10.13,0,0,1,11.92.22,7.33,7.33,0,0,1,2.23,5.69Zm-5.35-5.49V389a2.6,2.6,0,0,0-1.38-1.28,5.21,5.21,0,0,0-2.27-.48,4.81,4.81,0,0,0-2.5.63,2.16,2.16,0,0,0,0,3.69,4.76,4.76,0,0,0,2.52.63,5.21,5.21,0,0,0,2.27-.47A2.6,2.6,0,0,0,582.14,390.48Z"/><path class="cls-2" d="M604.23,375.76v5.58a5.34,5.34,0,0,0-2.79-.67,4.15,4.15,0,0,0-2.47.74,3.44,3.44,0,0,0-1.35,2.09V396H592V375.85h5.58v2a4.86,4.86,0,0,1,4.5-2.43A4.51,4.51,0,0,1,604.23,375.76Z"/><path class="cls-2" d="M630.29,396V394.3a5.9,5.9,0,0,1-2.12,1.49,7,7,0,0,1-2.92.63,8.2,8.2,0,0,1-6.69-3,12.72,12.72,0,0,1,0-15,8.17,8.17,0,0,1,6.69-3,7,7,0,0,1,2.92.63,5.9,5.9,0,0,1,2.12,1.49v-10.8h5.62V396Zm0-6.75V382.6a4,4,0,0,0-1.53-1.68,4.1,4.1,0,0,0-2.25-.66,4.31,4.31,0,0,0-3.51,1.6,6.18,6.18,0,0,0-1.31,4.07A6.09,6.09,0,0,0,623,390a4.33,4.33,0,0,0,3.51,1.58,4.17,4.17,0,0,0,3.78-2.34Z"/><path class="cls-2" d="M653,389.4h5.18a8,8,0,0,1-2.86,5.15,9.31,9.31,0,0,1-6,1.87,9.19,9.19,0,0,1-7.06-2.9,11.87,11.87,0,0,1,0-15.12,9,9,0,0,1,6.95-3,8.51,8.51,0,0,1,6.73,2.73,10.57,10.57,0,0,1,2.41,7.26v1.71H644.87a5.6,5.6,0,0,0,1.3,3.54,4,4,0,0,0,3.06,1.28Q652.29,391.92,653,389.4ZM649.18,380q-3.42,0-4.18,3.78h7.79a4.15,4.15,0,0,0-1-2.72A3.29,3.29,0,0,0,649.18,380Z"/><path class="cls-2" d="M672.54,396h-5.4l-7.6-20.12h5.84L670,389.22l4.55-13.37h5.62Z"/><path class="cls-2" d="M689.28,370.05a3,3,0,0,1-1,2.29,3.28,3.28,0,0,1-2.32.9,3.34,3.34,0,0,1-2.36-.9,3,3,0,0,1-1-2.29,3,3,0,0,1,1-2.27,3.3,3.3,0,0,1,2.34-.93,3.22,3.22,0,0,1,2.32.93A3,3,0,0,1,689.28,370.05Zm-.5,5.8V396H683.2V375.85Z"/><path class="cls-2" d="M692.38,385.93a10.76,10.76,0,0,1,2.7-7.6,10,10,0,0,1,13-.95,8.08,8.08,0,0,1,2.79,5.27h-5.49a2.85,2.85,0,0,0-1.1-1.82,3.62,3.62,0,0,0-2.23-.66,3.54,3.54,0,0,0-3,1.58,8.29,8.29,0,0,0,0,8.32,3.54,3.54,0,0,0,3,1.58,3.68,3.68,0,0,0,2.23-.65,2.9,2.9,0,0,0,1.1-1.83h5.49a8.1,8.1,0,0,1-2.77,5.27,9,9,0,0,1-6.05,2,9.08,9.08,0,0,1-7-2.93A10.71,10.71,0,0,1,692.38,385.93Z"/><path class="cls-2" d="M726.58,389.4h5.18a8,8,0,0,1-2.86,5.15,10.35,10.35,0,0,1-13.12-1,11.88,11.88,0,0,1,0-15.12,9,9,0,0,1,7-3,8.51,8.51,0,0,1,6.73,2.73,10.56,10.56,0,0,1,2.4,7.26v1.71H718.48a5.6,5.6,0,0,0,1.31,3.54,4,4,0,0,0,3.06,1.28Q725.91,391.92,726.58,389.4ZM722.8,380q-3.42,0-4.18,3.78h7.78a4.09,4.09,0,0,0-1-2.72A3.31,3.31,0,0,0,722.8,380Z"/><path class="cls-2" d="M575.79,299.91a5.72,5.72,0,1,1,5.72-5.72A5.73,5.73,0,0,1,575.79,299.91Z"/><path class="cls-2" d="M575.79,693.05a23,23,0,1,0-23-23A23,23,0,0,0,575.79,693.05Zm0-36a13,13,0,1,1-13,13A13,13,0,0,1,575.79,657.05Z"/><path class="cls-2" d="M775,602.31l-20-20h18.78a24,24,0,0,0,24-24v-108a24,24,0,0,0-8.15-18,24,24,0,0,0,8.15-18V351a24,24,0,0,0-24-24h-49V233.55a23,23,0,0,0-23-23h-252a23,23,0,0,0-23,23V327h-49a24,24,0,0,0-24,24v63.32a24,24,0,0,0,8.15,18,24,24,0,0,0-8.15,18v108a24,24,0,0,0,24,24h49V701.55a23,23,0,0,0,23,23h121v28.69a77.91,77.91,0,0,0,40.9,68.85v23.46a5,5,0,0,0,10,0v-26.5a5,5,0,0,0-2.78-4.48,68,68,0,0,1-38.12-61.33V724.55H677a78.33,78.33,0,0,0,5,95.75,5,5,0,0,0,7.58-6.53,68.35,68.35,0,0,1,0-89.23,5,5,0,0,0-.07-6.61l-63.22-70.21a28.59,28.59,0,0,1,16.48-47.78c.91-.14,1.84-.24,2.77-.29l70.7,70.7.13.12,34.25,34.25a5,5,0,0,0,7.07-7.07l-32.92-32.93V582.29h16.07L768,609.38a139.65,139.65,0,0,1,41.16,99.37V842a5,5,0,0,0,10,0V708.75A149.58,149.58,0,0,0,775,602.31ZM436.79,233.55a13,13,0,0,1,13-13h252a13,13,0,0,1,13,13V327h-278Zm-71,180.74V351a12,12,0,0,1,12-12h396a12,12,0,0,1,12,12v63.32a12,12,0,0,1-12,12h-396A12,12,0,0,1,365.79,414.29Zm0,144v-108a12,12,0,0,1,12-12h396a12,12,0,0,1,12,12v108a12,12,0,0,1-12,12h-396A12,12,0,0,1,365.79,558.29Zm349,96.43-63.65-63.65a5,5,0,0,0-3.48-1.46h-.46a39.42,39.42,0,0,0-5.88.45,38.6,38.6,0,0,0-22.39,64.44L673,714.55H449.79a13,13,0,0,1-13-13V582.29h278Z"/><path class="cls-2" d="M585,230.32H566.58a22,22,0,0,0-22,22v40.15a22,22,0,0,0,22,22H585a22,22,0,0,0,22-22V252.32A22,22,0,0,0,585,230.32Zm14,62.15a14,14,0,0,1-14,14H566.58a14,14,0,0,1-14-14V252.32a14,14,0,0,1,14-14H585a14,14,0,0,1,14,14Z"/><path class="cls-2" d="M575.56,245.05c-9.89,0-15.3,6.94-15.3,14.15a11.13,11.13,0,0,0,.34,3l8.41.33a6.91,6.91,0,0,1-.26-2.13c0-3.74,2.07-7.55,6.81-7.55,4.47,0,6.68,2.94,6.68,6a6.33,6.33,0,0,1-2.88,5.28l-3.2,2.4c-3.81,2.87-5.28,6.14-5.28,9.68a17.79,17.79,0,0,0,.27,2.74h7.21v-.4a7.63,7.63,0,0,1,3.61-6.48l2.74-1.93c3.94-2.81,6.61-6.55,6.61-11.82C591.32,251.59,585.91,245.05,575.56,245.05Z"/></svg>