<svg id="OUTLINES" xmlns="http://www.w3.org/2000/svg" viewBox="0 0 1152 1008"><defs><style>.cls-1{fill:#000f7d;}.cls-2{fill:#fff;}</style></defs><title>up-front-consent</title><path class="cls-1" d="M720,319.5h-9v-81A13.52,13.52,0,0,0,697.5,225h-252A13.51,13.51,0,0,0,432,238.5v81h-9v-81A22.52,22.52,0,0,1,445.5,216h252A22.53,22.53,0,0,1,720,238.5Z"/><rect class="cls-2" x="360" y="425.22" width="432" height="99" rx="18"/><path class="cls-2" d="M774,530.22H378a24,24,0,0,1-24-24v-63a24,24,0,0,1,24-24H774a24,24,0,0,1,24,24v63A24,24,0,0,1,774,530.22Zm-396-99a12,12,0,0,0-12,12v63a12,12,0,0,0,12,12H774a12,12,0,0,0,12-12v-63a12,12,0,0,0-12-12Z"/><rect class="cls-2" x="360" y="326.22" width="432" height="99" rx="18"/><path class="cls-2" d="M774,431.22H378a24,24,0,0,1-24-24v-63a24,24,0,0,1,24-24H774a24,24,0,0,1,24,24v63A24,24,0,0,1,774,431.22Zm-396-99a12,12,0,0,0-12,12v63a12,12,0,0,0,12,12H774a12,12,0,0,0,12-12v-63a12,12,0,0,0-12-12Z"/><rect class="cls-2" x="360" y="524.22" width="432" height="99" rx="18"/><path class="cls-2" d="M774,629.22H378a24,24,0,0,1-24-24v-63a24,24,0,0,1,24-24H774a24,24,0,0,1,24,24v63A24,24,0,0,1,774,629.22Zm-396-99a12,12,0,0,0-12,12v63a12,12,0,0,0,12,12H774a12,12,0,0,0,12-12v-63a12,12,0,0,0-12-12Z"/><path class="cls-1" d="M612.59,855.5a5,5,0,0,1-5-5V827a77.92,77.92,0,0,1-40.91-68.85V727.58a5,5,0,0,1,10,0v30.61a68,68,0,0,0,38.12,61.33,5,5,0,0,1,2.79,4.48v26.5A5,5,0,0,1,612.59,855.5Z"/><path class="cls-1" d="M571.68,698a23,23,0,1,1,23-23A23,23,0,0,1,571.68,698Zm0-36a13,13,0,1,0,13,13A13,13,0,0,0,571.68,662Z"/><path class="cls-1" d="M769.5,426.78h-396a24,24,0,0,1-24-24v-63a24,24,0,0,1,24-24h396a24,24,0,0,1,24,24v63A24,24,0,0,1,769.5,426.78Zm-396-99a12,12,0,0,0-12,12v63a12,12,0,0,0,12,12h396a12,12,0,0,0,12-12v-63a12,12,0,0,0-12-12Z"/><path class="cls-1" d="M769.5,525.72h-396a24,24,0,0,1-24-24v-63a24,24,0,0,1,24-24h396a24,24,0,0,1,24,24v63A24,24,0,0,1,769.5,525.72Zm-396-99a12,12,0,0,0-12,12v63a12,12,0,0,0,12,12h396a12,12,0,0,0,12-12v-63a12,12,0,0,0-12-12Z"/><path class="cls-1" d="M769.5,624.72h-396a24,24,0,0,1-24-24v-63a24,24,0,0,1,24-24h396a24,24,0,0,1,24,24v63A24,24,0,0,1,769.5,624.72Zm-396-99a12,12,0,0,0-12,12v63a12,12,0,0,0,12,12h396a12,12,0,0,0,12-12v-63a12,12,0,0,0-12-12Z"/><circle class="cls-1" cx="414" cy="470.22" r="9"/><path class="cls-1" d="M441,493.22H414a23,23,0,0,1,0-46h27a23,23,0,0,1,0,46Zm-27-36a13,13,0,0,0,0,26h27a13,13,0,0,0,0-26Z"/><circle class="cls-1" cx="414" cy="569.22" r="9"/><path class="cls-1" d="M441,592.22H414a23,23,0,0,1,0-46h27a23,23,0,0,1,0,46Zm-27-36a13,13,0,0,0,0,26h27a13,13,0,0,0,0-26Z"/><path class="cls-1" d="M441,353.28H414a18,18,0,0,0,0,36h27a18,18,0,0,0,0-36Z"/><path class="cls-1" d="M441,394.28H414a23,23,0,0,1,0-46h27a23,23,0,0,1,0,46Zm-27-36a13,13,0,0,0,0,26h27a13,13,0,0,0,0-26Z"/><circle class="cls-2" cx="441" cy="371.28" r="9"/><path class="cls-1" d="M769.5,624.72h-396a24,24,0,0,1-24-24v-63a24,24,0,0,1,24-24h396a24,24,0,0,1,24,24v63A24,24,0,0,1,769.5,624.72Zm-396-99a12,12,0,0,0-12,12v63a12,12,0,0,0,12,12h396a12,12,0,0,0,12-12v-63a12,12,0,0,0-12-12Z"/><path class="cls-1" d="M810,851.94a5,5,0,0,1-5-5V713.7a140.48,140.48,0,0,0-34.6-92.32,5,5,0,0,1,7.54-6.58A150.55,150.55,0,0,1,815,713.7V846.94A5,5,0,0,1,810,851.94Z"/><path class="cls-1" d="M680.13,729H445.68a22.53,22.53,0,0,1-22.5-22.5V618.72a4.51,4.51,0,0,1,4.5-4.5H612.73a4.51,4.51,0,0,1,4.07,6.44,29.09,29.09,0,0,0,5,32.36l61.66,68.47a4.5,4.5,0,0,1-3.35,7.51ZM432.18,623.22V706.5a13.52,13.52,0,0,0,13.5,13.5H670l-54.83-60.9a38.13,38.13,0,0,1-8.9-35.88Z"/><path class="cls-1" d="M715.69,676.26a4.5,4.5,0,0,1-3.19-1.32l-53-53a4.5,4.5,0,0,1,3.18-7.69h53a4.5,4.5,0,0,1,4.5,4.5v53a4.48,4.48,0,0,1-4.49,4.5Zm-42.18-53,37.67,37.68V623.22Z"/><path class="cls-1" d="M681.69,827a5,5,0,0,1-3.79-1.74,78.37,78.37,0,0,1-2.79-98.86l-60.29-66.95a38.6,38.6,0,0,1-6.6-42.87,5,5,0,0,1,4.51-2.85h49.92a5,5,0,0,1,3.54,1.47l87.4,87.41a5,5,0,1,1-7.07,7.07l-85.94-85.95H616.07a28.62,28.62,0,0,0,6.12,28.95l63.22,70.21a5,5,0,0,1,.07,6.61,68.35,68.35,0,0,0,0,89.23,5,5,0,0,1-.53,7A4.94,4.94,0,0,1,681.69,827Z"/><path class="cls-1" d="M553.06,274.93a3.39,3.39,0,0,1-4.18-.47L536.25,262a1.77,1.77,0,0,1,.78-3l63.79-17.41a1.48,1.48,0,0,1,1.18,2.68Zm.12,8.93a.92.92,0,0,0-1.56.65l-.11,15.2a1.76,1.76,0,0,0,1.1,1.66,1.74,1.74,0,0,0,.67.13,1.76,1.76,0,0,0,1.28-.55l7.77-8.13Zm52.06-37.64L556.05,277a2.72,2.72,0,0,0-.45,4.24l9.18,9h0l4.09,4a1.77,1.77,0,0,0,2.64-.17l35.64-45.72A1.46,1.46,0,0,0,605.24,246.22Z"/><path class="cls-1" d="M495.45,480.19a16.3,16.3,0,0,1,0-20.56,11.94,11.94,0,0,1,9.22-4,11.54,11.54,0,0,1,7.76,2.55,11.36,11.36,0,0,1,3.81,6.81h-5.72a5.83,5.83,0,0,0-5.85-4.23,6,6,0,0,0-5.13,2.55,12.4,12.4,0,0,0,0,13.16,6,6,0,0,0,5.13,2.56q4.27,0,5.85-4.27h5.72a11.41,11.41,0,0,1-3.81,6.86,11.53,11.53,0,0,1-7.76,2.54A11.93,11.93,0,0,1,495.45,480.19Z"/><path class="cls-1" d="M538.47,473.69a10.61,10.61,0,0,1-2.75,7.56,10.12,10.12,0,0,1-14.22,0,11.87,11.87,0,0,1,0-15.17,10.12,10.12,0,0,1,14.22,0A10.68,10.68,0,0,1,538.47,473.69Zm-5.54,0a7,7,0,0,0-1.15-4.21,3.94,3.94,0,0,0-6.34,0,7,7,0,0,0-1.15,4.21,6.92,6.92,0,0,0,1.15,4.16,3.94,3.94,0,0,0,6.34,0A6.92,6.92,0,0,0,532.93,473.69Z"/><path class="cls-1" d="M542,483.72V463.61h5.58v1.84a7.65,7.65,0,0,1,10.64-.27,7.63,7.63,0,0,1,1.87,5.4v13.14h-5.58v-12a3.83,3.83,0,0,0-.83-2.58,3,3,0,0,0-2.45-1,3.84,3.84,0,0,0-2.32.74A3.45,3.45,0,0,0,547.6,471v12.73Z"/><path class="cls-1" d="M566,477.65v-9.54H562.9v-4.5H566v-5.45h5.54v5.45h4.41v4.5H571.5v8.82a2,2,0,0,0,2.29,2.29,4.35,4.35,0,0,0,2.43-.67v4.95a7.89,7.89,0,0,1-3.6.63,7,7,0,0,1-4.9-1.62A6.3,6.3,0,0,1,566,477.65Z"/><path class="cls-1" d="M596.47,483.72h-5.35v-1.08a5,5,0,0,1-1.94,1,9.62,9.62,0,0,1-3,.45,8.11,8.11,0,0,1-5.33-1.75,5.83,5.83,0,0,1-2.14-4.77,5.69,5.69,0,0,1,2.23-4.64,8.54,8.54,0,0,1,5.56-1.8,10.12,10.12,0,0,1,2.61.36,6.34,6.34,0,0,1,2,.81v-1.48a3.11,3.11,0,0,0-.84-2.23,3.23,3.23,0,0,0-2.45-.88,2.86,2.86,0,0,0-3,1.89h-5.31a7.14,7.14,0,0,1,2.77-4.61,8.94,8.94,0,0,1,5.69-1.82,8.83,8.83,0,0,1,6.23,2,7.32,7.32,0,0,1,2.23,5.69Zm-5.35-5.49v-1.44a2.64,2.64,0,0,0-1.38-1.28,5.36,5.36,0,0,0-2.27-.47,4.81,4.81,0,0,0-2.5.63,2.16,2.16,0,0,0,0,3.69,4.76,4.76,0,0,0,2.52.63,5.36,5.36,0,0,0,2.27-.47A2.65,2.65,0,0,0,591.12,478.23Z"/><path class="cls-1" d="M599.75,473.69a10.78,10.78,0,0,1,2.7-7.61,10,10,0,0,1,13-.94,8.05,8.05,0,0,1,2.79,5.26h-5.49a2.87,2.87,0,0,0-1.1-1.82,3.68,3.68,0,0,0-2.23-.65,3.53,3.53,0,0,0-3,1.57,7.07,7.07,0,0,0-1.12,4.19,7,7,0,0,0,1.12,4.14,3.53,3.53,0,0,0,3,1.57,3.62,3.62,0,0,0,2.23-.65,2.85,2.85,0,0,0,1.1-1.82h5.49a8.07,8.07,0,0,1-2.77,5.26,10,10,0,0,1-13-.94A10.71,10.71,0,0,1,599.75,473.69Z"/><path class="cls-1" d="M623.06,477.65v-9.54H620v-4.5h3.06v-5.45h5.54v5.45H633v4.5H628.6v8.82a2,2,0,0,0,2.29,2.29,4.35,4.35,0,0,0,2.43-.67v4.95a7.89,7.89,0,0,1-3.6.63,7,7,0,0,1-4.9-1.62A6.3,6.3,0,0,1,623.06,477.65Z"/><path class="cls-1" d="M635.89,477.74h5.53c.45,1.47,1.58,2.2,3.38,2.2s2.83-.66,2.83-2a1.25,1.25,0,0,0-.47-1,4,4,0,0,0-1.55-.66l-4.05-.9q-5.22-1.22-5.22-5.67a5.73,5.73,0,0,1,2.29-4.7,8.94,8.94,0,0,1,5.72-1.82,9.43,9.43,0,0,1,5.87,1.64,7.16,7.16,0,0,1,2.68,4.57h-5.31q-.63-2-3.15-2a3.45,3.45,0,0,0-1.87.49,1.58,1.58,0,0,0-.79,1.4c0,.75.6,1.27,1.8,1.57l4.14.95q5.35,1.31,5.36,5.85a5.65,5.65,0,0,1-2.32,4.77,9.53,9.53,0,0,1-5.92,1.75,10.39,10.39,0,0,1-6.12-1.68A6.77,6.77,0,0,1,635.89,477.74Z"/><path class="cls-1" d="M506.2,555.09h4.5l4.77,18.59L520,555.09h5.67l-7.2,27.63h-5.27l-4.86-18.22-4.86,18.22h-5.26L491,555.09h5.8l4.5,18.59Z"/><path class="cls-1" d="M534.73,556.8a3,3,0,0,1-1,2.3,3.26,3.26,0,0,1-2.31.9,3.37,3.37,0,0,1-2.37-.9,3,3,0,0,1-1-2.3,3,3,0,0,1,1-2.27,3.32,3.32,0,0,1,2.34-.92,3.23,3.23,0,0,1,2.31.92A3,3,0,0,1,534.73,556.8Zm-.49,5.81v20.11h-5.58V562.61Z"/><path class="cls-1" d="M538.38,573.36V568.5h10.84v4.86Z"/><path class="cls-1" d="M559.3,582.72h-5.71V555.09H572v5H559.3v7h11.75v5H559.3Z"/><path class="cls-1" d="M582,556.8a3,3,0,0,1-1,2.3,3.28,3.28,0,0,1-2.32.9,3.34,3.34,0,0,1-2.36-.9,3,3,0,0,1-1-2.3,3,3,0,0,1,1-2.27,3.36,3.36,0,0,1,2.34-.92,3.26,3.26,0,0,1,2.32.92A3,3,0,0,1,582,556.8Zm-.5,5.81v20.11H575.9V562.61Z"/><path class="cls-1" d="M608.8,582.72v-1.66a5.89,5.89,0,0,1-2.12,1.48,7,7,0,0,1-2.92.63,8.15,8.15,0,0,1-6.68-3,11.39,11.39,0,0,1-2.46-7.49,11.51,11.51,0,0,1,2.46-7.52,8.14,8.14,0,0,1,6.68-3,7,7,0,0,1,2.92.63,5.89,5.89,0,0,1,2.12,1.48v-10.8h5.62v29.25Zm0-6.75v-6.61a4.07,4.07,0,0,0-1.53-1.69A4.18,4.18,0,0,0,605,567a4.29,4.29,0,0,0-3.51,1.6,6.21,6.21,0,0,0-1.31,4.07,6.14,6.14,0,0,0,1.31,4,4.32,4.32,0,0,0,3.51,1.57A4.17,4.17,0,0,0,608.8,576Z"/><path class="cls-1" d="M631.48,576.15h5.17a8.06,8.06,0,0,1-2.85,5.16,9.41,9.41,0,0,1-6.06,1.86,9.17,9.17,0,0,1-7.06-2.9,10.67,10.67,0,0,1-2.7-7.58,10.81,10.81,0,0,1,2.72-7.54,9,9,0,0,1,6.95-3,8.52,8.52,0,0,1,6.73,2.72,10.56,10.56,0,0,1,2.41,7.27v1.71H623.38a5.54,5.54,0,0,0,1.3,3.53,3.93,3.93,0,0,0,3.06,1.28Q630.8,578.67,631.48,576.15Zm-3.78-9.45q-3.42,0-4.19,3.78h7.79a4.11,4.11,0,0,0-1-2.72A3.34,3.34,0,0,0,627.7,566.7Z"/><path class="cls-1" d="M641.56,576.65v-9.54H638.5v-4.5h3.06v-5.45h5.53v5.45h4.41v4.5h-4.41v8.82a2,2,0,0,0,2.3,2.29,4.35,4.35,0,0,0,2.43-.67v5a7.89,7.89,0,0,1-3.6.63,7,7,0,0,1-4.91-1.62A6.29,6.29,0,0,1,641.56,576.65Z"/><path class="cls-1" d="M672.07,582.72h-5.36v-1.08a4.93,4.93,0,0,1-1.93,1,9.62,9.62,0,0,1-3,.45,8.11,8.11,0,0,1-5.33-1.75,5.83,5.83,0,0,1-2.14-4.77,5.69,5.69,0,0,1,2.23-4.64,8.53,8.53,0,0,1,5.55-1.8,10.12,10.12,0,0,1,2.61.36,6.34,6.34,0,0,1,2,.81v-1.48a3.1,3.1,0,0,0-.83-2.23,3.23,3.23,0,0,0-2.45-.88,2.86,2.86,0,0,0-3,1.89h-5.31a7.14,7.14,0,0,1,2.77-4.61,8.94,8.94,0,0,1,5.69-1.82,8.83,8.83,0,0,1,6.23,2.05,7.32,7.32,0,0,1,2.23,5.69Zm-5.36-5.49v-1.44a2.62,2.62,0,0,0-1.37-1.28,5.36,5.36,0,0,0-2.27-.47,4.81,4.81,0,0,0-2.5.63,2.15,2.15,0,0,0,0,3.69,4.76,4.76,0,0,0,2.52.63,5.36,5.36,0,0,0,2.27-.47A2.63,2.63,0,0,0,666.71,577.23Z"/><path class="cls-1" d="M682.69,556.8a3,3,0,0,1-1,2.3,3.49,3.49,0,0,1-4.68,0,3.15,3.15,0,0,1,0-4.57,3.34,3.34,0,0,1,2.34-.92,3.27,3.27,0,0,1,2.32.92A3,3,0,0,1,682.69,556.8Zm-.5,5.81v20.11h-5.58V562.61Z"/><path class="cls-1" d="M692.63,553.47v29.25h-5.58V553.47Z"/><path class="cls-1" d="M696.19,576.74h5.53c.45,1.47,1.58,2.2,3.38,2.2s2.83-.66,2.83-2a1.25,1.25,0,0,0-.47-1.05,4.06,4.06,0,0,0-1.55-.66l-4-.9q-5.22-1.22-5.22-5.67a5.73,5.73,0,0,1,2.29-4.7,8.94,8.94,0,0,1,5.72-1.82,9.45,9.45,0,0,1,5.87,1.64,7.21,7.21,0,0,1,2.68,4.57h-5.31q-.63-2-3.15-2a3.43,3.43,0,0,0-1.87.49,1.56,1.56,0,0,0-.79,1.4c0,.75.6,1.27,1.8,1.57l4.14.95q5.36,1.31,5.36,5.85a5.68,5.68,0,0,1-2.32,4.77,9.55,9.55,0,0,1-5.92,1.75,10.39,10.39,0,0,1-6.12-1.68A6.77,6.77,0,0,1,696.19,576.74Z"/><path class="cls-1" d="M498.91,357.09v27.63h-5.76V357.09Z"/><path class="cls-1" d="M516.87,384.72v-1.66a5.89,5.89,0,0,1-2.12,1.48,7,7,0,0,1-2.92.63,8.18,8.18,0,0,1-6.69-3,11.44,11.44,0,0,1-2.45-7.49,11.56,11.56,0,0,1,2.45-7.52,8.17,8.17,0,0,1,6.69-3,7,7,0,0,1,2.92.63,5.89,5.89,0,0,1,2.12,1.48v-10.8h5.62v29.25Zm0-6.75v-6.61a4.07,4.07,0,0,0-1.53-1.69,4.18,4.18,0,0,0-2.25-.65,4.29,4.29,0,0,0-3.51,1.6,6.21,6.21,0,0,0-1.31,4.07,6.14,6.14,0,0,0,1.31,4.05,4.32,4.32,0,0,0,3.51,1.57,4.17,4.17,0,0,0,3.78-2.34Z"/><path class="cls-1" d="M539.55,378.15h5.17a8,8,0,0,1-2.86,5.16,9.36,9.36,0,0,1-6.05,1.86,9.17,9.17,0,0,1-7.06-2.9,11.9,11.9,0,0,1,0-15.12,9,9,0,0,1,7-3,8.54,8.54,0,0,1,6.73,2.72,10.61,10.61,0,0,1,2.41,7.27v1.71H531.45a5.54,5.54,0,0,0,1.3,3.53,3.93,3.93,0,0,0,3.06,1.28Q538.87,380.67,539.55,378.15Zm-3.78-9.45q-3.42,0-4.19,3.78h7.79a4.11,4.11,0,0,0-1-2.72A3.34,3.34,0,0,0,535.77,368.7Z"/><path class="cls-1" d="M548.41,384.72V364.61H554v1.84a7.65,7.65,0,0,1,10.64-.27,7.63,7.63,0,0,1,1.87,5.4v13.14h-5.58v-12a3.83,3.83,0,0,0-.83-2.58,3,3,0,0,0-2.45-1,3.82,3.82,0,0,0-2.32.74A3.45,3.45,0,0,0,554,372v12.73Z"/><path class="cls-1" d="M572.35,378.65v-9.54h-3.06v-4.5h3.06v-5.45h5.54v5.45h4.41v4.5h-4.41v8.82a2,2,0,0,0,2.29,2.29,4.35,4.35,0,0,0,2.43-.67v4.95a7.89,7.89,0,0,1-3.6.63,7,7,0,0,1-4.9-1.62A6.3,6.3,0,0,1,572.35,378.65Z"/><path class="cls-1" d="M592.73,358.8a3,3,0,0,1-1,2.3,3.49,3.49,0,0,1-4.68,0,3.15,3.15,0,0,1,0-4.57,3.34,3.34,0,0,1,2.34-.92,3.27,3.27,0,0,1,2.32.92A3,3,0,0,1,592.73,358.8Zm-.49,5.81v20.11h-5.58V364.61Z"/><path class="cls-1" d="M598.31,378.65v-9.54h-3.06v-4.5h3.06v-5.45h5.54v5.45h4.41v4.5h-4.41v8.82a2,2,0,0,0,2.29,2.29,4.35,4.35,0,0,0,2.43-.67v4.95a7.89,7.89,0,0,1-3.6.63,7,7,0,0,1-4.9-1.62A6.3,6.3,0,0,1,598.31,378.65Z"/><path class="cls-1" d="M620.59,392.15H615.1l2.92-7.34-7.69-20.2h5.89L620.86,378l4.59-13.36h5.62Z"/></svg>