<svg id="OUTLINES" xmlns="http://www.w3.org/2000/svg" viewBox="0 0 1152 1008"><defs><style>.cls-1{fill:#fff;}.cls-2{fill:#000f7d;}</style></defs><title>upcoming-decision-notice</title><path class="cls-1" d="M786.5,524.16h-252a24,24,0,0,0-24,24v63a24,24,0,0,0,24,24H761a11.91,11.91,0,0,1,8.49,3.51l30.73,30.73a6,6,0,0,0,10.24-4.24v-117A24,24,0,0,0,786.5,524.16Z"/><path class="cls-1" d="M782,249.5H386a24,24,0,0,0-24,24v261a6,6,0,0,0,10.24,4.24L403,508a12,12,0,0,1,8.49-3.51H782a24,24,0,0,0,24-24v-207A24,24,0,0,0,782,249.5Z"/><path class="cls-2" d="M576.17,693.5a23,23,0,1,1,23-23A23,23,0,0,1,576.17,693.5Zm0-36a13,13,0,1,0,13,13A13,13,0,0,0,576.17,657.5Z"/><path class="cls-2" d="M423.89,300.52v4.81h8.45v6.41h-8.45v4q0,4.16-1.39,6h18.22v6.8H411.28v-6.8h3.43a12,12,0,0,0,1.32-6v-4h-4.75v-6.41H416v-4.68a13.61,13.61,0,0,1,3.47-9.54,12.12,12.12,0,0,1,21.28,7.16h-7.59q-.39-4-4.42-4a4.23,4.23,0,0,0-3.63,1.71A7.6,7.6,0,0,0,423.89,300.52Z"/><path class="cls-2" d="M465.93,288l-13.2,25.54h9v-8.38h7.52v8.38h6.14v6.93h-6.14v8.05h-7.52v-8.05h-18v-6.07l14-26.4Z"/><path class="cls-2" d="M507.91,298.21h-8.19a5.15,5.15,0,0,0-5.34-4,6.51,6.51,0,0,0-5.68,3.43,14.49,14.49,0,0,0-2.18,7.92v.59a7.34,7.34,0,0,1,3.3-3.1A11.27,11.27,0,0,1,495,301.9a12.55,12.55,0,0,1,9.57,3.86,13.36,13.36,0,0,1,3.63,9.47,13.74,13.74,0,0,1-3.87,9.94q-3.86,4-10.46,4a13.12,13.12,0,0,1-12.27-7.33q-2.83-4.95-2.84-12.73,0-9.64,4.19-15.71a13.08,13.08,0,0,1,11.32-6.07,12.75,12.75,0,0,1,13.6,10.89Zm-20.66,17.22a6.73,6.73,0,0,0,1.84,4.92,6.59,6.59,0,0,0,4.89,1.88,6.47,6.47,0,0,0,4.78-1.88,6.64,6.64,0,0,0,1.89-4.92,7,7,0,0,0-1.85-5.08,6.39,6.39,0,0,0-4.82-1.91,6.49,6.49,0,0,0-4.89,1.91A7,7,0,0,0,487.25,315.43Z"/><path class="cls-2" d="M513,327.44a5.15,5.15,0,0,1-1.48-3.76A5.06,5.06,0,0,1,513,320a5.28,5.28,0,0,1,7.33,0,5.07,5.07,0,0,1,1.49,3.73,5.16,5.16,0,0,1-1.49,3.76,5.18,5.18,0,0,1-7.33,0Z"/><path class="cls-2" d="M536.68,311.14v-6.53H539a6.91,6.91,0,0,0,4.39-1.32,4.51,4.51,0,0,0,1.68-3.76,4.86,4.86,0,0,0-1.42-3.6,5.19,5.19,0,0,0-3.86-1.42,5.67,5.67,0,0,0-4.19,1.55,6.16,6.16,0,0,0-1.75,4h-8.18a14.18,14.18,0,0,1,4.42-9.14,13.68,13.68,0,0,1,9.77-3.59q6.07,0,9.63,3.26a11.05,11.05,0,0,1,3.57,8.55,10.37,10.37,0,0,1-1.39,5.31,8.3,8.3,0,0,1-3.56,3.47,9,9,0,0,1,4.16,3.56,10,10,0,0,1,1.45,5.28,11.65,11.65,0,0,1-3.76,8.91q-3.76,3.49-10.1,3.5a15.33,15.33,0,0,1-10.56-3.63,13.21,13.21,0,0,1-4.42-9.57h8.31a7,7,0,0,0,2,4.39,6.32,6.32,0,0,0,4.58,1.61,6.08,6.08,0,0,0,4.23-1.48,5.34,5.34,0,0,0-.14-7.85,7,7,0,0,0-4.62-1.49Z"/><path class="cls-2" d="M574.3,288V328.5h-8.25V297.61l-9.44,4.69v-8.25L569,288Z"/><path class="cls-2" d="M424.9,351.62l3,11.4,3.2-11.4h4.8l-5.44,17.88h-4.56l-2.92-11-2.92,11h-4.56L410,351.62h5l3.2,11.4,2.92-11.4Z"/><path class="cls-2" d="M443.94,346.46a2.67,2.67,0,0,1-.86,2,2.93,2.93,0,0,1-2.06.8,3,3,0,0,1-2.1-.8,2.8,2.8,0,0,1,0-4.06,2.94,2.94,0,0,1,2.08-.82,2.86,2.86,0,0,1,2.06.82A2.7,2.7,0,0,1,443.94,346.46Zm-.44,5.16V369.5h-5V351.62Z"/><path class="cls-2" d="M452.78,343.5v26h-5v-26Z"/><path class="cls-2" d="M462.06,343.5v26h-5v-26Z"/><path class="cls-2" d="M479.82,368v1.48h-5v-26h5v9.6a5.14,5.14,0,0,1,1.88-1.32,6.3,6.3,0,0,1,2.6-.56,7.23,7.23,0,0,1,5.94,2.68,11.29,11.29,0,0,1,0,13.34,7.27,7.27,0,0,1-5.94,2.66,6.3,6.3,0,0,1-2.6-.56A5.14,5.14,0,0,1,479.82,368Zm0-10.4v5.88a3.71,3.71,0,0,0,3.36,2.08,3.84,3.84,0,0,0,3.12-1.4,5.46,5.46,0,0,0,1.16-3.6A5.55,5.55,0,0,0,486.3,357a3.8,3.8,0,0,0-3.12-1.42,3.77,3.77,0,0,0-3.36,2.08Z"/><path class="cls-2" d="M506.66,363.66h4.6a7.14,7.14,0,0,1-2.54,4.58,8.31,8.31,0,0,1-5.38,1.66,8.17,8.17,0,0,1-6.28-2.58,10.57,10.57,0,0,1,0-13.44,8,8,0,0,1,6.18-2.66,7.58,7.58,0,0,1,6,2.42,9.43,9.43,0,0,1,2.14,6.46v1.52H499.46a4.92,4.92,0,0,0,1.16,3.14,3.5,3.5,0,0,0,2.72,1.14C505.15,365.9,506.26,365.15,506.66,363.66Zm-3.36-8.4q-3,0-3.72,3.36h6.92a3.67,3.67,0,0,0-.88-2.42A3,3,0,0,0,503.3,355.26Z"/><path class="cls-2" d="M537.7,369.5h-4.76v-1a4.5,4.5,0,0,1-1.72.88,8.48,8.48,0,0,1-2.64.4,7.2,7.2,0,0,1-4.74-1.56,5.18,5.18,0,0,1-1.9-4.24,5.06,5.06,0,0,1,2-4.12,7.58,7.58,0,0,1,4.94-1.6,9.18,9.18,0,0,1,2.32.32,5.54,5.54,0,0,1,1.76.72V358a2.78,2.78,0,0,0-.74-2,2.86,2.86,0,0,0-2.18-.78,2.54,2.54,0,0,0-2.64,1.68h-4.72a6.35,6.35,0,0,1,2.46-4.1,9,9,0,0,1,10.6.2,6.52,6.52,0,0,1,2,5.06Zm-4.76-4.88v-1.28a2.36,2.36,0,0,0-1.22-1.14,4.74,4.74,0,0,0-2-.42,4.26,4.26,0,0,0-2.22.56,1.91,1.91,0,0,0,0,3.28,4.25,4.25,0,0,0,2.24.56,4.74,4.74,0,0,0,2-.42A2.36,2.36,0,0,0,532.94,364.62Z"/><path class="cls-2" d="M557.58,351.62V369.5h-5v-1.64a6.17,6.17,0,0,1-4.8,2,6,6,0,0,1-4.62-1.8,6.79,6.79,0,0,1-1.66-4.8V351.62h5V362.3a3.45,3.45,0,0,0,.72,2.32,2.69,2.69,0,0,0,2.16.84,3.32,3.32,0,0,0,2-.66,3.16,3.16,0,0,0,1.16-1.82V351.62Z"/><path class="cls-2" d="M562.94,364.1v-8.48h-2.72v-4h2.72v-4.84h4.92v4.84h3.92v4h-3.92v7.84a1.8,1.8,0,0,0,2,2,3.9,3.9,0,0,0,2.16-.6v4.4a7.08,7.08,0,0,1-3.2.56,6.18,6.18,0,0,1-4.36-1.44A5.6,5.6,0,0,1,562.94,364.1Z"/><path class="cls-2" d="M591.9,360.58a9.44,9.44,0,0,1-2.44,6.72,9,9,0,0,1-12.64,0,10.53,10.53,0,0,1,0-13.48,9,9,0,0,1,12.64,0A9.51,9.51,0,0,1,591.9,360.58Zm-4.92,0a6.27,6.27,0,0,0-1-3.74,3.51,3.51,0,0,0-5.64,0,6.27,6.27,0,0,0-1,3.74,6.21,6.21,0,0,0,1,3.7,3.51,3.51,0,0,0,5.64,0A6.21,6.21,0,0,0,587,360.58Z"/><path class="cls-2" d="M609.34,353.5a7,7,0,0,1,5.4-2.28,5.43,5.43,0,0,1,4.32,1.78,7.06,7.06,0,0,1,1.56,4.82V369.5h-5V358.86a3.74,3.74,0,0,0-.66-2.34,2.27,2.27,0,0,0-1.9-.86,2.74,2.74,0,0,0-1.76.6,2.84,2.84,0,0,0-1,1.72V369.5h-5V358.86c0-2.13-.84-3.2-2.52-3.2a2.79,2.79,0,0,0-1.78.62,2.88,2.88,0,0,0-1,1.7V369.5h-5V351.62h5v1.48a5.4,5.4,0,0,1,4.52-1.88A5.68,5.68,0,0,1,609.34,353.5Z"/><path class="cls-2" d="M639.42,369.5h-4.76v-1a4.5,4.5,0,0,1-1.72.88,8.48,8.48,0,0,1-2.64.4,7.2,7.2,0,0,1-4.74-1.56,5.18,5.18,0,0,1-1.9-4.24,5.06,5.06,0,0,1,2-4.12,7.58,7.58,0,0,1,4.94-1.6,9.18,9.18,0,0,1,2.32.32,5.54,5.54,0,0,1,1.76.72V358a2.78,2.78,0,0,0-.74-2,2.88,2.88,0,0,0-2.18-.78,2.54,2.54,0,0,0-2.64,1.68h-4.72a6.31,6.31,0,0,1,2.46-4.1,9,9,0,0,1,10.6.2,6.52,6.52,0,0,1,2,5.06Zm-4.76-4.88v-1.28a2.36,2.36,0,0,0-1.22-1.14,4.74,4.74,0,0,0-2-.42,4.26,4.26,0,0,0-2.22.56,1.91,1.91,0,0,0,0,3.28,4.25,4.25,0,0,0,2.24.56,4.74,4.74,0,0,0,2-.42A2.36,2.36,0,0,0,634.66,364.62Z"/><path class="cls-2" d="M644.38,364.1v-8.48h-2.72v-4h2.72v-4.84h4.92v4.84h3.92v4H649.3v7.84a1.8,1.8,0,0,0,2,2,3.9,3.9,0,0,0,2.16-.6v4.4a7.08,7.08,0,0,1-3.2.56,6.18,6.18,0,0,1-4.36-1.44A5.6,5.6,0,0,1,644.38,364.1Z"/><path class="cls-2" d="M662.5,346.46a2.67,2.67,0,0,1-.86,2,3.1,3.1,0,0,1-4.16,0,2.8,2.8,0,0,1,0-4.06,2.92,2.92,0,0,1,2.08-.82,2.88,2.88,0,0,1,2.06.82A2.7,2.7,0,0,1,662.5,346.46Zm-.44,5.16V369.5h-5V351.62Z"/><path class="cls-2" d="M665.25,360.58a9.53,9.53,0,0,1,2.41-6.76,8.83,8.83,0,0,1,11.55-.84,7.16,7.16,0,0,1,2.49,4.68h-4.89a2.53,2.53,0,0,0-1-1.62,3.19,3.19,0,0,0-2-.58,3.14,3.14,0,0,0-2.68,1.4,6.3,6.3,0,0,0-1,3.72,6.24,6.24,0,0,0,1,3.68,3.14,3.14,0,0,0,2.68,1.4,3.19,3.19,0,0,0,2-.58,2.53,2.53,0,0,0,1-1.62h4.89a7.18,7.18,0,0,1-2.47,4.68,8.86,8.86,0,0,1-11.57-.84A9.47,9.47,0,0,1,665.25,360.58Z"/><path class="cls-2" d="M699.42,369.5h-4.76v-1a4.58,4.58,0,0,1-1.72.88,8.5,8.5,0,0,1-2.65.4,7.19,7.19,0,0,1-4.73-1.56,5.18,5.18,0,0,1-1.9-4.24,5.08,5.08,0,0,1,2-4.12,7.62,7.62,0,0,1,5-1.6,9.24,9.24,0,0,1,2.32.32,5.54,5.54,0,0,1,1.76.72V358a2.78,2.78,0,0,0-.74-2,2.88,2.88,0,0,0-2.18-.78,2.56,2.56,0,0,0-2.65,1.68h-4.71a6.34,6.34,0,0,1,2.45-4.1,9,9,0,0,1,10.61.2,6.56,6.56,0,0,1,2,5.06Zm-4.76-4.88v-1.28a2.36,2.36,0,0,0-1.22-1.14,4.77,4.77,0,0,0-2-.42,4.26,4.26,0,0,0-2.22.56,1.91,1.91,0,0,0,0,3.28,4.32,4.32,0,0,0,2.25.56,4.77,4.77,0,0,0,2-.42A2.36,2.36,0,0,0,694.66,364.62Z"/><path class="cls-2" d="M708.41,343.5v26h-5v-26Z"/><path class="cls-2" d="M717.69,343.5v26h-5v-26Z"/><path class="cls-2" d="M729.49,376.1h-4.88l2.6-6.52-6.84-18h5.24l4.12,11.88,4.08-11.88h5Z"/><path class="cls-2" d="M412.74,405.1v-8.48H410v-4h2.72v-4.84h4.92v4.84h3.92v4h-3.92v7.84a1.8,1.8,0,0,0,2,2,3.85,3.85,0,0,0,2.16-.6v4.4a7,7,0,0,1-3.2.56,6.18,6.18,0,0,1-4.36-1.44A5.6,5.6,0,0,1,412.74,405.1Z"/><path class="cls-2" d="M436.3,392.54v5a4.75,4.75,0,0,0-2.48-.6,3.67,3.67,0,0,0-2.2.66,3.08,3.08,0,0,0-1.2,1.86V410.5h-5V392.62h5v1.76a4.32,4.32,0,0,1,4-2.16A4.06,4.06,0,0,1,436.3,392.54Z"/><path class="cls-2" d="M453.62,410.5h-4.76v-1a4.42,4.42,0,0,1-1.72.88,8.48,8.48,0,0,1-2.64.4,7.24,7.24,0,0,1-4.74-1.56,5.18,5.18,0,0,1-1.9-4.24,5.06,5.06,0,0,1,2-4.12,7.59,7.59,0,0,1,4.94-1.6,9.12,9.12,0,0,1,2.32.32,5.44,5.44,0,0,1,1.76.72V399a2.78,2.78,0,0,0-.74-2,2.86,2.86,0,0,0-2.18-.78,2.55,2.55,0,0,0-2.64,1.68h-4.72a6.39,6.39,0,0,1,2.46-4.1,9,9,0,0,1,10.6.2,6.52,6.52,0,0,1,2,5.06Zm-4.76-4.88v-1.28a2.32,2.32,0,0,0-1.22-1.14,4.71,4.71,0,0,0-2-.42,4.31,4.31,0,0,0-2.22.56,1.79,1.79,0,0,0-.94,1.64,1.81,1.81,0,0,0,.92,1.64,4.25,4.25,0,0,0,2.24.56,4.71,4.71,0,0,0,2-.42A2.32,2.32,0,0,0,448.86,405.62Z"/><path class="cls-2" d="M457.66,410.5V392.62h5v1.64a6.79,6.79,0,0,1,9.46-.24,6.79,6.79,0,0,1,1.66,4.8V410.5h-5V399.86a3.42,3.42,0,0,0-.74-2.3,2.74,2.74,0,0,0-2.18-.86,3.38,3.38,0,0,0-2.06.66,3.09,3.09,0,0,0-1.18,1.82V410.5Z"/><path class="cls-2" d="M476.7,405.18h4.92a2.76,2.76,0,0,0,3,2c1.68,0,2.52-.59,2.52-1.76a1.15,1.15,0,0,0-.42-.94,3.62,3.62,0,0,0-1.38-.58l-3.6-.8c-3.1-.72-4.64-2.4-4.64-5a5.09,5.09,0,0,1,2-4.18,7.91,7.91,0,0,1,5.08-1.62,8.41,8.41,0,0,1,5.22,1.46,6.4,6.4,0,0,1,2.38,4.06H487.1a2.59,2.59,0,0,0-2.8-1.76,3.07,3.07,0,0,0-1.66.44,1.38,1.38,0,0,0-.7,1.24c0,.67.53,1.13,1.6,1.4l3.68.84c3.17.77,4.76,2.51,4.76,5.2a5,5,0,0,1-2.06,4.24,8.49,8.49,0,0,1-5.26,1.56,9.18,9.18,0,0,1-5.44-1.5A6,6,0,0,1,476.7,405.18Z"/><path class="cls-2" d="M505.82,384.62v4.2a3,3,0,0,0-1.76-.48,2.17,2.17,0,0,0-2.44,2.48v1.8h3.72v4h-3.72V410.5h-4.88V396.62h-2.92v-4h2.92V390.5a5.87,5.87,0,0,1,6.32-6.36A6.83,6.83,0,0,1,505.82,384.62Z"/><path class="cls-2" d="M519,404.66h4.6a7.14,7.14,0,0,1-2.54,4.58,8.29,8.29,0,0,1-5.38,1.66,8.17,8.17,0,0,1-6.28-2.58,10.57,10.57,0,0,1,0-13.44,8,8,0,0,1,6.18-2.66,7.58,7.58,0,0,1,6,2.42,9.43,9.43,0,0,1,2.14,6.46v1.52H511.78a5,5,0,0,0,1.16,3.14,3.5,3.5,0,0,0,2.72,1.14C517.47,406.9,518.58,406.15,519,404.66Zm-3.36-8.4q-3,0-3.72,3.36h6.92a3.67,3.67,0,0,0-.88-2.42A3,3,0,0,0,515.62,396.26Z"/><path class="cls-2" d="M537.7,392.54v5a4.77,4.77,0,0,0-2.48-.6,3.65,3.65,0,0,0-2.2.66,3,3,0,0,0-1.2,1.86V410.5h-5V392.62h5v1.76a4.31,4.31,0,0,1,4-2.16A4.09,4.09,0,0,1,537.7,392.54Z"/><path class="cls-2" d="M551.34,404.66h4.6a7.14,7.14,0,0,1-2.54,4.58A8.29,8.29,0,0,1,548,410.9a8.17,8.17,0,0,1-6.28-2.58,10.57,10.57,0,0,1,0-13.44,8,8,0,0,1,6.18-2.66,7.58,7.58,0,0,1,6,2.42,9.43,9.43,0,0,1,2.14,6.46v1.52H544.14a5,5,0,0,0,1.16,3.14A3.5,3.5,0,0,0,548,406.9C549.83,406.9,550.94,406.15,551.34,404.66Zm-3.36-8.4q-3,0-3.72,3.36h6.92a3.67,3.67,0,0,0-.88-2.42A3,3,0,0,0,548,396.26Z"/><path class="cls-2" d="M570.86,410.5V409a5.23,5.23,0,0,1-1.88,1.32,6.3,6.3,0,0,1-2.6.56,7.27,7.27,0,0,1-5.94-2.66,11.29,11.29,0,0,1,0-13.34,7.23,7.23,0,0,1,5.94-2.68,6.3,6.3,0,0,1,2.6.56,5.23,5.23,0,0,1,1.88,1.32v-9.6h5v26Zm0-6v-5.88a3.62,3.62,0,0,0-1.36-1.5,3.67,3.67,0,0,0-2-.58,3.8,3.8,0,0,0-3.12,1.42,5.55,5.55,0,0,0-1.16,3.62,5.46,5.46,0,0,0,1.16,3.6,3.84,3.84,0,0,0,3.12,1.4,3.71,3.71,0,0,0,3.36-2.08Z"/><path class="cls-2" d="M589.7,405.1v-8.48H587v-4h2.72v-4.84h4.92v4.84h3.92v4h-3.92v7.84a1.8,1.8,0,0,0,2,2,3.9,3.9,0,0,0,2.16-.6v4.4a7.08,7.08,0,0,1-3.2.56,6.18,6.18,0,0,1-4.36-1.44A5.6,5.6,0,0,1,589.7,405.1Z"/><path class="cls-2" d="M618.66,401.58a9.44,9.44,0,0,1-2.44,6.72,9,9,0,0,1-12.64,0,10.53,10.53,0,0,1,0-13.48,9,9,0,0,1,12.64,0A9.51,9.51,0,0,1,618.66,401.58Zm-4.92,0a6.27,6.27,0,0,0-1-3.74,3.51,3.51,0,0,0-5.64,0,6.27,6.27,0,0,0-1,3.74,6.21,6.21,0,0,0,1,3.7,3.51,3.51,0,0,0,5.64,0A6.21,6.21,0,0,0,613.74,401.58Z"/><path class="cls-2" d="M417,426.94l-2.84,4.4a3,3,0,0,1,1.76,1,2.8,2.8,0,0,1,.68,1.92,2.88,2.88,0,0,1-.9,2.18,3.1,3.1,0,0,1-2.22.86,3.06,3.06,0,0,1-2.26-.9,3.37,3.37,0,0,1-.9-2.5,6.61,6.61,0,0,1,1.32-3.6l2.2-3.32Zm7.8,0-2.84,4.4a3,3,0,0,1,1.76,1,2.8,2.8,0,0,1,.68,1.92,2.88,2.88,0,0,1-.9,2.18,3.1,3.1,0,0,1-2.22.86,3.06,3.06,0,0,1-2.26-.9,3.37,3.37,0,0,1-.9-2.5,6.61,6.61,0,0,1,1.32-3.6l2.2-3.32Z"/><path class="cls-2" d="M426.22,444.5h5.28c.67,2.11,2.29,3.16,4.88,3.16a5,5,0,0,0,3-.82,2.67,2.67,0,0,0,1.12-2.26,2.25,2.25,0,0,0-.7-1.76,5,5,0,0,0-2.3-1l-4.4-1q-6.24-1.4-6.24-6.72a6.84,6.84,0,0,1,2.48-5.44,9.45,9.45,0,0,1,6.36-2.12,10.29,10.29,0,0,1,6.54,1.94,8.46,8.46,0,0,1,3.1,5.18h-5.08q-1-2.93-4.52-2.92a4.64,4.64,0,0,0-2.82.78,2.47,2.47,0,0,0-1.06,2.1c0,1.36.92,2.25,2.76,2.68l4.48,1q6.43,1.49,6.44,6.92a6.79,6.79,0,0,1-2.56,5.56,10.07,10.07,0,0,1-6.56,2.08,11.37,11.37,0,0,1-6.84-2A8.31,8.31,0,0,1,426.22,444.5Z"/><path class="cls-2" d="M463.62,451.5h-4.76v-1a4.42,4.42,0,0,1-1.72.88,8.48,8.48,0,0,1-2.64.4,7.24,7.24,0,0,1-4.74-1.56,5.18,5.18,0,0,1-1.9-4.24,5.06,5.06,0,0,1,2-4.12,7.59,7.59,0,0,1,4.94-1.6,9.12,9.12,0,0,1,2.32.32,5.44,5.44,0,0,1,1.76.72V440a2.78,2.78,0,0,0-.74-2,2.86,2.86,0,0,0-2.18-.78,2.55,2.55,0,0,0-2.64,1.68h-4.72a6.39,6.39,0,0,1,2.46-4.1,9,9,0,0,1,10.6.2,6.52,6.52,0,0,1,2,5.06Zm-4.76-4.88v-1.28a2.32,2.32,0,0,0-1.22-1.14,4.71,4.71,0,0,0-2-.42,4.31,4.31,0,0,0-2.22.56,1.79,1.79,0,0,0-.94,1.64,1.81,1.81,0,0,0,.92,1.64,4.25,4.25,0,0,0,2.24.56,4.71,4.71,0,0,0,2-.42A2.32,2.32,0,0,0,458.86,446.62Z"/><path class="cls-2" d="M477.06,451.5h-4.8l-6.76-17.88h5.2l4.12,11.88,4-11.88h5Z"/><path class="cls-2" d="M491.94,428.46a2.67,2.67,0,0,1-.86,2,3.1,3.1,0,0,1-4.16,0,2.8,2.8,0,0,1,0-4.06,2.94,2.94,0,0,1,2.08-.82,2.88,2.88,0,0,1,2.06.82A2.7,2.7,0,0,1,491.94,428.46Zm-.44,5.16V451.5h-5V433.62Z"/><path class="cls-2" d="M495.82,451.5V433.62h5v1.64a6.79,6.79,0,0,1,9.46-.24,6.83,6.83,0,0,1,1.66,4.8V451.5h-5V440.86a3.42,3.42,0,0,0-.74-2.3,2.74,2.74,0,0,0-2.18-.86,3.38,3.38,0,0,0-2.06.66,3,3,0,0,0-1.18,1.82V451.5Z"/><path class="cls-2" d="M527.42,450.3v-1a5.38,5.38,0,0,1-4.4,1.84,7.36,7.36,0,0,1-5.92-2.6,10.24,10.24,0,0,1,0-12.68,7.36,7.36,0,0,1,5.92-2.6,5.51,5.51,0,0,1,4.4,1.8v-1.4h4.92v15.92q0,4.44-2.4,6.7a8.88,8.88,0,0,1-6.36,2.26,9.19,9.19,0,0,1-5.7-1.68,6.69,6.69,0,0,1-2.62-4.68h4.8q.6,2.52,3.52,2.52Q527.42,454.66,527.42,450.3Zm0-5.24v-5.84a3.68,3.68,0,0,0-3.36-1.84A3.81,3.81,0,0,0,521,438.7a5.12,5.12,0,0,0-1.12,3.44A5.2,5.2,0,0,0,521,445.6a4.09,4.09,0,0,0,5.06.8A4,4,0,0,0,527.42,445.06Z"/><path class="cls-2" d="M535.5,446.18h4.92a2.76,2.76,0,0,0,3,2c1.68,0,2.52-.59,2.52-1.76a1.15,1.15,0,0,0-.42-.94,3.62,3.62,0,0,0-1.38-.58l-3.6-.8c-3.1-.72-4.64-2.4-4.64-5a5.09,5.09,0,0,1,2-4.18,7.91,7.91,0,0,1,5.08-1.62,8.41,8.41,0,0,1,5.22,1.46,6.4,6.4,0,0,1,2.38,4.06H545.9a2.59,2.59,0,0,0-2.8-1.76,3.07,3.07,0,0,0-1.66.44,1.38,1.38,0,0,0-.7,1.24c0,.67.53,1.13,1.6,1.4l3.68.84c3.17.77,4.76,2.51,4.76,5.2a5,5,0,0,1-2.06,4.24,8.49,8.49,0,0,1-5.26,1.56,9.18,9.18,0,0,1-5.44-1.5A6,6,0,0,1,535.5,446.18Z"/><path class="cls-2" d="M552.7,436.86l2.84-4.4a3,3,0,0,1-1.76-1,2.75,2.75,0,0,1-.68-1.92,2.88,2.88,0,0,1,.9-2.18,3.29,3.29,0,0,1,4.48,0,3.37,3.37,0,0,1,.9,2.5,6.61,6.61,0,0,1-1.32,3.6l-2.2,3.32Zm7.8,0,2.84-4.4a3,3,0,0,1-1.76-1,2.75,2.75,0,0,1-.68-1.92,2.88,2.88,0,0,1,.9-2.18,3.29,3.29,0,0,1,4.48,0,3.37,3.37,0,0,1,.9,2.5,6.61,6.61,0,0,1-1.32,3.6l-2.2,3.32Z"/><path class="cls-2" d="M584.06,428.46a2.67,2.67,0,0,1-.86,2,3.1,3.1,0,0,1-4.16,0,2.8,2.8,0,0,1,0-4.06,2.92,2.92,0,0,1,2.08-.82,2.88,2.88,0,0,1,2.06.82A2.7,2.7,0,0,1,584.06,428.46Zm-.44,5.16V451.5h-5V433.62Z"/><path class="cls-2" d="M587.94,451.5V433.62h5v1.64a6.79,6.79,0,0,1,9.46-.24,6.83,6.83,0,0,1,1.66,4.8V451.5h-5V440.86a3.42,3.42,0,0,0-.74-2.3,2.74,2.74,0,0,0-2.18-.86,3.38,3.38,0,0,0-2.06.66,3,3,0,0,0-1.18,1.82V451.5Z"/><path class="cls-2" d="M627.09,434.06a2.83,2.83,0,0,0-.84-2.14,3.08,3.08,0,0,0-2.28-.82,3,3,0,0,0-2.34.94,3.82,3.82,0,0,0-.93,2.46h-5.28a8.92,8.92,0,0,1,2.66-5.74,8.08,8.08,0,0,1,5.86-2.22,8.66,8.66,0,0,1,6,2,6.82,6.82,0,0,1,2.2,5.34,6.49,6.49,0,0,1-.79,3,12.42,12.42,0,0,1-1.59,2.44c-.51.6-1.35,1.5-2.5,2.7l-4.71,5.08h9.88v4.44h-17v-3.32l7.79-8.2a30,30,0,0,0,3.29-4A3.89,3.89,0,0,0,627.09,434.06Z"/><path class="cls-2" d="M655.73,451.5V450a5.05,5.05,0,0,1-1.88,1.32,6.27,6.27,0,0,1-2.6.56,7.3,7.3,0,0,1-5.94-2.66,11.29,11.29,0,0,1,0-13.34,7.26,7.26,0,0,1,5.94-2.68,6.27,6.27,0,0,1,2.6.56,5.05,5.05,0,0,1,1.88,1.32v-9.6h5v26Zm0-6v-5.88a3.6,3.6,0,0,0-1.35-1.5,3.69,3.69,0,0,0-2-.58,3.83,3.83,0,0,0-3.13,1.42,5.55,5.55,0,0,0-1.16,3.62,5.46,5.46,0,0,0,1.16,3.6,3.88,3.88,0,0,0,3.13,1.4,3.71,3.71,0,0,0,3.35-2.08Z"/><path class="cls-2" d="M679.69,451.5h-4.76v-1a4.42,4.42,0,0,1-1.72.88,8.39,8.39,0,0,1-2.64.4,7.24,7.24,0,0,1-4.74-1.56,5.21,5.21,0,0,1-1.9-4.24,5.06,5.06,0,0,1,2-4.12,7.59,7.59,0,0,1,4.94-1.6,9.12,9.12,0,0,1,2.32.32,5.44,5.44,0,0,1,1.76.72V440a2.73,2.73,0,0,0-.74-2,2.86,2.86,0,0,0-2.18-.78,2.55,2.55,0,0,0-2.64,1.68h-4.72a6.39,6.39,0,0,1,2.46-4.1,9,9,0,0,1,10.6.2,6.52,6.52,0,0,1,2,5.06Zm-4.76-4.88v-1.28a2.32,2.32,0,0,0-1.22-1.14,4.71,4.71,0,0,0-2-.42,4.31,4.31,0,0,0-2.22.56,1.91,1.91,0,0,0,0,3.28,4.28,4.28,0,0,0,2.24.56,4.71,4.71,0,0,0,2-.42A2.32,2.32,0,0,0,674.93,446.62Z"/><path class="cls-2" d="M690.69,458.1h-4.88l2.61-6.52-6.85-18h5.24l4.12,11.88L695,433.62h5Z"/><path class="cls-2" d="M701.13,446.18h4.92a2.78,2.78,0,0,0,3,2c1.68,0,2.53-.59,2.53-1.76a1.15,1.15,0,0,0-.43-.94,3.48,3.48,0,0,0-1.38-.58l-3.6-.8q-4.63-1.08-4.63-5a5.07,5.07,0,0,1,2-4.18,7.88,7.88,0,0,1,5.07-1.62,8.42,8.42,0,0,1,5.23,1.46,6.38,6.38,0,0,1,2.37,4.06h-4.71a2.6,2.6,0,0,0-2.81-1.76,3,3,0,0,0-1.65.44,1.38,1.38,0,0,0-.7,1.24c0,.67.53,1.13,1.59,1.4l3.68.84c3.18.77,4.77,2.51,4.77,5.2a5,5,0,0,1-2.07,4.24,8.45,8.45,0,0,1-5.26,1.56,9.22,9.22,0,0,1-5.44-1.5A6,6,0,0,1,701.13,446.18Z"/><path class="cls-2" d="M605.5,576.72h6c.74,2.37,2.58,3.56,5.49,3.56a5.56,5.56,0,0,0,3.37-.93,3,3,0,0,0,1.26-2.54,2.53,2.53,0,0,0-.79-2,5.61,5.61,0,0,0-2.58-1.12l-5-1.13q-7-1.58-7-7.56A7.66,7.66,0,0,1,609,558.9a10.61,10.61,0,0,1,7.15-2.39,11.54,11.54,0,0,1,7.36,2.19,9.5,9.5,0,0,1,3.49,5.83H621.3c-.75-2.2-2.45-3.29-5.09-3.29a5.2,5.2,0,0,0-3.17.88,2.78,2.78,0,0,0-1.19,2.36c0,1.53,1,2.54,3.11,3l5,1.17q7.25,1.68,7.24,7.79a7.67,7.67,0,0,1-2.88,6.26A11.32,11.32,0,0,1,617,585a12.81,12.81,0,0,1-7.69-2.2A9.33,9.33,0,0,1,605.5,576.72Z"/><path class="cls-2" d="M629.31,562v-5h23.58v5H644v22.59h-5.8V562Z"/><path class="cls-2" d="M676.4,560.54a16.12,16.12,0,0,1,0,20.48,13,13,0,0,1-18.83,0,16.25,16.25,0,0,1,0-20.5,13,13,0,0,1,18.83,0Zm-4.14,16.85a11.89,11.89,0,0,0,0-13.23,6.4,6.4,0,0,0-5.28-2.52,6.32,6.32,0,0,0-5.22,2.52,12,12,0,0,0,0,13.23,6.29,6.29,0,0,0,5.22,2.52A6.37,6.37,0,0,0,672.26,577.39Z"/><path class="cls-2" d="M695.33,575h-5.54v9.58h-5.71V557h11.25a10.17,10.17,0,0,1,7.08,2.37,9.75,9.75,0,0,1,0,13.34A10.25,10.25,0,0,1,695.33,575Zm4-9a4.07,4.07,0,0,0-1.13-3,4.51,4.51,0,0,0-3.28-1.1h-5.18v8.23H695a4.44,4.44,0,0,0,3.28-1.12A4,4,0,0,0,699.38,566Z"/><path class="cls-2" d="M802.5,639.75V540a24,24,0,0,0-24-24H725V496.5h49a24,24,0,0,0,24-24v-207a24,24,0,0,0-24-24H725.17V234a23,23,0,0,0-23-23h-252a23,23,0,0,0-23,23v7.5H378a24,24,0,0,0-24,24v261a6,6,0,0,0,10.24,4.24L395,500a12,12,0,0,1,8.49-3.51h23.71V702a23,23,0,0,0,23,23h121v28.69a77.91,77.91,0,0,0,40.9,68.85V846a5,5,0,0,0,10,0V819.5a5,5,0,0,0-2.78-4.48,68,68,0,0,1-38.12-61.33V725h96.17a78.37,78.37,0,0,0,5,95.75,5,5,0,1,0,7.58-6.53A68.37,68.37,0,0,1,690,725a5,5,0,0,0-.07-6.62l-63.22-70.21a28.41,28.41,0,0,1-7.7-19.51c0-.56,0-1.11,0-1.66h53.82L751,705.17a5,5,0,0,0,7.08-7.07l-32.93-32.93V627H753a12,12,0,0,1,8.49,3.51l30.73,30.73a6,6,0,0,0,6.54,1.3A6.07,6.07,0,0,0,801,661a140.77,140.77,0,0,1,8.54,48.19V842.44a5,5,0,0,0,10,0V709.2A150.94,150.94,0,0,0,802.5,639.75ZM437.17,234a13,13,0,0,1,13-13h252a13,13,0,0,1,13,13v7.5h-278ZM386.49,491.53,366,512V265.5a12,12,0,0,1,12-12H774a12,12,0,0,1,12,12v207a12,12,0,0,1-12,12H403.46A23.83,23.83,0,0,0,386.49,491.53ZM609,628.66h0a38.36,38.36,0,0,0,10.34,26.28L673.39,715H450.17a13,13,0,0,1-13-13V496.5H715V516H526.5a24,24,0,0,0-24,24v63a24,24,0,0,0,24,24H609c0,.55,0,1.1,0,1.66Zm106.18,26.51L687,627h28.17Zm75.33-12.66L770,622a23.83,23.83,0,0,0-17-7H526.5a12,12,0,0,1-12-12V540a12,12,0,0,1,12-12h252a12,12,0,0,1,12,12Z"/></svg>