<svg id="OUTLINES" xmlns="http://www.w3.org/2000/svg" viewBox="0 0 1152 1008"><defs><style>.cls-1{fill:#fff;}.cls-2{fill:#000f7d;}</style></defs><title>future-decision-notice</title><rect class="cls-1" x="360" y="328.5" width="432" height="198" rx="18" ry="18"/><path class="cls-1" d="M774,532.5H378a24,24,0,0,1-24-24v-162a24,24,0,0,1,24-24H774a24,24,0,0,1,24,24v162A24,24,0,0,1,774,532.5Zm-396-198a12,12,0,0,0-12,12v162a12,12,0,0,0,12,12H774a12,12,0,0,0,12-12v-162a12,12,0,0,0-12-12Z"/><path class="cls-2" d="M571.5,698a23,23,0,1,1,23-23A23,23,0,0,1,571.5,698Zm0-36a13,13,0,1,0,13,13A13,13,0,0,0,571.5,662Z"/><path class="cls-2" d="M540.34,271.48a3.88,3.88,0,0,1-1-3A4,4,0,0,1,543.4,265h1c2.13-12.57,14.64-21.95,29.34-21.95a32.83,32.83,0,0,1,16.6,4.41.7.7,0,0,0,.38.11.68.68,0,0,0,.36-.1,14.7,14.7,0,0,1,7.74-2c.55,0,1.09,0,1.63.07a2.59,2.59,0,0,1,2.17,1.65,2.48,2.48,0,0,1-.54,2.63,10.06,10.06,0,0,0-3,5.69c.24.34.47.68.69,1a28,28,0,0,0,4.87,5.86h2.67a4.34,4.34,0,0,1,4.32,4.32V275a6.14,6.14,0,0,1-2.06,4.55,52.67,52.67,0,0,1-13.49,8.57,1.54,1.54,0,0,0-.82.93l-3.14,10.36a3,3,0,0,1-2.82,2.09h-4.24a3,3,0,0,1-2.83-2.12l-1.5-5.2a.47.47,0,0,0-.45-.32h-.09a34.71,34.71,0,0,1-13,0h-.09a.46.46,0,0,0-.44.32l-1.51,5.18a3,3,0,0,1-2.88,2.14h-4.24a2.92,2.92,0,0,1-2.82-2.09l-4.21-13.82a1.42,1.42,0,0,0-.34-.58,24.32,24.32,0,0,1-6.28-12.2h-1.22A3.9,3.9,0,0,1,540.34,271.48Zm48.42-6.32a3.36,3.36,0,1,0,3.36-3.36h0A3.38,3.38,0,0,0,588.76,265.16Z"/><path class="cls-2" d="M531.59,376.11H527.9v6.39h-3.81V364.08h7.5a6.8,6.8,0,0,1,4.72,1.57,5.69,5.69,0,0,1,1.76,4.46,5.63,5.63,0,0,1-1.76,4.44A6.84,6.84,0,0,1,531.59,376.11Zm2.7-6a2.72,2.72,0,0,0-.75-2,3,3,0,0,0-2.19-.73H527.9v5.49h3.45a3,3,0,0,0,2.19-.75A2.68,2.68,0,0,0,534.29,370.11Z"/><path class="cls-2" d="M548.09,378.12h3.45a5.34,5.34,0,0,1-1.91,3.43,6.22,6.22,0,0,1-4,1.25,6.14,6.14,0,0,1-4.71-1.94,7.11,7.11,0,0,1-1.8-5.05,7.19,7.19,0,0,1,1.81-5,6,6,0,0,1,4.64-2A5.66,5.66,0,0,1,550,370.6a7.06,7.06,0,0,1,1.6,4.85v1.14h-8.93a3.7,3.7,0,0,0,.87,2.35,2.64,2.64,0,0,0,2,.86A2.26,2.26,0,0,0,548.09,378.12Zm-2.52-6.3c-1.53,0-2.45.84-2.79,2.52H548a2.75,2.75,0,0,0-.66-1.82A2.22,2.22,0,0,0,545.57,371.82Z"/><path class="cls-2" d="M554,382.5V369.09h3.71v1.23a5.1,5.1,0,0,1,7.1-.18,5.1,5.1,0,0,1,1.25,3.6v8.76h-3.72v-8a2.57,2.57,0,0,0-.56-1.73,2,2,0,0,0-1.63-.64,2.53,2.53,0,0,0-1.55.49,2.37,2.37,0,0,0-.89,1.37v8.49Z"/><path class="cls-2" d="M577.75,382.5v-1.11a3.91,3.91,0,0,1-1.41,1,4.69,4.69,0,0,1-2,.42,5.45,5.45,0,0,1-4.45-2,8.44,8.44,0,0,1,0-10,5.43,5.43,0,0,1,4.45-2,4.69,4.69,0,0,1,2,.42,3.91,3.91,0,0,1,1.41,1V363h3.75v19.5Zm0-4.5v-4.41a2.57,2.57,0,0,0-1-1.13,2.73,2.73,0,0,0-1.5-.43,2.86,2.86,0,0,0-2.34,1.06,4.16,4.16,0,0,0-.86,2.72,4.09,4.09,0,0,0,.86,2.7,2.88,2.88,0,0,0,2.34,1.05,2.76,2.76,0,0,0,1.52-.44A2.63,2.63,0,0,0,577.75,378Z"/><path class="cls-2" d="M588.77,365.22a2,2,0,0,1-.65,1.53,2.18,2.18,0,0,1-1.54.6,2.24,2.24,0,0,1-1.58-.6,2.11,2.11,0,0,1,0-3.05,2.19,2.19,0,0,1,1.56-.61,2.14,2.14,0,0,1,1.54.61A2,2,0,0,1,588.77,365.22Zm-.33,3.87V382.5h-3.73V369.09Z"/><path class="cls-2" d="M591.67,382.5V369.09h3.72v1.23a5.1,5.1,0,0,1,7.1-.18,5.1,5.1,0,0,1,1.24,3.6v8.76H600v-8a2.57,2.57,0,0,0-.55-1.73,2,2,0,0,0-1.64-.64,2.53,2.53,0,0,0-1.54.49,2.32,2.32,0,0,0-.89,1.37v8.49Z"/><path class="cls-2" d="M615.38,381.6v-.78a4.07,4.07,0,0,1-3.31,1.38,5.52,5.52,0,0,1-4.44-1.95,7.68,7.68,0,0,1,0-9.51,5.52,5.52,0,0,1,4.44-1.95,4.17,4.17,0,0,1,3.31,1.35v-1.05h3.68V381a6.57,6.57,0,0,1-1.8,5,6.68,6.68,0,0,1-4.77,1.7,6.87,6.87,0,0,1-4.27-1.26,5,5,0,0,1-2-3.51h3.6a2.39,2.39,0,0,0,2.64,1.89C614.41,384.87,615.38,383.78,615.38,381.6Zm0-3.93v-4.38a2.79,2.79,0,0,0-2.53-1.38,2.88,2.88,0,0,0-2.31,1,3.85,3.85,0,0,0-.83,2.58,3.89,3.89,0,0,0,.83,2.59,3.06,3.06,0,0,0,3.8.6A3,3,0,0,0,615.38,377.67Z"/><path class="cls-2" d="M530.08,577.12H536c.75,2.38,2.58,3.56,5.49,3.56a5.61,5.61,0,0,0,3.37-.92,3,3,0,0,0,1.26-2.55,2.54,2.54,0,0,0-.78-2,5.76,5.76,0,0,0-2.59-1.13L537.82,573q-7-1.57-7-7.57a7.71,7.71,0,0,1,2.79-6.12,10.61,10.61,0,0,1,7.15-2.38,11.6,11.6,0,0,1,7.36,2.18,9.51,9.51,0,0,1,3.49,5.83h-5.72q-1.12-3.28-5.08-3.29a5.25,5.25,0,0,0-3.17.88,2.78,2.78,0,0,0-1.2,2.36c0,1.54,1,2.54,3.11,3l5,1.17q7.24,1.66,7.24,7.79a7.65,7.65,0,0,1-2.88,6.25,11.33,11.33,0,0,1-7.38,2.34,12.88,12.88,0,0,1-7.69-2.2A9.31,9.31,0,0,1,530.08,577.12Z"/><path class="cls-2" d="M556.63,578.92v-9.54h-3.06v-4.5h3.06v-5.44h5.53v5.44h4.41v4.5h-4.41v8.83a2,2,0,0,0,2.3,2.29,4.35,4.35,0,0,0,2.43-.67v4.95a8,8,0,0,1-3.6.63,7,7,0,0,1-4.91-1.62A6.32,6.32,0,0,1,556.63,578.92Z"/><path class="cls-2" d="M589.21,575a10.61,10.61,0,0,1-2.75,7.57,10.12,10.12,0,0,1-14.22,0,11.87,11.87,0,0,1,0-15.17,10.09,10.09,0,0,1,14.22,0A10.67,10.67,0,0,1,589.21,575Zm-5.54,0a7,7,0,0,0-1.15-4.2,3.94,3.94,0,0,0-6.34,0,8.19,8.19,0,0,0,0,8.37,4,4,0,0,0,6.34,0A7,7,0,0,0,583.67,575Z"/><path class="cls-2" d="M598.34,583.33v9.09h-5.58V564.88h5.58v1.67a5.89,5.89,0,0,1,2.12-1.48,7,7,0,0,1,2.92-.64,8.22,8.22,0,0,1,6.71,3,11.49,11.49,0,0,1,2.47,7.49,11.36,11.36,0,0,1-2.47,7.47,8.2,8.2,0,0,1-6.71,3,7,7,0,0,1-2.92-.63A5.78,5.78,0,0,1,598.34,583.33Zm0-11.7v6.62a4.07,4.07,0,0,0,1.53,1.69,4.18,4.18,0,0,0,2.25.65,4.3,4.3,0,0,0,3.51-1.58,6.12,6.12,0,0,0,1.31-4,6.25,6.25,0,0,0-1.31-4.07,4.31,4.31,0,0,0-3.51-1.6,4,4,0,0,0-2.23.66A4.46,4.46,0,0,0,598.34,571.63Z"/><path class="cls-2" d="M448,420.57l6.66-11.7h6.08l-10,17.14V436.5H445V426l-9.95-17.14h6.26Z"/><path class="cls-2" d="M478.76,426.46A10.61,10.61,0,0,1,476,434a10.09,10.09,0,0,1-14.22,0,11.85,11.85,0,0,1,0-15.16,10.09,10.09,0,0,1,14.22,0A10.65,10.65,0,0,1,478.76,426.46Zm-5.54,0a7,7,0,0,0-1.15-4.2,3.94,3.94,0,0,0-6.34,0,8.19,8.19,0,0,0,0,8.37,4,4,0,0,0,6.34,0A7,7,0,0,0,473.22,426.46Z"/><path class="cls-2" d="M500.13,416.38V436.5h-5.58v-1.85a6.93,6.93,0,0,1-5.4,2.3,6.73,6.73,0,0,1-5.2-2,7.67,7.67,0,0,1-1.86-5.4V416.38h5.58v12a3.88,3.88,0,0,0,.81,2.61,3,3,0,0,0,2.43.94,3.67,3.67,0,0,0,2.29-.74,3.46,3.46,0,0,0,1.31-2V416.38Z"/><path class="cls-2" d="M503.1,420l3.2-4.95a3.4,3.4,0,0,1-2-1.08,3.12,3.12,0,0,1-.77-2.16,3.25,3.25,0,0,1,1-2.45,3.7,3.7,0,0,1,5,0,3.79,3.79,0,0,1,1,2.81,7.37,7.37,0,0,1-1.49,4.05L506.66,420Z"/><path class="cls-2" d="M525.47,416.29v5.58a5.34,5.34,0,0,0-2.79-.67,4.18,4.18,0,0,0-2.48.74,3.44,3.44,0,0,0-1.35,2.09V436.5h-5.58V416.38h5.58v2a4.86,4.86,0,0,1,4.5-2.43A4.58,4.58,0,0,1,525.47,416.29Z"/><path class="cls-2" d="M540.81,429.93H546a8,8,0,0,1-2.86,5.15,9.32,9.32,0,0,1-6,1.87,9.23,9.23,0,0,1-7.07-2.9,11.9,11.9,0,0,1,0-15.12,9,9,0,0,1,7-3,8.48,8.48,0,0,1,6.72,2.73,10.52,10.52,0,0,1,2.41,7.26v1.71H532.71a5.6,5.6,0,0,0,1.31,3.54,4,4,0,0,0,3.06,1.28Q540.14,432.45,540.81,429.93ZM537,420.48q-3.42,0-4.18,3.78h7.78a4.09,4.09,0,0,0-1-2.72A3.31,3.31,0,0,0,537,420.48Z"/><path class="cls-2" d="M575.73,436.5h-5.35v-1.08a5,5,0,0,1-1.94,1,9.62,9.62,0,0,1-3,.45,8.11,8.11,0,0,1-5.33-1.76,5.83,5.83,0,0,1-2.14-4.77,5.67,5.67,0,0,1,2.23-4.63,8.54,8.54,0,0,1,5.56-1.8,10.17,10.17,0,0,1,2.61.36,6.44,6.44,0,0,1,2,.81v-1.49a3.06,3.06,0,0,0-.84-2.22,3.19,3.19,0,0,0-2.45-.88,2.86,2.86,0,0,0-3,1.89h-5.31a7.12,7.12,0,0,1,2.77-4.61,10.13,10.13,0,0,1,11.92.22,7.33,7.33,0,0,1,2.23,5.69ZM570.38,431v-1.44a2.64,2.64,0,0,0-1.38-1.28,5.21,5.21,0,0,0-2.27-.48,4.81,4.81,0,0,0-2.5.63,2.16,2.16,0,0,0,0,3.69,4.67,4.67,0,0,0,2.52.63,5.21,5.21,0,0,0,2.27-.47A2.64,2.64,0,0,0,570.38,431Z"/><path class="cls-2" d="M585.86,434.83v1.67h-5.63V407.25h5.63v10.8a5.77,5.77,0,0,1,2.11-1.49,7,7,0,0,1,2.92-.63,8.18,8.18,0,0,1,6.69,3,12.72,12.72,0,0,1,0,15,8.21,8.21,0,0,1-6.69,3,7,7,0,0,1-2.92-.63A5.77,5.77,0,0,1,585.86,434.83Zm0-11.7v6.62a4.14,4.14,0,0,0,3.77,2.34,4.3,4.3,0,0,0,3.51-1.58,6.09,6.09,0,0,0,1.31-4.05,6.18,6.18,0,0,0-1.31-4.07,4.29,4.29,0,0,0-3.51-1.6,4.13,4.13,0,0,0-2.25.66A4,4,0,0,0,585.86,423.13Z"/><path class="cls-2" d="M622.26,426.46a10.61,10.61,0,0,1-2.75,7.56,10.09,10.09,0,0,1-14.22,0,11.85,11.85,0,0,1,0-15.16,10.09,10.09,0,0,1,14.22,0A10.65,10.65,0,0,1,622.26,426.46Zm-5.54,0a7.08,7.08,0,0,0-1.14-4.2,4,4,0,0,0-6.35,0,8.19,8.19,0,0,0,0,8.37,4,4,0,0,0,6.35,0A7,7,0,0,0,616.72,426.46Z"/><path class="cls-2" d="M643.63,416.38V436.5h-5.58v-1.85a6.91,6.91,0,0,1-5.4,2.3,6.71,6.71,0,0,1-5.19-2,7.63,7.63,0,0,1-1.87-5.4V416.38h5.58v12A3.88,3.88,0,0,0,632,431a3,3,0,0,0,2.43.94,3.72,3.72,0,0,0,2.3-.74,3.44,3.44,0,0,0,1.3-2V416.38Z"/><path class="cls-2" d="M649.66,430.42v-9.54H646.6v-4.5h3.06v-5.44h5.54v5.44h4.41v4.5H655.2v8.82a2,2,0,0,0,2.29,2.3,4.35,4.35,0,0,0,2.43-.68v4.95a7.89,7.89,0,0,1-3.6.63,7,7,0,0,1-4.9-1.62A6.3,6.3,0,0,1,649.66,430.42Z"/><path class="cls-2" d="M674.73,430.42v-9.54h-3.06v-4.5h3.06v-5.44h5.53v5.44h4.41v4.5h-4.41v8.82a2,2,0,0,0,2.3,2.3,4.35,4.35,0,0,0,2.43-.68v4.95a7.89,7.89,0,0,1-3.6.63,7,7,0,0,1-4.91-1.62A6.29,6.29,0,0,1,674.73,430.42Z"/><path class="cls-2" d="M707.31,426.46a10.61,10.61,0,0,1-2.75,7.56,10.09,10.09,0,0,1-14.22,0,11.85,11.85,0,0,1,0-15.16,10.09,10.09,0,0,1,14.22,0A10.65,10.65,0,0,1,707.31,426.46Zm-5.54,0a7,7,0,0,0-1.15-4.2,3.94,3.94,0,0,0-6.34,0,8.19,8.19,0,0,0,0,8.37,4,4,0,0,0,6.34,0A7,7,0,0,0,701.77,426.46Z"/><path class="cls-2" d="M478.82,475.51h5.54c.45,1.47,1.57,2.21,3.37,2.21s2.84-.66,2.84-2a1.31,1.31,0,0,0-.47-1.06,4.3,4.3,0,0,0-1.56-.65l-4.05-.9q-5.22-1.22-5.22-5.67a5.73,5.73,0,0,1,2.3-4.7,8.86,8.86,0,0,1,5.71-1.83,9.42,9.42,0,0,1,5.88,1.65,7.15,7.15,0,0,1,2.67,4.56h-5.31q-.63-2-3.15-2a3.4,3.4,0,0,0-1.86.5,1.55,1.55,0,0,0-.79,1.39c0,.76.6,1.28,1.8,1.58l4.14.94c3.57.87,5.35,2.83,5.35,5.85a5.66,5.66,0,0,1-2.31,4.77,9.55,9.55,0,0,1-5.92,1.76,10.32,10.32,0,0,1-6.12-1.69A6.74,6.74,0,0,1,478.82,475.51Z"/><path class="cls-2" d="M516.31,481.5H511v-1.08a4.93,4.93,0,0,1-1.93,1,9.62,9.62,0,0,1-3,.45,8.11,8.11,0,0,1-5.33-1.76,5.82,5.82,0,0,1-2.14-4.77,5.67,5.67,0,0,1,2.23-4.63,8.53,8.53,0,0,1,5.55-1.8,10.12,10.12,0,0,1,2.61.36,6.34,6.34,0,0,1,2,.81v-1.49a3.06,3.06,0,0,0-.83-2.22,3.19,3.19,0,0,0-2.45-.88,2.86,2.86,0,0,0-3,1.89h-5.31a7.12,7.12,0,0,1,2.77-4.61,10.13,10.13,0,0,1,11.92.22,7.33,7.33,0,0,1,2.23,5.69ZM511,476v-1.44a2.58,2.58,0,0,0-1.37-1.28,5.21,5.21,0,0,0-2.27-.48,4.81,4.81,0,0,0-2.5.63,2.15,2.15,0,0,0,0,3.69,4.67,4.67,0,0,0,2.52.63,5.21,5.21,0,0,0,2.27-.47A2.58,2.58,0,0,0,511,476Z"/><path class="cls-2" d="M531.43,481.5H526l-7.61-20.12h5.85l4.64,13.37,4.54-13.37h5.63Z"/><path class="cls-2" d="M553.7,474.93h5.18a8,8,0,0,1-2.86,5.15,10.35,10.35,0,0,1-13.12-1,11.88,11.88,0,0,1,0-15.12,9,9,0,0,1,7-3,8.51,8.51,0,0,1,6.73,2.73,10.58,10.58,0,0,1,2.4,7.26v1.71H545.6a5.58,5.58,0,0,0,1.31,3.54,4,4,0,0,0,3.06,1.28Q553,477.45,553.7,474.93Zm-3.78-9.45q-3.42,0-4.18,3.78h7.78a4.09,4.09,0,0,0-1-2.72A3.31,3.31,0,0,0,549.92,465.48Z"/><path class="cls-2" d="M579.49,462.42v3.28h5.76v4.37h-5.76v2.7a6.9,6.9,0,0,1-1,4.09H591v4.64H570.89v-4.64h2.34a8.18,8.18,0,0,0,.9-4.09v-2.7h-3.24V465.7h3.24v-3.19a9.28,9.28,0,0,1,2.36-6.5,9,9,0,0,1,12-.54,8.19,8.19,0,0,1,2.5,5.42h-5.18a2.71,2.71,0,0,0-3-2.75,2.89,2.89,0,0,0-2.48,1.17A5.18,5.18,0,0,0,579.49,462.42Z"/><path class="cls-2" d="M614.14,458l-9,23.54h-5.8l8.86-22.59H595.46v-5h18.68Z"/><path class="cls-2" d="M614.43,480.78a3.55,3.55,0,0,1-1-2.57,3.47,3.47,0,0,1,1-2.54,3.6,3.6,0,0,1,5,0,3.47,3.47,0,0,1,1,2.54,3.55,3.55,0,0,1-1,2.57,3.55,3.55,0,0,1-5,0Z"/><path class="cls-2" d="M636.32,461.88a3.22,3.22,0,0,0-.94-2.41,3.55,3.55,0,0,0-2.57-.92,3.36,3.36,0,0,0-2.63,1.06,4.24,4.24,0,0,0-1.06,2.76h-5.94a10.07,10.07,0,0,1,3-6.45,9.11,9.11,0,0,1,6.6-2.5,9.75,9.75,0,0,1,6.79,2.23,7.66,7.66,0,0,1,2.48,6,7.3,7.3,0,0,1-.9,3.36,14,14,0,0,1-1.78,2.74c-.58.68-1.52,1.69-2.81,3l-5.31,5.71h11.11v5H623.23v-3.74l8.77-9.22a32.93,32.93,0,0,0,3.69-4.55A4.34,4.34,0,0,0,636.32,461.88Z"/><path class="cls-2" d="M652.48,469.66v-4.45h1.57a4.69,4.69,0,0,0,3-.9,3.07,3.07,0,0,0,1.15-2.57,3.31,3.31,0,0,0-1-2.45,3.56,3.56,0,0,0-2.63-1,3.9,3.9,0,0,0-2.86,1.06,4.22,4.22,0,0,0-1.19,2.72H645a9.68,9.68,0,0,1,3-6.23,10.53,10.53,0,0,1,13.23-.22,7.51,7.51,0,0,1,2.43,5.82,7.15,7.15,0,0,1-.95,3.63,5.68,5.68,0,0,1-2.43,2.36,6.11,6.11,0,0,1,2.84,2.43,6.77,6.77,0,0,1,1,3.6,7.91,7.91,0,0,1-2.57,6.07,9.7,9.7,0,0,1-6.88,2.39,10.45,10.45,0,0,1-7.2-2.48,9,9,0,0,1-3-6.52h5.67a4.78,4.78,0,0,0,1.37,3,4.32,4.32,0,0,0,3.13,1.1,4.12,4.12,0,0,0,2.88-1,3.63,3.63,0,0,0-.09-5.35,4.73,4.73,0,0,0-3.15-1Z"/><path class="cls-2" d="M783.82,622.25A24,24,0,0,0,793.5,603V540a24,24,0,0,0-8.15-18,24,24,0,0,0,8.15-18V342a24,24,0,0,0-24-24h-49V238.5a23,23,0,0,0-23-23h-252a23,23,0,0,0-23,23V318h-49a24,24,0,0,0-24,24V504a24,24,0,0,0,8.15,18,24,24,0,0,0-8.15,18v63a24,24,0,0,0,24,24h49v79.5a23,23,0,0,0,23,23h121v28.69A77.91,77.91,0,0,0,607.4,827V850.5a5,5,0,0,0,10,0V824a5,5,0,0,0-2.78-4.48,68,68,0,0,1-38.12-61.33V729.5h96.17a78.35,78.35,0,0,0,5.05,95.75,5,5,0,0,0,7.57-6.53,68.37,68.37,0,0,1,0-89.22,5,5,0,0,0-.07-6.62L622,652.67a28.41,28.41,0,0,1-7.7-19.51c0-.55,0-1.09.05-1.63l0-.46c0-.42.07-.83.12-1.25,0-.14,0-.28,0-.42.07-.53.15-1.06.25-1.59a1.84,1.84,0,0,0,.05-.25c0-.18.09-.37.13-.56h48.65L679,642.38c11.69,11.67,23,23,32.94,32.92h0l34.37,34.37a5,5,0,0,0,7.07-7.07L720.5,669.69V627h49a23.82,23.82,0,0,0,5-.52,140.78,140.78,0,0,1,30.36,87.22V846.94a5,5,0,0,0,10,0V713.7A150.72,150.72,0,0,0,783.82,622.25ZM432.5,238.5a13,13,0,0,1,13-13h252a13,13,0,0,1,13,13V318h-278ZM361.5,504V342a12,12,0,0,1,12-12h396a12,12,0,0,1,12,12V504a12,12,0,0,1-12,12h-396A12,12,0,0,1,361.5,504ZM614.64,659.44l54.08,60.06H445.5a13,13,0,0,1-13-13V627H604.8c0,.26-.09.53-.13.79s-.09.74-.13,1.11-.06.44-.08.66c0,.45-.06.9-.09,1.34l0,.45c0,.6,0,1.2,0,1.81A38.32,38.32,0,0,0,614.64,659.44Zm95.86.25L677.81,627H710.5ZM373.5,615a12,12,0,0,1-12-12V540a12,12,0,0,1,12-12h396a12,12,0,0,1,12,12v63a12,12,0,0,1-12,12Z"/></svg>