<?xml version="1.0" encoding="UTF-8"?>
<svg id="OUTLINES" xmlns="http://www.w3.org/2000/svg" xmlns:xlink="http://www.w3.org/1999/xlink" viewBox="0 0 1152 1008">
  <defs>
    <style>
      .cls-1 {
        fill: none;
      }

      .cls-2 {
        clip-path: url(#clippath);
      }

      .cls-3 {
        fill: #000f7d;
      }

      .cls-4 {
        fill: #f77787;
      }

      .cls-5 {
        fill: #fff;
      }
    </style>
    <clipPath id="clippath">
      <path class="cls-1" d="M955.04,279H196.96c-9.37,0-16.96,7.59-16.96,16.96v416.08c0,9.37,7.59,16.96,16.96,16.96H955.04c9.37,0,16.96-7.59,16.96-16.96V295.96c0-9.37-7.59-16.96-16.96-16.96Zm-19.04,379.04c0,9.37-7.59,16.96-16.96,16.96H232.96c-9.37,0-16.96-7.59-16.96-16.96V349.96c0-9.37,7.59-16.96,16.96-16.96H919.04c9.37,0,16.96,7.59,16.96,16.96v308.08Z"/>
    </clipPath>
  </defs>
  <path class="cls-3" d="M919.04,680H232.96c-12.11,0-21.96-9.85-21.96-21.96V349.96c0-12.11,9.85-21.96,21.96-21.96H919.04c12.11,0,21.96,9.85,21.96,21.96v308.08c0,12.11-9.85,21.96-21.96,21.96ZM232.96,338c-6.59,0-11.96,5.37-11.96,11.96v308.08c0,6.59,5.37,11.96,11.96,11.96H919.04c6.59,0,11.96-5.37,11.96-11.96V349.96c0-6.59-5.37-11.96-11.96-11.96H232.96Z"/>
  <circle class="cls-5" cx="313.83" cy="583.83" r="49.5"/>
  <g>
    <path class="cls-3" d="M289.25,394.01v49.12h-10v-37.44l-11.44,5.68v-10l14.96-7.36h6.48Z"/>
    <path class="cls-3" d="M329.96,436.89c-3.57,4.7-8.24,7.04-14,7.04s-10.43-2.35-14-7.04c-3.57-4.69-5.36-10.8-5.36-18.32s1.79-13.63,5.36-18.32c3.57-4.69,8.24-7.04,14-7.04s10.43,2.35,14,7.04c3.57,4.69,5.36,10.8,5.36,18.32s-1.79,13.63-5.36,18.32Zm-6.96-30.08c-1.55-2.99-3.89-4.48-7.04-4.48s-5.49,1.49-7.04,4.48c-1.55,2.99-2.32,6.91-2.32,11.76s.77,8.77,2.32,11.76c1.55,2.99,3.89,4.48,7.04,4.48s5.49-1.49,7.04-4.48c1.55-2.99,2.32-6.91,2.32-11.76s-.77-8.77-2.32-11.76Z"/>
  </g>
  <g>
    <path class="cls-3" d="M838.19,564.94v49.12h-10v-37.44l-11.44,5.68v-10l14.96-7.36h6.48Z"/>
    <path class="cls-3" d="M878.91,607.82c-3.57,4.69-8.24,7.04-14,7.04s-10.43-2.35-14-7.04c-3.57-4.69-5.36-10.8-5.36-18.32s1.79-13.63,5.36-18.32c3.57-4.69,8.24-7.04,14-7.04s10.43,2.35,14,7.04c3.57,4.69,5.36,10.8,5.36,18.32s-1.79,13.63-5.36,18.32Zm-6.96-30.08c-1.55-2.99-3.89-4.48-7.04-4.48s-5.49,1.49-7.04,4.48c-1.55,2.99-2.32,6.91-2.32,11.76s.77,8.77,2.32,11.76c1.55,2.99,3.89,4.48,7.04,4.48s5.49-1.49,7.04-4.48c1.55-2.99,2.32-6.91,2.32-11.76s-.77-8.77-2.32-11.76Z"/>
  </g>
  <path class="cls-3" d="M919.04,680H232.96c-12.11,0-21.96-9.85-21.96-21.96V349.96c0-12.11,9.85-21.96,21.96-21.96H919.04c12.11,0,21.96,9.85,21.96,21.96v308.08c0,12.11-9.85,21.96-21.96,21.96ZM232.96,338c-6.59,0-11.96,5.37-11.96,11.96v308.08c0,6.59,5.37,11.96,11.96,11.96H919.04c6.59,0,11.96-5.37,11.96-11.96V349.96c0-6.59-5.37-11.96-11.96-11.96H232.96Z"/>
  <g>
    <path class="cls-3" d="M310.5,575.5c-12.41,0-22.5-10.09-22.5-22.5s10.09-22.5,22.5-22.5,22.5,10.09,22.5,22.5-10.09,22.5-22.5,22.5Zm0-44c-11.85,0-21.5,9.64-21.5,21.5s9.65,21.5,21.5,21.5,21.5-9.64,21.5-21.5-9.65-21.5-21.5-21.5Z"/>
    <path class="cls-3" d="M305.71,575.92c-10.71,0-20.23-7.69-22.15-18.59-2.15-12.22,6.03-23.91,18.25-26.07,12.22-2.17,23.91,6.03,26.07,18.25s-6.03,23.91-18.25,26.07c-1.32,.23-2.63,.34-3.92,.34Zm.02-44c-1.24,0-2.49,.11-3.74,.33-11.67,2.06-19.5,13.23-17.44,24.91,2.06,11.67,13.23,19.49,24.91,17.44,11.68-2.06,19.5-13.23,17.44-24.91-1.84-10.42-10.93-17.77-21.16-17.77Z"/>
    <path class="cls-3" d="M301.08,577.17c-3.24,0-6.47-.71-9.5-2.12-5.45-2.54-9.58-7.05-11.63-12.7-2.06-5.65-1.79-11.76,.75-17.2,2.54-5.45,7.05-9.58,12.7-11.63s11.76-1.79,17.2,.75c5.45,2.54,9.58,7.05,11.63,12.7h0c4.24,11.66-1.79,24.6-13.45,28.84-2.51,.91-5.11,1.37-7.71,1.37Zm.03-44.02c-2.48,0-4.97,.44-7.37,1.31-5.4,1.96-9.71,5.91-12.13,11.12-2.43,5.21-2.68,11.04-.72,16.44,1.96,5.4,5.91,9.71,11.12,12.13,5.21,2.43,11.04,2.68,16.44,.72,11.14-4.06,16.9-16.42,12.85-27.56-1.96-5.4-5.91-9.71-11.12-12.13-2.89-1.35-5.98-2.03-9.07-2.03Z"/>
    <path class="cls-3" d="M296.79,579.18c-7.78,0-15.36-4.03-19.52-11.25-6.2-10.74-2.51-24.53,8.24-30.74,5.2-3.01,11.27-3.8,17.07-2.25,5.81,1.56,10.66,5.28,13.66,10.48s3.8,11.27,2.25,17.07c-1.56,5.81-5.28,10.66-10.48,13.66-3.53,2.04-7.4,3.01-11.21,3.01Zm-.07-44c-3.73,0-7.4,.98-10.71,2.89-4.97,2.87-8.53,7.51-10.02,13.06-1.49,5.55-.72,11.34,2.15,16.31,5.93,10.27,19.1,13.8,29.37,7.87,10.27-5.93,13.8-19.1,7.87-29.37-2.87-4.97-7.51-8.53-13.06-10.02-1.85-.5-3.73-.74-5.6-.74Z"/>
    <path class="cls-3" d="M292.84,581.92c-6.43,0-12.81-2.73-17.25-8.03-3.86-4.6-5.7-10.44-5.18-16.42,.52-5.99,3.35-11.41,7.95-15.27,4.6-3.86,10.44-5.7,16.42-5.18,5.99,.52,11.41,3.35,15.27,7.95,7.98,9.5,6.73,23.72-2.77,31.7-4.21,3.53-9.34,5.25-14.44,5.25Zm-.05-43.99c-5.04,0-9.88,1.75-13.78,5.03-4.4,3.69-7.1,8.88-7.6,14.6-.5,5.72,1.26,11.29,4.95,15.69,7.62,9.08,21.21,10.27,30.29,2.65,9.08-7.62,10.27-21.21,2.65-30.29-3.69-4.4-8.88-7.1-14.6-7.6-.64-.06-1.28-.08-1.91-.08Z"/>
    <path class="cls-3" d="M289.42,585.31c-5.11,0-10.24-1.72-14.44-5.25-9.5-7.97-10.75-22.2-2.77-31.7,3.86-4.6,9.29-7.43,15.27-7.95,5.99-.52,11.82,1.32,16.42,5.18,4.6,3.86,7.43,9.29,7.95,15.27s-1.32,11.82-5.18,16.42c-4.44,5.3-10.83,8.03-17.25,8.03Zm.05-43.99c-.63,0-1.27,.03-1.91,.08-5.72,.5-10.9,3.2-14.6,7.6-7.62,9.08-6.43,22.67,2.65,30.29,9.08,7.62,22.67,6.43,30.29-2.65,3.69-4.4,5.45-9.97,4.95-15.69-.5-5.72-3.2-10.9-7.6-14.6h0c-3.91-3.28-8.74-5.03-13.78-5.03Z"/>
    <path class="cls-3" d="M286.65,589.25c-3.81,0-7.68-.97-11.21-3.01-5.2-3-8.93-7.86-10.48-13.66-1.56-5.8-.76-11.87,2.25-17.07s7.86-8.93,13.66-10.48c5.81-1.55,11.87-.76,17.07,2.25s8.93,7.86,10.48,13.66c1.56,5.8,.76,11.87-2.25,17.07-4.16,7.21-11.74,11.25-19.52,11.25Zm.07-44.01c-1.87,0-3.75,.25-5.6,.74-5.55,1.49-10.18,5.04-13.05,10.02-5.93,10.27-2.4,23.44,7.87,29.37,4.97,2.87,10.77,3.63,16.31,2.15,5.55-1.49,10.18-5.04,13.06-10.02s3.63-10.77,2.15-16.31c-1.49-5.55-5.04-10.18-10.02-13.06-3.31-1.91-6.99-2.89-10.71-2.89Z"/>
    <path class="cls-3" d="M284.64,593.6c-2.55,0-5.14-.44-7.67-1.36-5.65-2.06-10.16-6.19-12.7-11.63-2.54-5.45-2.81-11.56-.75-17.2,2.06-5.65,6.19-10.16,11.63-12.7,5.45-2.54,11.56-2.81,17.2-.75h0c11.66,4.24,17.69,17.18,13.45,28.84-3.32,9.13-11.97,14.81-21.17,14.81Zm.01-44.01c-3.1,0-6.18,.68-9.07,2.03-5.21,2.43-9.15,6.74-11.12,12.13-1.96,5.4-1.71,11.23,.72,16.44,2.43,5.21,6.74,9.15,12.13,11.12,11.14,4.05,23.5-1.71,27.56-12.85,4.05-11.14-1.71-23.5-12.85-27.56-2.4-.87-4.89-1.31-7.37-1.31Z"/>
    <path class="cls-3" d="M283.43,598.23c-1.29,0-2.6-.11-3.92-.34-12.22-2.15-20.41-13.85-18.25-26.07s13.85-20.41,26.07-18.25h0c12.22,2.15,20.4,13.85,18.25,26.07-1.92,10.9-11.44,18.59-22.15,18.59Zm-.02-44c-10.23,0-19.33,7.35-21.16,17.77-2.06,11.67,5.77,22.85,17.44,24.91,11.68,2.06,22.85-5.77,24.91-17.44,2.06-11.67-5.77-22.85-17.44-24.91h0c-1.26-.22-2.51-.33-3.74-.33Z"/>
    <path class="cls-3" d="M283,603c-12.41,0-22.5-10.09-22.5-22.5s10.09-22.5,22.5-22.5,22.5,10.09,22.5,22.5-10.09,22.5-22.5,22.5Zm0-44c-11.85,0-21.5,9.64-21.5,21.5s9.65,21.5,21.5,21.5,21.5-9.64,21.5-21.5-9.65-21.5-21.5-21.5Z"/>
    <path class="cls-3" d="M283.41,607.78c-10.71,0-20.23-7.69-22.15-18.59-2.15-12.22,6.03-23.91,18.25-26.07h0c12.22-2.16,23.91,6.03,26.06,18.25s-6.03,23.91-18.25,26.07c-1.32,.23-2.63,.34-3.92,.34Zm-3.72-43.68h0c-11.68,2.06-19.5,13.23-17.44,24.91,2.06,11.67,13.23,19.5,24.91,17.44,11.67-2.06,19.5-13.23,17.44-24.91-2.06-11.67-13.24-19.5-24.91-17.44Z"/>
    <path class="cls-3" d="M284.65,612.42c-3.24,0-6.47-.71-9.5-2.12-5.45-2.54-9.58-7.05-11.63-12.7-2.06-5.65-1.79-11.76,.75-17.2,2.54-5.45,7.05-9.58,12.7-11.63h0c11.66-4.24,24.6,1.79,28.84,13.45,4.24,11.66-1.79,24.59-13.45,28.84-2.51,.91-5.11,1.37-7.71,1.37Zm-7.34-42.72c-5.4,1.96-9.71,5.91-12.13,11.12-2.43,5.21-2.68,11.04-.72,16.44,1.96,5.4,5.91,9.71,11.12,12.13,5.2,2.43,11.04,2.68,16.44,.72,11.14-4.06,16.9-16.42,12.85-27.56-4.05-11.14-16.42-16.9-27.56-12.85h0Z"/>
    <path class="cls-3" d="M286.72,616.76c-1.95,0-3.92-.26-5.86-.78-5.81-1.56-10.66-5.28-13.66-10.48s-3.8-11.27-2.25-17.07c1.56-5.81,5.28-10.66,10.48-13.66,10.75-6.21,24.53-2.51,30.74,8.24,3,5.21,3.8,11.27,2.25,17.07-1.56,5.81-5.28,10.66-10.48,13.66-3.47,2-7.31,3.02-11.21,3.02Zm-.07-44.02c-3.73,0-7.4,.98-10.71,2.89-10.27,5.93-13.8,19.1-7.87,29.37,2.87,4.97,7.51,8.53,13.05,10.02,5.55,1.48,11.34,.72,16.31-2.15,4.97-2.87,8.53-7.51,10.02-13.06,1.49-5.55,.72-11.34-2.15-16.31s-7.51-8.53-13.06-10.02c-1.85-.5-3.73-.74-5.6-.74Z"/>
    <path class="cls-3" d="M289.47,620.68c-.66,0-1.33-.03-2-.09-5.99-.52-11.41-3.35-15.27-7.95-7.97-9.5-6.73-23.72,2.77-31.7h0c9.5-7.98,23.72-6.73,31.7,2.77,3.86,4.6,5.7,10.44,5.18,16.42s-3.35,11.41-7.95,15.27c-4.09,3.43-9.15,5.27-14.42,5.27Zm-13.86-38.97c-9.08,7.62-10.27,21.21-2.65,30.29,3.69,4.4,8.88,7.1,14.6,7.6,5.72,.51,11.29-1.26,15.69-4.95,4.4-3.69,7.1-8.88,7.6-14.6,.5-5.72-1.26-11.29-4.95-15.69-7.62-9.08-21.21-10.27-30.29-2.65h0Z"/>
    <path class="cls-3" d="M292.79,624.07c-5.28,0-10.33-1.83-14.42-5.27-4.6-3.86-7.43-9.29-7.95-15.27-.52-5.99,1.31-11.82,5.18-16.42,7.97-9.5,22.19-10.75,31.7-2.77,9.5,7.97,10.75,22.2,2.77,31.7-3.86,4.6-9.29,7.43-15.27,7.95-.67,.06-1.34,.09-2,.09Zm.06-43.99c-6.14,0-12.24,2.61-16.49,7.67-3.69,4.4-5.45,9.97-4.95,15.69,.5,5.72,3.2,10.9,7.6,14.6,4.4,3.69,9.98,5.45,15.69,4.95,5.72-.5,10.9-3.2,14.6-7.6,7.62-9.08,6.43-22.67-2.65-30.29-4.02-3.37-8.92-5.02-13.8-5.02Z"/>
    <path class="cls-3" d="M296.71,626.83c-3.9,0-7.75-1.02-11.21-3.02-10.74-6.2-14.44-19.99-8.24-30.74,6.2-10.75,19.99-14.44,30.74-8.24,5.2,3,8.93,7.86,10.48,13.66,1.56,5.8,.76,11.87-2.25,17.07s-7.86,8.93-13.66,10.48c-1.94,.52-3.91,.78-5.86,.78Zm.07-44c-7.44,0-14.68,3.86-18.66,10.75-2.87,4.97-3.63,10.77-2.15,16.31,1.49,5.55,5.04,10.18,10.02,13.06,4.97,2.87,10.77,3.63,16.31,2.15,5.55-1.49,10.18-5.04,13.06-10.02,5.93-10.27,2.4-23.44-7.87-29.37-3.38-1.95-7.07-2.88-10.71-2.88Z"/>
    <path class="cls-3" d="M301.11,628.85c-2.6,0-5.2-.46-7.71-1.37-5.65-2.06-10.16-6.19-12.7-11.63-2.54-5.45-2.81-11.56-.75-17.2,2.06-5.65,6.19-10.16,11.63-12.7s11.56-2.81,17.2-.75c11.66,4.24,17.69,17.18,13.45,28.84-2.06,5.65-6.19,10.16-11.63,12.7-3.02,1.41-6.25,2.12-9.5,2.12Zm-.03-44.02c-3.1,0-6.18,.68-9.07,2.03-5.2,2.43-9.15,6.74-11.12,12.13h0c-1.96,5.4-1.71,11.23,.72,16.44,2.43,5.21,6.74,9.15,12.13,11.12,5.4,1.96,11.24,1.71,16.44-.72,5.2-2.43,9.15-6.74,11.12-12.13,4.05-11.14-1.71-23.5-12.85-27.56-2.4-.87-4.89-1.31-7.37-1.31Z"/>
    <path class="cls-3" d="M305.73,630.08c-1.29,0-2.6-.11-3.92-.34-12.22-2.15-20.4-13.85-18.25-26.07,2.15-12.22,13.85-20.41,26.06-18.25,12.22,2.15,20.41,13.85,18.25,26.07-1.92,10.9-11.44,18.59-22.15,18.59Zm-.02-44c-10.23,0-19.33,7.35-21.16,17.77-2.06,11.67,5.77,22.85,17.44,24.91,11.67,2.06,22.85-5.77,24.91-17.44,2.06-11.67-5.77-22.85-17.44-24.91-1.26-.22-2.51-.33-3.74-.33Z"/>
    <path class="cls-3" d="M310.5,630.5c-12.41,0-22.5-10.09-22.5-22.5s10.09-22.5,22.5-22.5,22.5,10.09,22.5,22.5-10.09,22.5-22.5,22.5Zm0-44c-11.85,0-21.5,9.64-21.5,21.5s9.65,21.5,21.5,21.5,21.5-9.64,21.5-21.5-9.65-21.5-21.5-21.5Z"/>
    <path class="cls-3" d="M315.27,630.08c-10.71,0-20.23-7.69-22.15-18.59-2.15-12.22,6.03-23.91,18.25-26.07,12.22-2.16,23.91,6.03,26.06,18.25s-6.03,23.91-18.25,26.07c-1.32,.23-2.63,.34-3.92,.34Zm.02-44c-1.24,0-2.49,.11-3.74,.33-11.68,2.06-19.5,13.23-17.44,24.91,2.06,11.67,13.23,19.5,24.91,17.44,11.67-2.06,19.5-13.23,17.44-24.91-1.84-10.42-10.93-17.77-21.16-17.77Z"/>
    <path class="cls-3" d="M319.89,628.85c-3.24,0-6.47-.71-9.5-2.12-5.45-2.54-9.58-7.05-11.63-12.7h0c-4.24-11.66,1.79-24.6,13.45-28.84,5.65-2.06,11.76-1.79,17.2,.75,5.45,2.54,9.58,7.05,11.63,12.7,2.06,5.65,1.79,11.76-.75,17.2-2.54,5.45-7.05,9.58-12.7,11.63-2.51,.91-5.11,1.37-7.71,1.37Zm-20.19-15.16c1.96,5.4,5.91,9.71,11.12,12.13,5.21,2.43,11.04,2.68,16.44,.72,5.4-1.96,9.71-5.91,12.13-11.12,2.43-5.21,2.68-11.04,.72-16.44-1.96-5.4-5.91-9.71-11.12-12.13-5.21-2.43-11.04-2.68-16.44-.72-11.14,4.06-16.9,16.42-12.85,27.56h0Z"/>
    <path class="cls-3" d="M324.29,626.83c-1.95,0-3.92-.26-5.86-.78-5.81-1.56-10.66-5.28-13.66-10.48s-3.8-11.27-2.25-17.07c1.56-5.81,5.28-10.66,10.48-13.66,10.75-6.2,24.53-2.51,30.74,8.24,6.2,10.74,2.51,24.53-8.24,30.74-3.47,2-7.31,3.02-11.21,3.02Zm-.07-44c-3.65,0-7.34,.93-10.71,2.88-10.27,5.93-13.8,19.1-7.87,29.37,2.87,4.97,7.51,8.53,13.06,10.02,5.55,1.49,11.34,.72,16.31-2.15,4.97-2.87,8.53-7.51,10.02-13.06,1.49-5.55,.72-11.34-2.15-16.31-3.98-6.89-11.22-10.75-18.66-10.75Z"/>
    <path class="cls-3" d="M328.21,624.07c-.66,0-1.33-.03-2-.09-5.99-.52-11.41-3.35-15.27-7.95-7.98-9.5-6.73-23.72,2.77-31.7,9.51-7.97,23.72-6.73,31.7,2.77,3.86,4.6,5.7,10.44,5.18,16.42-.52,5.99-3.35,11.41-7.95,15.27-4.09,3.43-9.15,5.27-14.42,5.27Zm-.06-43.99c-4.88,0-9.78,1.65-13.8,5.02-9.08,7.62-10.27,21.21-2.65,30.29,3.69,4.4,8.88,7.1,14.6,7.6,5.72,.51,11.29-1.26,15.69-4.95s7.1-8.88,7.6-14.6c.5-5.72-1.26-11.29-4.95-15.69-4.25-5.06-10.35-7.67-16.49-7.67Z"/>
    <path class="cls-3" d="M331.53,620.68c-5.28,0-10.34-1.83-14.42-5.27-4.6-3.86-7.43-9.29-7.95-15.27s1.32-11.82,5.18-16.42c7.97-9.5,22.19-10.75,31.7-2.77s10.75,22.2,2.77,31.7c-3.86,4.6-9.29,7.43-15.27,7.95-.67,.06-1.34,.09-2,.09Zm.06-43.99c-6.14,0-12.24,2.61-16.49,7.67-3.69,4.4-5.45,9.97-4.95,15.69,.5,5.72,3.2,10.9,7.6,14.6h0c4.4,3.69,9.97,5.45,15.69,4.95,5.72-.5,10.9-3.2,14.6-7.6,7.62-9.08,6.43-22.67-2.65-30.29-4.02-3.37-8.92-5.02-13.8-5.02Z"/>
    <path class="cls-3" d="M334.28,616.76c-3.9,0-7.75-1.02-11.21-3.02-5.2-3-8.93-7.86-10.48-13.66-1.56-5.8-.76-11.87,2.25-17.07,6.2-10.74,19.99-14.44,30.74-8.24,5.2,3,8.93,7.86,10.48,13.66,1.56,5.8,.76,11.87-2.25,17.07s-7.86,8.93-13.66,10.48c-1.94,.52-3.91,.78-5.86,.78Zm.07-44.02c-1.87,0-3.75,.25-5.6,.74-5.55,1.49-10.18,5.04-13.06,10.02s-3.63,10.77-2.15,16.31c1.49,5.55,5.04,10.18,10.02,13.06,4.97,2.87,10.77,3.63,16.31,2.15,5.55-1.49,10.18-5.04,13.05-10.02,5.93-10.27,2.4-23.44-7.87-29.37-3.31-1.91-6.99-2.89-10.71-2.89Z"/>
    <path class="cls-3" d="M336.35,612.42c-2.6,0-5.2-.46-7.71-1.37h0c-11.66-4.24-17.69-17.18-13.45-28.84,4.24-11.66,17.18-17.69,28.84-13.45,5.65,2.06,10.16,6.19,12.7,11.63,2.54,5.45,2.81,11.56,.75,17.2-2.06,5.65-6.19,10.16-11.63,12.7-3.03,1.41-6.25,2.12-9.5,2.12Zm-7.37-2.31c5.4,1.96,11.24,1.71,16.44-.72,5.21-2.43,9.15-6.74,11.12-12.13,1.96-5.4,1.71-11.23-.72-16.44-2.43-5.21-6.74-9.15-12.13-11.12-11.14-4.05-23.5,1.71-27.56,12.85-4.05,11.14,1.71,23.5,12.85,27.56h0Z"/>
    <path class="cls-3" d="M337.59,607.78c-1.29,0-2.6-.11-3.92-.34h0c-12.22-2.15-20.4-13.85-18.25-26.07,2.15-12.22,13.85-20.41,26.06-18.25,12.22,2.15,20.41,13.85,18.25,26.07-1.92,10.9-11.44,18.59-22.15,18.59Zm-3.74-1.33c11.67,2.05,22.85-5.77,24.91-17.44,2.06-11.67-5.77-22.85-17.44-24.91-11.68-2.06-22.85,5.77-24.91,17.44-2.06,11.67,5.77,22.85,17.44,24.91h0Z"/>
    <path class="cls-3" d="M338,603c-12.41,0-22.5-10.09-22.5-22.5s10.09-22.5,22.5-22.5,22.5,10.09,22.5,22.5-10.09,22.5-22.5,22.5Zm0-44c-11.85,0-21.5,9.64-21.5,21.5s9.65,21.5,21.5,21.5,21.5-9.64,21.5-21.5-9.65-21.5-21.5-21.5Z"/>
    <path class="cls-3" d="M337.57,598.23c-10.71,0-20.23-7.69-22.15-18.59-2.15-12.22,6.03-23.91,18.25-26.07,12.21-2.16,23.91,6.03,26.07,18.25,2.15,12.22-6.03,23.91-18.25,26.07h0c-1.32,.23-2.63,.34-3.92,.34Zm.02-44c-1.24,0-2.49,.11-3.74,.33-11.67,2.06-19.5,13.23-17.44,24.91,2.06,11.67,13.24,19.5,24.91,17.44h0c11.68-2.06,19.5-13.23,17.44-24.91-1.84-10.42-10.93-17.77-21.16-17.77Z"/>
    <path class="cls-3" d="M336.36,593.6c-9.19,0-17.84-5.68-21.17-14.81-4.24-11.66,1.79-24.59,13.45-28.84,5.65-2.06,11.76-1.79,17.2,.75,5.45,2.54,9.58,7.05,11.63,12.7,2.06,5.65,1.79,11.76-.75,17.2-2.54,5.45-7.05,9.58-12.7,11.63h0c-2.53,.92-5.12,1.36-7.67,1.36Zm-.01-44.01c-2.48,0-4.97,.43-7.37,1.31-11.14,4.06-16.9,16.42-12.85,27.56,4.05,11.14,16.42,16.9,27.56,12.85,5.4-1.96,9.71-5.91,12.13-11.12,2.43-5.21,2.68-11.04,.72-16.44-1.96-5.4-5.91-9.71-11.12-12.13-2.89-1.35-5.98-2.03-9.07-2.03Z"/>
    <path class="cls-3" d="M334.35,589.25c-7.78,0-15.36-4.04-19.52-11.25-3-5.21-3.8-11.27-2.25-17.07,1.56-5.81,5.28-10.66,10.48-13.66s11.27-3.8,17.07-2.25c5.81,1.56,10.66,5.28,13.66,10.48s3.8,11.27,2.25,17.07c-1.56,5.81-5.28,10.66-10.48,13.66-3.53,2.04-7.4,3.01-11.21,3.01Zm-.07-44.01c-3.73,0-7.4,.98-10.71,2.89-4.97,2.87-8.53,7.51-10.02,13.06-1.49,5.55-.72,11.34,2.15,16.31s7.51,8.53,13.06,10.02c5.55,1.49,11.34,.72,16.31-2.15,10.27-5.93,13.8-19.1,7.87-29.37-2.87-4.97-7.51-8.53-13.05-10.02-1.85-.5-3.73-.74-5.6-.74Z"/>
    <path class="cls-3" d="M331.58,585.31c-6.43,0-12.81-2.73-17.25-8.03-3.86-4.6-5.7-10.44-5.18-16.42s3.35-11.41,7.95-15.27c4.6-3.86,10.44-5.71,16.42-5.18,5.99,.52,11.41,3.35,15.27,7.95,7.97,9.5,6.73,23.72-2.77,31.7h0c-4.21,3.53-9.34,5.25-14.44,5.25Zm-.05-43.99c-5.04,0-9.88,1.75-13.78,5.03-4.4,3.69-7.1,8.88-7.6,14.6-.5,5.72,1.26,11.29,4.95,15.69,7.62,9.08,21.21,10.27,30.29,2.65,9.08-7.62,10.27-21.21,2.65-30.29-3.69-4.4-8.88-7.1-14.6-7.6-.64-.06-1.28-.08-1.91-.08Z"/>
    <path class="cls-3" d="M328.16,581.92c-5.11,0-10.24-1.72-14.44-5.25-9.5-7.97-10.75-22.2-2.77-31.7,3.86-4.6,9.29-7.43,15.27-7.95,5.99-.52,11.82,1.32,16.42,5.18,4.6,3.86,7.43,9.29,7.95,15.27,.52,5.99-1.31,11.82-5.18,16.42-4.44,5.3-10.83,8.03-17.25,8.03Zm.05-43.99c-.63,0-1.27,.03-1.91,.08-5.72,.5-10.9,3.2-14.6,7.6-7.62,9.08-6.43,22.67,2.65,30.29,9.08,7.62,22.67,6.43,30.29-2.65,3.69-4.4,5.45-9.97,4.95-15.69-.5-5.72-3.2-10.9-7.6-14.6-3.91-3.28-8.74-5.03-13.78-5.03Z"/>
    <path class="cls-3" d="M324.21,579.18c-3.81,0-7.68-.97-11.21-3.01-5.2-3-8.93-7.86-10.48-13.66-1.56-5.8-.76-11.87,2.25-17.07s7.86-8.93,13.66-10.48c5.81-1.56,11.87-.76,17.07,2.25,10.74,6.2,14.44,19.99,8.24,30.74-4.16,7.21-11.74,11.25-19.52,11.25Zm.07-44c-1.87,0-3.75,.25-5.6,.74-5.55,1.49-10.18,5.04-13.06,10.02-5.93,10.27-2.4,23.44,7.87,29.37,10.27,5.92,23.44,2.39,29.37-7.87,2.87-4.97,3.63-10.77,2.15-16.31-1.49-5.55-5.04-10.18-10.02-13.06-3.31-1.91-6.99-2.89-10.71-2.89Z"/>
    <path class="cls-3" d="M319.92,577.17c-2.6,0-5.2-.46-7.71-1.37-11.66-4.24-17.69-17.18-13.45-28.84,2.06-5.65,6.19-10.16,11.63-12.7,5.45-2.54,11.56-2.81,17.2-.75,5.65,2.06,10.16,6.19,12.7,11.63,2.54,5.45,2.81,11.56,.75,17.2-2.06,5.65-6.19,10.16-11.63,12.7-3.02,1.41-6.25,2.12-9.5,2.12Zm-.03-44.02c-3.1,0-6.18,.68-9.07,2.03-5.2,2.43-9.15,6.74-11.12,12.13-4.05,11.14,1.71,23.5,12.85,27.56,5.4,1.96,11.23,1.71,16.44-.72,5.2-2.43,9.15-6.74,11.12-12.13h0c1.96-5.4,1.71-11.23-.72-16.44-2.43-5.21-6.74-9.15-12.13-11.12-2.4-.87-4.89-1.31-7.37-1.31Z"/>
    <path class="cls-3" d="M315.29,575.92c-1.29,0-2.6-.11-3.92-.34-12.22-2.15-20.41-13.85-18.25-26.07,2.15-12.22,13.85-20.41,26.07-18.25,12.22,2.15,20.4,13.85,18.25,26.07-1.92,10.9-11.44,18.59-22.15,18.59Zm-.02-44c-10.23,0-19.33,7.35-21.16,17.77-2.06,11.67,5.77,22.85,17.44,24.91,11.67,2.06,22.85-5.77,24.91-17.44,2.06-11.67-5.77-22.85-17.44-24.91-1.26-.22-2.51-.33-3.74-.33Z"/>
  </g>
  <path class="cls-3" d="M912,651H240V357H912v294Zm-666-6H906V363H246v282Z"/>
  <path class="cls-3" d="M576,633c-71.13,0-129-57.87-129-129s57.87-129,129-129,129,57.87,129,129-57.87,129-129,129Zm0-252c-67.82,0-123,55.18-123,123s55.18,123,123,123,123-55.18,123-123-55.18-123-123-123Z"/>
  <path class="cls-3" d="M530.82,473.81l-17.82-17.43,14.74-15.25,17.82,17.82c9.06-6.15,19.18-9.23,30.38-9.23s21.41,3.08,30.38,9.23l17.82-17.82,14.87,15.25-17.82,17.43c6.07,9.4,9.1,19.44,9.1,30.12s-3.03,20.85-9.1,30.25l17.82,17.43-14.87,15.25-17.82-17.95c-8.97,6.24-19.1,9.36-30.38,9.36s-21.32-3.12-30.38-9.36l-17.82,17.95-14.74-15.25,17.82-17.43c-6.07-9.4-9.1-19.48-9.1-30.25s3.03-20.72,9.1-30.12Zm11.79,30.12c0,9.23,3.25,17.09,9.74,23.58,6.49,6.49,14.31,9.74,23.46,9.74s16.96-3.25,23.46-9.74c6.49-6.49,9.74-14.36,9.74-23.58s-3.23-16.96-9.68-23.46c-6.45-6.49-14.29-9.74-23.52-9.74s-16.96,3.25-23.46,9.74c-6.5,6.49-9.74,14.31-9.74,23.46Z"/>
  <g class="cls-2">
    <g>
      <circle class="cls-5" cx="311.94" cy="562.08" r="49.5"/>
      <g>
        <path class="cls-3" d="M302.39,364.5l-5.16,48.85-9.94-1.05,3.93-37.23-11.97,4.45,1.05-9.94,15.65-5.75,6.44,.68Z"/>
        <path class="cls-3" d="M338.38,411.42c-4.05,4.29-8.93,6.14-14.66,5.53-5.73-.6-10.12-3.43-13.18-8.47-3.06-5.04-4.2-11.3-3.41-18.78,.79-7.48,3.21-13.36,7.26-17.66,4.05-4.29,8.93-6.13,14.66-5.53,5.73,.61,10.12,3.43,13.18,8.47,3.06,5.04,4.2,11.3,3.41,18.78-.79,7.48-3.21,13.36-7.26,17.65Zm-3.76-30.64c-1.23-3.13-3.4-4.86-6.53-5.19-3.13-.33-5.62,.91-7.47,3.71-1.85,2.81-3.03,6.63-3.54,11.45s-.15,8.81,1.07,11.94c1.22,3.13,3.4,4.86,6.53,5.19,3.13,.33,5.62-.91,7.47-3.71,1.85-2.81,3.03-6.62,3.54-11.45s.15-8.81-1.07-11.94Z"/>
      </g>
      <g>
        <path class="cls-3" d="M830.34,592.15l-5.16,48.85-9.94-1.05,3.93-37.23-11.97,4.45,1.05-9.94,15.65-5.75,6.44,.68Z"/>
        <path class="cls-3" d="M866.33,639.07c-4.05,4.29-8.93,6.14-14.66,5.53-5.73-.6-10.12-3.43-13.18-8.47-3.06-5.04-4.2-11.3-3.41-18.78,.79-7.48,3.21-13.36,7.26-17.66,4.05-4.29,8.93-6.13,14.66-5.53,5.73,.61,10.12,3.43,13.18,8.47,3.06,5.04,4.2,11.3,3.41,18.78-.79,7.48-3.21,13.36-7.26,17.65Zm-3.76-30.64c-1.23-3.13-3.4-4.86-6.53-5.19-3.13-.33-5.62,.91-7.47,3.71-1.85,2.81-3.03,6.63-3.54,11.45s-.15,8.81,1.07,11.94c1.22,3.13,3.4,4.86,6.53,5.19,3.13,.33,5.62-.91,7.47-3.71,1.85-2.81,3.03-6.62,3.54-11.45s.15-8.81-1.07-11.94Z"/>
      </g>
      <path class="cls-3" d="M837.09,430.51l-7.94-9.6,8.13-6.81,7.92,9.79c4.82-2.58,10.02-3.58,15.59-2.99,5.61,.59,10.48,2.65,14.62,6.18l9.79-7.92,6.59,8.36-9.77,7.73c2.52,4.99,3.5,10.14,2.94,15.45s-2.6,10.21-6.11,14.56l7.94,9.6-8.19,6.8-7.91-9.86c-4.79,2.63-9.99,3.65-15.59,3.06-5.57-.59-10.44-2.67-14.61-6.25l-9.8,7.98-6.53-8.36,9.77-7.73c-2.52-4.99-3.5-10.16-2.94-15.51,.56-5.31,2.6-10.14,6.11-14.5Zm4.28,15.59c-.48,4.59,.72,8.67,3.6,12.24,2.89,3.57,6.6,5.59,11.15,6.07s8.6-.72,12.17-3.61c3.57-2.89,5.6-6.62,6.08-11.21s-.71-8.6-3.58-12.17c-2.87-3.57-6.59-5.59-11.18-6.08s-8.6,.72-12.17,3.61c-3.57,2.89-5.59,6.6-6.07,11.15Z"/>
      <path class="cls-3" d="M900.98,715.19c-.77,0-1.54-.04-2.32-.12h0l-682.28-72.08c-12.04-1.27-20.8-12.1-19.53-24.15l32.36-306.38c1.27-12.04,12.1-20.8,24.15-19.53l682.28,72.08c12.04,1.27,20.8,12.1,19.53,24.15l-32.36,306.38c-1.19,11.26-10.74,19.65-21.82,19.65Zm-1.27-10.07c6.56,.69,12.46-4.08,13.15-10.64l32.36-306.38c.69-6.56-4.08-12.46-10.64-13.15L252.3,302.88c-6.55-.69-12.46,4.08-13.15,10.64l-32.36,306.38c-.69,6.56,4.08,12.46,10.64,13.15l682.28,72.08h0Z"/>
      <g>
        <path class="cls-3" d="M306.84,547.34c-.79,0-1.58-.04-2.38-.13-12.34-1.3-21.31-12.4-20.01-24.74s12.4-21.32,24.74-20.01c5.98,.63,11.35,3.55,15.13,8.22,3.78,4.67,5.51,10.54,4.88,16.51-1.22,11.54-11,20.14-22.36,20.14Zm-.03-44c-10.85,0-20.2,8.22-21.37,19.24-1.25,11.79,7.33,22.39,19.12,23.64,11.78,1.24,22.39-7.33,23.64-19.12,1.25-11.79-7.33-22.39-19.12-23.64-.76-.08-1.52-.12-2.27-.12Z"/>
        <path class="cls-3" d="M302.01,547.25c-11.7,0-21.61-9.09-22.43-20.94-.42-6,1.53-11.79,5.47-16.33,3.95-4.53,9.42-7.26,15.42-7.68,12.38-.85,23.14,8.51,24,20.89h0c.86,12.38-8.51,23.15-20.89,24-.53,.04-1.05,.05-1.57,.05Zm.03-44c-.5,0-1,.02-1.5,.05-5.73,.4-10.96,3-14.73,7.33-3.77,4.33-5.63,9.87-5.23,15.6,.82,11.83,11.11,20.78,22.94,19.96,11.83-.82,20.78-11.11,19.96-22.94h0c-.79-11.32-10.25-20.01-21.43-20.01Z"/>
        <path class="cls-3" d="M297.25,548.01c-4.04,0-8.01-1.09-11.56-3.23-5.15-3.1-8.79-8.02-10.24-13.85-1.45-5.83-.54-11.88,2.55-17.03,3.1-5.15,8.02-8.78,13.85-10.24,5.83-1.45,11.88-.54,17.03,2.55,5.15,3.1,8.79,8.02,10.24,13.85,2.99,12.04-4.36,24.27-16.4,27.27-1.81,.45-3.65,.67-5.47,.67Zm.08-44.02c-1.74,0-3.49,.21-5.23,.64-5.57,1.39-10.27,4.86-13.23,9.78s-3.83,10.7-2.44,16.27c1.39,5.57,4.86,10.27,9.78,13.23,4.92,2.96,10.7,3.83,16.27,2.44,11.5-2.86,18.54-14.55,15.67-26.05-1.39-5.57-4.86-10.27-9.78-13.23-3.39-2.04-7.19-3.08-11.04-3.08Z"/>
        <path class="cls-3" d="M292.77,549.57c-2.73,0-5.46-.5-8.08-1.51-5.61-2.16-10.04-6.37-12.49-11.86-2.44-5.49-2.6-11.61-.44-17.21,2.16-5.61,6.37-10.04,11.86-12.49,5.49-2.44,11.6-2.6,17.22-.44,5.61,2.16,10.04,6.37,12.49,11.86,2.44,5.49,2.6,11.61,.44,17.21-2.16,5.61-6.37,10.04-11.86,12.49-2.92,1.3-6.03,1.95-9.13,1.95Zm-.02-44.02c-2.97,0-5.93,.62-8.73,1.87-5.25,2.33-9.27,6.57-11.33,11.93-2.06,5.36-1.91,11.2,.42,16.45s6.57,9.27,11.93,11.33c5.36,2.06,11.2,1.91,16.45-.42,5.25-2.33,9.27-6.57,11.33-11.93,2.06-5.36,1.91-11.2-.42-16.45s-6.57-9.27-11.93-11.33c-2.51-.96-5.12-1.44-7.72-1.44Z"/>
        <path class="cls-3" d="M288.61,551.89c-1.45,0-2.9-.14-4.35-.42-5.9-1.15-11-4.53-14.35-9.51-3.36-4.98-4.57-10.98-3.42-16.88,1.15-5.9,4.53-11,9.51-14.36,4.98-3.36,10.98-4.58,16.88-3.42,5.9,1.15,11,4.53,14.35,9.51h0c3.36,4.98,4.57,10.98,3.42,16.88-1.15,5.9-4.53,11-9.51,14.36-3.76,2.53-8.09,3.85-12.52,3.85Zm-.09-44.01c-4.24,0-8.38,1.26-11.97,3.68-4.76,3.21-7.99,8.08-9.09,13.72s.06,11.36,3.27,16.13c3.21,4.76,8.08,7.99,13.72,9.09,5.64,1.1,11.36-.06,16.13-3.27,4.76-3.21,7.99-8.08,9.09-13.72,1.1-5.64-.06-11.36-3.27-16.13h0c-3.21-4.76-8.08-7.99-13.72-9.09-1.39-.27-2.78-.4-4.16-.4Z"/>
        <path class="cls-3" d="M284.85,554.89c-.14,0-.28,0-.42,0-6.01-.11-11.62-2.55-15.79-6.88-4.17-4.33-6.41-10.02-6.3-16.03,.11-6.01,2.55-11.62,6.88-15.79,4.33-4.17,10.03-6.39,16.03-6.3,6.01,.11,11.62,2.55,15.79,6.88,4.17,4.33,6.41,10.02,6.3,16.03-.11,6.01-2.55,11.62-6.88,15.79-4.23,4.08-9.76,6.31-15.61,6.31Zm-.02-44c-5.6,0-10.88,2.13-14.92,6.03-4.13,3.99-6.47,9.35-6.57,15.09-.1,5.74,2.04,11.18,6.02,15.31,3.99,4.13,9.35,6.47,15.09,6.57,5.75,.09,11.18-2.04,15.31-6.02,4.13-3.99,6.47-9.35,6.57-15.09,.1-5.74-2.04-11.18-6.02-15.31h0c-3.99-4.13-9.35-6.47-15.09-6.57-.13,0-.27,0-.4,0Z"/>
        <path class="cls-3" d="M281.66,558.5c-4.59,0-9.22-1.4-13.21-4.3-10.03-7.3-12.26-21.4-4.96-31.43,3.54-4.86,8.75-8.05,14.69-8.99,5.94-.94,11.88,.5,16.74,4.03h0c4.86,3.54,8.05,8.75,8.99,14.69s-.49,11.88-4.03,16.74c-4.4,6.05-11.27,9.26-18.23,9.26Zm.07-44c-1.13,0-2.26,.09-3.4,.27-5.67,.9-10.66,3.95-14.04,8.59-6.97,9.59-4.85,23.06,4.74,30.03,9.59,6.97,23.06,4.85,30.03-4.74,6.97-9.59,4.85-23.06-4.74-30.03h0c-3.71-2.7-8.09-4.12-12.6-4.12Z"/>
        <path class="cls-3" d="M279.19,562.61c-3.31,0-6.67-.73-9.84-2.28-11.15-5.44-15.79-18.94-10.34-30.09,2.64-5.4,7.22-9.45,12.9-11.4,5.68-1.96,11.79-1.58,17.19,1.06h0c5.4,2.64,9.45,7.22,11.4,12.9s1.58,11.79-1.06,17.19c-3.9,7.98-11.92,12.62-20.25,12.62Zm.05-44.01c-2.35,0-4.72,.39-7.01,1.18-5.43,1.87-9.81,5.74-12.33,10.9-5.2,10.65-.77,23.55,9.88,28.75,10.65,5.2,23.55,.77,28.75-9.88,2.52-5.16,2.88-10.99,1.01-16.42-1.87-5.43-5.74-9.81-10.9-12.33h0c-2.98-1.46-6.19-2.19-9.42-2.19Z"/>
        <path class="cls-3" d="M277.53,567.1c-2.09,0-4.19-.29-6.25-.89-5.78-1.66-10.56-5.47-13.47-10.73-2.91-5.26-3.6-11.33-1.94-17.11,1.66-5.78,5.47-10.56,10.73-13.47,5.26-2.91,11.34-3.6,17.11-1.94,11.92,3.43,18.84,15.91,15.41,27.84-1.66,5.78-5.47,10.56-10.73,13.47-3.38,1.87-7.1,2.83-10.86,2.83Zm-.06-44.02c-3.6,0-7.15,.91-10.38,2.7-5.02,2.78-8.66,7.35-10.25,12.87s-.93,11.33,1.85,16.35c2.78,5.02,7.35,8.67,12.87,10.25,5.52,1.58,11.33,.93,16.35-1.85,5.02-2.78,8.66-7.35,10.25-12.87,3.27-11.39-3.33-23.33-14.73-26.6-1.97-.57-3.98-.85-5.97-.85Z"/>
        <path class="cls-3" d="M276.63,571.8c-.8,0-1.6-.04-2.41-.13-12.34-1.3-21.31-12.4-20.01-24.74,1.3-12.34,12.4-21.31,24.74-20.01,12.34,1.3,21.31,12.4,20.01,24.74-.63,5.98-3.55,11.35-8.23,15.13-4.04,3.27-8.98,5.01-14.11,5.01Zm-.06-44c-10.85,0-20.2,8.22-21.37,19.24-1.25,11.79,7.33,22.39,19.12,23.64,5.71,.6,11.31-1.05,15.78-4.67,4.47-3.61,7.26-8.75,7.86-14.46,1.25-11.79-7.33-22.39-19.12-23.64-.76-.08-1.52-.12-2.27-.12Z"/>
        <path class="cls-3" d="M276.48,576.59c-11.7,0-21.61-9.09-22.43-20.94-.42-6,1.53-11.79,5.47-16.33,3.95-4.53,9.42-7.26,15.42-7.68,12.38-.86,23.14,8.51,24,20.89,.42,6-1.53,11.79-5.47,16.33-3.95,4.53-9.42,7.26-15.42,7.68-.53,.04-1.05,.05-1.57,.05Zm.03-44c-.5,0-1,.02-1.5,.05-5.73,.4-10.96,3-14.73,7.33-3.77,4.33-5.63,9.87-5.23,15.6,.82,11.83,11.1,20.78,22.94,19.96,5.73-.4,10.96-3,14.73-7.33,3.77-4.33,5.63-9.87,5.23-15.6-.79-11.32-10.25-20.01-21.43-20.01Z"/>
        <path class="cls-3" d="M277.21,581.33c-4.04,0-8.01-1.09-11.56-3.23-5.15-3.1-8.79-8.02-10.24-13.85-1.45-5.83-.54-11.88,2.55-17.03,3.1-5.15,8.02-8.78,13.85-10.24,5.83-1.45,11.88-.54,17.03,2.55,5.15,3.1,8.79,8.02,10.24,13.85,1.45,5.83,.54,11.88-2.55,17.03-3.1,5.15-8.02,8.78-13.85,10.24-1.81,.45-3.65,.67-5.47,.67Zm.08-44.02c-1.74,0-3.49,.21-5.23,.64h0c-5.57,1.39-10.27,4.86-13.23,9.78s-3.83,10.7-2.44,16.27c1.39,5.57,4.86,10.27,9.78,13.23,4.92,2.96,10.7,3.83,16.27,2.44,5.57-1.39,10.27-4.86,13.23-9.78s3.83-10.7,2.44-16.27c-1.39-5.57-4.86-10.27-9.78-13.23-3.39-2.04-7.19-3.08-11.04-3.08Z"/>
        <path class="cls-3" d="M278.84,585.86c-8.62,0-16.87-4.98-20.59-13.36-5.04-11.34,.08-24.66,11.42-29.7h0c11.34-5.04,24.66,.08,29.7,11.42,5.04,11.34-.08,24.66-11.42,29.7-2.96,1.32-6.06,1.94-9.11,1.94Zm-8.77-42.15h0c-10.83,4.82-15.73,17.55-10.91,28.38,4.82,10.83,17.55,15.73,28.38,10.91,10.83-4.82,15.73-17.55,10.91-28.38-4.82-10.83-17.55-15.73-28.38-10.91Z"/>
        <path class="cls-3" d="M281.16,590.04c-7.24,0-14.35-3.48-18.69-9.92-6.93-10.29-4.2-24.3,6.09-31.23h0c10.29-6.93,24.3-4.2,31.23,6.09,6.93,10.29,4.2,24.3-6.09,31.23-3.85,2.59-8.22,3.83-12.54,3.83Zm-.08-44c-4.24,0-8.38,1.25-11.97,3.68h0c-9.83,6.62-12.44,20.01-5.82,29.84,6.62,9.83,20.01,12.44,29.84,5.82,9.83-6.62,12.44-20.01,5.82-29.84-3.21-4.76-8.08-7.99-13.72-9.09-1.39-.27-2.78-.4-4.16-.4Z"/>
        <path class="cls-3" d="M284.15,593.78c-.14,0-.28,0-.42,0-6.01-.11-11.62-2.55-15.79-6.88-4.17-4.33-6.41-10.02-6.3-16.03,.11-6.01,2.55-11.62,6.88-15.79,4.33-4.17,10.03-6.41,16.03-6.3,6.01,.11,11.62,2.55,15.79,6.88,4.17,4.33,6.41,10.02,6.3,16.03-.11,6.01-2.55,11.62-6.88,15.79-4.23,4.08-9.76,6.31-15.61,6.31Zm-.02-44c-5.6,0-10.88,2.13-14.92,6.03-4.13,3.99-6.47,9.35-6.57,15.09-.1,5.74,2.04,11.18,6.02,15.31,3.99,4.13,9.35,6.47,15.09,6.57,5.75,.06,11.18-2.04,15.31-6.02,4.13-3.99,6.47-9.35,6.57-15.09,.1-5.74-2.04-11.18-6.02-15.31-3.99-4.13-9.35-6.47-15.09-6.57-.13,0-.27,0-.4,0Z"/>
        <path class="cls-3" d="M287.71,596.93c-4.72,0-9.3-1.48-13.19-4.31-4.86-3.54-8.05-8.75-8.99-14.69s.49-11.88,4.03-16.74h0c7.3-10.03,21.4-12.26,31.43-4.96,10.03,7.3,12.26,21.4,4.96,31.43-3.54,4.86-8.75,8.05-14.69,8.99-1.19,.19-2.38,.28-3.56,.28Zm-17.34-35.15c-3.38,4.64-4.75,10.33-3.85,16,.9,5.67,3.95,10.66,8.59,14.04,4.64,3.38,10.33,4.74,16,3.85,5.67-.9,10.66-3.95,14.04-8.59,6.97-9.59,4.85-23.06-4.74-30.03-9.59-6.97-23.06-4.85-30.03,4.74h0Z"/>
        <path class="cls-3" d="M291.83,599.39c-3.31,0-6.67-.73-9.84-2.28-5.4-2.64-9.45-7.22-11.4-12.9-1.95-5.68-1.58-11.79,1.06-17.19,5.44-11.15,18.95-15.79,30.09-10.34,11.15,5.44,15.79,18.94,10.34,30.09-3.9,7.98-11.92,12.62-20.25,12.62Zm-19.73-32.15l.45,.22c-2.52,5.16-2.88,10.99-1.01,16.42,1.87,5.43,5.74,9.81,10.9,12.33s10.99,2.88,16.42,1.01c5.43-1.87,9.81-5.74,12.33-10.9,5.2-10.65,.77-23.55-9.88-28.75-10.65-5.2-23.55-.77-28.75,9.88l-.45-.22Z"/>
        <path class="cls-3" d="M296.37,601.13c-2.09,0-4.19-.29-6.25-.89-5.78-1.66-10.56-5.47-13.47-10.73s-3.6-11.33-1.94-17.11h0c3.43-11.92,15.91-18.84,27.84-15.41,5.78,1.66,10.56,5.47,13.47,10.73,2.91,5.26,3.6,11.33,1.94,17.11-1.66,5.78-5.47,10.56-10.73,13.47-3.38,1.87-7.1,2.83-10.86,2.83Zm-20.7-28.45c-1.59,5.52-.93,11.33,1.85,16.35,2.78,5.02,7.35,8.66,12.87,10.25,5.52,1.58,11.33,.93,16.35-1.85,5.02-2.78,8.66-7.35,10.25-12.87s.93-11.33-1.85-16.35c-2.78-5.02-7.35-8.67-12.87-10.25-11.4-3.27-23.33,3.33-26.6,14.73h0Z"/>
        <path class="cls-3" d="M301.06,602.03c-.79,0-1.58-.04-2.38-.13-5.98-.63-11.35-3.55-15.13-8.22s-5.51-10.54-4.88-16.51c1.3-12.34,12.4-21.32,24.74-20.01,5.98,.63,11.35,3.55,15.13,8.22,3.78,4.67,5.51,10.54,4.88,16.51-1.22,11.54-11,20.14-22.36,20.14Zm-.03-44c-10.85,0-20.2,8.22-21.37,19.24h0c-.6,5.71,1.05,11.32,4.67,15.78s8.75,7.26,14.46,7.86c11.78,1.23,22.39-7.33,23.64-19.12,1.25-11.79-7.33-22.39-19.12-23.64-.76-.08-1.52-.12-2.27-.12Z"/>
        <path class="cls-3" d="M305.82,602.12c-11.7,0-21.61-9.09-22.43-20.94-.42-6,1.53-11.79,5.47-16.33,3.95-4.53,9.42-7.26,15.42-7.68,12.37-.84,23.14,8.51,24,20.89,.86,12.38-8.51,23.14-20.89,24-.53,.04-1.05,.05-1.57,.05Zm.03-44c-.5,0-1,.02-1.5,.05-5.73,.4-10.96,3-14.73,7.33s-5.63,9.87-5.23,15.6c.82,11.83,11.1,20.77,22.94,19.96,11.83-.82,20.78-11.11,19.96-22.94-.79-11.32-10.25-20.01-21.43-20.01Z"/>
        <path class="cls-3" d="M310.53,601.38c-4.04,0-8.01-1.09-11.56-3.23-5.15-3.1-8.78-8.02-10.24-13.85h0c-1.45-5.83-.54-11.88,2.55-17.03,3.1-5.15,8.02-8.78,13.85-10.24,5.83-1.45,11.88-.54,17.03,2.55,5.15,3.1,8.78,8.02,10.24,13.85,1.45,5.83,.54,11.88-2.55,17.03-3.1,5.15-8.02,8.78-13.85,10.24-1.81,.45-3.65,.67-5.47,.67Zm.08-44.02c-1.74,0-3.5,.21-5.23,.64-5.57,1.39-10.27,4.86-13.23,9.78s-3.83,10.7-2.44,16.27h0c1.39,5.57,4.86,10.27,9.78,13.23s10.7,3.83,16.27,2.44c5.57-1.39,10.27-4.86,13.23-9.78s3.83-10.7,2.44-16.27c-1.39-5.57-4.86-10.27-9.78-13.23-3.39-2.04-7.19-3.08-11.04-3.08Z"/>
        <path class="cls-3" d="M315.11,599.83c-2.73,0-5.46-.5-8.08-1.51-5.61-2.16-10.04-6.37-12.49-11.86-2.44-5.49-2.6-11.61-.44-17.21,2.16-5.61,6.37-10.04,11.86-12.49,5.49-2.44,11.61-2.6,17.21-.44,5.61,2.16,10.04,6.37,12.49,11.86,2.44,5.49,2.6,11.61,.44,17.21-2.16,5.61-6.37,10.04-11.86,12.49-2.92,1.3-6.03,1.95-9.13,1.95Zm-.02-44.02c-2.97,0-5.93,.62-8.73,1.87-5.25,2.33-9.27,6.57-11.33,11.93-2.06,5.36-1.91,11.2,.42,16.45s6.57,9.27,11.93,11.33c5.36,2.06,11.2,1.91,16.45-.42,5.25-2.33,9.27-6.57,11.33-11.93s1.91-11.2-.42-16.45c-2.33-5.25-6.57-9.27-11.93-11.33-2.51-.96-5.12-1.44-7.72-1.44Z"/>
        <path class="cls-3" d="M319.35,597.5c-1.45,0-2.9-.14-4.35-.42-5.9-1.15-11-4.53-14.35-9.51h0c-3.36-4.98-4.57-10.98-3.42-16.88,1.15-5.9,4.53-11,9.51-14.36,4.98-3.36,10.98-4.57,16.88-3.42,5.9,1.15,11,4.53,14.35,9.51,3.36,4.98,4.57,10.98,3.42,16.88-1.15,5.9-4.53,11-9.51,14.36-3.76,2.53-8.09,3.85-12.52,3.85Zm-.09-44.01c-4.24,0-8.38,1.26-11.97,3.68-4.76,3.21-7.99,8.08-9.09,13.72-1.1,5.64,.06,11.36,3.27,16.13h0c3.21,4.76,8.08,7.99,13.72,9.09,5.64,1.1,11.36-.06,16.13-3.27,4.76-3.21,7.99-8.08,9.09-13.72,1.1-5.64-.06-11.36-3.27-16.13s-8.08-7.99-13.72-9.09c-1.39-.27-2.78-.4-4.16-.4Z"/>
        <path class="cls-3" d="M323.04,594.48c-.14,0-.28,0-.42,0-6.01-.11-11.62-2.55-15.79-6.88-4.17-4.32-6.41-10.02-6.3-16.03,.11-6.01,2.55-11.62,6.88-15.79,8.93-8.61,23.2-8.36,31.81,.57,4.17,4.33,6.41,10.02,6.3,16.03-.11,6.01-2.55,11.62-6.88,15.79-4.23,4.08-9.76,6.31-15.61,6.31Zm-.01-43.99c-5.38,0-10.76,2-14.92,6.02-4.13,3.99-6.47,9.35-6.57,15.09-.1,5.74,2.04,11.18,6.02,15.31h0c3.99,4.13,9.35,6.47,15.09,6.57,5.74,.09,11.18-2.04,15.31-6.02,4.13-3.99,6.47-9.35,6.57-15.09,.1-5.74-2.04-11.18-6.02-15.31-4.21-4.37-9.84-6.56-15.48-6.56Z"/>
        <path class="cls-3" d="M326.12,590.87c-4.72,0-9.3-1.48-13.19-4.31h0c-4.86-3.54-8.05-8.75-8.99-14.69s.49-11.88,4.03-16.74,8.75-8.05,14.69-8.99c5.94-.93,11.88,.49,16.74,4.03,4.86,3.54,8.05,8.75,8.99,14.69s-.49,11.88-4.03,16.74-8.75,8.05-14.69,8.99c-1.19,.19-2.38,.28-3.56,.28Zm.09-44.01c-1.13,0-2.26,.09-3.4,.27-5.67,.9-10.66,3.95-14.04,8.59s-4.75,10.33-3.85,16c.9,5.67,3.95,10.66,8.59,14.04h0c4.64,3.38,10.32,4.74,16,3.85,5.67-.9,10.66-3.95,14.04-8.59s4.75-10.33,3.85-16c-.9-5.67-3.95-10.66-8.59-14.04-3.71-2.7-8.09-4.12-12.6-4.12Z"/>
        <path class="cls-3" d="M328.61,586.75c-3.31,0-6.67-.73-9.84-2.28h0c-11.15-5.44-15.79-18.94-10.34-30.09,2.64-5.4,7.22-9.45,12.9-11.4,5.68-1.95,11.79-1.58,17.19,1.06s9.45,7.22,11.4,12.9c1.95,5.68,1.58,11.79-1.06,17.19-3.9,7.98-11.92,12.62-20.25,12.62Zm-9.4-3.18c10.65,5.2,23.55,.77,28.75-9.88,2.52-5.16,2.88-10.99,1.01-16.42-1.87-5.43-5.74-9.81-10.9-12.33-5.16-2.52-10.99-2.88-16.42-1.01-5.43,1.87-9.81,5.74-12.33,10.9-5.2,10.65-.77,23.55,9.88,28.75h0Z"/>
        <path class="cls-3" d="M330.35,582.28c-2.05,0-4.14-.28-6.2-.88h0c-5.78-1.66-10.56-5.47-13.47-10.73-2.91-5.26-3.6-11.33-1.94-17.11,1.66-5.78,5.47-10.56,10.73-13.47,5.26-2.91,11.34-3.6,17.11-1.94,5.78,1.66,10.56,5.47,13.47,10.73,2.91,5.26,3.6,11.33,1.94,17.11-2.83,9.86-11.86,16.29-21.63,16.29Zm-5.93-1.84c11.4,3.27,23.33-3.33,26.6-14.73,1.59-5.52,.93-11.33-1.85-16.35-2.78-5.02-7.35-8.66-12.87-10.25-5.52-1.59-11.33-.93-16.35,1.85-5.02,2.78-8.66,7.35-10.25,12.87s-.93,11.33,1.85,16.35c2.78,5.02,7.35,8.67,12.87,10.25h0Z"/>
        <path class="cls-3" d="M331.3,577.58c-.79,0-1.58-.04-2.38-.13-5.98-.63-11.35-3.55-15.13-8.22s-5.51-10.54-4.88-16.51c1.3-12.34,12.4-21.32,24.74-20.01,5.98,.63,11.35,3.55,15.13,8.22,3.78,4.67,5.51,10.54,4.88,16.51-1.22,11.54-11,20.14-22.36,20.14Zm-.03-44c-10.85,0-20.2,8.22-21.36,19.24-.6,5.71,1.05,11.32,4.67,15.78s8.75,7.26,14.46,7.86c11.78,1.23,22.39-7.33,23.64-19.12,.6-5.71-1.05-11.32-4.67-15.78s-8.75-7.26-14.46-7.86c-.76-.08-1.52-.12-2.27-.12Z"/>
        <path class="cls-3" d="M331.35,572.78c-11.7,0-21.61-9.09-22.43-20.94-.42-6,1.53-11.79,5.47-16.33,3.95-4.53,9.42-7.26,15.42-7.68,12.38-.86,23.15,8.51,24,20.89,.86,12.38-8.51,23.15-20.89,24-.53,.04-1.05,.05-1.57,.05Zm.03-44c-.5,0-1,.02-1.5,.05-5.73,.4-10.96,3-14.73,7.33-3.77,4.33-5.63,9.87-5.23,15.6,.82,11.83,11.11,20.77,22.94,19.96,11.83-.82,20.78-11.11,19.96-22.94-.79-11.32-10.25-20.01-21.43-20.01Z"/>
        <path class="cls-3" d="M330.58,568.06c-4.04,0-8.01-1.09-11.56-3.23-5.15-3.1-8.78-8.02-10.24-13.85-1.45-5.83-.54-11.88,2.55-17.03,3.1-5.15,8.02-8.78,13.85-10.24,5.83-1.45,11.88-.54,17.03,2.55,5.15,3.1,8.78,8.02,10.24,13.85,1.45,5.83,.54,11.88-2.55,17.03s-8.02,8.79-13.85,10.24c-1.81,.45-3.65,.67-5.47,.67Zm.08-44.02c-1.74,0-3.5,.21-5.23,.64-5.57,1.39-10.27,4.86-13.23,9.78-2.96,4.92-3.83,10.7-2.44,16.27,1.39,5.57,4.86,10.27,9.78,13.23s10.7,3.83,16.27,2.44c5.57-1.39,10.27-4.86,13.23-9.78s3.83-10.7,2.44-16.27c-1.39-5.57-4.86-10.27-9.78-13.23-3.39-2.04-7.19-3.08-11.04-3.08Z"/>
        <path class="cls-3" d="M329.09,563.51c-8.62,0-16.87-4.98-20.59-13.36-5.04-11.34,.08-24.66,11.42-29.7,11.34-5.04,24.66,.08,29.7,11.42,5.04,11.34-.08,24.66-11.42,29.7h0c-2.96,1.32-6.06,1.94-9.11,1.94Zm-.06-44c-2.91,0-5.87,.6-8.7,1.85-10.83,4.82-15.73,17.55-10.91,28.38,4.82,10.83,17.55,15.73,28.38,10.91h0c10.83-4.82,15.73-17.55,10.91-28.38-3.56-8-11.44-12.76-19.68-12.76Z"/>
        <path class="cls-3" d="M326.77,559.31c-7.24,0-14.35-3.48-18.69-9.92-6.93-10.29-4.2-24.3,6.09-31.23,10.29-6.93,24.3-4.2,31.23,6.09,6.93,10.29,4.2,24.3-6.09,31.23-3.85,2.59-8.22,3.83-12.54,3.83Zm-.08-44c-4.24,0-8.38,1.25-11.97,3.68-9.83,6.62-12.44,20.01-5.82,29.84,6.62,9.83,20.01,12.44,29.84,5.82,9.83-6.62,12.44-20.01,5.82-29.84-3.21-4.76-8.08-7.99-13.72-9.09-1.39-.27-2.78-.4-4.16-.4Z"/>
        <path class="cls-3" d="M323.74,555.59c-.14,0-.28,0-.42,0-6.01-.11-11.62-2.55-15.79-6.88-4.17-4.32-6.41-10.02-6.3-16.03,.11-6.01,2.55-11.62,6.88-15.79,4.33-4.17,10.02-6.38,16.03-6.3,6.01,.11,11.62,2.55,15.79,6.88,4.17,4.33,6.41,10.02,6.3,16.03-.11,6.01-2.55,11.62-6.88,15.79-4.23,4.08-9.76,6.31-15.61,6.31Zm-.02-44c-5.6,0-10.88,2.13-14.92,6.03-4.13,3.99-6.47,9.35-6.57,15.09-.1,5.74,2.04,11.18,6.02,15.31,3.99,4.13,9.35,6.47,15.09,6.57,5.74,.07,11.18-2.04,15.31-6.02,4.13-3.99,6.47-9.35,6.57-15.09,.1-5.74-2.04-11.18-6.02-15.31-3.99-4.13-9.35-6.47-15.09-6.57-.13,0-.26,0-.4,0Z"/>
        <path class="cls-3" d="M320.08,552.44c-4.59,0-9.22-1.4-13.21-4.3-10.03-7.3-12.26-21.4-4.96-31.43,3.54-4.86,8.75-8.05,14.69-8.99,5.94-.93,11.88,.49,16.74,4.03,4.86,3.54,8.05,8.75,8.99,14.69s-.49,11.88-4.03,16.74h0c-4.4,6.05-11.27,9.26-18.23,9.26Zm.08-44c-1.13,0-2.26,.09-3.4,.27-5.67,.9-10.66,3.95-14.04,8.59-6.97,9.59-4.85,23.06,4.74,30.03,9.59,6.97,23.06,4.85,30.03-4.74,3.38-4.64,4.75-10.33,3.85-16-.9-5.67-3.95-10.66-8.59-14.04-3.71-2.7-8.09-4.12-12.6-4.12Z"/>
        <path class="cls-3" d="M315.98,549.99c-3.38,0-6.73-.77-9.85-2.29-5.4-2.64-9.45-7.22-11.4-12.9-1.95-5.68-1.58-11.79,1.06-17.19,2.64-5.4,7.22-9.45,12.9-11.4,5.68-1.95,11.79-1.58,17.19,1.06,11.15,5.44,15.79,18.94,10.34,30.09-2.64,5.4-7.22,9.45-12.9,11.4-2.4,.82-4.87,1.23-7.33,1.23Zm.04-44.02c-2.35,0-4.72,.39-7.01,1.18-5.43,1.87-9.81,5.74-12.33,10.9-2.52,5.16-2.88,10.99-1.01,16.42,1.87,5.43,5.74,9.81,10.9,12.33,10.65,5.2,23.55,.77,28.75-9.88s.77-23.55-9.88-28.75c-2.98-1.46-6.19-2.19-9.42-2.19Z"/>
        <path class="cls-3" d="M311.56,548.26c-2.09,0-4.19-.29-6.25-.89-5.78-1.66-10.56-5.47-13.47-10.73s-3.6-11.33-1.94-17.11c3.43-11.92,15.91-18.84,27.84-15.41,5.78,1.66,10.56,5.47,13.47,10.73,2.91,5.26,3.6,11.33,1.94,17.11-1.66,5.78-5.47,10.56-10.73,13.47-3.38,1.87-7.1,2.83-10.87,2.83Zm-.02-44.01c-9.35,0-17.97,6.15-20.67,15.56-1.59,5.52-.93,11.33,1.85,16.35,2.78,5.02,7.35,8.66,12.87,10.25,5.52,1.58,11.33,.93,16.35-1.85,5.02-2.78,8.66-7.35,10.25-12.87h0c1.59-5.52,.93-11.33-1.85-16.35-2.78-5.02-7.35-8.67-12.87-10.25-1.98-.57-3.97-.84-5.93-.84Z"/>
      </g>
      <path class="cls-3" d="M894.7,685.48l-2.98-.32-665.3-70.28,30.89-292.37,2.98,.32,665.3,70.28-30.89,292.37Zm-661.68-75.93l656.35,69.33,29.62-280.44-656.35-69.33-29.62,280.44Z"/>
      <g>
        <circle class="cls-4" cx="576" cy="504" r="126"/>
        <path class="cls-3" d="M576.1,633.01c-4.51,0-9.06-.24-13.65-.72-34.27-3.62-65.07-20.37-86.74-47.16-21.67-26.79-31.61-60.41-27.99-94.68,7.47-70.74,71.1-122.2,141.84-114.73,34.27,3.62,65.07,20.37,86.74,47.16,21.67,26.79,31.61,60.41,27.99,94.68l-2.98-.32,2.98,.32c-6.99,66.15-63.09,115.46-128.19,115.46Zm-.33-252.02c-28.04,0-55.02,9.5-77.12,27.38-25.54,20.66-41.51,50.04-44.96,82.71-3.45,32.67,6.03,64.73,26.69,90.28,20.66,25.54,50.04,41.51,82.71,44.96,32.68,3.46,64.73-6.03,90.28-26.69,25.54-20.66,41.51-50.04,44.96-82.71,3.45-32.67-6.03-64.73-26.69-90.28-20.66-25.54-50.04-41.51-82.71-44.96-4.4-.46-8.79-.7-13.15-.7Z"/>
      </g>
      <g>
        <path class="cls-3" d="M527.81,502.55c-.36,0-.72-.02-1.08-.06-2.67-.28-5.07-1.59-6.76-3.67-1.69-2.09-2.46-4.71-2.18-7.38,.28-2.67,1.59-5.07,3.67-6.76s4.71-2.46,7.38-2.18c5.51,.58,9.52,5.54,8.94,11.05h0c-.28,2.67-1.59,5.07-3.67,6.76-1.81,1.46-4.01,2.24-6.3,2.24Zm-.03-11.11c-.3,0-.52,.12-.65,.23-.15,.12-.35,.35-.38,.71s.1,.62,.23,.77c.13,.15,.35,.35,.71,.38,.35,.03,.62-.1,.77-.23,.15-.12,.35-.35,.38-.71h0c.06-.58-.36-1.1-.94-1.16-.04,0-.08,0-.12,0Zm5.53,1.64h0Z"/>
        <path class="cls-3" d="M541.5,484.46c-1.5,0-2.96-.75-3.81-2.11-1.27-2.02-4.8-3.67-8.79-4.09-4-.42-7.68,.43-9.37,2.17-1.73,1.78-4.58,1.82-6.36,.09-1.78-1.73-1.82-4.58-.09-6.36,3.65-3.76,9.92-5.56,16.77-4.84,6.9,.73,12.68,3.81,15.47,8.25,1.32,2.1,.69,4.88-1.42,6.21-.74,.47-1.57,.69-2.39,.69Z"/>
        <path class="cls-3" d="M576.08,507.65c-.36,0-.72-.02-1.08-.06-2.67-.28-5.07-1.59-6.76-3.67-1.69-2.09-2.46-4.71-2.18-7.38,.28-2.67,1.59-5.07,3.67-6.76,2.09-1.69,4.71-2.46,7.38-2.18,2.67,.28,5.07,1.59,6.76,3.67,1.69,2.09,2.46,4.71,2.18,7.38h0c-.28,2.67-1.59,5.07-3.67,6.76-1.81,1.46-4.01,2.24-6.3,2.24Zm-.03-11.11c-.3,0-.52,.12-.65,.23-.15,.12-.35,.35-.38,.71-.04,.36,.1,.62,.23,.77,.13,.15,.35,.35,.71,.38,.35,.03,.62-.1,.77-.23,.15-.12,.35-.35,.38-.71h0c.04-.36-.1-.62-.23-.77-.13-.15-.35-.35-.71-.38-.04,0-.08,0-.12,0Z"/>
        <path class="cls-3" d="M589.77,489.56c-1.5,0-2.96-.75-3.81-2.11-1.27-2.02-4.81-3.67-8.79-4.09-4-.41-7.68,.43-9.37,2.17-1.73,1.78-4.58,1.82-6.36,.09-1.78-1.73-1.82-4.58-.09-6.36,3.65-3.76,9.92-5.56,16.77-4.84,6.9,.73,12.68,3.81,15.47,8.25,1.32,2.1,.69,4.88-1.42,6.21-.74,.47-1.57,.69-2.39,.69Z"/>
        <path class="cls-3" d="M544.17,532.32c-.16,0-.32,0-.48-.03l-18.94-2c-1.57-.17-2.94-1.15-3.61-2.58-.67-1.44-.53-3.12,.36-4.42l24.88-36.55c1.4-2.05,4.2-2.59,6.25-1.19,2.05,1.4,2.59,4.2,1.19,6.25l-20.65,30.34,11.46,1.21c2.47,.26,4.26,2.48,4,4.95-.24,2.31-2.2,4.03-4.47,4.03Z"/>
        <path class="cls-3" d="M545.87,553.75c-.16,0-.32,0-.48-.03l-23.12-2.44c-2.47-.26-4.26-2.48-4-4.95,.26-2.47,2.47-4.26,4.95-4l23.12,2.44c2.47,.26,4.26,2.48,4,4.95-.24,2.31-2.2,4.03-4.47,4.03Z"/>
        <path class="cls-3" d="M620.12,580.27c-.16,0-.32,0-.48-.02-2.47-.26-4.26-2.48-4-4.95,.9-8.53,4.28-21,8.18-35.44,.86-3.19,1.76-6.49,2.66-9.87,.64-2.4,3.1-3.83,5.51-3.19,2.4,.64,3.83,3.1,3.19,5.51-.9,3.39-1.8,6.7-2.67,9.91-3.81,14.07-7.1,26.22-7.92,34.03-.24,2.31-2.2,4.03-4.47,4.03Z"/>
        <path class="cls-3" d="M640.12,495.73c-.27,0-.54-.02-.81-.07-2.44-.45-4.07-2.79-3.62-5.23,.94-5.13,1.64-9.88,2.09-14.14,4.25-40.25-24.43-48.77-53.05-51.79-15.29-1.61-27.32,1.96-35.77,10.63-8.86,9.09-10.71,20.72-11.06,24.07-.26,2.47-2.47,4.26-4.95,4-2.47-.26-4.26-2.48-4-4.95,.55-5.22,2.98-18.55,13.57-29.41,7.2-7.38,20.53-15.69,43.16-13.3,45.59,4.82,64.99,24.42,61.06,61.69-.47,4.48-1.21,9.46-2.18,14.81-.4,2.17-2.29,3.69-4.42,3.69Z"/>
        <path class="cls-3" d="M542.5,584.39c-2.87,0-5.71-.14-8.49-.44-4.66-.49-10.51-3.22-11.86-13.42-.8-6.03-.08-13.95,.95-23.67,.26-2.47,2.47-4.26,4.95-4,2.47,.26,4.26,2.48,4,4.95-.96,9.12-1.65,16.5-.98,21.55,.7,5.32,2.54,5.51,3.88,5.66,15.23,1.61,32.42-1.78,47.18-9.3,12.52-6.38,21.39-15.01,22.08-21.5,.26-2.47,2.47-4.25,4.95-4,2.47,.26,4.26,2.48,4,4.95-1.04,9.83-11.11,20.51-26.94,28.57-13.59,6.92-29.12,10.67-43.72,10.67Z"/>
        <path class="cls-3" d="M624.58,536.9c-2.36,0-4.43-.59-6.06-1.77-1.48-1.08-3.88-3.61-3.36-8.49,.26-2.47,2.48-4.27,4.95-4,2.47,.26,4.26,2.48,4,4.95-.01,.12-.02,.22-.02,.3,.97,.13,3.52-.17,7.07-2.18,5.36-3.03,11.38-9.14,12.23-17.18,1.24-11.77-4.76-13.78-9.39-14.27-2.58-.27-4.56,1.04-5.76,2.19-1.6,1.52-2.55,3.49-2.68,4.64-.26,2.47-2.47,4.25-4.95,4-2.47-.26-4.26-2.48-4-4.95,.37-3.51,2.39-7.32,5.41-10.2,3.64-3.48,8.23-5.12,12.92-4.63,12.35,1.31,18.85,10.34,17.39,24.17-1.29,12.17-10.7,21.54-19.45,25.44-2.98,1.32-5.81,1.99-8.31,1.99Z"/>
        <path class="cls-3" d="M630.62,520.46c-2.45,0-4.45-1.96-4.5-4.42-.05-2.48,1.93-4.54,4.42-4.58,.19,0,.28,0,.52-.38,.25-.41,.43-.93,.54-1.49-.72-.02-1.45-.21-2.13-.6-2.15-1.24-2.9-3.99-1.66-6.14,3.08-5.36,7-4.46,8.13-4.06,4.24,1.51,5.35,7.27,4.58,11.98-.96,5.89-4.72,9.61-9.82,9.7-.03,0-.06,0-.08,0Z"/>
      </g>
      <path class="cls-3" d="M900.98,715.19c-.77,0-1.54-.04-2.32-.12h0l-682.28-72.08c-12.04-1.27-20.8-12.1-19.53-24.15l32.36-306.38c1.27-12.04,12.1-20.8,24.15-19.53l682.28,72.08c12.04,1.27,20.8,12.1,19.53,24.15l-32.36,306.38c-1.19,11.26-10.74,19.65-21.82,19.65Zm-1.27-10.07c6.56,.69,12.46-4.08,13.15-10.64l32.36-306.38c.69-6.56-4.08-12.46-10.64-13.15L252.3,302.88c-6.55-.69-12.46,4.08-13.15,10.64l-32.36,306.38c-.69,6.56,4.08,12.46,10.64,13.15l682.28,72.08h0Z"/>
    </g>
  </g>
</svg>