<?xml version="1.0" encoding="utf-8"?>
<!-- Generator: Adobe Illustrator 22.0.1, SVG Export Plug-In . SVG Version: 6.00 Build 0)  -->
<svg version="1.1" id="Ebene_1" xmlns="http://www.w3.org/2000/svg" xmlns:xlink="http://www.w3.org/1999/xlink" x="0px" y="0px"
	 viewBox="0 0 472.8 423.5" style="enable-background:new 0 0 472.8 423.5;" xml:space="preserve">
<style type="text/css">
	.st0{fill:#FFFFFF;stroke:#1F1F1F;stroke-miterlimit:10;}
	.st1{fill:#DDDDDD;}
	.st2{fill:#1F1F1F;}
	.st3{fill:#1F1F1F;stroke:#FFFFFF;stroke-miterlimit:10;}
	.st4{fill:#1E1E1C;}
	.st5{fill:none;stroke:#F5F5F5;stroke-miterlimit:10;}
	.st6{fill:#FFFFFF;}
	.st7{fill:#324C9B;}
	.st8{fill:#ECECEC;}
	.st9{fill:none;stroke:#1F1F1F;stroke-miterlimit:10;}
</style>
<path class="st0" d="M442.3,0.2H302c-16.5,0-29.8,13.4-29.8,29.8v363.3c0,16.5,13.4,29.8,29.8,29.8h140.3
	c16.5,0,29.8-13.4,29.8-29.8V30.1C472.1,13.6,458.8,0.2,442.3,0.2z"/>
<rect x="286.1" y="61.6" class="st1" width="172" height="303"/>
<g>
	<circle class="st0" cx="374.2" cy="391.1" r="17.1"/>
</g>
<g>
	<g>
		<path class="st2" d="M374.2,374c0,0,0.2,0,0.6,0c0.4,0,1-0.1,1.7,0c0.4,0,0.8,0.1,1.2,0.1c0.4,0.1,0.9,0.2,1.4,0.3
			c0.5,0.1,1,0.3,1.6,0.5c0.6,0.2,1.1,0.5,1.7,0.7c0.6,0.3,1.2,0.6,1.8,1c0.6,0.4,1.2,0.8,1.8,1.3c1.2,0.9,2.2,2.1,3.2,3.5
			c0.9,1.4,1.7,2.9,2.2,4.6c0.5,1.7,0.8,3.4,0.8,5.2c-0.1,1,0,1.7-0.2,2.6c-0.1,0.9-0.4,1.8-0.6,2.6c-0.5,1.7-1.3,3.2-2.2,4.6
			c-0.9,1.4-2,2.6-3.2,3.5c-0.6,0.5-1.2,0.9-1.8,1.3c-0.6,0.4-1.2,0.7-1.8,1c-0.6,0.2-1.2,0.5-1.7,0.7c-0.6,0.2-1.1,0.4-1.6,0.5
			c-0.5,0.1-1,0.2-1.4,0.3c-0.4,0-0.9,0.1-1.2,0.1c-0.7,0.1-1.3,0-1.7,0c-0.4,0-0.6,0-0.6,0s0.2,0,0.6-0.1c0.4-0.1,1-0.1,1.7-0.3
			c0.4-0.1,0.7-0.2,1.2-0.3c0.4-0.1,0.9-0.3,1.3-0.4c0.5-0.2,0.9-0.4,1.5-0.6c0.5-0.2,1-0.5,1.5-0.8c1-0.7,2.1-1.4,3.1-2.4
			c1-0.9,1.9-2.1,2.7-3.3c0.8-1.3,1.4-2.7,1.9-4.2c0.2-0.8,0.4-1.5,0.5-2.3c0.1-0.7,0.1-1.7,0.2-2.4c0-1.6-0.2-3.2-0.7-4.7
			c-0.5-1.5-1-2.9-1.9-4.2c-0.8-1.2-1.7-2.4-2.7-3.3c-1-1-2.1-1.7-3.1-2.4c-0.5-0.3-1-0.6-1.5-0.8c-0.5-0.2-1-0.5-1.5-0.6
			c-0.5-0.2-0.9-0.3-1.3-0.4c-0.4-0.1-0.8-0.2-1.2-0.3c-0.7-0.2-1.3-0.2-1.7-0.3C374.4,374,374.2,374,374.2,374z"/>
	</g>
	<path class="st0" d="M374.2,408.2c-9.4,0-17.1-7.6-17.1-17.1c0-9.4,7.6-17.1,17.1-17.1"/>
</g>
<circle class="st3" cx="373.7" cy="22.2" r="3.2"/>
<path class="st3" d="M396.5,33.7h-45.2c-1,0-1.8-0.8-1.8-1.8l0,0c0-1,0.8-1.8,1.8-1.8h45.2c1,0,1.8,0.8,1.8,1.8l0,0
	C398.3,32.9,397.5,33.7,396.5,33.7z"/>
<g>
	<circle class="st3" cx="94.9" cy="22.2" r="3.2"/>
	<path class="st3" d="M117.7,33.7H72.5c-1,0-1.8-0.8-1.8-1.8l0,0c0-1,0.8-1.8,1.8-1.8h45.2c1,0,1.8,0.8,1.8,1.8l0,0
		C119.5,32.9,118.7,33.7,117.7,33.7z"/>
</g>
<g>
	<path class="st4" d="M302.5,92.7v10.4h-1.3V92.7H302.5z"/>
	<path class="st4" d="M304.8,103.1v-7.5h1.3v1c0.2-0.3,0.6-0.6,0.9-0.8c0.4-0.2,0.8-0.3,1.3-0.3c0.8,0,1.5,0.2,2,0.7
		c0.5,0.5,0.7,1.2,0.7,2v4.9h-1.3v-4.7c0-0.5-0.1-1-0.4-1.3c-0.3-0.3-0.7-0.5-1.2-0.5c-0.4,0-0.8,0.1-1.2,0.4
		c-0.4,0.3-0.6,0.6-0.7,1v5.1C306.1,103.1,304.8,103.1,304.8,103.1z"/>
	<path class="st4" d="M313.5,102.2c-0.6-0.7-1-1.7-1-2.8c0-1.2,0.3-2.1,1-2.8c0.6-0.7,1.5-1.1,2.5-1.1c0.8,0,1.5,0.2,2,0.7
		c0.5,0.4,0.9,1,1,1.8h-1.3c-0.1-0.4-0.3-0.7-0.6-1c-0.3-0.2-0.7-0.3-1.1-0.3c-0.6,0-1.2,0.3-1.6,0.8c-0.4,0.5-0.6,1.2-0.6,2
		c0,0.8,0.2,1.5,0.6,2c0.4,0.5,0.9,0.8,1.6,0.8c0.5,0,0.8-0.1,1.1-0.3c0.3-0.2,0.5-0.6,0.6-1h1.3c-0.1,0.7-0.5,1.3-1,1.8
		c-0.5,0.4-1.2,0.7-2,0.7C315,103.3,314.2,102.9,313.5,102.2z"/>
	<path class="st4" d="M326.1,96.5c0.6,0.7,1,1.7,1,2.8c0,1.2-0.3,2.1-1,2.8c-0.6,0.7-1.5,1.1-2.5,1.1s-1.9-0.4-2.5-1.1
		c-0.6-0.7-1-1.7-1-2.8c0-1.2,0.3-2.1,1-2.8c0.6-0.7,1.5-1.1,2.5-1.1S325.5,95.8,326.1,96.5z M325.2,101.4c0.4-0.5,0.6-1.2,0.6-2
		c0-0.8-0.2-1.5-0.6-2c-0.4-0.5-0.9-0.8-1.6-0.8s-1.2,0.3-1.6,0.8c-0.4,0.5-0.6,1.2-0.6,2c0,0.8,0.2,1.5,0.6,2s0.9,0.8,1.6,0.8
		S324.8,101.9,325.2,101.4z"/>
	<path class="st4" d="M334.2,96.6c0.6-0.8,1.3-1.2,2.3-1.2c0.8,0,1.3,0.2,1.8,0.7c0.4,0.5,0.6,1.1,0.6,2v5h-1.3v-4.8
		c0-0.5-0.1-1-0.4-1.3c-0.2-0.3-0.6-0.5-1.1-0.5c-0.4,0-0.7,0.1-1,0.4c-0.3,0.2-0.5,0.6-0.6,1v5.2h-1.3v-4.8c0-0.5-0.1-1-0.4-1.3
		c-0.2-0.3-0.6-0.5-1.1-0.5c-0.4,0-0.7,0.1-1,0.4c-0.3,0.2-0.5,0.6-0.6,1v5.2h-1.3v-7.5h1.3v0.9c0.4-0.7,1.1-1,2-1
		C333.1,95.4,333.8,95.8,334.2,96.6z"/>
	<path class="st4" d="M342.2,92.7c0.2,0.2,0.2,0.4,0.2,0.6s-0.1,0.4-0.2,0.6c-0.2,0.2-0.4,0.2-0.6,0.2c-0.2,0-0.4-0.1-0.6-0.2
		c-0.2-0.2-0.2-0.4-0.2-0.6c0-0.2,0.1-0.4,0.2-0.6c0.2-0.2,0.4-0.2,0.6-0.2C341.9,92.5,342.1,92.5,342.2,92.7z M342.3,95.6v7.5H341
		v-7.5H342.3z"/>
	<path class="st4" d="M344.6,103.1v-7.5h1.3v1c0.2-0.3,0.6-0.6,0.9-0.8c0.4-0.2,0.8-0.3,1.3-0.3c0.8,0,1.5,0.2,2,0.7
		c0.5,0.5,0.7,1.2,0.7,2v4.9h-1.3v-4.7c0-0.5-0.1-1-0.4-1.3c-0.3-0.3-0.7-0.5-1.2-0.5c-0.4,0-0.8,0.1-1.2,0.4
		c-0.4,0.3-0.6,0.6-0.7,1v5.1C345.8,103.1,344.6,103.1,344.6,103.1z"/>
	<path class="st4" d="M357.8,102.6V102c-0.2,0.3-0.5,0.5-0.9,0.7s-0.8,0.3-1.2,0.3c-1.1,0-1.9-0.4-2.5-1.1c-0.6-0.7-0.9-1.6-0.9-2.7
		c0-1.1,0.3-2,0.9-2.7c0.6-0.7,1.4-1.1,2.5-1.1c0.4,0,0.9,0.1,1.2,0.3c0.4,0.2,0.7,0.4,0.9,0.7v-0.8h1.3v7c0,1.2-0.3,2.1-0.9,2.7
		c-0.6,0.6-1.4,0.9-2.4,0.9c-0.9,0-1.6-0.2-2.2-0.7s-0.9-1.1-1-1.8h1.3c0.2,0.9,0.9,1.4,2,1.4C357.1,105.1,357.8,104.2,357.8,102.6z
		 M357.8,100.7v-3c-0.4-0.8-1.1-1.2-1.9-1.2c-0.7,0-1.3,0.2-1.7,0.7c-0.4,0.5-0.6,1.1-0.6,1.9s0.2,1.4,0.6,1.9
		c0.4,0.5,1,0.7,1.7,0.7C356.7,101.9,357.4,101.5,357.8,100.7z"/>
	<path class="st4" d="M366,101.8c-0.9-1-1.3-2.3-1.3-3.9s0.4-2.9,1.3-3.9c0.9-1,2-1.5,3.3-1.5c1.1,0,2,0.3,2.7,0.9
		c0.7,0.6,1.2,1.4,1.4,2.3H372c-0.5-1.3-1.4-2-2.7-2c-1,0-1.8,0.4-2.4,1.1c-0.6,0.8-0.9,1.8-0.9,3c0,1.2,0.3,2.2,0.9,3
		c0.6,0.8,1.4,1.2,2.4,1.2c1.4,0,2.3-0.7,2.7-2h1.3c-0.2,1-0.7,1.8-1.4,2.4c-0.7,0.6-1.6,0.9-2.7,0.9
		C368,103.3,366.9,102.8,366,101.8z"/>
	<path class="st4" d="M380.6,103.1h-1.2v-0.6c-0.2,0.2-0.4,0.3-0.8,0.5c-0.4,0.1-0.8,0.2-1.2,0.2c-0.8,0-1.5-0.2-2-0.7
		c-0.5-0.4-0.8-1-0.8-1.8c0-0.7,0.3-1.3,0.8-1.7c0.6-0.4,1.2-0.7,2.1-0.7c0.4,0,0.7,0.1,1.1,0.2c0.4,0.1,0.6,0.3,0.8,0.4v-1
		c0-0.5-0.1-0.9-0.4-1.2c-0.3-0.3-0.7-0.4-1.2-0.4c-0.8,0-1.3,0.3-1.5,1h-1.3c0.1-0.6,0.4-1.1,1-1.5c0.5-0.4,1.1-0.6,1.9-0.6
		c0.9,0,1.6,0.2,2.1,0.7c0.5,0.5,0.8,1.1,0.8,2L380.6,103.1L380.6,103.1z M379.4,101.2v-0.8c-0.1-0.3-0.3-0.5-0.7-0.7
		c-0.3-0.2-0.7-0.3-1.1-0.3c-0.5,0-0.9,0.1-1.3,0.3c-0.4,0.2-0.5,0.6-0.5,1c0,0.4,0.2,0.8,0.5,1c0.4,0.2,0.8,0.3,1.3,0.3
		c0.4,0,0.8-0.1,1.1-0.3C379,101.7,379.2,101.5,379.4,101.2z"/>
	<path class="st4" d="M384,92.1v11.1h-1.3V92.1H384z"/>
	<path class="st4" d="M387.6,92.1v11.1h-1.3V92.1H387.6z"/>
	<path class="st4" d="M303.3,109.1h1l3.1,8h-1l-0.9-2.4h-3.3l-0.9,2.4h-1L303.3,109.1z M303.7,110.4l-1.3,3.4h2.6L303.7,110.4z"/>
	<path class="st4" d="M308.5,117.1v-5.8h1v0.7c0.2-0.2,0.4-0.4,0.7-0.6s0.6-0.2,1-0.2c0.6,0,1.1,0.2,1.5,0.6
		c0.4,0.4,0.5,0.9,0.5,1.5v3.8h-1v-3.6c0-0.4-0.1-0.7-0.3-1s-0.5-0.4-1-0.4c-0.3,0-0.6,0.1-0.9,0.3c-0.3,0.2-0.5,0.5-0.6,0.8v3.9
		L308.5,117.1L308.5,117.1z"/>
	<path class="st4" d="M314.8,117.1v-5.8h1v0.7c0.2-0.2,0.4-0.4,0.7-0.6c0.3-0.2,0.6-0.2,1-0.2c0.6,0,1.1,0.2,1.5,0.6
		c0.4,0.4,0.5,0.9,0.5,1.5v3.8h-1v-3.6c0-0.4-0.1-0.7-0.3-1c-0.2-0.2-0.5-0.4-1-0.4c-0.3,0-0.6,0.1-0.9,0.3
		c-0.3,0.2-0.5,0.5-0.6,0.8v3.9L314.8,117.1L314.8,117.1z"/>
	<path class="st4" d="M325.4,117.1h-0.9v-0.4c-0.1,0.1-0.3,0.3-0.6,0.4c-0.3,0.1-0.6,0.2-0.9,0.2c-0.6,0-1.1-0.2-1.5-0.5
		c-0.4-0.3-0.6-0.8-0.6-1.3c0-0.5,0.2-1,0.6-1.3c0.4-0.3,0.9-0.5,1.6-0.5c0.3,0,0.6,0,0.8,0.1c0.3,0.1,0.5,0.2,0.6,0.3v-0.7
		c0-0.4-0.1-0.7-0.3-0.9c-0.2-0.2-0.5-0.3-0.9-0.3c-0.6,0-1,0.3-1.2,0.8h-1c0.1-0.5,0.3-0.9,0.7-1.2s0.9-0.5,1.4-0.5
		c0.7,0,1.2,0.2,1.6,0.5c0.4,0.4,0.6,0.9,0.6,1.5L325.4,117.1L325.4,117.1z M324.4,115.7v-0.6c-0.1-0.2-0.3-0.4-0.5-0.5
		c-0.3-0.1-0.5-0.2-0.8-0.2c-0.4,0-0.7,0.1-1,0.3c-0.3,0.2-0.4,0.4-0.4,0.7c0,0.3,0.1,0.6,0.4,0.8c0.3,0.2,0.6,0.3,1,0.3
		c0.3,0,0.6-0.1,0.8-0.2C324.2,116.1,324.4,115.9,324.4,115.7z"/>
</g>
<circle class="st5" cx="377.5" cy="311.9" r="29.4"/>
<path class="st6" d="M384.2,297.7c-0.1,0-0.1,0.1-0.2,0.1c-8.6,5.1-15.6,11.9-20.5,20.6c-1,1.7-1.4,3.7-2.1,5.7
	c0.4,0.8,0.6,1.7,1.1,2.3c1.3,1.4,2.7,2.8,4.2,3.9c1.7,1.3,2.7,1,4-0.7c1-1.4,1.8-3,2.9-4.3c1.8-2.2,2-4.3,0.2-6.5
	c-0.9-1.2-0.6-2.1,0.4-3c2.2-2.2,4.4-4.3,6.5-6.6c1.4-1.5,2.6-1.7,4.3-0.5c1.2,0.9,2.6,1.4,3.9,0.5c2.2-1.4,4.4-2.8,6.4-4.3
	c1.5-1.1,1.6-2,0.7-3.7C393,295.9,389.5,294.9,384.2,297.7z M394.1,303.7c-1.7,1.1-3.5,2.2-5.2,3.4c-1.4,1-2.5,0.3-3.7-0.4
	c-2.7-1.5-2.8-1.6-5.1,0.6c-2.8,2.6-5.3,5.4-8,8.2c-1,1-1.1,2-0.2,3.1c1.8,2.1,1.7,4.1-0.2,6.2c-0.9,1-1.6,2.3-2.3,3.5
	c-0.6,0.9-1.2,1.1-2,0.3c-1.2-1.1-2.4-2.1-3.5-3.2c-0.4-0.4-0.5-1-0.7-1.7c0.7-1.7,1.2-3.6,2.1-5.2c4.7-7.8,11-14.1,18.8-18.9
	c0.5-0.3,1-0.5,1.6-0.8c4.3-1.9,6.5-1.1,8.8,3C395,302.7,394.8,303.2,394.1,303.7z"/>
<rect x="285.8" y="176.1" class="st6" width="172.3" height="27"/>
<g>
	<path class="st7" d="M298.8,191.7c-0.7-0.8-1-1.7-1-3s0.3-2.2,1-3c0.7-0.8,1.5-1.1,2.6-1.1c0.8,0,1.5,0.2,2,0.7
		c0.5,0.4,0.9,1,1.1,1.8h-1c-0.4-1-1.1-1.5-2.1-1.5c-0.8,0-1.4,0.3-1.8,0.9c-0.5,0.6-0.7,1.4-0.7,2.3c0,0.9,0.2,1.7,0.7,2.3
		c0.5,0.6,1.1,0.9,1.8,0.9c1,0,1.7-0.5,2.1-1.5h1c-0.2,0.8-0.5,1.4-1.1,1.8c-0.5,0.4-1.2,0.7-2,0.7
		C300.3,192.9,299.5,192.5,298.8,191.7z"/>
	<path class="st7" d="M310,187.7c0.5,0.6,0.7,1.3,0.7,2.2c0,0.9-0.2,1.6-0.7,2.2c-0.5,0.6-1.1,0.8-1.9,0.8s-1.4-0.3-1.9-0.8
		c-0.5-0.6-0.7-1.3-0.7-2.2c0-0.9,0.2-1.6,0.7-2.2c0.5-0.6,1.1-0.8,1.9-0.8S309.5,187.2,310,187.7z M309.3,191.4
		c0.3-0.4,0.4-0.9,0.4-1.6c0-0.6-0.1-1.2-0.4-1.6s-0.7-0.6-1.2-0.6s-0.9,0.2-1.2,0.6s-0.4,0.9-0.4,1.6c0,0.6,0.1,1.2,0.4,1.6
		c0.3,0.4,0.7,0.6,1.2,0.6S309,191.8,309.3,191.4z"/>
	<path class="st7" d="M316.1,187.8c0.4-0.6,1-0.9,1.8-0.9c0.6,0,1,0.2,1.3,0.6c0.3,0.4,0.5,0.9,0.5,1.5v3.8h-1v-3.7
		c0-0.4-0.1-0.7-0.3-1s-0.5-0.4-0.8-0.4c-0.3,0-0.6,0.1-0.8,0.3c-0.2,0.2-0.4,0.4-0.5,0.7v4h-1v-3.7c0-0.4-0.1-0.7-0.3-1
		c-0.2-0.2-0.5-0.4-0.8-0.4c-0.3,0-0.6,0.1-0.8,0.3c-0.2,0.2-0.4,0.4-0.5,0.7v4h-1V187h1v0.7c0.3-0.5,0.9-0.8,1.6-0.8
		C315.3,186.9,315.8,187.2,316.1,187.8z"/>
	<path class="st7" d="M325.5,187.8c0.4-0.6,1-0.9,1.8-0.9c0.6,0,1,0.2,1.3,0.6c0.3,0.4,0.5,0.9,0.5,1.5v3.8h-1v-3.7
		c0-0.4-0.1-0.7-0.3-1c-0.2-0.2-0.5-0.4-0.8-0.4c-0.3,0-0.6,0.1-0.8,0.3c-0.2,0.2-0.4,0.4-0.5,0.7v4h-1v-3.7c0-0.4-0.1-0.7-0.3-1
		c-0.2-0.2-0.5-0.4-0.8-0.4c-0.3,0-0.6,0.1-0.8,0.3c-0.2,0.2-0.4,0.4-0.5,0.7v4h-1V187h1v0.7c0.3-0.5,0.9-0.8,1.6-0.8
		C324.6,186.9,325.1,187.2,325.5,187.8z"/>
	<path class="st7" d="M334.3,191h0.9c-0.1,0.6-0.4,1-0.8,1.3c-0.4,0.3-0.9,0.5-1.6,0.5c-0.8,0-1.4-0.3-1.9-0.8
		c-0.5-0.6-0.7-1.3-0.7-2.2c0-0.9,0.2-1.6,0.7-2.2c0.5-0.6,1.1-0.9,1.9-0.9c0.8,0,1.4,0.3,1.8,0.8c0.4,0.5,0.6,1.2,0.6,2.1v0.4h-4.1
		c0,0.6,0.2,1.1,0.5,1.4c0.3,0.4,0.7,0.5,1.2,0.5c0.4,0,0.7-0.1,0.9-0.3C334.1,191.6,334.2,191.4,334.3,191z M332.9,187.7
		c-0.4,0-0.8,0.1-1.1,0.4c-0.3,0.3-0.5,0.7-0.5,1.2h3.1c0-0.5-0.1-0.8-0.4-1.1C333.7,187.9,333.4,187.7,332.9,187.7z"/>
	<path class="st7" d="M336.6,192.8V187h1v0.7c0.2-0.2,0.4-0.4,0.7-0.6s0.6-0.2,1-0.2c0.6,0,1.1,0.2,1.5,0.6c0.4,0.4,0.5,0.9,0.5,1.5
		v3.8h-1v-3.6c0-0.4-0.1-0.7-0.3-1s-0.5-0.4-1-0.4c-0.3,0-0.6,0.1-0.9,0.3c-0.3,0.2-0.5,0.5-0.6,0.8v3.9L336.6,192.8L336.6,192.8z"
		/>
	<path class="st7" d="M343.3,192c-0.5-0.6-0.7-1.3-0.7-2.2c0-0.9,0.2-1.6,0.7-2.2c0.5-0.6,1.1-0.8,1.9-0.8c0.6,0,1.1,0.2,1.6,0.5
		c0.4,0.3,0.7,0.8,0.8,1.4h-1c-0.1-0.3-0.2-0.6-0.4-0.7c-0.2-0.2-0.5-0.3-0.9-0.3c-0.5,0-0.9,0.2-1.2,0.6s-0.4,0.9-0.4,1.5
		c0,0.6,0.1,1.1,0.4,1.5c0.3,0.4,0.7,0.6,1.2,0.6c0.3,0,0.6-0.1,0.9-0.3c0.2-0.2,0.4-0.4,0.4-0.7h1c-0.1,0.6-0.4,1-0.8,1.4
		c-0.4,0.3-0.9,0.5-1.6,0.5C344.4,192.9,343.8,192.6,343.3,192z"/>
	<path class="st7" d="M352.4,191h0.9c-0.1,0.6-0.4,1-0.8,1.3c-0.4,0.3-0.9,0.5-1.6,0.5c-0.8,0-1.4-0.3-1.9-0.8
		c-0.5-0.6-0.7-1.3-0.7-2.2c0-0.9,0.2-1.6,0.7-2.2c0.5-0.6,1.1-0.9,1.9-0.9c0.8,0,1.4,0.3,1.8,0.8c0.4,0.5,0.6,1.2,0.6,2.1v0.4h-4.1
		c0,0.6,0.2,1.1,0.5,1.4c0.3,0.4,0.7,0.5,1.2,0.5c0.4,0,0.7-0.1,0.9-0.3C352.1,191.6,352.3,191.4,352.4,191z M351,187.7
		c-0.4,0-0.8,0.1-1.1,0.4c-0.3,0.3-0.5,0.7-0.5,1.2h3.1c0-0.5-0.1-0.8-0.4-1.1C351.8,187.9,351.4,187.7,351,187.7z"/>
	<path class="st7" d="M364.4,192.8h-1v-8h4.9v0.9h-3.9v2.7h3.6v0.9h-3.6V192.8z"/>
	<path class="st7" d="M373.6,187.7c0.5,0.6,0.7,1.3,0.7,2.2c0,0.9-0.2,1.6-0.7,2.2c-0.5,0.6-1.1,0.8-1.9,0.8c-0.8,0-1.4-0.3-1.9-0.8
		c-0.5-0.6-0.7-1.3-0.7-2.2c0-0.9,0.2-1.6,0.7-2.2c0.5-0.6,1.1-0.8,1.9-0.8C372.5,186.9,373.1,187.2,373.6,187.7z M372.9,191.4
		c0.3-0.4,0.4-0.9,0.4-1.6c0-0.6-0.1-1.2-0.4-1.6s-0.7-0.6-1.2-0.6c-0.5,0-0.9,0.2-1.2,0.6s-0.4,0.9-0.4,1.6c0,0.6,0.1,1.2,0.4,1.6
		c0.3,0.4,0.7,0.6,1.2,0.6C372.2,192,372.6,191.8,372.9,191.4z"/>
	<path class="st7" d="M378.6,187v1c-0.2-0.1-0.4-0.2-0.6-0.2c-0.3,0-0.6,0.1-0.8,0.3c-0.2,0.2-0.4,0.5-0.5,0.8v3.9h-1V187h1v0.8
		c0.1-0.3,0.3-0.5,0.6-0.6c0.3-0.2,0.5-0.2,0.9-0.2C378.3,186.9,378.5,186.9,378.6,187z"/>
	<path class="st7" d="M380.1,191.3v-3.5h-0.9V187h0.9v-1.5h1v1.5h1.4v0.8h-1.4v3.4c0,0.5,0.3,0.8,0.8,0.8c0.3,0,0.5-0.1,0.8-0.2v0.9
		c-0.2,0.1-0.5,0.2-0.9,0.2c-0.5,0-0.9-0.1-1.2-0.4C380.3,192.2,380.1,191.8,380.1,191.3z"/>
	<path class="st7" d="M384.9,184.8c0.1,0.1,0.2,0.3,0.2,0.4s-0.1,0.3-0.2,0.4c-0.1,0.1-0.3,0.2-0.4,0.2s-0.3-0.1-0.4-0.2
		c-0.1-0.1-0.2-0.3-0.2-0.4c0-0.2,0.1-0.3,0.2-0.4c0.1-0.1,0.3-0.2,0.4-0.2S384.8,184.7,384.9,184.8z M384.9,187v5.8h-1V187H384.9z"
		/>
	<path class="st7" d="M389.6,184.3v0.9c-0.2-0.1-0.4-0.2-0.6-0.2c-0.3,0-0.5,0.1-0.7,0.3c-0.2,0.2-0.3,0.4-0.3,0.8v0.9h1.3v0.8H388
		v4.9h-1v-4.9h-1V187h1v-1c0-0.6,0.2-1,0.5-1.3c0.3-0.3,0.8-0.5,1.3-0.5C389.1,184.2,389.4,184.2,389.6,184.3z"/>
	<path class="st7" d="M391.4,184.8c0.1,0.1,0.2,0.3,0.2,0.4s-0.1,0.3-0.2,0.4c-0.1,0.1-0.3,0.2-0.4,0.2s-0.3-0.1-0.4-0.2
		c-0.1-0.1-0.2-0.3-0.2-0.4c0-0.2,0.1-0.3,0.2-0.4c0.1-0.1,0.3-0.2,0.4-0.2C391.1,184.6,391.2,184.7,391.4,184.8z M391.4,187v5.8h-1
		V187H391.4z"/>
	<path class="st7" d="M396.8,191h0.9c-0.1,0.6-0.4,1-0.8,1.3c-0.4,0.3-0.9,0.5-1.6,0.5c-0.8,0-1.4-0.3-1.9-0.8
		c-0.5-0.6-0.7-1.3-0.7-2.2c0-0.9,0.2-1.6,0.7-2.2c0.5-0.6,1.1-0.9,1.9-0.9c0.8,0,1.4,0.3,1.8,0.8c0.4,0.5,0.6,1.2,0.6,2.1v0.4h-4.1
		c0,0.6,0.2,1.1,0.5,1.4c0.3,0.4,0.7,0.5,1.2,0.5c0.4,0,0.7-0.1,0.9-0.3C396.6,191.6,396.7,191.4,396.8,191z M395.4,187.7
		c-0.4,0-0.8,0.1-1.1,0.4c-0.3,0.3-0.5,0.7-0.5,1.2h3.1c0-0.5-0.1-0.8-0.4-1.1C396.2,187.9,395.8,187.7,395.4,187.7z"/>
	<path class="st7" d="M402.9,192.8v-0.7c-0.2,0.2-0.4,0.4-0.7,0.6s-0.6,0.2-0.9,0.2c-0.8,0-1.5-0.3-1.9-0.9s-0.7-1.3-0.7-2.1
		c0-0.9,0.2-1.6,0.7-2.1c0.5-0.6,1.1-0.9,1.9-0.9c0.3,0,0.7,0.1,0.9,0.2c0.3,0.1,0.5,0.3,0.7,0.6v-3.4h1v8.4L402.9,192.8
		L402.9,192.8z M402.9,191v-2.3c-0.1-0.3-0.4-0.5-0.6-0.7c-0.3-0.2-0.6-0.3-0.9-0.3c-0.5,0-1,0.2-1.3,0.6c-0.3,0.4-0.5,0.9-0.5,1.5
		s0.2,1.1,0.5,1.5c0.3,0.4,0.7,0.6,1.3,0.6c0.3,0,0.6-0.1,0.9-0.3C402.6,191.6,402.8,191.3,402.9,191z"/>
</g>
<g>
	<path class="st4" d="M297.2,167.6l1.8-2.9h0.8l-2.2,3.6v2.5h-0.8v-2.5l-2.2-3.6h0.9L297.2,167.6z"/>
	<path class="st4" d="M303.2,166.9c0.4,0.4,0.6,1,0.6,1.7c0,0.7-0.2,1.2-0.6,1.7c-0.4,0.4-0.9,0.6-1.5,0.6c-0.6,0-1.1-0.2-1.5-0.6
		c-0.4-0.4-0.6-1-0.6-1.7c0-0.7,0.2-1.2,0.6-1.7c0.4-0.4,0.9-0.6,1.5-0.6S302.8,166.5,303.2,166.9z M302.7,169.8
		c0.2-0.3,0.3-0.7,0.3-1.2c0-0.5-0.1-0.9-0.3-1.2c-0.2-0.3-0.5-0.5-0.9-0.5s-0.7,0.2-0.9,0.5c-0.2,0.3-0.3,0.7-0.3,1.2
		c0,0.5,0.1,0.9,0.3,1.2c0.2,0.3,0.5,0.5,0.9,0.5S302.4,170.1,302.7,169.8z"/>
	<path class="st4" d="M308.3,166.4v4.4h-0.8v-0.6c-0.1,0.2-0.3,0.3-0.5,0.5c-0.2,0.1-0.5,0.2-0.8,0.2c-0.5,0-0.9-0.1-1.1-0.4
		s-0.4-0.7-0.4-1.2v-2.9h0.8v2.8c0,0.3,0.1,0.6,0.2,0.8s0.4,0.3,0.7,0.3c0.3,0,0.5-0.1,0.7-0.2c0.2-0.2,0.3-0.4,0.4-0.6v-3H308.3
		L308.3,166.4z"/>
	<path class="st4" d="M311.9,166.4v0.8c-0.1-0.1-0.3-0.1-0.5-0.1c-0.2,0-0.5,0.1-0.6,0.2c-0.2,0.1-0.3,0.4-0.4,0.6v3h-0.8v-4.4h0.8
		v0.6c0.1-0.2,0.2-0.4,0.4-0.5c0.2-0.1,0.4-0.2,0.7-0.2C311.7,166.3,311.8,166.3,311.9,166.4z"/>
	<path class="st4" d="M314.7,169.6h0.8c0.1,0.5,0.5,0.7,1,0.7c0.3,0,0.5-0.1,0.7-0.2s0.2-0.3,0.2-0.5c0-0.3-0.2-0.5-0.7-0.6
		l-0.9-0.2c-0.7-0.2-1.1-0.6-1.1-1.2c0-0.4,0.1-0.7,0.5-0.9c0.3-0.2,0.7-0.4,1.1-0.4c0.5,0,0.9,0.1,1.2,0.3c0.3,0.2,0.5,0.5,0.6,0.9
		h-0.8c-0.1-0.4-0.5-0.6-1-0.6c-0.2,0-0.4,0.1-0.6,0.2c-0.2,0.1-0.2,0.3-0.2,0.5c0,0.1,0,0.3,0.1,0.3c0.1,0.1,0.3,0.2,0.5,0.2
		l0.9,0.2c0.8,0.2,1.1,0.6,1.1,1.2c0,0.4-0.2,0.7-0.5,1c-0.3,0.2-0.7,0.4-1.2,0.4s-0.9-0.1-1.2-0.4C315,170.3,314.8,170,314.7,169.6
		z"/>
	<path class="st4" d="M322,169.5h0.7c-0.1,0.4-0.3,0.8-0.6,1c-0.3,0.3-0.7,0.4-1.2,0.4c-0.6,0-1.1-0.2-1.5-0.6s-0.6-1-0.6-1.7
		c0-0.7,0.2-1.2,0.6-1.7c0.4-0.4,0.9-0.7,1.5-0.7c0.6,0,1.1,0.2,1.4,0.6c0.3,0.4,0.5,0.9,0.5,1.6v0.3h-3.1c0,0.5,0.1,0.8,0.4,1.1
		c0.2,0.3,0.5,0.4,0.9,0.4c0.3,0,0.5-0.1,0.7-0.2C321.8,169.9,321.9,169.7,322,169.5z M320.9,166.9c-0.3,0-0.6,0.1-0.8,0.3
		c-0.2,0.2-0.4,0.5-0.4,0.9h2.4c0-0.4-0.1-0.6-0.3-0.9C321.5,167,321.3,166.9,320.9,166.9z"/>
	<path class="st4" d="M324,170.3c-0.4-0.4-0.6-1-0.6-1.7c0-0.7,0.2-1.2,0.6-1.7c0.4-0.4,0.9-0.6,1.5-0.6c0.5,0,0.9,0.1,1.2,0.4
		c0.3,0.3,0.5,0.6,0.6,1h-0.8c-0.1-0.2-0.2-0.4-0.3-0.6c-0.2-0.1-0.4-0.2-0.7-0.2c-0.4,0-0.7,0.2-0.9,0.5s-0.3,0.7-0.3,1.2
		c0,0.5,0.1,0.9,0.3,1.2c0.2,0.3,0.5,0.5,0.9,0.5c0.3,0,0.5-0.1,0.7-0.2c0.2-0.1,0.3-0.3,0.3-0.6h0.8c-0.1,0.4-0.3,0.8-0.6,1
		c-0.3,0.3-0.7,0.4-1.2,0.4C324.9,170.9,324.4,170.7,324,170.3z"/>
	<path class="st4" d="M331.8,166.4v4.4H331v-0.6c-0.1,0.2-0.3,0.3-0.5,0.5c-0.2,0.1-0.5,0.2-0.8,0.2c-0.5,0-0.9-0.1-1.1-0.4
		s-0.4-0.7-0.4-1.2v-2.9h0.8v2.8c0,0.3,0.1,0.6,0.2,0.8c0.2,0.2,0.4,0.3,0.7,0.3c0.3,0,0.5-0.1,0.7-0.2c0.2-0.2,0.3-0.4,0.4-0.6v-3
		H331.8L331.8,166.4z"/>
	<path class="st4" d="M335.4,166.4v0.8c-0.1-0.1-0.3-0.1-0.5-0.1c-0.2,0-0.5,0.1-0.6,0.2c-0.2,0.1-0.3,0.4-0.4,0.6v3h-0.8v-4.4h0.8
		v0.6c0.1-0.2,0.2-0.4,0.4-0.5c0.2-0.1,0.4-0.2,0.7-0.2C335.2,166.3,335.3,166.3,335.4,166.4z"/>
	<path class="st4" d="M337,164.7c0.1,0.1,0.1,0.2,0.1,0.3c0,0.1,0,0.2-0.1,0.3c-0.1,0.1-0.2,0.1-0.3,0.1c-0.1,0-0.2,0-0.3-0.1
		c-0.1-0.1-0.1-0.2-0.1-0.3c0-0.1,0-0.2,0.1-0.3c0.1-0.1,0.2-0.1,0.3-0.1C336.8,164.6,337,164.6,337,164.7z M337.1,166.4v4.4h-0.8
		v-4.4H337.1z"/>
	<path class="st4" d="M338.6,169.7V167h-0.7v-0.6h0.7v-1.2h0.8v1.2h1.1v0.6h-1.1v2.6c0,0.4,0.2,0.6,0.6,0.6c0.2,0,0.4-0.1,0.6-0.2
		v0.7c-0.2,0.1-0.4,0.1-0.7,0.1c-0.4,0-0.7-0.1-0.9-0.3C338.7,170.4,338.6,170.1,338.6,169.7z"/>
	<path class="st4" d="M342.8,172.5h-0.7l0.7-1.7l-1.7-4.5h0.8l1.3,3.5l1.3-3.5h0.8L342.8,172.5z"/>
	<path class="st4" d="M351.1,166.4l0.9,3.4l1-3.4h0.7l-1.3,4.4h-0.7l-0.9-3.4l-0.9,3.4h-0.7l-1.3-4.4h0.8l1,3.4l0.9-3.4H351.1z"/>
	<path class="st4" d="M357.8,166.9c0.4,0.4,0.6,1,0.6,1.7c0,0.7-0.2,1.2-0.6,1.7c-0.4,0.4-0.9,0.6-1.5,0.6c-0.6,0-1.1-0.2-1.5-0.6
		c-0.4-0.4-0.6-1-0.6-1.7c0-0.7,0.2-1.2,0.6-1.7c0.4-0.4,0.9-0.6,1.5-0.6C356.9,166.3,357.4,166.5,357.8,166.9z M357.2,169.8
		c0.2-0.3,0.3-0.7,0.3-1.2c0-0.5-0.1-0.9-0.3-1.2c-0.2-0.3-0.5-0.5-0.9-0.5c-0.4,0-0.7,0.2-0.9,0.5c-0.2,0.3-0.3,0.7-0.3,1.2
		c0,0.5,0.1,0.9,0.3,1.2c0.2,0.3,0.5,0.5,0.9,0.5C356.7,170.2,357,170.1,357.2,169.8z"/>
	<path class="st4" d="M361.6,166.4v0.8c-0.1-0.1-0.3-0.1-0.5-0.1c-0.2,0-0.5,0.1-0.6,0.2c-0.2,0.1-0.3,0.4-0.4,0.6v3h-0.8v-4.4h0.8
		v0.6c0.1-0.2,0.2-0.4,0.4-0.5c0.2-0.1,0.4-0.2,0.7-0.2C361.4,166.3,361.5,166.3,361.6,166.4z"/>
	<path class="st4" d="M365.4,170.8v-0.5c-0.1,0.2-0.3,0.3-0.5,0.4c-0.2,0.1-0.5,0.2-0.7,0.2c-0.6,0-1.1-0.2-1.5-0.7
		c-0.4-0.4-0.5-1-0.5-1.6c0-0.7,0.2-1.2,0.5-1.6s0.8-0.7,1.5-0.7c0.3,0,0.5,0.1,0.7,0.2c0.2,0.1,0.4,0.3,0.5,0.4v-2.6h0.8v6.5
		L365.4,170.8L365.4,170.8z M365.4,169.5v-1.8c-0.1-0.2-0.3-0.4-0.5-0.5s-0.4-0.2-0.7-0.2c-0.4,0-0.7,0.2-1,0.5
		c-0.2,0.3-0.4,0.7-0.4,1.2c0,0.5,0.1,0.9,0.4,1.2c0.2,0.3,0.6,0.5,1,0.5c0.2,0,0.5-0.1,0.7-0.2
		C365.1,169.9,365.3,169.7,365.4,169.5z"/>
</g>
<g>
	<path class="st0" d="M170.2,0H29.8C13.4,0,0,13.4,0,29.8v363.3C0,409.6,13.4,423,29.8,423h140.3c16.5,0,29.8-13.4,29.8-29.8V29.8
		C200,13.4,186.6,0,170.2,0z M185,364H13V61h172V364z"/>
	<g>
		<g>
			<path class="st1" d="M13.3,61.6v303h172v-303C185.3,61.6,13.3,61.6,13.3,61.6z"/>
		</g>
	</g>
	<path class="st0" d="M0,29.8C0,13.4,13.4,0,29.8,0"/>
	<circle class="st3" cx="100" cy="22.2" r="3.2"/>
	<path class="st3" d="M122.6,33.7H77.4c-1,0-1.8-0.8-1.8-1.8l0,0c0-1,0.8-1.8,1.8-1.8h45.2c1,0,1.8,0.8,1.8,1.8l0,0
		C124.3,32.9,123.6,33.7,122.6,33.7z"/>
	<g>
		<path class="st4" d="M33,103.1h-0.9l-3.3-8v8h-1.3V92.7H29l3.5,8.6l3.5-8.6h1.5v10.4h-1.3v-8L33,103.1z"/>
		<path class="st4" d="M41.1,92.7c0.2,0.2,0.2,0.4,0.2,0.6s-0.1,0.4-0.2,0.6c-0.2,0.2-0.4,0.2-0.6,0.2S40.1,94,40,93.9
			c-0.2-0.2-0.2-0.4-0.2-0.6c0-0.2,0.1-0.4,0.2-0.6c0.2-0.2,0.4-0.2,0.6-0.2S41,92.5,41.1,92.7z M41.2,95.6v7.5h-1.3v-7.5H41.2z"/>
		<path class="st4" d="M47.4,95.5v1.3c-0.2-0.1-0.5-0.2-0.8-0.2c-0.4,0-0.8,0.1-1.1,0.4c-0.3,0.2-0.5,0.6-0.7,1v5.1h-1.3v-7.5h1.3v1
			c0.2-0.3,0.4-0.6,0.8-0.8c0.3-0.2,0.7-0.3,1.1-0.3C47,95.4,47.2,95.4,47.4,95.5z"/>
		<path class="st4" d="M53.9,103.1L51,99.6l-0.8,0.8v2.7h-1.3V92.1h1.3v6.9l3.5-3.3h1.7L52,98.8l3.5,4.3
			C55.5,103.1,53.9,103.1,53.9,103.1z"/>
		<path class="st4" d="M62,96.5c0.6,0.7,1,1.7,1,2.8c0,1.2-0.3,2.1-1,2.8s-1.5,1.1-2.5,1.1c-1,0-1.9-0.4-2.5-1.1
			c-0.6-0.7-1-1.7-1-2.8c0-1.2,0.3-2.1,1-2.8c0.6-0.7,1.5-1.1,2.5-1.1C60.6,95.4,61.4,95.8,62,96.5z M61.1,101.4
			c0.4-0.5,0.6-1.2,0.6-2c0-0.8-0.2-1.5-0.6-2c-0.4-0.5-0.9-0.8-1.6-0.8c-0.7,0-1.2,0.3-1.6,0.8c-0.4,0.5-0.6,1.2-0.6,2
			c0,0.8,0.2,1.5,0.6,2c0.4,0.5,0.9,0.8,1.6,0.8C60.2,102.1,60.7,101.9,61.1,101.4z"/>
		<path class="st4" d="M26.6,115h1c0.3,0.9,1,1.3,2,1.3c0.5,0,1-0.1,1.3-0.4c0.3-0.2,0.5-0.6,0.5-1c0-0.3-0.1-0.6-0.3-0.8
			c-0.2-0.2-0.5-0.4-1-0.5l-1.4-0.4c-1.3-0.3-1.9-1-1.9-2.1c0-0.7,0.2-1.2,0.7-1.6c0.5-0.4,1.1-0.6,1.9-0.6c0.8,0,1.5,0.2,1.9,0.6
			s0.8,0.9,1,1.5h-1c-0.3-0.8-0.9-1.2-1.9-1.2c-0.5,0-0.9,0.1-1.2,0.4c-0.3,0.2-0.5,0.6-0.5,1c0,0.3,0.1,0.6,0.3,0.8
			c0.2,0.2,0.5,0.3,1,0.4l1.4,0.4c1.3,0.3,2,1.1,2,2.1c0,0.7-0.3,1.3-0.8,1.7c-0.5,0.4-1.2,0.6-2,0.6c-0.8,0-1.5-0.2-2-0.6
			C27.1,116.3,26.7,115.7,26.6,115z"/>
		<path class="st4" d="M37.5,115.4h0.9c-0.1,0.6-0.4,1-0.8,1.3c-0.4,0.3-0.9,0.5-1.6,0.5c-0.8,0-1.4-0.3-1.9-0.8
			c-0.5-0.6-0.7-1.3-0.7-2.2c0-0.9,0.2-1.6,0.7-2.2c0.5-0.6,1.1-0.9,1.9-0.9c0.8,0,1.4,0.3,1.8,0.8c0.4,0.5,0.6,1.2,0.6,2.1v0.4
			h-4.1c0,0.6,0.2,1.1,0.5,1.4s0.7,0.5,1.2,0.5c0.4,0,0.7-0.1,0.9-0.3C37.2,115.9,37.4,115.7,37.5,115.4z M36.1,112
			c-0.4,0-0.8,0.1-1.1,0.4c-0.3,0.3-0.5,0.7-0.5,1.2h3.1c0-0.5-0.1-0.8-0.4-1.2C36.9,112.2,36.5,112,36.1,112z"/>
		<path class="st4" d="M40.1,116.4c-0.5-0.6-0.7-1.3-0.7-2.2c0-0.9,0.2-1.6,0.7-2.2c0.5-0.6,1.1-0.8,1.9-0.8c0.6,0,1.1,0.2,1.6,0.5
			c0.4,0.3,0.7,0.8,0.8,1.4h-1c-0.1-0.3-0.2-0.6-0.4-0.7c-0.2-0.2-0.5-0.3-0.9-0.3c-0.5,0-0.9,0.2-1.2,0.6c-0.3,0.4-0.4,0.9-0.4,1.5
			c0,0.6,0.1,1.1,0.4,1.5c0.3,0.4,0.7,0.6,1.2,0.6c0.3,0,0.6-0.1,0.9-0.3c0.2-0.2,0.4-0.4,0.4-0.7h1c-0.1,0.6-0.4,1-0.8,1.4
			c-0.4,0.3-0.9,0.5-1.6,0.5C41.2,117.2,40.6,116.9,40.1,116.4z"/>
		<path class="st4" d="M50.2,111.3v5.8h-1v-0.7c-0.2,0.2-0.4,0.4-0.7,0.6c-0.3,0.2-0.6,0.2-1,0.2c-0.6,0-1.1-0.2-1.5-0.6
			c-0.4-0.4-0.5-0.9-0.5-1.5v-3.8h1v3.6c0,0.4,0.1,0.8,0.3,1c0.2,0.2,0.5,0.4,0.9,0.4c0.3,0,0.6-0.1,0.9-0.3
			c0.3-0.2,0.4-0.5,0.6-0.8v-3.9L50.2,111.3L50.2,111.3z"/>
		<path class="st4" d="M54.9,111.3v1c-0.2-0.1-0.4-0.2-0.6-0.2c-0.3,0-0.6,0.1-0.8,0.3c-0.2,0.2-0.4,0.5-0.5,0.8v3.9h-1v-5.8h1v0.8
			c0.1-0.3,0.3-0.5,0.6-0.6c0.3-0.2,0.5-0.2,0.9-0.2C54.6,111.2,54.8,111.2,54.9,111.3z"/>
		<path class="st4" d="M59.6,115.4h0.9c-0.1,0.6-0.4,1-0.8,1.3c-0.4,0.3-0.9,0.5-1.6,0.5c-0.8,0-1.4-0.3-1.9-0.8
			c-0.5-0.6-0.7-1.3-0.7-2.2c0-0.9,0.2-1.6,0.7-2.2c0.5-0.6,1.1-0.9,1.9-0.9c0.8,0,1.4,0.3,1.8,0.8s0.6,1.2,0.6,2.1v0.4h-4.1
			c0,0.6,0.2,1.1,0.5,1.4c0.3,0.4,0.7,0.5,1.2,0.5c0.4,0,0.7-0.1,0.9-0.3S59.5,115.7,59.6,115.4z M58.2,112c-0.4,0-0.8,0.1-1.1,0.4
			s-0.5,0.7-0.5,1.2h3.1c0-0.5-0.1-0.8-0.4-1.2C59,112.2,58.6,112,58.2,112z"/>
		<path class="st4" d="M65.7,117.1v-0.7c-0.2,0.2-0.4,0.4-0.7,0.6c-0.3,0.2-0.6,0.2-0.9,0.2c-0.8,0-1.5-0.3-1.9-0.9
			c-0.5-0.6-0.7-1.3-0.7-2.1c0-0.8,0.2-1.6,0.7-2.1c0.5-0.6,1.1-0.9,1.9-0.9c0.3,0,0.7,0.1,0.9,0.2c0.3,0.2,0.5,0.3,0.7,0.6v-3.4h1
			v8.4L65.7,117.1L65.7,117.1z M65.7,115.4V113c-0.1-0.3-0.4-0.5-0.6-0.7c-0.3-0.2-0.6-0.3-0.9-0.3c-0.5,0-1,0.2-1.3,0.6
			c-0.3,0.4-0.5,0.9-0.5,1.5c0,0.6,0.2,1.1,0.5,1.5c0.3,0.4,0.7,0.6,1.3,0.6c0.3,0,0.6-0.1,0.9-0.3
			C65.4,115.9,65.6,115.7,65.7,115.4z"/>
		<path class="st4" d="M68.2,117c-0.1-0.1-0.2-0.3-0.2-0.5c0-0.2,0.1-0.4,0.2-0.5c0.1-0.1,0.3-0.2,0.5-0.2c0.2,0,0.4,0.1,0.5,0.2
			c0.1,0.1,0.2,0.3,0.2,0.5c0,0.2-0.1,0.4-0.2,0.5c-0.1,0.1-0.3,0.2-0.5,0.2C68.5,117.2,68.3,117.1,68.2,117z"/>
		<path class="st4" d="M76,109.1h1l3.1,8h-1l-0.9-2.4h-3.3l-0.9,2.4h-1L76,109.1z M76.5,110.4l-1.3,3.4h2.6L76.5,110.4z"/>
		<path class="st4" d="M81.5,116.4c-0.5-0.6-0.7-1.3-0.7-2.2c0-0.9,0.2-1.6,0.7-2.2c0.5-0.6,1.1-0.8,1.9-0.8c0.6,0,1.1,0.2,1.6,0.5
			c0.4,0.3,0.7,0.8,0.8,1.4h-1c-0.1-0.3-0.2-0.6-0.4-0.7c-0.2-0.2-0.5-0.3-0.9-0.3c-0.5,0-0.9,0.2-1.2,0.6c-0.3,0.4-0.4,0.9-0.4,1.5
			c0,0.6,0.1,1.1,0.4,1.5c0.3,0.4,0.7,0.6,1.2,0.6c0.3,0,0.6-0.1,0.9-0.3c0.2-0.2,0.4-0.4,0.4-0.7h1c-0.1,0.6-0.4,1-0.8,1.4
			c-0.4,0.3-0.9,0.5-1.6,0.5C82.6,117.2,82,116.9,81.5,116.4z"/>
		<path class="st4" d="M87.3,115.6v-3.5h-0.9v-0.8h0.9v-1.5h1v1.5h1.4v0.8h-1.4v3.4c0,0.5,0.3,0.8,0.8,0.8c0.3,0,0.5-0.1,0.8-0.2
			v0.9c-0.2,0.1-0.5,0.2-0.9,0.2c-0.5,0-0.9-0.1-1.2-0.4C87.4,116.6,87.3,116.2,87.3,115.6z"/>
		<path class="st4" d="M92.1,109.1c0.1,0.1,0.2,0.3,0.2,0.4c0,0.2-0.1,0.3-0.2,0.4c-0.1,0.1-0.3,0.2-0.4,0.2s-0.3-0.1-0.4-0.2
			c-0.1-0.1-0.2-0.3-0.2-0.4c0-0.2,0.1-0.3,0.2-0.4c0.1-0.1,0.3-0.2,0.4-0.2C91.8,109,91.9,109,92.1,109.1z M92.1,111.3v5.8h-1v-5.8
			H92.1z"/>
		<path class="st4" d="M96.4,117.1h-1l-2.2-5.8h1.1l1.7,4.5l1.7-4.5h1L96.4,117.1z"/>
		<path class="st4" d="M103.3,115.4h0.9c-0.1,0.6-0.4,1-0.8,1.3c-0.4,0.3-0.9,0.5-1.6,0.5c-0.8,0-1.4-0.3-1.9-0.8
			c-0.5-0.6-0.7-1.3-0.7-2.2c0-0.9,0.2-1.6,0.7-2.2c0.5-0.6,1.1-0.9,1.9-0.9c0.8,0,1.4,0.3,1.8,0.8c0.4,0.5,0.6,1.2,0.6,2.1v0.4
			h-4.1c0,0.6,0.2,1.1,0.5,1.4c0.3,0.4,0.7,0.5,1.2,0.5c0.4,0,0.7-0.1,0.9-0.3S103.2,115.7,103.3,115.4z M101.9,112
			c-0.4,0-0.8,0.1-1.1,0.4c-0.3,0.3-0.5,0.7-0.5,1.2h3.1c0-0.5-0.1-0.8-0.4-1.2C102.7,112.2,102.3,112,101.9,112z"/>
		<path class="st4" d="M105.4,117c-0.1-0.1-0.2-0.3-0.2-0.5c0-0.2,0.1-0.4,0.2-0.5c0.1-0.1,0.3-0.2,0.5-0.2c0.2,0,0.4,0.1,0.5,0.2
			c0.1,0.1,0.2,0.3,0.2,0.5c0,0.2-0.1,0.4-0.2,0.5c-0.1,0.1-0.3,0.2-0.5,0.2C105.7,117.2,105.5,117.1,105.4,117z"/>
	</g>
	<g>
		<circle class="st0" cx="101.2" cy="391.1" r="17.1"/>
	</g>
	<g>
		<g>
			<path class="st2" d="M101.2,374c0,0,0.2,0,0.6,0c0.4,0,1-0.1,1.7,0c0.4,0,0.8,0.1,1.2,0.1c0.4,0.1,0.9,0.2,1.4,0.3
				c0.5,0.1,1,0.3,1.6,0.5c0.6,0.2,1.1,0.5,1.7,0.7c0.6,0.3,1.2,0.6,1.8,1c0.6,0.4,1.2,0.8,1.8,1.3c1.2,0.9,2.2,2.1,3.2,3.5
				c0.9,1.4,1.7,2.9,2.2,4.6c0.5,1.7,0.8,3.4,0.8,5.2c-0.1,1,0,1.7-0.2,2.6c-0.1,0.9-0.4,1.8-0.6,2.6c-0.5,1.7-1.3,3.2-2.2,4.6
				c-0.9,1.4-2,2.6-3.2,3.5c-0.6,0.5-1.2,0.9-1.8,1.3c-0.6,0.4-1.2,0.7-1.8,1c-0.6,0.2-1.2,0.5-1.7,0.7c-0.6,0.2-1.1,0.4-1.6,0.5
				c-0.5,0.1-1,0.2-1.4,0.3c-0.4,0-0.9,0.1-1.2,0.1c-0.7,0.1-1.3,0-1.7,0c-0.4,0-0.6,0-0.6,0s0.2,0,0.6-0.1c0.4-0.1,1-0.1,1.7-0.3
				c0.4-0.1,0.7-0.2,1.2-0.3c0.4-0.1,0.9-0.3,1.3-0.4c0.5-0.2,0.9-0.4,1.5-0.6c0.5-0.2,1-0.5,1.5-0.8c1-0.7,2.1-1.4,3.1-2.4
				c1-0.9,1.9-2.1,2.7-3.3c0.8-1.3,1.4-2.7,1.9-4.2c0.2-0.8,0.4-1.5,0.5-2.3c0.1-0.7,0.1-1.7,0.2-2.4c0-1.6-0.2-3.2-0.7-4.7
				c-0.5-1.5-1-2.9-1.9-4.2c-0.8-1.2-1.7-2.4-2.7-3.3c-1-1-2.1-1.7-3.1-2.4c-0.5-0.3-1-0.6-1.5-0.8c-0.5-0.2-1-0.5-1.5-0.6
				c-0.5-0.2-0.9-0.3-1.3-0.4c-0.4-0.1-0.8-0.2-1.2-0.3c-0.7-0.2-1.3-0.2-1.7-0.3C101.4,374,101.2,374,101.2,374z"/>
		</g>
		<path class="st0" d="M101.2,408.2c-9.4,0-17.1-7.6-17.1-17.1c0-9.4,7.6-17.1,17.1-17.1"/>
	</g>
	<circle class="st5" cx="100.9" cy="311.9" r="29.4"/>
	<path class="st6" d="M107.7,297.7c-0.1,0-0.1,0.1-0.2,0.1c-8.6,5.1-15.6,11.9-20.5,20.6c-1,1.7-1.4,3.7-2.1,5.7
		c0.4,0.8,0.6,1.7,1.1,2.3c1.3,1.4,2.7,2.8,4.2,3.9c1.7,1.3,2.7,1,4-0.7c1-1.4,1.8-3,2.9-4.3c1.8-2.2,2-4.3,0.2-6.5
		c-0.9-1.2-0.6-2.1,0.4-3c2.2-2.2,4.4-4.3,6.5-6.6c1.4-1.5,2.7-1.7,4.3-0.5c1.2,0.9,2.6,1.4,3.9,0.5c2.2-1.4,4.4-2.8,6.4-4.3
		c1.5-1.1,1.6-2,0.7-3.7C116.4,295.9,113,294.9,107.7,297.7z M117.5,303.7c-1.7,1.1-3.5,2.2-5.2,3.4c-1.4,1-2.5,0.3-3.7-0.4
		c-2.7-1.5-2.8-1.6-5.1,0.6c-2.8,2.6-5.3,5.4-8,8.2c-1,1-1.1,2-0.2,3.1c1.7,2.1,1.7,4.1-0.2,6.2c-0.9,1-1.6,2.3-2.3,3.5
		c-0.6,0.9-1.2,1.1-2,0.3c-1.2-1.1-2.4-2.1-3.5-3.2c-0.4-0.4-0.5-1-0.7-1.7c0.7-1.7,1.2-3.6,2.1-5.2c4.7-7.8,11-14.1,18.8-18.9
		c0.5-0.3,1-0.5,1.6-0.8c4.3-1.9,6.5-1.1,8.8,3C118.4,302.7,118.2,303.2,117.5,303.7z"/>
	<rect x="13.8" y="176.1" class="st6" width="170.2" height="27"/>
	<g>
		<path class="st7" d="M25.8,191.7c-0.7-0.8-1-1.7-1-3s0.3-2.2,1-3c0.7-0.8,1.5-1.1,2.6-1.1c0.8,0,1.5,0.2,2,0.7
			c0.5,0.4,0.9,1,1.1,1.8h-1c-0.4-1-1.1-1.5-2.1-1.5c-0.8,0-1.4,0.3-1.8,0.9c-0.5,0.6-0.7,1.4-0.7,2.3c0,0.9,0.2,1.7,0.7,2.3
			c0.5,0.6,1.1,0.9,1.8,0.9c1,0,1.7-0.5,2.1-1.5h1c-0.2,0.8-0.5,1.4-1.1,1.8c-0.5,0.4-1.2,0.7-2,0.7
			C27.3,192.9,26.5,192.5,25.8,191.7z"/>
		<path class="st7" d="M37,187.7c0.5,0.6,0.7,1.3,0.7,2.2c0,0.9-0.2,1.6-0.7,2.2c-0.5,0.6-1.1,0.8-1.9,0.8c-0.8,0-1.4-0.3-1.9-0.8
			c-0.5-0.6-0.7-1.3-0.7-2.2c0-0.9,0.2-1.6,0.7-2.2c0.5-0.6,1.1-0.8,1.9-0.8C35.8,186.9,36.5,187.2,37,187.7z M36.3,191.4
			c0.3-0.4,0.4-0.9,0.4-1.6c0-0.6-0.1-1.2-0.4-1.6c-0.3-0.4-0.7-0.6-1.2-0.6s-0.9,0.2-1.2,0.6s-0.4,0.9-0.4,1.6
			c0,0.6,0.1,1.2,0.4,1.6c0.3,0.4,0.7,0.6,1.2,0.6S36,191.8,36.3,191.4z"/>
		<path class="st7" d="M43.1,187.8c0.4-0.6,1-0.9,1.8-0.9c0.6,0,1,0.2,1.3,0.6c0.3,0.4,0.5,0.9,0.5,1.5v3.8h-1v-3.7
			c0-0.4-0.1-0.7-0.3-1c-0.2-0.2-0.5-0.4-0.8-0.4c-0.3,0-0.6,0.1-0.8,0.3c-0.2,0.2-0.4,0.4-0.5,0.7v4h-1v-3.7c0-0.4-0.1-0.7-0.3-1
			c-0.2-0.2-0.5-0.4-0.8-0.4c-0.3,0-0.6,0.1-0.8,0.3c-0.2,0.2-0.4,0.4-0.5,0.7v4h-1V187h1v0.7c0.3-0.5,0.9-0.8,1.6-0.8
			C42.3,186.9,42.8,187.2,43.1,187.8z"/>
		<path class="st7" d="M52.4,187.8c0.4-0.6,1-0.9,1.8-0.9c0.6,0,1,0.2,1.3,0.6c0.3,0.4,0.5,0.9,0.5,1.5v3.8h-1v-3.7
			c0-0.4-0.1-0.7-0.3-1c-0.2-0.2-0.5-0.4-0.8-0.4c-0.3,0-0.6,0.1-0.8,0.3c-0.2,0.2-0.4,0.4-0.5,0.7v4h-1v-3.7c0-0.4-0.1-0.7-0.3-1
			c-0.2-0.2-0.5-0.4-0.8-0.4c-0.3,0-0.6,0.1-0.8,0.3c-0.2,0.2-0.4,0.4-0.5,0.7v4h-1V187h1v0.7c0.3-0.5,0.9-0.8,1.6-0.8
			C51.6,186.9,52.1,187.2,52.4,187.8z"/>
		<path class="st7" d="M61.3,191h0.9c-0.1,0.6-0.4,1-0.8,1.3c-0.4,0.3-0.9,0.5-1.6,0.5c-0.8,0-1.4-0.3-1.9-0.8
			c-0.5-0.6-0.7-1.3-0.7-2.2c0-0.9,0.2-1.6,0.7-2.2c0.5-0.6,1.1-0.9,1.9-0.9c0.8,0,1.4,0.3,1.8,0.8c0.4,0.5,0.6,1.2,0.6,2.1v0.4
			h-4.1c0,0.6,0.2,1.1,0.5,1.4c0.3,0.4,0.7,0.5,1.2,0.5c0.4,0,0.7-0.1,0.9-0.3C61.1,191.6,61.2,191.4,61.3,191z M59.9,187.7
			c-0.4,0-0.8,0.1-1.1,0.4c-0.3,0.3-0.5,0.7-0.5,1.2h3.1c0-0.5-0.1-0.8-0.4-1.1C60.7,187.9,60.3,187.7,59.9,187.7z"/>
		<path class="st7" d="M63.6,192.8V187h1v0.7c0.2-0.2,0.4-0.4,0.7-0.6c0.3-0.2,0.6-0.2,1-0.2c0.6,0,1.1,0.2,1.5,0.6
			c0.4,0.4,0.5,0.9,0.5,1.5v3.8h-1v-3.6c0-0.4-0.1-0.7-0.3-1s-0.5-0.4-1-0.4c-0.3,0-0.6,0.1-0.9,0.3c-0.3,0.2-0.5,0.5-0.6,0.8v3.9
			L63.6,192.8L63.6,192.8z"/>
		<path class="st7" d="M70.3,192c-0.5-0.6-0.7-1.3-0.7-2.2c0-0.9,0.2-1.6,0.7-2.2c0.5-0.6,1.1-0.8,1.9-0.8c0.6,0,1.2,0.2,1.6,0.5
			c0.4,0.3,0.7,0.8,0.8,1.4h-1c-0.1-0.3-0.2-0.6-0.4-0.7c-0.2-0.2-0.5-0.3-0.9-0.3c-0.5,0-0.9,0.2-1.2,0.6s-0.4,0.9-0.4,1.5
			c0,0.6,0.1,1.1,0.4,1.5c0.3,0.4,0.7,0.6,1.2,0.6c0.3,0,0.6-0.1,0.9-0.3c0.2-0.2,0.4-0.4,0.4-0.7h1c-0.1,0.6-0.4,1-0.8,1.4
			c-0.4,0.3-0.9,0.5-1.6,0.5C71.4,192.9,70.8,192.6,70.3,192z"/>
		<path class="st7" d="M79.4,191h0.9c-0.1,0.6-0.4,1-0.8,1.3c-0.4,0.3-0.9,0.5-1.6,0.5c-0.8,0-1.4-0.3-1.9-0.8
			c-0.5-0.6-0.7-1.3-0.7-2.2c0-0.9,0.2-1.6,0.7-2.2c0.5-0.6,1.1-0.9,1.9-0.9c0.8,0,1.4,0.3,1.8,0.8c0.4,0.5,0.6,1.2,0.6,2.1v0.4
			h-4.1c0,0.6,0.2,1.1,0.5,1.4c0.3,0.4,0.7,0.5,1.2,0.5c0.4,0,0.7-0.1,0.9-0.3C79.1,191.6,79.3,191.4,79.4,191z M78,187.7
			c-0.4,0-0.8,0.1-1.1,0.4c-0.3,0.3-0.5,0.7-0.5,1.2h3.1c0-0.5-0.1-0.8-0.4-1.1C78.8,187.9,78.4,187.7,78,187.7z"/>
		<path class="st7" d="M91.4,192.8h-1v-8h4.9v0.9h-3.8v2.7H95v0.9h-3.6V192.8z"/>
		<path class="st7" d="M100.6,187.7c0.5,0.6,0.7,1.3,0.7,2.2c0,0.9-0.2,1.6-0.7,2.2c-0.5,0.6-1.1,0.8-1.9,0.8
			c-0.8,0-1.4-0.3-1.9-0.8c-0.5-0.6-0.7-1.3-0.7-2.2c0-0.9,0.2-1.6,0.7-2.2c0.5-0.6,1.1-0.8,1.9-0.8
			C99.5,186.9,100.1,187.2,100.6,187.7z M99.9,191.4c0.3-0.4,0.4-0.9,0.4-1.6c0-0.6-0.2-1.2-0.4-1.6s-0.7-0.6-1.2-0.6
			c-0.5,0-0.9,0.2-1.2,0.6c-0.3,0.4-0.4,0.9-0.4,1.6c0,0.6,0.1,1.2,0.4,1.6c0.3,0.4,0.7,0.6,1.2,0.6C99.2,192,99.6,191.8,99.9,191.4
			z"/>
		<path class="st7" d="M105.6,187v1c-0.2-0.1-0.4-0.2-0.6-0.2c-0.3,0-0.6,0.1-0.8,0.3c-0.2,0.2-0.4,0.5-0.5,0.8v3.9h-1V187h1v0.8
			c0.1-0.3,0.3-0.5,0.6-0.6c0.3-0.2,0.5-0.2,0.9-0.2C105.3,186.9,105.5,186.9,105.6,187z"/>
		<path class="st7" d="M107.1,191.3v-3.5h-0.9V187h0.9v-1.5h1v1.5h1.4v0.8h-1.4v3.4c0,0.5,0.3,0.8,0.8,0.8c0.3,0,0.5-0.1,0.8-0.2
			v0.9c-0.2,0.1-0.5,0.2-0.9,0.2c-0.5,0-0.9-0.1-1.2-0.4C107.2,192.2,107.1,191.8,107.1,191.3z"/>
		<path class="st7" d="M111.9,184.8c0.1,0.1,0.2,0.3,0.2,0.4s-0.1,0.3-0.2,0.4c-0.1,0.1-0.3,0.2-0.4,0.2c-0.2,0-0.3-0.1-0.4-0.2
			c-0.1-0.1-0.2-0.3-0.2-0.4c0-0.2,0.1-0.3,0.2-0.4c0.1-0.1,0.3-0.2,0.4-0.2C111.6,184.6,111.8,184.7,111.9,184.8z M111.9,187v5.8
			h-1V187H111.9z"/>
		<path class="st7" d="M116.6,184.3v0.9c-0.2-0.1-0.4-0.2-0.6-0.2c-0.3,0-0.5,0.1-0.7,0.3s-0.3,0.4-0.3,0.8v0.9h1.3v0.8H115v4.9h-1
			v-4.9h-1V187h1v-1c0-0.6,0.2-1,0.5-1.3c0.3-0.3,0.8-0.5,1.3-0.5C116.1,184.2,116.3,184.2,116.6,184.3z"/>
		<path class="st7" d="M118.4,184.8c0.1,0.1,0.2,0.3,0.2,0.4s-0.1,0.3-0.2,0.4c-0.1,0.1-0.3,0.2-0.4,0.2s-0.3-0.1-0.4-0.2
			c-0.1-0.1-0.2-0.3-0.2-0.4c0-0.2,0.1-0.3,0.2-0.4c0.1-0.1,0.3-0.2,0.4-0.2C118.1,184.6,118.2,184.7,118.4,184.8z M118.4,187v5.8
			h-1V187H118.4z"/>
		<path class="st7" d="M123.8,191h0.9c-0.1,0.6-0.4,1-0.8,1.3c-0.4,0.3-0.9,0.5-1.6,0.5c-0.8,0-1.4-0.3-1.9-0.8
			c-0.5-0.6-0.7-1.3-0.7-2.2c0-0.9,0.2-1.6,0.7-2.2c0.5-0.6,1.1-0.9,1.9-0.9c0.8,0,1.4,0.3,1.8,0.8s0.6,1.2,0.6,2.1v0.4h-4.1
			c0,0.6,0.2,1.1,0.5,1.4c0.3,0.4,0.7,0.5,1.2,0.5c0.4,0,0.7-0.1,0.9-0.3C123.5,191.6,123.7,191.4,123.8,191z M122.4,187.7
			c-0.4,0-0.8,0.1-1.1,0.4c-0.3,0.3-0.5,0.7-0.5,1.2h3.1c0-0.5-0.1-0.8-0.4-1.1C123.2,187.9,122.8,187.7,122.4,187.7z"/>
		<path class="st7" d="M129.9,192.8v-0.7c-0.2,0.2-0.4,0.4-0.7,0.6s-0.6,0.2-0.9,0.2c-0.8,0-1.5-0.3-1.9-0.9
			c-0.5-0.6-0.7-1.3-0.7-2.1c0-0.9,0.2-1.6,0.7-2.1c0.5-0.6,1.1-0.9,1.9-0.9c0.3,0,0.7,0.1,0.9,0.2c0.3,0.1,0.5,0.3,0.7,0.6v-3.4h1
			v8.4L129.9,192.8L129.9,192.8z M129.9,191v-2.3c-0.1-0.3-0.4-0.5-0.6-0.7c-0.3-0.2-0.6-0.3-0.9-0.3c-0.5,0-1,0.2-1.3,0.6
			c-0.3,0.4-0.5,0.9-0.5,1.5s0.2,1.1,0.5,1.5c0.3,0.4,0.7,0.6,1.3,0.6c0.3,0,0.6-0.1,0.9-0.3C129.6,191.6,129.8,191.3,129.9,191z"/>
	</g>
	<g>
		<path class="st4" d="M63,234.3h0.8l1.6,5.9l1.5-5.9h0.9l-2,7.4H65l-1.5-5.7l-1.6,5.7H61l-2-7.4H60l1.5,5.9L63,234.3z"/>
		<path class="st4" d="M72.3,241.7h-0.9v-0.4c-0.1,0.1-0.3,0.2-0.6,0.3c-0.3,0.1-0.5,0.2-0.8,0.2c-0.6,0-1-0.2-1.4-0.5
			c-0.4-0.3-0.6-0.7-0.6-1.2c0-0.5,0.2-0.9,0.6-1.2c0.4-0.3,0.9-0.5,1.5-0.5c0.3,0,0.5,0,0.8,0.1c0.3,0.1,0.4,0.2,0.6,0.3v-0.7
			c0-0.3-0.1-0.6-0.3-0.8c-0.2-0.2-0.5-0.3-0.9-0.3c-0.6,0-0.9,0.2-1.1,0.7h-0.9c0.1-0.4,0.3-0.8,0.7-1.1c0.4-0.3,0.8-0.4,1.3-0.4
			c0.6,0,1.1,0.2,1.5,0.5c0.4,0.3,0.5,0.8,0.5,1.4L72.3,241.7L72.3,241.7z M71.4,240.4v-0.6c-0.1-0.2-0.2-0.4-0.5-0.5
			c-0.2-0.1-0.5-0.2-0.8-0.2c-0.4,0-0.7,0.1-0.9,0.2c-0.2,0.2-0.4,0.4-0.4,0.7c0,0.3,0.1,0.5,0.4,0.7s0.5,0.2,0.9,0.2
			c0.3,0,0.5-0.1,0.8-0.2C71.2,240.7,71.4,240.6,71.4,240.4z"/>
		<path class="st4" d="M74.7,234.3c0.1,0.1,0.2,0.2,0.2,0.4s-0.1,0.3-0.2,0.4c-0.1,0.1-0.3,0.2-0.4,0.2c-0.2,0-0.3-0.1-0.4-0.2
			c-0.1-0.1-0.2-0.2-0.2-0.4s0.1-0.3,0.2-0.4c0.1-0.1,0.2-0.2,0.4-0.2S74.6,234.2,74.7,234.3z M74.7,236.4v5.3h-0.9v-5.3H74.7z"/>
		<path class="st4" d="M76.6,240.3v-3.2h-0.9v-0.8h0.9v-1.4h0.9v1.4h1.3v0.8h-1.3v3.1c0,0.5,0.2,0.7,0.7,0.7c0.2,0,0.5-0.1,0.7-0.2
			v0.8c-0.2,0.1-0.5,0.2-0.8,0.2c-0.4,0-0.8-0.1-1.1-0.4C76.7,241.2,76.6,240.8,76.6,240.3z"/>
		<path class="st4" d="M81,234.3c0.1,0.1,0.2,0.2,0.2,0.4s-0.1,0.3-0.2,0.4c-0.1,0.1-0.3,0.2-0.4,0.2c-0.2,0-0.3-0.1-0.4-0.2
			c-0.1-0.1-0.2-0.2-0.2-0.4s0.1-0.3,0.2-0.4c0.1-0.1,0.2-0.2,0.4-0.2C80.8,234.2,80.9,234.2,81,234.3z M81.1,236.4v5.3h-0.9v-5.3
			H81.1z"/>
		<path class="st4" d="M82.7,241.7v-5.3h0.9v0.7c0.2-0.2,0.4-0.4,0.7-0.6c0.3-0.1,0.6-0.2,0.9-0.2c0.6,0,1.1,0.2,1.4,0.5
			c0.3,0.4,0.5,0.8,0.5,1.4v3.5h-0.9v-3.3c0-0.4-0.1-0.7-0.3-0.9s-0.5-0.3-0.9-0.3c-0.3,0-0.6,0.1-0.8,0.3c-0.2,0.2-0.4,0.4-0.5,0.7
			v3.6L82.7,241.7L82.7,241.7L82.7,241.7z"/>
		<path class="st4" d="M92,241.3v-0.4c-0.1,0.2-0.4,0.4-0.6,0.5c-0.3,0.1-0.6,0.2-0.9,0.2c-0.7,0-1.3-0.3-1.8-0.8
			c-0.4-0.5-0.6-1.2-0.6-1.9c0-0.8,0.2-1.4,0.6-1.9c0.4-0.5,1-0.8,1.8-0.8c0.3,0,0.6,0.1,0.9,0.2c0.3,0.1,0.5,0.3,0.6,0.5v-0.6h0.9
			v4.9c0,0.8-0.2,1.5-0.7,1.9c-0.4,0.4-1,0.7-1.7,0.7c-0.6,0-1.2-0.2-1.6-0.5c-0.4-0.3-0.6-0.7-0.7-1.3h0.9c0.2,0.7,0.6,1,1.4,1
			C91.5,243.1,92,242.5,92,241.3z M92,240v-2.1c-0.3-0.6-0.8-0.8-1.4-0.8c-0.5,0-0.9,0.2-1.2,0.5c-0.3,0.4-0.4,0.8-0.4,1.4
			c0,0.6,0.1,1,0.4,1.4c0.3,0.3,0.7,0.5,1.2,0.5C91.3,240.8,91.7,240.6,92,240z"/>
		<path class="st4" d="M99.9,233.9v0.8c-0.2-0.1-0.3-0.1-0.6-0.1c-0.3,0-0.5,0.1-0.6,0.3c-0.2,0.2-0.2,0.4-0.2,0.7v0.8h1.2v0.8h-1.2
			v4.6h-0.9v-4.6h-0.9v-0.8h0.9v-0.9c0-0.5,0.2-0.9,0.5-1.2c0.3-0.3,0.7-0.5,1.2-0.5C99.4,233.8,99.7,233.8,99.9,233.9z"/>
		<path class="st4" d="M104.4,237c0.5,0.5,0.7,1.2,0.7,2s-0.2,1.5-0.7,2c-0.5,0.5-1,0.8-1.8,0.8c-0.7,0-1.3-0.3-1.8-0.8
			c-0.5-0.5-0.7-1.2-0.7-2s0.2-1.5,0.7-2c0.5-0.5,1-0.8,1.8-0.8C103.4,236.2,104,236.5,104.4,237z M103.8,240.4
			c0.3-0.4,0.4-0.8,0.4-1.4c0-0.6-0.1-1.1-0.4-1.4c-0.3-0.4-0.7-0.5-1.1-0.5c-0.5,0-0.8,0.2-1.1,0.5c-0.3,0.4-0.4,0.8-0.4,1.4
			c0,0.6,0.1,1.1,0.4,1.4c0.3,0.4,0.6,0.5,1.1,0.5C103.1,241,103.5,240.8,103.8,240.4z"/>
		<path class="st4" d="M109.1,236.3v0.9c-0.1-0.1-0.3-0.1-0.6-0.1c-0.3,0-0.5,0.1-0.8,0.3c-0.2,0.2-0.4,0.4-0.5,0.7v3.6h-0.9v-5.3
			h0.9v0.7c0.1-0.2,0.3-0.4,0.5-0.6c0.2-0.2,0.5-0.2,0.8-0.2C108.8,236.2,108.9,236.3,109.1,236.3z"/>
		<path class="st4" d="M115.1,234.3h0.9l2.9,7.4h-1l-0.9-2.2h-3l-0.8,2.2h-1L115.1,234.3z M115.6,235.5l-1.2,3.1h2.4L115.6,235.5z"
			/>
		<path class="st4" d="M120,241.7v-5.3h0.9v0.7c0.2-0.2,0.4-0.4,0.7-0.6c0.3-0.1,0.6-0.2,0.9-0.2c0.6,0,1.1,0.2,1.4,0.5
			c0.3,0.4,0.5,0.8,0.5,1.4v3.5h-0.9v-3.3c0-0.4-0.1-0.7-0.3-0.9c-0.2-0.2-0.5-0.3-0.9-0.3c-0.3,0-0.6,0.1-0.8,0.3
			c-0.2,0.2-0.4,0.4-0.5,0.7v3.6L120,241.7L120,241.7L120,241.7L120,241.7z"/>
		<path class="st4" d="M125.8,241.7v-5.3h0.9v0.7c0.2-0.2,0.4-0.4,0.7-0.6c0.3-0.1,0.6-0.2,0.9-0.2c0.6,0,1.1,0.2,1.4,0.5
			c0.3,0.4,0.5,0.8,0.5,1.4v3.5h-0.9v-3.3c0-0.4-0.1-0.7-0.3-0.9c-0.2-0.2-0.5-0.3-0.9-0.3c-0.3,0-0.6,0.1-0.8,0.3
			c-0.2,0.2-0.4,0.4-0.5,0.7v3.6L125.8,241.7L125.8,241.7L125.8,241.7z"/>
		<path class="st4" d="M135.6,241.7h-0.9v-0.4c-0.1,0.1-0.3,0.2-0.6,0.3c-0.3,0.1-0.5,0.2-0.8,0.2c-0.6,0-1-0.2-1.4-0.5
			c-0.4-0.3-0.6-0.7-0.6-1.2c0-0.5,0.2-0.9,0.6-1.2c0.4-0.3,0.9-0.5,1.5-0.5c0.3,0,0.5,0,0.8,0.1c0.3,0.1,0.4,0.2,0.6,0.3v-0.7
			c0-0.3-0.1-0.6-0.3-0.8s-0.5-0.3-0.9-0.3c-0.6,0-0.9,0.2-1.1,0.7h-0.9c0.1-0.4,0.3-0.8,0.7-1.1c0.4-0.3,0.8-0.4,1.3-0.4
			c0.6,0,1.1,0.2,1.5,0.5c0.4,0.3,0.5,0.8,0.5,1.4L135.6,241.7L135.6,241.7z M134.7,240.4v-0.6c-0.1-0.2-0.2-0.4-0.5-0.5
			c-0.2-0.1-0.5-0.2-0.8-0.2c-0.4,0-0.6,0.1-0.9,0.2c-0.2,0.2-0.4,0.4-0.4,0.7c0,0.3,0.1,0.5,0.4,0.7s0.5,0.2,0.9,0.2
			c0.3,0,0.5-0.1,0.8-0.2C134.5,240.7,134.6,240.6,134.7,240.4z"/>
		<path class="st4" d="M74.9,253.3v-3.2H74v-0.8h0.9v-1.4h0.9v1.4H77v0.8h-1.3v3.1c0,0.5,0.2,0.7,0.7,0.7c0.2,0,0.5-0.1,0.7-0.2v0.8
			c-0.2,0.1-0.5,0.2-0.8,0.2c-0.4,0-0.8-0.1-1.1-0.4S74.9,253.8,74.9,253.3z"/>
		<path class="st4" d="M82.2,250c0.5,0.5,0.7,1.2,0.7,2s-0.2,1.5-0.7,2c-0.5,0.5-1,0.8-1.8,0.8s-1.3-0.3-1.8-0.8
			c-0.5-0.5-0.7-1.2-0.7-2s0.2-1.5,0.7-2c0.5-0.5,1-0.8,1.8-0.8C81.1,249.2,81.7,249.5,82.2,250z M81.5,253.4
			c0.3-0.4,0.4-0.8,0.4-1.4c0-0.6-0.1-1.1-0.4-1.4c-0.3-0.4-0.7-0.5-1.1-0.5c-0.5,0-0.8,0.2-1.1,0.5c-0.3,0.4-0.4,0.8-0.4,1.4
			c0,0.6,0.1,1.1,0.4,1.4c0.3,0.4,0.6,0.5,1.1,0.5C80.9,254,81.3,253.8,81.5,253.4z"/>
		<path class="st4" d="M87,254c-0.4-0.5-0.7-1.2-0.7-2c0-0.8,0.2-1.5,0.7-2c0.4-0.5,1-0.8,1.8-0.8c0.6,0,1.1,0.2,1.4,0.5
			c0.4,0.3,0.6,0.7,0.7,1.2H90c-0.1-0.3-0.2-0.5-0.4-0.7c-0.2-0.2-0.5-0.2-0.8-0.2c-0.5,0-0.8,0.2-1.1,0.6c-0.3,0.4-0.4,0.8-0.4,1.4
			s0.1,1.1,0.4,1.4c0.3,0.4,0.6,0.6,1.1,0.6c0.3,0,0.6-0.1,0.8-0.2c0.2-0.2,0.4-0.4,0.4-0.7h0.9c-0.1,0.5-0.3,0.9-0.7,1.2
			s-0.9,0.5-1.4,0.5C88.1,254.8,87.5,254.5,87,254z"/>
		<path class="st4" d="M95.9,250c0.5,0.5,0.7,1.2,0.7,2s-0.2,1.5-0.7,2s-1,0.8-1.8,0.8s-1.3-0.3-1.8-0.8c-0.5-0.5-0.7-1.2-0.7-2
			s0.2-1.5,0.7-2s1-0.8,1.8-0.8C94.9,249.2,95.4,249.5,95.9,250z M95.2,253.4c0.3-0.4,0.4-0.8,0.4-1.4c0-0.6-0.1-1.1-0.4-1.4
			c-0.3-0.4-0.6-0.5-1.1-0.5c-0.5,0-0.8,0.2-1.1,0.5c-0.3,0.4-0.4,0.8-0.4,1.4c0,0.6,0.1,1.1,0.4,1.4c0.3,0.4,0.6,0.5,1.1,0.5
			C94.6,254,95,253.8,95.2,253.4z"/>
		<path class="st4" d="M97.8,254.7v-5.3h0.9v0.7c0.2-0.2,0.4-0.4,0.7-0.6c0.3-0.1,0.6-0.2,0.9-0.2c0.6,0,1.1,0.2,1.4,0.5
			c0.3,0.4,0.5,0.8,0.5,1.4v3.5h-0.9v-3.3c0-0.4-0.1-0.7-0.3-0.9c-0.2-0.2-0.5-0.3-0.9-0.3c-0.3,0-0.6,0.1-0.8,0.3
			c-0.2,0.2-0.4,0.4-0.5,0.7v3.6L97.8,254.7L97.8,254.7z"/>
		<path class="st4" d="M106.3,246.9v0.8c-0.2-0.1-0.3-0.1-0.6-0.1c-0.3,0-0.5,0.1-0.6,0.3c-0.2,0.2-0.2,0.4-0.2,0.7v0.8h1.2v0.8
			h-1.2v4.6H104v-4.6h-0.9v-0.8h0.9v-0.9c0-0.5,0.2-0.9,0.5-1.2c0.3-0.3,0.7-0.5,1.2-0.5C105.9,246.8,106.1,246.8,106.3,246.9z"/>
		<path class="st4" d="M108,247.3c0.1,0.1,0.2,0.2,0.2,0.4s-0.1,0.3-0.2,0.4c-0.1,0.1-0.3,0.2-0.4,0.2s-0.3-0.1-0.4-0.2
			c-0.1-0.1-0.2-0.2-0.2-0.4s0.1-0.3,0.2-0.4c0.1-0.1,0.2-0.2,0.4-0.2S107.9,247.2,108,247.3z M108,249.4v5.3h-0.9v-5.3H108z"/>
		<path class="st4" d="M112.4,249.3v0.9c-0.1-0.1-0.3-0.1-0.6-0.1c-0.3,0-0.5,0.1-0.8,0.3c-0.2,0.2-0.4,0.4-0.5,0.7v3.6h-0.9v-5.3
			h0.9v0.7c0.1-0.2,0.3-0.4,0.5-0.6c0.2-0.2,0.5-0.2,0.8-0.2C112.1,249.2,112.3,249.3,112.4,249.3z"/>
		<path class="st4" d="M117.3,250.1c0.4-0.6,0.9-0.9,1.6-0.9c0.5,0,0.9,0.2,1.2,0.5c0.3,0.3,0.4,0.8,0.4,1.4v3.5h-0.9v-3.4
			c0-0.4-0.1-0.7-0.3-0.9c-0.2-0.2-0.4-0.3-0.8-0.3c-0.3,0-0.5,0.1-0.7,0.3c-0.2,0.2-0.4,0.4-0.4,0.7v3.7h-0.9v-3.4
			c0-0.4-0.1-0.7-0.3-0.9c-0.2-0.2-0.4-0.3-0.8-0.3c-0.3,0-0.5,0.1-0.7,0.3c-0.2,0.2-0.4,0.4-0.4,0.7v3.7h-0.9v-5.3h0.9v0.6
			c0.3-0.5,0.8-0.7,1.4-0.7C116.5,249.2,117,249.5,117.3,250.1z"/>
	</g>
	<g>
		<path class="st4" d="M28.2,167.6l1.8-2.9h0.8l-2.2,3.6v2.5h-0.8v-2.5l-2.2-3.6h0.9L28.2,167.6z"/>
		<path class="st4" d="M34.2,166.9c0.4,0.4,0.6,1,0.6,1.7c0,0.7-0.2,1.2-0.6,1.7c-0.4,0.4-0.9,0.6-1.5,0.6c-0.6,0-1.1-0.2-1.5-0.6
			c-0.4-0.4-0.6-1-0.6-1.7c0-0.7,0.2-1.2,0.6-1.7c0.4-0.4,0.9-0.6,1.5-0.6S33.8,166.5,34.2,166.9z M33.7,169.8
			c0.2-0.3,0.3-0.7,0.3-1.2c0-0.5-0.1-0.9-0.3-1.2c-0.2-0.3-0.5-0.5-0.9-0.5s-0.7,0.2-0.9,0.5c-0.2,0.3-0.3,0.7-0.3,1.2
			c0,0.5,0.1,0.9,0.3,1.2c0.2,0.3,0.5,0.5,0.9,0.5S33.4,170.1,33.7,169.8z"/>
		<path class="st4" d="M39.3,166.4v4.4h-0.8v-0.6c-0.1,0.2-0.3,0.3-0.5,0.5c-0.2,0.1-0.5,0.2-0.8,0.2c-0.5,0-0.9-0.1-1.1-0.4
			s-0.4-0.7-0.4-1.2v-2.9h0.8v2.8c0,0.3,0.1,0.6,0.2,0.8c0.2,0.2,0.4,0.3,0.7,0.3c0.3,0,0.5-0.1,0.7-0.2c0.2-0.2,0.3-0.4,0.4-0.6v-3
			H39.3L39.3,166.4z"/>
		<path class="st4" d="M42.9,166.4v0.8c-0.1-0.1-0.3-0.1-0.5-0.1c-0.2,0-0.5,0.1-0.6,0.2c-0.2,0.1-0.3,0.4-0.4,0.6v3h-0.8v-4.4h0.8
			v0.6c0.1-0.2,0.2-0.4,0.4-0.5c0.2-0.1,0.4-0.2,0.7-0.2C42.7,166.3,42.8,166.3,42.9,166.4z"/>
		<path class="st4" d="M45.7,169.6h0.8c0.1,0.5,0.5,0.7,1.1,0.7c0.3,0,0.5-0.1,0.7-0.2s0.2-0.3,0.2-0.5c0-0.3-0.2-0.5-0.7-0.6
			l-0.9-0.2c-0.7-0.2-1.1-0.6-1.1-1.2c0-0.4,0.1-0.7,0.5-0.9c0.3-0.2,0.7-0.4,1.1-0.4c0.5,0,0.9,0.1,1.2,0.3
			c0.3,0.2,0.5,0.5,0.6,0.9h-0.8c-0.1-0.4-0.5-0.6-1-0.6c-0.2,0-0.4,0.1-0.6,0.2c-0.2,0.1-0.2,0.3-0.2,0.5c0,0.1,0,0.3,0.1,0.3
			c0.1,0.1,0.3,0.2,0.5,0.2l0.9,0.2c0.8,0.2,1.1,0.6,1.1,1.2c0,0.4-0.2,0.7-0.5,1c-0.3,0.2-0.7,0.4-1.2,0.4s-0.9-0.1-1.2-0.4
			C46,170.3,45.8,170,45.7,169.6z"/>
		<path class="st4" d="M53,169.5h0.7c-0.1,0.4-0.3,0.8-0.6,1c-0.3,0.3-0.7,0.4-1.2,0.4c-0.6,0-1.1-0.2-1.5-0.6s-0.6-1-0.6-1.7
			c0-0.7,0.2-1.2,0.6-1.7c0.4-0.4,0.9-0.7,1.5-0.7c0.6,0,1.1,0.2,1.4,0.6c0.3,0.4,0.5,0.9,0.5,1.6v0.3h-3.1c0,0.5,0.1,0.8,0.4,1.1
			c0.2,0.3,0.5,0.4,0.9,0.4c0.3,0,0.5-0.1,0.7-0.2C52.8,169.9,53,169.7,53,169.5z M51.9,166.9c-0.3,0-0.6,0.1-0.8,0.3
			s-0.4,0.5-0.4,0.9H53c0-0.4-0.1-0.6-0.3-0.9C52.5,167,52.3,166.9,51.9,166.9z"/>
		<path class="st4" d="M55,170.3c-0.4-0.4-0.6-1-0.6-1.7c0-0.7,0.2-1.2,0.6-1.7c0.4-0.4,0.9-0.6,1.5-0.6c0.5,0,0.9,0.1,1.2,0.4
			c0.3,0.3,0.5,0.6,0.6,1h-0.8c-0.1-0.2-0.2-0.4-0.3-0.6c-0.2-0.1-0.4-0.2-0.7-0.2c-0.4,0-0.7,0.2-0.9,0.5c-0.2,0.3-0.3,0.7-0.3,1.2
			c0,0.5,0.1,0.9,0.3,1.2c0.2,0.3,0.5,0.5,0.9,0.5c0.3,0,0.5-0.1,0.7-0.2c0.2-0.1,0.3-0.3,0.3-0.6h0.8c-0.1,0.4-0.3,0.8-0.6,1
			c-0.3,0.3-0.7,0.4-1.2,0.4C55.9,170.9,55.4,170.7,55,170.3z"/>
		<path class="st4" d="M62.8,166.4v4.4H62v-0.6c-0.1,0.2-0.3,0.3-0.5,0.5c-0.2,0.1-0.5,0.2-0.8,0.2c-0.5,0-0.9-0.1-1.1-0.4
			c-0.3-0.3-0.4-0.7-0.4-1.2v-2.9H60v2.8c0,0.3,0.1,0.6,0.2,0.8c0.2,0.2,0.4,0.3,0.7,0.3c0.3,0,0.5-0.1,0.7-0.2
			c0.2-0.2,0.3-0.4,0.4-0.6v-3H62.8L62.8,166.4z"/>
		<path class="st4" d="M66.4,166.4v0.8c-0.1-0.1-0.3-0.1-0.5-0.1c-0.2,0-0.5,0.1-0.6,0.2c-0.2,0.1-0.3,0.4-0.4,0.6v3h-0.8v-4.4h0.8
			v0.6c0.1-0.2,0.2-0.4,0.4-0.5c0.2-0.1,0.4-0.2,0.7-0.2C66.2,166.3,66.3,166.3,66.4,166.4z"/>
		<path class="st4" d="M68.1,164.7c0.1,0.1,0.1,0.2,0.1,0.3c0,0.1,0,0.2-0.1,0.3c-0.1,0.1-0.2,0.1-0.3,0.1s-0.2,0-0.3-0.1
			c-0.1-0.1-0.1-0.2-0.1-0.3c0-0.1,0-0.2,0.1-0.3c0.1-0.1,0.2-0.1,0.3-0.1C67.8,164.6,68,164.6,68.1,164.7z M68.1,166.4v4.4h-0.8
			v-4.4H68.1z"/>
		<path class="st4" d="M69.6,169.7V167h-0.7v-0.6h0.7v-1.2h0.8v1.2h1.1v0.6h-1.1v2.6c0,0.4,0.2,0.6,0.6,0.6c0.2,0,0.4-0.1,0.6-0.2
			v0.7c-0.2,0.1-0.4,0.1-0.7,0.1c-0.4,0-0.7-0.1-0.9-0.3C69.8,170.4,69.6,170.1,69.6,169.7z"/>
		<path class="st4" d="M73.8,172.5h-0.7l0.7-1.7l-1.7-4.5h0.8l1.3,3.5l1.3-3.5h0.8L73.8,172.5z"/>
		<path class="st4" d="M82.1,166.4l0.9,3.4l1-3.4h0.7l-1.3,4.4h-0.7l-0.9-3.4l-0.9,3.4h-0.7l-1.3-4.4h0.8l1,3.4l0.9-3.4H82.1z"/>
		<path class="st4" d="M88.8,166.9c0.4,0.4,0.6,1,0.6,1.7c0,0.7-0.2,1.2-0.6,1.7c-0.4,0.4-0.9,0.6-1.5,0.6s-1.1-0.2-1.5-0.6
			c-0.4-0.4-0.6-1-0.6-1.7c0-0.7,0.2-1.2,0.6-1.7c0.4-0.4,0.9-0.6,1.5-0.6C87.9,166.3,88.4,166.5,88.8,166.9z M88.2,169.8
			c0.2-0.3,0.3-0.7,0.3-1.2c0-0.5-0.1-0.9-0.3-1.2c-0.2-0.3-0.5-0.5-0.9-0.5s-0.7,0.2-0.9,0.5c-0.2,0.3-0.3,0.7-0.3,1.2
			c0,0.5,0.1,0.9,0.3,1.2c0.2,0.3,0.5,0.5,0.9,0.5S88,170.1,88.2,169.8z"/>
		<path class="st4" d="M92.6,166.4v0.8c-0.1-0.1-0.3-0.1-0.5-0.1c-0.2,0-0.5,0.1-0.6,0.2c-0.2,0.1-0.3,0.4-0.4,0.6v3h-0.8v-4.4h0.8
			v0.6c0.1-0.2,0.2-0.4,0.4-0.5c0.2-0.1,0.4-0.2,0.7-0.2C92.4,166.3,92.6,166.3,92.6,166.4z"/>
		<path class="st4" d="M96.4,170.8v-0.5c-0.1,0.2-0.3,0.3-0.5,0.4c-0.2,0.1-0.5,0.2-0.7,0.2c-0.6,0-1.1-0.2-1.5-0.7
			c-0.4-0.4-0.5-1-0.5-1.6c0-0.7,0.2-1.2,0.5-1.6c0.4-0.4,0.8-0.7,1.5-0.7c0.3,0,0.5,0.1,0.7,0.2c0.2,0.1,0.4,0.3,0.5,0.4v-2.6h0.8
			v6.5L96.4,170.8L96.4,170.8z M96.4,169.5v-1.8c-0.1-0.2-0.3-0.4-0.5-0.5c-0.2-0.1-0.4-0.2-0.7-0.2c-0.4,0-0.7,0.2-1,0.5
			c-0.2,0.3-0.4,0.7-0.4,1.2c0,0.5,0.1,0.9,0.4,1.2c0.2,0.3,0.6,0.5,1,0.5c0.2,0,0.5-0.1,0.7-0.2C96.1,169.9,96.3,169.7,96.4,169.5z
			"/>
	</g>
	<g>
		<path class="st7" d="M171.5,102.2c0-8.7-7-15.7-15.7-15.7s-15.7,7-15.7,15.7c0,5.6,3,10.6,7.4,13.4V113c-0.1-0.4-0.1-0.9-0.1-1.3
			c0-0.4,0-0.9,0.1-1.3v-0.6h0.1c0.9-3.3,4.2-4.9,8.2-4.9c4,0,7.3,1.5,8.2,4.9h0.1v0.6c0.1,0.4,0.1,0.8,0.1,1.2s0,0.9-0.1,1.3v2.5
			C168.5,112.7,171.5,107.8,171.5,102.2z M155.8,102.2c-2.2,0-4-1.8-4-4c0-2.2,1.8-4,4-4c2.2,0,4,1.8,4,4
			C159.8,100.4,158,102.2,155.8,102.2z"/>
		<circle class="st8" cx="155.8" cy="98.1" r="4"/>
		<path class="st8" d="M164.2,111.7c0-0.4,0-0.9-0.1-1.2v-0.6h-0.1c-0.9-3.3-4.2-4.9-8.2-4.9c-4,0-7.3,1.5-8.2,4.9h-0.1v0.6
			c-0.1,0.4-0.1,0.8-0.1,1.3s0,0.9,0.1,1.3v2.5c2.4,1.5,5.2,2.4,8.3,2.4c3.1,0,5.9-0.9,8.3-2.4V113
			C164.1,112.6,164.2,112.1,164.2,111.7z"/>
	</g>
</g>
<g>
	<path class="st7" d="M447.5,102.2c0-8.7-7-15.7-15.7-15.7c-8.7,0-15.7,7-15.7,15.7c0,5.6,3,10.6,7.4,13.4V113
		c-0.1-0.4-0.1-0.9-0.1-1.3c0-0.4,0-0.9,0.1-1.3v-0.6h0.1c0.9-3.3,4.2-4.9,8.2-4.9c4,0,7.3,1.5,8.2,4.9h0.1v0.6
		c0.1,0.4,0.1,0.8,0.1,1.2s0,0.9-0.1,1.3v2.5C444.5,112.7,447.5,107.8,447.5,102.2z M431.8,102.2c-2.2,0-4-1.8-4-4c0-2.2,1.8-4,4-4
		s4,1.8,4,4C435.8,100.4,434,102.2,431.8,102.2z"/>
	<circle class="st8" cx="431.8" cy="98.1" r="4"/>
	<path class="st8" d="M440.2,111.7c0-0.4,0-0.9-0.1-1.2v-0.6h-0.1c-0.9-3.3-4.2-4.9-8.2-4.9c-4,0-7.3,1.5-8.2,4.9h-0.1v0.6
		c-0.1,0.4-0.1,0.8-0.1,1.3s0,0.9,0.1,1.3v2.5c2.4,1.5,5.2,2.4,8.3,2.4s5.9-0.9,8.3-2.4V113C440.1,112.6,440.2,112.1,440.2,111.7z"
		/>
</g>
<g>
	<g>
		<path class="st4" d="M313.3,240.7c-0.6-0.7-0.9-1.6-0.9-2.7s0.3-2,0.9-2.7c0.6-0.7,1.4-1.1,2.4-1.1c0.8,0,1.4,0.2,1.9,0.6
			c0.5,0.4,0.8,1,1,1.7h-0.9c-0.3-0.9-1-1.4-1.9-1.4c-0.7,0-1.3,0.3-1.7,0.8c-0.4,0.5-0.6,1.3-0.6,2.1c0,0.9,0.2,1.6,0.6,2.1
			c0.4,0.5,1,0.8,1.7,0.8c1,0,1.6-0.5,1.9-1.4h0.9c-0.2,0.7-0.5,1.3-1,1.7c-0.5,0.4-1.1,0.6-1.9,0.6
			C314.7,241.8,313.9,241.4,313.3,240.7z"/>
		<path class="st4" d="M323.6,237c0.5,0.5,0.7,1.2,0.7,2s-0.2,1.5-0.7,2c-0.5,0.5-1,0.8-1.8,0.8c-0.7,0-1.3-0.3-1.8-0.8
			c-0.5-0.5-0.7-1.2-0.7-2s0.2-1.5,0.7-2s1-0.8,1.8-0.8C322.6,236.2,323.2,236.5,323.6,237z M323,240.4c0.3-0.4,0.4-0.8,0.4-1.4
			c0-0.6-0.1-1.1-0.4-1.4c-0.3-0.4-0.6-0.5-1.1-0.5c-0.5,0-0.8,0.2-1.1,0.5c-0.3,0.4-0.4,0.8-0.4,1.4c0,0.6,0.1,1.1,0.4,1.4
			c0.3,0.4,0.6,0.5,1.1,0.5C322.3,241,322.7,240.8,323,240.4z"/>
		<path class="st4" d="M325.5,241.7v-5.3h0.9v0.7c0.2-0.2,0.4-0.4,0.7-0.6c0.3-0.1,0.6-0.2,0.9-0.2c0.6,0,1.1,0.2,1.4,0.5
			c0.3,0.4,0.5,0.8,0.5,1.4v3.5h-0.9v-3.3c0-0.4-0.1-0.7-0.3-0.9s-0.5-0.3-0.9-0.3c-0.3,0-0.6,0.1-0.8,0.3c-0.2,0.2-0.4,0.4-0.5,0.7
			v3.6L325.5,241.7L325.5,241.7L325.5,241.7z"/>
		<path class="st4" d="M334,233.9v0.8c-0.2-0.1-0.3-0.1-0.6-0.1c-0.3,0-0.5,0.1-0.6,0.3c-0.2,0.2-0.2,0.4-0.2,0.7v0.8h1.2v0.8h-1.2
			v4.6h-0.9v-4.6h-0.9v-0.8h0.9v-0.9c0-0.5,0.2-0.9,0.5-1.2c0.3-0.3,0.7-0.5,1.2-0.5C333.6,233.8,333.8,233.8,334,233.9z"/>
		<path class="st4" d="M335.7,234.3c0.1,0.1,0.2,0.2,0.2,0.4s-0.1,0.3-0.2,0.4c-0.1,0.1-0.3,0.2-0.4,0.2c-0.2,0-0.3-0.1-0.4-0.2
			c-0.1-0.1-0.2-0.2-0.2-0.4s0.1-0.3,0.2-0.4c0.1-0.1,0.2-0.2,0.4-0.2C335.4,234.2,335.6,234.2,335.7,234.3z M335.7,236.4v5.3h-0.9
			v-5.3H335.7z"/>
		<path class="st4" d="M340.1,236.3v0.9c-0.1-0.1-0.3-0.1-0.6-0.1c-0.3,0-0.5,0.1-0.8,0.3c-0.2,0.2-0.4,0.4-0.5,0.7v3.6h-0.9v-5.3
			h0.9v0.7c0.1-0.2,0.3-0.4,0.5-0.6c0.2-0.2,0.5-0.2,0.8-0.2C339.8,236.2,340,236.3,340.1,236.3z"/>
		<path class="st4" d="M345,237.1c0.4-0.6,0.9-0.9,1.6-0.9c0.5,0,0.9,0.2,1.2,0.5c0.3,0.3,0.4,0.8,0.4,1.4v3.5h-0.9v-3.4
			c0-0.4-0.1-0.7-0.3-0.9c-0.2-0.2-0.4-0.3-0.8-0.3c-0.3,0-0.5,0.1-0.7,0.3c-0.2,0.2-0.4,0.4-0.4,0.7v3.7h-0.9v-3.4
			c0-0.4-0.1-0.7-0.3-0.9c-0.2-0.2-0.4-0.3-0.8-0.3c-0.3,0-0.5,0.1-0.7,0.3c-0.2,0.2-0.4,0.4-0.4,0.7v3.7h-0.9v-5.3h0.9v0.6
			c0.3-0.5,0.8-0.7,1.4-0.7C344.2,236.2,344.7,236.5,345,237.1z"/>
		<path class="st4" d="M354,243.7h-0.9l0.8-2l-2.1-5.4h1l1.6,4.2l1.5-4.2h0.9L354,243.7z"/>
		<path class="st4" d="M361.7,237c0.5,0.5,0.7,1.2,0.7,2s-0.2,1.5-0.7,2c-0.5,0.5-1,0.8-1.8,0.8c-0.7,0-1.3-0.3-1.8-0.8
			c-0.5-0.5-0.7-1.2-0.7-2s0.2-1.5,0.7-2c0.5-0.5,1-0.8,1.8-0.8C360.6,236.2,361.2,236.5,361.7,237z M361,240.4
			c0.3-0.4,0.4-0.8,0.4-1.4c0-0.6-0.1-1.1-0.4-1.4c-0.3-0.4-0.6-0.5-1.1-0.5c-0.5,0-0.8,0.2-1.1,0.5c-0.3,0.4-0.4,0.8-0.4,1.4
			c0,0.6,0.1,1.1,0.4,1.4c0.3,0.4,0.6,0.5,1.1,0.5C360.4,241,360.7,240.8,361,240.4z"/>
		<path class="st4" d="M367.8,236.4v5.3h-0.9V241c-0.2,0.2-0.4,0.4-0.6,0.6c-0.3,0.1-0.6,0.2-0.9,0.2c-0.6,0-1.1-0.2-1.4-0.5
			c-0.3-0.4-0.5-0.8-0.5-1.4v-3.5h0.9v3.3c0,0.4,0.1,0.7,0.3,0.9s0.5,0.3,0.9,0.3c0.3,0,0.6-0.1,0.8-0.3c0.2-0.2,0.4-0.4,0.5-0.7
			v-3.6L367.8,236.4L367.8,236.4L367.8,236.4z"/>
		<path class="st4" d="M372.1,236.3v0.9c-0.1-0.1-0.3-0.1-0.6-0.1c-0.3,0-0.5,0.1-0.8,0.3c-0.2,0.2-0.4,0.4-0.5,0.7v3.6h-0.9v-5.3
			h0.9v0.7c0.1-0.2,0.3-0.4,0.5-0.6c0.2-0.2,0.5-0.2,0.8-0.2C371.9,236.2,372,236.3,372.1,236.3z"/>
		<path class="st4" d="M376.2,241c-0.4-0.5-0.7-1.2-0.7-2c0-0.8,0.2-1.5,0.7-2c0.4-0.5,1-0.8,1.8-0.8c0.6,0,1.1,0.2,1.4,0.5
			c0.4,0.3,0.6,0.7,0.7,1.2h-0.9c-0.1-0.3-0.2-0.5-0.4-0.7c-0.2-0.2-0.5-0.2-0.8-0.2c-0.5,0-0.8,0.2-1.1,0.6
			c-0.3,0.4-0.4,0.8-0.4,1.4s0.1,1.1,0.4,1.4c0.3,0.4,0.6,0.6,1.1,0.6c0.3,0,0.6-0.1,0.8-0.2c0.2-0.2,0.4-0.4,0.4-0.7h0.9
			c-0.1,0.5-0.3,0.9-0.7,1.2c-0.4,0.3-0.9,0.5-1.4,0.5C377.2,241.8,376.6,241.5,376.2,241z"/>
		<path class="st4" d="M385.1,241.7h-0.9v-0.4c-0.1,0.1-0.3,0.2-0.6,0.3c-0.3,0.1-0.5,0.2-0.8,0.2c-0.6,0-1-0.2-1.4-0.5
			c-0.4-0.3-0.6-0.7-0.6-1.2c0-0.5,0.2-0.9,0.6-1.2c0.4-0.3,0.9-0.5,1.5-0.5c0.3,0,0.5,0,0.8,0.1c0.3,0.1,0.4,0.2,0.6,0.3v-0.7
			c0-0.3-0.1-0.6-0.3-0.8c-0.2-0.2-0.5-0.3-0.9-0.3c-0.6,0-0.9,0.2-1.1,0.7h-0.9c0.1-0.4,0.3-0.8,0.7-1.1c0.4-0.3,0.8-0.4,1.3-0.4
			c0.6,0,1.1,0.2,1.5,0.5c0.4,0.3,0.5,0.8,0.5,1.4L385.1,241.7L385.1,241.7z M384.3,240.4v-0.6c-0.1-0.2-0.2-0.4-0.5-0.5
			c-0.2-0.1-0.5-0.2-0.8-0.2c-0.4,0-0.7,0.1-0.9,0.2c-0.2,0.2-0.4,0.4-0.4,0.7c0,0.3,0.1,0.5,0.4,0.7s0.5,0.2,0.9,0.2
			c0.3,0,0.5-0.1,0.8-0.2C384,240.7,384.2,240.6,384.3,240.4z"/>
		<path class="st4" d="M387.6,233.9v7.8h-0.9v-7.8H387.6z"/>
		<path class="st4" d="M390.1,233.9v7.8h-0.9v-7.8H390.1z"/>
		<path class="st4" d="M394.6,240.3v-3.2h-0.9v-0.8h0.9v-1.4h0.9v1.4h1.3v0.8h-1.3v3.1c0,0.5,0.2,0.7,0.7,0.7c0.2,0,0.5-0.1,0.7-0.2
			v0.8c-0.2,0.1-0.5,0.2-0.8,0.2c-0.4,0-0.8-0.1-1.1-0.4S394.6,240.8,394.6,240.3z"/>
		<path class="st4" d="M398.1,241.7v-7.8h0.9v3.1c0.2-0.2,0.4-0.4,0.7-0.6c0.3-0.1,0.6-0.2,0.9-0.2c0.6,0,1.1,0.2,1.4,0.5
			c0.3,0.4,0.5,0.8,0.5,1.4v3.5h-0.9v-3.3c0-0.4-0.1-0.7-0.3-0.9s-0.5-0.3-0.9-0.3c-0.3,0-0.6,0.1-0.8,0.3c-0.2,0.2-0.4,0.4-0.5,0.7
			v3.6L398.1,241.7L398.1,241.7L398.1,241.7z"/>
		<path class="st4" d="M406.7,236.3v0.9c-0.1-0.1-0.3-0.1-0.6-0.1c-0.3,0-0.5,0.1-0.8,0.3c-0.2,0.2-0.4,0.4-0.5,0.7v3.6H404v-5.3
			h0.9v0.7c0.1-0.2,0.3-0.4,0.5-0.6c0.2-0.2,0.5-0.2,0.8-0.2C406.4,236.2,406.6,236.3,406.7,236.3z"/>
		<path class="st4" d="M411.5,237c0.5,0.5,0.7,1.2,0.7,2s-0.2,1.5-0.7,2s-1,0.8-1.8,0.8s-1.3-0.3-1.8-0.8c-0.5-0.5-0.7-1.2-0.7-2
			s0.2-1.5,0.7-2s1-0.8,1.8-0.8C410.5,236.2,411.1,236.5,411.5,237z M410.9,240.4c0.3-0.4,0.4-0.8,0.4-1.4c0-0.6-0.1-1.1-0.4-1.4
			c-0.3-0.4-0.6-0.5-1.1-0.5c-0.5,0-0.8,0.2-1.1,0.5c-0.3,0.4-0.4,0.8-0.4,1.4c0,0.6,0.1,1.1,0.4,1.4c0.3,0.4,0.6,0.5,1.1,0.5
			C410.2,241,410.6,240.8,410.9,240.4z"/>
		<path class="st4" d="M417.7,236.4v5.3h-0.9V241c-0.2,0.2-0.4,0.4-0.6,0.6c-0.3,0.1-0.6,0.2-0.9,0.2c-0.6,0-1-0.2-1.4-0.5
			c-0.3-0.4-0.5-0.8-0.5-1.4v-3.5h0.9v3.3c0,0.4,0.1,0.7,0.3,0.9c0.2,0.2,0.5,0.3,0.9,0.3c0.3,0,0.6-0.1,0.8-0.3
			c0.2-0.2,0.4-0.4,0.5-0.7v-3.6L417.7,236.4L417.7,236.4L417.7,236.4z"/>
		<path class="st4" d="M422.8,241.3v-0.4c-0.1,0.2-0.4,0.4-0.6,0.5c-0.3,0.1-0.6,0.2-0.9,0.2c-0.7,0-1.3-0.3-1.8-0.8
			s-0.6-1.2-0.6-1.9c0-0.8,0.2-1.4,0.6-1.9c0.4-0.5,1-0.8,1.8-0.8c0.3,0,0.6,0.1,0.9,0.2c0.3,0.1,0.5,0.3,0.6,0.5v-0.6h0.9v4.9
			c0,0.8-0.2,1.5-0.7,1.9c-0.4,0.4-1,0.7-1.7,0.7c-0.6,0-1.2-0.2-1.6-0.5s-0.6-0.7-0.7-1.3h0.9c0.1,0.7,0.6,1,1.4,1
			C422.3,243.1,422.8,242.5,422.8,241.3z M422.8,240v-2.1c-0.3-0.6-0.8-0.8-1.4-0.8c-0.5,0-0.9,0.2-1.2,0.5
			c-0.3,0.4-0.4,0.8-0.4,1.4c0,0.6,0.1,1,0.4,1.4c0.3,0.3,0.7,0.5,1.2,0.5C422,240.8,422.5,240.6,422.8,240z"/>
		<path class="st4" d="M425.3,241.7v-7.8h0.9v3.1c0.2-0.2,0.4-0.4,0.7-0.6c0.3-0.1,0.6-0.2,0.9-0.2c0.6,0,1.1,0.2,1.4,0.5
			c0.3,0.4,0.5,0.8,0.5,1.4v3.5h-0.9v-3.3c0-0.4-0.1-0.7-0.3-0.9c-0.2-0.2-0.5-0.3-0.9-0.3c-0.3,0-0.6,0.1-0.8,0.3
			c-0.2,0.2-0.4,0.4-0.5,0.7v3.6L425.3,241.7L425.3,241.7L425.3,241.7z"/>
		<path class="st4" d="M297.6,253.2h0.9c0.2,0.5,0.6,0.8,1.3,0.8c0.3,0,0.6-0.1,0.8-0.2c0.2-0.1,0.3-0.3,0.3-0.6
			c0-0.4-0.3-0.6-0.8-0.7l-1.1-0.3c-0.9-0.2-1.3-0.7-1.3-1.4c0-0.5,0.2-0.8,0.5-1.1c0.4-0.3,0.8-0.4,1.4-0.4c0.6,0,1,0.1,1.4,0.4
			c0.4,0.3,0.6,0.6,0.7,1.1h-0.9c-0.2-0.5-0.6-0.8-1.2-0.8c-0.3,0-0.5,0.1-0.7,0.2c-0.2,0.1-0.3,0.3-0.3,0.6c0,0.2,0.1,0.3,0.2,0.4
			c0.1,0.1,0.3,0.2,0.6,0.3l1,0.3c0.9,0.2,1.4,0.7,1.4,1.5c0,0.5-0.2,0.9-0.6,1.2c-0.4,0.3-0.8,0.4-1.4,0.4s-1.1-0.1-1.5-0.4
			C297.9,254.1,297.7,253.7,297.6,253.2z"/>
		<path class="st4" d="M306.9,254.7H306v-0.4c-0.1,0.1-0.3,0.2-0.6,0.3c-0.3,0.1-0.5,0.2-0.8,0.2c-0.6,0-1-0.2-1.4-0.5
			c-0.4-0.3-0.6-0.7-0.6-1.2c0-0.5,0.2-0.9,0.6-1.2c0.4-0.3,0.9-0.5,1.5-0.5c0.3,0,0.5,0,0.8,0.1c0.3,0.1,0.4,0.2,0.6,0.3v-0.7
			c0-0.3-0.1-0.6-0.3-0.8c-0.2-0.2-0.5-0.3-0.9-0.3c-0.6,0-0.9,0.2-1.1,0.7h-0.9c0.1-0.4,0.3-0.8,0.7-1.1c0.4-0.3,0.8-0.4,1.3-0.4
			c0.6,0,1.1,0.2,1.5,0.5c0.4,0.3,0.5,0.8,0.5,1.4L306.9,254.7L306.9,254.7z M306,253.4v-0.6c-0.1-0.2-0.2-0.4-0.5-0.5
			c-0.2-0.1-0.5-0.2-0.8-0.2c-0.4,0-0.6,0.1-0.9,0.2c-0.2,0.2-0.4,0.4-0.4,0.7c0,0.3,0.1,0.5,0.4,0.7s0.5,0.2,0.9,0.2
			c0.3,0,0.5-0.1,0.8-0.2C305.8,253.7,306,253.6,306,253.4z"/>
		<path class="st4" d="M309.9,256.7H309l0.8-2l-2.1-5.4h1l1.6,4.2l1.5-4.2h0.9L309.9,256.7z"/>
		<path class="st4" d="M314.7,247.3c0.1,0.1,0.2,0.2,0.2,0.4s-0.1,0.3-0.2,0.4c-0.1,0.1-0.3,0.2-0.4,0.2c-0.2,0-0.3-0.1-0.4-0.2
			c-0.1-0.1-0.2-0.2-0.2-0.4s0.1-0.3,0.2-0.4c0.1-0.1,0.2-0.2,0.4-0.2C314.4,247.2,314.5,247.2,314.7,247.3z M314.7,249.4v5.3h-0.9
			v-5.3H314.7z"/>
		<path class="st4" d="M316.3,254.7v-5.3h0.9v0.7c0.2-0.2,0.4-0.4,0.7-0.6c0.3-0.1,0.6-0.2,0.9-0.2c0.6,0,1.1,0.2,1.4,0.5
			c0.3,0.4,0.5,0.8,0.5,1.4v3.5h-0.9v-3.3c0-0.4-0.1-0.7-0.3-0.9c-0.2-0.2-0.5-0.3-0.9-0.3c-0.3,0-0.6,0.1-0.8,0.3
			c-0.2,0.2-0.4,0.4-0.5,0.7v3.6L316.3,254.7L316.3,254.7L316.3,254.7z"/>
		<path class="st4" d="M325.7,254.3v-0.4c-0.1,0.2-0.4,0.4-0.6,0.5c-0.3,0.1-0.6,0.2-0.9,0.2c-0.7,0-1.3-0.3-1.8-0.8
			s-0.6-1.2-0.6-1.9c0-0.8,0.2-1.4,0.6-1.9c0.4-0.5,1-0.8,1.8-0.8c0.3,0,0.6,0.1,0.9,0.2c0.3,0.1,0.5,0.3,0.6,0.5v-0.6h0.9v4.9
			c0,0.8-0.2,1.5-0.7,1.9c-0.4,0.4-1,0.7-1.7,0.7c-0.6,0-1.2-0.2-1.6-0.5s-0.6-0.7-0.7-1.3h0.9c0.2,0.7,0.6,1,1.4,1
			C325.2,256.1,325.7,255.5,325.7,254.3z M325.7,253v-2.1c-0.3-0.6-0.8-0.8-1.4-0.8c-0.5,0-0.9,0.2-1.2,0.5
			c-0.3,0.4-0.4,0.8-0.4,1.4c0,0.6,0.1,1,0.4,1.4c0.3,0.3,0.7,0.5,1.2,0.5C324.9,253.8,325.4,253.6,325.7,253z"/>
		<path class="st4" d="M331.1,253.3v-3.2h-0.9v-0.8h0.9v-1.4h0.9v1.4h1.3v0.8H332v3.1c0,0.5,0.2,0.7,0.7,0.7c0.2,0,0.5-0.1,0.7-0.2
			v0.8c-0.2,0.1-0.5,0.2-0.8,0.2c-0.4,0-0.8-0.1-1.1-0.4C331.2,254.2,331.1,253.8,331.1,253.3z"/>
		<path class="st4" d="M334.6,254.7v-7.8h0.9v3.1c0.2-0.2,0.4-0.4,0.7-0.6c0.3-0.1,0.6-0.2,0.9-0.2c0.6,0,1.1,0.2,1.4,0.5
			c0.3,0.4,0.5,0.8,0.5,1.4v3.5h-0.9v-3.3c0-0.4-0.1-0.7-0.3-0.9c-0.2-0.2-0.5-0.3-0.9-0.3c-0.3,0-0.6,0.1-0.8,0.3
			c-0.2,0.2-0.4,0.4-0.5,0.7v3.6L334.6,254.7L334.6,254.7L334.6,254.7z"/>
		<path class="st4" d="M343.9,253.1h0.9c-0.1,0.5-0.3,0.9-0.7,1.2c-0.4,0.3-0.9,0.5-1.4,0.5c-0.7,0-1.3-0.3-1.8-0.8
			c-0.5-0.5-0.7-1.2-0.7-2c0-0.8,0.2-1.5,0.7-2c0.4-0.5,1-0.8,1.8-0.8c0.7,0,1.3,0.2,1.7,0.7c0.4,0.5,0.6,1.1,0.6,1.9v0.3H341
			c0,0.6,0.2,1,0.4,1.3s0.7,0.5,1.1,0.5c0.3,0,0.6-0.1,0.8-0.2C343.7,253.6,343.8,253.4,343.9,253.1z M342.6,250
			c-0.4,0-0.7,0.1-1,0.4c-0.3,0.3-0.4,0.6-0.5,1.1h2.8c0-0.4-0.1-0.8-0.3-1.1C343.3,250.2,343,250,342.6,250z"/>
		<path class="st4" d="M348.2,253.2h0.9c0.2,0.5,0.6,0.8,1.3,0.8c0.3,0,0.6-0.1,0.8-0.2c0.2-0.1,0.3-0.3,0.3-0.6
			c0-0.4-0.3-0.6-0.8-0.7l-1.1-0.3c-0.9-0.2-1.3-0.7-1.3-1.4c0-0.5,0.2-0.8,0.5-1.1c0.4-0.3,0.8-0.4,1.4-0.4c0.6,0,1,0.1,1.4,0.4
			c0.4,0.3,0.6,0.6,0.7,1.1h-0.9c-0.2-0.5-0.6-0.8-1.2-0.8c-0.3,0-0.5,0.1-0.7,0.2c-0.2,0.1-0.3,0.3-0.3,0.6c0,0.2,0.1,0.3,0.2,0.4
			c0.1,0.1,0.3,0.2,0.6,0.3l1,0.3c0.9,0.2,1.4,0.7,1.4,1.5c0,0.5-0.2,0.9-0.6,1.2c-0.4,0.3-0.8,0.4-1.4,0.4s-1.1-0.1-1.5-0.4
			C348.5,254.1,348.3,253.7,348.2,253.2z"/>
		<path class="st4" d="M357,253.1h0.9c-0.1,0.5-0.3,0.9-0.7,1.2c-0.4,0.3-0.9,0.5-1.4,0.5c-0.7,0-1.3-0.3-1.8-0.8
			c-0.5-0.5-0.7-1.2-0.7-2c0-0.8,0.2-1.5,0.7-2c0.4-0.5,1-0.8,1.8-0.8c0.7,0,1.3,0.2,1.7,0.7c0.4,0.5,0.6,1.1,0.6,1.9v0.3h-3.8
			c0,0.6,0.2,1,0.4,1.3c0.3,0.3,0.7,0.5,1.1,0.5c0.3,0,0.6-0.1,0.8-0.2C356.8,253.6,356.9,253.4,357,253.1z M355.7,250
			c-0.4,0-0.7,0.1-1,0.4c-0.3,0.3-0.4,0.6-0.5,1.1h2.8c0-0.4-0.1-0.8-0.3-1.1S356.1,250,355.7,250z"/>
		<path class="st4" d="M359.4,254c-0.4-0.5-0.7-1.2-0.7-2c0-0.8,0.2-1.5,0.7-2c0.4-0.5,1-0.8,1.8-0.8c0.6,0,1.1,0.2,1.4,0.5
			c0.4,0.3,0.6,0.7,0.7,1.2h-0.9c-0.1-0.3-0.2-0.5-0.4-0.7c-0.2-0.2-0.5-0.2-0.8-0.2c-0.5,0-0.8,0.2-1.1,0.6
			c-0.3,0.4-0.4,0.8-0.4,1.4s0.1,1.1,0.4,1.4c0.3,0.4,0.6,0.6,1.1,0.6c0.3,0,0.6-0.1,0.8-0.2c0.2-0.2,0.4-0.4,0.4-0.7h0.9
			c-0.1,0.5-0.3,0.9-0.7,1.2c-0.4,0.3-0.9,0.5-1.4,0.5C360.4,254.8,359.9,254.5,359.4,254z"/>
		<path class="st4" d="M368.7,249.4v5.3h-0.9V254c-0.2,0.2-0.4,0.4-0.6,0.6c-0.3,0.1-0.6,0.2-0.9,0.2c-0.6,0-1.1-0.2-1.4-0.5
			c-0.3-0.4-0.5-0.8-0.5-1.4v-3.5h0.9v3.3c0,0.4,0.1,0.7,0.3,0.9c0.2,0.2,0.5,0.3,0.9,0.3c0.3,0,0.6-0.1,0.8-0.3
			c0.2-0.2,0.4-0.4,0.5-0.7v-3.6L368.7,249.4L368.7,249.4L368.7,249.4z"/>
		<path class="st4" d="M373.1,249.3v0.9c-0.1-0.1-0.3-0.1-0.6-0.1c-0.3,0-0.5,0.1-0.8,0.3c-0.2,0.2-0.4,0.4-0.5,0.7v3.6h-0.9v-5.3
			h0.9v0.7c0.1-0.2,0.3-0.4,0.5-0.6c0.2-0.2,0.5-0.2,0.8-0.2C372.8,249.2,372.9,249.3,373.1,249.3z"/>
		<path class="st4" d="M375,247.3c0.1,0.1,0.2,0.2,0.2,0.4s-0.1,0.3-0.2,0.4c-0.1,0.1-0.3,0.2-0.4,0.2s-0.3-0.1-0.4-0.2
			c-0.1-0.1-0.2-0.2-0.2-0.4s0.1-0.3,0.2-0.4c0.1-0.1,0.2-0.2,0.4-0.2S374.9,247.2,375,247.3z M375.1,249.4v5.3h-0.9v-5.3H375.1z"/>
		<path class="st4" d="M376.9,253.3v-3.2h-0.9v-0.8h0.9v-1.4h0.9v1.4h1.3v0.8h-1.3v3.1c0,0.5,0.2,0.7,0.7,0.7c0.2,0,0.5-0.1,0.7-0.2
			v0.8c-0.2,0.1-0.5,0.2-0.8,0.2c-0.4,0-0.8-0.1-1.1-0.4C377.1,254.2,376.9,253.8,376.9,253.3z"/>
		<path class="st4" d="M382,256.7h-0.9l0.8-2l-2.1-5.4h1l1.6,4.2l1.5-4.2h0.9L382,256.7z"/>
		<path class="st4" d="M391.9,249.4l1.1,4.1l1.2-4.1h0.9l-1.6,5.3h-0.9l-1.1-4l-1.1,4h-0.9l-1.6-5.3h0.9l1.2,4.1l1.1-4.1H391.9z"/>
		<path class="st4" d="M399.9,250c0.5,0.5,0.7,1.2,0.7,2s-0.2,1.5-0.7,2c-0.5,0.5-1,0.8-1.8,0.8s-1.3-0.3-1.8-0.8
			c-0.5-0.5-0.7-1.2-0.7-2s0.2-1.5,0.7-2c0.5-0.5,1-0.8,1.8-0.8C398.9,249.2,399.4,249.5,399.9,250z M399.2,253.4
			c0.3-0.4,0.4-0.8,0.4-1.4c0-0.6-0.1-1.1-0.4-1.4c-0.3-0.4-0.6-0.5-1.1-0.5c-0.5,0-0.8,0.2-1.1,0.5c-0.3,0.4-0.4,0.8-0.4,1.4
			c0,0.6,0.1,1.1,0.4,1.4c0.3,0.4,0.6,0.5,1.1,0.5C398.6,254,399,253.8,399.2,253.4z"/>
		<path class="st4" d="M404.5,249.3v0.9c-0.1-0.1-0.3-0.1-0.6-0.1c-0.3,0-0.5,0.1-0.8,0.3c-0.2,0.2-0.4,0.4-0.5,0.7v3.6h-0.9v-5.3
			h0.9v0.7c0.1-0.2,0.3-0.4,0.5-0.6c0.2-0.2,0.5-0.2,0.8-0.2C404.2,249.2,404.4,249.3,404.5,249.3z"/>
		<path class="st4" d="M409,254.7v-0.6c-0.1,0.2-0.4,0.4-0.6,0.5c-0.3,0.1-0.6,0.2-0.9,0.2c-0.8,0-1.3-0.3-1.8-0.8
			c-0.4-0.5-0.6-1.2-0.6-2c0-0.8,0.2-1.4,0.6-2c0.4-0.5,1-0.8,1.8-0.8c0.3,0,0.6,0.1,0.9,0.2s0.5,0.3,0.6,0.5v-3.1h0.9v7.8
			L409,254.7L409,254.7z M409,253.1v-2.2c-0.1-0.3-0.3-0.5-0.6-0.6c-0.2-0.2-0.5-0.2-0.8-0.2c-0.5,0-0.9,0.2-1.2,0.5
			c-0.3,0.4-0.4,0.8-0.4,1.4s0.1,1,0.4,1.4c0.3,0.4,0.7,0.5,1.2,0.5c0.3,0,0.6-0.1,0.8-0.2S408.9,253.4,409,253.1z"/>
		<path class="st4" d="M411.1,253.2h0.9c0.2,0.5,0.6,0.8,1.3,0.8c0.3,0,0.6-0.1,0.8-0.2c0.2-0.1,0.3-0.3,0.3-0.6
			c0-0.4-0.3-0.6-0.8-0.7l-1.1-0.3c-0.9-0.2-1.3-0.7-1.3-1.4c0-0.5,0.2-0.8,0.5-1.1c0.4-0.3,0.8-0.4,1.4-0.4c0.6,0,1,0.1,1.4,0.4
			c0.4,0.3,0.6,0.6,0.7,1.1h-0.9c-0.2-0.5-0.6-0.8-1.2-0.8c-0.3,0-0.5,0.1-0.7,0.2c-0.2,0.1-0.3,0.3-0.3,0.6c0,0.2,0.1,0.3,0.2,0.4
			c0.1,0.1,0.3,0.2,0.6,0.3l1,0.3c0.9,0.2,1.4,0.7,1.4,1.5c0,0.5-0.2,0.9-0.6,1.2c-0.4,0.3-0.8,0.4-1.4,0.4s-1.1-0.1-1.5-0.4
			C411.4,254.1,411.2,253.7,411.1,253.2z"/>
	</g>
	<g>
		<path d="M423.7,254.7h-0.9v-0.4c-0.1,0.1-0.3,0.2-0.6,0.3c-0.3,0.1-0.5,0.2-0.8,0.2c-0.6,0-1-0.2-1.4-0.5
			c-0.4-0.3-0.6-0.7-0.6-1.2c0-0.5,0.2-0.9,0.6-1.2c0.4-0.3,0.9-0.5,1.5-0.5c0.3,0,0.5,0,0.8,0.1c0.3,0.1,0.4,0.2,0.6,0.3v-0.7
			c0-0.3-0.1-0.6-0.3-0.8c-0.2-0.2-0.5-0.3-0.9-0.3c-0.6,0-0.9,0.2-1.1,0.7h-0.9c0.1-0.4,0.3-0.8,0.7-1.1c0.4-0.3,0.8-0.4,1.3-0.4
			c0.6,0,1.1,0.2,1.5,0.5c0.4,0.3,0.5,0.8,0.5,1.4L423.7,254.7L423.7,254.7z M422.8,253.4v-0.6c-0.1-0.2-0.2-0.4-0.5-0.5
			s-0.5-0.2-0.8-0.2c-0.4,0-0.7,0.1-0.9,0.2c-0.2,0.2-0.4,0.4-0.4,0.7c0,0.3,0.1,0.5,0.4,0.7s0.5,0.2,0.9,0.2c0.3,0,0.5-0.1,0.8-0.2
			S422.7,253.6,422.8,253.4z"/>
		<path d="M426.1,254.1v0.6h-0.9v-7.8h0.9v3.1c0.1-0.2,0.4-0.4,0.6-0.5c0.3-0.1,0.6-0.2,0.9-0.2c0.8,0,1.3,0.3,1.8,0.8
			s0.6,1.2,0.6,2c0,0.8-0.2,1.5-0.6,2c-0.4,0.5-1,0.8-1.8,0.8c-0.3,0-0.6-0.1-0.9-0.2C426.4,254.4,426.2,254.3,426.1,254.1z
			 M426.1,250.9v2.2c0.1,0.3,0.3,0.5,0.6,0.6c0.2,0.2,0.5,0.2,0.8,0.2c0.5,0,0.9-0.2,1.2-0.5c0.3-0.4,0.4-0.8,0.4-1.4
			c0-0.6-0.1-1-0.4-1.4c-0.3-0.4-0.7-0.5-1.2-0.5c-0.3,0-0.6,0.1-0.8,0.2C426.4,250.4,426.2,250.7,426.1,250.9z"/>
		<path d="M435.1,250c0.5,0.5,0.7,1.2,0.7,2c0,0.8-0.2,1.5-0.7,2c-0.5,0.5-1,0.8-1.8,0.8s-1.3-0.3-1.8-0.8c-0.5-0.5-0.7-1.2-0.7-2
			c0-0.8,0.2-1.5,0.7-2c0.5-0.5,1-0.8,1.8-0.8C434,249.2,434.6,249.5,435.1,250z M434.4,253.4c0.3-0.4,0.4-0.8,0.4-1.4
			c0-0.6-0.1-1.1-0.4-1.4c-0.3-0.4-0.6-0.5-1.1-0.5c-0.5,0-0.8,0.2-1.1,0.5c-0.3,0.4-0.4,0.8-0.4,1.4c0,0.6,0.1,1.1,0.4,1.4
			c0.3,0.4,0.6,0.5,1.1,0.5C433.8,254,434.1,253.8,434.4,253.4z"/>
		<path d="M439.2,254.7h-0.9l-2.1-5.3h1l1.6,4.2l1.5-4.2h0.9L439.2,254.7z"/>
		<path d="M445.6,253.1h0.9c-0.1,0.5-0.3,0.9-0.7,1.2c-0.4,0.3-0.9,0.5-1.4,0.5c-0.7,0-1.3-0.3-1.8-0.8c-0.5-0.5-0.7-1.2-0.7-2
			c0-0.8,0.2-1.5,0.7-2c0.4-0.5,1-0.8,1.8-0.8c0.7,0,1.3,0.2,1.7,0.7c0.4,0.5,0.6,1.1,0.6,1.9v0.3h-3.8c0,0.6,0.2,1,0.4,1.3
			c0.3,0.3,0.7,0.5,1.1,0.5c0.3,0,0.6-0.1,0.8-0.2C445.4,253.6,445.5,253.4,445.6,253.1z M444.3,250c-0.4,0-0.7,0.1-1,0.4
			c-0.3,0.3-0.4,0.6-0.5,1.1h2.8c0-0.4-0.1-0.8-0.3-1.1C445,250.2,444.7,250,444.3,250z"/>
	</g>
</g>
<rect x="286.1" y="61.6" class="st9" width="172" height="303"/>
</svg>
