<svg id="OUTLINES" xmlns="http://www.w3.org/2000/svg" viewBox="0 0 1152 1008"><defs><style>.cls-1{fill:#fff;}.cls-2{fill:#000f7d;}</style></defs><title>word-matching</title><rect class="cls-1" x="112.5" y="481.5" width="216" height="99" rx="18"/><path class="cls-1" d="M310.5,586.5h-180a24,24,0,0,1-24-24v-63a24,24,0,0,1,24-24h180a24,24,0,0,1,24,24v63A24,24,0,0,1,310.5,586.5Zm-180-99a12,12,0,0,0-12,12v63a12,12,0,0,0,12,12h180a12,12,0,0,0,12-12v-63a12,12,0,0,0-12-12Z"/><path class="cls-2" d="M938.1,867.49a5,5,0,0,1-3.79-1.74,78.37,78.37,0,0,1-2.79-98.86l-60.29-66.95a38.6,38.6,0,0,1,28.26-64.89h.44a5,5,0,0,1,3.5,1.46L1010,743.1a5,5,0,0,1-7.07,7.07L897.87,645.1a28.59,28.59,0,0,0-19.27,48.07l63.22,70.21a5,5,0,0,1,.07,6.61,68.36,68.36,0,0,0,0,89.23,5,5,0,0,1-.52,7A4.94,4.94,0,0,1,938.1,867.49Z"/><path class="cls-2" d="M1066.41,892.44a5,5,0,0,1-5-5V754.2a139.57,139.57,0,0,0-41.17-99.36l-51.4-51.41a5,5,0,0,1,7.08-7.07l51.4,51.41a149.54,149.54,0,0,1,44.09,106.43V887.44A5,5,0,0,1,1066.41,892.44Z"/><path class="cls-2" d="M869,896a5,5,0,0,1-5-5V867.54a77.92,77.92,0,0,1-40.91-68.85V768.08a5,5,0,0,1,10,0v30.61A68,68,0,0,0,871.21,860,5,5,0,0,1,874,864.5V891A5,5,0,0,1,869,896Z"/><path class="cls-2" d="M828.09,738.5a23,23,0,1,1,23-23A23,23,0,0,1,828.09,738.5Zm0-36a13,13,0,1,0,13,13A13,13,0,0,0,828.09,702.5Z"/><path class="cls-2" d="M688.41,378l-9,0,.18-99a22.53,22.53,0,0,1,22.5-22.49h252a22.52,22.52,0,0,1,22.5,22.5v99h-9V279a13.51,13.51,0,0,0-13.5-13.5h-252a13.52,13.52,0,0,0-13.5,13.5Z"/><path class="cls-2" d="M936.54,769.5H702.09a22.53,22.53,0,0,1-22.5-22.5V576h9V747a13.52,13.52,0,0,0,13.5,13.5H926.43L871.6,699.6a38.09,38.09,0,0,1,27.89-64H900a4.52,4.52,0,0,1,3.12,1.32l64.51,64.52V576h9V712.26a4.49,4.49,0,0,1-7.68,3.18l-70.85-70.85a29.1,29.1,0,0,0-19.83,48.93L939.89,762a4.5,4.5,0,0,1-3.35,7.51Z"/><path class="cls-2" d="M85.59,892.44a5,5,0,0,1-5-5V754.2a149.54,149.54,0,0,1,44.09-106.43l50.46-50.46a5,5,0,0,1,7.07,7.07l-50.45,50.46A139.57,139.57,0,0,0,90.59,754.2V887.44A5,5,0,0,1,85.59,892.44Z"/><path class="cls-2" d="M283,896a5,5,0,0,1-5-5V864.5a5,5,0,0,1,2.79-4.48,68,68,0,0,0,38.12-61.33V769.5a5,5,0,0,1,10,0v29.19A77.92,77.92,0,0,1,288,867.54V891A5,5,0,0,1,283,896Z"/><path class="cls-2" d="M323.91,738.5a23,23,0,1,1,23-23A23,23,0,0,1,323.91,738.5Zm0-36a13,13,0,1,0,13,13A13,13,0,0,0,323.91,702.5Z"/><path class="cls-2" d="M472.41,378h-9V279a13.52,13.52,0,0,0-13.5-13.5h-252a13.51,13.51,0,0,0-13.5,13.5v99h-9V279a22.52,22.52,0,0,1,22.5-22.5h252a22.53,22.53,0,0,1,22.5,22.5Z"/><path class="cls-2" d="M449.91,769.5H215.46a4.5,4.5,0,0,1-3.35-7.51l61.6-68.41a29.09,29.09,0,0,0-19.77-49l-70.85,70.85a4.49,4.49,0,0,1-7.68-3.18V576h9V701.4l64.51-64.52a4.52,4.52,0,0,1,3.12-1.32h.47a38.09,38.09,0,0,1,27.83,64.11L225.57,760.5H449.91a13.52,13.52,0,0,0,13.5-13.5V576h9V747A22.53,22.53,0,0,1,449.91,769.5Z"/><path class="cls-2" d="M213.9,867.49a4.94,4.94,0,0,1-3.26-1.22,5,5,0,0,1-.52-7,68.36,68.36,0,0,0,0-89.23,5,5,0,0,1,.07-6.61l63.16-70.14a28.59,28.59,0,0,0-19.21-48.14L149.07,750.17A5,5,0,0,1,142,743.1L248.57,636.52a5,5,0,0,1,3.5-1.46h.44a38.59,38.59,0,0,1,28.19,65l-60.22,66.88a78.37,78.37,0,0,1-2.79,98.86A5,5,0,0,1,213.9,867.49Z"/><path class="cls-2" d="M348.94,292.32c4,4.24,7.05,8.19,7.72,12.07-.11,8.74-8.36,19.56-18.26,29.46s-21.27,19.55-29.57,18.29c-3.9-.66-7.87-3.72-12.15-7.77a4.19,4.19,0,0,1,0-5.52l8.44-8.43c1.45-1.45,4.27-1.45,6.13-.47l5.68,4.16c3,2.58,9.41-3.75,13.65-8s10.68-9.95,8-13.66l-4.15-5.65c-1-1.84-1-4.65.42-6l8.41-8.39a4.22,4.22,0,0,1,5.69-.06Z"/><path class="cls-2" d="M291.16,321.25a3,3,0,0,1-3-3,34.54,34.54,0,0,1,34.5-34.5,3,3,0,1,1,0,6,28.53,28.53,0,0,0-28.5,28.5A3,3,0,0,1,291.16,321.25Z"/><path class="cls-2" d="M304.66,321.25a3,3,0,0,1-3-3,21,21,0,0,1,21-21,3,3,0,1,1,0,6,15,15,0,0,0-15,15A3,3,0,0,1,304.66,321.25Z"/><path class="cls-2" d="M853.13,292.32c4,4.24,7,8.19,7.71,12.07-.11,8.74-8.35,19.56-18.25,29.46S821.32,353.4,813,352.14c-3.9-.66-7.87-3.72-12.15-7.77a4.19,4.19,0,0,1,0-5.52l8.43-8.43c1.46-1.45,4.28-1.45,6.13-.47l5.68,4.16c3,2.58,9.42-3.75,13.66-8s10.68-9.95,8-13.66l-4.15-5.65c-1-1.84-1-4.65.42-6l8.4-8.39a4.24,4.24,0,0,1,5.7-.06Z"/><path class="cls-2" d="M795.34,321.25a3,3,0,0,1-3-3,34.54,34.54,0,0,1,34.5-34.5,3,3,0,1,1,0,6,28.54,28.54,0,0,0-28.5,28.5A3,3,0,0,1,795.34,321.25Z"/><path class="cls-2" d="M808.84,321.25a3,3,0,0,1-3-3,21,21,0,0,1,21-21,3,3,0,1,1,0,6,15,15,0,0,0-15,15A3,3,0,0,1,808.84,321.25Z"/><path class="cls-2" d="M486.09,483.05H161.72a24,24,0,0,1-24-24v-63a24,24,0,0,1,24-24H486.09a24,24,0,0,1,24,24v63A24,24,0,0,1,486.09,483.05Zm-324.37-99a12,12,0,0,0-12,12v63a12,12,0,0,0,12,12H486.09a12,12,0,0,0,12-12v-63a12,12,0,0,0-12-12Z"/><path class="cls-2" d="M305.91,582h-180a24,24,0,0,1-24-24V495a24,24,0,0,1,24-24h180a24,24,0,0,1,24,24v63A24,24,0,0,1,305.91,582Zm-180-99a12,12,0,0,0-12,12v63a12,12,0,0,0,12,12h180a12,12,0,0,0,12-12V495a12,12,0,0,0-12-12Z"/><path class="cls-2" d="M521.91,582h-180a24,24,0,0,1-24-24V495a24,24,0,0,1,24-24h180a24,24,0,0,1,24,24v63A24,24,0,0,1,521.91,582Zm-180-99a12,12,0,0,0-12,12v63a12,12,0,0,0,12,12h180a12,12,0,0,0,12-12V495a12,12,0,0,0-12-12Z"/><path class="cls-2" d="M180.29,540h-5.36v-1.08a4.93,4.93,0,0,1-1.93,1,9.62,9.62,0,0,1-3,.45,8.11,8.11,0,0,1-5.33-1.76,5.83,5.83,0,0,1-2.14-4.77,5.67,5.67,0,0,1,2.23-4.63,8.53,8.53,0,0,1,5.55-1.8,10.12,10.12,0,0,1,2.61.36,6.34,6.34,0,0,1,2,.81v-1.49a3.06,3.06,0,0,0-.83-2.22,3.19,3.19,0,0,0-2.45-.88,2.86,2.86,0,0,0-3,1.89h-5.31a7.12,7.12,0,0,1,2.77-4.61,10.13,10.13,0,0,1,11.92.22,7.35,7.35,0,0,1,2.23,5.69Zm-5.36-5.49v-1.44a2.58,2.58,0,0,0-1.37-1.28,5.21,5.21,0,0,0-2.27-.48,4.91,4.91,0,0,0-2.5.63,2.05,2.05,0,0,0-1.06,1.85,2,2,0,0,0,1,1.84,4.67,4.67,0,0,0,2.52.63,5.21,5.21,0,0,0,2.27-.47A2.58,2.58,0,0,0,174.93,534.51Z"/><path class="cls-2" d="M190.41,510.75V540h-5.58V510.75Z"/><path class="cls-2" d="M200.85,538.33v9.09h-5.58V519.88h5.58v1.67a6,6,0,0,1,2.12-1.49,7,7,0,0,1,2.92-.63,8.22,8.22,0,0,1,6.71,3,12.56,12.56,0,0,1,0,15,8.2,8.2,0,0,1-6.71,3,7,7,0,0,1-2.92-.63A5.78,5.78,0,0,1,200.85,538.33Zm0-11.7v6.62a4.07,4.07,0,0,0,1.53,1.69,4.18,4.18,0,0,0,2.25.65,4.3,4.3,0,0,0,3.51-1.58,6.12,6.12,0,0,0,1.31-4,6.25,6.25,0,0,0-1.31-4.07,4.31,4.31,0,0,0-3.51-1.6,4,4,0,0,0-2.22.66A4.41,4.41,0,0,0,200.85,526.63Z"/><path class="cls-2" d="M224.7,514.08a3,3,0,0,1-1,2.3,3.52,3.52,0,0,1-4.68,0,3.15,3.15,0,0,1,0-4.57,3.3,3.3,0,0,1,2.34-.93,3.24,3.24,0,0,1,2.32.93A3,3,0,0,1,224.7,514.08Zm-.49,5.8V540h-5.58V519.88Z"/><path class="cls-2" d="M229.07,540V519.88h5.58v1.85a7.63,7.63,0,0,1,10.64-.27,7.63,7.63,0,0,1,1.87,5.4V540h-5.58V528a3.87,3.87,0,0,0-.83-2.59,3.1,3.1,0,0,0-2.46-1,3.76,3.76,0,0,0-2.31.75,3.4,3.4,0,0,0-1.33,2V540Z"/><path class="cls-2" d="M264,533.43h5.18a8,8,0,0,1-2.86,5.15,9.32,9.32,0,0,1-6.05,1.87,9.23,9.23,0,0,1-7.07-2.9,11.88,11.88,0,0,1,0-15.12,9,9,0,0,1,6.95-3,8.48,8.48,0,0,1,6.72,2.73,10.52,10.52,0,0,1,2.41,7.26v1.71H255.93a5.6,5.6,0,0,0,1.31,3.54A4,4,0,0,0,260.3,536Q263.36,536,264,533.43ZM260.25,524q-3.42,0-4.18,3.78h7.78a4.09,4.09,0,0,0-1-2.72A3.31,3.31,0,0,0,260.25,524Z"/><path class="cls-2" d="M239.69,423a7.84,7.84,0,0,1,6.08-2.57,6.11,6.11,0,0,1,4.86,2,7.92,7.92,0,0,1,1.75,5.42V441H246.8V429a4.24,4.24,0,0,0-.74-2.63,2.53,2.53,0,0,0-2.14-1,3.1,3.1,0,0,0-2,.67,3.23,3.23,0,0,0-1.12,1.94v13h-5.63V429q0-3.6-2.83-3.6a3.13,3.13,0,0,0-2,.7,3.25,3.25,0,0,0-1.14,1.91v13h-5.58V420.88h5.58v1.67a6.05,6.05,0,0,1,5.08-2.12A6.38,6.38,0,0,1,239.69,423Z"/><path class="cls-2" d="M273.53,441h-5.35v-1.08a5,5,0,0,1-1.94,1,9.62,9.62,0,0,1-3,.45,8.11,8.11,0,0,1-5.33-1.76,5.83,5.83,0,0,1-2.14-4.77A5.67,5.67,0,0,1,258,430.2a8.54,8.54,0,0,1,5.56-1.8,10.12,10.12,0,0,1,2.61.36,6.44,6.44,0,0,1,2,.81v-1.49a3.06,3.06,0,0,0-.84-2.22,3.19,3.19,0,0,0-2.45-.88,2.86,2.86,0,0,0-3,1.89h-5.31a7.12,7.12,0,0,1,2.77-4.61,10.13,10.13,0,0,1,11.92.22,7.35,7.35,0,0,1,2.23,5.69Zm-5.35-5.49v-1.44a2.64,2.64,0,0,0-1.38-1.28,5.21,5.21,0,0,0-2.27-.48,4.91,4.91,0,0,0-2.5.63,2.05,2.05,0,0,0-1.06,1.85,2,2,0,0,0,1,1.84,4.67,4.67,0,0,0,2.52.63,5.21,5.21,0,0,0,2.27-.47A2.64,2.64,0,0,0,268.18,435.51Z"/><path class="cls-2" d="M291.17,441l-5.9-8.1-1.62,1.75V441h-5.58V411.75h5.58v16.6l6.89-7.47h6.93l-8.15,8.55L297.78,441Z"/><path class="cls-2" d="M306.6,415.08a3,3,0,0,1-1,2.3,3.52,3.52,0,0,1-4.68,0,3.15,3.15,0,0,1,0-4.57,3.3,3.3,0,0,1,2.34-.93,3.24,3.24,0,0,1,2.32.93A3,3,0,0,1,306.6,415.08Zm-.49,5.8V441h-5.58V420.88Z"/><path class="cls-2" d="M311,441V420.88h5.58v1.85a7.63,7.63,0,0,1,10.64-.27,7.63,7.63,0,0,1,1.87,5.4V441h-5.58V429a3.87,3.87,0,0,0-.83-2.59,3.1,3.1,0,0,0-2.46-1,3.76,3.76,0,0,0-2.31.75,3.4,3.4,0,0,0-1.33,2V441Z"/><path class="cls-2" d="M346.52,439.65v-1.17a6.05,6.05,0,0,1-4.95,2.07,8.25,8.25,0,0,1-6.66-2.93,11.49,11.49,0,0,1,0-14.26,8.28,8.28,0,0,1,6.66-2.93,6.2,6.2,0,0,1,4.95,2v-1.58h5.53v17.91c0,3.33-.9,5.85-2.7,7.54a10,10,0,0,1-7.15,2.55,10.26,10.26,0,0,1-6.41-1.9,7.53,7.53,0,0,1-3-5.26h5.4q.67,2.83,4,2.83Q346.52,444.55,346.52,439.65Zm0-5.9v-6.57a4.15,4.15,0,0,0-3.78-2.06,4.31,4.31,0,0,0-3.47,1.48,5.78,5.78,0,0,0-1.26,3.87,5.85,5.85,0,0,0,1.26,3.89,4.27,4.27,0,0,0,3.47,1.51,4.23,4.23,0,0,0,2.23-.61A4.32,4.32,0,0,0,346.52,433.75Z"/><path class="cls-2" d="M365.19,431a10.76,10.76,0,0,1,2.7-7.6,9.08,9.08,0,0,1,7-2.93,9,9,0,0,1,6,2,8.05,8.05,0,0,1,2.79,5.26H378.2a2.82,2.82,0,0,0-1.11-1.82,3.57,3.57,0,0,0-2.22-.65,3.53,3.53,0,0,0-3,1.57,7.06,7.06,0,0,0-1.12,4.18,7,7,0,0,0,1.12,4.14,3.51,3.51,0,0,0,3,1.58,3.63,3.63,0,0,0,2.22-.65,2.84,2.84,0,0,0,1.11-1.82h5.49a8.1,8.1,0,0,1-2.77,5.26,10,10,0,0,1-13-1A10.69,10.69,0,0,1,365.19,431Z"/><path class="cls-2" d="M403.62,441h-5.35v-1.08a5,5,0,0,1-1.94,1,9.62,9.62,0,0,1-3,.45A8.13,8.13,0,0,1,388,439.6a5.86,5.86,0,0,1-2.14-4.77,5.7,5.7,0,0,1,2.23-4.63,8.57,8.57,0,0,1,5.56-1.8,10.12,10.12,0,0,1,2.61.36,6.34,6.34,0,0,1,2,.81v-1.49a3.1,3.1,0,0,0-.83-2.22A3.23,3.23,0,0,0,395,425a2.86,2.86,0,0,0-3,1.89H386.7a7.16,7.16,0,0,1,2.77-4.61,10.15,10.15,0,0,1,11.93.22,7.37,7.37,0,0,1,2.22,5.69Zm-5.35-5.49v-1.44a2.62,2.62,0,0,0-1.37-1.28,5.29,5.29,0,0,0-2.28-.48,4.84,4.84,0,0,0-2.49.63,2.15,2.15,0,0,0,0,3.69,4.67,4.67,0,0,0,2.52.63,5.29,5.29,0,0,0,2.28-.47A2.62,2.62,0,0,0,398.27,435.51Z"/><path class="cls-2" d="M413.75,411.75V441h-5.58V411.75Z"/><path class="cls-2" d="M424.19,411.75V441h-5.58V411.75Z"/><path class="cls-2" d="M989.72,483.05H666.09a24,24,0,0,1-24-24v-63a24,24,0,0,1,24-24H989.72a24,24,0,0,1,24,24v63A24,24,0,0,1,989.72,483.05Zm-323.63-99a12,12,0,0,0-12,12v63a12,12,0,0,0,12,12H989.72a12,12,0,0,0,12-12v-63a12,12,0,0,0-12-12Z"/><path class="cls-2" d="M723,420.79v5.59a5.27,5.27,0,0,0-2.79-.68,4.18,4.18,0,0,0-2.48.74,3.44,3.44,0,0,0-1.35,2.1V441h-5.58V420.88h5.58v2a4.87,4.87,0,0,1,4.5-2.44A4.58,4.58,0,0,1,723,420.79Z"/><path class="cls-2" d="M738.29,434.43h5.18a8,8,0,0,1-2.86,5.15,9.32,9.32,0,0,1-6.05,1.87,9.23,9.23,0,0,1-7.07-2.9,11.9,11.9,0,0,1,0-15.12,9,9,0,0,1,7-3,8.48,8.48,0,0,1,6.72,2.73,10.52,10.52,0,0,1,2.41,7.26v1.71H730.19a5.6,5.6,0,0,0,1.31,3.54,4,4,0,0,0,3.06,1.28Q737.62,437,738.29,434.43ZM734.51,425q-3.42,0-4.18,3.78h7.78a4.09,4.09,0,0,0-1-2.72A3.31,3.31,0,0,0,734.51,425Z"/><path class="cls-2" d="M746.08,431a10.76,10.76,0,0,1,2.7-7.6,9.92,9.92,0,0,1,13-.94,8.05,8.05,0,0,1,2.79,5.26h-5.49a2.85,2.85,0,0,0-1.1-1.82,3.62,3.62,0,0,0-2.23-.65,3.5,3.5,0,0,0-3,1.57,7.06,7.06,0,0,0-1.13,4.18,7,7,0,0,0,1.13,4.14,3.49,3.49,0,0,0,3,1.58A3.68,3.68,0,0,0,758,436a2.87,2.87,0,0,0,1.1-1.82h5.49a8.1,8.1,0,0,1-2.77,5.26,10,10,0,0,1-13-1A10.69,10.69,0,0,1,746.08,431Z"/><path class="cls-2" d="M780.28,434.43h5.17a8,8,0,0,1-2.86,5.15,9.31,9.31,0,0,1-6.05,1.87,9.21,9.21,0,0,1-7.06-2.9,11.9,11.9,0,0,1,0-15.12,9,9,0,0,1,7-3,8.51,8.51,0,0,1,6.73,2.73,10.57,10.57,0,0,1,2.41,7.26v1.71H772.18a5.6,5.6,0,0,0,1.3,3.54,4,4,0,0,0,3.06,1.28Q779.6,437,780.28,434.43ZM776.5,425q-3.42,0-4.19,3.78h7.79a4.09,4.09,0,0,0-1-2.72A3.31,3.31,0,0,0,776.5,425Z"/><path class="cls-2" d="M795.22,415.08a3,3,0,0,1-1,2.3,3.52,3.52,0,0,1-4.68,0,3.15,3.15,0,0,1,0-4.57,3.3,3.3,0,0,1,2.34-.93,3.24,3.24,0,0,1,2.32.93A3,3,0,0,1,795.22,415.08Zm-.5,5.8V441h-5.58V420.88Z"/><path class="cls-2" d="M810.74,441h-5.4l-7.61-20.12h5.85l4.64,13.37,4.54-13.37h5.63Z"/><path class="cls-2" d="M827.48,415.08a3,3,0,0,1-1,2.3,3.27,3.27,0,0,1-2.32.89,3.34,3.34,0,0,1-2.36-.89,3,3,0,0,1-1-2.3,3,3,0,0,1,1-2.27,3.3,3.3,0,0,1,2.34-.93,3.22,3.22,0,0,1,2.32.93A3,3,0,0,1,827.48,415.08Zm-.5,5.8V441H821.4V420.88Z"/><path class="cls-2" d="M831.84,441V420.88h5.58v1.85a7.64,7.64,0,0,1,10.65-.27,7.67,7.67,0,0,1,1.86,5.4V441h-5.58V429a3.82,3.82,0,0,0-.83-2.59,3.06,3.06,0,0,0-2.45-1,3.81,3.81,0,0,0-2.32.75,3.44,3.44,0,0,0-1.33,2V441Z"/><path class="cls-2" d="M867.39,439.65v-1.17a6.05,6.05,0,0,1-4.95,2.07,8.25,8.25,0,0,1-6.66-2.93,11.53,11.53,0,0,1,0-14.26,8.28,8.28,0,0,1,6.66-2.93,6.2,6.2,0,0,1,4.95,2v-1.58h5.54v17.91c0,3.33-.9,5.85-2.7,7.54a10,10,0,0,1-7.16,2.55,10.28,10.28,0,0,1-6.41-1.9,7.57,7.57,0,0,1-2.95-5.26h5.4q.67,2.83,4,2.83Q867.39,444.55,867.39,439.65Zm0-5.9v-6.57a4.15,4.15,0,0,0-3.78-2.06,4.29,4.29,0,0,0-3.46,1.48,5.78,5.78,0,0,0-1.26,3.87,5.85,5.85,0,0,0,1.26,3.89,4.25,4.25,0,0,0,3.46,1.51,4.2,4.2,0,0,0,2.23-.61A4.24,4.24,0,0,0,867.39,433.75Z"/><path class="cls-2" d="M886.07,431a10.76,10.76,0,0,1,2.7-7.6,9.92,9.92,0,0,1,13-.94,8.05,8.05,0,0,1,2.79,5.26h-5.49a2.85,2.85,0,0,0-1.1-1.82,3.6,3.6,0,0,0-2.23-.65,3.51,3.51,0,0,0-3,1.57A7.06,7.06,0,0,0,891.6,431a7,7,0,0,0,1.13,4.14,3.5,3.5,0,0,0,3,1.58A3.66,3.66,0,0,0,898,436a2.87,2.87,0,0,0,1.1-1.82h5.49a8.13,8.13,0,0,1-2.76,5.26,10,10,0,0,1-13-1A10.69,10.69,0,0,1,886.07,431Z"/><path class="cls-2" d="M924.5,441h-5.36v-1.08a4.93,4.93,0,0,1-1.93,1,9.62,9.62,0,0,1-3,.45,8.11,8.11,0,0,1-5.33-1.76,5.83,5.83,0,0,1-2.14-4.77A5.67,5.67,0,0,1,909,430.2a8.53,8.53,0,0,1,5.55-1.8,10.12,10.12,0,0,1,2.61.36,6.34,6.34,0,0,1,2,.81v-1.49a3.06,3.06,0,0,0-.83-2.22,3.19,3.19,0,0,0-2.45-.88,2.86,2.86,0,0,0-3,1.89h-5.31a7.12,7.12,0,0,1,2.77-4.61,10.13,10.13,0,0,1,11.92.22,7.35,7.35,0,0,1,2.23,5.69Zm-5.36-5.49v-1.44a2.58,2.58,0,0,0-1.37-1.28,5.21,5.21,0,0,0-2.27-.48,4.91,4.91,0,0,0-2.5.63,2.05,2.05,0,0,0-1.06,1.85,2,2,0,0,0,1,1.84,4.67,4.67,0,0,0,2.52.63,5.21,5.21,0,0,0,2.27-.47A2.58,2.58,0,0,0,919.14,435.51Z"/><path class="cls-2" d="M934.62,411.75V441H929V411.75Z"/><path class="cls-2" d="M945.06,411.75V441h-5.58V411.75Z"/><path class="cls-2" d="M365.64,529.56a10.8,10.8,0,0,1,2.7-7.6,10,10,0,0,1,13-1,8.08,8.08,0,0,1,2.79,5.27h-5.49a2.9,2.9,0,0,0-1.1-1.83,3.68,3.68,0,0,0-2.23-.65,3.54,3.54,0,0,0-3,1.58,8.29,8.29,0,0,0,0,8.32,3.54,3.54,0,0,0,3,1.58,3.62,3.62,0,0,0,2.23-.66,2.85,2.85,0,0,0,1.1-1.82h5.49a8.1,8.1,0,0,1-2.77,5.27,9,9,0,0,1-6.05,2,9.08,9.08,0,0,1-7-2.93A10.75,10.75,0,0,1,365.64,529.56Z"/><path class="cls-2" d="M404.08,539.6h-5.36v-1.08a4.93,4.93,0,0,1-1.93,1,9.73,9.73,0,0,1-3,.45,8.13,8.13,0,0,1-5.33-1.76,5.86,5.86,0,0,1-2.14-4.77,5.7,5.7,0,0,1,2.23-4.63,8.57,8.57,0,0,1,5.56-1.8,10.12,10.12,0,0,1,2.61.36,6.34,6.34,0,0,1,2,.81v-1.49a3.14,3.14,0,0,0-.83-2.23,3.27,3.27,0,0,0-2.46-.87,2.84,2.84,0,0,0-3,1.89h-5.31a7.15,7.15,0,0,1,2.76-4.62,9,9,0,0,1,5.7-1.82,8.86,8.86,0,0,1,6.23,2.05,7.35,7.35,0,0,1,2.23,5.69Zm-5.36-5.49v-1.44a2.67,2.67,0,0,0-1.37-1.29,5.42,5.42,0,0,0-2.27-.47,4.76,4.76,0,0,0-2.5.63,2.15,2.15,0,0,0,0,3.69,4.82,4.82,0,0,0,2.53.63,5.42,5.42,0,0,0,2.27-.47A2.65,2.65,0,0,0,398.72,534.11Z"/><path class="cls-2" d="M414.2,537.93v1.67h-5.63V510.35h5.63v10.8a5.85,5.85,0,0,1,2.11-1.49,7.05,7.05,0,0,1,2.93-.63,8.15,8.15,0,0,1,6.68,3,12.7,12.7,0,0,1,0,15,8.16,8.16,0,0,1-6.68,3,7.05,7.05,0,0,1-2.93-.63A5.85,5.85,0,0,1,414.2,537.93Zm0-11.7v6.62a4,4,0,0,0,1.51,1.68,4.05,4.05,0,0,0,2.27.66,4.33,4.33,0,0,0,3.51-1.58,6.14,6.14,0,0,0,1.31-4.05,6.21,6.21,0,0,0-1.31-4.07,4.29,4.29,0,0,0-3.51-1.6,4.18,4.18,0,0,0-2.25.65A4.07,4.07,0,0,0,414.2,526.23Z"/><path class="cls-2" d="M438.05,513.68a3,3,0,0,1-1,2.29,3.28,3.28,0,0,1-2.32.9,3.34,3.34,0,0,1-2.36-.9,3.15,3.15,0,0,1,0-4.57,3.34,3.34,0,0,1,2.34-.92,3.26,3.26,0,0,1,2.32.92A3,3,0,0,1,438.05,513.68Zm-.5,5.8V539.6H432V519.48Z"/><path class="cls-2" d="M442.41,539.6V519.48H448v1.85a7.64,7.64,0,0,1,10.65-.27,7.67,7.67,0,0,1,1.86,5.4V539.6h-5.58v-12a3.8,3.8,0,0,0-.83-2.59,3,3,0,0,0-2.45-1,3.87,3.87,0,0,0-2.32.74,3.5,3.5,0,0,0-1.33,2.05V539.6Z"/><path class="cls-2" d="M477.38,533h5.17a8,8,0,0,1-2.85,5.15,9.41,9.41,0,0,1-6.06,1.87,9.18,9.18,0,0,1-7.06-2.91,10.67,10.67,0,0,1-2.7-7.58A10.81,10.81,0,0,1,466.6,522a9,9,0,0,1,6.95-3,8.52,8.52,0,0,1,6.73,2.72,10.56,10.56,0,0,1,2.41,7.27v1.71H469.28a5.54,5.54,0,0,0,1.3,3.53,3.94,3.94,0,0,0,3.06,1.29Q476.7,535.55,477.38,533Zm-3.78-9.45q-3.42,0-4.19,3.78h7.79a4.14,4.14,0,0,0-1-2.73A3.33,3.33,0,0,0,473.6,523.58Z"/><path class="cls-2" d="M487.46,533.52V524H484.4v-4.5h3.06V514H493v5.44h4.41V524H493v8.82a2,2,0,0,0,2.3,2.3,4.35,4.35,0,0,0,2.43-.68v5a7.89,7.89,0,0,1-3.6.63,7,7,0,0,1-4.91-1.62A6.29,6.29,0,0,1,487.46,533.52Z"/><rect class="cls-1" x="828" y="481.5" width="220.5" height="99" rx="18"/><path class="cls-1" d="M1030.5,586.5H846a24,24,0,0,1-24-24v-63a24,24,0,0,1,24-24h184.5a24,24,0,0,1,24,24v63A24,24,0,0,1,1030.5,586.5ZM846,487.5a12,12,0,0,0-12,12v63a12,12,0,0,0,12,12h184.5a12,12,0,0,0,12-12v-63a12,12,0,0,0-12-12Z"/><path class="cls-2" d="M809.91,582h-180a24,24,0,0,1-24-24V495a24,24,0,0,1,24-24h180a24,24,0,0,1,24,24v63A24,24,0,0,1,809.91,582Zm-180-99a12,12,0,0,0-12,12v63a12,12,0,0,0,12,12h180a12,12,0,0,0,12-12V495a12,12,0,0,0-12-12Z"/><path class="cls-2" d="M1025.91,582h-180a24,24,0,0,1-24-24V495a24,24,0,0,1,24-24h180a24,24,0,0,1,24,24v63A24,24,0,0,1,1025.91,582Zm-180-99a12,12,0,0,0-12,12v63a12,12,0,0,0,12,12h180a12,12,0,0,0,12-12V495a12,12,0,0,0-12-12Z"/><path class="cls-2" d="M684.29,540h-5.36v-1.08a4.93,4.93,0,0,1-1.93,1,9.62,9.62,0,0,1-3,.45,8.11,8.11,0,0,1-5.33-1.76,5.83,5.83,0,0,1-2.14-4.77,5.67,5.67,0,0,1,2.23-4.63,8.53,8.53,0,0,1,5.55-1.8,10.12,10.12,0,0,1,2.61.36,6.34,6.34,0,0,1,2,.81v-1.49a3.06,3.06,0,0,0-.83-2.22,3.19,3.19,0,0,0-2.45-.88,2.86,2.86,0,0,0-3,1.89h-5.31a7.12,7.12,0,0,1,2.77-4.61,10.13,10.13,0,0,1,11.92.22,7.35,7.35,0,0,1,2.23,5.69Zm-5.36-5.49v-1.44a2.58,2.58,0,0,0-1.37-1.28,5.21,5.21,0,0,0-2.27-.48,4.91,4.91,0,0,0-2.5.63,2.05,2.05,0,0,0-1.06,1.85,2,2,0,0,0,1,1.84,4.67,4.67,0,0,0,2.52.63,5.21,5.21,0,0,0,2.27-.47A2.58,2.58,0,0,0,678.93,534.51Z"/><path class="cls-2" d="M694.41,510.75V540h-5.58V510.75Z"/><path class="cls-2" d="M704.85,538.33v9.09h-5.58V519.88h5.58v1.67a6,6,0,0,1,2.12-1.49,7,7,0,0,1,2.92-.63,8.22,8.22,0,0,1,6.71,3,12.56,12.56,0,0,1,0,15,8.2,8.2,0,0,1-6.71,3,7,7,0,0,1-2.92-.63A5.78,5.78,0,0,1,704.85,538.33Zm0-11.7v6.62a4.07,4.07,0,0,0,1.53,1.69,4.18,4.18,0,0,0,2.25.65,4.3,4.3,0,0,0,3.51-1.58,6.12,6.12,0,0,0,1.31-4,6.25,6.25,0,0,0-1.31-4.07,4.31,4.31,0,0,0-3.51-1.6,4,4,0,0,0-2.22.66A4.41,4.41,0,0,0,704.85,526.63Z"/><path class="cls-2" d="M728.7,514.08a3,3,0,0,1-1,2.3,3.52,3.52,0,0,1-4.68,0,3.15,3.15,0,0,1,0-4.57,3.3,3.3,0,0,1,2.34-.93,3.24,3.24,0,0,1,2.32.93A3,3,0,0,1,728.7,514.08Zm-.49,5.8V540h-5.58V519.88Z"/><path class="cls-2" d="M733.07,540V519.88h5.58v1.85a7.63,7.63,0,0,1,10.64-.27,7.63,7.63,0,0,1,1.87,5.4V540h-5.58V528a3.87,3.87,0,0,0-.83-2.59,3.1,3.1,0,0,0-2.46-1,3.76,3.76,0,0,0-2.31.75,3.4,3.4,0,0,0-1.33,2V540Z"/><path class="cls-2" d="M768,533.43h5.18a8,8,0,0,1-2.86,5.15,9.32,9.32,0,0,1-6.05,1.87,9.23,9.23,0,0,1-7.07-2.9,11.88,11.88,0,0,1,0-15.12,9,9,0,0,1,7-3,8.48,8.48,0,0,1,6.72,2.73,10.52,10.52,0,0,1,2.41,7.26v1.71H759.93a5.6,5.6,0,0,0,1.31,3.54A4,4,0,0,0,764.3,536Q767.36,536,768,533.43ZM764.25,524q-3.42,0-4.18,3.78h7.78a4.09,4.09,0,0,0-1-2.72A3.31,3.31,0,0,0,764.25,524Z"/><path class="cls-2" d="M869.64,529.56a10.8,10.8,0,0,1,2.7-7.6,10,10,0,0,1,13-1,8.08,8.08,0,0,1,2.79,5.27h-5.49a2.9,2.9,0,0,0-1.1-1.83,3.68,3.68,0,0,0-2.23-.65,3.54,3.54,0,0,0-3,1.58,8.29,8.29,0,0,0,0,8.32,3.54,3.54,0,0,0,3,1.58,3.62,3.62,0,0,0,2.23-.66,2.85,2.85,0,0,0,1.1-1.82h5.49a8.1,8.1,0,0,1-2.77,5.27,9,9,0,0,1-6,2,9.08,9.08,0,0,1-7-2.93A10.75,10.75,0,0,1,869.64,529.56Z"/><path class="cls-2" d="M908.08,539.6h-5.36v-1.08a4.93,4.93,0,0,1-1.93,1,9.73,9.73,0,0,1-3,.45,8.13,8.13,0,0,1-5.33-1.76,5.86,5.86,0,0,1-2.14-4.77,5.7,5.7,0,0,1,2.23-4.63,8.57,8.57,0,0,1,5.56-1.8,10.12,10.12,0,0,1,2.61.36,6.34,6.34,0,0,1,2,.81v-1.49a3.14,3.14,0,0,0-.83-2.23,3.27,3.27,0,0,0-2.46-.87,2.84,2.84,0,0,0-3,1.89h-5.31a7.15,7.15,0,0,1,2.76-4.62,9,9,0,0,1,5.7-1.82,8.86,8.86,0,0,1,6.23,2.05,7.35,7.35,0,0,1,2.23,5.69Zm-5.36-5.49v-1.44a2.67,2.67,0,0,0-1.37-1.29,5.42,5.42,0,0,0-2.27-.47,4.76,4.76,0,0,0-2.5.63,2.15,2.15,0,0,0,0,3.69,4.82,4.82,0,0,0,2.53.63,5.42,5.42,0,0,0,2.27-.47A2.65,2.65,0,0,0,902.72,534.11Z"/><path class="cls-2" d="M918.2,537.93v1.67h-5.63V510.35h5.63v10.8a5.85,5.85,0,0,1,2.11-1.49,7.05,7.05,0,0,1,2.93-.63,8.15,8.15,0,0,1,6.68,3,12.7,12.7,0,0,1,0,15,8.16,8.16,0,0,1-6.68,3,7.05,7.05,0,0,1-2.93-.63A5.85,5.85,0,0,1,918.2,537.93Zm0-11.7v6.62a4,4,0,0,0,1.51,1.68,4.05,4.05,0,0,0,2.27.66,4.33,4.33,0,0,0,3.51-1.58,6.14,6.14,0,0,0,1.31-4.05,6.21,6.21,0,0,0-1.31-4.07,4.29,4.29,0,0,0-3.51-1.6,4.18,4.18,0,0,0-2.25.65A4.07,4.07,0,0,0,918.2,526.23Z"/><path class="cls-2" d="M942.05,513.68a3,3,0,0,1-1,2.29,3.28,3.28,0,0,1-2.32.9,3.34,3.34,0,0,1-2.36-.9,3.15,3.15,0,0,1,0-4.57,3.34,3.34,0,0,1,2.34-.92,3.26,3.26,0,0,1,2.32.92A3,3,0,0,1,942.05,513.68Zm-.5,5.8V539.6H936V519.48Z"/><path class="cls-2" d="M946.41,539.6V519.48H952v1.85a7.64,7.64,0,0,1,10.65-.27,7.67,7.67,0,0,1,1.86,5.4V539.6h-5.58v-12a3.8,3.8,0,0,0-.83-2.59,3,3,0,0,0-2.45-1,3.87,3.87,0,0,0-2.32.74,3.5,3.5,0,0,0-1.33,2.05V539.6Z"/><path class="cls-2" d="M981.38,533h5.17a8,8,0,0,1-2.85,5.15,9.41,9.41,0,0,1-6.06,1.87,9.18,9.18,0,0,1-7.06-2.91,10.67,10.67,0,0,1-2.7-7.58A10.81,10.81,0,0,1,970.6,522a9,9,0,0,1,6.95-3,8.52,8.52,0,0,1,6.73,2.72,10.56,10.56,0,0,1,2.41,7.27v1.71H973.28a5.54,5.54,0,0,0,1.3,3.53,3.94,3.94,0,0,0,3.06,1.29Q980.7,535.55,981.38,533Zm-3.78-9.45q-3.42,0-4.19,3.78h7.79a4.14,4.14,0,0,0-1-2.73A3.33,3.33,0,0,0,977.6,523.58Z"/><path class="cls-2" d="M991.46,533.52V524H988.4v-4.5h3.06V514H997v5.44h4.41V524H997v8.82a2,2,0,0,0,2.3,2.3,4.35,4.35,0,0,0,2.43-.68v5a7.89,7.89,0,0,1-3.6.63,7,7,0,0,1-4.91-1.62A6.29,6.29,0,0,1,991.46,533.52Z"/><path class="cls-1" d="M558,621H810a18,18,0,0,1,18,18V756l-30.73-30.73A18,18,0,0,0,784.54,720H558a18,18,0,0,1-18-18V639A18,18,0,0,1,558,621Z"/><path class="cls-1" d="M828,762a6,6,0,0,1-4.25-1.76L793,729.52a11.92,11.92,0,0,0-8.49-3.52H558a24,24,0,0,1-24-24V639a24,24,0,0,1,24-24H810a24,24,0,0,1,24,24V756a6,6,0,0,1-3.71,5.54A5.93,5.93,0,0,1,828,762ZM558,627a12,12,0,0,0-12,12v63a12,12,0,0,0,12,12H784.54a23.85,23.85,0,0,1,17,7L822,741.51V639a12,12,0,0,0-12-12Z"/><path class="cls-2" d="M603.11,651.47l-3.19,4.95a3.4,3.4,0,0,1,2,1.08,3.11,3.11,0,0,1,.76,2.16,3.26,3.26,0,0,1-1,2.45,3.51,3.51,0,0,1-2.5,1,3.42,3.42,0,0,1-2.54-1,3.77,3.77,0,0,1-1-2.81,7.4,7.4,0,0,1,1.48-4l2.48-3.73Zm8.78,0-3.2,4.95a3.4,3.4,0,0,1,2,1.08,3.12,3.12,0,0,1,.77,2.16,3.24,3.24,0,0,1-1,2.45,3.69,3.69,0,0,1-5-.05,3.81,3.81,0,0,1-1-2.81,7.43,7.43,0,0,1,1.49-4l2.47-3.73Z"/><path class="cls-2" d="M612.52,669.06a10.76,10.76,0,0,1,2.7-7.6,9.94,9.94,0,0,1,13-1,8.08,8.08,0,0,1,2.79,5.27h-5.49a2.9,2.9,0,0,0-1.1-1.83,3.68,3.68,0,0,0-2.23-.65,3.52,3.52,0,0,0-3,1.58,8.22,8.22,0,0,0,0,8.32,3.52,3.52,0,0,0,3,1.58,3.62,3.62,0,0,0,2.23-.66,2.85,2.85,0,0,0,1.1-1.82H631a8.1,8.1,0,0,1-2.77,5.27,10,10,0,0,1-13-1A10.71,10.71,0,0,1,612.52,669.06Z"/><path class="cls-2" d="M651,679.1h-5.36V678a4.93,4.93,0,0,1-1.93,1,9.73,9.73,0,0,1-3,.45,8.13,8.13,0,0,1-5.33-1.76,5.85,5.85,0,0,1-2.13-4.77,5.69,5.69,0,0,1,2.22-4.63,8.57,8.57,0,0,1,5.56-1.8,10.12,10.12,0,0,1,2.61.36,6.34,6.34,0,0,1,2,.81v-1.49a3.14,3.14,0,0,0-.83-2.23,3.25,3.25,0,0,0-2.46-.87,2.84,2.84,0,0,0-3,1.89H634a7.15,7.15,0,0,1,2.76-4.62,9,9,0,0,1,5.7-1.82,8.86,8.86,0,0,1,6.23,2.05,7.35,7.35,0,0,1,2.23,5.69Zm-5.36-5.49v-1.44a2.67,2.67,0,0,0-1.37-1.29,5.42,5.42,0,0,0-2.27-.47,4.76,4.76,0,0,0-2.5.63,2.15,2.15,0,0,0,0,3.69,4.76,4.76,0,0,0,2.52.63,5.42,5.42,0,0,0,2.27-.47A2.65,2.65,0,0,0,645.59,673.61Z"/><path class="cls-2" d="M661.07,677.43v1.67h-5.63V649.85h5.63v10.8a5.85,5.85,0,0,1,2.11-1.49,7.05,7.05,0,0,1,2.93-.63,8.15,8.15,0,0,1,6.68,3,12.7,12.7,0,0,1,0,15,8.16,8.16,0,0,1-6.68,3,7.05,7.05,0,0,1-2.93-.63A5.85,5.85,0,0,1,661.07,677.43Zm0-11.7v6.62a4,4,0,0,0,1.51,1.68,4.05,4.05,0,0,0,2.27.66,4.33,4.33,0,0,0,3.51-1.58,6.14,6.14,0,0,0,1.31-4.05,6.21,6.21,0,0,0-1.31-4.07,4.29,4.29,0,0,0-3.51-1.6,4.18,4.18,0,0,0-2.25.65A4.07,4.07,0,0,0,661.07,665.73Z"/><path class="cls-2" d="M684.92,653.18a3,3,0,0,1-1,2.29,3.26,3.26,0,0,1-2.31.9,3.37,3.37,0,0,1-2.37-.9,3.14,3.14,0,0,1,0-4.57,3.32,3.32,0,0,1,2.34-.92,3.23,3.23,0,0,1,2.31.92A3,3,0,0,1,684.92,653.18Zm-.49,5.8V679.1h-5.59V659Z"/><path class="cls-2" d="M689.28,679.1V659h5.58v1.85a7.64,7.64,0,0,1,10.65-.27,7.67,7.67,0,0,1,1.86,5.4V679.1H701.8v-12a3.81,3.81,0,0,0-.84-2.59,3,3,0,0,0-2.45-1,3.87,3.87,0,0,0-2.32.74,3.5,3.5,0,0,0-1.33,2.05V679.1Z"/><path class="cls-2" d="M724.25,672.53h5.17a8,8,0,0,1-2.85,5.15,9.41,9.41,0,0,1-6.06,1.87,9.18,9.18,0,0,1-7.06-2.91,10.67,10.67,0,0,1-2.7-7.58,10.81,10.81,0,0,1,2.72-7.54,9,9,0,0,1,6.95-3,8.52,8.52,0,0,1,6.73,2.72,10.56,10.56,0,0,1,2.41,7.27v1.71H716.15a5.54,5.54,0,0,0,1.3,3.53,3.94,3.94,0,0,0,3.06,1.29Q723.57,675.05,724.25,672.53Zm-3.78-9.45q-3.42,0-4.19,3.78h7.79a4.14,4.14,0,0,0-1-2.73A3.33,3.33,0,0,0,720.47,663.08Z"/><path class="cls-2" d="M734.33,673v-9.54h-3.06V659h3.06v-5.44h5.53V659h4.41v4.5h-4.41v8.82a2,2,0,0,0,2.3,2.3,4.35,4.35,0,0,0,2.43-.68v5a7.89,7.89,0,0,1-3.6.63,7,7,0,0,1-4.91-1.62A6.29,6.29,0,0,1,734.33,673Z"/><path class="cls-2" d="M747.11,662.63l3.19-5a3.4,3.4,0,0,1-2-1.08,3.11,3.11,0,0,1-.76-2.16,3.29,3.29,0,0,1,1-2.46,3.51,3.51,0,0,1,2.5-1,3.41,3.41,0,0,1,2.54,1,3.77,3.77,0,0,1,1,2.81,7.4,7.4,0,0,1-1.48,4l-2.48,3.74Zm8.77,0,3.2-5a3.4,3.4,0,0,1-2-1.08,3.12,3.12,0,0,1-.77-2.16,3.26,3.26,0,0,1,1-2.46,3.72,3.72,0,0,1,5,0,3.81,3.81,0,0,1,1,2.81,7.43,7.43,0,0,1-1.49,4l-2.47,3.74Z"/><path class="cls-2" d="M823.5,757.5a6,6,0,0,1-4.25-1.76L788.53,725A11.92,11.92,0,0,0,780,721.5H553.5a24,24,0,0,1-24-24v-63a24,24,0,0,1,24-24h252a24,24,0,0,1,24,24v117a6,6,0,0,1-3.71,5.54A5.93,5.93,0,0,1,823.5,757.5Zm-270-135a12,12,0,0,0-12,12v63a12,12,0,0,0,12,12H780a23.85,23.85,0,0,1,17,7L817.5,737V634.5a12,12,0,0,0-12-12Z"/><path class="cls-1" d="M598.5,760.5h-252a18,18,0,0,0-18,18v117l30.72-30.73A18,18,0,0,1,372,859.5H598.5a18,18,0,0,0,18-18v-63A18,18,0,0,0,598.5,760.5Z"/><path class="cls-1" d="M328.49,901.5a5.93,5.93,0,0,1-2.29-.46,6,6,0,0,1-3.7-5.54v-117a24,24,0,0,1,24-24h252a24,24,0,0,1,24,24v63a24,24,0,0,1-24,24H372a11.93,11.93,0,0,0-8.48,3.51l-30.73,30.73A6,6,0,0,1,328.49,901.5Zm18-135a12,12,0,0,0-12,12V881L355,860.53a23.85,23.85,0,0,1,17-7H598.5a12,12,0,0,0,12-12v-63a12,12,0,0,0-12-12Z"/><path class="cls-2" d="M404.5,791l-3.19,4.95a3.52,3.52,0,0,1,2,1.08,3.13,3.13,0,0,1,.76,2.16,3.25,3.25,0,0,1-1,2.46,3.51,3.51,0,0,1-2.5,1,3.43,3.43,0,0,1-2.54-1,3.77,3.77,0,0,1-1-2.81,7.4,7.4,0,0,1,1.48-4L401,791Zm8.78,0-3.2,4.95a3.52,3.52,0,0,1,2,1.08,3.14,3.14,0,0,1,.77,2.16,3.26,3.26,0,0,1-1,2.46,3.72,3.72,0,0,1-5-.05,3.81,3.81,0,0,1-1-2.81,7.43,7.43,0,0,1,1.49-4l2.47-3.74Z"/><path class="cls-2" d="M432,818.59H426.6v-1.08a4.73,4.73,0,0,1-1.94,1,9.62,9.62,0,0,1-3,.46,8.11,8.11,0,0,1-5.33-1.76,5.83,5.83,0,0,1-2.14-4.77,5.7,5.7,0,0,1,2.23-4.64A8.61,8.61,0,0,1,422,806a10.57,10.57,0,0,1,2.61.36,6.86,6.86,0,0,1,2,.81v-1.48a3.11,3.11,0,0,0-.84-2.23,3.23,3.23,0,0,0-2.45-.88,2.88,2.88,0,0,0-3,1.89H415a7.17,7.17,0,0,1,2.77-4.61,8.94,8.94,0,0,1,5.69-1.82,8.83,8.83,0,0,1,6.23,2.05,7.32,7.32,0,0,1,2.23,5.69Zm-5.35-5.49v-1.44a2.64,2.64,0,0,0-1.38-1.28,5.36,5.36,0,0,0-2.27-.47,4.81,4.81,0,0,0-2.5.63,2.16,2.16,0,0,0,0,3.69,4.76,4.76,0,0,0,2.52.63,5.36,5.36,0,0,0,2.27-.47A2.65,2.65,0,0,0,426.6,813.1Z"/><path class="cls-2" d="M442.08,789.34v29.25H436.5V789.34Z"/><path class="cls-2" d="M452.52,816.93V826h-5.58V798.48h5.58v1.66a6,6,0,0,1,2.11-1.48,7.05,7.05,0,0,1,2.93-.63,8.17,8.17,0,0,1,6.7,3,12.52,12.52,0,0,1,0,15,8.2,8.2,0,0,1-6.7,3,7.05,7.05,0,0,1-2.93-.63A5.72,5.72,0,0,1,452.52,816.93Zm0-11.7v6.61a4,4,0,0,0,1.53,1.69,4.09,4.09,0,0,0,2.25.65,4.32,4.32,0,0,0,3.51-1.57,6.13,6.13,0,0,0,1.3-4.05,6.21,6.21,0,0,0-1.3-4.07,4.29,4.29,0,0,0-3.51-1.6,4.06,4.06,0,0,0-2.23.65A4.41,4.41,0,0,0,452.52,805.23Z"/><path class="cls-2" d="M476.37,792.67a3,3,0,0,1-1,2.3,3.49,3.49,0,0,1-4.68,0,3.15,3.15,0,0,1,0-4.57,3.34,3.34,0,0,1,2.34-.92,3.27,3.27,0,0,1,2.32.92A3.05,3.05,0,0,1,476.37,792.67Zm-.5,5.81v20.11h-5.58V798.48Z"/><path class="cls-2" d="M480.73,818.59V798.48h5.58v1.84a7.65,7.65,0,0,1,10.64-.27,7.66,7.66,0,0,1,1.87,5.41v13.13h-5.58v-12a3.83,3.83,0,0,0-.83-2.58,3,3,0,0,0-2.45-1,3.84,3.84,0,0,0-2.32.74,3.45,3.45,0,0,0-1.33,2.05v12.73Z"/><path class="cls-2" d="M515.7,812h5.17a8,8,0,0,1-2.86,5.15A9.36,9.36,0,0,1,512,819a9.17,9.17,0,0,1-7.06-2.9,11.9,11.9,0,0,1,0-15.12,9,9,0,0,1,6.95-3,8.54,8.54,0,0,1,6.73,2.72A10.61,10.61,0,0,1,521,808v1.71H507.6a5.54,5.54,0,0,0,1.3,3.53,3.93,3.93,0,0,0,3.06,1.28C514,814.54,515.25,813.71,515.7,812Zm-3.78-9.46q-3.42,0-4.19,3.78h7.79a4.13,4.13,0,0,0-1-2.72A3.34,3.34,0,0,0,511.92,802.57Z"/><path class="cls-2" d="M522.72,802.12l3.19-5a3.3,3.3,0,0,1-2-1.08,3.1,3.1,0,0,1-.76-2.16,3.24,3.24,0,0,1,1-2.45,3.5,3.5,0,0,1,2.5-1,3.45,3.45,0,0,1,2.54,1,3.81,3.81,0,0,1,1,2.81,7.4,7.4,0,0,1-1.48,4l-2.48,3.73Zm8.77,0,3.2-5a3.3,3.3,0,0,1-2-1.08,3.06,3.06,0,0,1-.77-2.16,3.28,3.28,0,0,1,1-2.45,3.51,3.51,0,0,1,2.5-1,3.42,3.42,0,0,1,2.54,1,3.77,3.77,0,0,1,1,2.81,7.43,7.43,0,0,1-1.49,4l-2.47,3.73Z"/><path class="cls-2" d="M324,897a5.93,5.93,0,0,1-2.29-.46A6,6,0,0,1,318,891V774a24,24,0,0,1,24-24H594a24,24,0,0,1,24,24v63a24,24,0,0,1-24,24H367.45a11.93,11.93,0,0,0-8.48,3.51l-30.73,30.73A6,6,0,0,1,324,897Zm18-135a12,12,0,0,0-12,12V876.51L350.48,856a23.85,23.85,0,0,1,17-7H594a12,12,0,0,0,12-12V774a12,12,0,0,0-12-12Z"/></svg>