<svg id="OUTLINES" xmlns="http://www.w3.org/2000/svg" viewBox="0 0 1152 1008"><defs><style>.cls-1{fill:#fff;}.cls-2{fill:#000f7d;}</style></defs><title>zero-knowledge-sharing</title><rect class="cls-1" x="616.49" y="482.1" width="432" height="99" rx="18"/><path class="cls-1" d="M1030.49,587.1h-396a24,24,0,0,1-24-24v-63a24,24,0,0,1,24-24h396a24,24,0,0,1,24,24v63A24,24,0,0,1,1030.49,587.1Zm-396-99a12,12,0,0,0-12,12v63a12,12,0,0,0,12,12h396a12,12,0,0,0,12-12v-63a12,12,0,0,0-12-12Z"/><rect class="cls-1" x="112.51" y="482.1" width="432" height="99" rx="18"/><path class="cls-1" d="M526.51,587.1h-396a24,24,0,0,1-24-24v-63a24,24,0,0,1,24-24h396a24,24,0,0,1,24,24v63A24,24,0,0,1,526.51,587.1Zm-396-99a12,12,0,0,0-12,12v63a12,12,0,0,0,12,12h396a12,12,0,0,0,12-12v-63a12,12,0,0,0-12-12Z"/><path class="cls-2" d="M85.49,847.94a5,5,0,0,1-5-5V709.7a149.58,149.58,0,0,1,44.09-106.44L154.83,573a5,5,0,0,1,7.07,7.07l-30.25,30.26A139.61,139.61,0,0,0,90.49,709.7V842.94A5,5,0,0,1,85.49,847.94Z"/><path class="cls-2" d="M282.9,851.5h0a5,5,0,0,1-5-5V820a5,5,0,0,1,2.79-4.48,68,68,0,0,0,38.11-61.33V725a5,5,0,0,1,10,0v29.19A77.91,77.91,0,0,1,287.9,823V846.5A5,5,0,0,1,282.9,851.5Z"/><path class="cls-2" d="M467.8,482.55h-288a5,5,0,0,1-5-5v-243a23,23,0,0,1,23-23h252a23,23,0,0,1,23,23V477.55A5,5,0,0,1,467.8,482.55Zm-283-10h278v-238a13,13,0,0,0-13-13h-252a13,13,0,0,0-13,13Z"/><path class="cls-2" d="M449.8,725.5H215.36a5,5,0,0,1-3.72-8.35l61.6-68.4A28.6,28.6,0,0,0,254,600.6l-70.69,70.7a5,5,0,0,1-8.54-3.54V576.55a5,5,0,0,1,5-5h288a5,5,0,0,1,5,5v126A23,23,0,0,1,449.8,725.5Zm-223.21-10H449.8a13,13,0,0,0,13-13v-121h-278v74.14L248.47,592a5,5,0,0,1,3.48-1.46h.46a38.59,38.59,0,0,1,28.19,65Z"/><path class="cls-2" d="M1066.3,847.94a5,5,0,0,1-5-5V709.7a139.56,139.56,0,0,0-41.16-99.36l-30.25-30.26A5,5,0,0,1,997,573l30.25,30.25A149.54,149.54,0,0,1,1071.3,709.7V842.94A5,5,0,0,1,1066.3,847.94Z"/><path class="cls-2" d="M868.9,851.5a5,5,0,0,1-5-5V823A77.9,77.9,0,0,1,823,754.19V723.58a5,5,0,0,1,10,0v30.61a68,68,0,0,0,38.12,61.33A5,5,0,0,1,873.9,820v26.5A5,5,0,0,1,868.9,851.5Z"/><path class="cls-2" d="M828,694a23,23,0,1,1,23-23A23,23,0,0,1,828,694Zm0-36a13,13,0,1,0,13,13A13,13,0,0,0,828,658Z"/><path class="cls-2" d="M977,477.55H967v-243a13,13,0,0,0-13-13H702a13,13,0,0,0-13,13V477.55H679v-243a23,23,0,0,1,23-23H954a23,23,0,0,1,23,23Z"/><path class="cls-2" d="M936.44,725.5H702a23,23,0,0,1-23-23v-126a5,5,0,0,1,5-5H972a5,5,0,0,1,5,5v91.21a5,5,0,0,1-8.53,3.54l-70.69-70.7a28.59,28.59,0,0,0-19.28,48.07l61.67,68.48a5,5,0,0,1-3.72,8.35ZM689,581.55v121a13,13,0,0,0,13,13H925.21l-54.08-60.06a38.59,38.59,0,0,1,28.26-64.88h.46a5,5,0,0,1,3.48,1.46L967,655.69V581.55Z"/><path class="cls-2" d="M1026,582.55H630a24,24,0,0,1-24-24v-63a24,24,0,0,1,24-24h396a24,24,0,0,1,24,24v63A24,24,0,0,1,1026,582.55Zm-396-99a12,12,0,0,0-12,12v63a12,12,0,0,0,12,12h396a12,12,0,0,0,12-12v-63a12,12,0,0,0-12-12Z"/><path class="cls-2" d="M521.8,582.55h-396a24,24,0,0,1-24-24v-63a24,24,0,0,1,24-24h396a24,24,0,0,1,24,24v63A24,24,0,0,1,521.8,582.55Zm-396-99a12,12,0,0,0-12,12v63a12,12,0,0,0,12,12h396a12,12,0,0,0,12-12v-63a12,12,0,0,0-12-12Z"/><path class="cls-2" d="M232.34,403.79v27.63h-5.62V410.36l-6.44,3.2v-5.63l8.42-4.14Z"/><path class="cls-2" d="M256.37,410.77h-5.58a3.51,3.51,0,0,0-3.64-2.7,4.44,4.44,0,0,0-3.87,2.34,9.86,9.86,0,0,0-1.49,5.4v.4A5,5,0,0,1,244,414.1a7.68,7.68,0,0,1,3.56-.81,8.54,8.54,0,0,1,6.52,2.63,9.09,9.09,0,0,1,2.48,6.46,9.36,9.36,0,0,1-2.63,6.77,9.46,9.46,0,0,1-7.14,2.72,9,9,0,0,1-8.37-5,17.34,17.34,0,0,1-1.93-8.69q0-6.57,2.86-10.71a8.9,8.9,0,0,1,7.71-4.14,8.69,8.69,0,0,1,9.27,7.43Zm-14.08,11.74a4.6,4.6,0,0,0,1.26,3.36,4.48,4.48,0,0,0,3.33,1.28,4.42,4.42,0,0,0,3.26-1.28,4.54,4.54,0,0,0,1.28-3.36,4.77,4.77,0,0,0-1.26-3.46,4.35,4.35,0,0,0-3.28-1.31,4.42,4.42,0,0,0-3.33,1.31A4.77,4.77,0,0,0,242.29,422.51Z"/><path class="cls-2" d="M268.21,422.65h5.94q.36,4,4.05,4,4.28,0,4.27-5.26v-17.6h5.76v17.64q0,5.13-2.7,7.79a11.38,11.38,0,0,1-14.44.13A9.81,9.81,0,0,1,268.21,422.65Z"/><path class="cls-2" d="M310.69,411.31v20.11h-5.58v-1.84a6.93,6.93,0,0,1-5.4,2.29,6.71,6.71,0,0,1-5.2-2,7.63,7.63,0,0,1-1.87-5.4V411.31h5.58v12a3.88,3.88,0,0,0,.81,2.61,3,3,0,0,0,2.43.95,3.76,3.76,0,0,0,2.3-.74,3.5,3.5,0,0,0,1.3-2.05V411.31Z"/><path class="cls-2" d="M315.5,431.42V411.31h5.58v1.84a7.65,7.65,0,0,1,10.64-.27,7.63,7.63,0,0,1,1.87,5.4v13.14H328v-12a3.83,3.83,0,0,0-.83-2.58,3,3,0,0,0-2.45-1,3.84,3.84,0,0,0-2.32.74,3.45,3.45,0,0,0-1.33,2.05v12.73Z"/><path class="cls-2" d="M358.16,403.79v27.63h-5.62V410.36l-6.44,3.2v-5.63l8.42-4.14Z"/><path class="cls-2" d="M362.48,424.45h5.58a3.51,3.51,0,0,0,3.65,2.7,4.47,4.47,0,0,0,3.87-2.34,9.86,9.86,0,0,0,1.48-5.4V419a5,5,0,0,1-2.25,2.12,7.65,7.65,0,0,1-3.56.81,8.56,8.56,0,0,1-6.52-2.63,9.09,9.09,0,0,1-2.48-6.46,9.33,9.33,0,0,1,2.64-6.77,9.43,9.43,0,0,1,7.13-2.73,9,9,0,0,1,8.37,5,17.3,17.3,0,0,1,1.94,8.68q0,6.57-2.86,10.71a8.93,8.93,0,0,1-7.72,4.14,9.38,9.38,0,0,1-6.17-1.93A9.47,9.47,0,0,1,362.48,424.45Zm14.09-11.75a4.62,4.62,0,0,0-1.26-3.35,4.89,4.89,0,0,0-6.6,0,4.55,4.55,0,0,0-1.28,3.35,4.79,4.79,0,0,0,1.26,3.47,4.35,4.35,0,0,0,3.29,1.3,4.44,4.44,0,0,0,3.33-1.3A4.83,4.83,0,0,0,376.57,412.7Z"/><path class="cls-2" d="M385.43,424.45H391a3.51,3.51,0,0,0,3.65,2.7,4.44,4.44,0,0,0,3.87-2.34,9.86,9.86,0,0,0,1.48-5.4V419a5,5,0,0,1-2.25,2.12,7.64,7.64,0,0,1-3.55.81,8.57,8.57,0,0,1-6.53-2.63,9.08,9.08,0,0,1-2.47-6.46,9.32,9.32,0,0,1,2.63-6.77,9.43,9.43,0,0,1,7.13-2.73,9,9,0,0,1,8.37,5,17.3,17.3,0,0,1,1.94,8.68q0,6.57-2.86,10.71a8.93,8.93,0,0,1-7.72,4.14,9.33,9.33,0,0,1-6.16-1.93A9.43,9.43,0,0,1,385.43,424.45Zm14.09-11.75a4.62,4.62,0,0,0-1.26-3.35,4.89,4.89,0,0,0-6.6,0,4.55,4.55,0,0,0-1.28,3.35,4.79,4.79,0,0,0,1.26,3.47,4.37,4.37,0,0,0,3.29,1.3,4.43,4.43,0,0,0,3.33-1.3A4.83,4.83,0,0,0,399.52,412.7Z"/><path class="cls-2" d="M415.26,419.59v-4.46h1.58a4.69,4.69,0,0,0,3-.9,3,3,0,0,0,1.15-2.56,3.29,3.29,0,0,0-1-2.45,3.53,3.53,0,0,0-2.63-1,3.86,3.86,0,0,0-2.86,1.06,4.19,4.19,0,0,0-1.19,2.72h-5.58a9.65,9.65,0,0,1,3-6.23,10.52,10.52,0,0,1,13.24-.23,7.54,7.54,0,0,1,2.42,5.83,7.11,7.11,0,0,1-.94,3.62,5.62,5.62,0,0,1-2.43,2.36,6.08,6.08,0,0,1,2.83,2.43,6.78,6.78,0,0,1,1,3.6,8,8,0,0,1-2.57,6.08,9.72,9.72,0,0,1-6.89,2.38,10.44,10.44,0,0,1-7.2-2.47,9,9,0,0,1-3-6.53h5.67a4.84,4.84,0,0,0,1.37,3,4.36,4.36,0,0,0,3.13,1.1,4.16,4.16,0,0,0,2.88-1,3.4,3.4,0,0,0,1.12-2.64,3.36,3.36,0,0,0-1.21-2.72,4.78,4.78,0,0,0-3.15-1Z"/><path class="cls-2" d="M323.8,694a23,23,0,1,1,23-23A23,23,0,0,1,323.8,694Zm0-36a13,13,0,1,0,13,13A13,13,0,0,0,323.8,658Z"/><path class="cls-2" d="M323.8,319.71a25.83,25.83,0,1,1,25.84-25.83A25.86,25.86,0,0,1,323.8,319.71Zm0-42.66a16.83,16.83,0,1,0,16.84,16.83A16.85,16.85,0,0,0,323.8,277.05Z"/><path class="cls-2" d="M362.47,352.19a4.49,4.49,0,0,1-3.36-1.5,47.24,47.24,0,0,0-70.61,0,4.5,4.5,0,0,1-6.72-6,56.25,56.25,0,0,1,84.05,0,4.5,4.5,0,0,1-3.36,7.49Z"/><path class="cls-2" d="M323.8,261.55a51.75,51.75,0,1,1-51.75,51.75,51.75,51.75,0,0,1,51.75-51.75m0-9a60.75,60.75,0,1,0,60.75,60.75,60.82,60.82,0,0,0-60.75-60.75Z"/><path class="cls-2" d="M828,446.55a97.25,97.25,0,1,1,97.25-97.25A97.37,97.37,0,0,1,828,446.55Zm0-184.5a87.25,87.25,0,1,0,87.25,87.25A87.35,87.35,0,0,0,828,262.05Z"/><path class="cls-2" d="M830.11,347.94a22.35,22.35,0,1,1,22.34-22.34A22.36,22.36,0,0,1,830.11,347.94Zm0-34.69a12.35,12.35,0,1,0,12.34,12.35A12.36,12.36,0,0,0,830.11,313.25Z"/><path class="cls-2" d="M830.11,395.35a28.71,28.71,0,1,1,28.7-28.71A28.73,28.73,0,0,1,830.11,395.35Zm0-47.41a18.71,18.71,0,1,0,18.7,18.7A18.72,18.72,0,0,0,830.11,347.94Z"/><path class="cls-2" d="M788.26,393.6a5,5,0,0,1-5-5V310a5,5,0,0,1,10,0v78.6A5,5,0,0,1,788.26,393.6Z"/><path class="cls-2" d="M765.79,337.47a5,5,0,0,1-3.53-1.47,5,5,0,0,1,0-7.07l22.47-22.47a5,5,0,0,1,7.07,7.07L769.33,336A5,5,0,0,1,765.79,337.47Z"/><path class="cls-2" d="M897.1,345.86H863.53a5,5,0,0,1,0-10H897.1a5,5,0,0,1,0,10Z"/><path class="cls-2" d="M880.32,362.65a5,5,0,0,1-5-5V324.08a5,5,0,0,1,10,0v33.57A5,5,0,0,1,880.32,362.65Z"/><path class="cls-2" d="M248.34,531H242.8v9.59h-5.71V512.92h11.25a10.25,10.25,0,0,1,7.09,2.36,9.77,9.77,0,0,1,0,13.34A10.29,10.29,0,0,1,248.34,531Zm4-9a4,4,0,0,0-1.13-3,4.47,4.47,0,0,0-3.28-1.11H242.8v8.24H248a4.44,4.44,0,0,0,3.28-1.13A4,4,0,0,0,252.39,522Z"/><path class="cls-2" d="M273.9,520.34v5.58a5.34,5.34,0,0,0-2.79-.67,4.18,4.18,0,0,0-2.48.74,3.44,3.44,0,0,0-1.35,2.09v12.47H261.7V520.43h5.58v2a4.86,4.86,0,0,1,4.5-2.43A4.55,4.55,0,0,1,273.9,520.34Z"/><path class="cls-2" d="M295.45,530.51a10.6,10.6,0,0,1-2.74,7.56,10.09,10.09,0,0,1-14.22,0,11.82,11.82,0,0,1,0-15.16,10.09,10.09,0,0,1,14.22,0A10.67,10.67,0,0,1,295.45,530.51Zm-5.53,0a7,7,0,0,0-1.15-4.2,3.94,3.94,0,0,0-6.34,0,8.19,8.19,0,0,0,0,8.37,4,4,0,0,0,6.34,0A7,7,0,0,0,289.92,530.51Z"/><path class="cls-2" d="M309.54,540.55h-5.4l-7.6-20.12h5.84L307,533.8l4.55-13.37h5.62Z"/><path class="cls-2" d="M331.81,534H337a8,8,0,0,1-2.86,5.15,10.35,10.35,0,0,1-13.12-1A11.88,11.88,0,0,1,321,523a9,9,0,0,1,6.95-3,8.51,8.51,0,0,1,6.73,2.73,10.56,10.56,0,0,1,2.4,7.26v1.71H323.71a5.58,5.58,0,0,0,1.31,3.54,4,4,0,0,0,3.06,1.28Q331.14,536.5,331.81,534ZM328,524.53q-3.42,0-4.18,3.78h7.78a4.09,4.09,0,0,0-1-2.72A3.31,3.31,0,0,0,328,524.53Z"/><path class="cls-2" d="M366.73,540.55h-5.35v-1.08a5,5,0,0,1-1.94,1,9.62,9.62,0,0,1-3,.45,8.13,8.13,0,0,1-5.33-1.76,5.85,5.85,0,0,1-2.14-4.77,5.7,5.7,0,0,1,2.23-4.63,8.57,8.57,0,0,1,5.56-1.8,10.12,10.12,0,0,1,2.61.36,6.34,6.34,0,0,1,2,.81v-1.49a3.1,3.1,0,0,0-.83-2.22,3.23,3.23,0,0,0-2.46-.88,2.86,2.86,0,0,0-3,1.89h-5.31a7.16,7.16,0,0,1,2.77-4.61,10.15,10.15,0,0,1,11.93.22,7.36,7.36,0,0,1,2.22,5.69Zm-5.35-5.49v-1.44a2.62,2.62,0,0,0-1.37-1.28,5.29,5.29,0,0,0-2.28-.48,4.75,4.75,0,0,0-2.49.63,2.15,2.15,0,0,0,0,3.69,4.76,4.76,0,0,0,2.52.63,5.29,5.29,0,0,0,2.28-.47A2.62,2.62,0,0,0,361.38,535.06Z"/><path class="cls-2" d="M384.1,539.2V538a6.05,6.05,0,0,1-5,2.07,8.28,8.28,0,0,1-6.66-2.93,11.53,11.53,0,0,1,0-14.26,8.28,8.28,0,0,1,6.66-2.93,6.2,6.2,0,0,1,5,2v-1.58h5.54v17.91c0,3.33-.9,5.85-2.7,7.54a10,10,0,0,1-7.16,2.54,10.34,10.34,0,0,1-6.41-1.89,7.57,7.57,0,0,1-2.95-5.26h5.4q.68,2.84,4,2.83Q384.1,544.1,384.1,539.2Zm0-5.9v-6.57a4.14,4.14,0,0,0-3.78-2.07,4.3,4.3,0,0,0-3.46,1.49A5.78,5.78,0,0,0,375.6,530a5.85,5.85,0,0,0,1.26,3.89,4.25,4.25,0,0,0,3.46,1.51,4.2,4.2,0,0,0,2.23-.61A4.32,4.32,0,0,0,384.1,533.3Z"/><path class="cls-2" d="M406.74,534h5.17a8,8,0,0,1-2.86,5.15A9.31,9.31,0,0,1,403,541a9.21,9.21,0,0,1-7.06-2.9A11.9,11.9,0,0,1,396,523a9,9,0,0,1,7-3,8.51,8.51,0,0,1,6.73,2.73,10.57,10.57,0,0,1,2.41,7.26v1.71H398.64a5.57,5.57,0,0,0,1.3,3.54A4,4,0,0,0,403,536.5Q406.06,536.5,406.74,534ZM403,524.53q-3.42,0-4.19,3.78h7.79a4.09,4.09,0,0,0-1-2.72A3.31,3.31,0,0,0,403,524.53Z"/><path class="cls-2" d="M817.49,554.06a6,6,0,0,1-4.25-1.76l-21-21a6,6,0,0,1,8.49-8.48l16.77,16.76,37.78-37.77a6,6,0,1,1,8.48,8.48l-42,42A6,6,0,0,1,817.49,554.06Z"/><path class="cls-2" d="M938,823a5,5,0,0,1-3.79-1.74,78.37,78.37,0,0,1-2.79-98.86l-60.29-66.95a38.6,38.6,0,0,1,28.27-64.89h.47a5,5,0,0,1,3.47,1.46L1009.92,698.6a5,5,0,1,1-7.08,7.07L897.78,600.6a28.59,28.59,0,0,0-19.27,48.07l63.22,70.21a5,5,0,0,1,.07,6.61,68.35,68.35,0,0,0,0,89.23A5,5,0,0,1,938,823Z"/><path class="cls-2" d="M213.81,823a5,5,0,0,1-3.78-8.27,68.38,68.38,0,0,0,0-89.23,5,5,0,0,1,.07-6.61l63.15-70.14a28.59,28.59,0,0,0-19.2-48.14L149,705.67a5,5,0,0,1-7.07-7.07L248.48,592a5,5,0,0,1,3.46-1.46h.48a38.6,38.6,0,0,1,28.2,65l-60.23,66.88a78.37,78.37,0,0,1-2.79,98.86A5,5,0,0,1,213.81,823Z"/></svg>