<svg id="Layer_1" data-name="Layer 1" xmlns="http://www.w3.org/2000/svg" viewBox="0 0 643.73 382.48"><defs><style>.cls-1{fill:#ddd;}.cls-2,.cls-8{fill:#fff;}.cls-3{font-size:10.03px;white-space:pre;}.cls-3,.cls-7{fill:#1d1d1b;}.cls-3,.cls-4{font-family:Calibre;}.cls-4{font-size:8px;}.cls-10,.cls-11,.cls-5{fill:none;}.cls-5,.cls-8{stroke:#1d1d1b;stroke-miterlimit:10;}.cls-6{fill:#1e1e1e;}.cls-9{fill:#2341c1;}.cls-10,.cls-11{stroke:#2341c1;stroke-linecap:round;stroke-linejoin:round;}.cls-11{stroke-dasharray:4.02 4.02;}</style></defs><title>behaviour-biometric</title><path class="cls-1" d="M240,37.71h-8a3.74,3.74,0,0,1-3.31-2.38L225.55,26a3.74,3.74,0,0,0-3.31-2.38H153.5a4.36,4.36,0,0,0-3.59,2.26l-4.6,9.6a4.36,4.36,0,0,1-3.59,2.26H78V55.55H563.45V37.71H240Z"/><circle class="cls-1" cx="86.39" cy="30.72" r="3.39"/><circle class="cls-1" cx="98.93" cy="30.72" r="3.39"/><circle class="cls-1" cx="110.6" cy="30.72" r="3.39"/><path class="cls-2" d="M122.86,41.31H378.18a4.61,4.61,0,0,1,4.61,4.61v1.68a4.62,4.62,0,0,1-4.62,4.62H122.86a4.61,4.61,0,0,1-4.61-4.61V45.93a4.61,4.61,0,0,1,4.61-4.61Z"/><text class="cls-3" transform="translate(88.65 49.78)">&lt;   &gt;</text><text class="cls-4" transform="translate(123.93 49.29)">ww<tspan x="10.06" y="0">w</tspan><tspan x="14.86" y="0">.ban</tspan><tspan x="27.75" y="0">k</tspan><tspan x="31.58" y="0">.</tspan><tspan x="32.85" y="0">c</tspan><tspan x="36.4" y="0">om</tspan></text><path class="cls-5" d="M561.42,9.53H81.3a15.24,15.24,0,0,0-15.2,15.2V344.06a15.24,15.24,0,0,0,15.2,15.2H561.42a15.24,15.24,0,0,0,15.2-15.2V24.72A15.24,15.24,0,0,0,561.42,9.53Zm2,337.33H78V22.52H563.45V346.86Z"/><polygon class="cls-6" points="77.96 346.84 199.25 346.3 320.54 345.99 441.84 345.88 563.13 345.91 562.2 346.84 562.27 265.76 562.47 184.68 562.74 103.6 563.13 22.52 563.52 103.6 563.79 184.68 563.98 265.76 564.06 346.84 564.06 347.77 563.13 347.77 441.84 347.81 320.54 347.7 199.25 347.39 77.96 346.84"/><path class="cls-7" d="M388.8,353.7l97.53,2.63,47.24,1.38,25.79,0.75,1.65,0h0.79c0.28,0,.55,0,0.8,0a14.47,14.47,0,0,0,3.09-.6,14.55,14.55,0,0,0,9.1-8.41,14.47,14.47,0,0,0,.86-3.11,17.87,17.87,0,0,0,.18-3.29c0-36.59-.09-75.61-0.14-114.63s0-78,0-114.63c0-18.29,0-36,.05-52.74l0-24.43q0-5.92,0-11.63a14.42,14.42,0,0,0-12.27-14.49,16,16,0,0,0-2.48-.16l-2.58,0-5.07,0-18.94-.14c-11.89-.07-22.26-0.16-30.79-0.29L476.8,9.53l26.83-.34c8.54-.13,18.9-0.22,30.79-0.29l18.94-.14,5.07,0,2.58,0a17,17,0,0,1,2.72.16A16.1,16.1,0,0,1,577.48,25q0,5.71,0,11.63,0,11.83,0,24.43c0,16.77,0,34.45.05,52.74,0,36.59,0,75.61,0,114.63s-0.1,78-.14,114.63a19.47,19.47,0,0,1-.22,3.54,15.94,15.94,0,0,1-14.52,13.32c-0.3,0-.59,0-0.86,0H561l-1.65-.06L533.52,359l-47.23-1.66Z"/><path class="cls-8" d="M634.41,365.74h0a7.25,7.25,0,0,1-7.22,7.22H15.54a7.25,7.25,0,0,1-7.22-7.22h0"/><path class="cls-8" d="M634.41,366.29V353.7H372.56v1.44a4.21,4.21,0,0,1-4.2,4.2h-94a4.21,4.21,0,0,1-4.2-4.2V353.7H8.31v12"/><path class="cls-8" d="M274.37,359.34h94a4.21,4.21,0,0,0,4.2-4.2V353.7H270.17v1.44A4.21,4.21,0,0,0,274.37,359.34Z"/><path class="cls-8" d="M372.56,353.7v1.44a4.21,4.21,0,0,1-4.2,4.2h-94a4.21,4.21,0,0,1-4.2-4.2V353.7H8.31v12"/><path class="cls-7" d="M372.56,353.7l65.46-.43,65.46-.27,65.46-.17,65.46-.08a1,1,0,0,1,1,1h0l0,8.69v3.26a9.12,9.12,0,0,1-.09,1.18,8.21,8.21,0,0,1-6.26,6.85,7.84,7.84,0,0,1-1.21.18l-0.61,0H615.82l-34.75,0-69.5-.18-69.5-.27-69.5-.42,69.5-.42,69.5-.27,69.5-.18,34.75,0h11.4l0.47,0a6,6,0,0,0,.93-0.15,6.31,6.31,0,0,0,4.75-5.23,7.41,7.41,0,0,0,.07-1v-3.26l0-8.69,1,1L569,354.58l-65.46-.17L438,354.13Z"/><path class="cls-8" d="M274.37,359.34h94a4.21,4.21,0,0,0,4.2-4.2V353.7H270.17v1.44A4.21,4.21,0,0,0,274.37,359.34Z"/><rect class="cls-1" x="127.8" y="187.24" width="178.86" height="137.35"/><rect class="cls-1" x="333.66" y="187.24" width="179" height="137.35"/><rect class="cls-1" x="129.3" y="101.24" width="66" height="66"/><rect class="cls-1" x="233.82" y="101.24" width="279.47" height="66"/><polygon class="cls-9" points="199.02 223.19 199.02 240.81 203.41 234.91 207.68 242.17 210.33 240.65 205.85 233.31 214.18 233.31 199.02 223.19"/><path class="cls-10" d="M210.93,243.91s0.56,0.45,1.6,1.2"/><path class="cls-11" d="M215.85,247.38c13.25,8.6,50.83,28,82.08-3.21,36.62-36.62,29.91-94.54,75.59-111.24,43-15.73,67.24,56,102.84,37.44"/><path class="cls-10" d="M478.13,169.37q0.84-.5,1.69-1.08"/></svg>