<?xml version="1.0" encoding="utf-8"?>
<!-- Generator: Adobe Illustrator 19.2.1, SVG Export Plug-In . SVG Version: 6.00 Build 0)  -->
<svg version="1.1" id="Layer_1" xmlns="http://www.w3.org/2000/svg" xmlns:xlink="http://www.w3.org/1999/xlink" x="0px" y="0px"
	 viewBox="0 0 517 249.6" style="enable-background:new 0 0 517 249.6;" xml:space="preserve">
<style type="text/css">
	.st0{fill:#3A50A2;}
	.st1{fill:#FFFFFF;}
	.st2{fill:none;stroke:#1D1D1B;stroke-width:3;stroke-linecap:round;stroke-linejoin:round;stroke-miterlimit:10;}
	.st3{fill:none;stroke:#FFFFFF;stroke-miterlimit:10;}
	.st4{fill:none;}
	.st5{fill:#B2B2B2;stroke:#000000;stroke-width:0.75;stroke-miterlimit:10;}
	.st6{fill:none;stroke:#FFFFFF;stroke-linecap:round;stroke-linejoin:round;}
	.st7{fill:none;stroke:#FFFFFF;stroke-width:2;stroke-linecap:round;stroke-linejoin:round;}
	.st8{fill:none;stroke:#1D1D1B;stroke-width:2;stroke-miterlimit:10;}
	.st9{fill:#010101;}
	.st10{fill:none;stroke:#010101;stroke-width:0.75;stroke-miterlimit:10;}
	.st11{enable-background:new    ;}
	.st12{fill:#2341C1;}
	.st13{fill:#1E1E1E;}
	.st14{fill:none;stroke:#1E1E1E;stroke-width:2;stroke-linecap:round;stroke-linejoin:round;stroke-miterlimit:10;}
	.st15{fill:none;stroke:#1E1E1E;stroke-miterlimit:10;}
	.st16{fill:none;stroke:#1E1E1E;stroke-width:2;stroke-miterlimit:10;}
	.st17{fill:none;stroke:#000000;stroke-miterlimit:10;}
</style>
<g id="HV7GE5_2_">
	<g>
		<g>
			<path class="st0" d="M65.2,482.5c12.7,0.8,24.4,4.2,34.8,11.3c1.2,0.8,2,3.1,2.1,4.7c0.1,7.5-0.2,15-0.2,22.5
				c0,18,0.1,35.9,0.1,53.9c0,6.5,0.4,13-0.3,19.5c-0.2,2.5-2.1,5.8-4.2,7c-24,12.8-47.9,12.2-71.3-1.7c-1.5-0.9-3-3.3-3.1-5.1
				c-0.5-21.2-0.7-42.3-1-63.5c-0.1-9.6-0.3-19.1-0.7-28.6c-0.3-5.4,1.9-8.7,6.7-11c8.9-4.3,17.9-8,28.2-8.5
				C59.8,482.4,60.6,482.4,65.2,482.5z M61.2,490.3c-3.8-0.2-7.4,0.2-7.2,5.4c0.1,4.1,3.8,7.5,8,7c4-0.4,6.3-2.8,6.2-6.9
				C68.1,491.4,65.7,489.6,61.2,490.3z"/>
		</g>
	</g>
</g>
<circle class="st1" cx="61.2" cy="496.1" r="7.6"/>
<path class="st2" d="M11.4,406.6c0,0,18.8,40.4,31.5,50.5c7.9,6.3,28.5,7.3,36.4,0.3c13.4-11.8,29.8-51.4,29.8-51.4"/>
<polygon class="st3" points="54.6,599.5 47.5,587.1 54.6,574.7 68.9,574.7 76.1,587.1 68.9,599.5 "/>
<g>
	<rect x="42.9" y="553.4" class="st4" width="37.7" height="17.9"/>
	<path class="st1" d="M48.4,553.4h2.2l4,7v-7h2v10.1h-2.1l-4.1-7.1v7.1h-2C48.4,563.5,48.4,553.4,48.4,553.4z"/>
	<path class="st1" d="M58.6,553.4h7.2v1.8h-5.1v2.3h4.5v1.8h-4.5v4.2h-2.1V553.4z"/>
	<path class="st1" d="M68.1,554.4c0.8-0.8,1.8-1.2,3.1-1.2c1.7,0,2.9,0.6,3.7,1.7c0.4,0.6,0.7,1.3,0.7,1.9h-2.1
		c-0.1-0.5-0.3-0.8-0.5-1.1c-0.4-0.4-0.9-0.7-1.7-0.7c-0.8,0-1.3,0.3-1.8,0.9c-0.4,0.6-0.6,1.5-0.6,2.6s0.2,2,0.7,2.5
		c0.5,0.6,1,0.8,1.7,0.8s1.3-0.2,1.7-0.7c0.2-0.3,0.4-0.6,0.5-1.2h2.1c-0.2,1.1-0.6,2-1.4,2.7c-0.7,0.7-1.7,1-2.9,1
		c-1.4,0-2.6-0.5-3.4-1.4s-1.2-2.2-1.2-3.8C66.7,556.7,67.2,555.4,68.1,554.4z"/>
</g>
<path class="st1" d="M51.4,583.4c0.9-1.4,1.5-2.5,2.4-3.9c1.6,0.7,5.7,2.1,5.7,2.1L60,576h4.4c0,0,0.1,3.8,0.3,5.8
	c1.8-0.8,3.3-1.4,5.1-2.2c0.7,1.1,1.5,2.3,2.4,3.7c-1.6,1.2-3,2.3-4.6,3.6c1.5,1.1,2.8,2,4.4,3.2c-0.6,1.2-1.1,2.5-1.9,4.1
	c-1.8-0.8-3.4-1.4-5.4-2.2c-0.2,1.9-0.4,3.4-0.6,5.3c-1.5,0-4.4,0-4.4,0s-0.5-3.3-0.8-5.3c-1.9,0.8-3.4,1.4-5.2,2.2
	c-0.7-1.2-1.5-2.4-2.4-3.8c1.6-1.2,3-2.3,4.7-3.5C54.5,585.7,53.2,584.8,51.4,583.4z M62.8,578.4c-0.5,0-1.1,0.1-1.6,0.1
	c0,5.5,0,11.1,0,16.6c0.5,0,1.1,0,1.6,0C62.8,589.5,62.8,583.9,62.8,578.4z"/>
<path class="st0" d="M62.6,578.4c0,5.6,0,11.2,0,16.7c-0.5,0-1.1,0-1.6,0c0-5.5,0-11.1,0-16.6C61.5,578.4,62,578.4,62.6,578.4z"/>
<path class="st5" d="M65,488.2c0,1.9-1.6,3.5-3.5,3.5l0,0c-1.9,0-3.5-1.6-3.5-3.5v-30c0-1.9,1.6-3.5,3.5-3.5l0,0
	c1.9,0,3.5,1.6,3.5,3.5V488.2z"/>
<g>
	<path class="st6" d="M52.7,546.9c4.4-4.4,11.4-4.3,15.8,0.1"/>
	<path class="st7" d="M48.8,540.6c6.8-6.8,17.8-6.7,24.5,0.1"/>
	<path class="st7" d="M43.8,533.3c10-9.9,26.1-9.9,36,0.1"/>
</g>
<g>
	<g>
		<path class="st1" d="M513.5,576.7c0,1.5-1.2,2.7-2.7,2.7h-222c-1.5,0-2.7-1.2-2.7-2.7V397.1c0-1.5,1.2-2.7,2.7-2.7h222.1
			c1.5,0,2.7,1.2,2.7,2.7L513.5,576.7L513.5,576.7z"/>
		<path class="st8" d="M513.5,576.7c0,1.5-1.2,2.7-2.7,2.7h-222c-1.5,0-2.7-1.2-2.7-2.7V397.1c0-1.5,1.2-2.7,2.7-2.7h222.1
			c1.5,0,2.7,1.2,2.7,2.7L513.5,576.7L513.5,576.7z"/>
	</g>
</g>
<g>
	<rect x="308.6" y="417.1" class="st4" width="177.7" height="149.3"/>
	<path class="st0" d="M313,418.1v9h-1.1v-9H309v-1h6.8v1H313z"/>
	<path class="st0" d="M320.9,426.4c-0.5,0.5-1.1,0.8-2,0.8c-0.8,0-1.5-0.3-2-0.8c-0.7-0.7-0.8-1.7-0.8-2.7s0.1-2,0.8-2.7
		c0.5-0.5,1.1-0.8,2-0.8c0.8,0,1.5,0.3,2,0.8c0.7,0.7,0.8,1.7,0.8,2.7S321.6,425.7,320.9,426.4z M320.2,421.5
		c-0.3-0.3-0.8-0.5-1.3-0.5s-0.9,0.2-1.2,0.5c-0.5,0.5-0.6,1.4-0.6,2.1s0.1,1.6,0.6,2.1c0.3,0.3,0.8,0.5,1.2,0.5s0.9-0.2,1.3-0.5
		c0.5-0.5,0.5-1.4,0.5-2.1S320.7,422,320.2,421.5z"/>
	<path class="st0" d="M332.8,427.1v-4.2c0-1.2-0.7-1.8-1.7-1.8s-1.7,0.6-1.7,1.7v4.4h-1v-4.3c0-1.2-0.7-1.8-1.7-1.8
		s-1.7,0.6-1.7,1.8v4.2h-1v-6.9h1v0.8c0.5-0.6,1.2-0.8,1.9-0.8c1,0,1.7,0.4,2.1,1.1c0.5-0.8,1.3-1.1,2.3-1.1c0.7,0,1.4,0.2,1.8,0.6
		c0.5,0.5,0.7,1.1,0.7,1.9v4.4L332.8,427.1L332.8,427.1z"/>
	<path class="st0" d="M345.7,427.1l-0.8-2.3h-4.4l-0.8,2.3h-1.1l3.7-10h0.9l3.7,10H345.7z M342.8,418.7l-1.9,5.3h3.7L342.8,418.7z"
		/>
	<path class="st0" d="M352.7,427.1v-4.2c0-1.2-0.7-1.8-1.7-1.8s-1.7,0.6-1.7,1.8v4.2h-1v-6.9h1v0.8c0.5-0.6,1.2-0.8,1.9-0.8
		c0.7,0,1.3,0.2,1.8,0.6c0.5,0.5,0.7,1.1,0.7,1.9v4.4H352.7z"/>
	<path class="st0" d="M360.3,427.1v-0.8c-0.6,0.7-1.2,0.9-2,0.9c-0.7,0-1.3-0.2-1.7-0.6c-0.7-0.7-0.8-1.8-0.8-2.9s0.1-2.2,0.8-2.9
		c0.4-0.4,1-0.6,1.7-0.6c0.8,0,1.4,0.2,1.9,0.9v-3.9h1v10h-0.9V427.1z M358.5,421c-1.5,0-1.7,1.3-1.7,2.6c0,1.3,0.2,2.6,1.7,2.6
		s1.7-1.3,1.7-2.6S360,421,358.5,421z"/>
	<path class="st0" d="M364.4,423.9c0,1.5,0.7,2.4,2,2.4c0.8,0,1.3-0.2,1.8-0.8l0.7,0.6c-0.7,0.7-1.3,1.1-2.5,1.1c-1.8,0-3-1.1-3-3.5
		c0-2.2,1.1-3.5,2.8-3.5c1.8,0,2.8,1.3,2.8,3.3v0.4H364.4z M367.8,422c-0.3-0.6-0.9-1-1.6-1s-1.3,0.4-1.6,1
		c-0.2,0.4-0.2,0.6-0.2,1.1h3.6C368,422.6,368,422.4,367.8,422z"/>
	<path class="st0" d="M375,421.5c-0.4-0.4-0.7-0.5-1.2-0.5c-1,0-1.7,0.8-1.7,1.8v4.2h-1v-6.9h1v0.8c0.4-0.6,1.1-0.9,1.9-0.9
		c0.7,0,1.2,0.2,1.7,0.6L375,421.5z"/>
	<path class="st0" d="M379.1,427.2c-1.2,0-2.1-0.3-2.8-1l0.7-0.7c0.5,0.6,1.3,0.8,2.1,0.8c1.1,0,1.8-0.4,1.8-1.2
		c0-0.6-0.4-0.9-1.1-1l-1.1-0.1c-1.3-0.1-2.1-0.7-2.1-1.8c0-1.3,1.1-2,2.5-2c1,0,1.9,0.2,2.5,0.7l-0.7,0.7c-0.5-0.4-1.1-0.5-1.8-0.5
		c-1,0-1.5,0.4-1.5,1.1c0,0.6,0.3,0.9,1.2,1l1.1,0.1c1.2,0.1,2,0.6,2,1.9C381.9,426.4,380.8,427.2,379.1,427.2z"/>
	<path class="st0" d="M388.3,426.4c-0.5,0.5-1.1,0.8-2,0.8c-0.8,0-1.5-0.3-2-0.8c-0.7-0.7-0.8-1.7-0.8-2.7s0.1-2,0.8-2.7
		c0.5-0.5,1.1-0.8,2-0.8c0.8,0,1.5,0.3,2,0.8c0.7,0.7,0.8,1.7,0.8,2.7S389,425.7,388.3,426.4z M387.6,421.5
		c-0.3-0.3-0.8-0.5-1.3-0.5s-0.9,0.2-1.2,0.5c-0.5,0.5-0.6,1.4-0.6,2.1s0.1,1.6,0.6,2.1c0.3,0.3,0.8,0.5,1.2,0.5s0.9-0.2,1.3-0.5
		c0.5-0.5,0.5-1.4,0.5-2.1S388.1,422,387.6,421.5z"/>
	<path class="st0" d="M395.7,427.1v-4.2c0-1.2-0.7-1.8-1.7-1.8s-1.7,0.6-1.7,1.8v4.2h-1v-6.9h1v0.8c0.5-0.6,1.2-0.8,1.9-0.8
		c0.7,0,1.3,0.2,1.8,0.6c0.5,0.5,0.7,1.1,0.7,1.9v4.4H395.7z"/>
	<path class="st0" d="M316,447.2c-0.6,0.6-1.5,0.9-2.5,0.9h-3.4v-10h3.4c1,0,1.9,0.3,2.5,0.9c1,1,1,2.6,1,4S317.1,446.2,316,447.2z
		 M315.3,439.8c-0.5-0.5-1.2-0.7-2-0.7h-2.2v8.1h2.2c0.8,0,1.4-0.2,2-0.7c0.7-0.7,0.7-2.2,0.7-3.4S316,440.5,315.3,439.8z"/>
	<path class="st0" d="M325.2,447.2c-0.7,0.7-1.6,1-2.6,1s-1.9-0.4-2.5-1c-0.9-0.9-0.9-1.9-0.9-4s0-3.1,0.9-4c0.7-0.7,1.6-1,2.5-1
		c1,0,1.9,0.4,2.6,1c0.9,0.9,0.9,1.9,0.9,4C326.1,445.3,326.1,446.2,325.2,447.2z M324.3,439.7c-0.4-0.4-1.1-0.7-1.7-0.7
		c-0.7,0-1.3,0.3-1.7,0.7c-0.6,0.6-0.7,1.3-0.7,3.4s0.1,2.8,0.7,3.4c0.4,0.4,1.1,0.7,1.7,0.7c0.7,0,1.3-0.3,1.7-0.7
		c0.6-0.6,0.7-1.3,0.7-3.4S325,440.4,324.3,439.7z"/>
	<path class="st0" d="M332.5,448.1h-3.9v-10h3.8c1.7,0,2.9,1,2.9,2.7c0,1.1-0.6,1.9-1.5,2.2c1,0.4,1.6,1.2,1.6,2.4
		C335.4,447.2,334.2,448.1,332.5,448.1z M332.3,439.1h-2.6v3.5h2.6c1.1,0,2-0.5,2-1.7C334.2,439.6,333.4,439.1,332.3,439.1z
		 M332.4,443.5h-2.7v3.7h2.7c1.2,0,2-0.7,2-1.8S333.6,443.5,332.4,443.5z"/>
	<path class="st0" d="M343.6,448.1v-8.9l-1.9,1.6v-1.1l1.9-1.6h1v10H343.6z"/>
	<path class="st0" d="M353.1,443.2l-2.5,4.9h-1.1l2.2-4.5c-0.3,0.1-0.7,0.2-1.1,0.2c-1.6,0-2.6-1.2-2.6-2.8c0-1.7,1.1-3,2.8-3
		c1.7,0,2.8,1.1,2.8,2.9C353.7,441.6,353.5,442.3,353.1,443.2z M350.9,439c-1.1,0-1.8,0.8-1.8,2c0,1.1,0.6,2,1.8,2
		c1.1,0,1.8-0.8,1.8-2C352.7,439.8,352,439,350.9,439z"/>
	<path class="st0" d="M355.8,448.1v-1.3h1.3v1.3H355.8z"/>
	<path class="st0" d="M362,448.2c-1.6,0-2.7-1.1-2.7-2.7v-4.7c0-1.7,1.2-2.7,2.7-2.7s2.7,1.1,2.7,2.7v4.7
		C364.8,447.1,363.6,448.2,362,448.2z M363.8,440.9c0-1.1-0.6-1.9-1.7-1.9s-1.7,0.8-1.7,1.9v4.5c0,1.1,0.6,1.9,1.7,1.9
		s1.7-0.8,1.7-1.9V440.9z"/>
	<path class="st0" d="M369.2,448.2c-1.6,0-2.8-0.8-2.9-2.6h1c0.1,1.2,1,1.7,1.9,1.7c1.1,0,1.9-0.7,1.9-1.9c0-1.2-0.6-1.9-2-1.9H369
		v-0.9h0.2c1.2,0,1.8-0.7,1.8-1.8c0-1.2-0.8-1.8-1.7-1.8c-1.1,0-1.7,0.6-1.8,1.7h-1c0.1-1.6,1.3-2.6,2.8-2.6c1.6,0,2.7,1.1,2.7,2.7
		c0,1.1-0.4,1.8-1.3,2.2c1,0.4,1.5,1.2,1.5,2.4C372.1,447.2,370.8,448.2,369.2,448.2z"/>
	<path class="st0" d="M374.2,448.1v-1.3h1.3v1.3H374.2z"/>
	<path class="st0" d="M382.5,447.5c-0.5,0.5-1.1,0.7-2,0.7s-1.6-0.3-2-0.7s-0.6-1-0.7-1.7h1c0.1,1,0.6,1.6,1.7,1.6
		c0.5,0,0.9-0.2,1.2-0.5c0.5-0.5,0.5-1.3,0.5-2c0-1.2-0.2-2.4-1.7-2.4c-0.9,0-1.5,0.4-1.7,1H378v-5.2h5v0.9h-4.1v3.2
		c0.4-0.4,1-0.7,1.8-0.7c0.7,0,1.3,0.2,1.7,0.6c0.7,0.7,0.8,1.7,0.8,2.7C383.3,445.8,383.2,446.8,382.5,447.5z"/>
	<path class="st0" d="M389.6,446.5v1.6h-1v-1.6h-4v-0.9l3.6-7.5h1.1l-3.6,7.5h2.9v-2.8h1v2.8h1.2v0.9H389.6z"/>
	<path class="st0" d="M316,468.2c-0.6,0.6-1.5,0.9-2.5,0.9h-3.4v-10h3.4c1,0,1.9,0.3,2.5,0.9c1,1,1,2.6,1,4S317.1,467.2,316,468.2z
		 M315.3,460.8c-0.5-0.5-1.2-0.7-2-0.7h-2.2v8.1h2.2c0.8,0,1.4-0.2,2-0.7c0.7-0.7,0.7-2.2,0.7-3.4S316,461.5,315.3,460.8z"/>
	<path class="st0" d="M319.3,460.3v-1.1h1.1v1.1H319.3z M319.3,469.1v-6.9h1v6.9H319.3z"/>
	<path class="st0" d="M326.8,469.1v-0.7c-0.6,0.6-1.1,0.7-2,0.7c-1,0-1.5-0.2-1.9-0.6c-0.3-0.3-0.5-0.9-0.5-1.4c0-1.2,0.8-2,2.4-2
		h2.1v-0.7c0-1-0.5-1.5-1.8-1.5c-0.9,0-1.3,0.2-1.7,0.8l-0.7-0.6c0.6-0.8,1.3-1,2.4-1c1.8,0,2.8,0.8,2.8,2.3v4.7
		C327.9,469.1,326.8,469.1,326.8,469.1z M326.8,465.9h-1.9c-1,0-1.5,0.4-1.5,1.2c0,0.8,0.5,1.2,1.6,1.2c0.6,0,1.1,0,1.5-0.5
		c0.2-0.2,0.4-0.6,0.4-1.2v-0.7H326.8z"/>
	<path class="st0" d="M334.9,468.6c-0.4,0.4-1,0.6-1.7,0.6c-0.8,0-1.4-0.2-1.9-0.9v0.8h-1v-10h1v3.9c0.6-0.7,1.2-0.9,1.9-0.9
		c0.7,0,1.3,0.2,1.7,0.6c0.7,0.7,0.8,1.8,0.8,2.9C335.7,466.7,335.6,467.9,334.9,468.6z M333,463c-1.5,0-1.7,1.3-1.7,2.6
		c0,1.3,0.2,2.6,1.7,2.6s1.7-1.3,1.7-2.6S334.5,463,333,463z"/>
	<path class="st0" d="M338.5,465.9c0,1.5,0.7,2.4,2,2.4c0.8,0,1.3-0.2,1.8-0.8l0.7,0.6c-0.7,0.7-1.3,1.1-2.5,1.1c-1.8,0-3-1.1-3-3.5
		c0-2.2,1.1-3.5,2.8-3.5c1.8,0,2.8,1.3,2.8,3.3v0.4H338.5z M341.9,464c-0.3-0.6-0.9-1-1.6-1s-1.3,0.4-1.6,1
		c-0.2,0.4-0.2,0.6-0.2,1.1h3.6C342.1,464.6,342.1,464.4,341.9,464z"/>
	<path class="st0" d="M347.2,469.1c-1.2,0-1.8-0.8-1.8-1.8v-4.2h-0.9v-0.8h0.9v-2.2h1v2.2h1.5v0.8h-1.5v4.2c0,0.6,0.3,1,0.9,1h0.5
		v0.9L347.2,469.1L347.2,469.1z"/>
	<path class="st0" d="M350.4,465.9c0,1.5,0.7,2.4,2,2.4c0.8,0,1.3-0.2,1.8-0.8l0.7,0.6c-0.7,0.7-1.3,1.1-2.5,1.1c-1.8,0-3-1.1-3-3.5
		c0-2.2,1.1-3.5,2.8-3.5c1.8,0,2.8,1.3,2.8,3.3v0.4H350.4z M353.9,464c-0.3-0.6-0.9-1-1.6-1s-1.3,0.4-1.6,1
		c-0.2,0.4-0.2,0.6-0.2,1.1h3.6C354.1,464.6,354,464.4,353.9,464z"/>
	<path class="st0" d="M359.4,469.2c-1.2,0-2.1-0.3-2.8-1l0.7-0.7c0.5,0.6,1.3,0.8,2.1,0.8c1.1,0,1.8-0.4,1.8-1.2
		c0-0.6-0.4-0.9-1.1-1L359,466c-1.3-0.1-2.1-0.7-2.1-1.8c0-1.3,1.1-2,2.5-2c1,0,1.9,0.2,2.5,0.7l-0.7,0.7c-0.5-0.4-1.1-0.5-1.8-0.5
		c-1,0-1.5,0.4-1.5,1.1c0,0.6,0.3,0.9,1.2,1l1.1,0.1c1.2,0.1,2,0.6,2,1.9C362.2,468.4,361.1,469.2,359.4,469.2z"/>
	<path class="st0" d="M370.8,460.1v9h-1.1v-9h-2.9v-1h6.8v1H370.8z"/>
	<path class="st0" d="M376.3,470.8c-0.1,0.4-0.3,0.6-0.5,0.8c-0.4,0.4-0.9,0.5-1.3,0.5H374v-0.9h0.3c0.7,0,0.9-0.2,1.1-0.9l0.5-1.3
		l-2.5-6.8h1.1l1.9,5.5l1.9-5.5h1.1L376.3,470.8z"/>
	<path class="st0" d="M385.5,468.6c-0.4,0.4-1,0.6-1.7,0.6c-0.8,0-1.4-0.2-1.9-0.9v3.9h-1v-10h1v0.8c0.6-0.7,1.2-0.9,1.9-0.9
		c0.7,0,1.3,0.2,1.7,0.6c0.7,0.7,0.8,1.8,0.8,2.9S386.2,467.9,385.5,468.6z M383.6,463c-1.5,0-1.7,1.3-1.7,2.6
		c0,1.3,0.2,2.6,1.7,2.6s1.7-1.3,1.7-2.6C385.3,464.3,385.1,463,383.6,463z"/>
	<path class="st0" d="M389.1,465.9c0,1.5,0.7,2.4,2,2.4c0.8,0,1.3-0.2,1.8-0.8l0.7,0.6c-0.7,0.7-1.3,1.1-2.5,1.1c-1.8,0-3-1.1-3-3.5
		c0-2.2,1.1-3.5,2.8-3.5c1.8,0,2.8,1.3,2.8,3.3v0.4H389.1z M392.5,464c-0.3-0.6-0.9-1-1.6-1s-1.3,0.4-1.6,1
		c-0.2,0.4-0.2,0.6-0.2,1.1h3.6C392.7,464.6,392.7,464.4,392.5,464z"/>
	<path class="st0" d="M399.1,469.1v-0.9l3.9-5c0.4-0.5,0.6-0.9,0.6-1.5c0-1.1-0.6-1.8-1.7-1.8c-0.9,0-1.7,0.5-1.7,1.8h-1
		c0-1.6,1.1-2.7,2.7-2.7s2.7,1.1,2.7,2.7c0,0.8-0.3,1.3-0.8,2l-3.5,4.5h4.3v0.9H399.1z"/>
	<path class="st0" d="M315.9,490.1v-4.6h-4.7v4.6h-1.1v-10h1.1v4.5h4.7v-4.5h1.1v10H315.9z"/>
	<path class="st0" d="M324.1,489.4c-0.5,0.5-1.1,0.8-2,0.8s-1.5-0.3-2-0.8c-0.7-0.7-0.8-1.7-0.8-2.7s0.1-2,0.8-2.7
		c0.5-0.5,1.1-0.8,2-0.8s1.5,0.3,2,0.8c0.7,0.7,0.8,1.7,0.8,2.7S324.8,488.7,324.1,489.4z M323.4,484.5c-0.3-0.3-0.8-0.5-1.3-0.5
		s-0.9,0.2-1.2,0.5c-0.5,0.5-0.6,1.4-0.6,2.1s0.1,1.6,0.6,2.1c0.3,0.3,0.8,0.5,1.2,0.5s0.9-0.2,1.3-0.5c0.5-0.5,0.5-1.4,0.5-2.1
		S323.9,485,323.4,484.5z"/>
	<path class="st0" d="M329.2,490.2c-1.2,0-2.1-0.3-2.8-1l0.7-0.7c0.5,0.6,1.3,0.8,2.1,0.8c1.1,0,1.8-0.4,1.8-1.2
		c0-0.6-0.3-0.9-1.1-1l-1.1-0.1c-1.3-0.1-2.1-0.7-2.1-1.8c0-1.3,1.1-2,2.5-2c1,0,1.9,0.2,2.5,0.7l-0.7,0.7c-0.5-0.4-1.1-0.5-1.8-0.5
		c-1,0-1.5,0.4-1.5,1.1c0,0.6,0.3,0.9,1.2,1l1.1,0.1c1.2,0.1,2,0.6,2,1.9C332,489.4,330.9,490.2,329.2,490.2z"/>
	<path class="st0" d="M338.6,489.6c-0.4,0.4-1,0.6-1.7,0.6c-0.8,0-1.4-0.2-1.9-0.9v3.9h-1v-10h1v0.8c0.6-0.7,1.2-0.9,1.9-0.9
		c0.7,0,1.3,0.2,1.7,0.6c0.7,0.7,0.8,1.8,0.8,2.9S339.3,488.9,338.6,489.6z M336.7,484c-1.5,0-1.7,1.3-1.7,2.6
		c0,1.3,0.2,2.6,1.7,2.6s1.7-1.3,1.7-2.6C338.4,485.3,338.2,484,336.7,484z"/>
	<path class="st0" d="M341.6,481.3v-1.1h1.1v1.1H341.6z M341.6,490.1v-6.9h1v6.9H341.6z"/>
	<path class="st0" d="M347.1,490.1c-1.2,0-1.8-0.8-1.8-1.8v-4.2h-0.9v-0.8h0.9v-2.2h1v2.2h1.5v0.8h-1.5v4.2c0,0.6,0.3,1,0.9,1h0.5
		v0.9L347.1,490.1L347.1,490.1z"/>
	<path class="st0" d="M353.6,490.1v-0.7c-0.6,0.6-1.1,0.7-2,0.7c-1,0-1.5-0.2-1.9-0.6c-0.3-0.3-0.5-0.9-0.5-1.4c0-1.2,0.8-2,2.4-2
		h2.1v-0.7c0-1-0.5-1.5-1.8-1.5c-0.9,0-1.3,0.2-1.7,0.8l-0.7-0.6c0.6-0.8,1.3-1,2.4-1c1.8,0,2.8,0.8,2.8,2.3v4.7
		C354.7,490.1,353.6,490.1,353.6,490.1z M353.6,486.9h-1.9c-1,0-1.5,0.4-1.5,1.2c0,0.8,0.5,1.2,1.6,1.2c0.6,0,1.1,0,1.5-0.5
		c0.2-0.2,0.4-0.6,0.4-1.2v-0.7H353.6z"/>
	<path class="st0" d="M358.8,490.1c-1.2,0-1.8-0.8-1.8-1.8v-8.1h1v8.1c0,0.7,0.2,1,0.9,1h0.5v0.9L358.8,490.1L358.8,490.1z"/>
	<path class="st0" d="M367.4,490.2c-1.7,0-3.1-1.2-3.1-3.5c0-2.4,1.3-3.5,3.1-3.5c1,0,1.6,0.3,2.3,1l-0.7,0.6
		c-0.5-0.6-0.9-0.8-1.6-0.8s-1.2,0.3-1.6,0.8c-0.3,0.4-0.4,1-0.4,1.8c0,0.9,0.1,1.4,0.4,1.8c0.4,0.5,0.9,0.8,1.6,0.8
		s1.1-0.2,1.6-0.8l0.7,0.7C368.9,489.9,368.3,490.2,367.4,490.2z"/>
	<path class="st0" d="M376,490.1v-4.2c0-1.2-0.6-1.8-1.7-1.8c-1,0-1.7,0.6-1.7,1.8v4.3h-1v-10h1v3.8c0.5-0.6,1.2-0.8,1.9-0.8
		c1.6,0,2.5,1,2.5,2.5v4.4C377,490.1,376,490.1,376,490.1z"/>
	<path class="st0" d="M383.9,489.4c-0.5,0.5-1.1,0.8-2,0.8c-0.8,0-1.5-0.3-2-0.8c-0.7-0.7-0.8-1.7-0.8-2.7s0.1-2,0.8-2.7
		c0.5-0.5,1.1-0.8,2-0.8c0.8,0,1.5,0.3,2,0.8c0.7,0.7,0.8,1.7,0.8,2.7S384.6,488.7,383.9,489.4z M383.2,484.5
		c-0.3-0.3-0.8-0.5-1.3-0.5s-0.9,0.2-1.2,0.5c-0.5,0.5-0.6,1.4-0.6,2.1s0.1,1.6,0.6,2.1c0.3,0.3,0.8,0.5,1.2,0.5s0.9-0.2,1.3-0.5
		c0.5-0.5,0.5-1.4,0.5-2.1S383.7,485,383.2,484.5z"/>
	<path class="st0" d="M386.8,481.3v-1.1h1.1v1.1H386.8z M386.9,490.1v-6.9h1v6.9H386.9z"/>
	<path class="st0" d="M393.1,490.2c-1.7,0-3.1-1.2-3.1-3.5c0-2.4,1.3-3.5,3.1-3.5c1,0,1.6,0.3,2.3,1l-0.7,0.6
		c-0.5-0.6-0.9-0.8-1.6-0.8s-1.2,0.3-1.6,0.8c-0.3,0.4-0.4,1-0.4,1.8c0,0.9,0.1,1.4,0.4,1.8c0.4,0.5,0.9,0.8,1.6,0.8
		s1.1-0.2,1.6-0.8l0.7,0.7C394.6,489.9,394,490.2,393.1,490.2z"/>
	<path class="st0" d="M397.7,486.9c0,1.5,0.7,2.4,2,2.4c0.8,0,1.3-0.2,1.8-0.8l0.7,0.6c-0.7,0.7-1.3,1.1-2.5,1.1c-1.8,0-3-1.1-3-3.5
		c0-2.2,1.1-3.5,2.8-3.5c1.8,0,2.8,1.3,2.8,3.3v0.4H397.7z M401.1,485c-0.3-0.6-0.9-1-1.6-1s-1.3,0.4-1.6,1
		c-0.2,0.4-0.2,0.6-0.2,1.1h3.6C401.3,485.6,401.3,485.4,401.1,485z"/>
	<path class="st0" d="M407.8,486.8v-0.9h3.8v0.9H407.8z"/>
	<path class="st0" d="M420.2,490.2c-1.5,0-2.5-0.4-3.4-1.3l0.7-0.7c0.8,0.8,1.6,1.1,2.7,1.1c1.5,0,2.4-0.7,2.4-1.8
		c0-0.5-0.2-1-0.5-1.2c-0.3-0.3-0.6-0.4-1.3-0.5l-1.2-0.2c-0.8-0.1-1.4-0.4-1.8-0.8c-0.5-0.4-0.8-1.1-0.8-1.9c0-1.7,1.2-2.8,3.2-2.8
		c1.3,0,2.1,0.3,3,1.1l-0.7,0.7c-0.6-0.6-1.3-0.9-2.3-0.9c-1.3,0-2.1,0.7-2.1,1.8c0,0.5,0.1,0.9,0.4,1.1s0.8,0.5,1.3,0.5l1.1,0.2
		c0.9,0.1,1.4,0.3,1.8,0.7c0.5,0.5,0.8,1.1,0.8,2C423.6,489.1,422.2,490.2,420.2,490.2z"/>
	<path class="st0" d="M427.6,490.1c-1.2,0-1.8-0.8-1.8-1.8v-4.2h-0.9v-0.8h0.9v-2.2h1v2.2h1.5v0.8h-1.5v4.2c0,0.6,0.3,1,0.9,1h0.5
		v0.9L427.6,490.1L427.6,490.1z"/>
	<path class="st0" d="M436.9,481.1v9h-1.1v-9h-2.9v-1h6.8v1H436.9z"/>
	<path class="st0" d="M445.9,490.1v-4.2c0-1.2-0.6-1.8-1.7-1.8c-1,0-1.7,0.6-1.7,1.8v4.3h-1v-10h1v3.8c0.5-0.6,1.2-0.8,1.9-0.8
		c1.6,0,2.5,1,2.5,2.5v4.4C446.9,490.1,445.9,490.1,445.9,490.1z"/>
	<path class="st0" d="M453.7,489.4c-0.5,0.5-1.1,0.8-2,0.8c-0.8,0-1.5-0.3-2-0.8c-0.7-0.7-0.8-1.7-0.8-2.7s0.1-2,0.8-2.7
		c0.5-0.5,1.1-0.8,2-0.8c0.8,0,1.5,0.3,2,0.8c0.7,0.7,0.8,1.7,0.8,2.7S454.4,488.7,453.7,489.4z M453,484.5
		c-0.3-0.3-0.8-0.5-1.3-0.5s-0.9,0.2-1.2,0.5c-0.5,0.5-0.6,1.4-0.6,2.1s0.1,1.6,0.6,2.1c0.3,0.3,0.8,0.5,1.2,0.5s0.9-0.2,1.3-0.5
		c0.5-0.5,0.5-1.4,0.5-2.1S453.5,485,453,484.5z"/>
	<path class="st0" d="M465.6,490.1v-4.2c0-1.2-0.7-1.8-1.7-1.8s-1.7,0.6-1.7,1.7v4.4h-1v-4.3c0-1.2-0.7-1.8-1.7-1.8
		s-1.7,0.6-1.7,1.8v4.2h-1v-6.9h1v0.8c0.5-0.6,1.2-0.8,1.9-0.8c1,0,1.7,0.4,2.1,1.1c0.5-0.8,1.3-1.1,2.3-1.1c0.7,0,1.4,0.2,1.8,0.6
		c0.5,0.5,0.7,1.1,0.7,1.9v4.4L465.6,490.1L465.6,490.1z"/>
	<path class="st0" d="M473,490.1v-0.7c-0.6,0.6-1.1,0.7-2,0.7c-1,0-1.5-0.2-1.9-0.6c-0.3-0.3-0.5-0.9-0.5-1.4c0-1.2,0.8-2,2.4-2h2.1
		v-0.7c0-1-0.5-1.5-1.8-1.5c-0.9,0-1.3,0.2-1.7,0.8l-0.7-0.6c0.6-0.8,1.3-1,2.4-1c1.8,0,2.8,0.8,2.8,2.3v4.7
		C474.1,490.1,473,490.1,473,490.1z M473,486.9h-2c-1,0-1.5,0.4-1.5,1.2c0,0.8,0.5,1.2,1.6,1.2c0.6,0,1.1,0,1.5-0.5
		c0.2-0.2,0.4-0.6,0.4-1.2V486.9z"/>
	<path class="st0" d="M478.6,490.2c-1.2,0-2.1-0.3-2.8-1l0.7-0.7c0.5,0.6,1.3,0.8,2.1,0.8c1.1,0,1.8-0.4,1.8-1.2
		c0-0.6-0.3-0.9-1.1-1l-1.1-0.1c-1.3-0.1-2.1-0.7-2.1-1.8c0-1.3,1.1-2,2.5-2c1,0,1.9,0.2,2.5,0.7l-0.7,0.7c-0.5-0.4-1.1-0.5-1.8-0.5
		c-1,0-1.5,0.4-1.5,1.1c0,0.6,0.3,0.9,1.2,1l1.1,0.1c1.2,0.1,2,0.6,2,1.9C481.4,489.4,480.2,490.2,478.6,490.2z"/>
	<path class="st0" d="M482.7,482.4v-2.3h1.2v1.2L482.7,482.4z"/>
	<path class="st0" d="M317.6,511.1v-7.6l-2.7,6H314l-2.8-6v7.6h-1.1v-10h1.1l3.2,7.1l3.2-7.1h1.1v10H317.6z"/>
	<path class="st0" d="M321.3,502.3v-1.1h1.1v1.1H321.3z M321.3,511.1v-6.9h1v6.9H321.3z"/>
	<path class="st0" d="M327.5,511.2c-1.7,0-3.1-1.2-3.1-3.5c0-2.4,1.3-3.5,3.1-3.5c1,0,1.6,0.3,2.3,1l-0.7,0.6
		c-0.5-0.6-0.9-0.8-1.6-0.8s-1.2,0.3-1.6,0.8c-0.3,0.4-0.4,1-0.4,1.8c0,0.9,0.1,1.4,0.4,1.8c0.4,0.5,0.9,0.8,1.6,0.8
		s1.1-0.2,1.6-0.8l0.7,0.7C329.1,510.9,328.5,511.2,327.5,511.2z"/>
	<path class="st0" d="M336.1,511.1v-4.2c0-1.2-0.6-1.8-1.7-1.8c-1,0-1.7,0.6-1.7,1.8v4.3h-1v-10h1v3.8c0.5-0.6,1.2-0.8,1.9-0.8
		c1.6,0,2.5,1,2.5,2.5v4.4C337.1,511.1,336.1,511.1,336.1,511.1z"/>
	<path class="st0" d="M340.2,507.9c0,1.5,0.7,2.4,2,2.4c0.8,0,1.3-0.2,1.8-0.8l0.7,0.6c-0.7,0.7-1.3,1.1-2.5,1.1c-1.8,0-3-1.1-3-3.5
		c0-2.2,1.1-3.5,2.8-3.5c1.8,0,2.8,1.3,2.8,3.3v0.5h-4.6L340.2,507.9L340.2,507.9z M343.7,506c-0.3-0.6-0.9-1-1.6-1s-1.3,0.4-1.6,1
		c-0.2,0.4-0.2,0.6-0.2,1.1h3.6C343.8,506.6,343.8,506.4,343.7,506z"/>
	<path class="st0" d="M348.7,511.1c-1.2,0-1.8-0.8-1.8-1.8v-8.1h1v8.1c0,0.7,0.2,1,0.9,1h0.5v0.9L348.7,511.1L348.7,511.1z"/>
	<path class="st0" d="M352.9,511.1c-1.2,0-1.8-0.8-1.8-1.8v-8.1h1v8.1c0,0.7,0.2,1,0.9,1h0.5v0.9L352.9,511.1L352.9,511.1z"/>
	<path class="st0" d="M355.6,507.9c0,1.5,0.7,2.4,2,2.4c0.8,0,1.3-0.2,1.8-0.8l0.7,0.6c-0.7,0.7-1.3,1.1-2.5,1.1c-1.8,0-3-1.1-3-3.5
		c0-2.2,1.1-3.5,2.8-3.5c1.8,0,2.8,1.3,2.8,3.3v0.5h-4.6L355.6,507.9L355.6,507.9z M359,506c-0.3-0.6-0.9-1-1.6-1s-1.3,0.4-1.6,1
		c-0.2,0.4-0.2,0.6-0.2,1.1h3.6C359.2,506.6,359.2,506.4,359,506z"/>
	<path class="st0" d="M371.9,511.1l-0.8-2.3h-4.4l-0.8,2.3h-1.1l3.7-10h0.9l3.7,10H371.9z M368.9,502.7l-1.9,5.2h3.7L368.9,502.7z"
		/>
	<path class="st0" d="M378.8,511.1v-4.2c0-1.2-0.7-1.8-1.7-1.8s-1.7,0.6-1.7,1.8v4.2h-1v-6.9h1v0.8c0.5-0.6,1.2-0.8,1.9-0.8
		c0.7,0,1.3,0.2,1.8,0.6c0.5,0.5,0.7,1.1,0.7,1.9v4.4H378.8z"/>
	<path class="st0" d="M386.4,511.1v-0.8c-0.6,0.7-1.2,0.9-2,0.9c-0.7,0-1.3-0.2-1.7-0.6c-0.7-0.7-0.8-1.8-0.8-2.9s0.1-2.2,0.8-2.9
		c0.4-0.4,1-0.6,1.7-0.6c0.8,0,1.4,0.2,1.9,0.9v-3.9h1v10L386.4,511.1L386.4,511.1z M384.7,505c-1.5,0-1.7,1.3-1.7,2.6
		c0,1.3,0.2,2.6,1.7,2.6s1.7-1.3,1.7-2.6C386.4,506.3,386.2,505,384.7,505z"/>
	<path class="st0" d="M390.6,507.9c0,1.5,0.7,2.4,2,2.4c0.8,0,1.3-0.2,1.8-0.8l0.7,0.6c-0.7,0.7-1.3,1.1-2.5,1.1c-1.8,0-3-1.1-3-3.5
		c0-2.2,1.1-3.5,2.8-3.5c1.8,0,2.8,1.3,2.8,3.3v0.5h-4.6L390.6,507.9L390.6,507.9z M394,506c-0.3-0.6-0.9-1-1.6-1s-1.3,0.4-1.6,1
		c-0.2,0.4-0.2,0.6-0.2,1.1h3.6C394.2,506.6,394.1,506.4,394,506z"/>
	<path class="st0" d="M401.2,505.5c-0.4-0.4-0.7-0.5-1.2-0.5c-1,0-1.7,0.8-1.7,1.8v4.2h-1v-6.9h1v0.8c0.4-0.6,1.1-0.9,1.9-0.9
		c0.7,0,1.2,0.2,1.7,0.6L401.2,505.5z"/>
	<path class="st0" d="M405.3,511.2c-1.2,0-2.1-0.3-2.8-1l0.7-0.7c0.5,0.6,1.3,0.8,2.1,0.8c1.1,0,1.8-0.4,1.8-1.2
		c0-0.6-0.3-0.9-1.1-1l-1.1-0.1c-1.3-0.1-2.1-0.7-2.1-1.8c0-1.3,1.1-2,2.5-2c1,0,1.9,0.2,2.5,0.7l-0.7,0.7c-0.5-0.4-1.1-0.5-1.8-0.5
		c-1,0-1.5,0.4-1.5,1.1c0,0.6,0.3,0.9,1.2,1l1.1,0.1c1.2,0.1,2,0.6,2,1.9C408.1,510.4,406.9,511.2,405.3,511.2z"/>
	<path class="st0" d="M414.5,510.4c-0.5,0.5-1.1,0.8-2,0.8s-1.5-0.3-2-0.8c-0.7-0.7-0.8-1.7-0.8-2.7s0.1-2,0.8-2.7
		c0.5-0.5,1.1-0.8,2-0.8s1.5,0.3,2,0.8c0.7,0.7,0.8,1.7,0.8,2.7S415.2,509.7,414.5,510.4z M413.8,505.5c-0.3-0.3-0.8-0.5-1.3-0.5
		s-0.9,0.2-1.2,0.5c-0.5,0.5-0.6,1.4-0.6,2.1s0.1,1.6,0.6,2.1c0.3,0.3,0.8,0.5,1.2,0.5s0.9-0.2,1.3-0.5c0.5-0.5,0.5-1.4,0.5-2.1
		S414.3,506,413.8,505.5z"/>
	<path class="st0" d="M421.9,511.1v-4.2c0-1.2-0.7-1.8-1.7-1.8s-1.7,0.6-1.7,1.8v4.2h-1v-6.9h1v0.8c0.5-0.6,1.2-0.8,1.9-0.8
		c0.7,0,1.3,0.2,1.8,0.6c0.5,0.5,0.7,1.1,0.7,1.9v4.4H421.9z"/>
	<path class="st0" d="M312.3,532.2c-1.6,0-2.7-1.1-2.7-2.7v-4.7c0-1.7,1.2-2.7,2.7-2.7c1.6,0,2.7,1.1,2.7,2.7v4.7
		C315,531.1,313.8,532.2,312.3,532.2z M314,524.9c0-1.1-0.6-1.9-1.7-1.9s-1.7,0.8-1.7,1.9v4.5c0,1.1,0.6,1.9,1.7,1.9
		s1.7-0.8,1.7-1.9V524.9z"/>
	<path class="st0" d="M319.1,532.1H318l3.5-9.1H318v1.6h-1v-2.5h5.5v0.9L319.1,532.1z"/>
	<path class="st0" d="M326.9,532.2c-1.7,0-2.9-1.1-2.9-2.8c0-1.2,0.7-1.9,1.5-2.4c-0.8-0.4-1.3-1.2-1.3-2.2c0-1.6,1.2-2.7,2.7-2.7
		c1.6,0,2.7,1.1,2.7,2.7c0,1-0.5,1.8-1.3,2.2c0.8,0.5,1.5,1.3,1.5,2.4C329.8,531,328.6,532.2,326.9,532.2z M326.9,527.4
		c-1.1,0-1.9,0.8-1.9,1.9c0,1.1,0.8,1.9,1.9,1.9s1.9-0.8,1.9-1.9S328,527.4,326.9,527.4z M326.9,523c-1,0-1.7,0.8-1.7,1.8
		c0,1.1,0.7,1.8,1.7,1.8s1.7-0.7,1.7-1.8S327.9,523,326.9,523z"/>
	<path class="st0" d="M334.2,532.2c-1.6,0-2.7-1.1-2.7-2.7v-4.7c0-1.7,1.2-2.7,2.7-2.7s2.7,1.1,2.7,2.7v4.7
		C336.9,531.1,335.8,532.2,334.2,532.2z M335.9,524.9c0-1.1-0.6-1.9-1.7-1.9s-1.7,0.8-1.7,1.9v4.5c0,1.1,0.6,1.9,1.7,1.9
		s1.7-0.8,1.7-1.9V524.9z"/>
	<path class="st0" d="M343.4,530.5v1.6h-1v-1.6h-4v-0.9l3.6-7.5h1.1l-3.6,7.5h2.9v-2.8h1v2.8h1.2v0.9H343.4z"/>
	<path class="st0" d="M351.8,532.1h-1.1l3.5-9.1h-3.5v1.6h-1v-2.5h5.5v0.9L351.8,532.1z"/>
	<path class="st0" d="M361.6,531.5c-0.5,0.5-1.1,0.7-2,0.7s-1.6-0.3-2-0.7s-0.6-1-0.7-1.7h1c0.1,1,0.6,1.6,1.7,1.6
		c0.5,0,0.9-0.2,1.2-0.5c0.5-0.5,0.5-1.3,0.5-2c0-1.2-0.2-2.4-1.7-2.4c-0.9,0-1.5,0.4-1.7,1H357v-5.2h5v0.9h-4.1v3.2
		c0.4-0.4,1-0.7,1.8-0.7c0.7,0,1.3,0.2,1.7,0.6c0.7,0.7,0.8,1.7,0.8,2.7C362.4,529.8,362.4,530.8,361.6,531.5z"/>
	<path class="st0" d="M366.9,532.2c-1.7,0-2.9-1.1-2.9-2.8c0-1.2,0.7-1.9,1.5-2.4c-0.8-0.4-1.3-1.2-1.3-2.2c0-1.6,1.2-2.7,2.7-2.7
		s2.7,1.1,2.7,2.7c0,1-0.5,1.8-1.3,2.2c0.8,0.5,1.5,1.3,1.5,2.4C369.9,531,368.6,532.2,366.9,532.2z M366.9,527.4
		c-1.1,0-1.9,0.8-1.9,1.9c0,1.1,0.8,1.9,1.9,1.9s1.9-0.8,1.9-1.9C368.9,528.2,368,527.4,366.9,527.4z M366.9,523
		c-1,0-1.7,0.8-1.7,1.8c0,1.1,0.7,1.8,1.7,1.8s1.7-0.7,1.7-1.8C368.7,523.7,368,523,366.9,523z"/>
	<path class="st0" d="M376.1,530.5v1.6h-1v-1.6h-4v-0.9l3.6-7.5h1.1l-3.6,7.5h2.9v-2.8h1v2.8h1.2v0.9H376.1z"/>
	<path class="st0" d="M313.2,553.2c-1,0-1.9-0.4-2.5-1c-0.9-0.9-0.9-1.9-0.9-4s0-3.1,0.9-4c0.7-0.7,1.6-1,2.5-1c1.8,0,3.1,1.1,3.5,3
		h-1.1c-0.3-1.2-1.1-2-2.4-2c-0.7,0-1.3,0.3-1.7,0.7c-0.6,0.6-0.7,1.3-0.7,3.4c0,2.1,0.1,2.8,0.7,3.4c0.4,0.4,1.1,0.7,1.7,0.7
		c1.2,0,2.1-0.8,2.4-2h1.1C316.3,552.1,315,553.2,313.2,553.2z"/>
	<path class="st0" d="M322.7,553.1v-0.7c-0.6,0.6-1.1,0.7-2,0.7c-1,0-1.5-0.2-1.9-0.6c-0.3-0.3-0.5-0.9-0.5-1.4c0-1.2,0.8-2,2.4-2
		h2.1v-0.7c0-1-0.5-1.5-1.8-1.5c-0.9,0-1.3,0.2-1.7,0.8l-0.7-0.6c0.6-0.8,1.3-1,2.4-1c1.8,0,2.8,0.8,2.8,2.3v4.7H322.7z
		 M322.7,549.9h-1.9c-1,0-1.5,0.4-1.5,1.2s0.5,1.2,1.6,1.2c0.6,0,1.1,0,1.5-0.5c0.2-0.2,0.4-0.6,0.4-1.2v-0.7H322.7z"/>
	<path class="st0" d="M330,547.5c-0.4-0.4-0.7-0.5-1.2-0.5c-1,0-1.7,0.8-1.7,1.8v4.2h-1v-6.9h1v0.8c0.4-0.6,1.1-0.9,1.9-0.9
		c0.7,0,1.2,0.2,1.7,0.6L330,547.5z"/>
	<path class="st0" d="M332.2,549.9c0,1.5,0.7,2.4,2,2.4c0.8,0,1.3-0.2,1.8-0.8l0.7,0.6c-0.7,0.7-1.3,1.1-2.5,1.1c-1.8,0-3-1.1-3-3.5
		c0-2.2,1.1-3.5,2.8-3.5c1.8,0,2.8,1.3,2.8,3.3v0.5L332.2,549.9L332.2,549.9z M335.7,548c-0.3-0.6-0.9-1-1.6-1s-1.3,0.4-1.6,1
		c-0.2,0.4-0.2,0.6-0.2,1.1h3.6C335.8,548.6,335.8,548.4,335.7,548z"/>
	<path class="st0" d="M347.1,552.6c-0.4,0.4-1,0.6-1.7,0.6c-0.8,0-1.4-0.2-1.9-0.9v3.9h-1v-10h1v0.8c0.6-0.7,1.2-0.9,1.9-0.9
		c0.7,0,1.3,0.2,1.7,0.6c0.7,0.7,0.8,1.8,0.8,2.9C348,550.7,347.8,551.9,347.1,552.6z M345.2,547c-1.5,0-1.7,1.3-1.7,2.6
		s0.2,2.6,1.7,2.6s1.7-1.3,1.7-2.6C347,548.3,346.7,547,345.2,547z"/>
	<path class="st0" d="M351.9,553.1c-1.2,0-1.8-0.8-1.8-1.8v-8.1h1v8.1c0,0.7,0.2,1,0.9,1h0.5v0.9h-0.6V553.1z"/>
	<path class="st0" d="M358.2,553.1v-0.7c-0.6,0.6-1.1,0.7-2,0.7c-1,0-1.5-0.2-1.9-0.6c-0.3-0.3-0.5-0.9-0.5-1.4c0-1.2,0.8-2,2.4-2
		h2.1v-0.7c0-1-0.5-1.5-1.8-1.5c-0.9,0-1.3,0.2-1.7,0.8l-0.7-0.6c0.6-0.8,1.3-1,2.4-1c1.8,0,2.8,0.8,2.8,2.3v4.7H358.2z
		 M358.2,549.9h-1.9c-1,0-1.5,0.4-1.5,1.2s0.5,1.2,1.6,1.2c0.6,0,1.1,0,1.5-0.5c0.2-0.2,0.3-0.6,0.3-1.2V549.9z"/>
	<path class="st0" d="M366.1,553.1v-4.2c0-1.2-0.7-1.8-1.7-1.8s-1.7,0.6-1.7,1.8v4.2h-1v-6.9h1v0.8c0.5-0.6,1.2-0.8,1.9-0.8
		c0.7,0,1.3,0.2,1.8,0.6c0.5,0.5,0.7,1.1,0.7,1.9v4.4H366.1z"/>
	<path class="st0" d="M378.8,547.1l-0.3,2h1.2v0.9h-1.4l-0.5,3.2h-1l0.5-3.2h-2.2l-0.5,3.2h-1l0.5-3.2h-1.2v-0.9h1.4l0.3-2h-1.3
		v-0.9h1.4l0.5-3h1.1l-0.5,3h2.2l0.5-3h1l-0.5,3h1.2v0.9H378.8z M375.6,547.1l-0.3,2h2.2l0.3-2H375.6z"/>
	<path class="st0" d="M384,553.1h-1l3.5-9.1H383v1.6h-1v-2.5h5.5v0.9L384,553.1z"/>
	<path class="st0" d="M393.9,552.5c-0.5,0.5-1.1,0.7-2,0.7s-1.6-0.3-2-0.7s-0.6-1-0.7-1.7h1c0.1,1,0.6,1.6,1.7,1.6
		c0.5,0,0.9-0.2,1.2-0.5c0.5-0.5,0.5-1.3,0.5-2c0-1.2-0.2-2.4-1.7-2.4c-0.9,0-1.5,0.4-1.7,1h-0.9v-5.2h5v0.9h-4.1v3.2
		c0.4-0.4,1-0.7,1.8-0.7c0.7,0,1.3,0.2,1.7,0.6c0.7,0.7,0.8,1.7,0.8,2.7C394.7,550.8,394.6,551.8,393.9,552.5z"/>
	<path class="st0" d="M399.2,553.2c-1.7,0-2.9-1.1-2.9-2.8c0-1.2,0.7-1.9,1.5-2.4c-0.8-0.4-1.3-1.2-1.3-2.2c0-1.6,1.2-2.7,2.7-2.7
		c1.6,0,2.7,1.1,2.7,2.7c0,1-0.5,1.8-1.3,2.2c0.8,0.5,1.5,1.3,1.5,2.4C402.1,552,400.8,553.2,399.2,553.2z M399.2,548.4
		c-1.1,0-1.9,0.8-1.9,1.9c0,1.1,0.8,1.9,1.9,1.9s1.9-0.8,1.9-1.9S400.3,548.4,399.2,548.4z M399.2,544c-1,0-1.7,0.8-1.7,1.8
		c0,1.1,0.7,1.8,1.7,1.8s1.7-0.7,1.7-1.8C400.9,544.7,400.2,544,399.2,544z"/>
	<path class="st0" d="M408.6,548.2l-2.5,4.9H405l2.2-4.5c-0.3,0.1-0.7,0.2-1.1,0.2c-1.6,0-2.6-1.2-2.6-2.8c0-1.7,1.1-3,2.8-3
		s2.8,1.1,2.8,2.9C409.2,546.6,409,547.3,408.6,548.2z M406.4,544c-1.1,0-1.8,0.8-1.8,2c0,1.1,0.6,2,1.8,2c1.1,0,1.8-0.8,1.8-2
		C408.2,544.8,407.5,544,406.4,544z"/>
	<path class="st0" d="M417.4,553.1l-0.8-2.3h-4.4l-0.8,2.3h-1.1l3.7-10h0.9l3.7,10H417.4z M414.4,544.7l-1.9,5.3h3.7L414.4,544.7z"
		/>
	<path class="st0" d="M424.3,553.1v-4.2c0-1.2-0.7-1.8-1.7-1.8s-1.7,0.6-1.7,1.8v4.2h-1v-6.9h1v0.8c0.5-0.6,1.2-0.8,1.9-0.8
		c0.7,0,1.3,0.2,1.8,0.6c0.5,0.5,0.7,1.1,0.7,1.9v4.4H424.3z"/>
	<path class="st0" d="M431.9,553.1v-0.8c-0.6,0.7-1.2,0.9-2,0.9c-0.7,0-1.3-0.2-1.7-0.6c-0.7-0.7-0.8-1.8-0.8-2.9
		c0-1.1,0.1-2.2,0.8-2.9c0.4-0.4,1-0.6,1.7-0.6c0.8,0,1.4,0.2,1.9,0.9v-3.9h1v10h-0.9V553.1z M430.2,547c-1.5,0-1.7,1.3-1.7,2.6
		s0.2,2.6,1.7,2.6s1.7-1.3,1.7-2.6C431.9,548.3,431.7,547,430.2,547z"/>
</g>
<g>
	<rect y="609.5" class="st4" width="15.7" height="12.3"/>
	<path class="st9" d="M0.8,612.3v-1.1c0.5,0,0.9-0.1,1.1-0.1c0.3-0.1,0.6-0.2,0.8-0.4c0.1-0.2,0.3-0.4,0.3-0.6s0.1-0.3,0.1-0.3h1.4
		v8.5H2.8v-5.9L0.8,612.3L0.8,612.3z"/>
	<path class="st9" d="M7.5,616.4h1.8v1.8H7.5V616.4z"/>
</g>
<g>
	<rect x="285.1" y="591.7" class="st4" width="15.7" height="12.3"/>
	<path class="st9" d="M285.9,598.6c0.2-0.6,0.8-1.2,1.7-1.8c0.8-0.6,1.3-0.9,1.5-1.2c0.3-0.4,0.5-0.8,0.5-1.2s-0.1-0.7-0.3-0.9
		s-0.5-0.4-0.9-0.4c-0.5,0-0.9,0.2-1,0.6c-0.1,0.2-0.2,0.6-0.2,1h-1.6c0-0.7,0.2-1.3,0.4-1.8c0.4-0.8,1.2-1.3,2.4-1.3
		c0.9,0,1.6,0.2,2.1,0.7s0.8,1.2,0.8,2c0,0.6-0.2,1.2-0.6,1.7c-0.2,0.3-0.7,0.7-1.2,1.1l-0.7,0.5c-0.4,0.3-0.7,0.5-0.9,0.6
		c-0.2,0.1-0.3,0.3-0.4,0.5h3.7v1.5h-5.8C285.5,599.7,285.6,599.1,285.9,598.6z"/>
	<path class="st9" d="M292.6,598.5h1.8v1.8h-1.8V598.5z"/>
</g>
<g>
	<g>
		<path class="st10" d="M127,620.5c0,0,72.9,51.5,139-12.6"/>
		<g>
			<polygon class="st9" points="262.4,605.1 268.7,611.6 268.8,605.2 			"/>
		</g>
	</g>
</g>
<rect x="310.3" y="34.1" class="st4" width="177.7" height="149.3"/>
<g class="st11">
	<path class="st12" d="M315.6,36.1v8.1h-1.9v-8.1h-3.1v-1.8h8.2v1.8H315.6z"/>
	<path class="st12" d="M321.7,37.1c0.5,0,1,0.1,1.4,0.3c0.4,0.2,0.8,0.4,1.1,0.8c0.3,0.3,0.6,0.7,0.8,1.2c0.2,0.4,0.3,0.9,0.3,1.5
		c0,0.5-0.1,1-0.3,1.5c-0.2,0.4-0.4,0.8-0.8,1.2c-0.3,0.3-0.7,0.6-1.1,0.8c-0.4,0.2-0.9,0.3-1.4,0.3c-0.5,0-1-0.1-1.4-0.3
		c-0.4-0.2-0.8-0.4-1.1-0.8c-0.3-0.3-0.6-0.7-0.8-1.2c-0.2-0.4-0.3-0.9-0.3-1.5c0-0.5,0.1-1,0.3-1.5c0.2-0.4,0.4-0.8,0.8-1.2
		c0.3-0.3,0.7-0.6,1.1-0.8C320.8,37.2,321.2,37.1,321.7,37.1z M321.7,42.7c0.2,0,0.4,0,0.7-0.1s0.4-0.2,0.6-0.4
		c0.2-0.2,0.3-0.4,0.4-0.6c0.1-0.2,0.1-0.5,0.1-0.9c0-0.3,0-0.6-0.1-0.9c-0.1-0.2-0.2-0.4-0.4-0.6c-0.2-0.2-0.3-0.3-0.6-0.4
		s-0.4-0.1-0.7-0.1c-0.2,0-0.4,0-0.7,0.1c-0.2,0.1-0.4,0.2-0.6,0.4c-0.2,0.2-0.3,0.4-0.4,0.6c-0.1,0.2-0.1,0.5-0.1,0.9
		c0,0.3,0,0.6,0.1,0.9c0.1,0.2,0.2,0.4,0.4,0.6c0.2,0.2,0.3,0.3,0.6,0.4C321.3,42.7,321.5,42.7,321.7,42.7z"/>
	<path class="st12" d="M326.8,44.2v-6.9h1.8v0.8c0.1-0.2,0.2-0.3,0.4-0.4s0.3-0.2,0.5-0.3s0.4-0.1,0.6-0.2c0.2,0,0.4-0.1,0.6-0.1
		c0.5,0,0.9,0.1,1.2,0.3c0.4,0.2,0.6,0.5,0.8,0.9c0.3-0.4,0.6-0.7,1-0.9c0.4-0.2,0.8-0.3,1.2-0.3c0.3,0,0.6,0,0.9,0.1
		c0.3,0.1,0.6,0.3,0.8,0.5s0.4,0.5,0.6,0.8c0.1,0.3,0.2,0.7,0.2,1.2v4.5h-1.8v-4.1c0-0.4-0.1-0.7-0.3-0.9c-0.2-0.2-0.5-0.4-0.9-0.4
		c-0.4,0-0.7,0.1-0.9,0.4c-0.2,0.3-0.3,0.6-0.3,1v4h-1.8v-4.1c0-0.4-0.1-0.7-0.3-0.9c-0.2-0.2-0.5-0.4-0.9-0.4c-0.4,0-0.7,0.1-1,0.4
		c-0.2,0.3-0.3,0.6-0.3,1v4H326.8z"/>
	<path class="st12" d="M348.7,41.9h-4l-0.8,2.3h-2l3.8-9.9h2.2l3.8,9.9h-2.1L348.7,41.9z M345.3,40.2h2.7l-1.4-3.8L345.3,40.2z"/>
	<path class="st12" d="M354.6,44.2h-1.9v-6.9h1.8v0.9c0.2-0.4,0.5-0.6,0.9-0.8c0.4-0.2,0.7-0.3,1.1-0.3c0.4,0,0.8,0.1,1.1,0.2
		c0.3,0.1,0.6,0.3,0.8,0.6c0.2,0.2,0.4,0.5,0.5,0.9s0.1,0.7,0.1,1.1v4.3h-1.9v-4c0-0.4-0.1-0.7-0.3-1c-0.2-0.3-0.5-0.4-1-0.4
		c-0.4,0-0.7,0.1-1,0.4c-0.2,0.3-0.3,0.6-0.3,1V44.2z"/>
	<path class="st12" d="M367.5,43c0,0.2,0,0.5,0,0.7c0,0.2,0,0.4,0,0.6h-1.8c0-0.1,0-0.2,0-0.3c0-0.1,0-0.3,0-0.5
		c-0.2,0.3-0.4,0.5-0.7,0.7c-0.3,0.2-0.7,0.3-1.2,0.3c-0.5,0-0.9-0.1-1.4-0.3c-0.4-0.2-0.8-0.4-1.1-0.8c-0.3-0.3-0.5-0.7-0.7-1.1
		s-0.3-0.9-0.3-1.4c0-0.5,0.1-1,0.2-1.4s0.4-0.8,0.7-1.1c0.3-0.3,0.6-0.6,1-0.8c0.4-0.2,0.9-0.3,1.3-0.3c0.3,0,0.6,0,0.8,0.1
		c0.2,0.1,0.4,0.1,0.6,0.2c0.2,0.1,0.3,0.2,0.4,0.3c0.1,0.1,0.2,0.2,0.2,0.3v-3.9h1.8V43z M362.3,40.8c0,0.6,0.2,1.1,0.5,1.4
		c0.3,0.3,0.7,0.5,1.2,0.5c0.5,0,0.9-0.2,1.2-0.5c0.3-0.3,0.5-0.8,0.5-1.5c0-0.6-0.2-1.1-0.5-1.4c-0.3-0.3-0.7-0.5-1.2-0.5
		c-0.5,0-0.9,0.2-1.2,0.5S362.3,40.1,362.3,40.8z"/>
	<path class="st12" d="M375.7,42.2c-0.1,0.3-0.2,0.6-0.4,0.8c-0.2,0.3-0.4,0.5-0.7,0.7c-0.3,0.2-0.6,0.4-0.9,0.5
		c-0.3,0.1-0.7,0.2-1.2,0.2c-0.5,0-0.9-0.1-1.4-0.2c-0.4-0.2-0.8-0.4-1.1-0.7c-0.3-0.3-0.6-0.7-0.8-1.2s-0.3-1-0.3-1.6
		c0-0.6,0.1-1.1,0.3-1.5c0.2-0.4,0.4-0.8,0.7-1.1c0.3-0.3,0.7-0.6,1.1-0.7c0.4-0.2,0.8-0.3,1.3-0.3c1.1,0,1.9,0.3,2.5,1
		c0.6,0.6,0.9,1.5,0.9,2.6c0,0.1,0,0.3,0,0.4c0,0.1,0,0.2,0,0.2h-4.9c0,0.2,0.1,0.4,0.2,0.6s0.2,0.4,0.4,0.5s0.3,0.2,0.5,0.3
		s0.4,0.1,0.7,0.1c0.4,0,0.8-0.1,1-0.3c0.2-0.2,0.4-0.4,0.5-0.8L375.7,42.2z M374,40c0-0.2,0-0.3-0.1-0.5c-0.1-0.2-0.2-0.3-0.3-0.4
		s-0.3-0.2-0.5-0.3s-0.4-0.1-0.7-0.1c-0.2,0-0.5,0-0.6,0.1c-0.2,0.1-0.3,0.2-0.5,0.3s-0.2,0.3-0.3,0.4c-0.1,0.2-0.1,0.3-0.1,0.5H374
		z"/>
	<path class="st12" d="M381.5,39.2c-0.2,0-0.4-0.1-0.6-0.1c-0.2,0-0.5,0-0.7,0.1s-0.4,0.2-0.6,0.3c-0.2,0.1-0.3,0.3-0.4,0.6
		c-0.1,0.2-0.1,0.6-0.1,0.9v3.2h-1.9v-6.9h1.8v1c0.1-0.2,0.2-0.4,0.4-0.6s0.3-0.3,0.5-0.3c0.2-0.1,0.4-0.1,0.5-0.2
		c0.2,0,0.3,0,0.5,0c0.1,0,0.1,0,0.2,0c0.1,0,0.1,0,0.2,0V39.2z"/>
	<path class="st12" d="M383.8,41.9c0,0.3,0.1,0.5,0.3,0.7s0.5,0.3,0.9,0.3c0.3,0,0.5-0.1,0.7-0.2c0.1-0.1,0.2-0.3,0.2-0.5
		c0-0.2-0.1-0.3-0.2-0.4c-0.1-0.1-0.3-0.2-0.6-0.3l-0.9-0.2c-0.7-0.1-1.2-0.4-1.5-0.8c-0.3-0.4-0.5-0.8-0.5-1.3
		c0-0.3,0.1-0.6,0.2-0.9c0.1-0.3,0.3-0.5,0.5-0.7c0.2-0.2,0.5-0.4,0.8-0.5s0.7-0.2,1-0.2c0.5,0,0.9,0.1,1.2,0.2
		c0.3,0.1,0.6,0.3,0.8,0.5s0.4,0.4,0.5,0.7c0.1,0.2,0.2,0.4,0.2,0.6l-1.6,0.4c0-0.1,0-0.2-0.1-0.3s-0.1-0.2-0.2-0.3
		c-0.1-0.1-0.2-0.2-0.3-0.2c-0.1-0.1-0.3-0.1-0.5-0.1c-0.2,0-0.5,0.1-0.6,0.2c-0.2,0.1-0.3,0.3-0.3,0.5c0,0.2,0.1,0.3,0.2,0.4
		c0.1,0.1,0.3,0.2,0.5,0.2l1,0.2c0.7,0.1,1.2,0.4,1.5,0.8s0.5,0.8,0.5,1.3c0,0.3-0.1,0.6-0.2,0.8c-0.1,0.3-0.3,0.5-0.5,0.7
		c-0.2,0.2-0.5,0.4-0.8,0.5c-0.3,0.1-0.7,0.2-1.2,0.2c-0.5,0-1-0.1-1.3-0.2c-0.4-0.1-0.6-0.3-0.9-0.5s-0.4-0.4-0.5-0.7
		s-0.2-0.5-0.2-0.7L383.8,41.9z"/>
	<path class="st12" d="M392.3,37.1c0.5,0,1,0.1,1.4,0.3c0.4,0.2,0.8,0.4,1.1,0.8c0.3,0.3,0.6,0.7,0.8,1.2s0.3,0.9,0.3,1.5
		c0,0.5-0.1,1-0.3,1.5c-0.2,0.4-0.4,0.8-0.8,1.2c-0.3,0.3-0.7,0.6-1.1,0.8c-0.4,0.2-0.9,0.3-1.4,0.3c-0.5,0-1-0.1-1.4-0.3
		c-0.4-0.2-0.8-0.4-1.1-0.8c-0.3-0.3-0.6-0.7-0.8-1.2c-0.2-0.4-0.3-0.9-0.3-1.5c0-0.5,0.1-1,0.3-1.5c0.2-0.4,0.4-0.8,0.8-1.2
		c0.3-0.3,0.7-0.6,1.1-0.8C391.4,37.2,391.8,37.1,392.3,37.1z M392.3,42.7c0.2,0,0.4,0,0.7-0.1c0.2-0.1,0.4-0.2,0.6-0.4
		c0.2-0.2,0.3-0.4,0.4-0.6c0.1-0.2,0.1-0.5,0.1-0.9c0-0.3,0-0.6-0.1-0.9c-0.1-0.2-0.2-0.4-0.4-0.6c-0.2-0.2-0.3-0.3-0.6-0.4
		c-0.2-0.1-0.4-0.1-0.7-0.1c-0.2,0-0.4,0-0.7,0.1s-0.4,0.2-0.6,0.4c-0.2,0.2-0.3,0.4-0.4,0.6c-0.1,0.2-0.1,0.5-0.1,0.9
		c0,0.3,0,0.6,0.1,0.9c0.1,0.2,0.2,0.4,0.4,0.6c0.2,0.2,0.3,0.3,0.6,0.4S392.1,42.7,392.3,42.7z"/>
	<path class="st12" d="M399.3,44.2h-1.9v-6.9h1.8v0.9c0.2-0.4,0.5-0.6,0.9-0.8c0.4-0.2,0.7-0.3,1.1-0.3c0.4,0,0.8,0.1,1.1,0.2
		c0.3,0.1,0.6,0.3,0.8,0.6c0.2,0.2,0.4,0.5,0.5,0.9c0.1,0.3,0.1,0.7,0.1,1.1v4.3h-1.9v-4c0-0.4-0.1-0.7-0.3-1
		c-0.2-0.3-0.5-0.4-1-0.4c-0.4,0-0.7,0.1-1,0.4c-0.2,0.3-0.3,0.6-0.3,1V44.2z"/>
</g>
<g class="st11">
	<path class="st13" d="M311.3,65.2v-8.6h2.8c1.3,0,2.3,0.4,3,1.2s1.1,1.8,1.1,3.1s-0.4,2.3-1.1,3.1s-1.8,1.2-3,1.2H311.3z
		 M312.4,64.2h1.6c1,0,1.7-0.3,2.3-0.9s0.8-1.4,0.8-2.4s-0.3-1.8-0.8-2.4c-0.6-0.6-1.3-0.9-2.3-0.9h-1.6V64.2z"/>
	<path class="st13" d="M326.1,57.7c0.7,0.8,1.1,1.9,1.1,3.2s-0.4,2.4-1.1,3.2c-0.7,0.8-1.7,1.2-2.8,1.2c-1.1,0-2.1-0.4-2.8-1.2
		c-0.7-0.8-1.1-1.9-1.1-3.2s0.4-2.4,1.1-3.2c0.7-0.8,1.7-1.2,2.8-1.2C324.4,56.5,325.3,56.9,326.1,57.7z M325.3,63.4
		c0.5-0.6,0.8-1.5,0.8-2.5s-0.3-1.8-0.8-2.5c-0.5-0.6-1.2-1-2-1c-0.8,0-1.5,0.3-2,1c-0.5,0.6-0.8,1.5-0.8,2.5s0.3,1.8,0.8,2.5
		c0.5,0.6,1.2,1,2,1C324.1,64.3,324.8,64,325.3,63.4z"/>
	<path class="st13" d="M333.1,60.8c0.5,0.1,0.8,0.4,1.1,0.7c0.3,0.4,0.4,0.8,0.4,1.3c0,0.8-0.3,1.4-0.8,1.8s-1.2,0.6-2.1,0.6h-3.1
		v-8.6h2.8c0.9,0,1.6,0.2,2.1,0.6c0.5,0.4,0.7,1,0.7,1.7c0,0.5-0.1,0.9-0.4,1.2C333.8,60.4,333.5,60.6,333.1,60.8z M329.8,60.4h1.8
		c1.2,0,1.8-0.5,1.8-1.4c0-0.9-0.6-1.4-1.8-1.4h-1.8V60.4z M329.8,61.3v3h2c0.6,0,1-0.1,1.3-0.4c0.3-0.3,0.5-0.6,0.5-1.1
		c0-0.5-0.2-0.8-0.5-1.1c-0.3-0.3-0.7-0.4-1.3-0.4H329.8z"/>
	<path class="st13" d="M341.8,56.6v8.6h-1.1v-7.3l-2.1,1.1v-1.1l2.5-1.3H341.8z"/>
	<path class="st13" d="M343.5,63.2h1.1c0.3,0.8,0.8,1.2,1.6,1.2c0.6,0,1.1-0.3,1.6-0.9c0.4-0.6,0.6-1.4,0.6-2.3c0,0,0-0.1,0-0.2
		c0-0.1,0-0.2,0-0.2c-0.1,0.4-0.4,0.8-0.8,1.1s-0.9,0.4-1.4,0.4c-0.8,0-1.5-0.3-2-0.8c-0.5-0.6-0.8-1.2-0.8-2c0-0.8,0.3-1.5,0.8-2.1
		c0.5-0.6,1.2-0.8,2.1-0.8c1.2,0,2,0.5,2.6,1.6c0.3,0.7,0.5,1.6,0.5,2.6c0,1.4-0.3,2.5-0.9,3.3s-1.3,1.3-2.3,1.3
		C344.8,65.3,343.9,64.6,343.5,63.2z M348.1,59.4c0-0.6-0.2-1-0.5-1.4c-0.3-0.4-0.8-0.5-1.3-0.5c-0.5,0-1,0.2-1.3,0.5
		c-0.3,0.4-0.5,0.8-0.5,1.4s0.2,1,0.5,1.4c0.3,0.4,0.8,0.6,1.3,0.6c0.6,0,1-0.2,1.3-0.5C347.9,60.4,348.1,59.9,348.1,59.4z"/>
	<path class="st13" d="M350.1,65.1c-0.1-0.1-0.2-0.3-0.2-0.5s0.1-0.4,0.2-0.5c0.1-0.1,0.3-0.2,0.5-0.2c0.2,0,0.4,0.1,0.5,0.2
		c0.1,0.1,0.2,0.3,0.2,0.5s-0.1,0.4-0.2,0.5c-0.1,0.1-0.3,0.2-0.5,0.2C350.4,65.3,350.2,65.2,350.1,65.1z"/>
	<path class="st13" d="M357.5,64.1c-0.6,0.8-1.4,1.2-2.3,1.2c-1,0-1.7-0.4-2.3-1.2c-0.6-0.8-0.9-1.9-0.9-3.2c0-1.3,0.3-2.4,0.9-3.2
		s1.4-1.2,2.3-1.2c1,0,1.7,0.4,2.3,1.2s0.9,1.9,0.9,3.2C358.4,62.2,358.1,63.3,357.5,64.1z M355.1,57.5c-0.7,0-1.2,0.3-1.6,0.9
		c-0.4,0.6-0.6,1.5-0.6,2.5s0.2,1.9,0.6,2.5c0.4,0.6,0.9,0.9,1.6,0.9c0.7,0,1.2-0.3,1.6-0.9c0.4-0.6,0.6-1.5,0.6-2.5
		s-0.2-1.9-0.6-2.5S355.8,57.5,355.1,57.5z"/>
	<path class="st13" d="M361.5,61.3v-0.9h0.6c0.5,0,0.9-0.1,1.2-0.4s0.5-0.6,0.5-1.1c0-0.4-0.1-0.8-0.4-1c-0.3-0.3-0.7-0.4-1.1-0.4
		c-0.5,0-0.9,0.1-1.2,0.4c-0.3,0.3-0.5,0.6-0.5,1.1h-1.1c0.1-0.7,0.4-1.3,0.9-1.8c0.5-0.5,1.1-0.7,1.9-0.7c0.8,0,1.4,0.2,1.9,0.7
		c0.5,0.4,0.7,1,0.7,1.7c0,0.5-0.1,0.9-0.4,1.2s-0.6,0.6-1,0.7c0.5,0.1,0.8,0.4,1.1,0.7c0.3,0.4,0.4,0.8,0.4,1.3
		c0,0.7-0.2,1.3-0.7,1.8s-1.2,0.7-2,0.7s-1.5-0.2-2.1-0.7c-0.5-0.5-0.8-1.1-0.9-1.9h1.1c0.1,0.5,0.3,0.9,0.6,1.2
		c0.3,0.3,0.8,0.4,1.3,0.4c0.5,0,0.9-0.1,1.2-0.4c0.3-0.3,0.5-0.7,0.5-1.1c0-0.5-0.2-0.8-0.5-1.1c-0.3-0.3-0.7-0.4-1.3-0.4H361.5z"
		/>
	<path class="st13" d="M366,65.1c-0.1-0.1-0.2-0.3-0.2-0.5s0.1-0.4,0.2-0.5c0.1-0.1,0.3-0.2,0.5-0.2c0.2,0,0.4,0.1,0.5,0.2
		c0.1,0.1,0.2,0.3,0.2,0.5s-0.1,0.4-0.2,0.5c-0.1,0.1-0.3,0.2-0.5,0.2C366.3,65.3,366.1,65.2,366,65.1z"/>
	<path class="st13" d="M370.9,60.6c-0.6,0-1.1,0.2-1.5,0.7h-0.9v-4.7h4.7v1h-3.8v2.6c0.4-0.4,0.9-0.5,1.6-0.5c0.8,0,1.4,0.3,1.9,0.8
		c0.5,0.5,0.8,1.2,0.8,2.1c0,0.8-0.3,1.5-0.8,2c-0.5,0.5-1.2,0.8-2,0.8c-0.8,0-1.5-0.2-2-0.7c-0.5-0.5-0.8-1.1-0.9-1.9h1.1
		c0.2,1.1,0.8,1.6,1.9,1.6c0.5,0,0.9-0.2,1.3-0.5c0.3-0.4,0.5-0.8,0.5-1.4s-0.2-1-0.5-1.4C371.9,60.8,371.4,60.6,370.9,60.6z"/>
	<path class="st13" d="M378.9,56.6l-3.2,5.7h2.7v-2.1h1v2.1h1.5v0.9h-1.5v1.9h-1v-1.9h-4v-0.8l3.3-5.9H378.9z"/>
</g>
<g class="st11">
	<path class="st13" d="M311.3,86.2v-8.6h2.8c1.3,0,2.3,0.4,3,1.2s1.1,1.8,1.1,3.1s-0.4,2.3-1.1,3.1s-1.8,1.2-3,1.2H311.3z
		 M312.4,85.2h1.6c1,0,1.7-0.3,2.3-0.9s0.8-1.4,0.8-2.4s-0.3-1.8-0.8-2.4c-0.6-0.6-1.3-0.9-2.3-0.9h-1.6V85.2z"/>
	<path class="st13" d="M320.7,77.6c0.1,0.1,0.2,0.3,0.2,0.5s-0.1,0.3-0.2,0.5c-0.1,0.1-0.3,0.2-0.5,0.2s-0.3-0.1-0.5-0.2
		c-0.1-0.1-0.2-0.3-0.2-0.5s0.1-0.3,0.2-0.5c0.1-0.1,0.3-0.2,0.5-0.2S320.6,77.5,320.7,77.6z M320.8,80v6.2h-1V80H320.8z"/>
	<path class="st13" d="M327.2,86.2h-1v-0.5c-0.1,0.1-0.3,0.3-0.7,0.4c-0.3,0.1-0.6,0.2-1,0.2c-0.7,0-1.2-0.2-1.6-0.5
		c-0.4-0.4-0.7-0.8-0.7-1.4c0-0.6,0.2-1,0.7-1.4c0.5-0.4,1-0.5,1.7-0.5c0.3,0,0.6,0.1,0.9,0.2s0.5,0.2,0.7,0.3v-0.8
		c0-0.4-0.1-0.7-0.4-1c-0.2-0.2-0.6-0.4-1-0.4c-0.7,0-1.1,0.3-1.3,0.9h-1c0.1-0.5,0.4-0.9,0.8-1.3c0.4-0.3,0.9-0.5,1.5-0.5
		c0.7,0,1.3,0.2,1.7,0.6c0.4,0.4,0.6,0.9,0.6,1.6V86.2z M326.2,84.7V84c-0.1-0.2-0.3-0.4-0.6-0.6c-0.3-0.1-0.6-0.2-0.9-0.2
		c-0.4,0-0.8,0.1-1,0.3s-0.4,0.5-0.4,0.8c0,0.4,0.1,0.6,0.4,0.8s0.6,0.3,1,0.3c0.3,0,0.6-0.1,0.9-0.2
		C325.9,85.1,326.1,84.9,326.2,84.7z"/>
	<path class="st13" d="M330,85.5v0.7h-1.1v-9.1h1.1v3.6c0.2-0.2,0.4-0.4,0.7-0.6s0.7-0.2,1-0.2c0.9,0,1.6,0.3,2.1,0.9
		c0.5,0.6,0.7,1.4,0.7,2.3c0,0.9-0.2,1.7-0.7,2.3c-0.5,0.6-1.2,0.9-2.1,0.9c-0.4,0-0.7-0.1-1-0.2S330.2,85.7,330,85.5z M330,81.8
		v2.5c0.2,0.3,0.4,0.6,0.7,0.7c0.3,0.2,0.6,0.3,0.9,0.3c0.6,0,1-0.2,1.4-0.6s0.5-1,0.5-1.6c0-0.7-0.2-1.2-0.5-1.6s-0.8-0.6-1.4-0.6
		c-0.3,0-0.6,0.1-0.9,0.3C330.4,81.3,330.2,81.5,330,81.8z"/>
	<path class="st13" d="M339.9,84.4h1c-0.1,0.6-0.4,1.1-0.8,1.4s-1,0.5-1.7,0.5c-0.8,0-1.5-0.3-2.1-0.9s-0.8-1.4-0.8-2.3
		c0-0.9,0.3-1.7,0.8-2.3c0.5-0.6,1.2-0.9,2-0.9c0.8,0,1.5,0.3,1.9,0.8s0.7,1.3,0.7,2.2v0.4h-4.4c0,0.7,0.2,1.2,0.5,1.6
		c0.3,0.4,0.8,0.6,1.3,0.6c0.4,0,0.7-0.1,1-0.3C339.7,85,339.8,84.7,339.9,84.4z M338.4,80.8c-0.5,0-0.9,0.2-1.2,0.5
		c-0.3,0.3-0.5,0.7-0.6,1.3h3.3c0-0.5-0.1-0.9-0.4-1.2C339.3,80.9,338.9,80.8,338.4,80.8z"/>
	<path class="st13" d="M342.7,84.6v-3.8h-1V80h1v-1.6h1V80h1.5v0.9h-1.5v3.6c0,0.6,0.3,0.9,0.8,0.9c0.3,0,0.6-0.1,0.8-0.3v1
		c-0.3,0.1-0.6,0.2-1,0.2c-0.5,0-0.9-0.1-1.2-0.4C342.9,85.6,342.7,85.2,342.7,84.6z"/>
	<path class="st13" d="M350.7,84.4h1c-0.1,0.6-0.4,1.1-0.8,1.4s-1,0.5-1.7,0.5c-0.8,0-1.5-0.3-2.1-0.9s-0.8-1.4-0.8-2.3
		c0-0.9,0.3-1.7,0.8-2.3c0.5-0.6,1.2-0.9,2-0.9c0.8,0,1.5,0.3,1.9,0.8s0.7,1.3,0.7,2.2v0.4h-4.4c0,0.7,0.2,1.2,0.5,1.6
		c0.3,0.4,0.8,0.6,1.3,0.6c0.4,0,0.7-0.1,1-0.3C350.4,85,350.6,84.7,350.7,84.4z M349.2,80.8c-0.5,0-0.9,0.2-1.2,0.5
		c-0.3,0.3-0.5,0.7-0.6,1.3h3.3c0-0.5-0.1-0.9-0.4-1.2C350,80.9,349.7,80.8,349.2,80.8z"/>
	<path class="st13" d="M352.7,84.5h1.1c0.2,0.6,0.7,1,1.5,1c0.4,0,0.7-0.1,0.9-0.2c0.2-0.2,0.3-0.4,0.3-0.7c0-0.4-0.3-0.7-0.9-0.9
		l-1.2-0.3c-1-0.3-1.5-0.8-1.5-1.6c0-0.5,0.2-1,0.6-1.3s1-0.5,1.6-0.5c0.7,0,1.2,0.2,1.6,0.5c0.4,0.3,0.7,0.7,0.8,1.3h-1
		c-0.2-0.6-0.6-0.9-1.4-0.9c-0.3,0-0.6,0.1-0.8,0.2c-0.2,0.2-0.4,0.4-0.4,0.7c0,0.2,0.1,0.4,0.2,0.5c0.1,0.1,0.4,0.2,0.7,0.3
		l1.2,0.3c1.1,0.3,1.6,0.9,1.6,1.7c0,0.6-0.2,1-0.6,1.4c-0.4,0.3-1,0.5-1.7,0.5c-0.7,0-1.3-0.2-1.7-0.5
		C353.1,85.5,352.8,85.1,352.7,84.5z"/>
	<path class="st13" d="M361.6,78.6v-1h7.1v1h-3v7.6h-1.1v-7.6H361.6z"/>
	<path class="st13" d="M371,88.6h-1l0.9-2.3l-2.4-6.3h1.1l1.8,4.9l1.8-4.9h1.1L371,88.6z"/>
	<path class="st13" d="M376.6,85.5v3.1h-1V80h1v0.7c0.2-0.2,0.4-0.4,0.7-0.6c0.3-0.2,0.7-0.2,1-0.2c0.9,0,1.6,0.3,2.1,0.9
		c0.5,0.6,0.7,1.4,0.7,2.3c0,0.9-0.2,1.7-0.7,2.3c-0.5,0.6-1.2,0.9-2.1,0.9c-0.4,0-0.7-0.1-1-0.2C377,85.9,376.7,85.7,376.6,85.5z
		 M376.6,81.8v2.5c0.2,0.3,0.4,0.6,0.7,0.7c0.3,0.2,0.6,0.3,0.9,0.3c0.6,0,1-0.2,1.4-0.6s0.5-1,0.5-1.6c0-0.7-0.2-1.2-0.5-1.6
		s-0.8-0.6-1.4-0.6c-0.3,0-0.6,0.1-0.9,0.3C376.9,81.3,376.7,81.5,376.6,81.8z"/>
	<path class="st13" d="M386.5,84.4h1c-0.1,0.6-0.4,1.1-0.8,1.4s-1,0.5-1.7,0.5c-0.8,0-1.5-0.3-2.1-0.9s-0.8-1.4-0.8-2.3
		c0-0.9,0.3-1.7,0.8-2.3s1.2-0.9,2-0.9c0.8,0,1.5,0.3,1.9,0.8c0.5,0.6,0.7,1.3,0.7,2.2v0.4h-4.4c0,0.7,0.2,1.2,0.5,1.6
		c0.3,0.4,0.8,0.6,1.3,0.6c0.4,0,0.7-0.1,1-0.3C386.2,85,386.4,84.7,386.5,84.4z M385,80.8c-0.5,0-0.9,0.2-1.2,0.5
		c-0.3,0.3-0.5,0.7-0.6,1.3h3.3c0-0.5-0.1-0.9-0.4-1.2C385.8,80.9,385.5,80.8,385,80.8z"/>
	<path class="st13" d="M395.9,79.9c0-0.4-0.1-0.8-0.4-1.1c-0.3-0.3-0.7-0.4-1.1-0.4c-0.5,0-0.9,0.2-1.2,0.5
		c-0.3,0.3-0.5,0.7-0.5,1.3h-1.1c0.1-0.8,0.4-1.5,0.9-2c0.5-0.5,1.1-0.7,1.9-0.7c0.8,0,1.5,0.2,1.9,0.7c0.5,0.4,0.7,1,0.7,1.8
		c0,0.1,0,0.3,0,0.4c0,0.1-0.1,0.3-0.1,0.4c0,0.1-0.1,0.2-0.2,0.4c-0.1,0.2-0.2,0.3-0.2,0.3c0,0.1-0.1,0.2-0.3,0.4
		c-0.1,0.2-0.2,0.3-0.3,0.3c0,0.1-0.2,0.2-0.3,0.4c-0.2,0.2-0.3,0.3-0.3,0.4l-2.2,2.4h4.1v1h-5.6v-0.7l2.8-3.1
		c0.4-0.5,0.7-0.8,0.9-1s0.3-0.4,0.5-0.7C395.8,80.5,395.9,80.2,395.9,79.9z"/>
</g>
<g class="st11">
	<path class="st13" d="M317.3,98.6h1.1v8.6h-1.1v-3.9h-4.9v3.9h-1.1v-8.6h1.1v3.7h4.9V98.6z"/>
	<path class="st13" d="M324.8,101.8c0.5,0.6,0.8,1.4,0.8,2.3c0,1-0.3,1.7-0.8,2.3c-0.5,0.6-1.2,0.9-2.1,0.9s-1.5-0.3-2.1-0.9
		c-0.5-0.6-0.8-1.4-0.8-2.3c0-1,0.3-1.7,0.8-2.3c0.5-0.6,1.2-0.9,2.1-0.9S324.3,101.2,324.8,101.8z M324.1,105.8
		c0.3-0.4,0.5-1,0.5-1.7c0-0.7-0.2-1.2-0.5-1.7c-0.3-0.4-0.8-0.6-1.3-0.6s-1,0.2-1.3,0.6c-0.3,0.4-0.5,1-0.5,1.7
		c0,0.7,0.2,1.2,0.5,1.7c0.3,0.4,0.8,0.6,1.3,0.6S323.8,106.2,324.1,105.8z"/>
	<path class="st13" d="M326.5,105.5h1.1c0.2,0.6,0.7,1,1.5,1c0.4,0,0.7-0.1,0.9-0.2c0.2-0.2,0.3-0.4,0.3-0.7c0-0.4-0.3-0.7-0.9-0.9
		l-1.2-0.3c-1-0.3-1.5-0.8-1.5-1.6c0-0.5,0.2-1,0.6-1.3s1-0.5,1.6-0.5c0.7,0,1.2,0.2,1.6,0.5c0.4,0.3,0.7,0.7,0.8,1.3h-1
		c-0.2-0.6-0.6-0.9-1.4-0.9c-0.3,0-0.6,0.1-0.8,0.2c-0.2,0.2-0.4,0.4-0.4,0.7c0,0.2,0.1,0.4,0.2,0.5c0.1,0.1,0.4,0.2,0.7,0.3
		l1.2,0.3c1.1,0.3,1.6,0.9,1.6,1.7c0,0.6-0.2,1-0.6,1.4c-0.4,0.3-1,0.5-1.7,0.5c-0.7,0-1.3-0.2-1.7-0.5
		C326.9,106.5,326.6,106.1,326.5,105.5z"/>
	<path class="st13" d="M333.9,106.5v3.1h-1V101h1v0.7c0.2-0.2,0.4-0.4,0.7-0.6c0.3-0.2,0.7-0.2,1-0.2c0.9,0,1.6,0.3,2.1,0.9
		c0.5,0.6,0.7,1.4,0.7,2.3c0,0.9-0.2,1.7-0.7,2.3c-0.5,0.6-1.2,0.9-2.1,0.9c-0.4,0-0.7-0.1-1-0.2
		C334.3,106.9,334.1,106.7,333.9,106.5z M333.9,102.8v2.5c0.2,0.3,0.4,0.6,0.7,0.7c0.3,0.2,0.6,0.3,0.9,0.3c0.6,0,1-0.2,1.4-0.6
		s0.5-1,0.5-1.6c0-0.7-0.2-1.2-0.5-1.6s-0.8-0.6-1.4-0.6c-0.3,0-0.6,0.1-0.9,0.3C334.3,102.3,334.1,102.5,333.9,102.8z"/>
	<path class="st13" d="M340.9,98.6c0.1,0.1,0.2,0.3,0.2,0.5s-0.1,0.3-0.2,0.5c-0.1,0.1-0.3,0.2-0.5,0.2c-0.2,0-0.3-0.1-0.5-0.2
		s-0.2-0.3-0.2-0.5s0.1-0.3,0.2-0.5c0.1-0.1,0.3-0.2,0.5-0.2C340.6,98.5,340.8,98.5,340.9,98.6z M340.9,101v6.2h-1V101H340.9z"/>
	<path class="st13" d="M343.1,105.6v-3.8h-1V101h1v-1.6h1v1.6h1.5v0.9h-1.5v3.6c0,0.6,0.3,0.9,0.8,0.9c0.3,0,0.6-0.1,0.8-0.3v1
		c-0.3,0.1-0.6,0.2-1,0.2c-0.5,0-0.9-0.1-1.2-0.4C343.3,106.6,343.1,106.2,343.1,105.6z"/>
	<path class="st13" d="M351.7,107.2h-1v-0.5c-0.1,0.1-0.4,0.3-0.7,0.4s-0.6,0.2-1,0.2c-0.7,0-1.2-0.2-1.6-0.5
		c-0.4-0.4-0.7-0.8-0.7-1.4c0-0.6,0.2-1,0.7-1.4c0.5-0.4,1-0.5,1.7-0.5c0.3,0,0.6,0.1,0.9,0.2s0.5,0.2,0.7,0.3v-0.8
		c0-0.4-0.1-0.7-0.4-1c-0.2-0.2-0.6-0.4-1-0.4c-0.7,0-1.1,0.3-1.3,0.9h-1c0.1-0.5,0.4-0.9,0.8-1.3c0.4-0.3,0.9-0.5,1.5-0.5
		c0.7,0,1.3,0.2,1.7,0.6c0.4,0.4,0.6,0.9,0.6,1.6V107.2z M350.7,105.7V105c-0.1-0.2-0.3-0.4-0.6-0.6c-0.3-0.1-0.6-0.2-0.9-0.2
		c-0.4,0-0.8,0.1-1,0.3c-0.3,0.2-0.4,0.5-0.4,0.8c0,0.4,0.1,0.6,0.4,0.8c0.3,0.2,0.6,0.3,1,0.3c0.3,0,0.6-0.1,0.9-0.2
		C350.4,106.1,350.6,105.9,350.7,105.7z"/>
	<path class="st13" d="M354.5,98.1v9.1h-1v-9.1H354.5z"/>
	<path class="st13" d="M359.8,106.4c-0.5-0.6-0.8-1.4-0.8-2.3c0-1,0.3-1.7,0.8-2.3c0.5-0.6,1.2-0.9,2-0.9c0.7,0,1.2,0.2,1.7,0.5
		c0.4,0.4,0.7,0.8,0.8,1.5h-1.1c-0.1-0.3-0.2-0.6-0.5-0.8c-0.2-0.2-0.6-0.3-0.9-0.3c-0.5,0-1,0.2-1.3,0.6c-0.3,0.4-0.5,1-0.5,1.7
		c0,0.7,0.2,1.2,0.5,1.7c0.3,0.4,0.7,0.6,1.3,0.6c0.4,0,0.7-0.1,0.9-0.3c0.2-0.2,0.4-0.5,0.5-0.8h1.1c-0.1,0.6-0.4,1.1-0.8,1.5
		c-0.4,0.4-1,0.5-1.7,0.5C361,107.3,360.3,107,359.8,106.4z"/>
	<path class="st13" d="M365.7,107.2v-9.1h1v3.7c0.2-0.3,0.5-0.5,0.8-0.7s0.7-0.3,1.1-0.3c0.7,0,1.2,0.2,1.6,0.6
		c0.4,0.4,0.6,1,0.6,1.7v4.1h-1.1v-3.9c0-0.4-0.1-0.8-0.3-1.1c-0.2-0.3-0.6-0.4-1-0.4c-0.4,0-0.7,0.1-1,0.3s-0.5,0.5-0.6,0.8v4.2
		H365.7z"/>
	<path class="st13" d="M377,101.8c0.5,0.6,0.8,1.4,0.8,2.3c0,1-0.3,1.7-0.8,2.3c-0.5,0.6-1.2,0.9-2.1,0.9s-1.5-0.3-2.1-0.9
		c-0.5-0.6-0.8-1.4-0.8-2.3c0-1,0.3-1.7,0.8-2.3c0.5-0.6,1.2-0.9,2.1-0.9S376.5,101.2,377,101.8z M376.3,105.8
		c0.3-0.4,0.5-1,0.5-1.7c0-0.7-0.2-1.2-0.5-1.7c-0.3-0.4-0.8-0.6-1.3-0.6s-1,0.2-1.3,0.6c-0.3,0.4-0.5,1-0.5,1.7
		c0,0.7,0.2,1.2,0.5,1.7c0.3,0.4,0.8,0.6,1.3,0.6S376,106.2,376.3,105.8z"/>
	<path class="st13" d="M380.3,98.6c0.1,0.1,0.2,0.3,0.2,0.5s-0.1,0.3-0.2,0.5c-0.1,0.1-0.3,0.2-0.5,0.2s-0.3-0.1-0.5-0.2
		c-0.1-0.1-0.2-0.3-0.2-0.5s0.1-0.3,0.2-0.5c0.1-0.1,0.3-0.2,0.5-0.2S380.1,98.5,380.3,98.6z M380.3,101v6.2h-1V101H380.3z"/>
	<path class="st13" d="M382.5,106.4c-0.5-0.6-0.8-1.4-0.8-2.3c0-1,0.3-1.7,0.8-2.3c0.5-0.6,1.2-0.9,2-0.9c0.7,0,1.2,0.2,1.7,0.5
		c0.4,0.4,0.7,0.8,0.8,1.5H386c-0.1-0.3-0.2-0.6-0.5-0.8c-0.2-0.2-0.6-0.3-0.9-0.3c-0.5,0-1,0.2-1.3,0.6c-0.3,0.4-0.5,1-0.5,1.7
		c0,0.7,0.2,1.2,0.5,1.7c0.3,0.4,0.7,0.6,1.3,0.6c0.4,0,0.7-0.1,0.9-0.3c0.2-0.2,0.4-0.5,0.5-0.8h1.1c-0.1,0.6-0.4,1.1-0.8,1.5
		c-0.4,0.4-1,0.5-1.7,0.5C383.7,107.3,383,107,382.5,106.4z"/>
	<path class="st13" d="M392.3,105.4h1c-0.1,0.6-0.4,1.1-0.8,1.4s-1,0.5-1.7,0.5c-0.8,0-1.5-0.3-2.1-0.9s-0.8-1.4-0.8-2.3
		c0-0.9,0.3-1.7,0.8-2.3s1.2-0.9,2-0.9c0.8,0,1.5,0.3,1.9,0.8c0.5,0.6,0.7,1.3,0.7,2.2v0.4H389c0,0.7,0.2,1.2,0.5,1.6
		c0.3,0.4,0.8,0.6,1.3,0.6c0.4,0,0.7-0.1,1-0.3C392.1,106,392.2,105.7,392.3,105.4z M390.8,101.8c-0.5,0-0.9,0.2-1.2,0.5
		c-0.3,0.3-0.5,0.7-0.6,1.3h3.3c0-0.5-0.1-0.9-0.4-1.2C391.7,101.9,391.3,101.8,390.8,101.8z"/>
	<path class="st13" d="M397.5,104v-1h3.4v1H397.5z"/>
	<path class="st13" d="M404.9,105h1.1c0.3,1,1.1,1.4,2.2,1.4c0.6,0,1-0.1,1.4-0.4c0.4-0.3,0.5-0.6,0.5-1.1c0-0.3-0.1-0.6-0.3-0.8
		c-0.2-0.2-0.6-0.4-1-0.5l-1.5-0.4c-1.4-0.4-2.1-1.1-2.1-2.2c0-0.7,0.3-1.3,0.8-1.8c0.5-0.5,1.2-0.7,2-0.7c0.9,0,1.6,0.2,2.1,0.6
		c0.5,0.4,0.9,1,1,1.7H410c-0.3-0.9-1-1.3-2-1.3c-0.5,0-1,0.1-1.3,0.4c-0.3,0.3-0.5,0.6-0.5,1c0,0.4,0.1,0.6,0.3,0.8
		c0.2,0.2,0.6,0.4,1,0.5l1.5,0.4c1.4,0.4,2.1,1.1,2.1,2.3c0,0.8-0.3,1.4-0.8,1.8c-0.6,0.4-1.3,0.7-2.1,0.7s-1.6-0.2-2.2-0.6
		S405,105.7,404.9,105z"/>
	<path class="st13" d="M412.9,105.6v-3.8h-1V101h1v-1.6h1.1v1.6h1.5v0.9h-1.5v3.6c0,0.6,0.3,0.9,0.8,0.9c0.3,0,0.6-0.1,0.8-0.3v1
		c-0.3,0.1-0.6,0.2-1,0.2c-0.5,0-0.9-0.1-1.2-0.4C413,106.6,412.9,106.2,412.9,105.6z"/>
	<path class="st13" d="M419.6,99.6v-1h7.1v1h-3v7.6h-1.1v-7.6H419.6z"/>
	<path class="st13" d="M428,107.2v-9.1h1v3.7c0.2-0.3,0.5-0.5,0.8-0.7c0.3-0.2,0.7-0.3,1.1-0.3c0.7,0,1.2,0.2,1.6,0.6
		c0.4,0.4,0.6,1,0.6,1.7v4.1H432v-3.9c0-0.4-0.1-0.8-0.3-1.1c-0.2-0.3-0.6-0.4-1-0.4c-0.4,0-0.7,0.1-1,0.3c-0.3,0.2-0.5,0.5-0.6,0.8
		v4.2H428z"/>
	<path class="st13" d="M439.4,101.8c0.5,0.6,0.8,1.4,0.8,2.3c0,1-0.3,1.7-0.8,2.3c-0.5,0.6-1.2,0.9-2.1,0.9s-1.5-0.3-2.1-0.9
		c-0.5-0.6-0.8-1.4-0.8-2.3c0-1,0.3-1.7,0.8-2.3c0.5-0.6,1.2-0.9,2.1-0.9S438.8,101.2,439.4,101.8z M438.6,105.8
		c0.3-0.4,0.5-1,0.5-1.7c0-0.7-0.2-1.2-0.5-1.7c-0.3-0.4-0.8-0.6-1.3-0.6s-1,0.2-1.3,0.6c-0.3,0.4-0.5,1-0.5,1.7
		c0,0.7,0.2,1.2,0.5,1.7c0.3,0.4,0.8,0.6,1.3,0.6S438.3,106.2,438.6,105.8z"/>
	<path class="st13" d="M446,101.9c0.5-0.7,1.1-1,1.9-1c0.6,0,1.1,0.2,1.4,0.6s0.5,0.9,0.5,1.6v4.1h-1.1v-3.9c0-0.4-0.1-0.8-0.3-1.1
		c-0.2-0.3-0.5-0.4-0.9-0.4c-0.3,0-0.6,0.1-0.9,0.3c-0.3,0.2-0.4,0.5-0.5,0.8v4.3h-1v-3.9c0-0.4-0.1-0.8-0.3-1.1s-0.5-0.4-0.9-0.4
		c-0.3,0-0.6,0.1-0.9,0.3c-0.3,0.2-0.4,0.5-0.5,0.8v4.3h-1V101h1v0.7c0.4-0.6,0.9-0.9,1.7-0.9C445.1,100.9,445.7,101.2,446,101.9z"
		/>
	<path class="st13" d="M456.1,107.2h-1v-0.5c-0.1,0.1-0.4,0.3-0.7,0.4s-0.6,0.2-1,0.2c-0.7,0-1.2-0.2-1.6-0.5
		c-0.4-0.4-0.7-0.8-0.7-1.4c0-0.6,0.2-1,0.7-1.4c0.5-0.4,1-0.5,1.7-0.5c0.3,0,0.6,0.1,0.9,0.2s0.5,0.2,0.7,0.3v-0.8
		c0-0.4-0.1-0.7-0.4-1c-0.2-0.2-0.6-0.4-1-0.4c-0.7,0-1.1,0.3-1.3,0.9h-1c0.1-0.5,0.4-0.9,0.8-1.3c0.4-0.3,0.9-0.5,1.5-0.5
		c0.7,0,1.3,0.2,1.7,0.6c0.4,0.4,0.6,0.9,0.6,1.6V107.2z M455.1,105.7V105c-0.1-0.2-0.3-0.4-0.6-0.6c-0.3-0.1-0.6-0.2-0.9-0.2
		c-0.4,0-0.8,0.1-1,0.3c-0.3,0.2-0.4,0.5-0.4,0.8c0,0.4,0.1,0.6,0.4,0.8c0.3,0.2,0.6,0.3,1,0.3c0.3,0,0.6-0.1,0.9-0.2
		C454.8,106.1,455,105.9,455.1,105.7z"/>
	<path class="st13" d="M457.4,105.5h1.1c0.2,0.6,0.7,1,1.5,1c0.4,0,0.7-0.1,0.9-0.2c0.2-0.2,0.3-0.4,0.3-0.7c0-0.4-0.3-0.7-0.9-0.9
		l-1.2-0.3c-1-0.3-1.5-0.8-1.5-1.6c0-0.5,0.2-1,0.6-1.3s1-0.5,1.6-0.5c0.7,0,1.2,0.2,1.6,0.5c0.4,0.3,0.7,0.7,0.8,1.3h-1
		c-0.2-0.6-0.6-0.9-1.4-0.9c-0.3,0-0.6,0.1-0.8,0.2c-0.2,0.2-0.4,0.4-0.4,0.7c0,0.2,0.1,0.4,0.2,0.5c0.1,0.1,0.4,0.2,0.7,0.3
		l1.2,0.3c1.1,0.3,1.6,0.9,1.6,1.7c0,0.6-0.2,1-0.6,1.4c-0.4,0.3-1,0.5-1.7,0.5c-0.7,0-1.3-0.2-1.7-0.5
		C457.8,106.5,457.5,106.1,457.4,105.5z"/>
	<path class="st13" d="M463,101.4l0.9-1.4c-0.2,0-0.3-0.1-0.4-0.2c-0.1-0.1-0.2-0.3-0.2-0.5c0-0.2,0.1-0.4,0.2-0.5
		c0.1-0.1,0.3-0.2,0.5-0.2c0.2,0,0.4,0.1,0.5,0.2c0.1,0.1,0.2,0.3,0.2,0.6c0,0.2-0.1,0.5-0.3,0.9l-0.7,1.2H463z"/>
</g>
<g class="st11">
	<path class="st13" d="M315.9,128.2h-0.8l-2.7-6.6v6.6h-1v-8.6h1.2l2.9,7.1l2.9-7.1h1.2v8.6h-1v-6.6L315.9,128.2z"/>
	<path class="st13" d="M322.6,119.6c0.1,0.1,0.2,0.3,0.2,0.5s-0.1,0.3-0.2,0.5c-0.1,0.1-0.3,0.2-0.5,0.2s-0.3-0.1-0.5-0.2
		c-0.1-0.1-0.2-0.3-0.2-0.5s0.1-0.3,0.2-0.5c0.1-0.1,0.3-0.2,0.5-0.2S322.4,119.5,322.6,119.6z M322.6,122v6.2h-1V122H322.6z"/>
	<path class="st13" d="M324.8,127.4c-0.5-0.6-0.8-1.4-0.8-2.3c0-1,0.3-1.7,0.8-2.3c0.5-0.6,1.2-0.9,2-0.9c0.7,0,1.2,0.2,1.7,0.5
		c0.4,0.4,0.7,0.8,0.8,1.5h-1.1c-0.1-0.3-0.2-0.6-0.5-0.8c-0.2-0.2-0.6-0.3-0.9-0.3c-0.5,0-1,0.2-1.3,0.6c-0.3,0.4-0.5,1-0.5,1.7
		c0,0.7,0.2,1.2,0.5,1.7c0.3,0.4,0.7,0.6,1.3,0.6c0.4,0,0.7-0.1,0.9-0.3c0.2-0.2,0.4-0.5,0.5-0.8h1.1c-0.1,0.6-0.4,1.1-0.8,1.5
		c-0.4,0.4-1,0.5-1.7,0.5C326,128.3,325.3,128,324.8,127.4z"/>
	<path class="st13" d="M330.7,128.2v-9.1h1v3.7c0.2-0.3,0.5-0.5,0.8-0.7c0.3-0.2,0.7-0.3,1.1-0.3c0.7,0,1.2,0.2,1.6,0.6
		c0.4,0.4,0.6,1,0.6,1.7v4.1h-1.1v-3.9c0-0.4-0.1-0.8-0.3-1.1c-0.2-0.3-0.6-0.4-1-0.4c-0.4,0-0.7,0.1-1,0.3
		c-0.3,0.2-0.5,0.5-0.6,0.8v4.2H330.7z"/>
	<path class="st13" d="M341.5,126.4h1c-0.1,0.6-0.4,1.1-0.8,1.4s-1,0.5-1.7,0.5c-0.8,0-1.5-0.3-2.1-0.9s-0.8-1.4-0.8-2.3
		c0-0.9,0.3-1.7,0.8-2.3s1.2-0.9,2-0.9c0.8,0,1.5,0.3,1.9,0.8c0.5,0.6,0.7,1.3,0.7,2.2v0.4h-4.4c0,0.7,0.2,1.2,0.5,1.6
		c0.3,0.4,0.8,0.6,1.3,0.6c0.4,0,0.7-0.1,1-0.3C341.2,127,341.4,126.7,341.5,126.4z M340,122.8c-0.5,0-0.9,0.2-1.2,0.5
		c-0.3,0.3-0.5,0.7-0.6,1.3h3.3c0-0.5-0.1-0.9-0.4-1.2C340.8,122.9,340.5,122.8,340,122.8z"/>
	<path class="st13" d="M345,119.1v9.1h-1v-9.1H345z"/>
	<path class="st13" d="M347.9,119.1v9.1h-1v-9.1H347.9z"/>
	<path class="st13" d="M353.7,126.4h1c-0.1,0.6-0.4,1.1-0.8,1.4s-1,0.5-1.7,0.5c-0.8,0-1.5-0.3-2.1-0.9s-0.8-1.4-0.8-2.3
		c0-0.9,0.3-1.7,0.8-2.3s1.2-0.9,2-0.9c0.8,0,1.5,0.3,1.9,0.8c0.5,0.6,0.7,1.3,0.7,2.2v0.4h-4.4c0,0.7,0.2,1.2,0.5,1.6
		c0.3,0.4,0.8,0.6,1.3,0.6c0.4,0,0.7-0.1,1-0.3C353.5,127,353.7,126.7,353.7,126.4z M352.2,122.8c-0.5,0-0.9,0.2-1.2,0.5
		c-0.3,0.3-0.5,0.7-0.6,1.3h3.3c0-0.5-0.1-0.9-0.4-1.2C353.1,122.9,352.7,122.8,352.2,122.8z"/>
	<path class="st13" d="M362,119.6h1l3.4,8.6h-1.1l-1-2.6h-3.5l-1,2.6h-1.1L362,119.6z M362.5,121l-1.4,3.7h2.8L362.5,121z"/>
	<path class="st13" d="M367.7,128.2V122h1v0.8c0.2-0.3,0.5-0.5,0.8-0.7c0.3-0.2,0.7-0.3,1.1-0.3c0.7,0,1.2,0.2,1.6,0.6
		c0.4,0.4,0.6,1,0.6,1.7v4.1h-1.1v-3.9c0-0.4-0.1-0.8-0.3-1.1c-0.2-0.3-0.6-0.4-1-0.4c-0.4,0-0.7,0.1-1,0.3
		c-0.3,0.2-0.5,0.5-0.6,0.8v4.2H367.7z"/>
	<path class="st13" d="M378.6,128.2v-0.7c-0.2,0.2-0.4,0.4-0.7,0.6s-0.7,0.2-1,0.2c-0.9,0-1.6-0.3-2.1-0.9c-0.5-0.6-0.7-1.4-0.7-2.3
		c0-0.9,0.2-1.7,0.7-2.3c0.5-0.6,1.2-0.9,2.1-0.9c0.4,0,0.7,0.1,1,0.2s0.6,0.4,0.7,0.6v-3.6h1.1v9.1H378.6z M378.6,126.4v-2.5
		c-0.2-0.3-0.4-0.6-0.7-0.7c-0.3-0.2-0.6-0.3-0.9-0.3c-0.6,0-1,0.2-1.4,0.6s-0.5,1-0.5,1.6c0,0.7,0.2,1.2,0.5,1.6s0.8,0.6,1.4,0.6
		c0.3,0,0.6-0.1,0.9-0.3C378.2,126.9,378.5,126.7,378.6,126.4z"/>
	<path class="st13" d="M385.5,126.4h1c-0.1,0.6-0.4,1.1-0.8,1.4s-1,0.5-1.7,0.5c-0.8,0-1.5-0.3-2.1-0.9s-0.8-1.4-0.8-2.3
		c0-0.9,0.3-1.7,0.8-2.3c0.5-0.6,1.2-0.9,2-0.9c0.8,0,1.5,0.3,1.9,0.8s0.7,1.3,0.7,2.2v0.4h-4.4c0,0.7,0.2,1.2,0.5,1.6
		c0.3,0.4,0.8,0.6,1.3,0.6c0.4,0,0.7-0.1,1-0.3C385.2,127,385.4,126.7,385.5,126.4z M383.9,122.8c-0.5,0-0.9,0.2-1.2,0.5
		c-0.3,0.3-0.5,0.7-0.6,1.3h3.3c0-0.5-0.1-0.9-0.4-1.2C384.8,122.9,384.4,122.8,383.9,122.8z"/>
	<path class="st13" d="M391.1,122v1.1c-0.2-0.1-0.4-0.2-0.7-0.2c-0.3,0-0.6,0.1-0.9,0.3c-0.3,0.2-0.4,0.5-0.5,0.9v4.2h-1V122h1v0.8
		c0.1-0.3,0.3-0.5,0.6-0.7c0.3-0.2,0.6-0.3,0.9-0.3C390.8,121.9,391,121.9,391.1,122z"/>
	<path class="st13" d="M391.9,126.5h1.1c0.2,0.6,0.7,1,1.5,1c0.4,0,0.7-0.1,0.9-0.2c0.2-0.2,0.3-0.4,0.3-0.7c0-0.4-0.3-0.7-0.9-0.9
		l-1.2-0.3c-1-0.3-1.5-0.8-1.5-1.6c0-0.5,0.2-1,0.6-1.3s1-0.5,1.6-0.5c0.7,0,1.2,0.2,1.6,0.5c0.4,0.3,0.7,0.7,0.8,1.3h-1
		c-0.2-0.6-0.6-0.9-1.4-0.9c-0.3,0-0.6,0.1-0.8,0.2c-0.2,0.2-0.4,0.4-0.4,0.7c0,0.2,0.1,0.4,0.2,0.5c0.1,0.1,0.4,0.2,0.7,0.3
		l1.2,0.3c1.1,0.3,1.6,0.9,1.6,1.7c0,0.6-0.2,1-0.6,1.4c-0.4,0.3-1,0.5-1.7,0.5c-0.7,0-1.3-0.2-1.7-0.5
		C392.2,127.5,392,127.1,391.9,126.5z"/>
	<path class="st13" d="M402.7,122.8c0.5,0.6,0.8,1.4,0.8,2.3c0,1-0.3,1.7-0.8,2.3c-0.5,0.6-1.2,0.9-2.1,0.9c-0.8,0-1.5-0.3-2.1-0.9
		c-0.5-0.6-0.8-1.4-0.8-2.3c0-1,0.3-1.7,0.8-2.3c0.5-0.6,1.2-0.9,2.1-0.9C401.4,121.9,402.1,122.2,402.7,122.8z M401.9,126.8
		c0.3-0.4,0.5-1,0.5-1.7c0-0.7-0.2-1.2-0.5-1.7s-0.8-0.6-1.3-0.6c-0.6,0-1,0.2-1.3,0.6s-0.5,1-0.5,1.7c0,0.7,0.2,1.2,0.5,1.7
		s0.8,0.6,1.3,0.6C401.1,127.4,401.6,127.2,401.9,126.8z"/>
	<path class="st13" d="M404.9,128.2V122h1v0.8c0.2-0.3,0.5-0.5,0.8-0.7s0.7-0.3,1.1-0.3c0.7,0,1.2,0.2,1.6,0.6
		c0.4,0.4,0.6,1,0.6,1.7v4.1h-1.1v-3.9c0-0.4-0.1-0.8-0.3-1.1c-0.2-0.3-0.6-0.4-1-0.4c-0.4,0-0.7,0.1-1,0.3s-0.5,0.5-0.6,0.8v4.2
		H404.9z"/>
</g>
<g class="st11">
	<path class="st13" d="M316.4,148.1c-0.6,0.8-1.4,1.2-2.3,1.2c-1,0-1.7-0.4-2.3-1.2c-0.6-0.8-0.9-1.9-0.9-3.2c0-1.3,0.3-2.4,0.9-3.2
		s1.4-1.2,2.3-1.2c1,0,1.7,0.4,2.3,1.2s0.9,1.9,0.9,3.2C317.3,146.2,317,147.3,316.4,148.1z M314.1,141.5c-0.7,0-1.2,0.3-1.6,0.9
		c-0.4,0.6-0.6,1.5-0.6,2.5s0.2,1.9,0.6,2.5c0.4,0.6,0.9,0.9,1.6,0.9c0.7,0,1.2-0.3,1.6-0.9c0.4-0.6,0.6-1.5,0.6-2.5
		s-0.2-1.9-0.6-2.5S314.8,141.5,314.1,141.5z"/>
	<path class="st13" d="M323.4,141.5l-3.1,7.7h-1.1l3-7.6h-4.4v-1h5.6V141.5z"/>
	<path class="st13" d="M327.1,149.3c-0.8,0-1.5-0.2-2.1-0.7c-0.6-0.5-0.8-1.1-0.8-1.8c0-0.5,0.2-1,0.5-1.4c0.3-0.4,0.7-0.7,1.2-0.8
		c-0.4-0.1-0.7-0.4-1-0.7c-0.3-0.3-0.4-0.7-0.4-1.2c0-0.7,0.2-1.2,0.7-1.6c0.5-0.4,1.1-0.6,1.9-0.6c0.8,0,1.4,0.2,1.9,0.6
		c0.5,0.4,0.7,1,0.7,1.6c0,0.5-0.1,0.9-0.4,1.2s-0.6,0.6-1,0.7c0.5,0.1,0.9,0.4,1.2,0.8c0.3,0.4,0.5,0.9,0.5,1.4
		c0,0.7-0.3,1.3-0.8,1.8C328.6,149.1,327.9,149.3,327.1,149.3z M327.1,148.4c0.6,0,1-0.2,1.4-0.5c0.3-0.3,0.5-0.7,0.5-1.2
		s-0.2-0.9-0.5-1.2c-0.4-0.3-0.8-0.5-1.4-0.5c-0.5,0-1,0.2-1.3,0.5c-0.3,0.3-0.5,0.7-0.5,1.2s0.2,0.9,0.5,1.2
		C326.1,148.3,326.5,148.4,327.1,148.4z M327.1,144.2c0.5,0,0.8-0.1,1.1-0.4c0.3-0.3,0.4-0.6,0.4-1c0-0.4-0.1-0.8-0.4-1
		c-0.3-0.3-0.7-0.4-1.1-0.4c-0.4,0-0.8,0.1-1.1,0.4c-0.3,0.3-0.4,0.6-0.4,1c0,0.4,0.1,0.7,0.4,1
		C326.3,144.1,326.6,144.2,327.1,144.2z"/>
	<path class="st13" d="M336.6,148.1c-0.6,0.8-1.4,1.2-2.3,1.2c-1,0-1.7-0.4-2.3-1.2c-0.6-0.8-0.9-1.9-0.9-3.2c0-1.3,0.3-2.4,0.9-3.2
		s1.4-1.2,2.3-1.2c1,0,1.7,0.4,2.3,1.2s0.9,1.9,0.9,3.2C337.5,146.2,337.2,147.3,336.6,148.1z M334.3,141.5c-0.7,0-1.2,0.3-1.6,0.9
		c-0.4,0.6-0.6,1.5-0.6,2.5s0.2,1.9,0.6,2.5c0.4,0.6,0.9,0.9,1.6,0.9c0.7,0,1.2-0.3,1.6-0.9c0.4-0.6,0.6-1.5,0.6-2.5
		s-0.2-1.9-0.6-2.5S334.9,141.5,334.3,141.5z"/>
	<path class="st13" d="M342.8,140.6l-3.2,5.7h2.7v-2.1h1v2.1h1.5v0.9h-1.5v1.9h-1v-1.9h-4v-0.8l3.3-5.9H342.8z"/>
	<path class="st13" d="M354.1,141.5l-3.1,7.7h-1.1l3-7.6h-4.4v-1h5.6V141.5z"/>
	<path class="st13" d="M357.7,144.6c-0.6,0-1.1,0.2-1.5,0.7h-0.9v-4.7h4.7v1h-3.8v2.6c0.4-0.4,0.9-0.5,1.6-0.5
		c0.8,0,1.4,0.3,1.9,0.8c0.5,0.5,0.8,1.2,0.8,2.1c0,0.8-0.3,1.5-0.8,2c-0.5,0.5-1.2,0.8-2,0.8c-0.8,0-1.5-0.2-2-0.7
		c-0.5-0.5-0.8-1.1-0.9-1.9h1.1c0.2,1.1,0.8,1.6,1.9,1.6c0.5,0,0.9-0.2,1.3-0.5c0.3-0.4,0.5-0.8,0.5-1.4s-0.2-1-0.5-1.4
		C358.7,144.8,358.3,144.6,357.7,144.6z"/>
	<path class="st13" d="M364.5,149.3c-0.8,0-1.5-0.2-2.1-0.7c-0.6-0.5-0.8-1.1-0.8-1.8c0-0.5,0.2-1,0.5-1.4c0.3-0.4,0.7-0.7,1.2-0.8
		c-0.4-0.1-0.7-0.4-1-0.7c-0.3-0.3-0.4-0.7-0.4-1.2c0-0.7,0.2-1.2,0.7-1.6c0.5-0.4,1.1-0.6,1.9-0.6c0.8,0,1.4,0.2,1.9,0.6
		c0.5,0.4,0.7,1,0.7,1.6c0,0.5-0.1,0.9-0.4,1.2s-0.6,0.6-1,0.7c0.5,0.1,0.9,0.4,1.2,0.8c0.3,0.4,0.5,0.9,0.5,1.4
		c0,0.7-0.3,1.3-0.8,1.8C366,149.1,365.3,149.3,364.5,149.3z M364.5,148.4c0.6,0,1-0.2,1.4-0.5c0.4-0.3,0.5-0.7,0.5-1.2
		s-0.2-0.9-0.5-1.2c-0.3-0.3-0.8-0.5-1.4-0.5c-0.5,0-1,0.2-1.3,0.5c-0.4,0.3-0.5,0.7-0.5,1.2s0.2,0.9,0.5,1.2
		C363.5,148.3,363.9,148.4,364.5,148.4z M364.5,144.2c0.5,0,0.8-0.1,1.1-0.4c0.3-0.3,0.4-0.6,0.4-1c0-0.4-0.1-0.8-0.4-1
		c-0.3-0.3-0.7-0.4-1.1-0.4c-0.4,0-0.8,0.1-1.1,0.4c-0.3,0.3-0.4,0.6-0.4,1c0,0.4,0.1,0.7,0.4,1C363.6,144.1,364,144.2,364.5,144.2z
		"/>
	<path class="st13" d="M372.6,140.6l-3.2,5.7h2.7v-2.1h1v2.1h1.5v0.9h-1.5v1.9h-1v-1.9h-4v-0.8l3.3-5.9H372.6z"/>
</g>
<g class="st11">
	<path class="st13" d="M311.9,169.1c-0.7-0.8-1.1-1.9-1.1-3.2c0-1.3,0.4-2.4,1.1-3.2s1.6-1.2,2.8-1.2c0.9,0,1.6,0.2,2.2,0.7
		c0.6,0.5,1,1.1,1.1,1.9h-1.1c-0.4-1.1-1.1-1.7-2.3-1.7c-0.8,0-1.5,0.3-2,0.9s-0.8,1.5-0.8,2.5c0,1,0.3,1.8,0.8,2.5s1.2,1,2,1
		c1.1,0,1.9-0.6,2.3-1.7h1.1c-0.2,0.8-0.6,1.5-1.1,1.9c-0.6,0.5-1.3,0.7-2.2,0.7C313.6,170.3,312.7,169.9,311.9,169.1z"/>
	<path class="st13" d="M324,170.2h-1v-0.5c-0.1,0.1-0.4,0.3-0.7,0.4s-0.6,0.2-1,0.2c-0.7,0-1.2-0.2-1.6-0.5
		c-0.4-0.4-0.7-0.8-0.7-1.4c0-0.6,0.2-1,0.7-1.4c0.5-0.4,1-0.5,1.7-0.5c0.3,0,0.6,0.1,0.9,0.2s0.5,0.2,0.7,0.3v-0.8
		c0-0.4-0.1-0.7-0.4-1c-0.2-0.2-0.6-0.4-1-0.4c-0.7,0-1.1,0.3-1.3,0.9h-1c0.1-0.5,0.4-0.9,0.8-1.3c0.4-0.3,0.9-0.5,1.5-0.5
		c0.7,0,1.3,0.2,1.7,0.6c0.4,0.4,0.6,0.9,0.6,1.6V170.2z M323,168.7V168c-0.1-0.2-0.3-0.4-0.6-0.6c-0.3-0.1-0.6-0.2-0.9-0.2
		c-0.4,0-0.8,0.1-1,0.3c-0.3,0.2-0.4,0.5-0.4,0.8c0,0.4,0.1,0.6,0.4,0.8c0.3,0.2,0.6,0.3,1,0.3c0.3,0,0.6-0.1,0.9-0.2
		C322.7,169.1,322.9,168.9,323,168.7z"/>
	<path class="st13" d="M329,164v1.1c-0.2-0.1-0.4-0.2-0.7-0.2c-0.3,0-0.6,0.1-0.9,0.3c-0.3,0.2-0.4,0.5-0.5,0.9v4.2h-1V164h1v0.8
		c0.1-0.3,0.3-0.5,0.6-0.7c0.3-0.2,0.6-0.3,0.9-0.3C328.6,163.9,328.8,163.9,329,164z"/>
	<path class="st13" d="M334,168.4h1c-0.1,0.6-0.4,1.1-0.8,1.4s-1,0.5-1.7,0.5c-0.8,0-1.5-0.3-2.1-0.9s-0.8-1.4-0.8-2.3
		c0-0.9,0.3-1.7,0.8-2.3s1.2-0.9,2-0.9c0.8,0,1.5,0.3,1.9,0.8c0.5,0.6,0.7,1.3,0.7,2.2v0.4h-4.4c0,0.7,0.2,1.2,0.5,1.6
		c0.3,0.4,0.8,0.6,1.3,0.6c0.4,0,0.7-0.1,1-0.3C333.7,169,333.9,168.7,334,168.4z M332.5,164.8c-0.5,0-0.9,0.2-1.2,0.5
		c-0.3,0.3-0.5,0.7-0.6,1.3h3.3c0-0.5-0.1-0.9-0.4-1.2C333.3,164.9,333,164.8,332.5,164.8z"/>
	<path class="st13" d="M340.6,169.5v3.1h-1V164h1v0.7c0.2-0.2,0.4-0.4,0.7-0.6c0.3-0.2,0.7-0.2,1-0.2c0.9,0,1.6,0.3,2.1,0.9
		c0.5,0.6,0.7,1.4,0.7,2.3c0,0.9-0.2,1.7-0.7,2.3c-0.5,0.6-1.2,0.9-2.1,0.9c-0.4,0-0.7-0.1-1-0.2C341,169.9,340.8,169.7,340.6,169.5
		z M340.6,165.8v2.5c0.2,0.3,0.4,0.6,0.7,0.7c0.3,0.2,0.6,0.3,0.9,0.3c0.6,0,1-0.2,1.4-0.6s0.5-1,0.5-1.6c0-0.7-0.2-1.2-0.5-1.6
		s-0.8-0.6-1.4-0.6c-0.3,0-0.6,0.1-0.9,0.3C341,165.3,340.8,165.5,340.6,165.8z"/>
	<path class="st13" d="M347.6,161.1v9.1h-1v-9.1H347.6z"/>
	<path class="st13" d="M354,170.2h-1v-0.5c-0.1,0.1-0.4,0.3-0.7,0.4s-0.6,0.2-1,0.2c-0.7,0-1.2-0.2-1.6-0.5
		c-0.4-0.4-0.7-0.8-0.7-1.4c0-0.6,0.2-1,0.7-1.4c0.5-0.4,1-0.5,1.7-0.5c0.3,0,0.6,0.1,0.9,0.2s0.5,0.2,0.7,0.3v-0.8
		c0-0.4-0.1-0.7-0.4-1c-0.2-0.2-0.6-0.4-1-0.4c-0.7,0-1.1,0.3-1.3,0.9h-1c0.1-0.5,0.4-0.9,0.8-1.3c0.4-0.3,0.9-0.5,1.5-0.5
		c0.7,0,1.3,0.2,1.7,0.6c0.4,0.4,0.6,0.9,0.6,1.6V170.2z M353,168.7V168c-0.1-0.2-0.3-0.4-0.6-0.6c-0.3-0.1-0.6-0.2-0.9-0.2
		c-0.4,0-0.8,0.1-1,0.3c-0.3,0.2-0.4,0.5-0.4,0.8c0,0.4,0.1,0.6,0.4,0.8c0.3,0.2,0.6,0.3,1,0.3c0.3,0,0.6-0.1,0.9-0.2
		C352.7,169.1,352.9,168.9,353,168.7z"/>
	<path class="st13" d="M355.8,170.2V164h1v0.8c0.2-0.3,0.5-0.5,0.8-0.7c0.3-0.2,0.7-0.3,1.1-0.3c0.7,0,1.2,0.2,1.6,0.6
		c0.4,0.4,0.6,1,0.6,1.7v4.1h-1.1v-3.9c0-0.4-0.1-0.8-0.3-1.1c-0.2-0.3-0.6-0.4-1-0.4c-0.4,0-0.7,0.1-1,0.3
		c-0.3,0.2-0.5,0.5-0.6,0.8v4.2H355.8z"/>
	<path class="st13" d="M372,166.9l-0.2,0.8h-1.5l-0.6,2.5h-1l0.6-2.5h-2l-0.6,2.5h-0.9l0.6-2.5h-1.3l0.2-0.8h1.4l0.5-2h-1.4l0.2-0.8
		h1.5l0.6-2.5h1l-0.6,2.5h2l0.6-2.5h0.9l-0.6,2.5h1.3l-0.2,0.8H371l-0.5,2H372z M368.1,164.9l-0.5,2h2l0.5-2H368.1z"/>
	<path class="st13" d="M378.7,162.5l-3.1,7.7h-1.1l3-7.6h-4.4v-1h5.6V162.5z"/>
	<path class="st13" d="M382.4,165.6c-0.6,0-1.1,0.2-1.5,0.7H380v-4.7h4.7v1h-3.8v2.6c0.4-0.4,0.9-0.5,1.6-0.5c0.8,0,1.4,0.3,1.9,0.8
		c0.5,0.5,0.8,1.2,0.8,2.1c0,0.8-0.3,1.5-0.8,2c-0.5,0.5-1.2,0.8-2,0.8c-0.8,0-1.5-0.2-2-0.7c-0.5-0.5-0.8-1.1-0.9-1.9h1.1
		c0.2,1.1,0.8,1.6,1.9,1.6c0.5,0,0.9-0.2,1.3-0.5c0.3-0.4,0.5-0.8,0.5-1.4s-0.2-1-0.5-1.4C383.3,165.8,382.9,165.6,382.4,165.6z"/>
	<path class="st13" d="M389.1,170.3c-0.8,0-1.5-0.2-2.1-0.7c-0.6-0.5-0.8-1.1-0.8-1.8c0-0.5,0.2-1,0.5-1.4c0.3-0.4,0.7-0.7,1.2-0.8
		c-0.4-0.1-0.7-0.4-1-0.7c-0.3-0.3-0.4-0.7-0.4-1.2c0-0.7,0.2-1.2,0.7-1.6c0.5-0.4,1.1-0.6,1.9-0.6c0.8,0,1.4,0.2,1.9,0.6
		c0.5,0.4,0.7,1,0.7,1.6c0,0.5-0.1,0.9-0.4,1.2s-0.6,0.6-1,0.7c0.5,0.1,0.9,0.4,1.2,0.8c0.3,0.4,0.5,0.9,0.5,1.4
		c0,0.7-0.3,1.3-0.8,1.8C390.6,170.1,389.9,170.3,389.1,170.3z M389.1,169.4c0.6,0,1-0.2,1.4-0.5c0.4-0.3,0.5-0.7,0.5-1.2
		s-0.2-0.9-0.5-1.2c-0.3-0.3-0.8-0.5-1.4-0.5c-0.5,0-1,0.2-1.3,0.5c-0.4,0.3-0.5,0.7-0.5,1.2s0.2,0.9,0.5,1.2
		C388.1,169.3,388.5,169.4,389.1,169.4z M389.1,165.2c0.5,0,0.8-0.1,1.1-0.4c0.3-0.3,0.4-0.6,0.4-1c0-0.4-0.1-0.8-0.4-1
		c-0.3-0.3-0.7-0.4-1.1-0.4c-0.4,0-0.8,0.1-1.1,0.4c-0.3,0.3-0.4,0.6-0.4,1c0,0.4,0.1,0.7,0.4,1
		C388.3,165.1,388.6,165.2,389.1,165.2z"/>
	<path class="st13" d="M393.1,168.2h1.1c0.3,0.8,0.8,1.2,1.6,1.2c0.6,0,1.1-0.3,1.6-0.9c0.4-0.6,0.6-1.4,0.6-2.3c0,0,0-0.1,0-0.2
		c0-0.1,0-0.2,0-0.2c-0.1,0.4-0.4,0.8-0.8,1.1s-0.9,0.4-1.4,0.4c-0.8,0-1.5-0.3-2-0.8c-0.5-0.6-0.8-1.2-0.8-2c0-0.8,0.3-1.5,0.8-2.1
		c0.5-0.6,1.2-0.8,2.1-0.8c1.2,0,2,0.5,2.6,1.6c0.3,0.7,0.5,1.6,0.5,2.6c0,1.4-0.3,2.5-0.9,3.3s-1.3,1.3-2.3,1.3
		C394.3,170.3,393.4,169.6,393.1,168.2z M397.7,164.4c0-0.6-0.2-1-0.5-1.4c-0.3-0.4-0.8-0.5-1.3-0.5c-0.5,0-1,0.2-1.3,0.5
		c-0.3,0.4-0.5,0.8-0.5,1.4s0.2,1,0.5,1.4c0.3,0.4,0.8,0.6,1.3,0.6c0.6,0,1-0.2,1.3-0.5C397.5,165.4,397.7,164.9,397.7,164.4z"/>
	<path class="st13" d="M403.1,161.6h1l3.4,8.6h-1.1l-1-2.6h-3.5l-1,2.6h-1.1L403.1,161.6z M403.6,163l-1.4,3.7h2.8L403.6,163z"/>
	<path class="st13" d="M408.7,170.2V164h1v0.8c0.2-0.3,0.5-0.5,0.8-0.7s0.7-0.3,1.1-0.3c0.7,0,1.2,0.2,1.6,0.6
		c0.4,0.4,0.6,1,0.6,1.7v4.1h-1.1v-3.9c0-0.4-0.1-0.8-0.3-1.1c-0.2-0.3-0.6-0.4-1-0.4c-0.4,0-0.7,0.1-1,0.3s-0.5,0.5-0.6,0.8v4.2
		H408.7z"/>
	<path class="st13" d="M419.7,170.2v-0.7c-0.2,0.2-0.4,0.4-0.7,0.6s-0.7,0.2-1,0.2c-0.9,0-1.6-0.3-2.1-0.9c-0.5-0.6-0.7-1.4-0.7-2.3
		c0-0.9,0.2-1.7,0.7-2.3c0.5-0.6,1.2-0.9,2.1-0.9c0.4,0,0.7,0.1,1,0.2s0.6,0.4,0.7,0.6v-3.6h1.1v9.1H419.7z M419.7,168.4v-2.5
		c-0.2-0.3-0.4-0.6-0.7-0.7c-0.3-0.2-0.6-0.3-0.9-0.3c-0.6,0-1,0.2-1.4,0.6s-0.5,1-0.5,1.6c0,0.7,0.2,1.2,0.5,1.6s0.8,0.6,1.4,0.6
		c0.3,0,0.6-0.1,0.9-0.3C419.3,168.9,419.5,168.7,419.7,168.4z"/>
</g>
<g>
	<g id="HV7GE5_1_">
		<g>
			<g>
				<path class="st12" d="M81.8,89.2c12.7,0.8,24.4,4.2,34.8,11.3c1.2,0.8,2,3.1,2.1,4.7c0.1,7.5-0.2,15-0.2,22.5
					c0,18,0.1,35.9,0.1,53.9c0,6.5,0.4,13-0.3,19.5c-0.2,2.5-2.1,5.8-4.2,7c-24,12.8-47.9,12.2-71.3-1.7c-1.5-0.9-3-3.3-3.1-5.1
					c-0.5-21.2-0.7-42.3-1-63.5c-0.1-9.6-0.3-19.1-0.7-28.6c-0.3-5.4,1.9-8.7,6.7-11c8.9-4.3,17.9-8,28.2-8.5
					C76.4,89.1,77.2,89.1,81.8,89.2z M77.8,97c-3.8-0.2-7.4,0.2-7.2,5.4c0.1,4.1,3.8,7.5,8,7c4-0.4,6.3-2.8,6.2-6.9
					C84.7,98.2,82.3,96.3,77.8,97z"/>
			</g>
		</g>
	</g>
	<circle class="st1" cx="77.8" cy="102.8" r="7.6"/>
	<path class="st14" d="M27.9,13.3c0,0,18.8,40.4,31.5,50.5c7.9,6.3,28.5,7.3,36.4,0.3c13.4-11.8,29.8-51.4,29.8-51.4"/>
	<polygon class="st3" points="71.2,206.2 64.1,193.8 71.2,181.4 85.5,181.4 92.7,193.8 85.5,206.2 	"/>
	<rect x="59.5" y="160.1" class="st4" width="37.7" height="17.9"/>
	<g class="st11">
		<path class="st1" d="M74.2,160.6v8.6h-0.8l-4.8-6.8v6.8h-1.1v-8.6h1l4.6,6.5v-6.5H74.2z"/>
		<path class="st1" d="M77.4,169.2h-1.1v-8.6h5.2v1h-4.1v2.9h3.9v1h-3.9V169.2z"/>
		<path class="st1" d="M83.6,168.1c-0.7-0.8-1.1-1.9-1.1-3.2c0-1.3,0.4-2.4,1.1-3.2c0.7-0.8,1.6-1.2,2.8-1.2c0.9,0,1.6,0.2,2.2,0.7
			c0.6,0.5,1,1.1,1.1,1.9h-1.1c-0.4-1.1-1.1-1.7-2.3-1.7c-0.8,0-1.5,0.3-2,0.9s-0.8,1.5-0.8,2.5c0,1,0.3,1.8,0.8,2.5s1.2,1,2,1
			c1.1,0,1.9-0.6,2.3-1.7h1.1c-0.2,0.8-0.6,1.5-1.1,1.9c-0.6,0.5-1.3,0.7-2.2,0.7C85.3,169.3,84.4,168.9,83.6,168.1z"/>
	</g>
	<path class="st1" d="M67.9,190.2c0.9-1.4,1.5-2.5,2.4-3.9c1.6,0.7,5.7,2.1,5.7,2.1l0.5-5.6h4.4c0,0,0.1,3.8,0.3,5.8
		c1.8-0.8,3.3-1.4,5.1-2.2c0.7,1.1,1.5,2.3,2.4,3.7c-1.6,1.2-3,2.3-4.6,3.6c1.5,1.1,2.8,2,4.4,3.2c-0.6,1.2-1.1,2.5-1.9,4.1
		c-1.8-0.8-3.4-1.4-5.4-2.2c-0.2,1.9-0.4,3.4-0.6,5.3c-1.5,0-4.4,0-4.4,0s-0.5-3.3-0.8-5.3c-1.9,0.8-3.4,1.4-5.2,2.2
		c-0.7-1.2-1.5-2.4-2.4-3.8c1.6-1.2,3-2.3,4.7-3.5C71.1,192.4,69.7,191.5,67.9,190.2z M79.4,185.1c-0.5,0-1.1,0.1-1.6,0.1
		c0,5.5,0,11.1,0,16.6c0.5,0,1.1,0,1.6,0C79.4,196.2,79.4,190.7,79.4,185.1z"/>
	<path class="st12" d="M79.2,185.1c0,5.6,0,11.2,0,16.7c-0.5,0-1.1,0-1.6,0c0-5.5,0-11.1,0-16.6C78.1,185.1,78.6,185.1,79.2,185.1z"
		/>
	<path class="st13" d="M81.5,94.9c0,1.9-1.6,3.5-3.5,3.5l0,0c-1.9,0-3.5-1.6-3.5-3.5v-30c0-1.9,1.6-3.5,3.5-3.5l0,0
		c1.9,0,3.5,1.6,3.5,3.5V94.9z"/>
	<g>
		<path class="st6" d="M69.3,153.6c4.4-4.3,11.4-4.3,15.8,0.1"/>
		<path class="st7" d="M65.4,147.3c6.8-6.8,17.8-6.7,24.5,0.1"/>
		<path class="st7" d="M60.4,140c10-9.9,26.1-9.9,36,0.1"/>
	</g>
	<rect x="16.6" y="216.3" class="st4" width="15.7" height="12.3"/>
	<g class="st11">
		<path d="M19.6,216.7v7.4h-0.9v-6.2l-1.8,0.9v-1l2.2-1.1H19.6z"/>
		<path d="M21.1,223.9c-0.1-0.1-0.2-0.3-0.2-0.5s0.1-0.3,0.2-0.5s0.3-0.2,0.5-0.2c0.2,0,0.3,0.1,0.4,0.2s0.2,0.3,0.2,0.5
			s-0.1,0.3-0.2,0.5s-0.3,0.2-0.4,0.2C21.4,224.1,21.2,224.1,21.1,223.9z"/>
	</g>
</g>
<rect x="286.8" y="204.6" class="st4" width="15.7" height="12.3"/>
<g class="st11">
	<path d="M290.9,207.1c0-0.4-0.1-0.7-0.4-0.9c-0.2-0.2-0.6-0.3-1-0.3c-0.4,0-0.8,0.1-1,0.4c-0.2,0.3-0.4,0.6-0.4,1.1h-1
		c0.1-0.7,0.3-1.3,0.8-1.7c0.4-0.4,1-0.6,1.7-0.6c0.7,0,1.2,0.2,1.6,0.6c0.4,0.4,0.6,0.9,0.6,1.5c0,0.1,0,0.2,0,0.3
		c0,0.1-0.1,0.2-0.1,0.3c0,0.1-0.1,0.2-0.2,0.3s-0.1,0.2-0.2,0.3c0,0.1-0.1,0.2-0.2,0.3c-0.1,0.1-0.2,0.2-0.2,0.3
		c0,0-0.1,0.2-0.3,0.3c-0.1,0.2-0.2,0.3-0.3,0.3l-1.9,2.1h3.5v0.8h-4.8v-0.6l2.4-2.6c0.4-0.4,0.6-0.7,0.7-0.8
		c0.1-0.1,0.3-0.3,0.4-0.6C290.8,207.5,290.9,207.3,290.9,207.1z"/>
	<path d="M293.1,212.3c-0.1-0.1-0.2-0.3-0.2-0.5s0.1-0.3,0.2-0.5s0.3-0.2,0.5-0.2c0.2,0,0.3,0.1,0.5,0.2s0.2,0.3,0.2,0.5
		s-0.1,0.3-0.2,0.5s-0.3,0.2-0.5,0.2C293.3,212.5,293.2,212.4,293.1,212.3z"/>
</g>
<rect x="287.7" y="12.2" class="st15" width="227.7" height="185"/>
<polyline class="st16" points="287.9,196.7 514.8,196.7 514.8,12 "/>
<g>
	<g>
		<path class="st17" d="M152,197.3c0,0,30.4,48.6,93.7,21.6"/>
		<g>
			<polygon points="245.1,222.3 253.7,215.1 242.6,217 			"/>
		</g>
	</g>
</g>
</svg>
