<?xml version="1.0" encoding="utf-8"?>
<!-- Generator: Adobe Illustrator 19.2.1, SVG Export Plug-In . SVG Version: 6.00 Build 0)  -->
<svg version="1.1" id="Layer_1" xmlns="http://www.w3.org/2000/svg" xmlns:xlink="http://www.w3.org/1999/xlink" x="0px" y="0px"
	 viewBox="0 0 202 425" style="enable-background:new 0 0 202 425;" xml:space="preserve">
<style type="text/css">
	.st0{fill:#FFFFFF;stroke:#010101;stroke-width:2;stroke-miterlimit:10;}
	.st1{fill:#1A1A1A;stroke:#ECECEC;stroke-miterlimit:10;}
	.st2{fill:#3A50A2;stroke:#1D1D1B;stroke-miterlimit:10;}
	.st3{fill:#1D1D1B;stroke:#1D1D1B;stroke-miterlimit:10;}
	.st4{fill:#D9D9D8;stroke:#1D1D1B;stroke-miterlimit:10;}
	.st5{fill:#9C9B9B;stroke:#1D1D1B;stroke-miterlimit:10;}
	.st6{fill:none;stroke:#1D1D1B;stroke-width:0.3392;stroke-miterlimit:10;}
	.st7{fill:none;stroke:#3A50A2;stroke-width:0.3392;stroke-miterlimit:10;}
	.st8{fill:none;stroke:#1D1D1B;stroke-miterlimit:10;}
	.st9{fill:#FFFFFF;stroke:#1D1D1B;stroke-miterlimit:10;}
	.st10{fill:#FFFFFF;stroke:#010101;stroke-miterlimit:10;}
	.st11{fill:#010101;stroke:#FFFFFF;stroke-width:0.746;stroke-miterlimit:10;}
	.st12{fill:#010101;stroke:#FFFFFF;stroke-width:0.8525;stroke-miterlimit:10;}
	.st13{fill:#FFFFFF;}
	.st14{fill:#FFFFFF;stroke:#575756;stroke-miterlimit:10;}
	.st15{fill:#DDDDDD;}
	.st16{fill:none;stroke:#DDDDDD;stroke-miterlimit:10;}
	.st17{fill:none;}
	.st18{enable-background:new    ;}
	.st19{fill:#2341C1;}
	.st20{fill:#1E1E1E;}
	.st21{fill:none;stroke:#1A1A1A;stroke-miterlimit:10;}
</style>
<path class="st0" d="M201,394.2c0,16.5-13.4,29.8-29.8,29.8H30.8C14.4,424,1,410.6,1,394.2V30.8C1,14.4,14.4,1,30.8,1h140.3
	C187.6,1,201,14.4,201,30.8V394.2z"/>
<rect x="14.5" y="62.5" class="st1" width="172" height="303"/>
<rect x="15.2" y="348.8" class="st2" width="17.2" height="17.2"/>
<rect x="32.4" y="348.8" class="st2" width="17.2" height="17.2"/>
<rect x="49.6" y="348.8" class="st2" width="17.2" height="17.2"/>
<rect x="66.8" y="348.8" class="st2" width="17.2" height="17.2"/>
<rect x="84" y="348.8" class="st2" width="17.2" height="17.2"/>
<rect x="101.1" y="348.8" class="st3" width="17.2" height="17.2"/>
<rect x="118.3" y="348.8" class="st2" width="17.2" height="17.2"/>
<rect x="135.5" y="348.8" class="st4" width="17.2" height="17.2"/>
<rect x="152.4" y="348.8" class="st4" width="17.2" height="17.2"/>
<rect x="169.5" y="348.8" class="st2" width="17.2" height="17.2"/>
<rect x="15.2" y="331.7" class="st5" width="17.2" height="17.2"/>
<rect x="32.4" y="331.7" class="st4" width="17.2" height="17.2"/>
<rect x="49.6" y="331.7" class="st4" width="17.2" height="17.2"/>
<rect x="66.8" y="331.7" class="st4" width="17.2" height="17.2"/>
<rect x="84" y="331.7" class="st4" width="17.2" height="17.2"/>
<rect x="101.1" y="331.7" class="st3" width="17.2" height="17.2"/>
<rect x="118.3" y="331.7" class="st2" width="17.2" height="17.2"/>
<rect x="135.5" y="331.7" class="st4" width="17.2" height="17.2"/>
<rect x="152.4" y="331.7" class="st4" width="17.2" height="17.2"/>
<rect x="169.5" y="331.7" class="st2" width="17.2" height="17.2"/>
<rect x="15.2" y="314.5" class="st5" width="17.2" height="17.2"/>
<rect x="32.4" y="314.5" class="st5" width="17.2" height="17.2"/>
<rect x="49.6" y="314.5" class="st5" width="17.2" height="17.2"/>
<rect x="66.8" y="314.5" class="st5" width="17.2" height="17.2"/>
<rect x="84" y="314.5" class="st3" width="17.2" height="17.2"/>
<rect x="101.1" y="314.5" class="st2" width="17.2" height="17.2"/>
<rect x="118.3" y="314.5" class="st2" width="17.2" height="17.2"/>
<rect x="135.5" y="314.5" class="st5" width="17.2" height="17.2"/>
<rect x="152.4" y="314.5" class="st2" width="17.2" height="17.2"/>
<rect x="169.5" y="314.5" class="st2" width="17.2" height="17.2"/>
<rect x="15.2" y="297.3" class="st4" width="17.2" height="17.2"/>
<rect x="32.4" y="297.3" class="st6" width="17.2" height="17.2"/>
<rect x="49.6" y="297.3" class="st5" width="17.2" height="17.2"/>
<rect x="66.8" y="297.3" class="st5" width="17.2" height="17.2"/>
<rect x="84" y="297.3" class="st6" width="17.2" height="17.2"/>
<rect x="101.1" y="297.3" class="st2" width="17.2" height="17.2"/>
<rect x="118.3" y="297.3" class="st2" width="17.2" height="17.2"/>
<rect x="135.5" y="297.3" class="st5" width="17.2" height="17.2"/>
<rect x="152.4" y="297.3" class="st6" width="17.2" height="17.2"/>
<rect x="169.5" y="297.3" class="st6" width="17.2" height="17.2"/>
<rect x="15.2" y="280.1" class="st4" width="17.2" height="17.2"/>
<rect x="32.4" y="280.1" class="st6" width="17.2" height="17.2"/>
<rect x="49.6" y="280.1" class="st2" width="17.2" height="17.2"/>
<rect x="66.8" y="280.1" class="st2" width="17.2" height="17.2"/>
<rect x="84" y="280.1" class="st2" width="17.2" height="17.2"/>
<rect x="101.1" y="280.1" class="st2" width="17.2" height="17.2"/>
<rect x="118.3" y="280.1" class="st4" width="17.2" height="17.2"/>
<rect x="135.5" y="280.1" class="st5" width="17.2" height="17.2"/>
<rect x="152.4" y="280.1" class="st6" width="17.2" height="17.2"/>
<rect x="169.5" y="280.1" class="st6" width="17.2" height="17.2"/>
<rect x="15.2" y="263" class="st4" width="17.2" height="17.2"/>
<rect x="32.4" y="263" class="st2" width="17.2" height="17.2"/>
<rect x="49.6" y="263" class="st2" width="17.2" height="17.2"/>
<rect x="66.8" y="263" class="st2" width="17.2" height="17.2"/>
<rect x="84" y="263" class="st4" width="17.2" height="17.2"/>
<rect x="101.1" y="263" class="st4" width="17.2" height="17.2"/>
<rect x="118.3" y="263" class="st4" width="17.2" height="17.2"/>
<rect x="135.5" y="263" class="st5" width="17.2" height="17.2"/>
<rect x="152.4" y="263" class="st6" width="17.2" height="17.2"/>
<rect x="169.5" y="263" class="st6" width="17.2" height="17.2"/>
<rect x="15.2" y="245.8" class="st4" width="17.2" height="17.2"/>
<rect x="32.4" y="245.8" class="st6" width="17.2" height="17.2"/>
<rect x="49.6" y="245.8" class="st6" width="17.2" height="17.2"/>
<rect x="66.8" y="245.8" class="st6" width="17.2" height="17.2"/>
<rect x="84" y="245.8" class="st6" width="17.2" height="17.2"/>
<rect x="101.1" y="245.8" class="st6" width="17.2" height="17.2"/>
<rect x="118.3" y="245.8" class="st6" width="17.2" height="17.2"/>
<rect x="135.5" y="245.8" class="st6" width="17.2" height="17.2"/>
<rect x="152.4" y="245.8" class="st6" width="17.2" height="17.2"/>
<rect x="169.5" y="245.8" class="st6" width="17.2" height="17.2"/>
<rect x="15.2" y="228.7" class="st6" width="17.2" height="17.2"/>
<rect x="32.4" y="228.7" class="st7" width="17.2" height="17.2"/>
<rect x="49.6" y="228.7" class="st7" width="17.2" height="17.2"/>
<rect x="66.8" y="228.7" class="st7" width="17.2" height="17.2"/>
<rect x="84" y="228.7" class="st7" width="17.2" height="17.2"/>
<rect x="101.1" y="228.7" class="st7" width="17.2" height="17.2"/>
<rect x="118.3" y="228.7" class="st7" width="17.2" height="17.2"/>
<rect x="135.5" y="228.7" class="st7" width="17.2" height="17.2"/>
<rect x="152.4" y="228.7" class="st5" width="17.2" height="17.2"/>
<rect x="169.5" y="228.7" class="st6" width="17.2" height="17.2"/>
<rect x="15.2" y="211.5" class="st5" width="17.2" height="17.2"/>
<rect x="32.4" y="211.5" class="st7" width="17.2" height="17.2"/>
<rect x="49.6" y="211.5" class="st7" width="17.2" height="17.2"/>
<rect x="66.8" y="211.5" class="st2" width="17.2" height="17.2"/>
<rect x="84" y="211.5" class="st2" width="17.2" height="17.2"/>
<rect x="101.1" y="211.5" class="st7" width="17.2" height="17.2"/>
<rect x="118.3" y="211.5" class="st7" width="17.2" height="17.2"/>
<rect x="135.5" y="211.5" class="st5" width="17.2" height="17.2"/>
<rect x="152.4" y="211.5" class="st5" width="17.2" height="17.2"/>
<rect x="169.5" y="211.5" class="st6" width="17.2" height="17.2"/>
<rect x="15.2" y="194.3" class="st8" width="17.2" height="17.2"/>
<rect x="32.4" y="194.3" class="st7" width="17.2" height="17.2"/>
<rect x="49.6" y="194.3" class="st7" width="17.2" height="17.2"/>
<rect x="66.8" y="194.3" class="st2" width="17.2" height="17.2"/>
<rect x="84" y="194.3" class="st2" width="17.2" height="17.2"/>
<rect x="101.1" y="194.3" class="st7" width="17.2" height="17.2"/>
<rect x="118.3" y="194.3" class="st7" width="17.2" height="17.2"/>
<rect x="135.5" y="194.3" class="st5" width="17.2" height="17.2"/>
<rect x="152.4" y="194.3" class="st7" width="17.2" height="17.2"/>
<rect x="169.5" y="194.3" class="st6" width="17.2" height="17.2"/>
<rect x="15.2" y="177.1" class="st8" width="17.2" height="17.2"/>
<rect x="32.4" y="177.1" class="st7" width="17.2" height="17.2"/>
<rect x="49.6" y="177.1" class="st7" width="17.2" height="17.2"/>
<rect x="66.8" y="177.1" class="st7" width="17.2" height="17.2"/>
<rect x="84" y="177.1" class="st7" width="17.2" height="17.2"/>
<rect x="101.1" y="177.1" class="st7" width="17.2" height="17.2"/>
<rect x="118.3" y="177.1" class="st7" width="17.2" height="17.2"/>
<rect x="135.5" y="177.1" class="st7" width="17.2" height="17.2"/>
<rect x="152.4" y="177.1" class="st7" width="17.2" height="17.2"/>
<rect x="169.5" y="177.1" class="st6" width="17.2" height="17.2"/>
<rect x="15.2" y="160" class="st8" width="17.2" height="17.2"/>
<rect x="32.4" y="160" class="st9" width="17.2" height="17.2"/>
<rect x="49.6" y="160" class="st7" width="17.2" height="17.2"/>
<rect x="66.8" y="160" class="st7" width="17.2" height="17.2"/>
<rect x="84" y="160" class="st7" width="17.2" height="17.2"/>
<rect x="101.1" y="160" class="st7" width="17.2" height="17.2"/>
<rect x="118.3" y="160" class="st7" width="17.2" height="17.2"/>
<rect x="135.5" y="160" class="st7" width="17.2" height="17.2"/>
<rect x="152.4" y="160" class="st7" width="17.2" height="17.2"/>
<rect x="169.5" y="160" class="st6" width="17.2" height="17.2"/>
<rect x="15.2" y="142.8" class="st8" width="17.2" height="17.2"/>
<rect x="32.4" y="142.8" class="st9" width="17.2" height="17.2"/>
<rect x="49.6" y="142.8" class="st7" width="17.2" height="17.2"/>
<rect x="66.8" y="142.8" class="st7" width="17.2" height="17.2"/>
<rect x="84" y="142.8" class="st7" width="17.2" height="17.2"/>
<rect x="101.1" y="142.8" class="st7" width="17.2" height="17.2"/>
<rect x="118.3" y="142.8" class="st7" width="17.2" height="17.2"/>
<rect x="135.5" y="142.8" class="st7" width="17.2" height="17.2"/>
<rect x="152.4" y="142.8" class="st7" width="17.2" height="17.2"/>
<rect x="169.5" y="142.8" class="st6" width="17.2" height="17.2"/>
<rect x="15.2" y="125.7" class="st8" width="17.2" height="17.2"/>
<rect x="32.4" y="125.7" class="st6" width="17.2" height="17.2"/>
<rect x="49.6" y="125.7" class="st6" width="17.2" height="17.2"/>
<rect x="66.8" y="125.7" class="st6" width="17.2" height="17.2"/>
<rect x="84" y="125.7" class="st4" width="17.2" height="17.2"/>
<rect x="101.1" y="125.7" class="st6" width="17.2" height="17.2"/>
<rect x="118.3" y="125.7" class="st6" width="17.2" height="17.2"/>
<rect x="135.5" y="125.7" class="st6" width="17.2" height="17.2"/>
<rect x="152.4" y="125.7" class="st2" width="17.2" height="17.2"/>
<rect x="169.5" y="125.7" class="st6" width="17.2" height="17.2"/>
<rect x="15.2" y="108.5" class="st8" width="17.2" height="17.2"/>
<rect x="32.4" y="108.5" class="st6" width="17.2" height="17.2"/>
<rect x="49.6" y="108.5" class="st6" width="17.2" height="17.2"/>
<rect x="66.8" y="108.5" class="st6" width="17.2" height="17.2"/>
<rect x="84" y="108.5" class="st6" width="17.2" height="17.2"/>
<rect x="101.1" y="108.5" class="st6" width="17.2" height="17.2"/>
<rect x="118.3" y="108.5" class="st6" width="17.2" height="17.2"/>
<rect x="135.5" y="108.5" class="st6" width="17.2" height="17.2"/>
<rect x="152.4" y="108.5" class="st2" width="17.2" height="17.2"/>
<rect x="169.5" y="108.5" class="st6" width="17.2" height="17.2"/>
<rect x="15.2" y="91.3" class="st8" width="17.2" height="17.2"/>
<rect x="32.4" y="91.3" class="st6" width="17.2" height="17.2"/>
<rect x="49.6" y="91.3" class="st2" width="17.2" height="17.2"/>
<rect x="66.8" y="91.3" class="st6" width="17.2" height="17.2"/>
<rect x="84" y="91.3" class="st6" width="17.2" height="17.2"/>
<rect x="101.1" y="91.3" class="st6" width="17.2" height="17.2"/>
<rect x="118.3" y="91.3" class="st6" width="17.2" height="17.2"/>
<rect x="135.5" y="91.3" class="st2" width="17.2" height="17.2"/>
<rect x="152.4" y="91.3" class="st2" width="17.2" height="17.2"/>
<rect x="169.5" y="91.3" class="st6" width="17.2" height="17.2"/>
<rect x="15.2" y="74.6" class="st8" width="17.2" height="17.2"/>
<rect x="32.4" y="74.6" class="st2" width="17.2" height="17.2"/>
<rect x="49.6" y="74.6" class="st2" width="17.2" height="17.2"/>
<rect x="66.8" y="74.6" class="st6" width="17.2" height="17.2"/>
<rect x="84" y="74.6" class="st6" width="17.2" height="17.2"/>
<rect x="101.1" y="74.6" class="st6" width="17.2" height="17.2"/>
<rect x="118.3" y="74.6" class="st6" width="17.2" height="17.2"/>
<rect x="135.5" y="74.6" class="st6" width="17.2" height="17.2"/>
<rect x="152.4" y="74.6" class="st6" width="17.2" height="17.2"/>
<rect x="169.5" y="74.6" class="st6" width="17.2" height="17.2"/>
<rect x="15.2" y="62.8" class="st8" width="17.2" height="11.8"/>
<rect x="32.4" y="62.8" class="st2" width="17.2" height="11.8"/>
<rect x="49.6" y="62.8" class="st6" width="17.2" height="11.8"/>
<rect x="66.8" y="62.8" class="st6" width="17.2" height="11.8"/>
<rect x="84" y="62.8" class="st6" width="17.2" height="11.8"/>
<rect x="101.1" y="62.8" class="st6" width="17.2" height="11.8"/>
<rect x="118.3" y="62.8" class="st6" width="17.2" height="11.8"/>
<rect x="135.5" y="62.8" class="st6" width="17.2" height="11.8"/>
<rect x="152.4" y="62.8" class="st6" width="17.2" height="11.8"/>
<rect x="169.5" y="62.8" class="st6" width="17.2" height="11.8"/>
<g>
	<circle class="st10" cx="101.9" cy="392.7" r="17.1"/>
</g>
<circle class="st11" cx="101.4" cy="23.9" r="3.2"/>
<path class="st12" d="M124.2,35.3H79.1c-1,0-1.8-0.8-1.8-1.8l0,0c0-1,0.8-1.7,1.8-1.7h45.2c1,0,1.8,0.8,1.8,1.7l0,0
	C126,34.5,125.2,35.3,124.2,35.3z"/>
<rect x="4.6" y="61.7" class="st13" width="11.6" height="316"/>
<rect x="186.3" y="61.7" class="st13" width="11.9" height="308"/>
<rect x="15.2" y="365" class="st13" width="171.1" height="3.7"/>
<rect x="15.2" y="60" class="st13" width="171.1" height="3.7"/>
<rect x="16.2" y="64.2" class="st8" width="170.1" height="300.8"/>
<rect x="30.3" y="139.3" class="st14" width="141.6" height="115"/>
<rect x="30.3" y="224.4" class="st15" width="141.6" height="29.9"/>
<line class="st16" x1="30.3" y1="224.4" x2="171.9" y2="224.4"/>
<rect x="64.6" y="233.2" class="st17" width="73" height="16.4"/>
<g class="st18">
	<path class="st19" d="M95,237.7l2.5-4.1h1.2l-3.1,5.1v3.5h-1.1v-3.5l-3.1-5.1h1.2L95,237.7z"/>
	<path class="st19" d="M102.9,240.4h1c-0.1,0.6-0.4,1.1-0.8,1.4s-1,0.5-1.7,0.5c-0.8,0-1.5-0.3-2.1-0.9s-0.8-1.4-0.8-2.3
		c0-0.9,0.3-1.7,0.8-2.3c0.5-0.6,1.2-0.9,2-0.9c0.8,0,1.5,0.3,1.9,0.8c0.5,0.6,0.7,1.3,0.7,2.2v0.4h-4.4c0,0.7,0.2,1.2,0.5,1.6
		c0.3,0.4,0.8,0.6,1.3,0.6c0.4,0,0.7-0.1,1-0.3C102.6,241,102.8,240.8,102.9,240.4z M101.4,236.8c-0.5,0-0.9,0.2-1.2,0.5
		c-0.3,0.3-0.5,0.7-0.6,1.3h3.3c0-0.5-0.1-0.9-0.4-1.2C102.2,237,101.8,236.8,101.4,236.8z"/>
	<path class="st19" d="M104.9,240.6h1.1c0.2,0.6,0.7,1,1.5,1c0.4,0,0.7-0.1,0.9-0.2c0.2-0.2,0.4-0.4,0.4-0.7c0-0.4-0.3-0.7-0.9-0.9
		l-1.2-0.3c-1-0.3-1.5-0.8-1.5-1.6c0-0.5,0.2-1,0.6-1.3s1-0.5,1.6-0.5c0.7,0,1.2,0.2,1.6,0.5c0.4,0.3,0.7,0.7,0.8,1.3h-1
		c-0.2-0.6-0.6-0.9-1.4-0.9c-0.3,0-0.6,0.1-0.8,0.2c-0.2,0.2-0.3,0.4-0.3,0.7c0,0.2,0.1,0.4,0.2,0.5c0.1,0.1,0.4,0.2,0.7,0.3
		l1.2,0.3c1.1,0.3,1.6,0.9,1.6,1.7c0,0.6-0.2,1-0.6,1.4c-0.4,0.3-1,0.5-1.7,0.5s-1.3-0.2-1.7-0.5C105.2,241.6,105,241.1,104.9,240.6
		z"/>
</g>
<rect x="40.7" y="161.5" class="st17" width="120.8" height="55.1"/>
<g class="st18">
	<path class="st20" d="M53.7,162h1l3.4,8.6H57l-1-2.6h-3.5l-1,2.6h-1.1L53.7,162z M54.2,163.4l-1.4,3.7h2.8L54.2,163.4z"/>
	<path class="st20" d="M62.6,164.4v1.1c-0.2-0.1-0.4-0.2-0.7-0.2c-0.3,0-0.6,0.1-0.9,0.3c-0.3,0.2-0.4,0.5-0.5,0.9v4.2h-1v-6.2h1
		v0.8c0.1-0.3,0.3-0.5,0.6-0.7c0.3-0.2,0.6-0.3,0.9-0.3C62.2,164.3,62.4,164.3,62.6,164.4z"/>
	<path class="st20" d="M67.6,168.8h1c-0.1,0.6-0.4,1.1-0.8,1.4s-1,0.5-1.7,0.5c-0.8,0-1.5-0.3-2.1-0.9s-0.8-1.4-0.8-2.3
		c0-0.9,0.3-1.7,0.8-2.3c0.5-0.6,1.2-0.9,2-0.9c0.8,0,1.5,0.3,1.9,0.8c0.5,0.6,0.7,1.3,0.7,2.2v0.4h-4.4c0,0.7,0.2,1.2,0.5,1.6
		c0.3,0.4,0.8,0.6,1.3,0.6c0.4,0,0.7-0.1,1-0.3S67.5,169.1,67.6,168.8z M66.1,165.2c-0.5,0-0.9,0.2-1.2,0.5
		c-0.3,0.3-0.5,0.7-0.6,1.3h3.3c0-0.5-0.1-0.9-0.4-1.2C66.9,165.3,66.6,165.2,66.1,165.2z"/>
	<path class="st20" d="M75,173h-1l0.9-2.3l-2.4-6.3h1.1l1.8,4.9l1.8-4.9h1.1L75,173z"/>
	<path class="st20" d="M83.9,165.2c0.5,0.6,0.8,1.4,0.8,2.3c0,1-0.3,1.7-0.8,2.3c-0.5,0.6-1.2,0.9-2.1,0.9c-0.8,0-1.5-0.3-2.1-0.9
		c-0.5-0.6-0.8-1.4-0.8-2.3c0-1,0.3-1.7,0.8-2.3c0.5-0.6,1.2-0.9,2.1-0.9C82.7,164.3,83.4,164.6,83.9,165.2z M83.1,169.2
		c0.3-0.4,0.5-1,0.5-1.7c0-0.7-0.2-1.2-0.5-1.7c-0.3-0.4-0.8-0.6-1.3-0.6c-0.6,0-1,0.2-1.3,0.6c-0.3,0.4-0.5,1-0.5,1.7
		c0,0.7,0.2,1.2,0.5,1.7c0.3,0.4,0.8,0.6,1.3,0.6C82.4,169.8,82.8,169.6,83.1,169.2z"/>
	<path class="st20" d="M91.1,164.4v6.2H90v-0.8c-0.2,0.3-0.4,0.5-0.8,0.7c-0.3,0.2-0.7,0.3-1.1,0.3c-0.7,0-1.2-0.2-1.6-0.6
		c-0.4-0.4-0.6-1-0.6-1.7v-4.1h1.1v3.9c0,0.5,0.1,0.8,0.3,1.1c0.2,0.3,0.6,0.4,1,0.4c0.4,0,0.7-0.1,1-0.3s0.5-0.5,0.6-0.8v-4.2H91.1
		z"/>
	<path class="st20" d="M95.5,168.9h1.1c0.2,0.6,0.7,1,1.5,1c0.4,0,0.7-0.1,0.9-0.2c0.2-0.2,0.4-0.4,0.4-0.7c0-0.4-0.3-0.7-0.9-0.9
		l-1.2-0.3c-1-0.3-1.5-0.8-1.5-1.6c0-0.5,0.2-1,0.6-1.3s1-0.5,1.6-0.5c0.7,0,1.2,0.2,1.6,0.5c0.4,0.3,0.7,0.7,0.8,1.3h-1
		c-0.2-0.6-0.6-0.9-1.4-0.9c-0.3,0-0.6,0.1-0.8,0.2c-0.2,0.2-0.4,0.4-0.4,0.7c0,0.2,0.1,0.4,0.2,0.5c0.1,0.1,0.4,0.2,0.7,0.3
		l1.2,0.3c1.1,0.3,1.6,0.9,1.6,1.7c0,0.6-0.2,1-0.6,1.4s-1,0.5-1.7,0.5c-0.7,0-1.3-0.2-1.7-0.5C95.9,169.9,95.6,169.5,95.5,168.9z"
		/>
	<path class="st20" d="M102.1,169v-3.8h-1v-0.9h1v-1.6h1.1v1.6h1.5v0.9h-1.5v3.6c0,0.6,0.3,0.9,0.8,0.9c0.3,0,0.6-0.1,0.8-0.3v1
		c-0.3,0.1-0.6,0.2-1,0.2c-0.5,0-0.9-0.1-1.2-0.4C102.3,170,102.1,169.6,102.1,169z"/>
	<path class="st20" d="M107.3,162c0.1,0.1,0.2,0.3,0.2,0.5s-0.1,0.3-0.2,0.5c-0.1,0.1-0.3,0.2-0.5,0.2s-0.3-0.1-0.5-0.2
		c-0.1-0.1-0.2-0.3-0.2-0.5s0.1-0.3,0.2-0.5c0.1-0.1,0.3-0.2,0.5-0.2S107.1,161.9,107.3,162z M107.3,164.4v6.2h-1v-6.2H107.3z"/>
	<path class="st20" d="M110.2,161.5v9.1h-1v-9.1H110.2z"/>
	<path class="st20" d="M113.2,161.5v9.1h-1v-9.1H113.2z"/>
	<path class="st20" d="M118.4,169v-3.8h-1v-0.9h1v-1.6h1v1.6h1.5v0.9h-1.5v3.6c0,0.6,0.3,0.9,0.8,0.9c0.3,0,0.6-0.1,0.8-0.3v1
		c-0.3,0.1-0.6,0.2-1,0.2c-0.5,0-0.9-0.1-1.2-0.4C118.6,170,118.4,169.6,118.4,169z"/>
	<path class="st20" d="M122.6,170.6v-9.1h1v3.7c0.2-0.3,0.5-0.5,0.8-0.7c0.3-0.2,0.7-0.3,1.1-0.3c0.7,0,1.2,0.2,1.6,0.6
		c0.4,0.4,0.6,1,0.6,1.7v4.1h-1.1v-3.9c0-0.4-0.1-0.8-0.3-1.1c-0.2-0.3-0.6-0.4-1-0.4c-0.4,0-0.7,0.1-1,0.3
		c-0.3,0.2-0.5,0.5-0.6,0.8v4.2H122.6z"/>
	<path class="st20" d="M133.3,168.8h1c-0.1,0.6-0.4,1.1-0.8,1.4s-1,0.5-1.7,0.5c-0.8,0-1.5-0.3-2.1-0.9s-0.8-1.4-0.8-2.3
		c0-0.9,0.3-1.7,0.8-2.3s1.2-0.9,2-0.9c0.8,0,1.5,0.3,1.9,0.8c0.5,0.6,0.7,1.3,0.7,2.2v0.4H130c0,0.7,0.2,1.2,0.5,1.6
		c0.3,0.4,0.8,0.6,1.3,0.6c0.4,0,0.7-0.1,1-0.3C133.1,169.4,133.3,169.1,133.3,168.8z M131.8,165.2c-0.5,0-0.9,0.2-1.2,0.5
		c-0.3,0.3-0.5,0.7-0.6,1.3h3.3c0-0.5-0.1-0.9-0.4-1.2C132.7,165.3,132.3,165.2,131.8,165.2z"/>
	<path class="st20" d="M139,164.4v1.1c-0.2-0.1-0.4-0.2-0.7-0.2c-0.3,0-0.6,0.1-0.9,0.3c-0.3,0.2-0.4,0.5-0.5,0.9v4.2h-1v-6.2h1v0.8
		c0.1-0.3,0.3-0.5,0.6-0.7c0.3-0.2,0.6-0.3,0.9-0.3C138.7,164.3,138.9,164.3,139,164.4z"/>
	<path class="st20" d="M144.1,168.8h1c-0.1,0.6-0.4,1.1-0.8,1.4s-1,0.5-1.7,0.5c-0.8,0-1.5-0.3-2.1-0.9s-0.8-1.4-0.8-2.3
		c0-0.9,0.3-1.7,0.8-2.3s1.2-0.9,2-0.9c0.8,0,1.5,0.3,1.9,0.8c0.5,0.6,0.7,1.3,0.7,2.2v0.4h-4.4c0,0.7,0.2,1.2,0.5,1.6
		c0.3,0.4,0.8,0.6,1.3,0.6c0.4,0,0.7-0.1,1-0.3C143.8,169.4,144,169.1,144.1,168.8z M142.5,165.2c-0.5,0-0.9,0.2-1.2,0.5
		c-0.3,0.3-0.5,0.7-0.6,1.3h3.3c0-0.5-0.1-0.9-0.4-1.2C143.4,165.3,143,165.2,142.5,165.2z"/>
	<path class="st20" d="M150.9,164.3c0,0.1,0,0.2,0,0.3c0,0.1,0,0.2-0.1,0.3c0,0.1-0.1,0.2-0.1,0.3c0,0.1-0.1,0.2-0.2,0.3
		s-0.1,0.2-0.2,0.3s-0.1,0.1-0.2,0.3c-0.1,0.1-0.2,0.2-0.2,0.2s-0.1,0.1-0.2,0.3l-0.2,0.2c-0.4,0.4-0.6,0.8-0.6,1.1h-1
		c0-0.3,0.1-0.6,0.2-0.9c0.1-0.2,0.3-0.5,0.6-0.8c0-0.1,0.2-0.2,0.4-0.4c0.2-0.2,0.3-0.4,0.4-0.5s0.2-0.3,0.3-0.5
		c0.1-0.2,0.1-0.4,0.1-0.6c0-0.4-0.1-0.8-0.4-1c-0.3-0.3-0.7-0.4-1.1-0.4c-0.5,0-0.9,0.2-1.2,0.5c-0.3,0.3-0.5,0.7-0.5,1.3h-1.1
		c0.1-0.8,0.4-1.5,0.9-2c0.5-0.5,1.2-0.7,1.9-0.7c0.8,0,1.5,0.2,1.9,0.7C150.6,163,150.9,163.6,150.9,164.3z M147.7,170.5
		c-0.1-0.1-0.2-0.3-0.2-0.5s0.1-0.4,0.2-0.5c0.1-0.1,0.3-0.2,0.5-0.2c0.2,0,0.4,0.1,0.5,0.2c0.1,0.1,0.2,0.3,0.2,0.5
		s-0.1,0.4-0.2,0.5c-0.1,0.1-0.3,0.2-0.5,0.2C148.1,170.7,147.9,170.6,147.7,170.5z"/>
</g>
<g class="st18">
	<path class="st20" d="M45.5,187.4v-9.9h3.6c0.7,0,1.4,0.1,2,0.3c0.6,0.2,1.1,0.5,1.5,1c0.4,0.4,0.8,0.9,1,1.6
		c0.2,0.6,0.4,1.3,0.4,2.1s-0.1,1.5-0.4,2.1c-0.2,0.6-0.6,1.1-1,1.6c-0.4,0.4-1,0.7-1.6,1c-0.6,0.2-1.3,0.3-2,0.3H45.5z M49,185.6
		c0.4,0,0.8-0.1,1.1-0.2c0.4-0.1,0.7-0.3,1-0.6c0.3-0.3,0.5-0.6,0.6-1s0.2-0.9,0.2-1.4s-0.1-1-0.2-1.4c-0.2-0.4-0.4-0.7-0.6-1
		c-0.3-0.3-0.6-0.5-0.9-0.6c-0.4-0.1-0.7-0.2-1.1-0.2h-1.6v6.3H49z"/>
	<path class="st20" d="M55.1,185.5c0-0.3,0.1-0.6,0.2-0.8c0.1-0.2,0.3-0.4,0.4-0.6c0.2-0.2,0.4-0.3,0.7-0.4c0.2-0.1,0.5-0.2,0.8-0.2
		l1.7-0.3c0.2,0,0.3-0.1,0.4-0.2s0.1-0.2,0.1-0.3c0-0.2-0.1-0.5-0.3-0.6c-0.2-0.2-0.5-0.3-0.9-0.3c-0.4,0-0.7,0.1-0.9,0.3
		c-0.2,0.2-0.3,0.5-0.4,0.8l-1.7-0.3c0-0.3,0.1-0.5,0.3-0.8c0.1-0.3,0.3-0.5,0.6-0.7s0.5-0.4,0.9-0.5c0.4-0.1,0.8-0.2,1.2-0.2
		c0.5,0,1,0.1,1.4,0.2c0.4,0.1,0.7,0.3,0.9,0.6c0.2,0.2,0.4,0.5,0.5,0.8s0.2,0.6,0.2,1v3.4c0,0.2,0,0.4,0,0.6s0,0.4,0.1,0.5h-1.7
		c0-0.1,0-0.2,0-0.4c0-0.2,0-0.3,0-0.4c-0.2,0.3-0.4,0.5-0.8,0.7c-0.3,0.2-0.8,0.3-1.3,0.3c-0.4,0-0.7-0.1-1-0.2
		c-0.3-0.1-0.5-0.3-0.7-0.5c-0.2-0.2-0.4-0.4-0.5-0.7S55.1,185.8,55.1,185.5z M57.9,186.2c0.2,0,0.4,0,0.6-0.1
		c0.2-0.1,0.3-0.1,0.5-0.3c0.1-0.1,0.3-0.3,0.3-0.5c0.1-0.2,0.1-0.5,0.1-0.8v-0.3l-1.6,0.2c-0.2,0-0.4,0.1-0.6,0.3
		c-0.2,0.1-0.2,0.3-0.2,0.6c0,0.2,0.1,0.4,0.2,0.6C57.3,186.1,57.6,186.2,57.9,186.2z"/>
	<path class="st20" d="M65.3,180.5h1.4v1.7h-1.4v2.9c0,0.3,0.1,0.5,0.2,0.6c0.1,0.1,0.3,0.2,0.6,0.2c0.1,0,0.2,0,0.3,0
		c0.1,0,0.2,0,0.2,0v1.5c-0.1,0-0.2,0.1-0.4,0.1c-0.2,0-0.4,0.1-0.7,0.1c-0.7,0-1.2-0.2-1.6-0.6c-0.4-0.4-0.6-0.9-0.6-1.6v-3.2h-1.2
		v-1.7h0.4c0.4,0,0.6-0.1,0.8-0.3c0.2-0.2,0.3-0.5,0.3-0.8v-1h1.7V180.5z"/>
	<path class="st20" d="M67.9,185.5c0-0.3,0.1-0.6,0.2-0.8c0.1-0.2,0.3-0.4,0.4-0.6c0.2-0.2,0.4-0.3,0.7-0.4c0.2-0.1,0.5-0.2,0.8-0.2
		l1.7-0.3c0.2,0,0.3-0.1,0.4-0.2s0.1-0.2,0.1-0.3c0-0.2-0.1-0.5-0.3-0.6c-0.2-0.2-0.5-0.3-0.9-0.3c-0.4,0-0.7,0.1-0.9,0.3
		c-0.2,0.2-0.3,0.5-0.4,0.8l-1.7-0.3c0-0.3,0.1-0.5,0.3-0.8c0.1-0.3,0.3-0.5,0.6-0.7s0.5-0.4,0.9-0.5c0.4-0.1,0.8-0.2,1.2-0.2
		c0.5,0,1,0.1,1.4,0.2c0.4,0.1,0.7,0.3,0.9,0.6c0.2,0.2,0.4,0.5,0.5,0.8s0.2,0.6,0.2,1v3.4c0,0.2,0,0.4,0,0.6s0,0.4,0.1,0.5h-1.7
		c0-0.1,0-0.2,0-0.4c0-0.2,0-0.3,0-0.4c-0.2,0.3-0.4,0.5-0.8,0.7c-0.3,0.2-0.8,0.3-1.3,0.3c-0.4,0-0.7-0.1-1-0.2
		c-0.3-0.1-0.5-0.3-0.7-0.5c-0.2-0.2-0.4-0.4-0.5-0.7S67.9,185.8,67.9,185.5z M70.7,186.2c0.2,0,0.4,0,0.6-0.1
		c0.2-0.1,0.3-0.1,0.5-0.3c0.1-0.1,0.3-0.3,0.3-0.5c0.1-0.2,0.1-0.5,0.1-0.8v-0.3l-1.6,0.2c-0.2,0-0.4,0.1-0.6,0.3
		c-0.2,0.1-0.2,0.3-0.2,0.6c0,0.2,0.1,0.4,0.2,0.6C70.1,186.1,70.4,186.2,70.7,186.2z"/>
	<path class="st20" d="M79.3,190.1v-9.5h1.8v0.8c0.2-0.3,0.4-0.5,0.8-0.7c0.4-0.2,0.8-0.3,1.3-0.3c0.5,0,1,0.1,1.3,0.3
		c0.4,0.2,0.7,0.4,1,0.8c0.3,0.3,0.5,0.7,0.6,1.1c0.1,0.4,0.2,0.9,0.2,1.4c0,0.5-0.1,1-0.2,1.4c-0.2,0.4-0.4,0.8-0.7,1.1
		c-0.3,0.3-0.6,0.6-1,0.8c-0.4,0.2-0.8,0.3-1.3,0.3c-0.5,0-0.9-0.1-1.2-0.2c-0.3-0.2-0.6-0.4-0.8-0.6v3.3H79.3z M84.6,184
		c0-0.6-0.2-1.1-0.5-1.4c-0.3-0.3-0.7-0.5-1.2-0.5c-0.2,0-0.5,0-0.7,0.1c-0.2,0.1-0.4,0.2-0.5,0.4c-0.2,0.2-0.3,0.4-0.4,0.6
		c-0.1,0.2-0.1,0.5-0.1,0.8c0,0.3,0,0.6,0.1,0.8s0.2,0.4,0.4,0.6s0.3,0.3,0.5,0.4c0.2,0.1,0.4,0.1,0.7,0.1c0.5,0,0.9-0.2,1.2-0.5
		C84.4,185.1,84.6,184.6,84.6,184z"/>
	<path class="st20" d="M92.4,187.4c0-0.1,0-0.2,0-0.3c0-0.1,0-0.3,0-0.4c-0.2,0.3-0.5,0.6-0.8,0.7s-0.7,0.2-1.1,0.2
		c-0.4,0-0.8-0.1-1.1-0.2c-0.3-0.1-0.6-0.3-0.8-0.6c-0.2-0.2-0.4-0.5-0.5-0.9c-0.1-0.3-0.2-0.7-0.2-1.1v-4.4h1.9v4
		c0,0.4,0.1,0.7,0.3,1c0.2,0.3,0.5,0.4,1,0.4c0.4,0,0.7-0.1,1-0.4c0.2-0.3,0.3-0.6,0.3-1v-4h1.9v5.6c0,0.3,0,0.5,0,0.7
		c0,0.2,0,0.4,0,0.5H92.4z"/>
	<path class="st20" d="M96.1,187.4v-10.1h1.8v4c0.2-0.2,0.4-0.5,0.8-0.7s0.8-0.3,1.3-0.3c0.5,0,1,0.1,1.3,0.3c0.4,0.2,0.7,0.4,1,0.8
		s0.5,0.7,0.6,1.1c0.1,0.4,0.2,0.9,0.2,1.4c0,0.5-0.1,1-0.2,1.4c-0.2,0.4-0.4,0.8-0.7,1.2c-0.3,0.3-0.6,0.6-1,0.8
		c-0.4,0.2-0.8,0.3-1.3,0.3c-0.5,0-0.9-0.1-1.2-0.3s-0.6-0.4-0.8-0.7v0.8H96.1z M101.3,184c0-0.6-0.2-1.1-0.5-1.4
		c-0.3-0.3-0.7-0.5-1.2-0.5c-0.2,0-0.5,0-0.7,0.1s-0.4,0.2-0.5,0.4c-0.2,0.2-0.3,0.4-0.4,0.6c-0.1,0.2-0.1,0.5-0.1,0.8
		c0,0.3,0,0.6,0.1,0.8c0.1,0.2,0.2,0.4,0.4,0.6s0.3,0.3,0.5,0.4s0.4,0.1,0.7,0.1c0.5,0,0.9-0.2,1.2-0.5
		C101.1,185.1,101.3,184.6,101.3,184z"/>
	<path class="st20" d="M104.6,187.4v-10.1h1.9v10.1H104.6z"/>
	<path class="st20" d="M108.3,178.3c0-0.3,0.1-0.6,0.3-0.8c0.2-0.2,0.5-0.3,0.8-0.3c0.3,0,0.6,0.1,0.8,0.3c0.2,0.2,0.3,0.5,0.3,0.8
		c0,0.3-0.1,0.6-0.3,0.8c-0.2,0.2-0.5,0.3-0.8,0.3c-0.3,0-0.6-0.1-0.8-0.3C108.4,178.8,108.3,178.6,108.3,178.3z M108.5,187.4v-6.9
		h1.9v6.9H108.5z"/>
	<path class="st20" d="M113.3,185.1c0,0.3,0.1,0.5,0.3,0.7s0.5,0.3,0.9,0.3c0.3,0,0.5-0.1,0.7-0.2s0.2-0.3,0.2-0.5
		c0-0.2-0.1-0.3-0.2-0.4c-0.1-0.1-0.3-0.2-0.6-0.3l-0.9-0.2c-0.7-0.1-1.2-0.4-1.5-0.8c-0.3-0.4-0.5-0.8-0.5-1.3
		c0-0.3,0.1-0.6,0.2-0.9s0.3-0.5,0.5-0.7c0.2-0.2,0.5-0.4,0.8-0.5c0.3-0.1,0.7-0.2,1-0.2c0.5,0,0.9,0.1,1.2,0.2
		c0.3,0.1,0.6,0.3,0.8,0.5s0.4,0.4,0.5,0.7c0.1,0.2,0.2,0.4,0.2,0.6l-1.6,0.4c0-0.1,0-0.2-0.1-0.3s-0.1-0.2-0.2-0.3
		c-0.1-0.1-0.2-0.2-0.3-0.2c-0.1-0.1-0.3-0.1-0.5-0.1c-0.2,0-0.5,0.1-0.6,0.2c-0.2,0.1-0.3,0.3-0.3,0.5c0,0.2,0.1,0.3,0.2,0.4
		c0.1,0.1,0.3,0.2,0.5,0.2l1,0.2c0.7,0.1,1.2,0.4,1.5,0.8s0.5,0.8,0.5,1.3c0,0.3-0.1,0.6-0.2,0.8c-0.1,0.3-0.3,0.5-0.5,0.7
		c-0.2,0.2-0.5,0.4-0.8,0.5c-0.3,0.1-0.7,0.2-1.2,0.2c-0.5,0-1-0.1-1.3-0.2c-0.4-0.1-0.6-0.3-0.9-0.5c-0.2-0.2-0.4-0.4-0.5-0.7
		c-0.1-0.2-0.2-0.5-0.2-0.7L113.3,185.1z"/>
	<path class="st20" d="M120.7,187.4h-1.9v-10.1h1.9v3.8c0.2-0.3,0.5-0.5,0.9-0.6c0.3-0.1,0.7-0.2,1-0.2c0.4,0,0.8,0.1,1.1,0.2
		c0.3,0.1,0.6,0.3,0.8,0.6c0.2,0.2,0.4,0.5,0.5,0.9c0.1,0.3,0.2,0.7,0.2,1.1v4.3h-1.9v-4c0-0.4-0.1-0.7-0.3-1
		c-0.2-0.3-0.5-0.4-1-0.4c-0.4,0-0.7,0.1-0.9,0.4s-0.3,0.6-0.4,1V187.4z"/>
	<path class="st20" d="M133.1,185.4c-0.1,0.3-0.2,0.6-0.4,0.8c-0.2,0.3-0.4,0.5-0.7,0.7c-0.3,0.2-0.6,0.4-0.9,0.5
		c-0.4,0.1-0.7,0.2-1.2,0.2c-0.5,0-0.9-0.1-1.4-0.2c-0.4-0.2-0.8-0.4-1.1-0.7c-0.3-0.3-0.6-0.7-0.8-1.2c-0.2-0.5-0.3-1-0.3-1.6
		c0-0.6,0.1-1.1,0.3-1.5c0.2-0.4,0.4-0.8,0.7-1.1c0.3-0.3,0.7-0.6,1.1-0.7c0.4-0.2,0.8-0.3,1.3-0.3c1.1,0,1.9,0.3,2.5,1
		c0.6,0.6,0.9,1.5,0.9,2.6c0,0.1,0,0.3,0,0.4c0,0.1,0,0.2,0,0.2h-4.9c0,0.2,0.1,0.4,0.2,0.6c0.1,0.2,0.2,0.4,0.4,0.5
		c0.2,0.1,0.3,0.2,0.5,0.3c0.2,0.1,0.4,0.1,0.7,0.1c0.4,0,0.8-0.1,1-0.3c0.2-0.2,0.4-0.4,0.5-0.8L133.1,185.4z M131.4,183.2
		c0-0.2,0-0.3-0.1-0.5c-0.1-0.2-0.2-0.3-0.3-0.4s-0.3-0.2-0.5-0.3s-0.4-0.1-0.7-0.1c-0.2,0-0.5,0-0.6,0.1s-0.3,0.2-0.5,0.3
		s-0.2,0.3-0.3,0.4c-0.1,0.2-0.1,0.3-0.1,0.5H131.4z"/>
	<path class="st20" d="M141.3,186.2c0,0.2,0,0.5,0,0.7c0,0.2,0,0.4,0,0.6h-1.8c0-0.1,0-0.2,0-0.3c0-0.1,0-0.3,0-0.5
		c-0.2,0.3-0.4,0.5-0.7,0.7c-0.3,0.2-0.7,0.3-1.2,0.3c-0.5,0-0.9-0.1-1.4-0.3c-0.4-0.2-0.8-0.4-1.1-0.8c-0.3-0.3-0.5-0.7-0.7-1.1
		s-0.3-0.9-0.3-1.4c0-0.5,0.1-1,0.2-1.4s0.4-0.8,0.7-1.1c0.3-0.3,0.6-0.6,1-0.8c0.4-0.2,0.9-0.3,1.3-0.3c0.3,0,0.6,0,0.8,0.1
		c0.2,0.1,0.4,0.1,0.6,0.2c0.2,0.1,0.3,0.2,0.4,0.3c0.1,0.1,0.2,0.2,0.2,0.3v-3.9h1.8V186.2z M136.1,184c0,0.6,0.2,1.1,0.5,1.4
		c0.3,0.3,0.7,0.5,1.2,0.5c0.5,0,0.9-0.2,1.2-0.5c0.3-0.3,0.5-0.8,0.5-1.5c0-0.6-0.2-1.1-0.5-1.4c-0.3-0.3-0.7-0.5-1.2-0.5
		c-0.5,0-0.9,0.2-1.2,0.5S136.1,183.3,136.1,184z"/>
	<path class="st20" d="M146.5,178.3c0-0.3,0.1-0.6,0.3-0.8c0.2-0.2,0.5-0.3,0.8-0.3c0.3,0,0.6,0.1,0.8,0.3c0.2,0.2,0.3,0.5,0.3,0.8
		c0,0.3-0.1,0.6-0.3,0.8c-0.2,0.2-0.5,0.3-0.8,0.3c-0.3,0-0.6-0.1-0.8-0.3C146.6,178.8,146.5,178.6,146.5,178.3z M146.8,187.4v-6.9
		h1.9v6.9H146.8z"/>
	<path class="st20" d="M152.5,187.4h-1.9v-6.9h1.8v0.9c0.2-0.4,0.5-0.6,0.9-0.8c0.4-0.2,0.7-0.3,1.1-0.3c0.4,0,0.8,0.1,1.1,0.2
		c0.3,0.1,0.6,0.3,0.8,0.6c0.2,0.2,0.4,0.5,0.5,0.9s0.1,0.7,0.1,1.1v4.3H155v-4c0-0.4-0.1-0.7-0.3-1c-0.2-0.3-0.5-0.4-1-0.4
		c-0.4,0-0.7,0.1-1,0.4c-0.2,0.3-0.3,0.6-0.3,1V187.4z"/>
</g>
<g class="st18">
	<path class="st19" d="M81.6,199.3c0-0.6,0.1-1.3,0.2-1.9c0.1-0.6,0.4-1.2,0.7-1.7c0.3-0.5,0.8-0.9,1.3-1.2c0.5-0.3,1.2-0.4,1.9-0.4
		s1.4,0.1,1.9,0.4c0.5,0.3,1,0.7,1.3,1.2c0.3,0.5,0.6,1.1,0.7,1.7c0.1,0.6,0.2,1.2,0.2,1.9c0,0.6-0.1,1.3-0.2,1.9
		c-0.1,0.6-0.4,1.2-0.7,1.7c-0.3,0.5-0.8,0.9-1.3,1.2c-0.5,0.3-1.2,0.4-1.9,0.4s-1.4-0.1-1.9-0.4c-0.5-0.3-0.9-0.7-1.3-1.2
		c-0.3-0.5-0.6-1.1-0.7-1.7C81.6,200.5,81.6,199.9,81.6,199.3z M83.5,199.3c0,0.6,0,1.1,0.1,1.6c0.1,0.5,0.3,0.8,0.5,1.1
		c0.2,0.2,0.4,0.4,0.6,0.6s0.5,0.2,0.9,0.2c0.4,0,0.7-0.1,0.9-0.2s0.4-0.3,0.6-0.6c0.2-0.3,0.4-0.7,0.5-1.1c0.1-0.5,0.2-1,0.2-1.6
		s-0.1-1.1-0.2-1.6c-0.1-0.5-0.3-0.8-0.5-1.1c-0.2-0.2-0.4-0.4-0.6-0.6s-0.5-0.2-0.9-0.2c-0.4,0-0.7,0.1-0.9,0.2s-0.4,0.3-0.6,0.6
		c-0.2,0.3-0.4,0.7-0.5,1.1C83.5,198.2,83.5,198.7,83.5,199.3z"/>
	<path class="st19" d="M91,199.3c0-0.6,0.1-1.3,0.2-1.9c0.1-0.6,0.4-1.2,0.7-1.7c0.3-0.5,0.8-0.9,1.3-1.2c0.5-0.3,1.2-0.4,1.9-0.4
		s1.4,0.1,1.9,0.4c0.5,0.3,1,0.7,1.3,1.2c0.3,0.5,0.6,1.1,0.7,1.7c0.1,0.6,0.2,1.2,0.2,1.9c0,0.6-0.1,1.3-0.2,1.9
		c-0.1,0.6-0.4,1.2-0.7,1.7c-0.3,0.5-0.8,0.9-1.3,1.2c-0.5,0.3-1.2,0.4-1.9,0.4s-1.4-0.1-1.9-0.4c-0.5-0.3-0.9-0.7-1.3-1.2
		c-0.3-0.5-0.6-1.1-0.7-1.7C91.1,200.5,91,199.9,91,199.3z M92.9,199.3c0,0.6,0,1.1,0.1,1.6c0.1,0.5,0.3,0.8,0.5,1.1
		c0.2,0.2,0.4,0.4,0.6,0.6s0.5,0.2,0.9,0.2c0.4,0,0.7-0.1,0.9-0.2s0.4-0.3,0.6-0.6c0.2-0.3,0.4-0.7,0.5-1.1c0.1-0.5,0.2-1,0.2-1.6
		s-0.1-1.1-0.2-1.6c-0.1-0.5-0.3-0.8-0.5-1.1c-0.2-0.2-0.4-0.4-0.6-0.6s-0.5-0.2-0.9-0.2c-0.4,0-0.7,0.1-0.9,0.2s-0.4,0.3-0.6,0.6
		c-0.2,0.3-0.4,0.7-0.5,1.1C93,198.2,92.9,198.7,92.9,199.3z"/>
	<path class="st19" d="M100.7,198.5c0-0.4,0.1-0.7,0.4-0.9c0.2-0.2,0.5-0.4,0.9-0.4c0.2,0,0.3,0,0.5,0.1c0.2,0.1,0.3,0.2,0.4,0.3
		c0.1,0.1,0.2,0.2,0.3,0.4c0.1,0.2,0.1,0.3,0.1,0.5c0,0.2,0,0.3-0.1,0.5s-0.2,0.3-0.3,0.4c-0.1,0.1-0.3,0.2-0.4,0.3
		c-0.2,0.1-0.3,0.1-0.5,0.1c-0.3,0-0.6-0.1-0.9-0.4C100.9,199.1,100.7,198.8,100.7,198.5z M100.8,203.1c0-0.4,0.1-0.7,0.4-0.9
		c0.2-0.2,0.5-0.4,0.9-0.4c0.2,0,0.3,0,0.5,0.1s0.3,0.2,0.4,0.3c0.1,0.1,0.2,0.2,0.3,0.4c0.1,0.2,0.1,0.3,0.1,0.5
		c0,0.2,0,0.3-0.1,0.5s-0.2,0.3-0.3,0.4c-0.1,0.1-0.3,0.2-0.4,0.3s-0.3,0.1-0.5,0.1c-0.3,0-0.6-0.1-0.9-0.4
		C100.9,203.7,100.8,203.4,100.8,203.1z"/>
	<path class="st19" d="M104.8,198c0-0.1,0-0.2,0-0.3c0-0.1,0-0.2,0-0.3c0-0.4,0.1-0.8,0.2-1.2c0.2-0.4,0.4-0.7,0.7-1
		c0.3-0.3,0.7-0.5,1.1-0.7c0.4-0.2,0.9-0.3,1.5-0.3c0.6,0,1,0.1,1.5,0.3c0.4,0.2,0.8,0.4,1.1,0.7c0.3,0.3,0.5,0.6,0.7,1
		c0.2,0.4,0.2,0.8,0.2,1.2c0,0.7-0.2,1.2-0.5,1.8c-0.3,0.5-0.8,1-1.4,1.3l-1.9,1.2c-0.2,0.1-0.4,0.3-0.6,0.4
		c-0.2,0.2-0.3,0.4-0.4,0.6h4.8v1.7h-7.2c0-0.4,0-0.8,0.1-1.2c0.1-0.4,0.2-0.8,0.4-1.1c0.2-0.3,0.4-0.7,0.7-1
		c0.3-0.3,0.7-0.6,1.1-0.9l1.6-1c0.4-0.3,0.7-0.5,0.9-0.8c0.2-0.3,0.3-0.6,0.3-1c0-0.2,0-0.4-0.1-0.6c-0.1-0.2-0.2-0.3-0.3-0.5
		c-0.1-0.1-0.3-0.2-0.5-0.3c-0.2-0.1-0.4-0.1-0.7-0.1c-0.6,0-1,0.2-1.2,0.5c-0.3,0.3-0.4,0.8-0.4,1.2c0,0.1,0,0.2,0,0.3
		c0,0.1,0,0.2,0,0.3L104.8,198z"/>
	<path class="st19" d="M113.8,202.3c0.2,0.1,0.4,0.2,0.8,0.3c0.3,0.1,0.7,0.1,1,0.1c1,0,1.8-0.3,2.3-0.8c0.6-0.5,0.9-1.3,0.9-2.2
		c-0.2,0.3-0.5,0.6-0.9,0.8c-0.4,0.2-0.9,0.3-1.5,0.3c-0.4,0-0.9-0.1-1.3-0.2c-0.4-0.1-0.8-0.4-1.1-0.7c-0.3-0.3-0.6-0.6-0.7-1.1
		c-0.2-0.4-0.3-0.9-0.3-1.4c0-0.5,0.1-1,0.3-1.4c0.2-0.4,0.5-0.8,0.8-1.1s0.7-0.5,1.2-0.7c0.5-0.2,1-0.3,1.5-0.3
		c0.5,0,1,0.1,1.5,0.3c0.5,0.2,0.9,0.5,1.3,0.9c0.4,0.4,0.6,0.9,0.9,1.5s0.3,1.3,0.3,2.1c0,0.9-0.1,1.7-0.3,2.4
		c-0.2,0.7-0.5,1.3-1,1.8s-1,0.9-1.6,1.1c-0.6,0.3-1.4,0.4-2.2,0.4c-0.2,0-0.4,0-0.6,0c-0.2,0-0.4-0.1-0.6-0.1
		c-0.2,0-0.4-0.1-0.6-0.2c-0.2-0.1-0.3-0.1-0.5-0.2L113.8,202.3z M118.5,197.5c0-0.3,0-0.5-0.1-0.7c-0.1-0.2-0.2-0.4-0.4-0.6
		s-0.4-0.3-0.6-0.4c-0.2-0.1-0.5-0.1-0.7-0.1c-0.2,0-0.5,0-0.7,0.1c-0.2,0.1-0.4,0.2-0.6,0.4s-0.3,0.3-0.4,0.6
		c-0.1,0.2-0.1,0.5-0.1,0.7c0,0.3,0,0.5,0.1,0.7c0.1,0.2,0.2,0.4,0.4,0.6c0.2,0.2,0.4,0.3,0.6,0.4c0.2,0.1,0.5,0.1,0.7,0.1
		c0.2,0,0.5,0,0.7-0.1c0.2-0.1,0.4-0.2,0.6-0.4s0.3-0.3,0.4-0.6C118.5,198,118.5,197.8,118.5,197.5z"/>
</g>
<rect x="30.3" y="139.3" class="st21" width="141.6" height="115"/>
</svg>
