<?xml version="1.0" encoding="utf-8"?>
<!-- Generator: Adobe Illustrator 19.2.1, SVG Export Plug-In . SVG Version: 6.00 Build 0)  -->
<svg version="1.1" id="Layer_1" xmlns="http://www.w3.org/2000/svg" xmlns:xlink="http://www.w3.org/1999/xlink" x="0px" y="0px"
	 viewBox="0 0 202 425" style="enable-background:new 0 0 202 425;" xml:space="preserve">
<style type="text/css">
	.st0{fill:none;}
	.st1{fill:#FFFFFF;stroke:#1E1E1E;stroke-miterlimit:10;}
	.st2{fill:#1E1E1E;}
	.st3{fill:#C1C1C1;stroke:#575756;stroke-miterlimit:10;}
	.st4{fill:#FFFFFF;stroke:#000000;stroke-miterlimit:10;}
	.st5{stroke:#FFFFFF;stroke-width:0.746;stroke-miterlimit:10;}
	.st6{stroke:#FFFFFF;stroke-width:0.8525;stroke-miterlimit:10;}
	.st7{fill:#FFFFFF;}
	.st8{fill:#C1C1C1;}
	.st9{fill:#2341C1;}
	.st10{enable-background:new    ;}
	.st11{fill:#1D1D1B;}
</style>
<path class="st0" d="M0,0"/>
<path class="st1" d="M201.5,393.7c0,16.5-13.4,29.8-29.8,29.8H31.3c-16.5,0-29.8-13.4-29.8-29.8V30.3c0-16.5,13.4-29.8,29.8-29.8
	h140.3c16.5,0,29.8,13.4,29.8,29.8L201.5,393.7L201.5,393.7z"/>
<g>
	<path class="st2" d="M101.2,0.9c0,0,9.3-0.1,25.7-0.3c8.2-0.1,18.1-0.2,29.5-0.3c2.8,0,5.8,0,8.8-0.1c1.5,0,3,0,4.6,0
		c0.8,0,1.6,0,2.4,0h1.2l1.2,0.1c6.5,0.5,13.2,3.3,18.4,8.3s8.6,12.2,8.9,20C202,36.2,202,44,202,52c0,16.1,0,33,0.1,50.5
		c0,35,0.1,72.4,0.1,109.8s-0.1,74.8-0.1,109.8c0,17.5,0,34.5-0.1,50.5c0,4,0,8,0,11.9c0,2,0,3.9,0,5.8s0,3.8-0.1,5.8
		c-0.7,7.7-4.2,14.8-9.4,19.8c-2.6,2.5-5.5,4.5-8.7,5.9c-3.1,1.4-6.4,2.2-9.7,2.4c-1.6,0.1-3.2,0.1-4.8,0.1s-3.1,0-4.6,0
		c-3,0-6,0-8.8-0.1c-11.4-0.1-21.3-0.2-29.5-0.3c-16.4-0.2-25.7-0.3-25.7-0.3s9.3-0.1,25.7-0.3c8.2-0.1,18.1-0.2,29.5-0.3
		c2.8,0,5.8,0,8.8-0.1c1.5,0,3,0,4.6,0s3.1,0,4.7-0.1c3.1-0.2,6.3-1,9.3-2.4c3-1.3,5.8-3.3,8.2-5.7c4.9-4.8,8.2-11.6,8.8-18.9
		c0.2-1.8,0.1-3.7,0.1-5.7c0-1.9,0-3.9,0-5.8c0-3.9,0-7.9,0-11.9c0-16.1,0-33-0.1-50.5c0-35-0.1-72.4-0.1-109.8s0.1-74.8,0.1-109.8
		c0-17.5,0-34.5,0.1-50.5c0-8,0.1-15.9,0-23.4c-0.3-7.4-3.5-14.3-8.4-19.1s-11.3-7.5-17.5-8l-1.2-0.1h-1.2c-0.8,0-1.6,0-2.3,0
		c-1.6,0-3.1,0-4.6,0c-3,0-6,0-8.8-0.1C145,1,135.1,0.9,126.9,0.8C110.6,1,101.2,0.9,101.2,0.9z"/>
</g>
<g>
	<g>
		<path class="st2" d="M102.9,374.9c0,0,0.2,0,0.6,0s1-0.1,1.7,0c0.4,0,0.8,0.1,1.2,0.1c0.4,0.1,0.9,0.2,1.4,0.3
			c0.5,0.1,1,0.3,1.6,0.5s1.1,0.5,1.7,0.7c0.6,0.3,1.2,0.6,1.8,1c0.6,0.4,1.2,0.8,1.8,1.3c1.2,0.9,2.2,2.1,3.2,3.5
			c0.9,1.4,1.7,2.9,2.2,4.6s0.8,3.4,0.8,5.2c-0.1,0.9,0,1.7-0.2,2.6c-0.1,0.9-0.4,1.8-0.6,2.6c-0.5,1.7-1.3,3.2-2.2,4.6
			c-0.9,1.4-2,2.6-3.2,3.5c-0.6,0.5-1.2,0.9-1.8,1.3c-0.6,0.4-1.2,0.7-1.8,1c-0.6,0.2-1.2,0.5-1.7,0.7c-0.6,0.2-1.1,0.3-1.6,0.5
			c-0.5,0.1-1,0.2-1.4,0.3c-0.4,0-0.9,0.1-1.2,0.1c-0.7,0.1-1.3,0-1.7,0c-0.4,0-0.6,0-0.6,0s0.2,0,0.6-0.1s1-0.1,1.7-0.3
			c0.4-0.1,0.7-0.2,1.2-0.3c0.4-0.1,0.9-0.3,1.3-0.4c0.5-0.2,0.9-0.4,1.5-0.6c0.5-0.2,1-0.5,1.5-0.8c1-0.7,2.1-1.4,3.1-2.4
			c1-0.9,1.9-2.1,2.7-3.3c0.8-1.3,1.4-2.7,1.9-4.2c0.2-0.8,0.4-1.5,0.5-2.3c0.1-0.7,0.1-1.7,0.2-2.4c0-1.6-0.2-3.2-0.7-4.7
			s-1-2.9-1.9-4.2c-0.8-1.2-1.7-2.4-2.7-3.3c-1-1-2.1-1.7-3.1-2.4c-0.5-0.3-1-0.6-1.5-0.8c-0.5-0.2-1-0.5-1.5-0.6
			c-0.5-0.2-0.9-0.3-1.3-0.4s-0.8-0.2-1.2-0.3c-0.7-0.2-1.3-0.2-1.7-0.3C103.1,375,102.9,374.9,102.9,374.9z"/>
	</g>
	<path class="st1" d="M102.9,409.1c-9.4,0-17.1-7.6-17.1-17.1c0-9.4,7.6-17.1,17.1-17.1"/>
</g>
<g>
	<rect x="14.5" y="61.5" class="st3" width="172" height="303"/>
	<g>
		<circle class="st4" cx="102.9" cy="392" r="17.1"/>
	</g>
	<circle class="st5" cx="101.8" cy="24.4" r="3.2"/>
	<path class="st6" d="M124.6,35.9H79.4c-1,0-1.8-0.8-1.8-1.8l0,0c0-1,0.8-1.8,1.8-1.8h45.2c1,0,1.8,0.8,1.8,1.8l0,0
		C126.3,35.1,125.5,35.9,124.6,35.9z"/>
	<g>
		<g>
			<rect x="24" y="77" class="st7" width="154" height="271"/>
		</g>
	</g>
	<g>
		<g>
			<circle class="st8" cx="24.4" cy="133.3" r="8.3"/>
		</g>
	</g>
	<path class="st9" d="M87.6,133.3l-1.9-5.3l2.5,0.3l2.5,3.8l8.5-0.6c1.1-0.3,0.6-1.8,0.6-1.8l-4.3-11.1l1.5,0.1
		c1-0.1,1.7,1.2,1.7,1.2l7.9,11c0,0,6,0.2,8,0.9c0,0,1.5,0.4,1.5,1.3v0.3c0,0.9-1.5,1.3-1.5,1.3c-2,0.7-8,0.9-8,0.9l-7.9,11.1
		c0,0-0.7,1.3-1.7,1.2l-1.5,0.1l4.3-11.1c0,0,0.5-1.5-0.6-1.8l-8.5-0.6l-2.4,3.8l-2.5,0.4L87.6,133.3"/>
	<rect x="49.3" y="180.1" class="st0" width="100.6" height="35.2"/>
	<g class="st10">
		<path class="st11" d="M70.2,189.2v-8.6h1.1v7.6h4.4v1H70.2z"/>
		<path class="st11" d="M83.3,180.6h1.1v8.6h-1.1v-3.9h-4.9v3.9h-1.1v-8.6h1.1v3.7h4.9V180.6z"/>
		<path class="st11" d="M89,185.6h-1.5v3.6h-1.1v-8.6h3.2c0.9,0,1.6,0.2,2.1,0.6c0.5,0.4,0.7,1,0.7,1.8c0,0.7-0.2,1.3-0.6,1.7
			s-0.9,0.7-1.6,0.8l2.5,3.7h-1.3L89,185.6z M87.5,181.6v3.1h2.1c0.6,0,1-0.1,1.3-0.4c0.3-0.3,0.5-0.6,0.5-1.1s-0.2-0.8-0.5-1.1
			s-0.7-0.4-1.3-0.4h-2.1V181.6z"/>
		<path class="st11" d="M101.3,184.6v1.1l-4.2,2.1v-1l3.3-1.7l-3.3-1.7v-1L101.3,184.6z"/>
		<path class="st11" d="M105.5,187h1.1c0.3,1,1.1,1.4,2.2,1.4c0.6,0,1-0.1,1.4-0.4c0.3-0.3,0.5-0.6,0.5-1.1c0-0.3-0.1-0.6-0.3-0.8
			c-0.2-0.2-0.6-0.4-1-0.5l-1.5-0.4c-1.4-0.4-2.1-1.1-2.1-2.2c0-0.7,0.3-1.3,0.8-1.8s1.2-0.7,2-0.7c0.9,0,1.6,0.2,2.1,0.6
			c0.5,0.4,0.9,1,1.1,1.7h-1.1c-0.3-0.9-1-1.3-2-1.3c-0.5,0-1,0.1-1.3,0.4c-0.3,0.3-0.5,0.6-0.5,1s0.1,0.6,0.3,0.8
			c0.2,0.2,0.6,0.4,1,0.5l1.5,0.4c1.4,0.4,2.1,1.1,2.1,2.3c0,0.8-0.3,1.4-0.8,1.8s-1.3,0.7-2.1,0.7s-1.6-0.2-2.2-0.6
			S105.7,187.8,105.5,187z"/>
		<path class="st11" d="M114.5,189.2h-1.1v-8.6h5.2v1h-4.1v2.9h3.9v1h-3.9V189.2z"/>
		<path class="st11" d="M126.3,181.8c0.7,0.8,1.1,1.9,1.1,3.2s-0.4,2.4-1.1,3.2s-1.7,1.2-2.8,1.2c-1.1,0-2.1-0.4-2.8-1.2
			c-0.7-0.8-1.1-1.9-1.1-3.2s0.4-2.4,1.1-3.2s1.7-1.2,2.8-1.2C124.7,180.5,125.6,180.9,126.3,181.8z M125.5,187.4
			c0.5-0.6,0.8-1.5,0.8-2.5s-0.3-1.8-0.8-2.5c-0.5-0.6-1.2-1-2-1s-1.5,0.3-2,1c-0.5,0.6-0.8,1.5-0.8,2.5s0.3,1.8,0.8,2.5
			c0.5,0.6,1.2,1,2,1C124.4,188.4,125,188.1,125.5,187.4z"/>
	</g>
	<g>
		<g>
			<circle class="st8" cx="177.1" cy="133.3" r="8.3"/>
		</g>
	</g>
</g>
<g id="e5KAql_2_">
	<g>
		<g>
			<path class="st7" d="M167.8,333.4c-44,0-88,0-132,0c0-44,0-88,0-132c44,0,88,0,132,0C167.8,245.4,167.8,289.4,167.8,333.4z
				 M124,253.3c-0.2,0-0.3,0-0.5,0c-1,0-2,0-3.1,0c-0.2,0-0.3,0-0.5,0c0,1.3,0,2.6,0,4c1.3,0,2.7,0,4,0c0,0.1,0,0.1,0,0.2
				c0,1.2,0,2.3,0,3.5c0,0.1,0,0.2,0,0.3c0.5,0,0.9,0,1.3,0c0.4,0,0.8,0,1.3,0c0.4,0,0.9,0,1.3,0c0,0.2,0,0.4,0,0.5c0,1,0,2,0,3
				c0,0.2,0,0.3,0,0.5c-0.1,0-0.1,0-0.2,0c-2.5,0-5,0-7.5,0c-0.1,0-0.2,0-0.3,0c0,1.3,0,2.6,0,3.9c-1.3,0-2.6,0-4,0
				c0-0.5,0-0.9,0-1.3c0-0.4,0-0.9,0-1.3c0-0.4,0-0.9,0-1.3c-1.4,0-2.7,0-4,0c0-1.3,0-2.6,0-4c0.5,0,0.9,0,1.3,0c0.4,0,0.9,0,1.3,0
				c0.4,0,0.9,0.1,1.3-0.1c0-0.2,0-0.4,0-0.5c0-3.6,0-7.2,0-10.8c0-0.2,0-0.3,0.1-0.5c0.1,0,0.3,0,0.4,0c1,0,2,0,3,0
				c0.1,0,0.3,0,0.4,0c0.1-0.6,0.1-7.6,0-7.9c-0.7-0.1-3.6-0.1-3.9,0c0,0.1,0,0.2,0,0.3c0,2.4,0,4.8,0,7.3c0,0.1,0,0.3,0.1,0.4
				c-0.2,0-0.3,0-0.5,0c-1,0-2,0-3.1,0c-0.2,0-0.3,0-0.5,0c0-1.4,0-2.7,0-4c0-1.3,0-2.6,0-4c0-1.3,0-2.6,0-3.9c0-1.3,0-2.6,0-4
				c0-1.3,0-2.6,0-3.9c-0.5,0-0.9,0-1.4,0c-0.4,0-0.8,0-1.3,0c-0.4,0-0.9,0-1.3,0c0-1.3,0-2.6,0-3.9c-2.7,0-5.3,0-7.9,0
				c0,0.2,0,0.3,0,0.4c0,2.4,0,4.7,0,7.1c0,0.1,0,0.2,0,0.3c-0.2,0-0.3,0-0.5,0c-1,0-2,0-3.1,0c-0.2,0-0.3,0-0.5,0c0,0.7,0,1.4,0,2
				c0,0.7,0,1.3,0,2c-1.3,0-2.6,0-3.9,0c0-0.2,0-0.3,0-0.5c0-1,0-2,0-3.1c0-0.1,0-0.3,0-0.4c-0.7-0.1-3.6-0.1-3.9,0
				c0,1.3,0,2.6,0,3.9c1.4,0,2.7,0,4,0c0,0.2,0,0.3,0,0.5c0,3.6,0,7.2,0,10.8c0,0.2,0,0.3,0,0.6c-0.2,0-0.4,0-0.5,0c-1,0-2,0-3.1,0
				c-0.2,0-0.3,0-0.5,0c0-0.1,0-0.3,0-0.4c0-2.4,0-4.7,0-7.1c0-0.1,0-0.3,0-0.4c-1.3,0-2.6,0-3.9,0c0,2.6,0,5.2,0,7.9
				c0.2,0,0.3,0,0.5,0c1,0,1.9,0,2.9,0c0.2,0,0.3,0,0.5,0c0,0.1,0,0.1,0,0.2c0,1.2,0,2.3,0,3.5c0,0.1,0,0.1,0,0.2
				c-0.1,0-0.2,0-0.3,0c-2.4,0-4.8,0-7.2,0c-0.1,0-0.2,0-0.3-0.1c0-0.1,0-0.3,0-0.4c0-1,0-2,0-3c0-0.1,0-0.3,0-0.4
				c-1.3,0-2.6,0-3.9,0c0,1.3,0,2.6,0,3.9c0.1,0,0.2,0,0.3,0c1.1,0,2.3,0,3.4,0c0.1,0,0.2,0,0.3-0.1c0,0.3,0,0.7,0,1
				c0,1,0,2.1,0,3.1c-0.1,0-0.1,0-0.2,0c-2.5,0-4.9,0-7.4,0c-0.1,0-0.2,0-0.3,0c0,0.2,0,0.3,0,0.5c0,3.6,0,7.3,0,10.9
				c0,0.1,0,0.3,0,0.4c-0.2,0-0.3,0-0.5,0c-1,0-2,0-3.1,0c-0.2,0-0.3,0-0.5,0c0,1.3,0,2.6,0,4c-0.2,0-0.3,0-0.5,0
				c-2.3,0-4.6,0-6.9,0c-0.2,0-0.4,0-0.6,0c0-0.1,0.1-0.3,0.1-0.4c0-1.1,0-2.2,0-3.3c0-0.1,0-0.2,0-0.3c-1.3,0-2.6,0-3.9,0
				c-0.1,0.6-0.1,3.6,0,4c0.1,0,0.3,0,0.4,0c1,0,2,0,3,0c0.1,0,0.3,0,0.4,0c0,0.1,0.1,0.2,0.1,0.3c0,1.1,0,2.2,0,3.3
				c0,0.1,0,0.2-0.1,0.3c-0.1,0-0.3,0-0.4,0c-1,0-2,0-3,0c-0.1,0-0.3,0-0.4,0c0,2.6,0,5.3,0,7.9c1.3,0,2.6,0,3.9,0
				c0-0.1,0-0.2,0-0.4c0-2.4,0-4.8,0-7.2c0-0.1,0-0.3-0.1-0.4c0.2,0,0.4,0,0.6,0c2.3,0,4.6,0,6.9,0c0.2,0,0.3,0,0.5,0
				c0,1.4,0,2.7,0,4c-1.3,0-2.6,0-3.8,0c0,0,0,0-0.1,0c0,1.3,0,2.6,0,3.8c0.5,0.1,3.6,0.1,3.9,0c0-1.3,0-2.6,0-3.9c0.7,0,1.3,0,2,0
				c0.7,0,1.3,0,2,0c0,0.7,0,1.3,0,2c0,0.6,0,1.3,0,2c4,0,7.9,0,11.9,0c0,1.3,0,2.6,0,3.9c1.3,0,2.6,0,3.9,0c0-0.2,0-0.3,0-0.4
				c0-2.4,0-4.8,0-7.2c0-0.1,0-0.2,0-0.3c1.3,0,2.7,0,4,0c0,0,0,0.1,0,0.1c0,2.5,0,5,0,7.5c0,0.1,0,0.2,0.1,0.3c1.3,0,2.6,0,3.9,0
				c0,1.3,0,2.6,0,3.9c0.2,0,0.3,0,0.5,0c1,0,2.1,0,3.1,0c0.2,0,0.3,0,0.5,0.1c0,0,0,0,0,0c0,0.1,0,0.2,0,0.3c0,2.5,0,4.9,0,7.4
				c0,0.1,0,0.2,0,0.3c1.3,0,2.6,0,3.9,0c0,1.3,0,2.6,0,4c-1.3,0-2.6,0-3.9,0c0,1.3,0,2.6,0,4c0.2,0,0.3,0,0.4,0c0.7,0,1.5,0,2.2,0
				c1.8,0,3.5,0,5.3,0c0,1.3,0,2.6,0,4c-2.7,0-5.3,0-7.9,0c0,1.3,0,2.6,0,4c4,0,7.9,0,11.9,0c0-1.3,0-2.6,0-4c0.4,0,0.7,0,1,0
				c1,0,2,0,3.1,0c0,0.1,0,0.1,0,0.2c0,1.2,0,2.4,0,3.6c0,0.1,0,0.1,0,0.2c1.3,0,2.6,0,3.9,0c0-1.3,0-2.7,0-4c0.2,0,0.3,0,0.5,0
				c1,0,2,0,3.1,0c0.1,0,0.3,0,0.5,0c0,1.3,0,2.6,0,3.9c1.3,0,2.6,0,3.9,0c0-1.3,0-2.6,0-4c0.2,0,0.4,0,0.5,0c2.3,0,4.6,0,6.9,0
				c0.2,0,0.3,0,0.5,0c0,0.1,0,0.1,0,0.2c0,1.2,0,2.4,0,3.6c0,0.1,0,0.1,0,0.2c1.3,0,2.6,0,3.9,0c0-1.3,0-2.7,0-4c0.2,0,0.3,0,0.5,0
				c2.3,0,4.6,0,6.9,0c0.2,0,0.3,0,0.5,0c0,1.4,0,2.7,0,4c1.3,0,2.6,0,3.9,0c0-6.6,0-13.2,0-19.9c-1.3,0-2.6,0-4,0
				c0-1.3,0-2.6,0-3.9c1.3,0,2.6,0,4,0c0-1.3,0-2.6,0-3.9c-0.3,0-0.6,0-0.9,0c-1,0-2.1,0-3.1,0c0-0.1,0-0.1,0-0.2c0-2.5,0-4.9,0-7.4
				c0-0.1,0-0.2,0-0.3c0,0,0,0,0,0c0.2,0,0.3-0.1,0.5-0.1c1,0,2.1,0,3.1,0c0.1,0,0.3,0,0.4,0c0-2.6,0-5.3,0-7.9c-1.3,0-2.6,0-4,0
				c0-0.2,0-0.4,0-0.5c0-1.2,0-2.3,0-3.5c0.1,0,0.1,0,0.2,0c1.2,0,2.3,0,3.5,0c0.1,0,0.2,0,0.2,0c0.1-0.5,0.1-11.5,0-11.9
				c-1.3,0-2.6,0-3.9,0l0,0c0-1.2,0-2.4,0-3.6c0-0.2,0-0.3,0-0.5c0.1,0,0.3,0.1,0.4,0.1c1.1,0,2.2,0,3.3,0c0.1,0,0.2,0,0.3,0
				c0-1.3,0-2.6,0-3.9c-0.6-0.1-3.6-0.1-4,0c0,0.1,0,0.3,0,0.4c0,1,0,2,0,3c0,0.1,0,0.3,0,0.4c-0.2,0-0.4,0.1-0.6,0.1
				c-6.2,0-12.5,0-18.7,0c-0.2,0-0.3,0-0.5,0c0-0.2,0-0.3,0-0.5c0-1,0-2,0-3c0-0.2,0-0.3,0-0.5c-0.6-0.1-3.6-0.1-3.9,0
				c0,1.1,0,2.2,0,3.3C123.9,252.9,123.9,253.1,124,253.3z M88.1,221.6c0-0.1,0-0.2,0-0.3c0-1.2,0-2.3,0-3.5c0-0.1,0-0.1,0-0.2
				c-0.5-0.1-3.6-0.1-3.9,0c0,1.3,0,2.6,0,3.9c0.2,0,0.3,0,0.5,0C85.8,221.6,87,221.6,88.1,221.6c0,0.1,0,0.3,0,0.5c0,1,0,2,0,3
				c0,0.1,0,0.3,0,0.5c1.3,0,2.6,0,4,0c0,1.3,0,2.6,0,3.9c1.3,0,2.6,0,3.9,0c0-0.1,0-0.3,0-0.4c0-2.4,0-4.8,0-7.2c0-0.1,0-0.3,0-0.4
				c0.1,0,0.2,0,0.3,0c5.1,0,10.2,0,15.2,0c0.1,0,0.2,0,0.3,0c0-1.3,0-2.6,0-3.9c-0.6-0.1-15.5-0.1-15.9,0c0,1.1,0,2.2,0,3.4
				c0,0.2,0,0.3,0,0.5c-0.2,0-0.3,0-0.5,0c-2.3,0-4.6,0-7,0C88.4,221.6,88.3,221.6,88.1,221.6z M92.2,304.9c0-0.2,0-0.3,0-0.5
				c0-2.3,0-4.6,0-6.9c0-0.2,0-0.3,0-0.5c-2.7,0-5.3,0-7.9,0c-0.1,0.5-0.1,7.6,0,7.9c0.1,0,0.1,0,0.2,0c2.5,0,4.9,0,7.4,0
				C92,304.9,92.1,304.9,92.2,304.9c0,0.1,0,0.3,0,0.5c0,1,0,2.1,0,3.1c0,0.1,0,0.3,0,0.5c-2.6,0-5.3,0-7.9,0c0,2.7,0,5.3,0,7.9
				c0.5,0.1,7.6,0.1,7.9,0c0-1.3,0-2.6,0-3.9c1.3,0,2.6,0,3.9,0c0-2.7,0-5.3,0-7.9c-0.2,0-0.3,0-0.4,0c-1,0-2,0-3,0
				C92.5,304.9,92.3,304.9,92.2,304.9z M80.2,245.4c0-9.3,0-18.5,0-27.7c-0.4-0.1-27.4-0.1-27.8,0c0,9.2,0,18.5,0,27.7
				C61.7,245.4,71,245.4,80.2,245.4z M52.5,289.1c0,9.3,0,18.5,0,27.7c0.5,0.1,27.5,0.1,27.8,0c0-9.2,0-18.4,0-27.7
				C71,289.1,61.7,289.1,52.5,289.1z M151.7,245.4c0-9.3,0-18.5,0-27.7c-0.4-0.1-27.4-0.1-27.7,0c0,9.2,0,18.5,0,27.7
				C133.2,245.4,142.4,245.4,151.7,245.4z M52.5,249.4c0,4,0,7.9,0,11.9c2.6,0,5.3,0,7.9,0c0,1.3,0,2.6,0,4c1.3,0,2.6,0,4,0
				c0-0.5,0-0.9,0-1.3c0-0.4,0-0.9,0-1.3c0-0.4-0.1-0.9,0-1.3c1.3,0,2.6,0,3.9,0c0-2.7,0-5.3,0-7.9c1.3,0,2.6,0,4,0
				c0-1.4,0-2.6,0-3.9c-2.7,0-5.3,0-8,0c0,1.3,0,2.6,0,3.9c-0.5,0.1-3.6,0.1-4,0c0-1.3,0-2.6,0-3.9
				C57.7,249.4,55.1,249.4,52.5,249.4z M119.9,237.5c0-2.7,0-5.3,0-7.9c-1.3,0-2.6,0-3.9,0c-0.1,0.6-0.1,7.6,0,7.9
				C117.3,237.5,118.6,237.5,119.9,237.5z"/>
			<path d="M112,265.3c1.3,0,2.6,0,4,0c0,0.4,0,0.9,0,1.3c0,0.4,0,0.9,0,1.3c0,0.4,0,0.9,0,1.3c1.4,0,2.7,0,4,0l0,0c0,1.3,0,2.7,0,4
				c-1.3,0-2.6,0-3.9,0c0,1.3,0,2.6,0,3.9c0.1,0,0.1,0,0.1,0c1.3,0,2.6,0,3.8,0c0,0.5,0,0.9,0,1.4c0,0.4,0,0.9,0,1.3
				c0,0.4,0,0.9,0,1.3c1,0.1,7.5,0,7.9-0.1c0-0.4,0-0.9,0-1.3c0-0.4,0-0.9,0-1.3c0-0.4,0-0.9,0-1.3c0.7,0,1.3,0,2,0c0.6,0,1.3,0,2,0
				c0-0.6,0-1.1,0-1.6c0-0.5,0-1,0-1.6s0-1,0-1.6c0-0.5,0-1,0-1.6c0-0.5,0-1,0-1.6c1.3,0,2.6,0,4,0c0,1.3,0,2.6,0,3.9
				c2.7,0,5.3,0,7.9,0c0-1.3,0-2.6,0-4c0.2,0,0.4,0,0.5,0c1.1,0,2.3,0,3.4,0l0,0c0,1.2,0,2.3,0,3.5c0,0.2,0,0.3,0,0.5
				c1.3,0,2.6,0,4,0c0,2.7,0,5.3,0,7.9c-0.2,0-0.3,0-0.4,0c-1,0-2.1,0-3.1,0c-0.2,0-0.3,0-0.5,0.1c0-0.1,0-0.2,0-0.3
				c0-1.1,0-2.3,0-3.4c0-0.1,0-0.2,0-0.3c-1.3,0-2.6,0-3.9,0c0,1.3,0,2.6,0,4c0.2,0,0.3,0,0.5,0c1,0,2,0,3,0c0.1,0,0.3,0,0.4,0
				c0,0.1,0,0.2,0,0.3c0,2.5,0,4.9,0,7.4c0,0.1,0,0.1,0,0.2l0,0c-1.3,0-2.6,0-4,0c0-1.4,0-2.7,0-4c-1.3,0-2.6,0-4,0
				c0-0.6,0-1.1,0-1.6c0-0.5,0-1,0-1.6c0-0.5,0-1.1,0-1.6c0-0.5,0-1,0-1.6c0-0.5,0-1,0-1.6c-1.3,0-2.6,0-3.9,0c0,0.2,0,0.3,0,0.4
				c0,3.8,0,7.6,0,11.4c0,0,0,0,0,0c0,0,0,0,0.1,0.1c0.4,0,0.8,0,1.3,0c0.4,0,0.8,0,1.3,0c0.4,0,0.9,0,1.3,0c0,1.3,0,2.6,0,3.9
				c-1.3,0-2.6,0-3.9,0c0,1.3,0,2.6,0,4c1.3,0,2.6,0,3.9,0c0,0.2,0,0.4,0,0.5c0,1.4,0,2.8,0,4.1c0,1.1,0,2.2,0,3.3l0,0
				c-1.3,0-2.5,0-3.8,0c0,0-0.1,0-0.1,0c0-0.1-0.1-0.3-0.1-0.4c0-1,0-2,0-3c0-0.2,0-0.3,0-0.5c-1.3,0-2.6,0-4,0c0,1.3,0,2.6,0,3.9
				c0.1,0,0.2,0,0.2,0c1.2,0,2.3,0,3.5,0c0.1,0,0.2,0,0.3-0.1c0,0.2-0.1,0.3-0.1,0.5c0,2.4,0,4.8,0,7.2c0,0.1,0,0.2,0,0.3l0,0
				c-0.2,0-0.3,0-0.5,0c-2.3,0-4.6,0-6.9,0c-0.2,0-0.3,0-0.5,0c0,1.3,0,2.6,0,4c-1.3,0-2.6,0-3.9,0c0-1.3,0-2.6,0-3.9
				c-0.2,0-0.3,0-0.5,0c-1,0-2,0-3.1,0c-0.2,0-0.3,0-0.5,0l0,0c0-1.3,0-2.6,0-4c2.7,0,5.3,0,7.9,0c0-1.3,0-2.6,0-4
				c-0.5,0-1.1,0-1.6,0c-0.5,0-1,0-1.6,0c-0.5,0-1,0-1.6,0c-0.5,0-1,0-1.6,0c-0.5,0-1,0-1.6,0c0-1.3,0-2.6,0-3.9c-0.1,0-0.2,0-0.2,0
				c-2.6,0-5.2,0-7.7,0l0,0c0-2.6,0-5.3,0-8c0.5,0,0.9,0,1.4,0c0.4,0,0.9,0,1.3,0c0.4,0,0.9,0,1.3,0c0-1.3,0-2.6,0-3.9
				c-1.3,0-2.6,0-4,0c0-4,0-7.9,0-11.9c-1.3,0-2.6,0-3.9,0c0-2.7,0-5.3,0-7.9c1.3,0,2.6,0,3.9,0C112,267.9,112,266.6,112,265.3
				L112,265.3z M120,285.1c0,4,0,7.9,0,11.8c0.7,0.1,11.5,0.1,11.8,0c0-3.9,0-7.8,0-11.8C127.8,285.1,123.9,285.1,120,285.1z"/>
			<path d="M80.3,253.3c0.1,0,0.2,0.1,0.3,0.1c2.4,0,4.8,0,7.2,0c0.1,0,0.2,0,0.3,0c0-0.1,0-0.1,0-0.2c0-1.2,0-2.3,0-3.5
				c0-0.1,0-0.1,0-0.2l0,0c0.2,0,0.3,0,0.5,0c1,0,2,0,3.1,0c0.2,0,0.3,0,0.5,0c0-0.2,0-0.4,0-0.6c0-3.6,0-7.2,0-10.8
				c0-0.2,0-0.3,0-0.5c0,0,0,0,0,0c1.3,0,2.6,0,3.9,0l0,0c0,0.2,0,0.3,0,0.5c0,2.3,0,4.6,0,6.9c0,0.2,0,0.3,0,0.5c0.2,0,0.4,0,0.5,0
				c1.2,0,2.3,0,3.5,0l0,0c0,2.6,0,5.2,0,7.7c0,0,0,0.1,0,0.1c-0.2,0-0.3,0-0.5,0c-2.3,0-4.6,0-6.9,0c-0.2,0-0.3,0-0.5,0
				c0,0.1,0,0.2,0,0.3c0,1.1,0,2.3,0,3.4c0,0.1,0,0.2,0.1,0.3c-0.1,0-0.1,0-0.2,0c-1.2,0-2.4,0-3.6,0c-0.1,0-0.1,0-0.2,0
				c0,1.3,0,2.6,0,3.9c1.3,0,2.6,0,4,0c0-0.2,0-0.3,0-0.5c0-1,0-2,0-3c0-0.1,0-0.3,0-0.4c0.1,0,0.3,0,0.4,0c2.5,0,5,0,7.5,0
				c0,1.3,0,2.6,0,3.8c0,0,0,0.1,0.1,0.1c1.3,0,2.6,0,3.9,0c0,0,0,0,0,0c0,0.1,0,0.2,0,0.3c0,2.5,0,4.9,0,7.4c0,0.1,0,0.2,0,0.3
				c-0.5,0.1-7.6,0.1-7.9,0c0-1.3,0-2.6,0-3.9c-1.3,0-2.6,0-3.9,0c-0.1,0.7-0.1,7.6,0,7.9c1.3,0,2.6,0,3.9,0c1.3,0,2.6,0,4,0
				c1.3,0,2.6,0,3.9,0c0.1,0.9,0,3.6-0.1,4c-1.3,0-2.6,0-3.9,0c0,1.3,0,2.6,0,4c-1.4,0-2.7,0-4,0l0,0c0-0.4,0-0.9,0-1.3
				c0-0.4,0-0.9,0-1.3c0-0.4,0-0.9,0-1.3c-1.3,0-2.6,0-3.9,0c0,1.3,0,2.7,0,4l0,0c-1.3,0-2.7,0-4,0c0,0,0,0,0,0c0-1.3,0-2.6,0-4
				c-0.2,0-0.4,0-0.5,0c-3.6,0-7.2,0-10.8,0c-0.2,0-0.3,0-0.5,0l0,0c0-1.3,0-2.6,0-4c1.3,0,2.6,0,4,0c0-0.2,0-0.4,0-0.6
				c0-1.1,0-2.3,0-3.4l0,0c1.3,0,2.5,0,3.8,0c0.1,0,0.1,0,0.2-0.1c0,0.1,0,0.2,0,0.3c0,1.2,0,2.3,0,3.5c0,0.1,0,0.2,0,0.2
				c1.3,0,2.6,0,3.9,0c0-1.3,0-2.6,0-4c-0.2,0-0.3,0-0.5,0c-1,0-2,0-3,0c-0.2,0-0.3,0-0.5-0.1c0-0.1,0-0.3,0-0.4c0-1,0-2,0-3
				c0-0.1,0-0.3,0-0.5c-1.3,0-2.6,0-3.9,0l0,0c0-0.4,0-0.9,0-1.3c0-0.9,0-1.8,0-2.7l0,0c1.3,0,2.6,0,3.9,0c0-1.3,0-2.6,0-3.9
				c-1.3,0-2.6,0-3.9,0l0,0c0-1,0-2.1,0-3.1C80.3,253.9,80.3,253.6,80.3,253.3L80.3,253.3z"/>
			<path d="M80.2,245.4c-9.3,0-18.5,0-27.8,0c0-9.2,0-18.5,0-27.7c0.3-0.1,27.3-0.1,27.8,0C80.2,226.9,80.2,236.1,80.2,245.4z
				 M56.4,221.6c0,6.6,0,13.2,0,19.8c6.6,0,13.2,0,19.8,0c0-6.6,0-13.2,0-19.8C69.6,221.6,63.1,221.6,56.4,221.6z"/>
			<path d="M52.5,289.1c9.3,0,18.5,0,27.8,0c0,9.2,0,18.5,0,27.7c-0.3,0.1-27.2,0.1-27.8,0C52.5,307.6,52.5,298.4,52.5,289.1z
				 M76.2,293.1c-6.6,0-13.2,0-19.8,0c0,6.6,0,13.2,0,19.8c0.6,0.1,19.5,0.1,19.8,0C76.2,306.3,76.2,299.7,76.2,293.1z"/>
			<path d="M151.7,245.4c-9.3,0-18.5,0-27.7,0c0-9.3,0-18.5,0-27.7c0.3-0.1,27.3-0.1,27.7,0C151.7,226.9,151.7,236.1,151.7,245.4z
				 M127.9,241.4c6.6,0,13.2,0,19.8,0c0-6.6,0-13.2,0-19.8c-6.6,0-13.2,0-19.8,0C127.9,228.2,127.9,234.8,127.9,241.4z"/>
			<path d="M116,249.4c0,0.2-0.1,0.3-0.1,0.5c0,3.6,0,7.2,0,10.8c0,0.2,0,0.3,0,0.5c-0.5,0.1-0.9,0-1.3,0.1c-0.4,0-0.9,0-1.3,0
				c-0.4,0-0.9,0-1.3,0c0,1.4,0,2.7,0,4l0,0c-1.3,0-2.6,0-4,0c0-1.3,0-2.6,0-4c-0.2,0-0.4,0-0.5,0c-1,0-2,0-3,0c-0.2,0-0.3,0-0.5,0
				l0,0c0-0.4,0-0.9,0-1.3c0-0.9,0-1.7,0-2.6c0.5,0,0.9,0,1.4,0c0.4,0,0.9,0,1.3,0c0.4,0,0.9,0,1.3,0c0-2.7,0-5.3,0-7.9
				c-1.3,0-2.6,0-4,0c0-0.2,0-0.3,0-0.5c0-1,0-2,0-3c0-0.2,0-0.3,0-0.5c0.7,0,1.3,0,2,0c0.7,0,1.3,0,2,0c0-1.4,0-2.6,0-4
				c-1.3,0-2.6,0-4,0c0,0.4,0,0.7,0,1c0,1,0,2,0,3c-1.3,0-2.6,0-3.9,0l0,0c0-0.1,0-0.2,0-0.3c0-2.5,0-4.9,0-7.4c0-0.1,0-0.2,0-0.3
				l0,0c1.3,0,2.6,0,3.9,0c0.1-0.6,0.1-3.6,0-4c-0.1,0-0.3,0-0.4,0c-0.9,0-1.8,0-2.7,0c-0.2,0-0.5,0-0.7,0c0,0,0,0,0,0
				c0-0.1,0-0.2,0-0.3c0-2.4,0-4.7,0-7.1c0-0.1,0-0.3,0-0.4c2.7,0,5.3,0,7.9,0c0,1.3,0,2.6,0,3.9c0.5,0,0.9,0,1.3,0
				c0.4,0,0.8,0,1.3,0c0.4,0,0.9,0,1.4,0c0,1.3,0,2.6,0,3.9c0,1.3,0,2.6,0,4c0,1.3,0,2.6,0,3.9c0,1.3,0,2.6,0,4c0,1.3,0,2.6,0,4
				c0.2,0,0.3,0,0.5,0c1,0,2,0,3.1,0C115.7,249.4,115.9,249.4,116,249.4L116,249.4z"/>
			<path d="M147.7,253.3c0,0.2,0,0.3,0,0.5c0,1.2,0,2.4,0,3.6c-2.6,0-5.2,0-7.8,0c-0.1,0-0.1,0-0.2,0c0,1.3,0,2.6,0,3.9
				c2.6,0,5.3,0,7.9,0c0-1.3,0-2.6,0-3.9c1.3,0,2.6,0,3.9,0c0.1,0.3,0.1,11.4,0,11.9c-0.1,0-0.2,0-0.2,0c-1.2,0-2.3,0-3.5,0
				c-0.1,0-0.1,0-0.2,0c0,0,0,0,0,0c0-1.3,0-2.6,0-4c-4,0-7.9,0-11.9,0c0-1.3,0-2.7,0-4c0-1.3,0-2.6,0-4c-1.4,0-2.6,0-4,0
				c0,1.3,0,2.6,0,3.9c0,1.3,0,2.6,0,4c-1.4,0-2.6,0-3.9,0l0,0c0-0.2,0-0.3,0-0.5c0-1,0-2,0-3c0-0.2,0-0.3,0-0.5c-0.5,0-0.9,0-1.3,0
				c-0.4,0-0.8,0-1.3,0c-0.4,0-0.9,0-1.3,0c0-0.1,0-0.2,0-0.3c0-1.2,0-2.3,0-3.5c0-0.1,0-0.1,0-0.2c0,0,0,0,0,0c1.3,0,2.6,0,3.9,0
				c0-0.2,0-0.4,0-0.5c0-1,0-2,0-3c0-0.2,0-0.3,0-0.5l0,0c0.2,0,0.3,0,0.5,0c6.2,0,12.5,0,18.7,0
				C147.3,253.3,147.5,253.3,147.7,253.3L147.7,253.3z"/>
			<path d="M52.5,249.4c2.6,0,5.2,0,7.9,0c0.1,1.3,0,2.6,0,3.9c0.3,0.1,3.4,0.1,4,0c0-1.3,0-2.6,0-3.9c2.7,0,5.3,0,8,0
				c0,1.3,0,2.6,0,3.9c-1.3,0-2.6,0-4,0c0,2.7,0,5.3,0,7.9c-1.3,0-2.6,0-3.9,0c-0.1,0.4,0,0.9,0,1.3c0,0.4,0,0.9,0,1.3
				c0,0.4,0,0.9,0,1.3c-1.3,0-2.6,0-4,0c0-1.3,0-2.6,0-4c-2.7,0-5.3,0-7.9,0C52.5,257.3,52.5,253.4,52.5,249.4z"/>
			<path d="M147.7,293.1c0,1.3,0,2.6,0,3.9c1.3,0,2.6,0,4,0c0,6.6,0,13.2,0,19.9c-1.3,0-2.6,0-3.9,0c-0.1-1.3,0-2.6,0-4
				c-0.2,0-0.3,0-0.5,0c-2.3,0-4.6,0-6.9,0c-0.2,0-0.3,0-0.5,0l0,0c0-2.7,0-5.3,0-8l0,0c1.3,0,2.6,0,4,0c0-4,0-7.9,0-11.8
				c0.1,0,0.1-0.1,0.1-0.1C145.2,293.1,146.4,293.1,147.7,293.1L147.7,293.1z"/>
			<path d="M104,301c-1.3,0-2.6,0-3.9,0c0-0.1,0-0.2,0-0.3c0-2.5,0-4.9,0-7.4c0-0.1,0-0.2,0-0.3c0.1,0,0.3,0,0.4,0c1,0,2,0,3.1,0
				c0.1,0,0.3,0,0.4,0c0-1.3,0-2.6,0-3.9c-0.6-0.1-3.6-0.1-3.9,0c0,1.2,0,2.5,0,3.7c0,0.1,0,0.1,0,0.2c-0.2,0-0.3-0.1-0.5-0.1
				c-1,0-2.1,0-3.1,0c-0.1,0-0.3,0-0.5,0c0-1.3,0-2.6,0-3.9c-1.3,0-2.6,0-3.9,0c0-0.1-0.1-0.2-0.1-0.3c0-2.5,0-5,0-7.5
				c0,0,0-0.1,0-0.1c0,0,0,0,0,0c1.3,0,2.6,0,3.9,0l0,0c0,1.3,0,2.6,0,3.9c0.6,0.1,7.6,0.1,7.9,0c0-0.4,0-0.9,0-1.3
				c0-0.4,0-0.8,0-1.3c0-0.4,0-0.9,0-1.3c1.4,0,2.6,0,3.9,0c0.1,0.5,0.1,15.5,0,15.8c-1.3,0-2.6,0-3.9,0c0,0.2,0,0.4,0,0.5
				C104,298.7,104,299.8,104,301L104,301z"/>
			<path d="M60.3,273.3c0.2,0,0.4,0,0.6,0c2.3,0,4.6,0,6.9,0c0.2,0,0.3,0,0.5,0c0-1.3,0-2.6,0-4c0.2,0,0.3,0,0.5,0c1,0,2,0,3.1,0
				c0.2,0,0.3,0,0.5,0l0,0c0,2.6,0,5.2,0,7.8c0,0.1,0,0.1,0.1,0.2c1.3,0,2.6,0,3.9,0l0,0c0,0.2,0,0.3,0,0.5c0,1,0,2,0,3.1
				c0,0.1,0,0.3,0,0.5c0.2,0,0.4,0,0.5,0c3.6,0,7.2,0,10.8,0c0.2,0,0.3,0,0.5,0c0,0,0,0,0,0c0,0.1,0,0.2,0,0.3c0,2.4,0,4.8,0,7.2
				c0,0.1,0,0.3,0,0.4c-1.3,0-2.6,0-3.9,0c0-1.3,0-2.6,0-3.9c-4,0-7.9,0-11.9,0c0-0.7,0-1.3,0-2c0-0.6,0-1.3,0-2c-0.7,0-1.3,0-2,0
				c-0.7,0-1.3,0-2,0l0,0c0-1.3,0-2.6,0-4c-0.2,0-0.3,0-0.5,0c-2.3,0-4.6,0-6.9,0c-0.2,0-0.4,0-0.6,0l0,0c0-0.1,0.1-0.2,0.1-0.3
				c0-1.1,0-2.2,0-3.3C60.4,273.4,60.3,273.4,60.3,273.3C60.3,273.3,60.3,273.3,60.3,273.3z"/>
			<path d="M116,312.9c-1,0-2,0-3.1,0c-0.3,0-0.6,0-1,0c0,1.3,0,2.6,0,4c-4,0-7.9,0-11.9,0c0-1.3,0-2.6,0-4c2.6,0,5.3,0,7.9,0
				c0-1.3,0-2.6,0-4l0,0c1.3,0,2.6,0,3.9,0c0-1.4,0-2.7,0-4l0,0c1.3,0,2.6,0,4,0c0,0.2,0,0.4,0,0.6c0,2.3,0,4.6,0,6.8
				C116,312.5,116,312.7,116,312.9L116,312.9z"/>
			<path d="M92.2,304.9c0.1,0,0.3,0,0.4,0c1,0,2,0,3,0c0.1,0,0.3,0,0.4,0c0,2.6,0,5.3,0,7.9c-1.3,0-2.6,0-3.9,0c0,1.3,0,2.6,0,3.9
				c-0.4,0.1-7.5,0.1-7.9,0c0-2.6,0-5.2,0-7.9c2.6,0,5.3,0,7.9,0c0-0.2,0-0.3,0-0.5c0-1,0-2.1,0-3.1
				C92.1,305.2,92.2,305.1,92.2,304.9L92.2,304.9z"/>
			<path d="M72.3,269.2c0-0.1,0-0.3,0-0.4c0-3.6,0-7.3,0-10.9c0-0.2,0-0.3,0-0.5c0.1,0,0.2,0,0.3,0c2.5,0,4.9,0,7.4,0
				c0.1,0,0.1,0,0.2,0c0,0,0,0,0,0c0,1.3,0,2.6,0,3.9l0,0c-0.2,0-0.3,0-0.5,0c-1,0-2,0-3.1,0c-0.2,0-0.3,0-0.5,0c0,1.3,0,2.6,0,4
				c0.2,0,0.3,0,0.5,0c1.2,0,2.3,0,3.5,0l0,0c0,1.3,0,2.6,0,3.9l0,0c-0.1,0-0.2,0-0.3,0c-2.4,0-4.8,0-7.3,0
				C72.5,269.2,72.4,269.2,72.3,269.2L72.3,269.2z"/>
			<path d="M96.1,221.6c0-0.2,0-0.3,0-0.5c0-1.1,0-2.2,0-3.4c0.3-0.1,15.3-0.1,15.9,0c0,1.3,0,2.6,0,3.9c-0.1,0-0.2,0-0.3,0
				c-5.1,0-10.2,0-15.2,0C96.3,221.6,96.2,221.6,96.1,221.6L96.1,221.6z"/>
			<path d="M92.2,304.9c-0.1,0-0.2,0-0.3,0.1c-2.5,0-4.9,0-7.4,0c-0.1,0-0.1,0-0.2,0c-0.1-0.3-0.1-7.4,0-7.9c2.6,0,5.2,0,7.9,0
				c0,0.2,0,0.3,0,0.5c0,2.3,0,4.6,0,6.9C92.1,304.6,92.2,304.8,92.2,304.9C92.2,304.9,92.2,304.9,92.2,304.9z"/>
			<path d="M108.1,309c-1.8,0-3.5,0-5.3,0c-0.7,0-1.5,0-2.2,0c-0.1,0-0.3,0-0.4,0c0-1.3,0-2.6,0-4c1.3,0,2.6,0,3.9,0
				c0-1.3,0-2.6,0-4l0,0c0.1,0,0.2,0,0.3,0c2.5,0,4.9,0,7.4,0c0.1,0,0.2,0,0.3,0l0,0c0,1.3,0,2.6,0,3.9l0,0c-1.3,0-2.6,0-3.9,0
				C108,306.3,108,307.6,108.1,309C108,309,108.1,309,108.1,309z"/>
			<path d="M96,221.6c0,0.1,0,0.3,0,0.4c0,2.4,0,4.8,0,7.2c0,0.1,0,0.2,0,0.4c-1.3,0-2.6,0-3.9,0c0-1.3,0-2.6,0-3.9
				c-1.3,0-2.6,0-4,0c0-0.2,0-0.3,0-0.5c0-1,0-2,0-3c0-0.2,0-0.3,0-0.5c0,0,0,0,0,0c0.2,0,0.3,0,0.5,0c2.3,0,4.6,0,7,0
				C95.7,221.6,95.9,221.6,96,221.6C96.1,221.6,96,221.6,96,221.6z"/>
			<path d="M116,249.4c0-0.1-0.1-0.3-0.1-0.4c0-2.4,0-4.8,0-7.3c0-0.1,0-0.2,0-0.3c0.3-0.1,3.2-0.1,3.9,0c0.1,0.3,0.1,7.2,0,7.9
				c-0.1,0-0.3,0-0.4,0c-1,0-2,0-3,0C116.3,249.4,116.2,249.4,116,249.4C116,249.4,116,249.4,116,249.4z"/>
			<path d="M60.3,277.1c0,0.1,0.1,0.3,0.1,0.4c0,2.4,0,4.8,0,7.2c0,0.1,0,0.2,0,0.4c-1.3,0-2.6,0-3.9,0c0-2.6,0-5.3,0-7.9
				c0.2,0,0.3,0,0.4,0c1,0,2,0,3,0C60,277.2,60.2,277.1,60.3,277.1C60.3,277.1,60.3,277.1,60.3,277.1z"/>
			<path d="M119.9,237.5c-1.3,0-2.6,0-3.9,0c-0.1-0.3-0.1-7.3,0-7.9c1.3,0,2.6,0,3.9,0C119.9,232.2,119.9,234.8,119.9,237.5z"/>
			<path d="M88.1,249.4c-0.2,0-0.3,0-0.5,0c-1,0-1.9,0-2.9,0c-0.1,0-0.3,0-0.5,0c0-2.7,0-5.3,0-7.9c1.3,0,2.6,0,3.9,0
				c0,0.1,0,0.3,0,0.4c0,2.4,0,4.7,0,7.1C88.1,249.1,88.1,249.3,88.1,249.4C88.1,249.4,88.1,249.4,88.1,249.4z"/>
			<path d="M119.9,269.2c0-1.3,0-2.6,0-3.9c0.1,0,0.2,0,0.3,0c2.5,0,5,0,7.5,0c0.1,0,0.1,0,0.2,0c0,0,0,0,0,0c0,0.2,0,0.3,0,0.5
				c0,1,0,2,0,3c0,0.2,0,0.3,0,0.5c-0.2,0-0.3,0-0.5,0c-2.3,0-4.7,0-7,0C120.2,269.2,120.1,269.2,119.9,269.2
				C119.9,269.2,119.9,269.2,119.9,269.2z"/>
			<path d="M124,257.3c-1.3,0-2.6,0-4,0c0-1.3,0-2.6,0-4c0.1,0,0.3,0,0.5,0c1,0,2,0,3.1,0c0.2,0,0.3,0,0.5,0l0,0
				C123.9,254.6,123.9,256,124,257.3L124,257.3z"/>
			<path d="M96.1,237.5c0-0.7,0-1.3,0-2c0-0.7,0-1.3,0-2c0.2,0,0.3,0,0.5,0c1,0,2,0,3.1,0c0.2,0,0.3,0,0.5,0c0,0,0,0,0,0
				c0,1.3,0,2.7,0,4l0,0C98.8,237.5,97.4,237.5,96.1,237.5L96.1,237.5z"/>
			<path d="M92.2,237.5c-1.3,0-2.6,0-4,0c0-1.3,0-2.6,0-3.9c0.3-0.1,3.3-0.1,3.9,0c0,0.1,0,0.3,0,0.4c0,1,0,2,0,3.1
				C92.1,237.2,92.2,237.3,92.2,237.5C92.2,237.5,92.2,237.5,92.2,237.5z"/>
			<path d="M119.9,312.9c0,1.3,0,2.6,0,4c-1.3,0-2.6,0-3.9,0c0-0.1,0-0.1,0-0.2c0-1.2,0-2.4,0-3.6c0-0.1,0-0.1,0-0.2l0,0
				C117.3,312.9,118.6,312.9,119.9,312.9L119.9,312.9z"/>
			<path d="M139.8,312.9c0,1.3,0,2.6,0,4c-1.3,0-2.6,0-3.9,0c0-0.1,0-0.1,0-0.2c0-1.2,0-2.4,0-3.6c0-0.1,0-0.1,0-0.2c0,0,0,0,0,0
				C137.1,312.9,138.5,312.9,139.8,312.9L139.8,312.9z"/>
			<path d="M88.1,221.6c-1.1,0-2.3,0-3.4,0c-0.2,0-0.3,0-0.5,0c0-1.3,0-2.6,0-3.9c0.3-0.1,3.4-0.1,3.9,0c0,0.1,0,0.1,0,0.2
				c0,1.2,0,2.3,0,3.5C88.1,221.5,88.1,221.5,88.1,221.6C88.1,221.6,88.1,221.6,88.1,221.6z"/>
			<path d="M80.3,253.3c-0.1,0-0.2,0.1-0.3,0.1c-1.1,0-2.3,0-3.4,0c-0.1,0-0.2,0-0.3,0c0-1.3,0-2.6,0-3.9c1.3,0,2.6,0,3.9,0
				c0,0.2,0,0.3,0,0.4c0,1,0,2,0,3C80.3,253,80.3,253.1,80.3,253.3C80.3,253.3,80.3,253.3,80.3,253.3z"/>
			<path d="M147.7,253.3c0-0.1,0-0.3,0-0.4c0-1,0-2,0-3c0-0.1,0-0.3,0-0.4c0.3-0.1,3.4-0.1,4,0c0,1.3,0,2.6,0,3.9
				c-0.1,0-0.2,0-0.3,0c-1.1,0-2.2,0-3.3,0C147.9,253.3,147.8,253.3,147.7,253.3C147.7,253.3,147.7,253.3,147.7,253.3z"/>
			<path d="M60.3,273.3c-0.1,0-0.3,0-0.4,0c-1,0-2,0-3,0c-0.1,0-0.3,0-0.4,0c-0.1-0.3-0.1-3.4,0-4c1.3,0,2.6,0,3.9,0
				c0,0.1,0,0.2,0,0.3c0,1.1,0,2.2,0,3.3C60.4,273,60.3,273.1,60.3,273.3C60.3,273.3,60.3,273.3,60.3,273.3z"/>
			<path d="M147.7,289.1c1,0,2.1,0,3.1,0c0.3,0,0.6,0,0.9,0c0,1.3,0,2.6,0,3.9c-1.3,0-2.7,0-4,0c0,0,0,0,0,0
				C147.7,291.7,147.7,290.4,147.7,289.1C147.7,289.1,147.7,289.1,147.7,289.1z"/>
			<path d="M124,253.3c0-0.2,0-0.4,0-0.6c0-1.1,0-2.2,0-3.3c0.3-0.1,3.3-0.1,3.9,0c0,0.1,0,0.3,0,0.5c0,1,0,2,0,3c0,0.2,0,0.3,0,0.5
				c0,0,0,0,0,0c-0.2,0-0.3,0-0.5,0c-0.9,0-1.8,0-2.6,0C124.5,253.3,124.2,253.3,124,253.3L124,253.3z"/>
			<path d="M68.3,281.2c0,1.3,0,2.6,0,3.9c-0.3,0.1-3.4,0.1-3.9,0c0-1.3,0-2.6,0-3.8c0,0,0.1,0,0.1,0
				C65.7,281.2,67,281.2,68.3,281.2C68.3,281.2,68.3,281.2,68.3,281.2z"/>
			<path class="st7" d="M112,301c-0.1,0-0.2,0-0.3,0c-2.5,0-4.9,0-7.4,0c-0.1,0-0.2,0-0.3,0c0-1.2,0-2.3,0-3.5c0-0.2,0-0.3,0-0.5
				c1.3,0,2.6,0,3.9,0c0.1-0.3,0.1-15.3,0-15.8c-1.3,0-2.6,0-3.9,0c0,0.4,0,0.9,0,1.3c0,0.4,0,0.8,0,1.3c0,0.4,0,0.9,0,1.3
				c-0.3,0.1-7.3,0.1-7.9,0c0-1.3,0-2.6,0-3.9c1.3,0,2.6,0,4,0c0-1.4,0-2.6,0-4c1.3,0,2.6,0,3.9,0c0.1-0.4,0.1-3.1,0.1-4
				c-1.3,0-2.6,0-3.9,0c-1.3,0-2.6,0-4,0c-1.3,0-2.6,0-3.9,0c-0.1-0.3-0.1-7.2,0-7.9c1.3,0,2.6,0,3.9,0c0,1.3,0,2.6,0,3.9
				c0.4,0.1,7.4,0.1,7.9,0c0-0.1,0-0.2,0-0.3c0-2.5,0-4.9,0-7.4c0-0.1,0-0.2,0-0.3c0.2,0,0.3,0,0.5,0c1,0,2,0,3,0c0.2,0,0.3,0,0.5,0
				c0,1.3,0,2.6,0,4c1.4,0,2.7,0,4,0c0,1.3,0,2.6,0,4c-1.3,0-2.6,0-3.9,0c0,2.7,0,5.3,0,7.9c1.3,0,2.6,0,3.9,0c0,4,0,7.9,0,11.9
				c1.3,0,2.6,0,4,0c0,1.3,0,2.6,0,3.9c-0.4,0.1-0.9,0-1.3,0c-0.4,0-0.9,0-1.3,0c-0.4,0-0.9,0-1.4,0C112,295.7,112,298.4,112,301z"
				/>
			<path class="st7" d="M119.9,269.2c0.1,0,0.3,0,0.4,0c2.3,0,4.7,0,7,0c0.1,0,0.3,0,0.5,0c0-0.2,0-0.4,0-0.5c0-1,0-2,0-3
				c0-0.2,0-0.3,0-0.5c1.3,0,2.6,0,3.9,0c0-1.4,0-2.7,0-4c0-1.3,0-2.6,0-3.9c1.3,0,2.6,0,4,0c0,1.3,0,2.6,0,4c0,1.3,0,2.6,0,4
				c4,0,7.9,0,11.9,0c0,1.3,0,2.6,0,4c-1.1,0-2.3,0-3.4,0c-0.2,0-0.3,0-0.5,0c0,1.3,0,2.6,0,4c-2.7,0-5.3,0-7.9,0c0-1.3,0-2.6,0-3.9
				c-1.3,0-2.6,0-4,0c0,0.5,0,1,0,1.6c0,0.5,0,1,0,1.6c0,0.5,0,1,0,1.6s0,1,0,1.6c0,0.5,0,1,0,1.6c-0.7,0-1.3,0-2,0
				c-0.6,0-1.3,0-2,0c-0.1,0.5,0,0.9,0,1.3c0,0.4,0,0.9,0,1.3c0,0.4,0,0.9,0,1.3c-0.4,0.1-6.9,0.1-7.9,0.1c0-0.4,0-0.9,0-1.3
				c0-0.4,0-0.9,0-1.3c0-0.5,0-0.9,0-1.4l0,0c1.3,0,2.6,0,4,0c0-1.3,0-2.6,0-3.9c-1.3,0-2.7,0-4,0l0,0
				C119.9,271.9,119.9,270.5,119.9,269.2z"/>
			<path class="st7" d="M147.7,289.1c0,1.3,0,2.6,0,3.9c-1.3,0-2.6,0-3.8,0c0,0,0,0-0.1,0.1c0,3.9,0,7.8,0,11.8c-1.4,0-2.7,0-4,0
				c0-1.1,0-2.2,0-3.3c0-1.4,0-2.8,0-4.1c0-0.2,0-0.3,0-0.5c-1.3,0-2.6,0-3.9,0c0-1.3,0-2.6,0-4c1.3,0,2.6,0,3.9,0
				c0-1.3,0-2.6,0-3.9c-0.4,0-0.9,0-1.3,0c-0.4,0-0.8,0-1.3,0c-0.4,0-0.9,0-1.3,0c0,0-0.1,0-0.1-0.1c0,0,0,0,0,0c0-3.8,0-7.6,0-11.4
				c0-0.1,0-0.2,0-0.4c1.3,0,2.6,0,3.9,0c0,0.5,0,1.1,0,1.6c0,0.5,0,1,0,1.6c0,0.5,0,1.1,0,1.6c0,0.5,0,1,0,1.6c0,0.5,0,1,0,1.6
				c1.3,0,2.6,0,4,0c0,1.3,0,2.6,0,4C145.1,289.1,146.4,289.1,147.7,289.1z"/>
			<path class="st7" d="M120,285.1c3.9,0,7.9,0,11.8,0c0,3.9,0,7.9,0,11.8c-0.3,0.1-11.1,0.1-11.8,0C120,293,120,289.1,120,285.1z
				 M123.9,289.1c0,1.3,0,2.6,0,3.9c1.3,0,2.6,0,3.9,0c0-1.3,0-2.6,0-3.9C126.5,289.1,125.3,289.1,123.9,289.1z"/>
			<path class="st7" d="M119.9,312.9c-1.3,0-2.6,0-3.9,0c0-0.2,0-0.3,0-0.5c0-2.3,0-4.6,0-6.8c0-0.2,0-0.3,0-0.6c-1.4,0-2.7,0-4,0
				c0-1.3,0-2.6,0-3.9c2.6,0,5.2,0,7.7,0c0.1,0,0.1,0,0.2,0c0,1.3,0,2.6,0,3.9c0.6,0,1.1,0,1.6,0c0.5,0,1,0,1.6,0c0.5,0,1,0,1.6,0
				c0.5,0,1,0,1.6,0c0.5,0,1,0,1.6,0c0,1.3,0,2.6,0,4c-2.6,0-5.2,0-7.9,0C119.9,310.3,119.9,311.6,119.9,312.9z"/>
			<path class="st7" d="M139.8,312.9c-1.3,0-2.6,0-3.9,0c0-0.1,0-0.2,0-0.3c0-2.4,0-4.8,0-7.2c0-0.2,0-0.3,0.1-0.5l0,0
				c0,0,0.1,0,0.1,0c1.3,0,2.5,0,3.8,0C139.8,307.6,139.8,310.2,139.8,312.9z"/>
			<path class="st7" d="M135.9,304.9c-0.1,0-0.2,0.1-0.3,0.1c-1.2,0-2.3,0-3.5,0c-0.1,0-0.1,0-0.2,0c0-1.3,0-2.6,0-3.9
				c1.3,0,2.6,0,4,0c0,0.2,0,0.3,0,0.5c0,1,0,2,0,3C135.8,304.6,135.8,304.8,135.9,304.9C135.9,304.9,135.9,304.9,135.9,304.9z"/>
			<path class="st7" d="M147.7,281.2c-0.1,0-0.3,0-0.4,0c-1,0-2,0-3,0c-0.1,0-0.3,0-0.5,0c0-1.3,0-2.6,0-4c1.3,0,2.6,0,3.9,0
				c0,0.1,0,0.2,0,0.3c0,1.1,0,2.3,0,3.4C147.7,281,147.7,281.1,147.7,281.2C147.7,281.2,147.7,281.2,147.7,281.2z"/>
			<path class="st7" d="M119.9,277.1c-1.3,0-2.6,0-3.8,0c0,0-0.1,0-0.1,0c0-1.3,0-2.6,0-3.9c1.3,0,2.6,0,3.9,0l0,0
				C119.9,274.5,119.9,275.8,119.9,277.1L119.9,277.1z"/>
			<path class="st7" d="M100.1,245.4c1.3,0,2.6,0,3.9,0l0,0c0,0.2,0,0.3,0,0.5c0,1,0,2,0,3c0,0.1,0,0.3,0,0.5c1.3,0.1,2.6,0,4,0
				c0,2.6,0,5.2,0,7.9c-0.4,0-0.9,0-1.3,0c-0.4,0-0.9,0-1.3,0c-0.5,0-0.9,0-1.4,0l0,0c0-1.3,0-2.6,0-4c-0.2,0-0.3,0-0.5,0
				c-0.9,0-1.8,0-2.7,0c-0.2,0-0.5,0-0.7,0l0,0c0,0,0-0.1,0-0.1C100.1,250.6,100.1,248,100.1,245.4z"/>
			<path class="st7" d="M88.1,281.2c-0.2,0-0.3,0-0.5,0c-3.6,0-7.2,0-10.8,0c-0.2,0-0.3,0-0.5,0c0-0.2,0-0.3,0-0.5c0-1,0-2,0-3.1
				c0-0.2,0-0.3,0-0.5c0.2,0,0.3,0,0.5,0c3.6,0,7.2,0,10.8,0c0.2,0,0.3,0,0.5,0C88.1,278.5,88.1,279.9,88.1,281.2z"/>
			<path class="st7" d="M72.3,269.2c0.1,0,0.2,0,0.3,0c2.4,0,4.8,0,7.3,0c0.1,0,0.2,0,0.3,0c0,1.1,0,2.3,0,3.4c0,0.2,0,0.3,0,0.6
				c-1.3,0-2.6,0-4,0c0,1.4,0,2.7,0,4c-1.3,0-2.6,0-3.9,0c0-0.1-0.1-0.1-0.1-0.2C72.3,274.4,72.3,271.8,72.3,269.2z"/>
			<path class="st7" d="M100.1,257.3c-2.5,0-5,0-7.5,0c-0.1,0-0.3,0-0.4,0l0,0c0-0.1-0.1-0.2-0.1-0.3c0-1.1,0-2.3,0-3.4
				c0-0.1,0-0.2,0-0.3c0.2,0,0.4,0,0.5,0c2.3,0,4.6,0,6.9,0c0.2,0,0.3,0,0.5,0c0,0,0,0,0,0C100.1,254.6,100.1,256,100.1,257.3
				L100.1,257.3z"/>
			<path class="st7" d="M96.1,237.5c1.3,0,2.7,0,4,0c0,0.1,0,0.2,0,0.3c0,2.5,0,4.9,0,7.4c0,0.1,0,0.2,0,0.3c-1.2,0-2.3,0-3.5,0
				c-0.2,0-0.3,0-0.5,0c0-0.2,0-0.3,0-0.5c0-2.3,0-4.6,0-6.9C96.1,237.8,96.1,237.7,96.1,237.5z"/>
			<path class="st7" d="M80.3,265.3c-1.2,0-2.3,0-3.5,0c-0.2,0-0.3,0-0.5,0c0-1.3,0-2.6,0-4c0.1,0,0.3,0,0.5,0c1,0,2,0,3.1,0
				c0.2,0,0.3,0,0.5,0c0,0.9,0,1.8,0,2.7C80.3,264.4,80.3,264.8,80.3,265.3z"/>
			<path class="st7" d="M92.2,257.4c0,0.1,0,0.3,0,0.4c0,1,0,2,0,3c0,0.1,0,0.3,0,0.5c-1.3,0-2.6,0-4,0c0-1.3,0-2.6,0-3.9
				c0.1,0,0.2,0,0.2,0c1.2,0,2.4,0,3.6,0C92,257.3,92.1,257.3,92.2,257.4C92.2,257.4,92.2,257.4,92.2,257.4z"/>
			<path class="st7" d="M84.2,269.2c0.2,0,0.3,0.1,0.5,0.1c1,0,2,0,3,0c0.1,0,0.3,0,0.5,0c0,1.3,0,2.6,0,4c-1.3,0-2.6,0-3.9,0
				c0-0.1,0-0.2,0-0.2c0-1.2,0-2.3,0-3.5C84.2,269.4,84.2,269.3,84.2,269.2C84.2,269.2,84.2,269.2,84.2,269.2z"/>
			<path class="st7" d="M96.1,281.2c-1.3,0-2.6,0-3.9,0c0-1.3,0-2.6,0-4c1.3,0,2.6,0,3.9,0c0.1,0.4,0,0.9,0,1.3c0,0.4,0,0.9,0,1.3
				C96.1,280.3,96.1,280.7,96.1,281.2z"/>
			<path class="st7" d="M80.3,269.2c0-1.3,0-2.6,0-3.9c1.3,0,2.6,0,3.9,0c0,0.2,0,0.3,0,0.5c0,1,0,2,0,3c0,0.1,0,0.3,0,0.4
				c0,0,0,0,0,0c-0.1,0-0.1,0.1-0.2,0.1C82.8,269.2,81.5,269.2,80.3,269.2z"/>
			<path class="st7" d="M104,257.3c0,0.9,0,1.7,0,2.6c0,0.4,0,0.9,0,1.3c-1.3,0-2.6,0-3.9,0c0,0-0.1-0.1-0.1-0.1c0-1.3,0-2.6,0-3.8
				l0,0C101.4,257.3,102.7,257.3,104,257.3C104,257.3,104,257.3,104,257.3z"/>
			<path class="st7" d="M80.3,261.3c0-1.3,0-2.6,0-3.9c1.3,0,2.6,0,3.9,0c0,1.3,0,2.6,0,3.9C82.8,261.3,81.6,261.3,80.3,261.3z"/>
			<path class="st7" d="M56.4,221.6c6.6,0,13.2,0,19.8,0c0,6.6,0,13.2,0,19.8c-6.6,0-13.2,0-19.8,0
				C56.4,234.8,56.4,228.2,56.4,221.6z M60.4,225.6c0,4,0,7.9,0,11.8c0.5,0.1,11.6,0.1,11.9,0c0-3.9,0-7.9,0-11.8
				C68.3,225.6,64.4,225.6,60.4,225.6z"/>
			<path class="st7" d="M76.2,293.1c0,6.6,0,13.2,0,19.8c-0.3,0.1-19.2,0.1-19.8,0c0-6.6,0-13.2,0-19.8
				C63,293.1,69.6,293.1,76.2,293.1z M60.4,308.9c4,0,7.9,0,11.9,0c0.1-0.5,0.1-11.6,0-11.9c-3.9,0-7.9,0-11.8,0
				C60.4,301,60.4,304.9,60.4,308.9z"/>
			<path class="st7" d="M127.9,241.4c0-6.6,0-13.2,0-19.8c6.6,0,13.2,0,19.8,0c0,6.6,0,13.2,0,19.8
				C141.1,241.4,134.5,241.4,127.9,241.4z M131.8,225.6c0,4,0,7.9,0,11.9c4,0,7.9,0,11.9,0c0-4,0-7.9,0-11.9
				C139.8,225.6,135.8,225.6,131.8,225.6z"/>
			<path class="st7" d="M104,245.4c0-1,0-2,0-3c0-0.3,0-0.6,0-1c1.3,0,2.6,0,4,0c0,1.3,0,2.6,0,4c-0.7,0-1.3,0-2,0
				C105.3,245.4,104.7,245.4,104,245.4C104,245.4,104,245.4,104,245.4z"/>
			<path class="st7" d="M100.1,237.5c0-1.3,0-2.7,0-4c0.2,0,0.5,0,0.7,0c0.9,0,1.8,0,2.7,0c0.1,0,0.3,0,0.4,0c0.1,0.3,0.1,3.3,0,4
				C102.7,237.5,101.4,237.5,100.1,237.5z"/>
			<path class="st7" d="M147.7,257.3c0,1.3,0,2.6,0,3.9c-2.6,0-5.3,0-7.9,0c0-1.3,0-2.6,0-3.9c0,0,0.1,0,0.2,0
				C142.5,257.3,145.1,257.3,147.7,257.3C147.7,257.3,147.7,257.3,147.7,257.3z"/>
			<path class="st7" d="M123.9,253.3c0.3,0,0.5,0,0.8,0c0.9,0,1.8,0,2.6,0c0.2,0,0.3,0,0.5,0c0,0.2,0,0.3,0,0.5c0,1,0,2,0,3
				c0,0.2,0,0.3,0,0.5c-1.3,0-2.6,0-3.9,0C123.9,256,123.9,254.6,123.9,253.3z"/>
			<path class="st7" d="M100.1,293.1c0-0.1,0-0.1,0-0.2c0-1.2,0-2.5,0-3.7c0.3-0.1,3.3-0.1,3.9,0c0,1.3,0,2.5,0,3.9
				c-0.1,0-0.3,0-0.4,0c-1,0-2,0-3.1,0C100.4,293,100.3,293.1,100.1,293.1C100.1,293.1,100.1,293.1,100.1,293.1z"/>
			<path class="st7" d="M108,309c0-1.3,0-2.6,0-4c1.3,0,2.6,0,3.9,0c0,1.3,0,2.6,0,4C110.6,308.9,109.3,308.9,108,309z"/>
			<path d="M119.9,277.2c0-1.3,0-2.6,0-3.9c1.3,0,2.6,0,4,0c0,1.3,0,2.6,0,3.9C122.6,277.2,121.2,277.2,119.9,277.2z"/>
			<path d="M123.9,289.1c1.3,0,2.6,0,3.9,0c0,1.3,0,2.6,0,3.9c-1.3,0-2.6,0-3.9,0C123.9,291.7,123.9,290.4,123.9,289.1z"/>
			<path d="M104,257.3c-1.3,0-2.6,0-3.9,0c0-1.3,0-2.7,0-4c0.2,0,0.5,0,0.7,0c0.9,0,1.8,0,2.7,0c0.1,0,0.3,0,0.5,0
				C104,254.7,104,256,104,257.3z"/>
			<path d="M60.4,225.6c4,0,7.9,0,11.9,0c0,3.9,0,7.9,0,11.8c-0.3,0.1-11.4,0.1-11.9,0C60.4,233.5,60.4,229.6,60.4,225.6z"/>
			<path d="M60.4,308.9c0-4,0-7.9,0-11.9c4,0,7.9,0,11.8,0c0.1,0.3,0.1,11.4,0,11.9C68.3,308.9,64.4,308.9,60.4,308.9z"/>
			<path d="M131.8,225.6c4,0,7.9,0,11.9,0c0,4,0,7.9,0,11.9c-4,0-7.9,0-11.9,0C131.8,233.5,131.8,229.6,131.8,225.6z"/>
		</g>
	</g>
</g>
</svg>
