<?xml version="1.0" encoding="utf-8"?>
<!-- Generator: Adobe Illustrator 19.2.1, SVG Export Plug-In . SVG Version: 6.00 Build 0)  -->
<svg version="1.1" id="Layer_1" xmlns="http://www.w3.org/2000/svg" xmlns:xlink="http://www.w3.org/1999/xlink" x="0px" y="0px"
	 viewBox="0 0 202 425" style="enable-background:new 0 0 202 425;" xml:space="preserve">
<style type="text/css">
	.st0{fill:#FFFFFF;stroke:#1E1E1E;stroke-miterlimit:10;}
	.st1{fill:#1E1E1E;}
	.st2{fill:#C1C1C1;}
	.st3{fill:#FFFFFF;stroke:#575756;stroke-miterlimit:10;}
	.st4{fill:#DDDDDD;}
	.st5{fill:#1E1E1E;stroke:#FFFFFF;stroke-miterlimit:10;}
	.st6{fill:#FFFFFF;}
	.st7{fill:#B1B1B1;}
	.st8{fill:none;}
	.st9{enable-background:new    ;}
	.st10{fill:#1D1D1B;}
	.st11{fill:none;stroke:#DDDDDD;stroke-miterlimit:10;}
	.st12{fill:#2341C1;}
	.st13{fill:none;stroke:#575756;stroke-miterlimit:10;}
</style>
<path class="st0" d="M201.5,393.7c0,16.5-13.4,29.8-29.8,29.8H31.3c-16.5,0-29.8-13.4-29.8-29.8V30.3c0-16.5,13.4-29.8,29.8-29.8
	h140.3c16.5,0,29.8,13.4,29.8,29.8L201.5,393.7L201.5,393.7z"/>
<g>
	<path class="st1" d="M101.2,1c0,0,9.3-0.1,25.7-0.3c8.2-0.1,18.1-0.2,29.5-0.3c2.8,0,5.8,0,8.8-0.1c1.5,0,3,0,4.6,0
		c0.8,0,1.6,0,2.4,0h1.2l1.2,0.1c6.5,0.5,13.2,3.3,18.4,8.3s8.6,12.2,8.9,20c0.1,7.6,0.1,15.4,0.1,23.4c0,16.1,0,33,0.1,50.5
		c0,35.1,0.1,72.4,0.1,109.8s-0.1,74.8-0.1,109.8c0,17.5,0,34.5-0.1,50.5c0,4,0,8,0,11.9c0,2,0,3.9,0,5.8s0,3.8-0.1,5.8
		c-0.7,7.7-4.2,14.9-9.4,19.8c-2.6,2.5-5.5,4.5-8.7,5.9c-3.1,1.4-6.4,2.2-9.7,2.4c-1.6,0.1-3.2,0.1-4.8,0.1s-3.1,0-4.6,0
		c-3,0-6,0-8.8-0.1c-11.4-0.1-21.3-0.2-29.5-0.3c-16.4-0.2-25.7-0.3-25.7-0.3s9.3-0.1,25.7-0.3c8.2-0.1,18.1-0.2,29.5-0.3
		c2.8,0,5.8,0,8.8-0.1c1.5,0,3,0,4.6,0s3.1,0,4.7-0.1c3.1-0.2,6.3-1,9.3-2.4c3-1.3,5.8-3.3,8.2-5.7c4.9-4.8,8.2-11.6,8.8-18.9
		c0.2-1.8,0.1-3.7,0.1-5.7c0-1.9,0-3.9,0-5.8c0-3.9,0-7.9,0-11.9c0-16.1,0-33-0.1-50.5c0-35.1-0.1-72.4-0.1-109.8
		s0.1-74.8,0.1-109.8c0-17.5,0-34.5,0.1-50.5c0-8,0.1-15.9,0-23.4c-0.3-7.4-3.5-14.3-8.4-19.1s-11.3-7.5-17.5-8l-1.2-0.1h-1.2
		c-0.8,0-1.6,0-2.3,0c-1.6,0-3.1,0-4.6,0c-3,0-6,0-8.8-0.1C145,1.1,135.1,1,126.9,0.9C110.6,1.1,101.2,1,101.2,1z"/>
</g>
<path class="st0" d="M1.7,30.3c0-16.5,13.4-29.8,29.8-29.8"/>
<path class="st0" d="M31.4,423.5c-16.5,0-29.7-13.4-29.7-29.8"/>
<rect x="14" y="62" class="st2" width="172" height="303"/>
<rect x="31.1" y="132.1" class="st3" width="141.6" height="115"/>
<rect x="31.1" y="217.2" class="st4" width="71.1" height="29.9"/>
<g>
	<circle class="st0" cx="102.9" cy="391.6" r="17.1"/>
</g>
<g>
	<g>
		<path class="st1" d="M102.9,374.5c0,0,0.2,0,0.6,0s1-0.1,1.7,0c0.4,0,0.8,0.1,1.2,0.1c0.4,0.1,0.9,0.2,1.4,0.3
			c0.5,0.1,1,0.3,1.6,0.5s1.1,0.5,1.7,0.7c0.6,0.3,1.2,0.6,1.8,1c0.6,0.4,1.2,0.8,1.8,1.3c1.2,0.9,2.2,2.1,3.2,3.5
			c0.9,1.4,1.7,2.9,2.2,4.6s0.8,3.4,0.8,5.2c-0.1,0.9,0,1.7-0.2,2.6c-0.1,0.9-0.4,1.8-0.6,2.6c-0.5,1.7-1.3,3.2-2.2,4.6
			c-0.9,1.4-2,2.6-3.2,3.5c-0.6,0.5-1.2,0.9-1.8,1.3c-0.6,0.4-1.2,0.7-1.8,1c-0.6,0.2-1.2,0.5-1.7,0.7c-0.6,0.2-1.1,0.3-1.6,0.5
			c-0.5,0.1-1,0.2-1.4,0.3c-0.4,0-0.9,0.1-1.2,0.1c-0.7,0.1-1.3,0-1.7,0c-0.4,0-0.6,0-0.6,0s0.2,0,0.6-0.1s1-0.1,1.7-0.3
			c0.4-0.1,0.7-0.2,1.2-0.3c0.4-0.1,0.9-0.3,1.3-0.4c0.5-0.2,0.9-0.4,1.5-0.6c0.5-0.2,1-0.5,1.5-0.8c1-0.7,2.1-1.4,3.1-2.4
			c1-0.9,1.9-2.1,2.7-3.3c0.8-1.3,1.4-2.7,1.9-4.2c0.2-0.8,0.4-1.5,0.5-2.3c0.1-0.7,0.1-1.7,0.2-2.4c0-1.6-0.2-3.2-0.7-4.7
			s-1-2.9-1.9-4.2c-0.8-1.2-1.7-2.4-2.7-3.3c-1-1-2.1-1.7-3.1-2.4c-0.5-0.3-1-0.6-1.5-0.8c-0.5-0.2-1-0.5-1.5-0.6
			c-0.5-0.2-0.9-0.3-1.3-0.4s-0.8-0.2-1.2-0.3c-0.7-0.2-1.3-0.2-1.7-0.3C103.1,374.5,102.9,374.5,102.9,374.5z"/>
	</g>
	<path class="st0" d="M102.9,408.7c-9.4,0-17.1-7.6-17.1-17.1c0-9.4,7.6-17.1,17.1-17.1"/>
</g>
<circle class="st5" cx="102.4" cy="22.7" r="3.2"/>
<path class="st5" d="M125.2,34.2H80.1c-1,0-1.8-0.8-1.8-1.8l0,0c0-1,0.8-1.7,1.8-1.7h45.2c1,0,1.8,0.8,1.8,1.7l0,0
	C127,33.4,126.2,34.2,125.2,34.2z"/>
<rect x="15.7" y="268.2" class="st6" width="171" height="97.2"/>
<g id="eYJZT7_2_">
	<g>
		<path class="st6" d="M161.3,302.1c0-7.1-5.8-13-12.9-13c-7.2,0-13,5.8-13,12.9s5.8,13,12.9,13C155.5,315,161.3,309.2,161.3,302.1z
			"/>
		<path class="st2" d="M161.3,302.1c0,7.2-5.8,12.9-13,12.9c-7.1,0-12.9-5.8-12.9-13s5.8-12.9,13-12.9
			C155.5,289.1,161.3,294.9,161.3,302.1z M160.2,302.1c0-6.5-5.2-11.8-11.7-11.9c-6.5,0-11.9,5.2-11.9,11.7
			c0,6.6,5.2,11.9,11.8,11.9C154.8,313.9,160.1,308.6,160.2,302.1z"/>
		<path class="st6" d="M160.2,302.1c0,6.5-5.3,11.7-11.8,11.7s-11.8-5.3-11.8-11.9c0-6.5,5.4-11.7,11.9-11.7
			C154.9,290.3,160.2,295.6,160.2,302.1z M140.3,302.4c0,0.1,0,0.2,0.1,0.3c2.4,0,4.8,0,7.4,0c0,2.5,0,4.9,0,7.3c0.1,0,0.1,0,0.2,0
			c2.1-4.6,4.3-9.3,6.5-14.2C149.6,298.1,145,300.3,140.3,302.4z"/>
		<path class="st2" d="M140.3,302.4c4.6-2.1,9.2-4.3,14.2-6.6c-2.3,4.9-4.4,9.6-6.5,14.2c-0.1,0-0.1,0-0.2,0c0-2.4,0-4.8,0-7.3
			c-2.6,0-5,0-7.4,0C140.4,302.6,140.4,302.5,140.3,302.4z"/>
	</g>
</g>
<polygon class="st7" points="40.9,327.2 43.2,331.8 48.3,332.5 44.6,336.1 45.5,341.2 40.9,338.8 36.3,341.2 37.2,336.1 33.5,332.5 
	38.6,331.8 "/>
<polygon class="st7" points="59.7,327.2 62,331.8 67.1,332.5 63.4,336.1 64.3,341.2 59.7,338.8 55.1,341.2 56,336.1 52.3,332.5 
	57.4,331.8 "/>
<polygon class="st7" points="78.5,327.2 80.8,331.8 85.9,332.5 82.2,336.1 83.1,341.2 78.5,338.8 73.9,341.2 74.8,336.1 71.1,332.5 
	76.2,331.8 "/>
<rect x="46.1" y="151.7" class="st8" width="111.6" height="53.2"/>
<g class="st9">
	<path class="st10" d="M60.2,152.2h1l3.4,8.6h-1.1l-1-2.6H59l-1,2.6h-1.1L60.2,152.2z M60.7,153.6l-1.4,3.7h2.8L60.7,153.6z"/>
	<path class="st10" d="M66.9,151.7v9.1h-1v-9.1H66.9z"/>
	<path class="st10" d="M69.8,151.7v9.1h-1v-9.1H69.8z"/>
	<path class="st10" d="M76.2,155.3c0.5,0.6,0.8,1.4,0.8,2.3c0,1-0.3,1.7-0.8,2.3c-0.5,0.6-1.2,0.9-2.1,0.9c-0.8,0-1.5-0.3-2.1-0.9
		c-0.5-0.6-0.8-1.4-0.8-2.3c0-1,0.3-1.7,0.8-2.3c0.5-0.6,1.2-0.9,2.1-0.9C75,154.4,75.6,154.7,76.2,155.3z M75.4,159.3
		c0.3-0.4,0.5-1,0.5-1.7c0-0.7-0.2-1.2-0.5-1.7c-0.3-0.4-0.8-0.6-1.3-0.6c-0.6,0-1,0.2-1.3,0.6c-0.3,0.4-0.5,1-0.5,1.7
		c0,0.7,0.2,1.2,0.5,1.7c0.3,0.4,0.8,0.6,1.3,0.6C74.7,160,75.1,159.8,75.4,159.3z"/>
	<path class="st10" d="M82.3,154.6l1.3,4.7l1.4-4.7h1l-1.8,6.2h-1l-1.3-4.7l-1.3,4.7h-1l-1.8-6.2h1l1.4,4.7l1.3-4.7H82.3z"/>
	<path class="st10" d="M91,159.7c-0.7-0.8-1.1-1.9-1.1-3.2c0-1.3,0.4-2.4,1.1-3.2c0.7-0.8,1.6-1.2,2.8-1.2c0.9,0,1.6,0.2,2.2,0.7
		c0.6,0.5,1,1.1,1.1,1.9H96c-0.4-1.1-1.1-1.7-2.3-1.7c-0.8,0-1.5,0.3-2,0.9s-0.8,1.5-0.8,2.5c0,1,0.3,1.8,0.8,2.5s1.2,1,2,1
		c1.1,0,1.9-0.6,2.3-1.7h1.1c-0.2,0.8-0.6,1.5-1.1,1.9c-0.6,0.5-1.3,0.7-2.2,0.7C92.6,160.9,91.7,160.5,91,159.7z"/>
	<path class="st10" d="M103,155.3c0.5,0.6,0.8,1.4,0.8,2.3c0,1-0.3,1.7-0.8,2.3c-0.5,0.6-1.2,0.9-2.1,0.9c-0.8,0-1.5-0.3-2.1-0.9
		c-0.5-0.6-0.8-1.4-0.8-2.3c0-1,0.3-1.7,0.8-2.3c0.5-0.6,1.2-0.9,2.1-0.9C101.8,154.4,102.5,154.7,103,155.3z M102.3,159.3
		c0.3-0.4,0.5-1,0.5-1.7c0-0.7-0.2-1.2-0.5-1.7c-0.3-0.4-0.8-0.6-1.3-0.6c-0.6,0-1,0.2-1.3,0.6c-0.3,0.4-0.5,1-0.5,1.7
		c0,0.7,0.2,1.2,0.5,1.7c0.3,0.4,0.8,0.6,1.3,0.6C101.5,160,101.9,159.8,102.3,159.3z"/>
	<path class="st10" d="M112,151.7v1c-0.2-0.1-0.4-0.2-0.7-0.2c-0.3,0-0.6,0.1-0.7,0.3c-0.2,0.2-0.3,0.5-0.3,0.8v1h1.4v0.9h-1.4v5.3
		h-1v-5.3h-2.6v5.3h-1v-5.3h-1v-0.9h1v-1c0-0.6,0.2-1.1,0.5-1.4c0.4-0.4,0.8-0.5,1.4-0.5c0.3,0,0.6,0,0.8,0.1v1
		c-0.2-0.1-0.4-0.2-0.7-0.2c-0.3,0-0.6,0.1-0.7,0.3c-0.2,0.2-0.3,0.5-0.3,0.8v0.9h2.6v-1c0-0.6,0.2-1.1,0.5-1.4
		c0.4-0.4,0.8-0.5,1.4-0.5C111.5,151.6,111.8,151.6,112,151.7z"/>
	<path class="st10" d="M116.8,158.9h1c-0.1,0.6-0.4,1.1-0.8,1.4s-1,0.5-1.7,0.5c-0.8,0-1.5-0.3-2.1-0.9s-0.8-1.4-0.8-2.3
		c0-0.9,0.3-1.7,0.8-2.3s1.2-0.9,2-0.9c0.8,0,1.5,0.3,1.9,0.8c0.5,0.6,0.7,1.3,0.7,2.2v0.4h-4.4c0,0.7,0.2,1.2,0.5,1.6
		c0.3,0.4,0.8,0.6,1.3,0.6c0.4,0,0.7-0.1,1-0.3C116.5,159.5,116.7,159.3,116.8,158.9z M115.2,155.3c-0.5,0-0.9,0.2-1.2,0.5
		c-0.3,0.3-0.5,0.7-0.6,1.3h3.3c0-0.5-0.1-0.9-0.4-1.2C116.1,155.5,115.7,155.3,115.2,155.3z"/>
	<path class="st10" d="M123.2,158.9h1c-0.1,0.6-0.4,1.1-0.8,1.4s-1,0.5-1.7,0.5c-0.8,0-1.5-0.3-2.1-0.9s-0.8-1.4-0.8-2.3
		c0-0.9,0.3-1.7,0.8-2.3s1.2-0.9,2-0.9c0.8,0,1.5,0.3,1.9,0.8c0.5,0.6,0.7,1.3,0.7,2.2v0.4h-4.4c0,0.7,0.2,1.2,0.5,1.6
		c0.3,0.4,0.8,0.6,1.3,0.6c0.4,0,0.7-0.1,1-0.3C122.9,159.5,123.1,159.3,123.2,158.9z M121.7,155.3c-0.5,0-0.9,0.2-1.2,0.5
		c-0.3,0.3-0.5,0.7-0.6,1.3h3.3c0-0.5-0.1-0.9-0.4-1.2C122.5,155.5,122.1,155.3,121.7,155.3z"/>
	<path class="st10" d="M128.4,152.2h1l3.4,8.6h-1.1l-1-2.6h-3.5l-1,2.6H125L128.4,152.2z M128.9,153.6l-1.4,3.7h2.8L128.9,153.6z"/>
	<path class="st10" d="M135.1,160v3.1h-1v-8.6h1v0.7c0.2-0.2,0.4-0.4,0.7-0.6c0.3-0.2,0.7-0.2,1-0.2c0.9,0,1.6,0.3,2.1,0.9
		c0.5,0.6,0.7,1.4,0.7,2.3c0,0.9-0.2,1.7-0.7,2.3c-0.5,0.6-1.2,0.9-2.1,0.9c-0.4,0-0.7-0.1-1-0.2C135.5,160.5,135.2,160.3,135.1,160
		z M135.1,156.4v2.5c0.2,0.3,0.4,0.6,0.7,0.7c0.3,0.2,0.6,0.3,0.9,0.3c0.6,0,1-0.2,1.4-0.6s0.5-1,0.5-1.6c0-0.7-0.2-1.2-0.5-1.6
		s-0.8-0.6-1.4-0.6c-0.3,0-0.6,0.1-0.9,0.3C135.4,155.8,135.2,156.1,135.1,156.4z"/>
	<path class="st10" d="M142.1,160v3.1h-1v-8.6h1v0.7c0.2-0.2,0.4-0.4,0.7-0.6s0.7-0.2,1-0.2c0.9,0,1.6,0.3,2.1,0.9
		c0.5,0.6,0.7,1.4,0.7,2.3c0,0.9-0.2,1.7-0.7,2.3c-0.5,0.6-1.2,0.9-2.1,0.9c-0.4,0-0.7-0.1-1-0.2S142.3,160.3,142.1,160z
		 M142.1,156.4v2.5c0.2,0.3,0.4,0.6,0.7,0.7c0.3,0.2,0.6,0.3,0.9,0.3c0.6,0,1-0.2,1.4-0.6s0.5-1,0.5-1.6c0-0.7-0.2-1.2-0.5-1.6
		s-0.8-0.6-1.4-0.6c-0.3,0-0.6,0.1-0.9,0.3C142.5,155.8,142.2,156.1,142.1,156.4z"/>
</g>
<g class="st9">
	<path class="st10" d="M68.1,179.8h-1v-0.5c-0.1,0.1-0.4,0.3-0.7,0.4c-0.3,0.1-0.6,0.2-1,0.2c-0.7,0-1.2-0.2-1.6-0.5
		c-0.4-0.4-0.7-0.8-0.7-1.4c0-0.6,0.2-1,0.7-1.4c0.5-0.4,1-0.5,1.7-0.5c0.3,0,0.6,0.1,0.9,0.2s0.5,0.2,0.7,0.3v-0.8
		c0-0.4-0.1-0.7-0.4-1c-0.2-0.2-0.6-0.4-1-0.4c-0.7,0-1.1,0.3-1.3,0.9h-1c0.1-0.5,0.4-0.9,0.8-1.3c0.4-0.3,0.9-0.5,1.5-0.5
		c0.7,0,1.3,0.2,1.7,0.6c0.4,0.4,0.6,0.9,0.6,1.6V179.8z M67.1,178.2v-0.6c-0.1-0.2-0.3-0.4-0.6-0.6c-0.3-0.1-0.6-0.2-0.9-0.2
		c-0.4,0-0.8,0.1-1,0.3c-0.3,0.2-0.4,0.5-0.4,0.8c0,0.4,0.1,0.6,0.4,0.8c0.3,0.2,0.6,0.3,1,0.3c0.3,0,0.6-0.1,0.9-0.2
		C66.8,178.6,67,178.5,67.1,178.2z"/>
	<path class="st10" d="M70.2,179c-0.5-0.6-0.8-1.4-0.8-2.3c0-1,0.3-1.7,0.8-2.3c0.5-0.6,1.2-0.9,2-0.9c0.7,0,1.2,0.2,1.7,0.5
		c0.4,0.4,0.7,0.8,0.8,1.5h-1.1c-0.1-0.3-0.2-0.6-0.5-0.8c-0.2-0.2-0.6-0.3-0.9-0.3c-0.5,0-1,0.2-1.3,0.6c-0.3,0.4-0.5,1-0.5,1.7
		c0,0.7,0.2,1.2,0.5,1.7c0.3,0.4,0.7,0.6,1.3,0.6c0.4,0,0.7-0.1,0.9-0.3c0.2-0.2,0.4-0.5,0.5-0.8h1.1c-0.1,0.6-0.4,1.1-0.8,1.5
		c-0.4,0.4-1,0.5-1.7,0.5C71.4,179.9,70.8,179.6,70.2,179z"/>
	<path class="st10" d="M76.5,179c-0.5-0.6-0.8-1.4-0.8-2.3c0-1,0.3-1.7,0.8-2.3c0.5-0.6,1.2-0.9,2-0.9c0.7,0,1.2,0.2,1.7,0.5
		c0.4,0.4,0.7,0.8,0.8,1.5h-1.1c-0.1-0.3-0.2-0.6-0.5-0.8c-0.2-0.2-0.6-0.3-0.9-0.3c-0.5,0-1,0.2-1.3,0.6c-0.3,0.4-0.5,1-0.5,1.7
		c0,0.7,0.2,1.2,0.5,1.7c0.3,0.4,0.7,0.6,1.3,0.6c0.4,0,0.7-0.1,0.9-0.3c0.2-0.2,0.4-0.5,0.5-0.8H81c-0.1,0.6-0.4,1.1-0.8,1.5
		c-0.4,0.4-1,0.5-1.7,0.5C77.7,179.9,77,179.6,76.5,179z"/>
	<path class="st10" d="M86.3,177.9h1c-0.1,0.6-0.4,1.1-0.8,1.4s-1,0.5-1.7,0.5c-0.8,0-1.5-0.3-2.1-0.9s-0.8-1.4-0.8-2.3
		c0-0.9,0.3-1.7,0.8-2.3c0.5-0.6,1.2-0.9,2-0.9c0.8,0,1.5,0.3,1.9,0.8c0.5,0.6,0.7,1.3,0.7,2.2v0.4h-4.4c0,0.7,0.2,1.2,0.5,1.6
		c0.3,0.4,0.8,0.6,1.3,0.6c0.4,0,0.7-0.1,1-0.3S86.2,178.3,86.3,177.9z M84.7,174.3c-0.5,0-0.9,0.2-1.2,0.5
		c-0.3,0.3-0.5,0.7-0.6,1.3h3.3c0-0.5-0.1-0.9-0.4-1.2C85.6,174.5,85.2,174.3,84.7,174.3z"/>
	<path class="st10" d="M88.2,178.1h1.1c0.2,0.6,0.7,1,1.5,1c0.4,0,0.7-0.1,0.9-0.2c0.2-0.2,0.4-0.4,0.4-0.7c0-0.4-0.3-0.7-0.9-0.9
		l-1.2-0.3c-1-0.3-1.5-0.8-1.5-1.6c0-0.5,0.2-1,0.6-1.3s1-0.5,1.6-0.5c0.7,0,1.2,0.2,1.6,0.5c0.4,0.3,0.7,0.7,0.8,1.3h-1
		c-0.2-0.6-0.6-0.9-1.4-0.9c-0.3,0-0.6,0.1-0.8,0.2c-0.2,0.2-0.4,0.4-0.4,0.7c0,0.2,0.1,0.4,0.2,0.5c0.1,0.1,0.4,0.2,0.7,0.3
		l1.2,0.3c1.1,0.3,1.6,0.9,1.6,1.7c0,0.6-0.2,1-0.6,1.4s-1,0.5-1.7,0.5c-0.7,0-1.3-0.2-1.7-0.5C88.6,179.1,88.3,178.6,88.2,178.1z"
		/>
	<path class="st10" d="M94.1,178.1h1.1c0.2,0.6,0.7,1,1.5,1c0.4,0,0.7-0.1,0.9-0.2c0.2-0.2,0.4-0.4,0.4-0.7c0-0.4-0.3-0.7-0.9-0.9
		l-1.2-0.3c-1-0.3-1.5-0.8-1.5-1.6c0-0.5,0.2-1,0.6-1.3s1-0.5,1.6-0.5c0.7,0,1.2,0.2,1.6,0.5c0.4,0.3,0.7,0.7,0.8,1.3h-1
		c-0.2-0.6-0.6-0.9-1.4-0.9c-0.3,0-0.6,0.1-0.8,0.2c-0.2,0.2-0.4,0.4-0.4,0.7c0,0.2,0.1,0.4,0.2,0.5c0.1,0.1,0.4,0.2,0.7,0.3
		l1.2,0.3c1.1,0.3,1.6,0.9,1.6,1.7c0,0.6-0.2,1-0.6,1.4s-1,0.5-1.7,0.5c-0.7,0-1.3-0.2-1.7-0.5C94.4,179.1,94.2,178.6,94.1,178.1z"
		/>
	<path class="st10" d="M103.8,178.2v-3.8h-1v-0.9h1v-1.6h1.1v1.6h1.5v0.9h-1.5v3.6c0,0.6,0.3,0.9,0.8,0.9c0.3,0,0.6-0.1,0.8-0.3v1
		c-0.3,0.1-0.6,0.2-1,0.2c-0.5,0-0.9-0.1-1.2-0.4C103.9,179.2,103.8,178.8,103.8,178.2z"/>
	<path class="st10" d="M112.3,174.3c0.5,0.6,0.8,1.4,0.8,2.3c0,1-0.3,1.7-0.8,2.3c-0.5,0.6-1.2,0.9-2.1,0.9s-1.5-0.3-2.1-0.9
		c-0.5-0.6-0.8-1.4-0.8-2.3c0-1,0.3-1.7,0.8-2.3c0.5-0.6,1.2-0.9,2.1-0.9S111.8,173.7,112.3,174.3z M111.6,178.3
		c0.3-0.4,0.5-1,0.5-1.7c0-0.7-0.2-1.2-0.5-1.7c-0.3-0.4-0.8-0.6-1.3-0.6s-1,0.2-1.3,0.6c-0.3,0.4-0.5,1-0.5,1.7
		c0,0.7,0.2,1.2,0.5,1.7c0.3,0.4,0.8,0.6,1.3,0.6S111.2,178.8,111.6,178.3z"/>
	<path class="st10" d="M119.5,182.2h-1l0.9-2.3l-2.4-6.3h1.1l1.8,4.9l1.8-4.9h1.1L119.5,182.2z"/>
	<path class="st10" d="M128.4,174.3c0.5,0.6,0.8,1.4,0.8,2.3c0,1-0.3,1.7-0.8,2.3c-0.5,0.6-1.2,0.9-2.1,0.9c-0.8,0-1.5-0.3-2.1-0.9
		c-0.5-0.6-0.8-1.4-0.8-2.3c0-1,0.3-1.7,0.8-2.3c0.5-0.6,1.2-0.9,2.1-0.9C127.1,173.4,127.8,173.7,128.4,174.3z M127.6,178.3
		c0.3-0.4,0.5-1,0.5-1.7c0-0.7-0.2-1.2-0.5-1.7s-0.8-0.6-1.3-0.6c-0.6,0-1,0.2-1.3,0.6s-0.5,1-0.5,1.7c0,0.7,0.2,1.2,0.5,1.7
		s0.8,0.6,1.3,0.6C126.8,179,127.3,178.8,127.6,178.3z"/>
	<path class="st10" d="M135.5,173.6v6.2h-1.1V179c-0.2,0.3-0.4,0.5-0.8,0.7s-0.7,0.3-1,0.3c-0.7,0-1.2-0.2-1.6-0.6
		c-0.4-0.4-0.6-1-0.6-1.7v-4.1h1.1v3.9c0,0.5,0.1,0.8,0.3,1.1c0.2,0.3,0.6,0.4,1,0.4c0.4,0,0.7-0.1,1-0.3c0.3-0.2,0.5-0.5,0.6-0.8
		v-4.2H135.5z"/>
	<path class="st10" d="M140.6,173.5v1.1c-0.2-0.1-0.4-0.2-0.7-0.2c-0.3,0-0.6,0.1-0.9,0.3c-0.3,0.2-0.4,0.5-0.5,0.9v4.2h-1v-6.2h1
		v0.8c0.1-0.3,0.3-0.5,0.6-0.7c0.3-0.2,0.6-0.3,0.9-0.3C140.3,173.4,140.5,173.5,140.6,173.5z"/>
</g>
<g class="st9">
	<path class="st10" d="M82.4,189.7v9.1h-1v-9.1H82.4z"/>
	<path class="st10" d="M88.7,193.3c0.5,0.6,0.8,1.4,0.8,2.3c0,1-0.3,1.7-0.8,2.3c-0.5,0.6-1.2,0.9-2.1,0.9c-0.8,0-1.5-0.3-2.1-0.9
		c-0.5-0.6-0.8-1.4-0.8-2.3c0-1,0.3-1.7,0.8-2.3c0.5-0.6,1.2-0.9,2.1-0.9C87.5,192.4,88.2,192.7,88.7,193.3z M87.9,197.3
		c0.3-0.4,0.5-1,0.5-1.7c0-0.7-0.2-1.2-0.5-1.7c-0.3-0.4-0.8-0.6-1.3-0.6c-0.6,0-1,0.2-1.3,0.6c-0.3,0.4-0.5,1-0.5,1.7
		c0,0.7,0.2,1.2,0.5,1.7c0.3,0.4,0.8,0.6,1.3,0.6C87.2,198,87.6,197.8,87.9,197.3z"/>
	<path class="st10" d="M91.3,198c-0.5-0.6-0.8-1.4-0.8-2.3c0-1,0.3-1.7,0.8-2.3c0.5-0.6,1.2-0.9,2-0.9c0.7,0,1.2,0.2,1.7,0.5
		c0.4,0.4,0.7,0.8,0.8,1.5h-1.1c-0.1-0.3-0.2-0.6-0.5-0.8c-0.2-0.2-0.6-0.3-0.9-0.3c-0.5,0-1,0.2-1.3,0.6c-0.3,0.4-0.5,1-0.5,1.7
		c0,0.7,0.2,1.2,0.5,1.7c0.3,0.4,0.7,0.6,1.3,0.6c0.4,0,0.7-0.1,0.9-0.3c0.2-0.2,0.4-0.5,0.5-0.8h1.1c-0.1,0.6-0.4,1.1-0.8,1.5
		c-0.4,0.4-1,0.5-1.7,0.5C92.5,198.9,91.8,198.6,91.3,198z"/>
	<path class="st10" d="M101.7,198.8h-1v-0.5c-0.1,0.1-0.4,0.3-0.7,0.4c-0.3,0.1-0.6,0.2-1,0.2c-0.7,0-1.2-0.2-1.6-0.5
		c-0.4-0.4-0.7-0.8-0.7-1.4c0-0.6,0.2-1,0.7-1.4c0.5-0.4,1-0.5,1.7-0.5c0.3,0,0.6,0.1,0.9,0.2s0.5,0.2,0.7,0.3v-0.8
		c0-0.4-0.1-0.7-0.4-1c-0.2-0.2-0.6-0.4-1-0.4c-0.7,0-1.1,0.3-1.3,0.9h-1c0.1-0.5,0.4-0.9,0.8-1.3c0.4-0.3,0.9-0.5,1.5-0.5
		c0.7,0,1.3,0.2,1.7,0.6c0.4,0.4,0.6,0.9,0.6,1.6V198.8z M100.7,197.2v-0.6c-0.1-0.2-0.3-0.4-0.6-0.6c-0.3-0.1-0.6-0.2-0.9-0.2
		c-0.4,0-0.8,0.1-1,0.3c-0.3,0.2-0.4,0.5-0.4,0.8c0,0.4,0.1,0.6,0.4,0.8c0.3,0.2,0.6,0.3,1,0.3c0.3,0,0.6-0.1,0.9-0.2
		C100.4,197.6,100.6,197.5,100.7,197.2z"/>
	<path class="st10" d="M103.7,197.2v-3.8h-1v-0.9h1v-1.6h1v1.6h1.5v0.9h-1.5v3.6c0,0.6,0.3,0.9,0.8,0.9c0.3,0,0.6-0.1,0.8-0.3v1
		c-0.3,0.1-0.6,0.2-1,0.2c-0.5,0-0.9-0.1-1.2-0.4C103.9,198.2,103.7,197.8,103.7,197.2z"/>
	<path class="st10" d="M108.9,190.2c0.1,0.1,0.2,0.3,0.2,0.5s-0.1,0.3-0.2,0.5c-0.1,0.1-0.3,0.2-0.5,0.2c-0.2,0-0.3-0.1-0.5-0.2
		s-0.2-0.3-0.2-0.5s0.1-0.3,0.2-0.5c0.1-0.1,0.3-0.2,0.5-0.2C108.6,190,108.8,190.1,108.9,190.2z M108.9,192.6v6.2h-1v-6.2H108.9z"
		/>
	<path class="st10" d="M115.3,193.3c0.5,0.6,0.8,1.4,0.8,2.3c0,1-0.3,1.7-0.8,2.3c-0.5,0.6-1.2,0.9-2.1,0.9s-1.5-0.3-2.1-0.9
		c-0.5-0.6-0.8-1.4-0.8-2.3c0-1,0.3-1.7,0.8-2.3c0.5-0.6,1.2-0.9,2.1-0.9S114.8,192.7,115.3,193.3z M114.5,197.3
		c0.3-0.4,0.5-1,0.5-1.7c0-0.7-0.2-1.2-0.5-1.7c-0.3-0.4-0.8-0.6-1.3-0.6s-1,0.2-1.3,0.6c-0.3,0.4-0.5,1-0.5,1.7
		c0,0.7,0.2,1.2,0.5,1.7c0.3,0.4,0.8,0.6,1.3,0.6S114.2,197.8,114.5,197.3z"/>
	<path class="st10" d="M117.5,198.8v-6.2h1v0.8c0.2-0.3,0.5-0.5,0.8-0.7c0.3-0.2,0.7-0.3,1.1-0.3c0.7,0,1.2,0.2,1.6,0.6
		c0.4,0.4,0.6,1,0.6,1.7v4.1h-1.1v-3.9c0-0.4-0.1-0.8-0.3-1.1c-0.2-0.3-0.6-0.4-1-0.4c-0.4,0-0.7,0.1-1,0.3
		c-0.3,0.2-0.5,0.5-0.6,0.8v4.2H117.5z"/>
</g>
<rect x="33.4" y="287.7" class="st8" width="98.3" height="53.2"/>
<g class="st9">
	<path class="st10" d="M35,295.7c-0.7-0.8-1.1-1.9-1.1-3.2c0-1.3,0.4-2.4,1.1-3.2c0.7-0.8,1.6-1.2,2.8-1.2c0.9,0,1.6,0.2,2.2,0.7
		c0.6,0.5,1,1.1,1.1,1.9H40c-0.4-1.1-1.1-1.7-2.3-1.7c-0.8,0-1.5,0.3-2,0.9s-0.8,1.5-0.8,2.5c0,1,0.3,1.8,0.8,2.5s1.2,1,2,1
		c1.1,0,1.9-0.6,2.3-1.7h1.1c-0.2,0.8-0.6,1.5-1.1,1.9c-0.6,0.5-1.3,0.7-2.2,0.7C36.7,296.9,35.7,296.5,35,295.7z"/>
	<path class="st10" d="M47,291.3c0.5,0.6,0.8,1.4,0.8,2.3c0,1-0.3,1.7-0.8,2.3c-0.5,0.6-1.2,0.9-2.1,0.9c-0.8,0-1.5-0.3-2.1-0.9
		c-0.5-0.6-0.8-1.4-0.8-2.3c0-1,0.3-1.7,0.8-2.3c0.5-0.6,1.2-0.9,2.1-0.9C45.8,290.4,46.5,290.7,47,291.3z M46.3,295.3
		c0.3-0.4,0.5-1,0.5-1.7c0-0.7-0.2-1.2-0.5-1.7c-0.3-0.4-0.8-0.6-1.3-0.6c-0.6,0-1,0.2-1.3,0.6c-0.3,0.4-0.5,1-0.5,1.7
		c0,0.7,0.2,1.2,0.5,1.7c0.3,0.4,0.8,0.6,1.3,0.6C45.5,296,46,295.8,46.3,295.3z"/>
	<path class="st10" d="M56,287.7v1c-0.2-0.1-0.4-0.2-0.7-0.2c-0.3,0-0.6,0.1-0.7,0.3s-0.3,0.5-0.3,0.8v1h1.4v0.9h-1.4v5.3h-1v-5.3
		h-2.6v5.3h-1v-5.3h-1.1v-0.9h1.1v-1c0-0.6,0.2-1.1,0.5-1.4c0.4-0.4,0.8-0.5,1.4-0.5c0.3,0,0.6,0,0.8,0.1v1
		c-0.2-0.1-0.4-0.2-0.7-0.2c-0.3,0-0.6,0.1-0.7,0.3c-0.2,0.2-0.3,0.5-0.3,0.8v0.9h2.6v-1c0-0.6,0.2-1.1,0.5-1.4
		c0.4-0.4,0.8-0.5,1.4-0.5C55.5,287.6,55.8,287.6,56,287.7z"/>
	<path class="st10" d="M60.8,294.9h1c-0.1,0.6-0.4,1.1-0.8,1.4s-1,0.5-1.7,0.5c-0.8,0-1.5-0.3-2.1-0.9s-0.8-1.4-0.8-2.3
		c0-0.9,0.3-1.7,0.8-2.3c0.5-0.6,1.2-0.9,2-0.9c0.8,0,1.5,0.3,1.9,0.8c0.5,0.6,0.7,1.3,0.7,2.2v0.4h-4.4c0,0.7,0.2,1.2,0.5,1.6
		c0.3,0.4,0.8,0.6,1.3,0.6c0.4,0,0.7-0.1,1-0.3S60.7,295.3,60.8,294.9z M59.3,291.3c-0.5,0-0.9,0.2-1.2,0.5
		c-0.3,0.3-0.5,0.7-0.6,1.3h3.3c0-0.5-0.1-0.9-0.4-1.2C60.1,291.5,59.8,291.3,59.3,291.3z"/>
	<path class="st10" d="M67.2,294.9h1c-0.1,0.6-0.4,1.1-0.8,1.4s-1,0.5-1.7,0.5c-0.8,0-1.5-0.3-2.1-0.9s-0.8-1.4-0.8-2.3
		c0-0.9,0.3-1.7,0.8-2.3c0.5-0.6,1.2-0.9,2-0.9c0.8,0,1.5,0.3,1.9,0.8c0.5,0.6,0.7,1.3,0.7,2.2v0.4h-4.4c0,0.7,0.2,1.2,0.5,1.6
		c0.3,0.4,0.8,0.6,1.3,0.6c0.4,0,0.7-0.1,1-0.3S67.1,295.3,67.2,294.9z M65.7,291.3c-0.5,0-0.9,0.2-1.2,0.5
		c-0.3,0.3-0.5,0.7-0.6,1.3h3.3c0-0.5-0.1-0.9-0.4-1.2C66.6,291.5,66.2,291.3,65.7,291.3z"/>
	<path class="st10" d="M72.3,295.1h1.1c0.2,0.6,0.7,1,1.5,1c0.4,0,0.7-0.1,0.9-0.2c0.2-0.2,0.4-0.4,0.4-0.7c0-0.4-0.3-0.7-0.9-0.9
		l-1.2-0.3c-1-0.3-1.5-0.8-1.5-1.6c0-0.5,0.2-1,0.6-1.3s1-0.5,1.6-0.5c0.7,0,1.2,0.2,1.6,0.5c0.4,0.3,0.7,0.7,0.8,1.3h-1
		c-0.2-0.6-0.6-0.9-1.4-0.9c-0.3,0-0.6,0.1-0.8,0.2c-0.2,0.2-0.4,0.4-0.4,0.7c0,0.2,0.1,0.4,0.2,0.5c0.1,0.1,0.4,0.2,0.7,0.3
		l1.2,0.3c1.1,0.3,1.6,0.9,1.6,1.7c0,0.6-0.2,1-0.6,1.4s-1,0.5-1.7,0.5c-0.7,0-1.3-0.2-1.7-0.5C72.6,296.1,72.4,295.6,72.3,295.1z"
		/>
	<path class="st10" d="M78.6,296.8v-9.1h1v3.7c0.2-0.3,0.5-0.5,0.8-0.7c0.3-0.2,0.7-0.3,1.1-0.3c0.7,0,1.2,0.2,1.6,0.6
		c0.4,0.4,0.6,1,0.6,1.7v4.1h-1.1v-3.9c0-0.4-0.1-0.8-0.3-1.1c-0.2-0.3-0.6-0.4-1-0.4c-0.4,0-0.7,0.1-1,0.3
		c-0.3,0.2-0.5,0.5-0.6,0.8v4.2H78.6z"/>
	<path class="st10" d="M89.9,291.3c0.5,0.6,0.8,1.4,0.8,2.3c0,1-0.3,1.7-0.8,2.3c-0.5,0.6-1.2,0.9-2.1,0.9c-0.8,0-1.5-0.3-2.1-0.9
		c-0.5-0.6-0.8-1.4-0.8-2.3c0-1,0.3-1.7,0.8-2.3c0.5-0.6,1.2-0.9,2.1-0.9C88.7,290.4,89.4,290.7,89.9,291.3z M89.1,295.3
		c0.3-0.4,0.5-1,0.5-1.7c0-0.7-0.2-1.2-0.5-1.7c-0.3-0.4-0.8-0.6-1.3-0.6c-0.6,0-1,0.2-1.3,0.6c-0.3,0.4-0.5,1-0.5,1.7
		c0,0.7,0.2,1.2,0.5,1.7c0.3,0.4,0.8,0.6,1.3,0.6C88.4,296,88.8,295.8,89.1,295.3z"/>
	<path class="st10" d="M93.2,296v3.1h-1v-8.6h1v0.7c0.2-0.2,0.4-0.4,0.7-0.6c0.3-0.2,0.7-0.2,1-0.2c0.9,0,1.6,0.3,2.1,0.9
		c0.5,0.6,0.7,1.4,0.7,2.3c0,0.9-0.2,1.7-0.7,2.3c-0.5,0.6-1.2,0.9-2.1,0.9c-0.4,0-0.7-0.1-1-0.2C93.6,296.5,93.3,296.3,93.2,296z
		 M93.2,292.4v2.5c0.2,0.3,0.4,0.6,0.7,0.7c0.3,0.2,0.6,0.3,0.9,0.3c0.6,0,1-0.2,1.4-0.6s0.5-1,0.5-1.6c0-0.7-0.2-1.2-0.5-1.6
		s-0.8-0.6-1.4-0.6c-0.3,0-0.6,0.1-0.9,0.3C93.5,291.8,93.3,292.1,93.2,292.4z"/>
</g>
<g class="st9">
	<path class="st10" d="M39.5,312.5c-0.6,0.8-1.4,1.2-2.3,1.2c-1,0-1.7-0.4-2.3-1.2c-0.6-0.8-0.9-1.9-0.9-3.2c0-1.3,0.3-2.4,0.9-3.2
		c0.6-0.8,1.4-1.2,2.3-1.2c1,0,1.7,0.4,2.3,1.2s0.9,1.9,0.9,3.2C40.4,310.6,40.1,311.7,39.5,312.5z M37.2,305.8
		c-0.7,0-1.2,0.3-1.6,0.9s-0.6,1.5-0.6,2.5s0.2,1.9,0.6,2.5c0.4,0.6,0.9,0.9,1.6,0.9c0.7,0,1.2-0.3,1.6-0.9c0.4-0.6,0.6-1.5,0.6-2.5
		s-0.2-1.9-0.6-2.5C38.3,306.2,37.8,305.8,37.2,305.8z"/>
	<path class="st10" d="M41.2,313.4c-0.1-0.1-0.2-0.3-0.2-0.5s0.1-0.4,0.2-0.5c0.1-0.1,0.3-0.2,0.5-0.2c0.2,0,0.4,0.1,0.5,0.2
		c0.1,0.1,0.2,0.3,0.2,0.5s-0.1,0.4-0.2,0.5c-0.1,0.1-0.3,0.2-0.5,0.2C41.5,313.6,41.3,313.6,41.2,313.4z"/>
	<path class="st10" d="M47.8,307.3c0-0.4-0.1-0.8-0.4-1.1c-0.3-0.3-0.7-0.4-1.1-0.4c-0.5,0-0.9,0.2-1.2,0.5
		c-0.3,0.3-0.5,0.7-0.5,1.3h-1.1c0.1-0.8,0.4-1.5,0.9-2c0.5-0.5,1.1-0.7,1.9-0.7c0.8,0,1.5,0.2,1.9,0.7c0.5,0.4,0.7,1,0.7,1.8
		c0,0.1,0,0.3,0,0.4c0,0.1-0.1,0.3-0.1,0.4c0,0.1-0.1,0.2-0.2,0.4c-0.1,0.2-0.2,0.3-0.2,0.3c0,0.1-0.1,0.2-0.3,0.4
		c-0.1,0.2-0.2,0.3-0.3,0.3c0,0.1-0.2,0.2-0.3,0.4c-0.2,0.2-0.3,0.3-0.3,0.4l-2.2,2.4h4.1v1h-5.6v-0.7l2.8-3.1
		c0.4-0.5,0.7-0.8,0.9-1c0.1-0.2,0.3-0.4,0.5-0.7C47.7,307.8,47.8,307.5,47.8,307.3z"/>
	<path class="st10" d="M57.9,308.2c0.5-0.7,1.1-1,1.9-1c0.6,0,1.1,0.2,1.4,0.6s0.5,0.9,0.5,1.6v4.1h-1.1v-3.9c0-0.4-0.1-0.8-0.3-1.1
		c-0.2-0.3-0.5-0.4-0.9-0.4c-0.3,0-0.6,0.1-0.9,0.3c-0.3,0.2-0.4,0.5-0.5,0.8v4.3h-1v-3.9c0-0.4-0.1-0.8-0.3-1.1
		c-0.2-0.3-0.5-0.4-0.9-0.4c-0.3,0-0.6,0.1-0.9,0.3c-0.3,0.2-0.4,0.5-0.5,0.8v4.3h-1v-6.2h1v0.7c0.4-0.6,0.9-0.9,1.7-0.9
		C57,307.2,57.5,307.6,57.9,308.2z"/>
	<path class="st10" d="M64.5,305c0.1,0.1,0.2,0.3,0.2,0.5s-0.1,0.3-0.2,0.5s-0.3,0.2-0.5,0.2c-0.2,0-0.3-0.1-0.5-0.2
		c-0.1-0.1-0.2-0.3-0.2-0.5s0.1-0.3,0.2-0.5c0.1-0.1,0.3-0.2,0.5-0.2C64.2,304.8,64.4,304.9,64.5,305z M64.6,307.4v6.2h-1v-6.2H64.6
		z"/>
	<path class="st10" d="M67.5,304.5v9.1h-1v-9.1H67.5z"/>
	<path class="st10" d="M73.3,311.7h1c-0.1,0.6-0.4,1.1-0.8,1.4s-1,0.5-1.7,0.5c-0.8,0-1.5-0.3-2.1-0.9s-0.8-1.4-0.8-2.3
		c0-0.9,0.3-1.7,0.8-2.3c0.5-0.6,1.2-0.9,2-0.9c0.8,0,1.5,0.3,1.9,0.8c0.5,0.6,0.7,1.3,0.7,2.2v0.4H70c0,0.7,0.2,1.2,0.5,1.6
		c0.3,0.4,0.8,0.6,1.3,0.6c0.4,0,0.7-0.1,1-0.3S73.2,312.1,73.3,311.7z M71.7,308.1c-0.5,0-0.9,0.2-1.2,0.5
		c-0.3,0.3-0.5,0.7-0.6,1.3h3.3c0-0.5-0.1-0.9-0.4-1.2C72.6,308.3,72.2,308.1,71.7,308.1z"/>
	<path class="st10" d="M75.3,311.9h1.1c0.2,0.6,0.7,1,1.5,1c0.4,0,0.7-0.1,0.9-0.2c0.2-0.2,0.4-0.4,0.4-0.7c0-0.4-0.3-0.7-0.9-0.9
		l-1.2-0.3c-1-0.3-1.5-0.8-1.5-1.6c0-0.5,0.2-1,0.6-1.3s1-0.5,1.6-0.5c0.7,0,1.2,0.2,1.6,0.5c0.4,0.3,0.7,0.7,0.8,1.3h-1
		c-0.2-0.6-0.6-0.9-1.4-0.9c-0.3,0-0.6,0.1-0.8,0.2c-0.2,0.2-0.4,0.4-0.4,0.7c0,0.2,0.1,0.4,0.2,0.5c0.1,0.1,0.4,0.2,0.7,0.3
		l1.2,0.3c1.1,0.3,1.6,0.9,1.6,1.7c0,0.6-0.2,1-0.6,1.4s-1,0.5-1.7,0.5c-0.7,0-1.3-0.2-1.7-0.5C75.6,312.9,75.4,312.4,75.3,311.9z"
		/>
</g>
<line class="st11" x1="31.1" y1="217.2" x2="172.6" y2="217.2"/>
<line class="st11" x1="102.4" y1="217.4" x2="102.2" y2="247.2"/>
<rect x="28.9" y="226" class="st8" width="73" height="16.4"/>
<g class="st9">
	<path class="st12" d="M59.4,230.5l2.5-4.1H63l-3.1,5.1v3.5h-1.1v-3.5l-3.1-5.1h1.2L59.4,230.5z"/>
	<path class="st12" d="M67.2,233.2h1c-0.1,0.6-0.4,1.1-0.8,1.4s-1,0.5-1.7,0.5c-0.8,0-1.5-0.3-2.1-0.9s-0.8-1.4-0.8-2.3
		c0-0.9,0.3-1.7,0.8-2.3c0.5-0.6,1.2-0.9,2-0.9c0.8,0,1.5,0.3,1.9,0.8c0.5,0.6,0.7,1.3,0.7,2.2v0.4h-4.4c0,0.7,0.2,1.2,0.5,1.6
		c0.3,0.4,0.8,0.6,1.3,0.6c0.4,0,0.7-0.1,1-0.3S67.1,233.6,67.2,233.2z M65.7,229.6c-0.5,0-0.9,0.2-1.2,0.5
		c-0.3,0.3-0.5,0.7-0.6,1.3h3.3c0-0.5-0.1-0.9-0.4-1.2C66.6,229.8,66.2,229.6,65.7,229.6z"/>
	<path class="st12" d="M69.2,233.4h1.1c0.2,0.6,0.7,1,1.5,1c0.4,0,0.7-0.1,0.9-0.2c0.2-0.2,0.4-0.4,0.4-0.7c0-0.4-0.3-0.7-0.9-0.9
		l-1.2-0.3c-1-0.3-1.5-0.8-1.5-1.6c0-0.5,0.2-1,0.6-1.3s1-0.5,1.6-0.5c0.7,0,1.2,0.2,1.6,0.5c0.4,0.3,0.7,0.7,0.8,1.3h-1
		c-0.2-0.6-0.6-0.9-1.4-0.9c-0.3,0-0.6,0.1-0.8,0.2c-0.2,0.2-0.4,0.4-0.4,0.7c0,0.2,0.1,0.4,0.2,0.5c0.1,0.1,0.4,0.2,0.7,0.3
		l1.2,0.3c1.1,0.3,1.6,0.9,1.6,1.7c0,0.6-0.2,1-0.6,1.4s-1,0.5-1.7,0.5c-0.7,0-1.3-0.2-1.7-0.5C69.6,234.4,69.3,233.9,69.2,233.4z"
		/>
</g>
<rect x="102.4" y="226" class="st8" width="73" height="16.4"/>
<g class="st9">
	<path class="st12" d="M138.9,226.5v8.6h-0.8l-4.8-6.8v6.8h-1.1v-8.6h1l4.6,6.5v-6.5H138.9z"/>
	<path class="st12" d="M145.3,229.6c0.5,0.6,0.8,1.4,0.8,2.3c0,1-0.3,1.7-0.8,2.3c-0.5,0.6-1.2,0.9-2.1,0.9c-0.8,0-1.5-0.3-2.1-0.9
		c-0.5-0.6-0.8-1.4-0.8-2.3c0-1,0.3-1.7,0.8-2.3c0.5-0.6,1.2-0.9,2.1-0.9C144.1,228.7,144.8,229,145.3,229.6z M144.6,233.6
		c0.3-0.4,0.5-1,0.5-1.7c0-0.7-0.2-1.2-0.5-1.7c-0.3-0.4-0.8-0.6-1.3-0.6c-0.6,0-1,0.2-1.3,0.6s-0.5,1-0.5,1.7
		c0,0.7,0.2,1.2,0.5,1.7s0.8,0.6,1.3,0.6C143.8,234.3,144.3,234.1,144.6,233.6z"/>
</g>
<path class="st6" d="M109.2,109.5c2.7-2,4.4-5.2,4.4-8.9v-0.8h4.2c3.6,0,6.5-2.9,6.5-6.5s-2.9-6.5-6.5-6.5H91.3v13.8
	c0,3.6,1.7,6.8,4.4,8.9H80.2c0.8,2.4,3,4.1,5.7,4.1H119c2.7,0,5-1.6,5.7-4.1H109.2z M113.6,89.5h4.2c2.1,0,3.8,1.7,3.8,3.8
	c0,2.1-1.7,3.8-3.8,3.8h-4.2V89.5z"/>
<rect x="31.1" y="132.1" class="st13" width="141.6" height="115"/>
<rect x="14.5" y="61.5" class="st13" width="172" height="303"/>
</svg>
