<?xml version="1.0" encoding="utf-8"?>
<!-- Generator: Adobe Illustrator 19.2.1, SVG Export Plug-In . SVG Version: 6.00 Build 0)  -->
<svg version="1.1" id="Layer_1" xmlns="http://www.w3.org/2000/svg" xmlns:xlink="http://www.w3.org/1999/xlink" x="0px" y="0px"
	 viewBox="0 0 350.4 221.5" style="enable-background:new 0 0 350.4 221.5;" xml:space="preserve">
<style type="text/css">
	.st0{fill:#FFFFFF;}
	.st1{fill:none;stroke:#1D1D1B;stroke-width:2;stroke-miterlimit:10;}
	.st2{fill:#ECECEC;}
	.st3{fill:none;}
	.st4{fill:#1D1D1B;}
	.st5{fill:none;stroke:#1D1D1B;stroke-miterlimit:10;}
	.st6{fill:none;stroke:#3A50A2;stroke-width:5.9939;stroke-linecap:round;stroke-miterlimit:10;}
	.st7{fill:#3A50A2;}
	.st8{fill:#FFFFFF;stroke:#1D1D1B;stroke-miterlimit:10;}
	.st9{enable-background:new    ;}
	.st10{fill:none;stroke:#C1C1C1;stroke-miterlimit:10;}
	.st11{fill:#2341C1;}
	.st12{fill:#C1C1C1;}
	.st13{fill:none;stroke:#1E1E1E;stroke-miterlimit:10;}
	.st14{fill:none;stroke:#1E1E1E;stroke-width:2;stroke-miterlimit:10;}
</style>
<g>
	
		<image style="overflow:visible;opacity:0.49;enable-background:new    ;" width="1467" height="932" xlink:href="1160E53E9A92AB9B.png"  transform="matrix(0.2387 0 0 0.2382 70.262 255.9451)">
	</image>
	<g>
		<path class="st0" d="M416.2,463.4c0,1.9-1.5,3.4-3.4,3.4H84.2c-1.9,0-3.4-1.5-3.4-3.4V263.9c0-1.9,1.5-3.4,3.4-3.4h328.6
			c1.9,0,3.4,1.5,3.4,3.4L416.2,463.4L416.2,463.4z"/>
		<path class="st1" d="M416.2,463.4c0,1.9-1.5,3.4-3.4,3.4H84.2c-1.9,0-3.4-1.5-3.4-3.4V263.9c0-1.9,1.5-3.4,3.4-3.4h328.6
			c1.9,0,3.4,1.5,3.4,3.4L416.2,463.4L416.2,463.4z"/>
	</g>
</g>
<rect x="90.6" y="401.8" class="st2" width="315.8" height="62.2"/>
<g>
	<rect x="95.5" y="302.2" class="st3" width="231.3" height="91"/>
	<path class="st4" d="M100.5,303.9v8.3h-1.9V304H96v-1.8h7.1v1.7L100.5,303.9L100.5,303.9z"/>
	<path class="st4" d="M108.7,311.3c-0.4,0.5-1.2,0.9-2.3,0.9s-1.8-0.4-2.3-0.9c-0.7-0.7-0.8-1.5-0.8-2.8s0.2-2.1,0.8-2.8
		c0.4-0.5,1.2-0.9,2.3-0.9s1.8,0.4,2.3,0.9c0.7,0.7,0.8,1.5,0.8,2.8S109.3,310.7,108.7,311.3z M107.3,306.7
		c-0.2-0.2-0.5-0.3-0.9-0.3s-0.6,0.1-0.8,0.3c-0.4,0.4-0.4,1-0.4,1.8s0,1.4,0.4,1.8c0.2,0.2,0.5,0.3,0.8,0.3s0.6-0.1,0.9-0.3
		c0.4-0.4,0.4-1,0.4-1.8C107.7,307.7,107.6,307.1,107.3,306.7z"/>
	<path class="st4" d="M121,312.2l-0.8-2.3h-4.4l-0.8,2.3h-1.1l3.7-10h0.9l3.6,10H121z M118,303.7l-1.9,5.3h3.7L118,303.7z"/>
	<path class="st4" d="M125.2,312.2c-1.2,0-1.8-0.8-1.8-1.8v-8.2h1v8.1c0,0.7,0.2,1,0.9,1h0.5v0.9H125.2z"/>
	<path class="st4" d="M127.6,303.3v-1.1h1.1v1.1H127.6z M127.7,312.2v-6.9h1v6.9H127.7z"/>
	<path class="st4" d="M133.9,312.2c-1.7,0-3.1-1.2-3.1-3.5c0-2.4,1.3-3.5,3.1-3.5c1,0,1.6,0.3,2.3,1l-0.7,0.6
		c-0.5-0.6-0.9-0.8-1.6-0.8s-1.2,0.3-1.6,0.8c-0.3,0.4-0.4,1-0.4,1.8s0.1,1.4,0.4,1.8c0.4,0.5,0.9,0.8,1.6,0.8s1.1-0.2,1.6-0.8
		l0.7,0.7C135.5,312,134.9,312.2,133.9,312.2z"/>
	<path class="st4" d="M138.5,309c0,1.5,0.7,2.4,2,2.4c0.8,0,1.3-0.2,1.8-0.8l0.7,0.6c-0.7,0.7-1.3,1.1-2.5,1.1c-1.8,0-3-1.1-3-3.5
		c0-2.2,1.1-3.5,2.8-3.5c1.8,0,2.8,1.3,2.8,3.3v0.5h-4.6V309z M141.9,307.1c-0.3-0.6-0.9-1-1.6-1s-1.3,0.4-1.6,1
		c-0.2,0.4-0.2,0.6-0.2,1.1h3.6C142.1,307.7,142.1,307.5,141.9,307.1z"/>
	<path class="st4" d="M99.5,349c-1.5,0-2.7-0.3-3.6-1.3l1.3-1.3c0.6,0.6,1.5,0.8,2.4,0.8c1.1,0,1.8-0.4,1.8-1.2
		c0-0.4-0.1-0.6-0.3-0.8s-0.4-0.3-0.9-0.4l-1.2-0.2c-0.9-0.1-1.5-0.4-1.9-0.8c-0.5-0.5-0.7-1.1-0.7-2c0-1.8,1.3-3,3.5-3
		c1.4,0,2.4,0.3,3.2,1.2l-1.2,1.2c-0.6-0.6-1.4-0.7-2-0.7c-1,0-1.5,0.6-1.5,1.3c0,0.3,0.1,0.5,0.3,0.7c0.2,0.2,0.5,0.3,0.9,0.4
		l1.2,0.2c0.9,0.1,1.5,0.4,1.9,0.8c0.5,0.5,0.8,1.2,0.8,2.1C103.2,347.9,101.5,349,99.5,349z"/>
	<path class="st4" d="M109,349v-0.7c-0.5,0.5-1.1,0.8-1.8,0.8c-0.7,0-1.3-0.2-1.7-0.6c-0.6-0.6-0.7-1.3-0.7-2.1v-4.7h1.8v4.4
		c0,1,0.6,1.3,1.2,1.3s1.2-0.3,1.2-1.3v-4.4h1.8v7.3L109,349L109,349z"/>
	<path class="st4" d="M118.2,348.4c-0.4,0.4-1.1,0.7-1.8,0.7c-0.8,0-1.3-0.2-1.8-0.8v0.7h-1.8v-10h1.8v3.3c0.5-0.5,1-0.7,1.8-0.7
		c0.7,0,1.4,0.3,1.8,0.7c0.7,0.7,0.7,2,0.7,3.1C119,346.4,119,347.7,118.2,348.4z M115.9,343.2c-1.1,0-1.2,0.9-1.2,2.1
		s0.1,2.1,1.2,2.1s1.2-0.9,1.2-2.1C117.2,344.1,117,343.2,115.9,343.2z"/>
	<path class="st4" d="M120.4,351.7h-1v-1.5h0.7c0.5,0,0.6-0.2,0.6-0.7v-7.8h1.8v7.9C122.5,350.6,121.9,351.7,120.4,351.7z
		 M120.7,340.4v-1.5h1.9v1.5H120.7z"/>
	<path class="st4" d="M126,345.9c0,0.9,0.6,1.6,1.6,1.6c0.8,0,1.2-0.2,1.7-0.7l1.1,1.1c-0.7,0.7-1.5,1.1-2.8,1.1
		c-1.7,0-3.4-0.8-3.4-3.7c0-2.4,1.3-3.7,3.2-3.7c2,0,3.2,1.5,3.2,3.5v0.8C130.6,345.9,126,345.9,126,345.9z M128.6,343.8
		c-0.2-0.4-0.6-0.8-1.2-0.8c-0.6,0-1,0.3-1.2,0.8c-0.1,0.3-0.2,0.5-0.2,0.8h2.8C128.7,344.3,128.7,344.1,128.6,343.8z"/>
	<path class="st4" d="M135.1,349c-1.5,0-3.3-0.8-3.3-3.7c0-3,1.8-3.7,3.3-3.7c1,0,1.8,0.3,2.4,1l-1.2,1.2c-0.4-0.4-0.7-0.6-1.2-0.6
		c-0.4,0-0.8,0.2-1,0.5c-0.3,0.4-0.4,0.8-0.4,1.6c0,0.8,0.1,1.3,0.4,1.6c0.3,0.3,0.6,0.5,1,0.5c0.5,0,0.8-0.2,1.2-0.6l1.2,1.2
		C136.9,348.7,136.1,349,135.1,349z"/>
	<path class="st4" d="M141.2,349c-1.5,0-2.1-1.1-2.1-2.1v-3.6h-0.8v-1.4h0.8v-2.2h1.8v2.2h1.3v1.4h-1.3v3.5c0,0.4,0.2,0.7,0.6,0.7
		h0.7v1.5H141.2z"/>
	<path class="st4" d="M153.3,347.9c-0.7,0.8-1.6,1.1-2.7,1.1c-1,0-1.9-0.4-2.5-1c-0.9-0.9-0.9-1.9-0.9-4s0-3.1,0.9-4
		c0.7-0.7,1.6-1,2.5-1c1.9,0,3.2,1.2,3.5,3h-1c-0.3-1.3-1.2-2-2.4-2c-0.7,0-1.3,0.3-1.7,0.7c-0.6,0.6-0.7,1.3-0.7,3.4
		s0.1,2.8,0.7,3.4c0.4,0.4,1.1,0.7,1.7,0.7c0.7,0,1.4-0.3,1.9-0.9c0.4-0.5,0.6-1,0.6-1.8v-0.8h-2.5v-0.9h3.5v1.6
		C154.2,346.5,153.9,347.2,153.3,347.9z"/>
	<path class="st4" d="M158.2,349c-1.2,0-1.8-0.8-1.8-1.8v-8.1h1v8.1c0,0.7,0.2,1,0.9,1h0.5v0.9h-0.6L158.2,349L158.2,349z"/>
	<path class="st4" d="M165,349v-0.8c-0.5,0.6-1.2,0.9-1.9,0.9s-1.4-0.2-1.8-0.6c-0.5-0.5-0.7-1.1-0.7-1.9v-4.4h1v4.2
		c0,1.2,0.6,1.8,1.7,1.8c1,0,1.7-0.6,1.7-1.8v-4.2h1v6.9h-1V349z"/>
	<path class="st4" d="M171.2,349c-1.7,0-3.1-1.2-3.1-3.5c0-2.4,1.3-3.5,3.1-3.5c1,0,1.6,0.3,2.3,1l-0.7,0.6
		c-0.5-0.6-0.9-0.8-1.6-0.8s-1.2,0.3-1.6,0.8c-0.3,0.4-0.4,1-0.4,1.8c0,0.9,0.1,1.4,0.4,1.8c0.4,0.5,0.9,0.8,1.6,0.8
		s1.1-0.2,1.6-0.8l0.7,0.7C172.7,348.8,172.1,349,171.2,349z"/>
	<path class="st4" d="M179.6,348.3c-0.5,0.5-1.1,0.8-2,0.8s-1.5-0.3-2-0.8c-0.7-0.7-0.8-1.7-0.8-2.7s0.1-2,0.8-2.7
		c0.5-0.5,1.1-0.8,2-0.8s1.5,0.3,2,0.8c0.7,0.7,0.8,1.7,0.8,2.7S180.3,347.5,179.6,348.3z M178.9,343.4c-0.3-0.3-0.8-0.5-1.3-0.5
		s-0.9,0.2-1.2,0.5c-0.5,0.5-0.6,1.4-0.6,2.1s0.1,1.6,0.6,2.1c0.3,0.3,0.8,0.5,1.2,0.5s0.9-0.2,1.3-0.5c0.5-0.5,0.5-1.4,0.5-2.1
		S179.4,343.9,178.9,343.4z"/>
	<path class="st4" d="M184.7,349c-1.2,0-2.1-0.3-2.8-1l0.7-0.7c0.5,0.6,1.3,0.8,2.1,0.8c1.1,0,1.8-0.4,1.8-1.2c0-0.6-0.4-0.9-1.1-1
		l-1.1-0.1c-1.3-0.1-2.1-0.7-2.1-1.8c0-1.3,1.1-2,2.5-2c1,0,1.9,0.2,2.5,0.7l-0.7,0.7c-0.5-0.4-1.1-0.5-1.8-0.5
		c-1,0-1.5,0.4-1.5,1.1c0,0.6,0.3,0.9,1.2,1l1.1,0.1c1.2,0.1,2,0.6,2,1.9C187.5,348.3,186.4,349,184.7,349z"/>
	<path class="st4" d="M190.1,345.8c0,1.5,0.7,2.4,2,2.4c0.8,0,1.3-0.2,1.8-0.8l0.7,0.6c-0.7,0.7-1.3,1.1-2.5,1.1c-1.8,0-3-1.1-3-3.5
		c0-2.2,1.1-3.5,2.8-3.5c1.8,0,2.8,1.3,2.8,3.3v0.5h-4.6V345.8z M193.6,343.9c-0.3-0.6-0.9-1-1.6-1s-1.3,0.4-1.6,1
		c-0.2,0.4-0.2,0.6-0.2,1.1h3.6C193.7,344.5,193.7,344.3,193.6,343.9z"/>
	<path class="st4" d="M204.3,343.4c-0.4-0.4-0.7-0.5-1.2-0.5c-1,0-1.7,0.8-1.7,1.8v4.2h-1V342h1v0.8c0.4-0.6,1.1-0.9,1.9-0.9
		c0.7,0,1.2,0.2,1.7,0.6L204.3,343.4z"/>
	<path class="st4" d="M206.5,345.8c0,1.5,0.7,2.4,2,2.4c0.8,0,1.3-0.2,1.8-0.8l0.7,0.6c-0.7,0.7-1.3,1.1-2.5,1.1c-1.8,0-3-1.1-3-3.5
		c0-2.2,1.1-3.5,2.8-3.5c1.8,0,2.8,1.3,2.8,3.3v0.5h-4.6V345.8z M209.9,343.9c-0.3-0.6-0.9-1-1.6-1s-1.3,0.4-1.6,1
		c-0.2,0.4-0.2,0.6-0.2,1.1h3.6C210.1,344.5,210,344.3,209.9,343.9z"/>
	<path class="st4" d="M217.2,349v-0.7c-0.6,0.6-1.1,0.7-2,0.7c-1,0-1.5-0.2-1.9-0.6c-0.3-0.3-0.5-0.9-0.5-1.4c0-1.2,0.8-2,2.4-2h2.1
		v-0.7c0-1-0.5-1.5-1.8-1.5c-0.9,0-1.3,0.2-1.7,0.8l-0.7-0.6c0.6-0.8,1.3-1,2.4-1c1.8,0,2.8,0.8,2.8,2.3v4.7
		C218.3,349,217.2,349,217.2,349z M217.2,345.8h-1.9c-1,0-1.5,0.4-1.5,1.2s0.5,1.2,1.6,1.2c0.6,0,1.1,0,1.5-0.5
		c0.2-0.2,0.4-0.6,0.4-1.2v-0.7H217.2z"/>
	<path class="st4" d="M224.7,349v-0.8c-0.6,0.7-1.2,0.9-2,0.9c-0.7,0-1.3-0.2-1.7-0.6c-0.7-0.7-0.8-1.8-0.8-2.9s0.1-2.2,0.8-2.9
		c0.4-0.4,1-0.6,1.7-0.6c0.8,0,1.4,0.2,1.9,0.9v-3.9h1v10h-0.9V349z M223,342.9c-1.5,0-1.7,1.3-1.7,2.6s0.2,2.6,1.7,2.6
		s1.7-1.3,1.7-2.6S224.5,342.9,223,342.9z"/>
	<path class="st4" d="M228.2,340.1V339h1.1v1.1H228.2z M228.2,349v-6.9h1v6.9H228.2z"/>
	<path class="st4" d="M236.2,349v-4.2c0-1.2-0.7-1.8-1.7-1.8s-1.7,0.6-1.7,1.8v4.2h-1v-6.9h1v0.8c0.5-0.6,1.2-0.8,1.9-0.8
		s1.3,0.2,1.8,0.6c0.5,0.5,0.7,1.1,0.7,1.9v4.4H236.2z"/>
	<path class="st4" d="M241.9,352.1c-1,0-1.6-0.3-2.3-0.9l0.7-0.6c0.5,0.4,0.9,0.7,1.7,0.7c1.3,0,1.9-0.9,1.9-2.1v-1.1
		c-0.6,0.7-1.2,0.9-1.9,0.9s-1.3-0.3-1.7-0.6c-0.7-0.7-0.8-1.8-0.8-2.9s0.2-2.2,0.8-2.9c0.4-0.4,1-0.6,1.7-0.6
		c0.8,0,1.4,0.2,1.9,0.9v-0.8h1v7.1C244.7,350.9,243.7,352.1,241.9,352.1z M242,342.9c-1.5,0-1.7,1.3-1.7,2.6s0.2,2.6,1.7,2.6
		s1.7-1.3,1.7-2.6S243.5,342.9,242,342.9z"/>
	<path class="st4" d="M249.4,349c-1.2,0-2.1-0.3-2.8-1l0.7-0.7c0.5,0.6,1.3,0.8,2.1,0.8c1.1,0,1.8-0.4,1.8-1.2c0-0.6-0.4-0.9-1.1-1
		l-1.1-0.1c-1.3-0.1-2.1-0.7-2.1-1.8c0-1.3,1.1-2,2.5-2c1,0,1.9,0.2,2.5,0.7l-0.7,0.7c-0.5-0.4-1.1-0.5-1.8-0.5
		c-1,0-1.5,0.4-1.5,1.1c0,0.6,0.3,0.9,1.2,1l1.1,0.1c1.2,0.1,2,0.6,2,1.9C252.2,348.3,251.1,349,249.4,349z"/>
	<path class="st4" d="M257.5,345.7v-0.9h3.8v0.9H257.5z"/>
	<path class="st4" d="M268.5,349c-1,0-1.7-0.3-2.3-0.9l0.7-0.7c0.4,0.4,0.7,0.7,1.6,0.7c1.3,0,2-0.8,2-2.3V339h1.1v6.9
		C271.6,347.9,270.3,349,268.5,349z"/>
	<path class="st4" d="M278.1,349v-0.7c-0.6,0.6-1.1,0.7-2,0.7c-1,0-1.5-0.2-1.9-0.6c-0.3-0.3-0.5-0.9-0.5-1.4c0-1.2,0.8-2,2.4-2h2.1
		v-0.7c0-1-0.5-1.5-1.8-1.5c-0.9,0-1.3,0.2-1.7,0.8L274,343c0.6-0.8,1.3-1,2.4-1c1.8,0,2.8,0.8,2.8,2.3v4.7
		C279.2,349,278.1,349,278.1,349z M278.1,345.8h-2c-1,0-1.5,0.4-1.5,1.2s0.5,1.2,1.6,1.2c0.6,0,1.1,0,1.5-0.5
		c0.2-0.2,0.4-0.6,0.4-1.2V345.8z"/>
	<path class="st4" d="M285.9,349v-4.2c0-1.2-0.7-1.8-1.7-1.8s-1.7,0.6-1.7,1.8v4.2h-1v-6.9h1v0.8c0.5-0.6,1.2-0.8,1.9-0.8
		c0.7,0,1.3,0.2,1.8,0.6c0.5,0.5,0.7,1.1,0.7,1.9v4.4H285.9z"/>
	<path class="st4" d="M293.7,349v-0.8c-0.5,0.6-1.2,0.9-1.9,0.9c-0.7,0-1.4-0.2-1.8-0.6c-0.5-0.5-0.7-1.1-0.7-1.9v-4.4h1v4.2
		c0,1.2,0.6,1.8,1.7,1.8s1.7-0.6,1.7-1.8v-4.2h1v6.9h-1L293.7,349L293.7,349z"/>
	<path class="st4" d="M301.2,349v-0.7c-0.6,0.6-1.1,0.7-2,0.7c-1,0-1.5-0.2-1.9-0.6c-0.3-0.3-0.5-0.9-0.5-1.4c0-1.2,0.8-2,2.4-2h2.1
		v-0.7c0-1-0.5-1.5-1.8-1.5c-0.9,0-1.3,0.2-1.7,0.8l-0.7-0.6c0.6-0.8,1.3-1,2.4-1c1.8,0,2.8,0.8,2.8,2.3v4.7
		C302.3,349,301.2,349,301.2,349z M301.2,345.8h-1.9c-1,0-1.5,0.4-1.5,1.2s0.5,1.2,1.6,1.2c0.6,0,1.1,0,1.5-0.5
		c0.2-0.2,0.3-0.6,0.3-1.2V345.8L301.2,345.8z"/>
	<path class="st4" d="M308.5,343.4c-0.4-0.4-0.7-0.5-1.2-0.5c-1,0-1.7,0.8-1.7,1.8v4.2h-1V342h1v0.8c0.4-0.6,1.1-0.9,1.9-0.9
		c0.7,0,1.2,0.2,1.7,0.6L308.5,343.4z"/>
	<path class="st4" d="M312.2,350.6c-0.1,0.4-0.3,0.6-0.5,0.8c-0.4,0.4-0.9,0.5-1.3,0.5H310V351h0.3c0.7,0,0.9-0.2,1.1-0.9l0.5-1.3
		l-2.5-6.8h1.1l1.9,5.5l1.9-5.5h1.1L312.2,350.6z"/>
	<path class="st4" d="M98.7,377.5v2.5h3.9v1.7h-3.9v4h-1.9v-10h6.6v1.7L98.7,377.5L98.7,377.5z"/>
	<path class="st4" d="M108.4,380.4c-0.3-0.3-0.5-0.4-1-0.4c-0.6,0-1.2,0.4-1.2,1.3v4.4h-1.8v-7.3h1.8v0.7c0.4-0.4,1.1-0.8,1.8-0.8
		c0.7,0,1.2,0.2,1.7,0.7L108.4,380.4z"/>
	<path class="st4" d="M115.4,384.9c-0.4,0.5-1.2,0.9-2.3,0.9s-1.8-0.4-2.3-0.9c-0.7-0.7-0.8-1.5-0.8-2.8s0.2-2.1,0.8-2.8
		c0.4-0.5,1.2-0.9,2.3-0.9s1.8,0.4,2.3,0.9c0.7,0.7,0.8,1.5,0.8,2.8S116,384.3,115.4,384.9z M114,380.3c-0.2-0.2-0.5-0.3-0.9-0.3
		s-0.6,0.1-0.8,0.3c-0.4,0.4-0.4,1-0.4,1.8s0,1.4,0.4,1.8c0.2,0.2,0.5,0.3,0.8,0.3s0.6-0.1,0.9-0.3c0.4-0.4,0.4-1,0.4-1.8
		S114.4,380.7,114,380.3z"/>
	<path class="st4" d="M126.4,385.8v-4.4c0-1-0.6-1.3-1.2-1.3s-1.2,0.3-1.2,1.3v4.5h-1.8v-4.4c0-1-0.6-1.3-1.2-1.3s-1.2,0.3-1.2,1.3
		v4.4H118v-7.3h1.8v0.7c0.5-0.5,1.1-0.8,1.8-0.8c0.8,0,1.5,0.3,1.9,0.9c0.6-0.6,1.3-0.9,2.2-0.9c0.7,0,1.4,0.2,1.8,0.6
		c0.6,0.6,0.8,1.3,0.8,2.1v4.7h-1.9V385.8z"/>
	<path class="st4" d="M138,385.8h-3.9v-10h3.8c1.7,0,2.9,1,2.9,2.7c0,1.1-0.6,1.9-1.5,2.2c1,0.4,1.6,1.2,1.6,2.4
		C141,384.8,139.8,385.8,138,385.8z M137.8,376.7h-2.6v3.5h2.6c1.1,0,2-0.5,2-1.7S138.9,376.7,137.8,376.7z M137.9,381.1h-2.7v3.7
		h2.7c1.2,0,2-0.7,2-1.8C139.9,381.8,139.1,381.1,137.9,381.1z"/>
	<path class="st4" d="M147.7,385.1c-0.5,0.5-1.1,0.8-2,0.8s-1.5-0.3-2-0.8c-0.7-0.7-0.8-1.7-0.8-2.7s0.1-2,0.8-2.7
		c0.5-0.5,1.1-0.8,2-0.8s1.5,0.3,2,0.8c0.7,0.7,0.8,1.7,0.8,2.7S148.4,384.3,147.7,385.1z M147,380.2c-0.3-0.3-0.8-0.5-1.3-0.5
		s-0.9,0.2-1.2,0.5c-0.5,0.5-0.6,1.4-0.6,2.1c0,0.8,0.1,1.6,0.6,2.1c0.3,0.3,0.8,0.5,1.2,0.5s0.9-0.2,1.3-0.5
		c0.5-0.5,0.5-1.4,0.5-2.1C147.5,381.5,147.5,380.7,147,380.2z"/>
	<path class="st4" d="M155.3,385.2c-0.4,0.4-1,0.6-1.7,0.6c-0.8,0-1.4-0.2-1.9-0.9v0.8h-1v-10h1v3.9c0.6-0.7,1.2-0.9,1.9-0.9
		s1.3,0.2,1.7,0.6c0.7,0.7,0.8,1.8,0.8,2.9C156.2,383.4,156,384.5,155.3,385.2z M153.5,379.7c-1.5,0-1.7,1.3-1.7,2.6
		c0,1.3,0.2,2.6,1.7,2.6s1.7-1.3,1.7-2.6S155,379.7,153.5,379.7z"/>
</g>
<line class="st5" x1="82.3" y1="281.7" x2="417.2" y2="281.7"/>
<line class="st5" x1="90.6" y1="321.5" x2="407.3" y2="321.5"/>
<line class="st5" x1="90.6" y1="364.5" x2="407.3" y2="364.5"/>
<line class="st5" x1="90.6" y1="401.8" x2="407.3" y2="401.8"/>
<polyline class="st6" points="370.4,348.1 377.9,353.4 394.1,334.8 "/>
<path class="st7" d="M356.9,341.3v-4.1c0-4.5-3.7-8.2-8.2-8.2s-8.2,3.7-8.2,8.2v4.1H339v15h19.4v-15H356.9z M342.6,337.2
	c0-3.3,2.7-6,6-6s6,2.7,6,6v4.1h-12V337.2z"/>
<line class="st5" x1="81.1" y1="281.7" x2="308.7" y2="281.7"/>
<circle class="st8" cx="94.5" cy="271.8" r="3.4"/>
<circle class="st8" cx="107.1" cy="271.8" r="3.4"/>
<circle class="st8" cx="118.8" cy="271.8" r="3.4"/>
<rect x="17.5" y="148" class="st2" width="315.8" height="62.2"/>
<rect x="22.5" y="48.4" class="st3" width="172.7" height="91"/>
<g class="st9">
	<path class="st4" d="M27.8,50.4v8.1h-1.9v-8.1h-3.1v-1.8h8.2v1.8H27.8z"/>
	<path class="st4" d="M33.9,51.4c0.5,0,1,0.1,1.4,0.3c0.4,0.2,0.8,0.4,1.1,0.8c0.3,0.3,0.6,0.7,0.8,1.2c0.2,0.4,0.3,0.9,0.3,1.5
		c0,0.5-0.1,1-0.3,1.5c-0.2,0.4-0.4,0.8-0.8,1.2c-0.3,0.3-0.7,0.6-1.1,0.8c-0.4,0.2-0.9,0.3-1.4,0.3s-1-0.1-1.4-0.3
		c-0.4-0.2-0.8-0.4-1.1-0.8c-0.3-0.3-0.6-0.7-0.8-1.2c-0.2-0.4-0.3-0.9-0.3-1.5c0-0.5,0.1-1,0.3-1.5s0.4-0.8,0.8-1.2
		c0.3-0.3,0.7-0.6,1.1-0.8C32.9,51.5,33.4,51.4,33.9,51.4z M33.9,57c0.2,0,0.4,0,0.7-0.1c0.2-0.1,0.4-0.2,0.6-0.4
		c0.2-0.2,0.3-0.4,0.4-0.6c0.1-0.2,0.1-0.5,0.1-0.9c0-0.3,0-0.6-0.1-0.9c-0.1-0.2-0.2-0.4-0.4-0.6c-0.2-0.2-0.3-0.3-0.6-0.4
		c-0.2-0.1-0.4-0.1-0.7-0.1s-0.4,0-0.7,0.1c-0.2,0.1-0.4,0.2-0.6,0.4c-0.2,0.2-0.3,0.4-0.4,0.6c-0.1,0.2-0.1,0.5-0.1,0.9
		c0,0.3,0,0.6,0.1,0.9c0.1,0.2,0.2,0.4,0.4,0.6c0.2,0.2,0.3,0.3,0.6,0.4C33.4,57,33.7,57,33.9,57z"/>
</g>
<g class="st9">
	<path class="st4" d="M46,49.9h1l3.4,8.6h-1.1l-1-2.6h-3.5l-1,2.6h-1.1L46,49.9z M46.5,51.3l-1.4,3.7h2.8L46.5,51.3z"/>
	<path class="st4" d="M52.7,49.4v9.1h-1v-9.1H52.7z"/>
	<path class="st4" d="M55.6,49.9c0.1,0.1,0.2,0.3,0.2,0.5s-0.1,0.3-0.2,0.5s-0.3,0.2-0.5,0.2c-0.2,0-0.3-0.1-0.5-0.2
		c-0.1-0.1-0.2-0.3-0.2-0.5s0.1-0.3,0.2-0.5c0.1-0.1,0.3-0.2,0.5-0.2C55.3,49.7,55.4,49.8,55.6,49.9z M55.6,52.3v6.2h-1v-6.2H55.6z"
		/>
	<path class="st4" d="M57.8,57.7c-0.5-0.6-0.8-1.4-0.8-2.3c0-1,0.3-1.7,0.8-2.3c0.5-0.6,1.2-0.9,2-0.9c0.7,0,1.2,0.2,1.7,0.5
		c0.4,0.4,0.7,0.8,0.8,1.5h-1.1c-0.1-0.3-0.2-0.6-0.5-0.8c-0.2-0.2-0.6-0.3-0.9-0.3c-0.5,0-1,0.2-1.3,0.6c-0.3,0.4-0.5,1-0.5,1.7
		c0,0.7,0.2,1.2,0.5,1.7c0.3,0.4,0.7,0.6,1.3,0.6c0.4,0,0.7-0.1,0.9-0.3c0.2-0.2,0.4-0.5,0.5-0.8h1.1c-0.1,0.6-0.4,1.1-0.8,1.5
		c-0.4,0.4-1,0.5-1.7,0.5C59,58.6,58.3,58.3,57.8,57.7z"/>
	<path class="st4" d="M67.6,56.6h1c-0.1,0.6-0.4,1.1-0.8,1.4s-1,0.5-1.7,0.5c-0.8,0-1.5-0.3-2.1-0.9s-0.8-1.4-0.8-2.3
		c0-0.9,0.3-1.7,0.8-2.3c0.5-0.6,1.2-0.9,2-0.9c0.8,0,1.5,0.3,1.9,0.8c0.5,0.6,0.7,1.3,0.7,2.2v0.4h-4.4c0,0.7,0.2,1.2,0.5,1.6
		c0.3,0.4,0.8,0.6,1.3,0.6c0.4,0,0.7-0.1,1-0.3S67.5,57,67.6,56.6z M66.1,53.1c-0.5,0-0.9,0.2-1.2,0.5c-0.3,0.3-0.5,0.7-0.6,1.3h3.3
		c0-0.5-0.1-0.9-0.4-1.2C67,53.2,66.6,53.1,66.1,53.1z"/>
</g>
<g class="st9">
	<path class="st4" d="M28.5,88.3c0-0.1-0.1-0.3-0.1-0.5c-0.1-0.2-0.2-0.3-0.3-0.5c-0.1-0.1-0.3-0.3-0.5-0.3
		c-0.2-0.1-0.5-0.1-0.8-0.1c-0.2,0-0.4,0-0.6,0.1c-0.2,0.1-0.4,0.2-0.5,0.3c-0.1,0.1-0.2,0.2-0.3,0.4s-0.1,0.3-0.1,0.5
		c0,0.3,0.1,0.5,0.3,0.7c0.2,0.2,0.4,0.3,0.8,0.4l1.4,0.3c0.4,0.1,0.8,0.2,1.2,0.4c0.3,0.2,0.6,0.4,0.9,0.7s0.4,0.5,0.5,0.9
		c0.1,0.3,0.2,0.6,0.2,1c0,0.4-0.1,0.8-0.2,1.1c-0.2,0.4-0.4,0.7-0.7,1c-0.3,0.3-0.7,0.5-1.1,0.7c-0.4,0.2-1,0.3-1.5,0.3
		c-0.7,0-1.2-0.1-1.7-0.3s-0.9-0.4-1.2-0.7c-0.3-0.3-0.6-0.6-0.7-1c-0.2-0.4-0.3-0.7-0.3-1.1l1.8-0.5c0,0.2,0.1,0.5,0.2,0.7
		c0.1,0.2,0.2,0.4,0.4,0.6s0.4,0.3,0.7,0.4s0.6,0.2,0.9,0.2c0.5,0,0.9-0.1,1.2-0.3c0.3-0.2,0.4-0.5,0.4-0.9c0-0.3-0.1-0.5-0.3-0.7
		c-0.2-0.2-0.5-0.4-0.9-0.4l-1.4-0.3c-0.8-0.2-1.4-0.5-1.9-1s-0.7-1.1-0.7-1.9c0-0.4,0.1-0.8,0.3-1.2c0.2-0.4,0.4-0.7,0.7-1
		c0.3-0.3,0.7-0.5,1.1-0.7c0.4-0.2,0.9-0.2,1.3-0.2c0.6,0,1.1,0.1,1.5,0.2c0.4,0.2,0.8,0.4,1.1,0.6c0.3,0.3,0.5,0.5,0.7,0.8
		c0.2,0.3,0.3,0.6,0.3,0.9L28.5,88.3z"/>
	<path class="st4" d="M36.2,95.3c0-0.1,0-0.2,0-0.3c0-0.1,0-0.3,0-0.4c-0.2,0.3-0.5,0.6-0.8,0.7s-0.7,0.2-1.1,0.2
		c-0.4,0-0.8-0.1-1.1-0.2c-0.3-0.1-0.6-0.3-0.8-0.6c-0.2-0.2-0.4-0.5-0.5-0.9c-0.1-0.3-0.2-0.7-0.2-1.1v-4.4h1.9v4
		c0,0.4,0.1,0.7,0.3,1c0.2,0.3,0.5,0.4,1,0.4c0.4,0,0.7-0.1,1-0.4c0.2-0.3,0.3-0.6,0.3-1v-4h1.9v5.6c0,0.3,0,0.5,0,0.7
		c0,0.2,0,0.4,0,0.5H36.2z"/>
	<path class="st4" d="M39.9,95.3V85.2h1.8v4c0.2-0.2,0.4-0.5,0.8-0.7s0.8-0.3,1.3-0.3c0.5,0,1,0.1,1.3,0.3c0.4,0.2,0.7,0.4,1,0.8
		s0.5,0.7,0.6,1.1c0.1,0.4,0.2,0.9,0.2,1.4c0,0.5-0.1,1-0.2,1.4c-0.2,0.4-0.4,0.8-0.7,1.2c-0.3,0.3-0.6,0.6-1,0.8
		c-0.4,0.2-0.8,0.3-1.3,0.3c-0.5,0-0.9-0.1-1.2-0.3s-0.6-0.4-0.8-0.7v0.8H39.9z M45.2,91.8c0-0.6-0.2-1.1-0.5-1.4
		c-0.3-0.3-0.7-0.5-1.2-0.5c-0.2,0-0.5,0-0.7,0.1s-0.4,0.2-0.5,0.4c-0.2,0.2-0.3,0.4-0.4,0.6c-0.1,0.2-0.1,0.5-0.1,0.8
		c0,0.3,0,0.6,0.1,0.8c0.1,0.2,0.2,0.4,0.4,0.6s0.3,0.3,0.5,0.4s0.4,0.1,0.7,0.1c0.5,0,0.9-0.2,1.2-0.5C45,93,45.2,92.5,45.2,91.8z"
		/>
	<path class="st4" d="M48.5,88.4h1.9v7.5c0,0.3,0,0.6-0.1,0.9s-0.2,0.5-0.4,0.7c-0.2,0.2-0.4,0.4-0.7,0.5s-0.6,0.2-0.9,0.2
		c-0.3,0-0.5,0-0.7-0.1c-0.2,0-0.3-0.1-0.4-0.1v-1.6c0.1,0,0.1,0,0.2,0s0.2,0,0.3,0c0.3,0,0.5-0.1,0.6-0.2s0.2-0.3,0.2-0.6V88.4z
		 M48.3,86.1c0-0.3,0.1-0.6,0.3-0.8c0.2-0.2,0.5-0.3,0.8-0.3c0.3,0,0.6,0.1,0.8,0.3c0.2,0.2,0.3,0.5,0.3,0.8c0,0.3-0.1,0.6-0.3,0.8
		c-0.2,0.2-0.5,0.3-0.8,0.3c-0.3,0-0.6-0.1-0.8-0.3C48.4,86.7,48.3,86.5,48.3,86.1z"/>
	<path class="st4" d="M58.5,93.3c-0.1,0.3-0.2,0.6-0.4,0.8s-0.4,0.5-0.7,0.7c-0.3,0.2-0.6,0.4-0.9,0.5c-0.4,0.1-0.7,0.2-1.2,0.2
		c-0.5,0-0.9-0.1-1.4-0.2s-0.8-0.4-1.1-0.7s-0.6-0.7-0.8-1.2c-0.2-0.5-0.3-1-0.3-1.6c0-0.6,0.1-1.1,0.3-1.5c0.2-0.4,0.4-0.8,0.7-1.1
		c0.3-0.3,0.7-0.6,1.1-0.7s0.8-0.3,1.3-0.3c1.1,0,1.9,0.3,2.5,1c0.6,0.6,0.9,1.5,0.9,2.6c0,0.1,0,0.3,0,0.4c0,0.1,0,0.2,0,0.2h-4.9
		c0,0.2,0.1,0.4,0.2,0.6c0.1,0.2,0.2,0.4,0.4,0.5c0.2,0.1,0.3,0.2,0.5,0.3c0.2,0.1,0.4,0.1,0.7,0.1c0.4,0,0.8-0.1,1-0.3
		c0.2-0.2,0.4-0.4,0.5-0.8L58.5,93.3z M56.8,91.1c0-0.2,0-0.3-0.1-0.5c-0.1-0.2-0.2-0.3-0.3-0.4s-0.3-0.2-0.5-0.3s-0.4-0.1-0.7-0.1
		c-0.2,0-0.5,0-0.6,0.1c-0.2,0.1-0.3,0.2-0.5,0.3s-0.2,0.3-0.3,0.4c-0.1,0.2-0.1,0.3-0.1,0.5H56.8z"/>
	<path class="st4" d="M63.2,89.9c-0.2,0-0.5,0-0.7,0.1s-0.4,0.2-0.6,0.4s-0.3,0.4-0.4,0.6c-0.1,0.2-0.1,0.5-0.1,0.8
		c0,0.3,0,0.6,0.1,0.8c0.1,0.2,0.2,0.4,0.4,0.6c0.2,0.2,0.4,0.3,0.6,0.4s0.4,0.1,0.7,0.1c0.2,0,0.4,0,0.6-0.1
		c0.2-0.1,0.3-0.2,0.5-0.3s0.2-0.2,0.3-0.4c0.1-0.1,0.1-0.3,0.2-0.4l1.6,0.5c-0.1,0.3-0.2,0.6-0.4,0.8c-0.2,0.3-0.4,0.5-0.7,0.7
		c-0.3,0.2-0.6,0.4-1,0.5c-0.4,0.1-0.8,0.2-1.2,0.2c-0.5,0-1-0.1-1.4-0.3c-0.4-0.2-0.8-0.4-1.2-0.8c-0.3-0.3-0.6-0.7-0.8-1.2
		c-0.2-0.4-0.3-0.9-0.3-1.5c0-0.5,0.1-1,0.3-1.5s0.4-0.8,0.8-1.2c0.3-0.3,0.7-0.6,1.1-0.8c0.4-0.2,0.9-0.3,1.4-0.3
		c0.5,0,0.9,0.1,1.3,0.2c0.4,0.1,0.7,0.3,1,0.5c0.3,0.2,0.5,0.5,0.7,0.7s0.3,0.6,0.4,0.9l-1.7,0.6c-0.1-0.3-0.2-0.6-0.5-0.8
		C64,90,63.6,89.9,63.2,89.9z"/>
	<path class="st4" d="M70.1,88.4h1.4v1.7h-1.4V93c0,0.3,0.1,0.5,0.2,0.6c0.1,0.1,0.3,0.2,0.6,0.2c0.1,0,0.2,0,0.3,0
		c0.1,0,0.2,0,0.2,0v1.5c-0.1,0-0.2,0.1-0.4,0.1c-0.2,0-0.4,0.1-0.7,0.1c-0.7,0-1.2-0.2-1.6-0.6c-0.4-0.4-0.6-0.9-0.6-1.6v-3.2H67
		v-1.7h0.4c0.4,0,0.6-0.1,0.8-0.3c0.2-0.2,0.3-0.5,0.3-0.8v-1h1.7V88.4z"/>
</g>
<g class="st9">
	<path class="st4" d="M79.5,91.9h-2.1v3.4h-1.1v-8.6h3.2c0.9,0,1.6,0.2,2.1,0.7c0.5,0.4,0.7,1.1,0.7,1.9c0,0.8-0.3,1.5-0.8,1.9
		C81.1,91.6,80.4,91.9,79.5,91.9z M81.2,89.3c0-0.5-0.2-0.9-0.5-1.2c-0.3-0.3-0.7-0.4-1.3-0.4h-2.1v3.2h2.1c0.6,0,1-0.1,1.3-0.4
		C81.1,90.2,81.2,89.8,81.2,89.3z"/>
	<path class="st4" d="M84.8,86.2v9.1h-1v-9.1H84.8z"/>
	<path class="st4" d="M91.1,95.3h-1v-0.5c-0.1,0.1-0.4,0.3-0.7,0.4c-0.3,0.1-0.6,0.2-1,0.2c-0.7,0-1.2-0.2-1.6-0.5
		c-0.4-0.4-0.7-0.8-0.7-1.4c0-0.6,0.2-1,0.7-1.4c0.5-0.4,1-0.5,1.7-0.5c0.3,0,0.6,0.1,0.9,0.2s0.5,0.2,0.7,0.3v-0.8
		c0-0.4-0.1-0.7-0.4-1c-0.2-0.2-0.6-0.4-1-0.4c-0.7,0-1.1,0.3-1.3,0.9h-1c0.1-0.5,0.4-0.9,0.8-1.3c0.4-0.3,0.9-0.5,1.5-0.5
		c0.7,0,1.3,0.2,1.7,0.6c0.4,0.4,0.6,0.9,0.6,1.6V95.3z M90.1,93.8v-0.6c-0.1-0.2-0.3-0.4-0.6-0.6c-0.3-0.1-0.6-0.2-0.9-0.2
		c-0.4,0-0.8,0.1-1,0.3c-0.3,0.2-0.4,0.5-0.4,0.8c0,0.4,0.1,0.6,0.4,0.8c0.3,0.2,0.6,0.3,1,0.3c0.3,0,0.6-0.1,0.9-0.2
		C89.9,94.2,90,94,90.1,93.8z"/>
	<path class="st4" d="M92.9,95.3v-6.2h1v0.8c0.2-0.3,0.5-0.5,0.8-0.7c0.3-0.2,0.7-0.3,1.1-0.3c0.7,0,1.2,0.2,1.6,0.6
		c0.4,0.4,0.6,1,0.6,1.7v4.1h-1.1v-3.9c0-0.4-0.1-0.8-0.3-1.1c-0.2-0.3-0.6-0.4-1-0.4c-0.4,0-0.7,0.1-1,0.3
		c-0.3,0.2-0.5,0.5-0.6,0.8v4.2H92.9z"/>
	<path class="st4" d="M106,86.2v1c-0.2-0.1-0.4-0.2-0.7-0.2c-0.3,0-0.6,0.1-0.7,0.3c-0.2,0.2-0.3,0.5-0.3,0.8v1h1.4V90h-1.4v5.3h-1
		V90h-1.1v-0.9h1.1v-1c0-0.6,0.2-1.1,0.5-1.4c0.4-0.4,0.8-0.5,1.4-0.5C105.5,86.1,105.8,86.1,106,86.2z"/>
	<path class="st4" d="M111.3,89.9c0.5,0.6,0.8,1.4,0.8,2.3c0,1-0.3,1.7-0.8,2.3c-0.5,0.6-1.2,0.9-2.1,0.9c-0.8,0-1.5-0.3-2.1-0.9
		c-0.5-0.6-0.8-1.4-0.8-2.3c0-1,0.3-1.7,0.8-2.3c0.5-0.6,1.2-0.9,2.1-0.9C110.1,89,110.8,89.3,111.3,89.9z M110.5,93.9
		c0.3-0.4,0.5-1,0.5-1.7c0-0.7-0.2-1.2-0.5-1.7c-0.3-0.4-0.8-0.6-1.3-0.6c-0.6,0-1,0.2-1.3,0.6c-0.3,0.4-0.5,1-0.5,1.7
		c0,0.7,0.2,1.2,0.5,1.7c0.3,0.4,0.8,0.6,1.3,0.6C109.8,94.5,110.2,94.3,110.5,93.9z"/>
	<path class="st4" d="M116.7,89.1v1.1c-0.2-0.1-0.4-0.2-0.7-0.2c-0.3,0-0.6,0.1-0.9,0.3c-0.3,0.2-0.4,0.5-0.5,0.9v4.2h-1v-6.2h1v0.8
		c0.1-0.3,0.3-0.5,0.6-0.7c0.3-0.2,0.6-0.3,0.9-0.3C116.4,89,116.6,89,116.7,89.1z"/>
	<path class="st4" d="M121.1,95.3v-6.2h1v0.8c0.2-0.3,0.5-0.5,0.8-0.7c0.3-0.2,0.7-0.3,1.1-0.3c0.7,0,1.2,0.2,1.6,0.6
		c0.4,0.4,0.6,1,0.6,1.7v4.1h-1.1v-3.9c0-0.4-0.1-0.8-0.3-1.1c-0.2-0.3-0.6-0.4-1-0.4c-0.4,0-0.7,0.1-1,0.3
		c-0.3,0.2-0.5,0.5-0.6,0.8v4.2H121.1z"/>
	<path class="st4" d="M131.9,93.4h1c-0.1,0.6-0.4,1.1-0.8,1.4s-1,0.5-1.7,0.5c-0.8,0-1.5-0.3-2.1-0.9s-0.8-1.4-0.8-2.3
		c0-0.9,0.3-1.7,0.8-2.3c0.5-0.6,1.2-0.9,2-0.9c0.8,0,1.5,0.3,1.9,0.8c0.5,0.6,0.7,1.3,0.7,2.2v0.4h-4.4c0,0.7,0.2,1.2,0.5,1.6
		c0.3,0.4,0.8,0.6,1.3,0.6c0.4,0,0.7-0.1,1-0.3S131.8,93.8,131.9,93.4z M130.3,89.9c-0.5,0-0.9,0.2-1.2,0.5
		c-0.3,0.3-0.5,0.7-0.6,1.3h3.3c0-0.5-0.1-0.9-0.4-1.2C131.2,90,130.8,89.9,130.3,89.9z"/>
	<path class="st4" d="M139.2,89.1l-2.2,3l2.3,3.2h-1.2l-1.7-2.4l-1.7,2.4h-1.1l2.3-3.2l-2.2-3h1.2l1.6,2.2l1.6-2.2H139.2z"/>
	<path class="st4" d="M140.8,93.7V90h-1v-0.9h1v-1.6h1.1v1.6h1.5V90h-1.5v3.6c0,0.6,0.3,0.9,0.8,0.9c0.3,0,0.6-0.1,0.8-0.3v1
		c-0.3,0.1-0.6,0.2-1,0.2c-0.5,0-0.9-0.1-1.2-0.4C140.9,94.7,140.8,94.3,140.8,93.7z"/>
	<path class="st4" d="M152,89.1l1.3,4.7l1.4-4.7h1l-1.8,6.2h-1l-1.3-4.7l-1.3,4.7h-1l-1.8-6.2h1l1.4,4.7l1.3-4.7H152z"/>
	<path class="st4" d="M160.7,93.4h1c-0.1,0.6-0.4,1.1-0.8,1.4s-1,0.5-1.7,0.5c-0.8,0-1.5-0.3-2.1-0.9s-0.8-1.4-0.8-2.3
		c0-0.9,0.3-1.7,0.8-2.3c0.5-0.6,1.2-0.9,2-0.9c0.8,0,1.5,0.3,1.9,0.8c0.5,0.6,0.7,1.3,0.7,2.2v0.4h-4.4c0,0.7,0.2,1.2,0.5,1.6
		c0.3,0.4,0.8,0.6,1.3,0.6c0.4,0,0.7-0.1,1-0.3S160.7,93.8,160.7,93.4z M159.2,89.9c-0.5,0-0.9,0.2-1.2,0.5
		c-0.3,0.3-0.5,0.7-0.6,1.3h3.3c0-0.5-0.1-0.9-0.4-1.2C160.1,90,159.7,89.9,159.2,89.9z"/>
	<path class="st4" d="M167.2,93.4h1c-0.1,0.6-0.4,1.1-0.8,1.4s-1,0.5-1.7,0.5c-0.8,0-1.5-0.3-2.1-0.9s-0.8-1.4-0.8-2.3
		c0-0.9,0.3-1.7,0.8-2.3c0.5-0.6,1.2-0.9,2-0.9c0.8,0,1.5,0.3,1.9,0.8c0.5,0.6,0.7,1.3,0.7,2.2v0.4h-4.4c0,0.7,0.2,1.2,0.5,1.6
		c0.3,0.4,0.8,0.6,1.3,0.6c0.4,0,0.7-0.1,1-0.3S167.1,93.8,167.2,93.4z M165.6,89.9c-0.5,0-0.9,0.2-1.2,0.5
		c-0.3,0.3-0.5,0.7-0.6,1.3h3.3c0-0.5-0.1-0.9-0.4-1.2C166.5,90,166.1,89.9,165.6,89.9z"/>
	<path class="st4" d="M173.7,95.3l-2.4-2.9l-0.7,0.6v2.2h-1v-9.1h1v5.6l2.8-2.8h1.4l-2.8,2.7l2.9,3.5H173.7z"/>
</g>
<g class="st9">
	<path class="st4" d="M23.6,132.1v-9.9h6.3v1.8h-4.3v2.5h3.9v1.8h-3.9v3.9H23.6z"/>
	<path class="st4" d="M35,127.1c-0.2,0-0.4-0.1-0.6-0.1c-0.2,0-0.5,0-0.7,0.1c-0.2,0.1-0.4,0.2-0.6,0.3c-0.2,0.1-0.3,0.3-0.4,0.6
		s-0.1,0.6-0.1,0.9v3.2h-1.9v-6.9h1.8v1c0.1-0.2,0.2-0.4,0.4-0.6c0.2-0.1,0.3-0.3,0.5-0.3c0.2-0.1,0.4-0.1,0.5-0.2
		c0.2,0,0.3,0,0.5,0c0.1,0,0.1,0,0.2,0c0.1,0,0.1,0,0.2,0V127.1z"/>
	<path class="st4" d="M39.4,125c0.5,0,1,0.1,1.4,0.3c0.4,0.2,0.8,0.4,1.1,0.8c0.3,0.3,0.6,0.7,0.8,1.2c0.2,0.4,0.3,0.9,0.3,1.5
		c0,0.5-0.1,1-0.3,1.5c-0.2,0.4-0.4,0.8-0.8,1.2c-0.3,0.3-0.7,0.6-1.1,0.8c-0.4,0.2-0.9,0.3-1.4,0.3s-1-0.1-1.4-0.3
		c-0.4-0.2-0.8-0.4-1.1-0.8c-0.3-0.3-0.6-0.7-0.8-1.2c-0.2-0.4-0.3-0.9-0.3-1.5c0-0.5,0.1-1,0.3-1.5s0.4-0.8,0.8-1.2
		c0.3-0.3,0.7-0.6,1.1-0.8C38.4,125.1,38.9,125,39.4,125z M39.4,130.6c0.2,0,0.4,0,0.7-0.1c0.2-0.1,0.4-0.2,0.6-0.4
		c0.2-0.2,0.3-0.4,0.4-0.6c0.1-0.2,0.1-0.5,0.1-0.9c0-0.3,0-0.6-0.1-0.9c-0.1-0.2-0.2-0.4-0.4-0.6c-0.2-0.2-0.3-0.3-0.6-0.4
		c-0.2-0.1-0.4-0.1-0.7-0.1s-0.4,0-0.7,0.1c-0.2,0.1-0.4,0.2-0.6,0.4c-0.2,0.2-0.3,0.4-0.4,0.6c-0.1,0.2-0.1,0.5-0.1,0.9
		c0,0.3,0,0.6,0.1,0.9c0.1,0.2,0.2,0.4,0.4,0.6c0.2,0.2,0.3,0.3,0.6,0.4C38.9,130.6,39.2,130.6,39.4,130.6z"/>
	<path class="st4" d="M44.5,132.1v-6.9h1.8v0.8c0.1-0.2,0.2-0.3,0.4-0.4c0.1-0.1,0.3-0.2,0.5-0.3c0.2-0.1,0.4-0.1,0.6-0.2
		s0.4-0.1,0.6-0.1c0.5,0,0.9,0.1,1.2,0.3c0.4,0.2,0.6,0.5,0.8,0.9c0.3-0.4,0.6-0.7,1-0.9c0.4-0.2,0.8-0.3,1.2-0.3
		c0.3,0,0.6,0,0.9,0.1c0.3,0.1,0.6,0.3,0.8,0.5s0.4,0.5,0.6,0.8c0.1,0.3,0.2,0.7,0.2,1.2v4.5h-1.8V128c0-0.4-0.1-0.7-0.3-0.9
		c-0.2-0.2-0.5-0.4-0.9-0.4c-0.4,0-0.7,0.1-0.9,0.4c-0.2,0.3-0.3,0.6-0.3,1v4h-1.8V128c0-0.4-0.1-0.7-0.3-0.9
		c-0.2-0.2-0.5-0.4-0.9-0.4c-0.4,0-0.7,0.1-1,0.4c-0.2,0.3-0.3,0.6-0.3,1v4H44.5z"/>
</g>
<g class="st9">
	<path class="st4" d="M64.9,127.7c0.5,0.1,0.8,0.4,1.1,0.7c0.3,0.4,0.4,0.8,0.4,1.3c0,0.8-0.3,1.4-0.8,1.8s-1.2,0.6-2.1,0.6h-3.1
		v-8.6h2.8c0.9,0,1.6,0.2,2.1,0.6c0.5,0.4,0.7,1,0.7,1.7c0,0.5-0.1,0.9-0.4,1.2C65.5,127.3,65.2,127.5,64.9,127.7z M61.6,127.2h1.8
		c1.2,0,1.8-0.5,1.8-1.4c0-0.9-0.6-1.4-1.8-1.4h-1.8V127.2z M61.6,128.2v3h2c0.6,0,1-0.1,1.3-0.4c0.3-0.3,0.5-0.6,0.5-1.1
		c0-0.5-0.2-0.8-0.5-1.1c-0.3-0.3-0.7-0.4-1.3-0.4H61.6z"/>
	<path class="st4" d="M72.4,126.7c0.5,0.6,0.8,1.4,0.8,2.3c0,1-0.3,1.7-0.8,2.3c-0.5,0.6-1.2,0.9-2.1,0.9c-0.8,0-1.5-0.3-2.1-0.9
		c-0.5-0.6-0.8-1.4-0.8-2.3c0-1,0.3-1.7,0.8-2.3c0.5-0.6,1.2-0.9,2.1-0.9C71.2,125.8,71.9,126.1,72.4,126.7z M71.7,130.7
		c0.3-0.4,0.5-1,0.5-1.7c0-0.7-0.2-1.2-0.5-1.7c-0.3-0.4-0.8-0.6-1.3-0.6c-0.6,0-1,0.2-1.3,0.6c-0.3,0.4-0.5,1-0.5,1.7
		c0,0.7,0.2,1.2,0.5,1.7c0.3,0.4,0.8,0.6,1.3,0.6C70.9,131.3,71.4,131.1,71.7,130.7z"/>
	<path class="st4" d="M75.7,131.4v0.7h-1.1V123h1.1v3.6c0.2-0.2,0.4-0.4,0.7-0.6s0.7-0.2,1-0.2c0.9,0,1.6,0.3,2.1,0.9
		c0.5,0.6,0.7,1.4,0.7,2.3c0,0.9-0.2,1.7-0.7,2.3s-1.2,0.9-2.1,0.9c-0.4,0-0.7-0.1-1-0.2S75.9,131.6,75.7,131.4z M75.7,127.7v2.5
		c0.2,0.3,0.4,0.6,0.7,0.7c0.3,0.2,0.6,0.3,0.9,0.3c0.6,0,1-0.2,1.4-0.6s0.5-1,0.5-1.6c0-0.7-0.2-1.2-0.5-1.6s-0.8-0.6-1.4-0.6
		c-0.3,0-0.6,0.1-0.9,0.3C76.1,127.2,75.9,127.4,75.7,127.7z"/>
</g>
<line class="st10" x1="17.5" y1="67.7" x2="334.2" y2="67.7"/>
<line class="st10" x1="17.5" y1="110.7" x2="334.2" y2="110.7"/>
<line class="st10" x1="17.5" y1="148" x2="334.2" y2="148"/>
<path class="st11" d="M282.7,87.7v-3.6c0-3.9-3.2-7.1-7.1-7.1s-7.1,3.2-7.1,7.1v3.6h-1.3v13.1H284V87.7H282.7z M270.3,84.1
	c0-2.9,2.3-5.2,5.2-5.2c2.9,0,5.2,2.3,5.2,5.2v3.6h-10.5L270.3,84.1L270.3,84.1z"/>
<line class="st10" x1="8" y1="27.9" x2="343.2" y2="27.9"/>
<circle class="st12" cx="21.5" cy="18" r="3.4"/>
<circle class="st12" cx="34" cy="18" r="3.4"/>
<circle class="st12" cx="45.7" cy="18" r="3.4"/>
<rect x="7.7" y="6.9" class="st13" width="336.2" height="208"/>
<polyline class="st14" points="8.1,214.3 343.2,214.3 343.2,6.6 "/>
<g>
	<path class="st11" d="M307.7,99.4l-9.2-6.5c-0.2-0.1-0.2-0.4-0.1-0.6s0.4-0.2,0.6-0.1l8.6,6.1l16.5-18.9c0.1-0.2,0.4-0.2,0.6,0
		c0.2,0.1,0.2,0.4,0,0.6L307.7,99.4z"/>
</g>
</svg>
