<?xml version="1.0" encoding="utf-8"?>
<!-- Generator: Adobe Illustrator 19.1.0, SVG Export Plug-In . SVG Version: 6.00 Build 0)  -->
<svg version="1.1" preserveAspectRatio="xMinYMid" id="Layer_1" xmlns="http://www.w3.org/2000/svg" xmlns:xlink="http://www.w3.org/1999/xlink" x="0px" y="0px"
	 viewBox="0 0 483 315" style="enable-background:new 0 0 483 315;" xml:space="preserve">
<style type="text/css">
	.st0{fill:#ECECEC;stroke:#1D1D1B;stroke-width:0.25;stroke-miterlimit:10;}
	.st1{fill:none;stroke:#1D1D1B;stroke-miterlimit:10;}
	.st2{fill:#FFFFFF;stroke:#1D1D1B;stroke-width:0.5;stroke-miterlimit:10;}
	.st3{fill:#ECECEC;}
	.st4{fill:none;stroke:#3A50A2;stroke-miterlimit:10;}
	.st5{fill:none;stroke:#3A50A2;stroke-miterlimit:10;stroke-dasharray:2.0238,2.0238;}
	.st6{fill:none;stroke:#3A50A2;stroke-miterlimit:10;stroke-dasharray:2.0171,2.0171;}
	.st7{fill:none;stroke:#3A50A2;stroke-miterlimit:10;stroke-dasharray:1.9287,1.9287;}
	.st8{fill:none;stroke:#3A50A2;stroke-miterlimit:10;stroke-dasharray:1.929,1.929;}
	.st9{fill:none;stroke:#3A50A2;stroke-miterlimit:10;stroke-dasharray:2.0063,2.0063;}
	.st10{fill:none;stroke:#3A50A2;stroke-miterlimit:10;stroke-dasharray:2.0174,2.0174;}
	.st11{fill:none;stroke:#3A50A2;stroke-miterlimit:10;stroke-dasharray:2.008,2.008;}
	.st12{fill:none;stroke:#3A50A2;stroke-miterlimit:10;stroke-dasharray:1.993,1.993;}
	.st13{fill:none;stroke:#3A50A2;stroke-miterlimit:10;stroke-dasharray:1.8801,1.8801;}
	.st14{fill:none;stroke:#3A50A2;stroke-miterlimit:10;stroke-dasharray:1.88,1.88;}
	.st15{fill:none;stroke:#3A50A2;stroke-miterlimit:10;stroke-dasharray:2.0372,2.0372;}
	.st16{fill:none;stroke:#3A50A2;stroke-miterlimit:10;stroke-dasharray:1.9587,1.9587;}
	.st17{fill:none;stroke:#3A50A2;stroke-width:0.75;stroke-miterlimit:10;stroke-dasharray:3;}
	.st18{fill:none;stroke:#3A50A2;stroke-miterlimit:10;stroke-dasharray:3;}
	.st19{fill:#3A50A2;}
	.st20{fill:#FFFFFF;stroke:#1D1D1B;stroke-width:0.7667;stroke-miterlimit:10;}
	.st21{fill:#FFFFFF;}
	.st22{fill:#1D1D1B;}
	.st23{fill:none;stroke:#1D1D1B;stroke-width:0.4985;stroke-miterlimit:10;}
</style>
<circle class="st0" cx="356.9" cy="169.6" r="4.8"/>
<line class="st1" x1="483" y1="291.9" x2="0" y2="291.9"/>
<ellipse class="st2" cx="86" cy="309.8" rx="29.8" ry="4.9"/>
<g>
	<path class="st3" d="M178.5,119.6c0,0-0.1,0-0.2,0c-1,0-1.8,0-2.7,0c-4.6-0.1-8-3.6-8-8.2c0-22,0-43.9,0-65.9
		c0-4.6,3.5-8.2,8.2-8.2c3.4,0,6.8,0,10.2,0c19.7,0,39.3,0,59,0c5.6,0,8.9,3.3,8.9,8.9c0,21.5-0.1,43,0.1,64.4c0,5.6-4.3,9.5-9.1,9
		c-0.6-0.1-1.1,0-1.9,0H178.5 M177.8,64.7c0,9.3,0,18.4,0,27.7c-1,0-2,0-2.9,0c0,1.3,0,2.4,0,3.7c1,0,1.9,0,3,0c0,4.5,0,8.8,0,13.2
		c22,0,43.8,0,65.6,0c0-20.6,0-41,0-61.4c-21.9,0-43.7,0-65.6,0c0,4.4,0,8.8,0,13.2c-1.1,0-2,0.1-3,0.1c0,1.2,0,2.3,0,3.6
		C175.9,64.7,176.8,64.7,177.8,64.7z"/>
	<path class="st2" d="M177.8,64.7c-1,0-1.9,0-2.9,0c0-1.3,0-2.4,0-3.6c1,0,2-0.1,3-0.1c0-4.4,0-8.8,0-13.2c21.9,0,43.7,0,65.6,0
		c0,20.4,0,40.9,0,61.4c-21.8,0-43.6,0-65.6,0c0-4.4,0-8.7,0-13.2c-1.1,0-2,0-3,0c0-1.3,0-2.4,0-3.7c1,0,1.9,0,2.9,0
		C177.8,83.1,177.8,74,177.8,64.7z M180.5,64.7c0,9.2,0,18.4,0,27.6c1,0,1.9,0,2.8,0c0,1.3,0,2.5,0,3.7c-1,0-1.9,0-2.8,0
		c0,3.7,0,7.2,0,10.8c20.2,0,40.3,0,60.5,0c0-19,0-37.9,0-56.7c-20.2,0-40.3,0-60.5,0c0,3.7,0,7.2,0,10.9c1,0,1.9,0.1,2.9,0.1
		c0,0.6,0,1.2,0,1.8c0,0.6,0,1.1,0,1.8C182.3,64.7,181.5,64.7,180.5,64.7z"/>
	<path class="st0" d="M180.5,64.7c1,0,1.9,0,2.9,0c0-0.7,0-1.2,0-1.8c0-0.6,0-1.1,0-1.8c-1,0-1.9-0.1-2.9-0.1c0-3.6,0-7.2,0-10.9
		c20.1,0,40.2,0,60.5,0c0,18.9,0,37.8,0,56.7c-20.1,0-40.2,0-60.5,0c0-3.6,0-7.1,0-10.8c0.9,0,1.8,0,2.8,0c0-1.3,0-2.4,0-3.7
		c-0.9,0-1.8,0-2.8,0C180.5,83.1,180.5,73.9,180.5,64.7z M228.3,84.2c3.3,0,6-2.6,6-5.7c0-3.1-2.8-5.8-6-5.7c-3.3,0-6,2.7-6,5.8
		C222.3,81.7,225,84.2,228.3,84.2z"/>
	<path class="st2" d="M228.3,84.2c-3.3,0-6-2.5-6-5.7c0-3.1,2.7-5.7,6-5.8c3.2,0,6,2.6,6,5.7C234.3,81.6,231.6,84.2,228.3,84.2z"/>
</g>
<g>
	<g>
		<g>
			<g>
				<path class="st4" d="M207.2,126.2c0.3-0.2,0.5-0.4,0.8-0.6c0.1,0.1,0.3,0.1,0.4,0.2c0.1,0.1,0.3,0.2,0.4,0.3"/>
				<path class="st5" d="M210.5,127.3c6.4,3.8,14.9,2.9,15.8-2.6c0.2-1.2,1.2-1.2,2.3-1.2c8.1,0,16.2,0,24.3,0
					c0.9,0,2.1,0.4,2.8,0.9c4.8,3.5,5.7,3.3,9.6-0.5c3.9-3.7,2.8-9-2.3-12c-0.7-0.4-1.3-1.3-1.3-2c-0.1-5.6,0-11.2-0.1-16.8
					c0-1.2,0.5-1.6,2-1.9c3.9-0.8,3.4-2.9,4.4-6c0.8-2.7-0.1-4.9-2-6.8"/>
				<path class="st4" d="M265.2,77.7c-0.2-0.2-0.5-0.4-0.8-0.6c0.3-0.2,0.5-0.5,0.7-0.7"/>
				<path class="st6" d="M266.6,75c4.5-5.1,4.3-10-3.6-12.3c-0.7-0.2-1.3-1.2-1.3-1.9c-0.1-5.1-0.1-10.1,0-15.2
					c0-0.8,0.7-1.8,1.6-2.3c3.6-2.3,5.2-5.6,4-9c-1-3-4.7-5.5-8.5-5.8c-4.7-0.4-2.6,1.1-4.7,4.4c-0.7,1.1-1.5,1.4-2.8,1.3
					c-4.9,0-9.8,0-14.6,0c-2.6,0-5.2,0-7.8,0"/>
				<path class="st4" d="M227.8,34.2c-0.3,0-0.7,0-1,0c-0.1-0.3-0.2-0.7-0.3-1"/>
				<path class="st7" d="M225.7,31.5c-3.2-5.8-11.2-6.5-16.1-3.5"/>
				<path class="st4" d="M208.8,28.5c-0.3,0.2-0.5,0.4-0.8,0.6c-0.3-0.2-0.6-0.4-0.9-0.5"/>
				<path class="st8" d="M205.5,27.7c-6.6-3.2-12.2-1.5-15.6,4.7"/>
				<path class="st4" d="M189.5,33.3c-0.1,0.3-0.3,0.6-0.4,0.9c-0.3,0-0.7,0-1,0"/>
				<path class="st9" d="M186.1,34.2c-5.9,0-11.8,0-17.7-0.1c-0.6,0-1.4-0.7-1.8-1.3c-2.4-3.3-0.5-4.9-5.2-4.3
					c-4,0.5-7.4,3.2-8.2,6.5c-0.9,3.4,1,6.8,5.1,8.5c1.4,0.6,1.6,1.3,1.6,2.3c0,3.7,0,7.4,0,11.1c0,1.1,0,2.2,0,3.4"/>
				<path class="st4" d="M159.8,61.4c0,0.3,0,0.7,0,1c-0.4,0-0.7,0.1-1,0.1"/>
				<path class="st10" d="M156.8,63c-2.2,0.8-2.8,2.4-4,5c-1.3,3-0.4,5.5,1.7,7.8"/>
				<path class="st4" d="M155.3,76.5c0.2,0.2,0.5,0.4,0.8,0.6c-0.3,0.2-0.5,0.4-0.8,0.6"/>
				<path class="st11" d="M153.9,79.2c-1.7,2.1-2.2,4.4-1,7.1c1.3,3,2,4.5,4.9,5.2"/>
				<path class="st4" d="M158.8,91.7c0.3,0,0.6,0.1,1,0.1c0,0.3,0,0.7,0,1"/>
				<path class="st12" d="M159.8,94.8c0,4.9,0,9.7,0,14.5c0,1.1-0.3,1.8-1.7,2.4c-5.2,2.3-6.7,7.4-3.6,11.3c3,3.8,3.8,5.3,8.2,2.5
					c3-1.9,5.9-2,9.3-2c4.9,0,9.8,0,14.6,0c0.2,0,0.4,0,0.6,0"/>
				<path class="st4" d="M188.2,123.5c0.3,0,0.7,0,1,0c0.1,0.3,0.1,0.7,0.2,1"/>
				<path class="st13" d="M190.2,126.2c2.8,4.5,10.3,4.4,16.2,0.5"/>
			</g>
		</g>
	</g>
	<g>
		<g>
			<g>
				<path class="st4" d="M208.8,126.1c-0.1-0.1-0.3-0.2-0.4-0.3c-0.1-0.1-0.3-0.1-0.4-0.2c-0.3,0.2-0.5,0.4-0.8,0.6"/>
				<path class="st14" d="M205.6,127.2c-6.1,3.6-13.5,3.3-15.8-1.8"/>
				<path class="st4" d="M189.5,124.5c-0.1-0.3-0.2-0.6-0.2-1c-0.3,0-0.7,0-1,0"/>
				<path class="st12" d="M186.3,123.5c-4.7,0-9.5,0-14.2,0c-3.4,0-6.3,0.1-9.3,2c-4.4,2.8-5.2,1.4-8.2-2.5c-3.1-3.9-1.6-9,3.6-11.3
					c1.4-0.6,1.7-1.3,1.7-2.4c-0.1-5.1,0-10.3,0-15.5"/>
				<path class="st4" d="M159.8,92.8c0-0.3,0-0.7,0-1c-0.4,0-0.7-0.1-1-0.1"/>
				<path class="st11" d="M156.8,91.2c-2.1-0.8-2.7-2.3-3.9-4.9c-1.3-2.9-0.6-5.5,1.7-7.8"/>
				<path class="st4" d="M155.3,77.8c0.2-0.2,0.5-0.4,0.8-0.6c-0.3-0.2-0.5-0.4-0.8-0.6"/>
				<path class="st10" d="M153.9,75c-1.7-2.1-2.2-4.4-1-7c1.3-2.9,1.8-4.6,4.9-5.3"/>
				<path class="st4" d="M158.8,62.5c0.3,0,0.6-0.1,1-0.1c0-0.3,0-0.7,0-1"/>
				<path class="st9" d="M159.8,59.4c0-0.8,0-1.6,0-2.3c0-3.7,0-7.4,0-11.1c0-1-0.2-1.7-1.6-2.3c-4.1-1.7-5.9-5.1-5.1-8.5
					c0.8-3.3,4.2-6,8.2-6.5c4.8-0.6,2.8,1,5.2,4.3c0.4,0.5,1.2,1.2,1.8,1.3c6.3,0.1,12.5,0.1,18.7,0.1"/>
				<path class="st4" d="M188.1,34.2c0.3,0,0.7,0,1,0c0.1-0.3,0.3-0.6,0.4-0.9"/>
				<path class="st8" d="M190.4,31.6c3.6-5.8,9.3-7,15.9-3.4"/>
				<path class="st4" d="M207.2,28.7c0.3,0.2,0.6,0.3,0.9,0.5c0.2-0.2,0.5-0.4,0.8-0.6"/>
				<path class="st7" d="M210.4,27.5c5.2-2.6,13-1.4,15.7,4.8"/>
				<path class="st4" d="M226.5,33.3c0.1,0.3,0.2,0.6,0.3,1c0.3,0,0.7,0,1,0"/>
				<path class="st6" d="M229.8,34.2c2.3,0,4.5,0,6.8,0c4.9,0,9.8,0,14.6,0c1.4,0,2.2-0.3,2.8-1.3c2.1-3.3-0.1-4.8,4.7-4.4
					c3.8,0.3,7.4,2.8,8.5,5.8c1.2,3.4-0.4,6.7-4,9c-0.8,0.5-1.5,1.5-1.6,2.3c-0.1,5.1-0.1,10.1,0,15.2c0,0.6,0.7,1.7,1.3,1.9
					c8.3,2.4,8.1,7.7,3,13"/>
				<path class="st4" d="M265.2,76.4c-0.2,0.2-0.5,0.5-0.7,0.7c0.3,0.2,0.5,0.4,0.8,0.6"/>
				<path class="st5" d="M266.6,79.2c1.4,1.8,2,3.8,1.3,6.1c-1,3.1-0.5,5.2-4.4,6c-1.5,0.3-2,0.7-2,1.9c0.1,5.6,0,11.2,0.1,16.8
					c0,0.7,0.6,1.6,1.3,2c5.1,3,6.2,8.2,2.3,12c-3.9,3.8-4.8,4-9.6,0.5c-0.7-0.5-1.8-0.9-2.8-0.9c-8.1-0.1-16.2,0-24.3,0
					c-1.1,0-2.1-0.1-2.3,1.2c-0.9,5.8-10.1,6.5-16.6,2.1"/>
			</g>
			<g>
				<path class="st4" d="M255.5,44.6c0-0.3,0-0.7,0-1c-0.3,0-0.7,0-1,0"/>
				<path class="st15" d="M252.4,43.6c-28.3,0-56.4,0-84.5,0"/>
				<path class="st4" d="M166.9,43.6c-0.3,0-0.7,0-1,0c0,0.3,0,0.7,0,1"/>
				<path class="st16" d="M165.9,46.5c0,21.9,0,43.8,0,65.6"/>
				<path class="st4" d="M165.9,113.1c0,0.3,0,0.7,0,1c0.3,0,0.7,0,1,0"/>
				<path class="st15" d="M168.9,114.1c28.3,0,56.4,0,84.5,0"/>
				<path class="st4" d="M254.5,114.1c0.3,0,0.7,0,1,0c0-0.3,0-0.7,0-1"/>
				<path class="st16" d="M255.5,111.2c0-21.9,0-43.7,0-65.6"/>
			</g>
		</g>
	</g>
</g>
<circle class="st17" cx="232.5" cy="61.7" r="6.9"/>
<polygon class="st17" points="170.8,108.1 170.8,59.2 201.7,98.7 201.7,67.2 249.4,108.1 "/>
<g>
	<path class="st18" d="M178.2,33.8l24.8-30.5c3-3.6,8-3.8,11.1-0.3l28.2,30.6"/>
</g>
<circle class="st19" cx="208.8" cy="4.7" r="2.5"/>
<g>
	<g>
		<line class="st20" x1="228.3" y1="78.6" x2="228.3" y2="83.6"/>
		<line class="st20" x1="228.3" y1="78.6" x2="231.2" y2="82.7"/>
		<line class="st20" x1="228.3" y1="78.6" x2="233" y2="80.2"/>
		<line class="st20" x1="228.3" y1="78.6" x2="233" y2="77.1"/>
		<line class="st20" x1="228.3" y1="78.6" x2="231.2" y2="74.6"/>
		<line class="st20" x1="228.3" y1="78.6" x2="228.3" y2="73.6"/>
		<line class="st20" x1="228.3" y1="78.6" x2="225.3" y2="74.6"/>
		<line class="st20" x1="228.3" y1="78.6" x2="223.5" y2="77.1"/>
		<line class="st20" x1="228.3" y1="78.6" x2="223.5" y2="80.2"/>
		<line class="st20" x1="228.3" y1="78.6" x2="225.3" y2="82.7"/>
	</g>
	<circle class="st21" cx="228.3" cy="78.7" r="2.8"/>
</g>
<path class="st2" d="M88.9,309.7v-176h-4.6v176C84.3,309.7,86.6,310.8,88.9,309.7z"/>
<path class="st22" d="M70,90.2h31l13.8,48.1c0,0-2.2,5.8-27.5,5.2c-25.3-0.6-28.7-5.2-28.7-5.2L70,90.2z"/>
<rect x="339" y="35.9" class="st23" width="120" height="254.5"/>
<path class="st22" d="M361.8,170.6c0,0,15.1,0.4,16,0s0.8-5-1-4.8c-2.2,0.3-15.5,1.8-15.5,1.8"/>
<path class="st22" d="M361.3,167.6c0,0-3.5-0.1-4.8,0.6c-1.1,0.6-1.8,2.5,1,2.5c2.2,0,6.3-0.1,6.3-0.1"/>
<g>
</g>
<g>
</g>
<g>
</g>
<g>
</g>
<g>
</g>
<g>
</g>
</svg>
