<?xml version="1.0" encoding="utf-8"?>
<!-- Generator: Adobe Illustrator 19.2.1, SVG Export Plug-In . SVG Version: 6.00 Build 0)  -->
<svg version="1.1" id="Layer_1" xmlns="http://www.w3.org/2000/svg" xmlns:xlink="http://www.w3.org/1999/xlink" x="0px" y="0px"
	 viewBox="0 0 250.2 340.9" style="enable-background:new 0 0 250.2 340.9;" xml:space="preserve">
<style type="text/css">
	.st0{opacity:0.5;fill:#DDDDDD;enable-background:new    ;}
	.st1{fill:#DDDDDD;}
	.st2{fill:none;}
	.st3{enable-background:new    ;}
	.st4{fill:#1D1D1B;}
	.st5{fill:none;stroke:#DDDDDD;stroke-miterlimit:10;}
	.st6{fill:none;stroke:#1E1E1E;stroke-width:2;stroke-miterlimit:10;}
	.st7{fill:#2341C1;}
	.st8{fill:none;stroke:#1E1E1E;stroke-miterlimit:10;}
</style>
<rect x="8.4" y="115.3" class="st0" width="240.5" height="111.4"/>
<g>
	<path class="st1" d="M220.4,48.4c3.1,3.5,1.9,6.3-2.8,6.3h-43c-4.7,0-6-2.9-2.8-6.3l18.4-20.6c3.1-3.5,8.2-3.5,11.4-0.1L220.4,48.4
		z"/>
</g>
<rect x="28.1" y="138.5" class="st2" width="195.1" height="72"/>
<g class="st3">
	<path class="st4" d="M30.7,143.6v-0.9h0.6c0.5,0,0.9-0.1,1.2-0.4c0.3-0.3,0.5-0.6,0.5-1.1c0-0.4-0.1-0.8-0.4-1
		c-0.3-0.3-0.7-0.4-1.1-0.4s-0.9,0.1-1.2,0.4c-0.3,0.3-0.5,0.6-0.5,1.1h-1.1c0.1-0.7,0.4-1.3,0.9-1.8c0.5-0.5,1.1-0.7,1.9-0.7
		c0.8,0,1.4,0.2,1.9,0.7c0.5,0.4,0.7,1,0.7,1.7c0,0.5-0.1,0.9-0.4,1.2c-0.2,0.4-0.6,0.6-1,0.7c0.5,0.1,0.8,0.4,1.1,0.7
		c0.3,0.4,0.4,0.8,0.4,1.3c0,0.7-0.2,1.3-0.7,1.8c-0.5,0.5-1.2,0.7-2,0.7c-0.8,0-1.5-0.2-2.1-0.7s-0.8-1.1-0.9-1.9h1.1
		c0.1,0.5,0.3,0.9,0.6,1.2s0.8,0.4,1.3,0.4c0.5,0,0.9-0.1,1.2-0.4c0.3-0.3,0.5-0.7,0.5-1.1c0-0.5-0.2-0.8-0.5-1.1
		c-0.3-0.3-0.7-0.4-1.3-0.4H30.7z"/>
	<path class="st4" d="M39.7,146.8v3.1h-1v-8.6h1v0.7c0.2-0.2,0.4-0.4,0.7-0.6c0.3-0.2,0.7-0.2,1-0.2c0.9,0,1.6,0.3,2.1,0.9
		c0.5,0.6,0.7,1.4,0.7,2.3c0,0.9-0.2,1.7-0.7,2.3c-0.5,0.6-1.2,0.9-2.1,0.9c-0.4,0-0.7-0.1-1-0.2C40.1,147.3,39.8,147.1,39.7,146.8z
		 M39.7,143.2v2.5c0.2,0.3,0.4,0.6,0.7,0.7c0.3,0.2,0.6,0.3,0.9,0.3c0.6,0,1-0.2,1.4-0.6s0.5-1,0.5-1.6c0-0.7-0.2-1.2-0.5-1.6
		s-0.8-0.6-1.4-0.6c-0.3,0-0.6,0.1-0.9,0.3C40,142.6,39.8,142.9,39.7,143.2z"/>
	<path class="st4" d="M50.1,142.1c0.5,0.6,0.8,1.4,0.8,2.3c0,1-0.3,1.7-0.8,2.3c-0.5,0.6-1.2,0.9-2.1,0.9c-0.8,0-1.5-0.3-2.1-0.9
		c-0.5-0.6-0.8-1.4-0.8-2.3c0-1,0.3-1.7,0.8-2.3c0.5-0.6,1.2-0.9,2.1-0.9C48.9,141.2,49.6,141.5,50.1,142.1z M49.4,146.1
		c0.3-0.4,0.5-1,0.5-1.7c0-0.7-0.2-1.2-0.5-1.7c-0.3-0.4-0.8-0.6-1.3-0.6c-0.6,0-1,0.2-1.3,0.6c-0.3,0.4-0.5,1-0.5,1.7
		c0,0.7,0.2,1.2,0.5,1.7c0.3,0.4,0.8,0.6,1.3,0.6C48.6,146.8,49.1,146.6,49.4,146.1z"/>
	<path class="st4" d="M53.4,139c0.1,0.1,0.2,0.3,0.2,0.5s-0.1,0.3-0.2,0.5s-0.3,0.2-0.5,0.2c-0.2,0-0.3-0.1-0.5-0.2
		c-0.1-0.1-0.2-0.3-0.2-0.5s0.1-0.3,0.2-0.5c0.1-0.1,0.3-0.2,0.5-0.2C53.1,138.8,53.2,138.9,53.4,139z M53.4,141.4v6.2h-1v-6.2H53.4
		z"/>
	<path class="st4" d="M55.3,147.6v-6.2h1v0.8c0.2-0.3,0.5-0.5,0.8-0.7c0.3-0.2,0.7-0.3,1.1-0.3c0.7,0,1.2,0.2,1.6,0.6
		c0.4,0.4,0.6,1,0.6,1.7v4.1h-1.1v-3.9c0-0.4-0.1-0.8-0.3-1.1c-0.2-0.3-0.6-0.4-1-0.4c-0.4,0-0.7,0.1-1,0.3
		c-0.3,0.2-0.5,0.5-0.6,0.8v4.2H55.3z"/>
	<path class="st4" d="M62.4,146v-3.8h-1v-0.9h1v-1.6h1.1v1.6H65v0.9h-1.5v3.6c0,0.6,0.3,0.9,0.8,0.9c0.3,0,0.6-0.1,0.8-0.3v1
		c-0.3,0.1-0.6,0.2-1,0.2c-0.5,0-0.9-0.1-1.2-0.4C62.6,147,62.4,146.6,62.4,146z"/>
	<path class="st4" d="M66,145.9h1.1c0.2,0.6,0.7,1,1.5,1c0.4,0,0.7-0.1,0.9-0.2c0.2-0.2,0.4-0.4,0.4-0.7c0-0.4-0.3-0.7-0.9-0.9
		l-1.2-0.3c-1-0.3-1.5-0.8-1.5-1.6c0-0.5,0.2-1,0.6-1.3s1-0.5,1.6-0.5c0.7,0,1.2,0.2,1.6,0.5c0.4,0.3,0.7,0.7,0.8,1.3h-1
		c-0.2-0.6-0.6-0.9-1.4-0.9c-0.3,0-0.6,0.1-0.8,0.2c-0.2,0.2-0.4,0.4-0.4,0.7c0,0.2,0.1,0.4,0.2,0.5c0.1,0.1,0.4,0.2,0.7,0.3
		l1.2,0.3c1.1,0.3,1.6,0.9,1.6,1.7c0,0.6-0.2,1-0.6,1.4s-1,0.5-1.7,0.5c-0.7,0-1.3-0.2-1.7-0.5C66.4,146.9,66.1,146.4,66,145.9z"/>
	<path class="st4" d="M75.4,147.6v-9.1h1v3.7c0.2-0.3,0.5-0.5,0.8-0.7c0.3-0.2,0.7-0.3,1.1-0.3c0.7,0,1.2,0.2,1.6,0.6
		c0.4,0.4,0.6,1,0.6,1.7v4.1h-1.1v-3.9c0-0.4-0.1-0.8-0.3-1.1c-0.2-0.3-0.6-0.4-1-0.4c-0.4,0-0.7,0.1-1,0.3
		c-0.3,0.2-0.5,0.5-0.6,0.8v4.2H75.4z"/>
	<path class="st4" d="M86.8,147.6h-1v-0.5c-0.1,0.1-0.4,0.3-0.7,0.4c-0.3,0.1-0.6,0.2-1,0.2c-0.7,0-1.2-0.2-1.6-0.5
		c-0.4-0.4-0.7-0.8-0.7-1.4c0-0.6,0.2-1,0.7-1.4c0.5-0.4,1-0.5,1.7-0.5c0.3,0,0.6,0.1,0.9,0.2s0.5,0.2,0.7,0.3v-0.8
		c0-0.4-0.1-0.7-0.4-1c-0.2-0.2-0.6-0.4-1-0.4c-0.7,0-1.1,0.3-1.3,0.9h-1c0.1-0.5,0.4-0.9,0.8-1.3c0.4-0.3,0.9-0.5,1.5-0.5
		c0.7,0,1.3,0.2,1.7,0.6c0.4,0.4,0.6,0.9,0.6,1.6V147.6z M85.8,146v-0.6c-0.1-0.2-0.3-0.4-0.6-0.6c-0.3-0.1-0.6-0.2-0.9-0.2
		c-0.4,0-0.8,0.1-1,0.3c-0.3,0.2-0.4,0.5-0.4,0.8c0,0.4,0.1,0.6,0.4,0.8c0.3,0.2,0.6,0.3,1,0.3c0.3,0,0.6-0.1,0.9-0.2
		C85.5,146.4,85.7,146.3,85.8,146z"/>
	<path class="st4" d="M91.2,147.6h-1l-2.4-6.2h1.1l1.8,4.9l1.8-4.9h1.1L91.2,147.6z"/>
	<path class="st4" d="M98.6,145.7h1c-0.1,0.6-0.4,1.1-0.8,1.4s-1,0.5-1.7,0.5c-0.8,0-1.5-0.3-2.1-0.9s-0.8-1.4-0.8-2.3
		c0-0.9,0.3-1.7,0.8-2.3c0.5-0.6,1.2-0.9,2-0.9c0.8,0,1.5,0.3,1.9,0.8c0.5,0.6,0.7,1.3,0.7,2.2v0.4h-4.4c0,0.7,0.2,1.2,0.5,1.6
		c0.3,0.4,0.8,0.6,1.3,0.6c0.4,0,0.7-0.1,1-0.3S98.6,146.1,98.6,145.7z M97.1,142.1c-0.5,0-0.9,0.2-1.2,0.5
		c-0.3,0.3-0.5,0.7-0.6,1.3h3.3c0-0.5-0.1-0.9-0.4-1.2C98,142.3,97.6,142.1,97.1,142.1z"/>
	<path class="st4" d="M105.3,146.8v0.7h-1.1v-9.1h1.1v3.6c0.2-0.2,0.4-0.4,0.7-0.6s0.7-0.2,1-0.2c0.9,0,1.6,0.3,2.1,0.9
		c0.5,0.6,0.7,1.4,0.7,2.3c0,0.9-0.2,1.7-0.7,2.3s-1.2,0.9-2.1,0.9c-0.4,0-0.7-0.1-1-0.2S105.4,147.1,105.3,146.8z M105.3,143.2v2.5
		c0.2,0.3,0.4,0.6,0.7,0.7c0.3,0.2,0.6,0.3,0.9,0.3c0.6,0,1-0.2,1.4-0.6s0.5-1,0.5-1.6c0-0.7-0.2-1.2-0.5-1.6s-0.8-0.6-1.4-0.6
		c-0.3,0-0.6,0.1-0.9,0.3C105.6,142.6,105.4,142.9,105.3,143.2z"/>
	<path class="st4" d="M115.2,145.7h1c-0.1,0.6-0.4,1.1-0.8,1.4s-1,0.5-1.7,0.5c-0.8,0-1.5-0.3-2.1-0.9s-0.8-1.4-0.8-2.3
		c0-0.9,0.3-1.7,0.8-2.3c0.5-0.6,1.2-0.9,2-0.9c0.8,0,1.5,0.3,1.9,0.8c0.5,0.6,0.7,1.3,0.7,2.2v0.4h-4.4c0,0.7,0.2,1.2,0.5,1.6
		c0.3,0.4,0.8,0.6,1.3,0.6c0.4,0,0.7-0.1,1-0.3S115.1,146.1,115.2,145.7z M113.7,142.1c-0.5,0-0.9,0.2-1.2,0.5
		c-0.3,0.3-0.5,0.7-0.6,1.3h3.3c0-0.5-0.1-0.9-0.4-1.2C114.5,142.3,114.2,142.1,113.7,142.1z"/>
	<path class="st4" d="M121.6,145.7h1c-0.1,0.6-0.4,1.1-0.8,1.4s-1,0.5-1.7,0.5c-0.8,0-1.5-0.3-2.1-0.9s-0.8-1.4-0.8-2.3
		c0-0.9,0.3-1.7,0.8-2.3c0.5-0.6,1.2-0.9,2-0.9c0.8,0,1.5,0.3,1.9,0.8c0.5,0.6,0.7,1.3,0.7,2.2v0.4h-4.4c0,0.7,0.2,1.2,0.5,1.6
		c0.3,0.4,0.8,0.6,1.3,0.6c0.4,0,0.7-0.1,1-0.3S121.5,146.1,121.6,145.7z M120.1,142.1c-0.5,0-0.9,0.2-1.2,0.5
		c-0.3,0.3-0.5,0.7-0.6,1.3h3.3c0-0.5-0.1-0.9-0.4-1.2C121,142.3,120.6,142.1,120.1,142.1z"/>
	<path class="st4" d="M124.1,147.6v-6.2h1v0.8c0.2-0.3,0.5-0.5,0.8-0.7s0.7-0.3,1.1-0.3c0.7,0,1.2,0.2,1.6,0.6
		c0.4,0.4,0.6,1,0.6,1.7v4.1h-1.1v-3.9c0-0.4-0.1-0.8-0.3-1.1c-0.2-0.3-0.6-0.4-1-0.4c-0.4,0-0.7,0.1-1,0.3
		c-0.3,0.2-0.5,0.5-0.6,0.8v4.2H124.1z"/>
	<path class="st4" d="M138.5,147.6h-1v-0.5c-0.1,0.1-0.4,0.3-0.7,0.4c-0.3,0.1-0.6,0.2-1,0.2c-0.7,0-1.2-0.2-1.6-0.5
		c-0.4-0.4-0.7-0.8-0.7-1.4c0-0.6,0.2-1,0.7-1.4c0.5-0.4,1-0.5,1.7-0.5c0.3,0,0.6,0.1,0.9,0.2s0.5,0.2,0.7,0.3v-0.8
		c0-0.4-0.1-0.7-0.4-1c-0.2-0.2-0.6-0.4-1-0.4c-0.7,0-1.1,0.3-1.3,0.9h-1c0.1-0.5,0.4-0.9,0.8-1.3c0.4-0.3,0.9-0.5,1.5-0.5
		c0.7,0,1.3,0.2,1.7,0.6c0.4,0.4,0.6,0.9,0.6,1.6V147.6z M137.5,146v-0.6c-0.1-0.2-0.3-0.4-0.6-0.6c-0.3-0.1-0.6-0.2-0.9-0.2
		c-0.4,0-0.8,0.1-1,0.3c-0.3,0.2-0.4,0.5-0.4,0.8c0,0.4,0.1,0.6,0.4,0.8c0.3,0.2,0.6,0.3,1,0.3c0.3,0,0.6-0.1,0.9-0.2
		C137.2,146.4,137.4,146.3,137.5,146z"/>
	<path class="st4" d="M144.4,147.6v-0.7c-0.2,0.2-0.4,0.4-0.7,0.6c-0.3,0.2-0.7,0.2-1,0.2c-0.9,0-1.6-0.3-2.1-0.9
		c-0.5-0.6-0.7-1.4-0.7-2.3c0-0.9,0.2-1.7,0.7-2.3c0.5-0.6,1.2-0.9,2.1-0.9c0.4,0,0.7,0.1,1,0.2c0.3,0.2,0.6,0.4,0.7,0.6v-3.6h1.1
		v9.1H144.4z M144.4,145.7v-2.5c-0.2-0.3-0.4-0.6-0.7-0.7c-0.3-0.2-0.6-0.3-0.9-0.3c-0.6,0-1,0.2-1.4,0.6c-0.3,0.4-0.5,1-0.5,1.6
		c0,0.7,0.2,1.2,0.5,1.6c0.3,0.4,0.8,0.6,1.4,0.6c0.3,0,0.6-0.1,0.9-0.3C144,146.3,144.3,146,144.4,145.7z"/>
	<path class="st4" d="M151.5,147.6v-0.7c-0.2,0.2-0.4,0.4-0.7,0.6c-0.3,0.2-0.7,0.2-1,0.2c-0.9,0-1.6-0.3-2.1-0.9
		c-0.5-0.6-0.7-1.4-0.7-2.3c0-0.9,0.2-1.7,0.7-2.3c0.5-0.6,1.2-0.9,2.1-0.9c0.4,0,0.7,0.1,1,0.2c0.3,0.2,0.6,0.4,0.7,0.6v-3.6h1.1
		v9.1H151.5z M151.5,145.7v-2.5c-0.2-0.3-0.4-0.6-0.7-0.7c-0.3-0.2-0.6-0.3-0.9-0.3c-0.6,0-1,0.2-1.4,0.6c-0.3,0.4-0.5,1-0.5,1.6
		c0,0.7,0.2,1.2,0.5,1.6c0.3,0.4,0.8,0.6,1.4,0.6c0.3,0,0.6-0.1,0.9-0.3C151.1,146.3,151.3,146,151.5,145.7z"/>
	<path class="st4" d="M158.3,145.7h1c-0.1,0.6-0.4,1.1-0.8,1.4s-1,0.5-1.7,0.5c-0.8,0-1.5-0.3-2.1-0.9s-0.8-1.4-0.8-2.3
		c0-0.9,0.3-1.7,0.8-2.3c0.5-0.6,1.2-0.9,2-0.9c0.8,0,1.5,0.3,1.9,0.8c0.5,0.6,0.7,1.3,0.7,2.2v0.4H155c0,0.7,0.2,1.2,0.5,1.6
		c0.3,0.4,0.8,0.6,1.3,0.6c0.4,0,0.7-0.1,1-0.3C158,146.3,158.2,146.1,158.3,145.7z M156.8,142.1c-0.5,0-0.9,0.2-1.2,0.5
		c-0.3,0.3-0.5,0.7-0.6,1.3h3.3c0-0.5-0.1-0.9-0.4-1.2C157.6,142.3,157.3,142.1,156.8,142.1z"/>
	<path class="st4" d="M164.9,147.6v-0.7c-0.2,0.2-0.4,0.4-0.7,0.6s-0.7,0.2-1,0.2c-0.9,0-1.6-0.3-2.1-0.9s-0.7-1.4-0.7-2.3
		c0-0.9,0.2-1.7,0.7-2.3c0.5-0.6,1.2-0.9,2.1-0.9c0.4,0,0.7,0.1,1,0.2s0.6,0.4,0.7,0.6v-3.6h1.1v9.1H164.9z M164.9,145.7v-2.5
		c-0.2-0.3-0.4-0.6-0.7-0.7c-0.3-0.2-0.6-0.3-0.9-0.3c-0.6,0-1,0.2-1.4,0.6s-0.5,1-0.5,1.6c0,0.7,0.2,1.2,0.5,1.6s0.8,0.6,1.4,0.6
		c0.3,0,0.6-0.1,0.9-0.3C164.5,146.3,164.8,146,164.9,145.7z"/>
	<path class="st4" d="M171.2,146v-3.8h-1v-0.9h1v-1.6h1v1.6h1.5v0.9h-1.5v3.6c0,0.6,0.3,0.9,0.8,0.9c0.3,0,0.6-0.1,0.8-0.3v1
		c-0.3,0.1-0.6,0.2-1,0.2c-0.5,0-0.9-0.1-1.2-0.4C171.4,147,171.2,146.6,171.2,146z"/>
	<path class="st4" d="M179.8,142.1c0.5,0.6,0.8,1.4,0.8,2.3c0,1-0.3,1.7-0.8,2.3c-0.5,0.6-1.2,0.9-2.1,0.9c-0.8,0-1.5-0.3-2.1-0.9
		c-0.5-0.6-0.8-1.4-0.8-2.3c0-1,0.3-1.7,0.8-2.3c0.5-0.6,1.2-0.9,2.1-0.9C178.6,141.2,179.2,141.5,179.8,142.1z M179,146.1
		c0.3-0.4,0.5-1,0.5-1.7c0-0.7-0.2-1.2-0.5-1.7s-0.8-0.6-1.3-0.6c-0.6,0-1,0.2-1.3,0.6c-0.3,0.4-0.5,1-0.5,1.7
		c0,0.7,0.2,1.2,0.5,1.7c0.3,0.4,0.8,0.6,1.3,0.6C178.3,146.8,178.7,146.6,179,146.1z"/>
	<path class="st4" d="M186.9,150h-1l0.9-2.3l-2.4-6.3h1.1l1.8,4.9l1.8-4.9h1.1L186.9,150z"/>
	<path class="st4" d="M195.8,142.1c0.5,0.6,0.8,1.4,0.8,2.3c0,1-0.3,1.7-0.8,2.3c-0.5,0.6-1.2,0.9-2.1,0.9s-1.5-0.3-2.1-0.9
		c-0.5-0.6-0.8-1.4-0.8-2.3c0-1,0.3-1.7,0.8-2.3c0.5-0.6,1.2-0.9,2.1-0.9S195.3,141.5,195.8,142.1z M195.1,146.1
		c0.3-0.4,0.5-1,0.5-1.7c0-0.7-0.2-1.2-0.5-1.7c-0.3-0.4-0.8-0.6-1.3-0.6s-1,0.2-1.3,0.6s-0.5,1-0.5,1.7c0,0.7,0.2,1.2,0.5,1.7
		s0.8,0.6,1.3,0.6S194.7,146.6,195.1,146.1z"/>
	<path class="st4" d="M203,141.4v6.2h-1.1v-0.8c-0.2,0.3-0.4,0.5-0.8,0.7c-0.3,0.2-0.7,0.3-1,0.3c-0.7,0-1.2-0.2-1.6-0.6
		c-0.4-0.4-0.6-1-0.6-1.7v-4.1h1.1v3.9c0,0.5,0.1,0.8,0.3,1.1c0.2,0.3,0.6,0.4,1,0.4c0.4,0,0.7-0.1,1-0.3s0.5-0.5,0.6-0.8v-4.2H203z
		"/>
	<path class="st4" d="M208,141.3v1.1c-0.2-0.1-0.4-0.2-0.7-0.2c-0.3,0-0.6,0.1-0.9,0.3c-0.3,0.2-0.4,0.5-0.5,0.9v4.2h-1.1v-6.2h1.1
		v0.8c0.1-0.3,0.3-0.5,0.6-0.7c0.3-0.2,0.6-0.3,0.9-0.3C207.7,141.2,207.9,141.3,208,141.3z"/>
</g>
<g class="st3">
	<path class="st4" d="M30.1,155.3v9.1h-1v-9.1H30.1z"/>
	<path class="st4" d="M33,155.8c0.1,0.1,0.2,0.3,0.2,0.5s-0.1,0.3-0.2,0.5s-0.3,0.2-0.5,0.2c-0.2,0-0.3-0.1-0.5-0.2
		c-0.1-0.1-0.2-0.3-0.2-0.5s0.1-0.3,0.2-0.5c0.1-0.1,0.3-0.2,0.5-0.2C32.7,155.6,32.9,155.7,33,155.8z M33.1,158.2v6.2h-1v-6.2H33.1
		z"/>
	<path class="st4" d="M35.3,163.6c-0.5-0.6-0.8-1.4-0.8-2.3c0-1,0.3-1.7,0.8-2.3c0.5-0.6,1.2-0.9,2-0.9c0.7,0,1.2,0.2,1.7,0.5
		c0.4,0.4,0.7,0.8,0.8,1.5h-1.1c-0.1-0.3-0.2-0.6-0.5-0.8c-0.2-0.2-0.6-0.3-0.9-0.3c-0.5,0-1,0.2-1.3,0.6c-0.3,0.4-0.5,1-0.5,1.7
		c0,0.7,0.2,1.2,0.5,1.7c0.3,0.4,0.7,0.6,1.3,0.6c0.4,0,0.7-0.1,0.9-0.3c0.2-0.2,0.4-0.5,0.5-0.8h1.1c-0.1,0.6-0.4,1.1-0.8,1.5
		c-0.4,0.4-1,0.5-1.7,0.5C36.5,164.5,35.8,164.2,35.3,163.6z"/>
	<path class="st4" d="M45.1,162.5h1c-0.1,0.6-0.4,1.1-0.8,1.4s-1,0.5-1.7,0.5c-0.8,0-1.5-0.3-2.1-0.9s-0.8-1.4-0.8-2.3
		c0-0.9,0.3-1.7,0.8-2.3c0.5-0.6,1.2-0.9,2-0.9c0.8,0,1.5,0.3,1.9,0.8c0.5,0.6,0.7,1.3,0.7,2.2v0.4h-4.4c0,0.7,0.2,1.2,0.5,1.6
		c0.3,0.4,0.8,0.6,1.3,0.6c0.4,0,0.7-0.1,1-0.3S45,162.9,45.1,162.5z M43.5,158.9c-0.5,0-0.9,0.2-1.2,0.5c-0.3,0.3-0.5,0.7-0.6,1.3
		h3.3c0-0.5-0.1-0.9-0.4-1.2C44.4,159.1,44,158.9,43.5,158.9z"/>
	<path class="st4" d="M47.6,164.4v-6.2h1v0.8c0.2-0.3,0.5-0.5,0.8-0.7c0.3-0.2,0.7-0.3,1.1-0.3c0.7,0,1.2,0.2,1.6,0.6
		c0.4,0.4,0.6,1,0.6,1.7v4.1h-1.1v-3.9c0-0.4-0.1-0.8-0.3-1.1c-0.2-0.3-0.6-0.4-1-0.4c-0.4,0-0.7,0.1-1,0.3
		c-0.3,0.2-0.5,0.5-0.6,0.8v4.2H47.6z"/>
	<path class="st4" d="M54.7,163.6c-0.5-0.6-0.8-1.4-0.8-2.3c0-1,0.3-1.7,0.8-2.3c0.5-0.6,1.2-0.9,2-0.9c0.7,0,1.2,0.2,1.7,0.5
		c0.4,0.4,0.7,0.8,0.8,1.5h-1.1c-0.1-0.3-0.2-0.6-0.5-0.8c-0.2-0.2-0.6-0.3-0.9-0.3c-0.5,0-1,0.2-1.3,0.6c-0.3,0.4-0.5,1-0.5,1.7
		c0,0.7,0.2,1.2,0.5,1.7c0.3,0.4,0.7,0.6,1.3,0.6c0.4,0,0.7-0.1,0.9-0.3c0.2-0.2,0.4-0.5,0.5-0.8h1.1c-0.1,0.6-0.4,1.1-0.8,1.5
		c-0.4,0.4-1,0.5-1.7,0.5C55.9,164.5,55.3,164.2,54.7,163.6z"/>
	<path class="st4" d="M64.5,162.5h1c-0.1,0.6-0.4,1.1-0.8,1.4s-1,0.5-1.7,0.5c-0.8,0-1.5-0.3-2.1-0.9s-0.8-1.4-0.8-2.3
		c0-0.9,0.3-1.7,0.8-2.3c0.5-0.6,1.2-0.9,2-0.9c0.8,0,1.5,0.3,1.9,0.8c0.5,0.6,0.7,1.3,0.7,2.2v0.4h-4.4c0,0.7,0.2,1.2,0.5,1.6
		c0.3,0.4,0.8,0.6,1.3,0.6c0.4,0,0.7-0.1,1-0.3S64.4,162.9,64.5,162.5z M63,158.9c-0.5,0-0.9,0.2-1.2,0.5c-0.3,0.3-0.5,0.7-0.6,1.3
		h3.3c0-0.5-0.1-0.9-0.4-1.2C63.9,159.1,63.5,158.9,63,158.9z"/>
	<path class="st4" d="M73.2,155.3v1c-0.2-0.1-0.4-0.2-0.7-0.2c-0.3,0-0.6,0.1-0.7,0.3c-0.2,0.2-0.3,0.5-0.3,0.8v1h1.4v0.9h-1.4v5.3
		h-1v-5.3h-1.1v-0.9h1.1v-1c0-0.6,0.2-1.1,0.5-1.4c0.4-0.4,0.8-0.5,1.4-0.5C72.7,155.1,73,155.2,73.2,155.3z"/>
	<path class="st4" d="M78.5,158.9c0.5,0.6,0.8,1.4,0.8,2.3c0,1-0.3,1.7-0.8,2.3c-0.5,0.6-1.2,0.9-2.1,0.9c-0.8,0-1.5-0.3-2.1-0.9
		c-0.5-0.6-0.8-1.4-0.8-2.3c0-1,0.3-1.7,0.8-2.3c0.5-0.6,1.2-0.9,2.1-0.9C77.3,158,78,158.3,78.5,158.9z M77.8,162.9
		c0.3-0.4,0.5-1,0.5-1.7c0-0.7-0.2-1.2-0.5-1.7c-0.3-0.4-0.8-0.6-1.3-0.6c-0.6,0-1,0.2-1.3,0.6c-0.3,0.4-0.5,1-0.5,1.7
		c0,0.7,0.2,1.2,0.5,1.7c0.3,0.4,0.8,0.6,1.3,0.6C77,163.6,77.4,163.4,77.8,162.9z"/>
	<path class="st4" d="M83.9,158.1v1.1c-0.2-0.1-0.4-0.2-0.7-0.2c-0.3,0-0.6,0.1-0.9,0.3c-0.3,0.2-0.4,0.5-0.5,0.9v4.2h-1v-6.2h1v0.8
		c0.1-0.3,0.3-0.5,0.6-0.7c0.3-0.2,0.6-0.3,0.9-0.3C83.6,158,83.8,158.1,83.9,158.1z"/>
	<path class="st4" d="M90.2,166.8h-1l0.9-2.3l-2.4-6.3h1.1l1.8,4.9l1.8-4.9h1.1L90.2,166.8z"/>
	<path class="st4" d="M99.1,158.9c0.5,0.6,0.8,1.4,0.8,2.3c0,1-0.3,1.7-0.8,2.3c-0.5,0.6-1.2,0.9-2.1,0.9c-0.8,0-1.5-0.3-2.1-0.9
		c-0.5-0.6-0.8-1.4-0.8-2.3c0-1,0.3-1.7,0.8-2.3c0.5-0.6,1.2-0.9,2.1-0.9C97.8,158,98.5,158.3,99.1,158.9z M98.3,162.9
		c0.3-0.4,0.5-1,0.5-1.7c0-0.7-0.2-1.2-0.5-1.7c-0.3-0.4-0.8-0.6-1.3-0.6c-0.6,0-1,0.2-1.3,0.6c-0.3,0.4-0.5,1-0.5,1.7
		c0,0.7,0.2,1.2,0.5,1.7c0.3,0.4,0.8,0.6,1.3,0.6C97.5,163.6,98,163.4,98.3,162.9z"/>
	<path class="st4" d="M106.2,158.2v6.2h-1.1v-0.8c-0.2,0.3-0.4,0.5-0.8,0.7c-0.3,0.2-0.7,0.3-1.1,0.3c-0.7,0-1.2-0.2-1.6-0.6
		c-0.4-0.4-0.6-1-0.6-1.7v-4.1h1.1v3.9c0,0.5,0.1,0.8,0.3,1.1c0.2,0.3,0.6,0.4,1,0.4c0.4,0,0.7-0.1,1-0.3s0.5-0.5,0.6-0.8v-4.2
		H106.2z"/>
	<path class="st4" d="M111.3,158.1v1.1c-0.2-0.1-0.4-0.2-0.7-0.2c-0.3,0-0.6,0.1-0.9,0.3c-0.3,0.2-0.4,0.5-0.5,0.9v4.2h-1v-6.2h1
		v0.8c0.1-0.3,0.3-0.5,0.6-0.7c0.3-0.2,0.6-0.3,0.9-0.3C111,158,111.2,158.1,111.3,158.1z"/>
	<path class="st4" d="M118.9,158.1v1.1c-0.2-0.1-0.4-0.2-0.7-0.2c-0.3,0-0.6,0.1-0.9,0.3c-0.3,0.2-0.4,0.5-0.5,0.9v4.2h-1v-6.2h1
		v0.8c0.1-0.3,0.3-0.5,0.6-0.7c0.3-0.2,0.6-0.3,0.9-0.3C118.5,158,118.7,158.1,118.9,158.1z"/>
	<path class="st4" d="M124.5,158.9c0.5,0.6,0.8,1.4,0.8,2.3c0,1-0.3,1.7-0.8,2.3c-0.5,0.6-1.2,0.9-2.1,0.9c-0.8,0-1.5-0.3-2.1-0.9
		c-0.5-0.6-0.8-1.4-0.8-2.3c0-1,0.3-1.7,0.8-2.3c0.5-0.6,1.2-0.9,2.1-0.9C123.3,158,123.9,158.3,124.5,158.9z M123.7,162.9
		c0.3-0.4,0.5-1,0.5-1.7c0-0.7-0.2-1.2-0.5-1.7c-0.3-0.4-0.8-0.6-1.3-0.6c-0.6,0-1,0.2-1.3,0.6c-0.3,0.4-0.5,1-0.5,1.7
		c0,0.7,0.2,1.2,0.5,1.7c0.3,0.4,0.8,0.6,1.3,0.6C123,163.6,123.4,163.4,123.7,162.9z"/>
	<path class="st4" d="M131.2,164.4h-1v-0.5c-0.1,0.1-0.3,0.3-0.7,0.4c-0.3,0.1-0.6,0.2-1,0.2c-0.7,0-1.2-0.2-1.6-0.5
		c-0.4-0.4-0.7-0.8-0.7-1.4c0-0.6,0.2-1,0.7-1.4c0.5-0.4,1-0.5,1.7-0.5c0.3,0,0.6,0.1,0.9,0.2s0.5,0.2,0.7,0.3v-0.8
		c0-0.4-0.1-0.7-0.4-1c-0.2-0.2-0.6-0.4-1-0.4c-0.7,0-1.1,0.3-1.3,0.9h-1c0.1-0.5,0.4-0.9,0.8-1.3c0.4-0.3,0.9-0.5,1.5-0.5
		c0.7,0,1.3,0.2,1.7,0.6c0.4,0.4,0.6,0.9,0.6,1.6V164.4z M130.2,162.8v-0.6c-0.1-0.2-0.3-0.4-0.6-0.6c-0.3-0.1-0.6-0.2-0.9-0.2
		c-0.4,0-0.8,0.1-1,0.3s-0.4,0.5-0.4,0.8c0,0.4,0.1,0.6,0.4,0.8s0.6,0.3,1,0.3c0.3,0,0.6-0.1,0.9-0.2
		C129.9,163.2,130.1,163.1,130.2,162.8z"/>
	<path class="st4" d="M137.1,164.4v-0.7c-0.2,0.2-0.4,0.4-0.7,0.6c-0.3,0.2-0.7,0.2-1,0.2c-0.9,0-1.6-0.3-2.1-0.9
		c-0.5-0.6-0.7-1.4-0.7-2.3c0-0.9,0.2-1.7,0.7-2.3c0.5-0.6,1.2-0.9,2.1-0.9c0.4,0,0.7,0.1,1,0.2c0.3,0.2,0.6,0.4,0.7,0.6v-3.6h1.1
		v9.1H137.1z M137.1,162.5V160c-0.2-0.3-0.4-0.6-0.7-0.7c-0.3-0.2-0.6-0.3-0.9-0.3c-0.6,0-1,0.2-1.4,0.6c-0.3,0.4-0.5,1-0.5,1.6
		c0,0.7,0.2,1.2,0.5,1.6c0.3,0.4,0.8,0.6,1.4,0.6c0.3,0,0.6-0.1,0.9-0.3C136.7,163.1,136.9,162.8,137.1,162.5z"/>
	<path class="st4" d="M143.4,162.8v-3.8h-1v-0.9h1v-1.6h1v1.6h1.5v0.9h-1.5v3.6c0,0.6,0.3,0.9,0.8,0.9c0.3,0,0.6-0.1,0.8-0.3v1
		c-0.3,0.1-0.6,0.2-1,0.2c-0.5,0-0.9-0.1-1.2-0.4C143.6,163.8,143.4,163.4,143.4,162.8z"/>
	<path class="st4" d="M150.7,158.1v1.1c-0.2-0.1-0.4-0.2-0.7-0.2c-0.3,0-0.6,0.1-0.9,0.3c-0.3,0.2-0.4,0.5-0.5,0.9v4.2h-1.1v-6.2
		h1.1v0.8c0.1-0.3,0.3-0.5,0.6-0.7c0.3-0.2,0.6-0.3,0.9-0.3C150.4,158,150.6,158.1,150.7,158.1z"/>
	<path class="st4" d="M156.4,164.4h-1v-0.5c-0.1,0.1-0.3,0.3-0.7,0.4c-0.3,0.1-0.6,0.2-1,0.2c-0.7,0-1.2-0.2-1.6-0.5
		c-0.4-0.4-0.7-0.8-0.7-1.4c0-0.6,0.2-1,0.7-1.4c0.5-0.4,1-0.5,1.7-0.5c0.3,0,0.6,0.1,0.9,0.2s0.5,0.2,0.7,0.3v-0.8
		c0-0.4-0.1-0.7-0.4-1c-0.2-0.2-0.6-0.4-1-0.4c-0.7,0-1.1,0.3-1.3,0.9h-1c0.1-0.5,0.4-0.9,0.8-1.3c0.4-0.3,0.9-0.5,1.5-0.5
		c0.7,0,1.3,0.2,1.7,0.6c0.4,0.4,0.6,0.9,0.6,1.6V164.4z M155.4,162.8v-0.6c-0.1-0.2-0.3-0.4-0.6-0.6c-0.3-0.1-0.6-0.2-0.9-0.2
		c-0.4,0-0.8,0.1-1.1,0.3s-0.4,0.5-0.4,0.8c0,0.4,0.1,0.6,0.4,0.8s0.6,0.3,1.1,0.3c0.3,0,0.6-0.1,0.9-0.2
		C155.1,163.2,155.3,163.1,155.4,162.8z"/>
	<path class="st4" d="M164.9,155.3v1c-0.2-0.1-0.4-0.2-0.7-0.2c-0.3,0-0.6,0.1-0.7,0.3s-0.3,0.5-0.3,0.8v1h1.4v0.9h-1.4v5.3h-1.1
		v-5.3h-2.6v5.3h-1v-5.3h-1v-0.9h1v-1c0-0.6,0.2-1.1,0.5-1.4c0.4-0.4,0.8-0.5,1.4-0.5c0.3,0,0.6,0,0.8,0.1v1
		c-0.2-0.1-0.4-0.2-0.7-0.2c-0.3,0-0.6,0.1-0.7,0.3c-0.2,0.2-0.3,0.5-0.3,0.8v0.9h2.6v-1c0-0.6,0.2-1.1,0.5-1.4
		c0.4-0.4,0.8-0.5,1.4-0.5C164.4,155.1,164.7,155.2,164.9,155.3z"/>
	<path class="st4" d="M166.9,155.8c0.1,0.1,0.2,0.3,0.2,0.5s-0.1,0.3-0.2,0.5s-0.3,0.2-0.5,0.2c-0.2,0-0.3-0.1-0.5-0.2
		c-0.1-0.1-0.2-0.3-0.2-0.5s0.1-0.3,0.2-0.5c0.1-0.1,0.3-0.2,0.5-0.2C166.6,155.6,166.7,155.7,166.9,155.8z M166.9,158.2v6.2h-1
		v-6.2H166.9z"/>
	<path class="st4" d="M169.1,163.6c-0.5-0.6-0.8-1.4-0.8-2.3c0-1,0.3-1.7,0.8-2.3c0.5-0.6,1.2-0.9,2-0.9c0.7,0,1.2,0.2,1.7,0.5
		c0.4,0.4,0.7,0.8,0.8,1.5h-1.1c-0.1-0.3-0.2-0.6-0.5-0.8s-0.6-0.3-0.9-0.3c-0.5,0-1,0.2-1.3,0.6c-0.3,0.4-0.5,1-0.5,1.7
		c0,0.7,0.2,1.2,0.5,1.7c0.3,0.4,0.7,0.6,1.3,0.6c0.4,0,0.7-0.1,0.9-0.3s0.4-0.5,0.5-0.8h1.1c-0.1,0.6-0.4,1.1-0.8,1.5
		c-0.4,0.4-1,0.5-1.7,0.5C170.3,164.5,169.7,164.2,169.1,163.6z"/>
	<path class="st4" d="M182.6,158.9c0.5,0.6,0.8,1.4,0.8,2.3c0,1-0.3,1.7-0.8,2.3c-0.5,0.6-1.2,0.9-2.1,0.9s-1.5-0.3-2.1-0.9
		c-0.5-0.6-0.8-1.4-0.8-2.3c0-1,0.3-1.7,0.8-2.3c0.5-0.6,1.2-0.9,2.1-0.9S182.1,158.3,182.6,158.9z M181.9,162.9
		c0.3-0.4,0.5-1,0.5-1.7c0-0.7-0.2-1.2-0.5-1.7c-0.3-0.4-0.8-0.6-1.3-0.6s-1,0.2-1.3,0.6s-0.5,1-0.5,1.7c0,0.7,0.2,1.2,0.5,1.7
		s0.8,0.6,1.3,0.6S181.5,163.4,181.9,162.9z"/>
	<path class="st4" d="M191.6,155.3v1c-0.2-0.1-0.4-0.2-0.7-0.2c-0.3,0-0.6,0.1-0.7,0.3c-0.2,0.2-0.3,0.5-0.3,0.8v1h1.4v0.9h-1.4v5.3
		h-1v-5.3h-2.6v5.3h-1v-5.3h-1v-0.9h1v-1c0-0.6,0.2-1.1,0.5-1.4c0.4-0.4,0.8-0.5,1.4-0.5c0.3,0,0.6,0,0.8,0.1v1
		c-0.2-0.1-0.4-0.2-0.7-0.2c-0.3,0-0.6,0.1-0.7,0.3c-0.2,0.2-0.3,0.5-0.3,0.8v0.9h2.6v-1c0-0.6,0.2-1.1,0.5-1.4
		c0.4-0.4,0.8-0.5,1.4-0.5C191.1,155.1,191.4,155.2,191.6,155.3z"/>
	<path class="st4" d="M196.4,162.5h1c-0.1,0.6-0.4,1.1-0.8,1.4c-0.4,0.4-1,0.5-1.7,0.5c-0.8,0-1.5-0.3-2.1-0.9s-0.8-1.4-0.8-2.3
		c0-0.9,0.3-1.7,0.8-2.3c0.5-0.6,1.2-0.9,2-0.9c0.8,0,1.5,0.3,1.9,0.8c0.5,0.6,0.7,1.3,0.7,2.2v0.4H193c0,0.7,0.2,1.2,0.5,1.6
		c0.3,0.4,0.8,0.6,1.3,0.6c0.4,0,0.7-0.1,1-0.3S196.3,162.9,196.4,162.5z M194.8,158.9c-0.5,0-0.9,0.2-1.2,0.5
		c-0.3,0.3-0.5,0.7-0.6,1.3h3.3c0-0.5-0.1-0.9-0.4-1.2C195.7,159.1,195.3,158.9,194.8,158.9z"/>
	<path class="st4" d="M198.8,164.4v-6.2h1.1v0.8c0.2-0.3,0.5-0.5,0.8-0.7c0.3-0.2,0.7-0.3,1.1-0.3c0.7,0,1.2,0.2,1.6,0.6
		c0.4,0.4,0.6,1,0.6,1.7v4.1h-1.1v-3.9c0-0.4-0.1-0.8-0.3-1.1c-0.2-0.3-0.6-0.4-1-0.4c-0.4,0-0.7,0.1-1,0.3s-0.5,0.5-0.6,0.8v4.2
		H198.8z"/>
	<path class="st4" d="M206,163.6c-0.5-0.6-0.8-1.4-0.8-2.3c0-1,0.3-1.7,0.8-2.3c0.5-0.6,1.2-0.9,2-0.9c0.7,0,1.2,0.2,1.7,0.5
		c0.4,0.4,0.7,0.8,0.8,1.5h-1.1c-0.1-0.3-0.2-0.6-0.5-0.8c-0.2-0.2-0.6-0.3-0.9-0.3c-0.5,0-1,0.2-1.3,0.6c-0.3,0.4-0.5,1-0.5,1.7
		c0,0.7,0.2,1.2,0.5,1.7c0.3,0.4,0.8,0.6,1.3,0.6c0.4,0,0.7-0.1,0.9-0.3c0.2-0.2,0.4-0.5,0.5-0.8h1.1c-0.1,0.6-0.4,1.1-0.8,1.5
		c-0.4,0.4-1,0.5-1.7,0.5C207.2,164.5,206.5,164.2,206,163.6z"/>
	<path class="st4" d="M215.8,162.5h1c-0.1,0.6-0.4,1.1-0.8,1.4s-1,0.5-1.7,0.5c-0.8,0-1.5-0.3-2.1-0.9s-0.8-1.4-0.8-2.3
		c0-0.9,0.3-1.7,0.8-2.3c0.5-0.6,1.2-0.9,2-0.9c0.8,0,1.5,0.3,1.9,0.8c0.5,0.6,0.7,1.3,0.7,2.2v0.4h-4.4c0,0.7,0.2,1.2,0.5,1.6
		c0.3,0.4,0.8,0.6,1.3,0.6c0.4,0,0.7-0.1,1-0.3C215.6,163.1,215.7,162.9,215.8,162.5z M214.3,158.9c-0.5,0-0.9,0.2-1.2,0.5
		c-0.3,0.3-0.5,0.7-0.6,1.3h3.3c0-0.5-0.1-0.9-0.4-1.2C215.2,159.1,214.8,158.9,214.3,158.9z"/>
</g>
<g class="st3">
	<path class="st4" d="M33.6,175.7c0.5,0.6,0.8,1.4,0.8,2.3c0,1-0.3,1.7-0.8,2.3c-0.5,0.6-1.2,0.9-2.1,0.9c-0.8,0-1.5-0.3-2.1-0.9
		c-0.5-0.6-0.8-1.4-0.8-2.3c0-1,0.3-1.7,0.8-2.3c0.5-0.6,1.2-0.9,2.1-0.9C32.3,174.8,33,175.1,33.6,175.7z M32.8,179.7
		c0.3-0.4,0.5-1,0.5-1.7c0-0.7-0.2-1.2-0.5-1.7c-0.3-0.4-0.8-0.6-1.3-0.6c-0.6,0-1,0.2-1.3,0.6c-0.3,0.4-0.5,1-0.5,1.7
		c0,0.7,0.2,1.2,0.5,1.7c0.3,0.4,0.8,0.6,1.3,0.6C32,180.4,32.5,180.2,32.8,179.7z"/>
	<path class="st4" d="M35.8,181.2V175h1v0.8c0.2-0.3,0.5-0.5,0.8-0.7c0.3-0.2,0.7-0.3,1.1-0.3c0.7,0,1.2,0.2,1.6,0.6
		c0.4,0.4,0.6,1,0.6,1.7v4.1h-1.1v-3.9c0-0.4-0.1-0.8-0.3-1.1c-0.2-0.3-0.6-0.4-1-0.4c-0.4,0-0.7,0.1-1,0.3
		c-0.3,0.2-0.5,0.5-0.6,0.8v4.2H35.8z"/>
	<path class="st4" d="M48.3,172.6v8.6h-1.1v-7.3l-2.1,1.1v-1.1l2.5-1.3H48.3z"/>
	<path class="st4" d="M52.7,176.6c-0.6,0-1.1,0.2-1.5,0.7h-0.9v-4.7H55v1h-3.8v2.6c0.4-0.4,0.9-0.5,1.6-0.5c0.8,0,1.4,0.3,1.9,0.8
		c0.5,0.5,0.8,1.2,0.8,2.1c0,0.8-0.3,1.5-0.8,2c-0.5,0.5-1.2,0.8-2,0.8c-0.8,0-1.5-0.2-2-0.7c-0.5-0.5-0.8-1.1-0.9-1.9h1.1
		c0.2,1.1,0.8,1.6,1.9,1.6c0.5,0,0.9-0.2,1.3-0.5s0.5-0.8,0.5-1.4s-0.2-1-0.5-1.4S53.2,176.6,52.7,176.6z"/>
	<path class="st4" d="M56,182.3l3.5-10.3h1l-3.5,10.3H56z"/>
	<path class="st4" d="M66.5,180.1c-0.6,0.8-1.4,1.2-2.3,1.2c-1,0-1.7-0.4-2.3-1.2c-0.6-0.8-0.9-1.9-0.9-3.2c0-1.3,0.3-2.4,0.9-3.2
		c0.6-0.8,1.4-1.2,2.3-1.2c1,0,1.7,0.4,2.3,1.2s0.9,1.9,0.9,3.2C67.4,178.2,67.1,179.3,66.5,180.1z M64.2,173.4
		c-0.7,0-1.2,0.3-1.6,0.9s-0.6,1.5-0.6,2.5s0.2,1.9,0.6,2.5c0.4,0.6,0.9,0.9,1.6,0.9c0.7,0,1.2-0.3,1.6-0.9c0.4-0.6,0.6-1.5,0.6-2.5
		s-0.2-1.9-0.6-2.5C65.4,173.8,64.8,173.4,64.2,173.4z"/>
	<path class="st4" d="M71.3,176.6c-0.6,0-1.1,0.2-1.5,0.7h-0.9v-4.7h4.7v1h-3.8v2.6c0.4-0.4,0.9-0.5,1.6-0.5c0.8,0,1.4,0.3,1.9,0.8
		c0.5,0.5,0.8,1.2,0.8,2.1c0,0.8-0.3,1.5-0.8,2c-0.5,0.5-1.2,0.8-2,0.8c-0.8,0-1.5-0.2-2-0.7c-0.5-0.5-0.8-1.1-0.9-1.9h1.1
		c0.2,1.1,0.8,1.6,1.9,1.6c0.5,0,0.9-0.2,1.3-0.5s0.5-0.8,0.5-1.4s-0.2-1-0.5-1.4S71.8,176.6,71.3,176.6z"/>
	<path class="st4" d="M74.6,182.3l3.5-10.3h1l-3.5,10.3H74.6z"/>
	<path class="st4" d="M82.7,172.6v8.6h-1.1v-7.3l-2.1,1.1v-1.1l2.5-1.3H82.7z"/>
	<path class="st4" d="M87.1,176.6c-0.6,0-1.1,0.2-1.5,0.7h-0.9v-4.7h4.7v1h-3.8v2.6c0.4-0.4,0.9-0.5,1.6-0.5c0.8,0,1.4,0.3,1.9,0.8
		c0.5,0.5,0.8,1.2,0.8,2.1c0,0.8-0.3,1.5-0.8,2c-0.5,0.5-1.2,0.8-2,0.8c-0.8,0-1.5-0.2-2-0.7c-0.5-0.5-0.8-1.1-0.9-1.9h1.1
		c0.2,1.1,0.8,1.6,1.9,1.6c0.5,0,0.9-0.2,1.3-0.5s0.5-0.8,0.5-1.4s-0.2-1-0.5-1.4S87.6,176.6,87.1,176.6z"/>
	<path class="st4" d="M98.9,181.2h-1v-0.5c-0.1,0.1-0.4,0.3-0.7,0.4c-0.3,0.1-0.6,0.2-1,0.2c-0.7,0-1.2-0.2-1.6-0.5
		c-0.4-0.4-0.7-0.8-0.7-1.4c0-0.6,0.2-1,0.7-1.4c0.5-0.4,1-0.5,1.7-0.5c0.3,0,0.6,0.1,0.9,0.2s0.5,0.2,0.7,0.3v-0.8
		c0-0.4-0.1-0.7-0.4-1c-0.2-0.2-0.6-0.4-1-0.4c-0.7,0-1.1,0.3-1.3,0.9h-1c0.1-0.5,0.4-0.9,0.8-1.3c0.4-0.3,0.9-0.5,1.5-0.5
		c0.7,0,1.3,0.2,1.7,0.6c0.4,0.4,0.6,0.9,0.6,1.6V181.2z M97.9,179.6V179c-0.1-0.2-0.3-0.4-0.6-0.6c-0.3-0.1-0.6-0.2-0.9-0.2
		c-0.4,0-0.8,0.1-1,0.3c-0.3,0.2-0.4,0.5-0.4,0.8c0,0.4,0.1,0.6,0.4,0.8c0.3,0.2,0.6,0.3,1,0.3c0.3,0,0.6-0.1,0.9-0.2
		C97.6,180,97.8,179.9,97.9,179.6z"/>
	<path class="st4" d="M100.9,179.6v-3.8h-1V175h1v-1.6h1.1v1.6h1.5v0.9H102v3.6c0,0.6,0.3,0.9,0.8,0.9c0.3,0,0.6-0.1,0.8-0.3v1
		c-0.3,0.1-0.6,0.2-1,0.2c-0.5,0-0.9-0.1-1.2-0.4C101.1,180.6,100.9,180.2,100.9,179.6z"/>
	<path class="st4" d="M110.8,172.6v8.6h-1.1v-7.3l-2.1,1.1v-1.1l2.5-1.3H110.8z"/>
	<path class="st4" d="M117.9,180.1c-0.6,0.8-1.4,1.2-2.3,1.2c-1,0-1.7-0.4-2.3-1.2c-0.6-0.8-0.9-1.9-0.9-3.2c0-1.3,0.3-2.4,0.9-3.2
		c0.6-0.8,1.4-1.2,2.3-1.2c1,0,1.7,0.4,2.3,1.2s0.9,1.9,0.9,3.2C118.8,178.2,118.5,179.3,117.9,180.1z M115.6,173.4
		c-0.7,0-1.2,0.3-1.6,0.9s-0.6,1.5-0.6,2.5s0.2,1.9,0.6,2.5c0.4,0.6,0.9,0.9,1.6,0.9c0.7,0,1.2-0.3,1.6-0.9c0.4-0.6,0.6-1.5,0.6-2.5
		s-0.2-1.9-0.6-2.5C116.8,173.8,116.3,173.4,115.6,173.4z"/>
	<path class="st4" d="M120,176.6c-0.1-0.1-0.2-0.3-0.2-0.5s0.1-0.4,0.2-0.5c0.1-0.1,0.3-0.2,0.5-0.2c0.2,0,0.4,0.1,0.5,0.2
		c0.1,0.1,0.2,0.3,0.2,0.5s-0.1,0.4-0.2,0.5c-0.1,0.1-0.3,0.2-0.5,0.2C120.3,176.8,120.2,176.8,120,176.6z M120,181
		c-0.1-0.1-0.2-0.3-0.2-0.5s0.1-0.4,0.2-0.5c0.1-0.1,0.3-0.2,0.5-0.2c0.2,0,0.4,0.1,0.5,0.2c0.1,0.1,0.2,0.3,0.2,0.5
		s-0.1,0.4-0.2,0.5c-0.1,0.1-0.3,0.2-0.5,0.2C120.3,181.2,120.2,181.2,120,181z"/>
	<path class="st4" d="M127.8,180.1c-0.6,0.8-1.4,1.2-2.3,1.2c-1,0-1.7-0.4-2.3-1.2c-0.6-0.8-0.9-1.9-0.9-3.2c0-1.3,0.3-2.4,0.9-3.2
		c0.6-0.8,1.4-1.2,2.3-1.2c1,0,1.7,0.4,2.3,1.2s0.9,1.9,0.9,3.2C128.7,178.2,128.4,179.3,127.8,180.1z M125.5,173.4
		c-0.7,0-1.2,0.3-1.6,0.9s-0.6,1.5-0.6,2.5s0.2,1.9,0.6,2.5c0.4,0.6,0.9,0.9,1.6,0.9c0.7,0,1.2-0.3,1.6-0.9c0.4-0.6,0.6-1.5,0.6-2.5
		s-0.2-1.9-0.6-2.5C126.7,173.8,126.2,173.4,125.5,173.4z"/>
	<path class="st4" d="M132.6,176.6c-0.6,0-1.1,0.2-1.5,0.7h-0.9v-4.7h4.7v1h-3.8v2.6c0.4-0.4,0.9-0.5,1.6-0.5c0.8,0,1.4,0.3,1.9,0.8
		c0.5,0.5,0.8,1.2,0.8,2.1c0,0.8-0.3,1.5-0.8,2c-0.5,0.5-1.2,0.8-2,0.8c-0.8,0-1.5-0.2-2-0.7c-0.5-0.5-0.8-1.1-0.9-1.9h1.1
		c0.2,1.1,0.8,1.6,1.9,1.6c0.5,0,0.9-0.2,1.3-0.5c0.3-0.4,0.5-0.8,0.5-1.4s-0.2-1-0.5-1.4C133.5,176.7,133.1,176.6,132.6,176.6z"/>
	<path class="st4" d="M144.4,175.7c0.5,0.6,0.8,1.4,0.8,2.3c0,1-0.3,1.7-0.8,2.3c-0.5,0.6-1.2,0.9-2.1,0.9s-1.5-0.3-2.1-0.9
		c-0.5-0.6-0.8-1.4-0.8-2.3c0-1,0.3-1.7,0.8-2.3c0.5-0.6,1.2-0.9,2.1-0.9S143.8,175.1,144.4,175.7z M143.6,179.7
		c0.3-0.4,0.5-1,0.5-1.7c0-0.7-0.2-1.2-0.5-1.7s-0.8-0.6-1.3-0.6s-1,0.2-1.3,0.6c-0.3,0.4-0.5,1-0.5,1.7c0,0.7,0.2,1.2,0.5,1.7
		c0.3,0.4,0.8,0.6,1.3,0.6S143.3,180.2,143.6,179.7z"/>
	<path class="st4" d="M146.6,181.2V175h1.1v0.8c0.2-0.3,0.5-0.5,0.8-0.7c0.3-0.2,0.7-0.3,1.1-0.3c0.7,0,1.2,0.2,1.6,0.6
		c0.4,0.4,0.6,1,0.6,1.7v4.1h-1.1v-3.9c0-0.4-0.1-0.8-0.3-1.1c-0.2-0.3-0.6-0.4-1-0.4c-0.4,0-0.7,0.1-1,0.3s-0.5,0.5-0.6,0.8v4.2
		H146.6z"/>
	<path class="st4" d="M162.8,173.7c0.7,0.8,1.1,1.9,1.1,3.2s-0.4,2.4-1.1,3.2s-1.7,1.2-2.8,1.2c-1.1,0-2.1-0.4-2.8-1.2
		s-1.1-1.9-1.1-3.2s0.4-2.4,1.1-3.2c0.7-0.8,1.7-1.2,2.8-1.2C161.1,172.5,162,172.9,162.8,173.7z M162,179.3
		c0.5-0.6,0.8-1.5,0.8-2.5s-0.3-1.8-0.8-2.5c-0.5-0.6-1.2-1-2-1c-0.8,0-1.5,0.3-2,1c-0.5,0.6-0.8,1.5-0.8,2.5s0.3,1.8,0.8,2.5
		c0.5,0.6,1.2,1,2,1C160.8,180.3,161.5,180,162,179.3z"/>
	<path class="st4" d="M166.4,172.1v9.1h-1v-9.1H166.4z"/>
	<path class="st4" d="M172.3,181.2v-0.7c-0.2,0.2-0.4,0.4-0.7,0.6c-0.3,0.2-0.7,0.2-1,0.2c-0.9,0-1.6-0.3-2.1-0.9
		c-0.5-0.6-0.7-1.4-0.7-2.3c0-0.9,0.2-1.7,0.7-2.3c0.5-0.6,1.2-0.9,2.1-0.9c0.4,0,0.7,0.1,1,0.2c0.3,0.2,0.6,0.4,0.7,0.6v-3.6h1.1
		v9.1H172.3z M172.3,179.3v-2.5c-0.2-0.3-0.4-0.6-0.7-0.7c-0.3-0.2-0.6-0.3-0.9-0.3c-0.6,0-1,0.2-1.4,0.6c-0.3,0.4-0.5,1-0.5,1.6
		c0,0.7,0.2,1.2,0.5,1.6c0.3,0.4,0.8,0.6,1.4,0.6c0.3,0,0.6-0.1,0.9-0.3C172,179.9,172.2,179.6,172.3,179.3z"/>
	<path class="st4" d="M179.6,172.6v4.3l4-4.3h1.4l-3.7,3.9l3.8,4.7h-1.4l-3.2-3.9l-0.9,1v2.9h-1.1v-8.6H179.6z"/>
	<path class="st4" d="M189.8,179.3h1c-0.1,0.6-0.4,1.1-0.8,1.4c-0.4,0.4-1,0.5-1.7,0.5c-0.8,0-1.5-0.3-2.1-0.9s-0.8-1.4-0.8-2.3
		c0-0.9,0.3-1.7,0.8-2.3c0.5-0.6,1.2-0.9,2-0.9c0.8,0,1.5,0.3,1.9,0.8s0.7,1.3,0.7,2.2v0.4h-4.4c0,0.7,0.2,1.2,0.5,1.6
		c0.3,0.4,0.8,0.6,1.3,0.6c0.4,0,0.7-0.1,1-0.3S189.7,179.7,189.8,179.3z M188.3,175.7c-0.5,0-0.9,0.2-1.2,0.5
		c-0.3,0.3-0.5,0.7-0.6,1.3h3.3c0-0.5-0.1-0.9-0.4-1.2C189.2,175.9,188.8,175.7,188.3,175.7z"/>
	<path class="st4" d="M192.3,181.2V175h1v0.8c0.2-0.3,0.5-0.5,0.8-0.7s0.7-0.3,1.1-0.3c0.7,0,1.2,0.2,1.6,0.6c0.4,0.4,0.6,1,0.6,1.7
		v4.1h-1.1v-3.9c0-0.4-0.1-0.8-0.3-1.1c-0.2-0.3-0.6-0.4-1-0.4c-0.4,0-0.7,0.1-1,0.3c-0.3,0.2-0.5,0.5-0.6,0.8v4.2H192.3z"/>
	<path class="st4" d="M199.4,179.6v-3.8h-1V175h1v-1.6h1v1.6h1.5v0.9h-1.5v3.6c0,0.6,0.3,0.9,0.8,0.9c0.3,0,0.6-0.1,0.8-0.3v1
		c-0.3,0.1-0.6,0.2-1,0.2c-0.5,0-0.9-0.1-1.2-0.4C199.6,180.6,199.4,180.2,199.4,179.6z"/>
</g>
<g class="st3">
	<path class="st4" d="M31.8,194.3h-1.5v3.6h-1.1v-8.6h3.2c0.9,0,1.6,0.2,2.1,0.6c0.5,0.4,0.7,1,0.7,1.8c0,0.7-0.2,1.3-0.6,1.7
		c-0.4,0.4-0.9,0.7-1.6,0.8l2.5,3.7h-1.3L31.8,194.3z M30.3,190.3v3.1h2.1c0.6,0,1-0.1,1.3-0.4c0.3-0.3,0.5-0.6,0.5-1.1
		c0-0.5-0.2-0.8-0.5-1.1s-0.7-0.4-1.3-0.4H30.3z"/>
	<path class="st4" d="M41.2,192.5c0.5,0.6,0.8,1.4,0.8,2.3c0,1-0.3,1.7-0.8,2.3c-0.5,0.6-1.2,0.9-2.1,0.9c-0.8,0-1.5-0.3-2.1-0.9
		c-0.5-0.6-0.8-1.4-0.8-2.3c0-1,0.3-1.7,0.8-2.3c0.5-0.6,1.2-0.9,2.1-0.9C40,191.6,40.7,191.9,41.2,192.5z M40.5,196.5
		c0.3-0.4,0.5-1,0.5-1.7c0-0.7-0.2-1.2-0.5-1.7c-0.3-0.4-0.8-0.6-1.3-0.6c-0.6,0-1,0.2-1.3,0.6c-0.3,0.4-0.5,1-0.5,1.7
		c0,0.7,0.2,1.2,0.5,1.7c0.3,0.4,0.8,0.6,1.3,0.6C39.7,197.2,40.1,197,40.5,196.5z"/>
	<path class="st4" d="M47.9,198h-1v-0.5c-0.1,0.1-0.4,0.3-0.7,0.4c-0.3,0.1-0.6,0.2-1,0.2c-0.7,0-1.2-0.2-1.6-0.5
		c-0.4-0.4-0.7-0.8-0.7-1.4c0-0.6,0.2-1,0.7-1.4c0.5-0.4,1-0.5,1.7-0.5c0.3,0,0.6,0.1,0.9,0.2s0.5,0.2,0.7,0.3v-0.8
		c0-0.4-0.1-0.7-0.4-1c-0.2-0.2-0.6-0.4-1-0.4c-0.7,0-1.1,0.3-1.3,0.9h-1c0.1-0.5,0.4-0.9,0.8-1.3c0.4-0.3,0.9-0.5,1.5-0.5
		c0.7,0,1.3,0.2,1.7,0.6c0.4,0.4,0.6,0.9,0.6,1.6V198z M46.9,196.4v-0.6c-0.1-0.2-0.3-0.4-0.6-0.6c-0.3-0.1-0.6-0.2-0.9-0.2
		c-0.4,0-0.8,0.1-1,0.3c-0.3,0.2-0.4,0.5-0.4,0.8c0,0.4,0.1,0.6,0.4,0.8c0.3,0.2,0.6,0.3,1,0.3c0.3,0,0.6-0.1,0.9-0.2
		C46.7,196.8,46.8,196.7,46.9,196.4z"/>
	<path class="st4" d="M53.8,198v-0.7c-0.2,0.2-0.4,0.4-0.7,0.6s-0.7,0.2-1,0.2c-0.9,0-1.6-0.3-2.1-0.9s-0.7-1.4-0.7-2.3
		c0-0.9,0.2-1.7,0.7-2.3c0.5-0.6,1.2-0.9,2.1-0.9c0.4,0,0.7,0.1,1,0.2s0.6,0.4,0.7,0.6v-3.6h1.1v9.1H53.8z M53.8,196.1v-2.5
		c-0.2-0.3-0.4-0.6-0.7-0.7c-0.3-0.2-0.6-0.3-0.9-0.3c-0.6,0-1,0.2-1.4,0.6s-0.5,1-0.5,1.6c0,0.7,0.2,1.2,0.5,1.6s0.8,0.6,1.4,0.6
		c0.3,0,0.6-0.1,0.9-0.3C53.5,196.7,53.7,196.4,53.8,196.1z"/>
</g>
<line class="st5" x1="248.9" y1="115.3" x2="8.4" y2="115.3"/>
<line class="st5" x1="8.4" y1="226.7" x2="248.9" y2="226.7"/>
<polyline class="st6" points="2.4,340.6 244.5,340.7 249.5,225.9 248.9,115.3 243.6,1.1 "/>
<g>
	<g>
		<path d="M36.1,58.1l-0.5-6l-1.9,6h-1.4l-3-5.9l0.5,5.9h-1.6l-0.7-8.5h2.2l3.1,6.1l2-6.1H37l0.7,8.5H36.1z"/>
		<path d="M42.8,53.8c-0.2,0-0.3,0-0.5,0s-0.4,0-0.6,0.1c-0.2,0.1-0.3,0.1-0.5,0.3c-0.1,0.1-0.2,0.3-0.3,0.5s-0.1,0.5-0.1,0.8
			l0.2,2.7h-1.6l-0.4-6h1.5l0.1,0.9c0.1-0.2,0.2-0.4,0.3-0.5s0.3-0.2,0.4-0.3c0.2-0.1,0.3-0.1,0.5-0.1s0.3,0,0.4,0
			c0.1,0,0.1,0,0.2,0c0.1,0,0.1,0,0.2,0L42.8,53.8z"/>
		<path d="M52.7,58.1l-0.3-3.5h-3.7l0.3,3.5h-1.7l-0.7-8.5h1.7l0.3,3.4h3.7L52,49.6h1.7l0.7,8.5H52.7z"/>
		<path d="M55.7,56.5c0-0.3,0-0.5,0.1-0.7s0.2-0.4,0.3-0.5c0.1-0.2,0.3-0.3,0.5-0.4c0.2-0.1,0.4-0.2,0.7-0.2l1.4-0.2
			c0.2,0,0.3-0.1,0.3-0.2c0.1-0.1,0.1-0.2,0.1-0.3c0-0.2-0.1-0.4-0.3-0.5s-0.4-0.2-0.8-0.2c-0.4,0-0.6,0.1-0.8,0.3
			C57.1,53.8,57,54,57,54.2l-1.4-0.3c0-0.2,0.1-0.5,0.2-0.7c0.1-0.2,0.2-0.4,0.4-0.6s0.4-0.3,0.7-0.5c0.3-0.1,0.6-0.2,1-0.2
			c0.5,0,0.9,0.1,1.2,0.2c0.3,0.1,0.6,0.3,0.8,0.5s0.4,0.4,0.5,0.7s0.2,0.6,0.2,0.9l0.3,2.9c0,0.2,0,0.3,0.1,0.5
			c0,0.2,0.1,0.3,0.1,0.4h-1.5c0-0.1,0-0.2-0.1-0.3c0-0.1,0-0.3-0.1-0.4c-0.1,0.2-0.3,0.4-0.6,0.6c-0.3,0.2-0.6,0.3-1.1,0.3
			c-0.3,0-0.6,0-0.9-0.1c-0.3-0.1-0.5-0.2-0.7-0.4s-0.3-0.4-0.5-0.6S55.7,56.7,55.7,56.5z M58.1,57.1c0.2,0,0.3,0,0.5-0.1
			c0.2,0,0.3-0.1,0.4-0.2s0.2-0.2,0.3-0.4s0.1-0.4,0.1-0.7v-0.3l-1.3,0.2c-0.2,0-0.4,0.1-0.5,0.2c-0.1,0.1-0.2,0.3-0.2,0.5
			s0.1,0.3,0.2,0.5S57.8,57.1,58.1,57.1z"/>
		<path d="M65.9,53.8c-0.2,0-0.3,0-0.5,0s-0.4,0-0.6,0.1s-0.3,0.1-0.5,0.3c-0.1,0.1-0.2,0.3-0.3,0.5c0,0.1,0,0.4,0,0.7l0.2,2.7h-1.6
			l-0.5-5.9h1.5l0.1,0.9c0.1-0.2,0.2-0.4,0.3-0.5c0.1-0.1,0.3-0.2,0.4-0.3c0.2-0.1,0.3-0.1,0.5-0.1s0.3,0,0.4,0s0.1,0,0.2,0
			s0.1,0,0.2,0L65.9,53.8z"/>
		<path d="M70.6,53.8c-0.2,0-0.3,0-0.5,0s-0.4,0-0.6,0.1S69.2,54,69,54.2c-0.1,0.1-0.2,0.3-0.3,0.5s-0.1,0.5-0.1,0.8l0.2,2.7h-1.6
			l-0.5-5.9h1.5l0.1,0.9c0.1-0.2,0.2-0.4,0.3-0.5c0.1-0.1,0.3-0.2,0.4-0.3c0.2-0.1,0.3-0.1,0.5-0.1s0.3,0,0.4,0s0.1,0,0.2,0
			s0.1,0,0.2,0L70.6,53.8z"/>
		<path d="M72.9,60.4l1.1-3.1l-3-5.2h1.8l1.9,3.5l1.1-3.5h1.7l-3,8.2L72.9,60.4L72.9,60.4z"/>
		<path d="M90.9,49.6h1.7L91,58.1h-1.7L86.8,52l-1.4,6.1h-1.7l-3.1-8.5h1.8l2.1,5.9l1.4-5.9h1.7l2.4,5.9L90.9,49.6z"/>
		<path d="M93.5,50.2c0-0.3,0.1-0.5,0.2-0.7c0.2-0.2,0.4-0.3,0.7-0.3c0.3,0,0.5,0.1,0.7,0.3s0.3,0.4,0.3,0.7s-0.1,0.5-0.2,0.7
			c-0.2,0.2-0.4,0.3-0.7,0.3c-0.3,0-0.5-0.1-0.7-0.3C93.6,50.7,93.5,50.5,93.5,50.2z M94.3,58.1l-0.5-5.9h1.6l0.5,5.9H94.3z"/>
		<path d="M99.2,58.1h-1.6l-0.5-5.9h1.5l0.1,0.7c0.2-0.3,0.4-0.5,0.7-0.7c0.3-0.1,0.6-0.2,0.9-0.2c0.4,0,0.7,0.1,1,0.2
			c0.3,0.1,0.5,0.3,0.7,0.5s0.3,0.5,0.5,0.7c0.1,0.3,0.2,0.6,0.2,0.9L103,58h-1.6l-0.3-3.4c0-0.3-0.1-0.6-0.3-0.8
			c-0.2-0.2-0.5-0.3-0.9-0.3s-0.6,0.1-0.8,0.4c-0.2,0.2-0.2,0.5-0.2,0.9L99.2,58.1z"/>
		<path d="M110.2,57c0,0.2,0,0.4,0.1,0.6c0,0.2,0.1,0.4,0.1,0.5h-1.5c0-0.1,0-0.2-0.1-0.3s0-0.3-0.1-0.4c-0.1,0.2-0.3,0.4-0.6,0.6
			c-0.3,0.2-0.6,0.2-1,0.2s-0.8-0.1-1.2-0.2c-0.4-0.2-0.7-0.4-1-0.6c-0.3-0.3-0.5-0.6-0.7-1s-0.3-0.8-0.3-1.2s0-0.8,0.1-1.2
			s0.3-0.7,0.5-1s0.5-0.5,0.8-0.7s0.7-0.2,1.1-0.2c0.3,0,0.5,0,0.7,0.1c0.2,0,0.4,0.1,0.5,0.2c0.1,0.1,0.3,0.1,0.4,0.2
			s0.2,0.2,0.2,0.2l-0.3-3.4h1.6L110.2,57z M105.6,55.1c0,0.5,0.2,0.9,0.5,1.2s0.7,0.4,1.1,0.4s0.7-0.1,1-0.4s0.4-0.7,0.3-1.2
			c0-0.5-0.2-0.9-0.5-1.2s-0.7-0.4-1.1-0.4s-0.7,0.1-1,0.4S105.5,54.6,105.6,55.1z"/>
		<path d="M117.2,56.4c0,0.3-0.1,0.5-0.3,0.7c-0.1,0.2-0.3,0.4-0.5,0.6c-0.2,0.2-0.5,0.3-0.8,0.4c-0.3,0.1-0.6,0.2-1,0.2
			s-0.8-0.1-1.2-0.2c-0.4-0.1-0.7-0.3-1-0.6s-0.6-0.6-0.8-1c-0.2-0.4-0.3-0.8-0.4-1.3c0-0.5,0-0.9,0.1-1.3c0.1-0.4,0.3-0.7,0.6-1
			c0.2-0.3,0.5-0.5,0.9-0.6c0.3-0.1,0.7-0.2,1.1-0.2c0.9,0,1.7,0.3,2.2,0.8c0.6,0.5,0.9,1.3,1,2.2c0,0.1,0,0.2,0,0.3s0,0.2,0,0.2
			h-4.2c0,0.2,0.1,0.4,0.2,0.5c0.1,0.2,0.2,0.3,0.4,0.4c0.1,0.1,0.3,0.2,0.5,0.3s0.4,0.1,0.6,0.1c0.4,0,0.7-0.1,0.9-0.3
			s0.3-0.4,0.4-0.6L117.2,56.4z M115.5,54.5c0-0.1-0.1-0.3-0.1-0.4c-0.1-0.1-0.2-0.3-0.3-0.4c-0.1-0.1-0.3-0.2-0.4-0.3
			c-0.2-0.1-0.4-0.1-0.6-0.1s-0.4,0-0.5,0.1c-0.2,0.1-0.3,0.2-0.4,0.3s-0.2,0.2-0.2,0.4c0,0.1-0.1,0.3-0.1,0.4H115.5z"/>
		<path d="M121.9,53.8c-0.2,0-0.3,0-0.5,0s-0.4,0-0.6,0.1s-0.3,0.1-0.5,0.3c-0.1,0.1-0.2,0.3-0.3,0.5s-0.1,0.5-0.1,0.8l0.2,2.7h-1.6
			l-0.5-5.9h1.5l0.1,0.9c0.1-0.2,0.2-0.4,0.3-0.5c0.1-0.1,0.3-0.2,0.4-0.3c0.2-0.1,0.3-0.1,0.5-0.1s0.3,0,0.4,0s0.1,0,0.2,0
			s0.1,0,0.2,0L121.9,53.8z"/>
		<path d="M125.7,50.7c-0.1,0-0.2,0-0.3,0c-0.1,0-0.2,0.1-0.3,0.1c-0.1,0.1-0.1,0.1-0.2,0.2c0,0.1-0.1,0.2,0,0.4L125,52h1.3l0.1,1.4
			h-1.3l0.4,4.5h-1.6l-0.4-4.5h-1l-0.1-1.4h1l-0.1-0.7c0-0.3,0-0.6,0.1-0.9c0.1-0.3,0.2-0.5,0.4-0.7c0.2-0.2,0.4-0.3,0.6-0.4
			c0.3-0.1,0.5-0.2,0.9-0.2c0.2,0,0.3,0,0.5,0c0.1,0,0.3,0.1,0.3,0.1l0.1,1.3c0,0-0.1,0-0.2,0C125.9,50.7,125.8,50.7,125.7,50.7z"/>
		<path d="M132.9,56.4c0,0.3-0.1,0.5-0.3,0.7c-0.1,0.2-0.3,0.4-0.5,0.6c-0.2,0.2-0.5,0.3-0.8,0.4c-0.3,0.1-0.6,0.2-1,0.2
			s-0.8-0.1-1.2-0.2c-0.4-0.1-0.7-0.3-1-0.6s-0.6-0.6-0.8-1c-0.2-0.4-0.3-0.8-0.4-1.3c0-0.5,0-0.9,0.1-1.3c0.1-0.4,0.3-0.7,0.6-1
			c0.2-0.3,0.5-0.5,0.9-0.6c0.3-0.1,0.7-0.2,1.1-0.2c0.9,0,1.7,0.3,2.2,0.8c0.6,0.5,0.9,1.3,1,2.2c0,0.1,0,0.2,0,0.3s0,0.2,0,0.2
			h-4.2c0,0.2,0.1,0.4,0.2,0.5s0.2,0.3,0.4,0.4c0.1,0.1,0.3,0.2,0.5,0.3s0.4,0.1,0.6,0.1c0.4,0,0.7-0.1,0.9-0.3s0.3-0.4,0.4-0.6
			L132.9,56.4z M131.2,54.5c0-0.1-0.1-0.3-0.1-0.4c-0.1-0.1-0.2-0.3-0.3-0.4c-0.1-0.1-0.3-0.2-0.4-0.3s-0.4-0.1-0.6-0.1
			c-0.2,0-0.4,0-0.5,0.1c-0.2,0.1-0.3,0.2-0.4,0.3c-0.1,0.1-0.2,0.2-0.2,0.4c0,0.1-0.1,0.3-0.1,0.4H131.2z"/>
		<path d="M134.4,58.1l-0.8-8.7h1.6l0.8,8.7H134.4z"/>
		<path d="M30.9,72.5l-0.5-5.8h-2l-0.1-1.1c0.3,0,0.6-0.1,0.8-0.1c0.2-0.1,0.5-0.2,0.6-0.3c0.2-0.1,0.3-0.3,0.4-0.5s0.2-0.4,0.2-0.6
			h1.4l0.7,8.5L30.9,72.5L30.9,72.5z"/>
		<path d="M33.8,67.1c0-0.1,0-0.1-0.1-0.2c0-0.1,0-0.2,0-0.3c0-0.4,0-0.7,0.1-1.1c0.1-0.3,0.3-0.6,0.5-0.9s0.5-0.5,0.9-0.6
			c0.4-0.2,0.8-0.2,1.3-0.2s0.9,0.1,1.3,0.2c0.4,0.1,0.7,0.3,1,0.6c0.3,0.2,0.5,0.5,0.7,0.9c0.2,0.3,0.3,0.7,0.3,1
			c0,0.6-0.1,1.1-0.3,1.5s-0.6,0.8-1.1,1.1l-1.6,1c-0.2,0.1-0.3,0.2-0.5,0.4c-0.1,0.1-0.2,0.3-0.3,0.5h4.1l0.1,1.5H34
			c0-0.4,0-0.7,0-1s0.1-0.6,0.3-0.9s0.3-0.6,0.5-0.8c0.2-0.3,0.5-0.5,0.9-0.7l1.3-0.9c0.3-0.2,0.6-0.5,0.7-0.7
			c0.1-0.2,0.2-0.5,0.2-0.8c0-0.2-0.1-0.3-0.1-0.5s-0.2-0.3-0.3-0.4s-0.3-0.2-0.4-0.3c-0.2-0.1-0.4-0.1-0.6-0.1
			c-0.5,0-0.8,0.1-1,0.4s-0.3,0.6-0.3,1.1c0,0.1,0,0.2,0,0.2c0,0.1,0,0.2,0.1,0.2L33.8,67.1z"/>
		<path d="M41.8,70.8c0.2,0.1,0.4,0.2,0.7,0.2c0.3,0.1,0.6,0.1,0.9,0.1c0.8,0,1.5-0.2,1.9-0.7s0.6-1.1,0.6-1.9
			c-0.1,0.3-0.4,0.5-0.7,0.7s-0.8,0.3-1.2,0.3s-0.8-0.1-1.1-0.2c-0.4-0.1-0.7-0.3-1-0.6c-0.3-0.2-0.5-0.5-0.7-0.9s-0.3-0.8-0.3-1.2
			c0-0.4,0-0.8,0.1-1.2c0.1-0.4,0.3-0.7,0.6-0.9c0.3-0.3,0.6-0.5,1-0.6s0.8-0.2,1.3-0.2c0.4,0,0.9,0.1,1.3,0.2
			c0.4,0.2,0.8,0.4,1.1,0.7s0.6,0.7,0.8,1.2s0.4,1.1,0.4,1.8c0.1,0.8,0,1.5-0.1,2.1s-0.4,1.1-0.7,1.5s-0.8,0.7-1.3,1
			c-0.5,0.2-1.2,0.3-1.9,0.3c-0.2,0-0.4,0-0.5,0c-0.2,0-0.4-0.1-0.5-0.1s-0.3-0.1-0.5-0.1c-0.2-0.1-0.3-0.1-0.4-0.2L41.8,70.8z
			 M45.5,66.7c0-0.2-0.1-0.4-0.2-0.6c-0.1-0.2-0.2-0.3-0.4-0.5c-0.2-0.1-0.3-0.2-0.5-0.3c-0.2-0.1-0.4-0.1-0.6-0.1
			c-0.2,0-0.4,0-0.6,0.1c-0.2,0.1-0.3,0.2-0.5,0.3c-0.1,0.1-0.2,0.3-0.3,0.5s-0.1,0.4-0.1,0.6s0.1,0.4,0.2,0.6
			c0.1,0.2,0.2,0.3,0.4,0.5c0.2,0.1,0.3,0.2,0.5,0.3c0.2,0.1,0.4,0.1,0.6,0.1c0.2,0,0.4,0,0.6-0.1c0.2-0.1,0.3-0.2,0.5-0.3
			c0.1-0.1,0.2-0.3,0.3-0.5S45.5,66.9,45.5,66.7z"/>
		<path d="M51.5,68.2c-0.1-0.7,0-1.3,0.2-1.9c0.2-0.5,0.5-1,0.8-1.4c0.4-0.4,0.8-0.7,1.3-0.9c0.5-0.2,1.1-0.3,1.6-0.3
			s1.1,0.1,1.7,0.3c0.6,0.2,1,0.5,1.5,0.9c0.4,0.4,0.8,0.9,1.1,1.4s0.5,1.2,0.5,1.9s0,1.3-0.2,1.8s-0.5,1-0.8,1.4
			c-0.4,0.4-0.8,0.7-1.3,0.9s-1.1,0.3-1.6,0.3s-1.1-0.1-1.7-0.3c-0.5-0.2-1-0.5-1.5-0.9C52.7,71,52.3,70.6,52,70
			C51.7,69.5,51.5,68.9,51.5,68.2z M53.2,68.2c0,0.5,0.2,0.9,0.3,1.3c0.2,0.4,0.4,0.6,0.7,0.9c0.3,0.2,0.6,0.4,0.9,0.5
			c0.3,0.1,0.7,0.2,1,0.2s0.6-0.1,1-0.2c0.3-0.1,0.6-0.3,0.8-0.5s0.4-0.5,0.5-0.9s0.2-0.8,0.1-1.3c0-0.5-0.2-0.9-0.3-1.3
			c-0.2-0.4-0.4-0.6-0.7-0.9c-0.3-0.2-0.6-0.4-0.9-0.5c-0.3-0.1-0.7-0.2-1-0.2s-0.6,0.1-1,0.2c-0.3,0.1-0.6,0.3-0.8,0.5
			s-0.4,0.5-0.5,0.9C53.2,67.3,53.1,67.7,53.2,68.2z"/>
		<path d="M61.9,72.5l-0.8-8.7h1.6l0.8,8.7H61.9z"/>
		<path d="M70.7,71.4c0,0.2,0,0.4,0.1,0.6c0,0.2,0.1,0.4,0.1,0.5h-1.5c0-0.1,0-0.2-0.1-0.3s0-0.3-0.1-0.4c-0.1,0.2-0.3,0.4-0.6,0.6
			c-0.3,0.2-0.6,0.2-1,0.2s-0.8-0.1-1.2-0.2c-0.4-0.2-0.7-0.4-1-0.6c-0.3-0.3-0.5-0.6-0.7-1s-0.3-0.8-0.3-1.2c0-0.4,0-0.8,0.1-1.2
			c0.1-0.4,0.3-0.7,0.5-1s0.5-0.5,0.8-0.7s0.7-0.2,1.1-0.2c0.3,0,0.5,0,0.7,0.1c0.2,0,0.4,0.1,0.5,0.2s0.3,0.1,0.4,0.2
			s0.2,0.2,0.2,0.2l-0.3-3.4H70L70.7,71.4z M66.1,69.5c0,0.5,0.2,0.9,0.5,1.2c0.3,0.3,0.7,0.4,1.1,0.4s0.7-0.1,1-0.4S69,70,69,69.5
			s-0.2-0.9-0.5-1.2c-0.3-0.3-0.7-0.4-1.1-0.4s-0.7,0.1-1,0.4C66.1,68.6,66,69,66.1,69.5z"/>
		<path d="M76.2,70.5c0,0.2,0.2,0.4,0.3,0.6s0.5,0.3,0.8,0.3s0.5-0.1,0.6-0.2s0.2-0.3,0.2-0.4s-0.1-0.3-0.2-0.4s-0.3-0.2-0.5-0.2
			L76.6,70c-0.6-0.1-1-0.3-1.3-0.7c-0.3-0.3-0.5-0.7-0.5-1.1c0-0.3,0-0.5,0.1-0.8c0.1-0.2,0.2-0.4,0.4-0.6c0.2-0.2,0.4-0.3,0.7-0.4
			c0.3-0.1,0.5-0.2,0.9-0.2s0.8,0.1,1.1,0.2c0.3,0.1,0.5,0.3,0.7,0.4c0.2,0.2,0.3,0.4,0.5,0.6c0.1,0.2,0.2,0.4,0.2,0.5L78,68.4
			c0-0.1-0.1-0.2-0.1-0.3c0-0.1-0.1-0.2-0.2-0.3c-0.1-0.1-0.2-0.1-0.3-0.2c-0.1,0-0.3-0.1-0.4-0.1c-0.2,0-0.4,0.1-0.5,0.2
			s-0.2,0.3-0.2,0.4s0.1,0.3,0.2,0.3c0.1,0.1,0.2,0.1,0.4,0.2l0.9,0.2c0.6,0.1,1.1,0.3,1.4,0.7s0.5,0.7,0.5,1.1c0,0.2,0,0.5-0.1,0.7
			s-0.2,0.4-0.4,0.6c-0.2,0.2-0.4,0.3-0.7,0.4c-0.3,0.1-0.6,0.2-1,0.2s-0.8-0.1-1.1-0.2c-0.3-0.1-0.6-0.3-0.8-0.5
			c-0.2-0.2-0.4-0.4-0.5-0.6s-0.2-0.4-0.2-0.6L76.2,70.5z"/>
		<path d="M82.5,66.6h1.2l0.1,1.4h-1.2l0.2,2.5c0,0.3,0.1,0.4,0.2,0.5s0.3,0.1,0.5,0.1c0.1,0,0.2,0,0.3,0c0.1,0,0.2,0,0.2,0l0.1,1.3
			c-0.1,0-0.2,0.1-0.3,0.1c-0.1,0-0.3,0-0.6,0c-0.6,0-1-0.2-1.4-0.5s-0.6-0.8-0.6-1.3L81,68h-1.1l-0.1-1.4h0.3
			c0.3,0,0.5-0.1,0.7-0.3c0.1-0.2,0.2-0.4,0.2-0.7l-0.1-0.8h1.4L82.5,66.6z"/>
		<path d="M34.5,80.9c0-0.1-0.1-0.2-0.2-0.4c-0.1-0.1-0.2-0.3-0.3-0.4s-0.3-0.2-0.5-0.3c-0.2-0.1-0.4-0.1-0.7-0.1
			c-0.2,0-0.4,0-0.5,0.1c-0.2,0.1-0.3,0.1-0.4,0.2s-0.2,0.2-0.2,0.3c-0.1,0.1-0.1,0.3-0.1,0.4c0,0.2,0.1,0.4,0.3,0.6
			c0.2,0.2,0.4,0.3,0.7,0.4l1.2,0.2c0.4,0.1,0.7,0.2,1,0.3s0.6,0.4,0.8,0.6s0.4,0.5,0.5,0.7c0.1,0.3,0.2,0.6,0.2,0.9s0,0.7-0.1,1
			s-0.3,0.6-0.5,0.8c-0.2,0.2-0.5,0.4-0.9,0.6S34,87,33.5,87c-0.6,0-1.1-0.1-1.5-0.2c-0.4-0.2-0.8-0.4-1.1-0.6
			c-0.3-0.3-0.5-0.5-0.7-0.9c-0.2-0.3-0.3-0.6-0.3-0.9l1.5-0.4c0,0.2,0.1,0.4,0.2,0.6s0.2,0.4,0.4,0.5c0.2,0.1,0.4,0.3,0.6,0.4
			c0.2,0.1,0.5,0.1,0.8,0.1c0.4,0,0.8-0.1,1-0.3c0.2-0.2,0.3-0.4,0.3-0.8c0-0.2-0.1-0.5-0.3-0.6c-0.2-0.2-0.5-0.3-0.8-0.4l-1.2-0.2
			c-0.7-0.1-1.3-0.4-1.7-0.8c-0.4-0.4-0.7-1-0.7-1.6c0-0.4,0-0.7,0.1-1.1c0.1-0.3,0.3-0.6,0.6-0.8c0.3-0.2,0.6-0.4,0.9-0.6
			c0.3-0.1,0.7-0.2,1.1-0.2c0.5,0,1,0.1,1.3,0.2c0.4,0.1,0.7,0.3,1,0.5s0.5,0.5,0.6,0.7c0.2,0.3,0.3,0.5,0.3,0.8L34.5,80.9z"/>
		<path d="M38,86.9l-0.7-8.5h5.3l0.1,1.6H39l0.2,1.9h3.3l0.1,1.5h-3.3l0.2,2h3.7l0.1,1.6L38,86.9L38,86.9z"/>
		<path d="M46.4,86.9l-0.5-5.8h-2L43.8,80c0.3,0,0.6-0.1,0.8-0.1s0.5-0.2,0.6-0.3c0.2-0.1,0.3-0.3,0.4-0.5c0.1-0.2,0.2-0.4,0.2-0.6
			h1.4l0.7,8.5L46.4,86.9L46.4,86.9z"/>
		<path d="M55,79.8c-0.1,0.1-0.2,0.2-0.4,0.4c-0.2,0.2-0.4,0.4-0.6,0.7c-0.2,0.3-0.4,0.6-0.6,1c-0.2,0.4-0.4,0.8-0.6,1.3
			c-0.2,0.5-0.3,1-0.4,1.6c-0.1,0.6-0.2,1.3-0.2,2h-1.7c0-0.6,0-1.1,0.1-1.6s0.2-1,0.3-1.4s0.3-0.8,0.4-1.2c0.2-0.4,0.3-0.7,0.5-1
			c0.4-0.7,0.8-1.3,1.3-1.8h-4.5l-0.1-1.4h6.4L55,79.8z"/>
		<path d="M64.5,79.8c-0.1,0.1-0.2,0.2-0.4,0.4c-0.2,0.2-0.4,0.4-0.6,0.7c-0.2,0.3-0.4,0.6-0.6,1c-0.2,0.4-0.4,0.8-0.6,1.3
			c-0.2,0.5-0.3,1-0.4,1.6c-0.1,0.6-0.2,1.3-0.2,2H60c0-0.6,0-1.1,0.1-1.6s0.2-1,0.3-1.4s0.3-0.8,0.4-1.2c0.2-0.4,0.3-0.7,0.5-1
			c0.4-0.7,0.8-1.3,1.3-1.8h-4.5L58,78.4h6.4L64.5,79.8z"/>
		<path d="M66.2,86.9l-0.7-8.5h5.3l0.1,1.6h-3.7l0.2,1.9h3.3l0.1,1.5h-3.3l0.2,2h3.7l0.1,1.6L66.2,86.9L66.2,86.9z"/>
		<path d="M73.1,86.9l-0.7-8.5h5.4l0.1,1.6h-3.7l0.2,2.1h3.3l0.1,1.5h-3.3l0.3,3.3H73.1z"/>
	</g>
</g>
<g>
	<path class="st7" d="M38.1,263.2l0.4-4.7h-4.9l-0.4,4.7H31l1-11.3h2.2l-0.4,4.6h4.9l0.4-4.6h2.2l-1,11.3L38.1,263.2L38.1,263.2z"/>
	<path class="st7" d="M46.9,255.1c0.6,0,1.1,0.1,1.6,0.3s0.9,0.5,1.2,0.9c0.3,0.4,0.6,0.8,0.7,1.3c0.2,0.5,0.2,1.1,0.2,1.7
		c-0.1,0.6-0.2,1.2-0.5,1.7s-0.6,0.9-1,1.3s-0.9,0.7-1.4,0.9c-0.5,0.2-1.1,0.3-1.7,0.3s-1.1-0.1-1.6-0.3c-0.5-0.2-0.9-0.5-1.2-0.9
		s-0.6-0.8-0.7-1.3c-0.2-0.5-0.2-1.1-0.2-1.7c0.1-0.6,0.2-1.2,0.5-1.7s0.6-1,1-1.3c0.4-0.4,0.9-0.7,1.4-0.9
		C45.8,255.2,46.4,255.1,46.9,255.1z M46.4,261.5c0.3,0,0.5,0,0.8-0.1s0.5-0.2,0.7-0.4c0.2-0.2,0.4-0.4,0.5-0.7
		c0.1-0.3,0.2-0.6,0.3-1c0-0.4,0-0.7-0.1-1s-0.2-0.5-0.4-0.7s-0.4-0.3-0.6-0.4c-0.2-0.1-0.5-0.1-0.7-0.1s-0.5,0-0.8,0.1
		s-0.5,0.2-0.7,0.4c-0.2,0.2-0.4,0.4-0.5,0.7c-0.1,0.3-0.2,0.6-0.3,1c0,0.4,0,0.7,0.1,1s0.2,0.5,0.4,0.7s0.4,0.3,0.6,0.4
		C45.9,261.5,46.1,261.5,46.4,261.5z"/>
	<path class="st7" d="M59.2,255.3l1.3,5.1l1.9-5.1h2.1l-3.2,7.9h-2.1l-1.4-5.4l-2.3,5.4h-2.2l-1.8-7.9h2.2l1,5.1l2.2-5.1L59.2,255.3
		L59.2,255.3z"/>
	<path class="st7" d="M72.4,255.3H74l-0.2,1.9h-1.6l-0.3,3.3c0,0.3,0,0.6,0.2,0.7c0.1,0.1,0.4,0.2,0.7,0.2c0.1,0,0.3,0,0.4,0
		s0.2,0,0.3,0l-0.2,1.8c-0.1,0-0.2,0.1-0.5,0.1c-0.2,0-0.5,0.1-0.8,0.1c-0.8,0-1.4-0.2-1.8-0.6s-0.6-1-0.5-1.8l0.3-3.7h-1.4l0.2-1.9
		h0.4c0.4,0,0.7-0.1,1-0.4c0.2-0.2,0.3-0.5,0.4-0.9l0.1-1.1h1.9L72.4,255.3z"/>
	<path class="st7" d="M79.3,255.1c0.6,0,1.1,0.1,1.6,0.3s0.9,0.5,1.2,0.9c0.3,0.4,0.6,0.8,0.7,1.3c0.2,0.5,0.2,1.1,0.2,1.7
		s-0.2,1.2-0.5,1.7s-0.6,0.9-1,1.3s-0.9,0.7-1.4,0.9c-0.5,0.2-1.1,0.3-1.7,0.3s-1.1-0.1-1.6-0.3c-0.5-0.2-0.9-0.5-1.2-0.9
		c-0.3-0.4-0.6-0.8-0.7-1.3c-0.2-0.5-0.2-1.1-0.2-1.7s0.2-1.2,0.5-1.7s0.6-1,1-1.3c0.4-0.4,0.9-0.7,1.4-0.9
		C78.1,255.2,78.7,255.1,79.3,255.1z M78.7,261.5c0.3,0,0.5,0,0.8-0.1s0.5-0.2,0.7-0.4c0.2-0.2,0.4-0.4,0.5-0.7
		c0.1-0.3,0.2-0.6,0.3-1c0-0.4,0-0.7-0.1-1s-0.2-0.5-0.4-0.7c-0.2-0.2-0.4-0.3-0.6-0.4s-0.5-0.1-0.7-0.1s-0.5,0-0.8,0.1
		s-0.5,0.2-0.7,0.4c-0.2,0.2-0.4,0.4-0.5,0.7c-0.1,0.3-0.2,0.6-0.3,1c0,0.4,0,0.7,0.1,1s0.2,0.5,0.4,0.7c0.2,0.2,0.4,0.3,0.6,0.4
		S78.4,261.5,78.7,261.5z"/>
	<path class="st7" d="M88,261.1c0-0.4,0.1-0.7,0.3-0.9s0.3-0.5,0.6-0.7c0.2-0.2,0.5-0.4,0.8-0.5s0.6-0.2,0.9-0.3l2-0.3
		c0.2,0,0.4-0.1,0.5-0.2s0.1-0.2,0.2-0.4c0-0.3-0.1-0.5-0.3-0.7c-0.2-0.2-0.5-0.3-1-0.3s-0.8,0.1-1.1,0.4c-0.3,0.3-0.4,0.6-0.5,0.9
		l-1.9-0.4c0.1-0.3,0.2-0.6,0.4-0.9c0.2-0.3,0.4-0.6,0.7-0.8c0.3-0.2,0.7-0.4,1.1-0.6s0.9-0.2,1.4-0.2c0.6,0,1.1,0.1,1.6,0.2
		c0.4,0.2,0.8,0.4,1,0.7c0.2,0.3,0.4,0.6,0.5,1s0.1,0.7,0.1,1.1l-0.3,3.9c0,0.2,0,0.4,0,0.7c0,0.2,0,0.4,0,0.6h-2c0-0.1,0-0.3,0-0.4
		s0-0.4,0-0.5c-0.2,0.3-0.5,0.6-0.9,0.8c-0.4,0.2-0.9,0.4-1.5,0.4c-0.4,0-0.8-0.1-1.1-0.2c-0.3-0.1-0.6-0.3-0.8-0.5
		c-0.2-0.2-0.4-0.5-0.5-0.8S88,261.4,88,261.1z M91.1,261.9c0.2,0,0.4,0,0.7-0.1c0.2-0.1,0.4-0.2,0.6-0.3s0.3-0.3,0.4-0.6
		c0.1-0.2,0.2-0.5,0.2-0.9v-0.4l-1.8,0.3c-0.3,0-0.5,0.1-0.7,0.3c-0.2,0.2-0.3,0.4-0.3,0.7c0,0.2,0,0.4,0.2,0.6
		C90.5,261.8,90.8,261.9,91.1,261.9z"/>
	<path class="st7" d="M96.7,266.3l1-10.9h2.1l-0.1,1c0.2-0.3,0.5-0.6,1-0.8s1-0.3,1.5-0.3c0.6,0,1.1,0.1,1.5,0.3s0.8,0.5,1.1,0.9
		c0.3,0.4,0.5,0.8,0.6,1.3s0.1,1,0.1,1.6c-0.1,0.6-0.2,1.1-0.4,1.7c-0.2,0.5-0.5,0.9-0.9,1.3s-0.8,0.7-1.3,0.9
		c-0.5,0.2-1,0.3-1.5,0.3s-1-0.1-1.4-0.3s-0.6-0.4-0.8-0.7l-0.3,3.8L96.7,266.3L96.7,266.3z M103.3,259.3c0.1-0.7-0.1-1.2-0.4-1.6
		s-0.8-0.6-1.3-0.6c-0.3,0-0.5,0.1-0.8,0.2c-0.2,0.1-0.5,0.2-0.7,0.4c-0.2,0.2-0.4,0.4-0.5,0.7c-0.1,0.3-0.2,0.6-0.2,0.9
		s0,0.7,0.1,0.9s0.2,0.5,0.4,0.7c0.2,0.2,0.4,0.3,0.6,0.4s0.5,0.2,0.8,0.2c0.5,0,1-0.2,1.4-0.6C103,260.5,103.2,260,103.3,259.3z"/>
	<path class="st7" d="M106.5,266.3l1-10.9h2.1l-0.1,1c0.2-0.3,0.5-0.6,1-0.8s1-0.3,1.5-0.3c0.6,0,1.1,0.1,1.5,0.3s0.8,0.5,1.1,0.9
		c0.3,0.4,0.5,0.8,0.6,1.3s0.1,1,0.1,1.6c-0.1,0.6-0.2,1.1-0.4,1.7c-0.2,0.5-0.5,0.9-0.9,1.3s-0.8,0.7-1.3,0.9
		c-0.5,0.2-1,0.3-1.5,0.3s-1-0.1-1.4-0.3s-0.6-0.4-0.8-0.7l-0.3,3.8L106.5,266.3L106.5,266.3z M113.1,259.3c0.1-0.7-0.1-1.2-0.4-1.6
		s-0.8-0.6-1.3-0.6c-0.3,0-0.5,0.1-0.8,0.2c-0.2,0.1-0.5,0.2-0.7,0.4c-0.2,0.2-0.4,0.4-0.5,0.7c-0.1,0.3-0.2,0.6-0.2,0.9
		s0,0.7,0.1,0.9s0.2,0.5,0.4,0.7c0.2,0.2,0.4,0.3,0.6,0.4s0.5,0.2,0.8,0.2c0.5,0,1-0.2,1.4-0.6C112.8,260.5,113,260,113.1,259.3z"/>
	<path class="st7" d="M123.8,261c-0.1,0.3-0.3,0.7-0.5,1s-0.5,0.6-0.8,0.8c-0.3,0.2-0.7,0.4-1.1,0.5s-0.9,0.2-1.3,0.2
		c-0.5,0-1.1-0.1-1.5-0.3c-0.5-0.2-0.9-0.5-1.2-0.8c-0.3-0.4-0.6-0.8-0.8-1.3s-0.2-1.1-0.2-1.8c0.1-0.6,0.2-1.2,0.5-1.7
		s0.6-0.9,1-1.3s0.8-0.6,1.3-0.8s1-0.3,1.5-0.3c1.2,0,2.1,0.4,2.8,1.1c0.6,0.7,0.9,1.7,0.8,3c0,0.1,0,0.3-0.1,0.4s0,0.2,0,0.2h-5.6
		c0,0.3,0,0.5,0.1,0.7s0.2,0.4,0.4,0.6c0.2,0.2,0.4,0.3,0.6,0.4s0.5,0.1,0.7,0.1c0.5,0,0.9-0.1,1.2-0.3s0.5-0.5,0.7-0.9L123.8,261z
		 M122,258.4c0-0.2,0-0.4-0.1-0.6s-0.1-0.4-0.3-0.5c-0.1-0.1-0.3-0.3-0.5-0.4s-0.5-0.1-0.8-0.1s-0.5,0-0.7,0.1s-0.4,0.2-0.6,0.4
		s-0.3,0.3-0.4,0.5s-0.2,0.4-0.2,0.5h3.6V258.4z"/>
	<path class="st7" d="M125.1,261.1c0-0.4,0.1-0.7,0.3-0.9s0.3-0.5,0.6-0.7c0.2-0.2,0.5-0.4,0.8-0.5s0.6-0.2,0.9-0.3l2-0.3
		c0.2,0,0.4-0.1,0.5-0.2s0.1-0.2,0.2-0.4c0-0.3-0.1-0.5-0.3-0.7s-0.5-0.3-1-0.3s-0.8,0.1-1.1,0.4s-0.4,0.6-0.5,0.9l-1.9-0.4
		c0.1-0.3,0.2-0.6,0.4-0.9c0.2-0.3,0.4-0.6,0.7-0.8c0.3-0.2,0.7-0.4,1.1-0.6c0.4-0.2,0.9-0.2,1.4-0.2c0.6,0,1.1,0.1,1.6,0.2
		c0.4,0.2,0.8,0.4,1,0.7c0.2,0.3,0.4,0.6,0.5,1s0.1,0.7,0.1,1.1L132,262c0,0.2,0,0.4,0,0.7c0,0.2,0,0.4,0,0.6h-2c0-0.1,0-0.3,0-0.4
		s0-0.4,0-0.5c-0.2,0.3-0.5,0.6-0.9,0.8c-0.4,0.2-0.9,0.4-1.5,0.4c-0.4,0-0.8-0.1-1.1-0.2c-0.3-0.1-0.6-0.3-0.8-0.5
		c-0.2-0.2-0.4-0.5-0.5-0.8S125,261.4,125.1,261.1z M128.2,261.9c0.2,0,0.4,0,0.7-0.1c0.2-0.1,0.4-0.2,0.6-0.3s0.3-0.3,0.4-0.6
		c0.1-0.2,0.2-0.5,0.2-0.9v-0.4l-1.8,0.3c-0.3,0-0.5,0.1-0.7,0.3c-0.2,0.2-0.3,0.4-0.3,0.7c0,0.2,0,0.4,0.2,0.6
		C127.6,261.8,127.8,261.9,128.2,261.9z"/>
	<path class="st7" d="M134,263.2l1-11.6h2.1l-1,11.6H134z"/>
	<path d="M38.4,283.5H40l-3.1,8.5h-1.7l-1.4-6.1l-2.5,6.1h-1.7l-1.6-8.5h1.8l1,5.9l2.4-5.9h1.7l1.4,5.9L38.4,283.5z"/>
	<path d="M43.9,287.7c-0.2,0-0.3,0-0.5,0s-0.4,0-0.6,0.1c-0.2,0.1-0.4,0.1-0.5,0.3c-0.1,0.1-0.3,0.3-0.4,0.5
		c-0.1,0.2-0.2,0.5-0.2,0.8l-0.2,2.7h-1.6l0.5-5.9H42l-0.1,0.9c0.1-0.2,0.2-0.4,0.4-0.5s0.3-0.2,0.5-0.3c0.2-0.1,0.3-0.1,0.5-0.1
		s0.3,0,0.4,0c0.1,0,0.1,0,0.2,0c0.1,0,0.1,0,0.2,0L43.9,287.7z"/>
	<path d="M45.2,284.2c0-0.3,0.1-0.5,0.4-0.7c0.2-0.2,0.4-0.3,0.7-0.3s0.5,0.1,0.7,0.3c0.2,0.2,0.2,0.4,0.2,0.7
		c0,0.3-0.1,0.5-0.3,0.7s-0.4,0.3-0.7,0.3s-0.5-0.1-0.7-0.3C45.2,284.7,45.1,284.4,45.2,284.2z M44.7,292l0.5-5.9h1.6l-0.5,5.9H44.7
		z"/>
	<path d="M50.4,286.1h1.2l-0.1,1.4h-1.2l-0.2,2.5c0,0.3,0,0.4,0.1,0.5s0.3,0.1,0.5,0.1c0.1,0,0.2,0,0.3,0s0.2,0,0.2,0l-0.1,1.3
		c-0.1,0-0.2,0.1-0.3,0.1c-0.2,0-0.3,0-0.6,0c-0.6,0-1-0.2-1.3-0.5s-0.4-0.8-0.4-1.3l0.2-2.7h-1.1l0.1-1.4H48c0.3,0,0.5-0.1,0.7-0.3
		c0.2-0.2,0.3-0.4,0.3-0.7l0.1-0.8h1.4L50.4,286.1z"/>
	<path d="M57.9,290.3c-0.1,0.3-0.2,0.5-0.4,0.7s-0.4,0.4-0.6,0.6c-0.2,0.2-0.5,0.3-0.8,0.4s-0.6,0.2-1,0.2s-0.8-0.1-1.1-0.2
		c-0.4-0.1-0.7-0.3-0.9-0.6c-0.3-0.3-0.4-0.6-0.6-1c-0.1-0.4-0.2-0.8-0.1-1.3c0-0.5,0.2-0.9,0.4-1.3s0.4-0.7,0.7-1s0.6-0.5,1-0.6
		s0.7-0.2,1.1-0.2c0.9,0,1.6,0.3,2.1,0.8s0.7,1.3,0.6,2.2c0,0.1,0,0.2,0,0.3c0,0.1,0,0.2,0,0.2h-4.2c0,0.2,0,0.4,0.1,0.5
		c0.1,0.2,0.2,0.3,0.3,0.4s0.3,0.2,0.4,0.3c0.2,0.1,0.4,0.1,0.6,0.1c0.4,0,0.7-0.1,0.9-0.3c0.2-0.2,0.4-0.4,0.5-0.6L57.9,290.3z
		 M56.5,288.4c0-0.1,0-0.3-0.1-0.4c0-0.1-0.1-0.3-0.2-0.4c-0.1-0.1-0.2-0.2-0.4-0.3c-0.2-0.1-0.3-0.1-0.6-0.1c-0.2,0-0.4,0-0.6,0.1
		c-0.2,0.1-0.3,0.2-0.4,0.3c-0.1,0.1-0.2,0.2-0.3,0.4c-0.1,0.1-0.1,0.3-0.1,0.4H56.5z"/>
	<path d="M64.5,286.1h1.2l-0.1,1.4h-1.2l-0.2,2.5c0,0.3,0,0.4,0.1,0.5s0.3,0.1,0.5,0.1c0.1,0,0.2,0,0.3,0c0.1,0,0.2,0,0.2,0
		l-0.1,1.3c-0.1,0-0.2,0.1-0.3,0.1c-0.2,0-0.3,0-0.6,0c-0.6,0-1-0.2-1.3-0.5s-0.4-0.8-0.4-1.3l0.2-2.7h-1.1l0.1-1.4h0.3
		c0.3,0,0.5-0.1,0.7-0.3c0.2-0.2,0.3-0.4,0.3-0.7l0.1-0.8h1.4L64.5,286.1z"/>
	<path d="M69.6,285.9c0.4,0,0.8,0.1,1.2,0.2c0.4,0.2,0.7,0.4,0.9,0.6c0.3,0.3,0.4,0.6,0.6,1c0.1,0.4,0.2,0.8,0.1,1.3
		s-0.2,0.9-0.3,1.3c-0.2,0.4-0.4,0.7-0.7,1c-0.3,0.3-0.6,0.5-1,0.7s-0.8,0.2-1.3,0.2s-0.8-0.1-1.2-0.2c-0.4-0.2-0.7-0.4-0.9-0.7
		c-0.3-0.3-0.4-0.6-0.6-1c-0.1-0.4-0.2-0.8-0.1-1.3s0.2-0.9,0.3-1.3c0.2-0.4,0.4-0.7,0.7-1c0.3-0.3,0.6-0.5,1-0.6
		C68.8,286,69.2,285.9,69.6,285.9z M69.2,290.7c0.2,0,0.4,0,0.6-0.1s0.4-0.2,0.5-0.3c0.1-0.1,0.3-0.3,0.4-0.5s0.2-0.5,0.2-0.7
		c0-0.3,0-0.5-0.1-0.7s-0.2-0.4-0.3-0.5c-0.1-0.1-0.3-0.2-0.5-0.3c-0.2-0.1-0.4-0.1-0.6-0.1s-0.4,0-0.6,0.1s-0.4,0.2-0.5,0.3
		c-0.1,0.1-0.3,0.3-0.4,0.5s-0.2,0.5-0.2,0.7c0,0.3,0,0.5,0.1,0.7s0.2,0.4,0.3,0.5c0.1,0.1,0.3,0.2,0.5,0.3
		C68.9,290.7,69,290.7,69.2,290.7z"/>
	<path d="M76.6,292l0.7-8.5h3c0.6,0,1.2,0.1,1.7,0.3c0.5,0.2,0.9,0.5,1.3,0.8c0.3,0.4,0.6,0.8,0.8,1.3c0.2,0.5,0.2,1.1,0.2,1.8
		c-0.1,0.7-0.2,1.3-0.5,1.8s-0.6,1-1,1.3c-0.4,0.4-0.9,0.6-1.4,0.8c-0.5,0.2-1.1,0.3-1.7,0.3h-3.1V292z M79.7,290.5
		c0.3,0,0.7-0.1,1-0.2s0.6-0.3,0.9-0.5s0.5-0.5,0.6-0.8c0.2-0.3,0.3-0.7,0.3-1.2s0-0.9-0.1-1.2c-0.1-0.3-0.3-0.6-0.5-0.8
		c-0.2-0.2-0.5-0.4-0.8-0.5s-0.6-0.2-1-0.2h-1.3l-0.5,5.4L79.7,290.5L79.7,290.5z"/>
	<path d="M91.1,283.5h1.8L89,292h-1.7l-2.4-8.5h1.8l1.7,6.3L91.1,283.5z"/>
	<path d="M93.2,292l0.7-8.5h1.7l-0.6,6.9h3.8l-0.1,1.6H93.2z"/>
	<path d="M105.2,290.1h-3.5l-0.9,1.9H99l4-8.5h1.9l2.5,8.5h-1.8L105.2,290.1z M102.5,288.6h2.4l-0.9-3.2L102.5,288.6z"/>
	<path d="M108.5,291.1c0-0.3,0.1-0.5,0.4-0.7c0.2-0.2,0.5-0.3,0.8-0.3c0.4,0,0.7,0.1,0.8,0.4c0.2,0.3,0.3,0.6,0.2,1
		c0,0.4-0.1,0.8-0.3,1.1c-0.2,0.3-0.4,0.6-0.6,0.8c-0.2,0.2-0.5,0.4-0.7,0.5c-0.3,0.1-0.5,0.2-0.7,0.2l0.1-0.8
		c0.1,0,0.3-0.1,0.4-0.2s0.3-0.2,0.4-0.3c0.1-0.1,0.2-0.2,0.3-0.4c0.1-0.1,0.1-0.3,0.2-0.5c-0.1,0-0.2,0.1-0.3,0.1
		c-0.3,0-0.5-0.1-0.7-0.3C108.6,291.6,108.5,291.3,108.5,291.1z"/>
	<path d="M115.4,292l0.7-8.5h3c0.6,0,1.2,0.1,1.7,0.3c0.5,0.2,0.9,0.5,1.3,0.8c0.3,0.4,0.6,0.8,0.8,1.3c0.2,0.5,0.2,1.1,0.2,1.8
		c-0.1,0.7-0.2,1.3-0.5,1.8s-0.6,1-1,1.3c-0.4,0.4-0.9,0.6-1.4,0.8c-0.5,0.2-1.1,0.3-1.7,0.3h-3.1V292z M118.5,290.5
		c0.3,0,0.7-0.1,1-0.2s0.6-0.3,0.9-0.5s0.5-0.5,0.6-0.8c0.2-0.3,0.3-0.7,0.3-1.2s0-0.9-0.1-1.2c-0.1-0.3-0.3-0.6-0.5-0.8
		c-0.2-0.2-0.5-0.4-0.8-0.5s-0.6-0.2-1-0.2h-1.3l-0.5,5.4L118.5,290.5L118.5,290.5z"/>
	<path d="M129.9,283.5h1.8l-3.9,8.5h-1.7l-2.4-8.5h1.8l1.7,6.3L129.9,283.5z"/>
	<path d="M132,292l0.7-8.5h1.7l-0.6,6.9h3.8l-0.1,1.6H132z"/>
	<path d="M144.1,290.1h-3.5l-0.9,1.9H138l4-8.5h1.9l2.5,8.5h-1.8L144.1,290.1z M141.3,288.6h2.4l-0.9-3.2L141.3,288.6z"/>
	<path d="M155.8,292l0.3-3.5h-3.7l-0.3,3.5h-1.7l0.7-8.5h1.7l-0.3,3.4h3.7l0.3-3.4h1.7l-0.7,8.5H155.8z"/>
	<path d="M162.5,285.9c0.4,0,0.8,0.1,1.2,0.2c0.4,0.2,0.7,0.4,0.9,0.6c0.3,0.3,0.4,0.6,0.6,1c0.1,0.4,0.2,0.8,0.1,1.3
		s-0.2,0.9-0.3,1.3c-0.2,0.4-0.4,0.7-0.7,1s-0.6,0.5-1,0.7s-0.8,0.2-1.3,0.2s-0.8-0.1-1.2-0.2c-0.4-0.2-0.7-0.4-0.9-0.7
		c-0.3-0.3-0.4-0.6-0.6-1c-0.1-0.4-0.2-0.8-0.1-1.3s0.2-0.9,0.3-1.3c0.2-0.4,0.4-0.7,0.7-1s0.6-0.5,1-0.6
		C161.6,286,162,285.9,162.5,285.9z M162,290.7c0.2,0,0.4,0,0.6-0.1c0.2-0.1,0.4-0.2,0.5-0.3c0.1-0.1,0.3-0.3,0.4-0.5
		c0.1-0.2,0.2-0.5,0.2-0.7c0-0.3,0-0.5-0.1-0.7s-0.2-0.4-0.3-0.5s-0.3-0.2-0.5-0.3c-0.2-0.1-0.4-0.1-0.6-0.1s-0.4,0-0.6,0.1
		c-0.2,0.1-0.4,0.2-0.5,0.3c-0.1,0.1-0.3,0.3-0.4,0.5c-0.1,0.2-0.2,0.5-0.2,0.7c0,0.3,0,0.5,0.1,0.7s0.2,0.4,0.3,0.5
		s0.3,0.2,0.5,0.3C161.7,290.7,161.8,290.7,162,290.7z"/>
	<path d="M170.1,292c0-0.1,0-0.2,0-0.3s0-0.2,0-0.4c-0.2,0.3-0.4,0.5-0.8,0.6c-0.3,0.1-0.6,0.2-0.9,0.2c-0.4,0-0.7-0.1-0.9-0.2
		c-0.3-0.1-0.5-0.3-0.7-0.5s-0.3-0.5-0.4-0.7c-0.1-0.3-0.1-0.6-0.1-0.9l0.3-3.7h1.6l-0.3,3.4c0,0.3,0,0.6,0.2,0.8
		c0.2,0.2,0.4,0.3,0.8,0.3c0.4,0,0.6-0.1,0.9-0.3c0.2-0.2,0.3-0.5,0.4-0.8l0.3-3.4h1.6l-0.4,4.8c0,0.2,0,0.4,0,0.6s0,0.3,0,0.4h-1.6
		V292z"/>
	<path d="M174.3,290.1c0,0.2,0.1,0.4,0.2,0.6c0.2,0.2,0.4,0.3,0.8,0.3c0.3,0,0.5-0.1,0.6-0.2s0.2-0.3,0.2-0.4s0-0.3-0.1-0.4
		s-0.2-0.2-0.5-0.2l-0.8-0.2c-0.6-0.1-1-0.3-1.2-0.7c-0.2-0.3-0.3-0.7-0.3-1.1c0-0.3,0.1-0.5,0.2-0.8s0.3-0.4,0.5-0.6
		s0.5-0.3,0.7-0.4c0.3-0.1,0.6-0.2,0.9-0.2c0.4,0,0.8,0.1,1,0.2c0.3,0.1,0.5,0.3,0.7,0.4c0.2,0.2,0.3,0.4,0.4,0.6
		c0.1,0.2,0.1,0.4,0.1,0.5l-1.4,0.3c0-0.1,0-0.2-0.1-0.3c0-0.1-0.1-0.2-0.2-0.3c-0.1-0.1-0.2-0.1-0.3-0.2c-0.1,0-0.3-0.1-0.4-0.1
		c-0.2,0-0.4,0.1-0.5,0.2c-0.2,0.1-0.2,0.3-0.3,0.4c0,0.1,0,0.3,0.1,0.3c0.1,0.1,0.2,0.1,0.4,0.2l0.8,0.2c0.6,0.1,1,0.3,1.3,0.7
		c0.3,0.3,0.4,0.7,0.3,1.1c0,0.2-0.1,0.5-0.2,0.7c-0.1,0.2-0.3,0.4-0.5,0.6s-0.5,0.3-0.8,0.4s-0.6,0.2-1,0.2s-0.8-0.1-1.1-0.2
		s-0.5-0.3-0.7-0.5s-0.3-0.4-0.4-0.6c-0.1-0.2-0.1-0.4-0.1-0.6L174.3,290.1z"/>
	<path d="M184.2,290.3c-0.1,0.3-0.2,0.5-0.4,0.7s-0.4,0.4-0.6,0.6c-0.2,0.2-0.5,0.3-0.8,0.4s-0.6,0.2-1,0.2s-0.8-0.1-1.1-0.2
		c-0.4-0.1-0.7-0.3-0.9-0.6c-0.3-0.3-0.4-0.6-0.6-1c-0.1-0.4-0.2-0.8-0.1-1.3c0-0.5,0.2-0.9,0.4-1.3s0.4-0.7,0.7-1s0.6-0.5,1-0.6
		s0.7-0.2,1.1-0.2c0.9,0,1.6,0.3,2.1,0.8s0.7,1.3,0.6,2.2c0,0.1,0,0.2,0,0.3s0,0.2,0,0.2h-4.2c0,0.2,0,0.4,0.1,0.5
		c0.1,0.2,0.2,0.3,0.3,0.4s0.3,0.2,0.4,0.3c0.2,0.1,0.4,0.1,0.6,0.1c0.4,0,0.7-0.1,0.9-0.3c0.2-0.2,0.4-0.4,0.5-0.6L184.2,290.3z
		 M182.9,288.4c0-0.1,0-0.3-0.1-0.4c0-0.1-0.1-0.3-0.2-0.4c-0.1-0.1-0.2-0.2-0.4-0.3c-0.2-0.1-0.3-0.1-0.6-0.1c-0.2,0-0.4,0-0.6,0.1
		c-0.2,0.1-0.3,0.2-0.4,0.3c-0.1,0.1-0.2,0.2-0.3,0.4c-0.1,0.1-0.1,0.3-0.1,0.4H182.9z"/>
	<path d="M185.3,291.1c0-0.3,0.1-0.5,0.4-0.7c0.2-0.2,0.5-0.3,0.8-0.3c0.4,0,0.7,0.1,0.8,0.4c0.2,0.3,0.3,0.6,0.2,1
		c0,0.4-0.1,0.8-0.3,1.1c-0.2,0.3-0.4,0.6-0.6,0.8c-0.2,0.2-0.5,0.4-0.7,0.5c-0.3,0.1-0.5,0.2-0.7,0.2l0.1-0.8
		c0.1,0,0.3-0.1,0.4-0.2c0.1-0.1,0.3-0.2,0.4-0.3c0.1-0.1,0.2-0.2,0.3-0.4c0.1-0.1,0.1-0.3,0.2-0.5c-0.1,0-0.2,0.1-0.3,0.1
		c-0.3,0-0.5-0.1-0.7-0.3C185.3,291.6,185.2,291.3,185.3,291.1z"/>
	<path d="M26.8,306.4l0.7-8.5h3c0.6,0,1.2,0.1,1.7,0.3c0.5,0.2,0.9,0.5,1.3,0.8c0.3,0.4,0.6,0.8,0.8,1.3s0.2,1.1,0.2,1.8
		s-0.2,1.3-0.5,1.8s-0.6,1-1,1.3c-0.4,0.4-0.9,0.6-1.4,0.8c-0.5,0.2-1.1,0.3-1.7,0.3h-3.1V306.4z M29.9,304.9c0.3,0,0.7-0.1,1-0.2
		s0.6-0.3,0.9-0.5s0.5-0.5,0.6-0.8c0.2-0.3,0.3-0.7,0.3-1.2s0-0.9-0.1-1.2c-0.1-0.3-0.3-0.6-0.5-0.8c-0.2-0.2-0.5-0.4-0.8-0.5
		s-0.6-0.2-1-0.2H29l-0.5,5.4L29.9,304.9L29.9,304.9z"/>
	<path d="M41.4,297.9h1.8l-3.9,8.5h-1.7l-2.4-8.5H37l1.7,6.3L41.4,297.9z"/>
	<path d="M43.5,306.4l0.7-8.5h1.7l-0.6,6.9H49l-0.1,1.6H43.5z"/>
	<path d="M55.5,304.5H52l-0.9,1.9h-1.8l4-8.5h1.9l2.5,8.5h-1.8L55.5,304.5z M52.7,303h2.4l-0.9-3.2L52.7,303z"/>
	<path d="M64.7,303.1h-0.9l-0.3,3.3h-1.7l0.7-8.5H66c0.4,0,0.8,0.1,1.1,0.2c0.3,0.1,0.6,0.3,0.8,0.6c0.2,0.2,0.4,0.5,0.5,0.8
		s0.1,0.7,0.1,1c-0.1,0.6-0.3,1.1-0.6,1.5c-0.4,0.4-0.8,0.7-1.4,0.9l1.5,3.5h-1.8L64.7,303.1z M65.3,301.7c0.4,0,0.8-0.1,1-0.3
		c0.3-0.2,0.4-0.5,0.4-0.9s-0.1-0.6-0.3-0.9c-0.2-0.2-0.5-0.3-1-0.3h-1.3l-0.2,2.4L65.3,301.7L65.3,301.7z"/>
	<path d="M72.3,300.3c0.4,0,0.8,0.1,1.2,0.2c0.4,0.2,0.7,0.4,0.9,0.6c0.3,0.3,0.4,0.6,0.6,1c0.1,0.4,0.2,0.8,0.1,1.3
		s-0.2,0.9-0.3,1.3c-0.2,0.4-0.4,0.7-0.7,1c-0.3,0.3-0.6,0.5-1,0.7s-0.8,0.2-1.3,0.2s-0.8-0.1-1.2-0.2c-0.4-0.2-0.7-0.4-0.9-0.7
		c-0.3-0.3-0.4-0.6-0.6-1c-0.1-0.4-0.2-0.8-0.1-1.3s0.2-0.9,0.3-1.3c0.2-0.4,0.4-0.7,0.7-1c0.3-0.3,0.6-0.5,1-0.6
		S71.9,300.3,72.3,300.3z M71.9,305.1c0.2,0,0.4,0,0.6-0.1s0.4-0.2,0.5-0.3c0.1-0.1,0.3-0.3,0.4-0.5s0.2-0.5,0.2-0.7
		c0-0.3,0-0.5-0.1-0.7s-0.2-0.4-0.3-0.5c-0.1-0.1-0.3-0.2-0.5-0.3c-0.2-0.1-0.4-0.1-0.6-0.1s-0.4,0-0.6,0.1s-0.4,0.2-0.5,0.3
		c-0.1,0.1-0.3,0.3-0.4,0.5s-0.2,0.5-0.2,0.7c0,0.3,0,0.5,0.1,0.7s0.2,0.4,0.3,0.5c0.1,0.1,0.3,0.2,0.5,0.3
		C71.5,305.1,71.7,305.1,71.9,305.1z"/>
	<path d="M75.9,304.8c0-0.3,0.1-0.5,0.2-0.7s0.3-0.4,0.4-0.5c0.2-0.2,0.4-0.3,0.6-0.4s0.5-0.2,0.7-0.2l1.5-0.2
		c0.2,0,0.3-0.1,0.4-0.2s0.1-0.2,0.1-0.3c0-0.2,0-0.4-0.2-0.5c-0.2-0.2-0.4-0.2-0.7-0.2c-0.4,0-0.6,0.1-0.8,0.3
		c-0.2,0.2-0.3,0.4-0.4,0.7l-1.4-0.3c0-0.2,0.1-0.5,0.3-0.7s0.3-0.4,0.5-0.6s0.5-0.3,0.8-0.5c0.3-0.1,0.7-0.2,1.1-0.2
		c0.5,0,0.9,0.1,1.2,0.2c0.3,0.1,0.6,0.3,0.8,0.5c0.2,0.2,0.3,0.4,0.4,0.7s0.1,0.6,0.1,0.9l-0.3,2.9c0,0.2,0,0.3,0,0.5s0,0.3,0,0.4
		h-1.5c0-0.1,0-0.2,0-0.3c0-0.1,0-0.3,0-0.4c-0.2,0.2-0.4,0.4-0.7,0.6c-0.3,0.2-0.7,0.3-1.1,0.3c-0.3,0-0.6,0-0.8-0.1
		c-0.2-0.1-0.4-0.2-0.6-0.4c-0.2-0.2-0.3-0.4-0.4-0.6S75.9,305,75.9,304.8z M78.2,305.4c0.2,0,0.3,0,0.5-0.1s0.3-0.1,0.4-0.2
		s0.2-0.2,0.3-0.4s0.1-0.4,0.2-0.7v-0.3l-1.3,0.2c-0.2,0-0.4,0.1-0.5,0.2s-0.2,0.3-0.3,0.5c0,0.2,0,0.3,0.2,0.5S78,305.4,78.2,305.4
		z"/>
	<path d="M88.3,305.3c0,0.2,0,0.4,0,0.6s0,0.4,0,0.5h-1.5c0-0.1,0-0.2,0-0.3s0-0.3,0-0.4c-0.2,0.2-0.4,0.4-0.7,0.6
		c-0.3,0.2-0.6,0.2-1,0.2s-0.8-0.1-1.1-0.2c-0.3-0.2-0.6-0.4-0.8-0.6c-0.2-0.3-0.4-0.6-0.5-1s-0.1-0.8-0.1-1.2
		c0-0.4,0.1-0.8,0.3-1.2c0.2-0.4,0.4-0.7,0.7-1c0.3-0.3,0.6-0.5,1-0.7s0.8-0.2,1.2-0.2c0.3,0,0.5,0,0.7,0.1c0.2,0,0.3,0.1,0.5,0.2
		c0.1,0.1,0.2,0.1,0.3,0.2s0.1,0.2,0.2,0.2l0.3-3.4H89L88.3,305.3z M84,303.5c0,0.5,0.1,0.9,0.3,1.2c0.3,0.3,0.6,0.4,1,0.4
		s0.8-0.1,1.1-0.4c0.3-0.3,0.5-0.7,0.5-1.2s-0.1-0.9-0.3-1.2c-0.3-0.3-0.6-0.4-1-0.4s-0.8,0.1-1.1,0.4C84.2,302.5,84,302.9,84,303.5
		z"/>
	<path d="M89.8,305.5c0-0.3,0.1-0.5,0.4-0.7c0.2-0.2,0.5-0.3,0.8-0.3c0.4,0,0.7,0.1,0.8,0.4c0.2,0.3,0.3,0.6,0.2,1
		c0,0.4-0.1,0.8-0.3,1.1c-0.2,0.3-0.4,0.6-0.6,0.8c-0.2,0.2-0.5,0.4-0.7,0.5c-0.3,0.1-0.5,0.2-0.7,0.2l0.1-0.8
		c0.1,0,0.3-0.1,0.4-0.2s0.3-0.2,0.4-0.3c0.1-0.1,0.2-0.2,0.3-0.4c0.1-0.1,0.1-0.3,0.2-0.5c-0.1,0-0.2,0.1-0.3,0.1
		c-0.3,0-0.5-0.1-0.7-0.3C89.9,306,89.8,305.7,89.8,305.5z"/>
	<path d="M96.7,306.4l0.7-8.5h5.3l-0.1,1.6h-3.7l-0.2,1.9h3.3l-0.1,1.5h-3.3l-0.2,2h3.7l-0.1,1.6h-5.3V306.4z"/>
	<path d="M105.1,306.4h-1.6l0.5-5.9h1.5l-0.1,0.7c0.2-0.3,0.5-0.5,0.8-0.7c0.3-0.1,0.7-0.2,1-0.2c0.4,0,0.7,0.1,0.9,0.2
		c0.3,0.1,0.5,0.3,0.6,0.5s0.3,0.5,0.3,0.7c0.1,0.3,0.1,0.6,0,0.9l-0.3,3.7h-1.6l0.3-3.4c0-0.3,0-0.6-0.2-0.8
		c-0.2-0.2-0.4-0.3-0.8-0.3s-0.6,0.1-0.8,0.4c-0.2,0.2-0.3,0.5-0.4,0.9L105.1,306.4z"/>
	<path d="M111.5,306.4c0,0.3,0.2,0.6,0.4,0.8c0.2,0.2,0.5,0.3,0.9,0.3c0.5,0,0.9-0.1,1.2-0.4c0.3-0.3,0.5-0.7,0.5-1.3v-0.4
		c-0.1,0.2-0.3,0.4-0.6,0.5c-0.3,0.2-0.6,0.2-1.1,0.2c-0.4,0-0.7-0.1-1.1-0.2s-0.6-0.3-0.8-0.6c-0.2-0.3-0.4-0.6-0.5-0.9
		s-0.1-0.7-0.1-1.1s0.1-0.8,0.3-1.1c0.2-0.3,0.4-0.7,0.6-0.9c0.3-0.3,0.6-0.5,0.9-0.6c0.3-0.2,0.7-0.2,1.1-0.2
		c0.5,0,0.8,0.1,1.1,0.3c0.3,0.2,0.4,0.4,0.5,0.6l0.1-0.7h1.5l-0.5,5.3c0,0.4-0.1,0.8-0.3,1.2c-0.1,0.4-0.4,0.7-0.6,1
		c-0.3,0.3-0.6,0.5-1,0.7s-0.9,0.3-1.4,0.3c-0.4,0-0.8-0.1-1.1-0.2c-0.3-0.1-0.6-0.3-0.8-0.5c-0.2-0.2-0.4-0.4-0.5-0.7
		c-0.1-0.3-0.2-0.5-0.2-0.8L111.5,306.4z M113.2,304.8c0.4,0,0.8-0.1,1-0.4c0.3-0.3,0.4-0.6,0.5-1.1c0-0.5-0.1-0.8-0.3-1.1
		c-0.2-0.3-0.6-0.4-0.9-0.4c-0.2,0-0.4,0-0.6,0.1s-0.3,0.2-0.5,0.3c-0.1,0.1-0.3,0.3-0.3,0.5c-0.1,0.2-0.1,0.4-0.2,0.6
		c0,0.5,0.1,0.8,0.3,1.1C112.5,304.6,112.8,304.8,113.2,304.8z"/>
	<path d="M117.6,306.4l0.8-8.7h1.6l-0.8,8.7H117.6z"/>
	<path d="M120.7,304.8c0-0.3,0.1-0.5,0.2-0.7s0.3-0.4,0.4-0.5c0.2-0.2,0.4-0.3,0.6-0.4s0.5-0.2,0.7-0.2l1.5-0.2
		c0.2,0,0.3-0.1,0.4-0.2s0.1-0.2,0.1-0.3c0-0.2,0-0.4-0.2-0.5c-0.2-0.2-0.4-0.2-0.7-0.2c-0.4,0-0.6,0.1-0.8,0.3
		c-0.2,0.2-0.3,0.4-0.4,0.7l-1.4-0.3c0-0.2,0.1-0.5,0.3-0.7s0.3-0.4,0.5-0.6s0.5-0.3,0.8-0.5c0.3-0.1,0.7-0.2,1.1-0.2
		c0.5,0,0.9,0.1,1.2,0.2c0.3,0.1,0.6,0.3,0.8,0.5c0.2,0.2,0.3,0.4,0.4,0.7s0.1,0.6,0.1,0.9l-0.3,2.9c0,0.2,0,0.3,0,0.5s0,0.3,0,0.4
		h-1.5c0-0.1,0-0.2,0-0.3c0-0.1,0-0.3,0-0.4c-0.2,0.2-0.4,0.4-0.7,0.6c-0.3,0.2-0.7,0.3-1.1,0.3c-0.3,0-0.6,0-0.8-0.1
		c-0.2-0.1-0.4-0.2-0.6-0.4c-0.2-0.2-0.3-0.4-0.4-0.6S120.7,305,120.7,304.8z M123,305.4c0.2,0,0.3,0,0.5-0.1s0.3-0.1,0.4-0.2
		s0.2-0.2,0.3-0.4s0.1-0.4,0.2-0.7v-0.3l-1.3,0.2c-0.2,0-0.4,0.1-0.5,0.2s-0.2,0.3-0.3,0.5c0,0.2,0,0.3,0.2,0.5
		S122.7,305.4,123,305.4z"/>
	<path d="M129,306.4h-1.6l0.5-5.9h1.5l-0.1,0.7c0.2-0.3,0.5-0.5,0.8-0.7c0.3-0.1,0.7-0.2,1-0.2c0.4,0,0.7,0.1,0.9,0.2
		c0.3,0.1,0.5,0.3,0.6,0.5c0.2,0.2,0.3,0.5,0.3,0.7c0.1,0.3,0.1,0.6,0,0.9l-0.3,3.7H131l0.3-3.4c0-0.3,0-0.6-0.2-0.8
		c-0.2-0.2-0.4-0.3-0.8-0.3c-0.4,0-0.6,0.1-0.8,0.4c-0.2,0.2-0.3,0.5-0.4,0.9L129,306.4z"/>
	<path d="M140.1,305.3c0,0.2,0,0.4,0,0.6s0,0.4,0,0.5h-1.5c0-0.1,0-0.2,0-0.3c0-0.1,0-0.3,0-0.4c-0.2,0.2-0.4,0.4-0.7,0.6
		s-0.6,0.2-1,0.2s-0.8-0.1-1.1-0.2c-0.3-0.2-0.6-0.4-0.8-0.6c-0.2-0.3-0.4-0.6-0.5-1s-0.1-0.8-0.1-1.2c0-0.4,0.1-0.8,0.3-1.2
		c0.2-0.4,0.4-0.7,0.7-1s0.6-0.5,1-0.7s0.8-0.2,1.2-0.2c0.3,0,0.5,0,0.7,0.1c0.2,0,0.3,0.1,0.5,0.2c0.1,0.1,0.2,0.1,0.3,0.2
		s0.1,0.2,0.2,0.2l0.3-3.4h1.6L140.1,305.3z M135.8,303.5c0,0.5,0.1,0.9,0.3,1.2c0.3,0.3,0.6,0.4,1,0.4s0.8-0.1,1.1-0.4
		s0.5-0.7,0.5-1.2s-0.1-0.9-0.3-1.2c-0.3-0.3-0.6-0.4-1-0.4s-0.8,0.1-1.1,0.4C136,302.5,135.9,302.9,135.8,303.5z"/>
</g>
<polygon class="st8" points="242.5,1.7 249.5,114.9 249.5,225.9 243.5,340.6 2.4,340.6 8.4,226.7 8.4,115.3 1.4,1.7 "/>
</svg>
