<?xml version="1.0" encoding="utf-8"?>
<!-- Generator: Adobe Illustrator 19.2.1, SVG Export Plug-In . SVG Version: 6.00 Build 0)  -->
<svg version="1.1" id="Layer_1" xmlns="http://www.w3.org/2000/svg" xmlns:xlink="http://www.w3.org/1999/xlink" x="0px" y="0px"
	 viewBox="0 0 202 427" style="enable-background:new 0 0 202 427;" xml:space="preserve">
<style type="text/css">
	.st0{fill:#FFFFFF;stroke:#1E1E1E;stroke-miterlimit:10;}
	.st1{fill:#1E1E1E;}
	.st2{fill:none;}
	.st3{enable-background:new    ;}
	.st4{fill:#1D1D1B;}
	.st5{fill:#2341C1;}
	.st6{fill:#FFFFFF;}
	.st7{fill:#FFFFFF;stroke:#C1C1C1;stroke-miterlimit:10;}
	.st8{fill:none;stroke:#DDDDDD;stroke-miterlimit:10;}
	.st9{fill:none;stroke:#575756;stroke-miterlimit:10;}
	.st10{fill:none;stroke:#000000;stroke-miterlimit:10;}
</style>
<path class="st0" d="M200.5,395.7c0,16.5-13.4,29.8-29.8,29.8H30.3c-16.5,0-29.8-13.4-29.8-29.8V32.3c0-16.5,13.4-29.8,29.8-29.8
	h140.3c16.5,0,29.8,13.4,29.8,29.8L200.5,395.7L200.5,395.7z"/>
<g>
	<path class="st1" d="M101.2,2.2c0,0,9.3-0.1,25.7-0.3c8.2-0.1,18.1-0.2,29.5-0.3c2.8,0,5.8,0,8.8-0.1c1.5,0,3,0,4.6,0
		c0.8,0,1.6,0,2.4,0h1.2l1.2,0.1c6.5,0.5,13.2,3.3,18.4,8.3s8.6,12.2,8.9,20c0.1,7.6,0.1,15.4,0.1,23.4c0,16.1,0,33,0.1,50.5
		c0,35.1,0.1,72.4,0.1,109.8s-0.1,74.8-0.1,109.8c0,17.5,0,34.5-0.1,50.5c0,4,0,8,0,11.9c0,2,0,3.9,0,5.8s0,3.8-0.1,5.8
		c-0.7,7.7-4.2,14.9-9.4,19.8c-2.6,2.5-5.5,4.5-8.7,5.9c-3.1,1.4-6.4,2.2-9.7,2.4c-1.6,0.1-3.2,0.1-4.8,0.1s-3.1,0-4.6,0
		c-3,0-6,0-8.8-0.1c-11.4-0.1-21.3-0.2-29.5-0.3c-16.4-0.2-25.7-0.3-25.7-0.3s9.3-0.1,25.7-0.3c8.2-0.1,18.1-0.2,29.5-0.3
		c2.8,0,5.8,0,8.8-0.1c1.5,0,3,0,4.6,0s3.1,0,4.7-0.1c3.1-0.2,6.3-1,9.3-2.4c3-1.3,5.8-3.3,8.2-5.7c4.9-4.8,8.2-11.6,8.8-18.9
		c0.2-1.8,0.1-3.7,0.1-5.7c0-1.9,0-3.9,0-5.8c0-3.9,0-7.9,0-11.9c0-16.1,0-33-0.1-50.5c0-35.1-0.1-72.4-0.1-109.8
		s0.1-74.8,0.1-109.8c0-17.5,0-34.5,0.1-50.5c0-8,0.1-15.9,0-23.4c-0.3-7.4-3.5-14.3-8.4-19.1s-11.3-7.5-17.5-8l-1.2-0.1h-1.2
		c-0.8,0-1.6,0-2.3,0c-1.6,0-3.1,0-4.6,0c-3,0-6,0-8.8-0.1c-11.4-0.1-21.3-0.2-29.5-0.3C110.6,2.3,101.2,2.2,101.2,2.2z"/>
</g>
<g>
	<g>
		<path class="st1" d="M102.9,376.7c0,0,0.2,0,0.6,0s1-0.1,1.7,0c0.4,0,0.8,0.1,1.2,0.1c0.4,0.1,0.9,0.2,1.4,0.3
			c0.5,0.1,1,0.3,1.6,0.5s1.1,0.5,1.7,0.7c0.6,0.3,1.2,0.6,1.8,1c0.6,0.4,1.2,0.8,1.8,1.3c1.2,0.9,2.2,2.1,3.2,3.5
			c0.9,1.4,1.7,2.9,2.2,4.6s0.8,3.4,0.8,5.2c-0.1,0.9,0,1.7-0.2,2.6c-0.1,0.9-0.4,1.8-0.6,2.6c-0.5,1.7-1.3,3.2-2.2,4.6
			c-0.9,1.4-2,2.6-3.2,3.5c-0.6,0.5-1.2,0.9-1.8,1.3c-0.6,0.4-1.2,0.7-1.8,1c-0.6,0.2-1.2,0.5-1.7,0.7c-0.6,0.2-1.1,0.3-1.6,0.5
			c-0.5,0.1-1,0.2-1.4,0.3c-0.4,0-0.9,0.1-1.2,0.1c-0.7,0.1-1.3,0-1.7,0c-0.4,0-0.6,0-0.6,0s0.2,0,0.6-0.1s1-0.1,1.7-0.3
			c0.4-0.1,0.7-0.2,1.2-0.3c0.4-0.1,0.9-0.3,1.3-0.4c0.5-0.2,0.9-0.4,1.5-0.6c0.5-0.2,1-0.5,1.5-0.8c1-0.7,2.1-1.4,3.1-2.4
			c1-0.9,1.9-2.1,2.7-3.3c0.8-1.3,1.4-2.7,1.9-4.2c0.2-0.8,0.4-1.5,0.5-2.3c0.1-0.7,0.1-1.7,0.2-2.4c0-1.6-0.2-3.2-0.7-4.7
			s-1-2.9-1.9-4.2c-0.8-1.2-1.7-2.4-2.7-3.3c-1-1-2.1-1.7-3.1-2.4c-0.5-0.3-1-0.6-1.5-0.8c-0.5-0.2-1-0.5-1.5-0.6
			c-0.5-0.2-0.9-0.3-1.3-0.4s-0.8-0.2-1.2-0.3c-0.7-0.2-1.3-0.2-1.7-0.3C103.1,376.7,102.9,376.7,102.9,376.7z"/>
	</g>
	<path class="st0" d="M102.9,410.8c-9.4,0-17.1-7.6-17.1-17.1c0-9.4,7.6-17.1,17.1-17.1"/>
</g>
<rect x="25.9" y="163.8" class="st2" width="118.9" height="18"/>
<g class="st3">
	<path class="st4" d="M26.7,171.6v-7.4h2.4c1.1,0,1.9,0.3,2.6,1s1,1.6,1,2.7s-0.3,2-1,2.7s-1.5,1-2.6,1H26.7z M27.7,170.8h1.4
		c0.8,0,1.5-0.3,2-0.8c0.5-0.5,0.7-1.2,0.7-2.1s-0.2-1.6-0.7-2.1s-1.1-0.8-1.9-0.8h-1.4V170.8z"/>
	<path class="st4" d="M37.4,170h0.9c-0.1,0.5-0.3,0.9-0.7,1.2c-0.4,0.3-0.9,0.5-1.4,0.5c-0.7,0-1.3-0.3-1.8-0.8
		c-0.5-0.5-0.7-1.2-0.7-2c0-0.8,0.2-1.5,0.7-2c0.4-0.5,1-0.8,1.8-0.8c0.7,0,1.3,0.2,1.7,0.7c0.4,0.5,0.6,1.1,0.6,1.9v0.3h-3.8
		c0,0.6,0.2,1,0.4,1.3c0.3,0.3,0.7,0.5,1.1,0.5c0.3,0,0.6-0.1,0.8-0.2S37.3,170.3,37.4,170z M36,167c-0.4,0-0.7,0.1-1,0.4
		c-0.3,0.3-0.4,0.6-0.5,1.1h2.8c0-0.4-0.1-0.8-0.3-1.1C36.8,167.1,36.5,167,36,167z"/>
	<path class="st4" d="M41.8,171.6h-0.9l-2.1-5.3h1l1.6,4.2l1.5-4.2h0.9L41.8,171.6z"/>
	<path class="st4" d="M45.7,164.3c0.1,0.1,0.2,0.2,0.2,0.4s-0.1,0.3-0.2,0.4c-0.1,0.1-0.3,0.2-0.4,0.2c-0.2,0-0.3-0.1-0.4-0.2
		c-0.1-0.1-0.2-0.2-0.2-0.4s0.1-0.3,0.2-0.4c0.1-0.1,0.2-0.2,0.4-0.2C45.5,164.1,45.6,164.2,45.7,164.3z M45.8,166.3v5.3h-0.9v-5.3
		H45.8z"/>
	<path class="st4" d="M47.7,171c-0.4-0.5-0.7-1.2-0.7-2s0.2-1.5,0.7-2c0.4-0.5,1-0.8,1.8-0.8c0.6,0,1.1,0.2,1.4,0.5
		c0.4,0.3,0.6,0.7,0.7,1.2h-0.9c-0.1-0.3-0.2-0.5-0.4-0.7c-0.2-0.2-0.5-0.2-0.8-0.2c-0.5,0-0.8,0.2-1.1,0.6s-0.4,0.8-0.4,1.4
		s0.1,1.1,0.4,1.4c0.3,0.4,0.6,0.6,1.1,0.6c0.3,0,0.6-0.1,0.8-0.2s0.3-0.4,0.4-0.7h0.9c-0.1,0.5-0.3,0.9-0.7,1.2
		c-0.4,0.3-0.9,0.5-1.4,0.5C48.7,171.8,48.1,171.5,47.7,171z"/>
	<path class="st4" d="M56.1,170h0.9c-0.1,0.5-0.3,0.9-0.7,1.2c-0.4,0.3-0.9,0.5-1.4,0.5c-0.7,0-1.3-0.3-1.8-0.8
		c-0.5-0.5-0.7-1.2-0.7-2c0-0.8,0.2-1.5,0.7-2c0.4-0.5,1-0.8,1.8-0.8c0.7,0,1.3,0.2,1.7,0.7c0.4,0.5,0.6,1.1,0.6,1.9v0.3h-3.8
		c0,0.6,0.2,1,0.4,1.3c0.3,0.3,0.7,0.5,1.1,0.5c0.3,0,0.6-0.1,0.8-0.2S56,170.3,56.1,170z M54.8,167c-0.4,0-0.7,0.1-1,0.4
		c-0.3,0.3-0.4,0.6-0.5,1.1h2.8c0-0.4-0.1-0.8-0.3-1.1C55.5,167.1,55.2,167,54.8,167z"/>
	<path class="st4" d="M64.7,171.6h-0.9v-0.4c-0.1,0.1-0.3,0.2-0.6,0.3c-0.3,0.1-0.5,0.2-0.8,0.2c-0.6,0-1-0.2-1.4-0.5
		c-0.4-0.3-0.6-0.7-0.6-1.2c0-0.5,0.2-0.9,0.6-1.2c0.4-0.3,0.9-0.5,1.5-0.5c0.3,0,0.5,0,0.8,0.1c0.3,0.1,0.4,0.2,0.6,0.3v-0.7
		c0-0.3-0.1-0.6-0.3-0.8S63,167,62.7,167c-0.6,0-0.9,0.2-1.1,0.7h-0.9c0.1-0.4,0.3-0.8,0.7-1.1c0.4-0.3,0.8-0.4,1.3-0.4
		c0.6,0,1.1,0.2,1.5,0.5s0.5,0.8,0.5,1.4V171.6z M63.8,170.3v-0.6c-0.1-0.2-0.2-0.3-0.5-0.5c-0.2-0.1-0.5-0.2-0.8-0.2
		c-0.4,0-0.7,0.1-0.9,0.2s-0.4,0.4-0.4,0.7c0,0.3,0.1,0.5,0.4,0.7s0.5,0.2,0.9,0.2c0.3,0,0.5-0.1,0.8-0.2
		C63.6,170.7,63.8,170.5,63.8,170.3z"/>
	<path class="st4" d="M66.2,171.6v-5.3h0.9v0.7c0.2-0.2,0.4-0.4,0.7-0.6s0.6-0.2,0.9-0.2c0.6,0,1.1,0.2,1.4,0.5
		c0.3,0.4,0.5,0.8,0.5,1.4v3.5h-0.9v-3.3c0-0.4-0.1-0.7-0.3-0.9c-0.2-0.2-0.5-0.3-0.9-0.3c-0.3,0-0.6,0.1-0.8,0.3
		c-0.2,0.2-0.4,0.4-0.5,0.7v3.6H66.2z"/>
	<path class="st4" d="M75.6,171.6V171c-0.1,0.2-0.4,0.4-0.6,0.5c-0.3,0.1-0.6,0.2-0.9,0.2c-0.8,0-1.3-0.3-1.8-0.8
		c-0.4-0.5-0.6-1.2-0.6-2c0-0.8,0.2-1.4,0.6-2c0.4-0.5,1-0.8,1.8-0.8c0.3,0,0.6,0.1,0.9,0.2c0.3,0.1,0.5,0.3,0.6,0.5v-3.1h0.9v7.8
		H75.6z M75.6,170.1v-2.2c-0.1-0.3-0.3-0.5-0.6-0.6c-0.2-0.2-0.5-0.2-0.8-0.2c-0.5,0-0.9,0.2-1.2,0.5c-0.3,0.4-0.4,0.8-0.4,1.4
		s0.1,1,0.4,1.4s0.7,0.5,1.2,0.5c0.3,0,0.6-0.1,0.8-0.2C75.3,170.5,75.5,170.3,75.6,170.1z"/>
	<path class="st4" d="M84.7,171.6h-0.9v-0.4c-0.1,0.1-0.3,0.2-0.6,0.3c-0.3,0.1-0.5,0.2-0.8,0.2c-0.6,0-1-0.2-1.4-0.5
		c-0.4-0.3-0.6-0.7-0.6-1.2c0-0.5,0.2-0.9,0.6-1.2c0.4-0.3,0.9-0.5,1.5-0.5c0.3,0,0.5,0,0.8,0.1c0.3,0.1,0.4,0.2,0.6,0.3v-0.7
		c0-0.3-0.1-0.6-0.3-0.8S83,167,82.6,167c-0.6,0-0.9,0.2-1.1,0.7h-0.9c0.1-0.4,0.3-0.8,0.7-1.1c0.4-0.3,0.8-0.4,1.3-0.4
		c0.6,0,1.1,0.2,1.5,0.5s0.5,0.8,0.5,1.4V171.6z M83.8,170.3v-0.6c-0.1-0.2-0.2-0.3-0.5-0.5c-0.2-0.1-0.5-0.2-0.8-0.2
		c-0.4,0-0.7,0.1-0.9,0.2s-0.4,0.4-0.4,0.7c0,0.3,0.1,0.5,0.4,0.7s0.5,0.2,0.9,0.2c0.3,0,0.5-0.1,0.8-0.2
		C83.6,170.7,83.7,170.5,83.8,170.3z"/>
	<path class="st4" d="M87.1,171v2.7h-0.9v-7.4h0.9v0.6c0.2-0.2,0.4-0.4,0.6-0.5c0.3-0.1,0.6-0.2,0.9-0.2c0.8,0,1.3,0.3,1.8,0.8
		c0.4,0.5,0.6,1.2,0.6,2s-0.2,1.4-0.6,2c-0.4,0.5-1,0.8-1.8,0.8c-0.3,0-0.6-0.1-0.9-0.2C87.5,171.4,87.2,171.2,87.1,171z
		 M87.1,167.9v2.2c0.1,0.3,0.3,0.5,0.6,0.6c0.2,0.2,0.5,0.2,0.8,0.2c0.5,0,0.9-0.2,1.2-0.5s0.4-0.8,0.4-1.4s-0.1-1-0.4-1.4
		c-0.3-0.4-0.7-0.5-1.2-0.5c-0.3,0-0.6,0.1-0.8,0.2C87.4,167.4,87.2,167.6,87.1,167.9z"/>
	<path class="st4" d="M93.1,171v2.7h-0.9v-7.4h0.9v0.6c0.2-0.2,0.4-0.4,0.6-0.5c0.3-0.1,0.6-0.2,0.9-0.2c0.8,0,1.3,0.3,1.8,0.8
		c0.4,0.5,0.6,1.2,0.6,2s-0.2,1.4-0.6,2c-0.4,0.5-1,0.8-1.8,0.8c-0.3,0-0.6-0.1-0.9-0.2C93.5,171.4,93.3,171.2,93.1,171z
		 M93.1,167.9v2.2c0.1,0.3,0.3,0.5,0.6,0.6c0.2,0.2,0.5,0.2,0.8,0.2c0.5,0,0.9-0.2,1.2-0.5s0.4-0.8,0.4-1.4s-0.1-1-0.4-1.4
		c-0.3-0.4-0.7-0.5-1.2-0.5c-0.3,0-0.6,0.1-0.8,0.2C93.4,167.4,93.3,167.6,93.1,167.9z"/>
	<path class="st4" d="M100.9,171.6v-7.8h0.9v3.1c0.2-0.2,0.4-0.4,0.7-0.6c0.3-0.1,0.6-0.2,0.9-0.2c0.6,0,1.1,0.2,1.4,0.5
		c0.3,0.4,0.5,0.8,0.5,1.4v3.5h-0.9v-3.3c0-0.4-0.1-0.7-0.3-0.9c-0.2-0.2-0.5-0.3-0.9-0.3c-0.3,0-0.6,0.1-0.8,0.3
		c-0.2,0.2-0.4,0.4-0.5,0.7v3.6H100.9z"/>
	<path class="st4" d="M107.6,164.3c0.1,0.1,0.2,0.2,0.2,0.4s-0.1,0.3-0.2,0.4c-0.1,0.1-0.3,0.2-0.4,0.2s-0.3-0.1-0.4-0.2
		c-0.1-0.1-0.2-0.2-0.2-0.4s0.1-0.3,0.2-0.4c0.1-0.1,0.2-0.2,0.4-0.2S107.5,164.2,107.6,164.3z M107.7,166.3v5.3h-0.9v-5.3H107.7z"
		/>
	<path class="st4" d="M108.8,170.2h0.9c0.2,0.5,0.6,0.8,1.3,0.8c0.3,0,0.6-0.1,0.8-0.2s0.3-0.3,0.3-0.6c0-0.4-0.3-0.6-0.8-0.7
		l-1.1-0.3c-0.9-0.2-1.3-0.7-1.3-1.4c0-0.5,0.2-0.8,0.5-1.1s0.8-0.4,1.4-0.4c0.6,0,1,0.1,1.4,0.4c0.4,0.3,0.6,0.6,0.7,1.1h-0.9
		c-0.2-0.5-0.6-0.8-1.2-0.8c-0.3,0-0.5,0.1-0.7,0.2c-0.2,0.1-0.3,0.3-0.3,0.6c0,0.2,0.1,0.3,0.2,0.4c0.1,0.1,0.3,0.2,0.6,0.3l1,0.3
		c0.9,0.2,1.4,0.7,1.4,1.5c0,0.5-0.2,0.9-0.6,1.2s-0.8,0.4-1.4,0.4s-1.1-0.1-1.5-0.4C109.1,171.1,108.9,170.7,108.8,170.2z"/>
	<path class="st4" d="M114.5,170.3v-3.2h-0.9v-0.8h0.9v-1.4h0.9v1.4h1.3v0.8h-1.3v3.1c0,0.5,0.2,0.7,0.7,0.7c0.2,0,0.5-0.1,0.7-0.2
		v0.8c-0.2,0.1-0.5,0.2-0.8,0.2c-0.4,0-0.8-0.1-1.1-0.4C114.6,171.1,114.5,170.8,114.5,170.3z"/>
	<path class="st4" d="M121.8,167c0.5,0.5,0.7,1.2,0.7,2s-0.2,1.5-0.7,2c-0.5,0.5-1,0.8-1.8,0.8s-1.3-0.3-1.8-0.8
		c-0.5-0.5-0.7-1.2-0.7-2s0.2-1.5,0.7-2c0.5-0.5,1-0.8,1.8-0.8S121.4,166.5,121.8,167z M121.2,170.4c0.3-0.4,0.4-0.8,0.4-1.4
		s-0.1-1.1-0.4-1.4s-0.7-0.5-1.1-0.5s-0.8,0.2-1.1,0.5c-0.3,0.4-0.4,0.8-0.4,1.4s0.1,1.1,0.4,1.4c0.3,0.4,0.7,0.5,1.1,0.5
		S120.9,170.8,121.2,170.4z"/>
	<path class="st4" d="M126.5,166.3v0.9c-0.1-0.1-0.3-0.1-0.6-0.1c-0.3,0-0.5,0.1-0.8,0.3c-0.2,0.2-0.4,0.4-0.5,0.7v3.6h-0.9v-5.3
		h0.9v0.7c0.1-0.2,0.3-0.4,0.5-0.6c0.2-0.2,0.5-0.2,0.8-0.2C126.2,166.2,126.3,166.2,126.5,166.3z"/>
	<path class="st4" d="M129.1,173.7h-0.9l0.8-2l-2.1-5.4h1l1.6,4.2l1.5-4.2h0.9L129.1,173.7z"/>
</g>
<rect x="25.9" y="209.1" class="st2" width="118.9" height="18.3"/>
<g class="st3">
	<path class="st4" d="M29.5,214h-1.8v3h-0.9v-7.4h2.8c0.8,0,1.4,0.2,1.8,0.6c0.4,0.4,0.6,0.9,0.6,1.6s-0.2,1.3-0.6,1.6
		C30.8,213.8,30.3,214,29.5,214z M31,211.8c0-0.4-0.1-0.8-0.4-1s-0.6-0.4-1.1-0.4h-1.8v2.7h1.8c0.5,0,0.9-0.1,1.1-0.4
		S31,212.2,31,211.8z"/>
	<path class="st4" d="M33.1,216.9v-7.8H34v3.1c0.2-0.2,0.4-0.4,0.7-0.6s0.6-0.2,0.9-0.2c0.6,0,1.1,0.2,1.4,0.5
		c0.3,0.4,0.5,0.8,0.5,1.4v3.5h-0.9v-3.3c0-0.4-0.1-0.7-0.3-0.9c-0.2-0.2-0.5-0.3-0.9-0.3c-0.3,0-0.6,0.1-0.8,0.3
		c-0.2,0.2-0.4,0.4-0.5,0.7v3.6H33.1z"/>
	<path class="st4" d="M42.8,212.3c0.5,0.5,0.7,1.2,0.7,2s-0.2,1.5-0.7,2c-0.5,0.5-1,0.8-1.8,0.8c-0.7,0-1.3-0.3-1.8-0.8
		c-0.5-0.5-0.7-1.2-0.7-2s0.2-1.5,0.7-2c0.5-0.5,1-0.8,1.8-0.8C41.8,211.5,42.4,211.8,42.8,212.3z M42.2,215.7
		c0.3-0.4,0.4-0.8,0.4-1.4s-0.1-1.1-0.4-1.4c-0.3-0.4-0.7-0.5-1.1-0.5c-0.5,0-0.8,0.2-1.1,0.5s-0.4,0.8-0.4,1.4s0.1,1.1,0.4,1.4
		c0.3,0.4,0.6,0.5,1.1,0.5C41.5,216.3,41.9,216.1,42.2,215.7z"/>
	<path class="st4" d="M45,215.6v-3.2h-0.9v-0.8H45v-1.4h0.9v1.4h1.3v0.8h-1.3v3.1c0,0.5,0.2,0.7,0.7,0.7c0.2,0,0.5-0.1,0.7-0.2v0.8
		c-0.2,0.1-0.5,0.2-0.8,0.2c-0.4,0-0.8-0.1-1.1-0.4C45.1,216.4,45,216.1,45,215.6z"/>
	<path class="st4" d="M52.3,212.3c0.5,0.5,0.7,1.2,0.7,2s-0.2,1.5-0.7,2c-0.5,0.5-1,0.8-1.8,0.8c-0.7,0-1.3-0.3-1.8-0.8
		c-0.5-0.5-0.7-1.2-0.7-2s0.2-1.5,0.7-2c0.5-0.5,1-0.8,1.8-0.8C51.3,211.5,51.8,211.8,52.3,212.3z M51.7,215.7
		c0.3-0.4,0.4-0.8,0.4-1.4s-0.1-1.1-0.4-1.4c-0.3-0.4-0.7-0.5-1.1-0.5c-0.5,0-0.8,0.2-1.1,0.5s-0.4,0.8-0.4,1.4s0.1,1.1,0.4,1.4
		c0.3,0.4,0.6,0.5,1.1,0.5C51,216.3,51.4,216.1,51.7,215.7z"/>
	<path class="st4" d="M56.1,217.9l3-8.8H60l-3,8.8H56.1z"/>
	<path class="st4" d="M67.4,216.9h-0.6l-2.3-5.6v5.6h-0.9v-7.4h1.1l2.5,6l2.5-6h1v7.4h-0.9v-5.6L67.4,216.9z"/>
	<path class="st4" d="M75.7,215.3h0.9c-0.1,0.5-0.3,0.9-0.7,1.2c-0.4,0.3-0.9,0.5-1.4,0.5c-0.7,0-1.3-0.3-1.8-0.8
		c-0.5-0.5-0.7-1.2-0.7-2c0-0.8,0.2-1.5,0.7-2c0.4-0.5,1-0.8,1.8-0.8c0.7,0,1.3,0.2,1.7,0.7c0.4,0.5,0.6,1.1,0.6,1.9v0.3h-3.8
		c0,0.6,0.2,1,0.4,1.3c0.3,0.3,0.7,0.5,1.1,0.5c0.3,0,0.6-0.1,0.8-0.2S75.6,215.6,75.7,215.3z M74.4,212.3c-0.4,0-0.7,0.1-1,0.4
		c-0.3,0.3-0.4,0.6-0.5,1.1h2.8c0-0.4-0.1-0.8-0.3-1.1C75.1,212.4,74.8,212.3,74.4,212.3z"/>
	<path class="st4" d="M81.4,216.9v-0.6c-0.1,0.2-0.4,0.4-0.6,0.5c-0.3,0.1-0.6,0.2-0.9,0.2c-0.8,0-1.3-0.3-1.8-0.8
		c-0.4-0.5-0.6-1.2-0.6-2c0-0.8,0.2-1.4,0.6-2c0.4-0.5,1-0.8,1.8-0.8c0.3,0,0.6,0.1,0.9,0.2c0.3,0.1,0.5,0.3,0.6,0.5v-3.1h0.9v7.8
		H81.4z M81.4,215.4v-2.2c-0.1-0.3-0.3-0.5-0.6-0.6c-0.2-0.2-0.5-0.2-0.8-0.2c-0.5,0-0.9,0.2-1.2,0.5c-0.3,0.4-0.4,0.8-0.4,1.4
		s0.1,1,0.4,1.4s0.7,0.5,1.2,0.5c0.3,0,0.6-0.1,0.8-0.2C81,215.8,81.2,215.6,81.4,215.4z"/>
	<path class="st4" d="M84.7,209.6c0.1,0.1,0.2,0.2,0.2,0.4s-0.1,0.3-0.2,0.4c-0.1,0.1-0.3,0.2-0.4,0.2c-0.2,0-0.3-0.1-0.4-0.2
		c-0.1-0.1-0.2-0.2-0.2-0.4s0.1-0.3,0.2-0.4c0.1-0.1,0.2-0.2,0.4-0.2C84.5,209.4,84.6,209.5,84.7,209.6z M84.8,211.6v5.3h-0.9v-5.3
		H84.8z"/>
	<path class="st4" d="M90.2,216.9h-0.9v-0.4c-0.1,0.1-0.3,0.2-0.6,0.3c-0.3,0.1-0.5,0.2-0.8,0.2c-0.6,0-1-0.2-1.4-0.5
		c-0.4-0.3-0.6-0.7-0.6-1.2c0-0.5,0.2-0.9,0.6-1.2c0.4-0.3,0.9-0.5,1.5-0.5c0.3,0,0.5,0,0.8,0.1c0.3,0.1,0.4,0.2,0.6,0.3v-0.7
		c0-0.3-0.1-0.6-0.3-0.8s-0.5-0.3-0.9-0.3c-0.6,0-0.9,0.2-1.1,0.7h-0.9c0.1-0.4,0.3-0.8,0.7-1.1c0.4-0.3,0.8-0.4,1.3-0.4
		c0.6,0,1.1,0.2,1.5,0.5s0.5,0.8,0.5,1.4V216.9z M89.4,215.6v-0.6c-0.1-0.2-0.2-0.3-0.5-0.5c-0.2-0.1-0.5-0.2-0.8-0.2
		c-0.4,0-0.7,0.1-0.9,0.2s-0.4,0.4-0.4,0.7c0,0.3,0.1,0.5,0.4,0.7s0.5,0.2,0.9,0.2c0.3,0,0.5-0.1,0.8-0.2
		C89.1,216,89.3,215.8,89.4,215.6z"/>
	<path class="st4" d="M97.1,209.2v0.8c-0.2-0.1-0.3-0.1-0.6-0.1c-0.3,0-0.5,0.1-0.6,0.3c-0.2,0.2-0.2,0.4-0.2,0.7v0.8h1.2v0.8h-1.2
		v4.6h-0.9v-4.6h-0.9v-0.8h0.9v-0.9c0-0.5,0.2-0.9,0.5-1.2c0.3-0.3,0.7-0.5,1.2-0.5C96.7,209,96.9,209.1,97.1,209.2z"/>
	<path class="st4" d="M98.8,209.6c0.1,0.1,0.2,0.2,0.2,0.4s-0.1,0.3-0.2,0.4c-0.1,0.1-0.3,0.2-0.4,0.2c-0.2,0-0.3-0.1-0.4-0.2
		c-0.1-0.1-0.2-0.2-0.2-0.4s0.1-0.3,0.2-0.4c0.1-0.1,0.2-0.2,0.4-0.2C98.5,209.4,98.6,209.5,98.8,209.6z M98.8,211.6v5.3h-0.9v-5.3
		H98.8z"/>
	<path class="st4" d="M101.3,209.1v7.8h-0.9v-7.8H101.3z"/>
	<path class="st4" d="M106.3,215.3h0.9c-0.1,0.5-0.3,0.9-0.7,1.2c-0.4,0.3-0.9,0.5-1.4,0.5c-0.7,0-1.3-0.3-1.8-0.8
		c-0.5-0.5-0.7-1.2-0.7-2c0-0.8,0.2-1.5,0.7-2c0.4-0.5,1-0.8,1.8-0.8c0.7,0,1.3,0.2,1.7,0.7c0.4,0.5,0.6,1.1,0.6,1.9v0.3h-3.8
		c0,0.6,0.2,1,0.4,1.3c0.3,0.3,0.7,0.5,1.1,0.5c0.3,0,0.6-0.1,0.8-0.2C106,215.9,106.2,215.6,106.3,215.3z M105,212.3
		c-0.4,0-0.7,0.1-1,0.4c-0.3,0.3-0.4,0.6-0.5,1.1h2.8c0-0.4-0.1-0.8-0.3-1.1C105.7,212.4,105.4,212.3,105,212.3z"/>
	<path class="st4" d="M108,215.5h0.9c0.2,0.5,0.6,0.8,1.3,0.8c0.3,0,0.6-0.1,0.8-0.2c0.2-0.1,0.3-0.3,0.3-0.6c0-0.4-0.3-0.6-0.8-0.7
		l-1.1-0.3c-0.9-0.2-1.3-0.7-1.3-1.4c0-0.5,0.2-0.8,0.5-1.1c0.4-0.3,0.8-0.4,1.4-0.4c0.6,0,1,0.1,1.4,0.4c0.4,0.3,0.6,0.6,0.7,1.1
		h-0.9c-0.2-0.5-0.6-0.8-1.2-0.8c-0.3,0-0.5,0.1-0.7,0.2c-0.2,0.1-0.3,0.3-0.3,0.6c0,0.2,0.1,0.3,0.2,0.4c0.1,0.1,0.3,0.2,0.6,0.3
		l1,0.3c0.9,0.2,1.4,0.7,1.4,1.5c0,0.5-0.2,0.9-0.6,1.2c-0.4,0.3-0.8,0.4-1.4,0.4s-1.1-0.1-1.5-0.4C108.3,216.3,108.1,216,108,215.5
		z"/>
</g>
<rect x="25.9" y="252.8" class="st2" width="118.9" height="18.3"/>
<g class="st3">
	<path class="st4" d="M27.7,253.2v7.4h-0.9v-7.4H27.7z"/>
	<path class="st4" d="M32.9,260.6V260c-0.1,0.2-0.4,0.4-0.6,0.5c-0.3,0.1-0.6,0.2-0.9,0.2c-0.8,0-1.3-0.3-1.8-0.8
		c-0.4-0.5-0.6-1.2-0.6-2c0-0.8,0.2-1.4,0.6-2c0.4-0.5,1-0.8,1.8-0.8c0.3,0,0.6,0.1,0.9,0.2c0.3,0.1,0.5,0.3,0.6,0.5v-3.1h0.9v7.8
		H32.9z M32.9,259v-2.2c-0.1-0.3-0.3-0.5-0.6-0.6c-0.2-0.2-0.5-0.2-0.8-0.2c-0.5,0-0.9,0.2-1.2,0.5c-0.3,0.4-0.4,0.8-0.4,1.4
		s0.1,1,0.4,1.4s0.7,0.5,1.2,0.5c0.3,0,0.6-0.1,0.8-0.2C32.6,259.5,32.8,259.3,32.9,259z"/>
	<path class="st4" d="M38.8,259h0.9c-0.1,0.5-0.3,0.9-0.7,1.2c-0.4,0.3-0.9,0.5-1.4,0.5c-0.7,0-1.3-0.3-1.8-0.8
		c-0.5-0.5-0.7-1.2-0.7-2c0-0.8,0.2-1.5,0.7-2c0.4-0.5,1-0.8,1.8-0.8c0.7,0,1.3,0.2,1.7,0.7c0.4,0.5,0.6,1.1,0.6,1.9v0.3h-3.8
		c0,0.6,0.2,1,0.4,1.3c0.3,0.3,0.7,0.5,1.1,0.5c0.3,0,0.6-0.1,0.8-0.2S38.7,259.3,38.8,259z M37.4,255.9c-0.4,0-0.7,0.1-1,0.4
		c-0.3,0.3-0.4,0.6-0.5,1.1h2.8c0-0.4-0.1-0.8-0.3-1.1C38.2,256.1,37.9,255.9,37.4,255.9z"/>
	<path class="st4" d="M40.9,260.6v-5.3h0.9v0.7c0.2-0.2,0.4-0.4,0.7-0.6s0.6-0.2,0.9-0.2c0.6,0,1.1,0.2,1.4,0.5
		c0.3,0.4,0.5,0.8,0.5,1.4v3.5h-0.9v-3.3c0-0.4-0.1-0.7-0.3-0.9c-0.2-0.2-0.5-0.3-0.9-0.3c-0.3,0-0.6,0.1-0.8,0.3
		c-0.2,0.2-0.4,0.4-0.5,0.7v3.6H40.9z"/>
	<path class="st4" d="M47,259.3V256h-0.9v-0.8H47v-1.4h0.9v1.4h1.3v0.8h-1.3v3.1c0,0.5,0.2,0.7,0.7,0.7c0.2,0,0.5-0.1,0.7-0.2v0.8
		c-0.2,0.1-0.5,0.2-0.8,0.2c-0.4,0-0.8-0.1-1.1-0.4C47.1,260.1,47,259.7,47,259.3z"/>
	<path class="st4" d="M51.4,253.3c0.1,0.1,0.2,0.2,0.2,0.4s-0.1,0.3-0.2,0.4c-0.1,0.1-0.3,0.2-0.4,0.2c-0.2,0-0.3-0.1-0.4-0.2
		c-0.1-0.1-0.2-0.2-0.2-0.4s0.1-0.3,0.2-0.4c0.1-0.1,0.2-0.2,0.4-0.2C51.2,253.1,51.3,253.2,51.4,253.3z M51.5,255.3v5.3h-0.9v-5.3
		H51.5z"/>
	<path class="st4" d="M53.3,259.3V256h-0.9v-0.8h0.9v-1.4h0.9v1.4h1.3v0.8h-1.3v3.1c0,0.5,0.2,0.7,0.7,0.7c0.2,0,0.5-0.1,0.7-0.2
		v0.8c-0.2,0.1-0.5,0.2-0.8,0.2c-0.4,0-0.8-0.1-1.1-0.4C53.4,260.1,53.3,259.7,53.3,259.3z"/>
	<path class="st4" d="M58.4,262.6h-0.9l0.8-2l-2.1-5.4h1l1.6,4.2l1.5-4.2h0.9L58.4,262.6z"/>
</g>
<rect x="25.9" y="295.5" class="st2" width="142.9" height="17.3"/>
<g class="st3">
	<path class="st4" d="M27.3,302.3c-0.6-0.7-0.9-1.6-0.9-2.7s0.3-2,0.9-2.7c0.6-0.7,1.4-1,2.4-1c0.8,0,1.4,0.2,1.9,0.6s0.8,1,1,1.7
		h-0.9c-0.3-0.9-1-1.4-1.9-1.4c-0.7,0-1.3,0.3-1.7,0.8c-0.4,0.5-0.6,1.3-0.6,2.1c0,0.9,0.2,1.6,0.6,2.1s1,0.8,1.7,0.8
		c1,0,1.6-0.5,1.9-1.4h0.9c-0.2,0.7-0.5,1.3-1,1.7s-1.1,0.6-1.9,0.6C28.7,303.4,27.9,303,27.3,302.3z"/>
	<path class="st4" d="M37.6,298.6c0.5,0.5,0.7,1.2,0.7,2s-0.2,1.5-0.7,2c-0.5,0.5-1,0.8-1.8,0.8c-0.7,0-1.3-0.3-1.8-0.8
		c-0.5-0.5-0.7-1.2-0.7-2s0.2-1.5,0.7-2c0.5-0.5,1-0.8,1.8-0.8C36.5,297.8,37.1,298.1,37.6,298.6z M36.9,302
		c0.3-0.4,0.4-0.8,0.4-1.4s-0.1-1.1-0.4-1.4c-0.3-0.4-0.7-0.5-1.1-0.5c-0.5,0-0.8,0.2-1.1,0.5s-0.4,0.8-0.4,1.4s0.1,1.1,0.4,1.4
		c0.3,0.4,0.6,0.5,1.1,0.5C36.3,302.6,36.7,302.4,36.9,302z"/>
	<path class="st4" d="M39.5,303.3v-5.3h0.9v0.7c0.2-0.2,0.4-0.4,0.7-0.6s0.6-0.2,0.9-0.2c0.6,0,1.1,0.2,1.4,0.5
		c0.3,0.4,0.5,0.8,0.5,1.4v3.5h-0.9v-3.3c0-0.4-0.1-0.7-0.3-0.9c-0.2-0.2-0.5-0.3-0.9-0.3c-0.3,0-0.6,0.1-0.8,0.3
		c-0.2,0.2-0.4,0.4-0.5,0.7v3.6H39.5z"/>
	<path class="st4" d="M45.6,301.9v-3.2h-0.9v-0.8h0.9v-1.4h0.9v1.4h1.3v0.8h-1.3v3.1c0,0.5,0.2,0.7,0.7,0.7c0.2,0,0.5-0.1,0.7-0.2
		v0.8c-0.2,0.1-0.5,0.2-0.8,0.2c-0.4,0-0.8-0.1-1.1-0.4C45.7,302.8,45.6,302.4,45.6,301.9z"/>
	<path class="st4" d="M52.9,303.3h-0.9v-0.4c-0.1,0.1-0.3,0.2-0.6,0.3c-0.3,0.1-0.5,0.2-0.8,0.2c-0.6,0-1-0.2-1.4-0.5
		c-0.4-0.3-0.6-0.7-0.6-1.2c0-0.5,0.2-0.9,0.6-1.2c0.4-0.3,0.9-0.5,1.5-0.5c0.3,0,0.5,0,0.8,0.1c0.3,0.1,0.4,0.2,0.6,0.3v-0.7
		c0-0.3-0.1-0.6-0.3-0.8s-0.5-0.3-0.9-0.3c-0.6,0-0.9,0.2-1.1,0.7h-0.9c0.1-0.4,0.3-0.8,0.7-1.1c0.4-0.3,0.8-0.4,1.3-0.4
		c0.6,0,1.1,0.2,1.5,0.5s0.5,0.8,0.5,1.4V303.3z M52.1,302v-0.6c-0.1-0.2-0.2-0.3-0.5-0.5c-0.2-0.1-0.5-0.2-0.8-0.2
		c-0.4,0-0.7,0.1-0.9,0.2s-0.4,0.4-0.4,0.7c0,0.3,0.1,0.5,0.4,0.7s0.5,0.2,0.9,0.2c0.3,0,0.5-0.1,0.8-0.2
		C51.8,302.3,52,302.1,52.1,302z"/>
	<path class="st4" d="M54.8,302.6c-0.4-0.5-0.7-1.2-0.7-2s0.2-1.5,0.7-2c0.4-0.5,1-0.8,1.8-0.8c0.6,0,1.1,0.2,1.4,0.5
		c0.4,0.3,0.6,0.7,0.7,1.2h-0.9c-0.1-0.3-0.2-0.5-0.4-0.7c-0.2-0.2-0.5-0.2-0.8-0.2c-0.5,0-0.8,0.2-1.1,0.6S55,300,55,300.6
		s0.1,1.1,0.4,1.4c0.3,0.4,0.6,0.6,1.1,0.6c0.3,0,0.6-0.1,0.8-0.2s0.3-0.4,0.4-0.7h0.9c-0.1,0.5-0.3,0.9-0.7,1.2
		c-0.4,0.3-0.9,0.5-1.4,0.5C55.8,303.4,55.2,303.1,54.8,302.6z"/>
	<path class="st4" d="M60.1,301.9v-3.2h-0.9v-0.8h0.9v-1.4H61v1.4h1.3v0.8H61v3.1c0,0.5,0.2,0.7,0.7,0.7c0.2,0,0.5-0.1,0.7-0.2v0.8
		c-0.2,0.1-0.5,0.2-0.8,0.2c-0.4,0-0.8-0.1-1.1-0.4C60.2,302.8,60.1,302.4,60.1,301.9z"/>
	<path class="st4" d="M63.2,301.8h0.9c0.2,0.5,0.6,0.8,1.3,0.8c0.3,0,0.6-0.1,0.8-0.2c0.2-0.1,0.3-0.3,0.3-0.6
		c0-0.4-0.3-0.6-0.8-0.7l-1.1-0.3c-0.9-0.2-1.3-0.7-1.3-1.4c0-0.5,0.2-0.8,0.5-1.1c0.4-0.3,0.8-0.4,1.4-0.4c0.6,0,1,0.1,1.4,0.4
		s0.6,0.6,0.7,1.1h-0.9c-0.2-0.5-0.6-0.8-1.2-0.8c-0.3,0-0.5,0.1-0.7,0.2c-0.2,0.1-0.3,0.3-0.3,0.6c0,0.2,0.1,0.3,0.2,0.4
		c0.1,0.1,0.3,0.2,0.6,0.3l1,0.3c0.9,0.2,1.4,0.7,1.4,1.5c0,0.5-0.2,0.9-0.6,1.2c-0.4,0.3-0.8,0.4-1.4,0.4s-1.1-0.1-1.5-0.4
		C63.5,302.7,63.3,302.3,63.2,301.8z"/>
</g>
<path class="st5" d="M172.2,178.5h-18.5c-4.1,0-7.4-3.3-7.4-7.4l0,0c0-4.1,3.3-7.4,7.4-7.4h18.5c4.1,0,7.4,3.3,7.4,7.4l0,0
	C179.6,175.2,176.3,178.5,172.2,178.5z"/>
<circle class="st6" cx="171.4" cy="171.2" r="6.3"/>
<path class="st7" d="M172.2,222.2h-18.5c-4.1,0-7.4-3.3-7.4-7.4l0,0c0-4.1,3.3-7.4,7.4-7.4h18.5c4.1,0,7.4,3.3,7.4,7.4l0,0
	C179.6,218.9,176.3,222.2,172.2,222.2z"/>
<circle class="st5" cx="153.5" cy="214.8" r="6.3"/>
<path class="st7" d="M172.2,264.9h-18.5c-4.1,0-7.4-3.3-7.4-7.4l0,0c0-4.1,3.3-7.4,7.4-7.4h18.5c4.1,0,7.4,3.3,7.4,7.4l0,0
	C179.6,261.5,176.3,264.9,172.2,264.9z"/>
<circle class="st5" cx="153.5" cy="257.5" r="6.3"/>
<path class="st7" d="M172.2,307.9h-18.5c-4.1,0-7.4-3.3-7.4-7.4l0,0c0-4.1,3.3-7.4,7.4-7.4h18.5c4.1,0,7.4,3.3,7.4,7.4l0,0
	C179.6,304.5,176.3,307.9,172.2,307.9z"/>
<circle class="st5" cx="153.5" cy="300.5" r="6.3"/>
<rect x="77.6" y="101.9" class="st2" width="91.1" height="16.7"/>
<g class="st3">
	<path class="st4" d="M78,108.8h1.1c0.3,1,1.1,1.4,2.2,1.4c0.6,0,1-0.1,1.4-0.4s0.5-0.6,0.5-1.1c0-0.3-0.1-0.6-0.3-0.8
		c-0.2-0.2-0.6-0.4-1-0.5l-1.5-0.4c-1.4-0.4-2.1-1.1-2.1-2.2c0-0.7,0.3-1.3,0.8-1.8c0.5-0.5,1.2-0.7,2-0.7c0.9,0,1.6,0.2,2.1,0.6
		c0.5,0.4,0.9,1,1.1,1.7h-1.1c-0.3-0.9-1-1.3-2-1.3c-0.5,0-1,0.1-1.3,0.4c-0.3,0.3-0.5,0.6-0.5,1c0,0.4,0.1,0.6,0.3,0.8
		c0.2,0.2,0.6,0.4,1,0.5l1.5,0.4c1.4,0.4,2.1,1.1,2.1,2.3c0,0.8-0.3,1.4-0.8,1.8c-0.6,0.4-1.3,0.7-2.1,0.7s-1.6-0.2-2.2-0.6
		S78.1,109.6,78,108.8z"/>
	<path class="st4" d="M86.7,110.3v3.1h-1v-8.6h1v0.7c0.2-0.2,0.4-0.4,0.7-0.6c0.3-0.2,0.7-0.2,1-0.2c0.9,0,1.6,0.3,2.1,0.9
		c0.5,0.6,0.7,1.4,0.7,2.3c0,0.9-0.2,1.7-0.7,2.3c-0.5,0.6-1.2,0.9-2.1,0.9c-0.4,0-0.7-0.1-1-0.2C87.1,110.8,86.9,110.6,86.7,110.3z
		 M86.7,106.7v2.5c0.2,0.3,0.4,0.6,0.7,0.7c0.3,0.2,0.6,0.3,0.9,0.3c0.6,0,1-0.2,1.4-0.6s0.5-1,0.5-1.6c0-0.7-0.2-1.2-0.5-1.6
		s-0.8-0.6-1.4-0.6c-0.3,0-0.6,0.1-0.9,0.3C87.1,106.1,86.9,106.4,86.7,106.7z"/>
	<path class="st4" d="M97.2,111h-1v-0.5c-0.1,0.1-0.4,0.3-0.7,0.4c-0.3,0.1-0.6,0.2-1,0.2c-0.7,0-1.2-0.2-1.6-0.5
		c-0.4-0.4-0.7-0.8-0.7-1.4c0-0.6,0.2-1,0.7-1.4c0.5-0.4,1-0.5,1.7-0.5c0.3,0,0.6,0.1,0.9,0.2s0.5,0.2,0.7,0.3v-0.8
		c0-0.4-0.1-0.7-0.4-1c-0.2-0.2-0.6-0.4-1-0.4c-0.7,0-1.1,0.3-1.3,0.9h-1c0.1-0.5,0.4-0.9,0.8-1.3c0.4-0.3,0.9-0.5,1.5-0.5
		c0.7,0,1.3,0.2,1.7,0.6c0.4,0.4,0.6,0.9,0.6,1.6V111z M96.2,109.5v-0.6c-0.1-0.2-0.3-0.4-0.6-0.6c-0.3-0.1-0.6-0.2-0.9-0.2
		c-0.4,0-0.8,0.1-1,0.3c-0.3,0.2-0.4,0.5-0.4,0.8c0,0.4,0.1,0.6,0.4,0.8c0.3,0.2,0.6,0.3,1,0.3c0.3,0,0.6-0.1,0.9-0.2
		C95.9,109.9,96.1,109.7,96.2,109.5z"/>
	<path class="st4" d="M99.3,110.3c-0.5-0.6-0.8-1.4-0.8-2.3c0-1,0.3-1.7,0.8-2.3c0.5-0.6,1.2-0.9,2-0.9c0.7,0,1.2,0.2,1.7,0.5
		c0.4,0.4,0.7,0.8,0.8,1.5h-1.1c-0.1-0.3-0.2-0.6-0.5-0.8c-0.2-0.2-0.6-0.3-0.9-0.3c-0.5,0-1,0.2-1.3,0.6c-0.3,0.4-0.5,1-0.5,1.7
		c0,0.7,0.2,1.2,0.5,1.7c0.3,0.4,0.7,0.6,1.3,0.6c0.4,0,0.7-0.1,0.9-0.3c0.2-0.2,0.4-0.5,0.5-0.8h1.1c-0.1,0.6-0.4,1.1-0.8,1.5
		c-0.4,0.4-1,0.5-1.7,0.5C100.5,111.2,99.8,110.9,99.3,110.3z"/>
	<path class="st4" d="M109.1,109.2h1c-0.1,0.6-0.4,1.1-0.8,1.4s-1,0.5-1.7,0.5c-0.8,0-1.5-0.3-2.1-0.9s-0.8-1.4-0.8-2.3
		c0-0.9,0.3-1.7,0.8-2.3s1.2-0.9,2-0.9c0.8,0,1.5,0.3,1.9,0.8c0.5,0.6,0.7,1.3,0.7,2.2v0.4h-4.4c0,0.7,0.2,1.2,0.5,1.6
		c0.3,0.4,0.8,0.6,1.3,0.6c0.4,0,0.7-0.1,1-0.3C108.9,109.8,109,109.5,109.1,109.2z M107.6,105.6c-0.5,0-0.9,0.2-1.2,0.5
		c-0.3,0.3-0.5,0.7-0.6,1.3h3.3c0-0.5-0.1-0.9-0.4-1.2C108.5,105.8,108.1,105.6,107.6,105.6z"/>
	<path class="st4" d="M117.9,104.8v1.1c-0.2-0.1-0.4-0.2-0.7-0.2c-0.3,0-0.6,0.1-0.9,0.3c-0.3,0.2-0.4,0.5-0.5,0.9v4.2h-1v-6.2h1
		v0.8c0.1-0.3,0.3-0.5,0.6-0.7c0.3-0.2,0.6-0.3,0.9-0.3C117.6,104.7,117.8,104.7,117.9,104.8z"/>
	<path class="st4" d="M123.5,111h-1v-0.5c-0.1,0.1-0.4,0.3-0.7,0.4s-0.6,0.2-1,0.2c-0.7,0-1.2-0.2-1.6-0.5c-0.4-0.4-0.7-0.8-0.7-1.4
		c0-0.6,0.2-1,0.7-1.4c0.5-0.4,1-0.5,1.7-0.5c0.3,0,0.6,0.1,0.9,0.2s0.5,0.2,0.7,0.3v-0.8c0-0.4-0.1-0.7-0.4-1
		c-0.2-0.2-0.6-0.4-1-0.4c-0.7,0-1.1,0.3-1.3,0.9h-1c0.1-0.5,0.4-0.9,0.8-1.3c0.4-0.3,0.9-0.5,1.5-0.5c0.7,0,1.3,0.2,1.7,0.6
		c0.4,0.4,0.6,0.9,0.6,1.6V111z M122.5,109.5v-0.6c-0.1-0.2-0.3-0.4-0.6-0.6c-0.3-0.1-0.6-0.2-0.9-0.2c-0.4,0-0.8,0.1-1,0.3
		c-0.3,0.2-0.4,0.5-0.4,0.8c0,0.4,0.1,0.6,0.4,0.8c0.3,0.2,0.6,0.3,1,0.3c0.3,0,0.6-0.1,0.9-0.2
		C122.2,109.9,122.4,109.7,122.5,109.5z"/>
	<path class="st4" d="M125.7,110.3c-0.5-0.6-0.8-1.4-0.8-2.3c0-1,0.3-1.7,0.8-2.3c0.5-0.6,1.2-0.9,2-0.9c0.7,0,1.2,0.2,1.7,0.5
		s0.7,0.8,0.8,1.5h-1.1c-0.1-0.3-0.2-0.6-0.5-0.8s-0.6-0.3-0.9-0.3c-0.5,0-1,0.2-1.3,0.6c-0.3,0.4-0.5,1-0.5,1.7
		c0,0.7,0.2,1.2,0.5,1.7c0.3,0.4,0.7,0.6,1.3,0.6c0.4,0,0.7-0.1,0.9-0.3s0.4-0.5,0.5-0.8h1.1c-0.1,0.6-0.4,1.1-0.8,1.5
		s-1,0.5-1.7,0.5C126.9,111.2,126.2,110.9,125.7,110.3z"/>
	<path class="st4" d="M135.5,109.2h1c-0.1,0.6-0.4,1.1-0.8,1.4s-1,0.5-1.7,0.5c-0.8,0-1.5-0.3-2.1-0.9s-0.8-1.4-0.8-2.3
		c0-0.9,0.3-1.7,0.8-2.3c0.5-0.6,1.2-0.9,2-0.9c0.8,0,1.5,0.3,1.9,0.8s0.7,1.3,0.7,2.2v0.4h-4.4c0,0.7,0.2,1.2,0.5,1.6
		c0.3,0.4,0.8,0.6,1.3,0.6c0.4,0,0.7-0.1,1-0.3C135.2,109.8,135.4,109.5,135.5,109.2z M133.9,105.6c-0.5,0-0.9,0.2-1.2,0.5
		c-0.3,0.3-0.5,0.7-0.6,1.3h3.3c0-0.5-0.1-0.9-0.4-1.2C134.8,105.8,134.4,105.6,133.9,105.6z"/>
	<path class="st4" d="M145.5,111h-1v-0.5c-0.1,0.1-0.3,0.3-0.7,0.4c-0.3,0.1-0.6,0.2-1,0.2c-0.7,0-1.2-0.2-1.6-0.5
		c-0.4-0.4-0.7-0.8-0.7-1.4c0-0.6,0.2-1,0.7-1.4c0.5-0.4,1-0.5,1.7-0.5c0.3,0,0.6,0.1,0.9,0.2s0.5,0.2,0.7,0.3v-0.8
		c0-0.4-0.1-0.7-0.4-1c-0.2-0.2-0.6-0.4-1-0.4c-0.7,0-1.1,0.3-1.3,0.9h-1c0.1-0.5,0.4-0.9,0.8-1.3c0.4-0.3,0.9-0.5,1.5-0.5
		c0.7,0,1.3,0.2,1.7,0.6c0.4,0.4,0.6,0.9,0.6,1.6V111z M144.5,109.5v-0.6c-0.1-0.2-0.3-0.4-0.6-0.6c-0.3-0.1-0.6-0.2-0.9-0.2
		c-0.4,0-0.8,0.1-1,0.3s-0.4,0.5-0.4,0.8c0,0.4,0.1,0.6,0.4,0.8s0.6,0.3,1,0.3c0.3,0,0.6-0.1,0.9-0.2
		C144.2,109.9,144.4,109.7,144.5,109.5z"/>
	<path class="st4" d="M148.4,110.3v3.1h-1v-8.6h1v0.7c0.2-0.2,0.4-0.4,0.7-0.6c0.3-0.2,0.7-0.2,1-0.2c0.9,0,1.6,0.3,2.1,0.9
		c0.5,0.6,0.7,1.4,0.7,2.3c0,0.9-0.2,1.7-0.7,2.3c-0.5,0.6-1.2,0.9-2.1,0.9c-0.4,0-0.7-0.1-1-0.2
		C148.8,110.8,148.6,110.6,148.4,110.3z M148.4,106.7v2.5c0.2,0.3,0.4,0.6,0.7,0.7c0.3,0.2,0.6,0.3,0.9,0.3c0.6,0,1-0.2,1.4-0.6
		s0.5-1,0.5-1.6c0-0.7-0.2-1.2-0.5-1.6s-0.8-0.6-1.4-0.6c-0.3,0-0.6,0.1-0.9,0.3C148.8,106.1,148.5,106.4,148.4,106.7z"/>
	<path class="st4" d="M155.4,110.3v3.1h-1v-8.6h1v0.7c0.2-0.2,0.4-0.4,0.7-0.6s0.7-0.2,1-0.2c0.9,0,1.6,0.3,2.1,0.9
		c0.5,0.6,0.7,1.4,0.7,2.3c0,0.9-0.2,1.7-0.7,2.3c-0.5,0.6-1.2,0.9-2.1,0.9c-0.4,0-0.7-0.1-1-0.2S155.6,110.6,155.4,110.3z
		 M155.4,106.7v2.5c0.2,0.3,0.4,0.6,0.7,0.7c0.3,0.2,0.6,0.3,0.9,0.3c0.6,0,1-0.2,1.4-0.6s0.5-1,0.5-1.6c0-0.7-0.2-1.2-0.5-1.6
		s-0.8-0.6-1.4-0.6c-0.3,0-0.6,0.1-0.9,0.3C155.8,106.1,155.6,106.4,155.4,106.7z"/>
</g>
<g>
	<g id="hMBqw9_2_">
		<g>
			<path d="M44.3,125.4c0-0.3-0.2-0.7-0.1-0.9c0.5-1.5,1-3.1,1.5-4.6c0.1-0.4,0.1-0.6-0.2-0.9c-2.1-2-4.2-3.9-6.3-5.9
				c-0.3-0.3-0.5-0.3-0.9-0.2c-1.7,0.6-3.4,1.2-5.1,1.7c-0.3,0.1-0.6-0.1-0.9-0.1c0-0.2,0-0.3,0-0.5c0.6-1.4,1.1-2.8,1.7-4.1
				c0.8-1.7,1.7-3.3,2.8-4.8c1.3-1.7,3-2.5,5.2-2.5c0.7,0,1.5,0,2.2,0.1c0.8,0.2,1.3-0.1,1.8-0.7c2.7-3.3,5.7-6.3,9.3-8.6
				c3.5-2.2,7.4-3.5,11.5-4c0.2,0,0.3-0.1,0.5-0.1c0.3,0,0.6,0,1,0c0.1,0.5,0.2,0.9,0.2,1.4c-0.4,5.8-2.7,10.8-6.4,15.2
				c-1.8,2.1-3.9,4.1-6,5.9c-0.3,0.3-0.4,0.5-0.3,0.9c0.1,1.2,0.3,2.4,0.3,3.6c0,1.5-0.6,2.7-1.6,3.7c-1.6,1.5-3.5,2.6-5.4,3.5
				c-1.2,0.6-2.5,1.1-3.8,1.6c-0.2,0.1-0.4,0.2-0.5,0.3C44.6,125.4,44.5,125.4,44.3,125.4z M55.1,113.1c-0.3,0.1-0.3,0.2-0.4,0.2
				c-2.5,1.9-5,3.8-7.5,5.7c-0.2,0.1-0.3,0.4-0.4,0.6c-0.5,1.4-0.9,2.7-1.3,4.1c0,0.1,0,0.3-0.1,0.5c1.3-0.5,2.4-1,3.5-1.6
				c1.8-0.9,3.6-1.8,5-3.3c0.7-0.7,1.3-1.6,1.3-2.7C55.2,115.5,55.1,114.4,55.1,113.1z M44.6,103.7c-0.6-0.1-1-0.1-1.5-0.1
				c-2.8-0.4-4.8,0.7-6.3,3l0,0c-1.3,2-2.3,4.2-3.1,6.5c0,0.1,0,0.2,0,0.3c0.5-0.2,1-0.3,1.4-0.5c1.2-0.4,2.5-0.6,3.5-1.3
				c1-0.7,1.6-2,2.3-3C42.1,107.1,43.3,105.5,44.6,103.7z"/>
			<path class="st6" d="M55.1,113.1c0,1.3,0.1,2.5,0.1,3.6s-0.6,1.9-1.3,2.7c-1.4,1.4-3.2,2.4-5,3.3c-1.1,0.5-2.3,1-3.5,1.6
				c0-0.3,0.1-0.4,0.1-0.5c0.4-1.4,0.9-2.7,1.3-4.1c0.1-0.2,0.2-0.5,0.4-0.6c2.5-1.9,5-3.8,7.5-5.7
				C54.7,113.2,54.8,113.2,55.1,113.1z"/>
			<path class="st6" d="M44.6,103.7c-1.3,1.8-2.5,3.4-3.7,5c-0.8,1-1.4,2.3-2.3,3c-1,0.7-2.3,0.9-3.5,1.3c-0.5,0.2-0.9,0.3-1.4,0.5
				c0-0.1,0-0.2,0-0.3c0.9-2.2,1.8-4.5,3.1-6.5l0,0c1.4-2.4,3.5-3.4,6.3-3C43.6,103.7,44,103.7,44.6,103.7z"/>
		</g>
	</g>
	<circle class="st6" cx="59.3" cy="98.2" r="2.3"/>
</g>
<line class="st8" x1="14.9" y1="194.1" x2="186.5" y2="194.1"/>
<line class="st8" x1="14.9" y1="151.6" x2="186.5" y2="151.6"/>
<line class="st8" x1="14.9" y1="236.7" x2="186.5" y2="236.7"/>
<line class="st8" x1="14.9" y1="279.3" x2="186.5" y2="279.3"/>
<line class="st8" x1="14.9" y1="321.8" x2="186.5" y2="321.8"/>
<g>
	<g>
		<rect x="14.5" y="63.5" class="st9" width="172" height="303"/>
		<g>
			<circle class="st10" cx="102.9" cy="393.7" r="17.1"/>
		</g>
		<circle class="st1" cx="101.8" cy="26.2" r="3.2"/>
		<path class="st1" d="M124.6,37.6H79.4c-1,0-1.8-0.8-1.8-1.8l0,0c0-1,0.8-1.8,1.8-1.8h45.2c1,0,1.8,0.8,1.8,1.8l0,0
			C126.3,36.8,125.5,37.6,124.6,37.6z"/>
	</g>
</g>
<g>
	<g class="st3">
		<path class="st5" d="M86.3,339.3h1l3.4,8.6h-1.1l-1-2.6H85l-1,2.6h-1.1L86.3,339.3z M86.8,340.6l-1.4,3.7h2.8L86.8,340.6z"/>
		<path class="st5" d="M92.2,347.1c-0.5-0.6-0.8-1.4-0.8-2.3c0-1,0.3-1.7,0.8-2.3c0.5-0.6,1.2-0.9,2-0.9c0.7,0,1.2,0.2,1.7,0.5
			c0.4,0.4,0.7,0.8,0.8,1.5h-1.1c-0.1-0.3-0.2-0.6-0.5-0.8c-0.2-0.2-0.6-0.3-0.9-0.3c-0.5,0-1,0.2-1.3,0.6c-0.3,0.4-0.5,1-0.5,1.7
			c0,0.7,0.2,1.2,0.5,1.7c0.3,0.4,0.7,0.6,1.3,0.6c0.4,0,0.7-0.1,0.9-0.3c0.2-0.2,0.4-0.5,0.5-0.8h1.1c-0.1,0.6-0.4,1.1-0.8,1.5
			c-0.4,0.4-1,0.5-1.7,0.5C93.4,348,92.7,347.7,92.2,347.1z"/>
		<path class="st5" d="M98.4,347.1c-0.5-0.6-0.8-1.4-0.8-2.3c0-1,0.3-1.7,0.8-2.3c0.5-0.6,1.2-0.9,2-0.9c0.7,0,1.2,0.2,1.7,0.5
			c0.4,0.4,0.7,0.8,0.8,1.5h-1.1c-0.1-0.3-0.2-0.6-0.5-0.8c-0.2-0.2-0.6-0.3-0.9-0.3c-0.5,0-1,0.2-1.3,0.6c-0.3,0.4-0.5,1-0.5,1.7
			c0,0.7,0.2,1.2,0.5,1.7c0.3,0.4,0.7,0.6,1.3,0.6c0.4,0,0.7-0.1,0.9-0.3c0.2-0.2,0.4-0.5,0.5-0.8h1.1c-0.1,0.6-0.4,1.1-0.8,1.5
			c-0.4,0.4-1,0.5-1.7,0.5C99.6,348,98.9,347.7,98.4,347.1z"/>
		<path class="st5" d="M108.2,346h1c-0.1,0.6-0.4,1.1-0.8,1.4s-1,0.5-1.7,0.5c-0.8,0-1.5-0.3-2.1-0.9s-0.8-1.4-0.8-2.3
			c0-0.9,0.3-1.7,0.8-2.3s1.2-0.9,2-0.9c0.8,0,1.5,0.3,1.9,0.8s0.7,1.3,0.7,2.2v0.4h-4.4c0,0.7,0.2,1.2,0.5,1.6
			c0.3,0.4,0.8,0.6,1.3,0.6c0.4,0,0.7-0.1,1-0.3C107.9,346.6,108.1,346.3,108.2,346z M106.6,342.4c-0.5,0-0.9,0.2-1.2,0.5
			c-0.3,0.3-0.5,0.7-0.6,1.3h3.3c0-0.5-0.1-0.9-0.4-1.2C107.5,342.6,107.1,342.4,106.6,342.4z"/>
		<path class="st5" d="M111.7,347.1v3.1h-1v-8.6h1v0.7c0.2-0.2,0.4-0.4,0.7-0.6s0.7-0.2,1-0.2c0.9,0,1.6,0.3,2.1,0.9
			c0.5,0.6,0.7,1.4,0.7,2.3c0,0.9-0.2,1.7-0.7,2.3c-0.5,0.6-1.2,0.9-2.1,0.9c-0.4,0-0.7-0.1-1-0.2S111.9,347.4,111.7,347.1z
			 M111.7,343.5v2.5c0.2,0.3,0.4,0.6,0.7,0.7c0.3,0.2,0.6,0.3,0.9,0.3c0.6,0,1-0.2,1.4-0.6c0.3-0.4,0.5-1,0.5-1.6
			c0-0.7-0.2-1.2-0.5-1.6c-0.3-0.4-0.8-0.6-1.4-0.6c-0.3,0-0.6,0.1-0.9,0.3C112.1,342.9,111.9,343.2,111.7,343.5z"/>
		<path class="st5" d="M118,346.3v-3.8h-1v-0.9h1V340h1.1v1.6h1.5v0.9H119v3.6c0,0.6,0.3,0.9,0.8,0.9c0.3,0,0.6-0.1,0.8-0.3v1
			c-0.3,0.1-0.6,0.2-1,0.2c-0.5,0-0.9-0.1-1.2-0.4C118.1,347.3,118,346.8,118,346.3z"/>
	</g>
</g>
</svg>
