<?xml version="1.0" encoding="utf-8"?>
<!-- Generator: Adobe Illustrator 19.2.1, SVG Export Plug-In . SVG Version: 6.00 Build 0)  -->
<svg version="1.1" id="Layer_1" xmlns="http://www.w3.org/2000/svg" xmlns:xlink="http://www.w3.org/1999/xlink" x="0px" y="0px"
	 viewBox="0 0 640 393" style="enable-background:new 0 0 640 393;" xml:space="preserve">
<style type="text/css">
	.st0{fill:#C1C1C1;}
	.st1{fill:#FFFFFF;}
	.st2{enable-background:new    ;}
	.st3{fill:#1D1D1B;}
	.st4{fill:#2341C1;}
	.st5{fill:#DDDDDD;}
	.st6{font-family:'Calibre-Regular';}
	.st7{font-size:10.03px;}
	.st8{fill:none;stroke:#FFFFFF;stroke-miterlimit:10;}
	.st9{fill:none;stroke:#1D1D1B;stroke-miterlimit:10;}
	.st10{fill:#1E1E1E;}
	.st11{fill:#FFFFFF;stroke:#1D1D1B;stroke-miterlimit:10;}
	.st12{fill:none;stroke:#2341C1;stroke-miterlimit:10;}
	.st13{fill:none;stroke:#DDDDDD;stroke-miterlimit:10;}
</style>
<title>access-expiration</title>
<rect x="78.9" y="66" class="st0" width="485.5" height="291"/>
<rect x="169.1" y="102.7" class="st1" width="305" height="262.6"/>
<g class="st2">
	<path class="st3" d="M223.2,183.4h1.1c0.1,0.5,0.2,0.9,0.5,1.1c0.3,0.3,0.7,0.4,1.1,0.4c1.1,0,1.7-0.7,1.7-2v-5.7h1.1v5.7
		c0,1-0.3,1.7-0.8,2.2s-1.2,0.8-2,0.8c-0.8,0-1.5-0.2-2-0.7C223.6,184.8,223.3,184.1,223.2,183.4z"/>
	<path class="st3" d="M235.6,179.6v6.2h-1.1V185c-0.2,0.3-0.4,0.5-0.8,0.7s-0.7,0.3-1,0.3c-0.7,0-1.2-0.2-1.6-0.6
		c-0.4-0.4-0.6-1-0.6-1.7v-4.1h1.1v3.9c0,0.5,0.1,0.8,0.3,1.1c0.2,0.3,0.6,0.4,1,0.4c0.4,0,0.7-0.1,1-0.3c0.3-0.2,0.5-0.5,0.6-0.8
		v-4.2H235.6z"/>
	<path class="st3" d="M238.5,176.7v9.1h-1v-9.1H238.5z"/>
	<path class="st3" d="M241.4,177.2c0.1,0.1,0.2,0.3,0.2,0.5s-0.1,0.3-0.2,0.5c-0.1,0.1-0.3,0.2-0.5,0.2c-0.2,0-0.3-0.1-0.5-0.2
		s-0.2-0.3-0.2-0.5s0.1-0.3,0.2-0.5c0.1-0.1,0.3-0.2,0.5-0.2C241.1,177,241.3,177.1,241.4,177.2z M241.4,179.6v6.2h-1v-6.2H241.4z"
		/>
	<path class="st3" d="M247.2,183.9h1c-0.1,0.6-0.4,1.1-0.8,1.4s-1,0.5-1.7,0.5c-0.8,0-1.5-0.3-2.1-0.9s-0.8-1.4-0.8-2.3
		c0-0.9,0.3-1.7,0.8-2.3c0.5-0.6,1.2-0.9,2-0.9c0.8,0,1.5,0.3,1.9,0.8s0.7,1.3,0.7,2.2v0.4h-4.4c0,0.7,0.2,1.2,0.5,1.6
		c0.3,0.4,0.8,0.6,1.3,0.6c0.4,0,0.7-0.1,1-0.3C247,184.6,247.2,184.3,247.2,183.9z M245.7,180.4c-0.5,0-0.9,0.2-1.2,0.5
		c-0.3,0.3-0.5,0.7-0.6,1.3h3.3c0-0.5-0.1-0.9-0.4-1.2C246.6,180.5,246.2,180.4,245.7,180.4z"/>
</g>
<g class="st2">
	<path class="st3" d="M254,185.8h-1.1v-8.6h5.2v1H254v2.9h3.9v1H254V185.8z"/>
	<path class="st3" d="M262.6,179.6v1.1c-0.2-0.1-0.4-0.2-0.7-0.2c-0.3,0-0.6,0.1-0.9,0.3c-0.3,0.2-0.4,0.5-0.5,0.9v4.2h-1v-6.2h1
		v0.8c0.1-0.3,0.3-0.5,0.6-0.7c0.3-0.2,0.6-0.3,0.9-0.3C262.3,179.5,262.5,179.5,262.6,179.6z"/>
</g>
<g class="st2">
	<path class="st3" d="M268.3,185.8h-1v-0.5c-0.1,0.1-0.4,0.3-0.7,0.4c-0.3,0.1-0.6,0.2-1,0.2c-0.7,0-1.2-0.2-1.6-0.5
		c-0.4-0.4-0.7-0.8-0.7-1.4c0-0.6,0.2-1,0.7-1.4c0.5-0.4,1-0.5,1.7-0.5c0.3,0,0.6,0.1,0.9,0.2s0.5,0.2,0.7,0.3v-0.8
		c0-0.4-0.1-0.7-0.4-1c-0.2-0.2-0.6-0.4-1-0.4c-0.7,0-1.1,0.3-1.3,0.9h-1c0.1-0.5,0.4-0.9,0.8-1.3c0.4-0.3,0.9-0.5,1.5-0.5
		c0.7,0,1.3,0.2,1.7,0.6c0.4,0.4,0.6,0.9,0.6,1.6V185.8z M267.3,184.3v-0.6c-0.1-0.2-0.3-0.4-0.6-0.6c-0.3-0.1-0.6-0.2-0.9-0.2
		c-0.4,0-0.8,0.1-1,0.3c-0.3,0.2-0.4,0.5-0.4,0.8c0,0.4,0.1,0.6,0.4,0.8c0.3,0.2,0.6,0.3,1,0.3c0.3,0,0.6-0.1,0.9-0.2
		C267,184.7,267.2,184.5,267.3,184.3z"/>
	<path class="st3" d="M270.1,185.8v-6.2h1v0.8c0.2-0.3,0.5-0.5,0.8-0.7c0.3-0.2,0.7-0.3,1.1-0.3c0.7,0,1.2,0.2,1.6,0.6
		c0.4,0.4,0.6,1,0.6,1.7v4.1h-1.1v-3.9c0-0.4-0.1-0.8-0.3-1.1c-0.2-0.3-0.6-0.4-1-0.4c-0.4,0-0.7,0.1-1,0.3
		c-0.3,0.2-0.5,0.5-0.6,0.8v4.2H270.1z"/>
	<path class="st3" d="M281,185.8l-2.4-2.9l-0.7,0.6v2.2h-1v-9.1h1v5.6l2.8-2.8h1.4l-2.8,2.7l2.9,3.5H281z"/>
	<path class="st3" d="M284.4,176.7v9.1h-1v-9.1H284.4z"/>
	<path class="st3" d="M287.3,177.2c0.1,0.1,0.2,0.3,0.2,0.5s-0.1,0.3-0.2,0.5s-0.3,0.2-0.5,0.2c-0.2,0-0.3-0.1-0.5-0.2
		c-0.1-0.1-0.2-0.3-0.2-0.5s0.1-0.3,0.2-0.5c0.1-0.1,0.3-0.2,0.5-0.2C287,177,287.2,177.1,287.3,177.2z M287.4,179.6v6.2h-1v-6.2
		H287.4z"/>
	<path class="st3" d="M289.3,185.8v-6.2h1v0.8c0.2-0.3,0.5-0.5,0.8-0.7c0.3-0.2,0.7-0.3,1.1-0.3c0.7,0,1.2,0.2,1.6,0.6
		c0.4,0.4,0.6,1,0.6,1.7v4.1h-1.1v-3.9c0-0.4-0.1-0.8-0.3-1.1c-0.2-0.3-0.6-0.4-1-0.4c-0.4,0-0.7,0.1-1,0.3
		c-0.3,0.2-0.5,0.5-0.6,0.8v4.2H289.3z"/>
</g>
<g class="st2">
	<path class="st3" d="M223.2,200.2h1.1c0.1,0.5,0.2,0.9,0.5,1.1c0.3,0.3,0.7,0.4,1.1,0.4c1.1,0,1.7-0.7,1.7-2V194h1.1v5.7
		c0,1-0.3,1.7-0.8,2.2s-1.2,0.8-2,0.8c-0.8,0-1.5-0.2-2-0.7C223.6,201.6,223.3,200.9,223.2,200.2z"/>
	<path class="st3" d="M235.6,196.4v6.2h-1.1v-0.8c-0.2,0.3-0.4,0.5-0.8,0.7s-0.7,0.3-1,0.3c-0.7,0-1.2-0.2-1.6-0.6
		c-0.4-0.4-0.6-1-0.6-1.7v-4.1h1.1v3.9c0,0.5,0.1,0.8,0.3,1.1c0.2,0.3,0.6,0.4,1,0.4c0.4,0,0.7-0.1,1-0.3c0.3-0.2,0.5-0.5,0.6-0.8
		v-4.2H235.6z"/>
	<path class="st3" d="M238.5,193.5v9.1h-1v-9.1H238.5z"/>
	<path class="st3" d="M241.4,194c0.1,0.1,0.2,0.3,0.2,0.5s-0.1,0.3-0.2,0.5c-0.1,0.1-0.3,0.2-0.5,0.2c-0.2,0-0.3-0.1-0.5-0.2
		s-0.2-0.3-0.2-0.5s0.1-0.3,0.2-0.5c0.1-0.1,0.3-0.2,0.5-0.2C241.1,193.8,241.3,193.9,241.4,194z M241.4,196.4v6.2h-1v-6.2H241.4z"
		/>
	<path class="st3" d="M247.2,200.7h1c-0.1,0.6-0.4,1.1-0.8,1.4s-1,0.5-1.7,0.5c-0.8,0-1.5-0.3-2.1-0.9s-0.8-1.4-0.8-2.3
		c0-0.9,0.3-1.7,0.8-2.3c0.5-0.6,1.2-0.9,2-0.9c0.8,0,1.5,0.3,1.9,0.8c0.5,0.6,0.7,1.3,0.7,2.2v0.4h-4.4c0,0.7,0.2,1.2,0.5,1.6
		c0.3,0.4,0.8,0.6,1.3,0.6c0.4,0,0.7-0.1,1-0.3C247,201.4,247.2,201.1,247.2,200.7z M245.7,197.2c-0.5,0-0.9,0.2-1.2,0.5
		c-0.3,0.3-0.5,0.7-0.6,1.3h3.3c0-0.5-0.1-0.9-0.4-1.2C246.6,197.3,246.2,197.2,245.7,197.2z"/>
	<path class="st3" d="M249.4,202.5c-0.1-0.1-0.2-0.3-0.2-0.5s0.1-0.4,0.2-0.5c0.1-0.1,0.3-0.2,0.5-0.2c0.2,0,0.4,0.1,0.5,0.2
		c0.1,0.1,0.2,0.3,0.2,0.5s-0.1,0.4-0.2,0.5c-0.1,0.1-0.3,0.2-0.5,0.2C249.8,202.7,249.6,202.6,249.4,202.5z"/>
</g>
<g class="st2">
	<path class="st3" d="M253.3,202.6h-1.1V194h5.2v1h-4.1v2.9h3.9v1h-3.9V202.6z"/>
	<path class="st3" d="M261.9,196.4v1.1c-0.2-0.1-0.4-0.2-0.7-0.2c-0.3,0-0.6,0.1-0.9,0.3c-0.3,0.2-0.4,0.5-0.5,0.9v4.2h-1v-6.2h1
		v0.8c0.1-0.3,0.3-0.5,0.6-0.7c0.3-0.2,0.6-0.3,0.9-0.3C261.6,196.3,261.8,196.3,261.9,196.4z"/>
</g>
<g class="st2">
	<path class="st3" d="M267.6,202.6h-1v-0.5c-0.1,0.1-0.4,0.3-0.7,0.4c-0.3,0.1-0.6,0.2-1,0.2c-0.7,0-1.2-0.2-1.6-0.5
		c-0.4-0.4-0.7-0.8-0.7-1.4c0-0.6,0.2-1,0.7-1.4c0.5-0.4,1-0.5,1.7-0.5c0.3,0,0.6,0.1,0.9,0.2s0.5,0.2,0.7,0.3v-0.8
		c0-0.4-0.1-0.7-0.4-1c-0.2-0.2-0.6-0.4-1-0.4c-0.7,0-1.1,0.3-1.3,0.9h-1c0.1-0.5,0.4-0.9,0.8-1.3c0.4-0.3,0.9-0.5,1.5-0.5
		c0.7,0,1.3,0.2,1.7,0.6c0.4,0.4,0.6,0.9,0.6,1.6V202.6z M266.6,201.1v-0.6c-0.1-0.2-0.3-0.4-0.6-0.6c-0.3-0.1-0.6-0.2-0.9-0.2
		c-0.4,0-0.8,0.1-1,0.3c-0.3,0.2-0.4,0.5-0.4,0.8c0,0.4,0.1,0.6,0.4,0.8c0.3,0.2,0.6,0.3,1,0.3c0.3,0,0.6-0.1,0.9-0.2
		C266.3,201.5,266.5,201.3,266.6,201.1z"/>
	<path class="st3" d="M269.4,202.6v-6.2h1v0.8c0.2-0.3,0.5-0.5,0.8-0.7c0.3-0.2,0.7-0.3,1.1-0.3c0.7,0,1.2,0.2,1.6,0.6
		c0.4,0.4,0.6,1,0.6,1.7v4.1h-1.1v-3.9c0-0.4-0.1-0.8-0.3-1.1c-0.2-0.3-0.6-0.4-1-0.4c-0.4,0-0.7,0.1-1,0.3
		c-0.3,0.2-0.5,0.5-0.6,0.8v4.2H269.4z"/>
	<path class="st3" d="M280.3,202.6l-2.4-2.9l-0.7,0.6v2.2h-1v-9.1h1v5.6l2.8-2.8h1.4l-2.8,2.7l2.9,3.5H280.3z"/>
	<path class="st3" d="M283.8,193.5v9.1h-1v-9.1H283.8z"/>
	<path class="st3" d="M286.6,194c0.1,0.1,0.2,0.3,0.2,0.5s-0.1,0.3-0.2,0.5s-0.3,0.2-0.5,0.2c-0.2,0-0.3-0.1-0.5-0.2
		c-0.1-0.1-0.2-0.3-0.2-0.5s0.1-0.3,0.2-0.5c0.1-0.1,0.3-0.2,0.5-0.2C286.3,193.8,286.5,193.9,286.6,194z M286.7,196.4v6.2h-1v-6.2
		H286.7z"/>
	<path class="st3" d="M288.6,202.6v-6.2h1v0.8c0.2-0.3,0.5-0.5,0.8-0.7c0.3-0.2,0.7-0.3,1.1-0.3c0.7,0,1.2,0.2,1.6,0.6
		c0.4,0.4,0.6,1,0.6,1.7v4.1h-1.1v-3.9c0-0.4-0.1-0.8-0.3-1.1c-0.2-0.3-0.6-0.4-1-0.4c-0.4,0-0.7,0.1-1,0.3
		c-0.3,0.2-0.5,0.5-0.6,0.8v4.2H288.6z"/>
	<path class="st3" d="M302.3,197.3l-0.6,3.4c-0.1,0.5,0.1,0.8,0.6,0.8c0.5,0,0.9-0.2,1.3-0.7c0.3-0.5,0.5-1.1,0.5-1.9
		c0-1-0.4-1.8-1.1-2.4s-1.6-0.9-2.7-0.9c-1.3,0-2.4,0.4-3.2,1.3c-0.8,0.9-1.2,1.9-1.2,3.2c0,0.7,0.1,1.3,0.4,1.9s0.6,1,1.1,1.3
		c0.4,0.3,0.9,0.5,1.4,0.7c0.5,0.1,1,0.2,1.6,0.2c1.1,0,2.1-0.2,3-0.6v0.8c-0.9,0.4-1.9,0.6-3,0.6c-0.6,0-1.1-0.1-1.6-0.2
		c-0.5-0.1-1-0.3-1.4-0.5c-0.5-0.2-0.8-0.6-1.2-0.9c-0.3-0.4-0.6-0.8-0.8-1.4c-0.2-0.5-0.3-1.1-0.3-1.8c0-1.5,0.5-2.7,1.5-3.8
		c1-1,2.3-1.5,3.8-1.5c1.4,0,2.5,0.4,3.3,1.2s1.3,1.8,1.3,3c0,1.1-0.3,1.9-0.8,2.5s-1.2,0.9-1.9,0.9c-0.3,0-0.6-0.1-0.9-0.2
		s-0.4-0.3-0.5-0.6c-0.1,0.2-0.3,0.4-0.6,0.6s-0.5,0.2-0.8,0.2c-0.6,0-1-0.2-1.4-0.6c-0.3-0.4-0.5-0.9-0.5-1.5
		c0-0.8,0.2-1.5,0.7-2.1c0.5-0.6,1.1-0.9,1.8-0.9c0.6,0,1,0.2,1.3,0.6l0.1-0.5H302.3z M300.8,200.5l0.3-1.7
		c-0.1-0.2-0.2-0.4-0.4-0.5c-0.2-0.1-0.4-0.2-0.6-0.2c-0.5,0-0.9,0.2-1.2,0.6s-0.5,0.9-0.5,1.4c0,0.4,0.1,0.7,0.3,0.9
		c0.2,0.2,0.5,0.3,0.8,0.3C300,201.3,300.4,201,300.8,200.5z"/>
	<path class="st3" d="M306.2,202.6v-9.1h1v3.7c0.2-0.3,0.5-0.5,0.8-0.7c0.3-0.2,0.7-0.3,1.1-0.3c0.7,0,1.2,0.2,1.6,0.6
		c0.4,0.4,0.6,1,0.6,1.7v4.1h-1.1v-3.9c0-0.4-0.1-0.8-0.3-1.1c-0.2-0.3-0.6-0.4-1-0.4c-0.4,0-0.7,0.1-1,0.3
		c-0.3,0.2-0.5,0.5-0.6,0.8v4.2H306.2z"/>
	<path class="st3" d="M317.6,197.2c0.5,0.6,0.8,1.4,0.8,2.3c0,1-0.3,1.7-0.8,2.3c-0.5,0.6-1.2,0.9-2.1,0.9c-0.8,0-1.5-0.3-2.1-0.9
		c-0.5-0.6-0.8-1.4-0.8-2.3c0-1,0.3-1.7,0.8-2.3c0.5-0.6,1.2-0.9,2.1-0.9C316.3,196.3,317,196.6,317.6,197.2z M316.8,201.2
		c0.3-0.4,0.5-1,0.5-1.7c0-0.7-0.2-1.2-0.5-1.7c-0.3-0.4-0.8-0.6-1.3-0.6c-0.6,0-1,0.2-1.3,0.6c-0.3,0.4-0.5,1-0.5,1.7
		c0,0.7,0.2,1.2,0.5,1.7c0.3,0.4,0.8,0.6,1.3,0.6C316,201.8,316.5,201.6,316.8,201.2z"/>
	<path class="st3" d="M324.2,197.3c0.5-0.7,1.1-1,1.9-1c0.6,0,1.1,0.2,1.4,0.6c0.3,0.4,0.5,0.9,0.5,1.6v4.1H327v-3.9
		c0-0.4-0.1-0.8-0.3-1.1s-0.5-0.4-0.9-0.4c-0.3,0-0.6,0.1-0.9,0.3c-0.3,0.2-0.4,0.5-0.5,0.8v4.3h-1v-3.9c0-0.4-0.1-0.8-0.3-1.1
		c-0.2-0.3-0.5-0.4-0.9-0.4c-0.3,0-0.6,0.1-0.9,0.3c-0.3,0.2-0.4,0.5-0.5,0.8v4.3h-1v-6.2h1v0.7c0.4-0.6,0.9-0.9,1.7-0.9
		C323.3,196.3,323.9,196.6,324.2,197.3z"/>
	<path class="st3" d="M333.7,200.7h1c-0.1,0.6-0.4,1.1-0.8,1.4s-1,0.5-1.7,0.5c-0.8,0-1.5-0.3-2.1-0.9s-0.8-1.4-0.8-2.3
		c0-0.9,0.3-1.7,0.8-2.3c0.5-0.6,1.2-0.9,2-0.9c0.8,0,1.5,0.3,1.9,0.8c0.5,0.6,0.7,1.3,0.7,2.2v0.4h-4.4c0,0.7,0.2,1.2,0.5,1.6
		c0.3,0.4,0.8,0.6,1.3,0.6c0.4,0,0.7-0.1,1-0.3C333.5,201.4,333.7,201.1,333.7,200.7z M332.2,197.2c-0.5,0-0.9,0.2-1.2,0.5
		c-0.3,0.3-0.5,0.7-0.6,1.3h3.3c0-0.5-0.1-0.9-0.4-1.2C333.1,197.3,332.7,197.2,332.2,197.2z"/>
</g>
<g class="st2">
	<path class="st3" d="M335.9,202.5c-0.1-0.1-0.2-0.3-0.2-0.5s0.1-0.4,0.2-0.5c0.1-0.1,0.3-0.2,0.5-0.2c0.2,0,0.4,0.1,0.5,0.2
		c0.1,0.1,0.2,0.3,0.2,0.5s-0.1,0.4-0.2,0.5c-0.1,0.1-0.3,0.2-0.5,0.2C336.3,202.7,336.1,202.6,335.9,202.5z"/>
</g>
<g class="st2">
	<path class="st3" d="M338.8,201.8c-0.5-0.6-0.8-1.4-0.8-2.3c0-1,0.3-1.7,0.8-2.3c0.5-0.6,1.2-0.9,2-0.9c0.7,0,1.2,0.2,1.7,0.5
		c0.4,0.4,0.7,0.9,0.8,1.5h-1.1c-0.1-0.3-0.2-0.6-0.5-0.8c-0.2-0.2-0.6-0.3-0.9-0.3c-0.5,0-1,0.2-1.3,0.6c-0.3,0.4-0.5,1-0.5,1.7
		c0,0.7,0.2,1.2,0.5,1.7c0.3,0.4,0.7,0.6,1.3,0.6c0.4,0,0.7-0.1,0.9-0.3c0.2-0.2,0.4-0.5,0.5-0.8h1.1c-0.1,0.6-0.4,1.1-0.8,1.5
		c-0.4,0.4-1,0.5-1.7,0.5C340,202.7,339.3,202.4,338.8,201.8z"/>
</g>
<g class="st2">
	<path class="st3" d="M349.1,197.2c0.5,0.6,0.8,1.4,0.8,2.3c0,1-0.3,1.7-0.8,2.3c-0.5,0.6-1.2,0.9-2.1,0.9s-1.5-0.3-2.1-0.9
		c-0.5-0.6-0.8-1.4-0.8-2.3c0-1,0.3-1.7,0.8-2.3c0.5-0.6,1.2-0.9,2.1-0.9S348.6,196.6,349.1,197.2z M348.4,201.2
		c0.3-0.4,0.5-1,0.5-1.7c0-0.7-0.2-1.2-0.5-1.7c-0.3-0.4-0.8-0.6-1.3-0.6s-1,0.2-1.3,0.6c-0.3,0.4-0.5,1-0.5,1.7
		c0,0.7,0.2,1.2,0.5,1.7c0.3,0.4,0.8,0.6,1.3,0.6S348,201.6,348.4,201.2z"/>
	<path class="st3" d="M355.7,197.3c0.5-0.7,1.1-1,1.9-1c0.6,0,1.1,0.2,1.4,0.6c0.3,0.4,0.5,0.9,0.5,1.6v4.1h-1.1v-3.9
		c0-0.4-0.1-0.8-0.3-1.1c-0.2-0.3-0.5-0.4-0.9-0.4c-0.3,0-0.6,0.1-0.9,0.3c-0.3,0.2-0.4,0.5-0.5,0.8v4.3h-1v-3.9
		c0-0.4-0.1-0.8-0.3-1.1s-0.5-0.4-0.9-0.4c-0.3,0-0.6,0.1-0.9,0.3c-0.3,0.2-0.4,0.5-0.5,0.8v4.3h-1v-6.2h1v0.7
		c0.4-0.6,0.9-0.9,1.7-0.9C354.8,196.3,355.4,196.6,355.7,197.3z"/>
</g>
<g class="st2">
	<path class="st3" d="M227.3,290.6h-2.1v3.4H224v-8.6h3.2c0.9,0,1.6,0.2,2.1,0.7s0.7,1.1,0.7,1.9c0,0.8-0.3,1.5-0.8,1.9
		C228.8,290.4,228.1,290.6,227.3,290.6z M229,288.1c0-0.5-0.2-0.9-0.5-1.2c-0.3-0.3-0.7-0.4-1.3-0.4h-2.1v3.2h2.1
		c0.6,0,1-0.1,1.3-0.4C228.8,288.9,229,288.6,229,288.1z"/>
</g>
<g class="st2">
	<path class="st3" d="M235.1,292.2h1c-0.1,0.6-0.4,1.1-0.8,1.4s-1,0.5-1.7,0.5c-0.8,0-1.5-0.3-2.1-0.9s-0.8-1.4-0.8-2.3
		c0-0.9,0.3-1.7,0.8-2.3c0.5-0.6,1.2-0.9,2-0.9c0.8,0,1.5,0.3,1.9,0.8c0.5,0.6,0.7,1.3,0.7,2.2v0.4h-4.4c0,0.7,0.2,1.2,0.5,1.6
		c0.3,0.4,0.8,0.6,1.3,0.6c0.4,0,0.7-0.1,1-0.3S235,292.6,235.1,292.2z M233.6,288.6c-0.5,0-0.9,0.2-1.2,0.5
		c-0.3,0.3-0.5,0.7-0.6,1.3h3.3c0-0.5-0.1-0.9-0.4-1.2C234.4,288.8,234,288.6,233.6,288.6z"/>
</g>
<g class="st2">
	<path class="st3" d="M237.9,292.5v-3.8h-1v-0.9h1v-1.6h1.1v1.6h1.5v0.9h-1.5v3.6c0,0.6,0.3,0.9,0.8,0.9c0.3,0,0.6-0.1,0.8-0.3v1
		c-0.3,0.1-0.6,0.2-1,0.2c-0.5,0-0.9-0.1-1.2-0.4C238,293.5,237.9,293.1,237.9,292.5z"/>
</g>
<g class="st2">
	<path class="st3" d="M245.8,292.2h1c-0.1,0.6-0.4,1.1-0.8,1.4s-1,0.5-1.7,0.5c-0.8,0-1.5-0.3-2.1-0.9s-0.8-1.4-0.8-2.3
		c0-0.9,0.3-1.7,0.8-2.3s1.2-0.9,2-0.9c0.8,0,1.5,0.3,1.9,0.8c0.5,0.6,0.7,1.3,0.7,2.2v0.4h-4.4c0,0.7,0.2,1.2,0.5,1.6
		c0.3,0.4,0.8,0.6,1.3,0.6c0.4,0,0.7-0.1,1-0.3C245.6,292.8,245.8,292.6,245.8,292.2z M244.3,288.6c-0.5,0-0.9,0.2-1.2,0.5
		c-0.3,0.3-0.5,0.7-0.6,1.3h3.3c0-0.5-0.1-0.9-0.4-1.2C245.2,288.8,244.8,288.6,244.3,288.6z"/>
	<path class="st3" d="M251.5,287.8v1.1c-0.2-0.1-0.4-0.2-0.7-0.2c-0.3,0-0.6,0.1-0.9,0.3c-0.3,0.2-0.4,0.5-0.5,0.9v4.2h-1v-6.2h1
		v0.8c0.1-0.3,0.3-0.5,0.6-0.7c0.3-0.2,0.6-0.3,0.9-0.3C251.2,287.7,251.4,287.8,251.5,287.8z"/>
	<path class="st3" d="M262,285.5h1.1v8.6H262v-3.9h-4.9v3.9H256v-8.6h1.1v3.7h4.9V285.5z"/>
	<path class="st3" d="M266,285.5c0.1,0.1,0.2,0.3,0.2,0.5s-0.1,0.3-0.2,0.5c-0.1,0.1-0.3,0.2-0.5,0.2c-0.2,0-0.3-0.1-0.5-0.2
		s-0.2-0.3-0.2-0.5s0.1-0.3,0.2-0.5c0.1-0.1,0.3-0.2,0.5-0.2C265.7,285.3,265.9,285.4,266,285.5z M266.1,287.9v6.2h-1v-6.2H266.1z"
		/>
</g>
<g class="st2">
	<path class="st3" d="M268.2,292.5v-3.8h-1v-0.9h1v-1.6h1v1.6h1.5v0.9h-1.5v3.6c0,0.6,0.3,0.9,0.8,0.9c0.3,0,0.6-0.1,0.8-0.3v1
		c-0.3,0.1-0.6,0.2-1,0.2c-0.5,0-0.9-0.1-1.2-0.4C268.4,293.5,268.2,293.1,268.2,292.5z"/>
</g>
<g class="st2">
	<path class="st3" d="M272.7,293.3c-0.5-0.6-0.8-1.4-0.8-2.3c0-1,0.3-1.7,0.8-2.3c0.5-0.6,1.2-0.9,2-0.9c0.7,0,1.2,0.2,1.7,0.5
		c0.4,0.4,0.7,0.8,0.8,1.5h-1.1c-0.1-0.3-0.2-0.6-0.5-0.8c-0.2-0.2-0.6-0.3-0.9-0.3c-0.5,0-1,0.2-1.3,0.6c-0.3,0.4-0.5,1-0.5,1.7
		c0,0.7,0.2,1.2,0.5,1.7c0.3,0.4,0.7,0.6,1.3,0.6c0.4,0,0.7-0.1,0.9-0.3c0.2-0.2,0.4-0.5,0.5-0.8h1.1c-0.1,0.6-0.4,1.1-0.8,1.5
		c-0.4,0.4-1,0.5-1.7,0.5C273.9,294.2,273.2,293.9,272.7,293.3z"/>
	<path class="st3" d="M278.6,294.1V285h1v3.7c0.2-0.3,0.5-0.5,0.8-0.7c0.3-0.2,0.7-0.3,1.1-0.3c0.7,0,1.2,0.2,1.6,0.6
		c0.4,0.4,0.6,1,0.6,1.7v4.1h-1.1v-3.9c0-0.4-0.1-0.8-0.3-1.1c-0.2-0.3-0.6-0.4-1-0.4c-0.4,0-0.7,0.1-1,0.3
		c-0.3,0.2-0.5,0.5-0.6,0.8v4.2H278.6z"/>
</g>
<g class="st2">
	<path class="st3" d="M285.7,293.3c-0.5-0.6-0.8-1.4-0.8-2.3c0-1,0.3-1.7,0.8-2.3c0.5-0.6,1.2-0.9,2-0.9c0.7,0,1.2,0.2,1.7,0.5
		c0.4,0.4,0.7,0.8,0.8,1.5h-1.1c-0.1-0.3-0.2-0.6-0.5-0.8c-0.2-0.2-0.6-0.3-0.9-0.3c-0.5,0-1,0.2-1.3,0.6c-0.3,0.4-0.5,1-0.5,1.7
		c0,0.7,0.2,1.2,0.5,1.7c0.3,0.4,0.7,0.6,1.3,0.6c0.4,0,0.7-0.1,0.9-0.3c0.2-0.2,0.4-0.5,0.5-0.8h1.1c-0.1,0.6-0.4,1.1-0.8,1.5
		c-0.4,0.4-1,0.5-1.7,0.5C286.9,294.2,286.3,293.9,285.7,293.3z"/>
</g>
<g class="st2">
	<path class="st3" d="M296.1,288.6c0.5,0.6,0.8,1.4,0.8,2.3c0,1-0.3,1.7-0.8,2.3c-0.5,0.6-1.2,0.9-2.1,0.9c-0.8,0-1.5-0.3-2.1-0.9
		c-0.5-0.6-0.8-1.4-0.8-2.3c0-1,0.3-1.7,0.8-2.3c0.5-0.6,1.2-0.9,2.1-0.9C294.9,287.7,295.6,288,296.1,288.6z M295.3,292.6
		c0.3-0.4,0.5-1,0.5-1.7c0-0.7-0.2-1.2-0.5-1.7c-0.3-0.4-0.8-0.6-1.3-0.6c-0.6,0-1,0.2-1.3,0.6c-0.3,0.4-0.5,1-0.5,1.7
		c0,0.7,0.2,1.2,0.5,1.7c0.3,0.4,0.8,0.6,1.3,0.6C294.6,293.3,295,293.1,295.3,292.6z"/>
</g>
<g class="st2">
	<path class="st3" d="M298.7,293.3c-0.5-0.6-0.8-1.4-0.8-2.3c0-1,0.3-1.7,0.8-2.3c0.5-0.6,1.2-0.9,2-0.9c0.7,0,1.2,0.2,1.7,0.5
		c0.4,0.4,0.7,0.8,0.8,1.5h-1.1c-0.1-0.3-0.2-0.6-0.5-0.8c-0.2-0.2-0.6-0.3-0.9-0.3c-0.5,0-1,0.2-1.3,0.6c-0.3,0.4-0.5,1-0.5,1.7
		c0,0.7,0.2,1.2,0.5,1.7c0.3,0.4,0.7,0.6,1.3,0.6c0.4,0,0.7-0.1,0.9-0.3c0.2-0.2,0.4-0.5,0.5-0.8h1.1c-0.1,0.6-0.4,1.1-0.8,1.5
		c-0.4,0.4-1,0.5-1.7,0.5C299.9,294.2,299.2,293.9,298.7,293.3z"/>
	<path class="st3" d="M308.7,294.1l-2.4-2.9l-0.7,0.6v2.2h-1V285h1v5.6l2.8-2.8h1.4l-2.8,2.7l2.9,3.5H308.7z"/>
</g>
<g class="st2">
	<path class="st3" d="M227.3,307.4h-2.1v3.4H224v-8.6h3.2c0.9,0,1.6,0.2,2.1,0.7s0.7,1.1,0.7,1.9c0,0.8-0.3,1.5-0.8,1.9
		C228.8,307.2,228.1,307.4,227.3,307.4z M229,304.9c0-0.5-0.2-0.9-0.5-1.2c-0.3-0.3-0.7-0.4-1.3-0.4h-2.1v3.2h2.1
		c0.6,0,1-0.1,1.3-0.4C228.8,305.7,229,305.4,229,304.9z"/>
</g>
<g class="st2">
	<path class="st3" d="M235.1,309h1c-0.1,0.6-0.4,1.1-0.8,1.4s-1,0.5-1.7,0.5c-0.8,0-1.5-0.3-2.1-0.9s-0.8-1.4-0.8-2.3
		c0-0.9,0.3-1.7,0.8-2.3c0.5-0.6,1.2-0.9,2-0.9c0.8,0,1.5,0.3,1.9,0.8c0.5,0.6,0.7,1.3,0.7,2.2v0.4h-4.4c0,0.7,0.2,1.2,0.5,1.6
		c0.3,0.4,0.8,0.6,1.3,0.6c0.4,0,0.7-0.1,1-0.3S235,309.4,235.1,309z M233.6,305.4c-0.5,0-0.9,0.2-1.2,0.5c-0.3,0.3-0.5,0.7-0.6,1.3
		h3.3c0-0.5-0.1-0.9-0.4-1.2C234.4,305.6,234,305.4,233.6,305.4z"/>
</g>
<g class="st2">
	<path class="st3" d="M237.9,309.3v-3.8h-1v-0.9h1V303h1.1v1.6h1.5v0.9h-1.5v3.6c0,0.6,0.3,0.9,0.8,0.9c0.3,0,0.6-0.1,0.8-0.3v1
		c-0.3,0.1-0.6,0.2-1,0.2c-0.5,0-0.9-0.1-1.2-0.4C238,310.3,237.9,309.9,237.9,309.3z"/>
</g>
<g class="st2">
	<path class="st3" d="M245.8,309h1c-0.1,0.6-0.4,1.1-0.8,1.4s-1,0.5-1.7,0.5c-0.8,0-1.5-0.3-2.1-0.9s-0.8-1.4-0.8-2.3
		c0-0.9,0.3-1.7,0.8-2.3s1.2-0.9,2-0.9c0.8,0,1.5,0.3,1.9,0.8c0.5,0.6,0.7,1.3,0.7,2.2v0.4h-4.4c0,0.7,0.2,1.2,0.5,1.6
		c0.3,0.4,0.8,0.6,1.3,0.6c0.4,0,0.7-0.1,1-0.3C245.6,309.6,245.8,309.4,245.8,309z M244.3,305.4c-0.5,0-0.9,0.2-1.2,0.5
		c-0.3,0.3-0.5,0.7-0.6,1.3h3.3c0-0.5-0.1-0.9-0.4-1.2C245.2,305.6,244.8,305.4,244.3,305.4z"/>
</g>
<g class="st2">
	<path class="st3" d="M251.5,304.6v1.1c-0.2-0.1-0.4-0.2-0.7-0.2c-0.3,0-0.6,0.1-0.9,0.3c-0.3,0.2-0.4,0.5-0.5,0.9v4.2h-1v-6.2h1
		v0.8c0.1-0.3,0.3-0.5,0.6-0.7c0.3-0.2,0.6-0.3,0.9-0.3C251.2,304.5,251.4,304.6,251.5,304.6z"/>
</g>
<g class="st2">
	<path class="st3" d="M252,310.7c-0.1-0.1-0.2-0.3-0.2-0.5s0.1-0.4,0.2-0.5c0.1-0.1,0.3-0.2,0.5-0.2c0.2,0,0.4,0.1,0.5,0.2
		c0.1,0.1,0.2,0.3,0.2,0.5s-0.1,0.4-0.2,0.5c-0.1,0.1-0.3,0.2-0.5,0.2C252.3,311,252.1,310.9,252,310.7z"/>
	<path class="st3" d="M260.7,302.3h1.1v8.6h-1.1V307h-4.9v3.9h-1.1v-8.6h1.1v3.7h4.9V302.3z"/>
	<path class="st3" d="M264.8,302.3c0.1,0.1,0.2,0.3,0.2,0.5s-0.1,0.3-0.2,0.5s-0.3,0.2-0.5,0.2c-0.2,0-0.3-0.1-0.5-0.2
		c-0.1-0.1-0.2-0.3-0.2-0.5s0.1-0.3,0.2-0.5c0.1-0.1,0.3-0.2,0.5-0.2C264.5,302.1,264.6,302.2,264.8,302.3z M264.8,304.7v6.2h-1
		v-6.2H264.8z"/>
</g>
<g class="st2">
	<path class="st3" d="M267,309.3v-3.8h-1v-0.9h1V303h1.1v1.6h1.5v0.9H268v3.6c0,0.6,0.3,0.9,0.8,0.9c0.3,0,0.6-0.1,0.8-0.3v1
		c-0.3,0.1-0.6,0.2-1,0.2c-0.5,0-0.9-0.1-1.2-0.4C267.1,310.3,267,309.9,267,309.3z"/>
</g>
<g class="st2">
	<path class="st3" d="M271.4,310.1c-0.5-0.6-0.8-1.4-0.8-2.3c0-1,0.3-1.7,0.8-2.3c0.5-0.6,1.2-0.9,2-0.9c0.7,0,1.2,0.2,1.7,0.5
		c0.4,0.4,0.7,0.8,0.8,1.5h-1.1c-0.1-0.3-0.2-0.6-0.5-0.8c-0.2-0.2-0.6-0.3-0.9-0.3c-0.5,0-1,0.2-1.3,0.6c-0.3,0.4-0.5,1-0.5,1.7
		c0,0.7,0.2,1.2,0.5,1.7c0.3,0.4,0.7,0.6,1.3,0.6c0.4,0,0.7-0.1,0.9-0.3c0.2-0.2,0.4-0.5,0.5-0.8h1.1c-0.1,0.6-0.4,1.1-0.8,1.5
		c-0.4,0.4-1,0.5-1.7,0.5C272.6,311,271.9,310.7,271.4,310.1z"/>
	<path class="st3" d="M277.3,310.9v-9.1h1v3.7c0.2-0.3,0.5-0.5,0.8-0.7c0.3-0.2,0.7-0.3,1.1-0.3c0.7,0,1.2,0.2,1.6,0.6
		c0.4,0.4,0.6,1,0.6,1.7v4.1h-1.1V307c0-0.4-0.1-0.8-0.3-1.1c-0.2-0.3-0.6-0.4-1-0.4c-0.4,0-0.7,0.1-1,0.3c-0.3,0.2-0.5,0.5-0.6,0.8
		v4.2H277.3z"/>
</g>
<g class="st2">
	<path class="st3" d="M284.5,310.1c-0.5-0.6-0.8-1.4-0.8-2.3c0-1,0.3-1.7,0.8-2.3c0.5-0.6,1.2-0.9,2-0.9c0.7,0,1.2,0.2,1.7,0.5
		c0.4,0.4,0.7,0.8,0.8,1.5h-1.1c-0.1-0.3-0.2-0.6-0.5-0.8c-0.2-0.2-0.6-0.3-0.9-0.3c-0.5,0-1,0.2-1.3,0.6c-0.3,0.4-0.5,1-0.5,1.7
		c0,0.7,0.2,1.2,0.5,1.7c0.3,0.4,0.7,0.6,1.3,0.6c0.4,0,0.7-0.1,0.9-0.3c0.2-0.2,0.4-0.5,0.5-0.8h1.1c-0.1,0.6-0.4,1.1-0.8,1.5
		c-0.4,0.4-1,0.5-1.7,0.5C285.7,311,285,310.7,284.5,310.1z"/>
</g>
<g class="st2">
	<path class="st3" d="M294.8,305.4c0.5,0.6,0.8,1.4,0.8,2.3c0,1-0.3,1.7-0.8,2.3c-0.5,0.6-1.2,0.9-2.1,0.9c-0.8,0-1.5-0.3-2.1-0.9
		c-0.5-0.6-0.8-1.4-0.8-2.3c0-1,0.3-1.7,0.8-2.3c0.5-0.6,1.2-0.9,2.1-0.9C293.6,304.5,294.3,304.8,294.8,305.4z M294.1,309.4
		c0.3-0.4,0.5-1,0.5-1.7c0-0.7-0.2-1.2-0.5-1.7c-0.3-0.4-0.8-0.6-1.3-0.6c-0.6,0-1,0.2-1.3,0.6c-0.3,0.4-0.5,1-0.5,1.7
		c0,0.7,0.2,1.2,0.5,1.7c0.3,0.4,0.8,0.6,1.3,0.6C293.3,310.1,293.8,309.9,294.1,309.4z"/>
</g>
<g class="st2">
	<path class="st3" d="M297.4,310.1c-0.5-0.6-0.8-1.4-0.8-2.3c0-1,0.3-1.7,0.8-2.3c0.5-0.6,1.2-0.9,2-0.9c0.7,0,1.2,0.2,1.7,0.5
		c0.4,0.4,0.7,0.8,0.8,1.5h-1.1c-0.1-0.3-0.2-0.6-0.5-0.8c-0.2-0.2-0.6-0.3-0.9-0.3c-0.5,0-1,0.2-1.3,0.6c-0.3,0.4-0.5,1-0.5,1.7
		c0,0.7,0.2,1.2,0.5,1.7c0.3,0.4,0.7,0.6,1.3,0.6c0.4,0,0.7-0.1,0.9-0.3c0.2-0.2,0.4-0.5,0.5-0.8h1.1c-0.1,0.6-0.4,1.1-0.8,1.5
		c-0.4,0.4-1,0.5-1.7,0.5C298.6,311,297.9,310.7,297.4,310.1z"/>
</g>
<g class="st2">
	<path class="st3" d="M307.4,310.9l-2.4-2.9l-0.7,0.6v2.2h-1v-9.1h1v5.6l2.8-2.8h1.4l-2.8,2.7l2.9,3.5H307.4z"/>
</g>
<g class="st2">
	<path class="st3" d="M316.6,305.5l-0.6,3.4c-0.1,0.5,0.1,0.8,0.6,0.8c0.5,0,0.9-0.2,1.3-0.7c0.3-0.5,0.5-1.1,0.5-1.9
		c0-1-0.4-1.8-1.1-2.4s-1.6-0.9-2.7-0.9c-1.3,0-2.4,0.4-3.2,1.3c-0.8,0.8-1.2,1.9-1.2,3.2c0,0.7,0.1,1.3,0.4,1.9s0.6,1,1.1,1.3
		c0.4,0.3,0.9,0.5,1.4,0.7c0.5,0.1,1,0.2,1.6,0.2c1.1,0,2.1-0.2,3-0.6v0.8c-0.9,0.4-1.9,0.6-3,0.6c-0.6,0-1.1-0.1-1.6-0.2
		c-0.5-0.1-1-0.3-1.4-0.5c-0.5-0.2-0.8-0.6-1.2-0.9c-0.3-0.4-0.6-0.8-0.8-1.4c-0.2-0.5-0.3-1.1-0.3-1.8c0-1.5,0.5-2.7,1.5-3.8
		c1-1,2.3-1.5,3.8-1.5c1.4,0,2.5,0.4,3.3,1.2s1.3,1.8,1.3,3c0,1.1-0.3,1.9-0.8,2.5s-1.2,0.9-1.9,0.9c-0.3,0-0.6-0.1-0.9-0.2
		s-0.4-0.3-0.5-0.6c-0.1,0.2-0.3,0.4-0.6,0.6s-0.5,0.2-0.8,0.2c-0.6,0-1-0.2-1.4-0.6c-0.3-0.4-0.5-0.9-0.5-1.5
		c0-0.8,0.2-1.5,0.7-2.1c0.5-0.6,1.1-0.9,1.8-0.9c0.6,0,1,0.2,1.3,0.6l0.1-0.5H316.6z M315.1,308.8l0.3-1.7
		c-0.1-0.2-0.2-0.4-0.4-0.5c-0.2-0.1-0.4-0.2-0.6-0.2c-0.5,0-0.9,0.2-1.2,0.6s-0.5,0.9-0.5,1.4c0,0.4,0.1,0.7,0.3,0.9
		c0.2,0.2,0.5,0.3,0.8,0.3C314.3,309.6,314.7,309.3,315.1,308.8z"/>
	<path class="st3" d="M325,305.5c0.5-0.7,1.1-1,1.9-1c0.6,0,1.1,0.2,1.4,0.6s0.5,0.9,0.5,1.6v4.1h-1.1v-3.9c0-0.4-0.1-0.8-0.3-1.1
		s-0.5-0.4-0.9-0.4c-0.3,0-0.6,0.1-0.9,0.3c-0.3,0.2-0.4,0.5-0.5,0.8v4.3h-1v-3.9c0-0.4-0.1-0.8-0.3-1.1c-0.2-0.3-0.5-0.4-0.9-0.4
		c-0.3,0-0.6,0.1-0.9,0.3c-0.3,0.2-0.4,0.5-0.5,0.8v4.3h-1v-6.2h1v0.7c0.4-0.6,0.9-0.9,1.7-0.9C324.1,304.5,324.6,304.9,325,305.5z"
		/>
	<path class="st3" d="M335.1,310.9h-1v-0.5c-0.1,0.1-0.4,0.3-0.7,0.4s-0.6,0.2-1,0.2c-0.7,0-1.2-0.2-1.6-0.5
		c-0.4-0.4-0.7-0.8-0.7-1.4c0-0.6,0.2-1,0.7-1.4c0.5-0.4,1-0.5,1.7-0.5c0.3,0,0.6,0.1,0.9,0.2s0.5,0.2,0.7,0.3v-0.8
		c0-0.4-0.1-0.7-0.4-1c-0.2-0.2-0.6-0.4-1-0.4c-0.7,0-1.1,0.3-1.3,0.9h-1c0.1-0.5,0.4-0.9,0.8-1.3c0.4-0.3,0.9-0.5,1.5-0.5
		c0.7,0,1.3,0.2,1.7,0.6c0.4,0.4,0.6,0.9,0.6,1.6V310.9z M334.1,309.3v-0.6c-0.1-0.2-0.3-0.4-0.6-0.6c-0.3-0.1-0.6-0.2-0.9-0.2
		c-0.4,0-0.8,0.1-1,0.3c-0.3,0.2-0.4,0.5-0.4,0.8c0,0.4,0.1,0.6,0.4,0.8c0.3,0.2,0.6,0.3,1,0.3c0.3,0,0.6-0.1,0.9-0.2
		C333.8,309.7,334,309.6,334.1,309.3z"/>
	<path class="st3" d="M337.9,302.3c0.1,0.1,0.2,0.3,0.2,0.5s-0.1,0.3-0.2,0.5c-0.1,0.1-0.3,0.2-0.5,0.2c-0.2,0-0.3-0.1-0.5-0.2
		s-0.2-0.3-0.2-0.5s0.1-0.3,0.2-0.5c0.1-0.1,0.3-0.2,0.5-0.2C337.6,302.1,337.8,302.2,337.9,302.3z M338,304.7v6.2h-1v-6.2H338z"/>
	<path class="st3" d="M340.9,301.8v9.1h-1v-9.1H340.9z"/>
</g>
<g class="st2">
	<path class="st3" d="M342.5,310.7c-0.1-0.1-0.2-0.3-0.2-0.5s0.1-0.4,0.2-0.5c0.1-0.1,0.3-0.2,0.5-0.2c0.2,0,0.4,0.1,0.5,0.2
		c0.1,0.1,0.2,0.3,0.2,0.5s-0.1,0.4-0.2,0.5c-0.1,0.1-0.3,0.2-0.5,0.2C342.8,311,342.6,310.9,342.5,310.7z"/>
</g>
<g class="st2">
	<path class="st3" d="M345.3,310.1c-0.5-0.6-0.8-1.4-0.8-2.3c0-1,0.3-1.7,0.8-2.3c0.5-0.6,1.2-0.9,2-0.9c0.7,0,1.2,0.2,1.7,0.5
		c0.4,0.4,0.7,0.8,0.8,1.5h-1.1c-0.1-0.3-0.2-0.6-0.5-0.8c-0.2-0.2-0.6-0.3-0.9-0.3c-0.5,0-1,0.2-1.3,0.6c-0.3,0.4-0.5,1-0.5,1.7
		c0,0.7,0.2,1.2,0.5,1.7c0.3,0.4,0.7,0.6,1.3,0.6c0.4,0,0.7-0.1,0.9-0.3c0.2-0.2,0.4-0.5,0.5-0.8h1.1c-0.1,0.6-0.4,1.1-0.8,1.5
		c-0.4,0.4-1,0.5-1.7,0.5C346.5,311,345.8,310.7,345.3,310.1z"/>
</g>
<g class="st2">
	<path class="st3" d="M355.7,305.4c0.5,0.6,0.8,1.4,0.8,2.3c0,1-0.3,1.7-0.8,2.3c-0.5,0.6-1.2,0.9-2.1,0.9s-1.5-0.3-2.1-0.9
		c-0.5-0.6-0.8-1.4-0.8-2.3c0-1,0.3-1.7,0.8-2.3c0.5-0.6,1.2-0.9,2.1-0.9S355.1,304.8,355.7,305.4z M354.9,309.4
		c0.3-0.4,0.5-1,0.5-1.7c0-0.7-0.2-1.2-0.5-1.7c-0.3-0.4-0.8-0.6-1.3-0.6s-1,0.2-1.3,0.6c-0.3,0.4-0.5,1-0.5,1.7
		c0,0.7,0.2,1.2,0.5,1.7c0.3,0.4,0.8,0.6,1.3,0.6S354.6,309.9,354.9,309.4z"/>
	<path class="st3" d="M362.3,305.5c0.5-0.7,1.1-1,1.9-1c0.6,0,1.1,0.2,1.4,0.6s0.5,0.9,0.5,1.6v4.1h-1.1v-3.9c0-0.4-0.1-0.8-0.3-1.1
		c-0.2-0.3-0.5-0.4-0.9-0.4c-0.3,0-0.6,0.1-0.9,0.3c-0.3,0.2-0.4,0.5-0.5,0.8v4.3h-1v-3.9c0-0.4-0.1-0.8-0.3-1.1s-0.5-0.4-0.9-0.4
		c-0.3,0-0.6,0.1-0.9,0.3c-0.3,0.2-0.4,0.5-0.5,0.8v4.3h-1v-6.2h1v0.7c0.4-0.6,0.9-0.9,1.7-0.9C361.4,304.5,361.9,304.9,362.3,305.5
		z"/>
</g>
<g class="st2">
	<path class="st3" d="M193.2,226.4h1l3.4,8.6h-1.1l-1-2.6h-3.5l-1,2.6h-1.1L193.2,226.4z M193.7,227.7l-1.4,3.7h2.8L193.7,227.7z"/>
</g>
<g class="st2">
	<path class="st3" d="M199,234.2c-0.5-0.6-0.8-1.4-0.8-2.3c0-1,0.3-1.7,0.8-2.3c0.5-0.6,1.2-0.9,2-0.9c0.7,0,1.2,0.2,1.7,0.5
		c0.4,0.4,0.7,0.8,0.8,1.5h-1.1c-0.1-0.3-0.2-0.6-0.5-0.8c-0.2-0.2-0.6-0.3-0.9-0.3c-0.5,0-1,0.2-1.3,0.6c-0.3,0.4-0.5,1-0.5,1.7
		c0,0.7,0.2,1.2,0.5,1.7c0.3,0.4,0.7,0.6,1.3,0.6c0.4,0,0.7-0.1,0.9-0.3c0.2-0.2,0.4-0.5,0.5-0.8h1.1c-0.1,0.6-0.4,1.1-0.8,1.5
		c-0.4,0.4-1,0.5-1.7,0.5C200.2,235.1,199.6,234.8,199,234.2z"/>
	<path class="st3" d="M205.3,234.2c-0.5-0.6-0.8-1.4-0.8-2.3c0-1,0.3-1.7,0.8-2.3c0.5-0.6,1.2-0.9,2-0.9c0.7,0,1.2,0.2,1.7,0.5
		c0.4,0.4,0.7,0.8,0.8,1.5h-1.1c-0.1-0.3-0.2-0.6-0.5-0.8c-0.2-0.2-0.6-0.3-0.9-0.3c-0.5,0-1,0.2-1.3,0.6c-0.3,0.4-0.5,1-0.5,1.7
		c0,0.7,0.2,1.2,0.5,1.7c0.3,0.4,0.7,0.6,1.3,0.6c0.4,0,0.7-0.1,0.9-0.3c0.2-0.2,0.4-0.5,0.5-0.8h1.1c-0.1,0.6-0.4,1.1-0.8,1.5
		c-0.4,0.4-1,0.5-1.7,0.5C206.5,235.1,205.8,234.8,205.3,234.2z"/>
</g>
<g class="st2">
	<path class="st3" d="M215.1,233.1h1c-0.1,0.6-0.4,1.1-0.8,1.4s-1,0.5-1.7,0.5c-0.8,0-1.5-0.3-2.1-0.9s-0.8-1.4-0.8-2.3
		c0-0.9,0.3-1.7,0.8-2.3c0.5-0.6,1.2-0.9,2-0.9c0.8,0,1.5,0.3,1.9,0.8c0.5,0.6,0.7,1.3,0.7,2.2v0.4h-4.4c0,0.7,0.2,1.2,0.5,1.6
		c0.3,0.4,0.8,0.6,1.3,0.6c0.4,0,0.7-0.1,1-0.3S215,233.5,215.1,233.1z M213.5,229.5c-0.5,0-0.9,0.2-1.2,0.5
		c-0.3,0.3-0.5,0.7-0.6,1.3h3.3c0-0.5-0.1-0.9-0.4-1.2C214.4,229.7,214,229.5,213.5,229.5z"/>
	<path class="st3" d="M217,233.3h1.1c0.2,0.6,0.7,1,1.5,1c0.4,0,0.7-0.1,0.9-0.2c0.2-0.2,0.4-0.4,0.4-0.7c0-0.4-0.3-0.7-0.9-0.9
		l-1.2-0.3c-1-0.3-1.5-0.8-1.5-1.6c0-0.5,0.2-1,0.6-1.3s1-0.5,1.6-0.5c0.7,0,1.2,0.2,1.6,0.5c0.4,0.3,0.7,0.7,0.8,1.3h-1
		c-0.2-0.6-0.6-0.9-1.4-0.9c-0.3,0-0.6,0.1-0.8,0.2c-0.2,0.2-0.4,0.4-0.4,0.7c0,0.2,0.1,0.4,0.2,0.5c0.1,0.1,0.4,0.2,0.7,0.3
		l1.2,0.3c1.1,0.3,1.6,0.9,1.6,1.7c0,0.6-0.2,1-0.6,1.4s-1,0.5-1.7,0.5c-0.7,0-1.3-0.2-1.7-0.5C217.4,234.3,217.1,233.8,217,233.3z"
		/>
</g>
<g class="st2">
	<path class="st3" d="M222.9,233.3h1.1c0.2,0.6,0.7,1,1.5,1c0.4,0,0.7-0.1,0.9-0.2c0.2-0.2,0.4-0.4,0.4-0.7c0-0.4-0.3-0.7-0.9-0.9
		l-1.2-0.3c-1-0.3-1.5-0.8-1.5-1.6c0-0.5,0.2-1,0.6-1.3s1-0.5,1.6-0.5c0.7,0,1.2,0.2,1.6,0.5c0.4,0.3,0.7,0.7,0.8,1.3h-1
		c-0.2-0.6-0.6-0.9-1.4-0.9c-0.3,0-0.6,0.1-0.8,0.2c-0.2,0.2-0.4,0.4-0.4,0.7c0,0.2,0.1,0.4,0.2,0.5c0.1,0.1,0.4,0.2,0.7,0.3
		l1.2,0.3c1.1,0.3,1.6,0.9,1.6,1.7c0,0.6-0.2,1-0.6,1.4s-1,0.5-1.7,0.5c-0.7,0-1.3-0.2-1.7-0.5C223.2,234.3,223,233.8,222.9,233.3z"
		/>
</g>
<g class="st2">
	<path class="st3" d="M236.2,233.1h1c-0.1,0.6-0.4,1.1-0.8,1.4s-1,0.5-1.7,0.5c-0.8,0-1.5-0.3-2.1-0.9s-0.8-1.4-0.8-2.3
		c0-0.9,0.3-1.7,0.8-2.3c0.5-0.6,1.2-0.9,2-0.9c0.8,0,1.5,0.3,1.9,0.8c0.5,0.6,0.7,1.3,0.7,2.2v0.4h-4.4c0,0.7,0.2,1.2,0.5,1.6
		c0.3,0.4,0.8,0.6,1.3,0.6c0.4,0,0.7-0.1,1-0.3S236.1,233.5,236.2,233.1z M234.7,229.5c-0.5,0-0.9,0.2-1.2,0.5
		c-0.3,0.3-0.5,0.7-0.6,1.3h3.3c0-0.5-0.1-0.9-0.4-1.2C235.5,229.7,235.2,229.5,234.7,229.5z"/>
</g>
<g class="st2">
	<path class="st3" d="M243.5,228.8l-2.2,3l2.3,3.2h-1.2l-1.7-2.4L239,235h-1.1l2.3-3.2l-2.2-3h1.2l1.6,2.2l1.6-2.2H243.5z"/>
	<path class="st3" d="M245.9,234.2v3.1h-1v-8.6h1v0.7c0.2-0.2,0.4-0.4,0.7-0.6c0.3-0.2,0.7-0.2,1-0.2c0.9,0,1.6,0.3,2.1,0.9
		c0.5,0.6,0.7,1.4,0.7,2.3c0,0.9-0.2,1.7-0.7,2.3c-0.5,0.6-1.2,0.9-2.1,0.9c-0.4,0-0.7-0.1-1-0.2
		C246.3,234.7,246.1,234.5,245.9,234.2z M245.9,230.6v2.5c0.2,0.3,0.4,0.6,0.7,0.7c0.3,0.2,0.6,0.3,0.9,0.3c0.6,0,1-0.2,1.4-0.6
		s0.5-1,0.5-1.6c0-0.7-0.2-1.2-0.5-1.6s-0.8-0.6-1.4-0.6c-0.3,0-0.6,0.1-0.9,0.3C246.3,230,246,230.3,245.9,230.6z"/>
	<path class="st3" d="M252.9,226.4c0.1,0.1,0.2,0.3,0.2,0.5s-0.1,0.3-0.2,0.5s-0.3,0.2-0.5,0.2c-0.2,0-0.3-0.1-0.5-0.2
		c-0.1-0.1-0.2-0.3-0.2-0.5s0.1-0.3,0.2-0.5c0.1-0.1,0.3-0.2,0.5-0.2C252.6,226.2,252.7,226.3,252.9,226.4z M252.9,228.8v6.2h-1
		v-6.2H252.9z"/>
</g>
<g class="st2">
	<path class="st3" d="M258,228.7v1.1c-0.2-0.1-0.4-0.2-0.7-0.2c-0.3,0-0.6,0.1-0.9,0.3c-0.3,0.2-0.4,0.5-0.5,0.9v4.2h-1v-6.2h1v0.8
		c0.1-0.3,0.3-0.5,0.6-0.7c0.3-0.2,0.6-0.3,0.9-0.3C257.6,228.6,257.8,228.7,258,228.7z"/>
</g>
<g class="st2">
	<path class="st3" d="M263,233.1h1c-0.1,0.6-0.4,1.1-0.8,1.4s-1,0.5-1.7,0.5c-0.8,0-1.5-0.3-2.1-0.9s-0.8-1.4-0.8-2.3
		c0-0.9,0.3-1.7,0.8-2.3c0.5-0.6,1.2-0.9,2-0.9c0.8,0,1.5,0.3,1.9,0.8c0.5,0.6,0.7,1.3,0.7,2.2v0.4h-4.4c0,0.7,0.2,1.2,0.5,1.6
		c0.3,0.4,0.8,0.6,1.3,0.6c0.4,0,0.7-0.1,1-0.3S262.9,233.5,263,233.1z M261.5,229.5c-0.5,0-0.9,0.2-1.2,0.5
		c-0.3,0.3-0.5,0.7-0.6,1.3h3.3c0-0.5-0.1-0.9-0.4-1.2C262.4,229.7,262,229.5,261.5,229.5z"/>
</g>
<g class="st2">
	<path class="st3" d="M265,233.3h1.1c0.2,0.6,0.7,1,1.5,1c0.4,0,0.7-0.1,0.9-0.2c0.2-0.2,0.4-0.4,0.4-0.7c0-0.4-0.3-0.7-0.9-0.9
		l-1.2-0.3c-1-0.3-1.5-0.8-1.5-1.6c0-0.5,0.2-1,0.6-1.3s1-0.5,1.6-0.5c0.7,0,1.2,0.2,1.6,0.5c0.4,0.3,0.7,0.7,0.8,1.3h-1
		c-0.2-0.6-0.6-0.9-1.4-0.9c-0.3,0-0.6,0.1-0.8,0.2c-0.2,0.2-0.4,0.4-0.4,0.7c0,0.2,0.1,0.4,0.2,0.5c0.1,0.1,0.4,0.2,0.7,0.3
		l1.2,0.3c1.1,0.3,1.6,0.9,1.6,1.7c0,0.6-0.2,1-0.6,1.4s-1,0.5-1.7,0.5c-0.7,0-1.3-0.2-1.7-0.5C265.4,234.3,265.1,233.8,265,233.3z"
		/>
	<path class="st3" d="M271,230.4c-0.1-0.1-0.2-0.3-0.2-0.5s0.1-0.4,0.2-0.5c0.1-0.1,0.3-0.2,0.5-0.2c0.2,0,0.4,0.1,0.5,0.2
		c0.1,0.1,0.2,0.3,0.2,0.5s-0.1,0.4-0.2,0.5c-0.1,0.1-0.3,0.2-0.5,0.2C271.4,230.6,271.2,230.6,271,230.4z M271,234.8
		c-0.1-0.1-0.2-0.3-0.2-0.5s0.1-0.4,0.2-0.5c0.1-0.1,0.3-0.2,0.5-0.2c0.2,0,0.4,0.1,0.5,0.2c0.1,0.1,0.2,0.3,0.2,0.5
		s-0.1,0.4-0.2,0.5c-0.1,0.1-0.3,0.2-0.5,0.2C271.4,235,271.2,235,271,234.8z"/>
</g>
<g class="st2">
	<path class="st4" d="M287.9,227.2l-3.1,7.7h-1.1l3-7.6h-4.4v-1h5.6V227.2z"/>
	<path class="st4" d="M296.3,235v-0.7c-0.2,0.2-0.4,0.4-0.7,0.6s-0.7,0.2-1,0.2c-0.9,0-1.6-0.3-2.1-0.9s-0.7-1.4-0.7-2.3
		c0-0.9,0.2-1.7,0.7-2.3c0.5-0.6,1.2-0.9,2.1-0.9c0.4,0,0.7,0.1,1,0.2s0.6,0.4,0.7,0.6v-3.6h1.1v9.1H296.3z M296.3,233.1v-2.5
		c-0.2-0.3-0.4-0.6-0.7-0.7c-0.3-0.2-0.6-0.3-0.9-0.3c-0.6,0-1,0.2-1.4,0.6s-0.5,1-0.5,1.6c0,0.7,0.2,1.2,0.5,1.6s0.8,0.6,1.4,0.6
		c0.3,0,0.6-0.1,0.9-0.3C296,233.7,296.2,233.4,296.3,233.1z"/>
</g>
<g class="st2">
	<path class="st4" d="M303.8,235h-1v-0.5c-0.1,0.1-0.4,0.3-0.7,0.4c-0.3,0.1-0.6,0.2-1,0.2c-0.7,0-1.2-0.2-1.6-0.5
		c-0.4-0.4-0.7-0.8-0.7-1.4c0-0.6,0.2-1,0.7-1.4c0.5-0.4,1-0.5,1.7-0.5c0.3,0,0.6,0.1,0.9,0.2s0.5,0.2,0.7,0.3v-0.8
		c0-0.4-0.1-0.7-0.4-1c-0.2-0.2-0.6-0.4-1-0.4c-0.7,0-1.1,0.3-1.3,0.9h-1c0.1-0.5,0.4-0.9,0.8-1.3c0.4-0.3,0.9-0.5,1.5-0.5
		c0.7,0,1.3,0.2,1.7,0.6c0.4,0.4,0.6,0.9,0.6,1.6V235z M302.8,233.4v-0.6c-0.1-0.2-0.3-0.4-0.6-0.6c-0.3-0.1-0.6-0.2-0.9-0.2
		c-0.4,0-0.8,0.1-1,0.3c-0.3,0.2-0.4,0.5-0.4,0.8c0,0.4,0.1,0.6,0.4,0.8c0.3,0.2,0.6,0.3,1,0.3c0.3,0,0.6-0.1,0.9-0.2
		C302.5,233.8,302.7,233.7,302.8,233.4z"/>
</g>
<g class="st2">
	<path class="st4" d="M307.3,237.3h-1l0.9-2.3l-2.4-6.3h1.1l1.8,4.9l1.8-4.9h1.1L307.3,237.3z"/>
</g>
<g class="st2">
	<path class="st4" d="M311.2,233.3h1.1c0.2,0.6,0.7,1,1.5,1c0.4,0,0.7-0.1,0.9-0.2c0.2-0.2,0.4-0.4,0.4-0.7c0-0.4-0.3-0.7-0.9-0.9
		l-1.2-0.3c-1-0.3-1.5-0.8-1.5-1.6c0-0.5,0.2-1,0.6-1.3s1-0.5,1.6-0.5c0.7,0,1.2,0.2,1.6,0.5c0.4,0.3,0.7,0.7,0.8,1.3h-1
		c-0.2-0.6-0.6-0.9-1.4-0.9c-0.3,0-0.6,0.1-0.8,0.2c-0.2,0.2-0.4,0.4-0.4,0.7c0,0.2,0.1,0.4,0.2,0.5c0.1,0.1,0.4,0.2,0.7,0.3
		l1.2,0.3c1.1,0.3,1.6,0.9,1.6,1.7c0,0.6-0.2,1-0.6,1.4s-1,0.5-1.7,0.5c-0.7,0-1.3-0.2-1.7-0.5C311.6,234.3,311.3,233.8,311.2,233.3
		z"/>
	<path class="st4" d="M316.8,236.5l0.9-1.5c-0.4-0.1-0.6-0.3-0.6-0.7c0-0.2,0.1-0.4,0.2-0.5c0.1-0.1,0.3-0.2,0.5-0.2
		c0.2,0,0.4,0.1,0.5,0.2c0.1,0.1,0.2,0.3,0.2,0.6c0,0.3-0.1,0.6-0.3,0.9l-0.7,1.2H316.8z"/>
</g>
<g class="st2">
	<path class="st3" d="M349.3,235.1c-0.8,0-1.5-0.2-2.1-0.7c-0.6-0.5-0.8-1.1-0.8-1.8c0-0.5,0.2-1,0.5-1.4c0.3-0.4,0.7-0.7,1.2-0.8
		c-0.4-0.1-0.7-0.4-1-0.7c-0.3-0.3-0.4-0.7-0.4-1.2c0-0.7,0.2-1.2,0.7-1.6c0.5-0.4,1.1-0.6,1.9-0.6c0.8,0,1.4,0.2,1.9,0.6
		c0.5,0.4,0.7,1,0.7,1.6c0,0.5-0.1,0.9-0.4,1.2s-0.6,0.6-1,0.7c0.5,0.1,0.9,0.4,1.2,0.8c0.3,0.4,0.5,0.9,0.5,1.4
		c0,0.7-0.3,1.3-0.8,1.8C350.8,234.9,350.1,235.1,349.3,235.1z M349.3,234.2c0.6,0,1-0.2,1.4-0.5c0.4-0.3,0.5-0.7,0.5-1.2
		s-0.2-0.9-0.5-1.2c-0.3-0.3-0.8-0.5-1.4-0.5c-0.5,0-1,0.2-1.3,0.5c-0.4,0.3-0.5,0.7-0.5,1.2s0.2,0.9,0.5,1.2
		C348.3,234,348.8,234.2,349.3,234.2z M349.3,230c0.5,0,0.8-0.1,1.1-0.4c0.3-0.3,0.4-0.6,0.4-1c0-0.4-0.1-0.8-0.4-1
		c-0.3-0.3-0.7-0.4-1.1-0.4c-0.4,0-0.8,0.1-1.1,0.4c-0.3,0.3-0.4,0.6-0.4,1c0,0.4,0.1,0.7,0.4,1C348.5,229.9,348.8,230,349.3,230z"
		/>
</g>
<g class="st2">
	<path class="st3" d="M352.7,236.1l3.5-10.3h1l-3.5,10.3H352.7z"/>
</g>
<g class="st2">
	<path class="st3" d="M360.6,235.1c-0.8,0-1.5-0.2-2.1-0.7c-0.6-0.5-0.8-1.1-0.8-1.8c0-0.5,0.2-1,0.5-1.4c0.3-0.4,0.7-0.7,1.2-0.8
		c-0.4-0.1-0.7-0.4-1-0.7c-0.3-0.3-0.4-0.7-0.4-1.2c0-0.7,0.2-1.2,0.7-1.6c0.5-0.4,1.1-0.6,1.9-0.6c0.8,0,1.4,0.2,1.9,0.6
		c0.5,0.4,0.7,1,0.7,1.6c0,0.5-0.1,0.9-0.4,1.2s-0.6,0.6-1,0.7c0.5,0.1,0.9,0.4,1.2,0.8c0.3,0.4,0.5,0.9,0.5,1.4
		c0,0.7-0.3,1.3-0.8,1.8C362.1,234.9,361.4,235.1,360.6,235.1z M360.6,234.2c0.6,0,1-0.2,1.4-0.5c0.3-0.3,0.5-0.7,0.5-1.2
		s-0.2-0.9-0.5-1.2c-0.4-0.3-0.8-0.5-1.4-0.5c-0.5,0-1,0.2-1.3,0.5c-0.3,0.3-0.5,0.7-0.5,1.2s0.2,0.9,0.5,1.2
		C359.6,234,360.1,234.2,360.6,234.2z M360.6,230c0.5,0,0.8-0.1,1.1-0.4c0.3-0.3,0.4-0.6,0.4-1c0-0.4-0.1-0.8-0.4-1
		c-0.3-0.3-0.7-0.4-1.1-0.4c-0.4,0-0.8,0.1-1.1,0.4c-0.3,0.3-0.4,0.6-0.4,1c0,0.4,0.1,0.7,0.4,1C359.8,229.9,360.1,230,360.6,230z"
		/>
</g>
<g class="st2">
	<path class="st3" d="M364,236.1l3.5-10.3h1l-3.5,10.3H364z"/>
	<path class="st3" d="M372.2,226.4v8.6h-1.1v-7.3l-2.1,1.1v-1.1l2.5-1.3H372.2z"/>
</g>
<g class="st2">
	<path class="st3" d="M379.6,228.4h-1.1c-0.3-0.8-0.8-1.2-1.6-1.2c-0.6,0-1.1,0.3-1.6,0.9c-0.4,0.6-0.6,1.4-0.6,2.3c0,0,0,0.1,0,0.2
		s0,0.2,0,0.2c0.1-0.4,0.4-0.8,0.8-1.1c0.4-0.3,0.9-0.4,1.4-0.4c0.8,0,1.5,0.3,2,0.8c0.5,0.6,0.8,1.2,0.8,2c0,0.8-0.3,1.5-0.8,2.1
		c-0.5,0.6-1.2,0.8-2.1,0.8c-1.2,0-2-0.5-2.6-1.6c-0.3-0.7-0.5-1.6-0.5-2.6c0-1.4,0.3-2.5,0.9-3.3s1.3-1.3,2.3-1.3
		C378.4,226.2,379.3,227,379.6,228.4z M375,232.2c0,0.6,0.2,1,0.5,1.4c0.3,0.4,0.8,0.5,1.3,0.5c0.5,0,1-0.2,1.3-0.5s0.5-0.8,0.5-1.4
		s-0.2-1-0.5-1.4c-0.3-0.4-0.8-0.6-1.3-0.6c-0.6,0-1,0.2-1.3,0.5C375.2,231.2,375,231.6,375,232.2z"/>
</g>
<g class="st2">
	<path class="st3" d="M380.3,236.5l0.9-1.5c-0.4-0.1-0.6-0.3-0.6-0.7c0-0.2,0.1-0.4,0.2-0.5c0.1-0.1,0.3-0.2,0.5-0.2
		s0.4,0.1,0.5,0.2s0.2,0.3,0.2,0.6c0,0.3-0.1,0.6-0.3,0.9l-0.7,1.2H380.3z"/>
	<path class="st3" d="M389.2,226.4v8.6h-1.1v-7.3l-2.1,1.1v-1.1l2.5-1.3H389.2z"/>
	<path class="st3" d="M393.8,226.4v8.6h-1.1v-7.3l-2.1,1.1v-1.1l2.5-1.3H393.8z"/>
	<path class="st3" d="M395.5,230.4c-0.1-0.1-0.2-0.3-0.2-0.5s0.1-0.4,0.2-0.5c0.1-0.1,0.3-0.2,0.5-0.2c0.2,0,0.4,0.1,0.5,0.2
		s0.2,0.3,0.2,0.5s-0.1,0.4-0.2,0.5s-0.3,0.2-0.5,0.2C395.8,230.6,395.6,230.6,395.5,230.4z M395.5,234.8c-0.1-0.1-0.2-0.3-0.2-0.5
		s0.1-0.4,0.2-0.5c0.1-0.1,0.3-0.2,0.5-0.2c0.2,0,0.4,0.1,0.5,0.2c0.1,0.1,0.2,0.3,0.2,0.5s-0.1,0.4-0.2,0.5
		c-0.1,0.1-0.3,0.2-0.5,0.2C395.8,235,395.6,235,395.5,234.8z"/>
	<path class="st3" d="M400.5,230.3c-0.6,0-1.1,0.2-1.5,0.7h-0.9v-4.7h4.7v1h-3.8v2.6c0.4-0.4,0.9-0.5,1.6-0.5c0.8,0,1.4,0.3,1.9,0.8
		c0.5,0.5,0.8,1.2,0.8,2.1c0,0.8-0.3,1.5-0.8,2c-0.5,0.5-1.2,0.8-2,0.8c-0.8,0-1.5-0.2-2-0.7c-0.5-0.5-0.8-1.1-0.9-1.9h1.1
		c0.2,1.1,0.8,1.6,1.9,1.6c0.5,0,0.9-0.2,1.3-0.5c0.3-0.4,0.5-0.8,0.5-1.4s-0.2-1-0.5-1.4C401.5,230.5,401.1,230.3,400.5,230.3z"/>
	<path class="st3" d="M404.4,233h1.1c0.3,0.8,0.8,1.2,1.6,1.2c0.6,0,1.1-0.3,1.6-0.9c0.4-0.6,0.6-1.4,0.6-2.3c0,0,0-0.1,0-0.2
		c0-0.1,0-0.2,0-0.2c-0.1,0.4-0.4,0.8-0.8,1.1s-0.9,0.4-1.4,0.4c-0.8,0-1.5-0.3-2-0.8c-0.5-0.6-0.8-1.2-0.8-2c0-0.8,0.3-1.5,0.8-2.1
		c0.5-0.6,1.2-0.8,2.1-0.8c1.2,0,2,0.5,2.6,1.6c0.3,0.7,0.5,1.6,0.5,2.6c0,1.4-0.3,2.5-0.9,3.3c-0.6,0.8-1.3,1.3-2.3,1.3
		C405.7,235.1,404.8,234.4,404.4,233z M409,229.1c0-0.6-0.2-1-0.5-1.4c-0.3-0.4-0.8-0.5-1.3-0.5c-0.5,0-1,0.2-1.3,0.5
		c-0.3,0.4-0.5,0.8-0.5,1.4s0.2,1,0.5,1.4c0.3,0.4,0.8,0.6,1.3,0.6c0.6,0,1-0.2,1.3-0.5C408.8,230.2,409,229.7,409,229.1z"/>
	<path class="st3" d="M412.8,234.2v3.1h-1v-8.6h1v0.7c0.2-0.2,0.4-0.4,0.7-0.6c0.3-0.2,0.7-0.2,1-0.2c0.9,0,1.6,0.3,2.1,0.9
		c0.5,0.6,0.7,1.4,0.7,2.3c0,0.9-0.2,1.7-0.7,2.3c-0.5,0.6-1.2,0.9-2.1,0.9c-0.4,0-0.7-0.1-1-0.2C413.2,234.7,413,234.5,412.8,234.2
		z M412.8,230.6v2.5c0.2,0.3,0.4,0.6,0.7,0.7c0.3,0.2,0.6,0.3,0.9,0.3c0.6,0,1-0.2,1.4-0.6s0.5-1,0.5-1.6c0-0.7-0.2-1.2-0.5-1.6
		s-0.8-0.6-1.4-0.6c-0.3,0-0.6,0.1-0.9,0.3C413.2,230,412.9,230.3,412.8,230.6z"/>
	<path class="st3" d="M423.2,229.6c0.5-0.7,1.1-1,1.9-1c0.6,0,1.1,0.2,1.4,0.6s0.5,0.9,0.5,1.6v4.1H426V231c0-0.4-0.1-0.8-0.3-1.1
		c-0.2-0.3-0.5-0.4-0.9-0.4c-0.3,0-0.6,0.1-0.9,0.3c-0.3,0.2-0.4,0.5-0.5,0.8v4.3h-1V231c0-0.4-0.1-0.8-0.3-1.1s-0.5-0.4-0.9-0.4
		c-0.3,0-0.6,0.1-0.9,0.3c-0.3,0.2-0.4,0.5-0.5,0.8v4.3h-1v-6.2h1v0.7c0.4-0.6,0.9-0.9,1.7-0.9C422.3,228.6,422.8,229,423.2,229.6z"
		/>
</g>
<g class="st2">
	<path class="st3" d="M195.6,133.6c0-0.1-0.1-0.3-0.1-0.5c-0.1-0.2-0.2-0.3-0.3-0.5c-0.1-0.1-0.3-0.3-0.5-0.3
		c-0.2-0.1-0.5-0.1-0.8-0.1c-0.2,0-0.4,0-0.6,0.1c-0.2,0.1-0.4,0.2-0.5,0.3c-0.1,0.1-0.2,0.2-0.3,0.4s-0.1,0.3-0.1,0.5
		c0,0.3,0.1,0.5,0.3,0.7c0.2,0.2,0.4,0.3,0.8,0.4l1.4,0.3c0.4,0.1,0.8,0.2,1.2,0.4c0.3,0.2,0.6,0.4,0.9,0.7s0.4,0.5,0.5,0.9
		c0.1,0.3,0.2,0.6,0.2,1c0,0.4-0.1,0.8-0.2,1.1c-0.2,0.4-0.4,0.7-0.7,1c-0.3,0.3-0.7,0.5-1.1,0.7c-0.4,0.2-1,0.3-1.5,0.3
		c-0.7,0-1.2-0.1-1.7-0.3s-0.9-0.4-1.2-0.7c-0.3-0.3-0.6-0.6-0.7-1c-0.2-0.4-0.3-0.7-0.3-1.1l1.8-0.5c0,0.2,0.1,0.5,0.2,0.7
		c0.1,0.2,0.2,0.4,0.4,0.6s0.4,0.3,0.7,0.4s0.6,0.2,0.9,0.2c0.5,0,0.9-0.1,1.2-0.3c0.3-0.2,0.4-0.5,0.4-0.9c0-0.3-0.1-0.5-0.3-0.7
		c-0.2-0.2-0.5-0.4-0.9-0.4l-1.4-0.3c-0.8-0.2-1.4-0.5-1.9-1s-0.7-1.1-0.7-1.9c0-0.4,0.1-0.8,0.3-1.2c0.2-0.4,0.4-0.7,0.7-1
		c0.3-0.3,0.7-0.5,1.1-0.7c0.4-0.2,0.9-0.2,1.3-0.2c0.6,0,1.1,0.1,1.5,0.2c0.4,0.2,0.8,0.4,1.1,0.6c0.3,0.3,0.5,0.5,0.7,0.8
		c0.2,0.3,0.3,0.6,0.3,0.9L195.6,133.6z"/>
</g>
<g class="st2">
	<path class="st3" d="M200.8,140.7h-1.9v-10.1h1.9v3.8c0.2-0.3,0.5-0.5,0.9-0.6c0.3-0.1,0.7-0.2,1-0.2c0.4,0,0.8,0.1,1.1,0.2
		c0.3,0.1,0.6,0.3,0.8,0.6c0.2,0.2,0.4,0.5,0.5,0.9c0.1,0.3,0.2,0.7,0.2,1.1v4.3h-1.9v-4c0-0.4-0.1-0.7-0.3-1
		c-0.2-0.3-0.5-0.4-1-0.4c-0.4,0-0.7,0.1-0.9,0.4c-0.2,0.3-0.3,0.6-0.4,1V140.7z"/>
	<path class="st3" d="M206.7,138.8c0-0.3,0.1-0.6,0.2-0.8c0.1-0.2,0.3-0.4,0.4-0.6c0.2-0.2,0.4-0.3,0.7-0.4c0.2-0.1,0.5-0.2,0.8-0.2
		l1.7-0.3c0.2,0,0.3-0.1,0.4-0.2s0.1-0.2,0.1-0.3c0-0.2-0.1-0.5-0.3-0.6c-0.2-0.2-0.5-0.3-0.9-0.3c-0.4,0-0.7,0.1-0.9,0.3
		c-0.2,0.2-0.3,0.5-0.4,0.8l-1.7-0.3c0-0.3,0.1-0.5,0.3-0.8c0.1-0.3,0.3-0.5,0.6-0.7s0.5-0.4,0.9-0.5c0.4-0.1,0.8-0.2,1.2-0.2
		c0.5,0,1,0.1,1.4,0.2c0.4,0.1,0.7,0.3,0.9,0.6c0.2,0.2,0.4,0.5,0.5,0.8s0.2,0.6,0.2,1v3.4c0,0.2,0,0.4,0,0.6s0,0.4,0.1,0.5h-1.7
		c0-0.1,0-0.2,0-0.4c0-0.2,0-0.3,0-0.4c-0.2,0.3-0.4,0.5-0.8,0.7c-0.3,0.2-0.8,0.3-1.3,0.3c-0.4,0-0.7-0.1-1-0.2
		c-0.3-0.1-0.5-0.3-0.7-0.5c-0.2-0.2-0.4-0.4-0.5-0.7S206.7,139.1,206.7,138.8z M209.4,139.5c0.2,0,0.4,0,0.6-0.1
		c0.2-0.1,0.3-0.1,0.5-0.3c0.1-0.1,0.3-0.3,0.3-0.5c0.1-0.2,0.1-0.5,0.1-0.8v-0.3l-1.6,0.2c-0.2,0-0.4,0.1-0.6,0.3
		c-0.2,0.1-0.2,0.3-0.2,0.6c0,0.2,0.1,0.4,0.2,0.6C208.9,139.4,209.1,139.5,209.4,139.5z"/>
</g>
<g class="st2">
	<path class="st3" d="M218.8,135.6c-0.2,0-0.4-0.1-0.6-0.1c-0.2,0-0.5,0-0.7,0.1c-0.2,0.1-0.4,0.2-0.6,0.3c-0.2,0.1-0.3,0.3-0.4,0.6
		s-0.1,0.6-0.1,0.9v3.2h-1.9v-6.9h1.8v1c0.1-0.2,0.2-0.4,0.4-0.6c0.2-0.1,0.3-0.3,0.5-0.3c0.2-0.1,0.4-0.1,0.5-0.2
		c0.2,0,0.3,0,0.5,0c0.1,0,0.1,0,0.2,0c0.1,0,0.1,0,0.2,0V135.6z"/>
</g>
<g class="st2">
	<path class="st3" d="M219.9,131.5c0-0.3,0.1-0.6,0.3-0.8c0.2-0.2,0.5-0.3,0.8-0.3c0.3,0,0.6,0.1,0.8,0.3c0.2,0.2,0.3,0.5,0.3,0.8
		c0,0.3-0.1,0.6-0.3,0.8c-0.2,0.2-0.5,0.3-0.8,0.3c-0.3,0-0.6-0.1-0.8-0.3C220,132.1,219.9,131.8,219.9,131.5z M220.1,140.7v-6.9
		h1.9v6.9H220.1z"/>
	<path class="st3" d="M225.8,140.7H224v-6.9h1.8v0.9c0.2-0.4,0.5-0.6,0.9-0.8s0.7-0.3,1.1-0.3c0.4,0,0.8,0.1,1.1,0.2
		c0.3,0.1,0.6,0.3,0.8,0.6c0.2,0.2,0.4,0.5,0.5,0.9c0.1,0.3,0.1,0.7,0.1,1.1v4.3h-1.9v-4c0-0.4-0.1-0.7-0.3-1
		c-0.2-0.3-0.5-0.4-1-0.4c-0.4,0-0.7,0.1-1,0.4s-0.3,0.6-0.3,1V140.7z"/>
	<path class="st3" d="M233.4,140.6c0.1,0.4,0.2,0.7,0.5,0.9c0.3,0.2,0.6,0.4,1.1,0.4c0.6,0,1-0.2,1.4-0.5c0.3-0.3,0.5-0.8,0.5-1.5
		v-0.5c-0.1,0.2-0.4,0.4-0.7,0.6s-0.7,0.3-1.2,0.3c-0.5,0-0.9-0.1-1.3-0.3s-0.7-0.4-1-0.7s-0.5-0.7-0.7-1.1
		c-0.2-0.4-0.2-0.9-0.2-1.3c0-0.5,0.1-0.9,0.2-1.3c0.2-0.4,0.4-0.8,0.7-1.1c0.3-0.3,0.6-0.6,1-0.7c0.4-0.2,0.8-0.3,1.3-0.3
		c0.6,0,1,0.1,1.3,0.3c0.3,0.2,0.5,0.4,0.7,0.6v-0.8h1.8v6.1c0,0.5-0.1,0.9-0.2,1.4s-0.3,0.8-0.6,1.1c-0.3,0.3-0.7,0.6-1.1,0.8
		c-0.5,0.2-1,0.3-1.7,0.3c-0.5,0-0.9-0.1-1.3-0.2c-0.4-0.1-0.7-0.3-1-0.5c-0.3-0.2-0.5-0.5-0.7-0.8c-0.2-0.3-0.3-0.6-0.3-0.9
		L233.4,140.6z M235.2,138.8c0.5,0,0.9-0.2,1.2-0.5c0.3-0.3,0.5-0.7,0.5-1.3c0-0.5-0.2-1-0.5-1.3c-0.3-0.3-0.7-0.5-1.1-0.5
		c-0.2,0-0.5,0-0.7,0.1c-0.2,0.1-0.4,0.2-0.5,0.4s-0.3,0.3-0.4,0.6s-0.1,0.5-0.1,0.7c0,0.5,0.2,1,0.5,1.3
		C234.3,138.6,234.7,138.8,235.2,138.8z"/>
</g>
<g class="st2">
	<path class="st3" d="M245,138.4c0,0.3,0.1,0.5,0.3,0.7s0.5,0.3,0.9,0.3c0.3,0,0.5-0.1,0.7-0.2c0.1-0.1,0.2-0.3,0.2-0.5
		c0-0.2-0.1-0.3-0.2-0.4c-0.1-0.1-0.3-0.2-0.6-0.3l-0.9-0.2c-0.7-0.1-1.2-0.4-1.5-0.8c-0.3-0.4-0.5-0.8-0.5-1.3
		c0-0.3,0.1-0.6,0.2-0.9c0.1-0.3,0.3-0.5,0.5-0.7c0.2-0.2,0.5-0.4,0.8-0.5s0.7-0.2,1-0.2c0.5,0,0.9,0.1,1.2,0.2
		c0.3,0.1,0.6,0.3,0.8,0.5s0.4,0.4,0.5,0.7c0.1,0.2,0.2,0.4,0.2,0.6l-1.6,0.4c0-0.1,0-0.2-0.1-0.3s-0.1-0.2-0.2-0.3
		c-0.1-0.1-0.2-0.2-0.3-0.2c-0.1-0.1-0.3-0.1-0.5-0.1c-0.2,0-0.5,0.1-0.6,0.2c-0.2,0.1-0.3,0.3-0.3,0.5c0,0.2,0.1,0.3,0.2,0.4
		c0.1,0.1,0.3,0.2,0.5,0.2l1,0.2c0.7,0.1,1.2,0.4,1.5,0.8s0.5,0.8,0.5,1.3c0,0.3-0.1,0.6-0.2,0.8c-0.1,0.3-0.3,0.5-0.5,0.7
		c-0.2,0.2-0.5,0.4-0.8,0.5c-0.3,0.1-0.7,0.2-1.2,0.2c-0.5,0-1-0.1-1.3-0.2c-0.4-0.1-0.6-0.3-0.9-0.5s-0.4-0.4-0.5-0.7
		s-0.2-0.5-0.2-0.7L245,138.4z"/>
</g>
<g class="st2">
	<path class="st3" d="M256.6,138.7c-0.1,0.3-0.2,0.6-0.4,0.8s-0.4,0.5-0.7,0.7c-0.3,0.2-0.6,0.4-0.9,0.5c-0.4,0.1-0.7,0.2-1.2,0.2
		c-0.5,0-0.9-0.1-1.4-0.2s-0.8-0.4-1.1-0.7s-0.6-0.7-0.8-1.2c-0.2-0.5-0.3-1-0.3-1.6c0-0.6,0.1-1.1,0.3-1.5c0.2-0.4,0.4-0.8,0.7-1.1
		c0.3-0.3,0.7-0.6,1.1-0.7s0.8-0.3,1.3-0.3c1.1,0,1.9,0.3,2.5,1c0.6,0.6,0.9,1.5,0.9,2.6c0,0.1,0,0.3,0,0.4c0,0.1,0,0.2,0,0.2h-4.9
		c0,0.2,0.1,0.4,0.2,0.6c0.1,0.2,0.2,0.4,0.4,0.5c0.2,0.1,0.3,0.2,0.5,0.3c0.2,0.1,0.4,0.1,0.7,0.1c0.4,0,0.8-0.1,1-0.3
		c0.2-0.2,0.4-0.4,0.5-0.8L256.6,138.7z M254.8,136.4c0-0.2,0-0.3-0.1-0.5c-0.1-0.2-0.2-0.3-0.3-0.4s-0.3-0.2-0.5-0.3
		s-0.4-0.1-0.7-0.1c-0.2,0-0.5,0-0.6,0.1c-0.2,0.1-0.3,0.2-0.5,0.3s-0.2,0.3-0.3,0.4c-0.1,0.2-0.1,0.3-0.1,0.5H254.8z"/>
	<path class="st3" d="M260.4,133.8h1.4v1.7h-1.4v2.9c0,0.3,0.1,0.5,0.2,0.6c0.1,0.1,0.3,0.2,0.6,0.2c0.1,0,0.2,0,0.3,0
		c0.1,0,0.2,0,0.2,0v1.5c-0.1,0-0.2,0.1-0.4,0.1c-0.2,0-0.4,0.1-0.7,0.1c-0.7,0-1.2-0.2-1.6-0.6c-0.4-0.4-0.6-0.9-0.6-1.6v-3.2h-1.2
		v-1.7h0.4c0.4,0,0.6-0.1,0.8-0.3c0.2-0.2,0.3-0.5,0.3-0.8v-1h1.7V133.8z"/>
</g>
<g class="st2">
	<path class="st3" d="M265.7,133.8h1.4v1.7h-1.4v2.9c0,0.3,0.1,0.5,0.2,0.6c0.1,0.1,0.3,0.2,0.6,0.2c0.1,0,0.2,0,0.3,0
		c0.1,0,0.2,0,0.2,0v1.5c-0.1,0-0.2,0.1-0.4,0.1c-0.2,0-0.4,0.1-0.7,0.1c-0.7,0-1.2-0.2-1.6-0.6c-0.4-0.4-0.6-0.9-0.6-1.6v-3.2h-1.2
		v-1.7h0.4c0.4,0,0.6-0.1,0.8-0.3c0.2-0.2,0.3-0.5,0.3-0.8v-1h1.7V133.8z"/>
</g>
<g class="st2">
	<path class="st3" d="M268.4,131.5c0-0.3,0.1-0.6,0.3-0.8c0.2-0.2,0.5-0.3,0.8-0.3c0.3,0,0.6,0.1,0.8,0.3c0.2,0.2,0.3,0.5,0.3,0.8
		c0,0.3-0.1,0.6-0.3,0.8c-0.2,0.2-0.5,0.3-0.8,0.3c-0.3,0-0.6-0.1-0.8-0.3C268.5,132.1,268.4,131.8,268.4,131.5z M268.6,140.7v-6.9
		h1.9v6.9H268.6z"/>
	<path class="st3" d="M274.3,140.7h-1.9v-6.9h1.8v0.9c0.2-0.4,0.5-0.6,0.9-0.8s0.7-0.3,1.1-0.3c0.4,0,0.8,0.1,1.1,0.2
		c0.3,0.1,0.6,0.3,0.8,0.6c0.2,0.2,0.4,0.5,0.5,0.9c0.1,0.3,0.1,0.7,0.1,1.1v4.3h-1.9v-4c0-0.4-0.1-0.7-0.3-1
		c-0.2-0.3-0.5-0.4-1-0.4c-0.4,0-0.7,0.1-1,0.4s-0.3,0.6-0.3,1V140.7z"/>
	<path class="st3" d="M281.9,140.6c0.1,0.4,0.2,0.7,0.5,0.9c0.3,0.2,0.6,0.4,1.1,0.4c0.6,0,1-0.2,1.4-0.5c0.3-0.3,0.5-0.8,0.5-1.5
		v-0.5c-0.1,0.2-0.4,0.4-0.7,0.6s-0.7,0.3-1.2,0.3c-0.5,0-0.9-0.1-1.3-0.3s-0.7-0.4-1-0.7s-0.5-0.7-0.7-1.1
		c-0.2-0.4-0.2-0.9-0.2-1.3c0-0.5,0.1-0.9,0.2-1.3c0.2-0.4,0.4-0.8,0.7-1.1c0.3-0.3,0.6-0.6,1-0.7c0.4-0.2,0.8-0.3,1.3-0.3
		c0.6,0,1,0.1,1.3,0.3c0.3,0.2,0.5,0.4,0.7,0.6v-0.8h1.8v6.1c0,0.5-0.1,0.9-0.2,1.4s-0.3,0.8-0.6,1.1c-0.3,0.3-0.7,0.6-1.1,0.8
		c-0.5,0.2-1,0.3-1.7,0.3c-0.5,0-0.9-0.1-1.3-0.2c-0.4-0.1-0.7-0.3-1-0.5c-0.3-0.2-0.5-0.5-0.7-0.8c-0.2-0.3-0.3-0.6-0.3-0.9
		L281.9,140.6z M283.7,138.8c0.5,0,0.9-0.2,1.2-0.5c0.3-0.3,0.5-0.7,0.5-1.3c0-0.5-0.2-1-0.5-1.3c-0.3-0.3-0.7-0.5-1.1-0.5
		c-0.2,0-0.5,0-0.7,0.1c-0.2,0.1-0.4,0.2-0.5,0.4s-0.3,0.3-0.4,0.6s-0.1,0.5-0.1,0.7c0,0.5,0.2,1,0.5,1.3
		C282.8,138.6,283.2,138.8,283.7,138.8z"/>
	<path class="st3" d="M290,138.4c0,0.3,0.1,0.5,0.3,0.7s0.5,0.3,0.9,0.3c0.3,0,0.5-0.1,0.7-0.2c0.1-0.1,0.2-0.3,0.2-0.5
		c0-0.2-0.1-0.3-0.2-0.4c-0.1-0.1-0.3-0.2-0.6-0.3l-0.9-0.2c-0.7-0.1-1.2-0.4-1.5-0.8c-0.3-0.4-0.5-0.8-0.5-1.3
		c0-0.3,0.1-0.6,0.2-0.9c0.1-0.3,0.3-0.5,0.5-0.7c0.2-0.2,0.5-0.4,0.8-0.5c0.3-0.1,0.7-0.2,1-0.2c0.5,0,0.9,0.1,1.2,0.2
		c0.3,0.1,0.6,0.3,0.8,0.5s0.4,0.4,0.5,0.7c0.1,0.2,0.2,0.4,0.2,0.6l-1.6,0.4c0-0.1,0-0.2-0.1-0.3s-0.1-0.2-0.2-0.3
		c-0.1-0.1-0.2-0.2-0.3-0.2c-0.1-0.1-0.3-0.1-0.5-0.1c-0.2,0-0.5,0.1-0.6,0.2c-0.2,0.1-0.3,0.3-0.3,0.5c0,0.2,0.1,0.3,0.2,0.4
		c0.1,0.1,0.3,0.2,0.5,0.2l1,0.2c0.7,0.1,1.2,0.4,1.5,0.8s0.5,0.8,0.5,1.3c0,0.3-0.1,0.6-0.2,0.8c-0.1,0.3-0.3,0.5-0.5,0.7
		s-0.5,0.4-0.8,0.5c-0.3,0.1-0.7,0.2-1.2,0.2c-0.5,0-1-0.1-1.3-0.2c-0.4-0.1-0.6-0.3-0.9-0.5c-0.2-0.2-0.4-0.4-0.5-0.7
		c-0.1-0.2-0.2-0.5-0.2-0.7L290,138.4z"/>
</g>
<path class="st5" d="M241,48.1h-8c-1.5-0.1-2.8-1-3.3-2.4l-3.2-9.4c-0.6-1.4-1.9-2.3-3.4-2.4h-68.7c-1.5,0.1-2.9,0.9-3.6,2.3
	l-4.6,9.6c-0.7,1.3-2.1,2.2-3.6,2.3H78.9V66h485.5V48.1H241z"/>
<circle class="st5" cx="87.3" cy="41.1" r="3.4"/>
<circle class="st5" cx="99.8" cy="41.1" r="3.4"/>
<circle class="st5" cx="111.5" cy="41.1" r="3.4"/>
<path class="st1" d="M123.8,51.7h255.3c2.6,0,4.6,2.1,4.6,4.6V58c0,2.6-2.1,4.6-4.6,4.6H123.8c-2.5,0-4.6-2.1-4.6-4.6c0,0,0,0,0,0
	v-1.7C119.2,53.8,121.2,51.7,123.8,51.7L123.8,51.7z"/>
<text transform="matrix(1 0 0 1 89.55 60.19)" class="st3 st6 st7">&lt; &gt;</text>
<line class="st8" x1="400.9" y1="344.1" x2="428.7" y2="344.1"/>
<g class="st2">
	<path d="M127.6,56.1l0.7,2.7l0.8-2.7h0.6l-1,3.6h-0.6l-0.7-2.7l-0.7,2.7H126l-1-3.6h0.6l0.8,2.7l0.7-2.7H127.6z"/>
	<path d="M132.7,56.1l0.7,2.7l0.8-2.7h0.6l-1,3.6h-0.6l-0.7-2.7l-0.7,2.7h-0.6l-1-3.6h0.6l0.8,2.7l0.7-2.7H132.7z"/>
</g>
<g class="st2">
	<path d="M137.7,56.1l0.7,2.7l0.8-2.7h0.6l-1,3.6h-0.6l-0.7-2.7l-0.7,2.7h-0.6l-1-3.6h0.6l0.8,2.7l0.7-2.7H137.7z"/>
</g>
<g class="st2">
	<path d="M140.1,59.6c-0.1-0.1-0.1-0.2-0.1-0.3c0-0.1,0-0.2,0.1-0.3c0.1-0.1,0.2-0.1,0.3-0.1c0.1,0,0.2,0,0.3,0.1
		c0.1,0.1,0.1,0.2,0.1,0.3c0,0.1,0,0.2-0.1,0.3c-0.1,0.1-0.2,0.1-0.3,0.1C140.3,59.7,140.2,59.7,140.1,59.6z"/>
	<path d="M142.2,59.3v1.8h-0.6v-4.9h0.6v0.4c0.1-0.1,0.2-0.3,0.4-0.3c0.2-0.1,0.4-0.1,0.6-0.1c0.5,0,0.9,0.2,1.2,0.5
		s0.4,0.8,0.4,1.3c0,0.5-0.1,1-0.4,1.3s-0.7,0.5-1.2,0.5c-0.2,0-0.4,0-0.6-0.1C142.4,59.5,142.3,59.4,142.2,59.3z M142.2,57.2v1.4
		c0.1,0.2,0.2,0.3,0.4,0.4c0.2,0.1,0.3,0.2,0.5,0.2c0.3,0,0.6-0.1,0.8-0.4s0.3-0.6,0.3-0.9c0-0.4-0.1-0.7-0.3-0.9
		c-0.2-0.2-0.5-0.4-0.8-0.4c-0.2,0-0.4,0.1-0.5,0.2C142.4,56.9,142.3,57,142.2,57.2z"/>
	<path d="M148.2,59.7h-0.6v-0.3c-0.1,0.1-0.2,0.2-0.4,0.2c-0.2,0.1-0.4,0.1-0.6,0.1c-0.4,0-0.7-0.1-0.9-0.3
		c-0.3-0.2-0.4-0.5-0.4-0.8c0-0.3,0.1-0.6,0.4-0.8s0.6-0.3,1-0.3c0.2,0,0.3,0,0.5,0.1c0.2,0.1,0.3,0.1,0.4,0.2v-0.4
		c0-0.2-0.1-0.4-0.2-0.6c-0.1-0.1-0.3-0.2-0.6-0.2c-0.4,0-0.6,0.2-0.7,0.5h-0.6c0.1-0.3,0.2-0.5,0.5-0.7s0.5-0.3,0.9-0.3
		c0.4,0,0.8,0.1,1,0.3c0.2,0.2,0.4,0.5,0.4,0.9V59.7z M147.6,58.8v-0.4c-0.1-0.1-0.2-0.2-0.3-0.3c-0.2-0.1-0.3-0.1-0.5-0.1
		c-0.2,0-0.4,0.1-0.6,0.2c-0.2,0.1-0.2,0.3-0.2,0.5c0,0.2,0.1,0.4,0.2,0.5c0.2,0.1,0.4,0.2,0.6,0.2c0.2,0,0.4,0,0.5-0.1
		C147.5,59.1,147.6,58.9,147.6,58.8z"/>
</g>
<g class="st2">
	<path d="M149.8,59.3v1.8h-0.6v-4.9h0.6v0.4c0.1-0.1,0.2-0.3,0.4-0.3c0.2-0.1,0.4-0.1,0.6-0.1c0.5,0,0.9,0.2,1.2,0.5
		s0.4,0.8,0.4,1.3c0,0.5-0.1,1-0.4,1.3s-0.7,0.5-1.2,0.5c-0.2,0-0.4,0-0.6-0.1C150.1,59.5,149.9,59.4,149.8,59.3z M149.8,57.2v1.4
		c0.1,0.2,0.2,0.3,0.4,0.4c0.2,0.1,0.3,0.2,0.5,0.2c0.3,0,0.6-0.1,0.8-0.4s0.3-0.6,0.3-0.9c0-0.4-0.1-0.7-0.3-0.9
		c-0.2-0.2-0.5-0.4-0.8-0.4c-0.2,0-0.4,0.1-0.5,0.2C150,56.9,149.9,57,149.8,57.2z"/>
</g>
<g class="st2">
	<path d="M155.5,58.6h0.6c-0.1,0.3-0.2,0.6-0.5,0.8c-0.3,0.2-0.6,0.3-1,0.3c-0.5,0-0.9-0.2-1.2-0.5c-0.3-0.3-0.5-0.8-0.5-1.3
		c0-0.5,0.1-1,0.4-1.3c0.3-0.3,0.7-0.5,1.2-0.5c0.5,0,0.8,0.2,1.1,0.5c0.3,0.3,0.4,0.7,0.4,1.3V58h-2.5c0,0.4,0.1,0.7,0.3,0.9
		c0.2,0.2,0.4,0.3,0.7,0.3c0.2,0,0.4-0.1,0.6-0.2S155.4,58.8,155.5,58.6z M154.6,56.6c-0.3,0-0.5,0.1-0.7,0.3
		c-0.2,0.2-0.3,0.4-0.3,0.7h1.9c0-0.3-0.1-0.5-0.2-0.7C155.1,56.7,154.9,56.6,154.6,56.6z"/>
</g>
<g class="st2">
	<path d="M158.7,56.1v0.6c-0.1-0.1-0.2-0.1-0.4-0.1c-0.2,0-0.4,0.1-0.5,0.2c-0.1,0.1-0.3,0.3-0.3,0.5v2.4h-0.6v-3.6h0.6v0.5
		c0.1-0.2,0.2-0.3,0.4-0.4c0.2-0.1,0.3-0.2,0.5-0.2C158.5,56.1,158.7,56.1,158.7,56.1z"/>
</g>
<g class="st2">
	<path d="M159.2,58.7h0.6c0.1,0.4,0.4,0.5,0.8,0.5c0.2,0,0.4,0,0.5-0.1c0.1-0.1,0.2-0.2,0.2-0.4c0-0.2-0.2-0.4-0.5-0.5l-0.7-0.2
		c-0.6-0.1-0.9-0.5-0.9-0.9c0-0.3,0.1-0.6,0.4-0.8c0.2-0.2,0.5-0.3,0.9-0.3c0.4,0,0.7,0.1,0.9,0.3c0.2,0.2,0.4,0.4,0.4,0.7h-0.6
		c-0.1-0.3-0.4-0.5-0.8-0.5c-0.2,0-0.3,0-0.5,0.1s-0.2,0.2-0.2,0.4c0,0.1,0,0.2,0.1,0.3s0.2,0.1,0.4,0.2l0.7,0.2
		c0.6,0.2,0.9,0.5,0.9,1c0,0.3-0.1,0.6-0.4,0.8c-0.2,0.2-0.6,0.3-1,0.3c-0.4,0-0.7-0.1-1-0.3C159.4,59.3,159.2,59,159.2,58.7z"/>
	<path d="M162.8,59.7v-5.2h0.6v2.1c0.1-0.1,0.3-0.3,0.4-0.4s0.4-0.1,0.6-0.1c0.4,0,0.7,0.1,0.9,0.4c0.2,0.2,0.3,0.5,0.3,0.9v2.3H165
		v-2.2c0-0.3-0.1-0.5-0.2-0.6c-0.1-0.2-0.3-0.2-0.6-0.2c-0.2,0-0.4,0.1-0.6,0.2c-0.2,0.1-0.3,0.3-0.3,0.5v2.4H162.8z"/>
	<path d="M169.2,56.6c0.3,0.3,0.5,0.8,0.5,1.3s-0.2,1-0.5,1.3c-0.3,0.3-0.7,0.5-1.2,0.5s-0.9-0.2-1.2-0.5c-0.3-0.3-0.5-0.8-0.5-1.3
		s0.2-1,0.5-1.3c0.3-0.3,0.7-0.5,1.2-0.5S168.9,56.2,169.2,56.6z M168.8,58.9c0.2-0.2,0.3-0.6,0.3-1c0-0.4-0.1-0.7-0.3-1
		c-0.2-0.2-0.4-0.4-0.7-0.4c-0.3,0-0.6,0.1-0.7,0.4c-0.2,0.2-0.3,0.6-0.3,1c0,0.4,0.1,0.7,0.3,1c0.2,0.2,0.4,0.4,0.7,0.4
		C168.4,59.2,168.6,59.1,168.8,58.9z"/>
</g>
<g class="st2">
	<path d="M171.1,59.3v1.8h-0.6v-4.9h0.6v0.4c0.1-0.1,0.2-0.3,0.4-0.3c0.2-0.1,0.4-0.1,0.6-0.1c0.5,0,0.9,0.2,1.2,0.5
		s0.4,0.8,0.4,1.3c0,0.5-0.1,1-0.4,1.3s-0.7,0.5-1.2,0.5c-0.2,0-0.4,0-0.6-0.1C171.3,59.5,171.2,59.4,171.1,59.3z M171.1,57.2v1.4
		c0.1,0.2,0.2,0.3,0.4,0.4c0.2,0.1,0.3,0.2,0.5,0.2c0.3,0,0.6-0.1,0.8-0.4s0.3-0.6,0.3-0.9c0-0.4-0.1-0.7-0.3-0.9
		c-0.2-0.2-0.5-0.4-0.8-0.4c-0.2,0-0.4,0.1-0.5,0.2C171.3,56.9,171.2,57,171.1,57.2z"/>
	<path d="M174.3,59.6c-0.1-0.1-0.1-0.2-0.1-0.3c0-0.1,0-0.2,0.1-0.3c0.1-0.1,0.2-0.1,0.3-0.1c0.1,0,0.2,0,0.3,0.1
		c0.1,0.1,0.1,0.2,0.1,0.3c0,0.1,0,0.2-0.1,0.3c-0.1,0.1-0.2,0.1-0.3,0.1C174.4,59.7,174.3,59.7,174.3,59.6z"/>
</g>
<g class="st2">
	<path d="M175.9,59.3c-0.3-0.3-0.4-0.8-0.4-1.3c0-0.5,0.1-1,0.4-1.3c0.3-0.3,0.7-0.5,1.2-0.5c0.4,0,0.7,0.1,1,0.3s0.4,0.5,0.5,0.8
		h-0.6c0-0.2-0.1-0.3-0.3-0.5c-0.1-0.1-0.3-0.2-0.5-0.2c-0.3,0-0.5,0.1-0.7,0.4c-0.2,0.2-0.3,0.6-0.3,1c0,0.4,0.1,0.7,0.3,1
		s0.4,0.4,0.7,0.4c0.2,0,0.4-0.1,0.5-0.2c0.1-0.1,0.2-0.3,0.3-0.5h0.6c-0.1,0.3-0.2,0.6-0.5,0.8s-0.6,0.3-1,0.3
		C176.6,59.8,176.2,59.6,175.9,59.3z"/>
</g>
<g class="st2">
	<path d="M181.8,56.6c0.3,0.3,0.5,0.8,0.5,1.3s-0.2,1-0.5,1.3c-0.3,0.3-0.7,0.5-1.2,0.5s-0.9-0.2-1.2-0.5c-0.3-0.3-0.5-0.8-0.5-1.3
		s0.2-1,0.5-1.3c0.3-0.3,0.7-0.5,1.2-0.5S181.5,56.2,181.8,56.6z M181.4,58.9c0.2-0.2,0.3-0.6,0.3-1c0-0.4-0.1-0.7-0.3-1
		c-0.2-0.2-0.4-0.4-0.7-0.4c-0.3,0-0.6,0.1-0.7,0.4c-0.2,0.2-0.3,0.6-0.3,1c0,0.4,0.1,0.7,0.3,1c0.2,0.2,0.4,0.4,0.7,0.4
		C180.9,59.2,181.2,59.1,181.4,58.9z"/>
	<path d="M185.6,56.6c0.3-0.4,0.6-0.6,1.1-0.6c0.4,0,0.6,0.1,0.8,0.3c0.2,0.2,0.3,0.5,0.3,0.9v2.4h-0.6v-2.3c0-0.3-0.1-0.5-0.2-0.6
		c-0.1-0.1-0.3-0.2-0.5-0.2c-0.2,0-0.3,0.1-0.5,0.2c-0.1,0.1-0.2,0.3-0.3,0.5v2.4h-0.6v-2.3c0-0.3-0.1-0.5-0.2-0.6
		c-0.1-0.1-0.3-0.2-0.5-0.2c-0.2,0-0.3,0.1-0.5,0.2c-0.1,0.1-0.2,0.3-0.3,0.5v2.4h-0.6v-3.6h0.6v0.4c0.2-0.3,0.5-0.5,1-0.5
		C185.1,56.1,185.4,56.3,185.6,56.6z"/>
</g>
<path class="st9" d="M562.3,19.9H82.2C73.8,20,67,26.8,67,35.1v319.3c0,8.4,6.8,15.2,15.2,15.2h480.1c8.4,0,15.2-6.8,15.2-15.2V35.1
	C577.5,26.8,570.7,20,562.3,19.9z M564.3,357.3H78.9V32.9h485.5L564.3,357.3L564.3,357.3z"/>
<polygon class="st10" points="78.9,357.3 200.2,356.7 321.5,356.4 442.7,356.3 564,356.3 563.1,357.3 563.2,276.2 563.4,195.1 
	563.6,114 564,32.9 564.4,114 564.7,195.1 564.9,276.2 565,357.3 565,358.2 564,358.2 442.7,358.2 321.5,358.1 200.2,357.8 "/>
<path class="st3" d="M389.7,364.1l97.5,2.6l47.2,1.4l25.8,0.8h1.7h0.8c0.3,0,0.5,0,0.8,0c1-0.1,2.1-0.3,3.1-0.6
	c4.1-1.3,7.5-4.4,9.1-8.4c0.4-1,0.7-2,0.9-3.1c0.2-1.1,0.2-2.2,0.2-3.3c0-36.6-0.1-75.6-0.1-114.6s0-78,0-114.6c0-18.3,0-36,0-52.7
	V47c0-3.9,0-7.8,0-11.6c0.1-7.2-5.1-13.4-12.2-14.5c-0.8-0.1-1.7-0.2-2.5-0.2h-2.6h-5.1l-18.9-0.1c-11.9-0.1-22.3-0.2-30.8-0.3
	L477.7,20l26.8-0.3c8.5-0.1,18.9-0.2,30.8-0.3l18.9-0.1h5.1h2.6c0.9,0,1.8,0,2.7,0.2c8,1.2,13.9,8.1,13.8,16.1c0,3.8,0,7.7,0,11.6
	c0,7.9,0,16,0,24.4c0,16.8,0,34.4,0,52.7c0,36.6,0,75.6,0,114.6s-0.1,78-0.1,114.6c0,1.2,0,2.4-0.2,3.5c-1.2,7.3-7.2,12.8-14.5,13.3
	c-0.3,0-0.6,0-0.9,0h-0.9l-1.7-0.1l-25.8-0.9l-47.2-1.7L389.7,364.1z"/>
<path class="st11" d="M635.3,376.1L635.3,376.1c0,4-3.2,7.2-7.2,7.2H16.4c-4,0-7.2-3.2-7.2-7.2l0,0"/>
<path class="st11" d="M635.3,376.7v-12.6H373.5v1.4c0,2.3-1.9,4.2-4.2,4.2h-94c-2.3,0-4.2-1.9-4.2-4.2v-1.4H9.2v12"/>
<path class="st11" d="M275.3,369.8h94c2.3,0,4.2-1.9,4.2-4.2v-1.4H271.1v1.4C271.1,367.9,273,369.7,275.3,369.8z"/>
<path class="st11" d="M373.5,364.1v1.4c0,2.3-1.9,4.2-4.2,4.2h-94c-2.3,0-4.2-1.9-4.2-4.2v-1.4H9.2v12"/>
<path class="st3" d="M373.5,364.1l65.5-0.4l65.5-0.3l65.5-0.2l65.5-0.1c0.6,0,1,0.4,1,1l0,0v8.7v3.3c0,0.4,0,0.8-0.1,1.2
	c-0.5,3.4-3,6.1-6.3,6.9c-0.4,0.1-0.8,0.2-1.2,0.2h-0.6h-11.4H582l-69.5-0.2l-69.5-0.3l-69.5-0.4L443,383l69.5-0.3l69.5-0.2h34.8
	h11.4h0.5c0.3,0,0.6-0.1,0.9-0.1c2.5-0.6,4.4-2.7,4.8-5.2c0-0.3,0.1-0.7,0.1-1v-3.4v-8.7l1,1l-65.5-0.1l-65.5-0.2l-65.5-0.3
	L373.5,364.1z"/>
<path class="st11" d="M275.3,369.8h94c2.3,0,4.2-1.9,4.2-4.2v-1.4H271.1v1.4C271.1,367.9,273,369.7,275.3,369.8z"/>
<rect x="189.5" y="177.5" class="st5" width="21.1" height="21.1"/>
<rect x="189.5" y="285" class="st5" width="21.1" height="21.1"/>
<polyline class="st12" points="325.6,230.7 331.4,236 336.8,230.7 "/>
<line class="st13" x1="189.5" y1="261.1" x2="452.1" y2="261.1"/>
<circle class="st4" cx="200.1" cy="183.5" r="3.5"/>
<path class="st4" d="M207.2,196.1c0,0,0.8-5.3-1.6-7.2c-1.4-1-3-1.7-4.7-1.8h-1.4c-1.8,0.1-3.5,0.8-4.9,1.8
	c-2.4,1.9-1.6,7.2-1.6,7.2"/>
<circle class="st4" cx="200.1" cy="291" r="3.5"/>
<path class="st4" d="M207.2,303.6c0,0,0.8-5.3-1.6-7.2c-1.4-1-3-1.7-4.7-1.8h-1.4c-1.8,0.1-3.5,0.8-4.9,1.8
	c-2.4,1.9-1.6,7.2-1.6,7.2"/>
</svg>
