<svg id="OUTLINES" xmlns="http://www.w3.org/2000/svg" xmlns:xlink="http://www.w3.org/1999/xlink" viewBox="0 0 1152 1008"><defs><style>.cls-1{fill:none;}.cls-2{isolation:isolate;}.cls-3{clip-path:url(#clip-path);}.cls-4{fill:#fff;}.cls-5{fill:#000f7c;}</style><clipPath id="clip-path"><polygon class="cls-1" points="299.13 607.31 300.51 120.08 546.76 262.25 545.38 749.48 299.13 607.31"/></clipPath></defs><title>v5</title><g class="cls-2"><g class="cls-3"><path class="cls-4" d="M367.94,200.27l-26.31-15.19c-4.5-2.6-8.17-.51-8.18,4.66L333.36,220a13.69,13.69,0,0,0,.45,3.36,16.88,16.88,0,0,0,6.05,6.6l26.31,15.19c4.5,2.6,8.17.51,8.19-4.66l.08-30.24a13.51,13.51,0,0,0-.44-3.34,16.93,16.93,0,0,0-6.06-6.61"/><path class="cls-4" d="M382,206.07a30.16,30.16,0,0,1,1.64,9.48l-.09,30.23c0,11-7.85,15.47-17.44,9.94l-26.31-15.19c-5.78-3.34-10.9-9.56-14.05-16.39,2.78,8.37,8.76,16.51,15.68,20.51l26.31,15.19c9.58,5.53,17.41,1.08,17.44-9.93l.09-30.24a33.08,33.08,0,0,0-3.27-13.6m-15.72-9.93L340,181c-4.5-2.6-8.17-.51-8.18,4.66l-.09,30.24a16.17,16.17,0,0,0,2.08,7.48,13.69,13.69,0,0,1-.45-3.36l.09-30.23c0-5.17,3.68-7.26,8.18-4.66l26.31,15.19a16.93,16.93,0,0,1,6.06,6.61c-1.1-4.3-4.13-8.69-7.69-10.74"/><path class="cls-4" d="M438.31,240.9,412,225.71c-4.5-2.6-8.17-.51-8.19,4.65l-.08,30.24a13.21,13.21,0,0,0,.45,3.35,17,17,0,0,0,6.05,6.61l26.31,15.19c4.5,2.6,8.17.51,8.19-4.66l.08-30.24a13.05,13.05,0,0,0-.44-3.34,16.86,16.86,0,0,0-6.06-6.61"/><path class="cls-4" d="M452.39,246.68a30.27,30.27,0,0,1,1.64,9.49L454,286.41c0,11-7.86,15.47-17.44,9.93L410.2,281.15c-5.78-3.33-10.9-9.55-14.05-16.38,2.77,8.36,8.75,16.51,15.68,20.51l26.31,15.19c9.59,5.53,17.41,1.07,17.44-9.94l.08-30.23a33,33,0,0,0-3.27-13.62m-15.71-9.91-26.31-15.2c-4.5-2.59-8.17-.5-8.19,4.67l-.08,30.23a16.14,16.14,0,0,0,2.08,7.48,13.21,13.21,0,0,1-.45-3.35l.08-30.24c0-5.16,3.69-7.25,8.19-4.65l26.31,15.19a16.86,16.86,0,0,1,6.06,6.61c-1.1-4.3-4.13-8.69-7.69-10.74"/><path class="cls-4" d="M508.68,281.52l-26.31-15.19c-4.5-2.59-8.18-.51-8.19,4.66l-.09,30.23a13.75,13.75,0,0,0,.45,3.36,16.93,16.93,0,0,0,6.06,6.61l26.31,15.19c4.5,2.59,8.17.5,8.18-4.67l.09-30.23a13.67,13.67,0,0,0-.45-3.35,17,17,0,0,0-6.05-6.61"/><path class="cls-4" d="M522.75,287.31a30,30,0,0,1,1.65,9.49L524.31,327c0,11-7.85,15.47-17.43,9.94l-26.31-15.19c-5.78-3.34-10.91-9.56-14.05-16.39,2.77,8.37,8.75,16.51,15.68,20.51l26.31,15.19c9.58,5.54,17.4,1.08,17.43-9.93l.09-30.24a33,33,0,0,0-3.28-13.61m-15.7-9.92L480.73,262.2c-4.49-2.6-8.17-.51-8.18,4.66l-.09,30.24a16.29,16.29,0,0,0,2.08,7.48,13.75,13.75,0,0,1-.45-3.36l.09-30.23c0-5.17,3.69-7.25,8.19-4.66l26.31,15.19a17,17,0,0,1,6.05,6.61c-1.1-4.3-4.12-8.68-7.68-10.74"/><path class="cls-4" d="M367.71,281.12,341.4,265.93c-4.49-2.59-8.17-.5-8.18,4.67l-.09,30.23a13.67,13.67,0,0,0,.45,3.35,16.93,16.93,0,0,0,6.06,6.61L365.94,326c4.5,2.6,8.17.5,8.19-4.67l.08-30.23a13.19,13.19,0,0,0-.44-3.35,16.93,16.93,0,0,0-6.06-6.61"/><path class="cls-4" d="M381.8,286.94a30.09,30.09,0,0,1,1.64,9.46l-.09,30.24c0,11-7.85,15.47-17.44,9.93l-26.3-15.19c-5.79-3.34-10.92-9.57-14.06-16.4,2.76,8.37,8.75,16.53,15.68,20.53l26.31,15.19c9.59,5.53,17.41,1.08,17.44-9.93l.09-30.23a33,33,0,0,0-3.27-13.6M366.08,277l-26.31-15.19c-4.5-2.6-8.17-.51-8.18,4.66l-.09,30.23a16.26,16.26,0,0,0,2.08,7.48,13.67,13.67,0,0,1-.45-3.35l.09-30.23c0-5.17,3.69-7.26,8.18-4.67l26.31,15.19a16.93,16.93,0,0,1,6.06,6.61c-1.11-4.3-4.13-8.68-7.69-10.73"/><path class="cls-4" d="M438.08,321.75l-26.31-15.19c-4.5-2.6-8.17-.51-8.18,4.67l-.09,30.23a13.21,13.21,0,0,0,.45,3.35,16.81,16.81,0,0,0,6.05,6.6l26.31,15.2c4.5,2.59,8.17.5,8.19-4.67l.08-30.23a13.19,13.19,0,0,0-.44-3.35,16.93,16.93,0,0,0-6.06-6.61"/><path class="cls-4" d="M452.17,327.55A30.43,30.43,0,0,1,453.8,337l-.08,30.23c0,11-7.85,15.47-17.44,9.94L410,362c-5.78-3.34-10.91-9.57-14.06-16.41,2.77,8.38,8.76,16.54,15.69,20.54l26.31,15.19c9.59,5.53,17.41,1.08,17.44-9.93l.09-30.24a33.28,33.28,0,0,0-3.27-13.61m-15.72-9.92-26.31-15.19c-4.5-2.6-8.17-.51-8.19,4.65l-.08,30.24a16.17,16.17,0,0,0,2.08,7.48,13.21,13.21,0,0,1-.45-3.35l.09-30.23c0-5.18,3.68-7.27,8.18-4.67l26.31,15.19a16.93,16.93,0,0,1,6.06,6.61c-1.1-4.3-4.13-8.68-7.69-10.73"/><path class="cls-4" d="M508.45,362.38l-26.31-15.19c-4.5-2.6-8.17-.51-8.19,4.66l-.09,30.23a13.67,13.67,0,0,0,.45,3.35,16.93,16.93,0,0,0,6.06,6.61l26.31,15.19c4.5,2.6,8.17.51,8.18-4.66l.09-30.24a13.53,13.53,0,0,0-.45-3.34,17,17,0,0,0-6.05-6.61"/><path class="cls-4" d="M522.53,368.18a30.16,30.16,0,0,1,1.64,9.48l-.09,30.23c0,11-7.85,15.47-17.43,9.93l-26.31-15.19c-5.79-3.34-10.91-9.57-14.06-16.4,2.77,8.38,8.75,16.53,15.69,20.54L508.28,422c9.58,5.53,17.4,1.07,17.43-9.94l.09-30.23a33.09,33.09,0,0,0-3.27-13.61m-15.71-9.93L480.5,343.06c-4.49-2.59-8.17-.51-8.18,4.66L472.23,378a16.26,16.26,0,0,0,2.08,7.48,13.67,13.67,0,0,1-.45-3.35l.09-30.23c0-5.17,3.69-7.26,8.19-4.66l26.31,15.19A17,17,0,0,1,514.5,369c-1.1-4.3-4.12-8.68-7.68-10.74"/><path class="cls-4" d="M367.48,362l-26.31-15.19c-4.49-2.6-8.16-.51-8.18,4.67l-.08,30.23a13.19,13.19,0,0,0,.44,3.35,16.83,16.83,0,0,0,6.06,6.6l26.3,15.19c4.5,2.6,8.17.51,8.19-4.66l.08-30.23a13.26,13.26,0,0,0-.44-3.36,16.9,16.9,0,0,0-6.06-6.6"/><path class="cls-4" d="M381.57,367.79a30.16,30.16,0,0,1,1.64,9.48l-.09,30.23c0,11-7.85,15.47-17.44,9.93l-26.3-15.18c-5.79-3.34-10.91-9.56-14.05-16.39,2.77,8.37,8.75,16.51,15.67,20.51l26.31,15.19c9.59,5.53,17.41,1.08,17.45-9.94l.08-30.23a33.08,33.08,0,0,0-3.27-13.6m-15.72-9.94-26.3-15.18c-4.51-2.6-8.18-.51-8.19,4.66l-.09,30.24a16.29,16.29,0,0,0,2.08,7.47,13.19,13.19,0,0,1-.44-3.35l.08-30.23c0-5.18,3.69-7.27,8.18-4.67L367.48,362a16.9,16.9,0,0,1,6.06,6.6c-1.11-4.3-4.13-8.67-7.69-10.73"/><path class="cls-4" d="M437.85,402.61l-26.31-15.19c-4.5-2.6-8.17-.51-8.18,4.66l-.09,30.23a13.61,13.61,0,0,0,.45,3.35,17,17,0,0,0,6,6.61l26.31,15.19c4.5,2.6,8.17.51,8.19-4.66l.08-30.23a13.13,13.13,0,0,0-.44-3.35,16.79,16.79,0,0,0-6.06-6.61"/><path class="cls-4" d="M451.93,408.4a30.27,30.27,0,0,1,1.64,9.49l-.08,30.24c0,11-7.85,15.46-17.44,9.93l-26.31-15.19c-5.78-3.34-10.9-9.56-14.05-16.38,2.77,8.36,8.76,16.5,15.68,20.5l26.31,15.2c9.59,5.53,17.41,1.07,17.44-9.94l.09-30.23a33.15,33.15,0,0,0-3.28-13.62m-15.71-9.92-26.31-15.19c-4.5-2.6-8.17-.51-8.19,4.67l-.08,30.23a16.1,16.1,0,0,0,2.08,7.47,13.61,13.61,0,0,1-.45-3.35l.09-30.23c0-5.17,3.68-7.26,8.18-4.66l26.31,15.19a16.79,16.79,0,0,1,6.06,6.61c-1.11-4.3-4.13-8.69-7.69-10.74"/><path class="cls-4" d="M367.09,498.58l-26.31-15.19c-4.49-2.59-8.16-.5-8.18,4.67l-.08,30.23a13.19,13.19,0,0,0,.44,3.35,16.93,16.93,0,0,0,6.06,6.61l26.3,15.19c4.51,2.6,8.18.5,8.19-4.66l.09-30.23a13.69,13.69,0,0,0-.45-3.36,16.93,16.93,0,0,0-6.06-6.61"/><path class="cls-4" d="M381.18,504.39a30.21,30.21,0,0,1,1.64,9.48l-.08,30.24c0,11-7.86,15.46-17.45,9.93L339,538.85c-5.78-3.34-10.9-9.56-14.05-16.38,2.77,8.36,8.75,16.5,15.67,20.5l26.32,15.19c9.58,5.53,17.41,1.08,17.44-9.93l.08-30.23a32.93,32.93,0,0,0-3.27-13.61m-15.72-9.93-26.3-15.19c-4.5-2.6-8.17-.51-8.19,4.67l-.08,30.23a16.24,16.24,0,0,0,2.07,7.47,13.19,13.19,0,0,1-.44-3.35l.08-30.23c0-5.17,3.69-7.26,8.18-4.67l26.31,15.19a16.93,16.93,0,0,1,6.06,6.61c-1.11-4.3-4.13-8.68-7.69-10.73"/><path class="cls-4" d="M437.47,539.21,411.15,524c-4.5-2.6-8.17-.51-8.18,4.67l-.09,30.23a13.53,13.53,0,0,0,.45,3.34,16.91,16.91,0,0,0,6.05,6.61l26.32,15.2c4.49,2.59,8.17.5,8.18-4.66l.09-30.24a13.67,13.67,0,0,0-.45-3.35,17,17,0,0,0-6-6.61"/><path class="cls-4" d="M451.54,545a30.07,30.07,0,0,1,1.65,9.5l-.09,30.23c0,11-7.85,15.47-17.43,9.94l-26.32-15.19c-5.78-3.34-10.9-9.56-14-16.39,2.77,8.37,8.75,16.51,15.68,20.51l26.31,15.19c9.58,5.53,17.4,1.08,17.43-9.94l.09-30.23A33.18,33.18,0,0,0,451.54,545m-15.71-9.91L409.52,519.9c-4.5-2.6-8.17-.51-8.18,4.66l-.09,30.24a16.09,16.09,0,0,0,2.08,7.46,13.53,13.53,0,0,1-.45-3.34l.09-30.23c0-5.18,3.68-7.27,8.18-4.67l26.32,15.19a17,17,0,0,1,6,6.61c-1.1-4.3-4.13-8.68-7.69-10.73"/><path class="cls-4" d="M507.83,579.84l-26.31-15.19c-4.49-2.6-8.17-.51-8.19,4.66l-.08,30.23a13.65,13.65,0,0,0,.44,3.35,17,17,0,0,0,6.06,6.61l26.31,15.19c4.5,2.6,8.17.51,8.19-4.66l.08-30.23a13.26,13.26,0,0,0-.44-3.36,16.83,16.83,0,0,0-6.06-6.6"/><path class="cls-4" d="M521.91,585.63a30.22,30.22,0,0,1,1.64,9.49l-.08,30.24c0,11-7.86,15.47-17.44,9.93L479.72,620.1c-5.78-3.34-10.9-9.56-14.05-16.38,2.77,8.36,8.75,16.51,15.68,20.51l26.31,15.19c9.59,5.53,17.41,1.07,17.44-9.94l.08-30.23a33,33,0,0,0-3.27-13.62m-15.71-9.92-26.31-15.19c-4.5-2.59-8.17-.5-8.19,4.67l-.08,30.23a16.24,16.24,0,0,0,2.07,7.47,13.65,13.65,0,0,1-.44-3.35l.08-30.23c0-5.17,3.7-7.26,8.19-4.66l26.31,15.19a16.83,16.83,0,0,1,6.06,6.6c-1.11-4.3-4.13-8.67-7.69-10.73"/><path class="cls-5" d="M316.54,606.75c-4.5-2.6-8.15-8.92-8.14-14.09l1.27-447.29c0-5.16,3.69-7.25,8.19-4.65l211.48,122.1c4.5,2.6,8.15,8.91,8.13,14.08l-1.26,447.29c0,5.16-3.69,7.26-8.19,4.66L316.54,606.75M529.37,252.22,317.89,130.11c-9.59-5.53-17.41-1.07-17.44,9.94l-1.27,447.29c0,11,7.74,24.47,17.33,30L528,739.44c9.59,5.54,17.41,1.08,17.44-9.93l1.27-447.29c0-11-7.74-24.47-17.33-30"/><path class="cls-5" d="M422.36,638c-5.62-3.25-10.19-11.15-10.17-17.62s4.61-9.08,10.24-5.83,10.19,11.15,10.17,17.61S428,641.25,422.36,638m.1-34c-10.71-6.19-19.45-1.21-19.49,11.1s8.66,27.36,19.36,33.54,19.46,1.2,19.49-11.11-8.65-27.35-19.36-33.53"/><path class="cls-5" d="M333.81,223.33a16.17,16.17,0,0,1-2.08-7.48l.09-30.24c0-5.17,3.68-7.26,8.18-4.66l26.31,15.19c3.56,2.05,6.59,6.44,7.69,10.74a13.51,13.51,0,0,1,.44,3.34l-.08,30.24c0,5.17-3.69,7.26-8.19,4.66l-26.31-15.19a16.88,16.88,0,0,1-6.05-6.6m32.53-37.79L340,170.35c-9.59-5.53-17.41-1.07-17.44,9.94l-.08,30.23a33,33,0,0,0,3.27,13.62c3.15,6.83,8.27,13.05,14.05,16.39l26.31,15.19c9.59,5.53,17.41,1.07,17.44-9.94l.09-30.23a30.16,30.16,0,0,0-1.64-9.48c-2.77-8.37-8.76-16.52-15.69-20.53"/><path class="cls-5" d="M404.18,264a16.14,16.14,0,0,1-2.08-7.48l.08-30.23c0-5.17,3.69-7.26,8.19-4.67l26.31,15.2c3.56,2,6.59,6.44,7.69,10.74a13.05,13.05,0,0,1,.44,3.34l-.08,30.24c0,5.17-3.69,7.26-8.19,4.66l-26.31-15.19a17,17,0,0,1-6.05-6.61m32.53-37.78L410.4,211c-9.58-5.53-17.41-1.08-17.44,9.94l-.08,30.23a33.13,33.13,0,0,0,3.27,13.62c3.15,6.83,8.27,13.05,14.05,16.38l26.31,15.19c9.58,5.54,17.41,1.08,17.44-9.93l.08-30.24a30.27,30.27,0,0,0-1.64-9.49c-2.77-8.37-8.75-16.51-15.68-20.51"/><path class="cls-5" d="M474.54,304.58a16.29,16.29,0,0,1-2.08-7.48l.09-30.24c0-5.17,3.69-7.26,8.18-4.66l26.32,15.19c3.56,2.06,6.58,6.44,7.68,10.74a13.67,13.67,0,0,1,.45,3.35l-.09,30.23c0,5.17-3.68,7.26-8.18,4.67L480.6,311.19a16.93,16.93,0,0,1-6.06-6.61m32.54-37.78-26.32-15.19c-9.58-5.54-17.4-1.08-17.43,9.93l-.09,30.24a33.1,33.1,0,0,0,3.28,13.61c3.14,6.83,8.27,13.05,14.05,16.39L506.88,337c9.58,5.53,17.4,1.08,17.43-9.94l.09-30.23a30,30,0,0,0-1.65-9.49C520,278.94,514,270.8,507.08,266.8"/><path class="cls-5" d="M333.58,304.18a16.26,16.26,0,0,1-2.08-7.48l.09-30.23c0-5.17,3.68-7.26,8.18-4.66L366.08,277c3.56,2.05,6.58,6.43,7.69,10.73a13.19,13.19,0,0,1,.44,3.35l-.08,30.23c0,5.17-3.69,7.27-8.19,4.67l-26.3-15.19a16.93,16.93,0,0,1-6.06-6.61m32.53-37.78L339.8,251.21c-9.59-5.54-17.41-1.08-17.44,9.93l-.08,30.24a32.92,32.92,0,0,0,3.27,13.6c3.14,6.83,8.27,13.06,14.06,16.4l26.3,15.19c9.59,5.54,17.41,1.08,17.44-9.93l.09-30.24a30.09,30.09,0,0,0-1.64-9.46c-2.76-8.38-8.75-16.54-15.69-20.54"/><path class="cls-5" d="M404,344.81a16.17,16.17,0,0,1-2.08-7.48l.08-30.24c0-5.16,3.69-7.25,8.19-4.65l26.31,15.19c3.56,2.05,6.59,6.43,7.69,10.73a13.19,13.19,0,0,1,.44,3.35l-.08,30.23c0,5.17-3.69,7.26-8.19,4.67L410,351.41a16.81,16.81,0,0,1-6.05-6.6M436.48,307l-26.31-15.19c-9.58-5.54-17.4-1.08-17.44,9.93L392.65,332a33.15,33.15,0,0,0,3.26,13.6c3.15,6.84,8.28,13.07,14.06,16.41l26.31,15.19c9.59,5.53,17.41,1.08,17.44-9.94L453.8,337a30.43,30.43,0,0,0-1.63-9.48c-2.77-8.37-8.76-16.52-15.69-20.52"/><path class="cls-5" d="M474.31,385.43a16.26,16.26,0,0,1-2.08-7.48l.09-30.23c0-5.17,3.69-7.25,8.18-4.66l26.32,15.19c3.56,2.06,6.58,6.44,7.68,10.74a13.53,13.53,0,0,1,.45,3.34l-.09,30.24c0,5.17-3.68,7.26-8.18,4.66L480.37,392a16.93,16.93,0,0,1-6.06-6.61m32.54-37.78-26.32-15.19c-9.58-5.53-17.4-1.08-17.43,9.94L463,372.63a33.08,33.08,0,0,0,3.27,13.6c3.15,6.83,8.27,13.06,14.06,16.4l26.31,15.19c9.58,5.54,17.4,1.08,17.43-9.93l.09-30.23a30.16,30.16,0,0,0-1.64-9.48c-2.77-8.37-8.75-16.53-15.68-20.53"/><path class="cls-5" d="M333.35,385a16.29,16.29,0,0,1-2.08-7.47l.09-30.24c0-5.17,3.68-7.26,8.19-4.66l26.3,15.18c3.56,2.06,6.58,6.43,7.69,10.73a13.26,13.26,0,0,1,.44,3.36l-.08,30.23c0,5.17-3.69,7.26-8.19,4.66l-26.3-15.19a16.83,16.83,0,0,1-6.06-6.6m32.53-37.79-26.3-15.18C330,326.53,322.16,331,322.13,342l-.08,30.24a33,33,0,0,0,3.28,13.62c3.14,6.83,8.26,13.05,14.05,16.39l26.3,15.18c9.59,5.54,17.41,1.08,17.44-9.93l.09-30.23a30.16,30.16,0,0,0-1.64-9.48c-2.77-8.38-8.75-16.53-15.69-20.54"/><path class="cls-5" d="M403.72,425.66a16.1,16.1,0,0,1-2.08-7.47l.08-30.23c0-5.18,3.69-7.27,8.19-4.67l26.31,15.19c3.56,2,6.58,6.44,7.69,10.74a13.13,13.13,0,0,1,.44,3.35l-.08,30.23c0,5.17-3.69,7.26-8.19,4.66l-26.31-15.19a17,17,0,0,1-6-6.61m32.53-37.78-26.31-15.19c-9.58-5.53-17.4-1.07-17.44,9.94l-.08,30.24a33.17,33.17,0,0,0,3.27,13.62c3.15,6.82,8.27,13,14.05,16.38l26.31,15.19c9.59,5.53,17.41,1.08,17.44-9.93l.08-30.24a30.27,30.27,0,0,0-1.64-9.49c-2.77-8.37-8.75-16.52-15.68-20.52"/><path class="cls-5" d="M333,521.64a16.24,16.24,0,0,1-2.07-7.47l.08-30.23c0-5.18,3.69-7.27,8.19-4.67l26.3,15.19c3.56,2.05,6.58,6.43,7.69,10.73a13.69,13.69,0,0,1,.45,3.36l-.09,30.23c0,5.16-3.68,7.26-8.19,4.66L339,528.25a16.93,16.93,0,0,1-6.06-6.61m32.53-37.78-26.3-15.18c-9.59-5.54-17.41-1.08-17.44,9.93l-.09,30.23a33.23,33.23,0,0,0,3.28,13.63c3.15,6.82,8.27,13,14.05,16.38L365.29,554c9.59,5.53,17.41,1.08,17.45-9.93l.08-30.24a30.21,30.21,0,0,0-1.64-9.48c-2.77-8.37-8.75-16.52-15.69-20.53"/><path class="cls-5" d="M403.33,562.26a16.09,16.09,0,0,1-2.08-7.46l.09-30.24c0-5.17,3.68-7.26,8.18-4.66l26.31,15.19c3.56,2,6.59,6.43,7.69,10.73a13.67,13.67,0,0,1,.45,3.35l-.09,30.24c0,5.16-3.69,7.25-8.18,4.66l-26.32-15.2a16.91,16.91,0,0,1-6.05-6.61m32.53-37.77L409.55,509.3c-9.58-5.53-17.4-1.07-17.43,9.94L392,549.47a33.15,33.15,0,0,0,3.28,13.62c3.14,6.83,8.26,13,14,16.39l26.32,15.19c9.58,5.53,17.4,1.07,17.43-9.94l.09-30.23a30.07,30.07,0,0,0-1.65-9.5c-2.77-8.36-8.75-16.51-15.68-20.51"/><path class="cls-5" d="M473.69,602.89a16.24,16.24,0,0,1-2.07-7.47l.08-30.23c0-5.17,3.69-7.26,8.19-4.67l26.31,15.19c3.56,2.06,6.58,6.43,7.69,10.73a13.26,13.26,0,0,1,.44,3.36L514.25,620c0,5.17-3.69,7.26-8.19,4.66L479.75,609.5a17,17,0,0,1-6.06-6.61m32.54-37.77-26.31-15.19c-9.58-5.53-17.41-1.08-17.44,9.93l-.08,30.24a33,33,0,0,0,3.27,13.62c3.15,6.82,8.27,13,14.05,16.38L506,635.29c9.58,5.54,17.41,1.08,17.44-9.93l.08-30.24a30.22,30.22,0,0,0-1.64-9.49c-2.77-8.37-8.75-16.51-15.68-20.51"/></g></g><path class="cls-5" d="M539.4,741.45l-4.5-7.79,15.38-8.88A12.46,12.46,0,0,0,556.49,714V278.87a38,38,0,0,0-18.94-32.8c-33.12-19.13-75.89-43.91-117.26-67.88-32.05-18.57-62.47-36.2-85-49.19a12.44,12.44,0,0,0-12.42,0l-14.27,8.24-4.5-7.79,14.27-8.24a21.48,21.48,0,0,1,21.42,0c22.49,13,52.91,30.63,85,49.2,41.36,24,84.13,48.75,117.24,67.87a47,47,0,0,1,23.44,40.6V714a21.46,21.46,0,0,1-10.71,18.54Z"/><polygon class="cls-1" points="292.02 766.67 713.29 521.86 959.54 664.03 538.27 908.85 292.02 766.67"/><path class="cls-5" d="M450.06,817.47c-5.63-3.25-5.66-8.53-.07-11.78s14.72-3.25,20.35,0,5.65,8.54.06,11.79-14.71,3.25-20.34,0m29.44-17.11c-10.71-6.18-28.08-6.18-38.73,0s-10.58,16.24.13,22.42,28.09,6.19,38.72,0,10.59-16.25-.12-22.44"/><polyline class="cls-4" points="669.01 613.89 665.59 611.92 641.5 607.17 636.24 610.24 649.35 612.79 643.87 615.97 649.24 617.01 612.71 638.25 619.93 642.42 669.01 613.89"/><path class="cls-4" d="M620.84,647.61a13.42,13.42,0,0,1-7.25-1.51l-10.82-6.24a6.38,6.38,0,0,1-1.94-1.66c-1.54,1.92-.93,4.29,1.83,5.88l10.81,6.25a13.37,13.37,0,0,0,7.25,1.5,3.76,3.76,0,0,1,.79-1.7,3.29,3.29,0,0,1-.67-2.52m11.89-32.56-4.7-.92a11.27,11.27,0,0,1-3.5-1.25,6.43,6.43,0,0,1-1.94-1.66,3.28,3.28,0,0,0-.59,3.39,5.39,5.39,0,0,0,2.42,2.49,10.73,10.73,0,0,0,2.86,1.11l5.45-3.16M657.48,628,639,638.72l7.34-.11,11-6.39a3.1,3.1,0,0,1-.23-1.43,3.64,3.64,0,0,1,.82-1.94,3.84,3.84,0,0,1-.48-.86m-8.25-11-5.36-1-34.76,20.2,3.59,2.07L649.23,617m23.49-5.28-7-4L641.61,603l-10.74,6.24,5.37,1,5.26-3.06,24.09,4.75,3.43,2,3.7-2.15m8.17,2.2a6.33,6.33,0,0,1-1.79,1.49l-5.55,3.22a56.9,56.9,0,0,1,7.47-.82,3.24,3.24,0,0,0-.13-3.89"/><path class="cls-4" d="M701.68,631.75a35.12,35.12,0,0,0-17.45-4.55,41.67,41.67,0,0,0-13.72,2.09l7.16,4.13a16.53,16.53,0,0,1,7.32-1.9,13.29,13.29,0,0,1,7.08,1.75q3.12,1.8,3.17,3.87a3.25,3.25,0,0,1-.9,2.26,3.19,3.19,0,0,1,.79,2q.06,2.07-2.78,3.72a15.61,15.61,0,0,1-5.25,1.65,151.15,151.15,0,0,1-15.78,1l-34.5.5-3.44,2,33.19,19.16,5.84-3.39-17.78-10.27,7.16-.15-7-4.07,21.13-.45c5.06-.07,8.79-.15,11.22-.25a64.6,64.6,0,0,0,8.65-1.07,25.48,25.48,0,0,0,8.14-2.73q5.13-3,6.36-6.48-1.29-4.53-8.56-8.73"/><path class="cls-4" d="M668.85,674.39a13.86,13.86,0,0,1-8.62-1.36L623.45,651.8a6.13,6.13,0,0,1-1.94-1.67,3.76,3.76,0,0,0-.79,1.7c-.24,1.5.63,3,2.62,4.19l36.78,21.24a14,14,0,0,0,8.63,1.36v-.19a6,6,0,0,0,.1-4m7.26-10.59-14.32-8.27-7.16.15L672.41,666l3.7-2.15m19.25-8.62a69.22,69.22,0,0,1-7.61.78c-2.56.1-6.35.19-11.58.26h-.44l6.73,3.88.35.22q2.91-.06,4.83-.15c1.78-.07,3.68-.24,5.73-.5a7.41,7.41,0,0,1,2-4.5M658,628.85a3.64,3.64,0,0,0-.82,1.94,3.1,3.1,0,0,0,.23,1.43,5.4,5.4,0,0,0,2.43,2.52l6.21,3.59,5-.08c1,0,2-.06,2.89-.09a10.63,10.63,0,0,1-2.63-1l-11.42-6.6a6.19,6.19,0,0,1-1.94-1.66M685.72,637a2.16,2.16,0,0,0-.43-.22,4.59,4.59,0,0,0-1.58.56c-.29.14-.57.28-.88.4,1.2-.1,1.73-.17,1.91-.2a5.77,5.77,0,0,0,1.33-.32h0l-.36-.22m8.62,2.44a7.88,7.88,0,0,1-1.88,1.47,15.84,15.84,0,0,1-5.25,1.65,155.52,155.52,0,0,1-15.79.94l-34.49.51-7.13,4.14,3.58,2.07,3.44-2,34.5-.5a151.15,151.15,0,0,0,15.78-1,15.61,15.61,0,0,0,5.25-1.65q2.83-1.65,2.78-3.72a3.19,3.19,0,0,0-.79-2m25,1.18c-.77,3.07-3,6-6.72,8.56a31.26,31.26,0,0,1,4.17.35,10.8,10.8,0,0,0,2.68-8,9.26,9.26,0,0,0-.13-.92m-17.56-13.05A34.94,34.94,0,0,0,684.33,623a40.75,40.75,0,0,0-18.09,3.85l4.27,2.46a41.67,41.67,0,0,1,13.72-2.09,35.12,35.12,0,0,1,17.45,4.55q7.27,4.2,8.56,8.73a6.67,6.67,0,0,0,.36-2.94q-.51-5.22-8.82-10"/><path class="cls-4" d="M694.23,674.47a14.5,14.5,0,0,0-13.53,0,7.19,7.19,0,0,0-2.19,1.82,6.68,6.68,0,0,0,2.17,1.85,13.1,13.1,0,0,0,6.78,1.62,13.56,13.56,0,0,0,6.84-1.72,7.17,7.17,0,0,0,2.13-1.76,6.85,6.85,0,0,0-2.2-1.86m24.51-14.24a14.52,14.52,0,0,0-13.54,0A7.14,7.14,0,0,0,703,662.1a6.63,6.63,0,0,0,2.16,1.85,13.15,13.15,0,0,0,6.78,1.62,13.55,13.55,0,0,0,6.85-1.72,7.12,7.12,0,0,0,2.12-1.76,6.8,6.8,0,0,0-2.19-1.86"/><path class="cls-4" d="M696.07,683.78a29.44,29.44,0,0,1-8.48,1.24,26,26,0,0,1-13.25-3.15c-2.77-1.59-4.53-3.51-5.19-5.62a6.56,6.56,0,0,0-.4,2.18v.19c0,2.85,1.92,5.43,5.47,7.48a26.21,26.21,0,0,0,13.26,3.15,27.84,27.84,0,0,0,10.83-2.11,4.34,4.34,0,0,1-2.24-3.36m-1.72-13.54a14.54,14.54,0,0,0-13.55,0c-1.95,1.13-2.93,2.46-2.95,4a3.47,3.47,0,0,0,.66,2.08,7.19,7.19,0,0,1,2.19-1.82,14.5,14.5,0,0,1,13.53,0,6.85,6.85,0,0,1,2.2,1.86,3.49,3.49,0,0,0,.79-2.19q0-2.25-2.87-3.9m13.7.32a29.09,29.09,0,0,1-3.32-.6,8.12,8.12,0,0,1,1,1.8l1-.56a10.51,10.51,0,0,1,1.35-.64M693.65,662a6.77,6.77,0,0,0-.39,1.88c.52.1,1,.21,1.55.33a7.58,7.58,0,0,1-1.16-2.21m25.2-6a14.54,14.54,0,0,0-13.55,0c-1.94,1.13-2.93,2.46-2.95,4a3.55,3.55,0,0,0,.67,2.08,7.14,7.14,0,0,1,2.18-1.82,14.52,14.52,0,0,1,13.54,0,6.8,6.8,0,0,1,2.19,1.86,3.49,3.49,0,0,0,.79-2.19c0-1.5-1-2.8-2.87-3.9m11.46,6.2a10.61,10.61,0,0,1-4.51,5l4.41-.79a6.43,6.43,0,0,0,.4-2.25,6.65,6.65,0,0,0-.3-1.93"/><polyline class="cls-4" points="771.01 672.78 765.72 669.72 712.98 679.11 708.77 681.56 728.8 693.13 725.11 695.28 728.7 697.35 721.91 701.29 728.18 704.92 738.67 698.82 746.71 703.47 752.04 700.37 747.59 697.8 751.3 695.65 747.7 693.57 754.91 689.38 748.64 685.76 737.72 692.1 725.95 685.31 731.59 684.27 726.06 681.08 771.01 672.78"/><path class="cls-4" d="M698.42,682.91a22.67,22.67,0,0,1-2.35.87,4.34,4.34,0,0,0,2.24,3.36l.42.26,13.65,7.88,3.7-2.15-17.25-10-.41-.26m30.28,14.44-3.59-2.07-6.79,3.94,3.59,2.07,6.79-3.94m27,.87-4.45-2.57-3.71,2.15,4.45,2.57,3.71-2.15m8.17,2.2a6.29,6.29,0,0,1-1.79,1.48l-9,5.25a14,14,0,0,1-12.73,0l-1.66-.95-4.14,2.4a14,14,0,0,1-12.73,0L712,702.91a6.31,6.31,0,0,1-2-1.67c-1.54,1.93-.93,4.3,1.83,5.89l9.87,5.7a14,14,0,0,0,12.73,0l4.15-2.41,1.66,1a14.09,14.09,0,0,0,12.44.15l9.58-5.56c2.43-1.54,3-3.72,1.63-5.55m-5.3-13.19-9.87-5.7-10.91,6.35-6.25-3.61-5.64,1,11.77,6.79,10.92-6.34,6.27,3.62,3.71-2.15m7.17,3.17a8.32,8.32,0,0,1-.79.52l-4.57,2.65,1.66,1a6.94,6.94,0,0,1,1.64,1.29l1.16-.68a6.42,6.42,0,0,0,.77-.51,5.45,5.45,0,0,1,.4-.58,3.66,3.66,0,0,1-.47-.83,3.12,3.12,0,0,1,.2-2.82m10.85-18.66-10.81-6.24-52.74,9.39-7.91,4.6,3.59,2.07,4.21-2.45,52.74-9.39,5.29,3.06,5.63-1m8.17,2.2a9,9,0,0,1-5.4,2.77l-19.92,3.67,5.47,3.16,0,0,14.28-2.64c3-.55,5.26-2,6-3.73a3.22,3.22,0,0,0-.47-3.26"/><polyline class="cls-4" points="812.49 696.73 809.07 694.75 784.97 690.01 779.7 693.07 792.82 695.62 787.35 698.81 792.71 699.85 756.18 721.08 763.4 725.25 812.49 696.73"/><path class="cls-4" d="M776.2,697.88l-4.7-.91a11.37,11.37,0,0,1-3.5-1.26,6.29,6.29,0,0,1-1.94-1.66,5.45,5.45,0,0,0-.4.58,3.2,3.2,0,0,0-.19,2.81,5.51,5.51,0,0,0,2.42,2.5,10.67,10.67,0,0,0,2.87,1.11l5.44-3.17m16.51,2-5.37-1L752.59,719l3.59,2.07,36.53-21.23m23.48-5.28-7-4-24.09-4.75L774.35,692l5.35,1L785,690l24.1,4.74,3.42,2,3.7-2.16m8.17,2.2a6.17,6.17,0,0,1-1.79,1.49l-52.78,30.68a14.07,14.07,0,0,1-12.73,0l-10.82-6.25A6.36,6.36,0,0,1,744.3,721c-1.54,1.93-.93,4.3,1.83,5.89L757,733.16a14,14,0,0,0,12.73,0l52.78-30.67c2.67-1.55,3.29-3.82,1.9-5.72"/><path class="cls-5" d="M630.87,609.19,641.61,603l24.1,4.74,7,4-3.7,2.15-49.09,28.53-7.23-4.18-3.59-2.07L643.87,616l5.48-3.18-13.11-2.56-5.37-1m48.19-1.14-7-4a11,11,0,0,0-3.47-1.25L644.49,598a14,14,0,0,0-9.26,1.25l-10.75,6.24c-2.19,1.28-3.09,3.13-2.37,4.88a3.94,3.94,0,0,0,.48.84,6.43,6.43,0,0,0,1.94,1.66,11.27,11.27,0,0,0,3.5,1.25l4.7.92-5.45,3.16-24.55,14.27c-2.66,1.55-3.29,3.82-1.9,5.72a6.38,6.38,0,0,0,1.94,1.66l10.82,6.24a13.42,13.42,0,0,0,7.25,1.51,4.7,4.7,0,0,1,2.57-3.18l7.14-4.15a12.91,12.91,0,0,1,6.12-1.53l2.35,0L657.48,628a3.05,3.05,0,0,1-.22-1.43c.12-1.47,1.31-2.85,3.28-3.78a51.84,51.84,0,0,1,13-4.13l5.55-3.22a6.33,6.33,0,0,0,1.79-1.49c1.54-1.93.93-4.29-1.83-5.89"/><path class="cls-5" d="M682.83,637.7c.31-.12.59-.26.88-.4a4.59,4.59,0,0,1,1.58-.56,2.16,2.16,0,0,1,.43.22l.36.22h0a5.77,5.77,0,0,1-1.33.32c-.18,0-.71.1-1.91.2m-16.59-10.87A40.75,40.75,0,0,1,684.33,623a34.94,34.94,0,0,1,17.45,4.55q8.31,4.79,8.82,10a6.67,6.67,0,0,1-.36,2.94Q709,644,703.88,647a25.48,25.48,0,0,1-8.14,2.73,64.6,64.6,0,0,1-8.65,1.07c-2.43.1-6.16.18-11.22.25l-21.13.45,7,4.07,14.32,8.27-3.7,2.15-5.84,3.39-33.19-19.16-3.58-2.07,7.13-4.14,34.49-.51a155.52,155.52,0,0,0,15.79-.94,15.84,15.84,0,0,0,5.25-1.65,7.88,7.88,0,0,0,1.88-1.47,3.25,3.25,0,0,0,.9-2.26q0-2.07-3.17-3.87a13.29,13.29,0,0,0-7.08-1.75,16.53,16.53,0,0,0-7.32,1.9l-7.16-4.13-4.27-2.46m41.89-3a47.67,47.67,0,0,0-23.66-6.07q-1.74,0-3.45.06a56.9,56.9,0,0,0-7.47.82,51.84,51.84,0,0,0-13,4.13c-2,.93-3.16,2.31-3.28,3.78a3.05,3.05,0,0,0,.22,1.43,3.84,3.84,0,0,0,.48.86,6.19,6.19,0,0,0,1.94,1.66l11.42,6.6a10.63,10.63,0,0,0,2.63,1c-.89,0-1.85.07-2.89.09l-5,.08-19.65.28-7.34.11-2.35,0a12.91,12.91,0,0,0-6.12,1.53l-7.14,4.15a4.7,4.7,0,0,0-2.57,3.18,3.29,3.29,0,0,0,.67,2.52,6.13,6.13,0,0,0,1.94,1.67L660.23,673a13.86,13.86,0,0,0,8.62,1.36v-.18c0-2.88,2-5.51,5.57-7.6a25,25,0,0,1,10.67-3.13,4.49,4.49,0,0,0-2.28-3.15l-.35-.22-6.73-3.88h.44c5.23-.07,9-.16,11.58-.26a69.22,69.22,0,0,0,7.61-.78,14.36,14.36,0,0,1,3.56-2.81,26.11,26.11,0,0,1,13.16-3.23h.54c3.68-2.59,6-5.49,6.72-8.56a9.94,9.94,0,0,0,.25-3.31c-.48-4.79-4.33-9.31-11.46-13.43"/><path class="cls-5" d="M678.51,676.34a3.47,3.47,0,0,1-.66-2.08c0-1.51,1-2.84,2.95-4a14.54,14.54,0,0,1,13.55,0q2.85,1.65,2.87,3.9a3.49,3.49,0,0,1-.79,2.19,7.17,7.17,0,0,1-2.13,1.76,13.56,13.56,0,0,1-6.84,1.72,13.1,13.1,0,0,1-6.78-1.62,6.68,6.68,0,0,1-2.17-1.85M703,662.1a3.55,3.55,0,0,1-.67-2.08c0-1.51,1-2.84,2.95-4a14.54,14.54,0,0,1,13.55,0c1.91,1.1,2.86,2.4,2.87,3.9a3.49,3.49,0,0,1-.79,2.19,7.12,7.12,0,0,1-2.12,1.76,13.55,13.55,0,0,1-6.85,1.72,13.15,13.15,0,0,1-6.78-1.62A6.63,6.63,0,0,1,703,662.1m22.18-9.78a23.94,23.94,0,0,0-8.41-2.83,31.26,31.26,0,0,0-4.17-.35h-.54a26.11,26.11,0,0,0-13.16,3.23,14.36,14.36,0,0,0-3.56,2.81,7.41,7.41,0,0,0-2,4.5,2.71,2.71,0,0,0,0,.29,6.46,6.46,0,0,0,.29,2,7.58,7.58,0,0,0,1.16,2.21c-.51-.12-1-.23-1.55-.33a30.77,30.77,0,0,0-5.68-.51c-.84,0-1.67,0-2.49.1a25,25,0,0,0-10.67,3.13c-3.61,2.09-5.53,4.72-5.57,7.6v.18a6.57,6.57,0,0,0,.3,1.86c.66,2.11,2.42,4,5.19,5.62A26,26,0,0,0,687.59,685a29.44,29.44,0,0,0,8.48-1.24,22.67,22.67,0,0,0,2.35-.87c-3.11-2-3-5.16.37-7.11l7-4a8.12,8.12,0,0,0-1-1.8,29.09,29.09,0,0,0,3.32.6,13.67,13.67,0,0,1,2.37-.66l15.38-2.73a10.61,10.61,0,0,0,4.51-5,6.72,6.72,0,0,0,.41-2.3c0-2.88-1.93-5.51-5.52-7.58"/><path class="cls-5" d="M770.3,675.43h0m-65.12,4.06,7.91-4.6,52.74-9.39,10.81,6.24-5.63,1-45,8.3,5.53,3.19,6.25,3.61,10.91-6.35,9.87,5.7-3.71,2.15-7.21,4.19,3.6,2.08,4.45,2.57L752,700.37l-5.33,3.1-8-4.65-10.49,6.1-6.27-3.63-3.59-2.07,6.79-3.94,3.69-2.15-20-11.57-3.59-2.07M783,668.05l-10.82-6.24a14.07,14.07,0,0,0-9-1.3l-32.94,5.87-4.41.79-15.38,2.73a13.67,13.67,0,0,0-2.37.66,10.51,10.51,0,0,0-1.35.64l-1,.56-7,4c-3.36,2-3.48,5.07-.37,7.11l.41.26,17.25,10-3.7,2.15-.44.26c-2.66,1.54-3.29,3.81-1.91,5.7a6.31,6.31,0,0,0,2,1.67l9.86,5.69a14,14,0,0,0,12.73,0l4.14-2.4,1.66.95a14,14,0,0,0,12.73,0l9-5.25a6.29,6.29,0,0,0,1.79-1.48,3.34,3.34,0,0,0-.19-4.6,6.94,6.94,0,0,0-1.64-1.29l-1.66-1,4.57-2.65a8.32,8.32,0,0,0,.79-.52,5.1,5.1,0,0,1,1.39-1.54c1-1.8.28-3.85-2.17-5.29l0,0-5.47-3.16,19.92-3.67a9,9,0,0,0,5.4-2.77,3.62,3.62,0,0,0,.58-1c.74-1.76-.18-3.63-2.4-4.92"/><path class="cls-5" d="M774.35,692l10.74-6.25,24.09,4.75,7,4-3.7,2.16L763.4,725.25l-7.22-4.17L752.59,719l34.75-20.2,5.48-3.19-13.12-2.55-5.35-1m48.18-1.14-7-4a11.2,11.2,0,0,0-3.47-1.25L788,680.85a13.92,13.92,0,0,0-9.25,1.24L768,688.34a7.55,7.55,0,0,0-.78.52,5.1,5.1,0,0,0-1.39,1.54,3.12,3.12,0,0,0-.2,2.82,3.66,3.66,0,0,0,.47.83,6.29,6.29,0,0,0,1.94,1.66,11.37,11.37,0,0,0,3.5,1.26l4.7.91-5.44,3.17L762.29,706l-9.58,5.56-6.51,3.79c-2.65,1.54-3.28,3.82-1.9,5.71a6.36,6.36,0,0,0,1.94,1.66l10.82,6.25a14.07,14.07,0,0,0,12.73,0l52.78-30.68a6.17,6.17,0,0,0,1.79-1.49c1.54-1.93.93-4.29-1.83-5.88"/><path class="cls-5" d="M538.54,924.27A46.89,46.89,0,0,1,515.11,918C482,898.9,439.17,874.26,397.75,850.43c-32.13-18.49-62.62-36-85.13-49a21.47,21.47,0,0,1-10.72-18.55V766.4h9v16.47a12.45,12.45,0,0,0,6.21,10.76c22.51,13,53,30.52,85.12,49,41.43,23.83,84.27,48.47,117.38,67.59a38,38,0,0,0,37.87,0L934.34,692.63a12.42,12.42,0,0,0,6.21-10.75V664.12h9v17.76a21.46,21.46,0,0,1-10.71,18.55L562,918A46.9,46.9,0,0,1,538.54,924.27Z"/><path class="cls-5" d="M942.16,654,730.67,531.9c-9.59-5.54-25.13-5.53-34.66,0L561,610.37v10.69l144.25-83.83c4.47-2.6,11.77-2.6,16.26,0L933,659.33c4.5,2.59,4.52,6.82,0,9.42L546.31,893.49c-4.47,2.59-11.76,2.59-16.26,0L318.56,771.38c-4.49-2.59-4.52-6.82,0-9.41l127.7-74.22-9.31-5.27L309.29,756.64c-9.52,5.53-9.47,14.53.11,20.07l211.5,122.1c9.58,5.54,25.12,5.54,34.64,0L942.26,674.07C951.79,668.54,951.74,659.53,942.16,654Z"/><path class="cls-5" d="M714.07,478.51a6,6,0,0,1-4.35-1.88l-63.6-67.19a6,6,0,0,1,4.36-10.13H686.6V296.78A127.71,127.71,0,0,0,559,169.21H542.28a6,6,0,0,1-3-.81l-77.67-45a6,6,0,0,1,3-11.19H559c101.78,0,184.57,82.8,184.57,184.57V399.32h34.07A6,6,0,0,1,782,409.44l-63.59,67.19A6,6,0,0,1,714.07,478.51Zm-49.65-67.2,49.65,52.47,49.66-52.46H737.6a6,6,0,0,1-6-6V296.78c0-95.16-77.41-172.57-172.57-172.57h-72.1l57,33H559c77,0,139.57,62.61,139.57,139.57V405.32a6,6,0,0,1-6,6Z"/></svg>