<?xml version="1.0" encoding="utf-8"?>
<!-- Generator: Adobe Illustrator 19.1.0, SVG Export Plug-In . SVG Version: 6.00 Build 0)  -->
<svg version="1.1" id="Layer_1" xmlns="http://www.w3.org/2000/svg" xmlns:xlink="http://www.w3.org/1999/xlink" x="0px" y="0px"
	 viewBox="0 0 708.8 215.2" style="enable-background:new 0 0 708.8 215.2;" xml:space="preserve">
<style type="text/css">
	.st0{fill:#FFFFFF;}
	.st1{fill:none;stroke:#1D1D1B;stroke-width:2;stroke-miterlimit:10;}
	.st2{fill:#F5F6F6;}
	.st3{fill:none;stroke:#1D1D1B;stroke-width:1.1059;stroke-miterlimit:10;}
	.st4{fill:none;}
	.st5{fill:#1D1D1B;}
	.st6{fill:#ECECEC;stroke:#1D1D1B;stroke-width:0.5;stroke-miterlimit:10;}
	.st7{fill:none;stroke:#1D1D1B;stroke-miterlimit:10;}
	
		.st8{fill-rule:evenodd;clip-rule:evenodd;fill:none;stroke:#3A50A2;stroke-width:7.6965;stroke-linecap:round;stroke-miterlimit:10;}
	.st9{fill:#FFFFFF;stroke:#1D1D1B;stroke-miterlimit:10;}
	.st10{fill:none;stroke:#1D1D1B;stroke-width:0.9213;stroke-miterlimit:10;}
	.st11{fill:#3A50A2;}
	.st12{fill:none;stroke:#1D1D1B;stroke-width:0.9076;stroke-miterlimit:10;}
	.st13{fill:#000101;stroke:#000101;stroke-width:0.8322;stroke-miterlimit:10;}
	.st14{fill:none;stroke:#3A50A2;stroke-width:2.5;stroke-linecap:round;stroke-miterlimit:10;}
	.st15{fill:none;stroke:#3A50A2;stroke-linecap:round;stroke-miterlimit:10;}
	.st16{fill:#010101;}
	.st17{fill:none;stroke:#010101;stroke-miterlimit:10;}
</style>
<g>
	
		<image style="overflow:visible;opacity:0.49;" width="998" height="821" xlink:href="9D3584441BB630B.png"  transform="matrix(0.24 0 0 0.24 469.247 0)">
	</image>
	<g>
		<path class="st0" d="M705.2,185.8c0,1.5-1.2,2.7-2.7,2.7H480.5c-1.5,0-2.7-1.2-2.7-2.7V6.2c0-1.5,1.2-2.7,2.7-2.7h222.1
			c1.5,0,2.7,1.2,2.7,2.7V185.8z"/>
		<path class="st1" d="M705.2,185.8c0,1.5-1.2,2.7-2.7,2.7H480.5c-1.5,0-2.7-1.2-2.7-2.7V6.2c0-1.5,1.2-2.7,2.7-2.7h222.1
			c1.5,0,2.7,1.2,2.7,2.7V185.8z"/>
	</g>
</g>
<g>
	
		<image style="overflow:visible;opacity:0.49;" width="1733" height="419" xlink:href="9D3584441BB6309.png"  transform="matrix(0.24 0 0 0.24 0 2.3426)">
	</image>
	<g>
		<path class="st2" d="M413,92.6c0,1.4-1.1,2.5-2.5,2.5H10.1c-1.4,0-2.5-1.1-2.5-2.5V7.7c0-1.4,1.1-2.5,2.5-2.5h400.4
			c1.4,0,2.5,1.1,2.5,2.5V92.6z"/>
		<path class="st3" d="M413,92.6c0,1.4-1.1,2.5-2.5,2.5H10.1c-1.4,0-2.5-1.1-2.5-2.5V7.7c0-1.4,1.1-2.5,2.5-2.5h400.4
			c1.4,0,2.5,1.1,2.5,2.5V92.6z"/>
	</g>
</g>
<g>
	<rect x="505.4" y="46.2" class="st4" width="172.7" height="82.3"/>
	<path class="st5" d="M529.6,52.1v4.1h-1.1v-4.1l-3-5.9h1.1l2.4,4.8l2.3-4.8h1.1L529.6,52.1z"/>
	<path class="st5" d="M537.3,55.5c-0.5,0.5-1.1,0.8-2,0.8s-1.5-0.3-2-0.8c-0.7-0.7-0.8-1.7-0.8-2.7s0.1-2,0.8-2.7
		c0.5-0.5,1.1-0.8,2-0.8s1.5,0.3,2,0.8c0.7,0.7,0.8,1.7,0.8,2.7S538,54.8,537.3,55.5z M536.5,50.6c-0.3-0.3-0.8-0.5-1.3-0.5
		s-0.9,0.2-1.2,0.5c-0.5,0.5-0.6,1.4-0.6,2.1s0.1,1.6,0.6,2.1c0.3,0.3,0.8,0.5,1.2,0.5s0.9-0.2,1.3-0.5c0.5-0.5,0.5-1.4,0.5-2.1
		S537,51.1,536.5,50.6z"/>
	<path class="st5" d="M544.6,56.2v-0.8c-0.5,0.6-1.2,0.9-1.9,0.9c-0.7,0-1.4-0.2-1.8-0.6c-0.5-0.5-0.7-1.1-0.7-1.9v-4.4h1v4.2
		c0,1.2,0.6,1.8,1.7,1.8s1.7-0.6,1.7-1.8v-4.2h1v6.9H544.6z"/>
	<path class="st5" d="M556,56.2V52c0-1.2-0.6-1.8-1.7-1.8c-1,0-1.7,0.6-1.7,1.8v4.3h-1v-10h1v3.8c0.5-0.6,1.2-0.8,1.9-0.8
		c1.6,0,2.5,1,2.5,2.5v4.4H556z"/>
	<path class="st5" d="M563.4,56.2v-0.7c-0.6,0.6-1.1,0.7-2,0.7c-1,0-1.5-0.2-1.9-0.6c-0.3-0.3-0.5-0.9-0.5-1.4c0-1.2,0.8-2,2.4-2
		h2.1v-0.7c0-1-0.5-1.5-1.8-1.5c-0.9,0-1.3,0.2-1.7,0.8l-0.7-0.6c0.6-0.8,1.3-1,2.4-1c1.8,0,2.8,0.8,2.8,2.3v4.7H563.4z M563.4,53
		h-1.9c-1,0-1.5,0.4-1.5,1.2s0.5,1.2,1.6,1.2c0.6,0,1.1,0,1.5-0.5c0.2-0.2,0.3-0.6,0.3-1.2V53z"/>
	<path class="st5" d="M569.1,56.2h-0.9l-2.5-6.9h1.1l1.9,5.5l1.9-5.5h1.1L569.1,56.2z"/>
	<path class="st5" d="M573.6,53c0,1.5,0.7,2.4,2,2.4c0.8,0,1.3-0.2,1.8-0.8l0.7,0.6c-0.7,0.7-1.3,1.1-2.5,1.1c-1.8,0-3-1.1-3-3.5
		c0-2.2,1.1-3.5,2.8-3.5c1.8,0,2.8,1.3,2.8,3.3V53H573.6z M577,51.1c-0.3-0.6-0.9-1-1.6-1s-1.3,0.4-1.6,1c-0.2,0.4-0.2,0.6-0.2,1.1
		h3.6C577.2,51.7,577.2,51.5,577,51.1z"/>
	<path class="st5" d="M586.1,59.4c-1,0-1.6-0.3-2.3-0.9l0.7-0.6c0.5,0.4,0.9,0.7,1.7,0.7c1.3,0,1.9-0.9,1.9-2.1v-1.1
		c-0.6,0.7-1.2,0.9-1.9,0.9c-0.7,0-1.3-0.3-1.7-0.6c-0.7-0.7-0.8-1.8-0.8-2.9s0.2-2.2,0.8-2.9c0.4-0.4,1-0.6,1.7-0.6
		c0.8,0,1.4,0.2,1.9,0.9v-0.8h1v7.1C588.9,58.1,587.9,59.4,586.1,59.4z M586.2,50.1c-1.5,0-1.7,1.3-1.7,2.6s0.2,2.6,1.7,2.6
		s1.7-1.3,1.7-2.6S587.7,50.1,586.2,50.1z"/>
	<path class="st5" d="M591.4,47.4v-1.1h1.1v1.1H591.4z M591.5,56.2v-6.9h1v6.9H591.5z"/>
	<path class="st5" d="M597.3,56.2h-0.9l-2.5-6.9h1.1l1.9,5.5l1.9-5.5h1.1L597.3,56.2z"/>
	<path class="st5" d="M601.7,53c0,1.5,0.7,2.4,2,2.4c0.8,0,1.3-0.2,1.8-0.8l0.7,0.6c-0.7,0.7-1.3,1.1-2.5,1.1c-1.8,0-3-1.1-3-3.5
		c0-2.2,1.1-3.5,2.8-3.5c1.8,0,2.8,1.3,2.8,3.3V53H601.7z M605.2,51.1c-0.3-0.6-0.9-1-1.6-1s-1.3,0.4-1.6,1
		c-0.2,0.4-0.2,0.6-0.2,1.1h3.6C605.4,51.7,605.3,51.5,605.2,51.1z"/>
	<path class="st5" d="M612.9,56.2V52c0-1.2-0.7-1.8-1.7-1.8c-1,0-1.7,0.6-1.7,1.8v4.2h-1v-6.9h1v0.8c0.5-0.6,1.2-0.8,1.9-0.8
		c0.7,0,1.3,0.2,1.8,0.6c0.5,0.5,0.7,1.1,0.7,1.9v4.4H612.9z"/>
	<path class="st5" d="M624,56.2h-3.9v-10h3.8c1.7,0,2.9,1,2.9,2.7c0,1.1-0.6,1.9-1.5,2.2c1,0.4,1.6,1.2,1.6,2.4
		C626.9,55.3,625.7,56.2,624,56.2z M623.7,47.2h-2.6v3.5h2.6c1.1,0,2-0.5,2-1.7C625.7,47.7,624.9,47.2,623.7,47.2z M623.9,51.6h-2.7
		v3.7h2.7c1.2,0,2-0.7,2-1.8S625.1,51.6,623.9,51.6z"/>
	<path class="st5" d="M629.9,53c0,1.5,0.7,2.4,2,2.4c0.8,0,1.3-0.2,1.8-0.8l0.7,0.6c-0.7,0.7-1.3,1.1-2.5,1.1c-1.8,0-3-1.1-3-3.5
		c0-2.2,1.1-3.5,2.8-3.5c1.8,0,2.8,1.3,2.8,3.3V53H629.9z M633.3,51.1c-0.3-0.6-0.9-1-1.6-1s-1.3,0.4-1.6,1
		c-0.2,0.4-0.2,0.6-0.2,1.1h3.6C633.5,51.7,633.5,51.5,633.3,51.1z"/>
	<path class="st5" d="M638.6,56.2c-1.2,0-1.8-0.8-1.8-1.8v-4.2H636v-0.8h0.9v-2.2h1v2.2h1.5v0.8h-1.5v4.2c0,0.6,0.3,1,0.9,1h0.5v0.9
		H638.6z"/>
	<path class="st5" d="M643.2,56.2c-1.2,0-1.8-0.8-1.8-1.8v-4.2h-0.9v-0.8h0.9v-2.2h1v2.2h1.5v0.8h-1.5v4.2c0,0.6,0.3,1,0.9,1h0.5
		v0.9H643.2z"/>
	<path class="st5" d="M646.5,53c0,1.5,0.7,2.4,2,2.4c0.8,0,1.3-0.2,1.8-0.8l0.7,0.6c-0.7,0.7-1.3,1.1-2.5,1.1c-1.8,0-3-1.1-3-3.5
		c0-2.2,1.1-3.5,2.8-3.5c1.8,0,2.8,1.3,2.8,3.3V53H646.5z M649.9,51.1c-0.3-0.6-0.9-1-1.6-1s-1.3,0.4-1.6,1
		c-0.2,0.4-0.2,0.6-0.2,1.1h3.6C650.1,51.7,650.1,51.5,649.9,51.1z"/>
	<path class="st5" d="M657.1,50.6c-0.4-0.4-0.7-0.5-1.2-0.5c-1,0-1.7,0.8-1.7,1.8v4.2h-1v-6.9h1v0.8c0.4-0.6,1.1-0.9,1.9-0.9
		c0.7,0,1.2,0.2,1.7,0.6L657.1,50.6z"/>
	<path class="st5" d="M515.4,77.3c-1.5,0-2.5-0.4-3.4-1.3l0.7-0.7c0.8,0.8,1.6,1.1,2.7,1.1c1.5,0,2.4-0.7,2.4-1.8
		c0-0.5-0.2-1-0.5-1.2c-0.3-0.3-0.6-0.4-1.3-0.5l-1.2-0.2c-0.8-0.1-1.4-0.4-1.8-0.8c-0.5-0.4-0.8-1.1-0.8-1.9c0-1.7,1.2-2.8,3.2-2.8
		c1.3,0,2.1,0.3,3,1.1l-0.7,0.7c-0.6-0.6-1.3-0.9-2.3-0.9c-1.3,0-2.1,0.7-2.1,1.8c0,0.5,0.1,0.9,0.4,1.1s0.8,0.5,1.3,0.5l1.1,0.2
		c0.9,0.1,1.4,0.3,1.8,0.7c0.5,0.5,0.8,1.1,0.8,2C518.8,76.2,517.5,77.3,515.4,77.3z"/>
	<path class="st5" d="M522.8,77.2c-1.2,0-1.8-0.8-1.8-1.8v-4.2h-0.9v-0.8h0.9v-2.2h1v2.2h1.5v0.8h-1.5v4.2c0,0.6,0.3,1,0.9,1h0.5
		v0.9H522.8z"/>
	<path class="st5" d="M529.4,71.6c-0.4-0.4-0.7-0.5-1.2-0.5c-1,0-1.7,0.8-1.7,1.8v4.2h-1v-6.9h1v0.8c0.4-0.6,1.1-0.9,1.9-0.9
		c0.7,0,1.2,0.2,1.7,0.6L529.4,71.6z"/>
	<path class="st5" d="M531.6,74c0,1.5,0.7,2.4,2,2.4c0.8,0,1.3-0.2,1.8-0.8l0.7,0.6c-0.7,0.7-1.3,1.1-2.5,1.1c-1.8,0-3-1.1-3-3.5
		c0-2.2,1.1-3.5,2.8-3.5c1.8,0,2.8,1.3,2.8,3.3V74H531.6z M535,72.1c-0.3-0.6-0.9-1-1.6-1s-1.3,0.4-1.6,1c-0.2,0.4-0.2,0.6-0.2,1.1
		h3.6C535.2,72.7,535.2,72.5,535,72.1z"/>
	<path class="st5" d="M539,74c0,1.5,0.7,2.4,2,2.4c0.8,0,1.3-0.2,1.8-0.8l0.7,0.6c-0.7,0.7-1.3,1.1-2.5,1.1c-1.8,0-3-1.1-3-3.5
		c0-2.2,1.1-3.5,2.8-3.5c1.8,0,2.8,1.3,2.8,3.3V74H539z M542.4,72.1c-0.3-0.6-0.9-1-1.6-1s-1.3,0.4-1.6,1c-0.2,0.4-0.2,0.6-0.2,1.1
		h3.6C542.6,72.7,542.6,72.5,542.4,72.1z"/>
	<path class="st5" d="M547.7,77.2c-1.2,0-1.8-0.8-1.8-1.8v-4.2h-0.9v-0.8h0.9v-2.2h1v2.2h1.5v0.8H547v4.2c0,0.6,0.3,1,0.9,1h0.5v0.9
		H547.7z"/>
	<path class="st5" d="M552.6,77.3c-1.2,0-2.1-0.3-2.8-1l0.7-0.7c0.5,0.6,1.3,0.8,2.1,0.8c1.1,0,1.8-0.4,1.8-1.2c0-0.6-0.4-0.9-1.1-1
		l-1.1-0.1c-1.3-0.1-2.1-0.7-2.1-1.8c0-1.3,1.1-2,2.5-2c1,0,1.9,0.2,2.5,0.7l-0.7,0.7c-0.5-0.4-1.1-0.5-1.8-0.5
		c-1,0-1.5,0.4-1.5,1.1c0,0.6,0.3,0.9,1.2,1l1.1,0.1c1.2,0.1,2,0.6,2,1.9C555.4,76.5,554.3,77.3,552.6,77.3z"/>
	<path class="st5" d="M562.1,71.1v6.1h-1v-6.1h-0.9v-0.8h0.9v-1.3c0-1,0.6-1.8,1.8-1.8h0.7v0.9H563c-0.6,0-0.9,0.4-0.9,1v1.3h1.5
		v0.8H562.1z"/>
	<path class="st5" d="M569.4,76.5c-0.5,0.5-1.1,0.8-2,0.8s-1.5-0.3-2-0.8c-0.7-0.7-0.8-1.7-0.8-2.7s0.1-2,0.8-2.7
		c0.5-0.5,1.1-0.8,2-0.8s1.5,0.3,2,0.8c0.7,0.7,0.8,1.7,0.8,2.7S570.1,75.8,569.4,76.5z M568.7,71.6c-0.3-0.3-0.8-0.5-1.3-0.5
		s-0.9,0.2-1.2,0.5c-0.5,0.5-0.6,1.4-0.6,2.1s0.1,1.6,0.6,2.1c0.3,0.3,0.8,0.5,1.2,0.5s0.9-0.2,1.3-0.5c0.5-0.5,0.5-1.4,0.5-2.1
		S569.2,72.1,568.7,71.6z"/>
	<path class="st5" d="M576.3,71.6c-0.4-0.4-0.7-0.5-1.2-0.5c-1,0-1.7,0.8-1.7,1.8v4.2h-1v-6.9h1v0.8c0.4-0.6,1.1-0.9,1.9-0.9
		c0.7,0,1.2,0.2,1.7,0.6L576.3,71.6z"/>
	<path class="st5" d="M582,77.2v-10h1.1v9h5.1v1H582z"/>
	<path class="st5" d="M594.2,76.5c-0.5,0.5-1.1,0.8-2,0.8c-0.8,0-1.5-0.3-2-0.8c-0.7-0.7-0.8-1.7-0.8-2.7s0.1-2,0.8-2.7
		c0.5-0.5,1.1-0.8,2-0.8c0.8,0,1.5,0.3,2,0.8c0.7,0.7,0.8,1.7,0.8,2.7S594.9,75.8,594.2,76.5z M593.5,71.6c-0.3-0.3-0.8-0.5-1.3-0.5
		s-0.9,0.2-1.2,0.5c-0.5,0.5-0.6,1.4-0.6,2.1s0.1,1.6,0.6,2.1c0.3,0.3,0.8,0.5,1.2,0.5s0.9-0.2,1.3-0.5c0.5-0.5,0.5-1.4,0.5-2.1
		S594,72.1,593.5,71.6z"/>
	<path class="st5" d="M601.7,77.2V73c0-1.2-0.7-1.8-1.7-1.8s-1.7,0.6-1.7,1.8v4.2h-1v-6.9h1v0.8c0.5-0.6,1.2-0.8,1.9-0.8
		c0.7,0,1.3,0.2,1.8,0.6c0.5,0.5,0.7,1.1,0.7,1.9v4.4H601.7z"/>
	<path class="st5" d="M609.2,77.2v-0.8c-0.6,0.7-1.2,0.9-2,0.9c-0.7,0-1.3-0.2-1.7-0.6c-0.7-0.7-0.8-1.8-0.8-2.9s0.1-2.2,0.8-2.9
		c0.4-0.4,1-0.6,1.7-0.6c0.8,0,1.4,0.2,1.9,0.9v-3.9h1v10H609.2z M607.5,71.1c-1.5,0-1.7,1.3-1.7,2.6s0.2,2.6,1.7,2.6
		c1.5,0,1.7-1.3,1.7-2.6S609,71.1,607.5,71.1z"/>
	<path class="st5" d="M617.2,76.5c-0.5,0.5-1.1,0.8-2,0.8c-0.8,0-1.5-0.3-2-0.8c-0.7-0.7-0.8-1.7-0.8-2.7s0.1-2,0.8-2.7
		c0.5-0.5,1.1-0.8,2-0.8c0.8,0,1.5,0.3,2,0.8c0.7,0.7,0.8,1.7,0.8,2.7S617.9,75.8,617.2,76.5z M616.5,71.6c-0.3-0.3-0.8-0.5-1.3-0.5
		s-0.9,0.2-1.2,0.5c-0.5,0.5-0.6,1.4-0.6,2.1s0.1,1.6,0.6,2.1c0.3,0.3,0.8,0.5,1.2,0.5s0.9-0.2,1.3-0.5c0.5-0.5,0.5-1.4,0.5-2.1
		S617,72.1,616.5,71.6z"/>
	<path class="st5" d="M624.6,77.2V73c0-1.2-0.7-1.8-1.7-1.8s-1.7,0.6-1.7,1.8v4.2h-1v-6.9h1v0.8c0.5-0.6,1.2-0.8,1.9-0.8
		c0.7,0,1.3,0.2,1.8,0.6c0.5,0.5,0.7,1.1,0.7,1.9v4.4H624.6z"/>
	<path class="st5" d="M635.4,77.2v-0.7c-0.6,0.6-1.1,0.7-2,0.7c-1,0-1.5-0.2-1.9-0.6c-0.3-0.3-0.5-0.9-0.5-1.4c0-1.2,0.8-2,2.4-2
		h2.1v-0.7c0-1-0.5-1.5-1.8-1.5c-0.9,0-1.3,0.2-1.7,0.8l-0.7-0.6c0.6-0.8,1.3-1,2.4-1c1.8,0,2.8,0.8,2.8,2.3v4.7H635.4z M635.4,74
		h-1.9c-1,0-1.5,0.4-1.5,1.2s0.5,1.2,1.6,1.2c0.6,0,1.1,0,1.5-0.5c0.2-0.2,0.4-0.6,0.4-1.2V74z"/>
	<path class="st5" d="M641.6,77.3c-1.7,0-3.1-1.2-3.1-3.5c0-2.4,1.3-3.5,3.1-3.5c1,0,1.6,0.3,2.3,1l-0.7,0.6
		c-0.5-0.6-0.9-0.8-1.6-0.8c-0.7,0-1.2,0.3-1.6,0.8c-0.3,0.4-0.4,1-0.4,1.8c0,0.9,0.1,1.4,0.4,1.8c0.4,0.5,0.9,0.8,1.6,0.8
		c0.7,0,1.1-0.2,1.6-0.8l0.7,0.7C643.1,77,642.5,77.3,641.6,77.3z"/>
	<path class="st5" d="M648.2,77.3c-1.7,0-3.1-1.2-3.1-3.5c0-2.4,1.3-3.5,3.1-3.5c1,0,1.6,0.3,2.3,1l-0.7,0.6
		c-0.5-0.6-0.9-0.8-1.6-0.8c-0.7,0-1.2,0.3-1.6,0.8c-0.3,0.4-0.4,1-0.4,1.8c0,0.9,0.1,1.4,0.4,1.8c0.4,0.5,0.9,0.8,1.6,0.8
		c0.7,0,1.1-0.2,1.6-0.8l0.7,0.7C649.8,77,649.2,77.3,648.2,77.3z"/>
	<path class="st5" d="M652.8,74c0,1.5,0.7,2.4,2,2.4c0.8,0,1.3-0.2,1.8-0.8l0.7,0.6c-0.7,0.7-1.3,1.1-2.5,1.1c-1.8,0-3-1.1-3-3.5
		c0-2.2,1.1-3.5,2.8-3.5c1.8,0,2.8,1.3,2.8,3.3V74H652.8z M656.2,72.1c-0.3-0.6-0.9-1-1.6-1s-1.3,0.4-1.6,1
		c-0.2,0.4-0.2,0.6-0.2,1.1h3.6C656.4,72.7,656.4,72.5,656.2,72.1z"/>
	<path class="st5" d="M661.8,77.3c-1.2,0-2.1-0.3-2.8-1l0.7-0.7c0.5,0.6,1.3,0.8,2.1,0.8c1.1,0,1.8-0.4,1.8-1.2c0-0.6-0.3-0.9-1.1-1
		l-1.1-0.1c-1.3-0.1-2.1-0.7-2.1-1.8c0-1.3,1.1-2,2.5-2c1,0,1.9,0.2,2.5,0.7l-0.7,0.7c-0.5-0.4-1.1-0.5-1.8-0.5
		c-1,0-1.5,0.4-1.5,1.1c0,0.6,0.3,0.9,1.2,1l1.1,0.1c1.2,0.1,2,0.6,2,1.9C664.6,76.5,663.4,77.3,661.8,77.3z"/>
	<path class="st5" d="M668.5,77.3c-1.2,0-2.1-0.3-2.8-1l0.7-0.7c0.5,0.6,1.3,0.8,2.1,0.8c1.1,0,1.8-0.4,1.8-1.2c0-0.6-0.4-0.9-1.1-1
		l-1.1-0.1c-1.3-0.1-2.1-0.7-2.1-1.8c0-1.3,1.1-2,2.5-2c1,0,1.9,0.2,2.5,0.7l-0.7,0.7c-0.5-0.4-1.1-0.5-1.8-0.5
		c-1,0-1.5,0.4-1.5,1.1c0,0.6,0.3,0.9,1.2,1l1.1,0.1c1.2,0.1,2,0.6,2,1.9C671.3,76.5,670.2,77.3,668.5,77.3z"/>
	<path class="st5" d="M532.2,98.2c-1.2,0-1.8-0.8-1.8-1.8v-4.2h-0.9v-0.8h0.9v-2.2h1v2.2h1.5v0.8h-1.5v4.2c0,0.6,0.3,1,0.9,1h0.5
		v0.9H532.2z"/>
	<path class="st5" d="M539.2,97.5c-0.5,0.5-1.1,0.8-2,0.8c-0.8,0-1.5-0.3-2-0.8c-0.7-0.7-0.8-1.7-0.8-2.7s0.1-2,0.8-2.7
		c0.5-0.5,1.1-0.8,2-0.8c0.8,0,1.5,0.3,2,0.8c0.7,0.7,0.8,1.7,0.8,2.7S539.9,96.8,539.2,97.5z M538.5,92.6c-0.3-0.3-0.8-0.5-1.3-0.5
		s-0.9,0.2-1.2,0.5c-0.5,0.5-0.6,1.4-0.6,2.1s0.1,1.6,0.6,2.1c0.3,0.3,0.8,0.5,1.2,0.5s0.9-0.2,1.3-0.5c0.5-0.5,0.5-1.4,0.5-2.1
		S539,93.1,538.5,92.6z"/>
	<path class="st5" d="M547.4,99.9c-0.1,0.4-0.3,0.6-0.5,0.8c-0.4,0.4-0.9,0.5-1.3,0.5h-0.4v-0.9h0.3c0.7,0,0.9-0.2,1.1-0.9l0.5-1.3
		l-2.5-6.8h1.1l1.9,5.5l1.9-5.5h1.1L547.4,99.9z"/>
	<path class="st5" d="M556.2,97.5c-0.5,0.5-1.1,0.8-2,0.8c-0.8,0-1.5-0.3-2-0.8c-0.7-0.7-0.8-1.7-0.8-2.7s0.1-2,0.8-2.7
		c0.5-0.5,1.1-0.8,2-0.8c0.8,0,1.5,0.3,2,0.8c0.7,0.7,0.8,1.7,0.8,2.7S556.9,96.8,556.2,97.5z M555.5,92.6c-0.3-0.3-0.8-0.5-1.3-0.5
		s-0.9,0.2-1.2,0.5c-0.5,0.5-0.6,1.4-0.6,2.1s0.1,1.6,0.6,2.1c0.3,0.3,0.8,0.5,1.2,0.5s0.9-0.2,1.3-0.5c0.5-0.5,0.5-1.4,0.5-2.1
		S556,93.1,555.5,92.6z"/>
	<path class="st5" d="M563.6,98.2v-0.8c-0.5,0.6-1.2,0.9-1.9,0.9c-0.7,0-1.4-0.2-1.8-0.6c-0.5-0.5-0.7-1.1-0.7-1.9v-4.4h1v4.2
		c0,1.2,0.6,1.8,1.7,1.8c1,0,1.7-0.6,1.7-1.8v-4.2h1v6.9H563.6z"/>
	<path class="st5" d="M570.9,92.6c-0.4-0.4-0.7-0.5-1.2-0.5c-1,0-1.7,0.8-1.7,1.8v4.2h-1v-6.9h1v0.8c0.4-0.6,1.1-0.9,1.9-0.9
		c0.7,0,1.2,0.2,1.7,0.6L570.9,92.6z"/>
	<path class="st5" d="M578.2,98.2c-1.2,0-1.8-0.8-1.8-1.8v-8.1h1v8.1c0,0.7,0.2,1,0.9,1h0.5v0.9H578.2z"/>
	<path class="st5" d="M584.8,97.5c-0.5,0.5-1.1,0.8-2,0.8c-0.8,0-1.5-0.3-2-0.8c-0.7-0.7-0.8-1.7-0.8-2.7s0.1-2,0.8-2.7
		c0.5-0.5,1.1-0.8,2-0.8c0.8,0,1.5,0.3,2,0.8c0.7,0.7,0.8,1.7,0.8,2.7S585.5,96.8,584.8,97.5z M584.1,92.6c-0.3-0.3-0.8-0.5-1.3-0.5
		s-0.9,0.2-1.2,0.5c-0.5,0.5-0.6,1.4-0.6,2.1s0.1,1.6,0.6,2.1c0.3,0.3,0.8,0.5,1.2,0.5s0.9-0.2,1.3-0.5c0.5-0.5,0.5-1.4,0.5-2.1
		S584.6,93.1,584.1,92.6z"/>
	<path class="st5" d="M590.4,98.3c-1.7,0-3.1-1.2-3.1-3.5c0-2.4,1.3-3.5,3.1-3.5c1,0,1.6,0.3,2.3,1l-0.7,0.6
		c-0.5-0.6-0.9-0.8-1.6-0.8c-0.7,0-1.2,0.3-1.6,0.8c-0.3,0.4-0.4,1-0.4,1.8c0,0.9,0.1,1.4,0.4,1.8c0.4,0.5,0.9,0.8,1.6,0.8
		c0.7,0,1.1-0.2,1.6-0.8l0.7,0.7C592,98,591.4,98.3,590.4,98.3z"/>
	<path class="st5" d="M598.4,98.2v-0.7c-0.6,0.6-1.1,0.7-2,0.7c-1,0-1.5-0.2-1.9-0.6c-0.3-0.3-0.5-0.9-0.5-1.4c0-1.2,0.8-2,2.4-2
		h2.1v-0.7c0-1-0.5-1.5-1.8-1.5c-0.9,0-1.3,0.2-1.7,0.8l-0.7-0.6c0.6-0.8,1.3-1,2.4-1c1.8,0,2.8,0.8,2.8,2.3v4.7H598.4z M598.4,95
		h-1.9c-1,0-1.5,0.4-1.5,1.2s0.5,1.2,1.6,1.2c0.6,0,1.1,0,1.5-0.5c0.2-0.2,0.4-0.6,0.4-1.2V95z"/>
	<path class="st5" d="M603.8,98.2c-1.2,0-1.8-0.8-1.8-1.8v-4.2h-0.9v-0.8h0.9v-2.2h1v2.2h1.5v0.8H603v4.2c0,0.6,0.3,1,0.9,1h0.5v0.9
		H603.8z"/>
	<path class="st5" d="M606.4,89.4v-1.1h1.1v1.1H606.4z M606.5,98.2v-6.9h1v6.9H606.5z"/>
	<path class="st5" d="M614.4,97.5c-0.5,0.5-1.1,0.8-2,0.8s-1.5-0.3-2-0.8c-0.7-0.7-0.8-1.7-0.8-2.7s0.1-2,0.8-2.7
		c0.5-0.5,1.1-0.8,2-0.8s1.5,0.3,2,0.8c0.7,0.7,0.8,1.7,0.8,2.7S615.1,96.8,614.4,97.5z M613.7,92.6c-0.3-0.3-0.8-0.5-1.3-0.5
		s-0.9,0.2-1.2,0.5c-0.5,0.5-0.6,1.4-0.6,2.1s0.1,1.6,0.6,2.1c0.3,0.3,0.8,0.5,1.2,0.5s0.9-0.2,1.3-0.5c0.5-0.5,0.5-1.4,0.5-2.1
		S614.2,93.1,613.7,92.6z"/>
	<path class="st5" d="M621.8,98.2V94c0-1.2-0.7-1.8-1.7-1.8c-1,0-1.7,0.6-1.7,1.8v4.2h-1v-6.9h1v0.8c0.5-0.6,1.2-0.8,1.9-0.8
		c0.7,0,1.3,0.2,1.8,0.6c0.5,0.5,0.7,1.1,0.7,1.9v4.4H621.8z"/>
	<path class="st5" d="M632.9,98.2v-0.8c-0.6,0.7-1.2,0.9-2,0.9c-0.7,0-1.3-0.2-1.7-0.6c-0.7-0.7-0.8-1.8-0.8-2.9s0.1-2.2,0.8-2.9
		c0.4-0.4,1-0.6,1.7-0.6c0.8,0,1.4,0.2,1.9,0.9v-3.9h1v10H632.9z M631.2,92.1c-1.5,0-1.7,1.3-1.7,2.6s0.2,2.6,1.7,2.6
		s1.7-1.3,1.7-2.6S632.7,92.1,631.2,92.1z"/>
	<path class="st5" d="M640.3,98.2v-0.7c-0.6,0.6-1.1,0.7-2,0.7c-1,0-1.5-0.2-1.9-0.6c-0.3-0.3-0.5-0.9-0.5-1.4c0-1.2,0.8-2,2.4-2
		h2.1v-0.7c0-1-0.5-1.5-1.8-1.5c-0.9,0-1.3,0.2-1.7,0.8l-0.7-0.6c0.6-0.8,1.3-1,2.4-1c1.8,0,2.8,0.8,2.8,2.3v4.7H640.3z M640.3,95
		h-1.9c-1,0-1.5,0.4-1.5,1.2s0.5,1.2,1.6,1.2c0.6,0,1.1,0,1.5-0.5c0.2-0.2,0.4-0.6,0.4-1.2V95z"/>
	<path class="st5" d="M645.7,98.2c-1.2,0-1.8-0.8-1.8-1.8v-4.2h-0.9v-0.8h0.9v-2.2h1v2.2h1.5v0.8H645v4.2c0,0.6,0.3,1,0.9,1h0.5v0.9
		H645.7z"/>
	<path class="st5" d="M652.2,98.2v-0.7c-0.6,0.6-1.1,0.7-2,0.7c-1,0-1.5-0.2-1.9-0.6c-0.3-0.3-0.5-0.9-0.5-1.4c0-1.2,0.8-2,2.4-2
		h2.1v-0.7c0-1-0.5-1.5-1.8-1.5c-0.9,0-1.3,0.2-1.7,0.8l-0.7-0.6c0.6-0.8,1.3-1,2.4-1c1.8,0,2.8,0.8,2.8,2.3v4.7H652.2z M652.2,95
		h-1.9c-1,0-1.5,0.4-1.5,1.2s0.5,1.2,1.6,1.2c0.6,0,1.1,0,1.5-0.5c0.2-0.2,0.4-0.6,0.4-1.2V95z"/>
</g>
<circle class="st6" cx="591.7" cy="145.8" r="16.8"/>
<g>
	<rect x="77.3" y="34.5" class="st4" width="204.5" height="35.6"/>
	<path class="st5" d="M81.4,44.5c-1.5,0-2.5-0.4-3.4-1.3l0.7-0.7c0.8,0.8,1.6,1.1,2.7,1.1c1.5,0,2.4-0.7,2.4-1.8
		c0-0.5-0.2-1-0.5-1.2c-0.3-0.3-0.6-0.4-1.3-0.5l-1.2-0.2c-0.8-0.1-1.4-0.4-1.8-0.8c-0.5-0.4-0.8-1.1-0.8-1.9c0-1.7,1.2-2.8,3.2-2.8
		c1.3,0,2.1,0.3,3,1.1l-0.7,0.7c-0.6-0.6-1.3-0.9-2.3-0.9c-1.3,0-2.1,0.7-2.1,1.8c0,0.5,0.1,0.9,0.4,1.1c0.3,0.3,0.8,0.5,1.3,0.5
		l1.1,0.2c0.9,0.1,1.4,0.3,1.8,0.7c0.5,0.5,0.8,1.1,0.8,2C84.8,43.5,83.4,44.5,81.4,44.5z"/>
	<path class="st5" d="M91.3,44.5v-4.3c0-1.2-0.6-1.8-1.7-1.8s-1.7,0.6-1.7,1.8v4.3h-1v-10h1v3.8c0.5-0.6,1.2-0.8,1.9-0.8
		c1.6,0,2.5,1,2.5,2.5v4.4H91.3z"/>
	<path class="st5" d="M98.6,44.5v-0.7c-0.6,0.6-1.1,0.7-2,0.7c-1,0-1.5-0.2-1.9-0.6c-0.3-0.3-0.5-0.9-0.5-1.4c0-1.2,0.8-2,2.4-2h2.1
		v-0.7c0-1-0.5-1.5-1.8-1.5c-0.9,0-1.3,0.2-1.7,0.8l-0.7-0.6c0.6-0.8,1.3-1,2.4-1c1.8,0,2.8,0.8,2.8,2.3v4.7H98.6z M98.6,41.3h-1.9
		c-1,0-1.5,0.4-1.5,1.2s0.5,1.2,1.6,1.2c0.6,0,1.1,0,1.5-0.5c0.2-0.2,0.4-0.6,0.4-1.2V41.3z"/>
	<path class="st5" d="M105.9,38.9c-0.4-0.4-0.7-0.5-1.2-0.5c-1,0-1.7,0.8-1.7,1.8v4.2h-1v-6.9h1v0.8c0.4-0.6,1.1-0.9,1.9-0.9
		c0.7,0,1.2,0.2,1.7,0.6L105.9,38.9z"/>
	<path class="st5" d="M108.1,41.3c0,1.5,0.7,2.4,2,2.4c0.8,0,1.3-0.2,1.8-0.8l0.7,0.6c-0.7,0.7-1.3,1.1-2.5,1.1c-1.8,0-3-1.1-3-3.5
		c0-2.2,1.1-3.5,2.8-3.5c1.8,0,2.8,1.3,2.8,3.3v0.5H108.1z M111.6,39.4c-0.3-0.6-0.9-1-1.6-1s-1.3,0.4-1.6,1
		c-0.2,0.4-0.2,0.6-0.2,1.1h3.6C111.7,40,111.7,39.7,111.6,39.4z"/>
	<path class="st5" d="M120.1,46.1c-0.1,0.4-0.3,0.6-0.5,0.8c-0.4,0.4-0.9,0.5-1.3,0.5h-0.4v-0.9h0.3c0.7,0,0.9-0.2,1.1-0.9l0.5-1.3
		l-2.5-6.8h1.1l1.9,5.5l1.9-5.5h1.1L120.1,46.1z"/>
	<path class="st5" d="M128.9,43.8c-0.5,0.5-1.1,0.8-2,0.8s-1.5-0.3-2-0.8c-0.7-0.7-0.8-1.7-0.8-2.7s0.1-2,0.8-2.7
		c0.5-0.5,1.1-0.8,2-0.8s1.5,0.3,2,0.8c0.7,0.7,0.8,1.7,0.8,2.7S129.6,43,128.9,43.8z M128.2,38.9c-0.3-0.3-0.8-0.5-1.3-0.5
		s-0.9,0.2-1.2,0.5c-0.5,0.5-0.6,1.4-0.6,2.1s0.1,1.6,0.6,2.1c0.3,0.3,0.8,0.5,1.2,0.5s0.9-0.2,1.3-0.5c0.5-0.5,0.5-1.4,0.5-2.1
		S128.7,39.4,128.2,38.9z"/>
	<path class="st5" d="M136.3,44.5v-0.8c-0.5,0.6-1.2,0.9-1.9,0.9c-0.7,0-1.4-0.2-1.8-0.6c-0.5-0.5-0.7-1.1-0.7-1.9v-4.4h1v4.2
		c0,1.2,0.6,1.8,1.7,1.8c1,0,1.7-0.6,1.7-1.8v-4.2h1v6.9H136.3z"/>
	<path class="st5" d="M143.7,38.9c-0.4-0.4-0.7-0.5-1.2-0.5c-1,0-1.7,0.8-1.7,1.8v4.2h-1v-6.9h1v0.8c0.4-0.6,1.1-0.9,1.9-0.9
		c0.7,0,1.2,0.2,1.7,0.6L143.7,38.9z"/>
	<path class="st5" d="M150.9,44.5c-1.2,0-1.8-0.8-1.8-1.8v-8.1h1v8.1c0,0.7,0.2,1,0.9,1h0.5v0.9H150.9z"/>
	<path class="st5" d="M157.5,43.8c-0.5,0.5-1.1,0.8-2,0.8s-1.5-0.3-2-0.8c-0.7-0.7-0.8-1.7-0.8-2.7s0.1-2,0.8-2.7
		c0.5-0.5,1.1-0.8,2-0.8s1.5,0.3,2,0.8c0.7,0.7,0.8,1.7,0.8,2.7S158.2,43,157.5,43.8z M156.8,38.9c-0.3-0.3-0.8-0.5-1.3-0.5
		s-0.9,0.2-1.2,0.5c-0.5,0.5-0.6,1.4-0.6,2.1s0.1,1.6,0.6,2.1c0.3,0.3,0.8,0.5,1.2,0.5s0.9-0.2,1.3-0.5c0.5-0.5,0.5-1.4,0.5-2.1
		S157.3,39.4,156.8,38.9z"/>
	<path class="st5" d="M163.2,44.5c-1.7,0-3.1-1.2-3.1-3.5c0-2.4,1.3-3.5,3.1-3.5c1,0,1.6,0.3,2.3,1l-0.7,0.6
		c-0.5-0.6-0.9-0.8-1.6-0.8c-0.7,0-1.2,0.3-1.6,0.8c-0.3,0.4-0.4,1-0.4,1.8c0,0.9,0.1,1.4,0.4,1.8c0.4,0.5,0.9,0.8,1.6,0.8
		c0.7,0,1.1-0.2,1.6-0.8l0.7,0.7C164.7,44.3,164.1,44.5,163.2,44.5z"/>
	<path class="st5" d="M171.1,44.5v-0.7c-0.6,0.6-1.1,0.7-2,0.7c-1,0-1.5-0.2-1.9-0.6c-0.3-0.3-0.5-0.9-0.5-1.4c0-1.2,0.8-2,2.4-2
		h2.1v-0.7c0-1-0.5-1.5-1.8-1.5c-0.9,0-1.3,0.2-1.7,0.8l-0.7-0.6c0.6-0.8,1.3-1,2.4-1c1.8,0,2.8,0.8,2.8,2.3v4.7H171.1z M171.1,41.3
		h-1.9c-1,0-1.5,0.4-1.5,1.2s0.5,1.2,1.6,1.2c0.6,0,1.1,0,1.5-0.5c0.2-0.2,0.4-0.6,0.4-1.2V41.3z"/>
	<path class="st5" d="M176.5,44.5c-1.2,0-1.8-0.8-1.8-1.8v-4.2h-0.9v-0.8h0.9v-2.2h1v2.2h1.5v0.8h-1.5v4.2c0,0.6,0.3,1,0.9,1h0.5
		v0.9H176.5z"/>
	<path class="st5" d="M179.1,35.6v-1.1h1.1v1.1H179.1z M179.2,44.5v-6.9h1v6.9H179.2z"/>
	<path class="st5" d="M187.2,43.8c-0.5,0.5-1.1,0.8-2,0.8s-1.5-0.3-2-0.8c-0.7-0.7-0.8-1.7-0.8-2.7s0.1-2,0.8-2.7
		c0.5-0.5,1.1-0.8,2-0.8s1.5,0.3,2,0.8c0.7,0.7,0.8,1.7,0.8,2.7S187.9,43,187.2,43.8z M186.4,38.9c-0.3-0.3-0.8-0.5-1.3-0.5
		s-0.9,0.2-1.2,0.5c-0.5,0.5-0.6,1.4-0.6,2.1s0.1,1.6,0.6,2.1c0.3,0.3,0.8,0.5,1.2,0.5s0.9-0.2,1.3-0.5c0.5-0.5,0.5-1.4,0.5-2.1
		S186.9,39.4,186.4,38.9z"/>
	<path class="st5" d="M194.6,44.5v-4.2c0-1.2-0.7-1.8-1.7-1.8c-1,0-1.7,0.6-1.7,1.8v4.2h-1v-6.9h1v0.8c0.5-0.6,1.2-0.8,1.9-0.8
		c0.7,0,1.3,0.2,1.8,0.6c0.5,0.5,0.7,1.1,0.7,1.9v4.4H194.6z"/>
	<path class="st5" d="M205.6,44.5v-0.8c-0.6,0.7-1.2,0.9-2,0.9c-0.7,0-1.3-0.2-1.7-0.6c-0.7-0.7-0.8-1.8-0.8-2.9s0.1-2.2,0.8-2.9
		c0.4-0.4,1-0.6,1.7-0.6c0.8,0,1.4,0.2,1.9,0.9v-3.9h1v10H205.6z M203.9,38.4c-1.5,0-1.7,1.3-1.7,2.6s0.2,2.6,1.7,2.6
		c1.5,0,1.7-1.3,1.7-2.6S205.4,38.4,203.9,38.4z"/>
	<path class="st5" d="M213,44.5v-0.7c-0.6,0.6-1.1,0.7-2,0.7c-1,0-1.5-0.2-1.9-0.6c-0.3-0.3-0.5-0.9-0.5-1.4c0-1.2,0.8-2,2.4-2h2.1
		v-0.7c0-1-0.5-1.5-1.8-1.5c-0.9,0-1.3,0.2-1.7,0.8l-0.7-0.6c0.6-0.8,1.3-1,2.4-1c1.8,0,2.8,0.8,2.8,2.3v4.7H213z M213,41.3h-1.9
		c-1,0-1.5,0.4-1.5,1.2s0.5,1.2,1.6,1.2c0.6,0,1.1,0,1.5-0.5c0.2-0.2,0.4-0.6,0.4-1.2V41.3z"/>
	<path class="st5" d="M218.4,44.5c-1.2,0-1.8-0.8-1.8-1.8v-4.2h-0.9v-0.8h0.9v-2.2h1v2.2h1.5v0.8h-1.5v4.2c0,0.6,0.3,1,0.9,1h0.5
		v0.9H218.4z"/>
	<path class="st5" d="M224.9,44.5v-0.7c-0.6,0.6-1.1,0.7-2,0.7c-1,0-1.5-0.2-1.9-0.6c-0.3-0.3-0.5-0.9-0.5-1.4c0-1.2,0.8-2,2.4-2
		h2.1v-0.7c0-1-0.5-1.5-1.8-1.5c-0.9,0-1.3,0.2-1.7,0.8l-0.7-0.6c0.6-0.8,1.3-1,2.4-1c1.8,0,2.8,0.8,2.8,2.3v4.7H224.9z M224.9,41.3
		H223c-1,0-1.5,0.4-1.5,1.2s0.5,1.2,1.6,1.2c0.6,0,1.1,0,1.5-0.5c0.2-0.2,0.4-0.6,0.4-1.2V41.3z"/>
	<path class="st5" d="M238.4,44.5h-0.9l-1.8-5.4l-1.8,5.4H233l-2.2-6.9h1.1l1.6,5.5l1.8-5.5h0.9l1.8,5.5l1.6-5.5h1.1L238.4,44.5z"/>
	<path class="st5" d="M242,35.6v-1.1h1.1v1.1H242z M242,44.5v-6.9h1v6.9H242z"/>
	<path class="st5" d="M247.5,44.5c-1.2,0-1.8-0.8-1.8-1.8v-4.2h-0.9v-0.8h0.9v-2.2h1v2.2h1.5v0.8h-1.5v4.2c0,0.6,0.3,1,0.9,1h0.5
		v0.9H247.5z"/>
	<path class="st5" d="M254.6,44.5v-4.3c0-1.2-0.6-1.8-1.7-1.8s-1.7,0.6-1.7,1.8v4.3h-1v-10h1v3.8c0.5-0.6,1.2-0.8,1.9-0.8
		c1.6,0,2.5,1,2.5,2.5v4.4H254.6z"/>
	<path class="st5" d="M82.7,62.5h-3.9v-10h3.8c1.7,0,2.9,1,2.9,2.7c0,1.1-0.6,1.9-1.5,2.2c1,0.4,1.6,1.2,1.6,2.4
		C85.6,61.5,84.4,62.5,82.7,62.5z M82.5,53.4h-2.6v3.5h2.6c1.1,0,2-0.5,2-1.7C84.4,54,83.6,53.4,82.5,53.4z M82.6,57.8h-2.7v3.7h2.7
		c1.2,0,2-0.7,2-1.8S83.8,57.8,82.6,57.8z"/>
	<path class="st5" d="M88.6,59.3c0,1.5,0.7,2.4,2,2.4c0.8,0,1.3-0.2,1.8-0.8l0.7,0.6c-0.7,0.7-1.3,1.1-2.5,1.1c-1.8,0-3-1.1-3-3.5
		c0-2.2,1.1-3.5,2.8-3.5c1.8,0,2.8,1.3,2.8,3.3v0.5H88.6z M92,57.4c-0.3-0.6-0.9-1-1.6-1s-1.3,0.4-1.6,1c-0.2,0.4-0.2,0.6-0.2,1.1
		h3.6C92.2,58,92.2,57.7,92,57.4z"/>
	<path class="st5" d="M97.3,62.5c-1.2,0-1.8-0.8-1.8-1.8v-4.2h-0.9v-0.8h0.9v-2.2h1v2.2H98v0.8h-1.5v4.2c0,0.6,0.3,1,0.9,1H98v0.9
		H97.3z"/>
	<path class="st5" d="M102,62.5c-1.2,0-1.8-0.8-1.8-1.8v-4.2h-0.9v-0.8h0.9v-2.2h1v2.2h1.5v0.8h-1.5v4.2c0,0.6,0.3,1,0.9,1h0.5v0.9
		H102z"/>
	<path class="st5" d="M105.2,59.3c0,1.5,0.7,2.4,2,2.4c0.8,0,1.3-0.2,1.8-0.8l0.7,0.6c-0.7,0.7-1.3,1.1-2.5,1.1c-1.8,0-3-1.1-3-3.5
		c0-2.2,1.1-3.5,2.8-3.5c1.8,0,2.8,1.3,2.8,3.3v0.5H105.2z M108.6,57.4c-0.3-0.6-0.9-1-1.6-1s-1.3,0.4-1.6,1
		c-0.2,0.4-0.2,0.6-0.2,1.1h3.6C108.8,58,108.8,57.7,108.6,57.4z"/>
	<path class="st5" d="M115.8,56.9c-0.4-0.4-0.7-0.5-1.2-0.5c-1,0-1.7,0.8-1.7,1.8v4.2h-1v-6.9h1v0.8c0.4-0.6,1.1-0.9,1.9-0.9
		c0.7,0,1.2,0.2,1.7,0.6L115.8,56.9z"/>
	<path class="st5" d="M124.1,62.5c-1.5,0-2.5-0.4-3.4-1.3l0.7-0.7c0.8,0.8,1.6,1.1,2.7,1.1c1.5,0,2.4-0.7,2.4-1.8
		c0-0.5-0.2-1-0.5-1.2c-0.3-0.3-0.6-0.4-1.3-0.5l-1.2-0.2c-0.8-0.1-1.4-0.4-1.8-0.8c-0.5-0.4-0.8-1.1-0.8-1.9c0-1.7,1.2-2.8,3.2-2.8
		c1.3,0,2.1,0.3,3,1.1l-0.7,0.7c-0.6-0.6-1.3-0.9-2.3-0.9c-1.3,0-2.1,0.7-2.1,1.8c0,0.5,0.1,0.9,0.4,1.1c0.3,0.3,0.8,0.5,1.3,0.5
		l1.1,0.2c0.9,0.1,1.4,0.3,1.8,0.7c0.5,0.5,0.8,1.1,0.8,2C127.6,61.5,126.2,62.5,124.1,62.5z"/>
	<path class="st5" d="M131.5,62.5c-1.2,0-1.8-0.8-1.8-1.8v-4.2h-0.9v-0.8h0.9v-2.2h1v2.2h1.5v0.8h-1.5v4.2c0,0.6,0.3,1,0.9,1h0.5
		v0.9H131.5z"/>
	<path class="st5" d="M138.1,56.9c-0.4-0.4-0.7-0.5-1.2-0.5c-1,0-1.7,0.8-1.7,1.8v4.2h-1v-6.9h1v0.8c0.4-0.6,1.1-0.9,1.9-0.9
		c0.7,0,1.2,0.2,1.7,0.6L138.1,56.9z"/>
	<path class="st5" d="M140.3,59.3c0,1.5,0.7,2.4,2,2.4c0.8,0,1.3-0.2,1.8-0.8l0.7,0.6c-0.7,0.7-1.3,1.1-2.5,1.1c-1.8,0-3-1.1-3-3.5
		c0-2.2,1.1-3.5,2.8-3.5c1.8,0,2.8,1.3,2.8,3.3v0.5H140.3z M143.7,57.4c-0.3-0.6-0.9-1-1.6-1s-1.3,0.4-1.6,1
		c-0.2,0.4-0.2,0.6-0.2,1.1h3.6C143.9,58,143.9,57.7,143.7,57.4z"/>
	<path class="st5" d="M147.7,59.3c0,1.5,0.7,2.4,2,2.4c0.8,0,1.3-0.2,1.8-0.8l0.7,0.6c-0.7,0.7-1.3,1.1-2.5,1.1c-1.8,0-3-1.1-3-3.5
		c0-2.2,1.1-3.5,2.8-3.5c1.8,0,2.8,1.3,2.8,3.3v0.5H147.7z M151.1,57.4c-0.3-0.6-0.9-1-1.6-1s-1.3,0.4-1.6,1
		c-0.2,0.4-0.2,0.6-0.2,1.1h3.6C151.3,58,151.3,57.7,151.1,57.4z"/>
	<path class="st5" d="M156.4,62.5c-1.2,0-1.8-0.8-1.8-1.8v-4.2h-0.9v-0.8h0.9v-2.2h1v2.2h1.5v0.8h-1.5v4.2c0,0.6,0.3,1,0.9,1h0.5
		v0.9H156.4z"/>
	<path class="st5" d="M161.3,62.5c-1.2,0-2.1-0.3-2.8-1l0.7-0.7c0.5,0.6,1.3,0.8,2.1,0.8c1.1,0,1.8-0.4,1.8-1.2c0-0.6-0.4-0.9-1.1-1
		l-1.1-0.1c-1.3-0.1-2.1-0.7-2.1-1.8c0-1.3,1.1-2,2.5-2c1,0,1.9,0.2,2.5,0.7l-0.7,0.7c-0.5-0.4-1.1-0.5-1.8-0.5
		c-1,0-1.5,0.4-1.5,1.1c0,0.6,0.3,0.9,1.2,1l1.1,0.1c1.2,0.1,2,0.6,2,1.9C164.1,61.8,163,62.5,161.3,62.5z"/>
	<path class="st5" d="M170.8,56.4v6.1h-1v-6.1h-0.9v-0.8h0.9v-1.3c0-1,0.6-1.8,1.8-1.8h0.7v0.9h-0.5c-0.6,0-0.9,0.4-0.9,1v1.3h1.5
		v0.8H170.8z"/>
	<path class="st5" d="M178.1,61.8c-0.5,0.5-1.1,0.8-2,0.8s-1.5-0.3-2-0.8c-0.7-0.7-0.8-1.7-0.8-2.7s0.1-2,0.8-2.7
		c0.5-0.5,1.1-0.8,2-0.8s1.5,0.3,2,0.8c0.7,0.7,0.8,1.7,0.8,2.7S178.8,61,178.1,61.8z M177.4,56.9c-0.3-0.3-0.8-0.5-1.3-0.5
		s-0.9,0.2-1.2,0.5c-0.5,0.5-0.6,1.4-0.6,2.1s0.1,1.6,0.6,2.1c0.3,0.3,0.8,0.5,1.2,0.5s0.9-0.2,1.3-0.5c0.5-0.5,0.5-1.4,0.5-2.1
		S177.9,57.4,177.4,56.9z"/>
	<path class="st5" d="M185,56.9c-0.4-0.4-0.7-0.5-1.2-0.5c-1,0-1.7,0.8-1.7,1.8v4.2h-1v-6.9h1v0.8c0.4-0.6,1.1-0.9,1.9-0.9
		c0.7,0,1.2,0.2,1.7,0.6L185,56.9z"/>
	<path class="st5" d="M190.7,62.5v-10h1.1v9h5.1v1H190.7z"/>
	<path class="st5" d="M203,61.8c-0.5,0.5-1.1,0.8-2,0.8s-1.5-0.3-2-0.8c-0.7-0.7-0.8-1.7-0.8-2.7s0.1-2,0.8-2.7
		c0.5-0.5,1.1-0.8,2-0.8s1.5,0.3,2,0.8c0.7,0.7,0.8,1.7,0.8,2.7S203.7,61,203,61.8z M202.2,56.9c-0.3-0.3-0.8-0.5-1.3-0.5
		s-0.9,0.2-1.2,0.5c-0.5,0.5-0.6,1.4-0.6,2.1s0.1,1.6,0.6,2.1c0.3,0.3,0.8,0.5,1.2,0.5s0.9-0.2,1.3-0.5c0.5-0.5,0.5-1.4,0.5-2.1
		S202.7,57.4,202.2,56.9z"/>
	<path class="st5" d="M210.4,62.5v-4.2c0-1.2-0.7-1.8-1.7-1.8c-1,0-1.7,0.6-1.7,1.8v4.2h-1v-6.9h1v0.8c0.5-0.6,1.2-0.8,1.9-0.8
		c0.7,0,1.3,0.2,1.8,0.6c0.5,0.5,0.7,1.1,0.7,1.9v4.4H210.4z"/>
	<path class="st5" d="M217.9,62.5v-0.8c-0.6,0.7-1.2,0.9-2,0.9c-0.7,0-1.3-0.2-1.7-0.6c-0.7-0.7-0.8-1.8-0.8-2.9s0.1-2.2,0.8-2.9
		c0.4-0.4,1-0.6,1.7-0.6c0.8,0,1.4,0.2,1.9,0.9v-3.9h1v10H217.9z M216.2,56.4c-1.5,0-1.7,1.3-1.7,2.6s0.2,2.6,1.7,2.6
		c1.5,0,1.7-1.3,1.7-2.6S217.7,56.4,216.2,56.4z"/>
	<path class="st5" d="M225.9,61.8c-0.5,0.5-1.1,0.8-2,0.8s-1.5-0.3-2-0.8c-0.7-0.7-0.8-1.7-0.8-2.7s0.1-2,0.8-2.7
		c0.5-0.5,1.1-0.8,2-0.8s1.5,0.3,2,0.8c0.7,0.7,0.8,1.7,0.8,2.7S226.6,61,225.9,61.8z M225.2,56.9c-0.3-0.3-0.8-0.5-1.3-0.5
		s-0.9,0.2-1.2,0.5c-0.5,0.5-0.6,1.4-0.6,2.1s0.1,1.6,0.6,2.1c0.3,0.3,0.8,0.5,1.2,0.5s0.9-0.2,1.3-0.5c0.5-0.5,0.5-1.4,0.5-2.1
		S225.7,57.4,225.2,56.9z"/>
	<path class="st5" d="M233.3,62.5v-4.2c0-1.2-0.7-1.8-1.7-1.8c-1,0-1.7,0.6-1.7,1.8v4.2h-1v-6.9h1v0.8c0.5-0.6,1.2-0.8,1.9-0.8
		c0.7,0,1.3,0.2,1.8,0.6c0.5,0.5,0.7,1.1,0.7,1.9v4.4H233.3z"/>
</g>
<path class="st7" d="M222.6,9"/>
<polyline class="st8" points="584.3,142.1 595.4,149.9 619.2,122.6 "/>
<line class="st7" x1="478.4" y1="23.3" x2="706" y2="23.3"/>
<circle class="st9" cx="491.9" cy="13.8" r="3.4"/>
<circle class="st9" cx="504.4" cy="13.8" r="3.4"/>
<circle class="st9" cx="516.1" cy="13.8" r="3.4"/>
<line class="st10" x1="281.8" y1="5.2" x2="281.8" y2="95.2"/>
<g>
	<rect x="296.5" y="18" class="st4" width="108.1" height="26.6"/>
	<path class="st11" d="M302.3,26.5l-0.5-1.5h-3l-0.5,1.5h-1.7l3.1-8.5h1.3l3.1,8.5H302.3z M300.3,20.5l-1.1,3.1h2.1L300.3,20.5z"/>
	<path class="st11" d="M307.2,28.9c-1,0-1.6-0.2-2.3-0.8l1-1c0.3,0.3,0.7,0.5,1.2,0.5c0.9,0,1.3-0.7,1.3-1.3v-0.6
		c-0.4,0.5-0.9,0.6-1.5,0.6c-0.6,0-1.1-0.2-1.5-0.6c-0.6-0.6-0.6-1.4-0.6-2.5s0-1.9,0.6-2.5c0.3-0.3,0.9-0.6,1.5-0.6
		c0.7,0,1.1,0.2,1.5,0.7v-0.6h1.5v6C309.9,27.8,308.8,28.9,307.2,28.9z M307.3,21.6c-0.9,0-1,0.8-1,1.6s0.1,1.6,1,1.6
		c0.9,0,1-0.8,1-1.6S308.2,21.6,307.3,21.6z"/>
	<path class="st11" d="M315.1,22c-0.2-0.2-0.4-0.4-0.8-0.4c-0.5,0-1,0.4-1,1.2v3.8h-1.6v-6.2h1.5v0.6c0.3-0.4,0.9-0.7,1.6-0.7
		c0.6,0,1,0.2,1.5,0.6L315.1,22z"/>
	<path class="st11" d="M318,23.9c0,0.8,0.5,1.4,1.4,1.4c0.7,0,1-0.2,1.4-0.6l0.9,0.9c-0.6,0.6-1.2,1-2.4,1c-1.5,0-2.9-0.7-2.9-3.2
		c0-2,1.1-3.2,2.7-3.2c1.7,0,2.7,1.3,2.7,3v0.7H318z M320.2,22.1c-0.2-0.4-0.5-0.6-1-0.6s-0.9,0.3-1,0.6c-0.1,0.2-0.1,0.4-0.1,0.7
		h2.4C320.3,22.5,320.3,22.4,320.2,22.1z"/>
	<path class="st11" d="M324.6,23.9c0,0.8,0.5,1.4,1.4,1.4c0.7,0,1-0.2,1.4-0.6l0.9,0.9c-0.6,0.6-1.2,1-2.4,1c-1.5,0-2.9-0.7-2.9-3.2
		c0-2,1.1-3.2,2.7-3.2c1.7,0,2.7,1.3,2.7,3v0.7H324.6z M326.8,22.1c-0.2-0.4-0.5-0.6-1-0.6s-0.9,0.3-1,0.6c-0.1,0.2-0.1,0.4-0.1,0.7
		h2.4C326.9,22.5,326.9,22.4,326.8,22.1z"/>
</g>
<g>
	<rect x="296.5" y="46" class="st4" width="108.1" height="26.6"/>
	<path class="st5" d="M302.8,53.7c-0.5,0.5-1.3,0.8-2.2,0.8h-2.9V46h2.9c0.9,0,1.6,0.3,2.2,0.8c0.9,0.9,0.8,2.2,0.8,3.4
		C303.6,51.3,303.7,52.8,302.8,53.7z M302.2,47.4c-0.4-0.5-1-0.6-1.7-0.6h-1.9v6.9h1.9c0.7,0,1.2-0.2,1.7-0.6
		c0.6-0.6,0.6-1.9,0.6-2.9S302.7,48,302.2,47.4z"/>
	<path class="st5" d="M305.6,46.9v-1h1v1H305.6z M305.6,54.5v-5.9h0.9v5.9H305.6z"/>
	<path class="st5" d="M310.5,54.6c-1,0-1.8-0.2-2.4-0.9l0.6-0.6c0.5,0.5,1.1,0.7,1.8,0.7c1,0,1.6-0.3,1.6-1c0-0.5-0.3-0.8-1-0.9
		l-1-0.1c-1.2-0.1-1.8-0.6-1.8-1.6c0-1.1,0.9-1.7,2.2-1.7c0.8,0,1.6,0.2,2.1,0.6l-0.6,0.6c-0.4-0.3-1-0.5-1.6-0.5
		c-0.9,0-1.3,0.4-1.3,1c0,0.5,0.3,0.8,1,0.9l0.9,0.1c1,0.1,1.7,0.5,1.7,1.6C312.9,53.9,312,54.6,310.5,54.6z"/>
	<path class="st5" d="M318,54.5v-0.6c-0.5,0.5-0.9,0.6-1.7,0.6c-0.8,0-1.3-0.2-1.7-0.5c-0.3-0.3-0.4-0.7-0.4-1.2c0-1,0.7-1.7,2-1.7
		h1.8v-0.6c0-0.9-0.4-1.3-1.5-1.3c-0.8,0-1.1,0.2-1.5,0.7l-0.6-0.5c0.5-0.7,1.1-0.9,2.1-0.9c1.6,0,2.4,0.7,2.4,2v4H318z M318,51.8
		h-1.7c-0.9,0-1.3,0.4-1.3,1s0.4,1,1.4,1c0.5,0,0.9,0,1.3-0.4c0.2-0.2,0.3-0.5,0.3-1V51.8z"/>
	<path class="st5" d="M322.8,57.2c-0.9,0-1.4-0.2-2-0.8l0.6-0.6c0.4,0.4,0.7,0.6,1.4,0.6c1.1,0,1.6-0.8,1.6-1.8v-0.9
		c-0.5,0.6-1,0.8-1.7,0.8c-0.6,0-1.1-0.2-1.4-0.5c-0.6-0.6-0.7-1.5-0.7-2.5s0.1-1.9,0.7-2.5c0.3-0.3,0.8-0.5,1.4-0.5
		c0.6,0,1.2,0.1,1.7,0.8v-0.7h0.9v6.1C325.3,56.2,324.4,57.2,322.8,57.2z M323,49.3c-1.3,0-1.5,1.1-1.5,2.2c0,1.1,0.2,2.2,1.5,2.2
		s1.5-1.1,1.5-2.2C324.4,50.4,324.2,49.3,323,49.3z"/>
	<path class="st5" d="M330.7,49.7c-0.3-0.3-0.6-0.4-1-0.4c-0.9,0-1.4,0.7-1.4,1.6v3.6h-0.9v-5.9h0.9v0.7c0.3-0.5,1-0.8,1.7-0.8
		c0.6,0,1,0.1,1.4,0.6L330.7,49.7z"/>
	<path class="st5" d="M332.6,51.8c0,1.3,0.6,2,1.7,2c0.7,0,1.1-0.2,1.5-0.7l0.6,0.5c-0.6,0.6-1.2,0.9-2.2,0.9c-1.6,0-2.6-0.9-2.6-3
		c0-1.9,0.9-3,2.4-3c1.5,0,2.4,1.1,2.4,2.9v0.4H332.6z M335.6,50.2c-0.2-0.5-0.8-0.9-1.4-0.9s-1.2,0.3-1.4,0.9
		c-0.1,0.3-0.2,0.5-0.2,1h3.1C335.7,50.7,335.7,50.5,335.6,50.2z"/>
	<path class="st5" d="M339,51.8c0,1.3,0.6,2,1.7,2c0.7,0,1.1-0.2,1.5-0.7l0.6,0.5c-0.6,0.6-1.2,0.9-2.2,0.9c-1.6,0-2.6-0.9-2.6-3
		c0-1.9,0.9-3,2.4-3c1.5,0,2.4,1.1,2.4,2.9v0.4H339z M341.9,50.2c-0.2-0.5-0.8-0.9-1.4-0.9s-1.2,0.3-1.4,0.9c-0.1,0.3-0.2,0.5-0.2,1
		h3.1C342.1,50.7,342.1,50.5,341.9,50.2z"/>
</g>
<g>
	<rect x="296.5" y="73" class="st4" width="108.1" height="26.6"/>
	<path class="st5" d="M302.7,81.5l-0.7-1.9h-3.7l-0.7,1.9h-1l3.1-8.5h0.8l3.1,8.5H302.7z M300.2,74.3l-1.6,4.5h3.2L300.2,74.3z"/>
	<path class="st5" d="M306.7,81.6c-1,0-1.8-0.2-2.4-0.9l0.6-0.6c0.5,0.5,1.1,0.7,1.8,0.7c1,0,1.6-0.3,1.6-1c0-0.5-0.3-0.8-1-0.9
		l-1-0.1c-1.2-0.1-1.8-0.6-1.8-1.6c0-1.1,0.9-1.7,2.2-1.7c0.8,0,1.6,0.2,2.1,0.6l-0.6,0.6c-0.4-0.3-1-0.5-1.6-0.5
		c-0.9,0-1.3,0.4-1.3,1c0,0.5,0.3,0.8,1,0.9l0.9,0.1c1,0.1,1.7,0.5,1.7,1.6C309.1,80.9,308.2,81.6,306.7,81.6z"/>
	<path class="st5" d="M314.7,81.5l-1.9-3l-1.2,1.3v1.7h-0.9V73h0.9v5.7l2.7-3.1h1.1l-2,2.3l2.4,3.6H314.7z"/>
	<path class="st5" d="M327.8,81.5v-3.6c0-1-0.6-1.6-1.5-1.6c-0.9,0-1.5,0.5-1.5,1.5v3.7H324v-3.6c0-1-0.6-1.6-1.5-1.6
		c-0.9,0-1.5,0.5-1.5,1.6v3.6h-0.9v-5.9h0.9v0.6c0.4-0.5,1-0.7,1.7-0.7c0.8,0,1.5,0.3,1.8,1c0.5-0.6,1.1-1,1.9-1
		c0.6,0,1.2,0.2,1.5,0.6c0.4,0.4,0.6,1,0.6,1.6v3.8H327.8z"/>
	<path class="st5" d="M331.3,78.8c0,1.3,0.6,2,1.7,2c0.7,0,1.1-0.2,1.5-0.7l0.6,0.5c-0.6,0.6-1.2,0.9-2.2,0.9c-1.6,0-2.6-0.9-2.6-3
		c0-1.9,0.9-3,2.4-3c1.5,0,2.4,1.1,2.4,2.9v0.4H331.3z M334.3,77.2c-0.2-0.5-0.8-0.9-1.4-0.9s-1.2,0.3-1.4,0.9
		c-0.1,0.3-0.2,0.5-0.2,1h3.1C334.4,77.7,334.4,77.5,334.3,77.2z"/>
	<path class="st5" d="M341.6,81.5c-1,0-1.5-0.7-1.5-1.6v-7h0.9v6.9c0,0.6,0.2,0.9,0.8,0.9h0.5v0.7H341.6z"/>
	<path class="st5" d="M347.1,81.5v-0.6c-0.5,0.5-0.9,0.6-1.7,0.6c-0.8,0-1.3-0.2-1.7-0.5c-0.3-0.3-0.4-0.7-0.4-1.2
		c0-1,0.7-1.7,2-1.7h1.8v-0.6c0-0.9-0.4-1.3-1.5-1.3c-0.8,0-1.1,0.2-1.5,0.7l-0.6-0.5c0.5-0.7,1.1-0.9,2.1-0.9c1.6,0,2.4,0.7,2.4,2
		v4H347.1z M347.1,78.8h-1.7c-0.9,0-1.3,0.4-1.3,1s0.4,1,1.4,1c0.5,0,0.9,0,1.3-0.4c0.2-0.2,0.3-0.5,0.3-1V78.8z"/>
	<path class="st5" d="M351.7,81.5c-1,0-1.5-0.7-1.5-1.6v-3.6h-0.7v-0.7h0.7v-1.8h0.9v1.8h1.3v0.7H351v3.6c0,0.5,0.3,0.9,0.8,0.9h0.5
		v0.7H351.7z"/>
	<path class="st5" d="M354.5,78.8c0,1.3,0.6,2,1.7,2c0.7,0,1.1-0.2,1.5-0.7l0.6,0.5c-0.6,0.6-1.2,0.9-2.2,0.9c-1.6,0-2.6-0.9-2.6-3
		c0-1.9,0.9-3,2.4-3c1.5,0,2.4,1.1,2.4,2.9v0.4H354.5z M357.4,77.2c-0.2-0.5-0.8-0.9-1.4-0.9c-0.6,0-1.2,0.3-1.4,0.9
		c-0.1,0.3-0.2,0.5-0.2,1h3.1C357.6,77.7,357.5,77.5,357.4,77.2z"/>
	<path class="st5" d="M363.6,76.7c-0.3-0.3-0.6-0.4-1-0.4c-0.9,0-1.4,0.7-1.4,1.6v3.6h-0.9v-5.9h0.9v0.7c0.3-0.5,1-0.8,1.7-0.8
		c0.6,0,1,0.1,1.4,0.6L363.6,76.7z"/>
</g>
<line class="st12" x1="281.5" y1="36.6" x2="414.1" y2="36.6"/>
<line class="st12" x1="281.5" y1="65.6" x2="413.4" y2="65.6"/>
<g>
	<polygon class="st13" points="373.8,49.2 379,55.8 383.6,52.2 378.4,45.6 384.1,43 359,26.1 369.9,54.1 	"/>
</g>
<g>
	<g>
		<rect x="20.9" y="32.6" class="st14" width="43.9" height="32.3"/>
		<path class="st14" d="M42.9,48.8"/>
		<path class="st15" d="M21.4,33.1l18.9,19.2c1.4,1.4,4,1.4,5.3,0l18.9-19.1"/>
		<line class="st15" x1="22" y1="63.9" x2="36.5" y2="49.1"/>
		<line class="st15" x1="63.6" y1="63.7" x2="49.5" y2="49.3"/>
	</g>
</g>
<g>
	<rect x="6.7" y="109.8" class="st4" width="15.7" height="12.3"/>
	<path class="st16" d="M7.5,112.5v-1.1c0.5,0,0.9-0.1,1.1-0.1c0.3-0.1,0.6-0.2,0.8-0.4c0.1-0.2,0.3-0.4,0.3-0.6
		c0-0.2,0.1-0.3,0.1-0.3h1.4v8.5H9.5v-5.9H7.5z"/>
	<path class="st16" d="M14.2,116.6h1.8v1.8h-1.8V116.6z"/>
</g>
<g>
	<rect x="476.8" y="200.8" class="st4" width="15.7" height="12.3"/>
	<path class="st16" d="M477.6,207.7c0.2-0.6,0.8-1.2,1.7-1.8c0.8-0.6,1.3-0.9,1.5-1.2c0.3-0.4,0.5-0.8,0.5-1.2
		c0-0.4-0.1-0.7-0.3-0.9s-0.5-0.4-0.9-0.4c-0.5,0-0.9,0.2-1,0.6c-0.1,0.2-0.2,0.6-0.2,1h-1.6c0-0.7,0.2-1.3,0.4-1.8
		c0.4-0.8,1.2-1.3,2.4-1.3c0.9,0,1.6,0.2,2.1,0.7c0.5,0.5,0.8,1.2,0.8,2c0,0.6-0.2,1.2-0.6,1.7c-0.2,0.3-0.7,0.7-1.2,1.1l-0.7,0.5
		c-0.4,0.3-0.7,0.5-0.9,0.6s-0.3,0.3-0.4,0.5h3.7v1.5h-5.8C477.2,208.8,477.4,208.2,477.6,207.7z"/>
	<path class="st16" d="M484.3,207.6h1.8v1.8h-1.8V207.6z"/>
</g>
<g>
	<g>
		<path class="st17" d="M379,117.6c0,0,0,56.3,73.5,40.3"/>
		<g>
			<polygon class="st16" points="450.3,152.1 453,164 457.6,156.7 			"/>
		</g>
	</g>
</g>
<g>
</g>
<g>
</g>
<g>
</g>
<g>
</g>
<g>
</g>
<g>
</g>
<g>
</g>
</svg>
