<svg id="OUTLINES" xmlns="http://www.w3.org/2000/svg" viewBox="0 0 1152 1008"><defs><style>.cls-1{fill:#fff;}.cls-2{fill:#000f7c;}.cls-3{fill:#000f7d;}</style></defs><title>v5</title><rect class="cls-1" x="256.5" y="292.5" width="648" height="288" rx="18" ry="18"/><path class="cls-1" d="M886.5,586.5h-612a24,24,0,0,1-24-24v-252a24,24,0,0,1,24-24h612a24,24,0,0,1,24,24v252A24,24,0,0,1,886.5,586.5Zm-612-288a12,12,0,0,0-12,12v252a12,12,0,0,0,12,12h612a12,12,0,0,0,12-12v-252a12,12,0,0,0-12-12Z"/><path class="cls-2" d="M448,447.23c-1.4-12.56-2.65-23.75-4.07-36.47l-8.29-7.33L446.8,390.6c.74-8.76,1.17-10.34,3.31-14.42l5.53,6.39,2.07-1.86V395l11.88,5.89L457.21,413.1c4.54,9.41,2.79,20.67,10.51,30.67.66-5.11,1-7.83,1.42-11.13H475c2.39-7.23,6.21-12,12.21-14.33-3.84-4.55-10.21-6.62-10.67-15.63,11.47-9.23,23.67-14.85,38.35-7.55l5.64,7.58c2.25,12.82,4.47,25.49,7,39.78l8.8-6.76c.87,1.92,2,4.37,3.15,7-.83,2-1.83,4.49-3.15,7.7-8-.58-16.7,2.19-23.91-6-6.79,8-15.59,5.67-24.1,6l-13.62-11.91c-.34,3.43-.69,7-1,10.36C464.79,457.17,456.68,452,448,447.23Zm63-25.84c-7.44-1.35-7.44-1.35-15.41,2.41-1.23,3.85-2.5,7.82-3.64,11.42,6.4,11.09,12.78,4.42,19,1.86Zm-15.51-5,10.15.58c1.22-3.56,2.4-7,3.48-10.09-4.48-4.09-6.68-11.14-13.63-7.44Z"/><path class="cls-2" d="M320.09,408.16,312,401.88c1.09-1.82,1.54-3.26,2-3.27,6.15-.16,12.31-.1,17.55-.1l5.75,3.43c6.74-1.69,11.22-9.05,18-6.13,3.23,2.23,6.79,4,9.49,6.78,2.4,2.5,3.84,6.2,6.16,10.15v30.83l8.73,1.68-4.22,7.86h-25c-2.62-5.68,2.35-6.8,5-11.72-.75-9.81-1.65-21.4-2.57-33.3H342.57c-7.75,10-5.87,22.61-6.13,34.65,2.95,2.86,8.8,2.52,7.62,10.13H311.17l11.29-8.95C325.35,432,321.54,420.59,320.09,408.16Z"/><path class="cls-2" d="M539.48,408.15h14.18c9.06,6.86,19.82,8.42,30.06,11.71,3.16,1,6.3,2.77,9.48,2.86,3.79.11,4.83,4.76,7.38,5.28,6.19,1.26,4.49,10.2,10.48,11l-4.54,5.23c-12.06,1-19.9-16.09-34.26-10.79,6.07,10.7,13.54,17,25.07,21.73l7.12,9.7c-1.69,3.35-5.07,5.66-9,3.11-10.83-7.07-22.9-10-34.48-14.49-3.52-1.38-6.12-3.05-6.11-8.92l10.31-.53a12.65,12.65,0,0,0-1-2.7c-3.93-5.6-8.24-10.85-9.39-18.42-.56-3.68-2.59-6.22-6.22-6.11-4.52.13-6.93-3.61-10.18-5.79Z"/><path class="cls-2" d="M781.89,461.79c-16.94,12.62-18.44,11.29-40.7,9.87l-6.45-9.21a25.72,25.72,0,0,0-2.27-11.31c-1.69-3.47-.35-8.9-.35-14.82L747.73,420c15.16.11,30.37-4,37.52,19.54C784.45,444.76,783.23,452.86,781.89,461.79Zm-13-25.42-3.4-3.93c-8.24-1.63-15.83,1.34-22.37,6.36v14.53c8.52,4.09,16.45,10.58,25.77,2.7Z"/><path class="cls-2" d="M660.59,487h-19c-7.53-3.84-12.45-9.82-15.52-19.11-3.16-9.56-8.47-18.17-13.26-28.07l8.28-7.6c19.12-2.44,36.54,3.81,50,22.82v21.22Zm-11-38.63-17-3.7-4.35,5c1.33,3.83,1.82,9.52,4.53,12.19,5.86,5.77,12,11.94,21.51,13.32L657,469l1.08,1.23V458Z"/><path class="cls-2" d="M819.39,424.3c7,8.82,18.55,5.58,21.42,18.53-6.84,3.33-11.95-2.44-17.88-4.15l-3.49,4v16.05c3.94.93,7.89,2.48,11.55-1.81L837.3,461c3.16,4.56,4.25,11.38,2.75,19.36H819.64l-12.86-11.74c-1.14-6.06-3-11.62-3-17.18,0-5,2-9.95,3.39-16.12l-19.38-7.69c0-1-.08-2-.16-4.06h15.45c7.79-3.89,3.54-14.41,11.92-16.13C819.21,411.94,819.84,418.36,819.39,424.3Z"/><path class="cls-2" d="M378.78,430.52c-3.8-23.09,13.68-38.28,33.25-35.31,15.31,8.41,22.82,19.63,18.49,40.52C421.78,459.33,391.6,459.27,378.78,430.52Zm14.37-17c3.18,11.17-1.24,22.65,5.68,30.74h13l3.68-4.24V412.34l-6-10.57h-9.21C397.79,405.94,395.13,410.27,393.15,413.51Z"/><path class="cls-2" d="M717.43,428.85c-8.31,1.2-16.76-2.1-25.24,2.88l-4.86-17.84c-4.93.28-8.35-.8-12.18,2.35-2.48,2-7.3.37-8.31,4.47l11.82,8.16c.61,6.14,0,11.21,1.69,14.8,4.34,9.11,4.28,18.66,4.18,28.42-.06,4.91,0,9.82,0,15.73,6.52-1.49,11.75-3.48,17-3.72,11-.5,19.78-6.22,27.92-13.08V443.25Zm-1.68,36.51a3,3,0,0,1-.74,1.35,3,3,0,0,1-1,.48l-8.32,2.74a3.73,3.73,0,0,1-4.87-3.43,41.18,41.18,0,0,0-1.95-10.06c-.77-2.51-1.69-5-2.55-7.44-.3-.88-.41-1.34-.27-1.63s.62-.46,1.48-.75c4.08-1.36,8.18-2.7,12.24-4.1a1.14,1.14,0,0,1,.54-.09,1.07,1.07,0,0,1,.6.39c1.52,1.54,3.06,3.08,4.59,4.61.5.5,4.81,4.2,4.66,4.66Q717.95,458.74,715.75,465.36Z"/><path class="cls-3" d="M882,582H270a24,24,0,0,1-24-24V306a24,24,0,0,1,24-24H882a24,24,0,0,1,24,24V558A24,24,0,0,1,882,582ZM270,294a12,12,0,0,0-12,12V558a12,12,0,0,0,12,12H882a12,12,0,0,0,12-12V306a12,12,0,0,0-12-12Z"/><path class="cls-3" d="M291.94,670.5V637.87H301v3a11,11,0,0,1,8.76-3.72q5.47,0,8.51,3.28a12.41,12.41,0,0,1,3,8.76V670.5h-9.05V651.08a6.19,6.19,0,0,0-1.35-4.19,5,5,0,0,0-4-1.57,6.2,6.2,0,0,0-3.76,1.2,5.57,5.57,0,0,0-2.16,3.32V670.5Z"/><path class="cls-3" d="M358.74,654.22q0,7.51-4.46,12.27a16.41,16.41,0,0,1-23.07,0,17.27,17.27,0,0,1-4.45-12.27q0-7.59,4.45-12.34a16.41,16.41,0,0,1,23.07,0Q358.74,646.64,358.74,654.22Zm-9,0a11.43,11.43,0,0,0-1.86-6.82,6.4,6.4,0,0,0-10.3,0,11.43,11.43,0,0,0-1.86,6.82A11.28,11.28,0,0,0,337.6,661a6.4,6.4,0,0,0,10.3,0A11.28,11.28,0,0,0,349.76,654.22Z"/><path class="cls-3" d="M366.47,660.65V645.17h-5v-7.3h5V629h9v8.83h7.16v7.3h-7.16v14.31q0,3.72,3.73,3.72a7.07,7.07,0,0,0,3.94-1.09v8a12.83,12.83,0,0,1-5.84,1q-5.11,0-8-2.63T366.47,660.65Z"/><path class="cls-3" d="M883,726H269a23,23,0,0,1-23-23V593a23,23,0,0,1,23-23H883a23,23,0,0,1,23,23V703A23,23,0,0,1,883,726ZM269,582a11,11,0,0,0-11,11V703a11,11,0,0,0,11,11H883a11,11,0,0,0,11-11V593a11,11,0,0,0-11-11Z"/><path class="cls-3" d="M391.5,708.78a3,3,0,0,1-3-3V594a3,3,0,0,1,6,0V705.78A3,3,0,0,1,391.5,708.78Z"/></svg>