<svg id="OUTLINES" xmlns="http://www.w3.org/2000/svg" viewBox="0 0 1152 1008"><defs><style>.cls-1{fill:#fff;}.cls-2{fill:#000f7d;}</style></defs><title>behavioural-biometrics</title><path class="cls-1" d="M478.78,612.56a74.15,74.15,0,0,1-15.56-1.62c-25.64-5.45-43.51-24.09-49.84-40.14a6,6,0,1,1,11.16-4.4c5.15,13.06,19.89,28.28,41.18,32.81,19.6,4.17,51.57.68,92.63-39.6,28-28,41.89-63.27,55.3-97.36,18.26-46.41,35.5-90.26,86-108.72,43.56-15.9,77.36,13.16,107.19,38.79,28.24,24.28,52.64,45.25,81.17,30.47,3.47-2.13,12.6-8.64,15.59-14.62a6,6,0,0,1,10.73,5.37c-5.13,10.25-18.72,18.69-20.26,19.61l-.33.19A52.86,52.86,0,0,1,869,439.76c-25.3,0-47.88-19.41-69.9-38.34-28.66-24.63-58.31-50.11-95.26-36.62-45.45,16.61-61,56.11-79,101.85-13.85,35.22-28.18,71.65-58,101.48C531.13,603.13,500.94,612.56,478.78,612.56Z"/><path class="cls-2" d="M720,720.86H234a23,23,0,0,1-23-23V269.64a23,23,0,0,1,23-23H918a23,23,0,0,1,23,23v54.72H931V269.64a13,13,0,0,0-13-13H234a13,13,0,0,0-13,13V697.86a13,13,0,0,0,13,13H720Z"/><path class="cls-2" d="M918,720.86H234a23,23,0,0,1-23-23V269.64a23,23,0,0,1,23-23H918a23,23,0,0,1,23,23V697.86A23,23,0,0,1,918,720.86ZM234,256.64a13,13,0,0,0-13,13V697.86a13,13,0,0,0,13,13H918a13,13,0,0,0,13-13V269.64a13,13,0,0,0-13-13Z"/><path class="cls-2" d="M990,761.36H162a23,23,0,0,1-23-23v-4.5a23,23,0,0,1,23-23H990a23,23,0,0,1,23,23v4.5A23,23,0,0,1,990,761.36Zm-828-40.5a13,13,0,0,0-13,13v4.5a13,13,0,0,0,13,13H990a13,13,0,0,0,13-13v-4.5a13,13,0,0,0-13-13Z"/><path class="cls-2" d="M387,446.36H306a23,23,0,0,1-23-23v-81a23,23,0,0,1,23-23h81a23,23,0,0,1,23,23v81A23,23,0,0,1,387,446.36Zm-81-117a13,13,0,0,0-13,13v81a13,13,0,0,0,13,13h81a13,13,0,0,0,13-13v-81a13,13,0,0,0-13-13Z"/><path class="cls-2" d="M603,648.86H306a23,23,0,0,1-23-23V486.36a23,23,0,0,1,23-23H603a23,23,0,0,1,23,23v139.5A23,23,0,0,1,603,648.86ZM306,473.36a13,13,0,0,0-13,13v139.5a13,13,0,0,0,13,13H603a13,13,0,0,0,13-13V486.36a13,13,0,0,0-13-13Z"/><path class="cls-2" d="M846,648.86H666a23,23,0,0,1-23-23V486.36a23,23,0,0,1,23-23H846a23,23,0,0,1,23,23v139.5A23,23,0,0,1,846,648.86ZM666,473.36a13,13,0,0,0-13,13v139.5a13,13,0,0,0,13,13H846a13,13,0,0,0,13-13V486.36a13,13,0,0,0-13-13Z"/><path class="cls-2" d="M846,446.36H450a23,23,0,0,1-23-23v-81a23,23,0,0,1,23-23H846a23,23,0,0,1,23,23v81A23,23,0,0,1,846,446.36Zm-396-117a13,13,0,0,0-13,13v81a13,13,0,0,0,13,13H846a13,13,0,0,0,13-13v-81a13,13,0,0,0-13-13Z"/><path class="cls-2" d="M479.44,610.2a6,6,0,0,1-.15-12,71.89,71.89,0,0,0,14.62-1.89A6,6,0,1,1,496.64,608a83.62,83.62,0,0,1-17.05,2.21ZM455.76,607a6.15,6.15,0,0,1-1.73-.26,87.59,87.59,0,0,1-15.85-6.55,6,6,0,1,1,5.63-10.59,75.48,75.48,0,0,0,13.68,5.65A6,6,0,0,1,455.76,607Zm61.87-7.4a6,6,0,0,1-2.83-11.29,112.55,112.55,0,0,0,12.84-8.07,6,6,0,1,1,7,9.72,123.49,123.49,0,0,1-14.23,8.93A5.92,5.92,0,0,1,517.63,599.6Zm31.72-24.1a6,6,0,0,1-4.23-10.26c2.82-2.8,5.66-5.81,8.43-9l.26-.27c.75-.75,1.49-1.51,2.23-2.27a6,6,0,0,1,8.65,8.31c-.74.78-1.5,1.55-2.26,2.32-2.91,3.28-5.89,6.44-8.85,9.38A6,6,0,0,1,549.35,575.5Zm26.33-30a6,6,0,0,1-4.85-9.51c2.93-4.06,5.81-8.41,8.56-12.93a6,6,0,0,1,10.26,6.24c-2.92,4.79-6,9.4-9.1,13.72A6,6,0,0,1,575.68,545.48ZM596,511.06a6,6,0,0,1-5.39-8.63c2.17-4.46,4.32-9.14,6.56-14.31a6,6,0,1,1,11,4.79c-2.32,5.33-4.54,10.16-6.78,14.77A6,6,0,0,1,596,511.06Zm15.81-36.74a6,6,0,0,1-5.58-8.21c1-2.5,2-5,2.95-7.48s2-5,2.93-7.41a6,6,0,1,1,11.15,4.42c-1,2.44-1.94,4.91-2.91,7.38s-2,5-3,7.51A6,6,0,0,1,611.77,474.32Zm15-37.08a6,6,0,0,1-5.49-8.42c2.39-5.42,4.66-10.25,6.95-14.77A6,6,0,0,1,639,419.48c-2.2,4.32-4.38,9-6.68,14.18A6,6,0,0,1,626.81,437.24Zm235.45-1.19H862a57.7,57.7,0,0,1-17.35-3.7,6,6,0,1,1,4.19-11.24,45.34,45.34,0,0,0,13.73,3,6,6,0,0,1-.28,12Zm23.17-5.12a6,6,0,0,1-2.67-11.37l.77-.39A69.19,69.19,0,0,0,894,411a6,6,0,1,1,8.37,8.6,80.42,80.42,0,0,1-12.78,9.9l-.32.18c-.39.21-.79.41-1.19.61A6,6,0,0,1,885.43,430.93Zm-59.7-9.71a6,6,0,0,1-3.44-1.08c-4-2.78-8.25-6-13.08-10a6,6,0,0,1,7.58-9.31c4.6,3.75,8.65,6.83,12.38,9.44a6,6,0,0,1-3.44,10.92Zm-180-19.11a6,6,0,0,1-4.93-9.42,130.59,130.59,0,0,1,10.35-13.15,6,6,0,1,1,8.91,8,118.65,118.65,0,0,0-9.39,11.95A6,6,0,0,1,645.77,402.11ZM794.67,396a6,6,0,0,1-3.9-1.45c-3.59-3.08-7.85-6.7-12.15-10.17a6,6,0,1,1,7.54-9.33c4.42,3.57,8.76,7.25,12.42,10.39A6,6,0,0,1,794.67,396ZM673.54,373.72a6,6,0,0,1-3.42-10.93,106.53,106.53,0,0,1,14.6-8.49,6,6,0,1,1,5.2,10.81,95,95,0,0,0-13,7.54A6,6,0,0,1,673.54,373.72ZM763,371.58a6,6,0,0,1-3.2-.92,104.43,104.43,0,0,0-13.3-7.22,6,6,0,1,1,4.9-10.95,117.48,117.48,0,0,1,14.8,8,6,6,0,0,1-3.2,11.08Zm-53-13.41a6,6,0,0,1-1-11.93,68.94,68.94,0,0,1,17.45-.57,6,6,0,1,1-1.14,11.95,56.5,56.5,0,0,0-14.4.47A6.43,6.43,0,0,1,710,358.17Z"/><path class="cls-2" d="M437.92,558.22,403.4,523.7a3.47,3.47,0,0,0-5.92,2.45V575a3.47,3.47,0,0,0,4.79,3.21l34.52-14.31A3.46,3.46,0,0,0,437.92,558.22Z"/><path class="cls-2" d="M424,585.53a6,6,0,0,1-5.46-3.5l-17.06-37.21a6,6,0,1,1,10.91-5L429.42,577a6,6,0,0,1-5.45,8.5Z"/></svg>