<?xml version="1.0" encoding="utf-8"?>
<!-- Generator: Adobe Illustrator 22.0.1, SVG Export Plug-In . SVG Version: 6.00 Build 0)  -->
<svg version="1.1" id="Layer_1" xmlns="http://www.w3.org/2000/svg" xmlns:xlink="http://www.w3.org/1999/xlink" x="0px" y="0px"
	 viewBox="0 0 643.7 382.5" style="enable-background:new 0 0 643.7 382.5;" xml:space="preserve">
<style type="text/css">
	.st0{fill:#FFFFFF;}
	.st1{fill:#DDDDDD;}
	.st2{fill:#1D1D1B;}
	.st3{font-family:'Calibre-Regular';}
	.st4{font-size:10.03px;}
	.st5{font-size:8px;}
	.st6{fill:none;stroke:#1D1D1B;stroke-miterlimit:10;}
	.st7{fill:#1E1E1E;}
	.st8{fill:#FFFFFF;stroke:#1D1D1B;stroke-miterlimit:10;}
	.st9{fill:#2341C1;}
	.st10{fill:none;stroke:#2341C1;stroke-linecap:round;stroke-linejoin:round;}
	.st11{fill:none;stroke:#2341C1;stroke-linecap:round;stroke-linejoin:round;stroke-dasharray:4.02,4.02;}
</style>
<path class="st0" d="M562.7,356.5H80c-7.7,0-13.9-6.2-13.9-13.8V23.3c0-7.6,6.2-13.8,13.9-13.8h482.8c7.7,0,13.9,6.2,13.9,13.8
	v319.3C576.6,350.3,570.4,356.5,562.7,356.5z"/>
<title>behaviour-biometric</title>
<path class="st1" d="M240,37.7h-8c-1.5-0.1-2.8-1-3.3-2.4l-3.1-9.3c-0.5-1.4-1.8-2.3-3.3-2.4h-68.7c-1.5,0.1-2.9,0.9-3.6,2.3
	l-4.6,9.6c-0.7,1.3-2.1,2.2-3.6,2.3H78v17.8h485.5V37.7H240z"/>
<circle class="st1" cx="86.4" cy="30.7" r="3.4"/>
<circle class="st1" cx="98.9" cy="30.7" r="3.4"/>
<circle class="st1" cx="110.6" cy="30.7" r="3.4"/>
<path class="st0" d="M122.9,41.3h255.3c2.5,0,4.6,2.1,4.6,4.6v1.7c0,2.6-2.1,4.6-4.6,4.6H122.9c-2.5,0-4.6-2.1-4.6-4.6l0,0v-1.7
	C118.2,43.4,120.3,41.3,122.9,41.3L122.9,41.3L122.9,41.3z"/>
<text transform="matrix(1 0 0 1 88.65 49.78)" class="st2 st3 st4">&lt; &gt;</text>
<text transform="matrix(1 0 0 1 123.93 49.29)" class="st3 st5">ww</text>
<text transform="matrix(1 0 0 1 133.99 49.29)" class="st3 st5">w</text>
<text transform="matrix(1 0 0 1 138.79 49.29)" class="st3 st5">.ban</text>
<text transform="matrix(1 0 0 1 151.68 49.29)" class="st3 st5">k</text>
<text transform="matrix(1 0 0 1 155.51 49.29)" class="st3 st5">.</text>
<text transform="matrix(1 0 0 1 156.78 49.29)" class="st3 st5">c</text>
<text transform="matrix(1 0 0 1 160.33 49.29)" class="st3 st5">om</text>
<path class="st6" d="M561.4,9.5H81.3c-8.4,0-15.2,6.8-15.2,15.2v319.3c0,8.4,6.8,15.2,15.2,15.2h480.1c8.4,0,15.2-6.8,15.2-15.2
	V24.7C576.6,16.3,569.8,9.6,561.4,9.5z M563.4,346.9H78V22.5h485.5L563.4,346.9L563.4,346.9z"/>
<polygon class="st7" points="78,346.8 199.2,346.3 320.5,346 441.8,345.9 563.1,345.9 562.2,346.8 562.3,265.8 562.5,184.7 
	562.7,103.6 563.1,22.5 563.5,103.6 563.8,184.7 564,265.8 564.1,346.8 564.1,347.8 563.1,347.8 441.8,347.8 320.5,347.7 
	199.2,347.4 "/>
<path class="st2" d="M388.8,353.7l97.5,2.6l47.2,1.4l25.8,0.8h1.7h0.8c0.3,0,0.5,0,0.8,0c1-0.1,2.1-0.3,3.1-0.6
	c4.1-1.3,7.5-4.4,9.1-8.4c0.4-1,0.7-2,0.9-3.1c0.2-1.1,0.2-2.2,0.2-3.3c0-36.6-0.1-75.6-0.1-114.6s0-78,0-114.6c0-18.3,0-36,0-52.7
	V36.6c0-3.9,0-7.8,0-11.6c0.1-7.2-5.1-13.4-12.3-14.5c-0.8-0.1-1.7-0.2-2.5-0.2h-2.6h-5.1l-18.9-0.1c-11.9-0.1-22.3-0.2-30.8-0.3
	l-26.8-0.4l26.8-0.3c8.5-0.1,18.9-0.2,30.8-0.3l18.9-0.1h5.1h2.6c0.9,0,1.8,0,2.7,0.2c8,1.2,13.8,8,13.8,16.1c0,3.8,0,7.7,0,11.6
	c0,7.9,0,16,0,24.4c0,16.8,0,34.5,0,52.7c0,36.6,0,75.6,0,114.6s-0.1,78-0.1,114.6c0,1.2,0,2.4-0.2,3.5c-1.2,7.3-7.2,12.8-14.5,13.3
	c-0.3,0-0.6,0-0.9,0H561l-1.7-0.1l-25.8-0.9l-47.2-1.7L388.8,353.7z"/>
<path class="st8" d="M634.4,365.7L634.4,365.7c0,4-3.2,7.2-7.2,7.2H15.5c-4,0-7.2-3.2-7.2-7.2l0,0"/>
<path class="st8" d="M634.4,366.3v-12.6H372.6v1.4c0,2.3-1.9,4.2-4.2,4.2h-94c-2.3,0-4.2-1.9-4.2-4.2v-1.4H8.3v12"/>
<path class="st8" d="M274.4,359.3h94c2.3,0,4.2-1.9,4.2-4.2v-1.4H270.2v1.4C270.2,357.5,272.1,359.3,274.4,359.3z"/>
<path class="st8" d="M372.6,353.7v1.4c0,2.3-1.9,4.2-4.2,4.2h-94c-2.3,0-4.2-1.9-4.2-4.2v-1.4H8.3v12"/>
<path class="st2" d="M372.6,353.7l65.5-0.4l65.5-0.3l65.5-0.2l65.5-0.1c0.6,0,1,0.4,1,1l0,0v8.7v3.3c0,0.4,0,0.8-0.1,1.2
	c-0.5,3.4-3,6.1-6.3,6.9c-0.4,0.1-0.8,0.2-1.2,0.2h-0.6h-11.4h-34.8l-69.5-0.2l-69.5-0.3l-69.5-0.4l69.5-0.4l69.5-0.3l69.5-0.2h34.8
	h11.4h0.5c0.3,0,0.6-0.1,0.9-0.1c2.5-0.6,4.4-2.7,4.8-5.2c0-0.3,0.1-0.7,0.1-1v-3.3v-8.7l1,1l-65.4-0.3l-65.5-0.2l-65.5-0.3
	L372.6,353.7z"/>
<path class="st8" d="M274.4,359.3h94c2.3,0,4.2-1.9,4.2-4.2v-1.4H270.2v1.4C270.2,357.5,272.1,359.3,274.4,359.3z"/>
<rect x="127.8" y="187.2" class="st1" width="178.9" height="137.4"/>
<rect x="333.7" y="187.2" class="st1" width="179" height="137.4"/>
<rect x="129.3" y="101.2" class="st1" width="66" height="66"/>
<rect x="233.8" y="101.2" class="st1" width="279.5" height="66"/>
<polygon class="st9" points="199,223.2 199,240.8 203.4,234.9 207.7,242.2 210.3,240.6 205.9,233.3 214.2,233.3 "/>
<path class="st10" d="M210.9,243.9c0,0,0.6,0.4,1.6,1.2"/>
<path class="st11" d="M215.9,247.4c13.2,8.6,50.8,28,82.1-3.2c36.6-36.6,29.9-94.5,75.6-111.2c43-15.7,67.2,56,102.8,37.4"/>
<path class="st10" d="M478.1,169.4c0.6-0.3,1.1-0.7,1.7-1.1"/>
</svg>
