<svg id="Layer_1" data-name="Layer 1" xmlns="http://www.w3.org/2000/svg" viewBox="0 0 627.6 365.19"><defs><style>.cls-1{fill:#ddd;}.cls-2,.cls-7{fill:#fff;}.cls-3{font-size:10.03px;font-family:Calibre;white-space:pre;}.cls-3,.cls-6{fill:#1d1d1b;}.cls-10,.cls-4,.cls-9{fill:none;}.cls-4,.cls-7{stroke:#1d1d1b;stroke-miterlimit:10;}.cls-5{fill:#1e1e1e;}.cls-8{fill:#2341c1;}.cls-10,.cls-9{stroke:#2341c1;stroke-linecap:round;stroke-linejoin:round;}.cls-10{stroke-dasharray:4.02 4.02;}</style></defs><title>behaviour-biometric</title><path class="cls-1" d="M240,37.71h-8a3.74,3.74,0,0,1-3.31-2.38L225.55,26a3.74,3.74,0,0,0-3.31-2.38H153.5a4.36,4.36,0,0,0-3.59,2.26l-4.6,9.6a4.36,4.36,0,0,1-3.59,2.26H78V55.55H563.45V37.71H240Z" transform="translate(-7.81 -8.7)"/><circle class="cls-1" cx="78.58" cy="22.02" r="3.39"/><circle class="cls-1" cx="91.12" cy="22.02" r="3.39"/><circle class="cls-1" cx="102.79" cy="22.02" r="3.39"/><path class="cls-2" d="M115,32.61H370.36A4.61,4.61,0,0,1,375,37.23v1.68a4.62,4.62,0,0,1-4.62,4.62H115a4.61,4.61,0,0,1-4.61-4.61V37.23A4.61,4.61,0,0,1,115,32.61Z"/><text class="cls-3" transform="translate(80.84 41.08)">&lt;   &gt;</text><path d="M126.72,45.73l0.73,2.71,0.78-2.71h0.58l-1,3.55h-0.58l-0.74-2.7-0.74,2.7h-0.58l-1-3.55h0.6l0.78,2.71,0.73-2.71h0.54Z" transform="translate(-7.81 -8.7)"/><path d="M131.75,45.73l0.73,2.71,0.78-2.71h0.58l-1,3.55h-0.58l-0.74-2.7-0.74,2.7h-0.58l-1-3.55h0.6l0.78,2.71,0.73-2.71h0.54Z" transform="translate(-7.81 -8.7)"/><path d="M136.78,45.73l0.73,2.71,0.78-2.71h0.58l-1,3.55h-0.58l-0.74-2.7-0.74,2.7h-0.58l-1-3.55h0.6l0.78,2.71,0.73-2.71h0.54Z" transform="translate(-7.81 -8.7)"/><path d="M139.16,49.2a0.42,0.42,0,0,1-.12-0.31,0.43,0.43,0,0,1,.12-0.31,0.41,0.41,0,0,1,.31-0.13,0.4,0.4,0,0,1,.3.13,0.43,0.43,0,0,1,.12.31,0.42,0.42,0,0,1-.12.31,0.41,0.41,0,0,1-.3.12A0.42,0.42,0,0,1,139.16,49.2Z" transform="translate(-7.81 -8.7)"/><path d="M141.29,48.87v0.42h-0.61v-5.2h0.61v2.06a1.11,1.11,0,0,1,.42-0.35,1.26,1.26,0,0,1,.58-0.14,1.42,1.42,0,0,1,1.18.53,2.26,2.26,0,0,1,0,2.64,1.42,1.42,0,0,1-1.18.53,1.26,1.26,0,0,1-.58-0.14A1.11,1.11,0,0,1,141.29,48.87Zm0-2.08v1.44a1.05,1.05,0,0,0,.38.43,1,1,0,0,0,.53.16,1,1,0,0,0,.79-0.36,1.66,1.66,0,0,0,0-1.88,1,1,0,0,0-.79-0.36,1,1,0,0,0-.53.16A1.05,1.05,0,0,0,141.29,46.79Z" transform="translate(-7.81 -8.7)"/><path d="M147.28,49.29H146.7V49a1,1,0,0,1-.38.22,1.52,1.52,0,0,1-.56.1,1.43,1.43,0,0,1-.94-0.31,1,1,0,0,1-.38-0.82,1,1,0,0,1,.39-0.8,1.51,1.51,0,0,1,1-.31,1.59,1.59,0,0,1,.52.09,1.07,1.07,0,0,1,.38.2V46.94a0.76,0.76,0,0,0-.2-0.55,0.78,0.78,0,0,0-.58-0.21,0.69,0.69,0,0,0-.73.49H144.6a1.18,1.18,0,0,1,.45-0.73,1.57,1.57,0,0,1,1.87.06,1.2,1.2,0,0,1,.36.92v2.37Zm-0.58-.88V48a0.65,0.65,0,0,0-.32-0.32,1.1,1.1,0,0,0-.52-0.12,1.08,1.08,0,0,0-.6.16,0.51,0.51,0,0,0-.25.46,0.53,0.53,0,0,0,.25.47,1.06,1.06,0,0,0,.6.16,1.1,1.1,0,0,0,.52-0.12A0.65,0.65,0,0,0,146.7,48.41Z" transform="translate(-7.81 -8.7)"/><path d="M148.3,49.29V45.73h0.6v0.45a1.33,1.33,0,0,1,.44-0.37,1.26,1.26,0,0,1,.6-0.15,1.2,1.2,0,0,1,.92.35,1.33,1.33,0,0,1,.33.94v2.33h-0.61V47.05a0.91,0.91,0,0,0-.2-0.61,0.73,0.73,0,0,0-.59-0.23,0.9,0.9,0,0,0-.56.19,1,1,0,0,0-.34.48v2.41h-0.6Z" transform="translate(-7.81 -8.7)"/><path d="M154.55,49.29l-1.35-1.64-0.38.37v1.27h-0.6v-5.2h0.6v3.22l1.62-1.58h0.79l-1.6,1.54,1.66,2h-0.74Z" transform="translate(-7.81 -8.7)"/><path d="M155.89,49.2a0.42,0.42,0,0,1-.12-0.31,0.43,0.43,0,0,1,.12-0.31,0.41,0.41,0,0,1,.31-0.13,0.4,0.4,0,0,1,.3.13,0.43,0.43,0,0,1,.12.31,0.42,0.42,0,0,1-.12.31,0.41,0.41,0,0,1-.3.12A0.42,0.42,0,0,1,155.89,49.2Z" transform="translate(-7.81 -8.7)"/><path d="M157.5,48.85a2.21,2.21,0,0,1,0-2.67,1.48,1.48,0,0,1,1.17-.51,1.44,1.44,0,0,1,1,.31,1.37,1.37,0,0,1,.47.83h-0.62a0.76,0.76,0,0,0-.28-0.45,0.85,0.85,0,0,0-.53-0.16,0.87,0.87,0,0,0-.73.37,1.78,1.78,0,0,0,0,1.9,0.87,0.87,0,0,0,.73.37,0.84,0.84,0,0,0,.53-0.16,0.76,0.76,0,0,0,.28-0.45h0.62a1.37,1.37,0,0,1-.47.83,1.44,1.44,0,0,1-1,.31A1.48,1.48,0,0,1,157.5,48.85Z" transform="translate(-7.81 -8.7)"/><path d="M163.42,46.18a2.19,2.19,0,0,1,0,2.66,1.61,1.61,0,0,1-2.36,0,2.19,2.19,0,0,1,0-2.66A1.61,1.61,0,0,1,163.42,46.18ZM163,48.47a1.79,1.79,0,0,0,0-1.91,1,1,0,0,0-1.5,0,1.79,1.79,0,0,0,0,1.91A1,1,0,0,0,163,48.47Z" transform="translate(-7.81 -8.7)"/><path d="M167.21,46.23a1.26,1.26,0,0,1,1.08-.57,1,1,0,0,1,.83.34,1.39,1.39,0,0,1,.29.93v2.35H168.8V47a1,1,0,0,0-.17-0.6,0.59,0.59,0,0,0-.5-0.22,0.77,0.77,0,0,0-.49.17,0.87,0.87,0,0,0-.3.46v2.45h-0.6V47a1,1,0,0,0-.17-0.6,0.59,0.59,0,0,0-.5-0.22,0.76,0.76,0,0,0-.49.17,0.87,0.87,0,0,0-.3.46v2.45h-0.6V45.73h0.6v0.42a1,1,0,0,1,1-.49A1,1,0,0,1,167.21,46.23Z" transform="translate(-7.81 -8.7)"/><path class="cls-4" d="M561.42,9.53H81.3a15.24,15.24,0,0,0-15.2,15.2V344.06a15.24,15.24,0,0,0,15.2,15.2H561.42a15.24,15.24,0,0,0,15.2-15.2V24.72A15.24,15.24,0,0,0,561.42,9.53Zm2,337.33H78V22.52H563.45V346.86Z" transform="translate(-7.81 -8.7)"/><polygon class="cls-5" points="70.15 338.14 191.44 337.6 312.73 337.29 434.02 337.18 555.32 337.21 554.39 338.14 554.46 257.06 554.66 175.98 554.92 94.9 555.32 13.82 555.71 94.9 555.98 175.98 556.17 257.06 556.25 338.14 556.25 339.07 555.32 339.07 434.02 339.11 312.73 339 191.44 338.69 70.15 338.14"/><path class="cls-6" d="M388.8,353.7l97.53,2.63,47.24,1.38,25.79,0.75,1.65,0h0.79c0.28,0,.55,0,0.8,0a14.47,14.47,0,0,0,3.09-.6,14.55,14.55,0,0,0,9.1-8.41,14.47,14.47,0,0,0,.86-3.11,17.87,17.87,0,0,0,.18-3.29c0-36.59-.09-75.61-0.14-114.63s0-78,0-114.63c0-18.29,0-36,.05-52.74l0-24.43q0-5.92,0-11.63a14.42,14.42,0,0,0-12.27-14.49,16,16,0,0,0-2.48-.16l-2.58,0-5.07,0-18.94-.14c-11.89-.07-22.26-0.16-30.79-0.29L476.8,9.53l26.83-.34c8.54-.13,18.9-0.22,30.79-0.29l18.94-.14,5.07,0,2.58,0a17,17,0,0,1,2.72.16A16.1,16.1,0,0,1,577.48,25q0,5.71,0,11.63,0,11.83,0,24.43c0,16.77,0,34.45.05,52.74,0,36.59,0,75.61,0,114.63s-0.1,78-.14,114.63a19.47,19.47,0,0,1-.22,3.54,15.94,15.94,0,0,1-14.52,13.32c-0.3,0-.59,0-0.86,0H561l-1.65-.06L533.52,359l-47.23-1.66Z" transform="translate(-7.81 -8.7)"/><path class="cls-7" d="M634.41,365.74h0a7.25,7.25,0,0,1-7.22,7.22H15.54a7.25,7.25,0,0,1-7.22-7.22h0" transform="translate(-7.81 -8.7)"/><path class="cls-7" d="M634.41,366.29V353.7H372.56v1.44a4.21,4.21,0,0,1-4.2,4.2h-94a4.21,4.21,0,0,1-4.2-4.2V353.7H8.31v12" transform="translate(-7.81 -8.7)"/><path class="cls-7" d="M274.37,359.34h94a4.21,4.21,0,0,0,4.2-4.2V353.7H270.17v1.44A4.21,4.21,0,0,0,274.37,359.34Z" transform="translate(-7.81 -8.7)"/><path class="cls-7" d="M372.56,353.7v1.44a4.21,4.21,0,0,1-4.2,4.2h-94a4.21,4.21,0,0,1-4.2-4.2V353.7H8.31v12" transform="translate(-7.81 -8.7)"/><path class="cls-7" d="M569.8,353.7" transform="translate(-7.81 -8.7)"/><path class="cls-6" d="M372.56,353.7l65.46-.43,65.46-.27,65.46-.17,65.46-.08a1,1,0,0,1,1,1h0l0,8.69v3.26a9.12,9.12,0,0,1-.09,1.18,8.21,8.21,0,0,1-6.26,6.85,7.84,7.84,0,0,1-1.21.18l-0.61,0H615.82l-34.75,0-69.5-.18-69.5-.27-69.5-.42,69.5-.42,69.5-.27,69.5-.18,34.75,0h11.4l0.47,0a6,6,0,0,0,.93-0.15,6.31,6.31,0,0,0,4.75-5.23,7.41,7.41,0,0,0,.07-1v-3.26l0-8.69,1,1L569,354.58l-65.46-.17L438,354.13Z" transform="translate(-7.81 -8.7)"/><path class="cls-7" d="M274.37,359.34h94a4.21,4.21,0,0,0,4.2-4.2V353.7H270.17v1.44A4.21,4.21,0,0,0,274.37,359.34Z" transform="translate(-7.81 -8.7)"/><rect class="cls-1" x="119.99" y="178.54" width="178.86" height="137.35"/><rect class="cls-1" x="325.85" y="178.54" width="179" height="137.35"/><rect class="cls-1" x="121.49" y="92.54" width="66" height="66"/><rect class="cls-1" x="226.01" y="92.54" width="279.47" height="66"/><polygon class="cls-8" points="191.21 214.5 191.21 232.11 195.6 226.21 199.86 233.47 202.52 231.95 198.04 224.61 206.37 224.61 191.21 214.5"/><path class="cls-9" d="M210.93,243.91s0.56,0.45,1.6,1.2" transform="translate(-7.81 -8.7)"/><path class="cls-10" d="M215.85,247.38c13.25,8.6,50.83,28,82.08-3.21,36.62-36.62,29.91-94.54,75.59-111.24,43-15.73,67.24,56,102.84,37.44" transform="translate(-7.81 -8.7)"/><path class="cls-9" d="M478.13,169.37q0.84-.5,1.69-1.08" transform="translate(-7.81 -8.7)"/></svg>