<?xml version="1.0" encoding="utf-8"?>
<!-- Generator: Adobe Illustrator 19.1.0, SVG Export Plug-In . SVG Version: 6.00 Build 0)  -->
<svg version="1.1" id="Layer_1" xmlns="http://www.w3.org/2000/svg" xmlns:xlink="http://www.w3.org/1999/xlink" x="0px" y="0px"
	 viewBox="0 0 125.6 296.5" style="enable-background:new 0 0 125.6 296.5;" xml:space="preserve">
<style type="text/css">
	.st0{fill:#FFFFFF;}
	.st1{fill:none;stroke:#010101;stroke-miterlimit:10;}
	.st2{opacity:0.8;}
	.st3{clip-path:url(#SVGID_2_);fill:#FFFFFF;}
	.st4{clip-path:url(#SVGID_2_);fill:none;stroke:#010101;stroke-width:0.75;stroke-miterlimit:10;}
	.st5{clip-path:url(#SVGID_4_);fill:#FFFFFF;}
	.st6{clip-path:url(#SVGID_4_);fill:none;stroke:#010101;stroke-width:0.75;stroke-miterlimit:10;}
	.st7{clip-path:url(#SVGID_6_);fill:#FFFFFF;}
	.st8{clip-path:url(#SVGID_6_);fill:none;stroke:#010101;stroke-width:0.75;stroke-miterlimit:10;}
	.st9{clip-path:url(#SVGID_8_);fill:#FFFFFF;}
	.st10{clip-path:url(#SVGID_8_);fill:none;stroke:#010101;stroke-width:0.75;stroke-miterlimit:10;}
	.st11{clip-path:url(#SVGID_10_);fill:#FFFFFF;}
	.st12{clip-path:url(#SVGID_10_);fill:none;stroke:#010101;stroke-width:0.75;stroke-miterlimit:10;}
	.st13{clip-path:url(#SVGID_12_);fill:#FFFFFF;}
	.st14{clip-path:url(#SVGID_12_);fill:none;stroke:#010101;stroke-width:0.75;stroke-miterlimit:10;}
	.st15{clip-path:url(#SVGID_14_);fill:#FFFFFF;}
	.st16{clip-path:url(#SVGID_14_);fill:none;stroke:#010101;stroke-width:0.75;stroke-miterlimit:10;}
	.st17{fill:none;stroke:#010101;stroke-width:0.5;stroke-miterlimit:10;}
	.st18{clip-path:url(#SVGID_16_);fill:#FFFFFF;}
	.st19{clip-path:url(#SVGID_16_);fill:none;stroke:#010101;stroke-width:0.75;stroke-miterlimit:10;}
	.st20{clip-path:url(#SVGID_18_);fill:#FFFFFF;}
	.st21{clip-path:url(#SVGID_18_);fill:none;stroke:#010101;stroke-width:0.75;stroke-miterlimit:10;}
	.st22{clip-path:url(#SVGID_20_);fill:#FFFFFF;}
	.st23{clip-path:url(#SVGID_20_);fill:none;stroke:#010101;stroke-width:0.75;stroke-miterlimit:10;}
	.st24{clip-path:url(#SVGID_22_);fill:#FFFFFF;}
	.st25{clip-path:url(#SVGID_22_);fill:none;stroke:#010101;stroke-width:0.75;stroke-miterlimit:10;}
	.st26{clip-path:url(#SVGID_24_);fill:#FFFFFF;}
	.st27{clip-path:url(#SVGID_24_);fill:none;stroke:#010101;stroke-width:0.75;stroke-miterlimit:10;}
	.st28{clip-path:url(#SVGID_26_);fill:#FFFFFF;}
	.st29{clip-path:url(#SVGID_26_);fill:none;stroke:#010101;stroke-width:0.75;stroke-miterlimit:10;}
	.st30{fill:#3A50A2;}
</style>
<path class="st0" d="M4.3,296.4c0,0,5.5-19.3,6.2-32.5c0.8-13.1-18.7-75.7-5.5-96.6c13.2-20.9,7.8-30.1,32.7-41
	c24.9-10.8,35.1-13.1,39-11.6l3.9,1.5c0,0,3.9-0.8,10.1,1.5c6.2,2.3,14.8,23.2,10.1,25.5c-4.7,2.3,2.3-3.1,12.5,2.3
	c10.1,5.4,11.7,30.1,11.7,42.5c0,12.4-3.9,19.3-3.9,26.3c0,7-3.9,25.5-10.9,40.2c-7,14.7-20.3,33.2-17.1,41.7"/>
<path class="st1" d="M4.3,296.4c0,0,5.5-19.3,6.2-32.5c0.8-13.1-18.7-75.7-5.5-96.6c13.2-20.9,7.8-30.1,32.7-41
	c24.9-10.8,35.1-13.1,39-11.6l3.9,1.5c0,0,3.9-0.8,10.1,1.5c6.2,2.3,14.8,23.2,10.1,25.5c-4.7,2.3,2.3-3.1,12.5,2.3
	c10.1,5.4,11.7,30.1,11.7,42.5c0,12.4-3.9,19.3-3.9,26.3c0,7-3.9,25.5-10.9,40.2c-7,14.7-20.3,33.2-17.1,41.7"/>
<path class="st0" d="M6.4,165.3c0,0-2-34.2-1.6-47.5C5,109,3.4,84.2,3.1,75.3c-0.2-7.6,2.8-21.6,2.8-27c0-5.4,0-34,9.3-43.3
	c9.3-9.3,13.2-2.3,15.6,3.1c2.3,5.4,0.8,32.5,0,38.6c-0.8,6.2,2.4,17,2.4,28.2c-0.1,10.9,0.5,35.2,0.5,35.2l4.1,16.2
	c0,0,0.3-35.3,14.8-37.9c18.2-3.2,22.6,20.1,21.8,25.5"/>
<path class="st1" d="M6.4,165.3c0,0-2-34.2-1.6-47.5C5,109,3.4,84.2,3.1,75.3c-0.2-7.6,2.8-21.6,2.8-27c0-5.4,0-34,9.3-43.3
	c9.3-9.3,13.2-2.3,15.6,3.1c2.3,5.4,0.8,32.5,0,38.6c-0.8,6.2,2.4,17,2.4,28.2c-0.1,10.9,0.5,35.2,0.5,35.2l4.1,16.2
	c0,0,0.3-35.3,14.8-37.9c18.2-3.2,22.6,20.1,21.8,25.5"/>
<path class="st0" d="M43.3,185.9c0,0,3.1,13.1,11.7,4.6c0,0,6.4-40,8.6-42.4"/>
<path class="st1" d="M43.3,185.9c0,0,3.1,13.1,11.7,4.6c0,0,6.4-40,8.6-42.4"/>
<path class="st0" d="M55,190.5c0,0-1.6,21.6,3.9,22.4c5.5,0.8,10.1-1.5,14.8-11.6c4.7-10,2.3-18.5,8.6-27
	c6.2-8.5,20.5-35.7,19.1-39.5"/>
<path class="st1" d="M55,190.5c0,0-1.6,21.6,3.9,22.4c5.5,0.8,10.1-1.5,14.8-11.6c4.7-10,2.3-18.5,8.6-27
	c6.2-8.5,20.5-35.7,19.1-39.5"/>
<path class="st0" d="M73.7,201.3c0,0,1.6,9.3,10.9,4.6c9.3-4.6,26.7-26.6,32.7-33.2"/>
<path class="st1" d="M73.7,201.3c0,0,1.6,9.3,10.9,4.6c9.3-4.6,26.7-26.6,32.7-33.2"/>
<g class="st2">
	<g>
		<defs>
			<rect id="SVGID_1_" x="10.5" y="40.2" width="14.6" height="2.5"/>
		</defs>
		<clipPath id="SVGID_2_">
			<use xlink:href="#SVGID_1_"  style="overflow:visible;"/>
		</clipPath>
		<path class="st3" d="M25,41.7c-4.7,1.5-9.9-0.4-14.4-1.2"/>
		<path class="st4" d="M25,41.7c-4.7,1.5-9.9-0.4-14.4-1.2"/>
	</g>
</g>
<g class="st2">
	<g>
		<defs>
			<rect id="SVGID_3_" x="8.7" y="75.3" width="20.2" height="5.2"/>
		</defs>
		<clipPath id="SVGID_4_">
			<use xlink:href="#SVGID_3_"  style="overflow:visible;"/>
		</clipPath>
		<path class="st5" d="M9,78.4c0,0,1.6,2.3,10.1,1.5c8.6-0.8,9.3-4.6,9.3-4.6"/>
		<path class="st6" d="M9,78.4c0,0,1.6,2.3,10.1,1.5c8.6-0.8,9.3-4.6,9.3-4.6"/>
	</g>
</g>
<g class="st2">
	<g>
		<defs>
			<rect id="SVGID_5_" x="13.6" y="73.9" width="9.5" height="1.1"/>
		</defs>
		<clipPath id="SVGID_6_">
			<use xlink:href="#SVGID_5_"  style="overflow:visible;"/>
		</clipPath>
		<path class="st7" d="M13.7,74.6c0,0,3.9-0.8,9.3,0"/>
		<path class="st8" d="M13.7,74.6c0,0,3.9-0.8,9.3,0"/>
	</g>
</g>
<g class="st2">
	<g>
		<defs>
			<rect id="SVGID_7_" x="9.7" y="113.2" width="26.1" height="4.1"/>
		</defs>
		<clipPath id="SVGID_8_">
			<use xlink:href="#SVGID_7_"  style="overflow:visible;"/>
		</clipPath>
		<path class="st9" d="M9.8,115.5c0,0,21.4-5.4,25.7,1.5"/>
		<path class="st10" d="M9.8,115.5c0,0,21.4-5.4,25.7,1.5"/>
	</g>
</g>
<g class="st2">
	<g>
		<defs>
			<rect id="SVGID_9_" x="54.4" y="192.1" width="14.8" height="17.3"/>
		</defs>
		<clipPath id="SVGID_10_">
			<use xlink:href="#SVGID_9_"  style="overflow:visible;"/>
		</clipPath>
		<path class="st11" d="M54.8,198.2c0,0,0.2-3.1,5.7-5.4c5.5-2.3,9.4,9.1,8.2,16.5"/>
		<path class="st12" d="M54.8,198.2c0,0,0.2-3.1,5.7-5.4c5.5-2.3,9.4,9.1,8.2,16.5"/>
	</g>
</g>
<g class="st2">
	<g>
		<defs>
			<rect id="SVGID_11_" x="64.1" y="162.4" width="11.9" height="6.1"/>
		</defs>
		<clipPath id="SVGID_12_">
			<use xlink:href="#SVGID_11_"  style="overflow:visible;"/>
		</clipPath>
		<path class="st13" d="M64.3,162.7c0,0,7,5.4,11.7,5.4"/>
		<path class="st14" d="M64.3,162.7c0,0,7,5.4,11.7,5.4"/>
	</g>
</g>
<g class="st2">
	<g>
		<defs>
			<rect id="SVGID_13_" x="81.9" y="174.1" width="9" height="9"/>
		</defs>
		<clipPath id="SVGID_14_">
			<use xlink:href="#SVGID_13_"  style="overflow:visible;"/>
		</clipPath>
		<path class="st15" d="M82.2,174.3c0,0,3.1,7.7,8.6,8.5"/>
		<path class="st16" d="M82.2,174.3c0,0,3.1,7.7,8.6,8.5"/>
	</g>
</g>
<path class="st0" d="M76.3,193.3c0,0,11.4,1.5,12.2,10.1"/>
<path class="st17" d="M76.3,193.3c0,0,11.4,1.5,12.2,10.1"/>
<g class="st2">
	<g>
		<defs>
			<rect id="SVGID_15_" x="70.7" y="213.6" width="4.1" height="35.8"/>
		</defs>
		<clipPath id="SVGID_16_">
			<use xlink:href="#SVGID_15_"  style="overflow:visible;"/>
		</clipPath>
		<path class="st18" d="M74.5,213.7c0,0-7,23.2-0.8,35.5"/>
		<path class="st19" d="M74.5,213.7c0,0-7,23.2-0.8,35.5"/>
	</g>
</g>
<g class="st2">
	<g>
		<defs>
			<rect id="SVGID_17_" x="77.2" y="223.6" width="10" height="22.7"/>
		</defs>
		<clipPath id="SVGID_18_">
			<use xlink:href="#SVGID_17_"  style="overflow:visible;"/>
		</clipPath>
		<path class="st20" d="M77.6,223.7c0,0,6.2,14.7,9.3,22.4"/>
		<path class="st21" d="M77.6,223.7c0,0,6.2,14.7,9.3,22.4"/>
	</g>
</g>
<g class="st2">
	<g>
		<defs>
			<rect id="SVGID_19_" x="54" y="225.2" width="13.1" height="28.2"/>
		</defs>
		<clipPath id="SVGID_20_">
			<use xlink:href="#SVGID_19_"  style="overflow:visible;"/>
		</clipPath>
		<path class="st22" d="M66.7,225.3c0,0-5.5,21.6-12.5,27.8"/>
		<path class="st23" d="M66.7,225.3c0,0-5.5,21.6-12.5,27.8"/>
	</g>
</g>
<g class="st2">
	<g>
		<defs>
			<rect id="SVGID_21_" x="106.4" y="194.8" width="12.5" height="1"/>
		</defs>
		<clipPath id="SVGID_22_">
			<use xlink:href="#SVGID_21_"  style="overflow:visible;"/>
		</clipPath>
		<path class="st24" d="M106.4,195.1c0,0,6.6,0.6,12.5,0"/>
		<path class="st25" d="M106.4,195.1c0,0,6.6,0.6,12.5,0"/>
	</g>
</g>
<path class="st0" d="M6.4,165.3c0,0,8-32.6,23.4-37.3c22.9-7,37-14.8,47.1-13.2c9.5,1.4-2.3,20.9-10.9,30.9
	c-8.6,10-22.6,13.9-22.6,13.9s0.8,16.2,0,26.3c-0.8,10-16.4,23.2-16.4,23.2"/>
<path class="st1" d="M6.4,165.3c0,0,8-32.6,23.4-37.3c22.9-7,37-14.8,47.1-13.2c9.5,1.4-2.3,20.9-10.9,30.9
	c-8.6,10-22.6,13.9-22.6,13.9s0.8,16.2,0,26.3c-0.8,10-16.4,23.2-16.4,23.2"/>
<g class="st2">
	<g>
		<defs>
			<rect id="SVGID_23_" x="50.3" y="114.2" width="25.7" height="18.1"/>
		</defs>
		<clipPath id="SVGID_24_">
			<use xlink:href="#SVGID_23_"  style="overflow:visible;"/>
		</clipPath>
		<path class="st26" d="M50.7,121.7c0,0,3.1,11.6,9.3,10c6.2-1.5,14.1-3.7,14.9-7.5c0.8-3.9,1.8-11-2.8-9.5"/>
		<path class="st27" d="M50.7,121.7c0,0,3.1,11.6,9.3,10c6.2-1.5,14.1-3.7,14.9-7.5c0.8-3.9,1.8-11-2.8-9.5"/>
	</g>
</g>
<g class="st2">
	<g>
		<defs>
			<rect id="SVGID_25_" x="48.2" y="161.2" width="11.8" height="1.9"/>
		</defs>
		<clipPath id="SVGID_26_">
			<use xlink:href="#SVGID_25_"  style="overflow:visible;"/>
		</clipPath>
		<path class="st28" d="M59.9,162.4c0,0-6.5,1-11.6-0.9"/>
		<path class="st29" d="M59.9,162.4c0,0-6.5,1-11.6-0.9"/>
	</g>
</g>
<path class="st30" d="M22.1,28.4C22.2,28.3,22.2,28.3,22.1,28.4c0.5-0.3,0.9-0.6,1.4-0.9c0.4-0.3,0.8-0.6,1.1-1
	c0.3-0.3,0.5-0.6,0.7-1c0.3-0.5,0.6-0.9,0.9-1.4c0.4-0.7,0.7-1.5,1-2.3c0.1-0.4,0.2-0.8,0.2-1.2c0.1-0.9,0.2-1.8,0-2.8
	c-0.1-0.9-0.4-1.7-0.8-2.4c-0.4-0.6-0.8-1.1-1.4-1.6c-0.4-0.3-0.9-0.6-1.4-0.9c-0.9-0.4-1.8-0.7-2.7-0.7c-1.1-0.1-2.2,0.1-3.2,0.4
	c-1,0.4-2,0.9-2.9,1.5c-0.8,0.6-1.6,1.3-2.3,2.1c-0.5,0.5-0.9,1-1.3,1.5c-0.5,0.6-0.9,1.3-1.3,2c0,0.1-0.1,0.2-0.1,0.3
	c-0.1,0.2-0.3,0.3-0.5,0.3c-0.2-0.1-0.4-0.3-0.3-0.6c0.1-0.2,0.2-0.4,0.3-0.6c0.2-0.4,0.5-0.9,0.8-1.3c0.7-0.9,1.4-1.8,2.2-2.6
	c0.9-0.9,1.8-1.7,2.9-2.3c0.8-0.5,1.7-0.9,2.6-1.2c1.7-0.5,3.4-0.5,5.1,0c0.7,0.2,1.3,0.5,2,0.9c1.3,0.8,2.3,2,2.8,3.4
	c0.3,0.8,0.5,1.6,0.5,2.5c0.1,1.1,0,2.3-0.3,3.4c-0.1,0.3-0.2,0.6-0.3,0.9c-0.2,0.6-0.5,1.1-0.8,1.7c-0.2,0.4-0.5,0.9-0.7,1.3
	c-0.4,0.6-0.8,1.2-1.4,1.7c-0.4,0.4-0.9,0.7-1.3,1c-0.4,0.2-0.7,0.5-1.1,0.7c-0.2,0.1-0.4,0.3-0.5,0.5c-0.1,0.1-0.1,0.2-0.2,0.3
	c-0.1,0.2-0.2,0.4-0.4,0.6c-0.3,0.4-0.7,0.7-1.1,1c-0.7,0.5-1.4,1-2.1,1.4c-1.1,0.7-2.3,1.3-3.5,1.9c-0.1,0.1-0.3,0.1-0.4,0
	c-0.3-0.2-0.3-0.6,0-0.7c0,0,0.1,0,0.1-0.1c1.5-0.7,3-1.5,4.4-2.4c0.5-0.4,1.1-0.7,1.6-1.1c0.2-0.2,0.4-0.4,0.6-0.6
	c0.1-0.1,0.1-0.2,0.2-0.3c0,0,0-0.1,0-0.1c0-0.5,0.1-0.9,0.2-1.3c0.2-0.4,0.4-0.8,0.7-1.1c0.4-0.4,0.7-0.8,1.1-1.1
	c0.4-0.4,0.7-0.7,1-1.2c0.3-0.4,0.5-0.8,0.7-1.2c0-0.1,0-0.1,0.1-0.2c0.1-0.2,0.3-0.3,0.6-0.2c0.2,0.1,0.3,0.3,0.3,0.5
	c0,0.1-0.1,0.2-0.1,0.3c-0.1,0.3-0.3,0.6-0.5,0.9c-0.4,0.7-1,1.2-1.6,1.8c-0.3,0.3-0.7,0.7-1,1c-0.1,0.2-0.3,0.3-0.4,0.5
	C22.2,28.3,22.2,28.3,22.1,28.4C22.1,28.3,22.1,28.3,22.1,28.4"/>
<path class="st30" d="M18.8,28.4C18.7,28.5,18.7,28.5,18.8,28.4c-0.9,0.5-1.7,0.9-2.5,1.2c-0.7,0.4-1.5,0.7-2.2,1.1
	c-0.6,0.3-1.2,0.7-1.7,1.1c-0.1,0.1-0.2,0.2-0.3,0.2c-0.2,0.1-0.4,0.1-0.5,0c-0.2-0.1-0.2-0.3-0.2-0.5c0-0.1,0.1-0.2,0.1-0.2
	c0.3-0.3,0.6-0.5,0.9-0.7c0.6-0.4,1.3-0.8,2-1.1c0.8-0.4,1.7-0.8,2.5-1.2c0.8-0.4,1.6-0.8,2.4-1.3c0.7-0.4,1.4-0.9,2-1.5
	c0.5-0.4,0.9-0.9,1.3-1.5c0.3-0.4,0.6-0.9,0.8-1.4c0.3-0.7,0.5-1.4,0.6-2.1c0-0.6,0-1.2-0.3-1.8c-0.2-0.5-0.6-1-1-1.4
	c-0.3-0.3-0.7-0.5-1.1-0.7c-0.4-0.2-0.8-0.2-1.3-0.2c-0.4,0.1-0.8,0.2-1.2,0.4c-0.5,0.3-0.9,0.6-1.4,1c-0.5,0.5-1,1-1.4,1.5
	c-0.3,0.4-0.6,0.7-0.9,1.1c-0.1,0.2-0.2,0.4-0.4,0.5c-0.1,0.1-0.2,0.2-0.3,0.3c-0.8,0.9-1.7,1.7-2.7,2.4c-0.6,0.4-1.2,0.8-1.8,1
	c-0.3,0.1-0.6,0.2-0.9,0.3c-0.2,0-0.3,0-0.5-0.1c-0.2-0.2-0.1-0.6,0.2-0.7c0.3-0.1,0.5-0.1,0.8-0.3c0.6-0.2,1.1-0.5,1.6-0.9
	c0.7-0.4,1.3-1,1.8-1.5c0,0,0,0,0.1-0.1c0,0,0,0,0,0c-0.5,0.1-0.9,0.3-1.3,0.6c-0.2,0.2-0.4,0.4-0.6,0.6c-0.1,0.1-0.3,0.2-0.5,0.1
	c-0.2-0.1-0.3-0.2-0.3-0.4c0-0.1,0-0.2,0.1-0.3c0.5-0.7,1.2-1.1,2.1-1.4c0.3-0.1,0.6-0.1,0.9-0.2c0.1,0,0.2-0.1,0.3-0.1
	c0.4-0.1,0.7-0.4,0.9-0.7c0.6-0.9,1.3-1.7,2.1-2.5c0.4-0.4,0.9-0.7,1.4-1c0.4-0.2,0.8-0.4,1.2-0.5c0.7-0.2,1.4-0.2,2.1,0.1
	c0.9,0.4,1.7,1,2.2,1.8c0.5,0.8,0.8,1.6,0.8,2.5c0,0.7-0.1,1.3-0.3,1.9c-0.2,0.7-0.6,1.4-1,2.1c-0.7,1.1-1.6,2-2.6,2.7
	c-0.4,0.3-0.9,0.6-1.3,0.9c0,0-0.1,0-0.1,0c0,0.2,0,0.4,0,0.6c0,0.4-0.2,0.8-0.4,1.1c-0.4,0.6-0.8,1-1.3,1.4
	c-0.6,0.4-1.2,0.8-1.8,1.2c-1,0.5-2,1-3,1.4c-0.1,0-0.2,0.1-0.4,0c-0.2-0.1-0.3-0.2-0.3-0.4c0-0.2,0.1-0.3,0.3-0.4
	c0.1,0,0.2-0.1,0.3-0.1c1.1-0.4,2.1-0.9,3.1-1.5c0.5-0.3,1-0.7,1.5-1.1c0.3-0.2,0.5-0.5,0.7-0.8c0.2-0.2,0.3-0.5,0.3-0.7
	C18.8,28.5,18.8,28.5,18.8,28.4C18.8,28.5,18.8,28.5,18.8,28.4"/>
<path class="st30" d="M12.2,19.5c0-0.2,0-0.4,0-0.5c0-0.4,0.1-0.7,0.2-1c0.2-0.6,0.6-1,1-1.5c0.1-0.1,0.2-0.2,0.4-0.2
	c0.2,0,0.3,0.1,0.4,0.3c0.1,0.2,0,0.3-0.1,0.5c-0.1,0.2-0.3,0.3-0.4,0.5c-0.3,0.3-0.5,0.7-0.6,1.1c0,0.2-0.1,0.4,0,0.6
	c0.1,0,0.1,0,0.2-0.1c0.1-0.1,0.3-0.2,0.3-0.3c0.1-0.1,0.2-0.2,0.3-0.4c0.4-0.6,0.8-1.2,1.3-1.7c0.8-0.9,1.8-1.6,2.9-2.1
	c0.9-0.4,1.8-0.6,2.7-0.6c0.1,0,0.3,0,0.4,0c0,0,0,0,0.1,0C21.2,14.1,21.1,14,21,14c-0.2-0.1-0.3-0.1-0.5-0.1
	c-0.6-0.1-1.2,0-1.8,0.1c-0.6,0.2-1.1,0.4-1.7,0.7c-0.6,0.3-1.2,0.7-1.8,1.2C15,16,14.8,16,14.6,15.8c-0.2-0.2-0.1-0.5,0.1-0.6
	c0.2-0.1,0.3-0.3,0.5-0.4c0.7-0.5,1.5-1,2.3-1.3c0.5-0.2,1.1-0.4,1.7-0.5c0.6-0.1,1.2-0.1,1.8,0.1c0.4,0.1,0.7,0.3,1,0.6
	c0.2,0.2,0.3,0.4,0.3,0.6c0,0.1,0.1,0.1,0.1,0.1c0.2,0.1,0.4,0.2,0.6,0.3c0.5,0.3,1,0.6,1.5,1c0.7,0.6,1.2,1.4,1.5,2.2
	c0.1,0.1,0.1,0.3,0.2,0.4c0,0,0,0,0-0.1c0-0.1,0-0.2,0.1-0.4c0-0.2,0-0.4-0.1-0.5c-0.2-0.7-0.5-1.2-1-1.7c-0.3-0.4-0.7-0.7-1.1-0.9
	c-0.3-0.2-0.6-0.4-0.9-0.5c-0.1,0-0.2-0.1-0.2-0.1c-0.1,0-0.2-0.1-0.2-0.1c-0.1-0.1-0.2-0.4-0.1-0.5c0.1-0.2,0.3-0.2,0.5-0.2
	c0.1,0,0.2,0.1,0.3,0.1c0.4,0.2,0.8,0.4,1.2,0.7c0.5,0.4,1,0.8,1.4,1.3c0.4,0.5,0.7,1.1,1,1.8c0.1,0.4,0.1,0.8,0.1,1.2
	c-0.1,0.3-0.2,0.6-0.3,1c-0.1,0.2-0.1,0.4-0.2,0.7c0,0.1,0,0.3,0,0.4c0.1,0.4,0.1,0.7,0,1.1c0,0.1-0.1,0.3-0.2,0.4
	c-0.1,0.2-0.2,0.3-0.3,0.5c-0.1,0.2-0.4,0.3-0.6,0.1c-0.2-0.1-0.3-0.4-0.2-0.6c0.1-0.2,0.2-0.3,0.3-0.5c0.1-0.2,0.1-0.4,0.1-0.7
	c-0.1-0.6-0.2-1.2-0.4-1.8c-0.2-0.7-0.6-1.4-1.1-2.1c-0.3-0.4-0.7-0.7-1.1-1c-0.3-0.2-0.7-0.4-1-0.6c-0.1,0-0.2-0.1-0.3-0.1
	C21.3,15,20.7,15,20,15.1c-0.9,0.1-1.8,0.5-2.6,1c-0.7,0.4-1.3,1-1.9,1.6c-0.4,0.4-0.7,0.9-1,1.4c-0.2,0.3-0.4,0.5-0.6,0.7
	c-0.3,0.2-0.6,0.4-1,0.3c-0.1,0-0.2,0-0.3,0.1c-0.7,0.5-1.3,1-1.9,1.6c-0.3,0.4-0.7,0.8-0.9,1.2c-0.1,0.1-0.1,0.3-0.2,0.4
	c-0.1,0.2-0.3,0.4-0.5,0.3c-0.2-0.1-0.4-0.3-0.3-0.6c0.1-0.3,0.2-0.5,0.4-0.8c0.4-0.7,0.9-1.2,1.5-1.8
	C11.2,20.3,11.7,19.9,12.2,19.5C12.2,19.5,12.2,19.5,12.2,19.5"/>
<path class="st30" d="M29,14.5c0-0.3-0.1-0.6-0.1-0.9c-0.2-0.6-0.5-1.1-1-1.5c-0.4-0.3-0.8-0.6-1.2-0.9c-0.5-0.3-1-0.5-1.5-0.8
	c-1.1-0.5-2.2-0.8-3.3-1c-1.4-0.2-2.7-0.2-4,0.2c-1.1,0.3-2.1,0.7-3,1.4c-0.6,0.4-1.1,0.8-1.6,1.3c-0.1,0.1-0.3,0.2-0.4,0.1
	c-0.3-0.1-0.5-0.5-0.2-0.7c0.2-0.2,0.4-0.4,0.6-0.5c1.1-0.9,2.3-1.6,3.6-2.1c1.7-0.6,3.4-0.8,5.1-0.5c0.9,0.1,1.7,0.3,2.6,0.6
	c0.5,0.2,1,0.4,1.5,0.6c0.5,0.3,1.1,0.5,1.6,0.8c0.5,0.3,1,0.7,1.4,1.1c0.6,0.6,0.9,1.3,1,2.2c0.1,0.5,0.1,0.9,0.1,1.4
	c0,0.6,0.1,1.2,0.2,1.8c0.1,0.5,0.2,0.9,0.4,1.3c0.3,0.9,0.5,1.8,0.6,2.7c0.1,1,0,2-0.1,3c-0.2,1.4-0.5,2.7-0.9,4.1
	c0,0.1-0.1,0.2-0.1,0.4c-0.1,0.2-0.3,0.4-0.6,0.3c-0.2-0.1-0.3-0.3-0.3-0.6c0.1-0.4,0.3-0.8,0.4-1.2c0.4-1.3,0.6-2.6,0.7-4
	c0.1-1,0-1.9-0.1-2.8c-0.1-0.5-0.2-1-0.4-1.5c-0.3-0.9-0.5-1.9-0.6-2.8c0-0.1,0-0.1-0.1-0.2c-0.7-0.5-1.3-1.1-1.7-1.8
	c-0.2-0.3-0.4-0.5-0.6-0.7c-0.3-0.3-0.7-0.6-1.1-0.9c-0.4-0.2-0.8-0.4-1.2-0.6c-0.5-0.2-1-0.4-1.6-0.5c-0.1,0-0.2-0.1-0.3-0.2
	c-0.1-0.1-0.1-0.3,0-0.5c0.1-0.2,0.3-0.2,0.5-0.2c0.2,0,0.3,0.1,0.5,0.1c0.8,0.2,1.6,0.6,2.4,1c0.6,0.4,1.2,0.8,1.7,1.3
	c0.2,0.2,0.5,0.5,0.6,0.8C28.3,13.8,28.6,14.2,29,14.5C29,14.5,29,14.5,29,14.5"/>
<path class="st30" d="M21.2,23.3C21.2,23.4,21.2,23.4,21.2,23.3c-0.4,0.3-0.9,0.6-1.3,0.7c-0.5,0.1-1,0.1-1.5-0.1
	c-0.2-0.1-0.3-0.1-0.4-0.2c-0.1-0.1-0.3-0.2-0.4-0.2c-0.2,0-0.3,0-0.4,0.1c-0.2,0.1-0.4,0.2-0.6,0c-0.2-0.1-0.2-0.4-0.1-0.5
	c0,0,0.1-0.1,0.1-0.1c0.3-0.3,0.6-0.4,1-0.3c0.3,0,0.6,0.1,0.9,0.3c0.1,0.1,0.3,0.2,0.4,0.2c0.4,0.1,0.7,0.1,1.1,0
	c0.3-0.1,0.6-0.3,0.9-0.6c0.5-0.4,0.8-0.9,1.1-1.5c0.1-0.3,0.2-0.5,0.3-0.8c0,0,0-0.1,0-0.1c0-0.2-0.1-0.4-0.2-0.6
	c-0.2-0.4-0.5-0.7-0.9-0.9c-0.2-0.1-0.3-0.1-0.5-0.2c-0.4-0.1-0.7,0-1,0.2c-0.3,0.1-0.5,0.3-0.7,0.6c-0.3,0.3-0.5,0.6-0.8,0.9
	c-0.4,0.6-0.8,1.1-1.2,1.7c-0.1,0.2-0.3,0.5-0.4,0.7c-0.3,0.4-0.6,0.7-0.9,1c-0.6,0.6-1.3,1.1-2,1.5c-1.2,0.7-2.5,1.3-3.8,1.8
	c-0.2,0.1-0.3,0.1-0.4,0c-0.1-0.1-0.2-0.2-0.2-0.4c0-0.2,0.1-0.3,0.3-0.4c0.2-0.1,0.4-0.1,0.5-0.2c1.1-0.4,2.2-1,3.3-1.6
	c0.6-0.4,1.2-0.8,1.7-1.3c0.4-0.3,0.7-0.7,0.9-1.1c0.2-0.4,0.5-0.8,0.7-1.1c0.4-0.6,0.8-1.2,1.3-1.7c0.3-0.3,0.6-0.6,1-0.9
	c0.3-0.2,0.6-0.3,0.9-0.4c0.5-0.1,0.9-0.1,1.4,0.1c0.3,0.1,0.5,0.2,0.8,0.4c0.4,0.3,0.7,0.6,0.8,1.1c0.2,0.5,0.3,1,0.3,1.6
	c0,0.6-0.1,1.1-0.3,1.7c-0.1,0.4-0.3,0.8-0.6,1.2c-0.6,1-1.5,1.9-2.6,2.4c-0.1,0.1-0.2,0.1-0.4,0c-0.2-0.1-0.3-0.2-0.3-0.4
	c0-0.2,0.1-0.3,0.2-0.4c0,0,0.1,0,0.1,0c0.7-0.3,1.2-0.8,1.7-1.3C21,23.7,21.1,23.6,21.2,23.3C21.2,23.4,21.2,23.4,21.2,23.3
	C21.2,23.4,21.2,23.3,21.2,23.3"/>
<path class="st30" d="M21.7,32.5C21.7,32.5,21.7,32.5,21.7,32.5c0.4-0.1,0.8-0.2,1.2-0.2c0.4,0,0.8-0.2,1.1-0.4
	c0.3-0.2,0.6-0.5,0.8-0.8c0.4-0.5,0.7-0.9,0.9-1.5c0.1-0.2,0.2-0.4,0.3-0.6c0-0.1,0.1-0.1,0.1-0.2c0.1-0.1,0.4-0.2,0.6,0
	c0.2,0.1,0.2,0.3,0.1,0.5c-0.2,0.5-0.5,1-0.8,1.5c-0.4,0.6-0.8,1.1-1.3,1.5c-0.4,0.3-0.8,0.6-1.3,0.7c-0.2,0-0.4,0.1-0.5,0.1
	c-0.4,0-0.8,0.1-1.2,0.2c-0.8,0.2-1.6,0.5-2.3,0.9c-0.1,0.1-0.2,0.1-0.4,0.2c-0.3,0.2-0.7,0.3-1,0.5c-0.5,0.3-1,0.6-1.4,0.8
	c-0.1,0.1-0.2,0.1-0.4,0c-0.2-0.1-0.3-0.2-0.3-0.4c0-0.2,0-0.3,0.2-0.4c0,0,0.1,0,0.1-0.1c1.6-0.9,3.1-1.9,4.6-3
	c1.2-0.9,2.4-1.9,3.4-3c0.5-0.6,1.1-1.1,1.5-1.8c0.5-0.7,1-1.4,1.4-2.1c0.3-0.5,0.5-0.9,0.7-1.4c0.2-0.5,0.4-1,0.5-1.5
	c0.2-0.7,0.3-1.4,0.3-2.1c0-0.1,0-0.2,0-0.4c0-0.3,0.3-0.5,0.6-0.4c0.2,0.1,0.3,0.2,0.3,0.4c0,0.2,0,0.3,0,0.5
	c0,0.6-0.1,1.1-0.2,1.7c-0.1,0.5-0.3,1.1-0.5,1.6c-0.1,0.4-0.3,0.7-0.5,1.1c-0.2,0.5-0.5,1-0.8,1.5c-0.2,0.4-0.5,0.8-0.8,1.1
	c-0.5,0.6-1,1.2-1.5,1.8c-0.9,1-1.8,1.9-2.8,2.7C22.3,31.9,22,32.2,21.7,32.5C21.7,32.4,21.7,32.4,21.7,32.5
	C21.7,32.5,21.7,32.5,21.7,32.5"/>
<path class="st30" d="M25.6,8c-0.2-0.3-0.4-0.6-0.7-0.8c-0.3-0.2-0.7-0.4-1.1-0.5c-0.2,0-0.3-0.2-0.3-0.3C23.4,6,23.7,5.7,24,5.8
	c0.2,0.1,0.4,0.1,0.6,0.2c0.3,0.1,0.5,0.2,0.8,0.4c0.3,0.2,0.6,0.5,0.8,0.8c0.2,0.2,0.3,0.5,0.5,0.8c0.2,0.3,0.5,0.6,0.8,0.9
	c0,0,0.1,0,0.1,0.1c1.2,0.7,2.2,1.5,3,2.6c0.4,0.5,0.7,0.9,0.9,1.5c0,0.1,0.1,0.2,0,0.3c0,0.2-0.2,0.3-0.4,0.3
	c-0.2,0-0.3-0.1-0.4-0.2c0,0,0,0,0,0c-0.3-0.6-0.7-1.2-1.2-1.7c-0.4-0.5-0.9-0.9-1.4-1.3c-0.2-0.1-0.3-0.3-0.5-0.4
	c-0.1-0.1-0.3-0.2-0.4-0.3c-0.1-0.1-0.2-0.2-0.4-0.2c-0.4-0.2-0.7-0.4-1.1-0.5c-0.7-0.3-1.4-0.5-2.1-0.7c-0.8-0.2-1.6-0.3-2.3-0.4
	c-1.3-0.1-2.7,0-4,0.3c0,0-0.1,0-0.1,0C17,8.3,16.7,8.2,16.7,8c-0.1-0.2,0.1-0.5,0.3-0.5c0.4-0.1,0.8-0.2,1.2-0.3
	c1.3-0.2,2.6-0.2,3.8,0c1,0.2,1.9,0.4,2.8,0.6C25.1,7.8,25.3,7.9,25.6,8C25.6,8,25.6,8,25.6,8"/>
<path class="st30" d="M10.5,15.3c0-0.1,0.1-0.1,0.2-0.2c0.8-0.9,1.7-1.8,2.7-2.6c1-0.7,2-1.3,3.1-1.8c1.3-0.5,2.6-0.8,4-0.8
	c0.3,0,0.5,0,0.8,0c0.2,0,0.4,0.1,0.4,0.3c0.1,0.3-0.1,0.5-0.4,0.5c-0.1,0-0.1,0-0.2,0c-1,0-2,0.1-3,0.3c-1.2,0.3-2.2,0.8-3.2,1.4
	c-0.9,0.6-1.8,1.3-2.6,2.1c-0.4,0.4-0.7,0.8-1.1,1.2c-0.2,0.3-0.6,0.2-0.8-0.1C10.4,15.6,10.4,15.4,10.5,15.3"/>
<path class="st30" d="M18.4,25.1c-0.1,0.2-0.3,0.3-0.5,0.2c-0.2,0-0.3-0.1-0.5-0.1c-0.1,0-0.2-0.1-0.3-0.1c-0.3-0.1-0.6-0.1-0.8,0.1
	c-0.2,0.1-0.5,0.3-0.7,0.4c-0.8,0.5-1.5,1-2.3,1.5c-0.6,0.4-1.2,0.7-1.9,1c-0.4,0.2-0.9,0.3-1.4,0.4c-0.1,0-0.2,0-0.3-0.1
	c-0.1-0.1-0.2-0.3-0.2-0.5c0-0.2,0.2-0.3,0.4-0.3c0.1,0,0.2,0,0.4-0.1c0.4-0.1,0.8-0.2,1.2-0.4c0.6-0.3,1.2-0.6,1.8-1
	c0.7-0.4,1.3-0.9,1.9-1.3c0.2-0.1,0.4-0.3,0.6-0.4c0.3-0.2,0.7-0.3,1.1-0.3c0.2,0,0.4,0.1,0.6,0.2c0.2,0.1,0.4,0.1,0.6,0.2
	C18.5,24.6,18.6,24.9,18.4,25.1"/>
<path class="st30" d="M29.3,25.5c-0.3,0.6-0.6,1.2-0.8,1.7c-0.1,0.2-0.2,0.5-0.2,0.7c0,0.1,0,0.2,0,0.3c0,1-0.1,1.9-0.5,2.8
	c-0.1,0.4-0.3,0.7-0.5,1c-0.2,0.4-0.5,0.7-0.9,1c-0.2,0.2-0.5,0.1-0.6-0.1c-0.2-0.2-0.1-0.4,0.1-0.6c0.1-0.1,0.2-0.2,0.4-0.3
	c0.2-0.2,0.4-0.5,0.6-0.8c0.5-0.9,0.6-1.9,0.6-3c0-0.3,0.1-0.6,0.1-0.9c0.1-0.4,0.3-0.7,0.4-1.1c0.2-0.5,0.5-1,0.7-1.5
	c0-0.1,0.1-0.1,0.1-0.2c0.1-0.2,0.4-0.3,0.6-0.1c0.2,0.1,0.3,0.4,0.2,0.6C29.5,25.2,29.4,25.3,29.3,25.5"/>
<path class="st30" d="M10.6,30c0,0,0.1-0.1,0.1-0.1c0.5-0.4,1.1-0.8,1.6-1.1c1.2-0.7,2.4-1.3,3.6-1.9c0.7-0.3,1.4-0.6,2.1-0.8
	c0.1,0,0.2,0,0.3,0c0.2,0.1,0.3,0.2,0.3,0.4c0,0.2-0.1,0.3-0.3,0.4C18.2,26.9,18,27,17.8,27c-1.6,0.6-3.2,1.3-4.7,2.2
	c-0.7,0.4-1.3,0.8-1.9,1.3c-0.2,0.2-0.5,0.1-0.7-0.1C10.5,30.3,10.5,30.1,10.6,30"/>
<path class="st30" d="M21,21.1c-0.2,0.3-0.5,0.7-0.7,1c-0.2,0.2-0.3,0.3-0.5,0.4c-0.2,0.1-0.5,0.2-0.7,0.1c-0.5-0.1-0.9-0.5-0.9-1.2
	c0-0.3,0.1-0.5,0.2-0.7c0.4-0.6,0.9-1.1,1.5-1.3c0.2-0.1,0.3-0.1,0.5-0.1c0.2,0,0.3,0,0.5,0.1c0.3,0.1,0.5,0.4,0.5,0.7
	c0,0.2-0.1,0.4-0.1,0.6C21.1,20.7,21.1,20.9,21,21.1 M20.5,20C20.4,20,20.4,20,20.5,20c-0.1,0-0.2,0.1-0.3,0.1
	c-0.3,0.1-0.5,0.3-0.7,0.5c-0.2,0.2-0.3,0.3-0.4,0.5c0,0.1-0.1,0.2-0.1,0.3c0,0.1,0.1,0.2,0.3,0.2c0,0,0.1,0,0.1-0.1
	c0.1-0.1,0.2-0.2,0.3-0.3c0.3-0.3,0.5-0.7,0.7-1C20.4,20.2,20.4,20.1,20.5,20"/>
<path class="st30" d="M31.7,21.3c-0.2-0.1-0.2-0.2-0.2-0.4c0-0.3,0-0.7,0.1-1c0-1-0.1-2.1-0.3-3.1c-0.1-0.5-0.3-1-0.5-1.5
	c-0.1-0.1-0.1-0.2-0.2-0.3c-0.1-0.2-0.1-0.4,0.1-0.5c0.1-0.1,0.4-0.2,0.5-0.1c0.1,0,0.1,0.1,0.2,0.2c0.2,0.3,0.3,0.6,0.4,0.9
	c0.4,0.9,0.5,1.8,0.6,2.8c0.1,0.9,0.1,1.7,0,2.6c0,0.2-0.1,0.3-0.2,0.4C32,21.4,31.8,21.4,31.7,21.3"/>
<path class="st30" d="M18.5,35.3c0.1-0.1,0.2-0.2,0.4-0.2c0.3,0,0.6,0,0.9-0.1c1-0.1,1.9-0.3,2.8-0.7c0.7-0.2,1.3-0.5,2-0.9
	c0.2-0.1,0.3-0.1,0.5,0c0.1,0.1,0.2,0.3,0.2,0.4c0,0.1-0.1,0.2-0.2,0.3c-0.2,0.1-0.4,0.2-0.6,0.3c-1.3,0.7-2.7,1.1-4.2,1.3
	C19.7,36,19.3,36,18.9,36c-0.1,0-0.2,0-0.3-0.1C18.4,35.7,18.4,35.5,18.5,35.3"/>
<path class="st30" d="M27.8,7.4c0.6,0.3,1,0.7,1.4,1.3c0.2,0.2,0.1,0.6-0.2,0.7c-0.2,0.1-0.4,0-0.5-0.1c-0.1-0.1-0.1-0.1-0.2-0.2
	c-0.3-0.3-0.6-0.6-1-0.9c0,0-0.1,0-0.1-0.1C27,8,26.9,7.7,27,7.5c0.1-0.2,0.4-0.3,0.6-0.2C27.7,7.3,27.7,7.4,27.8,7.4"/>
<path class="st30" d="M20.1,6.7c-0.1-0.1-0.2-0.2-0.2-0.4C19.9,6.1,20,6,20.2,6c0.1,0,0.1,0,0.2-0.1c0.6-0.1,1.1-0.2,1.7-0.2
	c0.1,0,0.1,0,0.2,0c0.2,0,0.4,0.2,0.4,0.5c0,0.2-0.2,0.4-0.5,0.4c-0.5,0-1.1,0.1-1.6,0.2c0,0-0.1,0-0.1,0
	C20.3,6.8,20.2,6.8,20.1,6.7"/>
<g>
</g>
<g>
</g>
<g>
</g>
<g>
</g>
<g>
</g>
<g>
</g>
</svg>
