<svg id="OUTLINES" xmlns="http://www.w3.org/2000/svg" viewBox="0 0 1152 1008"><defs><style>.cls-1{fill:#fff;}.cls-2{fill:#000f7c;}</style></defs><title>v5</title><circle class="cls-1" cx="418.5" cy="670.5" r="126"/><path class="cls-1" d="M418.5,802.49c-72.78,0-132-59.21-132-132s59.21-132,132-132a132.14,132.14,0,0,1,132,132C550.5,743.28,491.29,802.49,418.5,802.49Zm0-252a120,120,0,1,0,120,120A120.13,120.13,0,0,0,418.5,550.5Z"/><circle class="cls-1" cx="742.5" cy="346.5" r="126"/><path class="cls-1" d="M742.5,478.49c-72.78,0-132-59.21-132-132s59.21-132,132-132a132.14,132.14,0,0,1,132,132C874.5,419.28,815.29,478.49,742.5,478.49Zm0-252a120,120,0,1,0,120,120A120.13,120.13,0,0,0,742.5,226.5Z"/><path class="cls-2" d="M738,474c-72.78,0-132-59.22-132-132s59.22-132,132-132,132,59.22,132,132S810.79,474,738,474Zm0-252A120,120,0,1,0,858,342,120.13,120.13,0,0,0,738,222Z"/><path class="cls-2" d="M738,257.51v21.65a62.86,62.86,0,1,0,44.44,18.41l-9.28,9.29V272.93h33.92l-9.33,9.33A84.49,84.49,0,1,1,738,257.51m0-10a94.47,94.47,0,1,0,73.52,35.12l2.63-2.63a10,10,0,0,0-7.07-17.07H773.16a10,10,0,0,0-10,10v33.93a10,10,0,0,0,17.07,7.07l1.55-1.55A52.85,52.85,0,1,1,738,289.16a10,10,0,0,0,10-10V257.51a10,10,0,0,0-10-10Z"/><path class="cls-2" d="M414,474c-72.78,0-132-59.21-132-132s59.21-132,132-132,132,59.21,132,132A132.14,132.14,0,0,1,414,474Zm0-252A120,120,0,1,0,534,342,120.13,120.13,0,0,0,414,222Z"/><path class="cls-2" d="M414,257.46l24,24H425v45.7a62.81,62.81,0,0,0,62.47,56.37v.25a84.92,84.92,0,0,1-15.71,19.93A84.6,84.6,0,0,1,414,362.35a84.58,84.58,0,0,1-57.76,41.34,84.92,84.92,0,0,1-15.71-19.93v-.25A62.83,62.83,0,0,0,403,327.14v-45.7H390l24-24m0-10a10,10,0,0,0-7.07,2.92l-24,24A10,10,0,0,0,390,291.44h3v35.17a52.83,52.83,0,0,1-52.47,46.9,10,10,0,0,0-10,10v.25a10,10,0,0,0,1.31,4.95A94.43,94.43,0,0,0,349.41,411a10,10,0,0,0,6.83,2.71,9.59,9.59,0,0,0,1.85-.18A94.15,94.15,0,0,0,414,380.06a94.15,94.15,0,0,0,55.91,33.45,9.77,9.77,0,0,0,1.86.18A10,10,0,0,0,478.6,411a94.69,94.69,0,0,0,17.57-22.27,10,10,0,0,0,1.31-4.95v-.25a10,10,0,0,0-10-10A52.83,52.83,0,0,1,435,326.61V291.44h3a10,10,0,0,0,7.07-17.07l-24-24a10,10,0,0,0-7.07-2.92Z"/><path class="cls-2" d="M738,798c-72.78,0-132-59.22-132-132s59.22-132,132-132,132,59.22,132,132S810.79,798,738,798Zm0-252A120,120,0,1,0,858,666,120.14,120.14,0,0,0,738,546Z"/><path class="cls-2" d="M700.73,634.05a27.5,27.5,0,1,1,27.5-27.5A27.53,27.53,0,0,1,700.73,634.05Zm0-45a17.5,17.5,0,1,0,17.5,17.5A17.52,17.52,0,0,0,700.73,589.05Z"/><path class="cls-2" d="M804.26,693.62a27.5,27.5,0,1,1,27.5-27.5A27.52,27.52,0,0,1,804.26,693.62Zm0-45a17.5,17.5,0,1,0,17.5,17.5A17.52,17.52,0,0,0,804.26,648.62Z"/><path class="cls-2" d="M700.73,753.19a27.5,27.5,0,1,1,27.5-27.5A27.53,27.53,0,0,1,700.73,753.19Zm0-45a17.5,17.5,0,1,0,17.5,17.5A17.52,17.52,0,0,0,700.73,708.19Z"/><path class="cls-2" d="M414,798c-72.78,0-132-59.21-132-132s59.21-132,132-132A132.14,132.14,0,0,1,546,666C546,738.78,486.79,798,414,798Zm0-252A120,120,0,1,0,534,666,120.13,120.13,0,0,0,414,546Z"/><path class="cls-2" d="M376.73,753.19a27.5,27.5,0,0,1,0-55,27.24,27.24,0,0,1,11.91,2.73l60.26-34.8-60.26-34.79a27.49,27.49,0,1,1,15.5-27.05l64.21,37.07a27.5,27.5,0,1,1,0,49.55L404.14,728A27.54,27.54,0,0,1,376.73,753.19Zm0-45a17.5,17.5,0,1,0,17.5,17.5c0-.18,0-.34,0-.5a5,5,0,0,1,2.5-4.48l69.09-39.88a5,5,0,0,1,5.17.09,17.5,17.5,0,1,0,0-29.6,5,5,0,0,1-5.17.1L396.7,611.53a5,5,0,0,1-2.5-4.47l0-.49a17.55,17.55,0,1,0-8.2,14.79,5,5,0,0,1,5.17-.1l69.09,39.89a5,5,0,0,1,2.49,4.47c0,.16,0,.32,0,.48s0,.36,0,.53a5,5,0,0,1-2.49,4.47L391.2,711a5,5,0,0,1-5.17-.1A17.39,17.39,0,0,0,376.73,708.19Z"/><path class="cls-2" d="M612,348H540a6,6,0,0,1,0-12h72a6,6,0,0,1,0,12Z"/><path class="cls-2" d="M612,672H540a6,6,0,0,1,0-12h72a6,6,0,0,1,0,12Z"/></svg>