<?xml version="1.0" encoding="utf-8"?>
<!-- Generator: Adobe Illustrator 19.1.0, SVG Export Plug-In . SVG Version: 6.00 Build 0)  -->
<svg version="1.1" id="Layer_1" xmlns="http://www.w3.org/2000/svg" xmlns:xlink="http://www.w3.org/1999/xlink" x="0px" y="0px"
	 viewBox="0 0 428 511.3" style="enable-background:new 0 0 428 511.3;" xml:space="preserve">
<style type="text/css">
	.st0{fill:#3A50A2;}
	.st1{fill:#010101;}
	.st2{fill:none;stroke:#030303;stroke-width:5;}
	.st3{fill:none;}
	.st4{fill:none;stroke:#020202;stroke-width:0.5;stroke-linecap:round;stroke-linejoin:round;}
	.st5{fill:none;stroke:#020202;stroke-width:2;stroke-linecap:round;stroke-linejoin:round;}
	.st6{fill:none;stroke:#020202;stroke-linecap:round;stroke-linejoin:round;}
	.st7{fill:#FFFFFF;stroke:#020202;stroke-width:2;stroke-linecap:round;stroke-linejoin:round;}
	.st8{fill:#1D1D1B;}
	.st9{fill:#FFFFFF;stroke:#020202;stroke-width:0.5;stroke-linecap:round;stroke-linejoin:round;}
</style>
<g>
	<g>
		<g>
			<path class="st0" d="M-473.8,143.4c-9,0.6-16.2,4.1-21.6,10.8c-5.5,6.9-7.7,14.7-6.6,23.5c1.2,8.8,5.4,16.2,12.6,22.2
				c7.2,6,15.3,8.7,24.1,8.1c8.9-0.5,16.3-4.2,22-11c5.4-6.5,7.5-14.2,6.3-23.3c-1.2-9.1-5.3-16.5-12.5-22.4
				C-456.6,145.5-464.7,142.8-473.8,143.4z M-473,149.2c7.4-0.5,14,1.8,19.8,6.6c5.9,4.8,9.3,10.9,10.3,18.3c1,7.4-0.8,13.8-5.2,19
				c-4.7,5.6-10.6,8.6-17.9,9.1c-7.3,0.4-13.9-1.8-19.8-6.7c-5.9-4.9-9.4-10.9-10.3-18.1c-0.9-7.2,0.9-13.6,5.5-19.2
				C-486.3,152.6-480.4,149.7-473,149.2z"/>
			<path class="st0" d="M-484.6,172c0.2-8.2,5.4-12.9,12.6-13.4c10.4-0.6,17.7,6.5,19,16.5c1.3,9.7-4.4,17.7-14.6,18.4
				c-7,0.4-13.8-3.5-16-11.8l8.2-0.5c0.8,4.3,3.9,5.7,7.9,5.4c4.6-0.3,7.1-4.7,6.2-11.3c-0.9-6.8-4-10.3-8.8-10
				c-3.6,0.2-6.5,1.7-6.5,6.2l2.4-0.2l-5.6,6.8l-7.3-6L-484.6,172z"/>
		</g>
	</g>
</g>
<path class="st1" d="M87.5,268.4c-4.5,0.3-8,2.1-10.7,5.4c-0.7,0.9-1.3,1.8-1.8,2.8l7.9,2.9c0.4-2.1,2.2-3.5,4.6-3.8l-0.4-3l2.2-0.1
	l0.4,3c1.6,0,3.3,0.3,5.2,1.5l-2.2,2.8c-1-0.6-2.3-1-3.5-0.9c-1,0.1-2.3,0.4-2.1,1.7c0,0.2,0.1,0.3,0.2,0.5l2.7,1l1.8,0.6
	c1.2,0.4,2.2,0.8,3.3,1.2l10.6,3.8c0.2-1.3,0.1-2.7-0.1-4.2c-0.6-4.5-2.7-8.1-6.2-11C96,269.4,92,268.1,87.5,268.4L87.5,268.4z
	 M73.7,280.1c-0.4,1.7-0.4,3.4-0.2,5.3c0.6,4.3,2.6,8,6.2,10.9c3.6,3,7.6,4.3,12,4c4.4-0.3,8-2.1,10.8-5.5c0.9-1.1,1.7-2.3,2.2-3.6
	l-7.8-2.8c-0.2,2.5-2.2,4.3-4.8,4.7l0.4,3l-2.2,0.1l-0.4-3c-2.2,0.1-4.5-0.7-6.3-2l2.3-2.9c1.5,1.1,2.8,1.6,4.6,1.5
	c1.1-0.1,2.4-0.6,2.2-2.1c-0.1-0.5-0.3-0.9-0.7-1.1l-2-0.7l-2.5-0.9c-1.2-0.4-2.2-0.8-3.3-1.2L73.7,280.1L73.7,280.1z M87,264.9
	c5.5-0.3,10.4,1.3,14.7,4.8c4.3,3.5,6.8,8.1,7.5,13.5c0.7,5.5-0.5,10.1-3.8,14.1c-3.5,4.1-7.9,6.3-13.3,6.7
	c-5.3,0.3-10.2-1.3-14.6-4.9c-4.4-3.6-6.9-8.1-7.6-13.4c-0.7-5.3,0.6-10.1,4-14.2C77.2,267.4,81.6,265.2,87,264.9"/>
<g>
	<g>
		<path class="st1" d="M77.7,171.8c-0.1-0.7-0.8-1.3-1.5-1.2l-8.3,0.5c-0.7,0-1.2,0.7-1.1,1.4l1.1,8.3l2.3-0.1l1.3,9.8l6.3-0.4
			l-1.3-9.8l2.3-0.1L77.7,171.8L77.7,171.8z"/>
		<path class="st1" d="M71.2,164c1.6-0.1,3,1.1,3.2,2.7c0.2,1.6-0.9,2.9-2.5,3c-1.6,0.1-3-1.1-3.2-2.7
			C68.5,165.5,69.6,164.1,71.2,164z"/>
	</g>
	<path class="st1" d="M70.2,156.9c-5.6,0.3-10.1,2.6-13.5,6.7c-3.5,4.3-4.8,9.2-4.1,14.7c0.7,5.5,3.4,10.2,7.9,13.9
		c4.5,3.7,9.5,5.4,15.1,5.1c5.6-0.3,10.2-2.6,13.7-6.9c3.4-4,4.7-8.9,3.9-14.6c-0.7-5.7-3.3-10.3-7.8-14
		C80.9,158.2,75.9,156.5,70.2,156.9z M70.7,160.5c4.6-0.3,8.7,1.1,12.4,4.1c3.7,3,5.8,6.8,6.4,11.4c0.6,4.6-0.5,8.6-3.3,11.9
		c-2.9,3.5-6.6,5.4-11.2,5.7c-4.5,0.3-8.7-1.1-12.4-4.2c-3.7-3.1-5.9-6.8-6.5-11.3c-0.6-4.5,0.6-8.5,3.4-12
		C62.4,162.7,66.1,160.8,70.7,160.5z"/>
</g>
<line class="st2" x1="56.7" y1="171.7" x2="89.5" y2="182.8"/>
<g>
	<polygon class="st3" points="291.6,359.2 81.6,375.7 40.6,77.1 250.7,60.6 	"/>
	<path class="st1" d="M93.5,73.6c0.7-0.2,1.6-0.3,2.5-0.4c1.7-0.1,3,0.2,4,0.9c0.9,0.7,1.6,1.7,1.8,3.2c0.2,1.5-0.1,2.8-0.8,3.7
		c-0.7,0.9-2.1,1.5-3.9,1.7c-0.9,0.1-1.6,0.1-2.2,0.1L93.5,73.6z M95.9,81.8c0.3,0,0.8,0,1.2,0c2.6-0.2,3.8-1.8,3.4-4.3
		c-0.3-2.2-1.8-3.5-4.3-3.3c-0.6,0-1.1,0.1-1.4,0.2L95.9,81.8z"/>
	<path class="st1" d="M105,79l-0.5,3l-1.3,0.1l1.8-9.6l1.5-0.1l4.6,9.1l-1.3,0.1l-1.4-2.9L105,79z M107.9,77.8l-1.3-2.6
		c-0.3-0.6-0.5-1.1-0.7-1.7l0,0c-0.1,0.6-0.1,1.1-0.2,1.7l-0.5,2.8L107.9,77.8z"/>
	<path class="st1" d="M111.9,73l-2.9,0.2l-0.2-1l6.9-0.5l0.2,1l-2.9,0.2l1.2,8.3l-1.2,0.1L111.9,73z"/>
	<path class="st1" d="M118.3,78l-0.5,3l-1.3,0.1l1.8-9.6l1.5-0.1l4.6,9.1l-1.3,0.1l-1.4-2.9L118.3,78z M121.2,76.8l-1.3-2.6
		c-0.3-0.6-0.5-1.1-0.7-1.7l0,0c-0.1,0.6-0.1,1.1-0.2,1.7l-0.5,2.8L121.2,76.8z"/>
	<path class="st1" d="M129.8,77.1l-0.5,3l-1.3,0.1l1.8-9.6l1.5-0.1l4.6,9.1l-1.3,0.1l-1.4-2.9L129.8,77.1z M132.7,75.9l-1.3-2.6
		c-0.3-0.6-0.5-1.1-0.7-1.7l0,0c-0.1,0.6-0.1,1.1-0.2,1.7l-0.5,2.8L132.7,75.9z"/>
	<path class="st1" d="M144.1,78.5c-0.5,0.2-1.5,0.6-2.8,0.7c-1.4,0.1-2.6-0.2-3.7-1c-0.9-0.7-1.6-1.9-1.8-3.4
		c-0.4-2.8,1.2-5,4.4-5.2c1.1-0.1,2,0.1,2.4,0.2l-0.1,1c-0.5-0.2-1.2-0.3-2.1-0.2c-2.3,0.2-3.6,1.7-3.2,4.1c0.4,2.4,2,3.7,4.2,3.5
		c0.8-0.1,1.3-0.2,1.6-0.4l-0.4-2.8l-1.9,0.1l-0.1-1l3.1-0.2L144.1,78.5z"/>
	<path class="st1" d="M144.6,69.6c0.6-0.2,1.5-0.3,2.3-0.4c1.3-0.1,2.2,0.1,2.8,0.5c0.5,0.4,0.9,1,1,1.7c0.2,1.2-0.5,2.1-1.4,2.5
		l0,0c0.8,0.2,1.3,0.8,1.7,1.8c0.5,1.3,0.9,2.2,1.1,2.5l-1.3,0.1c-0.2-0.3-0.5-1-1-2.2c-0.5-1.3-1-1.7-2.2-1.7l-1.1,0.1l0.6,4
		l-1.2,0.1L144.6,69.6z M146.5,73.7l1.2-0.1c1.3-0.1,2-0.9,1.9-1.9c-0.2-1.2-1.1-1.7-2.4-1.6c-0.6,0-1,0.1-1.2,0.2L146.5,73.7z"/>
	<path class="st1" d="M157.7,73.4l-3.6,0.3l0.5,3.4l4.1-0.3l0.2,1l-5.3,0.4l-1.4-9.3l5.1-0.4l0.2,1l-3.9,0.3l0.4,3l3.6-0.3
		L157.7,73.4z"/>
	<path class="st1" d="M164.6,72.9l-3.6,0.3l0.5,3.4l4.1-0.3l0.2,1l-5.3,0.4l-1.4-9.3l5.1-0.4l0.2,1l-3.9,0.3l0.4,3l3.6-0.3
		L164.6,72.9z"/>
	<path class="st1" d="M174.5,72.4c-0.3-1.3-0.6-2.9-0.7-4l0,0c-0.2,1.1-0.4,2.3-0.7,3.6l-1,4.7l-0.9,0.1l-2.2-4.3
		c-0.6-1.3-1.2-2.5-1.6-3.5l0,0c0.1,1.2,0.3,2.7,0.4,4.1l0.3,4l-1.2,0.1l-0.7-9.4l1.5-0.1L170,72c0.6,1.1,1,2.1,1.4,3.1l0,0
		c0.1-1,0.3-2,0.5-3.2l1-4.6l1.5-0.1l2,9.3l-1.2,0.1L174.5,72.4z"/>
	<path class="st1" d="M182.6,71.5l-3.6,0.3l0.5,3.4l4.1-0.3l0.2,1l-5.3,0.4l-1.4-9.3l5.1-0.4l0.2,1l-3.9,0.3l0.4,3l3.6-0.3
		L182.6,71.5z"/>
	<path class="st1" d="M185.2,75.7l-1.4-9.3l1.3-0.1l3.7,4.5c0.9,1,1.5,2,2.1,2.9l0,0c-0.3-1.2-0.5-2.4-0.7-3.8l-0.6-3.9l1.1-0.1
		l1.4,9.3l-1.2,0.1l-3.7-4.5c-0.8-1-1.6-2-2.2-3l0,0c0.2,1.2,0.4,2.3,0.7,3.8l0.6,4L185.2,75.7z"/>
	<path class="st1" d="M194.9,66.5l-2.9,0.2l-0.2-1l6.9-0.5l0.2,1l-2.9,0.2l1.2,8.3l-1.2,0.1L194.9,66.5z"/>
	<path class="st1" d="M46.2,106.3l1,6.7l-0.9,0.1l-1-6.7L46.2,106.3z"/>
	<path class="st1" d="M54.2,107.6c0,0.3,0.1,0.7,0.2,1.3l0.4,2.8c0.2,1.1,0,1.8-0.4,2.2c-0.4,0.5-1.1,0.7-1.7,0.7
		c-0.6,0-1.2,0-1.7-0.3l0.1-0.7c0.3,0.2,0.9,0.3,1.5,0.3c0.9-0.1,1.5-0.6,1.3-1.8l-0.1-0.5l0,0c-0.2,0.5-0.7,0.9-1.4,0.9
		c-1.2,0.1-2.2-0.8-2.4-2.2c-0.2-1.6,0.7-2.6,1.8-2.7c0.8-0.1,1.4,0.3,1.6,0.7l0,0l-0.1-0.7L54.2,107.6z M53.6,109.6
		c0-0.1-0.1-0.3-0.1-0.4c-0.2-0.5-0.7-0.9-1.4-0.8c-0.8,0.1-1.3,0.8-1.2,1.9c0.1,0.9,0.7,1.7,1.7,1.6c0.5,0,1-0.4,1.1-1
		c0-0.2,0-0.3,0-0.5L53.6,109.6z"/>
	<path class="st1" d="M56.4,106.1c0.1,0.3-0.1,0.6-0.5,0.6c-0.3,0-0.6-0.2-0.6-0.5c0-0.3,0.1-0.6,0.5-0.6
		C56.1,105.6,56.3,105.8,56.4,106.1z M56.3,112.3l-0.7-4.8l0.9-0.1l0.7,4.8L56.3,112.3z"/>
	<path class="st1" d="M58.3,107.3l1.3,2.6c0.2,0.4,0.4,0.8,0.6,1.2l0,0c0.1-0.4,0.1-0.8,0.2-1.3l0.5-2.8l0.9-0.1l-1.2,4.9l-0.8,0.1
		l-2.5-4.6L58.3,107.3z"/>
	<path class="st1" d="M63.5,109.5c0.2,1.2,1,1.6,1.9,1.5c0.6,0,1-0.2,1.3-0.4l0.2,0.6c-0.3,0.2-0.8,0.4-1.6,0.4
		c-1.5,0.1-2.5-0.8-2.7-2.2c-0.2-1.4,0.5-2.6,1.9-2.8c1.6-0.1,2.2,1.2,2.3,2.1c0,0.2,0,0.3,0,0.4L63.5,109.5z M65.9,108.6
		c-0.1-0.6-0.4-1.4-1.4-1.3c-0.9,0.1-1.2,0.9-1.1,1.5L65.9,108.6z"/>
	<path class="st1" d="M69.9,108c-0.1-0.6-0.2-1.1-0.3-1.6l0.8-0.1l0.2,0.8l0,0c0.3-0.6,0.8-1,1.6-1.1c1.2-0.1,2.2,0.8,2.4,2.3
		c0.3,1.7-0.7,2.7-1.8,2.7c-0.6,0.1-1.2-0.2-1.6-0.6l0,0l0.4,2.6l-0.9,0.1L69.9,108z M71,109.2c0,0.1,0.1,0.2,0.1,0.4
		c0.2,0.6,0.8,1,1.5,0.9c0.9-0.1,1.4-0.9,1.2-2c-0.1-1-0.8-1.7-1.7-1.7c-0.6,0-1.1,0.5-1.2,1.2c0,0.1,0,0.2,0,0.4L71,109.2z"/>
	<path class="st1" d="M76.2,108.5c0.2,1.2,1,1.6,1.9,1.5c0.6,0,1-0.2,1.3-0.4l0.2,0.6c-0.3,0.2-0.8,0.4-1.6,0.4
		c-1.5,0.1-2.5-0.8-2.7-2.2c-0.2-1.4,0.5-2.6,1.9-2.8c1.6-0.1,2.2,1.2,2.3,2.1c0,0.2,0,0.3,0,0.4L76.2,108.5z M78.7,107.6
		c-0.1-0.6-0.4-1.4-1.4-1.3c-0.9,0.1-1.2,0.9-1.1,1.5L78.7,107.6z"/>
	<path class="st1" d="M80.6,107c-0.1-0.6-0.2-1-0.3-1.5l0.8-0.1l0.2,0.9l0,0c0.1-0.7,0.6-1.1,1.2-1.2c0.1,0,0.2,0,0.3,0l0.1,0.8
		c-0.1,0-0.2,0-0.3,0c-0.6,0-1,0.5-1,1.2c0,0.1,0,0.3,0,0.4l0.4,2.6l-0.9,0.1L80.6,107z"/>
	<path class="st1" d="M83.8,106.6c-0.1-0.5-0.1-0.9-0.2-1.3l0.8-0.1l0.2,0.8l0,0c0.2-0.5,0.6-0.9,1.4-1c0.7-0.1,1.2,0.3,1.5,0.9l0,0
		c0.1-0.3,0.3-0.5,0.4-0.7c0.3-0.2,0.6-0.4,1-0.4c0.6,0,1.6,0.3,1.9,2l0.4,2.8l-0.9,0.1l-0.4-2.7c-0.1-0.9-0.6-1.4-1.3-1.4
		c-0.5,0-0.8,0.4-0.9,0.9c0,0.1,0,0.3,0,0.4l0.4,3l-0.9,0.1l-0.4-2.9c-0.1-0.8-0.5-1.3-1.2-1.2c-0.5,0-0.9,0.5-1,1
		c0,0.1,0,0.3,0,0.4l0.4,2.9l-0.9,0.1L83.8,106.6z"/>
	<path class="st1" d="M92.7,103.2c0.1,0.3-0.1,0.6-0.5,0.6c-0.3,0-0.6-0.2-0.6-0.5c0-0.3,0.1-0.6,0.5-0.6
		C92.4,102.7,92.7,102.9,92.7,103.2z M92.6,109.4l-0.7-4.8l0.9-0.1l0.7,4.8L92.6,109.4z"/>
	<path class="st1" d="M94.7,108.4c0.3,0.1,0.8,0.3,1.2,0.3c0.6-0.1,0.9-0.4,0.8-0.8c-0.1-0.4-0.3-0.6-1-0.8
		c-0.9-0.2-1.4-0.7-1.5-1.3c-0.1-0.8,0.4-1.5,1.5-1.5c0.5,0,0.9,0.1,1.2,0.2l-0.1,0.6c-0.2-0.1-0.6-0.2-1-0.2
		c-0.5,0-0.8,0.4-0.7,0.7c0.1,0.4,0.4,0.6,1,0.7c0.9,0.2,1.4,0.6,1.5,1.3c0.1,0.8-0.4,1.5-1.6,1.6c-0.5,0-1,0-1.4-0.2L94.7,108.4z"
		/>
	<path class="st1" d="M98.7,108.1c0.3,0.1,0.8,0.3,1.2,0.3c0.6-0.1,0.9-0.4,0.8-0.8c-0.1-0.4-0.3-0.6-1-0.8
		c-0.9-0.2-1.4-0.7-1.5-1.3c-0.1-0.8,0.4-1.5,1.5-1.5c0.5,0,0.9,0.1,1.2,0.2l-0.1,0.6c-0.2-0.1-0.6-0.2-1-0.2
		c-0.5,0-0.8,0.4-0.7,0.7c0.1,0.4,0.4,0.6,1,0.7c0.9,0.3,1.4,0.6,1.5,1.3c0.1,0.8-0.4,1.5-1.6,1.6c-0.5,0-1,0-1.4-0.2L98.7,108.1z"
		/>
	<path class="st1" d="M102.9,102.4c0.1,0.3-0.1,0.6-0.5,0.6c-0.3,0-0.6-0.2-0.6-0.5c0-0.3,0.1-0.6,0.5-0.6
		C102.6,101.9,102.9,102.1,102.9,102.4z M102.8,108.6l-0.7-4.8l0.9-0.1l0.7,4.8L102.8,108.6z"/>
	<path class="st1" d="M109.2,105.7c0.3,1.8-0.9,2.6-2,2.7c-1.3,0.1-2.4-0.8-2.7-2.3c-0.2-1.6,0.7-2.6,2-2.7
		C107.9,103.3,108.9,104.2,109.2,105.7z M105.3,106c0.2,1,0.9,1.8,1.7,1.7c0.8-0.1,1.3-0.9,1.2-2c-0.1-0.8-0.7-1.8-1.7-1.7
		C105.5,104.1,105.2,105.1,105.3,106z"/>
	<path class="st1" d="M110.1,104.5c-0.1-0.5-0.1-0.9-0.2-1.3l0.8-0.1l0.2,0.8l0,0c0.2-0.5,0.7-1,1.5-1c0.7-0.1,1.8,0.3,2,1.9
		l0.4,2.9l-0.9,0.1l-0.4-2.8c-0.1-0.8-0.5-1.4-1.3-1.3c-0.6,0-1,0.5-1,1c0,0.1,0,0.3,0,0.4l0.4,2.9l-0.9,0.1L110.1,104.5z"/>
	<path class="st1" d="M118.3,107.4l-0.6-4.1l-0.7,0.1l-0.1-0.7l0.7-0.1l0-0.2c-0.1-0.7,0-1.3,0.3-1.7c0.3-0.3,0.7-0.5,1.1-0.5
		c0.3,0,0.6,0,0.8,0.1l0,0.7c-0.1,0-0.3-0.1-0.6-0.1c-0.7,0.1-0.8,0.7-0.7,1.5l0,0.3l1.2-0.1l0.1,0.7l-1.2,0.1l0.6,4.1L118.3,107.4z
		"/>
	<path class="st1" d="M125,104.4c0.3,1.8-0.9,2.6-2,2.7c-1.3,0.1-2.4-0.8-2.7-2.3c-0.2-1.6,0.7-2.6,2-2.7
		C123.7,102,124.8,103,125,104.4z M121.2,104.8c0.2,1,0.9,1.8,1.7,1.7c0.8-0.1,1.3-0.9,1.2-2c-0.1-0.8-0.7-1.8-1.7-1.7
		S121.1,103.9,121.2,104.8z"/>
	<path class="st1" d="M126,103.5c-0.1-0.6-0.2-1-0.3-1.5l0.8-0.1l0.2,0.9l0,0c0.1-0.7,0.6-1.1,1.2-1.2c0.1,0,0.2,0,0.3,0l0.1,0.8
		c-0.1,0-0.2,0-0.3,0c-0.6,0-1,0.5-1,1.2c0,0.1,0,0.3,0,0.4l0.4,2.6l-0.9,0.1L126,103.5z"/>
	<path class="st1" d="M132,100.1l0.2,1.4l1.3-0.1l0.1,0.7l-1.3,0.1l0.4,2.6c0.1,0.6,0.3,0.9,0.8,0.9c0.2,0,0.4-0.1,0.5-0.1l0.1,0.6
		c-0.2,0.1-0.4,0.2-0.8,0.2c-0.4,0-0.8-0.1-1-0.3c-0.3-0.2-0.4-0.7-0.5-1.2l-0.4-2.6l-0.7,0.1l-0.1-0.7l0.7-0.1l-0.2-1.1L132,100.1z
		"/>
	<path class="st1" d="M134.1,99.1L135,99l0.4,3l0,0c0.1-0.3,0.3-0.5,0.5-0.7c0.2-0.2,0.5-0.3,0.9-0.3c0.6-0.1,1.7,0.3,2,1.9l0.4,2.8
		l-0.9,0.1l-0.4-2.7c-0.1-0.8-0.5-1.4-1.3-1.3c-0.6,0-1,0.5-1,1c0,0.1,0,0.3,0,0.4l0.4,2.9l-0.9,0.1L134.1,99.1z"/>
	<path class="st1" d="M140.8,103.4c0.2,1.2,1,1.6,1.9,1.5c0.6,0,1-0.2,1.3-0.4l0.2,0.6c-0.3,0.2-0.8,0.4-1.6,0.4
		c-1.5,0.1-2.5-0.8-2.7-2.2c-0.2-1.4,0.5-2.6,1.9-2.8c1.6-0.1,2.2,1.2,2.3,2.1c0,0.2,0,0.3,0,0.4L140.8,103.4z M143.3,102.6
		c-0.1-0.6-0.4-1.4-1.4-1.3c-0.9,0.1-1.2,0.9-1.1,1.5L143.3,102.6z"/>
	<path class="st1" d="M150.9,97.7l0.9,5.8c0.1,0.4,0.1,0.9,0.2,1.2l-0.8,0.1L151,104l0,0c-0.2,0.6-0.7,1-1.5,1.1
		c-1.2,0.1-2.2-0.8-2.4-2.3c-0.2-1.6,0.6-2.6,1.8-2.7c0.7-0.1,1.3,0.2,1.6,0.6l0,0l-0.4-2.9L150.9,97.7z M150.6,102
		c0-0.1,0-0.3-0.1-0.4c-0.2-0.5-0.8-1-1.4-0.9c-0.9,0.1-1.3,0.9-1.2,2c0.1,1,0.7,1.7,1.7,1.7c0.6,0,1.1-0.5,1.1-1.1
		c0-0.1,0-0.2,0-0.4L150.6,102z"/>
	<path class="st1" d="M156,104.4l-0.2-0.6l0,0c-0.2,0.4-0.7,0.8-1.4,0.8c-1,0.1-1.6-0.6-1.7-1.3c-0.2-1.2,0.8-1.9,2.6-2l0-0.1
		c-0.1-0.4-0.3-1.1-1.3-1c-0.4,0-0.9,0.2-1.2,0.5l-0.3-0.6c0.4-0.3,0.9-0.5,1.5-0.5c1.5-0.1,2,0.9,2.1,1.8l0.3,1.8
		c0.1,0.4,0.1,0.8,0.3,1.1L156,104.4z M155.5,102c-1,0.1-2,0.3-1.9,1.2c0.1,0.6,0.5,0.8,1,0.8c0.6,0,1-0.5,1-0.9c0-0.1,0-0.2,0-0.3
		L155.5,102z"/>
	<path class="st1" d="M158.2,98l0.2,1.4l1.3-0.1l0.1,0.7l-1.3,0.1l0.4,2.6c0.1,0.6,0.3,0.9,0.8,0.9c0.2,0,0.4-0.1,0.5-0.1l0.1,0.6
		c-0.2,0.1-0.4,0.2-0.8,0.2c-0.4,0-0.8-0.1-1-0.3c-0.3-0.2-0.4-0.7-0.5-1.2l-0.4-2.6l-0.7,0.1l-0.1-0.7l0.7-0.1l-0.2-1.1L158.2,98z"
		/>
	<path class="st1" d="M164.1,103.8l-0.2-0.6l0,0c-0.2,0.4-0.7,0.8-1.4,0.8c-1,0.1-1.6-0.6-1.7-1.3c-0.2-1.2,0.8-1.9,2.6-2l0-0.1
		c-0.1-0.4-0.3-1.1-1.3-1c-0.4,0-0.9,0.2-1.2,0.5l-0.3-0.6c0.4-0.3,0.9-0.5,1.5-0.5c1.5-0.1,2,0.9,2.1,1.8l0.3,1.8
		c0.1,0.4,0.1,0.8,0.3,1.1L164.1,103.8z M163.6,101.4c-1,0.1-2,0.3-1.9,1.2c0.1,0.6,0.5,0.8,1,0.8c0.6,0,1-0.5,1-0.9
		c0-0.1,0-0.2,0-0.3L163.6,101.4z"/>
	<path class="st1" d="M168.4,97.2l0.2,1.4l1.3-0.1l0.1,0.7l-1.3,0.1l0.4,2.6c0.1,0.6,0.3,0.9,0.8,0.9c0.2,0,0.4-0.1,0.5-0.1l0.1,0.6
		c-0.2,0.1-0.4,0.2-0.8,0.2c-0.4,0-0.8-0.1-1-0.3c-0.3-0.2-0.4-0.7-0.5-1.2l-0.4-2.6l-0.7,0.1l-0.1-0.7l0.7-0.1l-0.2-1.1L168.4,97.2
		z"/>
	<path class="st1" d="M170.5,96.2l0.9-0.1l0.4,3l0,0c0.1-0.3,0.3-0.5,0.5-0.7c0.2-0.2,0.5-0.3,0.9-0.3c0.6-0.1,1.7,0.3,2,1.9
		l0.4,2.8l-0.9,0.1l-0.4-2.7c-0.1-0.8-0.5-1.4-1.3-1.3c-0.6,0-1,0.5-1,1c0,0.1,0,0.3,0,0.4l0.4,2.9l-0.9,0.1L170.5,96.2z"/>
	<path class="st1" d="M179.8,102.6l-0.2-0.6l0,0c-0.2,0.4-0.7,0.8-1.4,0.8c-1,0.1-1.6-0.6-1.7-1.3c-0.2-1.2,0.8-1.9,2.6-2l0-0.1
		c-0.1-0.4-0.3-1.1-1.3-1c-0.4,0-0.9,0.2-1.2,0.5l-0.3-0.6c0.4-0.3,0.9-0.5,1.5-0.5c1.5-0.1,2,0.9,2.1,1.8l0.3,1.8
		c0.1,0.4,0.1,0.8,0.3,1.1L179.8,102.6z M179.3,100.1c-1,0.1-2,0.3-1.9,1.2c0.1,0.6,0.5,0.8,1,0.8c0.6,0,1-0.5,1-0.9
		c0-0.1,0-0.2,0-0.3L179.3,100.1z"/>
	<path class="st1" d="M182,96.2l0.2,1.4l1.3-0.1l0.1,0.7l-1.3,0.1l0.4,2.6c0.1,0.6,0.3,0.9,0.8,0.9c0.2,0,0.4-0.1,0.5-0.1l0.1,0.6
		c-0.2,0.1-0.4,0.2-0.8,0.2c-0.4,0-0.8-0.1-1-0.3c-0.3-0.2-0.4-0.7-0.5-1.2l-0.4-2.6l-0.7,0.1l-0.1-0.7l0.7-0.1l-0.2-1.1L182,96.2z"
		/>
	<path class="st1" d="M187.2,95.2l1,6.7l-0.9,0.1l-1-6.7L187.2,95.2z"/>
	<path class="st1" d="M195.2,96.5c0,0.3,0.1,0.7,0.2,1.3l0.4,2.8c0.2,1.1,0,1.8-0.4,2.2c-0.4,0.5-1.1,0.7-1.7,0.7
		c-0.6,0-1.2,0-1.7-0.3l0.1-0.7c0.3,0.2,0.9,0.3,1.5,0.3c0.9-0.1,1.5-0.6,1.3-1.8l-0.1-0.5l0,0c-0.2,0.5-0.7,0.9-1.4,0.9
		c-1.2,0.1-2.2-0.8-2.4-2.2c-0.2-1.6,0.7-2.6,1.8-2.7c0.8-0.1,1.4,0.3,1.6,0.7l0,0l-0.1-0.7L195.2,96.5z M194.6,98.5
		c0-0.1-0.1-0.3-0.1-0.4c-0.2-0.5-0.7-0.9-1.4-0.8c-0.8,0.1-1.3,0.8-1.2,1.9c0.1,0.9,0.7,1.7,1.7,1.6c0.5,0,1-0.4,1.1-1
		c0-0.2,0-0.3,0-0.5L194.6,98.5z"/>
	<path class="st1" d="M197.5,98.9c0.2,1.2,1,1.6,1.9,1.5c0.6,0,1-0.2,1.3-0.4l0.2,0.6c-0.3,0.2-0.8,0.4-1.6,0.4
		c-1.5,0.1-2.5-0.8-2.7-2.2c-0.2-1.4,0.5-2.6,1.9-2.8c1.6-0.1,2.2,1.2,2.3,2.1c0,0.2,0,0.3,0,0.4L197.5,98.9z M199.9,98.1
		c-0.1-0.6-0.4-1.4-1.4-1.3c-0.9,0.1-1.2,0.9-1.1,1.5L199.9,98.1z"/>
	<path class="st1" d="M201.8,97.3c-0.1-0.5-0.1-0.9-0.2-1.3l0.8-0.1l0.2,0.8l0,0c0.2-0.5,0.7-1,1.5-1c0.7-0.1,1.8,0.3,2,1.9l0.4,2.9
		l-0.9,0.1l-0.4-2.8c-0.1-0.8-0.5-1.4-1.3-1.3c-0.6,0-1,0.5-1,1c0,0.1,0,0.3,0,0.4l0.4,2.9l-0.9,0.1L201.8,97.3z"/>
	<path class="st1" d="M208,98.1c0.2,1.2,1,1.6,1.9,1.5c0.6,0,1-0.2,1.3-0.4l0.2,0.6c-0.3,0.2-0.8,0.4-1.6,0.4
		c-1.5,0.1-2.5-0.8-2.7-2.2c-0.2-1.4,0.5-2.6,1.9-2.8c1.6-0.1,2.2,1.2,2.3,2.1c0,0.2,0,0.3,0,0.4L208,98.1z M210.4,97.3
		c-0.1-0.6-0.4-1.4-1.4-1.3c-0.9,0.1-1.2,0.9-1.1,1.5L210.4,97.3z"/>
	<path class="st1" d="M212.3,96.7c-0.1-0.6-0.2-1-0.3-1.5l0.8-0.1l0.2,0.9l0,0c0.1-0.7,0.6-1.1,1.2-1.2c0.1,0,0.2,0,0.3,0l0.1,0.8
		c-0.1,0-0.2,0-0.3,0c-0.6,0-1,0.5-1,1.2c0,0.1,0,0.3,0,0.4l0.4,2.5l-0.9,0.1L212.3,96.7z"/>
	<path class="st1" d="M218.7,99.5l-0.2-0.6l0,0c-0.2,0.4-0.7,0.8-1.4,0.8c-1,0.1-1.6-0.6-1.7-1.3c-0.2-1.2,0.8-1.9,2.6-2l0-0.1
		c-0.1-0.4-0.3-1.1-1.3-1c-0.4,0-0.9,0.2-1.2,0.5l-0.3-0.6c0.4-0.3,0.9-0.5,1.5-0.5c1.5-0.1,2,0.9,2.1,1.8l0.3,1.8
		c0.1,0.4,0.1,0.8,0.3,1.1L218.7,99.5z M218.2,97.1c-1,0.1-2,0.3-1.9,1.2c0.1,0.6,0.5,0.8,1,0.8c0.6,0,1-0.5,1-0.9
		c0-0.1,0-0.2,0-0.3L218.2,97.1z"/>
	<path class="st1" d="M220.9,93.1l0.2,1.4l1.3-0.1l0.1,0.7l-1.3,0.1l0.4,2.6c0.1,0.6,0.3,0.9,0.8,0.9c0.2,0,0.4-0.1,0.5-0.1l0.1,0.6
		c-0.2,0.1-0.4,0.2-0.8,0.2c-0.4,0-0.8-0.1-1-0.3c-0.3-0.2-0.4-0.7-0.5-1.2l-0.4-2.6l-0.7,0.1l-0.1-0.7l0.7-0.1l-0.2-1.1L220.9,93.1
		z"/>
	<path class="st1" d="M224.1,96.8c0.2,1.2,1,1.6,1.9,1.5c0.6,0,1-0.2,1.3-0.4l0.2,0.6c-0.3,0.2-0.8,0.4-1.6,0.4
		c-1.5,0.1-2.5-0.8-2.7-2.2c-0.2-1.4,0.5-2.6,1.9-2.8c1.6-0.1,2.2,1.2,2.3,2.1c0,0.2,0,0.3,0,0.4L224.1,96.8z M226.6,96
		c-0.1-0.6-0.4-1.4-1.4-1.3c-0.9,0.1-1.2,0.9-1.1,1.5L226.6,96z"/>
	<path class="st1" d="M51.1,117.6l0.9,5.8c0.1,0.4,0.1,0.9,0.2,1.2l-0.8,0.1l-0.2-0.8l0,0c-0.2,0.6-0.7,1-1.5,1.1
		c-1.2,0.1-2.2-0.8-2.4-2.3c-0.2-1.6,0.6-2.6,1.8-2.7c0.7-0.1,1.3,0.2,1.6,0.6l0,0l-0.4-2.9L51.1,117.6z M50.8,121.9
		c0-0.1,0-0.3-0.1-0.4c-0.2-0.5-0.8-1-1.4-0.9c-0.9,0.1-1.3,0.9-1.2,2c0.1,1,0.7,1.7,1.7,1.7c0.6,0,1.1-0.5,1.1-1.1
		c0-0.1,0-0.2,0-0.4L50.8,121.9z"/>
	<path class="st1" d="M57.4,122.9c0.1,0.5,0.1,0.9,0.2,1.3l-0.8,0.1l-0.2-0.8l0,0c-0.2,0.4-0.6,0.9-1.5,1c-0.8,0.1-1.7-0.3-2-2
		l-0.4-2.8l0.9-0.1l0.4,2.6c0.1,0.9,0.5,1.5,1.3,1.4c0.6,0,0.9-0.5,1-0.9c0-0.1,0-0.3,0-0.5l-0.4-2.9l0.9-0.1L57.4,122.9z"/>
	<path class="st1" d="M58.6,120.8c-0.1-0.6-0.2-1-0.3-1.5l0.8-0.1l0.2,0.9l0,0c0.1-0.7,0.6-1.1,1.2-1.2c0.1,0,0.2,0,0.3,0l0.1,0.8
		c-0.1,0-0.2,0-0.3,0c-0.6,0-1,0.5-1,1.2c0,0.1,0,0.3,0,0.4l0.4,2.5l-0.9,0.1L58.6,120.8z"/>
	<path class="st1" d="M62.4,117.6c0.1,0.3-0.1,0.6-0.5,0.6c-0.3,0-0.6-0.2-0.6-0.5c0-0.3,0.1-0.6,0.5-0.6
		C62.1,117.1,62.4,117.3,62.4,117.6z M62.3,123.8l-0.7-4.8l0.9-0.1l0.7,4.8L62.3,123.8z"/>
	<path class="st1" d="M64.1,120.1c-0.1-0.5-0.1-0.9-0.2-1.3l0.8-0.1l0.2,0.8l0,0c0.2-0.5,0.7-1,1.5-1c0.7-0.1,1.8,0.3,2,1.9l0.4,2.9
		l-0.9,0.1l-0.4-2.8c-0.1-0.8-0.5-1.4-1.3-1.3c-0.6,0-1,0.5-1,1c0,0.1,0,0.3,0,0.4l0.4,2.9l-0.9,0.1L64.1,120.1z"/>
	<path class="st1" d="M73.6,118.1c0,0.3,0.1,0.7,0.2,1.3l0.4,2.8c0.2,1.1,0,1.8-0.4,2.2c-0.4,0.5-1.1,0.7-1.7,0.7
		c-0.6,0-1.2,0-1.7-0.3l0.1-0.7c0.3,0.2,0.9,0.3,1.5,0.3c0.9-0.1,1.5-0.6,1.3-1.8l-0.1-0.5l0,0c-0.2,0.5-0.7,0.9-1.4,0.9
		c-1.2,0.1-2.2-0.8-2.4-2.2c-0.2-1.6,0.7-2.6,1.8-2.7c0.8-0.1,1.4,0.3,1.6,0.7l0,0l-0.1-0.7L73.6,118.1z M73,120.1
		c0-0.1-0.1-0.3-0.1-0.4c-0.2-0.5-0.7-0.9-1.4-0.8c-0.8,0.1-1.3,0.8-1.2,1.9c0.1,0.9,0.7,1.7,1.7,1.6c0.5,0,1-0.4,1.1-1
		c0-0.2,0-0.3,0-0.5L73,120.1z"/>
	<path class="st1" d="M77.3,119.1c-0.1-0.5-0.1-0.9-0.2-1.3l0.8-0.1l0.2,0.8l0,0c0.2-0.5,0.6-0.9,1.4-1c0.7-0.1,1.2,0.3,1.5,0.9l0,0
		c0.1-0.3,0.3-0.5,0.4-0.7c0.3-0.2,0.6-0.4,1-0.4c0.6-0.1,1.6,0.3,1.9,2l0.4,2.8l-0.9,0.1l-0.4-2.7c-0.1-0.9-0.6-1.4-1.3-1.4
		c-0.5,0-0.8,0.4-0.9,0.9c0,0.1,0,0.3,0,0.4l0.4,3l-0.9,0.1l-0.4-2.9c-0.1-0.8-0.5-1.3-1.2-1.2c-0.5,0-0.9,0.5-1,1
		c0,0.1,0,0.3,0,0.4l0.4,2.9l-0.9,0.1L77.3,119.1z"/>
	<path class="st1" d="M85.6,117.1l1.5,2.7c0.2,0.3,0.3,0.7,0.5,1l0,0c0-0.3,0.1-0.7,0.2-1l0.5-2.9l0.9-0.1l-0.8,3.5
		c-0.4,1.7-0.7,2.6-1.2,3.1c-0.4,0.4-0.8,0.6-1,0.6l-0.3-0.7c0.2-0.1,0.5-0.2,0.7-0.5c0.2-0.2,0.5-0.6,0.6-1c0-0.1,0-0.2,0-0.2
		s0-0.1-0.1-0.2l-2.4-4.3L85.6,117.1z"/>
	<path class="st1" d="M96.6,119.8c0.1,0.5,0.1,0.9,0.2,1.3l-0.8,0.1l-0.2-0.8l0,0c-0.2,0.4-0.6,0.9-1.5,1c-0.8,0.1-1.7-0.3-2-2
		l-0.4-2.8l0.9-0.1l0.4,2.6c0.1,0.9,0.5,1.5,1.3,1.4c0.6,0,0.9-0.5,1-0.9c0-0.1,0-0.3,0-0.5l-0.4-2.9l0.9-0.1L96.6,119.8z"/>
	<path class="st1" d="M98,120.1c0.3,0.1,0.8,0.3,1.2,0.3c0.6,0,0.9-0.4,0.8-0.8c-0.1-0.4-0.3-0.6-1-0.8c-0.9-0.2-1.4-0.7-1.5-1.3
		c-0.1-0.8,0.4-1.5,1.5-1.5c0.5,0,0.9,0.1,1.2,0.2l-0.1,0.7c-0.2-0.1-0.6-0.2-1-0.2c-0.5,0-0.8,0.4-0.7,0.7c0.1,0.4,0.4,0.6,1,0.7
		c0.9,0.3,1.4,0.6,1.5,1.3c0.1,0.8-0.4,1.5-1.6,1.6c-0.5,0-1,0-1.4-0.2L98,120.1z"/>
	<path class="st1" d="M102.4,118.4c0.2,1.2,1,1.6,1.9,1.5c0.6,0,1-0.2,1.3-0.4l0.2,0.6c-0.3,0.2-0.8,0.4-1.6,0.4
		c-1.5,0.1-2.5-0.8-2.7-2.2c-0.2-1.4,0.5-2.6,1.9-2.8c1.6-0.1,2.2,1.2,2.3,2.1c0,0.2,0,0.3,0,0.4L102.4,118.4z M104.9,117.6
		c-0.1-0.6-0.4-1.4-1.4-1.3c-0.9,0.1-1.2,0.9-1.1,1.5L104.9,117.6z"/>
	<path class="st1" d="M113.3,117.3c0.3,1.8-0.9,2.6-2,2.7c-1.3,0.1-2.4-0.8-2.7-2.3c-0.2-1.6,0.7-2.6,2-2.7
		C112,115,113.1,115.9,113.3,117.3z M109.5,117.7c0.2,1,0.9,1.8,1.7,1.7c0.8-0.1,1.3-0.9,1.2-2c-0.1-0.8-0.7-1.8-1.7-1.7
		S109.4,116.8,109.5,117.7z"/>
	<path class="st1" d="M114.9,119.7l-0.6-4.1l-0.7,0.1l-0.1-0.7l0.7-0.1l0-0.2c-0.1-0.7,0-1.3,0.3-1.7c0.3-0.3,0.7-0.5,1.1-0.5
		c0.3,0,0.6,0,0.8,0.1l0,0.7c-0.1,0-0.3-0.1-0.6-0.1c-0.7,0.1-0.8,0.7-0.7,1.5l0,0.3l1.2-0.1l0.1,0.7l-1.2,0.1l0.6,4.1L114.9,119.7z
		"/>
	<path class="st1" d="M119.9,113.1l0.2,1.4l1.3-0.1l0.1,0.7l-1.3,0.1l0.4,2.6c0.1,0.6,0.3,0.9,0.8,0.9c0.2,0,0.4-0.1,0.5-0.1
		l0.1,0.6c-0.2,0.1-0.4,0.2-0.8,0.2c-0.4,0-0.8-0.1-1-0.3c-0.3-0.2-0.4-0.7-0.5-1.2l-0.4-2.6l-0.7,0.1l-0.1-0.7l0.7-0.1l-0.2-1.1
		L119.9,113.1z"/>
	<path class="st1" d="M122,112l0.9-0.1l0.4,3l0,0c0.1-0.3,0.3-0.5,0.5-0.7c0.2-0.2,0.5-0.3,0.9-0.3c0.6-0.1,1.7,0.3,2,1.9l0.4,2.8
		l-0.9,0.1l-0.4-2.7c-0.1-0.8-0.5-1.4-1.3-1.3c-0.6,0-1,0.5-1,1c0,0.1,0,0.3,0,0.4l0.4,2.9l-0.9,0.1L122,112z"/>
	<path class="st1" d="M128.8,116.3c0.2,1.2,1,1.6,1.9,1.5c0.6,0,1-0.2,1.3-0.4l0.2,0.6c-0.3,0.2-0.8,0.4-1.6,0.4
		c-1.5,0.1-2.5-0.8-2.7-2.2c-0.2-1.4,0.5-2.6,1.9-2.8c1.6-0.1,2.2,1.2,2.3,2.1c0,0.2,0,0.3,0,0.4L128.8,116.3z M131.2,115.5
		c-0.1-0.6-0.4-1.4-1.4-1.3c-0.9,0.1-1.2,0.9-1.1,1.5L131.2,115.5z"/>
	<path class="st1" d="M135.6,111.3l0.4,2.8l3.2-0.3l-0.4-2.8l0.9-0.1l1,6.7l-0.9,0.1l-0.5-3.1l-3.2,0.3l0.5,3.1l-0.9,0.1l-1-6.7
		L135.6,111.3z"/>
	<path class="st1" d="M142.3,115.3c0.2,1.2,1,1.6,1.9,1.5c0.6,0,1-0.2,1.3-0.4l0.2,0.6c-0.3,0.2-0.8,0.4-1.6,0.4
		c-1.5,0.1-2.5-0.8-2.7-2.2s0.5-2.6,1.9-2.8c1.6-0.1,2.2,1.2,2.3,2.1c0,0.2,0,0.3,0,0.4L142.3,115.3z M144.8,114.4
		c-0.1-0.6-0.4-1.4-1.4-1.3c-0.9,0.1-1.2,0.9-1.1,1.5L144.8,114.4z"/>
	<path class="st1" d="M149.8,116.9l-0.2-0.6l0,0c-0.2,0.4-0.7,0.8-1.4,0.8c-1,0.1-1.6-0.6-1.7-1.3c-0.2-1.2,0.8-1.9,2.6-2l0-0.1
		c-0.1-0.4-0.3-1.1-1.3-1c-0.4,0-0.9,0.2-1.2,0.5l-0.3-0.6c0.4-0.3,0.9-0.5,1.5-0.5c1.5-0.1,2,0.9,2.1,1.8l0.3,1.8
		c0.1,0.4,0.1,0.8,0.3,1.1L149.8,116.9z M149.3,114.5c-1,0.1-2,0.3-1.9,1.2c0.1,0.6,0.5,0.8,0.9,0.8c0.6,0,1-0.5,1-0.9
		c0-0.1,0-0.2,0-0.3L149.3,114.5z"/>
	<path class="st1" d="M150.9,109.7l0.9-0.1l1,7l-0.9,0.1L150.9,109.7z"/>
	<path class="st1" d="M154.4,110.3l0.2,1.4l1.3-0.1l0.1,0.7l-1.3,0.1l0.4,2.6c0.1,0.6,0.3,0.9,0.8,0.9c0.2,0,0.4-0.1,0.5-0.1
		l0.1,0.6c-0.2,0.1-0.4,0.2-0.8,0.2c-0.4,0-0.8-0.1-1-0.3c-0.3-0.2-0.4-0.7-0.5-1.2l-0.4-2.6l-0.7,0.1l-0.1-0.7l0.7-0.1l-0.2-1.1
		L154.4,110.3z"/>
	<path class="st1" d="M156.5,109.3l0.9-0.1l0.4,3l0,0c0.1-0.3,0.3-0.5,0.5-0.7c0.2-0.2,0.5-0.3,0.9-0.3c0.6-0.1,1.7,0.3,2,1.9
		l0.4,2.8l-0.9,0.1l-0.4-2.7c-0.1-0.8-0.5-1.4-1.3-1.3c-0.6,0-1,0.5-1,1c0,0.1,0,0.3,0,0.4l0.4,2.9l-0.9,0.1L156.5,109.3z"/>
	<path class="st1" d="M162.6,111.1l1.5,2.7c0.2,0.3,0.3,0.7,0.5,1l0,0c0-0.3,0.1-0.7,0.2-1l0.5-2.9l0.9-0.1l-0.8,3.5
		c-0.4,1.7-0.7,2.6-1.2,3.1c-0.4,0.4-0.8,0.6-1,0.6l-0.3-0.7c0.2-0.1,0.5-0.2,0.7-0.5c0.2-0.2,0.5-0.6,0.6-1c0-0.1,0-0.2,0-0.2
		s0-0.1-0.1-0.2l-2.4-4.3L162.6,111.1z"/>
	<path class="st1" d="M173.2,114.9c-0.2,0.1-0.7,0.3-1.3,0.4c-1.5,0.1-2.5-0.8-2.8-2.3c-0.2-1.5,0.6-2.6,2.2-2.7
		c0.5,0,1,0.1,1.3,0.2l-0.1,0.7c-0.2-0.1-0.6-0.2-1-0.1c-1.1,0.1-1.6,0.9-1.4,1.9c0.2,1.1,1,1.7,1.9,1.7c0.5,0,0.8-0.2,1-0.3
		L173.2,114.9z"/>
	<path class="st1" d="M178.2,112.2c0.3,1.8-0.9,2.6-2,2.7c-1.3,0.1-2.5-0.8-2.7-2.3c-0.2-1.6,0.7-2.6,2-2.7
		C176.9,109.9,177.9,110.8,178.2,112.2z M174.3,112.6c0.2,1,0.9,1.8,1.7,1.7c0.8-0.1,1.3-0.9,1.2-2c-0.1-0.8-0.7-1.8-1.7-1.7
		C174.5,110.7,174.2,111.7,174.3,112.6z"/>
	<path class="st1" d="M183.6,111.8c0.3,1.8-0.9,2.6-2,2.7c-1.3,0.1-2.4-0.8-2.7-2.3c-0.2-1.6,0.7-2.6,2-2.7
		C182.3,109.4,183.4,110.4,183.6,111.8z M179.8,112.2c0.2,1,0.9,1.8,1.7,1.7c0.8-0.1,1.3-0.9,1.2-2c-0.1-0.8-0.7-1.8-1.7-1.7
		C180,110.3,179.7,111.3,179.8,112.2z"/>
	<path class="st1" d="M185.6,111.5L185.6,111.5c0.1-0.2,0.3-0.4,0.4-0.6l1.2-1.8l1.1-0.1l-1.6,2.1l2.5,2.7l-1.1,0.1l-2-2.2l-0.4,0.5
		l0.3,1.8l-0.9,0.1l-1-7l0.9-0.1L185.6,111.5z"/>
	<path class="st1" d="M190,107.6c0.1,0.3-0.1,0.6-0.5,0.6c-0.3,0-0.6-0.2-0.6-0.5c0-0.3,0.1-0.6,0.5-0.6
		C189.7,107,189.9,107.3,190,107.6z M189.9,113.8l-0.7-4.8l0.9-0.1l0.7,4.8L189.9,113.8z"/>
	<path class="st1" d="M191.7,110.1c-0.1-0.5-0.1-0.9-0.2-1.3l0.8-0.1l0.2,0.8l0,0c0.2-0.5,0.7-1,1.5-1c0.7-0.1,1.8,0.3,2,1.9
		l0.4,2.9l-0.9,0.1l-0.4-2.8c-0.1-0.8-0.5-1.4-1.3-1.3c-0.6,0-1,0.5-1,1c0,0.1,0,0.3,0,0.4l0.4,2.9l-0.9,0.1L191.7,110.1z"/>
	<path class="st1" d="M201.2,108.1c0,0.3,0.1,0.7,0.2,1.3l0.4,2.8c0.2,1.1,0,1.8-0.4,2.2c-0.4,0.5-1.1,0.7-1.7,0.7
		c-0.6,0-1.2,0-1.7-0.3l0.1-0.7c0.3,0.2,0.9,0.3,1.5,0.3c0.9-0.1,1.5-0.6,1.3-1.8l-0.1-0.5l0,0c-0.2,0.5-0.7,0.9-1.4,0.9
		c-1.2,0.1-2.2-0.8-2.4-2.2c-0.2-1.6,0.7-2.6,1.8-2.7c0.8-0.1,1.4,0.3,1.6,0.7l0,0l-0.1-0.7L201.2,108.1z M200.6,110
		c0-0.1-0.1-0.3-0.1-0.4c-0.2-0.5-0.7-0.9-1.4-0.8c-0.8,0.1-1.3,0.8-1.2,1.9c0.1,0.9,0.7,1.7,1.7,1.6c0.5,0,1-0.4,1.1-1
		c0-0.2,0-0.3,0-0.5L200.6,110z"/>
	<path class="st1" d="M205.2,111.7c0.3,0.1,0.8,0.3,1.2,0.3c0.6,0,0.9-0.4,0.8-0.8c-0.1-0.4-0.3-0.6-1-0.8c-0.9-0.2-1.4-0.7-1.5-1.3
		c-0.1-0.8,0.4-1.5,1.5-1.5c0.5,0,0.9,0.1,1.2,0.2l-0.1,0.6c-0.2-0.1-0.6-0.2-1-0.2c-0.5,0-0.8,0.4-0.7,0.7c0.1,0.4,0.4,0.6,1,0.7
		c0.9,0.3,1.4,0.6,1.5,1.3c0.1,0.8-0.4,1.5-1.6,1.6c-0.5,0-1,0-1.4-0.2L205.2,111.7z"/>
	<path class="st1" d="M209.5,110c0.2,1.2,1,1.6,1.9,1.5c0.6,0,1-0.2,1.3-0.4l0.2,0.6c-0.3,0.2-0.8,0.4-1.6,0.4
		c-1.5,0.1-2.5-0.8-2.7-2.2c-0.2-1.4,0.5-2.6,1.9-2.8c1.6-0.1,2.2,1.2,2.3,2.1c0,0.2,0,0.3,0,0.4L209.5,110z M212,109.2
		c-0.1-0.6-0.4-1.4-1.4-1.3c-0.9,0.1-1.2,0.9-1.1,1.5L212,109.2z"/>
	<path class="st1" d="M214.1,111c0.3,0.1,0.8,0.3,1.2,0.3c0.6-0.1,0.9-0.4,0.8-0.8c-0.1-0.4-0.3-0.6-1-0.8c-0.9-0.2-1.4-0.7-1.5-1.3
		c-0.1-0.8,0.4-1.5,1.5-1.5c0.5,0,0.9,0.1,1.2,0.2l-0.1,0.6c-0.2-0.1-0.6-0.2-1-0.2c-0.5,0-0.8,0.4-0.7,0.7c0.1,0.4,0.4,0.6,1,0.7
		c0.9,0.3,1.4,0.6,1.5,1.3c0.1,0.8-0.4,1.5-1.6,1.6c-0.5,0-1,0-1.4-0.2L214.1,111z"/>
	<path class="st1" d="M218,110.7c0.3,0.1,0.8,0.3,1.2,0.3c0.6,0,0.9-0.4,0.8-0.8c-0.1-0.4-0.3-0.6-1-0.8c-0.9-0.2-1.4-0.7-1.5-1.3
		c-0.1-0.8,0.4-1.5,1.5-1.5c0.5,0,0.9,0.1,1.2,0.2l-0.1,0.7c-0.2-0.1-0.6-0.2-1-0.2c-0.5,0-0.8,0.4-0.7,0.7c0.1,0.4,0.4,0.6,1,0.7
		c0.9,0.3,1.4,0.6,1.5,1.3c0.1,0.8-0.4,1.5-1.6,1.6c-0.5,0-1,0-1.4-0.2L218,110.7z"/>
	<path class="st1" d="M222.3,105c0.1,0.3-0.1,0.6-0.5,0.6c-0.3,0-0.6-0.2-0.6-0.5c0-0.3,0.1-0.6,0.5-0.6
		C222,104.5,222.2,104.7,222.3,105z M222.2,111.2l-0.7-4.8l0.9-0.1l0.7,4.8L222.2,111.2z"/>
	<path class="st1" d="M228.5,108.3c0.3,1.8-0.9,2.6-2,2.7c-1.3,0.1-2.5-0.8-2.7-2.3c-0.2-1.6,0.7-2.6,2-2.7
		C227.2,105.9,228.3,106.8,228.5,108.3z M224.7,108.6c0.2,1,0.9,1.8,1.7,1.7c0.8-0.1,1.3-0.9,1.2-2c-0.1-0.8-0.7-1.8-1.7-1.7
		C224.9,106.7,224.6,107.7,224.7,108.6z"/>
	<path class="st1" d="M229.5,107.1c-0.1-0.5-0.1-0.9-0.2-1.3l0.8-0.1l0.2,0.8l0,0c0.2-0.5,0.7-1,1.5-1c0.7-0.1,1.8,0.3,2,1.9
		l0.4,2.9l-0.9,0.1l-0.4-2.8c-0.1-0.8-0.5-1.4-1.3-1.3c-0.6,0-1,0.5-1,1c0,0.1,0,0.3,0,0.4l0.4,2.9l-0.9,0.1L229.5,107.1z"/>
	<path class="st1" d="M237.1,106.5c-0.1-0.5-0.1-0.9-0.2-1.3l0.8-0.1l0.2,0.8l0,0c0.2-0.5,0.6-0.9,1.4-1c0.7-0.1,1.2,0.3,1.5,0.9
		l0,0c0.1-0.3,0.3-0.5,0.4-0.7c0.3-0.2,0.6-0.4,1-0.4c0.6-0.1,1.6,0.3,1.9,2l0.4,2.8l-0.9,0.1l-0.4-2.7c-0.1-0.9-0.6-1.4-1.3-1.4
		c-0.5,0-0.8,0.4-0.9,0.9c0,0.1,0,0.3,0,0.4l0.4,3l-0.9,0.1l-0.4-2.9c-0.1-0.8-0.5-1.3-1.2-1.2c-0.5,0-0.9,0.5-1,1
		c0,0.1,0,0.3,0,0.4l0.4,2.9l-0.9,0.1L237.1,106.5z"/>
	<path class="st1" d="M248.6,109.2l-0.2-0.6l0,0c-0.2,0.4-0.7,0.8-1.4,0.8c-1,0.1-1.6-0.6-1.7-1.3c-0.2-1.2,0.8-1.9,2.6-2l0-0.1
		c-0.1-0.4-0.3-1.1-1.3-1c-0.4,0-0.9,0.2-1.2,0.5l-0.3-0.6c0.4-0.3,0.9-0.5,1.5-0.5c1.5-0.1,2,0.9,2.1,1.8l0.3,1.8
		c0.1,0.4,0.1,0.8,0.3,1.1L248.6,109.2z M248.1,106.7c-1,0.1-2,0.3-1.9,1.2c0.1,0.6,0.5,0.8,0.9,0.8c0.6,0,1-0.5,1-0.9
		c0-0.1,0-0.2,0-0.3L248.1,106.7z"/>
	<path class="st1" d="M250.3,104.2l1.5,2.7c0.2,0.3,0.3,0.7,0.5,1l0,0c0-0.3,0.1-0.7,0.2-1l0.5-2.9l0.9-0.1l-0.8,3.5
		c-0.4,1.7-0.7,2.6-1.2,3.1c-0.4,0.4-0.8,0.6-1,0.6l-0.3-0.7c0.2-0.1,0.5-0.2,0.7-0.5c0.2-0.2,0.5-0.6,0.6-1c0-0.1,0-0.2,0-0.2
		c0,0,0-0.1-0.1-0.2l-2.4-4.3L250.3,104.2z"/>
	<path class="st1" d="M49.5,136.8c0-0.3-0.1-0.8-0.1-1.2l-0.9-5.8l0.9-0.1l0.4,3l0,0c0.2-0.6,0.7-0.9,1.5-1c1.2-0.1,2.2,0.8,2.4,2.3
		c0.3,1.7-0.7,2.6-1.8,2.7c-0.7,0.1-1.3-0.2-1.7-0.8l0,0l0.1,0.8L49.5,136.8z M50.2,134.8c0,0.1,0.1,0.2,0.1,0.3
		c0.3,0.6,0.8,1,1.5,0.9c0.9-0.1,1.4-0.9,1.2-2c-0.1-1-0.8-1.7-1.7-1.7c-0.6,0-1.1,0.5-1.2,1.2c0,0.1,0,0.2,0,0.4L50.2,134.8z"/>
	<path class="st1" d="M55.4,134.1c0.2,1.2,1,1.6,1.9,1.5c0.6,0,1-0.2,1.3-0.4l0.2,0.6c-0.3,0.2-0.8,0.4-1.6,0.4
		c-1.5,0.1-2.5-0.8-2.7-2.2c-0.2-1.4,0.5-2.6,1.9-2.8c1.6-0.1,2.2,1.2,2.3,2.1c0,0.2,0,0.3,0,0.4L55.4,134.1z M57.9,133.3
		c-0.1-0.6-0.4-1.4-1.4-1.3c-0.9,0.1-1.2,0.9-1.1,1.5L57.9,133.3z"/>
	<path class="st1" d="M66.2,134.2c0.1,0.5,0.1,0.9,0.2,1.3l-0.8,0.1l-0.2-0.8l0,0c-0.2,0.4-0.6,0.9-1.5,1c-0.8,0.1-1.7-0.3-2-2
		l-0.4-2.8l0.9-0.1l0.4,2.6c0.1,0.9,0.5,1.5,1.3,1.4c0.6,0,0.9-0.5,1-0.9c0-0.1,0-0.3,0-0.5l-0.4-2.9l0.9-0.1L66.2,134.2z"/>
	<path class="st1" d="M67.6,134.5c0.3,0.1,0.8,0.3,1.2,0.3c0.6-0.1,0.9-0.4,0.8-0.8c-0.1-0.4-0.3-0.6-1-0.8
		c-0.9-0.2-1.4-0.7-1.5-1.3c-0.1-0.8,0.4-1.5,1.5-1.5c0.5,0,0.9,0.1,1.2,0.2l-0.1,0.6c-0.2-0.1-0.6-0.2-1-0.2
		c-0.5,0-0.8,0.4-0.7,0.7c0.1,0.4,0.4,0.6,1,0.7c0.9,0.3,1.4,0.6,1.5,1.3c0.1,0.8-0.4,1.5-1.6,1.6c-0.5,0-1,0-1.4-0.2L67.6,134.5z"
		/>
	<path class="st1" d="M71.9,132.8c0.2,1.2,1,1.6,1.9,1.5c0.6,0,1-0.2,1.3-0.4l0.2,0.6c-0.3,0.2-0.8,0.4-1.6,0.4
		c-1.5,0.1-2.5-0.8-2.7-2.2c-0.2-1.4,0.5-2.6,1.9-2.8c1.6-0.1,2.2,1.2,2.3,2.1c0,0.2,0,0.3,0,0.4L71.9,132.8z M74.4,132
		c-0.1-0.6-0.4-1.4-1.4-1.3c-0.9,0.1-1.2,0.9-1.1,1.5L74.4,132z"/>
	<path class="st1" d="M79.8,127.3l0.9,5.8c0.1,0.4,0.1,0.9,0.2,1.2l-0.8,0.1l-0.2-0.8l0,0c-0.2,0.6-0.7,1-1.5,1.1
		c-1.2,0.1-2.2-0.8-2.4-2.3c-0.2-1.6,0.6-2.6,1.8-2.7c0.7-0.1,1.3,0.2,1.6,0.6l0,0l-0.4-2.9L79.8,127.3z M79.6,131.6
		c0-0.1,0-0.3-0.1-0.4c-0.2-0.5-0.8-1-1.4-0.9c-0.9,0.1-1.3,0.9-1.2,2c0.1,1,0.7,1.7,1.7,1.7c0.6,0,1.1-0.5,1.1-1.1
		c0-0.1,0-0.2,0-0.4L79.6,131.6z"/>
	<path class="st1" d="M84.5,134.1l-0.6-4.1l-0.7,0.1l-0.1-0.7l0.7-0.1l0-0.2c-0.1-0.7,0-1.3,0.3-1.7c0.3-0.3,0.7-0.5,1.1-0.5
		c0.3,0,0.6,0,0.8,0.1l0,0.7c-0.1,0-0.3-0.1-0.6-0.1c-0.7,0.1-0.8,0.7-0.7,1.5l0,0.3l1.2-0.1l0.1,0.7l-1.2,0.1l0.6,4.1L84.5,134.1z"
		/>
	<path class="st1" d="M91.2,131.1c0.3,1.8-0.9,2.6-2,2.7c-1.3,0.1-2.5-0.8-2.7-2.3c-0.2-1.6,0.7-2.6,2-2.7
		C89.9,128.7,91,129.6,91.2,131.1z M87.4,131.4c0.2,1,0.9,1.8,1.7,1.7c0.8-0.1,1.3-0.9,1.2-2c-0.1-0.8-0.7-1.8-1.7-1.7
		S87.3,130.5,87.4,131.4z"/>
	<path class="st1" d="M92.2,130.1c-0.1-0.6-0.2-1-0.3-1.5l0.8-0.1l0.2,0.9l0,0c0.1-0.7,0.6-1.1,1.2-1.2c0.1,0,0.2,0,0.3,0l0.1,0.8
		c-0.1,0-0.2,0-0.3,0c-0.6,0-1,0.5-1,1.2c0,0.1,0,0.3,0,0.4l0.4,2.6l-0.9,0.1L92.2,130.1z"/>
	<path class="st1" d="M98.2,126.8l0.2,1.4l1.3-0.1l0.1,0.7l-1.3,0.1l0.4,2.6c0.1,0.6,0.3,0.9,0.8,0.9c0.2,0,0.4-0.1,0.5-0.1l0.1,0.6
		c-0.2,0.1-0.4,0.2-0.8,0.2c-0.4,0-0.8-0.1-1-0.3c-0.3-0.2-0.4-0.7-0.5-1.2l-0.4-2.6l-0.7,0.1l-0.1-0.7l0.7-0.1l-0.2-1.1L98.2,126.8
		z"/>
	<path class="st1" d="M100.3,125.7l0.9-0.1l0.4,3l0,0c0.1-0.3,0.3-0.5,0.5-0.7c0.2-0.2,0.5-0.3,0.9-0.3c0.6-0.1,1.7,0.3,2,1.9
		l0.4,2.8l-0.9,0.1l-0.4-2.7c-0.1-0.8-0.5-1.4-1.3-1.3c-0.6,0-1,0.5-1,1c0,0.1,0,0.3,0,0.4l0.4,2.9l-0.9,0.1L100.3,125.7z"/>
	<path class="st1" d="M107,130.1c0.2,1.2,1,1.6,1.9,1.5c0.6,0,1-0.2,1.3-0.4l0.2,0.6c-0.3,0.2-0.8,0.4-1.6,0.4
		c-1.5,0.1-2.5-0.8-2.7-2.2c-0.2-1.4,0.5-2.6,1.9-2.8c1.6-0.1,2.2,1.2,2.3,2.1c0,0.2,0,0.3,0,0.4L107,130.1z M109.5,129.2
		c-0.1-0.6-0.4-1.4-1.4-1.3c-0.9,0.1-1.2,0.9-1.1,1.5L109.5,129.2z"/>
	<path class="st1" d="M114,131.8l-0.6-4.1l-0.7,0.1l-0.1-0.7l0.7-0.1l0-0.2c-0.1-0.7,0-1.3,0.3-1.7c0.3-0.3,0.7-0.5,1.1-0.5
		c0.3,0,0.6,0,0.8,0.1l0,0.7c-0.1,0-0.3-0.1-0.6-0.1c-0.7,0.1-0.8,0.7-0.7,1.5l0,0.3l1.2-0.1l0.1,0.7l-1.2,0.1l0.6,4.1L114,131.8z"
		/>
	<path class="st1" d="M120.7,128.8c0.3,1.8-0.9,2.6-2,2.7c-1.3,0.1-2.4-0.8-2.7-2.3c-0.2-1.6,0.7-2.6,2-2.7
		C119.4,126.4,120.5,127.3,120.7,128.8z M116.9,129.1c0.2,1,0.9,1.8,1.7,1.7c0.8-0.1,1.3-0.9,1.2-2c-0.1-0.8-0.7-1.8-1.7-1.7
		C117.1,127.2,116.8,128.2,116.9,129.1z"/>
	<path class="st1" d="M121.1,124.1l0.9-0.1l1,7l-0.9,0.1L121.1,124.1z"/>
	<path class="st1" d="M123.5,123.9l0.9-0.1l1,7l-0.9,0.1L123.5,123.9z"/>
	<path class="st1" d="M130.9,128c0.3,1.8-0.9,2.6-2,2.7c-1.3,0.1-2.4-0.8-2.7-2.3c-0.2-1.6,0.7-2.6,2-2.7
		C129.6,125.6,130.7,126.5,130.9,128z M127.1,128.3c0.2,1,0.9,1.8,1.7,1.7c0.8-0.1,1.3-0.9,1.2-2c-0.1-0.8-0.7-1.8-1.7-1.7
		C127.2,126.4,126.9,127.4,127.1,128.3z"/>
	<path class="st1" d="M131.9,125.5l1,2.4c0.2,0.5,0.4,1,0.6,1.5l0,0c0-0.5,0.1-1,0.2-1.5l0.4-2.5l0.7-0.1l1.1,2.3
		c0.3,0.6,0.5,1.1,0.7,1.5l0,0c0-0.5,0.1-1,0.1-1.6l0.3-2.5l0.9-0.1l-0.8,4.9l-0.8,0.1l-1.1-2.2c-0.2-0.5-0.5-1-0.7-1.5l0,0
		c0,0.6-0.1,1.1-0.2,1.6l-0.4,2.3l-0.8,0.1l-2.2-4.7L131.9,125.5z"/>
	<path class="st1" d="M139.6,123.5c0.1,0.3-0.1,0.6-0.5,0.6c-0.3,0-0.6-0.2-0.6-0.5c0-0.3,0.1-0.6,0.5-0.6
		C139.4,123,139.6,123.2,139.6,123.5z M139.6,129.7l-0.7-4.8l0.9-0.1l0.7,4.8L139.6,129.7z"/>
	<path class="st1" d="M141.4,126.1c-0.1-0.5-0.1-0.9-0.2-1.3l0.8-0.1l0.2,0.8l0,0c0.2-0.5,0.7-1,1.5-1c0.7-0.1,1.8,0.3,2,1.9
		l0.4,2.9l-0.9,0.1l-0.4-2.8c-0.1-0.8-0.5-1.4-1.3-1.3c-0.6,0-1,0.5-1,1c0,0.1,0,0.3,0,0.4l0.4,2.9l-0.9,0.1L141.4,126.1z"/>
	<path class="st1" d="M150.9,124c0,0.3,0.1,0.7,0.2,1.3l0.4,2.8c0.2,1.1,0,1.8-0.4,2.2c-0.4,0.5-1.1,0.7-1.7,0.7
		c-0.6,0-1.2,0-1.7-0.3l0.1-0.7c0.3,0.2,0.9,0.3,1.5,0.3c0.9-0.1,1.5-0.6,1.3-1.8l-0.1-0.5l0,0c-0.2,0.5-0.7,0.9-1.4,0.9
		c-1.2,0.1-2.2-0.8-2.4-2.2c-0.2-1.6,0.7-2.6,1.8-2.7c0.8-0.1,1.4,0.3,1.6,0.7l0,0l-0.1-0.7L150.9,124z M150.2,126
		c0-0.1-0.1-0.3-0.1-0.4c-0.2-0.5-0.7-0.9-1.4-0.8c-0.8,0.1-1.3,0.8-1.2,1.9c0.1,0.9,0.7,1.7,1.7,1.6c0.5,0,1-0.4,1.1-1
		c0-0.2,0-0.3,0-0.5L150.2,126z"/>
	<path class="st1" d="M154.6,125.3c-0.1-0.6-0.2-1.1-0.3-1.6l0.8-0.1l0.2,0.8l0,0c0.3-0.6,0.8-1,1.6-1.1c1.2-0.1,2.2,0.8,2.4,2.3
		c0.3,1.7-0.7,2.7-1.8,2.7c-0.6,0-1.2-0.2-1.6-0.6l0,0l0.4,2.6l-0.9,0.1L154.6,125.3z M155.7,126.5c0,0.1,0.1,0.2,0.1,0.4
		c0.2,0.6,0.8,1,1.5,0.9c0.9-0.1,1.3-0.9,1.2-2c-0.1-1-0.8-1.7-1.7-1.7c-0.6,0-1.1,0.5-1.2,1.2c0,0.1,0,0.2,0,0.4L155.7,126.5z"/>
	<path class="st1" d="M164.6,126.5c0.1,0.5,0.1,0.9,0.2,1.3l-0.8,0.1l-0.2-0.8l0,0c-0.2,0.4-0.6,0.9-1.5,1c-0.8,0.1-1.7-0.3-2-2
		l-0.4-2.8l0.9-0.1l0.4,2.6c0.1,0.9,0.5,1.5,1.3,1.4c0.6,0,0.9-0.5,1-0.9c0-0.1,0-0.3,0-0.5l-0.4-2.9l0.9-0.1L164.6,126.5z"/>
	<path class="st1" d="M165.7,124.4c-0.1-0.6-0.2-1-0.3-1.5l0.8-0.1l0.2,0.9l0,0c0.1-0.7,0.6-1.1,1.2-1.2c0.1,0,0.2,0,0.3,0l0.1,0.8
		c-0.1,0-0.2,0-0.3,0c-0.6,0-1,0.5-1,1.2c0,0.1,0,0.3,0,0.4l0.4,2.6l-0.9,0.1L165.7,124.4z"/>
	<path class="st1" d="M169,124.2c-0.1-0.6-0.2-1.1-0.3-1.6l0.8-0.1l0.2,0.8l0,0c0.3-0.6,0.8-1,1.6-1.1c1.2-0.1,2.2,0.8,2.4,2.3
		c0.3,1.7-0.7,2.7-1.8,2.7c-0.6,0.1-1.2-0.2-1.6-0.6l0,0l0.4,2.6l-0.9,0.1L169,124.2z M170.1,125.4c0,0.1,0.1,0.2,0.1,0.4
		c0.2,0.6,0.8,1,1.5,0.9c0.9-0.1,1.4-0.9,1.2-2c-0.1-1-0.8-1.7-1.7-1.7c-0.6,0-1.1,0.5-1.2,1.2c0,0.1,0,0.2,0,0.4L170.1,125.4z"/>
	<path class="st1" d="M179.2,124.2c0.3,1.8-0.9,2.6-2,2.7c-1.3,0.1-2.4-0.8-2.7-2.3c-0.2-1.6,0.7-2.6,2-2.7
		C177.9,121.8,179,122.7,179.2,124.2z M175.4,124.5c0.2,1,0.9,1.8,1.7,1.7c0.8-0.1,1.3-0.9,1.2-2c-0.1-0.8-0.7-1.8-1.7-1.7
		C175.5,122.6,175.2,123.6,175.4,124.5z"/>
	<path class="st1" d="M180.4,125.6c0.3,0.1,0.8,0.3,1.2,0.3c0.6-0.1,0.9-0.4,0.8-0.8c-0.1-0.4-0.3-0.6-1-0.8
		c-0.9-0.2-1.4-0.7-1.5-1.3c-0.1-0.8,0.4-1.5,1.5-1.5c0.5,0,0.9,0.1,1.2,0.2l-0.1,0.6c-0.2-0.1-0.6-0.2-1-0.2
		c-0.5,0-0.8,0.4-0.7,0.7c0.1,0.4,0.4,0.6,1,0.7c0.9,0.3,1.4,0.6,1.5,1.3c0.1,0.8-0.4,1.5-1.6,1.6c-0.5,0-1,0-1.4-0.2L180.4,125.6z"
		/>
	<path class="st1" d="M184.7,123.9c0.2,1.2,1,1.6,1.9,1.5c0.6,0,1-0.2,1.3-0.4l0.2,0.6c-0.3,0.2-0.8,0.4-1.6,0.4
		c-1.5,0.1-2.5-0.8-2.7-2.2c-0.2-1.4,0.5-2.6,1.9-2.8c1.6-0.1,2.2,1.2,2.3,2.1c0,0.2,0,0.3,0,0.4L184.7,123.9z M187.2,123.1
		c-0.1-0.6-0.4-1.4-1.4-1.3c-0.9,0.1-1.2,0.9-1.1,1.5L187.2,123.1z"/>
	<path class="st1" d="M189.3,124.9c0.3,0.1,0.8,0.3,1.2,0.3c0.6-0.1,0.9-0.4,0.8-0.8c-0.1-0.4-0.3-0.6-1-0.8
		c-0.9-0.2-1.4-0.7-1.5-1.3c-0.1-0.8,0.4-1.5,1.5-1.5c0.5,0,0.9,0.1,1.2,0.2l-0.1,0.6c-0.2-0.1-0.6-0.2-1-0.2
		c-0.5,0-0.8,0.4-0.7,0.7c0.1,0.4,0.4,0.6,1,0.7c0.9,0.3,1.4,0.6,1.5,1.3c0.1,0.8-0.4,1.5-1.6,1.6c-0.5,0-1,0-1.4-0.2L189.3,124.9z"
		/>
	<path class="st1" d="M192.7,121.5c-0.1-0.4,0.2-0.6,0.5-0.7c0.3,0,0.6,0.2,0.7,0.6c0.1,0.3-0.1,0.6-0.5,0.7
		C193,122.1,192.8,121.9,192.7,121.5z M193.2,125c-0.1-0.4,0.2-0.6,0.5-0.7c0.3,0,0.6,0.2,0.7,0.6c0.1,0.3-0.1,0.6-0.5,0.7
		C193.6,125.6,193.3,125.4,193.2,125z"/>
	<path class="st1" d="M75.3,314.6c0.5-0.1,1.1-0.2,2-0.3c1-0.1,1.8,0.1,2.4,0.5c0.5,0.3,0.8,0.9,1,1.6c0.1,0.7,0,1.3-0.4,1.8
		c-0.5,0.6-1.3,1-2.3,1.1c-0.3,0-0.6,0-0.8,0l0.5,3.2l-1,0.1L75.3,314.6z M76.9,318.4c0.2,0,0.5,0,0.9,0c1.3-0.1,1.9-0.8,1.8-1.9
		c-0.2-1.1-1-1.5-2.1-1.4c-0.5,0-0.8,0.1-1,0.2L76.9,318.4z"/>
	<path class="st1" d="M81.5,313.6l1.1-0.1l1.3,8.4l-1.1,0.1L81.5,313.6z"/>
	<path class="st1" d="M85.7,319c0.2,1.4,1.2,1.9,2.3,1.8c0.8-0.1,1.2-0.2,1.6-0.4l0.3,0.7c-0.3,0.2-1,0.4-1.9,0.5
		c-1.8,0.1-3-0.9-3.3-2.7c-0.3-1.7,0.6-3.2,2.3-3.3c1.9-0.1,2.6,1.5,2.8,2.5c0,0.2,0,0.4,0,0.5L85.7,319z M88.7,318.1
		c-0.1-0.7-0.5-1.7-1.7-1.6c-1.1,0.1-1.4,1.1-1.4,1.8L88.7,318.1z"/>
	<path class="st1" d="M94.8,321.1l-0.2-0.7l0,0c-0.3,0.5-0.8,0.9-1.6,1c-1.2,0.1-1.9-0.7-2-1.5c-0.2-1.4,0.9-2.2,3.2-2.4l0-0.1
		c-0.1-0.5-0.3-1.3-1.5-1.2c-0.5,0-1.1,0.3-1.4,0.5l-0.3-0.7c0.4-0.3,1.1-0.6,1.8-0.7c1.8-0.1,2.4,1,2.6,2.2l0.3,2.2
		c0.1,0.5,0.2,1,0.3,1.4L94.8,321.1z M94.2,318.1c-1.2,0.1-2.4,0.4-2.3,1.5c0.1,0.7,0.6,1,1.1,0.9c0.8-0.1,1.2-0.6,1.3-1.1
		c0-0.1,0-0.2,0-0.3L94.2,318.1z"/>
	<path class="st1" d="M97,319.8c0.3,0.2,0.9,0.3,1.4,0.3c0.8-0.1,1.1-0.5,1-0.9c-0.1-0.5-0.4-0.7-1.2-1c-1.1-0.3-1.7-0.8-1.8-1.5
		c-0.1-0.9,0.5-1.7,1.7-1.8c0.6,0,1.1,0.1,1.5,0.2l-0.1,0.8c-0.2-0.1-0.7-0.3-1.2-0.2c-0.6,0-0.9,0.4-0.9,0.9
		c0.1,0.5,0.4,0.7,1.2,0.9c1.1,0.3,1.6,0.8,1.8,1.6c0.2,1-0.5,1.8-1.9,1.9c-0.6,0-1.2-0.1-1.7-0.3L97,319.8z"/>
	<path class="st1" d="M102.2,317.7c0.2,1.4,1.2,1.9,2.3,1.8c0.8-0.1,1.2-0.2,1.6-0.4l0.3,0.7c-0.3,0.2-1,0.4-1.9,0.5
		c-1.8,0.1-3-0.9-3.3-2.7c-0.3-1.7,0.6-3.2,2.2-3.3c1.9-0.1,2.6,1.5,2.8,2.5c0,0.2,0,0.4,0,0.5L102.2,317.7z M105.2,316.8
		c-0.1-0.7-0.5-1.7-1.7-1.6c-1.1,0.1-1.4,1.1-1.4,1.8L105.2,316.8z"/>
	<path class="st1" d="M110.3,318.8c0.3,0.2,0.9,0.3,1.4,0.3c0.8-0.1,1.1-0.5,1-0.9c-0.1-0.5-0.4-0.8-1.2-1c-1.1-0.3-1.7-0.8-1.8-1.5
		c-0.1-0.9,0.5-1.7,1.7-1.8c0.6,0,1.1,0.1,1.5,0.2l-0.1,0.8c-0.2-0.1-0.7-0.3-1.2-0.2c-0.6,0-0.9,0.4-0.9,0.9
		c0.1,0.5,0.4,0.7,1.2,0.9c1.1,0.3,1.7,0.8,1.8,1.6c0.2,1-0.5,1.8-1.9,1.9c-0.6,0.1-1.2-0.1-1.7-0.3L110.3,318.8z"/>
	<path class="st1" d="M115.5,316.7c0.2,1.4,1.2,1.9,2.3,1.8c0.8-0.1,1.2-0.2,1.6-0.4l0.3,0.7c-0.3,0.2-1,0.4-1.9,0.5
		c-1.8,0.1-3-0.9-3.3-2.7c-0.3-1.7,0.6-3.2,2.2-3.3c1.9-0.1,2.6,1.5,2.8,2.5c0,0.2,0,0.4,0,0.5L115.5,316.7z M118.5,315.7
		c-0.1-0.7-0.5-1.7-1.7-1.6c-1.1,0.1-1.4,1.1-1.4,1.8L118.5,315.7z"/>
	<path class="st1" d="M120.1,310.5l1.1-0.1l1.3,8.4l-1.1,0.1L120.1,310.5z"/>
	<path class="st1" d="M124.3,316c0.2,1.4,1.2,1.9,2.3,1.8c0.8-0.1,1.2-0.2,1.6-0.4l0.3,0.7c-0.3,0.2-1,0.4-1.9,0.5
		c-1.8,0.1-3-0.9-3.3-2.7c-0.3-1.7,0.6-3.2,2.3-3.3c1.9-0.1,2.6,1.5,2.8,2.5c0,0.2,0,0.4,0,0.5L124.3,316z M127.3,315
		c-0.1-0.7-0.5-1.7-1.7-1.6c-1.1,0.1-1.4,1.1-1.4,1.8L127.3,315z"/>
	<path class="st1" d="M134.2,317.7c-0.3,0.2-0.8,0.4-1.6,0.5c-1.7,0.1-3.1-1-3.3-2.7c-0.3-1.8,0.8-3.2,2.7-3.3
		c0.6,0,1.2,0.1,1.5,0.2l-0.1,0.8c-0.3-0.1-0.7-0.2-1.3-0.2c-1.3,0.1-1.9,1.1-1.7,2.3c0.2,1.3,1.2,2.1,2.3,2c0.6,0,1-0.2,1.2-0.4
		L134.2,317.7z"/>
	<path class="st1" d="M135.8,310.3l0.2,1.7l1.5-0.1l0.1,0.8l-1.5,0.1l0.5,3.1c0.1,0.7,0.4,1.1,1,1.1c0.3,0,0.5-0.1,0.6-0.1l0.2,0.8
		c-0.2,0.1-0.5,0.2-0.9,0.2c-0.5,0-0.9-0.1-1.2-0.4c-0.3-0.3-0.5-0.8-0.6-1.5l-0.5-3.1l-0.9,0.1l-0.1-0.8l0.9-0.1l-0.2-1.4
		L135.8,310.3z"/>
	<path class="st1" d="M142.3,309.8l0.2,1.7l1.5-0.1l0.1,0.8l-1.5,0.1l0.5,3.1c0.1,0.7,0.4,1.1,1,1.1c0.3,0,0.5-0.1,0.6-0.1l0.2,0.8
		c-0.2,0.1-0.5,0.2-0.9,0.2c-0.5,0-0.9-0.1-1.2-0.4c-0.3-0.3-0.5-0.8-0.6-1.5l-0.5-3.1l-0.9,0.1l-0.1-0.8l0.9-0.1l-0.2-1.4
		L142.3,309.8z"/>
	<path class="st1" d="M144.8,308.6l1.1-0.1l0.5,3.6l0,0c0.1-0.3,0.3-0.6,0.6-0.8c0.3-0.2,0.6-0.4,1-0.4c0.8-0.1,2.1,0.3,2.4,2.3
		l0.5,3.4l-1.1,0.1l-0.5-3.3c-0.1-0.9-0.6-1.7-1.6-1.6c-0.7,0.1-1.1,0.6-1.3,1.2c0,0.1,0,0.3,0,0.5l0.5,3.5l-1.1,0.1L144.8,308.6z"
		/>
	<path class="st1" d="M152.9,313.8c0.2,1.4,1.2,1.9,2.3,1.8c0.8-0.1,1.2-0.2,1.6-0.4l0.3,0.7c-0.3,0.2-1,0.4-1.9,0.5
		c-1.8,0.1-3-0.9-3.3-2.7c-0.3-1.7,0.6-3.2,2.3-3.3c1.9-0.1,2.6,1.5,2.8,2.5c0,0.2,0,0.4,0,0.5L152.9,313.8z M155.9,312.8
		c-0.1-0.7-0.5-1.7-1.7-1.6c-1.1,0.1-1.4,1.1-1.4,1.8L155.9,312.8z"/>
	<path class="st1" d="M164.5,315.6l-0.2-0.7l0,0c-0.3,0.5-0.8,0.9-1.6,1c-1.2,0.1-1.9-0.7-2-1.5c-0.2-1.4,0.9-2.2,3.2-2.4l0-0.1
		c-0.1-0.5-0.3-1.3-1.5-1.2c-0.5,0-1.1,0.3-1.4,0.5l-0.3-0.7c0.4-0.3,1.1-0.6,1.8-0.7c1.8-0.1,2.4,1,2.6,2.2l0.3,2.2
		c0.1,0.5,0.2,1,0.3,1.4L164.5,315.6z M163.9,312.6c-1.2,0.1-2.4,0.4-2.3,1.5c0.1,0.7,0.6,1,1.1,0.9c0.8-0.1,1.2-0.6,1.3-1.1
		c0-0.1,0-0.2,0-0.3L163.9,312.6z"/>
	<path class="st1" d="M166.5,311.5c-0.1-0.7-0.2-1.3-0.3-1.9l0.9-0.1l0.2,1l0,0c0.3-0.7,0.9-1.2,1.9-1.3c1.4-0.1,2.6,1,2.9,2.7
		c0.3,2.1-0.8,3.2-2.2,3.3c-0.8,0.1-1.5-0.2-1.9-0.8l0,0l0.5,3.1l-1,0.1L166.5,311.5z M167.7,312.9c0,0.2,0.1,0.3,0.1,0.4
		c0.3,0.7,1,1.2,1.8,1.1c1.1-0.1,1.6-1,1.4-2.4c-0.2-1.2-0.9-2.1-2-2c-0.7,0.1-1.3,0.6-1.4,1.4c0,0.1,0,0.3,0,0.4L167.7,312.9z"/>
	<path class="st1" d="M173.3,311c-0.1-0.7-0.2-1.3-0.3-1.9l0.9-0.1l0.2,1l0,0c0.3-0.7,0.9-1.2,1.9-1.3c1.4-0.1,2.6,1,2.9,2.7
		c0.3,2.1-0.8,3.2-2.2,3.3c-0.8,0.1-1.5-0.2-1.9-0.8l0,0l0.5,3.1l-1,0.1L173.3,311z M174.5,312.4c0,0.2,0.1,0.3,0.1,0.4
		c0.3,0.7,1,1.2,1.8,1.1c1.1-0.1,1.6-1,1.4-2.4c-0.2-1.2-0.9-2.1-2-2c-0.7,0.1-1.3,0.6-1.4,1.4c0,0.1,0,0.3,0,0.4L174.5,312.4z"/>
	<path class="st1" d="M180.1,310.3c-0.1-0.7-0.2-1.3-0.3-1.8l0.9-0.1l0.2,1.1l0,0c0.1-0.8,0.7-1.3,1.4-1.4c0.1,0,0.2,0,0.3,0l0.1,1
		c-0.1,0-0.2,0-0.4,0c-0.7,0.1-1.2,0.7-1.2,1.5c0,0.1,0,0.3,0,0.5l0.5,3.1l-1,0.1L180.1,310.3z"/>
	<path class="st1" d="M189.2,310.7c0.3,2.1-1,3.2-2.4,3.3c-1.6,0.1-2.9-0.9-3.2-2.7c-0.3-1.9,0.8-3.2,2.4-3.3
		C187.7,307.8,189,308.9,189.2,310.7z M184.7,311.1c0.2,1.3,1.1,2.2,2.1,2.1c1-0.1,1.6-1.1,1.4-2.4c-0.1-1-0.8-2.2-2.1-2.1
		C184.9,308.8,184.5,310,184.7,311.1z"/>
	<path class="st1" d="M190.4,309.6c-0.1-0.7-0.2-1.3-0.3-1.9l0.9-0.1l0.2,1l0,0c0.3-0.7,0.9-1.2,1.9-1.3c1.4-0.1,2.6,1,2.9,2.7
		c0.3,2.1-0.8,3.2-2.2,3.3c-0.8,0.1-1.5-0.2-1.9-0.8l0,0l0.5,3.1l-1,0.1L190.4,309.6z M191.7,311.1c0,0.2,0.1,0.3,0.1,0.4
		c0.3,0.7,1,1.2,1.8,1.1c1.1-0.1,1.6-1,1.4-2.4c-0.2-1.2-0.9-2.1-2-2c-0.7,0.1-1.3,0.6-1.4,1.4c0,0.1,0,0.3,0,0.4L191.7,311.1z"/>
	<path class="st1" d="M197.2,309c-0.1-0.7-0.2-1.3-0.3-1.8l0.9-0.1l0.2,1.1l0,0c0.1-0.8,0.7-1.3,1.4-1.4c0.1,0,0.2,0,0.3,0l0.1,1
		c-0.1,0-0.2,0-0.4,0c-0.7,0.1-1.2,0.7-1.2,1.5c0,0.1,0,0.3,0,0.5l0.5,3.1l-1,0.1L197.2,309z"/>
	<path class="st1" d="M201.9,305.2c0.1,0.4-0.2,0.7-0.6,0.7c-0.4,0-0.7-0.2-0.7-0.6c-0.1-0.4,0.2-0.7,0.6-0.7
		C201.5,304.5,201.8,304.8,201.9,305.2z M201.8,312.6l-0.9-5.8l1.1-0.1l0.9,5.8L201.8,312.6z"/>
	<path class="st1" d="M207.8,312.2l-0.2-0.7l0,0c-0.3,0.5-0.8,0.9-1.6,1c-1.2,0.1-1.9-0.7-2-1.5c-0.2-1.4,0.9-2.3,3.2-2.4l0-0.1
		c-0.1-0.5-0.3-1.3-1.5-1.2c-0.5,0-1.1,0.3-1.4,0.5l-0.3-0.7c0.4-0.3,1.1-0.6,1.8-0.7c1.8-0.1,2.4,1,2.6,2.2l0.3,2.2
		c0.1,0.5,0.2,1,0.3,1.4L207.8,312.2z M207.2,309.2c-1.2,0.1-2.4,0.4-2.3,1.5c0.1,0.7,0.6,1,1.1,0.9c0.8-0.1,1.2-0.6,1.3-1.1
		c0-0.1,0-0.2,0-0.3L207.2,309.2z"/>
	<path class="st1" d="M210.5,304.5l0.2,1.7l1.5-0.1l0.1,0.8l-1.5,0.1l0.5,3.1c0.1,0.7,0.4,1.1,1,1.1c0.3,0,0.5-0.1,0.6-0.1l0.2,0.8
		c-0.2,0.1-0.5,0.2-0.9,0.2c-0.5,0-0.9-0.1-1.2-0.4c-0.3-0.3-0.5-0.8-0.6-1.5l-0.5-3.1l-0.9,0.1l-0.1-0.8l0.9-0.1l-0.2-1.4
		L210.5,304.5z"/>
	<path class="st1" d="M214.4,308.9c0.2,1.4,1.2,1.9,2.3,1.8c0.8-0.1,1.2-0.2,1.6-0.4l0.3,0.7c-0.3,0.2-1,0.4-1.9,0.5
		c-1.8,0.1-3-0.9-3.3-2.7c-0.3-1.7,0.6-3.2,2.2-3.3c1.9-0.1,2.6,1.5,2.8,2.5c0,0.2,0,0.4,0,0.5L214.4,308.9z M217.3,307.9
		c-0.1-0.7-0.5-1.7-1.7-1.6c-1.1,0.1-1.4,1.1-1.4,1.8L217.3,307.9z"/>
	<path class="st1" d="M226.5,302.1l1,7c0.1,0.5,0.2,1.1,0.3,1.5l-0.9,0.1l-0.2-1l0,0c-0.2,0.7-0.9,1.2-1.8,1.3
		c-1.4,0.1-2.7-1-2.9-2.7c-0.3-1.9,0.7-3.2,2.1-3.3c0.9-0.1,1.5,0.3,1.9,0.7l0,0l-0.5-3.4L226.5,302.1z M226.2,307.3
		c0-0.1-0.1-0.3-0.1-0.4c-0.3-0.7-0.9-1.2-1.7-1.1c-1.1,0.1-1.6,1.1-1.4,2.4c0.2,1.2,0.9,2.1,2,2c0.7-0.1,1.3-0.6,1.4-1.4
		c0-0.1,0-0.3,0-0.5L226.2,307.3z"/>
	<path class="st1" d="M232.7,310.2l-0.2-0.7l0,0c-0.3,0.5-0.8,0.9-1.6,1c-1.2,0.1-1.9-0.7-2-1.5c-0.2-1.4,0.9-2.2,3.2-2.4l0-0.1
		c-0.1-0.5-0.3-1.3-1.5-1.2c-0.5,0-1.1,0.3-1.4,0.5l-0.3-0.7c0.4-0.3,1.1-0.6,1.8-0.7c1.8-0.1,2.4,1,2.6,2.2l0.3,2.2
		c0.1,0.5,0.2,1,0.3,1.4L232.7,310.2z M232.1,307.3c-1.2,0.1-2.4,0.4-2.3,1.5c0.1,0.7,0.6,1,1.1,0.9c0.8-0.1,1.2-0.6,1.3-1.1
		c0-0.1,0-0.2,0-0.3L232.1,307.3z"/>
	<path class="st1" d="M235.3,302.5l0.2,1.7l1.5-0.1l0.1,0.8l-1.5,0.1l0.5,3.1c0.1,0.7,0.4,1.1,1,1.1c0.3,0,0.5-0.1,0.6-0.1l0.2,0.8
		c-0.2,0.1-0.5,0.2-0.9,0.2c-0.5,0-0.9-0.1-1.2-0.3c-0.3-0.3-0.5-0.8-0.6-1.5l-0.5-3.1l-0.9,0.1l-0.1-0.8l0.9-0.1l-0.2-1.4
		L235.3,302.5z"/>
	<path class="st1" d="M242.3,309.4l-0.2-0.7l0,0c-0.3,0.5-0.8,0.9-1.6,1c-1.2,0.1-1.9-0.7-2-1.5c-0.2-1.4,0.9-2.3,3.2-2.4l0-0.1
		c-0.1-0.5-0.3-1.3-1.5-1.2c-0.5,0-1.1,0.3-1.4,0.5l-0.3-0.7c0.4-0.3,1.1-0.6,1.8-0.7c1.8-0.1,2.4,1,2.6,2.2l0.3,2.2
		c0.1,0.5,0.2,1,0.3,1.4L242.3,309.4z M241.8,306.5c-1.2,0.1-2.4,0.4-2.3,1.5c0.1,0.7,0.6,1,1.1,0.9c0.8-0.1,1.2-0.6,1.3-1.1
		c0-0.1,0-0.2,0-0.3L241.8,306.5z"/>
	<path class="st1" d="M246.2,300.6l1.1-0.1l1.3,8.4l-1.1,0.1L246.2,300.6z"/>
	<path class="st1" d="M250.3,301.4c0.1,0.4-0.2,0.7-0.6,0.7c-0.4,0-0.7-0.2-0.7-0.6c-0.1-0.4,0.2-0.7,0.6-0.7
		C250,300.7,250.3,301,250.3,301.4z M250.3,308.8l-0.9-5.8l1.1-0.1l0.9,5.8L250.3,308.8z"/>
	<path class="st1" d="M257.2,308.1c-0.3,0.2-0.8,0.4-1.6,0.5c-1.7,0.1-3.1-1-3.3-2.7c-0.3-1.8,0.8-3.2,2.7-3.3
		c0.6,0,1.2,0.1,1.5,0.2l-0.1,0.8c-0.3-0.1-0.7-0.2-1.3-0.2c-1.3,0.1-1.9,1.1-1.7,2.3c0.2,1.3,1.2,2.1,2.3,2c0.6,0,1-0.2,1.2-0.4
		L257.2,308.1z"/>
	<path class="st1" d="M258.5,305.4c0.2,1.4,1.2,1.9,2.3,1.8c0.8-0.1,1.2-0.2,1.6-0.4l0.3,0.7c-0.3,0.2-1,0.4-1.9,0.5
		c-1.8,0.1-3-0.9-3.3-2.7c-0.3-1.7,0.6-3.2,2.2-3.3c1.9-0.1,2.6,1.5,2.8,2.5c0,0.2,0,0.4,0,0.5L258.5,305.4z M261.5,304.5
		c-0.1-0.7-0.5-1.7-1.7-1.6c-1.1,0.1-1.4,1.1-1.4,1.8L261.5,304.5z"/>
	<path class="st1" d="M263.7,303.5c-0.1-0.6-0.2-1.1-0.3-1.6l0.9-0.1l0.2,0.9l0,0c0.2-0.6,0.8-1.2,1.8-1.2c0.8-0.1,2.1,0.3,2.4,2.3
		l0.5,3.4l-1.1,0.1l-0.5-3.3c-0.1-0.9-0.6-1.7-1.6-1.6c-0.7,0.1-1.2,0.6-1.3,1.2c0,0.1,0,0.3,0,0.5l0.5,3.5l-1.1,0.1L263.7,303.5z"
		/>
	<path class="st1" d="M270.7,306.1c0.3,0.2,0.9,0.3,1.4,0.3c0.8-0.1,1.1-0.5,1-0.9c-0.1-0.5-0.4-0.8-1.2-1c-1.1-0.3-1.7-0.8-1.8-1.5
		c-0.1-0.9,0.5-1.7,1.7-1.8c0.6,0,1.1,0.1,1.5,0.2l-0.1,0.8c-0.2-0.1-0.7-0.3-1.2-0.2c-0.6,0-0.9,0.4-0.9,0.9
		c0.1,0.5,0.4,0.7,1.2,0.9c1.1,0.3,1.7,0.8,1.8,1.6c0.2,1-0.5,1.8-1.9,1.9c-0.6,0-1.2-0.1-1.7-0.3L270.7,306.1z"/>
	<path class="st1" d="M275.9,304.1c0.2,1.4,1.2,1.9,2.3,1.8c0.8-0.1,1.2-0.2,1.6-0.4l0.3,0.7c-0.3,0.2-1,0.4-1.9,0.5
		c-1.8,0.1-3-0.9-3.3-2.7c-0.3-1.7,0.6-3.2,2.3-3.3c1.9-0.1,2.6,1.5,2.8,2.5c0,0.2,0,0.4,0,0.5L275.9,304.1z M278.9,303.1
		c-0.1-0.7-0.5-1.7-1.7-1.6c-1.1,0.1-1.4,1.1-1.4,1.8L278.9,303.1z"/>
	<path class="st1" d="M281.2,305.8c-0.1-0.4,0.2-0.8,0.6-0.8c0.4,0,0.8,0.3,0.8,0.7c0.1,0.4-0.2,0.8-0.6,0.8
		C281.6,306.5,281.3,306.2,281.2,305.8z"/>
</g>
<g>
	<path class="st4" d="M107.4,403.1l185-16.1c14.5-1.4,24.7-14.2,22.8-28.5L274.5,24.2c-1.9-14.3-15.3-24.8-29.8-23.4L23.9,20.1
		C9.3,21.5-0.9,34.3,1.1,48.6l35.6,294.8 M181.5,387.1c-7.4,0.7-14.2-4.6-15.2-11.9c-1-7.3,4.2-13.8,11.6-14.5
		c7.4-0.7,14.2,4.6,15.2,11.9C194.1,379.9,188.9,386.4,181.5,387.1z M297.2,344.8L55.6,366.1l-36.7-305l241.6-21.3L297.2,344.8z"/>
</g>
<g>
	<path class="st5" d="M42.4,506.2c0,0,3.3-7.5-0.3-15.3c-3.6-7.8-31.7-52.8-37.1-62.2c-5.4-9.4-3.6-17.2-2.4-18.6
		c0,0-2.1-11.3,6-20.2c1.8-2.2,6.6-17.8,6.6-17.8S9.6,353.6,9,348.5c-0.6-5.1,4.5-9.7,7.8-13.5c2.6-2.9,9.9-9.6,17.5-12.5"/>
	<path class="st5" d="M109.7,410.4c3.3,10.8,7.3,22.1,4.9,38.5c-2.4,16.4-2.1,57.3-2.1,57.3"/>
	<path class="st6" d="M37.6,343.9c0,0,3.6,4.3,4.5,8.6"/>
	<path class="st4" d="M116.3,511.3"/>
	<path class="st5" d="M42.1,352.5c0,0,1.1,8.2,0.7,10.3c0,0,12.7,11.3,13.3,12.7c0,0,13.1,6.8,16.8,11.6"/>
	<path class="st4" d="M31.6,335.8c4.6,2.5,6,8.2,6,8.2"/>
	<path class="st4" d="M2.6,410.1c0,0,1.6,4,5.2,5.8"/>
	<path class="st4" d="M47.7,364.6c0,0-1.1-3.2-1.4-5.1"/>
	<path class="st4" d="M61.3,376.8c0,0,2.3-3,2.3-3.4"/>
	<path class="st7" d="M110,410.2c-3.6-6.2-19.3-49.3-19.3-49.3c0-4-3.6-21-3.6-21s0.5-7.8-0.3-12.1c-0.9-5-1.5-6.6-11.8-5.7
		c-16,2.2-13.6,35.3-13.6,35.3s5.1,22.1,6.3,24.2c0,0,0.7,2.2-2,0.5"/>
	<path class="st4" d="M87,339.9c-1.4,0.9-7.7,0.1-10.3-0.1c-2.6-0.3-4.4-9.4-4.1-12.5c2.9-2.4,8.4-3.6,12.1-4"/>
	<path class="st4" d="M88.9,353.1c-1.1-0.5-2,0.4-4.1,0.4"/>
	<path class="st4" d="M89.6,359.5c0,0,0.5,0.4-3.9-0.3"/>
</g>
<path class="st4" d="M35.5,342.7"/>
<path class="st5" d="M304,275.9c0,0-26-222.2-29.3-249.8c-3.4-27.6-32.4-25-32.4-25S49.1,17.9,23.9,20.1
	C-1.4,22.3,1.1,48.6,1.1,48.6l34.4,294.1"/>
<line class="st5" x1="107.4" y1="403.1" x2="297.4" y2="386.3"/>
<path class="st8" d="M314.4,354.9c-1.1-4.1-2.5,0.9-4.2-2c-2.9-4.9-7.2-0.4-8-2.8c-1-3.1-1.1-1.1-5-5.2L92.7,363
	c2.6,7.1,10.1,27.4,14.9,38.9l183.1-16c0.3,0.1,4.5,0.2,7.6-0.4c1.1-0.2,2.4-0.9,3-1.2C314.6,377.1,317,364.5,314.4,354.9z
	 M190.9,382.3c-2.2,2.8-5.5,4.6-9.1,4.9c-0.5,0-0.9,0.1-1.4,0.1c-7,0-13.1-5.2-14-12.1c-0.5-3.6,0.5-7.1,2.7-9.9
	c2.2-2.8,5.5-4.6,9.1-4.9c7.5-0.7,14.4,4.7,15.4,12.1C194,376,193.1,379.5,190.9,382.3z"/>
<path class="st8" d="M35.4,322.1c0.2,0.5-0.1,1.1-0.6,1.3c0,0-0.1,0-0.1,0l2.1,17.1c0.6,1.2,1,2.2,1.2,2.8c0.1,0,0.2,0.1,0.3,0.2
	c0.1,0.2,3.3,3.9,4.4,8c0.4,0.1,0.7,0.4,0.7,0.8c0.1,0.8,1,7.3,0.8,10.1c3.8,3.4,11.4,10.3,12.9,12.4c1.1,0.6,5.3,2.8,9.4,5.5
	c-1-3.1-2.6-9.4-3.8-14.6l-6.8,0.6c0,0,0,0,0,0c-0.1,0-0.2-0.1-0.2-0.2L18.8,61c0-0.1,0-0.1,0.1-0.2c0-0.1,0.1-0.1,0.2-0.1
	l241.6-21.3c0.1,0,0.3,0.1,0.3,0.2l27.8,230.9l3.3-0.3c6.4-0.6,8.5,0.4,10.8,2.6c-3.1-26.6-25.9-221.3-29-246.8
	c-3.2-26.4-30.2-24.2-31.4-24.1L24.1,21c-7,0.6-12.4,3.2-16.2,7.7c-6.7,8-5.7,19.7-5.7,19.8l23.5,201l8.7,72
	C34.8,321.5,35.2,321.7,35.4,322.1z M61.3,376.5c1-1.4,2.2-2.9,2.2-3.2c0-0.1,0.1-0.2,0.2-0.2c0.1,0,0.2,0.1,0.2,0.3
	c0,0.4-1.5,2.4-2.3,3.5c0,0.1-0.1,0.1-0.2,0.1c-0.1,0-0.1,0-0.2-0.1C61.2,376.7,61.2,376.6,61.3,376.5z M46.5,359.2
	c0.1,0,0.3,0.1,0.3,0.2c0.3,1.8,1.3,5,1.3,5.1c0,0.1,0,0.3-0.2,0.3c0,0-0.1,0-0.1,0c-0.1,0-0.2-0.1-0.2-0.2c0-0.1-1.1-3.3-1.4-5.2
	C46.3,359.3,46.3,359.2,46.5,359.2z"/>
<g>
	<polygon class="st3" points="319.5,170.1 109.4,186.6 109.4,169.3 319.5,152.8 	"/>
	<path class="st1" d="M111.7,173.6l-0.3,1.9l-0.8,0.1l1.2-6.2l0.9-0.1l3,5.8l-0.8,0.1l-0.9-1.8L111.7,173.6z M113.5,172.9l-0.8-1.7
		c-0.2-0.4-0.3-0.7-0.5-1.1l0,0c0,0.4-0.1,0.7-0.1,1.1l-0.3,1.8L113.5,172.9z"/>
	<path class="st1" d="M116.4,175.2l-0.9-6l0.8-0.1l2.4,2.9c0.6,0.7,1,1.3,1.4,1.9l0,0c-0.2-0.8-0.3-1.5-0.5-2.5l-0.4-2.5l0.7-0.1
		l0.9,6l-0.8,0.1l-2.4-2.9c-0.5-0.6-1-1.3-1.4-1.9l0,0c0.2,0.8,0.3,1.5,0.4,2.5l0.4,2.6L116.4,175.2z"/>
	<path class="st1" d="M127,171.2c0.3,2.1-0.8,3.3-2.3,3.4c-1.6,0.1-2.9-1-3.2-2.8c-0.3-1.9,0.7-3.2,2.3-3.4
		C125.5,168.3,126.8,169.5,127,171.2z M122.4,171.7c0.2,1.3,1.1,2.4,2.3,2.3c1.2-0.1,1.8-1.3,1.6-2.6c-0.2-1.2-1-2.4-2.3-2.3
		C122.6,169.2,122.2,170.4,122.4,171.7z"/>
	<path class="st1" d="M128.5,174.2l-0.9-6l0.8-0.1l2.4,2.9c0.6,0.7,1,1.3,1.4,1.9l0,0c-0.2-0.8-0.3-1.5-0.5-2.5l-0.4-2.5l0.7-0.1
		l0.9,6l-0.8,0.1l-2.4-2.9c-0.5-0.6-1-1.3-1.4-1.9l0,0c0.2,0.8,0.3,1.5,0.4,2.5l0.4,2.6L128.5,174.2z"/>
	<path class="st1" d="M135.7,173.7l-0.4-2.5l-2.4-3.3l0.9-0.1l1.1,1.6c0.3,0.4,0.5,0.8,0.8,1.2l0,0c0.1-0.4,0.3-0.8,0.4-1.3l0.6-1.7
		l0.9-0.1l-1.5,3.6l0.4,2.6L135.7,173.7z"/>
	<path class="st1" d="M143.8,170.4c-0.2-0.8-0.4-1.8-0.5-2.6l0,0c-0.1,0.7-0.2,1.5-0.4,2.3l-0.6,3l-0.6,0l-1.4-2.8
		c-0.4-0.8-0.8-1.6-1-2.3l0,0c0.1,0.7,0.2,1.8,0.3,2.7l0.2,2.6l-0.7,0.1l-0.5-6l1-0.1l1.5,2.8c0.4,0.7,0.7,1.4,0.9,2l0,0
		c0.1-0.6,0.2-1.3,0.3-2.1l0.6-3l1-0.1l1.3,6l-0.8,0.1L143.8,170.4z"/>
	<path class="st1" d="M151,169.4c0.3,2.1-0.8,3.3-2.3,3.4c-1.6,0.1-2.9-1-3.2-2.8c-0.3-1.9,0.7-3.2,2.3-3.4
		C149.4,166.4,150.7,167.6,151,169.4z M146.3,169.8c0.2,1.3,1.1,2.4,2.3,2.3c1.2-0.1,1.8-1.3,1.6-2.6c-0.2-1.2-1-2.4-2.3-2.3
		C146.6,167.3,146.1,168.5,146.3,169.8z"/>
	<path class="st1" d="M152.3,166.3l0.5,3.6c0.2,1.3,0.9,1.9,1.7,1.8c0.9-0.1,1.4-0.7,1.2-2l-0.5-3.6l0.8-0.1l0.5,3.5
		c0.3,1.8-0.6,2.7-1.9,2.8c-1.2,0.1-2.3-0.5-2.5-2.4l-0.5-3.5L152.3,166.3z"/>
	<path class="st1" d="M158,170.9c0.4,0.2,0.9,0.3,1.5,0.3c0.8-0.1,1.2-0.5,1.1-1.1c-0.1-0.6-0.5-0.9-1.3-1.1c-1-0.3-1.7-0.7-1.8-1.6
		c-0.1-0.9,0.5-1.7,1.7-1.8c0.6,0,1.1,0.1,1.4,0.2l-0.1,0.6c-0.2-0.1-0.6-0.2-1.2-0.2c-0.8,0.1-1.1,0.6-1,1c0.1,0.6,0.5,0.8,1.4,1.1
		c1.1,0.3,1.7,0.8,1.8,1.6c0.1,0.9-0.4,1.8-1.9,1.9c-0.6,0-1.2-0.1-1.6-0.3L158,170.9z"/>
</g>
<g>
	<polygon class="st3" points="324.3,221.4 114.3,237.9 114.3,220.6 324.3,204.1 	"/>
	<path class="st0" d="M120.5,223.4c0.3,2.1-0.8,3.3-2.3,3.4c-1.6,0.1-2.9-1-3.2-2.8c-0.3-1.9,0.7-3.2,2.3-3.4
		C119,220.5,120.2,221.7,120.5,223.4z M115.8,223.9c0.2,1.3,1.1,2.4,2.3,2.3c1.2-0.1,1.8-1.3,1.6-2.6c-0.2-1.2-1-2.4-2.3-2.3
		C116.1,221.3,115.6,222.6,115.8,223.9z"/>
	<path class="st0" d="M122,226.4l-0.9-6l0.9-0.1l2.4,2.9c0.6,0.7,1,1.3,1.4,1.9l0,0c-0.2-0.8-0.3-1.5-0.5-2.5l-0.4-2.5l0.7-0.1
		l0.9,6l-0.8,0.1l-2.4-2.9c-0.5-0.6-1-1.3-1.4-1.9l0,0c0.2,0.8,0.3,1.5,0.4,2.5l0.4,2.6L122,226.4z"/>
	<path class="st0" d="M127,220l0.8-0.1l0.8,5.4l2.6-0.2l0.1,0.6l-3.4,0.3L127,220z"/>
	<path class="st0" d="M132.7,225.6l-0.4-2.5l-2.4-3.3l0.9-0.1l1.1,1.6c0.3,0.4,0.5,0.8,0.8,1.2l0,0c0.1-0.4,0.3-0.8,0.4-1.3l0.6-1.7
		l0.9-0.1l-1.5,3.6l0.4,2.6L132.7,225.6z"/>
	<path class="st0" d="M137.2,219.1l3.2-0.3l0.1,0.7l-2.5,0.2l0.3,2l2.3-0.2l0.1,0.6l-2.3,0.2l0.4,2.7l-0.8,0.1L137.2,219.1z"/>
	<path class="st0" d="M147.1,221.3c0.3,2.1-0.8,3.3-2.3,3.4c-1.6,0.1-2.9-1-3.2-2.8c-0.3-1.9,0.7-3.2,2.3-3.4
		C145.6,218.4,146.9,219.6,147.1,221.3z M142.5,221.8c0.2,1.3,1.1,2.4,2.3,2.3c1.2-0.1,1.8-1.3,1.6-2.6c-0.2-1.2-1-2.4-2.3-2.3
		C142.7,219.3,142.3,220.5,142.5,221.8z"/>
	<path class="st0" d="M147.7,218.4c0.4-0.1,0.9-0.2,1.5-0.2c0.8-0.1,1.4,0,1.8,0.4c0.3,0.2,0.6,0.6,0.6,1.1c0.1,0.8-0.3,1.4-0.9,1.6
		l0,0c0.5,0.1,0.8,0.5,1.1,1.1c0.3,0.8,0.6,1.4,0.7,1.6l-0.8,0.1c-0.1-0.2-0.3-0.7-0.6-1.4c-0.3-0.8-0.7-1.1-1.4-1.1l-0.7,0.1
		l0.4,2.6l-0.8,0.1L147.7,218.4z M148.9,221.1l0.8-0.1c0.8-0.1,1.3-0.6,1.2-1.2c-0.1-0.8-0.7-1.1-1.6-1c-0.4,0-0.6,0.1-0.8,0.1
		L148.9,221.1z"/>
	<path class="st0" d="M155.2,217.7l0.5,3.6c0.2,1.3,0.9,1.9,1.7,1.8c0.9-0.1,1.4-0.7,1.2-2l-0.5-3.6l0.8-0.1l0.5,3.5
		c0.3,1.8-0.6,2.7-1.9,2.8c-1.2,0.1-2.3-0.5-2.5-2.4l-0.5-3.5L155.2,217.7z"/>
	<path class="st0" d="M160.9,222.4c0.4,0.2,0.9,0.3,1.5,0.3c0.8-0.1,1.2-0.5,1.1-1.1c-0.1-0.6-0.5-0.9-1.3-1.1
		c-1-0.3-1.7-0.7-1.8-1.6c-0.1-0.9,0.5-1.7,1.7-1.8c0.6,0,1.1,0.1,1.4,0.2l-0.1,0.6c-0.2-0.1-0.6-0.2-1.2-0.2c-0.8,0.1-1.1,0.6-1,1
		c0.1,0.6,0.5,0.8,1.4,1.1c1.1,0.3,1.7,0.8,1.8,1.6c0.1,0.9-0.4,1.8-1.9,1.9c-0.6,0-1.2-0.1-1.6-0.3L160.9,222.4z"/>
	<path class="st0" d="M168.2,219.9l-2.3,0.2l0.3,2.2l2.6-0.2l0.1,0.7l-3.4,0.3l-0.9-6l3.3-0.3l0.1,0.7l-2.5,0.2l0.3,1.9l2.3-0.2
		L168.2,219.9z"/>
	<path class="st0" d="M176.5,219c0.3,2.1-0.8,3.3-2.3,3.4c-1.6,0.1-2.9-1-3.2-2.8c-0.3-1.9,0.7-3.2,2.3-3.4
		C175,216.1,176.2,217.2,176.5,219z M171.8,219.5c0.2,1.3,1.1,2.4,2.3,2.3c1.2-0.1,1.8-1.3,1.6-2.6c-0.2-1.2-1-2.4-2.3-2.3
		C172.1,216.9,171.6,218.2,171.8,219.5z"/>
	<path class="st0" d="M178,222l-0.9-6l0.8-0.1l2.4,2.9c0.6,0.7,1,1.3,1.4,1.9l0,0c-0.2-0.8-0.3-1.5-0.5-2.5l-0.4-2.5l0.7-0.1l0.9,6
		l-0.8,0.1l-2.4-2.9c-0.5-0.6-1-1.3-1.4-1.9l0,0c0.2,0.8,0.3,1.5,0.4,2.5l0.4,2.6L178,222z"/>
	<path class="st0" d="M190.5,217.9c0.3,2.1-0.8,3.3-2.3,3.4c-1.6,0.1-2.9-1-3.2-2.8c-0.3-1.9,0.7-3.2,2.3-3.4
		C188.9,215,190.2,216.1,190.5,217.9z M185.8,218.4c0.2,1.3,1.1,2.4,2.3,2.3c1.2-0.1,1.8-1.3,1.6-2.6c-0.2-1.2-1-2.4-2.3-2.3
		C186.1,215.8,185.6,217.1,185.8,218.4z"/>
	<path class="st0" d="M191,215c0.4-0.1,0.9-0.2,1.5-0.2c0.8-0.1,1.4,0.1,1.8,0.4c0.4,0.3,0.6,0.7,0.7,1.2c0.1,0.5,0,1-0.3,1.3
		c-0.3,0.5-1,0.7-1.7,0.8c-0.2,0-0.4,0-0.6,0l0.4,2.4l-0.8,0.1L191,215z M192.3,217.8c0.2,0,0.4,0,0.7,0c0.9-0.1,1.4-0.6,1.3-1.4
		c-0.1-0.8-0.7-1.1-1.6-1.1c-0.3,0-0.6,0.1-0.7,0.1L192.3,217.8z"/>
	<path class="st0" d="M199.4,217.5l-2.3,0.2l0.3,2.2l2.6-0.2l0.1,0.7l-3.4,0.3l-0.9-6l3.3-0.3l0.1,0.7l-2.5,0.2l0.3,1.9l2.3-0.2
		L199.4,217.5z"/>
	<path class="st0" d="M201.1,220.2l-0.9-6l0.8-0.1l2.4,2.9c0.6,0.7,1,1.3,1.4,1.9l0,0c-0.2-0.8-0.3-1.5-0.5-2.5l-0.4-2.5l0.7-0.1
		l0.9,6l-0.8,0.1l-2.4-2.9c-0.5-0.6-1-1.3-1.4-1.9l0,0c0.2,0.8,0.3,1.5,0.4,2.5l0.4,2.6L201.1,220.2z"/>
	<path class="st0" d="M208,213.6c0.4-0.1,0.9-0.2,1.5-0.2c0.8-0.1,1.4,0.1,1.8,0.4c0.4,0.3,0.6,0.7,0.7,1.2c0.1,0.5,0,1-0.3,1.3
		c-0.3,0.5-1,0.7-1.7,0.8c-0.2,0-0.4,0-0.6,0l0.4,2.4l-0.8,0.1L208,213.6z M209.2,216.5c0.2,0,0.4,0,0.7,0c0.9-0.1,1.4-0.6,1.3-1.4
		c-0.1-0.8-0.7-1.1-1.6-1.1c-0.3,0-0.6,0.1-0.7,0.1L209.2,216.5z"/>
	<path class="st0" d="M212.8,213.3c0.4-0.1,0.9-0.2,1.5-0.2c0.8-0.1,1.4,0,1.8,0.4c0.3,0.2,0.6,0.6,0.6,1.1c0.1,0.8-0.3,1.4-0.9,1.6
		l0,0c0.5,0.1,0.8,0.5,1.1,1.1c0.3,0.8,0.6,1.4,0.7,1.6l-0.8,0.1c-0.1-0.2-0.3-0.7-0.6-1.4c-0.3-0.8-0.7-1.1-1.4-1.1l-0.7,0.1
		l0.4,2.6l-0.8,0.1L212.8,213.3z M213.9,216l0.8-0.1c0.8-0.1,1.3-0.6,1.2-1.2c-0.1-0.8-0.7-1.1-1.6-1c-0.4,0-0.6,0.1-0.8,0.1
		L213.9,216z"/>
	<path class="st0" d="M223.2,215.4c0.3,2.1-0.8,3.3-2.3,3.4c-1.6,0.1-2.9-1-3.2-2.8c-0.3-1.9,0.7-3.2,2.3-3.4
		C221.7,212.4,222.9,213.6,223.2,215.4z M218.5,215.8c0.2,1.3,1.1,2.4,2.3,2.3c1.2-0.1,1.8-1.3,1.6-2.6c-0.2-1.2-1-2.4-2.3-2.3
		C218.8,213.3,218.3,214.5,218.5,215.8z"/>
	<path class="st0" d="M225,212.2l0.8-0.1l0.6,4c0.2,1.6-0.5,2.1-1.5,2.2c-0.3,0-0.6,0-0.9-0.1l0-0.6c0.2,0,0.4,0.1,0.7,0.1
		c0.7-0.1,1.1-0.4,0.9-1.6L225,212.2z"/>
	<path class="st0" d="M230.7,215l-2.3,0.2l0.3,2.2l2.6-0.2l0.1,0.6l-3.4,0.3l-0.9-6l3.3-0.3l0.1,0.7l-2.5,0.2l0.3,1.9l2.3-0.2
		L230.7,215z"/>
	<path class="st0" d="M236.6,217.2c-0.3,0.2-0.8,0.4-1.5,0.4c-1.7,0.1-3.1-0.8-3.4-2.8c-0.3-1.9,0.8-3.3,2.7-3.4
		c0.8-0.1,1.2,0.1,1.5,0.2l-0.1,0.6c-0.3-0.1-0.8-0.2-1.3-0.2c-1.4,0.1-2.2,1.1-2,2.7c0.2,1.5,1.2,2.3,2.7,2.2
		c0.5,0,0.9-0.2,1.2-0.3L236.6,217.2z"/>
	<path class="st0" d="M238.2,211.9l-1.8,0.1l-0.1-0.7l4.5-0.4l0.1,0.7l-1.8,0.1l0.8,5.3l-0.8,0.1L238.2,211.9z"/>
	<path class="st0" d="M242,216c0.4,0.2,0.9,0.3,1.5,0.3c0.8-0.1,1.2-0.5,1.1-1.1c-0.1-0.6-0.5-0.9-1.3-1.1c-1-0.3-1.7-0.7-1.8-1.6
		c-0.1-0.9,0.5-1.7,1.7-1.8c0.6,0,1.1,0.1,1.4,0.2l-0.1,0.6c-0.2-0.1-0.6-0.2-1.2-0.2c-0.8,0.1-1.1,0.6-1,1c0.1,0.6,0.5,0.8,1.4,1.1
		c1.1,0.3,1.7,0.8,1.8,1.6c0.1,0.9-0.4,1.8-1.9,1.9c-0.6,0-1.2-0.1-1.6-0.3L242,216z"/>
</g>
<g>
	<polygon class="st3" points="332.8,275.9 122.7,292.4 122.7,275.1 332.8,258.6 	"/>
	<path class="st1" d="M124.3,281.4l-0.9-6l0.8-0.1l2.4,2.9c0.6,0.7,1,1.3,1.4,1.9l0,0c-0.2-0.8-0.3-1.5-0.5-2.5l-0.4-2.5l0.7-0.1
		l0.9,6l-0.8,0.1l-2.4-2.9c-0.5-0.6-1-1.3-1.4-1.9l0,0c0.2,0.8,0.3,1.5,0.4,2.5l0.4,2.6L124.3,281.4z"/>
	<path class="st1" d="M134.8,277.5c0.3,2.1-0.8,3.3-2.3,3.4c-1.6,0.1-2.9-1-3.2-2.8c-0.3-1.9,0.7-3.2,2.3-3.4
		C133.3,274.5,134.6,275.7,134.8,277.5z M130.2,277.9c0.2,1.3,1.1,2.4,2.3,2.3c1.2-0.1,1.8-1.3,1.6-2.6c-0.2-1.2-1-2.4-2.3-2.3
		C130.4,275.4,130,276.6,130.2,277.9z"/>
	<path class="st1" d="M136.3,280.5l-0.9-6l0.9-0.1l2.4,2.9c0.6,0.7,1,1.3,1.4,1.9l0,0c-0.2-0.8-0.3-1.5-0.5-2.5l-0.4-2.5l0.7-0.1
		l0.9,6l-0.8,0.1l-2.4-2.9c-0.5-0.6-1-1.3-1.4-1.9l0,0c0.2,0.8,0.3,1.5,0.4,2.5l0.4,2.6L136.3,280.5z"/>
	<path class="st1" d="M143.6,277.2l0.1,0.6l-2.2,0.2l-0.1-0.6L143.6,277.2z"/>
	<path class="st1" d="M149.3,279.2c-0.3,0.2-0.8,0.4-1.5,0.4c-1.7,0.1-3.1-0.8-3.4-2.8c-0.3-1.9,0.8-3.3,2.7-3.4
		c0.8-0.1,1.2,0.1,1.5,0.2l-0.1,0.6c-0.3-0.1-0.8-0.2-1.3-0.2c-1.4,0.1-2.2,1.1-2,2.7c0.2,1.5,1.2,2.3,2.7,2.2
		c0.5,0,0.9-0.2,1.2-0.3L149.3,279.2z"/>
	<path class="st1" d="M154.8,275.9c0.3,2.1-0.8,3.3-2.3,3.4c-1.6,0.1-2.9-1-3.2-2.8c-0.3-1.9,0.7-3.2,2.3-3.4
		C153.2,273,154.5,274.1,154.8,275.9z M150.1,276.4c0.2,1.3,1.1,2.4,2.3,2.3c1.2-0.1,1.8-1.3,1.6-2.6c-0.2-1.2-1-2.4-2.3-2.3
		C150.4,273.8,149.9,275.1,150.1,276.4z"/>
	<path class="st1" d="M160.9,275.9c-0.2-0.8-0.4-1.8-0.5-2.6l0,0c-0.1,0.7-0.2,1.5-0.4,2.3l-0.6,3l-0.6,0l-1.4-2.8
		c-0.4-0.8-0.8-1.6-1-2.3l0,0c0.1,0.8,0.2,1.8,0.3,2.7l0.2,2.6l-0.7,0.1l-0.5-6l1-0.1l1.5,2.8c0.4,0.7,0.7,1.4,0.9,2l0,0
		c0.1-0.6,0.2-1.3,0.3-2.1l0.6-3l1-0.1l1.3,6l-0.8,0.1L160.9,275.9z"/>
	<path class="st1" d="M168.1,275.3c-0.2-0.8-0.4-1.8-0.5-2.6l0,0c-0.1,0.7-0.2,1.5-0.4,2.3l-0.6,3l-0.6,0l-1.4-2.8
		c-0.4-0.8-0.8-1.6-1-2.3l0,0c0.1,0.8,0.2,1.8,0.3,2.7l0.2,2.6l-0.7,0.1l-0.5-6l1-0.1l1.5,2.8c0.4,0.7,0.7,1.4,0.9,2l0,0
		c0.1-0.6,0.2-1.3,0.3-2.1l0.6-3l1-0.1l1.3,6l-0.8,0.1L168.1,275.3z"/>
	<path class="st1" d="M173.3,274.7l-2.3,0.2l0.3,2.2l2.6-0.2l0.1,0.6l-3.4,0.3l-0.9-6l3.3-0.3l0.1,0.7l-2.5,0.2l0.3,1.9l2.3-0.2
		L173.3,274.7z"/>
	<path class="st1" d="M174.2,271.5c0.4-0.1,0.9-0.2,1.5-0.2c0.8-0.1,1.4,0,1.8,0.4c0.3,0.2,0.6,0.6,0.6,1.1c0.1,0.8-0.3,1.4-0.9,1.6
		l0,0c0.5,0.1,0.8,0.5,1.1,1.1c0.3,0.8,0.6,1.4,0.7,1.6l-0.8,0.1c-0.1-0.2-0.3-0.7-0.6-1.4c-0.3-0.8-0.7-1.1-1.4-1.1l-0.7,0.1
		l0.4,2.6l-0.8,0.1L174.2,271.5z M175.3,274.2l0.8-0.1c0.8-0.1,1.3-0.6,1.2-1.2c-0.1-0.8-0.7-1.1-1.6-1c-0.4,0-0.6,0.1-0.8,0.1
		L175.3,274.2z"/>
	<path class="st1" d="M184.1,276.5c-0.3,0.2-0.8,0.4-1.5,0.4c-1.7,0.1-3.1-0.8-3.4-2.8c-0.3-1.9,0.8-3.3,2.7-3.4
		c0.8-0.1,1.2,0.1,1.5,0.2l-0.1,0.6c-0.3-0.1-0.8-0.2-1.3-0.2c-1.4,0.1-2.2,1.1-2,2.7c0.2,1.5,1.2,2.3,2.7,2.2
		c0.5,0,0.9-0.2,1.2-0.3L184.1,276.5z"/>
	<path class="st1" d="M184.9,270.6l0.9,6l-0.8,0.1l-0.9-6L184.9,270.6z"/>
	<path class="st1" d="M187.9,274.5l-0.3,1.9l-0.8,0.1l1.2-6.2l0.9-0.1l3,5.8l-0.8,0.1l-0.9-1.8L187.9,274.5z M189.8,273.7l-0.8-1.7
		c-0.2-0.4-0.3-0.7-0.5-1.1l0,0c0,0.4-0.1,0.7-0.1,1.1l-0.3,1.8L189.8,273.7z"/>
	<path class="st1" d="M191.8,270l0.8-0.1l0.8,5.4l2.6-0.2l0.1,0.7l-3.4,0.3L191.8,270z"/>
	<path class="st1" d="M198.7,269.5l0.5,3.6c0.2,1.3,0.9,1.9,1.7,1.8c0.9-0.1,1.4-0.7,1.2-2l-0.5-3.6l0.8-0.1l0.5,3.5
		c0.3,1.8-0.6,2.7-1.9,2.8c-1.2,0.1-2.3-0.5-2.5-2.4l-0.5-3.5L198.7,269.5z"/>
	<path class="st1" d="M204.3,274.1c0.4,0.2,0.9,0.3,1.5,0.3c0.8-0.1,1.2-0.5,1.1-1.1c-0.1-0.6-0.5-0.9-1.3-1.1
		c-1-0.3-1.7-0.7-1.8-1.6c-0.1-0.9,0.5-1.7,1.7-1.8c0.6,0,1.1,0.1,1.4,0.2l-0.1,0.6c-0.2-0.1-0.6-0.2-1.2-0.2c-0.8,0.1-1.1,0.6-1,1
		c0.1,0.6,0.5,0.8,1.4,1.1c1.1,0.3,1.7,0.8,1.8,1.6c0.1,0.9-0.4,1.8-1.9,1.9c-0.6,0-1.2-0.1-1.6-0.3L204.3,274.1z"/>
	<path class="st1" d="M211.7,271.7l-2.3,0.2l0.3,2.2l2.6-0.2l0.1,0.6l-3.4,0.3l-0.9-6l3.3-0.3l0.1,0.7l-2.5,0.2l0.3,1.9l2.3-0.2
		L211.7,271.7z"/>
	<path class="st1" d="M220,270.8c0.3,2.1-0.8,3.3-2.3,3.4c-1.6,0.1-2.9-1-3.2-2.8c-0.3-1.9,0.7-3.2,2.3-3.4
		C218.5,267.8,219.7,269,220,270.8z M215.3,271.2c0.2,1.3,1.1,2.4,2.3,2.3c1.2-0.1,1.8-1.3,1.6-2.6c-0.2-1.2-1-2.4-2.3-2.3
		C215.6,268.7,215.1,269.9,215.3,271.2z"/>
	<path class="st1" d="M221.5,273.8l-0.9-6l0.8-0.1l2.4,2.9c0.6,0.7,1,1.3,1.4,1.9l0,0c-0.2-0.8-0.3-1.5-0.5-2.5l-0.4-2.5l0.7-0.1
		l0.9,6l-0.8,0.1l-2.4-2.9c-0.5-0.6-1-1.3-1.4-1.9l0,0c0.2,0.8,0.3,1.5,0.4,2.5l0.4,2.6L221.5,273.8z"/>
	<path class="st1" d="M226.5,267.3l0.8-0.1l0.8,5.4l2.6-0.2l0.1,0.7l-3.4,0.3L226.5,267.3z"/>
	<path class="st1" d="M232.2,272.9l-0.4-2.5l-2.4-3.3l0.9-0.1l1.1,1.6c0.3,0.4,0.5,0.8,0.8,1.2l0,0c0.1-0.4,0.3-0.8,0.4-1.3l0.6-1.7
		l0.9-0.1l-1.5,3.6l0.4,2.6L232.2,272.9z"/>
</g>
<g>
	<path class="st7" d="M427,313.9c0,0-1.8-1.3-5.8-4c-8.3-5.5-31.4-21.1-41.3-28.7c-9.9-7.6-31-21.5-36.8-27.4c0,0-5.8-4.9-10.3-9
		c-4.5-4-13-7.2-15.7-9c-2.7-1.8-11.7-13.9-15.3-15.7c-3.6-1.8-18.4-6.7-22-8.1c-3.6-1.3-25.1-3.6-25.1,4c0,7.6,8.5,15.3,17,16.6
		c0,0,10.8,7.2,13,6.3c0,0,10.8,15.7,12.6,14.4c0,0,0,5.8,0.4,8.5c0,0-16.2,1.8-20.2,3.1c-4,1.3-9,3.6-11.2,7.6
		c-2.2,4-7.6,14.4-7.6,14.4s-7.8,1.7-10.7,4.2c-2.9,0.5-7.5,5.7-8.1,11.1c-0.5,4,1.9,9.1,3.9,10.1c3.3,2.9,10,6.7,15.7,7.7
		c3.4,0.3,4.8,0,5,0.2c1.3,1.2,7.3,5.9,13.6,0.5c0,0-0.9,13.9,7.6,18.8c4,2.7,6.7,4.5,6.7,4.5l8.5,3.6c0,0,2.7,9.9,18.4,6.3
		c8.5-2.2,10.3-4,10.3-5.4c0,0,14.4,8.5,25.1,8.1c3.6,0.4,21.1,14.4,36.8,16.1c5.4,0.4,28.3,15.7,32.3,19.7"/>
	<path class="st7" d="M354.7,356.5c0,0,0.5,0.2,11.7,0.3c11.3,0.2,15.9,3.2,17.1,3.6"/>
	<path class="st9" d="M248,291.3c0,0,2.6,0,4.2-0.2c1.5-0.2-7.3,7.2-3.1,19.8c0.3,1.5-4.3,1.5-5.4,1.4"/>
	<path class="st9" d="M292.4,344c0,0-2.7-6.9,1.4-9.3c1.4-0.9,5.3,2,6.3,2.4c0,0-1,8.2,0.9,10.5"/>
	<path class="st9" d="M325.3,350.7c0,0-10.4,1.4-11.4-2.9c-1-4.3,2.7-6.5,2.7-6.5s2.7,2.2,5.3,3.4
		C321.9,344.7,322.6,347,325.3,350.7z"/>
	<path class="st7" d="M258.7,287c0,0,8-2.4,17.2,0.2c9.2,2.6,23.5,1.5,32.6-3.6c1.9-0.9,3.2-1.6,4.6-4.3"/>
	<path class="st5" d="M329.6,348.4c-12.3-5.9-25.5-15.3-25.5-15.3c-2.4-1.5-5.5-8.5-16.4-12.3c-10.9-3.8-23.5-0.9-23.5-0.9"/>
	<path class="st7" d="M282.6,288.2c0,0-2.7-8-6.1-12.6"/>
	<path class="st9" d="M300.9,286.7c0,0,2-16.6,2.2-23.4c0.2-6.8,1.9-8.2,1.9-8.2"/>
	<path class="st7" d="M297.8,261.9c0,0-0.6,1.6,0.1,3.1"/>
	<path class="st9" d="M297.3,253.3c0,0,0.7-8,4.4-10.7"/>
	<path class="st9" d="M284.7,239c0,0-4.3-5.1-1.4-14.5"/>
	<path class="st9" d="M271.7,232.7c0,0-2.8-4.9-1.7-10.7"/>
	<path class="st7" d="M299.7,283.9c0,0-2.6-6.9-2.1-17.7"/>
	<path class="st9" d="M260.1,292.9c0,0,1.5,7.2-2,12.2"/>
	<path class="st9" d="M256.9,295.9c0,0-0.8,2.8-0.4,6"/>
	<path class="st7" d="M300.9,347.5c0,0,6.5,3.3,9-2.3c1.6-3.6,1.6-7.1,1.6-7.1"/>
	<line class="st7" x1="278" y1="320.6" x2="278.5" y2="319.3"/>
	<path class="st7" d="M250.6,289.4"/>
	<path class="st7" d="M297.5,326.6c0,0-3.4,0-4.1,0.5"/>
</g>
<g>
</g>
<g>
</g>
<g>
</g>
<g>
</g>
<g>
</g>
<g>
</g>
</svg>
