<?xml version="1.0" encoding="utf-8"?>
<!-- Generator: Adobe Illustrator 19.1.0, SVG Export Plug-In . SVG Version: 6.00 Build 0)  -->
<svg version="1.1" preserveAspectRatio="xMinYMid" id="Layer_1" xmlns="http://www.w3.org/2000/svg" xmlns:xlink="http://www.w3.org/1999/xlink" x="0px" y="0px"
	 viewBox="0 0 202 425" style="enable-background:new 0 0 202 425;" xml:space="preserve">
<style type="text/css">
	.st0{fill:#FFFFFF;stroke:#010101;stroke-width:2;stroke-miterlimit:10;}
	.st1{fill:#1A1A1A;stroke:#ECECEC;stroke-miterlimit:10;}
	.st2{fill:#3A50A2;stroke:#1D1D1B;stroke-miterlimit:10;}
	.st3{fill:#1D1D1B;stroke:#1D1D1B;stroke-miterlimit:10;}
	.st4{fill:#D9D9D8;stroke:#1D1D1B;stroke-miterlimit:10;}
	.st5{fill:#9C9B9B;stroke:#1D1D1B;stroke-miterlimit:10;}
	.st6{fill:none;stroke:#1D1D1B;stroke-width:0.3392;stroke-miterlimit:10;}
	.st7{fill:none;stroke:#3A50A2;stroke-width:0.3392;stroke-miterlimit:10;}
	.st8{fill:none;stroke:#1D1D1B;stroke-miterlimit:10;}
	.st9{fill:#FFFFFF;stroke:#1D1D1B;stroke-miterlimit:10;}
	.st10{fill:#FFFFFF;stroke:#010101;stroke-miterlimit:10;}
	.st11{fill:#010101;stroke:#FFFFFF;stroke-width:0.746;stroke-miterlimit:10;}
	.st12{fill:#010101;stroke:#FFFFFF;stroke-width:0.8525;stroke-miterlimit:10;}
	.st13{fill:#FFFFFF;}
	.st14{fill:#1D1D1B;}
	.st15{fill:#3A50A2;}
	.st16{fill:none;stroke:#1D1D1B;stroke-width:0.9816;stroke-miterlimit:10;}
	.st17{fill:none;}
</style>
<path class="st0" d="M201,394.2c0,16.5-13.4,29.8-29.8,29.8H30.8C14.4,424,1,410.6,1,394.2V30.8C1,14.4,14.4,1,30.8,1h140.3
	C187.6,1,201,14.4,201,30.8V394.2z"/>
<rect x="14.5" y="62.5" class="st1" width="172" height="303"/>
<rect x="15.2" y="348.8" class="st2" width="17.2" height="17.2"/>
<rect x="32.4" y="348.8" class="st2" width="17.2" height="17.2"/>
<rect x="49.6" y="348.8" class="st2" width="17.2" height="17.2"/>
<rect x="66.8" y="348.8" class="st2" width="17.2" height="17.2"/>
<rect x="84" y="348.8" class="st2" width="17.2" height="17.2"/>
<rect x="101.1" y="348.8" class="st3" width="17.2" height="17.2"/>
<rect x="118.3" y="348.8" class="st2" width="17.2" height="17.2"/>
<rect x="135.5" y="348.8" class="st4" width="17.2" height="17.2"/>
<rect x="152.4" y="348.8" class="st4" width="17.2" height="17.2"/>
<rect x="169.5" y="348.8" class="st2" width="17.2" height="17.2"/>
<rect x="15.2" y="331.7" class="st5" width="17.2" height="17.2"/>
<rect x="32.4" y="331.7" class="st4" width="17.2" height="17.2"/>
<rect x="49.6" y="331.7" class="st4" width="17.2" height="17.2"/>
<rect x="66.8" y="331.7" class="st4" width="17.2" height="17.2"/>
<rect x="84" y="331.7" class="st4" width="17.2" height="17.2"/>
<rect x="101.1" y="331.7" class="st3" width="17.2" height="17.2"/>
<rect x="118.3" y="331.7" class="st2" width="17.2" height="17.2"/>
<rect x="135.5" y="331.7" class="st4" width="17.2" height="17.2"/>
<rect x="152.4" y="331.7" class="st4" width="17.2" height="17.2"/>
<rect x="169.5" y="331.7" class="st2" width="17.2" height="17.2"/>
<rect x="15.2" y="314.5" class="st5" width="17.2" height="17.2"/>
<rect x="32.4" y="314.5" class="st5" width="17.2" height="17.2"/>
<rect x="49.6" y="314.5" class="st5" width="17.2" height="17.2"/>
<rect x="66.8" y="314.5" class="st5" width="17.2" height="17.2"/>
<rect x="84" y="314.5" class="st3" width="17.2" height="17.2"/>
<rect x="101.1" y="314.5" class="st2" width="17.2" height="17.2"/>
<rect x="118.3" y="314.5" class="st2" width="17.2" height="17.2"/>
<rect x="135.5" y="314.5" class="st5" width="17.2" height="17.2"/>
<rect x="152.4" y="314.5" class="st2" width="17.2" height="17.2"/>
<rect x="169.5" y="314.5" class="st2" width="17.2" height="17.2"/>
<rect x="15.2" y="297.3" class="st4" width="17.2" height="17.2"/>
<rect x="32.4" y="297.3" class="st6" width="17.2" height="17.2"/>
<rect x="49.6" y="297.3" class="st5" width="17.2" height="17.2"/>
<rect x="66.8" y="297.3" class="st5" width="17.2" height="17.2"/>
<rect x="84" y="297.3" class="st6" width="17.2" height="17.2"/>
<rect x="101.1" y="297.3" class="st2" width="17.2" height="17.2"/>
<rect x="118.3" y="297.3" class="st2" width="17.2" height="17.2"/>
<rect x="135.5" y="297.3" class="st5" width="17.2" height="17.2"/>
<rect x="152.4" y="297.3" class="st6" width="17.2" height="17.2"/>
<rect x="169.5" y="297.3" class="st6" width="17.2" height="17.2"/>
<rect x="15.2" y="280.1" class="st4" width="17.2" height="17.2"/>
<rect x="32.4" y="280.1" class="st6" width="17.2" height="17.2"/>
<rect x="49.6" y="280.1" class="st2" width="17.2" height="17.2"/>
<rect x="66.8" y="280.1" class="st2" width="17.2" height="17.2"/>
<rect x="84" y="280.1" class="st2" width="17.2" height="17.2"/>
<rect x="101.1" y="280.1" class="st2" width="17.2" height="17.2"/>
<rect x="118.3" y="280.1" class="st4" width="17.2" height="17.2"/>
<rect x="135.5" y="280.1" class="st5" width="17.2" height="17.2"/>
<rect x="152.4" y="280.1" class="st6" width="17.2" height="17.2"/>
<rect x="169.5" y="280.1" class="st6" width="17.2" height="17.2"/>
<rect x="15.2" y="263" class="st4" width="17.2" height="17.2"/>
<rect x="32.4" y="263" class="st2" width="17.2" height="17.2"/>
<rect x="49.6" y="263" class="st2" width="17.2" height="17.2"/>
<rect x="66.8" y="263" class="st2" width="17.2" height="17.2"/>
<rect x="84" y="263" class="st4" width="17.2" height="17.2"/>
<rect x="101.1" y="263" class="st4" width="17.2" height="17.2"/>
<rect x="118.3" y="263" class="st4" width="17.2" height="17.2"/>
<rect x="135.5" y="263" class="st5" width="17.2" height="17.2"/>
<rect x="152.4" y="263" class="st6" width="17.2" height="17.2"/>
<rect x="169.5" y="263" class="st6" width="17.2" height="17.2"/>
<rect x="15.2" y="245.8" class="st4" width="17.2" height="17.2"/>
<rect x="32.4" y="245.8" class="st6" width="17.2" height="17.2"/>
<rect x="49.6" y="245.8" class="st6" width="17.2" height="17.2"/>
<rect x="66.8" y="245.8" class="st6" width="17.2" height="17.2"/>
<rect x="84" y="245.8" class="st6" width="17.2" height="17.2"/>
<rect x="101.1" y="245.8" class="st6" width="17.2" height="17.2"/>
<rect x="118.3" y="245.8" class="st6" width="17.2" height="17.2"/>
<rect x="135.5" y="245.8" class="st6" width="17.2" height="17.2"/>
<rect x="152.4" y="245.8" class="st6" width="17.2" height="17.2"/>
<rect x="169.5" y="245.8" class="st6" width="17.2" height="17.2"/>
<rect x="15.2" y="228.7" class="st6" width="17.2" height="17.2"/>
<rect x="32.4" y="228.7" class="st7" width="17.2" height="17.2"/>
<rect x="49.6" y="228.7" class="st7" width="17.2" height="17.2"/>
<rect x="66.8" y="228.7" class="st7" width="17.2" height="17.2"/>
<rect x="84" y="228.7" class="st7" width="17.2" height="17.2"/>
<rect x="101.1" y="228.7" class="st7" width="17.2" height="17.2"/>
<rect x="118.3" y="228.7" class="st7" width="17.2" height="17.2"/>
<rect x="135.5" y="228.7" class="st7" width="17.2" height="17.2"/>
<rect x="152.4" y="228.7" class="st5" width="17.2" height="17.2"/>
<rect x="169.5" y="228.7" class="st6" width="17.2" height="17.2"/>
<rect x="15.2" y="211.5" class="st5" width="17.2" height="17.2"/>
<rect x="32.4" y="211.5" class="st7" width="17.2" height="17.2"/>
<rect x="49.6" y="211.5" class="st7" width="17.2" height="17.2"/>
<rect x="66.8" y="211.5" class="st2" width="17.2" height="17.2"/>
<rect x="84" y="211.5" class="st2" width="17.2" height="17.2"/>
<rect x="101.1" y="211.5" class="st7" width="17.2" height="17.2"/>
<rect x="118.3" y="211.5" class="st7" width="17.2" height="17.2"/>
<rect x="135.5" y="211.5" class="st5" width="17.2" height="17.2"/>
<rect x="152.4" y="211.5" class="st5" width="17.2" height="17.2"/>
<rect x="169.5" y="211.5" class="st6" width="17.2" height="17.2"/>
<rect x="15.2" y="194.3" class="st8" width="17.2" height="17.2"/>
<rect x="32.4" y="194.3" class="st7" width="17.2" height="17.2"/>
<rect x="49.6" y="194.3" class="st7" width="17.2" height="17.2"/>
<rect x="66.8" y="194.3" class="st2" width="17.2" height="17.2"/>
<rect x="84" y="194.3" class="st2" width="17.2" height="17.2"/>
<rect x="101.1" y="194.3" class="st7" width="17.2" height="17.2"/>
<rect x="118.3" y="194.3" class="st7" width="17.2" height="17.2"/>
<rect x="135.5" y="194.3" class="st5" width="17.2" height="17.2"/>
<rect x="152.4" y="194.3" class="st7" width="17.2" height="17.2"/>
<rect x="169.5" y="194.3" class="st6" width="17.2" height="17.2"/>
<rect x="15.2" y="177.1" class="st8" width="17.2" height="17.2"/>
<rect x="32.4" y="177.1" class="st7" width="17.2" height="17.2"/>
<rect x="49.6" y="177.1" class="st7" width="17.2" height="17.2"/>
<rect x="66.8" y="177.1" class="st7" width="17.2" height="17.2"/>
<rect x="84" y="177.1" class="st7" width="17.2" height="17.2"/>
<rect x="101.1" y="177.1" class="st7" width="17.2" height="17.2"/>
<rect x="118.3" y="177.1" class="st7" width="17.2" height="17.2"/>
<rect x="135.5" y="177.1" class="st7" width="17.2" height="17.2"/>
<rect x="152.4" y="177.1" class="st7" width="17.2" height="17.2"/>
<rect x="169.5" y="177.1" class="st6" width="17.2" height="17.2"/>
<rect x="15.2" y="160" class="st8" width="17.2" height="17.2"/>
<rect x="32.4" y="160" class="st9" width="17.2" height="17.2"/>
<rect x="49.6" y="160" class="st7" width="17.2" height="17.2"/>
<rect x="66.8" y="160" class="st7" width="17.2" height="17.2"/>
<rect x="84" y="160" class="st7" width="17.2" height="17.2"/>
<rect x="101.1" y="160" class="st7" width="17.2" height="17.2"/>
<rect x="118.3" y="160" class="st7" width="17.2" height="17.2"/>
<rect x="135.5" y="160" class="st7" width="17.2" height="17.2"/>
<rect x="152.4" y="160" class="st7" width="17.2" height="17.2"/>
<rect x="169.5" y="160" class="st6" width="17.2" height="17.2"/>
<rect x="15.2" y="142.8" class="st8" width="17.2" height="17.2"/>
<rect x="32.4" y="142.8" class="st9" width="17.2" height="17.2"/>
<rect x="49.6" y="142.8" class="st7" width="17.2" height="17.2"/>
<rect x="66.8" y="142.8" class="st7" width="17.2" height="17.2"/>
<rect x="84" y="142.8" class="st7" width="17.2" height="17.2"/>
<rect x="101.1" y="142.8" class="st7" width="17.2" height="17.2"/>
<rect x="118.3" y="142.8" class="st7" width="17.2" height="17.2"/>
<rect x="135.5" y="142.8" class="st7" width="17.2" height="17.2"/>
<rect x="152.4" y="142.8" class="st7" width="17.2" height="17.2"/>
<rect x="169.5" y="142.8" class="st6" width="17.2" height="17.2"/>
<rect x="15.2" y="125.7" class="st8" width="17.2" height="17.2"/>
<rect x="32.4" y="125.7" class="st6" width="17.2" height="17.2"/>
<rect x="49.6" y="125.7" class="st6" width="17.2" height="17.2"/>
<rect x="66.8" y="125.7" class="st6" width="17.2" height="17.2"/>
<rect x="84" y="125.7" class="st4" width="17.2" height="17.2"/>
<rect x="101.1" y="125.7" class="st6" width="17.2" height="17.2"/>
<rect x="118.3" y="125.7" class="st6" width="17.2" height="17.2"/>
<rect x="135.5" y="125.7" class="st6" width="17.2" height="17.2"/>
<rect x="152.4" y="125.7" class="st2" width="17.2" height="17.2"/>
<rect x="169.5" y="125.7" class="st6" width="17.2" height="17.2"/>
<rect x="15.2" y="108.5" class="st8" width="17.2" height="17.2"/>
<rect x="32.4" y="108.5" class="st6" width="17.2" height="17.2"/>
<rect x="49.6" y="108.5" class="st6" width="17.2" height="17.2"/>
<rect x="66.8" y="108.5" class="st6" width="17.2" height="17.2"/>
<rect x="84" y="108.5" class="st6" width="17.2" height="17.2"/>
<rect x="101.1" y="108.5" class="st6" width="17.2" height="17.2"/>
<rect x="118.3" y="108.5" class="st6" width="17.2" height="17.2"/>
<rect x="135.5" y="108.5" class="st6" width="17.2" height="17.2"/>
<rect x="152.4" y="108.5" class="st2" width="17.2" height="17.2"/>
<rect x="169.5" y="108.5" class="st6" width="17.2" height="17.2"/>
<rect x="15.2" y="91.3" class="st8" width="17.2" height="17.2"/>
<rect x="32.4" y="91.3" class="st6" width="17.2" height="17.2"/>
<rect x="49.6" y="91.3" class="st2" width="17.2" height="17.2"/>
<rect x="66.8" y="91.3" class="st6" width="17.2" height="17.2"/>
<rect x="84" y="91.3" class="st6" width="17.2" height="17.2"/>
<rect x="101.1" y="91.3" class="st6" width="17.2" height="17.2"/>
<rect x="118.3" y="91.3" class="st6" width="17.2" height="17.2"/>
<rect x="135.5" y="91.3" class="st2" width="17.2" height="17.2"/>
<rect x="152.4" y="91.3" class="st2" width="17.2" height="17.2"/>
<rect x="169.5" y="91.3" class="st6" width="17.2" height="17.2"/>
<rect x="15.2" y="74.6" class="st8" width="17.2" height="17.2"/>
<rect x="32.4" y="74.6" class="st2" width="17.2" height="17.2"/>
<rect x="49.6" y="74.6" class="st2" width="17.2" height="17.2"/>
<rect x="66.8" y="74.6" class="st6" width="17.2" height="17.2"/>
<rect x="84" y="74.6" class="st6" width="17.2" height="17.2"/>
<rect x="101.1" y="74.6" class="st6" width="17.2" height="17.2"/>
<rect x="118.3" y="74.6" class="st6" width="17.2" height="17.2"/>
<rect x="135.5" y="74.6" class="st6" width="17.2" height="17.2"/>
<rect x="152.4" y="74.6" class="st6" width="17.2" height="17.2"/>
<rect x="169.5" y="74.6" class="st6" width="17.2" height="17.2"/>
<rect x="15.2" y="62.8" class="st8" width="17.2" height="11.8"/>
<rect x="32.4" y="62.8" class="st2" width="17.2" height="11.8"/>
<rect x="49.6" y="62.8" class="st6" width="17.2" height="11.8"/>
<rect x="66.8" y="62.8" class="st6" width="17.2" height="11.8"/>
<rect x="84" y="62.8" class="st6" width="17.2" height="11.8"/>
<rect x="101.1" y="62.8" class="st6" width="17.2" height="11.8"/>
<rect x="118.3" y="62.8" class="st6" width="17.2" height="11.8"/>
<rect x="135.5" y="62.8" class="st6" width="17.2" height="11.8"/>
<rect x="152.4" y="62.8" class="st6" width="17.2" height="11.8"/>
<rect x="169.5" y="62.8" class="st6" width="17.2" height="11.8"/>
<g>
	<circle class="st10" cx="101.9" cy="392.7" r="17.1"/>
</g>
<circle class="st11" cx="101.4" cy="23.9" r="3.2"/>
<path class="st12" d="M124.2,35.3H79.1c-1,0-1.8-0.8-1.8-1.8l0,0c0-1,0.8-1.7,1.8-1.7h45.2c1,0,1.8,0.8,1.8,1.7l0,0
	C126,34.5,125.2,35.3,124.2,35.3z"/>
<g>
	<path class="st13" d="M171.3,239.6c0,4.7-3.8,8.5-8.5,8.5H38.6c-4.7,0-8.5-3.8-8.5-8.5v-93.8c0-4.7,3.8-8.5,8.5-8.5h124.2
		c4.7,0,8.5,3.8,8.5,8.5V239.6z"/>
	<path class="st8" d="M171.3,239.6c0,4.7-3.8,8.5-8.5,8.5H38.6c-4.7,0-8.5-3.8-8.5-8.5v-93.8c0-4.7,3.8-8.5,8.5-8.5h124.2
		c4.7,0,8.5,3.8,8.5,8.5V239.6z"/>
</g>
<g>
	<g>
		<path class="st14" d="M50.8,166l-0.8-2.3h-4.4l-0.8,2.3h-1.1l3.7-10h0.9l3.7,10H50.8z M47.9,157.6l-1.9,5.3h3.7L47.9,157.6z"/>
		<path class="st14" d="M57.3,160.4c-0.4-0.4-0.7-0.5-1.2-0.5c-1,0-1.7,0.8-1.7,1.8v4.2h-1v-6.9h1v0.8c0.4-0.6,1.1-0.9,1.9-0.9
			c0.7,0,1.2,0.2,1.7,0.6L57.3,160.4z"/>
		<path class="st14" d="M59.4,162.8c0,1.5,0.7,2.4,2,2.4c0.8,0,1.3-0.2,1.8-0.8L64,165c-0.7,0.7-1.3,1.1-2.5,1.1c-1.8,0-3-1.1-3-3.5
			c0-2.2,1.1-3.5,2.8-3.5c1.8,0,2.8,1.3,2.8,3.3v0.5H59.4z M62.9,160.9c-0.3-0.6-0.9-1-1.6-1s-1.3,0.4-1.6,1
			c-0.2,0.4-0.2,0.6-0.2,1.1h3.6C63.1,161.5,63,161.3,62.9,160.9z"/>
		<path class="st14" d="M71.4,167.7c-0.1,0.4-0.3,0.6-0.5,0.8c-0.4,0.4-0.9,0.5-1.3,0.5h-0.4v-0.9h0.3c0.7,0,0.9-0.2,1.1-0.9
			l0.5-1.3l-2.5-6.8h1.1l1.9,5.5l1.9-5.5h1.1L71.4,167.7z"/>
		<path class="st14" d="M80.3,165.3c-0.5,0.5-1.1,0.8-2,0.8s-1.5-0.3-2-0.8c-0.7-0.7-0.8-1.7-0.8-2.7s0.1-2,0.8-2.7
			c0.5-0.5,1.1-0.8,2-0.8s1.5,0.3,2,0.8c0.7,0.7,0.8,1.7,0.8,2.7S81,164.6,80.3,165.3z M79.6,160.4c-0.3-0.3-0.8-0.5-1.3-0.5
			s-0.9,0.2-1.2,0.5c-0.5,0.5-0.6,1.4-0.6,2.1s0.1,1.6,0.6,2.1c0.3,0.3,0.8,0.5,1.2,0.5s0.9-0.2,1.3-0.5c0.5-0.5,0.5-1.4,0.5-2.1
			S80.1,160.9,79.6,160.4z"/>
		<path class="st14" d="M87.6,166v-0.8c-0.5,0.6-1.2,0.9-1.9,0.9c-0.7,0-1.4-0.2-1.8-0.6c-0.5-0.5-0.7-1.1-0.7-1.9v-4.4h1v4.2
			c0,1.2,0.6,1.8,1.7,1.8c1,0,1.7-0.6,1.7-1.8v-4.2h1v6.9H87.6z"/>
		<path class="st14" d="M96.8,166.1c-1.2,0-2.1-0.3-2.8-1l0.7-0.7c0.5,0.6,1.3,0.8,2.1,0.8c1.1,0,1.8-0.4,1.8-1.2
			c0-0.6-0.4-0.9-1.1-1l-1.1-0.1c-1.3-0.1-2.1-0.7-2.1-1.8c0-1.3,1.1-2,2.5-2c1,0,1.9,0.2,2.5,0.7l-0.7,0.7
			c-0.5-0.4-1.1-0.5-1.8-0.5c-1,0-1.5,0.4-1.5,1.1c0,0.6,0.3,0.9,1.2,1l1.1,0.1c1.2,0.1,2,0.6,2,1.9
			C99.6,165.3,98.5,166.1,96.8,166.1z"/>
		<path class="st14" d="M103.4,166c-1.2,0-1.8-0.8-1.8-1.8v-4.2h-0.9v-0.8h0.9V157h1v2.2h1.5v0.8h-1.5v4.2c0,0.6,0.3,1,0.9,1h0.5
			v0.9H103.4z"/>
		<path class="st14" d="M106,157.2V156h1.1v1.1H106z M106.1,166v-6.9h1v6.9H106.1z"/>
		<path class="st14" d="M111.3,166c-1.2,0-1.8-0.8-1.8-1.8V156h1v8.1c0,0.7,0.2,1,0.9,1h0.5v0.9H111.3z"/>
		<path class="st14" d="M115.5,166c-1.2,0-1.8-0.8-1.8-1.8V156h1v8.1c0,0.7,0.2,1,0.9,1h0.5v0.9H115.5z"/>
		<path class="st14" d="M123.3,166c-1.2,0-1.8-0.8-1.8-1.8v-4.2h-0.9v-0.8h0.9V157h1v2.2h1.5v0.8h-1.5v4.2c0,0.6,0.3,1,0.9,1h0.5
			v0.9H123.3z"/>
		<path class="st14" d="M130.5,166v-4.3c0-1.2-0.6-1.8-1.7-1.8s-1.7,0.6-1.7,1.8v4.3h-1v-10h1v3.8c0.5-0.6,1.2-0.8,1.9-0.8
			c1.6,0,2.5,1,2.5,2.5v4.4H130.5z"/>
		<path class="st14" d="M134.6,162.8c0,1.5,0.7,2.4,2,2.4c0.8,0,1.3-0.2,1.8-0.8l0.7,0.6c-0.7,0.7-1.3,1.1-2.5,1.1
			c-1.8,0-3-1.1-3-3.5c0-2.2,1.1-3.5,2.8-3.5c1.8,0,2.8,1.3,2.8,3.3v0.5H134.6z M138,160.9c-0.3-0.6-0.9-1-1.6-1s-1.3,0.4-1.6,1
			c-0.2,0.4-0.2,0.6-0.2,1.1h3.6C138.2,161.5,138.1,161.3,138,160.9z"/>
		<path class="st14" d="M145.2,160.4c-0.4-0.4-0.7-0.5-1.2-0.5c-1,0-1.7,0.8-1.7,1.8v4.2h-1v-6.9h1v0.8c0.4-0.6,1.1-0.9,1.9-0.9
			c0.7,0,1.2,0.2,1.7,0.6L145.2,160.4z"/>
		<path class="st14" d="M147.4,162.8c0,1.5,0.7,2.4,2,2.4c0.8,0,1.3-0.2,1.8-0.8l0.7,0.6c-0.7,0.7-1.3,1.1-2.5,1.1
			c-1.8,0-3-1.1-3-3.5c0-2.2,1.1-3.5,2.8-3.5c1.8,0,2.8,1.3,2.8,3.3v0.5H147.4z M150.8,160.9c-0.3-0.6-0.9-1-1.6-1s-1.3,0.4-1.6,1
			c-0.2,0.4-0.2,0.6-0.2,1.1h3.6C151,161.5,151,161.3,150.8,160.9z"/>
		<path class="st14" d="M158.6,160.2l-1.1,1.7c-0.2,0.3-0.3,0.6-0.3,0.8v0.5h-1v-0.6c0-0.5,0.1-0.9,0.4-1.3l1.1-1.6
			c0.3-0.4,0.5-0.7,0.5-1.2c0-0.9-0.7-1.7-1.6-1.7c-1,0-1.6,0.8-1.6,1.7h-1c0-1.4,1.1-2.6,2.6-2.6c1.5,0,2.6,1.1,2.6,2.5
			C159.2,159.2,159,159.7,158.6,160.2z M156.1,166v-1.2h1.2v1.2H156.1z"/>
		<path class="st14" d="M54.6,182.1c-0.6,0.6-1.5,0.9-2.6,0.9h-3.5v-10h3.5c1,0,1.9,0.3,2.6,0.9c1.1,1.1,1,2.5,1,4
			S55.7,181,54.6,182.1z M53.6,175.1c-0.4-0.5-1-0.7-1.7-0.7h-1.8v7.3h1.8c0.7,0,1.3-0.2,1.7-0.7c0.5-0.6,0.5-1.7,0.5-3
			C54.1,176.6,54.1,175.6,53.6,175.1z"/>
		<path class="st14" d="M61.5,183v-0.6c-0.5,0.5-1,0.7-1.9,0.7c-0.9,0-1.5-0.2-1.9-0.6c-0.4-0.4-0.6-0.9-0.6-1.5c0-1.2,0.8-2,2.5-2
			h1.9v-0.5c0-0.9-0.4-1.3-1.6-1.3c-0.8,0-1.2,0.2-1.6,0.7l-0.9-0.9c0.7-0.8,1.4-1,2.5-1c1.9,0,2.9,0.8,2.9,2.4v4.7H61.5z
			 M61.5,179.9h-1.7c-0.8,0-1.3,0.4-1.3,1c0,0.6,0.4,1,1.3,1c0.5,0,1,0,1.3-0.4c0.2-0.2,0.3-0.5,0.3-1.1V179.9z"/>
		<path class="st14" d="M67.2,183c-1.3,0-1.9-1-1.9-2v-3.9h-0.8V176h0.8v-2.2h1.4v2.2h1.4v1.1h-1.4v3.8c0,0.5,0.3,0.8,0.8,0.8h0.6
			v1.2H67.2z"/>
		<path class="st14" d="M73.7,183v-0.6c-0.5,0.5-1,0.7-1.9,0.7c-0.9,0-1.5-0.2-1.9-0.6c-0.4-0.4-0.6-0.9-0.6-1.5c0-1.2,0.8-2,2.5-2
			h1.9v-0.5c0-0.9-0.4-1.3-1.6-1.3c-0.8,0-1.2,0.2-1.6,0.7l-0.9-0.9c0.7-0.8,1.4-1,2.5-1c1.9,0,2.9,0.8,2.9,2.4v4.7H73.7z
			 M73.7,179.9H72c-0.8,0-1.3,0.4-1.3,1c0,0.6,0.4,1,1.3,1c0.5,0,1,0,1.3-0.4c0.2-0.2,0.3-0.5,0.3-1.1V179.9z"/>
		<path class="st14" d="M85.7,182.5c-0.4,0.4-1,0.6-1.7,0.6c-0.8,0-1.3-0.2-1.9-0.8v3.6h-1.4v-10h1.4v0.8c0.5-0.6,1.1-0.8,1.9-0.8
			c0.7,0,1.3,0.2,1.7,0.6c0.7,0.7,0.8,1.9,0.8,3S86.4,181.8,85.7,182.5z M83.6,177.1c-1.3,0-1.5,1.1-1.5,2.4s0.2,2.4,1.5,2.4
			c1.3,0,1.5-1.1,1.5-2.4S84.9,177.1,83.6,177.1z"/>
		<path class="st14" d="M92.7,183v-0.7c-0.5,0.5-1.2,0.8-1.9,0.8c-0.7,0-1.3-0.2-1.8-0.6c-0.5-0.5-0.7-1.2-0.7-2v-4.5h1.4v4.3
			c0,1.1,0.6,1.6,1.4,1.6c0.8,0,1.5-0.5,1.5-1.6v-4.3h1.4v7.1H92.7z"/>
		<path class="st14" d="M101.4,182.5c-0.4,0.4-1,0.6-1.7,0.6c-0.8,0-1.3-0.2-1.9-0.8v0.8h-1.4v-10h1.4v3.6c0.5-0.6,1.1-0.8,1.9-0.8
			c0.7,0,1.3,0.2,1.7,0.6c0.7,0.7,0.8,1.9,0.8,3S102.1,181.8,101.4,182.5z M99.3,177.1c-1.3,0-1.5,1.1-1.5,2.4s0.2,2.4,1.5,2.4
			c1.3,0,1.5-1.1,1.5-2.4S100.6,177.1,99.3,177.1z"/>
		<path class="st14" d="M106,183c-1.4,0-1.9-0.9-1.9-2v-8h1.4v7.9c0,0.5,0.2,0.8,0.8,0.8h0.6v1.2H106z"/>
		<path class="st14" d="M108.4,174.5V173h1.5v1.5H108.4z M108.4,183v-7.1h1.4v7.1H108.4z"/>
		<path class="st14" d="M114.4,183.1c-1.2,0-2.1-0.2-3-1l0.9-0.9c0.6,0.6,1.3,0.7,2,0.7c0.9,0,1.6-0.3,1.6-1c0-0.5-0.3-0.8-1-0.8
			l-1.1-0.1c-1.3-0.1-2.1-0.7-2.1-2c0-1.4,1.2-2.2,2.7-2.2c1.1,0,2,0.2,2.6,0.8l-0.9,0.9c-0.4-0.4-1.1-0.5-1.8-0.5
			c-0.9,0-1.3,0.4-1.3,0.9c0,0.4,0.2,0.7,1,0.8l1.1,0.1c1.3,0.1,2.1,0.7,2.1,2C117.4,182.3,116.1,183.1,114.4,183.1z"/>
		<path class="st14" d="M123.4,183v-4.4c0-1.1-0.6-1.6-1.4-1.6s-1.4,0.5-1.4,1.6v4.4h-1.4v-10h1.4v3.6c0.5-0.5,1.1-0.8,1.8-0.8
			c1.6,0,2.5,1.1,2.5,2.6v4.6H123.4z"/>
		<path class="st14" d="M128.1,179.9c0,1.2,0.6,2,1.8,2c0.8,0,1.2-0.2,1.7-0.7l0.9,0.9c-0.7,0.7-1.4,1.1-2.7,1.1
			c-1.8,0-3.2-0.9-3.2-3.6c0-2.3,1.2-3.6,3-3.6c1.9,0,3,1.4,3,3.4v0.6H128.1z M131.1,177.9c-0.2-0.5-0.7-0.9-1.4-0.9
			c-0.7,0-1.2,0.4-1.4,0.9c-0.1,0.3-0.2,0.5-0.2,1h3.2C131.3,178.4,131.2,178.2,131.1,177.9z"/>
		<path class="st14" d="M138.7,183v-0.8c-0.5,0.6-1.1,0.8-1.9,0.8c-0.7,0-1.3-0.2-1.7-0.6c-0.7-0.7-0.8-1.9-0.8-3s0.1-2.3,0.8-3
			c0.4-0.4,1-0.6,1.7-0.6c0.8,0,1.3,0.2,1.9,0.8V173h1.4v10H138.7z M137.2,177.1c-1.3,0-1.5,1.1-1.5,2.4s0.2,2.4,1.5,2.4
			s1.5-1.1,1.5-2.4S138.5,177.1,137.2,177.1z"/>
		<path class="st14" d="M145.7,174.5V173h1.5v1.5H145.7z M145.7,183v-7.1h1.4v7.1H145.7z"/>
		<path class="st14" d="M153.7,183v-4.3c0-1.1-0.6-1.6-1.4-1.6s-1.5,0.5-1.5,1.6v4.3h-1.4v-7.1h1.4v0.7c0.5-0.5,1.2-0.8,1.9-0.8
			c0.7,0,1.3,0.2,1.8,0.6c0.5,0.5,0.7,1.2,0.7,2v4.5H153.7z"/>
		<path class="st15" d="M88.4,200.1c-1.6,0-2.9-1.1-2.9-2.9v-4.4c0-1.8,1.3-2.9,2.9-2.9s2.9,1.1,2.9,2.9v4.4
			C91.3,199,90,200.1,88.4,200.1z M89.9,192.9c0-1-0.5-1.6-1.5-1.6s-1.4,0.7-1.4,1.6v4.3c0,1,0.5,1.6,1.4,1.6s1.5-0.7,1.5-1.6V192.9
			z"/>
		<path class="st15" d="M95.9,200.1c-1.6,0-2.9-1.1-2.9-2.9v-4.4c0-1.8,1.3-2.9,2.9-2.9s2.9,1.1,2.9,2.9v4.4
			C98.8,199,97.5,200.1,95.9,200.1z M97.3,192.9c0-1-0.5-1.6-1.5-1.6s-1.4,0.7-1.4,1.6v4.3c0,1,0.5,1.6,1.4,1.6s1.5-0.7,1.5-1.6
			V192.9z"/>
		<path class="st15" d="M101.1,196v-1.7h1.7v1.7H101.1z M101.1,200v-1.7h1.7v1.7H101.1z"/>
		<path class="st15" d="M104.7,200v-1.3l3.8-4.7c0.4-0.5,0.5-0.8,0.5-1.3c0-0.9-0.5-1.5-1.5-1.5c-0.8,0-1.5,0.4-1.5,1.5h-1.4
			c0-1.7,1.2-2.8,2.9-2.8c1.7,0,2.9,1.1,2.9,2.8c0,0.9-0.3,1.4-0.9,2.2l-3.1,3.8h4.1v1.3H104.7z"/>
		<path class="st15" d="M117.3,195.4L115,200h-1.5l2.1-4.3c-0.3,0.1-0.6,0.2-0.9,0.2c-1.4,0-2.6-1.1-2.6-2.9c0-1.8,1.2-3,2.9-3
			c1.7,0,3,1.1,3,3C118,193.8,117.7,194.5,117.3,195.4z M115,191.2c-0.9,0-1.5,0.7-1.5,1.7c0,1,0.6,1.7,1.5,1.7
			c0.9,0,1.5-0.6,1.5-1.7C116.6,191.9,115.9,191.2,115,191.2z"/>
	</g>
</g>
<line class="st16" x1="30.1" y1="218.4" x2="171.6" y2="218.4"/>
<g>
	<rect x="64.4" y="227.1" class="st17" width="73" height="16.4"/>
	<path class="st15" d="M95.1,233v4.1h-1.9V233l-3-5.9h2.1l1.9,4l1.8-4h2.1L95.1,233z"/>
	<path class="st15" d="M99.5,234c0,0.9,0.6,1.6,1.6,1.6c0.8,0,1.2-0.2,1.7-0.7l1.1,1.1c-0.7,0.7-1.5,1.1-2.8,1.1
		c-1.7,0-3.4-0.8-3.4-3.7c0-2.4,1.3-3.7,3.2-3.7c2,0,3.2,1.5,3.2,3.5v0.8H99.5z M102.1,232c-0.2-0.4-0.6-0.8-1.2-0.8
		c-0.6,0-1,0.3-1.2,0.8c-0.1,0.3-0.2,0.5-0.2,0.8h2.8C102.2,232.5,102.2,232.3,102.1,232z"/>
	<path class="st15" d="M108.1,237.2c-1.1,0-2.2-0.1-3.1-1l1.2-1.2c0.6,0.6,1.4,0.7,1.9,0.7c0.6,0,1.3-0.2,1.3-0.8
		c0-0.4-0.2-0.6-0.8-0.7l-1.1-0.1c-1.3-0.1-2.1-0.7-2.1-2c0-1.5,1.3-2.3,2.8-2.3c1.1,0,2.1,0.2,2.8,0.9l-1.1,1.1
		c-0.4-0.4-1.1-0.5-1.7-0.5c-0.7,0-1,0.3-1,0.7c0,0.3,0.1,0.6,0.8,0.6l1.1,0.1c1.4,0.1,2.2,0.9,2.2,2.1
		C111.2,236.4,109.8,237.2,108.1,237.2z"/>
</g>
<rect x="4.6" y="61.7" class="st13" width="11.6" height="316"/>
<rect x="186.3" y="61.7" class="st13" width="11.9" height="308"/>
<rect x="15.2" y="365" class="st13" width="171.1" height="3.7"/>
<rect x="15.2" y="60" class="st13" width="171.1" height="3.7"/>
<rect x="16.2" y="64.2" class="st8" width="170.1" height="300.8"/>
<g>
</g>
<g>
</g>
<g>
</g>
<g>
</g>
<g>
</g>
<g>
</g>
</svg>
