<?xml version="1.0" encoding="utf-8"?>
<!-- Generator: Adobe Illustrator 19.1.0, SVG Export Plug-In . SVG Version: 6.00 Build 0)  -->
<svg version="1.1" id="Layer_1" xmlns="http://www.w3.org/2000/svg" xmlns:xlink="http://www.w3.org/1999/xlink" x="0px" y="0px"
	 viewBox="0 0 244.6 205.8" style="enable-background:new 0 0 244.6 205.8;" xml:space="preserve">
<style type="text/css">
	.st0{fill:#FFFFFF;}
	.st1{fill:none;stroke:#1D1D1B;stroke-width:2;stroke-miterlimit:10;}
	.st2{fill:none;}
	.st3{fill:#1D1D1B;}
	.st4{fill:none;stroke:#1D1D1B;stroke-miterlimit:10;}
	.st5{fill:#3A50A2;}
	.st6{fill:#000101;stroke:#000101;stroke-width:0.8322;stroke-miterlimit:10;}
</style>
<g>
	
		<image style="overflow:visible;opacity:0.49;" width="995" height="823" xlink:href="4429F73CEBBF23D9.png"  transform="matrix(0.24 0 0 0.24 0 0)">
	</image>
	<g>
		<path class="st0" d="M235.3,186.2c0,1.5-1.2,2.7-2.7,2.7H11.2c-1.5,0-2.7-1.2-2.7-2.7V6.2c0-1.5,1.2-2.7,2.7-2.7h221.4
			c1.5,0,2.7,1.2,2.7,2.7V186.2z"/>
		<path class="st1" d="M235.3,186.2c0,1.5-1.2,2.7-2.7,2.7H11.2c-1.5,0-2.7-1.2-2.7-2.7V6.2c0-1.5,1.2-2.7,2.7-2.7h221.4
			c1.5,0,2.7,1.2,2.7,2.7V186.2z"/>
	</g>
</g>
<g>
	<rect x="37.3" y="41.1" class="st2" width="172.7" height="82.3"/>
	<path class="st3" d="M52.3,42v3.7h4.4v1h-4.4V51h-1.1v-10h6.2v1H52.3z"/>
	<path class="st3" d="M62.6,51v-0.7c-0.6,0.6-1.1,0.7-2,0.7c-1,0-1.5-0.2-1.9-0.6c-0.3-0.3-0.5-0.9-0.5-1.4c0-1.2,0.8-2,2.4-2h2.1
		v-0.7c0-1-0.5-1.5-1.8-1.5c-0.9,0-1.3,0.2-1.7,0.8l-0.7-0.6c0.6-0.8,1.3-1,2.4-1c1.8,0,2.8,0.8,2.8,2.3V51H62.6z M62.6,47.9h-1.9
		c-1,0-1.5,0.4-1.5,1.2s0.5,1.2,1.6,1.2c0.6,0,1.1,0,1.5-0.5c0.2-0.2,0.4-0.6,0.4-1.2V47.9z"/>
	<path class="st3" d="M68.7,51.1c-1.7,0-3.1-1.2-3.1-3.5c0-2.4,1.3-3.5,3.1-3.5c1,0,1.6,0.3,2.3,1l-0.7,0.6
		c-0.5-0.6-0.9-0.8-1.6-0.8c-0.7,0-1.2,0.3-1.6,0.8c-0.3,0.4-0.4,1-0.4,1.8c0,0.9,0.1,1.4,0.4,1.8c0.4,0.5,0.9,0.8,1.6,0.8
		c0.7,0,1.1-0.2,1.6-0.8l0.7,0.7C70.3,50.9,69.7,51.1,68.7,51.1z"/>
	<path class="st3" d="M73.3,47.9c0,1.5,0.7,2.4,2,2.4c0.8,0,1.3-0.2,1.8-0.8l0.7,0.6c-0.7,0.7-1.3,1.1-2.5,1.1c-1.8,0-3-1.1-3-3.5
		c0-2.2,1.1-3.5,2.8-3.5c1.8,0,2.8,1.3,2.8,3.3v0.5H73.3z M76.7,45.9c-0.3-0.6-0.9-1-1.6-1s-1.3,0.4-1.6,1c-0.2,0.4-0.2,0.6-0.2,1.1
		h3.6C76.9,46.5,76.9,46.3,76.7,45.9z"/>
	<path class="st3" d="M84.7,50.5c-0.4,0.4-1,0.6-1.7,0.6c-0.8,0-1.4-0.2-1.9-0.9V51h-1v-10h1v3.9c0.6-0.7,1.2-0.9,1.9-0.9
		c0.7,0,1.3,0.2,1.7,0.6c0.7,0.7,0.8,1.8,0.8,2.9S85.4,49.8,84.7,50.5z M82.8,45c-1.5,0-1.7,1.3-1.7,2.6s0.2,2.6,1.7,2.6
		c1.5,0,1.7-1.3,1.7-2.6S84.3,45,82.8,45z"/>
	<path class="st3" d="M92.2,50.3c-0.5,0.5-1.1,0.8-2,0.8s-1.5-0.3-2-0.8c-0.7-0.7-0.8-1.7-0.8-2.7s0.1-2,0.8-2.7
		c0.5-0.5,1.1-0.8,2-0.8s1.5,0.3,2,0.8c0.7,0.7,0.8,1.7,0.8,2.7S92.9,49.6,92.2,50.3z M91.4,45.5c-0.3-0.3-0.8-0.5-1.3-0.5
		s-0.9,0.2-1.2,0.5c-0.5,0.5-0.6,1.4-0.6,2.1s0.1,1.6,0.6,2.1c0.3,0.3,0.8,0.5,1.2,0.5s0.9-0.2,1.3-0.5c0.5-0.5,0.5-1.4,0.5-2.1
		S91.9,46,91.4,45.5z"/>
	<path class="st3" d="M99.6,50.3c-0.5,0.5-1.1,0.8-2,0.8s-1.5-0.3-2-0.8c-0.7-0.7-0.8-1.7-0.8-2.7s0.1-2,0.8-2.7
		c0.5-0.5,1.1-0.8,2-0.8s1.5,0.3,2,0.8c0.7,0.7,0.8,1.7,0.8,2.7S100.3,49.6,99.6,50.3z M98.9,45.5c-0.3-0.3-0.8-0.5-1.3-0.5
		s-0.9,0.2-1.2,0.5c-0.5,0.5-0.6,1.4-0.6,2.1s0.1,1.6,0.6,2.1c0.3,0.3,0.8,0.5,1.2,0.5s0.9-0.2,1.3-0.5c0.5-0.5,0.5-1.4,0.5-2.1
		S99.4,46,98.9,45.5z"/>
	<path class="st3" d="M107.1,51l-2.2-3.5l-1.3,1.5v2h-1v-10h1v6.7l3.1-3.6h1.3l-2.3,2.6l2.7,4.3H107.1z"/>
	<path class="st3" d="M117.7,51v-0.8c-0.6,0.7-1.2,0.9-2,0.9c-0.7,0-1.3-0.2-1.7-0.6c-0.7-0.7-0.8-1.8-0.8-2.9s0.1-2.2,0.8-2.9
		c0.4-0.4,1-0.6,1.7-0.6c0.8,0,1.4,0.2,1.9,0.9v-3.9h1v10H117.7z M115.9,45c-1.5,0-1.7,1.3-1.7,2.6s0.2,2.6,1.7,2.6
		c1.5,0,1.7-1.3,1.7-2.6S117.4,45,115.9,45z"/>
	<path class="st3" d="M125.6,50.3c-0.5,0.5-1.1,0.8-2,0.8s-1.5-0.3-2-0.8c-0.7-0.7-0.8-1.7-0.8-2.7s0.1-2,0.8-2.7
		c0.5-0.5,1.1-0.8,2-0.8s1.5,0.3,2,0.8c0.7,0.7,0.8,1.7,0.8,2.7S126.3,49.6,125.6,50.3z M124.9,45.5c-0.3-0.3-0.8-0.5-1.3-0.5
		s-0.9,0.2-1.2,0.5c-0.5,0.5-0.6,1.4-0.6,2.1s0.1,1.6,0.6,2.1c0.3,0.3,0.8,0.5,1.2,0.5s0.9-0.2,1.3-0.5c0.5-0.5,0.5-1.4,0.5-2.1
		S125.4,46,124.9,45.5z"/>
	<path class="st3" d="M129.2,47.9c0,1.5,0.7,2.4,2,2.4c0.8,0,1.3-0.2,1.8-0.8l0.7,0.6c-0.7,0.7-1.3,1.1-2.5,1.1c-1.8,0-3-1.1-3-3.5
		c0-2.2,1.1-3.5,2.8-3.5c1.8,0,2.8,1.3,2.8,3.3v0.5H129.2z M132.7,45.9c-0.3-0.6-0.9-1-1.6-1s-1.3,0.4-1.6,1
		c-0.2,0.4-0.2,0.6-0.2,1.1h3.6C132.8,46.5,132.8,46.3,132.7,45.9z"/>
	<path class="st3" d="M138.2,51.1c-1.2,0-2.1-0.3-2.8-1l0.7-0.7c0.5,0.6,1.3,0.8,2.1,0.8c1.1,0,1.8-0.4,1.8-1.2c0-0.6-0.3-0.9-1.1-1
		l-1.1-0.1c-1.3-0.1-2.1-0.7-2.1-1.8c0-1.3,1.1-2,2.5-2c1,0,1.9,0.2,2.5,0.7l-0.7,0.7c-0.5-0.4-1.1-0.5-1.8-0.5
		c-1,0-1.5,0.4-1.5,1.1c0,0.6,0.3,0.9,1.2,1l1.1,0.1c1.2,0.1,2,0.6,2,1.9C141,50.3,139.9,51.1,138.2,51.1z"/>
	<path class="st3" d="M150.9,51v-4.2c0-1.2-0.7-1.8-1.7-1.8c-1,0-1.7,0.6-1.7,1.8V51h-1v-6.9h1v0.8c0.5-0.6,1.2-0.8,1.9-0.8
		c0.7,0,1.3,0.2,1.8,0.6c0.5,0.5,0.7,1.1,0.7,1.9V51H150.9z"/>
	<path class="st3" d="M158.7,50.3c-0.5,0.5-1.1,0.8-2,0.8s-1.5-0.3-2-0.8c-0.7-0.7-0.8-1.7-0.8-2.7s0.1-2,0.8-2.7
		c0.5-0.5,1.1-0.8,2-0.8s1.5,0.3,2,0.8c0.7,0.7,0.8,1.7,0.8,2.7S159.4,49.6,158.7,50.3z M158,45.5c-0.3-0.3-0.8-0.5-1.3-0.5
		s-0.9,0.2-1.2,0.5c-0.5,0.5-0.6,1.4-0.6,2.1s0.1,1.6,0.6,2.1c0.3,0.3,0.8,0.5,1.2,0.5s0.9-0.2,1.3-0.5c0.5-0.5,0.5-1.4,0.5-2.1
		S158.5,46,158,45.5z"/>
	<path class="st3" d="M163.7,51c-1.2,0-1.8-0.8-1.8-1.8V45H161v-0.8h0.9V42h1v2.2h1.5V45h-1.5v4.2c0,0.6,0.3,1,0.9,1h0.5V51H163.7z"
		/>
	<path class="st3" d="M174.3,51v-4.3c0-1.2-0.6-1.8-1.7-1.8s-1.7,0.6-1.7,1.8V51h-1v-10h1v3.8c0.5-0.6,1.2-0.8,1.9-0.8
		c1.6,0,2.5,1,2.5,2.5V51H174.3z"/>
	<path class="st3" d="M181.7,51v-0.7c-0.6,0.6-1.1,0.7-2,0.7c-1,0-1.5-0.2-1.9-0.6c-0.3-0.3-0.5-0.9-0.5-1.4c0-1.2,0.8-2,2.4-2h2.1
		v-0.7c0-1-0.5-1.5-1.8-1.5c-0.9,0-1.3,0.2-1.7,0.8l-0.7-0.6c0.6-0.8,1.3-1,2.4-1c1.8,0,2.8,0.8,2.8,2.3V51H181.7z M181.7,47.9h-1.9
		c-1,0-1.5,0.4-1.5,1.2s0.5,1.2,1.6,1.2c0.6,0,1.1,0,1.5-0.5c0.2-0.2,0.4-0.6,0.4-1.2V47.9z"/>
	<path class="st3" d="M187.4,51h-0.9l-2.5-6.9h1.1l1.9,5.5l1.9-5.5h1.1L187.4,51z"/>
	<path class="st3" d="M191.9,47.9c0,1.5,0.7,2.4,2,2.4c0.8,0,1.3-0.2,1.8-0.8l0.7,0.6c-0.7,0.7-1.3,1.1-2.5,1.1c-1.8,0-3-1.1-3-3.5
		c0-2.2,1.1-3.5,2.8-3.5c1.8,0,2.8,1.3,2.8,3.3v0.5H191.9z M195.3,45.9c-0.3-0.6-0.9-1-1.6-1s-1.3,0.4-1.6,1
		c-0.2,0.4-0.2,0.6-0.2,1.1h3.6C195.5,46.5,195.4,46.3,195.3,45.9z"/>
	<path class="st3" d="M63.3,67.8v-0.7c-0.6,0.6-1.1,0.7-2,0.7c-1,0-1.5-0.2-1.9-0.6c-0.3-0.3-0.5-0.9-0.5-1.4c0-1.2,0.8-2,2.4-2h2.1
		v-0.7c0-1-0.5-1.5-1.8-1.5c-0.9,0-1.3,0.2-1.7,0.8l-0.7-0.6c0.6-0.8,1.3-1,2.4-1c1.8,0,2.8,0.8,2.8,2.3v4.7H63.3z M63.3,64.7h-1.9
		c-1,0-1.5,0.4-1.5,1.2s0.5,1.2,1.6,1.2c0.6,0,1.1,0,1.5-0.5c0.2-0.2,0.4-0.6,0.4-1.2V64.7z"/>
	<path class="st3" d="M69.4,67.9c-1.7,0-3.1-1.2-3.1-3.5c0-2.4,1.3-3.5,3.1-3.5c1,0,1.6,0.3,2.3,1L71,62.5c-0.5-0.6-0.9-0.8-1.6-0.8
		c-0.7,0-1.2,0.3-1.6,0.8c-0.3,0.4-0.4,1-0.4,1.8c0,0.9,0.1,1.4,0.4,1.8c0.4,0.5,0.9,0.8,1.6,0.8c0.7,0,1.1-0.2,1.6-0.8l0.7,0.7
		C70.9,67.7,70.3,67.9,69.4,67.9z"/>
	<path class="st3" d="M76,67.9c-1.7,0-3.1-1.2-3.1-3.5c0-2.4,1.3-3.5,3.1-3.5c1,0,1.6,0.3,2.3,1l-0.7,0.6c-0.5-0.6-0.9-0.8-1.6-0.8
		c-0.7,0-1.2,0.3-1.6,0.8c-0.3,0.4-0.4,1-0.4,1.8c0,0.9,0.1,1.4,0.4,1.8c0.4,0.5,0.9,0.8,1.6,0.8c0.7,0,1.1-0.2,1.6-0.8l0.7,0.7
		C77.6,67.7,77,67.9,76,67.9z"/>
	<path class="st3" d="M80.6,64.7c0,1.5,0.7,2.4,2,2.4c0.8,0,1.3-0.2,1.8-0.8l0.7,0.6c-0.7,0.7-1.3,1.1-2.5,1.1c-1.8,0-3-1.1-3-3.5
		c0-2.2,1.1-3.5,2.8-3.5c1.8,0,2.8,1.3,2.8,3.3v0.5H80.6z M84.1,62.8c-0.3-0.6-0.9-1-1.6-1s-1.3,0.4-1.6,1c-0.2,0.4-0.2,0.6-0.2,1.1
		h3.6C84.3,63.3,84.2,63.1,84.1,62.8z"/>
	<path class="st3" d="M89.6,67.9c-1.2,0-2.1-0.3-2.8-1l0.7-0.7c0.5,0.6,1.3,0.8,2.1,0.8c1.1,0,1.8-0.4,1.8-1.2c0-0.6-0.4-0.9-1.1-1
		l-1.1-0.1c-1.3-0.1-2.1-0.7-2.1-1.8c0-1.3,1.1-2,2.5-2c1,0,1.9,0.2,2.5,0.7l-0.7,0.7c-0.5-0.4-1.1-0.5-1.8-0.5
		c-1,0-1.5,0.4-1.5,1.1c0,0.6,0.3,0.9,1.2,1l1.1,0.1c1.2,0.1,2,0.6,2,1.9C92.4,67.1,91.3,67.9,89.6,67.9z"/>
	<path class="st3" d="M96.3,67.9c-1.2,0-2.1-0.3-2.8-1l0.7-0.7c0.5,0.6,1.3,0.8,2.1,0.8c1.1,0,1.8-0.4,1.8-1.2c0-0.6-0.4-0.9-1.1-1
		l-1.1-0.1c-1.3-0.1-2.1-0.7-2.1-1.8c0-1.3,1.1-2,2.5-2c1,0,1.9,0.2,2.5,0.7l-0.7,0.7c-0.5-0.4-1.1-0.5-1.8-0.5
		c-1,0-1.5,0.4-1.5,1.1c0,0.6,0.3,0.9,1.2,1l1.1,0.1c1.2,0.1,2,0.6,2,1.9C99.1,67.1,98,67.9,96.3,67.9z"/>
	<path class="st3" d="M106.5,67.8c-1.2,0-1.8-0.8-1.8-1.8v-4.2h-0.9V61h0.9v-2.2h1V61h1.5v0.8h-1.5V66c0,0.6,0.3,1,0.9,1h0.5v0.9
		H106.5z"/>
	<path class="st3" d="M113.5,67.1c-0.5,0.5-1.1,0.8-2,0.8s-1.5-0.3-2-0.8c-0.7-0.7-0.8-1.7-0.8-2.7c0-1.1,0.1-2,0.8-2.7
		c0.5-0.5,1.1-0.8,2-0.8s1.5,0.3,2,0.8c0.7,0.7,0.8,1.7,0.8,2.7C114.4,65.5,114.2,66.4,113.5,67.1z M112.8,62.3
		c-0.3-0.3-0.8-0.5-1.3-0.5s-0.9,0.2-1.2,0.5c-0.5,0.5-0.6,1.4-0.6,2.1c0,0.8,0.1,1.6,0.6,2.1c0.3,0.3,0.8,0.5,1.2,0.5
		s0.9-0.2,1.3-0.5c0.5-0.5,0.5-1.4,0.5-2.1C113.4,63.6,113.3,62.8,112.8,62.3z"/>
	<path class="st3" d="M121.7,69.5c-0.1,0.4-0.3,0.6-0.5,0.8c-0.4,0.4-0.9,0.5-1.3,0.5h-0.4v-0.9h0.3c0.7,0,0.9-0.2,1.1-0.9l0.5-1.3
		l-2.5-6.8h1.1l1.9,5.5l1.9-5.5h1.1L121.7,69.5z"/>
	<path class="st3" d="M130.6,67.1c-0.5,0.5-1.1,0.8-2,0.8c-0.8,0-1.5-0.3-2-0.8c-0.7-0.7-0.8-1.7-0.8-2.7c0-1.1,0.1-2,0.8-2.7
		c0.5-0.5,1.1-0.8,2-0.8c0.8,0,1.5,0.3,2,0.8c0.7,0.7,0.8,1.7,0.8,2.7C131.4,65.5,131.3,66.4,130.6,67.1z M129.9,62.3
		c-0.3-0.3-0.8-0.5-1.3-0.5s-0.9,0.2-1.2,0.5c-0.5,0.5-0.6,1.4-0.6,2.1c0,0.8,0.1,1.6,0.6,2.1c0.3,0.3,0.8,0.5,1.2,0.5
		s0.9-0.2,1.3-0.5c0.5-0.5,0.5-1.4,0.5-2.1C130.4,63.6,130.4,62.8,129.9,62.3z"/>
	<path class="st3" d="M137.9,67.8v-0.8c-0.5,0.6-1.2,0.9-1.9,0.9c-0.7,0-1.4-0.2-1.8-0.6c-0.5-0.5-0.7-1.1-0.7-1.9v-4.4h1v4.2
		c0,1.2,0.6,1.8,1.7,1.8c1,0,1.7-0.6,1.7-1.8v-4.2h1v6.9H137.9z"/>
	<path class="st3" d="M145.3,62.3c-0.4-0.4-0.7-0.5-1.2-0.5c-1,0-1.7,0.8-1.7,1.8v4.2h-1v-6.9h1v0.8c0.4-0.6,1.1-0.9,1.9-0.9
		c0.7,0,1.2,0.2,1.7,0.6L145.3,62.3z"/>
	<path class="st3" d="M153.5,67.9c-1.7,0-3.1-1.2-3.1-3.5c0-2.4,1.3-3.5,3.1-3.5c1,0,1.6,0.3,2.3,1l-0.7,0.6
		c-0.5-0.6-0.9-0.8-1.6-0.8c-0.7,0-1.2,0.3-1.6,0.8c-0.3,0.4-0.4,1-0.4,1.8c0,0.9,0.1,1.4,0.4,1.8c0.4,0.5,0.9,0.8,1.6,0.8
		c0.7,0,1.1-0.2,1.6-0.8l0.7,0.7C155,67.7,154.4,67.9,153.5,67.9z"/>
	<path class="st3" d="M161.4,67.8v-0.7c-0.6,0.6-1.1,0.7-2,0.7c-1,0-1.5-0.2-1.9-0.6c-0.3-0.3-0.5-0.9-0.5-1.4c0-1.2,0.8-2,2.4-2
		h2.1v-0.7c0-1-0.5-1.5-1.8-1.5c-0.9,0-1.3,0.2-1.7,0.8l-0.7-0.6c0.6-0.8,1.3-1,2.4-1c1.8,0,2.8,0.8,2.8,2.3v4.7H161.4z M161.4,64.7
		h-1.9c-1,0-1.5,0.4-1.5,1.2s0.5,1.2,1.6,1.2c0.6,0,1.1,0,1.5-0.5c0.2-0.2,0.3-0.6,0.3-1.2V64.7z"/>
	<path class="st3" d="M168.7,62.3c-0.4-0.4-0.7-0.5-1.2-0.5c-1,0-1.7,0.8-1.7,1.8v4.2h-1v-6.9h1v0.8c0.4-0.6,1.1-0.9,1.9-0.9
		c0.7,0,1.2,0.2,1.7,0.6L168.7,62.3z"/>
	<path class="st3" d="M169,67.8v-1.3h1.3v1.3H169z"/>
	<path class="st3" d="M179.5,58.8v9h-1.1v-9h-2.9v-1h6.8v1H179.5z"/>
	<path class="st3" d="M187.4,67.1c-0.5,0.5-1.1,0.8-2,0.8s-1.5-0.3-2-0.8c-0.7-0.7-0.8-1.7-0.8-2.7c0-1.1,0.1-2,0.8-2.7
		c0.5-0.5,1.1-0.8,2-0.8s1.5,0.3,2,0.8c0.7,0.7,0.8,1.7,0.8,2.7C188.2,65.5,188.1,66.4,187.4,67.1z M186.7,62.3
		c-0.3-0.3-0.8-0.5-1.3-0.5s-0.9,0.2-1.2,0.5c-0.5,0.5-0.6,1.4-0.6,2.1c0,0.8,0.1,1.6,0.6,2.1c0.3,0.3,0.8,0.5,1.2,0.5
		s0.9-0.2,1.3-0.5c0.5-0.5,0.5-1.4,0.5-2.1C187.2,63.6,187.2,62.8,186.7,62.3z"/>
	<path class="st3" d="M42.2,81.5c0,1.5,0.7,2.4,2,2.4c0.8,0,1.3-0.2,1.8-0.8l0.7,0.6c-0.7,0.7-1.3,1.1-2.5,1.1c-1.8,0-3-1.1-3-3.5
		c0-2.2,1.1-3.5,2.8-3.5c1.8,0,2.8,1.3,2.8,3.3v0.5H42.2z M45.6,79.5c-0.3-0.6-0.9-1-1.6-1s-1.3,0.4-1.6,1c-0.2,0.4-0.2,0.6-0.2,1.1
		h3.6C45.8,80.1,45.8,79.9,45.6,79.5z"/>
	<path class="st3" d="M53.4,84.6v-4.2c0-1.2-0.7-1.8-1.7-1.8S50,79.2,50,80.4v4.2h-1v-6.9h1v0.8c0.5-0.6,1.2-0.8,1.9-0.8
		c0.7,0,1.3,0.2,1.8,0.6c0.5,0.5,0.7,1.1,0.7,1.9v4.4H53.4z"/>
	<path class="st3" d="M60.8,84.6V84c-0.6,0.6-1.1,0.7-2,0.7c-1,0-1.5-0.2-1.9-0.6c-0.3-0.3-0.5-0.9-0.5-1.4c0-1.2,0.8-2,2.4-2h2.1
		V80c0-1-0.5-1.5-1.8-1.5c-0.9,0-1.3,0.2-1.7,0.8l-0.7-0.6c0.6-0.8,1.3-1,2.4-1c1.8,0,2.8,0.8,2.8,2.3v4.7H60.8z M60.8,81.5h-1.9
		c-1,0-1.5,0.4-1.5,1.2s0.5,1.2,1.6,1.2c0.6,0,1.1,0,1.5-0.5c0.2-0.2,0.4-0.6,0.4-1.2V81.5z"/>
	<path class="st3" d="M68.9,84.1c-0.4,0.4-1,0.6-1.7,0.6c-0.8,0-1.4-0.2-1.9-0.9v0.8h-1v-10h1v3.9c0.6-0.7,1.2-0.9,1.9-0.9
		c0.7,0,1.3,0.2,1.7,0.6c0.7,0.7,0.8,1.8,0.8,2.9S69.6,83.4,68.9,84.1z M67,78.6c-1.5,0-1.7,1.3-1.7,2.6s0.2,2.6,1.7,2.6
		c1.5,0,1.7-1.3,1.7-2.6S68.5,78.6,67,78.6z"/>
	<path class="st3" d="M73.6,84.6c-1.2,0-1.8-0.8-1.8-1.8v-8.1h1v8.1c0,0.7,0.2,1,0.9,1h0.5v0.9H73.6z"/>
	<path class="st3" d="M76.3,81.5c0,1.5,0.7,2.4,2,2.4c0.8,0,1.3-0.2,1.8-0.8l0.7,0.6c-0.7,0.7-1.3,1.1-2.5,1.1c-1.8,0-3-1.1-3-3.5
		c0-2.2,1.1-3.5,2.8-3.5c1.8,0,2.8,1.3,2.8,3.3v0.5H76.3z M79.7,79.5c-0.3-0.6-0.9-1-1.6-1s-1.3,0.4-1.6,1c-0.2,0.4-0.2,0.6-0.2,1.1
		h3.6C79.9,80.1,79.9,79.9,79.7,79.5z"/>
	<path class="st3" d="M90.5,84.6V84c-0.6,0.6-1.1,0.7-2,0.7c-1,0-1.5-0.2-1.9-0.6c-0.3-0.3-0.5-0.9-0.5-1.4c0-1.2,0.8-2,2.4-2h2.1
		V80c0-1-0.5-1.5-1.8-1.5c-0.9,0-1.3,0.2-1.7,0.8l-0.7-0.6c0.6-0.8,1.3-1,2.4-1c1.8,0,2.8,0.8,2.8,2.3v4.7H90.5z M90.5,81.5h-1.9
		c-1,0-1.5,0.4-1.5,1.2s0.5,1.2,1.6,1.2c0.6,0,1.1,0,1.5-0.5c0.2-0.2,0.4-0.6,0.4-1.2V81.5z"/>
	<path class="st3" d="M96.6,84.7c-1.7,0-3.1-1.2-3.1-3.5c0-2.4,1.3-3.5,3.1-3.5c1,0,1.6,0.3,2.3,1l-0.7,0.6
		c-0.5-0.6-0.9-0.8-1.6-0.8c-0.7,0-1.2,0.3-1.6,0.8c-0.3,0.4-0.4,1-0.4,1.8s0.1,1.4,0.4,1.8c0.4,0.5,0.9,0.8,1.6,0.8
		c0.7,0,1.1-0.2,1.6-0.8l0.7,0.7C98.2,84.5,97.6,84.7,96.6,84.7z"/>
	<path class="st3" d="M103.3,84.7c-1.7,0-3.1-1.2-3.1-3.5c0-2.4,1.3-3.5,3.1-3.5c1,0,1.6,0.3,2.3,1l-0.7,0.6
		c-0.5-0.6-0.9-0.8-1.6-0.8c-0.7,0-1.2,0.3-1.6,0.8c-0.3,0.4-0.4,1-0.4,1.8s0.1,1.4,0.4,1.8c0.4,0.5,0.9,0.8,1.6,0.8
		c0.7,0,1.1-0.2,1.6-0.8l0.7,0.7C104.8,84.5,104.2,84.7,103.3,84.7z"/>
	<path class="st3" d="M107.9,81.5c0,1.5,0.7,2.4,2,2.4c0.8,0,1.3-0.2,1.8-0.8l0.7,0.6c-0.7,0.7-1.3,1.1-2.5,1.1c-1.8,0-3-1.1-3-3.5
		c0-2.2,1.1-3.5,2.8-3.5c1.8,0,2.8,1.3,2.8,3.3v0.5H107.9z M111.3,79.5c-0.3-0.6-0.9-1-1.6-1s-1.3,0.4-1.6,1
		c-0.2,0.4-0.2,0.6-0.2,1.1h3.6C111.5,80.1,111.5,79.9,111.3,79.5z"/>
	<path class="st3" d="M116.8,84.7c-1.2,0-2.1-0.3-2.8-1l0.7-0.7c0.5,0.6,1.3,0.8,2.1,0.8c1.1,0,1.8-0.4,1.8-1.2c0-0.6-0.4-0.9-1.1-1
		l-1.1-0.1c-1.3-0.1-2.1-0.7-2.1-1.8c0-1.3,1.1-2,2.5-2c1,0,1.9,0.2,2.5,0.7l-0.7,0.7c-0.5-0.4-1.1-0.5-1.8-0.5
		c-1,0-1.5,0.4-1.5,1.1c0,0.6,0.3,0.9,1.2,1l1.1,0.1c1.2,0.1,2,0.6,2,1.9C119.6,83.9,118.5,84.7,116.8,84.7z"/>
	<path class="st3" d="M123.6,84.7c-1.2,0-2.1-0.3-2.8-1l0.7-0.7c0.5,0.6,1.3,0.8,2.1,0.8c1.1,0,1.8-0.4,1.8-1.2c0-0.6-0.4-0.9-1.1-1
		l-1.1-0.1c-1.3-0.1-2.1-0.7-2.1-1.8c0-1.3,1.1-2,2.5-2c1,0,1.9,0.2,2.5,0.7l-0.7,0.7c-0.5-0.4-1.1-0.5-1.8-0.5
		c-1,0-1.5,0.4-1.5,1.1c0,0.6,0.3,0.9,1.2,1l1.1,0.1c1.2,0.1,2,0.6,2,1.9C126.4,83.9,125.2,84.7,123.6,84.7z"/>
	<path class="st3" d="M128.3,86.7v-3.2h1.2v2.1L128.3,86.7z"/>
	<path class="st3" d="M137.4,84.6c-1.2,0-1.8-0.8-1.8-1.8v-4.2h-0.9v-0.8h0.9v-2.2h1v2.2h1.5v0.8h-1.5v4.2c0,0.6,0.3,1,0.9,1h0.5
		v0.9H137.4z"/>
	<path class="st3" d="M144,84.6V84c-0.6,0.6-1.1,0.7-2,0.7c-1,0-1.5-0.2-1.9-0.6c-0.3-0.3-0.5-0.9-0.5-1.4c0-1.2,0.8-2,2.4-2h2.1V80
		c0-1-0.5-1.5-1.8-1.5c-0.9,0-1.3,0.2-1.7,0.8l-0.7-0.6c0.6-0.8,1.3-1,2.4-1c1.8,0,2.8,0.8,2.8,2.3v4.7H144z M144,81.5H142
		c-1,0-1.5,0.4-1.5,1.2s0.5,1.2,1.6,1.2c0.6,0,1.1,0,1.5-0.5c0.2-0.2,0.3-0.6,0.3-1.2V81.5z"/>
	<path class="st3" d="M152,84.1c-0.4,0.4-1,0.6-1.7,0.6c-0.8,0-1.4-0.2-1.9-0.9v3.9h-1v-10h1v0.8c0.6-0.7,1.2-0.9,1.9-0.9
		c0.7,0,1.3,0.2,1.7,0.6c0.7,0.7,0.8,1.8,0.8,2.9S152.7,83.4,152,84.1z M150.2,78.6c-1.5,0-1.7,1.3-1.7,2.6s0.2,2.6,1.7,2.6
		s1.7-1.3,1.7-2.6S151.7,78.6,150.2,78.6z"/>
	<path class="st3" d="M160.7,84.7c-1.2,0-2.1-0.3-2.8-1l0.7-0.7c0.5,0.6,1.3,0.8,2.1,0.8c1.1,0,1.8-0.4,1.8-1.2c0-0.6-0.4-0.9-1.1-1
		l-1.1-0.1c-1.3-0.1-2.1-0.7-2.1-1.8c0-1.3,1.1-2,2.5-2c1,0,1.9,0.2,2.5,0.7l-0.7,0.7c-0.5-0.4-1.1-0.5-1.8-0.5
		c-1,0-1.5,0.4-1.5,1.1c0,0.6,0.3,0.9,1.2,1l1.1,0.1c1.2,0.1,2,0.6,2,1.9C163.5,83.9,162.4,84.7,160.7,84.7z"/>
	<path class="st3" d="M166.1,81.5c0,1.5,0.7,2.4,2,2.4c0.8,0,1.3-0.2,1.8-0.8l0.7,0.6c-0.7,0.7-1.3,1.1-2.5,1.1c-1.8,0-3-1.1-3-3.5
		c0-2.2,1.1-3.5,2.8-3.5c1.8,0,2.8,1.3,2.8,3.3v0.5H166.1z M169.5,79.5c-0.3-0.6-0.9-1-1.6-1s-1.3,0.4-1.6,1
		c-0.2,0.4-0.2,0.6-0.2,1.1h3.6C169.7,80.1,169.7,79.9,169.5,79.5z"/>
	<path class="st3" d="M174.8,84.6c-1.2,0-1.8-0.8-1.8-1.8v-4.2h-0.9v-0.8h0.9v-2.2h1v2.2h1.5v0.8h-1.5v4.2c0,0.6,0.3,1,0.9,1h0.5
		v0.9H174.8z"/>
	<path class="st3" d="M179.5,84.6c-1.2,0-1.8-0.8-1.8-1.8v-4.2h-0.9v-0.8h0.9v-2.2h1v2.2h1.5v0.8h-1.5v4.2c0,0.6,0.3,1,0.9,1h0.5
		v0.9H179.5z"/>
	<path class="st3" d="M182.1,75.8v-1.1h1.1v1.1H182.1z M182.2,84.6v-6.9h1v6.9H182.2z"/>
	<path class="st3" d="M190.1,84.6v-4.2c0-1.2-0.7-1.8-1.7-1.8s-1.7,0.6-1.7,1.8v4.2h-1v-6.9h1v0.8c0.5-0.6,1.2-0.8,1.9-0.8
		c0.7,0,1.3,0.2,1.8,0.6c0.5,0.5,0.7,1.1,0.7,1.9v4.4H190.1z"/>
	<path class="st3" d="M195.8,87.8c-1,0-1.6-0.3-2.3-0.9l0.7-0.6c0.5,0.4,0.9,0.7,1.7,0.7c1.3,0,1.9-0.9,1.9-2.1v-1.1
		c-0.6,0.7-1.2,0.9-1.9,0.9c-0.7,0-1.3-0.3-1.7-0.6c-0.7-0.7-0.8-1.8-0.8-2.9s0.2-2.2,0.8-2.9c0.4-0.4,1-0.6,1.7-0.6
		c0.8,0,1.4,0.2,1.9,0.9v-0.8h1v7.1C198.7,86.6,197.6,87.8,195.8,87.8z M196,78.6c-1.5,0-1.7,1.3-1.7,2.6s0.2,2.6,1.7,2.6
		c1.5,0,1.7-1.3,1.7-2.6S197.5,78.6,196,78.6z"/>
	<path class="st3" d="M203.4,84.7c-1.2,0-2.1-0.3-2.8-1l0.7-0.7c0.5,0.6,1.3,0.8,2.1,0.8c1.1,0,1.8-0.4,1.8-1.2c0-0.6-0.4-0.9-1.1-1
		l-1.1-0.1c-1.3-0.1-2.1-0.7-2.1-1.8c0-1.3,1.1-2,2.5-2c1,0,1.9,0.2,2.5,0.7l-0.7,0.7c-0.5-0.4-1.1-0.5-1.8-0.5
		c-1,0-1.5,0.4-1.5,1.1c0,0.6,0.3,0.9,1.2,1l1.1,0.1c1.2,0.1,2,0.6,2,1.9C206.2,83.9,205,84.7,203.4,84.7z"/>
	<path class="st3" d="M79.2,101.4v-0.7c-0.6,0.6-1.1,0.7-2,0.7c-1,0-1.5-0.2-1.9-0.6c-0.3-0.3-0.5-0.9-0.5-1.4c0-1.2,0.8-2,2.4-2
		h2.1v-0.7c0-1-0.5-1.5-1.8-1.5c-0.9,0-1.3,0.2-1.7,0.8L75,95.5c0.6-0.8,1.3-1,2.4-1c1.8,0,2.8,0.8,2.8,2.3v4.7H79.2z M79.2,98.3
		h-1.9c-1,0-1.5,0.4-1.5,1.2s0.5,1.2,1.6,1.2c0.6,0,1.1,0,1.5-0.5c0.2-0.2,0.4-0.6,0.4-1.2V98.3z"/>
	<path class="st3" d="M87.1,101.4v-4.2c0-1.2-0.7-1.8-1.7-1.8s-1.7,0.6-1.7,1.8v4.2h-1v-6.9h1v0.8c0.5-0.6,1.2-0.8,1.9-0.8
		c0.7,0,1.3,0.2,1.8,0.6c0.5,0.5,0.7,1.1,0.7,1.9v4.4H87.1z"/>
	<path class="st3" d="M94.6,101.4v-0.8c-0.6,0.7-1.2,0.9-2,0.9c-0.7,0-1.3-0.2-1.7-0.6c-0.7-0.7-0.8-1.8-0.8-2.9s0.1-2.2,0.8-2.9
		c0.4-0.4,1-0.6,1.7-0.6c0.8,0,1.4,0.2,1.9,0.9v-3.9h1v10H94.6z M92.9,95.4c-1.5,0-1.7,1.3-1.7,2.6s0.2,2.6,1.7,2.6
		c1.5,0,1.7-1.3,1.7-2.6S94.4,95.4,92.9,95.4z"/>
	<path class="st3" d="M103.6,101.4c-1.2,0-1.8-0.8-1.8-1.8v-4.2h-0.9v-0.8h0.9v-2.2h1v2.2h1.5v0.8h-1.5v4.2c0,0.6,0.3,1,0.9,1h0.5
		v0.9H103.6z"/>
	<path class="st3" d="M110.6,101.4v-0.8c-0.5,0.6-1.2,0.9-1.9,0.9c-0.7,0-1.4-0.2-1.8-0.6c-0.5-0.5-0.7-1.1-0.7-1.9v-4.4h1v4.2
		c0,1.2,0.6,1.8,1.7,1.8c1,0,1.7-0.6,1.7-1.8v-4.2h1v6.9H110.6z"/>
	<path class="st3" d="M118,95.9c-0.4-0.4-0.7-0.5-1.2-0.5c-1,0-1.7,0.8-1.7,1.8v4.2h-1v-6.9h1v0.8c0.4-0.6,1.1-0.9,1.9-0.9
		c0.7,0,1.2,0.2,1.7,0.6L118,95.9z"/>
	<path class="st3" d="M124.4,101.4v-4.2c0-1.2-0.7-1.8-1.7-1.8S121,96,121,97.2v4.2h-1v-6.9h1v0.8c0.5-0.6,1.2-0.8,1.9-0.8
		c0.7,0,1.3,0.2,1.8,0.6c0.5,0.5,0.7,1.1,0.7,1.9v4.4H124.4z"/>
	<path class="st3" d="M135.8,100.7c-0.5,0.5-1.1,0.8-2,0.8s-1.5-0.3-2-0.8c-0.7-0.7-0.8-1.7-0.8-2.7s0.1-2,0.8-2.7
		c0.5-0.5,1.1-0.8,2-0.8s1.5,0.3,2,0.8c0.7,0.7,0.8,1.7,0.8,2.7S136.5,100,135.8,100.7z M135.1,95.9c-0.3-0.3-0.8-0.5-1.3-0.5
		s-0.9,0.2-1.2,0.5c-0.5,0.5-0.6,1.4-0.6,2.1s0.1,1.6,0.6,2.1c0.3,0.3,0.8,0.5,1.2,0.5s0.9-0.2,1.3-0.5c0.5-0.5,0.5-1.4,0.5-2.1
		S135.6,96.4,135.1,95.9z"/>
	<path class="st3" d="M143.2,101.4v-4.2c0-1.2-0.7-1.8-1.7-1.8c-1,0-1.7,0.6-1.7,1.8v4.2h-1v-6.9h1v0.8c0.5-0.6,1.2-0.8,1.9-0.8
		c0.7,0,1.3,0.2,1.8,0.6c0.5,0.5,0.7,1.1,0.7,1.9v4.4H143.2z"/>
	<path class="st3" d="M153.5,101.5c-1,0-1.9-0.4-2.5-1c-0.9-0.9-0.9-1.9-0.9-4s0-3.1,0.9-4c0.7-0.7,1.6-1,2.5-1c1.8,0,3.1,1.1,3.5,3
		h-1.1c-0.3-1.2-1.1-2-2.4-2c-0.7,0-1.3,0.3-1.7,0.7c-0.6,0.6-0.7,1.3-0.7,3.4c0,2.1,0.1,2.8,0.7,3.4c0.4,0.4,1.1,0.7,1.7,0.7
		c1.2,0,2.1-0.8,2.4-2h1.1C156.6,100.4,155.2,101.5,153.5,101.5z"/>
	<path class="st3" d="M163,101.4v-0.7c-0.6,0.6-1.1,0.7-2,0.7c-1,0-1.5-0.2-1.9-0.6c-0.3-0.3-0.5-0.9-0.5-1.4c0-1.2,0.8-2,2.4-2h2.1
		v-0.7c0-1-0.5-1.5-1.8-1.5c-0.9,0-1.3,0.2-1.7,0.8l-0.7-0.6c0.6-0.8,1.3-1,2.4-1c1.8,0,2.8,0.8,2.8,2.3v4.7H163z M163,98.3h-1.9
		c-1,0-1.5,0.4-1.5,1.2s0.5,1.2,1.6,1.2c0.6,0,1.1,0,1.5-0.5c0.2-0.2,0.3-0.6,0.3-1.2V98.3z"/>
	<path class="st3" d="M170.3,95.9c-0.4-0.4-0.7-0.5-1.2-0.5c-1,0-1.7,0.8-1.7,1.8v4.2h-1v-6.9h1v0.8c0.4-0.6,1.1-0.9,1.9-0.9
		c0.7,0,1.2,0.2,1.7,0.6L170.3,95.9z"/>
	<path class="st3" d="M170.6,101.4v-1.3h1.3v1.3H170.6z"/>
</g>
<line class="st4" x1="8.3" y1="142.5" x2="235.6" y2="142.5"/>
<line class="st4" x1="121.6" y1="142.8" x2="121.6" y2="188.8"/>
<g>
	<rect x="7.9" y="159.1" class="st2" width="113" height="25.3"/>
	<path class="st5" d="M47.5,169.2c-1.1,0-2-0.4-2.7-1.1c-0.4-0.4-0.7-0.9-0.8-1.5c-0.1-0.6-0.2-1.4-0.2-2.5c0-1.1,0.1-1.9,0.2-2.5
		c0.1-0.6,0.4-1.1,0.8-1.5c0.7-0.7,1.6-1.1,2.7-1.1c1.9,0,3.3,1.1,3.7,3.2h-2c-0.2-0.9-0.7-1.4-1.7-1.4c-0.5,0-1,0.2-1.2,0.5
		c-0.4,0.4-0.5,0.9-0.5,2.8c0,1.9,0.1,2.4,0.5,2.8c0.3,0.4,0.7,0.5,1.2,0.5c0.9,0,1.5-0.6,1.7-1.4h2
		C50.8,168.1,49.4,169.2,47.5,169.2z"/>
	<path class="st5" d="M56.4,169.1v-0.6c-0.5,0.5-1,0.7-1.8,0.7c-0.8,0-1.4-0.2-1.9-0.6c-0.4-0.4-0.6-1-0.6-1.6
		c0-1.2,0.8-2.1,2.5-2.1h1.7v-0.4c0-0.8-0.4-1.1-1.4-1.1c-0.7,0-1,0.2-1.4,0.6l-1.2-1.1c0.7-0.8,1.4-1,2.6-1c2,0,3.1,0.9,3.1,2.6
		v4.8H56.4z M56.4,166H55c-0.7,0-1,0.3-1,0.8c0,0.5,0.3,0.8,1.1,0.8c0.5,0,0.8,0,1.1-0.4c0.2-0.2,0.3-0.5,0.3-0.9V166z"/>
	<path class="st5" d="M64.4,169.1v-4.4c0-1-0.6-1.3-1.2-1.3c-0.6,0-1.2,0.3-1.2,1.3v4.4h-1.8v-7.3H62v0.7c0.5-0.5,1.1-0.8,1.8-0.8
		c0.7,0,1.3,0.2,1.7,0.6c0.6,0.6,0.7,1.3,0.7,2.1v4.7H64.4z"/>
	<path class="st5" d="M71.1,169.2c-1.5,0-3.3-0.8-3.3-3.7c0-3,1.8-3.7,3.3-3.7c1,0,1.8,0.3,2.4,1l-1.2,1.2c-0.4-0.4-0.7-0.6-1.2-0.6
		c-0.4,0-0.8,0.2-1,0.5c-0.3,0.4-0.4,0.8-0.4,1.6c0,0.8,0.1,1.3,0.4,1.6c0.3,0.3,0.6,0.5,1,0.5c0.5,0,0.8-0.2,1.2-0.6l1.2,1.2
		C72.9,168.9,72.1,169.2,71.1,169.2z"/>
	<path class="st5" d="M76.1,166c0,0.9,0.6,1.6,1.6,1.6c0.8,0,1.2-0.2,1.7-0.7l1.1,1.1c-0.7,0.7-1.5,1.1-2.8,1.1
		c-1.7,0-3.4-0.8-3.4-3.7c0-2.4,1.3-3.7,3.2-3.7c2,0,3.2,1.5,3.2,3.5v0.8H76.1z M78.7,164c-0.2-0.4-0.6-0.8-1.2-0.8
		c-0.6,0-1,0.3-1.2,0.8c-0.1,0.3-0.2,0.5-0.2,0.8h2.8C78.9,164.5,78.8,164.3,78.7,164z"/>
	<path class="st5" d="M84.4,169.1c-1.5,0-2.1-1.1-2.1-2.1v-7.9h1.8v7.8c0,0.4,0.2,0.7,0.6,0.7h0.7v1.5H84.4z"/>
</g>
<g>
	<rect x="121.6" y="159.1" class="st2" width="113" height="25.3"/>
	<path class="st5" d="M156.2,169.2c-1.5,0-2.6-0.3-3.5-1.3l1-1c0.7,0.7,1.5,1,2.5,1c1.3,0,2.1-0.6,2.1-1.5c0-0.4-0.1-0.8-0.4-1
		c-0.3-0.2-0.5-0.3-1.1-0.4l-1.2-0.2c-0.8-0.1-1.5-0.4-1.9-0.8c-0.5-0.5-0.7-1.1-0.7-1.9c0-1.7,1.3-2.9,3.3-2.9
		c1.3,0,2.2,0.3,3.1,1.1l-1,1c-0.6-0.6-1.3-0.8-2.2-0.8c-1.2,0-1.8,0.7-1.8,1.6c0,0.4,0.1,0.7,0.4,0.9c0.3,0.2,0.7,0.4,1.1,0.5
		l1.1,0.2c0.9,0.1,1.4,0.4,1.9,0.7c0.5,0.5,0.8,1.2,0.8,2C159.8,168.1,158.3,169.2,156.2,169.2z"/>
	<path class="st5" d="M162.7,166c0,1.2,0.6,2,1.8,2c0.8,0,1.2-0.2,1.7-0.7l0.9,0.9c-0.7,0.7-1.4,1.1-2.7,1.1c-1.8,0-3.2-0.9-3.2-3.6
		c0-2.3,1.2-3.6,3-3.6c1.9,0,3,1.4,3,3.4v0.6H162.7z M165.7,164c-0.2-0.5-0.7-0.9-1.4-0.9c-0.7,0-1.2,0.4-1.4,0.9
		c-0.1,0.3-0.2,0.5-0.2,1h3.2C165.9,164.5,165.8,164.3,165.7,164z"/>
	<path class="st5" d="M171.3,169.1c-1.3,0-1.9-1-1.9-2v-3.9h-0.8v-1.1h0.8V160h1.4v2.2h1.4v1.1h-1.4v3.8c0,0.5,0.3,0.8,0.8,0.8h0.6
		v1.2H171.3z"/>
	<path class="st5" d="M176.1,169.1c-1.3,0-1.9-1-1.9-2v-3.9h-0.8v-1.1h0.8V160h1.4v2.2h1.4v1.1h-1.4v3.8c0,0.5,0.3,0.8,0.8,0.8h0.6
		v1.2H176.1z"/>
	<path class="st5" d="M178.7,160.6v-1.5h1.5v1.5H178.7z M178.8,169.1V162h1.4v7.1H178.8z"/>
	<path class="st5" d="M186.8,169.1v-4.3c0-1.1-0.6-1.6-1.4-1.6s-1.5,0.5-1.5,1.6v4.3h-1.4V162h1.4v0.7c0.5-0.5,1.2-0.8,1.9-0.8
		c0.7,0,1.3,0.2,1.8,0.6c0.5,0.5,0.7,1.2,0.7,2v4.5H186.8z"/>
	<path class="st5" d="M192.8,172.1c-1.1,0-1.8-0.3-2.5-0.9l0.9-0.9c0.4,0.4,0.8,0.6,1.5,0.6c1.2,0,1.7-0.9,1.7-1.8v-0.9
		c-0.5,0.6-1.1,0.8-1.8,0.8c-0.7,0-1.3-0.2-1.7-0.6c-0.7-0.7-0.8-1.7-0.8-2.9c0-1.2,0.1-2.2,0.8-2.9c0.4-0.4,1-0.6,1.7-0.6
		c0.8,0,1.3,0.2,1.9,0.8V162h1.4v7.1C195.8,170.8,194.7,172.1,192.8,172.1z M193,163.2c-1.3,0-1.5,1.1-1.5,2.2
		c0,1.1,0.2,2.2,1.5,2.2s1.4-1.1,1.4-2.2C194.4,164.3,194.3,163.2,193,163.2z"/>
	<path class="st5" d="M200.4,169.2c-1.2,0-2.1-0.2-3-1l0.9-0.9c0.6,0.6,1.3,0.7,2,0.7c0.9,0,1.6-0.3,1.6-1c0-0.5-0.3-0.8-1-0.8
		l-1.1-0.1c-1.3-0.1-2.1-0.7-2.1-2c0-1.4,1.2-2.2,2.7-2.2c1.1,0,2,0.2,2.6,0.8l-0.9,0.9c-0.4-0.4-1.1-0.5-1.8-0.5
		c-0.9,0-1.3,0.4-1.3,0.9c0,0.4,0.2,0.7,1,0.8l1.1,0.1c1.3,0.1,2.1,0.7,2.1,2C203.4,168.4,202.1,169.2,200.4,169.2z"/>
</g>
<g>
	<polygon class="st6" points="233.4,198.5 238.6,205.2 243.2,201.6 238,195 243.8,192.4 218.6,175.4 229.5,203.5 	"/>
</g>
<g>
</g>
<g>
</g>
<g>
</g>
<g>
</g>
<g>
</g>
<g>
</g>
</svg>
