<?xml version="1.0" encoding="utf-8"?>
<!-- Generator: Adobe Illustrator 19.1.0, SVG Export Plug-In . SVG Version: 6.00 Build 0)  -->
<svg version="1.1" id="Layer_1" xmlns="http://www.w3.org/2000/svg" xmlns:xlink="http://www.w3.org/1999/xlink" x="0px" y="0px"
	 viewBox="0 0 419.2 327.7" style="enable-background:new 0 0 419.2 327.7;" xml:space="preserve">
<style type="text/css">
	.st0{fill:none;stroke:#1D1D1B;stroke-width:0.6042;stroke-linecap:round;stroke-linejoin:round;stroke-dasharray:3.6763,3.6763;}
	.st1{fill:#3A50A2;}
	.st2{fill:#FFFFFF;stroke:#010101;stroke-linecap:round;stroke-linejoin:round;}
	.st3{fill:none;stroke:#010101;stroke-linecap:round;stroke-linejoin:round;}
	.st4{fill:none;stroke:#010101;stroke-width:0.5;stroke-linecap:round;stroke-linejoin:round;}
	.st5{fill:#FFFFFF;stroke:#010101;stroke-width:0.5;stroke-linecap:round;stroke-linejoin:round;}
	.st6{fill-rule:evenodd;clip-rule:evenodd;fill:#E4E4E4;stroke:#1D1D1B;stroke-linecap:round;stroke-linejoin:round;}
	.st7{fill:none;stroke:#010101;stroke-miterlimit:10;}
</style>
<g>
	<ellipse class="st0" cx="249.1" cy="312.8" rx="46.7" ry="14.6"/>
</g>
<path class="st1" d="M219.6,314.9l5.6,3.9l3.3-2.3l3.3,2.3l3.2-2.3l3.1,2.2l3.3-2.3l4.3,3h5.4c2.3,2.8,6.6,4.7,11.5,4.8
	c7.4,0,13.3-4.2,13.4-9.5c0-5.2-6-9.5-13.4-9.4c-4.9,0-9.3,1.9-11.6,4.8h-26.9l-4.6,3.3C218.8,313.9,218.8,314.3,219.6,314.9z
	 M264.9,314.7c0-1.4,1.6-2.5,3.5-2.5c2,0,3.6,1.1,3.5,2.5c0,1.4-1.6,2.5-3.5,2.5C266.5,317.2,264.9,316.1,264.9,314.7z"/>
<g>
	<path class="st2" d="M0.5,105.3c10.1,12.2,32.3,25.2,32.3,25.2c5.8,4.5,40.7,23.9,62.3,33.7c21.6,9.9,47.2,23.1,48.9,25.5
		c1.8,2.4,0.7,3.9,10,10.4c9.2,6.5,19.4,10,19.4,10c1.7,2.3,8,5.9,8,5.9c1.5,4,8.1,10.8,8.1,10.8c2.1,4.8,6.7,10.1,6.7,10.1
		c5.9,11.5,11.6,11,13.8,8.8c2.2-2.2-1.7-7.1-5.7-14.3c-4-7.1-9.2-19.9-9.2-19.9c1.6-0.9,3.9-2.6,3.9-2.6c2.4,3,11.7,8.2,11.7,8.2
		c6,7.9,12.7,11,12.7,11s0,0,4.6,5c4.6,5,8.6,5.7,11.6,2.8c3-2.8-1.5-6.1-9.9-15.9c-8.5-10-16.7-18.3-16.7-18.3
		c4,2.9,13.7,4.7,13.7,4.7c4.2,4,13.5,9.7,13.5,9.7c1.2,1.2,12.3,12.3,16.3,6.8c2.8-4,0.9-5.9-0.6-8.3c-1.6-2.4-5.3-5.3-8.1-7.4
		c-2.7-2.1-9-8-9-8c1.8,0.7,8.8,2.9,8.8,2.9c1.3,1.3,13.8,8.4,17.1,3.9c3.2-4.5-6.5-10.3-12.2-14.5c-5.7-4.2-14.6-7.7-17.2-9.6
		c-8.8-6.7-15.9-5.4-19.9-8.4c-10.3-6.7-38.6-14.9-45.2-16.7c-6.6-1.8-12.7-7.2-20-12.5c-7.3-5.2-35.6-24.5-44.8-32.2
		c-9.1-7.7-30.6-23.5-30.6-23.5S55.8,75.2,51.2,71.8c0,0-5.2-4.8-8.4-10.1"/>
	<path class="st3" d="M238.8,199c0,0-4.1-1.7-6.2-3c0,0-7.5-1.2-13.9-4.8"/>
	<path class="st4" d="M182.8,215.7c0.4-0.1,7.2-1.6,9.4-3.1"/>
	<path class="st4" d="M201.6,207.8c1.5-0.4,2.8-0.6,6.5-4"/>
	<path class="st4" d="M211.2,216.4c0,0,2.8-1.1,3.8-2.9"/>
	<path class="st4" d="M224,226.6c0,0,2.6-1.5,3.4-2.4"/>
	<path class="st4" d="M206.9,177.6c0,0-3.8,7.8-18.2,20.1c-14.4,12.3-10.5,8.8-12.2,10.5"/>
	<path class="st4" d="M185.2,193.2c0,0-6.8,5.3-14.1,7.1"/>
	<path class="st4" d="M219.5,189.7c0,0,0.3-3.3-0.2-5.1"/>
	<path class="st4" d="M235.2,188.8c0,0-1.3,4.6-2,6.2"/>
	<path class="st4" d="M235.5,191.1c0,0-0.4,1.5-0.8,2.2"/>
	<path class="st4" d="M250.1,197.4c0,0-1.4,2.8-1.9,3.3"/>
	<path class="st4" d="M244.1,210.5c0,0-2.4,3.1-2.9,4.5"/>
	<path class="st4" d="M229.5,201c0,0-2.2,3-2.3,3.8"/>
	<path class="st4" d="M230.6,202c0,0-1.9,3.1-2.5,3.5"/>
	<path class="st4" d="M194.8,223.5c0,0-3.9,2-4.7,2.6"/>
	<path class="st4" d="M194.7,225.7c-0.9,0.6-3.1,1.3-3.9,1.4"/>
	<path class="st4" d="M199.7,234.1c0,0-2,1.5-2.5,2.2"/>
	<path class="st4" d="M195.2,172.5c0,0,0.4-1.8-0.1-2.4"/>
	<path class="st2" d="M193.2,170.3c0,0,1.7,4.4,3.6,6.1c1.8,1.7,8.2,6.4,9.6,7.8c1.5,1.5,7.8,5.6,8.4,6.3c0,0,7.5,3.6,2.9,8
		c-4.7,4.4-8.5,3.8-12.6,2.8c-4.1-1-8.7-3.9-9.4-4.6c0,0-7.2-2.9-11.3-5.9c0,0-6.6,4.3-18.7,0.2"/>
	<path class="st4" d="M214.9,190.4c-0.2,0-3.5-0.7-5.3,0.4c-2.2,1.3-3.8,3.5-3.8,4.1c0,0.6,4.4,3.8,5.7,3.8c1.2,0,7.3-3.6,7.4-4.5"
		/>
	<path class="st4" d="M143.7,187.9c0,0,0.8-3.6,2.6-5.1c1.8-1.6,4-8.7,4.4-11"/>
	<path class="st4" d="M183.9,190.4c0,0-2.4-0.6-3.8-2.5c-1.3-1.9-1.5-2.6-2.3-5"/>
	<path class="st5" d="M201.2,182c-0.9,0.1-3.8,1-4.6,1.8"/>
	<line class="st5" x1="201.9" y1="184.1" x2="199.8" y2="184.8"/>
	<path class="st4" d="M195.9,196.1c0,0-0.8-0.9-0.1-1.6"/>
</g>
<path class="st6" d="M386,34.4c-29,19.6-46,47.8-60.4,78.3c1.2-1.1,2.5-2.2,3.7-3.4C342.2,96.7,358,89.7,375,84.8
	c9.3-2.7,18.6-5,27.9-7.5c5.3-1.5,10.4-0.7,15.7,1.9c-41.9,12.6-71.1,42.1-99.9,72c0.3,0.6,0.7,1.2,1,1.9c13.2-3.6,26.6-6.7,39.5-11
	c7.9-2.7,15.1-7.4,22.8-11.1c1.1-0.6,2.7-0.3,4-0.4c-0.4,1.4-0.4,3.2-1.2,4.2c-10.3,11.7-22.8,19.9-37.8,25
	c-12,4.1-23.4,10.3-35,15.7c-1.9,0.9-3.4,2.6-5.1,3.9c0.2,0.5,0.3,0.9,0.5,1.4c15.5-3,31-5.9,46-8.8c-0.8,3.1-4.8,7.3-11.3,9.9
	c-11.1,4.5-22.4,8.6-33.6,12.8c-1.6,0.6-3.2,1.2-4.8,1.9c0,0.5,0,0.9,0.1,1.4c6.1,1.2,12.4,2,18.3,3.8c6.2,1.8,12.2,4.2,18,7.1
	c3.3,1.6,5.1,4.5,0.7,7.7c-1,0.7-1.5,2.9-1.3,4.3c0.6,3.6-1,5.3-3.8,7.3c-3.4,2.4-7.3,5.3-9,8.9c-10.2,20.4-21.2,40.3-34.9,58.6
	c-0.4,0.5-0.6,1.1-1,2c1.4,0.6,2.8,0.8,3.8,1.6c1.3,1,3.5,2.3,3.4,3.4c-0.1,1.6-1.6,4.2-2.9,4.5c-7,1.8-14.2,3.8-21.4,4.4
	c-15.6,1.2-30.2-3.8-44.8-8.7c-7.6-2.6-14.7-5.3-19.2-12.4c-4.4-6.9-3.5-8.8,4.5-9.4c1.1-0.1,2.3-0.3,2.9-0.4
	c-2.7-12.3-6-24.3-8-36.5c-1.7-10.6-2-21.4-3-32.2c-0.1-1.6,0.1-4.1-0.9-4.7c-5.2-3.6-3.4-8.7-3.5-13.5c0-2.4-0.8-4.8-1.3-8.3
	c13.4-5.2,27.2,0.1,41.7,0.6c-4.1-8.3-9.5-15.4-17.1-19.6c-7.4-4.2-15.9-6.5-24-9.7c5.9-4.6,13.1-4,20-1.5
	c6.8,2.5,13.1,6.2,20.5,8.6c-6.1-5.5-11.8-11.4-18.2-16.4c-6.8-5.3-14-10.2-21.3-14.7c-7.2-4.4-14.8-8.2-22.4-13.5
	c2.5-0.2,5-0.7,7.4-0.4c11.9,1.3,23.2,4.7,33.6,10.5c11.8,6.5,23.4,13.2,36,20.2c-4.9-8-9.2-15.5-13.9-22.8
	c-13.6-21.4-23.5-44.3-27.5-69.6c-0.8-5.4-0.4-10.9,0-16.5c17.9,28.6,32.3,58.9,48.1,88.7c0.1-1,0.4-2.1,0.2-3
	c-5.7-23.5-9.2-47.3-11.6-71.3c-1.3-13.3-7.5-25.1-13.2-36.9c-2.1-4.3-4.6-8.5-6.6-12.8c-0.6-1.3-0.4-3-0.5-4.5
	c1.5,0.3,3.4,0.2,4.4,1.1c8.7,8.2,16.9,16.9,22.9,27.5c10.8,19.3,16.5,40.2,20,61.8c0.3,1.6,0.6,3.2,1.7,5.2
	c8.2-35,24.4-65.9,46.4-93.7c0.4,0.2,0.8,0.4,1.3,0.6c-4,25.8-8,51.6-12.1,77.3c0.3,0.1,0.6,0.2,0.9,0.3c4.9-6.8,9.6-13.7,14.8-20.3
	c10-12.6,22-22.4,38.4-25.1C375.4,34.5,380.7,34.7,386,34.4z"/>
<g>
	<path class="st2" d="M215.5,173.4c-10.3-6.7-38.6-14.9-45.2-16.7c-6.6-1.8-12.7-7.2-20-12.5c-7.3-5.2-35.6-24.5-44.8-32.2
		c-9.1-7.7-30.6-23.5-30.6-23.5S55.8,75.2,51.2,71.8c0,0-5.2-4.8-8.4-10.1"/>
	<path class="st2" d="M264.7,205.8"/>
	<path class="st2" d="M213,201.5"/>
	<path class="st3" d="M218.7,191.2"/>
	<path class="st4" d="M185.2,193.2c0,0-6.8,5.3-14.1,7.1"/>
	<path class="st4" d="M195.2,172.5c0,0,0.4-1.8-0.1-2.4"/>
	<path class="st2" d="M193.2,170.3c0,0,1.7,4.4,3.6,6.1c1.8,1.7,8.2,6.4,9.6,7.8c1.5,1.5,7.8,5.6,8.4,6.3c0,0,7.5,3.6,2.9,8
		c-4.7,4.4-8.5,3.8-12.6,2.8c-4.1-1-8.7-3.9-9.4-4.6c0,0-7.2-2.9-11.3-5.9c0,0-6.6,4.3-18.7,0.2"/>
	<path class="st4" d="M214.9,190.4c-0.2,0-3.5-0.7-5.3,0.4c-2.2,1.3-3.8,3.5-3.8,4.1c0,0.6,4.4,3.8,5.7,3.8c1.2,0,7.3-3.6,7.4-4.5"
		/>
	<path class="st4" d="M143.7,187.9c0,0,0.8-3.6,2.6-5.1c1.8-1.6,4-8.7,4.4-11"/>
	<path class="st4" d="M183.9,190.4c0,0-2.4-0.6-3.8-2.5c-1.3-1.9-1.5-2.6-2.3-5"/>
	<path class="st5" d="M201.2,182c-0.9,0.1-3.8,1-4.6,1.8"/>
	<line class="st5" x1="201.9" y1="184.1" x2="199.8" y2="184.8"/>
	<path class="st4" d="M195.9,196.1c0,0-0.8-0.9-0.1-1.6"/>
</g>
<path class="st7" d="M343.2,214.2c0,0-32.6,9.1-79.1-1.1c-32-7-46.4-14.6-46.4-14.6"/>
<path class="st3" d="M242.3,185.8c1.7,3.4,2.4,15.9,1.4,22.2"/>
<path class="st6" d="M303.9,196.5c-3.5,2.1-11.3,10.2-13.9,20.6"/>
<g>
</g>
<g>
</g>
<g>
</g>
<g>
</g>
<g>
</g>
<g>
</g>
</svg>
