<?xml version="1.0" encoding="utf-8"?>
<!-- Generator: Adobe Illustrator 19.2.1, SVG Export Plug-In . SVG Version: 6.00 Build 0)  -->
<svg version="1.1" id="Layer_1" xmlns="http://www.w3.org/2000/svg" xmlns:xlink="http://www.w3.org/1999/xlink" x="0px" y="0px"
	 viewBox="0 0 202 425" style="enable-background:new 0 0 202 425;" xml:space="preserve">
<style type="text/css">
	.st0{fill:#FFFFFF;stroke:#010101;stroke-width:2;stroke-miterlimit:10;}
	.st1{fill:none;stroke:#1A1A1A;stroke-miterlimit:10;}
	.st2{fill:#FFFFFF;stroke:#010101;stroke-miterlimit:10;}
	.st3{fill:#010101;stroke:#FFFFFF;stroke-width:0.746;stroke-miterlimit:10;}
	.st4{fill:#010101;stroke:#FFFFFF;stroke-width:0.8525;stroke-miterlimit:10;}
	.st5{fill:#ECECEC;}
	.st6{fill:#FFFFFF;}
	.st7{fill:#3A50A2;stroke:#1D1D1B;stroke-width:0.3114;stroke-miterlimit:10;}
	.st8{fill:none;}
	.st9{fill:#1D1D1B;}
	.st10{fill:none;enable-background:new    ;}
	.st11{fill:#FFFFFF;stroke:#1E1E1E;stroke-miterlimit:10;}
	.st12{fill:#1E1E1E;}
	.st13{fill:#C1C1C1;stroke:#575756;stroke-miterlimit:10;}
	.st14{fill:#FFFFFF;stroke:#000000;stroke-miterlimit:10;}
	.st15{stroke:#FFFFFF;stroke-width:0.746;stroke-miterlimit:10;}
	.st16{stroke:#FFFFFF;stroke-width:0.8525;stroke-miterlimit:10;}
	.st17{fill:#C1C1C1;}
	.st18{fill:#2341C1;}
	.st19{enable-background:new    ;}
</style>
<path class="st0" d="M567.7,394.2c0,16.5-13.4,29.8-29.8,29.8H397.5c-16.4,0-29.8-13.4-29.8-29.8V30.8c0-16.4,13.4-29.8,29.8-29.8
	h140.3c16.5,0,29.9,13.4,29.9,29.8V394.2z"/>
<rect x="382.2" y="60.5" class="st1" width="172" height="303"/>
<g>
	<circle class="st2" cx="469" cy="393.3" r="17.1"/>
</g>
<circle class="st3" cx="468.5" cy="24.4" r="3.2"/>
<path class="st4" d="M491.3,35.9h-45.2c-1,0-1.8-0.8-1.8-1.8l0,0c0-1,0.8-1.8,1.8-1.8h45.2c1,0,1.8,0.8,1.8,1.8l0,0
	C493,35.1,492.2,35.9,491.3,35.9z"/>
<g>
	<g>
		<rect x="391.7" y="77" class="st5" width="154" height="271"/>
	</g>
</g>
<g>
	<g>
		<circle class="st6" cx="392.1" cy="133.3" r="8.3"/>
	</g>
</g>
<path class="st7" d="M455.3,133.3l-1.9-5.3l2.5,0.3l2.5,3.8l8.5-0.6c1.1-0.4,0.6-1.8,0.6-1.8l-4.3-11.1l1.5,0.1
	c1-0.1,1.7,1.2,1.7,1.2l7.9,11c0,0,6,0.2,8,0.9c0,0,1.5,0.4,1.5,1.3v0.3c0,0.9-1.5,1.3-1.5,1.3c-2,0.7-8,0.9-8,0.9l-7.9,11.1
	c0,0-0.7,1.3-1.7,1.2l-1.5,0.1l4.3-11.1c0,0,0.5-1.5-0.6-1.8l-8.5-0.6l-2.4,3.8l-2.5,0.4L455.3,133.3"/>
<g>
	<rect x="416" y="180.1" class="st8" width="100.6" height="35.2"/>
	<path class="st9" d="M434.5,190.1v-10h1.1v9h5.1v1H434.5z"/>
	<path class="st9" d="M448.3,190.1v-4.6h-4.7v4.6h-1.1v-10h1.1v4.5h4.7v-4.5h1.1v10H448.3z"/>
	<path class="st9" d="M458,190.1l-2.3-4.4h-2.4v4.4h-1.1v-10h3.8c1.7,0,3,1.1,3,2.8c0,1.5-0.9,2.4-2.2,2.7l2.4,4.5H458z M456,181.1
		h-2.7v3.7h2.7c1.2,0,2-0.6,2-1.8C458,181.7,457.2,181.1,456,181.1z"/>
	<path class="st9" d="M464.8,189.2v-1.1l3.5-1.7l-3.5-1.7v-1.1l4.6,2.4v0.9L464.8,189.2z"/>
	<path class="st9" d="M478.3,190.2c-1.5,0-2.5-0.4-3.4-1.3l0.7-0.7c0.8,0.8,1.6,1.1,2.7,1.1c1.5,0,2.4-0.7,2.4-1.8
		c0-0.5-0.2-1-0.5-1.2c-0.3-0.3-0.6-0.4-1.3-0.5l-1.2-0.2c-0.8-0.1-1.4-0.4-1.8-0.8c-0.5-0.4-0.8-1.1-0.8-1.9c0-1.7,1.2-2.8,3.2-2.8
		c1.3,0,2.1,0.3,3,1.1l-0.7,0.7c-0.6-0.6-1.3-0.9-2.3-0.9c-1.3,0-2.1,0.7-2.1,1.8c0,0.5,0.1,0.9,0.4,1.1c0.3,0.2,0.8,0.5,1.3,0.5
		l1.1,0.2c0.9,0.1,1.4,0.3,1.8,0.7c0.5,0.5,0.8,1.1,0.8,2C481.8,189.1,480.4,190.2,478.3,190.2z"/>
	<path class="st9" d="M485,181.1v3.7h4.4v1H485v4.4h-1.1v-10h6.2v1L485,181.1L485,181.1z"/>
	<path class="st9" d="M497.5,189.2c-0.7,0.7-1.6,1-2.5,1c-1,0-1.9-0.4-2.5-1c-0.9-0.9-0.9-1.9-0.9-4s0-3.1,0.9-4
		c0.7-0.7,1.6-1,2.5-1c1,0,1.9,0.4,2.5,1c0.9,0.9,0.9,1.9,0.9,4S498.4,188.2,497.5,189.2z M496.7,181.7c-0.4-0.4-1.1-0.7-1.7-0.7
		s-1.3,0.3-1.7,0.7c-0.6,0.6-0.7,1.3-0.7,3.4c0,2.1,0.1,2.8,0.7,3.4c0.4,0.4,1.1,0.7,1.7,0.7s1.3-0.3,1.7-0.7
		c0.6-0.6,0.7-1.3,0.7-3.4S497.3,182.4,496.7,181.7z"/>
</g>
<g>
	<g>
		<circle class="st6" cx="544.8" cy="133.3" r="8.3"/>
	</g>
</g>
<image style="overflow:visible;enable-background:new    ;" width="299" height="299" xlink:href="5638951FFCF53B30.png"  transform="matrix(0.4011 0 0 0.4011 408.9954 201.6402)">
</image>
<path class="st10" d="M0,0"/>
<path class="st11" d="M201.5,393.7c0,16.5-13.4,29.8-29.8,29.8H31.3c-16.5,0-29.8-13.4-29.8-29.8V30.3c0-16.5,13.4-29.8,29.8-29.8
	h140.3c16.5,0,29.8,13.4,29.8,29.8L201.5,393.7L201.5,393.7z"/>
<g>
	<path class="st12" d="M101.2,0.9c0,0,9.3-0.1,25.7-0.3c8.2-0.1,18.1-0.2,29.5-0.3c2.8,0,5.8,0,8.8-0.1c1.5,0,3,0,4.6,0
		c0.8,0,1.6,0,2.4,0h1.2l1.2,0.1c6.5,0.5,13.2,3.3,18.4,8.3s8.6,12.2,8.9,20C202,36.2,202,44,202,52c0,16.1,0,33,0.1,50.5
		c0,35,0.1,72.4,0.1,109.8s-0.1,74.8-0.1,109.8c0,17.5,0,34.5-0.1,50.5c0,4,0,8,0,11.9c0,2,0,3.9,0,5.8s0,3.8-0.1,5.8
		c-0.7,7.7-4.2,14.8-9.4,19.8c-2.6,2.5-5.5,4.5-8.7,5.9c-3.1,1.4-6.4,2.2-9.7,2.4c-1.6,0.1-3.2,0.1-4.8,0.1s-3.1,0-4.6,0
		c-3,0-6,0-8.8-0.1c-11.4-0.1-21.3-0.2-29.5-0.3c-16.4-0.2-25.7-0.3-25.7-0.3s9.3-0.1,25.7-0.3c8.2-0.1,18.1-0.2,29.5-0.3
		c2.8,0,5.8,0,8.8-0.1c1.5,0,3,0,4.6,0s3.1,0,4.7-0.1c3.1-0.2,6.3-1,9.3-2.4c3-1.3,5.8-3.3,8.2-5.7c4.9-4.8,8.2-11.6,8.8-18.9
		c0.2-1.8,0.1-3.7,0.1-5.7c0-1.9,0-3.9,0-5.8c0-3.9,0-7.9,0-11.9c0-16.1,0-33-0.1-50.5c0-35-0.1-72.4-0.1-109.8s0.1-74.8,0.1-109.8
		c0-17.5,0-34.5,0.1-50.5c0-8,0.1-15.9,0-23.4c-0.3-7.4-3.5-14.3-8.4-19.1s-11.3-7.5-17.5-8l-1.2-0.1h-1.2c-0.8,0-1.6,0-2.3,0
		c-1.6,0-3.1,0-4.6,0c-3,0-6,0-8.8-0.1C145,1,135.1,0.9,126.9,0.8C110.6,1,101.2,0.9,101.2,0.9z"/>
</g>
<g>
	<g>
		<path class="st12" d="M102.9,374.9c0,0,0.2,0,0.6,0s1-0.1,1.7,0c0.4,0,0.8,0.1,1.2,0.1c0.4,0.1,0.9,0.2,1.4,0.3
			c0.5,0.1,1,0.3,1.6,0.5s1.1,0.5,1.7,0.7c0.6,0.3,1.2,0.6,1.8,1c0.6,0.4,1.2,0.8,1.8,1.3c1.2,0.9,2.2,2.1,3.2,3.5
			c0.9,1.4,1.7,2.9,2.2,4.6s0.8,3.4,0.8,5.2c-0.1,0.9,0,1.7-0.2,2.6c-0.1,0.9-0.4,1.8-0.6,2.6c-0.5,1.7-1.3,3.2-2.2,4.6
			c-0.9,1.4-2,2.6-3.2,3.5c-0.6,0.5-1.2,0.9-1.8,1.3c-0.6,0.4-1.2,0.7-1.8,1c-0.6,0.2-1.2,0.5-1.7,0.7c-0.6,0.2-1.1,0.3-1.6,0.5
			c-0.5,0.1-1,0.2-1.4,0.3c-0.4,0-0.9,0.1-1.2,0.1c-0.7,0.1-1.3,0-1.7,0c-0.4,0-0.6,0-0.6,0s0.2,0,0.6-0.1s1-0.1,1.7-0.3
			c0.4-0.1,0.7-0.2,1.2-0.3c0.4-0.1,0.9-0.3,1.3-0.4c0.5-0.2,0.9-0.4,1.5-0.6c0.5-0.2,1-0.5,1.5-0.8c1-0.7,2.1-1.4,3.1-2.4
			c1-0.9,1.9-2.1,2.7-3.3c0.8-1.3,1.4-2.7,1.9-4.2c0.2-0.8,0.4-1.5,0.5-2.3c0.1-0.7,0.1-1.7,0.2-2.4c0-1.6-0.2-3.2-0.7-4.7
			s-1-2.9-1.9-4.2c-0.8-1.2-1.7-2.4-2.7-3.3c-1-1-2.1-1.7-3.1-2.4c-0.5-0.3-1-0.6-1.5-0.8c-0.5-0.2-1-0.5-1.5-0.6
			c-0.5-0.2-0.9-0.3-1.3-0.4s-0.8-0.2-1.2-0.3c-0.7-0.2-1.3-0.2-1.7-0.3C103.1,375,102.9,374.9,102.9,374.9z"/>
	</g>
	<path class="st11" d="M102.9,409.1c-9.4,0-17.1-7.6-17.1-17.1c0-9.4,7.6-17.1,17.1-17.1"/>
</g>
<g>
	<g>
		<rect x="14.5" y="61.5" class="st13" width="172" height="303"/>
		<g>
			<circle class="st14" cx="102.9" cy="392" r="17.1"/>
		</g>
		<circle class="st15" cx="101.8" cy="24.4" r="3.2"/>
		<path class="st16" d="M124.6,35.9H79.4c-1,0-1.8-0.8-1.8-1.8l0,0c0-1,0.8-1.8,1.8-1.8h45.2c1,0,1.8,0.8,1.8,1.8l0,0
			C126.3,35.1,125.5,35.9,124.6,35.9z"/>
		<g>
			<g>
				<rect x="25" y="77" class="st6" width="154" height="271"/>
			</g>
		</g>
		<g>
			<g>
				<circle class="st17" cx="25.4" cy="133.3" r="8.3"/>
			</g>
		</g>
		<path class="st18" d="M88.6,133.3l-1.9-5.3l2.5,0.3l2.5,3.8l8.5-0.6c1.1-0.3,0.6-1.8,0.6-1.8l-4.3-11.1l1.5,0.1
			c1-0.1,1.7,1.2,1.7,1.2l7.9,11c0,0,6,0.2,8,0.9c0,0,1.5,0.4,1.5,1.3v0.3c0,0.9-1.5,1.3-1.5,1.3c-2,0.7-8,0.9-8,0.9l-7.9,11.1
			c0,0-0.7,1.3-1.7,1.2l-1.5,0.1l4.3-11.1c0,0,0.5-1.5-0.6-1.8l-8.5-0.6l-2.4,3.8l-2.5,0.4L88.6,133.3"/>
		<g id="e5KAql_2_">
			
				<image style="overflow:visible;enable-background:new    ;" width="3022" height="3022" id="e5KAql_3_" xlink:href="5638951FFCF53B31.png"  transform="matrix(4.367968e-02 0 0 4.367968e-02 35.7148 201.3282)">
			</image>
		</g>
		<rect x="49.3" y="180.1" class="st8" width="100.6" height="35.2"/>
		<g class="st19">
			<path class="st9" d="M71.2,189.2v-8.6h1.1v7.6h4.4v1H71.2z"/>
			<path class="st9" d="M84.3,180.6h1.1v8.6h-1.1v-3.9h-4.9v3.9h-1.1v-8.6h1.1v3.7h4.9V180.6z"/>
			<path class="st9" d="M90,185.6h-1.5v3.6h-1.1v-8.6h3.2c0.9,0,1.6,0.2,2.1,0.6c0.5,0.4,0.7,1,0.7,1.8c0,0.7-0.2,1.3-0.6,1.7
				c-0.4,0.4-0.9,0.7-1.6,0.8l2.5,3.7h-1.3L90,185.6z M88.5,181.6v3.1h2.1c0.6,0,1-0.1,1.3-0.4c0.3-0.3,0.5-0.6,0.5-1.1
				c0-0.5-0.2-0.8-0.5-1.1s-0.7-0.4-1.3-0.4H88.5z"/>
			<path class="st9" d="M102.3,184.6v1.1l-4.2,2.1v-1l3.3-1.7l-3.3-1.7v-1L102.3,184.6z"/>
			<path class="st9" d="M106.5,187h1.1c0.3,1,1.1,1.4,2.2,1.4c0.6,0,1-0.1,1.4-0.4c0.3-0.3,0.5-0.6,0.5-1.1c0-0.3-0.1-0.6-0.3-0.8
				c-0.2-0.2-0.6-0.4-1-0.5l-1.5-0.4c-1.4-0.4-2.1-1.1-2.1-2.2c0-0.7,0.3-1.3,0.8-1.8c0.5-0.5,1.2-0.7,2-0.7c0.9,0,1.6,0.2,2.1,0.6
				c0.5,0.4,0.9,1,1.1,1.7h-1.1c-0.3-0.9-1-1.3-2-1.3c-0.5,0-1,0.1-1.3,0.4c-0.3,0.3-0.5,0.6-0.5,1c0,0.4,0.1,0.6,0.3,0.8
				c0.2,0.2,0.6,0.4,1,0.5l1.5,0.4c1.4,0.4,2.1,1.1,2.1,2.3c0,0.8-0.3,1.4-0.8,1.8s-1.3,0.7-2.1,0.7s-1.6-0.2-2.2-0.6
				S106.7,187.8,106.5,187z"/>
			<path class="st9" d="M115.5,189.2h-1.1v-8.6h5.2v1h-4.1v2.9h3.9v1h-3.9V189.2z"/>
			<path class="st9" d="M127.3,181.8c0.7,0.8,1.1,1.9,1.1,3.2s-0.4,2.4-1.1,3.2c-0.7,0.8-1.7,1.2-2.8,1.2c-1.1,0-2.1-0.4-2.8-1.2
				c-0.7-0.8-1.1-1.9-1.1-3.2s0.4-2.4,1.1-3.2c0.7-0.8,1.7-1.2,2.8-1.2C125.7,180.5,126.6,180.9,127.3,181.8z M126.5,187.4
				c0.5-0.6,0.8-1.5,0.8-2.5s-0.3-1.8-0.8-2.5c-0.5-0.6-1.2-1-2-1c-0.8,0-1.5,0.3-2,1c-0.5,0.6-0.8,1.5-0.8,2.5s0.3,1.8,0.8,2.5
				c0.5,0.6,1.2,1,2,1C125.4,188.4,126,188.1,126.5,187.4z"/>
		</g>
	</g>
	<g>
		<g>
			<circle class="st17" cx="178.1" cy="133.3" r="8.3"/>
		</g>
	</g>
</g>
</svg>
