<?xml version="1.0" encoding="utf-8"?>
<!-- Generator: Adobe Illustrator 22.0.1, SVG Export Plug-In . SVG Version: 6.00 Build 0)  -->
<svg version="1.1" id="Layer_1" xmlns="http://www.w3.org/2000/svg" xmlns:xlink="http://www.w3.org/1999/xlink" x="0px" y="0px"
	 viewBox="0 0 841.9 506" style="enable-background:new 0 0 841.9 506;" xml:space="preserve">
<style type="text/css">
	.st0{fill:#FFFFFF;}
	.st1{fill:#DDDDDD;}
	.st2{fill:#1D1D1B;}
	.st3{fill:none;stroke:#1D1D1B;stroke-miterlimit:10;}
	.st4{fill:#1E1E1E;}
	.st5{fill:#FFFFFF;stroke:#1D1D1B;stroke-miterlimit:10;}
	.st6{fill:#2341C1;}
	.st7{fill:#9C9B9B;}
	.st8{fill:none;stroke:#FFFFFF;stroke-width:0.4;stroke-miterlimit:10;}
	.st9{fill:none;stroke:#DDDDDD;stroke-miterlimit:10;}
</style>
<path class="st0" d="M739.5,12.9H108.8c-11,0-19.9,8.9-19.9,19.9v420.3c0,11,8.9,19.9,19.9,19.9h630.7c11,0,19.9-8.9,19.9-19.9V32.8
	C759.4,21.8,750.5,12.9,739.5,12.9z"/>
<title>access-expiration</title>
<rect x="104.5" y="73.5" class="st1" width="638.6" height="382.7"/>
<path class="st1" d="M317.6,50h-10.6c-1.8,0-3.8-1.4-4.4-3.1l-4.2-12.3c-0.6-1.7-2.5-3.1-4.4-3.1h-90.4c-1.8,0-3.9,1.3-4.7,3L193,47
	c-0.8,1.6-2.9,3-4.7,3h-11.2h-72.6v23.5H743V50L317.6,50L317.6,50z"/>
<circle class="st1" cx="115.5" cy="40.8" r="4.5"/>
<circle class="st1" cx="132" cy="40.8" r="4.5"/>
<circle class="st1" cx="147.4" cy="40.8" r="4.5"/>
<path class="st0" d="M499.3,69.1H163.5c-3.3,0-6.1-2.7-6.1-6.1v-2.2c0-3.3,2.7-6.1,6.1-6.1h335.8c3.3,0,6.1,2.7,6.1,6.1V63
	C505.4,66.4,502.7,69.1,499.3,69.1z"/>
<g>
	<path class="st2" d="M119.3,62.5v-1l3.9-2v0.9l-3.1,1.6l3.1,1.6v0.9L119.3,62.5z"/>
	<path class="st2" d="M137.6,61.5v1l-3.9,2v-0.9l3.1-1.6l-3.1-1.6v-0.9L137.6,61.5z"/>
</g>
<g>
	<path class="st3" d="M740.3,12.9H108.8c-11,0-20,9-20,20v420c0,11,9,20,20,20h631.5c11,0,20-9,20-20v-420
		C760.3,21.9,751.3,12.9,740.3,12.9z M743,456.6H104.5V30H743V456.6z"/>
</g>
<g>
	<polygon class="st4" points="104.5,456.6 264,456.1 423.5,455.8 583.1,455.6 742.6,455.7 741.7,456.6 741.9,243.3 742.2,136.7 
		742.6,30 743,136.7 743.2,243.3 743.5,456.6 743.5,457.5 742.6,457.5 583.1,457.6 423.5,457.5 264,457.2 	"/>
</g>
<g>
	<path class="st2" d="M513.3,465.6c0,0,51.3,1.5,128.3,3.6c19.2,0.6,40.1,1.2,62.1,1.9c11,0.3,22.3,0.7,33.9,1l2.2,0.1l0.5,0l0.5,0
		c0.4,0,0.7,0,1.1-0.1c1.4-0.1,2.8-0.4,4.1-0.8c2.7-0.8,5.2-2.3,7.3-4.2c2.1-1.9,3.8-4.3,4.8-7c0.5-1.3,0.9-2.7,1.2-4.1
		c0.2-1.4,0.3-2.8,0.2-4.4c0-48.1-0.1-99.4-0.1-150.8c0-51.3,0-102.7,0-150.8c0-24.1,0-47.3,0.1-69.4c0-11,0-21.8,0-32.1
		c-0.5-10.2,2.1-21.2-4.7-28.2c-3-3.5-7.3-5.7-11.6-6.4c-1.1-0.2-2.2-0.2-3.3-0.2c-1.1,0-2.3,0-3.4,0c-2.2,0-4.5,0-6.7,0
		c-8.8,0-17.1-0.1-24.9-0.1c-15.6-0.1-29.3-0.2-40.5-0.3c-22.5-0.2-35.3-0.3-35.3-0.3s12.8-0.1,35.3-0.3c11.2-0.1,24.9-0.2,40.5-0.3
		c7.8,0,16.1-0.1,24.9-0.1c2.2,0,4.4,0,6.7,0c1.1,0,2.3,0,3.4,0c1.1,0,2.4,0,3.5,0.2c4.8,0.7,9.4,3.1,12.7,6.9
		c1.7,1.9,3,4.1,3.9,6.5c0.4,1.2,0.8,2.4,1,3.7c0.2,1.3,0.3,2.6,0.3,3.9c0,5,0,10.1,0,15.3c0,10.4,0,21.1,0,32.1
		c0,22.1,0,45.3,0.1,69.4c0,48.1,0,99.4,0,150.8c0,51.3-0.1,102.7-0.1,150.8c0,1.5,0,3.1-0.3,4.6c-0.3,1.5-0.7,3-1.3,4.5
		c-1.2,2.9-3,5.4-5.3,7.5c-2.3,2.1-5,3.6-7.9,4.5c-1.5,0.4-2.9,0.7-4.5,0.8c-0.4,0-0.8,0.1-1.1,0.1l-0.6,0l-0.5,0l-2.2-0.1
		c-11.6-0.4-22.9-0.8-33.9-1.2c-22-0.8-42.9-1.5-62.1-2.1C564.6,467.5,513.3,465.6,513.3,465.6z"/>
</g>
<path class="st5" d="M836.4,481.5L836.4,481.5c0,5.2-4.3,9.5-9.5,9.5H22.3c-5.2,0-9.5-4.3-9.5-9.5l0,0"/>
<g>
	<path class="st5" d="M836.4,482.2v-16.6H491.9v1.9c0,3-2.5,5.5-5.5,5.5H362.8c-3,0-5.5-2.5-5.5-5.5v-1.9H12.8v15.8"/>
	<path class="st5" d="M362.8,473h123.6c3,0,5.5-2.5,5.5-5.5v-1.9H357.3v1.9C357.3,470.6,359.7,473,362.8,473z"/>
</g>
<g>
	<path class="st5" d="M491.9,465.6v1.9c0,3-2.5,5.5-5.5,5.5H362.8c-3,0-5.5-2.5-5.5-5.5v-1.9H12.8v15.8"/>
	<path class="st5" d="M751.4,465.6"/>
	<g>
		<path class="st2" d="M491.9,465.6l86.1-0.4l86.1-0.3l86.1-0.2l86.1-0.1c0.5,0,1,0.4,1,1l0,11.4l0,2.9l0,1.4c0,0.6,0,0.9-0.1,1.5
			c-0.1,1.1-0.5,2.1-0.9,3c-0.4,1-1,1.8-1.8,2.6c-1.4,1.6-3.3,2.6-5.3,3.1c-0.5,0.1-1,0.2-1.5,0.2l-0.8,0l-0.7,0l-2.9,0l-11.4,0
			l-45.7,0l-91.4-0.2l-91.4-0.3l-91.4-0.4l91.4-0.4l91.4-0.3l91.4-0.2l45.7,0l11.4,0l2.9,0l0.7,0l0.6,0c0.4,0,0.9-0.1,1.3-0.2
			c1.7-0.4,3.2-1.3,4.4-2.6c1.2-1.2,1.9-2.9,2.1-4.5c0.1-0.3,0.1-1,0.1-1.3l0-1.4l0-2.9l0-11.4l1,1l-86.1-0.1l-86.1-0.2l-86.1-0.3
			L491.9,465.6z"/>
	</g>
	<path class="st5" d="M362.8,473h123.6c3,0,5.5-2.5,5.5-5.5v-1.9H357.3v1.9C357.3,470.6,359.7,473,362.8,473z"/>
</g>
<rect x="196.3" y="119.3" class="st0" width="454.5" height="310"/>
<g>
	<path class="st2" d="M213,140.7v4.9h-2.5v-13.1h4.9c0.6,0,1.2,0.1,1.8,0.3c0.5,0.2,1,0.5,1.4,0.8c0.4,0.4,0.7,0.8,0.9,1.3
		s0.3,1,0.3,1.6s-0.1,1.1-0.3,1.6s-0.5,0.9-0.9,1.3c-0.4,0.4-0.8,0.6-1.4,0.8c-0.5,0.2-1.1,0.3-1.8,0.3L213,140.7L213,140.7z
		 M215,138.5c0.6,0,1.1-0.2,1.5-0.5c0.4-0.3,0.5-0.8,0.5-1.4c0-0.6-0.2-1-0.5-1.4c-0.4-0.3-0.9-0.5-1.5-0.5h-2v3.7L215,138.5
		L215,138.5z"/>
	<path class="st2" d="M228.9,143.1c-0.1,0.4-0.3,0.8-0.5,1.1c-0.2,0.4-0.5,0.7-0.9,0.9c-0.3,0.3-0.7,0.5-1.2,0.6s-1,0.2-1.5,0.2
		c-0.6,0-1.2-0.1-1.8-0.3c-0.6-0.2-1.1-0.5-1.5-0.9c-0.4-0.4-0.8-0.9-1-1.5s-0.4-1.3-0.4-2c0-0.7,0.1-1.4,0.4-2s0.6-1.1,1-1.5
		c0.4-0.4,0.9-0.7,1.4-1c0.5-0.2,1.1-0.3,1.7-0.3c1.4,0,2.5,0.4,3.3,1.3s1.2,2,1.2,3.4c0,0.2,0,0.3,0,0.5c0,0.2,0,0.2,0,0.3h-6.5
		c0,0.3,0.1,0.6,0.2,0.8s0.3,0.5,0.5,0.7c0.2,0.2,0.4,0.3,0.7,0.4c0.3,0.1,0.6,0.2,0.9,0.2c0.6,0,1-0.1,1.4-0.4
		c0.3-0.3,0.6-0.6,0.7-1L228.9,143.1z M226.7,140.1c0-0.2-0.1-0.4-0.1-0.7c-0.1-0.2-0.2-0.4-0.4-0.6s-0.4-0.3-0.6-0.4
		c-0.3-0.1-0.6-0.2-0.9-0.2c-0.3,0-0.6,0.1-0.8,0.2c-0.2,0.1-0.5,0.3-0.6,0.4c-0.2,0.2-0.3,0.4-0.4,0.6s-0.1,0.4-0.2,0.6
		L226.7,140.1L226.7,140.1z"/>
	<path class="st2" d="M235.1,136.3c0.7,0,1.3,0.1,1.9,0.4s1.1,0.6,1.5,1c0.4,0.4,0.8,0.9,1,1.5c0.2,0.6,0.4,1.2,0.4,1.9
		c0,0.7-0.1,1.3-0.4,1.9c-0.2,0.6-0.6,1.1-1,1.5c-0.4,0.4-0.9,0.8-1.5,1c-0.6,0.2-1.2,0.4-1.9,0.4s-1.3-0.1-1.9-0.4s-1.1-0.6-1.5-1
		s-0.8-0.9-1-1.5c-0.2-0.6-0.4-1.2-0.4-1.9c0-0.7,0.1-1.3,0.4-1.9c0.2-0.6,0.6-1.1,1-1.5s0.9-0.8,1.5-1S234.4,136.3,235.1,136.3z
		 M235.1,143.7c0.3,0,0.6-0.1,0.9-0.2c0.3-0.1,0.5-0.3,0.7-0.5c0.2-0.2,0.4-0.5,0.5-0.8c0.1-0.3,0.2-0.7,0.2-1.1
		c0-0.4-0.1-0.8-0.2-1.1c-0.1-0.3-0.3-0.6-0.5-0.8c-0.2-0.2-0.5-0.4-0.7-0.5c-0.3-0.1-0.6-0.2-0.9-0.2s-0.6,0.1-0.9,0.2
		s-0.5,0.3-0.7,0.5c-0.2,0.2-0.4,0.5-0.5,0.8s-0.2,0.7-0.2,1.1c0,0.4,0.1,0.8,0.2,1.1c0.1,0.3,0.3,0.6,0.5,0.8
		c0.2,0.2,0.5,0.4,0.7,0.5C234.5,143.7,234.8,143.7,235.1,143.7z"/>
	<path class="st2" d="M241.8,149.2v-12.6h2.4v1.1c0.2-0.4,0.6-0.7,1-0.9c0.5-0.3,1.1-0.4,1.8-0.4c0.7,0,1.3,0.1,1.8,0.4
		c0.5,0.2,1,0.6,1.3,1c0.4,0.4,0.6,0.9,0.8,1.5c0.2,0.6,0.3,1.2,0.3,1.9c0,0.7-0.1,1.3-0.3,1.9c-0.2,0.6-0.5,1.1-0.9,1.5
		c-0.4,0.4-0.8,0.8-1.4,1c-0.5,0.2-1.1,0.4-1.8,0.4c-0.6,0-1.2-0.1-1.6-0.3c-0.4-0.2-0.8-0.5-1-0.8v4.4L241.8,149.2L241.8,149.2z
		 M248.7,141.1c0-0.8-0.2-1.4-0.7-1.9c-0.4-0.4-1-0.7-1.6-0.7c-0.3,0-0.6,0.1-0.9,0.2c-0.3,0.1-0.5,0.3-0.7,0.5
		c-0.2,0.2-0.4,0.5-0.5,0.8c-0.1,0.3-0.2,0.7-0.2,1.1c0,0.4,0.1,0.8,0.2,1.1c0.1,0.3,0.3,0.6,0.5,0.8c0.2,0.2,0.4,0.4,0.7,0.5
		c0.3,0.1,0.6,0.2,0.9,0.2c0.6,0,1.2-0.2,1.6-0.7C248.5,142.6,248.7,141.9,248.7,141.1z"/>
	<path class="st2" d="M253,145.7v-13.3h2.4v13.3H253z"/>
	<path class="st2" d="M266.2,143.1c-0.1,0.4-0.3,0.8-0.5,1.1c-0.2,0.4-0.5,0.7-0.9,0.9s-0.7,0.5-1.2,0.6s-1,0.2-1.5,0.2
		c-0.6,0-1.2-0.1-1.8-0.3c-0.6-0.2-1.1-0.5-1.5-0.9s-0.8-0.9-1-1.5s-0.4-1.3-0.4-2c0-0.7,0.1-1.4,0.4-2s0.6-1.1,1-1.5s0.9-0.7,1.4-1
		c0.5-0.2,1.1-0.3,1.7-0.3c1.4,0,2.5,0.4,3.3,1.3c0.8,0.8,1.2,2,1.2,3.4c0,0.2,0,0.3,0,0.5c0,0.2,0,0.2,0,0.3h-6.5
		c0,0.3,0.1,0.6,0.2,0.8s0.3,0.5,0.5,0.7c0.2,0.2,0.4,0.3,0.7,0.4c0.3,0.1,0.6,0.2,0.9,0.2c0.6,0,1-0.1,1.4-0.4
		c0.3-0.3,0.6-0.6,0.7-1L266.2,143.1z M263.9,140.1c0-0.2-0.1-0.4-0.1-0.7c-0.1-0.2-0.2-0.4-0.4-0.6s-0.4-0.3-0.6-0.4
		c-0.3-0.1-0.6-0.2-0.9-0.2c-0.3,0-0.6,0.1-0.8,0.2c-0.2,0.1-0.5,0.3-0.6,0.4s-0.3,0.4-0.4,0.6s-0.1,0.4-0.2,0.6L263.9,140.1
		L263.9,140.1z"/>
	<path class="st2" d="M273,145.7v-13.1h2.6v13.1H273z"/>
	<path class="st2" d="M288.6,135v10.6H286V135h-4.1v-2.4h10.8v2.4H288.6z"/>
	<path class="st2" d="M298.5,139c-0.2,0-0.5-0.1-0.7-0.1c-0.3,0-0.6,0-0.9,0.1c-0.3,0.1-0.5,0.2-0.7,0.4c-0.2,0.2-0.4,0.5-0.5,0.8
		s-0.2,0.7-0.2,1.2v4.1H293v-9.1h2.4v1.3c0.1-0.3,0.3-0.5,0.5-0.7c0.2-0.2,0.4-0.3,0.7-0.4c0.2-0.1,0.5-0.2,0.7-0.2
		c0.2,0,0.5-0.1,0.7-0.1c0.1,0,0.2,0,0.3,0s0.2,0,0.3,0L298.5,139L298.5,139z"/>
	<path class="st2" d="M306.2,145.7c0-0.1,0-0.2-0.1-0.4c0-0.2,0-0.4,0-0.6c-0.2,0.4-0.6,0.7-1.1,0.9c-0.5,0.2-0.9,0.3-1.4,0.3
		c-0.6,0-1-0.1-1.5-0.3c-0.4-0.2-0.8-0.4-1.1-0.8c-0.3-0.3-0.5-0.7-0.7-1.1c-0.2-0.4-0.2-0.9-0.2-1.4v-5.7h2.4v5.2
		c0,0.5,0.1,0.9,0.4,1.3c0.3,0.4,0.7,0.5,1.3,0.5c0.6,0,1-0.2,1.3-0.5c0.3-0.3,0.4-0.8,0.4-1.3v-5.3h2.4v7.4c0,0.4,0,0.7,0,1
		c0,0.3,0,0.5,0.1,0.7L306.2,145.7L306.2,145.7z"/>
	<path class="st2" d="M312.4,142.7c0,0.4,0.2,0.7,0.4,1c0.3,0.3,0.7,0.4,1.2,0.4c0.4,0,0.7-0.1,0.9-0.3c0.2-0.2,0.3-0.4,0.3-0.6
		c0-0.2-0.1-0.4-0.2-0.5s-0.4-0.3-0.8-0.3L313,142c-0.9-0.2-1.5-0.5-1.9-1c-0.4-0.5-0.6-1-0.6-1.7c0-0.4,0.1-0.8,0.3-1.1
		c0.2-0.4,0.4-0.7,0.7-0.9c0.3-0.3,0.7-0.5,1.1-0.6c0.4-0.2,0.9-0.2,1.4-0.2c0.6,0,1.2,0.1,1.6,0.3c0.4,0.2,0.8,0.4,1.1,0.7
		c0.3,0.3,0.5,0.6,0.6,0.9c0.1,0.3,0.2,0.6,0.2,0.8l-2,0.5c0-0.1-0.1-0.3-0.1-0.4c-0.1-0.1-0.1-0.3-0.3-0.4
		c-0.1-0.1-0.3-0.2-0.5-0.3c-0.2-0.1-0.4-0.1-0.7-0.1c-0.3,0-0.6,0.1-0.8,0.3c-0.2,0.2-0.3,0.4-0.3,0.6c0,0.2,0.1,0.4,0.2,0.5
		c0.2,0.1,0.4,0.2,0.6,0.3l1.3,0.3c0.9,0.2,1.6,0.5,2,1s0.7,1.1,0.7,1.7c0,0.4-0.1,0.7-0.2,1.1c-0.1,0.4-0.4,0.7-0.7,1
		c-0.3,0.3-0.7,0.5-1.1,0.7c-0.4,0.2-1,0.3-1.5,0.3c-0.7,0-1.3-0.1-1.7-0.3c-0.5-0.2-0.8-0.4-1.1-0.7s-0.5-0.6-0.7-0.9
		c-0.1-0.3-0.2-0.6-0.2-0.9L312.4,142.7z"/>
	<path class="st2" d="M322.5,136.6h1.8v2.2h-1.8v3.8c0,0.4,0.1,0.7,0.3,0.8c0.2,0.2,0.4,0.2,0.8,0.2c0.1,0,0.3,0,0.4,0
		c0.1,0,0.3,0,0.3-0.1v2c-0.1,0-0.3,0.1-0.5,0.1c-0.2,0-0.5,0.1-0.9,0.1c-0.9,0-1.6-0.2-2.1-0.7c-0.5-0.5-0.8-1.2-0.8-2.1v-4.2h-1.6
		v-2.2h0.5c0.5,0,0.8-0.1,1.1-0.4s0.3-0.6,0.3-1v-1.3h2.2L322.5,136.6L322.5,136.6z"/>
</g>
<g>
	<rect x="213.8" y="232.2" class="st1" width="27.8" height="27.8"/>
</g>
<g>
	<path class="st6" d="M219.4,213.5h-2.8v4.5h-1.5v-11.3h4.2c1.2,0,2.1,0.3,2.7,0.9s1,1.4,1,2.5s-0.3,1.9-1,2.5
		C221.4,213.3,220.5,213.5,219.4,213.5z M221.6,210.2c0-0.7-0.2-1.2-0.6-1.6s-1-0.6-1.7-0.6h-2.7v4.2h2.7c0.7,0,1.3-0.2,1.7-0.6
		C221.4,211.3,221.6,210.8,221.6,210.2z"/>
	<path class="st6" d="M229.7,215.6h1.3c-0.1,0.8-0.5,1.4-1.1,1.9c-0.6,0.5-1.3,0.7-2.2,0.7c-1.1,0-2-0.4-2.7-1.2
		c-0.7-0.8-1-1.8-1-3.1c0-1.2,0.3-2.3,1-3.1c0.7-0.8,1.6-1.2,2.7-1.2c1.1,0,1.9,0.4,2.5,1.1c0.6,0.7,0.9,1.7,0.9,2.9v0.5h-5.8
		c0,0.9,0.2,1.5,0.7,2.1c0.4,0.5,1,0.8,1.7,0.8c0.5,0,0.9-0.1,1.3-0.4C229.3,216.4,229.5,216.1,229.7,215.6z M227.6,210.9
		c-0.6,0-1.1,0.2-1.5,0.6c-0.4,0.4-0.7,1-0.8,1.7h4.3c0-0.6-0.2-1.2-0.5-1.6C228.8,211.1,228.3,210.9,227.6,210.9z"/>
	<path class="st6" d="M232.9,218.1v-8.2h1.4v1c0.3-0.3,0.6-0.6,1-0.9s0.9-0.3,1.4-0.3c0.9,0,1.6,0.3,2.1,0.8s0.8,1.3,0.8,2.2v5.4
		h-1.4v-5.1c0-0.6-0.1-1.1-0.5-1.4s-0.8-0.5-1.4-0.5c-0.5,0-0.9,0.1-1.3,0.4c-0.4,0.3-0.6,0.7-0.8,1.1v5.5L232.9,218.1L232.9,218.1z
		"/>
	<path class="st6" d="M247.3,218.1v-1c-0.2,0.3-0.5,0.6-1,0.8c-0.4,0.2-0.9,0.3-1.3,0.3c-1.2,0-2.1-0.4-2.7-1.2c-0.7-0.8-1-1.8-1-3
		c0-1.2,0.3-2.2,1-3c0.6-0.8,1.6-1.2,2.7-1.2c0.5,0,0.9,0.1,1.3,0.3s0.7,0.5,1,0.8v-4.8h1.4v12L247.3,218.1L247.3,218.1z
		 M247.3,215.6v-3.3c-0.2-0.4-0.5-0.7-0.9-1c-0.4-0.2-0.8-0.4-1.2-0.4c-0.8,0-1.4,0.3-1.8,0.8c-0.4,0.6-0.7,1.3-0.7,2.2
		s0.2,1.6,0.7,2.2c0.4,0.6,1.1,0.8,1.8,0.8c0.4,0,0.9-0.1,1.2-0.4C246.8,216.4,247.1,216.1,247.3,215.6z"/>
	<path class="st6" d="M252.5,206.8c0.2,0.2,0.3,0.4,0.3,0.6s-0.1,0.5-0.3,0.6s-0.4,0.3-0.6,0.3s-0.5-0.1-0.6-0.3
		c-0.2-0.2-0.3-0.4-0.3-0.6s0.1-0.5,0.3-0.6c0.2-0.2,0.4-0.3,0.6-0.3S252.3,206.6,252.5,206.8z M252.5,209.9v8.2h-1.4v-8.2H252.5z"
		/>
	<path class="st6" d="M255,218.1v-8.2h1.4v1c0.3-0.3,0.6-0.6,1-0.9s0.9-0.3,1.4-0.3c0.9,0,1.6,0.3,2.1,0.8c0.5,0.5,0.8,1.3,0.8,2.2
		v5.4h-1.4v-5.1c0-0.6-0.1-1.1-0.5-1.4c-0.3-0.4-0.8-0.5-1.4-0.5c-0.5,0-0.9,0.1-1.3,0.4c-0.4,0.3-0.6,0.7-0.8,1.1v5.5L255,218.1
		L255,218.1z"/>
	<path class="st6" d="M269.4,217.5v-0.6c-0.2,0.3-0.5,0.6-0.9,0.8c-0.4,0.2-0.9,0.3-1.3,0.3c-1.1,0-2-0.4-2.7-1.2
		c-0.7-0.8-1-1.8-1-2.9c0-1.2,0.3-2.1,1-2.9c0.6-0.8,1.5-1.2,2.7-1.2c0.5,0,0.9,0.1,1.3,0.3c0.4,0.2,0.7,0.5,0.9,0.8v-0.9h1.4v7.5
		c0,1.3-0.3,2.3-1,3c-0.7,0.7-1.5,1-2.6,1c-1,0-1.8-0.2-2.4-0.7c-0.6-0.5-1-1.1-1.1-2h1.4c0.2,1,0.9,1.5,2.1,1.5
		C268.6,220.2,269.4,219.3,269.4,217.5z M269.4,215.5v-3.3c-0.5-0.8-1.2-1.3-2.1-1.3c-0.8,0-1.4,0.3-1.8,0.8
		c-0.4,0.5-0.7,1.2-0.7,2.1s0.2,1.6,0.7,2.1c0.4,0.5,1,0.8,1.8,0.8C268.2,216.8,268.9,216.3,269.4,215.5z"/>
	<path class="st6" d="M278,217.2c-0.9-1.2-1.3-2.7-1.3-4.3s0.4-3.1,1.3-4.3c0.9-1.2,2.1-2,3.6-2.4v1.5c-1,0.3-1.9,0.9-2.5,1.8
		s-1,2.1-1,3.5s0.3,2.5,1,3.5c0.7,0.9,1.5,1.5,2.5,1.8v1.5C280.1,219.2,278.9,218.4,278,217.2z"/>
	<path class="st6" d="M286.7,206.7v11.3h-1.4v-9.6l-2.8,1.4v-1.5l3.4-1.7L286.7,206.7L286.7,206.7z"/>
	<path class="st6" d="M292.1,208.5c0.9,1.2,1.3,2.7,1.3,4.3s-0.4,3.1-1.3,4.3s-2.1,2-3.6,2.4v-1.5c1-0.3,1.9-0.9,2.5-1.8
		c0.7-0.9,1-2.1,1-3.5s-0.3-2.5-1-3.5c-0.7-0.9-1.5-1.5-2.5-1.8v-1.5C290,206.5,291.2,207.3,292.1,208.5z"/>
</g>
<g>
	<path class="st2" d="M260.1,243.5v9.1c0,0.8-0.2,1.3-0.6,1.8c-0.4,0.4-1,0.6-1.8,0.6c-0.3,0-0.5,0-0.6-0.1v-1.2
		c0.2,0,0.4,0.1,0.5,0.1c0.7,0,1.1-0.4,1.1-1.3v-9L260.1,243.5L260.1,243.5z M260,240.4c0.2,0.2,0.3,0.4,0.3,0.6
		c0,0.2-0.1,0.5-0.3,0.6c-0.2,0.2-0.4,0.3-0.6,0.3s-0.5-0.1-0.6-0.3c-0.2-0.2-0.3-0.4-0.3-0.6c0-0.2,0.1-0.5,0.3-0.6
		c0.2-0.2,0.4-0.3,0.6-0.3S259.8,240.2,260,240.4z"/>
	<path class="st2" d="M269,243.5v8.2h-1.4v-1c-0.2,0.3-0.6,0.6-1,0.9c-0.4,0.2-0.9,0.3-1.4,0.3c-0.9,0-1.6-0.3-2.1-0.8
		c-0.5-0.5-0.7-1.3-0.7-2.2v-5.4h1.4v5.1c0,0.6,0.1,1.1,0.4,1.4c0.3,0.3,0.7,0.5,1.3,0.5c0.5,0,0.9-0.1,1.3-0.4
		c0.4-0.3,0.6-0.6,0.8-1.1v-5.5L269,243.5L269,243.5z"/>
	<path class="st2" d="M272.9,239.7v12h-1.4v-12H272.9z"/>
	<path class="st2" d="M276.6,240.4c0.2,0.2,0.3,0.4,0.3,0.6c0,0.2-0.1,0.5-0.3,0.6c-0.2,0.2-0.4,0.3-0.6,0.3s-0.5-0.1-0.6-0.3
		c-0.2-0.2-0.3-0.4-0.3-0.6c0-0.2,0.1-0.5,0.3-0.6c0.2-0.2,0.4-0.3,0.6-0.3S276.5,240.2,276.6,240.4z M276.7,243.5v8.2h-1.4v-8.2
		H276.7z"/>
	<path class="st2" d="M284.3,249.2h1.3c-0.1,0.8-0.5,1.4-1.1,1.9c-0.6,0.5-1.3,0.7-2.2,0.7c-1.1,0-2-0.4-2.7-1.2
		c-0.7-0.8-1-1.8-1-3.1c0-1.2,0.3-2.3,1-3.1c0.7-0.8,1.6-1.2,2.7-1.2c1.1,0,1.9,0.4,2.5,1.1c0.6,0.7,0.9,1.7,0.9,2.9v0.5H280
		c0,0.9,0.2,1.5,0.7,2.1c0.4,0.5,1,0.8,1.7,0.8c0.5,0,0.9-0.1,1.3-0.4C284,250,284.2,249.7,284.3,249.2z M282.3,244.5
		c-0.6,0-1.1,0.2-1.5,0.6c-0.4,0.4-0.7,1-0.8,1.7h4.3c0-0.6-0.2-1.2-0.5-1.6C283.5,244.7,283,244.5,282.3,244.5z"/>
	<path class="st2" d="M287.2,251.5c-0.2-0.2-0.3-0.4-0.3-0.7c0-0.3,0.1-0.5,0.3-0.7c0.2-0.2,0.4-0.3,0.7-0.3c0.3,0,0.5,0.1,0.7,0.3
		c0.2,0.2,0.3,0.4,0.3,0.7s-0.1,0.5-0.3,0.7c-0.2,0.2-0.4,0.3-0.7,0.3C287.7,251.7,287.4,251.6,287.2,251.5z"/>
	<path class="st2" d="M294.4,239.7v1.3c-0.2-0.1-0.5-0.2-0.9-0.2c-0.4,0-0.7,0.1-1,0.4c-0.2,0.3-0.4,0.6-0.4,1.1v1.3h1.8v1.2h-1.8v7
		h-1.4v-7h-1.4v-1.2h1.4v-1.4c0-0.8,0.2-1.4,0.7-1.9s1.1-0.7,1.8-0.7C293.8,239.5,294.1,239.6,294.4,239.7z"/>
	<path class="st2" d="M299.8,243.4v1.4c-0.2-0.1-0.5-0.2-0.9-0.2c-0.4,0-0.8,0.1-1.2,0.4c-0.3,0.3-0.6,0.6-0.7,1.1v5.5h-1.4v-8.2
		h1.4v1.1c0.2-0.4,0.5-0.6,0.8-0.9c0.4-0.2,0.8-0.4,1.2-0.4C299.4,243.3,299.7,243.4,299.8,243.4z"/>
	<path class="st2" d="M307.3,251.7h-1.3V251c-0.2,0.2-0.5,0.4-0.9,0.5c-0.4,0.2-0.8,0.2-1.3,0.2c-0.9,0-1.6-0.2-2.2-0.7
		c-0.6-0.5-0.9-1.1-0.9-1.9c0-0.7,0.3-1.4,0.9-1.8c0.6-0.5,1.3-0.7,2.2-0.7c0.4,0,0.8,0.1,1.2,0.2c0.4,0.1,0.7,0.3,0.9,0.5v-1
		c0-0.5-0.2-0.9-0.5-1.3c-0.3-0.3-0.8-0.5-1.3-0.5c-0.9,0-1.4,0.4-1.7,1.1h-1.4c0.1-0.7,0.5-1.2,1-1.7c0.6-0.4,1.2-0.6,2-0.6
		c1,0,1.7,0.3,2.3,0.8c0.6,0.5,0.8,1.2,0.8,2.1L307.3,251.7L307.3,251.7z M305.9,249.6v-0.8c-0.1-0.3-0.4-0.5-0.7-0.7
		c-0.4-0.2-0.8-0.3-1.2-0.3c-0.5,0-1,0.1-1.4,0.4c-0.4,0.2-0.6,0.6-0.6,1.1c0,0.5,0.2,0.8,0.6,1.1c0.4,0.3,0.8,0.4,1.4,0.4
		c0.4,0,0.8-0.1,1.2-0.3S305.8,249.9,305.9,249.6z"/>
	<path class="st2" d="M309.6,251.7v-8.2h1.4v1c0.3-0.3,0.6-0.6,1-0.9c0.4-0.2,0.9-0.3,1.4-0.3c0.9,0,1.6,0.3,2.1,0.8
		s0.8,1.3,0.8,2.2v5.4h-1.4v-5.1c0-0.6-0.1-1.1-0.5-1.4c-0.3-0.4-0.8-0.5-1.4-0.5c-0.5,0-0.9,0.1-1.3,0.4c-0.4,0.3-0.6,0.7-0.8,1.1
		v5.5L309.6,251.7L309.6,251.7z"/>
	<path class="st2" d="M324,251.7l-3.1-3.8l-0.9,0.8v2.9h-1.4v-12h1.4v7.4l3.7-3.6h1.8l-3.7,3.5l3.8,4.6L324,251.7L324,251.7z"/>
	<path class="st2" d="M328.5,239.7v12h-1.4v-12H328.5z"/>
	<path class="st2" d="M332.3,240.4c0.2,0.2,0.3,0.4,0.3,0.6c0,0.2-0.1,0.5-0.3,0.6c-0.2,0.2-0.4,0.3-0.6,0.3s-0.5-0.1-0.6-0.3
		c-0.2-0.2-0.3-0.4-0.3-0.6c0-0.2,0.1-0.5,0.3-0.6c0.2-0.2,0.4-0.3,0.6-0.3S332.2,240.2,332.3,240.4z M332.4,243.5v8.2H331v-8.2
		H332.4z"/>
	<path class="st2" d="M334.9,251.7v-8.2h1.4v1c0.3-0.3,0.6-0.6,1-0.9c0.4-0.2,0.9-0.3,1.4-0.3c0.9,0,1.6,0.3,2.1,0.8
		s0.8,1.3,0.8,2.2v5.4h-1.4v-5.1c0-0.6-0.1-1.1-0.5-1.4c-0.3-0.4-0.8-0.5-1.4-0.5c-0.5,0-0.9,0.1-1.3,0.4c-0.4,0.3-0.6,0.7-0.8,1.1
		v5.5L334.9,251.7L334.9,251.7z"/>
	<path class="st2" d="M352.9,244.6l-0.8,4.5c-0.1,0.7,0.1,1,0.7,1c0.7,0,1.2-0.3,1.7-0.9s0.6-1.5,0.6-2.5c0-1.3-0.5-2.4-1.4-3.2
		c-0.9-0.8-2.1-1.2-3.6-1.2c-1.7,0-3.1,0.6-4.2,1.7s-1.6,2.5-1.6,4.3c0,0.9,0.2,1.8,0.5,2.5s0.8,1.3,1.4,1.6
		c0.6,0.4,1.2,0.7,1.9,0.9c0.7,0.2,1.4,0.3,2.1,0.3c1.4,0,2.8-0.3,4-0.8v1c-1.2,0.6-2.5,0.8-4,0.8c-0.7,0-1.4-0.1-2.1-0.2
		c-0.7-0.2-1.3-0.4-1.9-0.7c-0.6-0.3-1.1-0.7-1.6-1.2c-0.4-0.5-0.8-1.1-1-1.8s-0.4-1.5-0.4-2.3c0-2,0.6-3.6,2-5c1.3-1.3,3-2,5-2
		c1.8,0,3.3,0.5,4.4,1.5c1.1,1,1.7,2.3,1.7,3.9c0,1.4-0.4,2.5-1.1,3.3c-0.7,0.8-1.5,1.2-2.5,1.2c-0.4,0-0.8-0.1-1.2-0.3
		c-0.3-0.2-0.6-0.5-0.7-0.8c-0.2,0.3-0.5,0.6-0.8,0.8c-0.4,0.2-0.7,0.3-1.1,0.3c-0.7,0-1.3-0.3-1.8-0.8c-0.4-0.5-0.7-1.2-0.7-2
		c0-1,0.3-2,0.9-2.7c0.6-0.8,1.4-1.2,2.4-1.2c0.8,0,1.3,0.3,1.7,0.8l0.1-0.7L352.9,244.6L352.9,244.6z M350.9,248.9l0.4-2.3
		c-0.1-0.3-0.3-0.5-0.5-0.7c-0.2-0.2-0.5-0.3-0.8-0.3c-0.6,0-1.2,0.3-1.6,0.8c-0.4,0.5-0.6,1.2-0.6,1.9c0,0.5,0.1,0.9,0.4,1.2
		c0.3,0.3,0.6,0.5,1,0.5C349.9,249.9,350.5,249.6,350.9,248.9z"/>
	<path class="st2" d="M358.1,251.7v-12h1.4v4.8c0.3-0.3,0.6-0.6,1-0.9c0.4-0.2,0.9-0.3,1.4-0.3c0.9,0,1.6,0.3,2.1,0.8
		s0.8,1.3,0.8,2.2v5.4h-1.4v-5.1c0-0.6-0.1-1.1-0.5-1.4c-0.3-0.4-0.8-0.5-1.4-0.5c-0.5,0-0.9,0.1-1.3,0.4c-0.4,0.3-0.6,0.7-0.8,1.1
		v5.5L358.1,251.7L358.1,251.7z"/>
	<path class="st2" d="M373,244.5c0.7,0.8,1,1.8,1,3.1s-0.3,2.3-1,3.1c-0.7,0.8-1.6,1.2-2.7,1.2s-2-0.4-2.7-1.2c-0.7-0.8-1-1.8-1-3.1
		s0.3-2.3,1-3.1c0.7-0.8,1.6-1.2,2.7-1.2S372.3,243.7,373,244.5z M372,249.8c0.4-0.6,0.6-1.3,0.6-2.2s-0.2-1.6-0.6-2.2
		s-1-0.8-1.7-0.8s-1.3,0.3-1.7,0.8c-0.4,0.6-0.6,1.3-0.6,2.2s0.2,1.6,0.6,2.2s1,0.8,1.7,0.8S371.6,250.3,372,249.8z"/>
	<path class="st2" d="M381.7,244.6c0.6-0.9,1.4-1.3,2.5-1.3c0.8,0,1.5,0.3,1.9,0.8c0.4,0.5,0.7,1.2,0.7,2.1v5.4h-1.4v-5.2
		c0-0.6-0.1-1.1-0.4-1.4c-0.3-0.3-0.6-0.5-1.2-0.5c-0.4,0-0.8,0.1-1.1,0.4c-0.3,0.3-0.6,0.6-0.7,1.1v5.6h-1.4v-5.2
		c0-0.6-0.1-1.1-0.4-1.4c-0.3-0.3-0.6-0.5-1.2-0.5c-0.4,0-0.8,0.1-1.1,0.4c-0.3,0.3-0.6,0.6-0.7,1.1v5.6h-1.4v-8.2h1.4v1
		c0.5-0.7,1.2-1.1,2.2-1.1C380.5,243.3,381.3,243.7,381.7,244.6z"/>
	<path class="st2" d="M394.3,249.2h1.3c-0.1,0.8-0.5,1.4-1.1,1.9c-0.6,0.5-1.3,0.7-2.2,0.7c-1.1,0-2-0.4-2.7-1.2
		c-0.7-0.8-1-1.8-1-3.1c0-1.2,0.3-2.3,1-3.1c0.7-0.8,1.6-1.2,2.7-1.2c1.1,0,1.9,0.4,2.5,1.1c0.6,0.7,0.9,1.7,0.9,2.9v0.5h-5.8
		c0,0.9,0.2,1.5,0.7,2.1c0.4,0.5,1,0.8,1.7,0.8c0.5,0,0.9-0.1,1.3-0.4S394.2,249.7,394.3,249.2z M392.3,244.5
		c-0.6,0-1.1,0.2-1.5,0.6c-0.4,0.4-0.7,1-0.8,1.7h4.3c0-0.6-0.2-1.2-0.5-1.6C393.4,244.7,392.9,244.5,392.3,244.5z"/>
	<path class="st2" d="M397.2,251.5c-0.2-0.2-0.3-0.4-0.3-0.7c0-0.3,0.1-0.5,0.3-0.7c0.2-0.2,0.4-0.3,0.7-0.3c0.3,0,0.5,0.1,0.7,0.3
		c0.2,0.2,0.3,0.4,0.3,0.7s-0.1,0.5-0.3,0.7c-0.2,0.2-0.4,0.3-0.7,0.3C397.6,251.7,397.4,251.6,397.2,251.5z"/>
	<path class="st2" d="M400.9,250.6c-0.7-0.8-1-1.8-1-3.1c0-1.3,0.3-2.3,1-3.1c0.7-0.8,1.6-1.2,2.7-1.2c0.9,0,1.6,0.2,2.2,0.7
		s0.9,1.1,1.1,1.9h-1.4c-0.1-0.4-0.3-0.8-0.6-1c-0.3-0.3-0.7-0.4-1.2-0.4c-0.7,0-1.3,0.3-1.7,0.8c-0.4,0.6-0.6,1.3-0.6,2.2
		s0.2,1.6,0.6,2.2c0.4,0.6,1,0.8,1.7,0.8c0.5,0,0.9-0.1,1.2-0.4c0.3-0.3,0.5-0.6,0.6-1h1.4c-0.1,0.8-0.5,1.4-1.1,1.9
		c-0.6,0.5-1.3,0.7-2.2,0.7C402.5,251.8,401.6,251.4,400.9,250.6z"/>
	<path class="st2" d="M414.5,244.5c0.7,0.8,1,1.8,1,3.1s-0.3,2.3-1,3.1c-0.7,0.8-1.6,1.2-2.7,1.2c-1.1,0-2-0.4-2.7-1.2
		c-0.7-0.8-1-1.8-1-3.1s0.3-2.3,1-3.1s1.6-1.2,2.7-1.2C412.9,243.3,413.8,243.7,414.5,244.5z M413.5,249.8c0.4-0.6,0.6-1.3,0.6-2.2
		s-0.2-1.6-0.6-2.2c-0.4-0.6-1-0.8-1.7-0.8s-1.3,0.3-1.7,0.8c-0.4,0.6-0.6,1.3-0.6,2.2s0.2,1.6,0.6,2.2s1,0.8,1.7,0.8
		S413.1,250.3,413.5,249.8z"/>
	<path class="st2" d="M423.2,244.6c0.6-0.9,1.4-1.3,2.5-1.3c0.8,0,1.5,0.3,1.9,0.8c0.4,0.5,0.7,1.2,0.7,2.1v5.4h-1.4v-5.2
		c0-0.6-0.1-1.1-0.4-1.4c-0.3-0.3-0.6-0.5-1.2-0.5c-0.4,0-0.8,0.1-1.1,0.4c-0.3,0.3-0.6,0.6-0.7,1.1v5.6h-1.4v-5.2
		c0-0.6-0.1-1.1-0.4-1.4c-0.3-0.3-0.6-0.5-1.2-0.5c-0.4,0-0.8,0.1-1.1,0.4c-0.3,0.3-0.6,0.6-0.7,1.1v5.6h-1.4v-8.2h1.4v1
		c0.5-0.7,1.2-1.1,2.2-1.1C422.1,243.3,422.8,243.7,423.2,244.6z"/>
</g>
<g>
	<path class="st7" d="M535.7,235.8h0.7l1.5,5.8l1.5-5.8h0.9l-1.9,7.3h-0.9l-1.5-5.7l-1.6,5.7h-0.8l-1.9-7.3h0.9l1.5,5.8L535.7,235.8
		z"/>
	<path class="st7" d="M544.9,243.1H544v-0.4c-0.1,0.1-0.3,0.2-0.6,0.3c-0.3,0.1-0.5,0.2-0.8,0.2c-0.6,0-1-0.2-1.4-0.5
		c-0.4-0.3-0.6-0.7-0.6-1.2c0-0.5,0.2-0.9,0.6-1.2c0.4-0.3,0.9-0.5,1.4-0.5c0.3,0,0.5,0,0.8,0.1s0.4,0.2,0.6,0.3v-0.7
		c0-0.3-0.1-0.6-0.3-0.8c-0.2-0.2-0.5-0.3-0.9-0.3c-0.6,0-0.9,0.2-1.1,0.7h-0.9c0.1-0.4,0.3-0.8,0.7-1.1c0.4-0.3,0.8-0.4,1.3-0.4
		c0.6,0,1.1,0.2,1.5,0.5c0.4,0.3,0.5,0.8,0.5,1.4L544.9,243.1L544.9,243.1L544.9,243.1z M544,241.8v-0.5c-0.1-0.2-0.2-0.3-0.5-0.5
		c-0.2-0.1-0.5-0.2-0.8-0.2c-0.3,0-0.6,0.1-0.9,0.2s-0.4,0.4-0.4,0.7c0,0.3,0.1,0.5,0.4,0.7s0.5,0.2,0.9,0.2c0.3,0,0.5-0.1,0.8-0.2
		C543.8,242.1,543.9,242,544,241.8z"/>
	<path class="st7" d="M547.2,235.8c0.1,0.1,0.2,0.2,0.2,0.4c0,0.2-0.1,0.3-0.2,0.4c-0.1,0.1-0.2,0.2-0.4,0.2s-0.3-0.1-0.4-0.2
		c-0.1-0.1-0.2-0.2-0.2-0.4s0.1-0.3,0.2-0.4c0.1-0.1,0.2-0.2,0.4-0.2S547.1,235.7,547.2,235.8z M547.3,237.8v5.3h-0.9v-5.3H547.3z"
		/>
	<path class="st7" d="M549.1,241.8v-3.2h-0.9v-0.8h0.9v-1.4h0.9v1.4h1.3v0.8H550v3.1c0,0.5,0.2,0.7,0.7,0.7c0.2,0,0.5-0.1,0.7-0.2
		v0.8c-0.2,0.1-0.5,0.2-0.8,0.2c-0.4,0-0.8-0.1-1.1-0.4S549.1,242.2,549.1,241.8z"/>
	<path class="st7" d="M553.5,235.8c0.1,0.1,0.2,0.2,0.2,0.4c0,0.2-0.1,0.3-0.2,0.4c-0.1,0.1-0.2,0.2-0.4,0.2s-0.3-0.1-0.4-0.2
		c-0.1-0.1-0.2-0.2-0.2-0.4s0.1-0.3,0.2-0.4c0.1-0.1,0.2-0.2,0.4-0.2C553.2,235.7,553.3,235.7,553.5,235.8z M553.5,237.8v5.3h-0.9
		v-5.3H553.5z"/>
	<path class="st7" d="M555.1,243.1v-5.3h0.9v0.7c0.2-0.2,0.4-0.4,0.7-0.6s0.6-0.2,0.9-0.2c0.6,0,1,0.2,1.4,0.5
		c0.3,0.3,0.5,0.8,0.5,1.4v3.4h-0.9v-3.3c0-0.4-0.1-0.7-0.3-0.9c-0.2-0.2-0.5-0.3-0.9-0.3c-0.3,0-0.6,0.1-0.8,0.3s-0.4,0.4-0.5,0.7
		v3.6L555.1,243.1L555.1,243.1z"/>
	<path class="st7" d="M564.3,242.7v-0.4c-0.1,0.2-0.3,0.4-0.6,0.5c-0.3,0.1-0.6,0.2-0.9,0.2c-0.7,0-1.3-0.3-1.7-0.8
		c-0.4-0.5-0.6-1.1-0.6-1.9c0-0.7,0.2-1.4,0.6-1.9c0.4-0.5,1-0.8,1.7-0.8c0.3,0,0.6,0.1,0.9,0.2s0.5,0.3,0.6,0.5v-0.6h0.9v4.8
		c0,0.8-0.2,1.5-0.6,1.9c-0.4,0.4-1,0.6-1.7,0.6c-0.6,0-1.1-0.2-1.5-0.5c-0.4-0.3-0.6-0.7-0.7-1.3h0.9c0.1,0.7,0.6,1,1.4,1
		C563.8,244.5,564.3,243.9,564.3,242.7z M564.3,241.4v-2.1c-0.3-0.5-0.7-0.8-1.3-0.8c-0.5,0-0.9,0.2-1.2,0.5
		c-0.3,0.3-0.4,0.8-0.4,1.4c0,0.6,0.1,1,0.4,1.3c0.3,0.3,0.7,0.5,1.2,0.5C563.6,242.2,564,242,564.3,241.4z"/>
	<path class="st7" d="M570.3,242.5v2.6h-0.9v-7.3h0.9v0.6c0.2-0.2,0.4-0.4,0.6-0.5c0.3-0.1,0.6-0.2,0.9-0.2c0.7,0,1.3,0.3,1.7,0.8
		c0.4,0.5,0.6,1.2,0.6,1.9c0,0.8-0.2,1.4-0.6,1.9c-0.4,0.5-1,0.8-1.7,0.8c-0.3,0-0.6-0.1-0.9-0.2S570.5,242.7,570.3,242.5z
		 M570.3,239.4v2.1c0.1,0.3,0.3,0.5,0.6,0.6c0.2,0.2,0.5,0.2,0.8,0.2c0.5,0,0.9-0.2,1.2-0.5c0.3-0.4,0.4-0.8,0.4-1.4
		c0-0.6-0.1-1-0.4-1.4c-0.3-0.4-0.7-0.5-1.2-0.5c-0.3,0-0.5,0.1-0.8,0.2C570.6,238.9,570.4,239.1,570.3,239.4z"/>
	<path class="st7" d="M578.7,241.5h0.8c-0.1,0.5-0.3,0.9-0.7,1.2s-0.8,0.5-1.4,0.5c-0.7,0-1.3-0.2-1.7-0.8c-0.4-0.5-0.7-1.2-0.7-2
		c0-0.8,0.2-1.5,0.7-2c0.4-0.5,1-0.8,1.7-0.8c0.7,0,1.2,0.2,1.6,0.7c0.4,0.5,0.6,1.1,0.6,1.9v0.3h-3.7c0,0.6,0.2,1,0.4,1.3
		c0.3,0.3,0.6,0.5,1.1,0.5c0.3,0,0.6-0.1,0.8-0.2C578.5,242,578.6,241.8,578.7,241.5z M577.4,238.5c-0.4,0-0.7,0.1-1,0.4
		s-0.4,0.6-0.5,1.1h2.8c0-0.4-0.1-0.8-0.3-1S577.8,238.5,577.4,238.5z"/>
	<path class="st7" d="M583.5,237.8v0.9c-0.1-0.1-0.3-0.1-0.6-0.1c-0.3,0-0.5,0.1-0.8,0.3c-0.2,0.2-0.4,0.4-0.5,0.7v3.5h-0.9v-5.3
		h0.9v0.7c0.1-0.2,0.3-0.4,0.5-0.6s0.5-0.2,0.8-0.2C583.2,237.7,583.4,237.7,583.5,237.8z"/>
	<path class="st7" d="M585.4,235.8c0.1,0.1,0.2,0.2,0.2,0.4c0,0.2-0.1,0.3-0.2,0.4c-0.1,0.1-0.3,0.2-0.4,0.2c-0.2,0-0.3-0.1-0.4-0.2
		c-0.1-0.1-0.2-0.2-0.2-0.4s0.1-0.3,0.2-0.4c0.1-0.1,0.2-0.2,0.4-0.2C585.2,235.7,585.3,235.7,585.4,235.8z M585.5,237.8v5.3h-0.9
		v-5.3H585.5z"/>
	<path class="st7" d="M590.8,238.5c0.4,0.5,0.7,1.2,0.7,2c0,0.8-0.2,1.5-0.7,2c-0.4,0.5-1,0.8-1.7,0.8c-0.7,0-1.3-0.3-1.7-0.8
		c-0.4-0.5-0.7-1.2-0.7-2c0-0.8,0.2-1.5,0.7-2c0.4-0.5,1-0.8,1.7-0.8C589.8,237.7,590.4,238,590.8,238.5z M590.2,241.9
		c0.3-0.4,0.4-0.8,0.4-1.4s-0.1-1.1-0.4-1.4c-0.3-0.4-0.6-0.5-1.1-0.5c-0.5,0-0.8,0.2-1.1,0.5c-0.3,0.4-0.4,0.8-0.4,1.4
		s0.1,1.1,0.4,1.4c0.3,0.4,0.6,0.5,1.1,0.5C589.6,242.4,589.9,242.2,590.2,241.9z"/>
	<path class="st7" d="M596.2,243.1v-0.6c-0.1,0.2-0.3,0.4-0.6,0.5c-0.3,0.1-0.6,0.2-0.9,0.2c-0.7,0-1.3-0.3-1.7-0.8s-0.6-1.2-0.6-2
		c0-0.8,0.2-1.4,0.6-1.9c0.4-0.5,1-0.8,1.7-0.8c0.3,0,0.6,0.1,0.9,0.2c0.3,0.1,0.5,0.3,0.6,0.5v-3.1h0.9v7.7L596.2,243.1
		L596.2,243.1z M596.2,241.5v-2.1c-0.1-0.3-0.3-0.5-0.6-0.6c-0.2-0.2-0.5-0.2-0.8-0.2c-0.5,0-0.9,0.2-1.2,0.5
		c-0.3,0.4-0.4,0.8-0.4,1.4c0,0.6,0.1,1,0.4,1.4c0.3,0.4,0.7,0.5,1.2,0.5c0.3,0,0.5-0.1,0.8-0.2C595.9,242,596.1,241.8,596.2,241.5z
		"/>
	<path class="st2" d="M536.4,249.7l-2.6,6.5h-0.9l2.6-6.4h-3.7V249h4.7L536.4,249.7L536.4,249.7z"/>
	<path class="st2" d="M543.6,256.2v-0.6c-0.1,0.2-0.3,0.4-0.6,0.5c-0.3,0.1-0.6,0.2-0.9,0.2c-0.7,0-1.3-0.3-1.7-0.8
		c-0.4-0.5-0.6-1.2-0.6-2c0-0.8,0.2-1.4,0.6-1.9s1-0.8,1.7-0.8c0.3,0,0.6,0.1,0.9,0.2c0.3,0.1,0.5,0.3,0.6,0.5v-3.1h0.9v7.7
		L543.6,256.2L543.6,256.2z M543.6,254.7v-2.1c-0.1-0.3-0.3-0.5-0.6-0.6c-0.2-0.2-0.5-0.2-0.8-0.2c-0.5,0-0.9,0.2-1.2,0.5
		c-0.3,0.4-0.4,0.8-0.4,1.4s0.1,1,0.4,1.4c0.3,0.4,0.7,0.5,1.2,0.5c0.3,0,0.5-0.1,0.8-0.2C543.3,255.2,543.5,254.9,543.6,254.7z"/>
	<path class="st2" d="M549.9,256.2h-0.9v-0.4c-0.1,0.1-0.3,0.2-0.6,0.3c-0.3,0.1-0.5,0.2-0.8,0.2c-0.6,0-1-0.2-1.4-0.5
		c-0.4-0.3-0.6-0.7-0.6-1.2c0-0.5,0.2-0.9,0.6-1.2s0.9-0.5,1.4-0.5c0.3,0,0.5,0,0.8,0.1c0.3,0.1,0.4,0.2,0.6,0.3v-0.7
		c0-0.3-0.1-0.6-0.3-0.8c-0.2-0.2-0.5-0.3-0.9-0.3c-0.6,0-0.9,0.2-1.1,0.7h-0.9c0.1-0.4,0.3-0.8,0.7-1.1c0.4-0.3,0.8-0.4,1.3-0.4
		c0.6,0,1.1,0.2,1.5,0.5s0.5,0.8,0.5,1.4L549.9,256.2L549.9,256.2L549.9,256.2z M549.1,254.9v-0.5c-0.1-0.2-0.2-0.3-0.5-0.5
		c-0.2-0.1-0.5-0.2-0.8-0.2c-0.3,0-0.6,0.1-0.9,0.2c-0.2,0.2-0.4,0.4-0.4,0.7c0,0.3,0.1,0.5,0.4,0.7c0.2,0.2,0.5,0.2,0.9,0.2
		c0.3,0,0.5-0.1,0.8-0.2C548.8,255.3,549,255.1,549.1,254.9z"/>
	<path class="st2" d="M552.9,258.2H552l0.8-2l-2-5.3h1l1.6,4.1l1.5-4.1h0.9L552.9,258.2z"/>
	<path class="st2" d="M556.2,254.8h0.9c0.2,0.5,0.6,0.8,1.2,0.8c0.3,0,0.6-0.1,0.8-0.2s0.3-0.3,0.3-0.6c0-0.4-0.3-0.6-0.8-0.7
		l-1-0.3c-0.8-0.2-1.3-0.7-1.3-1.4c0-0.5,0.2-0.8,0.5-1.1s0.8-0.4,1.3-0.4c0.6,0,1,0.1,1.4,0.4c0.3,0.3,0.6,0.6,0.7,1.1h-0.9
		c-0.2-0.5-0.5-0.7-1.2-0.7c-0.3,0-0.5,0.1-0.7,0.2c-0.2,0.1-0.3,0.3-0.3,0.6c0,0.2,0.1,0.3,0.2,0.4c0.1,0.1,0.3,0.2,0.6,0.3l1,0.2
		c0.9,0.2,1.3,0.7,1.3,1.5c0,0.5-0.2,0.9-0.5,1.2c-0.4,0.3-0.8,0.4-1.4,0.4s-1.1-0.1-1.5-0.4C556.5,255.7,556.3,255.3,556.2,254.8z"
		/>
</g>
<g>
	<path class="st2" d="M210.7,162.3v7.3h-0.9v-7.3H210.7z"/>
	<path class="st2" d="M212.4,169.6v-5.3h0.9v0.7c0.2-0.2,0.4-0.4,0.7-0.6c0.3-0.1,0.6-0.2,0.9-0.2c0.6,0,1,0.2,1.4,0.5
		c0.3,0.3,0.5,0.8,0.5,1.4v3.4h-0.9v-3.3c0-0.4-0.1-0.7-0.3-0.9s-0.5-0.3-0.9-0.3c-0.3,0-0.6,0.1-0.8,0.3s-0.4,0.4-0.5,0.7v3.6
		L212.4,169.6L212.4,169.6z"/>
	<path class="st2" d="M221.1,168.9c-0.4-0.5-0.7-1.2-0.7-2c0-0.8,0.2-1.5,0.7-2c0.4-0.5,1-0.8,1.7-0.8c0.6,0,1,0.2,1.4,0.5
		c0.4,0.3,0.6,0.7,0.7,1.2H224c-0.1-0.3-0.2-0.5-0.4-0.7s-0.5-0.2-0.8-0.2c-0.4,0-0.8,0.2-1.1,0.5c-0.3,0.4-0.4,0.8-0.4,1.4
		s0.1,1,0.4,1.4c0.3,0.4,0.6,0.5,1.1,0.5c0.3,0,0.6-0.1,0.8-0.2s0.3-0.4,0.4-0.7h0.9c-0.1,0.5-0.3,0.9-0.7,1.2
		c-0.4,0.3-0.8,0.5-1.4,0.5C222.1,169.7,221.5,169.4,221.1,168.9z"/>
	<path class="st2" d="M229.9,169.6H229v-0.4c-0.1,0.1-0.3,0.2-0.6,0.3c-0.3,0.1-0.5,0.2-0.8,0.2c-0.6,0-1-0.2-1.4-0.5
		c-0.4-0.3-0.6-0.7-0.6-1.2c0-0.5,0.2-0.9,0.6-1.2c0.4-0.3,0.9-0.5,1.4-0.5c0.3,0,0.5,0,0.8,0.1c0.3,0.1,0.4,0.2,0.6,0.3v-0.7
		c0-0.3-0.1-0.6-0.3-0.8c-0.2-0.2-0.5-0.3-0.9-0.3c-0.6,0-0.9,0.2-1.1,0.7h-0.9c0.1-0.4,0.3-0.8,0.7-1.1c0.4-0.3,0.8-0.4,1.3-0.4
		c0.6,0,1.1,0.2,1.5,0.5c0.4,0.3,0.5,0.8,0.5,1.4L229.9,169.6L229.9,169.6z M229,168.3v-0.5c-0.1-0.2-0.2-0.3-0.5-0.5
		c-0.2-0.1-0.5-0.2-0.8-0.2c-0.3,0-0.6,0.1-0.9,0.2c-0.2,0.2-0.4,0.4-0.4,0.7c0,0.3,0.1,0.5,0.4,0.7c0.2,0.2,0.5,0.2,0.9,0.2
		c0.3,0,0.5-0.1,0.8-0.2C228.8,168.6,228.9,168.5,229,168.3z"/>
	<path class="st2" d="M231,168.1h0.9c0.2,0.5,0.6,0.8,1.2,0.8c0.3,0,0.6-0.1,0.8-0.2s0.3-0.3,0.3-0.6c0-0.4-0.3-0.6-0.8-0.7l-1-0.3
		c-0.8-0.2-1.3-0.7-1.3-1.4c0-0.5,0.2-0.8,0.5-1.1c0.4-0.3,0.8-0.4,1.4-0.4c0.6,0,1,0.1,1.4,0.4c0.3,0.3,0.6,0.6,0.7,1.1h-0.9
		c-0.2-0.5-0.5-0.7-1.2-0.7c-0.3,0-0.5,0.1-0.7,0.2s-0.3,0.3-0.3,0.6c0,0.2,0.1,0.3,0.2,0.4c0.1,0.1,0.3,0.2,0.6,0.3l1,0.2
		c0.9,0.2,1.3,0.7,1.3,1.5c0,0.5-0.2,0.9-0.5,1.2c-0.4,0.3-0.8,0.4-1.4,0.4s-1.1-0.1-1.4-0.4C231.3,169,231,168.6,231,168.1z"/>
	<path class="st2" d="M239.6,168h0.8c-0.1,0.5-0.3,0.9-0.7,1.2c-0.4,0.3-0.8,0.5-1.4,0.5c-0.7,0-1.3-0.2-1.7-0.8
		c-0.4-0.5-0.7-1.2-0.7-2c0-0.8,0.2-1.5,0.7-2c0.4-0.5,1-0.8,1.7-0.8c0.7,0,1.2,0.2,1.6,0.7c0.4,0.5,0.6,1.1,0.6,1.9v0.3h-3.7
		c0,0.6,0.2,1,0.4,1.3s0.6,0.5,1.1,0.5c0.3,0,0.6-0.1,0.8-0.2C239.4,168.5,239.5,168.3,239.6,168z M238.3,165c-0.4,0-0.7,0.1-1,0.4
		c-0.3,0.3-0.4,0.6-0.5,1.1h2.8c0-0.4-0.1-0.8-0.3-1C239.1,165.1,238.7,165,238.3,165z"/>
	<path class="st2" d="M243.9,168.1h0.9c0.2,0.5,0.6,0.8,1.2,0.8c0.3,0,0.6-0.1,0.8-0.2c0.2-0.1,0.3-0.3,0.3-0.6
		c0-0.4-0.3-0.6-0.8-0.7l-1-0.3c-0.8-0.2-1.3-0.7-1.3-1.4c0-0.5,0.2-0.8,0.5-1.1c0.4-0.3,0.8-0.4,1.4-0.4c0.6,0,1,0.1,1.4,0.4
		c0.3,0.3,0.6,0.6,0.7,1.1h-0.9c-0.2-0.5-0.5-0.7-1.2-0.7c-0.3,0-0.5,0.1-0.7,0.2s-0.3,0.3-0.3,0.6c0,0.2,0.1,0.3,0.2,0.4
		c0.1,0.1,0.3,0.2,0.6,0.3l1,0.2c0.9,0.2,1.3,0.7,1.3,1.5c0,0.5-0.2,0.9-0.5,1.2c-0.4,0.3-0.8,0.4-1.4,0.4c-0.6,0-1.1-0.1-1.4-0.4
		C244.2,169,244,168.6,243.9,168.1z"/>
	<path class="st2" d="M253,165c0.4,0.5,0.7,1.2,0.7,2c0,0.8-0.2,1.5-0.7,2c-0.4,0.5-1,0.8-1.7,0.8c-0.7,0-1.3-0.3-1.7-0.8
		c-0.4-0.5-0.7-1.2-0.7-2c0-0.8,0.2-1.5,0.7-2s1-0.8,1.7-0.8C252,164.2,252.6,164.5,253,165z M252.4,168.4c0.3-0.4,0.4-0.8,0.4-1.4
		s-0.1-1.1-0.4-1.4c-0.3-0.4-0.6-0.5-1.1-0.5s-0.8,0.2-1.1,0.5c-0.3,0.4-0.4,0.8-0.4,1.4s0.1,1.1,0.4,1.4c0.3,0.4,0.6,0.5,1.1,0.5
		S252.1,168.7,252.4,168.4z"/>
	<path class="st2" d="M258.6,165.1c0.4-0.6,0.9-0.8,1.6-0.8c0.5,0,0.9,0.2,1.2,0.5s0.4,0.8,0.4,1.4v3.5H261v-3.3
		c0-0.4-0.1-0.7-0.2-0.9c-0.2-0.2-0.4-0.3-0.7-0.3c-0.3,0-0.5,0.1-0.7,0.3c-0.2,0.2-0.4,0.4-0.4,0.7v3.6h-0.9v-3.3
		c0-0.4-0.1-0.7-0.2-0.9c-0.2-0.2-0.4-0.3-0.7-0.3c-0.3,0-0.5,0.1-0.7,0.3c-0.2,0.2-0.4,0.4-0.4,0.7v3.6h-0.9v-5.3h0.9v0.6
		c0.3-0.5,0.8-0.7,1.4-0.7C257.9,164.2,258.3,164.5,258.6,165.1z"/>
	<path class="st2" d="M266.7,168h0.8c-0.1,0.5-0.3,0.9-0.7,1.2s-0.8,0.5-1.4,0.5c-0.7,0-1.3-0.2-1.7-0.8c-0.4-0.5-0.7-1.2-0.7-2
		c0-0.8,0.2-1.5,0.7-2c0.4-0.5,1-0.8,1.7-0.8c0.7,0,1.2,0.2,1.6,0.7c0.4,0.5,0.6,1.1,0.6,1.9v0.3h-3.7c0,0.6,0.2,1,0.4,1.3
		s0.6,0.5,1.1,0.5c0.3,0,0.6-0.1,0.8-0.2C266.5,168.5,266.6,168.3,266.7,168z M265.4,165c-0.4,0-0.7,0.1-1,0.4s-0.4,0.6-0.5,1.1h2.8
		c0-0.4-0.1-0.8-0.3-1C266.1,165.1,265.8,165,265.4,165z"/>
	<path class="st2" d="M269,168.3v-3.2h-0.9v-0.8h0.9v-1.4h0.9v1.4h1.3v0.8h-1.3v3.1c0,0.5,0.2,0.7,0.7,0.7c0.2,0,0.5-0.1,0.7-0.2
		v0.8c-0.2,0.1-0.5,0.2-0.8,0.2c-0.4,0-0.8-0.1-1.1-0.4C269.2,169.1,269,168.7,269,168.3z"/>
	<path class="st2" d="M272.5,169.6v-7.7h0.9v3.1c0.2-0.2,0.4-0.4,0.7-0.6c0.3-0.1,0.6-0.2,0.9-0.2c0.6,0,1,0.2,1.4,0.5
		c0.3,0.3,0.5,0.8,0.5,1.4v3.4h-0.9v-3.3c0-0.4-0.1-0.7-0.3-0.9c-0.2-0.2-0.5-0.3-0.9-0.3c-0.3,0-0.6,0.1-0.8,0.3s-0.4,0.4-0.5,0.7
		v3.6L272.5,169.6L272.5,169.6z"/>
	<path class="st2" d="M279.2,162.3c0.1,0.1,0.2,0.2,0.2,0.4c0,0.2-0.1,0.3-0.2,0.4c-0.1,0.1-0.3,0.2-0.4,0.2c-0.2,0-0.3-0.1-0.4-0.2
		c-0.1-0.1-0.2-0.2-0.2-0.4s0.1-0.3,0.2-0.4c0.1-0.1,0.2-0.2,0.4-0.2C278.9,162.2,279.1,162.2,279.2,162.3z M279.2,164.3v5.3h-0.9
		v-5.3H279.2z"/>
	<path class="st2" d="M280.8,169.6v-5.3h0.9v0.7c0.2-0.2,0.4-0.4,0.7-0.6c0.3-0.1,0.6-0.2,0.9-0.2c0.6,0,1,0.2,1.4,0.5
		c0.3,0.3,0.5,0.8,0.5,1.4v3.4h-0.9v-3.3c0-0.4-0.1-0.7-0.3-0.9c-0.2-0.2-0.5-0.3-0.9-0.3c-0.3,0-0.6,0.1-0.8,0.3s-0.4,0.4-0.5,0.7
		v3.6L280.8,169.6L280.8,169.6z"/>
	<path class="st2" d="M290,169.2v-0.4c-0.1,0.2-0.3,0.4-0.6,0.5c-0.3,0.1-0.6,0.2-0.9,0.2c-0.7,0-1.3-0.3-1.7-0.8
		c-0.4-0.5-0.6-1.1-0.6-1.9c0-0.7,0.2-1.4,0.6-1.9s1-0.8,1.7-0.8c0.3,0,0.6,0.1,0.9,0.2c0.3,0.1,0.5,0.3,0.6,0.5v-0.6h0.9v4.8
		c0,0.8-0.2,1.5-0.6,1.9c-0.4,0.4-1,0.6-1.7,0.6c-0.6,0-1.1-0.2-1.5-0.5c-0.4-0.3-0.6-0.7-0.7-1.3h0.9c0.1,0.7,0.6,1,1.4,1
		C289.5,171,290,170.4,290,169.2z M290,167.9v-2.1c-0.3-0.5-0.7-0.8-1.3-0.8c-0.5,0-0.9,0.2-1.2,0.5s-0.4,0.8-0.4,1.4s0.1,1,0.4,1.3
		c0.3,0.3,0.7,0.5,1.2,0.5C289.3,168.7,289.7,168.5,290,167.9z"/>
	<path class="st2" d="M299.3,164.3v5.3h-0.9v-0.7c-0.2,0.2-0.4,0.4-0.6,0.6c-0.3,0.1-0.6,0.2-0.9,0.2c-0.6,0-1-0.2-1.4-0.5
		c-0.3-0.3-0.5-0.8-0.5-1.4v-3.4h0.9v3.3c0,0.4,0.1,0.7,0.3,0.9c0.2,0.2,0.5,0.3,0.9,0.3c0.3,0,0.6-0.1,0.8-0.3
		c0.2-0.2,0.4-0.4,0.5-0.7v-3.6L299.3,164.3L299.3,164.3L299.3,164.3z"/>
	<path class="st2" d="M300.9,169.6v-5.3h0.9v0.7c0.2-0.2,0.4-0.4,0.7-0.6s0.6-0.2,0.9-0.2c0.6,0,1,0.2,1.4,0.5
		c0.3,0.3,0.5,0.8,0.5,1.4v3.4h-0.9v-3.3c0-0.4-0.1-0.7-0.3-0.9c-0.2-0.2-0.5-0.3-0.9-0.3c-0.3,0-0.6,0.1-0.8,0.3
		c-0.2,0.2-0.4,0.4-0.5,0.7v3.6L300.9,169.6L300.9,169.6z"/>
	<path class="st2" d="M310,168h0.8c-0.1,0.5-0.3,0.9-0.7,1.2c-0.4,0.3-0.8,0.5-1.4,0.5c-0.7,0-1.3-0.2-1.7-0.8s-0.7-1.2-0.7-2
		c0-0.8,0.2-1.5,0.7-2c0.4-0.5,1-0.8,1.7-0.8c0.7,0,1.2,0.2,1.6,0.7c0.4,0.5,0.6,1.1,0.6,1.9v0.3h-3.7c0,0.6,0.2,1,0.4,1.3
		c0.3,0.3,0.6,0.5,1.1,0.5c0.3,0,0.6-0.1,0.8-0.2C309.8,168.5,309.9,168.3,310,168z M308.7,165c-0.4,0-0.7,0.1-1,0.4
		s-0.4,0.6-0.5,1.1h2.8c0-0.4-0.1-0.8-0.3-1S309.1,165,308.7,165z"/>
	<path class="st2" d="M316.2,164.3l-1.8,2.5l2,2.7h-1l-1.5-2l-1.5,2h-1l1.9-2.7l-1.8-2.6h1l1.3,1.9l1.4-1.9L316.2,164.3L316.2,164.3
		z"/>
	<path class="st2" d="M318.2,169v2.6h-0.9v-7.3h0.9v0.6c0.1-0.2,0.4-0.4,0.6-0.5c0.3-0.1,0.6-0.2,0.9-0.2c0.7,0,1.3,0.3,1.7,0.8
		c0.4,0.5,0.6,1.2,0.6,1.9c0,0.8-0.2,1.4-0.6,1.9c-0.4,0.5-1,0.8-1.7,0.8c-0.3,0-0.6-0.1-0.9-0.2C318.5,169.3,318.3,169.2,318.2,169
		z M318.2,165.9v2.1c0.1,0.3,0.3,0.5,0.6,0.6s0.5,0.2,0.8,0.2c0.5,0,0.9-0.2,1.2-0.5c0.3-0.4,0.4-0.8,0.4-1.4c0-0.6-0.1-1-0.4-1.4
		c-0.3-0.4-0.7-0.5-1.2-0.5c-0.3,0-0.5,0.1-0.8,0.2C318.5,165.4,318.3,165.6,318.2,165.9z"/>
	<path class="st2" d="M326.6,168h0.8c-0.1,0.5-0.3,0.9-0.7,1.2s-0.8,0.5-1.4,0.5c-0.7,0-1.3-0.2-1.7-0.8c-0.4-0.5-0.7-1.2-0.7-2
		c0-0.8,0.2-1.5,0.7-2c0.4-0.5,1-0.8,1.7-0.8c0.7,0,1.2,0.2,1.6,0.7c0.4,0.5,0.6,1.1,0.6,1.9v0.3h-3.7c0,0.6,0.2,1,0.4,1.3
		s0.6,0.5,1.1,0.5c0.3,0,0.6-0.1,0.8-0.2C326.4,168.5,326.5,168.3,326.6,168z M325.3,165c-0.4,0-0.7,0.1-1,0.4s-0.4,0.6-0.5,1.1h2.8
		c0-0.4-0.1-0.8-0.3-1C326,165.1,325.7,165,325.3,165z"/>
	<path class="st2" d="M329,168.9c-0.4-0.5-0.7-1.2-0.7-2c0-0.8,0.2-1.5,0.7-2c0.4-0.5,1-0.8,1.7-0.8c0.6,0,1,0.2,1.4,0.5
		c0.4,0.3,0.6,0.7,0.7,1.2h-0.9c-0.1-0.3-0.2-0.5-0.4-0.7s-0.5-0.2-0.8-0.2c-0.5,0-0.8,0.2-1.1,0.5c-0.3,0.4-0.4,0.8-0.4,1.4
		s0.1,1,0.4,1.4c0.3,0.4,0.6,0.5,1.1,0.5c0.3,0,0.6-0.1,0.8-0.2s0.3-0.4,0.4-0.7h0.9c-0.1,0.5-0.3,0.9-0.7,1.2
		c-0.4,0.3-0.8,0.5-1.4,0.5C330,169.7,329.4,169.4,329,168.9z"/>
	<path class="st2" d="M334.3,168.3v-3.2h-0.9v-0.8h0.9v-1.4h0.9v1.4h1.3v0.8h-1.3v3.1c0,0.5,0.2,0.7,0.7,0.7c0.2,0,0.5-0.1,0.7-0.2
		v0.8c-0.2,0.1-0.5,0.2-0.8,0.2c-0.4,0-0.8-0.1-1.1-0.4C334.4,169.1,334.3,168.7,334.3,168.3z"/>
	<path class="st2" d="M341,168h0.8c-0.1,0.5-0.3,0.9-0.7,1.2s-0.8,0.5-1.4,0.5c-0.7,0-1.3-0.2-1.7-0.8s-0.7-1.2-0.7-2
		c0-0.8,0.2-1.5,0.7-2c0.4-0.5,1-0.8,1.7-0.8c0.7,0,1.2,0.2,1.6,0.7c0.4,0.5,0.6,1.1,0.6,1.9v0.3h-3.7c0,0.6,0.2,1,0.4,1.3
		c0.3,0.3,0.6,0.5,1.1,0.5c0.3,0,0.6-0.1,0.8-0.2C340.8,168.5,340.9,168.3,341,168z M339.7,165c-0.4,0-0.7,0.1-1,0.4
		s-0.4,0.6-0.5,1.1h2.8c0-0.4-0.1-0.8-0.3-1C340.5,165.1,340.1,165,339.7,165z"/>
	<path class="st2" d="M346.6,169.6V169c-0.1,0.2-0.3,0.4-0.6,0.5c-0.3,0.1-0.6,0.2-0.9,0.2c-0.7,0-1.3-0.3-1.7-0.8
		c-0.4-0.5-0.6-1.2-0.6-2c0-0.8,0.2-1.4,0.6-1.9c0.4-0.5,1-0.8,1.7-0.8c0.3,0,0.6,0.1,0.9,0.2c0.3,0.1,0.5,0.3,0.6,0.5v-3.1h0.9v7.7
		L346.6,169.6L346.6,169.6z M346.6,168v-2.1c-0.1-0.3-0.3-0.5-0.6-0.6c-0.2-0.2-0.5-0.2-0.8-0.2c-0.5,0-0.9,0.2-1.2,0.5
		c-0.3,0.4-0.4,0.8-0.4,1.4c0,0.6,0.1,1,0.4,1.4c0.3,0.4,0.7,0.5,1.2,0.5c0.3,0,0.5-0.1,0.8-0.2S346.5,168.3,346.6,168z"/>
	<path class="st2" d="M351.7,169.6v-7.7h0.9v3.1c0.2-0.2,0.4-0.4,0.7-0.6c0.3-0.1,0.6-0.2,0.9-0.2c0.6,0,1,0.2,1.4,0.5
		c0.3,0.3,0.5,0.8,0.5,1.4v3.4h-0.9v-3.3c0-0.4-0.1-0.7-0.3-0.9c-0.2-0.2-0.5-0.3-0.9-0.3c-0.3,0-0.6,0.1-0.8,0.3s-0.4,0.4-0.5,0.7
		v3.6L351.7,169.6L351.7,169.6z"/>
	<path class="st2" d="M361.3,169.6h-0.9v-0.4c-0.1,0.1-0.3,0.2-0.6,0.3c-0.3,0.1-0.5,0.2-0.8,0.2c-0.6,0-1-0.2-1.4-0.5
		c-0.4-0.3-0.6-0.7-0.6-1.2c0-0.5,0.2-0.9,0.6-1.2c0.4-0.3,0.9-0.5,1.4-0.5c0.3,0,0.5,0,0.8,0.1c0.3,0.1,0.4,0.2,0.6,0.3v-0.7
		c0-0.3-0.1-0.6-0.3-0.8c-0.2-0.2-0.5-0.3-0.9-0.3c-0.6,0-0.9,0.2-1.1,0.7h-0.9c0.1-0.4,0.3-0.8,0.7-1.1c0.4-0.3,0.8-0.4,1.3-0.4
		c0.6,0,1.1,0.2,1.5,0.5c0.4,0.3,0.5,0.8,0.5,1.4L361.3,169.6L361.3,169.6z M360.4,168.3v-0.5c-0.1-0.2-0.2-0.3-0.5-0.5
		c-0.2-0.1-0.5-0.2-0.8-0.2c-0.3,0-0.6,0.1-0.9,0.2c-0.2,0.2-0.4,0.4-0.4,0.7c0,0.3,0.1,0.5,0.4,0.7c0.2,0.2,0.5,0.2,0.9,0.2
		c0.3,0,0.5-0.1,0.8-0.2C360.2,168.6,360.4,168.5,360.4,168.3z"/>
	<path class="st2" d="M363.7,169v2.6h-0.9v-7.3h0.9v0.6c0.1-0.2,0.4-0.4,0.6-0.5c0.3-0.1,0.6-0.2,0.9-0.2c0.7,0,1.3,0.3,1.7,0.8
		c0.4,0.5,0.6,1.2,0.6,1.9c0,0.8-0.2,1.4-0.6,1.9c-0.4,0.5-1,0.8-1.7,0.8c-0.3,0-0.6-0.1-0.9-0.2C364,169.3,363.8,169.2,363.7,169z
		 M363.7,165.9v2.1c0.1,0.3,0.3,0.5,0.6,0.6c0.2,0.2,0.5,0.2,0.8,0.2c0.5,0,0.9-0.2,1.2-0.5c0.3-0.4,0.4-0.8,0.4-1.4
		c0-0.6-0.1-1-0.4-1.4c-0.3-0.4-0.7-0.5-1.2-0.5c-0.3,0-0.5,0.1-0.8,0.2C364,165.4,363.8,165.6,363.7,165.9z"/>
	<path class="st2" d="M369.6,169v2.6h-0.9v-7.3h0.9v0.6c0.1-0.2,0.4-0.4,0.6-0.5c0.3-0.1,0.6-0.2,0.9-0.2c0.7,0,1.3,0.3,1.7,0.8
		c0.4,0.5,0.6,1.2,0.6,1.9c0,0.8-0.2,1.4-0.6,1.9c-0.4,0.5-1,0.8-1.7,0.8c-0.3,0-0.6-0.1-0.9-0.2C370,169.3,369.8,169.2,369.6,169z
		 M369.6,165.9v2.1c0.1,0.3,0.3,0.5,0.6,0.6s0.5,0.2,0.8,0.2c0.5,0,0.9-0.2,1.2-0.5c0.3-0.4,0.4-0.8,0.4-1.4c0-0.6-0.1-1-0.4-1.4
		c-0.3-0.4-0.7-0.5-1.2-0.5c-0.3,0-0.5,0.1-0.8,0.2C370,165.4,369.8,165.6,369.6,165.9z"/>
	<path class="st2" d="M378,168h0.8c-0.1,0.5-0.3,0.9-0.7,1.2s-0.8,0.5-1.4,0.5c-0.7,0-1.3-0.2-1.7-0.8c-0.4-0.5-0.7-1.2-0.7-2
		c0-0.8,0.2-1.5,0.7-2c0.4-0.5,1-0.8,1.7-0.8c0.7,0,1.2,0.2,1.6,0.7c0.4,0.5,0.6,1.1,0.6,1.9v0.3h-3.7c0,0.6,0.2,1,0.4,1.3
		s0.6,0.5,1.1,0.5c0.3,0,0.6-0.1,0.8-0.2C377.8,168.5,378,168.3,378,168z M376.7,165c-0.4,0-0.7,0.1-1,0.4s-0.4,0.6-0.5,1.1h2.8
		c0-0.4-0.1-0.8-0.3-1C377.5,165.1,377.2,165,376.7,165z"/>
	<path class="st2" d="M380.1,169.6v-5.3h0.9v0.7c0.2-0.2,0.4-0.4,0.7-0.6c0.3-0.1,0.6-0.2,0.9-0.2c0.6,0,1,0.2,1.4,0.5
		c0.3,0.3,0.5,0.8,0.5,1.4v3.4h-0.9v-3.3c0-0.4-0.1-0.7-0.3-0.9c-0.2-0.2-0.5-0.3-0.9-0.3c-0.3,0-0.6,0.1-0.8,0.3s-0.4,0.4-0.5,0.7
		v3.6L380.1,169.6L380.1,169.6z"/>
	<path class="st2" d="M385.5,168.1h0.9c0.2,0.5,0.6,0.8,1.2,0.8c0.3,0,0.6-0.1,0.8-0.2c0.2-0.1,0.3-0.3,0.3-0.6
		c0-0.4-0.3-0.6-0.8-0.7l-1-0.3c-0.8-0.2-1.3-0.7-1.3-1.4c0-0.5,0.2-0.8,0.5-1.1c0.4-0.3,0.8-0.4,1.4-0.4c0.6,0,1,0.1,1.4,0.4
		c0.3,0.3,0.6,0.6,0.7,1.1h-0.9c-0.2-0.5-0.5-0.7-1.2-0.7c-0.3,0-0.5,0.1-0.7,0.2s-0.3,0.3-0.3,0.6c0,0.2,0.1,0.3,0.2,0.4
		c0.1,0.1,0.3,0.2,0.6,0.3l1,0.2c0.9,0.2,1.3,0.7,1.3,1.5c0,0.5-0.2,0.9-0.5,1.2c-0.4,0.3-0.8,0.4-1.4,0.4c-0.6,0-1.1-0.1-1.5-0.4
		C385.8,169,385.6,168.6,385.5,168.1z"/>
	<path class="st2" d="M390.2,170.9l0.7-1.3c-0.3-0.1-0.5-0.3-0.5-0.6c0-0.2,0.1-0.3,0.2-0.4c0.1-0.1,0.3-0.2,0.5-0.2
		s0.3,0.1,0.5,0.2c0.1,0.1,0.2,0.3,0.2,0.5c0,0.2-0.1,0.5-0.3,0.7l-0.6,1L390.2,170.9L390.2,170.9z"/>
	<path class="st2" d="M398.9,169.2v-0.4c-0.1,0.2-0.3,0.4-0.6,0.5c-0.3,0.1-0.6,0.2-0.9,0.2c-0.7,0-1.3-0.3-1.7-0.8
		c-0.4-0.5-0.6-1.1-0.6-1.9c0-0.7,0.2-1.4,0.6-1.9s1-0.8,1.7-0.8c0.3,0,0.6,0.1,0.9,0.2c0.3,0.1,0.5,0.3,0.6,0.5v-0.6h0.9v4.8
		c0,0.8-0.2,1.5-0.6,1.9c-0.4,0.4-1,0.6-1.7,0.6c-0.6,0-1.1-0.2-1.5-0.5c-0.4-0.3-0.6-0.7-0.7-1.3h0.9c0.1,0.7,0.6,1,1.4,1
		C398.4,171,398.9,170.4,398.9,169.2z M398.9,167.9v-2.1c-0.3-0.5-0.7-0.8-1.3-0.8c-0.5,0-0.9,0.2-1.2,0.5c-0.3,0.3-0.4,0.8-0.4,1.4
		s0.1,1,0.4,1.3c0.3,0.3,0.7,0.5,1.2,0.5C398.1,168.7,398.6,168.5,398.9,167.9z"/>
	<path class="st2" d="M402.2,162.3c0.1,0.1,0.2,0.2,0.2,0.4c0,0.2-0.1,0.3-0.2,0.4c-0.1,0.1-0.3,0.2-0.4,0.2s-0.3-0.1-0.4-0.2
		c-0.1-0.1-0.2-0.2-0.2-0.4s0.1-0.3,0.2-0.4c0.1-0.1,0.2-0.2,0.4-0.2S402.1,162.2,402.2,162.3z M402.3,164.3v5.3h-0.9v-5.3H402.3z"
		/>
	<path class="st2" d="M406.2,169.6h-0.9l-2-5.3h1l1.5,4.1l1.5-4.1h0.9L406.2,169.6z"/>
	<path class="st2" d="M412.5,168h0.8c-0.1,0.5-0.3,0.9-0.7,1.2s-0.8,0.5-1.4,0.5c-0.7,0-1.3-0.2-1.7-0.8c-0.4-0.5-0.7-1.2-0.7-2
		c0-0.8,0.2-1.5,0.7-2c0.4-0.5,1-0.8,1.7-0.8c0.7,0,1.2,0.2,1.6,0.7c0.4,0.5,0.6,1.1,0.6,1.9v0.3h-3.7c0,0.6,0.2,1,0.4,1.3
		c0.3,0.3,0.6,0.5,1.1,0.5c0.3,0,0.6-0.1,0.8-0.2C412.2,168.5,412.4,168.3,412.5,168z M411.2,165c-0.4,0-0.7,0.1-1,0.4
		c-0.3,0.3-0.4,0.6-0.5,1.1h2.8c0-0.4-0.1-0.8-0.3-1S411.6,165,411.2,165z"/>
	<path class="st2" d="M416.7,168.1h0.9c0.2,0.5,0.6,0.8,1.2,0.8c0.3,0,0.6-0.1,0.8-0.2c0.2-0.1,0.3-0.3,0.3-0.6
		c0-0.4-0.3-0.6-0.8-0.7l-1-0.3c-0.8-0.2-1.3-0.7-1.3-1.4c0-0.5,0.2-0.8,0.5-1.1c0.4-0.3,0.8-0.4,1.4-0.4c0.6,0,1,0.1,1.4,0.4
		c0.3,0.3,0.6,0.6,0.7,1.1h-0.9c-0.2-0.5-0.5-0.7-1.2-0.7c-0.3,0-0.5,0.1-0.7,0.2c-0.2,0.1-0.3,0.3-0.3,0.6c0,0.2,0.1,0.3,0.2,0.4
		c0.1,0.1,0.3,0.2,0.6,0.3l1,0.2c0.9,0.2,1.3,0.7,1.3,1.5c0,0.5-0.2,0.9-0.5,1.2c-0.4,0.3-0.8,0.4-1.4,0.4c-0.6,0-1.1-0.1-1.5-0.4
		C417,169,416.8,168.6,416.7,168.1z"/>
	<path class="st2" d="M425.9,165c0.4,0.5,0.7,1.2,0.7,2c0,0.8-0.2,1.5-0.7,2c-0.4,0.5-1,0.8-1.7,0.8c-0.7,0-1.3-0.3-1.7-0.8
		c-0.4-0.5-0.7-1.2-0.7-2c0-0.8,0.2-1.5,0.7-2s1-0.8,1.7-0.8C424.8,164.2,425.4,164.5,425.9,165z M425.2,168.4
		c0.3-0.4,0.4-0.8,0.4-1.4s-0.1-1.1-0.4-1.4c-0.3-0.4-0.6-0.5-1.1-0.5c-0.5,0-0.8,0.2-1.1,0.5c-0.3,0.4-0.4,0.8-0.4,1.4
		s0.1,1.1,0.4,1.4c0.3,0.4,0.6,0.5,1.1,0.5S424.9,168.7,425.2,168.4z"/>
	<path class="st2" d="M431.5,165.1c0.4-0.6,0.9-0.8,1.6-0.8c0.5,0,0.9,0.2,1.2,0.5c0.3,0.3,0.4,0.8,0.4,1.4v3.5h-0.9v-3.3
		c0-0.4-0.1-0.7-0.2-0.9c-0.2-0.2-0.4-0.3-0.7-0.3c-0.3,0-0.5,0.1-0.7,0.3c-0.2,0.2-0.4,0.4-0.4,0.7v3.6h-0.9v-3.3
		c0-0.4-0.1-0.7-0.2-0.9c-0.2-0.2-0.4-0.3-0.7-0.3c-0.3,0-0.5,0.1-0.7,0.3c-0.2,0.2-0.4,0.4-0.4,0.7v3.6h-0.9v-5.3h0.9v0.6
		c0.3-0.5,0.8-0.7,1.4-0.7C430.7,164.2,431.2,164.5,431.5,165.1z"/>
	<path class="st2" d="M439.5,168h0.8c-0.1,0.5-0.3,0.9-0.7,1.2c-0.4,0.3-0.8,0.5-1.4,0.5c-0.7,0-1.3-0.2-1.7-0.8
		c-0.4-0.5-0.7-1.2-0.7-2c0-0.8,0.2-1.5,0.7-2c0.4-0.5,1-0.8,1.7-0.8c0.7,0,1.2,0.2,1.6,0.7c0.4,0.5,0.6,1.1,0.6,1.9v0.3h-3.7
		c0,0.6,0.1,1,0.4,1.3c0.3,0.3,0.6,0.5,1.1,0.5c0.3,0,0.6-0.1,0.8-0.2C439.3,168.5,439.5,168.3,439.5,168z M438.2,165
		c-0.4,0-0.7,0.1-1,0.4s-0.4,0.6-0.5,1.1h2.8c0-0.4-0.1-0.8-0.3-1S438.7,165,438.2,165z"/>
	<path class="st2" d="M445.4,165c0.4,0.5,0.7,1.2,0.7,2c0,0.8-0.2,1.5-0.7,2c-0.4,0.5-1,0.8-1.7,0.8c-0.7,0-1.3-0.3-1.7-0.8
		c-0.4-0.5-0.7-1.2-0.7-2c0-0.8,0.2-1.5,0.7-2c0.4-0.5,1-0.8,1.7-0.8C444.4,164.2,445,164.5,445.4,165z M444.8,168.4
		c0.3-0.4,0.4-0.8,0.4-1.4s-0.1-1.1-0.4-1.4c-0.3-0.4-0.6-0.5-1.1-0.5c-0.5,0-0.8,0.2-1.1,0.5c-0.3,0.4-0.4,0.8-0.4,1.4
		s0.1,1.1,0.4,1.4c0.3,0.4,0.6,0.5,1.1,0.5C444.2,168.9,444.5,168.7,444.8,168.4z"/>
	<path class="st2" d="M447.3,169.6v-5.3h0.9v0.7c0.2-0.2,0.4-0.4,0.7-0.6c0.3-0.1,0.6-0.2,0.9-0.2c0.6,0,1,0.2,1.4,0.5
		c0.3,0.3,0.5,0.8,0.5,1.4v3.4h-0.9v-3.3c0-0.4-0.1-0.7-0.3-0.9s-0.5-0.3-0.9-0.3c-0.3,0-0.6,0.1-0.8,0.3s-0.4,0.4-0.5,0.7v3.6
		L447.3,169.6L447.3,169.6z"/>
	<path class="st2" d="M456.4,168h0.8c-0.1,0.5-0.3,0.9-0.7,1.2c-0.4,0.3-0.8,0.5-1.4,0.5c-0.7,0-1.3-0.2-1.7-0.8s-0.7-1.2-0.7-2
		c0-0.8,0.2-1.5,0.7-2c0.4-0.5,1-0.8,1.7-0.8c0.7,0,1.2,0.2,1.6,0.7c0.4,0.5,0.6,1.1,0.6,1.9v0.3h-3.7c0,0.6,0.2,1,0.4,1.3
		c0.3,0.3,0.6,0.5,1.1,0.5c0.3,0,0.6-0.1,0.8-0.2C456.2,168.5,456.3,168.3,456.4,168z M455.1,165c-0.4,0-0.7,0.1-1,0.4
		s-0.4,0.6-0.5,1.1h2.8c0-0.4-0.1-0.8-0.3-1C455.9,165.1,455.5,165,455.1,165z"/>
	<path class="st2" d="M462.7,171.6h-0.9l0.8-2l-2-5.3h1l1.6,4.1l1.5-4.1h0.9L462.7,171.6z"/>
	<path class="st2" d="M470.2,165c0.4,0.5,0.7,1.2,0.7,2c0,0.8-0.2,1.5-0.7,2c-0.4,0.5-1,0.8-1.7,0.8c-0.7,0-1.3-0.3-1.7-0.8
		c-0.4-0.5-0.7-1.2-0.7-2c0-0.8,0.2-1.5,0.7-2c0.4-0.5,1-0.8,1.7-0.8C469.2,164.2,469.8,164.5,470.2,165z M469.6,168.4
		c0.3-0.4,0.4-0.8,0.4-1.4s-0.1-1.1-0.4-1.4c-0.3-0.4-0.6-0.5-1.1-0.5c-0.5,0-0.8,0.2-1.1,0.5c-0.3,0.4-0.4,0.8-0.4,1.4
		s0.1,1.1,0.4,1.4c0.3,0.4,0.6,0.5,1.1,0.5C468.9,168.9,469.3,168.7,469.6,168.4z"/>
	<path class="st2" d="M476.3,164.3v5.3h-0.9v-0.7c-0.2,0.2-0.4,0.4-0.6,0.6c-0.3,0.1-0.6,0.2-0.9,0.2c-0.6,0-1-0.2-1.4-0.5
		c-0.3-0.3-0.5-0.8-0.5-1.4v-3.4h0.9v3.3c0,0.4,0.1,0.7,0.3,0.9s0.5,0.3,0.9,0.3c0.3,0,0.6-0.1,0.8-0.3c0.2-0.2,0.4-0.4,0.5-0.7
		v-3.6L476.3,164.3L476.3,164.3z"/>
	<path class="st2" d="M480.7,168.3v-3.2h-0.9v-0.8h0.9v-1.4h0.9v1.4h1.3v0.8h-1.3v3.1c0,0.5,0.2,0.7,0.7,0.7c0.2,0,0.5-0.1,0.7-0.2
		v0.8c-0.2,0.1-0.5,0.2-0.8,0.2c-0.4,0-0.8-0.1-1.1-0.4C480.8,169.1,480.7,168.7,480.7,168.3z"/>
	<path class="st2" d="M486.9,164.3v0.9c-0.1-0.1-0.3-0.1-0.6-0.1c-0.3,0-0.5,0.1-0.8,0.3c-0.2,0.2-0.4,0.4-0.5,0.7v3.5h-0.9v-5.3
		h0.9v0.7c0.1-0.2,0.3-0.4,0.5-0.6c0.2-0.1,0.5-0.2,0.8-0.2C486.6,164.2,486.8,164.2,486.9,164.3z"/>
	<path class="st2" d="M492.2,164.3v5.3h-0.9v-0.7c-0.2,0.2-0.4,0.4-0.6,0.6c-0.3,0.1-0.6,0.2-0.9,0.2c-0.6,0-1-0.2-1.4-0.5
		c-0.3-0.3-0.5-0.8-0.5-1.4v-3.4h0.9v3.3c0,0.4,0.1,0.7,0.3,0.9c0.2,0.2,0.5,0.3,0.9,0.3c0.3,0,0.6-0.1,0.8-0.3
		c0.2-0.2,0.4-0.4,0.5-0.7v-3.6L492.2,164.3L492.2,164.3L492.2,164.3z"/>
	<path class="st2" d="M493.3,168.1h0.9c0.2,0.5,0.6,0.8,1.2,0.8c0.3,0,0.6-0.1,0.8-0.2s0.3-0.3,0.3-0.6c0-0.4-0.3-0.6-0.8-0.7
		l-1-0.3c-0.8-0.2-1.3-0.7-1.3-1.4c0-0.5,0.2-0.8,0.5-1.1c0.4-0.3,0.8-0.4,1.4-0.4c0.6,0,1,0.1,1.4,0.4c0.3,0.3,0.6,0.6,0.7,1.1
		h-0.9c-0.2-0.5-0.5-0.7-1.2-0.7c-0.3,0-0.5,0.1-0.7,0.2s-0.3,0.3-0.3,0.6c0,0.2,0.1,0.3,0.2,0.4c0.1,0.1,0.3,0.2,0.6,0.3l1,0.2
		c0.9,0.2,1.3,0.7,1.3,1.5c0,0.5-0.2,0.9-0.5,1.2c-0.4,0.3-0.8,0.4-1.4,0.4s-1.1-0.1-1.4-0.4C493.6,169,493.4,168.6,493.3,168.1z"/>
	<path class="st2" d="M498.9,168.3v-3.2h-0.9v-0.8h0.9v-1.4h0.9v1.4h1.3v0.8h-1.3v3.1c0,0.5,0.2,0.7,0.7,0.7c0.2,0,0.5-0.1,0.7-0.2
		v0.8c-0.2,0.1-0.5,0.2-0.8,0.2c-0.4,0-0.8-0.1-1.1-0.4C499,169.1,498.9,168.7,498.9,168.3z"/>
	<path class="st2" d="M508.9,169.6H508v-0.4c-0.1,0.1-0.3,0.2-0.6,0.3c-0.3,0.1-0.5,0.2-0.8,0.2c-0.6,0-1-0.2-1.4-0.5
		c-0.4-0.3-0.6-0.7-0.6-1.2c0-0.5,0.2-0.9,0.6-1.2c0.4-0.3,0.9-0.5,1.4-0.5c0.3,0,0.5,0,0.8,0.1s0.4,0.2,0.6,0.3v-0.7
		c0-0.3-0.1-0.6-0.3-0.8c-0.2-0.2-0.5-0.3-0.9-0.3c-0.6,0-0.9,0.2-1.1,0.7h-0.9c0.1-0.4,0.3-0.8,0.7-1.1c0.4-0.3,0.8-0.4,1.3-0.4
		c0.6,0,1.1,0.2,1.5,0.5c0.4,0.3,0.5,0.8,0.5,1.4L508.9,169.6L508.9,169.6L508.9,169.6z M508,168.3v-0.5c-0.1-0.2-0.2-0.3-0.5-0.5
		c-0.2-0.1-0.5-0.2-0.8-0.2c-0.3,0-0.6,0.1-0.9,0.2s-0.4,0.4-0.4,0.7c0,0.3,0.1,0.5,0.4,0.7s0.5,0.2,0.9,0.2c0.3,0,0.5-0.1,0.8-0.2
		C507.8,168.6,507.9,168.5,508,168.3z"/>
	<path class="st2" d="M510.7,168.9c-0.4-0.5-0.7-1.2-0.7-2c0-0.8,0.2-1.5,0.7-2c0.4-0.5,1-0.8,1.7-0.8c0.6,0,1,0.2,1.4,0.5
		c0.4,0.3,0.6,0.7,0.7,1.2h-0.9c-0.1-0.3-0.2-0.5-0.4-0.7s-0.5-0.2-0.8-0.2c-0.4,0-0.8,0.2-1.1,0.5c-0.3,0.4-0.4,0.8-0.4,1.4
		s0.1,1,0.4,1.4c0.3,0.4,0.6,0.5,1.1,0.5c0.3,0,0.6-0.1,0.8-0.2s0.3-0.4,0.4-0.7h0.9c-0.1,0.5-0.3,0.9-0.7,1.2
		c-0.4,0.3-0.8,0.5-1.4,0.5C511.7,169.7,511.1,169.4,510.7,168.9z"/>
	<path class="st2" d="M515.9,168.9c-0.4-0.5-0.7-1.2-0.7-2c0-0.8,0.2-1.5,0.7-2c0.4-0.5,1-0.8,1.7-0.8c0.6,0,1,0.2,1.4,0.5
		c0.4,0.3,0.6,0.7,0.7,1.2h-0.9c-0.1-0.3-0.2-0.5-0.4-0.7s-0.5-0.2-0.8-0.2c-0.5,0-0.8,0.2-1.1,0.5c-0.3,0.4-0.4,0.8-0.4,1.4
		s0.1,1,0.4,1.4s0.6,0.5,1.1,0.5c0.3,0,0.6-0.1,0.8-0.2s0.3-0.4,0.4-0.7h0.9c-0.1,0.5-0.3,0.9-0.7,1.2c-0.4,0.3-0.8,0.5-1.4,0.5
		C516.9,169.7,516.3,169.4,515.9,168.9z"/>
	<path class="st2" d="M524.2,168h0.8c-0.1,0.5-0.3,0.9-0.7,1.2s-0.8,0.5-1.4,0.5c-0.7,0-1.3-0.2-1.7-0.8s-0.7-1.2-0.7-2
		c0-0.8,0.2-1.5,0.7-2c0.4-0.5,1-0.8,1.7-0.8c0.7,0,1.2,0.2,1.6,0.7c0.4,0.5,0.6,1.1,0.6,1.9v0.3h-3.7c0,0.6,0.2,1,0.4,1.3
		s0.6,0.5,1.1,0.5c0.3,0,0.6-0.1,0.8-0.2S524.1,168.3,524.2,168z M522.9,165c-0.4,0-0.7,0.1-1,0.4c-0.3,0.3-0.4,0.6-0.5,1.1h2.8
		c0-0.4-0.1-0.8-0.3-1C523.6,165.1,523.3,165,522.9,165z"/>
	<path class="st2" d="M525.9,168.1h0.9c0.2,0.5,0.6,0.8,1.2,0.8c0.3,0,0.6-0.1,0.8-0.2s0.3-0.3,0.3-0.6c0-0.4-0.3-0.6-0.8-0.7
		l-1-0.3c-0.8-0.2-1.3-0.7-1.3-1.4c0-0.5,0.2-0.8,0.5-1.1c0.4-0.3,0.8-0.4,1.3-0.4c0.6,0,1,0.1,1.4,0.4c0.3,0.3,0.6,0.6,0.7,1.1
		h-0.9c-0.2-0.5-0.5-0.7-1.2-0.7c-0.3,0-0.5,0.1-0.7,0.2s-0.3,0.3-0.3,0.6c0,0.2,0.1,0.3,0.2,0.4c0.1,0.1,0.3,0.2,0.6,0.3l1,0.2
		c0.9,0.2,1.3,0.7,1.3,1.5c0,0.5-0.2,0.9-0.5,1.2c-0.4,0.3-0.8,0.4-1.4,0.4s-1.1-0.1-1.4-0.4C526.2,169,526,168.6,525.9,168.1z"/>
	<path class="st2" d="M530.8,168.1h0.9c0.2,0.5,0.6,0.8,1.2,0.8c0.3,0,0.6-0.1,0.8-0.2s0.3-0.3,0.3-0.6c0-0.4-0.3-0.6-0.8-0.7
		l-1-0.3c-0.8-0.2-1.3-0.7-1.3-1.4c0-0.5,0.2-0.8,0.5-1.1c0.4-0.3,0.8-0.4,1.3-0.4c0.6,0,1,0.1,1.4,0.4c0.3,0.3,0.6,0.6,0.7,1.1H534
		c-0.2-0.5-0.5-0.7-1.2-0.7c-0.3,0-0.5,0.1-0.7,0.2s-0.3,0.3-0.3,0.6c0,0.2,0.1,0.3,0.2,0.4c0.1,0.1,0.3,0.2,0.6,0.3l1,0.2
		c0.9,0.2,1.3,0.7,1.3,1.5c0,0.5-0.2,0.9-0.5,1.2c-0.4,0.3-0.8,0.4-1.4,0.4s-1.1-0.1-1.4-0.4C531.1,169,530.9,168.6,530.8,168.1z"/>
	<path class="st2" d="M539,168.3v-3.2h-0.9v-0.8h0.9v-1.4h0.9v1.4h1.3v0.8h-1.3v3.1c0,0.5,0.2,0.7,0.7,0.7c0.2,0,0.5-0.1,0.7-0.2
		v0.8c-0.2,0.1-0.5,0.2-0.8,0.2c-0.4,0-0.8-0.1-1.1-0.4S539,168.7,539,168.3z"/>
	<path class="st2" d="M546.2,165c0.4,0.5,0.7,1.2,0.7,2c0,0.8-0.2,1.5-0.7,2c-0.4,0.5-1,0.8-1.7,0.8c-0.7,0-1.3-0.3-1.7-0.8
		c-0.4-0.5-0.7-1.2-0.7-2c0-0.8,0.2-1.5,0.7-2c0.4-0.5,1-0.8,1.7-0.8C545.2,164.2,545.8,164.5,546.2,165z M545.6,168.4
		c0.3-0.4,0.4-0.8,0.4-1.4s-0.1-1.1-0.4-1.4c-0.3-0.4-0.6-0.5-1.1-0.5c-0.5,0-0.8,0.2-1.1,0.5c-0.3,0.4-0.4,0.8-0.4,1.4
		s0.1,1.1,0.4,1.4c0.3,0.4,0.6,0.5,1.1,0.5C544.9,168.9,545.3,168.7,545.6,168.4z"/>
	<path class="st2" d="M552.3,171.6h-0.9l0.8-2l-2-5.3h1l1.6,4.1l1.5-4.1h0.9L552.3,171.6z"/>
	<path class="st2" d="M559.8,165c0.4,0.5,0.7,1.2,0.7,2c0,0.8-0.2,1.5-0.7,2c-0.4,0.5-1,0.8-1.7,0.8c-0.7,0-1.3-0.3-1.7-0.8
		c-0.4-0.5-0.7-1.2-0.7-2c0-0.8,0.2-1.5,0.7-2c0.4-0.5,1-0.8,1.7-0.8C558.8,164.2,559.3,164.5,559.8,165z M559.2,168.4
		c0.3-0.4,0.4-0.8,0.4-1.4s-0.1-1.1-0.4-1.4c-0.3-0.4-0.6-0.5-1.1-0.5c-0.5,0-0.8,0.2-1.1,0.5c-0.3,0.4-0.4,0.8-0.4,1.4
		s0.1,1.1,0.4,1.4c0.3,0.4,0.6,0.5,1.1,0.5S558.9,168.7,559.2,168.4z"/>
	<path class="st2" d="M565.9,164.3v5.3H565v-0.7c-0.2,0.2-0.4,0.4-0.6,0.6c-0.3,0.1-0.6,0.2-0.9,0.2c-0.6,0-1-0.2-1.4-0.5
		c-0.3-0.3-0.5-0.8-0.5-1.4v-3.4h0.9v3.3c0,0.4,0.1,0.7,0.3,0.9c0.2,0.2,0.5,0.3,0.9,0.3c0.3,0,0.6-0.1,0.8-0.3
		c0.2-0.2,0.4-0.4,0.5-0.7v-3.6L565.9,164.3L565.9,164.3L565.9,164.3z"/>
	<path class="st2" d="M570.1,164.3v0.9c-0.1-0.1-0.3-0.1-0.6-0.1c-0.3,0-0.5,0.1-0.8,0.3c-0.2,0.2-0.4,0.4-0.5,0.7v3.5h-0.9v-5.3
		h0.9v0.7c0.1-0.2,0.3-0.4,0.5-0.6c0.2-0.1,0.5-0.2,0.8-0.2C569.9,164.2,570,164.2,570.1,164.3z"/>
	<path class="st2" d="M576.2,169.6h-0.9l-2-5.3h1l1.5,4.1l1.5-4.1h0.9L576.2,169.6z"/>
	<path class="st2" d="M582.9,169.6h-0.9v-0.4c-0.1,0.1-0.3,0.2-0.6,0.3c-0.3,0.1-0.5,0.2-0.8,0.2c-0.6,0-1-0.2-1.4-0.5
		c-0.4-0.3-0.6-0.7-0.6-1.2c0-0.5,0.2-0.9,0.6-1.2c0.4-0.3,0.9-0.5,1.4-0.5c0.3,0,0.5,0,0.8,0.1c0.3,0.1,0.4,0.2,0.6,0.3v-0.7
		c0-0.3-0.1-0.6-0.3-0.8c-0.2-0.2-0.5-0.3-0.9-0.3c-0.6,0-0.9,0.2-1.1,0.7h-0.9c0.1-0.4,0.3-0.8,0.7-1.1c0.4-0.3,0.8-0.4,1.3-0.4
		c0.6,0,1.1,0.2,1.5,0.5c0.4,0.3,0.5,0.8,0.5,1.4L582.9,169.6L582.9,169.6L582.9,169.6z M582.1,168.3v-0.5c-0.1-0.2-0.2-0.3-0.5-0.5
		c-0.2-0.1-0.5-0.2-0.8-0.2c-0.3,0-0.6,0.1-0.9,0.2c-0.2,0.2-0.4,0.4-0.4,0.7c0,0.3,0.1,0.5,0.4,0.7c0.2,0.2,0.5,0.2,0.9,0.2
		c0.3,0,0.5-0.1,0.8-0.2S582,168.5,582.1,168.3z"/>
	<path class="st2" d="M588.6,164.3v5.3h-0.9v-0.7c-0.2,0.2-0.4,0.4-0.6,0.6c-0.3,0.1-0.6,0.2-0.9,0.2c-0.6,0-1-0.2-1.4-0.5
		c-0.3-0.3-0.5-0.8-0.5-1.4v-3.4h0.9v3.3c0,0.4,0.1,0.7,0.3,0.9s0.5,0.3,0.9,0.3c0.3,0,0.6-0.1,0.8-0.3c0.2-0.2,0.4-0.4,0.5-0.7
		v-3.6L588.6,164.3L588.6,164.3L588.6,164.3z"/>
	<path class="st2" d="M591.1,161.9v7.7h-0.9v-7.7H591.1z"/>
	<path class="st2" d="M592.9,168.3v-3.2h-0.9v-0.8h0.9v-1.4h0.9v1.4h1.3v0.8h-1.3v3.1c0,0.5,0.2,0.7,0.7,0.7c0.2,0,0.5-0.1,0.7-0.2
		v0.8c-0.2,0.1-0.5,0.2-0.8,0.2c-0.4,0-0.8-0.1-1.1-0.4C593,169.1,592.9,168.7,592.9,168.3z"/>
	<path class="st2" d="M596.3,169.5c-0.1-0.1-0.2-0.3-0.2-0.5c0-0.2,0.1-0.3,0.2-0.5c0.1-0.1,0.3-0.2,0.5-0.2c0.2,0,0.3,0.1,0.4,0.2
		c0.1,0.1,0.2,0.3,0.2,0.5c0,0.2-0.1,0.3-0.2,0.5c-0.1,0.1-0.3,0.2-0.4,0.2C596.6,169.6,596.4,169.6,596.3,169.5z"/>
</g>
<g>
	<path class="st6" d="M214.3,295.1v-1.3h9.3v1.3h-3.9v10h-1.5v-10H214.3z"/>
	<path class="st6" d="M228.5,296.9v1.4c-0.2-0.1-0.5-0.2-0.9-0.2c-0.4,0-0.8,0.1-1.2,0.4c-0.3,0.3-0.6,0.6-0.7,1.1v5.5h-1.4V297h1.4
		v1.1c0.2-0.4,0.5-0.7,0.8-0.9c0.4-0.2,0.8-0.4,1.2-0.4C228.1,296.8,228.4,296.8,228.5,296.9z"/>
	<path class="st6" d="M236.8,297v8.2h-1.4v-1c-0.2,0.3-0.6,0.6-1,0.9c-0.4,0.2-0.9,0.3-1.4,0.3c-0.9,0-1.6-0.3-2.1-0.8
		c-0.5-0.5-0.7-1.3-0.7-2.2V297h1.4v5.1c0,0.6,0.1,1.1,0.4,1.4c0.3,0.3,0.7,0.5,1.3,0.5c0.5,0,0.9-0.1,1.3-0.4
		c0.4-0.3,0.6-0.6,0.8-1.1V297L236.8,297L236.8,297z"/>
	<path class="st6" d="M238.5,302.9h1.4c0.3,0.8,0.9,1.3,1.9,1.3c0.5,0,0.9-0.1,1.2-0.3c0.3-0.2,0.5-0.5,0.5-0.9
		c0-0.6-0.4-0.9-1.2-1.1l-1.6-0.4c-1.3-0.3-2-1.1-2-2.2c0-0.7,0.3-1.3,0.8-1.7c0.6-0.4,1.3-0.7,2.1-0.7c0.9,0,1.6,0.2,2.1,0.6
		c0.5,0.4,0.9,1,1,1.7h-1.4c-0.2-0.8-0.8-1.2-1.8-1.2c-0.4,0-0.8,0.1-1.1,0.3c-0.3,0.2-0.5,0.5-0.5,0.9c0,0.3,0.1,0.5,0.3,0.6
		s0.5,0.3,0.9,0.4l1.6,0.4c1.4,0.4,2.1,1.1,2.1,2.3c0,0.8-0.3,1.4-0.8,1.8c-0.6,0.4-1.3,0.7-2.2,0.7s-1.6-0.2-2.3-0.6
		C239,304.2,238.7,303.6,238.5,302.9z"/>
	<path class="st6" d="M247.2,303.1v-4.9h-1.3V297h1.3v-2.2h1.4v2.2h2v1.2h-2v4.8c0,0.8,0.4,1.1,1.1,1.1c0.4,0,0.7-0.1,1.1-0.3v1.3
		c-0.3,0.2-0.8,0.3-1.3,0.3c-0.7,0-1.2-0.2-1.6-0.6C247.4,304.4,247.2,303.8,247.2,303.1z"/>
	<path class="st6" d="M257.4,304.3c-0.9-1.2-1.3-2.7-1.3-4.3c0-1.7,0.4-3.1,1.3-4.3c0.9-1.2,2.1-2,3.6-2.4v1.5
		c-1,0.3-1.9,0.9-2.6,1.8c-0.7,0.9-1,2.1-1,3.5s0.3,2.5,1,3.5c0.7,0.9,1.5,1.5,2.6,1.8v1.5C259.5,306.3,258.3,305.5,257.4,304.3z"/>
	<path class="st6" d="M267.7,296.9c0-0.6-0.2-1-0.6-1.4c-0.4-0.4-0.9-0.5-1.5-0.5c-0.7,0-1.2,0.2-1.6,0.6c-0.4,0.4-0.6,1-0.7,1.6
		H262c0.1-1.1,0.5-1.9,1.2-2.6c0.7-0.6,1.5-1,2.5-1c1.1,0,1.9,0.3,2.5,0.9c0.6,0.6,0.9,1.4,0.9,2.3c0,0.2,0,0.4-0.1,0.5
		s-0.1,0.3-0.1,0.5c0,0.1-0.1,0.3-0.2,0.5c-0.1,0.2-0.2,0.4-0.3,0.5c-0.1,0.1-0.2,0.3-0.4,0.5c-0.2,0.2-0.3,0.4-0.4,0.4
		c-0.1,0.1-0.2,0.2-0.4,0.5c-0.2,0.3-0.4,0.4-0.4,0.5l-2.9,3.1h5.4v1.3H262v-1l3.6-4c0.6-0.6,0.9-1,1.1-1.3c0.2-0.2,0.4-0.5,0.6-0.9
		C267.6,297.6,267.7,297.2,267.7,296.9z"/>
	<path class="st6" d="M274,295.6c0.9,1.2,1.3,2.7,1.3,4.3s-0.4,3.1-1.3,4.3c-0.9,1.2-2.1,2-3.6,2.4v-1.5c1-0.3,1.9-0.9,2.5-1.8
		c0.7-0.9,1-2.1,1-3.5s-0.3-2.5-1-3.5s-1.5-1.5-2.5-1.8v-1.5C271.9,293.6,273.1,294.4,274,295.6z"/>
</g>
<g>
	<rect x="213.8" y="325.2" class="st1" width="27.8" height="27.8"/>
</g>
<g>
	<path class="st2" d="M260.1,343.7v4.1h-1.4v-11.3h1.4v1c0.2-0.3,0.6-0.6,1-0.8c0.4-0.2,0.9-0.3,1.3-0.3c1.2,0,2.1,0.4,2.7,1.2
		c0.6,0.8,1,1.8,1,3c0,1.2-0.3,2.2-1,3c-0.7,0.8-1.6,1.2-2.7,1.2c-0.5,0-0.9-0.1-1.3-0.3S260.3,344,260.1,343.7z M260.1,338.9v3.3
		c0.2,0.4,0.5,0.7,0.9,1c0.4,0.2,0.8,0.4,1.2,0.4c0.8,0,1.4-0.3,1.8-0.8c0.4-0.6,0.7-1.3,0.7-2.2c0-0.9-0.2-1.6-0.7-2.2
		c-0.4-0.6-1.1-0.8-1.8-0.8c-0.4,0-0.9,0.1-1.2,0.4C260.6,338.1,260.3,338.5,260.1,338.9z"/>
	<path class="st2" d="M273.1,342.2h1.3c-0.1,0.8-0.5,1.4-1.1,1.9c-0.6,0.5-1.3,0.7-2.2,0.7c-1.1,0-2-0.4-2.7-1.2s-1-1.8-1-3.1
		c0-1.2,0.3-2.3,1-3.1c0.7-0.8,1.6-1.2,2.7-1.2c1.1,0,1.9,0.4,2.5,1.1c0.6,0.7,0.9,1.7,0.9,2.9v0.5h-5.8c0,0.9,0.2,1.5,0.7,2.1
		c0.4,0.5,1,0.8,1.7,0.8c0.5,0,0.9-0.1,1.3-0.4C272.8,343,273,342.6,273.1,342.2z M271.1,337.5c-0.6,0-1.1,0.2-1.5,0.6
		c-0.4,0.4-0.7,1-0.8,1.7h4.3c0-0.6-0.2-1.2-0.5-1.6C272.3,337.7,271.8,337.5,271.1,337.5z"/>
	<path class="st2" d="M276.8,342.6v-4.9h-1.3v-1.2h1.3v-2.2h1.4v2.2h2v1.2h-2v4.8c0,0.8,0.4,1.1,1.1,1.1c0.4,0,0.7-0.1,1.1-0.3v1.3
		c-0.3,0.2-0.8,0.3-1.3,0.3c-0.7,0-1.2-0.2-1.6-0.6C277,343.9,276.8,343.3,276.8,342.6z"/>
	<path class="st2" d="M287.3,342.2h1.3c-0.1,0.8-0.5,1.4-1.1,1.9c-0.6,0.5-1.3,0.7-2.2,0.7c-1.1,0-2-0.4-2.7-1.2
		c-0.7-0.8-1-1.8-1-3.1c0-1.2,0.3-2.3,1-3.1c0.7-0.8,1.6-1.2,2.7-1.2c1.1,0,1.9,0.4,2.5,1.1c0.6,0.7,0.9,1.7,0.9,2.9v0.5h-5.8
		c0,0.9,0.2,1.5,0.7,2.1c0.4,0.5,1,0.8,1.7,0.8c0.5,0,0.9-0.1,1.3-0.4C287,343,287.2,342.6,287.3,342.2z M285.3,337.5
		c-0.6,0-1.1,0.2-1.5,0.6c-0.4,0.4-0.7,1-0.8,1.7h4.3c0-0.6-0.2-1.2-0.5-1.6C286.4,337.7,285.9,337.5,285.3,337.5z"/>
	<path class="st2" d="M294.8,336.4v1.4c-0.2-0.1-0.5-0.2-0.9-0.2c-0.4,0-0.8,0.1-1.2,0.4s-0.6,0.6-0.7,1.1v5.5h-1.4v-8.2h1.4v1.1
		c0.2-0.4,0.5-0.7,0.8-0.9c0.4-0.2,0.8-0.4,1.2-0.4C294.3,336.3,294.6,336.3,294.8,336.4z"/>
	<path class="st2" d="M295.4,344.4c-0.2-0.2-0.3-0.4-0.3-0.7c0-0.3,0.1-0.5,0.3-0.7c0.2-0.2,0.4-0.3,0.7-0.3c0.3,0,0.5,0.1,0.7,0.3
		c0.2,0.2,0.3,0.4,0.3,0.7c0,0.3-0.1,0.5-0.3,0.7c-0.2,0.2-0.4,0.3-0.7,0.3C295.8,344.7,295.6,344.6,295.4,344.4z"/>
	<path class="st2" d="M298.9,344.6v-12h1.4v4.8c0.3-0.3,0.6-0.6,1-0.9c0.4-0.2,0.9-0.3,1.4-0.3c0.9,0,1.6,0.3,2.1,0.8
		c0.5,0.5,0.8,1.3,0.8,2.2v5.4h-1.4v-5.1c0-0.6-0.1-1.1-0.5-1.4c-0.3-0.3-0.8-0.5-1.4-0.5c-0.5,0-0.9,0.1-1.3,0.4
		c-0.4,0.3-0.6,0.7-0.8,1.1v5.5L298.9,344.6L298.9,344.6z"/>
	<path class="st2" d="M309.2,333.4c0.2,0.2,0.3,0.4,0.3,0.6c0,0.2-0.1,0.5-0.3,0.6c-0.2,0.2-0.4,0.3-0.6,0.3s-0.5-0.1-0.6-0.3
		s-0.3-0.4-0.3-0.6c0-0.2,0.1-0.5,0.3-0.6c0.2-0.2,0.4-0.3,0.6-0.3S309,333.2,309.2,333.4z M309.3,336.5v8.2h-1.4v-8.2H309.3z"/>
	<path class="st2" d="M312.1,342.6v-4.9h-1.3v-1.2h1.3v-2.2h1.4v2.2h2v1.2h-2v4.8c0,0.8,0.4,1.1,1.1,1.1c0.4,0,0.7-0.1,1.1-0.3v1.3
		c-0.3,0.2-0.8,0.3-1.3,0.3c-0.7,0-1.2-0.2-1.6-0.6C312.3,343.9,312.1,343.3,312.1,342.6z"/>
	<path class="st2" d="M317.9,343.6c-0.7-0.8-1-1.8-1-3.1c0-1.3,0.3-2.3,1-3.1c0.7-0.8,1.6-1.2,2.7-1.2c0.9,0,1.6,0.2,2.2,0.7
		c0.6,0.5,0.9,1.1,1.1,1.9h-1.4c-0.1-0.4-0.3-0.8-0.6-1c-0.3-0.2-0.7-0.4-1.2-0.4c-0.7,0-1.3,0.3-1.7,0.8c-0.4,0.6-0.6,1.3-0.6,2.2
		c0,0.9,0.2,1.6,0.6,2.2c0.4,0.6,1,0.8,1.7,0.8c0.5,0,0.9-0.1,1.2-0.4c0.3-0.3,0.5-0.6,0.6-1h1.4c-0.1,0.8-0.5,1.4-1.1,1.9
		c-0.6,0.5-1.3,0.7-2.2,0.7C319.5,344.8,318.6,344.4,317.9,343.6z"/>
	<path class="st2" d="M325.7,344.6v-12h1.4v4.8c0.3-0.3,0.6-0.6,1-0.9c0.4-0.2,0.9-0.3,1.4-0.3c0.9,0,1.6,0.3,2.1,0.8
		c0.5,0.5,0.8,1.3,0.8,2.2v5.4H331v-5.1c0-0.6-0.1-1.1-0.5-1.4c-0.3-0.3-0.8-0.5-1.4-0.5c-0.5,0-0.9,0.1-1.3,0.4
		c-0.4,0.3-0.6,0.7-0.8,1.1v5.5L325.7,344.6L325.7,344.6z"/>
	<path class="st2" d="M335.1,343.6c-0.7-0.8-1-1.8-1-3.1c0-1.3,0.3-2.3,1-3.1c0.7-0.8,1.6-1.2,2.7-1.2c0.9,0,1.6,0.2,2.2,0.7
		c0.6,0.5,0.9,1.1,1.1,1.9h-1.4c-0.1-0.4-0.3-0.8-0.6-1c-0.3-0.2-0.7-0.4-1.2-0.4c-0.7,0-1.3,0.3-1.7,0.8c-0.4,0.6-0.6,1.3-0.6,2.2
		c0,0.9,0.2,1.6,0.6,2.2c0.4,0.6,1,0.8,1.7,0.8c0.5,0,0.9-0.1,1.2-0.4c0.3-0.3,0.5-0.6,0.6-1h1.4c-0.1,0.8-0.5,1.4-1.1,1.9
		c-0.6,0.5-1.3,0.7-2.2,0.7C336.7,344.8,335.8,344.4,335.1,343.6z"/>
	<path class="st2" d="M348.8,337.5c0.7,0.8,1,1.8,1,3.1s-0.3,2.3-1,3.1c-0.7,0.8-1.6,1.2-2.7,1.2s-2-0.4-2.7-1.2
		c-0.7-0.8-1-1.8-1-3.1s0.3-2.3,1-3.1c0.7-0.8,1.6-1.2,2.7-1.2S348.1,336.7,348.8,337.5z M347.8,342.8c0.4-0.6,0.6-1.3,0.6-2.2
		c0-0.9-0.2-1.6-0.6-2.2c-0.4-0.6-1-0.8-1.7-0.8s-1.3,0.3-1.7,0.8c-0.4,0.6-0.6,1.3-0.6,2.2c0,0.9,0.2,1.6,0.6,2.2
		c0.4,0.6,1,0.8,1.7,0.8C346.8,343.6,347.3,343.3,347.8,342.8z"/>
	<path class="st2" d="M352.2,343.6c-0.7-0.8-1-1.8-1-3.1c0-1.3,0.3-2.3,1-3.1c0.7-0.8,1.6-1.2,2.7-1.2c0.9,0,1.6,0.2,2.2,0.7
		c0.6,0.5,0.9,1.1,1.1,1.9h-1.4c-0.1-0.4-0.3-0.8-0.6-1c-0.3-0.2-0.7-0.4-1.2-0.4c-0.7,0-1.3,0.3-1.7,0.8c-0.4,0.6-0.6,1.3-0.6,2.2
		c0,0.9,0.2,1.6,0.6,2.2c0.4,0.6,1,0.8,1.7,0.8c0.5,0,0.9-0.1,1.2-0.4c0.3-0.3,0.5-0.6,0.6-1h1.4c-0.1,0.8-0.5,1.4-1.1,1.9
		c-0.6,0.5-1.3,0.7-2.2,0.7C353.7,344.8,352.8,344.4,352.2,343.6z"/>
	<path class="st2" d="M365.3,344.6l-3.1-3.8l-0.9,0.8v2.9h-1.4v-12h1.4v7.4l3.7-3.6h1.8l-3.7,3.5l3.8,4.6L365.3,344.6L365.3,344.6z"
		/>
	<path class="st2" d="M377.4,337.6l-0.8,4.5c-0.1,0.7,0.1,1,0.7,1c0.7,0,1.2-0.3,1.7-0.9c0.4-0.6,0.6-1.5,0.6-2.5
		c0-1.3-0.5-2.4-1.4-3.2c-0.9-0.8-2.1-1.2-3.6-1.2c-1.7,0-3.1,0.6-4.2,1.7c-1.1,1.1-1.6,2.5-1.6,4.3c0,0.9,0.2,1.8,0.5,2.5
		c0.3,0.7,0.8,1.3,1.4,1.6s1.2,0.7,1.9,0.9c0.7,0.2,1.4,0.3,2.1,0.3c1.4,0,2.8-0.3,4-0.8v1c-1.2,0.6-2.5,0.8-4,0.8
		c-0.7,0-1.4-0.1-2.1-0.2c-0.7-0.2-1.3-0.4-1.9-0.7c-0.6-0.3-1.1-0.7-1.6-1.2c-0.4-0.5-0.8-1.1-1-1.8c-0.3-0.7-0.4-1.5-0.4-2.3
		c0-2,0.6-3.6,2-5s3-2,5-2c1.8,0,3.3,0.5,4.4,1.5c1.1,1,1.7,2.3,1.7,3.9c0,1.4-0.4,2.5-1.1,3.3c-0.7,0.8-1.5,1.2-2.5,1.2
		c-0.4,0-0.8-0.1-1.2-0.3c-0.3-0.2-0.6-0.5-0.7-0.8c-0.2,0.3-0.5,0.6-0.8,0.8c-0.4,0.2-0.7,0.3-1.1,0.3c-0.7,0-1.3-0.3-1.8-0.8
		c-0.4-0.5-0.7-1.2-0.7-2c0-1,0.3-2,0.9-2.7s1.4-1.2,2.4-1.2c0.8,0,1.3,0.3,1.7,0.8l0.1-0.7L377.4,337.6L377.4,337.6L377.4,337.6z
		 M375.4,341.9l0.4-2.3c-0.1-0.3-0.3-0.5-0.5-0.7c-0.2-0.2-0.5-0.3-0.8-0.3c-0.6,0-1.2,0.3-1.6,0.8s-0.6,1.2-0.6,1.9
		c0,0.5,0.1,0.9,0.4,1.2c0.3,0.3,0.6,0.5,1,0.5C374.4,342.9,374.9,342.6,375.4,341.9z"/>
	<path class="st2" d="M388.4,337.6c0.6-0.9,1.4-1.3,2.5-1.3c0.8,0,1.5,0.3,1.9,0.8c0.4,0.5,0.7,1.2,0.7,2.1v5.4h-1.4v-5.2
		c0-0.6-0.1-1.1-0.4-1.4c-0.3-0.3-0.6-0.5-1.2-0.5c-0.4,0-0.8,0.1-1.1,0.4c-0.3,0.3-0.6,0.6-0.7,1.1v5.6h-1.4v-5.2
		c0-0.6-0.1-1.1-0.4-1.4s-0.6-0.5-1.2-0.5c-0.4,0-0.8,0.1-1.1,0.4c-0.3,0.3-0.6,0.6-0.7,1.1v5.6h-1.4v-8.2h1.4v1
		c0.5-0.7,1.2-1.1,2.2-1.1C387.2,336.3,388,336.7,388.4,337.6z"/>
	<path class="st2" d="M401.7,344.6h-1.3V344c-0.2,0.2-0.5,0.4-0.9,0.5c-0.4,0.2-0.8,0.2-1.3,0.2c-0.9,0-1.6-0.2-2.2-0.7
		s-0.9-1.1-0.9-1.9c0-0.7,0.3-1.4,0.9-1.8c0.6-0.5,1.3-0.7,2.2-0.7c0.4,0,0.8,0.1,1.2,0.2s0.7,0.3,0.9,0.5v-1c0-0.5-0.2-1-0.5-1.3
		c-0.3-0.3-0.8-0.5-1.3-0.5c-0.9,0-1.4,0.4-1.7,1.1h-1.4c0.1-0.7,0.5-1.2,1-1.7c0.6-0.4,1.2-0.6,2-0.6c1,0,1.7,0.3,2.3,0.8
		c0.6,0.5,0.8,1.2,0.8,2.1L401.7,344.6L401.7,344.6z M400.4,342.6v-0.8c-0.1-0.3-0.4-0.5-0.7-0.7c-0.4-0.2-0.8-0.3-1.2-0.3
		c-0.5,0-1,0.1-1.4,0.4s-0.6,0.6-0.6,1c0,0.5,0.2,0.8,0.6,1.1s0.8,0.4,1.4,0.4c0.4,0,0.8-0.1,1.2-0.3
		C400,343.1,400.3,342.9,400.4,342.6z"/>
	<path class="st2" d="M405.4,333.4c0.2,0.2,0.3,0.4,0.3,0.6c0,0.2-0.1,0.5-0.3,0.6c-0.2,0.2-0.4,0.3-0.6,0.3c-0.2,0-0.5-0.1-0.6-0.3
		c-0.2-0.2-0.3-0.4-0.3-0.6c0-0.2,0.1-0.5,0.3-0.6c0.2-0.2,0.4-0.3,0.6-0.3C405,333.1,405.2,333.2,405.4,333.4z M405.5,336.5v8.2
		h-1.4v-8.2H405.5z"/>
	<path class="st2" d="M409.3,332.7v12h-1.4v-12H409.3z"/>
	<path class="st2" d="M411.4,344.4c-0.2-0.2-0.3-0.4-0.3-0.7c0-0.3,0.1-0.5,0.3-0.7c0.2-0.2,0.4-0.3,0.7-0.3c0.3,0,0.5,0.1,0.7,0.3
		c0.2,0.2,0.3,0.4,0.3,0.7c0,0.3-0.1,0.5-0.3,0.7c-0.2,0.2-0.4,0.3-0.7,0.3C411.8,344.7,411.6,344.6,411.4,344.4z"/>
	<path class="st2" d="M415.1,343.6c-0.7-0.8-1-1.8-1-3.1c0-1.3,0.3-2.3,1-3.1c0.7-0.8,1.6-1.2,2.7-1.2c0.9,0,1.6,0.2,2.2,0.7
		c0.6,0.5,0.9,1.1,1.1,1.9h-1.4c-0.1-0.4-0.3-0.8-0.6-1c-0.3-0.2-0.7-0.4-1.2-0.4c-0.7,0-1.3,0.3-1.7,0.8c-0.4,0.6-0.6,1.3-0.6,2.2
		c0,0.9,0.2,1.6,0.6,2.2c0.4,0.6,1,0.8,1.7,0.8c0.5,0,0.9-0.1,1.2-0.4s0.5-0.6,0.6-1h1.4c-0.1,0.8-0.5,1.4-1.1,1.9
		c-0.6,0.5-1.3,0.7-2.2,0.7C416.7,344.8,415.8,344.4,415.1,343.6z"/>
	<path class="st2" d="M428.7,337.5c0.7,0.8,1,1.8,1,3.1s-0.3,2.3-1,3.1c-0.7,0.8-1.6,1.2-2.7,1.2s-2-0.4-2.7-1.2
		c-0.7-0.8-1-1.8-1-3.1s0.3-2.3,1-3.1c0.7-0.8,1.6-1.2,2.7-1.2S428.1,336.7,428.7,337.5z M427.8,342.8c0.4-0.6,0.6-1.3,0.6-2.2
		c0-0.9-0.2-1.6-0.6-2.2c-0.4-0.6-1-0.8-1.7-0.8s-1.3,0.3-1.7,0.8c-0.4,0.6-0.6,1.3-0.6,2.2c0,0.9,0.2,1.6,0.6,2.2
		c0.4,0.6,1,0.8,1.7,0.8S427.3,343.3,427.8,342.8z"/>
	<path class="st2" d="M437.5,337.6c0.6-0.9,1.4-1.3,2.5-1.3c0.8,0,1.5,0.3,1.9,0.8c0.4,0.5,0.7,1.2,0.7,2.1v5.4h-1.4v-5.2
		c0-0.6-0.1-1.1-0.4-1.4s-0.6-0.5-1.2-0.5c-0.4,0-0.8,0.1-1.1,0.4c-0.3,0.3-0.6,0.6-0.7,1.1v5.6h-1.4v-5.2c0-0.6-0.1-1.1-0.4-1.4
		c-0.3-0.3-0.6-0.5-1.2-0.5c-0.4,0-0.8,0.1-1.1,0.4c-0.3,0.3-0.6,0.6-0.7,1.1v5.6h-1.4v-8.2h1.4v1c0.5-0.7,1.2-1.1,2.2-1.1
		C436.3,336.3,437,336.7,437.5,337.6z"/>
</g>
<g>
	<rect x="213.8" y="379.4" class="st1" width="27.8" height="27.8"/>
</g>
<g>
	<path class="st2" d="M258.7,398.9v-8.2h1.4v1c0.3-0.3,0.6-0.6,1-0.9c0.4-0.2,0.9-0.3,1.4-0.3c0.9,0,1.6,0.3,2.1,0.8
		c0.5,0.5,0.8,1.3,0.8,2.2v5.4H264v-5.1c0-0.6-0.1-1.1-0.5-1.4c-0.3-0.3-0.8-0.5-1.4-0.5c-0.5,0-0.9,0.1-1.3,0.4
		c-0.4,0.3-0.6,0.7-0.8,1.1v5.5L258.7,398.9L258.7,398.9L258.7,398.9z"/>
	<path class="st2" d="M273.6,398.9h-1.3v-0.6c-0.2,0.2-0.5,0.4-0.9,0.5c-0.4,0.2-0.8,0.2-1.3,0.2c-0.9,0-1.6-0.2-2.2-0.7
		c-0.6-0.5-0.9-1.1-0.9-1.9c0-0.7,0.3-1.4,0.9-1.8c0.6-0.5,1.3-0.7,2.2-0.7c0.4,0,0.8,0.1,1.2,0.2c0.4,0.1,0.7,0.3,0.9,0.5v-1
		c0-0.5-0.2-1-0.5-1.3s-0.8-0.5-1.3-0.5c-0.9,0-1.4,0.4-1.7,1.1h-1.4c0.1-0.7,0.5-1.2,1-1.7c0.6-0.4,1.2-0.6,2-0.6
		c1,0,1.7,0.3,2.3,0.8c0.6,0.5,0.8,1.2,0.8,2.1L273.6,398.9L273.6,398.9z M272.3,396.8V396c-0.1-0.3-0.4-0.5-0.7-0.7
		c-0.4-0.2-0.8-0.3-1.2-0.3c-0.5,0-1,0.1-1.4,0.4s-0.6,0.6-0.6,1c0,0.5,0.2,0.8,0.6,1.1s0.8,0.4,1.4,0.4c0.4,0,0.8-0.1,1.2-0.3
		C271.9,397.4,272.2,397.1,272.3,396.8z"/>
	<path class="st2" d="M281.8,391.8c0.6-0.9,1.4-1.3,2.5-1.3c0.8,0,1.5,0.3,1.9,0.8c0.4,0.5,0.7,1.2,0.7,2.1v5.4h-1.4v-5.2
		c0-0.6-0.1-1.1-0.4-1.4s-0.6-0.5-1.2-0.5c-0.4,0-0.8,0.1-1.1,0.4c-0.3,0.3-0.6,0.6-0.7,1.1v5.6h-1.4v-5.2c0-0.6-0.1-1.1-0.4-1.4
		c-0.3-0.3-0.6-0.5-1.2-0.5c-0.4,0-0.8,0.1-1.1,0.4c-0.3,0.3-0.6,0.6-0.7,1.1v5.6H276v-8.2h1.4v1c0.5-0.7,1.2-1.1,2.2-1.1
		C280.6,390.5,281.4,391,281.8,391.8z"/>
	<path class="st2" d="M294.4,396.4h1.3c-0.1,0.8-0.5,1.4-1.1,1.9c-0.6,0.5-1.3,0.7-2.2,0.7c-1.1,0-2-0.4-2.7-1.2s-1-1.8-1-3.1
		c0-1.2,0.3-2.3,1-3.1c0.7-0.8,1.6-1.2,2.7-1.2c1.1,0,1.9,0.4,2.5,1.1c0.6,0.7,0.9,1.7,0.9,2.9v0.5H290c0,0.9,0.2,1.5,0.7,2.1
		c0.4,0.5,1,0.8,1.7,0.8c0.5,0,0.9-0.1,1.3-0.4C294,397.2,294.2,396.9,294.4,396.4z M292.3,391.7c-0.6,0-1.1,0.2-1.5,0.6
		c-0.4,0.4-0.7,1-0.8,1.7h4.3c0-0.6-0.2-1.2-0.5-1.6C293.5,391.9,293,391.7,292.3,391.7z"/>
	<path class="st2" d="M306.9,391.9l-0.8,4.5c-0.1,0.7,0.1,1,0.7,1c0.7,0,1.2-0.3,1.7-0.9c0.4-0.6,0.6-1.5,0.6-2.5
		c0-1.3-0.5-2.4-1.4-3.2c-0.9-0.8-2.1-1.2-3.6-1.2c-1.7,0-3.1,0.6-4.2,1.7c-1.1,1.1-1.6,2.5-1.6,4.3c0,0.9,0.2,1.8,0.5,2.5
		c0.3,0.7,0.8,1.3,1.4,1.6c0.6,0.4,1.2,0.7,1.9,0.9c0.7,0.2,1.4,0.3,2.1,0.3c1.4,0,2.8-0.3,4-0.9v1c-1.2,0.6-2.5,0.8-4,0.8
		c-0.7,0-1.4-0.1-2.1-0.2c-0.7-0.2-1.3-0.4-1.9-0.7s-1.1-0.7-1.6-1.2c-0.4-0.5-0.8-1.1-1-1.8c-0.3-0.7-0.4-1.5-0.4-2.4
		c0-2,0.6-3.6,2-5c1.3-1.3,3-2,5-2c1.8,0,3.3,0.5,4.4,1.5s1.7,2.3,1.7,3.9c0,1.4-0.4,2.5-1.1,3.3c-0.7,0.8-1.5,1.2-2.5,1.2
		c-0.4,0-0.8-0.1-1.2-0.3c-0.3-0.2-0.6-0.5-0.7-0.8c-0.2,0.3-0.5,0.6-0.8,0.8c-0.4,0.2-0.7,0.3-1.1,0.3c-0.7,0-1.3-0.3-1.8-0.8
		c-0.4-0.5-0.7-1.2-0.7-2c0-1,0.3-2,0.9-2.7s1.4-1.2,2.4-1.2c0.8,0,1.3,0.3,1.7,0.8l0.1-0.7L306.9,391.9L306.9,391.9L306.9,391.9z
		 M304.9,396.1l0.4-2.3c-0.1-0.3-0.3-0.5-0.5-0.7c-0.2-0.2-0.5-0.3-0.8-0.3c-0.6,0-1.2,0.3-1.6,0.8c-0.4,0.5-0.6,1.2-0.6,1.9
		c0,0.5,0.1,0.9,0.4,1.2c0.3,0.3,0.6,0.5,1,0.5C303.9,397.2,304.4,396.8,304.9,396.1z"/>
	<path class="st2" d="M313.5,386.9v12h-1.4v-12H313.5z"/>
	<path class="st2" d="M321.9,398.9h-1.3v-0.6c-0.2,0.2-0.5,0.4-0.9,0.5c-0.4,0.2-0.8,0.2-1.3,0.2c-0.9,0-1.6-0.2-2.2-0.7
		c-0.6-0.5-0.9-1.1-0.9-1.9c0-0.7,0.3-1.4,0.9-1.8c0.6-0.5,1.3-0.7,2.2-0.7c0.4,0,0.8,0.1,1.2,0.2c0.4,0.1,0.7,0.3,0.9,0.5v-1
		c0-0.5-0.2-1-0.5-1.3c-0.3-0.3-0.8-0.5-1.3-0.5c-0.9,0-1.4,0.4-1.7,1.1h-1.4c0.1-0.7,0.5-1.2,1-1.7c0.6-0.4,1.2-0.6,2-0.6
		c1,0,1.7,0.3,2.3,0.8c0.6,0.5,0.8,1.2,0.8,2.1L321.9,398.9L321.9,398.9z M320.6,396.8V396c-0.1-0.3-0.4-0.5-0.7-0.7
		c-0.4-0.2-0.8-0.3-1.2-0.3c-0.5,0-1,0.1-1.4,0.4c-0.4,0.2-0.6,0.6-0.6,1c0,0.5,0.2,0.8,0.6,1.1c0.4,0.3,0.8,0.4,1.4,0.4
		c0.4,0,0.8-0.1,1.2-0.3C320.2,397.4,320.4,397.1,320.6,396.8z"/>
	<path class="st2" d="M323.6,396.6h1.4c0.3,0.8,0.9,1.3,1.9,1.3c0.5,0,0.9-0.1,1.2-0.3c0.3-0.2,0.5-0.5,0.5-0.9
		c0-0.6-0.4-0.9-1.2-1.1l-1.6-0.4c-1.3-0.3-2-1-2-2.2c0-0.7,0.3-1.3,0.8-1.7c0.6-0.4,1.3-0.7,2.1-0.7c0.9,0,1.6,0.2,2.1,0.6
		s0.9,1,1,1.7h-1.4c-0.2-0.8-0.8-1.2-1.8-1.2c-0.4,0-0.8,0.1-1.1,0.3c-0.3,0.2-0.5,0.5-0.5,0.9c0,0.3,0.1,0.5,0.3,0.6
		c0.2,0.2,0.5,0.3,0.9,0.4l1.6,0.4c1.4,0.4,2.1,1.1,2.1,2.3c0,0.8-0.3,1.4-0.8,1.8c-0.6,0.4-1.3,0.7-2.2,0.7s-1.6-0.2-2.3-0.6
		C324,398,323.7,397.4,323.6,396.6z"/>
	<path class="st2" d="M332.2,396.8v-4.9h-1.3v-1.2h1.3v-2.2h1.4v2.2h2v1.2h-2v4.8c0,0.8,0.4,1.1,1.1,1.1c0.4,0,0.7-0.1,1.1-0.3v1.3
		c-0.3,0.2-0.8,0.3-1.3,0.3c-0.7,0-1.2-0.2-1.6-0.6C332.5,398.1,332.2,397.5,332.2,396.8z"/>
	<path class="st2" d="M339.1,397.9v4.1h-1.4v-11.3h1.4v1c0.2-0.3,0.6-0.6,1-0.8c0.4-0.2,0.9-0.3,1.3-0.3c1.2,0,2.1,0.4,2.7,1.2
		s1,1.8,1,3s-0.3,2.2-1,3c-0.6,0.8-1.6,1.2-2.7,1.2c-0.5,0-0.9-0.1-1.3-0.3C339.6,398.5,339.3,398.2,339.1,397.9z M339.1,393.1v3.3
		c0.2,0.4,0.5,0.7,0.9,1c0.4,0.2,0.8,0.4,1.2,0.4c0.8,0,1.4-0.3,1.8-0.8s0.7-1.3,0.7-2.2c0-0.9-0.2-1.6-0.7-2.2s-1.1-0.8-1.8-0.8
		c-0.4,0-0.9,0.1-1.2,0.4S339.3,392.7,339.1,393.1z"/>
	<path class="st2" d="M352.9,398.9h-1.3v-0.6c-0.2,0.2-0.5,0.4-0.9,0.5c-0.4,0.2-0.8,0.2-1.3,0.2c-0.9,0-1.6-0.2-2.2-0.7
		c-0.6-0.5-0.9-1.1-0.9-1.9c0-0.7,0.3-1.4,0.9-1.8c0.6-0.5,1.3-0.7,2.2-0.7c0.4,0,0.8,0.1,1.2,0.2c0.4,0.1,0.7,0.3,0.9,0.5v-1
		c0-0.5-0.2-1-0.5-1.3c-0.3-0.3-0.8-0.5-1.3-0.5c-0.9,0-1.4,0.4-1.7,1.1h-1.4c0.1-0.7,0.5-1.2,1-1.7s1.2-0.6,2-0.6
		c1,0,1.7,0.3,2.3,0.8c0.6,0.5,0.8,1.2,0.8,2.1L352.9,398.9L352.9,398.9z M351.5,396.8V396c-0.1-0.3-0.4-0.5-0.7-0.7
		c-0.4-0.2-0.8-0.3-1.2-0.3c-0.5,0-1,0.1-1.4,0.4s-0.6,0.6-0.6,1c0,0.5,0.2,0.8,0.6,1.1s0.8,0.4,1.4,0.4c0.4,0,0.8-0.1,1.2-0.3
		C351.2,397.4,351.4,397.1,351.5,396.8z"/>
	<path class="st2" d="M354.5,396.6h1.4c0.3,0.8,0.9,1.3,1.9,1.3c0.5,0,0.9-0.1,1.2-0.3c0.3-0.2,0.5-0.5,0.5-0.9
		c0-0.6-0.4-0.9-1.2-1.1l-1.6-0.4c-1.3-0.3-2-1-2-2.2c0-0.7,0.3-1.3,0.8-1.7c0.6-0.4,1.3-0.7,2.1-0.7c0.9,0,1.6,0.2,2.1,0.6
		s0.9,1,1,1.7h-1.4c-0.2-0.8-0.8-1.2-1.8-1.2c-0.4,0-0.8,0.1-1.1,0.3c-0.3,0.2-0.5,0.5-0.5,0.9c0,0.3,0.1,0.5,0.3,0.6
		c0.2,0.2,0.5,0.3,0.9,0.4l1.6,0.4c1.4,0.4,2.1,1.1,2.1,2.3c0,0.8-0.3,1.4-0.8,1.8c-0.6,0.4-1.3,0.7-2.2,0.7c-0.9,0-1.6-0.2-2.3-0.6
		C355,398,354.7,397.4,354.5,396.6z"/>
	<path class="st2" d="M362.2,396.6h1.4c0.3,0.8,0.9,1.3,1.9,1.3c0.5,0,0.9-0.1,1.2-0.3c0.3-0.2,0.5-0.5,0.5-0.9
		c0-0.6-0.4-0.9-1.2-1.1l-1.6-0.4c-1.3-0.3-2-1-2-2.2c0-0.7,0.3-1.3,0.8-1.7c0.6-0.4,1.3-0.7,2.1-0.7c0.9,0,1.6,0.2,2.1,0.6
		s0.9,1,1,1.7h-1.4c-0.2-0.8-0.8-1.2-1.8-1.2c-0.4,0-0.8,0.1-1.1,0.3c-0.3,0.2-0.5,0.5-0.5,0.9c0,0.3,0.1,0.5,0.3,0.6
		c0.2,0.2,0.5,0.3,0.9,0.4l1.6,0.4c1.4,0.4,2.1,1.1,2.1,2.3c0,0.8-0.3,1.4-0.8,1.8c-0.6,0.4-1.3,0.7-2.2,0.7c-0.9,0-1.6-0.2-2.3-0.6
		C362.7,398,362.3,397.4,362.2,396.6z"/>
	<path class="st2" d="M370.2,398.7c-0.2-0.2-0.3-0.4-0.3-0.7c0-0.3,0.1-0.5,0.3-0.7c0.2-0.2,0.4-0.3,0.7-0.3c0.3,0,0.5,0.1,0.7,0.3
		c0.2,0.2,0.3,0.4,0.3,0.7c0,0.3-0.1,0.5-0.3,0.7c-0.2,0.2-0.4,0.3-0.7,0.3C370.6,399,370.3,398.9,370.2,398.7z"/>
	<path class="st2" d="M373.9,397.9c-0.7-0.8-1-1.8-1-3.1c0-1.3,0.3-2.3,1-3.1c0.7-0.8,1.6-1.2,2.7-1.2c0.9,0,1.6,0.2,2.2,0.7
		c0.6,0.5,0.9,1.1,1.1,1.9h-1.4c-0.1-0.4-0.3-0.8-0.6-1c-0.3-0.2-0.7-0.4-1.2-0.4c-0.7,0-1.3,0.3-1.7,0.9c-0.4,0.6-0.6,1.3-0.6,2.2
		c0,0.9,0.2,1.6,0.6,2.2s1,0.8,1.7,0.8c0.5,0,0.9-0.1,1.2-0.4c0.3-0.3,0.5-0.6,0.6-1h1.4c-0.1,0.8-0.5,1.4-1.1,1.9
		c-0.6,0.5-1.3,0.7-2.2,0.7C375.4,399,374.6,398.6,373.9,397.9z"/>
	<path class="st2" d="M387.5,391.7c0.7,0.8,1,1.8,1,3.1s-0.3,2.3-1,3.1c-0.7,0.8-1.6,1.2-2.7,1.2c-1.1,0-2-0.4-2.7-1.2
		c-0.7-0.8-1-1.8-1-3.1s0.3-2.3,1-3.1c0.7-0.8,1.6-1.2,2.7-1.2S386.8,390.9,387.5,391.7z M386.5,397c0.4-0.6,0.6-1.3,0.6-2.2
		s-0.2-1.6-0.6-2.2c-0.4-0.6-1-0.8-1.7-0.8c-0.7,0-1.3,0.3-1.7,0.8c-0.4,0.6-0.6,1.3-0.6,2.2s0.2,1.6,0.6,2.2s1,0.8,1.7,0.8
		C385.5,397.8,386.1,397.5,386.5,397z"/>
	<path class="st2" d="M396.2,391.8c0.6-0.9,1.4-1.3,2.5-1.3c0.8,0,1.5,0.3,1.9,0.8c0.4,0.5,0.7,1.2,0.7,2.1v5.4h-1.4v-5.2
		c0-0.6-0.1-1.1-0.4-1.4s-0.6-0.5-1.2-0.5c-0.4,0-0.8,0.1-1.1,0.4c-0.3,0.3-0.6,0.6-0.7,1.1v5.6h-1.4v-5.2c0-0.6-0.1-1.1-0.4-1.4
		s-0.6-0.5-1.2-0.5c-0.4,0-0.8,0.1-1.1,0.4c-0.3,0.3-0.6,0.6-0.7,1.1v5.6h-1.4v-8.2h1.4v1c0.5-0.7,1.2-1.1,2.2-1.1
		C395,390.5,395.8,391,396.2,391.8z"/>
</g>
<g>
	<path class="st7" d="M535.7,328.8h0.7l1.5,5.8l1.5-5.8h0.9l-1.9,7.3h-0.9l-1.5-5.7l-1.6,5.7h-0.8l-1.9-7.3h0.9l1.5,5.8L535.7,328.8
		z"/>
	<path class="st7" d="M544.9,336.1H544v-0.4c-0.1,0.1-0.3,0.2-0.6,0.3c-0.3,0.1-0.5,0.2-0.8,0.2c-0.6,0-1-0.2-1.4-0.5
		c-0.4-0.3-0.6-0.7-0.6-1.2c0-0.5,0.2-0.9,0.6-1.2s0.9-0.5,1.4-0.5c0.3,0,0.5,0,0.8,0.1c0.3,0.1,0.4,0.2,0.6,0.3v-0.7
		c0-0.3-0.1-0.6-0.3-0.8c-0.2-0.2-0.5-0.3-0.9-0.3c-0.6,0-0.9,0.2-1.1,0.7h-0.9c0.1-0.4,0.3-0.8,0.7-1.1c0.4-0.3,0.8-0.4,1.3-0.4
		c0.6,0,1.1,0.2,1.5,0.5c0.4,0.3,0.5,0.8,0.5,1.4L544.9,336.1L544.9,336.1L544.9,336.1z M544,334.8v-0.5c-0.1-0.2-0.2-0.3-0.5-0.5
		c-0.2-0.1-0.5-0.2-0.8-0.2c-0.3,0-0.6,0.1-0.9,0.2c-0.2,0.2-0.4,0.4-0.4,0.7c0,0.3,0.1,0.5,0.4,0.7c0.2,0.2,0.5,0.2,0.9,0.2
		c0.3,0,0.5-0.1,0.8-0.2C543.8,335.1,543.9,335,544,334.8z"/>
	<path class="st7" d="M547.2,328.8c0.1,0.1,0.2,0.2,0.2,0.4c0,0.2-0.1,0.3-0.2,0.4c-0.1,0.1-0.2,0.2-0.4,0.2s-0.3-0.1-0.4-0.2
		c-0.1-0.1-0.2-0.2-0.2-0.4c0-0.2,0.1-0.3,0.2-0.4c0.1-0.1,0.2-0.2,0.4-0.2S547.1,328.7,547.2,328.8z M547.3,330.8v5.3h-0.9v-5.3
		H547.3z"/>
	<path class="st7" d="M549.1,334.7v-3.2h-0.9v-0.8h0.9v-1.4h0.9v1.4h1.3v0.8H550v3.1c0,0.5,0.2,0.7,0.7,0.7c0.2,0,0.5-0.1,0.7-0.2
		v0.8c-0.2,0.1-0.5,0.2-0.8,0.2c-0.4,0-0.8-0.1-1.1-0.4S549.1,335.2,549.1,334.7z"/>
	<path class="st7" d="M553.5,328.8c0.1,0.1,0.2,0.2,0.2,0.4c0,0.2-0.1,0.3-0.2,0.4c-0.1,0.1-0.2,0.2-0.4,0.2s-0.3-0.1-0.4-0.2
		c-0.1-0.1-0.2-0.2-0.2-0.4c0-0.2,0.1-0.3,0.2-0.4c0.1-0.1,0.2-0.2,0.4-0.2C553.2,328.7,553.3,328.7,553.5,328.8z M553.5,330.8v5.3
		h-0.9v-5.3H553.5z"/>
	<path class="st7" d="M555.1,336.1v-5.3h0.9v0.7c0.2-0.2,0.4-0.4,0.7-0.6c0.3-0.1,0.6-0.2,0.9-0.2c0.6,0,1,0.2,1.4,0.5
		c0.3,0.3,0.5,0.8,0.5,1.4v3.4h-0.9v-3.3c0-0.4-0.1-0.7-0.3-0.9c-0.2-0.2-0.5-0.3-0.9-0.3c-0.3,0-0.6,0.1-0.8,0.3
		c-0.2,0.2-0.4,0.4-0.5,0.7v3.6L555.1,336.1L555.1,336.1L555.1,336.1z"/>
	<path class="st7" d="M564.3,335.7v-0.4c-0.1,0.2-0.3,0.4-0.6,0.5c-0.3,0.1-0.6,0.2-0.9,0.2c-0.7,0-1.3-0.3-1.7-0.8
		c-0.4-0.5-0.6-1.1-0.6-1.9c0-0.7,0.2-1.4,0.6-1.9c0.4-0.5,1-0.8,1.7-0.8c0.3,0,0.6,0.1,0.9,0.2c0.3,0.1,0.5,0.3,0.6,0.5v-0.6h0.9
		v4.8c0,0.8-0.2,1.5-0.6,1.9c-0.4,0.4-1,0.6-1.7,0.6c-0.6,0-1.1-0.2-1.5-0.5c-0.4-0.3-0.6-0.7-0.7-1.3h0.9c0.1,0.7,0.6,1,1.4,1
		C563.8,337.4,564.3,336.9,564.3,335.7z M564.3,334.4v-2.1c-0.3-0.5-0.7-0.8-1.3-0.8c-0.5,0-0.9,0.2-1.2,0.5
		c-0.3,0.3-0.4,0.8-0.4,1.4s0.1,1,0.4,1.3c0.3,0.3,0.7,0.5,1.2,0.5C563.6,335.2,564,335,564.3,334.4z"/>
	<path class="st7" d="M570.3,335.5v2.6h-0.9v-7.3h0.9v0.6c0.2-0.2,0.4-0.4,0.6-0.5c0.3-0.1,0.6-0.2,0.9-0.2c0.7,0,1.3,0.3,1.7,0.8
		c0.4,0.5,0.6,1.2,0.6,1.9s-0.2,1.4-0.6,1.9c-0.4,0.5-1,0.8-1.7,0.8c-0.3,0-0.6-0.1-0.9-0.2S570.5,335.7,570.3,335.5z M570.3,332.4
		v2.1c0.1,0.3,0.3,0.5,0.6,0.6c0.2,0.2,0.5,0.2,0.8,0.2c0.5,0,0.9-0.2,1.2-0.5c0.3-0.4,0.4-0.8,0.4-1.4c0-0.6-0.1-1-0.4-1.4
		c-0.3-0.4-0.7-0.5-1.2-0.5c-0.3,0-0.5,0.1-0.8,0.2C570.6,331.9,570.4,332.1,570.3,332.4z"/>
	<path class="st7" d="M578.7,334.5h0.8c-0.1,0.5-0.3,0.9-0.7,1.2s-0.8,0.5-1.4,0.5c-0.7,0-1.3-0.2-1.7-0.8c-0.4-0.5-0.7-1.2-0.7-2
		c0-0.8,0.2-1.5,0.7-2c0.4-0.5,1-0.8,1.7-0.8c0.7,0,1.2,0.2,1.6,0.7c0.4,0.5,0.6,1.1,0.6,1.9v0.3h-3.7c0,0.6,0.2,1,0.4,1.3
		c0.3,0.3,0.6,0.5,1.1,0.5c0.3,0,0.6-0.1,0.8-0.2C578.5,335,578.6,334.8,578.7,334.5z M577.4,331.5c-0.4,0-0.7,0.1-1,0.4
		s-0.4,0.6-0.5,1.1h2.8c0-0.4-0.1-0.8-0.3-1S577.8,331.5,577.4,331.5z"/>
	<path class="st7" d="M583.5,330.8v0.9c-0.1-0.1-0.3-0.1-0.6-0.1c-0.3,0-0.5,0.1-0.8,0.3c-0.2,0.2-0.4,0.4-0.5,0.7v3.5h-0.9v-5.3
		h0.9v0.7c0.1-0.2,0.3-0.4,0.5-0.6c0.2-0.1,0.5-0.2,0.8-0.2C583.2,330.7,583.4,330.7,583.5,330.8z"/>
	<path class="st7" d="M585.4,328.8c0.1,0.1,0.2,0.2,0.2,0.4c0,0.2-0.1,0.3-0.2,0.4c-0.1,0.1-0.3,0.2-0.4,0.2c-0.2,0-0.3-0.1-0.4-0.2
		s-0.2-0.2-0.2-0.4c0-0.2,0.1-0.3,0.2-0.4s0.2-0.2,0.4-0.2C585.2,328.7,585.3,328.7,585.4,328.8z M585.5,330.8v5.3h-0.9v-5.3H585.5z
		"/>
	<path class="st7" d="M590.8,331.5c0.4,0.5,0.7,1.2,0.7,2s-0.2,1.5-0.7,2c-0.4,0.5-1,0.8-1.7,0.8c-0.7,0-1.3-0.3-1.7-0.8
		c-0.4-0.5-0.7-1.2-0.7-2s0.2-1.5,0.7-2c0.4-0.5,1-0.8,1.7-0.8C589.8,330.7,590.4,331,590.8,331.5z M590.2,334.9
		c0.3-0.4,0.4-0.8,0.4-1.4s-0.1-1.1-0.4-1.4c-0.3-0.4-0.6-0.5-1.1-0.5c-0.5,0-0.8,0.2-1.1,0.5c-0.3,0.4-0.4,0.8-0.4,1.4
		s0.1,1.1,0.4,1.4c0.3,0.4,0.6,0.5,1.1,0.5S589.9,335.2,590.2,334.9z"/>
	<path class="st7" d="M596.2,336.1v-0.6c-0.1,0.2-0.3,0.4-0.6,0.5c-0.3,0.1-0.6,0.2-0.9,0.2c-0.7,0-1.3-0.3-1.7-0.8s-0.6-1.2-0.6-2
		c0-0.8,0.2-1.4,0.6-1.9c0.4-0.5,1-0.8,1.7-0.8c0.3,0,0.6,0.1,0.9,0.2c0.3,0.1,0.5,0.3,0.6,0.5v-3.1h0.9v7.7L596.2,336.1
		L596.2,336.1z M596.2,334.5v-2.1c-0.1-0.3-0.3-0.5-0.6-0.6c-0.2-0.2-0.5-0.2-0.8-0.2c-0.5,0-0.9,0.2-1.2,0.5
		c-0.3,0.4-0.4,0.8-0.4,1.4s0.1,1,0.4,1.4c0.3,0.4,0.7,0.5,1.2,0.5c0.3,0,0.5-0.1,0.8-0.2C595.9,335,596.1,334.8,596.2,334.5z"/>
	<path class="st2" d="M533.3,342v7.3h-0.9V342H533.3z"/>
	<path class="st2" d="M538.7,344.7c0.4-0.6,0.9-0.8,1.6-0.8c0.5,0,0.9,0.2,1.2,0.5c0.3,0.3,0.4,0.8,0.4,1.4v3.5h-0.9v-3.3
		c0-0.4-0.1-0.7-0.2-0.9c-0.2-0.2-0.4-0.3-0.7-0.3c-0.3,0-0.5,0.1-0.7,0.3s-0.4,0.4-0.4,0.7v3.6H538v-3.3c0-0.4-0.1-0.7-0.2-0.9
		c-0.2-0.2-0.4-0.3-0.7-0.3c-0.3,0-0.5,0.1-0.7,0.3s-0.4,0.4-0.4,0.7v3.6H535V344h0.9v0.6c0.3-0.5,0.8-0.7,1.4-0.7
		C538,343.9,538.4,344.1,538.7,344.7z"/>
	<path class="st2" d="M547.2,344.7c0.4-0.6,0.9-0.8,1.6-0.8c0.5,0,0.9,0.2,1.2,0.5c0.3,0.3,0.4,0.8,0.4,1.4v3.5h-0.9v-3.3
		c0-0.4-0.1-0.7-0.2-0.9c-0.2-0.2-0.4-0.3-0.7-0.3c-0.3,0-0.5,0.1-0.7,0.3s-0.4,0.4-0.4,0.7v3.6h-0.9v-3.3c0-0.4-0.1-0.7-0.2-0.9
		c-0.2-0.2-0.4-0.3-0.7-0.3c-0.3,0-0.5,0.1-0.7,0.3s-0.4,0.4-0.4,0.7v3.6h-0.9V344h0.9v0.6c0.3-0.5,0.8-0.7,1.4-0.7
		C546.4,343.9,546.9,344.1,547.2,344.7z"/>
	<path class="st2" d="M555.3,347.6h0.8c-0.1,0.5-0.3,0.9-0.7,1.2s-0.8,0.5-1.4,0.5c-0.7,0-1.3-0.2-1.7-0.8c-0.4-0.5-0.7-1.2-0.7-2
		c0-0.8,0.2-1.5,0.7-2c0.4-0.5,1-0.8,1.7-0.8c0.7,0,1.2,0.2,1.6,0.7c0.4,0.5,0.6,1.1,0.6,1.9v0.3h-3.7c0,0.6,0.2,1,0.4,1.3
		c0.3,0.3,0.6,0.5,1.1,0.5c0.3,0,0.6-0.1,0.8-0.2C555.1,348.2,555.2,347.9,555.3,347.6z M554,344.6c-0.4,0-0.7,0.1-1,0.4
		c-0.3,0.3-0.4,0.6-0.5,1.1h2.8c0-0.4-0.1-0.8-0.3-1C554.7,344.8,554.4,344.6,554,344.6z"/>
	<path class="st2" d="M560.9,349.2v-0.6c-0.1,0.2-0.3,0.4-0.6,0.5c-0.3,0.1-0.6,0.2-0.9,0.2c-0.7,0-1.3-0.3-1.7-0.8
		c-0.4-0.5-0.6-1.2-0.6-2c0-0.8,0.2-1.4,0.6-1.9c0.4-0.5,1-0.8,1.7-0.8c0.3,0,0.6,0.1,0.9,0.2c0.3,0.1,0.5,0.3,0.6,0.5v-3.1h0.9v7.7
		L560.9,349.2L560.9,349.2z M560.9,347.7v-2.1c-0.1-0.3-0.3-0.5-0.6-0.6c-0.2-0.2-0.5-0.2-0.8-0.2c-0.5,0-0.9,0.2-1.2,0.5
		c-0.3,0.4-0.4,0.8-0.4,1.4c0,0.6,0.1,1,0.4,1.4c0.3,0.4,0.7,0.5,1.2,0.5c0.3,0,0.5-0.1,0.8-0.2
		C560.5,348.1,560.7,347.9,560.9,347.7z"/>
	<path class="st2" d="M564.2,342c0.1,0.1,0.2,0.2,0.2,0.4c0,0.2-0.1,0.3-0.2,0.4c-0.1,0.1-0.2,0.2-0.4,0.2s-0.3-0.1-0.4-0.2
		c-0.1-0.1-0.2-0.2-0.2-0.4c0-0.2,0.1-0.3,0.2-0.4c0.1-0.1,0.2-0.2,0.4-0.2S564.1,341.9,564.2,342z M564.2,344v5.3h-0.9V344H564.2z"
		/>
	<path class="st2" d="M569.6,349.2h-0.9v-0.4c-0.1,0.1-0.3,0.2-0.6,0.3c-0.3,0.1-0.5,0.2-0.8,0.2c-0.6,0-1-0.2-1.4-0.5
		c-0.4-0.3-0.6-0.7-0.6-1.2c0-0.5,0.2-0.9,0.6-1.2c0.4-0.3,0.9-0.5,1.4-0.5c0.3,0,0.5,0,0.8,0.1c0.3,0.1,0.4,0.2,0.6,0.3v-0.7
		c0-0.3-0.1-0.6-0.3-0.8c-0.2-0.2-0.5-0.3-0.9-0.3c-0.6,0-0.9,0.2-1.1,0.7h-0.9c0.1-0.4,0.3-0.8,0.7-1.1c0.4-0.3,0.8-0.4,1.3-0.4
		c0.6,0,1.1,0.2,1.5,0.5c0.4,0.3,0.5,0.8,0.5,1.4L569.6,349.2L569.6,349.2z M568.8,347.9v-0.5c-0.1-0.2-0.2-0.3-0.5-0.5
		c-0.2-0.1-0.5-0.2-0.8-0.2c-0.3,0-0.6,0.1-0.9,0.2s-0.4,0.4-0.4,0.7c0,0.3,0.1,0.5,0.4,0.7s0.5,0.2,0.9,0.2c0.3,0,0.5-0.1,0.8-0.2
		C568.5,348.3,568.7,348.1,568.8,347.9z"/>
	<path class="st2" d="M571.4,347.9v-3.2h-0.9V344h0.9v-1.4h0.9v1.4h1.3v0.8h-1.3v3.1c0,0.5,0.2,0.7,0.7,0.7c0.2,0,0.5-0.1,0.7-0.2
		v0.8c-0.2,0.1-0.5,0.2-0.8,0.2c-0.4,0-0.8-0.1-1.1-0.4S571.4,348.4,571.4,347.9z"/>
	<path class="st2" d="M578.1,347.6h0.8c-0.1,0.5-0.3,0.9-0.7,1.2s-0.8,0.5-1.4,0.5c-0.7,0-1.3-0.2-1.7-0.8c-0.4-0.5-0.7-1.2-0.7-2
		c0-0.8,0.2-1.5,0.7-2c0.4-0.5,1-0.8,1.7-0.8c0.7,0,1.2,0.2,1.6,0.7c0.4,0.5,0.6,1.1,0.6,1.9v0.3h-3.7c0,0.6,0.2,1,0.4,1.3
		c0.3,0.3,0.6,0.5,1.1,0.5c0.3,0,0.6-0.1,0.8-0.2C577.9,348.2,578,347.9,578.1,347.6z M576.8,344.6c-0.4,0-0.7,0.1-1,0.4
		c-0.3,0.3-0.4,0.6-0.5,1.1h2.8c0-0.4-0.1-0.8-0.3-1C577.6,344.8,577.2,344.6,576.8,344.6z"/>
	<path class="st2" d="M581.1,341.5v7.7h-0.9v-7.7H581.1z"/>
	<path class="st2" d="M584.2,351.2h-0.9l0.8-2l-2-5.3h1l1.6,4.1l1.5-4.1h0.9L584.2,351.2z"/>
</g>
<g>
	<path class="st7" d="M535.7,383h0.7l1.5,5.8l1.5-5.8h0.9l-1.9,7.3h-0.9l-1.5-5.7l-1.6,5.7h-0.8l-1.9-7.3h0.9l1.5,5.8L535.7,383z"/>
	<path class="st7" d="M544.9,390.3H544v-0.4c-0.1,0.1-0.3,0.2-0.6,0.3c-0.3,0.1-0.5,0.2-0.8,0.2c-0.6,0-1-0.2-1.4-0.5
		c-0.4-0.3-0.6-0.7-0.6-1.2c0-0.5,0.2-0.9,0.6-1.2c0.4-0.3,0.9-0.5,1.4-0.5c0.3,0,0.5,0,0.8,0.1c0.3,0.1,0.4,0.2,0.6,0.3v-0.7
		c0-0.3-0.1-0.6-0.3-0.8c-0.2-0.2-0.5-0.3-0.9-0.3c-0.6,0-0.9,0.2-1.1,0.7h-0.9c0.1-0.4,0.3-0.8,0.7-1.1c0.4-0.3,0.8-0.4,1.3-0.4
		c0.6,0,1.1,0.2,1.5,0.5c0.4,0.3,0.5,0.8,0.5,1.4L544.9,390.3L544.9,390.3L544.9,390.3z M544,389v-0.5c-0.1-0.2-0.2-0.3-0.5-0.5
		c-0.2-0.1-0.5-0.2-0.8-0.2c-0.3,0-0.6,0.1-0.9,0.2s-0.4,0.4-0.4,0.7c0,0.3,0.1,0.5,0.4,0.7s0.5,0.2,0.9,0.2c0.3,0,0.5-0.1,0.8-0.2
		C543.8,389.3,543.9,389.2,544,389z"/>
	<path class="st7" d="M547.2,383.1c0.1,0.1,0.2,0.2,0.2,0.4s-0.1,0.3-0.2,0.4c-0.1,0.1-0.2,0.2-0.4,0.2s-0.3-0.1-0.4-0.2
		c-0.1-0.1-0.2-0.2-0.2-0.4s0.1-0.3,0.2-0.4c0.1-0.1,0.2-0.2,0.4-0.2S547.1,382.9,547.2,383.1z M547.3,385v5.3h-0.9V385H547.3z"/>
	<path class="st7" d="M549.1,389v-3.2h-0.9V385h0.9v-1.4h0.9v1.4h1.3v0.8H550v3.1c0,0.5,0.2,0.7,0.7,0.7c0.2,0,0.5-0.1,0.7-0.2v0.8
		c-0.2,0.1-0.5,0.2-0.8,0.2c-0.4,0-0.8-0.1-1.1-0.4C549.2,389.8,549.1,389.5,549.1,389z"/>
	<path class="st7" d="M553.5,383.1c0.1,0.1,0.2,0.2,0.2,0.4s-0.1,0.3-0.2,0.4c-0.1,0.1-0.2,0.2-0.4,0.2s-0.3-0.1-0.4-0.2
		c-0.1-0.1-0.2-0.2-0.2-0.4s0.1-0.3,0.2-0.4c0.1-0.1,0.2-0.2,0.4-0.2C553.2,382.9,553.3,382.9,553.5,383.1z M553.5,385v5.3h-0.9V385
		H553.5z"/>
	<path class="st7" d="M555.1,390.3V385h0.9v0.7c0.2-0.2,0.4-0.4,0.7-0.6c0.3-0.1,0.6-0.2,0.9-0.2c0.6,0,1,0.2,1.4,0.5
		c0.3,0.3,0.5,0.8,0.5,1.4v3.4h-0.9V387c0-0.4-0.1-0.7-0.3-0.9c-0.2-0.2-0.5-0.3-0.9-0.3c-0.3,0-0.6,0.1-0.8,0.3
		c-0.2,0.2-0.4,0.4-0.5,0.7v3.6L555.1,390.3L555.1,390.3L555.1,390.3z"/>
	<path class="st7" d="M564.3,389.9v-0.4c-0.1,0.2-0.3,0.4-0.6,0.5c-0.3,0.1-0.6,0.2-0.9,0.2c-0.7,0-1.3-0.3-1.7-0.8
		c-0.4-0.5-0.6-1.1-0.6-1.9c0-0.7,0.2-1.4,0.6-1.9c0.4-0.5,1-0.8,1.7-0.8c0.3,0,0.6,0.1,0.9,0.2c0.3,0.1,0.5,0.3,0.6,0.5V385h0.9
		v4.8c0,0.8-0.2,1.5-0.6,1.9c-0.4,0.4-1,0.6-1.7,0.6c-0.6,0-1.1-0.2-1.5-0.5s-0.6-0.7-0.7-1.3h0.9c0.1,0.7,0.6,1,1.4,1
		C563.8,391.7,564.3,391.1,564.3,389.9z M564.3,388.6v-2.1c-0.3-0.5-0.7-0.8-1.3-0.8c-0.5,0-0.9,0.2-1.2,0.5
		c-0.3,0.3-0.4,0.8-0.4,1.4s0.1,1,0.4,1.3c0.3,0.3,0.7,0.5,1.2,0.5C563.6,389.5,564,389.2,564.3,388.6z"/>
	<path class="st7" d="M570.3,389.7v2.6h-0.9V385h0.9v0.6c0.2-0.2,0.4-0.4,0.6-0.5s0.6-0.2,0.9-0.2c0.7,0,1.3,0.3,1.7,0.8
		c0.4,0.5,0.6,1.2,0.6,1.9c0,0.8-0.2,1.4-0.6,1.9c-0.4,0.5-1,0.8-1.7,0.8c-0.3,0-0.6-0.1-0.9-0.2
		C570.7,390.1,570.5,389.9,570.3,389.7z M570.3,386.6v2.1c0.1,0.3,0.3,0.5,0.6,0.6c0.2,0.2,0.5,0.2,0.8,0.2c0.5,0,0.9-0.2,1.2-0.5
		c0.3-0.4,0.4-0.8,0.4-1.4s-0.1-1-0.4-1.4c-0.3-0.4-0.7-0.5-1.2-0.5c-0.3,0-0.5,0.1-0.8,0.2C570.6,386.1,570.4,386.3,570.3,386.6z"
		/>
	<path class="st7" d="M578.7,388.7h0.8c-0.1,0.5-0.3,0.9-0.7,1.2s-0.8,0.5-1.4,0.5c-0.7,0-1.3-0.2-1.7-0.8c-0.4-0.5-0.7-1.2-0.7-2
		c0-0.8,0.2-1.5,0.7-2c0.4-0.5,1-0.8,1.7-0.8c0.7,0,1.2,0.2,1.6,0.7c0.4,0.5,0.6,1.1,0.6,1.9v0.3h-3.7c0,0.6,0.2,1,0.4,1.3
		c0.3,0.3,0.6,0.5,1.1,0.5c0.3,0,0.6-0.1,0.8-0.2C578.5,389.2,578.6,389,578.7,388.7z M577.4,385.7c-0.4,0-0.7,0.1-1,0.4
		c-0.3,0.3-0.4,0.6-0.5,1.1h2.8c0-0.4-0.1-0.8-0.3-1C578.1,385.8,577.8,385.7,577.4,385.7z"/>
	<path class="st7" d="M583.5,385v0.9c-0.1-0.1-0.3-0.1-0.6-0.1c-0.3,0-0.5,0.1-0.8,0.3s-0.4,0.4-0.5,0.7v3.5h-0.9V385h0.9v0.7
		c0.1-0.2,0.3-0.4,0.5-0.6c0.2-0.1,0.5-0.2,0.8-0.2C583.2,384.9,583.4,385,583.5,385z"/>
	<path class="st7" d="M585.4,383.1c0.1,0.1,0.2,0.2,0.2,0.4s-0.1,0.3-0.2,0.4c-0.1,0.1-0.3,0.2-0.4,0.2c-0.2,0-0.3-0.1-0.4-0.2
		c-0.1-0.1-0.2-0.2-0.2-0.4s0.1-0.3,0.2-0.4c0.1-0.1,0.2-0.2,0.4-0.2C585.2,382.9,585.3,382.9,585.4,383.1z M585.5,385v5.3h-0.9V385
		H585.5z"/>
	<path class="st7" d="M590.8,385.7c0.4,0.5,0.7,1.2,0.7,2c0,0.8-0.2,1.5-0.7,2c-0.4,0.5-1,0.8-1.7,0.8c-0.7,0-1.3-0.3-1.7-0.8
		c-0.4-0.5-0.7-1.2-0.7-2c0-0.8,0.2-1.5,0.7-2c0.4-0.5,1-0.8,1.7-0.8C589.8,384.9,590.4,385.2,590.8,385.7z M590.2,389.1
		c0.3-0.4,0.4-0.8,0.4-1.4c0-0.6-0.1-1.1-0.4-1.4c-0.3-0.4-0.6-0.5-1.1-0.5c-0.5,0-0.8,0.2-1.1,0.5c-0.3,0.4-0.4,0.8-0.4,1.4
		s0.1,1.1,0.4,1.4c0.3,0.4,0.6,0.5,1.1,0.5S589.9,389.4,590.2,389.1z"/>
	<path class="st7" d="M596.2,390.3v-0.6c-0.1,0.2-0.3,0.4-0.6,0.5c-0.3,0.1-0.6,0.2-0.9,0.2c-0.7,0-1.3-0.3-1.7-0.8
		c-0.4-0.5-0.6-1.2-0.6-2c0-0.8,0.2-1.4,0.6-1.9c0.4-0.5,1-0.8,1.7-0.8c0.3,0,0.6,0.1,0.9,0.2c0.3,0.1,0.5,0.3,0.6,0.5v-3.1h0.9v7.7
		L596.2,390.3L596.2,390.3z M596.2,388.7v-2.1c-0.1-0.3-0.3-0.5-0.6-0.6c-0.2-0.2-0.5-0.2-0.8-0.2c-0.5,0-0.9,0.2-1.2,0.5
		c-0.3,0.4-0.4,0.8-0.4,1.4c0,0.6,0.1,1,0.4,1.4c0.3,0.4,0.7,0.5,1.2,0.5c0.3,0,0.5-0.1,0.8-0.2C595.9,389.2,596.1,389,596.2,388.7z
		"/>
	<path class="st2" d="M535.6,398.1c0-0.4-0.1-0.7-0.4-0.9c-0.2-0.2-0.6-0.3-1-0.3c-0.4,0-0.8,0.1-1,0.4c-0.2,0.3-0.4,0.6-0.4,1.1h-1
		c0.1-0.7,0.3-1.2,0.7-1.7c0.4-0.4,1-0.6,1.6-0.6c0.7,0,1.2,0.2,1.6,0.6c0.4,0.4,0.6,0.9,0.6,1.5c0,0.1,0,0.2,0,0.3
		c0,0.1-0.1,0.2-0.1,0.3c0,0.1-0.1,0.2-0.2,0.3c-0.1,0.1-0.1,0.2-0.2,0.3s-0.1,0.2-0.2,0.3c-0.1,0.1-0.2,0.2-0.2,0.3
		c0,0-0.1,0.2-0.3,0.3c-0.1,0.2-0.2,0.3-0.3,0.3l-1.8,2h3.5v0.8h-4.7v-0.6l2.3-2.6c0.4-0.4,0.6-0.7,0.7-0.8c0.1-0.1,0.3-0.3,0.4-0.6
		C535.5,398.6,535.6,398.4,535.6,398.1z"/>
	<path class="st2" d="M540.8,396.2l-2.7,4.8h2.3v-1.8h0.9v1.8h1.3v0.8h-1.3v1.6h-0.9v-1.6h-3.3v-0.7l2.8-5H540.8z"/>
	<path class="st2" d="M546.2,403.5v-7.7h0.9v3.1c0.2-0.2,0.4-0.4,0.7-0.6c0.3-0.1,0.6-0.2,0.9-0.2c0.6,0,1,0.2,1.4,0.5
		c0.3,0.3,0.5,0.8,0.5,1.4v3.4h-0.9v-3.3c0-0.4-0.1-0.7-0.3-0.9c-0.2-0.2-0.5-0.3-0.9-0.3c-0.3,0-0.6,0.1-0.8,0.3
		c-0.2,0.2-0.4,0.4-0.5,0.7v3.6L546.2,403.5L546.2,403.5z"/>
	<path class="st2" d="M555.8,398.9c0.4,0.5,0.7,1.2,0.7,2s-0.2,1.5-0.7,2s-1,0.8-1.7,0.8c-0.7,0-1.3-0.3-1.7-0.8
		c-0.4-0.5-0.7-1.2-0.7-2s0.2-1.5,0.7-2c0.4-0.5,1-0.8,1.7-0.8C554.8,398.1,555.3,398.4,555.8,398.9z M555.2,402.2
		c0.3-0.4,0.4-0.8,0.4-1.4s-0.1-1.1-0.4-1.4c-0.3-0.4-0.6-0.5-1.1-0.5c-0.5,0-0.8,0.2-1.1,0.5c-0.3,0.4-0.4,0.8-0.4,1.4
		s0.1,1.1,0.4,1.4c0.3,0.4,0.6,0.5,1.1,0.5C554.5,402.8,554.9,402.6,555.2,402.2z"/>
	<path class="st2" d="M561.9,398.2v5.3H561v-0.7c-0.2,0.2-0.4,0.4-0.6,0.6c-0.3,0.1-0.6,0.2-0.9,0.2c-0.6,0-1-0.2-1.4-0.5
		c-0.3-0.3-0.5-0.8-0.5-1.4v-3.4h0.9v3.3c0,0.4,0.1,0.7,0.3,0.9c0.2,0.2,0.5,0.3,0.9,0.3c0.3,0,0.6-0.1,0.8-0.3
		c0.2-0.2,0.4-0.4,0.5-0.7v-3.6L561.9,398.2L561.9,398.2L561.9,398.2z"/>
	<path class="st2" d="M566.1,398.2v0.9c-0.1-0.1-0.3-0.1-0.6-0.1c-0.3,0-0.5,0.1-0.8,0.3c-0.2,0.2-0.4,0.4-0.5,0.7v3.5h-0.9v-5.3
		h0.9v0.7c0.1-0.2,0.3-0.4,0.5-0.6c0.2-0.1,0.5-0.2,0.8-0.2C565.9,398.1,566,398.1,566.1,398.2z"/>
	<path class="st2" d="M566.8,402h0.9c0.2,0.5,0.6,0.8,1.2,0.8c0.3,0,0.6-0.1,0.8-0.2s0.3-0.3,0.3-0.6c0-0.4-0.3-0.6-0.8-0.7l-1-0.3
		c-0.8-0.2-1.3-0.7-1.3-1.4c0-0.5,0.2-0.8,0.5-1.1c0.4-0.3,0.8-0.4,1.3-0.4c0.6,0,1,0.1,1.4,0.4c0.3,0.3,0.6,0.6,0.7,1.1h-0.9
		c-0.2-0.5-0.5-0.7-1.2-0.7c-0.3,0-0.5,0.1-0.7,0.2c-0.2,0.1-0.3,0.3-0.3,0.6c0,0.2,0.1,0.3,0.2,0.4c0.1,0.1,0.3,0.2,0.6,0.3l1,0.2
		c0.9,0.2,1.3,0.7,1.3,1.5c0,0.5-0.2,0.9-0.5,1.2s-0.8,0.4-1.4,0.4s-1.1-0.1-1.5-0.4C567.1,402.9,566.8,402.5,566.8,402z"/>
</g>
<line class="st8" x1="208.9" y1="368" x2="634.5" y2="368"/>
<line class="st9" x1="213.8" y1="279.6" x2="628.5" y2="279.6"/>
<g>
	<path d="M168.5,60.4l1,3.6l1-3.6h0.8l-1.4,4.7h-0.8l-1-3.5l-1,3.5h-0.8l-1.4-4.7h0.8l1,3.6l1-3.6H168.5z"/>
	<path d="M175.1,60.4l1,3.6l1-3.6h0.8l-1.4,4.7h-0.8l-1-3.5l-1,3.5H173l-1.4-4.7h0.8l1,3.6l1-3.6H175.1z"/>
	<path d="M181.7,60.4l1,3.6l1-3.6h0.8l-1.4,4.7h-0.8l-1-3.5l-1,3.5h-0.8l-1.4-4.7h0.8l1,3.6l1-3.6H181.7z"/>
	<path d="M184.9,65c-0.1-0.1-0.2-0.2-0.2-0.4s0.1-0.3,0.2-0.4c0.1-0.1,0.2-0.2,0.4-0.2c0.2,0,0.3,0.1,0.4,0.2s0.2,0.2,0.2,0.4
		s-0.1,0.3-0.2,0.4c-0.1,0.1-0.2,0.2-0.4,0.2C185.1,65.1,185,65.1,184.9,65z"/>
	<path d="M189.5,60.4l1,3.6l1-3.6h0.8l-1.4,4.7h-0.8l-1-3.5l-1,3.5h-0.8l-1.4-4.7h0.8l1,3.6l1-3.6H189.5z"/>
	<path d="M196.1,63.7h0.7c-0.1,0.5-0.3,0.8-0.6,1.1c-0.3,0.3-0.8,0.4-1.3,0.4c-0.6,0-1.2-0.2-1.6-0.7c-0.4-0.4-0.6-1-0.6-1.7
		c0-0.7,0.2-1.3,0.6-1.8c0.4-0.5,0.9-0.7,1.5-0.7c0.6,0,1.1,0.2,1.4,0.6s0.5,1,0.5,1.7v0.3h-3.3c0,0.5,0.1,0.9,0.4,1.2
		c0.2,0.3,0.6,0.4,1,0.4c0.3,0,0.5-0.1,0.7-0.2C195.9,64.1,196,63.9,196.1,63.7z M195,61c-0.4,0-0.6,0.1-0.9,0.3
		c-0.2,0.2-0.4,0.5-0.4,1h2.5c0-0.4-0.1-0.7-0.3-0.9S195.3,61,195,61z"/>
	<path d="M198.8,64.5v0.5H198v-6.8h0.8V61c0.1-0.2,0.3-0.3,0.5-0.5c0.2-0.1,0.5-0.2,0.8-0.2c0.7,0,1.2,0.2,1.5,0.7
		c0.4,0.5,0.6,1,0.6,1.7c0,0.7-0.2,1.3-0.6,1.7c-0.4,0.5-0.9,0.7-1.5,0.7c-0.3,0-0.5-0.1-0.8-0.2C199.1,64.9,198.9,64.7,198.8,64.5z
		 M198.8,61.8v1.9c0.1,0.2,0.3,0.4,0.5,0.6c0.2,0.1,0.4,0.2,0.7,0.2c0.4,0,0.8-0.2,1-0.5c0.3-0.3,0.4-0.7,0.4-1.2s-0.1-0.9-0.4-1.2
		c-0.3-0.3-0.6-0.5-1-0.5c-0.3,0-0.5,0.1-0.7,0.2C199,61.4,198.9,61.6,198.8,61.8z"/>
	<path d="M202.9,63.8h0.8c0.1,0.5,0.5,0.7,1.1,0.7c0.3,0,0.5-0.1,0.7-0.2c0.2-0.1,0.3-0.3,0.3-0.5c0-0.3-0.2-0.5-0.7-0.7l-0.9-0.2
		c-0.8-0.2-1.1-0.6-1.1-1.2c0-0.4,0.2-0.7,0.5-1s0.7-0.4,1.2-0.4c0.5,0,0.9,0.1,1.2,0.3c0.3,0.2,0.5,0.6,0.6,1h-0.8
		c-0.1-0.4-0.5-0.7-1-0.7c-0.2,0-0.5,0.1-0.6,0.2c-0.2,0.1-0.3,0.3-0.3,0.5c0,0.2,0.1,0.3,0.2,0.4c0.1,0.1,0.3,0.2,0.5,0.2l0.9,0.2
		c0.8,0.2,1.2,0.6,1.2,1.3c0,0.4-0.2,0.8-0.5,1s-0.7,0.4-1.2,0.4c-0.5,0-0.9-0.1-1.3-0.4S202.9,64.2,202.9,63.8z"/>
	<path d="M208.3,58.7c0.1,0.1,0.2,0.2,0.2,0.4s-0.1,0.3-0.2,0.4c-0.1,0.1-0.2,0.1-0.4,0.1s-0.3,0-0.4-0.1c-0.1-0.1-0.1-0.2-0.1-0.4
		s0-0.3,0.1-0.4s0.2-0.1,0.4-0.1S208.2,58.6,208.3,58.7z M208.4,60.4v4.7h-0.8v-4.7H208.4z"/>
	<path d="M210,63.9v-2.8h-0.8v-0.7h0.8v-1.2h0.8v1.2h1.1v0.7h-1.1v2.7c0,0.4,0.2,0.7,0.6,0.7c0.2,0,0.4-0.1,0.6-0.2V65
		c-0.2,0.1-0.4,0.2-0.7,0.2c-0.4,0-0.7-0.1-0.9-0.3C210.1,64.6,210,64.3,210,63.9z"/>
	<path d="M216,63.7h0.7c-0.1,0.5-0.3,0.8-0.6,1.1c-0.3,0.3-0.8,0.4-1.3,0.4c-0.6,0-1.2-0.2-1.6-0.7c-0.4-0.4-0.6-1-0.6-1.7
		c0-0.7,0.2-1.3,0.6-1.8c0.4-0.5,0.9-0.7,1.5-0.7c0.6,0,1.1,0.2,1.4,0.6s0.5,1,0.5,1.7v0.3h-3.3c0,0.5,0.1,0.9,0.4,1.2
		c0.2,0.3,0.6,0.4,1,0.4c0.3,0,0.5-0.1,0.7-0.2C215.8,64.1,215.9,63.9,216,63.7z M214.9,61c-0.4,0-0.6,0.1-0.9,0.3
		c-0.2,0.2-0.4,0.5-0.4,1h2.5c0-0.4-0.1-0.7-0.3-0.9S215.2,61,214.9,61z"/>
	<path d="M217.7,65c-0.1-0.1-0.2-0.2-0.2-0.4s0.1-0.3,0.2-0.4c0.1-0.1,0.2-0.2,0.4-0.2c0.2,0,0.3,0.1,0.4,0.2s0.2,0.2,0.2,0.4
		s-0.1,0.3-0.2,0.4c-0.1,0.1-0.2,0.2-0.4,0.2C217.9,65.1,217.8,65.1,217.7,65z"/>
	<path d="M219.8,64.5c-0.4-0.4-0.6-1-0.6-1.8c0-0.7,0.2-1.3,0.6-1.8s0.9-0.7,1.5-0.7c0.5,0,0.9,0.1,1.3,0.4c0.3,0.3,0.5,0.6,0.6,1.1
		h-0.8c-0.1-0.3-0.2-0.5-0.4-0.6c-0.2-0.1-0.4-0.2-0.7-0.2c-0.4,0-0.7,0.2-1,0.5s-0.4,0.7-0.4,1.2s0.1,0.9,0.4,1.2s0.6,0.5,1,0.5
		c0.3,0,0.5-0.1,0.7-0.2c0.2-0.1,0.3-0.3,0.4-0.6h0.8c-0.1,0.5-0.3,0.8-0.6,1.1s-0.7,0.4-1.3,0.4C220.7,65.2,220.2,65,219.8,64.5z"
		/>
	<path d="M227.5,61c0.4,0.5,0.6,1,0.6,1.8s-0.2,1.3-0.6,1.8c-0.4,0.5-0.9,0.7-1.6,0.7c-0.6,0-1.2-0.2-1.6-0.7s-0.6-1-0.6-1.8
		s0.2-1.3,0.6-1.8c0.4-0.5,0.9-0.7,1.6-0.7C226.6,60.3,227.2,60.6,227.5,61z M227,64c0.2-0.3,0.4-0.7,0.4-1.3s-0.1-0.9-0.4-1.3
		s-0.6-0.5-1-0.5c-0.4,0-0.7,0.2-1,0.5s-0.4,0.7-0.4,1.3c0,0.5,0.1,0.9,0.4,1.3c0.2,0.3,0.6,0.5,1,0.5S226.7,64.3,227,64z"/>
	<path d="M232.5,61.1c0.4-0.5,0.8-0.7,1.4-0.7c0.5,0,0.8,0.2,1.1,0.5c0.3,0.3,0.4,0.7,0.4,1.2v3.1h-0.8v-3c0-0.3-0.1-0.6-0.2-0.8
		c-0.1-0.2-0.4-0.3-0.7-0.3c-0.2,0-0.5,0.1-0.6,0.2c-0.2,0.2-0.3,0.4-0.4,0.6v3.2h-0.8v-3c0-0.3-0.1-0.6-0.2-0.8
		c-0.1-0.2-0.4-0.3-0.7-0.3c-0.2,0-0.5,0.1-0.6,0.2c-0.2,0.2-0.3,0.4-0.4,0.6v3.2h-0.8v-4.7h0.8V61c0.3-0.4,0.7-0.6,1.3-0.6
		C231.9,60.3,232.3,60.6,232.5,61.1z"/>
</g>
</svg>
