<?xml version="1.0" encoding="utf-8"?>
<!-- Generator: Adobe Illustrator 19.1.0, SVG Export Plug-In . SVG Version: 6.00 Build 0)  -->
<svg version="1.1" id="Layer_1" xmlns="http://www.w3.org/2000/svg" xmlns:xlink="http://www.w3.org/1999/xlink" x="0px" y="0px"
	 viewBox="0 0 350.4 221.5" style="enable-background:new 0 0 350.4 221.5;" xml:space="preserve">
<style type="text/css">
	.st0{fill:#FFFFFF;}
	.st1{fill:none;stroke:#1D1D1B;stroke-width:2;stroke-miterlimit:10;}
	.st2{fill:#ECECEC;}
	.st3{fill:none;}
	.st4{fill:#1D1D1B;}
	.st5{fill:none;stroke:#1D1D1B;stroke-miterlimit:10;}
	
		.st6{fill-rule:evenodd;clip-rule:evenodd;fill:none;stroke:#3A50A2;stroke-width:5.9939;stroke-linecap:round;stroke-miterlimit:10;}
	.st7{fill:#3A50A2;}
	.st8{fill:#FFFFFF;stroke:#1D1D1B;stroke-miterlimit:10;}
</style>
<g>
	
		<image style="overflow:visible;opacity:0.49;" width="1460" height="923" xlink:href="2942DF34DB3DF8EF.png"  transform="matrix(0.24 0 0 0.24 0 0)">
	</image>
	<g>
		<path class="st0" d="M346.1,207.2c0,1.9-1.5,3.4-3.4,3.4H14.1c-1.9,0-3.4-1.5-3.4-3.4V7.7c0-1.9,1.5-3.4,3.4-3.4h328.6
			c1.9,0,3.4,1.5,3.4,3.4V207.2z"/>
		<path class="st1" d="M346.1,207.2c0,1.9-1.5,3.4-3.4,3.4H14.1c-1.9,0-3.4-1.5-3.4-3.4V7.7c0-1.9,1.5-3.4,3.4-3.4h328.6
			c1.9,0,3.4,1.5,3.4,3.4V207.2z"/>
	</g>
</g>
<rect x="20.5" y="145.6" class="st2" width="315.8" height="62.2"/>
<g>
	<rect x="25.4" y="46" class="st3" width="172.7" height="91"/>
	<path class="st4" d="M30.4,47.7V56h-1.9v-8.2h-2.6V46H33v1.7H30.4z"/>
	<path class="st4" d="M38.6,55.1c-0.4,0.5-1.2,0.9-2.3,0.9s-1.8-0.4-2.3-0.9c-0.7-0.7-0.8-1.5-0.8-2.8c0-1.3,0.2-2.1,0.8-2.8
		c0.4-0.5,1.2-0.9,2.3-0.9s1.8,0.4,2.3,0.9c0.7,0.7,0.8,1.5,0.8,2.8C39.4,53.6,39.2,54.5,38.6,55.1z M37.2,50.5
		c-0.2-0.2-0.5-0.3-0.9-0.3s-0.6,0.1-0.8,0.3c-0.4,0.4-0.4,1-0.4,1.8c0,0.8,0,1.4,0.4,1.8c0.2,0.2,0.5,0.3,0.8,0.3s0.6-0.1,0.9-0.3
		c0.4-0.4,0.4-1,0.4-1.8C37.6,51.5,37.5,50.9,37.2,50.5z"/>
	<path class="st4" d="M50.9,56l-0.8-2.3h-4.4L44.9,56h-1.1l3.7-10h0.9L52,56H50.9z M47.9,47.5L46,52.8h3.7L47.9,47.5z"/>
	<path class="st4" d="M55.1,56c-1.2,0-1.8-0.8-1.8-1.8V46h1v8.1c0,0.7,0.2,1,0.9,1h0.5V56H55.1z"/>
	<path class="st4" d="M57.5,47.1V46h1.1v1.1H57.5z M57.6,56v-6.9h1V56H57.6z"/>
	<path class="st4" d="M63.8,56c-1.7,0-3.1-1.2-3.1-3.5c0-2.4,1.3-3.5,3.1-3.5c1,0,1.6,0.3,2.3,1l-0.7,0.6c-0.5-0.6-0.9-0.8-1.6-0.8
		c-0.7,0-1.2,0.3-1.6,0.8c-0.3,0.4-0.4,1-0.4,1.8c0,0.9,0.1,1.4,0.4,1.8c0.4,0.5,0.9,0.8,1.6,0.8c0.7,0,1.1-0.2,1.6-0.8l0.7,0.7
		C65.4,55.8,64.8,56,63.8,56z"/>
	<path class="st4" d="M68.4,52.8c0,1.5,0.7,2.4,2,2.4c0.8,0,1.3-0.2,1.8-0.8l0.7,0.6c-0.7,0.7-1.3,1.1-2.5,1.1c-1.8,0-3-1.1-3-3.5
		c0-2.2,1.1-3.5,2.8-3.5c1.8,0,2.8,1.3,2.8,3.3v0.5H68.4z M71.8,50.9c-0.3-0.6-0.9-1-1.6-1s-1.3,0.4-1.6,1c-0.2,0.4-0.2,0.6-0.2,1.1
		H72C72,51.5,72,51.3,71.8,50.9z"/>
	<path class="st4" d="M29.4,92.8c-1.5,0-2.7-0.3-3.6-1.3l1.3-1.3c0.6,0.6,1.5,0.8,2.4,0.8c1.1,0,1.8-0.4,1.8-1.2
		c0-0.4-0.1-0.6-0.3-0.8c-0.2-0.2-0.4-0.3-0.9-0.4l-1.2-0.2c-0.9-0.1-1.5-0.4-1.9-0.8c-0.5-0.5-0.7-1.1-0.7-2c0-1.8,1.3-3,3.5-3
		c1.4,0,2.4,0.3,3.2,1.2l-1.2,1.2c-0.6-0.6-1.4-0.7-2-0.7c-1,0-1.5,0.6-1.5,1.3c0,0.3,0.1,0.5,0.3,0.7c0.2,0.2,0.5,0.3,0.9,0.4
		l1.2,0.2c0.9,0.1,1.5,0.4,1.9,0.8c0.5,0.5,0.8,1.2,0.8,2.1C33.1,91.7,31.4,92.8,29.4,92.8z"/>
	<path class="st4" d="M38.9,92.8v-0.7c-0.5,0.5-1.1,0.8-1.8,0.8c-0.7,0-1.3-0.2-1.7-0.6c-0.6-0.6-0.7-1.3-0.7-2.1v-4.7h1.8v4.4
		c0,1,0.6,1.3,1.2,1.3c0.6,0,1.2-0.3,1.2-1.3v-4.4h1.8v7.3H38.9z"/>
	<path class="st4" d="M48.1,92.2c-0.4,0.4-1.1,0.7-1.8,0.7c-0.8,0-1.3-0.2-1.8-0.8v0.7h-1.8v-10h1.8v3.3c0.5-0.5,1-0.7,1.8-0.7
		c0.7,0,1.4,0.3,1.8,0.7c0.7,0.7,0.7,2,0.7,3.1C48.9,90.2,48.9,91.5,48.1,92.2z M45.8,87c-1.1,0-1.2,0.9-1.2,2.1
		c0,1.2,0.1,2.1,1.2,2.1s1.2-0.9,1.2-2.1C47.1,87.9,46.9,87,45.8,87z"/>
	<path class="st4" d="M50.3,95.5h-1v-1.5H50c0.5,0,0.6-0.2,0.6-0.7v-7.8h1.8v7.9C52.4,94.4,51.8,95.5,50.3,95.5z M50.6,84.2v-1.5
		h1.9v1.5H50.6z"/>
	<path class="st4" d="M55.9,89.7c0,0.9,0.6,1.6,1.6,1.6c0.8,0,1.2-0.2,1.7-0.7l1.1,1.1c-0.7,0.7-1.5,1.1-2.8,1.1
		c-1.7,0-3.4-0.8-3.4-3.7c0-2.4,1.3-3.7,3.2-3.7c2,0,3.2,1.5,3.2,3.5v0.8H55.9z M58.5,87.6c-0.2-0.4-0.6-0.8-1.2-0.8
		c-0.6,0-1,0.3-1.2,0.8c-0.1,0.3-0.2,0.5-0.2,0.8h2.8C58.6,88.1,58.6,87.9,58.5,87.6z"/>
	<path class="st4" d="M65,92.8c-1.5,0-3.3-0.8-3.3-3.7s1.8-3.7,3.3-3.7c1,0,1.8,0.3,2.4,1l-1.2,1.2C65.8,87.2,65.5,87,65,87
		c-0.4,0-0.8,0.2-1,0.5c-0.3,0.4-0.4,0.8-0.4,1.6c0,0.8,0.1,1.3,0.4,1.6c0.3,0.3,0.6,0.5,1,0.5c0.5,0,0.8-0.2,1.2-0.6l1.2,1.2
		C66.8,92.5,66,92.8,65,92.8z"/>
	<path class="st4" d="M71.1,92.8c-1.5,0-2.1-1.1-2.1-2.1v-3.6h-0.8v-1.4H69v-2.2h1.8v2.2h1.3v1.4h-1.3v3.5c0,0.4,0.2,0.7,0.6,0.7
		h0.7v1.5H71.1z"/>
	<path class="st4" d="M81.2,88.7h-2.6v4.1h-1.1v-10h3.7c1.8,0,3.1,1.1,3.1,2.9S83,88.7,81.2,88.7z M81.1,83.7h-2.5v4h2.5
		c1.2,0,2.1-0.7,2.1-2C83.2,84.4,82.3,83.7,81.1,83.7z"/>
	<path class="st4" d="M87.8,92.8c-1.2,0-1.8-0.8-1.8-1.8v-8.1h1v8.1c0,0.7,0.2,1,0.9,1h0.5v0.9H87.8z"/>
	<path class="st4" d="M94.1,92.8v-0.7c-0.6,0.6-1.1,0.7-2,0.7c-1,0-1.5-0.2-1.9-0.6c-0.3-0.3-0.5-0.9-0.5-1.4c0-1.2,0.8-2,2.4-2h2.1
		v-0.7c0-1-0.5-1.5-1.8-1.5c-0.9,0-1.3,0.2-1.7,0.8L90,86.8c0.6-0.8,1.3-1,2.4-1c1.8,0,2.8,0.8,2.8,2.3v4.7H94.1z M94.1,89.6h-1.9
		c-1,0-1.5,0.4-1.5,1.2s0.5,1.2,1.6,1.2c0.6,0,1.1,0,1.5-0.5c0.2-0.2,0.4-0.6,0.4-1.2V89.6z"/>
	<path class="st4" d="M102,92.8v-4.2c0-1.2-0.7-1.8-1.7-1.8s-1.7,0.6-1.7,1.8v4.2h-1v-6.9h1v0.8c0.5-0.6,1.2-0.8,1.9-0.8
		c0.7,0,1.3,0.2,1.8,0.6c0.5,0.5,0.7,1.1,0.7,1.9v4.4H102z"/>
	<path class="st4" d="M110.2,86.7v6.1h-1v-6.1h-0.9v-0.8h0.9v-1.3c0-1,0.6-1.8,1.8-1.8h0.7v0.9h-0.5c-0.6,0-0.9,0.4-0.9,1v1.3h1.5
		v0.8H110.2z"/>
	<path class="st4" d="M117.5,92.1c-0.5,0.5-1.1,0.8-2,0.8s-1.5-0.3-2-0.8c-0.7-0.7-0.8-1.7-0.8-2.7s0.1-2,0.8-2.7
		c0.5-0.5,1.1-0.8,2-0.8s1.5,0.3,2,0.8c0.7,0.7,0.8,1.7,0.8,2.7S118.2,91.3,117.5,92.1z M116.8,87.2c-0.3-0.3-0.8-0.5-1.3-0.5
		s-0.9,0.2-1.2,0.5c-0.5,0.5-0.6,1.4-0.6,2.1s0.1,1.6,0.6,2.1c0.3,0.3,0.8,0.5,1.2,0.5s0.9-0.2,1.3-0.5c0.5-0.5,0.5-1.4,0.5-2.1
		S117.3,87.7,116.8,87.2z"/>
	<path class="st4" d="M124.4,87.2c-0.4-0.4-0.7-0.5-1.2-0.5c-1,0-1.7,0.8-1.7,1.8v4.2h-1v-6.9h1v0.8c0.4-0.6,1.1-0.9,1.9-0.9
		c0.7,0,1.2,0.2,1.7,0.6L124.4,87.2z"/>
	<path class="st4" d="M134.3,92.8v-4.2c0-1.2-0.7-1.8-1.7-1.8s-1.7,0.6-1.7,1.8v4.2h-1v-6.9h1v0.8c0.5-0.6,1.2-0.8,1.9-0.8
		c0.7,0,1.3,0.2,1.8,0.6c0.5,0.5,0.7,1.1,0.7,1.9v4.4H134.3z"/>
	<path class="st4" d="M138.4,89.6c0,1.5,0.7,2.4,2,2.4c0.8,0,1.3-0.2,1.8-0.8l0.7,0.6c-0.7,0.7-1.3,1.1-2.5,1.1c-1.8,0-3-1.1-3-3.5
		c0-2.2,1.1-3.5,2.8-3.5c1.8,0,2.8,1.3,2.8,3.3v0.5H138.4z M141.8,87.7c-0.3-0.6-0.9-1-1.6-1s-1.3,0.4-1.6,1
		c-0.2,0.4-0.2,0.6-0.2,1.1h3.6C142,88.3,142,88.1,141.8,87.7z"/>
	<path class="st4" d="M148.7,92.8l-1.7-2.7l-1.7,2.7h-1.2l2.3-3.5l-2.2-3.4h1.2l1.6,2.5l1.6-2.5h1.2l-2.2,3.4l2.3,3.5H148.7z"/>
	<path class="st4" d="M153.6,92.8c-1.2,0-1.8-0.8-1.8-1.8v-4.2h-0.9v-0.8h0.9v-2.2h1v2.2h1.5v0.8h-1.5v4.2c0,0.6,0.3,1,0.9,1h0.5
		v0.9H153.6z"/>
	<path class="st4" d="M166.3,92.8h-0.9l-1.8-5.4l-1.8,5.4h-0.9l-2.2-6.9h1.1l1.6,5.5l1.8-5.5h0.9l1.8,5.5l1.6-5.5h1.1L166.3,92.8z"
		/>
	<path class="st4" d="M170.5,89.6c0,1.5,0.7,2.4,2,2.4c0.8,0,1.3-0.2,1.8-0.8l0.7,0.6c-0.7,0.7-1.3,1.1-2.5,1.1c-1.8,0-3-1.1-3-3.5
		c0-2.2,1.1-3.5,2.8-3.5c1.8,0,2.8,1.3,2.8,3.3v0.5H170.5z M173.9,87.7c-0.3-0.6-0.9-1-1.6-1s-1.3,0.4-1.6,1
		c-0.2,0.4-0.2,0.6-0.2,1.1h3.6C174.1,88.3,174.1,88.1,173.9,87.7z"/>
	<path class="st4" d="M177.9,89.6c0,1.5,0.7,2.4,2,2.4c0.8,0,1.3-0.2,1.8-0.8l0.7,0.6c-0.7,0.7-1.3,1.1-2.5,1.1c-1.8,0-3-1.1-3-3.5
		c0-2.2,1.1-3.5,2.8-3.5c1.8,0,2.8,1.3,2.8,3.3v0.5H177.9z M181.3,87.7c-0.3-0.6-0.9-1-1.6-1c-0.7,0-1.3,0.4-1.6,1
		c-0.2,0.4-0.2,0.6-0.2,1.1h3.6C181.5,88.3,181.5,88.1,181.3,87.7z"/>
	<path class="st4" d="M189.2,92.8l-2.2-3.5l-1.3,1.5v2h-1v-10h1v6.7l3.1-3.6h1.3l-2.3,2.6l2.7,4.3H189.2z"/>
	<path class="st4" d="M28.6,121.3v2.5h3.9v1.7h-3.9v4h-1.9v-10h6.6v1.7H28.6z"/>
	<path class="st4" d="M38.3,124.2c-0.3-0.3-0.5-0.4-1-0.4c-0.6,0-1.2,0.4-1.2,1.3v4.4h-1.8v-7.3h1.8v0.7c0.4-0.4,1.1-0.8,1.8-0.8
		c0.7,0,1.2,0.2,1.7,0.7L38.3,124.2z"/>
	<path class="st4" d="M45.3,128.7c-0.4,0.5-1.2,0.9-2.3,0.9s-1.8-0.4-2.3-0.9c-0.7-0.7-0.8-1.5-0.8-2.8c0-1.3,0.2-2.1,0.8-2.8
		c0.4-0.5,1.2-0.9,2.3-0.9s1.8,0.4,2.3,0.9c0.7,0.7,0.8,1.5,0.8,2.8C46.1,127.2,45.9,128.1,45.3,128.7z M43.9,124.1
		c-0.2-0.2-0.5-0.3-0.9-0.3s-0.6,0.1-0.8,0.3c-0.4,0.4-0.4,1-0.4,1.8c0,0.8,0,1.4,0.4,1.8c0.2,0.2,0.5,0.3,0.8,0.3s0.6-0.1,0.9-0.3
		c0.4-0.4,0.4-1,0.4-1.8C44.3,125.1,44.3,124.5,43.9,124.1z"/>
	<path class="st4" d="M56.3,129.6v-4.4c0-1-0.6-1.3-1.2-1.3c-0.6,0-1.2,0.3-1.2,1.3v4.5h-1.8v-4.4c0-1-0.6-1.3-1.2-1.3
		c-0.6,0-1.2,0.3-1.2,1.3v4.4h-1.8v-7.3h1.8v0.7c0.5-0.5,1.1-0.8,1.8-0.8c0.8,0,1.5,0.3,1.9,0.9c0.6-0.6,1.3-0.9,2.2-0.9
		c0.7,0,1.4,0.2,1.8,0.6c0.6,0.6,0.8,1.3,0.8,2.1v4.7H56.3z"/>
	<path class="st4" d="M67.9,129.6H64v-10h3.8c1.7,0,2.9,1,2.9,2.7c0,1.1-0.6,1.9-1.5,2.2c1,0.3,1.6,1.2,1.6,2.4
		C70.9,128.6,69.7,129.6,67.9,129.6z M67.7,120.5h-2.6v3.5h2.6c1.1,0,2-0.5,2-1.7C69.7,121.1,68.8,120.5,67.7,120.5z M67.8,124.9
		h-2.7v3.7h2.7c1.2,0,2-0.7,2-1.8S69,124.9,67.8,124.9z"/>
	<path class="st4" d="M77.6,128.9c-0.5,0.5-1.1,0.8-2,0.8s-1.5-0.3-2-0.8c-0.7-0.7-0.8-1.7-0.8-2.7s0.1-2,0.8-2.7
		c0.5-0.5,1.1-0.8,2-0.8s1.5,0.3,2,0.8c0.7,0.7,0.8,1.7,0.8,2.7S78.3,128.1,77.6,128.9z M76.9,124c-0.3-0.3-0.8-0.5-1.3-0.5
		s-0.9,0.2-1.2,0.5c-0.5,0.5-0.6,1.4-0.6,2.1s0.1,1.6,0.6,2.1c0.3,0.3,0.8,0.5,1.2,0.5s0.9-0.2,1.3-0.5c0.5-0.5,0.5-1.4,0.5-2.1
		S77.4,124.5,76.9,124z"/>
	<path class="st4" d="M85.2,129c-0.4,0.4-1,0.6-1.7,0.6c-0.8,0-1.4-0.2-1.9-0.9v0.8h-1v-10h1v3.9c0.6-0.7,1.2-0.9,1.9-0.9
		c0.7,0,1.3,0.2,1.7,0.6c0.7,0.7,0.8,1.8,0.8,2.9S85.9,128.3,85.2,129z M83.4,123.5c-1.5,0-1.7,1.3-1.7,2.6s0.2,2.6,1.7,2.6
		c1.5,0,1.7-1.3,1.7-2.6S84.9,123.5,83.4,123.5z"/>
</g>
<line class="st5" x1="12.2" y1="25.5" x2="347.1" y2="25.5"/>
<line class="st5" x1="20.5" y1="65.3" x2="337.2" y2="65.3"/>
<line class="st5" x1="20.5" y1="108.3" x2="337.2" y2="108.3"/>
<line class="st5" x1="20.5" y1="145.6" x2="337.2" y2="145.6"/>
<polyline class="st6" points="300.3,91.9 307.8,97.2 324,78.6 "/>
<path class="st7" d="M286.8,85.1V81c0-4.5-3.7-8.2-8.2-8.2c-4.5,0-8.2,3.7-8.2,8.2v4.1h-1.5v15h19.4v-15H286.8z M272.5,81
	c0-3.3,2.7-6,6-6c3.3,0,6,2.7,6,6v4.1h-12V81z"/>
<line class="st5" x1="11" y1="25.5" x2="238.6" y2="25.5"/>
<circle class="st8" cx="24.4" cy="15.6" r="3.4"/>
<circle class="st8" cx="37" cy="15.6" r="3.4"/>
<circle class="st8" cx="48.7" cy="15.6" r="3.4"/>
<g>
</g>
<g>
</g>
<g>
</g>
<g>
</g>
<g>
</g>
<g>
</g>
</svg>
