<?xml version="1.0" encoding="utf-8"?>
<!-- Generator: Adobe Illustrator 19.1.0, SVG Export Plug-In . SVG Version: 6.00 Build 0)  -->
<svg version="1.1" id="Layer_1" xmlns="http://www.w3.org/2000/svg" xmlns:xlink="http://www.w3.org/1999/xlink" x="0px" y="0px"
	 viewBox="0 0 336.3 262.8" style="enable-background:new 0 0 336.3 262.8;" xml:space="preserve">
<style type="text/css">
	.st0{fill:none;stroke:#1D1D1B;stroke-width:2;stroke-miterlimit:10;}
	.st1{fill:none;}
	.st2{fill:#1D1D1B;}
	.st3{fill:none;stroke:#1D1D1B;stroke-miterlimit:10;}
	.st4{fill:#FFFFFF;stroke:#1D1D1B;stroke-miterlimit:10;}
	
		.st5{fill-rule:evenodd;clip-rule:evenodd;fill:none;stroke:#3A50A2;stroke-width:5.9939;stroke-linecap:round;stroke-miterlimit:10;}
	.st6{fill:#3A50A2;}
</style>
<g>
	<path class="st0" d="M335.1,259.9c0,1-0.8,1.9-1.9,1.9H2.9c-1,0-1.9-0.8-1.9-1.9V2.9C1,1.8,1.8,1,2.9,1h330.4c1,0,1.9,0.8,1.9,1.9
		V259.9z"/>
</g>
<g>
	<rect x="14.6" y="41.9" class="st1" width="172.7" height="91"/>
	<path class="st2" d="M17.5,43.4h-2.9v-1h7v1h-2.9v8.4h-1.2V43.4z"/>
	<path class="st2" d="M27.8,48.4c0,2.5-1.7,3.6-3.4,3.6c-1.8,0-3.2-1.3-3.2-3.5c0-2.3,1.5-3.6,3.4-3.6
		C26.4,44.9,27.8,46.3,27.8,48.4z M22.4,48.4c0,1.5,0.9,2.6,2.1,2.6c1.2,0,2.1-1.1,2.1-2.6c0-1.1-0.6-2.6-2-2.6
		C23,45.8,22.4,47.2,22.4,48.4z"/>
	<path class="st2" d="M29,46.2c0-0.5,0.4-0.9,0.8-0.9s0.8,0.4,0.8,0.9c0,0.5-0.3,0.9-0.8,0.9C29.4,47,29,46.7,29,46.2z M29,51.1
		c0-0.5,0.4-0.9,0.8-0.9s0.8,0.4,0.8,0.9c0,0.5-0.3,0.9-0.8,0.9C29.4,52,29,51.6,29,51.1z"/>
	<path class="st2" d="M36.7,48.9l-1,3h-1.3l3.2-9.4h1.5l3.2,9.4h-1.3l-1-3H36.7z M39.8,47.9l-0.9-2.7c-0.2-0.6-0.4-1.2-0.5-1.7h0
		c-0.1,0.6-0.3,1.1-0.5,1.7L37,47.9H39.8z"/>
	<path class="st2" d="M43.7,41.9h1.2v9.9h-1.2V41.9z"/>
	<path class="st2" d="M48.4,43.1c0,0.4-0.3,0.8-0.8,0.8c-0.4,0-0.7-0.3-0.7-0.8c0-0.4,0.3-0.8,0.8-0.8
		C48.1,42.4,48.4,42.7,48.4,43.1z M47,51.8V45h1.2v6.8H47z"/>
	<path class="st2" d="M55.1,51.6c-0.3,0.2-1,0.4-1.9,0.4c-2,0-3.4-1.4-3.4-3.5c0-2.1,1.4-3.6,3.6-3.6c0.7,0,1.4,0.2,1.7,0.4l-0.3,1
		c-0.3-0.2-0.8-0.3-1.4-0.3c-1.6,0-2.4,1.1-2.4,2.6c0,1.6,1,2.5,2.4,2.5c0.7,0,1.2-0.2,1.5-0.3L55.1,51.6z"/>
	<path class="st2" d="M57.2,48.7c0,1.7,1.1,2.4,2.3,2.4c0.9,0,1.4-0.2,1.9-0.4l0.2,0.9c-0.4,0.2-1.2,0.4-2.3,0.4
		c-2.1,0-3.3-1.4-3.3-3.4c0-2,1.2-3.7,3.2-3.7c2.2,0,2.8,1.9,2.8,3.2c0,0.3,0,0.4,0,0.6H57.2z M60.8,47.8c0-0.8-0.3-2-1.7-2
		c-1.2,0-1.8,1.1-1.9,2H60.8z"/>
	<path class="st2" d="M15.5,87.1c0.5,0.3,1.3,0.6,2.2,0.6c1.2,0,2-0.7,2-1.6c0-0.9-0.5-1.4-1.8-1.9c-1.5-0.5-2.5-1.3-2.5-2.7
		c0-1.5,1.2-2.6,3.1-2.6c1,0,1.7,0.2,2.1,0.5l-0.3,1c-0.3-0.2-0.9-0.4-1.8-0.4c-1.3,0-1.8,0.8-1.8,1.4c0,0.9,0.6,1.3,1.9,1.8
		c1.6,0.6,2.4,1.4,2.4,2.8c0,1.5-1.1,2.7-3.3,2.7c-0.9,0-1.9-0.3-2.4-0.6L15.5,87.1z"/>
	<path class="st2" d="M28.2,86.8c0,0.7,0,1.3,0.1,1.8h-1.1l-0.1-1.1h0c-0.3,0.5-1,1.3-2.2,1.3c-1.1,0-2.3-0.6-2.3-3v-4h1.2v3.8
		c0,1.3,0.4,2.2,1.5,2.2c0.8,0,1.4-0.6,1.6-1.1C27,86.5,27,86.2,27,86v-4.2h1.2V86.8z"/>
	<path class="st2" d="M30.2,88.6c0-0.5,0.1-1.1,0.1-1.8v-8.2h1.2v4.3h0c0.4-0.8,1.2-1.2,2.3-1.2c1.7,0,2.9,1.4,2.9,3.5
		c0,2.4-1.5,3.6-3,3.6c-1,0-1.8-0.4-2.3-1.3h0l-0.1,1.1H30.2z M31.5,85.9c0,0.2,0,0.3,0.1,0.4c0.2,0.9,1,1.4,1.8,1.4
		c1.3,0,2.1-1.1,2.1-2.6c0-1.4-0.7-2.5-2-2.5c-0.8,0-1.6,0.6-1.9,1.5c0,0.1-0.1,0.3-0.1,0.5V85.9z"/>
	<path class="st2" d="M36.6,90.6c0.6,0,1.1-0.2,1.3-0.5c0.3-0.4,0.5-0.9,0.5-2.5v-5.7h1.2V88c0,1.3-0.2,2.2-0.8,2.8
		c-0.5,0.5-1.4,0.8-2.1,0.8L36.6,90.6z M39.8,79.9c0,0.4-0.3,0.8-0.8,0.8c-0.5,0-0.8-0.4-0.8-0.8c0-0.4,0.3-0.8,0.8-0.8
		C39.5,79.2,39.8,79.5,39.8,79.9z"/>
	<path class="st2" d="M42.3,85.5c0,1.7,1.1,2.4,2.3,2.4c0.9,0,1.4-0.2,1.9-0.4l0.2,0.9c-0.4,0.2-1.2,0.4-2.3,0.4
		c-2.1,0-3.3-1.4-3.3-3.4c0-2,1.2-3.7,3.2-3.7c2.2,0,2.8,1.9,2.8,3.2c0,0.3,0,0.4,0,0.6H42.3z M45.9,84.6c0-0.8-0.3-2-1.7-2
		c-1.2,0-1.8,1.1-1.9,2H45.9z"/>
	<path class="st2" d="M53.5,88.4c-0.3,0.2-1,0.4-1.9,0.4c-2,0-3.4-1.4-3.4-3.5c0-2.1,1.4-3.6,3.6-3.6c0.7,0,1.4,0.2,1.7,0.4l-0.3,1
		c-0.3-0.2-0.8-0.3-1.4-0.3c-1.6,0-2.4,1.1-2.4,2.6c0,1.6,1,2.5,2.4,2.5c0.7,0,1.2-0.2,1.5-0.3L53.5,88.4z"/>
	<path class="st2" d="M56.6,79.9v1.9h1.8v0.9h-1.8v3.7c0,0.8,0.2,1.3,0.9,1.3c0.3,0,0.6,0,0.7-0.1l0.1,0.9c-0.2,0.1-0.6,0.2-1.1,0.2
		c-0.6,0-1-0.2-1.3-0.5c-0.4-0.4-0.5-1-0.5-1.8v-3.7h-1.1v-0.9h1.1v-1.6L56.6,79.9z"/>
	<path class="st2" d="M59.5,83c0-0.5,0.4-0.9,0.8-0.9s0.8,0.4,0.8,0.9c0,0.5-0.3,0.9-0.8,0.9C59.8,83.8,59.5,83.5,59.5,83z
		 M59.5,87.9c0-0.5,0.4-0.9,0.8-0.9s0.8,0.4,0.8,0.9c0,0.5-0.3,0.9-0.8,0.9C59.8,88.8,59.5,88.4,59.5,87.9z"/>
	<path class="st2" d="M70.5,84.2h-3.7v3.4H71v1h-5.3v-9.4h5.1v1h-3.9v3h3.7V84.2z"/>
	<path class="st2" d="M72.5,83.7c0-0.7,0-1.3-0.1-1.8h1.1l0.1,1.1h0c0.3-0.6,1.1-1.3,2.2-1.3c0.9,0,2.4,0.6,2.4,2.9v4H77v-3.9
		c0-1.1-0.4-2-1.6-2c-0.8,0-1.4,0.6-1.7,1.3c-0.1,0.2-0.1,0.4-0.1,0.6v4.1h-1.2V83.7z"/>
	<path class="st2" d="M85.1,88.4c-0.3,0.2-1,0.4-1.9,0.4c-2,0-3.4-1.4-3.4-3.5c0-2.1,1.4-3.6,3.6-3.6c0.7,0,1.4,0.2,1.7,0.4l-0.3,1
		c-0.3-0.2-0.8-0.3-1.4-0.3c-1.6,0-2.4,1.1-2.4,2.6c0,1.6,1,2.5,2.4,2.5c0.7,0,1.2-0.2,1.5-0.3L85.1,88.4z"/>
	<path class="st2" d="M86.5,84c0-0.8,0-1.5-0.1-2.1h1.1l0,1.3h0.1c0.3-0.9,1.1-1.5,1.9-1.5c0.1,0,0.2,0,0.4,0v1.2
		c-0.1,0-0.3,0-0.4,0c-0.9,0-1.5,0.7-1.7,1.6c0,0.2-0.1,0.4-0.1,0.6v3.6h-1.2V84z"/>
	<path class="st2" d="M91.9,81.8l1.5,4c0.2,0.4,0.3,1,0.4,1.4h0c0.1-0.4,0.3-0.9,0.4-1.4l1.3-4h1.3l-1.8,4.8
		c-0.9,2.3-1.5,3.5-2.3,4.2c-0.6,0.5-1.2,0.7-1.5,0.8l-0.3-1c0.3-0.1,0.7-0.3,1.1-0.6c0.3-0.3,0.8-0.7,1-1.4
		c0.1-0.1,0.1-0.2,0.1-0.3c0-0.1,0-0.2-0.1-0.3l-2.5-6.2H91.9z"/>
	<path class="st2" d="M98.1,84.1c0-0.9,0-1.6-0.1-2.2h1.1l0.1,1.2h0c0.5-0.8,1.3-1.3,2.4-1.3c1.6,0,2.9,1.4,2.9,3.4
		c0,2.4-1.5,3.6-3.1,3.6c-0.9,0-1.7-0.4-2.1-1.1h0v3.7h-1.2V84.1z M99.3,85.9c0,0.2,0,0.4,0.1,0.5c0.2,0.9,1,1.4,1.8,1.4
		c1.3,0,2.1-1.1,2.1-2.6c0-1.4-0.7-2.5-2-2.5c-0.8,0-1.6,0.6-1.9,1.5c0,0.2-0.1,0.3-0.1,0.5V85.9z"/>
	<path class="st2" d="M107.5,79.9v1.9h1.8v0.9h-1.8v3.7c0,0.8,0.2,1.3,0.9,1.3c0.3,0,0.6,0,0.7-0.1l0.1,0.9
		c-0.2,0.1-0.6,0.2-1.1,0.2c-0.6,0-1-0.2-1.3-0.5c-0.4-0.4-0.5-1-0.5-1.8v-3.7h-1.1v-0.9h1.1v-1.6L107.5,79.9z"/>
	<path class="st2" d="M112,79.9c0,0.4-0.3,0.8-0.8,0.8c-0.4,0-0.7-0.3-0.7-0.8c0-0.4,0.3-0.8,0.8-0.8C111.7,79.2,112,79.5,112,79.9z
		 M110.7,88.6v-6.8h1.2v6.8H110.7z"/>
	<path class="st2" d="M120.1,85.2c0,2.5-1.7,3.6-3.4,3.6c-1.8,0-3.2-1.3-3.2-3.5c0-2.3,1.5-3.6,3.4-3.6
		C118.8,81.7,120.1,83.1,120.1,85.2z M114.7,85.2c0,1.5,0.9,2.6,2.1,2.6c1.2,0,2.1-1.1,2.1-2.6c0-1.1-0.6-2.6-2-2.6
		C115.3,82.6,114.7,84,114.7,85.2z"/>
	<path class="st2" d="M121.6,83.7c0-0.7,0-1.3-0.1-1.8h1.1l0.1,1.1h0c0.3-0.6,1.1-1.3,2.2-1.3c0.9,0,2.4,0.6,2.4,2.9v4h-1.2v-3.9
		c0-1.1-0.4-2-1.6-2c-0.8,0-1.4,0.6-1.7,1.3c-0.1,0.2-0.1,0.4-0.1,0.6v4.1h-1.2V83.7z"/>
	<path class="st2" d="M15.7,116h5.1v1h-3.9v3.1h3.6v1h-3.6v4.3h-1.2V116z"/>
	<path class="st2" d="M22.1,120.8c0-0.8,0-1.5-0.1-2.1h1.1l0,1.3h0.1c0.3-0.9,1.1-1.5,1.9-1.5c0.1,0,0.2,0,0.4,0v1.2
		c-0.1,0-0.3,0-0.4,0c-0.9,0-1.5,0.7-1.7,1.6c0,0.2-0.1,0.4-0.1,0.6v3.6h-1.2V120.8z"/>
	<path class="st2" d="M32.7,122c0,2.5-1.7,3.6-3.4,3.6c-1.8,0-3.2-1.3-3.2-3.5c0-2.3,1.5-3.6,3.4-3.6
		C31.4,118.5,32.7,119.9,32.7,122z M27.3,122c0,1.5,0.9,2.6,2.1,2.6c1.2,0,2.1-1.1,2.1-2.6c0-1.1-0.6-2.6-2-2.6
		C27.9,119.4,27.3,120.8,27.3,122z"/>
	<path class="st2" d="M34.2,120.5c0-0.7,0-1.3-0.1-1.8h1.1l0.1,1.1h0c0.4-0.6,1-1.2,2.1-1.2c0.9,0,1.6,0.6,1.9,1.4h0
		c0.2-0.4,0.5-0.7,0.8-0.9c0.4-0.3,0.9-0.5,1.5-0.5c0.9,0,2.2,0.6,2.2,2.9v4h-1.2v-3.8c0-1.3-0.5-2.1-1.5-2.1
		c-0.7,0-1.2,0.5-1.5,1.1c-0.1,0.2-0.1,0.4-0.1,0.6v4.2h-1.2v-4.1c0-1.1-0.5-1.9-1.4-1.9c-0.8,0-1.3,0.6-1.5,1.2
		c-0.1,0.2-0.1,0.4-0.1,0.6v4.1h-1.2V120.5z"/>
	<path class="st2" d="M45.6,119.8c0-0.5,0.4-0.9,0.8-0.9s0.8,0.4,0.8,0.9c0,0.5-0.3,0.9-0.8,0.9C46,120.6,45.6,120.3,45.6,119.8z
		 M45.6,124.7c0-0.5,0.4-0.9,0.8-0.9s0.8,0.4,0.8,0.9c0,0.5-0.3,0.9-0.8,0.9C46,125.6,45.6,125.2,45.6,124.7z"/>
	<path class="st2" d="M51.8,116.1c0.5-0.1,1.4-0.2,2.2-0.2c1.2,0,2,0.2,2.6,0.7c0.5,0.4,0.8,0.9,0.8,1.7c0,0.9-0.6,1.7-1.6,2.1v0
		c0.9,0.2,1.9,1,1.9,2.4c0,0.8-0.3,1.4-0.8,1.9c-0.7,0.6-1.7,0.9-3.3,0.9c-0.8,0-1.5-0.1-1.9-0.1V116.1z M53,120h1.1
		c1.3,0,2-0.7,2-1.6c0-1.1-0.8-1.5-2.1-1.5c-0.6,0-0.9,0-1.1,0.1V120z M53,124.5c0.2,0,0.6,0.1,1,0.1c1.3,0,2.4-0.5,2.4-1.8
		c0-1.3-1.1-1.8-2.4-1.8h-1V124.5z"/>
	<path class="st2" d="M65.6,122c0,2.5-1.7,3.6-3.4,3.6c-1.8,0-3.2-1.3-3.2-3.5c0-2.3,1.5-3.6,3.4-3.6
		C64.2,118.5,65.6,119.9,65.6,122z M60.2,122c0,1.5,0.9,2.6,2.1,2.6c1.2,0,2.1-1.1,2.1-2.6c0-1.1-0.6-2.6-2-2.6
		C60.8,119.4,60.2,120.8,60.2,122z"/>
	<path class="st2" d="M67.1,125.4c0-0.5,0.1-1.1,0.1-1.8v-8.2h1.2v4.3h0c0.4-0.8,1.2-1.2,2.3-1.2c1.7,0,2.9,1.4,2.9,3.5
		c0,2.4-1.5,3.6-3,3.6c-1,0-1.8-0.4-2.3-1.3h0l-0.1,1.1H67.1z M68.3,122.7c0,0.2,0,0.3,0.1,0.4c0.2,0.9,1,1.4,1.8,1.4
		c1.3,0,2.1-1.1,2.1-2.6c0-1.4-0.7-2.5-2-2.5c-0.8,0-1.6,0.6-1.9,1.5c0,0.1-0.1,0.3-0.1,0.5V122.7z"/>
</g>
<line class="st3" x1="1.3" y1="21.4" x2="336.3" y2="21.4"/>
<line class="st3" x1="9.7" y1="61.2" x2="326.3" y2="61.2"/>
<line class="st3" x1="9.7" y1="104.2" x2="326.3" y2="104.2"/>
<line class="st3" x1="9.7" y1="141.5" x2="326.3" y2="141.5"/>
<ellipse class="st4" cx="21.2" cy="12" rx="5" ry="3.4"/>
<ellipse class="st4" cx="39.7" cy="12" rx="5" ry="3.4"/>
<ellipse class="st4" cx="56.8" cy="12" rx="5" ry="3.4"/>
<polyline class="st5" points="289.5,87.8 297,93.1 313.2,74.5 "/>
<path class="st6" d="M275.9,81v-4.1c0-4.5-3.7-8.2-8.2-8.2c-4.5,0-8.2,3.7-8.2,8.2V81H258v15.1h19.4V81H275.9z M261.7,76.9
	c0-3.3,2.7-6,6-6c3.3,0,6,2.7,6,6V81h-12V76.9z"/>
<g>
</g>
<g>
</g>
<g>
</g>
<g>
</g>
<g>
</g>
<g>
</g>
</svg>
