<?xml version="1.0" encoding="utf-8"?>
<!-- Generator: Adobe Illustrator 19.1.0, SVG Export Plug-In . SVG Version: 6.00 Build 0)  -->
<svg version="1.1" id="Layer_1" xmlns="http://www.w3.org/2000/svg" xmlns:xlink="http://www.w3.org/1999/xlink" x="0px" y="0px"
	 viewBox="0 0 221.6 163.9" style="enable-background:new 0 0 221.6 163.9;" xml:space="preserve">
<style type="text/css">
	.st0{fill:none;stroke:#3A50A2;stroke-width:3.079;stroke-linecap:round;stroke-miterlimit:10;}
	.st1{fill:none;stroke:#3A50A2;stroke-width:1.8474;stroke-linecap:round;stroke-miterlimit:10;}
	.st2{fill:#010101;}
</style>
<g>
	<g>
		<rect x="38.5" y="29.5" class="st0" width="148.2" height="109.1"/>
		<path class="st1" d="M112.6,84"/>
		<path class="st1" d="M39.8,30.9l63.9,64.8c4.7,4.8,13.4,4.7,18,0l63.9-64.3"/>
		<line class="st1" x1="38.5" y1="138.6" x2="92.1" y2="83.8"/>
		<line class="st1" x1="186.7" y1="138.6" x2="133.6" y2="84.2"/>
	</g>
</g>
<g>
	<path class="st2" d="M55.5,95.8c0.2,0.7,0.3,1.4,0.2,2c-0.1,0.7-0.3,1.3-0.6,1.9c-0.3,0.5-0.6,1-1.1,1.3c-0.5,0.4-1,0.7-1.6,0.9
		c-0.5,0.2-1.1,0.3-1.6,0.2c-0.5,0-1-0.1-1.5-0.4c-0.5-0.2-0.9-0.5-1.2-0.9c-0.3-0.4-0.6-0.9-0.8-1.4c-0.2-0.6-0.3-1.3-0.3-1.9
		c0-0.6,0.2-1.2,0.5-1.8c0.3-0.6,0.7-1.1,1.1-1.5c0.5-0.4,1-0.8,1.7-1c0.6-0.2,1.1-0.3,1.6-0.2c0.5,0,1,0.1,1.5,0.4
		c0.5,0.2,0.9,0.5,1.2,0.9C55.1,94.8,55.3,95.2,55.5,95.8z M53,96c-0.1-0.2-0.1-0.4-0.2-0.5c-0.1-0.2-0.2-0.4-0.3-0.5
		c-0.1-0.2-0.2-0.3-0.4-0.5c-0.1-0.2-0.3-0.3-0.4-0.4C51.5,94,51.4,94,51.2,94c-0.2,0-0.3,0-0.5,0.1c-0.3,0.1-0.6,0.3-0.7,0.5
		c-0.2,0.2-0.3,0.5-0.4,0.9c-0.1,0.3-0.1,0.7-0.1,1.1c0,0.4,0,0.7,0.1,1.1c0,0.4,0.1,0.7,0.2,1c0.1,0.3,0.1,0.6,0.2,0.8
		c0.1,0.4,0.3,0.7,0.5,1.1c0.2,0.4,0.5,0.6,0.8,0.8c0.1,0.1,0.3,0.1,0.5,0.1c0.2,0,0.3,0,0.6-0.1c0.3-0.1,0.5-0.3,0.7-0.5
		c0.2-0.2,0.3-0.5,0.4-0.8c0.1-0.3,0.1-0.7,0.1-1c0-0.4,0-0.7-0.1-1.1c0-0.4-0.1-0.7-0.2-1C53.1,96.5,53,96.2,53,96z"/>
	<path class="st2" d="M59.8,98.6l0.3,3c0,0.2,0.2,0.2,0.4,0.2l0.9-0.1l0.2,0.5l-3.8,1.3l-0.1-0.6l0.5-0.3c0.1-0.1,0.1-0.1,0.2-0.2
		c0-0.1,0-0.1,0-0.2l-0.8-7.6l-0.4,0l-0.4,1.1l-0.4-0.2c0-0.2,0.1-0.4,0.1-0.7c0.1-0.2,0.1-0.5,0.2-0.7c0.1-0.2,0.2-0.4,0.4-0.5
		c0.1-0.2,0.3-0.3,0.5-0.3c0.1,0,0.2,0,0.4,0c0.2,0,0.4,0,0.6,0c0.2,0,0.4,0.1,0.5,0.1c0.1,0,0.2,0.1,0.3,0.2
		c0.1,0.3,0.1,0.6,0.1,0.9c0,0.3,0,0.7,0,1l0.2-0.1c0.1-0.5,0.1-1,0.2-1.3c0.1-0.4,0.2-0.7,0.3-1c0.1-0.3,0.3-0.5,0.5-0.6
		c0.2-0.2,0.4-0.3,0.7-0.4c0.5-0.2,0.9-0.1,1.4,0.1c0.4,0.2,0.7,0.6,0.9,1.2c0.1,0.3,0.2,0.6,0.2,1c0,0.3,0,0.7,0,1
		c0,0.3-0.1,0.7-0.2,1c-0.1,0.3-0.2,0.7-0.4,1c-0.2,0.4-0.4,0.7-0.7,1c-0.3,0.3-0.5,0.5-0.8,0.5c-0.3,0.1-0.6,0.1-0.9,0
		c-0.3-0.1-0.6-0.2-0.8-0.4L59.8,98.6z M60.2,97.8c0.2,0.1,0.3,0.2,0.5,0.3c0.2,0.1,0.3,0.1,0.4,0.2c0.1,0,0.2,0,0.3,0
		c0.1,0,0.2-0.1,0.2-0.1c0-0.1,0.1-0.1,0.1-0.2c0.1-0.2,0.2-0.5,0.2-0.7c0-0.3,0.1-0.6,0.1-0.9c0-0.3,0-0.6-0.1-0.9
		c0-0.3-0.1-0.5-0.2-0.8c-0.1-0.3-0.2-0.5-0.4-0.7c-0.2-0.2-0.4-0.2-0.6-0.1c-0.1,0-0.2,0.1-0.3,0.3c-0.1,0.2-0.2,0.4-0.3,0.6
		C60.1,95,60,95.2,60,95.5c-0.1,0.3-0.2,0.6-0.2,0.9l0,1C59.9,97.6,60,97.7,60.2,97.8z"/>
	<path class="st2" d="M66.7,94.8c0.1,0.2,0.1,0.3,0.2,0.4c0.1,0.1,0.2,0.2,0.3,0.3c0.1,0.1,0.3,0.1,0.4,0.1c0.2,0,0.3,0,0.5-0.1
		c0.1,0,0.3-0.2,0.5-0.5c0.3-0.3,0.6-0.6,0.9-1l0.3,0.2c-0.1,0.3-0.2,0.5-0.3,0.8c-0.1,0.3-0.3,0.5-0.4,0.8
		c-0.2,0.2-0.4,0.5-0.6,0.7c-0.2,0.2-0.5,0.3-0.8,0.4c-0.4,0.1-0.8,0.2-1.1,0.2c-0.3,0-0.6-0.1-0.9-0.3c-0.3-0.1-0.5-0.3-0.6-0.6
		c-0.2-0.3-0.3-0.5-0.4-0.9c-0.2-0.5-0.2-1-0.2-1.5c0-0.5,0.2-1,0.4-1.5c0.2-0.5,0.5-0.9,0.9-1.3c0.4-0.4,0.8-0.7,1.4-0.9
		c0.6-0.2,1.1-0.2,1.5-0.1c0.4,0.2,0.6,0.4,0.8,0.8c0.1,0.2,0.1,0.5,0,0.7c-0.1,0.2-0.3,0.5-0.5,0.8c-0.2,0.3-0.6,0.6-0.9,1
		C67.6,93.8,67.2,94.2,66.7,94.8L66.7,94.8z M66.5,94.2c0.2-0.3,0.5-0.5,0.7-0.8c0.2-0.2,0.4-0.5,0.5-0.7c0.1-0.2,0.2-0.4,0.3-0.6
		c0-0.2,0-0.4,0-0.6c0-0.1-0.1-0.2-0.2-0.2c-0.1-0.1-0.2-0.1-0.3-0.1c-0.1,0-0.2,0-0.3,0c-0.1,0-0.2,0-0.3,0c-0.1,0-0.2,0.1-0.2,0.1
		c0,0-0.1,0.1-0.1,0.1c-0.1,0.1-0.1,0.3-0.1,0.5c0,0.2-0.1,0.4-0.1,0.7c0,0.3,0,0.5,0,0.8C66.3,93.7,66.4,94,66.5,94.2L66.5,94.2z"
		/>
	<path class="st2" d="M77.8,93.2c-0.2,0.4-0.6,0.6-1,0.7c-0.1,0-0.2,0-0.4,0.1c-0.2,0-0.3,0-0.5,0s-0.3,0-0.4-0.1
		c-0.1,0-0.2-0.1-0.2-0.2c0-0.1-0.1-0.4-0.1-0.9s0-1.1,0-1.9c0-0.3,0-0.6,0-0.9c0-0.3,0-0.5-0.1-0.6c0-0.1-0.1-0.2-0.3-0.2
		c-0.1,0-0.3,0-0.4,0c-0.1,0-0.2,0.1-0.3,0.3C74,89.8,74,90,73.9,90.2c-0.1,0.2-0.1,0.6-0.2,0.9c-0.1,0.4-0.1,0.8-0.2,1.4l0.2,2.3
		l-2,0.7l-0.1-2.1l-0.4-3.2l-0.4,0l-0.4,1.1L70,91c0-0.2,0.1-0.4,0.1-0.7c0.1-0.2,0.1-0.5,0.2-0.7c0.1-0.2,0.2-0.4,0.4-0.5
		c0.1-0.2,0.3-0.3,0.5-0.3c0.1,0,0.2-0.1,0.4-0.1c0.2,0,0.4,0,0.5-0.1c0.2,0,0.3,0,0.5,0c0.1,0,0.2,0.1,0.3,0.1
		c0,0.1,0.1,0.3,0.1,0.6c0,0.3,0.1,0.6,0.1,0.9c0,0.3,0,0.6,0,0.8c0,0.3,0,0.4,0,0.5l0.2-0.1c0-0.3,0-0.5,0.1-0.8
		c0-0.3,0.1-0.6,0.1-0.8c0-0.3,0.1-0.5,0.1-0.7c0.1-0.2,0.1-0.4,0.2-0.6c0.1-0.2,0.3-0.5,0.5-0.7c0.2-0.2,0.5-0.4,0.7-0.5
		c0.4-0.1,0.8-0.1,1.1,0c0.3,0.1,0.5,0.4,0.6,0.7c0.1,0.3,0.2,0.7,0.2,1.2c0,0.5,0,1,0,1.5l-0.1,1.7l0.4,0l0.7-0.8l0.3,0.2
		C78.2,92.5,78.1,92.9,77.8,93.2z"/>
	<path class="st2" d="M86.8,86.7c0.2,0.5,0.2,1,0.2,1.4c0,0.5-0.1,0.9-0.3,1.4c-0.2,0.4-0.5,0.8-0.8,1.1c-0.3,0.3-0.8,0.6-1.3,0.7
		c-0.4,0.1-0.8,0.2-1.1,0.2c-0.4,0-0.7-0.1-1-0.3c-0.3-0.2-0.6-0.4-0.8-0.7c-0.2-0.3-0.4-0.6-0.5-1c-0.2-0.5-0.2-1-0.2-1.4
		c0-0.5,0.1-0.9,0.3-1.4c0.2-0.4,0.5-0.8,0.8-1.1c0.3-0.3,0.8-0.6,1.3-0.7c0.4-0.1,0.8-0.2,1.1-0.2c0.4,0,0.7,0.1,1,0.3
		c0.3,0.2,0.6,0.4,0.8,0.7C86.5,86,86.6,86.3,86.8,86.7z M84.7,86.6c-0.1-0.4-0.3-0.6-0.5-0.8c-0.2-0.2-0.4-0.2-0.7-0.1
		c-0.2,0.1-0.3,0.2-0.4,0.3c-0.1,0.2-0.2,0.4-0.2,0.6c0,0.2-0.1,0.5-0.1,0.8c0,0.3,0,0.6,0,0.9c0,0.3,0.1,0.5,0.1,0.7
		c0,0.2,0.1,0.4,0.2,0.6c0.1,0.4,0.3,0.6,0.5,0.8c0.2,0.2,0.4,0.2,0.7,0.1c0.2-0.1,0.3-0.2,0.4-0.3c0.1-0.2,0.2-0.4,0.2-0.6
		c0-0.3,0.1-0.5,0.1-0.8c0-0.3,0-0.6,0-0.9c0-0.2-0.1-0.5-0.1-0.7S84.8,86.8,84.7,86.6z"/>
	<path class="st2" d="M94.8,87.7c-0.2,0.4-0.6,0.6-1,0.7c-0.1,0-0.2,0-0.4,0.1c-0.2,0-0.3,0-0.5,0c-0.2,0-0.3,0-0.4-0.1
		c-0.1,0-0.2-0.1-0.2-0.2c0-0.1-0.1-0.4-0.1-0.9c0-0.4,0-1.1,0-1.9c0-0.3,0-0.6,0-0.9c0-0.3,0-0.5-0.1-0.6c0-0.1-0.1-0.2-0.3-0.2
		c-0.1,0-0.3,0-0.4,0c-0.1,0-0.2,0.1-0.3,0.3c-0.1,0.1-0.2,0.3-0.2,0.6c-0.1,0.2-0.1,0.6-0.2,0.9c-0.1,0.4-0.1,0.8-0.2,1.4l0.2,2.3
		l-2,0.7l-0.1-2.1l-0.4-3.2l-0.4,0l-0.4,1.1L87,85.5c0-0.2,0.1-0.4,0.1-0.7c0.1-0.2,0.1-0.5,0.2-0.7c0.1-0.2,0.2-0.4,0.4-0.5
		c0.1-0.2,0.3-0.3,0.5-0.3c0.1,0,0.2-0.1,0.4-0.1c0.2,0,0.4,0,0.5-0.1c0.2,0,0.3,0,0.5,0c0.1,0,0.2,0.1,0.3,0.1
		c0,0.1,0.1,0.3,0.1,0.6c0,0.3,0.1,0.6,0.1,0.9c0,0.3,0,0.6,0,0.8c0,0.3,0,0.4,0,0.5l0.2-0.1c0-0.3,0-0.5,0.1-0.8
		c0-0.3,0.1-0.6,0.1-0.8c0-0.3,0.1-0.5,0.1-0.7c0.1-0.2,0.1-0.4,0.2-0.6c0.1-0.2,0.3-0.5,0.5-0.7c0.2-0.2,0.5-0.4,0.7-0.5
		c0.4-0.1,0.8-0.1,1.1,0c0.3,0.1,0.5,0.4,0.6,0.7c0.1,0.3,0.2,0.7,0.2,1.2c0,0.5,0,1,0,1.5l-0.1,1.7l0.4,0l0.7-0.8l0.3,0.2
		C95.2,86.9,95,87.3,94.8,87.7z"/>
	<path class="st2" d="M103.7,79.5c0.1,0.2,0.1,0.5,0.1,0.8c0,0.3-0.1,0.6-0.1,1s-0.2,0.7-0.3,1.1c-0.1,0.4-0.3,0.8-0.4,1.2l-0.6,1.7
		l-0.2,1.7c-0.1,0.8-0.3,1.4-0.5,1.8c-0.3,0.4-0.7,0.7-1.2,0.9c-0.2,0.1-0.4,0.1-0.6,0.1c-0.2,0-0.4,0-0.6-0.1
		c-0.2-0.1-0.3-0.2-0.5-0.3c-0.1-0.1-0.2-0.3-0.3-0.5c-0.1-0.3-0.1-0.5,0-0.7c0.1-0.2,0.3-0.4,0.5-0.4c0.3-0.1,0.6-0.1,0.8,0.1
		c0.2,0.2,0.4,0.4,0.6,0.8l0.3,0l0.9-2.4l-1.2,0l-2-4.9l-0.4,0l-0.4,1.1l-0.4-0.2c0-0.2,0.1-0.4,0.1-0.7c0.1-0.2,0.1-0.5,0.2-0.7
		c0.1-0.2,0.2-0.4,0.4-0.5c0.1-0.2,0.3-0.3,0.5-0.3c0.1,0,0.2-0.1,0.4-0.1c0.2,0,0.4,0,0.5,0c0.2,0,0.3,0,0.5,0.1
		c0.1,0,0.2,0.1,0.3,0.2l1.6,4.9l0.2-0.1l0.7-3.9l-0.1-0.2c-0.3,0-0.6-0.1-0.7-0.2c-0.2-0.1-0.3-0.3-0.3-0.4c-0.1-0.3-0.1-0.6,0-0.9
		c0.1-0.3,0.4-0.5,0.7-0.6c0.3-0.1,0.6-0.1,0.9,0C103.4,78.8,103.6,79.1,103.7,79.5z"/>
	<path class="st2" d="M110.5,78.9c0.2,0.5,0.2,1,0.2,1.4c0,0.5-0.1,0.9-0.3,1.4c-0.2,0.4-0.5,0.8-0.8,1.1c-0.3,0.3-0.8,0.6-1.3,0.7
		c-0.4,0.1-0.8,0.2-1.1,0.2c-0.4,0-0.7-0.1-1-0.3c-0.3-0.2-0.6-0.4-0.8-0.7c-0.2-0.3-0.4-0.6-0.5-1c-0.2-0.5-0.2-1-0.2-1.4
		c0-0.5,0.1-0.9,0.3-1.4c0.2-0.4,0.5-0.8,0.8-1.1c0.3-0.3,0.8-0.6,1.3-0.7c0.4-0.1,0.8-0.2,1.1-0.2c0.4,0,0.7,0.1,1,0.3
		c0.3,0.2,0.6,0.4,0.8,0.7C110.2,78.2,110.4,78.5,110.5,78.9z M108.4,78.8c-0.1-0.4-0.3-0.6-0.5-0.8c-0.2-0.2-0.4-0.2-0.7-0.1
		c-0.2,0.1-0.3,0.2-0.4,0.3c-0.1,0.2-0.2,0.4-0.2,0.6c0,0.2-0.1,0.5-0.1,0.8c0,0.3,0,0.6,0.1,0.9c0,0.3,0.1,0.5,0.1,0.7
		c0,0.2,0.1,0.4,0.2,0.6c0.1,0.4,0.3,0.6,0.5,0.8c0.2,0.2,0.4,0.2,0.7,0.1c0.2-0.1,0.3-0.2,0.4-0.3c0.1-0.2,0.2-0.4,0.2-0.6
		c0-0.3,0.1-0.5,0.1-0.8c0-0.3,0-0.6,0-0.9c0-0.2-0.1-0.5-0.1-0.7C108.6,79.2,108.5,79,108.4,78.8z"/>
	<path class="st2" d="M111,77c0.1-0.2,0.1-0.5,0.2-0.7c0.1-0.2,0.2-0.4,0.4-0.5c0.1-0.2,0.3-0.3,0.5-0.3c0.1,0,0.2,0,0.4,0
		c0.2,0,0.4,0,0.6,0.1c0.2,0,0.4,0.1,0.5,0.2c0.1,0.1,0.2,0.1,0.3,0.2c0,0.1,0,0.1,0,0.3c0,0.1,0,0.3,0,0.5c0,0.2,0,0.4,0,0.7
		c0,0.3,0,0.6,0,1c0,0.3,0,0.6,0,0.8c0,0.2,0,0.4,0.1,0.6c0,0.1,0.1,0.2,0.3,0.3c0.1,0.1,0.3,0.1,0.4,0c0.1,0,0.2-0.1,0.3-0.3
		c0.1-0.1,0.2-0.3,0.2-0.6c0.1-0.3,0.1-0.6,0.2-0.9c0.1-0.4,0.1-0.8,0.2-1.4l-0.1-2.3l2-0.7l0,2.2l0.4,3.4l0.4,0l0.6-0.8l0.3,0.2
		c-0.1,0.4-0.3,0.8-0.5,1.1c-0.2,0.3-0.6,0.6-1,0.7c-0.1,0-0.2,0-0.4,0.1c-0.2,0-0.3,0-0.5,0c-0.2,0-0.3,0-0.5-0.1
		c-0.1,0-0.2-0.1-0.2-0.2c0-0.1-0.1-0.3-0.1-0.6c0-0.3,0-0.6-0.1-0.8c0-0.3,0-0.6,0-0.8c0-0.2,0-0.4,0-0.5l-0.2,0.1
		c0,0.3-0.1,0.5-0.1,0.8c0,0.3-0.1,0.6-0.1,0.8c0,0.3-0.1,0.5-0.2,0.7c-0.1,0.2-0.1,0.4-0.2,0.6c-0.1,0.2-0.3,0.5-0.5,0.7
		c-0.2,0.2-0.5,0.4-0.7,0.5c-0.4,0.1-0.8,0.1-1.1-0.1c-0.3-0.2-0.5-0.4-0.6-0.8c-0.1-0.3-0.2-0.7-0.2-1.2c0-0.5,0-0.9,0-1.4
		c0-0.2,0-0.3,0-0.5c0-0.2,0-0.4,0-0.5c0-0.2,0-0.4,0-0.6l-0.4,0l-0.4,1.1l-0.4-0.2C110.9,77.4,110.9,77.2,111,77z"/>
	<path class="st2" d="M122.6,73.2l-0.8,3.9l0.3,1.7l-2,0.7l-0.1-2.1l-0.4-3.2l-0.4,0l-0.4,1.1l-0.4-0.2c0-0.2,0.1-0.4,0.1-0.7
		c0.1-0.2,0.1-0.5,0.2-0.7c0.1-0.2,0.2-0.4,0.4-0.5c0.1-0.2,0.3-0.3,0.5-0.3c0.1,0,0.2-0.1,0.4-0.1c0.2,0,0.4,0,0.5-0.1
		c0.2,0,0.3,0,0.5,0c0.1,0,0.2,0.1,0.3,0.1c0,0.1,0.1,0.3,0.1,0.6c0,0.3,0,0.6,0.1,1c0,0.3,0,0.7,0,1c0,0.3,0,0.6,0,0.8l0.2-0.1
		l0.3-2.5c0-0.3,0.1-0.6,0.1-0.9c0-0.2,0.1-0.4,0.2-0.6c0.1-0.2,0.2-0.3,0.3-0.4c0.1-0.1,0.3-0.2,0.5-0.3c0.1,0,0.3-0.1,0.5-0.1
		c0.2,0,0.3,0,0.5,0.1c0.1,0.1,0.3,0.2,0.4,0.3c0.1,0.1,0.2,0.3,0.3,0.6c0.1,0.2,0.1,0.3,0.1,0.5c0,0.2,0,0.3-0.1,0.4
		c-0.1,0.1-0.1,0.3-0.2,0.4c-0.1,0.1-0.2,0.2-0.3,0.2c-0.2,0.1-0.3,0.1-0.5,0c-0.2,0-0.3-0.1-0.4-0.2c-0.1-0.1-0.2-0.2-0.3-0.3
		c-0.1-0.1-0.1-0.3-0.1-0.5L122.6,73.2z"/>
	<path class="st2" d="M134.5,70.1c0.1,0.3,0.2,0.6,0.2,1c0,0.3,0,0.7,0,1c-0.1,0.4-0.1,0.7-0.2,1c-0.1,0.3-0.2,0.7-0.4,1
		c-0.2,0.4-0.4,0.7-0.8,1c-0.3,0.3-0.7,0.5-1.2,0.7c-0.4,0.1-0.8,0.2-1.1,0.2c-0.4,0-0.7,0-1-0.1c-0.3-0.1-0.5-0.2-0.7-0.3
		c-0.2-0.1-0.3-0.2-0.3-0.3l-0.7-6.3c0-0.3-0.2-0.5-0.4-0.5l-0.8-0.1l0-0.4l2.9-1.7l0.2,3.2l0.2,3l0.2-0.1c0.1-0.5,0.2-1,0.2-1.4
		c0.1-0.4,0.2-0.8,0.3-1.1c0.1-0.3,0.3-0.5,0.5-0.7c0.2-0.2,0.4-0.3,0.7-0.4c0.5-0.2,0.9-0.1,1.4,0.1
		C133.9,69.1,134.3,69.5,134.5,70.1z M132.8,71.3c-0.1-0.3-0.2-0.5-0.4-0.7c-0.2-0.2-0.4-0.2-0.6-0.1c-0.2,0.1-0.3,0.2-0.4,0.3
		c-0.1,0.2-0.2,0.4-0.3,0.6c-0.1,0.2-0.1,0.5-0.2,0.8c-0.1,0.3-0.1,0.6-0.2,0.9l0,1.2c0.1,0.1,0.3,0.2,0.4,0.3
		c0.2,0.1,0.3,0.1,0.5,0.2c0.2,0,0.3,0.1,0.4,0.1c0.1,0,0.2,0,0.3,0c0.1,0,0.2-0.1,0.2-0.1c0,0,0.1-0.1,0.1-0.2
		c0.1-0.2,0.2-0.5,0.2-0.7c0-0.3,0.1-0.6,0.1-0.9c0-0.3,0-0.6-0.1-0.9C132.9,71.8,132.9,71.5,132.8,71.3z"/>
	<path class="st2" d="M138.9,73.1c-0.2,0.4-0.6,0.6-1,0.7c-0.1,0-0.2,0-0.4,0.1c-0.2,0-0.3,0-0.5,0c-0.2,0-0.3-0.1-0.4-0.1
		c-0.1,0-0.2-0.1-0.2-0.1l-0.3-4.8l-0.4,0l-0.4,1.1l-0.4-0.2c0-0.2,0.1-0.4,0.1-0.7c0.1-0.2,0.1-0.5,0.2-0.7
		c0.1-0.2,0.2-0.4,0.4-0.5c0.1-0.2,0.3-0.3,0.5-0.3c0.1,0,0.2-0.1,0.4-0.1c0.2,0,0.4,0,0.6,0c0.2,0,0.4,0,0.5,0.1
		c0.1,0,0.2,0.1,0.2,0.1l0.2,4.9l0.4,0l0.7-0.8l0.3,0.2C139.4,72.4,139.2,72.8,138.9,73.1z M137.7,64.8c0.1,0.2,0.1,0.4,0.1,0.6
		c0,0.2,0,0.4-0.1,0.5c-0.1,0.2-0.1,0.3-0.2,0.4c-0.1,0.1-0.2,0.2-0.4,0.2c-0.3,0.1-0.6,0.1-0.9-0.1c-0.2-0.1-0.4-0.4-0.5-0.6
		c-0.1-0.2-0.1-0.4-0.1-0.6c0-0.2,0-0.4,0.1-0.5c0.1-0.2,0.1-0.3,0.2-0.4c0.1-0.1,0.2-0.2,0.4-0.2c0.3-0.1,0.6-0.1,0.9,0.1
		C137.4,64.3,137.6,64.5,137.7,64.8z"/>
	<path class="st2" d="M143.1,66.5l-0.8,3.9l0.3,1.7l-2,0.7l-0.1-2.1l-0.4-3.2l-0.4,0l-0.4,1.1l-0.4-0.2c0-0.2,0.1-0.4,0.1-0.7
		c0.1-0.2,0.1-0.5,0.2-0.7c0.1-0.2,0.2-0.4,0.4-0.5c0.1-0.2,0.3-0.3,0.5-0.3c0.1,0,0.2-0.1,0.4-0.1c0.2,0,0.4,0,0.5-0.1
		c0.2,0,0.3,0,0.5,0c0.1,0,0.2,0.1,0.3,0.1c0,0.1,0.1,0.3,0.1,0.6c0,0.3,0,0.6,0.1,1c0,0.3,0,0.7,0,1c0,0.3,0,0.6,0,0.8l0.2-0.1
		l0.3-2.5c0-0.3,0.1-0.6,0.1-0.9c0.1-0.2,0.1-0.4,0.2-0.6c0.1-0.2,0.2-0.3,0.3-0.4c0.1-0.1,0.3-0.2,0.5-0.3c0.1,0,0.3-0.1,0.5-0.1
		c0.2,0,0.3,0,0.5,0.1c0.1,0.1,0.3,0.2,0.4,0.3c0.1,0.1,0.2,0.3,0.3,0.6c0.1,0.2,0.1,0.3,0.1,0.5c0,0.2,0,0.3-0.1,0.4
		c-0.1,0.1-0.1,0.3-0.2,0.4c-0.1,0.1-0.2,0.2-0.3,0.2c-0.2,0.1-0.3,0.1-0.5,0c-0.2,0-0.3-0.1-0.4-0.2c-0.1-0.1-0.2-0.2-0.3-0.3
		c-0.1-0.1-0.1-0.3-0.1-0.5L143.1,66.5z"/>
	<path class="st2" d="M146.1,62.4l1.8-0.6l0.2,2.1l1.6-0.5l0.3,0.8l-1.8,0.6l0.4,4.3l0.4,0l0.7-0.8l0.3,0.2
		c-0.1,0.4-0.3,0.8-0.5,1.2c-0.2,0.4-0.6,0.6-1,0.7c-0.1,0-0.2,0-0.4,0.1c-0.2,0-0.3,0-0.5,0c-0.2,0-0.3-0.1-0.4-0.1
		c-0.1,0-0.2-0.1-0.2-0.1l-0.4-4.7l-1.1,0.2l-0.1-0.5l1.1-0.9L146.1,62.4z"/>
	<path class="st2" d="M157.5,67c-0.2,0.4-0.6,0.6-1,0.7c-0.1,0-0.2,0-0.4,0.1c-0.2,0-0.3,0-0.5,0c-0.2,0-0.3,0-0.4-0.1
		c-0.1,0-0.2-0.1-0.2-0.2c0-0.1-0.1-0.4-0.1-0.9c0-0.4,0-1.1,0-1.9c0-0.3,0-0.6,0-0.9c0-0.3,0-0.5-0.1-0.6c0-0.1-0.1-0.2-0.3-0.2
		c-0.1,0-0.3,0-0.4,0c-0.1,0-0.2,0.1-0.3,0.3c-0.1,0.1-0.2,0.3-0.2,0.6c-0.1,0.2-0.1,0.6-0.2,0.9c-0.1,0.4-0.1,0.8-0.2,1.4l0.2,2.3
		l-2,0.7l-0.1-2.1l-0.5-5.4c0-0.3-0.2-0.5-0.4-0.5l-0.8-0.1l0-0.4l2.9-1.7l0.2,3.2l0.3,3.4l0.2-0.1c0-0.3,0-0.5,0.1-0.8
		c0-0.3,0.1-0.6,0.1-0.8c0-0.3,0.1-0.5,0.1-0.7c0.1-0.2,0.1-0.4,0.2-0.6c0.1-0.2,0.3-0.5,0.5-0.7c0.2-0.2,0.5-0.4,0.7-0.5
		c0.4-0.1,0.8-0.1,1.1,0c0.3,0.1,0.5,0.4,0.6,0.7c0.1,0.3,0.2,0.7,0.2,1.2c0,0.5,0,1,0,1.5l-0.1,1.7l0.4,0l0.7-0.8l0.3,0.2
		C158,66.3,157.8,66.7,157.5,67z"/>
	<path class="st2" d="M165,64.6c-0.3,0.4-0.6,0.6-1,0.8c-0.1,0-0.2,0-0.4,0c-0.2,0-0.3-0.1-0.5-0.1c-0.2-0.1-0.3-0.1-0.4-0.2
		c-0.1-0.1-0.2-0.1-0.2-0.2c0-0.1,0-0.2,0-0.4c0-0.2,0-0.4,0-0.6c0-0.2,0-0.4,0-0.6c0-0.2,0-0.4,0-0.5l-0.2,0.1
		c-0.1,0.5-0.2,0.9-0.3,1.3c-0.1,0.4-0.2,0.8-0.3,1.1c-0.1,0.3-0.2,0.6-0.4,0.8c-0.2,0.2-0.4,0.4-0.6,0.4c-0.5,0.2-0.9,0.1-1.4-0.1
		c-0.4-0.2-0.7-0.6-0.9-1.2c-0.1-0.3-0.2-0.6-0.2-1c0-0.3,0-0.7,0-1c0.1-0.4,0.1-0.7,0.2-1c0.1-0.3,0.2-0.7,0.4-1
		c0.2-0.4,0.4-0.7,0.7-0.9c0.3-0.3,0.6-0.4,0.9-0.5c0.2-0.1,0.4-0.1,0.5-0.1c0.2,0,0.3,0.1,0.4,0.1c0.1,0.1,0.2,0.2,0.3,0.3
		s0.2,0.2,0.3,0.4l0.1,0l-0.2-2.1c0-0.2-0.1-0.3-0.1-0.4c-0.1-0.1-0.2-0.1-0.3-0.1l-0.8-0.1l0-0.4l2.9-1.7l0.4,6.6l0.2,2.1l0.4,0
		l0.7-0.8l0.3,0.2C165.5,63.8,165.3,64.2,165,64.6z M161.7,60.8c-0.2-0.1-0.3-0.1-0.5-0.2c-0.2,0-0.3-0.1-0.4-0.1
		c-0.1,0-0.2,0-0.3,0c-0.1,0-0.2,0.1-0.2,0.1c-0.1,0.1-0.1,0.1-0.1,0.2c-0.1,0.2-0.2,0.4-0.2,0.7c0,0.3-0.1,0.5-0.1,0.8
		c0,0.3,0,0.5,0.1,0.8c0,0.3,0.1,0.5,0.2,0.7c0.1,0.3,0.2,0.5,0.4,0.7c0.2,0.2,0.4,0.2,0.6,0.1c0.1,0,0.3-0.1,0.4-0.3
		c0.1-0.1,0.2-0.3,0.3-0.5c0.1-0.2,0.2-0.5,0.2-0.7c0.1-0.3,0.2-0.6,0.2-0.9l0-1.3C162,61,161.9,60.9,161.7,60.8z"/>
	<path class="st2" d="M169.8,57.7l0.1-1.2l1.7-0.6l-0.1,2.8l0.2,2.9l0.4,0l0.7-0.8l0.3,0.2c-0.1,0.4-0.3,0.8-0.5,1.2
		c-0.3,0.4-0.6,0.6-1,0.8c-0.1,0-0.2,0.1-0.4,0.1c-0.2,0-0.3,0-0.5,0c-0.2,0-0.3,0-0.4-0.1c-0.1,0-0.2-0.1-0.2-0.2
		c0-0.1,0-0.2,0-0.4c0-0.2,0-0.4,0-0.6c0-0.2,0-0.5,0-0.7c0-0.2,0-0.4,0-0.6l-0.2,0.1c-0.1,0.5-0.2,0.9-0.3,1.3
		c-0.1,0.4-0.2,0.8-0.3,1.1c-0.1,0.3-0.2,0.6-0.4,0.8c-0.2,0.2-0.4,0.4-0.6,0.4c-0.5,0.2-0.9,0.1-1.4-0.1c-0.4-0.2-0.7-0.6-0.9-1.2
		c-0.1-0.3-0.2-0.6-0.2-1c0-0.3,0-0.7,0-1c0.1-0.4,0.1-0.7,0.2-1c0.1-0.3,0.2-0.7,0.4-1c0.2-0.4,0.4-0.7,0.7-0.9
		c0.3-0.3,0.6-0.4,0.9-0.5c0.4-0.1,0.7-0.1,1,0c0.3,0.1,0.5,0.3,0.7,0.6L169.8,57.7z M169.2,58.3c-0.2-0.1-0.3-0.1-0.5-0.2
		c-0.2,0-0.3-0.1-0.4-0.1c-0.1,0-0.2,0-0.3,0c-0.1,0-0.2,0.1-0.2,0.1c-0.1,0-0.1,0.1-0.1,0.2c-0.1,0.2-0.2,0.4-0.2,0.7
		c0,0.3-0.1,0.5-0.1,0.8c0,0.3,0,0.5,0.1,0.8c0,0.3,0.1,0.5,0.2,0.7c0.1,0.3,0.2,0.5,0.4,0.7c0.2,0.2,0.4,0.2,0.6,0.1
		c0.1,0,0.3-0.1,0.4-0.3c0.1-0.1,0.2-0.3,0.3-0.5c0.1-0.2,0.2-0.5,0.2-0.7c0.1-0.3,0.2-0.6,0.2-0.9l0-1.3
		C169.5,58.5,169.4,58.4,169.2,58.3z"/>
	<path class="st2" d="M178.8,54.8c0.1,0.2,0.1,0.5,0.1,0.8c0,0.3-0.1,0.6-0.1,1c-0.1,0.4-0.2,0.7-0.3,1.1c-0.1,0.4-0.3,0.8-0.4,1.2
		l-0.6,1.7l-0.2,1.7c-0.1,0.8-0.3,1.4-0.5,1.8c-0.3,0.4-0.7,0.7-1.2,0.9c-0.2,0.1-0.4,0.1-0.6,0.1c-0.2,0-0.4,0-0.6-0.1
		c-0.2-0.1-0.3-0.2-0.5-0.3c-0.1-0.1-0.2-0.3-0.3-0.5c-0.1-0.3-0.1-0.5,0-0.7c0.1-0.2,0.3-0.4,0.5-0.4c0.3-0.1,0.6-0.1,0.8,0.1
		c0.2,0.2,0.4,0.4,0.6,0.8l0.3,0l0.9-2.4l-1.2,0l-2-4.9l-0.4,0l-0.4,1.1l-0.4-0.2c0-0.2,0.1-0.4,0.1-0.7c0.1-0.2,0.1-0.5,0.2-0.7
		c0.1-0.2,0.2-0.4,0.4-0.5c0.1-0.2,0.3-0.3,0.5-0.3c0.1,0,0.2-0.1,0.4-0.1c0.2,0,0.4,0,0.5,0c0.2,0,0.3,0,0.5,0.1
		c0.2,0,0.2,0.1,0.3,0.2l1.6,4.9l0.2-0.1l0.7-3.9l-0.1-0.2c-0.3,0-0.6-0.1-0.7-0.2c-0.2-0.1-0.3-0.3-0.3-0.4c-0.1-0.3-0.1-0.6,0-0.9
		c0.1-0.3,0.4-0.5,0.7-0.6c0.3-0.1,0.6-0.1,0.9,0C178.5,54.2,178.7,54.4,178.8,54.8z"/>
</g>
<g>
</g>
<g>
</g>
<g>
</g>
<g>
</g>
<g>
</g>
<g>
</g>
</svg>
