<?xml version="1.0" encoding="utf-8"?>
<!-- Generator: Adobe Illustrator 19.1.0, SVG Export Plug-In . SVG Version: 6.00 Build 0)  -->
<svg version="1.1" id="Layer_1" xmlns="http://www.w3.org/2000/svg" xmlns:xlink="http://www.w3.org/1999/xlink" x="0px" y="0px"
	 viewBox="0 0 221.6 163.9" style="enable-background:new 0 0 221.6 163.9;" xml:space="preserve">
<style type="text/css">
	.st0{fill:none;stroke:#3A50A2;stroke-width:3.079;stroke-linecap:round;stroke-miterlimit:10;}
	.st1{fill:none;stroke:#3A50A2;stroke-width:1.8474;stroke-linecap:round;stroke-miterlimit:10;}
	.st2{fill:#010101;}
</style>
<g>
	<g>
		<rect x="1.5" y="1.5" class="st0" width="218.5" height="160.8"/>
		<path class="st1" d="M110.8,81.9"/>
		<path class="st1" d="M3.6,3.6l94.2,95.5c7,7,19.7,7,26.5,0.1l94.2-94.8"/>
		<line class="st1" x1="1.5" y1="162.3" x2="80.6" y2="81.7"/>
		<line class="st1" x1="220" y1="162.3" x2="141.7" y2="82.3"/>
	</g>
</g>
<g>
	<path class="st2" d="M26.6,99.3c0.3,1,0.4,2,0.3,3c-0.1,1-0.4,1.9-0.9,2.9c-0.4,0.8-0.9,1.4-1.6,2c-0.7,0.5-1.4,1-2.3,1.3
		c-0.8,0.3-1.6,0.4-2.4,0.3c-0.8,0-1.5-0.2-2.2-0.5c-0.7-0.3-1.3-0.8-1.8-1.3c-0.5-0.6-0.9-1.3-1.2-2.1c-0.3-0.9-0.4-1.9-0.4-2.8
		c0.1-0.9,0.3-1.8,0.7-2.7c0.4-0.8,1-1.6,1.7-2.2c0.7-0.6,1.5-1.1,2.5-1.4c0.8-0.3,1.6-0.4,2.4-0.3c0.8,0,1.5,0.2,2.2,0.5
		c0.7,0.3,1.3,0.8,1.8,1.3C26,97.8,26.4,98.5,26.6,99.3z M22.9,99.6c-0.1-0.3-0.2-0.5-0.3-0.8c-0.1-0.3-0.2-0.5-0.4-0.8
		c-0.2-0.3-0.3-0.5-0.5-0.7c-0.2-0.2-0.4-0.4-0.7-0.5c-0.2-0.1-0.4-0.2-0.7-0.2c-0.2,0-0.5,0-0.8,0.1c-0.5,0.1-0.8,0.4-1.1,0.8
		c-0.3,0.4-0.4,0.8-0.6,1.3c-0.1,0.5-0.2,1-0.2,1.6c0,0.6,0,1.1,0.1,1.6c0.1,0.5,0.2,1,0.3,1.5c0.1,0.5,0.2,0.9,0.3,1.2
		c0.2,0.5,0.4,1,0.7,1.6c0.3,0.5,0.7,0.9,1.2,1.2c0.2,0.1,0.4,0.2,0.7,0.2c0.2,0,0.5,0,0.8-0.1c0.4-0.1,0.8-0.4,1.1-0.8
		c0.3-0.4,0.5-0.8,0.6-1.2c0.1-0.5,0.2-1,0.2-1.5c0-0.5,0-1.1-0.1-1.6c-0.1-0.5-0.1-1-0.2-1.5C23.1,100.3,23,99.9,22.9,99.6z"/>
	<path class="st2" d="M33,103.5l0.5,4.4c0,0.2,0.2,0.3,0.6,0.3l1.3-0.2l0.3,0.8l-5.6,1.8l-0.2-0.8l0.7-0.5c0.1-0.1,0.2-0.2,0.3-0.3
		c0-0.1,0-0.2,0-0.3l-1.1-11.1l-0.6,0l-0.6,1.6l-0.6-0.3c0-0.3,0.1-0.6,0.2-1c0.1-0.3,0.2-0.7,0.3-1c0.1-0.3,0.3-0.6,0.5-0.8
		c0.2-0.2,0.5-0.4,0.8-0.5c0.1,0,0.3-0.1,0.6-0.1c0.3,0,0.5,0,0.8,0.1c0.3,0,0.5,0.1,0.7,0.2c0.2,0.1,0.3,0.2,0.4,0.3
		c0.1,0.4,0.2,0.8,0.1,1.3c0,0.5,0,1,0,1.5l0.2-0.1c0.1-0.8,0.2-1.4,0.3-2c0.1-0.6,0.3-1,0.5-1.4c0.2-0.4,0.4-0.7,0.7-0.9
		c0.3-0.2,0.6-0.4,1-0.6c0.7-0.2,1.4-0.2,2,0.1c0.6,0.3,1.1,0.9,1.4,1.8c0.1,0.4,0.2,0.9,0.3,1.4c0,0.5,0,1,0,1.5
		c0,0.5-0.1,1-0.3,1.5c-0.1,0.5-0.3,1-0.6,1.4c-0.3,0.5-0.6,1-1,1.4c-0.4,0.4-0.8,0.7-1.2,0.8c-0.4,0.1-0.9,0.2-1.3,0
		c-0.4-0.1-0.8-0.3-1.1-0.6L33,103.5z M33.5,102.2c0.2,0.2,0.5,0.3,0.7,0.4c0.2,0.1,0.5,0.2,0.7,0.2c0.2,0,0.4,0,0.5,0
		c0.1,0,0.2-0.1,0.3-0.2c0.1-0.1,0.1-0.2,0.2-0.3c0.1-0.3,0.3-0.7,0.3-1.1c0.1-0.4,0.1-0.8,0.1-1.3c0-0.4,0-0.9-0.1-1.3
		c-0.1-0.4-0.1-0.8-0.3-1.1c-0.1-0.4-0.4-0.8-0.6-1c-0.3-0.2-0.5-0.3-0.8-0.2c-0.2,0.1-0.3,0.2-0.5,0.5c-0.1,0.2-0.3,0.5-0.4,0.9
		c-0.1,0.4-0.2,0.8-0.4,1.2c-0.1,0.5-0.2,0.9-0.3,1.4l0,1.4C33.1,101.9,33.3,102.1,33.5,102.2z"/>
	<path class="st2" d="M43.1,97.8c0.1,0.2,0.2,0.4,0.3,0.6c0.1,0.2,0.3,0.3,0.5,0.4c0.2,0.1,0.4,0.2,0.7,0.2c0.2,0,0.5,0,0.7-0.1
		c0.1,0,0.4-0.3,0.8-0.7c0.4-0.4,0.8-0.9,1.3-1.5L48,97c-0.1,0.4-0.2,0.8-0.4,1.1c-0.2,0.4-0.4,0.8-0.7,1.1c-0.3,0.4-0.6,0.7-0.9,1
		c-0.4,0.3-0.8,0.5-1.2,0.7c-0.6,0.2-1.1,0.3-1.6,0.2c-0.5,0-0.9-0.2-1.3-0.4c-0.4-0.2-0.7-0.5-1-0.9c-0.3-0.4-0.5-0.8-0.6-1.3
		c-0.2-0.7-0.3-1.4-0.3-2.2c0.1-0.8,0.2-1.5,0.6-2.3c0.3-0.7,0.8-1.4,1.3-1.9c0.6-0.6,1.2-1,2-1.3c0.9-0.3,1.6-0.3,2.2-0.1
		c0.6,0.2,0.9,0.6,1.1,1.2c0.1,0.3,0.1,0.7-0.1,1c-0.1,0.3-0.4,0.7-0.8,1.2c-0.4,0.4-0.8,0.9-1.4,1.5C44.5,96.3,43.9,97,43.1,97.8
		L43.1,97.8z M42.9,96.9c0.4-0.4,0.7-0.8,1-1.1c0.3-0.3,0.5-0.7,0.7-1c0.2-0.3,0.3-0.6,0.4-0.9c0.1-0.3,0.1-0.6,0-0.8
		c0-0.1-0.1-0.3-0.3-0.3c-0.1-0.1-0.3-0.1-0.4-0.2c-0.2,0-0.3-0.1-0.5-0.1c-0.2,0-0.3,0-0.4,0.1c-0.1,0-0.2,0.1-0.3,0.2
		c-0.1,0.1-0.1,0.1-0.1,0.2c-0.1,0.2-0.1,0.4-0.2,0.7c-0.1,0.3-0.1,0.6-0.1,1c0,0.4,0,0.8,0,1.2C42.6,96.2,42.7,96.6,42.9,96.9
		L42.9,96.9z"/>
	<path class="st2" d="M59.5,95.5c-0.4,0.5-0.9,0.9-1.5,1.1c-0.1,0-0.3,0.1-0.6,0.1c-0.2,0-0.5,0-0.7,0c-0.2,0-0.5-0.1-0.7-0.1
		c-0.2-0.1-0.3-0.1-0.3-0.2c-0.1-0.2-0.1-0.6-0.1-1.3c0-0.7,0-1.6,0-2.8c0-0.5,0-0.9,0-1.3c0-0.4-0.1-0.7-0.1-0.9
		c-0.1-0.2-0.2-0.3-0.4-0.3c-0.2,0-0.4,0-0.6,0.1c-0.2,0.1-0.3,0.2-0.4,0.4c-0.1,0.2-0.2,0.5-0.3,0.8c-0.1,0.4-0.2,0.8-0.3,1.4
		c-0.1,0.6-0.2,1.2-0.3,2l0.3,3.3l-3,1.1l-0.2-3.1L49.8,91l-0.6,0l-0.6,1.6L48,92.3c0-0.3,0.1-0.6,0.2-1c0.1-0.3,0.2-0.7,0.3-1
		c0.1-0.3,0.3-0.6,0.5-0.8c0.2-0.2,0.5-0.4,0.8-0.5c0.1,0,0.3-0.1,0.6-0.1c0.3,0,0.5-0.1,0.8-0.1c0.3,0,0.5,0,0.7,0
		c0.2,0,0.3,0.1,0.4,0.2c0.1,0.2,0.1,0.5,0.2,0.9c0,0.4,0.1,0.8,0.1,1.3c0,0.4,0.1,0.8,0.1,1.2c0,0.4,0,0.6,0,0.8l0.2-0.1
		c0-0.4,0.1-0.8,0.1-1.2c0-0.4,0.1-0.8,0.2-1.2c0.1-0.4,0.1-0.7,0.2-1.1c0.1-0.3,0.2-0.6,0.3-0.8c0.2-0.4,0.4-0.7,0.8-1
		c0.3-0.3,0.7-0.5,1.1-0.7c0.6-0.2,1.2-0.2,1.6,0c0.5,0.2,0.8,0.6,0.9,1c0.2,0.5,0.2,1.1,0.2,1.8c0,0.7,0,1.5,0,2.2l-0.1,2.5l0.6,0
		l1-1.2l0.5,0.3C60.2,94.4,59.9,95,59.5,95.5z"/>
	<path class="st2" d="M72.7,85.9c0.2,0.7,0.3,1.4,0.3,2.1c0,0.7-0.2,1.4-0.5,2c-0.3,0.6-0.7,1.2-1.2,1.7c-0.5,0.5-1.1,0.9-1.9,1.1
		c-0.6,0.2-1.1,0.3-1.7,0.2c-0.5,0-1-0.2-1.5-0.4c-0.5-0.2-0.8-0.6-1.2-1c-0.3-0.4-0.6-0.9-0.8-1.5c-0.2-0.7-0.3-1.4-0.3-2.1
		c0-0.7,0.2-1.4,0.5-2c0.3-0.6,0.7-1.2,1.2-1.7c0.5-0.5,1.1-0.9,1.9-1.1c0.6-0.2,1.2-0.3,1.7-0.2c0.5,0,1,0.2,1.5,0.4
		c0.4,0.2,0.8,0.6,1.2,1C72.3,84.8,72.5,85.3,72.7,85.9z M69.7,85.7c-0.2-0.6-0.4-1-0.7-1.2c-0.3-0.2-0.6-0.3-1-0.2
		c-0.2,0.1-0.4,0.2-0.6,0.5c-0.2,0.3-0.3,0.6-0.3,0.9C67,86.2,67,86.6,67,87c0,0.4,0,0.9,0.1,1.4c0,0.4,0.1,0.7,0.2,1.1
		c0.1,0.3,0.1,0.6,0.2,0.9c0.2,0.5,0.4,0.9,0.7,1.2c0.3,0.2,0.6,0.3,1,0.2c0.2-0.1,0.4-0.2,0.6-0.5c0.2-0.3,0.3-0.6,0.3-0.9
		c0.1-0.4,0.1-0.8,0.1-1.2c0-0.5,0-0.9-0.1-1.4c0-0.4-0.1-0.7-0.2-1C69.9,86.3,69.8,86,69.7,85.7z"/>
	<path class="st2" d="M84.6,87.3c-0.4,0.5-0.9,0.9-1.5,1.1c-0.1,0-0.3,0.1-0.6,0.1c-0.2,0-0.5,0-0.7,0c-0.2,0-0.5-0.1-0.7-0.1
		c-0.2-0.1-0.3-0.1-0.3-0.2c-0.1-0.2-0.1-0.6-0.1-1.3c0-0.7,0-1.6,0-2.8c0-0.5,0-0.9,0-1.3c0-0.4-0.1-0.7-0.1-0.9
		c-0.1-0.2-0.2-0.3-0.4-0.3c-0.2,0-0.4,0-0.6,0.1c-0.2,0.1-0.3,0.2-0.4,0.4c-0.1,0.2-0.2,0.5-0.3,0.8c-0.1,0.4-0.2,0.8-0.3,1.4
		c-0.1,0.6-0.2,1.2-0.3,2l0.3,3.3l-3,1.1l-0.2-3.1l-0.5-4.7l-0.6,0l-0.6,1.6L73,84.1c0-0.3,0.1-0.6,0.2-1c0.1-0.3,0.2-0.7,0.3-1
		c0.1-0.3,0.3-0.6,0.5-0.8c0.2-0.2,0.5-0.4,0.8-0.5c0.1,0,0.3-0.1,0.6-0.1c0.3,0,0.5-0.1,0.8-0.1c0.3,0,0.5,0,0.7,0
		c0.2,0,0.3,0.1,0.4,0.2c0.1,0.2,0.1,0.5,0.2,0.9c0,0.4,0.1,0.8,0.1,1.3c0,0.4,0.1,0.8,0.1,1.2c0,0.4,0,0.6,0,0.8l0.2-0.1
		c0-0.4,0.1-0.8,0.1-1.2c0-0.4,0.1-0.8,0.2-1.2c0.1-0.4,0.1-0.7,0.2-1.1c0.1-0.3,0.2-0.6,0.3-0.8c0.2-0.4,0.4-0.7,0.8-1
		c0.3-0.3,0.7-0.5,1.1-0.7c0.6-0.2,1.2-0.2,1.6,0c0.5,0.2,0.8,0.6,0.9,1c0.2,0.5,0.2,1.1,0.2,1.8c0,0.7,0,1.5,0,2.2l-0.1,2.5l0.6,0
		l1-1.2l0.5,0.3C85.2,86.2,84.9,86.8,84.6,87.3z"/>
	<path class="st2" d="M97.7,75.2c0.1,0.3,0.1,0.7,0.1,1.1c0,0.4-0.1,0.9-0.2,1.4s-0.3,1.1-0.4,1.7c-0.2,0.6-0.4,1.2-0.6,1.7
		l-0.9,2.5l-0.3,2.5c-0.1,1.1-0.4,2-0.8,2.6c-0.4,0.6-1,1.1-1.7,1.3c-0.3,0.1-0.6,0.1-0.9,0.1c-0.3,0-0.6,0-0.8-0.1
		c-0.3-0.1-0.5-0.2-0.7-0.4c-0.2-0.2-0.3-0.4-0.4-0.7c-0.1-0.4-0.1-0.7,0-1.1c0.2-0.3,0.4-0.5,0.7-0.6c0.5-0.2,0.9-0.1,1.3,0.1
		c0.4,0.2,0.6,0.6,0.8,1.2l0.4,0l1.3-3.5l-1.8,0l-3-7.2l-0.6,0l-0.6,1.6l-0.6-0.3c0-0.3,0.1-0.6,0.2-1c0.1-0.3,0.2-0.7,0.3-1
		c0.1-0.3,0.3-0.6,0.5-0.8c0.2-0.2,0.5-0.4,0.8-0.5c0.1,0,0.3-0.1,0.6-0.1c0.3,0,0.5,0,0.8,0c0.3,0,0.5,0,0.7,0.1
		c0.2,0.1,0.3,0.1,0.4,0.2l2.3,7.2l0.3-0.1l1.1-5.8l-0.1-0.3c-0.5,0-0.8-0.1-1.1-0.3c-0.3-0.2-0.4-0.4-0.5-0.6
		c-0.1-0.5-0.1-0.9,0.1-1.3c0.2-0.4,0.5-0.7,1-0.8c0.5-0.1,0.9-0.1,1.4,0.1C97.2,74.3,97.5,74.7,97.7,75.2z"/>
	<path class="st2" d="M107.7,74.4c0.2,0.7,0.3,1.4,0.3,2.1c0,0.7-0.2,1.4-0.5,2c-0.3,0.6-0.7,1.2-1.2,1.7c-0.5,0.5-1.1,0.9-1.9,1.1
		c-0.6,0.2-1.1,0.3-1.7,0.2c-0.5,0-1-0.2-1.5-0.4c-0.4-0.2-0.8-0.6-1.2-1c-0.3-0.4-0.6-0.9-0.8-1.5c-0.2-0.7-0.3-1.4-0.3-2.1
		c0-0.7,0.2-1.4,0.5-2c0.3-0.6,0.7-1.2,1.2-1.7c0.5-0.5,1.1-0.9,1.9-1.1c0.6-0.2,1.2-0.3,1.7-0.2c0.5,0,1,0.2,1.5,0.4
		c0.4,0.2,0.8,0.6,1.2,1C107.3,73.3,107.5,73.8,107.7,74.4z M104.7,74.2c-0.2-0.6-0.4-1-0.7-1.2c-0.3-0.2-0.6-0.3-1-0.2
		c-0.2,0.1-0.4,0.2-0.6,0.5c-0.2,0.3-0.3,0.6-0.3,0.9c-0.1,0.4-0.1,0.8-0.1,1.2c0,0.4,0,0.9,0.1,1.4c0,0.4,0.1,0.7,0.2,1.1
		c0.1,0.3,0.1,0.6,0.2,0.9c0.2,0.5,0.4,0.9,0.7,1.2c0.3,0.2,0.6,0.3,1,0.2c0.2-0.1,0.4-0.2,0.6-0.5c0.2-0.3,0.3-0.6,0.3-0.9
		c0.1-0.4,0.1-0.8,0.1-1.2c0-0.5,0-0.9-0.1-1.4c0-0.4-0.1-0.7-0.2-1C104.8,74.8,104.8,74.5,104.7,74.2z"/>
	<path class="st2" d="M108.4,71.5c0.1-0.3,0.2-0.7,0.3-1c0.1-0.3,0.3-0.6,0.5-0.8c0.2-0.2,0.5-0.4,0.8-0.5c0.1,0,0.3-0.1,0.6,0
		c0.3,0,0.5,0.1,0.8,0.1c0.3,0.1,0.5,0.1,0.7,0.2c0.2,0.1,0.3,0.2,0.4,0.3c0,0.1,0.1,0.2,0.1,0.4c0,0.2,0,0.4,0,0.7c0,0.3,0,0.6,0,1
		c0,0.4,0,0.9,0,1.5c0,0.5,0,0.8,0,1.2c0,0.3,0,0.6,0.1,0.8c0.1,0.2,0.2,0.3,0.4,0.4c0.2,0.1,0.4,0.1,0.7,0c0.2-0.1,0.3-0.2,0.4-0.4
		c0.1-0.2,0.2-0.5,0.3-0.8c0.1-0.4,0.2-0.8,0.3-1.4c0.1-0.6,0.2-1.2,0.3-2l-0.2-3.4l3-1.1l0,3.2l0.6,5l0.6,0l0.9-1.2l0.5,0.3
		c-0.2,0.6-0.4,1.2-0.8,1.7c-0.4,0.5-0.8,0.8-1.4,1c-0.1,0-0.3,0.1-0.6,0.1c-0.2,0-0.5,0-0.7,0c-0.2,0-0.5-0.1-0.7-0.1
		c-0.2-0.1-0.3-0.1-0.3-0.2c-0.1-0.2-0.1-0.5-0.1-0.9c0-0.4-0.1-0.8-0.1-1.2c0-0.4,0-0.8,0-1.2c0-0.4,0-0.6,0-0.7l-0.2,0.1
		c-0.1,0.4-0.1,0.8-0.2,1.2c-0.1,0.4-0.1,0.8-0.2,1.2c-0.1,0.4-0.1,0.8-0.2,1.1c-0.1,0.3-0.2,0.6-0.3,0.8c-0.2,0.4-0.4,0.7-0.8,1
		c-0.3,0.3-0.7,0.5-1.1,0.7c-0.6,0.2-1.2,0.2-1.7-0.1c-0.5-0.3-0.8-0.7-0.9-1.1c-0.2-0.5-0.2-1.1-0.2-1.7c0-0.7,0-1.4,0-2.1
		c0-0.2,0-0.5,0-0.7c0-0.3,0-0.5,0-0.8c0-0.3,0-0.5,0-0.8l-0.6,0l-0.6,1.6l-0.6-0.3C108.2,72.2,108.3,71.9,108.4,71.5z"/>
	<path class="st2" d="M125.5,66l-1.1,5.8l0.4,2.5l-3,1.1l-0.2-3.1l-0.5-4.7l-0.6,0l-0.6,1.6l-0.6-0.3c0-0.3,0.1-0.6,0.2-1
		c0.1-0.3,0.2-0.7,0.3-1c0.1-0.3,0.3-0.6,0.5-0.8c0.2-0.2,0.5-0.4,0.8-0.5c0.1,0,0.3-0.1,0.6-0.1c0.3,0,0.5-0.1,0.8-0.1
		c0.3,0,0.5,0,0.7,0c0.2,0,0.3,0.1,0.4,0.2c0.1,0.2,0.1,0.5,0.2,0.9c0,0.4,0.1,0.9,0.1,1.4c0,0.5,0,1,0,1.5c0,0.5,0,0.9,0,1.2
		l0.2-0.1l0.5-3.6c0.1-0.5,0.1-0.9,0.2-1.3c0.1-0.4,0.2-0.7,0.3-0.9c0.1-0.3,0.3-0.5,0.5-0.6c0.2-0.2,0.5-0.3,0.8-0.4
		c0.2-0.1,0.4-0.1,0.7-0.1c0.2,0,0.5,0.1,0.7,0.2c0.2,0.1,0.4,0.3,0.6,0.5c0.2,0.2,0.3,0.5,0.4,0.8c0.1,0.2,0.1,0.5,0.1,0.7
		c0,0.2-0.1,0.4-0.2,0.6c-0.1,0.2-0.2,0.4-0.4,0.5c-0.1,0.1-0.3,0.3-0.5,0.3c-0.2,0.1-0.5,0.1-0.7,0.1c-0.2,0-0.4-0.1-0.6-0.2
		c-0.2-0.1-0.3-0.3-0.4-0.5c-0.1-0.2-0.2-0.5-0.1-0.7L125.5,66z"/>
	<path class="st2" d="M143,61.5c0.1,0.4,0.2,0.9,0.3,1.4c0,0.5,0,1-0.1,1.5c-0.1,0.5-0.2,1-0.3,1.5c-0.2,0.5-0.3,1-0.6,1.4
		c-0.3,0.5-0.6,1-1.1,1.5c-0.5,0.4-1.1,0.8-1.8,1c-0.6,0.2-1.1,0.3-1.7,0.3c-0.5,0-1-0.1-1.4-0.2c-0.4-0.1-0.7-0.2-1-0.4
		c-0.2-0.2-0.4-0.3-0.4-0.4l-1-9.2c0-0.5-0.2-0.7-0.6-0.8l-1.1-0.2l0-0.7l4.2-2.5l0.3,4.7l0.2,4.4l0.2-0.1c0.1-0.8,0.2-1.5,0.4-2.1
		c0.1-0.6,0.3-1.1,0.5-1.6c0.2-0.4,0.4-0.8,0.7-1.1c0.3-0.3,0.6-0.5,1-0.6c0.7-0.2,1.4-0.2,2,0.1C142.3,60,142.7,60.6,143,61.5z
		 M140.6,63.2c-0.1-0.4-0.4-0.8-0.6-1c-0.3-0.2-0.5-0.3-0.8-0.2c-0.2,0.1-0.4,0.2-0.6,0.5c-0.2,0.2-0.3,0.5-0.4,0.9
		c-0.1,0.4-0.2,0.8-0.3,1.2c-0.1,0.4-0.2,0.9-0.3,1.4l0,1.8c0.2,0.2,0.4,0.3,0.6,0.4c0.2,0.1,0.5,0.2,0.7,0.3
		c0.2,0.1,0.4,0.1,0.7,0.1c0.2,0,0.4,0,0.5-0.1c0.1,0,0.2-0.1,0.3-0.2c0.1-0.1,0.1-0.2,0.2-0.3c0.1-0.3,0.3-0.7,0.3-1.1
		c0.1-0.4,0.1-0.8,0.1-1.3c0-0.4,0-0.9-0.1-1.3C140.8,63.9,140.7,63.5,140.6,63.2z"/>
	<path class="st2" d="M149.6,65.9c-0.4,0.5-0.9,0.9-1.5,1.1c-0.1,0-0.3,0.1-0.6,0.1c-0.3,0-0.5,0-0.8,0c-0.3,0-0.5-0.1-0.7-0.1
		c-0.2-0.1-0.3-0.1-0.3-0.2l-0.4-7.1l-0.6,0l-0.6,1.6l-0.6-0.3c0-0.3,0.1-0.6,0.2-1c0.1-0.3,0.2-0.7,0.3-1c0.1-0.3,0.3-0.6,0.5-0.8
		c0.2-0.2,0.5-0.4,0.8-0.5c0.1,0,0.4-0.1,0.6-0.1c0.3,0,0.6,0,0.9,0c0.3,0,0.5,0,0.8,0.1c0.2,0.1,0.3,0.1,0.3,0.2l0.3,7.3l0.5,0
		l1-1.2l0.5,0.3C150.3,64.8,150,65.4,149.6,65.9z M147.8,53.6c0.1,0.3,0.1,0.6,0.1,0.8c0,0.3-0.1,0.5-0.1,0.7
		c-0.1,0.2-0.2,0.4-0.4,0.6c-0.2,0.2-0.3,0.3-0.5,0.3c-0.5,0.2-0.9,0.1-1.3-0.1c-0.4-0.2-0.6-0.5-0.7-0.9c-0.1-0.3-0.1-0.6-0.1-0.8
		c0-0.3,0.1-0.5,0.1-0.8c0.1-0.2,0.2-0.4,0.4-0.6c0.1-0.2,0.3-0.3,0.5-0.4c0.5-0.2,0.9-0.1,1.3,0.1
		C147.4,52.9,147.7,53.2,147.8,53.6z"/>
	<path class="st2" d="M155.7,56.1l-1.1,5.8l0.4,2.5l-3,1.1l-0.2-3.1l-0.5-4.7l-0.6,0l-0.6,1.6l-0.6-0.3c0-0.3,0.1-0.6,0.2-1
		c0.1-0.3,0.2-0.7,0.3-1c0.1-0.3,0.3-0.6,0.5-0.8c0.2-0.2,0.5-0.4,0.8-0.5c0.1,0,0.3-0.1,0.6-0.1c0.3,0,0.5-0.1,0.8-0.1
		c0.3,0,0.5,0,0.7,0c0.2,0,0.3,0.1,0.4,0.2c0.1,0.2,0.1,0.5,0.2,0.9c0,0.4,0.1,0.9,0.1,1.4c0,0.5,0,1,0,1.5c0,0.5,0,0.9,0,1.2
		l0.2-0.1l0.5-3.6c0.1-0.5,0.1-0.9,0.2-1.3c0.1-0.4,0.2-0.7,0.3-0.9c0.1-0.3,0.3-0.5,0.5-0.6c0.2-0.2,0.5-0.3,0.8-0.4
		c0.2-0.1,0.4-0.1,0.7-0.1c0.2,0,0.5,0.1,0.7,0.2c0.2,0.1,0.4,0.3,0.6,0.5c0.2,0.2,0.3,0.5,0.4,0.8c0.1,0.2,0.1,0.5,0.1,0.7
		c0,0.2-0.1,0.4-0.2,0.6c-0.1,0.2-0.2,0.4-0.4,0.5c-0.1,0.1-0.3,0.3-0.5,0.3c-0.2,0.1-0.5,0.1-0.7,0.1c-0.2,0-0.4-0.1-0.6-0.2
		c-0.2-0.1-0.3-0.3-0.4-0.5c-0.1-0.2-0.2-0.5-0.1-0.7L155.7,56.1z"/>
	<path class="st2" d="M160.3,50.1l2.7-0.9l0.3,3l2.4-0.8l0.5,1.2l-2.7,0.9l0.5,6.3l0.6,0l1-1.2l0.5,0.3c-0.2,0.6-0.4,1.2-0.8,1.7
		c-0.4,0.5-0.9,0.9-1.5,1.1c-0.1,0-0.3,0.1-0.6,0.1c-0.3,0-0.5,0-0.8,0c-0.3,0-0.5-0.1-0.7-0.1c-0.2-0.1-0.3-0.1-0.3-0.2l-0.7-6.9
		l-1.6,0.3l-0.2-0.8l1.6-1.3L160.3,50.1z"/>
	<path class="st2" d="M177,56.9c-0.4,0.5-0.9,0.9-1.5,1.1c-0.1,0-0.3,0.1-0.6,0.1c-0.2,0-0.5,0-0.7,0c-0.2,0-0.5-0.1-0.7-0.1
		c-0.2-0.1-0.3-0.1-0.3-0.2c-0.1-0.2-0.1-0.6-0.1-1.3c0-0.7,0-1.6,0-2.8c0-0.5,0-0.9,0-1.3c0-0.4-0.1-0.7-0.1-0.9
		c-0.1-0.2-0.2-0.3-0.4-0.3c-0.2,0-0.4,0-0.6,0.1c-0.2,0.1-0.3,0.2-0.4,0.4c-0.1,0.2-0.2,0.5-0.3,0.8c-0.1,0.4-0.2,0.8-0.3,1.4
		c-0.1,0.6-0.2,1.2-0.3,2l0.3,3.3l-3,1.1l-0.2-3.1l-0.8-8c0-0.5-0.2-0.7-0.6-0.8l-1.1-0.2l0-0.7l4.2-2.5l0.3,4.7l0.4,4.9l0.2-0.1
		c0-0.4,0.1-0.8,0.1-1.2c0-0.4,0.1-0.8,0.2-1.2c0.1-0.4,0.1-0.7,0.2-1.1c0.1-0.3,0.2-0.6,0.3-0.8c0.2-0.4,0.4-0.7,0.8-1
		c0.3-0.3,0.7-0.5,1.1-0.7c0.6-0.2,1.2-0.2,1.6,0c0.5,0.2,0.8,0.6,0.9,1c0.2,0.5,0.2,1.1,0.2,1.8c0,0.7,0,1.5,0,2.2l-0.1,2.5l0.6,0
		l1-1.2l0.5,0.3C177.6,55.8,177.4,56.4,177,56.9z"/>
	<path class="st2" d="M188.1,53.3c-0.4,0.5-0.9,0.9-1.5,1.1c-0.1,0-0.3,0.1-0.6,0c-0.2,0-0.5-0.1-0.7-0.2c-0.2-0.1-0.5-0.2-0.7-0.3
		c-0.2-0.1-0.3-0.2-0.3-0.3c0-0.1-0.1-0.3-0.1-0.6c0-0.3,0-0.5,0-0.8c0-0.3,0-0.6,0.1-0.9c0-0.3,0-0.6,0-0.8l-0.2,0.1
		c-0.2,0.7-0.4,1.3-0.5,1.9c-0.1,0.6-0.3,1.1-0.5,1.6c-0.2,0.5-0.4,0.9-0.6,1.2c-0.2,0.3-0.5,0.5-0.9,0.7c-0.7,0.2-1.4,0.2-2-0.1
		c-0.6-0.3-1.1-0.9-1.4-1.8c-0.1-0.4-0.2-0.9-0.3-1.4c0-0.5,0-1,0.1-1.5c0.1-0.5,0.2-1,0.3-1.5c0.2-0.5,0.3-1,0.6-1.4
		c0.3-0.5,0.6-1,1-1.4c0.4-0.4,0.8-0.7,1.3-0.8c0.3-0.1,0.5-0.1,0.8-0.1c0.2,0,0.4,0.1,0.6,0.2c0.2,0.1,0.3,0.2,0.5,0.4
		c0.1,0.2,0.3,0.3,0.4,0.6l0.2-0.1l-0.3-3.1c0-0.2-0.1-0.4-0.2-0.6c-0.1-0.1-0.3-0.2-0.4-0.2l-1.1-0.2l0-0.7l4.3-2.6l0.6,9.8
		l0.3,3.1l0.6,0l1-1.2l0.5,0.3C188.7,52.2,188.5,52.7,188.1,53.3z M183.2,47.7c-0.2-0.1-0.5-0.2-0.7-0.2c-0.2-0.1-0.4-0.1-0.7-0.1
		c-0.2,0-0.4,0-0.5,0.1c-0.1,0-0.2,0.1-0.3,0.2c-0.1,0.1-0.1,0.2-0.2,0.3c-0.1,0.3-0.3,0.7-0.3,1c-0.1,0.4-0.1,0.8-0.1,1.1
		c0,0.4,0,0.8,0.1,1.2c0.1,0.4,0.1,0.7,0.3,1.1c0.1,0.4,0.4,0.8,0.6,1c0.3,0.2,0.5,0.3,0.8,0.2c0.2-0.1,0.4-0.2,0.5-0.4
		c0.1-0.2,0.3-0.5,0.4-0.8c0.1-0.3,0.2-0.7,0.3-1.1c0.1-0.4,0.2-0.8,0.4-1.3l0-1.9C183.7,48,183.4,47.8,183.2,47.7z"/>
	<path class="st2" d="M195.1,43.1l0.1-1.8l2.6-0.8l-0.1,4.1l0.3,4.3l0.6,0l1-1.2l0.5,0.3c-0.2,0.6-0.4,1.2-0.8,1.7
		c-0.4,0.5-0.9,0.9-1.5,1.1c-0.1,0-0.3,0.1-0.6,0.1c-0.2,0-0.5,0-0.7,0c-0.2,0-0.5-0.1-0.7-0.1c-0.2-0.1-0.3-0.1-0.3-0.2
		c0-0.1-0.1-0.3-0.1-0.6c0-0.3,0-0.6,0-1c0-0.3,0-0.7,0-1c0-0.3,0-0.6,0-0.9l-0.2,0.1c-0.2,0.7-0.4,1.3-0.5,1.9
		c-0.1,0.6-0.3,1.1-0.5,1.6c-0.2,0.5-0.4,0.9-0.6,1.2s-0.5,0.5-0.9,0.7c-0.7,0.2-1.4,0.2-2-0.1c-0.6-0.3-1.1-0.9-1.4-1.8
		c-0.1-0.4-0.2-0.9-0.3-1.4s0-1,0.1-1.5c0.1-0.5,0.2-1,0.3-1.5c0.2-0.5,0.3-1,0.6-1.4c0.3-0.5,0.6-1,1-1.4c0.4-0.4,0.8-0.7,1.3-0.8
		c0.6-0.2,1.1-0.2,1.5,0c0.4,0.2,0.8,0.5,1,0.9L195.1,43.1z M194.3,44.1c-0.2-0.1-0.5-0.2-0.7-0.2c-0.2-0.1-0.4-0.1-0.7-0.1
		c-0.2,0-0.4,0-0.5,0.1c-0.1,0-0.2,0.1-0.3,0.2c-0.1,0.1-0.1,0.2-0.2,0.3c-0.1,0.3-0.3,0.7-0.3,1c-0.1,0.4-0.1,0.8-0.1,1.1
		c0,0.4,0,0.8,0.1,1.2c0.1,0.4,0.1,0.7,0.3,1.1c0.1,0.4,0.4,0.8,0.6,1c0.3,0.2,0.5,0.3,0.8,0.2c0.2-0.1,0.4-0.2,0.5-0.4
		c0.1-0.2,0.3-0.5,0.4-0.8c0.1-0.3,0.2-0.7,0.3-1.1c0.1-0.4,0.2-0.8,0.4-1.3l0-1.9C194.7,44.3,194.5,44.2,194.3,44.1z"/>
	<path class="st2" d="M208.4,38.9c0.1,0.3,0.1,0.7,0.1,1.1c0,0.4-0.1,0.9-0.2,1.4c-0.1,0.5-0.3,1.1-0.4,1.7
		c-0.2,0.6-0.4,1.2-0.6,1.7l-0.9,2.5l-0.3,2.5c-0.1,1.1-0.4,2-0.8,2.6c-0.4,0.6-1,1.1-1.7,1.3c-0.3,0.1-0.6,0.1-0.9,0.1
		c-0.3,0-0.6,0-0.8-0.1c-0.3-0.1-0.5-0.2-0.7-0.4c-0.2-0.2-0.3-0.4-0.4-0.7c-0.1-0.4-0.1-0.7,0-1.1c0.2-0.3,0.4-0.5,0.7-0.6
		c0.5-0.2,0.9-0.1,1.3,0.1c0.4,0.2,0.6,0.6,0.8,1.2l0.4,0l1.3-3.5l-1.8,0.1l-3-7.2l-0.6,0l-0.6,1.6l-0.6-0.3c0-0.3,0.1-0.6,0.2-1
		c0.1-0.3,0.2-0.7,0.3-1c0.1-0.3,0.3-0.6,0.5-0.8c0.2-0.2,0.5-0.4,0.8-0.5c0.1,0,0.3-0.1,0.6-0.1c0.3,0,0.5,0,0.8,0
		c0.3,0,0.5,0,0.7,0.1c0.2,0.1,0.3,0.1,0.4,0.2l2.3,7.2l0.3-0.1l1.1-5.8l-0.1-0.3c-0.5,0-0.8-0.1-1.1-0.3c-0.3-0.2-0.4-0.4-0.5-0.6
		c-0.2-0.5-0.1-0.9,0.1-1.3c0.2-0.4,0.5-0.7,1-0.8c0.5-0.1,0.9-0.1,1.4,0.1C207.9,38,208.2,38.3,208.4,38.9z"/>
</g>
<g>
</g>
<g>
</g>
<g>
</g>
<g>
</g>
<g>
</g>
<g>
</g>
</svg>
