<?xml version="1.0" encoding="utf-8"?>
<!-- Generator: Adobe Illustrator 16.0.0, SVG Export Plug-In . SVG Version: 6.00 Build 0)  -->
<!DOCTYPE svg PUBLIC "-//W3C//DTD SVG 1.1//EN" "http://www.w3.org/Graphics/SVG/1.1/DTD/svg11.dtd">
<svg version="1.1" id="Ebene_1" xmlns="http://www.w3.org/2000/svg" xmlns:xlink="http://www.w3.org/1999/xlink" x="0px" y="0px"
	 width="381.464px" height="423.5px" viewBox="0 0 381.464 423.5" enable-background="new 0 0 381.464 423.5" xml:space="preserve">
<g>
	<g>
		<path fill="#FFFFFF" d="M199.5,393.658c0,16.481-13.361,29.842-29.842,29.842H29.342C12.861,423.5-0.5,410.14-0.5,393.658V30.342
			C-0.5,13.861,12.861,0.5,29.342,0.5h140.316c16.481,0,29.842,13.361,29.842,29.842V393.658z"/>
		<path fill="#1F1F1F" d="M170.158,423.5H29.842c-16.73,0-30.342-13.611-30.342-30.342V29.842C-0.5,13.111,13.111-0.5,29.842-0.5
			h140.316c16.73,0,30.342,13.611,30.342,30.342v363.316C200.5,409.889,186.889,423.5,170.158,423.5z M29.842,0.5
			C13.663,0.5,0.5,13.663,0.5,29.842v363.316c0,16.179,13.163,29.342,29.342,29.342h140.316c16.179,0,29.342-13.163,29.342-29.342
			V29.842c0-16.179-13.163-29.342-29.342-29.342H29.842z"/>
	</g>
	<path fill="#1F1F1F" d="M99.94,0.5c0,0,9.347-0.098,25.705-0.27c8.179-0.07,18.11-0.225,29.502-0.275
		c2.848-0.017,5.788-0.034,8.813-0.052c1.513-0.009,3.048-0.018,4.604-0.027c0.783-0.001,1.571-0.003,2.365-0.005l1.187,0.025
		l1.227,0.084c6.495,0.505,13.238,3.262,18.388,8.307c5.172,4.986,8.569,12.235,8.939,19.992c0.099,7.632,0.066,15.393,0.107,23.442
		c0.017,16.065,0.035,33.007,0.054,50.534c0.034,35.053,0.07,72.442,0.107,109.831c-0.036,37.389-0.072,74.779-0.106,109.831
		c-0.019,17.526-0.036,34.469-0.052,50.534c-0.013,4.017-0.024,7.979-0.036,11.881c-0.006,1.951-0.012,3.888-0.018,5.809
		c-0.019,1.922,0.044,3.81-0.141,5.773c-0.679,7.736-4.2,14.853-9.371,19.827c-2.575,2.497-5.53,4.495-8.669,5.889
		c-3.144,1.378-6.445,2.209-9.706,2.422c-1.642,0.126-3.229,0.077-4.776,0.073c-1.556-0.01-3.09-0.019-4.604-0.027
		c-3.026-0.018-5.965-0.035-8.813-0.052c-11.392-0.051-21.324-0.205-29.502-0.275c-16.358-0.172-25.705-0.27-25.705-0.27
		s9.347-0.098,25.705-0.27c8.179-0.07,18.11-0.225,29.502-0.275c2.848-0.017,5.788-0.034,8.813-0.052
		c1.513-0.009,3.048-0.018,4.604-0.027c1.563-0.016,3.134,0.015,4.679-0.111c3.117-0.223,6.261-1.036,9.251-2.367
		c2.986-1.347,5.792-3.27,8.235-5.666c4.906-4.771,8.22-11.592,8.821-18.941c0.164-1.802,0.096-3.733,0.103-5.65
		c-0.006-1.921-0.012-3.857-0.018-5.809c-0.012-3.902-0.023-7.864-0.036-11.881c-0.016-16.065-0.033-33.008-0.052-50.534
		c-0.034-35.052-0.07-72.441-0.106-109.831c0.037-37.389,0.073-74.778,0.107-109.831c0.019-17.526,0.037-34.468,0.054-50.534
		c0.008-8.016,0.083-15.885,0.033-23.367c-0.31-7.383-3.494-14.283-8.389-19.062c-4.872-4.831-11.296-7.507-17.507-8.027
		l-1.155-0.088l-1.186-0.032c-0.783-0.007-1.561-0.014-2.333-0.021c-1.556-0.009-3.09-0.018-4.604-0.027
		c-3.026-0.018-5.965-0.035-8.813-0.052c-11.392-0.05-21.324-0.205-29.502-0.275C109.288,0.598,99.94,0.5,99.94,0.5z"/>
	<g>
		<circle fill="#1F1F1F" cx="101.164" cy="22.212" r="3.175"/>
		<path fill="#FFFFFF" d="M101.163,25.887c-2.026,0-3.674-1.648-3.674-3.675s1.648-3.675,3.674-3.675
			c2.027,0,3.676,1.648,3.676,3.675S103.19,25.887,101.163,25.887z M101.163,19.537c-1.474,0-2.674,1.2-2.674,2.675
			s1.2,2.675,2.674,2.675c1.476,0,2.676-1.2,2.676-2.675S102.639,19.537,101.163,19.537z"/>
	</g>
	<g>
		<path fill="#1F1F1F" d="M123.966,33.66h-45.19c-0.962,0-1.75-0.788-1.75-1.75l0,0c0-0.963,0.788-1.75,1.75-1.75h45.19
			c0.963,0,1.75,0.787,1.75,1.75l0,0C125.716,32.872,124.929,33.66,123.966,33.66z"/>
		<path fill="#FFFFFF" d="M123.966,34.16h-45.19c-1.241,0-2.25-1.009-2.25-2.25s1.009-2.25,2.25-2.25h45.19
			c1.241,0,2.25,1.009,2.25,2.25S125.207,34.16,123.966,34.16z M78.775,30.66c-0.689,0-1.25,0.561-1.25,1.25s0.561,1.25,1.25,1.25
			h45.19c0.689,0,1.25-0.561,1.25-1.25s-0.561-1.25-1.25-1.25H78.775z"/>
	</g>
	<g>
		<circle fill="#010202" cx="100.273" cy="22.492" r="3.175"/>
		<path fill="#FFFFFF" d="M100.273,26.039c-1.956,0-3.548-1.591-3.548-3.547c0-1.957,1.592-3.549,3.548-3.549
			s3.548,1.592,3.548,3.549C103.821,24.448,102.229,26.039,100.273,26.039z M100.273,19.689c-1.545,0-2.802,1.257-2.802,2.803
			c0,1.544,1.257,2.801,2.802,2.801s2.802-1.256,2.802-2.801C103.075,20.947,101.818,19.689,100.273,19.689z"/>
	</g>
	<g>
		<path fill="#010202" d="M123.076,33.939h-45.19c-0.963,0-1.75-0.787-1.75-1.75l0,0c0-0.963,0.787-1.75,1.75-1.75h45.19
			c0.962,0,1.75,0.787,1.75,1.75l0,0C124.826,33.152,124.038,33.939,123.076,33.939z"/>
		<path fill="#FFFFFF" d="M123.076,34.366h-45.19c-1.2,0-2.176-0.976-2.176-2.176s0.976-2.176,2.176-2.176h45.19
			c1.2,0,2.176,0.976,2.176,2.176S124.276,34.366,123.076,34.366z M77.886,30.866c-0.73,0-1.324,0.594-1.324,1.324
			s0.594,1.324,1.324,1.324h45.19c0.73,0,1.324-0.594,1.324-1.324s-0.594-1.324-1.324-1.324H77.886z"/>
	</g>
	<g>
		<path fill="#1F1F1F" d="M101.655,374.006c0,0,0.21-0.008,0.604-0.023c0.396,0.008,0.969-0.094,1.711-0.001
			c0.374,0.031,0.788,0.065,1.238,0.104c0.443,0.084,0.923,0.176,1.436,0.272c0.511,0.11,1.037,0.298,1.605,0.46
			c0.563,0.177,1.119,0.457,1.723,0.702c0.574,0.3,1.18,0.612,1.778,0.982c0.576,0.402,1.201,0.79,1.755,1.299
			c1.179,0.937,2.242,2.143,3.188,3.493c0.938,1.362,1.688,2.919,2.228,4.576c0.512,1.671,0.755,3.438,0.806,5.209
			c-0.066,0.95-0.046,1.666-0.227,2.615c-0.108,0.913-0.353,1.752-0.578,2.594c-0.536,1.659-1.29,3.216-2.227,4.577
			c-0.946,1.352-2.008,2.559-3.188,3.495c-0.554,0.509-1.18,0.895-1.755,1.299c-0.599,0.369-1.205,0.683-1.779,0.982
			c-0.604,0.244-1.161,0.524-1.724,0.702c-0.569,0.161-1.095,0.349-1.606,0.458c-0.513,0.098-0.992,0.189-1.436,0.273
			c-0.448,0.037-0.86,0.071-1.231,0.103c-0.737,0.092-1.327-0.009-1.719-0.002c-0.394-0.016-0.604-0.023-0.604-0.023
			s0.208-0.029,0.6-0.085c0.388-0.072,0.963-0.095,1.669-0.284c0.352-0.083,0.742-0.175,1.167-0.275
			c0.413-0.136,0.858-0.282,1.335-0.439c0.472-0.163,0.949-0.405,1.461-0.62c0.506-0.23,1.008-0.538,1.544-0.819
			c1.025-0.654,2.099-1.413,3.082-2.383c1.021-0.929,1.892-2.103,2.708-3.343c0.808-1.258,1.373-2.696,1.853-4.172
			c0.188-0.756,0.399-1.518,0.475-2.269c0.149-0.693,0.129-1.663,0.18-2.384c-0.028-1.578-0.219-3.155-0.654-4.652
			c-0.477-1.477-1.045-2.915-1.852-4.173c-0.816-1.24-1.685-2.416-2.707-3.344c-0.984-0.969-2.057-1.73-3.083-2.384
			c-0.537-0.28-1.039-0.587-1.545-0.818c-0.512-0.215-0.99-0.457-1.461-0.62c-0.477-0.157-0.923-0.304-1.335-0.439
			c-0.422-0.1-0.81-0.191-1.16-0.273c-0.701-0.189-1.292-0.213-1.677-0.285C101.863,374.035,101.655,374.006,101.655,374.006z"/>
		<g>
			<path fill="#FFFFFF" d="M101.655,408.152c-9.429,0-17.072-7.645-17.072-17.072c0-9.43,7.644-17.074,17.072-17.074"/>
			<path fill="#1F1F1F" d="M101.655,408.652c-9.689,0-17.572-7.883-17.572-17.572c0-9.69,7.883-17.574,17.572-17.574v1
				c-9.138,0-16.572,7.436-16.572,16.574c0,9.138,7.434,16.572,16.572,16.572V408.652z"/>
		</g>
	</g>
	<path fill="#585857" d="M185.5,363.5h-173v-304h173V363.5z M13.5,362.5h171v-302h-171V362.5z"/>
	<g>
		<path fill="#010202" d="M101.655,408.652c-9.69,0-17.573-7.883-17.573-17.572c0-9.69,7.883-17.574,17.573-17.574
			s17.573,7.884,17.573,17.574C119.229,400.77,111.345,408.652,101.655,408.652z M101.655,374.506
			c-9.139,0-16.573,7.436-16.573,16.574c0,9.138,7.435,16.572,16.573,16.572s16.573-7.435,16.573-16.572
			C118.229,381.941,110.794,374.506,101.655,374.506z"/>
	</g>
	<g>
		<path fill="#FFFFFF" d="M381.464,275.825c0,0-2.414-1.81-7.844-5.43c-11.147-7.432-42.238-28.36-55.513-38.618
			c-13.275-10.259-41.635-28.965-49.481-36.81c0,0-7.844-6.637-13.877-12.067c-6.033-5.43-17.5-9.654-21.12-12.068
			c-3.621-2.412-15.688-18.703-20.515-21.117c-4.828-2.416-24.74-9.053-29.568-10.863c-4.826-1.81-33.79-4.827-33.79,5.432
			c0,10.258,11.464,20.518,22.93,22.326c0,0,14.48,9.652,17.498,8.447c0,0,14.48,21.118,16.896,19.309c0,0,0,7.844,0.604,11.466
			c0,0-21.723,2.413-27.152,4.223c-5.433,1.812-12.068,4.829-15.086,10.26c-3.018,5.43-10.258,19.309-10.258,19.309
			s-10.459,2.23-14.425,5.589c-3.956,0.661-10.03,7.634-10.919,14.928c-0.651,5.347,2.599,12.232,5.267,13.525
			c4.479,3.961,13.43,8.946,21.104,10.334c4.593,0.46,6.39-0.018,6.66,0.229c1.805,1.658,9.861,7.998,18.26,0.652
			c0,0-1.207,18.704,10.258,25.342c5.429,3.619,9.051,6.034,9.051,6.034l11.464,4.827c0,0,3.622,13.275,24.741,8.448
			c11.465-3.018,13.878-5.431,13.878-7.241c0,0,19.309,11.464,33.791,10.861c4.828,0.603,28.362,19.309,49.48,21.722
			c7.24,0.604,38.014,21.12,43.443,26.552"/>
		<path fill="#020303" d="M377.239,381.924c-0.128,0-0.256-0.049-0.354-0.146c-5.661-5.663-36.194-25.829-43.132-26.407
			c-14.459-1.651-29.804-10.737-39.958-16.75c-4.523-2.678-8.096-4.793-9.542-4.974c-12.925,0.555-29.879-8.605-33.351-10.563
			c-0.537,1.69-3.192,4.052-14.13,6.931c-19.755,4.522-24.626-6.745-25.271-8.559l-11.255-4.739l-9.134-6.079
			c-10.073-5.831-10.588-20.46-10.52-24.667c-8.436,6.511-16.289,0.229-17.991-1.313c-0.137-0.01-0.466,0-0.785,0.013
			c-0.98,0.04-2.806,0.111-5.654-0.174c-7.789-1.406-16.777-6.403-21.335-10.413c-2.911-1.491-6.136-8.625-5.481-14.004
			c0.893-7.326,6.859-14.482,11.196-15.336c3.795-3.113,12.718-5.204,14.309-5.559c0.915-1.753,7.371-14.102,10.156-19.113
			c2.463-4.434,7.489-7.865,15.365-10.491c5.015-1.671,23.335-3.801,26.738-4.188c-0.442-3.184-0.517-8.608-0.528-10.424
			c-0.031-0.003-0.062-0.007-0.095-0.013c-3.443-0.567-14.503-16.405-16.521-19.333c-3.676,0.504-15.658-7.335-17.467-8.537
			c-12.178-1.975-23.243-12.817-23.243-22.803c0-1.897,0.9-3.483,2.675-4.713c7.374-5.11,28.014-2.603,31.791-1.187
			c1.415,0.531,4.188,1.497,7.398,2.617c7.926,2.763,18.782,6.548,22.218,8.268c2.85,1.425,8.033,7.409,12.607,12.688
			c3.326,3.839,6.467,7.465,7.961,8.46c1.202,0.802,3.348,1.835,5.833,3.033c5.039,2.428,11.31,5.449,15.345,9.08
			c5.958,5.363,13.786,11.991,13.865,12.057c4.874,4.871,17.543,13.85,29.795,22.533c7.523,5.332,14.63,10.369,19.669,14.263
			c14.734,11.386,51.357,35.846,55.484,38.598c5.379,3.586,7.842,5.428,7.866,5.445c0.221,0.166,0.266,0.479,0.101,0.7
			c-0.167,0.222-0.48,0.266-0.7,0.101c-0.024-0.019-2.47-1.846-7.821-5.414c-4.13-2.754-40.779-27.231-55.541-38.639
			c-5.022-3.881-12.121-8.912-19.636-14.238c-12.286-8.707-24.99-17.711-29.894-22.613c-0.048-0.038-7.888-6.676-13.858-12.049
			c-3.928-3.535-10.128-6.522-15.109-8.922c-2.519-1.213-4.693-2.261-5.953-3.102c-1.606-1.07-4.645-4.577-8.162-8.637
			c-4.513-5.209-9.627-11.112-12.299-12.449c-3.379-1.691-14.199-5.463-22.101-8.218c-3.216-1.122-5.994-2.09-7.42-2.625
			c-3.976-1.492-24.066-3.643-30.87,1.072c-1.51,1.046-2.245,2.319-2.245,3.891c0,9.568,10.728,19.974,22.508,21.833
			c0.071,0.011,0.139,0.038,0.199,0.078c5.514,3.675,15.011,9.2,17.035,8.399c0.217-0.087,0.465-0.011,0.598,0.182
			c5.142,7.5,13.662,18.8,16.053,19.195c0.069,0.011,0.117,0.007,0.13-0.003c0.15-0.113,0.354-0.132,0.523-0.047
			c0.169,0.085,0.276,0.258,0.276,0.447c0,0.078,0.007,7.844,0.597,11.384c0.022,0.135-0.012,0.274-0.095,0.384
			c-0.082,0.109-0.207,0.18-0.343,0.195c-0.217,0.024-21.732,2.428-27.05,4.2c-7.627,2.543-12.471,5.824-14.807,10.029
			c-2.98,5.361-10.179,19.158-10.251,19.297c-0.069,0.132-0.193,0.227-0.339,0.258c-0.104,0.021-10.382,2.243-14.206,5.481
			c-0.069,0.058-0.152,0.097-0.241,0.111c-3.509,0.586-9.601,7.075-10.505,14.495c-0.649,5.33,2.65,11.882,4.989,13.015
			c0.041,0.021,0.079,0.046,0.113,0.075c4.441,3.928,13.262,8.843,20.861,10.217c2.74,0.273,4.453,0.206,5.476,0.164
			c0.834-0.032,1.176-0.047,1.432,0.187c1.495,1.373,9.358,7.85,17.594,0.646c0.151-0.135,0.369-0.163,0.55-0.072
			c0.181,0.089,0.291,0.278,0.278,0.48c-0.012,0.184-1.051,18.474,10.01,24.877l9.077,6.051l11.381,4.782
			c0.141,0.06,0.247,0.181,0.288,0.328c0.144,0.522,3.777,12.747,24.147,8.094c8.945-2.354,13.489-4.629,13.489-6.754
			c0-0.18,0.097-0.346,0.253-0.435c0.155-0.09,0.349-0.088,0.502,0.005c0.192,0.113,19.369,11.403,33.516,10.791
			c1.735,0.21,5.207,2.266,10.011,5.109c10.08,5.969,25.314,14.989,39.547,16.615c7.713,0.643,38.63,21.583,43.74,26.695
			c0.195,0.195,0.195,0.512,0,0.707C377.495,381.875,377.367,381.924,377.239,381.924z"/>
	</g>
	<g>
		<path fill="#FFFFFF" d="M284.315,333.15c0,0,0.63,0.228,15.791,0.458c15.158,0.229,21.357,4.364,22.965,4.823"/>
		<path fill="#020303" d="M323.071,338.932c-0.045,0-0.092-0.006-0.138-0.02c-0.304-0.087-0.714-0.272-1.282-0.529
			c-2.704-1.223-9.036-4.086-21.553-4.274c-9.546-0.146-15.51-0.327-15.953-0.487c-0.26-0.095-0.395-0.381-0.301-0.641
			c0.088-0.242,0.349-0.377,0.587-0.316c0.166,0.028,1.831,0.233,15.683,0.444c12.724,0.191,19.188,3.115,21.949,4.363
			c0.509,0.23,0.911,0.412,1.146,0.479c0.265,0.075,0.419,0.353,0.343,0.618C323.489,338.789,323.289,338.932,323.071,338.932z"/>
	</g>
	<g>
		<path fill="#FFFFFF" d="M140.825,245.412c0,0,3.558,0,5.625-0.229c2.068-0.231-9.877,9.646-4.135,26.641
			c0.46,2.068-5.827,2.068-7.206,1.84"/>
		<path fill="#020303" d="M136.906,274.013c-0.822,0-1.504-0.047-1.838-0.102c-0.136-0.023-0.228-0.151-0.206-0.288
			c0.022-0.136,0.149-0.225,0.288-0.206c1.302,0.217,5.724,0.144,6.742-0.932c0.174-0.184,0.23-0.376,0.179-0.606
			c-4.315-12.768,1.4-21.727,3.552-25.1c0.338-0.53,0.686-1.076,0.79-1.336c-2.123,0.216-5.553,0.219-5.588,0.219
			c-0.138,0-0.25-0.112-0.25-0.25s0.112-0.25,0.25-0.25c0.036,0,3.568-0.003,5.598-0.227c0.272-0.033,0.403,0.077,0.463,0.175
			c0.195,0.313-0.087,0.756-0.841,1.938c-2.315,3.63-7.738,12.131-3.493,24.696c0.094,0.417-0.011,0.783-0.297,1.085
			C141.364,273.771,138.773,274.013,136.906,274.013z"/>
	</g>
	<g>
		<path fill="#FFFFFF" d="M200.441,316.255c0,0-3.691-9.288,1.822-12.505c1.837-1.146,7.12,2.758,8.497,3.217
			c0,0-1.384,11.005,1.145,14.115"/>
		<path fill="#020303" d="M211.905,321.332c-0.072,0-0.145-0.031-0.194-0.093c-2.409-2.963-1.401-12.569-1.222-14.109
			c-0.417-0.178-1.027-0.529-1.771-0.958c-2.042-1.178-5.132-2.951-6.322-2.21c-5.271,3.075-1.759,12.109-1.723,12.2
			c0.051,0.129-0.012,0.274-0.141,0.325c-0.13,0.05-0.273-0.013-0.324-0.14c-0.038-0.097-0.939-2.388-1.173-5.117
			c-0.314-3.668,0.758-6.329,3.102-7.696c1.445-0.901,4.558,0.895,6.831,2.205c0.81,0.467,1.509,0.87,1.871,0.99
			c0.113,0.038,0.184,0.15,0.169,0.269c-0.014,0.109-1.342,10.935,1.091,13.927c0.087,0.106,0.07,0.264-0.037,0.352
			C212.017,321.313,211.961,321.332,211.905,321.332z"/>
	</g>
	<g>
		<path fill="#FFFFFF" d="M244.754,325.34c0,0-14.011,1.84-15.39-3.905c-1.377-5.74,3.676-8.728,3.676-8.728
			s3.675,2.987,7.119,4.595C240.159,317.302,241.079,320.289,244.754,325.34z"/>
		<path fill="#020303" d="M239.933,325.87c-4.453,0-9.943-0.759-10.812-4.377c-1.403-5.853,3.739-8.971,3.792-9.001
			c0.091-0.053,0.205-0.045,0.284,0.021c0.037,0.03,3.691,2.987,7.067,4.562c0.064,0.03,0.112,0.085,0.134,0.152
			c0.009,0.03,0.957,3.017,4.558,7.965c0.052,0.071,0.062,0.165,0.027,0.246c-0.034,0.081-0.109,0.138-0.197,0.149
			C244.765,325.591,242.604,325.87,239.933,325.87z M233.023,313.014c-0.816,0.537-4.619,3.347-3.416,8.362
			c0.792,3.302,6.052,3.994,10.325,3.994c1.947,0,3.619-0.15,4.369-0.229c-3.123-4.359-4.151-7.09-4.347-7.658
			C236.93,316.049,233.725,313.568,233.023,313.014z"/>
	</g>
	<g>
		<path fill="#FFFFFF" d="M155.187,239.622c0,0,10.787-3.165,23.188,0.279c12.403,3.446,31.62,2.062,43.869-4.824
			c2.527-1.169,4.241-2.12,6.149-5.741"/>
		<path fill="#020303" d="M193.425,242.221c-5.659,0-10.951-0.661-15.184-1.838c-12.11-3.361-22.807-0.312-22.914-0.281
			c-0.263,0.078-0.543-0.074-0.621-0.339s0.074-0.543,0.339-0.62c0.109-0.031,11.068-3.166,23.463,0.277
			c11.51,3.197,30.926,2.284,43.49-4.778c2.501-1.159,4.106-2.035,5.952-5.539c0.129-0.245,0.434-0.336,0.676-0.209
			c0.244,0.129,0.338,0.432,0.209,0.676c-1.956,3.712-3.716,4.729-6.382,5.962C214.07,240.245,203.2,242.221,193.425,242.221z"/>
	</g>
	<path fill="#020303" d="M250.524,322.789c-0.072,0-0.146-0.016-0.215-0.049c-16.358-7.803-34.148-20.522-34.326-20.65
		c-0.917-0.588-1.888-1.727-3.116-3.169c-3.28-3.851-8.238-9.67-18.807-13.302c-14.397-4.945-31.137-1.172-31.305-1.134
		c-0.272,0.063-0.538-0.105-0.6-0.375c-0.062-0.269,0.105-0.537,0.375-0.6c0.17-0.04,17.189-3.877,31.855,1.163
		c10.827,3.721,16.096,9.904,19.244,13.599c1.175,1.379,2.103,2.468,2.916,2.99c0.198,0.142,17.919,12.812,34.194,20.575
		c0.25,0.119,0.355,0.417,0.236,0.666C250.89,322.685,250.711,322.789,250.524,322.789z"/>
	<g>
		<path fill="#FFFFFF" d="M187.333,241.278c0,0-3.675-10.794-8.268-16.996"/>
		<path fill="#020303" d="M187.333,241.778c-0.208,0-0.402-0.131-0.473-0.339c-0.037-0.107-3.704-10.793-8.196-16.859
			c-0.164-0.223-0.118-0.535,0.104-0.699s0.535-0.117,0.699,0.104c4.586,6.194,8.188,16.689,8.339,17.133
			c0.089,0.262-0.051,0.546-0.312,0.635C187.441,241.77,187.386,241.778,187.333,241.778z"/>
	</g>
	<g>
		<path fill="#FFFFFF" d="M211.909,239.212c0,0,2.758-22.28,2.984-31.467c0.23-9.187,2.527-11.023,2.527-11.023"/>
		<path fill="#020303" d="M211.909,239.462c-0.01,0-0.021-0.001-0.03-0.002c-0.138-0.017-0.234-0.142-0.218-0.278
			c0.027-0.223,2.759-22.374,2.982-31.443c0.23-9.197,2.523-11.134,2.621-11.212c0.107-0.085,0.265-0.068,0.352,0.039
			c0.086,0.108,0.068,0.265-0.039,0.352c-0.021,0.017-2.211,1.943-2.434,10.834c-0.225,9.093-2.959,31.268-2.986,31.491
			C212.142,239.369,212.034,239.462,211.909,239.462z"/>
	</g>
	<g>
		<path fill="#FFFFFF" d="M207.683,205.831c0,0-0.826,2.144,0.093,4.213"/>
		<path fill="#020303" d="M207.775,210.544c-0.191,0-0.374-0.111-0.457-0.297c-0.991-2.233-0.139-4.5-0.103-4.596
			c0.101-0.258,0.385-0.383,0.646-0.287c0.257,0.099,0.386,0.387,0.288,0.645c-0.007,0.02-0.737,1.985,0.083,3.831
			c0.112,0.252-0.002,0.548-0.254,0.66C207.912,210.53,207.844,210.544,207.775,210.544z"/>
	</g>
	<g>
		<path fill="#FFFFFF" d="M207.079,194.365c0,0,0.926-10.737,5.979-14.41"/>
		<path fill="#020303" d="M207.079,194.615c-0.007,0-0.015,0-0.021-0.001c-0.138-0.012-0.239-0.133-0.228-0.271
			c0.038-0.443,0.994-10.894,6.081-14.591c0.112-0.083,0.269-0.057,0.35,0.055c0.081,0.112,0.057,0.268-0.055,0.349
			c-4.905,3.564-5.869,14.123-5.878,14.229C207.317,194.517,207.208,194.615,207.079,194.615z"/>
	</g>
	<g>
		<path fill="#FFFFFF" d="M202.427,182.769c0,0-7.02-8.195-2.322-23.389"/>
		<path fill="#020303" d="M202.427,183.019c-0.07,0-0.141-0.03-0.189-0.087c-0.073-0.085-1.804-2.135-2.973-6.088
			c-1.075-3.635-1.844-9.628,0.601-17.537c0.041-0.132,0.178-0.207,0.313-0.165c0.132,0.041,0.205,0.181,0.165,0.312
			c-2.403,7.774-1.657,13.654-0.608,17.219c1.137,3.861,2.864,5.914,2.882,5.934c0.089,0.105,0.077,0.263-0.028,0.353
			C202.542,182.999,202.484,183.019,202.427,183.019z"/>
	</g>
	<g>
		<path fill="#FFFFFF" d="M181.384,172.61c0,0-4.48-7.981-2.826-17.374"/>
		<path fill="#020303" d="M181.384,172.86c-0.087,0-0.172-0.046-0.218-0.127c-0.045-0.081-4.505-8.168-2.854-17.54
			c0.024-0.136,0.156-0.229,0.29-0.203c0.136,0.024,0.227,0.153,0.203,0.29c-1.62,9.198,2.754,17.129,2.798,17.208
			c0.068,0.121,0.025,0.273-0.095,0.34C181.467,172.85,181.425,172.86,181.384,172.86z"/>
	</g>
	<g>
		<path fill="#FFFFFF" d="M210.283,235.435c0,0-3.431-9.34-2.858-23.827"/>
		<path fill="#020303" d="M210.283,235.935c-0.204,0-0.396-0.125-0.47-0.327c-0.034-0.095-3.458-9.601-2.889-24.02
			c0.011-0.275,0.209-0.501,0.52-0.48c0.276,0.011,0.491,0.243,0.48,0.519c-0.562,14.207,2.794,23.543,2.828,23.636
			c0.095,0.259-0.038,0.546-0.298,0.642C210.398,235.925,210.341,235.935,210.283,235.935z"/>
	</g>
	<g>
		<path fill="#FFFFFF" d="M157.031,247.546c0,0,2.023,9.692-2.722,16.39"/>
		<path fill="#020303" d="M154.31,264.186c-0.05,0-0.101-0.015-0.145-0.046c-0.113-0.08-0.139-0.236-0.06-0.349
			c4.629-6.533,2.701-16.099,2.681-16.194c-0.028-0.135,0.059-0.268,0.193-0.296c0.137-0.021,0.268,0.059,0.296,0.194
			c0.021,0.098,1.991,9.876-2.762,16.585C154.465,264.148,154.388,264.186,154.31,264.186z"/>
	</g>
	<g>
		<path fill="#FFFFFF" d="M152.723,251.659c0,0-1.012,3.76-0.51,8.049"/>
		<path fill="#020303" d="M152.212,259.958c-0.125,0-0.233-0.094-0.248-0.221c-0.501-4.287,0.507-8.105,0.517-8.144
			c0.036-0.133,0.173-0.21,0.306-0.176c0.133,0.036,0.212,0.173,0.176,0.306c-0.01,0.038-0.993,3.767-0.502,7.955
			c0.016,0.138-0.083,0.262-0.219,0.277C152.232,259.957,152.222,259.958,152.212,259.958z"/>
	</g>
	<g>
		<path fill="#FFFFFF" d="M211.905,321.082c0,0,8.791,4.438,12.171-3.102c2.163-4.827,2.163-9.485,2.163-9.485"/>
		<path fill="#020303" d="M217.358,322.882c-2.953,0-5.537-1.282-5.679-1.354c-0.246-0.124-0.345-0.425-0.221-0.671
			s0.425-0.347,0.671-0.222c0.041,0.021,4.226,2.09,7.735,0.842c1.654-0.588,2.917-1.834,3.755-3.701
			c2.095-4.676,2.119-9.235,2.119-9.281c0-0.276,0.224-0.5,0.5-0.5s0.5,0.224,0.5,0.5c0,0.194-0.025,4.821-2.207,9.689
			c-0.954,2.129-2.413,3.555-4.337,4.236C219.257,322.755,218.289,322.882,217.358,322.882z"/>
	</g>
	<g>
		<line fill="#FFFFFF" x1="181.133" y1="284.879" x2="181.816" y2="283.04"/>
		<path fill="#020303" d="M181.133,285.879c-0.116,0-0.233-0.02-0.349-0.062c-0.518-0.192-0.781-0.769-0.589-1.286l0.684-1.839
			c0.193-0.518,0.768-0.782,1.286-0.589c0.518,0.192,0.781,0.769,0.589,1.286l-0.684,1.839
			C181.92,285.63,181.539,285.879,181.133,285.879z"/>
	</g>
	<path fill="#FFFFFF" stroke="#020303" stroke-width="2" stroke-linecap="round" stroke-linejoin="round" d="M144.26,242.941"/>
	<g>
		<path fill="#FFFFFF" d="M207.315,292.956c0,0-4.594,0-5.512,0.69"/>
		<path fill="#020303" d="M201.804,294.146c-0.151,0-0.302-0.068-0.399-0.199c-0.166-0.221-0.122-0.534,0.099-0.7
			c1.001-0.753,5.018-0.791,5.812-0.791c0.276,0,0.5,0.224,0.5,0.5s-0.224,0.5-0.5,0.5c-1.838,0-4.671,0.184-5.211,0.59
			C202.015,294.114,201.909,294.146,201.804,294.146z"/>
	</g>
	<path fill="#324C9B" d="M41.855,235.655l-0.966-0.26c0.044-0.165,4.573-16.696,17.117-33.729
		c11.587-15.734,32.578-35.141,66.775-38.241l0.09,0.996c-33.826,3.066-54.594,22.269-66.06,37.837
		C46.377,219.143,41.899,235.492,41.855,235.655z"/>
	<path fill="#324C9B" d="M134.364,164.489c0,0-7.534,1.191-13.11,5.391c0,0,2.458-5.196-0.302-10.475
		C120.952,159.405,129.243,160.613,134.364,164.489z"/>
	<path fill="#324C9B" d="M38.896,243.993c0,0,3.642-6.697,9.474-10.551c0,0-5.734,0.587-9.807-3.761
		C38.562,229.682,36.938,237.887,38.896,243.993z"/>
</g>
</svg>
