<?xml version="1.0" encoding="utf-8"?>
<!-- Generator: Adobe Illustrator 21.1.0, SVG Export Plug-In . SVG Version: 6.00 Build 0)  -->
<svg version="1.1" id="Layer_1" xmlns="http://www.w3.org/2000/svg" xmlns:xlink="http://www.w3.org/1999/xlink" x="0px" y="0px"
	 viewBox="0 0 628.8 1120" style="enable-background:new 0 0 628.8 1120;" xml:space="preserve">
<style type="text/css">
	.st0{clip-path:url(#SVGID_1_);}
	.st1{fill:#FFFFFF;}
	.st2{fill:#E07070;}
	.st3{fill:#EB5B28;}
	.st4{fill:#AA96C7;}
	.st5{fill:#F29DC3;}
	.st6{fill:#A4D3BA;}
	.st7{fill:#F7B075;}
	.st8{fill:#57BBA9;}
	.st9{fill:#FFEE84;}
	.st10{fill:#7886C1;}
	.st11{fill:#9BD6EE;}
</style>
<g>
	<defs>
		<rect id="SVGID_3_" width="628.8" height="1120"/>
	</defs>
	<clipPath id="SVGID_1_">
		<use xlink:href="#SVGID_3_"  style="overflow:visible;"/>
	</clipPath>
	<g class="st0">
		
			<rect x="-178.8" y="-143" transform="matrix(0.7071 -0.7071 0.7071 0.7071 18.0171 -94.2158)" class="st1" width="148.2" height="148.2"/>
		
			<rect x="-74" y="-38.2" transform="matrix(0.7071 -0.7071 0.7071 0.7071 -25.3865 10.5699)" class="st2" width="148.2" height="148.2"/>
		
			<rect x="30.8" y="-143" transform="matrix(0.7071 -0.7071 0.7071 0.7071 79.3992 53.9736)" class="st3" width="148.2" height="148.2"/>
		
			<rect x="30.8" y="66.6" transform="matrix(0.7071 -0.7071 0.7071 0.7071 -68.7902 115.3556)" class="st4" width="148.2" height="148.2"/>
		
			<rect x="135.5" y="-38.2" transform="matrix(0.7071 -0.7071 0.7071 0.7071 35.9955 158.7592)" class="st5" width="148.2" height="148.2"/>
		
			<rect x="240.3" y="-143" transform="matrix(0.7071 -0.7071 0.7071 0.7071 140.7812 202.1629)" class="st2" width="148.2" height="148.2"/>
		
			<rect x="135.5" y="171.4" transform="matrix(0.7071 -0.7071 0.7071 0.7071 -112.1938 220.1413)" class="st6" width="148.2" height="148.2"/>
		
			<rect x="240.3" y="66.6" transform="matrix(0.7071 -0.7071 0.7071 0.7071 -7.4081 263.5449)" class="st6" width="148.2" height="148.2"/>
		
			<rect x="345.1" y="-38.2" transform="matrix(0.7071 -0.7071 0.7071 0.7071 97.3776 306.9486)" class="st7" width="148.2" height="148.2"/>
		
			<rect x="449.9" y="-143" transform="matrix(0.7071 -0.7071 0.7071 0.7071 202.1632 350.3522)" class="st5" width="148.2" height="148.2"/>
		
			<rect x="240.3" y="276.2" transform="matrix(0.7071 -0.7071 0.7071 0.7071 -155.5975 324.9269)" class="st2" width="148.2" height="148.2"/>
		
			<rect x="345.1" y="171.4" transform="matrix(0.7071 -0.7071 0.7071 0.7071 -50.8118 368.3306)" class="st6" width="148.2" height="148.2"/>
		
			<rect x="449.9" y="66.6" transform="matrix(0.7071 -0.7071 0.7071 0.7071 53.9739 411.7343)" class="st4" width="148.2" height="148.2"/>
		
			<rect x="554.7" y="-38.2" transform="matrix(0.7071 -0.7071 0.7071 0.7071 158.7596 455.1379)" class="st2" width="148.2" height="148.2"/>
		
			<rect x="659.5" y="-143" transform="matrix(0.7071 -0.7071 0.7071 0.7071 263.5453 498.5416)" class="st1" width="148.2" height="148.2"/>
		
			<rect x="345.1" y="381" transform="matrix(0.7071 -0.7071 0.7071 0.7071 -199.0011 429.7126)" class="st6" width="148.2" height="148.2"/>
		
			<rect x="449.9" y="276.2" transform="matrix(0.7071 -0.7071 0.7071 0.7071 -94.2154 473.1163)" class="st6" width="148.2" height="148.2"/>
		
			<rect x="554.7" y="171.4" transform="matrix(0.7071 -0.7071 0.7071 0.7071 10.5703 516.52)" class="st8" width="148.2" height="148.2"/>
		
			<rect x="659.5" y="66.6" transform="matrix(0.7071 -0.7071 0.7071 0.7071 115.3559 559.9236)" class="st1" width="148.2" height="148.2"/>
		
			<rect x="764.3" y="-38.2" transform="matrix(0.7071 -0.7071 0.7071 0.7071 220.1416 603.3273)" class="st1" width="148.2" height="148.2"/>
		
			<rect x="449.9" y="485.8" transform="matrix(0.7071 -0.7071 0.7071 0.7071 -242.4048 534.4983)" class="st5" width="148.2" height="148.2"/>
		
			<rect x="554.7" y="381" transform="matrix(0.7071 -0.7071 0.7071 0.7071 -137.6191 577.902)" class="st7" width="148.2" height="148.2"/>
		
			<rect x="-388.4" y="66.6" transform="matrix(0.7071 -0.7071 0.7071 0.7071 -191.5542 -181.0231)" class="st1" width="148.2" height="148.2"/>
		
			<rect x="-283.6" y="-38.2" transform="matrix(0.7071 -0.7071 0.7071 0.7071 -86.7685 -137.6194)" class="st1" width="148.2" height="148.2"/>
		
			<rect x="-283.6" y="171.4" transform="matrix(0.7071 -0.7071 0.7071 0.7071 -234.9579 -76.2374)" class="st1" width="148.2" height="148.2"/>
		
			<rect x="-178.8" y="66.6" transform="matrix(0.7071 -0.7071 0.7071 0.7071 -130.1722 -32.8337)" class="st1" width="148.2" height="148.2"/>
		
			<rect x="-178.8" y="276.2" transform="matrix(0.7071 -0.7071 0.7071 0.7071 -278.3615 28.5483)" class="st1" width="148.2" height="148.2"/>
		
			<rect x="-74" y="171.4" transform="matrix(0.7071 -0.7071 0.7071 0.7071 -173.5758 71.9519)" class="st9" width="148.2" height="148.2"/>
		
			<rect x="-74" y="381" transform="matrix(0.7071 -0.7071 0.7071 0.7071 -321.7652 133.334)" class="st10" width="148.2" height="148.2"/>
		
			<rect x="30.8" y="276.2" transform="matrix(0.7071 -0.7071 0.7071 0.7071 -216.9795 176.7376)" class="st6" width="148.2" height="148.2"/>
		
			<rect x="30.8" y="485.8" transform="matrix(0.7071 -0.7071 0.7071 0.7071 -365.1688 238.1197)" class="st5" width="148.2" height="148.2"/>
		
			<rect x="135.5" y="381" transform="matrix(0.7071 -0.7071 0.7071 0.7071 -260.3831 281.5233)" class="st6" width="148.2" height="148.2"/>
		
			<rect x="135.5" y="590.5" transform="matrix(0.7071 -0.7071 0.7071 0.7071 -408.5725 342.9053)" class="st11" width="148.2" height="148.2"/>
		
			<rect x="240.3" y="485.8" transform="matrix(0.7071 -0.7071 0.7071 0.7071 -303.7868 386.309)" class="st2" width="148.2" height="148.2"/>
		
			<rect x="240.3" y="695.3" transform="matrix(0.7071 -0.7071 0.7071 0.7071 -451.9761 447.691)" class="st2" width="148.2" height="148.2"/>
		
			<rect x="345.1" y="590.5" transform="matrix(0.7071 -0.7071 0.7071 0.7071 -347.1904 491.0947)" class="st11" width="148.2" height="148.2"/>
		
			<rect x="-493.2" y="171.4" transform="matrix(0.7071 -0.7071 0.7071 0.7071 -296.3399 -224.4267)" class="st1" width="148.2" height="148.2"/>
		
			<rect x="-388.4" y="276.2" transform="matrix(0.7071 -0.7071 0.7071 0.7071 -339.7436 -119.641)" class="st1" width="148.2" height="148.2"/>
		
			<rect x="-283.6" y="381" transform="matrix(0.7071 -0.7071 0.7071 0.7071 -383.1472 -14.8554)" class="st1" width="148.2" height="148.2"/>
		
			<rect x="-178.8" y="485.8" transform="matrix(0.7071 -0.7071 0.7071 0.7071 -426.5508 89.9303)" class="st1" width="148.2" height="148.2"/>
		
			<rect x="-74" y="590.5" transform="matrix(0.7071 -0.7071 0.7071 0.7071 -469.9545 194.716)" class="st7" width="148.2" height="148.2"/>
		
			<rect x="30.8" y="695.3" transform="matrix(0.7071 -0.7071 0.7071 0.7071 -513.3582 299.5017)" class="st11" width="148.2" height="148.2"/>
		
			<rect x="135.5" y="800.1" transform="matrix(0.7071 -0.7071 0.7071 0.7071 -556.7618 404.2874)" class="st11" width="148.2" height="148.2"/>
		
			<rect x="-702.7" y="381" transform="matrix(0.7071 -0.7071 0.7071 0.7071 -505.9113 -311.234)" class="st1" width="148.2" height="148.2"/>
		
			<rect x="-598" y="276.2" transform="matrix(0.7071 -0.7071 0.7071 0.7071 -401.1256 -267.8304)" class="st1" width="148.2" height="148.2"/>
		
			<rect x="-598" y="485.8" transform="matrix(0.7071 -0.7071 0.7071 0.7071 -549.3149 -206.4483)" class="st1" width="148.2" height="148.2"/>
		
			<rect x="-493.2" y="381" transform="matrix(0.7071 -0.7071 0.7071 0.7071 -444.5292 -163.0447)" class="st1" width="148.2" height="148.2"/>
		
			<rect x="-493.2" y="590.5" transform="matrix(0.7071 -0.7071 0.7071 0.7071 -592.7186 -101.6627)" class="st1" width="148.2" height="148.2"/>
		
			<rect x="-388.4" y="485.8" transform="matrix(0.7071 -0.7071 0.7071 0.7071 -487.9329 -58.259)" class="st1" width="148.2" height="148.2"/>
		
			<rect x="-388.4" y="695.3" transform="matrix(0.7071 -0.7071 0.7071 0.7071 -636.1222 3.123)" class="st1" width="148.2" height="148.2"/>
		
			<rect x="-283.6" y="590.5" transform="matrix(0.7071 -0.7071 0.7071 0.7071 -531.3365 46.5267)" class="st1" width="148.2" height="148.2"/>
		
			<rect x="-283.6" y="800.1" transform="matrix(0.7071 -0.7071 0.7071 0.7071 -679.5259 107.9087)" class="st1" width="148.2" height="148.2"/>
		
			<rect x="-178.8" y="695.3" transform="matrix(0.7071 -0.7071 0.7071 0.7071 -574.7402 151.3123)" class="st1" width="148.2" height="148.2"/>
		
			<rect x="-74" y="800.1" transform="matrix(0.7071 -0.7071 0.7071 0.7071 -618.1439 256.098)" class="st8" width="148.2" height="148.2"/>
		
			<rect x="659.5" y="276.2" transform="matrix(0.7071 -0.7071 0.7071 0.7071 -32.8334 621.3056)" class="st1" width="148.2" height="148.2"/>
		
			<rect x="764.3" y="171.4" transform="matrix(0.7071 -0.7071 0.7071 0.7071 71.9523 664.7093)" class="st1" width="148.2" height="148.2"/>
		
			<rect x="869" y="66.6" transform="matrix(0.7071 -0.7071 0.7071 0.7071 176.738 708.1129)" class="st1" width="148.2" height="148.2"/>
		
			<rect x="554.7" y="590.5" transform="matrix(0.7071 -0.7071 0.7071 0.7071 -285.8084 639.284)" class="st10" width="148.2" height="148.2"/>
		
			<rect x="659.5" y="485.8" transform="matrix(0.7071 -0.7071 0.7071 0.7071 -181.0227 682.6876)" class="st1" width="148.2" height="148.2"/>
		
			<rect x="764.3" y="381" transform="matrix(0.7071 -0.7071 0.7071 0.7071 -76.237 726.0913)" class="st1" width="148.2" height="148.2"/>
		
			<rect x="869" y="276.2" transform="matrix(0.7071 -0.7071 0.7071 0.7071 28.5486 769.4949)" class="st1" width="148.2" height="148.2"/>
		
			<rect x="973.8" y="171.4" transform="matrix(0.7071 -0.7071 0.7071 0.7071 133.3343 812.8986)" class="st1" width="148.2" height="148.2"/>
		
			<rect x="659.5" y="695.3" transform="matrix(0.7071 -0.7071 0.7071 0.7071 -329.2121 744.0697)" class="st1" width="148.2" height="148.2"/>
		
			<rect x="764.3" y="590.5" transform="matrix(0.7071 -0.7071 0.7071 0.7071 -224.4264 787.4733)" class="st1" width="148.2" height="148.2"/>
		
			<rect x="869" y="485.8" transform="matrix(0.7071 -0.7071 0.7071 0.7071 -119.6407 830.877)" class="st1" width="148.2" height="148.2"/>
		
			<rect x="973.8" y="381" transform="matrix(0.7071 -0.7071 0.7071 0.7071 -14.855 874.2806)" class="st1" width="148.2" height="148.2"/>
		
			<rect x="1078.6" y="276.2" transform="matrix(0.7071 -0.7071 0.7071 0.7071 89.9307 917.6843)" class="st1" width="148.2" height="148.2"/>
		
			<rect x="764.3" y="800.1" transform="matrix(0.7071 -0.7071 0.7071 0.7071 -372.6157 848.8553)" class="st1" width="148.2" height="148.2"/>
		
			<rect x="869" y="695.3" transform="matrix(0.7071 -0.7071 0.7071 0.7071 -267.83 892.259)" class="st1" width="148.2" height="148.2"/>
		
			<rect x="345.1" y="800.1" transform="matrix(0.7071 -0.7071 0.7071 0.7071 -495.3798 552.4767)" class="st11" width="148.2" height="148.2"/>
		
			<rect x="449.9" y="695.3" transform="matrix(0.7071 -0.7071 0.7071 0.7071 -390.5941 595.8804)" class="st11" width="148.2" height="148.2"/>
		
			<rect x="240.3" y="905.2" transform="matrix(0.7071 -0.7071 0.7071 0.7071 -600.3943 509.1678)" class="st11" width="148.2" height="148.2"/>
		
			<rect x="30.8" y="905.2" transform="matrix(0.7071 -0.7071 0.7071 0.7071 -661.7764 360.9785)" class="st4" width="148.2" height="148.2"/>
		
			<rect x="449.9" y="905.2" transform="matrix(0.7071 -0.7071 0.7071 0.7071 -539.0123 657.3572)" class="st4" width="148.2" height="148.2"/>
		
			<rect x="240.3" y="1115.1" transform="matrix(0.7071 -0.7071 0.7071 0.7071 -748.8126 570.6447)" class="st2" width="148.2" height="148.2"/>
		
			<rect x="30.8" y="1115.1" transform="matrix(0.7071 -0.7071 0.7071 0.7071 -810.1946 422.4554)" class="st5" width="148.2" height="148.2"/>
		
			<rect x="449.9" y="1115.1" transform="matrix(0.7071 -0.7071 0.7071 0.7071 -687.4305 718.834)" class="st8" width="148.2" height="148.2"/>
		
			<rect x="554.7" y="800.1" transform="matrix(0.7071 -0.7071 0.7071 0.7071 -433.9977 700.666)" class="st9" width="148.2" height="148.2"/>
		
			<rect x="135.5" y="1010" transform="matrix(0.7071 -0.7071 0.7071 0.7071 -705.18 465.7642)" class="st7" width="148.2" height="148.2"/>
		
			<rect x="-74" y="1010" transform="matrix(0.7071 -0.7071 0.7071 0.7071 -766.5621 317.5749)" class="st2" width="148.2" height="148.2"/>
		
			<rect x="345.1" y="1010" transform="matrix(0.7071 -0.7071 0.7071 0.7071 -643.798 613.9536)" class="st5" width="148.2" height="148.2"/>
		
			<rect x="554.7" y="1010" transform="matrix(0.7071 -0.7071 0.7071 0.7071 -582.416 762.1429)" class="st2" width="148.2" height="148.2"/>
		
			<rect x="973.8" y="590.5" transform="matrix(0.7071 -0.7071 0.7071 0.7071 -163.0443 935.6627)" class="st1" width="148.2" height="148.2"/>
		
			<rect x="1078.6" y="485.8" transform="matrix(0.7071 -0.7071 0.7071 0.7071 -58.2587 979.0663)" class="st1" width="148.2" height="148.2"/>
		
			<rect x="1183.4" y="381" transform="matrix(0.7071 -0.7071 0.7071 0.7071 46.527 1022.47)" class="st1" width="148.2" height="148.2"/>
	</g>
</g>
</svg>
