<?xml version="1.0" encoding="UTF-8" standalone="no"?>
<svg width="341px" height="460px" viewBox="0 0 341 460" version="1.1" xmlns="http://www.w3.org/2000/svg" xmlns:xlink="http://www.w3.org/1999/xlink">
    <!-- Generator: Sketch 3.7.1 (28215) - http://www.bohemiancoding.com/sketch -->
    <title>Artboard</title>
    <desc>Created with Sketch.</desc>
    <defs></defs>
    <g id="Page-1" stroke="none" stroke-width="1" fill="none" fill-rule="evenodd">
        <g id="Artboard">
            <g id="Page-1" transform="translate(1.000000, 28.000000)">
                <path d="M32.8586,203.7733 L39.6156,350.0543 C39.6156,350.0543 39.4526,387.2463 93.3966,339.6153 C137.4336,300.7323 185.6716,259.3033 226.7836,217.2583" id="Stroke-1" stroke="#323232" stroke-width="55" stroke-linejoin="round"></path>
                <path d="M160.8768,428.031 C160.8768,428.031 143.4528,293.413 143.7528,196.334 C144.0168,110.755 150.3688,36.241 210.7648,6.953 C232.4348,-3.556 263.2278,-1.161 282.4148,13.636 C309.2718,34.347 329.1998,77.036 289.1518,141.726 C285.3178,147.92 280.9328,154.315 275.9528,160.913" id="Stroke-3" stroke="#323232" stroke-width="55"></path>
                <g id="Group-7" transform="translate(0.000000, 116.561000)" fill="#323232">
                    <path d="M60.3984959,31.500384 C59.7587231,48.0126142 45.8545462,60.8809686 29.342316,60.2411959 C12.8300858,59.6014231 -0.0382686395,45.6972462 0.601504117,29.185016 C1.24127687,12.6727858 15.1454538,-0.195568639 31.657684,0.444204117 C48.1699142,1.08397687 61.0382686,14.9881538 60.3984959,31.500384" id="Fill-5"></path>
                </g>
            </g>
        </g>
    </g>
</svg>