<?xml version="1.0" encoding="utf-8"?>
<!-- Generator: Adobe Illustrator 22.0.1, SVG Export Plug-In . SVG Version: 6.00 Build 0)  -->
<svg version="1.1" id="Layer_1" xmlns="http://www.w3.org/2000/svg" xmlns:xlink="http://www.w3.org/1999/xlink" x="0px" y="0px"
	 viewBox="0 0 341 460" style="enable-background:new 0 0 341 460;" xml:space="preserve">
<style type="text/css">
	.st0{fill:#000F7D;}
</style>
<title>Artboard</title>
<desc>Created with Sketch.</desc>
<g id="Page-1_1_">
	<g id="Artboard">
		<g id="Page-1" transform="translate(1.000000, 28.000000)">
			<path class="st0" d="M51.8,391.5c-5.5,0-11.1-1.1-16.5-3.6c-16.8-7.6-22.9-24.5-23.1-37.1L5.4,205l54.9-2.5l5.7,124.1
				c2.7-2.1,5.7-4.6,9.1-7.6c6.3-5.6,12.7-11.2,19.1-16.9c38.5-33.8,78.3-68.8,112.8-104.1l39.3,38.5c-36,36.8-76.5,72.5-115.8,107
				c-6.4,5.6-12.8,11.2-19.1,16.8C94.4,375.4,73,391.5,51.8,391.5z"/>
			<path class="st0" d="M133.6,431.6C132.9,426,116,294,116.3,196.2c0.1-42,1.7-86.1,12-123.1c12.3-44.1,35.3-73.9,70.6-91
				C230-33,272.3-28.9,299.2-8.1c21,16.2,34.8,39.3,38.8,65.1c4.8,30.8-3.8,64.2-25.5,99.3c-4.3,7-9.2,14.1-14.6,21.3L254,144.3
				c4.4-5.8,8.3-11.5,11.8-17.1c24.8-40,24.7-72.7-0.1-91.8c-10.6-8.2-30.2-9.9-42.9-3.7c-42.7,20.7-51.2,76.1-51.5,164.7
				c-0.3,94.2,16.7,226.8,16.9,228.1L133.6,431.6z"/>
			<g id="Group-7" transform="translate(0.000000, 116.561000)">
				<g>
					<path id="Fill-5_1_" class="st0" d="M60.4,31.5C59.8,48,45.9,60.9,29.3,60.2S0,45.7,0.6,29.2S15.1-0.2,31.7,0.4
						S61,15,60.4,31.5"/>
					<path class="st0" d="M30.5,60.8c-0.4,0-0.8,0-1.2,0C21.2,60.4,13.7,57,8.2,51c-5.5-6-8.4-13.7-8.1-21.8S3.9,13.5,9.8,8
						s13.7-8.4,21.8-8.1c16.8,0.6,29.9,14.8,29.2,31.6c-0.3,8.1-3.8,15.6-9.7,21.1C45.5,57.9,38.2,60.8,30.5,60.8z M30.5,0.9
						c-7.4,0-14.5,2.8-20,7.8c-5.8,5.3-9.1,12.6-9.4,20.5c-0.6,16.2,12,29.9,28.3,30.5c7.8,0.3,15.4-2.5,21.1-7.8
						c5.8-5.3,9.1-12.6,9.4-20.5c0.3-7.9-2.5-15.4-7.8-21.1c-5.3-5.8-12.6-9.1-20.5-9.4C31.2,0.9,30.9,0.9,30.5,0.9z"/>
				</g>
			</g>
		</g>
	</g>
</g>
</svg>
