<?xml version="1.0" encoding="utf-8"?>
<!-- Generator: Adobe Illustrator 16.0.0, SVG Export Plug-In . SVG Version: 6.00 Build 0)  -->
<!DOCTYPE svg PUBLIC "-//W3C//DTD SVG 1.1//EN" "http://www.w3.org/Graphics/SVG/1.1/DTD/svg11.dtd">
<svg version="1.1" id="Layer_1" xmlns="http://www.w3.org/2000/svg" xmlns:xlink="http://www.w3.org/1999/xlink" x="0px" y="0px"
	 width="841.889px" height="571.249px" viewBox="0 0 841.889 571.249" enable-background="new 0 0 841.889 571.249"
	 xml:space="preserve">
<title>access-expiration</title>
<rect x="104.669" y="72.636" fill="#DDDDDD" width="638.551" height="382.727"/>
<path fill="#DDDDDD" d="M317.646,50.005h-10.559c-1.815,0-3.775-1.407-4.355-3.126l-4.157-12.322
	c-0.582-1.72-2.54-3.126-4.354-3.126h-90.412c-1.814,0-3.941,1.34-4.728,2.977l-6.056,12.624c-0.785,1.636-2.912,2.976-4.727,2.976
	h-11.22h-72.625v23.467h638.551V50.006L317.646,50.005L317.646,50.005z"/>
<circle fill="#DDDDDD" cx="115.54" cy="40.817" r="4.454"/>
<circle fill="#DDDDDD" cx="132.039" cy="40.817" r="4.454"/>
<circle fill="#DDDDDD" cx="147.383" cy="40.817" r="4.455"/>
<path fill="#FFFFFF" d="M499.324,69.099H163.505c-3.34,0-6.07-2.73-6.07-6.068v-2.213c0-3.338,2.73-6.07,6.07-6.07h335.817
	c3.336,0,6.066,2.732,6.066,6.07v2.213C505.392,66.368,502.66,69.099,499.324,69.099z"/>
<g>
	<path fill="#1D1D1B" d="M119.328,62.505v-1.028l3.906-1.992v0.937l-3.141,1.57l3.141,1.571v0.937L119.328,62.505z"/>
	<path fill="#1D1D1B" d="M137.622,61.476v1.028l-3.92,1.993v-0.937l3.142-1.571l-3.142-1.571v-0.937L137.622,61.476z"/>
</g>
<g>
	<path fill="none" stroke="#1D1D1B" stroke-miterlimit="10" d="M740.349,12.941h-631.5c-10.993,0-19.987,8.993-19.987,19.986
		v420.018c0,10.994,8.994,19.988,19.987,19.988h631.5c10.99,0,19.983-8.994,19.983-19.988V32.927
		C760.332,21.934,751.339,12.941,740.349,12.941z M743.005,456.625H104.454V30.036h638.551V456.625z"/>
</g>
<g>
	<polygon fill="#1E1E1E" points="104.454,456.609 263.988,456.064 423.521,455.757 583.056,455.648 742.587,455.683 
		741.658,456.609 741.929,243.323 742.197,136.68 742.587,30.036 742.982,136.68 743.248,243.323 743.517,456.609 743.519,457.539 
		742.587,457.539 583.056,457.572 423.521,457.466 263.988,457.156 	"/>
</g>
<g>
	<path fill="#1D1D1B" d="M513.291,465.623c0,0,51.312,1.451,128.271,3.625c19.24,0.576,40.082,1.201,62.129,1.861
		c11.021,0.332,22.346,0.67,33.92,1.018l2.172,0.064l0.545,0.018l0.502-0.014c0.371-0.004,0.722-0.024,1.06-0.057
		c1.381-0.113,2.779-0.383,4.119-0.799c2.688-0.845,5.194-2.295,7.291-4.218c2.084-1.932,3.778-4.313,4.844-6.979
		c0.537-1.328,0.926-2.719,1.154-4.137c0.246-1.437,0.254-2.832,0.237-4.363c-0.045-48.119-0.094-99.447-0.141-150.777
		c-0.004-51.328-0.008-102.656-0.01-150.776c0.018-24.061,0.035-47.317,0.051-69.375c0.01-11.026,0.018-21.754,0.023-32.13
		c-0.519-10.181,2.125-21.187-4.734-28.246c-3.031-3.484-7.262-5.73-11.625-6.364c-1.102-0.178-2.168-0.206-3.305-0.211
		c-1.138-0.008-2.269-0.014-3.394-0.021c-2.248-0.012-4.471-0.022-6.662-0.037c-8.772-0.048-17.094-0.093-24.914-0.136
		c-15.639-0.075-29.271-0.16-40.5-0.29c-22.457-0.218-35.289-0.343-35.289-0.343s12.832-0.125,35.289-0.343
		c11.229-0.132,24.861-0.217,40.5-0.29c7.82-0.043,16.142-0.09,24.914-0.138c2.191-0.012,4.414-0.022,6.662-0.037
		c1.125-0.006,2.256-0.012,3.394-0.019c1.141-0.008,2.366,0.026,3.545,0.21c4.758,0.663,9.36,3.112,12.662,6.896
		c1.653,1.883,2.995,4.083,3.889,6.484c0.445,1.2,0.781,2.449,1,3.725c0.223,1.271,0.309,2.604,0.305,3.864
		c0.004,5.006,0.008,10.106,0.012,15.294c0.009,10.376,0.017,21.104,0.023,32.13c0.016,22.057,0.033,45.313,0.051,69.375
		c-0.002,48.12-0.006,99.448-0.008,150.776c-0.049,51.33-0.098,102.658-0.143,150.777c0.012,1.475-0.006,3.092-0.279,4.615
		c-0.254,1.532-0.684,3.039-1.27,4.473c-1.164,2.875-3.005,5.438-5.261,7.51c-2.268,2.062-4.979,3.611-7.877,4.508
		c-1.455,0.443-2.938,0.726-4.459,0.843c-0.389,0.032-0.764,0.055-1.119,0.057l-0.588,0.01l-0.543-0.02l-2.174-0.074
		c-11.572-0.398-22.896-0.789-33.914-1.168c-22.043-0.76-42.883-1.478-62.119-2.139
		C564.587,467.478,513.291,465.623,513.291,465.623z"/>
</g>
<path fill="#FFFFFF" stroke="#1D1D1B" stroke-miterlimit="10" d="M836.353,481.462L836.353,481.462c0,5.227-4.275,9.502-9.504,9.502
	H22.347c-5.227,0-9.502-4.275-9.502-9.502l0,0"/>
<g>
	<path fill="#FFFFFF" stroke="#1D1D1B" stroke-miterlimit="10" d="M836.353,482.191v-16.568H491.937v1.896
		c0,3.039-2.486,5.525-5.525,5.525H362.787c-3.039,0-5.523-2.486-5.523-5.525v-1.896H12.845v15.839"/>
	<path fill="#FFFFFF" stroke="#1D1D1B" stroke-miterlimit="10" d="M362.787,473.046h123.624c3.039,0,5.525-2.486,5.525-5.525v-1.896
		H357.262v1.896C357.262,470.558,359.748,473.046,362.787,473.046z"/>
</g>
<path fill="#FFFFFF" stroke="#1D1D1B" stroke-miterlimit="10" d="M491.937,465.623v1.896c0,3.039-2.486,5.525-5.525,5.525H362.787
	c-3.039,0-5.523-2.486-5.523-5.525v-1.896H12.845v15.839"/>
<path fill="#FFFFFF" stroke="#1D1D1B" stroke-miterlimit="10" d="M751.363,465.623"/>
<path fill="#FFFFFF" stroke="#1D1D1B" stroke-miterlimit="10" d="M362.787,473.046h123.624c3.039,0,5.525-2.486,5.525-5.525v-1.896
	H357.262v1.896C357.262,470.558,359.748,473.046,362.787,473.046z"/>
<rect x="279.563" y="143.653" fill="#FFFFFF" width="288.763" height="240.693"/>
<g>
	<path d="M168.527,60.42l0.956,3.562l1.029-3.562h0.767l-1.376,4.665h-0.767l-0.967-3.541l-0.978,3.541h-0.767l-1.376-4.665h0.788
		l1.03,3.562l0.955-3.562H168.527z"/>
	<path d="M175.136,60.42l0.956,3.562l1.029-3.562h0.767l-1.376,4.665h-0.767l-0.968-3.541l-0.977,3.541h-0.767l-1.376-4.665h0.787
		l1.03,3.562l0.956-3.562H175.136z"/>
	<path d="M181.744,60.42l0.956,3.562l1.028-3.562h0.768l-1.376,4.665h-0.768l-0.967-3.541l-0.977,3.541h-0.768l-1.376-4.665h0.788
		l1.03,3.562l0.956-3.562H181.744z"/>
	<path d="M184.87,64.975c-0.108-0.108-0.163-0.243-0.163-0.404s0.054-0.298,0.163-0.41c0.107-0.112,0.242-0.168,0.404-0.168
		c0.154,0,0.285,0.056,0.395,0.168c0.108,0.112,0.163,0.249,0.163,0.41s-0.055,0.296-0.163,0.404s-0.24,0.163-0.395,0.163
		C185.113,65.138,184.978,65.084,184.87,64.975z"/>
	<path d="M189.519,60.42l0.956,3.562l1.029-3.562h0.767l-1.376,4.665h-0.767l-0.967-3.541l-0.978,3.541h-0.767l-1.376-4.665h0.788
		l1.029,3.562l0.956-3.562H189.519z"/>
	<path d="M196.107,63.688h0.746c-0.084,0.456-0.291,0.817-0.62,1.087c-0.33,0.27-0.75,0.405-1.261,0.405
		c-0.638,0-1.154-0.224-1.55-0.667c-0.396-0.445-0.594-1.028-0.594-1.749c0-0.708,0.195-1.291,0.588-1.75
		c0.392-0.458,0.903-0.688,1.534-0.688c0.622,0,1.105,0.208,1.449,0.625c0.345,0.417,0.516,0.972,0.516,1.665V62.9h-3.299
		c0.007,0.491,0.135,0.881,0.383,1.172c0.249,0.291,0.572,0.436,0.972,0.436c0.294,0,0.541-0.071,0.741-0.216
		C195.912,64.149,196.044,63.947,196.107,63.688z M194.961,60.998c-0.351,0-0.646,0.115-0.882,0.348
		c-0.238,0.23-0.386,0.55-0.441,0.956h2.479c-0.008-0.371-0.108-0.682-0.306-0.931C195.615,61.122,195.332,60.998,194.961,60.998z"
		/>
	<path d="M198.754,64.539v0.546h-0.798v-6.829h0.798v2.71c0.126-0.182,0.309-0.334,0.546-0.457c0.238-0.122,0.494-0.184,0.767-0.184
		c0.658,0,1.173,0.233,1.544,0.698c0.371,0.466,0.558,1.042,0.558,1.729c0,0.693-0.187,1.271-0.558,1.734
		c-0.371,0.462-0.886,0.693-1.544,0.693c-0.272,0-0.528-0.062-0.767-0.185S198.88,64.721,198.754,64.539z M198.754,61.807v1.891
		c0.119,0.238,0.286,0.425,0.5,0.562c0.213,0.137,0.446,0.204,0.699,0.204c0.434,0,0.778-0.158,1.034-0.478
		c0.256-0.318,0.384-0.73,0.384-1.234s-0.128-0.916-0.384-1.233c-0.256-0.319-0.601-0.479-1.034-0.479
		c-0.252,0-0.485,0.068-0.699,0.205C199.039,61.382,198.873,61.569,198.754,61.807z"/>
	<path d="M202.852,63.803h0.819c0.146,0.477,0.515,0.714,1.103,0.714c0.287,0,0.52-0.059,0.693-0.173
		c0.175-0.116,0.263-0.289,0.263-0.521c0-0.314-0.23-0.532-0.692-0.651l-0.925-0.241c-0.75-0.189-1.125-0.6-1.125-1.229
		c0-0.406,0.158-0.737,0.474-0.993c0.314-0.256,0.714-0.383,1.198-0.383c0.504,0,0.909,0.115,1.219,0.347
		c0.308,0.231,0.504,0.558,0.588,0.978h-0.788c-0.14-0.441-0.483-0.662-1.03-0.662c-0.245,0-0.456,0.058-0.63,0.173
		c-0.175,0.116-0.263,0.282-0.263,0.499c0,0.154,0.051,0.275,0.151,0.363c0.103,0.087,0.269,0.163,0.499,0.226l0.904,0.222
		c0.792,0.21,1.188,0.645,1.188,1.303c0,0.435-0.161,0.778-0.483,1.03s-0.739,0.378-1.25,0.378c-0.512,0-0.94-0.123-1.287-0.368
		S202.922,64.231,202.852,63.803z"/>
	<path d="M208.341,58.655c0.102,0.098,0.152,0.217,0.152,0.357c0,0.14-0.052,0.259-0.152,0.356c-0.103,0.1-0.222,0.147-0.362,0.147
		c-0.14,0-0.259-0.05-0.356-0.147c-0.099-0.098-0.147-0.217-0.147-0.356c0-0.141,0.049-0.26,0.147-0.357
		c0.098-0.098,0.217-0.147,0.356-0.147C208.119,58.508,208.24,58.557,208.341,58.655z M208.378,60.42v4.665h-0.788V60.42H208.378z"
		/>
	<path d="M210.007,63.908v-2.816h-0.757V60.42h0.757v-1.229h0.788v1.229h1.125v0.672h-1.125v2.732c0,0.435,0.207,0.651,0.62,0.651
		c0.217,0,0.42-0.063,0.608-0.189v0.735c-0.195,0.104-0.44,0.158-0.734,0.158c-0.394,0-0.704-0.107-0.936-0.321
		C210.122,64.646,210.007,64.329,210.007,63.908z"/>
	<path d="M216.006,63.688h0.746c-0.084,0.456-0.291,0.817-0.62,1.087c-0.33,0.27-0.75,0.405-1.261,0.405
		c-0.639,0-1.154-0.224-1.551-0.667c-0.396-0.445-0.594-1.028-0.594-1.749c0-0.708,0.196-1.291,0.588-1.75
		c0.393-0.458,0.904-0.688,1.534-0.688c0.623,0,1.106,0.208,1.45,0.625s0.515,0.972,0.515,1.665V62.9h-3.299
		c0.007,0.491,0.135,0.881,0.383,1.172c0.249,0.291,0.573,0.436,0.973,0.436c0.294,0,0.541-0.071,0.74-0.216
		C215.812,64.149,215.943,63.947,216.006,63.688z M214.861,60.998c-0.35,0-0.645,0.115-0.882,0.348
		c-0.238,0.23-0.385,0.55-0.44,0.956h2.479c-0.007-0.371-0.107-0.682-0.305-0.931S215.232,60.998,214.861,60.998z"/>
	<path d="M217.66,64.975c-0.108-0.108-0.163-0.243-0.163-0.404s0.054-0.298,0.163-0.41c0.107-0.112,0.242-0.168,0.404-0.168
		c0.154,0,0.285,0.056,0.395,0.168c0.108,0.112,0.163,0.249,0.163,0.41s-0.055,0.296-0.163,0.404s-0.24,0.163-0.395,0.163
		C217.904,65.138,217.769,65.084,217.66,64.975z"/>
	<path d="M219.778,64.508c-0.392-0.447-0.588-1.032-0.588-1.755c0-0.721,0.196-1.306,0.588-1.754
		c0.393-0.447,0.904-0.672,1.534-0.672c0.511,0,0.931,0.136,1.255,0.41c0.326,0.273,0.531,0.637,0.615,1.093h-0.809
		c-0.057-0.252-0.178-0.45-0.362-0.594c-0.186-0.145-0.419-0.215-0.699-0.215c-0.398,0-0.72,0.161-0.961,0.482
		c-0.241,0.322-0.363,0.739-0.363,1.25c0,0.512,0.121,0.929,0.363,1.25c0.242,0.322,0.562,0.483,0.961,0.483
		c0.28,0,0.514-0.072,0.699-0.216s0.306-0.341,0.362-0.593h0.809c-0.084,0.454-0.289,0.818-0.615,1.092
		c-0.325,0.272-0.744,0.41-1.255,0.41C220.681,65.18,220.17,64.956,219.778,64.508z"/>
	<path d="M227.548,61.003c0.396,0.452,0.593,1.035,0.593,1.75c0,0.716-0.198,1.299-0.593,1.75c-0.396,0.452-0.913,0.679-1.55,0.679
		c-0.639,0-1.154-0.227-1.551-0.679c-0.396-0.451-0.594-1.034-0.594-1.75c0-0.715,0.198-1.297,0.594-1.75
		c0.396-0.451,0.912-0.677,1.551-0.677C226.635,60.326,227.152,60.552,227.548,61.003z M226.98,64.008
		c0.242-0.317,0.362-0.736,0.362-1.255c0-0.518-0.121-0.937-0.362-1.255c-0.241-0.317-0.568-0.478-0.981-0.478
		c-0.414,0-0.741,0.159-0.982,0.478c-0.241,0.319-0.363,0.737-0.363,1.255c0,0.52,0.121,0.938,0.363,1.255
		c0.242,0.319,0.569,0.479,0.982,0.479S226.739,64.327,226.98,64.008z"/>
	<path d="M232.522,61.072c0.351-0.497,0.823-0.746,1.418-0.746c0.47,0,0.832,0.15,1.087,0.452c0.256,0.301,0.384,0.708,0.384,1.219
		v3.089h-0.799v-2.963c0-0.336-0.073-0.601-0.221-0.793c-0.146-0.191-0.368-0.289-0.662-0.289c-0.237,0-0.452,0.075-0.641,0.227
		c-0.189,0.15-0.319,0.352-0.39,0.604v3.215h-0.787v-2.963c0-0.336-0.074-0.601-0.222-0.793c-0.146-0.191-0.368-0.289-0.662-0.289
		c-0.237,0-0.451,0.075-0.641,0.227c-0.189,0.15-0.319,0.352-0.389,0.604v3.215h-0.788V60.42H230v0.546
		c0.266-0.427,0.687-0.641,1.261-0.641C231.85,60.326,232.27,60.574,232.522,61.072z"/>
</g>
<g>
	<rect x="355.278" y="217.527" fill="#314B9A" width="5.134" height="81.308"/>
	<rect x="375.039" y="200.056" fill="#314B9A" width="8.022" height="137.557"/>
	<rect x="458.307" y="200.056" fill="#314B9A" width="8.022" height="137.557"/>
	<rect x="391.107" y="191.185" fill="#314B9A" width="4.513" height="130.593"/>
	<rect x="407.115" y="203.747" fill="#314B9A" width="5.923" height="130.384"/>
	<rect x="420.914" y="177.691" fill="#314B9A" width="2.426" height="130.385"/>
	<rect x="430.347" y="216.172" fill="#314B9A" width="2.426" height="130.385"/>
	<rect x="445.99" y="191.289" fill="#314B9A" width="3.639" height="130.385"/>
</g>
<g>
	<g>
		<path d="M612.593,554.83c-0.15-0.148-0.223-0.332-0.223-0.553c0-0.22,0.072-0.405,0.223-0.558c0.146-0.153,0.33-0.229,0.551-0.229
			c0.209,0,0.389,0.076,0.533,0.229c0.15,0.152,0.225,0.338,0.225,0.558c0,0.221-0.074,0.404-0.225,0.553
			c-0.145,0.147-0.324,0.222-0.533,0.222C612.923,555.052,612.74,554.977,612.593,554.83z"/>
	</g>
	<path fill="#FFFFFF" stroke="#1E1E1E" stroke-miterlimit="10" d="M420.447,329.157c0-19.657,15.936-35.593,35.593-35.593"/>
</g>
<g>
	<path fill="#1E1E1E" d="M655.185,313.553c-1.771-3.676-4.152-6.973-6.961-9.722c-1.52-1.494-3.166-2.822-4.897-3.981
		C648.366,303.306,652.471,308.026,655.185,313.553z"/>
	<path fill="#1E1E1E" d="M655.572,314.359c-0.044-0.097-0.093-0.19-0.137-0.286c0.086,0.184,0.167,0.369,0.25,0.555
		C655.646,314.539,655.612,314.447,655.572,314.359z"/>
	<path fill="#1E1E1E" d="M658.82,546.521c-0.001-3.697-0.003-7.394-0.004-11.09v22.236
		C658.817,553.953,658.819,550.238,658.82,546.521z"/>
	<path fill="#FFFFFF" stroke="#1E1E1E" stroke-miterlimit="10" d="M658.72,329.029c0,0.566,0.002,1.133,0.004,1.702
		c0.002,1.137,0.002,2.277,0.004,3.423c0.002,2.291,0.006,4.601,0.008,6.928c0.006,4.654,0.01,9.381,0.016,14.169
		c0.006,19.164,0.014,39.369,0.021,60.273c0.013,38.342,0.028,79.027,0.043,119.907V329.219c0-5.202-1.125-10.138-3.131-14.592
		c1.735,3.929,2.765,8.251,2.99,12.693C658.691,327.889,658.706,328.459,658.72,329.029z"/>
	<path fill="#FFFFFF" stroke="#1E1E1E" stroke-miterlimit="10" d="M658.816,571.249v-13.581c-0.002,4.53-0.003,9.059-0.005,13.581
		H658.816z"/>
	<path fill="#FFFFFF" stroke="#1E1E1E" stroke-miterlimit="10" d="M434.583,365.189h205.148v206.06h18.243
		c-0.003-8.23-0.006-16.479-0.009-24.728c0.016-44.595,0.031-89.189,0.047-130.997c0.006-20.903,0.014-41.109,0.021-60.271
		c0.006-4.79,0.01-9.517,0.016-14.171c0.002-2.327,0.004-4.636,0.008-6.928c0-1.146,0.002-2.285,0.002-3.422c0-0.567,0-1.134,0-1.7
		c-0.014-0.56-0.027-1.12-0.039-1.679c-0.217-4.463-1.256-8.805-3.021-12.736c-1.762-3.935-4.24-7.45-7.195-10.354
		c-2.949-2.914-6.387-5.195-10.012-6.802c-1.814-0.805-3.672-1.449-5.549-1.93c-1.883-0.47-3.779-0.779-5.658-0.951
		c-0.471-0.034-0.938-0.069-1.406-0.103c-0.471-0.011-0.941-0.023-1.414-0.036c-0.926-0.019-1.869-0.009-2.795-0.015
		c-1.855-0.004-3.686-0.008-5.49-0.011c-3.609-0.008-7.113-0.016-10.512-0.021c-13.588-0.046-25.434-0.086-35.188-0.118
		c-19.512-0.074-30.658-0.116-30.658-0.116s11.146-0.041,30.658-0.114c9.754-0.032,21.6-0.072,35.186-0.118
		c3.4-0.006,6.904-0.015,10.514-0.021c1.805-0.004,3.635-0.009,5.49-0.013c0.932,0.001,1.855-0.014,2.809,0.004
		c0.471,0.01,0.941,0.022,1.414,0.032c0.477,0.034,0.957,0.068,1.438,0.103c1.914,0.17,3.836,0.48,5.75,0.953
		c1.908,0.485,3.799,1.136,5.645,1.949c1.826,0.805,3.604,1.779,5.302,2.915c-5.721-3.924-12.644-6.224-20.104-6.224H455.865
		c-19.659,0-35.593,15.936-35.593,35.593v242.029h14.311V365.189z"/>
	<path fill="#FFFFFF" stroke="#1E1E1E" stroke-miterlimit="10" d="M655.185,313.553c0.084,0.173,0.169,0.345,0.25,0.52
		C655.353,313.899,655.27,313.725,655.185,313.553z"/>
	<path fill="#FFFFFF" stroke="#1E1E1E" stroke-miterlimit="10" d="M632.38,294.986c-1.914-0.473-3.836-0.783-5.75-0.953
		c-0.48-0.034-0.961-0.068-1.438-0.103c-0.473-0.01-0.943-0.022-1.414-0.032c-0.953-0.018-1.877-0.003-2.809-0.004
		c-1.855,0.004-3.686,0.009-5.49,0.013c-3.609,0.006-7.113,0.015-10.514,0.021c-13.586,0.046-25.432,0.086-35.186,0.118
		c-19.512,0.073-30.658,0.114-30.658,0.114s11.146,0.042,30.658,0.116c9.754,0.032,21.6,0.072,35.188,0.118
		c3.398,0.006,6.902,0.014,10.512,0.021c1.805,0.003,3.635,0.007,5.49,0.011c0.926,0.006,1.869-0.004,2.795,0.015
		c0.473,0.013,0.943,0.025,1.414,0.036c0.469,0.033,0.936,0.068,1.406,0.103c1.879,0.172,3.775,0.481,5.658,0.951
		c1.877,0.48,3.734,1.125,5.549,1.93c3.625,1.606,7.062,3.888,10.012,6.802c2.955,2.904,5.434,6.42,7.195,10.354
		c1.766,3.932,2.805,8.273,3.021,12.736c0.012,0.559,0.025,1.119,0.039,1.679c0,0.566,0,1.133,0,1.7
		c0,1.137-0.002,2.276-0.002,3.422c-0.004,2.292-0.006,4.601-0.008,6.928c-0.006,4.654-0.01,9.381-0.016,14.171
		c-0.008,19.162-0.016,39.368-0.021,60.271c-0.016,41.808-0.031,86.402-0.047,130.997c0.003,8.248,0.006,16.497,0.009,24.728h0.836
		c0.002-4.522,0.003-9.051,0.005-13.581v-22.236c-0.015-40.88-0.03-81.565-0.043-119.907c-0.008-20.904-0.016-41.109-0.021-60.273
		c-0.006-4.788-0.01-9.515-0.016-14.169c-0.002-2.327-0.006-4.637-0.008-6.928c-0.002-1.146-0.002-2.286-0.004-3.423
		c-0.002-0.569-0.004-1.136-0.004-1.702c-0.014-0.57-0.029-1.14-0.045-1.708c-0.226-4.442-1.255-8.765-2.99-12.693
		c-0.083-0.186-0.164-0.371-0.25-0.555c-0.081-0.175-0.166-0.347-0.25-0.52c-2.714-5.527-6.818-10.247-11.858-13.703
		c-1.697-1.136-3.476-2.11-5.302-2.915C636.179,296.122,634.288,295.471,632.38,294.986z"/>
	<path fill="#DCDCDC" d="M434.583,365.189v206.06h26.587v-79.487c0-5.99,4.9-10.892,10.891-10.892h131.005
		c5.99,0,10.893,4.9,10.893,10.892v79.487h25.773v-206.06H434.583z"/>
	<path fill="#FFFFFF" d="M499.75,532.949h3.238v38.3h9.23v-49.324h5.062v49.324h5.075v-54.922h2.85v54.922h7.254v-46.997h3.738
		v46.997h4.971V507.81h1.529v63.438h4.422v-39.156h1.531v39.156h8.34v-54.859h2.297v54.859h5.477v-49.324h5.062v49.324h44.131
		v-79.487c0-5.991-4.902-10.892-10.893-10.892H472.061c-5.99,0-10.891,4.901-10.891,10.892v79.487h38.58V532.949z"/>
	<rect x="499.75" y="532.949" fill="#314B9A" width="3.238" height="38.3"/>
	<rect x="512.219" y="521.925" fill="#314B9A" width="5.062" height="49.324"/>
	<rect x="564.765" y="521.925" fill="#314B9A" width="5.062" height="49.324"/>
	<rect x="522.357" y="516.327" fill="#314B9A" width="2.85" height="54.922"/>
	<rect x="532.46" y="524.252" fill="#314B9A" width="3.738" height="46.997"/>
	<rect x="541.169" y="507.81" fill="#314B9A" width="1.529" height="63.438"/>
	<rect x="547.12" y="532.093" fill="#314B9A" width="1.531" height="39.156"/>
	<rect x="556.991" y="516.389" fill="#314B9A" width="2.297" height="54.859"/>
</g>
<circle fill="#1E1E1E" stroke="#FFFFFF" stroke-miterlimit="10" cx="539.386" cy="324.193" r="3.788"/>
<path fill="#1E1E1E" stroke="#FFFFFF" stroke-miterlimit="10" d="M566.749,337.909h-53.897c-1.146,0-2.088-0.94-2.088-2.088l0,0
	c0-1.147,0.941-2.086,2.088-2.086h53.897c1.15,0,2.09,0.938,2.09,2.086l0,0C568.839,336.969,567.9,337.909,566.749,337.909z"/>
<text transform="matrix(1 0 0 1 476.8899 424.4382)"><tspan x="0" y="0" font-family="'Calibre-Regular'" font-size="18.3927">Hold barcode up</tspan><tspan x="9.987" y="18.049" font-family="'Calibre-Regular'" font-size="18.3927">to the camera</tspan></text>
</svg>
