<?xml version="1.0" encoding="utf-8"?>
<!-- Generator: Adobe Illustrator 19.1.0, SVG Export Plug-In . SVG Version: 6.00 Build 0)  -->
<svg version="1.1" preserveAspectRatio="xMinYMid" id="Layer_1" xmlns="http://www.w3.org/2000/svg" xmlns:xlink="http://www.w3.org/1999/xlink" x="0px" y="0px"
	 viewBox="0 0 628.1 365.4" style="enable-background:new 0 0 628.1 365.4;" xml:space="preserve">
<style type="text/css">
	.st0{fill:none;stroke:#1D1D1B;stroke-width:0.5;stroke-miterlimit:10;}
	.st1{fill:#FFFFFF;stroke:#1D1D1B;stroke-miterlimit:10;}
	.st2{fill:#ECECEC;}
	.st3{fill:none;}
	.st4{fill:#1D1D1B;}
	.st5{fill:none;stroke:#FFFFFF;stroke-miterlimit:10;}
	.st6{fill:#FFFFFF;stroke:#1D1D1B;stroke-width:2;stroke-miterlimit:10;}
	.st7{fill:#010101;}
	.st8{fill:#3A50A2;}
	.st9{fill:#FFFFFF;}
	.st10{fill:#000101;stroke:#000101;stroke-width:0.8322;stroke-miterlimit:10;}
</style>
<path class="st0" d="M232.7,29.2h-8c-1.4,0-2.9-1.1-3.3-2.4l-3.2-9.4c-0.4-1.3-1.9-2.4-3.3-2.4h-68.7c-1.4,0-3,1-3.6,2.3l-4.6,9.6
	c-0.6,1.2-2.2,2.3-3.6,2.3h-8.5H70.6V47h485.5V29.2H232.7z"/>
<rect x="70.6" y="14.3" class="st0" width="485.5" height="32.7"/>
<circle class="st1" cx="79.1" cy="22.2" r="3.4"/>
<circle class="st1" cx="91.6" cy="22.2" r="3.4"/>
<circle class="st1" cx="103.3" cy="22.2" r="3.4"/>
<path class="st2" d="M370.9,43.7H115.5c-2.5,0-4.6-2.1-4.6-4.6v-1.7c0-2.5,2.1-4.6,4.6-4.6h255.3c2.5,0,4.6,2.1,4.6,4.6v1.7
	C375.5,41.6,373.4,43.7,370.9,43.7z"/>
<g>
	<rect x="81.3" y="34.7" class="st3" width="48.9" height="9"/>
	<path class="st4" d="M87.2,41.4V42l-5-2.4v-0.5l5-2.2v0.6l-4.2,1.9L87.2,41.4z"/>
	<path class="st4" d="M102.1,39.7l-5,2.4v-0.6l4.2-2l-4.2-1.9v-0.6l5,2.2V39.7z"/>
</g>
<line class="st5" x1="392.7" y1="325.1" x2="420.5" y2="325.1"/>
<g>
	<path class="st6" d="M554.1,1H74c-8.4,0-15.2,6.8-15.2,15.2v319.3c0,8.4,6.8,15.2,15.2,15.2h480.1c8.4,0,15.2-6.8,15.2-15.2V16.2
		C569.3,7.8,562.5,1,554.1,1z M556.1,338.3H70.6V14h485.5V338.3z"/>
</g>
<path class="st6" d="M627.1,357.2L627.1,357.2c0,4-3.3,7.2-7.2,7.2H8.2c-4,0-7.2-3.3-7.2-7.2l0,0"/>
<g>
	<path class="st6" d="M627.1,357.8v-12.6H365.2v1.4c0,2.3-1.9,4.2-4.2,4.2h-94c-2.3,0-4.2-1.9-4.2-4.2v-1.4H1v12"/>
	<path class="st6" d="M267.1,350.8h94c2.3,0,4.2-1.9,4.2-4.2v-1.4H262.9v1.4C262.9,348.9,264.7,350.8,267.1,350.8z"/>
</g>
<g>
	<path class="st7" d="M121.1,40.8h-0.5l-1-3.1l-1,3.1H118l-1.2-3.9h0.6l0.9,3.2l1-3.2h0.5l1,3.2l0.9-3.2h0.6L121.1,40.8z"/>
	<path class="st7" d="M126.9,40.8h-0.5l-1-3.1l-1,3.1h-0.5l-1.2-3.9h0.6L124,40l1-3.2h0.5l1,3.2l0.9-3.2h0.6L126.9,40.8z"/>
	<path class="st7" d="M132.7,40.8h-0.5l-1-3.1l-1,3.1h-0.5l-1.2-3.9h0.6l0.9,3.2l1-3.2h0.5l1,3.2l0.9-3.2h0.6L132.7,40.8z"/>
	<path class="st7" d="M134.3,40.8V40h0.8v0.8H134.3z"/>
	<path class="st7" d="M138.7,40.8v-0.4c-0.3,0.3-0.6,0.4-1.1,0.4c-0.5,0-0.9-0.1-1.1-0.4c-0.2-0.2-0.3-0.5-0.3-0.8
		c0-0.7,0.5-1.1,1.4-1.1h1.2v-0.4c0-0.6-0.3-0.9-1-0.9c-0.5,0-0.8,0.1-1,0.4l-0.4-0.4c0.4-0.5,0.8-0.6,1.4-0.6
		c1.1,0,1.6,0.5,1.6,1.3v2.7H138.7z M138.7,38.9h-1.1c-0.6,0-0.9,0.2-0.9,0.7c0,0.5,0.3,0.7,0.9,0.7c0.3,0,0.6,0,0.9-0.3
		c0.1-0.1,0.2-0.4,0.2-0.7V38.9z"/>
	<path class="st7" d="M141.9,40.8c-0.7,0-1.2-0.2-1.6-0.6l0.4-0.4c0.3,0.3,0.7,0.5,1.2,0.5c0.6,0,1-0.2,1-0.7c0-0.3-0.2-0.5-0.7-0.6
		l-0.6-0.1c-0.8-0.1-1.2-0.4-1.2-1.1c0-0.7,0.6-1.2,1.4-1.2c0.6,0,1.1,0.1,1.4,0.4l-0.4,0.4c-0.3-0.2-0.6-0.3-1-0.3
		c-0.6,0-0.9,0.2-0.9,0.6c0,0.3,0.2,0.5,0.7,0.6l0.6,0.1c0.7,0.1,1.2,0.3,1.2,1.1C143.5,40.4,142.8,40.8,141.9,40.8z"/>
	<path class="st7" d="M144.6,35.7v-0.6h0.6v0.6H144.6z M144.6,40.8v-3.9h0.6v3.9H144.6z"/>
	<path class="st7" d="M147.7,40.8c-0.7,0-1-0.5-1-1.1v-2.4h-0.5v-0.4h0.5v-1.2h0.6v1.2h0.8v0.4h-0.8v2.4c0,0.4,0.2,0.6,0.5,0.6h0.3
		v0.5H147.7z"/>
	<path class="st7" d="M149.6,38.9c0,0.9,0.4,1.4,1.2,1.4c0.5,0,0.7-0.1,1-0.4l0.4,0.3c-0.4,0.4-0.8,0.6-1.4,0.6c-1,0-1.7-0.6-1.7-2
		c0-1.3,0.6-2,1.6-2c1,0,1.6,0.7,1.6,1.9v0.3H149.6z M151.6,37.9c-0.2-0.4-0.5-0.6-0.9-0.6c-0.4,0-0.8,0.2-0.9,0.6
		c-0.1,0.2-0.1,0.3-0.1,0.7h2.1C151.7,38.2,151.6,38.1,151.6,37.9z"/>
	<path class="st7" d="M153.5,40.8V40h0.8v0.8H153.5z"/>
	<path class="st7" d="M157.2,40.8c-1,0-1.7-0.7-1.7-2s0.8-2,1.7-2c0.5,0,0.9,0.1,1.3,0.6l-0.4,0.4c-0.3-0.3-0.5-0.4-0.9-0.4
		c-0.4,0-0.7,0.2-0.9,0.4c-0.2,0.3-0.3,0.6-0.3,1.1c0,0.5,0.1,0.8,0.3,1.1c0.2,0.3,0.5,0.4,0.9,0.4c0.4,0,0.6-0.1,0.9-0.4l0.4,0.4
		C158,40.7,157.7,40.8,157.2,40.8z"/>
	<path class="st7" d="M162,40.4c-0.3,0.3-0.6,0.4-1.1,0.4c-0.5,0-0.9-0.2-1.1-0.4c-0.4-0.4-0.5-1-0.5-1.6c0-0.6,0.1-1.2,0.5-1.6
		c0.3-0.3,0.6-0.4,1.1-0.4c0.5,0,0.9,0.2,1.1,0.4c0.4,0.4,0.5,1,0.5,1.6C162.4,39.4,162.4,40,162,40.4z M161.6,37.6
		c-0.2-0.2-0.4-0.3-0.7-0.3s-0.5,0.1-0.7,0.3c-0.3,0.3-0.3,0.8-0.3,1.2c0,0.4,0,0.9,0.3,1.2c0.2,0.2,0.4,0.3,0.7,0.3
		s0.5-0.1,0.7-0.3c0.3-0.3,0.3-0.8,0.3-1.2C161.9,38.4,161.8,37.9,161.6,37.6z"/>
	<path class="st7" d="M168.7,40.8v-2.4c0-0.7-0.4-1-1-1c-0.6,0-1,0.4-1,1v2.5h-0.6v-2.4c0-0.7-0.4-1-1-1s-1,0.4-1,1v2.4h-0.6v-3.9
		h0.6v0.4c0.3-0.3,0.7-0.5,1.1-0.5c0.5,0,1,0.2,1.2,0.7c0.3-0.4,0.7-0.7,1.3-0.7c0.4,0,0.8,0.1,1,0.4c0.3,0.3,0.4,0.6,0.4,1.1v2.5
		H168.7z"/>
</g>
<rect x="115.6" y="158.7" class="st2" width="178.9" height="137.3"/>
<rect x="321.5" y="158.7" class="st2" width="179" height="137.3"/>
<rect x="70.6" y="297.6" class="st8" width="487.4" height="40.7"/>
<g>
	<rect x="86.5" y="312" class="st3" width="505" height="24"/>
	<path class="st9" d="M95.9,322h-1.3l-2-7l-2,7h-1.3l-2.6-10h1.6l1.7,7.1l2-7.1h1.2l2,7.1l1.7-7.1h1.6L95.9,322z"/>
	<path class="st9" d="M100.3,318.8c0,1.2,0.6,2,1.8,2c0.8,0,1.2-0.2,1.7-0.7l0.9,0.9c-0.7,0.7-1.4,1.1-2.7,1.1
		c-1.8,0-3.2-0.9-3.2-3.6c0-2.3,1.2-3.6,3-3.6c1.9,0,3,1.4,3,3.4v0.6H100.3z M103.3,316.9c-0.2-0.5-0.7-0.9-1.4-0.9
		s-1.2,0.4-1.4,0.9c-0.1,0.3-0.2,0.5-0.2,1h3.2C103.5,317.4,103.4,317.2,103.3,316.9z"/>
	<path class="st9" d="M108.7,322c-1.4,0-1.9-0.9-1.9-2v-8h1.4v7.9c0,0.5,0.2,0.8,0.8,0.8h0.6v1.2H108.7z"/>
	<path class="st9" d="M113.6,322c-1.6,0-3.2-1-3.2-3.6c0-2.7,1.6-3.6,3.2-3.6c1,0,1.7,0.3,2.3,1l-1,1c-0.4-0.5-0.8-0.7-1.4-0.7
		c-0.5,0-1,0.2-1.3,0.6c-0.3,0.4-0.4,0.9-0.4,1.7c0,0.8,0.1,1.3,0.4,1.7c0.3,0.4,0.8,0.6,1.3,0.6c0.6,0,0.9-0.2,1.4-0.7l1,0.9
		C115.3,321.8,114.6,322,113.6,322z"/>
	<path class="st9" d="M122.1,321.2c-0.5,0.5-1.2,0.8-2.1,0.8c-1,0-1.7-0.4-2.1-0.8c-0.7-0.7-0.8-1.6-0.8-2.8c0-1.2,0.2-2.1,0.8-2.8
		c0.5-0.5,1.1-0.8,2.1-0.8c1,0,1.7,0.4,2.1,0.8c0.7,0.7,0.8,1.6,0.8,2.8C122.9,319.6,122.8,320.5,122.1,321.2z M121,316.5
		c-0.3-0.3-0.6-0.4-1.1-0.4c-0.4,0-0.8,0.1-1,0.4c-0.4,0.4-0.5,1.2-0.5,1.9c0,0.8,0.1,1.5,0.5,1.9c0.3,0.3,0.6,0.4,1,0.4
		c0.4,0,0.8-0.2,1.1-0.4c0.4-0.4,0.5-1.2,0.5-1.9C121.5,317.6,121.4,316.9,121,316.5z"/>
	<path class="st9" d="M133.5,322v-4.3c0-1.1-0.6-1.6-1.4-1.6c-0.8,0-1.5,0.5-1.5,1.5v4.4h-1.4v-4.3c0-1.1-0.6-1.6-1.4-1.6
		s-1.5,0.5-1.5,1.6v4.3h-1.4v-7.1h1.4v0.7c0.5-0.5,1.2-0.8,1.9-0.8c0.9,0,1.6,0.3,2,1c0.6-0.7,1.3-1,2.2-1c0.7,0,1.4,0.2,1.8,0.6
		c0.5,0.5,0.8,1.2,0.8,2v4.5H133.5z"/>
	<path class="st9" d="M138.2,318.8c0,1.2,0.6,2,1.8,2c0.8,0,1.2-0.2,1.7-0.7l0.9,0.9c-0.7,0.7-1.4,1.1-2.7,1.1
		c-1.8,0-3.2-0.9-3.2-3.6c0-2.3,1.2-3.6,3-3.6c1.9,0,3,1.4,3,3.4v0.6H138.2z M141.2,316.9c-0.2-0.5-0.7-0.9-1.4-0.9
		s-1.2,0.4-1.4,0.9c-0.1,0.3-0.2,0.5-0.2,1h3.2C141.4,317.4,141.3,317.2,141.2,316.9z"/>
	<path class="st9" d="M144.6,322v-1.7h1.7v1.7H144.6z"/>
	<path class="st9" d="M155.5,313.3v8.6H154v-8.6h-2.7V312h7v1.4H155.5z"/>
	<path class="st9" d="M164.1,322v-4.4c0-1.1-0.6-1.6-1.4-1.6c-0.8,0-1.4,0.5-1.4,1.6v4.4h-1.4v-10h1.4v3.6c0.5-0.5,1.1-0.8,1.8-0.8
		c1.6,0,2.5,1.1,2.5,2.6v4.6H164.1z"/>
	<path class="st9" d="M167.7,313.5v-1.5h1.5v1.5H167.7z M167.7,322v-7.1h1.4v7.1H167.7z"/>
	<path class="st9" d="M173.7,322c-1.2,0-2.1-0.2-3-1l0.9-0.9c0.6,0.6,1.3,0.7,2,0.7c0.9,0,1.6-0.3,1.6-1c0-0.5-0.3-0.8-1-0.8
		l-1.1-0.1c-1.3-0.1-2.1-0.7-2.1-2c0-1.4,1.2-2.2,2.7-2.2c1.1,0,2,0.2,2.6,0.8l-0.9,0.9c-0.4-0.4-1.1-0.5-1.8-0.5
		c-0.9,0-1.3,0.4-1.3,0.9c0,0.4,0.2,0.7,1,0.8l1.1,0.1c1.3,0.1,2.1,0.7,2.1,2C176.6,321.3,175.4,322,173.7,322z"/>
	<path class="st9" d="M184,322c-1.2,0-2.1-0.2-3-1l0.9-0.9c0.6,0.6,1.3,0.7,2,0.7c0.9,0,1.6-0.3,1.6-1c0-0.5-0.3-0.8-1-0.8l-1.1-0.1
		c-1.3-0.1-2.1-0.7-2.1-2c0-1.4,1.2-2.2,2.7-2.2c1.1,0,2,0.2,2.6,0.8l-0.9,0.9c-0.4-0.4-1.1-0.5-1.8-0.5c-0.9,0-1.3,0.4-1.3,0.9
		c0,0.4,0.2,0.7,1,0.8l1.1,0.1c1.3,0.1,2.1,0.7,2.1,2C187,321.3,185.7,322,184,322z"/>
	<path class="st9" d="M188.7,313.5v-1.5h1.5v1.5H188.7z M188.7,322v-7.1h1.4v7.1H188.7z"/>
	<path class="st9" d="M194.5,322c-1.3,0-1.9-1-1.9-2v-3.9h-0.8V315h0.8v-2.2h1.4v2.2h1.4v1.1H194v3.8c0,0.5,0.3,0.8,0.8,0.8h0.6v1.2
		H194.5z"/>
	<path class="st9" d="M198.2,318.8c0,1.2,0.6,2,1.8,2c0.8,0,1.2-0.2,1.7-0.7l0.9,0.9c-0.7,0.7-1.4,1.1-2.7,1.1
		c-1.8,0-3.2-0.9-3.2-3.6c0-2.3,1.2-3.6,3-3.6c1.9,0,3,1.4,3,3.4v0.6H198.2z M201.2,316.9c-0.2-0.5-0.7-0.9-1.4-0.9
		s-1.2,0.4-1.4,0.9c-0.1,0.3-0.2,0.5-0.2,1h3.2C201.4,317.4,201.4,317.2,201.2,316.9z"/>
	<path class="st9" d="M212.4,322v-0.7c-0.5,0.5-1.2,0.8-1.9,0.8c-0.7,0-1.3-0.2-1.8-0.6c-0.5-0.5-0.7-1.2-0.7-2v-4.5h1.4v4.3
		c0,1.1,0.6,1.6,1.4,1.6c0.8,0,1.5-0.5,1.5-1.6v-4.3h1.4v7.1H212.4z"/>
	<path class="st9" d="M218.3,322c-1.2,0-2.1-0.2-3-1l0.9-0.9c0.6,0.6,1.3,0.7,2,0.7c0.9,0,1.6-0.3,1.6-1c0-0.5-0.3-0.8-1-0.8
		l-1.1-0.1c-1.3-0.1-2.1-0.7-2.1-2c0-1.4,1.2-2.2,2.7-2.2c1.1,0,2,0.2,2.6,0.8l-0.9,0.9c-0.4-0.4-1.1-0.5-1.8-0.5
		c-0.9,0-1.3,0.4-1.3,0.9c0,0.4,0.2,0.7,1,0.8l1.1,0.1c1.3,0.1,2.1,0.7,2.1,2C221.3,321.3,220,322,218.3,322z"/>
	<path class="st9" d="M224.1,318.8c0,1.2,0.6,2,1.8,2c0.8,0,1.2-0.2,1.7-0.7l0.9,0.9c-0.7,0.7-1.4,1.1-2.7,1.1
		c-1.8,0-3.2-0.9-3.2-3.6c0-2.3,1.2-3.6,3-3.6c1.9,0,3,1.4,3,3.4v0.6H224.1z M227.1,316.9c-0.2-0.5-0.7-0.9-1.4-0.9
		s-1.2,0.4-1.4,0.9c-0.1,0.3-0.2,0.5-0.2,1h3.2C227.2,317.4,227.2,317.2,227.1,316.9z"/>
	<path class="st9" d="M232.9,322c-1.2,0-2.1-0.2-3-1l0.9-0.9c0.6,0.6,1.3,0.7,2,0.7c0.9,0,1.6-0.3,1.6-1c0-0.5-0.3-0.8-1-0.8
		l-1.1-0.1c-1.3-0.1-2.1-0.7-2.1-2c0-1.4,1.2-2.2,2.7-2.2c1.1,0,2,0.2,2.6,0.8l-0.9,0.9c-0.4-0.4-1.1-0.5-1.8-0.5
		c-0.9,0-1.3,0.4-1.3,0.9c0,0.4,0.2,0.7,1,0.8l1.1,0.1c1.3,0.1,2.1,0.7,2.1,2C235.8,321.3,234.6,322,232.9,322z"/>
	<path class="st9" d="M243.7,322c-1.6,0-3.2-1-3.2-3.6c0-2.7,1.6-3.6,3.2-3.6c1,0,1.7,0.3,2.3,1l-1,1c-0.4-0.5-0.8-0.7-1.4-0.7
		c-0.5,0-1,0.2-1.3,0.6c-0.3,0.4-0.4,0.9-0.4,1.7c0,0.8,0.1,1.3,0.4,1.7c0.3,0.4,0.8,0.6,1.3,0.6c0.6,0,0.9-0.2,1.4-0.7l1,0.9
		C245.4,321.8,244.7,322,243.7,322z"/>
	<path class="st9" d="M252.2,321.2c-0.5,0.5-1.2,0.8-2.1,0.8c-1,0-1.7-0.4-2.1-0.8c-0.7-0.7-0.8-1.6-0.8-2.8c0-1.2,0.2-2.1,0.8-2.8
		c0.5-0.5,1.1-0.8,2.1-0.8c1,0,1.7,0.4,2.1,0.8c0.7,0.7,0.8,1.6,0.8,2.8C253,319.6,252.9,320.5,252.2,321.2z M251.1,316.5
		c-0.3-0.3-0.6-0.4-1.1-0.4c-0.4,0-0.8,0.1-1,0.4c-0.4,0.4-0.5,1.2-0.5,1.9c0,0.8,0.1,1.5,0.5,1.9c0.3,0.3,0.6,0.4,1,0.4
		c0.4,0,0.8-0.2,1.1-0.4c0.4-0.4,0.5-1.2,0.5-1.9C251.6,317.6,251.5,316.9,251.1,316.5z"/>
	<path class="st9" d="M259.7,321.2c-0.5,0.5-1.2,0.8-2.1,0.8c-1,0-1.7-0.4-2.1-0.8c-0.7-0.7-0.8-1.6-0.8-2.8c0-1.2,0.2-2.1,0.8-2.8
		c0.5-0.5,1.1-0.8,2.1-0.8c1,0,1.7,0.4,2.1,0.8c0.7,0.7,0.8,1.6,0.8,2.8C260.5,319.6,260.4,320.5,259.7,321.2z M258.6,316.5
		c-0.3-0.3-0.6-0.4-1.1-0.4c-0.4,0-0.8,0.1-1,0.4c-0.4,0.4-0.5,1.2-0.5,1.9c0,0.8,0.1,1.5,0.5,1.9c0.3,0.3,0.6,0.4,1,0.4
		c0.4,0,0.8-0.2,1.1-0.4c0.4-0.4,0.5-1.2,0.5-1.9C259.1,317.6,259.1,316.9,258.6,316.5z"/>
	<path class="st9" d="M266.9,322l-2-3.3l-1.1,1.2v2.1h-1.4v-10h1.4v6.1l2.8-3.3h1.7l-2.5,2.8l2.8,4.3H266.9z"/>
	<path class="st9" d="M270.1,313.5v-1.5h1.5v1.5H270.1z M270.1,322v-7.1h1.4v7.1H270.1z"/>
	<path class="st9" d="M274.9,318.8c0,1.2,0.6,2,1.8,2c0.8,0,1.2-0.2,1.7-0.7l0.9,0.9c-0.7,0.7-1.4,1.1-2.7,1.1
		c-1.8,0-3.2-0.9-3.2-3.6c0-2.3,1.2-3.6,3-3.6c1.9,0,3,1.4,3,3.4v0.6H274.9z M277.9,316.9c-0.2-0.5-0.7-0.9-1.4-0.9
		s-1.2,0.4-1.4,0.9c-0.1,0.3-0.2,0.5-0.2,1h3.2C278.1,317.4,278,317.2,277.9,316.9z"/>
	<path class="st9" d="M283.7,322c-1.2,0-2.1-0.2-3-1l0.9-0.9c0.6,0.6,1.3,0.7,2,0.7c0.9,0,1.6-0.3,1.6-1c0-0.5-0.3-0.8-1-0.8
		l-1.1-0.1c-1.3-0.1-2.1-0.7-2.1-2c0-1.4,1.2-2.2,2.7-2.2c1.1,0,2,0.2,2.6,0.8l-0.9,0.9c-0.4-0.4-1.1-0.5-1.8-0.5
		c-0.9,0-1.3,0.4-1.3,0.9c0,0.4,0.2,0.7,1,0.8l1.1,0.1c1.3,0.1,2.1,0.7,2.1,2C286.6,321.3,285.4,322,283.7,322z"/>
	<path class="st9" d="M288.3,324.1v-3.8h1.6v2.5L288.3,324.1z"/>
	<path class="st9" d="M299.5,316.5c-0.3-0.3-0.6-0.5-1.1-0.5c-0.8,0-1.4,0.6-1.4,1.6v4.3h-1.4v-7.1h1.4v0.8c0.4-0.5,1.1-0.9,1.9-0.9
		c0.7,0,1.2,0.2,1.7,0.7L299.5,316.5z"/>
	<path class="st9" d="M302.3,318.8c0,1.2,0.6,2,1.8,2c0.8,0,1.2-0.2,1.7-0.7l0.9,0.9c-0.7,0.7-1.4,1.1-2.7,1.1
		c-1.8,0-3.2-0.9-3.2-3.6c0-2.3,1.2-3.6,3-3.6c1.9,0,3,1.4,3,3.4v0.6H302.3z M305.3,316.9c-0.2-0.5-0.7-0.9-1.4-0.9
		s-1.2,0.4-1.4,0.9c-0.1,0.3-0.2,0.5-0.2,1h3.2C305.5,317.4,305.4,317.2,305.3,316.9z"/>
	<path class="st9" d="M312.6,322v-0.6c-0.5,0.5-1,0.7-1.9,0.7c-0.9,0-1.5-0.2-1.9-0.6c-0.4-0.4-0.6-0.9-0.6-1.5c0-1.2,0.8-2,2.5-2
		h1.9v-0.5c0-0.9-0.4-1.3-1.6-1.3c-0.8,0-1.2,0.2-1.6,0.7l-0.9-0.9c0.7-0.8,1.4-1,2.5-1c1.9,0,2.9,0.8,2.9,2.4v4.7H312.6z
		 M312.6,318.8h-1.7c-0.8,0-1.3,0.4-1.3,1s0.4,1,1.3,1c0.5,0,1,0,1.3-0.4c0.2-0.2,0.3-0.5,0.3-1.1V318.8z"/>
	<path class="st9" d="M320.3,322v-0.8c-0.5,0.6-1.1,0.8-1.9,0.8c-0.7,0-1.3-0.2-1.7-0.6c-0.7-0.7-0.8-1.9-0.8-3c0-1.1,0.1-2.3,0.8-3
		c0.4-0.4,1-0.6,1.7-0.6c0.8,0,1.3,0.2,1.9,0.8V312h1.4v10H320.3z M318.8,316.1c-1.3,0-1.5,1.1-1.5,2.4c0,1.3,0.2,2.4,1.5,2.4
		c1.3,0,1.5-1.1,1.5-2.4C320.3,317.1,320.1,316.1,318.8,316.1z"/>
	<path class="st9" d="M332.1,321.2c-0.5,0.5-1.2,0.8-2.1,0.8c-1,0-1.7-0.4-2.1-0.8c-0.7-0.7-0.8-1.6-0.8-2.8c0-1.2,0.2-2.1,0.8-2.8
		c0.5-0.5,1.1-0.8,2.1-0.8c1,0,1.7,0.4,2.1,0.8c0.7,0.7,0.8,1.6,0.8,2.8C332.9,319.6,332.7,320.5,332.1,321.2z M331,316.5
		c-0.3-0.3-0.6-0.4-1.1-0.4c-0.4,0-0.8,0.1-1,0.4c-0.4,0.4-0.5,1.2-0.5,1.9c0,0.8,0.1,1.5,0.5,1.9c0.3,0.3,0.6,0.4,1,0.4
		c0.4,0,0.8-0.2,1.1-0.4c0.4-0.4,0.5-1.2,0.5-1.9C331.5,317.6,331.4,316.9,331,316.5z"/>
	<path class="st9" d="M339.1,322v-0.7c-0.5,0.5-1.2,0.8-1.9,0.8c-0.7,0-1.3-0.2-1.8-0.6c-0.5-0.5-0.7-1.2-0.7-2v-4.5h1.4v4.3
		c0,1.1,0.6,1.6,1.4,1.6c0.8,0,1.5-0.5,1.5-1.6v-4.3h1.4v7.1H339.1z"/>
	<path class="st9" d="M346.7,316.5c-0.3-0.3-0.6-0.5-1.1-0.5c-0.8,0-1.4,0.6-1.4,1.6v4.3h-1.4v-7.1h1.4v0.8c0.4-0.5,1.1-0.9,1.9-0.9
		c0.7,0,1.2,0.2,1.7,0.7L346.7,316.5z"/>
	<path class="st9" d="M357.3,321.4c-0.4,0.4-1,0.6-1.7,0.6c-0.8,0-1.3-0.2-1.9-0.8v3.6h-1.4v-10h1.4v0.8c0.5-0.6,1.1-0.8,1.9-0.8
		c0.7,0,1.3,0.2,1.7,0.6c0.7,0.7,0.8,1.9,0.8,3C358.1,319.5,358,320.7,357.3,321.4z M355.2,316.1c-1.3,0-1.5,1.1-1.5,2.4
		c0,1.3,0.2,2.4,1.5,2.4c1.3,0,1.5-1.1,1.5-2.4C356.7,317.1,356.5,316.1,355.2,316.1z"/>
	<path class="st9" d="M364.8,321.2c-0.5,0.5-1.2,0.8-2.1,0.8c-1,0-1.7-0.4-2.1-0.8c-0.7-0.7-0.8-1.6-0.8-2.8c0-1.2,0.2-2.1,0.8-2.8
		c0.5-0.5,1.1-0.8,2.1-0.8c1,0,1.7,0.4,2.1,0.8c0.7,0.7,0.8,1.6,0.8,2.8C365.6,319.6,365.5,320.5,364.8,321.2z M363.7,316.5
		c-0.3-0.3-0.6-0.4-1.1-0.4c-0.4,0-0.8,0.1-1,0.4c-0.4,0.4-0.5,1.2-0.5,1.9c0,0.8,0.1,1.5,0.5,1.9c0.3,0.3,0.6,0.4,1,0.4
		c0.4,0,0.8-0.2,1.1-0.4c0.4-0.4,0.5-1.2,0.5-1.9C364.2,317.6,364.1,316.9,363.7,316.5z"/>
	<path class="st9" d="M369.5,322c-1.4,0-1.9-0.9-1.9-2v-8h1.4v7.9c0,0.5,0.2,0.8,0.8,0.8h0.6v1.2H369.5z"/>
	<path class="st9" d="M371.9,313.5v-1.5h1.5v1.5H371.9z M371.9,322v-7.1h1.4v7.1H371.9z"/>
	<path class="st9" d="M378.4,322c-1.6,0-3.2-1-3.2-3.6c0-2.7,1.6-3.6,3.2-3.6c1,0,1.7,0.3,2.3,1l-1,1c-0.4-0.5-0.8-0.7-1.4-0.7
		c-0.5,0-1,0.2-1.3,0.6c-0.3,0.4-0.4,0.9-0.4,1.7c0,0.8,0.1,1.3,0.4,1.7c0.3,0.4,0.8,0.6,1.3,0.6c0.6,0,0.9-0.2,1.4-0.7l1,0.9
		C380.1,321.8,379.4,322,378.4,322z"/>
	<path class="st9" d="M384.6,323.4c-0.1,0.4-0.3,0.7-0.5,0.9c-0.4,0.4-0.9,0.5-1.5,0.5h-0.6v-1.3h0.4c0.6,0,0.8-0.2,1-0.8l0.4-1.1
		l-2.5-6.8h1.5l1.7,5l1.7-5h1.5L384.6,323.4z"/>
	<path class="st9" d="M396.6,322v-4.4c0-1.1-0.6-1.6-1.4-1.6c-0.8,0-1.4,0.5-1.4,1.6v4.4h-1.4v-10h1.4v3.6c0.5-0.5,1.1-0.8,1.8-0.8
		c1.6,0,2.5,1.1,2.5,2.6v4.6H396.6z"/>
	<path class="st9" d="M401.3,318.8c0,1.2,0.6,2,1.8,2c0.8,0,1.2-0.2,1.7-0.7l0.9,0.9c-0.7,0.7-1.4,1.1-2.7,1.1
		c-1.8,0-3.2-0.9-3.2-3.6c0-2.3,1.2-3.6,3-3.6c1.9,0,3,1.4,3,3.4v0.6H401.3z M404.3,316.9c-0.2-0.5-0.7-0.9-1.4-0.9
		s-1.2,0.4-1.4,0.9c-0.1,0.3-0.2,0.5-0.2,1h3.2C404.5,317.4,404.4,317.2,404.3,316.9z"/>
	<path class="st9" d="M411.7,316.5c-0.3-0.3-0.6-0.5-1.1-0.5c-0.8,0-1.4,0.6-1.4,1.6v4.3h-1.4v-7.1h1.4v0.8c0.4-0.5,1.1-0.9,1.9-0.9
		c0.7,0,1.2,0.2,1.7,0.7L411.7,316.5z"/>
	<path class="st9" d="M414.5,318.8c0,1.2,0.6,2,1.8,2c0.8,0,1.2-0.2,1.7-0.7l0.9,0.9c-0.7,0.7-1.4,1.1-2.7,1.1
		c-1.8,0-3.2-0.9-3.2-3.6c0-2.3,1.2-3.6,3-3.6c1.9,0,3,1.4,3,3.4v0.6H414.5z M417.5,316.9c-0.2-0.5-0.7-0.9-1.4-0.9
		s-1.2,0.4-1.4,0.9c-0.1,0.3-0.2,0.5-0.2,1h3.2C417.7,317.4,417.7,317.2,417.5,316.9z"/>
</g>
<rect x="117.1" y="72.8" class="st2" width="66" height="66"/>
<g>
	<polygon class="st10" points="504,304.8 509.2,311.5 513.8,307.9 508.6,301.2 514.3,298.7 489.2,281.7 500.1,309.8 	"/>
</g>
<rect x="221.6" y="72.8" class="st2" width="279.5" height="66"/>
<g>
</g>
<g>
</g>
<g>
</g>
<g>
</g>
<g>
</g>
<g>
</g>
</svg>
