<svg id="OUTLINES" xmlns="http://www.w3.org/2000/svg" viewBox="0 0 1152 1008"><defs><style>.cls-1{fill:#fff;}.cls-2{fill:#000f7d;}</style></defs><title>indicating-that-something-is-not-secure</title><path class="cls-1" d="M633.76,291.29H167.84A20.87,20.87,0,0,0,147,312.14V423.29a24,24,0,0,0,24,24H633.76a24,24,0,0,0,24-24v-108A24,24,0,0,0,633.76,291.29Z"/><path class="cls-2" d="M326.48,337.78V382.6h-7.37l-21.17-29.86V382.6h-9V337.78h8.76L317.5,366.1V337.78Z"/><path class="cls-2" d="M364.66,366.32c0,5-1.49,9.1-4.45,12.27a16.41,16.41,0,0,1-23.07,0c-3-3.17-4.45-7.25-4.45-12.27s1.48-9.17,4.45-12.33a16.38,16.38,0,0,1,23.07,0Q364.65,358.73,364.66,366.32Zm-9,0a11.45,11.45,0,0,0-1.86-6.82,6.41,6.41,0,0,0-10.29,0,13.26,13.26,0,0,0,0,13.58,6.41,6.41,0,0,0,10.29,0A11.34,11.34,0,0,0,355.68,366.32Z"/><path class="cls-2" d="M372.4,372.75V357.27h-5V350h5v-8.83h9V350h7.15v7.3h-7.15v14.31q0,3.72,3.72,3.72a7,7,0,0,0,3.94-1.09v8a12.8,12.8,0,0,1-5.84,1q-5.11,0-8-2.63T372.4,372.75Z"/><path class="cls-2" d="M409,372.89h9q1.1,3.58,5.47,3.58,4.6,0,4.6-3.21a2.08,2.08,0,0,0-.77-1.72,6.89,6.89,0,0,0-2.51-1.06L418.17,369q-8.48-2-8.47-9.19a9.3,9.3,0,0,1,3.72-7.63,14.44,14.44,0,0,1,9.27-3q6.06,0,9.53,2.67a11.58,11.58,0,0,1,4.34,7.4H428c-.68-2.14-2.39-3.21-5.11-3.21a5.53,5.53,0,0,0-3,.81,2.53,2.53,0,0,0-1.28,2.26c0,1.22,1,2.07,2.92,2.55l6.72,1.54q8.68,2.12,8.68,9.49a9.16,9.16,0,0,1-3.76,7.73,15.41,15.41,0,0,1-9.59,2.85,16.77,16.77,0,0,1-9.93-2.74A10.93,10.93,0,0,1,409,372.89Z"/><path class="cls-2" d="M462.84,371.94h8.4a13,13,0,0,1-4.64,8.36,15.17,15.17,0,0,1-9.82,3,14.92,14.92,0,0,1-11.46-4.71c-2.92-3.14-4.38-7.23-4.38-12.3a17.43,17.43,0,0,1,4.42-12.22,14.55,14.55,0,0,1,11.28-4.86q7,0,10.91,4.42t3.91,11.79v2.77H449.7a9,9,0,0,0,2.12,5.73,6.38,6.38,0,0,0,5,2.08Q461.75,376,462.84,371.94Zm-6.13-15.33q-5.55,0-6.79,6.14h12.63a6.64,6.64,0,0,0-1.61-4.42A5.39,5.39,0,0,0,456.71,356.61Z"/><path class="cls-2" d="M475.47,366.32q0-7.59,4.38-12.33a16.14,16.14,0,0,1,21.1-1.54,13.07,13.07,0,0,1,4.52,8.54h-8.9a4.63,4.63,0,0,0-1.79-2.95,5.86,5.86,0,0,0-3.61-1.06,5.7,5.7,0,0,0-4.89,2.55,11.44,11.44,0,0,0-1.83,6.79,11.28,11.28,0,0,0,1.83,6.72,5.7,5.7,0,0,0,4.89,2.55,5.92,5.92,0,0,0,3.61-1,4.65,4.65,0,0,0,1.79-3h8.9a13.1,13.1,0,0,1-4.49,8.54,14.56,14.56,0,0,1-9.81,3.21,14.71,14.71,0,0,1-11.32-4.74C476.93,375.42,475.47,371.34,475.47,366.32Z"/><path class="cls-2" d="M539.93,350V382.6h-9v-3a11.25,11.25,0,0,1-8.76,3.72q-5.4,0-8.43-3.28a12.41,12.41,0,0,1-3-8.76V350h9.05v19.49A6.36,6.36,0,0,0,521,373.7a4.92,4.92,0,0,0,3.94,1.53,6,6,0,0,0,3.73-1.21,5.64,5.64,0,0,0,2.11-3.32V350Z"/><path class="cls-2" d="M567.52,349.82v9.06a8.62,8.62,0,0,0-4.52-1.1,6.67,6.67,0,0,0-4,1.21,5.55,5.55,0,0,0-2.19,3.39V382.6h-9V350h9v3.21a7.9,7.9,0,0,1,7.3-3.94A7.46,7.46,0,0,1,567.52,349.82Z"/><path class="cls-2" d="M592.42,371.94h8.39a13,13,0,0,1-4.63,8.36,15.17,15.17,0,0,1-9.82,3,14.92,14.92,0,0,1-11.46-4.71c-2.92-3.14-4.38-7.23-4.38-12.3a17.47,17.47,0,0,1,4.41-12.22,14.58,14.58,0,0,1,11.28-4.86q7,0,10.92,4.42t3.9,11.79v2.77H579.28a9,9,0,0,0,2.11,5.73,6.4,6.4,0,0,0,5,2.08Q591.32,376,592.42,371.94Zm-6.13-15.33q-5.55,0-6.79,6.14h12.62a6.63,6.63,0,0,0-1.6-4.42A5.41,5.41,0,0,0,586.29,356.61Z"/><path class="cls-2" d="M306,648.86H603a23,23,0,0,0,23-23V486.36a23,23,0,0,0-23-23H306a23,23,0,0,0-23,23v139.5A23,23,0,0,0,306,648.86Zm-13-162.5a13,13,0,0,1,13-13H603a13,13,0,0,1,13,13v139.5a13,13,0,0,1-13,13H306a13,13,0,0,1-13-13Z"/><path class="cls-2" d="M666,648.86H846a23,23,0,0,0,23-23V486.36a23,23,0,0,0-23-23H666a23,23,0,0,0-23,23v139.5A23,23,0,0,0,666,648.86Zm-13-162.5a13,13,0,0,1,13-13H846a13,13,0,0,1,13,13v139.5a13,13,0,0,1-13,13H666a13,13,0,0,1-13-13Z"/><path class="cls-2" d="M941,437.36h49a23,23,0,0,0,23-23v-108a23,23,0,0,0-23-23H941V269.64a23,23,0,0,0-23-23H234a23,23,0,0,0-23,23v12.72H162a24,24,0,0,0-24,24v108a24,24,0,0,0,24,24h49v259.5a22.83,22.83,0,0,0,4,13H162a23,23,0,0,0-23,23v4.5a23,23,0,0,0,23,23H990a23,23,0,0,0,23-23v-4.5a23,23,0,0,0-23-23H937a22.83,22.83,0,0,0,4-13ZM221,269.64a13,13,0,0,1,13-13H918a13,13,0,0,1,13,13v13.72H631.52a23.77,23.77,0,0,0-6.84-1H221ZM636.68,414.36a12,12,0,0,1-12,12H162a12,12,0,0,1-12-12v-108a12,12,0,0,1,12-12H624.68a12,12,0,0,1,12,12Zm-12,24a23.77,23.77,0,0,0,6.84-1H931v260.5a13,13,0,0,1-13,13H234a13,13,0,0,1-13-13V438.36ZM990,720.86a13,13,0,0,1,13,13v4.5a13,13,0,0,1-13,13H162a13,13,0,0,1-13-13v-4.5a13,13,0,0,1,13-13H990ZM644.84,427.36a23.9,23.9,0,0,0,3.84-13v-108a23.9,23.9,0,0,0-3.84-13H990a13,13,0,0,1,13,13v44.58a12.66,12.66,0,0,0-2.36-.2A9.61,9.61,0,0,0,993,354v-2.63H985V380H993V361.87a4.89,4.89,0,0,1,1.89-2.91,5.46,5.46,0,0,1,3.3-1.06,4.36,4.36,0,0,1,3.49,1.38,5.49,5.49,0,0,1,1.18,3.68v17h.18v34.38a13,13,0,0,1-13,13H644.84Z"/><path class="cls-2" d="M700.42,350.74a9.61,9.61,0,0,0-7.68,3.26V338.38h-7.93V380h7.93V361.87a4.89,4.89,0,0,1,1.89-2.91,5.46,5.46,0,0,1,3.3-1.06,4.37,4.37,0,0,1,3.49,1.38A5.49,5.49,0,0,1,702.6,363v17h7.93V361.29a10.87,10.87,0,0,0-2.65-7.67A9.64,9.64,0,0,0,700.42,350.74Z"/><path class="cls-2" d="M726.73,370.32V357.78H733v-6.41h-6.27v-7.74h-7.88v7.74H714.5v6.41h4.35v13.56c0,3.08.84,5.38,2.5,6.92a9.92,9.92,0,0,0,7,2.3,11.19,11.19,0,0,0,5.12-.9v-7a6.22,6.22,0,0,1-3.46,1C727.81,373.58,726.73,372.5,726.73,370.32Z"/><path class="cls-2" d="M748.8,370.32V357.78h6.28v-6.41H748.8v-7.74h-7.87v7.74h-4.35v6.41h4.35v13.56c0,3.08.83,5.38,2.5,6.92a9.92,9.92,0,0,0,7,2.3,11.19,11.19,0,0,0,5.12-.9v-7a6.22,6.22,0,0,1-3.46,1C749.89,373.58,748.8,372.5,748.8,370.32Z"/><path class="cls-2" d="M776.39,350.74a9.94,9.94,0,0,0-4.16.89,8.4,8.4,0,0,0-3,2.11v-2.37h-7.94v39.17h7.94V377.62a8.4,8.4,0,0,0,3,2.11,10.1,10.1,0,0,0,4.16.89,11.67,11.67,0,0,0,9.53-4.29,17.83,17.83,0,0,0,0-21.27A11.63,11.63,0,0,0,776.39,350.74Zm3.2,20.73a6.13,6.13,0,0,1-5,2.24,5.85,5.85,0,0,1-3.2-.93,5.59,5.59,0,0,1-2.18-2.4V361a6.14,6.14,0,0,1,2.21-2.4,5.71,5.71,0,0,1,3.17-.93,6.12,6.12,0,0,1,5,2.27,8.84,8.84,0,0,1,1.85,5.79A8.7,8.7,0,0,1,779.59,371.47Z"/><path class="cls-2" d="M797.76,352a4.83,4.83,0,0,0-3.55,1.44,4.89,4.89,0,0,0-1.44,3.61,5,5,0,0,0,1.44,3.65,5,5,0,0,0,7.11,0,5,5,0,0,0,1.44-3.65,4.89,4.89,0,0,0-1.44-3.61A4.84,4.84,0,0,0,797.76,352Z"/><path class="cls-2" d="M797.76,370.26a4.83,4.83,0,0,0-3.55,1.44,4.89,4.89,0,0,0-1.44,3.61,5,5,0,0,0,1.44,3.65,5,5,0,0,0,7.11,0,5,5,0,0,0,1.44-3.65,4.89,4.89,0,0,0-1.44-3.61A4.84,4.84,0,0,0,797.76,370.26Z"/><polygon class="cls-2" points="820.36 338.38 804.48 385.36 811.84 385.36 827.72 338.38 820.36 338.38"/><polygon class="cls-2" points="835.4 338.38 819.52 385.36 826.88 385.36 842.76 338.38 835.4 338.38"/><polygon class="cls-2" points="870.98 369.62 866.24 351.38 860.16 351.38 855.49 369.62 850.37 351.38 842.44 351.38 851.14 379.98 858.44 379.98 863.11 362.45 867.78 379.98 875.08 379.98 883.78 351.38 876.1 351.38 870.98 369.62"/><polygon class="cls-2" points="913.99 369.62 909.25 351.38 903.17 351.38 898.5 369.62 893.38 351.38 885.44 351.38 894.15 379.98 901.44 379.98 906.12 362.45 910.79 379.98 918.08 379.98 926.79 351.38 919.11 351.38 913.99 369.62"/><polygon class="cls-2" points="949.12 362.45 953.79 379.98 961.09 379.98 969.79 351.38 962.12 351.38 957 369.62 952.26 351.38 946.18 351.38 941.51 369.62 936.39 351.38 928.45 351.38 937.15 379.98 944.45 379.98 949.12 362.45"/><path class="cls-2" d="M974.85,380.43A4.77,4.77,0,0,0,978.4,379a5,5,0,0,0,1.44-3.65,4.89,4.89,0,0,0-1.44-3.61,5.1,5.1,0,0,0-7.1,0,4.89,4.89,0,0,0-1.44,3.61A5,5,0,0,0,971.3,379,4.77,4.77,0,0,0,974.85,380.43Z"/><path class="cls-2" d="M216,370.43a5,5,0,0,1-5-5V353a5,5,0,0,1,10,0v12.44A5,5,0,0,1,216,370.43Z"/><path class="cls-2" d="M216,385.87a5.89,5.89,0,0,1-1.18-.11,6.29,6.29,0,0,1-1.12-.34,6.15,6.15,0,0,1-1-.56,5.78,5.78,0,0,1-.91-.74,6.53,6.53,0,0,1-.74-.91,6.09,6.09,0,0,1-.55-1,6.32,6.32,0,0,1-.35-1.12,6.62,6.62,0,0,1-.11-1.17,6.73,6.73,0,0,1,.11-1.18,6.32,6.32,0,0,1,.35-1.12,6.09,6.09,0,0,1,.55-1,7.17,7.17,0,0,1,.74-.91,6.08,6.08,0,0,1,5.42-1.64,7.24,7.24,0,0,1,1.12.34,6.15,6.15,0,0,1,1,.56,5.89,5.89,0,0,1,.91.74,5.78,5.78,0,0,1,.74.91,6.15,6.15,0,0,1,.56,1,6.29,6.29,0,0,1,.34,1.12,5.91,5.91,0,0,1,.12,1.18,5.81,5.81,0,0,1-.12,1.17,6.29,6.29,0,0,1-.34,1.12,6.15,6.15,0,0,1-.56,1,5.72,5.72,0,0,1-1.65,1.65,6.15,6.15,0,0,1-1,.56,6.29,6.29,0,0,1-1.12.34A5.79,5.79,0,0,1,216,385.87Z"/><path class="cls-2" d="M257.5,399.94H174.45a5,5,0,0,1-4.33-7.5l41.53-71.92a5,5,0,0,1,8.66,0l41.52,71.92a5,5,0,0,1-4.33,7.5Zm-74.39-10h65.73L216,333Z"/></svg>