<svg id="OUTLINES" xmlns="http://www.w3.org/2000/svg" viewBox="0 0 1152 1008"><defs><style>.cls-1{fill:#fff;}.cls-2{fill:#000f7d;}</style></defs><title>indicating-that-something-is-secure</title><rect class="cls-1" x="147" y="291.29" width="395.81" height="156" rx="24"/><path class="cls-2" d="M241.59,347.63V341a25.59,25.59,0,1,0-51.18,0v6.59a14,14,0,0,0-9.35,13.19v27.63a14,14,0,0,0,14,14h41.88a14,14,0,0,0,14-14V360.82A14,14,0,0,0,241.59,347.63ZM200.41,341a15.59,15.59,0,0,1,31.18,0v5.78H200.41Zm40.53,47.41a4,4,0,0,1-4,4H195.06a4,4,0,0,1-4-4V360.82a4,4,0,0,1,4-4h41.88a4,4,0,0,1,4,4Z"/><path class="cls-2" d="M216,362.61a12,12,0,1,0,12,12A12,12,0,0,0,216,362.61Zm0,14.06a2,2,0,1,1,2-2A2,2,0,0,1,216,376.67Z"/><path class="cls-2" d="M285.89,369.83h9.64c1.22,3.84,4.18,5.76,8.91,5.76a9.12,9.12,0,0,0,5.47-1.49,4.85,4.85,0,0,0,2-4.13,4.14,4.14,0,0,0-1.27-3.21,9.22,9.22,0,0,0-4.2-1.82l-8-1.83q-11.38-2.55-11.39-12.26a12.47,12.47,0,0,1,4.53-9.93q4.52-3.87,11.6-3.87,7.46,0,11.94,3.54a15.44,15.44,0,0,1,5.66,9.45h-9.27q-1.83-5.32-8.25-5.32a8.48,8.48,0,0,0-5.15,1.42,4.5,4.5,0,0,0-1.93,3.83q0,3.72,5,4.89l8.18,1.9q11.75,2.7,11.75,12.63a12.43,12.43,0,0,1-4.67,10.15c-3.11,2.53-7.11,3.79-12,3.79s-9.18-1.19-12.48-3.57A15.11,15.11,0,0,1,285.89,369.83Z"/><path class="cls-2" d="M347.5,371.94h8.4a13,13,0,0,1-4.64,8.36,15.15,15.15,0,0,1-9.81,3A14.93,14.93,0,0,1,330,378.62q-4.38-4.71-4.38-12.3A17.52,17.52,0,0,1,330,354.09a14.58,14.58,0,0,1,11.28-4.85q7,0,10.91,4.42t3.91,11.79v2.77H334.36a9,9,0,0,0,2.12,5.73,6.4,6.4,0,0,0,5,2.08Q346.4,376,347.5,371.94Zm-6.13-15.33q-5.55,0-6.79,6.14h12.63a6.68,6.68,0,0,0-1.6-4.42A5.43,5.43,0,0,0,341.37,356.61Z"/><path class="cls-2" d="M360.13,366.32q0-7.59,4.38-12.33a16.14,16.14,0,0,1,21.1-1.54,13.1,13.1,0,0,1,4.53,8.54h-8.91a4.59,4.59,0,0,0-1.79-2.95,5.86,5.86,0,0,0-3.61-1.06,5.7,5.7,0,0,0-4.89,2.55,11.44,11.44,0,0,0-1.83,6.79,11.28,11.28,0,0,0,1.83,6.72,5.7,5.7,0,0,0,4.89,2.55,5.92,5.92,0,0,0,3.61-1,4.64,4.64,0,0,0,1.79-3h8.91a13.19,13.19,0,0,1-4.49,8.54,16.21,16.21,0,0,1-21.14-1.53C361.59,375.42,360.13,371.34,360.13,366.32Z"/><path class="cls-2" d="M424.59,350V382.6h-9v-3a11.25,11.25,0,0,1-8.76,3.72q-5.4,0-8.43-3.28a12.41,12.41,0,0,1-3-8.76V350h9.05v19.49a6.31,6.31,0,0,0,1.32,4.24,4.9,4.9,0,0,0,3.94,1.53,6,6,0,0,0,3.72-1.21,5.66,5.66,0,0,0,2.12-3.32V350Z"/><path class="cls-2" d="M452.18,349.82v9.06a8.62,8.62,0,0,0-4.52-1.1,6.67,6.67,0,0,0-4,1.21,5.55,5.55,0,0,0-2.19,3.39V382.6H432.4V350h9.05v3.21a7.88,7.88,0,0,1,7.3-3.94A7.46,7.46,0,0,1,452.18,349.82Z"/><path class="cls-2" d="M477.08,371.94h8.39a13,13,0,0,1-4.63,8.36,15.17,15.17,0,0,1-9.82,3,14.92,14.92,0,0,1-11.46-4.71q-4.38-4.71-4.38-12.3a17.48,17.48,0,0,1,4.42-12.23,14.57,14.57,0,0,1,11.27-4.85c4.68,0,8.31,1.47,10.92,4.42s3.9,6.87,3.9,11.79v2.77H463.94a9,9,0,0,0,2.12,5.73,6.38,6.38,0,0,0,5,2.08Q476,376,477.08,371.94ZM471,356.61q-5.55,0-6.79,6.14h12.63a6.69,6.69,0,0,0-1.61-4.42A5.39,5.39,0,0,0,471,356.61Z"/><path class="cls-2" d="M283,486.36v139.5a23,23,0,0,0,23,23H603a23,23,0,0,0,23-23V486.36a23,23,0,0,0-23-23H306A23,23,0,0,0,283,486.36Zm333,0v139.5a13,13,0,0,1-13,13H306a13,13,0,0,1-13-13V486.36a13,13,0,0,1,13-13H603A13,13,0,0,1,616,486.36Z"/><path class="cls-2" d="M666,648.86H846a23,23,0,0,0,23-23V486.36a23,23,0,0,0-23-23H666a23,23,0,0,0-23,23v139.5A23,23,0,0,0,666,648.86Zm-13-162.5a13,13,0,0,1,13-13H846a13,13,0,0,1,13,13v139.5a13,13,0,0,1-13,13H666a13,13,0,0,1-13-13Z"/><path class="cls-2" d="M941,437.36h49a23,23,0,0,0,23-23v-108a23,23,0,0,0-23-23H941V269.64a23,23,0,0,0-23-23H234a23,23,0,0,0-23,23v12.72H162a24,24,0,0,0-24,24v108a24,24,0,0,0,24,24h49v259.5a22.83,22.83,0,0,0,4,13H162a23,23,0,0,0-23,23v4.5a23,23,0,0,0,23,23H990a23,23,0,0,0,23-23v-4.5a23,23,0,0,0-23-23H937a22.83,22.83,0,0,0,4-13ZM221,269.64a13,13,0,0,1,13-13H918a13,13,0,0,1,13,13v13.72H516.66a23.84,23.84,0,0,0-6.85-1H221ZM162,426.36a12,12,0,0,1-12-12v-108a12,12,0,0,1,12-12H509.81a12,12,0,0,1,12,12v108a12,12,0,0,1-12,12Zm769,11v260.5a13,13,0,0,1-13,13H234a13,13,0,0,1-13-13V438.36H509.81a23.84,23.84,0,0,0,6.85-1Zm59,283.5a13,13,0,0,1,13,13v4.5a13,13,0,0,1-13,13H162a13,13,0,0,1-13-13v-4.5a13,13,0,0,1,13-13H990ZM530,427.36a23.82,23.82,0,0,0,3.84-13v-108a23.82,23.82,0,0,0-3.84-13H990a13,13,0,0,1,13,13V353.8a13.88,13.88,0,0,0-1.24,1.19,16.92,16.92,0,0,0,0,21.5,12.89,12.89,0,0,0,1.27,1.19v36.68a13,13,0,0,1-13,13H530Z"/><path class="cls-2" d="M586.05,350.74a9.61,9.61,0,0,0-7.68,3.26V338.38h-7.94V380h7.94V361.87a4.89,4.89,0,0,1,1.89-2.91,5.46,5.46,0,0,1,3.29-1.06,4.34,4.34,0,0,1,3.49,1.38,5.45,5.45,0,0,1,1.19,3.68v17h7.93V361.29a10.9,10.9,0,0,0-2.65-7.68A9.64,9.64,0,0,0,586.05,350.74Z"/><path class="cls-2" d="M612.35,370.32V357.78h6.28v-6.41h-6.28v-7.74h-7.87v7.74h-4.35v6.41h4.35v13.56q0,4.61,2.5,6.92a9.91,9.91,0,0,0,7,2.3,11.16,11.16,0,0,0,5.12-.9v-7a6.17,6.17,0,0,1-3.45,1Q612.35,373.58,612.35,370.32Z"/><path class="cls-2" d="M634.43,370.32V357.78h6.28v-6.41h-6.28v-7.74h-7.87v7.74h-4.35v6.41h4.35v13.56q0,4.61,2.5,6.92a9.91,9.91,0,0,0,7,2.3,11.16,11.16,0,0,0,5.12-.9v-7a6.17,6.17,0,0,1-3.45,1Q634.43,373.58,634.43,370.32Z"/><path class="cls-2" d="M662,350.74a9.94,9.94,0,0,0-4.16.89,8.31,8.31,0,0,0-3,2.11v-2.37h-7.94v39.17h7.94V377.61a8.2,8.2,0,0,0,3,2.12,10.1,10.1,0,0,0,4.16.89,11.67,11.67,0,0,0,9.53-4.29,17.83,17.83,0,0,0,0-21.27A11.63,11.63,0,0,0,662,350.74Zm3.2,20.73a6.15,6.15,0,0,1-5,2.24,5.88,5.88,0,0,1-3.2-.93,5.75,5.75,0,0,1-2.17-2.4V361a6.24,6.24,0,0,1,2.21-2.41,5.77,5.77,0,0,1,3.16-.92,6.11,6.11,0,0,1,5,2.27,8.87,8.87,0,0,1,1.85,5.79A8.75,8.75,0,0,1,665.22,371.47Z"/><path class="cls-2" d="M695.17,363l-5.89-1.34c-1.71-.43-2.56-1.17-2.56-2.24a2.24,2.24,0,0,1,1.12-2,5,5,0,0,1,2.66-.7c2.38,0,3.88.94,4.48,2.82h7.55a10.17,10.17,0,0,0-3.81-6.5c-2-1.56-4.81-2.33-8.35-2.33a12.65,12.65,0,0,0-8.13,2.59A8.14,8.14,0,0,0,679,360q0,6.33,7.42,8.06l5.76,1.28a5.87,5.87,0,0,1,2.21.93,1.81,1.81,0,0,1,.67,1.5q0,2.82-4,2.82-3.84,0-4.8-3.14h-7.88a9.63,9.63,0,0,0,4,6.75,14.71,14.71,0,0,0,8.7,2.4,13.6,13.6,0,0,0,8.42-2.49,8.09,8.09,0,0,0,3.29-6.79Q702.78,364.88,695.17,363Z"/><path class="cls-2" d="M711.42,370.26a4.85,4.85,0,0,0-3.55,1.43,4.91,4.91,0,0,0-1.44,3.62,5,5,0,0,0,1.44,3.65,5,5,0,0,0,7.11,0,5,5,0,0,0,1.44-3.65,4.9,4.9,0,0,0-5-5.05Z"/><path class="cls-2" d="M711.42,352a4.81,4.81,0,0,0-3.55,1.43,4.91,4.91,0,0,0-1.44,3.62,5,5,0,0,0,1.44,3.65,5,5,0,0,0,7.11,0,5,5,0,0,0,1.44-3.65,4.91,4.91,0,0,0-1.44-3.62A4.85,4.85,0,0,0,711.42,352Z"/><polygon class="cls-2" points="734.02 338.38 718.14 385.36 725.5 385.36 741.38 338.38 734.02 338.38"/><polygon class="cls-2" points="749.06 338.38 733.18 385.36 740.54 385.36 756.41 338.38 749.06 338.38"/><polygon class="cls-2" points="784.64 369.62 779.9 351.38 773.82 351.38 769.15 369.62 764.03 351.38 756.1 351.38 764.8 379.98 772.1 379.98 776.77 362.45 781.44 379.98 788.73 379.98 797.44 351.38 789.76 351.38 784.64 369.62"/><polygon class="cls-2" points="827.65 369.62 822.91 351.38 816.83 351.38 812.16 369.62 807.04 351.38 799.1 351.38 807.81 379.98 815.1 379.98 819.77 362.45 824.45 379.98 831.74 379.98 840.45 351.38 832.77 351.38 827.65 369.62"/><polygon class="cls-2" points="870.65 369.62 865.92 351.38 859.84 351.38 855.17 369.62 850.05 351.38 842.11 351.38 850.81 379.98 858.11 379.98 862.78 362.45 867.45 379.98 874.75 379.98 883.45 351.38 875.77 351.38 870.65 369.62"/><path class="cls-2" d="M888.51,370.26a4.85,4.85,0,0,0-3.55,1.43,4.91,4.91,0,0,0-1.44,3.62A5,5,0,0,0,885,379a5,5,0,0,0,7.1,0,5,5,0,0,0,1.44-3.65,4.91,4.91,0,0,0-1.44-3.62A4.85,4.85,0,0,0,888.51,370.26Z"/><path class="cls-2" d="M913.79,350.74a9.94,9.94,0,0,0-4.16.89,8.4,8.4,0,0,0-3,2.11v-2.37h-7.93v39.17h7.93V377.61a8.29,8.29,0,0,0,3,2.12,10.1,10.1,0,0,0,4.16.89,11.7,11.7,0,0,0,9.54-4.29,17.83,17.83,0,0,0,0-21.27A11.67,11.67,0,0,0,913.79,350.74Zm3.2,20.73a6.13,6.13,0,0,1-5,2.24,5.88,5.88,0,0,1-3.2-.93,5.77,5.77,0,0,1-2.18-2.4V361a6.24,6.24,0,0,1,2.21-2.41,5.81,5.81,0,0,1,3.17-.92,6.1,6.1,0,0,1,5,2.27,8.82,8.82,0,0,1,1.86,5.79A8.7,8.7,0,0,1,917,371.47Z"/><path class="cls-2" d="M941.76,359.28a5.83,5.83,0,0,1,3.52-1.06,7.61,7.61,0,0,1,4,1v-7.93a6.48,6.48,0,0,0-3-.51,6.91,6.91,0,0,0-6.4,3.45v-2.82H931.9V380h7.94V362.26A4.89,4.89,0,0,1,941.76,359.28Z"/><path class="cls-2" d="M965.89,380.62A13.2,13.2,0,0,0,976,376.46a16.85,16.85,0,0,0,0-21.56,14.37,14.37,0,0,0-20.22,0,16.82,16.82,0,0,0,0,21.56A13.2,13.2,0,0,0,965.89,380.62Zm-4.51-20.89a5.6,5.6,0,0,1,9,0,10,10,0,0,1,1.63,6,9.9,9.9,0,0,1-1.63,5.92,5.62,5.62,0,0,1-9,0,9.9,9.9,0,0,1-1.64-5.92A10,10,0,0,1,961.38,359.73Z"/><path class="cls-2" d="M979.84,390.86a10.35,10.35,0,0,0,3.07.32c3.24,0,5.72-.87,7.42-2.62s2.56-4.23,2.56-7.42V351.37H985v29.7q0,3.65-3.39,3.65c-.26,0-.83-.07-1.73-.19Z"/><path class="cls-2" d="M988.93,347.66a4.63,4.63,0,0,0,3.29-1.28,4.51,4.51,0,0,0,0-6.49,4.58,4.58,0,0,0-3.29-1.32,4.71,4.71,0,0,0-3.33,1.32,4.47,4.47,0,0,0,0,6.49A4.7,4.7,0,0,0,988.93,347.66Z"/></svg>