<?xml version="1.0" encoding="utf-8"?>
<!-- Generator: Adobe Illustrator 19.1.0, SVG Export Plug-In . SVG Version: 6.00 Build 0)  -->
<svg version="1.1" id="Layer_1" xmlns="http://www.w3.org/2000/svg" xmlns:xlink="http://www.w3.org/1999/xlink" x="0px" y="0px"
	 viewBox="0 0 202 425" style="enable-background:new 0 0 202 425;" xml:space="preserve">
<style type="text/css">
	.st0{fill:#FFFFFF;stroke:#010101;stroke-width:2;stroke-miterlimit:10;}
	.st1{fill:#ECECEC;stroke:#1A1A1A;stroke-miterlimit:10;}
	.st2{fill:#FFFFFF;stroke:#010101;stroke-miterlimit:10;}
	.st3{fill:#010101;stroke:#FFFFFF;stroke-width:0.746;stroke-miterlimit:10;}
	.st4{fill:#010101;stroke:#FFFFFF;stroke-width:0.8525;stroke-miterlimit:10;}
	.st5{fill:#FFFFFF;stroke:#1D1D1B;stroke-miterlimit:10;}
	.st6{fill:#FFFFFF;}
	.st7{fill-rule:evenodd;clip-rule:evenodd;}
	.st8{fill-rule:evenodd;clip-rule:evenodd;fill:#FFFFFF;}
	.st9{fill:#B2B2B2;}
	.st10{fill:none;stroke:#1D1D1B;stroke-miterlimit:10;}
	.st11{fill:none;}
	.st12{fill:#1D1D1B;}
	.st13{fill:none;stroke:#1D1D1B;stroke-width:0.9816;stroke-miterlimit:10;}
	.st14{fill:#3A50A2;}
	.st15{fill:#231F20;stroke:#231F20;stroke-width:4.380000e-02;}
</style>
<path class="st0" d="M201,394.2c0,16.5-13.4,29.8-29.8,29.8H30.8C14.4,424,1,410.6,1,394.2V30.8C1,14.4,14.4,1,30.8,1h140.3
	C187.6,1,201,14.4,201,30.8V394.2z"/>
<rect x="15.5" y="60.5" class="st1" width="172" height="303"/>
<g>
	<circle class="st2" cx="101.9" cy="392.6" r="17.1"/>
</g>
<circle class="st3" cx="101.4" cy="23.7" r="3.2"/>
<path class="st4" d="M124.2,35.2H79.1c-1,0-1.8-0.8-1.8-1.8l0,0c0-1,0.8-1.7,1.8-1.7h45.2c1,0,1.8,0.8,1.8,1.7l0,0
	C126,34.4,125.2,35.2,124.2,35.2z"/>
<rect x="15.7" y="269.2" class="st5" width="172" height="94.5"/>
<g id="eYJZT7_1_">
	<g>
		<path class="st6" d="M160.3,303.1c0-7.1-5.8-13-12.9-13c-7.2,0-13,5.8-13,12.9c0,7.1,5.8,13,12.9,13
			C154.5,316,160.3,310.2,160.3,303.1z"/>
		<path class="st7" d="M160.3,303.1c0,7.2-5.8,12.9-13,12.9c-7.1,0-12.9-5.8-12.9-13c0-7.2,5.8-12.9,13-12.9
			C154.5,290.1,160.3,295.9,160.3,303.1z M159.2,303.1c0-6.5-5.2-11.8-11.7-11.9c-6.5,0-11.9,5.2-11.9,11.7
			c0,6.6,5.2,11.9,11.8,11.9C153.8,314.9,159.1,309.6,159.2,303.1z"/>
		<path class="st8" d="M159.2,303.1c0,6.5-5.3,11.7-11.8,11.7c-6.5,0-11.8-5.3-11.8-11.9c0-6.5,5.4-11.7,11.9-11.7
			C153.9,291.3,159.2,296.6,159.2,303.1z M139.3,303.4c0,0.1,0,0.2,0.1,0.3c2.4,0,4.8,0,7.4,0c0,2.5,0,4.9,0,7.3c0.1,0,0.1,0,0.2,0
			c2.1-4.6,4.3-9.3,6.5-14.2C148.6,299.1,144,301.3,139.3,303.4z"/>
		<path class="st7" d="M139.3,303.4c4.6-2.1,9.2-4.3,14.2-6.6c-2.3,4.9-4.4,9.6-6.5,14.2c-0.1,0-0.1,0-0.2,0c0-2.4,0-4.8,0-7.3
			c-2.6,0-5,0-7.4,0C139.4,303.6,139.4,303.5,139.3,303.4z"/>
	</g>
</g>
<polygon class="st9" points="39.9,328.2 42.2,332.8 47.3,333.5 43.6,337.1 44.5,342.2 39.9,339.8 35.3,342.2 36.2,337.1 32.5,333.5 
	37.6,332.8 "/>
<polygon class="st9" points="58.7,328.2 61,332.8 66.1,333.5 62.4,337.1 63.3,342.2 58.7,339.8 54.1,342.2 55,337.1 51.3,333.5 
	56.4,332.8 "/>
<polygon class="st9" points="77.5,328.2 79.8,332.8 84.9,333.5 81.2,337.1 82.1,342.2 77.5,339.8 72.9,342.2 73.8,337.1 70.1,333.5 
	75.2,332.8 "/>
<g>
	<path class="st6" d="M171.3,239.4c0,4.7-3.8,8.5-8.5,8.5H38.6c-4.7,0-8.5-3.8-8.5-8.5v-93.8c0-4.7,3.8-8.5,8.5-8.5h124.2
		c4.7,0,8.5,3.8,8.5,8.5V239.4z"/>
	<path class="st10" d="M171.3,239.4c0,4.7-3.8,8.5-8.5,8.5H38.6c-4.7,0-8.5-3.8-8.5-8.5v-93.8c0-4.7,3.8-8.5,8.5-8.5h124.2
		c4.7,0,8.5,3.8,8.5,8.5V239.4z"/>
</g>
<g>
	<rect x="46.9" y="152.7" class="st11" width="111.6" height="53.2"/>
	<path class="st12" d="M59.4,162.6l-0.8-2.3h-4.4l-0.8,2.3h-1.1l3.7-10h0.9l3.7,10H59.4z M56.4,154.2l-1.9,5.3h3.7L56.4,154.2z"/>
	<path class="st12" d="M63.7,162.6c-1.2,0-1.8-0.8-1.8-1.8v-8.1h1v8.1c0,0.7,0.2,1,0.9,1h0.5v0.9H63.7z"/>
	<path class="st12" d="M67.8,162.6c-1.2,0-1.8-0.8-1.8-1.8v-8.1h1v8.1c0,0.7,0.2,1,0.9,1h0.5v0.9H67.8z"/>
	<path class="st12" d="M74.4,161.9c-0.5,0.5-1.1,0.8-2,0.8s-1.5-0.3-2-0.8c-0.7-0.7-0.8-1.7-0.8-2.7s0.1-2,0.8-2.7
		c0.5-0.5,1.1-0.8,2-0.8s1.5,0.3,2,0.8c0.7,0.7,0.8,1.7,0.8,2.7S75.1,161.2,74.4,161.9z M73.7,157.1c-0.3-0.3-0.8-0.5-1.3-0.5
		s-0.9,0.2-1.2,0.5c-0.5,0.5-0.6,1.4-0.6,2.1s0.1,1.6,0.6,2.1c0.3,0.3,0.8,0.5,1.2,0.5s0.9-0.2,1.3-0.5c0.5-0.5,0.5-1.4,0.5-2.1
		S74.2,157.6,73.7,157.1z"/>
	<path class="st12" d="M83.9,162.6H83l-1.8-5.4l-1.8,5.4h-0.9l-2.2-6.9h1.1l1.6,5.5l1.8-5.5h0.9l1.8,5.5l1.6-5.5h1.1L83.9,162.6z"/>
	<path class="st12" d="M94.3,162.7c-1,0-1.9-0.4-2.5-1c-0.9-0.9-0.9-1.9-0.9-4s0-3.1,0.9-4c0.7-0.7,1.6-1,2.5-1c1.8,0,3.1,1.1,3.5,3
		h-1.1c-0.3-1.2-1.1-2-2.4-2c-0.7,0-1.3,0.3-1.7,0.7c-0.6,0.6-0.7,1.3-0.7,3.4c0,2.1,0.1,2.8,0.7,3.4c0.4,0.4,1.1,0.7,1.7,0.7
		c1.2,0,2.1-0.8,2.4-2h1.1C97.4,161.6,96,162.7,94.3,162.7z"/>
	<path class="st12" d="M104.3,161.9c-0.5,0.5-1.1,0.8-2,0.8c-0.8,0-1.5-0.3-2-0.8c-0.7-0.7-0.8-1.7-0.8-2.7s0.1-2,0.8-2.7
		c0.5-0.5,1.1-0.8,2-0.8c0.8,0,1.5,0.3,2,0.8c0.7,0.7,0.8,1.7,0.8,2.7S105,161.2,104.3,161.9z M103.6,157.1
		c-0.3-0.3-0.8-0.5-1.3-0.5s-0.9,0.2-1.2,0.5c-0.5,0.5-0.6,1.4-0.6,2.1s0.1,1.6,0.6,2.1c0.3,0.3,0.8,0.5,1.2,0.5s0.9-0.2,1.3-0.5
		c0.5-0.5,0.5-1.4,0.5-2.1S104.1,157.6,103.6,157.1z"/>
	<path class="st12" d="M108.5,156.6v6.1h-1v-6.1h-0.9v-0.8h0.9v-1.3c0-1,0.6-1.8,1.8-1.8h0.7v0.9h-0.5c-0.6,0-0.9,0.4-0.9,1v1.3h1.5
		v0.8H108.5z"/>
	<path class="st12" d="M112.9,156.6v6.1h-1v-6.1H111v-0.8h0.9v-1.3c0-1,0.6-1.8,1.8-1.8h0.7v0.9h-0.5c-0.6,0-0.9,0.4-0.9,1v1.3h1.5
		v0.8H112.9z"/>
	<path class="st12" d="M116.5,159.5c0,1.5,0.7,2.4,2,2.4c0.8,0,1.3-0.2,1.8-0.8l0.7,0.6c-0.7,0.7-1.3,1.1-2.5,1.1
		c-1.8,0-3-1.1-3-3.5c0-2.2,1.1-3.5,2.8-3.5c1.8,0,2.8,1.3,2.8,3.3v0.5H116.5z M119.9,157.6c-0.3-0.6-0.9-1-1.6-1s-1.3,0.4-1.6,1
		c-0.2,0.4-0.2,0.6-0.2,1.1h3.6C120.1,158.1,120,157.9,119.9,157.6z"/>
	<path class="st12" d="M123.9,159.5c0,1.5,0.7,2.4,2,2.4c0.8,0,1.3-0.2,1.8-0.8l0.7,0.6c-0.7,0.7-1.3,1.1-2.5,1.1
		c-1.8,0-3-1.1-3-3.5c0-2.2,1.1-3.5,2.8-3.5c1.8,0,2.8,1.3,2.8,3.3v0.5H123.9z M127.3,157.6c-0.3-0.6-0.9-1-1.6-1
		c-0.7,0-1.3,0.4-1.6,1c-0.2,0.4-0.2,0.6-0.2,1.1h3.6C127.5,158.1,127.5,157.9,127.3,157.6z"/>
	<path class="st12" d="M136.7,162.6l-0.8-2.3h-4.4l-0.8,2.3h-1.1l3.7-10h0.9l3.7,10H136.7z M133.7,154.2l-1.9,5.3h3.7L133.7,154.2z"
		/>
	<path class="st12" d="M143.9,162.1c-0.4,0.4-1,0.6-1.7,0.6c-0.8,0-1.4-0.2-1.9-0.9v3.9h-1v-10h1v0.8c0.6-0.7,1.2-0.9,1.9-0.9
		c0.7,0,1.3,0.2,1.7,0.6c0.7,0.7,0.8,1.8,0.8,2.9S144.6,161.4,143.9,162.1z M142,156.6c-1.5,0-1.7,1.3-1.7,2.6s0.2,2.6,1.7,2.6
		c1.5,0,1.7-1.3,1.7-2.6S143.5,156.6,142,156.6z"/>
	<path class="st12" d="M151.5,162.1c-0.4,0.4-1,0.6-1.7,0.6c-0.8,0-1.4-0.2-1.9-0.9v3.9h-1v-10h1v0.8c0.6-0.7,1.2-0.9,1.9-0.9
		c0.7,0,1.3,0.2,1.7,0.6c0.7,0.7,0.8,1.8,0.8,2.9S152.2,161.4,151.5,162.1z M149.6,156.6c-1.5,0-1.7,1.3-1.7,2.6s0.2,2.6,1.7,2.6
		c1.5,0,1.7-1.3,1.7-2.6S151.1,156.6,149.6,156.6z"/>
	<path class="st12" d="M63.9,181.6V181c-0.6,0.6-1.1,0.7-2,0.7c-1,0-1.5-0.2-1.9-0.6c-0.3-0.3-0.5-0.9-0.5-1.4c0-1.2,0.8-2,2.4-2
		h2.1V177c0-1-0.5-1.5-1.8-1.5c-0.9,0-1.3,0.2-1.7,0.8l-0.7-0.6c0.6-0.8,1.3-1,2.4-1c1.8,0,2.8,0.8,2.8,2.3v4.7H63.9z M63.9,178.5
		h-1.9c-1,0-1.5,0.4-1.5,1.2s0.5,1.2,1.6,1.2c0.6,0,1.1,0,1.5-0.5c0.2-0.2,0.4-0.6,0.4-1.2V178.5z"/>
	<path class="st12" d="M70,181.7c-1.7,0-3.1-1.2-3.1-3.5c0-2.4,1.3-3.5,3.1-3.5c1,0,1.6,0.3,2.3,1l-0.7,0.6
		c-0.5-0.6-0.9-0.8-1.6-0.8c-0.7,0-1.2,0.3-1.6,0.8c-0.3,0.4-0.4,1-0.4,1.8s0.1,1.4,0.4,1.8c0.4,0.5,0.9,0.8,1.6,0.8
		c0.7,0,1.1-0.2,1.6-0.8l0.7,0.7C71.5,181.5,70.9,181.7,70,181.7z"/>
	<path class="st12" d="M76.6,181.7c-1.7,0-3.1-1.2-3.1-3.5c0-2.4,1.3-3.5,3.1-3.5c1,0,1.6,0.3,2.3,1l-0.7,0.6
		c-0.5-0.6-0.9-0.8-1.6-0.8c-0.7,0-1.2,0.3-1.6,0.8c-0.3,0.4-0.4,1-0.4,1.8s0.1,1.4,0.4,1.8c0.4,0.5,0.9,0.8,1.6,0.8
		c0.7,0,1.1-0.2,1.6-0.8l0.7,0.7C78.2,181.5,77.6,181.7,76.6,181.7z"/>
	<path class="st12" d="M81.2,178.5c0,1.5,0.7,2.4,2,2.4c0.8,0,1.3-0.2,1.8-0.8l0.7,0.6c-0.7,0.7-1.3,1.1-2.5,1.1c-1.8,0-3-1.1-3-3.5
		c0-2.2,1.1-3.5,2.8-3.5c1.8,0,2.8,1.3,2.8,3.3v0.5H81.2z M84.7,176.6c-0.3-0.6-0.9-1-1.6-1s-1.3,0.4-1.6,1
		c-0.2,0.4-0.2,0.6-0.2,1.1h3.6C84.9,177.1,84.8,176.9,84.7,176.6z"/>
	<path class="st12" d="M90.2,181.7c-1.2,0-2.1-0.3-2.8-1l0.7-0.7c0.5,0.6,1.3,0.8,2.1,0.8c1.1,0,1.8-0.4,1.8-1.2
		c0-0.6-0.4-0.9-1.1-1l-1.1-0.1c-1.3-0.1-2.1-0.7-2.1-1.8c0-1.3,1.1-2,2.5-2c1,0,1.9,0.2,2.5,0.7l-0.7,0.7c-0.5-0.4-1.1-0.5-1.8-0.5
		c-1,0-1.5,0.4-1.5,1.1c0,0.6,0.3,0.9,1.2,1l1.1,0.1c1.2,0.1,2,0.6,2,1.9C93,181,91.9,181.7,90.2,181.7z"/>
	<path class="st12" d="M96.9,181.7c-1.2,0-2.1-0.3-2.8-1l0.7-0.7c0.5,0.6,1.3,0.8,2.1,0.8c1.1,0,1.8-0.4,1.8-1.2
		c0-0.6-0.4-0.9-1.1-1l-1.1-0.1c-1.3-0.1-2.1-0.7-2.1-1.8c0-1.3,1.1-2,2.5-2c1,0,1.9,0.2,2.5,0.7l-0.7,0.7c-0.5-0.4-1.1-0.5-1.8-0.5
		c-1,0-1.5,0.4-1.5,1.1c0,0.6,0.3,0.9,1.2,1l1.1,0.1c1.2,0.1,2,0.6,2,1.9C99.7,181,98.6,181.7,96.9,181.7z"/>
	<path class="st12" d="M107.1,181.6c-1.2,0-1.8-0.8-1.8-1.8v-4.2h-0.9v-0.8h0.9v-2.2h1v2.2h1.5v0.8h-1.5v4.2c0,0.6,0.3,1,0.9,1h0.5
		v0.9H107.1z"/>
	<path class="st12" d="M114.2,180.9c-0.5,0.5-1.1,0.8-2,0.8c-0.8,0-1.5-0.3-2-0.8c-0.7-0.7-0.8-1.7-0.8-2.7s0.1-2,0.8-2.7
		c0.5-0.5,1.1-0.8,2-0.8c0.8,0,1.5,0.3,2,0.8c0.7,0.7,0.8,1.7,0.8,2.7S114.9,180.2,114.2,180.9z M113.4,176.1
		c-0.3-0.3-0.8-0.5-1.3-0.5s-0.9,0.2-1.2,0.5c-0.5,0.5-0.6,1.4-0.6,2.1s0.1,1.6,0.6,2.1c0.3,0.3,0.8,0.5,1.2,0.5s0.9-0.2,1.3-0.5
		c0.5-0.5,0.5-1.4,0.5-2.1S113.9,176.6,113.4,176.1z"/>
	<path class="st12" d="M122.3,183.3c-0.1,0.4-0.3,0.6-0.5,0.8c-0.4,0.4-0.9,0.5-1.3,0.5h-0.4v-0.9h0.3c0.7,0,0.9-0.2,1.1-0.9
		l0.5-1.3l-2.5-6.8h1.1l1.9,5.5l1.9-5.5h1.1L122.3,183.3z"/>
	<path class="st12" d="M131.2,180.9c-0.5,0.5-1.1,0.8-2,0.8s-1.5-0.3-2-0.8c-0.7-0.7-0.8-1.7-0.8-2.7s0.1-2,0.8-2.7
		c0.5-0.5,1.1-0.8,2-0.8s1.5,0.3,2,0.8c0.7,0.7,0.8,1.7,0.8,2.7S131.9,180.2,131.2,180.9z M130.5,176.1c-0.3-0.3-0.8-0.5-1.3-0.5
		s-0.9,0.2-1.2,0.5c-0.5,0.5-0.6,1.4-0.6,2.1s0.1,1.6,0.6,2.1c0.3,0.3,0.8,0.5,1.2,0.5s0.9-0.2,1.3-0.5c0.5-0.5,0.5-1.4,0.5-2.1
		S131,176.6,130.5,176.1z"/>
	<path class="st12" d="M138.5,181.6v-0.8c-0.5,0.6-1.2,0.9-1.9,0.9c-0.7,0-1.4-0.2-1.8-0.6c-0.5-0.5-0.7-1.1-0.7-1.9v-4.4h1v4.2
		c0,1.2,0.6,1.8,1.7,1.8c1,0,1.7-0.6,1.7-1.8v-4.2h1v6.9H138.5z"/>
	<path class="st12" d="M145.9,176.1c-0.4-0.4-0.7-0.5-1.2-0.5c-1,0-1.7,0.8-1.7,1.8v4.2h-1v-6.9h1v0.8c0.4-0.6,1.1-0.9,1.9-0.9
		c0.7,0,1.2,0.2,1.7,0.6L145.9,176.1z"/>
	<path class="st12" d="M81.2,200.6c-1.2,0-1.8-0.8-1.8-1.8v-8.1h1v8.1c0,0.7,0.2,1,0.9,1H82v0.9H81.2z"/>
	<path class="st12" d="M87.8,199.9c-0.5,0.5-1.1,0.8-2,0.8s-1.5-0.3-2-0.8c-0.7-0.7-0.8-1.7-0.8-2.7s0.1-2,0.8-2.7
		c0.5-0.5,1.1-0.8,2-0.8s1.5,0.3,2,0.8c0.7,0.7,0.8,1.7,0.8,2.7S88.5,199.2,87.8,199.9z M87.1,195.1c-0.3-0.3-0.8-0.5-1.3-0.5
		s-0.9,0.2-1.2,0.5c-0.5,0.5-0.6,1.4-0.6,2.1s0.1,1.6,0.6,2.1c0.3,0.3,0.8,0.5,1.2,0.5s0.9-0.2,1.3-0.5c0.5-0.5,0.5-1.4,0.5-2.1
		S87.6,195.6,87.1,195.1z"/>
	<path class="st12" d="M93.5,200.7c-1.7,0-3.1-1.2-3.1-3.5c0-2.4,1.3-3.5,3.1-3.5c1,0,1.6,0.3,2.3,1l-0.7,0.6
		c-0.5-0.6-0.9-0.8-1.6-0.8c-0.7,0-1.2,0.3-1.6,0.8c-0.3,0.4-0.4,1-0.4,1.8s0.1,1.4,0.4,1.8c0.4,0.5,0.9,0.8,1.6,0.8
		c0.7,0,1.1-0.2,1.6-0.8l0.7,0.7C95.1,200.5,94.5,200.7,93.5,200.7z"/>
	<path class="st12" d="M101.4,200.6V200c-0.6,0.6-1.1,0.7-2,0.7c-1,0-1.5-0.2-1.9-0.6c-0.3-0.3-0.5-0.9-0.5-1.4c0-1.2,0.8-2,2.4-2
		h2.1V196c0-1-0.5-1.5-1.8-1.5c-0.9,0-1.3,0.2-1.7,0.8l-0.7-0.6c0.6-0.8,1.3-1,2.4-1c1.8,0,2.8,0.8,2.8,2.3v4.7H101.4z M101.4,197.5
		h-1.9c-1,0-1.5,0.4-1.5,1.2s0.5,1.2,1.6,1.2c0.6,0,1.1,0,1.5-0.5c0.2-0.2,0.4-0.6,0.4-1.2V197.5z"/>
	<path class="st12" d="M106.8,200.6c-1.2,0-1.8-0.8-1.8-1.8v-4.2h-0.9v-0.8h0.9v-2.2h1v2.2h1.5v0.8h-1.5v4.2c0,0.6,0.3,1,0.9,1h0.5
		v0.9H106.8z"/>
	<path class="st12" d="M109.5,191.8v-1.1h1.1v1.1H109.5z M109.5,200.6v-6.9h1v6.9H109.5z"/>
	<path class="st12" d="M117.5,199.9c-0.5,0.5-1.1,0.8-2,0.8c-0.8,0-1.5-0.3-2-0.8c-0.7-0.7-0.8-1.7-0.8-2.7s0.1-2,0.8-2.7
		c0.5-0.5,1.1-0.8,2-0.8c0.8,0,1.5,0.3,2,0.8c0.7,0.7,0.8,1.7,0.8,2.7S118.2,199.2,117.5,199.9z M116.8,195.1
		c-0.3-0.3-0.8-0.5-1.3-0.5s-0.9,0.2-1.2,0.5c-0.5,0.5-0.6,1.4-0.6,2.1s0.1,1.6,0.6,2.1c0.3,0.3,0.8,0.5,1.2,0.5s0.9-0.2,1.3-0.5
		c0.5-0.5,0.5-1.4,0.5-2.1S117.3,195.6,116.8,195.1z"/>
	<path class="st12" d="M124.9,200.6v-4.2c0-1.2-0.7-1.8-1.7-1.8c-1,0-1.7,0.6-1.7,1.8v4.2h-1v-6.9h1v0.8c0.5-0.6,1.2-0.8,1.9-0.8
		c0.7,0,1.3,0.2,1.8,0.6c0.5,0.5,0.7,1.1,0.7,1.9v4.4H124.9z"/>
</g>
<g>
	<rect x="32.4" y="288.7" class="st11" width="98.3" height="53.2"/>
	<path class="st12" d="M36.9,298.7c-1,0-1.9-0.4-2.5-1c-0.9-0.9-0.9-1.9-0.9-4s0-3.1,0.9-4c0.7-0.7,1.6-1,2.5-1c1.8,0,3.1,1.1,3.5,3
		h-1.1c-0.3-1.2-1.1-2-2.4-2c-0.7,0-1.3,0.3-1.7,0.7c-0.6,0.6-0.7,1.3-0.7,3.4c0,2.1,0.1,2.8,0.7,3.4c0.4,0.4,1.1,0.7,1.7,0.7
		c1.2,0,2.1-0.8,2.4-2h1.1C40.1,297.6,38.7,298.7,36.9,298.7z"/>
	<path class="st12" d="M47,297.9c-0.5,0.5-1.1,0.8-2,0.8s-1.5-0.3-2-0.8c-0.7-0.7-0.8-1.7-0.8-2.7s0.1-2,0.8-2.7
		c0.5-0.5,1.1-0.8,2-0.8s1.5,0.3,2,0.8c0.7,0.7,0.8,1.7,0.8,2.7S47.7,297.2,47,297.9z M46.3,293.1c-0.3-0.3-0.8-0.5-1.3-0.5
		s-0.9,0.2-1.2,0.5c-0.5,0.5-0.6,1.4-0.6,2.1c0,0.8,0.1,1.6,0.6,2.1c0.3,0.3,0.8,0.5,1.2,0.5s0.9-0.2,1.3-0.5
		c0.5-0.5,0.5-1.4,0.5-2.1C46.8,294.4,46.8,293.6,46.3,293.1z"/>
	<path class="st12" d="M51.2,292.6v6.1h-1v-6.1h-0.9v-0.8h0.9v-1.3c0-1,0.6-1.8,1.8-1.8h0.7v0.9h-0.5c-0.6,0-0.9,0.4-0.9,1v1.3h1.5
		v0.8H51.2z"/>
	<path class="st12" d="M55.6,292.6v6.1h-1v-6.1h-0.9v-0.8h0.9v-1.3c0-1,0.6-1.8,1.8-1.8h0.7v0.9h-0.5c-0.6,0-0.9,0.4-0.9,1v1.3h1.5
		v0.8H55.6z"/>
	<path class="st12" d="M59.1,295.5c0,1.5,0.7,2.4,2,2.4c0.8,0,1.3-0.2,1.8-0.8l0.7,0.6c-0.7,0.7-1.3,1.1-2.5,1.1c-1.8,0-3-1.1-3-3.5
		c0-2.2,1.1-3.5,2.8-3.5c1.8,0,2.8,1.3,2.8,3.3v0.5H59.1z M62.6,293.6c-0.3-0.6-0.9-1-1.6-1s-1.3,0.4-1.6,1
		c-0.2,0.4-0.2,0.6-0.2,1.1h3.6C62.8,294.1,62.7,293.9,62.6,293.6z"/>
	<path class="st12" d="M66.6,295.5c0,1.5,0.7,2.4,2,2.4c0.8,0,1.3-0.2,1.8-0.8l0.7,0.6c-0.7,0.7-1.3,1.1-2.5,1.1c-1.8,0-3-1.1-3-3.5
		c0-2.2,1.1-3.5,2.8-3.5c1.8,0,2.8,1.3,2.8,3.3v0.5H66.6z M70,293.6c-0.3-0.6-0.9-1-1.6-1s-1.3,0.4-1.6,1c-0.2,0.4-0.2,0.6-0.2,1.1
		h3.6C70.2,294.1,70.1,293.9,70,293.6z"/>
	<path class="st12" d="M79,298.7c-1.2,0-2.1-0.3-2.8-1l0.7-0.7c0.5,0.6,1.3,0.8,2.1,0.8c1.1,0,1.8-0.4,1.8-1.2c0-0.6-0.4-0.9-1.1-1
		l-1.1-0.1c-1.3-0.1-2.1-0.7-2.1-1.8c0-1.3,1.1-2,2.5-2c1,0,1.9,0.2,2.5,0.7l-0.7,0.7c-0.5-0.4-1.1-0.5-1.8-0.5
		c-1,0-1.5,0.4-1.5,1.1c0,0.6,0.3,0.9,1.2,1l1.1,0.1c1.2,0.1,2,0.6,2,1.9C81.8,298,80.7,298.7,79,298.7z"/>
	<path class="st12" d="M88.2,298.6v-4.3c0-1.2-0.6-1.8-1.7-1.8s-1.7,0.6-1.7,1.8v4.3h-1v-10h1v3.8c0.5-0.6,1.2-0.8,1.9-0.8
		c1.6,0,2.5,1,2.5,2.5v4.4H88.2z"/>
	<path class="st12" d="M96.1,297.9c-0.5,0.5-1.1,0.8-2,0.8s-1.5-0.3-2-0.8c-0.7-0.7-0.8-1.7-0.8-2.7s0.1-2,0.8-2.7
		c0.5-0.5,1.1-0.8,2-0.8s1.5,0.3,2,0.8c0.7,0.7,0.8,1.7,0.8,2.7S96.8,297.2,96.1,297.9z M95.4,293.1c-0.3-0.3-0.8-0.5-1.3-0.5
		s-0.9,0.2-1.2,0.5c-0.5,0.5-0.6,1.4-0.6,2.1c0,0.8,0.1,1.6,0.6,2.1c0.3,0.3,0.8,0.5,1.2,0.5s0.9-0.2,1.3-0.5
		c0.5-0.5,0.5-1.4,0.5-2.1C95.9,294.4,95.9,293.6,95.4,293.1z"/>
	<path class="st12" d="M103.7,298.1c-0.4,0.4-1,0.6-1.7,0.6c-0.8,0-1.4-0.2-1.9-0.9v3.9h-1v-10h1v0.8c0.6-0.7,1.2-0.9,1.9-0.9
		c0.7,0,1.3,0.2,1.7,0.6c0.7,0.7,0.8,1.8,0.8,2.9C104.5,296.3,104.4,297.4,103.7,298.1z M101.8,292.6c-1.5,0-1.7,1.3-1.7,2.6
		c0,1.3,0.2,2.6,1.7,2.6c1.5,0,1.7-1.3,1.7-2.6C103.5,293.9,103.3,292.6,101.8,292.6z"/>
	<path class="st12" d="M36,315.5c-1.6,0-2.7-1.1-2.7-2.7v-4.7c0-1.7,1.2-2.7,2.7-2.7c1.6,0,2.7,1.1,2.7,2.7v4.7
		C38.8,314.4,37.6,315.5,36,315.5z M37.8,308.2c0-1.1-0.6-1.9-1.7-1.9c-1.1,0-1.7,0.8-1.7,1.9v4.5c0,1.1,0.6,1.9,1.7,1.9
		c1.1,0,1.7-0.8,1.7-1.9V308.2z"/>
	<path class="st12" d="M40.9,315.4v-1.3h1.3v1.3H40.9z"/>
	<path class="st12" d="M44.4,315.4v-0.9l3.9-5c0.4-0.5,0.6-0.9,0.6-1.5c0-1.1-0.6-1.8-1.7-1.8c-0.9,0-1.7,0.5-1.7,1.8h-1
		c0-1.6,1.1-2.7,2.7-2.7c1.6,0,2.7,1.1,2.7,2.7c0,0.8-0.3,1.3-0.8,2l-3.5,4.5h4.3v0.9H44.4z"/>
	<path class="st12" d="M64.4,315.4v-4.2c0-1.2-0.7-1.8-1.7-1.8c-1,0-1.7,0.6-1.7,1.7v4.4h-1v-4.2c0-1.2-0.7-1.8-1.7-1.8
		s-1.7,0.6-1.7,1.8v4.2h-1v-6.9h1v0.8c0.5-0.6,1.2-0.8,1.9-0.8c1,0,1.7,0.4,2.1,1.1c0.5-0.8,1.3-1.1,2.3-1.1c0.7,0,1.4,0.2,1.8,0.6
		c0.5,0.5,0.7,1.1,0.7,1.9v4.4H64.4z"/>
	<path class="st12" d="M67.8,306.6v-1.1h1.1v1.1H67.8z M67.8,315.4v-6.9h1v6.9H67.8z"/>
	<path class="st12" d="M73.1,315.4c-1.2,0-1.8-0.8-1.8-1.8v-8.1h1v8.1c0,0.7,0.2,1,0.9,1h0.5v0.9H73.1z"/>
	<path class="st12" d="M75.8,312.3c0,1.5,0.7,2.4,2,2.4c0.8,0,1.3-0.2,1.8-0.8l0.7,0.6c-0.7,0.7-1.3,1.1-2.5,1.1c-1.8,0-3-1.1-3-3.5
		c0-2.2,1.1-3.5,2.8-3.5c1.8,0,2.8,1.3,2.8,3.3v0.5H75.8z M79.2,310.4c-0.3-0.6-0.9-1-1.6-1s-1.3,0.4-1.6,1
		c-0.2,0.4-0.2,0.6-0.2,1.1h3.6C79.4,310.9,79.4,310.7,79.2,310.4z"/>
	<path class="st12" d="M84.8,315.5c-1.2,0-2.1-0.3-2.8-1l0.7-0.7c0.5,0.6,1.3,0.8,2.1,0.8c1.1,0,1.8-0.4,1.8-1.2
		c0-0.6-0.4-0.9-1.1-1l-1.1-0.1c-1.3-0.1-2.1-0.7-2.1-1.8c0-1.3,1.1-2,2.5-2c1,0,1.9,0.2,2.5,0.7l-0.7,0.7c-0.5-0.4-1.1-0.5-1.8-0.5
		c-1,0-1.5,0.4-1.5,1.1c0,0.6,0.3,0.9,1.2,1l1.1,0.1c1.2,0.1,2,0.6,2,1.9C87.6,314.8,86.4,315.5,84.8,315.5z"/>
</g>
<line class="st13" x1="30.1" y1="218.2" x2="171.6" y2="218.2"/>
<line class="st10" x1="101.4" y1="218.4" x2="101.4" y2="248.2"/>
<g>
	<rect x="27.9" y="227" class="st11" width="73" height="16.4"/>
	<path class="st14" d="M58.6,232.9v4.1h-1.9v-4.1l-3-5.9h2.1l1.9,4l1.8-4h2.1L58.6,232.9z"/>
	<path class="st14" d="M63,233.9c0,0.9,0.6,1.6,1.6,1.6c0.8,0,1.2-0.2,1.7-0.7l1.1,1.1c-0.7,0.7-1.5,1.1-2.8,1.1
		c-1.7,0-3.4-0.8-3.4-3.7c0-2.4,1.3-3.7,3.2-3.7c2,0,3.2,1.5,3.2,3.5v0.8H63z M65.6,231.8c-0.2-0.4-0.6-0.8-1.2-0.8
		c-0.6,0-1,0.3-1.2,0.8c-0.1,0.3-0.2,0.5-0.2,0.8h2.8C65.8,232.3,65.7,232.1,65.6,231.8z"/>
	<path class="st14" d="M71.6,237c-1.1,0-2.2-0.1-3.1-1l1.2-1.2c0.6,0.6,1.4,0.7,1.9,0.7c0.6,0,1.3-0.2,1.3-0.8
		c0-0.4-0.2-0.6-0.8-0.7l-1.1-0.1c-1.3-0.1-2.1-0.7-2.1-2c0-1.5,1.3-2.3,2.8-2.3c1.1,0,2.1,0.2,2.8,0.9l-1.1,1.1
		c-0.4-0.4-1.1-0.5-1.7-0.5c-0.7,0-1,0.3-1,0.7c0,0.3,0.1,0.6,0.8,0.6l1.1,0.1c1.4,0.1,2.2,0.9,2.2,2.1
		C74.7,236.3,73.4,237,71.6,237z"/>
</g>
<g>
	<rect x="101.4" y="227" class="st11" width="73" height="16.4"/>
	<path class="st14" d="M136.5,237l-4.6-7v7h-1.5v-10h1.4l4.6,7v-7h1.5v10H136.5z"/>
	<path class="st14" d="M145.1,236.2c-0.5,0.5-1.2,0.8-2.1,0.8s-1.7-0.4-2.1-0.8c-0.7-0.7-0.8-1.6-0.8-2.8c0-1.2,0.2-2.1,0.8-2.8
		c0.5-0.5,1.1-0.8,2.1-0.8s1.7,0.4,2.1,0.8c0.7,0.7,0.8,1.6,0.8,2.8C145.9,234.6,145.8,235.5,145.1,236.2z M144,231.4
		c-0.3-0.3-0.6-0.4-1.1-0.4s-0.8,0.1-1,0.4c-0.4,0.4-0.5,1.2-0.5,1.9s0.1,1.5,0.5,1.9c0.3,0.3,0.6,0.4,1,0.4s0.8-0.2,1.1-0.4
		c0.4-0.4,0.5-1.2,0.5-1.9S144.4,231.9,144,231.4z"/>
</g>
<path class="st15" d="M108.2,113.6c2.7-2,4.4-5.2,4.4-8.9c0,0,0-0.8,0-0.8l4.2,0c3.6,0,6.5-2.9,6.5-6.5c0-3.6-2.9-6.5-6.5-6.5H90.3
	v13.8c0,3.6,1.7,6.8,4.4,8.9l-15.5,0c0.8,2.4,3,4.1,5.7,4.1H118c2.7,0,5-1.6,5.7-4.1L108.2,113.6z M112.6,93.6h4.2
	c2.1,0,3.8,1.7,3.8,3.8c0,2.1-1.7,3.8-3.8,3.8h-4.2V93.6z"/>
<g>
</g>
<g>
</g>
<g>
</g>
<g>
</g>
<g>
</g>
<g>
</g>
</svg>
