<svg id="OUTLINES" xmlns="http://www.w3.org/2000/svg" viewBox="0 0 1152 1008"><defs><style>.cls-1{fill:#fff;}.cls-2{fill:#000f7c;}</style></defs><title>v5</title><rect class="cls-1" x="616.49" y="445.55" width="432" height="99" rx="18" ry="18"/><path class="cls-1" d="M1030.49,550.55h-396a24,24,0,0,1-24-24v-63a24,24,0,0,1,24-24h396a24,24,0,0,1,24,24v63A24,24,0,0,1,1030.49,550.55Zm-396-99a12,12,0,0,0-12,12v63a12,12,0,0,0,12,12h396a12,12,0,0,0,12-12v-63a12,12,0,0,0-12-12Z"/><path class="cls-2" d="M972,311H684a5,5,0,0,1-5-5V198a23,23,0,0,1,23-23H954a23,23,0,0,1,23,23V306A5,5,0,0,1,972,311ZM689,301H967V198a13,13,0,0,0-13-13H702a13,13,0,0,0-13,13Z"/><path class="cls-2" d="M936.44,689H702a23,23,0,0,1-23-23V544.5h10V666a13,13,0,0,0,13,13H925.21l-54.08-60.06A38.59,38.59,0,0,1,899.39,554h.46a5,5,0,0,1,3.48,1.46L967,619.14V540h10v91.21a5,5,0,0,1-8.53,3.54l-70.69-70.7a28.6,28.6,0,0,0-19.28,48.08l61.67,68.48a5,5,0,0,1-3.72,8.34Z"/><rect class="cls-1" x="616.49" y="301.55" width="432" height="144" rx="18" ry="18"/><path class="cls-1" d="M1030.49,451.55h-396a24,24,0,0,1-24-24v-108a24,24,0,0,1,24-24h396a24,24,0,0,1,24,24v108A24,24,0,0,1,1030.49,451.55Zm-396-144a12,12,0,0,0-12,12v108a12,12,0,0,0,12,12h396a12,12,0,0,0,12-12v-108a12,12,0,0,0-12-12Z"/><path class="cls-2" d="M828,657.45a23,23,0,1,1,23-23A23,23,0,0,1,828,657.45Zm0-36a13,13,0,1,0,13,13A13,13,0,0,0,828,621.45Z"/><path class="cls-2" d="M1026,447H630a24,24,0,0,1-24-24V315a24,24,0,0,1,24-24h396a24,24,0,0,1,24,24V423A24,24,0,0,1,1026,447ZM630,303a12,12,0,0,0-12,12V423a12,12,0,0,0,12,12h396a12,12,0,0,0,12-12V315a12,12,0,0,0-12-12Z"/><path class="cls-2" d="M810,546H630a24,24,0,0,1-24-24V459a24,24,0,0,1,24-24H810a24,24,0,0,1,24,24v63A24,24,0,0,1,810,546ZM630,447a12,12,0,0,0-12,12v63a12,12,0,0,0,12,12H810a12,12,0,0,0,12-12V459a12,12,0,0,0-12-12Z"/><path class="cls-2" d="M1026,546H846a24,24,0,0,1-24-24V459a24,24,0,0,1,24-24h180a24,24,0,0,1,24,24v63A24,24,0,0,1,1026,546ZM846,447a12,12,0,0,0-12,12v63a12,12,0,0,0,12,12h180a12,12,0,0,0,12-12V459a12,12,0,0,0-12-12Z"/><path class="cls-2" d="M720.55,476.37V504H716l-13-18.4V504h-5.54V476.37h5.4L715,493.83V476.37Z"/><path class="cls-2" d="M744.09,494a10.61,10.61,0,0,1-2.75,7.56,10.12,10.12,0,0,1-14.22,0,11.87,11.87,0,0,1,0-15.17,10.12,10.12,0,0,1,14.22,0A10.68,10.68,0,0,1,744.09,494Zm-5.54,0a7.09,7.09,0,0,0-1.14-4.21,4,4,0,0,0-6.35,0,7.09,7.09,0,0,0-1.15,4.21,7,7,0,0,0,1.15,4.16,4,4,0,0,0,6.35,0A7,7,0,0,0,738.55,494Z"/><path class="cls-2" d="M917.38,488.07l6.66-11.7h6.08l-10,17.15V504h-5.71V493.52l-10-17.15h6.26Z"/><path class="cls-2" d="M941.91,497.43h5.17a8,8,0,0,1-2.85,5.15,9.35,9.35,0,0,1-6.06,1.87,9.21,9.21,0,0,1-7.06-2.9,11.9,11.9,0,0,1,0-15.12,9,9,0,0,1,7-3,8.49,8.49,0,0,1,6.73,2.72,10.55,10.55,0,0,1,2.41,7.27v1.71H933.81a5.57,5.57,0,0,0,1.3,3.53,4,4,0,0,0,3.06,1.28Q941.23,500,941.91,497.43ZM938.13,488q-3.42,0-4.19,3.78h7.79a4.09,4.09,0,0,0-1-2.72A3.31,3.31,0,0,0,938.13,488Z"/><path class="cls-2" d="M949.51,498h5.54c.45,1.47,1.57,2.2,3.37,2.2s2.84-.66,2.84-2a1.31,1.31,0,0,0-.47-1.06,4.3,4.3,0,0,0-1.56-.65l-4.05-.9Q950,494.42,950,490a5.73,5.73,0,0,1,2.3-4.7,8.86,8.86,0,0,1,5.71-1.82,9.42,9.42,0,0,1,5.88,1.64,7.17,7.17,0,0,1,2.67,4.57h-5.31q-.63-2-3.15-2a3.4,3.4,0,0,0-1.86.49,1.56,1.56,0,0,0-.79,1.4c0,.75.6,1.27,1.8,1.57l4.14.95q5.35,1.31,5.35,5.85a5.67,5.67,0,0,1-2.31,4.77,9.55,9.55,0,0,1-5.92,1.75,10.32,10.32,0,0,1-6.12-1.69A6.74,6.74,0,0,1,949.51,498Z"/><path class="cls-2" d="M722.45,332.37h5.71L738.74,360h-5.85l-2.48-6.66H720.06L717.63,360h-5.76Zm2.79,6.93-3.38,9.18h6.75Z"/><path class="cls-2" d="M747.42,330.75V360h-5.58V330.75Z"/><path class="cls-2" d="M757.86,330.75V360h-5.58V330.75Z"/><path class="cls-2" d="M781.17,350a10.6,10.6,0,0,1-2.74,7.56,10.12,10.12,0,0,1-14.22,0,11.84,11.84,0,0,1,0-15.17,10.12,10.12,0,0,1,14.22,0A10.67,10.67,0,0,1,781.17,350Zm-5.53,0a7.09,7.09,0,0,0-1.15-4.21,4,4,0,0,0-6.35,0A7.09,7.09,0,0,0,767,350a7,7,0,0,0,1.14,4.16,4,4,0,0,0,6.35,0A7,7,0,0,0,775.64,350Z"/><path class="cls-2" d="M799.4,339.89l3.33,12.82,3.6-12.82h5.4L805.61,360h-5.13l-3.29-12.33L793.91,360h-5.13l-6.12-20.11h5.58l3.6,12.82,3.28-12.82Z"/><path class="cls-2" d="M840.8,360h-5.36v-1.08a4.93,4.93,0,0,1-1.93,1,9.66,9.66,0,0,1-3,.45,8.15,8.15,0,0,1-5.34-1.75,5.85,5.85,0,0,1-2.13-4.77,5.71,5.71,0,0,1,2.22-4.64,8.57,8.57,0,0,1,5.56-1.8,10.12,10.12,0,0,1,2.61.36,6.34,6.34,0,0,1,2,.81v-1.48a3.12,3.12,0,0,0-.83-2.23,3.21,3.21,0,0,0-2.45-.88,2.86,2.86,0,0,0-3,1.89h-5.31a7.11,7.11,0,0,1,2.76-4.61,10.19,10.19,0,0,1,11.93.22,7.39,7.39,0,0,1,2.23,5.7Zm-5.36-5.49v-1.44a2.62,2.62,0,0,0-1.37-1.28,5.27,5.27,0,0,0-2.27-.47,4.76,4.76,0,0,0-2.5.63,2.15,2.15,0,0,0,0,3.69,4.76,4.76,0,0,0,2.52.63,5.28,5.28,0,0,0,2.27-.48A2.62,2.62,0,0,0,835.44,354.51Z"/><path class="cls-2" d="M844.08,350a10.78,10.78,0,0,1,2.7-7.61,10,10,0,0,1,13-.94,8.1,8.1,0,0,1,2.79,5.26h-5.5a2.81,2.81,0,0,0-1.1-1.82,3.58,3.58,0,0,0-2.23-.65,3.52,3.52,0,0,0-3,1.57,7.07,7.07,0,0,0-1.12,4.19,7,7,0,0,0,1.12,4.14,3.52,3.52,0,0,0,3,1.57A3.64,3.64,0,0,0,856,355a2.83,2.83,0,0,0,1.1-1.82h5.5a8.12,8.12,0,0,1-2.77,5.26,10,10,0,0,1-13-.94A10.71,10.71,0,0,1,844.08,350Z"/><path class="cls-2" d="M864.78,350a10.78,10.78,0,0,1,2.7-7.61,10,10,0,0,1,13-.94,8.05,8.05,0,0,1,2.79,5.26h-5.49a2.81,2.81,0,0,0-1.1-1.82,3.6,3.6,0,0,0-2.23-.65,3.51,3.51,0,0,0-3,1.57,7.07,7.07,0,0,0-1.13,4.19,7,7,0,0,0,1.13,4.14,3.51,3.51,0,0,0,3,1.57,3.66,3.66,0,0,0,2.23-.65,2.83,2.83,0,0,0,1.1-1.82h5.49a8.11,8.11,0,0,1-2.76,5.26,10,10,0,0,1-13-.94A10.71,10.71,0,0,1,864.78,350Z"/><path class="cls-2" d="M899,353.43h5.17a8,8,0,0,1-2.85,5.15,9.35,9.35,0,0,1-6.06,1.87,9.21,9.21,0,0,1-7.06-2.9,11.9,11.9,0,0,1,0-15.12,9,9,0,0,1,6.95-3,8.49,8.49,0,0,1,6.73,2.72,10.55,10.55,0,0,1,2.41,7.27v1.71H890.88a5.57,5.57,0,0,0,1.3,3.53,4,4,0,0,0,3.06,1.28Q898.3,356,899,353.43ZM895.2,344q-3.42,0-4.19,3.78h7.79a4.09,4.09,0,0,0-1-2.72A3.31,3.31,0,0,0,895.2,344Z"/><path class="cls-2" d="M906.58,354h5.54c.45,1.47,1.57,2.2,3.37,2.2s2.84-.66,2.84-2a1.31,1.31,0,0,0-.47-1.06,4.3,4.3,0,0,0-1.56-.65l-4-.9Q907,350.42,907,346a5.73,5.73,0,0,1,2.3-4.7,8.86,8.86,0,0,1,5.71-1.82,9.42,9.42,0,0,1,5.88,1.64,7.17,7.17,0,0,1,2.67,4.57h-5.31q-.63-2-3.15-2a3.4,3.4,0,0,0-1.86.49,1.56,1.56,0,0,0-.79,1.4c0,.75.6,1.27,1.8,1.57l4.14.95q5.36,1.31,5.35,5.85a5.67,5.67,0,0,1-2.31,4.77,9.55,9.55,0,0,1-5.92,1.75,10.32,10.32,0,0,1-6.12-1.69A6.74,6.74,0,0,1,906.58,354Z"/><path class="cls-2" d="M926.25,354h5.53c.45,1.47,1.58,2.2,3.38,2.2s2.83-.66,2.83-2a1.28,1.28,0,0,0-.47-1.06,4.16,4.16,0,0,0-1.55-.65l-4.05-.9q-5.22-1.22-5.22-5.67a5.72,5.72,0,0,1,2.29-4.7,8.89,8.89,0,0,1,5.72-1.82,9.37,9.37,0,0,1,5.87,1.64,7.18,7.18,0,0,1,2.68,4.57H938q-.63-2-3.15-2a3.45,3.45,0,0,0-1.87.49,1.58,1.58,0,0,0-.79,1.4c0,.75.6,1.27,1.8,1.57l4.14.95q5.35,1.31,5.36,5.85a5.65,5.65,0,0,1-2.32,4.77,9.53,9.53,0,0,1-5.92,1.75,10.32,10.32,0,0,1-6.12-1.69A6.73,6.73,0,0,1,926.25,354Z"/><path class="cls-2" d="M680.48,398.93v-9.54h-3.06v-4.5h3.06v-5.45H686v5.45h4.41v4.5H686v8.82a2,2,0,0,0,2.29,2.29,4.35,4.35,0,0,0,2.43-.67v4.95a7.89,7.89,0,0,1-3.6.63,7,7,0,0,1-4.9-1.62A6.3,6.3,0,0,1,680.48,398.93Z"/><path class="cls-2" d="M713.06,395a10.6,10.6,0,0,1-2.74,7.56,10.12,10.12,0,0,1-14.22,0,11.84,11.84,0,0,1,0-15.17,10.12,10.12,0,0,1,14.22,0A10.67,10.67,0,0,1,713.06,395Zm-5.53,0a7,7,0,0,0-1.15-4.21,3.94,3.94,0,0,0-6.34,0,7,7,0,0,0-1.15,4.21,6.94,6.94,0,0,0,1.15,4.16,3.94,3.94,0,0,0,6.34,0A6.94,6.94,0,0,0,707.53,395Z"/><path class="cls-2" d="M734.57,412.43h-5.49l2.93-7.34-7.7-20.2h5.9l4.63,13.36,4.59-13.36h5.63Z"/><path class="cls-2" d="M765.89,395a10.6,10.6,0,0,1-2.74,7.56,10.12,10.12,0,0,1-14.22,0,11.84,11.84,0,0,1,0-15.17,10.12,10.12,0,0,1,14.22,0A10.67,10.67,0,0,1,765.89,395Zm-5.53,0a7,7,0,0,0-1.15-4.21,3.94,3.94,0,0,0-6.34,0,7,7,0,0,0-1.15,4.21,6.94,6.94,0,0,0,1.15,4.16,3.94,3.94,0,0,0,6.34,0A6.94,6.94,0,0,0,760.36,395Z"/><path class="cls-2" d="M787.27,384.89V405h-5.58v-1.84a6.93,6.93,0,0,1-5.4,2.29,6.73,6.73,0,0,1-5.2-2,7.68,7.68,0,0,1-1.87-5.4V384.89h5.58v12a3.88,3.88,0,0,0,.81,2.61,3,3,0,0,0,2.43.95,3.71,3.71,0,0,0,2.3-.75,3.45,3.45,0,0,0,1.3-2V384.89Z"/><path class="cls-2" d="M804.28,384.8v5.58a5.34,5.34,0,0,0-2.79-.68,4.18,4.18,0,0,0-2.48.74,3.47,3.47,0,0,0-1.35,2.1V405h-5.58V384.89h5.58v2a4.86,4.86,0,0,1,4.5-2.43A4.55,4.55,0,0,1,804.28,384.8Z"/><path class="cls-2" d="M823,375.75V405h-5.58V375.75Z"/><path class="cls-2" d="M846.31,395a10.61,10.61,0,0,1-2.75,7.56,10.12,10.12,0,0,1-14.22,0,11.87,11.87,0,0,1,0-15.17,10.12,10.12,0,0,1,14.22,0A10.68,10.68,0,0,1,846.31,395Zm-5.54,0a7,7,0,0,0-1.15-4.21,3.94,3.94,0,0,0-6.34,0,7,7,0,0,0-1.15,4.21,6.94,6.94,0,0,0,1.15,4.16,3.94,3.94,0,0,0,6.34,0A6.94,6.94,0,0,0,840.77,395Z"/><path class="cls-2" d="M848.78,395a10.78,10.78,0,0,1,2.7-7.61,10,10,0,0,1,13-.94,8.05,8.05,0,0,1,2.79,5.26h-5.49a2.82,2.82,0,0,0-1.11-1.82,3.57,3.57,0,0,0-2.22-.65,3.53,3.53,0,0,0-3,1.57,7.07,7.07,0,0,0-1.12,4.19,7,7,0,0,0,1.12,4.14,3.53,3.53,0,0,0,3,1.57,3.63,3.63,0,0,0,2.22-.65,2.84,2.84,0,0,0,1.11-1.82h5.49a8.12,8.12,0,0,1-2.77,5.26,10,10,0,0,1-13-.94A10.71,10.71,0,0,1,848.78,395Z"/><path class="cls-2" d="M887.21,405h-5.35v-1.08a5,5,0,0,1-1.94,1,9.62,9.62,0,0,1-3,.45,8.11,8.11,0,0,1-5.33-1.75,5.83,5.83,0,0,1-2.14-4.77,5.69,5.69,0,0,1,2.23-4.64,8.55,8.55,0,0,1,5.56-1.8,10.12,10.12,0,0,1,2.61.36,6.34,6.34,0,0,1,2,.81v-1.48a3.09,3.09,0,0,0-.84-2.23,3.19,3.19,0,0,0-2.45-.88,2.86,2.86,0,0,0-3,1.89h-5.31a7.12,7.12,0,0,1,2.77-4.61,10.17,10.17,0,0,1,11.92.22,7.35,7.35,0,0,1,2.23,5.7Zm-5.35-5.49v-1.44a2.6,2.6,0,0,0-1.38-1.28,5.21,5.21,0,0,0-2.27-.47,4.81,4.81,0,0,0-2.5.63,2.16,2.16,0,0,0,0,3.69,4.76,4.76,0,0,0,2.52.63,5.21,5.21,0,0,0,2.27-.48A2.6,2.6,0,0,0,881.86,399.51Z"/><path class="cls-2" d="M892.79,398.93v-9.54h-3.06v-4.5h3.06v-5.45h5.54v5.45h4.41v4.5h-4.41v8.82a2,2,0,0,0,2.29,2.29,4.35,4.35,0,0,0,2.43-.67v4.95a7.89,7.89,0,0,1-3.6.63,7,7,0,0,1-4.9-1.62A6.3,6.3,0,0,1,892.79,398.93Z"/><path class="cls-2" d="M913.18,379.08a3,3,0,0,1-1,2.3,3.49,3.49,0,0,1-4.68,0,3.15,3.15,0,0,1,0-4.57,3.29,3.29,0,0,1,2.34-.92,3.23,3.23,0,0,1,2.32.92A3,3,0,0,1,913.18,379.08Zm-.5,5.81V405H907.1V384.89Z"/><path class="cls-2" d="M936,395a10.6,10.6,0,0,1-2.74,7.56,10.12,10.12,0,0,1-14.22,0,11.84,11.84,0,0,1,0-15.17,10.12,10.12,0,0,1,14.22,0A10.67,10.67,0,0,1,936,395Zm-5.53,0a7.09,7.09,0,0,0-1.15-4.21,4,4,0,0,0-6.35,0,7.09,7.09,0,0,0-1.14,4.21,7,7,0,0,0,1.14,4.16,4,4,0,0,0,6.35,0A7,7,0,0,0,930.46,395Z"/><path class="cls-2" d="M939.54,405V384.89h5.58v1.84a7.66,7.66,0,0,1,10.65-.27,7.67,7.67,0,0,1,1.86,5.4V405h-5.57V393a3.82,3.82,0,0,0-.84-2.59,3.06,3.06,0,0,0-2.45-1,3.8,3.8,0,0,0-2.32.74,3.47,3.47,0,0,0-1.33,2V405Z"/><path class="cls-2" d="M978.25,385.07a6.77,6.77,0,0,1-.14,1.37,5.58,5.58,0,0,1-.45,1.3l-.54,1.11a6.07,6.07,0,0,1-.79,1.12l-.81,1c-.16.19-.48.54-.94,1l-.88.93a4.86,4.86,0,0,0-1.62,3.19h-5.54a7.27,7.27,0,0,1,.61-2.7,13.22,13.22,0,0,1,1.92-2.7c.14-.18.52-.59,1.12-1.24s1-1.1,1.22-1.37a7.07,7.07,0,0,0,.67-1.17,3.57,3.57,0,0,0,.36-1.53,3.29,3.29,0,0,0-.92-2.41,3.48,3.48,0,0,0-2.55-.92,3.28,3.28,0,0,0-2.6,1.08,4.41,4.41,0,0,0-1,2.75h-5.94a10,10,0,0,1,3-6.46,9.25,9.25,0,0,1,6.7-2.5,9.61,9.61,0,0,1,6.68,2.21A7.58,7.58,0,0,1,978.25,385.07ZM965.6,401.85a3.36,3.36,0,0,1,1-2.5,3.53,3.53,0,0,1,2.53-1,3.48,3.48,0,0,1,2.51,1,3.34,3.34,0,0,1,1,2.5,3.26,3.26,0,0,1-1,2.45,3.45,3.45,0,0,1-2.51,1,3.49,3.49,0,0,1-2.53-1A3.29,3.29,0,0,1,965.6,401.85Z"/><path class="cls-2" d="M323.8,657.45a23,23,0,1,1,23-23A23,23,0,0,1,323.8,657.45Zm0-36a13,13,0,1,0,13,13A13,13,0,0,0,323.8,621.45Z"/><path class="cls-2" d="M562.12,811.39a5,5,0,0,1-5-5V673.15A139.57,139.57,0,0,0,516,573.79L486.11,544a5,5,0,1,1,7.06-7.07L523,566.71a149.55,149.55,0,0,1,44.1,106.44V806.39A5,5,0,0,1,562.12,811.39Z"/><path class="cls-2" d="M364.71,815a5,5,0,0,1-5-5V786.49a77.91,77.91,0,0,1-40.91-68.85V688.45a5,5,0,0,1,10,0v29.19A68,68,0,0,0,366.92,779a5,5,0,0,1,2.79,4.48V810A5,5,0,0,1,364.71,815Z"/><path class="cls-2" d="M433.81,786.44A5,5,0,0,1,430,784.7a78.35,78.35,0,0,1-2.79-98.85l-60.29-67A38.59,38.59,0,0,1,395.2,554h.46a5,5,0,0,1,3.48,1.46L505.71,662.05a5,5,0,1,1-7.07,7.07L393.58,564.05a28.59,28.59,0,0,0-19.27,48.08l63.21,70.21a5,5,0,0,1,.08,6.61,68.35,68.35,0,0,0,0,89.22,5,5,0,0,1-3.78,8.27Z"/><path class="cls-2" d="M432.25,689H197.8a23,23,0,0,1-23-23V540h10V666a13,13,0,0,0,13,13H421l-54.08-60.06A38.59,38.59,0,0,1,395.2,554h.46a5,5,0,0,1,3.48,1.46l63.66,63.67V540h10v91.21a5,5,0,0,1-8.53,3.54l-70.69-70.7a28.6,28.6,0,0,0-19.28,48.08L436,680.61a5,5,0,0,1-3.72,8.34Z"/><path class="cls-2" d="M828.51,202.5h-1c-23.54.19-36.16,27.86-21.12,46l21.63,26,21.63-26C864.66,230.36,852.05,202.69,828.51,202.5ZM828,243.05a13.5,13.5,0,1,1,13.5-13.5A13.5,13.5,0,0,1,828,243.05Z"/><path class="cls-2" d="M150.74,436.36v-5h23.58v5h-8.91V459H159.6V436.36Z"/><path class="cls-2" d="M191.37,459H186v-1.08a5,5,0,0,1-1.94,1,9.62,9.62,0,0,1-3,.45,8.11,8.11,0,0,1-5.33-1.75,5.83,5.83,0,0,1-2.14-4.77,5.69,5.69,0,0,1,2.23-4.64,8.55,8.55,0,0,1,5.56-1.8,10.12,10.12,0,0,1,2.61.36,6.34,6.34,0,0,1,2,.81V446a3.12,3.12,0,0,0-.83-2.23,3.23,3.23,0,0,0-2.46-.88,2.86,2.86,0,0,0-3,1.89h-5.31a7.12,7.12,0,0,1,2.77-4.61,10.19,10.19,0,0,1,11.93.22,7.38,7.38,0,0,1,2.22,5.7ZM186,453.46V452a2.62,2.62,0,0,0-1.37-1.28,5.29,5.29,0,0,0-2.28-.47,4.81,4.81,0,0,0-2.5.63,2.16,2.16,0,0,0,0,3.69,4.76,4.76,0,0,0,2.52.63,5.29,5.29,0,0,0,2.28-.48A2.62,2.62,0,0,0,186,453.46Z"/><path class="cls-2" d="M208.74,457.6v-1.17a6.05,6.05,0,0,1-5,2.07,8.27,8.27,0,0,1-6.66-2.92,11.54,11.54,0,0,1,0-14.27,8.27,8.27,0,0,1,6.66-2.92,6.2,6.2,0,0,1,5,2v-1.57h5.54v17.91q0,5-2.7,7.53a10,10,0,0,1-7.16,2.55,10.32,10.32,0,0,1-6.41-1.89,7.55,7.55,0,0,1-2.95-5.27h5.4q.67,2.83,4,2.84Q208.74,462.51,208.74,457.6Zm0-5.89v-6.57a4.14,4.14,0,0,0-3.78-2.07,4.29,4.29,0,0,0-3.46,1.48,5.78,5.78,0,0,0-1.26,3.87,5.85,5.85,0,0,0,1.26,3.89,4.59,4.59,0,0,0,5.69.9A4.38,4.38,0,0,0,208.74,451.71Z"/><path class="cls-2" d="M229.89,452.88v-9.54h-3.06v-4.5h3.06v-5.45h5.54v5.45h4.41v4.5h-4.41v8.82a2,2,0,0,0,2.29,2.29,4.35,4.35,0,0,0,2.43-.67v5a7.89,7.89,0,0,1-3.6.63,7,7,0,0,1-4.9-1.62A6.3,6.3,0,0,1,229.89,452.88Z"/><path class="cls-2" d="M244.2,459V429.7h5.58v11a7.65,7.65,0,0,1,10.64-.27,7.63,7.63,0,0,1,1.87,5.4V459h-5.58V447a3.87,3.87,0,0,0-.83-2.59,3.07,3.07,0,0,0-2.45-1,3.76,3.76,0,0,0-2.32.74,3.42,3.42,0,0,0-1.33,2.05V459Z"/><path class="cls-2" d="M273,433a3,3,0,0,1-1,2.3,3.28,3.28,0,0,1-2.32.9,3.34,3.34,0,0,1-2.36-.9,3,3,0,0,1-1-2.3,3,3,0,0,1,1-2.27,3.29,3.29,0,0,1,2.34-.92,3.21,3.21,0,0,1,2.32.92A3,3,0,0,1,273,433Zm-.5,5.81V459h-5.58V438.84Z"/><path class="cls-2" d="M276.06,453h5.54c.45,1.47,1.57,2.2,3.37,2.2s2.84-.66,2.84-2a1.29,1.29,0,0,0-.48-1.06,4.16,4.16,0,0,0-1.55-.65l-4-.9q-5.22-1.21-5.22-5.67a5.7,5.7,0,0,1,2.3-4.7,8.86,8.86,0,0,1,5.71-1.82,9.37,9.37,0,0,1,5.87,1.64,7.14,7.14,0,0,1,2.68,4.57h-5.31q-.63-2-3.15-2a3.45,3.45,0,0,0-1.87.49,1.58,1.58,0,0,0-.79,1.4c0,.75.61,1.27,1.81,1.57l4.14.95c3.56.87,5.35,2.82,5.35,5.85a5.65,5.65,0,0,1-2.32,4.77A9.51,9.51,0,0,1,285,459.4a10.28,10.28,0,0,1-6.12-1.69A6.71,6.71,0,0,1,276.06,453Z"/><path class="cls-2" d="M312.15,457.29v9.09h-5.58V438.84h5.58v1.66a5.84,5.84,0,0,1,2.11-1.48,7.05,7.05,0,0,1,2.93-.63,8.19,8.19,0,0,1,6.7,3,11.51,11.51,0,0,1,2.48,7.5,11.39,11.39,0,0,1-2.48,7.47,8.2,8.2,0,0,1-6.7,3,7.05,7.05,0,0,1-2.93-.63A5.84,5.84,0,0,1,312.15,457.29Zm0-11.7v6.61a4.07,4.07,0,0,0,1.53,1.69,4.18,4.18,0,0,0,2.25.65,4.32,4.32,0,0,0,3.51-1.57,6.13,6.13,0,0,0,1.3-4.05,6.26,6.26,0,0,0-1.3-4.08,4.31,4.31,0,0,0-3.51-1.59,4,4,0,0,0-2.23.65A4.41,4.41,0,0,0,312.15,445.59Z"/><path class="cls-2" d="M329.92,459V429.7h5.58v11a7.66,7.66,0,0,1,10.65-.27,7.67,7.67,0,0,1,1.86,5.4V459h-5.58V447a3.82,3.82,0,0,0-.83-2.59,3.06,3.06,0,0,0-2.45-1,3.8,3.8,0,0,0-2.32.74,3.47,3.47,0,0,0-1.33,2.05V459Z"/><path class="cls-2" d="M371.1,448.92a10.61,10.61,0,0,1-2.75,7.56,10.12,10.12,0,0,1-14.22,0,11.87,11.87,0,0,1,0-15.17,10.12,10.12,0,0,1,14.22,0A10.68,10.68,0,0,1,371.1,448.92Zm-5.54,0a7.09,7.09,0,0,0-1.14-4.21,4,4,0,0,0-6.35,0,7.09,7.09,0,0,0-1.15,4.21,7,7,0,0,0,1.15,4.16,4,4,0,0,0,6.35,0A7,7,0,0,0,365.56,448.92Z"/><path class="cls-2" d="M375.87,452.88v-9.54h-3.06v-4.5h3.06v-5.45h5.53v5.45h4.41v4.5H381.4v8.82a2,2,0,0,0,2.3,2.29,4.35,4.35,0,0,0,2.43-.67v5a7.89,7.89,0,0,1-3.6.63,7,7,0,0,1-4.91-1.62A6.29,6.29,0,0,1,375.87,452.88Z"/><path class="cls-2" d="M408.45,448.92a10.61,10.61,0,0,1-2.75,7.56,10.12,10.12,0,0,1-14.22,0,11.87,11.87,0,0,1,0-15.17,10.12,10.12,0,0,1,14.22,0A10.68,10.68,0,0,1,408.45,448.92Zm-5.54,0a7.09,7.09,0,0,0-1.14-4.21,4,4,0,0,0-6.35,0,7.09,7.09,0,0,0-1.15,4.21,7,7,0,0,0,1.15,4.16,4,4,0,0,0,6.35,0A7,7,0,0,0,402.91,448.92Z"/><path class="cls-2" d="M436.44,438.84l3.33,12.82,3.6-12.82h5.4L442.65,459h-5.13l-3.29-12.33L431,459h-5.13l-6.12-20.11h5.58l3.6,12.82,3.28-12.82Z"/><path class="cls-2" d="M457.86,433a3,3,0,0,1-1,2.3,3.49,3.49,0,0,1-4.68,0,3.15,3.15,0,0,1,0-4.57,3.29,3.29,0,0,1,2.34-.92,3.23,3.23,0,0,1,2.32.92A3,3,0,0,1,457.86,433Zm-.5,5.81V459h-5.58V438.84Z"/><path class="cls-2" d="M463.44,452.88v-9.54h-3.06v-4.5h3.06v-5.45H469v5.45h4.41v4.5H469v8.82a2,2,0,0,0,2.3,2.29,4.35,4.35,0,0,0,2.43-.67v5a7.89,7.89,0,0,1-3.6.63,7,7,0,0,1-4.91-1.62A6.29,6.29,0,0,1,463.44,452.88Z"/><path class="cls-2" d="M477.75,459V429.7h5.58v11a7.65,7.65,0,0,1,10.64-.27,7.68,7.68,0,0,1,1.87,5.4V459h-5.58V447a3.82,3.82,0,0,0-.84-2.59,3.06,3.06,0,0,0-2.45-1,3.8,3.8,0,0,0-2.32.74,3.45,3.45,0,0,0-1.32,2.05V459Z"/><path class="cls-2" d="M206.94,511.38h-5.49l2.93-7.34-7.7-20.2h5.9l4.63,13.36,4.59-13.36h5.63Z"/><path class="cls-2" d="M238.26,493.92a10.6,10.6,0,0,1-2.74,7.56,10.12,10.12,0,0,1-14.22,0,11.84,11.84,0,0,1,0-15.17,10.12,10.12,0,0,1,14.22,0A10.67,10.67,0,0,1,238.26,493.92Zm-5.53,0a7.09,7.09,0,0,0-1.15-4.21,4,4,0,0,0-6.35,0,7.09,7.09,0,0,0-1.14,4.21,7,7,0,0,0,1.14,4.16,4,4,0,0,0,6.35,0A7,7,0,0,0,232.73,493.92Z"/><path class="cls-2" d="M259.64,483.84V504h-5.58v-1.84a6.93,6.93,0,0,1-5.41,2.29,6.71,6.71,0,0,1-5.19-2,7.63,7.63,0,0,1-1.87-5.4V483.84h5.58v12a3.88,3.88,0,0,0,.81,2.61,3,3,0,0,0,2.43,1,3.71,3.71,0,0,0,2.3-.75,3.5,3.5,0,0,0,1.3-2V483.84Z"/><path class="cls-2" d="M276.65,483.75v5.58a5.38,5.38,0,0,0-2.8-.68,4.17,4.17,0,0,0-2.47.74,3.47,3.47,0,0,0-1.35,2.1V504h-5.58V483.84H270v2a4.86,4.86,0,0,1,4.5-2.43A4.58,4.58,0,0,1,276.65,483.75Z"/><path class="cls-2" d="M295.36,474.7V504h-5.58V474.7Z"/><path class="cls-2" d="M318.67,493.92a10.6,10.6,0,0,1-2.74,7.56,10.12,10.12,0,0,1-14.22,0,11.84,11.84,0,0,1,0-15.17,10.12,10.12,0,0,1,14.22,0A10.67,10.67,0,0,1,318.67,493.92Zm-5.53,0a7,7,0,0,0-1.15-4.21,3.94,3.94,0,0,0-6.34,0,7,7,0,0,0-1.15,4.21,6.94,6.94,0,0,0,1.15,4.16,3.94,3.94,0,0,0,6.34,0A6.94,6.94,0,0,0,313.14,493.92Z"/><path class="cls-2" d="M321.15,493.92a10.78,10.78,0,0,1,2.7-7.61,10,10,0,0,1,13-.94,8.05,8.05,0,0,1,2.79,5.26h-5.49a2.81,2.81,0,0,0-1.1-1.82,3.6,3.6,0,0,0-2.23-.65,3.51,3.51,0,0,0-3,1.57,7.07,7.07,0,0,0-1.13,4.19,7,7,0,0,0,1.13,4.14,3.51,3.51,0,0,0,3,1.57,3.66,3.66,0,0,0,2.23-.65,2.83,2.83,0,0,0,1.1-1.82h5.49a8.11,8.11,0,0,1-2.76,5.26,10,10,0,0,1-13-.94A10.71,10.71,0,0,1,321.15,493.92Z"/><path class="cls-2" d="M359.58,504h-5.36v-1.08a4.93,4.93,0,0,1-1.93,1,9.62,9.62,0,0,1-3,.45,8.11,8.11,0,0,1-5.33-1.75,5.83,5.83,0,0,1-2.14-4.77,5.69,5.69,0,0,1,2.23-4.64,8.53,8.53,0,0,1,5.55-1.8,10.12,10.12,0,0,1,2.61.36,6.34,6.34,0,0,1,2,.81V491a3.08,3.08,0,0,0-.83-2.23,3.19,3.19,0,0,0-2.45-.88,2.86,2.86,0,0,0-3,1.89h-5.31a7.12,7.12,0,0,1,2.77-4.61,10.17,10.17,0,0,1,11.92.22,7.35,7.35,0,0,1,2.23,5.7Zm-5.36-5.49V497a2.58,2.58,0,0,0-1.37-1.28,5.21,5.21,0,0,0-2.27-.47,4.81,4.81,0,0,0-2.5.63,2.15,2.15,0,0,0,0,3.69,4.76,4.76,0,0,0,2.52.63,5.21,5.21,0,0,0,2.27-.48A2.58,2.58,0,0,0,354.22,498.46Z"/><path class="cls-2" d="M365.16,497.88v-9.54H362.1v-4.5h3.06v-5.45h5.53v5.45h4.41v4.5h-4.41v8.82a2,2,0,0,0,2.3,2.29,4.35,4.35,0,0,0,2.43-.67v5a7.89,7.89,0,0,1-3.6.63,7,7,0,0,1-4.91-1.62A6.29,6.29,0,0,1,365.16,497.88Z"/><path class="cls-2" d="M385.54,478a3,3,0,0,1-1,2.3,3.26,3.26,0,0,1-2.31.9,3.33,3.33,0,0,1-2.36-.9,3.15,3.15,0,0,1,0-4.57,3.34,3.34,0,0,1,2.34-.92,3.23,3.23,0,0,1,2.31.92A3,3,0,0,1,385.54,478Zm-.49,5.81V504h-5.58V483.84Z"/><path class="cls-2" d="M408.36,493.92a10.61,10.61,0,0,1-2.75,7.56,10.12,10.12,0,0,1-14.22,0,11.87,11.87,0,0,1,0-15.17,10.12,10.12,0,0,1,14.22,0A10.68,10.68,0,0,1,408.36,493.92Zm-5.54,0a7.09,7.09,0,0,0-1.14-4.21,4,4,0,0,0-6.35,0,7.09,7.09,0,0,0-1.15,4.21,7,7,0,0,0,1.15,4.16,4,4,0,0,0,6.35,0A7,7,0,0,0,402.82,493.92Z"/><path class="cls-2" d="M411.91,504V483.84h5.58v1.84a7.66,7.66,0,0,1,10.65-.27,7.67,7.67,0,0,1,1.86,5.4V504h-5.58V492a3.82,3.82,0,0,0-.83-2.59,3.07,3.07,0,0,0-2.45-1,3.8,3.8,0,0,0-2.32.74,3.47,3.47,0,0,0-1.33,2.05V504Z"/><path class="cls-2" d="M450.61,484a6.78,6.78,0,0,1-.13,1.37,5.58,5.58,0,0,1-.45,1.3l-.54,1.11a6.6,6.6,0,0,1-.79,1.12l-.81,1c-.16.19-.48.54-.95,1l-.87.93a4.86,4.86,0,0,0-1.62,3.19h-5.54a7.27,7.27,0,0,1,.61-2.7,13.1,13.1,0,0,1,1.91-2.7c.15-.18.53-.59,1.13-1.24s1-1.1,1.21-1.37a6.37,6.37,0,0,0,.68-1.17,3.57,3.57,0,0,0,.36-1.53,3.29,3.29,0,0,0-.92-2.41,3.48,3.48,0,0,0-2.55-.92,3.29,3.29,0,0,0-2.61,1.08,4.41,4.41,0,0,0-1,2.75h-5.94a10,10,0,0,1,3-6.46,9.29,9.29,0,0,1,6.71-2.5,9.63,9.63,0,0,1,6.68,2.21A7.57,7.57,0,0,1,450.61,484ZM438,500.8a3.36,3.36,0,0,1,1-2.5,3.65,3.65,0,0,1,5,0,3.37,3.37,0,0,1,1,2.5,3.3,3.3,0,0,1-1,2.45,3.62,3.62,0,0,1-5,0A3.29,3.29,0,0,1,438,500.8Z"/><path class="cls-2" d="M521.8,546h-396a24,24,0,0,1-24-24V414a24,24,0,0,1,24-24h396a24,24,0,0,1,24,24V522A24,24,0,0,1,521.8,546Zm-396-144a12,12,0,0,0-12,12V522a12,12,0,0,0,12,12h396a12,12,0,0,0,12-12V414a12,12,0,0,0-12-12Z"/><path class="cls-2" d="M521.8,402h-396a24,24,0,0,1-24-24V198a24,24,0,0,1,24-24h396a24,24,0,0,1,24,24V378A24,24,0,0,1,521.8,402Zm-396-216a12,12,0,0,0-12,12V378a12,12,0,0,0,12,12h396a12,12,0,0,0,12-12V198a12,12,0,0,0-12-12Z"/><path class="cls-2" d="M193,399.54,186,392.47,320.27,258.15a5,5,0,0,1,7.07,0L461.61,392.42l-7.07,7.07L323.8,268.75Z"/><path class="cls-2" d="M536.27,344.86l-94.6-94.6L377,314.9,370,307.83l68.18-68.18a5,5,0,0,1,7.07,0l98.13,98.14Z"/><path class="cls-2" d="M216,369.5a81.5,81.5,0,1,1,81.5-81.5c0,1.83-.06,3.68-.18,5.5l-10-.67c.11-1.6.16-3.22.16-4.83A71.5,71.5,0,1,0,216,359.5c1.61,0,3.24-.05,4.84-.16l.66,10C219.67,369.44,217.82,369.5,216,369.5Z"/><path class="cls-2" d="M1066.32,811.39a5,5,0,0,1-5-5V673.15a139.61,139.61,0,0,0-41.16-99.36l-30.25-30.26a5,5,0,1,1,7.07-7.07l30.25,30.25a149.58,149.58,0,0,1,44.09,106.44V806.39A5,5,0,0,1,1066.32,811.39Z"/><path class="cls-2" d="M868.91,815a5,5,0,0,1-5-5V786.49A77.91,77.91,0,0,1,823,717.64V687a5,5,0,0,1,10,0v30.61A68,68,0,0,0,871.13,779a5,5,0,0,1,2.78,4.48V810A5,5,0,0,1,868.91,815Z"/><path class="cls-2" d="M938,786.44a5,5,0,0,1-3.79-1.74,78.35,78.35,0,0,1-2.79-98.85l-60.29-67A38.59,38.59,0,0,1,899.41,554h.47a5,5,0,0,1,3.47,1.46l106.57,106.58a5,5,0,1,1-7.08,7.07L897.78,564.05a28.59,28.59,0,0,0-19.27,48.07l63.22,70.21a5,5,0,0,1,.07,6.62,68.33,68.33,0,0,0,0,89.22,5,5,0,0,1-3.79,8.27Z"/><path class="cls-2" d="M515.86,670.59H502.18a5,5,0,1,1,0-10h13.68a5,5,0,0,1,0,10Z"/></svg>