<?xml version="1.0" encoding="utf-8"?>
<!-- Generator: Adobe Illustrator 19.1.0, SVG Export Plug-In . SVG Version: 6.00 Build 0)  -->
<svg version="1.1" id="Layer_1" xmlns="http://www.w3.org/2000/svg" xmlns:xlink="http://www.w3.org/1999/xlink" x="0px" y="0px"
	 viewBox="0 0 661.8 425" style="enable-background:new 0 0 661.8 425;" xml:space="preserve">
<style type="text/css">
	.st0{fill:#ECECEC;}
	.st1{fill:#FFFFFF;}
	.st2{fill:#FFFFFF;stroke:#010101;stroke-width:2;stroke-miterlimit:10;}
	.st3{fill:#ECECEC;stroke:#1A1A1A;stroke-miterlimit:10;}
	.st4{fill:#FFFFFF;stroke:#010101;stroke-miterlimit:10;}
	.st5{fill:#010101;stroke:#FFFFFF;stroke-width:0.746;stroke-miterlimit:10;}
	.st6{fill:#010101;stroke:#FFFFFF;stroke-width:0.8525;stroke-miterlimit:10;}
	.st7{fill:none;stroke:#1D1D1B;stroke-miterlimit:10;}
	.st8{fill:none;}
	.st9{fill:#1D1D1B;}
	.st10{fill:none;stroke:#1D1D1B;stroke-width:0.9816;stroke-miterlimit:10;}
	.st11{fill:#3A50A2;}
	.st12{fill:none;stroke:#3A50A2;stroke-width:2;stroke-miterlimit:10;}
	.st13{fill:none;stroke:#3A50A2;stroke-miterlimit:10;}
	.st14{fill:none;stroke:#3A50A2;stroke-linecap:round;stroke-linejoin:round;}
	.st15{fill:none;stroke:#3A50A2;stroke-linecap:round;stroke-linejoin:round;stroke-dasharray:3.9032,3.9032;}
	.st16{fill:none;stroke:#3A50A2;stroke-linecap:round;stroke-linejoin:round;stroke-dasharray:4.1779,4.1779;}
	.st17{fill:none;stroke:#3A50A2;stroke-linecap:round;stroke-linejoin:round;stroke-dasharray:3.791,3.791;}
	.st18{fill:none;stroke:#3A50A2;stroke-linecap:round;stroke-linejoin:round;stroke-dasharray:3.8421,3.8421;}
	.st19{fill:none;stroke:#3A50A2;stroke-linecap:round;stroke-linejoin:round;stroke-dasharray:3.8873,3.8873;}
	.st20{fill:none;stroke:#1A1A1A;stroke-miterlimit:10;}
	.st21{fill:#1A1A1A;}
</style>
<rect x="0" y="68.7" class="st0" width="212" height="284"/>
<rect x="12.9" y="259.9" class="st1" width="72" height="76"/>
<g>
	<rect x="12.9" y="83.7" class="st1" width="72" height="162"/>
	<g>
		<rect x="99.1" y="83.7" class="st1" width="100" height="104.1"/>
		<rect x="99.1" y="202.9" class="st1" width="100" height="133.8"/>
	</g>
</g>
<path class="st2" d="M660.8,394.2c0,16.5-13.4,29.8-29.8,29.8H490.6c-16.5,0-29.8-13.4-29.8-29.8V30.8c0-16.5,13.4-29.8,29.8-29.8
	H631c16.5,0,29.8,13.4,29.8,29.8V394.2z"/>
<rect x="475.3" y="60.5" class="st3" width="172" height="303"/>
<g>
	<circle class="st4" cx="561.7" cy="392.4" r="17.1"/>
</g>
<circle class="st5" cx="561.2" cy="23.6" r="3.2"/>
<path class="st6" d="M584,35h-45.2c-1,0-1.8-0.8-1.8-1.8l0,0c0-1,0.8-1.8,1.8-1.8H584c1,0,1.8,0.8,1.8,1.8l0,0
	C585.8,34.2,585,35,584,35z"/>
<g>
	<path class="st1" d="M631.1,239.3c0,4.7-3.8,8.5-8.5,8.5H498.4c-4.7,0-8.5-3.8-8.5-8.5v-93.8c0-4.7,3.8-8.5,8.5-8.5h124.2
		c4.7,0,8.5,3.8,8.5,8.5V239.3z"/>
	<path class="st7" d="M631.1,239.3c0,4.7-3.8,8.5-8.5,8.5H498.4c-4.7,0-8.5-3.8-8.5-8.5v-93.8c0-4.7,3.8-8.5,8.5-8.5h124.2
		c4.7,0,8.5,3.8,8.5,8.5V239.3z"/>
</g>
<g>
	<rect x="502" y="152.5" class="st8" width="118.9" height="53.2"/>
	<path class="st9" d="M506,153v4h4.6v-4h1.2v9.4h-1.2V158H506v4.4h-1.2V153H506z"/>
	<path class="st9" d="M514.6,159.3c0,1.7,1.1,2.4,2.3,2.4c0.9,0,1.4-0.2,1.9-0.4l0.2,0.9c-0.4,0.2-1.2,0.4-2.3,0.4
		c-2.1,0-3.3-1.4-3.3-3.4s1.2-3.7,3.2-3.7c2.2,0,2.8,1.9,2.8,3.2c0,0.3,0,0.4,0,0.6H514.6z M518.2,158.4c0-0.8-0.3-2-1.7-2
		c-1.2,0-1.8,1.1-1.9,2H518.2z"/>
	<path class="st9" d="M520.9,152.5h1.2v9.9h-1.2V152.5z"/>
	<path class="st9" d="M524.2,157.9c0-0.9,0-1.6-0.1-2.2h1.1l0.1,1.2h0c0.5-0.8,1.3-1.3,2.4-1.3c1.6,0,2.9,1.4,2.9,3.4
		c0,2.4-1.5,3.6-3.1,3.6c-0.9,0-1.7-0.4-2.1-1.1h0v3.7h-1.2V157.9z M525.4,159.7c0,0.2,0,0.4,0.1,0.5c0.2,0.9,1,1.4,1.8,1.4
		c1.3,0,2.1-1.1,2.1-2.6c0-1.4-0.7-2.5-2-2.5c-0.8,0-1.6,0.6-1.9,1.5c0,0.2-0.1,0.3-0.1,0.5V159.7z"/>
	<path class="st9" d="M535.2,157.5c0-0.7,0-1.3-0.1-1.8h1.1l0.1,1.1h0c0.4-0.6,1-1.2,2.1-1.2c0.9,0,1.6,0.6,1.9,1.4h0
		c0.2-0.4,0.5-0.7,0.8-0.9c0.4-0.3,0.9-0.5,1.5-0.5c0.9,0,2.2,0.6,2.2,2.9v4h-1.2v-3.8c0-1.3-0.5-2.1-1.5-2.1
		c-0.7,0-1.2,0.5-1.5,1.1c-0.1,0.2-0.1,0.4-0.1,0.6v4.2h-1.2v-4.1c0-1.1-0.5-1.9-1.4-1.9c-0.8,0-1.3,0.6-1.5,1.2
		c-0.1,0.2-0.1,0.4-0.1,0.6v4.1h-1.2V157.5z"/>
	<path class="st9" d="M550.6,162.5l-0.1-0.9h0c-0.4,0.5-1.1,1-2.1,1c-1.4,0-2.1-1-2.1-1.9c0-1.6,1.5-2.5,4.1-2.5V158
		c0-0.6-0.2-1.6-1.5-1.6c-0.6,0-1.3,0.2-1.8,0.5l-0.3-0.8c0.6-0.4,1.4-0.6,2.2-0.6c2.1,0,2.6,1.4,2.6,2.8v2.5c0,0.6,0,1.2,0.1,1.6
		H550.6z M550.4,159c-1.3,0-2.9,0.2-2.9,1.5c0,0.8,0.5,1.2,1.2,1.2c0.9,0,1.4-0.6,1.6-1.1c0-0.1,0.1-0.3,0.1-0.4V159z"/>
	<path class="st9" d="M554.8,158.8L554.8,158.8c0.2-0.2,0.4-0.5,0.6-0.8l2-2.3h1.5l-2.6,2.8l3,4h-1.5l-2.3-3.2l-0.6,0.7v2.5h-1.2
		v-9.9h1.2V158.8z"/>
	<path class="st9" d="M560.8,159.3c0,1.7,1.1,2.4,2.3,2.4c0.9,0,1.4-0.2,1.9-0.4l0.2,0.9c-0.4,0.2-1.2,0.4-2.3,0.4
		c-2.1,0-3.3-1.4-3.3-3.4s1.2-3.7,3.2-3.7c2.2,0,2.8,1.9,2.8,3.2c0,0.3,0,0.4,0,0.6H560.8z M564.4,158.4c0-0.8-0.3-2-1.7-2
		c-1.2,0-1.8,1.1-1.9,2H564.4z"/>
	<path class="st9" d="M571.6,153.7v1.9h1.8v0.9h-1.8v3.7c0,0.8,0.2,1.3,0.9,1.3c0.3,0,0.6,0,0.7-0.1l0.1,0.9
		c-0.2,0.1-0.6,0.2-1.1,0.2c-0.6,0-1-0.2-1.3-0.5c-0.4-0.4-0.5-1-0.5-1.8v-3.7h-1.1v-0.9h1.1v-1.6L571.6,153.7z"/>
	<path class="st9" d="M574.8,152.5h1.2v4.2h0c0.2-0.4,0.5-0.7,0.9-0.9c0.4-0.2,0.8-0.4,1.3-0.4c0.9,0,2.4,0.6,2.4,2.9v4h-1.2v-3.9
		c0-1.1-0.4-2-1.6-2c-0.8,0-1.4,0.6-1.7,1.2c-0.1,0.2-0.1,0.4-0.1,0.6v4.1h-1.2V152.5z"/>
	<path class="st9" d="M583.9,153.8c0,0.4-0.3,0.8-0.8,0.8c-0.4,0-0.7-0.3-0.7-0.8c0-0.4,0.3-0.8,0.8-0.8
		C583.6,153,583.9,153.3,583.9,153.8z M582.5,162.5v-6.8h1.2v6.8H582.5z"/>
	<path class="st9" d="M585.6,161.2c0.4,0.2,1,0.5,1.6,0.5c0.9,0,1.3-0.4,1.3-1c0-0.6-0.3-0.9-1.3-1.2c-1.2-0.4-1.8-1.1-1.8-1.9
		c0-1.1,0.9-2,2.3-2c0.7,0,1.3,0.2,1.7,0.4l-0.3,0.9c-0.3-0.2-0.8-0.4-1.4-0.4c-0.7,0-1.1,0.4-1.1,0.9c0,0.6,0.4,0.8,1.3,1.1
		c1.2,0.4,1.8,1,1.8,2c0,1.2-0.9,2-2.5,2c-0.7,0-1.4-0.2-1.9-0.5L585.6,161.2z"/>
	<path class="st9" d="M594.3,157.9c0-0.9,0-1.6-0.1-2.2h1.1l0.1,1.2h0c0.5-0.8,1.3-1.3,2.4-1.3c1.6,0,2.9,1.4,2.9,3.4
		c0,2.4-1.5,3.6-3.1,3.6c-0.9,0-1.7-0.4-2.1-1.1h0v3.7h-1.2V157.9z M595.5,159.7c0,0.2,0,0.4,0.1,0.5c0.2,0.9,1,1.4,1.8,1.4
		c1.3,0,2.1-1.1,2.1-2.6c0-1.4-0.7-2.5-2-2.5c-0.8,0-1.6,0.6-1.9,1.5c0,0.2-0.1,0.3-0.1,0.5V159.7z"/>
	<path class="st9" d="M606,162.5l-0.1-0.9h0c-0.4,0.5-1.1,1-2.1,1c-1.4,0-2.1-1-2.1-1.9c0-1.6,1.5-2.5,4.1-2.5V158
		c0-0.6-0.2-1.6-1.5-1.6c-0.6,0-1.3,0.2-1.8,0.5l-0.3-0.8c0.6-0.4,1.4-0.6,2.2-0.6c2.1,0,2.6,1.4,2.6,2.8v2.5c0,0.6,0,1.2,0.1,1.6
		H606z M605.9,159c-1.3,0-2.9,0.2-2.9,1.5c0,0.8,0.5,1.2,1.2,1.2c0.9,0,1.4-0.6,1.6-1.1c0-0.1,0.1-0.3,0.1-0.4V159z"/>
	<path class="st9" d="M609,157.8c0-0.8,0-1.5-0.1-2.1h1.1l0,1.3h0.1c0.3-0.9,1-1.5,1.9-1.5c0.1,0,0.2,0,0.3,0v1.2
		c-0.1,0-0.3,0-0.4,0c-0.9,0-1.5,0.7-1.7,1.6c0,0.2-0.1,0.4-0.1,0.6v3.6H609V157.8z"/>
	<path class="st9" d="M614.9,158.8L614.9,158.8c0.2-0.2,0.4-0.5,0.6-0.8l2-2.3h1.5l-2.6,2.8l3,4h-1.5l-2.3-3.2l-0.6,0.7v2.5h-1.2
		v-9.9h1.2V158.8z"/>
	<path class="st9" d="M504.4,179.3c0-0.5,0.1-1.1,0.1-1.8v-8.2h1.2v4.3h0c0.4-0.8,1.2-1.2,2.3-1.2c1.7,0,2.9,1.4,2.9,3.5
		c0,2.4-1.5,3.6-3,3.6c-1,0-1.8-0.4-2.3-1.3h0l-0.1,1.1H504.4z M505.6,176.5c0,0.2,0,0.3,0.1,0.4c0.2,0.9,1,1.4,1.8,1.4
		c1.3,0,2.1-1.1,2.1-2.6c0-1.4-0.7-2.5-2-2.5c-0.8,0-1.6,0.6-1.9,1.5c0,0.1-0.1,0.3-0.1,0.5V176.5z"/>
	<path class="st9" d="M513.1,176.1c0,1.7,1.1,2.4,2.3,2.4c0.9,0,1.4-0.2,1.9-0.4l0.2,0.9c-0.4,0.2-1.2,0.4-2.3,0.4
		c-2.1,0-3.3-1.4-3.3-3.4s1.2-3.7,3.2-3.7c2.2,0,2.8,1.9,2.8,3.2c0,0.3,0,0.4,0,0.6H513.1z M516.7,175.2c0-0.8-0.3-2-1.7-2
		c-1.2,0-1.8,1.1-1.9,2H516.7z"/>
	<path class="st9" d="M520.9,170.5v1.9h1.8v0.9h-1.8v3.7c0,0.8,0.2,1.3,0.9,1.3c0.3,0,0.6,0,0.7-0.1l0.1,0.9
		c-0.2,0.1-0.6,0.2-1.1,0.2c-0.6,0-1-0.2-1.3-0.5c-0.4-0.4-0.5-1-0.5-1.8v-3.7h-1.1v-0.9h1.1v-1.6L520.9,170.5z"/>
	<path class="st9" d="M525.5,170.5v1.9h1.8v0.9h-1.8v3.7c0,0.8,0.2,1.3,0.9,1.3c0.3,0,0.6,0,0.7-0.1l0.1,0.9
		c-0.2,0.1-0.6,0.2-1.1,0.2c-0.6,0-1-0.2-1.3-0.5c-0.4-0.4-0.5-1-0.5-1.8v-3.7h-1.1v-0.9h1.1v-1.6L525.5,170.5z"/>
	<path class="st9" d="M529.3,176.1c0,1.7,1.1,2.4,2.3,2.4c0.9,0,1.4-0.2,1.9-0.4l0.2,0.9c-0.4,0.2-1.2,0.4-2.3,0.4
		c-2.1,0-3.3-1.4-3.3-3.4s1.2-3.7,3.2-3.7c2.2,0,2.8,1.9,2.8,3.2c0,0.3,0,0.4,0,0.6H529.3z M532.9,175.2c0-0.8-0.3-2-1.7-2
		c-1.2,0-1.8,1.1-1.9,2H532.9z"/>
	<path class="st9" d="M535.6,174.6c0-0.8,0-1.5-0.1-2.1h1.1l0,1.3h0.1c0.3-0.9,1.1-1.5,1.9-1.5c0.1,0,0.2,0,0.4,0v1.2
		c-0.1,0-0.3,0-0.4,0c-0.9,0-1.5,0.7-1.7,1.6c0,0.2-0.1,0.4-0.1,0.6v3.6h-1.2V174.6z"/>
	<path class="st9" d="M543.1,179.3c0-0.5,0.1-1.1,0.1-1.8v-8.2h1.2v4.3h0c0.4-0.8,1.2-1.2,2.3-1.2c1.7,0,2.9,1.4,2.9,3.5
		c0,2.4-1.5,3.6-3,3.6c-1,0-1.8-0.4-2.3-1.3h0l-0.1,1.1H543.1z M544.4,176.5c0,0.2,0,0.3,0.1,0.4c0.2,0.9,1,1.4,1.8,1.4
		c1.3,0,2.1-1.1,2.1-2.6c0-1.4-0.7-2.5-2-2.5c-0.8,0-1.6,0.6-1.9,1.5c0,0.1-0.1,0.3-0.1,0.5V176.5z"/>
	<path class="st9" d="M551.5,172.5l1.5,4c0.2,0.4,0.3,1,0.4,1.4h0c0.1-0.4,0.3-0.9,0.4-1.4l1.3-4h1.3l-1.8,4.8
		c-0.9,2.3-1.5,3.5-2.3,4.2c-0.6,0.5-1.2,0.7-1.5,0.8l-0.3-1c0.3-0.1,0.7-0.3,1.1-0.6c0.3-0.3,0.8-0.7,1-1.4
		c0.1-0.1,0.1-0.2,0.1-0.3c0-0.1,0-0.2-0.1-0.3l-2.5-6.2H551.5z"/>
	<path class="st9" d="M562.1,170.5v1.9h1.8v0.9h-1.8v3.7c0,0.8,0.2,1.3,0.9,1.3c0.3,0,0.6,0,0.7-0.1l0.1,0.9
		c-0.2,0.1-0.6,0.2-1.1,0.2c-0.6,0-1-0.2-1.3-0.5c-0.4-0.4-0.5-1-0.5-1.8v-3.7h-1.1v-0.9h1.1v-1.6L562.1,170.5z"/>
	<path class="st9" d="M569,179.3l-0.1-0.9h0c-0.4,0.5-1.1,1-2.1,1c-1.4,0-2.1-1-2.1-1.9c0-1.6,1.5-2.5,4.1-2.5v-0.1
		c0-0.6-0.2-1.6-1.5-1.6c-0.6,0-1.3,0.2-1.8,0.5l-0.3-0.8c0.6-0.4,1.4-0.6,2.2-0.6c2.1,0,2.6,1.4,2.6,2.8v2.5c0,0.6,0,1.2,0.1,1.6
		H569z M568.8,175.8c-1.3,0-2.9,0.2-2.9,1.5c0,0.8,0.5,1.2,1.2,1.2c0.9,0,1.4-0.6,1.6-1.1c0-0.1,0.1-0.3,0.1-0.4V175.8z"/>
	<path class="st9" d="M573.2,175.6L573.2,175.6c0.2-0.2,0.4-0.5,0.6-0.8l2-2.3h1.5l-2.6,2.8l3,4h-1.5l-2.3-3.2l-0.6,0.7v2.5H572
		v-9.9h1.2V175.6z"/>
	<path class="st9" d="M580.1,170.6c0,0.4-0.3,0.8-0.8,0.8c-0.4,0-0.7-0.3-0.7-0.8c0-0.4,0.3-0.8,0.8-0.8
		C579.8,169.8,580.1,170.1,580.1,170.6z M578.8,179.3v-6.8h1.2v6.8H578.8z"/>
	<path class="st9" d="M582,174.3c0-0.7,0-1.3-0.1-1.8h1.1l0.1,1.1h0c0.3-0.6,1.1-1.3,2.2-1.3c0.9,0,2.4,0.6,2.4,2.9v4h-1.2v-3.9
		c0-1.1-0.4-2-1.6-2c-0.8,0-1.4,0.6-1.7,1.3c-0.1,0.2-0.1,0.4-0.1,0.6v4.1H582V174.3z"/>
	<path class="st9" d="M595.7,172.5c0,0.5-0.1,1-0.1,1.9v3.9c0,1.6-0.3,2.5-1,3.1c-0.7,0.6-1.6,0.8-2.5,0.8c-0.8,0-1.7-0.2-2.3-0.6
		l0.3-0.9c0.4,0.3,1.1,0.5,2,0.5c1.3,0,2.2-0.7,2.2-2.4v-0.8h0c-0.4,0.6-1.1,1.1-2.2,1.1c-1.7,0-2.9-1.4-2.9-3.3
		c0-2.3,1.5-3.6,3.1-3.6c1.2,0,1.8,0.6,2.1,1.2h0l0.1-1H595.7z M594.4,175.2c0-0.2,0-0.4-0.1-0.6c-0.2-0.7-0.8-1.3-1.7-1.3
		c-1.2,0-2,1-2,2.6c0,1.3,0.7,2.4,2,2.4c0.8,0,1.4-0.5,1.7-1.3c0.1-0.2,0.1-0.4,0.1-0.7V175.2z"/>
	<path class="st9" d="M606.7,175.8c0,2.5-1.7,3.6-3.4,3.6c-1.8,0-3.2-1.3-3.2-3.5c0-2.3,1.5-3.6,3.4-3.6
		C605.4,172.3,606.7,173.7,606.7,175.8z M601.4,175.9c0,1.5,0.9,2.6,2.1,2.6c1.2,0,2.1-1.1,2.1-2.6c0-1.1-0.6-2.6-2-2.6
		S601.4,174.6,601.4,175.9z"/>
	<path class="st9" d="M614,177.4c0,0.7,0,1.3,0.1,1.8h-1.1l-0.1-1.1h0c-0.3,0.5-1,1.3-2.2,1.3c-1.1,0-2.3-0.6-2.3-3v-4h1.2v3.8
		c0,1.3,0.4,2.2,1.5,2.2c0.8,0,1.4-0.6,1.6-1.1c0.1-0.2,0.1-0.4,0.1-0.6v-4.2h1.2V177.4z"/>
	<path class="st9" d="M616,174.6c0-0.8,0-1.5-0.1-2.1h1.1l0,1.3h0.1c0.3-0.9,1-1.5,1.9-1.5c0.1,0,0.2,0,0.3,0v1.2
		c-0.1,0-0.3,0-0.4,0c-0.9,0-1.5,0.7-1.7,1.6c0,0.2-0.1,0.4-0.1,0.6v3.6H616V174.6z"/>
	<path class="st9" d="M543.1,194.8c0.4,0.2,1,0.5,1.6,0.5c0.9,0,1.3-0.4,1.3-1c0-0.6-0.4-0.9-1.3-1.2c-1.2-0.4-1.8-1.1-1.8-1.9
		c0-1.1,0.9-2,2.3-2c0.7,0,1.3,0.2,1.7,0.4l-0.3,0.9c-0.3-0.2-0.8-0.4-1.4-0.4c-0.7,0-1.1,0.4-1.1,0.9c0,0.6,0.4,0.8,1.3,1.1
		c1.2,0.4,1.8,1,1.8,2c0,1.2-0.9,2-2.5,2c-0.7,0-1.4-0.2-1.9-0.5L543.1,194.8z"/>
	<path class="st9" d="M554.5,194.2c0,0.7,0,1.3,0.1,1.8h-1.1l-0.1-1.1h0c-0.3,0.5-1,1.3-2.2,1.3c-1.1,0-2.3-0.6-2.3-3v-4h1.2v3.8
		c0,1.3,0.4,2.2,1.5,2.2c0.8,0,1.4-0.6,1.6-1.1c0.1-0.2,0.1-0.4,0.1-0.6v-4.2h1.2V194.2z"/>
	<path class="st9" d="M556.6,191.4c0-0.8,0-1.5-0.1-2.1h1.1l0,1.3h0.1c0.3-0.9,1.1-1.5,1.9-1.5c0.1,0,0.2,0,0.4,0v1.2
		c-0.1,0-0.3,0-0.4,0c-0.9,0-1.5,0.7-1.7,1.6c0,0.2-0.1,0.4-0.1,0.6v3.6h-1.2V191.4z"/>
	<path class="st9" d="M562,189.3l1.3,3.8c0.2,0.6,0.4,1.2,0.5,1.7h0c0.2-0.6,0.4-1.1,0.6-1.7l1.3-3.8h1.3l-2.7,6.8h-1.2l-2.6-6.8
		H562z"/>
	<path class="st9" d="M568.8,192.9c0,1.7,1.1,2.4,2.3,2.4c0.9,0,1.4-0.2,1.9-0.4l0.2,0.9c-0.4,0.2-1.2,0.4-2.3,0.4
		c-2.1,0-3.3-1.4-3.3-3.4c0-2,1.2-3.7,3.2-3.7c2.2,0,2.8,1.9,2.8,3.2c0,0.3,0,0.4,0,0.6H568.8z M572.4,192c0-0.8-0.3-2-1.7-2
		c-1.2,0-1.8,1.1-1.9,2H572.4z"/>
	<path class="st9" d="M575.6,189.3l1.5,4c0.2,0.4,0.3,1,0.4,1.4h0c0.1-0.4,0.3-0.9,0.4-1.4l1.3-4h1.3l-1.8,4.8
		c-0.9,2.3-1.5,3.5-2.3,4.2c-0.6,0.5-1.2,0.7-1.5,0.8l-0.3-1c0.3-0.1,0.7-0.3,1.1-0.6c0.3-0.3,0.8-0.7,1-1.4
		c0.1-0.1,0.1-0.2,0.1-0.3c0-0.1,0-0.2-0.1-0.3l-2.5-6.2H575.6z"/>
</g>
<line class="st10" x1="489.9" y1="218.1" x2="631.4" y2="218.1"/>
<line class="st7" x1="561.2" y1="218.3" x2="561.2" y2="248"/>
<g>
	<rect x="487.7" y="226.8" class="st8" width="73" height="16.4"/>
	<path class="st11" d="M517.9,236.8v-4l-3-5.4h1.4l1.3,2.6c0.4,0.7,0.6,1.3,0.9,1.9h0c0.3-0.6,0.6-1.2,1-1.9l1.4-2.6h1.4l-3.2,5.4v4
		H517.9z"/>
	<path class="st11" d="M522.9,233.6c0,1.7,1.1,2.4,2.3,2.4c0.9,0,1.4-0.2,1.9-0.3l0.2,0.9c-0.4,0.2-1.2,0.4-2.3,0.4
		c-2.1,0-3.3-1.4-3.3-3.4s1.2-3.7,3.2-3.7c2.2,0,2.8,1.9,2.8,3.2c0,0.3,0,0.4,0,0.6H522.9z M526.5,232.7c0-0.8-0.3-2-1.7-2
		c-1.2,0-1.8,1.1-1.9,2H526.5z"/>
	<path class="st11" d="M529.1,235.5c0.4,0.2,1,0.5,1.6,0.5c0.9,0,1.3-0.4,1.3-1c0-0.6-0.3-0.9-1.3-1.2c-1.2-0.4-1.8-1.1-1.8-1.9
		c0-1.1,0.9-2,2.3-2c0.7,0,1.3,0.2,1.7,0.4l-0.3,0.9c-0.3-0.2-0.8-0.4-1.4-0.4c-0.7,0-1.1,0.4-1.1,0.9c0,0.6,0.4,0.8,1.3,1.1
		c1.2,0.4,1.8,1,1.8,2c0,1.2-0.9,2-2.5,2c-0.7,0-1.4-0.2-1.9-0.5L529.1,235.5z"/>
</g>
<g>
	<rect x="561.2" y="226.8" class="st8" width="73" height="16.4"/>
	<path class="st11" d="M590.3,236.8v-9.4h1.3l3,4.8c0.7,1.1,1.2,2.1,1.7,3.1l0,0c-0.1-1.3-0.1-2.4-0.1-3.9v-4h1.1v9.4h-1.2l-3-4.8
		c-0.7-1.1-1.3-2.1-1.8-3.2l0,0c0.1,1.2,0.1,2.3,0.1,3.9v4H590.3z"/>
	<path class="st11" d="M605.6,233.3c0,2.5-1.7,3.6-3.4,3.6c-1.8,0-3.2-1.3-3.2-3.5c0-2.3,1.5-3.6,3.4-3.6
		C604.3,229.8,605.6,231.2,605.6,233.3z M600.2,233.4c0,1.5,0.9,2.6,2.1,2.6c1.2,0,2.1-1.1,2.1-2.6c0-1.1-0.6-2.6-2-2.6
		S600.2,232.1,600.2,233.4z"/>
</g>
<path class="st12" d="M354.9,130.6c-1.2-0.4-32.5-15.8-32.5-15.8H310l-27.5,12.5l-14.6,11.2L254.2,218l4.6,36.6l10,18.7l32.9,23.3
	l30.8,6.7l36.2-20.4l0.4-108.3L354.9,130.6z"/>
<path class="st11" d="M56.4,191.5c-0.1,0-3.6-1.7-3.6-1.7h-1.4l-3,1.4l-1.6,1.2l-1.5,8.7l0.5,4l1.1,2l3.6,2.6l3.4,0.7l4-2.2l0-11.8
	L56.4,191.5z"/>
<path class="st11" d="M143.4,153.5c-0.1,0-3.6-1.7-3.6-1.7h-1.4l-3,1.4l-1.6,1.2l-1.5,8.7l0.5,4l1.1,2l3.6,2.6l3.4,0.7l4-2.2l0-11.8
	L143.4,153.5z"/>
<path class="st11" d="M109.4,280.9c-0.1,0-3.6-1.7-3.6-1.7h-1.4l-3,1.4l-1.6,1.2l-1.5,8.7l0.5,4l1.1,2l3.6,2.6l3.4,0.7l4-2.2l0-11.8
	L109.4,280.9z"/>
<path class="st11" d="M55.8,262.1c-0.1,0-3.6-1.7-3.6-1.7h-1.4l-3,1.4l-1.6,1.2l-1.5,8.7l0.5,4l1.1,2l3.6,2.6l3.4,0.7l4-2.2l0-11.8
	L55.8,262.1z"/>
<path class="st11" d="M165.8,234.1c-0.1,0-3.6-1.7-3.6-1.7h-1.4l-3,1.4l-1.6,1.2l-1.5,8.7l0.5,4l1.1,2l3.6,2.6l3.4,0.7l4-2.2l0-11.8
	L165.8,234.1z"/>
<polyline class="st13" points="310,114.8 314.1,123.9 296.6,133.9 267.9,138.5 270.4,245.9 "/>
<path class="st13" d="M258.8,254.7l11.7-8.7l19.4,10c0,0,11.9,40.8,9.8,39.2"/>
<polyline class="st13" points="268.7,273.4 289.8,255.9 317.5,191.8 312.1,138.1 296.6,133.9 "/>
<polyline class="st13" points="368.7,283 335,241.8 317.5,191.8 "/>
<polyline class="st13" points="301.6,296.7 324.1,287.6 332.5,303.4 "/>
<line class="st13" x1="335" y1="241.8" x2="324.1" y2="287.6"/>
<line class="st13" x1="312.1" y1="138.1" x2="369.1" y2="174.7"/>
<polyline class="st13" points="322.5,114.8 314.1,123.9 312.1,138.1 354.9,130.6 "/>
<g>
	<path class="st7" d="M361.8,107.9c11.1,5.3,15.8,18.4,10.5,29.3"/>
	<path class="st7" d="M370.9,96.7c17.2,8.3,24.5,28.7,16.4,45.6"/>
	<path class="st7" d="M381.1,82.7c25.2,12.2,35.9,42,24,66.8"/>
</g>
<path class="st9" d="M109.9,161.7c0,6.1-11,23-11,23s-11-16.9-11-23s4.9-11,11-11C105,150.7,109.9,155.6,109.9,161.7z"/>
<g>
	<g>
		<polyline class="st14" points="137.1,164.4 138.9,163.7 139.3,165.7 		"/>
		<line class="st15" x1="140.2" y1="169.5" x2="154.6" y2="236.3"/>
		<polyline class="st14" points="155,238.2 155.4,240.1 154.1,241.6 		"/>
		<line class="st16" x1="151.3" y1="244.7" x2="113.6" y2="286.7"/>
		<polyline class="st14" points="112.2,288.2 110.9,289.7 109,289.2 		"/>
		<line class="st17" x1="105.3" y1="288.3" x2="55.7" y2="275.7"/>
		<polyline class="st14" points="53.9,275.2 51.9,274.7 51.9,272.7 		"/>
		<line class="st18" x1="51.9" y1="268.9" x2="51.9" y2="201.6"/>
		<polyline class="st14" points="51.9,199.7 51.9,197.7 53.8,197 		"/>
		<line class="st19" x1="57.4" y1="195.6" x2="135.2" y2="165.2"/>
	</g>
</g>
<g>
	<line class="st0" x1="155.9" y1="158.3" x2="254.9" y2="158.3"/>
	<g>
		<line class="st20" x1="155.9" y1="158.3" x2="252.9" y2="158.3"/>
		<g>
			<polygon class="st21" points="249.3,161.4 252.3,158.3 249.3,155.3 251.9,155.3 254.9,158.3 251.9,161.4 			"/>
		</g>
	</g>
</g>
<g>
</g>
<g>
</g>
<g>
</g>
<g>
</g>
<g>
</g>
<g>
</g>
<g>
</g>
</svg>
