<?xml version="1.0" encoding="utf-8"?>
<!-- Generator: Adobe Illustrator 19.2.1, SVG Export Plug-In . SVG Version: 6.00 Build 0)  -->
<svg version="1.1" id="Layer_1" xmlns="http://www.w3.org/2000/svg" xmlns:xlink="http://www.w3.org/1999/xlink" x="0px" y="0px"
	 viewBox="0 0 659.7 466" style="enable-background:new 0 0 659.7 466;" xml:space="preserve">
<style type="text/css">
	.st0{fill:#ECECEC;}
	.st1{opacity:0.2;fill:#3A50A2;enable-background:new    ;}
	.st2{fill:#FFFFFF;stroke:#010101;stroke-width:2;stroke-miterlimit:10;}
	.st3{fill:#ECECEC;stroke:#1A1A1A;stroke-miterlimit:10;}
	.st4{fill:#FFFFFF;stroke:#010101;stroke-miterlimit:10;}
	.st5{fill:#010101;stroke:#FFFFFF;stroke-width:0.746;stroke-miterlimit:10;}
	.st6{fill:#010101;stroke:#FFFFFF;stroke-width:0.8525;stroke-miterlimit:10;}
	.st7{fill:#FFFFFF;}
	.st8{fill:none;stroke:#1D1D1B;stroke-miterlimit:10;}
	.st9{fill:none;}
	.st10{fill:#1D1D1B;}
	.st11{fill:none;stroke:#1D1D1B;stroke-width:0.9816;stroke-miterlimit:10;}
	.st12{fill:#3A50A2;}
	.st13{fill:none;stroke:#3A50A2;stroke-width:2;stroke-miterlimit:10;}
	.st14{fill:none;stroke:#3A50A2;stroke-miterlimit:10;}
	.st15{fill:none;stroke:#3A50A2;stroke-linecap:round;stroke-linejoin:round;}
	.st16{fill:none;stroke:#3A50A2;stroke-linecap:round;stroke-linejoin:round;stroke-dasharray:3.9032,3.9032;}
	.st17{fill:none;stroke:#3A50A2;stroke-linecap:round;stroke-linejoin:round;stroke-dasharray:4.1779,4.1779;}
	.st18{fill:none;stroke:#3A50A2;stroke-linecap:round;stroke-linejoin:round;stroke-dasharray:3.791,3.791;}
	.st19{fill:none;stroke:#3A50A2;stroke-linecap:round;stroke-linejoin:round;stroke-dasharray:3.8421,3.8421;}
	.st20{fill:none;stroke:#3A50A2;stroke-linecap:round;stroke-linejoin:round;stroke-dasharray:3.8873,3.8873;}
	.st21{fill:#010101;}
	.st22{fill:none;stroke:#010101;stroke-width:0.75;stroke-miterlimit:10;}
	.st23{opacity:0.2;fill:#2341C1;enable-background:new    ;}
	.st24{fill:#2341C1;}
	.st25{fill:none;stroke:#2341C1;stroke-miterlimit:10;}
	.st26{fill:none;stroke:#2341C1;stroke-linecap:round;stroke-linejoin:round;}
	.st27{fill:none;stroke:#2341C1;stroke-linecap:round;stroke-linejoin:round;stroke-dasharray:3.9032,3.9032;}
	.st28{fill:none;stroke:#2341C1;stroke-linecap:round;stroke-linejoin:round;stroke-dasharray:4.1779,4.1779;}
	.st29{fill:none;stroke:#2341C1;stroke-linecap:round;stroke-linejoin:round;stroke-dasharray:3.791,3.791;}
	.st30{fill:none;stroke:#2341C1;stroke-linecap:round;stroke-linejoin:round;stroke-dasharray:3.8421,3.8421;}
	.st31{fill:none;stroke:#2341C1;stroke-linecap:round;stroke-linejoin:round;stroke-dasharray:3.8873,3.8873;}
	.st32{enable-background:new    ;}
	.st33{fill:none;stroke:#000000;stroke-width:0.75;stroke-miterlimit:10;}
	.st34{fill:#FFFFFF;stroke:#1E1E1E;stroke-miterlimit:10;}
	.st35{fill:#1E1E1E;}
	.st36{fill:#C1C1C1;stroke:#575756;stroke-miterlimit:10;}
	.st37{fill:#FFFFFF;stroke:#575756;stroke-miterlimit:10;}
	.st38{fill:#DDDDDD;}
	.st39{fill:#1E1E1E;stroke:#FFFFFF;stroke-miterlimit:10;}
	.st40{fill:none;stroke:#DDDDDD;stroke-miterlimit:10;}
	.st41{fill:none;stroke:#575756;stroke-miterlimit:10;}
</style>
<polygon class="st0" points="84.1,-323.9 124.4,-337.7 122.6,-342.8 89.1,-342.8 78.2,-337.4 "/>
<g>
	<polygon class="st0" points="139.6,-335.4 82,-318.9 69.6,-301.9 74.2,-288.2 77.5,-289 82.2,-276 161.3,-297.7 181.9,-313.5 
		181.9,-350.6 	"/>
	<polygon class="st0" points="65.4,-351 66.7,-348 74.9,-352.1 73.8,-354.7 	"/>
	<path class="st1" d="M0-186.9v12.6h181.9v-67C148.5-233.6,82.6-216.7,0-186.9z"/>
	<polygon class="st0" points="34.8,-303.1 62.1,-345.8 66.7,-348 65.4,-351 73.8,-354.7 74.9,-352.1 85.9,-357.4 0,-357.4 0,-288 	
		"/>
	<g>
		<g>
			<path class="st0" d="M181.9-282.7v-10.7l-85.9,23l-22.4,6.6l-9.8-34.3L84.2-330l80-27.4H136l-6.2,2.1l-0.8-2.1h-9.7l1.9,5.1
				l-40.3,13.8l-6-13.5l-8.2,4l7.4,16.8l-21.5,33.7l-8.4,10.9L33-265.8l-10.5,6.2L5.2-243.7L0-242.1v10.8l68.6-20.2l21,6.6L0-220.2
				v10.7l104.9-29l76.9-22.8v-10.8l-76.3,22.6l-21.3-6.7l14.5-4.3L181.9-282.7z M25-249.5l3-2.7l11.9-7l12-22.3l5.2-6.8l7.8,27.1
				L25-249.5z"/>
		</g>
	</g>
</g>
<path class="st2" d="M658.7-97.8c0,16.5-13.4,29.8-29.8,29.8H488.5c-16.5,0-29.8-13.4-29.8-29.8v-363.4c0-16.4,13.3-29.8,29.8-29.8
	h140.3c16.5,0,29.8,13.4,29.8,29.8v363.4L658.7-97.8L658.7-97.8z"/>
<rect x="473.2" y="-431.5" class="st3" width="172" height="303"/>
<g>
	<circle class="st4" cx="559.6" cy="-99.4" r="17.1"/>
</g>
<circle class="st5" cx="559.1" cy="-468.3" r="3.2"/>
<path class="st6" d="M581.9-456.8h-45.2c-1,0-1.8-0.8-1.8-1.8l0,0c0-1,0.8-1.7,1.8-1.7h45.2c1,0,1.8,0.8,1.8,1.7l0,0
	C583.7-457.6,582.9-456.8,581.9-456.8z"/>
<g>
	<path class="st7" d="M629-240.6c0,4.7-3.8,8.5-8.5,8.5H496.3c-4.7,0-8.5-3.8-8.5-8.5v-105.7c0-4.7,3.8-8.5,8.5-8.5h124.2
		c4.7,0,8.5,3.8,8.5,8.5V-240.6z"/>
	<path class="st8" d="M629-240.6c0,4.7-3.8,8.5-8.5,8.5H496.3c-4.7,0-8.5-3.8-8.5-8.5v-105.7c0-4.7,3.8-8.5,8.5-8.5h124.2
		c4.7,0,8.5,3.8,8.5,8.5V-240.6z"/>
</g>
<g>
	<rect x="499.9" y="-345.3" class="st9" width="118.9" height="77.8"/>
	<path class="st10" d="M508.1-335.4v-4.6h-4.7v4.6h-1.1v-10h1.1v4.5h4.7v-4.5h1.1v10H508.1z"/>
	<path class="st10" d="M512.5-338.5c0,1.5,0.7,2.4,2,2.4c0.8,0,1.3-0.2,1.8-0.8l0.7,0.6c-0.7,0.7-1.3,1.1-2.5,1.1
		c-1.8,0-3-1.1-3-3.5c0-2.2,1.1-3.5,2.8-3.5c1.8,0,2.8,1.3,2.8,3.3v0.5h-4.6V-338.5z M515.9-340.4c-0.3-0.6-0.9-1-1.6-1
		s-1.3,0.4-1.6,1c-0.2,0.4-0.2,0.6-0.2,1.1h3.6C516.1-339.9,516.1-340.1,515.9-340.4z"/>
	<path class="st10" d="M521-335.4c-1.2,0-1.8-0.8-1.8-1.8v-8.1h1v8.1c0,0.7,0.2,1,0.9,1h0.5v0.9H521V-335.4z"/>
	<path class="st10" d="M528.1-335.9c-0.4,0.4-1,0.6-1.7,0.6c-0.8,0-1.4-0.2-1.9-0.9v3.9h-1v-10h1v0.8c0.6-0.7,1.2-0.9,1.9-0.9
		s1.3,0.2,1.7,0.6c0.7,0.7,0.8,1.8,0.8,2.9C528.9-337.8,528.8-336.6,528.1-335.9z M526.2-341.4c-1.5,0-1.7,1.3-1.7,2.6
		s0.2,2.6,1.7,2.6s1.7-1.3,1.7-2.6S527.7-341.4,526.2-341.4z"/>
	<path class="st10" d="M543.4-335.4v-4.2c0-1.2-0.7-1.8-1.7-1.8s-1.7,0.6-1.7,1.7v4.4h-1v-4.2c0-1.2-0.7-1.8-1.7-1.8
		s-1.7,0.6-1.7,1.8v4.2h-1v-6.9h1v0.8c0.5-0.6,1.2-0.8,1.9-0.8c1,0,1.7,0.4,2.1,1.1c0.5-0.8,1.3-1.1,2.3-1.1c0.7,0,1.4,0.2,1.8,0.6
		c0.5,0.5,0.7,1.1,0.7,1.9v4.4h-1L543.4-335.4L543.4-335.4z"/>
	<path class="st10" d="M550.7-335.4v-0.6c-0.6,0.6-1.1,0.7-2,0.7c-1,0-1.5-0.2-1.9-0.6c-0.3-0.3-0.5-0.9-0.5-1.4c0-1.2,0.8-2,2.4-2
		h2.1v-0.7c0-1-0.5-1.5-1.8-1.5c-0.9,0-1.3,0.2-1.7,0.8l-0.7-0.6c0.6-0.8,1.3-1,2.4-1c1.8,0,2.8,0.8,2.8,2.3v4.7L550.7-335.4
		L550.7-335.4z M550.7-338.5h-1.9c-1,0-1.5,0.4-1.5,1.2c0,0.8,0.5,1.2,1.6,1.2c0.6,0,1.1,0,1.5-0.5c0.2-0.2,0.4-0.6,0.4-1.2
		L550.7-338.5L550.7-338.5z"/>
	<path class="st10" d="M558.7-335.4l-2.2-3.5l-1.3,1.5v2h-1v-10h1v6.7l3.1-3.6h1.3l-2.3,2.6l2.7,4.3H558.7z"/>
	<path class="st10" d="M562.1-338.5c0,1.5,0.7,2.4,2,2.4c0.8,0,1.3-0.2,1.8-0.8l0.7,0.6c-0.7,0.7-1.3,1.1-2.5,1.1
		c-1.8,0-3-1.1-3-3.5c0-2.2,1.1-3.5,2.8-3.5c1.8,0,2.8,1.3,2.8,3.3v0.5h-4.6V-338.5z M565.5-340.4c-0.3-0.6-0.9-1-1.6-1
		s-1.3,0.4-1.6,1c-0.2,0.4-0.2,0.6-0.2,1.1h3.6C565.7-339.9,565.6-340.1,565.5-340.4z"/>
	<path class="st10" d="M575.3-335.4h-0.9l-3.3-10h1.1l2.6,8.1l2.6-8.1h1.1L575.3-335.4z"/>
	<path class="st10" d="M579.9-344.2v-1.1h1.1v1.1H579.9z M580-335.4v-6.9h1v6.9H580z"/>
	<path class="st10" d="M586.2-335.3c-1.7,0-3.1-1.2-3.1-3.5c0-2.4,1.3-3.5,3.1-3.5c1,0,1.6,0.3,2.3,1l-0.7,0.6
		c-0.5-0.6-0.9-0.8-1.6-0.8c-0.7,0-1.2,0.3-1.6,0.8c-0.3,0.4-0.4,1-0.4,1.8s0.1,1.4,0.4,1.8c0.4,0.5,0.9,0.8,1.6,0.8
		c0.7,0,1.1-0.2,1.6-0.8l0.7,0.7C587.7-335.5,587.1-335.3,586.2-335.3z"/>
	<path class="st10" d="M592.3-335.4c-1.2,0-1.8-0.8-1.8-1.8v-4.2h-0.9v-0.8h0.9v-2.2h1v2.2h1.5v0.8h-1.5v4.2c0,0.6,0.3,1,0.9,1h0.5
		v0.9h-0.6L592.3-335.4L592.3-335.4z"/>
	<path class="st10" d="M599.3-336.1c-0.5,0.5-1.1,0.8-2,0.8s-1.5-0.3-2-0.8c-0.7-0.7-0.8-1.7-0.8-2.7s0.1-2,0.8-2.7
		c0.5-0.5,1.1-0.8,2-0.8s1.5,0.3,2,0.8c0.7,0.7,0.8,1.7,0.8,2.7S600-336.8,599.3-336.1z M598.6-340.9c-0.3-0.3-0.8-0.5-1.3-0.5
		s-0.9,0.2-1.2,0.5c-0.5,0.5-0.6,1.4-0.6,2.1s0.1,1.6,0.6,2.1c0.3,0.3,0.8,0.5,1.2,0.5s0.9-0.2,1.3-0.5c0.5-0.5,0.5-1.4,0.5-2.1
		S599.1-340.4,598.6-340.9z"/>
	<path class="st10" d="M606.2-340.9c-0.4-0.4-0.7-0.5-1.2-0.5c-1,0-1.7,0.8-1.7,1.8v4.2h-1v-6.9h1v0.8c0.4-0.6,1.1-0.9,1.9-0.9
		c0.7,0,1.2,0.2,1.7,0.6L606.2-340.9z"/>
	<path class="st10" d="M608.2-344.2v-1.1h1.1v1.1H608.2z M608.2-335.4v-6.9h1v6.9H608.2z"/>
	<path class="st10" d="M615.7-335.4v-0.6c-0.6,0.6-1.1,0.7-2,0.7c-1,0-1.5-0.2-1.9-0.6c-0.3-0.3-0.5-0.9-0.5-1.4c0-1.2,0.8-2,2.4-2
		h2.1v-0.7c0-1-0.5-1.5-1.8-1.5c-0.9,0-1.3,0.2-1.7,0.8l-0.7-0.6c0.6-0.8,1.3-1,2.4-1c1.8,0,2.8,0.8,2.8,2.3v4.7L615.7-335.4
		L615.7-335.4z M615.7-338.5h-1.9c-1,0-1.5,0.4-1.5,1.2c0,0.8,0.5,1.2,1.6,1.2c0.6,0,1.1,0,1.5-0.5c0.2-0.2,0.4-0.6,0.4-1.2
		L615.7-338.5L615.7-338.5z"/>
	<path class="st10" d="M519.1-318.6v-10h6.2v1h-5.1v3.5h4.4v1h-4.4v3.6h5.1v1h-6.2V-318.6z"/>
	<path class="st10" d="M536.2-318.6v-4.2c0-1.2-0.7-1.8-1.7-1.8s-1.7,0.6-1.7,1.7v4.4h-1v-4.2c0-1.2-0.7-1.8-1.7-1.8
		s-1.7,0.6-1.7,1.8v4.2h-1v-6.9h1v0.8c0.5-0.6,1.2-0.8,1.9-0.8c1,0,1.7,0.4,2.1,1.1c0.5-0.8,1.3-1.1,2.3-1.1c0.7,0,1.4,0.2,1.8,0.6
		c0.5,0.5,0.7,1.1,0.7,1.9v4.4h-1L536.2-318.6L536.2-318.6z"/>
	<path class="st10" d="M544.3-319.1c-0.4,0.4-1,0.6-1.7,0.6c-0.8,0-1.4-0.2-1.9-0.9v0.8h-1v-10h1v3.9c0.6-0.7,1.2-0.9,1.9-0.9
		s1.3,0.2,1.7,0.6c0.7,0.7,0.8,1.8,0.8,2.9S545-319.8,544.3-319.1z M542.4-324.6c-1.5,0-1.7,1.3-1.7,2.6s0.2,2.6,1.7,2.6
		s1.7-1.3,1.7-2.6S543.9-324.6,542.4-324.6z"/>
	<path class="st10" d="M551.2-318.6v-0.7c-0.6,0.6-1.1,0.7-2,0.7c-1,0-1.5-0.2-1.9-0.6c-0.3-0.3-0.5-0.9-0.5-1.4c0-1.2,0.8-2,2.4-2
		h2.1v-0.7c0-1-0.5-1.5-1.8-1.5c-0.9,0-1.3,0.2-1.7,0.8l-0.7-0.6c0.6-0.8,1.3-1,2.4-1c1.8,0,2.8,0.8,2.8,2.3v4.7L551.2-318.6
		L551.2-318.6z M551.2-321.7h-1.9c-1,0-1.5,0.4-1.5,1.2s0.5,1.2,1.6,1.2c0.6,0,1.1,0,1.5-0.5c0.2-0.2,0.4-0.6,0.4-1.2L551.2-321.7
		L551.2-321.7z"/>
	<path class="st10" d="M559.1-318.6v-4.2c0-1.2-0.7-1.8-1.7-1.8s-1.7,0.6-1.7,1.8v4.2h-1v-6.9h1v0.8c0.5-0.6,1.2-0.8,1.9-0.8
		s1.3,0.2,1.8,0.6c0.5,0.5,0.7,1.1,0.7,1.9v4.4H559.1z"/>
	<path class="st10" d="M567.1-318.6l-2.2-3.5l-1.3,1.5v2h-1v-10h1v6.7l3.1-3.6h1.3l-2.3,2.6l2.7,4.3H567.1z"/>
	<path class="st10" d="M578.9-318.6v-4.2c0-1.2-0.7-1.8-1.7-1.8s-1.7,0.6-1.7,1.7v4.4h-1v-4.2c0-1.2-0.7-1.8-1.7-1.8
		s-1.7,0.6-1.7,1.8v4.2h-1v-6.9h1v0.8c0.5-0.6,1.2-0.8,1.9-0.8c1,0,1.7,0.4,2.1,1.1c0.5-0.8,1.3-1.1,2.3-1.1c0.7,0,1.4,0.2,1.8,0.6
		c0.5,0.5,0.7,1.1,0.7,1.9v4.4h-1L578.9-318.6L578.9-318.6z"/>
	<path class="st10" d="M583-321.7c0,1.5,0.7,2.4,2,2.4c0.8,0,1.3-0.2,1.8-0.8l0.7,0.6c-0.7,0.7-1.3,1.1-2.5,1.1c-1.8,0-3-1.1-3-3.5
		c0-2.2,1.1-3.5,2.8-3.5c1.8,0,2.8,1.3,2.8,3.3v0.5H583V-321.7z M586.4-323.6c-0.3-0.6-0.9-1-1.6-1s-1.3,0.4-1.6,1
		c-0.2,0.4-0.2,0.6-0.2,1.1h3.6C586.6-323.1,586.5-323.3,586.4-323.6z"/>
	<path class="st10" d="M594.2-318.6v-4.2c0-1.2-0.7-1.8-1.7-1.8s-1.7,0.6-1.7,1.8v4.2h-1v-6.9h1v0.8c0.5-0.6,1.2-0.8,1.9-0.8
		s1.3,0.2,1.8,0.6c0.5,0.5,0.7,1.1,0.7,1.9v4.4H594.2z"/>
	<path class="st10" d="M599.6-318.6c-1.2,0-1.8-0.8-1.8-1.8v-4.2h-0.9v-0.8h0.9v-2.2h1v2.2h1.5v0.8h-1.5v4.2c0,0.6,0.3,1,0.9,1h0.5
		v0.9h-0.6L599.6-318.6L599.6-318.6z"/>
	<path class="st10" d="M511.5-302.8c-0.7,0.8-1.6,1.1-2.7,1.1c-1,0-1.9-0.4-2.5-1c-0.9-0.9-0.9-1.9-0.9-4s0-3.1,0.9-4
		c0.7-0.7,1.6-1,2.5-1c1.9,0,3.2,1.2,3.5,3h-1.1c-0.3-1.3-1.2-2-2.4-2c-0.7,0-1.3,0.3-1.7,0.7c-0.6,0.6-0.7,1.3-0.7,3.4
		s0.1,2.8,0.7,3.4c0.4,0.4,1.1,0.7,1.7,0.7c0.7,0,1.4-0.3,1.9-0.9c0.4-0.5,0.6-1,0.6-1.8v-0.8h-2.5v-1h3.5v1.6
		C512.3-304.2,512.1-303.5,511.5-302.8z"/>
	<path class="st10" d="M518.5-301.8v-0.7c-0.6,0.6-1.1,0.7-2,0.7c-1,0-1.5-0.2-1.9-0.6c-0.3-0.3-0.5-0.9-0.5-1.4c0-1.2,0.8-2,2.4-2
		h2.1v-0.7c0-1-0.5-1.5-1.8-1.5c-0.9,0-1.3,0.2-1.7,0.8l-0.7-0.6c0.6-0.8,1.3-1,2.4-1c1.8,0,2.8,0.8,2.8,2.3v4.7L518.5-301.8
		L518.5-301.8z M518.5-304.9h-1.9c-1,0-1.5,0.4-1.5,1.2c0,0.8,0.5,1.2,1.6,1.2c0.6,0,1.1,0,1.5-0.5c0.2-0.2,0.3-0.6,0.3-1.2
		L518.5-304.9L518.5-304.9z"/>
	<path class="st10" d="M525.9-307.3c-0.4-0.4-0.7-0.5-1.2-0.5c-1,0-1.7,0.8-1.7,1.8v4.2h-1v-6.9h1v0.8c0.4-0.6,1.1-0.9,1.9-0.9
		c0.7,0,1.2,0.2,1.7,0.6L525.9-307.3z"/>
	<path class="st10" d="M531.5-301.8v-0.8c-0.6,0.7-1.2,0.9-2,0.9c-0.7,0-1.3-0.2-1.7-0.6c-0.7-0.7-0.8-1.8-0.8-2.9s0.1-2.2,0.8-2.9
		c0.4-0.4,1-0.6,1.7-0.6c0.8,0,1.4,0.2,1.9,0.9v-3.9h1v10L531.5-301.8L531.5-301.8z M529.8-307.8c-1.5,0-1.7,1.3-1.7,2.6
		c0,1.3,0.2,2.6,1.7,2.6s1.7-1.3,1.7-2.6S531.3-307.8,529.8-307.8z"/>
	<path class="st10" d="M535.7-304.9c0,1.5,0.7,2.4,2,2.4c0.8,0,1.3-0.2,1.8-0.8l0.7,0.6c-0.7,0.7-1.3,1.1-2.5,1.1
		c-1.8,0-3-1.1-3-3.5c0-2.2,1.1-3.5,2.8-3.5c1.8,0,2.8,1.3,2.8,3.3v0.5h-4.6V-304.9z M539.1-306.8c-0.3-0.6-0.9-1-1.6-1
		s-1.3,0.4-1.6,1c-0.2,0.4-0.2,0.6-0.2,1.1h3.6C539.3-306.3,539.3-306.5,539.1-306.8z"/>
	<path class="st10" d="M546.9-301.8v-4.2c0-1.2-0.7-1.8-1.7-1.8s-1.7,0.6-1.7,1.8v4.2h-1v-6.9h1v0.8c0.5-0.6,1.2-0.8,1.9-0.8
		s1.3,0.2,1.8,0.6c0.5,0.5,0.7,1.1,0.7,1.9v4.4H546.9z"/>
	<path class="st10" d="M552.5-301.7c-1.2,0-2.1-0.3-2.8-1l0.7-0.7c0.5,0.6,1.3,0.8,2.1,0.8c1.1,0,1.8-0.4,1.8-1.2
		c0-0.6-0.4-0.9-1.1-1l-1.1-0.1c-1.3-0.1-2.1-0.7-2.1-1.8c0-1.3,1.1-2,2.5-2c1,0,1.9,0.2,2.5,0.7l-0.7,0.7c-0.5-0.4-1.1-0.5-1.8-0.5
		c-1,0-1.5,0.4-1.5,1.1c0,0.6,0.3,0.9,1.2,1l1.1,0.1c1.2,0.1,2,0.6,2,1.9C555.3-302.4,554.2-301.7,552.5-301.7z"/>
	<path class="st10" d="M565.4-302.3c-0.4,0.4-1,0.6-1.7,0.6c-0.8,0-1.4-0.2-1.9-0.9v0.8h-1v-10h1v3.9c0.6-0.7,1.2-0.9,1.9-0.9
		s1.3,0.2,1.7,0.6c0.7,0.7,0.8,1.8,0.8,2.9S566.1-303,565.4-302.3z M563.5-307.8c-1.5,0-1.7,1.3-1.7,2.6c0,1.3,0.2,2.6,1.7,2.6
		s1.7-1.3,1.7-2.6S565-307.8,563.5-307.8z"/>
	<path class="st10" d="M569-304.9c0,1.5,0.7,2.4,2,2.4c0.8,0,1.3-0.2,1.8-0.8l0.7,0.6c-0.7,0.7-1.3,1.1-2.5,1.1c-1.8,0-3-1.1-3-3.5
		c0-2.2,1.1-3.5,2.8-3.5c1.8,0,2.8,1.3,2.8,3.3v0.5H569V-304.9z M572.5-306.8c-0.3-0.6-0.9-1-1.6-1s-1.3,0.4-1.6,1
		c-0.2,0.4-0.2,0.6-0.2,1.1h3.6C572.6-306.3,572.6-306.5,572.5-306.8z"/>
	<path class="st10" d="M577.7-301.8c-1.2,0-1.8-0.8-1.8-1.8v-4.2H575v-0.8h0.9v-2.2h1v2.2h1.5v0.8H577v4.2c0,0.6,0.3,1,0.9,1h0.5
		v0.9L577.7-301.8L577.7-301.8z"/>
	<path class="st10" d="M582.4-301.8c-1.2,0-1.8-0.8-1.8-1.8v-4.2h-0.9v-0.8h0.9v-2.2h1v2.2h1.5v0.8h-1.5v4.2c0,0.6,0.3,1,0.9,1h0.5
		v0.9L582.4-301.8L582.4-301.8z"/>
	<path class="st10" d="M585.6-304.9c0,1.5,0.7,2.4,2,2.4c0.8,0,1.3-0.2,1.8-0.8l0.7,0.6c-0.7,0.7-1.3,1.1-2.5,1.1
		c-1.8,0-3-1.1-3-3.5c0-2.2,1.1-3.5,2.8-3.5c1.8,0,2.8,1.3,2.8,3.3v0.5h-4.6V-304.9z M589.1-306.8c-0.3-0.6-0.9-1-1.6-1
		s-1.3,0.4-1.6,1c-0.2,0.4-0.2,0.6-0.2,1.1h3.6C589.2-306.3,589.2-306.5,589.1-306.8z"/>
	<path class="st10" d="M596.3-307.3c-0.4-0.4-0.7-0.5-1.2-0.5c-1,0-1.7,0.8-1.7,1.8v4.2h-1v-6.9h1v0.8c0.4-0.6,1.1-0.9,1.9-0.9
		c0.7,0,1.2,0.2,1.7,0.6L596.3-307.3z"/>
	<path class="st10" d="M606.4-302.3c-0.4,0.4-1,0.6-1.7,0.6c-0.8,0-1.4-0.2-1.9-0.9v0.8h-1v-10h1v3.9c0.6-0.7,1.2-0.9,1.9-0.9
		s1.3,0.2,1.7,0.6c0.7,0.7,0.8,1.8,0.8,2.9S607.1-303,606.4-302.3z M604.5-307.8c-1.5,0-1.7,1.3-1.7,2.6c0,1.3,0.2,2.6,1.7,2.6
		s1.7-1.3,1.7-2.6S606-307.8,604.5-307.8z"/>
	<path class="st10" d="M611.1-300.1c-0.1,0.4-0.3,0.6-0.5,0.8c-0.4,0.4-0.9,0.5-1.3,0.5h-0.4v-0.9h0.3c0.7,0,0.9-0.2,1.1-0.9
		l0.5-1.3l-2.5-6.8h1.1l1.9,5.5l1.9-5.5h1.1L611.1-300.1z"/>
	<path class="st10" d="M523.8-284.9c-1.2,0-2.1-0.3-2.8-1l0.7-0.7c0.5,0.6,1.3,0.8,2.1,0.8c1.1,0,1.8-0.4,1.8-1.2
		c0-0.6-0.3-0.9-1.1-1l-1.1-0.1c-1.3-0.1-2.1-0.7-2.1-1.8c0-1.3,1.1-2,2.5-2c1,0,1.9,0.2,2.5,0.7l-0.7,0.7c-0.5-0.4-1.1-0.5-1.8-0.5
		c-1,0-1.5,0.4-1.5,1.1c0,0.6,0.3,0.9,1.2,1l1.1,0.1c1.2,0.1,2,0.6,2,1.9C526.7-285.6,525.5-284.9,523.8-284.9z"/>
	<path class="st10" d="M533-285v-4.3c0-1.2-0.6-1.8-1.7-1.8c-1,0-1.7,0.6-1.7,1.8v4.3h-1v-10h1v3.8c0.5-0.6,1.2-0.8,1.9-0.8
		c1.6,0,2.5,1,2.5,2.5v4.4h-1V-285z"/>
	<path class="st10" d="M540.4-285v-0.7c-0.6,0.6-1.1,0.7-2,0.7c-1,0-1.5-0.2-1.9-0.6c-0.3-0.3-0.5-0.9-0.5-1.4c0-1.2,0.8-2,2.4-2
		h2.1v-0.7c0-1-0.5-1.5-1.8-1.5c-0.9,0-1.3,0.2-1.7,0.8l-0.7-0.6c0.6-0.8,1.3-1,2.4-1c1.8,0,2.8,0.8,2.8,2.3v4.7L540.4-285
		L540.4-285z M540.4-288.1h-1.9c-1,0-1.5,0.4-1.5,1.2c0,0.8,0.5,1.2,1.6,1.2c0.6,0,1.1,0,1.5-0.5c0.2-0.2,0.4-0.6,0.4-1.2
		L540.4-288.1L540.4-288.1z"/>
	<path class="st10" d="M547.7-290.5c-0.4-0.4-0.7-0.5-1.2-0.5c-1,0-1.7,0.8-1.7,1.8v4.2h-1v-6.9h1v0.8c0.4-0.6,1.1-0.9,1.9-0.9
		c0.7,0,1.2,0.2,1.7,0.6L547.7-290.5z"/>
	<path class="st10" d="M549.7-293.8v-1.1h1.1v1.1H549.7z M549.7-285v-6.9h1v6.9H549.7z"/>
	<path class="st10" d="M557.7-285v-4.2c0-1.2-0.7-1.8-1.7-1.8s-1.7,0.6-1.7,1.8v4.2h-1v-6.9h1v0.8c0.5-0.6,1.2-0.8,1.9-0.8
		s1.3,0.2,1.8,0.6c0.5,0.5,0.7,1.1,0.7,1.9v4.4H557.7z"/>
	<path class="st10" d="M563.4-281.8c-1,0-1.6-0.3-2.3-0.9l0.7-0.6c0.5,0.4,0.9,0.7,1.7,0.7c1.3,0,1.9-0.9,1.9-2.1v-1.1
		c-0.6,0.7-1.2,0.9-1.9,0.9s-1.3-0.3-1.7-0.6c-0.7-0.7-0.8-1.8-0.8-2.9s0.2-2.2,0.8-2.9c0.4-0.4,1-0.6,1.7-0.6
		c0.8,0,1.4,0.2,1.9,0.9v-0.8h1v7.1C566.2-283,565.2-281.8,563.4-281.8z M563.5-291c-1.5,0-1.7,1.3-1.7,2.6s0.2,2.6,1.7,2.6
		s1.7-1.3,1.7-2.6S565-291,563.5-291z"/>
	<path class="st10" d="M574-283.3c-0.1,0.4-0.3,0.6-0.5,0.8c-0.4,0.4-0.9,0.5-1.3,0.5h-0.4v-0.9h0.3c0.7,0,0.9-0.2,1.1-0.9l0.5-1.3
		l-2.5-6.8h1.1l1.9,5.5l1.9-5.5h1.1L574-283.3z"/>
	<path class="st10" d="M582.8-285.7c-0.5,0.5-1.1,0.8-2,0.8c-0.8,0-1.5-0.3-2-0.8c-0.7-0.7-0.8-1.7-0.8-2.7s0.1-2,0.8-2.7
		c0.5-0.5,1.1-0.8,2-0.8c0.8,0,1.5,0.3,2,0.8c0.7,0.7,0.8,1.7,0.8,2.7S583.5-286.4,582.8-285.7z M582.1-290.5
		c-0.3-0.3-0.8-0.5-1.3-0.5s-0.9,0.2-1.2,0.5c-0.5,0.5-0.6,1.4-0.6,2.1s0.1,1.6,0.6,2.1c0.3,0.3,0.8,0.5,1.2,0.5s0.9-0.2,1.3-0.5
		c0.5-0.5,0.5-1.4,0.5-2.1S582.6-290,582.1-290.5z"/>
	<path class="st10" d="M590.1-285v-0.8c-0.5,0.6-1.2,0.9-1.9,0.9s-1.4-0.2-1.8-0.6c-0.5-0.5-0.7-1.1-0.7-1.9v-4.4h1v4.2
		c0,1.2,0.6,1.8,1.7,1.8c1,0,1.7-0.6,1.7-1.8v-4.2h1v6.9L590.1-285L590.1-285z"/>
	<path class="st10" d="M597.5-290.5c-0.4-0.4-0.7-0.5-1.2-0.5c-1,0-1.7,0.8-1.7,1.8v4.2h-1v-6.9h1v0.8c0.4-0.6,1.1-0.9,1.9-0.9
		c0.7,0,1.2,0.2,1.7,0.6L597.5-290.5z"/>
	<path class="st10" d="M534.4-268.2c-1.2,0-1.8-0.8-1.8-1.8v-8.1h1v8.1c0,0.7,0.2,1,0.9,1h0.5v0.9h-0.6L534.4-268.2L534.4-268.2z"/>
	<path class="st10" d="M541-268.9c-0.5,0.5-1.1,0.8-2,0.8c-0.8,0-1.5-0.3-2-0.8c-0.7-0.7-0.8-1.7-0.8-2.7s0.1-2,0.8-2.7
		c0.5-0.5,1.1-0.8,2-0.8c0.8,0,1.5,0.3,2,0.8c0.7,0.7,0.8,1.7,0.8,2.7S541.7-269.6,541-268.9z M540.3-273.7
		c-0.3-0.3-0.8-0.5-1.3-0.5s-0.9,0.2-1.2,0.5c-0.5,0.5-0.6,1.4-0.6,2.1s0.1,1.6,0.6,2.1c0.3,0.3,0.8,0.5,1.2,0.5s0.9-0.2,1.3-0.5
		c0.5-0.5,0.5-1.4,0.5-2.1S540.8-273.2,540.3-273.7z"/>
	<path class="st10" d="M546.7-268.1c-1.7,0-3.1-1.2-3.1-3.5c0-2.4,1.3-3.5,3.1-3.5c1,0,1.6,0.3,2.3,1l-0.7,0.6
		c-0.5-0.6-0.9-0.8-1.6-0.8c-0.7,0-1.2,0.3-1.6,0.8c-0.3,0.4-0.4,1-0.4,1.8s0.1,1.4,0.4,1.8c0.4,0.5,0.9,0.8,1.6,0.8
		c0.7,0,1.1-0.2,1.6-0.8l0.7,0.7C548.2-268.3,547.6-268.1,546.7-268.1z"/>
	<path class="st10" d="M554.6-268.2v-0.7c-0.6,0.6-1.1,0.7-2,0.7c-1,0-1.5-0.2-1.9-0.6c-0.3-0.3-0.5-0.9-0.5-1.4c0-1.2,0.8-2,2.4-2
		h2.1v-0.7c0-1-0.5-1.5-1.8-1.5c-0.9,0-1.3,0.2-1.7,0.8l-0.7-0.6c0.6-0.8,1.3-1,2.4-1c1.8,0,2.8,0.8,2.8,2.3v4.7L554.6-268.2
		L554.6-268.2z M554.6-271.3h-1.9c-1,0-1.5,0.4-1.5,1.2s0.5,1.2,1.6,1.2c0.6,0,1.1,0,1.5-0.5c0.2-0.2,0.4-0.6,0.4-1.2L554.6-271.3
		L554.6-271.3z"/>
	<path class="st10" d="M560-268.2c-1.2,0-1.8-0.8-1.8-1.8v-4.2h-0.9v-0.8h0.9v-2.2h1v2.2h1.5v0.8h-1.5v4.2c0,0.6,0.3,1,0.9,1h0.5
		v0.9H560V-268.2z"/>
	<path class="st10" d="M562.7-277v-1.1h1.1v1.1H562.7z M562.7-268.2v-6.8h1v6.9h-1V-268.2z"/>
	<path class="st10" d="M570.7-268.9c-0.5,0.5-1.1,0.8-2,0.8c-0.8,0-1.5-0.3-2-0.8c-0.7-0.7-0.8-1.7-0.8-2.7s0.1-2,0.8-2.7
		c0.5-0.5,1.1-0.8,2-0.8c0.8,0,1.5,0.3,2,0.8c0.7,0.7,0.8,1.7,0.8,2.7S571.4-269.6,570.7-268.9z M570-273.7
		c-0.3-0.3-0.8-0.5-1.3-0.5s-0.9,0.2-1.2,0.5c-0.5,0.5-0.6,1.4-0.6,2.1s0.1,1.6,0.6,2.1c0.3,0.3,0.8,0.5,1.2,0.5s0.9-0.2,1.3-0.5
		c0.5-0.5,0.5-1.4,0.5-2.1S570.5-273.2,570-273.7z"/>
	<path class="st10" d="M578.1-268.2v-4.2c0-1.2-0.7-1.8-1.7-1.8s-1.7,0.6-1.7,1.8v4.2h-1v-6.8h1v0.8c0.5-0.6,1.2-0.8,1.9-0.8
		s1.3,0.2,1.8,0.6c0.5,0.5,0.7,1.1,0.7,1.9v4.4h-1V-268.2z"/>
	<path class="st10" d="M586-274l-1.1,1.7c-0.2,0.3-0.3,0.6-0.3,0.8v0.5h-1v-0.6c0-0.5,0.1-0.9,0.4-1.3l1.1-1.6
		c0.3-0.4,0.5-0.7,0.5-1.2c0-0.9-0.7-1.7-1.6-1.7c-1,0-1.6,0.8-1.6,1.7h-1c0-1.4,1.1-2.6,2.6-2.6s2.6,1.1,2.6,2.5
		C586.6-275,586.3-274.5,586-274z M583.5-268.2v-1.2h1.2v1.2H583.5z"/>
</g>
<line class="st11" x1="487.7" y1="-261.1" x2="629.3" y2="-261.1"/>
<line class="st8" x1="559.1" y1="-260.9" x2="559.1" y2="-231.2"/>
<g>
	<rect x="485.6" y="-252.4" class="st9" width="73" height="16.4"/>
	<path class="st12" d="M516.3-246.5v4.1h-1.9v-4.1l-3-5.9h2.1l1.9,4l1.8-4h2.1L516.3-246.5z"/>
	<path class="st12" d="M520.7-245.5c0,0.9,0.6,1.6,1.6,1.6c0.8,0,1.2-0.2,1.7-0.7l1.1,1.1c-0.7,0.7-1.5,1.1-2.8,1.1
		c-1.7,0-3.4-0.8-3.4-3.7c0-2.4,1.3-3.7,3.2-3.7c2,0,3.2,1.5,3.2,3.5v0.8L520.7-245.5L520.7-245.5z M523.3-247.5
		c-0.2-0.4-0.6-0.8-1.2-0.8c-0.6,0-1,0.3-1.2,0.8c-0.1,0.3-0.2,0.5-0.2,0.8h2.8C523.4-247,523.4-247.2,523.3-247.5z"/>
	<path class="st12" d="M529.3-242.3c-1.1,0-2.2-0.1-3.1-1l1.2-1.2c0.6,0.6,1.4,0.7,1.9,0.7c0.6,0,1.3-0.2,1.3-0.8
		c0-0.4-0.2-0.6-0.8-0.7l-1.1-0.1c-1.3-0.1-2.1-0.7-2.1-2c0-1.5,1.3-2.3,2.8-2.3c1.1,0,2.1,0.2,2.8,0.9l-1.1,1.1
		c-0.4-0.4-1.1-0.5-1.7-0.5c-0.7,0-1,0.3-1,0.7c0,0.3,0.1,0.6,0.8,0.6l1.1,0.1c1.4,0.1,2.2,0.9,2.2,2.1
		C532.4-243.1,531-242.3,529.3-242.3z"/>
</g>
<g>
	<rect x="559.1" y="-252.4" class="st9" width="73" height="16.4"/>
	<path class="st12" d="M594.2-242.4l-4.6-7v7h-1.5v-10h1.4l4.6,7v-7h1.5v10H594.2z"/>
	<path class="st12" d="M602.7-243.1c-0.5,0.5-1.2,0.8-2.1,0.8s-1.7-0.4-2.1-0.8c-0.7-0.7-0.8-1.6-0.8-2.8s0.2-2.1,0.8-2.8
		c0.5-0.5,1.1-0.8,2.1-0.8s1.7,0.4,2.1,0.8c0.7,0.7,0.8,1.6,0.8,2.8C603.6-244.7,603.4-243.8,602.7-243.1z M601.7-247.9
		c-0.3-0.3-0.6-0.4-1.1-0.4s-0.8,0.1-1,0.4c-0.4,0.4-0.5,1.2-0.5,1.9c0,0.8,0.1,1.5,0.5,1.9c0.3,0.3,0.6,0.4,1,0.4s0.8-0.2,1.1-0.4
		c0.4-0.4,0.5-1.2,0.5-1.9S602.1-247.5,601.7-247.9z"/>
</g>
<path class="st13" d="M352.8-361.3c-1.2-0.4-32.5-15.8-32.5-15.8h-12.5l-27.5,12.5l-14.6,11.2L252-273.8l4.6,36.6l10,18.7l32.9,23.3
	l30.8,6.7l36.2-20.4l0.4-108.3L352.8-361.3z"/>
<path class="st12" d="M54.3-300.3c-0.1,0-3.6-1.7-3.6-1.7h-1.4l-3,1.4l-1.6,1.2l-1.5,8.7l0.5,4l1.1,2l3.6,2.6l3.4,0.7l4-2.2v-11.8
	L54.3-300.3z"/>
<path class="st12" d="M141.3-338.3c-0.1,0-3.6-1.7-3.6-1.7h-1.4l-3,1.4l-1.6,1.2l-1.5,8.7l0.5,4l1.1,2l3.6,2.6l3.4,0.7l4-2.2v-11.8
	L141.3-338.3z"/>
<path class="st12" d="M107.2-210.9c-0.1,0-3.6-1.7-3.6-1.7h-1.4l-3,1.4l-1.6,1.2l-1.5,8.7l0.5,4l1.1,2l3.6,2.6l3.4,0.7l4-2.2V-206
	L107.2-210.9z"/>
<path class="st12" d="M53.7-229.8c-0.1,0-3.6-1.7-3.6-1.7h-1.4l-3,1.4l-1.6,1.2l-1.5,8.7l0.5,4l1.1,2l3.6,2.6l3.4,0.7l4-2.2v-11.8
	L53.7-229.8z"/>
<path class="st12" d="M163.7-257.8c-0.1,0-3.6-1.7-3.6-1.7h-1.4l-3,1.4l-1.6,1.2l-1.5,8.7l0.5,4l1.1,2l3.6,2.6l3.4,0.7l4-2.2v-11.8
	L163.7-257.8z"/>
<polyline class="st14" points="307.8,-377.1 312,-367.9 294.5,-357.9 265.8,-353.3 268.3,-245.9 "/>
<path class="st14" d="M256.6-237.2l11.7-8.7l19.4,10c0,0,11.9,40.8,9.8,39.2"/>
<polyline class="st14" points="266.6,-218.4 287.6,-235.9 315.3,-300 309.9,-353.8 294.5,-357.9 "/>
<polyline class="st14" points="366.5,-208.8 332.8,-250.1 315.3,-300 "/>
<polyline class="st14" points="299.5,-195.1 322,-204.3 330.3,-188.4 "/>
<line class="st14" x1="332.8" y1="-250.1" x2="322" y2="-204.3"/>
<line class="st14" x1="309.9" y1="-353.8" x2="367" y2="-317.1"/>
<polyline class="st14" points="320.3,-377.1 312,-367.9 309.9,-353.8 352.8,-361.3 "/>
<g>
	<path class="st8" d="M359.7-383.9c11.1,5.3,15.8,18.4,10.5,29.3"/>
	<path class="st8" d="M368.8-395.2c17.2,8.3,24.5,28.7,16.4,45.6"/>
	<path class="st8" d="M379-409.1c25.2,12.2,35.9,42,24,66.8"/>
</g>
<g>
	<g>
		<polyline class="st15" points="134.9,-327.4 136.8,-328.1 137.2,-326.2 		"/>
		<line class="st16" x1="138" y1="-322.4" x2="152.5" y2="-255.6"/>
		<polyline class="st15" points="152.9,-253.7 153.3,-251.7 152,-250.2 		"/>
		<line class="st17" x1="149.2" y1="-247.1" x2="111.5" y2="-205.1"/>
		<polyline class="st15" points="110.1,-203.6 108.8,-202.1 106.8,-202.6 		"/>
		<line class="st18" x1="103.2" y1="-203.5" x2="53.6" y2="-216.2"/>
		<polyline class="st15" points="51.7,-216.6 49.8,-217.1 49.8,-219.1 		"/>
		<line class="st19" x1="49.8" y1="-223" x2="49.8" y2="-290.2"/>
		<polyline class="st15" points="49.8,-292.1 49.8,-294.1 51.6,-294.8 		"/>
		<line class="st20" x1="55.3" y1="-296.3" x2="133.1" y2="-326.7"/>
	</g>
</g>
<path class="st10" d="M107.8-330.1c0,6.1-11,23-11,23s-11-16.9-11-23s4.9-11,11-11S107.8-336.2,107.8-330.1z"/>
<g>
	<rect x="0.9" y="-159.5" class="st9" width="15.7" height="12.3"/>
	<path class="st21" d="M1.8-156.7v-1.1c0.5,0,0.9-0.1,1.1-0.1c0.3-0.1,0.6-0.2,0.8-0.4c0.1-0.2,0.3-0.4,0.3-0.6s0.1-0.3,0.1-0.3h1.4
		v8.5H3.8v-5.9L1.8-156.7L1.8-156.7z"/>
	<path class="st21" d="M8.4-152.6h1.8v1.8H8.4V-152.6z"/>
</g>
<g>
	<rect x="264.4" y="-184.5" class="st9" width="15.7" height="12.3"/>
	<path class="st21" d="M265.2-177.5c0.2-0.6,0.8-1.2,1.7-1.8c0.8-0.6,1.3-0.9,1.5-1.2c0.3-0.4,0.5-0.8,0.5-1.2s-0.1-0.7-0.3-0.9
		s-0.5-0.4-0.9-0.4c-0.5,0-0.9,0.2-1,0.6c-0.1,0.2-0.2,0.6-0.2,1h-1.6c0-0.7,0.2-1.3,0.4-1.8c0.4-0.8,1.2-1.3,2.4-1.3
		c0.9,0,1.6,0.2,2.1,0.7s0.8,1.2,0.8,2c0,0.6-0.2,1.2-0.6,1.7c-0.2,0.3-0.7,0.7-1.2,1.1l-0.7,0.5c-0.4,0.3-0.7,0.5-0.9,0.6
		s-0.3,0.3-0.4,0.5h3.7v1.5h-5.8C264.8-176.4,265-177,265.2-177.5z"/>
	<path class="st21" d="M271.9-177.6h1.8v1.8h-1.8V-177.6z"/>
</g>
<g>
	<rect x="471.9" y="-58.1" class="st9" width="15.7" height="12.3"/>
	<path class="st21" d="M473.9-52.1c0,0.3,0.1,0.6,0.2,0.8c0.2,0.4,0.6,0.6,1.1,0.6c0.3,0,0.6-0.1,0.9-0.3c0.2-0.2,0.4-0.5,0.4-1
		c0-0.6-0.2-0.9-0.7-1.1c-0.3-0.1-0.7-0.2-1.2-0.2v-1.2c0.5,0,0.9-0.1,1.1-0.2c0.4-0.2,0.6-0.5,0.6-1c0-0.3-0.1-0.6-0.3-0.8
		c-0.2-0.2-0.5-0.3-0.8-0.3c-0.4,0-0.7,0.1-0.9,0.4c-0.2,0.2-0.3,0.6-0.3,1h-1.6c0-0.4,0.1-0.8,0.2-1.2c0.1-0.3,0.4-0.6,0.6-0.9
		c0.2-0.2,0.5-0.4,0.8-0.5s0.7-0.2,1.1-0.2c0.8,0,1.5,0.2,2,0.6s0.7,1,0.7,1.7c0,0.5-0.1,0.9-0.4,1.3c-0.2,0.2-0.4,0.4-0.6,0.4
		c0.2,0,0.4,0.1,0.7,0.4c0.4,0.4,0.6,0.9,0.6,1.6s-0.2,1.4-0.7,1.9s-1.2,0.8-2.2,0.8c-1.2,0-2-0.4-2.5-1.2c-0.2-0.4-0.4-1-0.4-1.6
		h1.6L473.9-52.1L473.9-52.1z"/>
	<path class="st21" d="M479.4-51.2h1.8v1.8h-1.8V-51.2z"/>
</g>
<g>
	<g>
		<path class="st22" d="M150.9-331.1c0,0,36.7-41.8,88.7-12.2"/>
		<g>
			<polygon class="st21" points="236.8,-340.6 244.2,-340.5 240.6,-347 			"/>
		</g>
	</g>
</g>
<polygon class="st0" points="106.1,194.1 146.4,180.3 144.6,175.2 111.1,175.2 100.2,180.6 "/>
<g>
	<polygon class="st0" points="161.6,182.6 104,199.1 91.6,216.1 96.2,229.8 99.5,229 104.2,242 183.3,220.3 203.9,204.5 
		203.9,167.4 	"/>
	<polygon class="st0" points="87.4,167 88.7,170 96.9,165.9 95.8,163.3 	"/>
	<path class="st23" d="M22,331.1v12.6h181.9v-67C170.5,284.4,104.6,301.3,22,331.1z"/>
	<polygon class="st0" points="56.8,214.9 84.1,172.2 88.7,170 87.4,167 95.8,163.3 96.9,165.9 107.9,160.6 22,160.6 22,230 	"/>
	<g>
		<g>
			<path class="st0" d="M203.9,235.3v-10.7l-85.9,23l-22.4,6.6l-9.8-34.3l20.4-31.9l80-27.4H158l-6.2,2.1l-0.8-2.1h-9.7l1.9,5.1
				l-40.3,13.8l-6-13.5l-8.2,4l7.4,16.8l-21.5,33.7l-8.4,10.9L55,252.2l-10.5,6.2l-17.4,15.9l-5.2,1.5v10.8l68.6-20.2l21,6.6
				L22,297.8v10.7l104.9-29l76.9-22.8v-10.8l-76.3,22.6l-21.3-6.7l14.5-4.3L203.9,235.3z M47,268.5l3-2.7l11.9-7l12-22.3l5.2-6.8
				l7.8,27.1L47,268.5z"/>
		</g>
	</g>
</g>
<g>
	<path class="st24" d="M377.3,164.7l12,36.1v0.1v0.1c0.1,18,0.1,36.1,0.1,54.1v27.1l-0.1,27.1v0.5l-0.5,0.3l-36.2,20.5l-0.3,0.2
		l-0.4-0.1l-30.8-6.6h-0.2l-0.2-0.1l-32.9-23.4l-0.2-0.1l-0.1-0.2l-10-18.8l-0.1-0.1v-0.2l-2.3-18.3l-2.2-18.3v-0.1v-0.1l7.1-39.7
		l7.2-39.7v-0.1l0.1-0.1l14.6-11.2l0,0l0,0l27.5-12.3L302,153.9l0,0l-14.5,11.3l0.1-0.1l-6.6,39.8l-6.7,39.8v-0.2l2.4,18.3l2.3,18.3
		l-0.1-0.3l10,18.7l-0.3-0.3l32.9,23.3l-0.4-0.2l30.8,6.7l-0.7,0.1l36.3-20.3l-0.5,0.8l0.2-27.1l0.2-27.1c0.2-18,0.3-36.1,0.5-54.1
		v0.1L377.3,164.7z"/>
</g>
<path class="st25" d="M281.5,200.9l6.3-36.2l14.6-11.2l27.5-12.5h12.5c0,0,31.2,15.4,32.5,15.8l14.2,44.1v26.3"/>
<path class="st24" d="M76.3,217.7c-0.1,0-3.6-1.7-3.6-1.7h-1.4l-3,1.4l-1.6,1.2l-1.5,8.7l0.5,4l1.1,2l3.6,2.6l3.4,0.7l4-2.2v-11.8
	L76.3,217.7z"/>
<path class="st24" d="M163.3,179.7c-0.1,0-3.6-1.7-3.6-1.7h-1.4l-3,1.4l-1.6,1.2l-1.5,8.7l0.5,4l1.1,2l3.6,2.6l3.4,0.7l4-2.2v-11.8
	L163.3,179.7z"/>
<path class="st24" d="M129.2,307.1c-0.1,0-3.6-1.7-3.6-1.7h-1.4l-3,1.4l-1.6,1.2l-1.5,8.7l0.5,4l1.1,2l3.6,2.6l3.4,0.7l4-2.2V312
	L129.2,307.1z"/>
<path class="st24" d="M75.7,288.2c-0.1,0-3.6-1.7-3.6-1.7h-1.4l-3,1.4l-1.6,1.2l-1.5,8.7l0.5,4l1.1,2l3.6,2.6l3.4,0.7l4-2.2v-11.8
	L75.7,288.2z"/>
<path class="st24" d="M185.7,260.2c-0.1,0-3.6-1.7-3.6-1.7h-1.4l-3,1.4l-1.6,1.2l-1.5,8.7l0.5,4l1.1,2l3.6,2.6l3.4,0.7l4-2.2v-11.8
	L185.7,260.2z"/>
<polyline class="st25" points="329.8,140.9 334,150.1 316.5,160.1 287.8,164.7 290.3,272.1 "/>
<path class="st25" d="M278.6,280.8l11.7-8.7l19.4,10c0,0,11.9,40.8,9.8,39.2"/>
<polyline class="st25" points="309.6,282.1 337.3,218 331.9,164.2 316.5,160.1 "/>
<g>
	<polygon class="st24" points="288.3,299.2 309.4,281.8 309.3,281.9 336.9,218.9 309.9,282.2 309.9,282.3 309.9,282.3 288.9,300 	
		"/>
</g>
<line class="st25" x1="337.3" y1="218" x2="354.8" y2="267.9"/>
<g>
	<polygon class="st24" points="388.2,309.5 354.6,268.1 354.6,268 354.6,268 339.1,223 355,267.9 355,267.8 388.9,308.8 	"/>
</g>
<polyline class="st25" points="321.5,322.9 344,313.7 352.3,329.6 "/>
<g>
	<polygon class="st24" points="343.5,313.6 354.7,267.9 354.7,268 347,245.6 355,267.9 355,267.9 355,268 344.5,313.8 	"/>
</g>
<line class="st25" x1="331.9" y1="164.2" x2="389" y2="200.9"/>
<polyline class="st25" points="342.3,140.9 334,150.1 331.9,164.2 374.8,156.7 "/>
<g>
	<g>
		<path class="st10" d="M381.7,134c0,0,0.5,0.2,1.3,0.6c0.2,0.1,0.4,0.2,0.7,0.3c0.2,0.2,0.5,0.3,0.8,0.5c0.6,0.4,1.2,0.7,1.9,1.3
			c0.3,0.3,0.7,0.5,1,0.8s0.7,0.6,1,0.9c0.7,0.6,1.3,1.4,2,2.2c0.6,0.8,1.3,1.7,1.8,2.7c0.6,0.9,1,2,1.5,3c0.4,1.1,0.8,2.1,1,3.2
			c0.3,1.1,0.4,2.2,0.6,3.2c0,0.5,0,1.1,0,1.6c0,0.3,0,0.5,0,0.8c0,0.2-0.1,0.5-0.1,0.7c-0.1,0.5-0.1,0.9-0.2,1.4
			c-0.1,0.4-0.2,0.9-0.3,1.3c-0.2,0.8-0.5,1.5-0.8,2.2c-0.1,0.3-0.3,0.6-0.4,0.9c-0.1,0.3-0.3,0.5-0.4,0.7c-0.5,0.8-0.8,1.3-0.8,1.3
			s-0.1,0.1-0.1,0v-0.1l0,0c0,0,0.1-0.5,0.3-1.5c0.1-0.2,0.1-0.5,0.2-0.7c0-0.3,0.1-0.6,0.2-0.9c0.1-0.3,0.1-0.7,0.2-1
			c0.1-0.4,0.1-0.7,0.1-1.1c0-0.4,0.1-0.8,0.1-1.2s0-0.9,0-1.3c0-0.4,0-0.9,0-1.4s0-0.9,0-1.4c-0.1-1-0.1-2-0.3-3
			c-0.1-1-0.4-2-0.7-3c-0.4-1-0.7-2-1.2-2.9c-0.4-1-1-1.8-1.5-2.6c-0.6-0.8-1.1-1.6-1.8-2.2c-0.3-0.3-0.6-0.7-0.9-1
			s-0.6-0.6-0.9-0.8c-0.6-0.6-1.2-1-1.7-1.4c-0.3-0.2-0.5-0.4-0.7-0.5s-0.5-0.3-0.7-0.4c-0.8-0.5-1.3-0.8-1.3-0.8s-0.1-0.1,0-0.1
			C381.6,134,381.7,134,381.7,134z"/>
	</g>
	<g>
		<path class="st10" d="M390.8,122.8c0,0,0.7,0.4,2.1,1c0.3,0.2,0.7,0.4,1.1,0.6s0.8,0.5,1.2,0.8c0.9,0.6,1.9,1.2,2.9,2
			c0.5,0.4,1,0.8,1.6,1.2c0.5,0.5,1,1,1.5,1.5c1.1,1,2,2.2,3.1,3.4c0.5,0.6,0.9,1.3,1.4,2c0.2,0.3,0.5,0.7,0.7,1
			c0.2,0.4,0.4,0.7,0.6,1.1c0.4,0.7,0.9,1.5,1.2,2.3c0.3,0.8,0.7,1.6,1,2.4c0.6,1.6,1.2,3.2,1.5,4.9c0.5,1.6,0.6,3.3,0.8,4.9
			c0,0.8,0,1.6,0,2.4c0,0.4,0,0.8,0,1.2s-0.1,0.8-0.1,1.1c-0.1,0.7-0.2,1.5-0.3,2.1c-0.1,0.7-0.3,1.3-0.5,2
			c-0.2,0.6-0.3,1.2-0.5,1.8c-0.2,0.5-0.4,1.1-0.6,1.6s-0.4,0.9-0.5,1.4c-0.2,0.4-0.4,0.8-0.6,1.1c-0.7,1.3-1.1,2-1.1,2
			s-0.1,0.1-0.1,0c0,0-0.1-0.1,0-0.1l0,0c0,0,0.2-0.8,0.7-2.2c0.1-0.3,0.2-0.7,0.4-1.2c0.1-0.4,0.2-0.9,0.3-1.4
			c0.1-0.5,0.2-1,0.4-1.6c0.1-0.5,0.2-1.1,0.3-1.8c0.1-0.6,0.2-1.2,0.3-1.9c0-0.7,0.1-1.3,0.1-2c0-0.3,0-0.7,0.1-1.1
			c0-0.4,0-0.7,0-1.1c0-0.7,0-1.5,0-2.2c-0.1-1.5-0.2-3.1-0.5-4.7c-0.2-1.6-0.7-3.2-1.2-4.7c-0.3-0.8-0.6-1.5-0.9-2.3
			s-0.7-1.5-1-2.2c-0.2-0.4-0.4-0.7-0.5-1.1c-0.2-0.4-0.4-0.7-0.6-1c-0.4-0.7-0.8-1.3-1.3-2c-1-1.2-1.8-2.5-2.8-3.5
			c-0.5-0.5-1-1-1.4-1.5c-0.5-0.4-1-0.9-1.5-1.3c-0.9-0.9-1.8-1.5-2.7-2.1c-0.4-0.3-0.8-0.6-1.2-0.8c-0.4-0.2-0.7-0.4-1.1-0.6
			c-1.3-0.7-2-1.2-2-1.2s-0.1-0.1,0-0.1C390.7,122.7,390.8,122.7,390.8,122.8z"/>
	</g>
	<g>
		<path class="st10" d="M401,108.8c0,0,1.1,0.6,3,1.6c0.5,0.2,1,0.5,1.6,0.8c0.5,0.4,1.1,0.7,1.8,1.2c0.6,0.4,1.3,0.9,2,1.3
			s1.4,1.1,2.1,1.6c0.7,0.6,1.5,1.2,2.3,1.8c0.7,0.7,1.5,1.4,2.2,2.2c0.4,0.4,0.8,0.8,1.2,1.1c0.4,0.4,0.7,0.8,1.1,1.3
			c0.7,0.9,1.5,1.7,2.2,2.6s1.3,1.9,2,2.9c0.3,0.5,0.7,1,1,1.5s0.6,1.1,0.9,1.6s0.6,1.1,0.9,1.6l0.4,0.8l0.4,0.9
			c0.5,1.1,1,2.3,1.5,3.4c0.8,2.4,1.7,4.7,2.1,7.2c0.6,2.4,0.8,4.8,1.1,7.2c0,1.2,0,2.3,0,3.5c0,0.6,0,1.1,0,1.7
			c-0.1,0.6-0.1,1.1-0.2,1.6c-0.1,1.1-0.2,2.1-0.4,3.1c-0.2,1-0.4,1.9-0.6,2.9c-0.2,0.9-0.4,1.8-0.7,2.6c-0.3,0.8-0.6,1.6-0.8,2.3
			c-0.3,0.7-0.5,1.4-0.7,2c-0.3,0.6-0.6,1.1-0.8,1.6c-1,1.9-1.5,3-1.5,3s-0.1,0.1-0.1,0c0,0-0.1-0.1,0-0.1l0,0c0,0,0.4-1.2,1.1-3.2
			c0.2-0.5,0.4-1.1,0.6-1.7c0.2-0.6,0.3-1.3,0.5-2s0.4-1.5,0.6-2.3s0.3-1.7,0.4-2.6c0.1-0.9,0.3-1.8,0.4-2.8s0.1-2,0.2-3
			c0-0.5,0.1-1,0.1-1.6c0-0.5,0-1.1,0-1.6c0-1.1,0-2.2-0.1-3.3c-0.2-2.2-0.3-4.6-0.9-6.9c-0.3-2.4-1.1-4.7-1.8-7
			c-0.4-1.1-0.9-2.3-1.3-3.4l-0.3-0.8l-0.4-0.8c-0.3-0.5-0.5-1.1-0.8-1.6s-0.5-1.1-0.8-1.6s-0.6-1-0.9-1.5c-0.6-1-1.2-2-1.9-2.9
			c-1.4-1.8-2.7-3.6-4.2-5.1c-0.7-0.8-1.4-1.5-2.1-2.2c-0.7-0.6-1.5-1.3-2.2-1.9s-1.3-1.2-2-1.7s-1.3-0.9-1.9-1.4
			c-0.6-0.4-1.2-0.8-1.7-1.2c-0.6-0.3-1.1-0.6-1.5-0.9c-1.9-1.1-2.9-1.7-2.9-1.7s-0.1-0.1,0-0.1C400.9,108.8,401,108.8,401,108.8z"
			/>
	</g>
</g>
<g>
	<g>
		<polyline class="st26" points="156.9,190.6 158.8,189.9 159.2,191.8 		"/>
		<line class="st27" x1="160" y1="195.6" x2="174.5" y2="262.4"/>
		<polyline class="st26" points="174.9,264.3 175.3,266.3 174,267.8 		"/>
		<line class="st28" x1="171.2" y1="270.9" x2="133.5" y2="312.9"/>
		<polyline class="st26" points="132.1,314.4 130.8,315.9 128.8,315.4 		"/>
		<line class="st29" x1="125.2" y1="314.5" x2="75.6" y2="301.8"/>
		<polyline class="st26" points="73.7,301.4 71.8,300.9 71.8,298.9 		"/>
		<line class="st30" x1="71.8" y1="295" x2="71.8" y2="227.8"/>
		<polyline class="st26" points="71.8,225.9 71.8,223.9 73.6,223.2 		"/>
		<line class="st31" x1="77.3" y1="221.7" x2="155.1" y2="191.3"/>
	</g>
</g>
<path class="st10" d="M129.8,187.9c0,6.1-11,23-11,23s-11-16.9-11-23s4.9-11,11-11S129.8,181.8,129.8,187.9z"/>
<rect x="22" y="350.6" class="st9" width="15.7" height="12.3"/>
<g class="st32">
	<path d="M25,351v7.4h-0.9v-6.2l-1.8,0.9v-1l2.2-1.1H25z"/>
	<path d="M26.5,358.3c-0.1-0.1-0.2-0.3-0.2-0.5s0.1-0.3,0.2-0.5s0.3-0.2,0.5-0.2c0.2,0,0.3,0.1,0.4,0.2s0.2,0.3,0.2,0.5
		s-0.1,0.3-0.2,0.5s-0.3,0.2-0.4,0.2C26.8,358.4,26.6,358.4,26.5,358.3z"/>
</g>
<g>
	<rect x="273.3" y="337.5" class="st9" width="15.7" height="12.3"/>
	<g class="st32">
		<path d="M277.4,339.9c0-0.4-0.1-0.7-0.4-0.9c-0.2-0.2-0.6-0.3-1-0.3c-0.4,0-0.8,0.1-1,0.4c-0.2,0.3-0.4,0.6-0.4,1.1h-1
			c0.1-0.7,0.3-1.3,0.8-1.7c0.4-0.4,1-0.6,1.7-0.6c0.7,0,1.2,0.2,1.6,0.6c0.4,0.4,0.6,0.9,0.6,1.5c0,0.1,0,0.2,0,0.3
			c0,0.1-0.1,0.2-0.1,0.3c0,0.1-0.1,0.2-0.2,0.3s-0.1,0.2-0.2,0.3c0,0.1-0.1,0.2-0.2,0.3c-0.1,0.1-0.2,0.2-0.2,0.3
			c0,0-0.1,0.2-0.3,0.3c-0.1,0.2-0.2,0.3-0.3,0.3l-1.9,2.1h3.5v0.8h-4.8v-0.6l2.4-2.6c0.4-0.4,0.6-0.7,0.7-0.8
			c0.1-0.1,0.3-0.3,0.4-0.6C277.3,340.3,277.4,340.1,277.4,339.9z"/>
		<path d="M279.6,345.1c-0.1-0.1-0.2-0.3-0.2-0.5s0.1-0.3,0.2-0.5s0.3-0.2,0.5-0.2c0.2,0,0.3,0.1,0.5,0.2s0.2,0.3,0.2,0.5
			s-0.1,0.3-0.2,0.5s-0.3,0.2-0.5,0.2C279.8,345.3,279.7,345.3,279.6,345.1z"/>
	</g>
</g>
<rect x="457" y="451.2" class="st9" width="15.7" height="12.3"/>
<g class="st32">
	<path d="M459.2,455.6v-0.8h0.5c0.4,0,0.7-0.1,1-0.3s0.4-0.5,0.4-0.9c0-0.4-0.1-0.7-0.4-0.9c-0.2-0.2-0.6-0.4-1-0.4s-0.7,0.1-1,0.4
		s-0.4,0.6-0.5,0.9h-0.9c0.1-0.6,0.3-1.1,0.8-1.5c0.4-0.4,1-0.6,1.6-0.6c0.7,0,1.2,0.2,1.6,0.6c0.4,0.4,0.6,0.9,0.6,1.5
		c0,0.4-0.1,0.8-0.3,1.1c-0.2,0.3-0.5,0.5-0.8,0.6c0.4,0.1,0.7,0.3,0.9,0.6c0.2,0.3,0.3,0.7,0.3,1.1c0,0.6-0.2,1.1-0.6,1.6
		s-1,0.6-1.7,0.6c-0.7,0-1.3-0.2-1.8-0.6c-0.5-0.4-0.7-0.9-0.8-1.6h0.9c0.1,0.4,0.2,0.8,0.5,1c0.3,0.2,0.6,0.4,1.1,0.4
		c0.4,0,0.8-0.1,1.1-0.4s0.4-0.6,0.4-1c0-0.4-0.1-0.7-0.4-1c-0.3-0.2-0.6-0.4-1.1-0.4H459.2z"/>
	<path d="M463,458.9c-0.1-0.1-0.2-0.3-0.2-0.5s0.1-0.3,0.2-0.5c0.1-0.1,0.3-0.2,0.5-0.2c0.2,0,0.3,0.1,0.4,0.2
		c0.1,0.1,0.2,0.3,0.2,0.5s-0.1,0.3-0.2,0.5c-0.1,0.1-0.3,0.2-0.4,0.2C463.3,459,463.1,459,463,458.9z"/>
</g>
<rect x="614.3" y="232.5" class="st9" width="15.7" height="12.3"/>
<g class="st32">
	<path d="M617.3,233v7.4h-0.9v-6.2l-1.8,0.9v-1l2.2-1.1H617.3z"/>
	<path d="M618.8,240.2c-0.1-0.1-0.2-0.3-0.2-0.5s0.1-0.3,0.2-0.5s0.3-0.2,0.5-0.2c0.2,0,0.3,0.1,0.4,0.2s0.2,0.3,0.2,0.5
		s-0.1,0.3-0.2,0.5s-0.3,0.2-0.4,0.2C619.1,240.4,618.9,240.3,618.8,240.2z"/>
</g>
<g>
	<g>
		<path class="st33" d="M172.9,186.9c0,0,36.2-41.2,87.6-12.8"/>
		<g>
			<polygon points="258.1,175.3 266.2,177.5 260.3,171.5 			"/>
		</g>
	</g>
</g>
<path class="st34" d="M657.5,414c0,16.5-13.4,29.8-29.8,29.8H487.3c-16.5,0-29.8-13.4-29.8-29.8V50.6c0-16.5,13.4-29.8,29.8-29.8
	h140.3c16.5,0,29.8,13.4,29.8,29.8V414H657.5z"/>
<g>
	<path class="st35" d="M557.1,20.7c0,0,9.3-0.1,25.7-0.3c8.2-0.1,18.1-0.2,29.5-0.3c2.8,0,5.8,0,8.8-0.1c1.5,0,3,0,4.6,0
		c0.8,0,1.6,0,2.4,0h1.2l1.2,0.1c6.5,0.5,13.2,3.3,18.4,8.3s8.6,12.2,8.9,20c0.1,7.6,0.1,15.4,0.1,23.4c0,16.1,0,33,0.1,50.5
		c0,35.1,0.1,72.4,0.1,109.8s-0.1,74.8-0.1,109.8c0,17.5,0,34.5-0.1,50.5c0,4,0,8,0,11.9c0,2,0,3.9,0,5.8s0,3.8-0.1,5.8
		c-0.7,7.7-4.2,14.9-9.4,19.8c-2.6,2.5-5.5,4.5-8.7,5.9c-3.1,1.4-6.4,2.2-9.7,2.4c-1.6,0.1-3.2,0.1-4.8,0.1s-3.1,0-4.6,0
		c-3,0-6,0-8.8-0.1c-11.4-0.1-21.3-0.2-29.5-0.3c-16.4-0.2-25.7-0.3-25.7-0.3s9.3-0.1,25.7-0.3c8.2-0.1,18.1-0.2,29.5-0.3
		c2.8,0,5.8,0,8.8-0.1c1.5,0,3,0,4.6,0s3.1,0,4.7-0.1c3.1-0.2,6.3-1,9.3-2.4c3-1.3,5.8-3.3,8.2-5.7c4.9-4.8,8.2-11.6,8.8-18.9
		c0.2-1.8,0.1-3.7,0.1-5.7c0-1.9,0-3.9,0-5.8c0-3.9,0-7.9,0-11.9c0-16.1,0-33-0.1-50.5c0-35.1-0.1-72.4-0.1-109.8
		s0.1-74.8,0.1-109.8c0-17.5,0-34.5,0.1-50.5c0-8,0.1-15.9,0-23.4c-0.3-7.4-3.5-14.3-8.4-19.1s-11.3-7.5-17.5-8l-1.2-0.1H628
		c-0.8,0-1.6,0-2.3,0c-1.6,0-3.1,0-4.6,0c-3,0-6,0-8.8-0.1c-11.4-0.1-21.3-0.2-29.5-0.3C566.5,20.8,557.1,20.7,557.1,20.7z"/>
</g>
<rect x="470.5" y="81.8" class="st36" width="172" height="303"/>
<rect x="487" y="165.5" class="st37" width="141.6" height="115"/>
<rect x="487" y="250.6" class="st38" width="71.1" height="29.9"/>
<g>
	<circle class="st34" cx="558.8" cy="412.3" r="17.1"/>
</g>
<g>
	<g>
		<path class="st35" d="M558.8,395.2c0,0,0.2,0,0.6,0c0.4,0,1-0.1,1.7,0c0.4,0,0.8,0.1,1.2,0.1c0.4,0.1,0.9,0.2,1.4,0.3
			c0.5,0.1,1,0.3,1.6,0.5s1.1,0.5,1.7,0.7c0.6,0.3,1.2,0.6,1.8,1s1.2,0.8,1.8,1.3c1.2,0.9,2.2,2.1,3.2,3.5c0.9,1.4,1.7,2.9,2.2,4.6
			s0.8,3.4,0.8,5.2c-0.1,0.9,0,1.7-0.2,2.6c-0.1,0.9-0.4,1.8-0.6,2.6c-0.5,1.7-1.3,3.2-2.2,4.6s-2,2.6-3.2,3.5
			c-0.6,0.5-1.2,0.9-1.8,1.3s-1.2,0.7-1.8,1c-0.6,0.2-1.2,0.5-1.7,0.7c-0.6,0.2-1.1,0.3-1.6,0.5c-0.5,0.1-1,0.2-1.4,0.3
			c-0.4,0-0.9,0.1-1.2,0.1c-0.7,0.1-1.3,0-1.7,0s-0.6,0-0.6,0s0.2,0,0.6-0.1c0.4-0.1,1-0.1,1.7-0.3c0.4-0.1,0.7-0.2,1.2-0.3
			c0.4-0.1,0.9-0.3,1.3-0.4c0.5-0.2,0.9-0.4,1.5-0.6c0.5-0.2,1-0.5,1.5-0.8c1-0.7,2.1-1.4,3.1-2.4c1-0.9,1.9-2.1,2.7-3.3
			c0.8-1.3,1.4-2.7,1.9-4.2c0.2-0.8,0.4-1.5,0.5-2.3c0.1-0.7,0.1-1.7,0.2-2.4c0-1.6-0.2-3.2-0.7-4.7s-1-2.9-1.9-4.2
			c-0.8-1.2-1.7-2.4-2.7-3.3c-1-1-2.1-1.7-3.1-2.4c-0.5-0.3-1-0.6-1.5-0.8c-0.5-0.2-1-0.5-1.5-0.6c-0.5-0.2-0.9-0.3-1.3-0.4
			c-0.4-0.1-0.8-0.2-1.2-0.3c-0.7-0.2-1.3-0.2-1.7-0.3C559,395.3,558.8,395.2,558.8,395.2z"/>
	</g>
	<path class="st34" d="M558.8,429.4c-9.4,0-17.1-7.6-17.1-17.1c0-9.4,7.6-17.1,17.1-17.1"/>
</g>
<circle class="st39" cx="558.3" cy="43.4" r="3.2"/>
<path class="st39" d="M581.1,54.9h-45.2c-1,0-1.8-0.8-1.8-1.8l0,0c0-1,0.8-1.8,1.8-1.8h45.2c1,0,1.8,0.8,1.8,1.8l0,0
	C582.9,54.1,582.1,54.9,581.1,54.9z"/>
<rect x="499.4" y="178.2" class="st9" width="111.6" height="64.1"/>
<g class="st32">
	<path class="st10" d="M510.6,178.7h1.1v8.6h-1.1v-3.9h-4.9v3.9h-1.1v-8.6h1.1v3.7h4.9V178.7z"/>
	<path class="st10" d="M517.5,185.4h1c-0.1,0.6-0.4,1.1-0.8,1.4c-0.4,0.4-1,0.5-1.7,0.5c-0.8,0-1.5-0.3-2.1-0.9s-0.8-1.4-0.8-2.3
		c0-0.9,0.3-1.7,0.8-2.3c0.5-0.6,1.2-0.9,2-0.9c0.8,0,1.5,0.3,1.9,0.8c0.5,0.6,0.7,1.3,0.7,2.2v0.4h-4.4c0,0.7,0.2,1.2,0.5,1.6
		c0.3,0.4,0.8,0.6,1.3,0.6c0.4,0,0.7-0.1,1-0.3S517.5,185.7,517.5,185.4z M516,181.8c-0.5,0-0.9,0.2-1.2,0.5
		c-0.3,0.3-0.5,0.7-0.6,1.3h3.3c0-0.5-0.1-0.9-0.4-1.2C516.9,182,516.5,181.8,516,181.8z"/>
	<path class="st10" d="M521.1,178.2v9.1h-1v-9.1H521.1z"/>
	<path class="st10" d="M524,186.5v3.1h-1V181h1v0.7c0.2-0.2,0.4-0.4,0.7-0.6c0.3-0.2,0.7-0.2,1-0.2c0.9,0,1.6,0.3,2.1,0.9
		c0.5,0.6,0.7,1.4,0.7,2.3c0,0.9-0.2,1.7-0.7,2.3c-0.5,0.6-1.2,0.9-2.1,0.9c-0.4,0-0.7-0.1-1-0.2C524.4,187,524.2,186.8,524,186.5z
		 M524,182.9v2.5c0.2,0.3,0.4,0.6,0.7,0.7c0.3,0.2,0.6,0.3,0.9,0.3c0.6,0,1-0.2,1.4-0.6c0.3-0.4,0.5-1,0.5-1.6
		c0-0.7-0.2-1.2-0.5-1.6c-0.3-0.4-0.8-0.6-1.4-0.6c-0.3,0-0.6,0.1-0.9,0.3C524.4,182.3,524.2,182.6,524,182.9z"/>
	<path class="st10" d="M537.5,181.9c0.5-0.7,1.1-1,1.9-1c0.6,0,1.1,0.2,1.4,0.6s0.5,0.9,0.5,1.6v4.1h-1.1v-3.9
		c0-0.4-0.1-0.8-0.3-1.1c-0.2-0.3-0.5-0.4-0.9-0.4c-0.3,0-0.6,0.1-0.9,0.3c-0.3,0.2-0.4,0.5-0.5,0.8v4.3h-1.1v-3.9
		c0-0.4-0.1-0.8-0.3-1.1c-0.2-0.3-0.5-0.4-0.9-0.4c-0.3,0-0.6,0.1-0.9,0.3c-0.3,0.2-0.4,0.5-0.5,0.8v4.3h-1V181h1v0.7
		c0.4-0.6,0.9-0.9,1.7-0.9C536.6,180.9,537.1,181.3,537.5,181.9z"/>
	<path class="st10" d="M547.6,187.3h-1v-0.5c-0.1,0.1-0.4,0.3-0.7,0.4s-0.6,0.2-1,0.2c-0.7,0-1.2-0.2-1.6-0.5
		c-0.4-0.4-0.7-0.8-0.7-1.4c0-0.6,0.2-1,0.7-1.4c0.5-0.4,1-0.5,1.7-0.5c0.3,0,0.6,0.1,0.9,0.2s0.5,0.2,0.7,0.3v-0.8
		c0-0.4-0.1-0.7-0.4-1c-0.2-0.2-0.6-0.4-1-0.4c-0.7,0-1.1,0.3-1.3,0.9h-1c0.1-0.5,0.4-0.9,0.8-1.3c0.4-0.3,0.9-0.5,1.5-0.5
		c0.7,0,1.3,0.2,1.7,0.6c0.4,0.4,0.6,0.9,0.6,1.6V187.3z M546.6,185.7v-0.6c-0.1-0.2-0.3-0.4-0.6-0.6c-0.3-0.1-0.6-0.2-0.9-0.2
		c-0.4,0-0.8,0.1-1,0.3c-0.3,0.2-0.4,0.5-0.4,0.8c0,0.4,0.1,0.6,0.4,0.8c0.3,0.2,0.6,0.3,1,0.3c0.3,0,0.6-0.1,0.9-0.2
		C546.3,186.1,546.5,185.9,546.6,185.7z"/>
	<path class="st10" d="M553.5,187.3l-2.4-2.9l-0.7,0.6v2.2h-1v-9.1h1v5.6l2.8-2.8h1.4l-2.8,2.7l2.9,3.5H553.5z"/>
	<path class="st10" d="M559.6,185.4h1c-0.1,0.6-0.4,1.1-0.8,1.4c-0.4,0.4-1,0.5-1.7,0.5c-0.8,0-1.5-0.3-2.1-0.9s-0.8-1.4-0.8-2.3
		c0-0.9,0.3-1.7,0.8-2.3c0.5-0.6,1.2-0.9,2-0.9c0.8,0,1.5,0.3,1.9,0.8c0.5,0.6,0.7,1.3,0.7,2.2v0.4h-4.4c0,0.7,0.2,1.2,0.5,1.6
		c0.3,0.4,0.8,0.6,1.3,0.6c0.4,0,0.7-0.1,1-0.3S559.6,185.7,559.6,185.4z M558.1,181.8c-0.5,0-0.9,0.2-1.2,0.5
		c-0.3,0.3-0.5,0.7-0.6,1.3h3.3c0-0.5-0.1-0.9-0.4-1.2C559,182,558.6,181.8,558.1,181.8z"/>
	<path class="st10" d="M568.9,187.3h-1l-3.3-8.6h1.2l2.7,7.1l2.7-7.1h1.1L568.9,187.3z"/>
	<path class="st10" d="M574.5,178.7c0.1,0.1,0.2,0.3,0.2,0.5s-0.1,0.3-0.2,0.5s-0.3,0.2-0.5,0.2c-0.2,0-0.3-0.1-0.5-0.2
		s-0.2-0.3-0.2-0.5s0.1-0.3,0.2-0.5c0.1-0.1,0.3-0.2,0.5-0.2C574.2,178.5,574.3,178.6,574.5,178.7z M574.5,181v6.2h-1V181H574.5z"/>
	<path class="st10" d="M576.7,186.5c-0.5-0.6-0.8-1.4-0.8-2.3c0-1,0.3-1.7,0.8-2.3c0.5-0.6,1.2-0.9,2-0.9c0.7,0,1.2,0.2,1.7,0.5
		s0.7,0.8,0.8,1.5h-1.1c-0.1-0.3-0.2-0.6-0.5-0.8c-0.2-0.2-0.6-0.3-0.9-0.3c-0.5,0-1,0.2-1.3,0.6c-0.3,0.4-0.5,1-0.5,1.7
		c0,0.7,0.2,1.2,0.5,1.7c0.3,0.4,0.7,0.6,1.3,0.6c0.4,0,0.7-0.1,0.9-0.3c0.2-0.2,0.4-0.5,0.5-0.8h1.1c-0.1,0.6-0.4,1.1-0.8,1.5
		s-1,0.5-1.7,0.5C577.9,187.4,577.3,187.1,576.7,186.5z"/>
	<path class="st10" d="M583,185.7v-3.8h-1V181h1v-1.6h1v1.6h1.5v0.9H584v3.6c0,0.6,0.3,0.9,0.8,0.9c0.3,0,0.6-0.1,0.8-0.3v1
		c-0.3,0.1-0.6,0.2-1,0.2c-0.5,0-0.9-0.1-1.2-0.4C583.1,186.7,583,186.3,583,185.7z"/>
	<path class="st10" d="M591.5,181.8c0.5,0.6,0.8,1.4,0.8,2.3c0,1-0.3,1.7-0.8,2.3c-0.5,0.6-1.2,0.9-2.1,0.9c-0.8,0-1.5-0.3-2.1-0.9
		c-0.5-0.6-0.8-1.4-0.8-2.3c0-1,0.3-1.7,0.8-2.3c0.5-0.6,1.2-0.9,2.1-0.9C590.3,180.9,591,181.2,591.5,181.8z M590.8,185.8
		c0.3-0.4,0.5-1,0.5-1.7c0-0.7-0.2-1.2-0.5-1.7c-0.3-0.4-0.8-0.6-1.3-0.6c-0.6,0-1,0.2-1.3,0.6s-0.5,1-0.5,1.7
		c0,0.7,0.2,1.2,0.5,1.7s0.8,0.6,1.3,0.6C590,186.5,590.5,186.3,590.8,185.8z"/>
	<path class="st10" d="M596.9,181v1.1c-0.2-0.1-0.4-0.2-0.7-0.2c-0.3,0-0.6,0.1-0.9,0.3c-0.3,0.2-0.4,0.5-0.5,0.9v4.2h-1V181h1v0.8
		c0.1-0.3,0.3-0.5,0.6-0.7c0.3-0.2,0.6-0.3,0.9-0.3C596.6,180.9,596.8,181,596.9,181z"/>
	<path class="st10" d="M599.2,178.7c0.1,0.1,0.2,0.3,0.2,0.5s-0.1,0.3-0.2,0.5c-0.1,0.1-0.3,0.2-0.5,0.2c-0.2,0-0.3-0.1-0.5-0.2
		s-0.2-0.3-0.2-0.5s0.1-0.3,0.2-0.5c0.1-0.1,0.3-0.2,0.5-0.2C598.9,178.5,599.1,178.6,599.2,178.7z M599.3,181v6.2h-1V181H599.3z"/>
	<path class="st10" d="M605.7,187.3h-1v-0.5c-0.1,0.1-0.4,0.3-0.7,0.4c-0.3,0.1-0.6,0.2-1,0.2c-0.7,0-1.2-0.2-1.6-0.5
		c-0.4-0.4-0.7-0.8-0.7-1.4c0-0.6,0.2-1,0.7-1.4c0.5-0.4,1-0.5,1.7-0.5c0.3,0,0.6,0.1,0.9,0.2s0.5,0.2,0.7,0.3v-0.8
		c0-0.4-0.1-0.7-0.4-1c-0.2-0.2-0.6-0.4-1-0.4c-0.7,0-1.1,0.3-1.3,0.9h-1c0.1-0.5,0.4-0.9,0.8-1.3c0.4-0.3,0.9-0.5,1.5-0.5
		c0.7,0,1.3,0.2,1.7,0.6c0.4,0.4,0.6,0.9,0.6,1.6V187.3z M604.7,185.7v-0.6c-0.1-0.2-0.3-0.4-0.6-0.6c-0.3-0.1-0.6-0.2-0.9-0.2
		c-0.4,0-0.8,0.1-1,0.3c-0.3,0.2-0.4,0.5-0.4,0.8c0,0.4,0.1,0.6,0.4,0.8c0.3,0.2,0.6,0.3,1,0.3c0.3,0,0.6-0.1,0.9-0.2
		C604.4,186.1,604.6,185.9,604.7,185.7z"/>
</g>
<g class="st32">
	<path class="st10" d="M520.4,195.5h5.5v1h-4.4v2.7h4v1h-4v2.9h4.4v1h-5.5V195.5z"/>
	<path class="st10" d="M531.9,198.7c0.5-0.7,1.1-1,1.9-1c0.6,0,1.1,0.2,1.4,0.6s0.5,0.9,0.5,1.6v4.1h-1.1v-3.9
		c0-0.4-0.1-0.8-0.3-1.1s-0.5-0.4-0.9-0.4c-0.3,0-0.6,0.1-0.9,0.3c-0.3,0.2-0.4,0.5-0.5,0.8v4.3h-1v-3.9c0-0.4-0.1-0.8-0.3-1.1
		c-0.2-0.3-0.5-0.4-0.9-0.4c-0.3,0-0.6,0.1-0.9,0.3c-0.3,0.2-0.4,0.5-0.5,0.8v4.3h-1v-6.2h1v0.7c0.4-0.6,0.9-0.9,1.7-0.9
		C531,197.7,531.6,198.1,531.9,198.7z"/>
	<path class="st10" d="M538.6,203.3v0.7h-1.1V195h1.1v3.6c0.2-0.2,0.4-0.4,0.7-0.6s0.7-0.2,1-0.2c0.9,0,1.6,0.3,2.1,0.9
		c0.5,0.6,0.7,1.4,0.7,2.3c0,0.9-0.2,1.7-0.7,2.3c-0.5,0.6-1.2,0.9-2.1,0.9c-0.4,0-0.7-0.1-1-0.2S538.8,203.6,538.6,203.3z
		 M538.6,199.7v2.5c0.2,0.3,0.4,0.6,0.7,0.7c0.3,0.2,0.6,0.3,0.9,0.3c0.6,0,1-0.2,1.4-0.6s0.5-1,0.5-1.6c0-0.7-0.2-1.2-0.5-1.6
		s-0.8-0.6-1.4-0.6c-0.3,0-0.6,0.1-0.9,0.3C539,199.1,538.8,199.4,538.6,199.7z"/>
	<path class="st10" d="M549.1,204.1h-1v-0.5c-0.1,0.1-0.4,0.3-0.7,0.4s-0.6,0.2-1,0.2c-0.7,0-1.2-0.2-1.6-0.5
		c-0.4-0.4-0.7-0.8-0.7-1.4c0-0.6,0.2-1,0.7-1.4c0.5-0.4,1-0.5,1.7-0.5c0.3,0,0.6,0.1,0.9,0.2s0.5,0.2,0.7,0.3V200
		c0-0.4-0.1-0.7-0.4-1c-0.2-0.2-0.6-0.4-1-0.4c-0.7,0-1.1,0.3-1.3,0.9h-1c0.1-0.5,0.4-0.9,0.8-1.3c0.4-0.3,0.9-0.5,1.5-0.5
		c0.7,0,1.3,0.2,1.7,0.6c0.4,0.4,0.6,0.9,0.6,1.6V204.1z M548.1,202.5v-0.6c-0.1-0.2-0.3-0.4-0.6-0.6c-0.3-0.1-0.6-0.2-0.9-0.2
		c-0.4,0-0.8,0.1-1,0.3c-0.3,0.2-0.4,0.5-0.4,0.8c0,0.4,0.1,0.6,0.4,0.8c0.3,0.2,0.6,0.3,1,0.3c0.3,0,0.6-0.1,0.9-0.2
		C547.8,202.9,548,202.7,548.1,202.5z"/>
	<path class="st10" d="M550.9,204.1v-6.2h1v0.8c0.2-0.3,0.5-0.5,0.8-0.7c0.3-0.2,0.7-0.3,1.1-0.3c0.7,0,1.2,0.2,1.6,0.6
		c0.4,0.4,0.6,1,0.6,1.7v4.1h-1.1v-3.9c0-0.4-0.1-0.8-0.3-1.1c-0.2-0.3-0.6-0.4-1-0.4c-0.4,0-0.7,0.1-1,0.3
		c-0.3,0.2-0.5,0.5-0.6,0.8v4.2H550.9z"/>
	<path class="st10" d="M561.8,204.1l-2.4-2.9l-0.7,0.6v2.2h-1V195h1v5.6l2.8-2.8h1.4l-2.8,2.7l2.9,3.5H561.8z"/>
	<path class="st10" d="M568.6,198.7c0.5-0.7,1.1-1,1.9-1c0.6,0,1.1,0.2,1.4,0.6s0.5,0.9,0.5,1.6v4.1h-1.1v-3.9
		c0-0.4-0.1-0.8-0.3-1.1c-0.2-0.3-0.5-0.4-0.9-0.4c-0.3,0-0.6,0.1-0.9,0.3c-0.3,0.2-0.4,0.5-0.5,0.8v4.3h-1v-3.9
		c0-0.4-0.1-0.8-0.3-1.1s-0.5-0.4-0.9-0.4c-0.3,0-0.6,0.1-0.9,0.3c-0.3,0.2-0.4,0.5-0.5,0.8v4.3h-1v-6.2h1v0.7
		c0.4-0.6,0.9-0.9,1.7-0.9C567.7,197.7,568.3,198.1,568.6,198.7z"/>
	<path class="st10" d="M578.2,202.2h1c-0.1,0.6-0.4,1.1-0.8,1.4s-1,0.5-1.7,0.5c-0.8,0-1.5-0.3-2.1-0.9s-0.8-1.4-0.8-2.3
		c0-0.9,0.3-1.7,0.8-2.3c0.5-0.6,1.2-0.9,2-0.9c0.8,0,1.5,0.3,1.9,0.8s0.7,1.3,0.7,2.2v0.4h-4.4c0,0.7,0.2,1.2,0.5,1.6
		c0.3,0.4,0.8,0.6,1.3,0.6c0.4,0,0.7-0.1,1-0.3C577.9,202.8,578.1,202.5,578.2,202.2z M576.7,198.6c-0.5,0-0.9,0.2-1.2,0.5
		c-0.3,0.3-0.5,0.7-0.6,1.3h3.3c0-0.5-0.1-0.9-0.4-1.2C577.5,198.8,577.2,198.6,576.7,198.6z"/>
	<path class="st10" d="M580.7,204.1v-6.2h1v0.8c0.2-0.3,0.5-0.5,0.8-0.7s0.7-0.3,1.1-0.3c0.7,0,1.2,0.2,1.6,0.6
		c0.4,0.4,0.6,1,0.6,1.7v4.1h-1.1v-3.9c0-0.4-0.1-0.8-0.3-1.1c-0.2-0.3-0.6-0.4-1-0.4c-0.4,0-0.7,0.1-1,0.3s-0.5,0.5-0.6,0.8v4.2
		H580.7z"/>
	<path class="st10" d="M587.8,202.5v-3.8h-1v-0.9h1v-1.6h1.1v1.6h1.5v0.9h-1.5v3.6c0,0.6,0.3,0.9,0.8,0.9c0.3,0,0.6-0.1,0.8-0.3v1
		c-0.3,0.1-0.6,0.2-1,0.2c-0.5,0-0.9-0.1-1.2-0.4C588,203.5,587.8,203.1,587.8,202.5z"/>
</g>
<g class="st32">
	<path class="st10" d="M513,217.6H511v-1h3.1v0.6c0,1.1-0.3,2.1-1,2.7c-0.7,0.7-1.5,1-2.6,1c-1.1,0-2.1-0.4-2.8-1.2
		c-0.7-0.8-1.1-1.9-1.1-3.2c0-1.3,0.4-2.4,1.1-3.2c0.7-0.8,1.7-1.2,2.8-1.2c0.9,0,1.6,0.2,2.2,0.7c0.6,0.5,1,1.1,1.2,1.9h-1.1
		c-0.4-1.1-1.2-1.7-2.3-1.7c-0.8,0-1.5,0.3-2,0.9s-0.8,1.5-0.8,2.5s0.3,1.9,0.8,2.5c0.5,0.6,1.2,1,2.1,1c0.7,0,1.3-0.2,1.8-0.7
		C512.7,218.9,513,218.3,513,217.6z"/>
	<path class="st10" d="M520.2,220.9h-1v-0.5c-0.1,0.1-0.3,0.3-0.7,0.4c-0.3,0.1-0.6,0.2-1,0.2c-0.7,0-1.2-0.2-1.6-0.5
		c-0.4-0.4-0.7-0.8-0.7-1.4c0-0.6,0.2-1,0.7-1.4c0.5-0.4,1-0.5,1.7-0.5c0.3,0,0.6,0.1,0.9,0.2s0.5,0.2,0.7,0.3v-0.8
		c0-0.4-0.1-0.7-0.4-1c-0.2-0.2-0.6-0.4-1-0.4c-0.7,0-1.1,0.3-1.3,0.9h-1c0.1-0.5,0.4-0.9,0.8-1.3c0.4-0.3,0.9-0.5,1.5-0.5
		c0.7,0,1.3,0.2,1.7,0.6c0.4,0.4,0.6,0.9,0.6,1.6V220.9z M519.2,219.3v-0.6c-0.1-0.2-0.3-0.4-0.6-0.6c-0.3-0.1-0.6-0.2-0.9-0.2
		c-0.4,0-0.8,0.1-1,0.3s-0.4,0.5-0.4,0.8c0,0.4,0.1,0.6,0.4,0.8s0.6,0.3,1,0.3c0.3,0,0.6-0.1,0.9-0.2
		C518.9,219.7,519.1,219.5,519.2,219.3z"/>
	<path class="st10" d="M525.1,214.6v1.1c-0.2-0.1-0.4-0.2-0.7-0.2c-0.3,0-0.6,0.1-0.9,0.3c-0.3,0.2-0.4,0.5-0.5,0.9v4.2h-1v-6.2h1
		v0.8c0.1-0.3,0.3-0.5,0.6-0.7c0.3-0.2,0.6-0.3,0.9-0.3C524.8,214.5,525,214.6,525.1,214.6z"/>
	<path class="st10" d="M530.4,220.9v-0.7c-0.2,0.2-0.4,0.4-0.7,0.6s-0.7,0.2-1,0.2c-0.9,0-1.6-0.3-2.1-0.9s-0.7-1.4-0.7-2.3
		c0-0.9,0.2-1.7,0.7-2.3c0.5-0.6,1.2-0.9,2.1-0.9c0.4,0,0.7,0.1,1,0.2s0.6,0.4,0.7,0.6v-3.6h1.1v9.1H530.4z M530.4,219v-2.5
		c-0.2-0.3-0.4-0.6-0.7-0.7c-0.3-0.2-0.6-0.3-0.9-0.3c-0.6,0-1,0.2-1.4,0.6s-0.5,1-0.5,1.6c0,0.7,0.2,1.2,0.5,1.6s0.8,0.6,1.4,0.6
		c0.3,0,0.6-0.1,0.9-0.3C530,219.6,530.2,219.3,530.4,219z"/>
	<path class="st10" d="M537.2,219h1c-0.1,0.6-0.4,1.1-0.8,1.4c-0.4,0.4-1,0.5-1.7,0.5c-0.8,0-1.5-0.3-2.1-0.9s-0.8-1.4-0.8-2.3
		c0-0.9,0.3-1.7,0.8-2.3c0.5-0.6,1.2-0.9,2-0.9c0.8,0,1.5,0.3,1.9,0.8c0.5,0.6,0.7,1.3,0.7,2.2v0.4h-4.4c0,0.7,0.2,1.2,0.5,1.6
		c0.3,0.4,0.8,0.6,1.3,0.6c0.4,0,0.7-0.1,1-0.3S537.1,219.3,537.2,219z M535.7,215.4c-0.5,0-0.9,0.2-1.2,0.5
		c-0.3,0.3-0.5,0.7-0.6,1.3h3.3c0-0.5-0.1-0.9-0.4-1.2C536.6,215.6,536.2,215.4,535.7,215.4z"/>
	<path class="st10" d="M539.7,220.9v-6.2h1v0.8c0.2-0.3,0.5-0.5,0.8-0.7s0.7-0.3,1.1-0.3c0.7,0,1.2,0.2,1.6,0.6
		c0.4,0.4,0.6,1,0.6,1.7v4.1h-1.1V217c0-0.4-0.1-0.8-0.3-1.1c-0.2-0.3-0.6-0.4-1-0.4c-0.4,0-0.7,0.1-1,0.3c-0.3,0.2-0.5,0.5-0.6,0.8
		v4.2H539.7z"/>
	<path class="st10" d="M546,219.2h1.1c0.2,0.6,0.7,1,1.5,1c0.4,0,0.7-0.1,0.9-0.2c0.2-0.2,0.3-0.4,0.3-0.7c0-0.4-0.3-0.7-0.9-0.9
		l-1.2-0.3c-1-0.3-1.5-0.8-1.5-1.6c0-0.5,0.2-1,0.6-1.3s1-0.5,1.6-0.5c0.7,0,1.2,0.2,1.6,0.5c0.4,0.3,0.7,0.7,0.8,1.3h-1
		c-0.2-0.6-0.6-0.9-1.4-0.9c-0.3,0-0.6,0.1-0.8,0.2c-0.2,0.2-0.3,0.4-0.3,0.7c0,0.2,0.1,0.4,0.2,0.5c0.1,0.1,0.4,0.2,0.7,0.3
		l1.2,0.3c1.1,0.3,1.6,0.9,1.6,1.7c0,0.6-0.2,1-0.6,1.4c-0.4,0.3-1,0.5-1.7,0.5s-1.3-0.2-1.7-0.5C546.4,220.2,546.1,219.7,546,219.2
		z"/>
	<path class="st10" d="M556.5,220.1v0.7h-1.1v-9.1h1.1v3.6c0.2-0.2,0.4-0.4,0.7-0.6c0.3-0.2,0.7-0.2,1-0.2c0.9,0,1.6,0.3,2.1,0.9
		c0.5,0.6,0.7,1.4,0.7,2.3c0,0.9-0.2,1.7-0.7,2.3c-0.5,0.6-1.2,0.9-2.1,0.9c-0.4,0-0.7-0.1-1-0.2
		C556.9,220.6,556.6,220.4,556.5,220.1z M556.5,216.5v2.5c0.2,0.3,0.4,0.6,0.7,0.7c0.3,0.2,0.6,0.3,0.9,0.3c0.6,0,1-0.2,1.4-0.6
		c0.3-0.4,0.5-1,0.5-1.6c0-0.7-0.2-1.2-0.5-1.6c-0.3-0.4-0.8-0.6-1.4-0.6c-0.3,0-0.6,0.1-0.9,0.3
		C556.9,215.9,556.6,216.2,556.5,216.5z"/>
	<path class="st10" d="M566.4,219h1c-0.1,0.6-0.4,1.1-0.8,1.4c-0.4,0.4-1,0.5-1.7,0.5c-0.8,0-1.5-0.3-2.1-0.9s-0.8-1.4-0.8-2.3
		c0-0.9,0.3-1.7,0.8-2.3c0.5-0.6,1.2-0.9,2-0.9c0.8,0,1.5,0.3,1.9,0.8c0.5,0.6,0.7,1.3,0.7,2.2v0.4h-4.4c0,0.7,0.2,1.2,0.5,1.6
		c0.3,0.4,0.8,0.6,1.3,0.6c0.4,0,0.7-0.1,1-0.3S566.3,219.3,566.4,219z M564.9,215.4c-0.5,0-0.9,0.2-1.2,0.5
		c-0.3,0.3-0.5,0.7-0.6,1.3h3.3c0-0.5-0.1-0.9-0.4-1.2C565.7,215.6,565.4,215.4,564.9,215.4z"/>
	<path class="st10" d="M569.2,219.3v-3.8h-1v-0.9h1V213h1.1v1.6h1.5v0.9h-1.5v3.6c0,0.6,0.3,0.9,0.8,0.9c0.3,0,0.6-0.1,0.8-0.3v1
		c-0.3,0.1-0.6,0.2-1,0.2c-0.5,0-0.9-0.1-1.2-0.4C569.3,220.3,569.2,219.9,569.2,219.3z"/>
	<path class="st10" d="M573.6,219.3v-3.8h-1v-0.9h1V213h1.1v1.6h1.5v0.9h-1.5v3.6c0,0.6,0.3,0.9,0.8,0.9c0.3,0,0.6-0.1,0.8-0.3v1
		c-0.3,0.1-0.6,0.2-1,0.2c-0.5,0-0.9-0.1-1.2-0.4C573.8,220.3,573.6,219.9,573.6,219.3z"/>
	<path class="st10" d="M581.6,219h1c-0.1,0.6-0.4,1.1-0.8,1.4s-1,0.5-1.7,0.5c-0.8,0-1.5-0.3-2.1-0.9s-0.8-1.4-0.8-2.3
		c0-0.9,0.3-1.7,0.8-2.3c0.5-0.6,1.2-0.9,2-0.9c0.8,0,1.5,0.3,1.9,0.8c0.5,0.6,0.7,1.3,0.7,2.2v0.4h-4.4c0,0.7,0.2,1.2,0.5,1.6
		c0.3,0.4,0.8,0.6,1.3,0.6c0.4,0,0.7-0.1,1-0.3C581.3,219.6,581.5,219.3,581.6,219z M580.1,215.4c-0.5,0-0.9,0.2-1.2,0.5
		c-0.3,0.3-0.5,0.7-0.6,1.3h3.3c0-0.5-0.1-0.9-0.4-1.2C581,215.6,580.6,215.4,580.1,215.4z"/>
	<path class="st10" d="M587.3,214.6v1.1c-0.2-0.1-0.4-0.2-0.7-0.2c-0.3,0-0.6,0.1-0.9,0.3c-0.3,0.2-0.4,0.5-0.5,0.9v4.2h-1v-6.2h1
		v0.8c0.1-0.3,0.3-0.5,0.6-0.7c0.3-0.2,0.6-0.3,0.9-0.3C586.9,214.5,587.1,214.6,587.3,214.6z"/>
	<path class="st10" d="M592.7,220.1v0.7h-1.1v-9.1h1.1v3.6c0.2-0.2,0.4-0.4,0.7-0.6c0.3-0.2,0.7-0.2,1-0.2c0.9,0,1.6,0.3,2.1,0.9
		c0.5,0.6,0.7,1.4,0.7,2.3c0,0.9-0.2,1.7-0.7,2.3c-0.5,0.6-1.2,0.9-2.1,0.9c-0.4,0-0.7-0.1-1-0.2
		C593.1,220.6,592.9,220.4,592.7,220.1z M592.7,216.5v2.5c0.2,0.3,0.4,0.6,0.7,0.7c0.3,0.2,0.6,0.3,0.9,0.3c0.6,0,1-0.2,1.4-0.6
		c0.3-0.4,0.5-1,0.5-1.6c0-0.7-0.2-1.2-0.5-1.6c-0.3-0.4-0.8-0.6-1.4-0.6c-0.3,0-0.6,0.1-0.9,0.3
		C593.1,215.9,592.9,216.2,592.7,216.5z"/>
	<path class="st10" d="M600.4,223.2h-1l0.9-2.3l-2.4-6.3h1.1l1.8,4.9l1.8-4.9h1.1L600.4,223.2z"/>
</g>
<g class="st32">
	<path class="st10" d="M509.2,236.1v-3.8h-1v-0.9h1v-1.6h1v1.6h1.5v0.9h-1.5v3.6c0,0.6,0.3,0.9,0.8,0.9c0.3,0,0.6-0.1,0.8-0.3v1
		c-0.3,0.1-0.6,0.2-1,0.2c-0.5,0-0.9-0.1-1.2-0.4C509.4,237.1,509.2,236.7,509.2,236.1z"/>
	<path class="st10" d="M517.8,237.7h-1v-0.5c-0.1,0.1-0.4,0.3-0.7,0.4s-0.6,0.2-1,0.2c-0.7,0-1.2-0.2-1.6-0.5
		c-0.4-0.4-0.7-0.8-0.7-1.4c0-0.6,0.2-1,0.7-1.4c0.5-0.4,1-0.5,1.7-0.5c0.3,0,0.6,0.1,0.9,0.2s0.5,0.2,0.7,0.3v-0.8
		c0-0.4-0.1-0.7-0.4-1c-0.2-0.2-0.6-0.4-1-0.4c-0.7,0-1.1,0.3-1.3,0.9h-1c0.1-0.5,0.4-0.9,0.8-1.3c0.4-0.3,0.9-0.5,1.5-0.5
		c0.7,0,1.3,0.2,1.7,0.6c0.4,0.4,0.6,0.9,0.6,1.6V237.7z M516.8,236.1v-0.6c-0.1-0.2-0.3-0.4-0.6-0.6c-0.3-0.1-0.6-0.2-0.9-0.2
		c-0.4,0-0.8,0.1-1,0.3c-0.3,0.2-0.4,0.5-0.4,0.8c0,0.4,0.1,0.6,0.4,0.8c0.3,0.2,0.6,0.3,1,0.3c0.3,0,0.6-0.1,0.9-0.2
		C516.5,236.5,516.7,236.3,516.8,236.1z"/>
	<path class="st10" d="M523.6,237.7l-2.4-2.9l-0.7,0.6v2.2h-1v-9.1h1v5.6l2.8-2.8h1.4l-2.8,2.7l2.9,3.5H523.6z"/>
	<path class="st10" d="M527.1,229.1c0.1,0.1,0.2,0.3,0.2,0.5s-0.1,0.3-0.2,0.5c-0.1,0.1-0.3,0.2-0.5,0.2s-0.3-0.1-0.5-0.2
		c-0.1-0.1-0.2-0.3-0.2-0.5s0.1-0.3,0.2-0.5c0.1-0.1,0.3-0.2,0.5-0.2S526.9,229,527.1,229.1z M527.1,231.4v6.2h-1v-6.2H527.1z"/>
	<path class="st10" d="M529,237.7v-6.2h1v0.8c0.2-0.3,0.5-0.5,0.8-0.7c0.3-0.2,0.7-0.3,1.1-0.3c0.7,0,1.2,0.2,1.6,0.6
		c0.4,0.4,0.6,1,0.6,1.7v4.1H533v-3.9c0-0.4-0.1-0.8-0.3-1.1c-0.2-0.3-0.6-0.4-1-0.4c-0.4,0-0.7,0.1-1,0.3c-0.3,0.2-0.5,0.5-0.6,0.8
		v4.2H529z"/>
	<path class="st10" d="M539.9,237.2v-0.5c-0.2,0.2-0.4,0.4-0.7,0.6c-0.3,0.2-0.7,0.2-1,0.2c-0.9,0-1.5-0.3-2-0.9
		c-0.5-0.6-0.7-1.4-0.7-2.2c0-0.9,0.2-1.6,0.7-2.2c0.5-0.6,1.2-0.9,2-0.9c0.4,0,0.7,0.1,1,0.2c0.3,0.2,0.6,0.4,0.7,0.6v-0.7h1.1v5.7
		c0,1-0.3,1.7-0.8,2.2s-1.2,0.8-2,0.8c-0.7,0-1.4-0.2-1.8-0.5c-0.5-0.4-0.7-0.9-0.8-1.5h1c0.2,0.8,0.7,1.2,1.6,1.2
		C539.3,239.3,539.9,238.6,539.9,237.2z M539.9,235.7v-2.5c-0.4-0.6-0.9-1-1.6-1c-0.6,0-1,0.2-1.4,0.6c-0.3,0.4-0.5,0.9-0.5,1.6
		c0,0.7,0.2,1.2,0.5,1.6c0.3,0.4,0.8,0.6,1.4,0.6C539,236.7,539.5,236.3,539.9,235.7z"/>
	<path class="st10" d="M550.4,232.2c0.5,0.6,0.8,1.4,0.8,2.3c0,1-0.3,1.7-0.8,2.3c-0.5,0.6-1.2,0.9-2.1,0.9c-0.8,0-1.5-0.3-2.1-0.9
		c-0.5-0.6-0.8-1.4-0.8-2.3c0-1,0.3-1.7,0.8-2.3c0.5-0.6,1.2-0.9,2.1-0.9C549.2,231.3,549.9,231.6,550.4,232.2z M549.6,236.2
		c0.3-0.4,0.5-1,0.5-1.7c0-0.7-0.2-1.2-0.5-1.7s-0.8-0.6-1.3-0.6c-0.6,0-1,0.2-1.3,0.6s-0.5,1-0.5,1.7c0,0.7,0.2,1.2,0.5,1.7
		s0.8,0.6,1.3,0.6C548.9,236.9,549.3,236.7,549.6,236.2z"/>
	<path class="st10" d="M557.6,231.4v6.2h-1.1v-0.8c-0.2,0.3-0.4,0.5-0.8,0.7c-0.3,0.2-0.7,0.3-1.1,0.3c-0.7,0-1.2-0.2-1.6-0.6
		c-0.4-0.4-0.6-1-0.6-1.7v-4.1h1.1v3.9c0,0.5,0.1,0.8,0.3,1.1c0.2,0.3,0.6,0.4,1,0.4c0.4,0,0.7-0.1,1-0.3c0.3-0.2,0.5-0.5,0.6-0.8
		v-4.2H557.6z"/>
	<path class="st10" d="M562.6,231.4v1.1c-0.2-0.1-0.4-0.2-0.7-0.2c-0.3,0-0.6,0.1-0.9,0.3c-0.3,0.2-0.4,0.5-0.5,0.9v4.2h-1v-6.2h1
		v0.8c0.1-0.3,0.3-0.5,0.6-0.7c0.3-0.2,0.6-0.3,0.9-0.3C562.3,231.3,562.5,231.4,562.6,231.4z"/>
	<path class="st10" d="M566.5,236h1.1c0.2,0.6,0.7,1,1.5,1c0.4,0,0.7-0.1,0.9-0.2c0.2-0.2,0.3-0.4,0.3-0.7c0-0.4-0.3-0.7-0.9-0.9
		l-1.2-0.3c-1-0.3-1.5-0.8-1.5-1.6c0-0.5,0.2-1,0.6-1.3s1-0.5,1.6-0.5c0.7,0,1.2,0.2,1.6,0.5c0.4,0.3,0.7,0.7,0.8,1.3h-1
		c-0.2-0.6-0.6-0.9-1.4-0.9c-0.3,0-0.6,0.1-0.8,0.2c-0.2,0.2-0.4,0.4-0.4,0.7c0,0.2,0.1,0.4,0.2,0.5c0.1,0.1,0.4,0.2,0.7,0.3
		l1.2,0.3c1.1,0.3,1.6,0.9,1.6,1.7c0,0.6-0.2,1-0.6,1.4c-0.4,0.3-1,0.5-1.7,0.5c-0.7,0-1.3-0.2-1.7-0.5
		C566.9,237,566.6,236.5,566.5,236z"/>
	<path class="st10" d="M577.8,231.4v6.2h-1.1v-0.8c-0.2,0.3-0.4,0.5-0.8,0.7s-0.7,0.3-1,0.3c-0.7,0-1.2-0.2-1.6-0.6
		c-0.4-0.4-0.6-1-0.6-1.7v-4.1h1.1v3.9c0,0.5,0.1,0.8,0.3,1.1c0.2,0.3,0.6,0.4,1,0.4c0.4,0,0.7-0.1,1-0.3c0.3-0.2,0.5-0.5,0.6-0.8
		v-4.2H577.8z"/>
	<path class="st10" d="M582.8,231.4v1.1c-0.2-0.1-0.4-0.2-0.7-0.2c-0.3,0-0.6,0.1-0.9,0.3c-0.3,0.2-0.4,0.5-0.5,0.9v4.2h-1v-6.2h1
		v0.8c0.1-0.3,0.3-0.5,0.6-0.7c0.3-0.2,0.6-0.3,0.9-0.3C582.5,231.3,582.7,231.4,582.8,231.4z"/>
	<path class="st10" d="M586.9,237.7h-1l-2.4-6.2h1.1l1.8,4.9l1.8-4.9h1.1L586.9,237.7z"/>
	<path class="st10" d="M594.3,235.8h1c-0.1,0.6-0.4,1.1-0.8,1.4s-1,0.5-1.7,0.5c-0.8,0-1.5-0.3-2.1-0.9s-0.8-1.4-0.8-2.3
		c0-0.9,0.3-1.7,0.8-2.3s1.2-0.9,2-0.9c0.8,0,1.5,0.3,1.9,0.8c0.5,0.6,0.7,1.3,0.7,2.2v0.4H591c0,0.7,0.2,1.2,0.5,1.6
		c0.3,0.4,0.8,0.6,1.3,0.6c0.4,0,0.7-0.1,1-0.3C594.1,236.4,594.2,236.1,594.3,235.8z M592.8,232.2c-0.5,0-0.9,0.2-1.2,0.5
		c-0.3,0.3-0.5,0.7-0.6,1.3h3.3c0-0.5-0.1-0.9-0.4-1.2C593.7,232.4,593.3,232.2,592.8,232.2z"/>
	<path class="st10" d="M598.5,240h-1l0.9-2.3l-2.4-6.3h1.1l1.8,4.9l1.8-4.9h1.1L598.5,240z"/>
</g>
<line class="st40" x1="487" y1="250.6" x2="628.5" y2="250.6"/>
<line class="st40" x1="558.3" y1="250.8" x2="558.1" y2="280.5"/>
<rect x="484.8" y="259.4" class="st9" width="73" height="16.4"/>
<g class="st32">
	<path class="st24" d="M515.3,263.9l2.5-4.1h1.2l-3.1,5.1v3.5h-1.1v-3.5l-3.1-5.1h1.2L515.3,263.9z"/>
	<path class="st24" d="M523.1,266.6h1c-0.1,0.6-0.4,1.1-0.8,1.4s-1,0.5-1.7,0.5c-0.8,0-1.5-0.3-2.1-0.9s-0.8-1.4-0.8-2.3
		c0-0.9,0.3-1.7,0.8-2.3c0.5-0.6,1.2-0.9,2-0.9c0.8,0,1.5,0.3,1.9,0.8c0.5,0.6,0.7,1.3,0.7,2.2v0.4h-4.4c0,0.7,0.2,1.2,0.5,1.6
		c0.3,0.4,0.8,0.6,1.3,0.6c0.4,0,0.7-0.1,1-0.3C522.9,267.2,523,267,523.1,266.6z M521.6,263c-0.5,0-0.9,0.2-1.2,0.5
		c-0.3,0.3-0.5,0.7-0.6,1.3h3.3c0-0.5-0.1-0.9-0.4-1.2C522.5,263.2,522.1,263,521.6,263z"/>
	<path class="st24" d="M525.1,266.8h1.1c0.2,0.6,0.7,1,1.5,1c0.4,0,0.7-0.1,0.9-0.2c0.2-0.2,0.4-0.4,0.4-0.7c0-0.4-0.3-0.7-0.9-0.9
		l-1.2-0.3c-1-0.3-1.5-0.8-1.5-1.6c0-0.5,0.2-1,0.6-1.3s1-0.5,1.6-0.5c0.7,0,1.2,0.2,1.6,0.5c0.4,0.3,0.7,0.7,0.8,1.3h-1
		c-0.2-0.6-0.6-0.9-1.4-0.9c-0.3,0-0.6,0.1-0.8,0.2c-0.2,0.2-0.4,0.4-0.4,0.7c0,0.2,0.1,0.4,0.2,0.5c0.1,0.1,0.4,0.2,0.7,0.3
		l1.2,0.3c1.1,0.3,1.6,0.9,1.6,1.7c0,0.6-0.2,1-0.6,1.4c-0.4,0.3-1,0.5-1.7,0.5c-0.7,0-1.3-0.2-1.7-0.5
		C525.5,267.8,525.2,267.3,525.1,266.8z"/>
</g>
<rect x="558.3" y="259.4" class="st9" width="73" height="16.4"/>
<g class="st32">
	<path class="st24" d="M594.8,259.9v8.6H594l-4.8-6.8v6.8h-1.1v-8.6h1l4.6,6.5v-6.5H594.8z"/>
	<path class="st24" d="M601.2,263c0.5,0.6,0.8,1.4,0.8,2.3c0,1-0.3,1.7-0.8,2.3c-0.5,0.6-1.2,0.9-2.1,0.9c-0.8,0-1.5-0.3-2.1-0.9
		c-0.5-0.6-0.8-1.4-0.8-2.3c0-1,0.3-1.7,0.8-2.3c0.5-0.6,1.2-0.9,2.1-0.9C600,262.1,600.7,262.4,601.2,263z M600.5,267
		c0.3-0.4,0.5-1,0.5-1.7c0-0.7-0.2-1.2-0.5-1.7s-0.8-0.6-1.3-0.6c-0.6,0-1,0.2-1.3,0.6s-0.5,1-0.5,1.7c0,0.7,0.2,1.2,0.5,1.7
		s0.8,0.6,1.3,0.6C599.7,267.7,600.1,267.5,600.5,267z"/>
</g>
<g>
	<polygon class="st24" points="289.8,272.1 288.6,218 290.8,272.1 	"/>
</g>
<rect x="487" y="165.5" class="st41" width="141.6" height="115"/>
</svg>
