<?xml version="1.0" encoding="utf-8"?>
<!-- Generator: Adobe Illustrator 19.1.0, SVG Export Plug-In . SVG Version: 6.00 Build 0)  -->
<svg version="1.1" preserveAspectRatio="xMinYMid" id="Layer_1" xmlns="http://www.w3.org/2000/svg" xmlns:xlink="http://www.w3.org/1999/xlink" x="0px" y="0px"
	 viewBox="0 0 659.7 448.3" style="enable-background:new 0 0 659.7 448.3;" xml:space="preserve">
<style type="text/css">
	.st0{fill:#ECECEC;}
	.st1{opacity:0.2;fill:#3A50A2;}
	.st2{fill:#FFFFFF;stroke:#010101;stroke-width:2;stroke-miterlimit:10;}
	.st3{fill:#ECECEC;stroke:#1A1A1A;stroke-miterlimit:10;}
	.st4{fill:#FFFFFF;stroke:#010101;stroke-miterlimit:10;}
	.st5{fill:#010101;stroke:#FFFFFF;stroke-width:0.746;stroke-miterlimit:10;}
	.st6{fill:#010101;stroke:#FFFFFF;stroke-width:0.8525;stroke-miterlimit:10;}
	.st7{fill:#FFFFFF;}
	.st8{fill:none;stroke:#1D1D1B;stroke-miterlimit:10;}
	.st9{fill:none;}
	.st10{fill:#1D1D1B;}
	.st11{fill:none;stroke:#1D1D1B;stroke-width:0.9816;stroke-miterlimit:10;}
	.st12{fill:#3A50A2;}
	.st13{fill:none;stroke:#3A50A2;stroke-width:2;stroke-miterlimit:10;}
	.st14{fill:none;stroke:#3A50A2;stroke-miterlimit:10;}
	.st15{fill:none;stroke:#3A50A2;stroke-linecap:round;stroke-linejoin:round;}
	.st16{fill:none;stroke:#3A50A2;stroke-linecap:round;stroke-linejoin:round;stroke-dasharray:3.9032,3.9032;}
	.st17{fill:none;stroke:#3A50A2;stroke-linecap:round;stroke-linejoin:round;stroke-dasharray:4.1779,4.1779;}
	.st18{fill:none;stroke:#3A50A2;stroke-linecap:round;stroke-linejoin:round;stroke-dasharray:3.791,3.791;}
	.st19{fill:none;stroke:#3A50A2;stroke-linecap:round;stroke-linejoin:round;stroke-dasharray:3.8421,3.8421;}
	.st20{fill:none;stroke:#3A50A2;stroke-linecap:round;stroke-linejoin:round;stroke-dasharray:3.8873,3.8873;}
	.st21{fill:#010101;}
	.st22{fill:none;stroke:#010101;stroke-width:0.75;stroke-miterlimit:10;}
</style>
<polygon class="st0" points="84.1,168.1 124.4,154.3 122.6,149.2 89.1,149.2 78.2,154.6 "/>
<g>
	<polygon class="st0" points="139.6,156.6 82,173.1 69.6,190.1 74.2,203.8 77.5,203 82.2,216 161.3,194.3 181.9,178.5 181.9,141.4 	
		"/>
	<polygon class="st0" points="65.4,141 66.7,144 74.9,139.9 73.8,137.3 	"/>
	<path class="st1" d="M0,305.1v12.6h181.9v-67C148.5,258.4,82.6,275.3,0,305.1z"/>
	<polygon class="st0" points="34.8,188.9 62.1,146.2 66.7,144 65.4,141 73.8,137.3 74.9,139.9 85.9,134.6 0,134.6 0,204 	"/>
	<g>
		<g>
			<path class="st0" d="M181.9,209.3v-10.7l-85.9,23l-22.4,6.6l-9.8-34.3L84.2,162l80-27.4H136l-6.2,2.1l-0.8-2.1h-9.7l1.9,5.1
				l-40.3,13.8l-6-13.5l-8.2,4l7.4,16.8l-21.5,33.7l-8.4,10.9L33,226.2l-10.5,6.2L5.2,248.3L0,249.9v10.8l68.6-20.2l21,6.6L0,271.8
				v10.7l104.9-29l76.9-22.8v-10.8l-76.3,22.6l-21.3-6.7l14.5-4.3L181.9,209.3z M25,242.5l3-2.7l11.9-7l12-22.3l5.2-6.8l7.8,27.1
				L25,242.5z"/>
		</g>
	</g>
</g>
<path class="st2" d="M658.7,394.2c0,16.5-13.4,29.8-29.8,29.8H488.5c-16.5,0-29.8-13.4-29.8-29.8V30.8C458.7,14.4,472,1,488.5,1
	h140.3c16.5,0,29.8,13.4,29.8,29.8V394.2z"/>
<rect x="473.2" y="60.5" class="st3" width="172" height="303"/>
<g>
	<circle class="st4" cx="559.6" cy="392.6" r="17.1"/>
</g>
<circle class="st5" cx="559.1" cy="23.7" r="3.2"/>
<path class="st6" d="M581.9,35.2h-45.2c-1,0-1.8-0.8-1.8-1.8l0,0c0-1,0.8-1.7,1.8-1.7h45.2c1,0,1.8,0.8,1.8,1.7l0,0
	C583.7,34.4,582.9,35.2,581.9,35.2z"/>
<g>
	<path class="st7" d="M629,251.4c0,4.7-3.8,8.5-8.5,8.5H496.3c-4.7,0-8.5-3.8-8.5-8.5V145.7c0-4.7,3.8-8.5,8.5-8.5h124.2
		c4.7,0,8.5,3.8,8.5,8.5V251.4z"/>
	<path class="st8" d="M629,251.4c0,4.7-3.8,8.5-8.5,8.5H496.3c-4.7,0-8.5-3.8-8.5-8.5V145.7c0-4.7,3.8-8.5,8.5-8.5h124.2
		c4.7,0,8.5,3.8,8.5,8.5V251.4z"/>
</g>
<g>
	<rect x="499.9" y="146.7" class="st9" width="118.9" height="77.8"/>
	<path class="st10" d="M508.1,156.6v-4.6h-4.7v4.6h-1.1v-10h1.1v4.5h4.7v-4.5h1.1v10H508.1z"/>
	<path class="st10" d="M512.5,153.5c0,1.5,0.7,2.4,2,2.4c0.8,0,1.3-0.2,1.8-0.8l0.7,0.6c-0.7,0.7-1.3,1.1-2.5,1.1
		c-1.8,0-3-1.1-3-3.5c0-2.2,1.1-3.5,2.8-3.5c1.8,0,2.8,1.3,2.8,3.3v0.5H512.5z M515.9,151.6c-0.3-0.6-0.9-1-1.6-1s-1.3,0.4-1.6,1
		c-0.2,0.4-0.2,0.6-0.2,1.1h3.6C516.1,152.1,516.1,151.9,515.9,151.6z"/>
	<path class="st10" d="M521,156.6c-1.2,0-1.8-0.8-1.8-1.8v-8.1h1v8.1c0,0.7,0.2,1,0.9,1h0.5v0.9H521z"/>
	<path class="st10" d="M528.1,156.1c-0.4,0.4-1,0.6-1.7,0.6c-0.8,0-1.4-0.2-1.9-0.9v3.9h-1v-10h1v0.8c0.6-0.7,1.2-0.9,1.9-0.9
		c0.7,0,1.3,0.2,1.7,0.6c0.7,0.7,0.8,1.8,0.8,2.9S528.8,155.4,528.1,156.1z M526.2,150.6c-1.5,0-1.7,1.3-1.7,2.6s0.2,2.6,1.7,2.6
		s1.7-1.3,1.7-2.6S527.7,150.6,526.2,150.6z"/>
	<path class="st10" d="M543.4,156.6v-4.2c0-1.2-0.7-1.8-1.7-1.8c-1,0-1.7,0.6-1.7,1.7v4.4h-1v-4.2c0-1.2-0.7-1.8-1.7-1.8
		c-1,0-1.7,0.6-1.7,1.8v4.2h-1v-6.9h1v0.8c0.5-0.6,1.2-0.8,1.9-0.8c1,0,1.7,0.4,2.1,1.1c0.5-0.8,1.3-1.1,2.3-1.1
		c0.7,0,1.4,0.2,1.8,0.6c0.5,0.5,0.7,1.1,0.7,1.9v4.4H543.4z"/>
	<path class="st10" d="M550.7,156.6V156c-0.6,0.6-1.1,0.7-2,0.7c-1,0-1.5-0.2-1.9-0.6c-0.3-0.3-0.5-0.9-0.5-1.4c0-1.2,0.8-2,2.4-2
		h2.1V152c0-1-0.5-1.5-1.8-1.5c-0.9,0-1.3,0.2-1.7,0.8l-0.7-0.6c0.6-0.8,1.3-1,2.4-1c1.8,0,2.8,0.8,2.8,2.3v4.7H550.7z M550.7,153.5
		h-1.9c-1,0-1.5,0.4-1.5,1.2s0.5,1.2,1.6,1.2c0.6,0,1.1,0,1.5-0.5c0.2-0.2,0.4-0.6,0.4-1.2V153.5z"/>
	<path class="st10" d="M558.7,156.6l-2.2-3.5l-1.3,1.5v2h-1v-10h1v6.7l3.1-3.6h1.3l-2.3,2.6l2.7,4.3H558.7z"/>
	<path class="st10" d="M562.1,153.5c0,1.5,0.7,2.4,2,2.4c0.8,0,1.3-0.2,1.8-0.8l0.7,0.6c-0.7,0.7-1.3,1.1-2.5,1.1
		c-1.8,0-3-1.1-3-3.5c0-2.2,1.1-3.5,2.8-3.5c1.8,0,2.8,1.3,2.8,3.3v0.5H562.1z M565.5,151.6c-0.3-0.6-0.9-1-1.6-1s-1.3,0.4-1.6,1
		c-0.2,0.4-0.2,0.6-0.2,1.1h3.6C565.7,152.1,565.6,151.9,565.5,151.6z"/>
	<path class="st10" d="M575.3,156.6h-0.9l-3.3-10h1.1l2.6,8.1l2.6-8.1h1.1L575.3,156.6z"/>
	<path class="st10" d="M579.9,147.8v-1.1h1.1v1.1H579.9z M580,156.6v-6.9h1v6.9H580z"/>
	<path class="st10" d="M586.2,156.7c-1.7,0-3.1-1.2-3.1-3.5c0-2.4,1.3-3.5,3.1-3.5c1,0,1.6,0.3,2.3,1l-0.7,0.6
		c-0.5-0.6-0.9-0.8-1.6-0.8c-0.7,0-1.2,0.3-1.6,0.8c-0.3,0.4-0.4,1-0.4,1.8s0.1,1.4,0.4,1.8c0.4,0.5,0.9,0.8,1.6,0.8
		c0.7,0,1.1-0.2,1.6-0.8l0.7,0.7C587.7,156.5,587.1,156.7,586.2,156.7z"/>
	<path class="st10" d="M592.3,156.6c-1.2,0-1.8-0.8-1.8-1.8v-4.2h-0.9v-0.8h0.9v-2.2h1v2.2h1.5v0.8h-1.5v4.2c0,0.6,0.3,1,0.9,1h0.5
		v0.9H592.3z"/>
	<path class="st10" d="M599.3,155.9c-0.5,0.5-1.1,0.8-2,0.8s-1.5-0.3-2-0.8c-0.7-0.7-0.8-1.7-0.8-2.7s0.1-2,0.8-2.7
		c0.5-0.5,1.1-0.8,2-0.8s1.5,0.3,2,0.8c0.7,0.7,0.8,1.7,0.8,2.7S600,155.2,599.3,155.9z M598.6,151.1c-0.3-0.3-0.8-0.5-1.3-0.5
		s-0.9,0.2-1.2,0.5c-0.5,0.5-0.6,1.4-0.6,2.1s0.1,1.6,0.6,2.1c0.3,0.3,0.8,0.5,1.2,0.5s0.9-0.2,1.3-0.5c0.5-0.5,0.5-1.4,0.5-2.1
		S599.1,151.6,598.6,151.1z"/>
	<path class="st10" d="M606.2,151.1c-0.4-0.4-0.7-0.5-1.2-0.5c-1,0-1.7,0.8-1.7,1.8v4.2h-1v-6.9h1v0.8c0.4-0.6,1.1-0.9,1.9-0.9
		c0.7,0,1.2,0.2,1.7,0.6L606.2,151.1z"/>
	<path class="st10" d="M608.2,147.8v-1.1h1.1v1.1H608.2z M608.2,156.6v-6.9h1v6.9H608.2z"/>
	<path class="st10" d="M615.7,156.6V156c-0.6,0.6-1.1,0.7-2,0.7c-1,0-1.5-0.2-1.9-0.6c-0.3-0.3-0.5-0.9-0.5-1.4c0-1.2,0.8-2,2.4-2
		h2.1V152c0-1-0.5-1.5-1.8-1.5c-0.9,0-1.3,0.2-1.7,0.8l-0.7-0.6c0.6-0.8,1.3-1,2.4-1c1.8,0,2.8,0.8,2.8,2.3v4.7H615.7z M615.7,153.5
		h-1.9c-1,0-1.5,0.4-1.5,1.2s0.5,1.2,1.6,1.2c0.6,0,1.1,0,1.5-0.5c0.2-0.2,0.4-0.6,0.4-1.2V153.5z"/>
	<path class="st10" d="M519.1,173.4v-10h6.2v1h-5.1v3.5h4.4v1h-4.4v3.6h5.1v1H519.1z"/>
	<path class="st10" d="M536.2,173.4v-4.2c0-1.2-0.7-1.8-1.7-1.8c-1,0-1.7,0.6-1.7,1.7v4.4h-1v-4.2c0-1.2-0.7-1.8-1.7-1.8
		c-1,0-1.7,0.6-1.7,1.8v4.2h-1v-6.9h1v0.8c0.5-0.6,1.2-0.8,1.9-0.8c1,0,1.7,0.4,2.1,1.1c0.5-0.8,1.3-1.1,2.3-1.1
		c0.7,0,1.4,0.2,1.8,0.6c0.5,0.5,0.7,1.1,0.7,1.9v4.4H536.2z"/>
	<path class="st10" d="M544.3,172.9c-0.4,0.4-1,0.6-1.7,0.6c-0.8,0-1.4-0.2-1.9-0.9v0.8h-1v-10h1v3.9c0.6-0.7,1.2-0.9,1.9-0.9
		c0.7,0,1.3,0.2,1.7,0.6c0.7,0.7,0.8,1.8,0.8,2.9S545,172.2,544.3,172.9z M542.4,167.4c-1.5,0-1.7,1.3-1.7,2.6s0.2,2.6,1.7,2.6
		s1.7-1.3,1.7-2.6S543.9,167.4,542.4,167.4z"/>
	<path class="st10" d="M551.2,173.4v-0.7c-0.6,0.6-1.1,0.7-2,0.7c-1,0-1.5-0.2-1.9-0.6c-0.3-0.3-0.5-0.9-0.5-1.4c0-1.2,0.8-2,2.4-2
		h2.1v-0.7c0-1-0.5-1.5-1.8-1.5c-0.9,0-1.3,0.2-1.7,0.8l-0.7-0.6c0.6-0.8,1.3-1,2.4-1c1.8,0,2.8,0.8,2.8,2.3v4.7H551.2z
		 M551.2,170.3h-1.9c-1,0-1.5,0.4-1.5,1.2s0.5,1.2,1.6,1.2c0.6,0,1.1,0,1.5-0.5c0.2-0.2,0.4-0.6,0.4-1.2V170.3z"/>
	<path class="st10" d="M559.1,173.4v-4.2c0-1.2-0.7-1.8-1.7-1.8c-1,0-1.7,0.6-1.7,1.8v4.2h-1v-6.9h1v0.8c0.5-0.6,1.2-0.8,1.9-0.8
		c0.7,0,1.3,0.2,1.8,0.6c0.5,0.5,0.7,1.1,0.7,1.9v4.4H559.1z"/>
	<path class="st10" d="M567.1,173.4l-2.2-3.5l-1.3,1.5v2h-1v-10h1v6.7l3.1-3.6h1.3l-2.3,2.6l2.7,4.3H567.1z"/>
	<path class="st10" d="M578.9,173.4v-4.2c0-1.2-0.7-1.8-1.7-1.8c-1,0-1.7,0.6-1.7,1.7v4.4h-1v-4.2c0-1.2-0.7-1.8-1.7-1.8
		c-1,0-1.7,0.6-1.7,1.8v4.2h-1v-6.9h1v0.8c0.5-0.6,1.2-0.8,1.9-0.8c1,0,1.7,0.4,2.1,1.1c0.5-0.8,1.3-1.1,2.3-1.1
		c0.7,0,1.4,0.2,1.8,0.6c0.5,0.5,0.7,1.1,0.7,1.9v4.4H578.9z"/>
	<path class="st10" d="M583,170.3c0,1.5,0.7,2.4,2,2.4c0.8,0,1.3-0.2,1.8-0.8l0.7,0.6c-0.7,0.7-1.3,1.1-2.5,1.1c-1.8,0-3-1.1-3-3.5
		c0-2.2,1.1-3.5,2.8-3.5c1.8,0,2.8,1.3,2.8,3.3v0.5H583z M586.4,168.4c-0.3-0.6-0.9-1-1.6-1s-1.3,0.4-1.6,1
		c-0.2,0.4-0.2,0.6-0.2,1.1h3.6C586.6,168.9,586.5,168.7,586.4,168.4z"/>
	<path class="st10" d="M594.2,173.4v-4.2c0-1.2-0.7-1.8-1.7-1.8c-1,0-1.7,0.6-1.7,1.8v4.2h-1v-6.9h1v0.8c0.5-0.6,1.2-0.8,1.9-0.8
		c0.7,0,1.3,0.2,1.8,0.6c0.5,0.5,0.7,1.1,0.7,1.9v4.4H594.2z"/>
	<path class="st10" d="M599.6,173.4c-1.2,0-1.8-0.8-1.8-1.8v-4.2h-0.9v-0.8h0.9v-2.2h1v2.2h1.5v0.8h-1.5v4.2c0,0.6,0.3,1,0.9,1h0.5
		v0.9H599.6z"/>
	<path class="st10" d="M511.5,189.2c-0.7,0.8-1.6,1.1-2.7,1.1c-1,0-1.9-0.4-2.5-1c-0.9-0.9-0.9-1.9-0.9-4s0-3.1,0.9-4
		c0.7-0.7,1.6-1,2.5-1c1.9,0,3.2,1.2,3.5,3h-1.1c-0.3-1.3-1.2-2-2.4-2c-0.7,0-1.3,0.3-1.7,0.7c-0.6,0.6-0.7,1.3-0.7,3.4
		c0,2.1,0.1,2.8,0.7,3.4c0.4,0.4,1.1,0.7,1.7,0.7c0.7,0,1.4-0.3,1.9-0.9c0.4-0.5,0.6-1,0.6-1.8V186h-2.5V185h3.5v1.6
		C512.3,187.8,512.1,188.5,511.5,189.2z"/>
	<path class="st10" d="M518.5,190.2v-0.7c-0.6,0.6-1.1,0.7-2,0.7c-1,0-1.5-0.2-1.9-0.6c-0.3-0.3-0.5-0.9-0.5-1.4c0-1.2,0.8-2,2.4-2
		h2.1v-0.7c0-1-0.5-1.5-1.8-1.5c-0.9,0-1.3,0.2-1.7,0.8l-0.7-0.6c0.6-0.8,1.3-1,2.4-1c1.8,0,2.8,0.8,2.8,2.3v4.7H518.5z
		 M518.5,187.1h-1.9c-1,0-1.5,0.4-1.5,1.2s0.5,1.2,1.6,1.2c0.6,0,1.1,0,1.5-0.5c0.2-0.2,0.3-0.6,0.3-1.2V187.1z"/>
	<path class="st10" d="M525.9,184.7c-0.4-0.4-0.7-0.5-1.2-0.5c-1,0-1.7,0.8-1.7,1.8v4.2h-1v-6.9h1v0.8c0.4-0.6,1.1-0.9,1.9-0.9
		c0.7,0,1.2,0.2,1.7,0.6L525.9,184.7z"/>
	<path class="st10" d="M531.5,190.2v-0.8c-0.6,0.7-1.2,0.9-2,0.9c-0.7,0-1.3-0.2-1.7-0.6c-0.7-0.7-0.8-1.8-0.8-2.9s0.1-2.2,0.8-2.9
		c0.4-0.4,1-0.6,1.7-0.6c0.8,0,1.4,0.2,1.9,0.9v-3.9h1v10H531.5z M529.8,184.2c-1.5,0-1.7,1.3-1.7,2.6s0.2,2.6,1.7,2.6
		s1.7-1.3,1.7-2.6S531.3,184.2,529.8,184.2z"/>
	<path class="st10" d="M535.7,187.1c0,1.5,0.7,2.4,2,2.4c0.8,0,1.3-0.2,1.8-0.8l0.7,0.6c-0.7,0.7-1.3,1.1-2.5,1.1
		c-1.8,0-3-1.1-3-3.5c0-2.2,1.1-3.5,2.8-3.5c1.8,0,2.8,1.3,2.8,3.3v0.5H535.7z M539.1,185.2c-0.3-0.6-0.9-1-1.6-1s-1.3,0.4-1.6,1
		c-0.2,0.4-0.2,0.6-0.2,1.1h3.6C539.3,185.7,539.3,185.5,539.1,185.2z"/>
	<path class="st10" d="M546.9,190.2V186c0-1.2-0.7-1.8-1.7-1.8c-1,0-1.7,0.6-1.7,1.8v4.2h-1v-6.9h1v0.8c0.5-0.6,1.2-0.8,1.9-0.8
		c0.7,0,1.3,0.2,1.8,0.6c0.5,0.5,0.7,1.1,0.7,1.9v4.4H546.9z"/>
	<path class="st10" d="M552.5,190.3c-1.2,0-2.1-0.3-2.8-1l0.7-0.7c0.5,0.6,1.3,0.8,2.1,0.8c1.1,0,1.8-0.4,1.8-1.2
		c0-0.6-0.4-0.9-1.1-1l-1.1-0.1c-1.3-0.1-2.1-0.7-2.1-1.8c0-1.3,1.1-2,2.5-2c1,0,1.9,0.2,2.5,0.7l-0.7,0.7c-0.5-0.4-1.1-0.5-1.8-0.5
		c-1,0-1.5,0.4-1.5,1.1c0,0.6,0.3,0.9,1.2,1l1.1,0.1c1.2,0.1,2,0.6,2,1.9C555.3,189.6,554.2,190.3,552.5,190.3z"/>
	<path class="st10" d="M565.4,189.7c-0.4,0.4-1,0.6-1.7,0.6c-0.8,0-1.4-0.2-1.9-0.9v0.8h-1v-10h1v3.9c0.6-0.7,1.2-0.9,1.9-0.9
		c0.7,0,1.3,0.2,1.7,0.6c0.7,0.7,0.8,1.8,0.8,2.9S566.1,189,565.4,189.7z M563.5,184.2c-1.5,0-1.7,1.3-1.7,2.6s0.2,2.6,1.7,2.6
		s1.7-1.3,1.7-2.6S565,184.2,563.5,184.2z"/>
	<path class="st10" d="M569,187.1c0,1.5,0.7,2.4,2,2.4c0.8,0,1.3-0.2,1.8-0.8l0.7,0.6c-0.7,0.7-1.3,1.1-2.5,1.1c-1.8,0-3-1.1-3-3.5
		c0-2.2,1.1-3.5,2.8-3.5c1.8,0,2.8,1.3,2.8,3.3v0.5H569z M572.5,185.2c-0.3-0.6-0.9-1-1.6-1s-1.3,0.4-1.6,1
		c-0.2,0.4-0.2,0.6-0.2,1.1h3.6C572.6,185.7,572.6,185.5,572.5,185.2z"/>
	<path class="st10" d="M577.7,190.2c-1.2,0-1.8-0.8-1.8-1.8v-4.2h-0.9v-0.8h0.9v-2.2h1v2.2h1.5v0.8H577v4.2c0,0.6,0.3,1,0.9,1h0.5
		v0.9H577.7z"/>
	<path class="st10" d="M582.4,190.2c-1.2,0-1.8-0.8-1.8-1.8v-4.2h-0.9v-0.8h0.9v-2.2h1v2.2h1.5v0.8h-1.5v4.2c0,0.6,0.3,1,0.9,1h0.5
		v0.9H582.4z"/>
	<path class="st10" d="M585.6,187.1c0,1.5,0.7,2.4,2,2.4c0.8,0,1.3-0.2,1.8-0.8l0.7,0.6c-0.7,0.7-1.3,1.1-2.5,1.1
		c-1.8,0-3-1.1-3-3.5c0-2.2,1.1-3.5,2.8-3.5c1.8,0,2.8,1.3,2.8,3.3v0.5H585.6z M589.1,185.2c-0.3-0.6-0.9-1-1.6-1s-1.3,0.4-1.6,1
		c-0.2,0.4-0.2,0.6-0.2,1.1h3.6C589.2,185.7,589.2,185.5,589.1,185.2z"/>
	<path class="st10" d="M596.3,184.7c-0.4-0.4-0.7-0.5-1.2-0.5c-1,0-1.7,0.8-1.7,1.8v4.2h-1v-6.9h1v0.8c0.4-0.6,1.1-0.9,1.9-0.9
		c0.7,0,1.2,0.2,1.7,0.6L596.3,184.7z"/>
	<path class="st10" d="M606.4,189.7c-0.4,0.4-1,0.6-1.7,0.6c-0.8,0-1.4-0.2-1.9-0.9v0.8h-1v-10h1v3.9c0.6-0.7,1.2-0.9,1.9-0.9
		c0.7,0,1.3,0.2,1.7,0.6c0.7,0.7,0.8,1.8,0.8,2.9S607.1,189,606.4,189.7z M604.5,184.2c-1.5,0-1.7,1.3-1.7,2.6s0.2,2.6,1.7,2.6
		c1.5,0,1.7-1.3,1.7-2.6S606,184.2,604.5,184.2z"/>
	<path class="st10" d="M611.1,191.9c-0.1,0.4-0.3,0.6-0.5,0.8c-0.4,0.4-0.9,0.5-1.3,0.5h-0.4v-0.9h0.3c0.7,0,0.9-0.2,1.1-0.9
		l0.5-1.3l-2.5-6.8h1.1l1.9,5.5l1.9-5.5h1.1L611.1,191.9z"/>
	<path class="st10" d="M523.8,207.1c-1.2,0-2.1-0.3-2.8-1l0.7-0.7c0.5,0.6,1.3,0.8,2.1,0.8c1.1,0,1.8-0.4,1.8-1.2
		c0-0.6-0.3-0.9-1.1-1l-1.1-0.1c-1.3-0.1-2.1-0.7-2.1-1.8c0-1.3,1.1-2,2.5-2c1,0,1.9,0.2,2.5,0.7l-0.7,0.7c-0.5-0.4-1.1-0.5-1.8-0.5
		c-1,0-1.5,0.4-1.5,1.1c0,0.6,0.3,0.9,1.2,1l1.1,0.1c1.2,0.1,2,0.6,2,1.9C526.7,206.4,525.5,207.1,523.8,207.1z"/>
	<path class="st10" d="M533,207v-4.3c0-1.2-0.6-1.8-1.7-1.8c-1,0-1.7,0.6-1.7,1.8v4.3h-1v-10h1v3.8c0.5-0.6,1.2-0.8,1.9-0.8
		c1.6,0,2.5,1,2.5,2.5v4.4H533z"/>
	<path class="st10" d="M540.4,207v-0.7c-0.6,0.6-1.1,0.7-2,0.7c-1,0-1.5-0.2-1.9-0.6c-0.3-0.3-0.5-0.9-0.5-1.4c0-1.2,0.8-2,2.4-2
		h2.1v-0.7c0-1-0.5-1.5-1.8-1.5c-0.9,0-1.3,0.2-1.7,0.8l-0.7-0.6c0.6-0.8,1.3-1,2.4-1c1.8,0,2.8,0.8,2.8,2.3v4.7H540.4z
		 M540.4,203.9h-1.9c-1,0-1.5,0.4-1.5,1.2s0.5,1.2,1.6,1.2c0.6,0,1.1,0,1.5-0.5c0.2-0.2,0.4-0.6,0.4-1.2V203.9z"/>
	<path class="st10" d="M547.7,201.5c-0.4-0.4-0.7-0.5-1.2-0.5c-1,0-1.7,0.8-1.7,1.8v4.2h-1v-6.9h1v0.8c0.4-0.6,1.1-0.9,1.9-0.9
		c0.7,0,1.2,0.2,1.7,0.6L547.7,201.5z"/>
	<path class="st10" d="M549.7,198.2v-1.1h1.1v1.1H549.7z M549.7,207v-6.9h1v6.9H549.7z"/>
	<path class="st10" d="M557.7,207v-4.2c0-1.2-0.7-1.8-1.7-1.8c-1,0-1.7,0.6-1.7,1.8v4.2h-1v-6.9h1v0.8c0.5-0.6,1.2-0.8,1.9-0.8
		c0.7,0,1.3,0.2,1.8,0.6c0.5,0.5,0.7,1.1,0.7,1.9v4.4H557.7z"/>
	<path class="st10" d="M563.4,210.2c-1,0-1.6-0.3-2.3-0.9l0.7-0.6c0.5,0.4,0.9,0.7,1.7,0.7c1.3,0,1.9-0.9,1.9-2.1v-1.1
		c-0.6,0.7-1.2,0.9-1.9,0.9c-0.7,0-1.3-0.3-1.7-0.6c-0.7-0.7-0.8-1.8-0.8-2.9s0.2-2.2,0.8-2.9c0.4-0.4,1-0.6,1.7-0.6
		c0.8,0,1.4,0.2,1.9,0.9v-0.8h1v7.1C566.2,209,565.2,210.2,563.4,210.2z M563.5,201c-1.5,0-1.7,1.3-1.7,2.6s0.2,2.6,1.7,2.6
		s1.7-1.3,1.7-2.6S565,201,563.5,201z"/>
	<path class="st10" d="M574,208.7c-0.1,0.4-0.3,0.6-0.5,0.8c-0.4,0.4-0.9,0.5-1.3,0.5h-0.4v-0.9h0.3c0.7,0,0.9-0.2,1.1-0.9l0.5-1.3
		l-2.5-6.8h1.1l1.9,5.5l1.9-5.5h1.1L574,208.7z"/>
	<path class="st10" d="M582.8,206.3c-0.5,0.5-1.1,0.8-2,0.8c-0.8,0-1.5-0.3-2-0.8c-0.7-0.7-0.8-1.7-0.8-2.7s0.1-2,0.8-2.7
		c0.5-0.5,1.1-0.8,2-0.8c0.8,0,1.5,0.3,2,0.8c0.7,0.7,0.8,1.7,0.8,2.7S583.5,205.6,582.8,206.3z M582.1,201.5
		c-0.3-0.3-0.8-0.5-1.3-0.5s-0.9,0.2-1.2,0.5c-0.5,0.5-0.6,1.4-0.6,2.1s0.1,1.6,0.6,2.1c0.3,0.3,0.8,0.5,1.2,0.5s0.9-0.2,1.3-0.5
		c0.5-0.5,0.5-1.4,0.5-2.1S582.6,202,582.1,201.5z"/>
	<path class="st10" d="M590.1,207v-0.8c-0.5,0.6-1.2,0.9-1.9,0.9c-0.7,0-1.4-0.2-1.8-0.6c-0.5-0.5-0.7-1.1-0.7-1.9v-4.4h1v4.2
		c0,1.2,0.6,1.8,1.7,1.8c1,0,1.7-0.6,1.7-1.8v-4.2h1v6.9H590.1z"/>
	<path class="st10" d="M597.5,201.5c-0.4-0.4-0.7-0.5-1.2-0.5c-1,0-1.7,0.8-1.7,1.8v4.2h-1v-6.9h1v0.8c0.4-0.6,1.1-0.9,1.9-0.9
		c0.7,0,1.2,0.2,1.7,0.6L597.5,201.5z"/>
	<path class="st10" d="M534.4,223.8c-1.2,0-1.8-0.8-1.8-1.8v-8.1h1v8.1c0,0.7,0.2,1,0.9,1h0.5v0.9H534.4z"/>
	<path class="st10" d="M541,223.1c-0.5,0.5-1.1,0.8-2,0.8c-0.8,0-1.5-0.3-2-0.8c-0.7-0.7-0.8-1.7-0.8-2.7s0.1-2,0.8-2.7
		c0.5-0.5,1.1-0.8,2-0.8c0.8,0,1.5,0.3,2,0.8c0.7,0.7,0.8,1.7,0.8,2.7S541.7,222.4,541,223.1z M540.3,218.3
		c-0.3-0.3-0.8-0.5-1.3-0.5s-0.9,0.2-1.2,0.5c-0.5,0.5-0.6,1.4-0.6,2.1s0.1,1.6,0.6,2.1c0.3,0.3,0.8,0.5,1.2,0.5s0.9-0.2,1.3-0.5
		c0.5-0.5,0.5-1.4,0.5-2.1S540.8,218.8,540.3,218.3z"/>
	<path class="st10" d="M546.7,223.9c-1.7,0-3.1-1.2-3.1-3.5c0-2.4,1.3-3.5,3.1-3.5c1,0,1.6,0.3,2.3,1l-0.7,0.6
		c-0.5-0.6-0.9-0.8-1.6-0.8c-0.7,0-1.2,0.3-1.6,0.8c-0.3,0.4-0.4,1-0.4,1.8s0.1,1.4,0.4,1.8c0.4,0.5,0.9,0.8,1.6,0.8
		c0.7,0,1.1-0.2,1.6-0.8l0.7,0.7C548.2,223.7,547.6,223.9,546.7,223.9z"/>
	<path class="st10" d="M554.6,223.8v-0.7c-0.6,0.6-1.1,0.7-2,0.7c-1,0-1.5-0.2-1.9-0.6c-0.3-0.3-0.5-0.9-0.5-1.4c0-1.2,0.8-2,2.4-2
		h2.1v-0.7c0-1-0.5-1.5-1.8-1.5c-0.9,0-1.3,0.2-1.7,0.8l-0.7-0.6c0.6-0.8,1.3-1,2.4-1c1.8,0,2.8,0.8,2.8,2.3v4.7H554.6z
		 M554.6,220.7h-1.9c-1,0-1.5,0.4-1.5,1.2s0.5,1.2,1.6,1.2c0.6,0,1.1,0,1.5-0.5c0.2-0.2,0.4-0.6,0.4-1.2V220.7z"/>
	<path class="st10" d="M560,223.8c-1.2,0-1.8-0.8-1.8-1.8v-4.2h-0.9V217h0.9v-2.2h1v2.2h1.5v0.8h-1.5v4.2c0,0.6,0.3,1,0.9,1h0.5v0.9
		H560z"/>
	<path class="st10" d="M562.7,215v-1.1h1.1v1.1H562.7z M562.7,223.8V217h1v6.9H562.7z"/>
	<path class="st10" d="M570.7,223.1c-0.5,0.5-1.1,0.8-2,0.8c-0.8,0-1.5-0.3-2-0.8c-0.7-0.7-0.8-1.7-0.8-2.7s0.1-2,0.8-2.7
		c0.5-0.5,1.1-0.8,2-0.8c0.8,0,1.5,0.3,2,0.8c0.7,0.7,0.8,1.7,0.8,2.7S571.4,222.4,570.7,223.1z M570,218.3
		c-0.3-0.3-0.8-0.5-1.3-0.5s-0.9,0.2-1.2,0.5c-0.5,0.5-0.6,1.4-0.6,2.1s0.1,1.6,0.6,2.1c0.3,0.3,0.8,0.5,1.2,0.5s0.9-0.2,1.3-0.5
		c0.5-0.5,0.5-1.4,0.5-2.1S570.5,218.8,570,218.3z"/>
	<path class="st10" d="M578.1,223.8v-4.2c0-1.2-0.7-1.8-1.7-1.8c-1,0-1.7,0.6-1.7,1.8v4.2h-1V217h1v0.8c0.5-0.6,1.2-0.8,1.9-0.8
		c0.7,0,1.3,0.2,1.8,0.6c0.5,0.5,0.7,1.1,0.7,1.9v4.4H578.1z"/>
	<path class="st10" d="M586,218l-1.1,1.7c-0.2,0.3-0.3,0.6-0.3,0.8v0.5h-1v-0.6c0-0.5,0.1-0.9,0.4-1.3l1.1-1.6
		c0.3-0.4,0.5-0.7,0.5-1.2c0-0.9-0.7-1.7-1.6-1.7c-1,0-1.6,0.8-1.6,1.7h-1c0-1.4,1.1-2.6,2.6-2.6c1.5,0,2.6,1.1,2.6,2.5
		C586.6,217,586.3,217.5,586,218z M583.5,223.8v-1.2h1.2v1.2H583.5z"/>
</g>
<line class="st11" x1="487.7" y1="230.9" x2="629.3" y2="230.9"/>
<line class="st8" x1="559.1" y1="231.1" x2="559.1" y2="260.8"/>
<g>
	<rect x="485.6" y="239.6" class="st9" width="73" height="16.4"/>
	<path class="st12" d="M516.3,245.5v4.1h-1.9v-4.1l-3-5.9h2.1l1.9,4l1.8-4h2.1L516.3,245.5z"/>
	<path class="st12" d="M520.7,246.5c0,0.9,0.6,1.6,1.6,1.6c0.8,0,1.2-0.2,1.7-0.7l1.1,1.1c-0.7,0.7-1.5,1.1-2.8,1.1
		c-1.7,0-3.4-0.8-3.4-3.7c0-2.4,1.3-3.7,3.2-3.7c2,0,3.2,1.5,3.2,3.5v0.8H520.7z M523.3,244.5c-0.2-0.4-0.6-0.8-1.2-0.8
		c-0.6,0-1,0.3-1.2,0.8c-0.1,0.3-0.2,0.5-0.2,0.8h2.8C523.4,245,523.4,244.8,523.3,244.5z"/>
	<path class="st12" d="M529.3,249.7c-1.1,0-2.2-0.1-3.1-1l1.2-1.2c0.6,0.6,1.4,0.7,1.9,0.7c0.6,0,1.3-0.2,1.3-0.8
		c0-0.4-0.2-0.6-0.8-0.7l-1.1-0.1c-1.3-0.1-2.1-0.7-2.1-2c0-1.5,1.3-2.3,2.8-2.3c1.1,0,2.1,0.2,2.8,0.9l-1.1,1.1
		c-0.4-0.4-1.1-0.5-1.7-0.5c-0.7,0-1,0.3-1,0.7c0,0.3,0.1,0.6,0.8,0.6l1.1,0.1c1.4,0.1,2.2,0.9,2.2,2.1
		C532.4,248.9,531,249.7,529.3,249.7z"/>
</g>
<g>
	<rect x="559.1" y="239.6" class="st9" width="73" height="16.4"/>
	<path class="st12" d="M594.2,249.6l-4.6-7v7h-1.5v-10h1.4l4.6,7v-7h1.5v10H594.2z"/>
	<path class="st12" d="M602.7,248.9c-0.5,0.5-1.2,0.8-2.1,0.8s-1.7-0.4-2.1-0.8c-0.7-0.7-0.8-1.6-0.8-2.8c0-1.2,0.2-2.1,0.8-2.8
		c0.5-0.5,1.1-0.8,2.1-0.8s1.7,0.4,2.1,0.8c0.7,0.7,0.8,1.6,0.8,2.8C603.6,247.3,603.4,248.2,602.7,248.9z M601.7,244.1
		c-0.3-0.3-0.6-0.4-1.1-0.4s-0.8,0.1-1,0.4c-0.4,0.4-0.5,1.2-0.5,1.9c0,0.8,0.1,1.5,0.5,1.9c0.3,0.3,0.6,0.4,1,0.4s0.8-0.2,1.1-0.4
		c0.4-0.4,0.5-1.2,0.5-1.9C602.2,245.3,602.1,244.5,601.7,244.1z"/>
</g>
<path class="st13" d="M352.8,130.7c-1.2-0.4-32.5-15.8-32.5-15.8h-12.5l-27.5,12.5l-14.6,11.2L252,218.2l4.6,36.6l10,18.7l32.9,23.3
	l30.8,6.7l36.2-20.4l0.4-108.3L352.8,130.7z"/>
<path class="st12" d="M54.3,191.7c-0.1,0-3.6-1.7-3.6-1.7h-1.4l-3,1.4l-1.6,1.2l-1.5,8.7l0.5,4l1.1,2l3.6,2.6l3.4,0.7l4-2.2l0-11.8
	L54.3,191.7z"/>
<path class="st12" d="M141.3,153.7c-0.1,0-3.6-1.7-3.6-1.7h-1.4l-3,1.4l-1.6,1.2l-1.5,8.7l0.5,4l1.1,2l3.6,2.6l3.4,0.7l4-2.2l0-11.8
	L141.3,153.7z"/>
<path class="st12" d="M107.2,281.1c-0.1,0-3.6-1.7-3.6-1.7h-1.4l-3,1.4l-1.6,1.2l-1.5,8.7l0.5,4l1.1,2l3.6,2.6l3.4,0.7l4-2.2l0-11.8
	L107.2,281.1z"/>
<path class="st12" d="M53.7,262.2c-0.1,0-3.6-1.7-3.6-1.7h-1.4l-3,1.4l-1.6,1.2l-1.5,8.7l0.5,4l1.1,2l3.6,2.6l3.4,0.7l4-2.2l0-11.8
	L53.7,262.2z"/>
<path class="st12" d="M163.7,234.2c-0.1,0-3.6-1.7-3.6-1.7h-1.4l-3,1.4l-1.6,1.2l-1.5,8.7l0.5,4l1.1,2l3.6,2.6l3.4,0.7l4-2.2l0-11.8
	L163.7,234.2z"/>
<polyline class="st14" points="307.8,114.9 312,124.1 294.5,134.1 265.8,138.7 268.3,246.1 "/>
<path class="st14" d="M256.6,254.8l11.7-8.7l19.4,10c0,0,11.9,40.8,9.8,39.2"/>
<polyline class="st14" points="266.6,273.6 287.6,256.1 315.3,192 309.9,138.2 294.5,134.1 "/>
<polyline class="st14" points="366.5,283.2 332.8,241.9 315.3,192 "/>
<polyline class="st14" points="299.5,296.9 322,287.7 330.3,303.6 "/>
<line class="st14" x1="332.8" y1="241.9" x2="322" y2="287.7"/>
<line class="st14" x1="309.9" y1="138.2" x2="367" y2="174.9"/>
<polyline class="st14" points="320.3,114.9 312,124.1 309.9,138.2 352.8,130.7 "/>
<g>
	<path class="st8" d="M359.7,108.1c11.1,5.3,15.8,18.4,10.5,29.3"/>
	<path class="st8" d="M368.8,96.8c17.2,8.3,24.5,28.7,16.4,45.6"/>
	<path class="st8" d="M379,82.9c25.2,12.2,35.9,42,24,66.8"/>
</g>
<g>
	<g>
		<polyline class="st15" points="134.9,164.6 136.8,163.9 137.2,165.8 		"/>
		<line class="st16" x1="138" y1="169.6" x2="152.5" y2="236.4"/>
		<polyline class="st15" points="152.9,238.3 153.3,240.3 152,241.8 		"/>
		<line class="st17" x1="149.2" y1="244.9" x2="111.5" y2="286.9"/>
		<polyline class="st15" points="110.1,288.4 108.8,289.9 106.8,289.4 		"/>
		<line class="st18" x1="103.2" y1="288.5" x2="53.6" y2="275.8"/>
		<polyline class="st15" points="51.7,275.4 49.8,274.9 49.8,272.9 		"/>
		<line class="st19" x1="49.8" y1="269" x2="49.8" y2="201.8"/>
		<polyline class="st15" points="49.8,199.9 49.8,197.9 51.6,197.2 		"/>
		<line class="st20" x1="55.3" y1="195.7" x2="133.1" y2="165.3"/>
	</g>
</g>
<path class="st10" d="M107.8,161.9c0,6.1-11,23-11,23s-11-16.9-11-23s4.9-11,11-11C102.9,150.9,107.8,155.8,107.8,161.9z"/>
<g>
	<rect x="0.9" y="332.5" class="st9" width="15.7" height="12.3"/>
	<path class="st21" d="M1.8,335.3v-1.1c0.5,0,0.9-0.1,1.1-0.1c0.3-0.1,0.6-0.2,0.8-0.4c0.1-0.2,0.3-0.4,0.3-0.6
		c0-0.2,0.1-0.3,0.1-0.3h1.4v8.5H3.8v-5.9H1.8z"/>
	<path class="st21" d="M8.4,339.4h1.8v1.8H8.4V339.4z"/>
</g>
<g>
	<rect x="264.4" y="307.5" class="st9" width="15.7" height="12.3"/>
	<path class="st21" d="M265.2,314.5c0.2-0.6,0.8-1.2,1.7-1.8c0.8-0.6,1.3-0.9,1.5-1.2c0.3-0.4,0.5-0.8,0.5-1.2
		c0-0.4-0.1-0.7-0.3-0.9s-0.5-0.4-0.9-0.4c-0.5,0-0.9,0.2-1,0.6c-0.1,0.2-0.2,0.6-0.2,1h-1.6c0-0.7,0.2-1.3,0.4-1.8
		c0.4-0.8,1.2-1.3,2.4-1.3c0.9,0,1.6,0.2,2.1,0.7s0.8,1.2,0.8,2c0,0.6-0.2,1.2-0.6,1.7c-0.2,0.3-0.7,0.7-1.2,1.1l-0.7,0.5
		c-0.4,0.3-0.7,0.5-0.9,0.6s-0.3,0.3-0.4,0.5h3.7v1.5h-5.8C264.8,315.6,265,315,265.2,314.5z"/>
	<path class="st21" d="M271.9,314.4h1.8v1.8h-1.8V314.4z"/>
</g>
<g>
	<rect x="471.9" y="433.9" class="st9" width="15.7" height="12.3"/>
	<path class="st21" d="M473.9,439.9c0,0.3,0.1,0.6,0.2,0.8c0.2,0.4,0.6,0.6,1.1,0.6c0.3,0,0.6-0.1,0.9-0.3c0.2-0.2,0.4-0.5,0.4-1
		c0-0.6-0.2-0.9-0.7-1.1c-0.3-0.1-0.7-0.2-1.2-0.2v-1.2c0.5,0,0.9-0.1,1.1-0.2c0.4-0.2,0.6-0.5,0.6-1c0-0.3-0.1-0.6-0.3-0.8
		c-0.2-0.2-0.5-0.3-0.8-0.3c-0.4,0-0.7,0.1-0.9,0.4c-0.2,0.2-0.3,0.6-0.3,1h-1.6c0-0.4,0.1-0.8,0.2-1.2c0.1-0.3,0.4-0.6,0.6-0.9
		c0.2-0.2,0.5-0.4,0.8-0.5s0.7-0.2,1.1-0.2c0.8,0,1.5,0.2,2,0.6c0.5,0.4,0.7,1,0.7,1.7c0,0.5-0.1,0.9-0.4,1.3
		c-0.2,0.2-0.4,0.4-0.6,0.4c0.2,0,0.4,0.1,0.7,0.4c0.4,0.4,0.6,0.9,0.6,1.6c0,0.7-0.2,1.4-0.7,1.9c-0.5,0.5-1.2,0.8-2.2,0.8
		c-1.2,0-2-0.4-2.5-1.2c-0.2-0.4-0.4-1-0.4-1.6H473.9z"/>
	<path class="st21" d="M479.4,440.8h1.8v1.8h-1.8V440.8z"/>
</g>
<g>
	<g>
		<path class="st22" d="M150.9,160.9c0,0,36.7-41.8,88.7-12.2"/>
		<g>
			<polygon class="st21" points="236.8,151.4 244.2,151.5 240.6,145 			"/>
		</g>
	</g>
</g>
<g>
</g>
<g>
</g>
<g>
</g>
<g>
</g>
<g>
</g>
<g>
</g>
<g>
</g>
</svg>
