<svg id="OUTLINES" xmlns="http://www.w3.org/2000/svg" viewBox="0 0 1152 1008"><defs><style>.cls-1{fill:#fff;}.cls-2{fill:#000f7d;}</style></defs><title>making-it-harder-to-use-sites-that-might-not-be-secure</title><rect class="cls-1" x="291" y="325.49" width="588" height="232.5" rx="24"/><path class="cls-2" d="M306,549.05H483.1a23.85,23.85,0,0,0-3.23,12v63a24,24,0,0,0,24,24H846a24,24,0,0,0,24-24v-63a24,24,0,0,0-8.15-18,23.94,23.94,0,0,0,8.15-18V340.55a24,24,0,0,0-24-24H306a24,24,0,0,0-24,24v184.5A24,24,0,0,0,306,549.05Zm552,12v63a12,12,0,0,1-12,12H503.87a12,12,0,0,1-12-12v-63a12,12,0,0,1,12-12H846A12,12,0,0,1,858,561.05ZM294,340.55a12,12,0,0,1,12-12H846a12,12,0,0,1,12,12v184.5a12,12,0,0,1-12,12H306a12,12,0,0,1-12-12Z"/><path class="cls-2" d="M393.57,443.21a5,5,0,0,0,5-5V425.77a5,5,0,0,0-10,0v12.44A5,5,0,0,0,393.57,443.21Z"/><path class="cls-2" d="M397.81,448.41a5.5,5.5,0,0,0-.91-.75,5.93,5.93,0,0,0-2.16-.89,5.76,5.76,0,0,0-2.34,0,6.29,6.29,0,0,0-1.12.34,6.44,6.44,0,0,0-1,.55,5.5,5.5,0,0,0-.91.75,6,6,0,0,0-.75.91,6.89,6.89,0,0,0-.55,1,5.56,5.56,0,0,0-.34,1.12,5.81,5.81,0,0,0-.12,1.17,5.74,5.74,0,0,0,.12,1.17A5.65,5.65,0,0,0,388,455a6.35,6.35,0,0,0,.55,1,6,6,0,0,0,5,2.67,5.74,5.74,0,0,0,1.17-.12,5.56,5.56,0,0,0,1.12-.34,5.74,5.74,0,0,0,1-.55,6.53,6.53,0,0,0,.91-.74,6,6,0,0,0,0-8.49Z"/><path class="cls-2" d="M352.05,472.72h83a5,5,0,0,0,4.33-7.5L397.9,393.3a5,5,0,0,0-8.66,0l-41.52,71.92a5,5,0,0,0,4.33,7.5Zm41.52-66.92,32.86,56.92H360.71Z"/><polygon class="cls-2" points="497.01 421.73 503.11 421.73 503.11 410.54 513.81 392.26 507.33 392.26 500.23 404.74 493.07 392.26 486.4 392.26 497.01 410.54 497.01 421.73"/><path class="cls-2" d="M514.91,419.09a10.78,10.78,0,0,0,15.17,0,12.63,12.63,0,0,0,0-16.18,10.78,10.78,0,0,0-15.17,0,12.67,12.67,0,0,0,0,16.18Zm4.2-12.55a4.21,4.21,0,0,1,6.77,0,7.47,7.47,0,0,1,1.23,4.48,7.39,7.39,0,0,1-1.23,4.44,4.21,4.21,0,0,1-6.77,0,7.45,7.45,0,0,1-1.22-4.44A7.54,7.54,0,0,1,519.11,406.54Z"/><path class="cls-2" d="M544.1,422.21a7.42,7.42,0,0,0,5.76-2.45v2h5.95V400.27h-6V413.9a3.78,3.78,0,0,1-1.39,2.19,4,4,0,0,1-2.45.79,3.22,3.22,0,0,1-2.59-1,4.12,4.12,0,0,1-.87-2.78V400.27h-6v14a8.15,8.15,0,0,0,2,5.76A7.18,7.18,0,0,0,544.1,422.21Z"/><path class="cls-2" d="M566.9,408.43a3.63,3.63,0,0,1,1.44-2.23,4.37,4.37,0,0,1,2.64-.79,5.68,5.68,0,0,1,3,.72v-5.95a4.76,4.76,0,0,0-2.25-.39,5.19,5.19,0,0,0-4.8,2.59v-2.11H561v21.46h5.95Z"/><path class="cls-2" d="M597,422.21a9.63,9.63,0,0,0,6.45-2.11,8.64,8.64,0,0,0,3-5.62H600.5a3,3,0,0,1-1.18,1.94,3.81,3.81,0,0,1-2.37.7,3.76,3.76,0,0,1-3.22-1.68,7.44,7.44,0,0,1-1.2-4.42,7.52,7.52,0,0,1,1.2-4.46,3.76,3.76,0,0,1,3.22-1.68,3.81,3.81,0,0,1,2.37.7,3,3,0,0,1,1.18,1.94h5.85a8.62,8.62,0,0,0-3-5.62,10.63,10.63,0,0,0-13.88,1,12.8,12.8,0,0,0,0,16.18A9.67,9.67,0,0,0,597,422.21Z"/><path class="cls-2" d="M619.22,422.21a9.92,9.92,0,0,0,7.58-3.12,12.63,12.63,0,0,0,0-16.18,10.78,10.78,0,0,0-15.17,0,12.63,12.63,0,0,0,0,16.18A9.93,9.93,0,0,0,619.22,422.21Zm-3.39-15.67a4.21,4.21,0,0,1,6.77,0,7.47,7.47,0,0,1,1.22,4.48,7.38,7.38,0,0,1-1.22,4.44,4.21,4.21,0,0,1-6.77,0,7.45,7.45,0,0,1-1.22-4.44A7.54,7.54,0,0,1,615.83,406.54Z"/><path class="cls-2" d="M639.47,408.14a3.73,3.73,0,0,1,1.42-2.18,4,4,0,0,1,2.47-.79,3.28,3.28,0,0,1,2.62,1,4.1,4.1,0,0,1,.88,2.76v12.77h6v-14a8.16,8.16,0,0,0-2-5.76,8.15,8.15,0,0,0-11.35.29v-2h-6v21.46h6Z"/><path class="cls-2" d="M663.71,408.14a3.73,3.73,0,0,1,1.42-2.18,4,4,0,0,1,2.47-.79,3.28,3.28,0,0,1,2.62,1,4.1,4.1,0,0,1,.88,2.76v12.77h6v-14a8.16,8.16,0,0,0-2-5.76,8.15,8.15,0,0,0-11.35.29v-2h-6v21.46h6Z"/><path class="cls-2" d="M691.07,422.21a10,10,0,0,0,6.46-2,8.62,8.62,0,0,0,3.05-5.5h-5.52q-.72,2.68-4,2.69a4.21,4.21,0,0,1-3.26-1.37,5.86,5.86,0,0,1-1.39-3.77h14.3v-1.82a11.27,11.27,0,0,0-2.57-7.75,9.06,9.06,0,0,0-7.17-2.91,9.62,9.62,0,0,0-7.42,3.19,12.7,12.7,0,0,0,0,16.13A9.79,9.79,0,0,0,691.07,422.21ZM691,404.64a3.57,3.57,0,0,1,2.79,1.13,4.37,4.37,0,0,1,1.05,2.9h-8.3Q687.37,404.64,691,404.64Z"/><path class="cls-2" d="M713.68,422.21a9.61,9.61,0,0,0,6.45-2.11,8.65,8.65,0,0,0,3-5.62h-5.86a3,3,0,0,1-1.18,1.94,3.81,3.81,0,0,1-2.37.7,3.76,3.76,0,0,1-3.22-1.68,7.44,7.44,0,0,1-1.2-4.42,7.52,7.52,0,0,1,1.2-4.46,3.76,3.76,0,0,1,3.22-1.68,3.81,3.81,0,0,1,2.37.7,3,3,0,0,1,1.18,1.94h5.86a8.63,8.63,0,0,0-3-5.62,10.62,10.62,0,0,0-13.87,1,12.8,12.8,0,0,0,0,16.18A9.66,9.66,0,0,0,713.68,422.21Z"/><path class="cls-2" d="M728.22,415.25a6.74,6.74,0,0,0,1.87,5.18,7.46,7.46,0,0,0,5.24,1.73,8.44,8.44,0,0,0,3.84-.67v-5.28a4.66,4.66,0,0,1-2.6.72,2.16,2.16,0,0,1-2.44-2.45v-9.41h4.7v-4.8h-4.7v-5.81h-5.91v5.81H725v4.8h3.26Z"/><rect class="cls-2" x="743.49" y="400.27" width="5.95" height="21.46"/><path class="cls-2" d="M746.46,397.49a3.48,3.48,0,0,0,2.47-1,3.37,3.37,0,0,0,0-4.87,3.43,3.43,0,0,0-2.47-1,3.51,3.51,0,0,0-2.49,1,3.15,3.15,0,0,0-1.06,2.42,3.19,3.19,0,0,0,1,2.45A3.57,3.57,0,0,0,746.46,397.49Z"/><path class="cls-2" d="M763.79,422.21a9.92,9.92,0,0,0,7.58-3.12,12.63,12.63,0,0,0,0-16.18,10.77,10.77,0,0,0-15.16,0,12.63,12.63,0,0,0,0,16.18A9.91,9.91,0,0,0,763.79,422.21Zm-3.38-15.67a4.2,4.2,0,0,1,6.76,0A7.47,7.47,0,0,1,768.4,411a7.39,7.39,0,0,1-1.23,4.44,4.2,4.2,0,0,1-6.76,0,7.39,7.39,0,0,1-1.23-4.44A7.47,7.47,0,0,1,760.41,406.54Z"/><path class="cls-2" d="M784.05,408.14a3.67,3.67,0,0,1,1.41-2.18,4.07,4.07,0,0,1,2.47-.79,3.25,3.25,0,0,1,2.62,1,4.1,4.1,0,0,1,.89,2.76v12.77h5.95v-14a8.15,8.15,0,0,0-2-5.76,8.15,8.15,0,0,0-11.35.29v-2h-6v21.46h6Z"/><rect class="cls-2" x="496.15" y="448.27" width="5.95" height="21.46"/><path class="cls-2" d="M499.12,438.67a3.51,3.51,0,0,0-2.49,1,3.15,3.15,0,0,0-1.06,2.42,3.19,3.19,0,0,0,1,2.45,3.57,3.57,0,0,0,2.52,1,3.48,3.48,0,0,0,2.47-1,3.37,3.37,0,0,0,0-4.87A3.43,3.43,0,0,0,499.12,438.67Z"/><path class="cls-2" d="M518.51,457l-4.41-1q-1.92-.48-1.92-1.68a1.67,1.67,0,0,1,.84-1.49,3.67,3.67,0,0,1,2-.53c1.79,0,2.91.71,3.36,2.12H524a7.64,7.64,0,0,0-2.85-4.88,10.11,10.11,0,0,0-6.27-1.75,9.46,9.46,0,0,0-6.09,1.95,6.1,6.1,0,0,0-2.45,5c0,3.17,1.85,5.19,5.57,6.05l4.32,1a4.15,4.15,0,0,1,1.65.7,1.35,1.35,0,0,1,.51,1.12c0,1.41-1,2.12-3,2.12s-3.12-.79-3.6-2.36h-5.9a7.23,7.23,0,0,0,3,5.07,11.07,11.07,0,0,0,6.53,1.8,10.21,10.21,0,0,0,6.31-1.87,6.06,6.06,0,0,0,2.48-5.09Q524.23,458.41,518.51,457Z"/><path class="cls-2" d="M550.14,447.79a7.22,7.22,0,0,0-5.76,2.45v-2h-6v21.46h6V456.14A3.73,3.73,0,0,1,545.8,454a4,4,0,0,1,2.47-.79,3.26,3.26,0,0,1,2.62,1,4.1,4.1,0,0,1,.89,2.76v12.77h6v-14a8.2,8.2,0,0,0-2-5.76A7.25,7.25,0,0,0,550.14,447.79Z"/><path class="cls-2" d="M564.26,450.91a12.63,12.63,0,0,0,0,16.18,10.77,10.77,0,0,0,15.16,0,12.63,12.63,0,0,0,0-16.18,10.77,10.77,0,0,0-15.16,0Zm11,3.63a7.47,7.47,0,0,1,1.23,4.48,7.39,7.39,0,0,1-1.23,4.44,4.2,4.2,0,0,1-6.76,0,7.39,7.39,0,0,1-1.23-4.44,7.47,7.47,0,0,1,1.23-4.48,4.2,4.2,0,0,1,6.76,0Z"/><path class="cls-2" d="M587.44,463.25a6.7,6.7,0,0,0,1.87,5.18,7.43,7.43,0,0,0,5.23,1.73,8.38,8.38,0,0,0,3.84-.67v-5.28a4.62,4.62,0,0,1-2.59.72,2.17,2.17,0,0,1-2.45-2.45v-9.41h4.71v-4.8h-4.71v-5.81h-5.9v5.81h-3.26v4.8h3.26Z"/><path class="cls-2" d="M621.09,448.46a6.2,6.2,0,0,0-2.26,1.59v-1.78h-6v29.38h6V468a6.2,6.2,0,0,0,2.26,1.59,7.61,7.61,0,0,0,3.12.67,8.76,8.76,0,0,0,7.15-3.22,13.38,13.38,0,0,0,0-16,8.75,8.75,0,0,0-7.15-3.24A7.61,7.61,0,0,0,621.09,448.46ZM628,459a6.53,6.53,0,0,1-1.39,4.32,4.62,4.62,0,0,1-3.75,1.68,4.46,4.46,0,0,1-2.4-.69,4.39,4.39,0,0,1-1.63-1.8v-7.06a4.77,4.77,0,0,1,1.66-1.8,4.31,4.31,0,0,1,2.37-.69,4.58,4.58,0,0,1,3.75,1.7A6.63,6.63,0,0,1,628,459Z"/><path class="cls-2" d="M643.74,450.38v-2.11h-6v21.46h6v-13.3a3.72,3.72,0,0,1,1.44-2.23,4.41,4.41,0,0,1,2.64-.79,5.69,5.69,0,0,1,3,.72v-5.95a4.78,4.78,0,0,0-2.26-.39A5.21,5.21,0,0,0,643.74,450.38Z"/><rect class="cls-2" x="654.64" y="448.27" width="5.95" height="21.46"/><path class="cls-2" d="M657.62,445.49a3.5,3.5,0,0,0,2.47-1,3.39,3.39,0,0,0,0-4.87,3.44,3.44,0,0,0-2.47-1,3.53,3.53,0,0,0-2.5,1,3.18,3.18,0,0,0-1.06,2.42,3.23,3.23,0,0,0,1,2.45A3.58,3.58,0,0,0,657.62,445.49Z"/><polygon class="cls-2" points="670.05 448.27 663.81 448.27 671.92 469.73 677.68 469.73 685.84 448.27 679.84 448.27 674.99 462.53 670.05 448.27"/><path class="cls-2" d="M696.73,447.79a9.5,9.5,0,0,0-6.07,1.95,7.59,7.59,0,0,0-2.95,4.92h5.66a3.06,3.06,0,0,1,3.17-2,3.43,3.43,0,0,1,2.62.94,3.3,3.3,0,0,1,.89,2.37v1.59a6.92,6.92,0,0,0-2.12-.87,11.05,11.05,0,0,0-2.78-.38,9.14,9.14,0,0,0-5.93,1.92,6.08,6.08,0,0,0-2.37,4.94,6.23,6.23,0,0,0,2.28,5.09,8.64,8.64,0,0,0,5.68,1.87,10.26,10.26,0,0,0,3.17-.48,5.44,5.44,0,0,0,2.07-1.05v1.15h5.71V456.05a7.81,7.81,0,0,0-2.38-6.07A9.44,9.44,0,0,0,696.73,447.79Zm3.32,16.08a2.83,2.83,0,0,1-1.47,1.37,5.6,5.6,0,0,1-2.42.5,5.07,5.07,0,0,1-2.69-.67,2.29,2.29,0,0,1,0-3.93,5.12,5.12,0,0,1,2.67-.68,5.61,5.61,0,0,1,2.42.51,2.79,2.79,0,0,1,1.47,1.37Z"/><path class="cls-2" d="M717.61,462.48v-9.41h4.71v-4.8h-4.71v-5.81h-5.9v5.81h-3.26v4.8h3.26v10.18a6.7,6.7,0,0,0,1.87,5.18,7.43,7.43,0,0,0,5.23,1.73,8.38,8.38,0,0,0,3.84-.67v-5.28a4.62,4.62,0,0,1-2.59.72A2.17,2.17,0,0,1,717.61,462.48Z"/><path class="cls-2" d="M728.34,451a11.52,11.52,0,0,0-2.9,8,11.39,11.39,0,0,0,2.88,8.09,9.79,9.79,0,0,0,7.53,3.1,10,10,0,0,0,6.46-2,8.57,8.57,0,0,0,3.05-5.5h-5.52q-.72,2.68-4,2.69a4.21,4.21,0,0,1-3.26-1.37,5.91,5.91,0,0,1-1.39-3.77h14.3v-1.82a11.27,11.27,0,0,0-2.57-7.75,9.06,9.06,0,0,0-7.17-2.91A9.62,9.62,0,0,0,728.34,451Zm10.25,2.79a4.43,4.43,0,0,1,1.06,2.9h-8.31q.81-4,4.47-4A3.54,3.54,0,0,1,738.59,453.77Z"/><path class="cls-2" d="M990,709.41H937a22.83,22.83,0,0,0,4-13V268.19a23,23,0,0,0-23-23H234a23,23,0,0,0-23,23V696.41a22.83,22.83,0,0,0,4,13H162a23,23,0,0,0-23,23v4.5a23,23,0,0,0,23,23H990a23,23,0,0,0,23-23v-4.5A23,23,0,0,0,990,709.41ZM221,268.19a13,13,0,0,1,13-13H918a13,13,0,0,1,13,13V696.41a13,13,0,0,1-13,13H234a13,13,0,0,1-13-13Zm782,468.72a13,13,0,0,1-13,13H162a13,13,0,0,1-13-13v-4.5a13,13,0,0,1,13-13H990a13,13,0,0,1,13,13Z"/><path class="cls-2" d="M578.6,602.39a6.32,6.32,0,0,0,2.18-5.16,6.11,6.11,0,0,0-1.12-3.58,5.59,5.59,0,0,0-2.88-2.14,4.76,4.76,0,0,0,2.32-1.9,5.84,5.84,0,0,0,.92-3.3,6,6,0,0,0-2.18-5,9.68,9.68,0,0,0-6.1-1.72h-9.4v24.56h10.2A9.28,9.28,0,0,0,578.6,602.39ZM567.26,584h4.16q3.72,0,3.72,2.84t-3.72,2.92h-4.16Zm0,15.92v-6.16h4.84a4.09,4.09,0,0,1,2.74.82,2.87,2.87,0,0,1,.94,2.26,2.81,2.81,0,0,1-1,2.26,4.05,4.05,0,0,1-2.72.82Z"/><path class="cls-2" d="M592.42,593.31a9.12,9.12,0,0,0-2.32-.32,7.63,7.63,0,0,0-4.94,1.6,5.06,5.06,0,0,0-2,4.12,5.18,5.18,0,0,0,1.9,4.24,7.24,7.24,0,0,0,4.74,1.56,8.48,8.48,0,0,0,2.64-.4,4.29,4.29,0,0,0,1.72-.88v1h4.76v-11.4a6.54,6.54,0,0,0-2-5.06,9,9,0,0,0-10.6-.2,6.39,6.39,0,0,0-2.46,4.1h4.72a2.54,2.54,0,0,1,2.64-1.68,2.86,2.86,0,0,1,2.18.78,2.78,2.78,0,0,1,.74,2V594A6.05,6.05,0,0,0,592.42,593.31Zm1.76,6a2.36,2.36,0,0,1-1.22,1.14,4.71,4.71,0,0,1-2,.42,4.16,4.16,0,0,1-2.24-.56,1.91,1.91,0,0,1,0-3.28,4.31,4.31,0,0,1,2.22-.56,4.71,4.71,0,0,1,2,.42,2.36,2.36,0,0,1,1.22,1.14Z"/><path class="cls-2" d="M610.46,604.59a8,8,0,0,0,5.38-1.76,7.22,7.22,0,0,0,2.46-4.68h-4.88a2.52,2.52,0,0,1-1,1.62,3.21,3.21,0,0,1-2,.58,3.11,3.11,0,0,1-2.68-1.4,6.17,6.17,0,0,1-1-3.68,6.28,6.28,0,0,1,1-3.72,3.13,3.13,0,0,1,2.68-1.4,3.27,3.27,0,0,1,2,.58,2.58,2.58,0,0,1,1,1.62h4.88a7.2,7.2,0,0,0-2.48-4.68,8.85,8.85,0,0,0-11.56.84,10.66,10.66,0,0,0,0,13.48A8,8,0,0,0,610.46,604.59Z"/><polygon class="cls-2" points="626.3 598.55 627.74 596.99 632.98 604.19 638.86 604.19 631.34 593.91 638.58 586.31 632.42 586.31 626.3 592.95 626.3 578.19 621.34 578.19 621.34 604.19 626.3 604.19 626.3 598.55"/><path class="cls-2" d="M650.86,598.79a5.6,5.6,0,0,0,1.56,4.32,6.18,6.18,0,0,0,4.36,1.44A6.94,6.94,0,0,0,660,604v-4.4a3.9,3.9,0,0,1-2.16.6,1.8,1.8,0,0,1-2-2v-7.84h3.92v-4h-3.92v-4.84h-4.92v4.84h-2.72v4h2.72Z"/><path class="cls-2" d="M671.06,604.59a8.27,8.27,0,0,0,6.32-2.6,10.53,10.53,0,0,0,0-13.48,9,9,0,0,0-12.64,0,10.53,10.53,0,0,0,0,13.48A8.24,8.24,0,0,0,671.06,604.59Zm-2.82-13.06a3.51,3.51,0,0,1,5.64,0,6.29,6.29,0,0,1,1,3.74,6.18,6.18,0,0,1-1,3.7,3.51,3.51,0,0,1-5.64,0,6.18,6.18,0,0,1-1-3.7A6.29,6.29,0,0,1,668.24,591.53Z"/><path class="cls-2" d="M698.22,600.83a2.76,2.76,0,0,1-3-2H690.3a6,6,0,0,0,2.52,4.22,9.18,9.18,0,0,0,5.44,1.5,8.49,8.49,0,0,0,5.26-1.56,5,5,0,0,0,2.06-4.24q0-4-4.76-5.2l-3.68-.84c-1.07-.26-1.6-.73-1.6-1.4a1.39,1.39,0,0,1,.7-1.24,3.07,3.07,0,0,1,1.66-.44,2.59,2.59,0,0,1,2.8,1.76h4.72a6.42,6.42,0,0,0-2.38-4.06,8.41,8.41,0,0,0-5.22-1.46,7.91,7.91,0,0,0-5.08,1.62,5.11,5.11,0,0,0-2,4.18c0,2.64,1.54,4.32,4.64,5l3.6.8a3.78,3.78,0,0,1,1.38.58,1.15,1.15,0,0,1,.42.94C700.74,600.25,699.9,600.83,698.22,600.83Z"/><path class="cls-2" d="M717.1,593.31a9.18,9.18,0,0,0-2.32-.32,7.63,7.63,0,0,0-4.94,1.6,5.06,5.06,0,0,0-2,4.12,5.18,5.18,0,0,0,1.9,4.24,7.2,7.2,0,0,0,4.74,1.56,8.48,8.48,0,0,0,2.64-.4,4.36,4.36,0,0,0,1.72-.88v1h4.76v-11.4a6.54,6.54,0,0,0-2-5.06,9,9,0,0,0-10.6-.2,6.31,6.31,0,0,0-2.46,4.1h4.72a2.54,2.54,0,0,1,2.64-1.68,2.88,2.88,0,0,1,2.18.78,2.78,2.78,0,0,1,.74,2V594A6.05,6.05,0,0,0,717.1,593.31Zm1.76,6a2.36,2.36,0,0,1-1.22,1.14,4.74,4.74,0,0,1-2,.42,4.16,4.16,0,0,1-2.24-.56,1.91,1.91,0,0,1,0-3.28,4.26,4.26,0,0,1,2.22-.56,4.74,4.74,0,0,1,2,.42,2.36,2.36,0,0,1,1.22,1.14Z"/><path class="cls-2" d="M729.05,604.19h4.89V590.31h3.72v-4h-3.72v-1.8a2.17,2.17,0,0,1,2.44-2.48,3,3,0,0,1,1.75.48v-4.2a6.75,6.75,0,0,0-2.75-.48,5.89,5.89,0,0,0-6.33,6.36v2.12h-2.92v4h2.92Z"/><path class="cls-2" d="M748,604.59a8.31,8.31,0,0,0,5.38-1.66,7.11,7.11,0,0,0,2.54-4.58h-4.6c-.4,1.5-1.51,2.24-3.32,2.24a3.5,3.5,0,0,1-2.72-1.14,4.9,4.9,0,0,1-1.16-3.14H756v-1.52a9.45,9.45,0,0,0-2.14-6.46,7.58,7.58,0,0,0-6-2.42,8,8,0,0,0-6.18,2.66,10.57,10.57,0,0,0,0,13.44A8.17,8.17,0,0,0,748,604.59Zm0-14.64a3,3,0,0,1,2.32.94,3.69,3.69,0,0,1,.88,2.42h-6.92Q744.9,590,747.94,590Z"/><path class="cls-2" d="M760.26,598.79a5.6,5.6,0,0,0,1.56,4.32,6.18,6.18,0,0,0,4.36,1.44,6.94,6.94,0,0,0,3.2-.56v-4.4a3.9,3.9,0,0,1-2.16.6,1.8,1.8,0,0,1-2-2v-7.84h3.92v-4h-3.92v-4.84h-4.92v4.84h-2.72v4h2.72Z"/><polygon class="cls-2" points="775.18 610.79 780.05 610.79 789.38 586.31 784.38 586.31 780.29 598.19 776.18 586.31 770.94 586.31 777.77 604.27 775.18 610.79"/></svg>