<?xml version="1.0" encoding="utf-8"?>
<!-- Generator: Adobe Illustrator 22.0.1, SVG Export Plug-In . SVG Version: 6.00 Build 0)  -->
<svg version="1.1" id="Layer_1" xmlns="http://www.w3.org/2000/svg" xmlns:xlink="http://www.w3.org/1999/xlink" x="0px" y="0px"
	 viewBox="0 0 240.2 361.8" style="enable-background:new 0 0 240.2 361.8;" xml:space="preserve">
<style type="text/css">
	.st0{fill:none;}
	.st1{enable-background:new    ;}
	.st2{fill:#1D1D1B;}
	.st3{fill:#2341C1;}
	.st4{fill:none;stroke:#1D1D1B;stroke-miterlimit:10;}
	.st5{fill:none;stroke:#1D1D1B;stroke-width:0.735;stroke-miterlimit:10;stroke-dasharray:5;}
	.st6{fill:#FFFFFF;}
	.st7{fill:none;stroke:#1E1E1E;stroke-width:2;stroke-miterlimit:10;}
</style>
<polyline class="st0" points="18.3,45.2 214.8,45.2 214.8,72.1 18.3,72.1 "/>
<g class="st1">
	<path class="st2" d="M34.8,56.9v-11h3.5c1.6,0,2.9,0.5,3.9,1.5s1.5,2.3,1.5,4s-0.5,3-1.5,4s-2.3,1.5-3.9,1.5H34.8z M36.2,55.7h2.1
		c1.2,0,2.2-0.4,2.9-1.1s1.1-1.8,1.1-3.1s-0.4-2.3-1.1-3.1c-0.7-0.8-1.7-1.2-2.9-1.2h-2.1V55.7z"/>
	<path class="st2" d="M48.7,45.9H50L54.3,57H53l-1.3-3.3h-4.6L45.8,57h-1.4L48.7,45.9z M49.4,47.7l-1.8,4.7h3.6L49.4,47.7z"/>
	<path class="st2" d="M54.3,47.2v-1.3h9.1v1.3h-3.9V57h-1.4v-9.8H54.3z"/>
	<path class="st2" d="M67.7,45.9H69L73.3,57h-1.4l-1.3-3.3H66L64.7,57h-1.4L67.7,45.9z M68.3,47.7l-1.8,4.7h3.6L68.3,47.7z"/>
	<path class="st2" d="M84.8,56.9h-1l-3.5-8.4v8.4H79v-11h1.6l3.7,9.1l3.7-9.1h1.5V57h-1.4v-8.4L84.8,56.9z"/>
	<path class="st2" d="M95.6,45.9H97l4.3,11.1h-1.4l-1.3-3.3H94L92.7,57h-1.4L95.6,45.9z M96.3,47.7l-1.8,4.7h3.6L96.3,47.7z"/>
	<path class="st2" d="M106.4,52.3h-2V57H103V45.9h4.1c1.1,0,2,0.3,2.7,0.8c0.6,0.6,1,1.3,1,2.4c0,0.9-0.2,1.6-0.7,2.1
		s-1.2,0.9-2.1,1l3.3,4.7h-1.6L106.4,52.3z M104.4,47.1V51h2.6c0.7,0,1.3-0.2,1.7-0.5c0.4-0.3,0.6-0.8,0.6-1.4
		c0-0.6-0.2-1.1-0.6-1.4c-0.4-0.3-0.9-0.5-1.7-0.5L104.4,47.1L104.4,47.1z"/>
	<path class="st2" d="M114.3,45.9v5.5l5.1-5.5h1.8l-4.7,5l4.9,6h-1.8l-4.2-5l-1.2,1.3V57h-1.4V45.9H114.3z"/>
	<path class="st2" d="M123.1,45.9h7v1.3h-5.6v3.5h5.1V52h-5.1v3.8h5.6v1.3h-7C123.1,57.1,123.1,45.9,123.1,45.9z"/>
	<path class="st2" d="M131.6,47.2v-1.3h9.1v1.3h-3.9V57h-1.4v-9.8H131.6z"/>
	<path class="st2" d="M146.7,52.5H144v4.4h-1.4v-11h4.1c1.1,0,2,0.3,2.7,0.9c0.6,0.6,1,1.4,1,2.5s-0.3,1.9-1,2.5
		C148.7,52.2,147.8,52.5,146.7,52.5z M148.9,49.2c0-0.6-0.2-1.2-0.6-1.5c-0.4-0.4-1-0.5-1.7-0.5H144v4.1h2.7c0.7,0,1.3-0.2,1.7-0.5
		C148.7,50.3,148.9,49.8,148.9,49.2z"/>
	<path class="st2" d="M152.2,56.9v-11h1.4v9.8h5.6V57L152.2,56.9L152.2,56.9z"/>
	<path class="st2" d="M164.7,45.9h1.3l4.3,11.1h-1.4l-1.3-3.3H163l-1.3,3.3h-1.4L164.7,45.9z M165.3,47.7l-1.8,4.7h3.6L165.3,47.7z"
		/>
	<path class="st2" d="M172.4,55.5c-0.9-1-1.4-2.4-1.4-4.1c0-1.7,0.5-3.1,1.4-4.1s2.1-1.6,3.5-1.6c1.1,0,2.1,0.3,2.8,0.9
		c0.7,0.6,1.2,1.4,1.5,2.5h-1.4c-0.5-1.4-1.5-2.1-2.9-2.1c-1.1,0-1.9,0.4-2.6,1.2c-0.6,0.8-1,1.9-1,3.2s0.3,2.4,1,3.2
		c0.6,0.8,1.5,1.2,2.6,1.2c1.4,0,2.4-0.7,2.9-2.1h1.4c-0.2,1.1-0.7,1.9-1.5,2.5s-1.7,0.9-2.8,0.9C174.5,57.1,173.4,56.6,172.4,55.5z
		"/>
	<path class="st2" d="M182.2,45.9h7v1.3h-5.6v3.5h5.1V52h-5.1v3.8h5.6v1.3h-7V45.9z"/>
</g>
<polyline class="st0" points="24.3,83.7 202.4,83.7 202.4,328.5 24.3,328.5 "/>
<g class="st1">
	<path class="st2" d="M25.2,108.5v-7.4h0.9v6.5h3.8v0.9H25.2z"/>
	<path class="st2" d="M34.9,103.9c0.5,0.5,0.7,1.2,0.7,2s-0.2,1.5-0.7,2s-1,0.8-1.8,0.8c-0.7,0-1.3-0.3-1.8-0.8s-0.7-1.2-0.7-2
		s0.2-1.5,0.7-2s1-0.8,1.8-0.8S34.4,103.4,34.9,103.9z M34.2,107.3c0.3-0.4,0.4-0.8,0.4-1.4s-0.1-1.1-0.4-1.4
		c-0.3-0.4-0.7-0.5-1.1-0.5c-0.5,0-0.8,0.2-1.1,0.5c-0.3,0.4-0.4,0.8-0.4,1.4s0.1,1.1,0.4,1.4c0.3,0.4,0.6,0.5,1.1,0.5
		C33.6,107.9,34,107.7,34.2,107.3z"/>
	<path class="st2" d="M37.1,107.9c-0.4-0.5-0.7-1.2-0.7-2s0.2-1.5,0.7-2s1-0.8,1.8-0.8c0.6,0,1.1,0.2,1.4,0.5
		c0.4,0.3,0.6,0.7,0.7,1.2h-0.9c-0.1-0.3-0.2-0.5-0.4-0.7s-0.5-0.2-0.8-0.2c-0.5,0-0.8,0.2-1.1,0.6s-0.4,0.8-0.4,1.4
		s0.1,1.1,0.4,1.4c0.3,0.4,0.6,0.6,1.1,0.6c0.3,0,0.6-0.1,0.8-0.2s0.3-0.4,0.4-0.7H41c-0.1,0.5-0.3,0.9-0.7,1.2
		c-0.4,0.3-0.8,0.5-1.4,0.5C38.1,108.7,37.6,108.4,37.1,107.9z"/>
	<path class="st2" d="M46,108.5h-0.9v-0.4c-0.1,0.1-0.3,0.2-0.6,0.3c-0.3,0.1-0.5,0.2-0.8,0.2c-0.6,0-1-0.2-1.4-0.5
		s-0.6-0.7-0.6-1.2s0.2-0.9,0.6-1.2c0.4-0.3,0.9-0.5,1.5-0.5c0.3,0,0.5,0,0.8,0.1s0.4,0.2,0.6,0.3V105c0-0.3-0.1-0.6-0.3-0.8
		s-0.5-0.3-0.9-0.3c-0.6,0-0.9,0.2-1.1,0.7H42c0.1-0.4,0.3-0.8,0.7-1.1c0.4-0.3,0.8-0.4,1.3-0.4c0.6,0,1.1,0.2,1.5,0.5
		s0.5,0.8,0.5,1.4V108.5z M45.2,107.2v-0.6c-0.1-0.2-0.2-0.3-0.5-0.5s-0.5-0.2-0.8-0.2c-0.4,0-0.7,0.1-0.9,0.2s-0.4,0.4-0.4,0.7
		c0,0.3,0.1,0.5,0.4,0.7s0.5,0.2,0.9,0.2c0.3,0,0.5-0.1,0.8-0.2S45.1,107.4,45.2,107.2z"/>
	<path class="st2" d="M47.8,107.2V104h-0.9v-0.8h0.9v-1.4h0.9v1.4H50v0.8h-1.3v3.1c0,0.5,0.2,0.7,0.7,0.7c0.2,0,0.5-0.1,0.7-0.2v0.8
		c-0.2,0.1-0.5,0.2-0.8,0.2c-0.4,0-0.8-0.1-1.1-0.4S47.8,107.7,47.8,107.2z"/>
	<path class="st2" d="M52.2,101.2c0.1,0.1,0.2,0.2,0.2,0.4s-0.1,0.3-0.2,0.4c-0.1,0.1-0.3,0.2-0.4,0.2s-0.3-0.1-0.4-0.2
		c-0.1-0.1-0.2-0.2-0.2-0.4s0.1-0.3,0.2-0.4c0.1-0.1,0.2-0.2,0.4-0.2S52.1,101.1,52.2,101.2z M52.2,103.2v5.3h-0.9v-5.3H52.2z"/>
	<path class="st2" d="M57.7,103.9c0.5,0.5,0.7,1.2,0.7,2s-0.2,1.5-0.7,2s-1,0.8-1.8,0.8s-1.3-0.3-1.8-0.8s-0.7-1.2-0.7-2
		s0.2-1.5,0.7-2s1-0.8,1.8-0.8S57.2,103.4,57.7,103.9z M57,107.3c0.3-0.4,0.4-0.8,0.4-1.4s-0.1-1.1-0.4-1.4s-0.7-0.5-1.1-0.5
		s-0.8,0.2-1.1,0.5c-0.3,0.4-0.4,0.8-0.4,1.4s0.1,1.1,0.4,1.4c0.3,0.4,0.7,0.5,1.1,0.5S56.8,107.7,57,107.3z"/>
	<path class="st2" d="M59.6,108.5v-5.3h0.9v0.7c0.2-0.2,0.4-0.4,0.7-0.6c0.3-0.1,0.6-0.2,0.9-0.2c0.6,0,1.1,0.2,1.4,0.5
		c0.3,0.4,0.5,0.8,0.5,1.4v3.5h-1v-3.3c0-0.4-0.1-0.7-0.3-0.9c-0.2-0.2-0.5-0.3-0.9-0.3c-0.3,0-0.6,0.1-0.8,0.3
		c-0.2,0.2-0.4,0.4-0.5,0.7v3.6L59.6,108.5L59.6,108.5z"/>
	<path class="st2" d="M71.6,108.5v-0.6c-0.1,0.2-0.4,0.4-0.6,0.5c-0.3,0.1-0.6,0.2-0.9,0.2c-0.8,0-1.3-0.3-1.8-0.8
		c-0.4-0.5-0.6-1.2-0.6-2s0.2-1.4,0.6-2c0.4-0.5,1-0.8,1.8-0.8c0.3,0,0.6,0.1,0.9,0.2s0.5,0.3,0.6,0.5v-3.1h0.9v7.8h-0.9V108.5z
		 M71.6,107v-2.2c-0.1-0.3-0.3-0.5-0.6-0.6c-0.2-0.2-0.5-0.2-0.8-0.2c-0.5,0-0.9,0.2-1.2,0.5c-0.3,0.4-0.4,0.8-0.4,1.4
		s0.1,1,0.4,1.4s0.7,0.5,1.2,0.5c0.3,0,0.6-0.1,0.8-0.2C71.3,107.4,71.5,107.2,71.6,107z"/>
	<path class="st2" d="M78,108.5h-0.9v-0.4c-0.1,0.1-0.3,0.2-0.6,0.3c-0.3,0.1-0.5,0.2-0.8,0.2c-0.6,0-1-0.2-1.4-0.5
		s-0.6-0.7-0.6-1.2s0.2-0.9,0.6-1.2c0.4-0.3,0.9-0.5,1.5-0.5c0.3,0,0.5,0,0.8,0.1s0.4,0.2,0.6,0.3V105c0-0.3-0.1-0.6-0.3-0.8
		s-0.5-0.3-0.9-0.3c-0.6,0-0.9,0.2-1.1,0.7H74c0.1-0.4,0.3-0.8,0.7-1.1c0.4-0.3,0.8-0.4,1.3-0.4c0.6,0,1.1,0.2,1.5,0.5
		s0.5,0.8,0.5,1.4V108.5z M77.1,107.2v-0.6c-0.1-0.2-0.2-0.3-0.5-0.5c-0.2-0.1-0.5-0.2-0.8-0.2c-0.4,0-0.7,0.1-0.9,0.2
		s-0.4,0.4-0.4,0.7c0,0.3,0.1,0.5,0.4,0.7s0.5,0.2,0.9,0.2c0.3,0,0.5-0.1,0.8-0.2C76.9,107.6,77,107.4,77.1,107.2z"/>
	<path class="st2" d="M79.7,107.2V104h-0.9v-0.8h0.9v-1.4h0.9v1.4h1.3v0.8h-1.3v3.1c0,0.5,0.2,0.7,0.7,0.7c0.2,0,0.5-0.1,0.7-0.2
		v0.8c-0.2,0.1-0.5,0.2-0.8,0.2c-0.4,0-0.8-0.1-1.1-0.4C79.9,108,79.7,107.7,79.7,107.2z"/>
	<path class="st2" d="M87.1,108.5h-0.9v-0.4c-0.1,0.1-0.3,0.2-0.6,0.3c-0.3,0.1-0.5,0.2-0.8,0.2c-0.6,0-1-0.2-1.4-0.5
		s-0.6-0.7-0.6-1.2s0.2-0.9,0.6-1.2c0.4-0.3,0.9-0.5,1.5-0.5c0.3,0,0.5,0,0.8,0.1s0.4,0.2,0.6,0.3V105c0-0.3-0.1-0.6-0.3-0.8
		s-0.5-0.3-0.9-0.3c-0.6,0-0.9,0.2-1.1,0.7h-0.9c0.1-0.4,0.3-0.8,0.7-1.1c0.4-0.3,0.8-0.4,1.3-0.4c0.6,0,1.1,0.2,1.5,0.5
		s0.5,0.8,0.5,1.4C87.1,105,87.1,108.5,87.1,108.5z M86.2,107.2v-0.6c-0.1-0.2-0.2-0.3-0.5-0.5c-0.2-0.1-0.5-0.2-0.8-0.2
		c-0.4,0-0.7,0.1-0.9,0.2s-0.4,0.4-0.4,0.7c0,0.3,0.1,0.5,0.4,0.7s0.5,0.2,0.9,0.2c0.3,0,0.5-0.1,0.8-0.2
		C86,107.6,86.1,107.4,86.2,107.2z"/>
</g>
<g class="st1">
	<path class="st2" d="M30.3,118.2h0.9v7.4h-0.9v-3.4h-4.2v3.4h-0.9v-7.4h0.9v3.2h4.2V118.2z"/>
	<path class="st2" d="M36.3,123.9h0.9c-0.1,0.5-0.3,0.9-0.7,1.2c-0.4,0.3-0.9,0.5-1.4,0.5c-0.7,0-1.3-0.3-1.8-0.8s-0.7-1.2-0.7-2
		s0.2-1.5,0.7-2c0.4-0.5,1-0.8,1.8-0.8c0.7,0,1.3,0.2,1.7,0.7s0.6,1.1,0.6,1.9v0.3h-3.8c0,0.6,0.2,1,0.4,1.3
		c0.3,0.3,0.7,0.5,1.1,0.5c0.3,0,0.6-0.1,0.8-0.2C36.1,124.5,36.2,124.2,36.3,123.9z M35,120.9c-0.4,0-0.7,0.1-1,0.4
		s-0.4,0.6-0.5,1.1h2.8c0-0.4-0.1-0.8-0.3-1.1C35.7,121,35.4,120.9,35,120.9z"/>
	<path class="st2" d="M42.3,125.5h-0.9v-0.4c-0.1,0.1-0.3,0.2-0.6,0.3c-0.3,0.1-0.5,0.2-0.8,0.2c-0.6,0-1-0.2-1.4-0.5
		s-0.6-0.7-0.6-1.2s0.2-0.9,0.6-1.2c0.4-0.3,0.9-0.5,1.5-0.5c0.3,0,0.5,0,0.8,0.1s0.4,0.2,0.6,0.3V122c0-0.3-0.1-0.6-0.3-0.8
		s-0.5-0.3-0.9-0.3c-0.6,0-0.9,0.2-1.1,0.7h-0.9c0.1-0.4,0.3-0.8,0.7-1.1c0.4-0.3,0.8-0.4,1.3-0.4c0.6,0,1.1,0.2,1.5,0.5
		s0.5,0.8,0.5,1.4C42.3,122,42.3,125.5,42.3,125.5z M41.4,124.2v-0.6c-0.1-0.2-0.2-0.3-0.5-0.5c-0.2-0.1-0.5-0.2-0.8-0.2
		c-0.4,0-0.7,0.1-0.9,0.2s-0.4,0.4-0.4,0.7c0,0.3,0.1,0.5,0.4,0.7s0.5,0.2,0.9,0.2c0.3,0,0.5-0.1,0.8-0.2
		C41.2,124.6,41.3,124.4,41.4,124.2z"/>
	<path class="st2" d="M44,124.2V121h-0.9v-0.8H44v-1.4h0.9v1.4h1.3v0.8h-1.3v3.1c0,0.5,0.2,0.7,0.7,0.7c0.2,0,0.5-0.1,0.7-0.2v0.8
		c-0.2,0.1-0.5,0.2-0.8,0.2c-0.4,0-0.8-0.1-1.1-0.4S44,124.7,44,124.2z"/>
	<path class="st2" d="M48.4,118.2c0.1,0.1,0.2,0.2,0.2,0.4s-0.1,0.3-0.2,0.4c-0.1,0.1-0.3,0.2-0.4,0.2s-0.3-0.1-0.4-0.2
		c-0.1-0.1-0.2-0.2-0.2-0.4s0.1-0.3,0.2-0.4c0.1-0.1,0.2-0.2,0.4-0.2S48.3,118.1,48.4,118.2z M48.5,120.2v5.3h-0.9v-5.3H48.5z"/>
	<path class="st2" d="M50.1,125.5v-5.3H51v0.7c0.2-0.2,0.4-0.4,0.7-0.6c0.3-0.1,0.6-0.2,0.9-0.2c0.6,0,1.1,0.2,1.4,0.5
		c0.3,0.4,0.5,0.8,0.5,1.4v3.5h-0.9v-3.3c0-0.4-0.1-0.7-0.3-0.9c-0.2-0.2-0.5-0.3-0.9-0.3c-0.3,0-0.6,0.1-0.8,0.3
		c-0.2,0.2-0.4,0.4-0.5,0.7v3.6L50.1,125.5L50.1,125.5z"/>
	<path class="st2" d="M59.4,125.2v-0.4c-0.1,0.2-0.3,0.4-0.6,0.5s-0.6,0.2-0.9,0.2c-0.7,0-1.3-0.3-1.8-0.8c-0.4-0.5-0.6-1.2-0.6-1.9
		c0-0.8,0.2-1.4,0.6-1.9c0.4-0.5,1-0.8,1.8-0.8c0.3,0,0.6,0.1,0.9,0.2c0.3,0.1,0.5,0.3,0.6,0.5v-0.6h0.9v4.9c0,0.8-0.2,1.5-0.7,1.9
		c-0.4,0.4-1,0.7-1.7,0.7c-0.6,0-1.2-0.2-1.6-0.5c-0.4-0.3-0.6-0.7-0.7-1.3h0.9c0.2,0.7,0.6,1,1.4,1C59,126.9,59.4,126.4,59.4,125.2
		z M59.4,123.9v-2.1c-0.3-0.6-0.8-0.8-1.4-0.8c-0.5,0-0.9,0.2-1.2,0.5c-0.3,0.4-0.4,0.8-0.4,1.4s0.1,1,0.4,1.4
		c0.3,0.3,0.7,0.5,1.2,0.5C58.7,124.7,59.1,124.4,59.4,123.9z"/>
	<path class="st2" d="M65.5,118.2c0.1,0.1,0.2,0.2,0.2,0.4s-0.1,0.3-0.2,0.4s-0.3,0.2-0.4,0.2s-0.3-0.1-0.4-0.2s-0.2-0.2-0.2-0.4
		s0.1-0.3,0.2-0.4s0.2-0.2,0.4-0.2S65.4,118.1,65.5,118.2z M65.5,120.2v5.3h-0.9v-5.3H65.5z"/>
	<path class="st2" d="M67.1,125.5v-5.3H68v0.7c0.2-0.2,0.4-0.4,0.7-0.6c0.3-0.1,0.6-0.2,0.9-0.2c0.6,0,1.1,0.2,1.4,0.5
		c0.3,0.4,0.5,0.8,0.5,1.4v3.5h-0.9v-3.3c0-0.4-0.1-0.7-0.3-0.9c-0.2-0.2-0.5-0.3-0.9-0.3c-0.3,0-0.6,0.1-0.8,0.3
		c-0.2,0.2-0.4,0.4-0.5,0.7v3.6L67.1,125.5L67.1,125.5z"/>
	<path class="st2" d="M75.6,117.8v0.8c-0.2-0.1-0.3-0.1-0.6-0.1c-0.3,0-0.5,0.1-0.6,0.3c-0.2,0.2-0.2,0.4-0.2,0.7v0.8h1.2v0.8h-1.2
		v4.6h-0.9V121h-0.9v-0.8h0.9v-0.9c0-0.5,0.2-0.9,0.5-1.2c0.3-0.3,0.7-0.5,1.2-0.5C75.2,117.6,75.5,117.7,75.6,117.8z"/>
	<path class="st2" d="M80.2,120.9c0.5,0.5,0.7,1.2,0.7,2s-0.2,1.5-0.7,2s-1,0.8-1.8,0.8s-1.3-0.3-1.8-0.8s-0.7-1.2-0.7-2
		s0.2-1.5,0.7-2s1-0.8,1.8-0.8S79.8,120.4,80.2,120.9z M79.6,124.3c0.3-0.4,0.4-0.8,0.4-1.4s-0.1-1.1-0.4-1.4s-0.7-0.5-1.1-0.5
		s-0.8,0.2-1.1,0.5c-0.3,0.4-0.4,0.8-0.4,1.4s0.1,1.1,0.4,1.4c0.3,0.4,0.7,0.5,1.1,0.5S79.3,124.7,79.6,124.3z"/>
	<path class="st2" d="M84.8,120.2v0.9c-0.1-0.1-0.3-0.1-0.6-0.1c-0.3,0-0.5,0.1-0.8,0.3c-0.2,0.2-0.4,0.4-0.5,0.7v3.6H82v-5.3h1v0.7
		c0.1-0.2,0.3-0.4,0.5-0.6s0.5-0.2,0.8-0.2C84.6,120.1,84.7,120.1,84.8,120.2z"/>
	<path class="st2" d="M89.7,121c0.4-0.6,0.9-0.9,1.6-0.9c0.5,0,1,0.2,1.2,0.5s0.4,0.8,0.4,1.4v3.5H92v-3.4c0-0.4-0.1-0.7-0.3-0.9
		c-0.2-0.2-0.4-0.3-0.8-0.3c-0.3,0-0.5,0.1-0.7,0.3c-0.2,0.2-0.4,0.4-0.4,0.7v3.7H89v-3.4c0-0.4-0.1-0.7-0.3-0.9
		c-0.2-0.2-0.4-0.3-0.8-0.3c-0.3,0-0.5,0.1-0.7,0.3c-0.2,0.2-0.4,0.4-0.4,0.7v3.7H86v-5.3h0.9v0.6c0.3-0.5,0.8-0.7,1.4-0.7
		C89,120.1,89.4,120.4,89.7,121z"/>
	<path class="st2" d="M98.4,125.5h-0.9v-0.4c-0.1,0.1-0.3,0.2-0.6,0.3c-0.3,0.1-0.5,0.2-0.8,0.2c-0.6,0-1-0.2-1.4-0.5
		s-0.6-0.7-0.6-1.2s0.2-0.9,0.6-1.2c0.4-0.3,0.9-0.5,1.5-0.5c0.3,0,0.5,0,0.8,0.1s0.4,0.2,0.6,0.3V122c0-0.3-0.1-0.6-0.3-0.8
		s-0.5-0.3-0.9-0.3c-0.6,0-0.9,0.2-1.1,0.7h-0.9c0.1-0.4,0.3-0.8,0.7-1.1c0.4-0.3,0.8-0.4,1.3-0.4c0.6,0,1.1,0.2,1.5,0.5
		s0.5,0.8,0.5,1.4C98.4,122,98.4,125.5,98.4,125.5z M97.6,124.2v-0.6c-0.1-0.2-0.2-0.3-0.5-0.5c-0.2-0.1-0.5-0.2-0.8-0.2
		c-0.4,0-0.7,0.1-0.9,0.2s-0.4,0.4-0.4,0.7c0,0.3,0.1,0.5,0.4,0.7s0.5,0.2,0.9,0.2c0.3,0,0.5-0.1,0.8-0.2
		C97.3,124.6,97.5,124.4,97.6,124.2z"/>
	<path class="st2" d="M100.2,124.2V121h-0.9v-0.8h0.9v-1.4h0.9v1.4h1.3v0.8h-1.3v3.1c0,0.5,0.2,0.7,0.7,0.7c0.2,0,0.5-0.1,0.7-0.2
		v0.8c-0.2,0.1-0.5,0.2-0.8,0.2c-0.4,0-0.8-0.1-1.1-0.4C100.3,125,100.2,124.7,100.2,124.2z"/>
	<path class="st2" d="M104.6,118.2c0.1,0.1,0.2,0.2,0.2,0.4s-0.1,0.3-0.2,0.4s-0.3,0.2-0.4,0.2c-0.2,0-0.3-0.1-0.4-0.2
		s-0.2-0.2-0.2-0.4s0.1-0.3,0.2-0.4s0.2-0.2,0.4-0.2C104.3,118,104.5,118.1,104.6,118.2z M104.6,120.2v5.3h-0.9v-5.3H104.6z"/>
	<path class="st2" d="M110.1,120.9c0.5,0.5,0.7,1.2,0.7,2s-0.2,1.5-0.7,2s-1,0.8-1.8,0.8c-0.7,0-1.3-0.3-1.8-0.8s-0.7-1.2-0.7-2
		s0.2-1.5,0.7-2s1-0.8,1.8-0.8C109,120.1,109.6,120.4,110.1,120.9z M109.4,124.3c0.3-0.4,0.4-0.8,0.4-1.4s-0.1-1.1-0.4-1.4
		c-0.3-0.4-0.7-0.5-1.1-0.5c-0.5,0-0.8,0.2-1.1,0.5c-0.3,0.4-0.4,0.8-0.4,1.4s0.1,1.1,0.4,1.4c0.3,0.4,0.6,0.5,1.1,0.5
		C108.8,124.9,109.1,124.7,109.4,124.3z"/>
	<path class="st2" d="M112,125.5v-5.3h0.9v0.7c0.2-0.2,0.4-0.4,0.7-0.6c0.3-0.1,0.6-0.2,0.9-0.2c0.6,0,1.1,0.2,1.4,0.5
		c0.3,0.4,0.5,0.8,0.5,1.4v3.5h-0.9v-3.3c0-0.4-0.1-0.7-0.3-0.9c-0.2-0.2-0.5-0.3-0.9-0.3c-0.3,0-0.6,0.1-0.8,0.3
		c-0.2,0.2-0.4,0.4-0.5,0.7v3.6L112,125.5L112,125.5z"/>
</g>
<g class="st1">
	<path class="st2" d="M26.1,142.5h-0.9v-7.4h4.5v0.8h-3.6v2.5h3.3v0.8h-3.3V142.5z"/>
	<path class="st2" d="M34.6,142.5h-0.9v-0.4c-0.1,0.1-0.3,0.2-0.6,0.3s-0.5,0.2-0.8,0.2c-0.6,0-1-0.2-1.4-0.5s-0.6-0.7-0.6-1.2
		s0.2-0.9,0.6-1.2s0.9-0.5,1.5-0.5c0.3,0,0.5,0,0.8,0.1s0.4,0.2,0.6,0.3V139c0-0.3-0.1-0.6-0.3-0.8s-0.5-0.3-0.9-0.3
		c-0.6,0-0.9,0.2-1.1,0.7h-0.9c0.1-0.4,0.3-0.8,0.7-1.1c0.4-0.3,0.8-0.4,1.3-0.4c0.6,0,1.1,0.2,1.5,0.5s0.5,0.8,0.5,1.4V142.5z
		 M33.8,141.2v-0.6c-0.1-0.2-0.2-0.3-0.5-0.5c-0.2-0.1-0.5-0.2-0.8-0.2c-0.4,0-0.7,0.1-0.9,0.2s-0.4,0.4-0.4,0.7s0.1,0.5,0.4,0.7
		s0.5,0.2,0.9,0.2c0.3,0,0.5-0.1,0.8-0.2C33.5,141.6,33.7,141.4,33.8,141.2z"/>
	<path class="st2" d="M36.5,141.9c-0.4-0.5-0.7-1.2-0.7-2s0.2-1.5,0.7-2c0.4-0.5,1-0.8,1.8-0.8c0.6,0,1.1,0.2,1.4,0.5
		c0.4,0.3,0.6,0.7,0.7,1.2h-0.9c-0.1-0.3-0.2-0.5-0.4-0.7s-0.5-0.2-0.8-0.2c-0.5,0-0.8,0.2-1.1,0.6c-0.3,0.4-0.4,0.8-0.4,1.4
		s0.1,1.1,0.4,1.4c0.3,0.4,0.6,0.6,1.1,0.6c0.3,0,0.6-0.1,0.8-0.2s0.3-0.4,0.4-0.7h0.9c-0.1,0.5-0.3,0.9-0.7,1.2s-0.9,0.5-1.4,0.5
		C37.5,142.7,36.9,142.4,36.5,141.9z"/>
	<path class="st2" d="M44.9,140.9h0.9c-0.1,0.5-0.3,0.9-0.7,1.2s-0.9,0.5-1.4,0.5c-0.7,0-1.3-0.3-1.8-0.8s-0.7-1.2-0.7-2
		s0.2-1.5,0.7-2c0.4-0.5,1-0.8,1.8-0.8c0.7,0,1.3,0.2,1.7,0.7s0.6,1.1,0.6,1.9v0.3h-4c0,0.6,0.2,1,0.4,1.3c0.3,0.3,0.7,0.5,1.1,0.5
		c0.3,0,0.6-0.1,0.8-0.2C44.6,141.5,44.8,141.2,44.9,140.9z M43.6,137.9c-0.4,0-0.7,0.1-1,0.4c-0.3,0.3-0.4,0.6-0.5,1.1h2.8
		c0-0.4-0.1-0.8-0.3-1.1C44.3,138,44,137.9,43.6,137.9z"/>
	<path class="st2" d="M47.9,141.9v0.6H47v-7.8h0.9v3.1c0.1-0.2,0.4-0.4,0.6-0.5c0.3-0.1,0.6-0.2,0.9-0.2c0.8,0,1.3,0.3,1.8,0.8
		s0.6,1.2,0.6,2s-0.2,1.5-0.6,2c-0.4,0.5-1,0.8-1.8,0.8c-0.3,0-0.6-0.1-0.9-0.2C48.2,142.3,48,142.1,47.9,141.9z M47.9,138.8v2.2
		c0.1,0.3,0.3,0.5,0.6,0.6c0.2,0.2,0.5,0.2,0.8,0.2c0.5,0,0.9-0.2,1.2-0.5s0.4-0.8,0.4-1.4s-0.1-1-0.4-1.4c-0.3-0.4-0.7-0.5-1.2-0.5
		c-0.3,0-0.6,0.1-0.8,0.2C48.2,138.3,48,138.5,47.9,138.8z"/>
	<path class="st2" d="M56.9,137.9c0.5,0.5,0.7,1.2,0.7,2s-0.2,1.5-0.7,2s-1,0.8-1.8,0.8c-0.7,0-1.3-0.3-1.8-0.8s-0.7-1.2-0.7-2
		s0.2-1.5,0.7-2s1-0.8,1.8-0.8C55.8,137.1,56.4,137.4,56.9,137.9z M56.2,141.3c0.3-0.4,0.4-0.8,0.4-1.4s-0.1-1.1-0.4-1.4
		c-0.3-0.4-0.7-0.5-1.1-0.5c-0.5,0-0.8,0.2-1.1,0.5c-0.3,0.4-0.4,0.8-0.4,1.4s0.1,1.1,0.4,1.4c0.3,0.4,0.6,0.5,1.1,0.5
		C55.6,141.9,56,141.7,56.2,141.3z"/>
	<path class="st2" d="M62.6,137.9c0.5,0.5,0.7,1.2,0.7,2s-0.2,1.5-0.7,2s-1,0.8-1.8,0.8s-1.3-0.3-1.8-0.8s-0.7-1.2-0.7-2
		s0.2-1.5,0.7-2s1-0.8,1.8-0.8S62.2,137.4,62.6,137.9z M62,141.3c0.3-0.4,0.4-0.8,0.4-1.4s-0.1-1.1-0.4-1.4s-0.7-0.5-1.1-0.5
		s-0.8,0.2-1.1,0.5c-0.3,0.4-0.4,0.8-0.4,1.4s0.1,1.1,0.4,1.4c0.3,0.4,0.7,0.5,1.1,0.5S61.7,141.7,62,141.3z"/>
	<path class="st2" d="M68,142.5l-2-2.5l-0.6,0.6v1.9h-0.9v-7.8h0.9v4.8l2.4-2.4H69l-2.4,2.3l2.5,3L68,142.5L68,142.5z"/>
</g>
<g class="st1">
	<path class="st2" d="M25.7,158.6c-0.6-0.7-0.9-1.6-0.9-2.7s0.3-2,0.9-2.7s1.4-1,2.4-1c0.8,0,1.4,0.2,1.9,0.6s0.8,1,1,1.7h-1
		c-0.3-0.9-1-1.4-1.9-1.4c-0.7,0-1.3,0.3-1.7,0.8c-0.4,0.5-0.6,1.3-0.6,2.1c0,0.9,0.2,1.6,0.6,2.1s1,0.8,1.7,0.8
		c1,0,1.6-0.5,1.9-1.4h0.9c-0.2,0.7-0.5,1.3-1,1.7s-1.1,0.6-1.9,0.6C27.1,159.7,26.3,159.3,25.7,158.6z"/>
	<path class="st2" d="M36,154.9c0.5,0.5,0.7,1.2,0.7,2s-0.2,1.5-0.7,2s-1,0.8-1.8,0.8s-1.3-0.3-1.8-0.8s-0.7-1.2-0.7-2
		s0.2-1.5,0.7-2s1-0.8,1.8-0.8S35.6,154.4,36,154.9z M35.4,158.3c0.3-0.4,0.4-0.8,0.4-1.4s-0.1-1.1-0.4-1.4s-0.7-0.5-1.1-0.5
		s-0.8,0.2-1.1,0.5c-0.3,0.4-0.4,0.8-0.4,1.4s0.1,1.1,0.4,1.4c0.3,0.4,0.7,0.5,1.1,0.5S35.1,158.7,35.4,158.3z"/>
	<path class="st2" d="M37.9,159.5v-5.3h0.9v0.7c0.2-0.2,0.4-0.4,0.7-0.6c0.3-0.1,0.6-0.2,0.9-0.2c0.6,0,1.1,0.2,1.4,0.5
		c0.3,0.4,0.5,0.8,0.5,1.4v3.5h-0.9v-3.3c0-0.4-0.1-0.7-0.3-0.9s-0.5-0.3-0.9-0.3c-0.3,0-0.6,0.1-0.8,0.3s-0.4,0.4-0.5,0.7v3.6
		L37.9,159.5L37.9,159.5z"/>
	<path class="st2" d="M44,158.2V155h-0.9v-0.8H44v-1.4h0.9v1.4h1.3v0.8h-1.3v3.1c0,0.5,0.2,0.7,0.7,0.7c0.2,0,0.5-0.1,0.7-0.2v0.8
		c-0.2,0.1-0.5,0.2-0.8,0.2c-0.4,0-0.8-0.1-1.1-0.4C44.2,159,44,158.7,44,158.2z"/>
	<path class="st2" d="M51.4,159.5h-0.9v-0.4c-0.1,0.1-0.3,0.2-0.6,0.3s-0.5,0.2-0.8,0.2c-0.6,0-1-0.2-1.4-0.5s-0.6-0.7-0.6-1.2
		s0.2-0.9,0.6-1.2c0.4-0.3,0.9-0.5,1.5-0.5c0.3,0,0.5,0,0.8,0.1s0.4,0.2,0.6,0.3V156c0-0.3-0.1-0.6-0.3-0.8s-0.5-0.3-0.9-0.3
		c-0.6,0-0.9,0.2-1.1,0.7h-0.9c0.1-0.4,0.3-0.8,0.7-1.1s0.8-0.4,1.3-0.4c0.6,0,1.1,0.2,1.5,0.5s0.5,0.8,0.5,1.4
		C51.4,156,51.4,159.5,51.4,159.5z M50.5,158.2v-0.6c-0.1-0.2-0.2-0.3-0.5-0.5c-0.2-0.1-0.5-0.2-0.8-0.2c-0.4,0-0.7,0.1-0.9,0.2
		s-0.4,0.4-0.4,0.7s0.1,0.5,0.4,0.7s0.5,0.2,0.9,0.2c0.3,0,0.5-0.1,0.8-0.2C50.3,158.6,50.4,158.4,50.5,158.2z"/>
	<path class="st2" d="M53.2,158.9c-0.4-0.5-0.7-1.2-0.7-2s0.2-1.5,0.7-2s1-0.8,1.8-0.8c0.6,0,1.1,0.2,1.4,0.5
		c0.4,0.3,0.6,0.7,0.7,1.2h-0.9c-0.1-0.3-0.2-0.5-0.4-0.7s-0.5-0.2-0.8-0.2c-0.5,0-0.8,0.2-1.1,0.6c-0.3,0.4-0.4,0.8-0.4,1.4
		s0.1,1.1,0.4,1.4c0.3,0.4,0.6,0.6,1.1,0.6c0.3,0,0.6-0.1,0.8-0.2s0.3-0.4,0.4-0.7h0.9c-0.1,0.5-0.3,0.9-0.7,1.2s-0.8,0.5-1.4,0.5
		C54.2,159.7,53.6,159.4,53.2,158.9z"/>
	<path class="st2" d="M58.5,158.2V155h-0.9v-0.8h0.9v-1.4h0.9v1.4h1.3v0.8h-1.3v3.1c0,0.5,0.2,0.7,0.7,0.7c0.2,0,0.5-0.1,0.7-0.2
		v0.8c-0.2,0.1-0.5,0.2-0.8,0.2c-0.4,0-0.8-0.1-1.1-0.4C58.7,159,58.5,158.7,58.5,158.2z"/>
	<path class="st2" d="M61.6,158.1h0.9c0.2,0.5,0.6,0.8,1.3,0.8c0.3,0,0.6-0.1,0.8-0.2c0.2-0.1,0.3-0.3,0.3-0.6
		c0-0.4-0.3-0.6-0.8-0.7l-1.1-0.3c-0.9-0.2-1.3-0.7-1.3-1.4c0-0.5,0.2-0.8,0.5-1.1c0.4-0.3,0.8-0.4,1.4-0.4s1,0.1,1.4,0.4
		c0.4,0.3,0.6,0.6,0.7,1.1h-0.9c-0.2-0.5-0.6-0.8-1.2-0.8c-0.3,0-0.5,0.1-0.7,0.2c-0.2,0.1-0.3,0.3-0.3,0.6c0,0.2,0.1,0.3,0.2,0.4
		c0.1,0.1,0.3,0.2,0.6,0.3l1,0.3c0.9,0.2,1.4,0.7,1.4,1.5c0,0.5-0.2,0.9-0.6,1.2s-0.8,0.4-1.4,0.4s-1.1-0.1-1.5-0.4
		C61.9,159,61.7,158.6,61.6,158.1z"/>
</g>
<g class="st1">
	<path class="st2" d="M29,172.7c0.4,0.1,0.7,0.3,1,0.6c0.2,0.3,0.4,0.7,0.4,1.1c0,0.7-0.2,1.2-0.6,1.5s-1,0.5-1.8,0.5h-2.7V169h2.4
		c0.8,0,1.4,0.2,1.8,0.5s0.6,0.8,0.6,1.5c0,0.4-0.1,0.8-0.3,1S29.3,172.6,29,172.7z M26.1,172.4h1.5c1,0,1.5-0.4,1.5-1.2
		s-0.5-1.2-1.5-1.2h-1.5V172.4z M26.1,173.2v2.5h1.7c0.5,0,0.9-0.1,1.1-0.3c0.3-0.2,0.4-0.5,0.4-0.9s-0.1-0.7-0.4-0.9
		s-0.6-0.3-1.1-0.3h-1.7V173.2z"/>
	<path class="st2" d="M34.3,171.2v0.9c-0.1-0.1-0.3-0.1-0.6-0.1s-0.5,0.1-0.8,0.3c-0.2,0.2-0.4,0.4-0.5,0.7v3.6h-0.9v-5.3h0.9v0.7
		c0.1-0.2,0.3-0.4,0.5-0.6c0.2-0.2,0.5-0.2,0.8-0.2C34,171.1,34.2,171.1,34.3,171.2z"/>
	<path class="st2" d="M39.1,171.9c0.5,0.5,0.7,1.2,0.7,2s-0.2,1.5-0.7,2s-1,0.8-1.8,0.8c-0.7,0-1.3-0.3-1.8-0.8s-0.7-1.2-0.7-2
		s0.2-1.5,0.7-2s1-0.8,1.8-0.8C38.1,171.1,38.6,171.4,39.1,171.9z M38.4,175.3c0.3-0.4,0.4-0.8,0.4-1.4s-0.1-1.1-0.4-1.4
		c-0.3-0.4-0.7-0.5-1.1-0.5c-0.5,0-0.8,0.2-1.1,0.5c-0.3,0.4-0.4,0.8-0.4,1.4s0.1,1.1,0.4,1.4c0.3,0.4,0.6,0.5,1.1,0.5
		C37.8,175.9,38.2,175.7,38.4,175.3z"/>
	<path class="st2" d="M44.4,171.2l1.1,4.1l1.2-4.1h0.9l-1.6,5.3h-0.9l-1.1-4l-1.1,4H42l-1.6-5.3h0.9l1.2,4.1l1.1-4.1H44.4z"/>
	<path class="st2" d="M48.1,175.1H49c0.2,0.5,0.6,0.8,1.3,0.8c0.3,0,0.6-0.1,0.8-0.2s0.3-0.3,0.3-0.6c0-0.4-0.3-0.6-0.8-0.7
		l-1.1-0.3c-0.9-0.2-1.3-0.7-1.3-1.4c0-0.5,0.2-0.8,0.5-1.1s0.8-0.4,1.4-0.4c0.6,0,1,0.1,1.4,0.4c0.4,0.3,0.6,0.6,0.7,1.1h-0.9
		c-0.2-0.5-0.6-0.8-1.2-0.8c-0.3,0-0.5,0.1-0.7,0.2c-0.2,0.1-0.3,0.3-0.3,0.6c0,0.2,0.1,0.3,0.2,0.4c0.1,0.1,0.3,0.2,0.6,0.3l1,0.3
		c0.9,0.2,1.4,0.7,1.4,1.5c0,0.5-0.2,0.9-0.6,1.2s-0.8,0.4-1.4,0.4s-1.1-0.1-1.5-0.4C48.4,176,48.1,175.6,48.1,175.1z"/>
	<path class="st2" d="M54.3,169.2c0.1,0.1,0.2,0.2,0.2,0.4s-0.1,0.3-0.2,0.4c-0.1,0.1-0.3,0.2-0.4,0.2c-0.2,0-0.3-0.1-0.4-0.2
		c-0.1-0.1-0.2-0.2-0.2-0.4s0.1-0.3,0.2-0.4s0.2-0.2,0.4-0.2S54.2,169.1,54.3,169.2z M54.4,171.2v5.3h-0.9v-5.3H54.4z"/>
	<path class="st2" d="M56,176.5v-5.3h0.9v0.7c0.2-0.2,0.4-0.4,0.7-0.6c0.3-0.1,0.6-0.2,0.9-0.2c0.6,0,1.1,0.2,1.4,0.5
		c0.3,0.4,0.5,0.8,0.5,1.4v3.5h-0.9v-3.3c0-0.4-0.1-0.7-0.3-0.9s-0.5-0.3-0.9-0.3c-0.3,0-0.6,0.1-0.8,0.3s-0.4,0.4-0.5,0.7v3.6
		L56,176.5L56,176.5z"/>
	<path class="st2" d="M65.3,176.2v-0.4c-0.1,0.2-0.4,0.4-0.6,0.5c-0.3,0.1-0.6,0.2-0.9,0.2c-0.7,0-1.3-0.3-1.8-0.8s-0.6-1.2-0.6-1.9
		c0-0.8,0.2-1.4,0.6-1.9c0.4-0.5,1-0.8,1.8-0.8c0.3,0,0.6,0.1,0.9,0.2c0.3,0.1,0.5,0.3,0.6,0.5v-0.6h0.9v4.9c0,0.8-0.2,1.5-0.7,1.9
		c-0.4,0.4-1,0.7-1.7,0.7c-0.6,0-1.2-0.2-1.6-0.5c-0.4-0.3-0.6-0.7-0.7-1.3h0.9c0.2,0.7,0.6,1,1.4,1
		C64.9,177.9,65.3,177.4,65.3,176.2z M65.3,174.9v-2.1c-0.3-0.6-0.8-0.8-1.4-0.8c-0.5,0-0.9,0.2-1.2,0.5c-0.3,0.4-0.4,0.8-0.4,1.4
		c0,0.6,0.1,1,0.4,1.4s0.7,0.5,1.2,0.5C64.6,175.7,65,175.4,65.3,174.9z"/>
	<path class="st2" d="M70.5,176.5v-7.8h0.9v3.1c0.2-0.2,0.4-0.4,0.7-0.6c0.3-0.1,0.6-0.2,0.9-0.2c0.6,0,1.1,0.2,1.4,0.5
		c0.3,0.4,0.5,0.8,0.5,1.4v3.5H74v-3.3c0-0.4-0.1-0.7-0.3-0.9c-0.2-0.2-0.5-0.3-0.9-0.3c-0.3,0-0.6,0.1-0.8,0.3
		c-0.2,0.2-0.4,0.4-0.5,0.7v3.6H70.5z"/>
	<path class="st2" d="M77.2,169.2c0.1,0.1,0.2,0.2,0.2,0.4s-0.1,0.3-0.2,0.4c-0.1,0.1-0.3,0.2-0.4,0.2s-0.3-0.1-0.4-0.2
		c-0.1-0.1-0.2-0.2-0.2-0.4s0.1-0.3,0.2-0.4c0.1-0.1,0.2-0.2,0.4-0.2S77.1,169.1,77.2,169.2z M77.3,171.2v5.3h-0.9v-5.3H77.3z"/>
	<path class="st2" d="M78.4,175.1h0.9c0.2,0.5,0.6,0.8,1.3,0.8c0.3,0,0.6-0.1,0.8-0.2c0.2-0.1,0.3-0.3,0.3-0.6
		c0-0.4-0.3-0.6-0.8-0.7l-1.1-0.3c-0.9-0.2-1.3-0.7-1.3-1.4c0-0.5,0.2-0.8,0.5-1.1c0.4-0.3,0.8-0.4,1.4-0.4s1,0.1,1.4,0.4
		c0.4,0.3,0.6,0.6,0.7,1.1h-0.9c-0.2-0.5-0.6-0.8-1.2-0.8c-0.3,0-0.5,0.1-0.7,0.2c-0.2,0.1-0.3,0.3-0.3,0.6c0,0.2,0.1,0.3,0.2,0.4
		c0.1,0.1,0.3,0.2,0.6,0.3l1,0.3c0.9,0.2,1.4,0.7,1.4,1.5c0,0.5-0.2,0.9-0.6,1.2s-0.8,0.4-1.4,0.4s-1.1-0.1-1.5-0.4
		C78.8,176,78.5,175.6,78.4,175.1z"/>
	<path class="st2" d="M84.1,175.2V172h-0.9v-0.8h0.9v-1.4H85v1.4h1.3v0.8H85v3.1c0,0.5,0.2,0.7,0.7,0.7c0.2,0,0.5-0.1,0.7-0.2v0.8
		c-0.2,0.1-0.5,0.2-0.8,0.2c-0.4,0-0.8-0.1-1.1-0.4S84.1,175.7,84.1,175.2z"/>
	<path class="st2" d="M91.4,171.9c0.5,0.5,0.7,1.2,0.7,2s-0.2,1.5-0.7,2s-1,0.8-1.8,0.8s-1.3-0.3-1.8-0.8s-0.7-1.2-0.7-2
		s0.2-1.5,0.7-2s1-0.8,1.8-0.8S91,171.4,91.4,171.9z M90.8,175.3c0.3-0.4,0.4-0.8,0.4-1.4s-0.1-1.1-0.4-1.4s-0.7-0.5-1.1-0.5
		s-0.8,0.2-1.1,0.5c-0.3,0.4-0.4,0.8-0.4,1.4s0.1,1.1,0.4,1.4c0.3,0.4,0.7,0.5,1.1,0.5S90.5,175.7,90.8,175.3z"/>
	<path class="st2" d="M96.1,171.2v0.9c-0.1-0.1-0.3-0.1-0.6-0.1c-0.3,0-0.5,0.1-0.8,0.3c-0.2,0.2-0.4,0.4-0.5,0.7v3.6h-0.9v-5.3h0.9
		v0.7c0.1-0.2,0.3-0.4,0.5-0.6c0.2-0.2,0.5-0.2,0.8-0.2C95.8,171.1,96,171.1,96.1,171.2z"/>
	<path class="st2" d="M98.8,178.6h-0.9l0.8-2l-2.1-5.4h1l1.6,4.2l1.5-4.2h0.9L98.8,178.6z"/>
</g>
<g class="st1">
	<path class="st2" d="M27.7,223.7l2.1-3.5h1l-2.7,4.3v3h-0.9v-3l-2.7-4.3h1L27.7,223.7z"/>
	<path class="st2" d="M34.9,222.9c0.5,0.5,0.7,1.2,0.7,2s-0.2,1.5-0.7,2s-1,0.8-1.8,0.8s-1.3-0.3-1.8-0.8s-0.7-1.2-0.7-2
		s0.2-1.5,0.7-2s1-0.8,1.8-0.8S34.4,222.4,34.9,222.9z M34.2,226.3c0.3-0.4,0.4-0.8,0.4-1.4s-0.1-1.1-0.4-1.4s-0.7-0.5-1.1-0.5
		s-0.8,0.2-1.1,0.5c-0.3,0.4-0.4,0.8-0.4,1.4s0.1,1.1,0.4,1.4c0.3,0.4,0.7,0.5,1.1,0.5S33.9,226.7,34.2,226.3z"/>
	<path class="st2" d="M41,222.2v5.3h-0.9v-0.7c-0.2,0.2-0.4,0.4-0.6,0.6c-0.3,0.1-0.6,0.2-0.9,0.2c-0.6,0-1-0.2-1.4-0.5
		s-0.5-0.8-0.5-1.4v-3.5h0.9v3.3c0,0.4,0.1,0.7,0.3,0.9s0.5,0.3,0.9,0.3c0.3,0,0.6-0.1,0.8-0.3s0.4-0.4,0.5-0.7v-3.6L41,222.2
		L41,222.2z"/>
	<path class="st2" d="M45.4,222.2v0.9c-0.1-0.1-0.3-0.1-0.6-0.1s-0.5,0.1-0.8,0.3c-0.2,0.2-0.4,0.4-0.5,0.7v3.6h-0.9v-5.3h0.9v0.7
		c0.1-0.2,0.3-0.4,0.5-0.6c0.2-0.2,0.5-0.2,0.8-0.2C45.1,222.1,45.2,222.1,45.4,222.2z"/>
	<path class="st2" d="M52.6,227.5v-0.6c-0.1,0.2-0.4,0.4-0.6,0.5c-0.3,0.1-0.6,0.2-0.9,0.2c-0.8,0-1.3-0.3-1.8-0.8
		c-0.4-0.5-0.6-1.2-0.6-2s0.2-1.4,0.6-2s1-0.8,1.8-0.8c0.3,0,0.6,0.1,0.9,0.2c0.3,0.1,0.5,0.3,0.6,0.5v-3.1h0.9v7.8h-0.9V227.5z
		 M52.6,226v-2.2c-0.1-0.3-0.3-0.5-0.6-0.6c-0.2-0.2-0.5-0.2-0.8-0.2c-0.5,0-0.9,0.2-1.2,0.5c-0.3,0.4-0.4,0.8-0.4,1.4
		s0.1,1,0.4,1.4s0.7,0.5,1.2,0.5c0.3,0,0.6-0.1,0.8-0.2C52.3,226.4,52.5,226.2,52.6,226z"/>
	<path class="st2" d="M59,227.5h-0.9v-0.4c-0.1,0.1-0.3,0.2-0.6,0.3s-0.5,0.2-0.8,0.2c-0.6,0-1-0.2-1.4-0.5s-0.6-0.7-0.6-1.2
		s0.2-0.9,0.6-1.2c0.4-0.3,0.9-0.5,1.5-0.5c0.3,0,0.5,0,0.8,0.1s0.4,0.2,0.6,0.3V224c0-0.3-0.1-0.6-0.3-0.8s-0.5-0.3-0.9-0.3
		c-0.6,0-0.9,0.2-1.1,0.7H55c0.1-0.4,0.3-0.8,0.7-1.1s0.8-0.4,1.3-0.4c0.6,0,1.1,0.2,1.5,0.5s0.5,0.8,0.5,1.4V227.5z M58.1,226.2
		v-0.6c-0.1-0.2-0.2-0.3-0.5-0.5c-0.2-0.1-0.5-0.2-0.8-0.2c-0.4,0-0.7,0.1-0.9,0.2s-0.4,0.4-0.4,0.7s0.1,0.5,0.4,0.7
		s0.5,0.2,0.9,0.2c0.3,0,0.5-0.1,0.8-0.2C57.9,226.6,58.1,226.4,58.1,226.2z"/>
	<path class="st2" d="M60.8,226.2V223h-0.9v-0.8h0.9v-1.4h0.9v1.4H63v0.8h-1.3v3.1c0,0.5,0.2,0.7,0.7,0.7c0.2,0,0.5-0.1,0.7-0.2v0.8
		c-0.2,0.1-0.5,0.2-0.8,0.2c-0.4,0-0.8-0.1-1.1-0.4S60.8,226.7,60.8,226.2z"/>
	<path class="st2" d="M68.1,227.5h-0.9v-0.4c-0.1,0.1-0.3,0.2-0.6,0.3c-0.3,0.1-0.5,0.2-0.8,0.2c-0.6,0-1-0.2-1.4-0.5
		s-0.6-0.7-0.6-1.2s0.2-0.9,0.6-1.2c0.4-0.3,0.9-0.5,1.5-0.5c0.3,0,0.5,0,0.8,0.1s0.4,0.2,0.6,0.3V224c0-0.3-0.1-0.6-0.3-0.8
		s-0.5-0.3-0.9-0.3c-0.6,0-0.9,0.2-1.1,0.7h-0.9c0.1-0.4,0.3-0.8,0.7-1.1c0.4-0.3,0.8-0.4,1.3-0.4c0.6,0,1.1,0.2,1.5,0.5
		s0.5,0.8,0.5,1.4C68.1,224,68.1,227.5,68.1,227.5z M67.2,226.2v-0.6c-0.1-0.2-0.2-0.3-0.5-0.5c-0.2-0.1-0.5-0.2-0.8-0.2
		c-0.4,0-0.7,0.1-0.9,0.2s-0.4,0.4-0.4,0.7s0.1,0.5,0.4,0.7s0.5,0.2,0.9,0.2c0.3,0,0.5-0.1,0.8-0.2C67,226.6,67.1,226.4,67.2,226.2z
		"/>
	<path class="st2" d="M73.1,220.2c0.1,0.1,0.2,0.2,0.2,0.4s-0.1,0.3-0.2,0.4c-0.1,0.1-0.3,0.2-0.4,0.2c-0.2,0-0.3-0.1-0.4-0.2
		c-0.1-0.1-0.2-0.2-0.2-0.4s0.1-0.3,0.2-0.4s0.2-0.2,0.4-0.2S73,220.1,73.1,220.2z M73.2,222.2v5.3h-0.9v-5.3H73.2z"/>
	<path class="st2" d="M74.3,226.1h0.9c0.2,0.5,0.6,0.8,1.3,0.8c0.3,0,0.6-0.1,0.8-0.2s0.3-0.3,0.3-0.6c0-0.4-0.3-0.6-0.8-0.7
		l-1.1-0.3c-0.9-0.2-1.3-0.7-1.3-1.4c0-0.5,0.2-0.8,0.5-1.1s0.8-0.4,1.4-0.4s1,0.1,1.4,0.4c0.4,0.3,0.6,0.6,0.7,1.1h-0.9
		c-0.2-0.5-0.6-0.8-1.2-0.8c-0.3,0-0.5,0.1-0.7,0.2c-0.2,0.1-0.3,0.3-0.3,0.6c0,0.2,0.1,0.3,0.2,0.4c0.1,0.1,0.3,0.2,0.6,0.3l1,0.3
		c0.9,0.2,1.4,0.7,1.4,1.5c0,0.5-0.2,0.9-0.6,1.2s-0.8,0.4-1.4,0.4s-1.1-0.1-1.5-0.4C74.7,227,74.4,226.6,74.3,226.1z"/>
	<path class="st2" d="M85.8,222.2l1.1,4.1l1.2-4.1H89l-1.6,5.3h-0.9l-1.1-4l-1.1,4h-0.9l-1.6-5.3h0.9l1.2,4.1l1.1-4.1H85.8z"/>
	<path class="st2" d="M93.8,222.9c0.5,0.5,0.7,1.2,0.7,2s-0.2,1.5-0.7,2s-1,0.8-1.8,0.8c-0.7,0-1.3-0.3-1.8-0.8s-0.7-1.2-0.7-2
		s0.2-1.5,0.7-2s1-0.8,1.8-0.8C92.7,222.1,93.3,222.4,93.8,222.9z M93.1,226.3c0.3-0.4,0.4-0.8,0.4-1.4s-0.1-1.1-0.4-1.4
		c-0.3-0.4-0.7-0.5-1.1-0.5c-0.5,0-0.8,0.2-1.1,0.5c-0.3,0.4-0.4,0.8-0.4,1.4s0.1,1.1,0.4,1.4c0.3,0.4,0.6,0.5,1.1,0.5
		C92.5,226.9,92.9,226.7,93.1,226.3z"/>
	<path class="st2" d="M98.4,222.2v0.9c-0.1-0.1-0.3-0.1-0.6-0.1c-0.3,0-0.5,0.1-0.8,0.3c-0.2,0.2-0.4,0.4-0.5,0.7v3.6h-0.9v-5.3h0.9
		v0.7c0.1-0.2,0.3-0.4,0.5-0.6c0.2-0.2,0.5-0.2,0.8-0.2C98.1,222.1,98.3,222.1,98.4,222.2z"/>
	<path class="st2" d="M99.8,226.2V223h-0.9v-0.8h0.9v-1.4h0.9v1.4h1.3v0.8h-1.3v3.1c0,0.5,0.2,0.7,0.7,0.7c0.2,0,0.5-0.1,0.7-0.2
		v0.8c-0.2,0.1-0.5,0.2-0.8,0.2c-0.4,0-0.8-0.1-1.1-0.4C99.9,227,99.8,226.7,99.8,226.2z"/>
	<path class="st2" d="M103.3,227.5v-7.8h0.9v3.1c0.2-0.2,0.4-0.4,0.7-0.6c0.3-0.1,0.6-0.2,0.9-0.2c0.6,0,1.1,0.2,1.4,0.5
		c0.3,0.4,0.5,0.8,0.5,1.4v3.5h-0.9v-3.3c0-0.4-0.1-0.7-0.3-0.9c-0.2-0.2-0.5-0.3-0.9-0.3c-0.3,0-0.6,0.1-0.8,0.3
		c-0.2,0.2-0.4,0.4-0.5,0.7v3.6H103.3z"/>
</g>
<polyline class="st0" points="136.8,83.7 211.9,83.7 211.9,328.5 136.8,328.5 "/>
<g class="st1">
	<path class="st3" d="M187.5,103.4v1.1h1.8v0.7h-1.8v1.4c0,0.5-0.1,0.8-0.3,1.1h3.6v0.8h-5.1v-0.8h0.7c0.2-0.3,0.3-0.7,0.3-1.1v-1.4
		h-1v-0.7h1v-1.1c0-0.7,0.2-1.3,0.6-1.7c0.4-0.4,0.9-0.7,1.6-0.7c0.6,0,1,0.2,1.4,0.5s0.6,0.7,0.6,1.3H190c-0.1-0.6-0.5-0.9-1.2-0.9
		c-0.4,0-0.7,0.1-0.9,0.4C187.6,102.6,187.5,103,187.5,103.4z"/>
	<path class="st3" d="M194.1,108.7c-0.7,0-1.3-0.2-1.8-0.6s-0.7-0.9-0.7-1.5c0-0.5,0.1-0.9,0.4-1.2c0.3-0.3,0.6-0.6,1-0.7
		c-0.4-0.1-0.6-0.3-0.9-0.6c-0.2-0.3-0.3-0.6-0.3-1c0-0.6,0.2-1.1,0.6-1.4c0.4-0.4,1-0.5,1.6-0.5s1.2,0.2,1.6,0.5
		c0.4,0.4,0.6,0.8,0.6,1.4c0,0.4-0.1,0.7-0.3,1s-0.5,0.5-0.8,0.6c0.4,0.1,0.8,0.3,1,0.7c0.3,0.3,0.4,0.7,0.4,1.2
		c0,0.6-0.2,1.1-0.7,1.5C195.4,108.5,194.8,108.7,194.1,108.7z M194.1,107.9c0.5,0,0.9-0.1,1.2-0.4s0.4-0.6,0.4-1s-0.1-0.8-0.4-1
		c-0.3-0.3-0.7-0.4-1.2-0.4s-0.8,0.1-1.1,0.4s-0.5,0.6-0.5,1s0.2,0.8,0.5,1C193.2,107.8,193.6,107.9,194.1,107.9z M194.1,104.3
		c0.4,0,0.7-0.1,1-0.3c0.3-0.2,0.4-0.5,0.4-0.9s-0.1-0.7-0.4-0.9c-0.3-0.2-0.6-0.3-1-0.3s-0.7,0.1-1,0.3c-0.3,0.2-0.4,0.5-0.4,0.9
		s0.1,0.6,0.4,0.9C193.4,104.2,193.7,104.3,194.1,104.3z"/>
	<path class="st3" d="M197.5,108.4c-0.1-0.1-0.2-0.3-0.2-0.5s0.1-0.3,0.2-0.5s0.3-0.2,0.5-0.2s0.3,0.1,0.5,0.2s0.2,0.3,0.2,0.5
		s-0.1,0.3-0.2,0.5s-0.3,0.2-0.5,0.2S197.6,108.5,197.5,108.4z"/>
	<path class="st3" d="M203.8,107.6c-0.5,0.7-1.2,1.1-2,1.1s-1.5-0.4-2-1.1s-0.8-1.6-0.8-2.7s0.3-2,0.8-2.7s1.2-1,2-1s1.5,0.3,2,1
		s0.8,1.6,0.8,2.7S204.3,106.9,203.8,107.6z M201.8,101.9c-0.6,0-1,0.3-1.3,0.8s-0.5,1.2-0.5,2.1s0.2,1.6,0.5,2.1s0.8,0.8,1.3,0.8
		c0.6,0,1-0.3,1.3-0.8s0.5-1.2,0.5-2.1s-0.2-1.6-0.5-2.1C202.9,102.2,202.4,101.9,201.8,101.9z"/>
	<path class="st3" d="M210.3,107.6c-0.5,0.7-1.2,1.1-2,1.1s-1.5-0.4-2-1.1s-0.8-1.6-0.8-2.7s0.3-2,0.8-2.7s1.2-1,2-1s1.5,0.3,2,1
		s0.8,1.6,0.8,2.7S210.8,106.9,210.3,107.6z M208.3,101.9c-0.6,0-1,0.3-1.3,0.8s-0.5,1.2-0.5,2.1s0.2,1.6,0.5,2.1s0.8,0.8,1.3,0.8
		c0.6,0,1-0.3,1.3-0.8s0.5-1.2,0.5-2.1s-0.2-1.6-0.5-2.1C209.3,102.2,208.9,101.9,208.3,101.9z"/>
</g>
<g class="st1">
	<path class="st3" d="M188.7,120.4v1.1h1.8v0.7h-1.8v1.4c0,0.5-0.1,0.8-0.3,1.1h3.6v0.8h-5.1v-0.8h0.7c0.2-0.3,0.3-0.7,0.3-1.1v-1.4
		h-1v-0.7h1v-1.1c0-0.7,0.2-1.3,0.6-1.7c0.4-0.4,0.9-0.7,1.6-0.7c0.6,0,1,0.2,1.4,0.5s0.6,0.7,0.6,1.3h-0.9
		c-0.1-0.6-0.5-0.9-1.2-0.9c-0.4,0-0.7,0.1-0.9,0.4C188.8,119.6,188.7,120,188.7,120.4z"/>
	<path class="st3" d="M196.6,120.2c0-0.4-0.1-0.7-0.4-0.9c-0.2-0.2-0.6-0.3-1-0.3s-0.8,0.1-1,0.4s-0.4,0.6-0.4,1.1h-1
		c0.1-0.7,0.3-1.3,0.8-1.7c0.4-0.4,1-0.6,1.7-0.6s1.2,0.2,1.6,0.6c0.4,0.4,0.6,0.9,0.6,1.5c0,0.1,0,0.2,0,0.3c0,0.1-0.1,0.2-0.1,0.3
		c0,0.1-0.1,0.2-0.2,0.3s-0.1,0.2-0.2,0.3c0,0.1-0.1,0.2-0.2,0.3c-0.1,0.1-0.2,0.2-0.2,0.3c0,0-0.1,0.2-0.3,0.3
		c-0.1,0.2-0.2,0.3-0.3,0.3l-1.9,2.1h3.5v0.8h-4.8V125l2.4-2.6c0.4-0.4,0.6-0.7,0.7-0.8c0.1-0.1,0.3-0.3,0.4-0.6
		C196.5,120.6,196.6,120.4,196.6,120.2z"/>
	<path class="st3" d="M198.8,125.4c-0.1-0.1-0.2-0.3-0.2-0.5s0.1-0.3,0.2-0.5s0.3-0.2,0.5-0.2s0.3,0.1,0.5,0.2s0.2,0.3,0.2,0.5
		s-0.1,0.3-0.2,0.5s-0.3,0.2-0.5,0.2C199,125.6,198.9,125.5,198.8,125.4z"/>
	<path class="st3" d="M203,121.6c-0.5,0-1,0.2-1.3,0.6H201v-4h4v0.8h-3.2v2.2c0.3-0.3,0.8-0.5,1.3-0.5c0.7,0,1.2,0.2,1.7,0.7
		s0.6,1,0.6,1.8c0,0.7-0.2,1.3-0.7,1.7c-0.4,0.5-1,0.7-1.7,0.7s-1.3-0.2-1.7-0.6s-0.7-0.9-0.8-1.6h0.9c0.2,0.9,0.7,1.4,1.6,1.4
		c0.4,0,0.8-0.2,1.1-0.5s0.4-0.7,0.4-1.2s-0.1-0.9-0.4-1.2C203.8,121.7,203.4,121.6,203,121.6z"/>
	<path class="st3" d="M211,124.6c-0.5,0.7-1.2,1.1-2,1.1s-1.5-0.4-2-1.1s-0.8-1.6-0.8-2.7s0.3-2,0.8-2.7s1.2-1,2-1s1.5,0.3,2,1
		s0.8,1.6,0.8,2.7S211.5,123.9,211,124.6z M209,118.9c-0.6,0-1,0.3-1.3,0.8s-0.5,1.2-0.5,2.1s0.2,1.6,0.5,2.1s0.8,0.8,1.3,0.8
		c0.6,0,1-0.3,1.3-0.8s0.5-1.2,0.5-2.1s-0.2-1.6-0.5-2.1C210,119.2,209.6,118.9,209,118.9z"/>
</g>
<g class="st1">
	<path class="st3" d="M188.3,137.4v1.1h1.8v0.7h-1.8v1.4c0,0.5-0.1,0.8-0.3,1.1h3.6v0.8h-5.1v-0.8h0.7c0.2-0.3,0.3-0.7,0.3-1.1v-1.4
		h-1v-0.7h1v-1.1c0-0.7,0.2-1.3,0.6-1.7c0.4-0.4,0.9-0.7,1.6-0.7c0.6,0,1,0.2,1.4,0.5s0.6,0.7,0.6,1.3h-0.9
		c-0.1-0.6-0.5-0.9-1.2-0.9c-0.4,0-0.7,0.1-0.9,0.4S188.3,137,188.3,137.4z"/>
	<path class="st3" d="M197.1,141.6c-0.5,0.7-1.2,1.1-2,1.1s-1.5-0.4-2-1.1c-0.5-0.7-0.8-1.6-0.8-2.7s0.3-2,0.8-2.7s1.2-1,2-1
		s1.5,0.3,2,1s0.8,1.6,0.8,2.7S197.7,140.9,197.1,141.6z M195.2,135.9c-0.6,0-1,0.3-1.4,0.8c-0.3,0.5-0.5,1.2-0.5,2.1
		c0,0.9,0.2,1.6,0.5,2.1s0.8,0.8,1.4,0.8c0.6,0,1-0.3,1.3-0.8s0.5-1.2,0.5-2.1s-0.2-1.6-0.5-2.1S195.7,135.9,195.2,135.9z"/>
	<path class="st3" d="M198.6,142.4c-0.1-0.1-0.2-0.3-0.2-0.5s0.1-0.3,0.2-0.5s0.3-0.2,0.5-0.2s0.3,0.1,0.5,0.2s0.2,0.3,0.2,0.5
		s-0.1,0.3-0.2,0.5s-0.3,0.2-0.5,0.2C198.9,142.6,198.7,142.5,198.6,142.4z"/>
	<path class="st3" d="M205.2,136.9h-0.9c-0.2-0.7-0.7-1-1.4-1c-0.5,0-1,0.3-1.3,0.8s-0.5,1.2-0.5,2c0,0,0,0.1,0,0.2
		c0,0.1,0,0.1,0,0.2c0.1-0.4,0.4-0.7,0.7-0.9s0.7-0.3,1.2-0.3c0.7,0,1.3,0.2,1.7,0.7s0.7,1.1,0.7,1.7c0,0.7-0.2,1.3-0.7,1.8
		s-1.1,0.7-1.8,0.7c-1,0-1.7-0.5-2.2-1.4c-0.3-0.6-0.4-1.4-0.4-2.3c0-1.2,0.2-2.1,0.8-2.9c0.5-0.7,1.1-1.1,2-1.1
		C204.1,135.1,204.8,135.7,205.2,136.9z M201.2,140.2c0,0.5,0.1,0.9,0.4,1.2c0.3,0.3,0.7,0.5,1.2,0.5s0.8-0.2,1.1-0.5
		s0.4-0.7,0.4-1.2s-0.1-0.9-0.4-1.2c-0.3-0.3-0.7-0.5-1.1-0.5c-0.5,0-0.9,0.2-1.2,0.5C201.4,139.3,201.2,139.7,201.2,140.2z"/>
	<path class="st3" d="M208,139.2v-0.8h0.5c0.4,0,0.7-0.1,1-0.3s0.4-0.5,0.4-0.9s-0.1-0.7-0.4-0.9c-0.2-0.2-0.6-0.4-1-0.4
		s-0.7,0.1-1,0.4c-0.3,0.2-0.4,0.6-0.5,0.9h-0.9c0.1-0.6,0.3-1.1,0.8-1.5c0.4-0.4,1-0.6,1.6-0.6c0.7,0,1.2,0.2,1.6,0.6
		s0.6,0.9,0.6,1.5c0,0.4-0.1,0.8-0.3,1.1s-0.5,0.5-0.8,0.6c0.4,0.1,0.7,0.3,0.9,0.6s0.3,0.7,0.3,1.1c0,0.6-0.2,1.1-0.6,1.6
		c-0.4,0.4-1,0.6-1.7,0.6s-1.3-0.2-1.8-0.6c-0.5-0.4-0.7-0.9-0.8-1.6h0.9c0.1,0.4,0.2,0.8,0.5,1s0.6,0.4,1.1,0.4
		c0.4,0,0.8-0.1,1.1-0.4s0.4-0.6,0.4-1s-0.1-0.7-0.4-1c-0.3-0.2-0.6-0.4-1.1-0.4L208,139.2L208,139.2z"/>
</g>
<g class="st1">
	<path class="st3" d="M187.9,154.4v1.1h1.8v0.7h-1.8v1.4c0,0.5-0.1,0.8-0.3,1.1h3.6v0.8H186v-0.8h0.7c0.2-0.3,0.3-0.7,0.3-1.1v-1.4
		h-1v-0.7h1v-1.1c0-0.7,0.2-1.3,0.6-1.7c0.4-0.4,0.9-0.7,1.6-0.7c0.6,0,1,0.2,1.4,0.5s0.6,0.7,0.6,1.3h-0.9
		c-0.1-0.6-0.5-0.9-1.2-0.9c-0.4,0-0.7,0.1-0.9,0.4S187.9,154,187.9,154.4z"/>
	<path class="st3" d="M195.8,154.2c0-0.4-0.1-0.7-0.4-0.9c-0.2-0.2-0.6-0.3-1-0.3s-0.8,0.1-1,0.4c-0.2,0.3-0.4,0.6-0.4,1.1h-1
		c0.1-0.7,0.3-1.3,0.8-1.7c0.4-0.4,1-0.6,1.7-0.6s1.2,0.2,1.6,0.6c0.4,0.4,0.6,0.9,0.6,1.5c0,0.1,0,0.2,0,0.3s-0.1,0.2-0.1,0.3
		s-0.1,0.2-0.2,0.3c-0.1,0.1-0.1,0.2-0.2,0.3c0,0.1-0.1,0.2-0.2,0.3c-0.1,0.1-0.2,0.2-0.2,0.3c0,0-0.1,0.2-0.3,0.3s-0.2,0.3-0.3,0.3
		l-1.9,2.1h3.5v0.8H192V159l2.4-2.6c0.4-0.4,0.6-0.7,0.7-0.8c0.1-0.1,0.3-0.3,0.4-0.6S195.8,154.4,195.8,154.2z"/>
	<path class="st3" d="M198,159.4c-0.1-0.1-0.2-0.3-0.2-0.5s0.1-0.3,0.2-0.5s0.3-0.2,0.5-0.2s0.3,0.1,0.4,0.2s0.2,0.3,0.2,0.5
		s-0.1,0.3-0.2,0.5s-0.3,0.2-0.4,0.2C198.2,159.6,198.1,159.5,198,159.4z"/>
	<path class="st3" d="M204.3,158.6c-0.5,0.7-1.2,1.1-2,1.1s-1.5-0.4-2-1.1c-0.5-0.7-0.8-1.6-0.8-2.7s0.3-2,0.8-2.7s1.2-1,2-1
		s1.5,0.3,2,1s0.8,1.6,0.8,2.7S204.8,157.9,204.3,158.6z M202.3,152.9c-0.6,0-1,0.3-1.4,0.8c-0.3,0.5-0.5,1.2-0.5,2.1
		c0,0.9,0.2,1.6,0.5,2.1s0.8,0.8,1.4,0.8c0.6,0,1-0.3,1.3-0.8s0.5-1.2,0.5-2.1s-0.2-1.6-0.5-2.1S202.9,152.9,202.3,152.9z"/>
	<path class="st3" d="M210.7,158.6c-0.5,0.7-1.2,1.1-2,1.1s-1.5-0.4-2-1.1c-0.5-0.7-0.8-1.6-0.8-2.7s0.3-2,0.8-2.7s1.2-1,2-1
		s1.5,0.3,2,1s0.8,1.6,0.8,2.7S211.3,157.9,210.7,158.6z M208.8,152.9c-0.6,0-1,0.3-1.4,0.8c-0.3,0.5-0.5,1.2-0.5,2.1
		c0,0.9,0.2,1.6,0.5,2.1s0.8,0.8,1.4,0.8c0.6,0,1-0.3,1.3-0.8s0.5-1.2,0.5-2.1s-0.2-1.6-0.5-2.1S209.3,152.9,208.8,152.9z"/>
</g>
<g class="st1">
	<path class="st3" d="M187.8,171.4v1.1h1.8v0.7h-1.8v1.4c0,0.5-0.1,0.8-0.3,1.1h3.6v0.8H186v-0.8h0.7c0.2-0.3,0.3-0.7,0.3-1.1v-1.4
		h-1v-0.7h1v-1.1c0-0.7,0.2-1.3,0.6-1.7c0.4-0.4,0.9-0.7,1.6-0.7c0.6,0,1,0.2,1.4,0.5s0.6,0.7,0.6,1.3h-0.9
		c-0.1-0.6-0.5-0.9-1.2-0.9c-0.4,0-0.7,0.1-0.9,0.4S187.8,171,187.8,171.4z"/>
	<path class="st3" d="M193.8,173.2v-0.8h0.5c0.4,0,0.7-0.1,1-0.3s0.4-0.5,0.4-0.9s-0.1-0.7-0.4-0.9c-0.2-0.2-0.6-0.4-1-0.4
		s-0.7,0.1-1,0.4s-0.4,0.6-0.5,0.9h-0.9c0.1-0.6,0.3-1.1,0.8-1.5c0.4-0.4,1-0.6,1.6-0.6c0.7,0,1.2,0.2,1.6,0.6
		c0.4,0.4,0.6,0.9,0.6,1.5c0,0.4-0.1,0.8-0.3,1.1s-0.5,0.5-0.8,0.6c0.4,0.1,0.7,0.3,0.9,0.6s0.3,0.7,0.3,1.1c0,0.6-0.2,1.1-0.6,1.6
		c-0.4,0.4-1,0.6-1.7,0.6s-1.3-0.2-1.8-0.6c-0.5-0.4-0.7-0.9-0.8-1.6h0.9c0.1,0.4,0.2,0.8,0.5,1s0.6,0.4,1.1,0.4
		c0.4,0,0.8-0.1,1.1-0.4c0.3-0.2,0.4-0.6,0.4-1s-0.1-0.7-0.4-1c-0.3-0.2-0.6-0.4-1.1-0.4L193.8,173.2L193.8,173.2z"/>
	<path class="st3" d="M197.6,176.4c-0.1-0.1-0.2-0.3-0.2-0.5s0.1-0.3,0.2-0.5c0.1-0.1,0.3-0.2,0.5-0.2s0.3,0.1,0.4,0.2
		c0.1,0.1,0.2,0.3,0.2,0.5s-0.1,0.3-0.2,0.5c-0.1,0.1-0.3,0.2-0.4,0.2C197.8,176.6,197.7,176.5,197.6,176.4z"/>
	<path class="st3" d="M203.9,175.6c-0.5,0.7-1.2,1.1-2,1.1s-1.5-0.4-2-1.1c-0.5-0.7-0.8-1.6-0.8-2.7s0.3-2,0.8-2.7s1.2-1,2-1
		s1.5,0.3,2,1s0.8,1.6,0.8,2.7S204.4,174.9,203.9,175.6z M201.9,169.9c-0.6,0-1,0.3-1.3,0.8s-0.5,1.2-0.5,2.1c0,0.9,0.2,1.6,0.5,2.1
		s0.8,0.8,1.3,0.8c0.6,0,1-0.3,1.3-0.8s0.5-1.2,0.5-2.1s-0.2-1.6-0.5-2.1S202.5,169.9,201.9,169.9z"/>
	<path class="st3" d="M210.3,175.6c-0.5,0.7-1.2,1.1-2,1.1s-1.5-0.4-2-1.1c-0.5-0.7-0.8-1.6-0.8-2.7s0.3-2,0.8-2.7s1.2-1,2-1
		s1.5,0.3,2,1s0.8,1.6,0.8,2.7S210.9,174.9,210.3,175.6z M208.4,169.9c-0.6,0-1,0.3-1.4,0.8c-0.3,0.5-0.5,1.2-0.5,2.1
		c0,0.9,0.2,1.6,0.5,2.1s0.8,0.8,1.4,0.8c0.6,0,1-0.3,1.3-0.8s0.5-1.2,0.5-2.1s-0.2-1.6-0.5-2.1S208.9,169.9,208.4,169.9z"/>
</g>
<g class="st1">
	<path class="st3" d="M186.8,222.4v1.1h1.8v0.7h-1.8v1.4c0,0.5-0.1,0.8-0.3,1.1h3.6v0.8H185v-0.8h0.7c0.2-0.3,0.3-0.7,0.3-1.1v-1.4
		h-1v-0.7h1v-1.1c0-0.7,0.2-1.3,0.6-1.7c0.4-0.4,0.9-0.7,1.6-0.7c0.6,0,1,0.2,1.4,0.5s0.6,0.7,0.6,1.3h-0.9
		c-0.1-0.6-0.5-0.9-1.2-0.9c-0.4,0-0.7,0.1-0.9,0.4S186.8,222,186.8,222.4z"/>
	<path class="st3" d="M193.5,220.2v7.4h-0.9v-6.2l-1.8,0.9v-1l2.2-1.1L193.5,220.2L193.5,220.2z"/>
	<path class="st3" d="M199.9,221.9H199c-0.2-0.7-0.7-1-1.4-1c-0.5,0-1,0.3-1.3,0.8s-0.5,1.2-0.5,2c0,0,0,0.1,0,0.2s0,0.1,0,0.2
		c0.1-0.4,0.4-0.7,0.7-0.9s0.7-0.3,1.2-0.3c0.7,0,1.3,0.2,1.7,0.7s0.7,1.1,0.7,1.7c0,0.7-0.2,1.3-0.7,1.8s-1.1,0.7-1.8,0.7
		c-1,0-1.7-0.5-2.2-1.4c-0.3-0.6-0.4-1.4-0.4-2.3c0-1.2,0.2-2.1,0.8-2.9c0.5-0.7,1.1-1.1,1.9-1.1
		C198.8,220.1,199.5,220.7,199.9,221.9z M195.9,225.2c0,0.5,0.1,0.9,0.4,1.2c0.3,0.3,0.7,0.5,1.2,0.5s0.8-0.2,1.1-0.5
		s0.4-0.7,0.4-1.2s-0.1-0.9-0.4-1.2c-0.3-0.3-0.7-0.5-1.1-0.5c-0.5,0-0.9,0.2-1.2,0.5C196.1,224.3,195.9,224.7,195.9,225.2z"/>
	<path class="st3" d="M200.9,227.4c-0.1-0.1-0.2-0.3-0.2-0.5s0.1-0.3,0.2-0.5c0.1-0.1,0.3-0.2,0.5-0.2s0.3,0.1,0.5,0.2
		c0.1,0.1,0.2,0.3,0.2,0.5s-0.1,0.3-0.2,0.5c-0.1,0.1-0.3,0.2-0.5,0.2C201.1,227.6,201,227.5,200.9,227.4z"/>
	<path class="st3" d="M204.8,220.2v7.4h-0.9v-6.2l-1.8,0.9v-1l2.2-1.1L204.8,220.2L204.8,220.2z"/>
	<path class="st3" d="M207.9,224.2v-0.8h0.5c0.4,0,0.7-0.1,1-0.3s0.4-0.5,0.4-0.9s-0.1-0.7-0.4-0.9c-0.2-0.2-0.6-0.4-1-0.4
		s-0.7,0.1-1,0.4c-0.3,0.2-0.4,0.6-0.5,0.9H206c0.1-0.6,0.3-1.1,0.8-1.5c0.4-0.4,1-0.6,1.6-0.6c0.7,0,1.2,0.2,1.6,0.6
		s0.6,0.9,0.6,1.5c0,0.4-0.1,0.8-0.3,1.1s-0.5,0.5-0.8,0.6c0.4,0.1,0.7,0.3,0.9,0.6s0.3,0.7,0.3,1.1c0,0.6-0.2,1.1-0.6,1.6
		c-0.4,0.4-1,0.6-1.7,0.6s-1.3-0.2-1.8-0.6c-0.5-0.4-0.7-0.9-0.8-1.6h0.9c0.1,0.4,0.2,0.8,0.5,1s0.6,0.4,1.1,0.4
		c0.4,0,0.8-0.1,1.1-0.4s0.4-0.6,0.4-1s-0.1-0.7-0.4-1c-0.3-0.2-0.6-0.4-1.1-0.4L207.9,224.2L207.9,224.2z"/>
</g>
<rect x="5.9" y="7.7" class="st4" width="228" height="348"/>
<line class="st5" x1="24.3" y1="83.7" x2="213.9" y2="83.7"/>
<line class="st5" x1="24.3" y1="194.1" x2="213.9" y2="194.1"/>
<line class="st5" x1="24.3" y1="255.6" x2="213.9" y2="255.6"/>
<g id="nCCbz2_2_">
	<g>
		<path d="M74.6,323.5c-1.4,0-2.9,0-4.3,0c0-0.6-0.1-1.2-0.1-1.8c0-11.8,0-23.6,0-35.4c0-2.9,0-5.8,0.1-8.7c1.4,0,2.9,0,4.3,0
			C74.6,292.9,74.6,308.2,74.6,323.5z"/>
		<path d="M116.8,323.5c-1.3,0-2.7,0-4,0c0-15.3,0-30.6,0-45.9c1.3,0,2.7,0,4,0c0,0.5-0.1,0.9-0.1,1.4c0,14.4,0,28.8,0,43.2
			C116.7,322.6,116.8,323,116.8,323.5z"/>
		<path d="M128.8,323.5c-1.3,0-2.7,0-4,0c0-0.5,0.1-0.9,0.1-1.4c0-14.4,0-28.8,0-43.2c0-0.4-0.1-0.9-0.1-1.4c1.3,0,2.7,0,4,0
			C128.8,292.9,128.8,308.2,128.8,323.5z"/>
		<path d="M111.3,323.5c-1.3,0-2.7,0-4,0c0-0.6,0.1-1.2,0.1-1.8c0-13.3,0-26.5,0-39.8c0-1.4,0-2.8-0.1-4.3c1.3,0,2.7,0,4,0
			C111.3,292.9,111.3,308.2,111.3,323.5z"/>
		<path class="st6" d="M100.3,277.6c1.3,0,2.7,0,4,0c0,0.4-0.1,0.8-0.1,1.2c0,14.5,0,29,0,43.5c0,0.4,0.1,0.8,0.1,1.2
			c-1.3,0-2.7,0-4,0C100.3,308.2,100.3,292.9,100.3,277.6z"/>
		<path class="st6" d="M141.3,323.5c-1.3,0-2.7,0-4,0c0-0.4,0.1-0.8,0.1-1.2c0-14.5,0-29,0-43.5c0-0.4-0.1-0.8-0.1-1.2
			c1.3,0,2.7,0,4,0C141.3,292.9,141.3,308.2,141.3,323.5z"/>
		<path d="M89.9,277.6c1.3,0,2.7,0,4,0c0,0.5-0.1,0.9-0.1,1.4c0,14.4,0,28.8,0,43.2c0,0.5,0.1,0.9,0.1,1.4c-1.3,0-2.7,0-4,0
			C89.9,308.2,89.9,292.9,89.9,277.6z"/>
		<path d="M84.4,277.6c1.3,0,2.7,0,4,0c0,15.3,0,30.6,0,45.9c-1.3,0-2.7,0-4,0c0-0.6,0.1-1.2,0.1-1.8c0-13.3,0-26.5,0-39.8
			C84.5,280.4,84.4,279,84.4,277.6z"/>
		<path d="M151.7,323.5c-1.3,0-2.7,0-4,0c0-0.5,0.1-0.9,0.1-1.4c0-14.4,0-28.8,0-43.2c0-0.4-0.1-0.9-0.1-1.4c1.3,0,2.7,0,4,0
			C151.7,292.9,151.7,308.2,151.7,323.5z"/>
		<path d="M157.2,323.5c-1.3,0-2.7,0-4,0c0-0.6,0.1-1.2,0.1-1.8c0-13.3,0-26.5,0-39.8c0-1.4,0-2.8-0.1-4.3c1.3,0,2.7,0,4,0
			C157.2,292.9,157.2,308.2,157.2,323.5z"/>
		<path d="M162.7,323.5c-1.3,0-2.7,0-4,0c0-15.3,0-30.6,0-45.9c1.3,0,2.7,0,4,0c0,0.5-0.1,0.9-0.1,1.4c0,14.4,0,28.8,0,43.2
			C162.6,322.6,162.7,323,162.7,323.5z"/>
		<path class="st6" d="M128.8,323.5c0-15.3,0-30.6,0-45.9c1.2,0,2.4,0,3.7,0c0,0.5,0.1,0.9,0.1,1.4c0,14.4,0,28.8,0,43.2
			c0,0.5-0.1,0.9-0.1,1.4C131.2,323.5,130,323.5,128.8,323.5z"/>
		<path d="M164.3,277.6c1.2,0,2.4,0,3.7,0c0,0.4,0.1,0.8,0.1,1.2c0,14.5,0,29,0,43.5c0,0.4-0.1,0.8-0.1,1.2c-1.2,0-2.4,0-3.7,0
			C164.3,308.2,164.3,292.9,164.3,277.6z"/>
		<path class="st6" d="M78,277.6c1.1,0,2.2,0,3.4,0c0,0.4-0.1,0.8-0.1,1.2c0,14.5,0,29,0,43.5c0,0.4,0.1,0.8,0.1,1.2
			c-1.1,0-2.2,0-3.4,0C78,308.2,78,292.9,78,277.6z"/>
		<path class="st6" d="M167.9,323.5c0-0.4,0.1-0.8,0.1-1.2c0-14.5,0-29,0-43.5c0-0.4-0.1-0.8-0.1-1.2c0.6,0,1.2,0,1.8,0
			c0,15.3,0,30.6,0,45.9C169.2,323.5,168.5,323.5,167.9,323.5z"/>
		<path class="st6" d="M96.9,277.6c0.6,0,1.2,0,1.8,0c0,0.4-0.1,0.8-0.1,1.2c0,14.5,0,29,0,43.5c0,0.4,0.1,0.8,0.1,1.2
			c-0.6,0-1.2,0-1.8,0c0-0.6,0.1-1.2,0.1-1.8c0-11.8,0-23.6,0-35.4C97,283.4,97,280.5,96.9,277.6z"/>
		<path class="st6" d="M70.3,277.6c0,2.9-0.1,5.8-0.1,8.7c0,11.8,0,23.6,0,35.4c0,0.6,0,1.2,0.1,1.8c-0.6,0-1.2,0-1.8,0
			c0-0.4,0.1-0.8,0.1-1.2c0-14.5,0-29,0-43.5c0-0.4-0.1-0.8-0.1-1.2C69.1,277.6,69.7,277.6,70.3,277.6z"/>
		<path d="M132.4,323.5c0-0.5,0.1-0.9,0.1-1.4c0-14.4,0-28.8,0-43.2c0-0.4-0.1-0.9-0.1-1.4c0.6,0,1.2,0,1.8,0c0,15.3,0,30.6,0,45.9
			C133.7,323.5,133,323.5,132.4,323.5z"/>
		<path d="M78,277.6c0,15.3,0,30.6,0,45.9c-0.6,0-1.2,0-1.8,0c0-0.5,0.1-0.9,0.1-1.4c0-14.4,0-28.8,0-43.2c0-0.4-0.1-0.9-0.1-1.4
			C76.7,277.6,77.4,277.6,78,277.6z"/>
		<path class="st6" d="M121.7,323.5c-0.6,0-1.2,0-1.8,0c0-0.6,0.1-1.2,0.1-1.8c0-11.8,0-23.6,0-35.4c0-2.9,0-5.8-0.1-8.7
			c0.6,0,1.2,0,1.8,0c0,0.4-0.1,0.8-0.1,1.2c0,14.5,0,29,0,43.5C121.6,322.7,121.7,323.1,121.7,323.5z"/>
		<path class="st6" d="M144.7,323.5c-0.6,0-1.2,0-1.8,0c0-0.6,0.1-1.2,0.1-1.8c0-11.8,0-23.6,0-35.4c0-2.9,0-5.8-0.1-8.7
			c0.6,0,1.2,0,1.8,0c0,0.4-0.1,0.8-0.1,1.2c0,14.5,0,29,0,43.5C144.6,322.7,144.6,323.1,144.7,323.5z"/>
		<path d="M96.9,277.6c0,2.9,0.1,5.8,0.1,8.7c0,11.8,0,23.6,0,35.4c0,0.6,0,1.2-0.1,1.8c-0.5,0-1,0-1.5,0c0-15.3,0-30.6,0-45.9
			C95.9,277.6,96.4,277.6,96.9,277.6z"/>
		<path d="M98.8,323.5c0-0.4-0.1-0.8-0.1-1.2c0-14.5,0-29,0-43.5c0-0.4,0.1-0.8,0.1-1.2c0.5,0,1,0,1.5,0c0,15.3,0,30.6,0,45.9
			C99.8,323.5,99.3,323.5,98.8,323.5z"/>
		<path d="M104.3,323.5c0-0.4-0.1-0.8-0.1-1.2c0-14.5,0-29,0-43.5c0-0.4,0.1-0.8,0.1-1.2c0.5,0,1,0,1.5,0c0,15.3,0,30.6,0,45.9
			C105.3,323.5,104.8,323.5,104.3,323.5z"/>
		<path class="st6" d="M105.8,323.5c0-15.3,0-30.6,0-45.9c0.5,0,1,0,1.5,0c0,1.4,0.1,2.8,0.1,4.3c0,13.3,0,26.5,0,39.8
			c0,0.6,0,1.2-0.1,1.8C106.8,323.5,106.3,323.5,105.8,323.5z"/>
		<path class="st6" d="M111.3,323.5c0-15.3,0-30.6,0-45.9c0.5,0,1,0,1.5,0c0,15.3,0,30.6,0,45.9
			C112.3,323.5,111.8,323.5,111.3,323.5z"/>
		<path class="st6" d="M116.8,323.5c0-0.5-0.1-0.9-0.1-1.4c0-14.4,0-28.8,0-43.2c0-0.4,0.1-0.9,0.1-1.4c0.5,0,1,0,1.5,0
			c0,15.3,0,30.6,0,45.9C117.9,323.5,117.3,323.5,116.8,323.5z"/>
		<path class="st6" d="M95.4,277.6c0,15.3,0,30.6,0,45.9c-0.5,0-1,0-1.5,0c0-0.5-0.1-0.9-0.1-1.4c0-14.4,0-28.8,0-43.2
			c0-0.4,0.1-0.9,0.1-1.4C94.4,277.6,94.9,277.6,95.4,277.6z"/>
		<path class="st6" d="M88.4,323.5c0-15.3,0-30.6,0-45.9c0.5,0,1,0,1.5,0c0,15.3,0,30.6,0,45.9C89.4,323.5,88.9,323.5,88.4,323.5z"
			/>
		<path class="st6" d="M84.4,277.6c0,1.4,0.1,2.8,0.1,4.3c0,13.3,0,26.5,0,39.8c0,0.6,0,1.2-0.1,1.8c-0.5,0-1,0-1.5,0
			c0-15.3,0-30.6,0-45.9C83.4,277.6,83.9,277.6,84.4,277.6z"/>
		<path d="M82.9,277.6c0,15.3,0,30.6,0,45.9c-0.5,0-1,0-1.5,0c0-0.4-0.1-0.8-0.1-1.2c0-14.5,0-29,0-43.5c0-0.4,0.1-0.8,0.1-1.2
			C81.8,277.6,82.4,277.6,82.9,277.6z"/>
		<path class="st6" d="M76.1,277.6c0,0.5,0.1,0.9,0.1,1.4c0,14.4,0,28.8,0,43.2c0,0.5-0.1,0.9-0.1,1.4c-0.5,0-1,0-1.5,0
			c0-15.3,0-30.6,0-45.9C75.1,277.6,75.6,277.6,76.1,277.6z"/>
		<path d="M68.5,277.6c0,0.4,0.1,0.8,0.1,1.2c0,14.5,0,29,0,43.5c0,0.4-0.1,0.8-0.1,1.2c-0.5,0-1,0-1.5,0c0-15.3,0-30.6,0-45.9
			C67.5,277.6,68,277.6,68.5,277.6z"/>
		<path d="M169.8,323.5c0-15.3,0-30.6,0-45.9c0.5,0,1,0,1.5,0c0,15.3,0,30.6,0,45.9C170.8,323.5,170.3,323.5,169.8,323.5z"/>
		<path class="st6" d="M164.3,277.6c0,15.3,0,30.6,0,45.9c-0.5,0-1,0-1.5,0c0-0.5-0.1-0.9-0.1-1.4c0-14.4,0-28.8,0-43.2
			c0-0.4,0.1-0.9,0.1-1.4C163.2,277.6,163.7,277.6,164.3,277.6z"/>
		<path class="st6" d="M158.8,277.6c0,15.3,0,30.6,0,45.9c-0.5,0-1,0-1.5,0c0-15.3,0-30.6,0-45.9
			C157.7,277.6,158.2,277.6,158.8,277.6z"/>
		<path class="st6" d="M153.2,277.6c0,1.4,0.1,2.8,0.1,4.3c0,13.3,0,26.5,0,39.8c0,0.6,0,1.2-0.1,1.8c-0.5,0-1,0-1.5,0
			c0-15.3,0-30.6,0-45.9C152.2,277.6,152.7,277.6,153.2,277.6z"/>
		<path class="st6" d="M147.7,277.6c0,0.5,0.1,0.9,0.1,1.4c0,14.4,0,28.8,0,43.2c0,0.5-0.1,0.9-0.1,1.4c-0.5,0-1,0-1.5,0
			c0-15.3,0-30.6,0-45.9C146.7,277.6,147.2,277.6,147.7,277.6z"/>
		<path d="M146.2,277.6c0,15.3,0,30.6,0,45.9c-0.5,0-1,0-1.5,0c0-0.4-0.1-0.8-0.1-1.2c0-14.5,0-29,0-43.5c0-0.4,0.1-0.8,0.1-1.2
			C145.2,277.6,145.7,277.6,146.2,277.6z"/>
		<path d="M142.8,277.6c0,2.9,0.1,5.8,0.1,8.7c0,11.8,0,23.6,0,35.4c0,0.6,0,1.2-0.1,1.8c-0.5,0-1,0-1.5,0c0-15.3,0-30.6,0-45.9
			C141.8,277.6,142.3,277.6,142.8,277.6z"/>
		<path d="M137.3,277.6c0,0.4,0.1,0.8,0.1,1.2c0,14.5,0,29,0,43.5c0,0.4-0.1,0.8-0.1,1.2c-0.5,0-1,0-1.5,0c0-15.3,0-30.6,0-45.9
			C136.3,277.6,136.8,277.6,137.3,277.6z"/>
		<path class="st6" d="M135.8,277.6c0,15.3,0,30.6,0,45.9c-0.5,0-1,0-1.5,0c0-15.3,0-30.6,0-45.9
			C134.8,277.6,135.3,277.6,135.8,277.6z"/>
		<path class="st6" d="M124.8,277.6c0,0.5,0.1,0.9,0.1,1.4c0,14.4,0,28.8,0,43.2c0,0.5-0.1,0.9-0.1,1.4c-0.5,0-1,0-1.5,0
			c0-15.3,0-30.6,0-45.9C123.8,277.6,124.3,277.6,124.8,277.6z"/>
		<path d="M123.3,277.6c0,15.3,0,30.6,0,45.9c-0.5,0-1,0-1.5,0c0-0.4-0.1-0.8-0.1-1.2c0-14.5,0-29,0-43.5c0-0.4,0.1-0.8,0.1-1.2
			C122.2,277.6,122.7,277.6,123.3,277.6z"/>
		<path d="M118.4,323.5c0-15.3,0-30.6,0-45.9c0.5,0,1,0,1.5,0c0,2.9,0.1,5.8,0.1,8.7c0,11.8,0,23.6,0,35.4c0,0.6,0,1.2-0.1,1.8
			C119.4,323.5,118.9,323.5,118.4,323.5z"/>
	</g>
</g>
<polyline class="st7" points="5.6,355.2 233.4,355.2 233.4,7.7 "/>
</svg>
