<?xml version="1.0" encoding="utf-8"?>
<!-- Generator: Adobe Illustrator 19.1.0, SVG Export Plug-In . SVG Version: 6.00 Build 0)  -->
<svg version="1.1" preserveAspectRatio="xMinYMid" id="Layer_1" xmlns="http://www.w3.org/2000/svg" xmlns:xlink="http://www.w3.org/1999/xlink" x="0px" y="0px"
	 viewBox="0 0 229.8 349.8" style="enable-background:new 0 0 229.8 349.8;" xml:space="preserve">
<style type="text/css">
	.st0{fill:none;}
	.st1{fill:#1D1D1B;}
	.st2{fill:#3A50A2;}
	.st3{fill:none;stroke:#1D1D1B;stroke-width:1.8356;stroke-miterlimit:10;}
	.st4{fill:#FFFFFF;stroke:#1D1D1B;stroke-width:0.735;stroke-miterlimit:10;stroke-dasharray:5;}
	.st5{fill-rule:evenodd;clip-rule:evenodd;}
	.st6{fill-rule:evenodd;clip-rule:evenodd;fill:#FFFFFF;}
</style>
<g>
	<polyline class="st0" points="13.3,38.5 209.8,38.5 209.8,65.3 13.3,65.3 	"/>
	<path class="st1" d="M31.2,50.1c-0.8,0.8-2.1,1.2-3.4,1.2h-4.6V38.5h4.6c1.3,0,2.5,0.4,3.4,1.2c1.4,1.4,1.3,3.2,1.3,5.1
		C32.5,46.7,32.6,48.6,31.2,50.1z M29.4,41.5c-0.4-0.5-1-0.8-1.9-0.8h-1.9V49h1.9c0.9,0,1.4-0.3,1.9-0.8c0.5-0.6,0.5-1.5,0.5-3.4
		C30,42.9,29.9,42.1,29.4,41.5z"/>
	<path class="st1" d="M42.6,51.3L41.8,49h-4.6l-0.8,2.3h-2.6l4.7-12.8h2l4.7,12.8H42.6z M39.6,42.2L38,46.9h3.2L39.6,42.2z"/>
	<path class="st1" d="M51.1,40.7v10.6h-2.5V40.7h-3.3v-2.2h9.2v2.2H51.1z"/>
	<path class="st1" d="M63.1,51.3L62.3,49h-4.6L57,51.3h-2.6l4.7-12.8h2l4.7,12.8H63.1z M60.1,42.2l-1.6,4.7h3.2L60.1,42.2z"/>
	<path class="st1" d="M81.5,51.3v-7.5L79,48.7h-1.7l-2.5-4.9v7.5h-2.5V38.5h2.5l3.3,6.9l3.3-6.9H84v12.8H81.5z"/>
	<path class="st1" d="M94.7,51.3L94,49h-4.6l-0.8,2.3H86l4.7-12.8h2l4.7,12.8H94.7z M91.7,42.2l-1.6,4.7h3.2L91.7,42.2z"/>
	<path class="st1" d="M106.2,51.3l-2.5-5.1h-1.8v5.1h-2.5V38.5h5c2.6,0,4.2,1.8,4.2,3.9c0,1.8-1.1,2.9-2.3,3.4l2.9,5.5H106.2z
		 M104.2,40.7h-2.4v3.4h2.4c1.1,0,1.8-0.7,1.8-1.7S105.3,40.7,104.2,40.7z"/>
	<path class="st1" d="M119,51.3l-3.3-5.8l-1.7,2v3.9h-2.5V38.5h2.5V44l4.5-5.6h3l-4.2,5.1l4.6,7.7H119z"/>
	<path class="st1" d="M124,51.3V38.5h8.4v2.2h-5.9v3h5.1v2.2h-5.1V49h5.9v2.2H124z"/>
	<path class="st1" d="M140.2,40.7v10.6h-2.5V40.7h-3.3v-2.2h9.2v2.2H140.2z"/>
	<path class="st1" d="M151,46.5h-2.5v4.8h-2.5V38.5h5c2.6,0,4.2,1.8,4.2,4S153.7,46.5,151,46.5z M150.9,40.7h-2.3v3.5h2.3
		c1.1,0,1.9-0.7,1.9-1.7C152.8,41.4,152,40.7,150.9,40.7z"/>
	<path class="st1" d="M157.8,51.3V38.5h2.5V49h5.8v2.2H157.8z"/>
	<path class="st1" d="M175.9,51.3l-0.8-2.3h-4.6l-0.8,2.3h-2.6l4.7-12.8h2l4.7,12.8H175.9z M172.9,42.2l-1.6,4.7h3.2L172.9,42.2z"/>
	<path class="st1" d="M184.7,51.4c-1.4,0-2.5-0.5-3.5-1.4c-0.6-0.6-0.9-1.2-1-1.9c-0.1-0.7-0.2-1.8-0.2-3.2c0-1.4,0.1-2.5,0.2-3.2
		c0.1-0.7,0.5-1.4,1-1.9c0.9-0.9,2.1-1.4,3.5-1.4c2.5,0,4.3,1.4,4.7,4.1h-2.5c-0.3-1.1-1-1.8-2.2-1.8c-0.7,0-1.2,0.2-1.6,0.7
		c-0.5,0.6-0.6,1.1-0.6,3.6c0,2.5,0.1,3.1,0.6,3.6c0.4,0.5,0.9,0.7,1.6,0.7c1.2,0,1.9-0.7,2.2-1.8h2.5
		C188.9,49.9,187.1,51.4,184.7,51.4z"/>
	<path class="st1" d="M192,51.3V38.5h8.4v2.2h-5.9v3h5.1v2.2h-5.1V49h5.9v2.2H192z"/>
</g>
<g>
	<polyline class="st0" points="19.3,77 197.4,77 197.4,321.7 19.3,321.7 	"/>
	<path class="st1" d="M20.3,102.5V94h1.7v7.1h3.9v1.5H20.3z"/>
	<path class="st1" d="M31.4,101.8c-0.4,0.4-1,0.8-1.9,0.8c-0.9,0-1.5-0.4-1.9-0.8c-0.6-0.6-0.7-1.3-0.7-2.4c0-1.1,0.1-1.8,0.7-2.4
		c0.4-0.4,1-0.8,1.9-0.8c0.9,0,1.6,0.4,1.9,0.8c0.6,0.6,0.7,1.3,0.7,2.4C32.1,100.5,31.9,101.2,31.4,101.8z M30.2,97.9
		c-0.2-0.2-0.4-0.3-0.7-0.3c-0.3,0-0.5,0.1-0.7,0.3c-0.3,0.3-0.4,0.9-0.4,1.5c0,0.6,0,1.2,0.4,1.5c0.2,0.2,0.4,0.3,0.7,0.3
		c0.3,0,0.6-0.1,0.7-0.3c0.3-0.3,0.4-0.9,0.4-1.5C30.5,98.7,30.5,98.2,30.2,97.9z"/>
	<path class="st1" d="M36,102.6c-1.2,0-2.8-0.7-2.8-3.2s1.5-3.2,2.8-3.2c0.9,0,1.5,0.3,2.1,0.8l-1.1,1.1c-0.3-0.3-0.6-0.5-1-0.5
		c-0.4,0-0.7,0.1-0.9,0.4c-0.2,0.3-0.3,0.7-0.3,1.4s0.1,1.1,0.3,1.4c0.2,0.3,0.5,0.4,0.9,0.4c0.4,0,0.7-0.1,1-0.5l1.1,1
		C37.6,102.3,36.9,102.6,36,102.6z"/>
	<path class="st1" d="M42.5,102.5V102c-0.4,0.4-0.8,0.6-1.5,0.6c-0.7,0-1.2-0.2-1.6-0.6c-0.3-0.3-0.5-0.9-0.5-1.4
		c0-1,0.7-1.8,2.1-1.8h1.5v-0.3c0-0.7-0.3-1-1.2-1c-0.6,0-0.9,0.1-1.2,0.5l-1-1c0.6-0.7,1.2-0.9,2.3-0.9c1.8,0,2.7,0.7,2.7,2.2v4.1
		H42.5z M42.4,99.9h-1.2c-0.6,0-0.9,0.3-0.9,0.7c0,0.4,0.3,0.7,0.9,0.7c0.4,0,0.7,0,1-0.3c0.2-0.2,0.2-0.4,0.2-0.8V99.9z"/>
	<path class="st1" d="M47.6,102.5c-1.3,0-1.8-0.9-1.8-1.8v-3.1h-0.7v-1.2h0.7v-1.8h1.6v1.8h1.1v1.2h-1.1v3c0,0.4,0.2,0.6,0.5,0.6
		h0.6v1.3H47.6z"/>
	<path class="st1" d="M49.9,95.2v-1.3h1.6v1.3H49.9z M49.9,102.5v-6.2h1.6v6.2H49.9z"/>
	<path class="st1" d="M57.5,101.8c-0.4,0.4-1,0.8-1.9,0.8c-0.9,0-1.5-0.4-1.9-0.8c-0.6-0.6-0.7-1.3-0.7-2.4c0-1.1,0.1-1.8,0.7-2.4
		c0.4-0.4,1-0.8,1.9-0.8c0.9,0,1.6,0.4,1.9,0.8c0.6,0.6,0.7,1.3,0.7,2.4C58.2,100.5,58.1,101.2,57.5,101.8z M56.3,97.9
		c-0.2-0.2-0.4-0.3-0.7-0.3c-0.3,0-0.5,0.1-0.7,0.3c-0.3,0.3-0.4,0.9-0.4,1.5c0,0.6,0,1.2,0.4,1.5c0.2,0.2,0.4,0.3,0.7,0.3
		c0.3,0,0.6-0.1,0.7-0.3c0.3-0.3,0.4-0.9,0.4-1.5C56.7,98.7,56.6,98.2,56.3,97.9z"/>
	<path class="st1" d="M63.4,102.5v-3.8c0-0.9-0.5-1.1-1-1.1c-0.5,0-1,0.3-1,1.1v3.8h-1.6v-6.2h1.5v0.6c0.4-0.4,1-0.6,1.6-0.6
		c0.6,0,1.1,0.2,1.5,0.6c0.5,0.5,0.6,1.1,0.6,1.8v4H63.4z"/>
	<path class="st1" d="M72.8,102.5v-0.6c-0.4,0.5-0.9,0.7-1.5,0.7c-0.6,0-1.2-0.2-1.5-0.6c-0.6-0.6-0.6-1.7-0.6-2.6s0-2,0.6-2.6
		c0.3-0.3,0.9-0.6,1.5-0.6c0.6,0,1.1,0.2,1.5,0.6V94h1.6v8.5H72.8z M71.7,97.6c-0.9,0-1.1,0.8-1.1,1.8s0.1,1.8,1.1,1.8
		s1.1-0.8,1.1-1.8S72.7,97.6,71.7,97.6z"/>
	<path class="st1" d="M79.3,102.5V102c-0.4,0.4-0.8,0.6-1.5,0.6c-0.7,0-1.2-0.2-1.6-0.6c-0.3-0.3-0.5-0.9-0.5-1.4
		c0-1,0.7-1.8,2.1-1.8h1.5v-0.3c0-0.7-0.3-1-1.2-1c-0.6,0-0.9,0.1-1.2,0.5l-1-1c0.6-0.7,1.2-0.9,2.3-0.9c1.8,0,2.7,0.7,2.7,2.2v4.1
		H79.3z M79.3,99.9H78c-0.6,0-0.9,0.3-0.9,0.7c0,0.4,0.3,0.7,0.9,0.7c0.4,0,0.7,0,1-0.3c0.2-0.2,0.2-0.4,0.2-0.8V99.9z"/>
	<path class="st1" d="M84.5,102.5c-1.3,0-1.8-0.9-1.8-1.8v-3.1H82v-1.2h0.7v-1.8h1.6v1.8h1.1v1.2h-1.1v3c0,0.4,0.2,0.6,0.5,0.6h0.6
		v1.3H84.5z"/>
	<path class="st1" d="M89.9,102.5V102c-0.4,0.4-0.8,0.6-1.5,0.6c-0.7,0-1.2-0.2-1.6-0.6c-0.3-0.3-0.5-0.9-0.5-1.4
		c0-1,0.7-1.8,2.1-1.8h1.5v-0.3c0-0.7-0.3-1-1.2-1c-0.6,0-0.9,0.1-1.2,0.5l-1-1c0.6-0.7,1.2-0.9,2.3-0.9c1.8,0,2.7,0.7,2.7,2.2v4.1
		H89.9z M89.9,99.9h-1.2c-0.6,0-0.9,0.3-0.9,0.7c0,0.4,0.3,0.7,0.9,0.7c0.4,0,0.7,0,1-0.3c0.2-0.2,0.2-0.4,0.2-0.8V99.9z"/>
	<path class="st1" d="M24.8,119.5v-3.6h-2.9v3.6h-1.7V111h1.7v3.5h2.9V111h1.7v8.5H24.8z"/>
	<path class="st1" d="M29.6,116.9c0,0.8,0.5,1.4,1.4,1.4c0.7,0,1-0.2,1.4-0.6l0.9,0.9c-0.6,0.6-1.2,1-2.4,1c-1.5,0-2.9-0.7-2.9-3.2
		c0-2,1.1-3.2,2.7-3.2c1.7,0,2.7,1.3,2.7,3v0.7H29.6z M31.8,115.1c-0.2-0.4-0.5-0.6-1-0.6s-0.9,0.3-1,0.6c-0.1,0.2-0.1,0.4-0.1,0.7
		H32C32,115.5,31.9,115.4,31.8,115.1z"/>
	<path class="st1" d="M38.1,119.5V119c-0.4,0.4-0.8,0.6-1.5,0.6c-0.7,0-1.2-0.2-1.6-0.6c-0.3-0.3-0.5-0.9-0.5-1.4
		c0-1,0.7-1.8,2.1-1.8h1.5v-0.3c0-0.7-0.3-1-1.2-1c-0.6,0-0.9,0.1-1.2,0.5l-1-1c0.6-0.7,1.2-0.9,2.3-0.9c1.8,0,2.7,0.7,2.7,2.2v4.1
		H38.1z M38.1,116.9h-1.2c-0.6,0-0.9,0.3-0.9,0.7c0,0.4,0.3,0.7,0.9,0.7c0.4,0,0.7,0,1-0.3c0.2-0.2,0.2-0.4,0.2-0.8V116.9z"/>
	<path class="st1" d="M43.3,119.5c-1.3,0-1.8-0.9-1.8-1.8v-3.1h-0.7v-1.2h0.7v-1.8h1.6v1.8h1.1v1.2h-1.1v3c0,0.4,0.2,0.6,0.5,0.6
		h0.6v1.3H43.3z"/>
	<path class="st1" d="M45.6,112.2v-1.3h1.6v1.3H45.6z M45.6,119.5v-6.2h1.6v6.2H45.6z"/>
	<path class="st1" d="M52.5,119.5v-3.8c0-0.9-0.5-1.1-1-1.1c-0.5,0-1,0.3-1,1.1v3.8h-1.6v-6.2h1.5v0.6c0.4-0.4,1-0.6,1.6-0.6
		c0.6,0,1.1,0.2,1.5,0.6c0.5,0.5,0.6,1.1,0.6,1.8v4H52.5z"/>
	<path class="st1" d="M57.9,121.9c-1,0-1.6-0.2-2.3-0.8l1-1c0.3,0.3,0.7,0.5,1.2,0.5c0.9,0,1.3-0.7,1.3-1.3v-0.6
		c-0.4,0.5-0.9,0.6-1.5,0.6s-1.1-0.2-1.5-0.6c-0.6-0.6-0.6-1.4-0.6-2.5s0-1.9,0.6-2.5c0.3-0.3,0.9-0.6,1.5-0.6
		c0.7,0,1.1,0.2,1.5,0.7v-0.6h1.5v6C60.7,120.8,59.6,121.9,57.9,121.9z M58.1,114.6c-0.9,0-1,0.8-1,1.6s0.1,1.6,1,1.6
		c0.9,0,1-0.8,1-1.6S59,114.6,58.1,114.6z"/>
	<path class="st1" d="M65.2,112.2v-1.3h1.6v1.3H65.2z M65.2,119.5v-6.2h1.6v6.2H65.2z"/>
	<path class="st1" d="M72.1,119.5v-3.8c0-0.9-0.5-1.1-1-1.1c-0.5,0-1,0.3-1,1.1v3.8h-1.6v-6.2H70v0.6c0.4-0.4,1-0.6,1.6-0.6
		c0.6,0,1.1,0.2,1.5,0.6c0.5,0.5,0.6,1.1,0.6,1.8v4H72.1z"/>
	<path class="st1" d="M77.1,114.6v4.9h-1.6v-4.9h-0.6v-1.2h0.6v-0.8c0-0.9,0.6-1.8,1.8-1.8h0.9v1.3h-0.6c-0.4,0-0.5,0.2-0.5,0.6v0.7
		h1.2v1.2H77.1z"/>
	<path class="st1" d="M83.6,118.8c-0.4,0.4-1,0.8-1.9,0.8c-0.9,0-1.5-0.4-1.9-0.8c-0.6-0.6-0.7-1.3-0.7-2.4c0-1.1,0.1-1.8,0.7-2.4
		c0.4-0.4,1-0.8,1.9-0.8c0.9,0,1.6,0.4,1.9,0.8c0.6,0.6,0.7,1.3,0.7,2.4C84.3,117.5,84.2,118.2,83.6,118.8z M82.4,114.9
		c-0.2-0.2-0.4-0.3-0.7-0.3c-0.3,0-0.5,0.1-0.7,0.3c-0.3,0.3-0.4,0.9-0.4,1.5c0,0.6,0,1.2,0.4,1.5c0.2,0.2,0.4,0.3,0.7,0.3
		c0.3,0,0.6-0.1,0.7-0.3c0.3-0.3,0.4-0.9,0.4-1.5C82.7,115.7,82.7,115.2,82.4,114.9z"/>
	<path class="st1" d="M89.2,115c-0.2-0.2-0.4-0.4-0.8-0.4c-0.5,0-1,0.4-1,1.2v3.8h-1.6v-6.2h1.5v0.6c0.3-0.4,0.9-0.7,1.6-0.7
		c0.6,0,1,0.2,1.5,0.6L89.2,115z"/>
	<path class="st1" d="M98.5,119.5v-3.8c0-0.9-0.5-1.1-1-1.1c-0.5,0-1,0.3-1,1.1v3.8h-1.6v-3.8c0-0.9-0.5-1.1-1-1.1
		c-0.5,0-1,0.3-1,1.1v3.8h-1.6v-6.2h1.5v0.6c0.4-0.4,1-0.6,1.6-0.6c0.7,0,1.3,0.3,1.7,0.8c0.5-0.6,1.1-0.8,1.9-0.8
		c0.6,0,1.2,0.2,1.5,0.6c0.5,0.5,0.7,1.1,0.7,1.8v4H98.5z"/>
	<path class="st1" d="M105,119.5V119c-0.4,0.4-0.8,0.6-1.5,0.6c-0.7,0-1.2-0.2-1.6-0.6c-0.3-0.3-0.5-0.9-0.5-1.4
		c0-1,0.7-1.8,2.1-1.8h1.5v-0.3c0-0.7-0.3-1-1.2-1c-0.6,0-0.9,0.1-1.2,0.5l-1-1c0.6-0.7,1.2-0.9,2.3-0.9c1.8,0,2.7,0.7,2.7,2.2v4.1
		H105z M104.9,116.9h-1.2c-0.6,0-0.9,0.3-0.9,0.7c0,0.4,0.3,0.7,0.9,0.7c0.4,0,0.7,0,1-0.3c0.2-0.2,0.2-0.4,0.2-0.8V116.9z"/>
	<path class="st1" d="M110.1,119.5c-1.3,0-1.8-0.9-1.8-1.8v-3.1h-0.7v-1.2h0.7v-1.8h1.6v1.8h1.1v1.2h-1.1v3c0,0.4,0.2,0.6,0.5,0.6
		h0.6v1.3H110.1z"/>
	<path class="st1" d="M112.4,112.2v-1.3h1.6v1.3H112.4z M112.4,119.5v-6.2h1.6v6.2H112.4z"/>
	<path class="st1" d="M120,118.8c-0.4,0.4-1,0.8-1.9,0.8c-0.9,0-1.5-0.4-1.9-0.8c-0.6-0.6-0.7-1.3-0.7-2.4c0-1.1,0.1-1.8,0.7-2.4
		c0.4-0.4,1-0.8,1.9-0.8c0.9,0,1.6,0.4,1.9,0.8c0.6,0.6,0.7,1.3,0.7,2.4C120.7,117.5,120.6,118.2,120,118.8z M118.8,114.9
		c-0.2-0.2-0.4-0.3-0.7-0.3c-0.3,0-0.5,0.1-0.7,0.3c-0.3,0.3-0.4,0.9-0.4,1.5c0,0.6,0,1.2,0.4,1.5c0.2,0.2,0.4,0.3,0.7,0.3
		c0.3,0,0.6-0.1,0.7-0.3c0.3-0.3,0.4-0.9,0.4-1.5C119.2,115.7,119.1,115.2,118.8,114.9z"/>
	<path class="st1" d="M125.9,119.5v-3.8c0-0.9-0.5-1.1-1-1.1c-0.5,0-1,0.3-1,1.1v3.8h-1.6v-6.2h1.5v0.6c0.4-0.4,1-0.6,1.6-0.6
		c0.6,0,1.1,0.2,1.5,0.6c0.5,0.5,0.6,1.1,0.6,1.8v4H125.9z"/>
	<path class="st1" d="M21.9,129.5v2.1h3.4v1.5h-3.4v3.5h-1.7V128h5.6v1.5H21.9z"/>
	<path class="st1" d="M30,136.5V136c-0.4,0.4-0.8,0.6-1.5,0.6c-0.7,0-1.2-0.2-1.6-0.6c-0.3-0.3-0.5-0.9-0.5-1.4c0-1,0.7-1.8,2.1-1.8
		H30v-0.3c0-0.7-0.3-1-1.2-1c-0.6,0-0.9,0.1-1.2,0.5l-1-1c0.6-0.7,1.2-0.9,2.3-0.9c1.8,0,2.7,0.7,2.7,2.2v4.1H30z M30,133.9h-1.2
		c-0.6,0-0.9,0.3-0.9,0.7c0,0.4,0.3,0.7,0.9,0.7c0.4,0,0.7,0,1-0.3c0.2-0.2,0.2-0.4,0.2-0.8V133.9z"/>
	<path class="st1" d="M35.7,136.6c-1.2,0-2.8-0.7-2.8-3.2s1.5-3.2,2.8-3.2c0.9,0,1.5,0.3,2.1,0.8l-1.1,1.1c-0.3-0.3-0.6-0.5-1-0.5
		c-0.4,0-0.7,0.1-0.9,0.4c-0.2,0.3-0.3,0.7-0.3,1.4s0.1,1.1,0.3,1.4c0.2,0.3,0.5,0.4,0.9,0.4c0.4,0,0.7-0.1,1-0.5l1.1,1
		C37.2,136.3,36.6,136.6,35.7,136.6z"/>
	<path class="st1" d="M40,133.9c0,0.8,0.5,1.4,1.4,1.4c0.7,0,1-0.2,1.4-0.6l0.9,0.9c-0.6,0.6-1.2,1-2.4,1c-1.5,0-2.9-0.7-2.9-3.2
		c0-2,1.1-3.2,2.7-3.2c1.7,0,2.7,1.3,2.7,3v0.7H40z M42.2,132.1c-0.2-0.4-0.5-0.6-1-0.6s-0.9,0.3-1,0.6c-0.1,0.2-0.1,0.4-0.1,0.7
		h2.4C42.4,132.5,42.3,132.4,42.2,132.1z"/>
	<path class="st1" d="M50,136c-0.3,0.3-0.9,0.6-1.5,0.6c-0.7,0-1.1-0.2-1.6-0.7v0.6h-1.5V128h1.6v2.8c0.4-0.5,0.9-0.6,1.5-0.6
		c0.6,0,1.2,0.2,1.5,0.6c0.6,0.6,0.6,1.7,0.6,2.6S50.6,135.4,50,136z M48,131.6c-0.9,0-1.1,0.8-1.1,1.8s0.1,1.8,1.1,1.8
		s1.1-0.8,1.1-1.8S48.9,131.6,48,131.6z"/>
	<path class="st1" d="M56.4,135.8c-0.4,0.4-1,0.8-1.9,0.8c-0.9,0-1.5-0.4-1.9-0.8c-0.6-0.6-0.7-1.3-0.7-2.4c0-1.1,0.1-1.8,0.7-2.4
		c0.4-0.4,1-0.8,1.9-0.8c0.9,0,1.6,0.4,1.9,0.8c0.6,0.6,0.7,1.3,0.7,2.4C57.1,134.5,57,135.2,56.4,135.8z M55.2,131.9
		c-0.2-0.2-0.4-0.3-0.7-0.3c-0.3,0-0.5,0.1-0.7,0.3c-0.3,0.3-0.4,0.9-0.4,1.5c0,0.6,0,1.2,0.4,1.5c0.2,0.2,0.4,0.3,0.7,0.3
		c0.3,0,0.6-0.1,0.7-0.3c0.3-0.3,0.4-0.9,0.4-1.5C55.5,132.7,55.5,132.2,55.2,131.9z"/>
	<path class="st1" d="M62.9,135.8c-0.4,0.4-1,0.8-1.9,0.8c-0.9,0-1.5-0.4-1.9-0.8c-0.6-0.6-0.7-1.3-0.7-2.4c0-1.1,0.1-1.8,0.7-2.4
		c0.4-0.4,1-0.8,1.9-0.8c0.9,0,1.6,0.4,1.9,0.8c0.6,0.6,0.7,1.3,0.7,2.4C63.6,134.5,63.5,135.2,62.9,135.8z M61.7,131.9
		c-0.2-0.2-0.4-0.3-0.7-0.3c-0.3,0-0.5,0.1-0.7,0.3c-0.3,0.3-0.4,0.9-0.4,1.5c0,0.6,0,1.2,0.4,1.5c0.2,0.2,0.4,0.3,0.7,0.3
		c0.3,0,0.6-0.1,0.7-0.3c0.3-0.3,0.4-0.9,0.4-1.5C62.1,132.7,62,132.2,61.7,131.9z"/>
	<path class="st1" d="M68.9,136.5l-1.5-2.6l-0.7,0.7v1.9h-1.6V128h1.6v4.8l2.1-2.6h1.9l-2.2,2.5l2.4,3.7H68.9z"/>
	<path class="st1" d="M23.1,153.6c-0.9,0-1.7-0.3-2.3-0.9c-0.4-0.4-0.6-0.8-0.7-1.3c-0.1-0.5-0.1-1.2-0.1-2.1s0-1.6,0.1-2.1
		c0.1-0.5,0.3-0.9,0.7-1.3c0.6-0.6,1.4-0.9,2.3-0.9c1.6,0,2.9,1,3.1,2.7h-1.7c-0.2-0.7-0.6-1.2-1.4-1.2c-0.5,0-0.8,0.1-1.1,0.4
		c-0.3,0.4-0.4,0.8-0.4,2.4c0,1.7,0.1,2,0.4,2.4c0.3,0.3,0.6,0.4,1.1,0.4c0.8,0,1.3-0.5,1.4-1.2h1.7C26,152.6,24.8,153.6,23.1,153.6
		z"/>
	<path class="st1" d="M31.9,152.8c-0.4,0.4-1,0.8-1.9,0.8c-0.9,0-1.5-0.4-1.9-0.8c-0.6-0.6-0.7-1.3-0.7-2.4c0-1.1,0.1-1.8,0.7-2.4
		c0.4-0.4,1-0.8,1.9-0.8c0.9,0,1.6,0.4,1.9,0.8c0.6,0.6,0.7,1.3,0.7,2.4C32.6,151.5,32.5,152.2,31.9,152.8z M30.7,148.9
		c-0.2-0.2-0.4-0.3-0.7-0.3c-0.3,0-0.5,0.1-0.7,0.3c-0.3,0.3-0.4,0.9-0.4,1.5c0,0.6,0,1.2,0.4,1.5c0.2,0.2,0.4,0.3,0.7,0.3
		c0.3,0,0.6-0.1,0.7-0.3c0.3-0.3,0.4-0.9,0.4-1.5C31.1,149.7,31,149.2,30.7,148.9z"/>
	<path class="st1" d="M37.7,153.5v-3.8c0-0.9-0.5-1.1-1-1.1c-0.5,0-1,0.3-1,1.1v3.8h-1.6v-6.2h1.5v0.6c0.4-0.4,1-0.6,1.6-0.6
		c0.6,0,1.1,0.2,1.5,0.6c0.5,0.5,0.6,1.1,0.6,1.8v4H37.7z"/>
	<path class="st1" d="M42.9,153.5c-1.3,0-1.8-0.9-1.8-1.8v-3.1h-0.7v-1.2h0.7v-1.8h1.6v1.8h1.1v1.2h-1.1v3c0,0.4,0.2,0.6,0.5,0.6
		h0.6v1.3H42.9z"/>
	<path class="st1" d="M48.4,153.5V153c-0.4,0.4-0.8,0.6-1.5,0.6c-0.7,0-1.2-0.2-1.6-0.6c-0.3-0.3-0.5-0.9-0.5-1.4
		c0-1,0.7-1.8,2.1-1.8h1.5v-0.3c0-0.7-0.3-1-1.2-1c-0.6,0-0.9,0.1-1.2,0.5l-1-1c0.6-0.7,1.2-0.9,2.3-0.9c1.8,0,2.7,0.7,2.7,2.2v4.1
		H48.4z M48.3,150.9h-1.2c-0.6,0-0.9,0.3-0.9,0.7c0,0.4,0.3,0.7,0.9,0.7c0.4,0,0.7,0,1-0.3c0.2-0.2,0.2-0.4,0.2-0.8V150.9z"/>
	<path class="st1" d="M54.1,153.6c-1.2,0-2.8-0.7-2.8-3.2s1.5-3.2,2.8-3.2c0.9,0,1.5,0.3,2.1,0.8l-1.1,1.1c-0.3-0.3-0.6-0.5-1-0.5
		c-0.4,0-0.7,0.1-0.9,0.4c-0.2,0.3-0.3,0.7-0.3,1.4s0.1,1.1,0.3,1.4c0.2,0.3,0.5,0.4,0.9,0.4c0.4,0,0.7-0.1,1-0.5l1.1,1
		C55.6,153.3,54.9,153.6,54.1,153.6z"/>
	<path class="st1" d="M59.3,153.5c-1.3,0-1.8-0.9-1.8-1.8v-3.1h-0.7v-1.2h0.7v-1.8H59v1.8h1.1v1.2H59v3c0,0.4,0.2,0.6,0.5,0.6h0.6
		v1.3H59.3z"/>
	<path class="st1" d="M63.6,153.6c-1,0-1.9-0.1-2.7-0.9l1-1c0.5,0.5,1.2,0.6,1.7,0.6c0.5,0,1.1-0.2,1.1-0.6c0-0.3-0.2-0.5-0.7-0.6
		l-1-0.1c-1.1-0.1-1.8-0.6-1.8-1.8c0-1.3,1.1-2,2.4-2c1,0,1.8,0.2,2.4,0.7l-1,1c-0.4-0.3-0.9-0.4-1.5-0.4c-0.6,0-0.9,0.3-0.9,0.6
		c0,0.2,0.1,0.5,0.6,0.5l1,0.1c1.2,0.1,1.9,0.8,1.9,1.8C66.3,152.9,65.1,153.6,63.6,153.6z"/>
	<path class="st1" d="M23.8,170.5h-3.6V162h3.4c1.7,0,2.6,0.9,2.6,2.4c0,0.9-0.6,1.6-1.1,1.8c0.5,0.2,1.2,0.8,1.2,1.9
		C26.5,169.6,25.4,170.5,23.8,170.5z M23.6,163.5h-1.6v2h1.6c0.7,0,1.1-0.4,1.1-1C24.7,163.8,24.3,163.5,23.6,163.5z M23.7,166.9
		h-1.7v2.1h1.7c0.8,0,1.1-0.5,1.1-1.1S24.4,166.9,23.7,166.9z"/>
	<path class="st1" d="M31.4,166c-0.2-0.2-0.4-0.4-0.8-0.4c-0.5,0-1,0.4-1,1.2v3.8H28v-6.2h1.5v0.6c0.3-0.4,0.9-0.7,1.6-0.7
		c0.6,0,1,0.2,1.5,0.6L31.4,166z"/>
	<path class="st1" d="M37.4,169.8c-0.4,0.4-1,0.8-1.9,0.8c-0.9,0-1.5-0.4-1.9-0.8c-0.6-0.6-0.7-1.3-0.7-2.4c0-1.1,0.1-1.8,0.7-2.4
		c0.4-0.4,1-0.8,1.9-0.8c0.9,0,1.6,0.4,1.9,0.8c0.6,0.6,0.7,1.3,0.7,2.4C38.2,168.5,38,169.2,37.4,169.8z M36.2,165.9
		c-0.2-0.2-0.4-0.3-0.7-0.3c-0.3,0-0.5,0.1-0.7,0.3c-0.3,0.3-0.4,0.9-0.4,1.5c0,0.6,0,1.2,0.4,1.5c0.2,0.2,0.4,0.3,0.7,0.3
		c0.3,0,0.6-0.1,0.7-0.3c0.3-0.3,0.4-0.9,0.4-1.5C36.6,166.7,36.6,166.2,36.2,165.9z"/>
	<path class="st1" d="M45.8,170.5h-1.3l-1.3-3.9l-1.3,3.9h-1.3l-1.9-6.2h1.7l1,3.9l1.3-3.9h1.1l1.3,3.9l1-3.9h1.6L45.8,170.5z"/>
	<path class="st1" d="M50.7,170.6c-1,0-1.9-0.1-2.7-0.9l1-1c0.5,0.5,1.2,0.6,1.7,0.6c0.5,0,1.1-0.2,1.1-0.6c0-0.3-0.2-0.5-0.7-0.6
		l-1-0.1c-1.1-0.1-1.8-0.6-1.8-1.8c0-1.3,1.1-2,2.4-2c1,0,1.8,0.2,2.4,0.7l-1,1c-0.4-0.3-0.9-0.4-1.5-0.4c-0.6,0-0.9,0.3-0.9,0.6
		c0,0.2,0.1,0.5,0.6,0.5l1,0.1c1.2,0.1,1.9,0.8,1.9,1.8C53.4,169.9,52.2,170.6,50.7,170.6z"/>
	<path class="st1" d="M54.6,163.2v-1.3h1.6v1.3H54.6z M54.7,170.5v-6.2h1.6v6.2H54.7z"/>
	<path class="st1" d="M61.6,170.5v-3.8c0-0.9-0.5-1.1-1-1.1c-0.5,0-1,0.3-1,1.1v3.8H58v-6.2h1.5v0.6c0.4-0.4,1-0.6,1.6-0.6
		c0.6,0,1.1,0.2,1.5,0.6c0.5,0.5,0.6,1.1,0.6,1.8v4H61.6z"/>
	<path class="st1" d="M67,172.9c-1,0-1.6-0.2-2.3-0.8l1-1c0.3,0.3,0.7,0.5,1.2,0.5c0.9,0,1.3-0.7,1.3-1.3v-0.6
		c-0.4,0.5-0.9,0.6-1.5,0.6s-1.1-0.2-1.5-0.6c-0.6-0.6-0.6-1.4-0.6-2.5s0-1.9,0.6-2.5c0.3-0.3,0.9-0.6,1.5-0.6
		c0.7,0,1.1,0.2,1.5,0.7v-0.6h1.5v6C69.8,171.8,68.7,172.9,67,172.9z M67.2,165.6c-0.9,0-1,0.8-1,1.6s0.1,1.6,1,1.6
		c0.9,0,1-0.8,1-1.6S68.1,165.6,67.2,165.6z"/>
	<path class="st1" d="M77.9,170.5v-3.8c0-0.8-0.5-1.1-1-1.1c-0.5,0-1,0.3-1,1.1v3.8h-1.6V162h1.6v2.9c0.4-0.4,0.9-0.6,1.5-0.6
		c1.4,0,2.1,1,2.1,2.3v4H77.9z"/>
	<path class="st1" d="M81.1,163.2v-1.3h1.6v1.3H81.1z M81.1,170.5v-6.2h1.6v6.2H81.1z"/>
	<path class="st1" d="M86.5,170.6c-1,0-1.9-0.1-2.7-0.9l1-1c0.5,0.5,1.2,0.6,1.7,0.6c0.5,0,1.1-0.2,1.1-0.6c0-0.3-0.2-0.5-0.7-0.6
		l-1-0.1c-1.1-0.1-1.8-0.6-1.8-1.8c0-1.3,1.1-2,2.4-2c1,0,1.8,0.2,2.4,0.7l-1,1c-0.4-0.3-0.9-0.4-1.5-0.4c-0.6,0-0.9,0.3-0.9,0.6
		c0,0.2,0.1,0.5,0.6,0.5l1,0.1c1.2,0.1,1.9,0.8,1.9,1.8C89.1,169.9,87.9,170.6,86.5,170.6z"/>
	<path class="st1" d="M92.3,170.5c-1.3,0-1.8-0.9-1.8-1.8v-3.1h-0.7v-1.2h0.7v-1.8H92v1.8h1.1v1.2H92v3c0,0.4,0.2,0.6,0.5,0.6h0.6
		v1.3H92.3z"/>
	<path class="st1" d="M98.8,169.8c-0.4,0.4-1,0.8-1.9,0.8c-0.9,0-1.5-0.4-1.9-0.8c-0.6-0.6-0.7-1.3-0.7-2.4c0-1.1,0.1-1.8,0.7-2.4
		c0.4-0.4,1-0.8,1.9-0.8c0.9,0,1.6,0.4,1.9,0.8c0.6,0.6,0.7,1.3,0.7,2.4C99.5,168.5,99.4,169.2,98.8,169.8z M97.6,165.9
		c-0.2-0.2-0.4-0.3-0.7-0.3c-0.3,0-0.5,0.1-0.7,0.3c-0.3,0.3-0.4,0.9-0.4,1.5c0,0.6,0,1.2,0.4,1.5c0.2,0.2,0.4,0.3,0.7,0.3
		c0.3,0,0.6-0.1,0.7-0.3c0.3-0.3,0.4-0.9,0.4-1.5C98,166.7,97.9,166.2,97.6,165.9z"/>
	<path class="st1" d="M104.4,166c-0.2-0.2-0.4-0.4-0.8-0.4c-0.5,0-1,0.4-1,1.2v3.8H101v-6.2h1.5v0.6c0.3-0.4,0.9-0.7,1.6-0.7
		c0.6,0,1,0.2,1.5,0.6L104.4,166z"/>
	<path class="st1" d="M108.8,171.5c-0.1,0.3-0.3,0.6-0.5,0.8c-0.4,0.4-0.8,0.5-1.3,0.5h-0.6v-1.4h0.4c0.4,0,0.6-0.1,0.8-0.6l0.3-0.8
		l-2.1-5.8h1.6l1.3,3.9l1.2-3.9h1.6L108.8,171.5z"/>
	<path class="st1" d="M23.5,218v3.5h-1.7V218l-2.6-5h1.8l1.6,3.4l1.6-3.4h1.8L23.5,218z"/>
	<path class="st1" d="M30.4,220.8c-0.4,0.4-1,0.8-1.9,0.8c-0.9,0-1.5-0.4-1.9-0.8c-0.6-0.6-0.7-1.3-0.7-2.4c0-1.1,0.1-1.8,0.7-2.4
		c0.4-0.4,1-0.8,1.9-0.8c0.9,0,1.6,0.4,1.9,0.8c0.6,0.6,0.7,1.3,0.7,2.4C31.1,219.5,30.9,220.2,30.4,220.8z M29.2,216.9
		c-0.2-0.2-0.4-0.3-0.7-0.3c-0.3,0-0.5,0.1-0.7,0.3c-0.3,0.3-0.4,0.9-0.4,1.5c0,0.6,0,1.2,0.4,1.5c0.2,0.2,0.4,0.3,0.7,0.3
		c0.3,0,0.6-0.1,0.7-0.3c0.3-0.3,0.4-0.9,0.4-1.5C29.5,217.7,29.5,217.2,29.2,216.9z"/>
	<path class="st1" d="M36.2,221.5v-0.6c-0.4,0.4-1,0.6-1.6,0.6c-0.6,0-1.1-0.2-1.5-0.6c-0.5-0.5-0.6-1.1-0.6-1.8v-4h1.6v3.8
		c0,0.9,0.5,1.1,1,1.1c0.5,0,1-0.3,1-1.1v-3.8h1.6v6.2H36.2z"/>
	<path class="st1" d="M42.8,217c-0.2-0.2-0.4-0.4-0.8-0.4c-0.5,0-1,0.4-1,1.2v3.8h-1.6v-6.2H41v0.6c0.3-0.4,0.9-0.7,1.6-0.7
		c0.6,0,1,0.2,1.5,0.6L42.8,217z"/>
	<path class="st1" d="M51.1,221.5v-0.6c-0.4,0.5-0.9,0.7-1.5,0.7c-0.6,0-1.2-0.2-1.5-0.6c-0.6-0.6-0.6-1.7-0.6-2.6s0-2,0.6-2.6
		c0.3-0.3,0.9-0.6,1.5-0.6c0.6,0,1.1,0.2,1.5,0.6V213h1.6v8.5H51.1z M50,216.6c-0.9,0-1.1,0.8-1.1,1.8s0.1,1.8,1.1,1.8
		s1.1-0.8,1.1-1.8S51,216.6,50,216.6z"/>
	<path class="st1" d="M57.6,221.5V221c-0.4,0.4-0.8,0.6-1.5,0.6c-0.7,0-1.2-0.2-1.6-0.6c-0.3-0.3-0.5-0.9-0.5-1.4
		c0-1,0.7-1.8,2.1-1.8h1.5v-0.3c0-0.7-0.3-1-1.2-1c-0.6,0-0.9,0.1-1.2,0.5l-1-1c0.6-0.7,1.2-0.9,2.3-0.9c1.8,0,2.7,0.7,2.7,2.2v4.1
		H57.6z M57.6,218.9h-1.2c-0.6,0-0.9,0.3-0.9,0.7c0,0.4,0.3,0.7,0.9,0.7c0.4,0,0.7,0,1-0.3c0.2-0.2,0.2-0.4,0.2-0.8V218.9z"/>
	<path class="st1" d="M62.8,221.5c-1.3,0-1.8-0.9-1.8-1.8v-3.1h-0.7v-1.2H61v-1.8h1.6v1.8h1.1v1.2h-1.1v3c0,0.4,0.2,0.6,0.5,0.6h0.6
		v1.3H62.8z"/>
	<path class="st1" d="M68.2,221.5V221c-0.4,0.4-0.8,0.6-1.5,0.6c-0.7,0-1.2-0.2-1.6-0.6c-0.3-0.3-0.5-0.9-0.5-1.4
		c0-1,0.7-1.8,2.1-1.8h1.5v-0.3c0-0.7-0.3-1-1.2-1c-0.6,0-0.9,0.1-1.2,0.5l-1-1c0.6-0.7,1.2-0.9,2.3-0.9c1.8,0,2.7,0.7,2.7,2.2v4.1
		H68.2z M68.2,218.9h-1.2c-0.6,0-0.9,0.3-0.9,0.7c0,0.4,0.3,0.7,0.9,0.7c0.4,0,0.7,0,1-0.3c0.2-0.2,0.2-0.4,0.2-0.8V218.9z"/>
	<path class="st1" d="M74.2,214.2v-1.3h1.6v1.3H74.2z M74.2,221.5v-6.2h1.6v6.2H74.2z"/>
	<path class="st1" d="M79.6,221.6c-1,0-1.9-0.1-2.7-0.9l1-1c0.5,0.5,1.2,0.6,1.7,0.6c0.5,0,1.1-0.2,1.1-0.6c0-0.3-0.2-0.5-0.7-0.6
		l-1-0.1c-1.1-0.1-1.8-0.6-1.8-1.8c0-1.3,1.1-2,2.4-2c1,0,1.8,0.2,2.4,0.7l-1,1c-0.4-0.3-0.9-0.4-1.5-0.4c-0.6,0-0.9,0.3-0.9,0.6
		c0,0.2,0.1,0.5,0.6,0.5l1,0.1c1.2,0.1,1.9,0.8,1.9,1.8C82.2,220.9,81,221.6,79.6,221.6z"/>
	<path class="st1" d="M92.6,221.5h-1.3l-1.3-3.9l-1.3,3.9h-1.3l-1.9-6.2h1.7l1,3.9l1.3-3.9h1.1l1.3,3.9l1-3.9h1.6L92.6,221.5z"/>
	<path class="st1" d="M99.6,220.8c-0.4,0.4-1,0.8-1.9,0.8c-0.9,0-1.5-0.4-1.9-0.8c-0.6-0.6-0.7-1.3-0.7-2.4c0-1.1,0.1-1.8,0.7-2.4
		c0.4-0.4,1-0.8,1.9-0.8c0.9,0,1.6,0.4,1.9,0.8c0.6,0.6,0.7,1.3,0.7,2.4C100.3,219.5,100.2,220.2,99.6,220.8z M98.4,216.9
		c-0.2-0.2-0.4-0.3-0.7-0.3c-0.3,0-0.5,0.1-0.7,0.3c-0.3,0.3-0.4,0.9-0.4,1.5c0,0.6,0,1.2,0.4,1.5c0.2,0.2,0.4,0.3,0.7,0.3
		c0.3,0,0.6-0.1,0.7-0.3c0.3-0.3,0.4-0.9,0.4-1.5C98.8,217.7,98.7,217.2,98.4,216.9z"/>
	<path class="st1" d="M105.2,217c-0.2-0.2-0.4-0.4-0.8-0.4c-0.5,0-1,0.4-1,1.2v3.8h-1.6v-6.2h1.5v0.6c0.3-0.4,0.9-0.7,1.6-0.7
		c0.6,0,1,0.2,1.5,0.6L105.2,217z"/>
	<path class="st1" d="M109.2,221.5c-1.3,0-1.8-0.9-1.8-1.8v-3.1h-0.7v-1.2h0.7v-1.8h1.6v1.8h1.1v1.2H109v3c0,0.4,0.2,0.6,0.5,0.6
		h0.6v1.3H109.2z"/>
	<path class="st1" d="M115.1,221.5v-3.8c0-0.8-0.5-1.1-1-1.1c-0.5,0-1,0.3-1,1.1v3.8h-1.6V213h1.6v2.9c0.4-0.4,0.9-0.6,1.5-0.6
		c1.4,0,2.1,1,2.1,2.3v4H115.1z"/>
</g>
<g>
	<polyline class="st0" points="131.8,77 206.9,77 206.9,321.7 131.8,321.7 	"/>
	<path class="st2" d="M178.2,102.5v-3.6h-0.7v-1.2h0.7v-1c0-1.9,1.4-2.9,3-2.9c0.9,0,1.5,0.2,2.2,0.9l-1.1,1.1
		c-0.3-0.3-0.5-0.5-1.1-0.5c-0.8,0-1.4,0.5-1.4,1.5v0.9h1.4v1.2h-1.4v2.1h3.5v1.5H178.2z"/>
	<path class="st2" d="M187.2,102.6c-1.5,0-2.7-0.9-2.7-2.6c0-1,0.6-1.6,1.1-1.9c-0.4-0.3-1-0.9-1-1.8c0-1.5,1.2-2.4,2.6-2.4
		c1.4,0,2.6,0.9,2.6,2.4c0,0.9-0.5,1.5-1,1.8c0.5,0.3,1.1,0.9,1.1,1.9C189.9,101.7,188.7,102.6,187.2,102.6z M187.2,98.8
		c-0.7,0-1.2,0.5-1.2,1.2c0,0.7,0.5,1.2,1.2,1.2c0.7,0,1.2-0.5,1.2-1.2C188.4,99.3,187.9,98.8,187.2,98.8z M187.2,95.3
		c-0.6,0-1.1,0.5-1.1,1.1c0,0.6,0.5,1.1,1.1,1.1c0.6,0,1.1-0.5,1.1-1.1C188.3,95.8,187.8,95.3,187.2,95.3z"/>
	<path class="st2" d="M191.3,102.5v-1.8h1.8v1.8H191.3z"/>
	<path class="st2" d="M197.1,102.6c-1.4,0-2.6-0.9-2.6-2.5v-3.6c0-1.6,1.2-2.5,2.6-2.5c1.4,0,2.6,0.9,2.6,2.5v3.6
		C199.7,101.7,198.5,102.6,197.1,102.6z M198.2,96.5c0-0.7-0.4-1.2-1-1.2c-0.6,0-1,0.4-1,1.2v3.6c0,0.7,0.4,1.2,1,1.2
		c0.6,0,1-0.4,1-1.2V96.5z"/>
	<path class="st2" d="M203.7,102.6c-1.4,0-2.6-0.9-2.6-2.5v-3.6c0-1.6,1.2-2.5,2.6-2.5c1.4,0,2.6,0.9,2.6,2.5v3.6
		C206.2,101.7,205,102.6,203.7,102.6z M204.7,96.5c0-0.7-0.4-1.2-1-1.2c-0.6,0-1,0.4-1,1.2v3.6c0,0.7,0.4,1.2,1,1.2
		c0.6,0,1-0.4,1-1.2V96.5z"/>
	<path class="st2" d="M178.2,119.5v-3.6h-0.7v-1.2h0.7v-1c0-1.9,1.4-2.9,3-2.9c0.9,0,1.5,0.2,2.2,0.9l-1.1,1.1
		c-0.3-0.3-0.5-0.5-1.1-0.5c-0.8,0-1.4,0.5-1.4,1.5v0.9h1.4v1.2h-1.4v2.1h3.5v1.5H178.2z"/>
	<path class="st2" d="M184.6,119.5v-1.4l3.2-3.7c0.3-0.4,0.4-0.6,0.4-1c0-0.6-0.4-1.1-1-1.1c-0.5,0-1,0.3-1,1.1h-1.6
		c0-1.6,1.1-2.5,2.6-2.5c1.5,0,2.6,0.9,2.6,2.5c0,0.8-0.3,1.3-0.9,2l-2.4,2.8h3.3v1.4H184.6z"/>
	<path class="st2" d="M191.3,119.5v-1.8h1.8v1.8H191.3z"/>
	<path class="st2" d="M199,118.9c-0.4,0.4-1,0.7-1.9,0.7s-1.5-0.3-1.9-0.7c-0.5-0.5-0.6-1.2-0.7-1.8h1.6c0.1,0.7,0.4,1.1,1,1.1
		c0.3,0,0.6-0.1,0.7-0.3c0.3-0.3,0.3-0.7,0.3-1.3c0-1-0.3-1.5-1-1.5c-0.6,0-0.9,0.4-1,0.7h-1.4V111h4.9v1.4h-3.5v1.8
		c0.2-0.2,0.7-0.4,1.3-0.4c0.7,0,1.2,0.2,1.6,0.6c0.7,0.7,0.8,1.5,0.8,2.3C199.8,117.6,199.7,118.3,199,118.9z"/>
	<path class="st2" d="M203.7,119.6c-1.4,0-2.6-0.9-2.6-2.5v-3.6c0-1.6,1.2-2.5,2.6-2.5c1.4,0,2.6,0.9,2.6,2.5v3.6
		C206.2,118.7,205,119.6,203.7,119.6z M204.7,113.5c0-0.7-0.4-1.2-1-1.2c-0.6,0-1,0.4-1,1.2v3.6c0,0.7,0.4,1.2,1,1.2
		c0.6,0,1-0.4,1-1.2V113.5z"/>
	<path class="st2" d="M178.2,136.5v-3.6h-0.7v-1.2h0.7v-1c0-1.9,1.4-2.9,3-2.9c0.9,0,1.5,0.2,2.2,0.9l-1.1,1.1
		c-0.3-0.3-0.5-0.5-1.1-0.5c-0.8,0-1.4,0.5-1.4,1.5v0.9h1.4v1.2h-1.4v2.1h3.5v1.5H178.2z"/>
	<path class="st2" d="M187.2,136.6c-1.4,0-2.6-0.9-2.6-2.5v-3.6c0-1.6,1.2-2.5,2.6-2.5c1.4,0,2.6,0.9,2.6,2.5v3.6
		C189.8,135.7,188.6,136.6,187.2,136.6z M188.2,130.5c0-0.7-0.4-1.2-1-1.2c-0.6,0-1,0.4-1,1.2v3.6c0,0.7,0.4,1.2,1,1.2
		c0.6,0,1-0.4,1-1.2V130.5z"/>
	<path class="st2" d="M191.3,136.5v-1.8h1.8v1.8H191.3z"/>
	<path class="st2" d="M197.1,136.6c-1.5,0-2.7-0.9-2.7-2.6c0-0.8,0.3-1.5,0.7-2.3l1.8-3.7h1.7l-1.8,3.5c0.2-0.1,0.4-0.1,0.6-0.1
		c1.2,0,2.2,0.9,2.2,2.5C199.8,135.6,198.6,136.6,197.1,136.6z M197.1,132.7c-0.6,0-1.1,0.5-1.1,1.2s0.5,1.2,1.1,1.2
		s1.1-0.5,1.1-1.2C198.2,133.2,197.8,132.7,197.1,132.7z"/>
	<path class="st2" d="M203.6,136.6c-1.4,0-2.7-0.7-2.7-2.5h1.6c0,0.8,0.6,1.1,1.2,1.1c0.7,0,1.2-0.4,1.2-1.2c0-0.7-0.4-1.2-1.2-1.2
		h-0.2v-1.4h0.2c0.8,0,1.1-0.5,1.1-1.1c0-0.7-0.5-1.1-1-1.1c-0.6,0-1,0.4-1.1,1H201c0-1.5,1.2-2.4,2.6-2.4c1.5,0,2.6,1,2.6,2.4
		c0,0.9-0.4,1.5-1,1.8c0.6,0.3,1.1,0.9,1.1,1.9C206.3,135.7,205.1,136.6,203.6,136.6z"/>
	<path class="st2" d="M178.2,153.5v-3.6h-0.7v-1.2h0.7v-1c0-1.9,1.4-2.9,3-2.9c0.9,0,1.5,0.2,2.2,0.9l-1.1,1.1
		c-0.3-0.3-0.5-0.5-1.1-0.5c-0.8,0-1.4,0.5-1.4,1.5v0.9h1.4v1.2h-1.4v2.1h3.5v1.5H178.2z"/>
	<path class="st2" d="M184.6,153.5v-1.4l3.2-3.7c0.3-0.4,0.4-0.6,0.4-1c0-0.6-0.4-1.1-1-1.1c-0.5,0-1,0.3-1,1.1h-1.6
		c0-1.6,1.1-2.5,2.6-2.5c1.5,0,2.6,0.9,2.6,2.5c0,0.8-0.3,1.3-0.9,2l-2.4,2.8h3.3v1.4H184.6z"/>
	<path class="st2" d="M191.3,153.5v-1.8h1.8v1.8H191.3z"/>
	<path class="st2" d="M197.1,153.6c-1.4,0-2.6-0.9-2.6-2.5v-3.6c0-1.6,1.2-2.5,2.6-2.5c1.4,0,2.6,0.9,2.6,2.5v3.6
		C199.7,152.7,198.5,153.6,197.1,153.6z M198.2,147.5c0-0.7-0.4-1.2-1-1.2c-0.6,0-1,0.4-1,1.2v3.6c0,0.7,0.4,1.2,1,1.2
		c0.6,0,1-0.4,1-1.2V147.5z"/>
	<path class="st2" d="M203.7,153.6c-1.4,0-2.6-0.9-2.6-2.5v-3.6c0-1.6,1.2-2.5,2.6-2.5c1.4,0,2.6,0.9,2.6,2.5v3.6
		C206.2,152.7,205,153.6,203.7,153.6z M204.7,147.5c0-0.7-0.4-1.2-1-1.2c-0.6,0-1,0.4-1,1.2v3.6c0,0.7,0.4,1.2,1,1.2
		c0.6,0,1-0.4,1-1.2V147.5z"/>
	<path class="st2" d="M178.2,170.5v-3.6h-0.7v-1.2h0.7v-1c0-1.9,1.4-2.9,3-2.9c0.9,0,1.5,0.2,2.2,0.9l-1.1,1.1
		c-0.3-0.3-0.5-0.5-1.1-0.5c-0.8,0-1.4,0.5-1.4,1.5v0.9h1.4v1.2h-1.4v2.1h3.5v1.5H178.2z"/>
	<path class="st2" d="M187.2,170.6c-1.4,0-2.7-0.7-2.7-2.5h1.6c0,0.8,0.6,1.1,1.2,1.1c0.7,0,1.2-0.4,1.2-1.2c0-0.7-0.4-1.2-1.2-1.2
		h-0.2v-1.4h0.2c0.8,0,1.1-0.5,1.1-1.1c0-0.7-0.5-1.1-1-1.1c-0.6,0-1,0.4-1.1,1h-1.6c0-1.5,1.2-2.4,2.6-2.4c1.5,0,2.6,1,2.6,2.4
		c0,0.9-0.4,1.5-1,1.8c0.6,0.3,1.1,0.9,1.1,1.9C189.9,169.7,188.6,170.6,187.2,170.6z"/>
	<path class="st2" d="M191.3,170.5v-1.8h1.8v1.8H191.3z"/>
	<path class="st2" d="M197.1,170.6c-1.4,0-2.6-0.9-2.6-2.5v-3.6c0-1.6,1.2-2.5,2.6-2.5c1.4,0,2.6,0.9,2.6,2.5v3.6
		C199.7,169.7,198.5,170.6,197.1,170.6z M198.2,164.5c0-0.7-0.4-1.2-1-1.2c-0.6,0-1,0.4-1,1.2v3.6c0,0.7,0.4,1.2,1,1.2
		c0.6,0,1-0.4,1-1.2V164.5z"/>
	<path class="st2" d="M203.7,170.6c-1.4,0-2.6-0.9-2.6-2.5v-3.6c0-1.6,1.2-2.5,2.6-2.5c1.4,0,2.6,0.9,2.6,2.5v3.6
		C206.2,169.7,205,170.6,203.7,170.6z M204.7,164.5c0-0.7-0.4-1.2-1-1.2c-0.6,0-1,0.4-1,1.2v3.6c0,0.7,0.4,1.2,1,1.2
		c0.6,0,1-0.4,1-1.2V164.5z"/>
	<path class="st2" d="M171.7,221.5v-3.6H171v-1.2h0.7v-1c0-1.9,1.4-2.9,3-2.9c0.9,0,1.5,0.2,2.2,0.9l-1.1,1.1
		c-0.3-0.3-0.5-0.5-1.1-0.5c-0.8,0-1.4,0.5-1.4,1.5v0.9h1.4v1.2h-1.4v2.1h3.5v1.5H171.7z"/>
	<path class="st2" d="M180.4,221.5v-6.9l-1.7,1.5v-1.7l1.7-1.5h1.6v8.5H180.4z"/>
	<path class="st2" d="M187.2,221.6c-1.5,0-2.7-0.9-2.7-2.6c0-0.8,0.3-1.5,0.7-2.3l1.8-3.7h1.7l-1.8,3.5c0.2-0.1,0.4-0.1,0.6-0.1
		c1.2,0,2.2,0.9,2.2,2.5C189.8,220.6,188.7,221.6,187.2,221.6z M187.2,217.7c-0.6,0-1.1,0.5-1.1,1.2c0,0.8,0.5,1.2,1.1,1.2
		s1.1-0.5,1.1-1.2C188.3,218.2,187.8,217.7,187.2,217.7z"/>
	<path class="st2" d="M191.3,221.5v-1.8h1.8v1.8H191.3z"/>
	<path class="st2" d="M196.8,221.5v-6.9l-1.7,1.5v-1.7l1.7-1.5h1.6v8.5H196.8z"/>
	<path class="st2" d="M203.6,221.6c-1.4,0-2.7-0.7-2.7-2.5h1.6c0,0.8,0.6,1.1,1.2,1.1c0.7,0,1.2-0.4,1.2-1.2c0-0.7-0.4-1.2-1.2-1.2
		h-0.2v-1.4h0.2c0.8,0,1.1-0.5,1.1-1.1c0-0.7-0.5-1.1-1-1.1c-0.6,0-1,0.4-1.1,1H201c0-1.5,1.2-2.4,2.6-2.4c1.5,0,2.6,1,2.6,2.4
		c0,0.9-0.4,1.5-1,1.8c0.6,0.3,1.1,0.9,1.1,1.9C206.3,220.7,205.1,221.6,203.6,221.6z"/>
</g>
<rect x="0.9" y="0.9" class="st3" width="228" height="348"/>
<line class="st4" x1="19.3" y1="77" x2="208.9" y2="77"/>
<line class="st4" x1="19.3" y1="187.3" x2="208.9" y2="187.3"/>
<line class="st4" x1="19.3" y1="248.8" x2="208.9" y2="248.8"/>
<g id="nCCbz2_1_">
	<g>
		<path d="M69.6,316.7c-1.4,0-2.9,0-4.3,0c0-0.6-0.1-1.2-0.1-1.8c0-11.8,0-23.6,0-35.4c0-2.9,0-5.8,0.1-8.7c1.4,0,2.9,0,4.3,0
			C69.6,286.1,69.6,301.4,69.6,316.7z"/>
		<path class="st5" d="M111.8,316.7c-1.3,0-2.7,0-4,0c0-15.3,0-30.6,0-45.9c1.3,0,2.7,0,4,0c0,0.5-0.1,0.9-0.1,1.4
			c0,14.4,0,28.8,0,43.2C111.7,315.8,111.8,316.3,111.8,316.7z"/>
		<path class="st5" d="M123.7,316.7c-1.3,0-2.7,0-4,0c0-0.5,0.1-0.9,0.1-1.4c0-14.4,0-28.8,0-43.2c0-0.5-0.1-0.9-0.1-1.4
			c1.3,0,2.7,0,4,0C123.7,286.1,123.7,301.4,123.7,316.7z"/>
		<path class="st5" d="M106.3,316.7c-1.3,0-2.7,0-4,0c0-0.6,0.1-1.2,0.1-1.8c0-13.3,0-26.5,0-39.8c0-1.4,0-2.8-0.1-4.3
			c1.3,0,2.7,0,4,0C106.3,286.1,106.3,301.4,106.3,316.7z"/>
		<path class="st6" d="M95.3,270.8c1.3,0,2.7,0,4,0c0,0.4-0.1,0.8-0.1,1.2c0,14.5,0,29,0,43.5c0,0.4,0.1,0.8,0.1,1.2
			c-1.3,0-2.7,0-4,0C95.3,301.4,95.3,286.1,95.3,270.8z"/>
		<path class="st6" d="M136.3,316.7c-1.3,0-2.7,0-4,0c0-0.4,0.1-0.8,0.1-1.2c0-14.5,0-29,0-43.5c0-0.4-0.1-0.8-0.1-1.2
			c1.3,0,2.7,0,4,0C136.3,286.1,136.3,301.4,136.3,316.7z"/>
		<path class="st5" d="M84.9,270.8c1.3,0,2.7,0,4,0c0,0.5-0.1,0.9-0.1,1.4c0,14.4,0,28.8,0,43.2c0,0.5,0.1,0.9,0.1,1.4
			c-1.3,0-2.7,0-4,0C84.9,301.4,84.9,286.1,84.9,270.8z"/>
		<path class="st5" d="M79.4,270.8c1.3,0,2.7,0,4,0c0,15.3,0,30.6,0,45.9c-1.3,0-2.7,0-4,0c0-0.6,0.1-1.2,0.1-1.8
			c0-13.3,0-26.5,0-39.8C79.4,273.7,79.4,272.2,79.4,270.8z"/>
		<path class="st5" d="M146.7,316.7c-1.3,0-2.7,0-4,0c0-0.5,0.1-0.9,0.1-1.4c0-14.4,0-28.8,0-43.2c0-0.5-0.1-0.9-0.1-1.4
			c1.3,0,2.7,0,4,0C146.7,286.1,146.7,301.4,146.7,316.7z"/>
		<path class="st5" d="M152.2,316.7c-1.3,0-2.7,0-4,0c0-0.6,0.1-1.2,0.1-1.8c0-13.3,0-26.5,0-39.8c0-1.4,0-2.8-0.1-4.3
			c1.3,0,2.7,0,4,0C152.2,286.1,152.2,301.4,152.2,316.7z"/>
		<path class="st5" d="M157.7,316.7c-1.3,0-2.7,0-4,0c0-15.3,0-30.6,0-45.9c1.3,0,2.7,0,4,0c0,0.5-0.1,0.9-0.1,1.4
			c0,14.4,0,28.8,0,43.2C157.6,315.8,157.6,316.3,157.7,316.7z"/>
		<path class="st6" d="M123.7,316.7c0-15.3,0-30.6,0-45.9c1.2,0,2.4,0,3.7,0c0,0.5,0.1,0.9,0.1,1.4c0,14.4,0,28.8,0,43.2
			c0,0.5-0.1,0.9-0.1,1.4C126.2,316.7,125,316.7,123.7,316.7z"/>
		<path class="st5" d="M159.2,270.8c1.2,0,2.4,0,3.7,0c0,0.4,0.1,0.8,0.1,1.2c0,14.5,0,29,0,43.5c0,0.4-0.1,0.8-0.1,1.2
			c-1.2,0-2.4,0-3.7,0C159.2,301.4,159.2,286.1,159.2,270.8z"/>
		<path class="st6" d="M72.9,270.8c1.1,0,2.2,0,3.4,0c0,0.4-0.1,0.8-0.1,1.2c0,14.5,0,29,0,43.5c0,0.4,0.1,0.8,0.1,1.2
			c-1.1,0-2.2,0-3.4,0C72.9,301.4,72.9,286.1,72.9,270.8z"/>
		<path class="st6" d="M162.9,316.7c0-0.4,0.1-0.8,0.1-1.2c0-14.5,0-29,0-43.5c0-0.4-0.1-0.8-0.1-1.2c0.6,0,1.2,0,1.8,0
			c0,15.3,0,30.6,0,45.9C164.1,316.7,163.5,316.7,162.9,316.7z"/>
		<path class="st6" d="M91.9,270.8c0.6,0,1.2,0,1.8,0c0,0.4-0.1,0.8-0.1,1.2c0,14.5,0,29,0,43.5c0,0.4,0.1,0.8,0.1,1.2
			c-0.6,0-1.2,0-1.8,0c0-0.6,0.1-1.2,0.1-1.8c0-11.8,0-23.6,0-35.4C92,276.6,91.9,273.7,91.9,270.8z"/>
		<path class="st6" d="M65.3,270.8c0,2.9-0.1,5.8-0.1,8.7c0,11.8,0,23.6,0,35.4c0,0.6,0,1.2,0.1,1.8c-0.6,0-1.2,0-1.8,0
			c0-0.4,0.1-0.8,0.1-1.2c0-14.5,0-29,0-43.5c0-0.4-0.1-0.8-0.1-1.2C64.1,270.8,64.7,270.8,65.3,270.8z"/>
		<path class="st5" d="M127.4,316.7c0-0.5,0.1-0.9,0.1-1.4c0-14.4,0-28.8,0-43.2c0-0.5-0.1-0.9-0.1-1.4c0.6,0,1.2,0,1.8,0
			c0,15.3,0,30.6,0,45.9C128.6,316.7,128,316.7,127.4,316.7z"/>
		<path class="st5" d="M72.9,270.8c0,15.3,0,30.6,0,45.9c-0.6,0-1.2,0-1.8,0c0-0.5,0.1-0.9,0.1-1.4c0-14.4,0-28.8,0-43.2
			c0-0.5-0.1-0.9-0.1-1.4C71.7,270.8,72.3,270.8,72.9,270.8z"/>
		<path class="st6" d="M116.7,316.7c-0.6,0-1.2,0-1.8,0c0-0.6,0.1-1.2,0.1-1.8c0-11.8,0-23.6,0-35.4c0-2.9,0-5.8-0.1-8.7
			c0.6,0,1.2,0,1.8,0c0,0.4-0.1,0.8-0.1,1.2c0,14.5,0,29,0,43.5C116.6,315.9,116.7,316.3,116.7,316.7z"/>
		<path class="st6" d="M139.6,316.7c-0.6,0-1.2,0-1.8,0c0-0.6,0.1-1.2,0.1-1.8c0-11.8,0-23.6,0-35.4c0-2.9,0-5.8-0.1-8.7
			c0.6,0,1.2,0,1.8,0c0,0.4-0.1,0.8-0.1,1.2c0,14.5,0,29,0,43.5C139.5,315.9,139.6,316.3,139.6,316.7z"/>
		<path class="st5" d="M91.9,270.8c0,2.9,0.1,5.8,0.1,8.7c0,11.8,0,23.6,0,35.4c0,0.6,0,1.2-0.1,1.8c-0.5,0-1,0-1.5,0
			c0-15.3,0-30.6,0-45.9C90.9,270.8,91.4,270.8,91.9,270.8z"/>
		<path class="st5" d="M93.7,316.7c0-0.4-0.1-0.8-0.1-1.2c0-14.5,0-29,0-43.5c0-0.4,0.1-0.8,0.1-1.2c0.5,0,1,0,1.5,0
			c0,15.3,0,30.6,0,45.9C94.8,316.7,94.3,316.7,93.7,316.7z"/>
		<path class="st5" d="M99.3,316.7c0-0.4-0.1-0.8-0.1-1.2c0-14.5,0-29,0-43.5c0-0.4,0.1-0.8,0.1-1.2c0.5,0,1,0,1.5,0
			c0,15.3,0,30.6,0,45.9C100.3,316.7,99.8,316.7,99.3,316.7z"/>
		<path class="st6" d="M100.8,316.7c0-15.3,0-30.6,0-45.9c0.5,0,1,0,1.5,0c0,1.4,0.1,2.8,0.1,4.3c0,13.3,0,26.5,0,39.8
			c0,0.6,0,1.2-0.1,1.8C101.8,316.7,101.3,316.7,100.8,316.7z"/>
		<path class="st6" d="M106.3,316.7c0-15.3,0-30.6,0-45.9c0.5,0,1,0,1.5,0c0,15.3,0,30.6,0,45.9
			C107.3,316.7,106.8,316.7,106.3,316.7z"/>
		<path class="st6" d="M111.8,316.7c0-0.5-0.1-0.9-0.1-1.4c0-14.4,0-28.8,0-43.2c0-0.5,0.1-0.9,0.1-1.4c0.5,0,1,0,1.5,0
			c0,15.3,0,30.6,0,45.9C112.8,316.7,112.3,316.7,111.8,316.7z"/>
		<path class="st6" d="M90.4,270.8c0,15.3,0,30.6,0,45.9c-0.5,0-1,0-1.5,0c0-0.5-0.1-0.9-0.1-1.4c0-14.4,0-28.8,0-43.2
			c0-0.5,0.1-0.9,0.1-1.4C89.4,270.8,89.9,270.8,90.4,270.8z"/>
		<path class="st6" d="M83.3,316.7c0-15.3,0-30.6,0-45.9c0.5,0,1,0,1.5,0c0,15.3,0,30.6,0,45.9C84.4,316.7,83.9,316.7,83.3,316.7z"
			/>
		<path class="st6" d="M79.4,270.8c0,1.4,0.1,2.8,0.1,4.3c0,13.3,0,26.5,0,39.8c0,0.6,0,1.2-0.1,1.8c-0.5,0-1,0-1.5,0
			c0-15.3,0-30.6,0-45.9C78.3,270.8,78.9,270.8,79.4,270.8z"/>
		<path class="st5" d="M77.8,270.8c0,15.3,0,30.6,0,45.9c-0.5,0-1,0-1.5,0c0-0.4-0.1-0.8-0.1-1.2c0-14.5,0-29,0-43.5
			c0-0.4,0.1-0.8,0.1-1.2C76.8,270.8,77.3,270.8,77.8,270.8z"/>
		<path class="st6" d="M71.1,270.8c0,0.5,0.1,0.9,0.1,1.4c0,14.4,0,28.8,0,43.2c0,0.5-0.1,0.9-0.1,1.4c-0.5,0-1,0-1.5,0
			c0-15.3,0-30.6,0-45.9C70.1,270.8,70.6,270.8,71.1,270.8z"/>
		<path class="st5" d="M63.5,270.8c0,0.4,0.1,0.8,0.1,1.2c0,14.5,0,29,0,43.5c0,0.4-0.1,0.8-0.1,1.2c-0.5,0-1,0-1.5,0
			c0-15.3,0-30.6,0-45.9C62.4,270.8,62.9,270.8,63.5,270.8z"/>
		<path class="st5" d="M164.7,316.7c0-15.3,0-30.6,0-45.9c0.5,0,1,0,1.5,0c0,15.3,0,30.6,0,45.9
			C165.8,316.7,165.2,316.7,164.7,316.7z"/>
		<path class="st6" d="M159.2,270.8c0,15.3,0,30.6,0,45.9c-0.5,0-1,0-1.5,0c0-0.5-0.1-0.9-0.1-1.4c0-14.4,0-28.8,0-43.2
			c0-0.5,0.1-0.9,0.1-1.4C158.2,270.8,158.7,270.8,159.2,270.8z"/>
		<path class="st6" d="M153.7,270.8c0,15.3,0,30.6,0,45.9c-0.5,0-1,0-1.5,0c0-15.3,0-30.6,0-45.9
			C152.7,270.8,153.2,270.8,153.7,270.8z"/>
		<path class="st6" d="M148.2,270.8c0,1.4,0.1,2.8,0.1,4.3c0,13.3,0,26.5,0,39.8c0,0.6,0,1.2-0.1,1.8c-0.5,0-1,0-1.5,0
			c0-15.3,0-30.6,0-45.9C147.2,270.8,147.7,270.8,148.2,270.8z"/>
		<path class="st6" d="M142.7,270.8c0,0.5,0.1,0.9,0.1,1.4c0,14.4,0,28.8,0,43.2c0,0.5-0.1,0.9-0.1,1.4c-0.5,0-1,0-1.5,0
			c0-15.3,0-30.6,0-45.9C141.7,270.8,142.2,270.8,142.7,270.8z"/>
		<path class="st5" d="M141.2,270.8c0,15.3,0,30.6,0,45.9c-0.5,0-1,0-1.5,0c0-0.4-0.1-0.8-0.1-1.2c0-14.5,0-29,0-43.5
			c0-0.4,0.1-0.8,0.1-1.2C140.2,270.8,140.7,270.8,141.2,270.8z"/>
		<path class="st5" d="M137.8,270.8c0,2.9,0.1,5.8,0.1,8.7c0,11.8,0,23.6,0,35.4c0,0.6,0,1.2-0.1,1.8c-0.5,0-1,0-1.5,0
			c0-15.3,0-30.6,0-45.9C136.8,270.8,137.3,270.8,137.8,270.8z"/>
		<path class="st5" d="M132.3,270.8c0,0.4,0.1,0.8,0.1,1.2c0,14.5,0,29,0,43.5c0,0.4-0.1,0.8-0.1,1.2c-0.5,0-1,0-1.5,0
			c0-15.3,0-30.6,0-45.9C131.3,270.8,131.8,270.8,132.3,270.8z"/>
		<path class="st6" d="M130.8,270.8c0,15.3,0,30.6,0,45.9c-0.5,0-1,0-1.5,0c0-15.3,0-30.6,0-45.9
			C129.7,270.8,130.3,270.8,130.8,270.8z"/>
		<path class="st6" d="M119.8,270.8c0,0.5,0.1,0.9,0.1,1.4c0,14.4,0,28.8,0,43.2c0,0.5-0.1,0.9-0.1,1.4c-0.5,0-1,0-1.5,0
			c0-15.3,0-30.6,0-45.9C118.7,270.8,119.2,270.8,119.8,270.8z"/>
		<path class="st5" d="M118.2,270.8c0,15.3,0,30.6,0,45.9c-0.5,0-1,0-1.5,0c0-0.4-0.1-0.8-0.1-1.2c0-14.5,0-29,0-43.5
			c0-0.4,0.1-0.8,0.1-1.2C117.2,270.8,117.7,270.8,118.2,270.8z"/>
		<path class="st5" d="M113.3,316.7c0-15.3,0-30.6,0-45.9c0.5,0,1,0,1.5,0c0,2.9,0.1,5.8,0.1,8.7c0,11.8,0,23.6,0,35.4
			c0,0.6,0,1.2-0.1,1.8C114.3,316.7,113.8,316.7,113.3,316.7z"/>
	</g>
</g>
<g>
</g>
<g>
</g>
<g>
</g>
<g>
</g>
<g>
</g>
<g>
</g>
</svg>
