<?xml version="1.0" encoding="utf-8"?>
<!-- Generator: Adobe Illustrator 19.1.0, SVG Export Plug-In . SVG Version: 6.00 Build 0)  -->
<svg version="1.1" id="Layer_1" xmlns="http://www.w3.org/2000/svg" xmlns:xlink="http://www.w3.org/1999/xlink" x="0px" y="0px"
	 viewBox="0 0 366.6 282.7" style="enable-background:new 0 0 366.6 282.7;" xml:space="preserve">
<style type="text/css">
	.st0{fill:none;stroke:#1D1D1B;stroke-width:1.8356;stroke-miterlimit:10;}
	.st1{fill:none;}
	.st2{fill:#3A50A2;}
	.st3{fill:#1D1D1B;}
	.st4{fill:#FFFFFF;stroke:#1D1D1B;stroke-width:0.7354;stroke-miterlimit:10;}
</style>
<g>
	<path class="st0" d="M365.7,276.5c0,2.3-1.9,4.1-4.1,4.1H5.1c-2.3,0-4.1-1.9-4.1-4.1V5.1c0-2.3,1.9-4.1,4.1-4.1h356.5
		c2.3,0,4.1,1.9,4.1,4.1V276.5z"/>
</g>
<g>
	<polyline class="st1" points="31.8,38 322.3,38 322.3,282.7 31.8,282.7 	"/>
	<path class="st2" d="M35.9,50.7v-5.1l-3.8-7h1.8l1.7,3.3c0.5,0.9,0.8,1.7,1.2,2.5h0c0.3-0.8,0.8-1.6,1.2-2.5l1.7-3.3h1.8l-4.1,7
		v5.2H35.9z"/>
	<path class="st2" d="M49.4,46.3c0,3.2-2.2,4.6-4.3,4.6c-2.4,0-4.2-1.7-4.2-4.5c0-2.9,1.9-4.6,4.3-4.6
		C47.7,41.8,49.4,43.6,49.4,46.3z M42.5,46.4c0,1.9,1.1,3.3,2.6,3.3c1.5,0,2.6-1.4,2.6-3.4c0-1.5-0.7-3.3-2.6-3.3
		C43.3,43,42.5,44.7,42.5,46.4z"/>
	<path class="st2" d="M58.7,48.4c0,0.9,0,1.7,0.1,2.4h-1.4l-0.1-1.4h0c-0.4,0.7-1.3,1.6-2.9,1.6c-1.4,0-3-0.8-3-3.8V42h1.6v4.8
		c0,1.7,0.5,2.8,1.9,2.8c1.1,0,1.8-0.7,2.1-1.4c0.1-0.2,0.1-0.5,0.1-0.8V42h1.6V48.4z"/>
	<path class="st2" d="M61.3,44.7c0-1,0-1.9-0.1-2.7h1.4l0.1,1.7h0.1c0.4-1.2,1.4-1.9,2.4-1.9c0.2,0,0.3,0,0.5,0.1v1.5
		c-0.2,0-0.3-0.1-0.5-0.1c-1.1,0-1.9,0.8-2.1,2c0,0.2-0.1,0.5-0.1,0.7v4.6h-1.6V44.7z"/>
	<path class="st2" d="M78.5,37.9v10.5c0,0.8,0,1.7,0.1,2.3h-1.4l-0.1-1.5h0c-0.5,1-1.5,1.7-3,1.7c-2.1,0-3.7-1.8-3.7-4.4
		c0-2.9,1.8-4.7,3.9-4.7c1.3,0,2.2,0.6,2.6,1.3h0v-5.2H78.5z M76.9,45.6c0-0.2,0-0.5-0.1-0.7c-0.2-1-1.1-1.8-2.3-1.8
		c-1.6,0-2.6,1.4-2.6,3.4c0,1.8,0.9,3.2,2.6,3.2c1.1,0,2-0.7,2.3-1.9c0.1-0.2,0.1-0.4,0.1-0.7V45.6z"/>
	<path class="st2" d="M86,50.7l-0.1-1.1h-0.1c-0.5,0.7-1.4,1.3-2.7,1.3c-1.8,0-2.7-1.2-2.7-2.5c0-2.1,1.9-3.3,5.2-3.2V45
		c0-0.7-0.2-2-2-2c-0.8,0-1.7,0.3-2.3,0.6l-0.4-1c0.7-0.5,1.8-0.8,2.9-0.8c2.7,0,3.3,1.8,3.3,3.6v3.3c0,0.8,0,1.5,0.1,2.1H86z
		 M85.7,46.3c-1.7,0-3.7,0.3-3.7,2c0,1,0.7,1.5,1.5,1.5c1.1,0,1.9-0.7,2.1-1.5c0.1-0.2,0.1-0.3,0.1-0.5V46.3z"/>
	<path class="st2" d="M91.7,39.5V42h2.3v1.2h-2.3v4.7c0,1.1,0.3,1.7,1.2,1.7c0.4,0,0.7-0.1,0.9-0.1l0.1,1.2
		c-0.3,0.1-0.8,0.2-1.4,0.2c-0.7,0-1.3-0.2-1.7-0.7c-0.5-0.5-0.6-1.2-0.6-2.3v-4.8h-1.4V42h1.4v-2.1L91.7,39.5z"/>
	<path class="st2" d="M100.5,50.7l-0.1-1.1h-0.1c-0.5,0.7-1.4,1.3-2.7,1.3c-1.8,0-2.7-1.2-2.7-2.5c0-2.1,1.9-3.3,5.2-3.2V45
		c0-0.7-0.2-2-2-2c-0.8,0-1.7,0.3-2.3,0.6l-0.4-1c0.7-0.5,1.8-0.8,2.9-0.8c2.7,0,3.3,1.8,3.3,3.6v3.3c0,0.8,0,1.5,0.1,2.1H100.5z
		 M100.3,46.3c-1.7,0-3.7,0.3-3.7,2c0,1,0.7,1.5,1.5,1.5c1.1,0,1.9-0.7,2.1-1.5c0.1-0.2,0.1-0.3,0.1-0.5V46.3z"/>
	<path class="st2" d="M110,39.6c0,0.5-0.4,1-1,1c-0.6,0-1-0.4-1-1c0-0.6,0.4-1,1-1C109.6,38.6,110,39,110,39.6z M108.2,50.7V42h1.6
		v8.7H108.2z"/>
	<path class="st2" d="M112.2,49.1c0.5,0.3,1.3,0.6,2.1,0.6c1.2,0,1.7-0.6,1.7-1.3c0-0.8-0.5-1.2-1.6-1.6c-1.6-0.6-2.3-1.4-2.3-2.5
		c0-1.4,1.1-2.6,3-2.6c0.9,0,1.7,0.3,2.1,0.5l-0.4,1.2c-0.3-0.2-1-0.5-1.8-0.5c-0.9,0-1.5,0.5-1.5,1.2c0,0.7,0.5,1,1.7,1.5
		c1.5,0.6,2.3,1.3,2.3,2.6c0,1.5-1.2,2.6-3.3,2.6c-1,0-1.8-0.2-2.4-0.6L112.2,49.1z"/>
	<path class="st2" d="M124,42l1.2,4.4c0.3,1,0.5,1.9,0.6,2.8h0.1c0.2-0.9,0.5-1.8,0.8-2.8L128,42h1.3l1.4,4.4c0.3,1,0.6,2,0.8,2.8
		h0.1c0.1-0.9,0.4-1.8,0.7-2.8l1.2-4.4h1.6l-2.8,8.7h-1.4l-1.3-4.2c-0.3-1-0.6-1.8-0.8-2.9h0c-0.2,1-0.5,1.9-0.8,2.9l-1.4,4.1H125
		l-2.6-8.7H124z"/>
	<path class="st2" d="M144.3,46.3c0,3.2-2.2,4.6-4.3,4.6c-2.4,0-4.2-1.7-4.2-4.5c0-2.9,1.9-4.6,4.3-4.6
		C142.6,41.8,144.3,43.6,144.3,46.3z M137.4,46.4c0,1.9,1.1,3.3,2.6,3.3c1.5,0,2.6-1.4,2.6-3.4c0-1.5-0.7-3.3-2.6-3.3
		C138.2,43,137.4,44.7,137.4,46.4z"/>
	<path class="st2" d="M146.3,44.7c0-1,0-1.9-0.1-2.7h1.4l0.1,1.7h0.1c0.4-1.2,1.4-1.9,2.4-1.9c0.2,0,0.3,0,0.5,0.1v1.5
		c-0.2,0-0.3-0.1-0.5-0.1c-1.1,0-1.9,0.8-2.1,2c0,0.2-0.1,0.5-0.1,0.7v4.6h-1.6V44.7z"/>
	<path class="st2" d="M154.5,39.5V42h2.3v1.2h-2.3v4.7c0,1.1,0.3,1.7,1.2,1.7c0.4,0,0.7-0.1,0.9-0.1l0.1,1.2
		c-0.3,0.1-0.8,0.2-1.4,0.2c-0.7,0-1.3-0.2-1.7-0.7c-0.5-0.5-0.6-1.2-0.6-2.3v-4.8h-1.4V42h1.4v-2.1L154.5,39.5z"/>
	<path class="st2" d="M158.6,37.9h1.6v5.4h0c0.3-0.5,0.6-0.8,1.1-1.1c0.5-0.3,1-0.5,1.6-0.5c1.2,0,3,0.7,3,3.7v5.2h-1.6v-5
		c0-1.4-0.5-2.6-2-2.6c-1,0-1.8,0.7-2.1,1.6c-0.1,0.2-0.1,0.5-0.1,0.8v5.3h-1.6V37.9z"/>
	<path class="st2" d="M218.9,50.7v-0.9c1.2-0.6,2.1-1.8,2.1-3.2c0-0.4,0-0.8-0.1-1.3h-1.9v-1.1h1.7c-0.1-0.5-0.2-1.2-0.2-1.9
		c0-2.1,1.5-3.5,3.5-3.5c0.9,0,1.6,0.2,2,0.4l-0.4,1.2c-0.3-0.2-0.8-0.4-1.6-0.4c-1.4,0-2,1-2,2.3c0,0.8,0.1,1.4,0.2,1.9h2.6v1.1
		h-2.4c0.1,0.7,0.1,1.4-0.1,2c-0.2,0.8-0.6,1.4-1.2,1.9v0h5.4v1.3H218.9z"/>
	<path class="st2" d="M231.4,40.5L231.4,40.5l-2.1,1.1l-0.3-1.2l2.6-1.4h1.3v11.7h-1.5V40.5z"/>
	<path class="st2" d="M244.2,40.4h-4.5l-0.5,3c0.3,0,0.5-0.1,1-0.1c0.9,0,1.8,0.2,2.5,0.6c0.9,0.5,1.7,1.5,1.7,3c0,2.3-1.8,4-4.4,4
		c-1.3,0-2.4-0.4-2.9-0.7l0.4-1.2c0.5,0.3,1.4,0.6,2.5,0.6c1.5,0,2.8-1,2.8-2.5c0-1.5-1-2.6-3.4-2.6c-0.7,0-1.2,0.1-1.6,0.1l0.8-5.6
		h5.6V40.4z"/>
	<path class="st2" d="M246.6,49.8c0-0.7,0.5-1.1,1.1-1.1s1.1,0.5,1.1,1.1c0,0.6-0.4,1.1-1.1,1.1C247,50.9,246.6,50.4,246.6,49.8z"/>
	<path class="st2" d="M256.9,40.1c-0.3,0-0.7,0-1.2,0.1c-2.5,0.4-3.8,2.2-4.1,4.2h0.1c0.6-0.7,1.5-1.4,2.8-1.4
		c2.1,0,3.5,1.5,3.5,3.8c0,2.1-1.5,4.1-3.9,4.1c-2.5,0-4.1-1.9-4.1-5c0-2.3,0.8-4.1,2-5.3c1-1,2.3-1.5,3.7-1.7
		c0.5-0.1,0.9-0.1,1.2-0.1V40.1z M256.4,46.9c0-1.7-1-2.7-2.4-2.7c-1,0-1.8,0.6-2.3,1.4c-0.1,0.2-0.2,0.4-0.2,0.7
		c0,1.9,0.9,3.3,2.6,3.3C255.5,49.7,256.4,48.6,256.4,46.9z"/>
	<path class="st2" d="M259.8,48.9c0.5,0.3,1.5,0.7,2.6,0.7c2,0,2.7-1.3,2.6-2.3c0-1.6-1.5-2.3-3-2.3h-0.9v-1.2h0.9
		c1.2,0,2.6-0.6,2.6-2c0-0.9-0.6-1.8-2.1-1.8c-0.9,0-1.8,0.4-2.3,0.8l-0.4-1.2c0.6-0.5,1.8-0.9,3.1-0.9c2.3,0,3.3,1.4,3.3,2.8
		c0,1.2-0.7,2.2-2.2,2.8v0c1.4,0.3,2.6,1.4,2.6,3c0,1.9-1.5,3.5-4.3,3.5c-1.3,0-2.5-0.4-3-0.8L259.8,48.9z"/>
	<path class="st3" d="M33.2,93.2h1.6V104h5.2v1.3h-6.8V93.2z"/>
	<path class="st3" d="M49.3,100.9c0,3.2-2.2,4.6-4.3,4.6c-2.4,0-4.2-1.7-4.2-4.5c0-2.9,1.9-4.6,4.3-4.6
		C47.6,96.4,49.3,98.2,49.3,100.9z M42.3,101c0,1.9,1.1,3.3,2.6,3.3c1.5,0,2.6-1.4,2.6-3.4c0-1.5-0.7-3.3-2.6-3.3
		C43.2,97.6,42.3,99.3,42.3,101z"/>
	<path class="st3" d="M57.5,105c-0.4,0.2-1.3,0.5-2.5,0.5c-2.6,0-4.3-1.8-4.3-4.4c0-2.7,1.8-4.6,4.7-4.6c0.9,0,1.8,0.2,2.2,0.5
		l-0.4,1.2c-0.4-0.2-1-0.4-1.8-0.4c-2,0-3.1,1.5-3.1,3.3c0,2,1.3,3.3,3,3.3c0.9,0,1.5-0.2,1.9-0.4L57.5,105z"/>
	<path class="st3" d="M64.1,105.3l-0.1-1.1H64c-0.5,0.7-1.4,1.3-2.7,1.3c-1.8,0-2.7-1.2-2.7-2.5c0-2.1,1.9-3.3,5.2-3.2v-0.2
		c0-0.7-0.2-2-2-2c-0.8,0-1.7,0.3-2.3,0.6l-0.4-1c0.7-0.5,1.8-0.8,2.9-0.8c2.7,0,3.3,1.8,3.3,3.6v3.3c0,0.8,0,1.5,0.1,2.1H64.1z
		 M63.9,100.9c-1.7,0-3.7,0.3-3.7,2c0,1,0.7,1.5,1.5,1.5c1.1,0,1.9-0.7,2.1-1.5c0.1-0.2,0.1-0.3,0.1-0.5V100.9z"/>
	<path class="st3" d="M69.8,94.1v2.5h2.3v1.2h-2.3v4.7c0,1.1,0.3,1.7,1.2,1.7c0.4,0,0.7-0.1,0.9-0.1l0.1,1.2
		c-0.3,0.1-0.8,0.2-1.4,0.2c-0.7,0-1.3-0.2-1.7-0.7c-0.5-0.5-0.6-1.2-0.6-2.3v-4.8h-1.4v-1.2h1.4v-2.1L69.8,94.1z"/>
	<path class="st3" d="M75.6,94.2c0,0.5-0.4,1-1,1c-0.6,0-1-0.4-1-1c0-0.6,0.4-1,1-1C75.3,93.2,75.6,93.6,75.6,94.2z M73.9,105.3
		v-8.7h1.6v8.7H73.9z"/>
	<path class="st3" d="M86,100.9c0,3.2-2.2,4.6-4.3,4.6c-2.4,0-4.2-1.7-4.2-4.5c0-2.9,1.9-4.6,4.3-4.6C84.3,96.4,86,98.2,86,100.9z
		 M79.1,101c0,1.9,1.1,3.3,2.6,3.3c1.5,0,2.6-1.4,2.6-3.4c0-1.5-0.7-3.3-2.6-3.3C79.9,97.6,79.1,99.3,79.1,101z"/>
	<path class="st3" d="M88,99c0-0.9,0-1.6-0.1-2.4h1.4l0.1,1.4h0c0.4-0.8,1.4-1.6,2.9-1.6c1.2,0,3.1,0.7,3.1,3.7v5.2h-1.6v-5
		c0-1.4-0.5-2.6-2-2.6c-1,0-1.9,0.7-2.1,1.6c-0.1,0.2-0.1,0.5-0.1,0.7v5.2H88V99z"/>
	<path class="st3" d="M109.3,92.5v10.5c0,0.8,0,1.7,0.1,2.3H108l-0.1-1.5h0c-0.5,1-1.5,1.7-3,1.7c-2.1,0-3.7-1.8-3.7-4.4
		c0-2.9,1.8-4.7,3.9-4.7c1.3,0,2.2,0.6,2.6,1.3h0v-5.2H109.3z M107.7,100.2c0-0.2,0-0.5-0.1-0.7c-0.2-1-1.1-1.8-2.3-1.8
		c-1.6,0-2.6,1.4-2.6,3.4c0,1.8,0.9,3.2,2.6,3.2c1.1,0,2-0.7,2.3-1.9c0.1-0.2,0.1-0.4,0.1-0.7V100.2z"/>
	<path class="st3" d="M116.8,105.3l-0.1-1.1h-0.1c-0.5,0.7-1.4,1.3-2.7,1.3c-1.8,0-2.7-1.2-2.7-2.5c0-2.1,1.9-3.3,5.2-3.2v-0.2
		c0-0.7-0.2-2-2-2c-0.8,0-1.7,0.3-2.3,0.6l-0.4-1c0.7-0.5,1.8-0.8,2.9-0.8c2.7,0,3.3,1.8,3.3,3.6v3.3c0,0.8,0,1.5,0.1,2.1H116.8z
		 M116.5,100.9c-1.7,0-3.7,0.3-3.7,2c0,1,0.7,1.5,1.5,1.5c1.1,0,1.9-0.7,2.1-1.5c0.1-0.2,0.1-0.3,0.1-0.5V100.9z"/>
	<path class="st3" d="M122.4,94.1v2.5h2.3v1.2h-2.3v4.7c0,1.1,0.3,1.7,1.2,1.7c0.4,0,0.7-0.1,0.9-0.1l0.1,1.2
		c-0.3,0.1-0.8,0.2-1.4,0.2c-0.7,0-1.3-0.2-1.7-0.7c-0.5-0.5-0.6-1.2-0.6-2.3v-4.8h-1.4v-1.2h1.4v-2.1L122.4,94.1z"/>
	<path class="st3" d="M131.3,105.3l-0.1-1.1h-0.1c-0.5,0.7-1.4,1.3-2.7,1.3c-1.8,0-2.7-1.2-2.7-2.5c0-2.1,1.9-3.3,5.2-3.2v-0.2
		c0-0.7-0.2-2-2-2c-0.8,0-1.7,0.3-2.3,0.6l-0.4-1c0.7-0.5,1.8-0.8,2.9-0.8c2.7,0,3.3,1.8,3.3,3.6v3.3c0,0.8,0,1.5,0.1,2.1H131.3z
		 M131.1,100.9c-1.7,0-3.7,0.3-3.7,2c0,1,0.7,1.5,1.5,1.5c1.1,0,1.9-0.7,2.1-1.5c0.1-0.2,0.1-0.3,0.1-0.5V100.9z"/>
	<path class="st3" d="M242.2,105.3v-0.9c1.2-0.6,2.1-1.8,2.1-3.2c0-0.4,0-0.8-0.1-1.3h-1.9v-1.1h1.7c-0.1-0.5-0.2-1.2-0.2-1.9
		c0-2.1,1.5-3.5,3.5-3.5c0.9,0,1.6,0.2,2,0.5l-0.4,1.2c-0.3-0.2-0.8-0.4-1.6-0.4c-1.4,0-2,1-2,2.3c0,0.8,0.1,1.4,0.2,1.9h2.6v1.1
		h-2.4c0.1,0.7,0.1,1.4-0.1,2c-0.2,0.8-0.6,1.4-1.2,1.9v0h5.4v1.3H242.2z"/>
	<path class="st3" d="M251.1,102.4c0-1.5,0.9-2.5,2.3-3.1l0-0.1c-1.3-0.6-1.9-1.6-1.9-2.6c0-1.9,1.6-3.1,3.6-3.1
		c2.3,0,3.4,1.4,3.4,2.9c0,1-0.5,2.1-1.9,2.7v0.1c1.5,0.6,2.4,1.6,2.4,3c0,2-1.7,3.4-4,3.4C252.6,105.5,251.1,104.1,251.1,102.4z
		 M257.4,102.3c0-1.4-1-2.1-2.6-2.6c-1.4,0.4-2.1,1.3-2.1,2.4c-0.1,1.2,0.8,2.2,2.3,2.2C256.5,104.4,257.4,103.5,257.4,102.3z
		 M253,96.4c0,1.2,0.9,1.8,2.2,2.2c1-0.3,1.8-1.1,1.8-2.1c0-0.9-0.6-1.9-2-1.9C253.8,94.6,253,95.4,253,96.4z"/>
	<path class="st3" d="M260.6,104.4c0-0.7,0.5-1.1,1.1-1.1s1.1,0.5,1.1,1.1c0,0.6-0.4,1.1-1.1,1.1C261,105.5,260.6,105,260.6,104.4z"
		/>
	<path class="st3" d="M272,99.4c0,4-1.5,6.2-4.1,6.2c-2.3,0-3.8-2.1-3.9-6c0-3.9,1.7-6.1,4.1-6.1C270.6,93.4,272,95.6,272,99.4z
		 M265.6,99.5c0,3,0.9,4.8,2.4,4.8c1.6,0,2.4-1.9,2.4-4.9c0-2.9-0.7-4.8-2.4-4.8C266.6,94.7,265.6,96.3,265.6,99.5z"/>
	<path class="st3" d="M281.2,99.4c0,4-1.5,6.2-4.1,6.2c-2.3,0-3.8-2.1-3.9-6c0-3.9,1.7-6.1,4.1-6.1
		C279.8,93.4,281.2,95.6,281.2,99.4z M274.9,99.5c0,3,0.9,4.8,2.4,4.8c1.6,0,2.4-1.9,2.4-4.9c0-2.9-0.7-4.8-2.4-4.8
		C275.9,94.7,274.9,96.3,274.9,99.5z"/>
	<path class="st3" d="M34.8,126.2v5.1h5.9v-5.1h1.6v12.1h-1.6v-5.7h-5.9v5.7h-1.6v-12.1H34.8z"/>
	<path class="st3" d="M45.7,134.3c0,2.1,1.4,3,3,3c1.1,0,1.8-0.2,2.4-0.5l0.3,1.1c-0.6,0.3-1.5,0.5-2.9,0.5c-2.7,0-4.3-1.8-4.3-4.4
		c0-2.6,1.5-4.7,4.1-4.7c2.8,0,3.6,2.5,3.6,4.1c0,0.3,0,0.6-0.1,0.7H45.7z M50.4,133.1c0-1-0.4-2.6-2.2-2.6c-1.6,0-2.3,1.5-2.4,2.6
		H50.4z"/>
	<path class="st3" d="M58.7,138.3l-0.1-1.1h-0.1c-0.5,0.7-1.4,1.3-2.7,1.3c-1.8,0-2.7-1.2-2.7-2.5c0-2.1,1.9-3.3,5.2-3.2v-0.2
		c0-0.7-0.2-2-2-2c-0.8,0-1.7,0.3-2.3,0.6l-0.4-1c0.7-0.5,1.8-0.8,2.9-0.8c2.7,0,3.3,1.8,3.3,3.6v3.3c0,0.8,0,1.5,0.1,2.1H58.7z
		 M58.5,133.9c-1.7,0-3.7,0.3-3.7,2c0,1,0.7,1.5,1.5,1.5c1.1,0,1.9-0.7,2.1-1.5c0.1-0.2,0.1-0.3,0.1-0.5V133.9z"/>
	<path class="st3" d="M64.4,127.1v2.5h2.3v1.2h-2.3v4.7c0,1.1,0.3,1.7,1.2,1.7c0.4,0,0.7-0.1,0.9-0.1l0.1,1.2
		c-0.3,0.1-0.8,0.2-1.4,0.2c-0.7,0-1.3-0.2-1.7-0.7c-0.5-0.5-0.6-1.2-0.6-2.3v-4.8h-1.4v-1.2h1.4v-2.1L64.4,127.1z"/>
	<path class="st3" d="M70.2,127.2c0,0.5-0.4,1-1,1c-0.6,0-1-0.4-1-1c0-0.6,0.4-1,1-1C69.8,126.2,70.2,126.6,70.2,127.2z M68.4,138.3
		v-8.7H70v8.7H68.4z"/>
	<path class="st3" d="M72.7,132c0-0.9,0-1.6-0.1-2.4H74l0.1,1.4h0c0.4-0.8,1.4-1.6,2.9-1.6c1.2,0,3.1,0.7,3.1,3.7v5.2h-1.6v-5
		c0-1.4-0.5-2.6-2-2.6c-1,0-1.9,0.7-2.1,1.6c-0.1,0.2-0.1,0.5-0.1,0.7v5.2h-1.6V132z"/>
	<path class="st3" d="M90.2,129.6c0,0.6-0.1,1.3-0.1,2.4v5.1c0,2-0.4,3.2-1.2,4c-0.8,0.8-2.1,1-3.2,1c-1,0-2.2-0.3-2.9-0.7l0.4-1.2
		c0.6,0.4,1.5,0.7,2.6,0.7c1.6,0,2.8-0.8,2.8-3v-1h0c-0.5,0.8-1.4,1.5-2.8,1.5c-2.2,0-3.7-1.8-3.7-4.2c0-3,1.9-4.6,3.9-4.6
		c1.5,0,2.3,0.8,2.7,1.5h0l0.1-1.3H90.2z M88.5,133.1c0-0.3,0-0.5-0.1-0.7c-0.3-0.9-1.1-1.7-2.2-1.7c-1.5,0-2.6,1.3-2.6,3.3
		c0,1.7,0.9,3.1,2.6,3.1c1,0,1.9-0.6,2.2-1.6c0.1-0.3,0.1-0.6,0.1-0.8V133.1z"/>
	<path class="st3" d="M98.3,127.2c0,0.5-0.4,1-1,1c-0.6,0-1-0.4-1-1c0-0.6,0.4-1,1-1C97.9,126.2,98.3,126.6,98.3,127.2z M96.5,138.3
		v-8.7h1.6v8.7H96.5z"/>
	<path class="st3" d="M100.7,132c0-0.9,0-1.6-0.1-2.4h1.4l0.1,1.4h0c0.4-0.8,1.4-1.6,2.9-1.6c1.2,0,3.1,0.7,3.1,3.7v5.2h-1.6v-5
		c0-1.4-0.5-2.6-2-2.6c-1,0-1.9,0.7-2.1,1.6c-0.1,0.2-0.1,0.5-0.1,0.7v5.2h-1.6V132z"/>
	<path class="st3" d="M110.9,138.3v-7.5h-1.2v-1.2h1.2v-0.4c0-1.2,0.3-2.3,1-3c0.6-0.6,1.4-0.8,2.1-0.8c0.6,0,1,0.1,1.4,0.3
		l-0.2,1.2c-0.2-0.1-0.6-0.2-1-0.2c-1.4,0-1.7,1.2-1.7,2.5v0.5h2.1v1.2h-2.1v7.5H110.9z"/>
	<path class="st3" d="M123.6,133.9c0,3.2-2.2,4.6-4.3,4.6c-2.4,0-4.2-1.7-4.2-4.5c0-2.9,1.9-4.6,4.3-4.6
		C121.9,129.4,123.6,131.2,123.6,133.9z M116.7,134c0,1.9,1.1,3.3,2.6,3.3c1.5,0,2.6-1.4,2.6-3.4c0-1.5-0.7-3.3-2.6-3.3
		C117.5,130.6,116.7,132.3,116.7,134z"/>
	<path class="st3" d="M125.6,132.3c0-1,0-1.9-0.1-2.7h1.4l0.1,1.7h0.1c0.4-1.2,1.4-1.9,2.4-1.9c0.2,0,0.3,0,0.5,0.1v1.5
		c-0.2,0-0.3-0.1-0.5-0.1c-1.1,0-1.9,0.8-2.1,2c0,0.2-0.1,0.5-0.1,0.7v4.6h-1.6V132.3z"/>
	<path class="st3" d="M131.6,132c0-0.9,0-1.6-0.1-2.4h1.4l0.1,1.4h0.1c0.5-0.8,1.3-1.6,2.7-1.6c1.2,0,2.1,0.7,2.5,1.7h0
		c0.3-0.5,0.6-0.9,1-1.1c0.5-0.4,1.1-0.6,1.9-0.6c1.2,0,2.9,0.8,2.9,3.8v5.1h-1.5v-4.9c0-1.7-0.6-2.7-1.9-2.7
		c-0.9,0-1.6,0.7-1.9,1.4c-0.1,0.2-0.1,0.5-0.1,0.8v5.4H137v-5.2c0-1.4-0.6-2.4-1.8-2.4c-1,0-1.7,0.8-2,1.6
		c-0.1,0.2-0.1,0.5-0.1,0.8v5.3h-1.5V132z"/>
	<path class="st3" d="M151.4,138.3l-0.1-1.1h-0.1c-0.5,0.7-1.4,1.3-2.7,1.3c-1.8,0-2.7-1.2-2.7-2.5c0-2.1,1.9-3.3,5.2-3.2v-0.2
		c0-0.7-0.2-2-2-2c-0.8,0-1.7,0.3-2.3,0.6l-0.4-1c0.7-0.5,1.8-0.8,2.9-0.8c2.7,0,3.3,1.8,3.3,3.6v3.3c0,0.8,0,1.5,0.1,2.1H151.4z
		 M151.2,133.9c-1.7,0-3.7,0.3-3.7,2c0,1,0.7,1.5,1.5,1.5c1.1,0,1.9-0.7,2.1-1.5c0.1-0.2,0.1-0.3,0.1-0.5V133.9z"/>
	<path class="st3" d="M157.1,127.1v2.5h2.3v1.2h-2.3v4.7c0,1.1,0.3,1.7,1.2,1.7c0.4,0,0.7-0.1,0.9-0.1l0.1,1.2
		c-0.3,0.1-0.8,0.2-1.4,0.2c-0.7,0-1.3-0.2-1.7-0.7c-0.5-0.5-0.6-1.2-0.6-2.3v-4.8h-1.4v-1.2h1.4v-2.1L157.1,127.1z"/>
	<path class="st3" d="M162.9,127.2c0,0.5-0.4,1-1,1c-0.6,0-1-0.4-1-1c0-0.6,0.4-1,1-1C162.5,126.2,162.9,126.6,162.9,127.2z
		 M161.2,138.3v-8.7h1.6v8.7H161.2z"/>
	<path class="st3" d="M173.3,133.9c0,3.2-2.2,4.6-4.3,4.6c-2.4,0-4.2-1.7-4.2-4.5c0-2.9,1.9-4.6,4.3-4.6
		C171.6,129.4,173.3,131.2,173.3,133.9z M166.3,134c0,1.9,1.1,3.3,2.6,3.3c1.5,0,2.6-1.4,2.6-3.4c0-1.5-0.7-3.3-2.6-3.3
		C167.2,130.6,166.3,132.3,166.3,134z"/>
	<path class="st3" d="M175.3,132c0-0.9,0-1.6-0.1-2.4h1.4l0.1,1.4h0c0.4-0.8,1.4-1.6,2.9-1.6c1.2,0,3.1,0.7,3.1,3.7v5.2h-1.6v-5
		c0-1.4-0.5-2.6-2-2.6c-1,0-1.9,0.7-2.1,1.6c-0.1,0.2-0.1,0.5-0.1,0.7v5.2h-1.6V132z"/>
	<path class="st3" d="M218.9,138.3v-0.9c1.2-0.6,2.1-1.8,2.1-3.2c0-0.4,0-0.8-0.1-1.3h-1.9v-1.1h1.7c-0.1-0.5-0.2-1.2-0.2-1.9
		c0-2.1,1.5-3.5,3.5-3.5c0.9,0,1.6,0.2,2,0.5l-0.4,1.2c-0.3-0.2-0.8-0.4-1.6-0.4c-1.4,0-2,1-2,2.3c0,0.8,0.1,1.4,0.2,1.9h2.6v1.1
		h-2.4c0.1,0.7,0.1,1.4-0.1,2c-0.2,0.8-0.6,1.4-1.2,1.9v0h5.4v1.3H218.9z"/>
	<path class="st3" d="M228,138.3v-1l1.2-1.2c3-2.8,4.3-4.4,4.4-6.1c0-1.2-0.6-2.3-2.3-2.3c-1.1,0-1.9,0.5-2.5,1l-0.5-1.1
		c0.8-0.7,2-1.2,3.3-1.2c2.5,0,3.6,1.7,3.6,3.4c0,2.2-1.6,3.9-4,6.3l-0.9,0.9v0h5.3v1.3H228z"/>
	<path class="st3" d="M237.3,137.4c0-0.7,0.5-1.1,1.1-1.1s1.1,0.5,1.1,1.1c0,0.6-0.4,1.1-1.1,1.1C237.8,138.5,237.3,138,237.3,137.4
		z"/>
	<path class="st3" d="M247.9,128h-4.5l-0.5,3c0.3,0,0.5-0.1,1-0.1c0.9,0,1.8,0.2,2.5,0.6c0.9,0.5,1.7,1.5,1.7,3c0,2.3-1.8,4-4.4,4
		c-1.3,0-2.4-0.4-2.9-0.7l0.4-1.2c0.5,0.3,1.4,0.6,2.5,0.6c1.5,0,2.8-1,2.8-2.5c0-1.5-1-2.6-3.4-2.6c-0.7,0-1.2,0.1-1.6,0.1l0.8-5.6
		h5.6V128z"/>
	<path class="st3" d="M258,132.4c0,4-1.5,6.2-4.1,6.2c-2.3,0-3.8-2.1-3.9-6c0-3.9,1.7-6.1,4.1-6.1C256.5,126.4,258,128.6,258,132.4z
		 M251.6,132.5c0,3,0.9,4.8,2.4,4.8c1.6,0,2.4-1.9,2.4-4.9c0-2.9-0.7-4.8-2.4-4.8C252.6,127.7,251.6,129.3,251.6,132.5z"/>
	<path class="st3" d="M33.2,159.2h6.5v1.3h-5v4h4.6v1.3h-4.6v5.5h-1.6V159.2z"/>
	<path class="st3" d="M45.9,171.3l-0.1-1.1h-0.1c-0.5,0.7-1.4,1.3-2.7,1.3c-1.8,0-2.7-1.2-2.7-2.5c0-2.1,1.9-3.3,5.2-3.2v-0.2
		c0-0.7-0.2-2-2-2c-0.8,0-1.7,0.3-2.3,0.6l-0.4-1c0.7-0.5,1.8-0.8,2.9-0.8c2.7,0,3.3,1.8,3.3,3.6v3.3c0,0.8,0,1.5,0.1,2.1H45.9z
		 M45.7,166.9c-1.7,0-3.7,0.3-3.7,2c0,1,0.7,1.5,1.5,1.5c1.1,0,1.9-0.7,2.1-1.5c0.1-0.2,0.1-0.3,0.1-0.5V166.9z"/>
	<path class="st3" d="M56,171c-0.4,0.2-1.3,0.5-2.5,0.5c-2.6,0-4.3-1.8-4.3-4.4c0-2.7,1.8-4.6,4.7-4.6c0.9,0,1.8,0.2,2.2,0.5
		l-0.4,1.2c-0.4-0.2-1-0.4-1.8-0.4c-2,0-3.1,1.5-3.1,3.3c0,2,1.3,3.3,3,3.3c0.9,0,1.5-0.2,1.9-0.4L56,171z"/>
	<path class="st3" d="M58.6,167.3c0,2.1,1.4,3,3,3c1.1,0,1.8-0.2,2.4-0.5l0.3,1.1c-0.6,0.3-1.5,0.5-2.9,0.5c-2.7,0-4.3-1.8-4.3-4.4
		s1.5-4.7,4.1-4.7c2.8,0,3.6,2.5,3.6,4.1c0,0.3,0,0.6-0.1,0.7H58.6z M63.2,166.1c0-1-0.4-2.6-2.2-2.6c-1.6,0-2.3,1.5-2.4,2.6H63.2z"
		/>
	<path class="st3" d="M66.7,171.3c0-0.6,0.1-1.5,0.1-2.2v-10.5h1.6v5.5h0c0.6-1,1.6-1.6,3-1.6c2.2,0,3.7,1.8,3.7,4.4
		c0,3.1-2,4.7-3.9,4.7c-1.3,0-2.3-0.5-2.9-1.6h-0.1l-0.1,1.4H66.7z M68.3,167.8c0,0.2,0,0.4,0.1,0.6c0.3,1.1,1.2,1.9,2.4,1.9
		c1.7,0,2.6-1.3,2.6-3.3c0-1.7-0.9-3.2-2.6-3.2c-1.1,0-2.1,0.7-2.4,1.9c0,0.2-0.1,0.4-0.1,0.6V167.8z"/>
	<path class="st3" d="M84.9,166.9c0,3.2-2.2,4.6-4.3,4.6c-2.4,0-4.2-1.7-4.2-4.5c0-2.9,1.9-4.6,4.3-4.6
		C83.2,162.4,84.9,164.2,84.9,166.9z M78,167c0,1.9,1.1,3.3,2.6,3.3c1.5,0,2.6-1.4,2.6-3.4c0-1.5-0.7-3.3-2.6-3.3
		C78.8,163.6,78,165.3,78,167z"/>
	<path class="st3" d="M94.7,166.9c0,3.2-2.2,4.6-4.3,4.6c-2.4,0-4.2-1.7-4.2-4.5c0-2.9,1.9-4.6,4.3-4.6
		C93.1,162.4,94.7,164.2,94.7,166.9z M87.8,167c0,1.9,1.1,3.3,2.6,3.3c1.5,0,2.6-1.4,2.6-3.4c0-1.5-0.7-3.3-2.6-3.3
		C88.6,163.6,87.8,165.3,87.8,167z"/>
	<path class="st3" d="M98.3,166.6L98.3,166.6c0.3-0.3,0.6-0.7,0.8-1l2.6-3h1.9l-3.4,3.6l3.8,5.1h-1.9l-3-4.2l-0.8,0.9v3.3h-1.6
		v-12.8h1.6V166.6z"/>
	<path class="st3" d="M242.2,171.3v-0.9c1.2-0.6,2.1-1.8,2.1-3.2c0-0.4,0-0.8-0.1-1.3h-1.9v-1.1h1.7c-0.1-0.5-0.2-1.2-0.2-1.9
		c0-2.1,1.5-3.5,3.5-3.5c0.9,0,1.6,0.2,2,0.4l-0.4,1.2c-0.3-0.2-0.8-0.4-1.6-0.4c-1.4,0-2,1-2,2.3c0,0.8,0.1,1.4,0.2,1.9h2.6v1.1
		h-2.4c0.1,0.7,0.1,1.4-0.1,2c-0.2,0.8-0.6,1.4-1.2,1.9v0h5.4v1.3H242.2z"/>
	<path class="st3" d="M259,165.4c0,4-1.5,6.2-4.1,6.2c-2.3,0-3.8-2.1-3.9-6c0-3.9,1.7-6.1,4.1-6.1C257.6,159.4,259,161.6,259,165.4z
		 M252.7,165.5c0,3,0.9,4.8,2.4,4.8c1.6,0,2.4-1.9,2.4-4.9c0-2.9-0.7-4.8-2.4-4.8C253.7,160.7,252.7,162.3,252.7,165.5z"/>
	<path class="st3" d="M260.6,170.4c0-0.7,0.5-1.1,1.1-1.1s1.1,0.5,1.1,1.1c0,0.6-0.4,1.1-1.1,1.1C261,171.5,260.6,171,260.6,170.4z"
		/>
	<path class="st3" d="M270.9,160.7c-0.3,0-0.7,0-1.2,0.1c-2.5,0.4-3.8,2.2-4.1,4.2h0.1c0.6-0.7,1.5-1.3,2.8-1.3
		c2.1,0,3.5,1.5,3.5,3.8c0,2.1-1.5,4.1-3.9,4.1c-2.5,0-4.1-1.9-4.1-5c0-2.3,0.8-4.1,2-5.3c1-1,2.3-1.5,3.7-1.7
		c0.5-0.1,0.9-0.1,1.2-0.1V160.7z M270.4,167.5c0-1.7-1-2.7-2.4-2.7c-1,0-1.8,0.6-2.3,1.4c-0.1,0.2-0.2,0.4-0.2,0.7
		c0,1.9,0.9,3.3,2.6,3.3C269.5,170.3,270.4,169.2,270.4,167.5z"/>
	<path class="st3" d="M273.8,169.5c0.5,0.3,1.5,0.7,2.6,0.7c2,0,2.7-1.3,2.6-2.3c0-1.6-1.5-2.3-3-2.3h-0.9v-1.2h0.9
		c1.2,0,2.6-0.6,2.6-2c0-0.9-0.6-1.8-2.1-1.8c-0.9,0-1.8,0.4-2.3,0.8l-0.4-1.2c0.6-0.5,1.8-0.9,3.1-0.9c2.3,0,3.3,1.4,3.3,2.8
		c0,1.2-0.7,2.2-2.2,2.8v0c1.4,0.3,2.6,1.4,2.6,3c0,1.9-1.5,3.5-4.3,3.5c-1.3,0-2.5-0.4-3-0.8L273.8,169.5z"/>
	<path class="st3" d="M41.7,203.9c-0.6,0.3-1.7,0.6-3.2,0.6c-3.4,0-6-2.2-6-6.1c0-3.8,2.6-6.4,6.3-6.4c1.5,0,2.5,0.3,2.9,0.5
		l-0.4,1.3c-0.6-0.3-1.4-0.5-2.4-0.5c-2.8,0-4.7,1.8-4.7,5c0,3,1.7,4.9,4.7,4.9c1,0,1.9-0.2,2.6-0.5L41.7,203.9z"/>
	<path class="st3" d="M51.3,199.9c0,3.2-2.2,4.6-4.3,4.6c-2.4,0-4.2-1.7-4.2-4.5c0-2.9,1.9-4.6,4.3-4.6
		C49.6,195.4,51.3,197.2,51.3,199.9z M44.3,200c0,1.9,1.1,3.3,2.6,3.3c1.5,0,2.6-1.4,2.6-3.4c0-1.5-0.7-3.3-2.6-3.3
		C45.2,196.6,44.3,198.3,44.3,200z"/>
	<path class="st3" d="M53.3,198c0-0.9,0-1.6-0.1-2.4h1.4l0.1,1.4h0c0.4-0.8,1.4-1.6,2.9-1.6c1.2,0,3.1,0.7,3.1,3.7v5.2h-1.6v-5
		c0-1.4-0.5-2.6-2-2.6c-1,0-1.9,0.7-2.1,1.6c-0.1,0.2-0.1,0.5-0.1,0.7v5.2h-1.6V198z"/>
	<path class="st3" d="M65.1,193.1v2.5h2.3v1.2h-2.3v4.7c0,1.1,0.3,1.7,1.2,1.7c0.4,0,0.7-0.1,0.9-0.1l0.1,1.2
		c-0.3,0.1-0.8,0.2-1.4,0.2c-0.7,0-1.3-0.2-1.7-0.7c-0.5-0.5-0.6-1.2-0.6-2.3v-4.8h-1.4v-1.2h1.4v-2.1L65.1,193.1z"/>
	<path class="st3" d="M74,204.3l-0.1-1.1h-0.1c-0.5,0.7-1.4,1.3-2.7,1.3c-1.8,0-2.7-1.2-2.7-2.5c0-2.1,1.9-3.3,5.2-3.2v-0.2
		c0-0.7-0.2-2-2-2c-0.8,0-1.7,0.3-2.3,0.6l-0.4-1c0.7-0.5,1.8-0.8,2.9-0.8c2.7,0,3.3,1.8,3.3,3.6v3.3c0,0.8,0,1.5,0.1,2.1H74z
		 M73.7,199.9c-1.7,0-3.7,0.3-3.7,2c0,1,0.7,1.5,1.5,1.5c1.1,0,1.9-0.7,2.1-1.5c0.1-0.2,0.1-0.3,0.1-0.5V199.9z"/>
	<path class="st3" d="M84,204c-0.4,0.2-1.3,0.5-2.5,0.5c-2.6,0-4.3-1.8-4.3-4.4c0-2.7,1.8-4.6,4.7-4.6c0.9,0,1.8,0.2,2.2,0.5
		l-0.4,1.2c-0.4-0.2-1-0.4-1.8-0.4c-2,0-3.1,1.5-3.1,3.3c0,2,1.3,3.3,3,3.3c0.9,0,1.5-0.2,1.9-0.4L84,204z"/>
	<path class="st3" d="M88,193.1v2.5h2.3v1.2H88v4.7c0,1.1,0.3,1.7,1.2,1.7c0.4,0,0.7-0.1,0.9-0.1l0.1,1.2c-0.3,0.1-0.8,0.2-1.4,0.2
		c-0.7,0-1.3-0.2-1.7-0.7c-0.5-0.5-0.6-1.2-0.6-2.3v-4.8h-1.4v-1.2h1.4v-2.1L88,193.1z"/>
	<path class="st3" d="M91.8,202.7c0.5,0.3,1.3,0.6,2.1,0.6c1.2,0,1.7-0.6,1.7-1.3c0-0.8-0.5-1.2-1.6-1.6c-1.6-0.6-2.3-1.4-2.3-2.5
		c0-1.4,1.1-2.6,3-2.6c0.9,0,1.7,0.3,2.1,0.5l-0.4,1.2c-0.3-0.2-1-0.5-1.8-0.5c-0.9,0-1.5,0.5-1.5,1.2c0,0.7,0.5,1,1.7,1.5
		c1.5,0.6,2.3,1.3,2.3,2.6c0,1.5-1.2,2.6-3.3,2.6c-1,0-1.8-0.2-2.4-0.6L91.8,202.7z"/>
	<path class="st3" d="M218.9,204.3v-0.9c1.2-0.6,2.1-1.8,2.1-3.2c0-0.4,0-0.8-0.1-1.3h-1.9v-1.1h1.7c-0.1-0.5-0.2-1.2-0.2-1.9
		c0-2.1,1.5-3.5,3.5-3.5c0.9,0,1.6,0.2,2,0.4l-0.4,1.2c-0.3-0.2-0.8-0.4-1.6-0.4c-1.4,0-2,1-2,2.3c0,0.8,0.1,1.4,0.2,1.9h2.6v1.1
		h-2.4c0.1,0.7,0.1,1.4-0.1,2c-0.2,0.8-0.6,1.4-1.2,1.9v0h5.4v1.3H218.9z"/>
	<path class="st3" d="M228,204.3v-1l1.2-1.2c3-2.8,4.3-4.4,4.4-6.1c0-1.2-0.6-2.3-2.3-2.3c-1.1,0-1.9,0.5-2.5,1l-0.5-1.1
		c0.8-0.7,2-1.2,3.3-1.2c2.5,0,3.6,1.7,3.6,3.4c0,2.2-1.6,3.9-4,6.3l-0.9,0.9v0h5.3v1.3H228z"/>
	<path class="st3" d="M237.3,203.4c0-0.7,0.5-1.1,1.1-1.1s1.1,0.5,1.1,1.1c0,0.6-0.4,1.1-1.1,1.1C237.8,204.5,237.3,204,237.3,203.4
		z"/>
	<path class="st3" d="M248.7,198.4c0,4-1.5,6.2-4.1,6.2c-2.3,0-3.8-2.1-3.9-6c0-3.9,1.7-6.1,4.1-6.1
		C247.3,192.4,248.7,194.6,248.7,198.4z M242.4,198.5c0,3,0.9,4.8,2.4,4.8c1.6,0,2.4-1.9,2.4-4.9c0-2.9-0.7-4.8-2.4-4.8
		C243.4,193.7,242.4,195.3,242.4,198.5z"/>
	<path class="st3" d="M258,198.4c0,4-1.5,6.2-4.1,6.2c-2.3,0-3.8-2.1-3.9-6c0-3.9,1.7-6.1,4.1-6.1C256.6,192.4,258,194.6,258,198.4z
		 M251.6,198.5c0,3,0.9,4.8,2.4,4.8c1.6,0,2.4-1.9,2.4-4.9c0-2.9-0.7-4.8-2.4-4.8C252.6,193.7,251.6,195.3,251.6,198.5z"/>
	<path class="st3" d="M33.2,225.4c0.7-0.1,1.8-0.3,2.9-0.3c1.6,0,2.6,0.3,3.3,0.9c0.6,0.5,1,1.2,1,2.1c0,1.2-0.8,2.2-2.1,2.7v0
		c1.2,0.3,2.5,1.2,2.5,3c0,1-0.4,1.8-1,2.4c-0.8,0.8-2.2,1.1-4.2,1.1c-1.1,0-1.9-0.1-2.4-0.1V225.4z M34.8,230.3h1.4
		c1.7,0,2.6-0.9,2.6-2c0-1.4-1.1-2-2.7-2c-0.7,0-1.1,0.1-1.4,0.1V230.3z M34.8,236.1c0.3,0.1,0.8,0.1,1.3,0.1c1.6,0,3.1-0.6,3.1-2.4
		c0-1.7-1.4-2.3-3.1-2.3h-1.3V236.1z"/>
	<path class="st3" d="M42.9,231.3c0-1,0-1.9-0.1-2.7h1.4l0.1,1.7h0.1c0.4-1.2,1.4-1.9,2.4-1.9c0.2,0,0.3,0,0.4,0.1v1.5
		c-0.2,0-0.3-0.1-0.5-0.1c-1.1,0-1.9,0.8-2.1,2c0,0.2-0.1,0.5-0.1,0.7v4.6h-1.6V231.3z"/>
	<path class="st3" d="M56.5,232.9c0,3.2-2.2,4.6-4.3,4.6c-2.4,0-4.2-1.7-4.2-4.5c0-2.9,1.9-4.6,4.3-4.6
		C54.8,228.4,56.5,230.2,56.5,232.9z M49.6,233c0,1.9,1.1,3.3,2.6,3.3c1.5,0,2.6-1.4,2.6-3.4c0-1.5-0.7-3.3-2.6-3.3
		C50.4,229.6,49.6,231.3,49.6,233z"/>
	<path class="st3" d="M59,228.6l1.2,4.4c0.3,1,0.5,1.9,0.6,2.8h0.1c0.2-0.9,0.5-1.8,0.8-2.8l1.4-4.4h1.3l1.4,4.4
		c0.3,1,0.6,2,0.8,2.8h0.1c0.1-0.9,0.4-1.8,0.7-2.8l1.2-4.4H70l-2.8,8.7h-1.4l-1.3-4.2c-0.3-1-0.6-1.8-0.8-2.9h0
		c-0.2,1-0.5,1.9-0.8,2.9l-1.4,4.1H60l-2.6-8.7H59z"/>
	<path class="st3" d="M71.3,235.7c0.5,0.3,1.3,0.6,2.1,0.6c1.2,0,1.7-0.6,1.7-1.3c0-0.8-0.5-1.2-1.6-1.6c-1.6-0.6-2.3-1.4-2.3-2.5
		c0-1.4,1.1-2.6,3-2.6c0.9,0,1.7,0.3,2.1,0.5l-0.4,1.2c-0.3-0.2-1-0.5-1.8-0.5c-0.9,0-1.5,0.5-1.5,1.2c0,0.7,0.5,1,1.7,1.5
		c1.5,0.6,2.3,1.3,2.3,2.6c0,1.5-1.2,2.6-3.3,2.6c-1,0-1.8-0.2-2.4-0.6L71.3,235.7z"/>
	<path class="st3" d="M80.4,226.2c0,0.5-0.4,1-1,1c-0.6,0-1-0.4-1-1c0-0.6,0.4-1,1-1C80,225.2,80.4,225.6,80.4,226.2z M78.6,237.3
		v-8.7h1.6v8.7H78.6z"/>
	<path class="st3" d="M82.8,231c0-0.9,0-1.6-0.1-2.4h1.4l0.1,1.4h0c0.4-0.8,1.4-1.6,2.9-1.6c1.2,0,3.1,0.7,3.1,3.7v5.2h-1.6v-5
		c0-1.4-0.5-2.6-2-2.6c-1,0-1.9,0.7-2.1,1.6c-0.1,0.2-0.1,0.5-0.1,0.7v5.2h-1.6V231z"/>
	<path class="st3" d="M100.3,228.6c0,0.6-0.1,1.3-0.1,2.4v5.1c0,2-0.4,3.2-1.2,4c-0.8,0.8-2.1,1-3.2,1c-1,0-2.2-0.3-2.9-0.7l0.4-1.2
		c0.6,0.4,1.5,0.7,2.6,0.7c1.6,0,2.8-0.8,2.8-3v-1h0c-0.5,0.8-1.4,1.5-2.8,1.5c-2.2,0-3.7-1.8-3.7-4.2c0-3,1.9-4.6,3.9-4.6
		c1.5,0,2.3,0.8,2.7,1.5h0l0.1-1.3H100.3z M98.7,232.1c0-0.3,0-0.5-0.1-0.7c-0.3-0.9-1.1-1.7-2.2-1.7c-1.5,0-2.6,1.3-2.6,3.3
		c0,1.7,0.9,3.1,2.6,3.1c1,0,1.9-0.6,2.2-1.6c0.1-0.3,0.1-0.6,0.1-0.8V232.1z"/>
	<path class="st3" d="M106.7,224.5h1.6v5.4h0c0.3-0.5,0.6-0.8,1.1-1.1c0.5-0.3,1-0.5,1.6-0.5c1.2,0,3,0.7,3,3.7v5.2h-1.6v-5
		c0-1.4-0.5-2.6-2-2.6c-1,0-1.8,0.7-2.1,1.6c-0.1,0.2-0.1,0.5-0.1,0.8v5.3h-1.6V224.5z"/>
	<path class="st3" d="M118.4,226.2c0,0.5-0.4,1-1,1c-0.6,0-1-0.4-1-1c0-0.6,0.4-1,1-1C118.1,225.2,118.4,225.6,118.4,226.2z
		 M116.7,237.3v-8.7h1.6v8.7H116.7z"/>
	<path class="st3" d="M120.7,235.7c0.5,0.3,1.3,0.6,2.1,0.6c1.2,0,1.7-0.6,1.7-1.3c0-0.8-0.5-1.2-1.6-1.6c-1.6-0.6-2.3-1.4-2.3-2.5
		c0-1.4,1.1-2.6,3-2.6c0.9,0,1.7,0.3,2.1,0.5l-0.4,1.2c-0.3-0.2-1-0.5-1.8-0.5c-0.9,0-1.5,0.5-1.5,1.2c0,0.7,0.5,1,1.7,1.5
		c1.5,0.6,2.3,1.3,2.3,2.6c0,1.5-1.2,2.6-3.3,2.6c-1,0-1.8-0.2-2.4-0.6L120.7,235.7z"/>
	<path class="st3" d="M129.9,226.1v2.5h2.3v1.2h-2.3v4.7c0,1.1,0.3,1.7,1.2,1.7c0.4,0,0.7-0.1,0.9-0.1l0.1,1.2
		c-0.3,0.1-0.8,0.2-1.4,0.2c-0.7,0-1.3-0.2-1.7-0.7c-0.5-0.5-0.6-1.2-0.6-2.3v-4.8H127v-1.2h1.4v-2.1L129.9,226.1z"/>
	<path class="st3" d="M141.8,232.9c0,3.2-2.2,4.6-4.3,4.6c-2.4,0-4.2-1.7-4.2-4.5c0-2.9,1.9-4.6,4.3-4.6
		C140.1,228.4,141.8,230.2,141.8,232.9z M134.8,233c0,1.9,1.1,3.3,2.6,3.3c1.5,0,2.6-1.4,2.6-3.4c0-1.5-0.7-3.3-2.6-3.3
		C135.7,229.6,134.8,231.3,134.8,233z"/>
	<path class="st3" d="M143.8,231.3c0-1,0-1.9-0.1-2.7h1.4l0.1,1.7h0.1c0.4-1.2,1.4-1.9,2.4-1.9c0.2,0,0.3,0,0.4,0.1v1.5
		c-0.2,0-0.3-0.1-0.5-0.1c-1.1,0-1.9,0.8-2.1,2c0,0.2-0.1,0.5-0.1,0.7v4.6h-1.6V231.3z"/>
	<path class="st3" d="M150.7,228.6l1.9,5.2c0.2,0.6,0.4,1.3,0.6,1.8h0c0.2-0.5,0.3-1.2,0.6-1.8l1.7-5.1h1.7l-2.4,6.2
		c-1.1,3-1.9,4.5-3,5.5c-0.8,0.7-1.5,1-1.9,1l-0.4-1.3c0.4-0.1,0.9-0.4,1.4-0.8c0.4-0.3,1-1,1.3-1.8c0.1-0.2,0.1-0.3,0.1-0.4
		s0-0.2-0.1-0.4l-3.2-8H150.7z"/>
	<path class="st3" d="M242.2,237.3v-0.9c1.2-0.6,2.1-1.8,2.1-3.2c0-0.4,0-0.8-0.1-1.3h-1.9v-1.1h1.7c-0.1-0.5-0.2-1.2-0.2-1.9
		c0-2.1,1.5-3.5,3.5-3.5c0.9,0,1.6,0.2,2,0.4l-0.4,1.2c-0.3-0.2-0.8-0.4-1.6-0.4c-1.4,0-2,1-2,2.3c0,0.8,0.1,1.4,0.2,1.9h2.6v1.1
		h-2.4c0.1,0.7,0.1,1.4-0.1,2c-0.2,0.8-0.6,1.4-1.2,1.9v0h5.4v1.3H242.2z"/>
	<path class="st3" d="M251.6,235.5c0.5,0.3,1.5,0.7,2.6,0.7c2,0,2.7-1.3,2.6-2.3c0-1.6-1.5-2.3-3-2.3H253v-1.2h0.9
		c1.2,0,2.6-0.6,2.6-2c0-0.9-0.6-1.8-2.1-1.8c-0.9,0-1.8,0.4-2.3,0.8l-0.4-1.2c0.6-0.5,1.8-0.9,3.1-0.9c2.3,0,3.3,1.4,3.3,2.8
		c0,1.2-0.7,2.2-2.2,2.8v0c1.4,0.3,2.6,1.4,2.6,3c0,1.9-1.5,3.5-4.3,3.5c-1.3,0-2.5-0.4-3-0.8L251.6,235.5z"/>
	<path class="st3" d="M260.6,236.4c0-0.7,0.5-1.1,1.1-1.1s1.1,0.5,1.1,1.1c0,0.6-0.4,1.1-1.1,1.1C261,237.5,260.6,237,260.6,236.4z"
		/>
	<path class="st3" d="M272,231.4c0,4-1.5,6.2-4.1,6.2c-2.3,0-3.8-2.1-3.9-6c0-3.9,1.7-6.1,4.1-6.1C270.6,225.4,272,227.6,272,231.4z
		 M265.6,231.5c0,3,0.9,4.8,2.4,4.8c1.6,0,2.4-1.9,2.4-4.9c0-2.9-0.7-4.8-2.4-4.8C266.6,226.7,265.6,228.3,265.6,231.5z"/>
	<path class="st3" d="M281.2,231.4c0,4-1.5,6.2-4.1,6.2c-2.3,0-3.8-2.1-3.9-6c0-3.9,1.7-6.1,4.1-6.1
		C279.8,225.4,281.2,227.6,281.2,231.4z M274.9,231.5c0,3,0.9,4.8,2.4,4.8c1.6,0,2.4-1.9,2.4-4.9c0-2.9-0.7-4.8-2.4-4.8
		C275.9,226.7,274.9,228.3,274.9,231.5z"/>
</g>
<line class="st4" x1="27.8" y1="58.1" x2="343.8" y2="58.1"/>
<g>
</g>
<g>
</g>
<g>
</g>
<g>
</g>
<g>
</g>
<g>
</g>
</svg>
