<?xml version="1.0" encoding="utf-8"?>
<!-- Generator: Adobe Illustrator 16.0.0, SVG Export Plug-In . SVG Version: 6.00 Build 0)  -->
<!DOCTYPE svg PUBLIC "-//W3C//DTD SVG 1.1//EN" "http://www.w3.org/Graphics/SVG/1.1/DTD/svg11.dtd">
<svg version="1.1" id="Ebene_1" xmlns="http://www.w3.org/2000/svg" xmlns:xlink="http://www.w3.org/1999/xlink" x="0px" y="0px"
	 width="629.485px" height="429.703px" viewBox="0 0 629.485 429.703" enable-background="new 0 0 629.485 429.703"
	 xml:space="preserve">
<g>
	<rect x="70.763" y="47.674" fill="#DDDDDD" width="485.485" height="290.158"/>
	<rect x="187.175" y="83.56" fill="#FFFFFF" width="252.661" height="182.674"/>
	<path fill="#DDDDDD" d="M233.178,29.006h-8.027c-1.38,0-2.869-1.069-3.311-2.377l-3.162-9.368
		c-0.441-1.308-1.932-2.377-3.311-2.377h-68.739c-1.38,0-2.997,1.019-3.594,2.263l-4.604,9.598
		c-0.597,1.244-2.214,2.262-3.594,2.262h-8.53H71.092v17.842h485.485V29.006H233.178z"/>
	<circle fill="#DDDDDD" cx="79.52" cy="22.02" r="3.387"/>
	<circle fill="#DDDDDD" cx="92.063" cy="22.02" r="3.387"/>
	<circle fill="#DDDDDD" cx="103.729" cy="22.02" r="3.387"/>
	<path fill="#FFFFFF" d="M371.307,43.523h-255.32c-2.539,0-4.615-2.076-4.615-4.615v-1.682c0-2.539,2.077-4.615,4.615-4.615h255.32
		c2.537,0,4.613,2.076,4.613,4.615v1.682C375.92,41.447,373.844,43.523,371.307,43.523z"/>
	<g>
		<path fill="#1E1E1C" d="M82.399,38.509v-0.783l2.97-1.515v0.712l-2.388,1.194l2.388,1.194v0.712L82.399,38.509z"/>
		<path fill="#1E1E1C" d="M96.308,37.726v0.783l-2.98,1.515v-0.712l2.388-1.194l-2.388-1.194v-0.712L96.308,37.726z"/>
	</g>
	<g>
		<path fill="#010202" d="M119.851,37.034l0.728,2.712l0.784-2.712h0.584l-1.048,3.552h-0.584l-0.736-2.696l-0.744,2.696h-0.584
			l-1.048-3.552h0.6l0.784,2.712l0.728-2.712H119.851z"/>
		<path fill="#010202" d="M124.882,37.034l0.728,2.712l0.784-2.712h0.584l-1.048,3.552h-0.584l-0.736-2.696l-0.744,2.696h-0.584
			l-1.048-3.552h0.6l0.784,2.712l0.728-2.712H124.882z"/>
		<path fill="#010202" d="M129.915,37.034l0.728,2.712l0.784-2.712h0.584l-1.048,3.552h-0.584l-0.736-2.696l-0.744,2.696h-0.584
			l-1.048-3.552h0.6l0.784,2.712l0.728-2.712H129.915z"/>
		<path fill="#010202" d="M132.294,40.501c-0.083-0.083-0.124-0.185-0.124-0.308c0-0.123,0.042-0.227,0.124-0.312
			c0.083-0.085,0.186-0.128,0.308-0.128c0.117,0,0.217,0.043,0.3,0.128c0.083,0.085,0.124,0.189,0.124,0.312
			c0,0.123-0.041,0.226-0.124,0.308c-0.083,0.083-0.183,0.124-0.3,0.124C132.48,40.625,132.377,40.584,132.294,40.501z"/>
		<path fill="#010202" d="M135.026,40.585h-0.592l-1.376-3.552h0.648l1.04,2.792l1.032-2.792h0.632L135.026,40.585z"/>
		<path fill="#010202" d="M139.267,39.521h0.568c-0.064,0.347-0.222,0.623-0.472,0.828c-0.251,0.205-0.571,0.308-0.96,0.308
			c-0.485,0-0.879-0.169-1.18-0.508c-0.301-0.338-0.452-0.783-0.452-1.332c0-0.539,0.149-0.982,0.448-1.332
			c0.299-0.349,0.688-0.524,1.168-0.524c0.475,0,0.843,0.159,1.104,0.476s0.392,0.74,0.392,1.268v0.216h-2.512
			c0.005,0.374,0.103,0.671,0.292,0.892s0.436,0.332,0.74,0.332c0.224,0,0.412-0.055,0.564-0.164S139.219,39.719,139.267,39.521z
			 M138.395,37.474c-0.267,0-0.491,0.088-0.672,0.264c-0.181,0.176-0.293,0.419-0.336,0.728h1.888
			c-0.005-0.283-0.083-0.519-0.232-0.708C138.894,37.568,138.677,37.474,138.395,37.474z"/>
		<path fill="#010202" d="M142.506,37.018v0.616c-0.096-0.064-0.229-0.096-0.4-0.096c-0.192,0-0.363,0.059-0.512,0.176
			c-0.149,0.118-0.253,0.28-0.312,0.488v2.384h-0.6v-3.552h0.6v0.464c0.08-0.155,0.198-0.283,0.356-0.384
			c0.157-0.101,0.332-0.152,0.524-0.152C142.317,36.961,142.432,36.98,142.506,37.018z"/>
		<path fill="#010202" d="M143.822,35.689c0.077,0.075,0.116,0.166,0.116,0.272c0,0.107-0.039,0.197-0.116,0.272
			s-0.169,0.112-0.276,0.112c-0.107,0-0.197-0.037-0.272-0.112s-0.112-0.165-0.112-0.272c0-0.106,0.037-0.197,0.112-0.272
			s0.165-0.112,0.272-0.112C143.653,35.578,143.745,35.615,143.822,35.689z M143.851,37.034v3.552h-0.6v-3.552H143.851z"/>
		<path fill="#010202" d="M146.698,35.394v0.544c-0.102-0.064-0.227-0.096-0.376-0.096c-0.182,0-0.324,0.056-0.428,0.168
			c-0.104,0.112-0.156,0.272-0.156,0.48v0.544h0.8v0.512h-0.8v3.04h-0.592v-3.04h-0.6v-0.512h0.6v-0.592
			c0-0.347,0.102-0.621,0.304-0.824s0.464-0.304,0.784-0.304C146.416,35.313,146.57,35.34,146.698,35.394z"/>
		<path fill="#010202" d="M148.258,41.945h-0.592l0.536-1.336l-1.384-3.576h0.648l1.048,2.8l1.032-2.8h0.624L148.258,41.945z"/>
		<path fill="#010202" d="M150.326,40.501c-0.083-0.083-0.124-0.185-0.124-0.308c0-0.123,0.042-0.227,0.124-0.312
			c0.083-0.085,0.186-0.128,0.308-0.128c0.117,0,0.217,0.043,0.3,0.128c0.083,0.085,0.124,0.189,0.124,0.312
			c0,0.123-0.041,0.226-0.124,0.308c-0.083,0.083-0.183,0.124-0.3,0.124C150.512,40.625,150.409,40.584,150.326,40.501z"/>
		<path fill="#010202" d="M151.938,40.146c-0.299-0.341-0.448-0.787-0.448-1.336s0.149-0.995,0.448-1.336s0.688-0.512,1.168-0.512
			c0.389,0,0.708,0.104,0.956,0.312s0.404,0.485,0.468,0.832h-0.616c-0.043-0.192-0.135-0.343-0.276-0.452
			c-0.142-0.109-0.319-0.164-0.532-0.164c-0.304,0-0.548,0.123-0.732,0.368c-0.184,0.246-0.276,0.563-0.276,0.952
			s0.092,0.707,0.276,0.952c0.184,0.246,0.428,0.368,0.732,0.368c0.213,0,0.391-0.055,0.532-0.164
			c0.141-0.109,0.233-0.26,0.276-0.452h0.616c-0.064,0.347-0.22,0.624-0.468,0.832s-0.567,0.312-0.956,0.312
			C152.626,40.657,152.237,40.487,151.938,40.146z"/>
		<path fill="#010202" d="M157.854,37.478c0.301,0.344,0.452,0.788,0.452,1.332s-0.151,0.988-0.452,1.332
			c-0.301,0.344-0.694,0.516-1.18,0.516s-0.879-0.172-1.18-0.516c-0.301-0.344-0.452-0.788-0.452-1.332s0.151-0.988,0.452-1.332
			c0.301-0.344,0.695-0.516,1.18-0.516S157.553,37.133,157.854,37.478z M157.422,39.766c0.184-0.243,0.276-0.562,0.276-0.956
			s-0.092-0.713-0.276-0.956s-0.434-0.364-0.748-0.364c-0.315,0-0.564,0.122-0.748,0.364s-0.276,0.562-0.276,0.956
			s0.092,0.713,0.276,0.956s0.433,0.364,0.748,0.364C156.989,40.129,157.238,40.008,157.422,39.766z"/>
		<path fill="#010202" d="M161.643,37.529c0.267-0.378,0.626-0.568,1.08-0.568c0.357,0,0.633,0.115,0.828,0.344
			c0.195,0.229,0.292,0.539,0.292,0.928v2.352h-0.608V38.33c0-0.256-0.056-0.458-0.168-0.604c-0.112-0.147-0.28-0.22-0.504-0.22
			c-0.182,0-0.344,0.058-0.488,0.172c-0.144,0.115-0.243,0.268-0.296,0.46v2.448h-0.6V38.33c0-0.256-0.056-0.458-0.168-0.604
			c-0.112-0.147-0.28-0.22-0.504-0.22c-0.181,0-0.344,0.058-0.488,0.172c-0.144,0.115-0.243,0.268-0.296,0.46v2.448h-0.6v-3.552h0.6
			v0.416c0.203-0.325,0.522-0.488,0.96-0.488C161.13,36.961,161.45,37.151,161.643,37.529z"/>
	</g>
	<g>
		<path fill="#1E1E1C" d="M554.555,351.055H74.433c-8.655,0-15.696-7.042-15.696-15.697V16.022c0-8.655,7.042-15.696,15.696-15.696
			h480.123c8.654,0,15.695,7.042,15.695,15.696v319.335C570.25,344.013,563.209,351.055,554.555,351.055z M74.433,1.326
			c-8.104,0-14.696,6.593-14.696,14.696v319.335c0,8.104,6.593,14.697,14.696,14.697h480.123c8.104,0,14.695-6.593,14.695-14.697
			V16.022c0-8.104-6.592-14.696-14.695-14.696H74.433z M557.077,338.654H70.592V13.324h486.485V338.654z M71.592,337.654h484.485
			V14.324H71.592V337.654z"/>
	</g>
	<polygon fill="#1F1F1F" points="71.092,338.143 192.383,337.596 313.675,337.289 434.965,337.18 556.258,337.214 555.329,338.143 
		555.403,257.063 555.598,175.983 555.866,94.904 556.258,13.824 556.651,94.904 556.918,175.983 557.114,257.063 557.186,338.143 
		557.188,339.071 556.258,339.071 434.965,339.105 313.675,338.997 192.383,338.689 	"/>
	<path fill="#1E1E1C" d="M381.928,344.997c0,0,39.01,1.054,97.527,2.635c14.627,0.428,30.475,0.892,47.234,1.382
		c8.381,0.246,16.99,0.498,25.791,0.755l1.652,0.048l0.412,0.012l0.373-0.01c0.283-0.003,0.547-0.02,0.797-0.044
		c1.033-0.085,2.086-0.288,3.092-0.602c2.018-0.635,3.9-1.726,5.473-3.17c1.564-1.452,2.836-3.243,3.633-5.242
		c0.4-0.997,0.691-2.041,0.863-3.105c0.186-1.079,0.189-2.116,0.178-3.286c-0.045-36.585-0.094-75.61-0.143-114.634
		c-0.002-39.024-0.006-78.049-0.008-114.634c0.018-18.292,0.035-35.976,0.051-52.744c0.008-8.384,0.016-16.54,0.023-24.428
		c0.004-3.944,0.008-7.822,0.012-11.628c0.072-3.629-1.262-7.117-3.557-9.711c-2.273-2.615-5.443-4.298-8.713-4.776
		c-0.828-0.133-1.621-0.155-2.484-0.161c-0.865-0.006-1.725-0.012-2.58-0.019c-1.709-0.012-3.398-0.024-5.064-0.037
		c-6.67-0.048-12.996-0.093-18.941-0.136c-11.891-0.075-22.256-0.16-30.793-0.29c-17.072-0.218-26.828-0.343-26.828-0.343
		s9.756-0.125,26.828-0.343c8.537-0.13,18.902-0.215,30.793-0.29c5.945-0.043,12.271-0.088,18.941-0.136
		c1.666-0.012,3.355-0.024,5.064-0.037c0.855-0.006,1.715-0.012,2.58-0.019c0.867-0.008,1.82,0.019,2.725,0.16
		c3.664,0.507,7.209,2.393,9.752,5.305c2.568,2.876,4.076,6.835,4.002,10.834c0.004,3.807,0.006,7.684,0.01,11.628
		c0.008,7.889,0.016,16.044,0.025,24.428c0.016,16.769,0.033,34.452,0.051,52.744c-0.002,36.585-0.006,75.61-0.01,114.634
		c-0.047,39.024-0.096,78.049-0.141,114.634c0.008,1.114-0.006,2.37-0.217,3.538c-0.197,1.182-0.527,2.338-0.98,3.441
		c-0.896,2.211-2.312,4.182-4.049,5.773c-1.744,1.584-3.828,2.775-6.059,3.462c-1.119,0.341-2.258,0.556-3.43,0.646
		c-0.301,0.026-0.59,0.041-0.859,0.042l-0.457,0.007l-0.412-0.015l-1.652-0.058c-8.799-0.309-17.406-0.612-25.785-0.906
		c-16.758-0.588-32.602-1.145-47.227-1.659C420.926,346.455,381.928,344.997,381.928,344.997z"/>
	<g>
		<path fill="#FFFFFF" d="M627.545,357.037L627.545,357.037c0,3.974-3.252,7.225-7.225,7.225H8.666
			c-3.973,0-7.224-3.251-7.224-7.225l0,0"/>
		<path fill="#1E1E1C" d="M620.321,364.762H8.666c-4.259,0-7.724-3.465-7.724-7.725h1c0,3.708,3.017,6.725,6.724,6.725h611.655
			c3.707,0,6.725-3.017,6.725-6.725h1C628.045,361.296,624.581,364.762,620.321,364.762z"/>
	</g>
	<g>
		<g>
			<path fill="#FFFFFF" d="M627.545,357.594v-12.597H365.69v1.44c0,2.311-1.891,4.201-4.201,4.201H267.5
				c-2.311,0-4.201-1.891-4.201-4.201v-1.44H1.442v12.04"/>
			<path fill="#1E1E1C" d="M628.045,357.594h-1v-12.097H366.19v0.94c0,2.592-2.109,4.701-4.701,4.701H267.5
				c-2.592,0-4.701-2.109-4.701-4.701v-0.94H1.942v11.54h-1v-12.54h262.857v1.94c0,2.041,1.66,3.701,3.701,3.701h93.989
				c2.041,0,3.701-1.66,3.701-3.701v-1.94h262.855V357.594z"/>
		</g>
		<g>
			<path fill="#FFFFFF" d="M267.5,350.639h93.989c2.311,0,4.201-1.891,4.201-4.201v-1.44H263.299v1.44
				C263.299,348.748,265.189,350.639,267.5,350.639z"/>
			<path fill="#1E1E1C" d="M361.489,351.139H267.5c-2.592,0-4.701-2.109-4.701-4.701v-1.94H366.19v1.94
				C366.19,349.03,364.081,351.139,361.489,351.139z M263.799,345.497v0.94c0,2.041,1.66,3.701,3.701,3.701h93.989
				c2.041,0,3.701-1.66,3.701-3.701v-0.94H263.799z"/>
		</g>
	</g>
	<g>
		<g>
			<path fill="#FFFFFF" d="M365.69,344.997v1.44c0,2.311-1.891,4.201-4.201,4.201H267.5c-2.311,0-4.201-1.891-4.201-4.201v-1.44
				H1.442v12.04"/>
			<path fill="#1E1E1C" d="M1.942,357.037h-1v-12.54h262.857v1.94c0,2.041,1.66,3.701,3.701,3.701h93.989
				c2.041,0,3.701-1.66,3.701-3.701v-1.44h1v1.44c0,2.592-2.109,4.701-4.701,4.701H267.5c-2.592,0-4.701-2.109-4.701-4.701v-0.94
				H1.942V357.037z"/>
		</g>
		<path fill="#FFFFFF" stroke="#1E1E1C" stroke-miterlimit="10" d="M562.928,344.997"/>
		<path fill="#1E1E1C" d="M365.69,344.997l65.463-0.432l65.465-0.273l65.463-0.173l65.465-0.08c0.527-0.001,0.957,0.427,0.959,0.956
			v0.002l0.039,8.688l-0.012,2.172l-0.006,1.086c-0.025,0.484-0.008,0.701-0.086,1.184c-0.236,1.692-0.969,3.201-2.088,4.409
			c-1.1,1.212-2.58,2.07-4.176,2.437c-0.396,0.096-0.805,0.152-1.211,0.185l-0.611,0.028l-0.547,0l-2.172-0.002l-8.688-0.01
			l-34.752-0.039l-69.502-0.179l-69.502-0.271l-69.502-0.422l69.502-0.422l69.502-0.271l69.502-0.179l34.752-0.039l8.688-0.01
			l2.172-0.002l0.539-0.002l0.473-0.027c0.312-0.028,0.627-0.074,0.932-0.151c1.221-0.294,2.357-0.964,3.191-1.907
			c0.852-0.913,1.404-2.153,1.557-3.327c0.057-0.23,0.051-0.743,0.064-0.98l-0.006-1.086l-0.01-2.172l0.039-8.688l0.959,0.958
			l-65.465-0.08l-65.463-0.173l-65.465-0.273L365.69,344.997z"/>
		<g>
			<path fill="#FFFFFF" d="M267.5,350.639h93.989c2.311,0,4.201-1.891,4.201-4.201v-1.44H263.299v1.44
				C263.299,348.748,265.189,350.639,267.5,350.639z"/>
			<path fill="#1E1E1C" d="M361.489,351.139H267.5c-2.592,0-4.701-2.109-4.701-4.701v-1.94H366.19v1.94
				C366.19,349.03,364.081,351.139,361.489,351.139z M263.799,345.497v0.94c0,2.041,1.66,3.701,3.701,3.701h93.989
				c2.041,0,3.701-1.66,3.701-3.701v-0.94H263.799z"/>
		</g>
	</g>
	<g>
		<path fill="#1E1E1C" d="M247.028,131.013h1.036l3.36,8.596h-1.12l-0.994-2.59h-3.542l-0.98,2.59h-1.12L247.028,131.013z
			 M247.532,132.385l-1.4,3.668h2.8L247.532,132.385z"/>
		<path fill="#1E1E1C" d="M256.044,138.04v-3.752h-1.008v-0.896h1.008v-1.638h1.05v1.638h1.498v0.896h-1.498v3.641
			c0,0.578,0.275,0.868,0.826,0.868c0.289,0,0.56-0.085,0.812-0.253v0.98c-0.261,0.14-0.588,0.21-0.98,0.21
			c-0.523,0-0.938-0.143-1.246-0.427C256.198,139.022,256.044,138.601,256.044,138.04z"/>
		<path fill="#1E1E1C" d="M264.038,137.746h0.994c-0.112,0.607-0.388,1.09-0.826,1.449s-0.999,0.539-1.68,0.539
			c-0.85,0-1.538-0.296-2.065-0.889s-0.791-1.37-0.791-2.331c0-0.942,0.261-1.72,0.784-2.331c0.522-0.611,1.204-0.917,2.044-0.917
			c0.831,0,1.475,0.277,1.932,0.833c0.457,0.556,0.686,1.295,0.686,2.219v0.378h-4.396c0.009,0.653,0.18,1.174,0.511,1.562
			c0.332,0.387,0.763,0.581,1.295,0.581c0.392,0,0.721-0.096,0.987-0.287S263.954,138.092,264.038,137.746z M262.512,134.162
			c-0.467,0-0.859,0.154-1.176,0.462c-0.317,0.309-0.513,0.733-0.588,1.274h3.304c-0.009-0.495-0.145-0.907-0.406-1.239
			C263.384,134.328,263.006,134.162,262.512,134.162z"/>
		<path fill="#1E1E1C" d="M271.346,133.393l-2.184,2.996l2.31,3.22h-1.19l-1.722-2.422l-1.736,2.422h-1.134l2.296-3.178l-2.17-3.038
			h1.204l1.568,2.226l1.61-2.226H271.346z"/>
		<path fill="#1E1E1C" d="M272.956,138.04v-3.752h-1.008v-0.896h1.008v-1.638h1.05v1.638h1.498v0.896h-1.498v3.641
			c0,0.578,0.275,0.868,0.826,0.868c0.289,0,0.56-0.085,0.812-0.253v0.98c-0.261,0.14-0.588,0.21-0.98,0.21
			c-0.523,0-0.938-0.143-1.246-0.427C273.11,139.022,272.956,138.601,272.956,138.04z"/>
		<path fill="#1E1E1C" d="M284.604,134.261c0.466-0.663,1.097-0.994,1.89-0.994c0.625,0,1.108,0.2,1.449,0.602
			s0.511,0.943,0.511,1.624v4.116h-1.064v-3.948c0-0.448-0.098-0.8-0.294-1.057c-0.196-0.257-0.49-0.385-0.882-0.385
			c-0.317,0-0.602,0.1-0.854,0.301c-0.252,0.2-0.425,0.469-0.518,0.805v4.284h-1.05v-3.948c0-0.448-0.098-0.8-0.294-1.057
			c-0.196-0.257-0.49-0.385-0.882-0.385c-0.317,0-0.602,0.1-0.854,0.301c-0.252,0.2-0.425,0.469-0.518,0.805v4.284h-1.05v-6.216
			h1.05v0.728c0.355-0.569,0.915-0.854,1.68-0.854C283.708,133.267,284.268,133.598,284.604,134.261z"/>
		<path fill="#1E1E1C" d="M294.151,137.746h0.994c-0.112,0.607-0.388,1.09-0.826,1.449s-0.999,0.539-1.68,0.539
			c-0.85,0-1.538-0.296-2.065-0.889s-0.791-1.37-0.791-2.331c0-0.942,0.261-1.72,0.784-2.331c0.522-0.611,1.204-0.917,2.044-0.917
			c0.831,0,1.475,0.277,1.932,0.833c0.457,0.556,0.686,1.295,0.686,2.219v0.378h-4.396c0.009,0.653,0.18,1.174,0.511,1.562
			c0.332,0.387,0.763,0.581,1.295,0.581c0.392,0,0.721-0.096,0.987-0.287S294.067,138.092,294.151,137.746z M292.625,134.162
			c-0.467,0-0.859,0.154-1.176,0.462c-0.317,0.309-0.513,0.733-0.588,1.274h3.304c-0.009-0.495-0.145-0.907-0.406-1.239
			C293.498,134.328,293.12,134.162,292.625,134.162z"/>
		<path fill="#1E1E1C" d="M296.139,137.9h1.092c0.196,0.635,0.686,0.952,1.47,0.952c0.383,0,0.69-0.077,0.924-0.231
			c0.233-0.153,0.35-0.385,0.35-0.692c0-0.42-0.308-0.71-0.924-0.868l-1.232-0.322c-0.999-0.252-1.498-0.798-1.498-1.638
			c0-0.541,0.21-0.982,0.63-1.323s0.952-0.511,1.596-0.511c0.672,0,1.213,0.153,1.624,0.462c0.411,0.308,0.672,0.742,0.784,1.302
			h-1.05c-0.187-0.588-0.644-0.882-1.372-0.882c-0.327,0-0.607,0.077-0.84,0.231c-0.233,0.153-0.35,0.375-0.35,0.664
			c0,0.206,0.067,0.367,0.203,0.483c0.135,0.117,0.357,0.217,0.665,0.301l1.204,0.294c1.055,0.28,1.582,0.859,1.582,1.736
			c0,0.579-0.215,1.036-0.644,1.372s-0.984,0.504-1.666,0.504c-0.681,0-1.253-0.163-1.715-0.49
			C296.51,138.918,296.232,138.47,296.139,137.9z"/>
		<path fill="#1E1E1C" d="M301.963,137.9h1.092c0.196,0.635,0.686,0.952,1.47,0.952c0.383,0,0.69-0.077,0.924-0.231
			c0.233-0.153,0.35-0.385,0.35-0.692c0-0.42-0.308-0.71-0.924-0.868l-1.232-0.322c-0.999-0.252-1.498-0.798-1.498-1.638
			c0-0.541,0.21-0.982,0.63-1.323s0.952-0.511,1.596-0.511c0.672,0,1.213,0.153,1.624,0.462c0.411,0.308,0.672,0.742,0.784,1.302
			h-1.05c-0.187-0.588-0.644-0.882-1.372-0.882c-0.327,0-0.607,0.077-0.84,0.231c-0.233,0.153-0.35,0.375-0.35,0.664
			c0,0.206,0.067,0.367,0.203,0.483c0.135,0.117,0.357,0.217,0.665,0.301l1.204,0.294c1.055,0.28,1.582,0.859,1.582,1.736
			c0,0.579-0.215,1.036-0.644,1.372s-0.984,0.504-1.666,0.504c-0.681,0-1.253-0.163-1.715-0.49
			C302.334,138.918,302.056,138.47,301.963,137.9z"/>
		<path fill="#1E1E1C" d="M312.812,139.608h-1.008v-0.462c-0.131,0.14-0.35,0.271-0.658,0.392c-0.308,0.121-0.635,0.183-0.98,0.183
			c-0.653,0-1.202-0.183-1.645-0.546c-0.443-0.364-0.665-0.845-0.665-1.442c0-0.569,0.229-1.036,0.686-1.4
			c0.458-0.363,1.022-0.546,1.694-0.546c0.308,0,0.611,0.052,0.91,0.154s0.518,0.22,0.658,0.35v-0.783
			c0-0.401-0.119-0.724-0.357-0.967c-0.238-0.242-0.577-0.363-1.015-0.363c-0.653,0-1.078,0.284-1.274,0.854h-1.036
			c0.103-0.522,0.366-0.947,0.791-1.273c0.425-0.327,0.936-0.49,1.533-0.49c0.737,0,1.316,0.195,1.736,0.588
			c0.42,0.392,0.63,0.929,0.63,1.61V139.608z M311.805,138.068v-0.644c-0.093-0.225-0.278-0.408-0.553-0.554
			c-0.275-0.145-0.576-0.217-0.903-0.217c-0.411,0-0.761,0.094-1.05,0.28c-0.29,0.187-0.434,0.453-0.434,0.798
			c0,0.354,0.145,0.628,0.434,0.819c0.289,0.191,0.639,0.287,1.05,0.287c0.327,0,0.627-0.072,0.903-0.218
			C311.527,138.477,311.711,138.292,311.805,138.068z"/>
		<path fill="#1E1E1C" d="M318.679,139.188v-0.462c-0.168,0.233-0.409,0.432-0.721,0.595c-0.313,0.163-0.651,0.245-1.015,0.245
			c-0.868,0-1.549-0.308-2.044-0.924s-0.742-1.358-0.742-2.227c0-0.877,0.247-1.621,0.742-2.232s1.176-0.917,2.044-0.917
			c0.364,0,0.702,0.079,1.015,0.238c0.312,0.158,0.553,0.354,0.721,0.588v-0.7h1.064v5.726c0,0.989-0.254,1.738-0.763,2.247
			s-1.178,0.763-2.009,0.763c-0.747,0-1.351-0.182-1.813-0.546c-0.462-0.363-0.745-0.867-0.847-1.512h1.036
			c0.177,0.774,0.718,1.162,1.624,1.162C318.109,141.232,318.679,140.551,318.679,139.188z M318.679,137.648v-2.479
			c-0.355-0.644-0.882-0.966-1.582-0.966c-0.579,0-1.034,0.206-1.365,0.616c-0.332,0.411-0.497,0.943-0.497,1.596
			c0,0.653,0.166,1.184,0.497,1.59c0.331,0.405,0.786,0.608,1.365,0.608C317.796,138.614,318.324,138.292,318.679,137.648z"/>
		<path fill="#1E1E1C" d="M325.538,137.746h0.994c-0.112,0.607-0.388,1.09-0.826,1.449s-0.999,0.539-1.68,0.539
			c-0.85,0-1.538-0.296-2.065-0.889s-0.791-1.37-0.791-2.331c0-0.942,0.261-1.72,0.784-2.331c0.522-0.611,1.204-0.917,2.044-0.917
			c0.831,0,1.475,0.277,1.932,0.833c0.457,0.556,0.686,1.295,0.686,2.219v0.378h-4.396c0.009,0.653,0.18,1.174,0.511,1.562
			c0.332,0.387,0.763,0.581,1.295,0.581c0.392,0,0.721-0.096,0.987-0.287S325.454,138.092,325.538,137.746z M324.012,134.162
			c-0.467,0-0.859,0.154-1.176,0.462c-0.317,0.309-0.513,0.733-0.588,1.274h3.304c-0.009-0.495-0.145-0.907-0.406-1.239
			C324.885,134.328,324.507,134.162,324.012,134.162z"/>
		<path fill="#1E1E1C" d="M335.058,133.393l1.274,4.746l1.371-4.746h1.022l-1.834,6.216h-1.022l-1.287-4.718l-1.303,4.718h-1.021
			l-1.834-6.216h1.049l1.373,4.746l1.273-4.746H335.058z"/>
		<path fill="#1E1E1C" d="M340.917,131.04c0.136,0.131,0.203,0.29,0.203,0.477s-0.067,0.345-0.203,0.476
			c-0.135,0.131-0.296,0.196-0.482,0.196c-0.188,0-0.346-0.065-0.477-0.196s-0.195-0.289-0.195-0.476s0.064-0.346,0.195-0.477
			c0.131-0.13,0.289-0.195,0.477-0.195C340.621,130.845,340.782,130.91,340.917,131.04z M340.965,133.393v6.216h-1.049v-6.216
			H340.965z"/>
		<path fill="#1E1E1C" d="M343.135,138.04v-3.752h-1.008v-0.896h1.008v-1.638h1.051v1.638h1.498v0.896h-1.498v3.641
			c0,0.578,0.275,0.868,0.826,0.868c0.289,0,0.56-0.085,0.812-0.253v0.98c-0.261,0.14-0.588,0.21-0.979,0.21
			c-0.523,0-0.938-0.143-1.246-0.427C343.29,139.022,343.135,138.601,343.135,138.04z"/>
		<path fill="#1E1E1C" d="M347.28,139.608v-9.1h1.05v3.668c0.196-0.262,0.455-0.479,0.777-0.651
			c0.321-0.173,0.674-0.259,1.057-0.259c0.69,0,1.228,0.205,1.61,0.616c0.383,0.41,0.574,0.961,0.574,1.651v4.074h-1.064v-3.906
			c0-0.447-0.114-0.805-0.343-1.07c-0.229-0.267-0.571-0.399-1.029-0.399c-0.364,0-0.69,0.109-0.979,0.329s-0.49,0.497-0.603,0.833
			v4.214H347.28z"/>
		<path fill="#1E1E1C" d="M359.053,141.988h-1.035l0.938-2.338l-2.422-6.258h1.135l1.834,4.899l1.805-4.899h1.093L359.053,141.988z"
			/>
		<path fill="#1E1E1C" d="M367.951,134.169c0.526,0.603,0.791,1.38,0.791,2.331c0,0.952-0.265,1.729-0.791,2.331
			c-0.527,0.603-1.216,0.903-2.065,0.903s-1.537-0.301-2.064-0.903c-0.527-0.602-0.791-1.379-0.791-2.331
			c0-0.951,0.264-1.729,0.791-2.331c0.527-0.602,1.215-0.902,2.064-0.902S367.423,133.567,367.951,134.169z M367.194,138.174
			c0.322-0.425,0.484-0.982,0.484-1.674c0-0.69-0.162-1.248-0.484-1.673c-0.321-0.425-0.758-0.637-1.309-0.637
			s-0.986,0.212-1.309,0.637s-0.482,0.982-0.482,1.673c0,0.691,0.16,1.249,0.482,1.674s0.758,0.637,1.309,0.637
			S366.873,138.599,367.194,138.174z"/>
		<path fill="#1E1E1C" d="M375.125,133.393v6.216h-1.064v-0.784c-0.187,0.262-0.438,0.479-0.756,0.651
			c-0.316,0.173-0.667,0.259-1.05,0.259c-0.69,0-1.226-0.205-1.603-0.616c-0.379-0.41-0.567-0.961-0.567-1.651v-4.074h1.063v3.906
			c0,0.457,0.112,0.816,0.336,1.077c0.225,0.262,0.564,0.393,1.022,0.393c0.354,0,0.675-0.107,0.959-0.322s0.483-0.494,0.595-0.84
			v-4.214H375.125z"/>
		<path fill="#1E1E1C" d="M380.179,133.364v1.078c-0.168-0.112-0.401-0.168-0.7-0.168c-0.336,0-0.635,0.103-0.896,0.308
			c-0.262,0.206-0.443,0.49-0.546,0.854v4.172h-1.051v-6.216h1.051v0.812c0.14-0.271,0.348-0.494,0.623-0.672
			c0.275-0.177,0.58-0.266,0.916-0.266C379.848,133.267,380.048,133.299,380.179,133.364z"/>
		<path fill="#1E1E1C" d="M223.179,153.839c-0.523-0.598-0.784-1.377-0.784-2.339c0-0.961,0.261-1.74,0.784-2.338
			c0.522-0.597,1.204-0.896,2.044-0.896c0.681,0,1.239,0.182,1.673,0.546c0.434,0.364,0.707,0.85,0.819,1.456h-1.078
			c-0.075-0.336-0.236-0.6-0.483-0.791c-0.248-0.191-0.558-0.287-0.931-0.287c-0.532,0-0.959,0.215-1.281,0.644
			c-0.322,0.43-0.483,0.985-0.483,1.666c0,0.682,0.161,1.237,0.483,1.666c0.322,0.43,0.749,0.645,1.281,0.645
			c0.374,0,0.684-0.096,0.931-0.287c0.247-0.191,0.408-0.455,0.483-0.791h1.078c-0.112,0.606-0.385,1.092-0.819,1.456
			c-0.434,0.364-0.992,0.546-1.673,0.546C224.383,154.734,223.702,154.436,223.179,153.839z"/>
		<path fill="#1E1E1C" d="M233.532,149.169c0.527,0.603,0.791,1.38,0.791,2.331c0,0.952-0.264,1.729-0.791,2.331
			c-0.527,0.603-1.216,0.903-2.065,0.903c-0.85,0-1.538-0.301-2.065-0.903c-0.527-0.602-0.791-1.379-0.791-2.331
			c0-0.951,0.263-1.729,0.791-2.331c0.527-0.602,1.216-0.902,2.065-0.902C232.316,148.267,233.005,148.567,233.532,149.169z
			 M232.776,153.174c0.322-0.425,0.483-0.982,0.483-1.674c0-0.69-0.161-1.248-0.483-1.673c-0.322-0.425-0.758-0.637-1.309-0.637
			c-0.551,0-0.987,0.212-1.309,0.637c-0.322,0.425-0.483,0.982-0.483,1.673c0,0.691,0.161,1.249,0.483,1.674
			c0.322,0.425,0.758,0.637,1.309,0.637C232.018,153.811,232.454,153.599,232.776,153.174z"/>
		<path fill="#1E1E1C" d="M239.881,154.608v-0.728c-0.168,0.242-0.411,0.445-0.728,0.608s-0.658,0.245-1.022,0.245
			c-0.877,0-1.563-0.308-2.058-0.924s-0.742-1.386-0.742-2.311c0-0.914,0.247-1.682,0.742-2.303c0.495-0.62,1.181-0.931,2.058-0.931
			c0.364,0,0.705,0.082,1.022,0.245s0.56,0.366,0.728,0.608v-3.611h1.064v9.1H239.881z M239.881,152.761v-2.521
			c-0.159-0.317-0.38-0.566-0.665-0.749c-0.285-0.182-0.595-0.272-0.931-0.272c-0.579,0-1.038,0.212-1.379,0.637
			s-0.511,0.973-0.511,1.645c0,0.673,0.17,1.221,0.511,1.646s0.8,0.637,1.379,0.637c0.336,0,0.646-0.091,0.931-0.272
			C239.501,153.327,239.723,153.078,239.881,152.761z"/>
		<path fill="#1E1E1C" d="M246.727,152.746h0.994c-0.112,0.607-0.388,1.09-0.826,1.449s-0.999,0.539-1.68,0.539
			c-0.85,0-1.538-0.296-2.065-0.889s-0.791-1.37-0.791-2.331c0-0.942,0.261-1.72,0.784-2.331c0.522-0.611,1.204-0.917,2.044-0.917
			c0.831,0,1.475,0.277,1.932,0.833c0.457,0.556,0.686,1.295,0.686,2.219v0.378h-4.396c0.009,0.653,0.18,1.174,0.511,1.562
			c0.332,0.387,0.763,0.581,1.295,0.581c0.392,0,0.721-0.096,0.987-0.287S246.643,153.092,246.727,152.746z M245.201,149.162
			c-0.467,0-0.859,0.154-1.176,0.462c-0.317,0.309-0.513,0.733-0.588,1.274h3.304c-0.009-0.495-0.145-0.907-0.406-1.239
			C246.074,149.328,245.696,149.162,245.201,149.162z"/>
		<path fill="#1E1E1C" d="M252.299,154.608v-9.1h1.05v3.668c0.196-0.262,0.455-0.479,0.777-0.651
			c0.322-0.173,0.674-0.259,1.057-0.259c0.691,0,1.228,0.205,1.61,0.616c0.382,0.41,0.574,0.961,0.574,1.651v4.074h-1.064v-3.906
			c0-0.447-0.114-0.805-0.343-1.07c-0.229-0.267-0.572-0.399-1.029-0.399c-0.364,0-0.69,0.109-0.98,0.329
			c-0.289,0.22-0.49,0.497-0.602,0.833v4.214H252.299z"/>
		<path fill="#1E1E1C" d="M263.653,154.608h-1.008v-0.462c-0.131,0.14-0.35,0.271-0.658,0.392c-0.308,0.121-0.635,0.183-0.98,0.183
			c-0.653,0-1.202-0.183-1.645-0.546c-0.443-0.364-0.665-0.845-0.665-1.442c0-0.569,0.229-1.036,0.686-1.4
			c0.458-0.363,1.022-0.546,1.694-0.546c0.308,0,0.611,0.052,0.91,0.154s0.518,0.22,0.658,0.35v-0.783
			c0-0.401-0.119-0.724-0.357-0.967c-0.238-0.242-0.577-0.363-1.015-0.363c-0.653,0-1.078,0.284-1.274,0.854h-1.036
			c0.103-0.522,0.366-0.947,0.791-1.273c0.425-0.327,0.936-0.49,1.533-0.49c0.737,0,1.316,0.195,1.736,0.588
			c0.42,0.392,0.63,0.929,0.63,1.61V154.608z M262.645,153.068v-0.644c-0.093-0.225-0.278-0.408-0.553-0.554
			c-0.275-0.145-0.576-0.217-0.903-0.217c-0.411,0-0.761,0.094-1.05,0.28c-0.29,0.187-0.434,0.453-0.434,0.798
			c0,0.354,0.145,0.628,0.434,0.819c0.289,0.191,0.639,0.287,1.05,0.287c0.327,0,0.627-0.072,0.903-0.218
			C262.367,153.477,262.552,153.292,262.645,153.068z"/>
		<path fill="#1E1E1C" d="M264.927,152.9h1.092c0.196,0.635,0.686,0.952,1.47,0.952c0.383,0,0.69-0.077,0.924-0.231
			c0.233-0.153,0.35-0.385,0.35-0.692c0-0.42-0.308-0.71-0.924-0.868l-1.232-0.322c-0.999-0.252-1.498-0.798-1.498-1.638
			c0-0.541,0.21-0.982,0.63-1.323s0.952-0.511,1.596-0.511c0.672,0,1.213,0.153,1.624,0.462c0.411,0.308,0.672,0.742,0.784,1.302
			h-1.05c-0.187-0.588-0.644-0.882-1.372-0.882c-0.327,0-0.607,0.077-0.84,0.231c-0.233,0.153-0.35,0.375-0.35,0.664
			c0,0.206,0.067,0.367,0.203,0.483c0.135,0.117,0.357,0.217,0.665,0.301l1.204,0.294c1.055,0.28,1.582,0.859,1.582,1.736
			c0,0.579-0.215,1.036-0.644,1.372s-0.984,0.504-1.666,0.504c-0.681,0-1.253-0.163-1.715-0.49
			C265.298,153.918,265.02,153.47,264.927,152.9z"/>
		<path fill="#1E1E1C" d="M275.384,153.881v0.728h-1.064v-9.1h1.064v3.611c0.168-0.242,0.411-0.445,0.728-0.608
			s0.658-0.245,1.022-0.245c0.877,0,1.563,0.311,2.058,0.931c0.495,0.621,0.742,1.389,0.742,2.303c0,0.925-0.248,1.694-0.742,2.311
			s-1.181,0.924-2.058,0.924c-0.364,0-0.705-0.082-1.022-0.245S275.552,154.123,275.384,153.881z M275.384,150.24v2.521
			c0.159,0.317,0.38,0.566,0.665,0.749c0.285,0.182,0.595,0.272,0.931,0.272c0.579,0,1.038-0.212,1.379-0.637
			s0.511-0.973,0.511-1.646c0-0.672-0.17-1.22-0.511-1.645s-0.8-0.637-1.379-0.637c-0.336,0-0.646,0.091-0.931,0.272
			C275.765,149.674,275.543,149.923,275.384,150.24z"/>
		<path fill="#1E1E1C" d="M285.311,152.746h0.994c-0.112,0.607-0.388,1.09-0.826,1.449s-0.999,0.539-1.68,0.539
			c-0.85,0-1.538-0.296-2.065-0.889s-0.791-1.37-0.791-2.331c0-0.942,0.261-1.72,0.784-2.331c0.522-0.611,1.204-0.917,2.044-0.917
			c0.831,0,1.475,0.277,1.932,0.833c0.457,0.556,0.686,1.295,0.686,2.219v0.378h-4.396c0.009,0.653,0.18,1.174,0.511,1.562
			c0.332,0.387,0.763,0.581,1.295,0.581c0.392,0,0.721-0.096,0.987-0.287S285.227,153.092,285.311,152.746z M283.785,149.162
			c-0.467,0-0.859,0.154-1.176,0.462c-0.317,0.309-0.513,0.733-0.588,1.274h3.304c-0.009-0.495-0.145-0.907-0.406-1.239
			C284.657,149.328,284.279,149.162,283.785,149.162z"/>
		<path fill="#1E1E1C" d="M291.736,152.746h0.994c-0.112,0.607-0.388,1.09-0.826,1.449s-0.999,0.539-1.68,0.539
			c-0.85,0-1.538-0.296-2.065-0.889s-0.791-1.37-0.791-2.331c0-0.942,0.261-1.72,0.784-2.331c0.522-0.611,1.204-0.917,2.044-0.917
			c0.831,0,1.475,0.277,1.932,0.833c0.457,0.556,0.686,1.295,0.686,2.219v0.378h-4.396c0.009,0.653,0.18,1.174,0.511,1.562
			c0.332,0.387,0.763,0.581,1.295,0.581c0.392,0,0.721-0.096,0.987-0.287S291.652,153.092,291.736,152.746z M290.21,149.162
			c-0.467,0-0.859,0.154-1.176,0.462c-0.317,0.309-0.513,0.733-0.588,1.274h3.304c-0.009-0.495-0.145-0.907-0.406-1.239
			C291.083,149.328,290.705,149.162,290.21,149.162z"/>
		<path fill="#1E1E1C" d="M294.214,154.608v-6.216h1.05v0.784c0.196-0.262,0.455-0.479,0.777-0.651
			c0.322-0.173,0.674-0.259,1.057-0.259c0.691,0,1.228,0.205,1.61,0.616c0.382,0.41,0.574,0.961,0.574,1.651v4.074h-1.064v-3.906
			c0-0.447-0.114-0.805-0.343-1.07c-0.229-0.267-0.572-0.399-1.029-0.399c-0.364,0-0.69,0.109-0.98,0.329
			c-0.289,0.22-0.49,0.497-0.602,0.833v4.214H294.214z"/>
		<path fill="#1E1E1C" d="M303.636,152.9h1.092c0.196,0.635,0.686,0.952,1.47,0.952c0.383,0,0.69-0.077,0.924-0.231
			c0.233-0.153,0.35-0.385,0.35-0.692c0-0.42-0.308-0.71-0.924-0.868l-1.232-0.322c-0.999-0.252-1.498-0.798-1.498-1.638
			c0-0.541,0.21-0.982,0.63-1.323s0.952-0.511,1.596-0.511c0.672,0,1.213,0.153,1.624,0.462c0.411,0.308,0.672,0.742,0.784,1.302
			h-1.05c-0.187-0.588-0.644-0.882-1.372-0.882c-0.327,0-0.607,0.077-0.84,0.231c-0.233,0.153-0.35,0.375-0.35,0.664
			c0,0.206,0.067,0.367,0.203,0.483c0.135,0.117,0.357,0.217,0.665,0.301l1.204,0.294c1.055,0.28,1.582,0.859,1.582,1.736
			c0,0.579-0.215,1.036-0.644,1.372s-0.984,0.504-1.666,0.504c-0.681,0-1.253-0.163-1.715-0.49
			C304.007,153.918,303.729,153.47,303.636,152.9z"/>
		<path fill="#1E1E1C" d="M313.87,152.746h0.994c-0.112,0.607-0.388,1.09-0.826,1.449s-0.999,0.539-1.68,0.539
			c-0.85,0-1.538-0.296-2.065-0.889s-0.791-1.37-0.791-2.331c0-0.942,0.261-1.72,0.784-2.331c0.522-0.611,1.204-0.917,2.044-0.917
			c0.831,0,1.475,0.277,1.932,0.833c0.457,0.556,0.686,1.295,0.686,2.219v0.378h-4.396c0.009,0.653,0.18,1.174,0.511,1.562
			c0.332,0.387,0.763,0.581,1.295,0.581c0.392,0,0.721-0.096,0.987-0.287S313.786,153.092,313.87,152.746z M312.344,149.162
			c-0.467,0-0.859,0.154-1.176,0.462c-0.317,0.309-0.513,0.733-0.588,1.274h3.304c-0.009-0.495-0.145-0.907-0.406-1.239
			C313.216,149.328,312.838,149.162,312.344,149.162z"/>
		<path fill="#1E1E1C" d="M316.348,154.608v-6.216h1.05v0.784c0.196-0.262,0.455-0.479,0.777-0.651
			c0.322-0.173,0.674-0.259,1.057-0.259c0.691,0,1.228,0.205,1.61,0.616c0.382,0.41,0.574,0.961,0.574,1.651v4.074h-1.064v-3.906
			c0-0.447-0.114-0.805-0.343-1.07c-0.229-0.267-0.572-0.399-1.029-0.399c-0.364,0-0.69,0.109-0.98,0.329
			c-0.289,0.22-0.49,0.497-0.602,0.833v4.214H316.348z"/>
		<path fill="#1E1E1C" d="M323.487,153.04v-3.752h-1.008v-0.896h1.008v-1.638h1.05v1.638h1.498v0.896h-1.498v3.641
			c0,0.578,0.275,0.868,0.826,0.868c0.289,0,0.56-0.085,0.812-0.253v0.98c-0.261,0.14-0.588,0.21-0.98,0.21
			c-0.523,0-0.938-0.143-1.246-0.427C323.642,154.022,323.487,153.601,323.487,153.04z"/>
		<path fill="#1E1E1C" d="M331.019,153.04v-3.752h-1.008v-0.896h1.008v-1.638h1.05v1.638h1.498v0.896h-1.498v3.641
			c0,0.578,0.275,0.868,0.826,0.868c0.289,0,0.561-0.085,0.812-0.253v0.98c-0.262,0.14-0.588,0.21-0.98,0.21
			c-0.523,0-0.938-0.143-1.246-0.427C331.173,154.022,331.019,153.601,331.019,153.04z"/>
		<path fill="#1E1E1C" d="M339.567,149.169c0.526,0.603,0.791,1.38,0.791,2.331c0,0.952-0.265,1.729-0.791,2.331
			c-0.527,0.603-1.217,0.903-2.065,0.903c-0.85,0-1.538-0.301-2.065-0.903c-0.527-0.602-0.791-1.379-0.791-2.331
			c0-0.951,0.264-1.729,0.791-2.331c0.527-0.602,1.216-0.902,2.065-0.902C338.35,148.267,339.04,148.567,339.567,149.169z
			 M338.81,153.174c0.322-0.425,0.483-0.982,0.483-1.674c0-0.69-0.161-1.248-0.483-1.673c-0.321-0.425-0.759-0.637-1.309-0.637
			c-0.551,0-0.987,0.212-1.31,0.637s-0.482,0.982-0.482,1.673c0,0.691,0.16,1.249,0.482,1.674s0.759,0.637,1.31,0.637
			C338.051,153.811,338.489,153.599,338.81,153.174z"/>
		<path fill="#1E1E1C" d="M346.713,156.988h-1.037l0.938-2.338l-2.422-6.258h1.134l1.834,4.899l1.807-4.899h1.092L346.713,156.988z"
			/>
		<path fill="#1E1E1C" d="M355.61,149.169c0.527,0.603,0.791,1.38,0.791,2.331c0,0.952-0.264,1.729-0.791,2.331
			c-0.527,0.603-1.216,0.903-2.064,0.903c-0.85,0-1.539-0.301-2.066-0.903c-0.527-0.602-0.79-1.379-0.79-2.331
			c0-0.951,0.263-1.729,0.79-2.331c0.527-0.602,1.217-0.902,2.066-0.902C354.394,148.267,355.083,148.567,355.61,149.169z
			 M354.854,153.174c0.322-0.425,0.482-0.982,0.482-1.674c0-0.69-0.16-1.248-0.482-1.673s-0.759-0.637-1.309-0.637
			c-0.551,0-0.988,0.212-1.31,0.637c-0.322,0.425-0.483,0.982-0.483,1.673c0,0.691,0.161,1.249,0.483,1.674
			c0.321,0.425,0.759,0.637,1.31,0.637C354.095,153.811,354.532,153.599,354.854,153.174z"/>
		<path fill="#1E1E1C" d="M362.786,148.393v6.216h-1.064v-0.784c-0.188,0.262-0.439,0.479-0.756,0.651
			c-0.317,0.173-0.668,0.259-1.051,0.259c-0.69,0-1.225-0.205-1.603-0.616c-0.378-0.41-0.567-0.961-0.567-1.651v-4.074h1.064v3.906
			c0,0.457,0.111,0.816,0.336,1.077c0.225,0.262,0.564,0.393,1.021,0.393c0.355,0,0.675-0.107,0.959-0.322
			c0.285-0.215,0.483-0.494,0.596-0.84v-4.214H362.786z"/>
		<path fill="#1E1E1C" d="M367.838,148.364v1.078c-0.168-0.112-0.4-0.168-0.699-0.168c-0.336,0-0.635,0.103-0.896,0.308
			c-0.262,0.206-0.443,0.49-0.546,0.854v4.172h-1.05v-6.216h1.05v0.812c0.14-0.271,0.348-0.494,0.623-0.672
			c0.275-0.177,0.581-0.266,0.917-0.266C367.508,148.267,367.708,148.299,367.838,148.364z"/>
		<path fill="#1E1E1C" d="M373.285,153.881v3.107h-1.05v-8.596h1.05v0.728c0.177-0.242,0.423-0.445,0.735-0.608
			s0.65-0.245,1.015-0.245c0.878,0,1.563,0.311,2.058,0.931c0.495,0.621,0.742,1.389,0.742,2.303c0,0.915-0.247,1.683-0.742,2.304
			c-0.494,0.62-1.18,0.931-2.058,0.931c-0.364,0-0.702-0.082-1.015-0.245S373.461,154.123,373.285,153.881z M373.285,150.24v2.521
			c0.159,0.317,0.38,0.566,0.665,0.749c0.285,0.182,0.596,0.272,0.932,0.272c0.578,0,1.037-0.212,1.379-0.637
			c0.34-0.425,0.511-0.973,0.511-1.646c0-0.672-0.171-1.22-0.511-1.645c-0.342-0.425-0.801-0.637-1.379-0.637
			c-0.336,0-0.646,0.091-0.932,0.272C373.665,149.674,373.444,149.923,373.285,150.24z"/>
		<path fill="#1E1E1C" d="M379.262,154.608v-9.1h1.051v3.668c0.195-0.262,0.455-0.479,0.777-0.651
			c0.321-0.173,0.674-0.259,1.057-0.259c0.69,0,1.227,0.205,1.609,0.616c0.383,0.41,0.574,0.961,0.574,1.651v4.074h-1.064v-3.906
			c0-0.447-0.113-0.805-0.342-1.07c-0.229-0.267-0.572-0.399-1.029-0.399c-0.364,0-0.691,0.109-0.98,0.329s-0.49,0.497-0.602,0.833
			v4.214H379.262z"/>
		<path fill="#1E1E1C" d="M390.583,149.169c0.526,0.603,0.791,1.38,0.791,2.331c0,0.952-0.265,1.729-0.791,2.331
			c-0.527,0.603-1.217,0.903-2.065,0.903c-0.85,0-1.538-0.301-2.065-0.903c-0.527-0.602-0.791-1.379-0.791-2.331
			c0-0.951,0.264-1.729,0.791-2.331c0.527-0.602,1.216-0.902,2.065-0.902C389.366,148.267,390.055,148.567,390.583,149.169z
			 M389.826,153.174c0.322-0.425,0.483-0.982,0.483-1.674c0-0.69-0.161-1.248-0.483-1.673c-0.321-0.425-0.759-0.637-1.309-0.637
			c-0.551,0-0.987,0.212-1.31,0.637s-0.482,0.982-0.482,1.673c0,0.691,0.16,1.249,0.482,1.674s0.759,0.637,1.31,0.637
			C389.067,153.811,389.504,153.599,389.826,153.174z"/>
		<path fill="#1E1E1C" d="M392.801,154.608v-6.216h1.049v0.784c0.197-0.262,0.455-0.479,0.777-0.651s0.674-0.259,1.057-0.259
			c0.691,0,1.229,0.205,1.611,0.616c0.382,0.41,0.573,0.961,0.573,1.651v4.074h-1.063v-3.906c0-0.447-0.115-0.805-0.344-1.07
			c-0.229-0.267-0.571-0.399-1.029-0.399c-0.363,0-0.689,0.109-0.979,0.329c-0.289,0.22-0.489,0.497-0.603,0.833v4.214H392.801z"/>
		<path fill="#1E1E1C" d="M403.567,152.746h0.994c-0.112,0.607-0.389,1.09-0.826,1.449c-0.439,0.359-0.999,0.539-1.68,0.539
			c-0.85,0-1.539-0.296-2.066-0.889s-0.79-1.37-0.79-2.331c0-0.942,0.261-1.72,0.784-2.331c0.521-0.611,1.203-0.917,2.043-0.917
			c0.831,0,1.475,0.277,1.933,0.833c0.457,0.556,0.687,1.295,0.687,2.219v0.378h-4.396c0.01,0.653,0.18,1.174,0.511,1.562
			c0.331,0.387,0.763,0.581,1.296,0.581c0.391,0,0.721-0.096,0.986-0.287S403.483,153.092,403.567,152.746z M402.041,149.162
			c-0.467,0-0.858,0.154-1.177,0.462c-0.316,0.309-0.513,0.733-0.588,1.274h3.305c-0.01-0.495-0.145-0.907-0.406-1.239
			C402.913,149.328,402.536,149.162,402.041,149.162z"/>
	</g>
	<g>
		<path fill="#1E1E1C" d="M252.999,108.123c-0.019-0.074-0.033-0.168-0.042-0.28c-0.009-0.111-0.014-0.224-0.014-0.336
			c0-0.429,0.079-0.842,0.238-1.238c0.158-0.396,0.39-0.744,0.693-1.043s0.674-0.539,1.113-0.722
			c0.439-0.182,0.943-0.272,1.512-0.272c0.551,0,1.043,0.084,1.477,0.252s0.803,0.395,1.106,0.679
			c0.303,0.285,0.534,0.618,0.693,1.001s0.238,0.784,0.238,1.204c0,0.653-0.168,1.239-0.504,1.757
			c-0.336,0.519-0.803,0.959-1.4,1.323l-1.932,1.189c-0.214,0.141-0.406,0.29-0.574,0.448c-0.168,0.159-0.29,0.355-0.364,0.588h4.83
			v1.694h-7.21c0-0.429,0.042-0.838,0.126-1.225c0.084-0.388,0.217-0.752,0.399-1.093c0.182-0.34,0.422-0.662,0.721-0.966
			c0.299-0.303,0.667-0.59,1.106-0.86l1.624-1.009c0.429-0.271,0.74-0.55,0.931-0.84c0.191-0.289,0.287-0.611,0.287-0.966
			c0-0.196-0.033-0.383-0.098-0.56c-0.065-0.178-0.164-0.334-0.294-0.47c-0.131-0.135-0.296-0.242-0.497-0.321
			c-0.201-0.08-0.437-0.119-0.707-0.119c-0.56,0-0.976,0.168-1.246,0.504c-0.271,0.336-0.406,0.751-0.406,1.246
			c0,0.093,0.004,0.185,0.014,0.272c0.009,0.089,0.023,0.175,0.042,0.259L252.999,108.123z"/>
		<path fill="#1E1E1C" d="M261.231,111.035v-1.652h4.06v1.652H261.231z"/>
		<path fill="#1E1E1C" d="M271.941,107.339c-0.028-0.14-0.077-0.291-0.147-0.455c-0.07-0.163-0.175-0.314-0.315-0.455
			c-0.14-0.14-0.32-0.256-0.539-0.35c-0.22-0.093-0.488-0.14-0.805-0.14c-0.233,0-0.446,0.035-0.637,0.104
			c-0.191,0.07-0.354,0.164-0.49,0.28c-0.135,0.117-0.24,0.25-0.315,0.399s-0.112,0.308-0.112,0.476
			c0,0.271,0.089,0.507,0.266,0.707c0.177,0.201,0.448,0.338,0.812,0.413l1.386,0.266c0.448,0.084,0.844,0.22,1.19,0.406
			c0.345,0.187,0.634,0.408,0.868,0.665s0.411,0.544,0.532,0.861c0.121,0.317,0.182,0.648,0.182,0.993
			c0,0.383-0.08,0.759-0.238,1.128c-0.159,0.368-0.39,0.695-0.693,0.979c-0.303,0.285-0.677,0.516-1.12,0.693
			c-0.443,0.177-0.954,0.266-1.533,0.266c-0.663,0-1.232-0.096-1.708-0.287s-0.875-0.437-1.197-0.734
			c-0.322-0.299-0.567-0.633-0.735-1.002c-0.168-0.368-0.271-0.729-0.308-1.085l1.792-0.476c0.019,0.243,0.077,0.476,0.175,0.7
			c0.098,0.224,0.235,0.422,0.413,0.595s0.397,0.311,0.658,0.413s0.569,0.154,0.924,0.154c0.523,0,0.922-0.114,1.197-0.344
			c0.275-0.229,0.413-0.52,0.413-0.875c0-0.289-0.103-0.538-0.308-0.748c-0.206-0.211-0.504-0.353-0.896-0.428l-1.386-0.279
			c-0.793-0.159-1.426-0.483-1.897-0.974s-0.707-1.113-0.707-1.869c0-0.438,0.091-0.847,0.273-1.225
			c0.182-0.378,0.432-0.707,0.749-0.987c0.317-0.279,0.686-0.499,1.106-0.658c0.42-0.158,0.863-0.237,1.33-0.237
			c0.597,0,1.108,0.082,1.533,0.245c0.424,0.163,0.777,0.371,1.057,0.623c0.28,0.252,0.497,0.529,0.651,0.833
			c0.154,0.303,0.259,0.595,0.315,0.875L271.941,107.339z"/>
		<path fill="#1E1E1C" d="M277.681,107.479h1.386v1.651h-1.386v2.885c0,0.299,0.067,0.506,0.203,0.623
			c0.135,0.116,0.338,0.175,0.609,0.175c0.112,0,0.224-0.005,0.336-0.015c0.112-0.009,0.191-0.022,0.238-0.042v1.54
			c-0.084,0.038-0.212,0.075-0.385,0.112c-0.173,0.037-0.395,0.056-0.665,0.056c-0.672,0-1.204-0.187-1.596-0.56
			c-0.392-0.373-0.588-0.896-0.588-1.568v-3.206h-1.246v-1.651h0.35c0.364,0,0.632-0.105,0.805-0.315
			c0.172-0.21,0.259-0.469,0.259-0.777v-0.966h1.68V107.479z"/>
		<path fill="#1E1E1C" d="M286.752,112.394c-0.084,0.299-0.217,0.581-0.399,0.847s-0.404,0.497-0.665,0.693
			c-0.261,0.195-0.567,0.352-0.917,0.469c-0.35,0.116-0.735,0.175-1.155,0.175c-0.476,0-0.929-0.082-1.358-0.245
			s-0.807-0.403-1.134-0.721s-0.586-0.705-0.777-1.162c-0.191-0.457-0.287-0.976-0.287-1.554c0-0.551,0.093-1.051,0.28-1.498
			c0.187-0.448,0.437-0.828,0.749-1.142c0.312-0.312,0.674-0.555,1.085-0.728s0.835-0.259,1.274-0.259
			c1.073,0,1.909,0.317,2.506,0.951c0.597,0.636,0.896,1.508,0.896,2.618c0,0.131-0.005,0.255-0.014,0.371
			c-0.009,0.117-0.014,0.185-0.014,0.203h-4.928c0.009,0.224,0.063,0.432,0.161,0.623c0.098,0.191,0.224,0.357,0.378,0.497
			c0.154,0.14,0.333,0.25,0.539,0.329c0.205,0.079,0.424,0.119,0.658,0.119c0.438,0,0.782-0.099,1.029-0.294
			c0.247-0.196,0.427-0.448,0.539-0.756L286.752,112.394z M285.017,110.14c-0.01-0.169-0.044-0.334-0.105-0.497
			c-0.061-0.164-0.154-0.309-0.28-0.435s-0.285-0.229-0.476-0.308s-0.417-0.119-0.679-0.119c-0.243,0-0.458,0.042-0.644,0.126
			c-0.187,0.084-0.345,0.191-0.476,0.322s-0.231,0.275-0.301,0.434c-0.07,0.159-0.11,0.317-0.119,0.477H285.017z"/>
		<path fill="#1E1E1C" d="M288.32,117.027v-9.548h1.806v0.84c0.159-0.271,0.42-0.504,0.784-0.7c0.364-0.196,0.807-0.294,1.33-0.294
			c0.504,0,0.952,0.091,1.344,0.273c0.392,0.182,0.726,0.434,1.001,0.756c0.275,0.321,0.483,0.699,0.623,1.134
			c0.14,0.434,0.21,0.908,0.21,1.421c0,0.522-0.077,1.006-0.231,1.449c-0.154,0.443-0.373,0.826-0.658,1.147
			c-0.285,0.322-0.628,0.574-1.029,0.756c-0.401,0.183-0.845,0.273-1.33,0.273c-0.476,0-0.885-0.082-1.225-0.245
			c-0.341-0.163-0.595-0.361-0.763-0.595v3.332H288.32z M293.584,110.923c0-0.615-0.166-1.092-0.497-1.428
			c-0.332-0.336-0.735-0.504-1.211-0.504c-0.243,0-0.467,0.044-0.672,0.133c-0.206,0.089-0.387,0.215-0.546,0.378
			c-0.159,0.164-0.282,0.364-0.371,0.603c-0.089,0.237-0.133,0.511-0.133,0.818c0,0.309,0.044,0.581,0.133,0.819
			s0.212,0.441,0.371,0.609s0.34,0.296,0.546,0.385c0.205,0.089,0.429,0.133,0.672,0.133c0.476,0,0.88-0.17,1.211-0.511
			C293.418,112.018,293.584,111.539,293.584,110.923z"/>
		<path fill="#1E1E1C" d="M306.786,104.441h2.044l-3.682,9.926h-1.988l-3.668-9.926h2.114l2.59,7.378L306.786,104.441z"/>
		<path fill="#1E1E1C" d="M315.242,112.394c-0.084,0.299-0.217,0.581-0.399,0.847s-0.404,0.497-0.665,0.693
			c-0.261,0.195-0.567,0.352-0.917,0.469c-0.35,0.116-0.735,0.175-1.155,0.175c-0.476,0-0.929-0.082-1.358-0.245
			s-0.807-0.403-1.134-0.721s-0.586-0.705-0.777-1.162c-0.191-0.457-0.287-0.976-0.287-1.554c0-0.551,0.093-1.051,0.28-1.498
			c0.187-0.448,0.437-0.828,0.749-1.142c0.312-0.312,0.674-0.555,1.085-0.728s0.835-0.259,1.274-0.259
			c1.073,0,1.909,0.317,2.506,0.951c0.597,0.636,0.896,1.508,0.896,2.618c0,0.131-0.005,0.255-0.014,0.371
			c-0.009,0.117-0.014,0.185-0.014,0.203h-4.928c0.009,0.224,0.063,0.432,0.161,0.623c0.098,0.191,0.224,0.357,0.378,0.497
			c0.154,0.14,0.333,0.25,0.539,0.329c0.205,0.079,0.424,0.119,0.658,0.119c0.438,0,0.782-0.099,1.029-0.294
			c0.247-0.196,0.427-0.448,0.539-0.756L315.242,112.394z M313.506,110.14c-0.01-0.169-0.044-0.334-0.105-0.497
			c-0.061-0.164-0.154-0.309-0.28-0.435s-0.285-0.229-0.476-0.308s-0.417-0.119-0.679-0.119c-0.243,0-0.458,0.042-0.644,0.126
			c-0.187,0.084-0.345,0.191-0.476,0.322s-0.231,0.275-0.301,0.434c-0.07,0.159-0.11,0.317-0.119,0.477H313.506z"/>
		<path fill="#1E1E1C" d="M321.01,109.327c-0.187-0.037-0.373-0.056-0.56-0.056c-0.243,0-0.471,0.032-0.686,0.098
			c-0.215,0.065-0.402,0.173-0.56,0.322c-0.159,0.149-0.287,0.348-0.385,0.595s-0.147,0.558-0.147,0.931v3.15h-1.862v-6.888h1.806
			v1.021c0.103-0.224,0.236-0.408,0.399-0.553c0.163-0.145,0.336-0.254,0.518-0.329c0.182-0.074,0.364-0.126,0.546-0.154
			c0.182-0.027,0.347-0.042,0.497-0.042c0.075,0,0.147,0.003,0.217,0.008c0.07,0.004,0.142,0.012,0.217,0.021V109.327z"/>
		<path fill="#1E1E1C" d="M322.102,105.226c0-0.327,0.112-0.603,0.336-0.826c0.224-0.225,0.495-0.336,0.812-0.336
			c0.327,0,0.6,0.111,0.819,0.336c0.219,0.224,0.329,0.499,0.329,0.826c0,0.308-0.11,0.573-0.329,0.798
			c-0.219,0.224-0.492,0.336-0.819,0.336c-0.317,0-0.588-0.112-0.812-0.336C322.213,105.799,322.102,105.533,322.102,105.226z
			 M322.326,114.367v-6.888h1.862v6.888H322.326z"/>
		<path fill="#1E1E1C" d="M328.402,109.075v5.292h-1.876v-5.292h-1.148v-1.596h1.148v-0.784c0-0.393,0.058-0.744,0.175-1.057
			c0.117-0.313,0.285-0.581,0.504-0.806c0.219-0.224,0.483-0.396,0.791-0.518s0.653-0.183,1.036-0.183
			c0.195,0,0.38,0.015,0.553,0.042c0.173,0.028,0.297,0.062,0.371,0.099v1.567c-0.047-0.019-0.117-0.034-0.21-0.049
			c-0.093-0.014-0.22-0.021-0.378-0.021c-0.104,0-0.21,0.014-0.322,0.042c-0.111,0.027-0.217,0.077-0.315,0.146
			c-0.098,0.07-0.177,0.166-0.238,0.287c-0.061,0.121-0.091,0.28-0.091,0.477v0.756h4.606v6.888h-1.849v-5.292H328.402z
			 M330.936,105.211c0-0.326,0.111-0.602,0.336-0.826c0.224-0.224,0.494-0.336,0.812-0.336s0.589,0.112,0.812,0.336
			c0.225,0.225,0.336,0.5,0.336,0.826c0,0.317-0.111,0.586-0.336,0.806c-0.223,0.219-0.494,0.328-0.812,0.328
			s-0.588-0.109-0.812-0.328C331.047,105.797,330.936,105.528,330.936,105.211z"/>
		<path fill="#1E1E1C" d="M338.104,108.991c-0.243,0-0.469,0.042-0.68,0.126c-0.209,0.084-0.395,0.208-0.553,0.371
			s-0.285,0.366-0.378,0.609c-0.093,0.242-0.14,0.518-0.14,0.825c0,0.309,0.047,0.584,0.14,0.826
			c0.093,0.243,0.222,0.448,0.385,0.616s0.351,0.294,0.56,0.378c0.211,0.084,0.438,0.126,0.68,0.126
			c0.232,0,0.441-0.035,0.623-0.104c0.182-0.07,0.338-0.161,0.469-0.273s0.236-0.238,0.314-0.378c0.08-0.14,0.139-0.275,0.176-0.406
			l1.638,0.546c-0.075,0.29-0.198,0.572-0.37,0.848c-0.174,0.275-0.395,0.522-0.666,0.741c-0.271,0.22-0.588,0.397-0.951,0.532
			c-0.364,0.136-0.775,0.203-1.232,0.203c-0.504,0-0.979-0.091-1.421-0.273c-0.443-0.182-0.829-0.436-1.155-0.763
			c-0.326-0.326-0.584-0.711-0.77-1.155c-0.188-0.442-0.28-0.931-0.28-1.463c0-0.531,0.091-1.021,0.272-1.47
			c0.183-0.448,0.435-0.833,0.756-1.155c0.322-0.321,0.701-0.573,1.135-0.756c0.434-0.182,0.902-0.272,1.406-0.272
			c0.467,0,0.885,0.067,1.254,0.203c0.368,0.135,0.688,0.31,0.959,0.524c0.271,0.215,0.49,0.462,0.658,0.742
			s0.289,0.564,0.363,0.854l-1.666,0.561c-0.084-0.289-0.244-0.556-0.482-0.798C338.909,109.112,338.561,108.991,338.104,108.991z"
			/>
		<path fill="#1E1E1C" d="M342.262,112.491c0-0.308,0.053-0.581,0.16-0.819c0.107-0.237,0.254-0.445,0.441-0.623
			c0.187-0.177,0.403-0.316,0.65-0.42c0.248-0.103,0.516-0.177,0.805-0.224l1.695-0.252c0.195-0.028,0.33-0.086,0.405-0.175
			s0.112-0.194,0.112-0.315c0-0.242-0.096-0.452-0.287-0.63c-0.191-0.177-0.482-0.266-0.875-0.266c-0.411,0-0.727,0.111-0.945,0.336
			c-0.219,0.224-0.343,0.485-0.371,0.783l-1.652-0.35c0.029-0.271,0.113-0.541,0.252-0.812c0.141-0.271,0.332-0.514,0.574-0.729
			c0.243-0.215,0.541-0.39,0.896-0.524c0.354-0.136,0.766-0.203,1.232-0.203c0.541,0,1.003,0.072,1.386,0.217
			c0.382,0.145,0.692,0.336,0.931,0.574c0.238,0.237,0.41,0.516,0.518,0.833s0.162,0.648,0.162,0.993v3.389
			c0,0.187,0.009,0.385,0.027,0.595s0.037,0.376,0.057,0.497h-1.709c-0.019-0.093-0.035-0.222-0.049-0.385s-0.021-0.311-0.021-0.441
			c-0.178,0.271-0.433,0.509-0.763,0.714c-0.332,0.205-0.754,0.309-1.268,0.309c-0.363,0-0.693-0.059-0.986-0.175
			c-0.295-0.117-0.545-0.271-0.75-0.463c-0.205-0.19-0.361-0.41-0.469-0.657S342.262,112.762,342.262,112.491z M345.02,113.177
			c0.195,0,0.385-0.025,0.566-0.076c0.182-0.052,0.344-0.141,0.482-0.267c0.141-0.126,0.252-0.289,0.336-0.49
			c0.084-0.2,0.127-0.454,0.127-0.763v-0.308l-1.555,0.237c-0.242,0.038-0.445,0.124-0.608,0.26
			c-0.163,0.135-0.245,0.338-0.245,0.608c0,0.206,0.074,0.39,0.225,0.554C344.497,113.096,344.721,113.177,345.02,113.177z"/>
		<path fill="#1E1E1C" d="M352.481,107.479h1.387v1.651h-1.387v2.885c0,0.299,0.068,0.506,0.203,0.623
			c0.136,0.116,0.338,0.175,0.609,0.175c0.111,0,0.225-0.005,0.336-0.015c0.111-0.009,0.191-0.022,0.238-0.042v1.54
			c-0.084,0.038-0.213,0.075-0.385,0.112c-0.174,0.037-0.395,0.056-0.666,0.056c-0.672,0-1.203-0.187-1.596-0.56
			c-0.392-0.373-0.588-0.896-0.588-1.568v-3.206h-1.246v-1.651h0.35c0.365,0,0.633-0.105,0.806-0.315s0.259-0.469,0.259-0.777
			v-0.966h1.68V107.479z"/>
		<path fill="#1E1E1C" d="M355.225,105.226c0-0.327,0.111-0.603,0.336-0.826c0.225-0.225,0.494-0.336,0.812-0.336
			c0.326,0,0.6,0.111,0.818,0.336c0.219,0.224,0.329,0.499,0.329,0.826c0,0.308-0.11,0.573-0.329,0.798
			c-0.219,0.224-0.492,0.336-0.818,0.336c-0.318,0-0.588-0.112-0.812-0.336C355.336,105.799,355.225,105.533,355.225,105.226z
			 M355.45,114.367v-6.888h1.861v6.888H355.45z"/>
		<path fill="#1E1E1C" d="M362.393,107.27c0.514,0,0.992,0.091,1.436,0.272c0.443,0.183,0.826,0.435,1.147,0.756
			c0.322,0.322,0.574,0.707,0.756,1.155c0.183,0.448,0.273,0.938,0.273,1.47c0,0.532-0.091,1.021-0.273,1.463
			c-0.182,0.444-0.434,0.829-0.756,1.155c-0.321,0.327-0.704,0.581-1.147,0.763c-0.443,0.183-0.922,0.273-1.436,0.273
			s-0.992-0.091-1.436-0.273c-0.443-0.182-0.825-0.436-1.147-0.763c-0.321-0.326-0.573-0.711-0.756-1.155
			c-0.183-0.442-0.272-0.931-0.272-1.463c0-0.531,0.09-1.021,0.272-1.47s0.435-0.833,0.756-1.155
			c0.322-0.321,0.704-0.573,1.147-0.756C361.401,107.36,361.879,107.27,362.393,107.27z M362.393,112.883
			c0.225,0,0.443-0.042,0.658-0.126s0.4-0.207,0.561-0.371c0.158-0.163,0.286-0.366,0.385-0.608
			c0.098-0.243,0.146-0.527,0.146-0.854c0-0.326-0.049-0.611-0.146-0.854c-0.099-0.243-0.227-0.445-0.385-0.609
			c-0.16-0.163-0.346-0.287-0.561-0.371s-0.434-0.126-0.658-0.126s-0.443,0.042-0.658,0.126s-0.4,0.208-0.56,0.371
			c-0.159,0.164-0.287,0.366-0.386,0.609c-0.098,0.242-0.146,0.527-0.146,0.854c0,0.327,0.049,0.611,0.146,0.854
			c0.099,0.242,0.227,0.445,0.386,0.608c0.159,0.164,0.345,0.287,0.56,0.371S362.168,112.883,362.393,112.883z"/>
		<path fill="#1E1E1C" d="M369.336,114.367h-1.861v-6.888h1.806v0.854c0.215-0.354,0.507-0.616,0.875-0.784s0.739-0.252,1.113-0.252
			c0.429,0,0.8,0.072,1.112,0.218c0.312,0.145,0.572,0.338,0.777,0.58c0.205,0.243,0.357,0.532,0.455,0.868s0.146,0.691,0.146,1.064
			v4.34h-1.861v-4.018c0-0.393-0.101-0.719-0.301-0.98c-0.201-0.261-0.525-0.392-0.973-0.392c-0.411,0-0.729,0.138-0.953,0.413
			c-0.224,0.275-0.336,0.613-0.336,1.015V114.367z"/>
	</g>
	<g>
		<path fill="#324C9B" d="M302.243,240.253h-1.036l-3.318-8.596h1.162l2.688,7.14l2.702-7.14h1.12L302.243,240.253z"/>
		<path fill="#324C9B" d="M310.083,238.392h0.994c-0.112,0.606-0.388,1.09-0.826,1.449c-0.438,0.359-0.999,0.539-1.68,0.539
			c-0.85,0-1.538-0.296-2.065-0.889c-0.527-0.592-0.791-1.37-0.791-2.331c0-0.942,0.261-1.719,0.784-2.331
			c0.522-0.611,1.204-0.917,2.044-0.917c0.831,0,1.475,0.278,1.932,0.833c0.457,0.555,0.686,1.295,0.686,2.219v0.378h-4.396
			c0.009,0.653,0.18,1.174,0.511,1.561c0.332,0.388,0.763,0.581,1.295,0.581c0.392,0,0.721-0.096,0.987-0.287
			C309.824,239.005,309.999,238.737,310.083,238.392z M308.557,234.808c-0.467,0-0.859,0.154-1.176,0.462s-0.513,0.733-0.588,1.274
			h3.304c-0.009-0.495-0.145-0.908-0.406-1.239C309.43,234.973,309.052,234.808,308.557,234.808z"/>
		<path fill="#324C9B" d="M315.753,234.009v1.078c-0.168-0.112-0.401-0.168-0.7-0.168c-0.336,0-0.635,0.103-0.896,0.308
			c-0.262,0.205-0.443,0.49-0.546,0.854v4.172h-1.05v-6.216h1.05v0.812c0.14-0.271,0.348-0.495,0.623-0.672
			c0.275-0.177,0.581-0.266,0.917-0.266C315.422,233.912,315.622,233.944,315.753,234.009z"/>
		<path fill="#324C9B" d="M318.056,231.686c0.135,0.131,0.203,0.289,0.203,0.476c0,0.187-0.068,0.345-0.203,0.476
			c-0.135,0.131-0.296,0.196-0.483,0.196c-0.187,0-0.346-0.065-0.476-0.196c-0.131-0.13-0.196-0.289-0.196-0.476
			c0-0.187,0.065-0.345,0.196-0.476c0.13-0.131,0.289-0.196,0.476-0.196C317.76,231.489,317.921,231.555,318.056,231.686z
			 M318.105,234.038v6.216h-1.05v-6.216H318.105z"/>
		<path fill="#324C9B" d="M323.089,231.167v0.952c-0.177-0.112-0.396-0.168-0.658-0.168c-0.317,0-0.567,0.098-0.749,0.294
			c-0.182,0.196-0.273,0.476-0.273,0.84v0.952h1.4v0.896h-1.4v5.32h-1.036v-5.32h-1.05v-0.896h1.05v-1.036
			c0-0.606,0.177-1.087,0.532-1.442c0.355-0.355,0.812-0.532,1.372-0.532C322.594,231.027,322.865,231.074,323.089,231.167z"/>
		<path fill="#324C9B" d="M325.819,242.633h-1.036l0.938-2.338l-2.422-6.258h1.134l1.834,4.9l1.806-4.9h1.092L325.819,242.633z"/>
	</g>
	<g>
		<path fill="#DDDDDD" d="M352.27,215.172h-77.528c-9.445,0-17.102-7.657-17.102-17.102c0-9.445,7.657-17.102,17.102-17.102h77.528
			c9.445,0,17.102,7.656,17.102,17.102C369.372,207.515,361.715,215.172,352.27,215.172z"/>
	</g>
	<g>
		<path fill="#1E1E1C" d="M297.252,201.658c-0.84,0-1.538-0.229-2.093-0.686c-0.556-0.457-0.833-1.05-0.833-1.778
			c0-0.542,0.156-1.008,0.469-1.4c0.313-0.392,0.716-0.653,1.211-0.784c-0.411-0.14-0.742-0.383-0.994-0.728
			s-0.378-0.747-0.378-1.204c0-0.681,0.25-1.229,0.749-1.645c0.499-0.415,1.122-0.623,1.869-0.623c0.756,0,1.384,0.208,1.883,0.623
			c0.499,0.416,0.749,0.964,0.749,1.645c0,0.458-0.128,0.856-0.385,1.197s-0.586,0.585-0.987,0.735
			c0.485,0.131,0.887,0.392,1.204,0.784c0.317,0.392,0.476,0.858,0.476,1.4c0,0.728-0.278,1.321-0.833,1.778
			C298.804,201.429,298.101,201.658,297.252,201.658z M297.252,200.762c0.551,0,1.001-0.154,1.351-0.462s0.525-0.705,0.525-1.19
			s-0.175-0.88-0.525-1.183s-0.8-0.455-1.351-0.455c-0.542,0-0.987,0.152-1.337,0.455s-0.525,0.698-0.525,1.183
			s0.175,0.882,0.525,1.19S296.71,200.762,297.252,200.762z M297.252,196.548c0.458,0,0.835-0.131,1.134-0.392
			c0.298-0.261,0.448-0.602,0.448-1.022s-0.149-0.763-0.448-1.029c-0.299-0.266-0.677-0.399-1.134-0.399
			c-0.448,0-0.821,0.133-1.12,0.399c-0.299,0.266-0.448,0.609-0.448,1.029c0,0.411,0.149,0.749,0.448,1.015
			C296.431,196.415,296.804,196.548,297.252,196.548z"/>
		<path fill="#1E1E1C" d="M306.751,200.433c-0.593,0.817-1.365,1.225-2.317,1.225c-0.952,0-1.725-0.408-2.317-1.225
			c-0.593-0.816-0.889-1.883-0.889-3.199s0.296-2.382,0.889-3.199c0.592-0.816,1.365-1.225,2.317-1.225
			c0.952,0,1.724,0.409,2.317,1.225c0.593,0.817,0.889,1.883,0.889,3.199S307.344,199.616,306.751,200.433z M304.434,193.804
			c-0.682,0-1.207,0.313-1.575,0.938c-0.369,0.625-0.553,1.456-0.553,2.492c0,1.036,0.184,1.867,0.553,2.492
			c0.369,0.625,0.894,0.938,1.575,0.938c0.672,0,1.194-0.315,1.568-0.945c0.373-0.63,0.56-1.458,0.56-2.485s-0.187-1.855-0.56-2.485
			C305.628,194.119,305.106,193.804,304.434,193.804z"/>
		<path fill="#1E1E1C" d="M312.959,192.936l-3.206,5.726h2.744v-2.072h1.022v2.072h1.512v0.924h-1.512v1.946h-1.022v-1.946h-3.962
			v-0.784l3.304-5.866H312.959z"/>
		<path fill="#1E1E1C" d="M318.7,192.922v8.61h-1.078v-7.28l-2.128,1.092v-1.12l2.548-1.302H318.7z"/>
		<path fill="#1E1E1C" d="M320.366,199.53h1.092c0.261,0.812,0.789,1.218,1.582,1.218c0.625,0,1.143-0.315,1.554-0.945
			c0.41-0.63,0.616-1.412,0.616-2.345c0-0.028-0.002-0.091-0.007-0.189c-0.005-0.098-0.007-0.161-0.007-0.189
			c-0.14,0.439-0.411,0.793-0.812,1.064c-0.401,0.271-0.854,0.406-1.358,0.406c-0.812,0-1.479-0.278-2.002-0.833
			c-0.523-0.555-0.784-1.229-0.784-2.023c0-0.812,0.266-1.496,0.798-2.051c0.532-0.555,1.227-0.833,2.086-0.833
			c1.167,0,2.021,0.546,2.562,1.638c0.336,0.709,0.504,1.587,0.504,2.632c0,1.381-0.292,2.49-0.875,3.325
			c-0.583,0.835-1.342,1.253-2.275,1.253C321.621,201.658,320.729,200.949,320.366,199.53z M324.972,195.68
			c0-0.56-0.173-1.022-0.518-1.386c-0.346-0.364-0.793-0.546-1.344-0.546c-0.542,0-0.985,0.18-1.33,0.539
			c-0.345,0.359-0.518,0.824-0.518,1.393s0.172,1.039,0.518,1.407s0.789,0.553,1.33,0.553c0.551,0,0.999-0.182,1.344-0.546
			C324.799,196.73,324.972,196.259,324.972,195.68z"/>
		<path fill="#1E1E1C" d="M329.297,197.598v-0.938h0.574c0.467,0,0.852-0.128,1.155-0.385s0.454-0.609,0.454-1.057
			c0-0.42-0.142-0.768-0.426-1.043c-0.285-0.275-0.666-0.413-1.142-0.413s-0.863,0.14-1.162,0.42
			c-0.299,0.28-0.48,0.649-0.546,1.106h-1.078c0.103-0.737,0.406-1.334,0.91-1.792c0.504-0.457,1.129-0.686,1.876-0.686
			c0.803,0,1.44,0.217,1.911,0.651c0.471,0.434,0.707,1.001,0.707,1.701c0,0.467-0.124,0.88-0.371,1.239
			c-0.248,0.359-0.572,0.6-0.973,0.721c0.467,0.131,0.835,0.376,1.105,0.735c0.271,0.359,0.406,0.782,0.406,1.267
			c0,0.728-0.25,1.333-0.749,1.813c-0.499,0.481-1.169,0.721-2.009,0.721s-1.529-0.233-2.065-0.7
			c-0.537-0.466-0.842-1.092-0.917-1.876h1.078c0.075,0.504,0.275,0.901,0.602,1.19c0.327,0.289,0.755,0.434,1.289,0.434
			c0.513,0,0.928-0.142,1.246-0.427c0.316-0.285,0.476-0.665,0.476-1.141c0-0.466-0.166-0.84-0.497-1.12
			c-0.332-0.28-0.749-0.42-1.253-0.42H329.297z"/>
	</g>
	<path fill="#585857" d="M440.042,266.733H186.36V83.06h253.682V266.733z M187.36,265.733h251.682V84.06H187.36V265.733z"/>
	<g>
		<polyline fill="#FFFFFF" points="356.364,429.703 356.364,297.463 515.278,297.463 515.278,429.703 		"/>
		<polygon fill="#1F1F1F" points="515.778,429.703 514.778,429.703 514.778,297.963 356.864,297.963 356.864,429.703 
			355.864,429.703 355.864,296.963 515.778,296.963 		"/>
	</g>
	<g>
		<path fill="#FFFFFF" d="M529.967,429.703V269.004c0-15.258-12.369-27.629-27.629-27.629H371.975
			c-15.26,0-27.629,12.371-27.629,27.631v160.697"/>
		<path fill="#1F1F1F" d="M530.467,429.703h-1V269.004c0-14.959-12.17-27.129-27.129-27.129H371.975
			c-14.959,0-27.129,12.171-27.129,27.131v160.697h-1V269.006c0-15.511,12.617-28.131,28.129-28.131h130.363
			c15.51,0,28.129,12.619,28.129,28.129V429.703z"/>
	</g>
	<g>
		<circle fill="#1F1F1F" cx="437.602" cy="261.939" r="2.939"/>
		<path fill="#FFFFFF" d="M437.602,265.379c-1.896,0-3.439-1.543-3.439-3.439s1.543-3.439,3.439-3.439s3.439,1.543,3.439,3.439
			S439.499,265.379,437.602,265.379z M437.602,259.5c-1.346,0-2.439,1.094-2.439,2.439s1.094,2.439,2.439,2.439
			c1.344,0,2.439-1.094,2.439-2.439S438.946,259.5,437.602,259.5z"/>
	</g>
	<g>
		<path fill="#1F1F1F" d="M458.713,272.539h-41.84c-0.891,0-1.621-0.729-1.621-1.619l0,0c0-0.893,0.73-1.621,1.621-1.621h41.84
			c0.893,0,1.621,0.729,1.621,1.621l0,0C460.334,271.809,459.606,272.539,458.713,272.539z"/>
		<path fill="#FFFFFF" d="M458.713,273.039h-41.84c-1.17,0-2.121-0.951-2.121-2.119c0-1.169,0.951-2.121,2.121-2.121h41.84
			c1.17,0,2.121,0.952,2.121,2.121C460.834,272.088,459.883,273.039,458.713,273.039z M416.874,269.799
			c-0.617,0-1.121,0.503-1.121,1.121c0,0.617,0.504,1.119,1.121,1.119h41.84c0.617,0,1.121-0.502,1.121-1.119
			c0-0.618-0.504-1.121-1.121-1.121H416.874z"/>
	</g>
	<polygon fill="#DDDDDD" points="515.672,429.703 514.672,429.703 514.672,327.297 356.864,327.301 356.864,429.703 
		355.864,429.703 355.864,326.301 515.672,326.297 	"/>
	<g>
		<circle fill="#010202" cx="436.778" cy="262.199" r="2.939"/>
		<path fill="#FFFFFF" d="M436.778,265.512c-1.826,0-3.312-1.486-3.312-3.312s1.486-3.312,3.312-3.312s3.312,1.486,3.312,3.312
			S438.604,265.512,436.778,265.512z M436.778,259.633c-1.416,0-2.566,1.151-2.566,2.566s1.15,2.566,2.566,2.566
			c1.414,0,2.566-1.151,2.566-2.566S438.192,259.633,436.778,259.633z"/>
	</g>
	<g>
		<path fill="#010202" d="M457.889,272.799h-41.84c-0.891,0-1.619-0.73-1.619-1.621l0,0c0-0.891,0.729-1.621,1.619-1.621h41.84
			c0.891,0,1.621,0.73,1.621,1.621l0,0C459.51,272.068,458.78,272.799,457.889,272.799z"/>
		<path fill="#FFFFFF" d="M457.889,273.225h-41.84c-1.127,0-2.045-0.918-2.045-2.047s0.918-2.047,2.045-2.047h41.84
			c1.129,0,2.047,0.918,2.047,2.047S459.018,273.225,457.889,273.225z M416.049,269.983c-0.658,0-1.193,0.536-1.193,1.195
			s0.535,1.195,1.193,1.195h41.84c0.658,0,1.195-0.536,1.195-1.195s-0.537-1.195-1.195-1.195H416.049z"/>
	</g>
	<polygon fill="#1F1F1F" points="515.778,429.703 514.778,429.703 514.778,297.963 356.864,297.963 356.864,429.703 
		355.864,429.703 355.864,296.963 515.778,296.963 	"/>
	<g>
		<path fill="#324C9B" d="M484.052,315.604v-5.59h1.794c0.818,0,1.476,0.254,1.971,0.761c0.494,0.507,0.742,1.185,0.742,2.034
			s-0.248,1.528-0.742,2.035c-0.495,0.507-1.152,0.76-1.971,0.76H484.052z M484.772,314.957h1.064c0.631,0,1.125-0.192,1.479-0.578
			c0.354-0.385,0.532-0.908,0.532-1.57c0-0.661-0.179-1.187-0.537-1.574c-0.357-0.389-0.85-0.583-1.475-0.583h-1.064V314.957z"/>
		<path fill="#324C9B" d="M492.081,314.393h0.646c-0.072,0.395-0.252,0.709-0.537,0.942s-0.648,0.351-1.092,0.351
			c-0.553,0-1-0.192-1.343-0.578s-0.515-0.891-0.515-1.516c0-0.613,0.17-1.118,0.51-1.516s0.783-0.597,1.33-0.597
			c0.539,0,0.958,0.181,1.256,0.542c0.297,0.361,0.445,0.842,0.445,1.442v0.246h-2.857c0.006,0.425,0.116,0.764,0.332,1.015
			c0.215,0.252,0.496,0.378,0.842,0.378c0.255,0,0.469-0.062,0.642-0.187C491.913,314.792,492.026,314.617,492.081,314.393z
			 M491.088,312.062c-0.303,0-0.558,0.1-0.764,0.3c-0.207,0.201-0.334,0.477-0.383,0.829h2.148
			c-0.006-0.322-0.094-0.591-0.264-0.806C491.657,312.17,491.411,312.062,491.088,312.062z"/>
		<path fill="#324C9B" d="M493.866,314.584v-2.439h-0.656v-0.583h0.656v-1.065h0.683v1.065h0.974v0.583h-0.974v2.366
			c0,0.377,0.179,0.564,0.537,0.564c0.188,0,0.364-0.055,0.528-0.163v0.637c-0.17,0.091-0.383,0.137-0.638,0.137
			c-0.34,0-0.61-0.093-0.81-0.277C493.965,315.223,493.866,314.948,493.866,314.584z"/>
		<path fill="#324C9B" d="M499.409,315.604h-0.654v-0.301c-0.086,0.092-0.229,0.177-0.428,0.255
			c-0.201,0.079-0.414,0.119-0.638,0.119c-0.425-0.001-0.782-0.12-1.069-0.356c-0.289-0.236-0.433-0.549-0.433-0.938
			c0-0.37,0.148-0.674,0.446-0.91c0.297-0.237,0.664-0.355,1.102-0.354c0.199,0,0.396,0.033,0.592,0.101
			c0.193,0.066,0.336,0.143,0.428,0.228v-0.51c0-0.261-0.078-0.471-0.232-0.628c-0.154-0.158-0.375-0.237-0.66-0.237
			c-0.425-0.001-0.701,0.185-0.828,0.555h-0.674c0.066-0.34,0.238-0.616,0.514-0.828c0.277-0.213,0.609-0.319,0.998-0.318
			c0.479,0,0.855,0.128,1.128,0.383c0.273,0.255,0.409,0.604,0.409,1.047V315.604z M498.754,314.604v-0.419
			c-0.061-0.146-0.182-0.266-0.359-0.359c-0.18-0.095-0.375-0.142-0.588-0.142c-0.268-0.001-0.494,0.06-0.683,0.182
			c-0.188,0.121-0.282,0.294-0.282,0.519c0,0.23,0.094,0.408,0.282,0.532c0.188,0.125,0.415,0.187,0.683,0.188
			c0.213,0,0.408-0.047,0.588-0.141C498.573,314.869,498.694,314.749,498.754,314.604z"/>
		<path fill="#324C9B" d="M501.208,310.033c0.088,0.085,0.131,0.188,0.131,0.31s-0.043,0.225-0.131,0.31s-0.193,0.127-0.314,0.127
			s-0.225-0.042-0.31-0.127s-0.128-0.188-0.128-0.31s0.043-0.225,0.128-0.31s0.188-0.127,0.31-0.127S501.12,309.948,501.208,310.033
			z M501.239,311.562v4.042h-0.683v-4.042H501.239z"/>
		<path fill="#324C9B" d="M503.124,309.688v5.917h-0.684v-5.917H503.124z"/>
		<path fill="#324C9B" d="M503.989,314.494h0.71c0.128,0.412,0.446,0.619,0.956,0.619c0.248,0,0.449-0.051,0.601-0.15
			c0.151-0.101,0.228-0.251,0.228-0.451c0-0.272-0.2-0.461-0.602-0.564l-0.801-0.209c-0.649-0.164-0.974-0.519-0.974-1.065
			c0-0.352,0.136-0.639,0.409-0.86c0.273-0.221,0.619-0.332,1.038-0.332c0.437,0,0.789,0.101,1.056,0.301
			c0.268,0.2,0.438,0.482,0.51,0.847h-0.683c-0.121-0.383-0.419-0.573-0.892-0.573c-0.213,0-0.395,0.05-0.547,0.149
			c-0.151,0.101-0.227,0.245-0.227,0.433c0,0.134,0.043,0.238,0.131,0.314c0.088,0.075,0.232,0.141,0.434,0.195l0.782,0.191
			c0.686,0.182,1.028,0.559,1.028,1.129c0,0.376-0.139,0.674-0.418,0.892c-0.279,0.219-0.641,0.328-1.084,0.328
			s-0.814-0.106-1.115-0.318C504.229,315.155,504.049,314.864,503.989,314.494z"/>
	</g>
	<g>
		<path fill="#1E1E1C" d="M428.192,316.24h-0.828l-2.656-6.879h0.93l2.152,5.714l2.162-5.714h0.896L428.192,316.24z"/>
		<path fill="#1E1E1C" d="M434.467,314.751h0.795c-0.09,0.485-0.311,0.872-0.66,1.16c-0.352,0.287-0.8,0.431-1.346,0.431
			c-0.68,0-1.23-0.237-1.652-0.712s-0.633-1.097-0.633-1.866c0-0.754,0.209-1.376,0.627-1.865c0.419-0.489,0.964-0.732,1.637-0.732
			c0.664,0,1.18,0.222,1.546,0.666c0.366,0.445,0.549,1.037,0.549,1.776v0.303l-3.519-0.001c0.008,0.522,0.145,0.939,0.41,1.249
			c0.264,0.31,0.609,0.466,1.035,0.466c0.314,0,0.578-0.076,0.791-0.229S434.4,315.027,434.467,314.751z M433.246,311.883
			c-0.374,0-0.687,0.123-0.94,0.369c-0.255,0.246-0.412,0.586-0.471,1.02l2.644,0.001c-0.007-0.396-0.116-0.727-0.325-0.992
			C433.944,312.016,433.641,311.883,433.246,311.883z"/>
		<path fill="#1E1E1C" d="M439.004,311.244v0.862c-0.135-0.089-0.321-0.134-0.561-0.134c-0.269,0-0.508,0.082-0.717,0.246
			c-0.209,0.165-0.355,0.393-0.438,0.684v3.339h-0.84v-4.975h0.84v0.649c0.113-0.216,0.279-0.396,0.499-0.537
			s0.466-0.213,0.733-0.213C438.739,311.166,438.9,311.192,439.004,311.244z"/>
		<path fill="#1E1E1C" d="M440.847,309.385c0.108,0.104,0.163,0.231,0.163,0.381s-0.055,0.276-0.163,0.381s-0.237,0.156-0.387,0.156
			s-0.276-0.052-0.381-0.156s-0.157-0.231-0.157-0.381s0.053-0.276,0.157-0.381s0.231-0.157,0.381-0.157
			S440.739,309.28,440.847,309.385z M440.886,311.267v4.975h-0.841v-4.975H440.886z"/>
		<path fill="#1E1E1C" d="M444.875,308.97v0.762c-0.143-0.09-0.318-0.134-0.527-0.134c-0.254,0-0.453,0.078-0.6,0.234
			c-0.145,0.157-0.218,0.382-0.218,0.673v0.762h1.12v0.717h-1.12v4.258h-0.829v-4.258h-0.84v-0.717h0.84v-0.829
			c0-0.485,0.142-0.87,0.426-1.154c0.283-0.283,0.65-0.426,1.098-0.426C444.479,308.857,444.696,308.896,444.875,308.97z"/>
		<path fill="#1E1E1C" d="M447.059,318.146h-0.828l0.75-1.871l-1.938-5.008h0.907l1.468,3.922l1.445-3.922h0.873L447.059,318.146z"
			/>
	</g>
	<g>
		<g>
			<path fill="#D9D9D9" d="M484.534,364.694c0,3.118-2.551,5.669-5.669,5.669H375.357c-3.118,0-5.669-2.551-5.669-5.669v-23.11
				c0-3.118,2.551-5.669,5.669-5.669l103.508-0.002c3.118,0,5.669,2.551,5.669,5.669V364.694z"/>
		</g>
		<path fill="#D9D9D9" d="M369.575,364.469c0,0,1.225,4.648-2.934,7.094s7.826-2.445,7.826-4.402
			C374.467,365.201,369.575,364.469,369.575,364.469z"/>
		<g>
			<path fill="#1E1E1C" d="M382.06,345.422l1.892-3.099h0.896l-2.393,3.856v2.703h-0.834v-2.703l-2.371-3.856h0.919L382.06,345.422z
				"/>
			<path fill="#1E1E1C" d="M388.475,344.732c0.402,0.459,0.604,1.052,0.604,1.778s-0.202,1.319-0.604,1.779
				c-0.402,0.459-0.928,0.688-1.575,0.688s-1.173-0.229-1.575-0.688c-0.402-0.46-0.604-1.053-0.604-1.779s0.201-1.319,0.604-1.778
				s0.928-0.689,1.575-0.689S388.073,344.273,388.475,344.732z M387.899,347.788c0.246-0.324,0.369-0.75,0.369-1.277
				c0-0.526-0.123-0.952-0.369-1.276s-0.578-0.486-0.999-0.486s-0.753,0.162-0.999,0.486s-0.368,0.75-0.368,1.276
				c0,0.527,0.122,0.953,0.368,1.277s0.578,0.485,0.999,0.485S387.653,348.112,387.899,347.788z"/>
			<path fill="#1E1E1C" d="M393.951,344.14v4.743h-0.812v-0.599c-0.143,0.2-0.335,0.365-0.577,0.497s-0.509,0.197-0.802,0.197
				c-0.527,0-0.934-0.156-1.223-0.47s-0.433-0.733-0.433-1.261v-3.108h0.812v2.98c0,0.349,0.086,0.623,0.257,0.822
				c0.171,0.2,0.431,0.3,0.78,0.3c0.27,0,0.514-0.082,0.731-0.246c0.217-0.164,0.368-0.377,0.454-0.641v-3.216H393.951z"/>
			<path fill="#1E1E1C" d="M397.807,344.118v0.822c-0.128-0.085-0.307-0.128-0.534-0.128c-0.257,0-0.484,0.078-0.684,0.235
				c-0.199,0.156-0.339,0.374-0.417,0.651v3.184h-0.801v-4.743h0.801v0.619c0.107-0.206,0.266-0.377,0.477-0.513
				c0.209-0.135,0.443-0.203,0.699-0.203C397.555,344.043,397.708,344.068,397.807,344.118z"/>
			<path fill="#1E1E1C" d="M400.766,347.58h0.834c0.149,0.484,0.523,0.727,1.121,0.727c0.293,0,0.527-0.059,0.705-0.176
				c0.179-0.118,0.268-0.294,0.268-0.529c0-0.32-0.234-0.541-0.705-0.662l-0.939-0.246c-0.763-0.192-1.144-0.608-1.144-1.25
				c0-0.412,0.16-0.749,0.48-1.009c0.321-0.261,0.727-0.391,1.218-0.391c0.514,0,0.926,0.118,1.24,0.353
				c0.312,0.235,0.512,0.566,0.598,0.994h-0.801c-0.143-0.449-0.492-0.673-1.047-0.673c-0.25,0-0.464,0.059-0.642,0.176
				c-0.179,0.117-0.267,0.287-0.267,0.508c0,0.156,0.051,0.279,0.154,0.368s0.272,0.166,0.508,0.229l0.918,0.225
				c0.805,0.214,1.208,0.655,1.208,1.325c0,0.441-0.164,0.79-0.491,1.047c-0.328,0.256-0.752,0.384-1.271,0.384
				s-0.957-0.124-1.309-0.373C401.049,348.356,400.838,348.015,400.766,347.58z"/>
			<path fill="#1E1E1C" d="M408.577,347.463h0.758c-0.085,0.463-0.295,0.832-0.63,1.105c-0.335,0.274-0.763,0.411-1.282,0.411
				c-0.648,0-1.174-0.226-1.576-0.678s-0.604-1.045-0.604-1.779c0-0.719,0.199-1.312,0.599-1.778s0.919-0.7,1.56-0.7
				c0.635,0,1.125,0.212,1.475,0.636c0.349,0.424,0.523,0.988,0.523,1.693v0.289h-3.354c0.007,0.498,0.137,0.896,0.39,1.19
				c0.253,0.296,0.582,0.443,0.988,0.443c0.299,0,0.551-0.072,0.754-0.219C408.378,347.932,408.512,347.727,408.577,347.463z
				 M407.412,344.728c-0.356,0-0.655,0.118-0.897,0.353c-0.242,0.235-0.392,0.56-0.448,0.973h2.521
				c-0.007-0.377-0.109-0.692-0.309-0.945C408.078,344.854,407.79,344.728,407.412,344.728z"/>
			<path fill="#1E1E1C" d="M410.745,348.296c-0.398-0.455-0.598-1.05-0.598-1.784c0-0.733,0.199-1.328,0.598-1.784
				c0.398-0.455,0.919-0.684,1.56-0.684c0.521,0,0.946,0.14,1.276,0.417c0.332,0.277,0.54,0.648,0.625,1.111h-0.822
				c-0.057-0.257-0.18-0.458-0.369-0.604c-0.188-0.146-0.425-0.22-0.71-0.22c-0.405,0-0.731,0.164-0.978,0.492
				c-0.246,0.327-0.368,0.751-0.368,1.271c0,0.521,0.122,0.944,0.368,1.271c0.246,0.328,0.572,0.491,0.978,0.491
				c0.285,0,0.522-0.072,0.71-0.219c0.189-0.146,0.312-0.347,0.369-0.604h0.822c-0.085,0.463-0.293,0.833-0.625,1.111
				c-0.33,0.277-0.756,0.416-1.276,0.416C411.664,348.979,411.143,348.752,410.745,348.296z"/>
			<path fill="#1E1E1C" d="M419.035,344.141v4.743h-0.812v-0.599c-0.143,0.2-0.335,0.365-0.577,0.497s-0.509,0.197-0.802,0.197
				c-0.527,0-0.934-0.156-1.223-0.47s-0.433-0.733-0.433-1.261v-3.108H416v2.98c0,0.349,0.086,0.623,0.257,0.822
				c0.171,0.2,0.431,0.3,0.78,0.3c0.27,0,0.514-0.082,0.731-0.246c0.217-0.164,0.368-0.377,0.454-0.641v-3.216H419.035z"/>
			<path fill="#1E1E1C" d="M422.891,344.119v0.822c-0.127-0.085-0.306-0.128-0.533-0.128c-0.257,0-0.484,0.078-0.684,0.235
				c-0.199,0.156-0.339,0.374-0.417,0.651v3.184h-0.802v-4.743h0.802v0.619c0.106-0.206,0.265-0.377,0.476-0.513
				c0.21-0.135,0.443-0.203,0.699-0.203C422.639,344.044,422.792,344.069,422.891,344.119z"/>
			<path fill="#1E1E1C" d="M424.649,342.346c0.104,0.1,0.155,0.221,0.155,0.363s-0.052,0.264-0.155,0.363s-0.227,0.149-0.369,0.149
				c-0.142,0-0.263-0.05-0.362-0.149c-0.101-0.1-0.149-0.221-0.149-0.363s0.049-0.264,0.149-0.363c0.1-0.1,0.221-0.149,0.362-0.149
				C424.422,342.196,424.545,342.246,424.649,342.346z M424.686,344.141v4.743h-0.801v-4.743H424.686z"/>
			<path fill="#1E1E1C" d="M426.342,347.688v-2.863h-0.77v-0.684h0.77v-1.25h0.801v1.25h1.144v0.684h-1.144v2.777
				c0,0.442,0.211,0.662,0.631,0.662c0.221,0,0.428-0.063,0.619-0.191v0.747c-0.199,0.107-0.448,0.16-0.747,0.16
				c-0.399,0-0.716-0.108-0.951-0.325C426.459,348.437,426.342,348.114,426.342,347.688z"/>
			<path fill="#1E1E1C" d="M430.829,350.7h-0.79l0.716-1.784l-1.848-4.775h0.865l1.398,3.739l1.379-3.738h0.833L430.829,350.7z"/>
			<path fill="#1E1E1C" d="M436.908,348.297c-0.399-0.455-0.599-1.05-0.599-1.784c0-0.733,0.199-1.328,0.599-1.784
				c0.399-0.455,0.919-0.684,1.56-0.684c0.52,0,0.945,0.14,1.277,0.417c0.33,0.277,0.539,0.648,0.625,1.111h-0.823
				c-0.058-0.257-0.18-0.458-0.368-0.604c-0.189-0.146-0.426-0.22-0.711-0.22c-0.406,0-0.731,0.164-0.978,0.492
				c-0.245,0.327-0.368,0.751-0.368,1.271c0,0.521,0.123,0.944,0.368,1.271c0.246,0.328,0.571,0.491,0.978,0.491
				c0.285,0,0.521-0.072,0.711-0.219c0.188-0.146,0.311-0.347,0.368-0.604h0.823c-0.086,0.463-0.295,0.833-0.625,1.111
				c-0.332,0.277-0.758,0.416-1.277,0.416C437.827,348.98,437.307,348.753,436.908,348.297z"/>
			<path fill="#1E1E1C" d="M444.808,344.734c0.402,0.459,0.604,1.052,0.604,1.778s-0.202,1.319-0.604,1.779
				c-0.402,0.459-0.928,0.688-1.575,0.688c-0.648,0-1.174-0.229-1.576-0.688c-0.402-0.46-0.604-1.053-0.604-1.779
				s0.201-1.319,0.604-1.778s0.928-0.689,1.576-0.689C443.88,344.045,444.406,344.275,444.808,344.734z M444.231,347.79
				c0.246-0.324,0.369-0.75,0.369-1.277c0-0.526-0.123-0.952-0.369-1.276c-0.245-0.324-0.578-0.486-0.998-0.486
				c-0.421,0-0.754,0.162-1,0.486c-0.245,0.324-0.367,0.75-0.367,1.276c0,0.527,0.122,0.953,0.367,1.277
				c0.246,0.324,0.579,0.485,1,0.485C443.653,348.275,443.986,348.114,444.231,347.79z"/>
			<path fill="#1E1E1C" d="M449.653,348.885v-0.556c-0.128,0.186-0.312,0.34-0.555,0.465s-0.502,0.187-0.78,0.187
				c-0.67,0-1.193-0.234-1.571-0.705c-0.377-0.47-0.565-1.058-0.565-1.763c0-0.697,0.188-1.283,0.565-1.757
				c0.378-0.474,0.901-0.711,1.571-0.711c0.278,0,0.538,0.062,0.78,0.188c0.242,0.124,0.427,0.279,0.555,0.465v-2.757h0.812v6.944
				H449.653z M449.653,347.475v-1.923c-0.121-0.242-0.29-0.433-0.508-0.571c-0.217-0.14-0.453-0.209-0.71-0.209
				c-0.441,0-0.792,0.162-1.052,0.486s-0.391,0.742-0.391,1.255s0.131,0.932,0.391,1.256s0.61,0.486,1.052,0.486
				c0.257,0,0.493-0.07,0.71-0.209C449.363,347.907,449.532,347.717,449.653,347.475z"/>
			<path fill="#1E1E1C" d="M454.877,347.464h0.758c-0.085,0.463-0.295,0.832-0.63,1.105c-0.335,0.274-0.763,0.411-1.282,0.411
				c-0.648,0-1.174-0.226-1.576-0.678s-0.604-1.045-0.604-1.779c0-0.719,0.199-1.312,0.599-1.778s0.919-0.7,1.56-0.7
				c0.635,0,1.125,0.212,1.475,0.636c0.349,0.424,0.523,0.988,0.523,1.693v0.289h-3.354c0.007,0.498,0.137,0.896,0.39,1.19
				c0.253,0.296,0.582,0.443,0.988,0.443c0.299,0,0.551-0.072,0.754-0.219C454.679,347.933,454.813,347.728,454.877,347.464z
				 M453.712,344.729c-0.356,0-0.655,0.118-0.897,0.353c-0.242,0.235-0.392,0.56-0.448,0.973h2.521
				c-0.007-0.377-0.109-0.692-0.309-0.945C454.378,344.855,454.09,344.729,453.712,344.729z"/>
			<path fill="#1E1E1C" d="M459.893,342.347c0.104,0.1,0.154,0.221,0.154,0.363s-0.051,0.264-0.154,0.363s-0.227,0.149-0.369,0.149
				s-0.264-0.05-0.363-0.149s-0.149-0.221-0.149-0.363s0.05-0.264,0.149-0.363s0.221-0.149,0.363-0.149
				S459.79,342.247,459.893,342.347z M459.93,344.142v4.743h-0.801v-4.743H459.93z"/>
			<path fill="#1E1E1C" d="M460.966,347.581h0.833c0.15,0.484,0.523,0.727,1.122,0.727c0.292,0,0.527-0.059,0.705-0.176
				c0.179-0.118,0.267-0.294,0.267-0.529c0-0.32-0.234-0.541-0.705-0.662l-0.939-0.246c-0.762-0.192-1.143-0.608-1.143-1.25
				c0-0.412,0.16-0.749,0.48-1.009c0.32-0.261,0.727-0.391,1.218-0.391c0.513,0,0.926,0.118,1.239,0.353
				c0.312,0.235,0.513,0.566,0.598,0.994h-0.801c-0.143-0.449-0.491-0.673-1.047-0.673c-0.25,0-0.463,0.059-0.641,0.176
				c-0.179,0.117-0.268,0.287-0.268,0.508c0,0.156,0.052,0.279,0.154,0.368c0.104,0.089,0.273,0.166,0.508,0.229l0.919,0.225
				c0.805,0.214,1.208,0.655,1.208,1.325c0,0.441-0.164,0.79-0.492,1.047c-0.328,0.256-0.752,0.384-1.271,0.384
				s-0.956-0.124-1.309-0.373C461.25,348.357,461.038,348.016,460.966,347.581z"/>
			<path fill="#1E1E1C" d="M465.577,345.419c-0.111-0.11-0.166-0.247-0.166-0.411s0.055-0.303,0.166-0.417
				c0.109-0.113,0.247-0.171,0.411-0.171c0.156,0,0.29,0.058,0.4,0.171c0.11,0.114,0.165,0.253,0.165,0.417
				s-0.055,0.301-0.165,0.411s-0.244,0.166-0.4,0.166C465.824,345.585,465.686,345.529,465.577,345.419z M465.577,348.773
				c-0.111-0.11-0.166-0.247-0.166-0.411s0.055-0.303,0.166-0.417c0.109-0.113,0.247-0.171,0.411-0.171
				c0.156,0,0.29,0.058,0.4,0.171c0.11,0.114,0.165,0.253,0.165,0.417s-0.055,0.301-0.165,0.411s-0.244,0.166-0.4,0.166
				C465.824,348.939,465.686,348.884,465.577,348.773z"/>
			<path fill="#1E1E1C" d="M381.665,361.799c-0.641,0-1.174-0.174-1.597-0.523c-0.424-0.349-0.636-0.801-0.636-1.356
				c0-0.413,0.119-0.77,0.357-1.068s0.547-0.498,0.924-0.599c-0.312-0.106-0.565-0.291-0.758-0.555s-0.289-0.57-0.289-0.919
				c0-0.52,0.191-0.938,0.572-1.256c0.381-0.316,0.856-0.475,1.426-0.475c0.577,0,1.057,0.158,1.438,0.475
				c0.381,0.317,0.571,0.736,0.571,1.256c0,0.349-0.099,0.653-0.294,0.913s-0.447,0.447-0.753,0.561
				c0.37,0.101,0.677,0.3,0.919,0.599s0.363,0.655,0.363,1.068c0,0.556-0.213,1.008-0.636,1.356
				C382.849,361.625,382.313,361.799,381.665,361.799z M381.665,361.115c0.42,0,0.764-0.117,1.031-0.353
				c0.268-0.234,0.4-0.537,0.4-0.908c0-0.37-0.133-0.671-0.4-0.902s-0.611-0.348-1.031-0.348c-0.412,0-0.753,0.116-1.02,0.348
				c-0.268,0.231-0.4,0.532-0.4,0.902c0,0.371,0.133,0.674,0.4,0.908C380.912,360.998,381.252,361.115,381.665,361.115z
				 M381.665,357.899c0.35,0,0.638-0.1,0.865-0.299c0.229-0.199,0.342-0.459,0.342-0.779c0-0.321-0.113-0.583-0.342-0.785
				c-0.228-0.203-0.516-0.305-0.865-0.305c-0.342,0-0.627,0.102-0.854,0.305c-0.228,0.202-0.342,0.464-0.342,0.785
				c0,0.313,0.114,0.571,0.342,0.774S381.323,357.899,381.665,357.899z"/>
			<path fill="#1E1E1C" d="M388.914,360.864c-0.452,0.623-1.042,0.935-1.769,0.935s-1.315-0.312-1.768-0.935
				c-0.453-0.623-0.679-1.437-0.679-2.44c0-1.005,0.226-1.818,0.679-2.441c0.452-0.623,1.041-0.935,1.768-0.935
				s1.316,0.312,1.769,0.935s0.679,1.437,0.679,2.441C389.592,359.428,389.366,360.241,388.914,360.864z M387.145,355.806
				c-0.52,0-0.92,0.239-1.201,0.716c-0.281,0.478-0.422,1.111-0.422,1.902c0,0.79,0.141,1.424,0.422,1.901
				c0.281,0.477,0.682,0.716,1.201,0.716c0.514,0,0.912-0.24,1.197-0.722c0.284-0.48,0.427-1.112,0.427-1.896
				c0-0.784-0.143-1.416-0.427-1.896C388.057,356.046,387.659,355.806,387.145,355.806z"/>
			<path fill="#1E1E1C" d="M393.651,355.144l-2.445,4.369h2.094v-1.581h0.779v1.581h1.154v0.705h-1.154v1.485h-0.779v-1.485h-3.023
				v-0.598l2.521-4.477H393.651z"/>
			<path fill="#1E1E1C" d="M398.032,355.133v6.57h-0.822v-5.556l-1.625,0.834v-0.855l1.945-0.993H398.032z"/>
			<path fill="#1E1E1C" d="M399.303,360.176l0.833,0.001c0.199,0.619,0.603,0.929,1.208,0.929c0.477,0,0.871-0.24,1.186-0.721
				c0.312-0.48,0.47-1.077,0.47-1.789c0-0.021-0.002-0.07-0.005-0.145c-0.004-0.075-0.006-0.123-0.006-0.145
				c-0.107,0.335-0.313,0.605-0.619,0.812c-0.307,0.206-0.652,0.31-1.037,0.31c-0.619,0-1.129-0.212-1.527-0.637
				c-0.398-0.424-0.598-0.938-0.598-1.544c0-0.619,0.202-1.142,0.608-1.565c0.405-0.422,0.937-0.634,1.592-0.634
				c0.89,0,1.542,0.416,1.955,1.25c0.257,0.541,0.385,1.21,0.385,2.008c0,1.055-0.223,1.9-0.668,2.537
				c-0.445,0.638-1.024,0.956-1.735,0.956C400.26,361.8,399.581,361.258,399.303,360.176z M402.818,357.238
				c0-0.427-0.132-0.779-0.396-1.058c-0.264-0.277-0.605-0.416-1.025-0.416c-0.413,0-0.752,0.137-1.015,0.411
				c-0.264,0.274-0.396,0.627-0.396,1.062s0.132,0.794,0.396,1.075c0.263,0.281,0.602,0.422,1.015,0.422
				c0.42,0,0.762-0.139,1.025-0.417C402.686,358.04,402.818,357.681,402.818,357.238z"/>
			<path fill="#1E1E1C" d="M406.12,358.702v-0.716h0.438c0.355,0,0.65-0.098,0.881-0.294c0.232-0.195,0.348-0.465,0.348-0.807
				c0-0.32-0.109-0.586-0.326-0.796s-0.508-0.315-0.87-0.315c-0.363,0-0.659,0.107-0.887,0.321
				c-0.228,0.213-0.367,0.495-0.417,0.844h-0.822c0.078-0.562,0.31-1.019,0.694-1.367c0.384-0.35,0.861-0.523,1.432-0.523
				c0.612,0,1.099,0.165,1.458,0.496s0.539,0.764,0.539,1.298c0,0.356-0.094,0.672-0.283,0.946c-0.188,0.273-0.436,0.457-0.742,0.55
				c0.356,0.1,0.638,0.287,0.844,0.561c0.207,0.274,0.311,0.597,0.311,0.967c0,0.556-0.191,1.018-0.572,1.384
				c-0.381,0.367-0.892,0.55-1.533,0.55c-0.641,0-1.166-0.178-1.575-0.534c-0.409-0.355-0.643-0.833-0.7-1.431h0.823
				c0.057,0.384,0.21,0.687,0.459,0.907c0.249,0.222,0.577,0.332,0.983,0.332c0.391,0,0.709-0.109,0.951-0.326
				c0.241-0.217,0.363-0.508,0.363-0.871c0-0.355-0.127-0.641-0.38-0.854s-0.571-0.32-0.956-0.32H406.12z"/>
		</g>
	</g>
	<g>
		<path fill="#324C9B" d="M374.169,315.604h-0.491l-1.767-4.261v4.261h-0.683v-5.59h0.811l1.893,4.589l1.885-4.589h0.783v5.59
			h-0.684v-4.261L374.169,315.604z"/>
		<path fill="#324C9B" d="M380.377,314.393h0.646c-0.072,0.395-0.252,0.709-0.537,0.942s-0.649,0.351-1.092,0.351
			c-0.553,0-1-0.192-1.344-0.578c-0.342-0.386-0.514-0.891-0.514-1.516c0-0.613,0.17-1.118,0.51-1.516s0.783-0.597,1.329-0.597
			c0.54,0,0.958,0.181,1.256,0.542s0.446,0.842,0.446,1.442v0.246h-2.858c0.006,0.425,0.116,0.764,0.332,1.015
			c0.216,0.252,0.496,0.378,0.843,0.378c0.254,0,0.469-0.062,0.641-0.187C380.209,314.792,380.323,314.618,380.377,314.393z
			 M379.385,312.063c-0.303,0-0.559,0.1-0.765,0.3c-0.206,0.201-0.334,0.477-0.382,0.829h2.148
			c-0.007-0.322-0.095-0.591-0.265-0.806C379.953,312.17,379.708,312.063,379.385,312.063z"/>
		<path fill="#324C9B" d="M381.625,314.494h0.71c0.128,0.412,0.446,0.619,0.956,0.619c0.249,0,0.449-0.051,0.601-0.15
			c0.152-0.101,0.229-0.251,0.229-0.451c0-0.272-0.201-0.461-0.602-0.564l-0.801-0.209c-0.65-0.164-0.975-0.519-0.975-1.065
			c0-0.352,0.137-0.639,0.41-0.86c0.273-0.221,0.619-0.332,1.037-0.332c0.438,0,0.789,0.101,1.057,0.301
			c0.267,0.2,0.438,0.482,0.51,0.847h-0.684c-0.121-0.383-0.418-0.573-0.892-0.573c-0.212,0-0.395,0.05-0.546,0.149
			c-0.152,0.101-0.228,0.245-0.228,0.433c0,0.134,0.044,0.238,0.132,0.314c0.088,0.075,0.232,0.141,0.433,0.195l0.782,0.191
			c0.686,0.182,1.029,0.559,1.029,1.129c0,0.376-0.14,0.674-0.419,0.892c-0.279,0.219-0.64,0.328-1.083,0.328
			s-0.814-0.106-1.115-0.318C381.866,315.155,381.685,314.864,381.625,314.494z"/>
		<path fill="#324C9B" d="M385.366,314.494h0.711c0.127,0.412,0.445,0.619,0.955,0.619c0.25,0,0.449-0.051,0.602-0.15
			c0.151-0.101,0.228-0.251,0.228-0.451c0-0.272-0.2-0.461-0.601-0.564l-0.801-0.209c-0.65-0.164-0.975-0.519-0.975-1.065
			c0-0.352,0.137-0.639,0.41-0.86c0.272-0.221,0.618-0.332,1.037-0.332c0.438,0,0.789,0.101,1.057,0.301
			c0.266,0.2,0.437,0.482,0.51,0.847h-0.684c-0.121-0.383-0.418-0.573-0.893-0.573c-0.212,0-0.395,0.05-0.545,0.149
			c-0.152,0.101-0.229,0.245-0.229,0.433c0,0.134,0.045,0.238,0.133,0.314c0.088,0.075,0.231,0.141,0.432,0.195l0.783,0.191
			c0.686,0.182,1.029,0.559,1.029,1.129c0,0.376-0.141,0.674-0.42,0.892c-0.279,0.219-0.64,0.328-1.083,0.328
			c-0.442,0-0.814-0.106-1.114-0.318C385.608,315.155,385.426,314.864,385.366,314.494z"/>
		<path fill="#324C9B" d="M392.375,315.604h-0.655v-0.301c-0.085,0.092-0.228,0.177-0.428,0.255c-0.2,0.079-0.413,0.119-0.638,0.119
			c-0.424,0-0.781-0.119-1.069-0.355s-0.433-0.549-0.433-0.938c0-0.37,0.148-0.674,0.446-0.91c0.298-0.237,0.665-0.355,1.102-0.355
			c0.2,0,0.397,0.033,0.592,0.101c0.194,0.066,0.337,0.143,0.428,0.228v-0.51c0-0.261-0.077-0.471-0.231-0.628
			c-0.155-0.158-0.375-0.237-0.66-0.237c-0.426,0-0.701,0.186-0.829,0.556h-0.673c0.066-0.34,0.237-0.616,0.514-0.828
			c0.276-0.213,0.608-0.319,0.997-0.319c0.479,0,0.855,0.128,1.128,0.383c0.273,0.255,0.41,0.604,0.41,1.047V315.604z
			 M391.72,314.603v-0.419c-0.061-0.146-0.181-0.266-0.359-0.359c-0.179-0.095-0.375-0.142-0.587-0.142
			c-0.268,0-0.495,0.061-0.684,0.183c-0.188,0.121-0.281,0.294-0.281,0.519c0,0.23,0.094,0.408,0.281,0.532
			c0.188,0.125,0.416,0.187,0.684,0.187c0.212,0,0.408-0.047,0.587-0.141S391.66,314.749,391.72,314.603z"/>
		<path fill="#324C9B" d="M396.144,315.331v-0.3c-0.108,0.151-0.265,0.28-0.469,0.387c-0.203,0.106-0.423,0.159-0.659,0.159
			c-0.564,0-1.008-0.2-1.33-0.601c-0.321-0.4-0.482-0.883-0.482-1.447c0-0.57,0.161-1.055,0.482-1.452
			c0.322-0.397,0.766-0.597,1.33-0.597c0.236,0,0.456,0.052,0.659,0.155c0.204,0.103,0.36,0.23,0.469,0.382v-0.455h0.692v3.724
			c0,0.643-0.166,1.13-0.496,1.461c-0.331,0.331-0.767,0.496-1.307,0.496c-0.486,0-0.879-0.118-1.179-0.355
			c-0.301-0.236-0.484-0.564-0.551-0.982h0.673c0.115,0.503,0.468,0.755,1.057,0.755
			C395.774,316.66,396.144,316.217,396.144,315.331z M396.144,314.33v-1.611c-0.23-0.419-0.573-0.628-1.028-0.628
			c-0.377,0-0.672,0.134-0.888,0.4s-0.323,0.613-0.323,1.038s0.107,0.769,0.323,1.033c0.216,0.264,0.511,0.396,0.888,0.396
			C395.571,314.958,395.914,314.749,396.144,314.33z"/>
		<path fill="#324C9B" d="M400.559,314.394h0.646c-0.072,0.395-0.252,0.709-0.537,0.942s-0.649,0.351-1.092,0.35
			c-0.553,0-1-0.192-1.344-0.578c-0.342-0.386-0.514-0.891-0.514-1.516c0-0.613,0.17-1.118,0.51-1.516s0.783-0.597,1.329-0.597
			c0.54,0.001,0.958,0.182,1.256,0.543s0.446,0.842,0.446,1.442v0.246l-2.858-0.001c0.006,0.425,0.116,0.764,0.332,1.015
			c0.216,0.252,0.496,0.378,0.843,0.378c0.254,0,0.469-0.061,0.641-0.186C400.391,314.793,400.504,314.619,400.559,314.394z
			 M399.567,312.063c-0.303,0-0.559,0.1-0.765,0.3c-0.206,0.201-0.334,0.477-0.382,0.829l2.148,0.001
			c-0.007-0.322-0.095-0.591-0.265-0.806C400.134,312.171,399.889,312.063,399.567,312.063z"/>
		<path fill="#324C9B" d="M401.806,314.495h0.71c0.128,0.412,0.446,0.619,0.956,0.619c0.249,0,0.449-0.051,0.601-0.15
			c0.152-0.101,0.229-0.251,0.229-0.451c0-0.272-0.201-0.461-0.602-0.564l-0.801-0.209c-0.65-0.164-0.975-0.519-0.975-1.065
			c0-0.352,0.137-0.639,0.41-0.86c0.273-0.221,0.619-0.332,1.037-0.332c0.438,0,0.789,0.101,1.057,0.301
			c0.267,0.2,0.438,0.482,0.51,0.847h-0.684c-0.121-0.383-0.418-0.573-0.892-0.573c-0.212,0-0.395,0.05-0.546,0.149
			c-0.152,0.101-0.228,0.245-0.228,0.433c0,0.134,0.044,0.238,0.132,0.314c0.088,0.075,0.232,0.141,0.433,0.195l0.782,0.191
			c0.686,0.182,1.029,0.559,1.029,1.129c0,0.376-0.14,0.674-0.419,0.892c-0.279,0.219-0.64,0.328-1.083,0.328
			s-0.814-0.106-1.115-0.318C402.047,315.156,401.867,314.865,401.806,314.495z"/>
	</g>
	<path fill="#324C9B" d="M369.186,321.289c-0.08,0-0.162-0.027-0.229-0.084l-7.389-6.303l7.623-6.298
		c0.148-0.122,0.367-0.103,0.492,0.047c0.123,0.149,0.102,0.37-0.047,0.493l-6.98,5.767l6.756,5.762
		c0.146,0.125,0.164,0.346,0.039,0.493C369.383,321.247,369.284,321.289,369.186,321.289z"/>
</g>
</svg>
