<?xml version="1.0" encoding="utf-8"?>
<!-- Generator: Adobe Illustrator 19.2.1, SVG Export Plug-In . SVG Version: 6.00 Build 0)  -->
<svg version="1.1" id="Layer_1" xmlns="http://www.w3.org/2000/svg" xmlns:xlink="http://www.w3.org/1999/xlink" x="0px" y="0px"
	 viewBox="0 0 520.9 280.4" style="enable-background:new 0 0 520.9 280.4;" xml:space="preserve">
<style type="text/css">
	.st0{fill:#FFFFFF;}
	.st1{fill:none;stroke:#1D1D1B;stroke-width:2;stroke-miterlimit:10;}
	.st2{fill:#FFFFFF;stroke:#1D1D1B;stroke-miterlimit:10;}
	.st3{fill:none;stroke:#1D1D1B;stroke-width:1.2919;stroke-miterlimit:10;}
	.st4{fill:#3A50A2;}
	.st5{fill:none;}
	.st6{fill:#1D1D1B;}
	.st7{fill:#000101;stroke:#000101;stroke-width:0.8322;stroke-miterlimit:10;}
	.st8{fill:#010101;}
	.st9{fill:none;stroke:#010101;stroke-width:0.75;stroke-miterlimit:10;}
	.st10{fill:#ECECEC;}
	.st11{fill:#DDDDDD;}
	.st12{fill:none;stroke:#DDDDDD;stroke-miterlimit:10;}
	.st13{enable-background:new    ;}
	.st14{fill:#2341C1;}
	.st15{fill:none;stroke:#000000;stroke-width:0.75;stroke-miterlimit:10;}
	.st16{fill:none;stroke:#1E1E1E;stroke-miterlimit:10;}
	.st17{fill:none;stroke:#1E1E1E;stroke-width:2;stroke-miterlimit:10;}
</style>
<g>
	
		<image style="overflow:visible;opacity:0.49;enable-background:new    ;" width="979" height="854" xlink:href="3FA53867B48F708D.png"  transform="matrix(0.2398 0 0 0.238 566 -19.7)">
	</image>
	<g>
		<path class="st0" d="M796.9,172.2c0,1.5-1.2,2.7-2.7,2.7h-217c-1.5,0-2.7-1.2-2.7-2.7V-13.5c0-1.5,1.2-2.7,2.7-2.7h217
			c1.5,0,2.7,1.2,2.7,2.7V172.2z"/>
		<path class="st1" d="M796.9,172.2c0,1.5-1.2,2.7-2.7,2.7h-217c-1.5,0-2.7-1.2-2.7-2.7V-13.5c0-1.5,1.2-2.7,2.7-2.7h217
			c1.5,0,2.7,1.2,2.7,2.7V172.2z"/>
	</g>
</g>
<g>
	
		<image style="overflow:visible;opacity:0.49;enable-background:new    ;" width="982" height="1112" xlink:href="3FA53867B48F708F.png"  transform="matrix(0.2382 0 0 0.2383 852.6577 -19.3023)">
	</image>
	<g>
		<path class="st0" d="M1082.9,232.6c0,1.7-1.4,3.1-3.1,3.1H865.1c-1.7,0-3.1-1.4-3.1-3.1V-12.1c0-1.7,1.4-3.1,3.1-3.1h214.8
			c1.7,0,3.1,1.4,3.1,3.1L1082.9,232.6L1082.9,232.6z"/>
		<path class="st1" d="M1082.9,232.6c0,1.7-1.4,3.1-3.1,3.1H865.1c-1.7,0-3.1-1.4-3.1-3.1V-12.1c0-1.7,1.4-3.1,3.1-3.1h214.8
			c1.7,0,3.1,1.4,3.1,3.1L1082.9,232.6L1082.9,232.6z"/>
	</g>
</g>
<circle class="st2" cx="587.6" cy="-5.6" r="3.4"/>
<line class="st3" x1="574.7" y1="4.5" x2="797.4" y2="4.5"/>
<circle class="st2" cx="600.1" cy="-5.6" r="3.4"/>
<circle class="st2" cx="611.8" cy="-5.6" r="3.4"/>
<g>
	<path class="st4" d="M744.3,144.8c0,4.7-3.8,8.5-8.5,8.5h-94.7c-4.7,0-8.5-3.8-8.5-8.5v-17.2c0-4.7,3.8-8.5,8.5-8.5h94.7
		c4.7,0,8.5,3.8,8.5,8.5V144.8L744.3,144.8z"/>
</g>
<g>
	<path class="st0" d="M661.9,141.2c-2.3,0-4.1-1.6-4.1-3.9v-7.6h1.7v7.5c0,1.5,0.9,2.5,2.4,2.5c1.4,0,2.4-0.9,2.4-2.5v-7.5h1.7v7.6
		C666,139.6,664.2,141.2,661.9,141.2z"/>
	<path class="st0" d="M671.2,141.2c-1.3,0-2.4-0.2-3.4-1.2l1.1-1.1c0.7,0.7,1.5,0.8,2.3,0.8c1,0,1.8-0.4,1.8-1.1
		c0-0.5-0.3-0.9-1.1-1l-1.3-0.1c-1.5-0.1-2.4-0.8-2.4-2.2c0-1.6,1.4-2.5,3.1-2.5c1.2,0,2.3,0.3,3,0.9l-1,1c-0.5-0.4-1.2-0.6-2-0.6
		c-1,0-1.5,0.4-1.5,1c0,0.5,0.3,0.8,1.1,0.9l1.3,0.1c1.5,0.1,2.4,0.8,2.4,2.3C674.6,140.3,673.2,141.2,671.2,141.2z"/>
	<path class="st0" d="M677.8,137.5c0,1.4,0.7,2.3,2.1,2.3c0.9,0,1.4-0.3,2-0.8l1,1c-0.8,0.8-1.6,1.3-3,1.3c-2,0-3.7-1.1-3.7-4.2
		c0-2.6,1.4-4.1,3.4-4.1c2.2,0,3.4,1.6,3.4,3.9v0.7L677.8,137.5L677.8,137.5z M681.2,135.3c-0.3-0.6-0.8-1-1.6-1s-1.4,0.4-1.6,1
		c-0.2,0.4-0.2,0.6-0.2,1.1h3.6C681.4,135.9,681.4,135.6,681.2,135.3z"/>
	<path class="st0" d="M694,141.1v-4.9c0-1.3-0.7-1.8-1.6-1.8c-0.9,0-1.7,0.6-1.7,1.8v4.9H689V133h1.6v0.8c0.6-0.6,1.3-0.9,2.2-0.9
		c0.8,0,1.5,0.3,2,0.7c0.6,0.6,0.8,1.4,0.8,2.3v5.2H694z"/>
	<path class="st0" d="M703.6,140.2c-0.5,0.5-1.3,1-2.4,1s-1.9-0.4-2.4-1c-0.8-0.8-1-1.8-1-3.2s0.2-2.4,1-3.2c0.5-0.5,1.3-1,2.4-1
		s1.9,0.4,2.4,1c0.8,0.8,1,1.8,1,3.2C704.5,138.4,704.3,139.4,703.6,140.2z M702.3,134.8c-0.3-0.3-0.7-0.5-1.2-0.5s-0.9,0.2-1.2,0.5
		c-0.5,0.5-0.6,1.3-0.6,2.2s0.1,1.7,0.6,2.2c0.3,0.3,0.7,0.5,1.2,0.5s0.9-0.2,1.2-0.5c0.5-0.5,0.6-1.3,0.6-2.2
		S702.8,135.3,702.3,134.8z"/>
	<path class="st0" d="M714.5,141.1h-1.4l-1.9-5.7l-1.9,5.7h-1.4l-2.5-8.1h1.7l1.6,5.7l1.9-5.7h1.3l1.9,5.7l1.6-5.7h1.7L714.5,141.1z
		"/>
</g>
<g>
	<path class="st4" d="M1066.1,202.4c0,3.8-3.1,7-7,7h-60.9c-3.8,0-7-3.1-7-7v-20.3c0-3.8,3.1-7,7-7h60.9c3.8,0,7,3.1,7,7V202.4z"/>
</g>
<g>
	<path class="st0" d="M1015,197.2c-1.2,0-2.2-0.4-3-1.2c-1.1-1.1-1.1-2.4-1.1-4.6s0-3.5,1.1-4.6c0.8-0.8,1.8-1.2,3-1.2
		c2.1,0,3.7,1.2,4.1,3.5h-1.8c-0.3-1.2-1-2-2.3-2c-0.7,0-1.3,0.3-1.7,0.7c-0.6,0.6-0.7,1.3-0.7,3.6s0.1,2.9,0.7,3.6
		c0.4,0.4,1,0.7,1.7,0.7c1.3,0,2-0.8,2.3-2h1.7C1018.7,196,1017.1,197.2,1015,197.2z"/>
	<path class="st0" d="M1023.4,197.1c-1.6,0-2.2-1-2.2-2.2v-9.2h1.6v9.1c0,0.6,0.2,0.9,0.9,0.9h0.7v1.4H1023.4z"/>
	<path class="st0" d="M1031.3,196.2c-0.5,0.5-1.3,1-2.4,1s-1.9-0.4-2.4-1c-0.8-0.8-1-1.8-1-3.2s0.2-2.4,1-3.2c0.5-0.5,1.3-1,2.4-1
		s1.9,0.4,2.4,1c0.8,0.8,1,1.8,1,3.2S1032.1,195.4,1031.3,196.2z M1030.1,190.8c-0.3-0.3-0.7-0.5-1.2-0.5s-0.9,0.2-1.2,0.5
		c-0.5,0.5-0.6,1.3-0.6,2.2s0.1,1.7,0.6,2.2c0.3,0.3,0.7,0.5,1.2,0.5s0.9-0.2,1.2-0.5c0.5-0.5,0.6-1.3,0.6-2.2
		S1030.6,191.3,1030.1,190.8z"/>
	<path class="st0" d="M1037.1,197.2c-1.3,0-2.4-0.2-3.4-1.2l1.1-1.1c0.7,0.7,1.5,0.8,2.3,0.8c1,0,1.8-0.4,1.8-1.1
		c0-0.5-0.3-0.9-1.1-1l-1.3-0.1c-1.5-0.1-2.4-0.8-2.4-2.2c0-1.6,1.4-2.5,3.1-2.5c1.2,0,2.3,0.3,3,0.9l-1,1c-0.5-0.4-1.2-0.6-2-0.6
		c-1,0-1.5,0.4-1.5,1c0,0.5,0.3,0.8,1.1,0.9l1.3,0.1c1.5,0.1,2.4,0.8,2.4,2.3C1040.5,196.3,1039,197.2,1037.1,197.2z"/>
	<path class="st0" d="M1043.7,193.5c0,1.4,0.7,2.3,2.1,2.3c0.9,0,1.4-0.3,2-0.8l1,1c-0.8,0.8-1.6,1.3-3,1.3c-2,0-3.7-1.1-3.7-4.2
		c0-2.6,1.4-4.1,3.4-4.1c2.2,0,3.4,1.6,3.4,3.9v0.7L1043.7,193.5L1043.7,193.5z M1047.1,191.3c-0.3-0.6-0.8-1-1.6-1
		c-0.8,0-1.4,0.4-1.6,1c-0.2,0.4-0.2,0.6-0.2,1.1h3.6C1047.3,191.9,1047.2,191.6,1047.1,191.3z"/>
</g>
<g>
	<rect x="601.3" y="34.2" class="st5" width="172.6" height="35.2"/>
	<path class="st6" d="M638.9,40.1v4.1h-1.1v-4.1l-3-5.9h1.2l2.4,4.8l2.3-4.8h1.1L638.9,40.1z"/>
	<path class="st6" d="M646.5,43.5c-0.5,0.5-1.1,0.8-2,0.8s-1.5-0.3-2-0.8c-0.7-0.7-0.8-1.7-0.8-2.7s0.1-2,0.8-2.7
		c0.5-0.5,1.1-0.8,2-0.8s1.5,0.3,2,0.8c0.7,0.7,0.8,1.7,0.8,2.7S647.2,42.8,646.5,43.5z M645.8,38.6c-0.3-0.3-0.8-0.5-1.3-0.5
		s-0.9,0.2-1.2,0.5c-0.5,0.5-0.6,1.4-0.6,2.1s0.1,1.6,0.6,2.1c0.3,0.3,0.8,0.5,1.2,0.5s0.9-0.2,1.3-0.5c0.5-0.5,0.5-1.4,0.5-2.1
		S646.3,39.1,645.8,38.6z"/>
	<path class="st6" d="M653.9,44.2v-0.8c-0.5,0.6-1.2,0.9-1.9,0.9s-1.4-0.2-1.8-0.6c-0.5-0.5-0.7-1.1-0.7-1.9v-4.5h1v4.2
		c0,1.2,0.6,1.8,1.7,1.8c1,0,1.7-0.6,1.7-1.8v-4.2h1v6.9C654.9,44.2,653.9,44.2,653.9,44.2z"/>
	<path class="st6" d="M661.2,38.6c-0.4-0.4-0.7-0.5-1.2-0.5c-1,0-1.7,0.8-1.7,1.8v4.2h-1v-6.8h1v0.8c0.4-0.6,1.1-0.9,1.9-0.9
		c0.7,0,1.2,0.2,1.7,0.6L661.2,38.6z"/>
	<path class="st6" d="M671.1,44.2v-0.8c-0.5,0.6-1.2,0.9-1.9,0.9s-1.4-0.2-1.8-0.6c-0.5-0.5-0.7-1.1-0.7-1.9v-4.5h1v4.2
		c0,1.2,0.6,1.8,1.7,1.8c1,0,1.7-0.6,1.7-1.8v-4.2h1v6.9C672.1,44.2,671.1,44.2,671.1,44.2z"/>
	<path class="st6" d="M679.1,44.2V40c0-1.2-0.7-1.8-1.7-1.8s-1.7,0.6-1.7,1.8v4.2h-1v-6.9h1v0.8c0.5-0.6,1.2-0.8,1.9-0.8
		s1.3,0.2,1.8,0.6c0.5,0.5,0.7,1.1,0.7,1.9v4.4H679.1z"/>
	<path class="st6" d="M682.5,35.3v-1.1h1.1v1.1H682.5z M682.5,44.2v-6.9h1v6.9H682.5z"/>
	<path class="st6" d="M690.2,47.3v-3.9c-0.6,0.7-1.2,0.9-1.9,0.9s-1.3-0.2-1.7-0.6c-0.7-0.7-0.8-1.8-0.8-2.9s0.1-2.2,0.8-2.9
		c0.4-0.4,1-0.6,1.7-0.6c0.8,0,1.4,0.2,2,0.9v-0.9h1v10H690.2z M688.4,38.1c-1.5,0-1.7,1.3-1.7,2.6s0.2,2.6,1.7,2.6s1.7-1.3,1.7-2.6
		S689.9,38.1,688.4,38.1z"/>
	<path class="st6" d="M698,44.2v-0.8c-0.5,0.6-1.2,0.9-1.9,0.9s-1.4-0.2-1.8-0.6c-0.5-0.5-0.7-1.1-0.7-1.9v-4.5h1v4.2
		c0,1.2,0.6,1.8,1.7,1.8c1,0,1.7-0.6,1.7-1.8v-4.2h1v6.9C699,44.2,698,44.2,698,44.2z"/>
	<path class="st6" d="M702.2,41c0,1.5,0.7,2.4,2,2.4c0.8,0,1.3-0.2,1.8-0.8l0.7,0.6c-0.7,0.7-1.3,1.1-2.5,1.1c-1.8,0-3-1.1-3-3.5
		c0-2.2,1.1-3.5,2.8-3.5c1.8,0,2.8,1.3,2.8,3.3v0.5L702.2,41L702.2,41z M705.6,39.1c-0.3-0.6-0.9-1-1.6-1s-1.3,0.4-1.6,1
		c-0.2,0.4-0.2,0.6-0.2,1.1h3.6C705.8,39.7,705.8,39.5,705.6,39.1z"/>
	<path class="st6" d="M715.1,44.3c-1.7,0-3.1-1.2-3.1-3.5c0-2.4,1.3-3.5,3.1-3.5c1,0,1.6,0.3,2.3,1l-0.7,0.6
		c-0.5-0.6-0.9-0.8-1.6-0.8s-1.2,0.3-1.6,0.8c-0.3,0.4-0.4,1-0.4,1.8c0,0.9,0.1,1.4,0.4,1.8c0.4,0.5,0.9,0.8,1.6,0.8
		c0.7,0,1.1-0.2,1.6-0.8l0.7,0.7C716.7,44,716.1,44.3,715.1,44.3z"/>
	<path class="st6" d="M723.5,43.5c-0.5,0.5-1.1,0.8-2,0.8s-1.5-0.3-2-0.8c-0.7-0.7-0.8-1.7-0.8-2.7s0.1-2,0.8-2.7
		c0.5-0.5,1.1-0.8,2-0.8s1.5,0.3,2,0.8c0.7,0.7,0.8,1.7,0.8,2.7S724.2,42.8,723.5,43.5z M722.8,38.6c-0.3-0.3-0.8-0.5-1.3-0.5
		s-0.9,0.2-1.2,0.5c-0.5,0.5-0.6,1.4-0.6,2.1s0.1,1.6,0.6,2.1c0.3,0.3,0.8,0.5,1.2,0.5s0.9-0.2,1.3-0.5c0.5-0.5,0.5-1.4,0.5-2.1
		S723.3,39.1,722.8,38.6z"/>
	<path class="st6" d="M730.6,44.2v-0.8c-0.6,0.7-1.2,0.9-2,0.9c-0.7,0-1.3-0.2-1.7-0.6c-0.7-0.7-0.8-1.8-0.8-2.9s0.1-2.2,0.8-2.9
		c0.4-0.4,1-0.6,1.7-0.6c0.8,0,1.4,0.2,1.9,0.9v-3.9h1v10L730.6,44.2L730.6,44.2z M728.9,38.1c-1.5,0-1.7,1.3-1.7,2.6
		s0.2,2.6,1.7,2.6s1.7-1.3,1.7-2.6S730.4,38.1,728.9,38.1z"/>
	<path class="st6" d="M734.8,41c0,1.5,0.7,2.4,2,2.4c0.8,0,1.3-0.2,1.8-0.8l0.7,0.6c-0.7,0.7-1.3,1.1-2.5,1.1c-1.8,0-3-1.1-3-3.5
		c0-2.2,1.1-3.5,2.8-3.5c1.8,0,2.8,1.3,2.8,3.3v0.5L734.8,41L734.8,41z M738.2,39.1c-0.3-0.6-0.9-1-1.6-1s-1.3,0.4-1.6,1
		c-0.2,0.4-0.2,0.6-0.2,1.1h3.6C738.4,39.7,738.4,39.5,738.2,39.1z"/>
</g>
<g>
	<rect x="607.6" y="71.7" class="st5" width="159.8" height="94"/>
	<path class="st4" d="M637.8,88.9c-2.8,0-5.4-1.5-5.4-5h3.1c0,1.5,1.1,2.2,2.3,2.2c1.3,0,2.3-0.8,2.3-2.4c0-1.4-0.9-2.4-2.4-2.4
		h-0.5v-2.7h0.5c1.5,0,2.2-0.9,2.2-2.1c0-1.4-1-2.2-2.1-2.2c-1.2,0-2,0.8-2.1,2.1h-3.1c0.1-3,2.4-4.9,5.2-4.9c3,0,5.2,2,5.2,4.9
		c0,1.8-0.8,2.9-2,3.5c1.2,0.6,2.2,1.8,2.2,3.9C643.2,87.2,640.7,88.9,637.8,88.9z"/>
	<path class="st4" d="M645.7,88.8V86l6.4-7.4c0.6-0.7,0.9-1.3,0.9-2.1c0-1.3-0.7-2.1-2.1-2.1c-1,0-2.1,0.5-2.1,2.2h-3.1
		c0-3.1,2.3-5,5.2-5c3,0,5.2,1.9,5.2,5c0,1.7-0.6,2.5-1.8,3.9l-4.8,5.5h6.6v2.8H645.7z"/>
	<path class="st4" d="M663.3,88.8V75l-3.5,3v-3.4l3.5-3h3.1v17.1h-3.1V88.8z"/>
	<path class="st4" d="M676.9,88.9c-3,0-5.3-1.9-5.3-5.3c0-1.6,0.7-3,1.4-4.6l3.6-7.4h3.4l-3.6,7.1c0.4-0.2,0.9-0.2,1.3-0.2
		c2.3,0,4.5,1.9,4.5,5.1C682.2,86.9,679.9,88.9,676.9,88.9z M676.9,81.1c-1.3,0-2.2,0.9-2.2,2.5s0.9,2.5,2.2,2.5s2.2-0.9,2.2-2.5
		C679.1,82.1,678.2,81.1,676.9,81.1z"/>
	<path class="st4" d="M693.8,87.5c-0.8,0.8-2,1.4-3.8,1.4s-3.1-0.6-3.8-1.4c-1.1-1.1-1.3-2.3-1.4-3.6h3.1c0.2,1.3,0.8,2.1,2.1,2.1
		c0.6,0,1.1-0.2,1.5-0.6c0.6-0.6,0.7-1.5,0.7-2.5c0-2-0.6-3.1-2.1-3.1c-1.3,0-1.8,0.7-2.1,1.4h-2.9v-9.6h9.7v2.8H688v3.7
		c0.5-0.4,1.4-0.9,2.6-0.9c1.4,0,2.5,0.5,3.2,1.2c1.3,1.3,1.5,3,1.5,4.6C695.3,84.9,695,86.3,693.8,87.5z"/>
	<path class="st4" d="M700.7,83.5c0,1.6,1,2.8,2.7,2.8c1.4,0,2-0.4,2.8-1.2l1.9,1.8c-1.3,1.3-2.5,2-4.8,2c-3,0-5.8-1.3-5.8-6.4
		c0-4.1,2.2-6.4,5.4-6.4c3.5,0,5.4,2.5,5.4,6v1.4C708.3,83.5,700.7,83.5,700.7,83.5z M705.1,80c-0.3-0.7-1-1.3-2.1-1.3
		s-1.8,0.6-2.1,1.3c-0.2,0.5-0.3,0.8-0.3,1.3h4.8C705.4,80.8,705.3,80.5,705.1,80z"/>
	<path class="st4" d="M720,87.5c-0.8,0.8-2,1.4-3.8,1.4s-3.1-0.6-3.8-1.4c-1.1-1.1-1.3-2.3-1.4-3.6h3.1c0.2,1.3,0.8,2.1,2.1,2.1
		c0.6,0,1.1-0.2,1.5-0.6c0.6-0.6,0.7-1.5,0.7-2.5c0-2-0.6-3.1-2.1-3.1c-1.3,0-1.8,0.7-2.1,1.4h-2.9v-9.6h9.7v2.8h-6.9v3.7
		c0.5-0.4,1.4-0.9,2.6-0.9c1.4,0,2.5,0.5,3.2,1.2c1.3,1.3,1.5,3,1.5,4.6C721.5,84.9,721.2,86.3,720,87.5z"/>
	<path class="st4" d="M728.4,83.4h-2.3l-0.8-11.7h3.9L728.4,83.4z M725.5,88.8v-3.6h3.6v3.6H725.5z"/>
	<path class="st4" d="M739.1,88.8v-1.1c-0.8,0.8-1.6,1.2-3.1,1.2c-1.4,0-2.4-0.4-3.2-1.1c-0.7-0.7-1-1.7-1-2.8c0-2,1.4-3.6,4.3-3.6
		h3v-0.6c0-1.4-0.7-2-2.3-2c-1.2,0-1.8,0.3-2.4,1l-2-1.9c1.2-1.3,2.4-1.7,4.5-1.7c3.5,0,5.3,1.5,5.3,4.4v8.2H739.1z M739.1,83.5
		h-2.5c-1.1,0-1.8,0.5-1.8,1.4s0.6,1.4,1.8,1.4c0.9,0,1.4-0.1,2-0.6c0.3-0.3,0.5-0.8,0.5-1.6V83.5z"/>
</g>
<circle class="st2" cx="873.6" cy="-5.6" r="3.4"/>
<line class="st3" x1="860.7" y1="4.5" x2="1083.4" y2="4.5"/>
<circle class="st2" cx="886.1" cy="-5.6" r="3.4"/>
<circle class="st2" cx="897.8" cy="-5.6" r="3.4"/>
<g>
	<polygon class="st7" points="1061.7,237.4 1066.9,244.1 1071.5,240.5 1066.3,233.8 1072,231.3 1046.9,214.3 1057.8,242.3 	"/>
</g>
<g>
	<rect x="574.4" y="187.7" class="st5" width="15.7" height="12.3"/>
	<path class="st8" d="M575.2,190.4v-1.1c0.5,0,0.9-0.1,1.1-0.1c0.3-0.1,0.6-0.2,0.8-0.4c0.1-0.2,0.3-0.4,0.3-0.6
		c0-0.2,0.1-0.3,0.1-0.3h1.5v8.5h-1.7v-5.9L575.2,190.4L575.2,190.4z"/>
	<path class="st8" d="M581.9,194.6h1.8v1.8h-1.8C581.9,196.4,581.9,194.6,581.9,194.6z"/>
</g>
<g>
	<rect x="860.7" y="246.3" class="st5" width="15.7" height="12.3"/>
	<path class="st8" d="M861.5,253.3c0.2-0.6,0.8-1.2,1.7-1.8c0.8-0.6,1.3-0.9,1.5-1.2c0.3-0.4,0.5-0.8,0.5-1.2s-0.1-0.7-0.3-0.9
		s-0.5-0.4-0.9-0.4c-0.5,0-0.9,0.2-1,0.6c-0.1,0.2-0.2,0.6-0.2,1h-1.6c0-0.7,0.2-1.3,0.4-1.8c0.4-0.8,1.2-1.3,2.4-1.3
		c0.9,0,1.6,0.2,2.1,0.7s0.8,1.2,0.8,2c0,0.6-0.2,1.2-0.6,1.7c-0.2,0.3-0.7,0.7-1.2,1.1l-0.7,0.5c-0.4,0.3-0.7,0.5-0.9,0.6
		s-0.3,0.3-0.4,0.5h3.7v1.5H861C861.1,254.4,861.3,253.8,861.5,253.3z"/>
	<path class="st8" d="M868.2,253.2h1.8v1.8h-1.8V253.2z"/>
</g>
<g>
	<g>
		<path class="st9" d="M769.1,188.2c0,0,23.3,59.1,69,44"/>
		<g>
			<polygon class="st8" points="835.9,228.1 839,236.7 841.7,230.9 			"/>
		</g>
	</g>
</g>
<g>
	<rect x="885.8" y="24.9" class="st5" width="172.6" height="83.1"/>
	<path class="st6" d="M929.6,34.9c-1,0-1.9-0.4-2.5-1c-0.9-0.9-0.9-1.9-0.9-4s0-3.1,0.9-4c0.7-0.7,1.6-1,2.5-1c1.8,0,3.1,1.1,3.5,3
		H932c-0.3-1.2-1.1-2-2.4-2c-0.7,0-1.3,0.3-1.7,0.7c-0.6,0.6-0.7,1.3-0.7,3.4s0.1,2.8,0.7,3.4c0.4,0.4,1.1,0.7,1.7,0.7
		c1.2,0,2.1-0.8,2.4-2h1.1C932.8,33.9,931.4,34.9,929.6,34.9z"/>
	<path class="st6" d="M939.7,34.2c-0.5,0.5-1.1,0.8-2,0.8c-0.8,0-1.5-0.3-2-0.8c-0.7-0.7-0.8-1.7-0.8-2.7s0.1-2,0.8-2.7
		c0.5-0.5,1.1-0.8,2-0.8c0.8,0,1.5,0.3,2,0.8c0.7,0.7,0.8,1.7,0.8,2.7S940.4,33.5,939.7,34.2z M939,29.3c-0.3-0.3-0.8-0.5-1.3-0.5
		s-0.9,0.2-1.2,0.5c-0.5,0.5-0.6,1.4-0.6,2.1c0,0.7,0.1,1.6,0.6,2.1c0.3,0.3,0.8,0.5,1.2,0.5s0.9-0.2,1.3-0.5
		c0.5-0.5,0.5-1.4,0.5-2.1S939.5,29.8,939,29.3z"/>
	<path class="st6" d="M946.8,34.9v-0.8c-0.6,0.7-1.2,0.9-2,0.9c-0.7,0-1.3-0.2-1.7-0.6c-0.7-0.7-0.8-1.8-0.8-2.9s0.1-2.2,0.8-2.9
		c0.4-0.4,1-0.6,1.7-0.6c0.8,0,1.4,0.2,1.9,0.9V25h1v10L946.8,34.9L946.8,34.9z M945.1,28.8c-1.5,0-1.7,1.3-1.7,2.6s0.2,2.6,1.7,2.6
		s1.7-1.3,1.7-2.6S946.6,28.8,945.1,28.8z"/>
	<path class="st6" d="M951,31.7c0,1.5,0.7,2.4,2,2.4c0.8,0,1.3-0.2,1.8-0.8l0.7,0.6c-0.7,0.7-1.3,1.1-2.5,1.1c-1.8,0-3-1.1-3-3.5
		c0-2.2,1.1-3.5,2.8-3.5c1.8,0,2.8,1.3,2.8,3.3v0.5L951,31.7L951,31.7z M954.4,29.8c-0.3-0.6-0.9-1-1.6-1s-1.3,0.4-1.6,1
		c-0.2,0.4-0.2,0.6-0.2,1.1h3.6C954.6,30.4,954.5,30.2,954.4,29.8z"/>
	<path class="st6" d="M965.1,34.9v-0.7c-0.6,0.6-1.1,0.7-2,0.7c-1,0-1.5-0.2-1.9-0.6c-0.3-0.3-0.5-0.9-0.5-1.4c0-1.2,0.8-2,2.4-2
		h2.1v-0.6c0-1-0.5-1.5-1.8-1.5c-0.9,0-1.3,0.2-1.7,0.8L961,29c0.6-0.8,1.3-1,2.4-1c1.8,0,2.8,0.8,2.8,2.3V35L965.1,34.9L965.1,34.9
		L965.1,34.9z M965.1,31.7h-1.9c-1,0-1.5,0.4-1.5,1.2s0.5,1.2,1.6,1.2c0.6,0,1.1,0,1.5-0.5c0.2-0.2,0.3-0.6,0.3-1.2L965.1,31.7
		L965.1,31.7z"/>
	<path class="st6" d="M971.3,34.9c-1.7,0-3.1-1.2-3.1-3.5c0-2.4,1.3-3.5,3.1-3.5c1,0,1.6,0.3,2.3,1l-0.7,0.6
		c-0.5-0.6-0.9-0.8-1.6-0.8s-1.2,0.3-1.6,0.8c-0.3,0.4-0.4,1-0.4,1.8c0,0.9,0.1,1.4,0.4,1.8c0.4,0.5,0.9,0.8,1.6,0.8
		s1.1-0.2,1.6-0.8l0.7,0.7C972.8,34.7,972.2,34.9,971.3,34.9z"/>
	<path class="st6" d="M977.9,34.9c-1.7,0-3.1-1.2-3.1-3.5c0-2.4,1.3-3.5,3.1-3.5c1,0,1.6,0.3,2.3,1l-0.7,0.6
		c-0.5-0.6-0.9-0.8-1.6-0.8s-1.2,0.3-1.6,0.8c-0.3,0.4-0.4,1-0.4,1.8c0,0.9,0.1,1.4,0.4,1.8c0.4,0.5,0.9,0.8,1.6,0.8
		s1.1-0.2,1.6-0.8l0.7,0.7C979.5,34.7,978.9,34.9,977.9,34.9z"/>
	<path class="st6" d="M982.5,31.7c0,1.5,0.7,2.4,2,2.4c0.8,0,1.3-0.2,1.8-0.8l0.7,0.6c-0.7,0.7-1.3,1.1-2.5,1.1c-1.8,0-3-1.1-3-3.5
		c0-2.2,1.1-3.5,2.8-3.5c1.8,0,2.8,1.3,2.8,3.3v0.5L982.5,31.7L982.5,31.7z M986,29.8c-0.3-0.6-0.9-1-1.6-1s-1.3,0.4-1.6,1
		c-0.2,0.4-0.2,0.6-0.2,1.1h3.6C986.1,30.4,986.1,30.2,986,29.8z"/>
	<path class="st6" d="M993.9,34.3c-0.4,0.4-1,0.6-1.7,0.6c-0.8,0-1.4-0.2-1.9-0.9v3.9h-1v-10h1v0.8c0.6-0.7,1.2-0.9,1.9-0.9
		s1.3,0.2,1.7,0.6c0.7,0.7,0.8,1.8,0.8,2.9S994.6,33.6,993.9,34.3z M992.1,28.8c-1.5,0-1.7,1.3-1.7,2.6s0.2,2.6,1.7,2.6
		s1.7-1.3,1.7-2.6S993.6,28.8,992.1,28.8z"/>
	<path class="st6" d="M998.9,34.9c-1.2,0-1.8-0.8-1.8-1.8v-4.2h-0.9v-0.8h0.9v-2.2h1v2.2h1.5v0.8h-1.5v4.2c0,0.6,0.3,1,0.9,1h0.5V35
		L998.9,34.9L998.9,34.9L998.9,34.9z"/>
	<path class="st6" d="M1002.1,31.7c0,1.5,0.7,2.4,2,2.4c0.8,0,1.3-0.2,1.8-0.8l0.7,0.6c-0.7,0.7-1.3,1.1-2.5,1.1c-1.8,0-3-1.1-3-3.5
		c0-2.2,1.1-3.5,2.8-3.5c1.8,0,2.8,1.3,2.8,3.3v0.5L1002.1,31.7L1002.1,31.7z M1005.5,29.8c-0.3-0.6-0.9-1-1.6-1s-1.3,0.4-1.6,1
		c-0.2,0.4-0.2,0.6-0.2,1.1h3.6C1005.7,30.4,1005.7,30.2,1005.5,29.8z"/>
	<path class="st6" d="M1013,34.9v-0.8c-0.6,0.7-1.2,0.9-2,0.9c-0.7,0-1.3-0.2-1.7-0.6c-0.7-0.7-0.8-1.8-0.8-2.9s0.1-2.2,0.8-2.9
		c0.4-0.4,1-0.6,1.7-0.6c0.8,0,1.4,0.2,1.9,0.9V25h1v10L1013,34.9L1013,34.9z M1011.3,28.8c-1.5,0-1.7,1.3-1.7,2.6s0.2,2.6,1.7,2.6
		s1.7-1.3,1.7-2.6S1012.8,28.8,1011.3,28.8z"/>
	<path class="st6" d="M1016.5,34.9v-1.3h1.3v1.3H1016.5z"/>
	<path class="st6" d="M913.6,51.7l-0.8-2.3h-4.4l-0.8,2.3h-1.1l3.7-10h0.9l3.7,10H913.6z M910.7,43.2l-1.9,5.3h3.7L910.7,43.2z"/>
	<path class="st6" d="M917.9,51.7c-1.2,0-1.8-0.8-1.8-1.8v-8.1h1v8.1c0,0.7,0.2,1,0.9,1h0.5v0.9L917.9,51.7L917.9,51.7z"/>
	<path class="st6" d="M920.3,42.8v-1.1h1.1v1.1H920.3z M920.3,51.7v-6.9h1v6.9H920.3z"/>
	<path class="st6" d="M926.5,51.7c-1.7,0-3.1-1.2-3.1-3.5c0-2.4,1.3-3.5,3.1-3.5c1,0,1.6,0.3,2.3,1l-0.7,0.6
		c-0.5-0.6-0.9-0.8-1.6-0.8s-1.2,0.3-1.6,0.8c-0.3,0.4-0.4,1-0.4,1.8s0.1,1.4,0.4,1.8c0.4,0.5,0.9,0.8,1.6,0.8s1.1-0.2,1.6-0.8
		l0.7,0.7C928.1,51.5,927.5,51.7,926.5,51.7z"/>
	<path class="st6" d="M931.1,48.5c0,1.5,0.7,2.4,2,2.4c0.8,0,1.3-0.2,1.8-0.8l0.7,0.6c-0.7,0.7-1.3,1.1-2.5,1.1c-1.8,0-3-1.1-3-3.5
		c0-2.2,1.1-3.5,2.8-3.5c1.8,0,2.8,1.3,2.8,3.3v0.5L931.1,48.5L931.1,48.5z M934.6,46.6c-0.3-0.6-0.9-1-1.6-1s-1.3,0.4-1.6,1
		c-0.2,0.4-0.2,0.6-0.2,1.1h3.6C934.8,47.2,934.7,47,934.6,46.6z"/>
	<path class="st6" d="M945.8,51.7v-4.3c0-1.2-0.6-1.8-1.7-1.8c-1,0-1.7,0.6-1.7,1.8v4.3h-1v-10h1v3.8c0.5-0.6,1.2-0.8,1.9-0.8
		c1.6,0,2.5,1,2.5,2.5v4.4L945.8,51.7L945.8,51.7z"/>
	<path class="st6" d="M953.2,51.7V51c-0.6,0.6-1.1,0.7-2,0.7c-1,0-1.5-0.2-1.9-0.6c-0.3-0.3-0.5-0.9-0.5-1.4c0-1.2,0.8-2,2.4-2h2.1
		V47c0-1-0.5-1.5-1.8-1.5c-0.9,0-1.3,0.2-1.7,0.8l-0.7-0.6c0.6-0.8,1.3-1,2.4-1c1.8,0,2.8,0.8,2.8,2.3v4.7H953.2z M953.2,48.5h-1.9
		c-1,0-1.5,0.4-1.5,1.2s0.5,1.2,1.6,1.2c0.6,0,1.1,0,1.5-0.5c0.2-0.2,0.4-0.6,0.4-1.2L953.2,48.5L953.2,48.5z"/>
	<path class="st6" d="M958.8,51.7c-1.2,0-2.1-0.3-2.8-1l0.7-0.7c0.5,0.6,1.3,0.8,2.1,0.8c1.1,0,1.8-0.4,1.8-1.2c0-0.6-0.4-0.9-1.1-1
		l-1.1-0.1c-1.3-0.1-2.1-0.7-2.1-1.8c0-1.3,1.1-2,2.5-2c1,0,1.9,0.2,2.5,0.7l-0.7,0.7c-0.5-0.4-1.1-0.5-1.8-0.5
		c-1,0-1.5,0.4-1.5,1.1c0,0.6,0.3,0.9,1.2,1l1.1,0.1c1.2,0.1,2,0.6,2,1.9C961.6,51,960.5,51.7,958.8,51.7z"/>
	<path class="st6" d="M969,51.7c-1.2,0-1.8-0.8-1.8-1.8v-4.2h-0.9v-0.8h0.9v-2.2h1v2.2h1.5v0.8h-1.5v4.2c0,0.6,0.3,1,0.9,1h0.5v0.9
		L969,51.7L969,51.7z"/>
	<path class="st6" d="M972.3,48.5c0,1.5,0.7,2.4,2,2.4c0.8,0,1.3-0.2,1.8-0.8l0.7,0.6c-0.7,0.7-1.3,1.1-2.5,1.1c-1.8,0-3-1.1-3-3.5
		c0-2.2,1.1-3.5,2.8-3.5c1.8,0,2.8,1.3,2.8,3.3v0.5L972.3,48.5L972.3,48.5z M975.7,46.6c-0.3-0.6-0.9-1-1.6-1s-1.3,0.4-1.6,1
		c-0.2,0.4-0.2,0.6-0.2,1.1h3.6C975.9,47.2,975.8,47,975.7,46.6z"/>
	<path class="st6" d="M987.9,51.7v-4.2c0-1.2-0.7-1.8-1.7-1.8s-1.7,0.6-1.7,1.7v4.4h-1v-4.2c0-1.2-0.7-1.8-1.7-1.8s-1.7,0.6-1.7,1.8
		v4.2h-1v-6.9h1v0.8c0.5-0.6,1.2-0.8,1.9-0.8c1,0,1.7,0.4,2.1,1.1c0.5-0.8,1.3-1.1,2.3-1.1c0.7,0,1.4,0.2,1.8,0.6
		c0.5,0.5,0.7,1.1,0.7,1.9v4.4L987.9,51.7L987.9,51.7z"/>
	<path class="st6" d="M996,51.1c-0.4,0.4-1,0.6-1.7,0.6c-0.8,0-1.4-0.2-1.9-0.9v3.9h-1v-10h1v0.8c0.6-0.7,1.2-0.9,1.9-0.9
		s1.3,0.2,1.7,0.6c0.7,0.7,0.8,1.8,0.8,2.9S996.7,50.4,996,51.1z M994.1,45.6c-1.5,0-1.7,1.3-1.7,2.6s0.2,2.6,1.7,2.6
		s1.7-1.3,1.7-2.6S995.6,45.6,994.1,45.6z"/>
	<path class="st6" d="M1003.4,51c-0.5,0.5-1.1,0.8-2,0.8s-1.5-0.3-2-0.8c-0.7-0.7-0.8-1.7-0.8-2.7s0.1-2,0.8-2.7
		c0.5-0.5,1.1-0.8,2-0.8s1.5,0.3,2,0.8c0.7,0.7,0.8,1.7,0.8,2.7S1004.1,50.3,1003.4,51z M1002.7,46.1c-0.3-0.3-0.8-0.5-1.3-0.5
		s-0.9,0.2-1.2,0.5c-0.5,0.5-0.6,1.4-0.6,2.1s0.1,1.6,0.6,2.1c0.3,0.3,0.8,0.5,1.2,0.5s0.9-0.2,1.3-0.5c0.5-0.5,0.5-1.4,0.5-2.1
		S1003.2,46.6,1002.7,46.1z"/>
	<path class="st6" d="M1010.2,46.1c-0.4-0.4-0.7-0.5-1.2-0.5c-1,0-1.7,0.8-1.7,1.8v4.2h-1v-6.9h1v0.8c0.4-0.6,1.1-0.9,1.9-0.9
		c0.7,0,1.2,0.2,1.7,0.6L1010.2,46.1z"/>
	<path class="st6" d="M1016.1,51.7V51c-0.6,0.6-1.1,0.7-2,0.7c-1,0-1.5-0.2-1.9-0.6c-0.3-0.3-0.5-0.9-0.5-1.4c0-1.2,0.8-2,2.4-2h2.1
		V47c0-1-0.5-1.5-1.8-1.5c-0.9,0-1.3,0.2-1.7,0.8l-0.7-0.6c0.6-0.8,1.3-1,2.4-1c1.8,0,2.8,0.8,2.8,2.3v4.7
		C1017.2,51.7,1016.1,51.7,1016.1,51.7z M1016.1,48.5h-1.9c-1,0-1.5,0.4-1.5,1.2s0.5,1.2,1.6,1.2c0.6,0,1.1,0,1.5-0.5
		c0.2-0.2,0.4-0.6,0.4-1.2L1016.1,48.5L1016.1,48.5z"/>
	<path class="st6" d="M1023.4,46.1c-0.4-0.4-0.7-0.5-1.2-0.5c-1,0-1.7,0.8-1.7,1.8v4.2h-1v-6.9h1v0.8c0.4-0.6,1.1-0.9,1.9-0.9
		c0.7,0,1.2,0.2,1.7,0.6L1023.4,46.1z"/>
	<path class="st6" d="M1025.4,42.8v-1.1h1.1v1.1H1025.4z M1025.4,51.7v-6.9h1v6.9H1025.4z"/>
	<path class="st6" d="M1030.7,51.7c-1.2,0-1.8-0.8-1.8-1.8v-8.1h1v8.1c0,0.7,0.2,1,0.9,1h0.5v0.9L1030.7,51.7L1030.7,51.7z"/>
	<path class="st6" d="M1034.5,53.3c-0.1,0.4-0.3,0.6-0.5,0.8c-0.4,0.4-0.9,0.5-1.3,0.5h-0.4v-0.9h0.3c0.7,0,0.9-0.2,1.1-0.9l0.5-1.3
		l-2.5-6.8h1.1l1.9,5.5l1.9-5.5h1.1L1034.5,53.3z"/>
	<path class="st6" d="M893.3,68.5c-1.2,0-2.1-0.3-2.8-1l0.7-0.7c0.5,0.6,1.3,0.8,2.1,0.8c1.1,0,1.8-0.4,1.8-1.2c0-0.6-0.3-0.9-1.1-1
		l-1.1-0.1c-1.3-0.1-2.1-0.7-2.1-1.8c0-1.3,1.1-2,2.5-2c1,0,1.9,0.2,2.5,0.7l-0.7,0.7c-0.5-0.4-1.1-0.5-1.8-0.5
		c-1,0-1.5,0.4-1.5,1.1c0,0.6,0.3,0.9,1.2,1l1.1,0.1c1.2,0.1,2,0.6,2,1.9S895,68.5,893.3,68.5z"/>
	<path class="st6" d="M902.5,68.5v-4.3c0-1.2-0.6-1.8-1.7-1.8c-1,0-1.7,0.6-1.7,1.8v4.3h-1v-10h1v3.8c0.5-0.6,1.2-0.8,1.9-0.8
		c1.6,0,2.5,1,2.5,2.5v4.4L902.5,68.5L902.5,68.5z"/>
	<path class="st6" d="M909.9,68.5v-0.7c-0.6,0.6-1.1,0.7-2,0.7c-1,0-1.5-0.2-1.9-0.6c-0.3-0.3-0.5-0.9-0.5-1.4c0-1.2,0.8-2,2.4-2
		h2.1v-0.7c0-1-0.5-1.5-1.8-1.5c-0.9,0-1.3,0.2-1.7,0.8l-0.7-0.6c0.6-0.8,1.3-1,2.4-1c1.8,0,2.8,0.8,2.8,2.3v4.7H909.9z M909.9,65.3
		H908c-1,0-1.5,0.4-1.5,1.2s0.5,1.2,1.6,1.2c0.6,0,1.1,0,1.5-0.5c0.2-0.2,0.4-0.6,0.4-1.2L909.9,65.3L909.9,65.3z"/>
	<path class="st6" d="M917.2,62.9c-0.4-0.4-0.7-0.5-1.2-0.5c-1,0-1.7,0.8-1.7,1.8v4.2h-1v-6.9h1v0.8c0.4-0.6,1.1-0.9,1.9-0.9
		c0.7,0,1.2,0.2,1.7,0.6L917.2,62.9z"/>
	<path class="st6" d="M919.4,65.3c0,1.5,0.7,2.4,2,2.4c0.8,0,1.3-0.2,1.8-0.8l0.7,0.6c-0.7,0.7-1.3,1.1-2.5,1.1c-1.8,0-3-1.1-3-3.5
		c0-2.2,1.1-3.5,2.8-3.5c1.8,0,2.8,1.3,2.8,3.3v0.4H919.4z M922.8,63.4c-0.3-0.6-0.9-1-1.6-1s-1.3,0.4-1.6,1
		c-0.2,0.4-0.2,0.6-0.2,1.1h3.6C923,64,923,63.8,922.8,63.4z"/>
	<path class="st6" d="M930.3,68.5v-0.8c-0.6,0.7-1.2,0.9-2,0.9c-0.7,0-1.3-0.2-1.7-0.6c-0.7-0.7-0.8-1.8-0.8-2.9s0.1-2.2,0.8-2.9
		c0.4-0.4,1-0.6,1.7-0.6c0.8,0,1.4,0.2,1.9,0.9v-3.9h1v10L930.3,68.5L930.3,68.5z M928.6,62.4c-1.5,0-1.7,1.3-1.7,2.6
		c0,1.3,0.2,2.6,1.7,2.6s1.7-1.3,1.7-2.6S930.1,62.4,928.6,62.4z"/>
	<path class="st6" d="M941.7,68.5v-4.3c0-1.2-0.6-1.8-1.7-1.8c-1,0-1.7,0.6-1.7,1.8v4.3h-1v-10h1v3.8c0.5-0.6,1.2-0.8,1.9-0.8
		c1.6,0,2.5,1,2.5,2.5v4.4L941.7,68.5L941.7,68.5z"/>
	<path class="st6" d="M945.8,65.3c0,1.5,0.7,2.4,2,2.4c0.8,0,1.3-0.2,1.8-0.8l0.7,0.6c-0.7,0.7-1.3,1.1-2.5,1.1c-1.8,0-3-1.1-3-3.5
		c0-2.2,1.1-3.5,2.8-3.5c1.8,0,2.8,1.3,2.8,3.3v0.4H945.8z M949.2,63.4c-0.3-0.6-0.9-1-1.6-1s-1.3,0.4-1.6,1
		c-0.2,0.4-0.2,0.6-0.2,1.1h3.6C949.4,64,949.4,63.8,949.2,63.4z"/>
	<path class="st6" d="M956.4,62.9c-0.4-0.4-0.7-0.5-1.2-0.5c-1,0-1.7,0.8-1.7,1.8v4.2h-1v-6.9h1v0.8c0.4-0.6,1.1-0.9,1.9-0.9
		c0.7,0,1.2,0.2,1.7,0.6L956.4,62.9z"/>
	<path class="st6" d="M965.9,68.5v-0.7c-0.6,0.6-1.1,0.7-2,0.7c-1,0-1.5-0.2-1.9-0.6c-0.3-0.3-0.5-0.9-0.5-1.4c0-1.2,0.8-2,2.4-2
		h2.1v-0.7c0-1-0.5-1.5-1.8-1.5c-0.9,0-1.3,0.2-1.7,0.8l-0.7-0.6c0.6-0.8,1.3-1,2.4-1c1.8,0,2.8,0.8,2.8,2.3v4.7H965.9z M965.9,65.3
		H964c-1,0-1.5,0.4-1.5,1.2s0.5,1.2,1.6,1.2c0.6,0,1.1,0,1.5-0.5c0.2-0.2,0.3-0.6,0.3-1.2L965.9,65.3L965.9,65.3z"/>
	<path class="st6" d="M972,68.5c-1.7,0-3.1-1.2-3.1-3.5c0-2.4,1.3-3.5,3.1-3.5c1,0,1.6,0.3,2.3,1l-0.7,0.6c-0.5-0.6-0.9-0.8-1.6-0.8
		s-1.2,0.3-1.6,0.8c-0.3,0.4-0.4,1-0.4,1.8s0.1,1.4,0.4,1.8c0.4,0.5,0.9,0.8,1.6,0.8s1.1-0.2,1.6-0.8l0.7,0.7
		C973.6,68.3,972.9,68.5,972,68.5z"/>
	<path class="st6" d="M978.6,68.5c-1.7,0-3.1-1.2-3.1-3.5c0-2.4,1.3-3.5,3.1-3.5c1,0,1.6,0.3,2.3,1l-0.7,0.6
		c-0.5-0.6-0.9-0.8-1.6-0.8s-1.2,0.3-1.6,0.8c-0.3,0.4-0.4,1-0.4,1.8s0.1,1.4,0.4,1.8c0.4,0.5,0.9,0.8,1.6,0.8s1.1-0.2,1.6-0.8
		l0.7,0.7C980.2,68.3,979.6,68.5,978.6,68.5z"/>
	<path class="st6" d="M987,67.8c-0.5,0.5-1.1,0.8-2,0.8s-1.5-0.3-2-0.8c-0.7-0.7-0.8-1.7-0.8-2.7s0.1-2,0.8-2.7
		c0.5-0.5,1.1-0.8,2-0.8s1.5,0.3,2,0.8c0.7,0.7,0.8,1.7,0.8,2.7S987.7,67.1,987,67.8z M986.3,62.9c-0.3-0.3-0.8-0.5-1.3-0.5
		s-0.9,0.2-1.2,0.5c-0.5,0.5-0.6,1.4-0.6,2.1s0.1,1.6,0.6,2.1c0.3,0.3,0.8,0.5,1.2,0.5s0.9-0.2,1.3-0.5c0.5-0.5,0.5-1.4,0.5-2.1
		S986.8,63.4,986.3,62.9z"/>
	<path class="st6" d="M994.4,68.5v-0.8c-0.5,0.6-1.2,0.9-1.9,0.9s-1.4-0.2-1.8-0.6c-0.5-0.5-0.7-1.1-0.7-1.9v-4.4h1v4.2
		c0,1.2,0.6,1.8,1.7,1.8c1,0,1.7-0.6,1.7-1.8v-4.2h1v6.9L994.4,68.5L994.4,68.5z"/>
	<path class="st6" d="M1002.3,68.5v-4.2c0-1.2-0.7-1.8-1.7-1.8s-1.7,0.6-1.7,1.8v4.2h-1v-6.9h1v0.7c0.5-0.6,1.2-0.8,1.9-0.8
		s1.3,0.2,1.8,0.6c0.5,0.5,0.7,1.1,0.7,1.9v4.4L1002.3,68.5L1002.3,68.5z"/>
	<path class="st6" d="M1007.7,68.5c-1.2,0-1.8-0.8-1.8-1.8v-4.2h-0.9v-0.8h0.9v-2.2h1v2.2h1.5v0.8h-1.4v4.2c0,0.6,0.3,1,0.9,1h0.5
		v0.9L1007.7,68.5L1007.7,68.5z"/>
	<path class="st6" d="M1018,68.5v-0.8c-0.6,0.7-1.2,0.9-2,0.9c-0.7,0-1.3-0.2-1.7-0.6c-0.7-0.7-0.8-1.8-0.8-2.9s0.1-2.2,0.8-2.9
		c0.4-0.4,1-0.6,1.7-0.6c0.8,0,1.4,0.2,1.9,0.9v-3.9h1v10L1018,68.5L1018,68.5z M1016.3,62.4c-1.5,0-1.7,1.3-1.7,2.6
		c0,1.3,0.2,2.6,1.7,2.6s1.7-1.3,1.7-2.6S1017.8,62.4,1016.3,62.4z"/>
	<path class="st6" d="M1022.2,65.3c0,1.5,0.7,2.4,2,2.4c0.8,0,1.3-0.2,1.8-0.8l0.7,0.6c-0.7,0.7-1.3,1.1-2.5,1.1c-1.8,0-3-1.1-3-3.5
		c0-2.2,1.1-3.5,2.8-3.5c1.8,0,2.8,1.3,2.8,3.3v0.4H1022.2z M1025.6,63.4c-0.3-0.6-0.9-1-1.6-1c-0.7,0-1.3,0.4-1.6,1
		c-0.2,0.4-0.2,0.6-0.2,1.1h3.6C1025.8,64,1025.8,63.8,1025.6,63.4z"/>
	<path class="st6" d="M1030.9,68.5c-1.2,0-1.8-0.8-1.8-1.8v-4.2h-0.9v-0.8h0.9v-2.2h1v2.2h1.5v0.8h-1.5v4.2c0,0.6,0.3,1,0.9,1h0.5
		v0.9L1030.9,68.5L1030.9,68.5z"/>
	<path class="st6" d="M1037.4,68.5v-0.7c-0.6,0.6-1.1,0.7-2,0.7c-1,0-1.5-0.2-1.9-0.6c-0.3-0.3-0.5-0.9-0.5-1.4c0-1.2,0.8-2,2.4-2
		h2.1v-0.7c0-1-0.5-1.5-1.8-1.5c-0.9,0-1.3,0.2-1.7,0.8l-0.7-0.6c0.6-0.8,1.3-1,2.4-1c1.8,0,2.8,0.8,2.8,2.3v4.7
		C1038.5,68.5,1037.4,68.5,1037.4,68.5z M1037.4,65.3h-1.9c-1,0-1.5,0.4-1.5,1.2s0.5,1.2,1.6,1.2c0.6,0,1.1,0,1.5-0.5
		c0.2-0.2,0.4-0.6,0.4-1.2L1037.4,65.3L1037.4,65.3z"/>
	<path class="st6" d="M1040.8,59.6v-1.1h1.1v1.1H1040.8z M1040.9,68.5v-6.9h1v6.9H1040.9z"/>
	<path class="st6" d="M1046.1,68.5c-1.2,0-1.8-0.8-1.8-1.8v-8.1h1v8.1c0,0.7,0.2,1,0.9,1h0.5v0.9L1046.1,68.5L1046.1,68.5z"/>
	<path class="st6" d="M1050.7,68.5c-1.2,0-2.1-0.3-2.8-1l0.7-0.7c0.5,0.6,1.3,0.8,2.1,0.8c1.1,0,1.8-0.4,1.8-1.2
		c0-0.6-0.4-0.9-1.1-1l-1.1-0.1c-1.3-0.1-2.1-0.7-2.1-1.8c0-1.3,1.1-2,2.5-2c1,0,1.9,0.2,2.5,0.7l-0.7,0.7c-0.5-0.4-1.1-0.5-1.8-0.5
		c-1,0-1.5,0.4-1.5,1.1c0,0.6,0.3,0.9,1.2,1l1.1,0.1c1.2,0.1,2,0.6,2,1.9S1052.4,68.5,1050.7,68.5z"/>
	<path class="st6" d="M952.5,85.3h-0.9l-1.8-5.4l-1.8,5.4h-1l-2.2-6.9h1.1l1.6,5.5l1.8-5.5h0.9l1.8,5.5l1.6-5.5h1.1L952.5,85.3z"/>
	<path class="st6" d="M956,76.4v-1.1h1.1v1.1H956z M956,85.3v-6.9h1v6.9H956z"/>
	<path class="st6" d="M961.5,85.3c-1.2,0-1.8-0.8-1.8-1.8v-4.2h-0.9v-0.8h0.9v-2.2h1v2.2h1.5v0.8h-1.5v4.2c0,0.6,0.3,1,0.9,1h0.5
		v0.9L961.5,85.3L961.5,85.3z"/>
	<path class="st6" d="M968.6,85.3V81c0-1.2-0.6-1.8-1.7-1.8c-1.1,0-1.7,0.6-1.7,1.8v4.3h-1v-10h1v3.8c0.5-0.6,1.2-0.8,1.9-0.8
		c1.6,0,2.5,1,2.5,2.5v4.4L968.6,85.3L968.6,85.3z"/>
	<path class="st6" d="M977.3,86.9c-0.1,0.4-0.3,0.6-0.5,0.8c-0.4,0.4-0.9,0.5-1.3,0.5H975v-0.9h0.3c0.7,0,0.9-0.2,1.1-0.9l0.5-1.3
		l-2.5-6.8h1.1l1.9,5.5l1.9-5.5h1.1L977.3,86.9z"/>
	<path class="st6" d="M986.1,84.6c-0.5,0.5-1.1,0.8-2,0.8s-1.5-0.3-2-0.8c-0.7-0.7-0.8-1.7-0.8-2.7s0.1-2,0.8-2.7
		c0.5-0.5,1.1-0.8,2-0.8s1.5,0.3,2,0.8c0.7,0.7,0.8,1.7,0.8,2.7S986.8,83.9,986.1,84.6z M985.4,79.7c-0.3-0.3-0.8-0.5-1.3-0.5
		s-0.9,0.2-1.2,0.5c-0.5,0.5-0.6,1.4-0.6,2.1s0.1,1.6,0.6,2.1c0.3,0.3,0.8,0.5,1.2,0.5s0.9-0.2,1.3-0.5c0.5-0.5,0.5-1.4,0.5-2.1
		S985.9,80.2,985.4,79.7z"/>
	<path class="st6" d="M993.5,85.3v-0.8c-0.5,0.6-1.2,0.9-1.9,0.9s-1.4-0.2-1.8-0.6c-0.5-0.5-0.7-1.1-0.7-1.9v-4.4h1v4.2
		c0,1.2,0.6,1.8,1.7,1.8c1,0,1.7-0.6,1.7-1.8v-4.2h1v6.9L993.5,85.3L993.5,85.3z"/>
	<path class="st6" d="M997,85.3V84h1.3v1.3H997z"/>
</g>
<rect x="879.6" y="107.6" class="st10" width="41.6" height="41.6"/>
<rect x="931.9" y="107.6" class="st10" width="133.7" height="6.5"/>
<rect x="931.9" y="142.7" class="st10" width="133.7" height="6.5"/>
<rect x="931.9" y="125.2" class="st10" width="133.7" height="6.5"/>
<rect x="335.2" y="129.3" class="st11" width="39.9" height="41.6"/>
<rect x="387.4" y="129.3" class="st11" width="90.8" height="6.5"/>
<rect x="387.4" y="164.4" class="st11" width="90.8" height="6.5"/>
<rect x="387.4" y="146.9" class="st11" width="90.8" height="6.5"/>
<circle class="st11" cx="19" cy="14.8" r="3.4"/>
<line class="st12" x1="6.1" y1="24.8" x2="228.8" y2="24.8"/>
<circle class="st11" cx="31.5" cy="14.8" r="3.4"/>
<circle class="st11" cx="43.2" cy="14.8" r="3.4"/>
<g>
	<path class="st11" d="M156.2,173.6H78.7c-9.4,0-17.1-7.7-17.1-17.1l0,0c0-9.4,7.7-17.1,17.1-17.1h77.5c9.4,0,17.1,7.7,17.1,17.1
		l0,0C173.3,166,165.7,173.6,156.2,173.6z"/>
</g>
<g>
	<g class="st13">
		<path class="st14" d="M98.7,161.5c-1,0-1.8-0.3-2.4-0.9c-0.6-0.6-0.9-1.5-0.9-2.6v-5.2h1.1v5.1c0,0.9,0.2,1.6,0.6,2
			c0.4,0.4,1,0.7,1.7,0.7c0.7,0,1.3-0.2,1.7-0.7c0.4-0.4,0.6-1.1,0.6-2v-5.1h1.1v5.2c0,1.1-0.3,2-0.9,2.6
			C100.5,161.2,99.7,161.5,98.7,161.5z"/>
		<path class="st14" d="M103.3,159.7h1.1c0.2,0.6,0.7,1,1.5,1c0.4,0,0.7-0.1,0.9-0.2c0.2-0.2,0.4-0.4,0.4-0.7c0-0.4-0.3-0.7-0.9-0.9
			l-1.2-0.3c-1-0.3-1.5-0.8-1.5-1.6c0-0.5,0.2-1,0.6-1.3s1-0.5,1.6-0.5c0.7,0,1.2,0.2,1.6,0.5c0.4,0.3,0.7,0.7,0.8,1.3h-1
			c-0.2-0.6-0.6-0.9-1.4-0.9c-0.3,0-0.6,0.1-0.8,0.2c-0.2,0.2-0.4,0.4-0.4,0.7c0,0.2,0.1,0.4,0.2,0.5c0.1,0.1,0.4,0.2,0.7,0.3
			l1.2,0.3c1.1,0.3,1.6,0.9,1.6,1.7c0,0.6-0.2,1-0.6,1.4s-1,0.5-1.7,0.5c-0.7,0-1.3-0.2-1.7-0.5
			C103.7,160.7,103.4,160.3,103.3,159.7z"/>
		<path class="st14" d="M113.6,159.6h1c-0.1,0.6-0.4,1.1-0.8,1.4s-1,0.5-1.7,0.5c-0.8,0-1.5-0.3-2.1-0.9s-0.8-1.4-0.8-2.3
			c0-0.9,0.3-1.7,0.8-2.3c0.5-0.6,1.2-0.9,2-0.9c0.8,0,1.5,0.3,1.9,0.8c0.5,0.6,0.7,1.3,0.7,2.2v0.4h-4.4c0,0.7,0.2,1.2,0.5,1.6
			c0.3,0.4,0.8,0.6,1.3,0.6c0.4,0,0.7-0.1,1-0.3S113.5,159.9,113.6,159.6z M112,156c-0.5,0-0.9,0.2-1.2,0.5
			c-0.3,0.3-0.5,0.7-0.6,1.3h3.3c0-0.5-0.1-0.9-0.4-1.2C112.9,156.1,112.5,156,112,156z"/>
		<path class="st14" d="M119.1,161.4v-6.2h1v0.8c0.2-0.3,0.5-0.5,0.8-0.7c0.3-0.2,0.7-0.3,1.1-0.3c0.7,0,1.2,0.2,1.6,0.6
			c0.4,0.4,0.6,1,0.6,1.7v4.1h-1.1v-3.9c0-0.4-0.1-0.8-0.3-1.1c-0.2-0.3-0.6-0.4-1-0.4c-0.4,0-0.7,0.1-1,0.3
			c-0.3,0.2-0.5,0.5-0.6,0.8v4.2H119.1z"/>
		<path class="st14" d="M130.5,156c0.5,0.6,0.8,1.4,0.8,2.3c0,1-0.3,1.7-0.8,2.3c-0.5,0.6-1.2,0.9-2.1,0.9c-0.8,0-1.5-0.3-2.1-0.9
			c-0.5-0.6-0.8-1.4-0.8-2.3c0-1,0.3-1.7,0.8-2.3c0.5-0.6,1.2-0.9,2.1-0.9C129.2,155.1,129.9,155.4,130.5,156z M129.7,160
			c0.3-0.4,0.5-1,0.5-1.7c0-0.7-0.2-1.2-0.5-1.7c-0.3-0.4-0.8-0.6-1.3-0.6c-0.6,0-1,0.2-1.3,0.6c-0.3,0.4-0.5,1-0.5,1.7
			c0,0.7,0.2,1.2,0.5,1.7c0.3,0.4,0.8,0.6,1.3,0.6C128.9,160.6,129.4,160.4,129.7,160z"/>
		<path class="st14" d="M136.6,155.2l1.3,4.7l1.4-4.7h1l-1.8,6.2h-1l-1.3-4.7l-1.3,4.7h-1l-1.8-6.2h1l1.4,4.7l1.3-4.7H136.6z"/>
	</g>
</g>
<g>
	<path class="st11" d="M442.6,229.4H365c-9.4,0-17.1-7.7-17.1-17.1l0,0c0-9.4,7.7-17.1,17.1-17.1h77.5c9.4,0,17.1,7.7,17.1,17.1l0,0
		C459.7,221.8,452,229.4,442.6,229.4z"/>
</g>
<g>
	<g class="st13">
		<path class="st14" d="M390.4,216.1c-0.7-0.8-1.1-1.9-1.1-3.2c0-1.3,0.4-2.4,1.1-3.2c0.7-0.8,1.6-1.2,2.8-1.2
			c0.9,0,1.6,0.2,2.2,0.7c0.6,0.5,1,1.1,1.1,1.9h-1.1c-0.4-1.1-1.1-1.7-2.3-1.7c-0.8,0-1.5,0.3-2,0.9s-0.8,1.5-0.8,2.5
			c0,1,0.3,1.8,0.8,2.5s1.2,1,2,1c1.1,0,1.9-0.6,2.3-1.7h1.1c-0.2,0.8-0.6,1.5-1.1,1.9c-0.6,0.5-1.3,0.7-2.2,0.7
			C392,217.3,391.1,216.9,390.4,216.1z"/>
		<path class="st14" d="M399,208.1v9.1h-1v-9.1H399z"/>
		<path class="st14" d="M405.3,211.8c0.5,0.6,0.8,1.4,0.8,2.3c0,1-0.3,1.7-0.8,2.3c-0.5,0.6-1.2,0.9-2.1,0.9s-1.5-0.3-2.1-0.9
			c-0.5-0.6-0.8-1.4-0.8-2.3c0-1,0.3-1.7,0.8-2.3c0.5-0.6,1.2-0.9,2.1-0.9S404.8,211.2,405.3,211.8z M404.6,215.8
			c0.3-0.4,0.5-1,0.5-1.7c0-0.7-0.2-1.2-0.5-1.7c-0.3-0.4-0.8-0.6-1.3-0.6s-1,0.2-1.3,0.6c-0.3,0.4-0.5,1-0.5,1.7
			c0,0.7,0.2,1.2,0.5,1.7c0.3,0.4,0.8,0.6,1.3,0.6S404.2,216.2,404.6,215.8z"/>
		<path class="st14" d="M407,215.5h1.1c0.2,0.6,0.7,1,1.5,1c0.4,0,0.7-0.1,0.9-0.2c0.2-0.2,0.3-0.4,0.3-0.7c0-0.4-0.3-0.7-0.9-0.9
			l-1.2-0.3c-1-0.3-1.5-0.8-1.5-1.6c0-0.5,0.2-1,0.6-1.3s1-0.5,1.6-0.5c0.7,0,1.2,0.2,1.6,0.5c0.4,0.3,0.7,0.7,0.8,1.3h-1
			c-0.2-0.6-0.6-0.9-1.4-0.9c-0.3,0-0.6,0.1-0.8,0.2c-0.2,0.2-0.4,0.4-0.4,0.7c0,0.2,0.1,0.4,0.2,0.5c0.1,0.1,0.4,0.2,0.7,0.3
			l1.2,0.3c1.1,0.3,1.6,0.9,1.6,1.7c0,0.6-0.2,1-0.6,1.4c-0.4,0.3-1,0.5-1.7,0.5c-0.7,0-1.3-0.2-1.7-0.5
			C407.4,216.5,407.1,216.1,407,215.5z"/>
		<path class="st14" d="M417.3,215.4h1c-0.1,0.6-0.4,1.1-0.8,1.4s-1,0.5-1.7,0.5c-0.8,0-1.5-0.3-2.1-0.9s-0.8-1.4-0.8-2.3
			c0-0.9,0.3-1.7,0.8-2.3c0.5-0.6,1.2-0.9,2-0.9c0.8,0,1.5,0.3,1.9,0.8s0.7,1.3,0.7,2.2v0.4h-4.4c0,0.7,0.2,1.2,0.5,1.6
			c0.3,0.4,0.8,0.6,1.3,0.6c0.4,0,0.7-0.1,1-0.3C417,216,417.2,215.7,417.3,215.4z M415.7,211.8c-0.5,0-0.9,0.2-1.2,0.5
			c-0.3,0.3-0.5,0.7-0.6,1.3h3.3c0-0.5-0.1-0.9-0.4-1.2C416.6,211.9,416.2,211.8,415.7,211.8z"/>
	</g>
</g>
<rect x="31.2" y="61.2" class="st5" width="172.6" height="17.6"/>
<g class="st13">
	<path class="st6" d="M73.8,65.7l2.5-4.1h1.2l-3.1,5.1v3.5h-1.1v-3.5l-3.1-5.1h1.2L73.8,65.7z"/>
	<path class="st6" d="M82.2,64.8c0.5,0.6,0.8,1.4,0.8,2.3c0,1-0.3,1.7-0.8,2.3c-0.5,0.6-1.2,0.9-2.1,0.9c-0.8,0-1.5-0.3-2.1-0.9
		c-0.5-0.6-0.8-1.4-0.8-2.3c0-1,0.3-1.7,0.8-2.3c0.5-0.6,1.2-0.9,2.1-0.9C81,63.9,81.7,64.2,82.2,64.8z M81.5,68.9
		c0.3-0.4,0.5-1,0.5-1.7c0-0.7-0.2-1.2-0.5-1.7c-0.3-0.4-0.8-0.6-1.3-0.6c-0.6,0-1,0.2-1.3,0.6c-0.3,0.4-0.5,1-0.5,1.7
		c0,0.7,0.2,1.2,0.5,1.7c0.3,0.4,0.8,0.6,1.3,0.6C80.7,69.5,81.1,69.3,81.5,68.9z"/>
	<path class="st6" d="M89.4,64.1v6.2h-1.1v-0.8c-0.2,0.3-0.4,0.5-0.8,0.7c-0.3,0.2-0.7,0.3-1.1,0.3c-0.7,0-1.2-0.2-1.6-0.6
		c-0.4-0.4-0.6-1-0.6-1.7v-4.1h1.1V68c0,0.5,0.1,0.8,0.3,1.1c0.2,0.3,0.6,0.4,1,0.4c0.4,0,0.7-0.1,1-0.3s0.5-0.5,0.6-0.8v-4.2H89.4z
		"/>
	<path class="st6" d="M94.4,64v1.1C94.3,65,94,65,93.7,65c-0.3,0-0.6,0.1-0.9,0.3c-0.3,0.2-0.4,0.5-0.5,0.9v4.2h-1v-6.2h1v0.8
		c0.1-0.3,0.3-0.5,0.6-0.7c0.3-0.2,0.6-0.3,0.9-0.3C94.1,63.9,94.3,64,94.4,64z"/>
	<path class="st6" d="M103.8,64.1v6.2h-1.1v-0.8c-0.2,0.3-0.4,0.5-0.8,0.7c-0.3,0.2-0.7,0.3-1.1,0.3c-0.7,0-1.2-0.2-1.6-0.6
		c-0.4-0.4-0.6-1-0.6-1.7v-4.1h1.1V68c0,0.5,0.1,0.8,0.3,1.1c0.2,0.3,0.6,0.4,1,0.4c0.4,0,0.7-0.1,1-0.3s0.5-0.5,0.6-0.8v-4.2H103.8
		z"/>
	<path class="st6" d="M105.7,70.3v-6.2h1v0.8c0.2-0.3,0.5-0.5,0.8-0.7c0.3-0.2,0.7-0.3,1.1-0.3c0.7,0,1.2,0.2,1.6,0.6
		c0.4,0.4,0.6,1,0.6,1.7v4.1h-1.1v-3.9c0-0.4-0.1-0.8-0.3-1.1c-0.2-0.3-0.6-0.4-1-0.4c-0.4,0-0.7,0.1-1,0.3
		c-0.3,0.2-0.5,0.5-0.6,0.8v4.2H105.7z"/>
	<path class="st6" d="M113.5,61.7c0.1,0.1,0.2,0.3,0.2,0.5s-0.1,0.3-0.2,0.5s-0.3,0.2-0.5,0.2c-0.2,0-0.3-0.1-0.5-0.2
		c-0.1-0.1-0.2-0.3-0.2-0.5s0.1-0.3,0.2-0.5c0.1-0.1,0.3-0.2,0.5-0.2C113.2,61.5,113.4,61.6,113.5,61.7z M113.6,64.1v6.2h-1v-6.2
		H113.6z"/>
	<path class="st6" d="M119.5,72.7v-3.1c-0.2,0.2-0.4,0.4-0.7,0.6c-0.3,0.2-0.7,0.2-1,0.2c-0.9,0-1.6-0.3-2.1-0.9
		c-0.5-0.6-0.7-1.4-0.7-2.3c0-0.9,0.2-1.7,0.7-2.3c0.5-0.6,1.2-0.9,2.1-0.9c0.4,0,0.7,0.1,1,0.2c0.3,0.2,0.6,0.4,0.7,0.6v-0.7h1v8.6
		H119.5z M119.5,68.4v-2.5c-0.2-0.3-0.4-0.6-0.7-0.7c-0.3-0.2-0.6-0.3-0.9-0.3c-0.6,0-1,0.2-1.4,0.6s-0.5,1-0.5,1.6
		c0,0.7,0.2,1.2,0.5,1.6s0.8,0.6,1.4,0.6c0.3,0,0.6-0.1,0.9-0.3C119.1,69,119.4,68.8,119.5,68.4z"/>
	<path class="st6" d="M127.4,64.1v6.2h-1.1v-0.8c-0.2,0.3-0.4,0.5-0.8,0.7c-0.3,0.2-0.7,0.3-1.1,0.3c-0.7,0-1.2-0.2-1.6-0.6
		c-0.4-0.4-0.6-1-0.6-1.7v-4.1h1.1V68c0,0.5,0.1,0.8,0.3,1.1c0.2,0.3,0.6,0.4,1,0.4c0.4,0,0.7-0.1,1-0.3s0.5-0.5,0.6-0.8v-4.2H127.4
		z"/>
	<path class="st6" d="M133.2,68.4h1c-0.1,0.6-0.4,1.1-0.8,1.4s-1,0.5-1.7,0.5c-0.8,0-1.5-0.3-2.1-0.9s-0.8-1.4-0.8-2.3
		c0-0.9,0.3-1.7,0.8-2.3c0.5-0.6,1.2-0.9,2-0.9c0.8,0,1.5,0.3,1.9,0.8c0.5,0.6,0.7,1.3,0.7,2.2v0.4h-4.4c0,0.7,0.2,1.2,0.5,1.6
		c0.3,0.4,0.8,0.6,1.3,0.6c0.4,0,0.7-0.1,1-0.3S133.1,68.8,133.2,68.4z M131.7,64.8c-0.5,0-0.9,0.2-1.2,0.5
		c-0.3,0.3-0.5,0.7-0.6,1.3h3.3c0-0.5-0.1-0.9-0.4-1.2C132.5,65,132.2,64.8,131.7,64.8z"/>
	<path class="st6" d="M139.1,69.5c-0.5-0.6-0.8-1.4-0.8-2.3c0-1,0.3-1.7,0.8-2.3c0.5-0.6,1.2-0.9,2-0.9c0.7,0,1.2,0.2,1.7,0.5
		c0.4,0.4,0.7,0.8,0.8,1.5h-1.1c-0.1-0.3-0.2-0.6-0.5-0.8c-0.2-0.2-0.6-0.3-0.9-0.3c-0.5,0-1,0.2-1.3,0.6c-0.3,0.4-0.5,1-0.5,1.7
		c0,0.7,0.2,1.2,0.5,1.7c0.3,0.4,0.7,0.6,1.3,0.6c0.4,0,0.7-0.1,0.9-0.3c0.2-0.2,0.4-0.5,0.5-0.8h1.1c-0.1,0.6-0.4,1.1-0.8,1.5
		c-0.4,0.4-1,0.5-1.7,0.5C140.3,70.4,139.6,70.1,139.1,69.5z"/>
	<path class="st6" d="M149.5,64.8c0.5,0.6,0.8,1.4,0.8,2.3c0,1-0.3,1.7-0.8,2.3c-0.5,0.6-1.2,0.9-2.1,0.9c-0.8,0-1.5-0.3-2.1-0.9
		c-0.5-0.6-0.8-1.4-0.8-2.3c0-1,0.3-1.7,0.8-2.3c0.5-0.6,1.2-0.9,2.1-0.9C148.2,63.9,148.9,64.2,149.5,64.8z M148.7,68.9
		c0.3-0.4,0.5-1,0.5-1.7c0-0.7-0.2-1.2-0.5-1.7c-0.3-0.4-0.8-0.6-1.3-0.6c-0.6,0-1,0.2-1.3,0.6c-0.3,0.4-0.5,1-0.5,1.7
		c0,0.7,0.2,1.2,0.5,1.7c0.3,0.4,0.8,0.6,1.3,0.6C147.9,69.5,148.4,69.3,148.7,68.9z"/>
	<path class="st6" d="M155.8,70.3v-0.7c-0.2,0.2-0.4,0.4-0.7,0.6s-0.7,0.2-1,0.2c-0.9,0-1.6-0.3-2.1-0.9s-0.7-1.4-0.7-2.3
		c0-0.9,0.2-1.7,0.7-2.3c0.5-0.6,1.2-0.9,2.1-0.9c0.4,0,0.7,0.1,1,0.2s0.6,0.4,0.7,0.6v-3.6h1.1v9.1H155.8z M155.8,68.4v-2.5
		c-0.2-0.3-0.4-0.6-0.7-0.7c-0.3-0.2-0.6-0.3-0.9-0.3c-0.6,0-1,0.2-1.4,0.6s-0.5,1-0.5,1.6c0,0.7,0.2,1.2,0.5,1.6s0.8,0.6,1.4,0.6
		c0.3,0,0.6-0.1,0.9-0.3C155.4,69,155.6,68.8,155.8,68.4z"/>
	<path class="st6" d="M162.6,68.4h1c-0.1,0.6-0.4,1.1-0.8,1.4s-1,0.5-1.7,0.5c-0.8,0-1.5-0.3-2.1-0.9s-0.8-1.4-0.8-2.3
		c0-0.9,0.3-1.7,0.8-2.3c0.5-0.6,1.2-0.9,2-0.9c0.8,0,1.5,0.3,1.9,0.8c0.5,0.6,0.7,1.3,0.7,2.2v0.4h-4.4c0,0.7,0.2,1.2,0.5,1.6
		c0.3,0.4,0.8,0.6,1.3,0.6c0.4,0,0.7-0.1,1-0.3S162.6,68.8,162.6,68.4z M161.1,64.8c-0.5,0-0.9,0.2-1.2,0.5
		c-0.3,0.3-0.5,0.7-0.6,1.3h3.3c0-0.5-0.1-0.9-0.4-1.2C162,65,161.6,64.8,161.1,64.8z"/>
</g>
<rect x="315.1" y="61.2" class="st5" width="172.6" height="107.7"/>
<g class="st13">
	<path class="st6" d="M335,69.2c-0.7-0.8-1.1-1.9-1.1-3.2c0-1.3,0.4-2.4,1.1-3.2c0.7-0.8,1.6-1.2,2.8-1.2c0.9,0,1.6,0.2,2.2,0.7
		c0.6,0.5,1,1.1,1.1,1.9H340c-0.4-1.1-1.1-1.7-2.3-1.7c-0.8,0-1.5,0.3-2,0.9S335,65,335,66c0,1,0.3,1.8,0.8,2.5s1.2,1,2,1
		c1.1,0,1.9-0.6,2.3-1.7h1.1c-0.2,0.8-0.6,1.5-1.1,1.9c-0.6,0.5-1.3,0.7-2.2,0.7C336.7,70.4,335.8,70,335,69.2z"/>
	<path class="st6" d="M347.1,64.8c0.5,0.6,0.8,1.4,0.8,2.3c0,1-0.3,1.7-0.8,2.3c-0.5,0.6-1.2,0.9-2.1,0.9s-1.5-0.3-2.1-0.9
		c-0.5-0.6-0.8-1.4-0.8-2.3c0-1,0.3-1.7,0.8-2.3c0.5-0.6,1.2-0.9,2.1-0.9S346.6,64.2,347.1,64.8z M346.3,68.9c0.3-0.4,0.5-1,0.5-1.7
		c0-0.7-0.2-1.2-0.5-1.7c-0.3-0.4-0.8-0.6-1.3-0.6s-1,0.2-1.3,0.6c-0.3,0.4-0.5,1-0.5,1.7c0,0.7,0.2,1.2,0.5,1.7
		c0.3,0.4,0.8,0.6,1.3,0.6S346,69.3,346.3,68.9z"/>
	<path class="st6" d="M353.4,70.3v-0.7c-0.2,0.2-0.4,0.4-0.7,0.6s-0.7,0.2-1,0.2c-0.9,0-1.6-0.3-2.1-0.9c-0.5-0.6-0.7-1.4-0.7-2.3
		c0-0.9,0.2-1.7,0.7-2.3c0.5-0.6,1.2-0.9,2.1-0.9c0.4,0,0.7,0.1,1,0.2s0.6,0.4,0.7,0.6v-3.6h1.1v9.1H353.4z M353.4,68.4v-2.5
		c-0.2-0.3-0.4-0.6-0.7-0.7c-0.3-0.2-0.6-0.3-0.9-0.3c-0.6,0-1,0.2-1.4,0.6s-0.5,1-0.5,1.6c0,0.7,0.2,1.2,0.5,1.6s0.8,0.6,1.4,0.6
		c0.3,0,0.6-0.1,0.9-0.3C353,69,353.3,68.8,353.4,68.4z"/>
	<path class="st6" d="M360.3,68.4h1c-0.1,0.6-0.4,1.1-0.8,1.4s-1,0.5-1.7,0.5c-0.8,0-1.5-0.3-2.1-0.9s-0.8-1.4-0.8-2.3
		c0-0.9,0.3-1.7,0.8-2.3c0.5-0.6,1.2-0.9,2-0.9c0.8,0,1.5,0.3,1.9,0.8s0.7,1.3,0.7,2.2v0.4H357c0,0.7,0.2,1.2,0.5,1.6
		c0.3,0.4,0.8,0.6,1.3,0.6c0.4,0,0.7-0.1,1-0.3C360,69,360.2,68.8,360.3,68.4z M358.7,64.8c-0.5,0-0.9,0.2-1.2,0.5
		c-0.3,0.3-0.5,0.7-0.6,1.3h3.3c0-0.5-0.1-0.9-0.4-1.2C359.6,65,359.2,64.8,358.7,64.8z"/>
	<path class="st6" d="M370.4,70.3h-1v-0.5c-0.1,0.1-0.3,0.3-0.7,0.4c-0.3,0.1-0.6,0.2-1,0.2c-0.7,0-1.2-0.2-1.6-0.5
		c-0.4-0.4-0.7-0.8-0.7-1.4c0-0.6,0.2-1,0.7-1.4c0.5-0.4,1-0.5,1.7-0.5c0.3,0,0.6,0.1,0.9,0.2s0.5,0.2,0.7,0.3v-0.8
		c0-0.4-0.1-0.7-0.4-1c-0.2-0.2-0.6-0.4-1-0.4c-0.7,0-1.1,0.3-1.3,0.9h-1c0.1-0.5,0.4-0.9,0.8-1.3c0.4-0.3,0.9-0.5,1.5-0.5
		c0.7,0,1.3,0.2,1.7,0.6c0.4,0.4,0.6,0.9,0.6,1.6V70.3z M369.3,68.7v-0.6c-0.1-0.2-0.3-0.4-0.6-0.6c-0.3-0.1-0.6-0.2-0.9-0.2
		c-0.4,0-0.8,0.1-1,0.3s-0.4,0.5-0.4,0.8c0,0.4,0.1,0.6,0.4,0.8s0.6,0.3,1,0.3c0.3,0,0.6-0.1,0.9-0.2
		C369.1,69.2,369.3,69,369.3,68.7z"/>
	<path class="st6" d="M372.5,69.5c-0.5-0.6-0.8-1.4-0.8-2.3c0-1,0.3-1.7,0.8-2.3c0.5-0.6,1.2-0.9,2-0.9c0.7,0,1.2,0.2,1.7,0.5
		s0.7,0.8,0.8,1.5h-1.1c-0.1-0.3-0.2-0.6-0.5-0.8s-0.6-0.3-0.9-0.3c-0.5,0-1,0.2-1.3,0.6c-0.3,0.4-0.5,1-0.5,1.7
		c0,0.7,0.2,1.2,0.5,1.7c0.3,0.4,0.7,0.6,1.3,0.6c0.4,0,0.7-0.1,0.9-0.3s0.4-0.5,0.5-0.8h1.1c-0.1,0.6-0.4,1.1-0.8,1.5
		s-1,0.5-1.7,0.5C373.7,70.4,373,70.1,372.5,69.5z"/>
	<path class="st6" d="M378.7,69.5c-0.5-0.6-0.8-1.4-0.8-2.3c0-1,0.3-1.7,0.8-2.3c0.5-0.6,1.2-0.9,2-0.9c0.7,0,1.2,0.2,1.7,0.5
		s0.7,0.8,0.8,1.5h-1.1c-0.1-0.3-0.2-0.6-0.5-0.8s-0.6-0.3-0.9-0.3c-0.5,0-1,0.2-1.3,0.6c-0.3,0.4-0.5,1-0.5,1.7
		c0,0.7,0.2,1.2,0.5,1.7c0.3,0.4,0.7,0.6,1.3,0.6c0.4,0,0.7-0.1,0.9-0.3s0.4-0.5,0.5-0.8h1.1c-0.1,0.6-0.4,1.1-0.8,1.5
		s-1,0.5-1.7,0.5C379.9,70.4,379.2,70.1,378.7,69.5z"/>
	<path class="st6" d="M388.5,68.4h1c-0.1,0.6-0.4,1.1-0.8,1.4s-1,0.5-1.7,0.5c-0.8,0-1.5-0.3-2.1-0.9s-0.8-1.4-0.8-2.3
		c0-0.9,0.3-1.7,0.8-2.3c0.5-0.6,1.2-0.9,2-0.9c0.8,0,1.5,0.3,1.9,0.8s0.7,1.3,0.7,2.2v0.4h-4.4c0,0.7,0.2,1.2,0.5,1.6
		c0.3,0.4,0.8,0.6,1.3,0.6c0.4,0,0.7-0.1,1-0.3C388.2,69,388.4,68.8,388.5,68.4z M387,64.8c-0.5,0-0.9,0.2-1.2,0.5
		c-0.3,0.3-0.5,0.7-0.6,1.3h3.3c0-0.5-0.1-0.9-0.4-1.2C387.8,65,387.5,64.8,387,64.8z"/>
	<path class="st6" d="M392,69.6v3.1h-1v-8.6h1v0.7c0.2-0.2,0.4-0.4,0.7-0.6s0.7-0.2,1-0.2c0.9,0,1.6,0.3,2.1,0.9
		c0.5,0.6,0.7,1.4,0.7,2.3c0,0.9-0.2,1.7-0.7,2.3c-0.5,0.6-1.2,0.9-2.1,0.9c-0.4,0-0.7-0.1-1-0.2S392.2,69.8,392,69.6z M392,65.9
		v2.5c0.2,0.3,0.4,0.6,0.7,0.7c0.3,0.2,0.6,0.3,0.9,0.3c0.6,0,1-0.2,1.4-0.6s0.5-1,0.5-1.6c0-0.7-0.2-1.2-0.5-1.6s-0.8-0.6-1.4-0.6
		c-0.3,0-0.6,0.1-0.9,0.3C392.4,65.4,392.2,65.6,392,65.9z"/>
	<path class="st6" d="M398.3,68.7V65h-1v-0.9h1v-1.6h1v1.6h1.5V65h-1.5v3.6c0,0.6,0.3,0.9,0.8,0.9c0.3,0,0.6-0.1,0.8-0.3v1
		c-0.3,0.1-0.6,0.2-1,0.2c-0.5,0-0.9-0.1-1.2-0.4C398.5,69.7,398.3,69.3,398.3,68.7z"/>
	<path class="st6" d="M406.3,68.4h1c-0.1,0.6-0.4,1.1-0.8,1.4s-1,0.5-1.7,0.5c-0.8,0-1.5-0.3-2.1-0.9s-0.8-1.4-0.8-2.3
		c0-0.9,0.3-1.7,0.8-2.3c0.5-0.6,1.2-0.9,2-0.9c0.8,0,1.5,0.3,1.9,0.8s0.7,1.3,0.7,2.2v0.4H403c0,0.7,0.2,1.2,0.5,1.6
		c0.3,0.4,0.8,0.6,1.3,0.6c0.4,0,0.7-0.1,1-0.3C406,69,406.2,68.8,406.3,68.4z M404.8,64.8c-0.5,0-0.9,0.2-1.2,0.5
		c-0.3,0.3-0.5,0.7-0.6,1.3h3.3c0-0.5-0.1-0.9-0.4-1.2C405.6,65,405.3,64.8,404.8,64.8z"/>
	<path class="st6" d="M412.9,70.3v-0.7c-0.2,0.2-0.4,0.4-0.7,0.6s-0.7,0.2-1,0.2c-0.9,0-1.6-0.3-2.1-0.9c-0.5-0.6-0.7-1.4-0.7-2.3
		c0-0.9,0.2-1.7,0.7-2.3c0.5-0.6,1.2-0.9,2.1-0.9c0.4,0,0.7,0.1,1,0.2s0.6,0.4,0.7,0.6v-3.6h1.1v9.1H412.9z M412.9,68.4v-2.5
		c-0.2-0.3-0.4-0.6-0.7-0.7c-0.3-0.2-0.6-0.3-0.9-0.3c-0.6,0-1,0.2-1.4,0.6s-0.5,1-0.5,1.6c0,0.7,0.2,1.2,0.5,1.6s0.8,0.6,1.4,0.6
		c0.3,0,0.6-0.1,0.9-0.3C412.5,69,412.7,68.8,412.9,68.4z"/>
	<path class="st6" d="M415.6,70.1c-0.1-0.1-0.2-0.3-0.2-0.5s0.1-0.4,0.2-0.5c0.1-0.1,0.3-0.2,0.5-0.2c0.2,0,0.4,0.1,0.5,0.2
		c0.1,0.1,0.2,0.3,0.2,0.5s-0.1,0.4-0.2,0.5c-0.1,0.1-0.3,0.2-0.5,0.2C415.9,70.4,415.7,70.3,415.6,70.1z"/>
	<path class="st6" d="M424,61.7h1l3.4,8.6h-1.1l-1-2.6h-3.5l-1,2.6h-1.1L424,61.7z M424.5,63.1l-1.4,3.7h2.8L424.5,63.1z"/>
	<path class="st6" d="M430.7,61.2v9.1h-1v-9.1H430.7z"/>
	<path class="st6" d="M433.6,61.7c0.1,0.1,0.2,0.3,0.2,0.5s-0.1,0.3-0.2,0.5c-0.1,0.1-0.3,0.2-0.5,0.2c-0.2,0-0.3-0.1-0.5-0.2
		s-0.2-0.3-0.2-0.5s0.1-0.3,0.2-0.5c0.1-0.1,0.3-0.2,0.5-0.2C433.3,61.5,433.4,61.6,433.6,61.7z M433.6,64.1v6.2h-1v-6.2H433.6z"/>
	<path class="st6" d="M435.8,69.5c-0.5-0.6-0.8-1.4-0.8-2.3c0-1,0.3-1.7,0.8-2.3c0.5-0.6,1.2-0.9,2-0.9c0.7,0,1.2,0.2,1.7,0.5
		c0.4,0.4,0.7,0.8,0.8,1.5h-1.1c-0.1-0.3-0.2-0.6-0.5-0.8c-0.2-0.2-0.6-0.3-0.9-0.3c-0.5,0-1,0.2-1.3,0.6c-0.3,0.4-0.5,1-0.5,1.7
		c0,0.7,0.2,1.2,0.5,1.7c0.3,0.4,0.7,0.6,1.3,0.6c0.4,0,0.7-0.1,0.9-0.3c0.2-0.2,0.4-0.5,0.5-0.8h1.1c-0.1,0.6-0.4,1.1-0.8,1.5
		c-0.4,0.4-1,0.5-1.7,0.5C437,70.4,436.4,70.1,435.8,69.5z"/>
	<path class="st6" d="M445.6,68.4h1c-0.1,0.6-0.4,1.1-0.8,1.4s-1,0.5-1.7,0.5c-0.8,0-1.5-0.3-2.1-0.9s-0.8-1.4-0.8-2.3
		c0-0.9,0.3-1.7,0.8-2.3c0.5-0.6,1.2-0.9,2-0.9c0.8,0,1.5,0.3,1.9,0.8s0.7,1.3,0.7,2.2v0.4h-4.4c0,0.7,0.2,1.2,0.5,1.6
		c0.3,0.4,0.8,0.6,1.3,0.6c0.4,0,0.7-0.1,1-0.3C445.4,69,445.6,68.8,445.6,68.4z M444.1,64.8c-0.5,0-0.9,0.2-1.2,0.5
		c-0.3,0.3-0.5,0.7-0.6,1.3h3.3c0-0.5-0.1-0.9-0.4-1.2C445,65,444.6,64.8,444.1,64.8z"/>
	<path class="st6" d="M451.2,70.3v-9.1h1v3.7c0.2-0.3,0.5-0.5,0.8-0.7s0.7-0.3,1.1-0.3c0.7,0,1.2,0.2,1.6,0.6c0.4,0.4,0.6,1,0.6,1.7
		v4.1h-1.1v-3.9c0-0.4-0.1-0.8-0.3-1.1c-0.2-0.3-0.6-0.4-1-0.4c-0.4,0-0.7,0.1-1,0.3s-0.5,0.5-0.6,0.8v4.2H451.2z"/>
	<path class="st6" d="M462.6,70.3h-1v-0.5c-0.1,0.1-0.3,0.3-0.7,0.4c-0.3,0.1-0.6,0.2-1,0.2c-0.7,0-1.2-0.2-1.6-0.5
		c-0.4-0.4-0.7-0.8-0.7-1.4c0-0.6,0.2-1,0.7-1.4c0.5-0.4,1-0.5,1.7-0.5c0.3,0,0.6,0.1,0.9,0.2s0.5,0.2,0.7,0.3v-0.8
		c0-0.4-0.1-0.7-0.4-1c-0.2-0.2-0.6-0.4-1-0.4c-0.7,0-1.1,0.3-1.3,0.9h-1c0.1-0.5,0.4-0.9,0.8-1.3c0.4-0.3,0.9-0.5,1.5-0.5
		c0.7,0,1.3,0.2,1.7,0.6c0.4,0.4,0.6,0.9,0.6,1.6V70.3z M461.6,68.7v-0.6c-0.1-0.2-0.3-0.4-0.6-0.6c-0.3-0.1-0.6-0.2-0.9-0.2
		c-0.4,0-0.8,0.1-1,0.3s-0.4,0.5-0.4,0.8c0,0.4,0.1,0.6,0.4,0.8s0.6,0.3,1,0.3c0.3,0,0.6-0.1,0.9-0.2
		C461.3,69.2,461.5,69,461.6,68.7z"/>
	<path class="st6" d="M463.8,68.6h1.1c0.2,0.6,0.7,1,1.5,1c0.4,0,0.7-0.1,0.9-0.2c0.2-0.2,0.3-0.4,0.3-0.7c0-0.4-0.3-0.7-0.9-0.9
		l-1.2-0.3c-1-0.3-1.5-0.8-1.5-1.6c0-0.5,0.2-1,0.6-1.3s1-0.5,1.6-0.5c0.7,0,1.2,0.2,1.6,0.5c0.4,0.3,0.7,0.7,0.8,1.3h-1
		c-0.2-0.6-0.6-0.9-1.4-0.9c-0.3,0-0.6,0.1-0.8,0.2c-0.2,0.2-0.4,0.4-0.4,0.7c0,0.2,0.1,0.4,0.2,0.5c0.1,0.1,0.4,0.2,0.7,0.3
		l1.2,0.3c1.1,0.3,1.6,0.9,1.6,1.7c0,0.6-0.2,1-0.6,1.4c-0.4,0.3-1,0.5-1.7,0.5c-0.7,0-1.3-0.2-1.7-0.5
		C464.2,69.6,463.9,69.1,463.8,68.6z"/>
</g>
<g class="st13">
	<path class="st6" d="M317.8,85.5v-3.8h-1v-0.9h1v-1.6h1v1.6h1.5v0.9h-1.5v3.6c0,0.6,0.3,0.9,0.8,0.9c0.3,0,0.6-0.1,0.8-0.3v1
		c-0.3,0.1-0.6,0.2-1,0.2c-0.5,0-0.9-0.1-1.2-0.4C317.9,86.5,317.8,86.1,317.8,85.5z"/>
	<path class="st6" d="M325.7,85.2h1c-0.1,0.6-0.4,1.1-0.8,1.4s-1,0.5-1.7,0.5c-0.8,0-1.5-0.3-2.1-0.9s-0.8-1.4-0.8-2.3
		c0-0.9,0.3-1.7,0.8-2.3c0.5-0.6,1.2-0.9,2-0.9c0.8,0,1.5,0.3,1.9,0.8s0.7,1.3,0.7,2.2v0.4h-4.4c0,0.7,0.2,1.2,0.5,1.6
		c0.3,0.4,0.8,0.6,1.3,0.6c0.4,0,0.7-0.1,1-0.3C325.5,85.8,325.7,85.6,325.7,85.2z M324.2,81.6c-0.5,0-0.9,0.2-1.2,0.5
		c-0.3,0.3-0.5,0.7-0.6,1.3h3.3c0-0.5-0.1-0.9-0.4-1.2C325.1,81.8,324.7,81.6,324.2,81.6z"/>
	<path class="st6" d="M332.6,81.7c0.5-0.7,1.1-1,1.9-1c0.6,0,1.1,0.2,1.4,0.6s0.5,0.9,0.5,1.6v4.1h-1.1v-3.9c0-0.4-0.1-0.8-0.3-1.1
		c-0.2-0.3-0.5-0.4-0.9-0.4c-0.3,0-0.6,0.1-0.9,0.3c-0.3,0.2-0.4,0.5-0.5,0.8v4.3h-1v-3.9c0-0.4-0.1-0.8-0.3-1.1s-0.5-0.4-0.9-0.4
		c-0.3,0-0.6,0.1-0.9,0.3c-0.3,0.2-0.4,0.5-0.5,0.8v4.3h-1v-6.2h1v0.7c0.4-0.6,0.9-0.9,1.7-0.9C331.7,80.7,332.3,81.1,332.6,81.7z"
		/>
	<path class="st6" d="M339.3,86.4v3.1h-1v-8.6h1v0.7c0.2-0.2,0.4-0.4,0.7-0.6c0.3-0.2,0.7-0.2,1-0.2c0.9,0,1.6,0.3,2.1,0.9
		c0.5,0.6,0.7,1.4,0.7,2.3c0,0.9-0.2,1.7-0.7,2.3c-0.5,0.6-1.2,0.9-2.1,0.9c-0.4,0-0.7-0.1-1-0.2C339.7,86.8,339.5,86.6,339.3,86.4z
		 M339.3,82.7v2.5c0.2,0.3,0.4,0.6,0.7,0.7c0.3,0.2,0.6,0.3,0.9,0.3c0.6,0,1-0.2,1.4-0.6s0.5-1,0.5-1.6c0-0.7-0.2-1.2-0.5-1.6
		s-0.8-0.6-1.4-0.6c-0.3,0-0.6,0.1-0.9,0.3C339.7,82.2,339.5,82.4,339.3,82.7z"/>
	<path class="st6" d="M349.8,81.6c0.5,0.6,0.8,1.4,0.8,2.3c0,1-0.3,1.7-0.8,2.3c-0.5,0.6-1.2,0.9-2.1,0.9s-1.5-0.3-2.1-0.9
		c-0.5-0.6-0.8-1.4-0.8-2.3c0-1,0.3-1.7,0.8-2.3c0.5-0.6,1.2-0.9,2.1-0.9S349.3,81,349.8,81.6z M349,85.7c0.3-0.4,0.5-1,0.5-1.7
		c0-0.7-0.2-1.2-0.5-1.7c-0.3-0.4-0.8-0.6-1.3-0.6s-1,0.2-1.3,0.6c-0.3,0.4-0.5,1-0.5,1.7c0,0.7,0.2,1.2,0.5,1.7
		c0.3,0.4,0.8,0.6,1.3,0.6S348.7,86.1,349,85.7z"/>
	<path class="st6" d="M355.2,80.8v1.1c-0.2-0.1-0.4-0.2-0.7-0.2c-0.3,0-0.6,0.1-0.9,0.3c-0.3,0.2-0.4,0.5-0.5,0.9v4.2h-1v-6.2h1v0.8
		c0.1-0.3,0.3-0.5,0.6-0.7c0.3-0.2,0.6-0.3,0.9-0.3C354.9,80.7,355.1,80.8,355.2,80.8z"/>
	<path class="st6" d="M360.8,87.1h-1v-0.5c-0.1,0.1-0.4,0.3-0.7,0.4s-0.6,0.2-1,0.2c-0.7,0-1.2-0.2-1.6-0.5
		c-0.4-0.4-0.7-0.8-0.7-1.4c0-0.6,0.2-1,0.7-1.4c0.5-0.4,1-0.5,1.7-0.5c0.3,0,0.6,0.1,0.9,0.2s0.5,0.2,0.7,0.3V83
		c0-0.4-0.1-0.7-0.4-1c-0.2-0.2-0.6-0.4-1-0.4c-0.7,0-1.1,0.3-1.3,0.9h-1c0.1-0.5,0.4-0.9,0.8-1.3c0.4-0.3,0.9-0.5,1.5-0.5
		c0.7,0,1.3,0.2,1.7,0.6c0.4,0.4,0.6,0.9,0.6,1.6V87.1z M359.8,85.5v-0.6c-0.1-0.2-0.3-0.4-0.6-0.6c-0.3-0.1-0.6-0.2-0.9-0.2
		c-0.4,0-0.8,0.1-1,0.3c-0.3,0.2-0.4,0.5-0.4,0.8c0,0.4,0.1,0.6,0.4,0.8c0.3,0.2,0.6,0.3,1,0.3c0.3,0,0.6-0.1,0.9-0.2
		C359.6,86,359.7,85.8,359.8,85.5z"/>
	<path class="st6" d="M365.8,80.8v1.1c-0.2-0.1-0.4-0.2-0.7-0.2c-0.3,0-0.6,0.1-0.9,0.3c-0.3,0.2-0.4,0.5-0.5,0.9v4.2h-1v-6.2h1v0.8
		c0.1-0.3,0.3-0.5,0.6-0.7c0.3-0.2,0.6-0.3,0.9-0.3C365.5,80.7,365.7,80.8,365.8,80.8z"/>
	<path class="st6" d="M368.1,78.5c0.1,0.1,0.2,0.3,0.2,0.5s-0.1,0.3-0.2,0.5c-0.1,0.1-0.3,0.2-0.5,0.2s-0.3-0.1-0.5-0.2
		c-0.1-0.1-0.2-0.3-0.2-0.5s0.1-0.3,0.2-0.5c0.1-0.1,0.3-0.2,0.5-0.2S368,78.4,368.1,78.5z M368.2,80.9v6.2h-1v-6.2H368.2z"/>
	<path class="st6" d="M371.1,78v9.1h-1V78H371.1z"/>
	<path class="st6" d="M374.8,89.5h-1l0.9-2.3l-2.4-6.3h1.1l1.8,4.9l1.8-4.9h1.1L374.8,89.5z"/>
	<path class="st6" d="M381.9,85.4h1.1c0.2,0.6,0.7,1,1.5,1c0.4,0,0.7-0.1,0.9-0.2c0.2-0.2,0.3-0.4,0.3-0.7c0-0.4-0.3-0.7-0.9-0.9
		l-1.2-0.3c-1-0.3-1.5-0.8-1.5-1.6c0-0.5,0.2-1,0.6-1.3s1-0.5,1.6-0.5c0.7,0,1.2,0.2,1.6,0.5c0.4,0.3,0.7,0.7,0.8,1.3h-1
		c-0.2-0.6-0.6-0.9-1.4-0.9c-0.3,0-0.6,0.1-0.8,0.2c-0.2,0.2-0.4,0.4-0.4,0.7c0,0.2,0.1,0.4,0.2,0.5c0.1,0.1,0.4,0.2,0.7,0.3
		l1.2,0.3c1.1,0.3,1.6,0.9,1.6,1.7c0,0.6-0.2,1-0.6,1.4c-0.4,0.3-1,0.5-1.7,0.5c-0.7,0-1.3-0.2-1.7-0.5
		C382.3,86.4,382,85.9,381.9,85.4z"/>
	<path class="st6" d="M388.2,87.1V78h1v3.7c0.2-0.3,0.5-0.5,0.8-0.7c0.3-0.2,0.7-0.3,1.1-0.3c0.7,0,1.2,0.2,1.6,0.6
		c0.4,0.4,0.6,1,0.6,1.7v4.1h-1.1v-3.9c0-0.4-0.1-0.8-0.3-1.1c-0.2-0.3-0.6-0.4-1-0.4c-0.4,0-0.7,0.1-1,0.3
		c-0.3,0.2-0.5,0.5-0.6,0.8v4.2H388.2z"/>
	<path class="st6" d="M399.6,87.1h-1v-0.5c-0.1,0.1-0.4,0.3-0.7,0.4s-0.6,0.2-1,0.2c-0.7,0-1.2-0.2-1.6-0.5
		c-0.4-0.4-0.7-0.8-0.7-1.4c0-0.6,0.2-1,0.7-1.4c0.5-0.4,1-0.5,1.7-0.5c0.3,0,0.6,0.1,0.9,0.2s0.5,0.2,0.7,0.3V83
		c0-0.4-0.1-0.7-0.4-1c-0.2-0.2-0.6-0.4-1-0.4c-0.7,0-1.1,0.3-1.3,0.9h-1c0.1-0.5,0.4-0.9,0.8-1.3c0.4-0.3,0.9-0.5,1.5-0.5
		c0.7,0,1.3,0.2,1.7,0.6c0.4,0.4,0.6,0.9,0.6,1.6V87.1z M398.6,85.5v-0.6c-0.1-0.2-0.3-0.4-0.6-0.6c-0.3-0.1-0.6-0.2-0.9-0.2
		c-0.4,0-0.8,0.1-1,0.3c-0.3,0.2-0.4,0.5-0.4,0.8c0,0.4,0.1,0.6,0.4,0.8c0.3,0.2,0.6,0.3,1,0.3c0.3,0,0.6-0.1,0.9-0.2
		C398.3,86,398.5,85.8,398.6,85.5z"/>
	<path class="st6" d="M404.6,80.8v1.1c-0.2-0.1-0.4-0.2-0.7-0.2c-0.3,0-0.6,0.1-0.9,0.3c-0.3,0.2-0.4,0.5-0.5,0.9v4.2h-1v-6.2h1v0.8
		c0.1-0.3,0.3-0.5,0.6-0.7c0.3-0.2,0.6-0.3,0.9-0.3C404.3,80.7,404.5,80.8,404.6,80.8z"/>
	<path class="st6" d="M409.6,85.2h1c-0.1,0.6-0.4,1.1-0.8,1.4s-1,0.5-1.7,0.5c-0.8,0-1.5-0.3-2.1-0.9s-0.8-1.4-0.8-2.3
		c0-0.9,0.3-1.7,0.8-2.3c0.5-0.6,1.2-0.9,2-0.9c0.8,0,1.5,0.3,1.9,0.8s0.7,1.3,0.7,2.2v0.4h-4.4c0,0.7,0.2,1.2,0.5,1.6
		c0.3,0.4,0.8,0.6,1.3,0.6c0.4,0,0.7-0.1,1-0.3C409.4,85.8,409.5,85.6,409.6,85.2z M408.1,81.6c-0.5,0-0.9,0.2-1.2,0.5
		c-0.3,0.3-0.5,0.7-0.6,1.3h3.3c0-0.5-0.1-0.9-0.4-1.2C409,81.8,408.6,81.6,408.1,81.6z"/>
	<path class="st6" d="M416.2,87.1v-0.7c-0.2,0.2-0.4,0.4-0.7,0.6s-0.7,0.2-1,0.2c-0.9,0-1.6-0.3-2.1-0.9c-0.5-0.6-0.7-1.4-0.7-2.3
		c0-0.9,0.2-1.7,0.7-2.3c0.5-0.6,1.2-0.9,2.1-0.9c0.4,0,0.7,0.1,1,0.2s0.6,0.4,0.7,0.6V78h1.1v9.1H416.2z M416.2,85.2v-2.5
		c-0.2-0.3-0.4-0.6-0.7-0.7c-0.3-0.2-0.6-0.3-0.9-0.3c-0.6,0-1,0.2-1.4,0.6s-0.5,1-0.5,1.6c0,0.7,0.2,1.2,0.5,1.6s0.8,0.6,1.4,0.6
		c0.3,0,0.6-0.1,0.9-0.3C415.8,85.8,416.1,85.6,416.2,85.2z"/>
	<path class="st6" d="M422.2,87.1V78h1v3.7c0.2-0.3,0.5-0.5,0.8-0.7c0.3-0.2,0.7-0.3,1.1-0.3c0.7,0,1.2,0.2,1.6,0.6
		c0.4,0.4,0.6,1,0.6,1.7v4.1h-1.1v-3.9c0-0.4-0.1-0.8-0.3-1.1c-0.2-0.3-0.6-0.4-1-0.4c-0.4,0-0.7,0.1-1,0.3
		c-0.3,0.2-0.5,0.5-0.6,0.8v4.2H422.2z"/>
	<path class="st6" d="M433,85.2h1c-0.1,0.6-0.4,1.1-0.8,1.4s-1,0.5-1.7,0.5c-0.8,0-1.5-0.3-2.1-0.9s-0.8-1.4-0.8-2.3
		c0-0.9,0.3-1.7,0.8-2.3c0.5-0.6,1.2-0.9,2-0.9c0.8,0,1.5,0.3,1.9,0.8s0.7,1.3,0.7,2.2v0.4h-4.4c0,0.7,0.2,1.2,0.5,1.6
		c0.3,0.4,0.8,0.6,1.3,0.6c0.4,0,0.7-0.1,1-0.3C432.8,85.8,432.9,85.6,433,85.2z M431.5,81.6c-0.5,0-0.9,0.2-1.2,0.5
		c-0.3,0.3-0.5,0.7-0.6,1.3h3.3c0-0.5-0.1-0.9-0.4-1.2C432.4,81.8,432,81.6,431.5,81.6z"/>
	<path class="st6" d="M438.7,80.8v1.1c-0.2-0.1-0.4-0.2-0.7-0.2c-0.3,0-0.6,0.1-0.9,0.3c-0.3,0.2-0.4,0.5-0.5,0.9v4.2h-1v-6.2h1v0.8
		c0.1-0.3,0.3-0.5,0.6-0.7c0.3-0.2,0.6-0.3,0.9-0.3C438.4,80.7,438.6,80.8,438.7,80.8z"/>
	<path class="st6" d="M447.6,87.1h-1v-0.5c-0.1,0.1-0.3,0.3-0.7,0.4c-0.3,0.1-0.6,0.2-1,0.2c-0.7,0-1.2-0.2-1.6-0.5
		c-0.4-0.4-0.7-0.8-0.7-1.4c0-0.6,0.2-1,0.7-1.4c0.5-0.4,1-0.5,1.7-0.5c0.3,0,0.6,0.1,0.9,0.2s0.5,0.2,0.7,0.3V83
		c0-0.4-0.1-0.7-0.4-1c-0.2-0.2-0.6-0.4-1-0.4c-0.7,0-1.1,0.3-1.3,0.9h-1c0.1-0.5,0.4-0.9,0.8-1.3c0.4-0.3,0.9-0.5,1.5-0.5
		c0.7,0,1.3,0.2,1.7,0.6c0.4,0.4,0.6,0.9,0.6,1.6V87.1z M446.6,85.5v-0.6c-0.1-0.2-0.3-0.4-0.6-0.6c-0.3-0.1-0.6-0.2-0.9-0.2
		c-0.4,0-0.8,0.1-1,0.3s-0.4,0.5-0.4,0.8c0,0.4,0.1,0.6,0.4,0.8s0.6,0.3,1,0.3c0.3,0,0.6-0.1,0.9-0.2
		C446.3,86,446.5,85.8,446.6,85.5z"/>
	<path class="st6" d="M449.7,86.3c-0.5-0.6-0.8-1.4-0.8-2.3c0-1,0.3-1.7,0.8-2.3c0.5-0.6,1.2-0.9,2-0.9c0.7,0,1.2,0.2,1.7,0.5
		c0.4,0.4,0.7,0.8,0.8,1.5h-1.1c-0.1-0.3-0.2-0.6-0.5-0.8c-0.2-0.2-0.6-0.3-0.9-0.3c-0.5,0-1,0.2-1.3,0.6c-0.3,0.4-0.5,1-0.5,1.7
		c0,0.7,0.2,1.2,0.5,1.7c0.3,0.4,0.7,0.6,1.3,0.6c0.4,0,0.7-0.1,0.9-0.3c0.2-0.2,0.4-0.5,0.5-0.8h1.1c-0.1,0.6-0.4,1.1-0.8,1.5
		c-0.4,0.4-1,0.5-1.7,0.5C450.9,87.2,450.2,86.9,449.7,86.3z"/>
	<path class="st6" d="M455.9,86.3c-0.5-0.6-0.8-1.4-0.8-2.3c0-1,0.3-1.7,0.8-2.3c0.5-0.6,1.2-0.9,2-0.9c0.7,0,1.2,0.2,1.7,0.5
		s0.7,0.8,0.8,1.5h-1.1c-0.1-0.3-0.2-0.6-0.5-0.8s-0.6-0.3-0.9-0.3c-0.5,0-1,0.2-1.3,0.6c-0.3,0.4-0.5,1-0.5,1.7
		c0,0.7,0.2,1.2,0.5,1.7c0.3,0.4,0.7,0.6,1.3,0.6c0.4,0,0.7-0.1,0.9-0.3s0.4-0.5,0.5-0.8h1.1c-0.1,0.6-0.4,1.1-0.8,1.5
		s-1,0.5-1.7,0.5C457.1,87.2,456.5,86.9,455.9,86.3z"/>
	<path class="st6" d="M466.3,81.6c0.5,0.6,0.8,1.4,0.8,2.3c0,1-0.3,1.7-0.8,2.3c-0.5,0.6-1.2,0.9-2.1,0.9c-0.8,0-1.5-0.3-2.1-0.9
		c-0.5-0.6-0.8-1.4-0.8-2.3c0-1,0.3-1.7,0.8-2.3c0.5-0.6,1.2-0.9,2.1-0.9C465.1,80.7,465.8,81,466.3,81.6z M465.5,85.7
		c0.3-0.4,0.5-1,0.5-1.7c0-0.7-0.2-1.2-0.5-1.7s-0.8-0.6-1.3-0.6c-0.6,0-1,0.2-1.3,0.6s-0.5,1-0.5,1.7c0,0.7,0.2,1.2,0.5,1.7
		s0.8,0.6,1.3,0.6C464.8,86.3,465.2,86.1,465.5,85.7z"/>
	<path class="st6" d="M473.5,80.9v6.2h-1.1v-0.8c-0.2,0.3-0.4,0.5-0.8,0.7c-0.3,0.2-0.7,0.3-1.1,0.3c-0.7,0-1.2-0.2-1.6-0.6
		c-0.4-0.4-0.6-1-0.6-1.7v-4.1h1.1v3.9c0,0.5,0.1,0.8,0.3,1.1c0.2,0.3,0.6,0.4,1,0.4c0.4,0,0.7-0.1,1-0.3c0.3-0.2,0.5-0.5,0.6-0.8
		v-4.2H473.5z"/>
	<path class="st6" d="M475.3,87.1v-6.2h1v0.8c0.2-0.3,0.5-0.5,0.8-0.7c0.3-0.2,0.7-0.3,1.1-0.3c0.7,0,1.2,0.2,1.6,0.6
		c0.4,0.4,0.6,1,0.6,1.7v4.1h-1.1v-3.9c0-0.4-0.1-0.8-0.3-1.1c-0.2-0.3-0.6-0.4-1-0.4c-0.4,0-0.7,0.1-1,0.3
		c-0.3,0.2-0.5,0.5-0.6,0.8v4.2H475.3z"/>
	<path class="st6" d="M482.5,85.5v-3.8h-1v-0.9h1v-1.6h1.1v1.6h1.5v0.9h-1.5v3.6c0,0.6,0.3,0.9,0.8,0.9c0.3,0,0.6-0.1,0.8-0.3v1
		c-0.3,0.1-0.6,0.2-1,0.2c-0.5,0-0.9-0.1-1.2-0.4C482.6,86.5,482.5,86.1,482.5,85.5z"/>
</g>
<g class="st13">
	<path class="st6" d="M362.8,103.9v-0.7c-0.2,0.2-0.4,0.4-0.7,0.6c-0.3,0.2-0.7,0.2-1,0.2c-0.9,0-1.6-0.3-2.1-0.9
		c-0.5-0.6-0.7-1.4-0.7-2.3c0-0.9,0.2-1.7,0.7-2.3c0.5-0.6,1.2-0.9,2.1-0.9c0.4,0,0.7,0.1,1,0.2c0.3,0.2,0.6,0.4,0.7,0.6v-3.6h1.1
		v9.1H362.8z M362.8,102v-2.5c-0.2-0.3-0.4-0.6-0.7-0.7c-0.3-0.2-0.6-0.3-0.9-0.3c-0.6,0-1,0.2-1.4,0.6c-0.3,0.4-0.5,1-0.5,1.6
		c0,0.7,0.2,1.2,0.5,1.6c0.3,0.4,0.8,0.6,1.4,0.6c0.3,0,0.6-0.1,0.9-0.3C362.4,102.6,362.6,102.4,362.8,102z"/>
	<path class="st6" d="M369.6,102h1c-0.1,0.6-0.4,1.1-0.8,1.4s-1,0.5-1.7,0.5c-0.8,0-1.5-0.3-2.1-0.9s-0.8-1.4-0.8-2.3
		c0-0.9,0.3-1.7,0.8-2.3s1.2-0.9,2-0.9c0.8,0,1.5,0.3,1.9,0.8s0.7,1.3,0.7,2.2v0.4h-4.4c0,0.7,0.2,1.2,0.5,1.6
		c0.3,0.4,0.8,0.6,1.3,0.6c0.4,0,0.7-0.1,1-0.3C369.3,102.6,369.5,102.4,369.6,102z M368.1,98.4c-0.5,0-0.9,0.2-1.2,0.5
		c-0.3,0.3-0.5,0.7-0.6,1.3h3.3c0-0.5-0.1-0.9-0.4-1.2C369,98.6,368.6,98.4,368.1,98.4z"/>
	<path class="st6" d="M372.4,102.3v-3.8h-1v-0.9h1V96h1v1.6h1.5v0.9h-1.5v3.6c0,0.6,0.3,0.9,0.8,0.9c0.3,0,0.6-0.1,0.8-0.3v1
		c-0.3,0.1-0.6,0.2-1,0.2c-0.5,0-0.9-0.1-1.2-0.4C372.5,103.3,372.4,102.9,372.4,102.3z"/>
	<path class="st6" d="M380.9,103.9h-1v-0.5c-0.1,0.1-0.3,0.3-0.7,0.4c-0.3,0.1-0.6,0.2-1,0.2c-0.7,0-1.2-0.2-1.6-0.5
		c-0.4-0.4-0.7-0.8-0.7-1.4c0-0.6,0.2-1,0.7-1.4c0.5-0.4,1-0.5,1.7-0.5c0.3,0,0.6,0.1,0.9,0.2s0.5,0.2,0.7,0.3v-0.8
		c0-0.4-0.1-0.7-0.4-1c-0.2-0.2-0.6-0.4-1-0.4c-0.7,0-1.1,0.3-1.3,0.9h-1c0.1-0.5,0.4-0.9,0.8-1.3c0.4-0.3,0.9-0.5,1.5-0.5
		c0.7,0,1.3,0.2,1.7,0.6c0.4,0.4,0.6,0.9,0.6,1.6V103.9z M379.9,102.3v-0.6c-0.1-0.2-0.3-0.4-0.6-0.6c-0.3-0.1-0.6-0.2-0.9-0.2
		c-0.4,0-0.8,0.1-1.1,0.3s-0.4,0.5-0.4,0.8c0,0.4,0.1,0.6,0.4,0.8s0.6,0.3,1.1,0.3c0.3,0,0.6-0.1,0.9-0.2
		C379.6,102.8,379.8,102.6,379.9,102.3z"/>
	<path class="st6" d="M383.7,95.3c0.1,0.1,0.2,0.3,0.2,0.5s-0.1,0.3-0.2,0.5s-0.3,0.2-0.5,0.2c-0.2,0-0.3-0.1-0.5-0.2
		c-0.1-0.1-0.2-0.3-0.2-0.5s0.1-0.3,0.2-0.5c0.1-0.1,0.3-0.2,0.5-0.2C383.4,95.1,383.6,95.2,383.7,95.3z M383.8,97.7v6.2h-1v-6.2
		H383.8z"/>
	<path class="st6" d="M386.7,94.8v9.1h-1v-9.1H386.7z"/>
	<path class="st6" d="M388.1,102.2h1.1c0.2,0.6,0.7,1,1.5,1c0.4,0,0.7-0.1,0.9-0.2c0.2-0.2,0.4-0.4,0.4-0.7c0-0.4-0.3-0.7-0.9-0.9
		l-1.2-0.3c-1-0.3-1.5-0.8-1.5-1.6c0-0.5,0.2-1,0.6-1.3s1-0.5,1.6-0.5c0.7,0,1.2,0.2,1.6,0.5c0.4,0.3,0.7,0.7,0.8,1.3h-1
		c-0.2-0.6-0.6-0.9-1.4-0.9c-0.3,0-0.6,0.1-0.8,0.2c-0.2,0.2-0.4,0.4-0.4,0.7c0,0.2,0.1,0.4,0.2,0.5c0.1,0.1,0.4,0.2,0.7,0.3
		l1.2,0.3c1.1,0.3,1.6,0.9,1.6,1.7c0,0.6-0.2,1-0.6,1.4c-0.4,0.3-1,0.5-1.7,0.5c-0.7,0-1.3-0.2-1.7-0.5
		C388.4,103.2,388.2,102.7,388.1,102.2z"/>
	<path class="st6" d="M401.4,97.7l1.3,4.7l1.4-4.7h1l-1.8,6.2h-1l-1.3-4.7l-1.3,4.7h-1l-1.8-6.2h1l1.4,4.7l1.3-4.7H401.4z"/>
	<path class="st6" d="M407.3,95.3c0.1,0.1,0.2,0.3,0.2,0.5s-0.1,0.3-0.2,0.5c-0.1,0.1-0.3,0.2-0.5,0.2s-0.3-0.1-0.5-0.2
		c-0.1-0.1-0.2-0.3-0.2-0.5s0.1-0.3,0.2-0.5c0.1-0.1,0.3-0.2,0.5-0.2S407.1,95.2,407.3,95.3z M407.3,97.7v6.2h-1.1v-6.2H407.3z"/>
	<path class="st6" d="M409.5,102.3v-3.8h-1v-0.9h1V96h1.1v1.6h1.5v0.9h-1.5v3.6c0,0.6,0.3,0.9,0.8,0.9c0.3,0,0.6-0.1,0.8-0.3v1
		c-0.3,0.1-0.6,0.2-1,0.2c-0.5,0-0.9-0.1-1.2-0.4C409.6,103.3,409.5,102.9,409.5,102.3z"/>
	<path class="st6" d="M413.6,103.9v-9.1h1v3.7c0.2-0.3,0.5-0.5,0.8-0.7s0.7-0.3,1.1-0.3c0.7,0,1.2,0.2,1.6,0.6
		c0.4,0.4,0.6,1,0.6,1.7v4.1h-1.1V100c0-0.4-0.1-0.8-0.3-1.1c-0.2-0.3-0.6-0.4-1-0.4c-0.4,0-0.7,0.1-1,0.3c-0.3,0.2-0.5,0.5-0.6,0.8
		v4.2H413.6z"/>
	<path class="st6" d="M425.4,106.3h-1l0.9-2.3l-2.4-6.3h1.1l1.8,4.9l1.8-4.9h1.1L425.4,106.3z"/>
	<path class="st6" d="M434.3,98.4c0.5,0.6,0.8,1.4,0.8,2.3c0,1-0.3,1.7-0.8,2.3c-0.5,0.6-1.2,0.9-2.1,0.9c-0.8,0-1.5-0.3-2.1-0.9
		c-0.5-0.6-0.8-1.4-0.8-2.3c0-1,0.3-1.7,0.8-2.3c0.5-0.6,1.2-0.9,2.1-0.9C433.1,97.5,433.8,97.8,434.3,98.4z M433.6,102.5
		c0.3-0.4,0.5-1,0.5-1.7c0-0.7-0.2-1.2-0.5-1.7s-0.8-0.6-1.3-0.6c-0.6,0-1,0.2-1.3,0.6c-0.3,0.4-0.5,1-0.5,1.7
		c0,0.7,0.2,1.2,0.5,1.7c0.3,0.4,0.8,0.6,1.3,0.6C432.8,103.1,433.2,102.9,433.6,102.5z"/>
	<path class="st6" d="M441.5,97.7v6.2h-1.1v-0.8c-0.2,0.3-0.4,0.5-0.8,0.7c-0.3,0.2-0.7,0.3-1.1,0.3c-0.7,0-1.2-0.2-1.6-0.6
		c-0.4-0.4-0.6-1-0.6-1.7v-4.1h1.1v3.9c0,0.5,0.1,0.8,0.3,1.1c0.2,0.3,0.6,0.4,1,0.4c0.4,0,0.7-0.1,1-0.3s0.5-0.5,0.6-0.8v-4.2
		H441.5z"/>
	<path class="st6" d="M443.1,103.7c-0.1-0.1-0.2-0.3-0.2-0.5s0.1-0.4,0.2-0.5c0.1-0.1,0.3-0.2,0.5-0.2c0.2,0,0.4,0.1,0.5,0.2
		c0.1,0.1,0.2,0.3,0.2,0.5s-0.1,0.4-0.2,0.5c-0.1,0.1-0.3,0.2-0.5,0.2C443.4,104,443.2,103.9,443.1,103.7z"/>
</g>
<rect x="37.6" y="92" class="st5" width="159.8" height="94"/>
<g class="st13">
	<path class="st14" d="M76.4,100.9v-1.6h1c0.8,0,1.5-0.2,2-0.7s0.8-1,0.8-1.8c0-0.7-0.2-1.3-0.7-1.8c-0.5-0.5-1.1-0.7-2-0.7
		c-0.8,0-1.5,0.2-2,0.7c-0.5,0.5-0.8,1.1-0.9,1.9h-1.8c0.2-1.3,0.7-2.3,1.6-3.1c0.9-0.8,1.9-1.2,3.2-1.2c1.4,0,2.5,0.4,3.3,1.1
		c0.8,0.7,1.2,1.7,1.2,2.9c0,0.8-0.2,1.5-0.6,2.1c-0.4,0.6-1,1-1.7,1.2c0.8,0.2,1.4,0.6,1.9,1.3c0.5,0.6,0.7,1.3,0.7,2.2
		c0,1.2-0.4,2.3-1.3,3.1s-2,1.2-3.4,1.2s-2.6-0.4-3.5-1.2c-0.9-0.8-1.4-1.9-1.6-3.2h1.8c0.1,0.9,0.5,1.5,1,2
		c0.6,0.5,1.3,0.7,2.2,0.7c0.9,0,1.6-0.2,2.1-0.7c0.5-0.5,0.8-1.1,0.8-2c0-0.8-0.3-1.4-0.9-1.9c-0.6-0.5-1.3-0.7-2.1-0.7H76.4z"/>
	<path class="st14" d="M91.2,96.8c0-0.8-0.2-1.4-0.7-1.8s-1.1-0.7-1.9-0.7c-0.9,0-1.5,0.3-2,0.8c-0.5,0.5-0.8,1.3-0.9,2.1h-1.9
		c0.1-1.4,0.6-2.5,1.5-3.4c0.9-0.8,2-1.3,3.3-1.3c1.4,0,2.5,0.4,3.3,1.1c0.8,0.8,1.2,1.8,1.2,3c0,0.2,0,0.5-0.1,0.7
		c-0.1,0.2-0.1,0.4-0.2,0.6c-0.1,0.2-0.2,0.4-0.3,0.7c-0.2,0.3-0.3,0.5-0.3,0.6c-0.1,0.1-0.2,0.3-0.5,0.6c-0.2,0.3-0.4,0.5-0.5,0.6
		c-0.1,0.1-0.3,0.3-0.6,0.6c-0.3,0.3-0.5,0.5-0.5,0.6l-3.7,4.1h7v1.7h-9.6v-1.2l4.8-5.2c0.7-0.8,1.2-1.3,1.5-1.6
		c0.3-0.3,0.5-0.7,0.8-1.2C91,97.7,91.2,97.3,91.2,96.8z"/>
	<path class="st14" d="M100.1,92.8v14.8h-1.8V95.1L94.6,97v-1.9l4.4-2.2H100.1z"/>
	<path class="st14" d="M112.8,96.3h-1.9c-0.4-1.4-1.4-2.1-2.7-2.1c-1.1,0-2,0.5-2.7,1.6c-0.7,1.1-1.1,2.4-1.1,4c0,0,0,0.2,0,0.3
		c0,0.2,0,0.3,0,0.3c0.2-0.8,0.7-1.4,1.4-1.8c0.7-0.5,1.5-0.7,2.3-0.7c1.4,0,2.5,0.5,3.4,1.4c0.9,1,1.3,2.1,1.3,3.5
		c0,1.4-0.5,2.6-1.4,3.5s-2.1,1.4-3.6,1.4c-2,0-3.5-0.9-4.4-2.8c-0.6-1.2-0.9-2.7-0.9-4.5c0-2.4,0.5-4.3,1.5-5.7s2.3-2.1,3.9-2.1
		C110.6,92.7,112.2,93.9,112.8,96.3z M104.9,102.9c0,1,0.3,1.8,0.9,2.4c0.6,0.6,1.4,0.9,2.3,0.9c0.9,0,1.7-0.3,2.3-0.9
		c0.6-0.6,0.9-1.4,0.9-2.4c0-1-0.3-1.8-0.9-2.4c-0.6-0.6-1.4-0.9-2.3-0.9c-0.9,0-1.7,0.3-2.3,0.9
		C105.2,101.1,104.9,101.9,104.9,102.9z"/>
	<path class="st14" d="M119.6,99.7c-1,0-1.9,0.4-2.6,1.3h-1.5v-8.1h8.1v1.7h-6.5V99c0.7-0.6,1.6-0.9,2.7-0.9c1.4,0,2.5,0.5,3.3,1.4
		c0.9,0.9,1.3,2.1,1.3,3.5c0,1.4-0.4,2.6-1.3,3.5c-0.9,0.9-2,1.4-3.4,1.4c-1.4,0-2.6-0.4-3.5-1.2s-1.4-1.9-1.6-3.2h1.8
		c0.3,1.9,1.4,2.8,3.2,2.8c0.9,0,1.6-0.3,2.2-0.9c0.6-0.6,0.8-1.4,0.8-2.3c0-0.9-0.3-1.7-0.8-2.3C121.2,100,120.5,99.7,119.6,99.7z"
		/>
	<path class="st14" d="M133.5,104.4h1.7c-0.2,1-0.7,1.9-1.4,2.5c-0.8,0.6-1.7,0.9-2.9,0.9c-1.5,0-2.6-0.5-3.5-1.5
		c-0.9-1-1.4-2.3-1.4-4c0-1.6,0.4-2.9,1.3-4c0.9-1,2.1-1.6,3.5-1.6c1.4,0,2.5,0.5,3.3,1.4c0.8,1,1.2,2.2,1.2,3.8v0.6h-7.5
		c0,1.1,0.3,2,0.9,2.7c0.6,0.7,1.3,1,2.2,1c0.7,0,1.2-0.2,1.7-0.5C133,105.5,133.3,105,133.5,104.4z M130.9,98.3
		c-0.8,0-1.5,0.3-2,0.8s-0.9,1.3-1,2.2h5.7c0-0.8-0.2-1.6-0.7-2.1C132.4,98.6,131.7,98.3,130.9,98.3z"/>
	<path class="st14" d="M141.8,99.7c-1,0-1.9,0.4-2.6,1.3h-1.5v-8.1h8.1v1.7h-6.5V99c0.7-0.6,1.6-0.9,2.7-0.9c1.4,0,2.5,0.5,3.3,1.4
		c0.9,0.9,1.3,2.1,1.3,3.5c0,1.4-0.4,2.6-1.3,3.5c-0.9,0.9-2,1.4-3.4,1.4c-1.4,0-2.6-0.4-3.5-1.2s-1.4-1.9-1.6-3.2h1.8
		c0.3,1.9,1.4,2.8,3.2,2.8c0.9,0,1.6-0.3,2.2-0.9c0.6-0.6,0.8-1.4,0.8-2.3c0-0.9-0.3-1.7-0.8-2.3C143.4,100,142.7,99.7,141.8,99.7z"
		/>
	<path class="st14" d="M148.9,107.4c-0.2-0.2-0.4-0.6-0.4-0.9s0.1-0.7,0.4-0.9c0.2-0.3,0.5-0.4,0.9-0.4c0.4,0,0.7,0.1,0.9,0.4
		c0.2,0.3,0.4,0.6,0.4,0.9s-0.1,0.7-0.4,0.9c-0.2,0.2-0.6,0.4-0.9,0.4C149.5,107.7,149.2,107.6,148.9,107.4z M149.2,103l-0.4-10.1
		h2.1l-0.4,10.1H149.2z"/>
	<path class="st14" d="M161.6,107.6h-1.7v-0.8c-0.2,0.2-0.6,0.5-1.1,0.7s-1.1,0.3-1.7,0.3c-1.1,0-2.1-0.3-2.8-0.9
		c-0.8-0.6-1.1-1.4-1.1-2.5c0-1,0.4-1.8,1.2-2.4c0.8-0.6,1.8-0.9,2.9-0.9c0.5,0,1,0.1,1.6,0.3c0.5,0.2,0.9,0.4,1.1,0.6v-1.3
		c0-0.7-0.2-1.2-0.6-1.7c-0.4-0.4-1-0.6-1.7-0.6c-1.1,0-1.8,0.5-2.2,1.5h-1.8c0.2-0.9,0.6-1.6,1.4-2.2c0.7-0.6,1.6-0.8,2.6-0.8
		c1.3,0,2.3,0.3,3,1c0.7,0.7,1.1,1.6,1.1,2.8V107.6z M159.9,105v-1.1c-0.2-0.4-0.5-0.7-0.9-0.9c-0.5-0.2-1-0.4-1.5-0.4
		c-0.7,0-1.3,0.2-1.8,0.5c-0.5,0.3-0.7,0.8-0.7,1.4c0,0.6,0.2,1.1,0.7,1.4c0.5,0.3,1.1,0.5,1.8,0.5c0.6,0,1.1-0.1,1.5-0.4
		C159.4,105.7,159.7,105.4,159.9,105z"/>
</g>
<circle class="st11" cx="305" cy="14.8" r="3.4"/>
<line class="st12" x1="292.8" y1="24.8" x2="514.8" y2="24.8"/>
<circle class="st11" cx="317.5" cy="14.8" r="3.4"/>
<circle class="st11" cx="329.2" cy="14.8" r="3.4"/>
<rect x="5.5" y="202.1" class="st5" width="15.7" height="12.3"/>
<g class="st13">
	<path d="M8.6,202.5v7.4H7.6v-6.2l-1.8,0.9v-1l2.2-1.1H8.6z"/>
	<path d="M10,209.8c-0.1-0.1-0.2-0.3-0.2-0.5s0.1-0.3,0.2-0.5s0.3-0.2,0.5-0.2c0.2,0,0.3,0.1,0.4,0.2s0.2,0.3,0.2,0.5
		s-0.1,0.3-0.2,0.5s-0.3,0.2-0.4,0.2C10.3,210,10.2,209.9,10,209.8z"/>
</g>
<rect x="292.3" y="262.4" class="st5" width="15.7" height="12.3"/>
<g class="st13">
	<path d="M296.3,264.8c0-0.4-0.1-0.7-0.4-0.9c-0.2-0.2-0.6-0.3-1-0.3c-0.4,0-0.8,0.1-1,0.4c-0.2,0.3-0.4,0.6-0.4,1.1h-1
		c0.1-0.7,0.3-1.3,0.8-1.7c0.4-0.4,1-0.6,1.7-0.6c0.7,0,1.2,0.2,1.6,0.6c0.4,0.4,0.6,0.9,0.6,1.5c0,0.1,0,0.2,0,0.3
		c0,0.1-0.1,0.2-0.1,0.3c0,0.1-0.1,0.2-0.2,0.3c-0.1,0.1-0.1,0.2-0.2,0.3c0,0.1-0.1,0.2-0.2,0.3c-0.1,0.1-0.2,0.2-0.2,0.3
		c0,0-0.1,0.2-0.3,0.3s-0.2,0.3-0.3,0.3l-1.9,2.1h3.5v0.8h-4.8v-0.6l2.4-2.6c0.4-0.4,0.6-0.7,0.7-0.8c0.1-0.1,0.3-0.3,0.4-0.6
		S296.3,265,296.3,264.8z"/>
	<path d="M298.5,270.1c-0.1-0.1-0.2-0.3-0.2-0.5s0.1-0.3,0.2-0.5s0.3-0.2,0.5-0.2c0.2,0,0.3,0.1,0.4,0.2s0.2,0.3,0.2,0.5
		s-0.1,0.3-0.2,0.5s-0.3,0.2-0.4,0.2C298.8,270.2,298.7,270.2,298.5,270.1z"/>
</g>
<g>
	<g>
		<path class="st15" d="M218.7,223.3c0.8,11.6,17.2,31.2,39.7,28.5"/>
		<g>
			<polygon points="257.4,254.1 264.9,250.4 256.5,249.8 			"/>
		</g>
	</g>
</g>
<rect x="6" y="3.6" class="st16" width="222.3" height="191.7"/>
<polyline class="st16" points="6,195.2 6,3.6 228.4,3.6 "/>
<polyline class="st17" points="6,194.2 227.4,194.2 227.4,3.6 "/>
<polyline class="st17" points="292.3,254.7 514.6,254.7 514.6,3.6 "/>
<rect x="292.8" y="3.6" class="st16" width="222.3" height="251.4"/>
</svg>
