<?xml version="1.0" encoding="utf-8"?>
<!-- Generator: Adobe Illustrator 22.0.1, SVG Export Plug-In . SVG Version: 6.00 Build 0)  -->
<svg version="1.1" id="Layer_1" xmlns="http://www.w3.org/2000/svg" xmlns:xlink="http://www.w3.org/1999/xlink" x="0px" y="0px"
	 viewBox="0 0 520.9 280.4" style="enable-background:new 0 0 520.9 280.4;" xml:space="preserve">
<style type="text/css">
	.st0{fill:#FFFFFF;}
	.st1{fill:#DDDDDD;}
	.st2{fill:none;stroke:#DDDDDD;stroke-miterlimit:10;}
	.st3{enable-background:new    ;}
	.st4{fill:#2341C1;}
	.st5{fill:none;}
	.st6{fill:#1D1D1B;}
	.st7{fill:none;stroke:#000000;stroke-width:0.75;stroke-miterlimit:10;}
	.st8{fill:none;stroke:#1E1E1E;stroke-miterlimit:10;}
	.st9{fill:none;stroke:#1E1E1E;stroke-width:2;stroke-miterlimit:10;}
</style>
<rect x="292.8" y="3.6" class="st0" width="222.3" height="251.4"/>
<rect x="6" y="3.6" class="st0" width="221.4" height="190.6"/>
<rect x="335.2" y="129.3" class="st1" width="39.9" height="41.6"/>
<rect x="387.4" y="129.3" class="st1" width="90.8" height="6.5"/>
<rect x="387.4" y="164.4" class="st1" width="90.8" height="6.5"/>
<rect x="387.4" y="146.9" class="st1" width="90.8" height="6.5"/>
<circle class="st1" cx="19" cy="14.8" r="3.4"/>
<line class="st2" x1="6.1" y1="24.8" x2="228.8" y2="24.8"/>
<circle class="st1" cx="31.5" cy="14.8" r="3.4"/>
<circle class="st1" cx="43.2" cy="14.8" r="3.4"/>
<g>
	<path class="st1" d="M156.2,173.6H78.7c-9.4,0-17.1-7.7-17.1-17.1l0,0c0-9.4,7.7-17.1,17.1-17.1h77.5c9.4,0,17.1,7.7,17.1,17.1l0,0
		C173.3,166,165.7,173.6,156.2,173.6z"/>
</g>
<g>
	<g class="st3">
		<path class="st4" d="M98.7,161.5c-1,0-1.8-0.3-2.4-0.9c-0.6-0.6-0.9-1.5-0.9-2.6v-5.2h1.1v5.1c0,0.9,0.2,1.6,0.6,2s1,0.7,1.7,0.7
			s1.3-0.2,1.7-0.7c0.4-0.4,0.6-1.1,0.6-2v-5.1h1.1v5.2c0,1.1-0.3,2-0.9,2.6C100.5,161.2,99.7,161.5,98.7,161.5z"/>
		<path class="st4" d="M103.3,159.7h1.1c0.2,0.6,0.7,1,1.5,1c0.4,0,0.7-0.1,0.9-0.2c0.2-0.2,0.4-0.4,0.4-0.7c0-0.4-0.3-0.7-0.9-0.9
			l-1.2-0.3c-1-0.3-1.5-0.8-1.5-1.6c0-0.5,0.2-1,0.6-1.3s1-0.5,1.6-0.5c0.7,0,1.2,0.2,1.6,0.5s0.7,0.7,0.8,1.3h-1
			c-0.2-0.6-0.6-0.9-1.4-0.9c-0.3,0-0.6,0.1-0.8,0.2c-0.2,0.2-0.4,0.4-0.4,0.7c0,0.2,0.1,0.4,0.2,0.5s0.4,0.2,0.7,0.3l1.2,0.3
			c1.1,0.3,1.6,0.9,1.6,1.7c0,0.6-0.2,1-0.6,1.4s-1,0.5-1.7,0.5s-1.3-0.2-1.7-0.5C103.7,160.7,103.4,160.3,103.3,159.7z"/>
		<path class="st4" d="M113.6,159.6h1c-0.1,0.6-0.4,1.1-0.8,1.4s-1,0.5-1.7,0.5c-0.8,0-1.5-0.3-2.1-0.9s-0.8-1.4-0.8-2.3
			c0-0.9,0.3-1.7,0.8-2.3s1.2-0.9,2-0.9s1.5,0.3,1.9,0.8c0.5,0.6,0.7,1.3,0.7,2.2v0.4h-4.4c0,0.7,0.2,1.2,0.5,1.6
			c0.3,0.4,0.8,0.6,1.3,0.6c0.4,0,0.7-0.1,1-0.3S113.5,159.9,113.6,159.6z M112,156c-0.5,0-0.9,0.2-1.2,0.5
			c-0.3,0.3-0.5,0.7-0.6,1.3h3.3c0-0.5-0.1-0.9-0.4-1.2C112.9,156.1,112.5,156,112,156z"/>
		<path class="st4" d="M119.1,161.4v-6.2h1v0.8c0.2-0.3,0.5-0.5,0.8-0.7s0.7-0.3,1.1-0.3c0.7,0,1.2,0.2,1.6,0.6
			c0.4,0.4,0.6,1,0.6,1.7v4.1h-1.1v-3.9c0-0.4-0.1-0.8-0.3-1.1c-0.2-0.3-0.6-0.4-1-0.4s-0.7,0.1-1,0.3s-0.5,0.5-0.6,0.8v4.2
			L119.1,161.4L119.1,161.4z"/>
		<path class="st4" d="M130.5,156c0.5,0.6,0.8,1.4,0.8,2.3c0,1-0.3,1.7-0.8,2.3s-1.2,0.9-2.1,0.9c-0.8,0-1.5-0.3-2.1-0.9
			c-0.5-0.6-0.8-1.4-0.8-2.3c0-1,0.3-1.7,0.8-2.3s1.2-0.9,2.1-0.9C129.2,155.1,129.9,155.4,130.5,156z M129.7,160
			c0.3-0.4,0.5-1,0.5-1.7s-0.2-1.2-0.5-1.7c-0.3-0.4-0.8-0.6-1.3-0.6c-0.6,0-1,0.2-1.3,0.6c-0.3,0.4-0.5,1-0.5,1.7s0.2,1.2,0.5,1.7
			c0.3,0.4,0.8,0.6,1.3,0.6S129.4,160.4,129.7,160z"/>
		<path class="st4" d="M136.6,155.2l1.3,4.7l1.4-4.7h1l-1.8,6.2h-1l-1.3-4.7l-1.3,4.7h-1l-1.8-6.2h1l1.4,4.7l1.3-4.7H136.6z"/>
	</g>
</g>
<g>
	<path class="st1" d="M442.6,229.4H365c-9.4,0-17.1-7.7-17.1-17.1l0,0c0-9.4,7.7-17.1,17.1-17.1h77.5c9.4,0,17.1,7.7,17.1,17.1l0,0
		C459.7,221.8,452,229.4,442.6,229.4z"/>
</g>
<g>
	<g class="st3">
		<path class="st4" d="M390.4,216.1c-0.7-0.8-1.1-1.9-1.1-3.2s0.4-2.4,1.1-3.2s1.6-1.2,2.8-1.2c0.9,0,1.6,0.2,2.2,0.7s1,1.1,1.1,1.9
			h-1.1c-0.4-1.1-1.1-1.7-2.3-1.7c-0.8,0-1.5,0.3-2,0.9s-0.8,1.5-0.8,2.5s0.3,1.8,0.8,2.5s1.2,1,2,1c1.1,0,1.9-0.6,2.3-1.7h1.1
			c-0.2,0.8-0.6,1.5-1.1,1.9c-0.6,0.5-1.3,0.7-2.2,0.7C392,217.3,391.1,216.9,390.4,216.1z"/>
		<path class="st4" d="M399,208.1v9.1h-1v-9.1H399z"/>
		<path class="st4" d="M405.3,211.8c0.5,0.6,0.8,1.4,0.8,2.3c0,1-0.3,1.7-0.8,2.3s-1.2,0.9-2.1,0.9s-1.5-0.3-2.1-0.9
			c-0.5-0.6-0.8-1.4-0.8-2.3c0-1,0.3-1.7,0.8-2.3s1.2-0.9,2.1-0.9S404.8,211.2,405.3,211.8z M404.6,215.8c0.3-0.4,0.5-1,0.5-1.7
			s-0.2-1.2-0.5-1.7c-0.3-0.4-0.8-0.6-1.3-0.6s-1,0.2-1.3,0.6c-0.3,0.4-0.5,1-0.5,1.7s0.2,1.2,0.5,1.7c0.3,0.4,0.8,0.6,1.3,0.6
			S404.2,216.2,404.6,215.8z"/>
		<path class="st4" d="M407,215.5h1.1c0.2,0.6,0.7,1,1.5,1c0.4,0,0.7-0.1,0.9-0.2c0.2-0.2,0.3-0.4,0.3-0.7c0-0.4-0.3-0.7-0.9-0.9
			l-1.2-0.3c-1-0.3-1.5-0.8-1.5-1.6c0-0.5,0.2-1,0.6-1.3s1-0.5,1.6-0.5c0.7,0,1.2,0.2,1.6,0.5s0.7,0.7,0.8,1.3h-1
			c-0.2-0.6-0.6-0.9-1.4-0.9c-0.3,0-0.6,0.1-0.8,0.2c-0.2,0.2-0.4,0.4-0.4,0.7c0,0.2,0.1,0.4,0.2,0.5s0.4,0.2,0.7,0.3l1.2,0.3
			c1.1,0.3,1.6,0.9,1.6,1.7c0,0.6-0.2,1-0.6,1.4c-0.4,0.3-1,0.5-1.7,0.5s-1.3-0.2-1.7-0.5C407.4,216.5,407.1,216.1,407,215.5z"/>
		<path class="st4" d="M417.3,215.4h1c-0.1,0.6-0.4,1.1-0.8,1.4s-1,0.5-1.7,0.5c-0.8,0-1.5-0.3-2.1-0.9s-0.8-1.4-0.8-2.3
			c0-0.9,0.3-1.7,0.8-2.3s1.2-0.9,2-0.9s1.5,0.3,1.9,0.8s0.7,1.3,0.7,2.2v0.4h-4.4c0,0.7,0.2,1.2,0.5,1.6c0.3,0.4,0.8,0.6,1.3,0.6
			c0.4,0,0.7-0.1,1-0.3C417,216,417.2,215.7,417.3,215.4z M415.7,211.8c-0.5,0-0.9,0.2-1.2,0.5c-0.3,0.3-0.5,0.7-0.6,1.3h3.3
			c0-0.5-0.1-0.9-0.4-1.2C416.6,211.9,416.2,211.8,415.7,211.8z"/>
	</g>
</g>
<rect x="31.2" y="61.2" class="st5" width="172.6" height="17.6"/>
<g class="st3">
	<path class="st6" d="M73.8,65.7l2.5-4.1h1.2l-3.1,5.1v3.5h-1.1v-3.5l-3.1-5.1h1.2L73.8,65.7z"/>
	<path class="st6" d="M82.2,64.8c0.5,0.6,0.8,1.4,0.8,2.3c0,1-0.3,1.7-0.8,2.3c-0.5,0.6-1.2,0.9-2.1,0.9c-0.8,0-1.5-0.3-2.1-0.9
		c-0.5-0.6-0.8-1.4-0.8-2.3c0-1,0.3-1.7,0.8-2.3c0.5-0.6,1.2-0.9,2.1-0.9S81.7,64.2,82.2,64.8z M81.5,68.9c0.3-0.4,0.5-1,0.5-1.7
		s-0.2-1.2-0.5-1.7c-0.3-0.4-0.8-0.6-1.3-0.6c-0.6,0-1,0.2-1.3,0.6s-0.5,1-0.5,1.7s0.2,1.2,0.5,1.7c0.3,0.4,0.8,0.6,1.3,0.6
		S81.1,69.3,81.5,68.9z"/>
	<path class="st6" d="M89.4,64.1v6.2h-1.1v-0.8c-0.2,0.3-0.4,0.5-0.8,0.7c-0.3,0.2-0.7,0.3-1.1,0.3c-0.7,0-1.2-0.2-1.6-0.6
		s-0.6-1-0.6-1.7v-4.1h1.1V68c0,0.5,0.1,0.8,0.3,1.1c0.2,0.3,0.6,0.4,1,0.4s0.7-0.1,1-0.3s0.5-0.5,0.6-0.8v-4.2L89.4,64.1L89.4,64.1
		z"/>
	<path class="st6" d="M94.4,64v1.1C94.3,65,94,65,93.7,65s-0.6,0.1-0.9,0.3c-0.3,0.2-0.4,0.5-0.5,0.9v4.2h-1v-6.2h1V65
		c0.1-0.3,0.3-0.5,0.6-0.7c0.3-0.2,0.6-0.3,0.9-0.3C94.1,63.9,94.3,64,94.4,64z"/>
	<path class="st6" d="M103.8,64.1v6.2h-1.1v-0.8c-0.2,0.3-0.4,0.5-0.8,0.7c-0.3,0.2-0.7,0.3-1.1,0.3c-0.7,0-1.2-0.2-1.6-0.6
		s-0.6-1-0.6-1.7v-4.1h1.1V68c0,0.5,0.1,0.8,0.3,1.1c0.2,0.3,0.6,0.4,1,0.4s0.7-0.1,1-0.3s0.5-0.5,0.6-0.8v-4.2L103.8,64.1
		L103.8,64.1z"/>
	<path class="st6" d="M105.7,70.3v-6.2h1v0.8c0.2-0.3,0.5-0.5,0.8-0.7s0.7-0.3,1.1-0.3c0.7,0,1.2,0.2,1.6,0.6s0.6,1,0.6,1.7v4.1
		h-1.1v-3.9c0-0.4-0.1-0.8-0.3-1.1c-0.2-0.3-0.6-0.4-1-0.4s-0.7,0.1-1,0.3c-0.3,0.2-0.5,0.5-0.6,0.8v4.2L105.7,70.3L105.7,70.3z"/>
	<path class="st6" d="M113.5,61.7c0.1,0.1,0.2,0.3,0.2,0.5s-0.1,0.3-0.2,0.5s-0.3,0.2-0.5,0.2s-0.3-0.1-0.5-0.2
		c-0.1-0.1-0.2-0.3-0.2-0.5s0.1-0.3,0.2-0.5c0.1-0.1,0.3-0.2,0.5-0.2S113.4,61.6,113.5,61.7z M113.6,64.1v6.2h-1v-6.2H113.6z"/>
	<path class="st6" d="M119.5,72.7v-3.1c-0.2,0.2-0.4,0.4-0.7,0.6c-0.3,0.2-0.7,0.2-1,0.2c-0.9,0-1.6-0.3-2.1-0.9s-0.7-1.4-0.7-2.3
		s0.2-1.7,0.7-2.3c0.5-0.6,1.2-0.9,2.1-0.9c0.4,0,0.7,0.1,1,0.2c0.3,0.2,0.6,0.4,0.7,0.6v-0.7h1v8.6L119.5,72.7L119.5,72.7z
		 M119.5,68.4v-2.5c-0.2-0.3-0.4-0.6-0.7-0.7c-0.3-0.2-0.6-0.3-0.9-0.3c-0.6,0-1,0.2-1.4,0.6s-0.5,1-0.5,1.6c0,0.7,0.2,1.2,0.5,1.6
		s0.8,0.6,1.4,0.6c0.3,0,0.6-0.1,0.9-0.3C119.1,69,119.4,68.8,119.5,68.4z"/>
	<path class="st6" d="M127.4,64.1v6.2h-1.1v-0.8c-0.2,0.3-0.4,0.5-0.8,0.7c-0.3,0.2-0.7,0.3-1.1,0.3c-0.7,0-1.2-0.2-1.6-0.6
		s-0.6-1-0.6-1.7v-4.1h1.1V68c0,0.5,0.1,0.8,0.3,1.1c0.2,0.3,0.6,0.4,1,0.4s0.7-0.1,1-0.3s0.5-0.5,0.6-0.8v-4.2L127.4,64.1
		L127.4,64.1z"/>
	<path class="st6" d="M133.2,68.4h1c-0.1,0.6-0.4,1.1-0.8,1.4s-1,0.5-1.7,0.5c-0.8,0-1.5-0.3-2.1-0.9s-0.8-1.4-0.8-2.3
		s0.3-1.7,0.8-2.3c0.5-0.6,1.2-0.9,2-0.9s1.5,0.3,1.9,0.8c0.5,0.6,0.7,1.3,0.7,2.2v0.4h-4.4c0,0.7,0.2,1.2,0.5,1.6s0.8,0.6,1.3,0.6
		c0.4,0,0.7-0.1,1-0.3S133.1,68.8,133.2,68.4z M131.7,64.8c-0.5,0-0.9,0.2-1.2,0.5s-0.5,0.7-0.6,1.3h3.3c0-0.5-0.1-0.9-0.4-1.2
		C132.5,65,132.2,64.8,131.7,64.8z"/>
	<path class="st6" d="M139.1,69.5c-0.5-0.6-0.8-1.4-0.8-2.3c0-1,0.3-1.7,0.8-2.3c0.5-0.6,1.2-0.9,2-0.9c0.7,0,1.2,0.2,1.7,0.5
		c0.4,0.4,0.7,0.8,0.8,1.5h-1.1c-0.1-0.3-0.2-0.6-0.5-0.8c-0.2-0.2-0.6-0.3-0.9-0.3c-0.5,0-1,0.2-1.3,0.6s-0.5,1-0.5,1.7
		s0.2,1.2,0.5,1.7c0.3,0.4,0.7,0.6,1.3,0.6c0.4,0,0.7-0.1,0.9-0.3c0.2-0.2,0.4-0.5,0.5-0.8h1.1c-0.1,0.6-0.4,1.1-0.8,1.5
		c-0.4,0.4-1,0.5-1.7,0.5C140.3,70.4,139.6,70.1,139.1,69.5z"/>
	<path class="st6" d="M149.5,64.8c0.5,0.6,0.8,1.4,0.8,2.3c0,1-0.3,1.7-0.8,2.3c-0.5,0.6-1.2,0.9-2.1,0.9c-0.8,0-1.5-0.3-2.1-0.9
		c-0.5-0.6-0.8-1.4-0.8-2.3c0-1,0.3-1.7,0.8-2.3c0.5-0.6,1.2-0.9,2.1-0.9C148.2,63.9,148.9,64.2,149.5,64.8z M148.7,68.9
		c0.3-0.4,0.5-1,0.5-1.7s-0.2-1.2-0.5-1.7c-0.3-0.4-0.8-0.6-1.3-0.6c-0.6,0-1,0.2-1.3,0.6s-0.5,1-0.5,1.7s0.2,1.2,0.5,1.7
		c0.3,0.4,0.8,0.6,1.3,0.6S148.4,69.3,148.7,68.9z"/>
	<path class="st6" d="M155.8,70.3v-0.7c-0.2,0.2-0.4,0.4-0.7,0.6s-0.7,0.2-1,0.2c-0.9,0-1.6-0.3-2.1-0.9s-0.7-1.4-0.7-2.3
		s0.2-1.7,0.7-2.3c0.5-0.6,1.2-0.9,2.1-0.9c0.4,0,0.7,0.1,1,0.2s0.6,0.4,0.7,0.6v-3.6h1.1v9.1L155.8,70.3L155.8,70.3z M155.8,68.4
		v-2.5c-0.2-0.3-0.4-0.6-0.7-0.7c-0.3-0.2-0.6-0.3-0.9-0.3c-0.6,0-1,0.2-1.4,0.6s-0.5,1-0.5,1.6c0,0.7,0.2,1.2,0.5,1.6
		s0.8,0.6,1.4,0.6c0.3,0,0.6-0.1,0.9-0.3C155.4,69,155.6,68.8,155.8,68.4z"/>
	<path class="st6" d="M162.6,68.4h1c-0.1,0.6-0.4,1.1-0.8,1.4s-1,0.5-1.7,0.5c-0.8,0-1.5-0.3-2.1-0.9s-0.8-1.4-0.8-2.3
		s0.3-1.7,0.8-2.3c0.5-0.6,1.2-0.9,2-0.9s1.5,0.3,1.9,0.8c0.5,0.6,0.7,1.3,0.7,2.2v0.4h-4.4c0,0.7,0.2,1.2,0.5,1.6s0.8,0.6,1.3,0.6
		c0.4,0,0.7-0.1,1-0.3S162.6,68.8,162.6,68.4z M161.1,64.8c-0.5,0-0.9,0.2-1.2,0.5s-0.5,0.7-0.6,1.3h3.3c0-0.5-0.1-0.9-0.4-1.2
		C162,65,161.6,64.8,161.1,64.8z"/>
</g>
<rect x="315.1" y="61.2" class="st5" width="172.6" height="107.7"/>
<g class="st3">
	<path class="st6" d="M335,69.2c-0.7-0.8-1.1-1.9-1.1-3.2c0-1.3,0.4-2.4,1.1-3.2s1.6-1.2,2.8-1.2c0.9,0,1.6,0.2,2.2,0.7
		s1,1.1,1.1,1.9H340c-0.4-1.1-1.1-1.7-2.3-1.7c-0.8,0-1.5,0.3-2,0.9S335,65,335,66s0.3,1.8,0.8,2.5s1.2,1,2,1c1.1,0,1.9-0.6,2.3-1.7
		h1.1c-0.2,0.8-0.6,1.5-1.1,1.9c-0.6,0.5-1.3,0.7-2.2,0.7C336.7,70.4,335.8,70,335,69.2z"/>
	<path class="st6" d="M347.1,64.8c0.5,0.6,0.8,1.4,0.8,2.3c0,1-0.3,1.7-0.8,2.3c-0.5,0.6-1.2,0.9-2.1,0.9s-1.5-0.3-2.1-0.9
		c-0.5-0.6-0.8-1.4-0.8-2.3c0-1,0.3-1.7,0.8-2.3c0.5-0.6,1.2-0.9,2.1-0.9S346.6,64.2,347.1,64.8z M346.3,68.9c0.3-0.4,0.5-1,0.5-1.7
		s-0.2-1.2-0.5-1.7c-0.3-0.4-0.8-0.6-1.3-0.6s-1,0.2-1.3,0.6s-0.5,1-0.5,1.7s0.2,1.2,0.5,1.7c0.3,0.4,0.8,0.6,1.3,0.6
		S346,69.3,346.3,68.9z"/>
	<path class="st6" d="M353.4,70.3v-0.7c-0.2,0.2-0.4,0.4-0.7,0.6s-0.7,0.2-1,0.2c-0.9,0-1.6-0.3-2.1-0.9s-0.7-1.4-0.7-2.3
		s0.2-1.7,0.7-2.3c0.5-0.6,1.2-0.9,2.1-0.9c0.4,0,0.7,0.1,1,0.2s0.6,0.4,0.7,0.6v-3.6h1.1v9.1L353.4,70.3L353.4,70.3z M353.4,68.4
		v-2.5c-0.2-0.3-0.4-0.6-0.7-0.7c-0.3-0.2-0.6-0.3-0.9-0.3c-0.6,0-1,0.2-1.4,0.6s-0.5,1-0.5,1.6c0,0.7,0.2,1.2,0.5,1.6
		s0.8,0.6,1.4,0.6c0.3,0,0.6-0.1,0.9-0.3C353,69,353.3,68.8,353.4,68.4z"/>
	<path class="st6" d="M360.3,68.4h1c-0.1,0.6-0.4,1.1-0.8,1.4s-1,0.5-1.7,0.5c-0.8,0-1.5-0.3-2.1-0.9s-0.8-1.4-0.8-2.3
		s0.3-1.7,0.8-2.3c0.5-0.6,1.2-0.9,2-0.9s1.5,0.3,1.9,0.8s0.7,1.3,0.7,2.2v0.4H357c0,0.7,0.2,1.2,0.5,1.6s0.8,0.6,1.3,0.6
		c0.4,0,0.7-0.1,1-0.3C360,69,360.2,68.8,360.3,68.4z M358.7,64.8c-0.5,0-0.9,0.2-1.2,0.5c-0.3,0.3-0.5,0.7-0.6,1.3h3.3
		c0-0.5-0.1-0.9-0.4-1.2C359.6,65,359.2,64.8,358.7,64.8z"/>
	<path class="st6" d="M370.4,70.3h-1v-0.5c-0.1,0.1-0.3,0.3-0.7,0.4c-0.3,0.1-0.6,0.2-1,0.2c-0.7,0-1.2-0.2-1.6-0.5
		c-0.4-0.4-0.7-0.8-0.7-1.4s0.2-1,0.7-1.4s1-0.5,1.7-0.5c0.3,0,0.6,0.1,0.9,0.2s0.5,0.2,0.7,0.3v-0.8c0-0.4-0.1-0.7-0.4-1
		c-0.2-0.2-0.6-0.4-1-0.4c-0.7,0-1.1,0.3-1.3,0.9h-1c0.1-0.5,0.4-0.9,0.8-1.3c0.4-0.3,0.9-0.5,1.5-0.5c0.7,0,1.3,0.2,1.7,0.6
		c0.4,0.4,0.6,0.9,0.6,1.6L370.4,70.3L370.4,70.3z M369.3,68.7v-0.6c-0.1-0.2-0.3-0.4-0.6-0.6c-0.3-0.1-0.6-0.2-0.9-0.2
		c-0.4,0-0.8,0.1-1,0.3s-0.4,0.5-0.4,0.8c0,0.4,0.1,0.6,0.4,0.8s0.6,0.3,1,0.3c0.3,0,0.6-0.1,0.9-0.2
		C369.1,69.2,369.3,69,369.3,68.7z"/>
	<path class="st6" d="M372.5,69.5c-0.5-0.6-0.8-1.4-0.8-2.3c0-1,0.3-1.7,0.8-2.3c0.5-0.6,1.2-0.9,2-0.9c0.7,0,1.2,0.2,1.7,0.5
		s0.7,0.8,0.8,1.5h-1.1c-0.1-0.3-0.2-0.6-0.5-0.8s-0.6-0.3-0.9-0.3c-0.5,0-1,0.2-1.3,0.6s-0.5,1-0.5,1.7s0.2,1.2,0.5,1.7
		c0.3,0.4,0.7,0.6,1.3,0.6c0.4,0,0.7-0.1,0.9-0.3s0.4-0.5,0.5-0.8h1.1c-0.1,0.6-0.4,1.1-0.8,1.5s-1,0.5-1.7,0.5
		C373.7,70.4,373,70.1,372.5,69.5z"/>
	<path class="st6" d="M378.7,69.5c-0.5-0.6-0.8-1.4-0.8-2.3c0-1,0.3-1.7,0.8-2.3c0.5-0.6,1.2-0.9,2-0.9c0.7,0,1.2,0.2,1.7,0.5
		s0.7,0.8,0.8,1.5h-1.1c-0.1-0.3-0.2-0.6-0.5-0.8s-0.6-0.3-0.9-0.3c-0.5,0-1,0.2-1.3,0.6s-0.5,1-0.5,1.7s0.2,1.2,0.5,1.7
		c0.3,0.4,0.7,0.6,1.3,0.6c0.4,0,0.7-0.1,0.9-0.3s0.4-0.5,0.5-0.8h1.1c-0.1,0.6-0.4,1.1-0.8,1.5s-1,0.5-1.7,0.5
		C379.9,70.4,379.2,70.1,378.7,69.5z"/>
	<path class="st6" d="M388.5,68.4h1c-0.1,0.6-0.4,1.1-0.8,1.4s-1,0.5-1.7,0.5c-0.8,0-1.5-0.3-2.1-0.9s-0.8-1.4-0.8-2.3
		s0.3-1.7,0.8-2.3c0.5-0.6,1.2-0.9,2-0.9s1.5,0.3,1.9,0.8s0.7,1.3,0.7,2.2v0.4h-4.4c0,0.7,0.2,1.2,0.5,1.6s0.8,0.6,1.3,0.6
		c0.4,0,0.7-0.1,1-0.3C388.2,69,388.4,68.8,388.5,68.4z M387,64.8c-0.5,0-0.9,0.2-1.2,0.5c-0.3,0.3-0.5,0.7-0.6,1.3h3.3
		c0-0.5-0.1-0.9-0.4-1.2C387.8,65,387.5,64.8,387,64.8z"/>
	<path class="st6" d="M392,69.6v3.1h-1v-8.6h1v0.7c0.2-0.2,0.4-0.4,0.7-0.6s0.7-0.2,1-0.2c0.9,0,1.6,0.3,2.1,0.9s0.7,1.4,0.7,2.3
		s-0.2,1.7-0.7,2.3c-0.5,0.6-1.2,0.9-2.1,0.9c-0.4,0-0.7-0.1-1-0.2S392.2,69.8,392,69.6z M392,65.9v2.5c0.2,0.3,0.4,0.6,0.7,0.7
		c0.3,0.2,0.6,0.3,0.9,0.3c0.6,0,1-0.2,1.4-0.6s0.5-1,0.5-1.6c0-0.7-0.2-1.2-0.5-1.6s-0.8-0.6-1.4-0.6c-0.3,0-0.6,0.1-0.9,0.3
		C392.4,65.4,392.2,65.6,392,65.9z"/>
	<path class="st6" d="M398.3,68.7V65h-1v-0.9h1v-1.6h1v1.6h1.5V65h-1.5v3.6c0,0.6,0.3,0.9,0.8,0.9c0.3,0,0.6-0.1,0.8-0.3v1
		c-0.3,0.1-0.6,0.2-1,0.2c-0.5,0-0.9-0.1-1.2-0.4C398.5,69.7,398.3,69.3,398.3,68.7z"/>
	<path class="st6" d="M406.3,68.4h1c-0.1,0.6-0.4,1.1-0.8,1.4s-1,0.5-1.7,0.5c-0.8,0-1.5-0.3-2.1-0.9s-0.8-1.4-0.8-2.3
		s0.3-1.7,0.8-2.3c0.5-0.6,1.2-0.9,2-0.9s1.5,0.3,1.9,0.8s0.7,1.3,0.7,2.2v0.4H403c0,0.7,0.2,1.2,0.5,1.6s0.8,0.6,1.3,0.6
		c0.4,0,0.7-0.1,1-0.3C406,69,406.2,68.8,406.3,68.4z M404.8,64.8c-0.5,0-0.9,0.2-1.2,0.5c-0.3,0.3-0.5,0.7-0.6,1.3h3.3
		c0-0.5-0.1-0.9-0.4-1.2C405.6,65,405.3,64.8,404.8,64.8z"/>
	<path class="st6" d="M412.9,70.3v-0.7c-0.2,0.2-0.4,0.4-0.7,0.6s-0.7,0.2-1,0.2c-0.9,0-1.6-0.3-2.1-0.9s-0.7-1.4-0.7-2.3
		s0.2-1.7,0.7-2.3c0.5-0.6,1.2-0.9,2.1-0.9c0.4,0,0.7,0.1,1,0.2s0.6,0.4,0.7,0.6v-3.6h1.1v9.1L412.9,70.3L412.9,70.3z M412.9,68.4
		v-2.5c-0.2-0.3-0.4-0.6-0.7-0.7c-0.3-0.2-0.6-0.3-0.9-0.3c-0.6,0-1,0.2-1.4,0.6s-0.5,1-0.5,1.6c0,0.7,0.2,1.2,0.5,1.6
		s0.8,0.6,1.4,0.6c0.3,0,0.6-0.1,0.9-0.3C412.5,69,412.7,68.8,412.9,68.4z"/>
	<path class="st6" d="M415.6,70.1c-0.1-0.1-0.2-0.3-0.2-0.5s0.1-0.4,0.2-0.5s0.3-0.2,0.5-0.2s0.4,0.1,0.5,0.2s0.2,0.3,0.2,0.5
		s-0.1,0.4-0.2,0.5s-0.3,0.2-0.5,0.2C415.9,70.4,415.7,70.3,415.6,70.1z"/>
	<path class="st6" d="M424,61.7h1l3.4,8.6h-1.1l-1-2.6h-3.5l-1,2.6h-1.1L424,61.7z M424.5,63.1l-1.4,3.7h2.8L424.5,63.1z"/>
	<path class="st6" d="M430.7,61.2v9.1h-1v-9.1C429.7,61.2,430.7,61.2,430.7,61.2z"/>
	<path class="st6" d="M433.6,61.7c0.1,0.1,0.2,0.3,0.2,0.5s-0.1,0.3-0.2,0.5c-0.1,0.1-0.3,0.2-0.5,0.2s-0.3-0.1-0.5-0.2
		s-0.2-0.3-0.2-0.5s0.1-0.3,0.2-0.5c0.1-0.1,0.3-0.2,0.5-0.2C433.3,61.5,433.4,61.6,433.6,61.7z M433.6,64.1v6.2h-1v-6.2H433.6z"/>
	<path class="st6" d="M435.8,69.5c-0.5-0.6-0.8-1.4-0.8-2.3c0-1,0.3-1.7,0.8-2.3c0.5-0.6,1.2-0.9,2-0.9c0.7,0,1.2,0.2,1.7,0.5
		c0.4,0.4,0.7,0.8,0.8,1.5h-1.1c-0.1-0.3-0.2-0.6-0.5-0.8c-0.2-0.2-0.6-0.3-0.9-0.3c-0.5,0-1,0.2-1.3,0.6s-0.5,1-0.5,1.7
		s0.2,1.2,0.5,1.7c0.3,0.4,0.7,0.6,1.3,0.6c0.4,0,0.7-0.1,0.9-0.3c0.2-0.2,0.4-0.5,0.5-0.8h1.1c-0.1,0.6-0.4,1.1-0.8,1.5
		s-1,0.5-1.7,0.5C437,70.4,436.4,70.1,435.8,69.5z"/>
	<path class="st6" d="M445.6,68.4h1c-0.1,0.6-0.4,1.1-0.8,1.4s-1,0.5-1.7,0.5c-0.8,0-1.5-0.3-2.1-0.9s-0.8-1.4-0.8-2.3
		s0.3-1.7,0.8-2.3c0.5-0.6,1.2-0.9,2-0.9s1.5,0.3,1.9,0.8s0.7,1.3,0.7,2.2v0.4h-4.4c0,0.7,0.2,1.2,0.5,1.6s0.8,0.6,1.3,0.6
		c0.4,0,0.7-0.1,1-0.3C445.4,69,445.6,68.8,445.6,68.4z M444.1,64.8c-0.5,0-0.9,0.2-1.2,0.5c-0.3,0.3-0.5,0.7-0.6,1.3h3.3
		c0-0.5-0.1-0.9-0.4-1.2C445,65,444.6,64.8,444.1,64.8z"/>
	<path class="st6" d="M451.2,70.3v-9.1h1v3.7c0.2-0.3,0.5-0.5,0.8-0.7s0.7-0.3,1.1-0.3c0.7,0,1.2,0.2,1.6,0.6s0.6,1,0.6,1.7v4.1
		h-1.1v-3.9c0-0.4-0.1-0.8-0.3-1.1c-0.2-0.3-0.6-0.4-1-0.4s-0.7,0.1-1,0.3s-0.5,0.5-0.6,0.8v4.2L451.2,70.3L451.2,70.3z"/>
	<path class="st6" d="M462.6,70.3h-1v-0.5c-0.1,0.1-0.3,0.3-0.7,0.4c-0.3,0.1-0.6,0.2-1,0.2c-0.7,0-1.2-0.2-1.6-0.5
		c-0.4-0.4-0.7-0.8-0.7-1.4s0.2-1,0.7-1.4s1-0.5,1.7-0.5c0.3,0,0.6,0.1,0.9,0.2s0.5,0.2,0.7,0.3v-0.8c0-0.4-0.1-0.7-0.4-1
		c-0.2-0.2-0.6-0.4-1-0.4c-0.7,0-1.1,0.3-1.3,0.9h-1c0.1-0.5,0.4-0.9,0.8-1.3c0.4-0.3,0.9-0.5,1.5-0.5c0.7,0,1.3,0.2,1.7,0.6
		c0.4,0.4,0.6,0.9,0.6,1.6L462.6,70.3L462.6,70.3z M461.6,68.7v-0.6c-0.1-0.2-0.3-0.4-0.6-0.6c-0.3-0.1-0.6-0.2-0.9-0.2
		c-0.4,0-0.8,0.1-1,0.3s-0.4,0.5-0.4,0.8c0,0.4,0.1,0.6,0.4,0.8s0.6,0.3,1,0.3c0.3,0,0.6-0.1,0.9-0.2
		C461.3,69.2,461.5,69,461.6,68.7z"/>
	<path class="st6" d="M463.8,68.6h1.1c0.2,0.6,0.7,1,1.5,1c0.4,0,0.7-0.1,0.9-0.2c0.2-0.2,0.3-0.4,0.3-0.7c0-0.4-0.3-0.7-0.9-0.9
		l-1.2-0.3c-1-0.3-1.5-0.8-1.5-1.6c0-0.5,0.2-1,0.6-1.3s1-0.5,1.6-0.5c0.7,0,1.2,0.2,1.6,0.5s0.7,0.7,0.8,1.3h-1
		c-0.2-0.6-0.6-0.9-1.4-0.9c-0.3,0-0.6,0.1-0.8,0.2c-0.2,0.2-0.4,0.4-0.4,0.7c0,0.2,0.1,0.4,0.2,0.5s0.4,0.2,0.7,0.3l1.2,0.3
		c1.1,0.3,1.6,0.9,1.6,1.7c0,0.6-0.2,1-0.6,1.4c-0.4,0.3-1,0.5-1.7,0.5s-1.3-0.2-1.7-0.5C464.2,69.6,463.9,69.1,463.8,68.6z"/>
</g>
<g class="st3">
	<path class="st6" d="M317.8,85.5v-3.8h-1v-0.9h1v-1.6h1v1.6h1.5v0.9h-1.5v3.6c0,0.6,0.3,0.9,0.8,0.9c0.3,0,0.6-0.1,0.8-0.3v1
		c-0.3,0.1-0.6,0.2-1,0.2c-0.5,0-0.9-0.1-1.2-0.4C317.9,86.5,317.8,86.1,317.8,85.5z"/>
	<path class="st6" d="M325.7,85.2h1c-0.1,0.6-0.4,1.1-0.8,1.4s-1,0.5-1.7,0.5c-0.8,0-1.5-0.3-2.1-0.9s-0.8-1.4-0.8-2.3
		s0.3-1.7,0.8-2.3c0.5-0.6,1.2-0.9,2-0.9s1.5,0.3,1.9,0.8s0.7,1.3,0.7,2.2v0.4h-4.4c0,0.7,0.2,1.2,0.5,1.6s0.8,0.6,1.3,0.6
		c0.4,0,0.7-0.1,1-0.3C325.5,85.8,325.7,85.6,325.7,85.2z M324.2,81.6c-0.5,0-0.9,0.2-1.2,0.5c-0.3,0.3-0.5,0.7-0.6,1.3h3.3
		c0-0.5-0.1-0.9-0.4-1.2C325.1,81.8,324.7,81.6,324.2,81.6z"/>
	<path class="st6" d="M332.6,81.7c0.5-0.7,1.1-1,1.9-1c0.6,0,1.1,0.2,1.4,0.6s0.5,0.9,0.5,1.6V87h-1.1v-3.9c0-0.4-0.1-0.8-0.3-1.1
		c-0.2-0.3-0.5-0.4-0.9-0.4c-0.3,0-0.6,0.1-0.9,0.3c-0.3,0.2-0.4,0.5-0.5,0.8V87h-1v-3.9c0-0.4-0.1-0.8-0.3-1.1s-0.5-0.4-0.9-0.4
		c-0.3,0-0.6,0.1-0.9,0.3c-0.3,0.2-0.4,0.5-0.5,0.8V87h-1v-6.2h1v0.7c0.4-0.6,0.9-0.9,1.7-0.9C331.7,80.7,332.3,81.1,332.6,81.7z"/>
	<path class="st6" d="M339.3,86.4v3.1h-1v-8.6h1v0.7c0.2-0.2,0.4-0.4,0.7-0.6c0.3-0.2,0.7-0.2,1-0.2c0.9,0,1.6,0.3,2.1,0.9
		s0.7,1.4,0.7,2.3s-0.2,1.7-0.7,2.3c-0.5,0.6-1.2,0.9-2.1,0.9c-0.4,0-0.7-0.1-1-0.2C339.7,86.8,339.5,86.6,339.3,86.4z M339.3,82.7
		v2.5c0.2,0.3,0.4,0.6,0.7,0.7c0.3,0.2,0.6,0.3,0.9,0.3c0.6,0,1-0.2,1.4-0.6s0.5-1,0.5-1.6c0-0.7-0.2-1.2-0.5-1.6s-0.8-0.6-1.4-0.6
		c-0.3,0-0.6,0.1-0.9,0.3C339.7,82.2,339.5,82.4,339.3,82.7z"/>
	<path class="st6" d="M349.8,81.6c0.5,0.6,0.8,1.4,0.8,2.3c0,1-0.3,1.7-0.8,2.3c-0.5,0.6-1.2,0.9-2.1,0.9s-1.5-0.3-2.1-0.9
		c-0.5-0.6-0.8-1.4-0.8-2.3c0-1,0.3-1.7,0.8-2.3c0.5-0.6,1.2-0.9,2.1-0.9S349.3,81,349.8,81.6z M349,85.7c0.3-0.4,0.5-1,0.5-1.7
		s-0.2-1.2-0.5-1.7c-0.3-0.4-0.8-0.6-1.3-0.6s-1,0.2-1.3,0.6s-0.5,1-0.5,1.7s0.2,1.2,0.5,1.7c0.3,0.4,0.8,0.6,1.3,0.6
		S348.7,86.1,349,85.7z"/>
	<path class="st6" d="M355.2,80.8v1.1c-0.2-0.1-0.4-0.2-0.7-0.2c-0.3,0-0.6,0.1-0.9,0.3c-0.3,0.2-0.4,0.5-0.5,0.9v4.2h-1v-6.2h1v0.8
		c0.1-0.3,0.3-0.5,0.6-0.7c0.3-0.2,0.6-0.3,0.9-0.3C354.9,80.7,355.1,80.8,355.2,80.8z"/>
	<path class="st6" d="M360.8,87.1h-1v-0.5c-0.1,0.1-0.4,0.3-0.7,0.4s-0.6,0.2-1,0.2c-0.7,0-1.2-0.2-1.6-0.5
		c-0.4-0.4-0.7-0.8-0.7-1.4s0.2-1,0.7-1.4s1-0.5,1.7-0.5c0.3,0,0.6,0.1,0.9,0.2s0.5,0.2,0.7,0.3V83c0-0.4-0.1-0.7-0.4-1
		c-0.2-0.2-0.6-0.4-1-0.4c-0.7,0-1.1,0.3-1.3,0.9h-1c0.1-0.5,0.4-0.9,0.8-1.3c0.4-0.3,0.9-0.5,1.5-0.5c0.7,0,1.3,0.2,1.7,0.6
		c0.4,0.4,0.6,0.9,0.6,1.6L360.8,87.1L360.8,87.1z M359.8,85.5v-0.6c-0.1-0.2-0.3-0.4-0.6-0.6c-0.3-0.1-0.6-0.2-0.9-0.2
		c-0.4,0-0.8,0.1-1,0.3c-0.3,0.2-0.4,0.5-0.4,0.8c0,0.4,0.1,0.6,0.4,0.8c0.3,0.2,0.6,0.3,1,0.3c0.3,0,0.6-0.1,0.9-0.2
		C359.6,86,359.7,85.8,359.8,85.5z"/>
	<path class="st6" d="M365.8,80.8v1.1c-0.2-0.1-0.4-0.2-0.7-0.2c-0.3,0-0.6,0.1-0.9,0.3c-0.3,0.2-0.4,0.5-0.5,0.9v4.2h-1v-6.2h1v0.8
		c0.1-0.3,0.3-0.5,0.6-0.7c0.3-0.2,0.6-0.3,0.9-0.3C365.5,80.7,365.7,80.8,365.8,80.8z"/>
	<path class="st6" d="M368.1,78.5c0.1,0.1,0.2,0.3,0.2,0.5s-0.1,0.3-0.2,0.5c-0.1,0.1-0.3,0.2-0.5,0.2s-0.3-0.1-0.5-0.2
		c-0.1-0.1-0.2-0.3-0.2-0.5s0.1-0.3,0.2-0.5c0.1-0.1,0.3-0.2,0.5-0.2S368,78.4,368.1,78.5z M368.2,80.9v6.2h-1v-6.2H368.2z"/>
	<path class="st6" d="M371.1,78v9.1h-1V78H371.1z"/>
	<path class="st6" d="M374.8,89.5h-1l0.9-2.3l-2.4-6.3h1.1l1.8,4.9l1.8-4.9h1.1L374.8,89.5z"/>
	<path class="st6" d="M381.9,85.4h1.1c0.2,0.6,0.7,1,1.5,1c0.4,0,0.7-0.1,0.9-0.2c0.2-0.2,0.3-0.4,0.3-0.7c0-0.4-0.3-0.7-0.9-0.9
		l-1.2-0.3c-1-0.3-1.5-0.8-1.5-1.6c0-0.5,0.2-1,0.6-1.3s1-0.5,1.6-0.5c0.7,0,1.2,0.2,1.6,0.5s0.7,0.7,0.8,1.3h-1
		c-0.2-0.6-0.6-0.9-1.4-0.9c-0.3,0-0.6,0.1-0.8,0.2c-0.2,0.2-0.4,0.4-0.4,0.7c0,0.2,0.1,0.4,0.2,0.5s0.4,0.2,0.7,0.3l1.2,0.3
		c1.1,0.3,1.6,0.9,1.6,1.7c0,0.6-0.2,1-0.6,1.4c-0.4,0.3-1,0.5-1.7,0.5s-1.3-0.2-1.7-0.5C382.3,86.4,382,85.9,381.9,85.4z"/>
	<path class="st6" d="M388.2,87.1V78h1v3.7c0.2-0.3,0.5-0.5,0.8-0.7s0.7-0.3,1.1-0.3c0.7,0,1.2,0.2,1.6,0.6s0.6,1,0.6,1.7v4.1h-1.1
		v-3.9c0-0.4-0.1-0.8-0.3-1.1c-0.2-0.3-0.6-0.4-1-0.4s-0.7,0.1-1,0.3c-0.3,0.2-0.5,0.5-0.6,0.8V87h-1.1V87.1z"/>
	<path class="st6" d="M399.6,87.1h-1v-0.5c-0.1,0.1-0.4,0.3-0.7,0.4s-0.6,0.2-1,0.2c-0.7,0-1.2-0.2-1.6-0.5
		c-0.4-0.4-0.7-0.8-0.7-1.4s0.2-1,0.7-1.4s1-0.5,1.7-0.5c0.3,0,0.6,0.1,0.9,0.2s0.5,0.2,0.7,0.3V83c0-0.4-0.1-0.7-0.4-1
		c-0.2-0.2-0.6-0.4-1-0.4c-0.7,0-1.1,0.3-1.3,0.9h-1c0.1-0.5,0.4-0.9,0.8-1.3c0.4-0.3,0.9-0.5,1.5-0.5c0.7,0,1.3,0.2,1.7,0.6
		c0.4,0.4,0.6,0.9,0.6,1.6L399.6,87.1L399.6,87.1z M398.6,85.5v-0.6c-0.1-0.2-0.3-0.4-0.6-0.6c-0.3-0.1-0.6-0.2-0.9-0.2
		c-0.4,0-0.8,0.1-1,0.3c-0.3,0.2-0.4,0.5-0.4,0.8c0,0.4,0.1,0.6,0.4,0.8c0.3,0.2,0.6,0.3,1,0.3c0.3,0,0.6-0.1,0.9-0.2
		C398.3,86,398.5,85.8,398.6,85.5z"/>
	<path class="st6" d="M404.6,80.8v1.1c-0.2-0.1-0.4-0.2-0.7-0.2c-0.3,0-0.6,0.1-0.9,0.3c-0.3,0.2-0.4,0.5-0.5,0.9v4.2h-1v-6.2h1v0.8
		c0.1-0.3,0.3-0.5,0.6-0.7c0.3-0.2,0.6-0.3,0.9-0.3C404.3,80.7,404.5,80.8,404.6,80.8z"/>
	<path class="st6" d="M409.6,85.2h1c-0.1,0.6-0.4,1.1-0.8,1.4s-1,0.5-1.7,0.5c-0.8,0-1.5-0.3-2.1-0.9s-0.8-1.4-0.8-2.3
		s0.3-1.7,0.8-2.3c0.5-0.6,1.2-0.9,2-0.9s1.5,0.3,1.9,0.8s0.7,1.3,0.7,2.2v0.4h-4.4c0,0.7,0.2,1.2,0.5,1.6s0.8,0.6,1.3,0.6
		c0.4,0,0.7-0.1,1-0.3C409.4,85.8,409.5,85.6,409.6,85.2z M408.1,81.6c-0.5,0-0.9,0.2-1.2,0.5c-0.3,0.3-0.5,0.7-0.6,1.3h3.3
		c0-0.5-0.1-0.9-0.4-1.2C409,81.8,408.6,81.6,408.1,81.6z"/>
	<path class="st6" d="M416.2,87.1v-0.7c-0.2,0.2-0.4,0.4-0.7,0.6s-0.7,0.2-1,0.2c-0.9,0-1.6-0.3-2.1-0.9s-0.7-1.4-0.7-2.3
		s0.2-1.7,0.7-2.3c0.5-0.6,1.2-0.9,2.1-0.9c0.4,0,0.7,0.1,1,0.2s0.6,0.4,0.7,0.6V78h1.1v9.1H416.2z M416.2,85.2v-2.5
		c-0.2-0.3-0.4-0.6-0.7-0.7c-0.3-0.2-0.6-0.3-0.9-0.3c-0.6,0-1,0.2-1.4,0.6s-0.5,1-0.5,1.6c0,0.7,0.2,1.2,0.5,1.6s0.8,0.6,1.4,0.6
		c0.3,0,0.6-0.1,0.9-0.3C415.8,85.8,416.1,85.6,416.2,85.2z"/>
	<path class="st6" d="M422.2,87.1V78h1v3.7c0.2-0.3,0.5-0.5,0.8-0.7s0.7-0.3,1.1-0.3c0.7,0,1.2,0.2,1.6,0.6s0.6,1,0.6,1.7v4.1h-1.1
		v-3.9c0-0.4-0.1-0.8-0.3-1.1c-0.2-0.3-0.6-0.4-1-0.4s-0.7,0.1-1,0.3c-0.3,0.2-0.5,0.5-0.6,0.8V87h-1.1V87.1z"/>
	<path class="st6" d="M433,85.2h1c-0.1,0.6-0.4,1.1-0.8,1.4s-1,0.5-1.7,0.5c-0.8,0-1.5-0.3-2.1-0.9s-0.8-1.4-0.8-2.3
		s0.3-1.7,0.8-2.3c0.5-0.6,1.2-0.9,2-0.9s1.5,0.3,1.9,0.8s0.7,1.3,0.7,2.2v0.4h-4.4c0,0.7,0.2,1.2,0.5,1.6s0.8,0.6,1.3,0.6
		c0.4,0,0.7-0.1,1-0.3C432.8,85.8,432.9,85.6,433,85.2z M431.5,81.6c-0.5,0-0.9,0.2-1.2,0.5c-0.3,0.3-0.5,0.7-0.6,1.3h3.3
		c0-0.5-0.1-0.9-0.4-1.2C432.4,81.8,432,81.6,431.5,81.6z"/>
	<path class="st6" d="M438.7,80.8v1.1c-0.2-0.1-0.4-0.2-0.7-0.2c-0.3,0-0.6,0.1-0.9,0.3c-0.3,0.2-0.4,0.5-0.5,0.9v4.2h-1v-6.2h1v0.8
		c0.1-0.3,0.3-0.5,0.6-0.7c0.3-0.2,0.6-0.3,0.9-0.3C438.4,80.7,438.6,80.8,438.7,80.8z"/>
	<path class="st6" d="M447.6,87.1h-1v-0.5c-0.1,0.1-0.3,0.3-0.7,0.4c-0.3,0.1-0.6,0.2-1,0.2c-0.7,0-1.2-0.2-1.6-0.5
		c-0.4-0.4-0.7-0.8-0.7-1.4s0.2-1,0.7-1.4s1-0.5,1.7-0.5c0.3,0,0.6,0.1,0.9,0.2s0.5,0.2,0.7,0.3V83c0-0.4-0.1-0.7-0.4-1
		c-0.2-0.2-0.6-0.4-1-0.4c-0.7,0-1.1,0.3-1.3,0.9h-1c0.1-0.5,0.4-0.9,0.8-1.3c0.4-0.3,0.9-0.5,1.5-0.5c0.7,0,1.3,0.2,1.7,0.6
		c0.4,0.4,0.6,0.9,0.6,1.6L447.6,87.1L447.6,87.1z M446.6,85.5v-0.6c-0.1-0.2-0.3-0.4-0.6-0.6c-0.3-0.1-0.6-0.2-0.9-0.2
		c-0.4,0-0.8,0.1-1,0.3s-0.4,0.5-0.4,0.8c0,0.4,0.1,0.6,0.4,0.8s0.6,0.3,1,0.3c0.3,0,0.6-0.1,0.9-0.2
		C446.3,86,446.5,85.8,446.6,85.5z"/>
	<path class="st6" d="M449.7,86.3c-0.5-0.6-0.8-1.4-0.8-2.3c0-1,0.3-1.7,0.8-2.3c0.5-0.6,1.2-0.9,2-0.9c0.7,0,1.2,0.2,1.7,0.5
		c0.4,0.4,0.7,0.8,0.8,1.5h-1.1c-0.1-0.3-0.2-0.6-0.5-0.8c-0.2-0.2-0.6-0.3-0.9-0.3c-0.5,0-1,0.2-1.3,0.6s-0.5,1-0.5,1.7
		s0.2,1.2,0.5,1.7c0.3,0.4,0.7,0.6,1.3,0.6c0.4,0,0.7-0.1,0.9-0.3c0.2-0.2,0.4-0.5,0.5-0.8h1.1c-0.1,0.6-0.4,1.1-0.8,1.5
		s-1,0.5-1.7,0.5C450.9,87.2,450.2,86.9,449.7,86.3z"/>
	<path class="st6" d="M455.9,86.3c-0.5-0.6-0.8-1.4-0.8-2.3c0-1,0.3-1.7,0.8-2.3c0.5-0.6,1.2-0.9,2-0.9c0.7,0,1.2,0.2,1.7,0.5
		s0.7,0.8,0.8,1.5h-1.1c-0.1-0.3-0.2-0.6-0.5-0.8s-0.6-0.3-0.9-0.3c-0.5,0-1,0.2-1.3,0.6s-0.5,1-0.5,1.7s0.2,1.2,0.5,1.7
		c0.3,0.4,0.7,0.6,1.3,0.6c0.4,0,0.7-0.1,0.9-0.3s0.4-0.5,0.5-0.8h1.1c-0.1,0.6-0.4,1.1-0.8,1.5s-1,0.5-1.7,0.5
		C457.1,87.2,456.5,86.9,455.9,86.3z"/>
	<path class="st6" d="M466.3,81.6c0.5,0.6,0.8,1.4,0.8,2.3c0,1-0.3,1.7-0.8,2.3c-0.5,0.6-1.2,0.9-2.1,0.9c-0.8,0-1.5-0.3-2.1-0.9
		c-0.5-0.6-0.8-1.4-0.8-2.3c0-1,0.3-1.7,0.8-2.3c0.5-0.6,1.2-0.9,2.1-0.9C465.1,80.7,465.8,81,466.3,81.6z M465.5,85.7
		c0.3-0.4,0.5-1,0.5-1.7s-0.2-1.2-0.5-1.7s-0.8-0.6-1.3-0.6c-0.6,0-1,0.2-1.3,0.6s-0.5,1-0.5,1.7s0.2,1.2,0.5,1.7s0.8,0.6,1.3,0.6
		C464.8,86.3,465.2,86.1,465.5,85.7z"/>
	<path class="st6" d="M473.5,80.9v6.2h-1.1v-0.8c-0.2,0.3-0.4,0.5-0.8,0.7c-0.3,0.2-0.7,0.3-1.1,0.3c-0.7,0-1.2-0.2-1.6-0.6
		s-0.6-1-0.6-1.7v-4.1h1.1v3.9c0,0.5,0.1,0.8,0.3,1.1c0.2,0.3,0.6,0.4,1,0.4s0.7-0.1,1-0.3c0.3-0.2,0.5-0.5,0.6-0.8V81L473.5,80.9
		L473.5,80.9z"/>
	<path class="st6" d="M475.3,87.1v-6.2h1v0.8c0.2-0.3,0.5-0.5,0.8-0.7s0.7-0.3,1.1-0.3c0.7,0,1.2,0.2,1.6,0.6s0.6,1,0.6,1.7v4.1
		h-1.1v-3.9c0-0.4-0.1-0.8-0.3-1.1c-0.2-0.3-0.6-0.4-1-0.4s-0.7,0.1-1,0.3c-0.3,0.2-0.5,0.5-0.6,0.8V87L475.3,87.1L475.3,87.1z"/>
	<path class="st6" d="M482.5,85.5v-3.8h-1v-0.9h1v-1.6h1.1v1.6h1.5v0.9h-1.5v3.6c0,0.6,0.3,0.9,0.8,0.9c0.3,0,0.6-0.1,0.8-0.3v1
		c-0.3,0.1-0.6,0.2-1,0.2c-0.5,0-0.9-0.1-1.2-0.4C482.6,86.5,482.5,86.1,482.5,85.5z"/>
</g>
<g class="st3">
	<path class="st6" d="M362.8,103.9v-0.7c-0.2,0.2-0.4,0.4-0.7,0.6c-0.3,0.2-0.7,0.2-1,0.2c-0.9,0-1.6-0.3-2.1-0.9s-0.7-1.4-0.7-2.3
		s0.2-1.7,0.7-2.3c0.5-0.6,1.2-0.9,2.1-0.9c0.4,0,0.7,0.1,1,0.2c0.3,0.2,0.6,0.4,0.7,0.6v-3.6h1.1v9.1L362.8,103.9L362.8,103.9z
		 M362.8,102v-2.5c-0.2-0.3-0.4-0.6-0.7-0.7c-0.3-0.2-0.6-0.3-0.9-0.3c-0.6,0-1,0.2-1.4,0.6c-0.3,0.4-0.5,1-0.5,1.6
		c0,0.7,0.2,1.2,0.5,1.6s0.8,0.6,1.4,0.6c0.3,0,0.6-0.1,0.9-0.3C362.4,102.6,362.6,102.4,362.8,102z"/>
	<path class="st6" d="M369.6,102h1c-0.1,0.6-0.4,1.1-0.8,1.4s-1,0.5-1.7,0.5c-0.8,0-1.5-0.3-2.1-0.9s-0.8-1.4-0.8-2.3
		s0.3-1.7,0.8-2.3s1.2-0.9,2-0.9s1.5,0.3,1.9,0.8s0.7,1.3,0.7,2.2v0.4h-4.4c0,0.7,0.2,1.2,0.5,1.6s0.8,0.6,1.3,0.6
		c0.4,0,0.7-0.1,1-0.3C369.3,102.6,369.5,102.4,369.6,102z M368.1,98.4c-0.5,0-0.9,0.2-1.2,0.5c-0.3,0.3-0.5,0.7-0.6,1.3h3.3
		c0-0.5-0.1-0.9-0.4-1.2C369,98.6,368.6,98.4,368.1,98.4z"/>
	<path class="st6" d="M372.4,102.3v-3.8h-1v-0.9h1V96h1v1.6h1.5v0.9h-1.5v3.6c0,0.6,0.3,0.9,0.8,0.9c0.3,0,0.6-0.1,0.8-0.3v1
		c-0.3,0.1-0.6,0.2-1,0.2c-0.5,0-0.9-0.1-1.2-0.4C372.5,103.3,372.4,102.9,372.4,102.3z"/>
	<path class="st6" d="M380.9,103.9h-1v-0.5c-0.1,0.1-0.3,0.3-0.7,0.4c-0.3,0.1-0.6,0.2-1,0.2c-0.7,0-1.2-0.2-1.6-0.5
		c-0.4-0.4-0.7-0.8-0.7-1.4s0.2-1,0.7-1.4s1-0.5,1.7-0.5c0.3,0,0.6,0.1,0.9,0.2s0.5,0.2,0.7,0.3v-0.8c0-0.4-0.1-0.7-0.4-1
		c-0.2-0.2-0.6-0.4-1-0.4c-0.7,0-1.1,0.3-1.3,0.9h-1c0.1-0.5,0.4-0.9,0.8-1.3c0.4-0.3,0.9-0.5,1.5-0.5c0.7,0,1.3,0.2,1.7,0.6
		c0.4,0.4,0.6,0.9,0.6,1.6L380.9,103.9L380.9,103.9z M379.9,102.3v-0.6c-0.1-0.2-0.3-0.4-0.6-0.6c-0.3-0.1-0.6-0.2-0.9-0.2
		c-0.4,0-0.8,0.1-1.1,0.3s-0.4,0.5-0.4,0.8c0,0.4,0.1,0.6,0.4,0.8s0.6,0.3,1.1,0.3c0.3,0,0.6-0.1,0.9-0.2
		C379.6,102.8,379.8,102.6,379.9,102.3z"/>
	<path class="st6" d="M383.7,95.3c0.1,0.1,0.2,0.3,0.2,0.5s-0.1,0.3-0.2,0.5s-0.3,0.2-0.5,0.2s-0.3-0.1-0.5-0.2
		c-0.1-0.1-0.2-0.3-0.2-0.5s0.1-0.3,0.2-0.5c0.1-0.1,0.3-0.2,0.5-0.2C383.4,95.1,383.6,95.2,383.7,95.3z M383.8,97.7v6.2h-1v-6.2
		H383.8z"/>
	<path class="st6" d="M386.7,94.8v9.1h-1v-9.1H386.7z"/>
	<path class="st6" d="M388.1,102.2h1.1c0.2,0.6,0.7,1,1.5,1c0.4,0,0.7-0.1,0.9-0.2c0.2-0.2,0.4-0.4,0.4-0.7c0-0.4-0.3-0.7-0.9-0.9
		l-1.2-0.3c-1-0.3-1.5-0.8-1.5-1.6c0-0.5,0.2-1,0.6-1.3s1-0.5,1.6-0.5c0.7,0,1.2,0.2,1.6,0.5s0.7,0.7,0.8,1.3h-1
		c-0.2-0.6-0.6-0.9-1.4-0.9c-0.3,0-0.6,0.1-0.8,0.2c-0.2,0.2-0.4,0.4-0.4,0.7c0,0.2,0.1,0.4,0.2,0.5s0.4,0.2,0.7,0.3l1.2,0.3
		c1.1,0.3,1.6,0.9,1.6,1.7c0,0.6-0.2,1-0.6,1.4c-0.4,0.3-1,0.5-1.7,0.5s-1.3-0.2-1.7-0.5C388.4,103.2,388.2,102.7,388.1,102.2z"/>
	<path class="st6" d="M401.4,97.7l1.3,4.7l1.4-4.7h1l-1.8,6.2h-1l-1.3-4.7l-1.3,4.7h-1l-1.8-6.2h1l1.4,4.7l1.3-4.7H401.4z"/>
	<path class="st6" d="M407.3,95.3c0.1,0.1,0.2,0.3,0.2,0.5s-0.1,0.3-0.2,0.5c-0.1,0.1-0.3,0.2-0.5,0.2s-0.3-0.1-0.5-0.2
		c-0.1-0.1-0.2-0.3-0.2-0.5s0.1-0.3,0.2-0.5c0.1-0.1,0.3-0.2,0.5-0.2S407.1,95.2,407.3,95.3z M407.3,97.7v6.2h-1.1v-6.2H407.3z"/>
	<path class="st6" d="M409.5,102.3v-3.8h-1v-0.9h1V96h1.1v1.6h1.5v0.9h-1.5v3.6c0,0.6,0.3,0.9,0.8,0.9c0.3,0,0.6-0.1,0.8-0.3v1
		c-0.3,0.1-0.6,0.2-1,0.2c-0.5,0-0.9-0.1-1.2-0.4C409.6,103.3,409.5,102.9,409.5,102.3z"/>
	<path class="st6" d="M413.6,103.9v-9.1h1v3.7c0.2-0.3,0.5-0.5,0.8-0.7s0.7-0.3,1.1-0.3c0.7,0,1.2,0.2,1.6,0.6s0.6,1,0.6,1.7v4.1
		h-1.1V100c0-0.4-0.1-0.8-0.3-1.1c-0.2-0.3-0.6-0.4-1-0.4s-0.7,0.1-1,0.3c-0.3,0.2-0.5,0.5-0.6,0.8v4.2L413.6,103.9L413.6,103.9z"/>
	<path class="st6" d="M425.4,106.3h-1l0.9-2.3l-2.4-6.3h1.1l1.8,4.9l1.8-4.9h1.1L425.4,106.3z"/>
	<path class="st6" d="M434.3,98.4c0.5,0.6,0.8,1.4,0.8,2.3c0,1-0.3,1.7-0.8,2.3c-0.5,0.6-1.2,0.9-2.1,0.9c-0.8,0-1.5-0.3-2.1-0.9
		c-0.5-0.6-0.8-1.4-0.8-2.3c0-1,0.3-1.7,0.8-2.3c0.5-0.6,1.2-0.9,2.1-0.9C433.1,97.5,433.8,97.8,434.3,98.4z M433.6,102.5
		c0.3-0.4,0.5-1,0.5-1.7s-0.2-1.2-0.5-1.7s-0.8-0.6-1.3-0.6c-0.6,0-1,0.2-1.3,0.6s-0.5,1-0.5,1.7s0.2,1.2,0.5,1.7
		c0.3,0.4,0.8,0.6,1.3,0.6C432.8,103.1,433.2,102.9,433.6,102.5z"/>
	<path class="st6" d="M441.5,97.7v6.2h-1.1v-0.8c-0.2,0.3-0.4,0.5-0.8,0.7c-0.3,0.2-0.7,0.3-1.1,0.3c-0.7,0-1.2-0.2-1.6-0.6
		s-0.6-1-0.6-1.7v-4.1h1.1v3.9c0,0.5,0.1,0.8,0.3,1.1c0.2,0.3,0.6,0.4,1,0.4s0.7-0.1,1-0.3s0.5-0.5,0.6-0.8v-4.2L441.5,97.7
		L441.5,97.7z"/>
	<path class="st6" d="M443.1,103.7c-0.1-0.1-0.2-0.3-0.2-0.5s0.1-0.4,0.2-0.5s0.3-0.2,0.5-0.2s0.4,0.1,0.5,0.2s0.2,0.3,0.2,0.5
		s-0.1,0.4-0.2,0.5s-0.3,0.2-0.5,0.2C443.4,104,443.2,103.9,443.1,103.7z"/>
</g>
<rect x="37.6" y="92" class="st5" width="159.8" height="94"/>
<g class="st3">
	<path class="st4" d="M76.4,100.9v-1.6h1c0.8,0,1.5-0.2,2-0.7s0.8-1,0.8-1.8c0-0.7-0.2-1.3-0.7-1.8s-1.1-0.7-2-0.7
		c-0.8,0-1.5,0.2-2,0.7s-0.8,1.1-0.9,1.9h-1.8c0.2-1.3,0.7-2.3,1.6-3.1c0.9-0.8,1.9-1.2,3.2-1.2c1.4,0,2.5,0.4,3.3,1.1
		s1.2,1.7,1.2,2.9c0,0.8-0.2,1.5-0.6,2.1s-1,1-1.7,1.2c0.8,0.2,1.4,0.6,1.9,1.3c0.5,0.6,0.7,1.3,0.7,2.2c0,1.2-0.4,2.3-1.3,3.1
		s-2,1.2-3.4,1.2s-2.6-0.4-3.5-1.2c-0.9-0.8-1.4-1.9-1.6-3.2h1.8c0.1,0.9,0.5,1.5,1,2c0.6,0.5,1.3,0.7,2.2,0.7
		c0.9,0,1.6-0.2,2.1-0.7s0.8-1.1,0.8-2c0-0.8-0.3-1.4-0.9-1.9s-1.3-0.7-2.1-0.7h-1.1V100.9z"/>
	<path class="st4" d="M91.2,96.8c0-0.8-0.2-1.4-0.7-1.8s-1.1-0.7-1.9-0.7c-0.9,0-1.5,0.3-2,0.8s-0.8,1.3-0.9,2.1h-1.9
		c0.1-1.4,0.6-2.5,1.5-3.4c0.9-0.8,2-1.3,3.3-1.3c1.4,0,2.5,0.4,3.3,1.1c0.8,0.8,1.2,1.8,1.2,3c0,0.2,0,0.5-0.1,0.7
		s-0.1,0.4-0.2,0.6s-0.2,0.4-0.3,0.7c-0.2,0.3-0.3,0.5-0.3,0.6c-0.1,0.1-0.2,0.3-0.5,0.6c-0.2,0.3-0.4,0.5-0.5,0.6s-0.3,0.3-0.6,0.6
		c-0.3,0.3-0.5,0.5-0.5,0.6l-3.7,4.1h7v1.7h-9.6v-1.2l4.8-5.2c0.7-0.8,1.2-1.3,1.5-1.6c0.3-0.3,0.5-0.7,0.8-1.2
		C91,97.7,91.2,97.3,91.2,96.8z"/>
	<path class="st4" d="M100.1,92.8v14.8h-1.8V95.1L94.6,97v-1.9l4.4-2.2L100.1,92.8L100.1,92.8z"/>
	<path class="st4" d="M112.8,96.3h-1.9c-0.4-1.4-1.4-2.1-2.7-2.1c-1.1,0-2,0.5-2.7,1.6s-1.1,2.4-1.1,4c0,0,0,0.2,0,0.3
		c0,0.2,0,0.3,0,0.3c0.2-0.8,0.7-1.4,1.4-1.8c0.7-0.5,1.5-0.7,2.3-0.7c1.4,0,2.5,0.5,3.4,1.4c0.9,1,1.3,2.1,1.3,3.5
		s-0.5,2.6-1.4,3.5s-2.1,1.4-3.6,1.4c-2,0-3.5-0.9-4.4-2.8c-0.6-1.2-0.9-2.7-0.9-4.5c0-2.4,0.5-4.3,1.5-5.7s2.3-2.1,3.9-2.1
		C110.6,92.7,112.2,93.9,112.8,96.3z M104.9,102.9c0,1,0.3,1.8,0.9,2.4s1.4,0.9,2.3,0.9s1.7-0.3,2.3-0.9c0.6-0.6,0.9-1.4,0.9-2.4
		s-0.3-1.8-0.9-2.4s-1.4-0.9-2.3-0.9s-1.7,0.3-2.3,0.9S104.9,101.9,104.9,102.9z"/>
	<path class="st4" d="M119.6,99.7c-1,0-1.9,0.4-2.6,1.3h-1.5v-8.1h8.1v1.7h-6.5V99c0.7-0.6,1.6-0.9,2.7-0.9c1.4,0,2.5,0.5,3.3,1.4
		c0.9,0.9,1.3,2.1,1.3,3.5s-0.4,2.6-1.3,3.5s-2,1.4-3.4,1.4s-2.6-0.4-3.5-1.2s-1.4-1.9-1.6-3.2h1.8c0.3,1.9,1.4,2.8,3.2,2.8
		c0.9,0,1.6-0.3,2.2-0.9s0.8-1.4,0.8-2.3s-0.3-1.7-0.8-2.3C121.2,100,120.5,99.7,119.6,99.7z"/>
	<path class="st4" d="M133.5,104.4h1.7c-0.2,1-0.7,1.9-1.4,2.5c-0.8,0.6-1.7,0.9-2.9,0.9c-1.5,0-2.6-0.5-3.5-1.5
		c-0.9-1-1.4-2.3-1.4-4c0-1.6,0.4-2.9,1.3-4c0.9-1,2.1-1.6,3.5-1.6c1.4,0,2.5,0.5,3.3,1.4c0.8,1,1.2,2.2,1.2,3.8v0.6h-7.5
		c0,1.1,0.3,2,0.9,2.7c0.6,0.7,1.3,1,2.2,1c0.7,0,1.2-0.2,1.7-0.5C133,105.5,133.3,105,133.5,104.4z M130.9,98.3
		c-0.8,0-1.5,0.3-2,0.8s-0.9,1.3-1,2.2h5.7c0-0.8-0.2-1.6-0.7-2.1C132.4,98.6,131.7,98.3,130.9,98.3z"/>
	<path class="st4" d="M141.8,99.7c-1,0-1.9,0.4-2.6,1.3h-1.5v-8.1h8.1v1.7h-6.5V99c0.7-0.6,1.6-0.9,2.7-0.9c1.4,0,2.5,0.5,3.3,1.4
		c0.9,0.9,1.3,2.1,1.3,3.5s-0.4,2.6-1.3,3.5c-0.9,0.9-2,1.4-3.4,1.4s-2.6-0.4-3.5-1.2s-1.4-1.9-1.6-3.2h1.8c0.3,1.9,1.4,2.8,3.2,2.8
		c0.9,0,1.6-0.3,2.2-0.9c0.6-0.6,0.8-1.4,0.8-2.3s-0.3-1.7-0.8-2.3C143.4,100,142.7,99.7,141.8,99.7z"/>
	<path class="st4" d="M148.9,107.4c-0.2-0.2-0.4-0.6-0.4-0.9s0.1-0.7,0.4-0.9c0.2-0.3,0.5-0.4,0.9-0.4s0.7,0.1,0.9,0.4
		s0.4,0.6,0.4,0.9s-0.1,0.7-0.4,0.9c-0.2,0.2-0.6,0.4-0.9,0.4C149.5,107.7,149.2,107.6,148.9,107.4z M149.2,103l-0.4-10.1h2.1
		l-0.4,10.1H149.2z"/>
	<path class="st4" d="M161.6,107.6h-1.7v-0.8c-0.2,0.2-0.6,0.5-1.1,0.7s-1.1,0.3-1.7,0.3c-1.1,0-2.1-0.3-2.8-0.9
		c-0.8-0.6-1.1-1.4-1.1-2.5c0-1,0.4-1.8,1.2-2.4s1.8-0.9,2.9-0.9c0.5,0,1,0.1,1.6,0.3c0.5,0.2,0.9,0.4,1.1,0.6v-1.3
		c0-0.7-0.2-1.2-0.6-1.7c-0.4-0.4-1-0.6-1.7-0.6c-1.1,0-1.8,0.5-2.2,1.5h-1.8c0.2-0.9,0.6-1.6,1.4-2.2c0.7-0.6,1.6-0.8,2.6-0.8
		c1.3,0,2.3,0.3,3,1s1.1,1.6,1.1,2.8v6.9H161.6z M159.9,105v-1.1c-0.2-0.4-0.5-0.7-0.9-0.9c-0.5-0.2-1-0.4-1.5-0.4
		c-0.7,0-1.3,0.2-1.8,0.5s-0.7,0.8-0.7,1.4s0.2,1.1,0.7,1.4s1.1,0.5,1.8,0.5c0.6,0,1.1-0.1,1.5-0.4S159.7,105.4,159.9,105z"/>
</g>
<circle class="st1" cx="305" cy="14.8" r="3.4"/>
<line class="st2" x1="292.8" y1="24.8" x2="514.8" y2="24.8"/>
<circle class="st1" cx="317.5" cy="14.8" r="3.4"/>
<circle class="st1" cx="329.2" cy="14.8" r="3.4"/>
<rect x="5.5" y="202.1" class="st5" width="15.7" height="12.3"/>
<g class="st3">
	<path d="M8.6,202.5v7.4h-1v-6.2l-1.8,0.9v-1l2.2-1.1L8.6,202.5L8.6,202.5z"/>
	<path d="M10,209.8c-0.1-0.1-0.2-0.3-0.2-0.5s0.1-0.3,0.2-0.5s0.3-0.2,0.5-0.2s0.3,0.1,0.4,0.2s0.2,0.3,0.2,0.5s-0.1,0.3-0.2,0.5
		s-0.3,0.2-0.4,0.2C10.3,210,10.2,209.9,10,209.8z"/>
</g>
<rect x="292.3" y="262.4" class="st5" width="15.7" height="12.3"/>
<g class="st3">
	<path d="M296.3,264.8c0-0.4-0.1-0.7-0.4-0.9c-0.2-0.2-0.6-0.3-1-0.3s-0.8,0.1-1,0.4s-0.4,0.6-0.4,1.1h-1c0.1-0.7,0.3-1.3,0.8-1.7
		c0.4-0.4,1-0.6,1.7-0.6s1.2,0.2,1.6,0.6s0.6,0.9,0.6,1.5c0,0.1,0,0.2,0,0.3c0,0.1-0.1,0.2-0.1,0.3c0,0.1-0.1,0.2-0.2,0.3
		c-0.1,0.1-0.1,0.2-0.2,0.3c0,0.1-0.1,0.2-0.2,0.3c-0.1,0.1-0.2,0.2-0.2,0.3c0,0-0.1,0.2-0.3,0.3s-0.2,0.3-0.3,0.3l-1.9,2.1h3.5v0.8
		h-4.8v-0.6l2.4-2.6c0.4-0.4,0.6-0.7,0.7-0.8c0.1-0.1,0.3-0.3,0.4-0.6S296.3,265,296.3,264.8z"/>
	<path d="M298.5,270.1c-0.1-0.1-0.2-0.3-0.2-0.5s0.1-0.3,0.2-0.5s0.3-0.2,0.5-0.2s0.3,0.1,0.4,0.2s0.2,0.3,0.2,0.5s-0.1,0.3-0.2,0.5
		s-0.3,0.2-0.4,0.2C298.8,270.2,298.7,270.2,298.5,270.1z"/>
</g>
<g>
	<g>
		<path class="st7" d="M218.7,223.3c0.8,11.6,17.2,31.2,39.7,28.5"/>
		<g>
			<polygon points="257.4,254.1 264.9,250.4 256.5,249.8 			"/>
		</g>
	</g>
</g>
<rect x="6" y="3.6" class="st8" width="222.3" height="191.7"/>
<polyline class="st8" points="6,195.2 6,3.6 228.4,3.6 "/>
<polyline class="st9" points="6,194.2 227.4,194.2 227.4,3.6 "/>
<polyline class="st9" points="292.3,254.7 514.6,254.7 514.6,3.6 "/>
<rect x="292.8" y="3.6" class="st8" width="222.3" height="251.4"/>
</svg>
