<?xml version="1.0" encoding="utf-8"?>
<!-- Generator: Adobe Illustrator 19.1.0, SVG Export Plug-In . SVG Version: 6.00 Build 0)  -->
<svg version="1.1" id="Layer_1" xmlns="http://www.w3.org/2000/svg" xmlns:xlink="http://www.w3.org/1999/xlink" x="0px" y="0px"
	 viewBox="0 0 520.9 280.4" style="enable-background:new 0 0 520.9 280.4;" xml:space="preserve">
<style type="text/css">
	.st0{fill:#FFFFFF;}
	.st1{fill:none;stroke:#1D1D1B;stroke-width:2;stroke-miterlimit:10;}
	.st2{fill:#FFFFFF;stroke:#1D1D1B;stroke-miterlimit:10;}
	.st3{fill:none;stroke:#1D1D1B;stroke-width:1.2919;stroke-miterlimit:10;}
	.st4{fill:#3A50A2;}
	.st5{fill:none;}
	.st6{fill:#1D1D1B;}
	.st7{fill:#000101;stroke:#000101;stroke-width:0.8322;stroke-miterlimit:10;}
	.st8{fill:#010101;}
	.st9{fill:none;stroke:#010101;stroke-width:0.75;stroke-miterlimit:10;}
</style>
<g>
	
		<image style="overflow:visible;opacity:0.49;" width="978" height="847" xlink:href="F3D5F70D6E89FCAE.png"  transform="matrix(0.24 0 0 0.24 0 0)">
	</image>
	<g>
		<path class="st0" d="M230.9,191.9c0,1.5-1.2,2.7-2.7,2.7h-217c-1.5,0-2.7-1.2-2.7-2.7V6.2c0-1.5,1.2-2.7,2.7-2.7h217
			c1.5,0,2.7,1.2,2.7,2.7V191.9z"/>
		<path class="st1" d="M230.9,191.9c0,1.5-1.2,2.7-2.7,2.7h-217c-1.5,0-2.7-1.2-2.7-2.7V6.2c0-1.5,1.2-2.7,2.7-2.7h217
			c1.5,0,2.7,1.2,2.7,2.7V191.9z"/>
	</g>
</g>
<g>
	
		<image style="overflow:visible;opacity:0.49;" width="977" height="1102" xlink:href="F3D5F70D6E89FCB2.png"  transform="matrix(0.24 0 0 0.24 286.3844 0.6396)">
	</image>
	<g>
		<path class="st0" d="M516.9,252.3c0,1.7-1.4,3.1-3.1,3.1H299.1c-1.7,0-3.1-1.4-3.1-3.1V7.6c0-1.7,1.4-3.1,3.1-3.1h214.8
			c1.7,0,3.1,1.4,3.1,3.1V252.3z"/>
		<path class="st1" d="M516.9,252.3c0,1.7-1.4,3.1-3.1,3.1H299.1c-1.7,0-3.1-1.4-3.1-3.1V7.6c0-1.7,1.4-3.1,3.1-3.1h214.8
			c1.7,0,3.1,1.4,3.1,3.1V252.3z"/>
	</g>
</g>
<circle class="st2" cx="21.6" cy="14.1" r="3.4"/>
<line class="st3" x1="8.7" y1="24.2" x2="231.4" y2="24.2"/>
<circle class="st2" cx="34.1" cy="14.1" r="3.4"/>
<circle class="st2" cx="45.8" cy="14.1" r="3.4"/>
<g>
	<path class="st4" d="M178.3,164.5c0,4.7-3.8,8.5-8.5,8.5H75.1c-4.7,0-8.5-3.8-8.5-8.5v-17.2c0-4.7,3.8-8.5,8.5-8.5h94.7
		c4.7,0,8.5,3.8,8.5,8.5V164.5z"/>
</g>
<g>
	<path class="st0" d="M95.9,160.9c-2.3,0-4.1-1.6-4.1-3.9v-7.6h1.7v7.5c0,1.5,0.9,2.5,2.4,2.5c1.4,0,2.4-0.9,2.4-2.5v-7.5h1.7v7.6
		C100,159.3,98.2,160.9,95.9,160.9z"/>
	<path class="st0" d="M105.2,160.9c-1.3,0-2.4-0.2-3.4-1.2l1.1-1.1c0.7,0.7,1.5,0.8,2.3,0.8c1,0,1.8-0.4,1.8-1.1
		c0-0.5-0.3-0.9-1.1-1l-1.3-0.1c-1.5-0.1-2.4-0.8-2.4-2.2c0-1.6,1.4-2.5,3.1-2.5c1.2,0,2.3,0.3,3,0.9l-1,1c-0.5-0.4-1.2-0.6-2-0.6
		c-1,0-1.5,0.4-1.5,1c0,0.5,0.3,0.8,1.1,0.9l1.3,0.1c1.5,0.1,2.4,0.8,2.4,2.3C108.6,160,107.2,160.9,105.2,160.9z"/>
	<path class="st0" d="M111.8,157.2c0,1.4,0.7,2.3,2.1,2.3c0.9,0,1.4-0.3,2-0.8l1,1c-0.8,0.8-1.6,1.3-3,1.3c-2,0-3.7-1.1-3.7-4.2
		c0-2.6,1.4-4.1,3.4-4.1c2.2,0,3.4,1.6,3.4,3.9v0.7H111.8z M115.2,155c-0.3-0.6-0.8-1-1.6-1c-0.8,0-1.4,0.4-1.6,1
		c-0.2,0.4-0.2,0.6-0.2,1.1h3.6C115.4,155.6,115.4,155.3,115.2,155z"/>
	<path class="st0" d="M128,160.8v-4.9c0-1.3-0.7-1.8-1.6-1.8c-0.9,0-1.7,0.6-1.7,1.8v4.9H123v-8.1h1.6v0.8c0.6-0.6,1.3-0.9,2.2-0.9
		c0.8,0,1.5,0.3,2,0.7c0.6,0.6,0.8,1.4,0.8,2.3v5.2H128z"/>
	<path class="st0" d="M137.6,159.9c-0.5,0.5-1.3,1-2.4,1s-1.9-0.4-2.4-1c-0.8-0.8-1-1.8-1-3.2c0-1.4,0.2-2.4,1-3.2
		c0.5-0.5,1.3-1,2.4-1s1.9,0.4,2.4,1c0.8,0.8,1,1.8,1,3.2C138.5,158.1,138.3,159.1,137.6,159.9z M136.3,154.5
		c-0.3-0.3-0.7-0.5-1.2-0.5c-0.5,0-0.9,0.2-1.2,0.5c-0.5,0.5-0.6,1.3-0.6,2.2s0.1,1.7,0.6,2.2c0.3,0.3,0.7,0.5,1.2,0.5
		c0.5,0,0.9-0.2,1.2-0.5c0.5-0.5,0.6-1.3,0.6-2.2S136.8,155,136.3,154.5z"/>
	<path class="st0" d="M148.5,160.8h-1.4l-1.9-5.7l-1.9,5.7h-1.4l-2.5-8.1h1.7l1.6,5.7l1.9-5.7h1.3l1.9,5.7l1.6-5.7h1.7L148.5,160.8z
		"/>
</g>
<g>
	<path class="st4" d="M500.1,222.1c0,3.8-3.1,7-7,7h-60.9c-3.8,0-7-3.1-7-7v-20.3c0-3.8,3.1-7,7-7h60.9c3.8,0,7,3.1,7,7V222.1z"/>
</g>
<g>
	<path class="st0" d="M451.7,212.3h-2.6v4.5h-1.7v-11.4h4.3c2.2,0,3.6,1.5,3.6,3.5S453.9,212.3,451.7,212.3z M451.6,206.9h-2.5v3.8
		h2.5c1.2,0,2-0.7,2-1.9C453.6,207.6,452.8,206.9,451.6,206.9z"/>
	<path class="st0" d="M461.7,210.6c-0.4-0.4-0.7-0.5-1.2-0.5c-0.9,0-1.6,0.7-1.6,1.8v4.9h-1.6v-8.1h1.6v0.9c0.4-0.6,1.2-1,2.2-1
		c0.8,0,1.4,0.2,1.9,0.8L461.7,210.6z"/>
	<path class="st0" d="M464.2,207.1v-1.7h1.7v1.7H464.2z M464.3,216.8v-8.1h1.6v8.1H464.3z"/>
	<path class="st0" d="M473.4,216.8v-4.9c0-1.3-0.7-1.8-1.6-1.8c-0.9,0-1.7,0.6-1.7,1.8v4.9h-1.6v-8.1h1.6v0.8
		c0.6-0.6,1.3-0.9,2.2-0.9c0.8,0,1.5,0.3,2,0.7c0.6,0.6,0.8,1.4,0.8,2.3v5.2H473.4z"/>
	<path class="st0" d="M480,216.8c-1.5,0-2.2-1.1-2.2-2.3v-4.5h-0.9v-1.2h0.9v-2.5h1.6v2.5h1.6v1.2h-1.6v4.4c0,0.6,0.3,0.9,0.9,0.9
		h0.7v1.4H480z"/>
</g>
<g>
	<rect x="35.3" y="53.9" class="st5" width="172.6" height="35.2"/>
	<path class="st6" d="M72.9,59.8v4.1h-1.1v-4.1l-3-5.9H70l2.4,4.8l2.3-4.8h1.1L72.9,59.8z"/>
	<path class="st6" d="M80.5,63.2c-0.5,0.5-1.1,0.8-2,0.8s-1.5-0.3-2-0.8c-0.7-0.7-0.8-1.7-0.8-2.7s0.1-2,0.8-2.7
		c0.5-0.5,1.1-0.8,2-0.8s1.5,0.3,2,0.8c0.7,0.7,0.8,1.7,0.8,2.7S81.2,62.5,80.5,63.2z M79.8,58.3c-0.3-0.3-0.8-0.5-1.3-0.5
		s-0.9,0.2-1.2,0.5c-0.5,0.5-0.6,1.4-0.6,2.1s0.1,1.6,0.6,2.1c0.3,0.3,0.8,0.5,1.2,0.5s0.9-0.2,1.3-0.5c0.5-0.5,0.5-1.4,0.5-2.1
		S80.3,58.8,79.8,58.3z"/>
	<path class="st6" d="M87.9,63.9v-0.8c-0.5,0.6-1.2,0.9-1.9,0.9c-0.7,0-1.4-0.2-1.8-0.6c-0.5-0.5-0.7-1.1-0.7-1.9V57h1v4.2
		c0,1.2,0.6,1.8,1.7,1.8c1,0,1.7-0.6,1.7-1.8V57h1v6.9H87.9z"/>
	<path class="st6" d="M95.2,58.3c-0.4-0.4-0.7-0.5-1.2-0.5c-1,0-1.7,0.8-1.7,1.8v4.2h-1V57h1v0.8c0.4-0.6,1.1-0.9,1.9-0.9
		c0.7,0,1.2,0.2,1.7,0.6L95.2,58.3z"/>
	<path class="st6" d="M105.1,63.9v-0.8c-0.5,0.6-1.2,0.9-1.9,0.9c-0.7,0-1.4-0.2-1.8-0.6c-0.5-0.5-0.7-1.1-0.7-1.9V57h1v4.2
		c0,1.2,0.6,1.8,1.7,1.8c1,0,1.7-0.6,1.7-1.8V57h1v6.9H105.1z"/>
	<path class="st6" d="M113.1,63.9v-4.2c0-1.2-0.7-1.8-1.7-1.8c-1,0-1.7,0.6-1.7,1.8v4.2h-1V57h1v0.8c0.5-0.6,1.2-0.8,1.9-0.8
		c0.7,0,1.3,0.2,1.8,0.6c0.5,0.5,0.7,1.1,0.7,1.9v4.4H113.1z"/>
	<path class="st6" d="M116.5,55v-1.1h1.1V55H116.5z M116.5,63.9V57h1v6.9H116.5z"/>
	<path class="st6" d="M124.2,67v-3.9c-0.6,0.7-1.2,0.9-1.9,0.9c-0.7,0-1.3-0.2-1.7-0.6c-0.7-0.7-0.8-1.8-0.8-2.9s0.1-2.2,0.8-2.9
		c0.4-0.4,1-0.6,1.7-0.6c0.8,0,1.4,0.2,2,0.9V57h1v10H124.2z M122.4,57.8c-1.5,0-1.7,1.3-1.7,2.6s0.2,2.6,1.7,2.6
		c1.5,0,1.7-1.3,1.7-2.6S123.9,57.8,122.4,57.8z"/>
	<path class="st6" d="M132,63.9v-0.8c-0.5,0.6-1.2,0.9-1.9,0.9c-0.7,0-1.4-0.2-1.8-0.6c-0.5-0.5-0.7-1.1-0.7-1.9V57h1v4.2
		c0,1.2,0.6,1.8,1.7,1.8c1,0,1.7-0.6,1.7-1.8V57h1v6.9H132z"/>
	<path class="st6" d="M136.2,60.7c0,1.5,0.7,2.4,2,2.4c0.8,0,1.3-0.2,1.8-0.8l0.7,0.6c-0.7,0.7-1.3,1.1-2.5,1.1c-1.8,0-3-1.1-3-3.5
		c0-2.2,1.1-3.5,2.8-3.5c1.8,0,2.8,1.3,2.8,3.3v0.5H136.2z M139.6,58.8c-0.3-0.6-0.9-1-1.6-1s-1.3,0.4-1.6,1
		c-0.2,0.4-0.2,0.6-0.2,1.1h3.6C139.8,59.4,139.8,59.2,139.6,58.8z"/>
	<path class="st6" d="M149.1,64c-1.7,0-3.1-1.2-3.1-3.5c0-2.4,1.3-3.5,3.1-3.5c1,0,1.6,0.3,2.3,1l-0.7,0.6c-0.5-0.6-0.9-0.8-1.6-0.8
		c-0.7,0-1.2,0.3-1.6,0.8c-0.3,0.4-0.4,1-0.4,1.8c0,0.9,0.1,1.4,0.4,1.8c0.4,0.5,0.9,0.8,1.6,0.8c0.7,0,1.1-0.2,1.6-0.8l0.7,0.7
		C150.7,63.7,150.1,64,149.1,64z"/>
	<path class="st6" d="M157.5,63.2c-0.5,0.5-1.1,0.8-2,0.8s-1.5-0.3-2-0.8c-0.7-0.7-0.8-1.7-0.8-2.7s0.1-2,0.8-2.7
		c0.5-0.5,1.1-0.8,2-0.8s1.5,0.3,2,0.8c0.7,0.7,0.8,1.7,0.8,2.7S158.2,62.5,157.5,63.2z M156.8,58.3c-0.3-0.3-0.8-0.5-1.3-0.5
		s-0.9,0.2-1.2,0.5c-0.5,0.5-0.6,1.4-0.6,2.1s0.1,1.6,0.6,2.1c0.3,0.3,0.8,0.5,1.2,0.5s0.9-0.2,1.3-0.5c0.5-0.5,0.5-1.4,0.5-2.1
		S157.3,58.8,156.8,58.3z"/>
	<path class="st6" d="M164.6,63.9v-0.8c-0.6,0.7-1.2,0.9-2,0.9c-0.7,0-1.3-0.2-1.7-0.6c-0.7-0.7-0.8-1.8-0.8-2.9s0.1-2.2,0.8-2.9
		c0.4-0.4,1-0.6,1.7-0.6c0.8,0,1.4,0.2,1.9,0.9v-3.9h1v10H164.6z M162.9,57.8c-1.5,0-1.7,1.3-1.7,2.6s0.2,2.6,1.7,2.6
		c1.5,0,1.7-1.3,1.7-2.6S164.4,57.8,162.9,57.8z"/>
	<path class="st6" d="M168.8,60.7c0,1.5,0.7,2.4,2,2.4c0.8,0,1.3-0.2,1.8-0.8l0.7,0.6c-0.7,0.7-1.3,1.1-2.5,1.1c-1.8,0-3-1.1-3-3.5
		c0-2.2,1.1-3.5,2.8-3.5c1.8,0,2.8,1.3,2.8,3.3v0.5H168.8z M172.2,58.8c-0.3-0.6-0.9-1-1.6-1s-1.3,0.4-1.6,1
		c-0.2,0.4-0.2,0.6-0.2,1.1h3.6C172.4,59.4,172.4,59.2,172.2,58.8z"/>
</g>
<g>
	<rect x="41.6" y="91.4" class="st5" width="159.8" height="94"/>
	<path class="st4" d="M71.8,108.6c-2.8,0-5.4-1.5-5.4-5h3.1c0,1.5,1.1,2.2,2.3,2.2c1.3,0,2.3-0.8,2.3-2.4c0-1.4-0.9-2.4-2.4-2.4
		h-0.5v-2.7h0.5c1.5,0,2.2-0.9,2.2-2.1c0-1.4-1-2.2-2.1-2.2c-1.2,0-2,0.8-2.1,2.1h-3.1c0.1-3,2.4-4.9,5.2-4.9c3,0,5.2,2,5.2,4.9
		c0,1.8-0.8,2.9-2,3.5c1.2,0.6,2.2,1.8,2.2,3.9C77.2,106.9,74.7,108.6,71.8,108.6z"/>
	<path class="st4" d="M79.7,108.5v-2.8l6.4-7.4c0.6-0.7,0.9-1.3,0.9-2.1c0-1.3-0.7-2.1-2.1-2.1c-1,0-2.1,0.5-2.1,2.2h-3.1
		c0-3.1,2.3-5,5.2-5c3,0,5.2,1.9,5.2,5c0,1.7-0.6,2.5-1.8,3.9l-4.8,5.5h6.6v2.8H79.7z"/>
	<path class="st4" d="M97.3,108.5V94.7l-3.5,3v-3.4l3.5-3h3.1v17.1H97.3z"/>
	<path class="st4" d="M110.9,108.6c-3,0-5.3-1.9-5.3-5.3c0-1.6,0.7-3,1.4-4.6l3.6-7.4h3.4l-3.6,7.1c0.4-0.2,0.9-0.2,1.3-0.2
		c2.3,0,4.5,1.9,4.5,5.1C116.2,106.6,113.9,108.6,110.9,108.6z M110.9,100.8c-1.3,0-2.2,0.9-2.2,2.5c0,1.6,0.9,2.5,2.2,2.5
		s2.2-0.9,2.2-2.5C113.1,101.8,112.2,100.8,110.9,100.8z"/>
	<path class="st4" d="M127.8,107.2c-0.8,0.8-2,1.4-3.8,1.4c-1.8,0-3.1-0.6-3.8-1.4c-1.1-1.1-1.3-2.3-1.4-3.6h3.1
		c0.2,1.3,0.8,2.1,2.1,2.1c0.6,0,1.1-0.2,1.5-0.6c0.6-0.6,0.7-1.5,0.7-2.5c0-2-0.6-3.1-2.1-3.1c-1.3,0-1.8,0.7-2.1,1.4h-2.9v-9.6
		h9.7v2.8H122v3.7c0.5-0.4,1.4-0.9,2.6-0.9c1.4,0,2.5,0.5,3.2,1.2c1.3,1.3,1.5,3,1.5,4.6C129.3,104.6,129,106,127.8,107.2z"/>
	<path class="st4" d="M134.7,103.2c0,1.6,1,2.8,2.7,2.8c1.4,0,2-0.4,2.8-1.2l1.9,1.8c-1.3,1.3-2.5,2-4.8,2c-3,0-5.8-1.3-5.8-6.4
		c0-4.1,2.2-6.4,5.4-6.4c3.5,0,5.4,2.5,5.4,6v1.4H134.7z M139.1,99.7c-0.3-0.7-1-1.3-2.1-1.3c-1.1,0-1.8,0.6-2.1,1.3
		c-0.2,0.5-0.3,0.8-0.3,1.3h4.8C139.4,100.5,139.3,100.2,139.1,99.7z"/>
	<path class="st4" d="M154,107.2c-0.8,0.8-2,1.4-3.8,1.4c-1.8,0-3.1-0.6-3.8-1.4c-1.1-1.1-1.3-2.3-1.4-3.6h3.1
		c0.2,1.3,0.8,2.1,2.1,2.1c0.6,0,1.1-0.2,1.5-0.6c0.6-0.6,0.7-1.5,0.7-2.5c0-2-0.6-3.1-2.1-3.1c-1.3,0-1.8,0.7-2.1,1.4h-2.9v-9.6
		h9.7v2.8h-6.9v3.7c0.5-0.4,1.4-0.9,2.6-0.9c1.4,0,2.5,0.5,3.2,1.2c1.3,1.3,1.5,3,1.5,4.6C155.5,104.6,155.2,106,154,107.2z"/>
	<path class="st4" d="M162.4,103.1h-2.3l-0.8-11.7h3.9L162.4,103.1z M159.5,108.5v-3.6h3.6v3.6H159.5z"/>
	<path class="st4" d="M173.1,108.5v-1.1c-0.8,0.8-1.6,1.2-3.1,1.2c-1.4,0-2.4-0.4-3.2-1.1c-0.7-0.7-1-1.7-1-2.8c0-2,1.4-3.6,4.3-3.6
		h3v-0.6c0-1.4-0.7-2-2.3-2c-1.2,0-1.8,0.3-2.4,1l-2-1.9c1.2-1.3,2.4-1.7,4.5-1.7c3.5,0,5.3,1.5,5.3,4.4v8.2H173.1z M173.1,103.2
		h-2.5c-1.1,0-1.8,0.5-1.8,1.4c0,0.9,0.6,1.4,1.8,1.4c0.9,0,1.4-0.1,2-0.6c0.3-0.3,0.5-0.8,0.5-1.6V103.2z"/>
</g>
<circle class="st2" cx="307.6" cy="14.1" r="3.4"/>
<line class="st3" x1="294.7" y1="24.2" x2="517.4" y2="24.2"/>
<circle class="st2" cx="320.1" cy="14.1" r="3.4"/>
<circle class="st2" cx="331.8" cy="14.1" r="3.4"/>
<g id="e5KAql_1_">
	
		<image style="overflow:visible;" width="3000" height="3000" id="e5KAql_6_" xlink:href="F3D5F70D6E89FCB5.png"  transform="matrix(4.400000e-02 0 0 4.400000e-02 339.4091 52.3782)">
	</image>
</g>
<g>
	<polygon class="st7" points="495.7,257.1 500.9,263.8 505.5,260.2 500.3,253.5 506,251 480.9,234 491.8,262 	"/>
</g>
<g>
	<rect x="8.4" y="207.4" class="st5" width="15.7" height="12.3"/>
	<path class="st8" d="M9.2,210.1V209c0.5,0,0.9-0.1,1.1-0.1c0.3-0.1,0.6-0.2,0.8-0.4c0.1-0.2,0.3-0.4,0.3-0.6c0-0.2,0.1-0.3,0.1-0.3
		H13v8.5h-1.7v-5.9H9.2z"/>
	<path class="st8" d="M15.9,214.3h1.8v1.8h-1.8V214.3z"/>
</g>
<g>
	<rect x="294.7" y="266" class="st5" width="15.7" height="12.3"/>
	<path class="st8" d="M295.5,273c0.2-0.6,0.8-1.2,1.7-1.8c0.8-0.6,1.3-0.9,1.5-1.2c0.3-0.4,0.5-0.8,0.5-1.2c0-0.4-0.1-0.7-0.3-0.9
		s-0.5-0.4-0.9-0.4c-0.5,0-0.9,0.2-1,0.6c-0.1,0.2-0.2,0.6-0.2,1h-1.6c0-0.7,0.2-1.3,0.4-1.8c0.4-0.8,1.2-1.3,2.4-1.3
		c0.9,0,1.6,0.2,2.1,0.7s0.8,1.2,0.8,2c0,0.6-0.2,1.2-0.6,1.7c-0.2,0.3-0.7,0.7-1.2,1.1l-0.7,0.5c-0.4,0.3-0.7,0.5-0.9,0.6
		s-0.3,0.3-0.4,0.5h3.7v1.5h-5.8C295.1,274.1,295.3,273.5,295.5,273z"/>
	<path class="st8" d="M302.2,272.9h1.8v1.8h-1.8V272.9z"/>
</g>
<g>
	<g>
		<path class="st9" d="M203.1,207.9c0,0,23.3,59.1,69,44"/>
		<g>
			<polygon class="st8" points="269.9,247.8 273,256.4 275.7,250.6 			"/>
		</g>
	</g>
</g>
<g>
</g>
<g>
</g>
<g>
</g>
<g>
</g>
<g>
</g>
<g>
</g>
<g>
</g>
</svg>
