<?xml version="1.0" encoding="utf-8"?>
<!-- Generator: Adobe Illustrator 19.1.0, SVG Export Plug-In . SVG Version: 6.00 Build 0)  -->
<svg version="1.1" id="Layer_1" xmlns="http://www.w3.org/2000/svg" xmlns:xlink="http://www.w3.org/1999/xlink" x="0px" y="0px"
	 viewBox="0 0 490 241.5" style="enable-background:new 0 0 490 241.5;" xml:space="preserve">
<style type="text/css">
	.st0{fill:#FFFFFF;stroke:#1D1D1B;stroke-miterlimit:10;}
	.st1{fill:none;stroke:#1D1D1B;stroke-width:2;stroke-miterlimit:10;}
	.st2{fill:none;stroke:#1D1D1B;stroke-width:1.2919;stroke-miterlimit:10;}
	.st3{fill:#3A50A2;}
	.st4{fill:#FFFFFF;}
	.st5{fill:none;}
	.st6{fill:#1D1D1B;}
	.st7{fill:#000101;stroke:#000101;stroke-width:0.8322;stroke-miterlimit:10;}
</style>
<circle class="st0" cx="13.6" cy="10.5" r="3.4"/>
<g>
	<path class="st1" d="M223,188.4c0,1.5-1.2,2.7-2.7,2.7H3.7c-1.5,0-2.7-1.2-2.7-2.7V3.7C1,2.2,2.2,1,3.7,1h216.6
		c1.5,0,2.7,1.2,2.7,2.7V188.4z"/>
</g>
<line class="st2" x1="0.8" y1="20.6" x2="223.4" y2="20.6"/>
<circle class="st0" cx="26.1" cy="10.5" r="3.4"/>
<circle class="st0" cx="37.8" cy="10.5" r="3.4"/>
<g>
	<path class="st3" d="M170.3,160.9c0,4.7-3.8,8.5-8.5,8.5H67.1c-4.7,0-8.5-3.8-8.5-8.5v-17.2c0-4.7,3.8-8.5,8.5-8.5h94.7
		c4.7,0,8.5,3.8,8.5,8.5V160.9z"/>
</g>
<g>
	<path class="st4" d="M86.8,146.4v6.4c0,2.4,1.1,3.4,2.5,3.4c1.6,0,2.6-1.1,2.6-3.4v-6.4h1.4v6.3c0,3.3-1.7,4.7-4.1,4.7
		c-2.2,0-3.9-1.3-3.9-4.6v-6.4H86.8z"/>
	<path class="st4" d="M95.4,155.7c0.4,0.3,1.2,0.6,1.9,0.6c1,0,1.5-0.5,1.5-1.2c0-0.7-0.4-1-1.4-1.4c-1.4-0.5-2-1.3-2-2.2
		c0-1.2,1-2.3,2.7-2.3c0.8,0,1.5,0.2,1.9,0.5l-0.4,1c-0.3-0.2-0.9-0.4-1.6-0.4c-0.8,0-1.3,0.5-1.3,1.1c0,0.6,0.5,0.9,1.5,1.3
		c1.3,0.5,2,1.2,2,2.3c0,1.4-1.1,2.3-2.9,2.3c-0.8,0-1.6-0.2-2.2-0.5L95.4,155.7z"/>
	<path class="st4" d="M102.7,153.6c0,1.9,1.2,2.7,2.7,2.7c1,0,1.6-0.2,2.1-0.4l0.2,1c-0.5,0.2-1.3,0.5-2.6,0.5
		c-2.4,0-3.8-1.6-3.8-3.9s1.4-4.2,3.6-4.2c2.5,0,3.2,2.2,3.2,3.6c0,0.3,0,0.5,0,0.7H102.7z M106.9,152.6c0-0.9-0.4-2.3-2-2.3
		c-1.4,0-2,1.3-2.2,2.3H106.9z"/>
	<path class="st4" d="M113.4,151.5c0-0.8,0-1.5-0.1-2.1h1.2l0.1,1.3h0c0.4-0.7,1.3-1.5,2.6-1.5c1.1,0,2.7,0.6,2.7,3.3v4.6h-1.4v-4.5
		c0-1.2-0.5-2.3-1.8-2.3c-0.9,0-1.6,0.7-1.9,1.4c-0.1,0.2-0.1,0.4-0.1,0.7v4.7h-1.4V151.5z"/>
	<path class="st4" d="M129.3,153.3c0,2.9-2,4.1-3.9,4.1c-2.1,0-3.7-1.5-3.7-4c0-2.6,1.7-4.1,3.8-4.1
		C127.8,149.3,129.3,150.9,129.3,153.3z M123.1,153.3c0,1.7,1,3,2.4,3c1.3,0,2.4-1.3,2.4-3c0-1.3-0.7-3-2.3-3
		C123.8,150.3,123.1,151.9,123.1,153.3z"/>
	<path class="st4" d="M131.5,149.4l1,3.9c0.2,0.9,0.4,1.7,0.6,2.5h0c0.2-0.8,0.4-1.6,0.7-2.4l1.3-4h1.2l1.2,3.9
		c0.3,0.9,0.5,1.7,0.7,2.5h0c0.1-0.8,0.3-1.6,0.6-2.5l1.1-3.9h1.4l-2.5,7.7h-1.3l-1.2-3.7c-0.3-0.9-0.5-1.6-0.7-2.5h0
		c-0.2,0.9-0.4,1.7-0.7,2.6l-1.2,3.7h-1.3l-2.3-7.7H131.5z"/>
</g>
<g>
	<path class="st3" d="M472.1,218.5c0,3.8-3.1,7-7,7h-60.9c-3.8,0-7-3.1-7-7v-20.3c0-3.8,3.1-7,7-7h60.9c3.8,0,7,3.1,7,7V218.5z"/>
</g>
<g>
	<path class="st4" d="M421.4,202.5c0.7-0.1,1.6-0.2,2.7-0.2c1.4,0,2.4,0.3,3,0.9c0.6,0.5,0.9,1.3,0.9,2.3c0,1-0.3,1.7-0.8,2.3
		c-0.7,0.8-1.9,1.2-3.3,1.2c-0.4,0-0.8,0-1.1-0.1v4.3h-1.4V202.5z M422.8,207.7c0.3,0.1,0.7,0.1,1.2,0.1c1.7,0,2.7-0.8,2.7-2.3
		c0-1.4-1-2.1-2.5-2.1c-0.6,0-1.1,0-1.3,0.1V207.7z"/>
	<path class="st4" d="M429.6,207.9c0-0.9,0-1.7-0.1-2.4h1.2l0,1.5h0.1c0.4-1,1.2-1.7,2.1-1.7c0.2,0,0.3,0,0.4,0v1.3
		c-0.1,0-0.3,0-0.5,0c-1,0-1.7,0.8-1.9,1.8c0,0.2-0.1,0.4-0.1,0.7v4.1h-1.4V207.9z"/>
	<path class="st4" d="M436.4,203.3c0,0.5-0.3,0.9-0.9,0.9c-0.5,0-0.8-0.4-0.8-0.9c0-0.5,0.4-0.9,0.9-0.9
		C436.1,202.4,436.4,202.8,436.4,203.3z M434.9,213.2v-7.7h1.4v7.7H434.9z"/>
	<path class="st4" d="M438.6,207.5c0-0.8,0-1.5-0.1-2.1h1.2l0.1,1.3h0c0.4-0.7,1.3-1.5,2.6-1.5c1.1,0,2.7,0.6,2.7,3.3v4.6h-1.4v-4.5
		c0-1.2-0.5-2.3-1.8-2.3c-0.9,0-1.6,0.7-1.9,1.4c-0.1,0.2-0.1,0.4-0.1,0.7v4.7h-1.4V207.5z"/>
	<path class="st4" d="M449.1,203.2v2.2h2v1.1h-2v4.2c0,1,0.3,1.5,1.1,1.5c0.4,0,0.6,0,0.8-0.1l0.1,1.1c-0.3,0.1-0.7,0.2-1.2,0.2
		c-0.7,0-1.2-0.2-1.5-0.6c-0.4-0.4-0.5-1.1-0.5-2v-4.2h-1.2v-1.1h1.2v-1.9L449.1,203.2z"/>
</g>
<g>
	<rect x="27.3" y="50.3" class="st5" width="172.6" height="35.2"/>
	<path class="st6" d="M65.4,60.3v-4l-3-5.4h1.4l1.3,2.6c0.4,0.7,0.6,1.3,0.9,1.9h0c0.3-0.6,0.6-1.2,1-1.9l1.4-2.6h1.4l-3.2,5.4v4
		H65.4z"/>
	<path class="st6" d="M75.9,56.8c0,2.5-1.7,3.6-3.4,3.6c-1.8,0-3.2-1.3-3.2-3.5c0-2.3,1.5-3.6,3.4-3.6
		C74.6,53.3,75.9,54.8,75.9,56.8z M70.6,56.9c0,1.5,0.9,2.6,2.1,2.6c1.2,0,2.1-1.1,2.1-2.6c0-1.1-0.6-2.6-2-2.6
		C71.2,54.3,70.6,55.6,70.6,56.9z"/>
	<path class="st6" d="M83.2,58.4c0,0.7,0,1.3,0.1,1.8h-1.1l-0.1-1.1h0c-0.3,0.5-1,1.3-2.2,1.3c-1.1,0-2.3-0.6-2.3-3v-4h1.2v3.8
		c0,1.3,0.4,2.2,1.5,2.2c0.8,0,1.4-0.6,1.6-1.1c0.1-0.2,0.1-0.4,0.1-0.6v-4.2h1.2V58.4z"/>
	<path class="st6" d="M85.2,55.6c0-0.8,0-1.5-0.1-2.1h1.1l0,1.3h0.1c0.3-0.9,1.1-1.5,1.9-1.5c0.1,0,0.2,0,0.4,0v1.2
		c-0.1,0-0.3,0-0.4,0c-0.9,0-1.5,0.7-1.7,1.6c0,0.2-0.1,0.4-0.1,0.6v3.6h-1.2V55.6z"/>
	<path class="st6" d="M98.4,58.4c0,0.7,0,1.3,0.1,1.8h-1.1l-0.1-1.1h0c-0.3,0.5-1,1.3-2.2,1.3c-1.1,0-2.3-0.6-2.3-3v-4h1.2v3.8
		c0,1.3,0.4,2.2,1.5,2.2c0.8,0,1.4-0.6,1.6-1.1c0.1-0.2,0.1-0.4,0.1-0.6v-4.2h1.2V58.4z"/>
	<path class="st6" d="M100.5,55.3c0-0.7,0-1.3-0.1-1.8h1.1l0.1,1.1h0c0.3-0.6,1.1-1.3,2.2-1.3c0.9,0,2.4,0.6,2.4,2.9v4H105v-3.9
		c0-1.1-0.4-2-1.6-2c-0.8,0-1.4,0.6-1.7,1.3c-0.1,0.2-0.1,0.4-0.1,0.6v4.1h-1.2V55.3z"/>
	<path class="st6" d="M109.6,51.6c0,0.4-0.3,0.8-0.8,0.8c-0.4,0-0.7-0.3-0.7-0.8c0-0.4,0.3-0.8,0.8-0.8
		C109.3,50.8,109.6,51.2,109.6,51.6z M108.2,60.3v-6.8h1.2v6.8H108.2z"/>
	<path class="st6" d="M116.1,59.2L116.1,59.2c-0.4,0.7-1.1,1.2-2.2,1.2c-1.6,0-2.9-1.4-2.9-3.4c0-2.5,1.6-3.7,3.1-3.7
		c1.1,0,1.8,0.5,2.1,1.2h0l0-1h1.2c0,0.6,0,1.2,0,1.9V63h-1.2V59.2z M116.1,56.2c0-0.2,0-0.4-0.1-0.5c-0.2-0.8-0.8-1.4-1.8-1.4
		c-1.3,0-2,1.1-2,2.6c0,1.3,0.6,2.5,2,2.5c0.8,0,1.5-0.5,1.8-1.3c0.1-0.2,0.1-0.4,0.1-0.6V56.2z"/>
	<path class="st6" d="M125.1,58.4c0,0.7,0,1.3,0.1,1.8H124l-0.1-1.1h0c-0.3,0.5-1,1.3-2.2,1.3c-1.1,0-2.3-0.6-2.3-3v-4h1.2v3.8
		c0,1.3,0.4,2.2,1.5,2.2c0.8,0,1.4-0.6,1.6-1.1c0.1-0.2,0.1-0.4,0.1-0.6v-4.2h1.2V58.4z"/>
	<path class="st6" d="M127.8,57.1c0,1.7,1.1,2.4,2.3,2.4c0.9,0,1.4-0.2,1.9-0.4l0.2,0.9c-0.4,0.2-1.2,0.4-2.3,0.4
		c-2.1,0-3.3-1.4-3.3-3.4c0-2,1.2-3.7,3.2-3.7c2.2,0,2.8,1.9,2.8,3.2c0,0.3,0,0.4,0,0.6H127.8z M131.4,56.2c0-0.8-0.3-2-1.7-2
		c-1.2,0-1.8,1.1-1.9,2H131.4z"/>
	<path class="st6" d="M141.9,60c-0.3,0.2-1,0.4-1.9,0.4c-2,0-3.4-1.4-3.4-3.5c0-2.1,1.4-3.6,3.6-3.6c0.7,0,1.4,0.2,1.7,0.4l-0.3,1
		c-0.3-0.2-0.8-0.3-1.4-0.3c-1.6,0-2.4,1.1-2.4,2.6c0,1.6,1,2.5,2.4,2.5c0.7,0,1.2-0.2,1.5-0.3L141.9,60z"/>
	<path class="st6" d="M149.4,56.8c0,2.5-1.7,3.6-3.4,3.6c-1.8,0-3.2-1.3-3.2-3.5c0-2.3,1.5-3.6,3.4-3.6
		C148.1,53.3,149.4,54.8,149.4,56.8z M144,56.9c0,1.5,0.9,2.6,2.1,2.6c1.2,0,2.1-1.1,2.1-2.6c0-1.1-0.6-2.6-2-2.6S144,55.6,144,56.9
		z"/>
	<path class="st6" d="M156.8,50.3v8.2c0,0.6,0,1.3,0.1,1.8h-1.1l-0.1-1.2h0c-0.4,0.8-1.2,1.3-2.3,1.3c-1.6,0-2.9-1.4-2.9-3.4
		c0-2.3,1.4-3.6,3-3.6c1,0,1.7,0.5,2,1h0v-4H156.8z M155.6,56.3c0-0.2,0-0.4-0.1-0.5c-0.2-0.8-0.9-1.4-1.8-1.4c-1.3,0-2,1.1-2,2.6
		c0,1.4,0.7,2.5,2,2.5c0.8,0,1.6-0.5,1.8-1.5c0-0.2,0.1-0.3,0.1-0.5V56.3z"/>
	<path class="st6" d="M159.6,57.1c0,1.7,1.1,2.4,2.3,2.4c0.9,0,1.4-0.2,1.9-0.4L164,60c-0.4,0.2-1.2,0.4-2.3,0.4
		c-2.1,0-3.3-1.4-3.3-3.4c0-2,1.2-3.7,3.2-3.7c2.2,0,2.8,1.9,2.8,3.2c0,0.3,0,0.4,0,0.6H159.6z M163.2,56.2c0-0.8-0.3-2-1.7-2
		c-1.2,0-1.8,1.1-1.9,2H163.2z"/>
</g>
<g>
	<rect x="33.7" y="87.8" class="st5" width="159.8" height="94"/>
	<path class="st3" d="M63.7,102.4c0.6,0.4,2,1,3.5,1c2.7,0,3.6-1.7,3.5-3c0-2.2-2-3.1-4-3.1h-1.2v-1.6h1.2c1.5,0,3.5-0.8,3.5-2.6
		c0-1.2-0.8-2.4-2.7-2.4c-1.2,0-2.4,0.6-3.1,1l-0.6-1.5c0.8-0.6,2.4-1.2,4.1-1.2c3.1,0,4.5,1.8,4.5,3.7c0,1.6-1,3-2.9,3.7v0
		c1.9,0.4,3.5,1.8,3.5,4c0,2.5-1.9,4.7-5.7,4.7c-1.8,0-3.3-0.6-4.1-1.1L63.7,102.4z"/>
	<path class="st3" d="M75.5,104.8v-1.3l1.7-1.6c4-3.8,5.8-5.8,5.8-8.2c0-1.6-0.8-3-3.1-3c-1.4,0-2.6,0.7-3.3,1.3l-0.7-1.5
		c1.1-0.9,2.6-1.6,4.4-1.6c3.4,0,4.8,2.3,4.8,4.5c0,2.9-2.1,5.2-5.4,8.4l-1.2,1.2v0h7v1.8H75.5z"/>
	<path class="st3" d="M92.4,91.2L92.4,91.2l-2.8,1.5L89.2,91l3.4-1.8h1.8v15.6h-2V91.2z"/>
	<path class="st3" d="M109,90.7c-0.4,0-1,0-1.6,0.1c-3.3,0.6-5.1,3-5.4,5.5h0.1c0.7-1,2-1.8,3.8-1.8c2.8,0,4.7,2,4.7,5
		c0,2.9-1.9,5.5-5.2,5.5c-3.3,0-5.5-2.6-5.5-6.6c0-3.1,1.1-5.5,2.6-7c1.3-1.3,3-2.1,5-2.3c0.6-0.1,1.2-0.1,1.5-0.1V90.7z
		 M108.4,99.7c0-2.2-1.3-3.6-3.2-3.6c-1.3,0-2.4,0.8-3,1.9c-0.1,0.2-0.2,0.6-0.2,0.9c0,2.6,1.2,4.5,3.4,4.5
		C107.2,103.5,108.4,101.9,108.4,99.7z"/>
	<path class="st3" d="M121.7,91h-6l-0.6,4c0.4,0,0.7-0.1,1.3-0.1c1.2,0,2.4,0.3,3.4,0.8c1.2,0.7,2.2,2,2.2,4c0,3-2.4,5.3-5.8,5.3
		c-1.7,0-3.1-0.5-3.9-1l0.5-1.6c0.6,0.4,1.9,0.9,3.3,0.9c2,0,3.7-1.3,3.7-3.4c0-2-1.4-3.5-4.5-3.5c-0.9,0-1.6,0.1-2.2,0.2l1-7.5h7.5
		V91z"/>
	<path class="st3" d="M126.6,99.4c0,2.9,1.9,4,4,4c1.5,0,2.4-0.3,3.2-0.6l0.4,1.5c-0.7,0.3-2,0.7-3.9,0.7c-3.6,0-5.7-2.4-5.7-5.9
		c0-3.5,2.1-6.3,5.4-6.3c3.8,0,4.8,3.3,4.8,5.5c0,0.4,0,0.8-0.1,1H126.6z M132.8,97.9c0-1.3-0.6-3.4-2.9-3.4c-2.1,0-3.1,2-3.2,3.4
		H132.8z"/>
	<path class="st3" d="M146.1,91h-6l-0.6,4c0.4,0,0.7-0.1,1.3-0.1c1.2,0,2.4,0.3,3.4,0.8c1.2,0.7,2.2,2,2.2,4c0,3-2.4,5.3-5.8,5.3
		c-1.7,0-3.1-0.5-3.9-1l0.5-1.6c0.6,0.4,1.9,0.9,3.3,0.9c2,0,3.7-1.3,3.7-3.4c0-2-1.4-3.5-4.5-3.5c-0.9,0-1.6,0.1-2.2,0.2l1-7.5h7.5
		V91z"/>
	<path class="st3" d="M149.3,103.6c0-0.9,0.6-1.5,1.4-1.5c0.9,0,1.4,0.6,1.4,1.5c0,0.8-0.6,1.5-1.4,1.5
		C149.9,105.1,149.3,104.4,149.3,103.6z M149.9,100.2l-0.3-11.5h2.3l-0.3,11.5H149.9z"/>
	<path class="st3" d="M161.7,104.8l-0.2-1.5h-0.1c-0.6,0.9-1.9,1.7-3.6,1.7c-2.4,0-3.6-1.7-3.6-3.3c0-2.8,2.5-4.3,7-4.3v-0.2
		c0-1-0.3-2.7-2.6-2.7c-1.1,0-2.2,0.3-3,0.9l-0.5-1.4c1-0.6,2.4-1,3.8-1c3.6,0,4.4,2.4,4.4,4.8v4.3c0,1,0,2,0.2,2.8H161.7z
		 M161.4,98.9c-2.3,0-4.9,0.4-4.9,2.6c0,1.4,0.9,2,2,2c1.5,0,2.5-1,2.8-1.9c0.1-0.2,0.1-0.5,0.1-0.7V98.9z"/>
</g>
<circle class="st0" cx="279.6" cy="10.5" r="3.4"/>
<g>
	<path class="st1" d="M489,237.5c0,1.6-1.3,3-3,3H270c-1.6,0-3-1.3-3-3V4c0-1.6,1.3-3,3-3h216c1.6,0,3,1.3,3,3V237.5z"/>
</g>
<line class="st2" x1="266.8" y1="20.6" x2="489.4" y2="20.6"/>
<circle class="st0" cx="292.1" cy="10.5" r="3.4"/>
<circle class="st0" cx="303.8" cy="10.5" r="3.4"/>
<g id="e5KAql_1_">
	
		<image style="overflow:visible;" width="3000" height="3000" id="e5KAql" xlink:href="F3D5F70D6E89FCAE.png"  transform="matrix(4.400000e-02 0 0 4.400000e-02 311.4336 48.7798)">
	</image>
</g>
<g>
	<polygon class="st7" points="215.7,201.5 220.9,208.2 225.5,204.6 220.3,197.9 226.1,195.4 200.9,178.4 211.8,206.5 	"/>
</g>
<g>
</g>
<g>
</g>
<g>
</g>
<g>
</g>
<g>
</g>
<g>
</g>
</svg>
