<?xml version="1.0" encoding="utf-8"?>
<!-- Generator: Adobe Illustrator 16.0.0, SVG Export Plug-In . SVG Version: 6.00 Build 0)  -->
<!DOCTYPE svg PUBLIC "-//W3C//DTD SVG 1.1//EN" "http://www.w3.org/Graphics/SVG/1.1/DTD/svg11.dtd">
<svg version="1.1" id="Ebene_1" xmlns="http://www.w3.org/2000/svg" xmlns:xlink="http://www.w3.org/1999/xlink" x="0px" y="0px"
	 width="506.701px" height="209.687px" viewBox="0 0 506.701 209.687" enable-background="new 0 0 506.701 209.687"
	 xml:space="preserve">
<g>
	<path fill="#1F1F1F" d="M507.008,209.731H-0.306V-0.045h507.314V209.731z M0.694,208.731h505.314V0.955H0.694V208.731z"/>
	<polygon fill="#1F1F1F" points="506.395,209.642 0.811,209.642 0.811,207.642 504.395,207.642 504.395,0.178 506.395,0.178 	"/>
	<rect x="14.958" y="118.485" fill="#ECECEC" width="471.55" height="26.869"/>
	<g>
		<path fill="#1E1E1C" d="M21.035,52.226c-0.028-0.14-0.077-0.291-0.147-0.455c-0.069-0.163-0.175-0.314-0.314-0.455
			c-0.141-0.14-0.32-0.256-0.539-0.35c-0.22-0.093-0.488-0.14-0.806-0.14c-0.233,0-0.445,0.035-0.637,0.104
			c-0.191,0.07-0.354,0.164-0.49,0.28c-0.135,0.117-0.24,0.25-0.314,0.399c-0.075,0.149-0.112,0.308-0.112,0.476
			c0,0.271,0.089,0.507,0.267,0.707c0.177,0.201,0.447,0.338,0.812,0.413l1.386,0.266c0.448,0.084,0.845,0.22,1.19,0.406
			c0.345,0.187,0.635,0.408,0.868,0.665c0.232,0.257,0.41,0.544,0.531,0.861c0.122,0.317,0.183,0.648,0.183,0.993
			c0,0.383-0.079,0.759-0.238,1.128c-0.158,0.368-0.39,0.695-0.692,0.979c-0.304,0.285-0.678,0.516-1.12,0.693
			c-0.443,0.177-0.955,0.266-1.533,0.266c-0.663,0-1.232-0.096-1.708-0.287c-0.477-0.191-0.875-0.437-1.197-0.734
			c-0.322-0.299-0.566-0.633-0.735-1.002c-0.168-0.368-0.271-0.729-0.308-1.085l1.792-0.476c0.019,0.243,0.077,0.476,0.175,0.7
			c0.099,0.224,0.236,0.422,0.413,0.595c0.178,0.173,0.396,0.311,0.658,0.413c0.261,0.103,0.569,0.154,0.924,0.154
			c0.522,0,0.922-0.114,1.197-0.344c0.275-0.229,0.413-0.52,0.413-0.875c0-0.289-0.103-0.538-0.309-0.748
			c-0.205-0.211-0.504-0.353-0.896-0.428l-1.386-0.279c-0.794-0.159-1.426-0.483-1.897-0.974s-0.707-1.113-0.707-1.869
			c0-0.438,0.091-0.847,0.273-1.225c0.182-0.378,0.432-0.707,0.749-0.987c0.316-0.279,0.686-0.499,1.105-0.658
			c0.42-0.158,0.863-0.237,1.33-0.237c0.598,0,1.108,0.082,1.533,0.245s0.777,0.371,1.057,0.623c0.28,0.252,0.497,0.529,0.651,0.833
			c0.154,0.303,0.259,0.595,0.314,0.875L21.035,52.226z"/>
		<path fill="#1E1E1C" d="M26.201,59.254h-1.862V49.119h1.862v3.821c0.224-0.271,0.508-0.464,0.854-0.58
			c0.346-0.117,0.682-0.176,1.008-0.176c0.438,0,0.819,0.072,1.142,0.218c0.321,0.145,0.588,0.338,0.798,0.58
			c0.21,0.243,0.366,0.532,0.469,0.868s0.154,0.691,0.154,1.064v4.34h-1.862v-4.018c0-0.393-0.101-0.719-0.301-0.98
			c-0.201-0.261-0.525-0.392-0.974-0.392c-0.392,0-0.699,0.128-0.924,0.385c-0.224,0.257-0.345,0.576-0.363,0.959V59.254z"/>
		<path fill="#1E1E1C" d="M32.094,57.378c0-0.308,0.054-0.581,0.161-0.819c0.106-0.237,0.254-0.445,0.44-0.623
			c0.187-0.177,0.404-0.316,0.651-0.42c0.247-0.103,0.516-0.177,0.805-0.224l1.694-0.252c0.196-0.028,0.331-0.086,0.406-0.175
			c0.074-0.089,0.111-0.194,0.111-0.315c0-0.242-0.096-0.452-0.287-0.63c-0.191-0.177-0.482-0.266-0.875-0.266
			c-0.41,0-0.726,0.111-0.944,0.336c-0.22,0.224-0.344,0.485-0.371,0.783l-1.652-0.35c0.028-0.271,0.112-0.541,0.252-0.812
			c0.141-0.271,0.331-0.514,0.574-0.729c0.242-0.215,0.541-0.39,0.896-0.524c0.355-0.136,0.766-0.203,1.232-0.203
			c0.541,0,1.003,0.072,1.386,0.217s0.693,0.336,0.932,0.574c0.237,0.237,0.41,0.516,0.518,0.833s0.161,0.648,0.161,0.993v3.389
			c0,0.187,0.009,0.385,0.028,0.595c0.019,0.21,0.037,0.376,0.056,0.497H36.56c-0.019-0.093-0.035-0.222-0.049-0.385
			c-0.015-0.163-0.021-0.311-0.021-0.441c-0.177,0.271-0.432,0.509-0.763,0.714s-0.754,0.309-1.267,0.309
			c-0.364,0-0.693-0.059-0.987-0.175c-0.294-0.117-0.544-0.271-0.749-0.463c-0.205-0.19-0.362-0.41-0.469-0.657
			C32.148,57.909,32.094,57.649,32.094,57.378z M34.852,58.064c0.196,0,0.385-0.025,0.567-0.076
			c0.182-0.052,0.343-0.141,0.482-0.267c0.141-0.126,0.252-0.289,0.336-0.49c0.084-0.2,0.126-0.454,0.126-0.763v-0.308l-1.554,0.237
			c-0.243,0.038-0.446,0.124-0.609,0.26c-0.163,0.135-0.245,0.338-0.245,0.608c0,0.206,0.075,0.39,0.225,0.554
			C34.33,57.983,34.553,58.064,34.852,58.064z"/>
		<path fill="#1E1E1C" d="M44.26,54.214c-0.188-0.037-0.374-0.056-0.561-0.056c-0.242,0-0.472,0.032-0.686,0.098
			c-0.215,0.065-0.401,0.173-0.561,0.322c-0.158,0.149-0.287,0.348-0.385,0.595s-0.146,0.558-0.146,0.931v3.15H40.06v-6.888h1.806
			v1.021c0.103-0.224,0.235-0.408,0.399-0.553c0.163-0.145,0.336-0.254,0.518-0.329c0.183-0.074,0.364-0.126,0.546-0.154
			c0.183-0.027,0.348-0.042,0.497-0.042c0.075,0,0.147,0.003,0.217,0.008c0.07,0.004,0.143,0.012,0.218,0.021V54.214z"/>
		<path fill="#1E1E1C" d="M51.68,57.281c-0.084,0.299-0.217,0.581-0.399,0.847c-0.182,0.266-0.403,0.497-0.665,0.693
			c-0.261,0.195-0.566,0.352-0.917,0.469c-0.35,0.116-0.734,0.175-1.154,0.175c-0.477,0-0.929-0.082-1.358-0.245
			s-0.808-0.403-1.134-0.721c-0.327-0.317-0.586-0.705-0.777-1.162s-0.287-0.976-0.287-1.554c0-0.551,0.094-1.051,0.28-1.498
			c0.187-0.448,0.437-0.828,0.749-1.142c0.312-0.312,0.674-0.555,1.085-0.728s0.835-0.259,1.274-0.259
			c1.073,0,1.908,0.317,2.506,0.951c0.597,0.636,0.896,1.508,0.896,2.618c0,0.131-0.005,0.255-0.014,0.371
			c-0.01,0.117-0.014,0.185-0.014,0.203h-4.929c0.01,0.224,0.063,0.432,0.161,0.623c0.099,0.191,0.225,0.357,0.378,0.497
			c0.154,0.14,0.334,0.25,0.539,0.329s0.425,0.119,0.658,0.119c0.438,0,0.781-0.099,1.029-0.294
			c0.247-0.196,0.427-0.448,0.539-0.756L51.68,57.281z M49.944,55.027c-0.009-0.169-0.044-0.334-0.104-0.497
			c-0.061-0.164-0.154-0.309-0.28-0.435s-0.285-0.229-0.476-0.308c-0.191-0.079-0.418-0.119-0.68-0.119
			c-0.242,0-0.457,0.042-0.644,0.126s-0.346,0.191-0.476,0.322c-0.131,0.131-0.231,0.275-0.302,0.434
			c-0.069,0.159-0.109,0.317-0.119,0.477H49.944z"/>
		<path fill="#1E1E1C" d="M62.573,52.367l1.483,4.438l1.274-4.438h1.848l-2.156,6.888h-1.861l-1.61-4.704l-1.582,4.704h-1.89
			l-2.198-6.888h1.96l1.274,4.424l1.498-4.424H62.573z"/>
		<path fill="#1E1E1C" d="M68.116,50.113c0-0.327,0.112-0.603,0.337-0.826c0.224-0.225,0.494-0.336,0.812-0.336
			c0.326,0,0.6,0.111,0.819,0.336c0.219,0.224,0.329,0.499,0.329,0.826c0,0.308-0.11,0.573-0.329,0.798
			c-0.22,0.224-0.493,0.336-0.819,0.336c-0.317,0-0.588-0.112-0.812-0.336C68.228,50.686,68.116,50.42,68.116,50.113z M68.34,59.254
			v-6.888h1.862v6.888H68.34z"/>
		<path fill="#1E1E1C" d="M74.486,52.367h1.386v1.651h-1.386v2.885c0,0.299,0.067,0.506,0.203,0.623
			c0.135,0.116,0.338,0.175,0.608,0.175c0.112,0,0.225-0.005,0.337-0.015c0.111-0.009,0.19-0.022,0.237-0.042v1.54
			c-0.084,0.038-0.212,0.075-0.385,0.112s-0.395,0.056-0.665,0.056c-0.672,0-1.204-0.187-1.596-0.56
			c-0.393-0.373-0.588-0.896-0.588-1.568v-3.206h-1.246v-1.651h0.35c0.364,0,0.632-0.105,0.805-0.315s0.26-0.469,0.26-0.777v-0.966
			h1.68V52.367z"/>
		<path fill="#1E1E1C" d="M78.98,59.254h-1.862V49.119h1.862v3.821c0.224-0.271,0.508-0.464,0.854-0.58
			c0.346-0.117,0.682-0.176,1.008-0.176c0.438,0,0.819,0.072,1.142,0.218c0.321,0.145,0.588,0.338,0.798,0.58
			c0.21,0.243,0.366,0.532,0.469,0.868s0.154,0.691,0.154,1.064v4.34h-1.862v-4.018c0-0.393-0.101-0.719-0.301-0.98
			c-0.201-0.261-0.525-0.392-0.974-0.392c-0.392,0-0.699,0.128-0.924,0.385c-0.224,0.257-0.345,0.576-0.363,0.959V59.254z"/>
		<path fill="#1E1E1C" d="M91.845,52.157c0.514,0,0.992,0.091,1.436,0.272c0.442,0.183,0.825,0.435,1.147,0.756
			c0.322,0.322,0.574,0.707,0.756,1.155c0.183,0.448,0.273,0.938,0.273,1.47c0,0.532-0.091,1.021-0.273,1.463
			c-0.182,0.444-0.434,0.829-0.756,1.155c-0.322,0.327-0.705,0.581-1.147,0.763c-0.443,0.183-0.922,0.273-1.436,0.273
			s-0.992-0.091-1.435-0.273c-0.443-0.182-0.826-0.436-1.148-0.763c-0.322-0.326-0.574-0.711-0.756-1.155
			c-0.182-0.442-0.273-0.931-0.273-1.463c0-0.531,0.092-1.021,0.273-1.47s0.434-0.833,0.756-1.155
			c0.322-0.321,0.705-0.573,1.148-0.756C90.853,52.248,91.332,52.157,91.845,52.157z M91.845,57.77c0.224,0,0.443-0.042,0.658-0.126
			s0.401-0.207,0.56-0.371c0.159-0.163,0.287-0.366,0.386-0.608c0.098-0.243,0.146-0.527,0.146-0.854
			c0-0.326-0.049-0.611-0.146-0.854c-0.099-0.243-0.227-0.445-0.386-0.609c-0.158-0.163-0.345-0.287-0.56-0.371
			s-0.435-0.126-0.658-0.126s-0.443,0.042-0.658,0.126s-0.401,0.208-0.56,0.371c-0.159,0.164-0.287,0.366-0.385,0.609
			c-0.099,0.242-0.147,0.527-0.147,0.854c0,0.327,0.049,0.611,0.147,0.854c0.098,0.242,0.226,0.445,0.385,0.608
			c0.158,0.164,0.345,0.287,0.56,0.371S91.622,57.77,91.845,57.77z"/>
		<path fill="#1E1E1C" d="M99.196,52.367h1.386v1.651h-1.386v2.885c0,0.299,0.067,0.506,0.203,0.623
			c0.135,0.116,0.338,0.175,0.608,0.175c0.112,0,0.225-0.005,0.337-0.015c0.111-0.009,0.19-0.022,0.237-0.042v1.54
			c-0.084,0.038-0.212,0.075-0.385,0.112s-0.395,0.056-0.665,0.056c-0.672,0-1.204-0.187-1.596-0.56
			c-0.393-0.373-0.588-0.896-0.588-1.568v-3.206h-1.246v-1.651h0.35c0.364,0,0.632-0.105,0.805-0.315s0.26-0.469,0.26-0.777v-0.966
			h1.68V52.367z"/>
		<path fill="#1E1E1C" d="M103.69,59.254h-1.862V49.119h1.862v3.821c0.224-0.271,0.508-0.464,0.854-0.58
			c0.346-0.117,0.682-0.176,1.008-0.176c0.438,0,0.819,0.072,1.142,0.218c0.321,0.145,0.588,0.338,0.798,0.58
			c0.21,0.243,0.366,0.532,0.469,0.868s0.154,0.691,0.154,1.064v4.34h-1.862v-4.018c0-0.393-0.101-0.719-0.301-0.98
			c-0.201-0.261-0.525-0.392-0.974-0.392c-0.392,0-0.699,0.128-0.924,0.385c-0.224,0.257-0.345,0.576-0.363,0.959V59.254z"/>
		<path fill="#1E1E1C" d="M116.177,57.281c-0.084,0.299-0.217,0.581-0.399,0.847c-0.182,0.266-0.403,0.497-0.665,0.693
			c-0.261,0.195-0.566,0.352-0.917,0.469c-0.35,0.116-0.734,0.175-1.154,0.175c-0.477,0-0.929-0.082-1.358-0.245
			s-0.808-0.403-1.134-0.721c-0.327-0.317-0.586-0.705-0.777-1.162s-0.287-0.976-0.287-1.554c0-0.551,0.094-1.051,0.28-1.498
			c0.187-0.448,0.437-0.828,0.749-1.142c0.312-0.312,0.674-0.555,1.085-0.728s0.835-0.259,1.274-0.259
			c1.073,0,1.908,0.317,2.506,0.951c0.597,0.636,0.896,1.508,0.896,2.618c0,0.131-0.005,0.255-0.014,0.371
			c-0.01,0.117-0.014,0.185-0.014,0.203h-4.929c0.01,0.224,0.063,0.432,0.161,0.623c0.099,0.191,0.225,0.357,0.378,0.497
			c0.154,0.14,0.334,0.25,0.539,0.329s0.425,0.119,0.658,0.119c0.438,0,0.781-0.099,1.029-0.294
			c0.247-0.196,0.427-0.448,0.539-0.756L116.177,57.281z M114.441,55.027c-0.009-0.169-0.044-0.334-0.104-0.497
			c-0.061-0.164-0.154-0.309-0.28-0.435s-0.285-0.229-0.476-0.308c-0.191-0.079-0.418-0.119-0.68-0.119
			c-0.242,0-0.457,0.042-0.644,0.126s-0.346,0.191-0.476,0.322c-0.131,0.131-0.231,0.275-0.302,0.434
			c-0.069,0.159-0.109,0.317-0.119,0.477H114.441z"/>
		<path fill="#1E1E1C" d="M121.946,54.214c-0.188-0.037-0.374-0.056-0.561-0.056c-0.242,0-0.472,0.032-0.686,0.098
			c-0.215,0.065-0.401,0.173-0.561,0.322c-0.158,0.149-0.287,0.348-0.385,0.595s-0.146,0.558-0.146,0.931v3.15h-1.862v-6.888h1.806
			v1.021c0.103-0.224,0.235-0.408,0.399-0.553c0.163-0.145,0.336-0.254,0.518-0.329c0.183-0.074,0.364-0.126,0.546-0.154
			c0.183-0.027,0.348-0.042,0.497-0.042c0.075,0,0.147,0.003,0.217,0.008c0.07,0.004,0.143,0.012,0.218,0.021V54.214z"/>
		<path fill="#1E1E1C" d="M124.311,56.987c0.019,0.271,0.131,0.513,0.336,0.728s0.514,0.322,0.924,0.322
			c0.309,0,0.537-0.067,0.687-0.203s0.224-0.296,0.224-0.483c0-0.158-0.056-0.296-0.168-0.413c-0.112-0.116-0.304-0.202-0.574-0.259
			l-0.91-0.21c-0.672-0.149-1.161-0.408-1.47-0.777c-0.308-0.368-0.462-0.795-0.462-1.28c0-0.309,0.065-0.6,0.196-0.875
			s0.31-0.514,0.539-0.714c0.229-0.201,0.499-0.362,0.812-0.483s0.656-0.182,1.029-0.182c0.485,0,0.896,0.067,1.232,0.203
			c0.336,0.135,0.608,0.306,0.818,0.511s0.366,0.422,0.469,0.65c0.103,0.229,0.164,0.437,0.183,0.623l-1.555,0.351
			c-0.019-0.103-0.049-0.208-0.091-0.315s-0.109-0.207-0.203-0.301c-0.093-0.093-0.207-0.168-0.343-0.224
			c-0.135-0.057-0.301-0.084-0.497-0.084c-0.242,0-0.45,0.065-0.623,0.195c-0.173,0.131-0.259,0.294-0.259,0.49
			c0,0.168,0.059,0.304,0.175,0.406c0.117,0.103,0.269,0.173,0.455,0.21l0.98,0.21c0.681,0.14,1.192,0.401,1.533,0.784
			c0.34,0.383,0.511,0.826,0.511,1.33c0,0.279-0.054,0.555-0.161,0.825c-0.107,0.271-0.273,0.514-0.497,0.729
			s-0.504,0.388-0.84,0.518c-0.336,0.131-0.729,0.196-1.176,0.196c-0.523,0-0.962-0.075-1.316-0.224
			c-0.354-0.149-0.644-0.331-0.868-0.546c-0.224-0.215-0.39-0.446-0.497-0.693s-0.17-0.469-0.188-0.665L124.311,56.987z"/>
	</g>
	<g>
		<path fill="#1E1E1C" d="M15.981,103.486V94.89h1.105v7.602h4.382v0.994H15.981z"/>
		<path fill="#1E1E1C" d="M23.954,94.917c0.135,0.131,0.202,0.29,0.202,0.477s-0.067,0.345-0.202,0.476
			c-0.136,0.131-0.297,0.196-0.483,0.196S23.125,96,22.995,95.87c-0.131-0.131-0.196-0.289-0.196-0.476s0.065-0.346,0.196-0.477
			c0.13-0.13,0.289-0.195,0.476-0.195S23.818,94.788,23.954,94.917z M24.002,97.27v6.216h-1.05V97.27H24.002z"/>
		<path fill="#1E1E1C" d="M25.879,103.486V97.27h1.05v0.784c0.195-0.262,0.455-0.479,0.776-0.651
			c0.322-0.173,0.675-0.259,1.058-0.259c0.69,0,1.227,0.205,1.609,0.616c0.383,0.41,0.574,0.961,0.574,1.651v4.074h-1.063V99.58
			c0-0.447-0.115-0.805-0.344-1.07c-0.229-0.267-0.571-0.399-1.028-0.399c-0.364,0-0.691,0.109-0.98,0.329s-0.49,0.497-0.602,0.833
			v4.214H25.879z"/>
		<path fill="#1E1E1C" d="M36.813,103.486l-2.366-2.87l-0.672,0.645v2.226h-1.05v-9.1h1.05v5.642l2.842-2.758h1.386l-2.8,2.688
			l2.898,3.528H36.813z"/>
		<path fill="#1E1E1C" d="M41.796,101.778h1.092c0.196,0.635,0.687,0.952,1.471,0.952c0.382,0,0.69-0.077,0.924-0.231
			c0.233-0.153,0.35-0.385,0.35-0.692c0-0.42-0.308-0.71-0.924-0.868l-1.232-0.322c-0.998-0.252-1.498-0.798-1.498-1.638
			c0-0.541,0.21-0.982,0.631-1.323c0.42-0.341,0.951-0.511,1.596-0.511c0.672,0,1.213,0.153,1.624,0.462
			c0.41,0.308,0.672,0.742,0.784,1.302h-1.051c-0.187-0.588-0.644-0.882-1.371-0.882c-0.327,0-0.607,0.077-0.841,0.231
			C43.117,98.411,43,98.632,43,98.921c0,0.206,0.067,0.367,0.203,0.483c0.135,0.117,0.356,0.217,0.665,0.301L45.073,100
			c1.055,0.28,1.582,0.859,1.582,1.736c0,0.579-0.215,1.036-0.645,1.372c-0.429,0.336-0.984,0.504-1.666,0.504
			s-1.253-0.163-1.715-0.49C42.167,102.795,41.89,102.347,41.796,101.778z"/>
		<path fill="#1E1E1C" d="M48.111,103.486v-9.1h1.05v3.668c0.195-0.262,0.455-0.479,0.776-0.651
			c0.322-0.173,0.675-0.259,1.058-0.259c0.69,0,1.227,0.205,1.609,0.616c0.383,0.41,0.574,0.961,0.574,1.651v4.074h-1.063V99.58
			c0-0.447-0.115-0.805-0.344-1.07c-0.229-0.267-0.571-0.399-1.028-0.399c-0.364,0-0.691,0.109-0.98,0.329s-0.49,0.497-0.602,0.833
			v4.214H48.111z"/>
		<path fill="#1E1E1C" d="M59.464,103.486h-1.008v-0.462c-0.131,0.14-0.351,0.271-0.658,0.392c-0.309,0.121-0.635,0.183-0.98,0.183
			c-0.653,0-1.201-0.183-1.645-0.546c-0.443-0.364-0.665-0.845-0.665-1.442c0-0.569,0.229-1.036,0.686-1.4
			c0.457-0.363,1.022-0.546,1.694-0.546c0.308,0,0.611,0.052,0.91,0.154c0.298,0.103,0.518,0.22,0.658,0.35v-0.783
			c0-0.401-0.119-0.724-0.357-0.967c-0.238-0.242-0.576-0.363-1.015-0.363c-0.654,0-1.078,0.284-1.274,0.854h-1.036
			c0.103-0.522,0.366-0.947,0.791-1.273c0.425-0.327,0.936-0.49,1.533-0.49c0.737,0,1.316,0.195,1.736,0.588
			c0.42,0.392,0.63,0.929,0.63,1.61V103.486z M58.457,101.946v-0.644c-0.094-0.225-0.278-0.408-0.554-0.554
			c-0.275-0.145-0.576-0.217-0.902-0.217c-0.411,0-0.762,0.094-1.051,0.28s-0.434,0.453-0.434,0.798
			c0,0.354,0.145,0.628,0.434,0.819s0.64,0.287,1.051,0.287c0.326,0,0.627-0.072,0.902-0.218
			C58.178,102.354,58.363,102.169,58.457,101.946z"/>
		<path fill="#1E1E1C" d="M64.448,97.242v1.078c-0.168-0.112-0.401-0.168-0.7-0.168c-0.336,0-0.635,0.103-0.896,0.308
			c-0.262,0.206-0.443,0.49-0.546,0.854v4.172h-1.05V97.27h1.05v0.812c0.14-0.271,0.348-0.494,0.623-0.672
			c0.274-0.177,0.581-0.266,0.917-0.266C64.117,97.144,64.317,97.176,64.448,97.242z"/>
		<path fill="#1E1E1C" d="M66.751,94.917c0.135,0.131,0.202,0.29,0.202,0.477s-0.067,0.345-0.202,0.476
			c-0.136,0.131-0.297,0.196-0.483,0.196S65.922,96,65.792,95.87c-0.131-0.131-0.196-0.289-0.196-0.476s0.065-0.346,0.196-0.477
			c0.13-0.13,0.289-0.195,0.476-0.195S66.616,94.788,66.751,94.917z M66.8,97.27v6.216h-1.05V97.27H66.8z"/>
		<path fill="#1E1E1C" d="M68.676,103.486V97.27h1.05v0.784c0.195-0.262,0.455-0.479,0.776-0.651
			c0.322-0.173,0.675-0.259,1.058-0.259c0.69,0,1.227,0.205,1.609,0.616c0.383,0.41,0.574,0.961,0.574,1.651v4.074H72.68V99.58
			c0-0.447-0.115-0.805-0.344-1.07c-0.229-0.267-0.571-0.399-1.028-0.399c-0.364,0-0.691,0.109-0.98,0.329s-0.49,0.497-0.602,0.833
			v4.214H68.676z"/>
		<path fill="#1E1E1C" d="M79.595,103.066v-0.462c-0.168,0.233-0.408,0.432-0.721,0.595s-0.651,0.245-1.015,0.245
			c-0.868,0-1.55-0.308-2.044-0.924c-0.495-0.616-0.742-1.358-0.742-2.227c0-0.877,0.247-1.621,0.742-2.232
			c0.494-0.611,1.176-0.917,2.044-0.917c0.363,0,0.702,0.079,1.015,0.238c0.312,0.158,0.553,0.354,0.721,0.588v-0.7h1.064v5.726
			c0,0.989-0.255,1.738-0.763,2.247c-0.51,0.509-1.179,0.762-2.01,0.762c-0.746,0-1.351-0.182-1.812-0.545
			c-0.462-0.363-0.744-0.867-0.848-1.512h1.036c0.178,0.774,0.719,1.162,1.624,1.162C79.026,105.11,79.595,104.428,79.595,103.066z
			 M79.595,101.526v-2.479c-0.354-0.644-0.882-0.966-1.582-0.966c-0.578,0-1.033,0.206-1.364,0.616
			c-0.332,0.411-0.497,0.943-0.497,1.596c0,0.653,0.165,1.184,0.497,1.59c0.331,0.405,0.786,0.608,1.364,0.608
			C78.713,102.492,79.241,102.169,79.595,101.526z"/>
		<path fill="#1E1E1C" d="M90.103,98.046c0.527,0.603,0.791,1.38,0.791,2.331c0,0.952-0.264,1.729-0.791,2.331
			c-0.527,0.603-1.216,0.903-2.065,0.903c-0.849,0-1.537-0.301-2.064-0.903c-0.527-0.602-0.791-1.379-0.791-2.331
			c0-0.951,0.264-1.729,0.791-2.331c0.527-0.602,1.216-0.902,2.064-0.902C88.887,97.144,89.576,97.445,90.103,98.046z
			 M89.347,102.051c0.321-0.425,0.482-0.982,0.482-1.674c0-0.69-0.161-1.248-0.482-1.673c-0.322-0.425-0.759-0.637-1.31-0.637
			s-0.986,0.212-1.309,0.637s-0.483,0.982-0.483,1.673c0,0.691,0.161,1.249,0.483,1.674s0.758,0.637,1.309,0.637
			S89.025,102.476,89.347,102.051z"/>
		<path fill="#1E1E1C" d="M92.322,103.486V97.27h1.05v0.784c0.195-0.262,0.455-0.479,0.776-0.651
			c0.322-0.173,0.675-0.259,1.058-0.259c0.69,0,1.227,0.205,1.609,0.616c0.383,0.41,0.574,0.961,0.574,1.651v4.074h-1.063V99.58
			c0-0.447-0.115-0.805-0.344-1.07c-0.229-0.267-0.571-0.399-1.028-0.399c-0.364,0-0.691,0.109-0.98,0.329s-0.49,0.497-0.602,0.833
			v4.214H92.322z"/>
	</g>
	<g>
		<path fill="#1E1E1C" d="M28.613,127.479h1.036l3.359,8.596h-1.12l-0.994-2.59h-3.542l-0.979,2.59h-1.12L28.613,127.479z
			 M29.117,128.851l-1.4,3.668h2.8L29.117,128.851z"/>
		<path fill="#1E1E1C" d="M34.241,136.075v-6.217h1.05v0.785c0.195-0.262,0.455-0.479,0.776-0.652
			c0.322-0.172,0.675-0.258,1.058-0.258c0.69,0,1.227,0.205,1.609,0.615s0.574,0.961,0.574,1.652v4.074h-1.063v-3.906
			c0-0.447-0.115-0.805-0.344-1.07c-0.229-0.268-0.571-0.4-1.028-0.4c-0.364,0-0.691,0.109-0.98,0.33
			c-0.289,0.219-0.49,0.496-0.602,0.832v4.215H34.241z"/>
		<path fill="#1E1E1C" d="M42.851,138.454h-1.036l0.938-2.338l-2.422-6.258h1.134l1.834,4.9l1.807-4.9h1.092L42.851,138.454z"/>
		<path fill="#1E1E1C" d="M51.748,130.636c0.527,0.602,0.791,1.379,0.791,2.33c0,0.953-0.264,1.73-0.791,2.332
			s-1.216,0.902-2.065,0.902c-0.849,0-1.537-0.301-2.064-0.902s-0.791-1.379-0.791-2.332c0-0.951,0.264-1.729,0.791-2.33
			s1.216-0.902,2.064-0.902C50.532,129.733,51.22,130.034,51.748,130.636z M50.992,134.64c0.321-0.424,0.482-0.982,0.482-1.674
			c0-0.689-0.161-1.248-0.482-1.672c-0.322-0.426-0.759-0.637-1.31-0.637s-0.986,0.211-1.309,0.637
			c-0.322,0.424-0.483,0.982-0.483,1.672c0,0.691,0.161,1.25,0.483,1.674c0.322,0.426,0.758,0.637,1.309,0.637
			S50.669,135.065,50.992,134.64z"/>
		<path fill="#1E1E1C" d="M53.967,136.075v-6.217h1.05v0.785c0.195-0.262,0.455-0.479,0.776-0.652
			c0.322-0.172,0.675-0.258,1.058-0.258c0.69,0,1.227,0.205,1.609,0.615s0.574,0.961,0.574,1.652v4.074h-1.063v-3.906
			c0-0.447-0.115-0.805-0.344-1.07c-0.229-0.268-0.571-0.4-1.028-0.4c-0.364,0-0.691,0.109-0.98,0.33
			c-0.289,0.219-0.49,0.496-0.602,0.832v4.215H53.967z"/>
		<path fill="#1E1E1C" d="M64.733,134.212h0.993c-0.111,0.607-0.387,1.09-0.825,1.449c-0.439,0.359-0.999,0.539-1.681,0.539
			c-0.849,0-1.537-0.295-2.064-0.889c-0.527-0.592-0.791-1.369-0.791-2.33c0-0.943,0.261-1.721,0.784-2.332
			c0.522-0.611,1.203-0.916,2.044-0.916c0.83,0,1.475,0.277,1.932,0.832c0.457,0.557,0.686,1.295,0.686,2.219v0.379h-4.396
			c0.009,0.652,0.18,1.174,0.511,1.561s0.764,0.582,1.295,0.582c0.393,0,0.722-0.096,0.987-0.287S64.649,134.558,64.733,134.212z
			 M63.207,130.628c-0.467,0-0.858,0.154-1.176,0.463s-0.514,0.732-0.588,1.273h3.304c-0.01-0.494-0.145-0.906-0.406-1.238
			C64.08,130.794,63.701,130.628,63.207,130.628z"/>
		<path fill="#1E1E1C" d="M74.251,129.858l1.274,4.746l1.372-4.746h1.021l-1.834,6.217h-1.021l-1.288-4.719l-1.302,4.719h-1.022
			l-1.834-6.217h1.05l1.372,4.746l1.274-4.746H74.251z"/>
		<path fill="#1E1E1C" d="M80.112,127.507c0.135,0.131,0.202,0.289,0.202,0.477c0,0.186-0.067,0.344-0.202,0.475
			c-0.136,0.131-0.297,0.197-0.483,0.197s-0.346-0.066-0.476-0.197c-0.131-0.131-0.196-0.289-0.196-0.475
			c0-0.188,0.065-0.346,0.196-0.477c0.13-0.131,0.289-0.195,0.476-0.195S79.976,127.376,80.112,127.507z M80.161,129.858v6.217
			h-1.05v-6.217H80.161z"/>
		<path fill="#1E1E1C" d="M82.331,134.507v-3.752h-1.009v-0.896h1.009v-1.637h1.05v1.637h1.498v0.896H83.38v3.641
			c0,0.578,0.275,0.867,0.826,0.867c0.289,0,0.56-0.084,0.812-0.252v0.98c-0.262,0.139-0.588,0.209-0.979,0.209
			c-0.523,0-0.938-0.143-1.246-0.426C82.484,135.489,82.331,135.067,82.331,134.507z"/>
		<path fill="#1E1E1C" d="M86.474,136.075v-9.1h1.05v3.668c0.195-0.262,0.455-0.479,0.776-0.652
			c0.322-0.172,0.675-0.258,1.058-0.258c0.69,0,1.227,0.205,1.609,0.615s0.574,0.961,0.574,1.652v4.074h-1.063v-3.906
			c0-0.447-0.115-0.805-0.344-1.07c-0.229-0.268-0.571-0.4-1.028-0.4c-0.364,0-0.691,0.109-0.98,0.33
			c-0.289,0.219-0.49,0.496-0.602,0.832v4.215H86.474z"/>
		<path fill="#1E1E1C" d="M96.708,134.507v-3.752H95.7v-0.896h1.009v-1.637h1.05v1.637h1.498v0.896h-1.498v3.641
			c0,0.578,0.275,0.867,0.826,0.867c0.289,0,0.56-0.084,0.812-0.252v0.98c-0.262,0.139-0.588,0.209-0.979,0.209
			c-0.523,0-0.938-0.143-1.246-0.426C96.862,135.489,96.708,135.067,96.708,134.507z"/>
		<path fill="#1E1E1C" d="M100.852,136.075v-9.1h1.05v3.668c0.195-0.262,0.455-0.479,0.776-0.652
			c0.322-0.172,0.675-0.258,1.058-0.258c0.69,0,1.227,0.205,1.609,0.615s0.574,0.961,0.574,1.652v4.074h-1.063v-3.906
			c0-0.447-0.115-0.805-0.344-1.07c-0.229-0.268-0.571-0.4-1.028-0.4c-0.364,0-0.691,0.109-0.98,0.33
			c-0.289,0.219-0.49,0.496-0.602,0.832v4.215H100.852z"/>
		<path fill="#1E1E1C" d="M111.618,134.212h0.993c-0.111,0.607-0.387,1.09-0.825,1.449c-0.439,0.359-0.999,0.539-1.681,0.539
			c-0.849,0-1.537-0.295-2.064-0.889c-0.527-0.592-0.791-1.369-0.791-2.33c0-0.943,0.261-1.721,0.784-2.332
			c0.522-0.611,1.203-0.916,2.044-0.916c0.83,0,1.475,0.277,1.932,0.832c0.457,0.557,0.686,1.295,0.686,2.219v0.379h-4.396
			c0.009,0.652,0.18,1.174,0.511,1.561s0.764,0.582,1.295,0.582c0.393,0,0.722-0.096,0.987-0.287S111.534,134.558,111.618,134.212z
			 M110.091,130.628c-0.467,0-0.858,0.154-1.176,0.463s-0.514,0.732-0.588,1.273h3.304c-0.01-0.494-0.145-0.906-0.406-1.238
			C110.964,130.794,110.585,130.628,110.091,130.628z"/>
		<path fill="#1E1E1C" d="M118.24,126.976v9.1h-1.05v-9.1H118.24z"/>
		<path fill="#1E1E1C" d="M121.117,127.507c0.135,0.131,0.202,0.289,0.202,0.477c0,0.186-0.067,0.344-0.202,0.475
			c-0.136,0.131-0.297,0.197-0.483,0.197s-0.346-0.066-0.476-0.197c-0.131-0.131-0.196-0.289-0.196-0.475
			c0-0.188,0.065-0.346,0.196-0.477c0.13-0.131,0.289-0.195,0.476-0.195S120.981,127.376,121.117,127.507z M121.166,129.858v6.217
			h-1.05v-6.217H121.166z"/>
		<path fill="#1E1E1C" d="M123.042,136.075v-6.217h1.05v0.785c0.195-0.262,0.455-0.479,0.776-0.652
			c0.322-0.172,0.675-0.258,1.058-0.258c0.69,0,1.227,0.205,1.609,0.615s0.574,0.961,0.574,1.652v4.074h-1.063v-3.906
			c0-0.447-0.115-0.805-0.344-1.07c-0.229-0.268-0.571-0.4-1.028-0.4c-0.364,0-0.691,0.109-0.98,0.33
			c-0.289,0.219-0.49,0.496-0.602,0.832v4.215H123.042z"/>
		<path fill="#1E1E1C" d="M133.975,136.075l-2.366-2.871l-0.672,0.645v2.227h-1.05v-9.1h1.05v5.641l2.842-2.758h1.386l-2.8,2.688
			l2.898,3.529H133.975z"/>
		<path fill="#1E1E1C" d="M139.813,135.306c-0.523-0.598-0.784-1.377-0.784-2.34c0-0.961,0.261-1.74,0.784-2.338
			c0.522-0.596,1.203-0.895,2.044-0.895c0.681,0,1.238,0.182,1.673,0.545c0.434,0.365,0.707,0.85,0.818,1.457h-1.077
			c-0.075-0.336-0.236-0.6-0.483-0.791s-0.558-0.287-0.931-0.287c-0.532,0-0.959,0.215-1.281,0.643
			c-0.322,0.43-0.483,0.986-0.483,1.666c0,0.682,0.161,1.238,0.483,1.666c0.322,0.43,0.749,0.645,1.281,0.645
			c0.373,0,0.684-0.096,0.931-0.287s0.408-0.455,0.483-0.791h1.077c-0.111,0.607-0.385,1.092-0.818,1.457
			c-0.435,0.363-0.992,0.545-1.673,0.545C141.016,136.2,140.335,135.901,139.813,135.306z"/>
		<path fill="#1E1E1C" d="M150.229,136.075h-1.008v-0.463c-0.131,0.141-0.351,0.271-0.658,0.393
			c-0.309,0.121-0.635,0.182-0.98,0.182c-0.653,0-1.201-0.182-1.645-0.545c-0.443-0.365-0.665-0.846-0.665-1.443
			c0-0.568,0.229-1.035,0.686-1.4c0.457-0.363,1.022-0.545,1.694-0.545c0.308,0,0.611,0.051,0.91,0.154
			c0.298,0.102,0.518,0.219,0.658,0.35v-0.783c0-0.402-0.119-0.725-0.357-0.967s-0.576-0.363-1.015-0.363
			c-0.654,0-1.078,0.283-1.274,0.854h-1.036c0.103-0.523,0.366-0.947,0.791-1.273c0.425-0.328,0.936-0.49,1.533-0.49
			c0.737,0,1.316,0.195,1.736,0.588c0.42,0.391,0.63,0.928,0.63,1.609V136.075z M149.221,134.534v-0.643
			c-0.094-0.225-0.278-0.408-0.554-0.555c-0.275-0.145-0.576-0.217-0.902-0.217c-0.411,0-0.762,0.094-1.051,0.281
			c-0.289,0.186-0.434,0.453-0.434,0.797c0,0.355,0.145,0.629,0.434,0.82s0.64,0.287,1.051,0.287c0.326,0,0.627-0.072,0.902-0.219
			C148.943,134.942,149.127,134.759,149.221,134.534z"/>
		<path fill="#1E1E1C" d="M152.021,136.075v-6.217h1.05v0.785c0.195-0.262,0.455-0.479,0.776-0.652
			c0.322-0.172,0.675-0.258,1.058-0.258c0.69,0,1.227,0.205,1.609,0.615s0.574,0.961,0.574,1.652v4.074h-1.063v-3.906
			c0-0.447-0.115-0.805-0.344-1.07c-0.229-0.268-0.571-0.4-1.028-0.4c-0.364,0-0.691,0.109-0.98,0.33
			c-0.289,0.219-0.49,0.496-0.602,0.832v4.215H152.021z"/>
		<path fill="#1E1E1C" d="M164.719,136.075h-1.036l-2.408-6.217h1.134l1.82,4.887l1.806-4.887h1.106L164.719,136.075z"/>
		<path fill="#1E1E1C" d="M169.332,127.507c0.135,0.131,0.202,0.289,0.202,0.477c0,0.186-0.067,0.344-0.202,0.475
			c-0.136,0.131-0.297,0.197-0.483,0.197s-0.346-0.066-0.476-0.197c-0.131-0.131-0.196-0.289-0.196-0.475
			c0-0.188,0.065-0.346,0.196-0.477c0.13-0.131,0.289-0.195,0.476-0.195S169.196,127.376,169.332,127.507z M169.38,129.858v6.217
			h-1.05v-6.217H169.38z"/>
		<path fill="#1E1E1C" d="M175.177,134.212h0.993c-0.111,0.607-0.387,1.09-0.825,1.449c-0.439,0.359-0.999,0.539-1.681,0.539
			c-0.849,0-1.537-0.295-2.064-0.889c-0.527-0.592-0.791-1.369-0.791-2.33c0-0.943,0.261-1.721,0.784-2.332
			c0.522-0.611,1.203-0.916,2.044-0.916c0.83,0,1.475,0.277,1.932,0.832c0.457,0.557,0.686,1.295,0.686,2.219v0.379h-4.396
			c0.009,0.652,0.18,1.174,0.511,1.561s0.764,0.582,1.295,0.582c0.393,0,0.722-0.096,0.987-0.287S175.093,134.558,175.177,134.212z
			 M173.651,130.628c-0.467,0-0.858,0.154-1.176,0.463s-0.514,0.732-0.588,1.273h3.304c-0.01-0.494-0.145-0.906-0.406-1.238
			C174.524,130.794,174.145,130.628,173.651,130.628z"/>
		<path fill="#1E1E1C" d="M181.602,129.858l1.274,4.746l1.372-4.746h1.021l-1.834,6.217h-1.021l-1.288-4.719l-1.302,4.719h-1.022
			l-1.834-6.217h1.05l1.372,4.746l1.274-4.746H181.602z"/>
	</g>
	<g>
		<path fill="#324C9B" d="M21.897,164.503v-9.1h1.05v3.668c0.195-0.262,0.455-0.479,0.776-0.65c0.322-0.174,0.675-0.26,1.058-0.26
			c0.69,0,1.227,0.205,1.609,0.617c0.383,0.41,0.574,0.961,0.574,1.65v4.074h-1.063v-3.906c0-0.447-0.115-0.805-0.344-1.07
			s-0.571-0.398-1.028-0.398c-0.364,0-0.691,0.109-0.98,0.328c-0.289,0.221-0.49,0.498-0.602,0.834v4.213H21.897z"/>
		<path fill="#324C9B" d="M29.037,162.935v-3.752h-1.009v-0.895h1.009v-1.639h1.05v1.639h1.498v0.895h-1.498v3.641
			c0,0.578,0.275,0.869,0.826,0.869c0.289,0,0.56-0.086,0.812-0.254v0.98c-0.262,0.141-0.588,0.211-0.979,0.211
			c-0.523,0-0.938-0.143-1.246-0.428C29.19,163.917,29.037,163.495,29.037,162.935z"/>
		<path fill="#324C9B" d="M33.475,162.935v-3.752h-1.009v-0.895h1.009v-1.639h1.05v1.639h1.498v0.895h-1.498v3.641
			c0,0.578,0.275,0.869,0.826,0.869c0.289,0,0.56-0.086,0.812-0.254v0.98c-0.262,0.141-0.588,0.211-0.979,0.211
			c-0.523,0-0.938-0.143-1.246-0.428C33.628,163.917,33.475,163.495,33.475,162.935z"/>
		<path fill="#324C9B" d="M38.668,163.776v3.107h-1.05v-8.596h1.05v0.727c0.177-0.242,0.422-0.445,0.734-0.607
			c0.312-0.164,0.651-0.246,1.016-0.246c0.877,0,1.562,0.311,2.058,0.932s0.742,1.389,0.742,2.303s-0.247,1.682-0.742,2.303
			s-1.181,0.932-2.058,0.932c-0.364,0-0.703-0.082-1.016-0.246C39.09,164.222,38.845,164.019,38.668,163.776z M38.668,160.136v2.52
			c0.158,0.318,0.38,0.566,0.665,0.75c0.284,0.182,0.595,0.271,0.931,0.271c0.578,0,1.038-0.211,1.379-0.637
			c0.341-0.424,0.511-0.973,0.511-1.645s-0.17-1.221-0.511-1.645c-0.341-0.426-0.801-0.637-1.379-0.637
			c-0.336,0-0.646,0.09-0.931,0.271C39.048,159.569,38.827,159.817,38.668,160.136z"/>
		<path fill="#324C9B" d="M44.128,162.796h1.092c0.196,0.635,0.687,0.951,1.471,0.951c0.382,0,0.69-0.076,0.924-0.23
			s0.35-0.385,0.35-0.693c0-0.42-0.308-0.709-0.924-0.867l-1.232-0.322c-0.998-0.252-1.498-0.799-1.498-1.639
			c0-0.541,0.21-0.982,0.631-1.322c0.42-0.342,0.951-0.512,1.596-0.512c0.672,0,1.213,0.154,1.624,0.463
			c0.41,0.307,0.672,0.742,0.784,1.301h-1.051c-0.187-0.588-0.644-0.881-1.371-0.881c-0.327,0-0.607,0.076-0.841,0.23
			s-0.35,0.375-0.35,0.664c0,0.207,0.067,0.367,0.203,0.484c0.135,0.117,0.356,0.217,0.665,0.301l1.204,0.293
			c1.055,0.281,1.582,0.859,1.582,1.736c0,0.58-0.215,1.037-0.645,1.373c-0.429,0.336-0.984,0.504-1.666,0.504
			s-1.253-0.164-1.715-0.49S44.222,163.364,44.128,162.796z"/>
		<path fill="#324C9B" d="M50.168,159.96c-0.145-0.145-0.217-0.324-0.217-0.539s0.072-0.396,0.217-0.545
			c0.145-0.15,0.324-0.225,0.539-0.225c0.205,0,0.38,0.074,0.524,0.225c0.146,0.148,0.218,0.33,0.218,0.545
			s-0.072,0.395-0.218,0.539c-0.145,0.145-0.319,0.217-0.524,0.217C50.493,160.177,50.313,160.104,50.168,159.96z M50.168,164.356
			c-0.145-0.145-0.217-0.324-0.217-0.539s0.072-0.396,0.217-0.547c0.145-0.148,0.324-0.223,0.539-0.223
			c0.205,0,0.38,0.074,0.524,0.223c0.146,0.15,0.218,0.332,0.218,0.547s-0.072,0.395-0.218,0.539
			c-0.145,0.145-0.319,0.217-0.524,0.217C50.493,164.573,50.313,164.501,50.168,164.356z"/>
		<path fill="#324C9B" d="M52.066,165.679l3.472-10.275h1.05l-3.472,10.275H52.066z"/>
		<path fill="#324C9B" d="M55.131,165.679l3.472-10.275h1.05l-3.472,10.275H55.131z"/>
		<path fill="#324C9B" d="M63.952,164.503v-0.727c-0.168,0.242-0.411,0.445-0.729,0.607c-0.317,0.164-0.657,0.246-1.021,0.246
			c-0.878,0-1.563-0.309-2.058-0.924c-0.495-0.617-0.742-1.387-0.742-2.311c0-0.914,0.247-1.682,0.742-2.303
			c0.494-0.621,1.18-0.932,2.058-0.932c0.364,0,0.704,0.082,1.021,0.246c0.317,0.162,0.561,0.365,0.729,0.607v-3.611h1.063v9.1
			H63.952z M63.952,162.655v-2.52c-0.159-0.318-0.381-0.566-0.665-0.75c-0.285-0.182-0.595-0.271-0.931-0.271
			c-0.579,0-1.039,0.211-1.379,0.637c-0.341,0.424-0.512,0.973-0.512,1.645s0.171,1.221,0.512,1.645
			c0.34,0.426,0.8,0.637,1.379,0.637c0.336,0,0.646-0.09,0.931-0.271C63.571,163.222,63.792,162.974,63.952,162.655z"/>
		<path fill="#324C9B" d="M71.35,159.063c0.527,0.604,0.791,1.381,0.791,2.332s-0.264,1.729-0.791,2.33
			c-0.527,0.604-1.216,0.904-2.065,0.904c-0.849,0-1.537-0.301-2.064-0.904c-0.527-0.602-0.791-1.379-0.791-2.33
			s0.264-1.729,0.791-2.332c0.527-0.602,1.216-0.902,2.064-0.902C70.134,158.161,70.823,158.462,71.35,159.063z M70.594,163.069
			c0.321-0.426,0.482-0.982,0.482-1.674s-0.161-1.248-0.482-1.674c-0.322-0.424-0.759-0.637-1.31-0.637s-0.986,0.213-1.309,0.637
			c-0.322,0.426-0.483,0.982-0.483,1.674s0.161,1.248,0.483,1.674c0.322,0.424,0.758,0.637,1.309,0.637
			S70.272,163.493,70.594,163.069z"/>
		<path fill="#324C9B" d="M73.934,163.733c-0.523-0.598-0.784-1.377-0.784-2.338s0.261-1.74,0.784-2.338
			c0.522-0.598,1.203-0.896,2.044-0.896c0.681,0,1.238,0.182,1.673,0.547c0.434,0.363,0.707,0.85,0.818,1.455h-1.077
			c-0.075-0.336-0.236-0.6-0.483-0.791s-0.558-0.287-0.931-0.287c-0.532,0-0.959,0.215-1.281,0.645s-0.483,0.984-0.483,1.666
			s0.161,1.236,0.483,1.666s0.749,0.645,1.281,0.645c0.373,0,0.684-0.096,0.931-0.287s0.408-0.455,0.483-0.791h1.077
			c-0.111,0.605-0.385,1.092-0.818,1.455c-0.435,0.365-0.992,0.547-1.673,0.547C75.137,164.63,74.457,164.331,73.934,163.733z"/>
		<path fill="#324C9B" d="M79.351,162.796h1.092c0.196,0.635,0.687,0.951,1.471,0.951c0.382,0,0.69-0.076,0.924-0.23
			s0.35-0.385,0.35-0.693c0-0.42-0.308-0.709-0.924-0.867l-1.232-0.322c-0.998-0.252-1.498-0.799-1.498-1.639
			c0-0.541,0.21-0.982,0.631-1.322c0.42-0.342,0.951-0.512,1.596-0.512c0.672,0,1.213,0.154,1.624,0.463
			c0.41,0.307,0.672,0.742,0.784,1.301h-1.051c-0.187-0.588-0.644-0.881-1.371-0.881c-0.327,0-0.607,0.076-0.841,0.23
			s-0.35,0.375-0.35,0.664c0,0.207,0.067,0.367,0.203,0.484c0.135,0.117,0.356,0.217,0.665,0.301l1.204,0.293
			c1.055,0.281,1.582,0.859,1.582,1.736c0,0.58-0.215,1.037-0.645,1.373c-0.429,0.336-0.984,0.504-1.666,0.504
			s-1.253-0.164-1.715-0.49S79.445,163.364,79.351,162.796z"/>
		<path fill="#324C9B" d="M85.392,164.356c-0.145-0.145-0.217-0.324-0.217-0.539s0.072-0.396,0.217-0.547
			c0.145-0.148,0.324-0.223,0.539-0.223c0.205,0,0.38,0.074,0.524,0.223c0.146,0.15,0.218,0.332,0.218,0.547
			s-0.072,0.395-0.218,0.539c-0.145,0.145-0.319,0.217-0.524,0.217C85.716,164.573,85.537,164.501,85.392,164.356z"/>
		<path fill="#324C9B" d="M91.993,164.083v-0.461c-0.168,0.232-0.408,0.432-0.721,0.594c-0.312,0.164-0.651,0.246-1.015,0.246
			c-0.868,0-1.55-0.309-2.044-0.924c-0.495-0.617-0.742-1.359-0.742-2.227c0-0.877,0.247-1.621,0.742-2.232
			c0.494-0.611,1.176-0.918,2.044-0.918c0.363,0,0.702,0.08,1.015,0.238s0.553,0.355,0.721,0.588v-0.699h1.064v5.725
			c0,0.99-0.255,1.738-0.763,2.248c-0.51,0.508-1.179,0.762-2.01,0.762c-0.746,0-1.351-0.182-1.812-0.545s-0.744-0.867-0.848-1.512
			h1.036c0.178,0.773,0.719,1.162,1.624,1.162C91.423,166.128,91.993,165.446,91.993,164.083z M91.993,162.544v-2.479
			c-0.354-0.645-0.882-0.967-1.582-0.967c-0.578,0-1.033,0.207-1.364,0.617c-0.332,0.41-0.497,0.943-0.497,1.596
			s0.165,1.184,0.497,1.59c0.331,0.404,0.786,0.607,1.364,0.607C91.111,163.509,91.638,163.187,91.993,162.544z"/>
		<path fill="#324C9B" d="M99.406,159.063c0.527,0.604,0.791,1.381,0.791,2.332s-0.264,1.729-0.791,2.33
			c-0.527,0.604-1.216,0.904-2.065,0.904c-0.849,0-1.537-0.301-2.064-0.904c-0.527-0.602-0.791-1.379-0.791-2.33
			s0.264-1.729,0.791-2.332c0.527-0.602,1.216-0.902,2.064-0.902C98.19,158.161,98.878,158.462,99.406,159.063z M98.65,163.069
			c0.321-0.426,0.482-0.982,0.482-1.674s-0.161-1.248-0.482-1.674c-0.322-0.424-0.759-0.637-1.31-0.637s-0.986,0.213-1.309,0.637
			c-0.322,0.426-0.483,0.982-0.483,1.674s0.161,1.248,0.483,1.674c0.322,0.424,0.758,0.637,1.309,0.637
			S98.328,163.493,98.65,163.069z"/>
		<path fill="#324C9B" d="M106.126,159.063c0.527,0.604,0.791,1.381,0.791,2.332s-0.264,1.729-0.791,2.33
			c-0.527,0.604-1.216,0.904-2.065,0.904c-0.849,0-1.537-0.301-2.064-0.904c-0.527-0.602-0.791-1.379-0.791-2.33
			s0.264-1.729,0.791-2.332c0.527-0.602,1.216-0.902,2.064-0.902C104.911,158.161,105.599,158.462,106.126,159.063z
			 M105.371,163.069c0.321-0.426,0.482-0.982,0.482-1.674s-0.161-1.248-0.482-1.674c-0.322-0.424-0.759-0.637-1.31-0.637
			s-0.986,0.213-1.309,0.637c-0.322,0.426-0.483,0.982-0.483,1.674s0.161,1.248,0.483,1.674c0.322,0.424,0.758,0.637,1.309,0.637
			S105.048,163.493,105.371,163.069z"/>
		<path fill="#324C9B" d="M112.447,164.083v-0.461c-0.168,0.232-0.408,0.432-0.721,0.594c-0.312,0.164-0.651,0.246-1.015,0.246
			c-0.868,0-1.55-0.309-2.044-0.924c-0.495-0.617-0.742-1.359-0.742-2.227c0-0.877,0.247-1.621,0.742-2.232
			c0.494-0.611,1.176-0.918,2.044-0.918c0.363,0,0.702,0.08,1.015,0.238s0.553,0.355,0.721,0.588v-0.699h1.064v5.725
			c0,0.99-0.255,1.738-0.763,2.248c-0.51,0.508-1.179,0.762-2.01,0.762c-0.746,0-1.351-0.182-1.812-0.545s-0.744-0.867-0.848-1.512
			h1.036c0.178,0.773,0.719,1.162,1.624,1.162C111.877,166.128,112.447,165.446,112.447,164.083z M112.447,162.544v-2.479
			c-0.354-0.645-0.882-0.967-1.582-0.967c-0.578,0-1.033,0.207-1.364,0.617c-0.332,0.41-0.497,0.943-0.497,1.596
			s0.165,1.184,0.497,1.59c0.331,0.404,0.786,0.607,1.364,0.607C111.565,163.509,112.092,163.187,112.447,162.544z"/>
		<path fill="#324C9B" d="M116.437,155.403v9.1h-1.05v-9.1H116.437z"/>
		<path fill="#324C9B" d="M122.233,162.642h0.993c-0.111,0.607-0.387,1.09-0.825,1.449c-0.439,0.359-0.999,0.539-1.681,0.539
			c-0.849,0-1.537-0.297-2.064-0.889c-0.527-0.594-0.791-1.371-0.791-2.332c0-0.941,0.261-1.719,0.784-2.33
			c0.522-0.611,1.203-0.918,2.044-0.918c0.83,0,1.475,0.277,1.932,0.834c0.457,0.555,0.686,1.295,0.686,2.219v0.377h-4.396
			c0.009,0.654,0.18,1.174,0.511,1.562c0.331,0.387,0.764,0.58,1.295,0.58c0.393,0,0.722-0.096,0.987-0.287
			S122.149,162.987,122.233,162.642z M120.707,159.058c-0.467,0-0.858,0.154-1.176,0.461c-0.317,0.309-0.514,0.734-0.588,1.275
			h3.304c-0.01-0.496-0.145-0.908-0.406-1.24C121.58,159.224,121.201,159.058,120.707,159.058z"/>
		<path fill="#324C9B" d="M124.438,164.356c-0.145-0.145-0.217-0.324-0.217-0.539s0.072-0.396,0.217-0.547
			c0.145-0.148,0.324-0.223,0.539-0.223c0.205,0,0.38,0.074,0.524,0.223c0.146,0.15,0.218,0.332,0.218,0.547
			s-0.072,0.395-0.218,0.539c-0.145,0.145-0.319,0.217-0.524,0.217C124.762,164.573,124.583,164.501,124.438,164.356z"/>
		<path fill="#324C9B" d="M127.259,163.733c-0.523-0.598-0.784-1.377-0.784-2.338s0.261-1.74,0.784-2.338
			c0.522-0.598,1.203-0.896,2.044-0.896c0.681,0,1.238,0.182,1.673,0.547c0.434,0.363,0.707,0.85,0.818,1.455h-1.077
			c-0.075-0.336-0.236-0.6-0.483-0.791s-0.558-0.287-0.931-0.287c-0.532,0-0.959,0.215-1.281,0.645s-0.483,0.984-0.483,1.666
			s0.161,1.236,0.483,1.666s0.749,0.645,1.281,0.645c0.373,0,0.684-0.096,0.931-0.287s0.408-0.455,0.483-0.791h1.077
			c-0.111,0.605-0.385,1.092-0.818,1.455c-0.435,0.365-0.992,0.547-1.673,0.547C128.462,164.63,127.782,164.331,127.259,163.733z"/>
		<path fill="#324C9B" d="M137.612,159.063c0.527,0.604,0.791,1.381,0.791,2.332s-0.264,1.729-0.791,2.33
			c-0.527,0.604-1.216,0.904-2.065,0.904c-0.849,0-1.537-0.301-2.064-0.904c-0.527-0.602-0.791-1.379-0.791-2.33
			s0.264-1.729,0.791-2.332c0.527-0.602,1.216-0.902,2.064-0.902C136.396,158.161,137.084,158.462,137.612,159.063z
			 M136.856,163.069c0.321-0.426,0.482-0.982,0.482-1.674s-0.161-1.248-0.482-1.674c-0.322-0.424-0.759-0.637-1.31-0.637
			s-0.986,0.213-1.309,0.637c-0.322,0.426-0.483,0.982-0.483,1.674s0.161,1.248,0.483,1.674c0.322,0.424,0.758,0.637,1.309,0.637
			S136.534,163.493,136.856,163.069z"/>
		<path fill="#324C9B" d="M144.24,159.155c0.467-0.662,1.097-0.994,1.891-0.994c0.625,0,1.107,0.201,1.448,0.602
			c0.341,0.402,0.512,0.943,0.512,1.625v4.115h-1.064v-3.947c0-0.449-0.098-0.801-0.294-1.057c-0.196-0.258-0.49-0.385-0.882-0.385
			c-0.317,0-0.602,0.1-0.854,0.301c-0.252,0.199-0.425,0.469-0.518,0.805v4.283h-1.05v-3.947c0-0.449-0.098-0.801-0.294-1.057
			c-0.196-0.258-0.49-0.385-0.882-0.385c-0.317,0-0.603,0.1-0.854,0.301c-0.252,0.199-0.425,0.469-0.518,0.805v4.283h-1.05v-6.215
			h1.05v0.727c0.354-0.568,0.914-0.854,1.68-0.854C143.344,158.161,143.904,158.493,144.24,159.155z"/>
		<path fill="#324C9B" d="M149,165.679l3.472-10.275h1.05l-3.472,10.275H149z"/>
		<path fill="#324C9B" d="M157.821,164.503v-0.727c-0.168,0.242-0.411,0.445-0.729,0.607c-0.317,0.164-0.657,0.246-1.021,0.246
			c-0.878,0-1.563-0.309-2.058-0.924c-0.495-0.617-0.742-1.387-0.742-2.311c0-0.914,0.247-1.682,0.742-2.303
			c0.494-0.621,1.18-0.932,2.058-0.932c0.364,0,0.704,0.082,1.021,0.246c0.317,0.162,0.561,0.365,0.729,0.607v-3.611h1.063v9.1
			H157.821z M157.821,162.655v-2.52c-0.159-0.318-0.381-0.566-0.665-0.75c-0.285-0.182-0.595-0.271-0.931-0.271
			c-0.579,0-1.039,0.211-1.379,0.637c-0.341,0.424-0.512,0.973-0.512,1.645s0.171,1.221,0.512,1.645
			c0.34,0.426,0.8,0.637,1.379,0.637c0.336,0,0.646-0.09,0.931-0.271C157.44,163.222,157.662,162.974,157.821,162.655z"/>
		<path fill="#324C9B" d="M165.219,159.063c0.527,0.604,0.791,1.381,0.791,2.332s-0.264,1.729-0.791,2.33
			c-0.527,0.604-1.216,0.904-2.065,0.904c-0.849,0-1.537-0.301-2.064-0.904c-0.527-0.602-0.791-1.379-0.791-2.33
			s0.264-1.729,0.791-2.332c0.527-0.602,1.216-0.902,2.064-0.902C164.003,158.161,164.692,158.462,165.219,159.063z
			 M164.463,163.069c0.321-0.426,0.482-0.982,0.482-1.674s-0.161-1.248-0.482-1.674c-0.322-0.424-0.759-0.637-1.31-0.637
			s-0.986,0.213-1.309,0.637c-0.322,0.426-0.483,0.982-0.483,1.674s0.161,1.248,0.483,1.674c0.322,0.424,0.758,0.637,1.309,0.637
			S164.141,163.493,164.463,163.069z"/>
		<path fill="#324C9B" d="M167.802,163.733c-0.523-0.598-0.784-1.377-0.784-2.338s0.261-1.74,0.784-2.338
			c0.522-0.598,1.203-0.896,2.044-0.896c0.681,0,1.238,0.182,1.673,0.547c0.434,0.363,0.707,0.85,0.818,1.455h-1.077
			c-0.075-0.336-0.236-0.6-0.483-0.791s-0.558-0.287-0.931-0.287c-0.532,0-0.959,0.215-1.281,0.645s-0.483,0.984-0.483,1.666
			s0.161,1.236,0.483,1.666s0.749,0.645,1.281,0.645c0.373,0,0.684-0.096,0.931-0.287s0.408-0.455,0.483-0.791h1.077
			c-0.111,0.605-0.385,1.092-0.818,1.455c-0.435,0.365-0.992,0.547-1.673,0.547C169.005,164.63,168.325,164.331,167.802,163.733z"/>
		<path fill="#324C9B" d="M178.666,158.288v6.215h-1.063v-0.783c-0.187,0.262-0.438,0.479-0.756,0.65
			c-0.317,0.174-0.668,0.26-1.05,0.26c-0.691,0-1.226-0.205-1.604-0.617c-0.378-0.41-0.567-0.961-0.567-1.65v-4.074h1.064v3.906
			c0,0.457,0.112,0.816,0.336,1.076c0.224,0.262,0.564,0.393,1.022,0.393c0.354,0,0.674-0.107,0.959-0.322
			c0.284-0.215,0.482-0.494,0.595-0.84v-4.213H178.666z"/>
		<path fill="#324C9B" d="M184.938,159.155c0.467-0.662,1.097-0.994,1.891-0.994c0.625,0,1.107,0.201,1.448,0.602
			c0.341,0.402,0.512,0.943,0.512,1.625v4.115h-1.064v-3.947c0-0.449-0.098-0.801-0.294-1.057c-0.196-0.258-0.49-0.385-0.882-0.385
			c-0.317,0-0.602,0.1-0.854,0.301c-0.252,0.199-0.425,0.469-0.518,0.805v4.283h-1.05v-3.947c0-0.449-0.098-0.801-0.294-1.057
			c-0.196-0.258-0.49-0.385-0.882-0.385c-0.317,0-0.603,0.1-0.854,0.301c-0.252,0.199-0.425,0.469-0.518,0.805v4.283h-1.05v-6.215
			h1.05v0.727c0.354-0.568,0.914-0.854,1.68-0.854C184.042,158.161,184.602,158.493,184.938,159.155z"/>
		<path fill="#324C9B" d="M194.487,162.642h0.993c-0.111,0.607-0.387,1.09-0.825,1.449c-0.439,0.359-0.999,0.539-1.681,0.539
			c-0.849,0-1.537-0.297-2.064-0.889c-0.527-0.594-0.791-1.371-0.791-2.332c0-0.941,0.261-1.719,0.784-2.33
			c0.522-0.611,1.203-0.918,2.044-0.918c0.83,0,1.475,0.277,1.932,0.834c0.457,0.555,0.686,1.295,0.686,2.219v0.377h-4.396
			c0.009,0.654,0.18,1.174,0.511,1.562c0.331,0.387,0.764,0.58,1.295,0.58c0.393,0,0.722-0.096,0.987-0.287
			S194.403,162.987,194.487,162.642z M192.96,159.058c-0.467,0-0.858,0.154-1.176,0.461c-0.317,0.309-0.514,0.734-0.588,1.275h3.304
			c-0.01-0.496-0.145-0.908-0.406-1.24C193.833,159.224,193.455,159.058,192.96,159.058z"/>
		<path fill="#324C9B" d="M196.964,164.503v-6.215h1.05v0.783c0.195-0.262,0.455-0.479,0.776-0.65
			c0.322-0.174,0.675-0.26,1.058-0.26c0.69,0,1.227,0.205,1.609,0.617c0.383,0.41,0.574,0.961,0.574,1.65v4.074h-1.063v-3.906
			c0-0.447-0.115-0.805-0.344-1.07s-0.571-0.398-1.028-0.398c-0.364,0-0.691,0.109-0.98,0.328c-0.289,0.221-0.49,0.498-0.602,0.834
			v4.213H196.964z"/>
		<path fill="#324C9B" d="M204.104,162.935v-3.752h-1.009v-0.895h1.009v-1.639h1.05v1.639h1.498v0.895h-1.498v3.641
			c0,0.578,0.275,0.869,0.826,0.869c0.289,0,0.56-0.086,0.812-0.254v0.98c-0.262,0.141-0.588,0.211-0.979,0.211
			c-0.523,0-0.938-0.143-1.246-0.428C204.257,163.917,204.104,163.495,204.104,162.935z"/>
		<path fill="#324C9B" d="M207.436,165.679l3.472-10.275h1.05l-3.472,10.275H207.436z"/>
		<path fill="#324C9B" d="M216.255,164.503v-0.727c-0.168,0.242-0.411,0.445-0.729,0.607c-0.317,0.164-0.657,0.246-1.021,0.246
			c-0.878,0-1.563-0.309-2.058-0.924c-0.495-0.617-0.742-1.387-0.742-2.311c0-0.914,0.247-1.682,0.742-2.303
			c0.494-0.621,1.18-0.932,2.058-0.932c0.364,0,0.704,0.082,1.021,0.246c0.317,0.162,0.561,0.365,0.729,0.607v-3.611h1.063v9.1
			H216.255z M216.255,162.655v-2.52c-0.159-0.318-0.381-0.566-0.665-0.75c-0.285-0.182-0.595-0.271-0.931-0.271
			c-0.579,0-1.039,0.211-1.379,0.637c-0.341,0.424-0.512,0.973-0.512,1.645s0.171,1.221,0.512,1.645
			c0.34,0.426,0.8,0.637,1.379,0.637c0.336,0,0.646-0.09,0.931-0.271C215.875,163.222,216.096,162.974,216.255,162.655z"/>
		<path fill="#324C9B" d="M218.314,165.679l3.472-10.275h1.05l-3.472,10.275H218.314z"/>
		<path fill="#324C9B" d="M226.461,155.894v8.609h-1.078v-7.279l-2.128,1.092v-1.119l2.549-1.303H226.461z"/>
		<path fill="#324C9B" d="M232.551,164.503v-0.727c-0.168,0.242-0.411,0.445-0.729,0.607c-0.317,0.164-0.657,0.246-1.021,0.246
			c-0.878,0-1.563-0.309-2.058-0.924c-0.495-0.617-0.742-1.387-0.742-2.311c0-0.914,0.247-1.682,0.742-2.303
			c0.494-0.621,1.18-0.932,2.058-0.932c0.364,0,0.704,0.082,1.021,0.246c0.317,0.162,0.561,0.365,0.729,0.607v-3.611h1.063v9.1
			H232.551z M232.551,162.655v-2.52c-0.159-0.318-0.381-0.566-0.665-0.75c-0.285-0.182-0.595-0.271-0.931-0.271
			c-0.579,0-1.039,0.211-1.379,0.637c-0.341,0.424-0.512,0.973-0.512,1.645s0.171,1.221,0.512,1.645
			c0.34,0.426,0.8,0.637,1.379,0.637c0.336,0,0.646-0.09,0.931-0.271C232.17,163.222,232.392,162.974,232.551,162.655z"/>
		<path fill="#324C9B" d="M238.782,161.06h-2.114v3.443h-1.105v-8.596h3.22c0.887,0,1.579,0.223,2.079,0.666
			c0.499,0.443,0.749,1.08,0.749,1.91s-0.252,1.469-0.756,1.91C240.349,160.837,239.659,161.06,238.782,161.06z M240.517,158.483
			c0-0.504-0.151-0.898-0.454-1.184c-0.304-0.283-0.74-0.426-1.31-0.426h-2.086v3.205h2.086c0.569,0,1.006-0.143,1.31-0.426
			C240.366,159.368,240.517,158.978,240.517,158.483z"/>
		<path fill="#324C9B" d="M245.879,159.968l2.479-4.061h1.176l-3.136,5.055v3.541h-1.093v-3.541l-3.107-5.055h1.204L245.879,159.968
			z"/>
		<path fill="#324C9B" d="M255.301,164.503h-0.756l-2.715-6.551v6.551h-1.05v-8.596h1.245l2.913,7.057l2.898-7.057h1.203v8.596
			h-1.049v-6.551L255.301,164.503z"/>
		<path fill="#324C9B" d="M265.492,160.052c0.459,0.121,0.832,0.369,1.121,0.742s0.434,0.803,0.434,1.287
			c0,0.775-0.252,1.373-0.756,1.793s-1.203,0.629-2.1,0.629h-3.107v-8.596h2.826c0.896,0,1.594,0.195,2.094,0.588
			s0.75,0.957,0.75,1.693c0,0.486-0.119,0.891-0.357,1.213C266.158,159.722,265.857,159.938,265.492,160.052z M262.16,159.646h1.75
			c1.186,0,1.779-0.467,1.779-1.4c0-0.914-0.594-1.371-1.779-1.371h-1.75V159.646z M262.16,160.569v2.969h2.031
			c0.568,0,1.008-0.133,1.316-0.4c0.307-0.266,0.461-0.627,0.461-1.084c0-0.467-0.154-0.83-0.461-1.092
			c-0.309-0.262-0.748-0.393-1.316-0.393H262.16z"/>
		<path fill="#324C9B" d="M272.367,158.218c0-0.439-0.141-0.791-0.42-1.057c-0.279-0.268-0.658-0.4-1.135-0.4
			c-0.504,0-0.898,0.156-1.182,0.469c-0.285,0.314-0.451,0.73-0.498,1.254H268c0.084-0.812,0.377-1.465,0.881-1.961
			c0.504-0.494,1.148-0.74,1.932-0.74c0.812,0,1.451,0.219,1.918,0.656c0.467,0.439,0.701,1.027,0.701,1.766
			c0,0.131-0.018,0.266-0.049,0.406c-0.033,0.139-0.066,0.26-0.098,0.363c-0.033,0.104-0.094,0.23-0.184,0.385
			c-0.088,0.154-0.156,0.268-0.203,0.344c-0.047,0.074-0.139,0.195-0.279,0.363s-0.232,0.279-0.279,0.336s-0.156,0.18-0.33,0.371
			c-0.172,0.191-0.277,0.311-0.314,0.357l-2.184,2.393h4.102v0.98H268v-0.727l2.771-3.053c0.42-0.467,0.705-0.785,0.854-0.953
			c0.15-0.168,0.311-0.404,0.482-0.713C272.281,158.749,272.367,158.47,272.367,158.218z"/>
		<path fill="#324C9B" d="M274.299,161.339v-0.979h3.373v0.979H274.299z"/>
		<path fill="#324C9B" d="M284.127,158.288v6.215h-1.064v-0.783c-0.186,0.262-0.438,0.479-0.756,0.65
			c-0.316,0.174-0.668,0.26-1.049,0.26c-0.691,0-1.227-0.205-1.604-0.617c-0.379-0.41-0.568-0.961-0.568-1.65v-4.074h1.064v3.906
			c0,0.457,0.113,0.816,0.336,1.076c0.225,0.262,0.564,0.393,1.023,0.393c0.354,0,0.674-0.107,0.959-0.322
			c0.283-0.215,0.482-0.494,0.594-0.84v-4.213H284.127z"/>
		<path fill="#324C9B" d="M287.039,155.403v9.1h-1.049v-9.1H287.039z"/>
		<path fill="#324C9B" d="M293.018,164.503v-0.727c-0.168,0.242-0.412,0.445-0.729,0.607c-0.318,0.164-0.658,0.246-1.021,0.246
			c-0.879,0-1.564-0.309-2.059-0.924c-0.494-0.617-0.742-1.387-0.742-2.311c0-0.914,0.248-1.682,0.742-2.303s1.18-0.932,2.059-0.932
			c0.363,0,0.703,0.082,1.021,0.246c0.316,0.162,0.561,0.365,0.729,0.607v-3.611h1.062v9.1H293.018z M293.018,162.655v-2.52
			c-0.16-0.318-0.381-0.566-0.666-0.75c-0.285-0.182-0.594-0.271-0.93-0.271c-0.58,0-1.039,0.211-1.379,0.637
			c-0.342,0.424-0.512,0.973-0.512,1.645s0.17,1.221,0.512,1.645c0.34,0.426,0.799,0.637,1.379,0.637c0.336,0,0.645-0.09,0.93-0.271
			C292.637,163.222,292.857,162.974,293.018,162.655z"/>
		<path fill="#324C9B" d="M295.426,162.796h1.092c0.195,0.635,0.686,0.951,1.471,0.951c0.381,0,0.689-0.076,0.924-0.23
			c0.232-0.154,0.35-0.385,0.35-0.693c0-0.42-0.309-0.709-0.924-0.867l-1.232-0.322c-0.998-0.252-1.498-0.799-1.498-1.639
			c0-0.541,0.209-0.982,0.631-1.322c0.42-0.342,0.951-0.512,1.596-0.512c0.672,0,1.213,0.154,1.623,0.463
			c0.41,0.307,0.672,0.742,0.785,1.301h-1.051c-0.188-0.588-0.645-0.881-1.371-0.881c-0.328,0-0.607,0.076-0.842,0.23
			c-0.232,0.154-0.35,0.375-0.35,0.664c0,0.207,0.068,0.367,0.203,0.484s0.357,0.217,0.666,0.301l1.203,0.293
			c1.055,0.281,1.582,0.859,1.582,1.736c0,0.58-0.215,1.037-0.645,1.373c-0.428,0.336-0.984,0.504-1.666,0.504
			s-1.252-0.164-1.715-0.49C295.797,163.813,295.52,163.364,295.426,162.796z"/>
		<path fill="#324C9B" d="M304.848,155.417v0.953c-0.178-0.113-0.396-0.168-0.658-0.168c-0.318,0-0.566,0.098-0.75,0.293
			c-0.182,0.197-0.271,0.477-0.271,0.84v0.953h1.398v0.895h-1.398v5.32h-1.037v-5.32h-1.049v-0.895h1.049v-1.037
			c0-0.605,0.178-1.086,0.533-1.441c0.354-0.355,0.811-0.531,1.371-0.531C304.352,155.278,304.623,155.325,304.848,155.417z"/>
		<path fill="#324C9B" d="M306.834,158.288v6.93c0,0.578-0.156,1.021-0.469,1.33c-0.312,0.307-0.758,0.461-1.338,0.461
			c-0.195,0-0.344-0.018-0.447-0.055v-0.896c0.168,0.027,0.289,0.041,0.363,0.041c0.561,0,0.842-0.316,0.842-0.951v-6.859H306.834z
			 M306.785,155.935c0.135,0.131,0.203,0.291,0.203,0.477c0,0.188-0.068,0.346-0.203,0.477s-0.297,0.195-0.482,0.195
			c-0.188,0-0.346-0.064-0.477-0.195s-0.195-0.289-0.195-0.477c0-0.186,0.064-0.346,0.195-0.477
			c0.131-0.129,0.289-0.195,0.477-0.195C306.488,155.739,306.65,155.806,306.785,155.935z"/>
		<path fill="#324C9B" d="M313.156,159.063c0.527,0.604,0.791,1.381,0.791,2.332s-0.264,1.729-0.791,2.33
			c-0.527,0.604-1.217,0.904-2.066,0.904c-0.848,0-1.537-0.301-2.064-0.904c-0.527-0.602-0.791-1.379-0.791-2.33
			s0.264-1.729,0.791-2.332c0.527-0.602,1.217-0.902,2.064-0.902C311.939,158.161,312.629,158.462,313.156,159.063z M312.4,163.069
			c0.32-0.426,0.482-0.982,0.482-1.674s-0.162-1.248-0.482-1.674c-0.322-0.424-0.76-0.637-1.311-0.637s-0.986,0.213-1.309,0.637
			c-0.322,0.426-0.482,0.982-0.482,1.674s0.16,1.248,0.482,1.674c0.322,0.424,0.758,0.637,1.309,0.637
			S312.078,163.493,312.4,163.069z"/>
		<path fill="#324C9B" d="M319.322,158.288l1.273,4.746l1.373-4.746h1.021l-1.834,6.215h-1.021l-1.289-4.717l-1.301,4.717h-1.023
			l-1.834-6.215h1.051l1.371,4.746l1.275-4.746H319.322z"/>
		<path fill="#324C9B" d="M330.229,155.907h1.105v8.596h-1.105v-3.92h-4.857v3.92h-1.105v-8.596h1.105v3.682h4.857V155.907z"/>
		<path fill="#324C9B" d="M336.01,160.864h-1.525v3.639h-1.105v-8.596h3.191c0.877,0,1.564,0.215,2.064,0.645s0.75,1.045,0.75,1.848
			c0,0.699-0.191,1.256-0.574,1.666s-0.92,0.662-1.611,0.756l2.535,3.682h-1.26L336.01,160.864z M334.484,156.874v3.051h2.057
			c0.561,0,0.992-0.135,1.297-0.406c0.303-0.27,0.453-0.643,0.453-1.119s-0.15-0.85-0.453-1.119
			c-0.305-0.271-0.736-0.406-1.297-0.406H334.484z"/>
		<path fill="#324C9B" d="M341.023,164.503v-9.1h1.049v3.668c0.195-0.262,0.455-0.479,0.777-0.65c0.322-0.174,0.674-0.26,1.057-0.26
			c0.691,0,1.227,0.205,1.609,0.617c0.383,0.41,0.574,0.961,0.574,1.65v4.074h-1.062v-3.906c0-0.447-0.115-0.805-0.344-1.07
			s-0.572-0.398-1.029-0.398c-0.363,0-0.691,0.109-0.98,0.328c-0.289,0.221-0.49,0.498-0.602,0.834v4.213H341.023z"/>
		<path fill="#324C9B" d="M347.35,162.796h1.092c0.197,0.635,0.688,0.951,1.471,0.951c0.383,0,0.691-0.076,0.924-0.23
			c0.234-0.154,0.35-0.385,0.35-0.693c0-0.42-0.307-0.709-0.924-0.867l-1.232-0.322c-0.998-0.252-1.498-0.799-1.498-1.639
			c0-0.541,0.211-0.982,0.631-1.322c0.42-0.342,0.951-0.512,1.596-0.512c0.672,0,1.213,0.154,1.625,0.463
			c0.41,0.307,0.672,0.742,0.783,1.301h-1.051c-0.186-0.588-0.643-0.881-1.371-0.881c-0.326,0-0.607,0.076-0.84,0.23
			c-0.234,0.154-0.35,0.375-0.35,0.664c0,0.207,0.066,0.367,0.203,0.484c0.135,0.117,0.355,0.217,0.664,0.301l1.205,0.293
			c1.055,0.281,1.582,0.859,1.582,1.736c0,0.58-0.215,1.037-0.645,1.373s-0.984,0.504-1.666,0.504s-1.254-0.164-1.715-0.49
			C347.721,163.813,347.443,163.364,347.35,162.796z"/>
		<path fill="#324C9B" d="M357.738,164.083v-0.461c-0.168,0.232-0.408,0.432-0.721,0.594c-0.312,0.164-0.652,0.246-1.016,0.246
			c-0.867,0-1.549-0.309-2.043-0.924c-0.496-0.617-0.742-1.359-0.742-2.227c0-0.877,0.246-1.621,0.742-2.232
			c0.494-0.611,1.176-0.918,2.043-0.918c0.363,0,0.703,0.08,1.016,0.238s0.553,0.355,0.721,0.588v-0.699h1.064v5.725
			c0,0.99-0.256,1.738-0.764,2.248c-0.51,0.508-1.178,0.762-2.01,0.762c-0.746,0-1.35-0.182-1.812-0.545
			c-0.461-0.363-0.744-0.867-0.848-1.512h1.037c0.178,0.773,0.719,1.162,1.623,1.162
			C357.168,166.128,357.738,165.446,357.738,164.083z M357.738,162.544v-2.479c-0.355-0.645-0.883-0.967-1.582-0.967
			c-0.578,0-1.033,0.207-1.365,0.617s-0.496,0.943-0.496,1.596s0.164,1.184,0.496,1.59c0.332,0.404,0.787,0.607,1.365,0.607
			C356.855,163.509,357.383,163.187,357.738,162.544z"/>
		<path fill="#324C9B" d="M365.199,163.606v0.896h-4.885v-0.686l3.484-4.635h-3.373v-0.895h4.719v0.686l-3.459,4.633H365.199z"/>
		<path fill="#324C9B" d="M366.236,156.888v-0.98h7.098v0.98h-2.996v7.615h-1.105v-7.615H366.236z"/>
		<path fill="#324C9B" d="M380.74,155.907h1.105v8.596h-1.105v-3.92h-4.859v3.92h-1.105v-8.596h1.105v3.682h4.859V155.907z"/>
		<path fill="#324C9B" d="M387.893,164.503l-2.365-2.869l-0.672,0.645v2.225h-1.051v-9.1h1.051v5.643l2.842-2.758h1.385
			l-2.799,2.688l2.898,3.527H387.893z"/>
		<path fill="#324C9B" d="M390.301,164.503v-6.215h1.051v0.783c0.195-0.262,0.455-0.479,0.775-0.65
			c0.322-0.174,0.676-0.26,1.059-0.26c0.689,0,1.227,0.205,1.609,0.617c0.383,0.41,0.574,0.961,0.574,1.65v4.074h-1.064v-3.906
			c0-0.447-0.115-0.805-0.344-1.07s-0.57-0.398-1.027-0.398c-0.365,0-0.691,0.109-0.98,0.328c-0.289,0.221-0.49,0.498-0.602,0.834
			v4.213H390.301z"/>
		<path fill="#324C9B" d="M403.209,165.007l-0.701-0.881c-0.588,0.336-1.223,0.504-1.902,0.504c-1.131,0-2.059-0.414-2.787-1.24
			s-1.092-1.887-1.092-3.184s0.363-2.359,1.092-3.186s1.656-1.238,2.787-1.238c1.137,0,2.07,0.412,2.799,1.238
			s1.092,1.889,1.092,3.186c0,1.371-0.414,2.482-1.246,3.332l0.715,0.895L403.209,165.007z M403.391,160.206
			c0-1.008-0.258-1.832-0.77-2.471c-0.514-0.641-1.186-0.959-2.016-0.959c-0.822,0-1.49,0.318-2.004,0.959
			c-0.512,0.639-0.77,1.463-0.77,2.471s0.258,1.832,0.77,2.471c0.514,0.639,1.182,0.959,2.004,0.959
			c0.494,0,0.924-0.098,1.287-0.295l-0.729-0.924l0.756-0.561l0.701,0.896C403.133,162.138,403.391,161.288,403.391,160.206z"/>
		<path fill="#324C9B" d="M410.027,164.503l-2.367-2.869l-0.672,0.645v2.225h-1.049v-9.1h1.049v5.643l2.842-2.758h1.387
			l-2.801,2.688l2.898,3.527H410.027z"/>
		<path fill="#324C9B" d="M414.814,159.884c-0.607,0-1.115,0.246-1.525,0.742h-0.869v-4.719h4.705v0.98h-3.781v2.59
			c0.402-0.363,0.926-0.547,1.568-0.547c0.793,0,1.443,0.27,1.947,0.807c0.504,0.535,0.756,1.219,0.756,2.051
			c0,0.811-0.262,1.488-0.785,2.029c-0.521,0.541-1.189,0.812-2.002,0.812c-0.82,0-1.492-0.229-2.016-0.686
			c-0.523-0.459-0.836-1.088-0.938-1.891h1.078c0.195,1.082,0.82,1.623,1.875,1.623c0.514,0,0.934-0.18,1.26-0.539
			c0.328-0.359,0.49-0.809,0.49-1.35s-0.162-0.994-0.49-1.359C415.762,160.065,415.338,159.884,414.814,159.884z"/>
	</g>
	<g>
		<path fill="#324C9B" d="M423.004,134.976c-0.732-0.816-1.1-1.883-1.1-3.199s0.367-2.383,1.1-3.199s1.65-1.225,2.752-1.225
			c0.887,0,1.621,0.238,2.205,0.715c0.582,0.475,0.963,1.119,1.141,1.932h-1.092c-0.393-1.102-1.145-1.652-2.254-1.652
			c-0.822,0-1.484,0.314-1.988,0.945c-0.504,0.629-0.756,1.459-0.756,2.484c0,1.018,0.252,1.844,0.756,2.479
			s1.166,0.951,1.988,0.951c1.119,0,1.871-0.555,2.254-1.666h1.092c-0.178,0.822-0.559,1.471-1.141,1.947
			c-0.584,0.475-1.318,0.713-2.205,0.713C424.654,136.2,423.736,135.792,423.004,134.976z"/>
		<path fill="#324C9B" d="M435.045,130.636c0.527,0.602,0.791,1.379,0.791,2.33c0,0.953-0.264,1.73-0.791,2.332
			s-1.217,0.902-2.066,0.902c-0.848,0-1.537-0.301-2.064-0.902s-0.791-1.379-0.791-2.332c0-0.951,0.264-1.729,0.791-2.33
			s1.217-0.902,2.064-0.902C433.828,129.733,434.518,130.034,435.045,130.636z M434.289,134.64c0.32-0.424,0.482-0.982,0.482-1.674
			c0-0.689-0.162-1.248-0.482-1.672c-0.322-0.426-0.76-0.637-1.311-0.637s-0.986,0.211-1.309,0.637
			c-0.322,0.424-0.482,0.982-0.482,1.672c0,0.691,0.16,1.25,0.482,1.674c0.322,0.426,0.758,0.637,1.309,0.637
			S433.967,135.065,434.289,134.64z"/>
		<path fill="#324C9B" d="M438.312,135.347v3.107h-1.049v-8.596h1.049v0.729c0.178-0.242,0.422-0.445,0.734-0.609
			c0.312-0.162,0.652-0.244,1.016-0.244c0.877,0,1.562,0.311,2.059,0.93c0.494,0.621,0.742,1.389,0.742,2.303
			c0,0.916-0.248,1.684-0.742,2.305c-0.496,0.619-1.182,0.93-2.059,0.93c-0.363,0-0.703-0.082-1.016-0.244
			C438.734,135.792,438.49,135.589,438.312,135.347z M438.312,131.706v2.521c0.158,0.316,0.381,0.566,0.666,0.748
			c0.283,0.182,0.594,0.273,0.93,0.273c0.578,0,1.039-0.213,1.379-0.637c0.342-0.426,0.512-0.973,0.512-1.646
			c0-0.672-0.17-1.219-0.512-1.645c-0.34-0.424-0.801-0.637-1.379-0.637c-0.336,0-0.646,0.092-0.93,0.273
			C438.693,131.14,438.471,131.39,438.312,131.706z"/>
		<path fill="#324C9B" d="M446.014,138.454h-1.037l0.938-2.338l-2.422-6.258h1.135l1.834,4.9l1.807-4.9h1.092L446.014,138.454z"/>
		<path fill="#324C9B" d="M454.693,126.976v9.1h-1.051v-9.1H454.693z"/>
		<path fill="#324C9B" d="M457.57,127.507c0.135,0.131,0.201,0.289,0.201,0.477c0,0.186-0.066,0.344-0.201,0.475
			c-0.137,0.131-0.297,0.197-0.484,0.197c-0.186,0-0.346-0.066-0.475-0.197c-0.131-0.131-0.197-0.289-0.197-0.475
			c0-0.188,0.066-0.346,0.197-0.477c0.129-0.131,0.289-0.195,0.475-0.195C457.273,127.312,457.434,127.376,457.57,127.507z
			 M457.619,129.858v6.217h-1.051v-6.217H457.619z"/>
		<path fill="#324C9B" d="M459.496,136.075v-6.217h1.049v0.785c0.195-0.262,0.455-0.479,0.777-0.652
			c0.322-0.172,0.674-0.258,1.057-0.258c0.691,0,1.227,0.205,1.609,0.615s0.574,0.961,0.574,1.652v4.074H463.5v-3.906
			c0-0.447-0.115-0.805-0.344-1.07c-0.229-0.268-0.572-0.4-1.029-0.4c-0.363,0-0.691,0.109-0.98,0.33
			c-0.289,0.219-0.49,0.496-0.602,0.832v4.215H459.496z"/>
		<path fill="#324C9B" d="M470.43,136.075l-2.367-2.871l-0.672,0.645v2.227h-1.049v-9.1h1.049v5.641l2.842-2.758h1.387l-2.801,2.688
			l2.898,3.529H470.43z"/>
	</g>
	<polygon fill="#1E1E1C" points="204.921,130.425 200.496,134.851 196.07,130.425 	"/>
	<g>
		<circle fill="#DDDDDD" cx="12.854" cy="11.778" r="3.387"/>
		<circle fill="#DDDDDD" cx="25.397" cy="11.778" r="3.387"/>
		<circle fill="#DDDDDD" cx="37.063" cy="11.778" r="3.387"/>
	</g>
	<rect x="0.194" y="20.917" fill="#1F1F1F" width="505.201" height="1"/>
</g>
</svg>
