<?xml version="1.0" encoding="utf-8"?>
<!-- Generator: Adobe Illustrator 19.1.0, SVG Export Plug-In . SVG Version: 6.00 Build 0)  -->
<svg version="1.1" id="Layer_1" xmlns="http://www.w3.org/2000/svg" xmlns:xlink="http://www.w3.org/1999/xlink" x="0px" y="0px"
	 viewBox="0 0 878.9 431.1" style="enable-background:new 0 0 878.9 431.1;" xml:space="preserve">
<style type="text/css">
	.st0{fill:#3A50A2;}
	.st1{fill:#FFFFFF;stroke:#010101;stroke-width:2;stroke-miterlimit:10;}
	.st2{fill:#ECECEC;stroke:#1A1A1A;stroke-miterlimit:10;}
	.st3{fill:#FFFFFF;stroke:#1D1D1B;stroke-miterlimit:10;}
	.st4{fill:#FFFFFF;stroke:#010101;stroke-miterlimit:10;}
	.st5{fill:#010101;stroke:#FFFFFF;stroke-width:0.746;stroke-miterlimit:10;}
	.st6{fill:#010101;stroke:#FFFFFF;stroke-width:0.8525;stroke-miterlimit:10;}
	.st7{fill:#ECECEC;stroke:#1D1D1B;stroke-width:0.7507;stroke-miterlimit:10;}
	.st8{fill:none;stroke:#1D1D1B;stroke-width:0.5;stroke-miterlimit:10;}
	.st9{fill:#FFFFFF;}
	.st10{fill:none;stroke:#1D1D1B;stroke-miterlimit:10;}
	.st11{fill:#ECECEC;}
	.st12{fill:#1D1D1B;}
	.st13{fill:none;stroke:#1D1D1B;stroke-width:2;stroke-miterlimit:10;}
	.st14{fill:#010101;}
	.st15{fill:none;}
	.st16{fill:none;stroke:#3A50A2;stroke-width:2.876;stroke-linecap:round;stroke-miterlimit:10;}
	.st17{fill:none;stroke:#010101;stroke-width:0.832;stroke-miterlimit:10;}
</style>
<rect x="321.4" y="47" class="st0" width="485.5" height="291.3"/>
<path class="st1" d="M201,400.2c0,16.5-13.4,29.8-29.8,29.8H30.8C14.4,430.1,1,416.7,1,400.2V36.9C1,20.4,14.4,7.1,30.8,7.1h140.3
	c16.5,0,29.8,13.4,29.8,29.8V400.2z"/>
<rect x="15.5" y="66.6" class="st2" width="172" height="303"/>
<rect x="15.8" y="100.3" class="st3" width="172" height="34.5"/>
<g>
	<circle class="st4" cx="102.2" cy="399.4" r="17.1"/>
</g>
<circle class="st5" cx="101.7" cy="30.5" r="3.2"/>
<path class="st6" d="M124.5,42H79.3c-1,0-1.8-0.8-1.8-1.8l0,0c0-1,0.8-1.8,1.8-1.8h45.2c1,0,1.8,0.8,1.8,1.8l0,0
	C126.2,41.2,125.4,42,124.5,42z"/>
<path class="st7" d="M172.2,124.2h-18.5c-4.1,0-7.4-3.3-7.4-7.4l0,0c0-4.1,3.3-7.4,7.4-7.4h18.5c4.1,0,7.4,3.3,7.4,7.4l0,0
	C179.6,120.9,176.3,124.2,172.2,124.2z"/>
<circle class="st0" cx="153.5" cy="116.8" r="6.3"/>
<path class="st8" d="M483.5,29.2h-8c-1.4,0-2.9-1.1-3.3-2.4l-3.2-9.4c-0.4-1.3-1.9-2.4-3.3-2.4h-68.7c-1.4,0-3,1-3.6,2.3l-4.6,9.6
	c-0.6,1.2-2.2,2.3-3.6,2.3h-8.5h-55.2V47h485.5V29.2H483.5z"/>
<rect x="321.4" y="14.3" class="st8" width="485.5" height="32.7"/>
<path class="st9" d="M333.2,22.2c0,1.9-1.5,3.4-3.4,3.4c-1.9,0-3.4-1.5-3.4-3.4c0-1.9,1.5-3.4,3.4-3.4
	C331.7,18.8,333.2,20.3,333.2,22.2"/>
<circle class="st10" cx="329.8" cy="22.2" r="3.4"/>
<path class="st9" d="M345.8,22.2c0,1.9-1.5,3.4-3.4,3.4c-1.9,0-3.4-1.5-3.4-3.4c0-1.9,1.5-3.4,3.4-3.4
	C344.2,18.8,345.8,20.3,345.8,22.2"/>
<circle class="st10" cx="342.4" cy="22.2" r="3.4"/>
<path class="st9" d="M357.4,22.2c0,1.9-1.5,3.4-3.4,3.4c-1.9,0-3.4-1.5-3.4-3.4c0-1.9,1.5-3.4,3.4-3.4
	C355.9,18.8,357.4,20.3,357.4,22.2"/>
<circle class="st10" cx="354" cy="22.2" r="3.4"/>
<path class="st11" d="M621.6,43.7H366.3c-2.5,0-4.6-2.1-4.6-4.6v-1.7c0-2.5,2.1-4.6,4.6-4.6h255.3c2.5,0,4.6,2.1,4.6,4.6v1.7
	C626.2,41.6,624.2,43.7,621.6,43.7"/>
<g>
	<path class="st12" d="M332.8,39.2l4.7-2.4v0.7l-3.9,2v0l3.9,2v0.7l-4.7-2.4V39.2z"/>
	<path class="st12" d="M349.8,39.7l-4.7,2.4v-0.7l4-2v0l-4-2v-0.7l4.7,2.4V39.7z"/>
</g>
<path class="st9" d="M804.9,1H324.7c-8.4,0-15.2,6.8-15.2,15.2v319.3c0,8.4,6.8,15.2,15.2,15.2h480.1c8.4,0,15.2-6.8,15.2-15.2V16.2
	C820.1,7.8,813.2,1,804.9,1 M806.9,338.3H321.4V14h485.5V338.3z"/>
<path class="st9" d="M517.8,350.8h94c2.3,0,4.2-1.9,4.2-4.2v-1.4H513.6v1.4C513.6,348.9,515.5,350.8,517.8,350.8"/>
<path class="st13" d="M517.8,350.8h94c2.3,0,4.2-1.9,4.2-4.2v-1.4H513.6v1.4C513.6,348.9,515.5,350.8,517.8,350.8z"/>
<g>
	<path class="st14" d="M371.8,40.8h-0.5l-1-3.1l-1,3.1h-0.5l-1.2-3.9h0.6L369,40l1-3.2h0.5l1,3.2l0.9-3.2h0.6L371.8,40.8z"/>
	<path class="st14" d="M377.6,40.8h-0.5l-1-3.1l-1,3.1h-0.5l-1.2-3.9h0.6l0.9,3.2l1-3.2h0.5l1,3.2l0.9-3.2h0.6L377.6,40.8z"/>
</g>
<g>
	<path class="st14" d="M383.6,40.8h-0.5l-1-3.1l-1,3.1h-0.5l-1.2-3.9h0.6l0.9,3.2l1-3.2h0.5l1,3.2l0.9-3.2h0.6L383.6,40.8z"/>
</g>
<g>
	<path class="st14" d="M385.3,40.8V40h0.8v0.8H385.3z"/>
	<path class="st14" d="M390.1,40.5c-0.2,0.2-0.6,0.3-1,0.3c-0.4,0-0.8-0.1-1.1-0.5v2.2h-0.6v-5.7h0.6v0.5c0.3-0.4,0.7-0.5,1.1-0.5
		c0.4,0,0.8,0.1,1,0.3c0.4,0.4,0.5,1.1,0.5,1.7S390.5,40.1,390.1,40.5z M389.1,37.3c-0.9,0-1,0.7-1,1.5s0.1,1.5,1,1.5s1-0.7,1-1.5
		S389.9,37.3,389.1,37.3z"/>
	<path class="st14" d="M394.1,40.8v-0.4c-0.3,0.3-0.6,0.4-1.1,0.4c-0.5,0-0.9-0.1-1.1-0.4c-0.2-0.2-0.3-0.5-0.3-0.8
		c0-0.7,0.5-1.1,1.4-1.1h1.2v-0.4c0-0.6-0.3-0.9-1-0.9c-0.5,0-0.8,0.1-1,0.4l-0.4-0.4c0.4-0.5,0.8-0.6,1.4-0.6
		c1.1,0,1.6,0.5,1.6,1.3v2.7H394.1z M394.1,38.9H393c-0.6,0-0.9,0.2-0.9,0.7c0,0.5,0.3,0.7,0.9,0.7c0.3,0,0.6,0,0.9-0.3
		c0.1-0.1,0.2-0.4,0.2-0.7V38.9z"/>
	<path class="st14" d="M398.7,40.5c-0.2,0.2-0.6,0.3-1,0.3c-0.4,0-0.8-0.1-1.1-0.5v2.2h-0.6v-5.7h0.6v0.5c0.3-0.4,0.7-0.5,1.1-0.5
		c0.4,0,0.8,0.1,1,0.3c0.4,0.4,0.5,1.1,0.5,1.7S399.1,40.1,398.7,40.5z M397.6,37.3c-0.9,0-1,0.7-1,1.5s0.1,1.5,1,1.5s1-0.7,1-1.5
		S398.5,37.3,397.6,37.3z"/>
	<path class="st14" d="M400.8,38.9c0,0.9,0.4,1.4,1.2,1.4c0.5,0,0.7-0.1,1-0.4l0.4,0.3c-0.4,0.4-0.8,0.6-1.4,0.6c-1,0-1.7-0.6-1.7-2
		c0-1.3,0.6-2,1.6-2c1,0,1.6,0.7,1.6,1.9v0.3H400.8z M402.7,37.9c-0.2-0.4-0.5-0.6-0.9-0.6c-0.4,0-0.8,0.2-0.9,0.6
		c-0.1,0.2-0.1,0.3-0.1,0.7h2.1C402.8,38.2,402.8,38.1,402.7,37.9z"/>
	<path class="st14" d="M406.9,37.6c-0.2-0.2-0.4-0.3-0.7-0.3c-0.6,0-0.9,0.5-0.9,1.1v2.4h-0.6v-3.9h0.6v0.5c0.2-0.3,0.6-0.5,1.1-0.5
		c0.4,0,0.7,0.1,0.9,0.4L406.9,37.6z"/>
	<path class="st14" d="M409.3,40.8c-0.7,0-1.2-0.2-1.6-0.6l0.4-0.4c0.3,0.3,0.7,0.5,1.2,0.5c0.6,0,1-0.2,1-0.7
		c0-0.3-0.2-0.5-0.7-0.6L409,39c-0.8-0.1-1.2-0.4-1.2-1.1c0-0.7,0.6-1.2,1.4-1.2c0.6,0,1.1,0.1,1.4,0.4l-0.4,0.4
		c-0.3-0.2-0.6-0.3-1-0.3c-0.6,0-0.9,0.2-0.9,0.6c0,0.3,0.2,0.5,0.7,0.6l0.6,0.1c0.7,0.1,1.2,0.3,1.2,1.1
		C410.9,40.4,410.2,40.8,409.3,40.8z"/>
	<path class="st14" d="M414.5,40.8v-2.4c0-0.7-0.4-1-1-1s-1,0.4-1,1v2.4H412v-5.7h0.6v2.2c0.3-0.3,0.7-0.5,1.1-0.5
		c0.9,0,1.4,0.6,1.4,1.5v2.5H414.5z"/>
	<path class="st14" d="M419,40.4c-0.3,0.3-0.6,0.4-1.1,0.4c-0.5,0-0.9-0.2-1.1-0.4c-0.4-0.4-0.5-1-0.5-1.6c0-0.6,0.1-1.2,0.5-1.6
		c0.3-0.3,0.6-0.4,1.1-0.4c0.5,0,0.9,0.2,1.1,0.4c0.4,0.4,0.5,1,0.5,1.6C419.5,39.4,419.4,40,419,40.4z M418.6,37.6
		c-0.2-0.2-0.4-0.3-0.7-0.3c-0.3,0-0.5,0.1-0.7,0.3c-0.3,0.3-0.3,0.8-0.3,1.2c0,0.4,0,0.9,0.3,1.2c0.2,0.2,0.4,0.3,0.7,0.3
		c0.3,0,0.5-0.1,0.7-0.3c0.3-0.3,0.3-0.8,0.3-1.2C418.9,38.4,418.9,37.9,418.6,37.6z"/>
	<path class="st14" d="M423.4,40.5c-0.2,0.2-0.6,0.3-1,0.3c-0.4,0-0.8-0.1-1.1-0.5v2.2h-0.6v-5.7h0.6v0.5c0.3-0.4,0.7-0.5,1.1-0.5
		c0.4,0,0.8,0.1,1,0.3c0.4,0.4,0.5,1.1,0.5,1.7S423.8,40.1,423.4,40.5z M422.3,37.3c-0.9,0-1,0.7-1,1.5s0.1,1.5,1,1.5s1-0.7,1-1.5
		S423.2,37.3,422.3,37.3z"/>
	<path class="st14" d="M425.1,40.8V40h0.8v0.8H425.1z"/>
	<path class="st14" d="M428.8,40.8c-1,0-1.7-0.7-1.7-2s0.8-2,1.7-2c0.5,0,0.9,0.1,1.3,0.6l-0.4,0.4c-0.3-0.3-0.5-0.4-0.9-0.4
		c-0.4,0-0.7,0.2-0.9,0.4c-0.2,0.3-0.3,0.6-0.3,1.1c0,0.5,0.1,0.8,0.3,1.1c0.2,0.3,0.5,0.4,0.9,0.4c0.4,0,0.6-0.1,0.9-0.4l0.4,0.4
		C429.7,40.7,429.3,40.8,428.8,40.8z"/>
	<path class="st14" d="M433.7,40.4c-0.3,0.3-0.6,0.4-1.1,0.4c-0.5,0-0.9-0.2-1.1-0.4c-0.4-0.4-0.5-1-0.5-1.6c0-0.6,0.1-1.2,0.5-1.6
		c0.3-0.3,0.6-0.4,1.1-0.4c0.5,0,0.9,0.2,1.1,0.4c0.4,0.4,0.5,1,0.5,1.6C434.2,39.4,434.1,40,433.7,40.4z M433.3,37.6
		c-0.2-0.2-0.4-0.3-0.7-0.3c-0.3,0-0.5,0.1-0.7,0.3c-0.3,0.3-0.3,0.8-0.3,1.2c0,0.4,0,0.9,0.3,1.2c0.2,0.2,0.4,0.3,0.7,0.3
		c0.3,0,0.5-0.1,0.7-0.3c0.3-0.3,0.3-0.8,0.3-1.2C433.6,38.4,433.6,37.9,433.3,37.6z"/>
	<path class="st14" d="M440.5,40.8v-2.4c0-0.7-0.4-1-1-1c-0.6,0-1,0.4-1,1v2.5h-0.6v-2.4c0-0.7-0.4-1-1-1s-1,0.4-1,1v2.4h-0.6v-3.9
		h0.6v0.4c0.3-0.3,0.7-0.5,1.1-0.5c0.5,0,1,0.2,1.2,0.7c0.3-0.4,0.7-0.7,1.3-0.7c0.4,0,0.8,0.1,1,0.4c0.3,0.3,0.4,0.6,0.4,1.1v2.5
		H440.5z"/>
</g>
<g>
</g>
<g>
	<rect x="24.4" y="112" class="st15" width="118.9" height="53.2"/>
	<path class="st12" d="M25.9,121.9v-10h1.1v9H32v1H25.9z"/>
	<path class="st12" d="M38.1,121.2c-0.5,0.5-1.1,0.8-2,0.8s-1.5-0.3-2-0.8c-0.7-0.7-0.8-1.7-0.8-2.7s0.1-2,0.8-2.7
		c0.5-0.5,1.1-0.8,2-0.8s1.5,0.3,2,0.8c0.7,0.7,0.8,1.7,0.8,2.7S38.8,120.5,38.1,121.2z M37.4,116.3c-0.3-0.3-0.8-0.5-1.3-0.5
		s-0.9,0.2-1.2,0.5c-0.5,0.5-0.6,1.4-0.6,2.1s0.1,1.6,0.6,2.1c0.3,0.3,0.8,0.5,1.2,0.5s0.9-0.2,1.3-0.5c0.5-0.5,0.5-1.4,0.5-2.1
		S37.9,116.9,37.4,116.3z"/>
	<path class="st12" d="M43.8,122c-1.7,0-3.1-1.2-3.1-3.5c0-2.4,1.3-3.5,3.1-3.5c1,0,1.6,0.3,2.3,1l-0.7,0.6
		c-0.5-0.6-0.9-0.8-1.6-0.8c-0.7,0-1.2,0.3-1.6,0.8c-0.3,0.4-0.4,1-0.4,1.8s0.1,1.4,0.4,1.8c0.4,0.5,0.9,0.8,1.6,0.8
		c0.7,0,1.1-0.2,1.6-0.8l0.7,0.7C45.4,121.8,44.8,122,43.8,122z"/>
	<path class="st12" d="M51.7,121.9v-0.7c-0.6,0.6-1.1,0.7-2,0.7c-1,0-1.5-0.2-1.9-0.6c-0.3-0.3-0.5-0.9-0.5-1.4c0-1.2,0.8-2,2.4-2
		h2.1v-0.7c0-1-0.5-1.5-1.8-1.5c-0.9,0-1.3,0.2-1.7,0.8l-0.7-0.6c0.6-0.8,1.3-1,2.4-1c1.8,0,2.8,0.8,2.8,2.3v4.7H51.7z M51.7,118.7
		h-1.9c-1,0-1.5,0.4-1.5,1.2s0.5,1.2,1.6,1.2c0.6,0,1.1,0,1.5-0.5c0.2-0.2,0.4-0.6,0.4-1.2V118.7z"/>
	<path class="st12" d="M57.1,121.9c-1.2,0-1.8-0.8-1.8-1.8v-4.2h-0.9v-0.8h0.9v-2.2h1v2.2h1.5v0.8h-1.5v4.2c0,0.6,0.3,1,0.9,1h0.5
		v0.9H57.1z"/>
	<path class="st12" d="M59.8,113.1v-1.1h1.1v1.1H59.8z M59.8,121.9V115h1v6.9H59.8z"/>
	<path class="st12" d="M67.8,121.2c-0.5,0.5-1.1,0.8-2,0.8s-1.5-0.3-2-0.8c-0.7-0.7-0.8-1.7-0.8-2.7s0.1-2,0.8-2.7
		c0.5-0.5,1.1-0.8,2-0.8s1.5,0.3,2,0.8c0.7,0.7,0.8,1.7,0.8,2.7S68.5,120.5,67.8,121.2z M67.1,116.3c-0.3-0.3-0.8-0.5-1.3-0.5
		s-0.9,0.2-1.2,0.5c-0.5,0.5-0.6,1.4-0.6,2.1s0.1,1.6,0.6,2.1c0.3,0.3,0.8,0.5,1.2,0.5s0.9-0.2,1.3-0.5c0.5-0.5,0.5-1.4,0.5-2.1
		S67.6,116.9,67.1,116.3z"/>
	<path class="st12" d="M75.2,121.9v-4.2c0-1.2-0.7-1.8-1.7-1.8s-1.7,0.6-1.7,1.8v4.2h-1V115h1v0.8c0.5-0.6,1.2-0.8,1.9-0.8
		c0.7,0,1.3,0.2,1.8,0.6c0.5,0.5,0.7,1.1,0.7,1.9v4.4H75.2z"/>
	<path class="st12" d="M84.9,122c-1.5,0-2.5-0.4-3.4-1.3l0.7-0.7c0.8,0.8,1.6,1.1,2.7,1.1c1.5,0,2.4-0.7,2.4-1.8
		c0-0.5-0.2-1-0.5-1.2c-0.3-0.3-0.6-0.4-1.3-0.5l-1.2-0.2c-0.8-0.1-1.4-0.4-1.8-0.8c-0.5-0.4-0.8-1.1-0.8-1.9c0-1.7,1.2-2.8,3.2-2.8
		c1.3,0,2.1,0.3,3,1.1l-0.7,0.7c-0.6-0.6-1.3-0.9-2.3-0.9c-1.3,0-2.1,0.7-2.1,1.8c0,0.5,0.1,0.9,0.4,1.1c0.3,0.3,0.8,0.5,1.3,0.5
		l1.1,0.2c0.9,0.1,1.4,0.3,1.8,0.7c0.5,0.5,0.8,1.1,0.8,2C88.3,120.9,87,122,84.9,122z"/>
	<path class="st12" d="M91,118.7c0,1.5,0.7,2.4,2,2.4c0.8,0,1.3-0.2,1.8-0.8l0.7,0.6c-0.7,0.7-1.3,1.1-2.5,1.1c-1.8,0-3-1.1-3-3.5
		c0-2.2,1.1-3.5,2.8-3.5c1.8,0,2.8,1.3,2.8,3.3v0.5H91z M94.4,116.8c-0.3-0.6-0.9-1-1.6-1s-1.3,0.4-1.6,1c-0.2,0.4-0.2,0.6-0.2,1.1
		h3.6C94.6,117.4,94.6,117.2,94.4,116.8z"/>
	<path class="st12" d="M101.7,116.3c-0.4-0.4-0.7-0.5-1.2-0.5c-1,0-1.7,0.8-1.7,1.8v4.2h-1V115h1v0.8c0.4-0.6,1.1-0.9,1.9-0.9
		c0.7,0,1.2,0.2,1.7,0.6L101.7,116.3z"/>
	<path class="st12" d="M106,121.9h-0.9l-2.5-6.9h1.1l1.9,5.5l1.9-5.5h1.1L106,121.9z"/>
	<path class="st12" d="M109.9,113.1v-1.1h1.1v1.1H109.9z M110,121.9V115h1v6.9H110z"/>
	<path class="st12" d="M116.2,122c-1.7,0-3.1-1.2-3.1-3.5c0-2.4,1.3-3.5,3.1-3.5c1,0,1.6,0.3,2.3,1l-0.7,0.6
		c-0.5-0.6-0.9-0.8-1.6-0.8c-0.7,0-1.2,0.3-1.6,0.8c-0.3,0.4-0.4,1-0.4,1.8s0.1,1.4,0.4,1.8c0.4,0.5,0.9,0.8,1.6,0.8
		c0.7,0,1.1-0.2,1.6-0.8l0.7,0.7C117.7,121.8,117.1,122,116.2,122z"/>
	<path class="st12" d="M120.8,118.7c0,1.5,0.7,2.4,2,2.4c0.8,0,1.3-0.2,1.8-0.8l0.7,0.6c-0.7,0.7-1.3,1.1-2.5,1.1
		c-1.8,0-3-1.1-3-3.5c0-2.2,1.1-3.5,2.8-3.5c1.8,0,2.8,1.3,2.8,3.3v0.5H120.8z M124.2,116.8c-0.3-0.6-0.9-1-1.6-1s-1.3,0.4-1.6,1
		c-0.2,0.4-0.2,0.6-0.2,1.1h3.6C124.4,117.4,124.4,117.2,124.2,116.8z"/>
	<path class="st12" d="M129.7,122c-1.2,0-2.1-0.3-2.8-1l0.7-0.7c0.5,0.6,1.3,0.8,2.1,0.8c1.1,0,1.8-0.4,1.8-1.2c0-0.6-0.4-0.9-1.1-1
		l-1.1-0.1c-1.3-0.1-2.1-0.7-2.1-1.8c0-1.3,1.1-2,2.5-2c1,0,1.9,0.2,2.5,0.7l-0.7,0.7c-0.5-0.4-1.1-0.5-1.8-0.5
		c-1,0-1.5,0.4-1.5,1.1c0,0.6,0.3,0.9,1.2,1l1.1,0.1c1.2,0.1,2,0.6,2,1.9C132.5,121.2,131.4,122,129.7,122z"/>
</g>
<rect x="15.8" y="258.7" class="st3" width="172" height="34.5"/>
<g>
	<rect x="24.4" y="270.4" class="st15" width="118.9" height="53.2"/>
	<path class="st12" d="M28.4,280.4c-1.5,0-2.5-0.4-3.4-1.3l0.7-0.7c0.8,0.8,1.6,1.1,2.7,1.1c1.5,0,2.4-0.7,2.4-1.8
		c0-0.5-0.2-1-0.5-1.2c-0.3-0.3-0.6-0.4-1.3-0.5l-1.2-0.2c-0.8-0.1-1.4-0.4-1.8-0.8c-0.5-0.4-0.8-1.1-0.8-1.9c0-1.7,1.2-2.8,3.2-2.8
		c1.3,0,2.1,0.3,3,1.1l-0.7,0.7c-0.6-0.6-1.3-0.9-2.3-0.9c-1.3,0-2.1,0.7-2.1,1.8c0,0.5,0.1,0.9,0.4,1.1c0.3,0.3,0.8,0.5,1.3,0.5
		l1.1,0.2c0.9,0.1,1.4,0.3,1.8,0.7c0.5,0.5,0.8,1.1,0.8,2C31.9,279.3,30.5,280.4,28.4,280.4z"/>
	<path class="st12" d="M38.3,280.3v-4.3c0-1.2-0.6-1.8-1.7-1.8s-1.7,0.6-1.7,1.8v4.3h-1v-10h1v3.8c0.5-0.6,1.2-0.8,1.9-0.8
		c1.6,0,2.5,1,2.5,2.5v4.4H38.3z"/>
	<path class="st12" d="M45.7,280.3v-0.7c-0.6,0.6-1.1,0.7-2,0.7c-1,0-1.5-0.2-1.9-0.6c-0.3-0.3-0.5-0.9-0.5-1.4c0-1.2,0.8-2,2.4-2
		h2.1v-0.7c0-1-0.5-1.5-1.8-1.5c-0.9,0-1.3,0.2-1.7,0.8l-0.7-0.6c0.6-0.8,1.3-1,2.4-1c1.8,0,2.8,0.8,2.8,2.3v4.7H45.7z M45.7,277.1
		h-1.9c-1,0-1.5,0.4-1.5,1.2c0,0.8,0.5,1.2,1.6,1.2c0.6,0,1.1,0,1.5-0.5c0.2-0.2,0.4-0.6,0.4-1.2V277.1z"/>
	<path class="st12" d="M53,274.7c-0.4-0.4-0.7-0.5-1.2-0.5c-1,0-1.7,0.8-1.7,1.8v4.2h-1v-6.9h1v0.8c0.4-0.6,1.1-0.9,1.9-0.9
		c0.7,0,1.2,0.2,1.7,0.6L53,274.7z"/>
	<path class="st12" d="M55.2,277.1c0,1.5,0.7,2.4,2,2.4c0.8,0,1.3-0.2,1.8-0.8l0.7,0.6c-0.7,0.7-1.3,1.1-2.5,1.1c-1.8,0-3-1.1-3-3.5
		c0-2.2,1.1-3.5,2.8-3.5c1.8,0,2.8,1.3,2.8,3.3v0.5H55.2z M58.6,275.2c-0.3-0.6-0.9-1-1.6-1s-1.3,0.4-1.6,1
		c-0.2,0.4-0.2,0.6-0.2,1.1h3.6C58.8,275.8,58.8,275.6,58.6,275.2z"/>
	<path class="st12" d="M74.3,280.3v-4.2c0-1.2-0.7-1.8-1.7-1.8c-1,0-1.7,0.6-1.7,1.7v4.4h-1v-4.2c0-1.2-0.7-1.8-1.7-1.8
		s-1.7,0.6-1.7,1.8v4.2h-1v-6.9h1v0.8c0.5-0.6,1.2-0.8,1.9-0.8c1,0,1.7,0.4,2.1,1.1c0.5-0.8,1.3-1.1,2.3-1.1c0.7,0,1.4,0.2,1.8,0.6
		c0.5,0.5,0.7,1.1,0.7,1.9v4.4H74.3z"/>
	<path class="st12" d="M79.5,282c-0.1,0.4-0.3,0.6-0.5,0.8c-0.4,0.4-0.9,0.5-1.3,0.5h-0.4v-0.9h0.3c0.7,0,0.9-0.2,1.1-0.9l0.5-1.3
		l-2.5-6.8h1.1l1.9,5.5l1.9-5.5h1.1L79.5,282z"/>
	<path class="st12" d="M89.3,280.3c-1.2,0-1.8-0.8-1.8-1.8v-8.1h1v8.1c0,0.7,0.2,1,0.9,1H90v0.9H89.3z"/>
	<path class="st12" d="M95.8,279.6c-0.5,0.5-1.1,0.8-2,0.8s-1.5-0.3-2-0.8c-0.7-0.7-0.8-1.7-0.8-2.7s0.1-2,0.8-2.7
		c0.5-0.5,1.1-0.8,2-0.8s1.5,0.3,2,0.8c0.7,0.7,0.8,1.7,0.8,2.7S96.5,278.9,95.8,279.6z M95.1,274.7c-0.3-0.3-0.8-0.5-1.3-0.5
		s-0.9,0.2-1.2,0.5c-0.5,0.5-0.6,1.4-0.6,2.1s0.1,1.6,0.6,2.1c0.3,0.3,0.8,0.5,1.2,0.5s0.9-0.2,1.3-0.5c0.5-0.5,0.5-1.4,0.5-2.1
		S95.6,275.2,95.1,274.7z"/>
	<path class="st12" d="M101.5,280.4c-1.7,0-3.1-1.2-3.1-3.5c0-2.4,1.3-3.5,3.1-3.5c1,0,1.6,0.3,2.3,1l-0.7,0.6
		c-0.5-0.6-0.9-0.8-1.6-0.8c-0.7,0-1.2,0.3-1.6,0.8c-0.3,0.4-0.4,1-0.4,1.8s0.1,1.4,0.4,1.8c0.4,0.5,0.9,0.8,1.6,0.8
		c0.7,0,1.1-0.2,1.6-0.8l0.7,0.7C103.1,280.2,102.5,280.4,101.5,280.4z"/>
	<path class="st12" d="M109.4,280.3v-0.7c-0.6,0.6-1.1,0.7-2,0.7c-1,0-1.5-0.2-1.9-0.6c-0.3-0.3-0.5-0.9-0.5-1.4c0-1.2,0.8-2,2.4-2
		h2.1v-0.7c0-1-0.5-1.5-1.8-1.5c-0.9,0-1.3,0.2-1.7,0.8l-0.7-0.6c0.6-0.8,1.3-1,2.4-1c1.8,0,2.8,0.8,2.8,2.3v4.7H109.4z
		 M109.4,277.1h-1.9c-1,0-1.5,0.4-1.5,1.2c0,0.8,0.5,1.2,1.6,1.2c0.6,0,1.1,0,1.5-0.5c0.2-0.2,0.3-0.6,0.3-1.2V277.1z"/>
	<path class="st12" d="M114.8,280.3c-1.2,0-1.8-0.8-1.8-1.8v-4.2h-0.9v-0.8h0.9v-2.2h1v2.2h1.5v0.8h-1.5v4.2c0,0.6,0.3,1,0.9,1h0.5
		v0.9H114.8z"/>
	<path class="st12" d="M117.5,271.5v-1.1h1.1v1.1H117.5z M117.5,280.3v-6.9h1v6.9H117.5z"/>
	<path class="st12" d="M125.5,279.6c-0.5,0.5-1.1,0.8-2,0.8s-1.5-0.3-2-0.8c-0.7-0.7-0.8-1.7-0.8-2.7s0.1-2,0.8-2.7
		c0.5-0.5,1.1-0.8,2-0.8s1.5,0.3,2,0.8c0.7,0.7,0.8,1.7,0.8,2.7S126.2,278.9,125.5,279.6z M124.8,274.7c-0.3-0.3-0.8-0.5-1.3-0.5
		s-0.9,0.2-1.2,0.5c-0.5,0.5-0.6,1.4-0.6,2.1s0.1,1.6,0.6,2.1c0.3,0.3,0.8,0.5,1.2,0.5s0.9-0.2,1.3-0.5c0.5-0.5,0.5-1.4,0.5-2.1
		S125.3,275.2,124.8,274.7z"/>
	<path class="st12" d="M132.9,280.3v-4.2c0-1.2-0.7-1.8-1.7-1.8c-1,0-1.7,0.6-1.7,1.8v4.2h-1v-6.9h1v0.8c0.5-0.6,1.2-0.8,1.9-0.8
		c0.7,0,1.3,0.2,1.8,0.6c0.5,0.5,0.7,1.1,0.7,1.9v4.4H132.9z"/>
</g>
<g>
	<rect x="24.8" y="152" class="st15" width="156.6" height="89.7"/>
	<path class="st12" d="M26,160.5V152h0.9v7.7h4.4v0.8H26z"/>
	<path class="st12" d="M36.5,159.9c-0.4,0.4-1,0.7-1.7,0.7s-1.3-0.3-1.7-0.7c-0.6-0.6-0.7-1.4-0.7-2.4c0-0.9,0.1-1.7,0.7-2.4
		c0.4-0.4,1-0.7,1.7-0.7s1.3,0.3,1.7,0.7c0.6,0.6,0.7,1.4,0.7,2.4C37.2,158.5,37.1,159.3,36.5,159.9z M35.9,155.7
		c-0.3-0.3-0.7-0.4-1.1-0.4s-0.8,0.2-1.1,0.4c-0.4,0.4-0.5,1.2-0.5,1.8s0,1.4,0.5,1.8c0.3,0.3,0.6,0.4,1.1,0.4s0.8-0.2,1.1-0.4
		c0.4-0.4,0.5-1.2,0.5-1.8S36.3,156.2,35.9,155.7z"/>
	<path class="st12" d="M41.4,160.6c-1.5,0-2.6-1-2.6-3c0-2,1.1-3,2.6-3c0.8,0,1.3,0.2,1.9,0.9l-0.6,0.6c-0.4-0.5-0.8-0.7-1.4-0.7
		c-0.6,0-1.1,0.2-1.4,0.7c-0.3,0.4-0.4,0.8-0.4,1.6c0,0.7,0.1,1.2,0.4,1.6c0.3,0.4,0.8,0.7,1.4,0.7c0.6,0,0.9-0.2,1.4-0.7l0.6,0.6
		C42.7,160.4,42.2,160.6,41.4,160.6z"/>
	<path class="st12" d="M48.2,160.5v-0.6c-0.5,0.5-0.9,0.6-1.7,0.6c-0.8,0-1.3-0.2-1.7-0.5c-0.3-0.3-0.4-0.7-0.4-1.2
		c0-1,0.7-1.7,2-1.7h1.8v-0.6c0-0.9-0.4-1.3-1.5-1.3c-0.8,0-1.1,0.2-1.5,0.7l-0.6-0.5c0.5-0.7,1.1-0.9,2.1-0.9c1.6,0,2.4,0.7,2.4,2
		v4H48.2z M48.2,157.8h-1.7c-0.9,0-1.3,0.4-1.3,1s0.4,1,1.4,1c0.5,0,0.9,0,1.3-0.4c0.2-0.2,0.3-0.5,0.3-1V157.8z"/>
	<path class="st12" d="M52.8,160.5c-1,0-1.5-0.7-1.5-1.6v-3.6h-0.7v-0.7h0.7v-1.8h0.9v1.8h1.3v0.7h-1.3v3.6c0,0.5,0.3,0.9,0.8,0.9
		h0.5v0.7H52.8z"/>
	<path class="st12" d="M55.1,152.9v-1h1v1H55.1z M55.1,160.5v-5.9H56v5.9H55.1z"/>
	<path class="st12" d="M61.9,159.9c-0.4,0.4-1,0.7-1.7,0.7s-1.3-0.3-1.7-0.7c-0.6-0.6-0.7-1.4-0.7-2.4c0-0.9,0.1-1.7,0.7-2.4
		c0.4-0.4,1-0.7,1.7-0.7s1.3,0.3,1.7,0.7c0.6,0.6,0.7,1.4,0.7,2.4C62.7,158.5,62.5,159.3,61.9,159.9z M61.3,155.7
		c-0.3-0.3-0.7-0.4-1.1-0.4s-0.8,0.2-1.1,0.4c-0.4,0.4-0.5,1.2-0.5,1.8s0,1.4,0.5,1.8c0.3,0.3,0.6,0.4,1.1,0.4s0.8-0.2,1.1-0.4
		c0.4-0.4,0.5-1.2,0.5-1.8S61.8,156.2,61.3,155.7z"/>
	<path class="st12" d="M68.3,160.5v-3.6c0-1-0.6-1.6-1.5-1.6c-0.9,0-1.5,0.5-1.5,1.6v3.6h-0.9v-5.9h0.9v0.6c0.4-0.5,1-0.7,1.7-0.7
		c0.6,0,1.2,0.2,1.5,0.6c0.4,0.4,0.6,1,0.6,1.6v3.8H68.3z"/>
	<path class="st12" d="M76.6,160.6c-1.3,0-2.1-0.3-2.9-1.1l0.6-0.6c0.7,0.7,1.4,0.9,2.3,0.9c1.2,0,2-0.6,2-1.6
		c0-0.4-0.1-0.8-0.4-1.1s-0.5-0.3-1.1-0.4l-1-0.2c-0.7-0.1-1.2-0.3-1.6-0.6c-0.4-0.4-0.6-0.9-0.6-1.6c0-1.5,1-2.4,2.7-2.4
		c1.1,0,1.8,0.3,2.5,0.9l-0.6,0.6c-0.5-0.5-1.1-0.7-2-0.7c-1.1,0-1.8,0.6-1.8,1.6c0,0.4,0.1,0.8,0.4,1c0.3,0.2,0.7,0.4,1.2,0.5
		l0.9,0.1c0.8,0.1,1.2,0.3,1.6,0.6c0.5,0.4,0.7,1,0.7,1.7C79.5,159.6,78.4,160.6,76.6,160.6z"/>
	<path class="st12" d="M81.8,157.8c0,1.3,0.6,2,1.7,2c0.7,0,1.1-0.2,1.5-0.7l0.6,0.5c-0.6,0.6-1.2,0.9-2.2,0.9c-1.6,0-2.6-0.9-2.6-3
		c0-1.9,0.9-3,2.4-3c1.5,0,2.4,1.1,2.4,2.9v0.4H81.8z M84.8,156.1c-0.2-0.5-0.8-0.9-1.4-0.9s-1.2,0.3-1.4,0.9
		c-0.1,0.3-0.2,0.5-0.2,1H85C84.9,156.6,84.9,156.5,84.8,156.1z"/>
	<path class="st12" d="M91,155.7c-0.3-0.3-0.6-0.4-1-0.4c-0.9,0-1.4,0.7-1.4,1.6v3.6h-0.9v-5.9h0.9v0.7c0.3-0.5,1-0.8,1.7-0.8
		c0.6,0,1,0.1,1.4,0.6L91,155.7z"/>
	<path class="st12" d="M94.7,160.5h-0.8l-2.2-5.9h0.9l1.6,4.7l1.6-4.7h0.9L94.7,160.5z"/>
	<path class="st12" d="M98,152.9v-1h1v1H98z M98.1,160.5v-5.9h0.9v5.9H98.1z"/>
	<path class="st12" d="M103.4,160.6c-1.5,0-2.6-1-2.6-3c0-2,1.1-3,2.6-3c0.8,0,1.3,0.2,1.9,0.9l-0.6,0.6c-0.4-0.5-0.8-0.7-1.4-0.7
		c-0.6,0-1.1,0.2-1.4,0.7c-0.3,0.4-0.4,0.8-0.4,1.6c0,0.7,0.1,1.2,0.4,1.6c0.3,0.4,0.8,0.7,1.4,0.7c0.6,0,0.9-0.2,1.4-0.7l0.6,0.6
		C104.7,160.4,104.2,160.6,103.4,160.6z"/>
	<path class="st12" d="M107.3,157.8c0,1.3,0.6,2,1.7,2c0.7,0,1.1-0.2,1.5-0.7l0.6,0.5c-0.6,0.6-1.2,0.9-2.2,0.9
		c-1.6,0-2.6-0.9-2.6-3c0-1.9,0.9-3,2.4-3c1.5,0,2.4,1.1,2.4,2.9v0.4H107.3z M110.3,156.1c-0.2-0.5-0.8-0.9-1.4-0.9
		s-1.2,0.3-1.4,0.9c-0.1,0.3-0.2,0.5-0.2,1h3.1C110.4,156.6,110.4,156.5,110.3,156.1z"/>
	<path class="st12" d="M115,160.6c-1,0-1.8-0.2-2.4-0.9l0.6-0.6c0.5,0.5,1.1,0.7,1.8,0.7c1,0,1.6-0.3,1.6-1c0-0.5-0.3-0.8-1-0.9
		l-1-0.1c-1.2-0.1-1.8-0.6-1.8-1.6c0-1.1,0.9-1.7,2.2-1.7c0.8,0,1.6,0.2,2.1,0.6l-0.6,0.6c-0.4-0.3-1-0.5-1.6-0.5
		c-0.9,0-1.3,0.4-1.3,1c0,0.5,0.3,0.8,1,0.9l0.9,0.1c1,0.1,1.7,0.5,1.7,1.6C117.4,159.9,116.5,160.6,115,160.6z"/>
	<path class="st12" d="M125.8,160.5v-0.7c-0.4,0.5-1,0.7-1.7,0.7c-0.6,0-1.2-0.2-1.5-0.6c-0.4-0.4-0.6-1-0.6-1.7v-3.8h0.9v3.6
		c0,1,0.6,1.6,1.4,1.6s1.5-0.5,1.5-1.6v-3.6h0.9v5.9H125.8z"/>
	<path class="st12" d="M130.7,160.6c-1,0-1.8-0.2-2.4-0.9l0.6-0.6c0.5,0.5,1.1,0.7,1.8,0.7c1,0,1.6-0.3,1.6-1c0-0.5-0.3-0.8-1-0.9
		l-1-0.1c-1.2-0.1-1.8-0.6-1.8-1.6c0-1.1,0.9-1.7,2.2-1.7c0.8,0,1.6,0.2,2.1,0.6l-0.6,0.6c-0.4-0.3-1-0.5-1.6-0.5
		c-0.9,0-1.3,0.4-1.3,1c0,0.5,0.3,0.8,1,0.9l0.9,0.1c1,0.1,1.7,0.5,1.7,1.6C133.1,159.9,132.1,160.6,130.7,160.6z"/>
	<path class="st12" d="M135.3,157.8c0,1.3,0.6,2,1.7,2c0.7,0,1.1-0.2,1.5-0.7l0.6,0.5c-0.6,0.6-1.2,0.9-2.2,0.9
		c-1.6,0-2.6-0.9-2.6-3c0-1.9,0.9-3,2.4-3c1.5,0,2.4,1.1,2.4,2.9v0.4H135.3z M138.3,156.1c-0.2-0.5-0.8-0.9-1.4-0.9
		c-0.6,0-1.2,0.3-1.4,0.9c-0.1,0.3-0.2,0.5-0.2,1h3.1C138.4,156.6,138.4,156.5,138.3,156.1z"/>
	<path class="st12" d="M143,160.6c-1,0-1.8-0.2-2.4-0.9l0.6-0.6c0.5,0.5,1.1,0.7,1.8,0.7c1,0,1.6-0.3,1.6-1c0-0.5-0.3-0.8-1-0.9
		l-1-0.1c-1.2-0.1-1.8-0.6-1.8-1.6c0-1.1,0.9-1.7,2.2-1.7c0.8,0,1.6,0.2,2.1,0.6l-0.6,0.6c-0.4-0.3-1-0.5-1.6-0.5
		c-0.9,0-1.3,0.4-1.3,1c0,0.5,0.3,0.8,1,0.9l0.9,0.1c1,0.1,1.7,0.5,1.7,1.6C145.4,159.9,144.4,160.6,143,160.6z"/>
	<path class="st12" d="M155.2,159.6c-0.6,0.6-1.4,1-2.3,1c-0.8,0-1.6-0.3-2.2-0.9c-0.8-0.8-0.8-1.6-0.8-3.5s0-2.7,0.8-3.5
		c0.6-0.6,1.3-0.9,2.2-0.9c1.6,0,2.7,1.1,3,2.6H155c-0.2-1.1-1-1.7-2.1-1.7c-0.6,0-1.1,0.2-1.5,0.6c-0.5,0.6-0.6,1.1-0.6,2.9
		s0.1,2.4,0.6,2.9c0.4,0.4,0.9,0.6,1.5,0.6c0.6,0,1.2-0.3,1.6-0.7c0.3-0.4,0.5-0.9,0.5-1.5v-0.6h-2.1V156h3v1.4
		C155.9,158.4,155.7,159,155.2,159.6z"/>
	<path class="st12" d="M161.2,157H159v3.5h-0.9V152h3.2c1.6,0,2.6,1,2.6,2.5S162.8,157,161.2,157z M161.2,152.8H159v3.4h2.2
		c1.1,0,1.8-0.6,1.8-1.7S162.2,152.8,161.2,152.8z"/>
	<path class="st12" d="M167.8,160.6c-1.3,0-2.1-0.3-2.9-1.1l0.6-0.6c0.7,0.7,1.4,0.9,2.3,0.9c1.2,0,2-0.6,2-1.6
		c0-0.4-0.1-0.8-0.4-1.1c-0.3-0.2-0.5-0.3-1.1-0.4l-1-0.2c-0.7-0.1-1.2-0.3-1.6-0.6c-0.4-0.4-0.6-0.9-0.6-1.6c0-1.5,1-2.4,2.7-2.4
		c1.1,0,1.8,0.3,2.5,0.9l-0.6,0.6c-0.5-0.5-1.1-0.7-2-0.7c-1.1,0-1.8,0.6-1.8,1.6c0,0.4,0.1,0.8,0.4,1c0.3,0.2,0.7,0.4,1.2,0.5
		l0.9,0.1c0.8,0.1,1.2,0.3,1.6,0.6c0.5,0.4,0.7,1,0.7,1.7C170.8,159.6,169.6,160.6,167.8,160.6z"/>
	<path class="st12" d="M172.5,162.2v-2.8h1.1v1.8L172.5,162.2z"/>
	<path class="st12" d="M29.3,176.5H26V168h3.2c1.5,0,2.5,0.9,2.5,2.3c0,0.9-0.5,1.6-1.3,1.9c0.8,0.3,1.4,1,1.4,2
		C31.9,175.7,30.8,176.5,29.3,176.5z M29.1,168.8h-2.2v3h2.2c0.9,0,1.7-0.5,1.7-1.5S30.1,168.8,29.1,168.8z M29.2,172.6h-2.3v3.1
		h2.3c1.1,0,1.7-0.6,1.7-1.6S30.3,172.6,29.2,172.6z"/>
	<path class="st12" d="M35.3,176.5c-1,0-1.5-0.7-1.5-1.6v-7h0.9v6.9c0,0.6,0.2,0.9,0.8,0.9H36v0.7H35.3z"/>
	<path class="st12" d="M41.2,176.5v-0.7c-0.4,0.5-1,0.7-1.7,0.7c-0.6,0-1.2-0.2-1.5-0.6c-0.4-0.4-0.6-1-0.6-1.7v-3.8h0.9v3.6
		c0,1,0.6,1.6,1.4,1.6c0.9,0,1.5-0.5,1.5-1.6v-3.6H42v5.9H41.2z"/>
	<path class="st12" d="M44.7,173.8c0,1.3,0.6,2,1.7,2c0.7,0,1.1-0.2,1.5-0.7l0.6,0.5c-0.6,0.6-1.2,0.9-2.2,0.9c-1.6,0-2.6-0.9-2.6-3
		c0-1.9,0.9-3,2.4-3c1.5,0,2.4,1.1,2.4,2.9v0.4H44.7z M47.6,172.1c-0.2-0.5-0.8-0.9-1.4-0.9s-1.2,0.3-1.4,0.9
		c-0.1,0.3-0.2,0.5-0.2,1h3.1C47.8,172.6,47.8,172.5,47.6,172.1z"/>
	<path class="st12" d="M52.2,176.5c-1,0-1.5-0.7-1.5-1.6v-3.6h-0.7v-0.7h0.7v-1.8h0.9v1.8h1.3v0.7h-1.3v3.6c0,0.5,0.3,0.9,0.8,0.9
		h0.5v0.7H52.2z"/>
	<path class="st12" d="M58.2,175.9c-0.4,0.4-1,0.7-1.7,0.7s-1.3-0.3-1.7-0.7c-0.6-0.6-0.7-1.4-0.7-2.4c0-0.9,0.1-1.7,0.7-2.4
		c0.4-0.4,1-0.7,1.7-0.7s1.3,0.3,1.7,0.7c0.6,0.6,0.7,1.4,0.7,2.4C58.9,174.5,58.8,175.3,58.2,175.9z M57.6,171.7
		c-0.3-0.3-0.7-0.4-1.1-0.4s-0.8,0.2-1.1,0.4c-0.4,0.4-0.5,1.2-0.5,1.8s0,1.4,0.5,1.8c0.3,0.3,0.6,0.4,1.1,0.4s0.8-0.2,1.1-0.4
		c0.4-0.4,0.5-1.2,0.5-1.8S58,172.2,57.6,171.7z"/>
	<path class="st12" d="M64.6,175.9c-0.4,0.4-1,0.7-1.7,0.7s-1.3-0.3-1.7-0.7c-0.6-0.6-0.7-1.4-0.7-2.4c0-0.9,0.1-1.7,0.7-2.4
		c0.4-0.4,1-0.7,1.7-0.7s1.3,0.3,1.7,0.7c0.6,0.6,0.7,1.4,0.7,2.4C65.3,174.5,65.2,175.3,64.6,175.9z M64,171.7
		c-0.3-0.3-0.7-0.4-1.1-0.4s-0.8,0.2-1.1,0.4c-0.4,0.4-0.5,1.2-0.5,1.8s0,1.4,0.5,1.8c0.3,0.3,0.6,0.4,1.1,0.4s0.8-0.2,1.1-0.4
		c0.4-0.4,0.5-1.2,0.5-1.8S64.4,172.2,64,171.7z"/>
	<path class="st12" d="M68.8,176.5c-1,0-1.5-0.7-1.5-1.6v-3.6h-0.7v-0.7h0.7v-1.8h0.9v1.8h1.3v0.7h-1.3v3.6c0,0.5,0.3,0.9,0.8,0.9
		h0.5v0.7H68.8z"/>
	<path class="st12" d="M74.9,176.5v-3.6c0-1-0.6-1.6-1.4-1.6c-0.9,0-1.5,0.5-1.5,1.6v3.6h-0.9V168H72v3.3c0.4-0.5,1-0.7,1.7-0.7
		c1.3,0,2.1,0.9,2.1,2.2v3.8H74.9z"/>
	<path class="st12" d="M77.8,178.2v-2.8h1.1v1.8L77.8,178.2z"/>
	<path class="st12" d="M87.4,176.5v-0.6c-0.5,0.5-0.9,0.6-1.7,0.6c-0.8,0-1.3-0.2-1.7-0.5c-0.3-0.3-0.4-0.7-0.4-1.2
		c0-1,0.7-1.7,2-1.7h1.8v-0.6c0-0.9-0.4-1.3-1.5-1.3c-0.8,0-1.1,0.2-1.5,0.7l-0.6-0.5c0.5-0.7,1.1-0.9,2.1-0.9c1.6,0,2.4,0.7,2.4,2
		v4H87.4z M87.4,173.8h-1.7c-0.9,0-1.3,0.4-1.3,1s0.4,1,1.4,1c0.5,0,0.9,0,1.3-0.4c0.2-0.2,0.3-0.5,0.3-1V173.8z"/>
	<path class="st12" d="M94.1,176.5v-3.6c0-1-0.6-1.6-1.5-1.6c-0.9,0-1.5,0.5-1.5,1.6v3.6h-0.9v-5.9h0.9v0.6c0.4-0.5,1-0.7,1.7-0.7
		c0.6,0,1.2,0.2,1.5,0.6c0.4,0.4,0.6,1,0.6,1.6v3.8H94.1z"/>
	<path class="st12" d="M100.6,176.5v-0.7c-0.5,0.6-1,0.8-1.7,0.8c-0.6,0-1.1-0.2-1.4-0.5c-0.6-0.6-0.7-1.6-0.7-2.5
		c0-0.9,0.1-1.9,0.7-2.5c0.3-0.3,0.8-0.5,1.4-0.5c0.6,0,1.2,0.1,1.7,0.8V168h0.9v8.5H100.6z M99.1,171.3c-1.3,0-1.5,1.1-1.5,2.3
		s0.2,2.3,1.5,2.3s1.5-1.1,1.5-2.3S100.4,171.3,99.1,171.3z"/>
	<path class="st12" d="M28.1,192.6c-1.5,0-2.6-1-2.6-3c0-2,1.1-3,2.6-3c0.8,0,1.3,0.2,1.9,0.9l-0.6,0.6c-0.4-0.5-0.8-0.7-1.4-0.7
		c-0.6,0-1.1,0.2-1.4,0.7c-0.3,0.4-0.4,0.8-0.4,1.6c0,0.7,0.1,1.2,0.4,1.6c0.3,0.4,0.8,0.7,1.4,0.7c0.6,0,0.9-0.2,1.4-0.7l0.6,0.6
		C29.5,192.4,28.9,192.6,28.1,192.6z"/>
	<path class="st12" d="M35,187.7c-0.3-0.3-0.6-0.4-1-0.4c-0.9,0-1.4,0.7-1.4,1.6v3.6h-0.9v-5.9h0.9v0.7c0.3-0.5,1-0.8,1.7-0.8
		c0.6,0,1,0.1,1.4,0.6L35,187.7z"/>
	<path class="st12" d="M40.2,191.9c-0.4,0.4-1,0.7-1.7,0.7s-1.3-0.3-1.7-0.7c-0.6-0.6-0.7-1.4-0.7-2.4c0-0.9,0.1-1.7,0.7-2.4
		c0.4-0.4,1-0.7,1.7-0.7s1.3,0.3,1.7,0.7c0.6,0.6,0.7,1.4,0.7,2.4C40.9,190.5,40.8,191.3,40.2,191.9z M39.5,187.7
		c-0.3-0.3-0.7-0.4-1.1-0.4s-0.8,0.2-1.1,0.4c-0.4,0.4-0.5,1.2-0.5,1.8s0,1.4,0.5,1.8c0.3,0.3,0.6,0.4,1.1,0.4s0.8-0.2,1.1-0.4
		c0.4-0.4,0.5-1.2,0.5-1.8S40,188.2,39.5,187.7z"/>
	<path class="st12" d="M48.3,192.5h-0.8l-1.5-4.6l-1.5,4.6h-0.8l-1.9-5.9h0.9l1.4,4.7l1.5-4.7h0.7l1.6,4.7l1.3-4.7h0.9L48.3,192.5z"
		/>
	<path class="st12" d="M54.9,192.5v-0.7c-0.5,0.6-1,0.8-1.7,0.8c-0.6,0-1.1-0.2-1.4-0.5c-0.6-0.6-0.7-1.6-0.7-2.5
		c0-0.9,0.1-1.9,0.7-2.5c0.3-0.3,0.8-0.5,1.4-0.5c0.6,0,1.2,0.1,1.7,0.8V184h0.9v8.5H54.9z M53.4,187.3c-1.3,0-1.5,1.1-1.5,2.3
		s0.2,2.3,1.5,2.3s1.5-1.1,1.5-2.3S54.7,187.3,53.4,187.3z"/>
	<path class="st12" d="M57.7,189.7v-0.8H61v0.8H57.7z"/>
	<path class="st12" d="M64.9,192.6c-1,0-1.8-0.2-2.4-0.9l0.6-0.6c0.5,0.5,1.1,0.7,1.8,0.7c1,0,1.6-0.3,1.6-1c0-0.5-0.3-0.8-1-0.9
		l-1-0.1c-1.2-0.1-1.8-0.6-1.8-1.6c0-1.1,0.9-1.7,2.2-1.7c0.8,0,1.6,0.2,2.1,0.6l-0.6,0.6c-0.4-0.3-1-0.5-1.6-0.5
		c-0.9,0-1.3,0.4-1.3,1c0,0.5,0.3,0.8,1,0.9l0.9,0.1c1,0.1,1.7,0.5,1.7,1.6C67.3,191.9,66.3,192.6,64.9,192.6z"/>
	<path class="st12" d="M72.7,191.9c-0.4,0.4-1,0.7-1.7,0.7s-1.3-0.3-1.7-0.7c-0.6-0.6-0.7-1.4-0.7-2.4c0-0.9,0.1-1.7,0.7-2.4
		c0.4-0.4,1-0.7,1.7-0.7s1.3,0.3,1.7,0.7c0.6,0.6,0.7,1.4,0.7,2.4C73.5,190.5,73.3,191.3,72.7,191.9z M72.1,187.7
		c-0.3-0.3-0.7-0.4-1.1-0.4s-0.8,0.2-1.1,0.4c-0.4,0.4-0.5,1.2-0.5,1.8s0,1.4,0.5,1.8c0.3,0.3,0.6,0.4,1.1,0.4s0.8-0.2,1.1-0.4
		c0.4-0.4,0.5-1.2,0.5-1.8S72.6,188.2,72.1,187.7z"/>
	<path class="st12" d="M79,192.5v-0.7c-0.4,0.5-1,0.7-1.7,0.7c-0.6,0-1.2-0.2-1.5-0.6c-0.4-0.4-0.6-1-0.6-1.7v-3.8h0.9v3.6
		c0,1,0.6,1.6,1.4,1.6c0.9,0,1.5-0.5,1.5-1.6v-3.6h0.9v5.9H79z"/>
	<path class="st12" d="M85.4,187.7c-0.3-0.3-0.6-0.4-1-0.4c-0.9,0-1.4,0.7-1.4,1.6v3.6h-0.9v-5.9h0.9v0.7c0.3-0.5,1-0.8,1.7-0.8
		c0.6,0,1,0.1,1.4,0.6L85.4,187.7z"/>
	<path class="st12" d="M89,192.6c-1.5,0-2.6-1-2.6-3c0-2,1.1-3,2.6-3c0.8,0,1.3,0.2,1.9,0.9l-0.6,0.6c-0.4-0.5-0.8-0.7-1.4-0.7
		c-0.6,0-1.1,0.2-1.4,0.7c-0.3,0.4-0.4,0.8-0.4,1.6c0,0.7,0.1,1.2,0.4,1.6c0.3,0.4,0.8,0.7,1.4,0.7c0.6,0,0.9-0.2,1.4-0.7l0.6,0.6
		C90.3,192.4,89.8,192.6,89,192.6z"/>
	<path class="st12" d="M92.9,189.8c0,1.3,0.6,2,1.7,2c0.7,0,1.1-0.2,1.5-0.7l0.6,0.5c-0.6,0.6-1.2,0.9-2.2,0.9c-1.6,0-2.6-0.9-2.6-3
		c0-1.9,0.9-3,2.4-3c1.5,0,2.4,1.1,2.4,2.9v0.4H92.9z M95.9,188.1c-0.2-0.5-0.8-0.9-1.4-0.9s-1.2,0.3-1.4,0.9
		c-0.1,0.3-0.2,0.5-0.2,1h3.1C96,188.6,96,188.5,95.9,188.1z"/>
	<path class="st12" d="M102.3,192.5v-0.7c-0.5,0.6-1,0.8-1.7,0.8c-0.6,0-1.1-0.2-1.4-0.5c-0.6-0.6-0.7-1.6-0.7-2.5
		c0-0.9,0.1-1.9,0.7-2.5c0.3-0.3,0.8-0.5,1.4-0.5c0.6,0,1.2,0.1,1.7,0.8V184h0.9v8.5H102.3z M100.8,187.3c-1.3,0-1.5,1.1-1.5,2.3
		s0.2,2.3,1.5,2.3s1.5-1.1,1.5-2.3S102.1,187.3,100.8,187.3z"/>
	<path class="st12" d="M115.1,192.5h-0.9l-1.9-6.8l-1.9,6.8h-0.9l-2.2-8.5h1l1.7,6.9l1.9-6.9h0.8l1.9,6.9l1.7-6.9h1L115.1,192.5z"/>
	<path class="st12" d="M118.5,184.9v-1h1v1H118.5z M118.5,192.5v-5.9h0.9v5.9H118.5z"/>
	<path class="st12" d="M121.4,189.7v-0.8h3.3v0.8H121.4z"/>
	<path class="st12" d="M127.8,184.8v3.1h3.7v0.8h-3.7v3.8h-0.9V184h5.3v0.8H127.8z"/>
	<path class="st12" d="M133.6,184.9v-1h1v1H133.6z M133.7,192.5v-5.9h0.9v5.9H133.7z"/>
	<path class="st12" d="M143.5,192.5v-3.6c0-1-0.6-1.6-1.4-1.6s-1.5,0.5-1.5,1.6v3.6h-0.9V184h0.9v3.3c0.4-0.5,1-0.7,1.7-0.7
		c1.3,0,2.1,0.9,2.1,2.2v3.8H143.5z"/>
	<path class="st12" d="M150.2,191.9c-0.4,0.4-1,0.7-1.7,0.7c-0.7,0-1.3-0.3-1.7-0.7c-0.6-0.6-0.7-1.4-0.7-2.4c0-0.9,0.1-1.7,0.7-2.4
		c0.4-0.4,1-0.7,1.7-0.7c0.7,0,1.3,0.3,1.7,0.7c0.6,0.6,0.7,1.4,0.7,2.4C150.9,190.5,150.8,191.3,150.2,191.9z M149.6,187.7
		c-0.3-0.3-0.7-0.4-1.1-0.4c-0.4,0-0.8,0.2-1.1,0.4c-0.4,0.4-0.5,1.2-0.5,1.8s0,1.4,0.5,1.8c0.3,0.3,0.6,0.4,1.1,0.4
		c0.4,0,0.8-0.2,1.1-0.4c0.4-0.4,0.5-1.2,0.5-1.8S150,188.2,149.6,187.7z"/>
	<path class="st12" d="M154.4,192.5c-1,0-1.5-0.7-1.5-1.6v-3.6h-0.7v-0.7h0.7v-1.8h0.9v1.8h1.3v0.7h-1.3v3.6c0,0.5,0.3,0.9,0.8,0.9
		h0.5v0.7H154.4z"/>
	<path class="st12" d="M158.6,192.6c-1,0-1.8-0.2-2.4-0.9l0.6-0.6c0.5,0.5,1.1,0.7,1.8,0.7c1,0,1.6-0.3,1.6-1c0-0.5-0.3-0.8-1-0.9
		l-1-0.1c-1.2-0.1-1.8-0.6-1.8-1.6c0-1.1,0.9-1.7,2.2-1.7c0.8,0,1.6,0.2,2.1,0.6l-0.6,0.6c-0.4-0.3-1-0.5-1.6-0.5
		c-0.9,0-1.3,0.4-1.3,1c0,0.5,0.3,0.8,1,0.9l0.9,0.1c1,0.1,1.7,0.5,1.7,1.6C161,191.9,160,192.6,158.6,192.6z"/>
	<path class="st12" d="M166.7,192.1c-0.3,0.3-0.8,0.5-1.4,0.5c-0.6,0-1.2-0.2-1.7-0.8v3.3h-0.9v-8.5h0.9v0.7c0.5-0.6,1-0.8,1.7-0.8
		c0.6,0,1.1,0.2,1.4,0.5c0.6,0.6,0.7,1.6,0.7,2.5C167.4,190.5,167.3,191.5,166.7,192.1z M165.1,187.3c-1.3,0-1.5,1.1-1.5,2.3
		s0.2,2.3,1.5,2.3c1.3,0,1.5-1.1,1.5-2.3S166.3,187.3,165.1,187.3z"/>
	<path class="st12" d="M173,191.9c-0.4,0.4-1,0.7-1.7,0.7c-0.7,0-1.3-0.3-1.7-0.7c-0.6-0.6-0.7-1.4-0.7-2.4c0-0.9,0.1-1.7,0.7-2.4
		c0.4-0.4,1-0.7,1.7-0.7c0.7,0,1.3,0.3,1.7,0.7c0.6,0.6,0.7,1.4,0.7,2.4C173.8,190.5,173.6,191.3,173,191.9z M172.4,187.7
		c-0.3-0.3-0.7-0.4-1.1-0.4c-0.4,0-0.8,0.2-1.1,0.4c-0.4,0.4-0.5,1.2-0.5,1.8s0,1.4,0.5,1.8c0.3,0.3,0.6,0.4,1.1,0.4
		c0.4,0,0.8-0.2,1.1-0.4c0.4-0.4,0.5-1.2,0.5-1.8S172.9,188.2,172.4,187.7z"/>
	<path class="st12" d="M177.3,192.5c-1,0-1.5-0.7-1.5-1.6v-3.6H175v-0.7h0.7v-1.8h0.9v1.8h1.3v0.7h-1.3v3.6c0,0.5,0.3,0.9,0.8,0.9
		h0.5v0.7H177.3z"/>
	<path class="st12" d="M29.2,208.5v-0.6c-0.5,0.5-0.9,0.6-1.7,0.6c-0.8,0-1.3-0.2-1.7-0.5c-0.3-0.3-0.4-0.7-0.4-1.2
		c0-1,0.7-1.7,2-1.7h1.8v-0.6c0-0.9-0.4-1.3-1.5-1.3c-0.8,0-1.1,0.2-1.5,0.7l-0.6-0.5c0.5-0.7,1.1-0.9,2.1-0.9c1.6,0,2.4,0.7,2.4,2
		v4H29.2z M29.2,205.8h-1.7c-0.9,0-1.3,0.4-1.3,1s0.4,1,1.4,1c0.5,0,0.9,0,1.3-0.4c0.2-0.2,0.3-0.5,0.3-1V205.8z"/>
	<path class="st12" d="M35.9,208.5v-3.6c0-1-0.6-1.6-1.5-1.6c-0.9,0-1.5,0.5-1.5,1.6v3.6h-0.9v-5.9H33v0.6c0.4-0.5,1-0.7,1.7-0.7
		c0.6,0,1.2,0.2,1.5,0.6c0.4,0.4,0.6,1,0.6,1.6v3.8H35.9z"/>
	<path class="st12" d="M42.4,208.5v-0.7c-0.5,0.6-1,0.8-1.7,0.8c-0.6,0-1.1-0.2-1.4-0.5c-0.6-0.6-0.7-1.6-0.7-2.5
		c0-0.9,0.1-1.9,0.7-2.5c0.3-0.3,0.8-0.5,1.4-0.5c0.6,0,1.2,0.1,1.7,0.8V200h0.9v8.5H42.4z M40.9,203.3c-1.3,0-1.5,1.1-1.5,2.3
		s0.2,2.3,1.5,2.3s1.5-1.1,1.5-2.3S42.2,203.3,40.9,203.3z"/>
	<path class="st12" d="M56,208.5v-3.6c0-1-0.6-1.6-1.5-1.6c-0.9,0-1.5,0.5-1.5,1.5v3.7h-0.9v-3.6c0-1-0.6-1.6-1.5-1.6
		c-0.9,0-1.5,0.5-1.5,1.6v3.6h-0.9v-5.9h0.9v0.6c0.4-0.5,1-0.7,1.7-0.7c0.8,0,1.5,0.3,1.8,1c0.5-0.6,1.1-1,1.9-1
		c0.6,0,1.2,0.2,1.5,0.6c0.4,0.4,0.6,1,0.6,1.6v3.8H56z"/>
	<path class="st12" d="M62.8,207.9c-0.4,0.4-1,0.7-1.7,0.7s-1.3-0.3-1.7-0.7c-0.6-0.6-0.7-1.4-0.7-2.4c0-0.9,0.1-1.7,0.7-2.4
		c0.4-0.4,1-0.7,1.7-0.7s1.3,0.3,1.7,0.7c0.6,0.6,0.7,1.4,0.7,2.4C63.5,206.5,63.4,207.3,62.8,207.9z M62.2,203.7
		c-0.3-0.3-0.7-0.4-1.1-0.4s-0.8,0.2-1.1,0.4c-0.4,0.4-0.5,1.2-0.5,1.8s0,1.4,0.5,1.8c0.3,0.3,0.6,0.4,1.1,0.4s0.8-0.2,1.1-0.4
		c0.4-0.4,0.5-1.2,0.5-1.8S62.6,204.2,62.2,203.7z"/>
	<path class="st12" d="M69.3,208.1c-0.3,0.3-0.8,0.5-1.4,0.5c-0.6,0-1.2-0.2-1.7-0.8v0.7h-0.9V200h0.9v3.3c0.5-0.6,1-0.8,1.7-0.8
		c0.6,0,1.1,0.2,1.4,0.5c0.6,0.6,0.7,1.6,0.7,2.5C70,206.5,69.9,207.5,69.3,208.1z M67.7,203.3c-1.3,0-1.5,1.1-1.5,2.3
		s0.2,2.3,1.5,2.3s1.5-1.1,1.5-2.3S69,203.3,67.7,203.3z"/>
	<path class="st12" d="M71.8,200.9v-1h1v1H71.8z M71.9,208.5v-5.9h0.9v5.9H71.9z"/>
	<path class="st12" d="M76.4,208.5c-1,0-1.5-0.7-1.5-1.6v-7h0.9v6.9c0,0.6,0.2,0.9,0.8,0.9H77v0.7H76.4z"/>
	<path class="st12" d="M78.7,205.8c0,1.3,0.6,2,1.7,2c0.7,0,1.1-0.2,1.5-0.7l0.6,0.5c-0.6,0.6-1.2,0.9-2.2,0.9c-1.6,0-2.6-0.9-2.6-3
		c0-1.9,0.9-3,2.4-3c1.5,0,2.4,1.1,2.4,2.9v0.4H78.7z M81.7,204.1c-0.2-0.5-0.8-0.9-1.4-0.9s-1.2,0.3-1.4,0.9
		c-0.1,0.3-0.2,0.5-0.2,1h3.1C81.8,204.6,81.8,204.5,81.7,204.1z"/>
	<path class="st12" d="M89.2,208.5c-1,0-1.5-0.7-1.5-1.6v-3.6h-0.7v-0.7h0.7v-1.8h0.9v1.8h1.3v0.7h-1.3v3.6c0,0.5,0.3,0.9,0.8,0.9
		h0.5v0.7H89.2z"/>
	<path class="st12" d="M95.2,207.9c-0.4,0.4-1,0.7-1.7,0.7s-1.3-0.3-1.7-0.7c-0.6-0.6-0.7-1.4-0.7-2.4c0-0.9,0.1-1.7,0.7-2.4
		c0.4-0.4,1-0.7,1.7-0.7s1.3,0.3,1.7,0.7c0.6,0.6,0.7,1.4,0.7,2.4C95.9,206.5,95.8,207.3,95.2,207.9z M94.6,203.7
		c-0.3-0.3-0.7-0.4-1.1-0.4s-0.8,0.2-1.1,0.4c-0.4,0.4-0.5,1.2-0.5,1.8s0,1.4,0.5,1.8c0.3,0.3,0.6,0.4,1.1,0.4s0.8-0.2,1.1-0.4
		c0.4-0.4,0.5-1.2,0.5-1.8S95,204.2,94.6,203.7z"/>
	<path class="st12" d="M103.3,208.5h-0.8l-1.5-4.6l-1.5,4.6h-0.8l-1.9-5.9h0.9l1.4,4.7l1.5-4.7h0.7l1.6,4.7l1.3-4.7h0.9L103.3,208.5
		z"/>
	<path class="st12" d="M106.9,205.8c0,1.3,0.6,2,1.7,2c0.7,0,1.1-0.2,1.5-0.7l0.6,0.5c-0.6,0.6-1.2,0.9-2.2,0.9
		c-1.6,0-2.6-0.9-2.6-3c0-1.9,0.9-3,2.4-3c1.5,0,2.4,1.1,2.4,2.9v0.4H106.9z M109.8,204.1c-0.2-0.5-0.8-0.9-1.4-0.9
		c-0.6,0-1.2,0.3-1.4,0.9c-0.1,0.3-0.2,0.5-0.2,1h3.1C110,204.6,109.9,204.5,109.8,204.1z"/>
	<path class="st12" d="M116,203.7c-0.3-0.3-0.6-0.4-1-0.4c-0.9,0-1.4,0.7-1.4,1.6v3.6h-0.9v-5.9h0.9v0.7c0.3-0.5,1-0.8,1.7-0.8
		c0.6,0,1,0.1,1.4,0.6L116,203.7z"/>
	<path class="st12" d="M122.2,208.5c-1,0-1.5-0.7-1.5-1.6v-7h0.9v6.9c0,0.6,0.2,0.9,0.8,0.9h0.5v0.7H122.2z"/>
	<path class="st12" d="M127.9,207.9c-0.4,0.4-1,0.7-1.7,0.7c-0.7,0-1.3-0.3-1.7-0.7c-0.6-0.6-0.7-1.4-0.7-2.4c0-0.9,0.1-1.7,0.7-2.4
		c0.4-0.4,1-0.7,1.7-0.7c0.7,0,1.3,0.3,1.7,0.7c0.6,0.6,0.7,1.4,0.7,2.4C128.6,206.5,128.5,207.3,127.9,207.9z M127.2,203.7
		c-0.3-0.3-0.7-0.4-1.1-0.4c-0.4,0-0.8,0.2-1.1,0.4c-0.4,0.4-0.5,1.2-0.5,1.8s0,1.4,0.5,1.8c0.3,0.3,0.6,0.4,1.1,0.4
		c0.4,0,0.8-0.2,1.1-0.4c0.4-0.4,0.5-1.2,0.5-1.8S127.7,204.2,127.2,203.7z"/>
	<path class="st12" d="M132.7,208.6c-1.5,0-2.6-1-2.6-3c0-2,1.1-3,2.6-3c0.8,0,1.3,0.2,1.9,0.9l-0.6,0.6c-0.4-0.5-0.8-0.7-1.4-0.7
		c-0.6,0-1.1,0.2-1.4,0.7c-0.3,0.4-0.4,0.8-0.4,1.6c0,0.7,0.1,1.2,0.4,1.6c0.3,0.4,0.8,0.7,1.4,0.7c0.6,0,0.9-0.2,1.4-0.7l0.6,0.6
		C134,208.4,133.5,208.6,132.7,208.6z"/>
	<path class="st12" d="M139.5,208.5v-0.6c-0.5,0.5-0.9,0.6-1.7,0.6c-0.8,0-1.3-0.2-1.7-0.5c-0.3-0.3-0.4-0.7-0.4-1.2
		c0-1,0.7-1.7,2-1.7h1.8v-0.6c0-0.9-0.4-1.3-1.5-1.3c-0.8,0-1.1,0.2-1.5,0.7l-0.6-0.5c0.5-0.7,1.1-0.9,2.1-0.9c1.6,0,2.4,0.7,2.4,2
		v4H139.5z M139.5,205.8h-1.7c-0.9,0-1.3,0.4-1.3,1s0.4,1,1.4,1c0.5,0,0.9,0,1.3-0.4c0.2-0.2,0.3-0.5,0.3-1V205.8z"/>
	<path class="st12" d="M144.1,208.5c-1,0-1.5-0.7-1.5-1.6v-3.6h-0.7v-0.7h0.7v-1.8h0.9v1.8h1.3v0.7h-1.3v3.6c0,0.5,0.3,0.9,0.8,0.9
		h0.5v0.7H144.1z"/>
	<path class="st12" d="M146.4,200.9v-1h1v1H146.4z M146.5,208.5v-5.9h0.9v5.9H146.5z"/>
	<path class="st12" d="M153.3,207.9c-0.4,0.4-1,0.7-1.7,0.7c-0.7,0-1.3-0.3-1.7-0.7c-0.6-0.6-0.7-1.4-0.7-2.4c0-0.9,0.1-1.7,0.7-2.4
		c0.4-0.4,1-0.7,1.7-0.7c0.7,0,1.3,0.3,1.7,0.7c0.6,0.6,0.7,1.4,0.7,2.4C154,206.5,153.9,207.3,153.3,207.9z M152.7,203.7
		c-0.3-0.3-0.7-0.4-1.1-0.4c-0.4,0-0.8,0.2-1.1,0.4c-0.4,0.4-0.5,1.2-0.5,1.8s0,1.4,0.5,1.8c0.3,0.3,0.6,0.4,1.1,0.4
		c0.4,0,0.8-0.2,1.1-0.4c0.4-0.4,0.5-1.2,0.5-1.8S153.1,204.2,152.7,203.7z"/>
	<path class="st12" d="M159.6,208.5v-3.6c0-1-0.6-1.6-1.5-1.6s-1.5,0.5-1.5,1.6v3.6h-0.9v-5.9h0.9v0.6c0.4-0.5,1-0.7,1.7-0.7
		c0.6,0,1.2,0.2,1.5,0.6c0.4,0.4,0.6,1,0.6,1.6v3.8H159.6z"/>
	<path class="st12" d="M164.5,208.6c-1,0-1.8-0.2-2.4-0.9l0.6-0.6c0.5,0.5,1.1,0.7,1.8,0.7c1,0,1.6-0.3,1.6-1c0-0.5-0.3-0.8-1-0.9
		l-1-0.1c-1.2-0.1-1.8-0.6-1.8-1.6c0-1.1,0.9-1.7,2.2-1.7c0.8,0,1.6,0.2,2.1,0.6l-0.6,0.6c-0.4-0.3-1-0.5-1.6-0.5
		c-0.9,0-1.3,0.4-1.3,1c0,0.5,0.3,0.8,1,0.9l0.9,0.1c1,0.1,1.7,0.5,1.7,1.6C166.9,207.9,165.9,208.6,164.5,208.6z"/>
	<path class="st12" d="M173.2,208.5c-1,0-1.5-0.7-1.5-1.6v-3.6h-0.7v-0.7h0.7v-1.8h0.9v1.8h1.3v0.7h-1.3v3.6c0,0.5,0.3,0.9,0.8,0.9
		h0.5v0.7H173.2z"/>
	<path class="st12" d="M179.2,207.9c-0.4,0.4-1,0.7-1.7,0.7c-0.7,0-1.3-0.3-1.7-0.7c-0.6-0.6-0.7-1.4-0.7-2.4c0-0.9,0.1-1.7,0.7-2.4
		c0.4-0.4,1-0.7,1.7-0.7c0.7,0,1.3,0.3,1.7,0.7c0.6,0.6,0.7,1.4,0.7,2.4C179.9,206.5,179.8,207.3,179.2,207.9z M178.6,203.7
		c-0.3-0.3-0.7-0.4-1.1-0.4c-0.4,0-0.8,0.2-1.1,0.4c-0.4,0.4-0.5,1.2-0.5,1.8s0,1.4,0.5,1.8c0.3,0.3,0.6,0.4,1.1,0.4
		c0.4,0,0.8-0.2,1.1-0.4c0.4-0.4,0.5-1.2,0.5-1.8S179,204.2,178.6,203.7z"/>
	<path class="st12" d="M29.4,224.5v-0.7c-0.5,0.6-1,0.8-1.7,0.8c-0.6,0-1.1-0.2-1.4-0.5c-0.6-0.6-0.7-1.6-0.7-2.5s0.1-1.9,0.7-2.5
		c0.3-0.3,0.8-0.5,1.4-0.5c0.6,0,1.2,0.1,1.7,0.8V216h0.9v8.5H29.4z M27.9,219.3c-1.3,0-1.5,1.1-1.5,2.3s0.2,2.3,1.5,2.3
		s1.5-1.1,1.5-2.3S29.2,219.3,27.9,219.3z"/>
	<path class="st12" d="M32.9,221.8c0,1.3,0.6,2,1.7,2c0.7,0,1.1-0.2,1.5-0.7l0.6,0.5c-0.6,0.6-1.2,0.9-2.2,0.9c-1.6,0-2.6-0.9-2.6-3
		c0-1.9,0.9-3,2.4-3c1.5,0,2.4,1.1,2.4,2.9v0.4H32.9z M35.9,220.1c-0.2-0.5-0.8-0.9-1.4-0.9s-1.2,0.3-1.4,0.9
		c-0.1,0.3-0.2,0.5-0.2,1H36C36,220.6,36,220.5,35.9,220.1z"/>
	<path class="st12" d="M40.4,224.5c-1,0-1.5-0.7-1.5-1.6v-3.6h-0.7v-0.7h0.7v-1.8h0.9v1.8H41v0.7h-1.3v3.6c0,0.5,0.3,0.9,0.8,0.9H41
		v0.7H40.4z"/>
	<path class="st12" d="M43.2,221.8c0,1.3,0.6,2,1.7,2c0.7,0,1.1-0.2,1.5-0.7l0.6,0.5c-0.6,0.6-1.2,0.9-2.2,0.9c-1.6,0-2.6-0.9-2.6-3
		c0-1.9,0.9-3,2.4-3c1.5,0,2.4,1.1,2.4,2.9v0.4H43.2z M46.1,220.1c-0.2-0.5-0.8-0.9-1.4-0.9s-1.2,0.3-1.4,0.9
		c-0.1,0.3-0.2,0.5-0.2,1h3.1C46.3,220.6,46.2,220.5,46.1,220.1z"/>
	<path class="st12" d="M52.3,219.7c-0.3-0.3-0.6-0.4-1-0.4c-0.9,0-1.4,0.7-1.4,1.6v3.6H49v-5.9h0.9v0.7c0.3-0.5,1-0.8,1.7-0.8
		c0.6,0,1,0.1,1.4,0.6L52.3,219.7z"/>
	<path class="st12" d="M61.6,224.5v-3.6c0-1-0.6-1.6-1.5-1.6c-0.9,0-1.5,0.5-1.5,1.5v3.7h-0.9v-3.6c0-1-0.6-1.6-1.5-1.6
		c-0.9,0-1.5,0.5-1.5,1.6v3.6H54v-5.9h0.9v0.6c0.4-0.5,1-0.7,1.7-0.7c0.8,0,1.5,0.3,1.8,1c0.5-0.6,1.1-1,1.9-1
		c0.6,0,1.2,0.2,1.5,0.6c0.4,0.4,0.6,1,0.6,1.6v3.8H61.6z"/>
	<path class="st12" d="M64.5,216.9v-1h1v1H64.5z M64.6,224.5v-5.9h0.9v5.9H64.6z"/>
	<path class="st12" d="M71.4,224.5v-3.6c0-1-0.6-1.6-1.5-1.6c-0.9,0-1.5,0.5-1.5,1.6v3.6h-0.9v-5.9h0.9v0.6c0.4-0.5,1-0.7,1.7-0.7
		c0.6,0,1.2,0.2,1.5,0.6c0.4,0.4,0.6,1,0.6,1.6v3.8H71.4z"/>
	<path class="st12" d="M74.9,221.8c0,1.3,0.6,2,1.7,2c0.7,0,1.1-0.2,1.5-0.7l0.6,0.5c-0.6,0.6-1.2,0.9-2.2,0.9c-1.6,0-2.6-0.9-2.6-3
		c0-1.9,0.9-3,2.4-3c1.5,0,2.4,1.1,2.4,2.9v0.4H74.9z M77.8,220.1c-0.2-0.5-0.8-0.9-1.4-0.9s-1.2,0.3-1.4,0.9
		c-0.1,0.3-0.2,0.5-0.2,1H78C78,220.6,78,220.5,77.8,220.1z"/>
	<path class="st12" d="M85.2,225.9c-0.1,0.3-0.3,0.5-0.4,0.7c-0.3,0.3-0.7,0.4-1.2,0.4h-0.4v-0.8h0.3c0.6,0,0.8-0.2,1-0.7l0.4-1.2
		l-2.1-5.8h0.9l1.6,4.7l1.6-4.7h0.9L85.2,225.9z"/>
	<path class="st12" d="M92.8,223.9c-0.4,0.4-1,0.7-1.7,0.7s-1.3-0.3-1.7-0.7c-0.6-0.6-0.7-1.4-0.7-2.4c0-0.9,0.1-1.7,0.7-2.4
		c0.4-0.4,1-0.7,1.7-0.7s1.3,0.3,1.7,0.7c0.6,0.6,0.7,1.4,0.7,2.4C93.5,222.5,93.4,223.3,92.8,223.9z M92.1,219.7
		c-0.3-0.3-0.7-0.4-1.1-0.4s-0.8,0.2-1.1,0.4c-0.4,0.4-0.5,1.2-0.5,1.8s0,1.4,0.5,1.8c0.3,0.3,0.6,0.4,1.1,0.4s0.8-0.2,1.1-0.4
		c0.4-0.4,0.5-1.2,0.5-1.8S92.6,220.2,92.1,219.7z"/>
	<path class="st12" d="M99.1,224.5v-0.7c-0.4,0.5-1,0.7-1.7,0.7c-0.6,0-1.2-0.2-1.5-0.6c-0.4-0.4-0.6-1-0.6-1.7v-3.8h0.9v3.6
		c0,1,0.6,1.6,1.4,1.6c0.9,0,1.5-0.5,1.5-1.6v-3.6h0.9v5.9H99.1z"/>
	<path class="st12" d="M105.4,219.7c-0.3-0.3-0.6-0.4-1-0.4c-0.9,0-1.4,0.7-1.4,1.6v3.6h-0.9v-5.9h0.9v0.7c0.3-0.5,1-0.8,1.7-0.8
		c0.6,0,1,0.1,1.4,0.6L105.4,219.7z"/>
	<path class="st12" d="M113.5,224.5v-0.6c-0.5,0.5-0.9,0.6-1.7,0.6c-0.8,0-1.3-0.2-1.7-0.5c-0.3-0.3-0.4-0.7-0.4-1.2
		c0-1,0.7-1.7,2-1.7h1.8v-0.6c0-0.9-0.4-1.3-1.5-1.3c-0.8,0-1.1,0.2-1.5,0.7l-0.6-0.5c0.5-0.7,1.1-0.9,2.1-0.9c1.6,0,2.4,0.7,2.4,2
		v4H113.5z M113.5,221.8h-1.7c-0.9,0-1.3,0.4-1.3,1s0.4,1,1.4,1c0.5,0,0.9,0,1.3-0.4c0.2-0.2,0.3-0.5,0.3-1V221.8z"/>
	<path class="st12" d="M120.4,224.1c-0.3,0.3-0.8,0.5-1.4,0.5c-0.6,0-1.2-0.2-1.7-0.8v3.3h-0.9v-8.5h0.9v0.7c0.5-0.6,1-0.8,1.7-0.8
		c0.6,0,1.1,0.2,1.4,0.5c0.6,0.6,0.7,1.6,0.7,2.5S121,223.5,120.4,224.1z M118.8,219.3c-1.3,0-1.5,1.1-1.5,2.3s0.2,2.3,1.5,2.3
		c1.3,0,1.5-1.1,1.5-2.3S120.1,219.3,118.8,219.3z"/>
	<path class="st12" d="M126.9,224.1c-0.3,0.3-0.8,0.5-1.4,0.5c-0.6,0-1.2-0.2-1.7-0.8v3.3H123v-8.5h0.9v0.7c0.5-0.6,1-0.8,1.7-0.8
		c0.6,0,1.1,0.2,1.4,0.5c0.6,0.6,0.7,1.6,0.7,2.5S127.5,223.5,126.9,224.1z M125.3,219.3c-1.3,0-1.5,1.1-1.5,2.3s0.2,2.3,1.5,2.3
		c1.3,0,1.5-1.1,1.5-2.3S126.6,219.3,125.3,219.3z"/>
	<path class="st12" d="M132.8,219.7c-0.3-0.3-0.6-0.4-1-0.4c-0.9,0-1.4,0.7-1.4,1.6v3.6h-0.9v-5.9h0.9v0.7c0.3-0.5,1-0.8,1.7-0.8
		c0.6,0,1,0.1,1.4,0.6L132.8,219.7z"/>
	<path class="st12" d="M137.9,223.9c-0.4,0.4-1,0.7-1.7,0.7c-0.7,0-1.3-0.3-1.7-0.7c-0.6-0.6-0.7-1.4-0.7-2.4c0-0.9,0.1-1.7,0.7-2.4
		c0.4-0.4,1-0.7,1.7-0.7c0.7,0,1.3,0.3,1.7,0.7c0.6,0.6,0.7,1.4,0.7,2.4C138.7,222.5,138.5,223.3,137.9,223.9z M137.3,219.7
		c-0.3-0.3-0.7-0.4-1.1-0.4c-0.4,0-0.8,0.2-1.1,0.4c-0.4,0.4-0.5,1.2-0.5,1.8s0,1.4,0.5,1.8c0.3,0.3,0.6,0.4,1.1,0.4
		c0.4,0,0.8-0.2,1.1-0.4c0.4-0.4,0.5-1.2,0.5-1.8S137.8,220.2,137.3,219.7z"/>
	<path class="st12" d="M143.5,224.5l-1.4-2.3l-1.4,2.3h-1l2-3l-1.9-2.9h1l1.4,2.2l1.3-2.2h1l-1.9,2.9l2,3H143.5z"/>
	<path class="st12" d="M146,216.9v-1h1v1H146z M146,224.5v-5.9h0.9v5.9H146z"/>
	<path class="st12" d="M156.6,224.5v-3.6c0-1-0.6-1.6-1.5-1.6c-0.9,0-1.5,0.5-1.5,1.5v3.7h-0.9v-3.6c0-1-0.6-1.6-1.5-1.6
		s-1.5,0.5-1.5,1.6v3.6H149v-5.9h0.9v0.6c0.4-0.5,1-0.7,1.7-0.7c0.8,0,1.5,0.3,1.8,1c0.5-0.6,1.1-1,1.9-1c0.6,0,1.2,0.2,1.5,0.6
		c0.4,0.4,0.6,1,0.6,1.6v3.8H156.6z"/>
	<path class="st12" d="M162.9,224.5v-0.6c-0.5,0.5-0.9,0.6-1.7,0.6c-0.8,0-1.3-0.2-1.7-0.5c-0.3-0.3-0.4-0.7-0.4-1.2
		c0-1,0.7-1.7,2-1.7h1.8v-0.6c0-0.9-0.4-1.3-1.5-1.3c-0.8,0-1.1,0.2-1.5,0.7l-0.6-0.5c0.5-0.7,1.1-0.9,2.1-0.9c1.6,0,2.4,0.7,2.4,2
		v4H162.9z M162.9,221.8h-1.7c-0.9,0-1.3,0.4-1.3,1s0.4,1,1.4,1c0.5,0,0.9,0,1.3-0.4c0.2-0.2,0.3-0.5,0.3-1V221.8z"/>
	<path class="st12" d="M167.5,224.5c-1,0-1.5-0.7-1.5-1.6v-3.6h-0.7v-0.7h0.7v-1.8h0.9v1.8h1.3v0.7h-1.3v3.6c0,0.5,0.3,0.9,0.8,0.9
		h0.5v0.7H167.5z"/>
	<path class="st12" d="M170.3,221.8c0,1.3,0.6,2,1.7,2c0.7,0,1.1-0.2,1.5-0.7l0.6,0.5c-0.6,0.6-1.2,0.9-2.2,0.9
		c-1.6,0-2.6-0.9-2.6-3c0-1.9,0.9-3,2.4-3c1.5,0,2.4,1.1,2.4,2.9v0.4H170.3z M173.3,220.1c-0.2-0.5-0.8-0.9-1.4-0.9
		c-0.6,0-1.2,0.3-1.4,0.9c-0.1,0.3-0.2,0.5-0.2,1h3.1C173.4,220.6,173.4,220.5,173.3,220.1z"/>
	<path class="st12" d="M27.3,240.5c-1,0-1.5-0.7-1.5-1.6v-7h0.9v6.9c0,0.6,0.2,0.9,0.8,0.9h0.5v0.7H27.3z"/>
	<path class="st12" d="M33,239.9c-0.4,0.4-1,0.7-1.7,0.7s-1.3-0.3-1.7-0.7c-0.6-0.6-0.7-1.4-0.7-2.4c0-0.9,0.1-1.7,0.7-2.4
		c0.4-0.4,1-0.7,1.7-0.7s1.3,0.3,1.7,0.7c0.6,0.6,0.7,1.4,0.7,2.4C33.7,238.5,33.6,239.3,33,239.9z M32.3,235.7
		c-0.3-0.3-0.7-0.4-1.1-0.4s-0.8,0.2-1.1,0.4c-0.4,0.4-0.5,1.2-0.5,1.8s0,1.4,0.5,1.8c0.3,0.3,0.6,0.4,1.1,0.4s0.8-0.2,1.1-0.4
		c0.4-0.4,0.5-1.2,0.5-1.8S32.8,236.2,32.3,235.7z"/>
	<path class="st12" d="M37.8,240.6c-1.5,0-2.6-1-2.6-3c0-2,1.1-3,2.6-3c0.8,0,1.3,0.2,1.9,0.9l-0.6,0.6c-0.4-0.5-0.8-0.7-1.4-0.7
		c-0.6,0-1.1,0.2-1.4,0.7c-0.3,0.4-0.4,0.8-0.4,1.6c0,0.7,0.1,1.2,0.4,1.6c0.3,0.4,0.8,0.7,1.4,0.7c0.6,0,0.9-0.2,1.4-0.7l0.6,0.6
		C39.1,240.4,38.6,240.6,37.8,240.6z"/>
	<path class="st12" d="M44.6,240.5v-0.6c-0.5,0.5-0.9,0.6-1.7,0.6c-0.8,0-1.3-0.2-1.7-0.5c-0.3-0.3-0.4-0.7-0.4-1.2
		c0-1,0.7-1.7,2-1.7h1.8v-0.6c0-0.9-0.4-1.3-1.5-1.3c-0.8,0-1.1,0.2-1.5,0.7l-0.6-0.5c0.5-0.7,1.1-0.9,2.1-0.9c1.6,0,2.4,0.7,2.4,2
		v4H44.6z M44.6,237.8H43c-0.9,0-1.3,0.4-1.3,1s0.4,1,1.4,1c0.5,0,0.9,0,1.3-0.4c0.2-0.2,0.3-0.5,0.3-1V237.8z"/>
	<path class="st12" d="M49.2,240.5c-1,0-1.5-0.7-1.5-1.6v-3.6H47v-0.7h0.7v-1.8h0.9v1.8h1.3v0.7h-1.3v3.6c0,0.5,0.3,0.9,0.8,0.9h0.5
		v0.7H49.2z"/>
	<path class="st12" d="M51.5,232.9v-1h1v1H51.5z M51.6,240.5v-5.9h0.9v5.9H51.6z"/>
	<path class="st12" d="M58.4,239.9c-0.4,0.4-1,0.7-1.7,0.7s-1.3-0.3-1.7-0.7c-0.6-0.6-0.7-1.4-0.7-2.4c0-0.9,0.1-1.7,0.7-2.4
		c0.4-0.4,1-0.7,1.7-0.7s1.3,0.3,1.7,0.7c0.6,0.6,0.7,1.4,0.7,2.4C59.1,238.5,59,239.3,58.4,239.9z M57.8,235.7
		c-0.3-0.3-0.7-0.4-1.1-0.4s-0.8,0.2-1.1,0.4c-0.4,0.4-0.5,1.2-0.5,1.8s0,1.4,0.5,1.8c0.3,0.3,0.6,0.4,1.1,0.4s0.8-0.2,1.1-0.4
		c0.4-0.4,0.5-1.2,0.5-1.8S58.2,236.2,57.8,235.7z"/>
	<path class="st12" d="M64.7,240.5v-3.6c0-1-0.6-1.6-1.5-1.6c-0.9,0-1.5,0.5-1.5,1.6v3.6H61v-5.9h0.9v0.6c0.4-0.5,1-0.7,1.7-0.7
		c0.6,0,1.2,0.2,1.5,0.6c0.4,0.4,0.6,1,0.6,1.6v3.8H64.7z"/>
	<path class="st12" d="M67.7,240.5v-1.1h1.1v1.1H67.7z"/>
</g>
<polyline class="st13" points="166,270.7 171.3,276.4 166.3,282.7 "/>
<rect x="321.4" y="197.8" class="st2" width="485.5" height="140.6"/>
<rect x="414.3" y="75.7" class="st9" width="305" height="262.6"/>
<rect x="648.4" y="216.3" class="st11" width="13" height="13"/>
<polyline class="st16" points="652,222.3 656.1,225.2 665,215 "/>
<g>
	<polygon class="st14" points="684.8,253.1 690,259.8 694.5,256.2 689.4,249.5 695.1,247 669.9,230 680.9,258.1 	"/>
	<polygon class="st17" points="684.8,253.1 690,259.8 694.5,256.2 689.4,249.5 695.1,247 669.9,230 680.9,258.1 	"/>
</g>
<g>
	<rect x="434.7" y="216.3" class="st15" width="262.6" height="35.2"/>
	<path class="st12" d="M438.7,226.4c-1.5,0-2.5-0.4-3.4-1.3l0.7-0.7c0.8,0.8,1.6,1.1,2.7,1.1c1.5,0,2.4-0.7,2.4-1.8
		c0-0.5-0.2-1-0.5-1.2c-0.3-0.3-0.6-0.4-1.3-0.5l-1.2-0.2c-0.8-0.1-1.4-0.4-1.8-0.8c-0.5-0.4-0.8-1.1-0.8-1.9c0-1.7,1.2-2.8,3.2-2.8
		c1.3,0,2.1,0.3,3,1.1l-0.7,0.7c-0.6-0.6-1.3-0.9-2.3-0.9c-1.3,0-2.1,0.7-2.1,1.8c0,0.5,0.1,0.9,0.4,1.1c0.3,0.3,0.8,0.5,1.3,0.5
		l1.1,0.2c0.9,0.1,1.4,0.3,1.8,0.7c0.5,0.5,0.8,1.1,0.8,2C442.2,225.3,440.8,226.4,438.7,226.4z"/>
	<path class="st12" d="M444.9,223.1c0,1.5,0.7,2.4,2,2.4c0.8,0,1.3-0.2,1.8-0.8l0.7,0.6c-0.7,0.7-1.3,1.1-2.5,1.1
		c-1.8,0-3-1.1-3-3.5c0-2.2,1.1-3.5,2.8-3.5c1.8,0,2.8,1.3,2.8,3.3v0.5H444.9z M448.3,221.2c-0.3-0.6-0.9-1-1.6-1s-1.3,0.4-1.6,1
		c-0.2,0.4-0.2,0.6-0.2,1.1h3.6C448.5,221.8,448.5,221.6,448.3,221.2z"/>
	<path class="st12" d="M456.1,226.3V222c0-1.2-0.7-1.8-1.7-1.8c-1,0-1.7,0.6-1.7,1.8v4.2h-1v-6.9h1v0.8c0.5-0.6,1.2-0.8,1.9-0.8
		c0.7,0,1.3,0.2,1.8,0.6c0.5,0.5,0.7,1.1,0.7,1.9v4.4H456.1z"/>
	<path class="st12" d="M463.6,226.3v-0.8c-0.6,0.7-1.2,0.9-2,0.9c-0.7,0-1.3-0.2-1.7-0.6c-0.7-0.7-0.8-1.8-0.8-2.9
		c0-1.1,0.1-2.2,0.8-2.9c0.4-0.4,1-0.6,1.7-0.6c0.8,0,1.4,0.2,1.9,0.9v-3.9h1v10H463.6z M461.9,220.2c-1.5,0-1.7,1.3-1.7,2.6
		c0,1.3,0.2,2.6,1.7,2.6s1.7-1.3,1.7-2.6C463.6,221.5,463.4,220.2,461.9,220.2z"/>
	<path class="st12" d="M474.5,226.3v-0.7c-0.6,0.6-1.1,0.7-2,0.7c-1,0-1.5-0.2-1.9-0.6c-0.3-0.3-0.5-0.9-0.5-1.4c0-1.2,0.8-2,2.4-2
		h2.1v-0.7c0-1-0.5-1.5-1.8-1.5c-0.9,0-1.3,0.2-1.7,0.8l-0.7-0.6c0.6-0.8,1.3-1,2.4-1c1.8,0,2.8,0.8,2.8,2.3v4.7H474.5z
		 M474.5,223.1h-1.9c-1,0-1.5,0.4-1.5,1.2s0.5,1.2,1.6,1.2c0.6,0,1.1,0,1.5-0.5c0.2-0.2,0.3-0.6,0.3-1.2V223.1z"/>
	<path class="st12" d="M481.5,217.5v-1.2l1.2-1.1v2.3H481.5z M483.8,217.5v-1.2l1.2-1.1v2.3H483.8z"/>
	<path class="st12" d="M493.7,225.4c-0.6,0.6-1.5,0.9-2.5,0.9h-3.4v-10h3.4c1,0,1.9,0.3,2.5,0.9c1,1,1,2.6,1,4
		S494.7,224.3,493.7,225.4z M492.9,218c-0.5-0.5-1.2-0.7-2-0.7h-2.2v8.1h2.2c0.8,0,1.4-0.2,2-0.7c0.7-0.7,0.7-2.2,0.7-3.4
		S493.6,218.7,492.9,218z"/>
	<path class="st12" d="M501.4,225.6c-0.5,0.5-1.1,0.8-2,0.8c-0.8,0-1.5-0.3-2-0.8c-0.7-0.7-0.8-1.7-0.8-2.7s0.1-2,0.8-2.7
		c0.5-0.5,1.1-0.8,2-0.8c0.8,0,1.5,0.3,2,0.8c0.7,0.7,0.8,1.7,0.8,2.7S502.1,224.9,501.4,225.6z M500.7,220.7
		c-0.3-0.3-0.8-0.5-1.3-0.5s-0.9,0.2-1.2,0.5c-0.5,0.5-0.6,1.4-0.6,2.1c0,0.8,0.1,1.6,0.6,2.1c0.3,0.3,0.8,0.5,1.2,0.5
		s0.9-0.2,1.3-0.5c0.5-0.5,0.5-1.4,0.5-2.1C501.2,222.1,501.2,221.2,500.7,220.7z"/>
	<path class="st12" d="M512.3,226.3V222c0-1.2-0.7-1.8-1.7-1.8s-1.7,0.6-1.7,1.8v4.2h-1v-6.9h1v0.8c0.5-0.6,1.2-0.8,1.9-0.8
		c0.7,0,1.3,0.2,1.8,0.6c0.5,0.5,0.7,1.1,0.7,1.9v4.4H512.3z"/>
	<path class="st12" d="M520.2,225.6c-0.5,0.5-1.1,0.8-2,0.8s-1.5-0.3-2-0.8c-0.7-0.7-0.8-1.7-0.8-2.7s0.1-2,0.8-2.7
		c0.5-0.5,1.1-0.8,2-0.8s1.5,0.3,2,0.8c0.7,0.7,0.8,1.7,0.8,2.7S520.9,224.9,520.2,225.6z M519.5,220.7c-0.3-0.3-0.8-0.5-1.3-0.5
		s-0.9,0.2-1.2,0.5c-0.5,0.5-0.6,1.4-0.6,2.1c0,0.8,0.1,1.6,0.6,2.1c0.3,0.3,0.8,0.5,1.2,0.5s0.9-0.2,1.3-0.5
		c0.5-0.5,0.5-1.4,0.5-2.1C520,222.1,520,221.2,519.5,220.7z"/>
	<path class="st12" d="M525.1,226.3c-1.2,0-1.8-0.8-1.8-1.8v-4.2h-0.9v-0.8h0.9v-2.2h1v2.2h1.5v0.8h-1.5v4.2c0,0.6,0.3,1,0.9,1h0.5
		v0.9H525.1z"/>
	<path class="st12" d="M533.2,226.3c-1.2,0-1.8-0.8-1.8-1.8v-4.2h-0.9v-0.8h0.9v-2.2h1v2.2h1.5v0.8h-1.5v4.2c0,0.6,0.3,1,0.9,1h0.5
		v0.9H533.2z"/>
	<path class="st12" d="M539.8,220.7c-0.4-0.4-0.7-0.5-1.2-0.5c-1,0-1.7,0.8-1.7,1.8v4.2h-1v-6.9h1v0.8c0.4-0.6,1.1-0.9,1.9-0.9
		c0.7,0,1.2,0.2,1.7,0.6L539.8,220.7z"/>
	<path class="st12" d="M545.6,226.3v-0.7c-0.6,0.6-1.1,0.7-2,0.7c-1,0-1.5-0.2-1.9-0.6c-0.3-0.3-0.5-0.9-0.5-1.4c0-1.2,0.8-2,2.4-2
		h2.1v-0.7c0-1-0.5-1.5-1.8-1.5c-0.9,0-1.3,0.2-1.7,0.8l-0.7-0.6c0.6-0.8,1.3-1,2.4-1c1.8,0,2.8,0.8,2.8,2.3v4.7H545.6z
		 M545.6,223.1h-1.9c-1,0-1.5,0.4-1.5,1.2s0.5,1.2,1.6,1.2c0.6,0,1.1,0,1.5-0.5c0.2-0.2,0.4-0.6,0.4-1.2V223.1z"/>
	<path class="st12" d="M551.8,226.4c-1.7,0-3.1-1.2-3.1-3.5s1.3-3.5,3.1-3.5c1,0,1.6,0.3,2.3,1l-0.7,0.6c-0.5-0.6-0.9-0.8-1.6-0.8
		c-0.7,0-1.2,0.3-1.6,0.8c-0.3,0.4-0.4,1-0.4,1.8c0,0.9,0.1,1.4,0.4,1.8c0.4,0.5,0.9,0.8,1.6,0.8c0.7,0,1.1-0.2,1.6-0.8l0.7,0.7
		C553.3,226.1,552.7,226.4,551.8,226.4z"/>
	<path class="st12" d="M560.5,226.3l-2.2-3.5l-1.3,1.5v2h-1v-10h1v6.7l3.1-3.6h1.3L559,222l2.7,4.3H560.5z"/>
	<path class="st12" d="M563.4,218.6v-2.3h1.2v1.2L563.4,218.6z M565.8,218.6v-2.3h1.2v1.2L565.8,218.6z"/>
	<path class="st12" d="M576.9,220.7c-0.4-0.4-0.7-0.5-1.2-0.5c-1,0-1.7,0.8-1.7,1.8v4.2h-1v-6.9h1v0.8c0.4-0.6,1.1-0.9,1.9-0.9
		c0.7,0,1.2,0.2,1.7,0.6L576.9,220.7z"/>
	<path class="st12" d="M579.1,223.1c0,1.5,0.7,2.4,2,2.4c0.8,0,1.3-0.2,1.8-0.8l0.7,0.6c-0.7,0.7-1.3,1.1-2.5,1.1
		c-1.8,0-3-1.1-3-3.5c0-2.2,1.1-3.5,2.8-3.5c1.8,0,2.8,1.3,2.8,3.3v0.5H579.1z M582.5,221.2c-0.3-0.6-0.9-1-1.6-1s-1.3,0.4-1.6,1
		c-0.2,0.4-0.2,0.6-0.2,1.1h3.6C582.7,221.8,582.6,221.6,582.5,221.2z"/>
	<path class="st12" d="M589.9,229.4v-3.9c-0.6,0.7-1.2,0.9-1.9,0.9c-0.7,0-1.3-0.2-1.7-0.6c-0.7-0.7-0.8-1.8-0.8-2.9
		c0-1.1,0.1-2.2,0.8-2.9c0.4-0.4,1-0.6,1.7-0.6c0.8,0,1.4,0.2,2,0.9v-0.8h1v10H589.9z M588.2,220.2c-1.5,0-1.7,1.3-1.7,2.6
		c0,1.3,0.2,2.6,1.7,2.6c1.5,0,1.7-1.3,1.7-2.6C589.9,221.5,589.7,220.2,588.2,220.2z"/>
	<path class="st12" d="M597.8,226.3v-0.8c-0.5,0.6-1.2,0.9-1.9,0.9c-0.7,0-1.4-0.2-1.8-0.6c-0.5-0.5-0.7-1.1-0.7-1.9v-4.4h1v4.2
		c0,1.2,0.6,1.8,1.7,1.8c1,0,1.7-0.6,1.7-1.8v-4.2h1v6.9H597.8z"/>
	<path class="st12" d="M602,223.1c0,1.5,0.7,2.4,2,2.4c0.8,0,1.3-0.2,1.8-0.8l0.7,0.6c-0.7,0.7-1.3,1.1-2.5,1.1c-1.8,0-3-1.1-3-3.5
		c0-2.2,1.1-3.5,2.8-3.5c1.8,0,2.8,1.3,2.8,3.3v0.5H602z M605.4,221.2c-0.3-0.6-0.9-1-1.6-1s-1.3,0.4-1.6,1
		c-0.2,0.4-0.2,0.6-0.2,1.1h3.6C605.6,221.8,605.6,221.6,605.4,221.2z"/>
	<path class="st12" d="M610.9,226.4c-1.2,0-2.1-0.3-2.8-1l0.7-0.7c0.5,0.6,1.3,0.8,2.1,0.8c1.1,0,1.8-0.4,1.8-1.2
		c0-0.6-0.4-0.9-1.1-1l-1.1-0.1c-1.3-0.1-2.1-0.7-2.1-1.8c0-1.3,1.1-2,2.5-2c1,0,1.9,0.2,2.5,0.7l-0.7,0.7c-0.5-0.4-1.1-0.5-1.8-0.5
		c-1,0-1.5,0.4-1.5,1.1c0,0.6,0.3,0.9,1.2,1l1.1,0.1c1.2,0.1,2,0.6,2,1.9C613.7,225.6,612.6,226.4,610.9,226.4z"/>
	<path class="st12" d="M617.5,226.3c-1.2,0-1.8-0.8-1.8-1.8v-4.2h-0.9v-0.8h0.9v-2.2h1v2.2h1.5v0.8h-1.5v4.2c0,0.6,0.3,1,0.9,1h0.5
		v0.9H617.5z"/>
</g>
<g>
	<rect x="434.7" y="127.3" class="st15" width="262.6" height="51"/>
	<path class="st12" d="M439.9,133.2h-2.6v4.1h-1.1v-10h3.7c1.8,0,3.1,1.1,3.1,2.9S441.7,133.2,439.9,133.2z M439.8,128.3h-2.5v4h2.5
		c1.2,0,2.1-0.7,2.1-2C441.9,128.9,441,128.3,439.8,128.3z"/>
	<path class="st12" d="M448.6,137.3v-0.7c-0.6,0.6-1.1,0.7-2,0.7c-1,0-1.5-0.2-1.9-0.6c-0.3-0.3-0.5-0.9-0.5-1.4c0-1.2,0.8-2,2.4-2
		h2.1v-0.7c0-1-0.5-1.5-1.8-1.5c-0.9,0-1.3,0.2-1.7,0.8l-0.7-0.6c0.6-0.8,1.3-1,2.4-1c1.8,0,2.8,0.8,2.8,2.3v4.7H448.6z
		 M448.6,134.1h-1.9c-1,0-1.5,0.4-1.5,1.2s0.5,1.2,1.6,1.2c0.6,0,1.1,0,1.5-0.5c0.2-0.2,0.3-0.6,0.3-1.2V134.1z"/>
	<path class="st12" d="M456.7,136.8c-0.4,0.4-1,0.6-1.7,0.6c-0.8,0-1.4-0.2-1.9-0.9v3.9h-1v-10h1v0.8c0.6-0.7,1.2-0.9,1.9-0.9
		c0.7,0,1.3,0.2,1.7,0.6c0.7,0.7,0.8,1.8,0.8,2.9S457.4,136.1,456.7,136.8z M454.8,131.2c-1.5,0-1.7,1.3-1.7,2.6s0.2,2.6,1.7,2.6
		s1.7-1.3,1.7-2.6S456.3,131.2,454.8,131.2z"/>
	<path class="st12" d="M460.3,134.1c0,1.5,0.7,2.4,2,2.4c0.8,0,1.3-0.2,1.8-0.8l0.7,0.6c-0.7,0.7-1.3,1.1-2.5,1.1
		c-1.8,0-3-1.1-3-3.5c0-2.2,1.1-3.5,2.8-3.5c1.8,0,2.8,1.3,2.8,3.3v0.5H460.3z M463.7,132.2c-0.3-0.6-0.9-1-1.6-1s-1.3,0.4-1.6,1
		c-0.2,0.4-0.2,0.6-0.2,1.1h3.6C463.9,132.8,463.9,132.6,463.7,132.2z"/>
	<path class="st12" d="M470.9,131.7c-0.4-0.4-0.7-0.5-1.2-0.5c-1,0-1.7,0.8-1.7,1.8v4.2h-1v-6.9h1v0.8c0.4-0.6,1.1-0.9,1.9-0.9
		c0.7,0,1.2,0.2,1.7,0.6L470.9,131.7z"/>
	<path class="st12" d="M478.6,137.4c-1.2,0-2.1-0.3-2.8-1l0.7-0.7c0.5,0.6,1.3,0.8,2.1,0.8c1.1,0,1.8-0.4,1.8-1.2
		c0-0.6-0.4-0.9-1.1-1l-1.1-0.1c-1.3-0.1-2.1-0.7-2.1-1.8c0-1.3,1.1-2,2.5-2c1,0,1.9,0.2,2.5,0.7l-0.7,0.7c-0.5-0.4-1.1-0.5-1.8-0.5
		c-1,0-1.5,0.4-1.5,1.1c0,0.6,0.3,0.9,1.2,1l1.1,0.1c1.2,0.1,2,0.6,2,1.9C481.4,136.6,480.3,137.4,478.6,137.4z"/>
	<path class="st12" d="M487.8,137.3V133c0-1.2-0.6-1.8-1.7-1.8c-1,0-1.7,0.6-1.7,1.8v4.3h-1v-10h1v3.8c0.5-0.6,1.2-0.8,1.9-0.8
		c1.6,0,2.5,1,2.5,2.5v4.4H487.8z"/>
	<path class="st12" d="M495.7,136.6c-0.5,0.5-1.1,0.8-2,0.8c-0.8,0-1.5-0.3-2-0.8c-0.7-0.7-0.8-1.7-0.8-2.7s0.1-2,0.8-2.7
		c0.5-0.5,1.1-0.8,2-0.8c0.8,0,1.5,0.3,2,0.8c0.7,0.7,0.8,1.7,0.8,2.7S496.4,135.9,495.7,136.6z M495,131.7
		c-0.3-0.3-0.8-0.5-1.3-0.5s-0.9,0.2-1.2,0.5c-0.5,0.5-0.6,1.4-0.6,2.1s0.1,1.6,0.6,2.1c0.3,0.3,0.8,0.5,1.2,0.5s0.9-0.2,1.3-0.5
		c0.5-0.5,0.5-1.4,0.5-2.1S495.5,132.2,495,131.7z"/>
	<path class="st12" d="M503.3,136.8c-0.4,0.4-1,0.6-1.7,0.6c-0.8,0-1.4-0.2-1.9-0.9v3.9h-1v-10h1v0.8c0.6-0.7,1.2-0.9,1.9-0.9
		c0.7,0,1.3,0.2,1.7,0.6c0.7,0.7,0.8,1.8,0.8,2.9S504,136.1,503.3,136.8z M501.5,131.2c-1.5,0-1.7,1.3-1.7,2.6s0.2,2.6,1.7,2.6
		c1.5,0,1.7-1.3,1.7-2.6S503,131.2,501.5,131.2z"/>
	<path class="st12" d="M518.7,137.3V133c0-1.2-0.7-1.8-1.7-1.8c-1,0-1.7,0.6-1.7,1.7v4.4h-1V133c0-1.2-0.7-1.8-1.7-1.8
		s-1.7,0.6-1.7,1.8v4.2h-1v-6.9h1v0.8c0.5-0.6,1.2-0.8,1.9-0.8c1,0,1.7,0.4,2.1,1.1c0.5-0.8,1.3-1.1,2.3-1.1c0.7,0,1.4,0.2,1.8,0.6
		c0.5,0.5,0.7,1.1,0.7,1.9v4.4H518.7z"/>
	<path class="st12" d="M526,137.3v-0.7c-0.6,0.6-1.1,0.7-2,0.7c-1,0-1.5-0.2-1.9-0.6c-0.3-0.3-0.5-0.9-0.5-1.4c0-1.2,0.8-2,2.4-2
		h2.1v-0.7c0-1-0.5-1.5-1.8-1.5c-0.9,0-1.3,0.2-1.7,0.8l-0.7-0.6c0.6-0.8,1.3-1,2.4-1c1.8,0,2.8,0.8,2.8,2.3v4.7H526z M526,134.1
		h-1.9c-1,0-1.5,0.4-1.5,1.2s0.5,1.2,1.6,1.2c0.6,0,1.1,0,1.5-0.5c0.2-0.2,0.4-0.6,0.4-1.2V134.1z"/>
	<path class="st12" d="M531.2,139c-0.1,0.4-0.3,0.6-0.5,0.8c-0.4,0.4-0.9,0.5-1.3,0.5h-0.4v-0.9h0.3c0.7,0,0.9-0.2,1.1-0.9l0.5-1.3
		l-2.5-6.8h1.1l1.9,5.5l1.9-5.5h1.1L531.2,139z"/>
	<path class="st12" d="M543.6,137.3v-0.8c-0.5,0.6-1.2,0.9-1.9,0.9c-0.7,0-1.4-0.2-1.8-0.6c-0.5-0.5-0.7-1.1-0.7-1.9v-4.4h1v4.2
		c0,1.2,0.6,1.8,1.7,1.8c1,0,1.7-0.6,1.7-1.8v-4.2h1v6.9H543.6z"/>
	<path class="st12" d="M549.3,137.4c-1.2,0-2.1-0.3-2.8-1l0.7-0.7c0.5,0.6,1.3,0.8,2.1,0.8c1.1,0,1.8-0.4,1.8-1.2
		c0-0.6-0.4-0.9-1.1-1l-1.1-0.1c-1.3-0.1-2.1-0.7-2.1-1.8c0-1.3,1.1-2,2.5-2c1,0,1.9,0.2,2.5,0.7l-0.7,0.7c-0.5-0.4-1.1-0.5-1.8-0.5
		c-1,0-1.5,0.4-1.5,1.1c0,0.6,0.3,0.9,1.2,1l1.1,0.1c1.2,0.1,2,0.6,2,1.9C552.1,136.6,550.9,137.4,549.3,137.4z"/>
	<path class="st12" d="M554.7,134.1c0,1.5,0.7,2.4,2,2.4c0.8,0,1.3-0.2,1.8-0.8l0.7,0.6c-0.7,0.7-1.3,1.1-2.5,1.1
		c-1.8,0-3-1.1-3-3.5c0-2.2,1.1-3.5,2.8-3.5c1.8,0,2.8,1.3,2.8,3.3v0.5H554.7z M558.1,132.2c-0.3-0.6-0.9-1-1.6-1s-1.3,0.4-1.6,1
		c-0.2,0.4-0.2,0.6-0.2,1.1h3.6C558.3,132.8,558.3,132.6,558.1,132.2z"/>
	<path class="st12" d="M571.5,137.3h-0.9l-1.8-5.4l-1.8,5.4H566l-2.2-6.9h1.1l1.6,5.5l1.8-5.5h0.9l1.8,5.5l1.6-5.5h1.1L571.5,137.3z
		"/>
	<path class="st12" d="M575.7,134.1c0,1.5,0.7,2.4,2,2.4c0.8,0,1.3-0.2,1.8-0.8l0.7,0.6c-0.7,0.7-1.3,1.1-2.5,1.1
		c-1.8,0-3-1.1-3-3.5c0-2.2,1.1-3.5,2.8-3.5c1.8,0,2.8,1.3,2.8,3.3v0.5H575.7z M579.1,132.2c-0.3-0.6-0.9-1-1.6-1s-1.3,0.4-1.6,1
		c-0.2,0.4-0.2,0.6-0.2,1.1h3.6C579.3,132.8,579.2,132.6,579.1,132.2z"/>
	<path class="st12" d="M587.1,136.8c-0.4,0.4-1,0.6-1.7,0.6c-0.8,0-1.4-0.2-1.9-0.9v0.8h-1v-10h1v3.9c0.6-0.7,1.2-0.9,1.9-0.9
		c0.7,0,1.3,0.2,1.7,0.6c0.7,0.7,0.8,1.8,0.8,2.9S587.8,136.1,587.1,136.8z M585.2,131.2c-1.5,0-1.7,1.3-1.7,2.6s0.2,2.6,1.7,2.6
		c1.5,0,1.7-1.3,1.7-2.6S586.7,131.2,585.2,131.2z"/>
	<path class="st12" d="M595.7,137.4c-1.2,0-2.1-0.3-2.8-1l0.7-0.7c0.5,0.6,1.3,0.8,2.1,0.8c1.1,0,1.8-0.4,1.8-1.2
		c0-0.6-0.4-0.9-1.1-1l-1.1-0.1c-1.3-0.1-2.1-0.7-2.1-1.8c0-1.3,1.1-2,2.5-2c1,0,1.9,0.2,2.5,0.7l-0.7,0.7c-0.5-0.4-1.1-0.5-1.8-0.5
		c-1,0-1.5,0.4-1.5,1.1c0,0.6,0.3,0.9,1.2,1l1.1,0.1c1.2,0.1,2,0.6,2,1.9C598.5,136.6,597.4,137.4,595.7,137.4z"/>
	<path class="st12" d="M601.1,134.1c0,1.5,0.7,2.4,2,2.4c0.8,0,1.3-0.2,1.8-0.8l0.7,0.6c-0.7,0.7-1.3,1.1-2.5,1.1
		c-1.8,0-3-1.1-3-3.5c0-2.2,1.1-3.5,2.8-3.5c1.8,0,2.8,1.3,2.8,3.3v0.5H601.1z M604.6,132.2c-0.3-0.6-0.9-1-1.6-1s-1.3,0.4-1.6,1
		c-0.2,0.4-0.2,0.6-0.2,1.1h3.6C604.7,132.8,604.7,132.6,604.6,132.2z"/>
	<path class="st12" d="M611.8,131.7c-0.4-0.4-0.7-0.5-1.2-0.5c-1,0-1.7,0.8-1.7,1.8v4.2h-1v-6.9h1v0.8c0.4-0.6,1.1-0.9,1.9-0.9
		c0.7,0,1.2,0.2,1.7,0.6L611.8,131.7z"/>
	<path class="st12" d="M616.1,137.3h-0.9l-2.5-6.9h1.1l1.9,5.5l1.9-5.5h1.1L616.1,137.3z"/>
	<path class="st12" d="M620,128.4v-1.1h1.1v1.1H620z M620.1,137.3v-6.9h1v6.9H620.1z"/>
	<path class="st12" d="M626.3,137.4c-1.7,0-3.1-1.2-3.1-3.5c0-2.4,1.3-3.5,3.1-3.5c1,0,1.6,0.3,2.3,1l-0.7,0.6
		c-0.5-0.6-0.9-0.8-1.6-0.8c-0.7,0-1.2,0.3-1.6,0.8c-0.3,0.4-0.4,1-0.4,1.8s0.1,1.4,0.4,1.8c0.4,0.5,0.9,0.8,1.6,0.8
		c0.7,0,1.1-0.2,1.6-0.8l0.7,0.7C627.8,137.1,627.2,137.4,626.3,137.4z"/>
	<path class="st12" d="M630.9,134.1c0,1.5,0.7,2.4,2,2.4c0.8,0,1.3-0.2,1.8-0.8l0.7,0.6c-0.7,0.7-1.3,1.1-2.5,1.1
		c-1.8,0-3-1.1-3-3.5c0-2.2,1.1-3.5,2.8-3.5c1.8,0,2.8,1.3,2.8,3.3v0.5H630.9z M634.3,132.2c-0.3-0.6-0.9-1-1.6-1s-1.3,0.4-1.6,1
		c-0.2,0.4-0.2,0.6-0.2,1.1h3.6C634.5,132.8,634.5,132.6,634.3,132.2z"/>
	<path class="st12" d="M639.9,137.4c-1.2,0-2.1-0.3-2.8-1l0.7-0.7c0.5,0.6,1.3,0.8,2.1,0.8c1.1,0,1.8-0.4,1.8-1.2
		c0-0.6-0.4-0.9-1.1-1l-1.1-0.1c-1.3-0.1-2.1-0.7-2.1-1.8c0-1.3,1.1-2,2.5-2c1,0,1.9,0.2,2.5,0.7l-0.7,0.7c-0.5-0.4-1.1-0.5-1.8-0.5
		c-1,0-1.5,0.4-1.5,1.1c0,0.6,0.3,0.9,1.2,1l1.1,0.1c1.2,0.1,2,0.6,2,1.9C642.7,136.6,641.5,137.4,639.9,137.4z"/>
	<path class="st12" d="M650,137.3c-1.2,0-1.8-0.8-1.8-1.8v-4.2h-0.9v-0.8h0.9v-2.2h1v2.2h1.5v0.8h-1.5v4.2c0,0.6,0.3,1,0.9,1h0.5
		v0.9H650z"/>
	<path class="st12" d="M657.1,136.6c-0.5,0.5-1.1,0.8-2,0.8s-1.5-0.3-2-0.8c-0.7-0.7-0.8-1.7-0.8-2.7s0.1-2,0.8-2.7
		c0.5-0.5,1.1-0.8,2-0.8s1.5,0.3,2,0.8c0.7,0.7,0.8,1.7,0.8,2.7S657.8,135.9,657.1,136.6z M656.4,131.7c-0.3-0.3-0.8-0.5-1.3-0.5
		s-0.9,0.2-1.2,0.5c-0.5,0.5-0.6,1.4-0.6,2.1s0.1,1.6,0.6,2.1c0.3,0.3,0.8,0.5,1.2,0.5s0.9-0.2,1.3-0.5c0.5-0.5,0.5-1.4,0.5-2.1
		S656.9,132.2,656.4,131.7z"/>
	<path class="st12" d="M435.9,145.2v-1.1h1.1v1.1H435.9z M436,154.1v-6.9h1v6.9H436z"/>
	<path class="st12" d="M448.4,154.1v-4.2c0-1.2-0.7-1.8-1.7-1.8c-1,0-1.7,0.6-1.7,1.7v4.4h-1v-4.2c0-1.2-0.7-1.8-1.7-1.8
		c-1,0-1.7,0.6-1.7,1.8v4.2h-1v-6.9h1v0.8c0.5-0.6,1.2-0.8,1.9-0.8c1,0,1.7,0.4,2.1,1.1c0.5-0.8,1.3-1.1,2.3-1.1
		c0.7,0,1.4,0.2,1.8,0.6c0.5,0.5,0.7,1.1,0.7,1.9v4.4H448.4z"/>
	<path class="st12" d="M456.5,153.6c-0.4,0.4-1,0.6-1.7,0.6c-0.8,0-1.4-0.2-1.9-0.9v3.9h-1v-10h1v0.8c0.6-0.7,1.2-0.9,1.9-0.9
		c0.7,0,1.3,0.2,1.7,0.6c0.7,0.7,0.8,1.8,0.8,2.9S457.2,152.9,456.5,153.6z M454.6,148c-1.5,0-1.7,1.3-1.7,2.6s0.2,2.6,1.7,2.6
		s1.7-1.3,1.7-2.6S456.1,148,454.6,148z"/>
	<path class="st12" d="M463.3,148.5c-0.4-0.4-0.7-0.5-1.2-0.5c-1,0-1.7,0.8-1.7,1.8v4.2h-1v-6.9h1v0.8c0.4-0.6,1.1-0.9,1.9-0.9
		c0.7,0,1.2,0.2,1.7,0.6L463.3,148.5z"/>
	<path class="st12" d="M469.3,153.4c-0.5,0.5-1.1,0.8-2,0.8c-0.8,0-1.5-0.3-2-0.8c-0.7-0.7-0.8-1.7-0.8-2.7s0.1-2,0.8-2.7
		c0.5-0.5,1.1-0.8,2-0.8c0.8,0,1.5,0.3,2,0.8c0.7,0.7,0.8,1.7,0.8,2.7S470,152.7,469.3,153.4z M468.6,148.5
		c-0.3-0.3-0.8-0.5-1.3-0.5s-0.9,0.2-1.2,0.5c-0.5,0.5-0.6,1.4-0.6,2.1s0.1,1.6,0.6,2.1c0.3,0.3,0.8,0.5,1.2,0.5s0.9-0.2,1.3-0.5
		c0.5-0.5,0.5-1.4,0.5-2.1S469.1,149,468.6,148.5z"/>
	<path class="st12" d="M474.5,154.1h-0.9l-2.5-6.9h1.1l1.9,5.5l1.9-5.5h1.1L474.5,154.1z"/>
	<path class="st12" d="M478.9,150.9c0,1.5,0.7,2.4,2,2.4c0.8,0,1.3-0.2,1.8-0.8l0.7,0.6c-0.7,0.7-1.3,1.1-2.5,1.1
		c-1.8,0-3-1.1-3-3.5c0-2.2,1.1-3.5,2.8-3.5c1.8,0,2.8,1.3,2.8,3.3v0.5H478.9z M482.4,149c-0.3-0.6-0.9-1-1.6-1s-1.3,0.4-1.6,1
		c-0.2,0.4-0.2,0.6-0.2,1.1h3.6C482.5,149.6,482.5,149.4,482.4,149z"/>
	<path class="st12" d="M490.9,155.8c-0.1,0.4-0.3,0.6-0.5,0.8c-0.4,0.4-0.9,0.5-1.3,0.5h-0.4v-0.9h0.3c0.7,0,0.9-0.2,1.1-0.9
		l0.5-1.3l-2.5-6.8h1.1l1.9,5.5l1.9-5.5h1.1L490.9,155.8z"/>
	<path class="st12" d="M499.7,153.4c-0.5,0.5-1.1,0.8-2,0.8c-0.8,0-1.5-0.3-2-0.8c-0.7-0.7-0.8-1.7-0.8-2.7s0.1-2,0.8-2.7
		c0.5-0.5,1.1-0.8,2-0.8c0.8,0,1.5,0.3,2,0.8c0.7,0.7,0.8,1.7,0.8,2.7S500.4,152.7,499.7,153.4z M499,148.5
		c-0.3-0.3-0.8-0.5-1.3-0.5s-0.9,0.2-1.2,0.5c-0.5,0.5-0.6,1.4-0.6,2.1s0.1,1.6,0.6,2.1c0.3,0.3,0.8,0.5,1.2,0.5s0.9-0.2,1.3-0.5
		c0.5-0.5,0.5-1.4,0.5-2.1S499.5,149,499,148.5z"/>
	<path class="st12" d="M507.1,154.1v-0.8c-0.5,0.6-1.2,0.9-1.9,0.9c-0.7,0-1.4-0.2-1.8-0.6c-0.5-0.5-0.7-1.1-0.7-1.9v-4.4h1v4.2
		c0,1.2,0.6,1.8,1.7,1.8s1.7-0.6,1.7-1.8v-4.2h1v6.9H507.1z"/>
	<path class="st12" d="M514.5,148.5c-0.4-0.4-0.7-0.5-1.2-0.5c-1,0-1.7,0.8-1.7,1.8v4.2h-1v-6.9h1v0.8c0.4-0.6,1.1-0.9,1.9-0.9
		c0.7,0,1.2,0.2,1.7,0.6L514.5,148.5z"/>
	<path class="st12" d="M524.6,153.6c-0.4,0.4-1,0.6-1.7,0.6c-0.8,0-1.4-0.2-1.9-0.9v0.8h-1v-10h1v3.9c0.6-0.7,1.2-0.9,1.9-0.9
		c0.7,0,1.3,0.2,1.7,0.6c0.7,0.7,0.8,1.8,0.8,2.9S525.3,152.9,524.6,153.6z M522.7,148c-1.5,0-1.7,1.3-1.7,2.6s0.2,2.6,1.7,2.6
		c1.5,0,1.7-1.3,1.7-2.6S524.2,148,522.7,148z"/>
	<path class="st12" d="M531.5,148.5c-0.4-0.4-0.7-0.5-1.2-0.5c-1,0-1.7,0.8-1.7,1.8v4.2h-1v-6.9h1v0.8c0.4-0.6,1.1-0.9,1.9-0.9
		c0.7,0,1.2,0.2,1.7,0.6L531.5,148.5z"/>
	<path class="st12" d="M537.5,153.4c-0.5,0.5-1.1,0.8-2,0.8s-1.5-0.3-2-0.8c-0.7-0.7-0.8-1.7-0.8-2.7s0.1-2,0.8-2.7
		c0.5-0.5,1.1-0.8,2-0.8s1.5,0.3,2,0.8c0.7,0.7,0.8,1.7,0.8,2.7S538.2,152.7,537.5,153.4z M536.7,148.5c-0.3-0.3-0.8-0.5-1.3-0.5
		s-0.9,0.2-1.2,0.5c-0.5,0.5-0.6,1.4-0.6,2.1s0.1,1.6,0.6,2.1c0.3,0.3,0.8,0.5,1.2,0.5s0.9-0.2,1.3-0.5c0.5-0.5,0.5-1.4,0.5-2.1
		S537.3,149,536.7,148.5z"/>
	<path class="st12" d="M546.9,154.1H546l-1.8-5.4l-1.8,5.4h-0.9l-2.2-6.9h1.1l1.6,5.5l1.8-5.5h0.9l1.8,5.5l1.6-5.5h1.1L546.9,154.1z
		"/>
	<path class="st12" d="M552.7,154.2c-1.2,0-2.1-0.3-2.8-1l0.7-0.7c0.5,0.6,1.3,0.8,2.1,0.8c1.1,0,1.8-0.4,1.8-1.2
		c0-0.6-0.4-0.9-1.1-1l-1.1-0.1c-1.3-0.1-2.1-0.7-2.1-1.8c0-1.3,1.1-2,2.5-2c1,0,1.9,0.2,2.5,0.7l-0.7,0.7c-0.5-0.4-1.1-0.5-1.8-0.5
		c-1,0-1.5,0.4-1.5,1.1c0,0.6,0.3,0.9,1.2,1l1.1,0.1c1.2,0.1,2,0.6,2,1.9C555.5,153.4,554.4,154.2,552.7,154.2z"/>
	<path class="st12" d="M557.4,145.2v-1.1h1.1v1.1H557.4z M557.5,154.1v-6.9h1v6.9H557.5z"/>
	<path class="st12" d="M565.4,154.1v-4.2c0-1.2-0.7-1.8-1.7-1.8c-1,0-1.7,0.6-1.7,1.8v4.2h-1v-6.9h1v0.8c0.5-0.6,1.2-0.8,1.9-0.8
		c0.7,0,1.3,0.2,1.8,0.6c0.5,0.5,0.7,1.1,0.7,1.9v4.4H565.4z"/>
	<path class="st12" d="M571.1,157.3c-1,0-1.6-0.3-2.3-0.9l0.7-0.6c0.5,0.4,0.9,0.7,1.7,0.7c1.3,0,1.9-0.9,1.9-2.1v-1.1
		c-0.6,0.7-1.2,0.9-1.9,0.9c-0.7,0-1.3-0.3-1.7-0.6c-0.7-0.7-0.8-1.8-0.8-2.9s0.2-2.2,0.8-2.9c0.4-0.4,1-0.6,1.7-0.6
		c0.8,0,1.4,0.2,1.9,0.9v-0.8h1v7.1C574,156,572.9,157.3,571.1,157.3z M571.2,148c-1.5,0-1.7,1.3-1.7,2.6s0.2,2.6,1.7,2.6
		s1.7-1.3,1.7-2.6S572.7,148,571.2,148z"/>
	<path class="st12" d="M580.6,150.9c0,1.5,0.7,2.4,2,2.4c0.8,0,1.3-0.2,1.8-0.8l0.7,0.6c-0.7,0.7-1.3,1.1-2.5,1.1
		c-1.8,0-3-1.1-3-3.5c0-2.2,1.1-3.5,2.8-3.5c1.8,0,2.8,1.3,2.8,3.3v0.5H580.6z M584,149c-0.3-0.6-0.9-1-1.6-1s-1.3,0.4-1.6,1
		c-0.2,0.4-0.2,0.6-0.2,1.1h3.6C584.2,149.6,584.2,149.4,584,149z"/>
	<path class="st12" d="M590.9,154.1l-1.7-2.7l-1.7,2.7h-1.2l2.3-3.5l-2.2-3.4h1.2l1.6,2.5l1.6-2.5h1.2l-2.2,3.4l2.3,3.5H590.9z"/>
	<path class="st12" d="M598.5,153.6c-0.4,0.4-1,0.6-1.7,0.6c-0.8,0-1.4-0.2-1.9-0.9v3.9h-1v-10h1v0.8c0.6-0.7,1.2-0.9,1.9-0.9
		c0.7,0,1.3,0.2,1.7,0.6c0.7,0.7,0.8,1.8,0.8,2.9S599.2,152.9,598.5,153.6z M596.6,148c-1.5,0-1.7,1.3-1.7,2.6s0.2,2.6,1.7,2.6
		c1.5,0,1.7-1.3,1.7-2.6S598.1,148,596.6,148z"/>
	<path class="st12" d="M602.1,150.9c0,1.5,0.7,2.4,2,2.4c0.8,0,1.3-0.2,1.8-0.8l0.7,0.6c-0.7,0.7-1.3,1.1-2.5,1.1
		c-1.8,0-3-1.1-3-3.5c0-2.2,1.1-3.5,2.8-3.5c1.8,0,2.8,1.3,2.8,3.3v0.5H602.1z M605.5,149c-0.3-0.6-0.9-1-1.6-1s-1.3,0.4-1.6,1
		c-0.2,0.4-0.2,0.6-0.2,1.1h3.6C605.7,149.6,605.7,149.4,605.5,149z"/>
	<path class="st12" d="M612.8,148.5c-0.4-0.4-0.7-0.5-1.2-0.5c-1,0-1.7,0.8-1.7,1.8v4.2h-1v-6.9h1v0.8c0.4-0.6,1.1-0.9,1.9-0.9
		c0.7,0,1.2,0.2,1.7,0.6L612.8,148.5z"/>
	<path class="st12" d="M614.7,145.2v-1.1h1.1v1.1H614.7z M614.8,154.1v-6.9h1v6.9H614.8z"/>
	<path class="st12" d="M619,150.9c0,1.5,0.7,2.4,2,2.4c0.8,0,1.3-0.2,1.8-0.8l0.7,0.6c-0.7,0.7-1.3,1.1-2.5,1.1c-1.8,0-3-1.1-3-3.5
		c0-2.2,1.1-3.5,2.8-3.5c1.8,0,2.8,1.3,2.8,3.3v0.5H619z M622.4,149c-0.3-0.6-0.9-1-1.6-1s-1.3,0.4-1.6,1c-0.2,0.4-0.2,0.6-0.2,1.1
		h3.6C622.6,149.6,622.6,149.4,622.4,149z"/>
	<path class="st12" d="M630.2,154.1v-4.2c0-1.2-0.7-1.8-1.7-1.8c-1,0-1.7,0.6-1.7,1.8v4.2h-1v-6.9h1v0.8c0.5-0.6,1.2-0.8,1.9-0.8
		c0.7,0,1.3,0.2,1.8,0.6c0.5,0.5,0.7,1.1,0.7,1.9v4.4H630.2z"/>
	<path class="st12" d="M636.3,154.2c-1.7,0-3.1-1.2-3.1-3.5c0-2.4,1.3-3.5,3.1-3.5c1,0,1.6,0.3,2.3,1l-0.7,0.6
		c-0.5-0.6-0.9-0.8-1.6-0.8c-0.7,0-1.2,0.3-1.6,0.8c-0.3,0.4-0.4,1-0.4,1.8c0,0.9,0.1,1.4,0.4,1.8c0.4,0.5,0.9,0.8,1.6,0.8
		c0.7,0,1.1-0.2,1.6-0.8l0.7,0.7C637.9,153.9,637.3,154.2,636.3,154.2z"/>
	<path class="st12" d="M640.9,150.9c0,1.5,0.7,2.4,2,2.4c0.8,0,1.3-0.2,1.8-0.8l0.7,0.6c-0.7,0.7-1.3,1.1-2.5,1.1
		c-1.8,0-3-1.1-3-3.5c0-2.2,1.1-3.5,2.8-3.5c1.8,0,2.8,1.3,2.8,3.3v0.5H640.9z M644.3,149c-0.3-0.6-0.9-1-1.6-1s-1.3,0.4-1.6,1
		c-0.2,0.4-0.2,0.6-0.2,1.1h3.6C644.5,149.6,644.5,149.4,644.3,149z"/>
	<path class="st12" d="M647.7,154.1v-1.3h1.3v1.3H647.7z"/>
	<path class="st12" d="M657.8,150v4.1h-1.1V150l-3-5.9h1.1l2.4,4.8l2.3-4.8h1.1L657.8,150z"/>
	<path class="st12" d="M665.5,153.4c-0.5,0.5-1.1,0.8-2,0.8s-1.5-0.3-2-0.8c-0.7-0.7-0.8-1.7-0.8-2.7s0.1-2,0.8-2.7
		c0.5-0.5,1.1-0.8,2-0.8s1.5,0.3,2,0.8c0.7,0.7,0.8,1.7,0.8,2.7S666.2,152.7,665.5,153.4z M664.8,148.5c-0.3-0.3-0.8-0.5-1.3-0.5
		s-0.9,0.2-1.2,0.5c-0.5,0.5-0.6,1.4-0.6,2.1s0.1,1.6,0.6,2.1c0.3,0.3,0.8,0.5,1.2,0.5s0.9-0.2,1.3-0.5c0.5-0.5,0.5-1.4,0.5-2.1
		S665.3,149,664.8,148.5z"/>
	<path class="st12" d="M672.8,154.1v-0.8c-0.5,0.6-1.2,0.9-1.9,0.9c-0.7,0-1.4-0.2-1.8-0.6c-0.5-0.5-0.7-1.1-0.7-1.9v-4.4h1v4.2
		c0,1.2,0.6,1.8,1.7,1.8c1,0,1.7-0.6,1.7-1.8v-4.2h1v6.9H672.8z"/>
	<path class="st12" d="M444.9,170.9v-4.2c0-1.2-0.7-1.8-1.7-1.8c-1,0-1.7,0.6-1.7,1.7v4.4h-1v-4.2c0-1.2-0.7-1.8-1.7-1.8
		s-1.7,0.6-1.7,1.8v4.2h-1V164h1v0.8c0.5-0.6,1.2-0.8,1.9-0.8c1,0,1.7,0.4,2.1,1.1c0.5-0.8,1.3-1.1,2.3-1.1c0.7,0,1.4,0.2,1.8,0.6
		c0.5,0.5,0.7,1.1,0.7,1.9v4.4H444.9z"/>
	<path class="st12" d="M452.2,170.9v-0.7c-0.6,0.6-1.1,0.7-2,0.7c-1,0-1.5-0.2-1.9-0.6c-0.3-0.3-0.5-0.9-0.5-1.4c0-1.2,0.8-2,2.4-2
		h2.1v-0.7c0-1-0.5-1.5-1.8-1.5c-0.9,0-1.3,0.2-1.7,0.8l-0.7-0.6c0.6-0.8,1.3-1,2.4-1c1.8,0,2.8,0.8,2.8,2.3v4.7H452.2z
		 M452.2,167.7h-1.9c-1,0-1.5,0.4-1.5,1.2s0.5,1.2,1.6,1.2c0.6,0,1.1,0,1.5-0.5c0.2-0.2,0.4-0.6,0.4-1.2V167.7z"/>
	<path class="st12" d="M457.4,172.6c-0.1,0.4-0.3,0.6-0.5,0.8c-0.4,0.4-0.9,0.5-1.3,0.5h-0.4v-0.9h0.3c0.7,0,0.9-0.2,1.1-0.9
		l0.5-1.3l-2.5-6.8h1.1l1.9,5.5l1.9-5.5h1.1L457.4,172.6z"/>
	<path class="st12" d="M469.8,170.2c-0.5,0.5-1.1,0.8-2,0.8c-0.8,0-1.5-0.3-2-0.8c-0.7-0.7-0.8-1.7-0.8-2.7s0.1-2,0.8-2.7
		c0.5-0.5,1.1-0.8,2-0.8c0.8,0,1.5,0.3,2,0.8c0.7,0.7,0.8,1.7,0.8,2.7S470.5,169.5,469.8,170.2z M469.1,165.3
		c-0.3-0.3-0.8-0.5-1.3-0.5s-0.9,0.2-1.2,0.5c-0.5,0.5-0.6,1.4-0.6,2.1s0.1,1.6,0.6,2.1c0.3,0.3,0.8,0.5,1.2,0.5s0.9-0.2,1.3-0.5
		c0.5-0.5,0.5-1.4,0.5-2.1S469.6,165.8,469.1,165.3z"/>
	<path class="st12" d="M477.5,170.4c-0.4,0.4-1,0.6-1.7,0.6c-0.8,0-1.4-0.2-1.9-0.9v3.9h-1v-10h1v0.8c0.6-0.7,1.2-0.9,1.9-0.9
		c0.7,0,1.3,0.2,1.7,0.6c0.7,0.7,0.8,1.8,0.8,2.9S478.2,169.7,477.5,170.4z M475.6,164.8c-1.5,0-1.7,1.3-1.7,2.6s0.2,2.6,1.7,2.6
		s1.7-1.3,1.7-2.6S477.1,164.8,475.6,164.8z"/>
	<path class="st12" d="M482.4,170.9c-1.2,0-1.8-0.8-1.8-1.8v-4.2h-0.9V164h0.9v-2.2h1v2.2h1.5v0.8h-1.5v4.2c0,0.6,0.3,1,0.9,1h0.5
		v0.9H482.4z"/>
	<path class="st12" d="M485.1,162v-1.1h1.1v1.1H485.1z M485.1,170.9V164h1v6.9H485.1z"/>
	<path class="st12" d="M493.1,170.2c-0.5,0.5-1.1,0.8-2,0.8c-0.8,0-1.5-0.3-2-0.8c-0.7-0.7-0.8-1.7-0.8-2.7s0.1-2,0.8-2.7
		c0.5-0.5,1.1-0.8,2-0.8c0.8,0,1.5,0.3,2,0.8c0.7,0.7,0.8,1.7,0.8,2.7S493.8,169.5,493.1,170.2z M492.4,165.3
		c-0.3-0.3-0.8-0.5-1.3-0.5s-0.9,0.2-1.2,0.5c-0.5,0.5-0.6,1.4-0.6,2.1s0.1,1.6,0.6,2.1c0.3,0.3,0.8,0.5,1.2,0.5s0.9-0.2,1.3-0.5
		c0.5-0.5,0.5-1.4,0.5-2.1S492.9,165.8,492.4,165.3z"/>
	<path class="st12" d="M500.5,170.9v-4.2c0-1.2-0.7-1.8-1.7-1.8c-1,0-1.7,0.6-1.7,1.8v4.2h-1V164h1v0.8c0.5-0.6,1.2-0.8,1.9-0.8
		c0.7,0,1.3,0.2,1.8,0.6c0.5,0.5,0.7,1.1,0.7,1.9v4.4H500.5z"/>
	<path class="st12" d="M507.9,170.9v-0.7c-0.6,0.6-1.1,0.7-2,0.7c-1,0-1.5-0.2-1.9-0.6c-0.3-0.3-0.5-0.9-0.5-1.4c0-1.2,0.8-2,2.4-2
		h2.1v-0.7c0-1-0.5-1.5-1.8-1.5c-0.9,0-1.3,0.2-1.7,0.8l-0.7-0.6c0.6-0.8,1.3-1,2.4-1c1.8,0,2.8,0.8,2.8,2.3v4.7H507.9z
		 M507.9,167.7h-1.9c-1,0-1.5,0.4-1.5,1.2s0.5,1.2,1.6,1.2c0.6,0,1.1,0,1.5-0.5c0.2-0.2,0.3-0.6,0.3-1.2V167.7z"/>
	<path class="st12" d="M513,170.9c-1.2,0-1.8-0.8-1.8-1.8v-8.1h1v8.1c0,0.7,0.2,1,0.9,1h0.5v0.9H513z"/>
	<path class="st12" d="M517.2,170.9c-1.2,0-1.8-0.8-1.8-1.8v-8.1h1v8.1c0,0.7,0.2,1,0.9,1h0.5v0.9H517.2z"/>
	<path class="st12" d="M521,172.6c-0.1,0.4-0.3,0.6-0.5,0.8c-0.4,0.4-0.9,0.5-1.3,0.5h-0.4v-0.9h0.3c0.7,0,0.9-0.2,1.1-0.9l0.5-1.3
		l-2.5-6.8h1.1l1.9,5.5l1.9-5.5h1.1L521,172.6z"/>
	<path class="st12" d="M533.2,170.9v-0.8c-0.6,0.7-1.2,0.9-2,0.9c-0.7,0-1.3-0.2-1.7-0.6c-0.7-0.7-0.8-1.8-0.8-2.9s0.1-2.2,0.8-2.9
		c0.4-0.4,1-0.6,1.7-0.6c0.8,0,1.4,0.2,1.9,0.9v-3.9h1v10H533.2z M531.4,164.8c-1.5,0-1.7,1.3-1.7,2.6s0.2,2.6,1.7,2.6
		c1.5,0,1.7-1.3,1.7-2.6S532.9,164.8,531.4,164.8z"/>
	<path class="st12" d="M536.6,162v-1.1h1.1v1.1H536.6z M536.7,170.9V164h1v6.9H536.7z"/>
	<path class="st12" d="M542.4,171c-1.2,0-2.1-0.3-2.8-1l0.7-0.7c0.5,0.6,1.3,0.8,2.1,0.8c1.1,0,1.8-0.4,1.8-1.2c0-0.6-0.4-0.9-1.1-1
		l-1.1-0.1c-1.3-0.1-2.1-0.7-2.1-1.8c0-1.3,1.1-2,2.5-2c1,0,1.9,0.2,2.5,0.7l-0.7,0.7c-0.5-0.4-1.1-0.5-1.8-0.5
		c-1,0-1.5,0.4-1.5,1.1c0,0.6,0.3,0.9,1.2,1l1.1,0.1c1.2,0.1,2,0.6,2,1.9C545.2,170.2,544.1,171,542.4,171z"/>
	<path class="st12" d="M551.1,170.9v-0.7c-0.6,0.6-1.1,0.7-2,0.7c-1,0-1.5-0.2-1.9-0.6c-0.3-0.3-0.5-0.9-0.5-1.4c0-1.2,0.8-2,2.4-2
		h2.1v-0.7c0-1-0.5-1.5-1.8-1.5c-0.9,0-1.3,0.2-1.7,0.8l-0.7-0.6c0.6-0.8,1.3-1,2.4-1c1.8,0,2.8,0.8,2.8,2.3v4.7H551.1z
		 M551.1,167.7h-1.9c-1,0-1.5,0.4-1.5,1.2s0.5,1.2,1.6,1.2c0.6,0,1.1,0,1.5-0.5c0.2-0.2,0.4-0.6,0.4-1.2V167.7z"/>
	<path class="st12" d="M559.2,170.4c-0.4,0.4-1,0.6-1.7,0.6c-0.8,0-1.4-0.2-1.9-0.9v0.8h-1v-10h1v3.9c0.6-0.7,1.2-0.9,1.9-0.9
		c0.7,0,1.3,0.2,1.7,0.6c0.7,0.7,0.8,1.8,0.8,2.9S559.9,169.7,559.2,170.4z M557.3,164.8c-1.5,0-1.7,1.3-1.7,2.6s0.2,2.6,1.7,2.6
		c1.5,0,1.7-1.3,1.7-2.6S558.8,164.8,557.3,164.8z"/>
	<path class="st12" d="M563.9,170.9c-1.2,0-1.8-0.8-1.8-1.8v-8.1h1v8.1c0,0.7,0.2,1,0.9,1h0.5v0.9H563.9z"/>
	<path class="st12" d="M566.6,167.7c0,1.5,0.7,2.4,2,2.4c0.8,0,1.3-0.2,1.8-0.8l0.7,0.6c-0.7,0.7-1.3,1.1-2.5,1.1
		c-1.8,0-3-1.1-3-3.5c0-2.2,1.1-3.5,2.8-3.5c1.8,0,2.8,1.3,2.8,3.3v0.5H566.6z M570,165.8c-0.3-0.6-0.9-1-1.6-1s-1.3,0.4-1.6,1
		c-0.2,0.4-0.2,0.6-0.2,1.1h3.6C570.2,166.4,570.2,166.2,570,165.8z"/>
	<path class="st12" d="M578.8,170.9c-1.2,0-1.8-0.8-1.8-1.8v-4.2h-0.9V164h0.9v-2.2h1v2.2h1.5v0.8H578v4.2c0,0.6,0.3,1,0.9,1h0.5
		v0.9H578.8z"/>
	<path class="st12" d="M585.9,170.9v-4.3c0-1.2-0.6-1.8-1.7-1.8s-1.7,0.6-1.7,1.8v4.3h-1v-10h1v3.8c0.5-0.6,1.2-0.8,1.9-0.8
		c1.6,0,2.5,1,2.5,2.5v4.4H585.9z"/>
	<path class="st12" d="M590,167.7c0,1.5,0.7,2.4,2,2.4c0.8,0,1.3-0.2,1.8-0.8l0.7,0.6c-0.7,0.7-1.3,1.1-2.5,1.1c-1.8,0-3-1.1-3-3.5
		c0-2.2,1.1-3.5,2.8-3.5c1.8,0,2.8,1.3,2.8,3.3v0.5H590z M593.4,165.8c-0.3-0.6-0.9-1-1.6-1s-1.3,0.4-1.6,1
		c-0.2,0.4-0.2,0.6-0.2,1.1h3.6C593.6,166.4,593.6,166.2,593.4,165.8z"/>
	<path class="st12" d="M599,171c-1.2,0-2.1-0.3-2.8-1l0.7-0.7c0.5,0.6,1.3,0.8,2.1,0.8c1.1,0,1.8-0.4,1.8-1.2c0-0.6-0.4-0.9-1.1-1
		l-1.1-0.1c-1.3-0.1-2.1-0.7-2.1-1.8c0-1.3,1.1-2,2.5-2c1,0,1.9,0.2,2.5,0.7l-0.7,0.7c-0.5-0.4-1.1-0.5-1.8-0.5
		c-1,0-1.5,0.4-1.5,1.1c0,0.6,0.3,0.9,1.2,1l1.1,0.1c1.2,0.1,2,0.6,2,1.9C601.8,170.2,600.6,171,599,171z"/>
	<path class="st12" d="M604.4,167.7c0,1.5,0.7,2.4,2,2.4c0.8,0,1.3-0.2,1.8-0.8l0.7,0.6c-0.7,0.7-1.3,1.1-2.5,1.1
		c-1.8,0-3-1.1-3-3.5c0-2.2,1.1-3.5,2.8-3.5c1.8,0,2.8,1.3,2.8,3.3v0.5H604.4z M607.8,165.8c-0.3-0.6-0.9-1-1.6-1s-1.3,0.4-1.6,1
		c-0.2,0.4-0.2,0.6-0.2,1.1h3.6C608,166.4,608,166.2,607.8,165.8z"/>
	<path class="st12" d="M616.8,171c-1.2,0-2.1-0.3-2.8-1l0.7-0.7c0.5,0.6,1.3,0.8,2.1,0.8c1.1,0,1.8-0.4,1.8-1.2c0-0.6-0.4-0.9-1.1-1
		l-1.1-0.1c-1.3-0.1-2.1-0.7-2.1-1.8c0-1.3,1.1-2,2.5-2c1,0,1.9,0.2,2.5,0.7l-0.7,0.7c-0.5-0.4-1.1-0.5-1.8-0.5
		c-1,0-1.5,0.4-1.5,1.1c0,0.6,0.3,0.9,1.2,1l1.1,0.1c1.2,0.1,2,0.6,2,1.9C619.6,170.2,618.5,171,616.8,171z"/>
	<path class="st12" d="M622.2,167.7c0,1.5,0.7,2.4,2,2.4c0.8,0,1.3-0.2,1.8-0.8l0.7,0.6c-0.7,0.7-1.3,1.1-2.5,1.1
		c-1.8,0-3-1.1-3-3.5c0-2.2,1.1-3.5,2.8-3.5c1.8,0,2.8,1.3,2.8,3.3v0.5H622.2z M625.7,165.8c-0.3-0.6-0.9-1-1.6-1s-1.3,0.4-1.6,1
		c-0.2,0.4-0.2,0.6-0.2,1.1h3.6C625.8,166.4,625.8,166.2,625.7,165.8z"/>
	<path class="st12" d="M632.9,165.3c-0.4-0.4-0.7-0.5-1.2-0.5c-1,0-1.7,0.8-1.7,1.8v4.2h-1V164h1v0.8c0.4-0.6,1.1-0.9,1.9-0.9
		c0.7,0,1.2,0.2,1.7,0.6L632.9,165.3z"/>
	<path class="st12" d="M637.2,170.9h-0.9l-2.5-6.9h1.1l1.9,5.5l1.9-5.5h1.1L637.2,170.9z"/>
	<path class="st12" d="M641.1,162v-1.1h1.1v1.1H641.1z M641.2,170.9V164h1v6.9H641.2z"/>
	<path class="st12" d="M647.4,171c-1.7,0-3.1-1.2-3.1-3.5c0-2.4,1.3-3.5,3.1-3.5c1,0,1.6,0.3,2.3,1l-0.7,0.6
		c-0.5-0.6-0.9-0.8-1.6-0.8c-0.7,0-1.2,0.3-1.6,0.8c-0.3,0.4-0.4,1-0.4,1.8c0,0.9,0.1,1.4,0.4,1.8c0.4,0.5,0.9,0.8,1.6,0.8
		c0.7,0,1.1-0.2,1.6-0.8l0.7,0.7C648.9,170.7,648.3,171,647.4,171z"/>
	<path class="st12" d="M652,167.7c0,1.5,0.7,2.4,2,2.4c0.8,0,1.3-0.2,1.8-0.8l0.7,0.6c-0.7,0.7-1.3,1.1-2.5,1.1c-1.8,0-3-1.1-3-3.5
		c0-2.2,1.1-3.5,2.8-3.5c1.8,0,2.8,1.3,2.8,3.3v0.5H652z M655.4,165.8c-0.3-0.6-0.9-1-1.6-1s-1.3,0.4-1.6,1
		c-0.2,0.4-0.2,0.6-0.2,1.1h3.6C655.6,166.4,655.6,166.2,655.4,165.8z"/>
	<path class="st12" d="M661,171c-1.2,0-2.1-0.3-2.8-1l0.7-0.7c0.5,0.6,1.3,0.8,2.1,0.8c1.1,0,1.8-0.4,1.8-1.2c0-0.6-0.4-0.9-1.1-1
		l-1.1-0.1c-1.3-0.1-2.1-0.7-2.1-1.8c0-1.3,1.1-2,2.5-2c1,0,1.9,0.2,2.5,0.7l-0.7,0.7c-0.5-0.4-1.1-0.5-1.8-0.5
		c-1,0-1.5,0.4-1.5,1.1c0,0.6,0.3,0.9,1.2,1l1.1,0.1c1.2,0.1,2,0.6,2,1.9C663.8,170.2,662.6,171,661,171z"/>
	<path class="st12" d="M665.7,170.9v-1.3h1.3v1.3H665.7z"/>
</g>
<path class="st13" d="M804.9,1H324.7c-8.4,0-15.2,6.8-15.2,15.2v319.3c0,8.4,6.8,15.2,15.2,15.2h480.1c8.4,0,15.2-6.8,15.2-15.2
	V16.2C820.1,7.8,813.2,1,804.9,1z M806.9,338.3H321.4V14h485.5V338.3z"/>
<path class="st9" d="M877.9,357.2L877.9,357.2c0,4-3.2,7.2-7.2,7.2H259c-4,0-7.2-3.3-7.2-7.2"/>
<path class="st13" d="M877.9,357.2L877.9,357.2c0,4-3.2,7.2-7.2,7.2H259c-4,0-7.2-3.3-7.2-7.2"/>
<path class="st9" d="M877.9,357.8v-12.6H616v1.4c0,2.3-1.9,4.2-4.2,4.2h-94c-2.3,0-4.2-1.9-4.2-4.2v-1.4H251.8v12"/>
<path class="st13" d="M877.9,357.8v-12.6H616v1.4c0,2.3-1.9,4.2-4.2,4.2h-94c-2.3,0-4.2-1.9-4.2-4.2v-1.4H251.8v12"/>
<g>
	<g>
		<path class="st12" d="M437.3,105.7c0.1,0.5,0.2,0.8,0.4,1c0.3,0.4,0.9,0.6,1.8,0.6c0.5,0,0.9-0.1,1.2-0.2c0.6-0.2,0.9-0.6,0.9-1.2
			c0-0.3-0.1-0.6-0.4-0.8c-0.3-0.2-0.8-0.3-1.4-0.5l-1.1-0.2c-1.1-0.2-1.8-0.5-2.2-0.8c-0.7-0.5-1-1.2-1-2.2c0-0.9,0.3-1.7,1-2.2
			c0.7-0.6,1.6-0.9,2.9-0.9c1.1,0,2,0.3,2.8,0.8c0.8,0.6,1.2,1.4,1.2,2.5h-2c0-0.6-0.3-1-0.8-1.3c-0.3-0.2-0.8-0.3-1.3-0.3
			c-0.6,0-1,0.1-1.3,0.3s-0.5,0.5-0.5,0.9c0,0.4,0.2,0.6,0.5,0.8c0.2,0.1,0.7,0.3,1.3,0.4l1.8,0.4c0.8,0.2,1.4,0.4,1.7,0.7
			c0.6,0.5,0.9,1.2,0.9,2.1c0,0.9-0.4,1.7-1.1,2.3s-1.7,0.9-3,0.9c-1.3,0-2.4-0.3-3.1-0.9c-0.8-0.6-1.1-1.4-1.1-2.5H437.3z"/>
		<path class="st12" d="M449.8,101.5c0.5,0.2,0.9,0.6,1.3,1.1c0.3,0.4,0.5,1,0.6,1.5c0.1,0.3,0.1,0.8,0.1,1.5h-5.4
			c0,0.7,0.3,1.3,0.8,1.6c0.3,0.2,0.7,0.3,1.1,0.3c0.4,0,0.8-0.1,1.1-0.3c0.2-0.1,0.3-0.3,0.4-0.5h2c-0.1,0.4-0.3,0.9-0.7,1.3
			c-0.7,0.7-1.6,1.1-2.8,1.1c-1,0-1.9-0.3-2.6-0.9c-0.8-0.6-1.1-1.6-1.1-3c0-1.3,0.3-2.3,1-3c0.7-0.7,1.6-1,2.7-1
			C448.7,101.2,449.3,101.3,449.8,101.5z M446.9,103.2c-0.3,0.3-0.4,0.7-0.5,1.2h3.4c0-0.5-0.2-0.9-0.5-1.2
			c-0.3-0.3-0.7-0.4-1.2-0.4C447.6,102.8,447.2,102.9,446.9,103.2z"/>
		<path class="st12" d="M452,102.8v-1.4h1v-2.1h1.9v2.1h1.2v1.4H455v3.9c0,0.3,0,0.5,0.1,0.6s0.3,0.1,0.7,0.1c0.1,0,0.1,0,0.2,0
			c0.1,0,0.1,0,0.2,0v1.5l-0.9,0c-0.9,0-1.5-0.1-1.9-0.5c-0.2-0.2-0.3-0.6-0.3-1v-4.6H452z"/>
		<path class="st12" d="M456.7,102.8v-1.4h1v-2.1h1.9v2.1h1.2v1.4h-1.2v3.9c0,0.3,0,0.5,0.1,0.6s0.3,0.1,0.7,0.1c0.1,0,0.1,0,0.2,0
			c0.1,0,0.1,0,0.2,0v1.5l-0.9,0c-0.9,0-1.5-0.1-1.9-0.5c-0.2-0.2-0.3-0.6-0.3-1v-4.6H456.7z"/>
		<path class="st12" d="M464.1,100.5h-2v-1.8h2V100.5z M462.1,101.4h2v7.5h-2V101.4z"/>
		<path class="st12" d="M472,101.8c0.5,0.4,0.7,1.1,0.7,2v5h-2v-4.5c0-0.4-0.1-0.7-0.2-0.9c-0.2-0.4-0.6-0.6-1.1-0.6
			c-0.7,0-1.1,0.3-1.4,0.8c-0.1,0.3-0.2,0.7-0.2,1.1v4H466v-7.4h1.9v1.1c0.2-0.4,0.5-0.7,0.7-0.8c0.4-0.3,0.9-0.5,1.5-0.5
			C470.9,101.2,471.5,101.4,472,101.8z"/>
		<path class="st12" d="M478.2,101.4c0.5,0.2,0.9,0.6,1.1,1.1v-1.1h1.9v7.1c0,1-0.2,1.7-0.5,2.2c-0.6,0.8-1.6,1.3-3.2,1.3
			c-1,0-1.7-0.2-2.3-0.6s-0.9-0.9-1-1.7h2.1c0.1,0.2,0.1,0.4,0.3,0.5c0.2,0.2,0.6,0.3,1.1,0.3c0.7,0,1.2-0.2,1.4-0.7
			c0.2-0.3,0.2-0.8,0.2-1.5v-0.5c-0.2,0.3-0.4,0.6-0.6,0.7c-0.4,0.3-0.9,0.4-1.5,0.4c-1,0-1.7-0.3-2.3-1c-0.6-0.7-0.9-1.6-0.9-2.7
			c0-1.1,0.3-2,0.8-2.8s1.3-1.1,2.3-1.1C477.6,101.2,477.9,101.2,478.2,101.4z M478.9,106.7c0.3-0.3,0.5-0.9,0.5-1.6
			c0-0.7-0.1-1.2-0.4-1.6c-0.3-0.4-0.7-0.6-1.2-0.6c-0.7,0-1.2,0.3-1.4,1c-0.1,0.3-0.2,0.8-0.2,1.3c0,0.4,0.1,0.8,0.2,1.2
			c0.3,0.6,0.7,0.9,1.4,0.9C478.2,107.2,478.6,107,478.9,106.7z"/>
		<path class="st12" d="M484.6,106.4c0,0.3,0.1,0.6,0.3,0.7c0.2,0.3,0.7,0.4,1.3,0.4c0.4,0,0.7-0.1,0.9-0.2s0.3-0.3,0.3-0.5
			c0-0.2-0.1-0.4-0.3-0.5c-0.2-0.1-0.9-0.3-2-0.6c-0.8-0.2-1.4-0.5-1.8-0.8c-0.3-0.3-0.5-0.8-0.5-1.3c0-0.7,0.3-1.3,0.8-1.8
			c0.5-0.5,1.3-0.7,2.3-0.7c0.9,0,1.7,0.2,2.3,0.6s0.9,1,1,1.9h-1.9c0-0.3-0.1-0.4-0.2-0.6c-0.2-0.3-0.6-0.4-1.1-0.4
			c-0.4,0-0.7,0.1-0.9,0.2c-0.2,0.1-0.3,0.3-0.3,0.5c0,0.2,0.1,0.4,0.3,0.5c0.2,0.1,0.9,0.3,2,0.5c0.8,0.2,1.4,0.5,1.7,0.8
			c0.4,0.4,0.6,0.8,0.6,1.4c0,0.7-0.3,1.3-0.8,1.8c-0.6,0.5-1.4,0.7-2.6,0.7c-1.2,0-2-0.2-2.6-0.7c-0.6-0.5-0.8-1.1-0.8-1.9H484.6z"
			/>
	</g>
</g>
<g>
</g>
<g>
</g>
<g>
</g>
<g>
</g>
<g>
</g>
<g>
</g>
</svg>
