<?xml version="1.0" encoding="utf-8"?>
<!-- Generator: Adobe Illustrator 19.1.0, SVG Export Plug-In . SVG Version: 6.00 Build 0)  -->
<svg version="1.1" preserveAspectRatio="xMinYMid" id="Layer_1" xmlns="http://www.w3.org/2000/svg" xmlns:xlink="http://www.w3.org/1999/xlink" x="0px" y="0px"
	 viewBox="0 0 634.5 412.7" style="enable-background:new 0 0 634.5 412.7;" xml:space="preserve">
<style type="text/css">
	.st0{fill:#3A50A2;}
	.st1{fill:none;}
	.st2{fill:#1D1D1B;}
	.st3{fill:#ECECEC;}
	.st4{fill:none;stroke:#1D1D1B;stroke-width:0.5;stroke-miterlimit:10;}
	.st5{fill:#FFFFFF;stroke:#1D1D1B;stroke-miterlimit:10;}
	.st6{fill:#FFFFFF;stroke:#1D1D1B;stroke-width:2;stroke-miterlimit:10;}
	.st7{fill:#010101;}
	.st8{fill:#3A50A2;stroke:#1D1D1B;stroke-width:0.5;stroke-miterlimit:10;}
	.st9{fill:none;stroke:#FFFFFF;stroke-width:5;stroke-miterlimit:10;}
	.st10{fill:#FFFFFF;}
	
		.st11{fill-rule:evenodd;clip-rule:evenodd;fill:none;stroke:#3A50A2;stroke-width:2.8764;stroke-linecap:round;stroke-miterlimit:10;}
	.st12{fill:#000101;stroke:#000101;stroke-width:0.8322;stroke-miterlimit:10;}
</style>
<g>
	<g>
		<path class="st0" d="M97.4,89.8v0.2c0,0.8,0.1,1.3,0.2,1.6s0.5,0.5,0.9,0.5c0.5,0,0.8-0.2,0.9-0.5c0.1-0.2,0.1-0.6,0.1-1v-7h2.1v7
			c0,0.9-0.1,1.5-0.4,2c-0.5,0.8-1.4,1.3-2.7,1.3c-1.3,0-2.1-0.3-2.6-1c-0.4-0.7-0.7-1.6-0.7-2.8v-0.2H97.4z"/>
		<path class="st0" d="M110,92.8c-0.6,0.8-1.6,1.2-2.9,1.2s-2.2-0.4-2.9-1.2s-0.9-1.7-0.9-2.8c0-1.1,0.3-2,0.9-2.8s1.6-1.2,2.9-1.2
			s2.2,0.4,2.9,1.2s0.9,1.7,0.9,2.8C111,91,110.7,92,110,92.8z M108.5,91.7c0.3-0.4,0.5-1,0.5-1.7c0-0.7-0.2-1.3-0.5-1.7
			c-0.3-0.4-0.7-0.6-1.3-0.6s-1,0.2-1.3,0.6c-0.3,0.4-0.5,1-0.5,1.7c0,0.7,0.2,1.3,0.5,1.7c0.3,0.4,0.7,0.6,1.3,0.6
			S108.2,92.1,108.5,91.7z"/>
		<path class="st0" d="M114.4,85.3h-2v-1.8h2V85.3z M112.4,86.2h2v7.5h-2V86.2z"/>
		<path class="st0" d="M122.3,86.6c0.5,0.4,0.7,1.1,0.7,2v5h-2v-4.5c0-0.4-0.1-0.7-0.2-0.9c-0.2-0.4-0.6-0.6-1.1-0.6
			c-0.7,0-1.1,0.3-1.4,0.8c-0.1,0.3-0.2,0.7-0.2,1.1v4h-1.9v-7.4h1.9v1.1c0.2-0.4,0.5-0.7,0.7-0.8c0.4-0.3,0.9-0.5,1.5-0.5
			C121.1,86,121.8,86.2,122.3,86.6z"/>
		<path class="st0" d="M127.9,87.7v-1.4h1v-2.1h1.9v2.1h1.2v1.4h-1.2v3.9c0,0.3,0,0.5,0.1,0.6s0.3,0.1,0.7,0.1c0.1,0,0.1,0,0.2,0
			s0.1,0,0.2,0v1.5l-0.9,0c-0.9,0-1.5-0.1-1.9-0.5c-0.2-0.2-0.3-0.6-0.3-1v-4.6H127.9z"/>
		<path class="st0" d="M138.7,86.3c0.4,0.2,0.7,0.4,0.9,0.7c0.2,0.3,0.3,0.6,0.4,0.9c0,0.3,0.1,0.8,0.1,1.4v4.4h-2v-4.5
			c0-0.4-0.1-0.7-0.2-1c-0.2-0.3-0.5-0.5-1-0.5c-0.5,0-0.9,0.2-1.2,0.5c-0.3,0.3-0.4,0.8-0.4,1.5v4h-1.9v-10h1.9v3.6
			c0.3-0.4,0.6-0.7,1-0.9c0.4-0.2,0.8-0.3,1.2-0.3C137.9,86,138.3,86.1,138.7,86.3z"/>
		<path class="st0" d="M146.8,86.4c0.5,0.2,0.9,0.6,1.3,1.1c0.3,0.4,0.5,1,0.6,1.5c0.1,0.3,0.1,0.8,0.1,1.5h-5.4
			c0,0.7,0.3,1.3,0.8,1.6c0.3,0.2,0.7,0.3,1.1,0.3c0.4,0,0.8-0.1,1.1-0.3c0.2-0.1,0.3-0.3,0.4-0.5h2c-0.1,0.4-0.3,0.9-0.7,1.3
			c-0.7,0.7-1.6,1.1-2.8,1.1c-1,0-1.9-0.3-2.6-0.9c-0.8-0.6-1.1-1.6-1.1-3c0-1.3,0.3-2.3,1-3c0.7-0.7,1.6-1,2.7-1
			C145.7,86,146.2,86.1,146.8,86.4z M143.8,88c-0.3,0.3-0.4,0.7-0.5,1.2h3.4c0-0.5-0.2-0.9-0.5-1.2c-0.3-0.3-0.7-0.4-1.2-0.4
			C144.5,87.6,144.1,87.8,143.8,88z"/>
		<path class="st0" d="M161.5,92.8c-0.8,0.8-1.9,1.2-3.3,1.2s-2.5-0.4-3.3-1.2c-1-1-1.5-2.3-1.5-4.2c0-1.8,0.5-3.2,1.5-4.2
			c0.8-0.8,1.9-1.2,3.3-1.2s2.5,0.4,3.3,1.2c1,0.9,1.5,2.3,1.5,4.2C163,90.4,162.5,91.8,161.5,92.8z M160.2,91.2
			c0.5-0.6,0.7-1.5,0.7-2.6c0-1.1-0.2-2-0.7-2.6s-1.2-0.9-2-0.9s-1.5,0.3-2,0.9s-0.7,1.5-0.7,2.6s0.2,2,0.7,2.6s1.2,0.9,2,0.9
			S159.7,91.9,160.2,91.2z"/>
		<path class="st0" d="M168.6,86c0,0,0.1,0,0.2,0v2c-0.1,0-0.2,0-0.3,0s-0.2,0-0.2,0c-0.8,0-1.3,0.3-1.6,0.8
			c-0.2,0.3-0.2,0.7-0.2,1.3v3.6h-2v-7.5h1.9v1.3c0.3-0.5,0.6-0.8,0.8-1C167.5,86.2,167.9,86,168.6,86C168.6,86,168.6,86,168.6,86z"
			/>
		<path class="st0" d="M173.6,86.2c0.5,0.2,0.9,0.6,1.1,1.1v-1.1h1.9v7.1c0,1-0.2,1.7-0.5,2.2c-0.6,0.8-1.6,1.3-3.2,1.3
			c-1,0-1.7-0.2-2.3-0.6s-0.9-0.9-1-1.7h2.1c0.1,0.2,0.1,0.4,0.3,0.5c0.2,0.2,0.6,0.3,1.1,0.3c0.7,0,1.2-0.2,1.4-0.7
			c0.2-0.3,0.2-0.8,0.2-1.5v-0.5c-0.2,0.3-0.4,0.6-0.6,0.7c-0.4,0.3-0.9,0.4-1.5,0.4c-1,0-1.7-0.3-2.3-1s-0.9-1.6-0.9-2.7
			c0-1.1,0.3-2,0.8-2.8s1.3-1.1,2.3-1.1C173,86,173.3,86.1,173.6,86.2z M174.3,91.5c0.3-0.3,0.5-0.9,0.5-1.6c0-0.7-0.1-1.2-0.4-1.6
			s-0.7-0.6-1.2-0.6c-0.7,0-1.2,0.3-1.4,1c-0.1,0.3-0.2,0.8-0.2,1.3c0,0.4,0.1,0.8,0.2,1.2c0.3,0.6,0.7,0.9,1.4,0.9
			C173.6,92.1,174,91.9,174.3,91.5z"/>
		<path class="st0" d="M181.4,89.1c0.4,0,0.6-0.1,0.8-0.2c0.3-0.1,0.4-0.3,0.4-0.6c0-0.3-0.1-0.5-0.3-0.6s-0.5-0.2-0.9-0.2
			c-0.5,0-0.8,0.1-1,0.3c-0.1,0.2-0.2,0.4-0.3,0.7h-1.9c0-0.7,0.2-1.2,0.5-1.6c0.5-0.7,1.4-1,2.7-1c0.8,0,1.5,0.2,2.2,0.5
			s1,0.9,1,1.8v3.4c0,0.2,0,0.5,0,0.9c0,0.3,0.1,0.4,0.1,0.5s0.2,0.2,0.3,0.2v0.3h-2.1c-0.1-0.2-0.1-0.3-0.1-0.4s0-0.3-0.1-0.5
			c-0.3,0.3-0.6,0.5-0.9,0.7c-0.4,0.2-0.9,0.4-1.4,0.4c-0.7,0-1.2-0.2-1.7-0.6s-0.7-0.9-0.7-1.6c0-0.9,0.4-1.6,1.1-2
			c0.4-0.2,1-0.4,1.7-0.5L181.4,89.1z M182.6,90c-0.1,0.1-0.3,0.1-0.4,0.2s-0.3,0.1-0.5,0.1l-0.4,0.1c-0.4,0.1-0.7,0.2-0.9,0.3
			c-0.3,0.2-0.5,0.5-0.5,0.8c0,0.3,0.1,0.6,0.3,0.7c0.2,0.1,0.4,0.2,0.7,0.2c0.4,0,0.8-0.1,1.2-0.4c0.4-0.2,0.5-0.7,0.6-1.3V90z"/>
		<path class="st0" d="M192.3,86.6c0.5,0.4,0.7,1.1,0.7,2v5h-2v-4.5c0-0.4-0.1-0.7-0.2-0.9c-0.2-0.4-0.6-0.6-1.1-0.6
			c-0.7,0-1.1,0.3-1.4,0.8c-0.1,0.3-0.2,0.7-0.2,1.1v4h-1.9v-7.4h1.9v1.1c0.2-0.4,0.5-0.7,0.7-0.8c0.4-0.3,0.9-0.5,1.5-0.5
			C191.2,86,191.8,86.2,192.3,86.6z"/>
		<path class="st0" d="M204.8,83.8c0.7,0.2,1.3,0.7,1.7,1.3c0.4,0.5,0.6,1,0.7,1.6c0.1,0.6,0.2,1.1,0.2,1.7c0,1.3-0.3,2.5-0.8,3.4
			c-0.7,1.3-1.9,1.9-3.4,1.9h-4.3V83.6h4.3C203.8,83.6,204.3,83.7,204.8,83.8z M200.9,85.3v6.6h1.9c1,0,1.7-0.5,2.1-1.5
			c0.2-0.5,0.3-1.2,0.3-1.9c0-1-0.2-1.8-0.5-2.4s-1-0.8-1.9-0.8H200.9z"/>
		<path class="st0" d="M215,92.8c-0.6,0.8-1.6,1.2-2.9,1.2s-2.2-0.4-2.9-1.2s-0.9-1.7-0.9-2.8c0-1.1,0.3-2,0.9-2.8s1.6-1.2,2.9-1.2
			s2.2,0.4,2.9,1.2s0.9,1.7,0.9,2.8C216,91,215.7,92,215,92.8z M213.5,91.7c0.3-0.4,0.5-1,0.5-1.7c0-0.7-0.2-1.3-0.5-1.7
			c-0.3-0.4-0.7-0.6-1.3-0.6s-1,0.2-1.3,0.6c-0.3,0.4-0.5,1-0.5,1.7c0,0.7,0.2,1.3,0.5,1.7c0.3,0.4,0.7,0.6,1.3,0.6
			S213.2,92.1,213.5,91.7z"/>
		<path class="st0" d="M223.4,86.6c0.5,0.4,0.7,1.1,0.7,2v5h-2v-4.5c0-0.4-0.1-0.7-0.2-0.9c-0.2-0.4-0.6-0.6-1.1-0.6
			c-0.7,0-1.1,0.3-1.4,0.8c-0.1,0.3-0.2,0.7-0.2,1.1v4h-1.9v-7.4h1.9v1.1c0.2-0.4,0.5-0.7,0.7-0.8c0.4-0.3,0.9-0.5,1.5-0.5
			C222.3,86,222.9,86.2,223.4,86.6z"/>
		<path class="st0" d="M232.1,92.8c-0.6,0.8-1.6,1.2-2.9,1.2s-2.2-0.4-2.9-1.2s-0.9-1.7-0.9-2.8c0-1.1,0.3-2,0.9-2.8
			s1.6-1.2,2.9-1.2s2.2,0.4,2.9,1.2s0.9,1.7,0.9,2.8C233.1,91,232.8,92,232.1,92.8z M230.6,91.7c0.3-0.4,0.5-1,0.5-1.7
			c0-0.7-0.2-1.3-0.5-1.7c-0.3-0.4-0.7-0.6-1.3-0.6s-1,0.2-1.3,0.6c-0.3,0.4-0.5,1-0.5,1.7c0,0.7,0.2,1.3,0.5,1.7
			c0.3,0.4,0.7,0.6,1.3,0.6S230.3,92.1,230.6,91.7z"/>
		<path class="st0" d="M238.6,86c0,0,0.1,0,0.2,0v2c-0.1,0-0.2,0-0.3,0s-0.2,0-0.2,0c-0.8,0-1.3,0.3-1.6,0.8
			c-0.2,0.3-0.2,0.7-0.2,1.3v3.6h-2v-7.5h1.9v1.3c0.3-0.5,0.6-0.8,0.8-1C237.5,86.2,237.9,86,238.6,86C238.6,86,238.6,86,238.6,86z"
			/>
		<path class="st0" d="M240.5,86.7c0.5-0.1,0.8-0.4,1-0.7c0.1-0.2,0.1-0.4,0.1-0.6h-1.1v-1.8h2v1.4c0,0.7-0.2,1.2-0.5,1.6
			s-0.8,0.7-1.5,0.8V86.7z"/>
		<path class="st0" d="M245.3,91.3c0,0.3,0.1,0.6,0.3,0.7c0.2,0.3,0.7,0.4,1.3,0.4c0.4,0,0.7-0.1,0.9-0.2s0.3-0.3,0.3-0.5
			c0-0.2-0.1-0.4-0.3-0.5s-0.9-0.3-2-0.6c-0.8-0.2-1.4-0.5-1.8-0.8c-0.3-0.3-0.5-0.8-0.5-1.3c0-0.7,0.3-1.3,0.8-1.8
			c0.5-0.5,1.3-0.7,2.3-0.7c0.9,0,1.7,0.2,2.3,0.6c0.6,0.4,0.9,1,1,1.9H248c0-0.3-0.1-0.4-0.2-0.6c-0.2-0.3-0.6-0.4-1.1-0.4
			c-0.4,0-0.7,0.1-0.9,0.2c-0.2,0.1-0.3,0.3-0.3,0.5c0,0.2,0.1,0.4,0.3,0.5c0.2,0.1,0.9,0.3,2,0.5c0.8,0.2,1.4,0.5,1.7,0.8
			c0.4,0.4,0.6,0.8,0.6,1.4c0,0.7-0.3,1.3-0.8,1.8c-0.6,0.5-1.4,0.7-2.6,0.7c-1.2,0-2-0.2-2.6-0.7c-0.6-0.5-0.8-1.1-0.8-1.9H245.3z"
			/>
		<path class="st0" d="M262.1,83.8c0.4,0.2,0.7,0.4,0.9,0.7c0.2,0.3,0.4,0.5,0.5,0.8c0.1,0.3,0.2,0.7,0.2,1.1c0,0.5-0.1,0.9-0.4,1.4
			s-0.6,0.8-1.2,1c0.5,0.2,0.8,0.5,1,0.8s0.3,0.9,0.3,1.6v0.7c0,0.5,0,0.8,0.1,0.9c0.1,0.3,0.2,0.5,0.4,0.6v0.3h-2.3
			c-0.1-0.2-0.1-0.4-0.1-0.5c-0.1-0.3-0.1-0.6-0.1-0.9l0-0.9c0-0.6-0.1-1.1-0.3-1.3s-0.6-0.3-1.2-0.3h-2.1v4h-2.1V83.6h4.8
			C261.2,83.6,261.7,83.7,262.1,83.8z M257.7,85.3V88h2.3c0.4,0,0.8-0.1,1-0.2c0.4-0.2,0.6-0.6,0.6-1.1c0-0.6-0.2-1-0.6-1.2
			c-0.2-0.1-0.5-0.2-1-0.2H257.7z"/>
		<path class="st0" d="M270.5,86.4c0.5,0.2,0.9,0.6,1.3,1.1c0.3,0.4,0.5,1,0.6,1.5c0.1,0.3,0.1,0.8,0.1,1.5H267
			c0,0.7,0.3,1.3,0.8,1.6c0.3,0.2,0.7,0.3,1.1,0.3c0.4,0,0.8-0.1,1.1-0.3c0.2-0.1,0.3-0.3,0.4-0.5h2c-0.1,0.4-0.3,0.9-0.7,1.3
			c-0.7,0.7-1.6,1.1-2.8,1.1c-1,0-1.9-0.3-2.6-0.9c-0.8-0.6-1.1-1.6-1.1-3c0-1.3,0.3-2.3,1-3c0.7-0.7,1.6-1,2.7-1
			C269.3,86,269.9,86.1,270.5,86.4z M267.5,88c-0.3,0.3-0.4,0.7-0.5,1.2h3.4c0-0.5-0.2-0.9-0.5-1.2c-0.3-0.3-0.7-0.4-1.2-0.4
			C268.2,87.6,267.8,87.8,267.5,88z"/>
		<path class="st0" d="M277.1,86.2c0.5,0.2,0.9,0.6,1.1,1.1v-1.1h1.9v7.1c0,1-0.2,1.7-0.5,2.2c-0.6,0.8-1.6,1.3-3.2,1.3
			c-1,0-1.7-0.2-2.3-0.6s-0.9-0.9-1-1.7h2.1c0.1,0.2,0.1,0.4,0.3,0.5c0.2,0.2,0.6,0.3,1.1,0.3c0.7,0,1.2-0.2,1.4-0.7
			c0.2-0.3,0.2-0.8,0.2-1.5v-0.5c-0.2,0.3-0.4,0.6-0.6,0.7c-0.4,0.3-0.9,0.4-1.5,0.4c-1,0-1.7-0.3-2.3-1s-0.9-1.6-0.9-2.7
			c0-1.1,0.3-2,0.8-2.8s1.3-1.1,2.3-1.1C276.5,86,276.8,86.1,277.1,86.2z M277.7,91.5c0.3-0.3,0.5-0.9,0.5-1.6
			c0-0.7-0.1-1.2-0.4-1.6s-0.7-0.6-1.2-0.6c-0.7,0-1.2,0.3-1.4,1c-0.1,0.3-0.2,0.8-0.2,1.3c0,0.4,0.1,0.8,0.2,1.2
			c0.3,0.6,0.7,0.9,1.4,0.9C277,92.1,277.4,91.9,277.7,91.5z"/>
		<path class="st0" d="M283.9,85.3h-2v-1.8h2V85.3z M282,86.2h2v7.5h-2V86.2z"/>
		<path class="st0" d="M287.3,91.3c0,0.3,0.1,0.6,0.3,0.7c0.2,0.3,0.7,0.4,1.3,0.4c0.4,0,0.7-0.1,0.9-0.2s0.3-0.3,0.3-0.5
			c0-0.2-0.1-0.4-0.3-0.5s-0.9-0.3-2-0.6c-0.8-0.2-1.4-0.5-1.8-0.8c-0.3-0.3-0.5-0.8-0.5-1.3c0-0.7,0.3-1.3,0.8-1.8
			c0.5-0.5,1.3-0.7,2.3-0.7c0.9,0,1.7,0.2,2.3,0.6c0.6,0.4,0.9,1,1,1.9H290c0-0.3-0.1-0.4-0.2-0.6c-0.2-0.3-0.6-0.4-1.1-0.4
			c-0.4,0-0.7,0.1-0.9,0.2c-0.2,0.1-0.3,0.3-0.3,0.5c0,0.2,0.1,0.4,0.3,0.5c0.2,0.1,0.9,0.3,2,0.5c0.8,0.2,1.4,0.5,1.7,0.8
			c0.4,0.4,0.6,0.8,0.6,1.4c0,0.7-0.3,1.3-0.8,1.8c-0.6,0.5-1.4,0.7-2.6,0.7c-1.2,0-2-0.2-2.6-0.7c-0.6-0.5-0.8-1.1-0.8-1.9H287.3z"
			/>
		<path class="st0" d="M292.8,87.7v-1.4h1v-2.1h1.9v2.1h1.2v1.4h-1.2v3.9c0,0.3,0,0.5,0.1,0.6s0.3,0.1,0.7,0.1c0.1,0,0.1,0,0.2,0
			s0.1,0,0.2,0v1.5l-0.9,0c-0.9,0-1.5-0.1-1.9-0.5c-0.2-0.2-0.3-0.6-0.3-1v-4.6H292.8z"/>
		<path class="st0" d="M303.1,86.4c0.5,0.2,0.9,0.6,1.3,1.1c0.3,0.4,0.5,1,0.6,1.5c0.1,0.3,0.1,0.8,0.1,1.5h-5.4
			c0,0.7,0.3,1.3,0.8,1.6c0.3,0.2,0.7,0.3,1.1,0.3c0.4,0,0.8-0.1,1.1-0.3c0.2-0.1,0.3-0.3,0.4-0.5h2c-0.1,0.4-0.3,0.9-0.7,1.3
			c-0.7,0.7-1.6,1.1-2.8,1.1c-1,0-1.9-0.3-2.6-0.9c-0.8-0.6-1.1-1.6-1.1-3c0-1.3,0.3-2.3,1-3c0.7-0.7,1.6-1,2.7-1
			C302,86,302.6,86.1,303.1,86.4z M300.2,88c-0.3,0.3-0.4,0.7-0.5,1.2h3.4c0-0.5-0.2-0.9-0.5-1.2c-0.3-0.3-0.7-0.4-1.2-0.4
			C300.9,87.6,300.5,87.8,300.2,88z"/>
		<path class="st0" d="M310.2,86c0,0,0.1,0,0.2,0v2c-0.1,0-0.2,0-0.3,0s-0.2,0-0.2,0c-0.8,0-1.3,0.3-1.6,0.8
			c-0.2,0.3-0.2,0.7-0.2,1.3v3.6h-2v-7.5h1.9v1.3c0.3-0.5,0.6-0.8,0.8-1C309,86.2,309.5,86,310.2,86C310.1,86,310.2,86,310.2,86z"/>
	</g>
</g>
<g>
	<rect x="129.1" y="134" class="st1" width="218.6" height="149"/>
	<path class="st2" d="M130,134h6.2v1.5h-4.4v2h3.8v1.5h-3.8v3.6H130V134z"/>
	<path class="st2" d="M138.9,135.5h-1.7v-1.5h1.7V135.5z M137.2,136.2h1.7v6.4h-1.7V136.2z"/>
	<path class="st2" d="M144.1,136.1c0,0,0.1,0,0.1,0v1.7c-0.1,0-0.2,0-0.3,0s-0.1,0-0.2,0c-0.7,0-1.1,0.2-1.4,0.7
		c-0.1,0.2-0.2,0.6-0.2,1.1v3.1h-1.7v-6.4h1.6v1.1c0.3-0.4,0.5-0.7,0.7-0.9C143.1,136.2,143.5,136.1,144.1,136.1
		C144.1,136.1,144.1,136.1,144.1,136.1z"/>
	<path class="st2" d="M146.5,140.6c0,0.3,0.1,0.5,0.2,0.6c0.2,0.2,0.6,0.3,1.2,0.3c0.3,0,0.6,0,0.8-0.1s0.3-0.2,0.3-0.4
		c0-0.2-0.1-0.3-0.2-0.4c-0.2-0.1-0.7-0.3-1.7-0.5c-0.7-0.2-1.2-0.4-1.5-0.7c-0.3-0.3-0.4-0.6-0.4-1.1c0-0.6,0.2-1.1,0.7-1.5
		s1.1-0.6,2-0.6c0.8,0,1.4,0.2,2,0.5s0.8,0.9,0.9,1.6h-1.7c0-0.2-0.1-0.4-0.2-0.5c-0.2-0.2-0.5-0.3-0.9-0.3c-0.4,0-0.6,0.1-0.8,0.2
		s-0.2,0.2-0.2,0.4c0,0.2,0.1,0.3,0.2,0.4c0.2,0.1,0.7,0.2,1.7,0.5c0.7,0.2,1.2,0.4,1.5,0.7c0.3,0.3,0.5,0.7,0.5,1.2
		c0,0.6-0.2,1.1-0.7,1.5s-1.2,0.6-2.2,0.6c-1,0-1.7-0.2-2.2-0.6s-0.7-1-0.7-1.6H146.5z"/>
	<path class="st2" d="M151.2,137.5v-1.2h0.9v-1.8h1.7v1.8h1v1.2h-1v3.4c0,0.3,0,0.4,0.1,0.5s0.3,0.1,0.6,0.1c0.1,0,0.1,0,0.2,0
		s0.1,0,0.2,0v1.2l-0.8,0c-0.8,0-1.3-0.1-1.6-0.4c-0.2-0.2-0.3-0.5-0.3-0.9v-3.9H151.2z"/>
	<path class="st2" d="M164.4,136.6c0.4,0.3,0.6,0.9,0.6,1.7v4.3h-1.7v-3.9c0-0.3,0-0.6-0.1-0.8c-0.2-0.3-0.5-0.5-0.9-0.5
		c-0.6,0-0.9,0.2-1.2,0.7c-0.1,0.3-0.2,0.6-0.2,1v3.5h-1.7v-6.4h1.6v0.9c0.2-0.3,0.4-0.6,0.6-0.7c0.3-0.3,0.8-0.4,1.3-0.4
		C163.4,136.1,164,136.2,164.4,136.6z"/>
	<path class="st2" d="M169.1,138.7c0.3,0,0.5-0.1,0.7-0.1c0.2-0.1,0.4-0.3,0.4-0.5c0-0.3-0.1-0.4-0.3-0.5s-0.5-0.1-0.8-0.1
		c-0.4,0-0.7,0.1-0.8,0.3c-0.1,0.1-0.2,0.3-0.2,0.6h-1.6c0-0.6,0.2-1,0.5-1.4c0.4-0.6,1.2-0.8,2.3-0.8c0.7,0,1.3,0.1,1.9,0.4
		s0.8,0.8,0.8,1.6v2.9c0,0.2,0,0.4,0,0.7c0,0.2,0,0.4,0.1,0.4s0.1,0.1,0.2,0.2v0.2h-1.8c-0.1-0.1-0.1-0.2-0.1-0.4s0-0.2,0-0.4
		c-0.2,0.2-0.5,0.5-0.8,0.6c-0.4,0.2-0.8,0.3-1.2,0.3c-0.6,0-1.1-0.2-1.4-0.5c-0.4-0.3-0.6-0.8-0.6-1.4c0-0.8,0.3-1.4,0.9-1.7
		c0.3-0.2,0.8-0.3,1.5-0.4L169.1,138.7z M170.1,139.5c-0.1,0.1-0.2,0.1-0.3,0.2s-0.3,0.1-0.4,0.1l-0.4,0.1c-0.4,0.1-0.6,0.1-0.8,0.2
		c-0.3,0.2-0.4,0.4-0.4,0.7c0,0.3,0.1,0.5,0.2,0.6c0.2,0.1,0.4,0.2,0.6,0.2c0.4,0,0.7-0.1,1-0.3s0.5-0.6,0.5-1.2V139.5z"/>
	<path class="st2" d="M181.2,136.2c0.3,0.1,0.5,0.3,0.7,0.6c0.2,0.2,0.3,0.5,0.4,0.8c0,0.2,0.1,0.5,0.1,0.9l0,4h-1.7v-4.1
		c0-0.2,0-0.4-0.1-0.6c-0.1-0.3-0.4-0.4-0.8-0.4c-0.5,0-0.8,0.2-1,0.6c-0.1,0.2-0.1,0.4-0.1,0.7v3.8h-1.7v-3.8c0-0.4,0-0.7-0.1-0.8
		c-0.1-0.3-0.4-0.5-0.8-0.5c-0.5,0-0.8,0.2-1,0.5c-0.1,0.2-0.1,0.4-0.1,0.8v3.8h-1.7v-6.4h1.6v0.9c0.2-0.3,0.4-0.6,0.6-0.7
		c0.3-0.2,0.7-0.4,1.3-0.4c0.5,0,0.9,0.1,1.2,0.3c0.2,0.2,0.4,0.5,0.6,0.8c0.2-0.4,0.5-0.7,0.8-0.8c0.3-0.2,0.7-0.3,1.1-0.3
		C180.7,136.1,180.9,136.1,181.2,136.2z"/>
	<path class="st2" d="M188.1,136.4c0.4,0.2,0.8,0.5,1.1,0.9c0.3,0.4,0.4,0.8,0.5,1.3c0,0.3,0.1,0.7,0.1,1.3h-4.7
		c0,0.6,0.2,1.1,0.7,1.3c0.3,0.2,0.6,0.2,0.9,0.2c0.4,0,0.7-0.1,0.9-0.3c0.1-0.1,0.2-0.3,0.3-0.4h1.7c0,0.4-0.3,0.8-0.6,1.2
		c-0.6,0.6-1.4,0.9-2.4,0.9c-0.9,0-1.6-0.3-2.2-0.8s-1-1.4-1-2.6c0-1.1,0.3-2,0.9-2.5s1.3-0.9,2.3-0.9
		C187.1,136.1,187.6,136.2,188.1,136.4z M185.6,137.8c-0.2,0.2-0.4,0.6-0.4,1h2.9c0-0.4-0.2-0.8-0.4-1s-0.6-0.3-1-0.3
		C186.1,137.4,185.8,137.6,185.6,137.8z"/>
	<path class="st2" d="M130,155h1.8v7.1h4.3v1.6H130V155z"/>
	<path class="st2" d="M139.8,159.7c0.3,0,0.5-0.1,0.7-0.1c0.2-0.1,0.4-0.3,0.4-0.5c0-0.3-0.1-0.4-0.3-0.5s-0.5-0.1-0.8-0.1
		c-0.4,0-0.7,0.1-0.8,0.3c-0.1,0.1-0.2,0.3-0.2,0.6H137c0-0.6,0.2-1,0.5-1.4c0.4-0.6,1.2-0.8,2.3-0.8c0.7,0,1.3,0.1,1.9,0.4
		s0.8,0.8,0.8,1.6v2.9c0,0.2,0,0.4,0,0.7c0,0.2,0,0.4,0.1,0.4s0.1,0.1,0.2,0.2v0.2H141c-0.1-0.1-0.1-0.2-0.1-0.4s0-0.2,0-0.4
		c-0.2,0.2-0.5,0.5-0.8,0.6c-0.4,0.2-0.8,0.3-1.2,0.3c-0.6,0-1.1-0.2-1.4-0.5c-0.4-0.3-0.6-0.8-0.6-1.4c0-0.8,0.3-1.4,0.9-1.7
		c0.3-0.2,0.8-0.3,1.5-0.4L139.8,159.7z M140.8,160.5c-0.1,0.1-0.2,0.1-0.3,0.2s-0.3,0.1-0.4,0.1l-0.4,0.1c-0.4,0.1-0.6,0.1-0.8,0.2
		c-0.3,0.2-0.4,0.4-0.4,0.7c0,0.3,0.1,0.5,0.2,0.6c0.2,0.1,0.4,0.2,0.6,0.2c0.4,0,0.7-0.1,1-0.3s0.5-0.6,0.5-1.2V160.5z"/>
	<path class="st2" d="M145.2,161.6c0,0.3,0.1,0.5,0.2,0.6c0.2,0.2,0.6,0.3,1.2,0.3c0.3,0,0.6,0,0.8-0.1s0.3-0.2,0.3-0.4
		c0-0.2-0.1-0.3-0.2-0.4c-0.2-0.1-0.7-0.3-1.7-0.5c-0.7-0.2-1.2-0.4-1.5-0.7c-0.3-0.3-0.4-0.6-0.4-1.1c0-0.6,0.2-1.1,0.7-1.5
		s1.1-0.6,2-0.6c0.8,0,1.4,0.2,2,0.5s0.8,0.9,0.9,1.6h-1.7c0-0.2-0.1-0.4-0.2-0.5c-0.2-0.2-0.5-0.3-0.9-0.3c-0.4,0-0.6,0.1-0.8,0.2
		s-0.2,0.2-0.2,0.4c0,0.2,0.1,0.3,0.2,0.4c0.2,0.1,0.7,0.2,1.7,0.5c0.7,0.2,1.2,0.4,1.5,0.7c0.3,0.3,0.5,0.7,0.5,1.2
		c0,0.6-0.2,1.1-0.7,1.5s-1.2,0.6-2.2,0.6c-1,0-1.7-0.2-2.2-0.6s-0.7-1-0.7-1.6H145.2z"/>
	<path class="st2" d="M149.9,158.5v-1.2h0.9v-1.8h1.7v1.8h1v1.2h-1v3.4c0,0.3,0,0.4,0.1,0.5s0.3,0.1,0.6,0.1c0.1,0,0.1,0,0.2,0
		s0.1,0,0.2,0v1.2l-0.8,0c-0.8,0-1.3-0.1-1.6-0.4c-0.2-0.2-0.3-0.5-0.3-0.9v-3.9H149.9z"/>
	<path class="st2" d="M163.1,157.6c0.4,0.3,0.6,0.9,0.6,1.7v4.3H162v-3.9c0-0.3,0-0.6-0.1-0.8c-0.2-0.3-0.5-0.5-0.9-0.5
		c-0.6,0-0.9,0.2-1.2,0.7c-0.1,0.3-0.2,0.6-0.2,1v3.5h-1.7v-6.4h1.6v0.9c0.2-0.3,0.4-0.6,0.6-0.7c0.3-0.3,0.8-0.4,1.3-0.4
		C162.1,157.1,162.6,157.2,163.1,157.6z"/>
	<path class="st2" d="M167.8,159.7c0.3,0,0.5-0.1,0.7-0.1c0.2-0.1,0.4-0.3,0.4-0.5c0-0.3-0.1-0.4-0.3-0.5s-0.5-0.1-0.8-0.1
		c-0.4,0-0.7,0.1-0.8,0.3c-0.1,0.1-0.2,0.3-0.2,0.6H165c0-0.6,0.2-1,0.5-1.4c0.4-0.6,1.2-0.8,2.3-0.8c0.7,0,1.3,0.1,1.9,0.4
		s0.8,0.8,0.8,1.6v2.9c0,0.2,0,0.4,0,0.7c0,0.2,0,0.4,0.1,0.4s0.1,0.1,0.2,0.2v0.2H169c-0.1-0.1-0.1-0.2-0.1-0.4s0-0.2,0-0.4
		c-0.2,0.2-0.5,0.5-0.8,0.6c-0.4,0.2-0.8,0.3-1.2,0.3c-0.6,0-1.1-0.2-1.4-0.5c-0.4-0.3-0.6-0.8-0.6-1.4c0-0.8,0.3-1.4,0.9-1.7
		c0.3-0.2,0.8-0.3,1.5-0.4L167.8,159.7z M168.8,160.5c-0.1,0.1-0.2,0.1-0.3,0.2s-0.3,0.1-0.4,0.1l-0.4,0.1c-0.4,0.1-0.6,0.1-0.8,0.2
		c-0.3,0.2-0.4,0.4-0.4,0.7c0,0.3,0.1,0.5,0.2,0.6c0.2,0.1,0.4,0.2,0.6,0.2c0.4,0,0.7-0.1,1-0.3s0.5-0.6,0.5-1.2V160.5z"/>
	<path class="st2" d="M179.9,157.2c0.3,0.1,0.5,0.3,0.7,0.6c0.2,0.2,0.3,0.5,0.4,0.8c0,0.2,0.1,0.5,0.1,0.9l0,4h-1.7v-4.1
		c0-0.2,0-0.4-0.1-0.6c-0.1-0.3-0.4-0.4-0.8-0.4c-0.5,0-0.8,0.2-1,0.6c-0.1,0.2-0.1,0.4-0.1,0.7v3.8h-1.7v-3.8c0-0.4,0-0.7-0.1-0.8
		c-0.1-0.3-0.4-0.5-0.8-0.5c-0.5,0-0.8,0.2-1,0.5c-0.1,0.2-0.1,0.4-0.1,0.8v3.8h-1.7v-6.4h1.6v0.9c0.2-0.3,0.4-0.6,0.6-0.7
		c0.3-0.2,0.7-0.4,1.3-0.4c0.5,0,0.9,0.1,1.2,0.3c0.2,0.2,0.4,0.5,0.6,0.8c0.2-0.4,0.5-0.7,0.8-0.8c0.3-0.2,0.7-0.3,1.1-0.3
		C179.3,157.1,179.6,157.1,179.9,157.2z"/>
	<path class="st2" d="M186.7,157.4c0.4,0.2,0.8,0.5,1.1,0.9c0.3,0.4,0.4,0.8,0.5,1.3c0,0.3,0.1,0.7,0.1,1.3h-4.7
		c0,0.6,0.2,1.1,0.7,1.3c0.3,0.2,0.6,0.2,0.9,0.2c0.4,0,0.7-0.1,0.9-0.3c0.1-0.1,0.2-0.3,0.3-0.4h1.7c0,0.4-0.3,0.8-0.6,1.2
		c-0.6,0.6-1.4,0.9-2.4,0.9c-0.9,0-1.6-0.3-2.2-0.8s-1-1.4-1-2.6c0-1.1,0.3-2,0.9-2.5s1.3-0.9,2.3-0.9
		C185.8,157.1,186.3,157.2,186.7,157.4z M184.2,158.8c-0.2,0.2-0.4,0.6-0.4,1h2.9c0-0.4-0.2-0.8-0.4-1s-0.6-0.3-1-0.3
		C184.8,158.4,184.5,158.6,184.2,158.8z"/>
	<path class="st2" d="M132.5,176h2l3.1,8.6h-2l-0.6-1.8h-3.2l-0.6,1.8h-1.9L132.5,176z M132.4,181.3h2.2l-1.1-3.4L132.4,181.3z"/>
	<path class="st2" d="M141.9,178.3c0.3,0.2,0.5,0.4,0.7,0.7v-3h1.7v8.6h-1.6v-0.9c-0.2,0.4-0.5,0.7-0.8,0.8s-0.7,0.3-1.1,0.3
		c-0.7,0-1.4-0.3-1.9-0.9s-0.8-1.4-0.8-2.3c0-1.1,0.3-1.9,0.8-2.6s1.2-0.9,2-0.9C141.3,178.1,141.6,178.2,141.9,178.3z M142.4,182.9
		c0.2-0.4,0.4-0.8,0.4-1.4c0-0.8-0.2-1.3-0.6-1.7c-0.2-0.2-0.5-0.3-0.8-0.3c-0.5,0-0.8,0.2-1.1,0.6s-0.3,0.8-0.3,1.4
		c0,0.6,0.1,1.1,0.3,1.4s0.6,0.5,1.1,0.5S142.1,183.2,142.4,182.9z"/>
	<path class="st2" d="M149.3,178.3c0.3,0.2,0.5,0.4,0.7,0.7v-3h1.7v8.6h-1.6v-0.9c-0.2,0.4-0.5,0.7-0.8,0.8s-0.7,0.3-1.1,0.3
		c-0.7,0-1.4-0.3-1.9-0.9s-0.8-1.4-0.8-2.3c0-1.1,0.3-1.9,0.8-2.6s1.2-0.9,2-0.9C148.6,178.1,149,178.2,149.3,178.3z M149.7,182.9
		c0.2-0.4,0.4-0.8,0.4-1.4c0-0.8-0.2-1.3-0.6-1.7c-0.2-0.2-0.5-0.3-0.8-0.3c-0.5,0-0.8,0.2-1.1,0.6s-0.3,0.8-0.3,1.4
		c0,0.6,0.1,1.1,0.3,1.4s0.6,0.5,1.1,0.5S149.4,183.2,149.7,182.9z"/>
	<path class="st2" d="M156.8,178.1c0,0,0.1,0,0.1,0v1.7c-0.1,0-0.2,0-0.3,0s-0.1,0-0.2,0c-0.7,0-1.1,0.2-1.4,0.7
		c-0.1,0.2-0.2,0.6-0.2,1.1v3.1h-1.7v-6.4h1.6v1.1c0.3-0.4,0.5-0.7,0.7-0.9C155.8,178.2,156.2,178.1,156.8,178.1
		C156.7,178.1,156.7,178.1,156.8,178.1z"/>
	<path class="st2" d="M162.1,178.4c0.4,0.2,0.8,0.5,1.1,0.9c0.3,0.4,0.4,0.8,0.5,1.3c0,0.3,0.1,0.7,0.1,1.3h-4.7
		c0,0.6,0.2,1.1,0.7,1.3c0.3,0.2,0.6,0.2,0.9,0.2c0.4,0,0.7-0.1,0.9-0.3c0.1-0.1,0.2-0.3,0.3-0.4h1.7c0,0.4-0.3,0.8-0.6,1.2
		c-0.6,0.6-1.4,0.9-2.4,0.9c-0.9,0-1.6-0.3-2.2-0.8s-1-1.4-1-2.6c0-1.1,0.3-2,0.9-2.5s1.3-0.9,2.3-0.9
		C161.1,178.1,161.6,178.2,162.1,178.4z M159.6,179.8c-0.2,0.2-0.4,0.6-0.4,1h2.9c0-0.4-0.2-0.8-0.4-1s-0.6-0.3-1-0.3
		C160.1,179.4,159.8,179.6,159.6,179.8z"/>
	<path class="st2" d="M165.9,182.6c0,0.3,0.1,0.5,0.2,0.6c0.2,0.2,0.6,0.3,1.2,0.3c0.3,0,0.6,0,0.8-0.1s0.3-0.2,0.3-0.4
		c0-0.2-0.1-0.3-0.2-0.4c-0.2-0.1-0.7-0.3-1.7-0.5c-0.7-0.2-1.2-0.4-1.5-0.7c-0.3-0.3-0.4-0.6-0.4-1.1c0-0.6,0.2-1.1,0.7-1.5
		s1.1-0.6,2-0.6c0.8,0,1.4,0.2,2,0.5s0.8,0.9,0.9,1.6h-1.7c0-0.2-0.1-0.4-0.2-0.5c-0.2-0.2-0.5-0.3-0.9-0.3c-0.4,0-0.6,0.1-0.8,0.2
		s-0.2,0.2-0.2,0.4c0,0.2,0.1,0.3,0.2,0.4c0.2,0.1,0.7,0.2,1.7,0.5c0.7,0.2,1.2,0.4,1.5,0.7c0.3,0.3,0.5,0.7,0.5,1.2
		c0,0.6-0.2,1.1-0.7,1.5s-1.2,0.6-2.2,0.6c-1,0-1.7-0.2-2.2-0.6s-0.7-1-0.7-1.6H165.9z"/>
	<path class="st2" d="M172.5,182.6c0,0.3,0.1,0.5,0.2,0.6c0.2,0.2,0.6,0.3,1.2,0.3c0.3,0,0.6,0,0.8-0.1s0.3-0.2,0.3-0.4
		c0-0.2-0.1-0.3-0.2-0.4c-0.2-0.1-0.7-0.3-1.7-0.5c-0.7-0.2-1.2-0.4-1.5-0.7c-0.3-0.3-0.4-0.6-0.4-1.1c0-0.6,0.2-1.1,0.7-1.5
		s1.1-0.6,2-0.6c0.8,0,1.4,0.2,2,0.5s0.8,0.9,0.9,1.6h-1.7c0-0.2-0.1-0.4-0.2-0.5c-0.2-0.2-0.5-0.3-0.9-0.3c-0.4,0-0.6,0.1-0.8,0.2
		s-0.2,0.2-0.2,0.4c0,0.2,0.1,0.3,0.2,0.4c0.2,0.1,0.7,0.2,1.7,0.5c0.7,0.2,1.2,0.4,1.5,0.7c0.3,0.3,0.5,0.7,0.5,1.2
		c0,0.6-0.2,1.1-0.7,1.5s-1.2,0.6-2.2,0.6c-1,0-1.7-0.2-2.2-0.6s-0.7-1-0.7-1.6H172.5z"/>
	<path class="st2" d="M135.8,201.9c-0.5,0.4-1.2,0.6-2.2,0.6h-1.8v3.1h-1.8V197h3.7c0.9,0,1.5,0.2,2,0.7c0.5,0.4,0.8,1.1,0.8,2.1
		C136.6,200.7,136.3,201.4,135.8,201.9z M134.5,198.8c-0.2-0.2-0.5-0.3-1-0.3h-1.6v2.5h1.6c0.4,0,0.7-0.1,1-0.3s0.3-0.5,0.3-1
		S134.7,199,134.5,198.8z"/>
	<path class="st2" d="M143.2,204.8c-0.5,0.7-1.4,1-2.5,1s-1.9-0.3-2.5-1s-0.8-1.5-0.8-2.4c0-0.9,0.3-1.7,0.8-2.4
		c0.5-0.7,1.4-1,2.5-1s1.9,0.3,2.5,1c0.5,0.7,0.8,1.5,0.8,2.4C144,203.4,143.8,204.2,143.2,204.8z M141.9,203.9
		c0.3-0.3,0.4-0.8,0.4-1.5s-0.1-1.1-0.4-1.5c-0.3-0.3-0.6-0.5-1.1-0.5s-0.9,0.2-1.1,0.5c-0.3,0.3-0.4,0.8-0.4,1.5s0.1,1.1,0.4,1.5
		s0.6,0.5,1.1,0.5S141.6,204.3,141.9,203.9z"/>
	<path class="st2" d="M146.5,203.6c0,0.3,0.1,0.5,0.2,0.6c0.2,0.2,0.6,0.3,1.2,0.3c0.3,0,0.6,0,0.8-0.1s0.3-0.2,0.3-0.4
		c0-0.2-0.1-0.3-0.2-0.4c-0.2-0.1-0.7-0.3-1.7-0.5c-0.7-0.2-1.2-0.4-1.5-0.7c-0.3-0.3-0.4-0.6-0.4-1.1c0-0.6,0.2-1.1,0.7-1.5
		s1.1-0.6,2-0.6c0.8,0,1.4,0.2,2,0.5s0.8,0.9,0.9,1.6h-1.7c0-0.2-0.1-0.4-0.2-0.5c-0.2-0.2-0.5-0.3-0.9-0.3c-0.4,0-0.6,0.1-0.8,0.2
		s-0.2,0.2-0.2,0.4c0,0.2,0.1,0.3,0.2,0.4c0.2,0.1,0.7,0.2,1.7,0.5c0.7,0.2,1.2,0.4,1.5,0.7c0.3,0.3,0.5,0.7,0.5,1.2
		c0,0.6-0.2,1.1-0.7,1.5s-1.2,0.6-2.2,0.6c-1,0-1.7-0.2-2.2-0.6s-0.7-1-0.7-1.6H146.5z"/>
	<path class="st2" d="M151.2,200.5v-1.2h0.9v-1.8h1.7v1.8h1v1.2h-1v3.4c0,0.3,0,0.4,0.1,0.5s0.3,0.1,0.6,0.1c0.1,0,0.1,0,0.2,0
		s0.1,0,0.2,0v1.2l-0.8,0c-0.8,0-1.3-0.1-1.6-0.4c-0.2-0.2-0.3-0.5-0.3-0.9v-3.9H151.2z"/>
	<path class="st2" d="M159.7,201.5c0-0.2-0.1-0.5-0.2-0.6c-0.2-0.3-0.5-0.4-0.9-0.4c-0.6,0-0.9,0.3-1.2,0.8
		c-0.1,0.3-0.2,0.7-0.2,1.2c0,0.5,0.1,0.8,0.2,1.1c0.2,0.5,0.6,0.8,1.1,0.8c0.4,0,0.7-0.1,0.8-0.3c0.2-0.2,0.3-0.5,0.3-0.8h1.7
		c0,0.5-0.2,1-0.6,1.4c-0.5,0.7-1.3,1.1-2.3,1.1s-1.8-0.3-2.3-0.9c-0.5-0.6-0.7-1.4-0.7-2.4c0-1.1,0.3-1.9,0.8-2.6
		c0.5-0.6,1.3-0.9,2.2-0.9c0.8,0,1.5,0.2,2,0.5s0.8,1,0.9,1.9H159.7z"/>
	<path class="st2" d="M167.9,204.8c-0.5,0.7-1.4,1-2.5,1s-1.9-0.3-2.5-1s-0.8-1.5-0.8-2.4c0-0.9,0.3-1.7,0.8-2.4
		c0.5-0.7,1.4-1,2.5-1s1.9,0.3,2.5,1c0.5,0.7,0.8,1.5,0.8,2.4C168.7,203.4,168.4,204.2,167.9,204.8z M166.6,203.9
		c0.3-0.3,0.4-0.8,0.4-1.5s-0.1-1.1-0.4-1.5c-0.3-0.3-0.6-0.5-1.1-0.5s-0.9,0.2-1.1,0.5c-0.3,0.3-0.4,0.8-0.4,1.5s0.1,1.1,0.4,1.5
		s0.6,0.5,1.1,0.5S166.3,204.3,166.6,203.9z"/>
	<path class="st2" d="M173.3,199.3c0.3,0.2,0.5,0.4,0.7,0.7v-3h1.7v8.6h-1.6v-0.9c-0.2,0.4-0.5,0.7-0.8,0.8s-0.7,0.3-1.1,0.3
		c-0.7,0-1.4-0.3-1.9-0.9s-0.8-1.4-0.8-2.3c0-1.1,0.3-1.9,0.8-2.6s1.2-0.9,2-0.9C172.6,199.1,173,199.2,173.3,199.3z M173.7,203.9
		c0.2-0.4,0.4-0.8,0.4-1.4c0-0.8-0.2-1.3-0.6-1.7c-0.2-0.2-0.5-0.3-0.8-0.3c-0.5,0-0.8,0.2-1.1,0.6s-0.3,0.8-0.3,1.4
		c0,0.6,0.1,1.1,0.3,1.4s0.6,0.5,1.1,0.5S173.5,204.2,173.7,203.9z"/>
	<path class="st2" d="M181.4,199.4c0.4,0.2,0.8,0.5,1.1,0.9c0.3,0.4,0.4,0.8,0.5,1.3c0,0.3,0.1,0.7,0.1,1.3h-4.7
		c0,0.6,0.2,1.1,0.7,1.3c0.3,0.2,0.6,0.2,0.9,0.2c0.4,0,0.7-0.1,0.9-0.3c0.1-0.1,0.2-0.3,0.3-0.4h1.7c0,0.4-0.3,0.8-0.6,1.2
		c-0.6,0.6-1.4,0.9-2.4,0.9c-0.9,0-1.6-0.3-2.2-0.8s-1-1.4-1-2.6c0-1.1,0.3-2,0.9-2.5s1.3-0.9,2.3-0.9
		C180.4,199.1,180.9,199.2,181.4,199.4z M178.9,200.8c-0.2,0.2-0.4,0.6-0.4,1h2.9c0-0.4-0.2-0.8-0.4-1s-0.6-0.3-1-0.3
		C179.5,200.4,179.1,200.6,178.9,200.8z"/>
	<path class="st2" d="M135.8,220.7c-0.1-0.6-0.5-1-1-1.2c-0.3-0.1-0.6-0.2-1-0.2c-0.7,0-1.3,0.3-1.7,0.8s-0.7,1.3-0.7,2.4
		c0,1.1,0.2,1.8,0.7,2.3s1,0.7,1.7,0.7c0.6,0,1.1-0.2,1.5-0.5s0.6-0.8,0.7-1.4h-2V222h3.6v4.6h-1.2l-0.2-1.1
		c-0.3,0.4-0.7,0.7-0.9,0.9c-0.5,0.3-1.1,0.4-1.8,0.4c-1.1,0-2.1-0.4-2.8-1.2c-0.8-0.8-1.1-1.9-1.1-3.3c0-1.4,0.4-2.5,1.2-3.4
		c0.8-0.8,1.8-1.3,3.1-1.3c1.1,0,2,0.3,2.6,0.8s1,1.3,1.1,2.1H135.8z"/>
	<path class="st2" d="M143.4,220.4c0.4,0.2,0.8,0.5,1.1,0.9c0.3,0.4,0.4,0.8,0.5,1.3c0,0.3,0.1,0.7,0.1,1.3h-4.7
		c0,0.6,0.2,1.1,0.7,1.3c0.3,0.2,0.6,0.2,0.9,0.2c0.4,0,0.7-0.1,0.9-0.3c0.1-0.1,0.2-0.3,0.3-0.4h1.7c0,0.4-0.3,0.8-0.6,1.2
		c-0.6,0.6-1.4,0.9-2.4,0.9c-0.9,0-1.6-0.3-2.2-0.8s-1-1.4-1-2.6c0-1.1,0.3-2,0.9-2.5c0.6-0.6,1.3-0.9,2.3-0.9
		C142.4,220.1,142.9,220.2,143.4,220.4z M140.9,221.8c-0.2,0.2-0.4,0.6-0.4,1h2.9c0-0.4-0.2-0.8-0.4-1s-0.6-0.3-1-0.3
		C141.5,221.4,141.1,221.6,140.9,221.8z"/>
	<path class="st2" d="M151.1,220.6c0.4,0.3,0.6,0.9,0.6,1.7v4.3H150v-3.9c0-0.3,0-0.6-0.1-0.8c-0.2-0.3-0.5-0.5-0.9-0.5
		c-0.6,0-0.9,0.2-1.2,0.7c-0.1,0.3-0.2,0.6-0.2,1v3.5h-1.7v-6.4h1.6v0.9c0.2-0.3,0.4-0.6,0.6-0.7c0.3-0.3,0.8-0.4,1.3-0.4
		C150.1,220.1,150.6,220.2,151.1,220.6z"/>
	<path class="st2" d="M156.6,220.3c0.3,0.2,0.5,0.4,0.7,0.7v-3h1.7v8.6h-1.6v-0.9c-0.2,0.4-0.5,0.7-0.8,0.8s-0.7,0.3-1.1,0.3
		c-0.7,0-1.4-0.3-1.9-0.9s-0.8-1.4-0.8-2.3c0-1.1,0.3-1.9,0.8-2.6s1.2-0.9,2-0.9C156,220.1,156.3,220.2,156.6,220.3z M157,224.9
		c0.2-0.4,0.4-0.8,0.4-1.4c0-0.8-0.2-1.3-0.6-1.7c-0.2-0.2-0.5-0.3-0.8-0.3c-0.5,0-0.8,0.2-1.1,0.6s-0.3,0.8-0.3,1.4
		c0,0.6,0.1,1.1,0.3,1.4s0.6,0.5,1.1,0.5S156.8,225.2,157,224.9z"/>
	<path class="st2" d="M164.7,220.4c0.4,0.2,0.8,0.5,1.1,0.9c0.3,0.4,0.4,0.8,0.5,1.3c0,0.3,0.1,0.7,0.1,1.3h-4.7
		c0,0.6,0.2,1.1,0.7,1.3c0.3,0.2,0.6,0.2,0.9,0.2c0.4,0,0.7-0.1,0.9-0.3c0.1-0.1,0.2-0.3,0.3-0.4h1.7c0,0.4-0.3,0.8-0.6,1.2
		c-0.6,0.6-1.4,0.9-2.4,0.9c-0.9,0-1.6-0.3-2.2-0.8s-1-1.4-1-2.6c0-1.1,0.3-2,0.9-2.5c0.6-0.6,1.3-0.9,2.3-0.9
		C163.8,220.1,164.3,220.2,164.7,220.4z M162.2,221.8c-0.2,0.2-0.4,0.6-0.4,1h2.9c0-0.4-0.2-0.8-0.4-1s-0.6-0.3-1-0.3
		C162.8,221.4,162.5,221.6,162.2,221.8z"/>
	<path class="st2" d="M170.8,220.1c0,0,0.1,0,0.1,0v1.7c-0.1,0-0.2,0-0.3,0s-0.1,0-0.2,0c-0.7,0-1.1,0.2-1.4,0.7
		c-0.1,0.2-0.2,0.6-0.2,1.1v3.1h-1.7v-6.4h1.6v1.1c0.3-0.4,0.5-0.7,0.7-0.9C169.8,220.2,170.2,220.1,170.8,220.1
		C170.7,220.1,170.8,220.1,170.8,220.1z"/>
	<path class="st2" d="M135.1,239.2c0.6,0.2,1.1,0.6,1.5,1.1c0.3,0.4,0.5,0.9,0.6,1.4c0.1,0.5,0.2,1,0.2,1.4c0,1.1-0.2,2.1-0.7,2.9
		c-0.6,1.1-1.6,1.6-2.9,1.6H130V239h3.7C134.3,239,134.7,239,135.1,239.2z M131.8,240.5v5.6h1.7c0.9,0,1.4-0.4,1.8-1.3
		c0.2-0.5,0.3-1,0.3-1.6c0-0.9-0.1-1.6-0.4-2c-0.3-0.5-0.8-0.7-1.6-0.7H131.8z"/>
	<path class="st2" d="M143.9,246.8c-0.5,0.7-1.4,1-2.5,1s-1.9-0.3-2.5-1c-0.5-0.7-0.8-1.5-0.8-2.4c0-0.9,0.3-1.7,0.8-2.4
		c0.5-0.7,1.4-1,2.5-1s1.9,0.3,2.5,1c0.5,0.7,0.8,1.5,0.8,2.4C144.7,245.4,144.4,246.2,143.9,246.8z M142.6,245.9
		c0.3-0.3,0.4-0.8,0.4-1.5c0-0.6-0.1-1.1-0.4-1.5c-0.3-0.3-0.6-0.5-1.1-0.5s-0.9,0.2-1.1,0.5c-0.3,0.3-0.4,0.8-0.4,1.5
		c0,0.6,0.1,1.1,0.4,1.5c0.3,0.3,0.6,0.5,1.1,0.5S142.3,246.3,142.6,245.9z"/>
	<path class="st2" d="M151,241.6c0.4,0.3,0.6,0.9,0.6,1.7v4.3H150v-3.9c0-0.3,0-0.6-0.1-0.8c-0.2-0.3-0.5-0.5-0.9-0.5
		c-0.6,0-0.9,0.2-1.2,0.7c-0.1,0.3-0.2,0.6-0.2,1v3.5h-1.7v-6.4h1.6v0.9c0.2-0.3,0.4-0.6,0.6-0.7c0.3-0.3,0.8-0.4,1.3-0.4
		C150.1,241.1,150.6,241.2,151,241.6z"/>
	<path class="st2" d="M155.8,243.7c0.3,0,0.5-0.1,0.7-0.1c0.2-0.1,0.4-0.3,0.4-0.5c0-0.3-0.1-0.4-0.3-0.5s-0.5-0.1-0.8-0.1
		c-0.4,0-0.7,0.1-0.8,0.3c-0.1,0.1-0.2,0.3-0.2,0.6H153c0-0.6,0.2-1,0.5-1.4c0.4-0.6,1.2-0.8,2.3-0.8c0.7,0,1.3,0.1,1.9,0.4
		s0.8,0.8,0.8,1.6v2.9c0,0.2,0,0.4,0,0.7c0,0.2,0,0.4,0.1,0.4s0.1,0.1,0.2,0.2v0.2H157c-0.1-0.1-0.1-0.2-0.1-0.4s0-0.2,0-0.4
		c-0.2,0.2-0.5,0.5-0.8,0.6c-0.4,0.2-0.8,0.3-1.2,0.3c-0.6,0-1.1-0.2-1.4-0.5c-0.4-0.3-0.6-0.8-0.6-1.4c0-0.8,0.3-1.4,0.9-1.7
		c0.3-0.2,0.8-0.3,1.5-0.4L155.8,243.7z M156.8,244.5c-0.1,0.1-0.2,0.1-0.3,0.2s-0.3,0.1-0.4,0.1l-0.4,0.1c-0.4,0.1-0.6,0.1-0.8,0.2
		c-0.3,0.2-0.4,0.4-0.4,0.7c0,0.3,0.1,0.5,0.2,0.6c0.2,0.1,0.4,0.2,0.6,0.2c0.4,0,0.7-0.1,1-0.3s0.5-0.6,0.5-1.2V244.5z"/>
	<path class="st2" d="M159.2,242.5v-1.2h0.9v-1.8h1.7v1.8h1v1.2h-1v3.4c0,0.3,0,0.4,0.1,0.5s0.3,0.1,0.6,0.1c0.1,0,0.1,0,0.2,0
		s0.1,0,0.2,0v1.2l-0.8,0c-0.8,0-1.3-0.1-1.6-0.4c-0.2-0.2-0.3-0.5-0.3-0.9v-3.9H159.2z"/>
	<path class="st2" d="M168.1,241.4c0.4,0.2,0.8,0.5,1.1,0.9c0.3,0.4,0.4,0.8,0.5,1.3c0,0.3,0.1,0.7,0.1,1.3h-4.7
		c0,0.6,0.2,1.1,0.7,1.3c0.3,0.2,0.6,0.2,0.9,0.2c0.4,0,0.7-0.1,0.9-0.3c0.1-0.1,0.2-0.3,0.3-0.4h1.7c0,0.4-0.3,0.8-0.6,1.2
		c-0.6,0.6-1.4,0.9-2.4,0.9c-0.9,0-1.6-0.3-2.2-0.8s-1-1.4-1-2.6c0-1.1,0.3-2,0.9-2.5c0.6-0.6,1.3-0.9,2.3-0.9
		C167.1,241.1,167.6,241.2,168.1,241.4z M165.6,242.8c-0.2,0.2-0.4,0.6-0.4,1h2.9c0-0.4-0.2-0.8-0.4-1s-0.6-0.3-1-0.3
		C166.1,242.4,165.8,242.6,165.6,242.8z"/>
	<path class="st2" d="M176.4,243.7c0.3,0,0.5-0.1,0.7-0.1c0.2-0.1,0.4-0.3,0.4-0.5c0-0.3-0.1-0.4-0.3-0.5s-0.5-0.1-0.8-0.1
		c-0.4,0-0.7,0.1-0.8,0.3c-0.1,0.1-0.2,0.3-0.2,0.6h-1.6c0-0.6,0.2-1,0.5-1.4c0.4-0.6,1.2-0.8,2.3-0.8c0.7,0,1.3,0.1,1.9,0.4
		s0.8,0.8,0.8,1.6v2.9c0,0.2,0,0.4,0,0.7c0,0.2,0,0.4,0.1,0.4s0.1,0.1,0.2,0.2v0.2h-1.8c-0.1-0.1-0.1-0.2-0.1-0.4s0-0.2,0-0.4
		c-0.2,0.2-0.5,0.5-0.8,0.6c-0.4,0.2-0.8,0.3-1.2,0.3c-0.6,0-1.1-0.2-1.4-0.5c-0.4-0.3-0.6-0.8-0.6-1.4c0-0.8,0.3-1.4,0.9-1.7
		c0.3-0.2,0.8-0.3,1.5-0.4L176.4,243.7z M177.5,244.5c-0.1,0.1-0.2,0.1-0.3,0.2s-0.3,0.1-0.4,0.1l-0.4,0.1c-0.4,0.1-0.6,0.1-0.8,0.2
		c-0.3,0.2-0.4,0.4-0.4,0.7c0,0.3,0.1,0.5,0.2,0.6c0.2,0.1,0.4,0.2,0.6,0.2c0.4,0,0.7-0.1,1-0.3s0.5-0.6,0.5-1.2V244.5z"/>
	<path class="st2" d="M182.3,247.6h-1.7V239h1.7V247.6z"/>
	<path class="st2" d="M185.6,247.6h-1.7V239h1.7V247.6z"/>
	<path class="st2" d="M195.9,246.8c-0.5,0.7-1.4,1-2.5,1s-1.9-0.3-2.5-1c-0.5-0.7-0.8-1.5-0.8-2.4c0-0.9,0.3-1.7,0.8-2.4
		c0.5-0.7,1.4-1,2.5-1s1.9,0.3,2.5,1c0.5,0.7,0.8,1.5,0.8,2.4C196.7,245.4,196.4,246.2,195.9,246.8z M194.6,245.9
		c0.3-0.3,0.4-0.8,0.4-1.5c0-0.6-0.1-1.1-0.4-1.5c-0.3-0.3-0.6-0.5-1.1-0.5s-0.9,0.2-1.1,0.5c-0.3,0.3-0.4,0.8-0.4,1.5
		c0,0.6,0.1,1.1,0.4,1.5c0.3,0.3,0.6,0.5,1.1,0.5S194.3,246.3,194.6,245.9z"/>
	<path class="st2" d="M201.5,241.1c0,0,0.1,0,0.1,0v1.7c-0.1,0-0.2,0-0.3,0s-0.1,0-0.2,0c-0.7,0-1.1,0.2-1.4,0.7
		c-0.1,0.2-0.2,0.6-0.2,1.1v3.1h-1.7v-6.4h1.6v1.1c0.3-0.4,0.5-0.7,0.7-0.9C200.5,241.2,200.9,241.1,201.5,241.1
		C201.4,241.1,201.4,241.1,201.5,241.1z"/>
	<path class="st2" d="M205.7,241.2c0.4,0.2,0.7,0.5,1,0.9v-0.9h1.6v6.1c0,0.8-0.1,1.4-0.4,1.9c-0.5,0.7-1.4,1.1-2.7,1.1
		c-0.8,0-1.5-0.2-2-0.5s-0.8-0.8-0.9-1.4h1.8c0,0.2,0.1,0.3,0.2,0.4c0.2,0.2,0.5,0.2,0.9,0.2c0.6,0,1-0.2,1.2-0.6
		c0.1-0.3,0.2-0.7,0.2-1.3v-0.4c-0.2,0.3-0.3,0.5-0.5,0.6c-0.3,0.3-0.8,0.4-1.3,0.4c-0.8,0-1.5-0.3-2-0.9s-0.7-1.4-0.7-2.3
		c0-0.9,0.2-1.7,0.7-2.4s1.1-1,2-1C205.2,241.1,205.5,241.1,205.7,241.2z M206.3,245.8c0.3-0.3,0.4-0.8,0.4-1.4
		c0-0.6-0.1-1.1-0.4-1.4s-0.6-0.5-1-0.5c-0.6,0-1,0.3-1.2,0.8c-0.1,0.3-0.2,0.7-0.2,1.1c0,0.4,0.1,0.7,0.2,1
		c0.2,0.5,0.6,0.8,1.2,0.8C205.7,246.2,206,246.1,206.3,245.8z"/>
	<path class="st2" d="M212.4,243.7c0.3,0,0.5-0.1,0.7-0.1c0.2-0.1,0.4-0.3,0.4-0.5c0-0.3-0.1-0.4-0.3-0.5s-0.5-0.1-0.8-0.1
		c-0.4,0-0.7,0.1-0.8,0.3c-0.1,0.1-0.2,0.3-0.2,0.6h-1.6c0-0.6,0.2-1,0.5-1.4c0.4-0.6,1.2-0.8,2.3-0.8c0.7,0,1.3,0.1,1.9,0.4
		s0.8,0.8,0.8,1.6v2.9c0,0.2,0,0.4,0,0.7c0,0.2,0,0.4,0.1,0.4s0.1,0.1,0.2,0.2v0.2h-1.8c-0.1-0.1-0.1-0.2-0.1-0.4s0-0.2,0-0.4
		c-0.2,0.2-0.5,0.5-0.8,0.6c-0.4,0.2-0.8,0.3-1.2,0.3c-0.6,0-1.1-0.2-1.4-0.5c-0.4-0.3-0.6-0.8-0.6-1.4c0-0.8,0.3-1.4,0.9-1.7
		c0.3-0.2,0.8-0.3,1.5-0.4L212.4,243.7z M213.5,244.5c-0.1,0.1-0.2,0.1-0.3,0.2s-0.3,0.1-0.4,0.1l-0.4,0.1c-0.4,0.1-0.6,0.1-0.8,0.2
		c-0.3,0.2-0.4,0.4-0.4,0.7c0,0.3,0.1,0.5,0.2,0.6c0.2,0.1,0.4,0.2,0.6,0.2c0.4,0,0.7-0.1,1-0.3s0.5-0.6,0.5-1.2V244.5z"/>
	<path class="st2" d="M221.7,241.6c0.4,0.3,0.6,0.9,0.6,1.7v4.3h-1.7v-3.9c0-0.3,0-0.6-0.1-0.8c-0.2-0.3-0.5-0.5-0.9-0.5
		c-0.6,0-0.9,0.2-1.2,0.7c-0.1,0.3-0.2,0.6-0.2,1v3.5h-1.7v-6.4h1.6v0.9c0.2-0.3,0.4-0.6,0.6-0.7c0.3-0.3,0.8-0.4,1.3-0.4
		C220.8,241.1,221.3,241.2,221.7,241.6z"/>
	<path class="st2" d="M225.2,245.6c0,0.3,0.1,0.5,0.2,0.6c0.2,0.2,0.6,0.3,1.2,0.3c0.3,0,0.6,0,0.8-0.1s0.3-0.2,0.3-0.4
		c0-0.2-0.1-0.3-0.2-0.4c-0.2-0.1-0.7-0.3-1.7-0.5c-0.7-0.2-1.2-0.4-1.5-0.7c-0.3-0.3-0.4-0.6-0.4-1.1c0-0.6,0.2-1.1,0.7-1.5
		s1.1-0.6,2-0.6c0.8,0,1.4,0.2,2,0.5s0.8,0.9,0.9,1.7h-1.7c0-0.2-0.1-0.4-0.2-0.5c-0.2-0.2-0.5-0.3-0.9-0.3c-0.4,0-0.6,0.1-0.8,0.2
		s-0.2,0.2-0.2,0.4c0,0.2,0.1,0.3,0.2,0.4c0.2,0.1,0.7,0.2,1.7,0.5c0.7,0.2,1.2,0.4,1.5,0.7c0.3,0.3,0.5,0.7,0.5,1.2
		c0,0.6-0.2,1.1-0.7,1.5s-1.2,0.6-2.2,0.6c-1,0-1.7-0.2-2.2-0.6s-0.7-1-0.7-1.6H225.2z"/>
	<path class="st2" d="M236.4,243.7c0.3,0,0.5-0.1,0.7-0.1c0.2-0.1,0.4-0.3,0.4-0.5c0-0.3-0.1-0.4-0.3-0.5s-0.5-0.1-0.8-0.1
		c-0.4,0-0.7,0.1-0.8,0.3c-0.1,0.1-0.2,0.3-0.2,0.6h-1.6c0-0.6,0.2-1,0.5-1.4c0.4-0.6,1.2-0.8,2.3-0.8c0.7,0,1.3,0.1,1.9,0.4
		s0.8,0.8,0.8,1.6v2.9c0,0.2,0,0.4,0,0.7c0,0.2,0,0.4,0.1,0.4s0.1,0.1,0.2,0.2v0.2h-1.8c-0.1-0.1-0.1-0.2-0.1-0.4s0-0.2,0-0.4
		c-0.2,0.2-0.5,0.5-0.8,0.6c-0.4,0.2-0.8,0.3-1.2,0.3c-0.6,0-1.1-0.2-1.4-0.5c-0.4-0.3-0.6-0.8-0.6-1.4c0-0.8,0.3-1.4,0.9-1.7
		c0.3-0.2,0.8-0.3,1.5-0.4L236.4,243.7z M237.5,244.5c-0.1,0.1-0.2,0.1-0.3,0.2s-0.3,0.1-0.4,0.1l-0.4,0.1c-0.4,0.1-0.6,0.1-0.8,0.2
		c-0.3,0.2-0.4,0.4-0.4,0.7c0,0.3,0.1,0.5,0.2,0.6c0.2,0.1,0.4,0.2,0.6,0.2c0.4,0,0.7-0.1,1-0.3s0.5-0.6,0.5-1.2V244.5z"/>
	<path class="st2" d="M245.7,241.6c0.4,0.3,0.6,0.9,0.6,1.7v4.3h-1.7v-3.9c0-0.3,0-0.6-0.1-0.8c-0.2-0.3-0.5-0.5-0.9-0.5
		c-0.6,0-0.9,0.2-1.2,0.7c-0.1,0.3-0.2,0.6-0.2,1v3.5h-1.7v-6.4h1.6v0.9c0.2-0.3,0.4-0.6,0.6-0.7c0.3-0.3,0.8-0.4,1.3-0.4
		C244.8,241.1,245.3,241.2,245.7,241.6z"/>
	<path class="st2" d="M251.3,241.3c0.3,0.2,0.5,0.4,0.7,0.7v-3h1.7v8.6h-1.6v-0.9c-0.2,0.4-0.5,0.7-0.8,0.8s-0.7,0.3-1.1,0.3
		c-0.7,0-1.4-0.3-1.9-0.9s-0.8-1.4-0.8-2.3c0-1.1,0.3-1.9,0.8-2.6s1.2-0.9,2-0.9C250.7,241.1,251,241.2,251.3,241.3z M251.7,245.9
		c0.2-0.4,0.4-0.8,0.4-1.4c0-0.8-0.2-1.3-0.6-1.7c-0.2-0.2-0.5-0.3-0.8-0.3c-0.5,0-0.8,0.2-1.1,0.6s-0.3,0.8-0.3,1.4
		c0,0.6,0.1,1.1,0.3,1.4s0.6,0.5,1.1,0.5S251.5,246.2,251.7,245.9z"/>
	<path class="st2" d="M257.9,242.5v-1.2h0.9v-1.8h1.7v1.8h1v1.2h-1v3.4c0,0.3,0,0.4,0.1,0.5s0.3,0.1,0.6,0.1c0.1,0,0.1,0,0.2,0
		s0.1,0,0.2,0v1.2l-0.8,0c-0.8,0-1.3-0.1-1.6-0.4c-0.2-0.2-0.3-0.5-0.3-0.9v-3.9H257.9z"/>
	<path class="st2" d="M264.3,240.5h-1.7v-1.5h1.7V240.5z M262.6,241.2h1.7v6.4h-1.7V241.2z"/>
	<path class="st2" d="M267.2,245.6c0,0.3,0.1,0.5,0.2,0.6c0.2,0.2,0.6,0.3,1.2,0.3c0.3,0,0.6,0,0.8-0.1s0.3-0.2,0.3-0.4
		c0-0.2-0.1-0.3-0.2-0.4c-0.2-0.1-0.7-0.3-1.7-0.5c-0.7-0.2-1.2-0.4-1.5-0.7c-0.3-0.3-0.4-0.6-0.4-1.1c0-0.6,0.2-1.1,0.7-1.5
		s1.1-0.6,2-0.6c0.8,0,1.4,0.2,2,0.5s0.8,0.9,0.9,1.7h-1.7c0-0.2-0.1-0.4-0.2-0.5c-0.2-0.2-0.5-0.3-0.9-0.3c-0.4,0-0.6,0.1-0.8,0.2
		s-0.2,0.2-0.2,0.4c0,0.2,0.1,0.3,0.2,0.4c0.2,0.1,0.7,0.2,1.7,0.5c0.7,0.2,1.2,0.4,1.5,0.7c0.3,0.3,0.5,0.7,0.5,1.2
		c0,0.6-0.2,1.1-0.7,1.5s-1.2,0.6-2.2,0.6c-1,0-1.7-0.2-2.2-0.6s-0.7-1-0.7-1.6H267.2z"/>
	<path class="st2" d="M273.9,245.6c0,0.3,0.1,0.5,0.2,0.6c0.2,0.2,0.6,0.3,1.2,0.3c0.3,0,0.6,0,0.8-0.1s0.3-0.2,0.3-0.4
		c0-0.2-0.1-0.3-0.2-0.4c-0.2-0.1-0.7-0.3-1.7-0.5c-0.7-0.2-1.2-0.4-1.5-0.7c-0.3-0.3-0.4-0.6-0.4-1.1c0-0.6,0.2-1.1,0.7-1.5
		s1.1-0.6,2-0.6c0.8,0,1.4,0.2,2,0.5s0.8,0.9,0.9,1.7h-1.7c0-0.2-0.1-0.4-0.2-0.5c-0.2-0.2-0.5-0.3-0.9-0.3c-0.4,0-0.6,0.1-0.8,0.2
		s-0.2,0.2-0.2,0.4c0,0.2,0.1,0.3,0.2,0.4c0.2,0.1,0.7,0.2,1.7,0.5c0.7,0.2,1.2,0.4,1.5,0.7c0.3,0.3,0.5,0.7,0.5,1.2
		c0,0.6-0.2,1.1-0.7,1.5s-1.2,0.6-2.2,0.6c-1,0-1.7-0.2-2.2-0.6s-0.7-1-0.7-1.6H273.9z"/>
	<path class="st2" d="M280.9,241.2v3.8c0,0.4,0,0.6,0.1,0.8c0.2,0.3,0.4,0.5,0.9,0.5c0.6,0,1-0.2,1.2-0.7c0.1-0.2,0.2-0.6,0.2-1
		v-3.5h1.7v6.4h-1.6v-0.9c0,0-0.1,0.1-0.1,0.2c-0.1,0.1-0.1,0.2-0.2,0.3c-0.3,0.2-0.5,0.4-0.8,0.5c-0.2,0.1-0.5,0.1-0.9,0.1
		c-0.9,0-1.6-0.3-1.9-1c-0.2-0.4-0.3-0.9-0.3-1.7v-3.8H280.9z"/>
	<path class="st2" d="M290.8,241.4c0.4,0.2,0.8,0.5,1.1,0.9c0.3,0.4,0.4,0.8,0.5,1.3c0,0.3,0.1,0.7,0.1,1.3h-4.7
		c0,0.6,0.2,1.1,0.7,1.3c0.3,0.2,0.6,0.2,0.9,0.2c0.4,0,0.7-0.1,0.9-0.3c0.1-0.1,0.2-0.3,0.3-0.4h1.7c0,0.4-0.3,0.8-0.6,1.2
		c-0.6,0.6-1.4,0.9-2.4,0.9c-0.9,0-1.6-0.3-2.2-0.8s-1-1.4-1-2.6c0-1.1,0.3-2,0.9-2.5c0.6-0.6,1.3-0.9,2.3-0.9
		C289.8,241.1,290.3,241.2,290.8,241.4z M288.3,242.8c-0.2,0.2-0.4,0.6-0.4,1h2.9c0-0.4-0.2-0.8-0.4-1s-0.6-0.3-1-0.3
		C288.8,242.4,288.5,242.6,288.3,242.8z"/>
	<path class="st2" d="M294.6,245.6c0,0.3,0.1,0.5,0.2,0.6c0.2,0.2,0.6,0.3,1.2,0.3c0.3,0,0.6,0,0.8-0.1s0.3-0.2,0.3-0.4
		c0-0.2-0.1-0.3-0.2-0.4c-0.2-0.1-0.7-0.3-1.7-0.5c-0.7-0.2-1.2-0.4-1.5-0.7c-0.3-0.3-0.4-0.6-0.4-1.1c0-0.6,0.2-1.1,0.7-1.5
		s1.1-0.6,2-0.6c0.8,0,1.4,0.2,2,0.5s0.8,0.9,0.9,1.7h-1.7c0-0.2-0.1-0.4-0.2-0.5c-0.2-0.2-0.5-0.3-0.9-0.3c-0.4,0-0.6,0.1-0.8,0.2
		s-0.2,0.2-0.2,0.4c0,0.2,0.1,0.3,0.2,0.4c0.2,0.1,0.7,0.2,1.7,0.5c0.7,0.2,1.2,0.4,1.5,0.7c0.3,0.3,0.5,0.7,0.5,1.2
		c0,0.6-0.2,1.1-0.7,1.5s-1.2,0.6-2.2,0.6c-1,0-1.7-0.2-2.2-0.6s-0.7-1-0.7-1.6H294.6z"/>
	<path class="st2" d="M135.1,260.2c0.6,0.2,1.1,0.6,1.5,1.1c0.3,0.4,0.5,0.9,0.6,1.4c0.1,0.5,0.2,1,0.2,1.4c0,1.1-0.2,2.1-0.7,2.9
		c-0.6,1.1-1.6,1.6-2.9,1.6H130V260h3.7C134.3,260,134.7,260,135.1,260.2z M131.8,261.5v5.6h1.7c0.9,0,1.4-0.4,1.8-1.3
		c0.2-0.5,0.3-1,0.3-1.6c0-0.9-0.1-1.6-0.4-2c-0.3-0.5-0.8-0.7-1.6-0.7H131.8z"/>
	<path class="st2" d="M143.9,267.8c-0.5,0.7-1.4,1-2.5,1s-1.9-0.3-2.5-1c-0.5-0.7-0.8-1.5-0.8-2.4c0-0.9,0.3-1.7,0.8-2.4
		c0.5-0.7,1.4-1,2.5-1s1.9,0.3,2.5,1c0.5,0.7,0.8,1.5,0.8,2.4C144.7,266.4,144.4,267.2,143.9,267.8z M142.6,266.9
		c0.3-0.3,0.4-0.8,0.4-1.5c0-0.6-0.1-1.1-0.4-1.5c-0.3-0.3-0.6-0.5-1.1-0.5s-0.9,0.2-1.1,0.5c-0.3,0.3-0.4,0.8-0.4,1.5
		c0,0.6,0.1,1.1,0.4,1.5c0.3,0.3,0.6,0.5,1.1,0.5S142.3,267.3,142.6,266.9z"/>
	<path class="st2" d="M151,262.6c0.4,0.3,0.6,0.9,0.6,1.7v4.3H150v-3.9c0-0.3,0-0.6-0.1-0.8c-0.2-0.3-0.5-0.5-0.9-0.5
		c-0.6,0-0.9,0.2-1.2,0.7c-0.1,0.3-0.2,0.6-0.2,1v3.5h-1.7v-6.4h1.6v0.9c0.2-0.3,0.4-0.6,0.6-0.7c0.3-0.3,0.8-0.4,1.3-0.4
		C150.1,262.1,150.6,262.2,151,262.6z"/>
	<path class="st2" d="M155.8,264.7c0.3,0,0.5-0.1,0.7-0.1c0.2-0.1,0.4-0.3,0.4-0.5c0-0.3-0.1-0.4-0.3-0.5s-0.5-0.1-0.8-0.1
		c-0.4,0-0.7,0.1-0.8,0.3c-0.1,0.1-0.2,0.3-0.2,0.6H153c0-0.6,0.2-1,0.5-1.4c0.4-0.6,1.2-0.8,2.3-0.8c0.7,0,1.3,0.1,1.9,0.4
		s0.8,0.8,0.8,1.6v2.9c0,0.2,0,0.4,0,0.7c0,0.2,0,0.4,0.1,0.4s0.1,0.1,0.2,0.2v0.2H157c-0.1-0.1-0.1-0.2-0.1-0.4s0-0.2,0-0.4
		c-0.2,0.2-0.5,0.5-0.8,0.6c-0.4,0.2-0.8,0.3-1.2,0.3c-0.6,0-1.1-0.2-1.4-0.5c-0.4-0.3-0.6-0.8-0.6-1.4c0-0.8,0.3-1.4,0.9-1.7
		c0.3-0.2,0.8-0.3,1.5-0.4L155.8,264.7z M156.8,265.5c-0.1,0.1-0.2,0.1-0.3,0.2s-0.3,0.1-0.4,0.1l-0.4,0.1c-0.4,0.1-0.6,0.1-0.8,0.2
		c-0.3,0.2-0.4,0.4-0.4,0.7c0,0.3,0.1,0.5,0.2,0.6c0.2,0.1,0.4,0.2,0.6,0.2c0.4,0,0.7-0.1,1-0.3s0.5-0.6,0.5-1.2V265.5z"/>
	<path class="st2" d="M159.2,263.5v-1.2h0.9v-1.8h1.7v1.8h1v1.2h-1v3.4c0,0.3,0,0.4,0.1,0.5s0.3,0.1,0.6,0.1c0.1,0,0.1,0,0.2,0
		s0.1,0,0.2,0v1.2l-0.8,0c-0.8,0-1.3-0.1-1.6-0.4c-0.2-0.2-0.3-0.5-0.3-0.9v-3.9H159.2z"/>
	<path class="st2" d="M168.1,262.4c0.4,0.2,0.8,0.5,1.1,0.9c0.3,0.4,0.4,0.8,0.5,1.3c0,0.3,0.1,0.7,0.1,1.3h-4.7
		c0,0.6,0.2,1.1,0.7,1.3c0.3,0.2,0.6,0.2,0.9,0.2c0.4,0,0.7-0.1,0.9-0.3c0.1-0.1,0.2-0.3,0.3-0.4h1.7c0,0.4-0.3,0.8-0.6,1.2
		c-0.6,0.6-1.4,0.9-2.4,0.9c-0.9,0-1.6-0.3-2.2-0.8s-1-1.4-1-2.6c0-1.1,0.3-2,0.9-2.5c0.6-0.6,1.3-0.9,2.3-0.9
		C167.1,262.1,167.6,262.2,168.1,262.4z M165.6,263.8c-0.2,0.2-0.4,0.6-0.4,1h2.9c0-0.4-0.2-0.8-0.4-1s-0.6-0.3-1-0.3
		C166.1,263.4,165.8,263.6,165.6,263.8z"/>
	<path class="st2" d="M175.2,266.6c0,0.3,0.1,0.5,0.2,0.6c0.2,0.2,0.6,0.3,1.2,0.3c0.3,0,0.6,0,0.8-0.1s0.3-0.2,0.3-0.4
		c0-0.2-0.1-0.3-0.2-0.4c-0.2-0.1-0.7-0.3-1.7-0.5c-0.7-0.2-1.2-0.4-1.5-0.7c-0.3-0.3-0.4-0.6-0.4-1.1c0-0.6,0.2-1.1,0.7-1.5
		s1.1-0.6,2-0.6c0.8,0,1.4,0.2,2,0.5s0.8,0.9,0.9,1.7h-1.7c0-0.2-0.1-0.4-0.2-0.5c-0.2-0.2-0.5-0.3-0.9-0.3c-0.4,0-0.6,0.1-0.8,0.2
		s-0.2,0.2-0.2,0.4c0,0.2,0.1,0.3,0.2,0.4c0.2,0.1,0.7,0.2,1.7,0.5c0.7,0.2,1.2,0.4,1.5,0.7c0.3,0.3,0.5,0.7,0.5,1.2
		c0,0.6-0.2,1.1-0.7,1.5s-1.2,0.6-2.2,0.6c-1,0-1.7-0.2-2.2-0.6s-0.7-1-0.7-1.6H175.2z"/>
	<path class="st2" d="M185.9,267.8c-0.5,0.7-1.4,1-2.5,1s-1.9-0.3-2.5-1c-0.5-0.7-0.8-1.5-0.8-2.4c0-0.9,0.3-1.7,0.8-2.4
		c0.5-0.7,1.4-1,2.5-1s1.9,0.3,2.5,1c0.5,0.7,0.8,1.5,0.8,2.4C186.7,266.4,186.4,267.2,185.9,267.8z M184.6,266.9
		c0.3-0.3,0.4-0.8,0.4-1.5c0-0.6-0.1-1.1-0.4-1.5c-0.3-0.3-0.6-0.5-1.1-0.5s-0.9,0.2-1.1,0.5c-0.3,0.3-0.4,0.8-0.4,1.5
		c0,0.6,0.1,1.1,0.4,1.5c0.3,0.3,0.6,0.5,1.1,0.5S184.3,267.3,184.6,266.9z"/>
	<path class="st2" d="M195.9,262.2c0.3,0.1,0.5,0.3,0.7,0.6c0.2,0.2,0.3,0.5,0.4,0.8c0,0.2,0.1,0.5,0.1,0.9l0,4h-1.7v-4.1
		c0-0.2,0-0.4-0.1-0.6c-0.1-0.3-0.4-0.4-0.8-0.4c-0.5,0-0.8,0.2-1,0.6c-0.1,0.2-0.1,0.4-0.1,0.7v3.8h-1.7v-3.8c0-0.4,0-0.7-0.1-0.8
		c-0.1-0.3-0.4-0.5-0.8-0.5c-0.5,0-0.8,0.2-1,0.5c-0.1,0.2-0.1,0.4-0.1,0.8v3.8h-1.7v-6.4h1.6v0.9c0.2-0.3,0.4-0.6,0.6-0.7
		c0.3-0.2,0.7-0.4,1.3-0.4c0.5,0,0.9,0.1,1.2,0.3c0.2,0.2,0.4,0.5,0.6,0.8c0.2-0.4,0.5-0.7,0.8-0.8c0.3-0.2,0.7-0.3,1.1-0.3
		C195.3,262.1,195.6,262.1,195.9,262.2z"/>
	<path class="st2" d="M202.7,262.4c0.4,0.2,0.8,0.5,1.1,0.9c0.3,0.4,0.4,0.8,0.5,1.3c0,0.3,0.1,0.7,0.1,1.3h-4.7
		c0,0.6,0.2,1.1,0.7,1.3c0.3,0.2,0.6,0.2,0.9,0.2c0.4,0,0.7-0.1,0.9-0.3c0.1-0.1,0.2-0.3,0.3-0.4h1.7c0,0.4-0.3,0.8-0.6,1.2
		c-0.6,0.6-1.4,0.9-2.4,0.9c-0.9,0-1.6-0.3-2.2-0.8s-1-1.4-1-2.6c0-1.1,0.3-2,0.9-2.5c0.6-0.6,1.3-0.9,2.3-0.9
		C201.8,262.1,202.3,262.2,202.7,262.4z M200.2,263.8c-0.2,0.2-0.4,0.6-0.4,1h2.9c0-0.4-0.2-0.8-0.4-1s-0.6-0.3-1-0.3
		C200.8,263.4,200.5,263.6,200.2,263.8z"/>
	<path class="st2" d="M213.9,267.8c-0.5,0.7-1.4,1-2.5,1s-1.9-0.3-2.5-1c-0.5-0.7-0.8-1.5-0.8-2.4c0-0.9,0.3-1.7,0.8-2.4
		c0.5-0.7,1.4-1,2.5-1s1.9,0.3,2.5,1c0.5,0.7,0.8,1.5,0.8,2.4C214.7,266.4,214.4,267.2,213.9,267.8z M212.6,266.9
		c0.3-0.3,0.4-0.8,0.4-1.5c0-0.6-0.1-1.1-0.4-1.5c-0.3-0.3-0.6-0.5-1.1-0.5s-0.9,0.2-1.1,0.5c-0.3,0.3-0.4,0.8-0.4,1.5
		c0,0.6,0.1,1.1,0.4,1.5c0.3,0.3,0.6,0.5,1.1,0.5S212.3,267.3,212.6,266.9z"/>
	<path class="st2" d="M219.5,262.1c0,0,0.1,0,0.1,0v1.7c-0.1,0-0.2,0-0.3,0s-0.1,0-0.2,0c-0.7,0-1.1,0.2-1.4,0.7
		c-0.1,0.2-0.2,0.6-0.2,1.1v3.1h-1.7v-6.4h1.6v1.1c0.3-0.4,0.5-0.7,0.7-0.9C218.5,262.2,218.9,262.1,219.5,262.1
		C219.4,262.1,219.4,262.1,219.5,262.1z"/>
	<path class="st2" d="M223.7,262.2c0.4,0.2,0.7,0.5,1,0.9v-0.9h1.6v6.1c0,0.8-0.1,1.4-0.4,1.9c-0.5,0.7-1.4,1.1-2.7,1.1
		c-0.8,0-1.5-0.2-2-0.5s-0.8-0.8-0.9-1.4h1.8c0,0.2,0.1,0.3,0.2,0.4c0.2,0.2,0.5,0.2,0.9,0.2c0.6,0,1-0.2,1.2-0.6
		c0.1-0.3,0.2-0.7,0.2-1.3v-0.4c-0.2,0.3-0.3,0.5-0.5,0.6c-0.3,0.3-0.8,0.4-1.3,0.4c-0.8,0-1.5-0.3-2-0.9s-0.7-1.4-0.7-2.3
		c0-0.9,0.2-1.7,0.7-2.4s1.1-1,2-1C223.2,262.1,223.5,262.1,223.7,262.2z M224.3,266.8c0.3-0.3,0.4-0.8,0.4-1.4
		c0-0.6-0.1-1.1-0.4-1.4s-0.6-0.5-1-0.5c-0.6,0-1,0.3-1.2,0.8c-0.1,0.3-0.2,0.7-0.2,1.1c0,0.4,0.1,0.7,0.2,1
		c0.2,0.5,0.6,0.8,1.2,0.8C223.7,267.2,224,267.1,224.3,266.8z"/>
	<path class="st2" d="M230.4,264.7c0.3,0,0.5-0.1,0.7-0.1c0.2-0.1,0.4-0.3,0.4-0.5c0-0.3-0.1-0.4-0.3-0.5s-0.5-0.1-0.8-0.1
		c-0.4,0-0.7,0.1-0.8,0.3c-0.1,0.1-0.2,0.3-0.2,0.6h-1.6c0-0.6,0.2-1,0.5-1.4c0.4-0.6,1.2-0.8,2.3-0.8c0.7,0,1.3,0.1,1.9,0.4
		s0.8,0.8,0.8,1.6v2.9c0,0.2,0,0.4,0,0.7c0,0.2,0,0.4,0.1,0.4s0.1,0.1,0.2,0.2v0.2h-1.8c-0.1-0.1-0.1-0.2-0.1-0.4s0-0.2,0-0.4
		c-0.2,0.2-0.5,0.5-0.8,0.6c-0.4,0.2-0.8,0.3-1.2,0.3c-0.6,0-1.1-0.2-1.4-0.5c-0.4-0.3-0.6-0.8-0.6-1.4c0-0.8,0.3-1.4,0.9-1.7
		c0.3-0.2,0.8-0.3,1.5-0.4L230.4,264.7z M231.5,265.5c-0.1,0.1-0.2,0.1-0.3,0.2s-0.3,0.1-0.4,0.1l-0.4,0.1c-0.4,0.1-0.6,0.1-0.8,0.2
		c-0.3,0.2-0.4,0.4-0.4,0.7c0,0.3,0.1,0.5,0.2,0.6c0.2,0.1,0.4,0.2,0.6,0.2c0.4,0,0.7-0.1,1-0.3s0.5-0.6,0.5-1.2V265.5z"/>
	<path class="st2" d="M239.7,262.6c0.4,0.3,0.6,0.9,0.6,1.7v4.3h-1.7v-3.9c0-0.3,0-0.6-0.1-0.8c-0.2-0.3-0.5-0.5-0.9-0.5
		c-0.6,0-0.9,0.2-1.2,0.7c-0.1,0.3-0.2,0.6-0.2,1v3.5h-1.7v-6.4h1.6v0.9c0.2-0.3,0.4-0.6,0.6-0.7c0.3-0.3,0.8-0.4,1.3-0.4
		C238.8,262.1,239.3,262.2,239.7,262.6z"/>
	<path class="st2" d="M243.2,266.6c0,0.3,0.1,0.5,0.2,0.6c0.2,0.2,0.6,0.3,1.2,0.3c0.3,0,0.6,0,0.8-0.1s0.3-0.2,0.3-0.4
		c0-0.2-0.1-0.3-0.2-0.4c-0.2-0.1-0.7-0.3-1.7-0.5c-0.7-0.2-1.2-0.4-1.5-0.7c-0.3-0.3-0.4-0.6-0.4-1.1c0-0.6,0.2-1.1,0.7-1.5
		s1.1-0.6,2-0.6c0.8,0,1.4,0.2,2,0.5s0.8,0.9,0.9,1.7h-1.7c0-0.2-0.1-0.4-0.2-0.5c-0.2-0.2-0.5-0.3-0.9-0.3c-0.4,0-0.6,0.1-0.8,0.2
		s-0.2,0.2-0.2,0.4c0,0.2,0.1,0.3,0.2,0.4c0.2,0.1,0.7,0.2,1.7,0.5c0.7,0.2,1.2,0.4,1.5,0.7c0.3,0.3,0.5,0.7,0.5,1.2
		c0,0.6-0.2,1.1-0.7,1.5s-1.2,0.6-2.2,0.6c-1,0-1.7-0.2-2.2-0.6s-0.7-1-0.7-1.6H243.2z"/>
	<path class="st2" d="M254.5,264.7c0.3,0,0.5-0.1,0.7-0.1c0.2-0.1,0.4-0.3,0.4-0.5c0-0.3-0.1-0.4-0.3-0.5s-0.5-0.1-0.8-0.1
		c-0.4,0-0.7,0.1-0.8,0.3c-0.1,0.1-0.2,0.3-0.2,0.6h-1.6c0-0.6,0.2-1,0.5-1.4c0.4-0.6,1.2-0.8,2.3-0.8c0.7,0,1.3,0.1,1.9,0.4
		s0.8,0.8,0.8,1.6v2.9c0,0.2,0,0.4,0,0.7c0,0.2,0,0.4,0.1,0.4s0.1,0.1,0.2,0.2v0.2h-1.8c-0.1-0.1-0.1-0.2-0.1-0.4s0-0.2,0-0.4
		c-0.2,0.2-0.5,0.5-0.8,0.6c-0.4,0.2-0.8,0.3-1.2,0.3c-0.6,0-1.1-0.2-1.4-0.5c-0.4-0.3-0.6-0.8-0.6-1.4c0-0.8,0.3-1.4,0.9-1.7
		c0.3-0.2,0.8-0.3,1.5-0.4L254.5,264.7z M255.5,265.5c-0.1,0.1-0.2,0.1-0.3,0.2s-0.3,0.1-0.4,0.1l-0.4,0.1c-0.4,0.1-0.6,0.1-0.8,0.2
		c-0.3,0.2-0.4,0.4-0.4,0.7c0,0.3,0.1,0.5,0.2,0.6c0.2,0.1,0.4,0.2,0.6,0.2c0.4,0,0.7-0.1,1-0.3s0.5-0.6,0.5-1.2V265.5z"/>
	<path class="st2" d="M263.7,262.6c0.4,0.3,0.6,0.9,0.6,1.7v4.3h-1.7v-3.9c0-0.3,0-0.6-0.1-0.8c-0.2-0.3-0.5-0.5-0.9-0.5
		c-0.6,0-0.9,0.2-1.2,0.7c-0.1,0.3-0.2,0.6-0.2,1v3.5h-1.7v-6.4h1.6v0.9c0.2-0.3,0.4-0.6,0.6-0.7c0.3-0.3,0.8-0.4,1.3-0.4
		C262.8,262.1,263.3,262.2,263.7,262.6z"/>
	<path class="st2" d="M269.3,262.3c0.3,0.2,0.5,0.4,0.7,0.7v-3h1.7v8.6h-1.6v-0.9c-0.2,0.4-0.5,0.7-0.8,0.8s-0.7,0.3-1.1,0.3
		c-0.7,0-1.4-0.3-1.9-0.9s-0.8-1.4-0.8-2.3c0-1.1,0.3-1.9,0.8-2.6s1.2-0.9,2-0.9C268.7,262.1,269,262.2,269.3,262.3z M269.7,266.9
		c0.2-0.4,0.4-0.8,0.4-1.4c0-0.8-0.2-1.3-0.6-1.7c-0.2-0.2-0.5-0.3-0.8-0.3c-0.5,0-0.8,0.2-1.1,0.6s-0.3,0.8-0.3,1.4
		c0,0.6,0.1,1.1,0.3,1.4s0.6,0.5,1.1,0.5S269.5,267.2,269.7,266.9z"/>
	<path class="st2" d="M275.9,263.5v-1.2h0.9v-1.8h1.7v1.8h1v1.2h-1v3.4c0,0.3,0,0.4,0.1,0.5s0.3,0.1,0.6,0.1c0.1,0,0.1,0,0.2,0
		s0.1,0,0.2,0v1.2l-0.8,0c-0.8,0-1.3-0.1-1.6-0.4c-0.2-0.2-0.3-0.5-0.3-0.9v-3.9H275.9z"/>
	<path class="st2" d="M282.3,261.5h-1.7v-1.5h1.7V261.5z M280.6,262.2h1.7v6.4h-1.7V262.2z"/>
	<path class="st2" d="M285.2,266.6c0,0.3,0.1,0.5,0.2,0.6c0.2,0.2,0.6,0.3,1.2,0.3c0.3,0,0.6,0,0.8-0.1s0.3-0.2,0.3-0.4
		c0-0.2-0.1-0.3-0.2-0.4c-0.2-0.1-0.7-0.3-1.7-0.5c-0.7-0.2-1.2-0.4-1.5-0.7c-0.3-0.3-0.4-0.6-0.4-1.1c0-0.6,0.2-1.1,0.7-1.5
		s1.1-0.6,2-0.6c0.8,0,1.4,0.2,2,0.5s0.8,0.9,0.9,1.7h-1.7c0-0.2-0.1-0.4-0.2-0.5c-0.2-0.2-0.5-0.3-0.9-0.3c-0.4,0-0.6,0.1-0.8,0.2
		s-0.2,0.2-0.2,0.4c0,0.2,0.1,0.3,0.2,0.4c0.2,0.1,0.7,0.2,1.7,0.5c0.7,0.2,1.2,0.4,1.5,0.7c0.3,0.3,0.5,0.7,0.5,1.2
		c0,0.6-0.2,1.1-0.7,1.5s-1.2,0.6-2.2,0.6c-1,0-1.7-0.2-2.2-0.6s-0.7-1-0.7-1.6H285.2z"/>
	<path class="st2" d="M291.9,266.6c0,0.3,0.1,0.5,0.2,0.6c0.2,0.2,0.6,0.3,1.2,0.3c0.3,0,0.6,0,0.8-0.1s0.3-0.2,0.3-0.4
		c0-0.2-0.1-0.3-0.2-0.4c-0.2-0.1-0.7-0.3-1.7-0.5c-0.7-0.2-1.2-0.4-1.5-0.7c-0.3-0.3-0.4-0.6-0.4-1.1c0-0.6,0.2-1.1,0.7-1.5
		s1.1-0.6,2-0.6c0.8,0,1.4,0.2,2,0.5s0.8,0.9,0.9,1.7h-1.7c0-0.2-0.1-0.4-0.2-0.5c-0.2-0.2-0.5-0.3-0.9-0.3c-0.4,0-0.6,0.1-0.8,0.2
		s-0.2,0.2-0.2,0.4c0,0.2,0.1,0.3,0.2,0.4c0.2,0.1,0.7,0.2,1.7,0.5c0.7,0.2,1.2,0.4,1.5,0.7c0.3,0.3,0.5,0.7,0.5,1.2
		c0,0.6-0.2,1.1-0.7,1.5s-1.2,0.6-2.2,0.6c-1,0-1.7-0.2-2.2-0.6s-0.7-1-0.7-1.6H291.9z"/>
	<path class="st2" d="M298.9,262.2v3.8c0,0.4,0,0.6,0.1,0.8c0.2,0.3,0.4,0.5,0.9,0.5c0.6,0,1-0.2,1.2-0.7c0.1-0.2,0.2-0.6,0.2-1
		v-3.5h1.7v6.4h-1.6v-0.9c0,0-0.1,0.1-0.1,0.2c-0.1,0.1-0.1,0.2-0.2,0.3c-0.3,0.2-0.5,0.4-0.8,0.5c-0.2,0.1-0.5,0.1-0.9,0.1
		c-0.9,0-1.6-0.3-1.9-1c-0.2-0.4-0.3-0.9-0.3-1.7v-3.8H298.9z"/>
	<path class="st2" d="M308.8,262.4c0.4,0.2,0.8,0.5,1.1,0.9c0.3,0.4,0.4,0.8,0.5,1.3c0,0.3,0.1,0.7,0.1,1.3h-4.7
		c0,0.6,0.2,1.1,0.7,1.3c0.3,0.2,0.6,0.2,0.9,0.2c0.4,0,0.7-0.1,0.9-0.3c0.1-0.1,0.2-0.3,0.3-0.4h1.7c0,0.4-0.3,0.8-0.6,1.2
		c-0.6,0.6-1.4,0.9-2.4,0.9c-0.9,0-1.6-0.3-2.2-0.8s-1-1.4-1-2.6c0-1.1,0.3-2,0.9-2.5c0.6-0.6,1.3-0.9,2.3-0.9
		C307.8,262.1,308.3,262.2,308.8,262.4z M306.3,263.8c-0.2,0.2-0.4,0.6-0.4,1h2.9c0-0.4-0.2-0.8-0.4-1s-0.6-0.3-1-0.3
		C306.8,263.4,306.5,263.6,306.3,263.8z"/>
	<path class="st2" d="M312.6,266.6c0,0.3,0.1,0.5,0.2,0.6c0.2,0.2,0.6,0.3,1.2,0.3c0.3,0,0.6,0,0.8-0.1s0.3-0.2,0.3-0.4
		c0-0.2-0.1-0.3-0.2-0.4c-0.2-0.1-0.7-0.3-1.7-0.5c-0.7-0.2-1.2-0.4-1.5-0.7c-0.3-0.3-0.4-0.6-0.4-1.1c0-0.6,0.2-1.1,0.7-1.5
		s1.1-0.6,2-0.6c0.8,0,1.4,0.2,2,0.5s0.8,0.9,0.9,1.7h-1.7c0-0.2-0.1-0.4-0.2-0.5c-0.2-0.2-0.5-0.3-0.9-0.3c-0.4,0-0.6,0.1-0.8,0.2
		s-0.2,0.2-0.2,0.4c0,0.2,0.1,0.3,0.2,0.4c0.2,0.1,0.7,0.2,1.7,0.5c0.7,0.2,1.2,0.4,1.5,0.7c0.3,0.3,0.5,0.7,0.5,1.2
		c0,0.6-0.2,1.1-0.7,1.5s-1.2,0.6-2.2,0.6c-1,0-1.7-0.2-2.2-0.6s-0.7-1-0.7-1.6H312.6z"/>
</g>
<rect x="197.5" y="132.3" class="st3" width="141.9" height="13"/>
<rect x="197.5" y="151.9" class="st3" width="141.9" height="13"/>
<rect x="197.5" y="172.5" class="st3" width="141.9" height="13"/>
<rect x="197.5" y="193.1" class="st3" width="141.9" height="13"/>
<rect x="197.5" y="213.7" class="st3" width="141.9" height="13"/>
<rect x="326.3" y="235.9" class="st3" width="13" height="13"/>
<rect x="326.3" y="256.9" class="st3" width="13" height="13"/>
<path class="st4" d="M232.7,29.2h-8c-1.4,0-2.9-1.1-3.3-2.4l-3.2-9.4c-0.4-1.3-1.9-2.4-3.3-2.4h-68.7c-1.4,0-3,1-3.6,2.3l-4.6,9.6
	c-0.6,1.2-2.2,2.3-3.6,2.3h-8.5H70.6V47h485.5V29.2H232.7z"/>
<rect x="70.6" y="14.3" class="st4" width="485.5" height="32.7"/>
<circle class="st5" cx="79.1" cy="22.2" r="3.4"/>
<circle class="st5" cx="91.6" cy="22.2" r="3.4"/>
<circle class="st5" cx="103.3" cy="22.2" r="3.4"/>
<path class="st3" d="M370.9,43.7H115.5c-2.5,0-4.6-2.1-4.6-4.6v-1.7c0-2.5,2.1-4.6,4.6-4.6h255.3c2.5,0,4.6,2.1,4.6,4.6v1.7
	C375.5,41.6,373.4,43.7,370.9,43.7z"/>
<g>
	<rect x="81.3" y="34.7" class="st1" width="48.9" height="9"/>
	<path class="st2" d="M82,38.9l4.7-2.4v0.7l-3.9,2v0l3.9,2v0.7L82,39.5V38.9z"/>
	<path class="st2" d="M99,39.5l-4.7,2.4v-0.7l4-2v0l-4-2v-0.7l4.7,2.4V39.5z"/>
</g>
<g>
	<g>
		<path class="st6" d="M554.1,1H74c-8.4,0-15.2,6.8-15.2,15.2v319.3c0,8.4,6.8,15.2,15.2,15.2h480.1c8.4,0,15.2-6.8,15.2-15.2V16.2
			C569.3,7.8,562.5,1,554.1,1z M556.1,338.3H70.6V14h485.5V338.3z"/>
	</g>
	<path class="st6" d="M627.1,357.2L627.1,357.2c0,4-3.3,7.2-7.2,7.2H8.2c-4,0-7.2-3.3-7.2-7.2l0,0"/>
	<g>
		<path class="st6" d="M627.1,357.8v-12.6H365.2v1.4c0,2.3-1.9,4.2-4.2,4.2h-94c-2.3,0-4.2-1.9-4.2-4.2v-1.4H1v12"/>
		<path class="st6" d="M267.1,350.8h94c2.3,0,4.2-1.9,4.2-4.2v-1.4H262.9v1.4C262.9,348.9,264.7,350.8,267.1,350.8z"/>
	</g>
</g>
<g>
	<path class="st7" d="M121.1,40.8h-0.5l-1-3.1l-1,3.1H118l-1.2-3.9h0.6l0.9,3.2l1-3.2h0.5l1,3.2l0.9-3.2h0.6L121.1,40.8z"/>
	<path class="st7" d="M126.9,40.8h-0.5l-1-3.1l-1,3.1h-0.5l-1.2-3.9h0.6L124,40l1-3.2h0.5l1,3.2l0.9-3.2h0.6L126.9,40.8z"/>
	<path class="st7" d="M132.7,40.8h-0.5l-1-3.1l-1,3.1h-0.5l-1.2-3.9h0.6l0.9,3.2l1-3.2h0.5l1,3.2l0.9-3.2h0.6L132.7,40.8z"/>
	<path class="st7" d="M134.3,40.8V40h0.8v0.8H134.3z"/>
	<path class="st7" d="M139,40.4c-0.3,0.3-0.6,0.4-1.1,0.4c-0.5,0-0.9-0.2-1.1-0.4c-0.4-0.4-0.5-1-0.5-1.6c0-0.6,0.1-1.2,0.5-1.6
		c0.3-0.3,0.6-0.4,1.1-0.4c0.5,0,0.9,0.2,1.1,0.4c0.4,0.4,0.5,1,0.5,1.6C139.4,39.4,139.4,40,139,40.4z M138.6,37.6
		c-0.2-0.2-0.4-0.3-0.7-0.3s-0.5,0.1-0.7,0.3c-0.3,0.3-0.3,0.8-0.3,1.2c0,0.4,0,0.9,0.3,1.2c0.2,0.2,0.4,0.3,0.7,0.3
		s0.5-0.1,0.7-0.3c0.3-0.3,0.3-0.8,0.3-1.2C138.9,38.4,138.8,37.9,138.6,37.6z"/>
	<path class="st7" d="M142.9,37.6c-0.2-0.2-0.4-0.3-0.7-0.3c-0.6,0-0.9,0.5-0.9,1.1v2.4h-0.6v-3.9h0.6v0.5c0.2-0.3,0.6-0.5,1.1-0.5
		c0.4,0,0.7,0.1,0.9,0.4L142.9,37.6z"/>
	<path class="st7" d="M145,42.6c-0.6,0-0.9-0.2-1.3-0.5l0.4-0.4c0.3,0.3,0.5,0.4,0.9,0.4c0.8,0,1.1-0.5,1.1-1.2v-0.6
		c-0.3,0.4-0.7,0.5-1.1,0.5c-0.4,0-0.7-0.1-1-0.4c-0.4-0.4-0.5-1-0.5-1.6s0.1-1.2,0.5-1.6c0.2-0.2,0.6-0.3,1-0.3
		c0.4,0,0.8,0.1,1.1,0.5v-0.5h0.6v4.1C146.7,41.9,146.1,42.6,145,42.6z M145.1,37.3c-0.9,0-1,0.7-1,1.5c0,0.7,0.1,1.5,1,1.5
		s1-0.7,1-1.5C146.1,38,146,37.3,145.1,37.3z"/>
	<path class="st7" d="M150.4,40.8v-0.4c-0.3,0.3-0.6,0.4-1.1,0.4c-0.5,0-0.9-0.1-1.1-0.4c-0.2-0.2-0.3-0.5-0.3-0.8
		c0-0.7,0.5-1.1,1.4-1.1h1.2v-0.4c0-0.6-0.3-0.9-1-0.9c-0.5,0-0.8,0.1-1,0.4l-0.4-0.4c0.4-0.5,0.8-0.6,1.4-0.6
		c1.1,0,1.6,0.5,1.6,1.3v2.7H150.4z M150.4,38.9h-1.1c-0.6,0-0.9,0.2-0.9,0.7c0,0.5,0.3,0.7,0.9,0.7c0.3,0,0.6,0,0.9-0.3
		c0.1-0.1,0.2-0.4,0.2-0.7V38.9z"/>
	<path class="st7" d="M154.8,40.8v-2.4c0-0.7-0.4-1-1-1c-0.6,0-1,0.4-1,1v2.4h-0.6v-3.9h0.6v0.4c0.3-0.3,0.7-0.5,1.1-0.5
		c0.4,0,0.8,0.1,1,0.4c0.3,0.3,0.4,0.6,0.4,1.1v2.5H154.8z"/>
	<path class="st7" d="M159.2,40.8v-0.5c-0.3,0.4-0.7,0.5-1.1,0.5c-0.4,0-0.8-0.1-1-0.3c-0.4-0.4-0.5-1.1-0.5-1.7s0.1-1.3,0.5-1.7
		c0.2-0.2,0.6-0.3,1-0.3c0.4,0,0.8,0.1,1.1,0.5v-2.2h0.6v5.7H159.2z M158.2,37.3c-0.9,0-1,0.7-1,1.5s0.1,1.5,1,1.5
		c0.9,0,1-0.7,1-1.5S159,37.3,158.2,37.3z"/>
	<path class="st7" d="M163.7,40.4c-0.3,0.3-0.6,0.4-1.1,0.4c-0.5,0-0.9-0.2-1.1-0.4c-0.4-0.4-0.5-1-0.5-1.6c0-0.6,0.1-1.2,0.5-1.6
		c0.3-0.3,0.6-0.4,1.1-0.4c0.5,0,0.9,0.2,1.1,0.4c0.4,0.4,0.5,1,0.5,1.6C164.2,39.4,164.1,40,163.7,40.4z M163.3,37.6
		c-0.2-0.2-0.4-0.3-0.7-0.3c-0.3,0-0.5,0.1-0.7,0.3c-0.3,0.3-0.3,0.8-0.3,1.2c0,0.4,0,0.9,0.3,1.2c0.2,0.2,0.4,0.3,0.7,0.3
		c0.3,0,0.5-0.1,0.7-0.3c0.3-0.3,0.3-0.8,0.3-1.2C163.6,38.4,163.6,37.9,163.3,37.6z"/>
	<path class="st7" d="M167.9,40.8v-2.4c0-0.7-0.4-1-1-1c-0.6,0-1,0.4-1,1v2.4h-0.6v-3.9h0.6v0.4c0.3-0.3,0.7-0.5,1.1-0.5
		c0.4,0,0.8,0.1,1,0.4c0.3,0.3,0.4,0.6,0.4,1.1v2.5H167.9z"/>
	<path class="st7" d="M172.1,40.8v-0.4c-0.3,0.3-0.6,0.4-1.1,0.4c-0.5,0-0.9-0.1-1.1-0.4c-0.2-0.2-0.3-0.5-0.3-0.8
		c0-0.7,0.5-1.1,1.4-1.1h1.2v-0.4c0-0.6-0.3-0.9-1-0.9c-0.5,0-0.8,0.1-1,0.4l-0.4-0.4c0.4-0.5,0.8-0.6,1.4-0.6
		c1.1,0,1.6,0.5,1.6,1.3v2.7H172.1z M172.1,38.9H171c-0.6,0-0.9,0.2-0.9,0.7c0,0.5,0.3,0.7,0.9,0.7c0.3,0,0.6,0,0.9-0.3
		c0.1-0.1,0.2-0.4,0.2-0.7V38.9z"/>
	<path class="st7" d="M175.2,40.8c-0.7,0-1-0.5-1-1.1v-2.4h-0.5v-0.4h0.5v-1.2h0.6v1.2h0.8v0.4h-0.8v2.4c0,0.4,0.2,0.6,0.5,0.6h0.3
		v0.5H175.2z"/>
	<path class="st7" d="M176.8,35.7v-0.6h0.6v0.6H176.8z M176.8,40.8v-3.9h0.6v3.9H176.8z"/>
	<path class="st7" d="M181.3,40.4c-0.3,0.3-0.6,0.4-1.1,0.4c-0.5,0-0.9-0.2-1.1-0.4c-0.4-0.4-0.5-1-0.5-1.6c0-0.6,0.1-1.2,0.5-1.6
		c0.3-0.3,0.6-0.4,1.1-0.4c0.5,0,0.9,0.2,1.1,0.4c0.4,0.4,0.5,1,0.5,1.6C181.8,39.4,181.7,40,181.3,40.4z M180.9,37.6
		c-0.2-0.2-0.4-0.3-0.7-0.3s-0.5,0.1-0.7,0.3c-0.3,0.3-0.3,0.8-0.3,1.2c0,0.4,0,0.9,0.3,1.2c0.2,0.2,0.4,0.3,0.7,0.3
		s0.5-0.1,0.7-0.3c0.3-0.3,0.3-0.8,0.3-1.2C181.2,38.4,181.2,37.9,180.9,37.6z"/>
	<path class="st7" d="M185.6,40.8v-2.4c0-0.7-0.4-1-1-1c-0.6,0-1,0.4-1,1v2.4H183v-3.9h0.6v0.4c0.3-0.3,0.7-0.5,1.1-0.5
		c0.4,0,0.8,0.1,1,0.4c0.3,0.3,0.4,0.6,0.4,1.1v2.5H185.6z"/>
	<path class="st7" d="M187.5,40.8V40h0.8v0.8H187.5z"/>
	<path class="st7" d="M192.2,40.8v-2.4c0-0.7-0.4-1-1-1c-0.6,0-1,0.4-1,1v2.4h-0.6v-3.9h0.6v0.4c0.3-0.3,0.7-0.5,1.1-0.5
		c0.4,0,0.8,0.1,1,0.4c0.3,0.3,0.4,0.6,0.4,1.1v2.5H192.2z"/>
	<path class="st7" d="M196.7,40.8v-2.4c0-0.7-0.4-1-1-1s-1,0.4-1,1v2.4h-0.6v-5.7h0.6v2.2c0.3-0.3,0.7-0.5,1.1-0.5
		c0.9,0,1.4,0.6,1.4,1.5v2.5H196.7z"/>
	<path class="st7" d="M199.9,40.8c-0.7,0-1.2-0.2-1.6-0.6l0.4-0.4c0.3,0.3,0.7,0.5,1.2,0.5c0.6,0,1-0.2,1-0.7c0-0.3-0.2-0.5-0.7-0.6
		l-0.6-0.1c-0.8-0.1-1.2-0.4-1.2-1.1c0-0.7,0.6-1.2,1.4-1.2c0.6,0,1.1,0.1,1.4,0.4l-0.4,0.4c-0.3-0.2-0.6-0.3-1-0.3
		c-0.6,0-0.9,0.2-0.9,0.6c0,0.3,0.2,0.5,0.7,0.6l0.6,0.1c0.7,0.1,1.2,0.3,1.2,1.1C201.5,40.4,200.9,40.8,199.9,40.8z"/>
	<path class="st7" d="M202.6,40.8V40h0.8v0.8H202.6z"/>
	<path class="st7" d="M207.3,40.8v-0.4c-0.3,0.3-0.7,0.5-1.1,0.5c-0.4,0-0.8-0.1-1-0.4c-0.3-0.3-0.4-0.6-0.4-1.1v-2.5h0.6v2.4
		c0,0.7,0.4,1,1,1s1-0.4,1-1v-2.4h0.6v3.9H207.3z"/>
	<path class="st7" d="M211.9,40.8l-1.2-2l-0.8,0.9v1.1h-0.6v-5.7h0.6v3.8l1.8-2h0.7l-1.3,1.5l1.6,2.4H211.9z"/>
</g>
<g>
	<path class="st8" d="M634.2,389.7c0,12.6-10.2,22.8-22.8,22.8H441.3c-12.6,0-22.8-10.2-22.8-22.8v-97.1c0-12.6,10.2-22.8,22.8-22.8
		h170.1c12.6,0,22.8,10.2,22.8,22.8V389.7z"/>
	<path class="st9" d="M526.5,341.5c2.4-7.4,9.2-12.8,17.4-13h0.6c9.7,0,17.6,7.9,17.6,16.9l-0.1,1.7l-0.1,1
		c-0.6,6.8-4.6,14.1-9.4,19.5c0,0-17.4,17.7-26,22.1h-0.1c-8.6-4.4-26-22.1-26-22.1c-4.8-5.4-8.8-12.7-9.4-19.5l-0.1-1l-0.1-1.7
		c0-9.1,7.9-16.9,17.6-16.9h0.6c8.2,0.2,15,5.6,17.4,13H526.5z"/>
	<g>
		<path class="st10" d="M478.8,300.6c0.5,0.3,1,0.7,1.3,1.2v-5.3h3v15.1h-2.8v-1.5c-0.4,0.7-0.9,1.1-1.4,1.4s-1.2,0.5-2,0.5
			c-1.3,0-2.4-0.5-3.3-1.6c-0.9-1.1-1.3-2.4-1.3-4.1c0-1.9,0.4-3.4,1.3-4.5c0.9-1.1,2.1-1.6,3.5-1.6
			C477.7,300.2,478.3,300.3,478.8,300.6z M479.6,308.6c0.4-0.6,0.6-1.4,0.6-2.4c0-1.4-0.3-2.3-1-2.9c-0.4-0.4-0.9-0.5-1.5-0.5
			c-0.9,0-1.5,0.3-1.9,1c-0.4,0.6-0.6,1.4-0.6,2.4c0,1,0.2,1.9,0.6,2.5c0.4,0.6,1,0.9,1.9,0.9S479.1,309.2,479.6,308.6z"/>
		<path class="st10" d="M495.1,310.2c-0.9,1.2-2.4,1.7-4.3,1.7c-1.9,0-3.4-0.6-4.3-1.7c-0.9-1.2-1.4-2.6-1.4-4.2
			c0-1.6,0.5-3,1.4-4.2s2.4-1.8,4.3-1.8c1.9,0,3.4,0.6,4.3,1.8s1.4,2.6,1.4,4.2C496.5,307.7,496,309.1,495.1,310.2z M492.7,308.6
			c0.5-0.6,0.7-1.5,0.7-2.6c0-1.1-0.2-2-0.7-2.6c-0.5-0.6-1.1-0.9-2-0.9s-1.5,0.3-2,0.9c-0.5,0.6-0.7,1.5-0.7,2.6
			c0,1.1,0.2,2,0.7,2.6c0.5,0.6,1.1,0.9,2,0.9S492.3,309.2,492.7,308.6z"/>
		<path class="st10" d="M507.6,301.1c0.7,0.6,1.1,1.6,1.1,3v7.5h-3v-6.8c0-0.6-0.1-1-0.2-1.4c-0.3-0.6-0.8-0.9-1.6-0.9
			c-1,0-1.7,0.4-2,1.3c-0.2,0.4-0.3,1-0.3,1.7v6h-2.9v-11.2h2.8v1.6c0.4-0.6,0.7-1,1.1-1.2c0.6-0.5,1.4-0.7,2.3-0.7
			C505.9,300.2,506.8,300.5,507.6,301.1z"/>
		<path class="st10" d="M520.7,310.2c-0.9,1.2-2.4,1.7-4.3,1.7c-1.9,0-3.4-0.6-4.3-1.7c-0.9-1.2-1.4-2.6-1.4-4.2
			c0-1.6,0.5-3,1.4-4.2c0.9-1.2,2.4-1.8,4.3-1.8c1.9,0,3.4,0.6,4.3,1.8s1.4,2.6,1.4,4.2C522.1,307.7,521.7,309.1,520.7,310.2z
			 M518.4,308.6c0.5-0.6,0.7-1.5,0.7-2.6c0-1.1-0.2-2-0.7-2.6c-0.5-0.6-1.1-0.9-2-0.9s-1.5,0.3-2,0.9c-0.5,0.6-0.7,1.5-0.7,2.6
			c0,1.1,0.2,2,0.7,2.6c0.5,0.6,1.1,0.9,2,0.9S517.9,309.2,518.4,308.6z"/>
		<path class="st10" d="M530.4,300.2c0,0,0.1,0,0.3,0v3c-0.2,0-0.3,0-0.5,0c-0.1,0-0.3,0-0.3,0c-1.2,0-2,0.4-2.4,1.1
			c-0.2,0.4-0.3,1.1-0.3,2v5.3h-2.9v-11.2h2.8v1.9c0.5-0.7,0.8-1.3,1.2-1.5c0.5-0.5,1.3-0.7,2.1-0.7
			C530.3,300.2,530.4,300.2,530.4,300.2z"/>
		<path class="st10" d="M544.9,304.4c-0.1-0.4-0.2-0.8-0.4-1.1c-0.3-0.5-0.8-0.7-1.5-0.7c-1,0-1.7,0.5-2,1.5
			c-0.2,0.5-0.3,1.2-0.3,2.1c0,0.8,0.1,1.5,0.3,2c0.3,0.9,1,1.4,2,1.4c0.7,0,1.2-0.2,1.5-0.6c0.3-0.4,0.5-0.8,0.5-1.4h3
			c-0.1,0.9-0.4,1.7-1,2.5c-0.9,1.3-2.3,1.9-4.1,1.9c-1.8,0-3.1-0.5-4-1.6s-1.3-2.4-1.3-4.1c0-1.9,0.5-3.4,1.4-4.5s2.2-1.6,3.9-1.6
			c1.4,0,2.6,0.3,3.4,0.9c0.9,0.6,1.4,1.7,1.6,3.3H544.9z"/>
		<path class="st10" d="M554.3,304.8c0.5-0.1,0.9-0.2,1.2-0.3c0.4-0.2,0.6-0.5,0.6-0.8c0-0.5-0.2-0.8-0.5-0.9
			c-0.3-0.2-0.8-0.3-1.4-0.3c-0.7,0-1.2,0.2-1.5,0.5c-0.2,0.3-0.3,0.6-0.4,1h-2.8c0.1-1,0.3-1.8,0.8-2.4c0.8-1,2.1-1.5,4-1.5
			c1.2,0,2.3,0.2,3.3,0.7c1,0.5,1.4,1.4,1.4,2.7v5.1c0,0.4,0,0.8,0,1.3c0,0.4,0.1,0.6,0.2,0.8s0.2,0.2,0.4,0.3v0.4h-3.2
			c-0.1-0.2-0.2-0.4-0.2-0.6s-0.1-0.4-0.1-0.7c-0.4,0.4-0.9,0.8-1.4,1.1c-0.6,0.4-1.3,0.5-2.1,0.5c-1,0-1.9-0.3-2.5-0.9
			c-0.7-0.6-1-1.4-1-2.5c0-1.4,0.5-2.4,1.6-3c0.6-0.3,1.4-0.6,2.6-0.7L554.3,304.8z M556.1,306.2c-0.2,0.1-0.4,0.2-0.6,0.3
			c-0.2,0.1-0.5,0.1-0.8,0.2l-0.7,0.1c-0.6,0.1-1.1,0.2-1.3,0.4c-0.5,0.3-0.7,0.7-0.7,1.2c0,0.5,0.1,0.9,0.4,1.1
			c0.3,0.2,0.6,0.3,1,0.3c0.6,0,1.2-0.2,1.8-0.6s0.8-1,0.8-2V306.2z"/>
		<path class="st10" d="M567.8,300.2c0,0,0.1,0,0.3,0v3c-0.2,0-0.3,0-0.5,0c-0.1,0-0.3,0-0.3,0c-1.2,0-2,0.4-2.4,1.1
			c-0.2,0.4-0.3,1.1-0.3,2v5.3h-2.9v-11.2h2.8v1.9c0.5-0.7,0.8-1.3,1.2-1.5c0.5-0.5,1.3-0.7,2.1-0.7
			C567.7,300.2,567.8,300.2,567.8,300.2z"/>
		<path class="st10" d="M575.7,300.6c0.5,0.3,1,0.7,1.3,1.2v-5.3h3v15.1h-2.8v-1.5c-0.4,0.7-0.9,1.1-1.4,1.4s-1.2,0.5-2,0.5
			c-1.3,0-2.4-0.5-3.3-1.6c-0.9-1.1-1.3-2.4-1.3-4.1c0-1.9,0.4-3.4,1.3-4.5c0.9-1.1,2.1-1.6,3.5-1.6
			C574.6,300.2,575.2,300.3,575.7,300.6z M576.4,308.6c0.4-0.6,0.6-1.4,0.6-2.4c0-1.4-0.3-2.3-1-2.9c-0.4-0.4-0.9-0.5-1.5-0.5
			c-0.9,0-1.5,0.3-1.9,1c-0.4,0.6-0.6,1.4-0.6,2.4c0,1,0.2,1.9,0.6,2.5c0.4,0.6,1,0.9,1.9,0.9S576,309.2,576.4,308.6z"/>
	</g>
</g>
<g>
	<path class="st7" d="M207.3,138.3h-3.7v3.3h-0.5v-7.1h0.5v3.3h3.7v-3.3h0.5v7.1h-0.5V138.3z"/>
	<path class="st7" d="M212.8,141.1c-0.4,0.4-0.8,0.5-1.5,0.5c-0.7,0-1.1-0.1-1.4-0.4c-0.2-0.2-0.3-0.6-0.3-0.9
		c0-0.9,0.6-1.4,1.7-1.4h1.6v-0.5c0-0.8-0.4-1.2-1.4-1.2c-0.7,0-1,0.2-1.3,0.6l-0.4-0.3c0.4-0.6,0.9-0.7,1.7-0.7
		c1.3,0,1.9,0.6,1.9,1.6v3.3h-0.5V141.1z M211.3,139.3c-0.8,0-1.2,0.3-1.2,1c0,0.6,0.4,0.9,1.3,0.9c0.4,0,0.8,0,1.2-0.4
		c0.2-0.2,0.3-0.5,0.3-0.9v-0.6H211.3z"/>
	<path class="st7" d="M217,137.2c-0.8,0-1.3,0.7-1.3,1.5v3h-0.5v-4.8h0.5v0.6c0.3-0.4,0.8-0.7,1.4-0.7c0.5,0,0.8,0.1,1.2,0.5
		l-0.4,0.4C217.6,137.3,217.4,137.2,217,137.2z"/>
	<path class="st7" d="M221.1,137.2c-0.8,0-1.3,0.7-1.3,1.5v3h-0.5v-4.8h0.5v0.6c0.3-0.4,0.8-0.7,1.4-0.7c0.5,0,0.8,0.1,1.2,0.5
		l-0.4,0.4C221.7,137.3,221.5,137.2,221.1,137.2z"/>
	<path class="st7" d="M224,143.5c-0.2,0.2-0.6,0.3-0.9,0.3h-0.2v-0.4h0.2c0.5,0,0.7-0.2,0.9-0.7l0.4-1.1l-1.8-4.8h0.6l1.4,4.2
		l1.4-4.2h0.6l-2.2,6.1C224.2,143.2,224.1,143.4,224,143.5z"/>
</g>
<g>
	<path class="st7" d="M207.3,162.2l-1.7-6.2l-1.7,6.2h-0.5l-1.8-7.1h0.6l1.5,6.2l1.7-6.2h0.6l1.7,6.2l1.5-6.2h0.6l-1.8,7.1H207.3z"
		/>
	<path class="st7" d="M210.7,155.1h0.6v0.6h-0.6V155.1z M210.8,157.4h0.5v4.8h-0.5V157.4z"/>
	<path class="st7" d="M216.4,159.3c0-0.9-0.5-1.4-1.3-1.4c-0.9,0-1.4,0.5-1.4,1.4v3h-0.5v-4.8h0.5v0.6c0.4-0.4,0.8-0.6,1.4-0.6
		c0.5,0,1,0.1,1.3,0.5c0.3,0.3,0.5,0.8,0.5,1.3v3.1h-0.5V159.3z"/>
	<path class="st7" d="M221.8,161.6c-0.4,0.6-0.9,0.7-1.4,0.7c-0.5,0-0.9-0.2-1.2-0.4c-0.5-0.5-0.6-1.3-0.6-2s0.1-1.6,0.6-2
		c0.2-0.2,0.7-0.4,1.2-0.4c0.5,0,1,0.1,1.4,0.7v-2.9h0.5v7.1h-0.5V161.6z M220.4,157.8c-1.2,0-1.4,1-1.4,2s0.2,2,1.4,2s1.4-1,1.4-2
		S221.6,157.8,220.4,157.8z"/>
	<path class="st7" d="M226,161.9c0.6,0,0.9-0.2,1.3-0.6l0.4,0.3c-0.5,0.5-0.9,0.7-1.7,0.7c-1.3,0-2-0.9-2-2.5c0-1.6,0.7-2.5,1.9-2.5
		c1.2,0,1.9,0.9,1.9,2.3v0.2h-3.3C224.4,161.2,225,161.9,226,161.9z M227.1,158.6c-0.2-0.5-0.7-0.8-1.2-0.8c-0.6,0-1,0.3-1.2,0.8
		c-0.1,0.3-0.1,0.4-0.2,0.9h2.8C227.2,159.1,227.2,158.9,227.1,158.6z"/>
	<path class="st7" d="M231.2,157.8c-0.8,0-1.3,0.7-1.3,1.5v3h-0.5v-4.8h0.5v0.6c0.3-0.4,0.8-0.7,1.4-0.7c0.5,0,0.8,0.1,1.2,0.5
		l-0.4,0.4C231.9,157.9,231.6,157.8,231.2,157.8z"/>
	<path class="st7" d="M234.2,162.2h-0.5v-4.4H233v-0.4h0.7v-1c0-0.7,0.4-1.3,1.2-1.3h0.4v0.4h-0.3c-0.5,0-0.7,0.3-0.7,0.8v1h1.1v0.4
		h-1.1V162.2z"/>
	<path class="st7" d="M238.2,161.9c0.6,0,0.9-0.2,1.3-0.6l0.4,0.3c-0.5,0.5-0.9,0.7-1.7,0.7c-1.3,0-2-0.9-2-2.5
		c0-1.6,0.7-2.5,1.9-2.5c1.2,0,1.9,0.9,1.9,2.3v0.2h-3.3C236.6,161.2,237.2,161.9,238.2,161.9z M239.3,158.6
		c-0.2-0.5-0.7-0.8-1.2-0.8c-0.6,0-1,0.3-1.2,0.8c-0.1,0.3-0.1,0.4-0.2,0.9h2.8C239.4,159.1,239.4,158.9,239.3,158.6z"/>
	<path class="st7" d="M241.6,161v-5.9h0.5v5.9c0,0.5,0.2,0.8,0.7,0.8h0.3v0.4h-0.4C242,162.2,241.6,161.8,241.6,161z"/>
</g>
<g>
	<path class="st7" d="M205.2,175.5l-1.3,1.1V176l1.3-1.1h0.5v7.1h-0.5V175.5z"/>
	<path class="st7" d="M208.5,181.6l2.9-3.7c0.3-0.4,0.4-0.7,0.4-1.1c0-0.8-0.5-1.4-1.4-1.4c-0.7,0-1.4,0.4-1.4,1.4h-0.5
		c0-1.1,0.7-1.9,1.9-1.9c1.1,0,1.9,0.8,1.9,1.9c0,0.5-0.1,0.9-0.5,1.4l-2.7,3.5h3.2v0.4h-3.8V181.6z"/>
	<path class="st7" d="M216.9,178.3l-1.8,3.7h-0.5l1.6-3.3c-0.2,0.1-0.5,0.2-0.8,0.2c-1.2,0-1.8-0.9-1.8-2c0-1.1,0.7-2.1,1.9-2.1
		c1.2,0,1.9,0.8,1.9,2C217.3,177.3,217.2,177.7,216.9,178.3z M215.4,175.3c-0.8,0-1.4,0.6-1.4,1.6c0,0.8,0.5,1.6,1.4,1.6
		c0.8,0,1.4-0.6,1.4-1.6S216.3,175.3,215.4,175.3z"/>
	<path class="st7" d="M225.6,181.3c-0.5,0.5-1.1,0.7-1.8,0.7s-1.3-0.3-1.8-0.7c-0.7-0.6-0.7-1.3-0.7-2.9c0-1.6,0-2.2,0.7-2.9
		c0.5-0.5,1.1-0.7,1.8-0.7s1.3,0.3,1.8,0.7c0.6,0.6,0.7,1.3,0.7,2.9C226.3,180.1,226.3,180.7,225.6,181.3z M225.2,175.9
		c-0.4-0.4-0.8-0.5-1.3-0.5s-1,0.2-1.3,0.5c-0.5,0.5-0.5,1.1-0.5,2.6s0,2.1,0.5,2.6c0.4,0.4,0.8,0.5,1.3,0.5s1-0.2,1.3-0.5
		c0.5-0.5,0.5-1.1,0.5-2.6S225.7,176.4,225.2,175.9z"/>
	<path class="st7" d="M228.1,180.8v-5.9h0.5v5.9c0,0.5,0.2,0.8,0.7,0.8h0.3v0.4h-0.4C228.4,182,228.1,181.5,228.1,180.8z"/>
	<path class="st7" d="M233.9,181.4c-0.4,0.6-0.9,0.7-1.4,0.7c-0.5,0-0.9-0.2-1.2-0.4c-0.5-0.5-0.6-1.3-0.6-2s0.1-1.6,0.6-2
		c0.2-0.2,0.7-0.4,1.2-0.4c0.5,0,1,0.1,1.4,0.7v-2.9h0.5v7.1h-0.5V181.4z M232.5,177.6c-1.2,0-1.4,1-1.4,2s0.2,2,1.4,2s1.4-1,1.4-2
		S233.7,177.6,232.5,177.6z"/>
	<path class="st7" d="M240.8,182.1c-1,0-1.7-0.3-2.4-0.9l0.4-0.4c0.6,0.6,1.2,0.8,2,0.8c1.1,0,1.8-0.5,1.8-1.5c0-0.4-0.1-0.8-0.4-1
		c-0.3-0.2-0.4-0.3-1-0.4l-0.8-0.1c-0.5-0.1-1-0.2-1.3-0.5c-0.4-0.3-0.6-0.7-0.6-1.3c0-1.2,0.8-1.9,2.2-1.9c0.9,0,1.4,0.2,2,0.8
		l-0.3,0.3c-0.4-0.4-0.9-0.7-1.7-0.7c-1,0-1.6,0.6-1.6,1.5c0,0.4,0.1,0.7,0.4,0.9c0.2,0.2,0.7,0.4,1.1,0.4l0.8,0.1
		c0.7,0.1,1,0.2,1.3,0.5c0.4,0.3,0.6,0.8,0.6,1.4C243.2,181.3,242.3,182.1,240.8,182.1z"/>
	<path class="st7" d="M244.9,180.8v-3.2h-0.7v-0.4h0.7v-1.5h0.5v1.5h1.1v0.4h-1.1v3.2c0,0.5,0.2,0.8,0.7,0.8h0.3v0.4H246
		C245.3,182,244.9,181.5,244.9,180.8z"/>
	<path class="st7" d="M248,181.3h0.7v1.4l-0.7,0.7V181.3z"/>
	<path class="st7" d="M253.3,174.9h0.5v6.6h3.8v0.5h-4.3V174.9z"/>
	<path class="st7" d="M261.9,181.5c-0.3,0.3-0.8,0.5-1.3,0.5c-0.5,0-1-0.2-1.3-0.5c-0.5-0.5-0.6-1.2-0.6-1.9s0.1-1.4,0.6-1.9
		c0.3-0.3,0.8-0.5,1.3-0.5c0.5,0,1,0.2,1.3,0.5c0.5,0.5,0.6,1.2,0.6,1.9S262.4,181,261.9,181.5z M261.5,178c-0.3-0.3-0.6-0.4-1-0.4
		c-0.4,0-0.7,0.1-1,0.4c-0.4,0.4-0.4,1-0.4,1.6s0,1.2,0.4,1.6c0.3,0.3,0.6,0.4,1,0.4c0.4,0,0.7-0.1,1-0.4c0.4-0.4,0.4-1,0.4-1.6
		S261.9,178.4,261.5,178z"/>
	<path class="st7" d="M267.3,179c0-0.9-0.5-1.4-1.3-1.4c-0.9,0-1.4,0.5-1.4,1.4v3h-0.5v-4.8h0.5v0.6c0.4-0.4,0.8-0.6,1.4-0.6
		c0.5,0,1,0.1,1.3,0.5c0.3,0.3,0.5,0.8,0.5,1.3v3.1h-0.5V179z"/>
	<path class="st7" d="M272.7,181.4c-0.4,0.6-0.9,0.7-1.4,0.7c-0.5,0-0.9-0.2-1.2-0.4c-0.5-0.5-0.6-1.3-0.6-2s0.1-1.6,0.6-2
		c0.2-0.2,0.7-0.4,1.2-0.4c0.5,0,1,0.1,1.4,0.7v-2.9h0.5v7.1h-0.5V181.4z M271.3,177.6c-1.2,0-1.4,1-1.4,2s0.2,2,1.4,2s1.4-1,1.4-2
		S272.5,177.6,271.3,177.6z"/>
	<path class="st7" d="M278.1,181.5c-0.3,0.3-0.8,0.5-1.3,0.5c-0.5,0-1-0.2-1.3-0.5c-0.5-0.5-0.6-1.2-0.6-1.9s0.1-1.4,0.6-1.9
		c0.3-0.3,0.8-0.5,1.3-0.5c0.5,0,1,0.2,1.3,0.5c0.5,0.5,0.6,1.2,0.6,1.9S278.6,181,278.1,181.5z M277.8,178c-0.3-0.3-0.6-0.4-1-0.4
		s-0.7,0.1-1,0.4c-0.4,0.4-0.4,1-0.4,1.6s0,1.2,0.4,1.6c0.3,0.3,0.6,0.4,1,0.4s0.7-0.1,1-0.4c0.4-0.4,0.4-1,0.4-1.6
		S278.2,178.4,277.8,178z"/>
	<path class="st7" d="M283.6,179c0-0.9-0.5-1.4-1.3-1.4c-0.9,0-1.4,0.5-1.4,1.4v3h-0.5v-4.8h0.5v0.6c0.4-0.4,0.8-0.6,1.4-0.6
		c0.5,0,1,0.1,1.3,0.5c0.3,0.3,0.5,0.8,0.5,1.3v3.1h-0.5V179z"/>
</g>
<g>
	<path class="st7" d="M205.5,203.1c-1,0-1.7-0.3-2.4-0.9l0.4-0.4c0.6,0.6,1.2,0.8,2,0.8c1.1,0,1.8-0.5,1.8-1.5c0-0.4-0.1-0.8-0.4-1
		c-0.3-0.2-0.4-0.3-1-0.4l-0.8-0.1c-0.5-0.1-1-0.2-1.3-0.5c-0.4-0.3-0.6-0.7-0.6-1.3c0-1.2,0.8-1.9,2.2-1.9c0.9,0,1.4,0.2,2,0.8
		l-0.3,0.3c-0.4-0.4-0.9-0.7-1.7-0.7c-1,0-1.6,0.6-1.6,1.5c0,0.4,0.1,0.7,0.4,0.9c0.2,0.2,0.7,0.4,1.1,0.4l0.8,0.1
		c0.7,0.1,1,0.2,1.3,0.5c0.4,0.3,0.6,0.8,0.6,1.4C207.9,202.3,207,203.1,205.5,203.1z"/>
	<path class="st7" d="M209.6,195.9h4.3v0.5h-3.8v2.8h3.2v0.5h-3.2v2.9h3.8v0.5h-4.3V195.9z"/>
	<path class="st7" d="M217.1,196.5l-1.3,1.1V197l1.3-1.1h0.5v7.1h-0.5V196.5z"/>
	<path class="st7" d="M221.2,203l2.5-6.7H221v1.1h-0.5v-1.6h3.7v0.4l-2.5,6.7H221.2z"/>
	<path class="st7" d="M228.8,203l2.5-6.7h-2.7v1.1h-0.5v-1.6h3.7v0.4l-2.5,6.7H228.8z"/>
	<path class="st7" d="M233.5,195.9h4.3v0.5h-3.8v2.8h3.2v0.5h-3.2v2.9h3.8v0.5h-4.3V195.9z"/>
	<path class="st7" d="M240.1,199.3h3.2v0.5h-3.2v3.2h-0.5v-7.1h4.3v0.5h-3.8V199.3z"/>
</g>
<g>
	<path class="st7" d="M209.2,217.8l-2.2,4.9h-0.5l-2.2-4.9v5.9h-0.5v-7.1h0.5l2.5,5.5l2.4-5.5h0.5v7.1h-0.5V217.8z"/>
	<path class="st7" d="M214.6,223.2c-0.4,0.4-0.8,0.5-1.5,0.5c-0.7,0-1.1-0.1-1.4-0.4c-0.2-0.2-0.3-0.6-0.3-0.9
		c0-0.9,0.6-1.4,1.7-1.4h1.6v-0.5c0-0.8-0.4-1.2-1.4-1.2c-0.7,0-1,0.2-1.3,0.6l-0.4-0.3c0.4-0.6,0.9-0.7,1.7-0.7
		c1.3,0,1.9,0.6,1.9,1.6v3.3h-0.5V223.2z M213.1,221.3c-0.8,0-1.2,0.3-1.2,1c0,0.6,0.4,0.9,1.3,0.9c0.4,0,0.8,0,1.2-0.4
		c0.2-0.2,0.3-0.5,0.3-0.9v-0.6H213.1z"/>
	<path class="st7" d="M217,222.4v-5.9h0.5v5.9c0,0.5,0.2,0.8,0.7,0.8h0.3v0.4h-0.4C217.4,223.6,217,223.1,217,222.4z"/>
	<path class="st7" d="M221.4,223.2c0.6,0,0.9-0.2,1.3-0.6l0.4,0.3c-0.5,0.5-0.9,0.7-1.7,0.7c-1.3,0-2-0.9-2-2.5
		c0-1.6,0.7-2.5,1.9-2.5c1.2,0,1.9,0.9,1.9,2.3v0.2h-3.3C219.9,222.6,220.4,223.2,221.4,223.2z M222.5,220c-0.2-0.5-0.7-0.8-1.2-0.8
		c-0.6,0-1,0.3-1.2,0.8c-0.1,0.3-0.1,0.4-0.2,0.9h2.8C222.7,220.5,222.7,220.3,222.5,220z"/>
</g>
<polyline class="st11" points="329.9,241.9 334,244.8 342.9,234.6 "/>
<g>
	<polygon class="st12" points="362.3,262.6 367.5,269.3 372.1,265.7 366.9,259.1 372.6,256.5 347.4,239.5 358.4,267.6 	"/>
</g>
<g>
</g>
<g>
</g>
<g>
</g>
<g>
</g>
<g>
</g>
<g>
</g>
</svg>
