<?xml version="1.0" encoding="utf-8"?>
<!-- Generator: Adobe Illustrator 22.0.1, SVG Export Plug-In . SVG Version: 6.00 Build 0)  -->
<svg version="1.1" id="Layer_1" xmlns="http://www.w3.org/2000/svg" xmlns:xlink="http://www.w3.org/1999/xlink" x="0px" y="0px"
	 viewBox="0 0 666.5 412.7" style="enable-background:new 0 0 666.5 412.7;" xml:space="preserve">
<style type="text/css">
	.st0{fill:#FFFFFF;}
	.st1{fill:none;}
	.st2{enable-background:new    ;}
	.st3{fill:#2341C1;}
	.st4{fill:#1D1D1B;}
	.st5{fill:#DDDDDD;}
	.st6{fill:none;stroke:#FFFFFF;stroke-miterlimit:10;}
	.st7{fill:none;stroke:#1D1D1B;stroke-miterlimit:10;}
	.st8{fill:#1E1E1E;}
	.st9{fill:#FFFFFF;stroke:#1D1D1B;stroke-miterlimit:10;}
	.st10{fill:none;stroke:#FFFFFF;stroke-width:5;stroke-miterlimit:10;}
</style>
<path class="st0" d="M562.3,366.5H82.2c-8.4,0-15.2-6.8-15.2-15.2V30.7c0-8.4,6.8-15.2,15.2-15.2h480.1c8.4,0,15.2,6.8,15.2,15.2
	v320.6C577.5,359.7,570.7,366.5,562.3,366.5z"/>
<g>
	<rect x="121.1" y="111.3" class="st1" width="218.6" height="21.1"/>
	<g class="st2">
		<path class="st3" d="M121.3,117.8l1.9-0.3v0.9c0,0.5,0.1,0.9,0.4,1.1s0.6,0.4,1,0.4s0.7-0.1,1-0.4c0.2-0.3,0.4-0.6,0.4-1.1v-6.9
			h1.9v6.9c0,0.4-0.1,0.9-0.2,1.3c-0.2,0.4-0.4,0.7-0.7,1s-0.6,0.5-1,0.7s-0.8,0.3-1.3,0.3s-0.9-0.1-1.3-0.2c-0.4-0.2-0.7-0.4-1-0.7
			c-0.3-0.3-0.5-0.6-0.7-1s-0.2-0.8-0.2-1.3v-0.7H121.3z"/>
		<path class="st3" d="M132.9,114.3c0.5,0,1,0.1,1.4,0.3c0.4,0.2,0.8,0.4,1.1,0.8c0.3,0.3,0.6,0.7,0.8,1.2c0.2,0.4,0.3,0.9,0.3,1.5
			c0,0.5-0.1,1-0.3,1.5c-0.2,0.4-0.4,0.8-0.8,1.2c-0.3,0.3-0.7,0.6-1.1,0.8c-0.4,0.2-0.9,0.3-1.4,0.3s-1-0.1-1.4-0.3
			c-0.4-0.2-0.8-0.4-1.1-0.8c-0.3-0.3-0.6-0.7-0.8-1.2c-0.2-0.4-0.3-0.9-0.3-1.5c0-0.5,0.1-1,0.3-1.5s0.4-0.8,0.8-1.2
			c0.3-0.3,0.7-0.6,1.1-0.8C131.9,114.4,132.4,114.3,132.9,114.3z M132.9,120c0.2,0,0.4,0,0.7-0.1c0.2-0.1,0.4-0.2,0.6-0.4
			c0.2-0.2,0.3-0.4,0.4-0.6c0.1-0.2,0.1-0.5,0.1-0.9c0-0.3,0-0.6-0.1-0.9c-0.1-0.2-0.2-0.4-0.4-0.6s-0.3-0.3-0.6-0.4
			c-0.2-0.1-0.4-0.1-0.7-0.1s-0.4,0-0.7,0.1c-0.2,0.1-0.4,0.2-0.6,0.4c-0.2,0.2-0.3,0.4-0.4,0.6c-0.1,0.2-0.1,0.5-0.1,0.9
			c0,0.3,0,0.6,0.1,0.9c0.1,0.2,0.2,0.4,0.4,0.6s0.3,0.3,0.6,0.4C132.4,119.9,132.6,120,132.9,120z"/>
		<path class="st3" d="M137.7,112.3c0-0.3,0.1-0.6,0.3-0.8c0.2-0.2,0.5-0.3,0.8-0.3s0.6,0.1,0.8,0.3c0.2,0.2,0.3,0.5,0.3,0.8
			s-0.1,0.6-0.3,0.8c-0.2,0.2-0.5,0.3-0.8,0.3s-0.6-0.1-0.8-0.3S137.7,112.6,137.7,112.3z M137.9,121.4v-6.9h1.9v6.9H137.9z"/>
		<path class="st3" d="M143.7,121.4h-1.9v-6.9h1.8v0.9c0.2-0.4,0.5-0.6,0.9-0.8s0.7-0.3,1.1-0.3c0.4,0,0.8,0.1,1.1,0.2
			s0.6,0.3,0.8,0.6c0.2,0.2,0.4,0.5,0.5,0.9c0.1,0.3,0.1,0.7,0.1,1.1v4.3h-1.9v-4c0-0.4-0.1-0.7-0.3-1s-0.5-0.4-1-0.4
			c-0.4,0-0.7,0.1-1,0.4s-0.3,0.6-0.3,1L143.7,121.4L143.7,121.4z"/>
		<path class="st3" d="M155.7,114.5h1.4v1.7h-1.4v2.9c0,0.3,0.1,0.5,0.2,0.6c0.1,0.1,0.3,0.2,0.6,0.2c0.1,0,0.2,0,0.3,0s0.2,0,0.2,0
			v1.5c-0.1,0-0.2,0.1-0.4,0.1s-0.4,0.1-0.7,0.1c-0.7,0-1.2-0.2-1.6-0.6c-0.4-0.4-0.6-0.9-0.6-1.6v-3.2h-1.2v-1.7h0.4
			c0.4,0,0.6-0.1,0.8-0.3c0.2-0.2,0.3-0.5,0.3-0.8v-1h1.7V114.5z"/>
		<path class="st3" d="M160.2,121.4h-1.9v-10.1h1.9v3.8c0.2-0.3,0.5-0.5,0.9-0.6c0.3-0.1,0.7-0.2,1-0.2c0.4,0,0.8,0.1,1.1,0.2
			s0.6,0.3,0.8,0.6c0.2,0.2,0.4,0.5,0.5,0.9c0.1,0.3,0.2,0.7,0.2,1.1v4.3h-1.9v-4c0-0.4-0.1-0.7-0.3-1s-0.5-0.4-1-0.4
			c-0.4,0-0.7,0.1-0.9,0.4s-0.3,0.6-0.4,1L160.2,121.4L160.2,121.4z"/>
		<path class="st3" d="M172.7,119.5c-0.1,0.3-0.2,0.6-0.4,0.8s-0.4,0.5-0.7,0.7s-0.6,0.4-0.9,0.5c-0.4,0.1-0.7,0.2-1.2,0.2
			s-0.9-0.1-1.4-0.2s-0.8-0.4-1.1-0.7s-0.6-0.7-0.8-1.2s-0.3-1-0.3-1.6s0.1-1.1,0.3-1.5s0.4-0.8,0.7-1.1c0.3-0.3,0.7-0.6,1.1-0.7
			s0.8-0.3,1.3-0.3c1.1,0,1.9,0.3,2.5,1c0.6,0.6,0.9,1.5,0.9,2.6c0,0.1,0,0.3,0,0.4s0,0.2,0,0.2h-4.9c0,0.2,0.1,0.4,0.2,0.6
			c0.1,0.2,0.2,0.4,0.4,0.5s0.3,0.2,0.5,0.3c0.2,0.1,0.4,0.1,0.7,0.1c0.4,0,0.8-0.1,1-0.3c0.2-0.2,0.4-0.4,0.5-0.8L172.7,119.5z
			 M171,117.2c0-0.2,0-0.3-0.1-0.5s-0.2-0.3-0.3-0.4s-0.3-0.2-0.5-0.3s-0.4-0.1-0.7-0.1c-0.2,0-0.5,0-0.6,0.1
			c-0.2,0.1-0.3,0.2-0.5,0.3s-0.2,0.3-0.3,0.4c-0.1,0.2-0.1,0.3-0.1,0.5H171z"/>
		<path class="st3" d="M177.3,116.5c0-0.8,0.1-1.5,0.4-2.2c0.3-0.6,0.7-1.2,1.1-1.6s1-0.8,1.6-1s1.3-0.4,1.9-0.4s1.3,0.1,1.9,0.4
			c0.6,0.2,1.2,0.6,1.6,1s0.8,1,1.1,1.6s0.4,1.4,0.4,2.2s-0.1,1.5-0.4,2.2c-0.3,0.6-0.7,1.2-1.1,1.6s-1,0.8-1.6,1s-1.3,0.4-1.9,0.4
			s-1.3-0.1-1.9-0.4c-0.6-0.2-1.2-0.6-1.6-1s-0.8-1-1.1-1.6C177.4,118,177.3,117.3,177.3,116.5z M179.3,116.5c0,0.6,0.1,1,0.3,1.5
			s0.4,0.8,0.7,1c0.3,0.3,0.6,0.5,1,0.6s0.7,0.2,1.1,0.2c0.4,0,0.8-0.1,1.1-0.2c0.4-0.1,0.7-0.3,1-0.6c0.3-0.3,0.5-0.6,0.7-1
			s0.3-0.9,0.3-1.5s-0.1-1-0.3-1.5c-0.2-0.4-0.4-0.8-0.7-1s-0.6-0.5-1-0.6s-0.8-0.2-1.1-0.2c-0.4,0-0.8,0.1-1.1,0.2
			c-0.4,0.1-0.7,0.3-1,0.6s-0.5,0.6-0.7,1C179.4,115.4,179.3,115.9,179.3,116.5z"/>
		<path class="st3" d="M193.2,116.4c-0.2,0-0.4-0.1-0.6-0.1c-0.2,0-0.5,0-0.7,0.1s-0.4,0.2-0.6,0.3c-0.2,0.1-0.3,0.3-0.4,0.6
			s-0.1,0.6-0.1,0.9v3.2H189v-6.9h1.8v1c0.1-0.2,0.2-0.4,0.4-0.6c0.2-0.1,0.3-0.3,0.5-0.3c0.2-0.1,0.4-0.1,0.5-0.2
			c0.2,0,0.3,0,0.5,0c0.1,0,0.1,0,0.2,0c0.1,0,0.1,0,0.2,0v2H193.2z"/>
		<path class="st3" d="M195.7,121.4c0.1,0.4,0.2,0.7,0.5,0.9c0.3,0.2,0.6,0.4,1.1,0.4c0.6,0,1-0.2,1.4-0.5c0.3-0.3,0.5-0.8,0.5-1.5
			v-0.5c-0.1,0.2-0.4,0.4-0.7,0.6s-0.7,0.3-1.2,0.3s-0.9-0.1-1.3-0.3s-0.7-0.4-1-0.7s-0.5-0.7-0.7-1.1s-0.2-0.9-0.2-1.3
			c0-0.5,0.1-0.9,0.2-1.3c0.2-0.4,0.4-0.8,0.7-1.1c0.3-0.3,0.6-0.6,1-0.7c0.4-0.2,0.8-0.3,1.3-0.3c0.6,0,1,0.1,1.3,0.3
			c0.3,0.2,0.5,0.4,0.7,0.6v-0.8h1.8v6.1c0,0.5-0.1,0.9-0.2,1.4s-0.3,0.8-0.6,1.1c-0.3,0.3-0.7,0.6-1.1,0.8c-0.5,0.2-1,0.3-1.7,0.3
			c-0.5,0-0.9-0.1-1.3-0.2c-0.4-0.1-0.7-0.3-1-0.5s-0.5-0.5-0.7-0.8s-0.3-0.6-0.3-0.9L195.7,121.4z M197.5,119.5
			c0.5,0,0.9-0.2,1.2-0.5s0.5-0.7,0.5-1.3c0-0.5-0.2-1-0.5-1.3s-0.7-0.5-1.1-0.5c-0.2,0-0.5,0-0.7,0.1s-0.4,0.2-0.5,0.4
			s-0.3,0.3-0.4,0.6s-0.1,0.5-0.1,0.7c0,0.5,0.2,1,0.5,1.3C196.6,119.4,197,119.5,197.5,119.5z"/>
		<path class="st3" d="M202.3,119.6c0-0.3,0.1-0.6,0.2-0.8c0.1-0.2,0.3-0.4,0.4-0.6c0.2-0.2,0.4-0.3,0.7-0.4
			c0.2-0.1,0.5-0.2,0.8-0.2l1.7-0.3c0.2,0,0.3-0.1,0.4-0.2s0.1-0.2,0.1-0.3c0-0.2-0.1-0.5-0.3-0.6c-0.2-0.2-0.5-0.3-0.9-0.3
			s-0.7,0.1-0.9,0.3c-0.2,0.2-0.3,0.5-0.4,0.8l-1.7-0.3c0-0.3,0.1-0.5,0.3-0.8c0.1-0.3,0.3-0.5,0.6-0.7s0.5-0.4,0.9-0.5
			s0.8-0.2,1.2-0.2c0.5,0,1,0.1,1.4,0.2s0.7,0.3,0.9,0.6c0.2,0.2,0.4,0.5,0.5,0.8s0.2,0.6,0.2,1v3.4c0,0.2,0,0.4,0,0.6
			s0,0.4,0.1,0.5h-1.7c0-0.1,0-0.2,0-0.4c0-0.2,0-0.3,0-0.4c-0.2,0.3-0.4,0.5-0.8,0.7c-0.3,0.2-0.8,0.3-1.3,0.3
			c-0.4,0-0.7-0.1-1-0.2s-0.5-0.3-0.7-0.5s-0.4-0.4-0.5-0.7S202.3,119.8,202.3,119.6z M205.1,120.2c0.2,0,0.4,0,0.6-0.1
			c0.2-0.1,0.3-0.1,0.5-0.3c0.1-0.1,0.3-0.3,0.3-0.5c0.1-0.2,0.1-0.5,0.1-0.8v-0.3l-1.6,0.2c-0.2,0-0.4,0.1-0.6,0.3
			c-0.2,0.1-0.2,0.3-0.2,0.6c0,0.2,0.1,0.4,0.2,0.6C204.6,120.2,204.8,120.2,205.1,120.2z"/>
		<path class="st3" d="M212.2,121.4h-1.9v-6.9h1.8v0.9c0.2-0.4,0.5-0.6,0.9-0.8s0.7-0.3,1.1-0.3c0.4,0,0.8,0.1,1.1,0.2
			s0.6,0.3,0.8,0.6c0.2,0.2,0.4,0.5,0.5,0.9c0.1,0.3,0.1,0.7,0.1,1.1v4.3h-1.9v-4c0-0.4-0.1-0.7-0.3-1s-0.5-0.4-1-0.4
			c-0.4,0-0.7,0.1-1,0.4s-0.3,0.6-0.3,1L212.2,121.4L212.2,121.4z"/>
		<path class="st3" d="M222.1,121.4v-9.9h3.6c0.7,0,1.4,0.1,2,0.3c0.6,0.2,1.1,0.5,1.5,1c0.4,0.4,0.8,0.9,1,1.6
			c0.2,0.6,0.4,1.3,0.4,2.1s-0.1,1.5-0.4,2.1c-0.2,0.6-0.6,1.1-1,1.6c-0.4,0.4-1,0.7-1.6,1c-0.6,0.2-1.3,0.3-2,0.3L222.1,121.4
			L222.1,121.4z M225.6,119.6c0.4,0,0.8-0.1,1.1-0.2c0.4-0.1,0.7-0.3,1-0.6c0.3-0.3,0.5-0.6,0.6-1s0.2-0.9,0.2-1.4s-0.1-1-0.2-1.4
			c-0.2-0.4-0.4-0.7-0.6-1c-0.3-0.3-0.6-0.5-0.9-0.6c-0.4-0.1-0.7-0.2-1.1-0.2H224v6.3L225.6,119.6L225.6,119.6z"/>
		<path class="st3" d="M235.2,114.3c0.5,0,1,0.1,1.4,0.3c0.4,0.2,0.8,0.4,1.1,0.8c0.3,0.3,0.6,0.7,0.8,1.2c0.2,0.4,0.3,0.9,0.3,1.5
			c0,0.5-0.1,1-0.3,1.5c-0.2,0.4-0.4,0.8-0.8,1.2c-0.3,0.3-0.7,0.6-1.1,0.8c-0.4,0.2-0.9,0.3-1.4,0.3s-1-0.1-1.4-0.3
			c-0.4-0.2-0.8-0.4-1.1-0.8c-0.3-0.3-0.6-0.7-0.8-1.2c-0.2-0.4-0.3-0.9-0.3-1.5c0-0.5,0.1-1,0.3-1.5s0.4-0.8,0.8-1.2
			c0.3-0.3,0.7-0.6,1.1-0.8C234.2,114.4,234.7,114.3,235.2,114.3z M235.2,120c0.2,0,0.4,0,0.7-0.1c0.2-0.1,0.4-0.2,0.6-0.4
			c0.2-0.2,0.3-0.4,0.4-0.6c0.1-0.2,0.1-0.5,0.1-0.9c0-0.3,0-0.6-0.1-0.9c-0.1-0.2-0.2-0.4-0.4-0.6s-0.3-0.3-0.6-0.4
			c-0.2-0.1-0.4-0.1-0.7-0.1s-0.4,0-0.7,0.1c-0.2,0.1-0.4,0.2-0.6,0.4c-0.2,0.2-0.3,0.4-0.4,0.6c-0.1,0.2-0.1,0.5-0.1,0.9
			c0,0.3,0,0.6,0.1,0.9c0.1,0.2,0.2,0.4,0.4,0.6s0.3,0.3,0.6,0.4C234.8,119.9,235,120,235.2,120z"/>
		<path class="st3" d="M242.2,121.4h-1.9v-6.9h1.8v0.9c0.2-0.4,0.5-0.6,0.9-0.8s0.7-0.3,1.1-0.3c0.4,0,0.8,0.1,1.1,0.2
			s0.6,0.3,0.8,0.6c0.2,0.2,0.4,0.5,0.5,0.9c0.1,0.3,0.1,0.7,0.1,1.1v4.3h-1.9v-4c0-0.4-0.1-0.7-0.3-1s-0.5-0.4-1-0.4
			c-0.4,0-0.7,0.1-1,0.4s-0.3,0.6-0.3,1L242.2,121.4L242.2,121.4z"/>
		<path class="st3" d="M251.6,114.3c0.5,0,1,0.1,1.4,0.3c0.4,0.2,0.8,0.4,1.1,0.8c0.3,0.3,0.6,0.7,0.8,1.2c0.2,0.4,0.3,0.9,0.3,1.5
			c0,0.5-0.1,1-0.3,1.5c-0.2,0.4-0.4,0.8-0.8,1.2c-0.3,0.3-0.7,0.6-1.1,0.8c-0.4,0.2-0.9,0.3-1.4,0.3s-1-0.1-1.4-0.3
			c-0.4-0.2-0.8-0.4-1.1-0.8c-0.3-0.3-0.6-0.7-0.8-1.2c-0.2-0.4-0.3-0.9-0.3-1.5c0-0.5,0.1-1,0.3-1.5s0.4-0.8,0.8-1.2
			c0.3-0.3,0.7-0.6,1.1-0.8C250.6,114.4,251.1,114.3,251.6,114.3z M251.6,120c0.2,0,0.4,0,0.7-0.1c0.2-0.1,0.4-0.2,0.6-0.4
			c0.2-0.2,0.3-0.4,0.4-0.6c0.1-0.2,0.1-0.5,0.1-0.9c0-0.3,0-0.6-0.1-0.9c-0.1-0.2-0.2-0.4-0.4-0.6s-0.3-0.3-0.6-0.4
			c-0.2-0.1-0.4-0.1-0.7-0.1s-0.4,0-0.7,0.1c-0.2,0.1-0.4,0.2-0.6,0.4c-0.2,0.2-0.3,0.4-0.4,0.6c-0.1,0.2-0.1,0.5-0.1,0.9
			c0,0.3,0,0.6,0.1,0.9c0.1,0.2,0.2,0.4,0.4,0.6s0.3,0.3,0.6,0.4C251.1,119.9,251.3,120,251.6,120z"/>
		<path class="st3" d="M260.9,116.4c-0.2,0-0.4-0.1-0.6-0.1s-0.5,0-0.7,0.1s-0.4,0.2-0.6,0.3c-0.2,0.1-0.3,0.3-0.4,0.6
			s-0.1,0.6-0.1,0.9v3.2h-1.9v-6.9h1.8v1c0.1-0.2,0.2-0.4,0.4-0.6c0.2-0.1,0.3-0.3,0.5-0.3c0.2-0.1,0.4-0.1,0.5-0.2
			c0.2,0,0.3,0,0.5,0c0.1,0,0.1,0,0.2,0s0.1,0,0.2,0v2H260.9z"/>
		<path class="st3" d="M261.9,112.4c0-0.3,0.1-0.5,0.3-0.7s0.5-0.3,0.8-0.3c0.4,0,0.7,0.1,0.9,0.4s0.3,0.6,0.3,1
			c0,0.5-0.1,0.9-0.2,1.2c-0.1,0.3-0.3,0.6-0.5,0.8c-0.2,0.2-0.4,0.4-0.7,0.5s-0.5,0.2-0.7,0.2v-0.9c0.3,0,0.5-0.2,0.8-0.4
			c0.2-0.2,0.4-0.5,0.4-0.8c-0.1,0-0.2,0.1-0.3,0.1c-0.3,0-0.6-0.1-0.7-0.3C262,113,261.9,112.7,261.9,112.4z"/>
		<path class="st3" d="M266.4,119.2c0,0.3,0.1,0.5,0.3,0.7s0.5,0.3,0.9,0.3c0.3,0,0.5-0.1,0.7-0.2c0.1-0.1,0.2-0.3,0.2-0.5
			s-0.1-0.3-0.2-0.4s-0.3-0.2-0.6-0.3l-0.9-0.2c-0.7-0.1-1.2-0.4-1.5-0.8s-0.5-0.8-0.5-1.3c0-0.3,0.1-0.6,0.2-0.9s0.3-0.5,0.5-0.7
			s0.5-0.4,0.8-0.5s0.7-0.2,1-0.2c0.5,0,0.9,0.1,1.2,0.2c0.3,0.1,0.6,0.3,0.8,0.5s0.4,0.4,0.5,0.7c0.1,0.2,0.2,0.4,0.2,0.6l-1.6,0.4
			c0-0.1,0-0.2-0.1-0.3s-0.1-0.2-0.2-0.3c-0.1-0.1-0.2-0.2-0.3-0.2c-0.1-0.1-0.3-0.1-0.5-0.1s-0.5,0.1-0.6,0.2
			c-0.2,0.1-0.3,0.3-0.3,0.5s0.1,0.3,0.2,0.4s0.3,0.2,0.5,0.2l1,0.2c0.7,0.1,1.2,0.4,1.5,0.8s0.5,0.8,0.5,1.3c0,0.3-0.1,0.6-0.2,0.8
			c-0.1,0.3-0.3,0.5-0.5,0.7s-0.5,0.4-0.8,0.5s-0.7,0.2-1.2,0.2s-1-0.1-1.3-0.2c-0.4-0.1-0.6-0.3-0.9-0.5c-0.2-0.2-0.4-0.4-0.5-0.7
			c-0.1-0.2-0.2-0.5-0.2-0.7L266.4,119.2z"/>
		<path class="st3" d="M278.4,117.6h-1v3.8h-1.9v-9.9h3.9c0.5,0,0.9,0.1,1.3,0.2c0.4,0.2,0.7,0.4,1,0.6s0.5,0.6,0.6,1
			s0.2,0.8,0.2,1.2c0,0.7-0.2,1.3-0.6,1.8s-0.9,0.8-1.5,1l2.1,4.1h-2.2L278.4,117.6z M278.9,115.9c0.5,0,0.9-0.1,1.1-0.4
			s0.4-0.6,0.4-1s-0.1-0.8-0.4-1s-0.7-0.4-1.1-0.4h-1.6v2.8H278.9z"/>
		<path class="st3" d="M290,119.5c-0.1,0.3-0.2,0.6-0.4,0.8s-0.4,0.5-0.7,0.7c-0.3,0.2-0.6,0.4-0.9,0.5c-0.4,0.1-0.7,0.2-1.2,0.2
			s-0.9-0.1-1.4-0.2s-0.8-0.4-1.1-0.7s-0.6-0.7-0.8-1.2c-0.2-0.5-0.3-1-0.3-1.6s0.1-1.1,0.3-1.5c0.2-0.4,0.4-0.8,0.7-1.1
			c0.3-0.3,0.7-0.6,1.1-0.7s0.8-0.3,1.3-0.3c1.1,0,1.9,0.3,2.5,1c0.6,0.6,0.9,1.5,0.9,2.6c0,0.1,0,0.3,0,0.4s0,0.2,0,0.2h-4.9
			c0,0.2,0.1,0.4,0.2,0.6s0.2,0.4,0.4,0.5c0.2,0.1,0.3,0.2,0.5,0.3c0.2,0.1,0.4,0.1,0.7,0.1c0.4,0,0.8-0.1,1-0.3
			c0.2-0.2,0.4-0.4,0.5-0.8L290,119.5z M288.3,117.2c0-0.2,0-0.3-0.1-0.5s-0.2-0.3-0.3-0.4s-0.3-0.2-0.5-0.3s-0.4-0.1-0.7-0.1
			c-0.2,0-0.5,0-0.6,0.1c-0.2,0.1-0.3,0.2-0.5,0.3s-0.2,0.3-0.3,0.4c-0.1,0.2-0.1,0.3-0.1,0.5H288.3z"/>
		<path class="st3" d="M292.8,121.4c0.1,0.4,0.2,0.7,0.5,0.9c0.3,0.2,0.6,0.4,1.1,0.4c0.6,0,1-0.2,1.4-0.5c0.3-0.3,0.5-0.8,0.5-1.5
			v-0.5c-0.1,0.2-0.4,0.4-0.7,0.6s-0.7,0.3-1.2,0.3s-0.9-0.1-1.3-0.3s-0.7-0.4-1-0.7s-0.5-0.7-0.7-1.1s-0.2-0.9-0.2-1.3
			c0-0.5,0.1-0.9,0.2-1.3c0.2-0.4,0.4-0.8,0.7-1.1c0.3-0.3,0.6-0.6,1-0.7c0.4-0.2,0.8-0.3,1.3-0.3c0.6,0,1,0.1,1.3,0.3
			c0.3,0.2,0.5,0.4,0.7,0.6v-0.8h1.8v6.1c0,0.5-0.1,0.9-0.2,1.4s-0.3,0.8-0.6,1.1c-0.3,0.3-0.7,0.6-1.1,0.8c-0.5,0.2-1,0.3-1.7,0.3
			c-0.5,0-0.9-0.1-1.3-0.2s-0.7-0.3-1-0.5s-0.5-0.5-0.7-0.8s-0.3-0.6-0.3-0.9L292.8,121.4z M294.6,119.5c0.5,0,0.9-0.2,1.2-0.5
			c0.3-0.3,0.5-0.7,0.5-1.3c0-0.5-0.2-1-0.5-1.3s-0.7-0.5-1.1-0.5c-0.2,0-0.5,0-0.7,0.1s-0.4,0.2-0.5,0.4s-0.3,0.3-0.4,0.6
			s-0.1,0.5-0.1,0.7c0,0.5,0.2,1,0.5,1.3C293.7,119.4,294.1,119.5,294.6,119.5z"/>
		<path class="st3" d="M299.7,112.3c0-0.3,0.1-0.6,0.3-0.8c0.2-0.2,0.5-0.3,0.8-0.3s0.6,0.1,0.8,0.3c0.2,0.2,0.3,0.5,0.3,0.8
			s-0.1,0.6-0.3,0.8c-0.2,0.2-0.5,0.3-0.8,0.3s-0.6-0.1-0.8-0.3C299.8,112.9,299.7,112.6,299.7,112.3z M299.9,121.4v-6.9h1.9v6.9
			H299.9z"/>
		<path class="st3" d="M304.8,119.2c0,0.3,0.1,0.5,0.3,0.7s0.5,0.3,0.9,0.3c0.3,0,0.5-0.1,0.7-0.2c0.1-0.1,0.2-0.3,0.2-0.5
			s-0.1-0.3-0.2-0.4s-0.3-0.2-0.6-0.3l-0.9-0.2c-0.7-0.1-1.2-0.4-1.5-0.8s-0.5-0.8-0.5-1.3c0-0.3,0.1-0.6,0.2-0.9s0.3-0.5,0.5-0.7
			s0.5-0.4,0.8-0.5s0.7-0.2,1-0.2c0.5,0,0.9,0.1,1.2,0.2c0.3,0.1,0.6,0.3,0.8,0.5s0.4,0.4,0.5,0.7c0.1,0.2,0.2,0.4,0.2,0.6l-1.6,0.4
			c0-0.1,0-0.2-0.1-0.3s-0.1-0.2-0.2-0.3c-0.1-0.1-0.2-0.2-0.3-0.2c-0.1-0.1-0.3-0.1-0.5-0.1s-0.5,0.1-0.6,0.2
			c-0.2,0.1-0.3,0.3-0.3,0.5s0.1,0.3,0.2,0.4s0.3,0.2,0.5,0.2l1,0.2c0.7,0.1,1.2,0.4,1.5,0.8s0.5,0.8,0.5,1.3c0,0.3-0.1,0.6-0.2,0.8
			c-0.1,0.3-0.3,0.5-0.5,0.7s-0.5,0.4-0.8,0.5s-0.7,0.2-1.2,0.2s-1-0.1-1.3-0.2c-0.4-0.1-0.6-0.3-0.9-0.5c-0.2-0.2-0.4-0.4-0.5-0.7
			c-0.1-0.2-0.2-0.5-0.2-0.7L304.8,119.2z"/>
		<path class="st3" d="M312.5,114.5h1.4v1.7h-1.4v2.9c0,0.3,0.1,0.5,0.2,0.6s0.3,0.2,0.6,0.2c0.1,0,0.2,0,0.3,0c0.1,0,0.2,0,0.2,0
			v1.5c-0.1,0-0.2,0.1-0.4,0.1c-0.2,0-0.4,0.1-0.7,0.1c-0.7,0-1.2-0.2-1.6-0.6s-0.6-0.9-0.6-1.6v-3.2h-1.2v-1.7h0.4
			c0.4,0,0.6-0.1,0.8-0.3c0.2-0.2,0.3-0.5,0.3-0.8v-1h1.7L312.5,114.5L312.5,114.5z"/>
		<path class="st3" d="M321.6,119.5c-0.1,0.3-0.2,0.6-0.4,0.8s-0.4,0.5-0.7,0.7c-0.3,0.2-0.6,0.4-0.9,0.5c-0.4,0.1-0.7,0.2-1.2,0.2
			s-0.9-0.1-1.4-0.2s-0.8-0.4-1.1-0.7s-0.6-0.7-0.8-1.2c-0.2-0.5-0.3-1-0.3-1.6s0.1-1.1,0.3-1.5c0.2-0.4,0.4-0.8,0.7-1.1
			c0.3-0.3,0.7-0.6,1.1-0.7s0.8-0.3,1.3-0.3c1.1,0,1.9,0.3,2.5,1c0.6,0.6,0.9,1.5,0.9,2.6c0,0.1,0,0.3,0,0.4s0,0.2,0,0.2h-4.9
			c0,0.2,0.1,0.4,0.2,0.6s0.2,0.4,0.4,0.5c0.2,0.1,0.3,0.2,0.5,0.3c0.2,0.1,0.4,0.1,0.7,0.1c0.4,0,0.8-0.1,1-0.3
			c0.2-0.2,0.4-0.4,0.5-0.8L321.6,119.5z M319.9,117.2c0-0.2,0-0.3-0.1-0.5s-0.2-0.3-0.3-0.4s-0.3-0.2-0.5-0.3s-0.4-0.1-0.7-0.1
			c-0.2,0-0.5,0-0.6,0.1c-0.2,0.1-0.3,0.2-0.5,0.3s-0.2,0.3-0.3,0.4c-0.1,0.2-0.1,0.3-0.1,0.5H319.9z"/>
		<path class="st3" d="M327.4,116.4c-0.2,0-0.4-0.1-0.6-0.1s-0.5,0-0.7,0.1s-0.4,0.2-0.6,0.3c-0.2,0.1-0.3,0.3-0.4,0.6
			s-0.1,0.6-0.1,0.9v3.2h-1.9v-6.9h1.8v1c0.1-0.2,0.2-0.4,0.4-0.6c0.2-0.1,0.3-0.3,0.5-0.3c0.2-0.1,0.4-0.1,0.5-0.2
			c0.2,0,0.3,0,0.5,0c0.1,0,0.1,0,0.2,0s0.1,0,0.2,0v2H327.4z"/>
	</g>
</g>
<rect x="165.2" y="161.7" class="st1" width="218.6" height="149"/>
<g class="st2">
	<path class="st4" d="M167,169.5h-0.9v-7.4h4.5v0.8H167v2.5h3.3v0.8H167V169.5z"/>
	<path class="st4" d="M172.7,162.1c0.1,0.1,0.2,0.2,0.2,0.4s-0.1,0.3-0.2,0.4c-0.1,0.1-0.3,0.2-0.4,0.2c-0.2,0-0.3-0.1-0.4-0.2
		c-0.1-0.1-0.2-0.2-0.2-0.4s0.1-0.3,0.2-0.4c0.1-0.1,0.2-0.2,0.4-0.2C172.4,162,172.5,162,172.7,162.1z M172.7,164.2v5.3h-0.9v-5.3
		H172.7z"/>
	<path class="st4" d="M177,164.1v0.9c-0.1-0.1-0.3-0.1-0.6-0.1s-0.5,0.1-0.8,0.3s-0.4,0.4-0.5,0.7v3.6h-0.9v-5.3h0.9v0.7
		c0.1-0.2,0.3-0.4,0.5-0.6s0.5-0.2,0.8-0.2C176.8,164,176.9,164.1,177,164.1z"/>
	<path class="st4" d="M177.7,168h0.9c0.2,0.5,0.6,0.8,1.3,0.8c0.3,0,0.6-0.1,0.8-0.2c0.2-0.1,0.3-0.3,0.3-0.6c0-0.4-0.3-0.6-0.8-0.7
		l-1.1-0.3c-0.9-0.2-1.3-0.7-1.3-1.4c0-0.5,0.2-0.8,0.5-1.1c0.4-0.3,0.8-0.4,1.4-0.4c0.6,0,1,0.1,1.4,0.4s0.6,0.6,0.7,1.1h-0.9
		c-0.2-0.5-0.6-0.8-1.2-0.8c-0.3,0-0.5,0.1-0.7,0.2c-0.2,0.1-0.3,0.3-0.3,0.6c0,0.2,0.1,0.3,0.2,0.4c0.1,0.1,0.3,0.2,0.6,0.3l1,0.3
		c0.9,0.2,1.4,0.7,1.4,1.5c0,0.5-0.2,0.9-0.6,1.2c-0.4,0.3-0.8,0.4-1.4,0.4s-1.1-0.1-1.5-0.4C178,168.9,177.8,168.5,177.7,168z"/>
	<path class="st4" d="M183.3,168.1v-3.2h-0.9v-0.8h0.9v-1.4h0.9v1.4h1.3v0.8h-1.3v3.1c0,0.5,0.2,0.7,0.7,0.7c0.2,0,0.5-0.1,0.7-0.2
		v0.8c-0.2,0.1-0.5,0.2-0.8,0.2c-0.4,0-0.8-0.1-1.1-0.4C183.5,169,183.3,168.6,183.3,168.1z"/>
	<path class="st4" d="M189.5,169.5v-5.3h0.9v0.7c0.2-0.2,0.4-0.4,0.7-0.6s0.6-0.2,0.9-0.2c0.6,0,1.1,0.2,1.4,0.5
		c0.3,0.4,0.5,0.8,0.5,1.4v3.5H193v-3.3c0-0.4-0.1-0.7-0.3-0.9s-0.5-0.3-0.9-0.3c-0.3,0-0.6,0.1-0.8,0.3s-0.4,0.4-0.5,0.7v3.6
		L189.5,169.5L189.5,169.5z"/>
	<path class="st4" d="M199.3,169.5h-0.9v-0.4c-0.1,0.1-0.3,0.2-0.6,0.3s-0.5,0.2-0.8,0.2c-0.6,0-1-0.2-1.4-0.5s-0.6-0.7-0.6-1.2
		s0.2-0.9,0.6-1.2c0.4-0.3,0.9-0.5,1.5-0.5c0.3,0,0.5,0,0.8,0.1s0.4,0.2,0.6,0.3V166c0-0.3-0.1-0.6-0.3-0.8s-0.5-0.3-0.9-0.3
		c-0.6,0-0.9,0.2-1.1,0.7h-0.9c0.1-0.4,0.3-0.8,0.7-1.1s0.8-0.4,1.3-0.4c0.6,0,1.1,0.2,1.5,0.5s0.5,0.8,0.5,1.4L199.3,169.5
		L199.3,169.5z M198.4,168.2v-0.6c-0.1-0.2-0.2-0.3-0.5-0.5c-0.2-0.1-0.5-0.2-0.8-0.2c-0.4,0-0.7,0.1-0.9,0.2s-0.4,0.4-0.4,0.7
		s0.1,0.5,0.4,0.7s0.5,0.2,0.9,0.2c0.3,0,0.5-0.1,0.8-0.2C198.2,168.5,198.3,168.4,198.4,168.2z"/>
	<path class="st4" d="M204.6,164.9c0.4-0.6,0.9-0.9,1.6-0.9c0.5,0,0.9,0.2,1.2,0.5s0.4,0.8,0.4,1.4v3.5H207V166
		c0-0.4-0.1-0.7-0.3-0.9s-0.4-0.3-0.8-0.3c-0.3,0-0.5,0.1-0.7,0.3s-0.4,0.4-0.4,0.7v3.7h-0.9v-3.4c0-0.4-0.1-0.7-0.3-0.9
		s-0.4-0.3-0.8-0.3c-0.3,0-0.5,0.1-0.7,0.3s-0.4,0.4-0.4,0.7v3.7h-0.9v-5.3h0.9v0.6c0.3-0.5,0.8-0.7,1.4-0.7
		C203.8,164,204.3,164.3,204.6,164.9z"/>
	<path class="st4" d="M212.8,167.9h0.9c-0.1,0.5-0.3,0.9-0.7,1.2s-0.9,0.5-1.4,0.5c-0.7,0-1.3-0.3-1.8-0.8s-0.7-1.2-0.7-2
		s0.2-1.5,0.7-2c0.4-0.5,1-0.8,1.8-0.8c0.7,0,1.3,0.2,1.7,0.7s0.6,1.1,0.6,1.9v0.3h-3.8c0,0.6,0.2,1,0.4,1.3
		c0.3,0.3,0.7,0.5,1.1,0.5c0.3,0,0.6-0.1,0.8-0.2S212.7,168.2,212.8,167.9z M211.5,164.8c-0.4,0-0.7,0.1-1,0.4
		c-0.3,0.3-0.4,0.6-0.5,1.1h2.8c0-0.4-0.1-0.8-0.3-1.1C212.2,165,211.9,164.8,211.5,164.8z"/>
</g>
<g class="st2">
	<path class="st4" d="M166.1,190.5v-7.4h0.9v6.5h3.8v0.9H166.1z"/>
	<path class="st4" d="M175.9,190.5H175v-0.4c-0.1,0.1-0.3,0.2-0.6,0.3s-0.5,0.2-0.8,0.2c-0.6,0-1-0.2-1.4-0.5s-0.6-0.7-0.6-1.2
		s0.2-0.9,0.6-1.2c0.4-0.3,0.9-0.5,1.5-0.5c0.3,0,0.5,0,0.8,0.1s0.4,0.2,0.6,0.3V187c0-0.3-0.1-0.6-0.3-0.8s-0.5-0.3-0.9-0.3
		c-0.6,0-0.9,0.2-1.1,0.7h-0.9c0.1-0.4,0.3-0.8,0.7-1.1s0.8-0.4,1.3-0.4c0.6,0,1.1,0.2,1.5,0.5s0.5,0.8,0.5,1.4L175.9,190.5
		L175.9,190.5z M175,189.2v-0.6c-0.1-0.2-0.2-0.3-0.5-0.5c-0.2-0.1-0.5-0.2-0.8-0.2c-0.4,0-0.7,0.1-0.9,0.2s-0.4,0.4-0.4,0.7
		s0.1,0.5,0.4,0.7s0.5,0.2,0.9,0.2c0.3,0,0.5-0.1,0.8-0.2C174.8,189.5,174.9,189.4,175,189.2z"/>
	<path class="st4" d="M177,189h0.9c0.2,0.5,0.6,0.8,1.3,0.8c0.3,0,0.6-0.1,0.8-0.2c0.2-0.1,0.3-0.3,0.3-0.6c0-0.4-0.3-0.6-0.8-0.7
		l-1.1-0.3c-0.9-0.2-1.3-0.7-1.3-1.4c0-0.5,0.2-0.8,0.5-1.1c0.4-0.3,0.8-0.4,1.4-0.4c0.6,0,1,0.1,1.4,0.4s0.6,0.6,0.7,1.1h-0.9
		c-0.2-0.5-0.6-0.8-1.2-0.8c-0.3,0-0.5,0.1-0.7,0.2c-0.2,0.1-0.3,0.3-0.3,0.6c0,0.2,0.1,0.3,0.2,0.4c0.1,0.1,0.3,0.2,0.6,0.3l1,0.3
		c0.9,0.2,1.4,0.7,1.4,1.5c0,0.5-0.2,0.9-0.6,1.2c-0.4,0.3-0.8,0.4-1.4,0.4s-1.1-0.1-1.5-0.4C177.3,189.9,177.1,189.5,177,189z"/>
	<path class="st4" d="M182.6,189.1v-3.2h-0.9v-0.8h0.9v-1.4h0.9v1.4h1.3v0.8h-1.3v3.1c0,0.5,0.2,0.7,0.7,0.7c0.2,0,0.5-0.1,0.7-0.2
		v0.8c-0.2,0.1-0.5,0.2-0.8,0.2c-0.4,0-0.8-0.1-1.1-0.4C182.8,190,182.6,189.6,182.6,189.1z"/>
	<path class="st4" d="M188.9,190.5v-5.3h0.9v0.7c0.2-0.2,0.4-0.4,0.7-0.6s0.6-0.2,0.9-0.2c0.6,0,1.1,0.2,1.4,0.5
		c0.3,0.4,0.5,0.8,0.5,1.4v3.5h-0.9v-3.3c0-0.4-0.1-0.7-0.3-0.9s-0.5-0.3-0.9-0.3c-0.3,0-0.6,0.1-0.8,0.3s-0.4,0.4-0.5,0.7v3.6
		L188.9,190.5L188.9,190.5z"/>
	<path class="st4" d="M198.6,190.5h-0.9v-0.4c-0.1,0.1-0.3,0.2-0.6,0.3s-0.5,0.2-0.8,0.2c-0.6,0-1-0.2-1.4-0.5s-0.6-0.7-0.6-1.2
		s0.2-0.9,0.6-1.2c0.4-0.3,0.9-0.5,1.5-0.5c0.3,0,0.5,0,0.8,0.1s0.4,0.2,0.6,0.3V187c0-0.3-0.1-0.6-0.3-0.8s-0.5-0.3-0.9-0.3
		c-0.6,0-0.9,0.2-1.1,0.7h-0.9c0.1-0.4,0.3-0.8,0.7-1.1s0.8-0.4,1.3-0.4c0.6,0,1.1,0.2,1.5,0.5s0.5,0.8,0.5,1.4L198.6,190.5
		L198.6,190.5z M197.7,189.2v-0.6c-0.1-0.2-0.2-0.3-0.5-0.5c-0.2-0.1-0.5-0.2-0.8-0.2c-0.4,0-0.7,0.1-0.9,0.2s-0.4,0.4-0.4,0.7
		s0.1,0.5,0.4,0.7s0.5,0.2,0.9,0.2c0.3,0,0.5-0.1,0.8-0.2C197.5,189.5,197.6,189.4,197.7,189.2z"/>
	<path class="st4" d="M203.9,185.9c0.4-0.6,0.9-0.9,1.6-0.9c0.5,0,0.9,0.2,1.2,0.5s0.4,0.8,0.4,1.4v3.5h-0.9V187
		c0-0.4-0.1-0.7-0.3-0.9s-0.4-0.3-0.8-0.3c-0.3,0-0.5,0.1-0.7,0.3s-0.4,0.4-0.4,0.7v3.7h-0.9v-3.4c0-0.4-0.1-0.7-0.3-0.9
		s-0.4-0.3-0.8-0.3c-0.3,0-0.5,0.1-0.7,0.3s-0.4,0.4-0.4,0.7v3.7H200v-5.3h0.9v0.6c0.3-0.5,0.8-0.7,1.4-0.7
		C203.1,185,203.6,185.3,203.9,185.9z"/>
	<path class="st4" d="M212.1,188.9h0.9c-0.1,0.5-0.3,0.9-0.7,1.2s-0.9,0.5-1.4,0.5c-0.7,0-1.3-0.3-1.8-0.8s-0.7-1.2-0.7-2
		s0.2-1.5,0.7-2c0.4-0.5,1-0.8,1.8-0.8c0.7,0,1.3,0.2,1.7,0.7s0.6,1.1,0.6,1.9v0.3h-3.8c0,0.6,0.2,1,0.4,1.3
		c0.3,0.3,0.7,0.5,1.1,0.5c0.3,0,0.6-0.1,0.8-0.2S212,189.2,212.1,188.9z M210.8,185.8c-0.4,0-0.7,0.1-1,0.4
		c-0.3,0.3-0.4,0.6-0.5,1.1h2.8c0-0.4-0.1-0.8-0.3-1.1C211.5,186,211.2,185.8,210.8,185.8z"/>
</g>
<g class="st2">
	<path class="st4" d="M168.3,204.1h0.9l2.9,7.4h-1l-0.9-2.2h-3l-0.8,2.2h-1L168.3,204.1z M168.7,205.3l-1.2,3.1h2.4L168.7,205.3z"/>
	<path class="st4" d="M176.6,211.5v-0.6c-0.1,0.2-0.4,0.4-0.6,0.5c-0.3,0.1-0.6,0.2-0.9,0.2c-0.8,0-1.3-0.3-1.8-0.8
		c-0.4-0.5-0.6-1.2-0.6-2s0.2-1.4,0.6-2c0.4-0.5,1-0.8,1.8-0.8c0.3,0,0.6,0.1,0.9,0.2c0.3,0.1,0.5,0.3,0.6,0.5v-3.1h0.9v7.8h-0.9
		V211.5z M176.6,209.9v-2.2c-0.1-0.3-0.3-0.5-0.6-0.6c-0.2-0.2-0.5-0.2-0.8-0.2c-0.5,0-0.9,0.2-1.2,0.5c-0.3,0.4-0.4,0.8-0.4,1.4
		s0.1,1,0.4,1.4s0.7,0.5,1.2,0.5c0.3,0,0.6-0.1,0.8-0.2S176.4,210.2,176.6,209.9z"/>
	<path class="st4" d="M182.6,211.5v-0.6c-0.1,0.2-0.4,0.4-0.6,0.5c-0.3,0.1-0.6,0.2-0.9,0.2c-0.8,0-1.3-0.3-1.8-0.8
		c-0.4-0.5-0.6-1.2-0.6-2s0.2-1.4,0.6-2c0.4-0.5,1-0.8,1.8-0.8c0.3,0,0.6,0.1,0.9,0.2c0.3,0.1,0.5,0.3,0.6,0.5v-3.1h0.9v7.8h-0.9
		V211.5z M182.6,209.9v-2.2c-0.1-0.3-0.3-0.5-0.6-0.6c-0.2-0.2-0.5-0.2-0.8-0.2c-0.5,0-0.9,0.2-1.2,0.5c-0.3,0.4-0.4,0.8-0.4,1.4
		s0.1,1,0.4,1.4s0.7,0.5,1.2,0.5c0.3,0,0.6-0.1,0.8-0.2C182.3,210.4,182.5,210.2,182.6,209.9z"/>
	<path class="st4" d="M187.8,206.1v0.9c-0.1-0.1-0.3-0.1-0.6-0.1s-0.5,0.1-0.8,0.3s-0.4,0.4-0.5,0.7v3.6H185v-5.3h0.9v0.7
		c0.1-0.2,0.3-0.4,0.5-0.6s0.5-0.2,0.8-0.2C187.5,206,187.7,206.1,187.8,206.1z"/>
	<path class="st4" d="M192.2,209.9h0.9c-0.1,0.5-0.3,0.9-0.7,1.2s-0.9,0.5-1.4,0.5c-0.7,0-1.3-0.3-1.8-0.8s-0.7-1.2-0.7-2
		s0.2-1.5,0.7-2c0.4-0.5,1-0.8,1.8-0.8c0.7,0,1.3,0.2,1.7,0.7s0.6,1.1,0.6,1.9v0.3h-3.8c0,0.6,0.2,1,0.4,1.3
		c0.3,0.3,0.7,0.5,1.1,0.5c0.3,0,0.6-0.1,0.8-0.2S192.1,210.2,192.2,209.9z M190.8,206.8c-0.4,0-0.7,0.1-1,0.4
		c-0.3,0.3-0.4,0.6-0.5,1.1h2.8c0-0.4-0.1-0.8-0.3-1.1C191.6,207,191.3,206.8,190.8,206.8z"/>
	<path class="st4" d="M193.9,210h0.9c0.2,0.5,0.6,0.8,1.3,0.8c0.3,0,0.6-0.1,0.8-0.2c0.2-0.1,0.3-0.3,0.3-0.6c0-0.4-0.3-0.6-0.8-0.7
		l-1.1-0.3c-0.9-0.2-1.3-0.7-1.3-1.4c0-0.5,0.2-0.8,0.5-1.1c0.4-0.3,0.8-0.4,1.4-0.4c0.6,0,1,0.1,1.4,0.4s0.6,0.6,0.7,1.1h-0.9
		c-0.2-0.5-0.6-0.8-1.2-0.8c-0.3,0-0.5,0.1-0.7,0.2c-0.2,0.1-0.3,0.3-0.3,0.6c0,0.2,0.1,0.3,0.2,0.4c0.1,0.1,0.3,0.2,0.6,0.3l1,0.3
		c0.9,0.2,1.4,0.7,1.4,1.5c0,0.5-0.2,0.9-0.6,1.2c-0.4,0.3-0.8,0.4-1.4,0.4s-1.1-0.1-1.5-0.4C194.2,210.9,193.9,210.5,193.9,210z"/>
	<path class="st4" d="M198.8,210h0.9c0.2,0.5,0.6,0.8,1.3,0.8c0.3,0,0.6-0.1,0.8-0.2c0.2-0.1,0.3-0.3,0.3-0.6c0-0.4-0.3-0.6-0.8-0.7
		l-1.1-0.3c-0.9-0.2-1.3-0.7-1.3-1.4c0-0.5,0.2-0.8,0.5-1.1c0.4-0.3,0.8-0.4,1.4-0.4c0.6,0,1,0.1,1.4,0.4s0.6,0.6,0.7,1.1H202
		c-0.2-0.5-0.6-0.8-1.2-0.8c-0.3,0-0.5,0.1-0.7,0.2c-0.2,0.1-0.3,0.3-0.3,0.6c0,0.2,0.1,0.3,0.2,0.4c0.1,0.1,0.3,0.2,0.6,0.3l1,0.3
		c0.9,0.2,1.4,0.7,1.4,1.5c0,0.5-0.2,0.9-0.6,1.2c-0.4,0.3-0.8,0.4-1.4,0.4s-1.1-0.1-1.5-0.4C199.2,210.9,198.9,210.5,198.8,210z"/>
</g>
<g class="st2">
	<path class="st4" d="M168.8,229.5H167v3h-0.9v-7.4h2.8c0.8,0,1.4,0.2,1.8,0.6c0.4,0.4,0.6,0.9,0.6,1.6s-0.2,1.3-0.6,1.6
		C170.2,229.3,169.6,229.5,168.8,229.5z M170.3,227.3c0-0.4-0.1-0.8-0.4-1s-0.6-0.4-1.1-0.4H167v2.7h1.8c0.5,0,0.9-0.1,1.1-0.4
		S170.3,227.7,170.3,227.3z"/>
	<path class="st4" d="M176,227.8c0.5,0.5,0.7,1.2,0.7,2s-0.2,1.5-0.7,2s-1,0.8-1.8,0.8c-0.7,0-1.3-0.3-1.8-0.8s-0.7-1.2-0.7-2
		s0.2-1.5,0.7-2s1-0.8,1.8-0.8S175.5,227.3,176,227.8z M175.3,231.3c0.3-0.4,0.4-0.8,0.4-1.4s-0.1-1.1-0.4-1.4
		c-0.3-0.4-0.7-0.5-1.1-0.5c-0.5,0-0.8,0.2-1.1,0.5s-0.4,0.8-0.4,1.4s0.1,1.1,0.4,1.4c0.3,0.4,0.6,0.5,1.1,0.5
		S175.1,231.6,175.3,231.3z"/>
	<path class="st4" d="M177.5,231h0.9c0.2,0.5,0.6,0.8,1.3,0.8c0.3,0,0.6-0.1,0.8-0.2c0.2-0.1,0.3-0.3,0.3-0.6c0-0.4-0.3-0.6-0.8-0.7
		l-1.1-0.3c-0.9-0.2-1.3-0.7-1.3-1.4c0-0.5,0.2-0.8,0.5-1.1c0.4-0.3,0.8-0.4,1.4-0.4c0.6,0,1,0.1,1.4,0.4s0.6,0.6,0.7,1.1h-0.9
		c-0.2-0.5-0.6-0.8-1.2-0.8c-0.3,0-0.5,0.1-0.7,0.2c-0.2,0.1-0.3,0.3-0.3,0.6c0,0.2,0.1,0.3,0.2,0.4c0.1,0.1,0.3,0.2,0.6,0.3l1,0.3
		c0.9,0.2,1.4,0.7,1.4,1.5c0,0.5-0.2,0.9-0.6,1.2c-0.4,0.3-0.8,0.4-1.4,0.4s-1.1-0.1-1.5-0.4C177.8,231.9,177.5,231.5,177.5,231z"/>
	<path class="st4" d="M183.1,231.1v-3.2h-0.9v-0.8h0.9v-1.4h0.9v1.4h1.3v0.8H184v3.1c0,0.5,0.2,0.7,0.7,0.7c0.2,0,0.5-0.1,0.7-0.2
		v0.8c-0.2,0.1-0.5,0.2-0.8,0.2c-0.4,0-0.8-0.1-1.1-0.4C183.2,232,183.1,231.6,183.1,231.1z"/>
	<path class="st4" d="M186.9,231.8c-0.4-0.5-0.7-1.2-0.7-2s0.2-1.5,0.7-2c0.4-0.5,1-0.8,1.8-0.8c0.6,0,1.1,0.2,1.4,0.5
		c0.4,0.3,0.6,0.7,0.7,1.2h-0.9c-0.1-0.3-0.2-0.5-0.4-0.7s-0.5-0.2-0.8-0.2c-0.5,0-0.8,0.2-1.1,0.6s-0.4,0.8-0.4,1.4
		s0.1,1.1,0.4,1.4c0.3,0.4,0.6,0.6,1.1,0.6c0.3,0,0.6-0.1,0.8-0.2s0.3-0.4,0.4-0.7h0.9c-0.1,0.5-0.3,0.9-0.7,1.2s-0.9,0.5-1.4,0.5
		C187.9,232.6,187.3,232.3,186.9,231.8z"/>
	<path class="st4" d="M195.8,227.8c0.5,0.5,0.7,1.2,0.7,2s-0.2,1.5-0.7,2s-1,0.8-1.8,0.8c-0.7,0-1.3-0.3-1.8-0.8s-0.7-1.2-0.7-2
		s0.2-1.5,0.7-2s1-0.8,1.8-0.8C194.7,227,195.3,227.3,195.8,227.8z M195.1,231.3c0.3-0.4,0.4-0.8,0.4-1.4s-0.1-1.1-0.4-1.4
		c-0.3-0.4-0.7-0.5-1.1-0.5c-0.5,0-0.8,0.2-1.1,0.5s-0.4,0.8-0.4,1.4s0.1,1.1,0.4,1.4c0.3,0.4,0.6,0.5,1.1,0.5
		S194.8,231.6,195.1,231.3z"/>
	<path class="st4" d="M201.2,232.5v-0.6c-0.1,0.2-0.4,0.4-0.6,0.5c-0.3,0.1-0.6,0.2-0.9,0.2c-0.8,0-1.3-0.3-1.8-0.8
		c-0.4-0.5-0.6-1.2-0.6-2s0.2-1.4,0.6-2c0.4-0.5,1-0.8,1.8-0.8c0.3,0,0.6,0.1,0.9,0.2c0.3,0.1,0.5,0.3,0.6,0.5v-3.1h0.9v7.8h-0.9
		V232.5z M201.2,230.9v-2.2c-0.1-0.3-0.3-0.5-0.6-0.6c-0.2-0.2-0.5-0.2-0.8-0.2c-0.5,0-0.9,0.2-1.2,0.5c-0.3,0.4-0.4,0.8-0.4,1.4
		s0.1,1,0.4,1.4s0.7,0.5,1.2,0.5c0.3,0,0.6-0.1,0.8-0.2C200.9,231.4,201.1,231.2,201.2,230.9z"/>
	<path class="st4" d="M207.1,230.9h0.9c-0.1,0.5-0.3,0.9-0.7,1.2s-0.9,0.5-1.4,0.5c-0.7,0-1.3-0.3-1.8-0.8s-0.7-1.2-0.7-2
		s0.2-1.5,0.7-2c0.4-0.5,1-0.8,1.8-0.8c0.7,0,1.3,0.2,1.7,0.7s0.6,1.1,0.6,1.9v0.3h-3.8c0,0.6,0.2,1,0.4,1.3
		c0.3,0.3,0.7,0.5,1.1,0.5c0.3,0,0.6-0.1,0.8-0.2S207,231.2,207.1,230.9z M205.8,227.8c-0.4,0-0.7,0.1-1,0.4
		c-0.3,0.3-0.4,0.6-0.5,1.1h2.8c0-0.4-0.1-0.8-0.3-1.1C206.5,228,206.2,227.8,205.8,227.8z"/>
</g>
<g class="st2">
	<path class="st4" d="M171.2,250.7h-1.8v-0.8h2.7v0.5c0,1-0.3,1.8-0.8,2.4c-0.6,0.6-1.3,0.9-2.2,0.9c-1,0-1.8-0.3-2.4-1
		c-0.6-0.7-1-1.6-1-2.7c0-1.1,0.3-2,1-2.7s1.4-1,2.4-1c0.8,0,1.4,0.2,1.9,0.6c0.5,0.4,0.8,1,1,1.7h-0.9c-0.3-0.9-1-1.4-2-1.4
		c-0.7,0-1.3,0.3-1.7,0.8s-0.7,1.3-0.7,2.1s0.2,1.6,0.7,2.1c0.4,0.5,1,0.8,1.8,0.8c0.6,0,1.1-0.2,1.5-0.6S171.1,251.3,171.2,250.7z"
		/>
	<path class="st4" d="M176.8,251.9h0.9c-0.1,0.5-0.3,0.9-0.7,1.2s-0.9,0.5-1.4,0.5c-0.7,0-1.3-0.3-1.8-0.8s-0.7-1.2-0.7-2
		s0.2-1.5,0.7-2c0.4-0.5,1-0.8,1.8-0.8c0.7,0,1.3,0.2,1.7,0.7s0.6,1.1,0.6,1.9v0.3h-3.8c0,0.6,0.2,1,0.4,1.3
		c0.3,0.3,0.7,0.5,1.1,0.5c0.3,0,0.6-0.1,0.8-0.2S176.7,252.2,176.8,251.9z M175.5,248.8c-0.4,0-0.7,0.1-1,0.4
		c-0.3,0.3-0.4,0.6-0.5,1.1h2.8c0-0.4-0.1-0.8-0.3-1.1C176.2,249,175.9,248.8,175.5,248.8z"/>
	<path class="st4" d="M178.9,253.5v-5.3h0.9v0.7c0.2-0.2,0.4-0.4,0.7-0.6s0.6-0.2,0.9-0.2c0.6,0,1.1,0.2,1.4,0.5
		c0.3,0.4,0.5,0.8,0.5,1.4v3.5h-0.9v-3.3c0-0.4-0.1-0.7-0.3-0.9s-0.5-0.3-0.9-0.3c-0.3,0-0.6,0.1-0.8,0.3s-0.4,0.4-0.5,0.7v3.6
		L178.9,253.5L178.9,253.5z"/>
	<path class="st4" d="M188.3,253.5v-0.6c-0.1,0.2-0.4,0.4-0.6,0.5c-0.3,0.1-0.6,0.2-0.9,0.2c-0.8,0-1.3-0.3-1.8-0.8
		c-0.4-0.5-0.6-1.2-0.6-2s0.2-1.4,0.6-2c0.4-0.5,1-0.8,1.8-0.8c0.3,0,0.6,0.1,0.9,0.2c0.3,0.1,0.5,0.3,0.6,0.5v-3.1h0.9v7.8h-0.9
		V253.5z M188.3,251.9v-2.2c-0.1-0.3-0.3-0.5-0.6-0.6c-0.2-0.2-0.5-0.2-0.8-0.2c-0.5,0-0.9,0.2-1.2,0.5c-0.3,0.4-0.4,0.8-0.4,1.4
		s0.1,1,0.4,1.4s0.7,0.5,1.2,0.5c0.3,0,0.6-0.1,0.8-0.2C188,252.4,188.2,252.2,188.3,251.9z"/>
	<path class="st4" d="M194.2,251.9h0.9c-0.1,0.5-0.3,0.9-0.7,1.2s-0.9,0.5-1.4,0.5c-0.7,0-1.3-0.3-1.8-0.8s-0.7-1.2-0.7-2
		s0.2-1.5,0.7-2c0.4-0.5,1-0.8,1.8-0.8c0.7,0,1.3,0.2,1.7,0.7s0.6,1.1,0.6,1.9v0.3h-3.8c0,0.6,0.2,1,0.4,1.3
		c0.3,0.3,0.7,0.5,1.1,0.5c0.3,0,0.6-0.1,0.8-0.2S194.1,252.2,194.2,251.9z M192.8,248.8c-0.4,0-0.7,0.1-1,0.4
		c-0.3,0.3-0.4,0.6-0.5,1.1h2.8c0-0.4-0.1-0.8-0.3-1.1C193.6,249,193.3,248.8,192.8,248.8z"/>
	<path class="st4" d="M199,248.1v0.9c-0.1-0.1-0.3-0.1-0.6-0.1s-0.5,0.1-0.8,0.3s-0.4,0.4-0.5,0.7v3.6h-0.9v-5.3h0.9v0.7
		c0.1-0.2,0.3-0.4,0.5-0.6s0.5-0.2,0.8-0.2C198.7,248,198.9,248.1,199,248.1z"/>
</g>
<g class="st2">
	<path class="st4" d="M166.1,274.5v-7.4h2.4c1.1,0,1.9,0.3,2.6,1s1,1.6,1,2.7s-0.3,2-1,2.7s-1.5,1-2.6,1L166.1,274.5L166.1,274.5z
		 M167,273.6h1.4c0.8,0,1.5-0.3,2-0.8s0.7-1.2,0.7-2.1s-0.2-1.6-0.7-2.1s-1.1-0.8-1.9-0.8H167V273.6z"/>
	<path class="st4" d="M177.1,269.8c0.5,0.5,0.7,1.2,0.7,2s-0.2,1.5-0.7,2s-1,0.8-1.8,0.8c-0.7,0-1.3-0.3-1.8-0.8s-0.7-1.2-0.7-2
		s0.2-1.5,0.7-2s1-0.8,1.8-0.8S176.7,269.3,177.1,269.8z M176.5,273.3c0.3-0.4,0.4-0.8,0.4-1.4s-0.1-1.1-0.4-1.4
		c-0.3-0.4-0.7-0.5-1.1-0.5c-0.5,0-0.8,0.2-1.1,0.5s-0.4,0.8-0.4,1.4s0.1,1.1,0.4,1.4c0.3,0.4,0.6,0.5,1.1,0.5
		C175.8,273.8,176.2,273.6,176.5,273.3z"/>
	<path class="st4" d="M179,274.5v-5.3h0.9v0.7c0.2-0.2,0.4-0.4,0.7-0.6s0.6-0.2,0.9-0.2c0.6,0,1.1,0.2,1.4,0.5
		c0.3,0.4,0.5,0.8,0.5,1.4v3.5h-0.9v-3.3c0-0.4-0.1-0.7-0.3-0.9c-0.2-0.2-0.5-0.3-0.9-0.3c-0.3,0-0.6,0.1-0.8,0.3
		c-0.2,0.2-0.4,0.4-0.5,0.7v3.6h-1V274.5z"/>
	<path class="st4" d="M188.8,274.5h-0.9v-0.4c-0.1,0.1-0.3,0.2-0.6,0.3c-0.3,0.1-0.5,0.2-0.8,0.2c-0.6,0-1-0.2-1.4-0.5
		s-0.6-0.7-0.6-1.2s0.2-0.9,0.6-1.2c0.4-0.3,0.9-0.5,1.5-0.5c0.3,0,0.5,0,0.8,0.1s0.4,0.2,0.6,0.3V271c0-0.3-0.1-0.6-0.3-0.8
		s-0.5-0.3-0.9-0.3c-0.6,0-0.9,0.2-1.1,0.7h-0.9c0.1-0.4,0.3-0.8,0.7-1.1c0.4-0.3,0.8-0.4,1.3-0.4c0.6,0,1.1,0.2,1.5,0.5
		s0.5,0.8,0.5,1.4L188.8,274.5L188.8,274.5z M187.9,273.2v-0.6c-0.1-0.2-0.2-0.3-0.5-0.5c-0.2-0.1-0.5-0.2-0.8-0.2
		c-0.4,0-0.7,0.1-0.9,0.2s-0.4,0.4-0.4,0.7c0,0.3,0.1,0.5,0.4,0.7s0.5,0.2,0.9,0.2c0.3,0,0.5-0.1,0.8-0.2
		C187.7,273.5,187.8,273.4,187.9,273.2z"/>
	<path class="st4" d="M190.5,273.1v-3.2h-0.9v-0.8h0.9v-1.4h0.9v1.4h1.3v0.8h-1.3v3.1c0,0.5,0.2,0.7,0.7,0.7c0.2,0,0.5-0.1,0.7-0.2
		v0.8c-0.2,0.1-0.5,0.2-0.8,0.2c-0.4,0-0.8-0.1-1.1-0.4C190.7,274,190.5,273.6,190.5,273.1z"/>
	<path class="st4" d="M197.4,272.9h0.9c-0.1,0.5-0.3,0.9-0.7,1.2c-0.4,0.3-0.9,0.5-1.4,0.5c-0.7,0-1.3-0.3-1.8-0.8s-0.7-1.2-0.7-2
		s0.2-1.5,0.7-2c0.4-0.5,1-0.8,1.8-0.8c0.7,0,1.3,0.2,1.7,0.7s0.6,1.1,0.6,1.9v0.3h-3.8c0,0.6,0.2,1,0.4,1.3
		c0.3,0.3,0.7,0.5,1.1,0.5c0.3,0,0.6-0.1,0.8-0.2S197.3,273.2,197.4,272.9z M196.1,269.8c-0.4,0-0.7,0.1-1,0.4s-0.4,0.6-0.5,1.1h2.8
		c0-0.4-0.1-0.8-0.3-1.1C196.8,270,196.5,269.8,196.1,269.8z"/>
	<path class="st4" d="M206,274.5h-0.9v-0.4c-0.1,0.1-0.3,0.2-0.6,0.3c-0.3,0.1-0.5,0.2-0.8,0.2c-0.6,0-1-0.2-1.4-0.5
		s-0.6-0.7-0.6-1.2s0.2-0.9,0.6-1.2c0.4-0.3,0.9-0.5,1.5-0.5c0.3,0,0.5,0,0.8,0.1s0.4,0.2,0.6,0.3V271c0-0.3-0.1-0.6-0.3-0.8
		s-0.5-0.3-0.9-0.3c-0.6,0-0.9,0.2-1.1,0.7H202c0.1-0.4,0.3-0.8,0.7-1.1c0.4-0.3,0.8-0.4,1.3-0.4c0.6,0,1.1,0.2,1.5,0.5
		s0.5,0.8,0.5,1.4V274.5z M205.1,273.2v-0.6c-0.1-0.2-0.2-0.3-0.5-0.5c-0.2-0.1-0.5-0.2-0.8-0.2c-0.4,0-0.7,0.1-0.9,0.2
		s-0.4,0.4-0.4,0.7c0,0.3,0.1,0.5,0.4,0.7s0.5,0.2,0.9,0.2c0.3,0,0.5-0.1,0.8-0.2C204.9,273.5,205.1,273.4,205.1,273.2z"/>
	<path class="st4" d="M208.4,266.7v7.8h-0.9v-7.8H208.4z"/>
	<path class="st4" d="M211,266.7v7.8h-0.9v-7.8H211z"/>
	<path class="st4" d="M219.1,269.8c0.5,0.5,0.7,1.2,0.7,2s-0.2,1.5-0.7,2s-1,0.8-1.8,0.8c-0.7,0-1.3-0.3-1.8-0.8s-0.7-1.2-0.7-2
		s0.2-1.5,0.7-2s1-0.8,1.8-0.8C218,269,218.6,269.3,219.1,269.8z M218.4,273.3c0.3-0.4,0.4-0.8,0.4-1.4s-0.1-1.1-0.4-1.4
		c-0.3-0.4-0.7-0.5-1.1-0.5c-0.5,0-0.8,0.2-1.1,0.5s-0.4,0.8-0.4,1.4s0.1,1.1,0.4,1.4c0.3,0.4,0.6,0.5,1.1,0.5
		C217.8,273.8,218.1,273.6,218.4,273.3z"/>
	<path class="st4" d="M223.7,269.1v0.9c-0.1-0.1-0.3-0.1-0.6-0.1s-0.5,0.1-0.8,0.3s-0.4,0.4-0.5,0.7v3.6H221v-5.3h0.9v0.7
		c0.1-0.2,0.3-0.4,0.5-0.6s0.5-0.2,0.8-0.2C223.4,269,223.6,269.1,223.7,269.1z"/>
	<path class="st4" d="M228.2,274.1v-0.4c-0.1,0.2-0.4,0.4-0.6,0.5c-0.3,0.1-0.6,0.2-0.9,0.2c-0.7,0-1.3-0.3-1.8-0.8
		c-0.4-0.5-0.6-1.2-0.6-1.9c0-0.8,0.2-1.4,0.6-1.9c0.4-0.5,1-0.8,1.8-0.8c0.3,0,0.6,0.1,0.9,0.2c0.3,0.1,0.5,0.3,0.6,0.5v-0.6h0.9
		v4.9c0,0.8-0.2,1.5-0.7,1.9c-0.4,0.4-1,0.7-1.7,0.7c-0.6,0-1.2-0.2-1.6-0.5c-0.4-0.3-0.6-0.7-0.7-1.3h0.9c0.2,0.7,0.6,1,1.4,1
		C227.7,275.9,228.2,275.3,228.2,274.1z M228.2,272.8v-2.1c-0.3-0.6-0.8-0.8-1.4-0.8c-0.5,0-0.9,0.2-1.2,0.5
		c-0.3,0.4-0.4,0.8-0.4,1.4s0.1,1,0.4,1.4c0.3,0.3,0.7,0.5,1.2,0.5C227.4,273.6,227.9,273.4,228.2,272.8z"/>
	<path class="st4" d="M234.6,274.5h-0.9v-0.4c-0.1,0.1-0.3,0.2-0.6,0.3c-0.3,0.1-0.5,0.2-0.8,0.2c-0.6,0-1-0.2-1.4-0.5
		s-0.6-0.7-0.6-1.2s0.2-0.9,0.6-1.2c0.4-0.3,0.9-0.5,1.5-0.5c0.3,0,0.5,0,0.8,0.1s0.4,0.2,0.6,0.3V271c0-0.3-0.1-0.6-0.3-0.8
		s-0.5-0.3-0.9-0.3c-0.6,0-0.9,0.2-1.1,0.7h-0.9c0.1-0.4,0.3-0.8,0.7-1.1c0.4-0.3,0.8-0.4,1.3-0.4c0.6,0,1.1,0.2,1.5,0.5
		s0.5,0.8,0.5,1.4L234.6,274.5L234.6,274.5z M233.7,273.2v-0.6c-0.1-0.2-0.2-0.3-0.5-0.5c-0.2-0.1-0.5-0.2-0.8-0.2
		c-0.4,0-0.7,0.1-0.9,0.2s-0.4,0.4-0.4,0.7c0,0.3,0.1,0.5,0.4,0.7s0.5,0.2,0.9,0.2c0.3,0,0.5-0.1,0.8-0.2
		C233.5,273.5,233.6,273.4,233.7,273.2z"/>
	<path class="st4" d="M236.1,274.5v-5.3h0.9v0.7c0.2-0.2,0.4-0.4,0.7-0.6s0.6-0.2,0.9-0.2c0.6,0,1.1,0.2,1.4,0.5
		c0.3,0.4,0.5,0.8,0.5,1.4v3.5h-0.9v-3.3c0-0.4-0.1-0.7-0.3-0.9c-0.2-0.2-0.5-0.3-0.9-0.3c-0.3,0-0.6,0.1-0.8,0.3
		c-0.2,0.2-0.4,0.4-0.5,0.7v3.6h-1V274.5z"/>
	<path class="st4" d="M241.5,273h0.9c0.2,0.5,0.6,0.8,1.3,0.8c0.3,0,0.6-0.1,0.8-0.2s0.3-0.3,0.3-0.6c0-0.4-0.3-0.6-0.8-0.7l-1-0.3
		c-0.9-0.2-1.3-0.7-1.3-1.4c0-0.5,0.2-0.8,0.5-1.1c0.4-0.3,0.8-0.4,1.4-0.4c0.6,0,1,0.1,1.4,0.4s0.6,0.6,0.7,1.1h-0.9
		c-0.2-0.5-0.6-0.8-1.2-0.8c-0.3,0-0.5,0.1-0.7,0.2s-0.3,0.3-0.3,0.6c0,0.2,0.1,0.3,0.2,0.4c0.1,0.1,0.3,0.2,0.6,0.3l1,0.3
		c0.9,0.2,1.4,0.7,1.4,1.5c0,0.5-0.2,0.9-0.6,1.2c-0.4,0.3-0.8,0.4-1.4,0.4s-1.1-0.1-1.5-0.4C241.8,273.9,241.6,273.5,241.5,273z"/>
	<path class="st4" d="M253.4,274.5h-0.9v-0.4c-0.1,0.1-0.3,0.2-0.6,0.3c-0.3,0.1-0.5,0.2-0.8,0.2c-0.6,0-1-0.2-1.4-0.5
		s-0.6-0.7-0.6-1.2s0.2-0.9,0.6-1.2c0.4-0.3,0.9-0.5,1.5-0.5c0.3,0,0.5,0,0.8,0.1s0.4,0.2,0.6,0.3V271c0-0.3-0.1-0.6-0.3-0.8
		s-0.5-0.3-0.9-0.3c-0.6,0-0.9,0.2-1.1,0.7h-0.9c0.1-0.4,0.3-0.8,0.7-1.1c0.4-0.3,0.8-0.4,1.3-0.4c0.6,0,1.1,0.2,1.5,0.5
		s0.5,0.8,0.5,1.4L253.4,274.5L253.4,274.5z M252.6,273.2v-0.6c-0.1-0.2-0.2-0.3-0.5-0.5c-0.2-0.1-0.5-0.2-0.8-0.2
		c-0.4,0-0.7,0.1-0.9,0.2s-0.4,0.4-0.4,0.7c0,0.3,0.1,0.5,0.4,0.7s0.5,0.2,0.9,0.2c0.3,0,0.5-0.1,0.8-0.2
		C252.3,273.5,252.5,273.4,252.6,273.2z"/>
	<path class="st4" d="M255,274.5v-5.3h0.9v0.7c0.2-0.2,0.4-0.4,0.7-0.6s0.6-0.2,0.9-0.2c0.6,0,1.1,0.2,1.4,0.5
		c0.3,0.4,0.5,0.8,0.5,1.4v3.5h-0.9v-3.3c0-0.4-0.1-0.7-0.3-0.9c-0.2-0.2-0.5-0.3-0.9-0.3c-0.3,0-0.6,0.1-0.8,0.3
		c-0.2,0.2-0.4,0.4-0.5,0.7v3.6h-1V274.5z"/>
	<path class="st4" d="M264.4,274.5v-0.6c-0.1,0.2-0.4,0.4-0.6,0.5c-0.3,0.1-0.6,0.2-0.9,0.2c-0.8,0-1.3-0.3-1.8-0.8
		c-0.4-0.5-0.6-1.2-0.6-2s0.2-1.4,0.6-2c0.4-0.5,1-0.8,1.8-0.8c0.3,0,0.6,0.1,0.9,0.2s0.5,0.3,0.6,0.5v-3.1h0.9v7.8L264.4,274.5
		L264.4,274.5z M264.4,272.9v-2.2c-0.1-0.3-0.3-0.5-0.6-0.6c-0.2-0.2-0.5-0.2-0.8-0.2c-0.5,0-0.9,0.2-1.2,0.5
		c-0.3,0.4-0.4,0.8-0.4,1.4s0.1,1,0.4,1.4s0.7,0.5,1.2,0.5c0.3,0,0.6-0.1,0.8-0.2C264,273.4,264.2,273.2,264.4,272.9z"/>
	<path class="st4" d="M269.8,273.1v-3.2h-0.9v-0.8h0.9v-1.4h0.9v1.4h1.3v0.8h-1.3v3.1c0,0.5,0.2,0.7,0.7,0.7c0.2,0,0.5-0.1,0.7-0.2
		v0.8c-0.2,0.1-0.5,0.2-0.8,0.2c-0.4,0-0.8-0.1-1.1-0.4C269.9,274,269.8,273.6,269.8,273.1z"/>
	<path class="st4" d="M274.2,267.1c0.1,0.1,0.2,0.2,0.2,0.4s-0.1,0.3-0.2,0.4s-0.3,0.2-0.4,0.2c-0.2,0-0.3-0.1-0.4-0.2
		s-0.2-0.2-0.2-0.4s0.1-0.3,0.2-0.4s0.2-0.2,0.4-0.2C273.9,267,274.1,267,274.2,267.1z M274.2,269.2v5.3h-0.9v-5.3H274.2z"/>
	<path class="st4" d="M275.4,273h0.9c0.2,0.5,0.6,0.8,1.3,0.8c0.3,0,0.6-0.1,0.8-0.2c0.2-0.1,0.3-0.3,0.3-0.6c0-0.4-0.3-0.6-0.8-0.7
		l-1.1-0.3c-0.9-0.2-1.3-0.7-1.3-1.4c0-0.5,0.2-0.8,0.5-1.1c0.4-0.3,0.8-0.4,1.4-0.4s1,0.1,1.4,0.4s0.6,0.6,0.7,1.1h-0.9
		c-0.2-0.5-0.6-0.8-1.2-0.8c-0.3,0-0.5,0.1-0.7,0.2s-0.3,0.3-0.3,0.6c0,0.2,0.1,0.3,0.2,0.4s0.3,0.2,0.6,0.3l1,0.3
		c0.9,0.2,1.4,0.7,1.4,1.5c0,0.5-0.2,0.9-0.6,1.2c-0.4,0.3-0.8,0.4-1.4,0.4s-1.1-0.1-1.5-0.4C275.7,273.9,275.5,273.5,275.4,273z"/>
	<path class="st4" d="M280.4,273h0.9c0.2,0.5,0.6,0.8,1.3,0.8c0.3,0,0.6-0.1,0.8-0.2c0.2-0.1,0.3-0.3,0.3-0.6c0-0.4-0.3-0.6-0.8-0.7
		l-1.1-0.3c-0.9-0.2-1.3-0.7-1.3-1.4c0-0.5,0.2-0.8,0.5-1.1c0.4-0.3,0.8-0.4,1.4-0.4s1,0.1,1.4,0.4s0.6,0.6,0.7,1.1h-0.9
		c-0.2-0.5-0.6-0.8-1.2-0.8c-0.3,0-0.5,0.1-0.7,0.2s-0.3,0.3-0.3,0.6c0,0.2,0.1,0.3,0.2,0.4s0.3,0.2,0.6,0.3l1,0.3
		c0.9,0.2,1.4,0.7,1.4,1.5c0,0.5-0.2,0.9-0.6,1.2c-0.4,0.3-0.8,0.4-1.4,0.4s-1.1-0.1-1.5-0.4C280.7,273.9,280.5,273.5,280.4,273z"/>
	<path class="st4" d="M290,269.2v5.3h-0.9v-0.7c-0.2,0.2-0.4,0.4-0.6,0.6c-0.3,0.1-0.6,0.2-0.9,0.2c-0.6,0-1-0.2-1.4-0.5
		c-0.3-0.4-0.5-0.8-0.5-1.4v-3.5h0.9v3.3c0,0.4,0.1,0.7,0.3,0.9c0.2,0.2,0.5,0.3,0.9,0.3c0.3,0,0.6-0.1,0.8-0.3
		c0.2-0.2,0.4-0.4,0.5-0.7v-3.6h0.9V269.2z"/>
	<path class="st4" d="M295,272.9h0.9c-0.1,0.5-0.3,0.9-0.7,1.2c-0.4,0.3-0.9,0.5-1.4,0.5c-0.7,0-1.3-0.3-1.8-0.8s-0.7-1.2-0.7-2
		s0.2-1.5,0.7-2c0.4-0.5,1-0.8,1.8-0.8c0.7,0,1.3,0.2,1.7,0.7c0.4,0.5,0.6,1.1,0.6,1.9v0.3h-3.8c0,0.6,0.2,1,0.4,1.3
		c0.3,0.3,0.7,0.5,1.1,0.5c0.3,0,0.6-0.1,0.8-0.2S294.9,273.2,295,272.9z M293.7,269.8c-0.4,0-0.7,0.1-1,0.4s-0.4,0.6-0.5,1.1h2.8
		c0-0.4-0.1-0.8-0.3-1.1C294.4,270,294.1,269.8,293.7,269.8z"/>
	<path class="st4" d="M296.7,273h0.9c0.2,0.5,0.6,0.8,1.3,0.8c0.3,0,0.6-0.1,0.8-0.2c0.2-0.1,0.3-0.3,0.3-0.6c0-0.4-0.3-0.6-0.8-0.7
		l-1.1-0.3c-0.9-0.2-1.3-0.7-1.3-1.4c0-0.5,0.2-0.8,0.5-1.1c0.4-0.3,0.8-0.4,1.4-0.4s1,0.1,1.4,0.4s0.6,0.6,0.7,1.1h-0.9
		c-0.2-0.5-0.6-0.8-1.2-0.8c-0.3,0-0.5,0.1-0.7,0.2s-0.3,0.3-0.3,0.6c0,0.2,0.1,0.3,0.2,0.4s0.3,0.2,0.6,0.3l1,0.3
		c0.9,0.2,1.4,0.7,1.4,1.5c0,0.5-0.2,0.9-0.6,1.2c-0.4,0.3-0.8,0.4-1.4,0.4s-1.1-0.1-1.5-0.4C297,273.9,296.8,273.5,296.7,273z"/>
</g>
<g class="st2">
	<path class="st4" d="M166.1,295.5v-7.4h2.4c1.1,0,1.9,0.3,2.6,1s1,1.6,1,2.7s-0.3,2-1,2.7s-1.5,1-2.6,1L166.1,295.5L166.1,295.5z
		 M167,294.6h1.4c0.8,0,1.5-0.3,2-0.8s0.7-1.2,0.7-2.1s-0.2-1.6-0.7-2.1s-1.1-0.8-1.9-0.8H167V294.6z"/>
	<path class="st4" d="M177.1,290.8c0.5,0.5,0.7,1.2,0.7,2s-0.2,1.5-0.7,2s-1,0.8-1.8,0.8c-0.7,0-1.3-0.3-1.8-0.8s-0.7-1.2-0.7-2
		s0.2-1.5,0.7-2s1-0.8,1.8-0.8S176.7,290.3,177.1,290.8z M176.5,294.3c0.3-0.4,0.4-0.8,0.4-1.4s-0.1-1.1-0.4-1.4
		c-0.3-0.4-0.7-0.5-1.1-0.5c-0.5,0-0.8,0.2-1.1,0.5s-0.4,0.8-0.4,1.4s0.1,1.1,0.4,1.4c0.3,0.4,0.6,0.5,1.1,0.5
		C175.8,294.8,176.2,294.6,176.5,294.3z"/>
	<path class="st4" d="M179,295.5v-5.3h0.9v0.7c0.2-0.2,0.4-0.4,0.7-0.6s0.6-0.2,0.9-0.2c0.6,0,1.1,0.2,1.4,0.5
		c0.3,0.4,0.5,0.8,0.5,1.4v3.5h-0.9v-3.3c0-0.4-0.1-0.7-0.3-0.9c-0.2-0.2-0.5-0.3-0.9-0.3c-0.3,0-0.6,0.1-0.8,0.3
		c-0.2,0.2-0.4,0.4-0.5,0.7v3.6h-1V295.5z"/>
	<path class="st4" d="M188.8,295.5h-0.9v-0.4c-0.1,0.1-0.3,0.2-0.6,0.3c-0.3,0.1-0.5,0.2-0.8,0.2c-0.6,0-1-0.2-1.4-0.5
		s-0.6-0.7-0.6-1.2s0.2-0.9,0.6-1.2c0.4-0.3,0.9-0.5,1.5-0.5c0.3,0,0.5,0,0.8,0.1s0.4,0.2,0.6,0.3V292c0-0.3-0.1-0.6-0.3-0.8
		s-0.5-0.3-0.9-0.3c-0.6,0-0.9,0.2-1.1,0.7h-0.9c0.1-0.4,0.3-0.8,0.7-1.1c0.4-0.3,0.8-0.4,1.3-0.4c0.6,0,1.1,0.2,1.5,0.5
		s0.5,0.8,0.5,1.4L188.8,295.5L188.8,295.5z M187.9,294.2v-0.6c-0.1-0.2-0.2-0.3-0.5-0.5c-0.2-0.1-0.5-0.2-0.8-0.2
		c-0.4,0-0.7,0.1-0.9,0.2s-0.4,0.4-0.4,0.7c0,0.3,0.1,0.5,0.4,0.7s0.5,0.2,0.9,0.2c0.3,0,0.5-0.1,0.8-0.2
		C187.7,294.5,187.8,294.4,187.9,294.2z"/>
	<path class="st4" d="M190.5,294.1v-3.2h-0.9v-0.8h0.9v-1.4h0.9v1.4h1.3v0.8h-1.3v3.1c0,0.5,0.2,0.7,0.7,0.7c0.2,0,0.5-0.1,0.7-0.2
		v0.8c-0.2,0.1-0.5,0.2-0.8,0.2c-0.4,0-0.8-0.1-1.1-0.4C190.7,295,190.5,294.6,190.5,294.1z"/>
	<path class="st4" d="M197.4,293.9h0.9c-0.1,0.5-0.3,0.9-0.7,1.2c-0.4,0.3-0.9,0.5-1.4,0.5c-0.7,0-1.3-0.3-1.8-0.8s-0.7-1.2-0.7-2
		s0.2-1.5,0.7-2c0.4-0.5,1-0.8,1.8-0.8c0.7,0,1.3,0.2,1.7,0.7s0.6,1.1,0.6,1.9v0.3h-3.8c0,0.6,0.2,1,0.4,1.3
		c0.3,0.3,0.7,0.5,1.1,0.5c0.3,0,0.6-0.1,0.8-0.2S197.3,294.2,197.4,293.9z M196.1,290.8c-0.4,0-0.7,0.1-1,0.4s-0.4,0.6-0.5,1.1h2.8
		c0-0.4-0.1-0.8-0.3-1.1C196.8,291,196.5,290.8,196.1,290.8z"/>
	<path class="st4" d="M201.7,294h0.9c0.2,0.5,0.6,0.8,1.3,0.8c0.3,0,0.6-0.1,0.8-0.2s0.3-0.3,0.3-0.6c0-0.4-0.3-0.6-0.8-0.7
		l-1.1-0.3c-0.9-0.2-1.3-0.7-1.3-1.4c0-0.5,0.2-0.8,0.5-1.1c0.4-0.3,0.8-0.4,1.4-0.4c0.6,0,1,0.1,1.4,0.4s0.6,0.6,0.7,1.1h-0.9
		c-0.2-0.5-0.6-0.8-1.2-0.8c-0.3,0-0.5,0.1-0.7,0.2s-0.3,0.3-0.3,0.6c0,0.2,0.1,0.3,0.2,0.4c0.1,0.1,0.3,0.2,0.6,0.3l1,0.3
		c0.9,0.2,1.4,0.7,1.4,1.5c0,0.5-0.2,0.9-0.6,1.2c-0.4,0.3-0.8,0.4-1.4,0.4s-1.1-0.1-1.5-0.4C202,294.9,201.8,294.5,201.7,294z"/>
	<path class="st4" d="M211,290.8c0.5,0.5,0.7,1.2,0.7,2s-0.2,1.5-0.7,2s-1,0.8-1.8,0.8c-0.7,0-1.3-0.3-1.8-0.8s-0.7-1.2-0.7-2
		s0.2-1.5,0.7-2s1-0.8,1.8-0.8C209.9,290,210.5,290.3,211,290.8z M210.3,294.3c0.3-0.4,0.4-0.8,0.4-1.4s-0.1-1.1-0.4-1.4
		c-0.3-0.4-0.7-0.5-1.1-0.5c-0.5,0-0.8,0.2-1.1,0.5s-0.4,0.8-0.4,1.4s0.1,1.1,0.4,1.4c0.3,0.4,0.6,0.5,1.1,0.5
		S210,294.6,210.3,294.3z"/>
	<path class="st4" d="M216.6,290.9c0.4-0.6,0.9-0.9,1.6-0.9c0.5,0,0.9,0.2,1.2,0.5s0.4,0.8,0.4,1.4v3.5H219V292
		c0-0.4-0.1-0.7-0.3-0.9c-0.2-0.2-0.4-0.3-0.8-0.3c-0.3,0-0.5,0.1-0.7,0.3c-0.2,0.2-0.4,0.4-0.4,0.7v3.7h-0.9v-3.4
		c0-0.4-0.1-0.7-0.3-0.9c-0.2-0.2-0.4-0.3-0.8-0.3c-0.3,0-0.5,0.1-0.7,0.3c-0.2,0.2-0.4,0.4-0.4,0.7v3.7h-0.9v-5.3h0.9v0.6
		c0.3-0.5,0.8-0.7,1.4-0.7C215.9,290,216.3,290.3,216.6,290.9z"/>
	<path class="st4" d="M224.8,293.9h0.9c-0.1,0.5-0.3,0.9-0.7,1.2c-0.4,0.3-0.9,0.5-1.4,0.5c-0.7,0-1.3-0.3-1.8-0.8s-0.7-1.2-0.7-2
		s0.2-1.5,0.7-2c0.4-0.5,1-0.8,1.8-0.8c0.7,0,1.3,0.2,1.7,0.7s0.6,1.1,0.6,1.9v0.3H222c0,0.6,0.2,1,0.4,1.3c0.3,0.3,0.7,0.5,1.1,0.5
		c0.3,0,0.6-0.1,0.8-0.2S224.7,294.2,224.8,293.9z M223.5,290.8c-0.4,0-0.7,0.1-1,0.4s-0.4,0.6-0.5,1.1h2.8c0-0.4-0.1-0.8-0.3-1.1
		C224.3,291,223.9,290.8,223.5,290.8z"/>
	<path class="st4" d="M233.4,290.8c0.5,0.5,0.7,1.2,0.7,2s-0.2,1.5-0.7,2s-1,0.8-1.8,0.8c-0.7,0-1.3-0.3-1.8-0.8s-0.7-1.2-0.7-2
		s0.2-1.5,0.7-2s1-0.8,1.8-0.8S233,290.3,233.4,290.8z M232.8,294.3c0.3-0.4,0.4-0.8,0.4-1.4s-0.1-1.1-0.4-1.4
		c-0.3-0.4-0.7-0.5-1.1-0.5c-0.5,0-0.8,0.2-1.1,0.5s-0.4,0.8-0.4,1.4s0.1,1.1,0.4,1.4c0.3,0.4,0.6,0.5,1.1,0.5
		C232.1,294.8,232.5,294.6,232.8,294.3z"/>
	<path class="st4" d="M238.1,290.1v0.9c-0.1-0.1-0.3-0.1-0.6-0.1s-0.5,0.1-0.8,0.3s-0.4,0.4-0.5,0.7v3.6h-0.9v-5.3h0.9v0.7
		c0.1-0.2,0.3-0.4,0.5-0.6s0.5-0.2,0.8-0.2C237.8,290,238,290.1,238.1,290.1z"/>
	<path class="st4" d="M242.6,295.1v-0.4c-0.1,0.2-0.4,0.4-0.6,0.5c-0.3,0.1-0.6,0.2-0.9,0.2c-0.7,0-1.3-0.3-1.8-0.8
		c-0.4-0.5-0.6-1.2-0.6-1.9c0-0.8,0.2-1.4,0.6-1.9c0.4-0.5,1-0.8,1.8-0.8c0.3,0,0.6,0.1,0.9,0.2c0.3,0.1,0.5,0.3,0.6,0.5v-0.6h0.9
		v4.9c0,0.8-0.2,1.5-0.7,1.9c-0.4,0.4-1,0.7-1.7,0.7c-0.6,0-1.2-0.2-1.6-0.5c-0.4-0.3-0.6-0.7-0.7-1.3h0.9c0.2,0.7,0.6,1,1.4,1
		C242.1,296.9,242.6,296.3,242.6,295.1z M242.6,293.8v-2.1c-0.3-0.6-0.8-0.8-1.4-0.8c-0.5,0-0.9,0.2-1.2,0.5
		c-0.3,0.4-0.4,0.8-0.4,1.4s0.1,1,0.4,1.4c0.3,0.3,0.7,0.5,1.2,0.5C241.8,294.6,242.2,294.4,242.6,293.8z"/>
	<path class="st4" d="M248.9,295.5H248v-0.4c-0.1,0.1-0.3,0.2-0.6,0.3c-0.3,0.1-0.5,0.2-0.8,0.2c-0.6,0-1-0.2-1.4-0.5
		s-0.6-0.7-0.6-1.2s0.2-0.9,0.6-1.2c0.4-0.3,0.9-0.5,1.5-0.5c0.3,0,0.5,0,0.8,0.1s0.4,0.2,0.6,0.3V292c0-0.3-0.1-0.6-0.3-0.8
		s-0.5-0.3-0.9-0.3c-0.6,0-0.9,0.2-1.1,0.7h-0.9c0.1-0.4,0.3-0.8,0.7-1.1c0.4-0.3,0.8-0.4,1.3-0.4c0.6,0,1.1,0.2,1.5,0.5
		s0.5,0.8,0.5,1.4L248.9,295.5L248.9,295.5z M248.1,294.2v-0.6c-0.1-0.2-0.2-0.3-0.5-0.5c-0.2-0.1-0.5-0.2-0.8-0.2
		c-0.4,0-0.7,0.1-0.9,0.2s-0.4,0.4-0.4,0.7c0,0.3,0.1,0.5,0.4,0.7s0.5,0.2,0.9,0.2c0.3,0,0.5-0.1,0.8-0.2
		C247.8,294.5,248,294.4,248.1,294.2z"/>
	<path class="st4" d="M250.5,295.5v-5.3h0.9v0.7c0.2-0.2,0.4-0.4,0.7-0.6s0.6-0.2,0.9-0.2c0.6,0,1.1,0.2,1.4,0.5
		c0.3,0.4,0.5,0.8,0.5,1.4v3.5H254v-3.3c0-0.4-0.1-0.7-0.3-0.9c-0.2-0.2-0.5-0.3-0.9-0.3c-0.3,0-0.6,0.1-0.8,0.3
		c-0.2,0.2-0.4,0.4-0.5,0.7v3.6h-1V295.5z"/>
	<path class="st4" d="M255.9,294h0.9c0.2,0.5,0.6,0.8,1.3,0.8c0.3,0,0.6-0.1,0.8-0.2c0.2-0.1,0.3-0.3,0.3-0.6c0-0.4-0.3-0.6-0.8-0.7
		l-1.1-0.3c-0.9-0.2-1.3-0.7-1.3-1.4c0-0.5,0.2-0.8,0.5-1.1c0.4-0.3,0.8-0.4,1.4-0.4s1,0.1,1.4,0.4s0.6,0.6,0.7,1.1h-0.9
		c-0.2-0.5-0.6-0.8-1.2-0.8c-0.3,0-0.5,0.1-0.7,0.2s-0.3,0.3-0.3,0.6c0,0.2,0.1,0.3,0.2,0.4s0.3,0.2,0.6,0.3l1,0.3
		c0.9,0.2,1.4,0.7,1.4,1.5c0,0.5-0.2,0.9-0.6,1.2c-0.4,0.3-0.8,0.4-1.4,0.4s-1.1-0.1-1.5-0.4C256.2,294.9,256,294.5,255.9,294z"/>
	<path class="st4" d="M267.8,295.5H267v-0.4c-0.1,0.1-0.3,0.2-0.6,0.3c-0.3,0.1-0.5,0.2-0.8,0.2c-0.6,0-1-0.2-1.4-0.5
		s-0.6-0.7-0.6-1.2s0.2-0.9,0.6-1.2c0.4-0.3,0.9-0.5,1.5-0.5c0.3,0,0.5,0,0.8,0.1s0.4,0.2,0.6,0.3V292c0-0.3-0.1-0.6-0.3-0.8
		s-0.5-0.3-0.9-0.3c-0.6,0-0.9,0.2-1.1,0.7h-0.9c0.1-0.4,0.3-0.8,0.7-1.1c0.4-0.3,0.8-0.4,1.3-0.4c0.6,0,1.1,0.2,1.5,0.5
		s0.5,0.8,0.5,1.4v3.5H267.8z M267,294.2v-0.6c-0.1-0.2-0.2-0.3-0.5-0.5c-0.2-0.1-0.5-0.2-0.8-0.2c-0.4,0-0.7,0.1-0.9,0.2
		s-0.4,0.4-0.4,0.7c0,0.3,0.1,0.5,0.4,0.7s0.5,0.2,0.9,0.2c0.3,0,0.5-0.1,0.8-0.2C266.7,294.5,266.9,294.4,267,294.2z"/>
	<path class="st4" d="M269.4,295.5v-5.3h0.9v0.7c0.2-0.2,0.4-0.4,0.7-0.6s0.6-0.2,0.9-0.2c0.6,0,1.1,0.2,1.4,0.5
		c0.3,0.4,0.5,0.8,0.5,1.4v3.5h-0.9v-3.3c0-0.4-0.1-0.7-0.3-0.9c-0.2-0.2-0.5-0.3-0.9-0.3c-0.3,0-0.6,0.1-0.8,0.3
		c-0.2,0.2-0.4,0.4-0.5,0.7v3.6h-1V295.5z"/>
	<path class="st4" d="M278.7,295.5v-0.6c-0.1,0.2-0.4,0.4-0.6,0.5c-0.3,0.1-0.6,0.2-0.9,0.2c-0.8,0-1.3-0.3-1.8-0.8
		c-0.4-0.5-0.6-1.2-0.6-2s0.2-1.4,0.6-2c0.4-0.5,1-0.8,1.8-0.8c0.3,0,0.6,0.1,0.9,0.2s0.5,0.3,0.6,0.5v-3.1h0.9v7.8L278.7,295.5
		L278.7,295.5z M278.7,293.9v-2.2c-0.1-0.3-0.3-0.5-0.6-0.6c-0.2-0.2-0.5-0.2-0.8-0.2c-0.5,0-0.9,0.2-1.2,0.5
		c-0.3,0.4-0.4,0.8-0.4,1.4s0.1,1,0.4,1.4s0.7,0.5,1.2,0.5c0.3,0,0.6-0.1,0.8-0.2C278.4,294.4,278.6,294.2,278.7,293.9z"/>
	<path class="st4" d="M284.2,294.1v-3.2h-0.9v-0.8h0.9v-1.4h0.9v1.4h1.3v0.8h-1.3v3.1c0,0.5,0.2,0.7,0.7,0.7c0.2,0,0.5-0.1,0.7-0.2
		v0.8c-0.2,0.1-0.5,0.2-0.8,0.2c-0.4,0-0.8-0.1-1.1-0.4C284.3,295,284.2,294.6,284.2,294.1z"/>
	<path class="st4" d="M288.6,288.1c0.1,0.1,0.2,0.2,0.2,0.4s-0.1,0.3-0.2,0.4s-0.3,0.2-0.4,0.2c-0.2,0-0.3-0.1-0.4-0.2
		s-0.2-0.2-0.2-0.4s0.1-0.3,0.2-0.4s0.2-0.2,0.4-0.2C288.3,288,288.4,288,288.6,288.1z M288.6,290.2v5.3h-0.9v-5.3H288.6z"/>
	<path class="st4" d="M289.8,294h0.9c0.2,0.5,0.6,0.8,1.3,0.8c0.3,0,0.6-0.1,0.8-0.2c0.2-0.1,0.3-0.3,0.3-0.6c0-0.4-0.3-0.6-0.8-0.7
		l-1.1-0.3c-0.9-0.2-1.3-0.7-1.3-1.4c0-0.5,0.2-0.8,0.5-1.1c0.4-0.3,0.8-0.4,1.4-0.4s1,0.1,1.4,0.4s0.6,0.6,0.7,1.1H293
		c-0.2-0.5-0.6-0.8-1.2-0.8c-0.3,0-0.5,0.1-0.7,0.2s-0.3,0.3-0.3,0.6c0,0.2,0.1,0.3,0.2,0.4s0.3,0.2,0.6,0.3l1,0.3
		c0.9,0.2,1.4,0.7,1.4,1.5c0,0.5-0.2,0.9-0.6,1.2c-0.4,0.3-0.8,0.4-1.4,0.4s-1.1-0.1-1.5-0.4C290.1,294.9,289.9,294.5,289.8,294z"/>
	<path class="st4" d="M294.8,294h0.9c0.2,0.5,0.6,0.8,1.3,0.8c0.3,0,0.6-0.1,0.8-0.2c0.2-0.1,0.3-0.3,0.3-0.6c0-0.4-0.3-0.6-0.8-0.7
		l-1.1-0.3c-0.9-0.2-1.3-0.7-1.3-1.4c0-0.5,0.2-0.8,0.5-1.1c0.4-0.3,0.8-0.4,1.4-0.4s1,0.1,1.4,0.4s0.6,0.6,0.7,1.1H298
		c-0.2-0.5-0.6-0.8-1.2-0.8c-0.3,0-0.5,0.1-0.7,0.2s-0.3,0.3-0.3,0.6c0,0.2,0.1,0.3,0.2,0.4s0.3,0.2,0.6,0.3l1,0.3
		c0.9,0.2,1.4,0.7,1.4,1.5c0,0.5-0.2,0.9-0.6,1.2c-0.4,0.3-0.8,0.4-1.4,0.4s-1.1-0.1-1.5-0.4C295.1,294.9,294.8,294.5,294.8,294z"/>
	<path class="st4" d="M304.4,290.2v5.3h-0.9v-0.7c-0.2,0.2-0.4,0.4-0.6,0.6c-0.3,0.1-0.6,0.2-0.9,0.2c-0.6,0-1-0.2-1.4-0.5
		c-0.3-0.4-0.5-0.8-0.5-1.4v-3.5h0.9v3.3c0,0.4,0.1,0.7,0.3,0.9c0.2,0.2,0.5,0.3,0.9,0.3c0.3,0,0.6-0.1,0.8-0.3
		c0.2-0.2,0.4-0.4,0.5-0.7v-3.6h0.9V290.2z"/>
	<path class="st4" d="M309.4,293.9h0.9c-0.1,0.5-0.3,0.9-0.7,1.2c-0.4,0.3-0.9,0.5-1.4,0.5c-0.7,0-1.3-0.3-1.8-0.8s-0.7-1.2-0.7-2
		s0.2-1.5,0.7-2c0.4-0.5,1-0.8,1.8-0.8c0.7,0,1.3,0.2,1.7,0.7c0.4,0.5,0.6,1.1,0.6,1.9v0.3h-3.8c0,0.6,0.2,1,0.4,1.3
		c0.3,0.3,0.7,0.5,1.1,0.5c0.3,0,0.6-0.1,0.8-0.2S309.3,294.2,309.4,293.9z M308.1,290.8c-0.4,0-0.7,0.1-1,0.4s-0.4,0.6-0.5,1.1h2.8
		c0-0.4-0.1-0.8-0.3-1.1C308.8,291,308.5,290.8,308.1,290.8z"/>
	<path class="st4" d="M311.1,294h0.9c0.2,0.5,0.6,0.8,1.3,0.8c0.3,0,0.6-0.1,0.8-0.2c0.2-0.1,0.3-0.3,0.3-0.6c0-0.4-0.3-0.6-0.8-0.7
		l-1.1-0.3c-0.9-0.2-1.3-0.7-1.3-1.4c0-0.5,0.2-0.8,0.5-1.1c0.4-0.3,0.8-0.4,1.4-0.4s1,0.1,1.4,0.4s0.6,0.6,0.7,1.1h-0.9
		c-0.2-0.5-0.6-0.8-1.2-0.8c-0.3,0-0.5,0.1-0.7,0.2s-0.3,0.3-0.3,0.6c0,0.2,0.1,0.3,0.2,0.4s0.3,0.2,0.6,0.3l1,0.3
		c0.9,0.2,1.4,0.7,1.4,1.5c0,0.5-0.2,0.9-0.6,1.2c-0.4,0.3-0.8,0.4-1.4,0.4s-1.1-0.1-1.5-0.4C311.4,294.9,311.2,294.5,311.1,294z"/>
</g>
<rect x="233.6" y="160" class="st5" width="141.9" height="13"/>
<rect x="233.6" y="179.6" class="st5" width="141.9" height="13"/>
<rect x="233.6" y="200.2" class="st5" width="141.9" height="13"/>
<rect x="233.6" y="220.8" class="st5" width="141.9" height="13"/>
<rect x="233.6" y="241.4" class="st5" width="141.9" height="13"/>
<g class="st2">
	<path d="M243,163.2h0.8v6.1H243v-2.8h-3.5v2.8h-0.8v-6.1h0.8v2.6h3.5V163.2z"/>
	<path d="M248.4,169.3h-0.7V169c-0.1,0.1-0.2,0.2-0.5,0.3c-0.2,0.1-0.5,0.1-0.7,0.1c-0.5,0-0.9-0.1-1.2-0.4c-0.3-0.3-0.5-0.6-0.5-1
		s0.2-0.7,0.5-1s0.7-0.4,1.2-0.4c0.2,0,0.4,0,0.7,0.1c0.2,0.1,0.4,0.2,0.5,0.2v-0.6c0-0.3-0.1-0.5-0.3-0.7s-0.4-0.3-0.7-0.3
		c-0.5,0-0.8,0.2-0.9,0.6h-0.7c0.1-0.4,0.3-0.7,0.6-0.9s0.7-0.4,1.1-0.4c0.5,0,0.9,0.1,1.2,0.4c0.3,0.3,0.5,0.7,0.5,1.2v3.1H248.4z
		 M247.7,168.2v-0.5c-0.1-0.2-0.2-0.3-0.4-0.4s-0.4-0.2-0.6-0.2c-0.3,0-0.5,0.1-0.8,0.2c-0.2,0.1-0.3,0.3-0.3,0.6s0.1,0.4,0.3,0.6
		s0.5,0.2,0.8,0.2c0.2,0,0.4-0.1,0.6-0.2S247.6,168.4,247.7,168.2z"/>
	<path d="M252,164.9v0.8c-0.1-0.1-0.3-0.1-0.5-0.1s-0.5,0.1-0.6,0.2c-0.2,0.1-0.3,0.3-0.4,0.6v3h-0.8V165h0.8v0.6
		c0.1-0.2,0.2-0.4,0.4-0.5s0.4-0.2,0.7-0.2C251.8,164.8,251.9,164.8,252,164.9z"/>
	<path d="M255.2,164.9v0.8c-0.1-0.1-0.3-0.1-0.5-0.1s-0.5,0.1-0.6,0.2c-0.2,0.1-0.3,0.3-0.4,0.6v3h-0.8V165h0.8v0.6
		c0.1-0.2,0.2-0.4,0.4-0.5s0.4-0.2,0.7-0.2C255,164.8,255.1,164.8,255.2,164.9z"/>
	<path d="M257.4,171h-0.7l0.7-1.7l-1.7-4.5h0.8l1.3,3.5l1.3-3.5h0.8L257.4,171z"/>
</g>
<g class="st2">
	<path d="M241,183.8h0.6l1.3,4.9l1.3-4.9h0.8l-1.6,6.1h-0.7l-1.3-4.8L240,190h-0.7l-1.6-6.1h0.8l1.3,4.9L241,183.8z"/>
	<path d="M246.5,183.8c0.1,0.1,0.1,0.2,0.1,0.3s0,0.2-0.1,0.3s-0.2,0.1-0.3,0.1s-0.2,0-0.3-0.1s-0.1-0.2-0.1-0.3s0-0.2,0.1-0.3
		s0.2-0.1,0.3-0.1S246.4,183.7,246.5,183.8z M246.5,185.5v4.4h-0.8v-4.4H246.5z"/>
	<path d="M247.9,190v-4.4h0.8v0.6c0.1-0.2,0.3-0.3,0.6-0.5c0.2-0.1,0.5-0.2,0.8-0.2c0.5,0,0.9,0.1,1.1,0.4s0.4,0.7,0.4,1.2v2.9h-0.8
		v-2.8c0-0.3-0.1-0.6-0.2-0.8c-0.2-0.2-0.4-0.3-0.7-0.3s-0.5,0.1-0.7,0.2c-0.2,0.2-0.4,0.4-0.4,0.6v3h-0.9V190z"/>
	<path d="M255.7,190v-0.5c-0.1,0.2-0.3,0.3-0.5,0.4s-0.5,0.2-0.7,0.2c-0.6,0-1.1-0.2-1.5-0.7c-0.4-0.4-0.5-1-0.5-1.6
		c0-0.7,0.2-1.2,0.5-1.6s0.8-0.7,1.5-0.7c0.3,0,0.5,0.1,0.7,0.2c0.2,0.1,0.4,0.3,0.5,0.4v-2.6h0.8v6.5L255.7,190L255.7,190z
		 M255.7,188.6v-1.8c-0.1-0.2-0.3-0.4-0.5-0.5s-0.4-0.2-0.7-0.2c-0.4,0-0.7,0.2-1,0.5c-0.2,0.3-0.4,0.7-0.4,1.2s0.1,0.9,0.4,1.2
		c0.2,0.3,0.6,0.5,1,0.5c0.2,0,0.5-0.1,0.7-0.2C255.4,189,255.6,188.9,255.7,188.6z"/>
	<path d="M260.6,188.6h0.7c-0.1,0.4-0.3,0.8-0.6,1s-0.7,0.4-1.2,0.4c-0.6,0-1.1-0.2-1.5-0.6c-0.4-0.4-0.6-1-0.6-1.7s0.2-1.2,0.6-1.7
		c0.4-0.4,0.9-0.7,1.5-0.7s1.1,0.2,1.4,0.6c0.3,0.4,0.5,0.9,0.5,1.6v0.3h-3.1c0,0.5,0.1,0.8,0.4,1.1c0.2,0.3,0.5,0.4,0.9,0.4
		c0.3,0,0.5-0.1,0.7-0.2C260.4,189.1,260.5,188.9,260.6,188.6z M259.5,186.1c-0.3,0-0.6,0.1-0.8,0.3c-0.2,0.2-0.4,0.5-0.4,0.9h2.4
		c0-0.4-0.1-0.6-0.3-0.9C260.1,186.2,259.8,186.1,259.5,186.1z"/>
	<path d="M264.6,185.5v0.8c-0.1-0.1-0.3-0.1-0.5-0.1s-0.5,0.1-0.6,0.2c-0.2,0.1-0.3,0.3-0.4,0.6v3h-0.8v-4.4h0.8v0.6
		c0.1-0.2,0.2-0.4,0.4-0.5c0.2-0.1,0.4-0.2,0.7-0.2C264.4,185.4,264.5,185.4,264.6,185.5z"/>
	<path d="M267.8,183.5v0.7c-0.1-0.1-0.3-0.1-0.5-0.1s-0.4,0.1-0.5,0.2c-0.1,0.1-0.2,0.3-0.2,0.6v0.7h1v0.6h-1v3.8h-0.7v-3.8h-0.8
		v-0.6h0.8v-0.7c0-0.4,0.1-0.8,0.4-1s0.6-0.4,1-0.4C267.4,183.4,267.6,183.4,267.8,183.5z"/>
	<path d="M271.2,188.6h0.7c-0.1,0.4-0.3,0.8-0.6,1s-0.7,0.4-1.2,0.4c-0.6,0-1.1-0.2-1.5-0.6c-0.4-0.4-0.6-1-0.6-1.7s0.2-1.2,0.6-1.7
		c0.4-0.4,0.9-0.7,1.5-0.7s1.1,0.2,1.4,0.6c0.3,0.4,0.5,0.9,0.5,1.6v0.3h-3.1c0,0.5,0.1,0.8,0.4,1.1c0.2,0.3,0.5,0.4,0.9,0.4
		c0.3,0,0.5-0.1,0.7-0.2C271,189.1,271.1,188.9,271.2,188.6z M270.1,186.1c-0.3,0-0.6,0.1-0.8,0.3c-0.2,0.2-0.4,0.5-0.4,0.9h2.4
		c0-0.4-0.1-0.6-0.3-0.9C270.7,186.2,270.4,186.1,270.1,186.1z"/>
	<path d="M273.7,183.5v6.5h-0.8v-6.5H273.7z"/>
</g>
<g class="st2">
	<path d="M241.2,203.6v6.1h-0.8v-5.2l-1.5,0.8v-0.8l1.8-0.9L241.2,203.6L241.2,203.6z"/>
	<path d="M245.4,205.2c0-0.3-0.1-0.6-0.3-0.8s-0.5-0.3-0.8-0.3c-0.4,0-0.6,0.1-0.8,0.3s-0.3,0.5-0.4,0.9h-0.8c0.1-0.6,0.3-1,0.6-1.4
		s0.8-0.5,1.4-0.5c0.6,0,1,0.2,1.4,0.5s0.5,0.7,0.5,1.3c0,0.1,0,0.2,0,0.3s0,0.2-0.1,0.3s-0.1,0.2-0.1,0.3c-0.1,0.1-0.1,0.2-0.1,0.2
		c0,0.1-0.1,0.1-0.2,0.3c-0.1,0.1-0.2,0.2-0.2,0.2s-0.1,0.1-0.2,0.3c-0.1,0.1-0.2,0.2-0.2,0.3l-1.6,1.7h2.9v0.7h-4v-0.5l2-2.2
		c0.3-0.3,0.5-0.6,0.6-0.7s0.2-0.3,0.3-0.5C245.3,205.6,245.4,205.4,245.4,205.2z"/>
	<path d="M247,208.3h0.8c0.2,0.6,0.6,0.9,1.1,0.9c0.4,0,0.8-0.2,1.1-0.7c0.3-0.4,0.4-1,0.4-1.7v-0.1v-0.1c-0.1,0.3-0.3,0.6-0.6,0.8
		s-0.6,0.3-1,0.3c-0.6,0-1.1-0.2-1.4-0.6c-0.4-0.4-0.6-0.9-0.6-1.4c0-0.6,0.2-1.1,0.6-1.5s0.9-0.6,1.5-0.6c0.8,0,1.4,0.4,1.8,1.2
		c0.2,0.5,0.4,1.1,0.4,1.9c0,1-0.2,1.8-0.6,2.4c-0.4,0.6-1,0.9-1.6,0.9C247.9,209.8,247.3,209.3,247,208.3z M250.3,205.5
		c0-0.4-0.1-0.7-0.4-1s-0.6-0.4-1-0.4s-0.7,0.1-0.9,0.4c-0.2,0.3-0.4,0.6-0.4,1s0.1,0.7,0.4,1c0.2,0.3,0.6,0.4,0.9,0.4
		c0.4,0,0.7-0.1,1-0.4S250.3,206,250.3,205.5z"/>
	<path d="M258.9,204.4c0.5,0.6,0.8,1.3,0.8,2.3c0,0.9-0.3,1.7-0.8,2.3s-1.2,0.9-2,0.9s-1.5-0.3-2-0.9s-0.8-1.3-0.8-2.3
		c0-0.9,0.3-1.7,0.8-2.3s1.2-0.9,2-0.9C257.7,203.5,258.4,203.8,258.9,204.4z M258.4,208.4c0.4-0.5,0.5-1,0.5-1.8
		c0-0.7-0.2-1.3-0.5-1.8s-0.8-0.7-1.4-0.7s-1.1,0.2-1.4,0.7s-0.5,1-0.5,1.8c0,0.7,0.2,1.3,0.5,1.8c0.4,0.5,0.8,0.7,1.4,0.7
		C257.5,209.1,258,208.9,258.4,208.4z"/>
	<path d="M261.5,203.2v6.5h-0.8v-6.5H261.5z"/>
	<path d="M265.8,209.7v-0.5c-0.1,0.2-0.3,0.3-0.5,0.4s-0.5,0.2-0.7,0.2c-0.6,0-1.1-0.2-1.5-0.7c-0.4-0.4-0.5-1-0.5-1.6
		c0-0.7,0.2-1.2,0.5-1.6s0.8-0.7,1.5-0.7c0.3,0,0.5,0.1,0.7,0.2c0.2,0.1,0.4,0.3,0.5,0.4v-2.6h0.8v6.5L265.8,209.7L265.8,209.7z
		 M265.8,208.4v-1.8c-0.1-0.2-0.3-0.4-0.5-0.5s-0.4-0.2-0.7-0.2c-0.4,0-0.7,0.2-1,0.5c-0.2,0.3-0.4,0.7-0.4,1.2s0.1,0.9,0.4,1.2
		c0.2,0.3,0.6,0.5,1,0.5c0.2,0,0.5-0.1,0.7-0.2C265.5,208.8,265.7,208.6,265.8,208.4z"/>
	<path d="M269.6,208.1h0.8c0.2,0.7,0.8,1,1.6,1c0.4,0,0.7-0.1,1-0.3c0.2-0.2,0.4-0.5,0.4-0.8c0-0.2-0.1-0.4-0.2-0.6
		c-0.2-0.2-0.4-0.3-0.8-0.4l-1.1-0.3c-1-0.3-1.5-0.8-1.5-1.6c0-0.5,0.2-0.9,0.6-1.3c0.4-0.3,0.9-0.5,1.4-0.5c0.6,0,1.1,0.1,1.5,0.4
		s0.6,0.7,0.8,1.2h-0.8c-0.2-0.6-0.7-0.9-1.5-0.9c-0.4,0-0.7,0.1-0.9,0.3s-0.4,0.4-0.4,0.7s0.1,0.5,0.2,0.6c0.2,0.1,0.4,0.3,0.7,0.3
		l1.1,0.3c1,0.3,1.5,0.8,1.5,1.6c0,0.5-0.2,1-0.6,1.3s-0.9,0.5-1.5,0.5s-1.1-0.1-1.6-0.4C270,209.1,269.7,208.7,269.6,208.1z"/>
	<path d="M275.4,208.6v-2.7h-0.7v-0.6h0.7v-1.2h0.8v1.2h1.1v0.6h-1.1v2.6c0,0.4,0.2,0.6,0.6,0.6c0.2,0,0.4-0.1,0.6-0.2v0.7
		c-0.2,0.1-0.4,0.1-0.7,0.1c-0.4,0-0.7-0.1-0.9-0.3C275.5,209.3,275.4,209,275.4,208.6z"/>
	<path d="M277.9,210.8l0.6-1.1c-0.3,0-0.4-0.2-0.4-0.5c0-0.2,0.1-0.3,0.2-0.4c0.1-0.1,0.2-0.1,0.4-0.1s0.3,0.1,0.4,0.2
		c0.1,0.1,0.1,0.2,0.1,0.4s-0.1,0.4-0.2,0.6l-0.5,0.9L277.9,210.8L277.9,210.8z"/>
	<path d="M282.4,209.7v-6.1h0.8v5.4h3.1v0.7L282.4,209.7L282.4,209.7z"/>
	<path d="M290.5,205.8c0.4,0.4,0.6,1,0.6,1.7s-0.2,1.2-0.6,1.7c-0.4,0.4-0.9,0.6-1.5,0.6s-1.1-0.2-1.5-0.6c-0.4-0.4-0.6-1-0.6-1.7
		s0.2-1.2,0.6-1.7c0.4-0.4,0.9-0.6,1.5-0.6S290.1,205.4,290.5,205.8z M290,208.7c0.2-0.3,0.3-0.7,0.3-1.2s-0.1-0.9-0.3-1.2
		s-0.5-0.5-0.9-0.5s-0.7,0.2-0.9,0.5s-0.3,0.7-0.3,1.2s0.1,0.9,0.3,1.2c0.2,0.3,0.5,0.5,0.9,0.5C289.4,209.1,289.7,209,290,208.7z"
		/>
	<path d="M292.1,209.7v-4.4h0.8v0.6c0.1-0.2,0.3-0.3,0.6-0.5c0.2-0.1,0.5-0.2,0.8-0.2c0.5,0,0.9,0.1,1.1,0.4s0.4,0.7,0.4,1.2v2.9
		H295v-2.8c0-0.3-0.1-0.6-0.2-0.8c-0.2-0.2-0.4-0.3-0.7-0.3c-0.3,0-0.5,0.1-0.7,0.2c-0.2,0.2-0.4,0.4-0.4,0.6v3h-0.9V209.7z"/>
	<path d="M299.9,209.7v-0.5c-0.1,0.2-0.3,0.3-0.5,0.4s-0.5,0.2-0.7,0.2c-0.6,0-1.1-0.2-1.5-0.7c-0.4-0.4-0.5-1-0.5-1.6
		c0-0.7,0.2-1.2,0.5-1.6s0.8-0.7,1.5-0.7c0.3,0,0.5,0.1,0.7,0.2c0.2,0.1,0.4,0.3,0.5,0.4v-2.6h0.8v6.5L299.9,209.7L299.9,209.7z
		 M299.9,208.4v-1.8c-0.1-0.2-0.3-0.4-0.5-0.5s-0.4-0.2-0.7-0.2c-0.4,0-0.7,0.2-1,0.5c-0.2,0.3-0.4,0.7-0.4,1.2s0.1,0.9,0.4,1.2
		c0.2,0.3,0.6,0.5,1,0.5c0.2,0,0.5-0.1,0.7-0.2C299.6,208.8,299.8,208.6,299.9,208.4z"/>
	<path d="M305.2,205.8c0.4,0.4,0.6,1,0.6,1.7s-0.2,1.2-0.6,1.7c-0.4,0.4-0.9,0.6-1.5,0.6s-1.1-0.2-1.5-0.6c-0.4-0.4-0.6-1-0.6-1.7
		s0.2-1.2,0.6-1.7c0.4-0.4,0.9-0.6,1.5-0.6C304.3,205.2,304.8,205.4,305.2,205.8z M304.7,208.7c0.2-0.3,0.3-0.7,0.3-1.2
		s-0.1-0.9-0.3-1.2s-0.5-0.5-0.9-0.5s-0.7,0.2-0.9,0.5s-0.3,0.7-0.3,1.2s0.1,0.9,0.3,1.2c0.2,0.3,0.5,0.5,0.9,0.5
		C304.1,209.1,304.4,209,304.7,208.7z"/>
	<path d="M306.8,209.7v-4.4h0.8v0.6c0.1-0.2,0.3-0.3,0.6-0.5c0.2-0.1,0.5-0.2,0.8-0.2c0.5,0,0.9,0.1,1.1,0.4s0.4,0.7,0.4,1.2v2.9
		h-0.8v-2.8c0-0.3-0.1-0.6-0.2-0.8c-0.2-0.2-0.4-0.3-0.7-0.3c-0.3,0-0.5,0.1-0.7,0.2c-0.2,0.2-0.4,0.4-0.4,0.6v3h-0.9V209.7z"/>
</g>
<g class="st2">
	<path d="M238.9,229.1h0.8c0.2,0.7,0.8,1,1.6,1c0.4,0,0.7-0.1,1-0.3c0.2-0.2,0.4-0.5,0.4-0.8c0-0.2-0.1-0.4-0.2-0.6
		c-0.2-0.2-0.4-0.3-0.8-0.4l-1.1-0.3c-1-0.3-1.5-0.8-1.5-1.6c0-0.5,0.2-0.9,0.6-1.3c0.4-0.3,0.9-0.5,1.4-0.5c0.6,0,1.1,0.1,1.5,0.4
		s0.6,0.7,0.8,1.2h-0.8c-0.2-0.6-0.7-0.9-1.5-0.9c-0.4,0-0.7,0.1-0.9,0.3s-0.4,0.4-0.4,0.7s0.1,0.5,0.2,0.6c0.2,0.1,0.4,0.3,0.7,0.3
		l1.1,0.3c1,0.3,1.5,0.8,1.5,1.6c0,0.5-0.2,1-0.6,1.3c-0.4,0.3-0.9,0.5-1.5,0.5s-1.1-0.1-1.6-0.4C239.3,230.1,239,229.7,238.9,229.1
		z"/>
	<path d="M244.5,224.6h3.9v0.7h-3.1v1.9h2.8v0.7h-2.8v2.1h3.1v0.7h-3.9V224.6z"/>
	<path d="M251.5,224.6v6.2h-0.8v-5.2l-1.5,0.8v-0.8l1.8-0.9h0.5V224.6z"/>
	<path d="M256.4,225.2l-2.2,5.5h-0.8l2.2-5.4h-3.2v-0.7h4V225.2z"/>
	<path d="M263,225.2l-2.2,5.5H260l2.2-5.4H259v-0.7h4V225.2z"/>
	<path d="M263.9,224.6h3.9v0.7h-3.1v1.9h2.8v0.7h-2.8v2.1h3.1v0.7h-3.9V224.6z"/>
	<path d="M269.9,230.7h-0.8v-6.1h3.8v0.7h-3v2.1h2.8v0.7h-2.8V230.7z"/>
</g>
<g class="st2">
	<path d="M242.6,251.3h-0.5l-1.9-4.7v4.7h-0.8v-6.1h0.9l2.1,5l2.1-5h0.9v6.1h-0.8v-4.7L242.6,251.3z"/>
	<path d="M249.9,251.3h-0.7V251c-0.1,0.1-0.2,0.2-0.5,0.3c-0.2,0.1-0.5,0.1-0.7,0.1c-0.5,0-0.9-0.1-1.2-0.4c-0.3-0.3-0.5-0.6-0.5-1
		s0.2-0.7,0.5-1s0.7-0.4,1.2-0.4c0.2,0,0.4,0,0.7,0.1c0.2,0.1,0.4,0.2,0.5,0.2v-0.6c0-0.3-0.1-0.5-0.3-0.7s-0.4-0.3-0.7-0.3
		c-0.5,0-0.8,0.2-0.9,0.6h-0.7c0.1-0.4,0.3-0.7,0.6-0.9s0.7-0.4,1.1-0.4c0.5,0,0.9,0.1,1.2,0.4c0.3,0.3,0.5,0.7,0.5,1.2v3.1H249.9z
		 M249.2,250.2v-0.5c-0.1-0.2-0.2-0.3-0.4-0.4s-0.4-0.2-0.6-0.2c-0.3,0-0.5,0.1-0.8,0.2c-0.2,0.1-0.3,0.3-0.3,0.6s0.1,0.4,0.3,0.6
		s0.5,0.2,0.8,0.2c0.2,0,0.4-0.1,0.6-0.2S249.1,250.4,249.2,250.2z"/>
	<path d="M252,244.8v6.5h-0.8v-6.5H252z"/>
	<path d="M256.1,250h0.7c-0.1,0.4-0.3,0.8-0.6,1s-0.7,0.4-1.2,0.4c-0.6,0-1.1-0.2-1.5-0.6c-0.4-0.4-0.6-1-0.6-1.7s0.2-1.2,0.6-1.7
		c0.4-0.4,0.9-0.7,1.5-0.7s1.1,0.2,1.4,0.6c0.3,0.4,0.5,0.9,0.5,1.6v0.3h-3.1c0,0.5,0.1,0.8,0.4,1.1c0.2,0.3,0.5,0.4,0.9,0.4
		c0.3,0,0.5-0.1,0.7-0.2C255.9,250.5,256,250.3,256.1,250z M255,247.5c-0.3,0-0.6,0.1-0.8,0.3s-0.4,0.5-0.4,0.9h2.4
		c0-0.4-0.1-0.6-0.3-0.9C255.6,247.6,255.4,247.5,255,247.5z"/>
</g>
<circle class="st5" cx="88.2" cy="37.1" r="3.4"/>
<circle class="st5" cx="100.8" cy="37.1" r="3.4"/>
<circle class="st5" cx="112.4" cy="37.1" r="3.4"/>
<g>
	<rect x="361.6" y="263.9" class="st5" width="13.9" height="13.9"/>
	<g>
		<path class="st3" d="M366.7,275.6l-4.3-3.1c-0.1-0.1-0.1-0.2,0-0.3c0.1-0.1,0.2-0.1,0.3,0l4.1,2.9l7.8-8.9c0.1-0.1,0.2-0.1,0.3,0
			c0.1,0.1,0.1,0.2,0,0.3L366.7,275.6z"/>
	</g>
</g>
<g>
	<rect x="361.6" y="284.7" class="st5" width="13.9" height="13.9"/>
</g>
<path class="st5" d="M241,44.1h-8c-1.4,0-2.9-1.1-3.3-2.4l-3.2-9.4c-0.4-1.3-1.9-2.4-3.3-2.4h-68.7c-1.4,0-3,1-3.6,2.3l-4.6,9.6
	c-0.6,1.2-2.2,2.3-3.6,2.3h-8.5H78.9v17.8h485.5V44.1H241z"/>
<path class="st0" d="M379.1,58.6H123.8c-2.5,0-4.6-2.1-4.6-4.6v-1.7c0-2.5,2.1-4.6,4.6-4.6h255.3c2.5,0,4.6,2.1,4.6,4.6V54
	C383.7,56.5,381.7,58.6,379.1,58.6z"/>
<line class="st6" x1="400.9" y1="340.1" x2="428.7" y2="340.1"/>
<g class="st2">
	<path d="M127.7,52.1l0.7,2.7l0.8-2.7h0.6l-1,3.6h-0.6l-0.7-2.7l-0.7,2.7h-0.6l-1-3.6h0.6l0.8,2.7l0.7-2.7H127.7z"/>
	<path d="M132.7,52.1l0.7,2.7l0.8-2.7h0.6l-1,3.6h-0.6l-0.7-2.7l-0.7,2.7h-0.6l-1-3.6h0.6l0.8,2.7l0.7-2.7H132.7z"/>
	<path d="M137.7,52.1l0.7,2.7l0.8-2.7h0.6l-1,3.6h-0.6l-0.7-2.7l-0.7,2.7h-0.6l-1-3.6h0.6l0.8,2.7l0.7-2.7H137.7z"/>
	<path d="M140.1,55.6c-0.1-0.1-0.1-0.2-0.1-0.3s0-0.2,0.1-0.3s0.2-0.1,0.3-0.1s0.2,0,0.3,0.1s0.1,0.2,0.1,0.3s0,0.2-0.1,0.3
		s-0.2,0.1-0.3,0.1C140.3,55.7,140.2,55.7,140.1,55.6z"/>
	<path d="M142.2,55.3V57h-0.6v-4.9h0.6v0.4c0.1-0.1,0.2-0.3,0.4-0.3c0.2-0.1,0.4-0.1,0.6-0.1c0.5,0,0.9,0.2,1.2,0.5s0.4,0.8,0.4,1.3
		s-0.1,1-0.4,1.3s-0.7,0.5-1.2,0.5c-0.2,0-0.4,0-0.6-0.1C142.5,55.5,142.3,55.4,142.2,55.3z M142.2,53.2v1.4
		c0.1,0.2,0.2,0.3,0.4,0.4c0.2,0.1,0.3,0.2,0.5,0.2c0.3,0,0.6-0.1,0.8-0.4s0.3-0.6,0.3-0.9c0-0.4-0.1-0.7-0.3-0.9s-0.5-0.4-0.8-0.4
		c-0.2,0-0.4,0.1-0.5,0.2C142.4,52.8,142.3,53,142.2,53.2z"/>
	<path d="M148.2,55.7h-0.6v-0.3c-0.1,0.1-0.2,0.2-0.4,0.2c-0.2,0.1-0.4,0.1-0.6,0.1c-0.4,0-0.7-0.1-0.9-0.3
		c-0.3-0.2-0.4-0.5-0.4-0.8s0.1-0.6,0.4-0.8s0.6-0.3,1-0.3c0.2,0,0.3,0,0.5,0.1s0.3,0.1,0.4,0.2v-0.4c0-0.2-0.1-0.4-0.2-0.6
		c-0.1-0.1-0.3-0.2-0.6-0.2c-0.4,0-0.6,0.2-0.7,0.5h-0.6c0.1-0.3,0.2-0.5,0.5-0.7s0.5-0.3,0.9-0.3s0.8,0.1,1,0.3s0.4,0.5,0.4,0.9
		L148.2,55.7L148.2,55.7z M147.6,54.8v-0.4c-0.1-0.1-0.2-0.2-0.3-0.3c-0.2-0.1-0.3-0.1-0.5-0.1s-0.4,0.1-0.6,0.2
		c-0.2,0.1-0.2,0.3-0.2,0.5s0.1,0.4,0.2,0.5c0.2,0.1,0.4,0.2,0.6,0.2c0.2,0,0.4,0,0.5-0.1C147.5,55,147.6,54.9,147.6,54.8z"/>
	<path d="M149.8,55.3V57h-0.6v-4.9h0.6v0.4c0.1-0.1,0.2-0.3,0.4-0.3c0.2-0.1,0.4-0.1,0.6-0.1c0.5,0,0.9,0.2,1.2,0.5s0.4,0.8,0.4,1.3
		s-0.1,1-0.4,1.3s-0.7,0.5-1.2,0.5c-0.2,0-0.4,0-0.6-0.1C150.1,55.5,149.9,55.4,149.8,55.3z M149.8,53.2v1.4
		c0.1,0.2,0.2,0.3,0.4,0.4c0.2,0.1,0.3,0.2,0.5,0.2c0.3,0,0.6-0.1,0.8-0.4s0.3-0.6,0.3-0.9c0-0.4-0.1-0.7-0.3-0.9s-0.5-0.4-0.8-0.4
		c-0.2,0-0.4,0.1-0.5,0.2C150.1,52.8,149.9,53,149.8,53.2z"/>
	<path d="M155.5,54.6h0.6c-0.1,0.3-0.2,0.6-0.5,0.8s-0.6,0.3-1,0.3c-0.5,0-0.9-0.2-1.2-0.5s-0.5-0.8-0.5-1.3s0.1-1,0.4-1.3
		c0.3-0.3,0.7-0.5,1.2-0.5s0.8,0.2,1.1,0.5s0.4,0.7,0.4,1.3V54h-2.5c0,0.4,0.1,0.7,0.3,0.9s0.4,0.3,0.7,0.3c0.2,0,0.4-0.1,0.6-0.2
		S155.5,54.8,155.5,54.6z M154.6,52.6c-0.3,0-0.5,0.1-0.7,0.3s-0.3,0.4-0.3,0.7h1.9c0-0.3-0.1-0.5-0.2-0.7
		C155.1,52.7,154.9,52.6,154.6,52.6z"/>
	<path d="M158.8,52.1v0.6c-0.1-0.1-0.2-0.1-0.4-0.1s-0.4,0.1-0.5,0.2c-0.1,0.1-0.3,0.3-0.3,0.5v2.4H157v-3.6h0.6v0.5
		c0.1-0.2,0.2-0.3,0.4-0.4c0.2-0.1,0.3-0.2,0.5-0.2C158.6,52,158.7,52.1,158.8,52.1z"/>
	<path d="M159.2,54.7h0.6c0.1,0.4,0.4,0.5,0.8,0.5c0.2,0,0.4,0,0.5-0.1s0.2-0.2,0.2-0.4s-0.2-0.4-0.5-0.5l-0.7-0.2
		c-0.6-0.1-0.9-0.5-0.9-0.9c0-0.3,0.1-0.6,0.4-0.8c0.2-0.2,0.5-0.3,0.9-0.3s0.7,0.1,0.9,0.3s0.4,0.4,0.4,0.7h-0.6
		c-0.1-0.3-0.4-0.5-0.8-0.5c-0.2,0-0.3,0-0.5,0.1s-0.2,0.2-0.2,0.4c0,0.1,0,0.2,0.1,0.3s0.2,0.1,0.4,0.2l0.7,0.2
		c0.6,0.2,0.9,0.5,0.9,1c0,0.3-0.1,0.6-0.4,0.8c-0.2,0.2-0.6,0.3-1,0.3s-0.7-0.1-1-0.3C159.4,55.3,159.2,55,159.2,54.7z"/>
	<path d="M162.8,55.7v-5.2h0.6v2.1c0.1-0.1,0.3-0.3,0.4-0.4s0.4-0.1,0.6-0.1c0.4,0,0.7,0.1,0.9,0.4c0.2,0.2,0.3,0.5,0.3,0.9v2.3H165
		v-2.2c0-0.3-0.1-0.5-0.2-0.6c-0.1-0.2-0.3-0.2-0.6-0.2c-0.2,0-0.4,0.1-0.6,0.2c-0.2,0.1-0.3,0.3-0.3,0.5v2.4h-0.5V55.7z"/>
	<path d="M169.3,52.6c0.3,0.3,0.5,0.8,0.5,1.3s-0.2,1-0.5,1.3s-0.7,0.5-1.2,0.5s-0.9-0.2-1.2-0.5s-0.5-0.8-0.5-1.3s0.2-1,0.5-1.3
		s0.7-0.5,1.2-0.5S169,52.2,169.3,52.6z M168.8,54.8c0.2-0.2,0.3-0.6,0.3-1s-0.1-0.7-0.3-1c-0.2-0.2-0.4-0.4-0.7-0.4
		s-0.6,0.1-0.7,0.4c-0.2,0.2-0.3,0.6-0.3,1s0.1,0.7,0.3,1c0.2,0.2,0.4,0.4,0.7,0.4C168.4,55.2,168.6,55.1,168.8,54.8z"/>
	<path d="M171.1,55.3V57h-0.6v-4.9h0.6v0.4c0.1-0.1,0.2-0.3,0.4-0.3c0.2-0.1,0.4-0.1,0.6-0.1c0.5,0,0.9,0.2,1.2,0.5s0.4,0.8,0.4,1.3
		s-0.1,1-0.4,1.3s-0.7,0.5-1.2,0.5c-0.2,0-0.4,0-0.6-0.1C171.4,55.5,171.2,55.4,171.1,55.3z M171.1,53.2v1.4
		c0.1,0.2,0.2,0.3,0.4,0.4c0.2,0.1,0.3,0.2,0.5,0.2c0.3,0,0.6-0.1,0.8-0.4s0.3-0.6,0.3-0.9c0-0.4-0.1-0.7-0.3-0.9s-0.5-0.4-0.8-0.4
		c-0.2,0-0.4,0.1-0.5,0.2C171.3,52.8,171.2,53,171.1,53.2z"/>
	<path d="M174.3,55.6c-0.1-0.1-0.1-0.2-0.1-0.3s0-0.2,0.1-0.3s0.2-0.1,0.3-0.1s0.2,0,0.3,0.1s0.1,0.2,0.1,0.3s0,0.2-0.1,0.3
		s-0.2,0.1-0.3,0.1C174.5,55.7,174.4,55.7,174.3,55.6z"/>
	<path d="M175.9,55.2c-0.3-0.3-0.4-0.8-0.4-1.3s0.1-1,0.4-1.3c0.3-0.3,0.7-0.5,1.2-0.5c0.4,0,0.7,0.1,1,0.3s0.4,0.5,0.5,0.8H178
		c0-0.2-0.1-0.3-0.3-0.5c-0.1-0.1-0.3-0.2-0.5-0.2c-0.3,0-0.5,0.1-0.7,0.4c-0.2,0.2-0.3,0.6-0.3,1s0.1,0.7,0.3,1s0.4,0.4,0.7,0.4
		c0.2,0,0.4-0.1,0.5-0.2c0.1-0.1,0.2-0.3,0.3-0.5h0.6c-0.1,0.3-0.2,0.6-0.5,0.8s-0.6,0.3-1,0.3C176.6,55.7,176.2,55.6,175.9,55.2z"
		/>
	<path d="M181.8,52.6c0.3,0.3,0.5,0.8,0.5,1.3s-0.2,1-0.5,1.3s-0.7,0.5-1.2,0.5s-0.9-0.2-1.2-0.5s-0.5-0.8-0.5-1.3s0.2-1,0.5-1.3
		s0.7-0.5,1.2-0.5S181.5,52.2,181.8,52.6z M181.4,54.8c0.2-0.2,0.3-0.6,0.3-1s-0.1-0.7-0.3-1c-0.2-0.2-0.4-0.4-0.7-0.4
		s-0.6,0.1-0.7,0.4c-0.2,0.2-0.3,0.6-0.3,1s0.1,0.7,0.3,1c0.2,0.2,0.4,0.4,0.7,0.4C180.9,55.2,181.2,55.1,181.4,54.8z"/>
	<path d="M185.6,52.6c0.3-0.4,0.6-0.6,1.1-0.6c0.4,0,0.6,0.1,0.8,0.3s0.3,0.5,0.3,0.9v2.4h-0.6v-2.3c0-0.3-0.1-0.5-0.2-0.6
		c-0.1-0.1-0.3-0.2-0.5-0.2s-0.3,0.1-0.5,0.2c-0.1,0.1-0.2,0.3-0.3,0.5v2.4h-0.6v-2.3c0-0.3-0.1-0.5-0.2-0.6
		c-0.1-0.1-0.3-0.2-0.5-0.2s-0.3,0.1-0.5,0.2c-0.1,0.1-0.2,0.3-0.3,0.5v2.4H183V52h0.6v0.4c0.2-0.3,0.5-0.5,1-0.5
		C185.1,52,185.4,52.2,185.6,52.6z"/>
</g>
<g>
	<path class="st7" d="M562.4,15.9H82.2c-8.4,0-15.2,6.8-15.2,15.2v319.3c0,8.4,6.8,15.2,15.2,15.2h480.1c8.4,0,15.2-6.8,15.2-15.2
		V31.1C577.6,22.7,570.7,15.9,562.4,15.9z M564.4,353.2H78.9V28.9h485.5V353.2z"/>
</g>
<g>
	<polygon class="st8" points="78.9,353.2 200.2,352.7 321.5,352.4 442.8,352.3 564.1,352.3 563.1,353.2 563.2,272.1 563.4,191.1 
		563.7,110 564.1,28.9 564.5,110 564.7,191.1 564.9,272.1 565,353.2 565,354.2 564.1,354.2 442.8,354.2 321.5,354.1 200.2,353.8 	
		"/>
</g>
<g>
	<path class="st4" d="M389.7,360.1c0,0,39,1.1,97.5,2.6c14.6,0.4,30.5,0.9,47.2,1.4c8.4,0.2,17,0.5,25.8,0.8h1.7h0.4h0.4
		c0.3,0,0.5,0,0.8,0c1-0.1,2.1-0.3,3.1-0.6c2-0.6,3.9-1.7,5.5-3.2s2.8-3.2,3.6-5.2c0.4-1,0.7-2,0.9-3.1s0.2-2.1,0.2-3.3
		c0-36.6-0.1-75.6-0.1-114.6s0-78,0-114.6c0-18.3,0-36,0.1-52.7c0-8.4,0-16.5,0-24.4c0-3.9,0-7.8,0-11.6c0.1-3.6-1.3-7.1-3.6-9.7
		s-5.4-4.3-8.7-4.8c-0.8-0.1-1.6-0.2-2.5-0.2s-1.7,0-2.6,0c-1.7,0-3.4,0-5.1,0c-6.7,0-13-0.1-18.9-0.1c-11.9-0.1-22.3-0.2-30.8-0.3
		c-17.1-0.2-26.8-0.3-26.8-0.3s9.8-0.1,26.8-0.3c8.5-0.1,18.9-0.2,30.8-0.3c5.9,0,12.3-0.1,18.9-0.1c1.7,0,3.4,0,5.1,0
		c0.9,0,1.7,0,2.6,0c0.9,0,1.8,0,2.7,0.2c3.7,0.5,7.2,2.4,9.8,5.3s4.1,6.8,4,10.8c0,3.8,0,7.7,0,11.6c0,7.9,0,16,0,24.4
		c0,16.8,0,34.5,0.1,52.7c0,36.6,0,75.6,0,114.6s-0.1,78-0.1,114.6c0,1.1,0,2.4-0.2,3.5c-0.2,1.2-0.5,2.3-1,3.4
		c-0.9,2.2-2.3,4.2-4,5.8c-1.7,1.6-3.8,2.8-6.1,3.5c-1.1,0.3-2.3,0.6-3.4,0.6c-0.3,0-0.6,0-0.9,0h-0.5H562l-1.7-0.1
		c-8.8-0.3-17.4-0.6-25.8-0.9c-16.8-0.6-32.6-1.1-47.2-1.7C428.7,361.5,389.7,360.1,389.7,360.1z"/>
</g>
<path class="st9" d="M635.4,372.1L635.4,372.1c0,4-3.3,7.2-7.2,7.2H16.5c-4,0-7.2-3.3-7.2-7.2l0,0"/>
<g>
	<path class="st9" d="M635.4,372.7v-12.6H373.5v1.4c0,2.3-1.9,4.2-4.2,4.2h-94c-2.3,0-4.2-1.9-4.2-4.2v-1.4H9.3v12"/>
	<path class="st9" d="M275.3,365.7h94c2.3,0,4.2-1.9,4.2-4.2v-1.4H271.1v1.4C271.1,363.8,273,365.7,275.3,365.7z"/>
</g>
<g>
	<path class="st9" d="M373.5,360.1v1.4c0,2.3-1.9,4.2-4.2,4.2h-94c-2.3,0-4.2-1.9-4.2-4.2v-1.4H9.3v12"/>
	<path class="st9" d="M570.7,360.1"/>
	<g>
		<path class="st4" d="M373.5,360.1l65.5-0.4l65.5-0.3l65.5-0.2l65.5-0.1c0.5,0,1,0.4,1,1l0,0v8.7v2.2v1.1c0,0.5,0,0.7-0.1,1.2
			c-0.2,1.7-1,3.2-2.1,4.4c-1.1,1.2-2.6,2.1-4.2,2.4c-0.4,0.1-0.8,0.2-1.2,0.2h-0.6h-0.5h-2.2h-8.7h-34.8l-69.5-0.2l-69.5-0.3
			l-69.5-0.4l69.5-0.4l69.5-0.3l69.5-0.2h34.8h8.7h2.2h0.5h0.5c0.3,0,0.6-0.1,0.9-0.2c1.2-0.3,2.4-1,3.2-1.9
			c0.9-0.9,1.4-2.2,1.6-3.3c0.1-0.2,0.1-0.7,0.1-1V371v-2.2v-8.7l1,1l-65.5-0.1l-65.5-0.2l-65.5-0.3L373.5,360.1z"/>
	</g>
	<path class="st9" d="M275.3,365.7h94c2.3,0,4.2-1.9,4.2-4.2v-1.4H271.1v1.4C271.1,363.8,273,365.7,275.3,365.7z"/>
</g>
<path class="st3" d="M658.9,412.5H442.6c-1.8,0-3.3-1.5-3.3-3.3V274.9c0-1.8,1.5-3.3,3.3-3.3h216.3c1.8,0,3.3,1.5,3.3,3.3v134.3
	C662.2,411,660.7,412.5,658.9,412.5z"/>
<g class="st2">
	<path class="st0" d="M505.5,317v-12.9h4.1c1.9,0,3.4,0.6,4.5,1.8c1.1,1.2,1.7,2.7,1.7,4.7s-0.6,3.5-1.7,4.7
		c-1.1,1.2-2.7,1.8-4.5,1.8h-4.1V317z M507.1,315.5h2.5c1.5,0,2.6-0.4,3.4-1.3s1.2-2.1,1.2-3.6s-0.4-2.7-1.2-3.6s-2-1.3-3.4-1.3
		h-2.5V315.5z"/>
	<path class="st0" d="M524.9,308.9c0.8,0.9,1.2,2.1,1.2,3.5s-0.4,2.6-1.2,3.5s-1.8,1.4-3.1,1.4s-2.3-0.5-3.1-1.4s-1.2-2.1-1.2-3.5
		s0.4-2.6,1.2-3.5s1.8-1.4,3.1-1.4C523,307.5,524.1,308,524.9,308.9z M523.7,314.9c0.5-0.6,0.7-1.5,0.7-2.5s-0.2-1.9-0.7-2.5
		s-1.1-1-2-1s-1.5,0.3-2,1c-0.5,0.6-0.7,1.5-0.7,2.5s0.2,1.9,0.7,2.5s1.1,1,2,1S523.2,315.5,523.7,314.9z"/>
	<path class="st0" d="M528.2,317v-9.3h1.6v1.2c0.3-0.4,0.7-0.7,1.2-1s1-0.4,1.6-0.4c1,0,1.8,0.3,2.4,0.9s0.9,1.4,0.9,2.5v6.1h-1.6
		v-5.9c0-0.7-0.2-1.2-0.5-1.6s-0.9-0.6-1.5-0.6c-0.5,0-1,0.2-1.5,0.5c-0.4,0.3-0.7,0.7-0.9,1.2v6.3L528.2,317L528.2,317z"/>
	<path class="st0" d="M545.2,308.9c0.8,0.9,1.2,2.1,1.2,3.5s-0.4,2.6-1.2,3.5s-1.8,1.4-3.1,1.4s-2.3-0.5-3.1-1.4s-1.2-2.1-1.2-3.5
		s0.4-2.6,1.2-3.5s1.8-1.4,3.1-1.4C543.3,307.5,544.4,308,545.2,308.9z M544,314.9c0.5-0.6,0.7-1.5,0.7-2.5s-0.2-1.9-0.7-2.5
		s-1.1-1-2-1c-0.8,0-1.5,0.3-2,1c-0.5,0.6-0.7,1.5-0.7,2.5s0.2,1.9,0.7,2.5s1.1,1,2,1C542.9,315.8,543.5,315.5,544,314.9z"/>
	<path class="st0" d="M553.3,307.7v1.6c-0.3-0.2-0.6-0.3-1-0.3c-0.5,0-1,0.2-1.3,0.5c-0.4,0.3-0.7,0.7-0.8,1.3v6.3h-1.6v-9.3h1.6
		v1.2c0.2-0.4,0.5-0.7,0.9-1s0.9-0.4,1.4-0.4C552.8,307.5,553.1,307.6,553.3,307.7z"/>
	<path class="st0" d="M560.4,315.9c-0.8-0.9-1.2-2.1-1.2-3.5s0.4-2.6,1.2-3.5s1.8-1.3,3.1-1.3c1,0,1.9,0.3,2.5,0.8s1.1,1.3,1.2,2.2
		h-1.6c-0.1-0.5-0.4-0.9-0.7-1.2s-0.8-0.4-1.4-0.4c-0.8,0-1.4,0.3-1.9,1c-0.5,0.6-0.7,1.5-0.7,2.5s0.2,1.9,0.7,2.5s1.1,1,1.9,1
		c0.6,0,1-0.1,1.4-0.4s0.6-0.7,0.7-1.2h1.6c-0.2,0.9-0.6,1.6-1.2,2.2s-1.5,0.8-2.5,0.8C562.2,317.2,561.2,316.8,560.4,315.9z"/>
	<path class="st0" d="M576,317h-1.5v-0.7c-0.2,0.2-0.5,0.4-1,0.6s-1,0.3-1.5,0.3c-1,0-1.8-0.3-2.5-0.8s-1-1.3-1-2.2
		c0-0.9,0.3-1.6,1-2.1s1.5-0.8,2.5-0.8c0.5,0,0.9,0.1,1.4,0.2c0.4,0.2,0.8,0.3,1,0.5v-1.2c0-0.6-0.2-1.1-0.5-1.4
		c-0.4-0.4-0.9-0.5-1.5-0.5c-1,0-1.6,0.4-1.9,1.3H569c0.2-0.8,0.5-1.4,1.2-1.9c0.6-0.5,1.4-0.7,2.3-0.7c1.1,0,2,0.3,2.6,0.9
		s0.9,1.4,0.9,2.4V317z M574.5,314.7v-1c-0.1-0.3-0.4-0.6-0.8-0.8s-0.9-0.3-1.4-0.3c-0.6,0-1.1,0.1-1.6,0.4s-0.7,0.7-0.7,1.2
		s0.2,0.9,0.7,1.2c0.4,0.3,1,0.4,1.6,0.4c0.5,0,0.9-0.1,1.4-0.3S574.3,315.1,574.5,314.7z"/>
	<path class="st0" d="M583.5,307.7v1.6c-0.3-0.2-0.6-0.3-1-0.3c-0.5,0-1,0.2-1.3,0.5c-0.4,0.3-0.7,0.7-0.8,1.3v6.3h-1.6v-9.3h1.6
		v1.2c0.2-0.4,0.5-0.7,0.9-1s0.9-0.4,1.4-0.4C583,307.5,583.3,307.6,583.5,307.7z"/>
	<path class="st0" d="M591.3,317v-1.1c-0.3,0.4-0.6,0.7-1.1,0.9c-0.5,0.2-1,0.4-1.5,0.4c-1.3,0-2.3-0.5-3.1-1.4
		c-0.7-0.9-1.1-2.1-1.1-3.5s0.4-2.5,1.1-3.5c0.7-0.9,1.8-1.4,3.1-1.4c0.5,0,1.1,0.1,1.5,0.4c0.5,0.2,0.8,0.5,1.1,0.9v-5.4h1.6V317
		H591.3z M591.3,314.3v-3.8c-0.2-0.5-0.6-0.9-1-1.1c-0.4-0.3-0.9-0.4-1.4-0.4c-0.9,0-1.6,0.3-2.1,1c-0.5,0.6-0.8,1.5-0.8,2.5
		s0.3,1.8,0.8,2.5s1.2,1,2.1,1c0.5,0,1-0.1,1.4-0.4C590.7,315.1,591.1,314.7,591.3,314.3z"/>
</g>
<path class="st10" d="M550.8,347.8c1.6-5,6.2-8.6,11.8-8.8h0.4c6.6,0,11.9,5.3,11.9,11.5v1.1l-0.1,0.7c-0.4,4.6-3.1,9.5-6.4,13.2
	c0,0-11.8,12-17.6,15h-0.1c-5.8-3-17.6-15-17.6-15c-3.3-3.7-5.9-8.6-6.4-13.2l-0.1-0.7v-1.1c0-6.1,5.3-11.5,11.9-11.5h0.4
	C544.5,339.1,549.1,342.8,550.8,347.8L550.8,347.8z"/>
</svg>
