<?xml version="1.0" encoding="utf-8"?>
<!-- Generator: Adobe Illustrator 19.1.0, SVG Export Plug-In . SVG Version: 6.00 Build 0)  -->
<svg version="1.1" id="Layer_1" xmlns="http://www.w3.org/2000/svg" xmlns:xlink="http://www.w3.org/1999/xlink" x="0px" y="0px"
	 viewBox="0 0 517 249.6" style="enable-background:new 0 0 517 249.6;" xml:space="preserve">
<style type="text/css">
	.st0{fill-rule:evenodd;clip-rule:evenodd;fill:#3A50A2;}
	.st1{fill-rule:evenodd;clip-rule:evenodd;fill:#FFFFFF;}
	
		.st2{fill-rule:evenodd;clip-rule:evenodd;fill:none;stroke:#1D1D1B;stroke-width:3;stroke-linecap:round;stroke-linejoin:round;stroke-miterlimit:10;}
	.st3{fill-rule:evenodd;clip-rule:evenodd;fill:none;stroke:#FFFFFF;stroke-miterlimit:10;}
	.st4{fill:none;}
	.st5{fill:#FFFFFF;}
	.st6{fill-rule:evenodd;clip-rule:evenodd;fill:#B2B2B2;stroke:#000000;stroke-width:0.75;stroke-miterlimit:10;}
	.st7{fill:none;stroke:#FFFFFF;stroke-linecap:round;stroke-linejoin:round;}
	.st8{fill:none;stroke:#FFFFFF;stroke-width:2;stroke-linecap:round;stroke-linejoin:round;}
	.st9{fill:none;stroke:#1D1D1B;stroke-width:2;stroke-miterlimit:10;}
	.st10{fill:#3A50A2;}
	.st11{fill:#010101;}
	.st12{fill:none;stroke:#010101;stroke-width:0.75;stroke-miterlimit:10;}
</style>
<g id="HV7GE5_2_">
	<g>
		<g>
			<path class="st0" d="M65.2,91.6c12.7,0.8,24.4,4.2,34.8,11.3c1.2,0.8,2,3.1,2.1,4.7c0.1,7.5-0.2,15-0.2,22.5
				c0,18,0.1,35.9,0.1,53.9c0,6.5,0.4,13-0.3,19.5c-0.2,2.5-2.1,5.8-4.2,7c-24,12.8-47.9,12.2-71.3-1.7c-1.5-0.9-3-3.3-3.1-5.1
				c-0.5-21.2-0.7-42.3-1-63.5c-0.1-9.6-0.3-19.1-0.7-28.6c-0.3-5.4,1.9-8.7,6.7-11c8.9-4.3,17.9-8,28.2-8.5
				C59.8,91.5,60.6,91.5,65.2,91.6z M61.2,99.4c-3.8-0.2-7.4,0.2-7.2,5.4c0.1,4.1,3.8,7.5,8,7c4-0.4,6.3-2.8,6.2-6.9
				C68.1,100.5,65.7,98.7,61.2,99.4z"/>
		</g>
	</g>
</g>
<circle class="st1" cx="61.2" cy="105.2" r="7.6"/>
<path class="st2" d="M11.4,15.7c0,0,18.8,40.4,31.5,50.5c7.9,6.3,28.5,7.3,36.4,0.3c13.4-11.8,29.8-51.4,29.8-51.4"/>
<polygon class="st3" points="54.6,208.6 47.5,196.2 54.6,183.8 68.9,183.8 76.1,196.2 68.9,208.6 "/>
<g>
	<rect x="42.9" y="162.5" class="st4" width="37.7" height="17.9"/>
	<path class="st5" d="M48.4,162.5h2.2l4,7v-7h2v10.1h-2.1l-4.1-7.1v7.1h-2V162.5z"/>
	<path class="st5" d="M58.6,162.5h7.2v1.8h-5.1v2.3h4.5v1.8h-4.5v4.2h-2.1V162.5z"/>
	<path class="st5" d="M68.1,163.5c0.8-0.8,1.8-1.2,3.1-1.2c1.7,0,2.9,0.6,3.7,1.7c0.4,0.6,0.7,1.3,0.7,1.9h-2.1
		c-0.1-0.5-0.3-0.8-0.5-1.1c-0.4-0.4-0.9-0.7-1.7-0.7c-0.8,0-1.3,0.3-1.8,0.9c-0.4,0.6-0.6,1.5-0.6,2.6s0.2,2,0.7,2.5
		c0.5,0.6,1,0.8,1.7,0.8c0.7,0,1.3-0.2,1.7-0.7c0.2-0.3,0.4-0.6,0.5-1.2h2.1c-0.2,1.1-0.6,2-1.4,2.7c-0.7,0.7-1.7,1-2.9,1
		c-1.4,0-2.6-0.5-3.4-1.4c-0.8-0.9-1.2-2.2-1.2-3.8C66.7,165.8,67.2,164.5,68.1,163.5z"/>
</g>
<path class="st1" d="M51.4,192.5c0.9-1.4,1.5-2.5,2.4-3.9c1.6,0.7,5.7,2.1,5.7,2.1l0.5-5.6h4.4c0,0,0.1,3.8,0.3,5.8
	c1.8-0.8,3.3-1.4,5.1-2.2c0.7,1.1,1.5,2.3,2.4,3.7c-1.6,1.2-3,2.3-4.6,3.6c1.5,1.1,2.8,2,4.4,3.2c-0.6,1.2-1.1,2.5-1.9,4.1
	c-1.8-0.8-3.4-1.4-5.4-2.2c-0.2,1.9-0.4,3.4-0.6,5.3c-1.5,0-4.4,0-4.4,0s-0.5-3.3-0.8-5.3c-1.9,0.8-3.4,1.4-5.2,2.2
	c-0.7-1.2-1.5-2.4-2.4-3.8c1.6-1.2,3-2.3,4.7-3.5C54.5,194.8,53.2,193.9,51.4,192.5z M62.8,187.5c-0.5,0-1.1,0.1-1.6,0.1
	c0,5.5,0,11.1,0,16.6c0.5,0,1.1,0,1.6,0C62.8,198.6,62.8,193,62.8,187.5z"/>
<path class="st0" d="M62.6,187.5c0,5.6,0,11.2,0,16.7c-0.5,0-1.1,0-1.6,0c0-5.5,0-11.1,0-16.6C61.5,187.5,62,187.5,62.6,187.5z"/>
<path class="st6" d="M65,97.3c0,1.9-1.6,3.5-3.5,3.5l0,0c-1.9,0-3.5-1.6-3.5-3.5v-30c0-1.9,1.6-3.5,3.5-3.5l0,0
	c1.9,0,3.5,1.6,3.5,3.5V97.3z"/>
<g>
	<path class="st7" d="M52.7,156c4.4-4.4,11.4-4.3,15.8,0.1"/>
	<path class="st8" d="M48.8,149.7c6.8-6.8,17.8-6.7,24.5,0.1"/>
	<path class="st8" d="M43.8,142.4c10-9.9,26.1-9.9,36,0.1"/>
</g>
<g>
	
		<image style="overflow:visible;opacity:0.49;" width="998" height="821" xlink:href="865FA54CFD612C74.png"  transform="matrix(0.24 0 0 0.24 277.5203 0)">
	</image>
	<g>
		<path class="st5" d="M513.5,185.8c0,1.5-1.2,2.7-2.7,2.7H288.8c-1.5,0-2.7-1.2-2.7-2.7V6.2c0-1.5,1.2-2.7,2.7-2.7h222.1
			c1.5,0,2.7,1.2,2.7,2.7V185.8z"/>
		<path class="st9" d="M513.5,185.8c0,1.5-1.2,2.7-2.7,2.7H288.8c-1.5,0-2.7-1.2-2.7-2.7V6.2c0-1.5,1.2-2.7,2.7-2.7h222.1
			c1.5,0,2.7,1.2,2.7,2.7V185.8z"/>
	</g>
</g>
<g>
	<rect x="308.6" y="26.2" class="st4" width="177.7" height="149.3"/>
	<path class="st10" d="M313,27.2v9h-1.1v-9h-2.9v-1h6.8v1H313z"/>
	<path class="st10" d="M320.9,35.5c-0.5,0.5-1.1,0.8-2,0.8c-0.8,0-1.5-0.3-2-0.8c-0.7-0.7-0.8-1.7-0.8-2.7s0.1-2,0.8-2.7
		c0.5-0.5,1.1-0.8,2-0.8c0.8,0,1.5,0.3,2,0.8c0.7,0.7,0.8,1.7,0.8,2.7S321.6,34.8,320.9,35.5z M320.2,30.6c-0.3-0.3-0.8-0.5-1.3-0.5
		s-0.9,0.2-1.2,0.5c-0.5,0.5-0.6,1.4-0.6,2.1s0.1,1.6,0.6,2.1c0.3,0.3,0.8,0.5,1.2,0.5s0.9-0.2,1.3-0.5c0.5-0.5,0.5-1.4,0.5-2.1
		S320.7,31.1,320.2,30.6z"/>
	<path class="st10" d="M332.8,36.2V32c0-1.2-0.7-1.8-1.7-1.8c-1,0-1.7,0.6-1.7,1.7v4.4h-1V32c0-1.2-0.7-1.8-1.7-1.8
		c-1,0-1.7,0.6-1.7,1.8v4.2h-1v-6.9h1v0.8c0.5-0.6,1.2-0.8,1.9-0.8c1,0,1.7,0.4,2.1,1.1c0.5-0.8,1.3-1.1,2.3-1.1
		c0.7,0,1.4,0.2,1.8,0.6c0.5,0.5,0.7,1.1,0.7,1.9v4.4H332.8z"/>
	<path class="st10" d="M345.7,36.2l-0.8-2.3h-4.4l-0.8,2.3h-1.1l3.7-10h0.9l3.7,10H345.7z M342.8,27.8l-1.9,5.3h3.7L342.8,27.8z"/>
	<path class="st10" d="M352.7,36.2V32c0-1.2-0.7-1.8-1.7-1.8s-1.7,0.6-1.7,1.8v4.2h-1v-6.9h1v0.8c0.5-0.6,1.2-0.8,1.9-0.8
		c0.7,0,1.3,0.2,1.8,0.6c0.5,0.5,0.7,1.1,0.7,1.9v4.4H352.7z"/>
	<path class="st10" d="M360.3,36.2v-0.8c-0.6,0.7-1.2,0.9-2,0.9c-0.7,0-1.3-0.2-1.7-0.6c-0.7-0.7-0.8-1.8-0.8-2.9s0.1-2.2,0.8-2.9
		c0.4-0.4,1-0.6,1.7-0.6c0.8,0,1.4,0.2,1.9,0.9v-3.9h1v10H360.3z M358.5,30.1c-1.5,0-1.7,1.3-1.7,2.6s0.2,2.6,1.7,2.6
		c1.5,0,1.7-1.3,1.7-2.6S360,30.1,358.5,30.1z"/>
	<path class="st10" d="M364.4,33c0,1.5,0.7,2.4,2,2.4c0.8,0,1.3-0.2,1.8-0.8l0.7,0.6c-0.7,0.7-1.3,1.1-2.5,1.1c-1.8,0-3-1.1-3-3.5
		c0-2.2,1.1-3.5,2.8-3.5c1.8,0,2.8,1.3,2.8,3.3V33H364.4z M367.8,31.1c-0.3-0.6-0.9-1-1.6-1s-1.3,0.4-1.6,1
		c-0.2,0.4-0.2,0.6-0.2,1.1h3.6C368,31.7,368,31.5,367.8,31.1z"/>
	<path class="st10" d="M375,30.6c-0.4-0.4-0.7-0.5-1.2-0.5c-1,0-1.7,0.8-1.7,1.8v4.2h-1v-6.9h1v0.8c0.4-0.6,1.1-0.9,1.9-0.9
		c0.7,0,1.2,0.2,1.7,0.6L375,30.6z"/>
	<path class="st10" d="M379.1,36.3c-1.2,0-2.1-0.3-2.8-1l0.7-0.7c0.5,0.6,1.3,0.8,2.1,0.8c1.1,0,1.8-0.4,1.8-1.2
		c0-0.6-0.4-0.9-1.1-1l-1.1-0.1c-1.3-0.1-2.1-0.7-2.1-1.8c0-1.3,1.1-2,2.5-2c1,0,1.9,0.2,2.5,0.7l-0.7,0.7c-0.5-0.4-1.1-0.5-1.8-0.5
		c-1,0-1.5,0.4-1.5,1.1c0,0.6,0.3,0.9,1.2,1l1.1,0.1c1.2,0.1,2,0.6,2,1.9C381.9,35.5,380.8,36.3,379.1,36.3z"/>
	<path class="st10" d="M388.3,35.5c-0.5,0.5-1.1,0.8-2,0.8c-0.8,0-1.5-0.3-2-0.8c-0.7-0.7-0.8-1.7-0.8-2.7s0.1-2,0.8-2.7
		c0.5-0.5,1.1-0.8,2-0.8c0.8,0,1.5,0.3,2,0.8c0.7,0.7,0.8,1.7,0.8,2.7S389,34.8,388.3,35.5z M387.6,30.6c-0.3-0.3-0.8-0.5-1.3-0.5
		s-0.9,0.2-1.2,0.5c-0.5,0.5-0.6,1.4-0.6,2.1s0.1,1.6,0.6,2.1c0.3,0.3,0.8,0.5,1.2,0.5s0.9-0.2,1.3-0.5c0.5-0.5,0.5-1.4,0.5-2.1
		S388.1,31.1,387.6,30.6z"/>
	<path class="st10" d="M395.7,36.2V32c0-1.2-0.7-1.8-1.7-1.8s-1.7,0.6-1.7,1.8v4.2h-1v-6.9h1v0.8c0.5-0.6,1.2-0.8,1.9-0.8
		c0.7,0,1.3,0.2,1.8,0.6c0.5,0.5,0.7,1.1,0.7,1.9v4.4H395.7z"/>
	<path class="st10" d="M316,56.3c-0.6,0.6-1.5,0.9-2.5,0.9h-3.4v-10h3.4c1,0,1.9,0.3,2.5,0.9c1,1,1,2.6,1,4S317.1,55.3,316,56.3z
		 M315.3,48.9c-0.5-0.5-1.2-0.7-2-0.7h-2.2v8.1h2.2c0.8,0,1.4-0.2,2-0.7c0.7-0.7,0.7-2.2,0.7-3.4S316,49.6,315.3,48.9z"/>
	<path class="st10" d="M325.2,56.3c-0.7,0.7-1.6,1-2.6,1c-1,0-1.9-0.4-2.5-1c-0.9-0.9-0.9-1.9-0.9-4s0-3.1,0.9-4
		c0.7-0.7,1.6-1,2.5-1c1,0,1.9,0.4,2.6,1c0.9,0.9,0.9,1.9,0.9,4S326.1,55.3,325.2,56.3z M324.3,48.8c-0.4-0.4-1.1-0.7-1.7-0.7
		c-0.7,0-1.3,0.3-1.7,0.7c-0.6,0.6-0.7,1.3-0.7,3.4c0,2.1,0.1,2.8,0.7,3.4c0.4,0.4,1.1,0.7,1.7,0.7c0.7,0,1.3-0.3,1.7-0.7
		c0.6-0.6,0.7-1.3,0.7-3.4C325,50.1,325,49.5,324.3,48.8z"/>
	<path class="st10" d="M332.5,57.2h-3.9v-10h3.8c1.7,0,2.9,1,2.9,2.7c0,1.1-0.6,1.9-1.5,2.2c1,0.4,1.6,1.2,1.6,2.4
		C335.4,56.3,334.2,57.2,332.5,57.2z M332.3,48.2h-2.6v3.5h2.6c1.1,0,2-0.5,2-1.7C334.2,48.7,333.4,48.2,332.3,48.2z M332.4,52.6
		h-2.7v3.7h2.7c1.2,0,2-0.7,2-1.8S333.6,52.6,332.4,52.6z"/>
	<path class="st10" d="M343.6,57.2v-8.9l-1.9,1.6v-1.1l1.9-1.6h1v10H343.6z"/>
	<path class="st10" d="M353.1,52.3l-2.5,4.9h-1.1l2.2-4.5c-0.3,0.1-0.7,0.2-1.1,0.2c-1.6,0-2.6-1.2-2.6-2.8c0-1.7,1.1-3,2.8-3
		c1.7,0,2.8,1.1,2.8,2.9C353.7,50.7,353.5,51.4,353.1,52.3z M350.9,48.1c-1.1,0-1.8,0.8-1.8,2c0,1.1,0.6,2,1.8,2
		c1.1,0,1.8-0.8,1.8-2C352.7,48.9,352,48.1,350.9,48.1z"/>
	<path class="st10" d="M355.8,57.2v-1.3h1.3v1.3H355.8z"/>
	<path class="st10" d="M362,57.3c-1.6,0-2.7-1.1-2.7-2.7v-4.7c0-1.7,1.2-2.7,2.7-2.7s2.7,1.1,2.7,2.7v4.7
		C364.8,56.2,363.6,57.3,362,57.3z M363.8,50c0-1.1-0.6-1.9-1.7-1.9c-1.1,0-1.7,0.8-1.7,1.9v4.5c0,1.1,0.6,1.9,1.7,1.9
		c1.1,0,1.7-0.8,1.7-1.9V50z"/>
	<path class="st10" d="M369.2,57.3c-1.6,0-2.8-0.8-2.9-2.6h1c0.1,1.2,1,1.7,1.9,1.7c1.1,0,1.9-0.7,1.9-1.9c0-1.2-0.6-1.9-2-1.9H369
		v-0.9h0.2c1.2,0,1.8-0.7,1.8-1.8c0-1.2-0.8-1.8-1.7-1.8c-1.1,0-1.7,0.6-1.8,1.7h-1c0.1-1.6,1.3-2.6,2.8-2.6c1.6,0,2.7,1.1,2.7,2.7
		c0,1.1-0.4,1.8-1.3,2.2c1,0.4,1.5,1.2,1.5,2.4C372.1,56.3,370.8,57.3,369.2,57.3z"/>
	<path class="st10" d="M374.2,57.2v-1.3h1.3v1.3H374.2z"/>
	<path class="st10" d="M382.5,56.6c-0.5,0.5-1.1,0.7-2,0.7c-0.9,0-1.6-0.3-2-0.7c-0.4-0.4-0.6-1-0.7-1.7h1c0.1,1,0.6,1.6,1.7,1.6
		c0.5,0,0.9-0.2,1.2-0.5c0.5-0.5,0.5-1.3,0.5-2c0-1.2-0.2-2.4-1.7-2.4c-0.9,0-1.5,0.4-1.7,1H378v-5.2h5v0.9h-4.1v3.2
		c0.4-0.4,1-0.7,1.8-0.7c0.7,0,1.3,0.2,1.7,0.6c0.7,0.7,0.8,1.7,0.8,2.7C383.3,54.9,383.2,55.9,382.5,56.6z"/>
	<path class="st10" d="M389.6,55.6v1.6h-1v-1.6h-4v-0.9l3.6-7.5h1.1l-3.6,7.5h2.9v-2.8h1v2.8h1.2v0.9H389.6z"/>
	<path class="st10" d="M316,77.3c-0.6,0.6-1.5,0.9-2.5,0.9h-3.4v-10h3.4c1,0,1.9,0.3,2.5,0.9c1,1,1,2.6,1,4S317.1,76.3,316,77.3z
		 M315.3,69.9c-0.5-0.5-1.2-0.7-2-0.7h-2.2v8.1h2.2c0.8,0,1.4-0.2,2-0.7c0.7-0.7,0.7-2.2,0.7-3.4S316,70.6,315.3,69.9z"/>
	<path class="st10" d="M319.3,69.4v-1.1h1.1v1.1H319.3z M319.3,78.2v-6.9h1v6.9H319.3z"/>
	<path class="st10" d="M326.8,78.2v-0.7c-0.6,0.6-1.1,0.7-2,0.7c-1,0-1.5-0.2-1.9-0.6c-0.3-0.3-0.5-0.9-0.5-1.4c0-1.2,0.8-2,2.4-2
		h2.1v-0.7c0-1-0.5-1.5-1.8-1.5c-0.9,0-1.3,0.2-1.7,0.8l-0.7-0.6c0.6-0.8,1.3-1,2.4-1c1.8,0,2.8,0.8,2.8,2.3v4.7H326.8z M326.8,75
		h-1.9c-1,0-1.5,0.4-1.5,1.2s0.5,1.2,1.6,1.2c0.6,0,1.1,0,1.5-0.5c0.2-0.2,0.4-0.6,0.4-1.2V75z"/>
	<path class="st10" d="M334.9,77.7c-0.4,0.4-1,0.6-1.7,0.6c-0.8,0-1.4-0.2-1.9-0.9v0.8h-1v-10h1v3.9c0.6-0.7,1.2-0.9,1.9-0.9
		c0.7,0,1.3,0.2,1.7,0.6c0.7,0.7,0.8,1.8,0.8,2.9S335.6,77,334.9,77.7z M333,72.1c-1.5,0-1.7,1.3-1.7,2.6s0.2,2.6,1.7,2.6
		s1.7-1.3,1.7-2.6S334.5,72.1,333,72.1z"/>
	<path class="st10" d="M338.5,75c0,1.5,0.7,2.4,2,2.4c0.8,0,1.3-0.2,1.8-0.8l0.7,0.6c-0.7,0.7-1.3,1.1-2.5,1.1c-1.8,0-3-1.1-3-3.5
		c0-2.2,1.1-3.5,2.8-3.5c1.8,0,2.8,1.3,2.8,3.3V75H338.5z M341.9,73.1c-0.3-0.6-0.9-1-1.6-1s-1.3,0.4-1.6,1
		c-0.2,0.4-0.2,0.6-0.2,1.1h3.6C342.1,73.7,342.1,73.5,341.9,73.1z"/>
	<path class="st10" d="M347.2,78.2c-1.2,0-1.8-0.8-1.8-1.8v-4.2h-0.9v-0.8h0.9v-2.2h1v2.2h1.5v0.8h-1.5v4.2c0,0.6,0.3,1,0.9,1h0.5
		v0.9H347.2z"/>
	<path class="st10" d="M350.4,75c0,1.5,0.7,2.4,2,2.4c0.8,0,1.3-0.2,1.8-0.8l0.7,0.6c-0.7,0.7-1.3,1.1-2.5,1.1c-1.8,0-3-1.1-3-3.5
		c0-2.2,1.1-3.5,2.8-3.5c1.8,0,2.8,1.3,2.8,3.3V75H350.4z M353.9,73.1c-0.3-0.6-0.9-1-1.6-1s-1.3,0.4-1.6,1
		c-0.2,0.4-0.2,0.6-0.2,1.1h3.6C354.1,73.7,354,73.5,353.9,73.1z"/>
	<path class="st10" d="M359.4,78.3c-1.2,0-2.1-0.3-2.8-1l0.7-0.7c0.5,0.6,1.3,0.8,2.1,0.8c1.1,0,1.8-0.4,1.8-1.2
		c0-0.6-0.4-0.9-1.1-1l-1.1-0.1c-1.3-0.1-2.1-0.7-2.1-1.8c0-1.3,1.1-2,2.5-2c1,0,1.9,0.2,2.5,0.7l-0.7,0.7c-0.5-0.4-1.1-0.5-1.8-0.5
		c-1,0-1.5,0.4-1.5,1.1c0,0.6,0.3,0.9,1.2,1l1.1,0.1c1.2,0.1,2,0.6,2,1.9C362.2,77.5,361.1,78.3,359.4,78.3z"/>
	<path class="st10" d="M370.8,69.2v9h-1.1v-9h-2.9v-1h6.8v1H370.8z"/>
	<path class="st10" d="M376.3,79.9c-0.1,0.4-0.3,0.6-0.5,0.8c-0.4,0.4-0.9,0.5-1.3,0.5H374v-0.9h0.3c0.7,0,0.9-0.2,1.1-0.9l0.5-1.3
		l-2.5-6.8h1.1l1.9,5.5l1.9-5.5h1.1L376.3,79.9z"/>
	<path class="st10" d="M385.5,77.7c-0.4,0.4-1,0.6-1.7,0.6c-0.8,0-1.4-0.2-1.9-0.9v3.9h-1v-10h1v0.8c0.6-0.7,1.2-0.9,1.9-0.9
		c0.7,0,1.3,0.2,1.7,0.6c0.7,0.7,0.8,1.8,0.8,2.9S386.2,77,385.5,77.7z M383.6,72.1c-1.5,0-1.7,1.3-1.7,2.6s0.2,2.6,1.7,2.6
		s1.7-1.3,1.7-2.6S385.1,72.1,383.6,72.1z"/>
	<path class="st10" d="M389.1,75c0,1.5,0.7,2.4,2,2.4c0.8,0,1.3-0.2,1.8-0.8l0.7,0.6c-0.7,0.7-1.3,1.1-2.5,1.1c-1.8,0-3-1.1-3-3.5
		c0-2.2,1.1-3.5,2.8-3.5c1.8,0,2.8,1.3,2.8,3.3V75H389.1z M392.5,73.1c-0.3-0.6-0.9-1-1.6-1s-1.3,0.4-1.6,1
		c-0.2,0.4-0.2,0.6-0.2,1.1h3.6C392.7,73.7,392.7,73.5,392.5,73.1z"/>
	<path class="st10" d="M399.1,78.2v-0.9l3.9-5c0.4-0.5,0.6-0.9,0.6-1.5c0-1.1-0.6-1.8-1.7-1.8c-0.9,0-1.7,0.5-1.7,1.8h-1
		c0-1.6,1.1-2.7,2.7-2.7c1.6,0,2.7,1.1,2.7,2.7c0,0.8-0.3,1.3-0.8,2l-3.5,4.5h4.3v0.9H399.1z"/>
	<path class="st10" d="M315.9,99.2v-4.6h-4.7v4.6h-1.1v-10h1.1v4.5h4.7v-4.5h1.1v10H315.9z"/>
	<path class="st10" d="M324.1,98.5c-0.5,0.5-1.1,0.8-2,0.8s-1.5-0.3-2-0.8c-0.7-0.7-0.8-1.7-0.8-2.7s0.1-2,0.8-2.7
		c0.5-0.5,1.1-0.8,2-0.8s1.5,0.3,2,0.8c0.7,0.7,0.8,1.7,0.8,2.7S324.8,97.8,324.1,98.5z M323.4,93.6c-0.3-0.3-0.8-0.5-1.3-0.5
		s-0.9,0.2-1.2,0.5c-0.5,0.5-0.6,1.4-0.6,2.1s0.1,1.6,0.6,2.1c0.3,0.3,0.8,0.5,1.2,0.5s0.9-0.2,1.3-0.5c0.5-0.5,0.5-1.4,0.5-2.1
		S323.9,94.1,323.4,93.6z"/>
	<path class="st10" d="M329.2,99.3c-1.2,0-2.1-0.3-2.8-1l0.7-0.7c0.5,0.6,1.3,0.8,2.1,0.8c1.1,0,1.8-0.4,1.8-1.2
		c0-0.6-0.3-0.9-1.1-1l-1.1-0.1c-1.3-0.1-2.1-0.7-2.1-1.8c0-1.3,1.1-2,2.5-2c1,0,1.9,0.2,2.5,0.7l-0.7,0.7c-0.5-0.4-1.1-0.5-1.8-0.5
		c-1,0-1.5,0.4-1.5,1.1c0,0.6,0.3,0.9,1.2,1l1.1,0.1c1.2,0.1,2,0.6,2,1.9C332,98.5,330.9,99.3,329.2,99.3z"/>
	<path class="st10" d="M338.6,98.7c-0.4,0.4-1,0.6-1.7,0.6c-0.8,0-1.4-0.2-1.9-0.9v3.9h-1v-10h1v0.8c0.6-0.7,1.2-0.9,1.9-0.9
		c0.7,0,1.3,0.2,1.7,0.6c0.7,0.7,0.8,1.8,0.8,2.9S339.3,98,338.6,98.7z M336.7,93.1c-1.5,0-1.7,1.3-1.7,2.6s0.2,2.6,1.7,2.6
		c1.5,0,1.7-1.3,1.7-2.6S338.2,93.1,336.7,93.1z"/>
	<path class="st10" d="M341.6,90.4v-1.1h1.1v1.1H341.6z M341.6,99.2v-6.9h1v6.9H341.6z"/>
	<path class="st10" d="M347.1,99.2c-1.2,0-1.8-0.8-1.8-1.8v-4.2h-0.9v-0.8h0.9v-2.2h1v2.2h1.5v0.8h-1.5v4.2c0,0.6,0.3,1,0.9,1h0.5
		v0.9H347.1z"/>
	<path class="st10" d="M353.6,99.2v-0.7c-0.6,0.6-1.1,0.7-2,0.7c-1,0-1.5-0.2-1.9-0.6c-0.3-0.3-0.5-0.9-0.5-1.4c0-1.2,0.8-2,2.4-2
		h2.1v-0.7c0-1-0.5-1.5-1.8-1.5c-0.9,0-1.3,0.2-1.7,0.8l-0.7-0.6c0.6-0.8,1.3-1,2.4-1c1.8,0,2.8,0.8,2.8,2.3v4.7H353.6z M353.6,96
		h-1.9c-1,0-1.5,0.4-1.5,1.2s0.5,1.2,1.6,1.2c0.6,0,1.1,0,1.5-0.5c0.2-0.2,0.4-0.6,0.4-1.2V96z"/>
	<path class="st10" d="M358.8,99.2c-1.2,0-1.8-0.8-1.8-1.8v-8.1h1v8.1c0,0.7,0.2,1,0.9,1h0.5v0.9H358.8z"/>
	<path class="st10" d="M367.4,99.3c-1.7,0-3.1-1.2-3.1-3.5c0-2.4,1.3-3.5,3.1-3.5c1,0,1.6,0.3,2.3,1l-0.7,0.6
		c-0.5-0.6-0.9-0.8-1.6-0.8c-0.7,0-1.2,0.3-1.6,0.8c-0.3,0.4-0.4,1-0.4,1.8c0,0.9,0.1,1.4,0.4,1.8c0.4,0.5,0.9,0.8,1.6,0.8
		c0.7,0,1.1-0.2,1.6-0.8l0.7,0.7C368.9,99,368.3,99.3,367.4,99.3z"/>
	<path class="st10" d="M376,99.2V95c0-1.2-0.6-1.8-1.7-1.8c-1,0-1.7,0.6-1.7,1.8v4.3h-1v-10h1v3.8c0.5-0.6,1.2-0.8,1.9-0.8
		c1.6,0,2.5,1,2.5,2.5v4.4H376z"/>
	<path class="st10" d="M383.9,98.5c-0.5,0.5-1.1,0.8-2,0.8c-0.8,0-1.5-0.3-2-0.8c-0.7-0.7-0.8-1.7-0.8-2.7s0.1-2,0.8-2.7
		c0.5-0.5,1.1-0.8,2-0.8c0.8,0,1.5,0.3,2,0.8c0.7,0.7,0.8,1.7,0.8,2.7S384.6,97.8,383.9,98.5z M383.2,93.6c-0.3-0.3-0.8-0.5-1.3-0.5
		s-0.9,0.2-1.2,0.5c-0.5,0.5-0.6,1.4-0.6,2.1s0.1,1.6,0.6,2.1c0.3,0.3,0.8,0.5,1.2,0.5s0.9-0.2,1.3-0.5c0.5-0.5,0.5-1.4,0.5-2.1
		S383.7,94.1,383.2,93.6z"/>
	<path class="st10" d="M386.8,90.4v-1.1h1.1v1.1H386.8z M386.9,99.2v-6.9h1v6.9H386.9z"/>
	<path class="st10" d="M393.1,99.3c-1.7,0-3.1-1.2-3.1-3.5c0-2.4,1.3-3.5,3.1-3.5c1,0,1.6,0.3,2.3,1l-0.7,0.6
		c-0.5-0.6-0.9-0.8-1.6-0.8c-0.7,0-1.2,0.3-1.6,0.8c-0.3,0.4-0.4,1-0.4,1.8c0,0.9,0.1,1.4,0.4,1.8c0.4,0.5,0.9,0.8,1.6,0.8
		c0.7,0,1.1-0.2,1.6-0.8l0.7,0.7C394.6,99,394,99.3,393.1,99.3z"/>
	<path class="st10" d="M397.7,96c0,1.5,0.7,2.4,2,2.4c0.8,0,1.3-0.2,1.8-0.8l0.7,0.6c-0.7,0.7-1.3,1.1-2.5,1.1c-1.8,0-3-1.1-3-3.5
		c0-2.2,1.1-3.5,2.8-3.5c1.8,0,2.8,1.3,2.8,3.3V96H397.7z M401.1,94.1c-0.3-0.6-0.9-1-1.6-1s-1.3,0.4-1.6,1
		c-0.2,0.4-0.2,0.6-0.2,1.1h3.6C401.3,94.7,401.3,94.5,401.1,94.1z"/>
	<path class="st10" d="M407.8,95.9V95h3.8v0.9H407.8z"/>
	<path class="st10" d="M420.2,99.3c-1.5,0-2.5-0.4-3.4-1.3l0.7-0.7c0.8,0.8,1.6,1.1,2.7,1.1c1.5,0,2.4-0.7,2.4-1.8
		c0-0.5-0.2-1-0.5-1.2c-0.3-0.3-0.6-0.4-1.3-0.5l-1.2-0.2c-0.8-0.1-1.4-0.4-1.8-0.8c-0.5-0.4-0.8-1.1-0.8-1.9c0-1.7,1.2-2.8,3.2-2.8
		c1.3,0,2.1,0.3,3,1.1l-0.7,0.7c-0.6-0.6-1.3-0.9-2.3-0.9c-1.3,0-2.1,0.7-2.1,1.8c0,0.5,0.1,0.9,0.4,1.1s0.8,0.5,1.3,0.5l1.1,0.2
		c0.9,0.1,1.4,0.3,1.8,0.7c0.5,0.5,0.8,1.1,0.8,2C423.6,98.2,422.2,99.3,420.2,99.3z"/>
	<path class="st10" d="M427.6,99.2c-1.2,0-1.8-0.8-1.8-1.8v-4.2h-0.9v-0.8h0.9v-2.2h1v2.2h1.5v0.8h-1.5v4.2c0,0.6,0.3,1,0.9,1h0.5
		v0.9H427.6z"/>
	<path class="st10" d="M436.9,90.2v9h-1.1v-9h-2.9v-1h6.8v1H436.9z"/>
	<path class="st10" d="M445.9,99.2V95c0-1.2-0.6-1.8-1.7-1.8c-1,0-1.7,0.6-1.7,1.8v4.3h-1v-10h1v3.8c0.5-0.6,1.2-0.8,1.9-0.8
		c1.6,0,2.5,1,2.5,2.5v4.4H445.9z"/>
	<path class="st10" d="M453.7,98.5c-0.5,0.5-1.1,0.8-2,0.8c-0.8,0-1.5-0.3-2-0.8c-0.7-0.7-0.8-1.7-0.8-2.7s0.1-2,0.8-2.7
		c0.5-0.5,1.1-0.8,2-0.8c0.8,0,1.5,0.3,2,0.8c0.7,0.7,0.8,1.7,0.8,2.7S454.4,97.8,453.7,98.5z M453,93.6c-0.3-0.3-0.8-0.5-1.3-0.5
		s-0.9,0.2-1.2,0.5c-0.5,0.5-0.6,1.4-0.6,2.1s0.1,1.6,0.6,2.1c0.3,0.3,0.8,0.5,1.2,0.5s0.9-0.2,1.3-0.5c0.5-0.5,0.5-1.4,0.5-2.1
		S453.5,94.1,453,93.6z"/>
	<path class="st10" d="M465.6,99.2V95c0-1.2-0.7-1.8-1.7-1.8c-1,0-1.7,0.6-1.7,1.7v4.4h-1V95c0-1.2-0.7-1.8-1.7-1.8
		c-1,0-1.7,0.6-1.7,1.8v4.2h-1v-6.9h1v0.8c0.5-0.6,1.2-0.8,1.9-0.8c1,0,1.7,0.4,2.1,1.1c0.5-0.8,1.3-1.1,2.3-1.1
		c0.7,0,1.4,0.2,1.8,0.6c0.5,0.5,0.7,1.1,0.7,1.9v4.4H465.6z"/>
	<path class="st10" d="M473,99.2v-0.7c-0.6,0.6-1.1,0.7-2,0.7c-1,0-1.5-0.2-1.9-0.6c-0.3-0.3-0.5-0.9-0.5-1.4c0-1.2,0.8-2,2.4-2h2.1
		v-0.7c0-1-0.5-1.5-1.8-1.5c-0.9,0-1.3,0.2-1.7,0.8l-0.7-0.6c0.6-0.8,1.3-1,2.4-1c1.8,0,2.8,0.8,2.8,2.3v4.7H473z M473,96H471
		c-1,0-1.5,0.4-1.5,1.2s0.5,1.2,1.6,1.2c0.6,0,1.1,0,1.5-0.5c0.2-0.2,0.4-0.6,0.4-1.2V96z"/>
	<path class="st10" d="M478.6,99.3c-1.2,0-2.1-0.3-2.8-1l0.7-0.7c0.5,0.6,1.3,0.8,2.1,0.8c1.1,0,1.8-0.4,1.8-1.2
		c0-0.6-0.3-0.9-1.1-1l-1.1-0.1c-1.3-0.1-2.1-0.7-2.1-1.8c0-1.3,1.1-2,2.5-2c1,0,1.9,0.2,2.5,0.7l-0.7,0.7c-0.5-0.4-1.1-0.5-1.8-0.5
		c-1,0-1.5,0.4-1.5,1.1c0,0.6,0.3,0.9,1.2,1l1.1,0.1c1.2,0.1,2,0.6,2,1.9C481.4,98.5,480.2,99.3,478.6,99.3z"/>
	<path class="st10" d="M482.7,91.5v-2.3h1.2v1.2L482.7,91.5z"/>
	<path class="st10" d="M317.6,120.2v-7.6l-2.7,6h-0.9l-2.8-6v7.6h-1.1v-10h1.1l3.2,7.1l3.2-7.1h1.1v10H317.6z"/>
	<path class="st10" d="M321.3,111.4v-1.1h1.1v1.1H321.3z M321.3,120.2v-6.9h1v6.9H321.3z"/>
	<path class="st10" d="M327.5,120.3c-1.7,0-3.1-1.2-3.1-3.5c0-2.4,1.3-3.5,3.1-3.5c1,0,1.6,0.3,2.3,1l-0.7,0.6
		c-0.5-0.6-0.9-0.8-1.6-0.8c-0.7,0-1.2,0.3-1.6,0.8c-0.3,0.4-0.4,1-0.4,1.8c0,0.9,0.1,1.4,0.4,1.8c0.4,0.5,0.9,0.8,1.6,0.8
		c0.7,0,1.1-0.2,1.6-0.8l0.7,0.7C329.1,120,328.5,120.3,327.5,120.3z"/>
	<path class="st10" d="M336.1,120.2V116c0-1.2-0.6-1.8-1.7-1.8c-1,0-1.7,0.6-1.7,1.8v4.3h-1v-10h1v3.8c0.5-0.6,1.2-0.8,1.9-0.8
		c1.6,0,2.5,1,2.5,2.5v4.4H336.1z"/>
	<path class="st10" d="M340.2,117c0,1.5,0.7,2.4,2,2.4c0.8,0,1.3-0.2,1.8-0.8l0.7,0.6c-0.7,0.7-1.3,1.1-2.5,1.1c-1.8,0-3-1.1-3-3.5
		c0-2.2,1.1-3.5,2.8-3.5c1.8,0,2.8,1.3,2.8,3.3v0.5H340.2z M343.7,115.1c-0.3-0.6-0.9-1-1.6-1s-1.3,0.4-1.6,1
		c-0.2,0.4-0.2,0.6-0.2,1.1h3.6C343.8,115.7,343.8,115.5,343.7,115.1z"/>
	<path class="st10" d="M348.7,120.2c-1.2,0-1.8-0.8-1.8-1.8v-8.1h1v8.1c0,0.7,0.2,1,0.9,1h0.5v0.9H348.7z"/>
	<path class="st10" d="M352.9,120.2c-1.2,0-1.8-0.8-1.8-1.8v-8.1h1v8.1c0,0.7,0.2,1,0.9,1h0.5v0.9H352.9z"/>
	<path class="st10" d="M355.6,117c0,1.5,0.7,2.4,2,2.4c0.8,0,1.3-0.2,1.8-0.8l0.7,0.6c-0.7,0.7-1.3,1.1-2.5,1.1c-1.8,0-3-1.1-3-3.5
		c0-2.2,1.1-3.5,2.8-3.5c1.8,0,2.8,1.3,2.8,3.3v0.5H355.6z M359,115.1c-0.3-0.6-0.9-1-1.6-1s-1.3,0.4-1.6,1
		c-0.2,0.4-0.2,0.6-0.2,1.1h3.6C359.2,115.7,359.2,115.5,359,115.1z"/>
	<path class="st10" d="M371.9,120.2l-0.8-2.3h-4.4l-0.8,2.3h-1.1l3.7-10h0.9l3.7,10H371.9z M368.9,111.8L367,117h3.7L368.9,111.8z"
		/>
	<path class="st10" d="M378.8,120.2V116c0-1.2-0.7-1.8-1.7-1.8c-1,0-1.7,0.6-1.7,1.8v4.2h-1v-6.9h1v0.8c0.5-0.6,1.2-0.8,1.9-0.8
		c0.7,0,1.3,0.2,1.8,0.6c0.5,0.5,0.7,1.1,0.7,1.9v4.4H378.8z"/>
	<path class="st10" d="M386.4,120.2v-0.8c-0.6,0.7-1.2,0.9-2,0.9c-0.7,0-1.3-0.2-1.7-0.6c-0.7-0.7-0.8-1.8-0.8-2.9s0.1-2.2,0.8-2.9
		c0.4-0.4,1-0.6,1.7-0.6c0.8,0,1.4,0.2,1.9,0.9v-3.9h1v10H386.4z M384.7,114.1c-1.5,0-1.7,1.3-1.7,2.6s0.2,2.6,1.7,2.6
		c1.5,0,1.7-1.3,1.7-2.6S386.2,114.1,384.7,114.1z"/>
	<path class="st10" d="M390.6,117c0,1.5,0.7,2.4,2,2.4c0.8,0,1.3-0.2,1.8-0.8l0.7,0.6c-0.7,0.7-1.3,1.1-2.5,1.1c-1.8,0-3-1.1-3-3.5
		c0-2.2,1.1-3.5,2.8-3.5c1.8,0,2.8,1.3,2.8,3.3v0.5H390.6z M394,115.1c-0.3-0.6-0.9-1-1.6-1s-1.3,0.4-1.6,1
		c-0.2,0.4-0.2,0.6-0.2,1.1h3.6C394.2,115.7,394.1,115.5,394,115.1z"/>
	<path class="st10" d="M401.2,114.6c-0.4-0.4-0.7-0.5-1.2-0.5c-1,0-1.7,0.8-1.7,1.8v4.2h-1v-6.9h1v0.8c0.4-0.6,1.1-0.9,1.9-0.9
		c0.7,0,1.2,0.2,1.7,0.6L401.2,114.6z"/>
	<path class="st10" d="M405.3,120.3c-1.2,0-2.1-0.3-2.8-1l0.7-0.7c0.5,0.6,1.3,0.8,2.1,0.8c1.1,0,1.8-0.4,1.8-1.2
		c0-0.6-0.3-0.9-1.1-1l-1.1-0.1c-1.3-0.1-2.1-0.7-2.1-1.8c0-1.3,1.1-2,2.5-2c1,0,1.9,0.2,2.5,0.7l-0.7,0.7c-0.5-0.4-1.1-0.5-1.8-0.5
		c-1,0-1.5,0.4-1.5,1.1c0,0.6,0.3,0.9,1.2,1l1.1,0.1c1.2,0.1,2,0.6,2,1.9C408.1,119.5,406.9,120.3,405.3,120.3z"/>
	<path class="st10" d="M414.5,119.5c-0.5,0.5-1.1,0.8-2,0.8s-1.5-0.3-2-0.8c-0.7-0.7-0.8-1.7-0.8-2.7s0.1-2,0.8-2.7
		c0.5-0.5,1.1-0.8,2-0.8s1.5,0.3,2,0.8c0.7,0.7,0.8,1.7,0.8,2.7S415.2,118.8,414.5,119.5z M413.8,114.6c-0.3-0.3-0.8-0.5-1.3-0.5
		s-0.9,0.2-1.2,0.5c-0.5,0.5-0.6,1.4-0.6,2.1s0.1,1.6,0.6,2.1c0.3,0.3,0.8,0.5,1.2,0.5s0.9-0.2,1.3-0.5c0.5-0.5,0.5-1.4,0.5-2.1
		S414.3,115.1,413.8,114.6z"/>
	<path class="st10" d="M421.9,120.2V116c0-1.2-0.7-1.8-1.7-1.8c-1,0-1.7,0.6-1.7,1.8v4.2h-1v-6.9h1v0.8c0.5-0.6,1.2-0.8,1.9-0.8
		c0.7,0,1.3,0.2,1.8,0.6c0.5,0.5,0.7,1.1,0.7,1.9v4.4H421.9z"/>
	<path class="st10" d="M312.3,141.3c-1.6,0-2.7-1.1-2.7-2.7v-4.7c0-1.7,1.2-2.7,2.7-2.7c1.6,0,2.7,1.1,2.7,2.7v4.7
		C315,140.2,313.8,141.3,312.3,141.3z M314,134c0-1.1-0.6-1.9-1.7-1.9c-1.1,0-1.7,0.8-1.7,1.9v4.5c0,1.1,0.6,1.9,1.7,1.9
		c1.1,0,1.7-0.8,1.7-1.9V134z"/>
	<path class="st10" d="M319.1,141.2H318l3.5-9.1H318v1.6h-1v-2.5h5.5v0.9L319.1,141.2z"/>
	<path class="st10" d="M326.9,141.3c-1.7,0-2.9-1.1-2.9-2.8c0-1.2,0.7-1.9,1.5-2.4c-0.8-0.4-1.3-1.2-1.3-2.2c0-1.6,1.2-2.7,2.7-2.7
		c1.6,0,2.7,1.1,2.7,2.7c0,1-0.5,1.8-1.3,2.2c0.8,0.5,1.5,1.3,1.5,2.4C329.8,140.1,328.6,141.3,326.9,141.3z M326.9,136.5
		c-1.1,0-1.9,0.8-1.9,1.9c0,1.1,0.8,1.9,1.9,1.9c1.1,0,1.9-0.8,1.9-1.9C328.8,137.3,328,136.5,326.9,136.5z M326.9,132.1
		c-1,0-1.7,0.8-1.7,1.8c0,1.1,0.7,1.8,1.7,1.8c1,0,1.7-0.7,1.7-1.8C328.6,132.8,327.9,132.1,326.9,132.1z"/>
	<path class="st10" d="M334.2,141.3c-1.6,0-2.7-1.1-2.7-2.7v-4.7c0-1.7,1.2-2.7,2.7-2.7s2.7,1.1,2.7,2.7v4.7
		C336.9,140.2,335.8,141.3,334.2,141.3z M335.9,134c0-1.1-0.6-1.9-1.7-1.9c-1.1,0-1.7,0.8-1.7,1.9v4.5c0,1.1,0.6,1.9,1.7,1.9
		c1.1,0,1.7-0.8,1.7-1.9V134z"/>
	<path class="st10" d="M343.4,139.6v1.6h-1v-1.6h-4v-0.9l3.6-7.5h1.1l-3.6,7.5h2.9v-2.8h1v2.8h1.2v0.9H343.4z"/>
	<path class="st10" d="M351.8,141.2h-1.1l3.5-9.1h-3.5v1.6h-1v-2.5h5.5v0.9L351.8,141.2z"/>
	<path class="st10" d="M361.6,140.6c-0.5,0.5-1.1,0.7-2,0.7c-0.9,0-1.6-0.3-2-0.7c-0.4-0.4-0.6-1-0.7-1.7h1c0.1,1,0.6,1.6,1.7,1.6
		c0.5,0,0.9-0.2,1.2-0.5c0.5-0.5,0.5-1.3,0.5-2c0-1.2-0.2-2.4-1.7-2.4c-0.9,0-1.5,0.4-1.7,1h-0.9v-5.2h5v0.9h-4.1v3.2
		c0.4-0.4,1-0.7,1.8-0.7c0.7,0,1.3,0.2,1.7,0.6c0.7,0.7,0.8,1.7,0.8,2.7C362.4,138.9,362.4,139.9,361.6,140.6z"/>
	<path class="st10" d="M366.9,141.3c-1.7,0-2.9-1.1-2.9-2.8c0-1.2,0.7-1.9,1.5-2.4c-0.8-0.4-1.3-1.2-1.3-2.2c0-1.6,1.2-2.7,2.7-2.7
		s2.7,1.1,2.7,2.7c0,1-0.5,1.8-1.3,2.2c0.8,0.5,1.5,1.3,1.5,2.4C369.9,140.1,368.6,141.3,366.9,141.3z M366.9,136.5
		c-1.1,0-1.9,0.8-1.9,1.9c0,1.1,0.8,1.9,1.9,1.9s1.9-0.8,1.9-1.9C368.9,137.3,368,136.5,366.9,136.5z M366.9,132.1
		c-1,0-1.7,0.8-1.7,1.8c0,1.1,0.7,1.8,1.7,1.8s1.7-0.7,1.7-1.8C368.7,132.8,368,132.1,366.9,132.1z"/>
	<path class="st10" d="M376.1,139.6v1.6h-1v-1.6h-4v-0.9l3.6-7.5h1.1l-3.6,7.5h2.9v-2.8h1v2.8h1.2v0.9H376.1z"/>
	<path class="st10" d="M313.2,162.3c-1,0-1.9-0.4-2.5-1c-0.9-0.9-0.9-1.9-0.9-4s0-3.1,0.9-4c0.7-0.7,1.6-1,2.5-1
		c1.8,0,3.1,1.1,3.5,3h-1.1c-0.3-1.2-1.1-2-2.4-2c-0.7,0-1.3,0.3-1.7,0.7c-0.6,0.6-0.7,1.3-0.7,3.4c0,2.1,0.1,2.8,0.7,3.4
		c0.4,0.4,1.1,0.7,1.7,0.7c1.2,0,2.1-0.8,2.4-2h1.1C316.3,161.2,315,162.3,313.2,162.3z"/>
	<path class="st10" d="M322.7,162.2v-0.7c-0.6,0.6-1.1,0.7-2,0.7c-1,0-1.5-0.2-1.9-0.6c-0.3-0.3-0.5-0.9-0.5-1.4c0-1.2,0.8-2,2.4-2
		h2.1v-0.7c0-1-0.5-1.5-1.8-1.5c-0.9,0-1.3,0.2-1.7,0.8l-0.7-0.6c0.6-0.8,1.3-1,2.4-1c1.8,0,2.8,0.8,2.8,2.3v4.7H322.7z M322.7,159
		h-1.9c-1,0-1.5,0.4-1.5,1.2s0.5,1.2,1.6,1.2c0.6,0,1.1,0,1.5-0.5c0.2-0.2,0.4-0.6,0.4-1.2V159z"/>
	<path class="st10" d="M330,156.6c-0.4-0.4-0.7-0.5-1.2-0.5c-1,0-1.7,0.8-1.7,1.8v4.2h-1v-6.9h1v0.8c0.4-0.6,1.1-0.9,1.9-0.9
		c0.7,0,1.2,0.2,1.7,0.6L330,156.6z"/>
	<path class="st10" d="M332.2,159c0,1.5,0.7,2.4,2,2.4c0.8,0,1.3-0.2,1.8-0.8l0.7,0.6c-0.7,0.7-1.3,1.1-2.5,1.1c-1.8,0-3-1.1-3-3.5
		c0-2.2,1.1-3.5,2.8-3.5c1.8,0,2.8,1.3,2.8,3.3v0.5H332.2z M335.7,157.1c-0.3-0.6-0.9-1-1.6-1s-1.3,0.4-1.6,1
		c-0.2,0.4-0.2,0.6-0.2,1.1h3.6C335.8,157.7,335.8,157.5,335.7,157.1z"/>
	<path class="st10" d="M347.1,161.7c-0.4,0.4-1,0.6-1.7,0.6c-0.8,0-1.4-0.2-1.9-0.9v3.9h-1v-10h1v0.8c0.6-0.7,1.2-0.9,1.9-0.9
		c0.7,0,1.3,0.2,1.7,0.6c0.7,0.7,0.8,1.8,0.8,2.9C348,159.8,347.8,161,347.1,161.7z M345.2,156.1c-1.5,0-1.7,1.3-1.7,2.6
		c0,1.3,0.2,2.6,1.7,2.6c1.5,0,1.7-1.3,1.7-2.6C347,157.4,346.7,156.1,345.2,156.1z"/>
	<path class="st10" d="M351.9,162.2c-1.2,0-1.8-0.8-1.8-1.8v-8.1h1v8.1c0,0.7,0.2,1,0.9,1h0.5v0.9H351.9z"/>
	<path class="st10" d="M358.2,162.2v-0.7c-0.6,0.6-1.1,0.7-2,0.7c-1,0-1.5-0.2-1.9-0.6c-0.3-0.3-0.5-0.9-0.5-1.4c0-1.2,0.8-2,2.4-2
		h2.1v-0.7c0-1-0.5-1.5-1.8-1.5c-0.9,0-1.3,0.2-1.7,0.8l-0.7-0.6c0.6-0.8,1.3-1,2.4-1c1.8,0,2.8,0.8,2.8,2.3v4.7H358.2z M358.2,159
		h-1.9c-1,0-1.5,0.4-1.5,1.2s0.5,1.2,1.6,1.2c0.6,0,1.1,0,1.5-0.5c0.2-0.2,0.3-0.6,0.3-1.2V159z"/>
	<path class="st10" d="M366.1,162.2V158c0-1.2-0.7-1.8-1.7-1.8c-1,0-1.7,0.6-1.7,1.8v4.2h-1v-6.9h1v0.8c0.5-0.6,1.2-0.8,1.9-0.8
		c0.7,0,1.3,0.2,1.8,0.6c0.5,0.5,0.7,1.1,0.7,1.9v4.4H366.1z"/>
	<path class="st10" d="M378.8,156.2l-0.3,2h1.2v0.9h-1.4l-0.5,3.2h-1l0.5-3.2h-2.2l-0.5,3.2h-1l0.5-3.2h-1.2v-0.9h1.4l0.3-2h-1.3
		v-0.9h1.4l0.5-3h1.1l-0.5,3h2.2l0.5-3h1l-0.5,3h1.2v0.9H378.8z M375.6,156.2l-0.3,2h2.2l0.3-2H375.6z"/>
	<path class="st10" d="M384,162.2H383l3.5-9.1h-3.5v1.6h-1v-2.5h5.5v0.9L384,162.2z"/>
	<path class="st10" d="M393.9,161.6c-0.5,0.5-1.1,0.7-2,0.7c-0.9,0-1.6-0.3-2-0.7c-0.4-0.4-0.6-1-0.7-1.7h1c0.1,1,0.6,1.6,1.7,1.6
		c0.5,0,0.9-0.2,1.2-0.5c0.5-0.5,0.5-1.3,0.5-2c0-1.2-0.2-2.4-1.7-2.4c-0.9,0-1.5,0.4-1.7,1h-0.9v-5.2h5v0.9h-4.1v3.2
		c0.4-0.4,1-0.7,1.8-0.7c0.7,0,1.3,0.2,1.7,0.6c0.7,0.7,0.8,1.7,0.8,2.7C394.7,159.9,394.6,160.9,393.9,161.6z"/>
	<path class="st10" d="M399.2,162.3c-1.7,0-2.9-1.1-2.9-2.8c0-1.2,0.7-1.9,1.5-2.4c-0.8-0.4-1.3-1.2-1.3-2.2c0-1.6,1.2-2.7,2.7-2.7
		c1.6,0,2.7,1.1,2.7,2.7c0,1-0.5,1.8-1.3,2.2c0.8,0.5,1.5,1.3,1.5,2.4C402.1,161.1,400.8,162.3,399.2,162.3z M399.2,157.5
		c-1.1,0-1.9,0.8-1.9,1.9c0,1.1,0.8,1.9,1.9,1.9c1.1,0,1.9-0.8,1.9-1.9C401.1,158.3,400.3,157.5,399.2,157.5z M399.2,153.1
		c-1,0-1.7,0.8-1.7,1.8c0,1.1,0.7,1.8,1.7,1.8c1,0,1.7-0.7,1.7-1.8C400.9,153.8,400.2,153.1,399.2,153.1z"/>
	<path class="st10" d="M408.6,157.3l-2.5,4.9h-1.1l2.2-4.5c-0.3,0.1-0.7,0.2-1.1,0.2c-1.6,0-2.6-1.2-2.6-2.8c0-1.7,1.1-3,2.8-3
		s2.8,1.1,2.8,2.9C409.2,155.7,409,156.4,408.6,157.3z M406.4,153.1c-1.1,0-1.8,0.8-1.8,2c0,1.1,0.6,2,1.8,2c1.1,0,1.8-0.8,1.8-2
		C408.2,153.9,407.5,153.1,406.4,153.1z"/>
	<path class="st10" d="M417.4,162.2l-0.8-2.3h-4.4l-0.8,2.3h-1.1l3.7-10h0.9l3.7,10H417.4z M414.4,153.8l-1.9,5.3h3.7L414.4,153.8z"
		/>
	<path class="st10" d="M424.3,162.2V158c0-1.2-0.7-1.8-1.7-1.8c-1,0-1.7,0.6-1.7,1.8v4.2h-1v-6.9h1v0.8c0.5-0.6,1.2-0.8,1.9-0.8
		c0.7,0,1.3,0.2,1.8,0.6c0.5,0.5,0.7,1.1,0.7,1.9v4.4H424.3z"/>
	<path class="st10" d="M431.9,162.2v-0.8c-0.6,0.7-1.2,0.9-2,0.9c-0.7,0-1.3-0.2-1.7-0.6c-0.7-0.7-0.8-1.8-0.8-2.9
		c0-1.1,0.1-2.2,0.8-2.9c0.4-0.4,1-0.6,1.7-0.6c0.8,0,1.4,0.2,1.9,0.9v-3.9h1v10H431.9z M430.2,156.1c-1.5,0-1.7,1.3-1.7,2.6
		c0,1.3,0.2,2.6,1.7,2.6c1.5,0,1.7-1.3,1.7-2.6C431.9,157.4,431.7,156.1,430.2,156.1z"/>
</g>
<g>
	<rect x="0" y="218.6" class="st4" width="15.7" height="12.3"/>
	<path class="st11" d="M0.8,221.4v-1.1c0.5,0,0.9-0.1,1.1-0.1c0.3-0.1,0.6-0.2,0.8-0.4c0.1-0.2,0.3-0.4,0.3-0.6
		c0-0.2,0.1-0.3,0.1-0.3h1.4v8.5H2.8v-5.9H0.8z"/>
	<path class="st11" d="M7.5,225.5h1.8v1.8H7.5V225.5z"/>
</g>
<g>
	<rect x="285.1" y="200.8" class="st4" width="15.7" height="12.3"/>
	<path class="st11" d="M285.9,207.7c0.2-0.6,0.8-1.2,1.7-1.8c0.8-0.6,1.3-0.9,1.5-1.2c0.3-0.4,0.5-0.8,0.5-1.2
		c0-0.4-0.1-0.7-0.3-0.9s-0.5-0.4-0.9-0.4c-0.5,0-0.9,0.2-1,0.6c-0.1,0.2-0.2,0.6-0.2,1h-1.6c0-0.7,0.2-1.3,0.4-1.8
		c0.4-0.8,1.2-1.3,2.4-1.3c0.9,0,1.6,0.2,2.1,0.7c0.5,0.5,0.8,1.2,0.8,2c0,0.6-0.2,1.2-0.6,1.7c-0.2,0.3-0.7,0.7-1.2,1.1l-0.7,0.5
		c-0.4,0.3-0.7,0.5-0.9,0.6s-0.3,0.3-0.4,0.5h3.7v1.5h-5.8C285.5,208.8,285.6,208.2,285.9,207.7z"/>
	<path class="st11" d="M292.6,207.6h1.8v1.8h-1.8V207.6z"/>
</g>
<g>
	<g>
		<path class="st12" d="M127,229.6c0,0,72.9,51.5,139-12.6"/>
		<g>
			<polygon class="st11" points="262.4,214.2 268.7,220.7 268.8,214.3 			"/>
		</g>
	</g>
</g>
<g>
</g>
<g>
</g>
<g>
</g>
<g>
</g>
<g>
</g>
<g>
</g>
<g>
</g>
</svg>
