<?xml version="1.0" encoding="utf-8"?>
<!-- Generator: Adobe Illustrator 22.0.1, SVG Export Plug-In . SVG Version: 6.00 Build 0)  -->
<svg version="1.1" id="Layer_1" xmlns="http://www.w3.org/2000/svg" xmlns:xlink="http://www.w3.org/1999/xlink" x="0px" y="0px"
	 viewBox="0 0 122 295" style="enable-background:new 0 0 122 295;" xml:space="preserve">
<style type="text/css">
	.st0{fill:#FFFFFF;}
	.st1{fill:none;stroke:#010101;stroke-miterlimit:10;}
	.st2{opacity:0.8;}
	.st3{clip-path:url(#SVGID_2_);fill:#FFFFFF;}
	.st4{clip-path:url(#SVGID_4_);fill:none;stroke:#010101;stroke-width:0.75;stroke-miterlimit:10;}
	.st5{clip-path:url(#SVGID_6_);fill:#FFFFFF;}
	.st6{clip-path:url(#SVGID_8_);fill:none;stroke:#010101;stroke-width:0.75;stroke-miterlimit:10;}
	.st7{clip-path:url(#SVGID_10_);fill:#FFFFFF;}
	.st8{clip-path:url(#SVGID_12_);fill:none;stroke:#010101;stroke-width:0.75;stroke-miterlimit:10;}
	.st9{clip-path:url(#SVGID_14_);fill:#FFFFFF;}
	.st10{clip-path:url(#SVGID_16_);fill:none;stroke:#010101;stroke-width:0.75;stroke-miterlimit:10;}
	.st11{clip-path:url(#SVGID_18_);fill:#FFFFFF;}
	.st12{clip-path:url(#SVGID_20_);fill:none;stroke:#010101;stroke-width:0.75;stroke-miterlimit:10;}
	.st13{clip-path:url(#SVGID_22_);fill:#FFFFFF;}
	.st14{clip-path:url(#SVGID_24_);fill:none;stroke:#010101;stroke-width:0.75;stroke-miterlimit:10;}
	.st15{clip-path:url(#SVGID_26_);fill:#FFFFFF;}
	.st16{clip-path:url(#SVGID_28_);fill:none;stroke:#010101;stroke-width:0.75;stroke-miterlimit:10;}
	.st17{fill:none;stroke:#010101;stroke-width:0.5;stroke-miterlimit:10;}
	.st18{clip-path:url(#SVGID_30_);fill:#FFFFFF;}
	.st19{clip-path:url(#SVGID_32_);fill:none;stroke:#010101;stroke-width:0.75;stroke-miterlimit:10;}
	.st20{clip-path:url(#SVGID_34_);fill:#FFFFFF;}
	.st21{clip-path:url(#SVGID_36_);fill:none;stroke:#010101;stroke-width:0.75;stroke-miterlimit:10;}
	.st22{clip-path:url(#SVGID_38_);fill:#FFFFFF;}
	.st23{clip-path:url(#SVGID_40_);fill:none;stroke:#010101;stroke-width:0.75;stroke-miterlimit:10;}
	.st24{clip-path:url(#SVGID_42_);fill:#FFFFFF;}
	.st25{clip-path:url(#SVGID_44_);fill:none;stroke:#010101;stroke-width:0.75;stroke-miterlimit:10;}
	.st26{clip-path:url(#SVGID_46_);fill:#FFFFFF;}
	.st27{clip-path:url(#SVGID_48_);fill:none;stroke:#010101;stroke-width:0.75;stroke-miterlimit:10;}
	.st28{clip-path:url(#SVGID_50_);fill:#FFFFFF;}
	.st29{clip-path:url(#SVGID_52_);fill:none;stroke:#010101;stroke-width:0.75;stroke-miterlimit:10;}
	.st30{fill:#3A50A2;}
</style>
<path class="st0" d="M2.3,297.4c0,0,5.5-19.3,6.2-32.5c0.8-13.1-18.7-75.7-5.5-96.6s7.8-30.1,32.7-41c24.9-10.8,35.1-13.1,39-11.6
	l3.9,1.5c0,0,3.9-0.8,10.1,1.5s14.8,23.2,10.1,25.5c-4.7,2.3,2.3-3.1,12.5,2.3c10.1,5.4,11.7,30.1,11.7,42.5s-3.9,19.3-3.9,26.3
	s-3.9,25.5-10.9,40.2s-20.3,33.2-17.1,41.7"/>
<path class="st1" d="M2.3,297.4c0,0,5.5-19.3,6.2-32.5c0.8-13.1-18.7-75.7-5.5-96.6s7.8-30.1,32.7-41c24.9-10.8,35.1-13.1,39-11.6
	l3.9,1.5c0,0,3.9-0.8,10.1,1.5s14.8,23.2,10.1,25.5c-4.7,2.3,2.3-3.1,12.5,2.3c10.1,5.4,11.7,30.1,11.7,42.5s-3.9,19.3-3.9,26.3
	s-3.9,25.5-10.9,40.2s-20.3,33.2-17.1,41.7"/>
<path class="st0" d="M4.4,166.3c0,0-2-34.2-1.6-47.5C3,110,1.4,85.2,1.1,76.3c-0.2-7.6,2.8-21.6,2.8-27s0-34,9.3-43.3
	s13.2-2.3,15.6,3.1c2.3,5.4,0.8,32.5,0,38.6c-0.8,6.2,2.4,17,2.4,28.2c-0.1,10.9,0.5,35.2,0.5,35.2l4.1,16.2c0,0,0.3-35.3,14.8-37.9
	c18.2-3.2,22.6,20.1,21.8,25.5"/>
<path class="st1" d="M4.4,166.3c0,0-2-34.2-1.6-47.5C3,110,1.4,85.2,1.1,76.3c-0.2-7.6,2.8-21.6,2.8-27s0-34,9.3-43.3
	s13.2-2.3,15.6,3.1c2.3,5.4,0.8,32.5,0,38.6c-0.8,6.2,2.4,17,2.4,28.2c-0.1,10.9,0.5,35.2,0.5,35.2l4.1,16.2c0,0,0.3-35.3,14.8-37.9
	c18.2-3.2,22.6,20.1,21.8,25.5"/>
<path class="st0" d="M41.3,186.9c0,0,3.1,13.1,11.7,4.6c0,0,6.4-40,8.6-42.4"/>
<path class="st1" d="M41.3,186.9c0,0,3.1,13.1,11.7,4.6c0,0,6.4-40,8.6-42.4"/>
<path class="st0" d="M53,191.5c0,0-1.6,21.6,3.9,22.4c5.5,0.8,10.1-1.5,14.8-11.6c4.7-10,2.3-18.5,8.6-27
	c6.2-8.5,20.5-35.7,19.1-39.5"/>
<path class="st1" d="M53,191.5c0,0-1.6,21.6,3.9,22.4c5.5,0.8,10.1-1.5,14.8-11.6c4.7-10,2.3-18.5,8.6-27
	c6.2-8.5,20.5-35.7,19.1-39.5"/>
<path class="st0" d="M71.7,202.3c0,0,1.6,9.3,10.9,4.6c9.3-4.6,26.7-26.6,32.7-33.2"/>
<path class="st1" d="M71.7,202.3c0,0,1.6,9.3,10.9,4.6c9.3-4.6,26.7-26.6,32.7-33.2"/>
<g class="st2">
	<g>
		<g>
			<defs>
				<rect id="SVGID_1_" x="8.5" y="41.2" width="14.6" height="2.5"/>
			</defs>
			<clipPath id="SVGID_2_">
				<use xlink:href="#SVGID_1_"  style="overflow:visible;"/>
			</clipPath>
			<path class="st3" d="M23,42.7c-4.7,1.5-9.9-0.4-14.4-1.2"/>
		</g>
		<g>
			<defs>
				<rect id="SVGID_3_" x="8.5" y="41.2" width="14.6" height="2.5"/>
			</defs>
			<clipPath id="SVGID_4_">
				<use xlink:href="#SVGID_3_"  style="overflow:visible;"/>
			</clipPath>
			<path class="st4" d="M23,42.7c-4.7,1.5-9.9-0.4-14.4-1.2"/>
		</g>
	</g>
</g>
<g class="st2">
	<g>
		<g>
			<defs>
				<rect id="SVGID_5_" x="6.7" y="76.3" width="20.2" height="5.2"/>
			</defs>
			<clipPath id="SVGID_6_">
				<use xlink:href="#SVGID_5_"  style="overflow:visible;"/>
			</clipPath>
			<path class="st5" d="M7,79.4c0,0,1.6,2.3,10.1,1.5c8.6-0.8,9.3-4.6,9.3-4.6"/>
		</g>
		<g>
			<defs>
				<rect id="SVGID_7_" x="6.7" y="76.3" width="20.2" height="5.2"/>
			</defs>
			<clipPath id="SVGID_8_">
				<use xlink:href="#SVGID_7_"  style="overflow:visible;"/>
			</clipPath>
			<path class="st6" d="M7,79.4c0,0,1.6,2.3,10.1,1.5c8.6-0.8,9.3-4.6,9.3-4.6"/>
		</g>
	</g>
</g>
<g class="st2">
	<g>
		<g>
			<defs>
				<rect id="SVGID_9_" x="11.6" y="74.9" width="9.5" height="1.1"/>
			</defs>
			<clipPath id="SVGID_10_">
				<use xlink:href="#SVGID_9_"  style="overflow:visible;"/>
			</clipPath>
			<path class="st7" d="M11.7,75.6c0,0,3.9-0.8,9.3,0"/>
		</g>
		<g>
			<defs>
				<rect id="SVGID_11_" x="11.6" y="74.9" width="9.5" height="1.1"/>
			</defs>
			<clipPath id="SVGID_12_">
				<use xlink:href="#SVGID_11_"  style="overflow:visible;"/>
			</clipPath>
			<path class="st8" d="M11.7,75.6c0,0,3.9-0.8,9.3,0"/>
		</g>
	</g>
</g>
<g class="st2">
	<g>
		<g>
			<defs>
				<rect id="SVGID_13_" x="7.7" y="114.2" width="26.1" height="4.1"/>
			</defs>
			<clipPath id="SVGID_14_">
				<use xlink:href="#SVGID_13_"  style="overflow:visible;"/>
			</clipPath>
			<path class="st9" d="M7.8,116.5c0,0,21.4-5.4,25.7,1.5"/>
		</g>
		<g>
			<defs>
				<rect id="SVGID_15_" x="7.7" y="114.2" width="26.1" height="4.1"/>
			</defs>
			<clipPath id="SVGID_16_">
				<use xlink:href="#SVGID_15_"  style="overflow:visible;"/>
			</clipPath>
			<path class="st10" d="M7.8,116.5c0,0,21.4-5.4,25.7,1.5"/>
		</g>
	</g>
</g>
<g class="st2">
	<g>
		<g>
			<defs>
				<rect id="SVGID_17_" x="52.4" y="193.1" width="14.8" height="17.3"/>
			</defs>
			<clipPath id="SVGID_18_">
				<use xlink:href="#SVGID_17_"  style="overflow:visible;"/>
			</clipPath>
			<path class="st11" d="M52.8,199.2c0,0,0.2-3.1,5.7-5.4c5.5-2.3,9.4,9.1,8.2,16.5"/>
		</g>
		<g>
			<defs>
				<rect id="SVGID_19_" x="52.4" y="193.1" width="14.8" height="17.3"/>
			</defs>
			<clipPath id="SVGID_20_">
				<use xlink:href="#SVGID_19_"  style="overflow:visible;"/>
			</clipPath>
			<path class="st12" d="M52.8,199.2c0,0,0.2-3.1,5.7-5.4c5.5-2.3,9.4,9.1,8.2,16.5"/>
		</g>
	</g>
</g>
<g class="st2">
	<g>
		<g>
			<defs>
				<rect id="SVGID_21_" x="62.1" y="163.4" width="11.9" height="6.1"/>
			</defs>
			<clipPath id="SVGID_22_">
				<use xlink:href="#SVGID_21_"  style="overflow:visible;"/>
			</clipPath>
			<path class="st13" d="M62.3,163.7c0,0,7,5.4,11.7,5.4"/>
		</g>
		<g>
			<defs>
				<rect id="SVGID_23_" x="62.1" y="163.4" width="11.9" height="6.1"/>
			</defs>
			<clipPath id="SVGID_24_">
				<use xlink:href="#SVGID_23_"  style="overflow:visible;"/>
			</clipPath>
			<path class="st14" d="M62.3,163.7c0,0,7,5.4,11.7,5.4"/>
		</g>
	</g>
</g>
<g class="st2">
	<g>
		<g>
			<defs>
				<rect id="SVGID_25_" x="79.9" y="175.1" width="9" height="9"/>
			</defs>
			<clipPath id="SVGID_26_">
				<use xlink:href="#SVGID_25_"  style="overflow:visible;"/>
			</clipPath>
			<path class="st15" d="M80.2,175.3c0,0,3.1,7.7,8.6,8.5"/>
		</g>
		<g>
			<defs>
				<rect id="SVGID_27_" x="79.9" y="175.1" width="9" height="9"/>
			</defs>
			<clipPath id="SVGID_28_">
				<use xlink:href="#SVGID_27_"  style="overflow:visible;"/>
			</clipPath>
			<path class="st16" d="M80.2,175.3c0,0,3.1,7.7,8.6,8.5"/>
		</g>
	</g>
</g>
<path class="st0" d="M74.3,194.3c0,0,11.4,1.5,12.2,10.1"/>
<path class="st17" d="M74.3,194.3c0,0,11.4,1.5,12.2,10.1"/>
<g class="st2">
	<g>
		<g>
			<defs>
				<rect id="SVGID_29_" x="68.7" y="214.6" width="4.1" height="35.8"/>
			</defs>
			<clipPath id="SVGID_30_">
				<use xlink:href="#SVGID_29_"  style="overflow:visible;"/>
			</clipPath>
			<path class="st18" d="M72.5,214.7c0,0-7,23.2-0.8,35.5"/>
		</g>
		<g>
			<defs>
				<rect id="SVGID_31_" x="68.7" y="214.6" width="4.1" height="35.8"/>
			</defs>
			<clipPath id="SVGID_32_">
				<use xlink:href="#SVGID_31_"  style="overflow:visible;"/>
			</clipPath>
			<path class="st19" d="M72.5,214.7c0,0-7,23.2-0.8,35.5"/>
		</g>
	</g>
</g>
<g class="st2">
	<g>
		<g>
			<defs>
				<rect id="SVGID_33_" x="75.2" y="224.6" width="10" height="22.7"/>
			</defs>
			<clipPath id="SVGID_34_">
				<use xlink:href="#SVGID_33_"  style="overflow:visible;"/>
			</clipPath>
			<path class="st20" d="M75.6,224.7c0,0,6.2,14.7,9.3,22.4"/>
		</g>
		<g>
			<defs>
				<rect id="SVGID_35_" x="75.2" y="224.6" width="10" height="22.7"/>
			</defs>
			<clipPath id="SVGID_36_">
				<use xlink:href="#SVGID_35_"  style="overflow:visible;"/>
			</clipPath>
			<path class="st21" d="M75.6,224.7c0,0,6.2,14.7,9.3,22.4"/>
		</g>
	</g>
</g>
<g class="st2">
	<g>
		<g>
			<defs>
				<rect id="SVGID_37_" x="52" y="226.2" width="13.1" height="28.2"/>
			</defs>
			<clipPath id="SVGID_38_">
				<use xlink:href="#SVGID_37_"  style="overflow:visible;"/>
			</clipPath>
			<path class="st22" d="M64.7,226.3c0,0-5.5,21.6-12.5,27.8"/>
		</g>
		<g>
			<defs>
				<rect id="SVGID_39_" x="52" y="226.2" width="13.1" height="28.2"/>
			</defs>
			<clipPath id="SVGID_40_">
				<use xlink:href="#SVGID_39_"  style="overflow:visible;"/>
			</clipPath>
			<path class="st23" d="M64.7,226.3c0,0-5.5,21.6-12.5,27.8"/>
		</g>
	</g>
</g>
<g class="st2">
	<g>
		<g>
			<defs>
				<rect id="SVGID_41_" x="104.4" y="195.8" width="12.5" height="1"/>
			</defs>
			<clipPath id="SVGID_42_">
				<use xlink:href="#SVGID_41_"  style="overflow:visible;"/>
			</clipPath>
			<path class="st24" d="M104.4,196.1c0,0,6.6,0.6,12.5,0"/>
		</g>
		<g>
			<defs>
				<rect id="SVGID_43_" x="104.4" y="195.8" width="12.5" height="1"/>
			</defs>
			<clipPath id="SVGID_44_">
				<use xlink:href="#SVGID_43_"  style="overflow:visible;"/>
			</clipPath>
			<path class="st25" d="M104.4,196.1c0,0,6.6,0.6,12.5,0"/>
		</g>
	</g>
</g>
<path class="st0" d="M4.4,166.3c0,0,8-32.6,23.4-37.3c22.9-7,37-14.8,47.1-13.2c9.5,1.4-2.3,20.9-10.9,30.9s-22.6,13.9-22.6,13.9
	s0.8,16.2,0,26.3c-0.8,10-16.4,23.2-16.4,23.2"/>
<path class="st1" d="M4.4,166.3c0,0,8-32.6,23.4-37.3c22.9-7,37-14.8,47.1-13.2c9.5,1.4-2.3,20.9-10.9,30.9s-22.6,13.9-22.6,13.9
	s0.8,16.2,0,26.3c-0.8,10-16.4,23.2-16.4,23.2"/>
<g class="st2">
	<g>
		<g>
			<defs>
				<rect id="SVGID_45_" x="48.3" y="115.2" width="25.7" height="18.1"/>
			</defs>
			<clipPath id="SVGID_46_">
				<use xlink:href="#SVGID_45_"  style="overflow:visible;"/>
			</clipPath>
			<path class="st26" d="M48.7,122.7c0,0,3.1,11.6,9.3,10c6.2-1.5,14.1-3.7,14.9-7.5c0.8-3.9,1.8-11-2.8-9.5"/>
		</g>
		<g>
			<defs>
				<rect id="SVGID_47_" x="48.3" y="115.2" width="25.7" height="18.1"/>
			</defs>
			<clipPath id="SVGID_48_">
				<use xlink:href="#SVGID_47_"  style="overflow:visible;"/>
			</clipPath>
			<path class="st27" d="M48.7,122.7c0,0,3.1,11.6,9.3,10c6.2-1.5,14.1-3.7,14.9-7.5c0.8-3.9,1.8-11-2.8-9.5"/>
		</g>
	</g>
</g>
<g class="st2">
	<g>
		<g>
			<defs>
				<rect id="SVGID_49_" x="46.2" y="162.2" width="11.8" height="1.9"/>
			</defs>
			<clipPath id="SVGID_50_">
				<use xlink:href="#SVGID_49_"  style="overflow:visible;"/>
			</clipPath>
			<path class="st28" d="M57.9,163.4c0,0-6.5,1-11.6-0.9"/>
		</g>
		<g>
			<defs>
				<rect id="SVGID_51_" x="46.2" y="162.2" width="11.8" height="1.9"/>
			</defs>
			<clipPath id="SVGID_52_">
				<use xlink:href="#SVGID_51_"  style="overflow:visible;"/>
			</clipPath>
			<path class="st29" d="M57.9,163.4c0,0-6.5,1-11.6-0.9"/>
		</g>
	</g>
</g>
<path class="st30" d="M20.1,29.4C20.2,29.3,20.2,29.3,20.1,29.4c0.5-0.3,0.9-0.6,1.4-0.9c0.4-0.3,0.8-0.6,1.1-1
	c0.3-0.3,0.5-0.6,0.7-1c0.3-0.5,0.6-0.9,0.9-1.4c0.4-0.7,0.7-1.5,1-2.3c0.1-0.4,0.2-0.8,0.2-1.2c0.1-0.9,0.2-1.8,0-2.8
	c-0.1-0.9-0.4-1.7-0.8-2.4c-0.4-0.6-0.8-1.1-1.4-1.6c-0.4-0.3-0.9-0.6-1.4-0.9c-0.9-0.4-1.8-0.7-2.7-0.7c-1.1-0.1-2.2,0.1-3.2,0.4
	c-1,0.4-2,0.9-2.9,1.5c-0.8,0.6-1.6,1.3-2.3,2.1c-0.5,0.5-0.9,1-1.3,1.5c-0.5,0.6-0.9,1.3-1.3,2C8.1,20.8,8,20.9,8,21
	c-0.1,0.2-0.3,0.3-0.5,0.3c-0.2-0.1-0.4-0.3-0.3-0.6c0.1-0.2,0.2-0.4,0.3-0.6c0.2-0.4,0.5-0.9,0.8-1.3c0.7-0.9,1.4-1.8,2.2-2.6
	c0.9-0.9,1.8-1.7,2.9-2.3c0.8-0.5,1.7-0.9,2.6-1.2c1.7-0.5,3.4-0.5,5.1,0c0.7,0.2,1.3,0.5,2,0.9c1.3,0.8,2.3,2,2.8,3.4
	c0.3,0.8,0.5,1.6,0.5,2.5c0.1,1.1,0,2.3-0.3,3.4c-0.1,0.3-0.2,0.6-0.3,0.9c-0.2,0.6-0.5,1.1-0.8,1.7c-0.2,0.4-0.5,0.9-0.7,1.3
	c-0.4,0.6-0.8,1.2-1.4,1.7c-0.4,0.4-0.9,0.7-1.3,1c-0.4,0.2-0.7,0.5-1.1,0.7c-0.2,0.1-0.4,0.3-0.5,0.5c-0.1,0.1-0.1,0.2-0.2,0.3
	c-0.1,0.2-0.2,0.4-0.4,0.6c-0.3,0.4-0.7,0.7-1.1,1c-0.7,0.5-1.4,1-2.1,1.4c-1.1,0.7-2.3,1.3-3.5,1.9c-0.1,0.1-0.3,0.1-0.4,0
	c-0.3-0.2-0.3-0.6,0-0.7c0,0,0.1,0,0.1-0.1c1.5-0.7,3-1.5,4.4-2.4c0.5-0.4,1.1-0.7,1.6-1.1c0.2-0.2,0.4-0.4,0.6-0.6
	c0.1-0.1,0.1-0.2,0.2-0.3v-0.1c0-0.5,0.1-0.9,0.2-1.3c0.2-0.4,0.4-0.8,0.7-1.1c0.4-0.4,0.7-0.8,1.1-1.1c0.4-0.4,0.7-0.7,1-1.2
	c0.3-0.4,0.5-0.8,0.7-1.2c0-0.1,0-0.1,0.1-0.2c0.1-0.2,0.3-0.3,0.6-0.2c0.2,0.1,0.3,0.3,0.3,0.5c0,0.1-0.1,0.2-0.1,0.3
	c-0.1,0.3-0.3,0.6-0.5,0.9c-0.4,0.7-1,1.2-1.6,1.8c-0.3,0.3-0.7,0.7-1,1c-0.1,0.2-0.3,0.3-0.4,0.5C20.2,29.3,20.2,29.3,20.1,29.4
	C20.1,29.3,20.1,29.3,20.1,29.4"/>
<path class="st30" d="M16.8,29.4C16.7,29.5,16.7,29.5,16.8,29.4c-0.9,0.5-1.7,0.9-2.5,1.2c-0.7,0.4-1.5,0.7-2.2,1.1
	c-0.6,0.3-1.2,0.7-1.7,1.1c-0.1,0.1-0.2,0.2-0.3,0.2c-0.2,0.1-0.4,0.1-0.5,0c-0.2-0.1-0.2-0.3-0.2-0.5c0-0.1,0.1-0.2,0.1-0.2
	c0.3-0.3,0.6-0.5,0.9-0.7c0.6-0.4,1.3-0.8,2-1.1c0.8-0.4,1.7-0.8,2.5-1.2c0.8-0.4,1.6-0.8,2.4-1.3c0.7-0.4,1.4-0.9,2-1.5
	c0.5-0.4,0.9-0.9,1.3-1.5c0.3-0.4,0.6-0.9,0.8-1.4c0.3-0.7,0.5-1.4,0.6-2.1c0-0.6,0-1.2-0.3-1.8c-0.2-0.5-0.6-1-1-1.4
	c-0.3-0.3-0.7-0.5-1.1-0.7s-0.8-0.2-1.3-0.2c-0.4,0.1-0.8,0.2-1.2,0.4c-0.5,0.3-0.9,0.6-1.4,1c-0.5,0.5-1,1-1.4,1.5
	c-0.3,0.4-0.6,0.7-0.9,1.1c-0.1,0.2-0.2,0.4-0.4,0.5c-0.1,0.1-0.2,0.2-0.3,0.3c-0.8,0.9-1.7,1.7-2.7,2.4c-0.6,0.4-1.2,0.8-1.8,1
	c-0.3,0.1-0.6,0.2-0.9,0.3c-0.2,0-0.3,0-0.5-0.1c-0.2-0.2-0.1-0.6,0.2-0.7s0.5-0.1,0.8-0.3c0.6-0.2,1.1-0.5,1.6-0.9
	c0.7-0.4,1.3-1,1.8-1.5c0,0,0,0,0.1-0.1l0,0c-0.5,0.1-0.9,0.3-1.3,0.6c-0.2,0.2-0.4,0.4-0.6,0.6c-0.1,0.1-0.3,0.2-0.5,0.1
	s-0.3-0.2-0.3-0.4c0-0.1,0-0.2,0.1-0.3c0.5-0.7,1.2-1.1,2.1-1.4c0.3-0.1,0.6-0.1,0.9-0.2c0.1,0,0.2-0.1,0.3-0.1
	c0.4-0.1,0.7-0.4,0.9-0.7c0.6-0.9,1.3-1.7,2.1-2.5c0.4-0.4,0.9-0.7,1.4-1c0.4-0.2,0.8-0.4,1.2-0.5c0.7-0.2,1.4-0.2,2.1,0.1
	c0.9,0.4,1.7,1,2.2,1.8s0.8,1.6,0.8,2.5c0,0.7-0.1,1.3-0.3,1.9c-0.2,0.7-0.6,1.4-1,2.1c-0.7,1.1-1.6,2-2.6,2.7
	c-0.4,0.3-0.9,0.6-1.3,0.9h-0.1c0,0.2,0,0.4,0,0.6c0,0.4-0.2,0.8-0.4,1.1c-0.4,0.6-0.8,1-1.3,1.4c-0.6,0.4-1.2,0.8-1.8,1.2
	c-1,0.5-2,1-3,1.4c-0.1,0-0.2,0.1-0.4,0s-0.3-0.2-0.3-0.4s0.1-0.3,0.3-0.4c0.1,0,0.2-0.1,0.3-0.1c1.1-0.4,2.1-0.9,3.1-1.5
	c0.5-0.3,1-0.7,1.5-1.1c0.3-0.2,0.5-0.5,0.7-0.8c0.2-0.2,0.3-0.5,0.3-0.7C16.8,29.5,16.8,29.5,16.8,29.4
	C16.8,29.5,16.8,29.5,16.8,29.4"/>
<path class="st30" d="M10.2,20.5c0-0.2,0-0.4,0-0.5c0-0.4,0.1-0.7,0.2-1c0.2-0.6,0.6-1,1-1.5c0.1-0.1,0.2-0.2,0.4-0.2
	s0.3,0.1,0.4,0.3c0.1,0.2,0,0.3-0.1,0.5s-0.3,0.3-0.4,0.5c-0.3,0.3-0.5,0.7-0.6,1.1c0,0.2-0.1,0.4,0,0.6c0.1,0,0.1,0,0.2-0.1
	c0.1-0.1,0.3-0.2,0.3-0.3c0.1-0.1,0.2-0.2,0.3-0.4c0.4-0.6,0.8-1.2,1.3-1.7c0.8-0.9,1.8-1.6,2.9-2.1c0.9-0.4,1.8-0.6,2.7-0.6
	c0.1,0,0.3,0,0.4,0c0,0,0,0,0.1,0c-0.1,0-0.2-0.1-0.3-0.1c-0.2-0.1-0.3-0.1-0.5-0.1c-0.6-0.1-1.2,0-1.8,0.1
	c-0.6,0.2-1.1,0.4-1.7,0.7s-1.2,0.7-1.8,1.2C13,17,12.8,17,12.6,16.8c-0.2-0.2-0.1-0.5,0.1-0.6c0.2-0.1,0.3-0.3,0.5-0.4
	c0.7-0.5,1.5-1,2.3-1.3c0.5-0.2,1.1-0.4,1.7-0.5s1.2-0.1,1.8,0.1c0.4,0.1,0.7,0.3,1,0.6c0.2,0.2,0.3,0.4,0.3,0.6
	c0,0.1,0.1,0.1,0.1,0.1c0.2,0.1,0.4,0.2,0.6,0.3c0.5,0.3,1,0.6,1.5,1c0.7,0.6,1.2,1.4,1.5,2.2c0.1,0.1,0.1,0.3,0.2,0.4
	c0,0,0,0,0-0.1s0-0.2,0.1-0.4c0-0.2,0-0.4-0.1-0.5c-0.2-0.7-0.5-1.2-1-1.7c-0.3-0.4-0.7-0.7-1.1-0.9c-0.3-0.2-0.6-0.4-0.9-0.5
	c-0.1,0-0.2-0.1-0.2-0.1c-0.1,0-0.2-0.1-0.2-0.1c-0.1-0.1-0.2-0.4-0.1-0.5c0.1-0.2,0.3-0.2,0.5-0.2c0.1,0,0.2,0.1,0.3,0.1
	c0.4,0.2,0.8,0.4,1.2,0.7c0.5,0.4,1,0.8,1.4,1.3s0.7,1.1,1,1.8c0.1,0.4,0.1,0.8,0.1,1.2c-0.1,0.3-0.2,0.6-0.3,1
	c-0.1,0.2-0.1,0.4-0.2,0.7c0,0.1,0,0.3,0,0.4c0.1,0.4,0.1,0.7,0,1.1c0,0.1-0.1,0.3-0.2,0.4c-0.1,0.2-0.2,0.3-0.3,0.5
	c-0.1,0.2-0.4,0.3-0.6,0.1c-0.2-0.1-0.3-0.4-0.2-0.6c0.1-0.2,0.2-0.3,0.3-0.5c0.1-0.2,0.1-0.4,0.1-0.7c-0.1-0.6-0.2-1.2-0.4-1.8
	c-0.2-0.7-0.6-1.4-1.1-2.1c-0.3-0.4-0.7-0.7-1.1-1c-0.3-0.2-0.7-0.4-1-0.6c-0.1,0-0.2-0.1-0.3-0.1C19.3,16,18.7,16,18,16.1
	c-0.9,0.1-1.8,0.5-2.6,1c-0.7,0.4-1.3,1-1.9,1.6c-0.4,0.4-0.7,0.9-1,1.4c-0.2,0.3-0.4,0.5-0.6,0.7c-0.3,0.2-0.6,0.4-1,0.3
	c-0.1,0-0.2,0-0.3,0.1c-0.7,0.5-1.3,1-1.9,1.6C8.4,23.2,8,23.6,7.8,24c-0.1,0.1-0.1,0.3-0.2,0.4c-0.1,0.2-0.3,0.4-0.5,0.3
	s-0.4-0.3-0.3-0.6c0.1-0.3,0.2-0.5,0.4-0.8c0.4-0.7,0.9-1.2,1.5-1.8C9.2,21.3,9.7,20.9,10.2,20.5L10.2,20.5"/>
<path class="st30" d="M27,15.5c0-0.3-0.1-0.6-0.1-0.9c-0.2-0.6-0.5-1.1-1-1.5c-0.4-0.3-0.8-0.6-1.2-0.9c-0.5-0.3-1-0.5-1.5-0.8
	c-1.1-0.5-2.2-0.8-3.3-1c-1.4-0.2-2.7-0.2-4,0.2c-1.1,0.3-2.1,0.7-3,1.4c-0.6,0.4-1.1,0.8-1.6,1.3c-0.1,0.1-0.3,0.2-0.4,0.1
	c-0.3-0.1-0.5-0.5-0.2-0.7c0.2-0.2,0.4-0.4,0.6-0.5c1.1-0.9,2.3-1.6,3.6-2.1c1.7-0.6,3.4-0.8,5.1-0.5c0.9,0.1,1.7,0.3,2.6,0.6
	c0.5,0.2,1,0.4,1.5,0.6c0.5,0.3,1.1,0.5,1.6,0.8s1,0.7,1.4,1.1c0.6,0.6,0.9,1.3,1,2.2c0.1,0.5,0.1,0.9,0.1,1.4
	c0,0.6,0.1,1.2,0.2,1.8c0.1,0.5,0.2,0.9,0.4,1.3c0.3,0.9,0.5,1.8,0.6,2.7c0.1,1,0,2-0.1,3c-0.2,1.4-0.5,2.7-0.9,4.1
	c0,0.1-0.1,0.2-0.1,0.4c-0.1,0.2-0.3,0.4-0.6,0.3c-0.2-0.1-0.3-0.3-0.3-0.6c0.1-0.4,0.3-0.8,0.4-1.2c0.4-1.3,0.6-2.6,0.7-4
	c0.1-1,0-1.9-0.1-2.8c-0.1-0.5-0.2-1-0.4-1.5c-0.3-0.9-0.5-1.9-0.6-2.8c0-0.1,0-0.1-0.1-0.2c-0.7-0.5-1.3-1.1-1.7-1.8
	c-0.2-0.3-0.4-0.5-0.6-0.7c-0.3-0.3-0.7-0.6-1.1-0.9c-0.4-0.2-0.8-0.4-1.2-0.6c-0.5-0.2-1-0.4-1.6-0.5c-0.1,0-0.2-0.1-0.3-0.2
	c-0.1-0.1-0.1-0.3,0-0.5s0.3-0.2,0.5-0.2s0.3,0.1,0.5,0.1c0.8,0.2,1.6,0.6,2.4,1c0.6,0.4,1.2,0.8,1.7,1.3c0.2,0.2,0.5,0.5,0.6,0.8
	C26.3,14.8,26.6,15.2,27,15.5L27,15.5"/>
<path class="st30" d="M19.2,24.3C19.2,24.4,19.2,24.4,19.2,24.3c-0.4,0.3-0.9,0.6-1.3,0.7c-0.5,0.1-1,0.1-1.5-0.1
	c-0.2-0.1-0.3-0.1-0.4-0.2s-0.3-0.2-0.4-0.2c-0.2,0-0.3,0-0.4,0.1c-0.2,0.1-0.4,0.2-0.6,0c-0.2-0.1-0.2-0.4-0.1-0.5l0.1-0.1
	c0.3-0.3,0.6-0.4,1-0.3c0.3,0,0.6,0.1,0.9,0.3c0.1,0.1,0.3,0.2,0.4,0.2c0.4,0.1,0.7,0.1,1.1,0c0.3-0.1,0.6-0.3,0.9-0.6
	c0.5-0.4,0.8-0.9,1.1-1.5c0.1-0.3,0.2-0.5,0.3-0.8v-0.1c0-0.2-0.1-0.4-0.2-0.6c-0.2-0.4-0.5-0.7-0.9-0.9c-0.2-0.1-0.3-0.1-0.5-0.2
	c-0.4-0.1-0.7,0-1,0.2c-0.3,0.1-0.5,0.3-0.7,0.6c-0.3,0.3-0.5,0.6-0.8,0.9c-0.4,0.6-0.8,1.1-1.2,1.7c-0.1,0.2-0.3,0.5-0.4,0.7
	c-0.3,0.4-0.6,0.7-0.9,1c-0.6,0.6-1.3,1.1-2,1.5c-1.2,0.7-2.5,1.3-3.8,1.8c-0.2,0.1-0.3,0.1-0.4,0c-0.1-0.1-0.2-0.2-0.2-0.4
	c0-0.2,0.1-0.3,0.3-0.4S8,27,8.1,26.9c1.1-0.4,2.2-1,3.3-1.6c0.6-0.4,1.2-0.8,1.7-1.3c0.4-0.3,0.7-0.7,0.9-1.1s0.5-0.8,0.7-1.1
	c0.4-0.6,0.8-1.2,1.3-1.7c0.3-0.3,0.6-0.6,1-0.9c0.3-0.2,0.6-0.3,0.9-0.4c0.5-0.1,0.9-0.1,1.4,0.1c0.3,0.1,0.5,0.2,0.8,0.4
	c0.4,0.3,0.7,0.6,0.8,1.1c0.2,0.5,0.3,1,0.3,1.6s-0.1,1.1-0.3,1.7c-0.1,0.4-0.3,0.8-0.6,1.2c-0.6,1-1.5,1.9-2.6,2.4
	c-0.1,0.1-0.2,0.1-0.4,0c-0.2-0.1-0.3-0.2-0.3-0.4c0-0.2,0.1-0.3,0.2-0.4h0.1c0.7-0.3,1.2-0.8,1.7-1.3C19,24.7,19.1,24.6,19.2,24.3
	C19.2,24.4,19.2,24.4,19.2,24.3C19.2,24.4,19.2,24.3,19.2,24.3"/>
<path class="st30" d="M19.7,33.5L19.7,33.5c0.4-0.1,0.8-0.2,1.2-0.2c0.4,0,0.8-0.2,1.1-0.4c0.3-0.2,0.6-0.5,0.8-0.8
	c0.4-0.5,0.7-0.9,0.9-1.5c0.1-0.2,0.2-0.4,0.3-0.6c0-0.1,0.1-0.1,0.1-0.2c0.1-0.1,0.4-0.2,0.6,0c0.2,0.1,0.2,0.3,0.1,0.5
	c-0.2,0.5-0.5,1-0.8,1.5c-0.4,0.6-0.8,1.1-1.3,1.5c-0.4,0.3-0.8,0.6-1.3,0.7c-0.2,0-0.4,0.1-0.5,0.1c-0.4,0-0.8,0.1-1.2,0.2
	c-0.8,0.2-1.6,0.5-2.3,0.9c-0.1,0.1-0.2,0.1-0.4,0.2c-0.3,0.2-0.7,0.3-1,0.5c-0.5,0.3-1,0.6-1.4,0.8c-0.1,0.1-0.2,0.1-0.4,0
	c-0.2-0.1-0.3-0.2-0.3-0.4s0-0.3,0.2-0.4c0,0,0.1,0,0.1-0.1c1.6-0.9,3.1-1.9,4.6-3c1.2-0.9,2.4-1.9,3.4-3c0.5-0.6,1.1-1.1,1.5-1.8
	c0.5-0.7,1-1.4,1.4-2.1c0.3-0.5,0.5-0.9,0.7-1.4s0.4-1,0.5-1.5c0.2-0.7,0.3-1.4,0.3-2.1c0-0.1,0-0.2,0-0.4c0-0.3,0.3-0.5,0.6-0.4
	c0.2,0.1,0.3,0.2,0.3,0.4c0,0.2,0,0.3,0,0.5c0,0.6-0.1,1.1-0.2,1.7c-0.1,0.5-0.3,1.1-0.5,1.6c-0.1,0.4-0.3,0.7-0.5,1.1
	c-0.2,0.5-0.5,1-0.8,1.5c-0.2,0.4-0.5,0.8-0.8,1.1c-0.5,0.6-1,1.2-1.5,1.8c-0.9,1-1.8,1.9-2.8,2.7C20.3,32.9,20,33.2,19.7,33.5
	C19.7,33.4,19.7,33.4,19.7,33.5L19.7,33.5"/>
<path class="st30" d="M23.6,9c-0.2-0.3-0.4-0.6-0.7-0.8c-0.3-0.2-0.7-0.4-1.1-0.5c-0.2,0-0.3-0.2-0.3-0.3C21.4,7,21.7,6.7,22,6.8
	c0.2,0.1,0.4,0.1,0.6,0.2c0.3,0.1,0.5,0.2,0.8,0.4c0.3,0.2,0.6,0.5,0.8,0.8c0.2,0.2,0.3,0.5,0.5,0.8c0.2,0.3,0.5,0.6,0.8,0.9
	c0,0,0.1,0,0.1,0.1c1.2,0.7,2.2,1.5,3,2.6c0.4,0.5,0.7,0.9,0.9,1.5c0,0.1,0.1,0.2,0,0.3c0,0.2-0.2,0.3-0.4,0.3
	c-0.2,0-0.3-0.1-0.4-0.2l0,0c-0.3-0.6-0.7-1.2-1.2-1.7c-0.4-0.5-0.9-0.9-1.4-1.3c-0.2-0.1-0.3-0.3-0.5-0.4c-0.1-0.1-0.3-0.2-0.4-0.3
	s-0.2-0.2-0.4-0.2c-0.4-0.2-0.7-0.4-1.1-0.5c-0.7-0.3-1.4-0.5-2.1-0.7C20.8,9.2,20,9.1,19.3,9c-1.3-0.1-2.7,0-4,0.3h-0.1
	c-0.2,0-0.5-0.1-0.5-0.3c-0.1-0.2,0.1-0.5,0.3-0.5c0.4-0.1,0.8-0.2,1.2-0.3C17.5,8,18.8,8,20,8.2c1,0.2,1.9,0.4,2.8,0.6
	C23.1,8.8,23.3,8.9,23.6,9L23.6,9"/>
<path class="st30" d="M8.5,16.3c0-0.1,0.1-0.1,0.2-0.2c0.8-0.9,1.7-1.8,2.7-2.6c1-0.7,2-1.3,3.1-1.8c1.3-0.5,2.6-0.8,4-0.8
	c0.3,0,0.5,0,0.8,0c0.2,0,0.4,0.1,0.4,0.3c0.1,0.3-0.1,0.5-0.4,0.5c-0.1,0-0.1,0-0.2,0c-1,0-2,0.1-3,0.3c-1.2,0.3-2.2,0.8-3.2,1.4
	c-0.9,0.6-1.8,1.3-2.6,2.1c-0.4,0.4-0.7,0.8-1.1,1.2C9,17,8.6,16.9,8.4,16.6C8.4,16.6,8.4,16.4,8.5,16.3"/>
<path class="st30" d="M16.4,26.1c-0.1,0.2-0.3,0.3-0.5,0.2c-0.2,0-0.3-0.1-0.5-0.1c-0.1,0-0.2-0.1-0.3-0.1c-0.3-0.1-0.6-0.1-0.8,0.1
	c-0.2,0.1-0.5,0.3-0.7,0.4c-0.8,0.5-1.5,1-2.3,1.5c-0.6,0.4-1.2,0.7-1.9,1C9,29.3,8.5,29.4,8,29.5c-0.1,0-0.2,0-0.3-0.1
	s-0.2-0.3-0.2-0.5s0.2-0.3,0.4-0.3c0.1,0,0.2,0,0.4-0.1c0.4-0.1,0.8-0.2,1.2-0.4c0.6-0.3,1.2-0.6,1.8-1c0.7-0.4,1.3-0.9,1.9-1.3
	c0.2-0.1,0.4-0.3,0.6-0.4c0.3-0.2,0.7-0.3,1.1-0.3c0.2,0,0.4,0.1,0.6,0.2s0.4,0.1,0.6,0.2C16.5,25.6,16.6,25.9,16.4,26.1"/>
<path class="st30" d="M27.3,26.5c-0.3,0.6-0.6,1.2-0.8,1.7c-0.1,0.2-0.2,0.5-0.2,0.7c0,0.1,0,0.2,0,0.3c0,1-0.1,1.9-0.5,2.8
	c-0.1,0.4-0.3,0.7-0.5,1c-0.2,0.4-0.5,0.7-0.9,1c-0.2,0.2-0.5,0.1-0.6-0.1c-0.2-0.2-0.1-0.4,0.1-0.6c0.1-0.1,0.2-0.2,0.4-0.3
	c0.2-0.2,0.4-0.5,0.6-0.8c0.5-0.9,0.6-1.9,0.6-3c0-0.3,0.1-0.6,0.1-0.9c0.1-0.4,0.3-0.7,0.4-1.1c0.2-0.5,0.5-1,0.7-1.5
	c0-0.1,0.1-0.1,0.1-0.2c0.1-0.2,0.4-0.3,0.6-0.1c0.2,0.1,0.3,0.4,0.2,0.6C27.5,26.2,27.4,26.3,27.3,26.5"/>
<path class="st30" d="M8.6,31l0.1-0.1c0.5-0.4,1.1-0.8,1.6-1.1c1.2-0.7,2.4-1.3,3.6-1.9c0.7-0.3,1.4-0.6,2.1-0.8c0.1,0,0.2,0,0.3,0
	c0.2,0.1,0.3,0.2,0.3,0.4c0,0.2-0.1,0.3-0.3,0.4c-0.1,0-0.3,0.1-0.5,0.1c-1.6,0.6-3.2,1.3-4.7,2.2c-0.7,0.4-1.3,0.8-1.9,1.3
	c-0.2,0.2-0.5,0.1-0.7-0.1C8.5,31.3,8.5,31.1,8.6,31"/>
<path class="st30" d="M19,22.1c-0.2,0.3-0.5,0.7-0.7,1c-0.2,0.2-0.3,0.3-0.5,0.4s-0.5,0.2-0.7,0.1c-0.5-0.1-0.9-0.5-0.9-1.2
	c0-0.3,0.1-0.5,0.2-0.7c0.4-0.6,0.9-1.1,1.5-1.3c0.2-0.1,0.3-0.1,0.5-0.1s0.3,0,0.5,0.1c0.3,0.1,0.5,0.4,0.5,0.7
	c0,0.2-0.1,0.4-0.1,0.6C19.1,21.7,19.1,21.9,19,22.1 M18.5,21C18.4,21,18.4,21,18.5,21c-0.1,0-0.2,0.1-0.3,0.1
	c-0.3,0.1-0.5,0.3-0.7,0.5s-0.3,0.3-0.4,0.5c0,0.1-0.1,0.2-0.1,0.3c0,0.1,0.1,0.2,0.3,0.2c0,0,0.1,0,0.1-0.1
	c0.1-0.1,0.2-0.2,0.3-0.3c0.3-0.3,0.5-0.7,0.7-1C18.4,21.2,18.4,21.1,18.5,21"/>
<path class="st30" d="M29.7,22.3c-0.2-0.1-0.2-0.2-0.2-0.4c0-0.3,0-0.7,0.1-1c0-1-0.1-2.1-0.3-3.1c-0.1-0.5-0.3-1-0.5-1.5
	c-0.1-0.1-0.1-0.2-0.2-0.3c-0.1-0.2-0.1-0.4,0.1-0.5c0.1-0.1,0.4-0.2,0.5-0.1c0.1,0,0.1,0.1,0.2,0.2c0.2,0.3,0.3,0.6,0.4,0.9
	c0.4,0.9,0.5,1.8,0.6,2.8c0.1,0.9,0.1,1.7,0,2.6c0,0.2-0.1,0.3-0.2,0.4C30,22.4,29.8,22.4,29.7,22.3"/>
<path class="st30" d="M16.5,36.3c0.1-0.1,0.2-0.2,0.4-0.2c0.3,0,0.6,0,0.9-0.1c1-0.1,1.9-0.3,2.8-0.7c0.7-0.2,1.3-0.5,2-0.9
	c0.2-0.1,0.3-0.1,0.5,0c0.1,0.1,0.2,0.3,0.2,0.4c0,0.1-0.1,0.2-0.2,0.3c-0.2,0.1-0.4,0.2-0.6,0.3c-1.3,0.7-2.7,1.1-4.2,1.3
	c-0.6,0.3-1,0.3-1.4,0.3c-0.1,0-0.2,0-0.3-0.1C16.4,36.7,16.4,36.5,16.5,36.3"/>
<path class="st30" d="M25.8,8.4c0.6,0.3,1,0.7,1.4,1.3c0.2,0.2,0.1,0.6-0.2,0.7c-0.2,0.1-0.4,0-0.5-0.1s-0.1-0.1-0.2-0.2
	c-0.3-0.3-0.6-0.6-1-0.9c0,0-0.1,0-0.1-0.1C25,9,24.9,8.7,25,8.5s0.4-0.3,0.6-0.2C25.7,8.3,25.7,8.4,25.8,8.4"/>
<path class="st30" d="M18.1,7.7c-0.1-0.1-0.2-0.2-0.2-0.4C17.9,7.1,18,7,18.2,7c0.1,0,0.1,0,0.2-0.1c0.6-0.1,1.1-0.2,1.7-0.2
	c0.1,0,0.1,0,0.2,0c0.2,0,0.4,0.2,0.4,0.5c0,0.2-0.2,0.4-0.5,0.4c-0.5,0-1.1,0.1-1.6,0.2h-0.1C18.3,7.8,18.2,7.8,18.1,7.7"/>
</svg>
