<?xml version="1.0" encoding="utf-8"?>
<!-- Generator: Adobe Illustrator 22.0.1, SVG Export Plug-In . SVG Version: 6.00 Build 0)  -->
<svg version="1.1" id="Layer_1" xmlns="http://www.w3.org/2000/svg" xmlns:xlink="http://www.w3.org/1999/xlink" x="0px" y="0px"
	 viewBox="0 0 280.1 299.7" style="enable-background:new 0 0 280.1 299.7;" xml:space="preserve">
<style type="text/css">
	.st0{fill:#ECECEC;}
	.st1{fill:#FFFFFF;stroke:#1D1D1B;stroke-width:1.0735;stroke-miterlimit:10;}
	.st2{fill:#ECECEC;stroke:#1D1D1B;stroke-width:0.5367;stroke-miterlimit:10;}
	.st3{fill:none;stroke:#3A50A2;stroke-width:2.1469;stroke-miterlimit:10;}
	.st4{fill:none;stroke:#3A50A2;stroke-width:2.1469;stroke-miterlimit:10;stroke-dasharray:4.3449,4.3449;}
	.st5{fill:none;stroke:#3A50A2;stroke-width:2.1469;stroke-miterlimit:10;stroke-dasharray:4.3305,4.3305;}
	.st6{fill:none;stroke:#3A50A2;stroke-width:2.1469;stroke-miterlimit:10;stroke-dasharray:4.1407,4.1407;}
	.st7{fill:none;stroke:#3A50A2;stroke-width:2.1469;stroke-miterlimit:10;stroke-dasharray:4.1414,4.1414;}
	.st8{fill:none;stroke:#3A50A2;stroke-width:2.1469;stroke-miterlimit:10;stroke-dasharray:4.3073,4.3073;}
	.st9{fill:none;stroke:#3A50A2;stroke-width:2.1469;stroke-miterlimit:10;stroke-dasharray:4.3312,4.3312;}
	.st10{fill:none;stroke:#3A50A2;stroke-width:2.1469;stroke-miterlimit:10;stroke-dasharray:4.311,4.311;}
	.st11{fill:none;stroke:#3A50A2;stroke-width:2.1469;stroke-miterlimit:10;stroke-dasharray:4.2788,4.2788;}
	.st12{fill:none;stroke:#3A50A2;stroke-width:2.1469;stroke-miterlimit:10;stroke-dasharray:4.0364,4.0364;}
	.st13{fill:none;stroke:#3A50A2;stroke-width:2.1469;stroke-miterlimit:10;stroke-dasharray:4.0362,4.0362;}
	.st14{fill:none;stroke:#3A50A2;stroke-width:2.1469;stroke-miterlimit:10;stroke-dasharray:4.3737,4.3737;}
	.st15{fill:none;stroke:#3A50A2;stroke-width:2.1469;stroke-miterlimit:10;stroke-dasharray:4.2052,4.2052;}
	.st16{fill:none;stroke:#3A50A2;stroke-width:1.6102;stroke-miterlimit:10;stroke-dasharray:6.4407;}
	.st17{fill:none;stroke:#3A50A2;stroke-width:2.1469;stroke-miterlimit:10;stroke-dasharray:6.4407;}
	.st18{fill:#3A50A2;}
	.st19{fill:none;stroke:#1D1D1B;stroke-width:1.646;stroke-miterlimit:10;}
	.st20{fill:#FFFFFF;}
</style>
<g>
	<path class="st0" d="M70.5,266.8c0,0-0.2,0-0.4,0c-2.1,0-3.9,0-5.8,0c-9.9-0.2-17.2-7.7-17.2-17.6c0-47.2,0-94.2,0-141.5
		c0-9.9,7.5-17.6,17.6-17.6c7.3,0,14.6,0,21.9,0c42.3,0,84.4,0,126.7,0c12,0,19.1,7.1,19.1,19.1c0,46.2-0.2,92.3,0.2,138.3
		c0,12-9.2,20.4-19.5,19.3c-1.3-0.2-2.4,0-4.1,0H70.5 M69,148.9c0,20,0,39.5,0,59.5c-2.1,0-4.3,0-6.2,0c0,2.8,0,5.2,0,7.9
		c2.1,0,4.1,0,6.4,0c0,9.7,0,18.9,0,28.3c47.2,0,94,0,140.8,0c0-44.2,0-88,0-131.8c-47,0-93.8,0-140.8,0c0,9.4,0,18.9,0,28.3
		c-2.4,0-4.3,0.2-6.4,0.2c0,2.6,0,4.9,0,7.7C65,148.9,66.9,148.9,69,148.9z"/>
	<path class="st1" d="M69,148.9c-2.1,0-4.1,0-6.2,0c0-2.8,0-5.2,0-7.7c2.1,0,4.3-0.2,6.4-0.2c0-9.4,0-18.9,0-28.3
		c47,0,93.8,0,140.8,0c0,43.8,0,87.8,0,131.8c-46.8,0-93.6,0-140.8,0c0-9.4,0-18.7,0-28.3c-2.4,0-4.3,0-6.4,0c0-2.8,0-5.2,0-7.9
		c2.1,0,4.1,0,6.2,0C69,188.4,69,168.9,69,148.9z M74.8,148.9c0,19.8,0,39.5,0,59.3c2.1,0,4.1,0,6,0c0,2.8,0,5.4,0,7.9
		c-2.1,0-4.1,0-6,0c0,7.9,0,15.5,0,23.2c43.4,0,86.5,0,129.9,0c0-40.8,0-81.4,0-121.7c-43.4,0-86.5,0-129.9,0c0,7.9,0,15.5,0,23.4
		c2.1,0,4.1,0.2,6.2,0.2c0,1.3,0,2.6,0,3.9s0,2.4,0,3.9C78.7,148.9,77,148.9,74.8,148.9z"/>
	<path class="st2" d="M74.8,148.9c2.1,0,4.1,0,6.2,0c0-1.5,0-2.6,0-3.9s0-2.4,0-3.9c-2.1,0-4.1-0.2-6.2-0.2c0-7.7,0-15.5,0-23.4
		c43.2,0,86.3,0,129.9,0c0,40.6,0,81.2,0,121.7c-43.2,0-86.3,0-129.9,0c0-7.7,0-15.2,0-23.2c1.9,0,3.9,0,6,0c0-2.8,0-5.2,0-7.9
		c-1.9,0-3.9,0-6,0C74.8,188.4,74.8,168.7,74.8,148.9z M177.5,190.8c7.1,0,12.9-5.6,12.9-12.2c0-6.7-6-12.5-12.9-12.2
		c-7.1,0-12.9,5.8-12.9,12.5C164.6,185.4,170.4,190.8,177.5,190.8z"/>
	<path class="st1" d="M177.5,190.8c-7.1,0-12.9-5.4-12.9-12.2c0-6.7,5.8-12.2,12.9-12.5c6.9,0,12.9,5.6,12.9,12.2
		C190.3,185.2,184.5,190.8,177.5,190.8z"/>
</g>
<g>
	<g>
		<g>
			<g>
				<path class="st3" d="M132.2,281c0.6-0.4,1.1-0.9,1.7-1.3c0.2,0.2,0.6,0.2,0.9,0.4c0.2,0.2,0.6,0.4,0.9,0.6"/>
				<path class="st4" d="M139.2,283.3c13.7,8.2,32,6.2,33.9-5.6c0.4-2.6,2.6-2.6,4.9-2.6c17.4,0,34.8,0,52.2,0c1.9,0,4.5,0.9,6,1.9
					c10.3,7.5,12.2,7.1,20.6-1.1c8.4-7.9,6-19.3-4.9-25.8c-1.5-0.9-2.8-2.8-2.8-4.3c-0.2-12,0-24-0.2-36.1c0-2.6,1.1-3.4,4.3-4.1
					c8.4-1.7,7.3-6.2,9.4-12.9c1.7-5.8-0.2-10.5-4.3-14.6"/>
				<path class="st3" d="M256.7,176.8c-0.4-0.4-1.1-0.9-1.7-1.3c0.6-0.4,1.1-1.1,1.5-1.5"/>
				<path class="st5" d="M259.7,171.1c9.7-10.9,9.2-21.5-7.7-26.4c-1.5-0.4-2.8-2.6-2.8-4.1c-0.2-10.9-0.2-21.7,0-32.6
					c0-1.7,1.5-3.9,3.4-4.9c7.7-4.9,11.2-12,8.6-19.3c-2.1-6.4-10.1-11.8-18.2-12.5c-10.1-0.9-5.6,2.4-10.1,9.4
					c-1.5,2.4-3.2,3-6,2.8c-10.5,0-21,0-31.3,0c-5.6,0-11.2,0-16.7,0"/>
				<path class="st3" d="M176.4,83.5c-0.6,0-1.5,0-2.1,0c-0.2-0.6-0.4-1.5-0.6-2.1"/>
				<path class="st6" d="M171.9,77.7c-6.9-12.5-24-14-34.6-7.5"/>
				<path class="st3" d="M135.6,71.2c-0.6,0.4-1.1,0.9-1.7,1.3c-0.6-0.4-1.3-0.9-1.9-1.1"/>
				<path class="st7" d="M128.5,69.5c-14.2-6.9-26.2-3.2-33.5,10.1"/>
				<path class="st3" d="M94.2,81.5c-0.2,0.6-0.6,1.3-0.9,1.9c-0.6,0-1.5,0-2.1,0"/>
				<path class="st8" d="M86.9,83.5c-12.7,0-25.3,0-38-0.2c-1.3,0-3-1.5-3.9-2.8c-5.2-7.1-1.1-10.5-11.2-9.2
					c-8.6,1.1-15.9,6.9-17.6,14c-1.9,7.3,2.1,14.6,10.9,18.2c3,1.3,3.4,2.8,3.4,4.9c0,7.9,0,15.9,0,23.8c0,2.4,0,4.7,0,7.3"/>
				<path class="st3" d="M30.4,141.9c0,0.6,0,1.5,0,2.1c-0.9,0-1.5,0.2-2.1,0.2"/>
				<path class="st9" d="M24,145.3c-4.7,1.7-6,5.2-8.6,10.7c-2.8,6.4-0.9,11.8,3.6,16.7"/>
				<path class="st3" d="M20.7,174.3c0.4,0.4,1.1,0.9,1.7,1.3c-0.6,0.4-1.1,0.9-1.7,1.3"/>
				<path class="st10" d="M17.7,180.1c-3.6,4.5-4.7,9.4-2.1,15.2c2.8,6.4,4.3,9.7,10.5,11.2"/>
				<path class="st3" d="M28.3,206.9c0.6,0,1.3,0.2,2.1,0.2c0,0.6,0,1.5,0,2.1"/>
				<path class="st11" d="M30.4,213.6c0,10.5,0,20.8,0,31.1c0,2.4-0.6,3.9-3.6,5.2c-11.2,4.9-14.4,15.9-7.7,24.3
					c6.4,8.2,8.2,11.4,17.6,5.4c6.4-4.1,12.7-4.3,20-4.3c10.5,0,21,0,31.3,0c0.4,0,0.9,0,1.3,0"/>
				<path class="st3" d="M91.4,275.2c0.6,0,1.5,0,2.1,0c0.2,0.6,0.2,1.5,0.4,2.1"/>
				<path class="st12" d="M95.7,281c6,9.7,22.1,9.4,34.8,1.1"/>
			</g>
		</g>
	</g>
	<g>
		<g>
			<g>
				<path class="st3" d="M135.6,280.8c-0.2-0.2-0.6-0.4-0.9-0.6c-0.2-0.2-0.6-0.2-0.9-0.4c-0.6,0.4-1.1,0.9-1.7,1.3"/>
				<path class="st13" d="M128.7,283.1c-13.1,7.7-29,7.1-33.9-3.9"/>
				<path class="st3" d="M94.2,277.3c-0.2-0.6-0.4-1.3-0.4-2.1c-0.6,0-1.5,0-2.1,0"/>
				<path class="st11" d="M87.3,275.2c-10.1,0-20.4,0-30.5,0c-7.3,0-13.5,0.2-20,4.3c-9.4,6-11.2,3-17.6-5.4
					c-6.7-8.4-3.4-19.3,7.7-24.3c3-1.3,3.6-2.8,3.6-5.2c-0.2-10.9,0-22.1,0-33.3"/>
				<path class="st3" d="M30.4,209.3c0-0.6,0-1.5,0-2.1c-0.9,0-1.5-0.2-2.1-0.2"/>
				<path class="st10" d="M24,205.8c-4.5-1.7-5.8-4.9-8.4-10.5c-2.8-6.2-1.3-11.8,3.6-16.7"/>
				<path class="st3" d="M20.7,177.1c0.4-0.4,1.1-0.9,1.7-1.3c-0.6-0.4-1.1-0.9-1.7-1.3"/>
				<path class="st9" d="M17.7,171.1c-3.6-4.5-4.7-9.4-2.1-15c2.8-6.2,3.9-9.9,10.5-11.4"/>
				<path class="st3" d="M28.3,144.2c0.6,0,1.3-0.2,2.1-0.2c0-0.6,0-1.5,0-2.1"/>
				<path class="st8" d="M30.4,137.6c0-1.7,0-3.4,0-4.9c0-7.9,0-15.9,0-23.8c0-2.1-0.4-3.6-3.4-4.9c-8.8-3.6-12.7-10.9-10.9-18.2
					c1.7-7.1,9-12.9,17.6-14c10.3-1.3,6,2.1,11.2,9.2c0.9,1.1,2.6,2.6,3.9,2.8c13.5,0.2,26.8,0.2,40.1,0.2"/>
				<path class="st3" d="M91.2,83.5c0.6,0,1.5,0,2.1,0c0.2-0.6,0.6-1.3,0.9-1.9"/>
				<path class="st7" d="M96.1,77.9c7.7-12.5,20-15,34.1-7.3"/>
				<path class="st3" d="M132.2,71.7c0.6,0.4,1.3,0.6,1.9,1.1c0.4-0.4,1.1-0.9,1.7-1.3"/>
				<path class="st6" d="M139,69.1c11.2-5.6,27.9-3,33.7,10.3"/>
				<path class="st3" d="M173.6,81.5c0.2,0.6,0.4,1.3,0.6,2.1c0.6,0,1.5,0,2.1,0"/>
				<path class="st5" d="M180.7,83.5c4.9,0,9.7,0,14.6,0c10.5,0,21,0,31.3,0c3,0,4.7-0.6,6-2.8c4.5-7.1-0.2-10.3,10.1-9.4
					c8.2,0.6,15.9,6,18.2,12.5c2.6,7.3-0.9,14.4-8.6,19.3c-1.7,1.1-3.2,3.2-3.4,4.9c-0.2,10.9-0.2,21.7,0,32.6
					c0,1.3,1.5,3.6,2.8,4.1c17.8,5.2,17.4,16.5,6.4,27.9"/>
				<path class="st3" d="M256.7,174.1c-0.4,0.4-1.1,1.1-1.5,1.5c0.6,0.4,1.1,0.9,1.7,1.3"/>
				<path class="st4" d="M259.7,180.1c3,3.9,4.3,8.2,2.8,13.1c-2.1,6.7-1.1,11.2-9.4,12.9c-3.2,0.6-4.3,1.5-4.3,4.1
					c0.2,12,0,24,0.2,36.1c0,1.5,1.3,3.4,2.8,4.3c10.9,6.4,13.3,17.6,4.9,25.8c-8.4,8.2-10.3,8.6-20.6,1.1c-1.5-1.1-3.9-1.9-6-1.9
					c-17.4-0.2-34.8,0-52.2,0c-2.4,0-4.5-0.2-4.9,2.6c-1.9,12.5-21.7,14-35.6,4.5"/>
			</g>
			<g>
				<path class="st3" d="M235.9,105.8c0-0.6,0-1.5,0-2.1c-0.6,0-1.5,0-2.1,0"/>
				<path class="st14" d="M229.2,103.6c-60.8,0-121.1,0-181.4,0"/>
				<path class="st3" d="M45.6,103.6c-0.6,0-1.5,0-2.1,0c0,0.6,0,1.5,0,2.1"/>
				<path class="st15" d="M43.5,109.9c0,47,0,94,0,140.8"/>
				<path class="st3" d="M43.5,252.8c0,0.6,0,1.5,0,2.1c0.6,0,1.5,0,2.1,0"/>
				<path class="st14" d="M49.9,255c60.8,0,121.1,0,181.4,0"/>
				<path class="st3" d="M233.7,255c0.6,0,1.5,0,2.1,0c0-0.6,0-1.5,0-2.1"/>
				<path class="st15" d="M235.9,248.8c0-47,0-93.8,0-140.8"/>
			</g>
		</g>
	</g>
</g>
<circle class="st16" cx="186.5" cy="142.5" r="14.8"/>
<polygon class="st16" points="54,242.1 54,137.1 120.4,221.9 120.4,154.3 222.8,242.1 "/>
<g>
	<path class="st17" d="M69.9,82.6l53.2-65.5c6.4-7.7,17.2-8.2,23.8-0.6l60.5,65.7"/>
</g>
<circle class="st18" cx="135.6" cy="20.1" r="5.4"/>
<g>
	<g>
		<line class="st19" x1="177.5" y1="178.8" x2="177.5" y2="189.5"/>
		<line class="st19" x1="177.5" y1="178.8" x2="183.7" y2="187.6"/>
		<line class="st19" x1="177.5" y1="178.8" x2="187.6" y2="182.2"/>
		<line class="st19" x1="177.5" y1="178.8" x2="187.6" y2="175.6"/>
		<line class="st19" x1="177.5" y1="178.8" x2="183.7" y2="170.2"/>
		<line class="st19" x1="177.5" y1="178.8" x2="177.5" y2="168"/>
		<line class="st19" x1="177.5" y1="178.8" x2="171" y2="170.2"/>
		<line class="st19" x1="177.5" y1="178.8" x2="167.2" y2="175.6"/>
		<line class="st19" x1="177.5" y1="178.8" x2="167.2" y2="182.2"/>
		<line class="st19" x1="177.5" y1="178.8" x2="171" y2="187.6"/>
	</g>
	<circle class="st20" cx="177.5" cy="179" r="6"/>
</g>
</svg>
