<?xml version="1.0" encoding="utf-8"?>
<!-- Generator: Adobe Illustrator 19.1.0, SVG Export Plug-In . SVG Version: 6.00 Build 0)  -->
<svg version="1.1" id="Layer_1" xmlns="http://www.w3.org/2000/svg" xmlns:xlink="http://www.w3.org/1999/xlink" x="0px" y="0px"
	 viewBox="0 0 232.4 213.1" style="enable-background:new 0 0 232.4 213.1;" xml:space="preserve">
<style type="text/css">
	.st0{fill:#010101;}
	.st1{fill:#FFFFFF;stroke:#010101;stroke-width:2;stroke-miterlimit:10;}
	.st2{fill:#FFFFFF;stroke:#010101;stroke-miterlimit:10;}
	.st3{fill:none;}
	.st4{fill:#1D1D1B;}
</style>
<path class="st0" d="M12.7,9.5c1.4-2.1,3.5-3.4,5.7-3.9c0.4,2.4-0.1,4.9-1.6,7c-1.4,1.8-3.3,2.9-5.4,3.3C11,13.8,11.4,11.5,12.7,9.5
	z M20.8,23.3c-1.9,0.1-3.8-0.3-5.5-1.4c-1.6-1-2.7-2.5-3.4-4.2c2.4-0.5,4.7-1.8,6.3-4c1.9-2.5,2.5-5.4,2-8.2c1.7,0,3.3,0.5,4.8,1.4
	c1.4,0.9,2.4,2.2,3.1,3.6c-2.6,0.8-5,2.5-6.4,5.1C20.5,18,20.2,20.8,20.8,23.3z M23.4,16.4c1.2-2.2,3.2-3.7,5.5-4.3
	c0.6,2.3,0.3,4.9-1.1,7.1c-1.2,1.9-3.1,3.1-5.1,3.7C22,20.8,22.2,18.5,23.4,16.4z M32.9,21.9c-1.2,2.5-1.3,5.3-0.5,7.8
	c-1.9,0.2-3.8,0-5.5-1c-1.7-0.9-2.9-2.3-3.7-3.9c2.4-0.7,4.6-2.1,6-4.4c1.7-2.6,2.1-5.6,1.4-8.4c1.7-0.1,3.4,0.2,4.9,1.1
	c1.5,0.8,2.6,2,3.4,3.4C36.3,17.3,34.1,19.2,32.9,21.9z M34.5,22.6c1.1-2.3,3-3.9,5.1-4.6c0.8,2.3,0.6,4.9-0.7,7.2
	c-1.1,2-2.9,3.4-4.9,4C33.4,27.1,33.5,24.8,34.5,22.6z M44.4,35.2c-1.8,0.4-3.8,0.2-5.6-0.6c-1.7-0.8-3.1-2.1-3.9-3.7
	c2.3-0.8,4.4-2.5,5.7-4.8c1.5-2.7,1.7-5.7,0.8-8.5c1.6-0.2,3.4,0,5,0.8c1.5,0.7,2.7,1.8,3.6,3.1c-2.5,1.1-4.6,3.2-5.6,5.9
	C43.3,30,43.4,32.7,44.4,35.2z M46.1,34.6c-0.8-2-0.9-4.4-0.1-6.6c0.9-2.3,2.7-4.1,4.8-5c0.9,2.2,1,4.8-0.2,7.2
	C49.7,32.3,48,33.8,46.1,34.6z M51.1,39.6c-1.8-0.7-3.2-1.9-4.2-3.4c2.3-1,4.2-2.8,5.4-5.2c1.3-2.8,1.3-5.8,0.3-8.5
	c1.6-0.3,3.4-0.2,5,0.4c1.6,0.6,2.8,1.6,3.8,2.9c-2.4,1.3-4.3,3.5-5.2,6.3c-0.8,2.7-0.5,5.4,0.6,7.8C54.9,40.3,53,40.3,51.1,39.6z
	 M58.4,39.2c-1-2-1.2-4.3-0.5-6.6c0.7-2.4,2.4-4.2,4.5-5.3c1.1,2.2,1.3,4.8,0.4,7.2C61.8,36.6,60.3,38.2,58.4,39.2z M63.8,43.8
	c-1.8-0.6-3.3-1.7-4.4-3.1c2.2-1.2,4-3.1,5-5.6c1.1-2.9,0.9-5.9-0.3-8.5c1.6-0.4,3.3-0.5,5,0.1c1.6,0.5,2.9,1.4,4,2.6
	c-2.3,1.4-4.1,3.8-4.7,6.6c-0.6,2.7-0.2,5.4,1.1,7.7C67.6,44.3,65.7,44.4,63.8,43.8z M71,42.9c-1.1-1.9-1.5-4.2-1-6.5
	c0.6-2.4,2.1-4.4,4.1-5.6c1.2,2.1,1.6,4.7,0.8,7.1C74.3,40.1,72.8,41.8,71,42.9z M76.7,47.1c-1.9-0.4-3.4-1.4-4.6-2.8
	c2.1-1.3,3.8-3.3,4.6-5.9c0.9-2.9,0.5-6-0.9-8.5c1.6-0.6,3.3-0.7,5-0.3c1.6,0.4,3,1.2,4.2,2.3c-2.2,1.6-3.8,4-4.3,7
	c-0.4,2.8,0.2,5.4,1.7,7.6C80.6,47.3,78.6,47.5,76.7,47.1z M82.4,39.2c0.4-2.5,1.8-4.5,3.7-5.9c1.4,2,1.9,4.5,1.3,7.1
	c-0.5,2.2-1.8,4-3.6,5.2C82.6,43.8,82,41.6,82.4,39.2z M89.8,49.5c-1.9-0.3-3.5-1.2-4.8-2.4c2-1.5,3.6-3.6,4.2-6.2
	c0.7-3,0.1-6-1.5-8.4c1.5-0.7,3.2-0.9,5-0.6c1.7,0.3,3.1,1,4.3,2c-2.1,1.8-3.5,4.3-3.8,7.2c-0.3,2.8,0.6,5.4,2.2,7.5
	C93.7,49.4,91.8,49.8,89.8,49.5z M96.8,47.6c-1.4-1.7-2.1-4-1.9-6.3c0.2-2.5,1.5-4.6,3.3-6.1c1.5,1.9,2.2,4.4,1.8,6.9
	C99.7,44.3,98.5,46.2,96.8,47.6z M103,50.9c-1.9-0.2-3.6-0.9-5-2.1c1.9-1.6,3.3-3.8,3.7-6.5c0.5-3-0.4-6-2.1-8.2
	c1.5-0.8,3.2-1.2,4.9-1c1.7,0.1,3.2,0.8,4.4,1.7c-2,1.9-3.2,4.5-3.3,7.5c-0.1,2.8,1,5.3,2.7,7.3C106.9,50.6,105,51.1,103,50.9z
	 M107.6,42.4c0.1-2.5,1.1-4.7,2.8-6.3c1.6,1.8,2.5,4.2,2.3,6.8c-0.2,2.3-1.3,4.2-2.8,5.7C108.5,46.9,107.6,44.7,107.6,42.4z
	 M116.3,51.5c-1.9,0-3.7-0.7-5.1-1.7c1.8-1.7,3-4,3.3-6.7c0.3-3.1-0.8-5.9-2.7-8.1c1.4-0.9,3.1-1.4,4.9-1.3c1.7,0,3.2,0.6,4.5,1.4
	c-1.8,2-2.9,4.7-2.7,7.7c0.1,2.8,1.4,5.3,3.2,7.1C120.2,50.9,118.4,51.5,116.3,51.5z M123.1,48.6c-1.6-1.5-2.6-3.6-2.8-6
	c-0.1-2.5,0.8-4.8,2.4-6.5c1.8,1.7,2.8,4,2.8,6.6C125.4,45,124.5,47.1,123.1,48.6z M129.7,51.1c-1.9,0.1-3.7-0.4-5.2-1.4
	c1.7-1.9,2.7-4.3,2.8-6.9c0.1-3.1-1.2-5.9-3.2-7.9c1.3-1,3-1.6,4.7-1.7c1.7-0.1,3.2,0.3,4.6,1.1c-1.7,2.2-2.5,4.9-2.2,7.9
	c0.3,2.8,1.7,5.2,3.7,6.8C133.5,50.2,131.7,51,129.7,51.1z M136.2,47.8c-1.7-1.4-2.9-3.4-3.2-5.8c-0.3-2.5,0.5-4.8,1.9-6.7
	c1.9,1.5,3.1,3.8,3.2,6.4C138.3,44,137.5,46.1,136.2,47.8z M142.9,49.8c-1.9,0.2-3.7-0.2-5.3-1c1.5-2,2.4-4.4,2.3-7.1
	c-0.2-3.1-1.6-5.8-3.8-7.6c1.3-1.1,2.9-1.8,4.6-2c1.7-0.2,3.3,0.1,4.7,0.7c-1.5,2.3-2.2,5.1-1.6,8c0.5,2.8,2.1,5,4.2,6.6
	C146.7,48.7,144.9,49.6,142.9,49.8z M149.2,46c-1.8-1.3-3.1-3.2-3.6-5.5c-0.5-2.5,0.1-4.9,1.4-6.8c2,1.4,3.4,3.6,3.7,6.2
	C151,42.1,150.4,44.3,149.2,46z M156.1,47.5c-1.9,0.4-3.7,0.1-5.3-0.6c1.4-2.1,2.1-4.6,1.8-7.3c-0.4-3.1-2-5.6-4.3-7.3
	c1.2-1.1,2.7-2,4.5-2.3c1.6-0.3,3.3-0.1,4.7,0.4c-1.4,2.4-1.8,5.3-1.1,8.1c0.7,2.7,2.4,4.9,4.6,6.3
	C159.7,46.2,158.1,47.2,156.1,47.5z M162,43.3c-1.9-1.2-3.3-3-3.9-5.3c-0.6-2.4-0.2-4.9,1-6.9c2.1,1.3,3.6,3.3,4.1,5.9
	C163.6,39.3,163.1,41.5,162,43.3z M169,44.4c-1.9,0.5-3.7,0.3-5.4-0.3c1.2-2.2,1.8-4.7,1.3-7.4c-0.6-3-2.4-5.5-4.8-7
	c1.1-1.2,2.6-2.2,4.3-2.6c1.6-0.4,3.2-0.3,4.7,0.1c-1.2,2.5-1.5,5.4-0.5,8.2c0.9,2.7,2.8,4.7,5,5.9C172.6,42.8,171,43.9,169,44.4z
	 M174.7,39.8c-1.9-1-3.5-2.8-4.3-5c-0.8-2.4-0.6-4.8,0.5-6.9c2.1,1.1,3.8,3.1,4.5,5.6C176,35.7,175.6,37.9,174.7,39.8z M181.7,40.4
	c-1.8,0.6-3.7,0.6-5.4,0.1c1.1-2.2,1.5-4.8,0.8-7.4c-0.8-3-2.8-5.3-5.3-6.7c1-1.3,2.4-2.3,4.1-2.9c1.6-0.5,3.2-0.6,4.7-0.2
	c-1,2.5-1.1,5.4,0.1,8.2c1.1,2.6,3.1,4.5,5.4,5.6C185.1,38.5,183.6,39.7,181.7,40.4z M187.1,35.4c-2-0.9-3.7-2.5-4.6-4.7
	c-1-2.3-0.9-4.8,0-6.9c2.2,1,4,2.8,4.9,5.3C188,31.2,187.9,33.4,187.1,35.4z M194.1,35.4c-1.8,0.7-3.6,0.9-5.4,0.5
	c0.9-2.3,1.1-4.9,0.3-7.5c-1-2.9-3.1-5.1-5.7-6.3c0.9-1.4,2.2-2.5,3.9-3.2c1.5-0.6,3.2-0.8,4.7-0.6c-0.8,2.6-0.7,5.5,0.6,8.1
	c1.3,2.5,3.4,4.3,5.8,5.2C197.4,33.3,196,34.7,194.1,35.4z M199.1,30.1c-2.1-0.7-3.9-2.2-4.9-4.4c-1.1-2.2-1.2-4.7-0.5-6.9
	c2.3,0.8,4.2,2.5,5.2,4.9C199.8,25.8,199.8,28.1,199.1,30.1z M206.1,29.7c-1.7,0.9-3.6,1.1-5.3,0.9c0.8-2.4,0.8-5-0.3-7.5
	c-1.2-2.8-3.5-4.9-6.1-5.9c0.8-1.4,2.1-2.7,3.7-3.5c1.5-0.8,3.1-1,4.7-0.9c-0.7,2.6-0.3,5.5,1.2,8.1c1.4,2.4,3.7,4,6.2,4.8
	C209.3,27.3,207.9,28.8,206.1,29.7z M210.7,24c-2.1-0.6-4-2-5.2-4c-1.3-2.2-1.5-4.6-1-6.9c2.3,0.7,4.4,2.2,5.6,4.5
	C211.1,19.7,211.3,21.9,210.7,24z M217.7,23.1c-1.6,1-3.5,1.4-5.2,1.2c0.6-2.4,0.4-5-0.8-7.4c-1.4-2.7-3.8-4.6-6.5-5.4
	c0.7-1.5,1.9-2.8,3.4-3.7c1.4-0.9,3-1.2,4.6-1.2c-0.5,2.7,0.1,5.6,1.8,8c1.6,2.3,3.9,3.7,6.5,4.3C220.7,20.5,219.4,22,217.7,23.1z
	 M221.9,17.1c-2.2-0.4-4.2-1.7-5.5-3.6c-1.4-2.1-1.9-4.5-1.4-6.8c2.4,0.5,4.5,1.9,5.9,4.1C222,12.8,222.3,15,221.9,17.1z M217,0
	c-1.6,1.3-2.7,2.9-3.4,4.7c-2-0.1-4.1,0.4-6,1.5c-2,1.2-3.4,2.9-4.3,4.9c-2-0.2-4.1,0.1-6.1,1.1c-2.1,1-3.6,2.7-4.6,4.6
	c-2-0.4-4.1-0.2-6.2,0.6c-2.1,0.9-3.8,2.4-4.9,4.2c-2-0.5-4.1-0.5-6.2,0.2c-2.2,0.7-4,2.1-5.2,3.9c-1.9-0.6-4.1-0.8-6.2-0.2
	c-2.2,0.6-4.1,1.8-5.5,3.5c-1.9-0.8-4-1.1-6.1-0.6c-2.3,0.4-4.2,1.6-5.7,3.1c-1.8-0.9-3.9-1.3-6.1-1.1c-2.3,0.3-4.3,1.3-5.9,2.7
	c-1.7-1-3.8-1.6-6-1.5c-2.3,0.1-4.4,1-6.1,2.3c-1.7-1.2-3.7-1.9-5.9-1.9c-2.3-0.1-4.4,0.6-6.2,1.9c-1.6-1.3-3.5-2.1-5.7-2.3
	c-2.3-0.2-4.5,0.3-6.3,1.4c-1.5-1.4-3.4-2.4-5.6-2.7c-2.3-0.4-4.5,0-6.4,1c-1.4-1.5-3.2-2.6-5.3-3.1c-2.2-0.5-4.5-0.3-6.5,0.5
	c-1.3-1.6-3-2.8-5.1-3.5c-2.2-0.7-4.4-0.6-6.5,0.1c-1.2-1.7-2.8-3-4.9-3.8c-2.1-0.8-4.4-0.9-6.5-0.4c-1.1-1.7-2.6-3.2-4.6-4.1
	c-2.1-1-4.3-1.2-6.4-0.8c-0.9-1.8-2.4-3.4-4.3-4.4c-2-1.1-4.2-1.5-6.4-1.3c-0.8-1.9-2.1-3.5-4-4.7c-1.9-1.3-4.1-1.8-6.3-1.7
	c-0.1-0.2-0.1-0.4-0.1-0.6c0-0.3-0.4-0.9-0.9-1.5l-1.5,0.8c0.3,0.5,0.6,1,0.8,1.5c-2.7,0.6-5.1,2.2-6.7,4.6c-1.5,2.3-2,5.1-1.6,7.6
	c-1.9,0-3.7-0.6-5.3-1.8c-1.3-1-2.2-2.2-2.7-3.5L0,11.7c0.7,1.6,1.8,3,3.2,4.1c2.1,1.6,4.5,2.2,6.9,2.1c0.8,2.2,2.2,4.1,4.2,5.5
	c2.2,1.4,4.6,1.9,7,1.6c0.9,2.1,2.4,4,4.6,5.2c2.3,1.3,4.8,1.6,7.1,1.2c1,2,2.7,3.8,4.9,4.8c2.3,1.1,4.9,1.2,7.2,0.6
	c1.2,2,3,3.6,5.3,4.5c2.4,0.9,4.9,0.9,7.2,0.1c1.3,1.9,3.2,3.4,5.6,4.1c2.5,0.8,5,0.5,7.2-0.4c1.4,1.8,3.4,3.1,5.8,3.7
	c2.5,0.6,5,0.2,7.2-0.9c1.6,1.7,3.6,2.9,6.1,3.3c2.5,0.4,5-0.2,7.1-1.4c1.7,1.6,3.8,2.6,6.3,2.8c2.6,0.2,5-0.5,7-1.8
	c1.8,1.4,4,2.3,6.5,2.4c2.6,0.1,4.9-0.8,6.8-2.3c1.9,1.3,4.2,2.1,6.6,1.9c2.6-0.1,4.9-1.2,6.6-2.8c2,1.2,4.3,1.8,6.7,1.5
	c2.6-0.3,4.8-1.5,6.4-3.3c2,1,4.4,1.5,6.8,1c2.5-0.5,4.7-1.9,6.2-3.7c2.1,0.9,4.5,1.1,6.9,0.5c2.5-0.7,4.5-2.2,5.9-4.1
	c2.2,0.7,4.6,0.8,6.9,0c2.4-0.8,4.4-2.5,5.6-4.5c2.2,0.6,4.6,0.5,6.9-0.4c2.4-1,4.2-2.8,5.3-4.9c2.2,0.4,4.6,0.2,6.8-0.9
	c2.3-1.2,4-3.1,4.9-5.3c2.3,0.3,4.6-0.1,6.8-1.4c2.2-1.3,3.7-3.3,4.6-5.6c2.3,0.1,4.6-0.5,6.6-1.9c1-0.7,1.8-1.5,2.5-2.5l-1.3-1.3
	c-0.6,0.9-1.3,1.6-2.2,2.3c-1.6,1.1-3.4,1.6-5.1,1.6c0.4-2.5,0.1-5.1-1.3-7.4c-1.6-2.6-4.1-4.3-6.9-5c0.6-1.4,1.5-2.7,2.8-3.7"/>
<circle class="st1" cx="122.3" cy="133.7" r="78.4"/>
<circle class="st2" cx="122.3" cy="133.7" r="70.3"/>
<path class="st1" d="M131.5,60.1c0,5.2-3,9.3-6.6,9.3h-5.3c-3.7,0-6.6-4.2-6.6-9.3V32.2c0-5.2,3-9.3,6.6-9.3h5.3
	c3.7,0,6.6,4.2,6.6,9.3V60.1z"/>
<g>
	<rect x="72" y="83.2" class="st3" width="100.6" height="49.6"/>
	<path class="st4" d="M106.5,83.2V85h-3v8.3h-2.1V85h-3v-1.8H106.5z"/>
	<path class="st4" d="M113.5,83.2h2.4l-3.4,6.3v3.8h-2.1v-3.8l-3.5-6.3h2.5l2.1,4.4L113.5,83.2z"/>
	<path class="st4" d="M123.9,88.9c-0.6,0.5-1.4,0.7-2.5,0.7h-2.1v3.6h-2.1V83.2h4.3c1,0,1.8,0.3,2.4,0.8c0.6,0.5,0.9,1.3,0.9,2.4
		C124.7,87.6,124.5,88.4,123.9,88.9z M122.3,85.3c-0.3-0.2-0.6-0.3-1.1-0.3h-1.9v3h1.9c0.5,0,0.9-0.1,1.1-0.4
		c0.3-0.2,0.4-0.6,0.4-1.1S122.5,85.5,122.3,85.3z"/>
	<path class="st4" d="M133.9,85h-5.3v2.1h4.9v1.8h-4.9v2.6h5.6v1.8h-7.6V83.2h7.4V85z"/>
	<path class="st4" d="M139.6,86.4v-1.3c0.6,0,1-0.1,1.3-0.1c0.4-0.1,0.7-0.3,1-0.5c0.2-0.2,0.3-0.4,0.4-0.7c0-0.2,0.1-0.3,0.1-0.4
		h1.6v9.9h-2v-6.8H139.6z"/>
	<path class="st4" d="M93.8,104.4c0.7,0.2,1.3,0.7,1.7,1.3c0.4,0.5,0.6,1,0.7,1.6c0.1,0.6,0.2,1.1,0.2,1.7c0,1.3-0.3,2.5-0.8,3.4
		c-0.7,1.3-1.9,1.9-3.4,1.9h-4.3v-10.1h4.3C92.9,104.2,93.4,104.3,93.8,104.4z M90,105.9v6.6h1.9c1,0,1.7-0.5,2.1-1.5
		c0.2-0.5,0.3-1.2,0.3-1.9c0-1-0.2-1.8-0.5-2.4c-0.3-0.5-1-0.8-1.9-0.8H90z"/>
	<path class="st4" d="M100,114.3h-2.1v-10.1h2.1V114.3z"/>
	<path class="st4" d="M104.8,104.2h2.4l3.6,10.1h-2.3l-0.7-2.1h-3.7l-0.7,2.1h-2.2L104.8,104.2z M104.7,110.5h2.6l-1.3-4
		L104.7,110.5z"/>
	<path class="st4" d="M119.6,105.3c0.3,0.4,0.5,0.9,0.5,1.5c0,0.6-0.2,1.1-0.5,1.5c-0.2,0.2-0.4,0.4-0.8,0.6
		c0.5,0.2,0.9,0.5,1.2,0.9c0.3,0.4,0.4,0.9,0.4,1.5c0,0.6-0.1,1.1-0.4,1.6c-0.2,0.3-0.4,0.6-0.7,0.8c-0.3,0.2-0.7,0.4-1.1,0.5
		c-0.4,0.1-0.9,0.1-1.4,0.1h-4.5v-10.1h4.9C118.2,104.2,119,104.6,119.6,105.3z M114.1,105.9v2.2h2.4c0.4,0,0.8-0.1,1.1-0.2
		s0.4-0.5,0.4-0.9c0-0.5-0.2-0.8-0.5-0.9c-0.3-0.1-0.7-0.2-1.2-0.2H114.1z M114.1,109.8v2.7h2.4c0.4,0,0.8-0.1,1-0.2
		c0.4-0.2,0.7-0.6,0.7-1.3c0-0.5-0.2-0.9-0.6-1.1c-0.2-0.1-0.6-0.2-1-0.2H114.1z"/>
	<path class="st4" d="M129.6,106h-5.3v2.1h4.9v1.8h-4.9v2.6h5.6v1.8h-7.6v-10.1h7.4V106z"/>
	<path class="st4" d="M138.8,104.2v1.8h-3v8.3h-2.1V106h-3v-1.8H138.8z"/>
	<path class="st4" d="M147.5,106h-5.3v2.1h4.9v1.8h-4.9v2.6h5.6v1.8h-7.6v-10.1h7.4V106z"/>
	<path class="st4" d="M150.9,111.2c0.1,0.5,0.2,0.8,0.4,1c0.3,0.4,0.9,0.6,1.8,0.6c0.5,0,0.9-0.1,1.2-0.2c0.6-0.2,0.9-0.6,0.9-1.2
		c0-0.3-0.1-0.6-0.4-0.8c-0.3-0.2-0.8-0.3-1.4-0.5l-1.1-0.2c-1.1-0.2-1.8-0.5-2.2-0.8c-0.7-0.5-1-1.2-1-2.2c0-0.9,0.3-1.7,1-2.2
		c0.7-0.6,1.6-0.9,2.9-0.9c1.1,0,2,0.3,2.8,0.8c0.8,0.6,1.2,1.4,1.2,2.5h-2c0-0.6-0.3-1-0.8-1.3c-0.3-0.2-0.8-0.3-1.3-0.3
		c-0.6,0-1,0.1-1.3,0.3c-0.3,0.2-0.5,0.5-0.5,0.9c0,0.4,0.2,0.6,0.5,0.8c0.2,0.1,0.7,0.3,1.3,0.4l1.8,0.4c0.8,0.2,1.4,0.4,1.7,0.7
		c0.6,0.5,0.9,1.2,0.9,2.1c0,0.9-0.4,1.7-1.1,2.3c-0.7,0.6-1.7,0.9-3,0.9c-1.3,0-2.4-0.3-3.1-0.9s-1.1-1.4-1.1-2.5H150.9z"/>
</g>
<g>
</g>
<g>
</g>
<g>
</g>
<g>
</g>
<g>
</g>
<g>
</g>
</svg>
