<?xml version="1.0" encoding="utf-8"?>
<!-- Generator: Adobe Illustrator 19.1.0, SVG Export Plug-In . SVG Version: 6.00 Build 0)  -->
<svg version="1.1" id="Layer_1" xmlns="http://www.w3.org/2000/svg" xmlns:xlink="http://www.w3.org/1999/xlink" x="0px" y="0px"
	 viewBox="0 0 483 343.8" style="enable-background:new 0 0 483 343.8;" xml:space="preserve">
<style type="text/css">
	.st0{fill:#ECECEC;stroke:#1D1D1B;stroke-width:0.25;stroke-miterlimit:10;}
	.st1{fill:none;stroke:#1D1D1B;stroke-miterlimit:10;}
	.st2{fill:#FFFFFF;stroke:#1D1D1B;stroke-miterlimit:10;}
	.st3{fill:#ECECEC;stroke:#1D1D1B;stroke-miterlimit:10;}
	.st4{fill:#FFFFFF;stroke:#1D1D1B;stroke-width:0.25;stroke-miterlimit:10;}
	.st5{fill:#FFFFFF;stroke:#1D1D1B;stroke-width:0.5;stroke-miterlimit:10;}
	.st6{fill:none;stroke:#3A50A2;stroke-width:2;stroke-miterlimit:10;}
	.st7{fill:none;stroke:#3A50A2;stroke-width:2;stroke-miterlimit:10;stroke-dasharray:4.8161,4.8161;}
	.st8{fill:none;stroke:#3A50A2;stroke-width:2;stroke-miterlimit:10;stroke-dasharray:5.1023,5.1023;}
	.st9{fill:none;stroke:#3A50A2;stroke-width:2;stroke-miterlimit:10;stroke-dasharray:6.072,6.072;}
	.st10{fill:none;stroke:#3A50A2;stroke-width:2;stroke-miterlimit:10;stroke-dasharray:6.0729,6.0729;}
	.st11{fill:none;stroke:#3A50A2;stroke-width:2;stroke-miterlimit:10;stroke-dasharray:4.8028,4.8028;}
	.st12{fill:none;stroke:#3A50A2;stroke-width:2;stroke-miterlimit:10;stroke-dasharray:5.8319,5.8319;}
	.st13{fill:none;stroke:#3A50A2;stroke-width:2;stroke-miterlimit:10;stroke-dasharray:5.8143,5.8143;}
	.st14{fill:none;stroke:#3A50A2;stroke-width:2;stroke-miterlimit:10;stroke-dasharray:4.812,4.812;}
	.st15{fill:none;stroke:#3A50A2;stroke-width:2;stroke-miterlimit:10;stroke-dasharray:6.0842,6.0842;}
	.st16{fill:none;stroke:#3A50A2;stroke-width:2;stroke-miterlimit:10;stroke-dasharray:6.084,6.084;}
	.st17{fill:none;stroke:#3A50A2;stroke-width:2;stroke-miterlimit:10;stroke-dasharray:4.9764,4.9764;}
	.st18{fill:none;stroke:#3A50A2;stroke-width:2;stroke-miterlimit:10;stroke-dasharray:5.0427,5.0427;}
	.st19{fill:none;stroke:#3A50A2;stroke-miterlimit:10;stroke-dasharray:3;}
	.st20{fill:none;stroke:#3A50A2;stroke-width:2;stroke-linejoin:round;stroke-miterlimit:10;stroke-dasharray:5;}
	.st21{fill:#3A50A2;}
	.st22{fill:#FFFFFF;stroke:#1D1D1B;stroke-width:0.7667;stroke-miterlimit:10;}
	.st23{fill:#FFFFFF;}
	.st24{fill:#1D1D1B;}
</style>
<circle class="st0" cx="364.9" cy="189.1" r="4.8"/>
<line class="st1" x1="483" y1="320.5" x2="0" y2="320.5"/>
<ellipse class="st2" cx="56" cy="338.4" rx="29.8" ry="4.9"/>
<g>
	<path class="st3" d="M178.5,121.2c0,0-0.1,0-0.2,0c-1,0-1.8,0-2.7,0c-4.6-0.1-8-3.6-8-8.2c0-22,0-43.9,0-65.9
		c0-4.6,3.5-8.2,8.2-8.2c3.4,0,6.8,0,10.2,0c19.7,0,39.3,0,59,0c5.6,0,8.9,3.3,8.9,8.9c0,21.5-0.1,43,0.1,64.4c0,5.6-4.3,9.5-9.1,9
		c-0.6-0.1-1.1,0-1.9,0H178.5 M177.8,66.3c0,9.3,0,18.4,0,27.7c-1,0-2,0-2.9,0c0,1.3,0,2.4,0,3.7c1,0,1.9,0,3,0c0,4.5,0,8.8,0,13.2
		c22,0,43.8,0,65.6,0c0-20.6,0-41,0-61.4c-21.9,0-43.7,0-65.6,0c0,4.4,0,8.8,0,13.2c-1.1,0-2,0.1-3,0.1c0,1.2,0,2.3,0,3.6
		C175.9,66.3,176.8,66.3,177.8,66.3z"/>
	<path class="st4" d="M177.8,66.3c-1,0-1.9,0-2.9,0c0-1.3,0-2.4,0-3.6c1,0,2-0.1,3-0.1c0-4.4,0-8.8,0-13.2c21.9,0,43.7,0,65.6,0
		c0,20.4,0,40.9,0,61.4c-21.8,0-43.6,0-65.6,0c0-4.4,0-8.7,0-13.2c-1.1,0-2,0-3,0c0-1.3,0-2.4,0-3.7c1,0,1.9,0,2.9,0
		C177.8,84.7,177.8,75.6,177.8,66.3z M180.5,66.3c0,9.2,0,18.4,0,27.6c1,0,1.9,0,2.8,0c0,1.3,0,2.5,0,3.7c-1,0-1.9,0-2.8,0
		c0,3.7,0,7.2,0,10.8c20.2,0,40.3,0,60.5,0c0-19,0-37.9,0-56.7c-20.2,0-40.3,0-60.5,0c0,3.7,0,7.2,0,10.9c1,0,1.9,0.1,2.9,0.1
		c0,0.6,0,1.2,0,1.8c0,0.6,0,1.1,0,1.8C182.3,66.3,181.5,66.3,180.5,66.3z"/>
	<path class="st0" d="M180.5,66.3c1,0,1.9,0,2.9,0c0-0.7,0-1.2,0-1.8c0-0.6,0-1.1,0-1.8c-1,0-1.9-0.1-2.9-0.1c0-3.6,0-7.2,0-10.9
		c20.1,0,40.2,0,60.5,0c0,18.9,0,37.8,0,56.7c-20.1,0-40.2,0-60.5,0c0-3.6,0-7.1,0-10.8c0.9,0,1.8,0,2.8,0c0-1.3,0-2.4,0-3.7
		c-0.9,0-1.8,0-2.8,0C180.5,84.7,180.5,75.5,180.5,66.3z M228.3,85.8c3.3,0,6-2.6,6-5.7c0-3.1-2.8-5.8-6-5.7c-3.3,0-6,2.7-6,5.8
		C222.3,83.3,225,85.8,228.3,85.8z"/>
	<path class="st5" d="M228.3,85.8c-3.3,0-6-2.5-6-5.7c0-3.1,2.7-5.7,6-5.8c3.2,0,6,2.6,6,5.7C234.3,83.2,231.6,85.8,228.3,85.8z"/>
</g>
<g>
	<g>
		<g>
			<g>
				<path class="st6" d="M205.9,131.5c0.7-0.4,1.4-0.8,2.1-1.4c0.1,0.1,0.3,0.1,0.4,0.2c0.5,0.4,1.1,0.8,1.7,1.2"/>
				<path class="st7" d="M214.6,133c5.5,0.6,11-2.4,11.6-6.8c0.2-1.2,1.2-1.2,2.3-1.2c8.1,0,16.2,0,24.3,0c0.9,0,2.1,0.4,2.8,0.9
					c4.8,3.5,11.7,3.3,15.6-0.5c3.9-3.7,2.8-9-2.3-12c-0.7-0.4-1.3-1.3-1.3-2c-0.1-5.6,0-11.2-0.1-16.8c0-1.2,0.5-1.6,2-1.9
					c3.9-0.8,6.4-2.9,7.4-6c0.5-1.7,0.4-3.1-0.3-4.5"/>
				<path class="st6" d="M275.3,80.4c-0.5-0.6-1.1-1.2-1.8-1.7c0.7-0.6,1.2-1.2,1.7-1.8"/>
				<path class="st8" d="M277.2,72.3c0.2-3.4-2.6-6.4-8.3-8c-0.7-0.2-1.3-1.2-1.3-1.9c-0.1-5.1-0.1-10.1,0-15.2
					c0-0.8,0.7-1.8,1.6-2.3c3.6-2.3,5.2-5.6,4-9c-1-3-4.7-5.5-8.5-5.8c-4.7-0.4-8.6,1.1-10.7,4.4c-0.7,1.1-1.5,1.4-2.8,1.3
					c-4.9,0-9.8,0-14.6,0c-1.6,0-3.2,0-4.8,0"/>
				<path class="st6" d="M229.3,35.8c-0.8,0-1.7,0-2.5,0c-0.2-0.9-0.5-1.6-0.8-2.4"/>
				<path class="st9" d="M221.7,29.2c-2.7-1.4-6-1.7-8.9-0.9"/>
				<path class="st6" d="M210.1,29.3c-0.7,0.4-1.4,0.9-2,1.4c-0.7-0.5-1.5-0.9-2.2-1.2"/>
				<path class="st10" d="M200.1,27.8c-3.2-0.2-5.9,0.9-8.1,3.3"/>
				<path class="st6" d="M190.2,33.6c-0.4,0.7-0.8,1.4-1.1,2.2c-0.8,0-1.7,0-2.5,0"/>
				<path class="st11" d="M181.8,35.8c-4.5,0-8.9,0-13.4-0.1c-0.6,0-1.4-0.7-1.8-1.3c-2.4-3.3-6.5-4.9-11.2-4.3
					c-4,0.5-7.4,3.2-8.2,6.5c-0.9,3.4,1,6.8,5.1,8.5c1.4,0.6,1.6,1.3,1.6,2.3c0,3.7,0,7.4,0,11.1c0,0.2,0,0.3,0,0.5"/>
				<path class="st6" d="M153.8,61.5c0,0.8,0,1.7,0,2.5c-0.9,0.1-1.7,0.2-2.5,0.4"/>
				<path class="st12" d="M146,66.7c-0.9,0.8-1.6,1.7-2.2,2.9c-0.8,1.8-0.8,3.4-0.2,5"/>
				<path class="st6" d="M145.3,77c0.5,0.6,1.1,1.2,1.8,1.7c-0.7,0.5-1.3,1.1-1.9,1.7"/>
				<path class="st13" d="M143.3,85.7c0.1,0.7,0.3,1.4,0.6,2.2c0.9,2,2.5,3.4,4.6,4.3"/>
				<path class="st6" d="M151.3,93c0.8,0.2,1.6,0.3,2.5,0.4c0,0.8,0,1.7,0,2.5"/>
				<path class="st14" d="M153.8,100.7c0,3.4,0,6.8,0,10.2c0,1.1-0.3,1.8-1.7,2.4c-5.2,2.3-6.7,7.4-3.6,11.3c3,3.8,9.8,5.3,14.2,2.5
					c3-1.9,5.9-2,9.3-2c4.1,0,8.2,0,12.3,0"/>
				<path class="st6" d="M186.7,125.1c0.8,0,1.7,0,2.5,0c0.1,0.8,0.4,1.6,0.8,2.4"/>
				<path class="st15" d="M194.2,131.8c2.6,1.4,5.8,1.7,8.9,0.9"/>
			</g>
		</g>
	</g>
	<g>
		<g>
			<g>
				<path class="st6" d="M210.1,131.6c-0.6-0.3-1.1-0.7-1.7-1.2c-0.1-0.1-0.3-0.1-0.4-0.2c-0.7,0.5-1.4,1-2.1,1.4"/>
				<path class="st16" d="M200.1,133.1c-3.2,0.1-6.3-1.1-8.3-3.1"/>
				<path class="st6" d="M190,127.5c-0.4-0.7-0.6-1.5-0.8-2.4c-0.8,0-1.6,0-2.5,0"/>
				<path class="st14" d="M181.9,125.1c-3.3,0-6.6,0-9.9,0c-3.4,0-6.3,0.1-9.3,2c-4.4,2.8-11.2,1.4-14.2-2.5
					c-3.1-3.9-1.6-9,3.6-11.3c1.4-0.6,1.7-1.3,1.7-2.4c0-4.2,0-8.4,0-12.6"/>
				<path class="st6" d="M153.8,95.9c0-0.8,0-1.7,0-2.5c-0.9-0.1-1.7-0.2-2.5-0.4"/>
				<path class="st13" d="M146.1,90.7c-0.9-0.8-1.6-1.7-2.1-2.8c-0.8-1.8-0.9-3.5-0.3-5"/>
				<path class="st6" d="M145.2,80.4c0.5-0.6,1.1-1.1,1.9-1.7c-0.7-0.5-1.3-1.1-1.8-1.7"/>
				<path class="st12" d="M143.3,71.7c0.1-0.7,0.3-1.4,0.6-2.1c0.9-2.1,2.5-3.5,4.6-4.4"/>
				<path class="st6" d="M151.3,64.4c0.8-0.2,1.6-0.3,2.5-0.4c0-0.8,0-1.7,0-2.5"/>
				<path class="st11" d="M153.8,56.7c0-3.1,0-6.1,0-9.2c0-1-0.2-1.7-1.6-2.3c-4.1-1.7-5.9-5.1-5.1-8.5c0.8-3.3,4.2-6,8.2-6.5
					c4.8-0.6,8.8,1,11.2,4.3c0.4,0.5,1.2,1.2,1.8,1.3c5.3,0.1,10.6,0.1,15.8,0.1"/>
				<path class="st6" d="M186.6,35.8c0.8,0,1.7,0,2.5,0c0.3-0.8,0.7-1.6,1.1-2.2"/>
				<path class="st10" d="M194.3,29.2c2.5-1.5,5.5-1.8,8.8-0.8"/>
				<path class="st6" d="M205.9,29.5c0.7,0.4,1.4,0.8,2.2,1.2c0.6-0.6,1.3-1,2-1.4"/>
				<path class="st9" d="M215.9,27.8c3,0,6.1,0.9,8.3,3.1"/>
				<path class="st6" d="M225.9,33.5c0.4,0.7,0.6,1.5,0.8,2.4c0.8,0,1.7,0,2.5,0"/>
				<path class="st8" d="M234.4,35.8c0.7,0,1.5,0,2.2,0c4.9,0,9.8,0,14.6,0c1.4,0,2.2-0.3,2.8-1.3c2.1-3.3,5.9-4.8,10.7-4.4
					c3.8,0.3,7.4,2.8,8.5,5.8c1.2,3.4-0.4,6.7-4,9c-0.8,0.5-1.5,1.5-1.6,2.3c-0.1,5.1-0.1,10.1,0,15.2c0,0.6,0.7,1.7,1.3,1.9
					c7,2,9.7,6,7.6,10.5"/>
				<path class="st6" d="M275.2,76.9c-0.5,0.6-1.1,1.2-1.7,1.8c0.7,0.5,1.3,1.1,1.8,1.7"/>
				<path class="st7" d="M277.2,84.7c0,0.7-0.1,1.4-0.3,2.2c-1,3.1-3.5,5.2-7.4,6c-1.5,0.3-2,0.7-2,1.9c0.1,5.6,0,11.2,0.1,16.8
					c0,0.7,0.6,1.6,1.3,2c5.1,3,6.2,8.2,2.3,12c-3.9,3.8-10.8,4-15.6,0.5c-0.7-0.5-1.8-0.9-2.8-0.9c-8.1-0.1-16.2,0-24.3,0
					c-1.1,0-2.1-0.1-2.3,1.2c-0.8,5-7.9,8.2-14,6.3"/>
			</g>
			<g>
				<path class="st6" d="M255.5,47.7c0-0.8,0-1.7,0-2.5c-0.8,0-1.7,0-2.5,0"/>
				<path class="st17" d="M248,45.2c-25.8,0-51.4,0-77.1,0"/>
				<path class="st6" d="M168.4,45.2c-0.8,0-1.7,0-2.5,0c0,0.8,0,1.7,0,2.5"/>
				<path class="st18" d="M165.9,52.7c0,19.4,0,38.7,0,58"/>
				<path class="st6" d="M165.9,113.2c0,0.8,0,1.7,0,2.5c0.8,0,1.7,0,2.5,0"/>
				<path class="st17" d="M173.3,115.7c25.8,0,51.4,0,77.1,0"/>
				<path class="st6" d="M253,115.7c0.8,0,1.7,0,2.5,0c0-0.8,0-1.7,0-2.5"/>
				<path class="st18" d="M255.5,108.2c0-19.4,0-38.7,0-58"/>
			</g>
		</g>
	</g>
</g>
<circle class="st19" cx="232.5" cy="63.2" r="6.9"/>
<polygon class="st19" points="170.8,109.7 170.8,60.8 201.7,100.3 201.7,68.8 249.4,109.7 "/>
<g>
	<path class="st20" d="M178.2,35.4l24.8-30.5c3-3.6,8-3.8,11.1-0.3l28.2,30.6"/>
</g>
<circle class="st21" cx="208.5" cy="1.2" r="1.2"/>
<g>
	<g>
		<line class="st22" x1="228.3" y1="80.2" x2="228.3" y2="85.2"/>
		<line class="st22" x1="228.3" y1="80.2" x2="231.2" y2="84.3"/>
		<line class="st22" x1="228.3" y1="80.2" x2="233" y2="81.8"/>
		<line class="st22" x1="228.3" y1="80.2" x2="233" y2="78.7"/>
		<line class="st22" x1="228.3" y1="80.2" x2="231.2" y2="76.1"/>
		<line class="st22" x1="228.3" y1="80.2" x2="228.3" y2="75.2"/>
		<line class="st22" x1="228.3" y1="80.2" x2="225.3" y2="76.1"/>
		<line class="st22" x1="228.3" y1="80.2" x2="223.5" y2="78.7"/>
		<line class="st22" x1="228.3" y1="80.2" x2="223.5" y2="81.8"/>
		<line class="st22" x1="228.3" y1="80.2" x2="225.3" y2="84.3"/>
	</g>
	<circle class="st23" cx="228.3" cy="80.3" r="2.8"/>
</g>
<rect x="54.3" y="162.3" class="st2" width="4.6" height="176"/>
<path class="st24" d="M40,118.8h31l13.8,48.1c0,0-2.2,5.8-27.5,5.2c-25.3-0.6-28.7-5.2-28.7-5.2L40,118.8z"/>
<rect x="347" y="64.5" class="st1" width="120" height="256"/>
<path class="st24" d="M369.8,190.1c0,0,15.1,0.4,16,0s0.8-5-1-4.8c-2.2,0.3-15.5,1.8-15.5,1.8"/>
<path class="st24" d="M369.3,187.1c0,0-3.5-0.1-4.8,0.6c-1.1,0.6-1.8,2.5,1,2.5c2.2,0,6.3-0.1,6.3-0.1"/>
<g>
</g>
<g>
</g>
<g>
</g>
<g>
</g>
<g>
</g>
<g>
</g>
</svg>
