<?xml version="1.0" encoding="utf-8"?>
<!-- Generator: Adobe Illustrator 19.1.0, SVG Export Plug-In . SVG Version: 6.00 Build 0)  -->
<svg version="1.1" preserveAspectRatio="xMinYMid" id="Layer_1" xmlns="http://www.w3.org/2000/svg" xmlns:xlink="http://www.w3.org/1999/xlink" x="0px" y="0px"
	 viewBox="0 0 250.2 340.9" style="enable-background:new 0 0 250.2 340.9;" xml:space="preserve">
<style type="text/css">
	.st0{fill:none;stroke:#1D1D1B;stroke-width:2;stroke-miterlimit:10;}
	.st1{fill:#1D1D1B;}
	.st2{fill:none;}
	.st3{fill:none;stroke:#1D1D1B;stroke-width:0.5;stroke-miterlimit:10;}
	.st4{fill:#3A50A2;}
</style>
<polygon class="st0" points="242.2,1 249.2,114.2 249.2,225.2 243.2,339.9 2.1,339.9 8.1,226 8.1,114.6 1.1,1 "/>
<g>
	<path class="st1" d="M210.5,47.7c3.1,3.5,1.9,6.3-2.8,6.3h-43c-4.7,0-6-2.9-2.8-6.3l18.4-20.6c3.1-3.5,8.2-3.5,11.4-0.1L210.5,47.7
		z"/>
</g>
<g>
	<rect x="27.8" y="137.8" class="st2" width="195.1" height="72"/>
	<path class="st1" d="M30.1,144.8c0,0.4,0.1,0.7,0.2,1c0.2,0.5,0.7,0.7,1.3,0.7c0.4,0,0.7-0.1,1-0.4s0.4-0.6,0.4-1.1
		c0-0.7-0.3-1.1-0.8-1.3c-0.3-0.1-0.8-0.2-1.4-0.2v-1.4c0.6,0,1.1-0.1,1.3-0.2c0.4-0.2,0.6-0.6,0.6-1.2c0-0.4-0.1-0.7-0.3-0.9
		c-0.2-0.2-0.5-0.4-0.9-0.4c-0.5,0-0.8,0.1-1,0.4s-0.3,0.7-0.3,1.2h-1.8c0-0.5,0.1-1,0.3-1.4c0.2-0.4,0.4-0.7,0.8-1.1
		c0.3-0.2,0.6-0.4,0.9-0.5s0.8-0.2,1.3-0.2c0.9,0,1.7,0.2,2.3,0.7s0.9,1.1,0.9,2c0,0.6-0.2,1.1-0.5,1.5c-0.2,0.3-0.4,0.4-0.7,0.5
		c0.2,0,0.4,0.2,0.8,0.5c0.5,0.5,0.7,1.1,0.7,1.9c0,0.8-0.3,1.6-0.9,2.2c-0.6,0.6-1.4,1-2.6,1c-1.4,0-2.4-0.5-2.9-1.4
		c-0.3-0.5-0.4-1.1-0.5-1.9H30.1z"/>
	<path class="st1" d="M46.7,141.2c0.6,0.6,0.9,1.6,0.9,2.8c0,1.3-0.3,2.3-0.9,3c-0.6,0.7-1.4,1-2.3,1c-0.6,0-1.1-0.1-1.5-0.4
		c-0.2-0.2-0.4-0.4-0.6-0.7v3.9h-1.9v-10.4h1.9v1.1c0.2-0.3,0.4-0.6,0.7-0.8c0.4-0.3,1-0.5,1.6-0.5
		C45.3,140.3,46.1,140.6,46.7,141.2z M45.2,142.6c-0.3-0.4-0.7-0.7-1.3-0.7c-0.7,0-1.2,0.3-1.5,1c-0.1,0.4-0.2,0.8-0.2,1.4
		c0,0.9,0.2,1.5,0.7,1.8c0.3,0.2,0.6,0.3,1,0.3c0.5,0,1-0.2,1.3-0.6c0.3-0.4,0.4-1,0.4-1.7C45.6,143.6,45.4,143.1,45.2,142.6z"/>
	<path class="st1" d="M55.2,147c-0.6,0.8-1.6,1.2-2.9,1.2s-2.2-0.4-2.9-1.2s-0.9-1.7-0.9-2.8c0-1.1,0.3-2,0.9-2.8s1.6-1.2,2.9-1.2
		s2.2,0.4,2.9,1.2s0.9,1.7,0.9,2.8C56.1,145.3,55.8,146.2,55.2,147z M53.6,145.9c0.3-0.4,0.5-1,0.5-1.7c0-0.7-0.2-1.3-0.5-1.7
		c-0.3-0.4-0.7-0.6-1.3-0.6s-1,0.2-1.3,0.6c-0.3,0.4-0.5,1-0.5,1.7c0,0.7,0.2,1.3,0.5,1.7c0.3,0.4,0.7,0.6,1.3,0.6
		S53.3,146.3,53.6,145.9z"/>
	<path class="st1" d="M59.5,139.5h-2v-1.8h2V139.5z M57.5,140.4h2v7.5h-2V140.4z"/>
	<path class="st1" d="M67.4,140.9c0.5,0.4,0.7,1.1,0.7,2v5h-2v-4.5c0-0.4-0.1-0.7-0.2-0.9c-0.2-0.4-0.6-0.6-1.1-0.6
		c-0.7,0-1.1,0.3-1.4,0.8c-0.1,0.3-0.2,0.7-0.2,1.1v4h-1.9v-7.4h1.9v1.1c0.2-0.4,0.5-0.7,0.7-0.8c0.4-0.3,0.9-0.5,1.5-0.5
		C66.3,140.2,66.9,140.4,67.4,140.9z"/>
	<path class="st1" d="M69.2,141.9v-1.4h1v-2.1h1.9v2.1h1.2v1.4h-1.2v3.9c0,0.3,0,0.5,0.1,0.6s0.3,0.1,0.7,0.1c0.1,0,0.1,0,0.2,0
		s0.1,0,0.2,0v1.5l-0.9,0c-0.9,0-1.5-0.1-1.9-0.5c-0.2-0.2-0.3-0.6-0.3-1v-4.6H69.2z"/>
	<path class="st1" d="M76.1,145.5c0,0.3,0.1,0.6,0.3,0.7c0.2,0.3,0.7,0.4,1.3,0.4c0.4,0,0.7-0.1,0.9-0.2s0.3-0.3,0.3-0.5
		c0-0.2-0.1-0.4-0.3-0.5s-0.9-0.3-2-0.6c-0.8-0.2-1.4-0.5-1.8-0.8c-0.3-0.3-0.5-0.8-0.5-1.3c0-0.7,0.3-1.3,0.8-1.8
		c0.5-0.5,1.3-0.7,2.3-0.7c0.9,0,1.7,0.2,2.3,0.6c0.6,0.4,0.9,1,1,1.9h-1.9c0-0.3-0.1-0.4-0.2-0.6c-0.2-0.3-0.6-0.4-1.1-0.4
		c-0.4,0-0.7,0.1-0.9,0.2c-0.2,0.1-0.3,0.3-0.3,0.5c0,0.2,0.1,0.4,0.3,0.5c0.2,0.1,0.9,0.3,2,0.5c0.8,0.2,1.4,0.5,1.7,0.8
		c0.4,0.4,0.6,0.8,0.6,1.4c0,0.7-0.3,1.3-0.8,1.8c-0.6,0.5-1.4,0.7-2.6,0.7c-1.2,0-2-0.2-2.6-0.7c-0.6-0.5-0.8-1.1-0.8-1.9H76.1z"/>
	<path class="st1" d="M91.6,140.5c0.4,0.2,0.7,0.4,0.9,0.7c0.2,0.3,0.3,0.6,0.4,0.9c0,0.3,0.1,0.8,0.1,1.4v4.4h-2v-4.5
		c0-0.4-0.1-0.7-0.2-1c-0.2-0.3-0.5-0.5-1-0.5c-0.5,0-0.9,0.2-1.2,0.5c-0.3,0.3-0.4,0.8-0.4,1.5v4h-1.9v-10h1.9v3.6
		c0.3-0.4,0.6-0.7,1-0.9c0.4-0.2,0.8-0.3,1.2-0.3C90.8,140.2,91.3,140.3,91.6,140.5z"/>
	<path class="st1" d="M97.8,143.3c0.4,0,0.6-0.1,0.8-0.2c0.3-0.1,0.4-0.3,0.4-0.6c0-0.3-0.1-0.5-0.3-0.6s-0.5-0.2-0.9-0.2
		c-0.5,0-0.8,0.1-1,0.3c-0.1,0.2-0.2,0.4-0.3,0.7h-1.9c0-0.7,0.2-1.2,0.5-1.6c0.5-0.7,1.4-1,2.7-1c0.8,0,1.5,0.2,2.2,0.5
		s1,0.9,1,1.8v3.4c0,0.2,0,0.5,0,0.9c0,0.3,0.1,0.4,0.1,0.5s0.2,0.2,0.3,0.2v0.3h-2.1c-0.1-0.2-0.1-0.3-0.1-0.4s0-0.3-0.1-0.5
		c-0.3,0.3-0.6,0.5-0.9,0.7c-0.4,0.2-0.9,0.4-1.4,0.4c-0.7,0-1.2-0.2-1.7-0.6s-0.7-0.9-0.7-1.6c0-0.9,0.4-1.6,1.1-2
		c0.4-0.2,1-0.4,1.7-0.5L97.8,143.3z M99,144.3c-0.1,0.1-0.3,0.1-0.4,0.2s-0.3,0.1-0.5,0.1l-0.4,0.1c-0.4,0.1-0.7,0.2-0.9,0.3
		c-0.3,0.2-0.5,0.5-0.5,0.8c0,0.3,0.1,0.6,0.3,0.7c0.2,0.1,0.4,0.2,0.7,0.2c0.4,0,0.8-0.1,1.2-0.4c0.4-0.2,0.5-0.7,0.6-1.3V144.3z"
		/>
	<path class="st1" d="M107.2,140.4h2.1l-2.7,7.5h-2.1l-2.7-7.5h2.2l1.6,5.5L107.2,140.4z"/>
	<path class="st1" d="M115.3,140.6c0.5,0.2,0.9,0.6,1.3,1.1c0.3,0.4,0.5,1,0.6,1.5c0.1,0.3,0.1,0.8,0.1,1.5h-5.4
		c0,0.7,0.3,1.3,0.8,1.6c0.3,0.2,0.7,0.3,1.1,0.3c0.4,0,0.8-0.1,1.1-0.3c0.2-0.1,0.3-0.3,0.4-0.5h2c-0.1,0.4-0.3,0.9-0.7,1.3
		c-0.7,0.7-1.6,1.1-2.8,1.1c-1,0-1.9-0.3-2.6-0.9c-0.8-0.6-1.1-1.6-1.1-3c0-1.3,0.3-2.3,1-3c0.7-0.7,1.6-1,2.7-1
		C114.2,140.2,114.7,140.3,115.3,140.6z M112.3,142.3c-0.3,0.3-0.4,0.7-0.5,1.2h3.4c0-0.5-0.2-0.9-0.5-1.2c-0.3-0.3-0.7-0.4-1.2-0.4
		C113,141.8,112.6,142,112.3,142.3z"/>
	<path class="st1" d="M128.4,141.3c0.6,0.7,0.8,1.6,0.8,2.7c0,1.2-0.3,2.1-0.8,2.9c-0.5,0.8-1.3,1.1-2.3,1.1c-0.6,0-1.1-0.1-1.5-0.4
		c-0.2-0.1-0.5-0.4-0.7-0.8v0.9H122v-10.1h1.9v3.6c0.2-0.3,0.5-0.6,0.8-0.8c0.4-0.2,0.8-0.3,1.3-0.3
		C127.1,140.3,127.9,140.6,128.4,141.3z M126.8,145.9c0.3-0.4,0.4-0.9,0.4-1.6c0-0.5-0.1-1-0.2-1.3c-0.3-0.7-0.7-1-1.4-1
		c-0.7,0-1.2,0.3-1.5,1c-0.1,0.3-0.2,0.8-0.2,1.3c0,0.6,0.1,1.2,0.4,1.6c0.3,0.4,0.7,0.6,1.3,0.6
		C126.1,146.5,126.5,146.3,126.8,145.9z"/>
	<path class="st1" d="M135.5,140.6c0.5,0.2,0.9,0.6,1.3,1.1c0.3,0.4,0.5,1,0.6,1.5c0.1,0.3,0.1,0.8,0.1,1.5H132
		c0,0.7,0.3,1.3,0.8,1.6c0.3,0.2,0.7,0.3,1.1,0.3c0.4,0,0.8-0.1,1.1-0.3c0.2-0.1,0.3-0.3,0.4-0.5h2c-0.1,0.4-0.3,0.9-0.7,1.3
		c-0.7,0.7-1.6,1.1-2.8,1.1c-1,0-1.9-0.3-2.6-0.9c-0.8-0.6-1.1-1.6-1.1-3c0-1.3,0.3-2.3,1-3c0.7-0.7,1.6-1,2.7-1
		C134.4,140.2,135,140.3,135.5,140.6z M132.6,142.3c-0.3,0.3-0.4,0.7-0.5,1.2h3.4c0-0.5-0.2-0.9-0.5-1.2c-0.3-0.3-0.7-0.4-1.2-0.4
		C133.2,141.8,132.8,142,132.6,142.3z"/>
	<path class="st1" d="M143.3,140.6c0.5,0.2,0.9,0.6,1.3,1.1c0.3,0.4,0.5,1,0.6,1.5c0.1,0.3,0.1,0.8,0.1,1.5h-5.4
		c0,0.7,0.3,1.3,0.8,1.6c0.3,0.2,0.7,0.3,1.1,0.3c0.4,0,0.8-0.1,1.1-0.3c0.2-0.1,0.3-0.3,0.4-0.5h2c-0.1,0.4-0.3,0.9-0.7,1.3
		c-0.7,0.7-1.6,1.1-2.8,1.1c-1,0-1.9-0.3-2.6-0.9c-0.8-0.6-1.1-1.6-1.1-3c0-1.3,0.3-2.3,1-3c0.7-0.7,1.6-1,2.7-1
		C142.2,140.2,142.8,140.3,143.3,140.6z M140.4,142.3c-0.3,0.3-0.4,0.7-0.5,1.2h3.4c0-0.5-0.2-0.9-0.5-1.2c-0.3-0.3-0.7-0.4-1.2-0.4
		C141,141.8,140.6,142,140.4,142.3z"/>
	<path class="st1" d="M152.2,140.9c0.5,0.4,0.7,1.1,0.7,2v5h-2v-4.5c0-0.4-0.1-0.7-0.2-0.9c-0.2-0.4-0.6-0.6-1.1-0.6
		c-0.7,0-1.1,0.3-1.3,0.8c-0.1,0.3-0.2,0.7-0.2,1.1v4h-1.9v-7.4h1.9v1.1c0.2-0.4,0.5-0.7,0.7-0.8c0.4-0.3,0.9-0.5,1.5-0.5
		C151.1,140.2,151.7,140.4,152.2,140.9z"/>
	<path class="st1" d="M161.6,143.3c0.4,0,0.6-0.1,0.8-0.2c0.3-0.1,0.4-0.3,0.4-0.6c0-0.3-0.1-0.5-0.3-0.6s-0.5-0.2-0.9-0.2
		c-0.5,0-0.8,0.1-1,0.3c-0.1,0.2-0.2,0.4-0.3,0.7h-1.9c0-0.7,0.2-1.2,0.5-1.6c0.5-0.7,1.4-1,2.7-1c0.8,0,1.5,0.2,2.2,0.5
		c0.6,0.3,1,0.9,1,1.8v3.4c0,0.2,0,0.5,0,0.9c0,0.3,0.1,0.4,0.1,0.5s0.2,0.2,0.3,0.2v0.3H163c-0.1-0.2-0.1-0.3-0.1-0.4
		s0-0.3-0.1-0.5c-0.3,0.3-0.6,0.5-0.9,0.7c-0.4,0.2-0.9,0.4-1.4,0.4c-0.7,0-1.2-0.2-1.7-0.6s-0.7-0.9-0.7-1.6c0-0.9,0.4-1.6,1.1-2
		c0.4-0.2,1-0.4,1.7-0.5L161.6,143.3z M162.8,144.3c-0.1,0.1-0.3,0.1-0.4,0.2s-0.3,0.1-0.5,0.1l-0.4,0.1c-0.4,0.1-0.7,0.2-0.9,0.3
		c-0.3,0.2-0.5,0.5-0.5,0.8c0,0.3,0.1,0.6,0.3,0.7s0.4,0.2,0.7,0.2c0.4,0,0.8-0.1,1.2-0.4c0.4-0.2,0.5-0.7,0.6-1.3V144.3z"/>
	<path class="st1" d="M170.4,140.5c0.4,0.2,0.6,0.5,0.9,0.8v-3.6h2v10.1h-1.9v-1c-0.3,0.4-0.6,0.8-1,1s-0.8,0.3-1.3,0.3
		c-0.9,0-1.6-0.4-2.2-1.1c-0.6-0.7-0.9-1.6-0.9-2.7c0-1.3,0.3-2.3,0.9-3c0.6-0.7,1.4-1.1,2.3-1.1C169.6,140.2,170,140.3,170.4,140.5
		z M170.9,145.9c0.3-0.4,0.4-0.9,0.4-1.6c0-0.9-0.2-1.6-0.7-2c-0.3-0.2-0.6-0.4-1-0.4c-0.6,0-1,0.2-1.3,0.6c-0.3,0.4-0.4,1-0.4,1.6
		c0,0.7,0.1,1.2,0.4,1.7c0.3,0.4,0.7,0.6,1.2,0.6S170.6,146.3,170.9,145.9z"/>
	<path class="st1" d="M178.9,140.5c0.4,0.2,0.6,0.5,0.9,0.8v-3.6h2v10.1h-1.9v-1c-0.3,0.4-0.6,0.8-1,1s-0.8,0.3-1.3,0.3
		c-0.9,0-1.6-0.4-2.2-1.1c-0.6-0.7-0.9-1.6-0.9-2.7c0-1.3,0.3-2.3,0.9-3c0.6-0.7,1.4-1.1,2.3-1.1
		C178.2,140.2,178.6,140.3,178.9,140.5z M179.4,145.9c0.3-0.4,0.4-0.9,0.4-1.6c0-0.9-0.2-1.6-0.7-2c-0.3-0.2-0.6-0.4-1-0.4
		c-0.6,0-1,0.2-1.3,0.6c-0.3,0.4-0.4,1-0.4,1.6c0,0.7,0.1,1.2,0.4,1.7c0.3,0.4,0.7,0.6,1.2,0.6S179.1,146.3,179.4,145.9z"/>
	<path class="st1" d="M188.4,140.6c0.5,0.2,0.9,0.6,1.3,1.1c0.3,0.4,0.5,1,0.6,1.5c0.1,0.3,0.1,0.8,0.1,1.5h-5.4
		c0,0.7,0.3,1.3,0.8,1.6c0.3,0.2,0.7,0.3,1.1,0.3c0.4,0,0.8-0.1,1.1-0.3c0.2-0.1,0.3-0.3,0.4-0.5h2c-0.1,0.4-0.3,0.9-0.7,1.3
		c-0.7,0.7-1.6,1.1-2.8,1.1c-1,0-1.9-0.3-2.6-0.9c-0.8-0.6-1.1-1.6-1.1-3c0-1.3,0.3-2.3,1-3c0.7-0.7,1.6-1,2.7-1
		C187.3,140.2,187.9,140.3,188.4,140.6z M185.5,142.3c-0.3,0.3-0.4,0.7-0.5,1.2h3.4c0-0.5-0.2-0.9-0.5-1.2c-0.3-0.3-0.7-0.4-1.2-0.4
		C186.1,141.8,185.7,142,185.5,142.3z"/>
	<path class="st1" d="M195.3,140.5c0.4,0.2,0.6,0.5,0.9,0.8v-3.6h2v10.1h-1.9v-1c-0.3,0.4-0.6,0.8-1,1s-0.8,0.3-1.3,0.3
		c-0.9,0-1.6-0.4-2.2-1.1c-0.6-0.7-0.9-1.6-0.9-2.7c0-1.3,0.3-2.3,0.9-3c0.6-0.7,1.4-1.1,2.3-1.1
		C194.5,140.2,194.9,140.3,195.3,140.5z M195.7,145.9c0.3-0.4,0.4-0.9,0.4-1.6c0-0.9-0.2-1.6-0.7-2c-0.3-0.2-0.6-0.4-1-0.4
		c-0.6,0-1,0.2-1.3,0.6c-0.3,0.4-0.4,1-0.4,1.6c0,0.7,0.1,1.2,0.4,1.7c0.3,0.4,0.7,0.6,1.2,0.6S195.5,146.3,195.7,145.9z"/>
	<path class="st1" d="M203,141.9v-1.4h1v-2.1h1.9v2.1h1.2v1.4H206v3.9c0,0.3,0,0.5,0.1,0.6s0.3,0.1,0.7,0.1c0.1,0,0.1,0,0.2,0
		c0.1,0,0.1,0,0.2,0v1.5l-0.9,0c-0.9,0-1.5-0.1-1.9-0.5c-0.2-0.2-0.3-0.6-0.3-1v-4.6H203z"/>
	<path class="st1" d="M214.6,147c-0.6,0.8-1.6,1.2-2.9,1.2s-2.2-0.4-2.9-1.2s-0.9-1.7-0.9-2.8c0-1.1,0.3-2,0.9-2.8s1.6-1.2,2.9-1.2
		s2.2,0.4,2.9,1.2s0.9,1.7,0.9,2.8C215.6,145.3,215.3,146.2,214.6,147z M213.1,145.9c0.3-0.4,0.5-1,0.5-1.7c0-0.7-0.2-1.3-0.5-1.7
		c-0.3-0.4-0.7-0.6-1.3-0.6s-1,0.2-1.3,0.6c-0.3,0.4-0.5,1-0.5,1.7c0,0.7,0.2,1.3,0.5,1.7c0.3,0.4,0.7,0.6,1.3,0.6
		S212.8,146.3,213.1,145.9z"/>
	<path class="st1" d="M29,166.1l0.2,0c0.2,0,0.4,0,0.5,0s0.3-0.1,0.4-0.2c0.1-0.1,0.2-0.2,0.3-0.5s0.1-0.4,0.1-0.5l-2.7-7.8h2.2
		l1.6,5.5l1.5-5.5h2.1l-2.6,7.3c-0.5,1.4-0.9,2.3-1.2,2.6s-0.9,0.5-1.7,0.5c-0.2,0-0.3,0-0.4,0s-0.3,0-0.5,0V166.1z"/>
	<path class="st1" d="M42.7,163.8c-0.6,0.8-1.6,1.2-2.9,1.2s-2.2-0.4-2.9-1.2S36,162.1,36,161c0-1.1,0.3-2,0.9-2.8s1.6-1.2,2.9-1.2
		s2.2,0.4,2.9,1.2s0.9,1.7,0.9,2.8C43.7,162.1,43.3,163,42.7,163.8z M41.2,162.7c0.3-0.4,0.5-1,0.5-1.7c0-0.7-0.2-1.3-0.5-1.7
		c-0.3-0.4-0.7-0.6-1.3-0.6s-1,0.2-1.3,0.6c-0.3,0.4-0.5,1-0.5,1.7c0,0.7,0.2,1.3,0.5,1.7c0.3,0.4,0.7,0.6,1.3,0.6
		S40.9,163.1,41.2,162.7z"/>
	<path class="st1" d="M47,157.2v4.5c0,0.4,0,0.7,0.1,1c0.2,0.4,0.5,0.6,1,0.6c0.7,0,1.1-0.3,1.4-0.8c0.1-0.3,0.2-0.7,0.2-1.2v-4.1h2
		v7.5h-1.9v-1.1c0,0-0.1,0.1-0.1,0.2s-0.2,0.2-0.3,0.3c-0.3,0.3-0.6,0.5-0.9,0.6c-0.3,0.1-0.6,0.2-1,0.2c-1.1,0-1.8-0.4-2.2-1.2
		c-0.2-0.4-0.3-1.1-0.3-1.9v-4.5H47z"/>
	<path class="st1" d="M57.7,157.1c0,0,0.1,0,0.2,0v2c-0.1,0-0.2,0-0.3,0s-0.2,0-0.2,0c-0.8,0-1.3,0.3-1.6,0.8
		c-0.2,0.3-0.2,0.7-0.2,1.3v3.6h-2v-7.5h1.9v1.3c0.3-0.5,0.6-0.8,0.8-1C56.6,157.2,57.1,157,57.7,157.1
		C57.7,157,57.7,157,57.7,157.1z"/>
	<path class="st1" d="M64.9,164.7H63v-10.1h1.9V164.7z"/>
	<path class="st1" d="M68.8,156.3h-2v-1.8h2V156.3z M66.9,157.2h2v7.5h-2V157.2z"/>
	<path class="st1" d="M75.2,159.9c0-0.3-0.1-0.5-0.3-0.8c-0.2-0.3-0.6-0.5-1-0.5c-0.7,0-1.1,0.3-1.4,1c-0.1,0.3-0.2,0.8-0.2,1.4
		c0,0.5,0.1,1,0.2,1.3c0.2,0.6,0.7,0.9,1.3,0.9c0.5,0,0.8-0.1,1-0.4s0.3-0.6,0.3-1h2c0,0.6-0.3,1.2-0.6,1.7
		c-0.6,0.9-1.5,1.3-2.7,1.3s-2.1-0.4-2.6-1.1c-0.6-0.7-0.8-1.6-0.8-2.8c0-1.3,0.3-2.3,0.9-3s1.5-1.1,2.6-1.1c0.9,0,1.7,0.2,2.3,0.6
		s0.9,1.2,1.1,2.2H75.2z"/>
	<path class="st1" d="M83.4,157.4c0.5,0.2,0.9,0.6,1.3,1.1c0.3,0.4,0.5,1,0.6,1.5c0.1,0.3,0.1,0.8,0.1,1.5h-5.4
		c0,0.7,0.3,1.3,0.8,1.6c0.3,0.2,0.7,0.3,1.1,0.3c0.4,0,0.8-0.1,1.1-0.3c0.2-0.1,0.3-0.3,0.4-0.5h2c-0.1,0.4-0.3,0.9-0.7,1.3
		c-0.7,0.7-1.6,1.1-2.8,1.1c-1,0-1.9-0.3-2.6-0.9c-0.8-0.6-1.1-1.6-1.1-3c0-1.3,0.3-2.3,1-3c0.7-0.7,1.6-1,2.7-1
		C82.3,157,82.8,157.1,83.4,157.4z M80.5,159.1c-0.3,0.3-0.4,0.7-0.5,1.2h3.4c0-0.5-0.2-0.9-0.5-1.2c-0.3-0.3-0.7-0.4-1.2-0.4
		C81.1,158.6,80.7,158.8,80.5,159.1z"/>
	<path class="st1" d="M92.3,157.7c0.5,0.4,0.7,1.1,0.7,2v5h-2v-4.5c0-0.4-0.1-0.7-0.2-0.9c-0.2-0.4-0.6-0.6-1.1-0.6
		c-0.7,0-1.1,0.3-1.4,0.8c-0.1,0.3-0.2,0.7-0.2,1.1v4h-1.9v-7.4h1.9v1.1c0.2-0.4,0.5-0.7,0.7-0.8c0.4-0.3,0.9-0.5,1.5-0.5
		C91.2,157,91.8,157.2,92.3,157.7z"/>
	<path class="st1" d="M99.3,159.9c0-0.3-0.1-0.5-0.3-0.8c-0.2-0.3-0.6-0.5-1-0.5c-0.7,0-1.1,0.3-1.4,1c-0.1,0.3-0.2,0.8-0.2,1.4
		c0,0.5,0.1,1,0.2,1.3c0.2,0.6,0.7,0.9,1.3,0.9c0.5,0,0.8-0.1,1-0.4s0.3-0.6,0.3-1h2c0,0.6-0.3,1.2-0.6,1.7
		c-0.6,0.9-1.5,1.3-2.7,1.3s-2.1-0.4-2.6-1.1c-0.6-0.7-0.8-1.6-0.8-2.8c0-1.3,0.3-2.3,0.9-3s1.5-1.1,2.6-1.1c0.9,0,1.7,0.2,2.3,0.6
		s0.9,1.2,1.1,2.2H99.3z"/>
	<path class="st1" d="M107.5,157.4c0.5,0.2,0.9,0.6,1.3,1.1c0.3,0.4,0.5,1,0.6,1.5c0.1,0.3,0.1,0.8,0.1,1.5H104
		c0,0.7,0.3,1.3,0.8,1.6c0.3,0.2,0.7,0.3,1.1,0.3c0.4,0,0.8-0.1,1.1-0.3c0.2-0.1,0.3-0.3,0.4-0.5h2c-0.1,0.4-0.3,0.9-0.7,1.3
		c-0.7,0.7-1.6,1.1-2.8,1.1c-1,0-1.9-0.3-2.6-0.9c-0.8-0.6-1.1-1.6-1.1-3c0-1.3,0.3-2.3,1-3c0.7-0.7,1.6-1,2.7-1
		C106.4,157,107,157.1,107.5,157.4z M104.6,159.1c-0.3,0.3-0.4,0.7-0.5,1.2h3.4c0-0.5-0.2-0.9-0.5-1.2c-0.3-0.3-0.7-0.4-1.2-0.4
		C105.2,158.6,104.9,158.8,104.6,159.1z"/>
	<path class="st1" d="M117.4,154.5c0.1,0,0.2,0,0.4,0v1.6c-0.1,0-0.3,0-0.6,0c-0.3,0-0.4,0.1-0.5,0.2c-0.1,0.1-0.1,0.3-0.1,0.4
		s0,0.4,0,0.6h1.3v1.4h-1.3v6h-1.9v-6h-1.1v-1.4h1.1v-0.5c0-0.8,0.1-1.3,0.4-1.6c0.3-0.4,1-0.7,2-0.7
		C117.2,154.5,117.3,154.5,117.4,154.5z"/>
	<path class="st1" d="M125.2,163.8c-0.6,0.8-1.6,1.2-2.9,1.2s-2.2-0.4-2.9-1.2s-0.9-1.7-0.9-2.8c0-1.1,0.3-2,0.9-2.8
		s1.6-1.2,2.9-1.2s2.2,0.4,2.9,1.2s0.9,1.7,0.9,2.8C126.1,162.1,125.8,163,125.2,163.8z M123.6,162.7c0.3-0.4,0.5-1,0.5-1.7
		c0-0.7-0.2-1.3-0.5-1.7c-0.3-0.4-0.7-0.6-1.3-0.6s-1,0.2-1.3,0.6c-0.3,0.4-0.5,1-0.5,1.7c0,0.7,0.2,1.3,0.5,1.7
		c0.3,0.4,0.7,0.6,1.3,0.6S123.3,163.1,123.6,162.7z"/>
	<path class="st1" d="M131.7,157.1c0,0,0.1,0,0.2,0v2c-0.1,0-0.2,0-0.3,0s-0.2,0-0.2,0c-0.8,0-1.3,0.3-1.6,0.8
		c-0.2,0.3-0.2,0.7-0.2,1.3v3.6h-2v-7.5h1.9v1.3c0.3-0.5,0.6-0.8,0.8-1C130.5,157.2,131,157,131.7,157.1
		C131.6,157,131.6,157,131.7,157.1z"/>
	<path class="st1" d="M137.2,166.1l0.2,0c0.2,0,0.4,0,0.5,0s0.3-0.1,0.4-0.2c0.1-0.1,0.2-0.2,0.3-0.5c0.1-0.2,0.1-0.4,0.1-0.5
		l-2.7-7.8h2.2l1.6,5.5l1.5-5.5h2.1l-2.6,7.3c-0.5,1.4-0.9,2.3-1.2,2.6s-0.9,0.5-1.7,0.5c-0.2,0-0.3,0-0.4,0c-0.1,0-0.3,0-0.5,0
		V166.1z"/>
	<path class="st1" d="M150.9,163.8c-0.6,0.8-1.6,1.2-2.9,1.2s-2.2-0.4-2.9-1.2s-0.9-1.7-0.9-2.8c0-1.1,0.3-2,0.9-2.8
		s1.6-1.2,2.9-1.2s2.2,0.4,2.9,1.2s0.9,1.7,0.9,2.8C151.8,162.1,151.5,163,150.9,163.8z M149.3,162.7c0.3-0.4,0.5-1,0.5-1.7
		c0-0.7-0.2-1.3-0.5-1.7c-0.3-0.4-0.7-0.6-1.3-0.6s-1,0.2-1.3,0.6c-0.3,0.4-0.5,1-0.5,1.7c0,0.7,0.2,1.3,0.5,1.7
		c0.3,0.4,0.7,0.6,1.3,0.6S149,163.1,149.3,162.7z"/>
	<path class="st1" d="M155.1,157.2v4.5c0,0.4,0,0.7,0.1,1c0.2,0.4,0.5,0.6,1,0.6c0.7,0,1.1-0.3,1.4-0.8c0.1-0.3,0.2-0.7,0.2-1.2
		v-4.1h2v7.5H158v-1.1c0,0-0.1,0.1-0.1,0.2c-0.1,0.1-0.2,0.2-0.3,0.3c-0.3,0.3-0.6,0.5-0.9,0.6s-0.6,0.2-1,0.2
		c-1.1,0-1.8-0.4-2.2-1.2c-0.2-0.4-0.3-1.1-0.3-1.9v-4.5H155.1z"/>
	<path class="st1" d="M165.9,157.1c0,0,0.1,0,0.2,0v2c-0.1,0-0.2,0-0.3,0s-0.2,0-0.2,0c-0.8,0-1.3,0.3-1.6,0.8
		c-0.2,0.3-0.2,0.7-0.2,1.3v3.6h-2v-7.5h1.9v1.3c0.3-0.5,0.6-0.8,0.8-1C164.7,157.2,165.2,157,165.9,157.1
		C165.8,157,165.9,157,165.9,157.1z"/>
	<path class="st1" d="M175.2,157.1c0,0,0.1,0,0.2,0v2c-0.1,0-0.2,0-0.3,0s-0.2,0-0.2,0c-0.8,0-1.3,0.3-1.6,0.8
		c-0.2,0.3-0.2,0.7-0.2,1.3v3.6h-2v-7.5h1.9v1.3c0.3-0.5,0.6-0.8,0.8-1C174.1,157.2,174.6,157,175.2,157.1
		C175.2,157,175.2,157,175.2,157.1z"/>
	<path class="st1" d="M182.8,163.8c-0.6,0.8-1.6,1.2-2.9,1.2s-2.2-0.4-2.9-1.2s-0.9-1.7-0.9-2.8c0-1.1,0.3-2,0.9-2.8
		s1.6-1.2,2.9-1.2s2.2,0.4,2.9,1.2s0.9,1.7,0.9,2.8C183.7,162.1,183.4,163,182.8,163.8z M181.2,162.7c0.3-0.4,0.5-1,0.5-1.7
		c0-0.7-0.2-1.3-0.5-1.7c-0.3-0.4-0.7-0.6-1.3-0.6s-1,0.2-1.3,0.6c-0.3,0.4-0.5,1-0.5,1.7c0,0.7,0.2,1.3,0.5,1.7
		c0.3,0.4,0.7,0.6,1.3,0.6S180.9,163.1,181.2,162.7z"/>
	<path class="st1" d="M188,160.1c0.4,0,0.6-0.1,0.8-0.2c0.3-0.1,0.4-0.3,0.4-0.6c0-0.3-0.1-0.5-0.3-0.6s-0.5-0.2-0.9-0.2
		c-0.5,0-0.8,0.1-1,0.3c-0.1,0.2-0.2,0.4-0.3,0.7h-1.9c0-0.7,0.2-1.2,0.5-1.6c0.5-0.7,1.4-1,2.7-1c0.8,0,1.5,0.2,2.2,0.5
		c0.6,0.3,1,0.9,1,1.8v3.4c0,0.2,0,0.5,0,0.9c0,0.3,0.1,0.4,0.1,0.5s0.2,0.2,0.3,0.2v0.3h-2.1c-0.1-0.2-0.1-0.3-0.1-0.4
		s0-0.3-0.1-0.5c-0.3,0.3-0.6,0.5-0.9,0.7c-0.4,0.2-0.9,0.4-1.4,0.4c-0.7,0-1.2-0.2-1.7-0.6s-0.7-0.9-0.7-1.6c0-0.9,0.4-1.6,1.1-2
		c0.4-0.2,1-0.4,1.7-0.5L188,160.1z M189.2,161.1c-0.1,0.1-0.3,0.1-0.4,0.2s-0.3,0.1-0.5,0.1l-0.4,0.1c-0.4,0.1-0.7,0.2-0.9,0.3
		c-0.3,0.2-0.5,0.5-0.5,0.8c0,0.3,0.1,0.6,0.3,0.7s0.4,0.2,0.7,0.2c0.4,0,0.8-0.1,1.2-0.4c0.4-0.2,0.5-0.7,0.6-1.3V161.1z"/>
	<path class="st1" d="M196.8,157.3c0.4,0.2,0.6,0.5,0.9,0.8v-3.6h2v10.1h-1.9v-1c-0.3,0.4-0.6,0.8-1,1s-0.8,0.3-1.3,0.3
		c-0.9,0-1.6-0.4-2.2-1.1c-0.6-0.7-0.9-1.6-0.9-2.7c0-1.3,0.3-2.3,0.9-3c0.6-0.7,1.4-1.1,2.3-1.1C196.1,157,196.5,157.1,196.8,157.3
		z M197.3,162.7c0.3-0.4,0.4-0.9,0.4-1.6c0-0.9-0.2-1.6-0.7-2c-0.3-0.2-0.6-0.4-1-0.4c-0.6,0-1,0.2-1.3,0.6c-0.3,0.4-0.4,1-0.4,1.6
		c0,0.7,0.1,1.2,0.4,1.7c0.3,0.4,0.7,0.6,1.2,0.6S197,163.1,197.3,162.7z"/>
	<path class="st1" d="M28,175.5v-1.4h1V172h1.9v2.1h1.2v1.4h-1.2v3.9c0,0.3,0,0.5,0.1,0.6c0.1,0.1,0.3,0.1,0.7,0.1
		c0.1,0,0.1,0,0.2,0c0.1,0,0.1,0,0.2,0v1.5l-0.9,0c-0.9,0-1.5-0.1-1.9-0.5c-0.2-0.2-0.3-0.6-0.3-1v-4.6H28z"/>
	<path class="st1" d="M37.5,173.9c0,0,0.1,0,0.2,0v2c-0.1,0-0.2,0-0.3,0s-0.2,0-0.2,0c-0.8,0-1.3,0.3-1.6,0.8
		c-0.2,0.3-0.2,0.7-0.2,1.3v3.6h-2V174h1.9v1.3c0.3-0.5,0.6-0.8,0.8-1C36.4,174,36.8,173.8,37.5,173.9
		C37.5,173.8,37.5,173.8,37.5,173.9z"/>
	<path class="st1" d="M41.8,176.9c0.4,0,0.6-0.1,0.8-0.2c0.3-0.1,0.4-0.3,0.4-0.6c0-0.3-0.1-0.5-0.3-0.6c-0.2-0.1-0.5-0.2-0.9-0.2
		c-0.5,0-0.8,0.1-1,0.3c-0.1,0.2-0.2,0.4-0.3,0.7h-1.9c0-0.7,0.2-1.2,0.5-1.6c0.5-0.7,1.4-1,2.7-1c0.8,0,1.5,0.2,2.2,0.5
		s1,0.9,1,1.8v3.4c0,0.2,0,0.5,0,0.9c0,0.3,0.1,0.4,0.1,0.5s0.2,0.2,0.3,0.2v0.3h-2.1c-0.1-0.2-0.1-0.3-0.1-0.4s0-0.3-0.1-0.5
		c-0.3,0.3-0.6,0.5-0.9,0.7c-0.4,0.2-0.9,0.4-1.4,0.4c-0.7,0-1.2-0.2-1.7-0.6c-0.4-0.4-0.7-0.9-0.7-1.6c0-0.9,0.4-1.6,1.1-2
		c0.4-0.2,1-0.4,1.7-0.5L41.8,176.9z M43,177.9c-0.1,0.1-0.3,0.1-0.4,0.2c-0.1,0-0.3,0.1-0.5,0.1l-0.4,0.1c-0.4,0.1-0.7,0.2-0.9,0.3
		c-0.3,0.2-0.5,0.5-0.5,0.8c0,0.3,0.1,0.6,0.3,0.7c0.2,0.1,0.4,0.2,0.7,0.2c0.4,0,0.8-0.1,1.2-0.4c0.4-0.2,0.5-0.7,0.6-1.3V177.9z"
		/>
	<path class="st1" d="M49.7,171.3c0.1,0,0.2,0,0.4,0v1.6c-0.1,0-0.3,0-0.6,0c-0.3,0-0.4,0.1-0.5,0.2c-0.1,0.1-0.1,0.3-0.1,0.4
		s0,0.4,0,0.6h1.3v1.4h-1.3v6h-1.9v-6h-1.1v-1.4h1.1v-0.5c0-0.8,0.1-1.3,0.4-1.6c0.3-0.4,1-0.7,2-0.7
		C49.5,171.3,49.6,171.3,49.7,171.3z"/>
	<path class="st1" d="M54.4,171.3c0.1,0,0.2,0,0.4,0v1.6c-0.1,0-0.3,0-0.6,0c-0.3,0-0.4,0.1-0.5,0.2c-0.1,0.1-0.1,0.3-0.1,0.4
		s0,0.4,0,0.6h1.3v1.4h-1.3v6h-1.9v-6h-1.1v-1.4h1.1v-0.5c0-0.8,0.1-1.3,0.4-1.6c0.3-0.4,1-0.7,2-0.7
		C54.1,171.3,54.3,171.3,54.4,171.3z"/>
	<path class="st1" d="M57.9,173.1h-2v-1.8h2V173.1z M56,174h2v7.5h-2V174z"/>
	<path class="st1" d="M64.3,176.7c0-0.3-0.1-0.5-0.3-0.8c-0.2-0.3-0.6-0.5-1-0.5c-0.7,0-1.1,0.3-1.4,1c-0.1,0.3-0.2,0.8-0.2,1.4
		c0,0.5,0.1,1,0.2,1.3c0.2,0.6,0.7,0.9,1.3,0.9c0.5,0,0.8-0.1,1-0.4c0.2-0.2,0.3-0.6,0.3-1h2c0,0.6-0.3,1.2-0.6,1.7
		c-0.6,0.9-1.5,1.3-2.7,1.3c-1.2,0-2.1-0.4-2.6-1.1c-0.6-0.7-0.8-1.6-0.8-2.8c0-1.3,0.3-2.3,0.9-3s1.5-1.1,2.6-1.1
		c0.9,0,1.7,0.2,2.3,0.6s0.9,1.2,1.1,2.2H64.3z"/>
	<path class="st1" d="M77.7,180.6c-0.6,0.8-1.6,1.2-2.9,1.2s-2.2-0.4-2.9-1.2c-0.6-0.8-0.9-1.7-0.9-2.8c0-1.1,0.3-2,0.9-2.8
		s1.6-1.2,2.9-1.2s2.2,0.4,2.9,1.2s0.9,1.7,0.9,2.8C78.7,178.9,78.3,179.8,77.7,180.6z M76.2,179.5c0.3-0.4,0.5-1,0.5-1.7
		c0-0.7-0.2-1.3-0.5-1.7s-0.7-0.6-1.3-0.6s-1,0.2-1.3,0.6s-0.5,1-0.5,1.7c0,0.7,0.2,1.3,0.5,1.7s0.7,0.6,1.3,0.6
		S75.9,179.9,76.2,179.5z"/>
	<path class="st1" d="M83.1,171.3c0.1,0,0.2,0,0.4,0v1.6c-0.1,0-0.3,0-0.6,0c-0.3,0-0.4,0.1-0.5,0.2c-0.1,0.1-0.1,0.3-0.1,0.4
		s0,0.4,0,0.6h1.3v1.4h-1.3v6h-1.9v-6h-1.1v-1.4h1.1v-0.5c0-0.8,0.1-1.3,0.4-1.6c0.3-0.4,1-0.7,2-0.7
		C82.9,171.3,83,171.3,83.1,171.3z"/>
	<path class="st1" d="M87.8,171.3c0.1,0,0.2,0,0.4,0v1.6c-0.1,0-0.3,0-0.6,0c-0.3,0-0.4,0.1-0.5,0.2c-0.1,0.1-0.1,0.3-0.1,0.4
		s0,0.4,0,0.6h1.3v1.4H87v6H85v-6H84v-1.4H85v-0.5c0-0.8,0.1-1.3,0.4-1.6c0.3-0.4,1-0.7,2-0.7C87.6,171.3,87.7,171.3,87.8,171.3z"/>
	<path class="st1" d="M94.2,174.2c0.5,0.2,0.9,0.6,1.3,1.1c0.3,0.4,0.5,1,0.6,1.5c0.1,0.3,0.1,0.8,0.1,1.5h-5.4
		c0,0.7,0.3,1.3,0.8,1.6c0.3,0.2,0.7,0.3,1.1,0.3c0.4,0,0.8-0.1,1.1-0.3c0.2-0.1,0.3-0.3,0.4-0.5h2c-0.1,0.4-0.3,0.9-0.7,1.3
		c-0.7,0.7-1.6,1.1-2.8,1.1c-1,0-1.9-0.3-2.6-0.9c-0.8-0.6-1.1-1.6-1.1-3c0-1.3,0.3-2.3,1-3c0.7-0.7,1.6-1,2.7-1
		C93.1,173.8,93.7,173.9,94.2,174.2z M91.3,175.9c-0.3,0.3-0.4,0.7-0.5,1.2h3.4c0-0.5-0.2-0.9-0.5-1.2s-0.7-0.4-1.2-0.4
		C92,175.4,91.6,175.6,91.3,175.9z"/>
	<path class="st1" d="M103.2,174.5c0.5,0.4,0.7,1.1,0.7,2v5h-2v-4.5c0-0.4-0.1-0.7-0.2-0.9c-0.2-0.4-0.6-0.6-1.1-0.6
		c-0.7,0-1.1,0.3-1.4,0.8c-0.1,0.3-0.2,0.7-0.2,1.1v4h-1.9V174h1.9v1.1c0.2-0.4,0.5-0.7,0.7-0.8c0.4-0.3,0.9-0.5,1.5-0.5
		C102.1,173.8,102.7,174,103.2,174.5z"/>
	<path class="st1" d="M110.2,176.7c0-0.3-0.1-0.5-0.3-0.8c-0.2-0.3-0.6-0.5-1-0.5c-0.7,0-1.1,0.3-1.4,1c-0.1,0.3-0.2,0.8-0.2,1.4
		c0,0.5,0.1,1,0.2,1.3c0.2,0.6,0.7,0.9,1.3,0.9c0.5,0,0.8-0.1,1-0.4c0.2-0.2,0.3-0.6,0.3-1h2c0,0.6-0.3,1.2-0.6,1.7
		c-0.6,0.9-1.5,1.3-2.7,1.3c-1.2,0-2.1-0.4-2.6-1.1s-0.8-1.6-0.8-2.8c0-1.3,0.3-2.3,0.9-3s1.5-1.1,2.6-1.1c0.9,0,1.7,0.2,2.3,0.6
		c0.6,0.4,0.9,1.2,1.1,2.2H110.2z"/>
	<path class="st1" d="M118.4,174.2c0.5,0.2,0.9,0.6,1.3,1.1c0.3,0.4,0.5,1,0.6,1.5c0.1,0.3,0.1,0.8,0.1,1.5h-5.4
		c0,0.7,0.3,1.3,0.8,1.6c0.3,0.2,0.7,0.3,1.1,0.3c0.4,0,0.8-0.1,1.1-0.3c0.2-0.1,0.3-0.3,0.4-0.5h2c-0.1,0.4-0.3,0.9-0.7,1.3
		c-0.7,0.7-1.6,1.1-2.8,1.1c-1,0-1.9-0.3-2.6-0.9c-0.8-0.6-1.1-1.6-1.1-3c0-1.3,0.3-2.3,1-3c0.7-0.7,1.6-1,2.7-1
		C117.3,173.8,117.8,173.9,118.4,174.2z M115.4,175.9c-0.3,0.3-0.4,0.7-0.5,1.2h3.4c0-0.5-0.2-0.9-0.5-1.2c-0.3-0.3-0.7-0.4-1.2-0.4
		C116.1,175.4,115.7,175.6,115.4,175.9z"/>
	<path class="st1" d="M131.4,180.6c-0.6,0.8-1.6,1.2-2.9,1.2c-1.3,0-2.2-0.4-2.9-1.2c-0.6-0.8-0.9-1.7-0.9-2.8c0-1.1,0.3-2,0.9-2.8
		s1.6-1.2,2.9-1.2c1.3,0,2.2,0.4,2.9,1.2s0.9,1.7,0.9,2.8C132.3,178.9,132,179.8,131.4,180.6z M129.8,179.5c0.3-0.4,0.5-1,0.5-1.7
		c0-0.7-0.2-1.3-0.5-1.7s-0.7-0.6-1.3-0.6c-0.6,0-1,0.2-1.3,0.6c-0.3,0.4-0.5,1-0.5,1.7c0,0.7,0.2,1.3,0.5,1.7
		c0.3,0.4,0.7,0.6,1.3,0.6C129.1,180.1,129.5,179.9,129.8,179.5z"/>
	<path class="st1" d="M139.7,174.5c0.5,0.4,0.7,1.1,0.7,2v5h-2v-4.5c0-0.4-0.1-0.7-0.2-0.9c-0.2-0.4-0.6-0.6-1.1-0.6
		c-0.7,0-1.1,0.3-1.3,0.8c-0.1,0.3-0.2,0.7-0.2,1.1v4h-1.9V174h1.9v1.1c0.2-0.4,0.5-0.7,0.7-0.8c0.4-0.3,0.9-0.5,1.5-0.5
		C138.6,173.8,139.3,174,139.7,174.5z"/>
	<path class="st1" d="M146.2,174.6v-1.3c0.6,0,1-0.1,1.3-0.1c0.4-0.1,0.7-0.3,1-0.5c0.2-0.2,0.3-0.4,0.4-0.7c0-0.2,0.1-0.3,0.1-0.4
		h1.6v9.9h-2v-6.8H146.2z"/>
	<path class="st1" d="M155.4,178.8c0.1,0.4,0.2,0.8,0.4,1c0.2,0.2,0.5,0.3,1,0.3c0.5,0,0.8-0.2,1.1-0.5c0.3-0.3,0.4-0.8,0.4-1.3
		c0-0.5-0.1-0.9-0.4-1.3c-0.2-0.3-0.6-0.5-1.1-0.5c-0.2,0-0.4,0-0.6,0.1c-0.3,0.1-0.5,0.3-0.7,0.6l-1.7-0.1l0.7-5.5h5.5v1.7h-4
		l-0.4,2.2c0.3-0.2,0.5-0.3,0.7-0.4c0.3-0.1,0.6-0.2,1-0.2c0.8,0,1.5,0.3,2.1,0.8c0.6,0.6,0.9,1.4,0.9,2.4c0,0.9-0.3,1.7-0.9,2.5
		c-0.6,0.7-1.5,1.1-2.6,1.1c-0.9,0-1.7-0.3-2.3-0.8s-0.9-1.2-1-2.2H155.4z"/>
	<path class="st1" d="M164,171.1h1.6l-3.9,10.4h-1.6L164,171.1z"/>
	<path class="st1" d="M171.2,172.8c0.5,0.9,0.8,2.2,0.8,3.8s-0.3,2.9-0.8,3.8c-0.5,0.9-1.4,1.3-2.7,1.3s-2.1-0.4-2.7-1.3
		c-0.5-0.9-0.8-2.1-0.8-3.8s0.3-2.9,0.8-3.8c0.5-0.9,1.4-1.3,2.7-1.3S170.7,171.9,171.2,172.8z M167.4,179.2
		c0.2,0.6,0.6,0.9,1.1,0.9s1-0.3,1.1-0.9c0.2-0.6,0.3-1.5,0.3-2.6c0-1.2-0.1-2.1-0.3-2.7c-0.2-0.6-0.6-0.9-1.1-0.9s-1,0.3-1.1,0.9
		s-0.3,1.5-0.3,2.7C167.2,177.8,167.2,178.6,167.4,179.2z"/>
	<path class="st1" d="M174.8,178.8c0.1,0.4,0.2,0.8,0.4,1c0.2,0.2,0.5,0.3,1,0.3c0.5,0,0.8-0.2,1.1-0.5c0.3-0.3,0.4-0.8,0.4-1.3
		c0-0.5-0.1-0.9-0.4-1.3c-0.2-0.3-0.6-0.5-1.1-0.5c-0.2,0-0.4,0-0.6,0.1c-0.3,0.1-0.5,0.3-0.7,0.6l-1.7-0.1l0.7-5.5h5.5v1.7h-4
		l-0.4,2.2c0.3-0.2,0.5-0.3,0.7-0.4c0.3-0.1,0.6-0.2,1-0.2c0.8,0,1.5,0.3,2.1,0.8c0.6,0.6,0.9,1.4,0.9,2.4c0,0.9-0.3,1.7-0.9,2.5
		c-0.6,0.7-1.5,1.1-2.6,1.1c-0.9,0-1.7-0.3-2.3-0.8s-0.9-1.2-1-2.2H174.8z"/>
	<path class="st1" d="M183.4,171.1h1.6l-3.9,10.4h-1.6L183.4,171.1z"/>
	<path class="st1" d="M185.2,174.6v-1.3c0.6,0,1-0.1,1.3-0.1c0.4-0.1,0.7-0.3,1-0.5c0.2-0.2,0.3-0.4,0.4-0.7c0-0.2,0.1-0.3,0.1-0.4
		h1.6v9.9h-2v-6.8H185.2z"/>
	<path class="st1" d="M194.3,178.8c0.1,0.4,0.2,0.8,0.4,1c0.2,0.2,0.5,0.3,1,0.3c0.5,0,0.8-0.2,1.1-0.5c0.3-0.3,0.4-0.8,0.4-1.3
		c0-0.5-0.1-0.9-0.4-1.3c-0.2-0.3-0.6-0.5-1.1-0.5c-0.2,0-0.4,0-0.6,0.1c-0.3,0.1-0.5,0.3-0.7,0.6l-1.7-0.1l0.7-5.5h5.5v1.7h-4
		l-0.4,2.2c0.3-0.2,0.5-0.3,0.7-0.4c0.3-0.1,0.6-0.2,1-0.2c0.8,0,1.5,0.3,2.1,0.8c0.6,0.6,0.9,1.4,0.9,2.4c0,0.9-0.3,1.7-0.9,2.5
		c-0.6,0.7-1.5,1.1-2.6,1.1c-0.9,0-1.7-0.3-2.3-0.8s-0.9-1.2-1-2.2H194.3z"/>
	<path class="st1" d="M207.5,176.9c0.4,0,0.6-0.1,0.8-0.2c0.3-0.1,0.4-0.3,0.4-0.6c0-0.3-0.1-0.5-0.3-0.6c-0.2-0.1-0.5-0.2-0.9-0.2
		c-0.5,0-0.8,0.1-1,0.3c-0.1,0.2-0.2,0.4-0.3,0.7h-1.9c0-0.7,0.2-1.2,0.5-1.6c0.5-0.7,1.4-1,2.7-1c0.8,0,1.5,0.2,2.2,0.5
		c0.6,0.3,1,0.9,1,1.8v3.4c0,0.2,0,0.5,0,0.9c0,0.3,0.1,0.4,0.1,0.5s0.2,0.2,0.3,0.2v0.3h-2.1c-0.1-0.2-0.1-0.3-0.1-0.4
		s0-0.3-0.1-0.5c-0.3,0.3-0.6,0.5-0.9,0.7c-0.4,0.2-0.9,0.4-1.4,0.4c-0.7,0-1.2-0.2-1.7-0.6c-0.4-0.4-0.7-0.9-0.7-1.6
		c0-0.9,0.4-1.6,1.1-2c0.4-0.2,1-0.4,1.7-0.5L207.5,176.9z M208.7,177.9c-0.1,0.1-0.3,0.1-0.4,0.2c-0.1,0-0.3,0.1-0.5,0.1l-0.4,0.1
		c-0.4,0.1-0.7,0.2-0.9,0.3c-0.3,0.2-0.5,0.5-0.5,0.8c0,0.3,0.1,0.6,0.3,0.7c0.2,0.1,0.4,0.2,0.7,0.2c0.4,0,0.8-0.1,1.2-0.4
		c0.4-0.2,0.5-0.7,0.6-1.3V177.9z"/>
	<path class="st1" d="M211.6,175.5v-1.4h1V172h1.9v2.1h1.2v1.4h-1.2v3.9c0,0.3,0,0.5,0.1,0.6c0.1,0.1,0.3,0.1,0.7,0.1
		c0.1,0,0.1,0,0.2,0c0.1,0,0.1,0,0.2,0v1.5l-0.9,0c-0.9,0-1.5-0.1-1.9-0.5c-0.2-0.2-0.3-0.6-0.3-1v-4.6H211.6z"/>
	<path class="st1" d="M28.8,191.4v-1.3c0.6,0,1-0.1,1.3-0.1c0.4-0.1,0.7-0.3,1-0.5c0.2-0.2,0.3-0.4,0.4-0.7c0.1-0.2,0.1-0.3,0.1-0.4
		h1.6v9.9h-2v-6.8H28.8z"/>
	<path class="st1" d="M42.1,189.6c0.5,0.9,0.8,2.2,0.8,3.8s-0.3,2.9-0.8,3.8s-1.4,1.3-2.7,1.3s-2.1-0.4-2.7-1.3s-0.8-2.1-0.8-3.8
		s0.3-2.9,0.8-3.8s1.4-1.3,2.7-1.3S41.6,188.7,42.1,189.6z M38.3,196c0.2,0.6,0.6,0.9,1.1,0.9s1-0.3,1.1-0.9
		c0.2-0.6,0.3-1.5,0.3-2.6c0-1.2-0.1-2.1-0.3-2.7s-0.6-0.9-1.1-0.9s-1,0.3-1.1,0.9s-0.3,1.5-0.3,2.7C38,194.6,38.1,195.4,38.3,196z"
		/>
	<path class="st1" d="M45,191.1H47v2H45V191.1z M45,196.2H47v2H45V196.2z"/>
	<path class="st1" d="M54.6,189.6c0.5,0.9,0.8,2.2,0.8,3.8s-0.3,2.9-0.8,3.8s-1.4,1.3-2.7,1.3s-2.1-0.4-2.7-1.3s-0.8-2.1-0.8-3.8
		s0.3-2.9,0.8-3.8s1.4-1.3,2.7-1.3S54,188.7,54.6,189.6z M50.8,196c0.2,0.6,0.6,0.9,1.1,0.9s1-0.3,1.1-0.9c0.2-0.6,0.3-1.5,0.3-2.6
		c0-1.2-0.1-2.1-0.3-2.7s-0.6-0.9-1.1-0.9s-1,0.3-1.1,0.9s-0.3,1.5-0.3,2.7C50.5,194.6,50.6,195.4,50.8,196z"/>
	<path class="st1" d="M58.1,195.6c0.1,0.4,0.2,0.8,0.4,1c0.2,0.2,0.5,0.3,1,0.3c0.5,0,0.8-0.2,1.1-0.5c0.3-0.3,0.4-0.8,0.4-1.3
		c0-0.5-0.1-0.9-0.4-1.3c-0.2-0.3-0.6-0.5-1.1-0.5c-0.2,0-0.4,0-0.6,0.1c-0.3,0.1-0.5,0.3-0.7,0.6l-1.7-0.1l0.7-5.5h5.5v1.7h-4
		l-0.4,2.2c0.3-0.2,0.5-0.3,0.7-0.4c0.3-0.1,0.6-0.2,1-0.2c0.8,0,1.5,0.3,2.1,0.8s0.9,1.4,0.9,2.4c0,0.9-0.3,1.7-0.9,2.5
		c-0.6,0.7-1.5,1.1-2.6,1.1c-0.9,0-1.7-0.3-2.3-0.8s-0.9-1.2-1-2.2H58.1z"/>
	<path class="st1" d="M74.6,197.4c-0.6,0.8-1.6,1.2-2.9,1.2s-2.2-0.4-2.9-1.2c-0.6-0.8-0.9-1.7-0.9-2.8c0-1.1,0.3-2,0.9-2.8
		s1.6-1.2,2.9-1.2s2.2,0.4,2.9,1.2s0.9,1.7,0.9,2.8C75.6,195.7,75.3,196.6,74.6,197.4z M73.1,196.3c0.3-0.4,0.5-1,0.5-1.7
		s-0.2-1.3-0.5-1.7c-0.3-0.4-0.7-0.6-1.3-0.6s-1,0.2-1.3,0.6c-0.3,0.4-0.5,1-0.5,1.7s0.2,1.3,0.5,1.7c0.3,0.4,0.7,0.6,1.3,0.6
		S72.8,196.7,73.1,196.3z"/>
	<path class="st1" d="M83,191.3c0.5,0.4,0.7,1.1,0.7,2v5h-2v-4.5c0-0.4-0.1-0.7-0.2-0.9c-0.2-0.4-0.6-0.6-1.1-0.6
		c-0.7,0-1.1,0.3-1.4,0.8c-0.1,0.3-0.2,0.7-0.2,1.1v4H77v-7.4h1.9v1.1c0.2-0.4,0.5-0.7,0.7-0.8c0.4-0.3,0.9-0.5,1.5-0.5
		C81.9,190.6,82.5,190.8,83,191.3z"/>
	<path class="st1" d="M97.3,197.4c-0.8,0.8-1.9,1.2-3.3,1.2s-2.5-0.4-3.3-1.2c-1-1-1.5-2.3-1.5-4.2c0-1.8,0.5-3.2,1.5-4.2
		c0.8-0.8,1.9-1.2,3.3-1.2s2.5,0.4,3.3,1.2c1,0.9,1.5,2.3,1.5,4.2C98.8,195,98.3,196.4,97.3,197.4z M96,195.8
		c0.5-0.6,0.7-1.5,0.7-2.6c0-1.1-0.2-2-0.7-2.6c-0.5-0.6-1.2-0.9-2-0.9s-1.5,0.3-2,0.9s-0.7,1.5-0.7,2.6s0.2,2,0.7,2.6
		s1.2,0.9,2,0.9S95.5,196.5,96,195.8z"/>
	<path class="st1" d="M102.3,198.3h-1.9v-10.1h1.9V198.3z"/>
	<path class="st1" d="M108.1,190.9c0.4,0.2,0.6,0.5,0.9,0.8v-3.6h2v10.1h-1.9v-1c-0.3,0.4-0.6,0.8-1,1s-0.8,0.3-1.3,0.3
		c-0.9,0-1.6-0.4-2.2-1.1c-0.6-0.7-0.9-1.6-0.9-2.7c0-1.3,0.3-2.3,0.9-3c0.6-0.7,1.4-1.1,2.3-1.1
		C107.4,190.6,107.8,190.7,108.1,190.9z M108.6,196.3c0.3-0.4,0.4-0.9,0.4-1.6c0-0.9-0.2-1.6-0.7-2c-0.3-0.2-0.6-0.4-1-0.4
		c-0.6,0-1,0.2-1.3,0.6c-0.3,0.4-0.4,1-0.4,1.6c0,0.7,0.1,1.2,0.4,1.7c0.3,0.4,0.7,0.6,1.2,0.6S108.3,196.7,108.6,196.3z"/>
	<path class="st1" d="M116.8,188.2h2.1v4.2l3.9-4.2h2.7l-4.1,4.1l4.3,5.9H123l-3.1-4.4l-1,1v3.4h-2.1V188.2z"/>
	<path class="st1" d="M131.6,191c0.5,0.2,0.9,0.6,1.3,1.1c0.3,0.4,0.5,1,0.6,1.5c0.1,0.3,0.1,0.8,0.1,1.5h-5.4
		c0,0.7,0.3,1.3,0.8,1.6c0.3,0.2,0.7,0.3,1.1,0.3c0.4,0,0.8-0.1,1.1-0.3c0.2-0.1,0.3-0.3,0.4-0.5h2c-0.1,0.4-0.3,0.9-0.7,1.3
		c-0.7,0.7-1.6,1.1-2.8,1.1c-1,0-1.9-0.3-2.6-0.9c-0.8-0.6-1.1-1.6-1.1-3c0-1.3,0.3-2.3,1-3s1.6-1,2.7-1
		C130.5,190.6,131.1,190.7,131.6,191z M128.7,192.7c-0.3,0.3-0.4,0.7-0.5,1.2h3.4c0-0.5-0.2-0.9-0.5-1.2c-0.3-0.3-0.7-0.4-1.2-0.4
		C129.3,192.2,129,192.4,128.7,192.7z"/>
	<path class="st1" d="M140.5,191.3c0.5,0.4,0.7,1.1,0.7,2v5h-2v-4.5c0-0.4-0.1-0.7-0.2-0.9c-0.2-0.4-0.6-0.6-1.1-0.6
		c-0.7,0-1.1,0.3-1.3,0.8c-0.1,0.3-0.2,0.7-0.2,1.1v4h-1.9v-7.4h1.9v1.1c0.2-0.4,0.5-0.7,0.7-0.8c0.4-0.3,0.9-0.5,1.5-0.5
		C139.4,190.6,140,190.8,140.5,191.3z"/>
	<path class="st1" d="M142.3,192.3v-1.4h1v-2.1h1.9v2.1h1.2v1.4h-1.2v3.9c0,0.3,0,0.5,0.1,0.6c0.1,0.1,0.3,0.1,0.7,0.1
		c0.1,0,0.1,0,0.2,0c0.1,0,0.1,0,0.2,0v1.5l-0.9,0c-0.9,0-1.5-0.1-1.9-0.5c-0.2-0.2-0.3-0.6-0.3-1v-4.6H142.3z"/>
	<path class="st1" d="M158.2,188.5c0.4,0.2,0.7,0.4,0.9,0.7c0.2,0.3,0.4,0.5,0.5,0.8c0.1,0.3,0.2,0.7,0.2,1.1c0,0.5-0.1,0.9-0.4,1.4
		c-0.2,0.5-0.6,0.8-1.2,1c0.5,0.2,0.8,0.5,1,0.8c0.2,0.3,0.3,0.9,0.3,1.6v0.7c0,0.5,0,0.8,0.1,0.9c0.1,0.3,0.2,0.5,0.4,0.6v0.3h-2.3
		c-0.1-0.2-0.1-0.4-0.1-0.5c-0.1-0.3-0.1-0.6-0.1-0.9l0-0.9c0-0.6-0.1-1.1-0.3-1.3c-0.2-0.2-0.6-0.3-1.2-0.3h-2.1v4h-2.1v-10.1h4.8
		C157.3,188.2,157.9,188.3,158.2,188.5z M153.9,190v2.7h2.3c0.5,0,0.8-0.1,1-0.2c0.4-0.2,0.6-0.6,0.6-1.1c0-0.6-0.2-1-0.6-1.2
		c-0.2-0.1-0.5-0.2-1-0.2H153.9z"/>
	<path class="st1" d="M168,197.4c-0.6,0.8-1.6,1.2-2.9,1.2s-2.2-0.4-2.9-1.2c-0.6-0.8-0.9-1.7-0.9-2.8c0-1.1,0.3-2,0.9-2.8
		s1.6-1.2,2.9-1.2s2.2,0.4,2.9,1.2s0.9,1.7,0.9,2.8C168.9,195.7,168.6,196.6,168,197.4z M166.4,196.3c0.3-0.4,0.5-1,0.5-1.7
		s-0.2-1.3-0.5-1.7c-0.3-0.4-0.7-0.6-1.3-0.6s-1,0.2-1.3,0.6c-0.3,0.4-0.5,1-0.5,1.7s0.2,1.3,0.5,1.7c0.3,0.4,0.7,0.6,1.3,0.6
		S166.1,196.7,166.4,196.3z"/>
	<path class="st1" d="M173.2,193.7c0.4,0,0.6-0.1,0.8-0.2c0.3-0.1,0.4-0.3,0.4-0.6c0-0.3-0.1-0.5-0.3-0.6c-0.2-0.1-0.5-0.2-0.9-0.2
		c-0.5,0-0.8,0.1-1,0.3c-0.1,0.2-0.2,0.4-0.3,0.7H170c0-0.7,0.2-1.2,0.5-1.6c0.5-0.7,1.4-1,2.7-1c0.8,0,1.5,0.2,2.2,0.5
		c0.6,0.3,1,0.9,1,1.8v3.4c0,0.2,0,0.5,0,0.9c0,0.3,0.1,0.4,0.1,0.5s0.2,0.2,0.3,0.2v0.3h-2.1c-0.1-0.2-0.1-0.3-0.1-0.4
		s0-0.3-0.1-0.5c-0.3,0.3-0.6,0.5-0.9,0.7c-0.4,0.2-0.9,0.4-1.4,0.4c-0.7,0-1.2-0.2-1.7-0.6c-0.4-0.4-0.7-0.9-0.7-1.6
		c0-0.9,0.4-1.6,1.1-2c0.4-0.2,1-0.4,1.7-0.5L173.2,193.7z M174.4,194.7c-0.1,0.1-0.3,0.1-0.4,0.2c-0.1,0-0.3,0.1-0.5,0.1l-0.4,0.1
		c-0.4,0.1-0.7,0.2-0.9,0.3c-0.3,0.2-0.5,0.5-0.5,0.8c0,0.3,0.1,0.6,0.3,0.7c0.2,0.1,0.4,0.2,0.7,0.2c0.4,0,0.8-0.1,1.2-0.4
		c0.4-0.2,0.5-0.7,0.6-1.3V194.7z"/>
	<path class="st1" d="M182,190.9c0.4,0.2,0.6,0.5,0.9,0.8v-3.6h2v10.1H183v-1c-0.3,0.4-0.6,0.8-1,1s-0.8,0.3-1.3,0.3
		c-0.9,0-1.6-0.4-2.2-1.1c-0.6-0.7-0.9-1.6-0.9-2.7c0-1.3,0.3-2.3,0.9-3c0.6-0.7,1.4-1.1,2.3-1.1C181.3,190.6,181.7,190.7,182,190.9
		z M182.5,196.3c0.3-0.4,0.4-0.9,0.4-1.6c0-0.9-0.2-1.6-0.7-2c-0.3-0.2-0.6-0.4-1-0.4c-0.6,0-1,0.2-1.3,0.6c-0.3,0.4-0.4,1-0.4,1.6
		c0,0.7,0.1,1.2,0.4,1.7c0.3,0.4,0.7,0.6,1.2,0.6S182.2,196.7,182.5,196.3z"/>
</g>
<line class="st3" x1="8" y1="114.6" x2="248.6" y2="114.6"/>
<line class="st3" x1="8" y1="226" x2="248.6" y2="226"/>
<g>
	<g>
		<path class="st1" d="M33.4,54h2.2l0.6,7.2h-1.4l-0.4-4.9c0-0.1,0-0.3,0-0.6c0-0.3,0-0.4,0-0.6l-0.8,6h-1.5l-1.9-6
			c0,0.1,0,0.3,0.1,0.6c0,0.3,0,0.4,0.1,0.6l0.4,4.9h-1.4L28.6,54h2.2l1.8,5.7L33.4,54z"/>
		<path class="st1" d="M39.9,55.7c0,0,0.1,0,0.1,0l0.1,1.4c-0.1,0-0.2,0-0.2,0c-0.1,0-0.1,0-0.2,0c-0.6,0-0.9,0.2-1.1,0.5
			c-0.1,0.2-0.1,0.5-0.1,0.9l0.2,2.5h-1.4l-0.5-5.3h1.3l0.1,0.9c0.2-0.4,0.3-0.6,0.5-0.7C39.1,55.9,39.4,55.7,39.9,55.7
			C39.9,55.7,39.9,55.7,39.9,55.7z"/>
		<path class="st1" d="M44.2,61.2L43.6,54h1.5l0.2,2.7h2.8L47.9,54h1.5l0.6,7.2h-1.5L48.2,58h-2.8l0.3,3.2H44.2z"/>
		<path class="st1" d="M53.1,58c0.3,0,0.4-0.1,0.5-0.1c0.2-0.1,0.3-0.2,0.3-0.4c0-0.2-0.1-0.4-0.3-0.5c-0.2-0.1-0.4-0.1-0.7-0.1
			c-0.3,0-0.6,0.1-0.7,0.2c-0.1,0.1-0.1,0.3-0.2,0.5h-1.3c0-0.5,0.1-0.8,0.3-1.1c0.3-0.5,0.9-0.7,1.8-0.7c0.6,0,1.1,0.1,1.6,0.3
			c0.5,0.2,0.7,0.7,0.8,1.3l0.2,2.4c0,0.2,0,0.4,0.1,0.6c0,0.2,0.1,0.3,0.1,0.4c0.1,0.1,0.1,0.1,0.2,0.2l0,0.2h-1.5
			c-0.1-0.1-0.1-0.2-0.1-0.3c0-0.1,0-0.2-0.1-0.3c-0.2,0.2-0.4,0.4-0.6,0.5c-0.3,0.2-0.6,0.3-1,0.3c-0.5,0-0.9-0.1-1.2-0.4
			c-0.3-0.3-0.5-0.7-0.6-1.2c-0.1-0.7,0.2-1.1,0.6-1.4c0.3-0.2,0.7-0.3,1.2-0.3L53.1,58z M54,58.6c-0.1,0.1-0.2,0.1-0.3,0.1
			c-0.1,0-0.2,0.1-0.4,0.1l-0.3,0.1c-0.3,0.1-0.5,0.1-0.6,0.2c-0.2,0.1-0.3,0.3-0.3,0.6c0,0.2,0.1,0.4,0.2,0.5
			c0.1,0.1,0.3,0.2,0.5,0.2c0.3,0,0.6-0.1,0.8-0.3c0.2-0.2,0.3-0.5,0.3-1L54,58.6z"/>
		<path class="st1" d="M59.4,55.7c0,0,0.1,0,0.1,0l0.1,1.4c-0.1,0-0.2,0-0.2,0c-0.1,0-0.1,0-0.2,0c-0.6,0-0.9,0.2-1.1,0.5
			C58,57.9,58,58.2,58,58.7l0.2,2.5h-1.4l-0.5-5.3h1.3l0.1,0.9c0.2-0.4,0.4-0.6,0.5-0.7C58.5,55.9,58.9,55.7,59.4,55.7
			C59.3,55.7,59.3,55.7,59.4,55.7z"/>
		<path class="st1" d="M63.2,55.7c0,0,0.1,0,0.1,0l0.1,1.4c-0.1,0-0.2,0-0.2,0c-0.1,0-0.1,0-0.2,0c-0.6,0-0.9,0.2-1.1,0.5
			c-0.1,0.2-0.1,0.5-0.1,0.9l0.2,2.5h-1.4l-0.5-5.3h1.3l0.1,0.9c0.2-0.4,0.4-0.6,0.5-0.7C62.4,55.9,62.8,55.7,63.2,55.7
			C63.2,55.7,63.2,55.7,63.2,55.7z"/>
		<path class="st1" d="M64.9,62.2l0.2,0c0.1,0,0.3,0,0.4,0c0.1,0,0.2-0.1,0.3-0.1c0.1-0.1,0.1-0.2,0.2-0.3c0.1-0.2,0.1-0.3,0.1-0.3
			l-2.4-5.6h1.5l1.5,3.9l0.8-3.9h1.5l-1.4,5.2c-0.3,1-0.5,1.6-0.7,1.9c-0.2,0.2-0.6,0.4-1.2,0.4c-0.1,0-0.2,0-0.3,0
			c-0.1,0-0.2,0-0.3,0L64.9,62.2z"/>
		<path class="st1" d="M73.5,54l1.3,4.1l0.3,1.1l0.1-1.1l0.5-4.1h1.6l1.2,4.1l0.3,1.1l0.1-1.1l0.6-4.2H81l-1.4,7.2h-1.4L76.9,57
			l-0.4-1.4L76.4,57l-0.5,4.2h-1.4L71.9,54H73.5z"/>
		<path class="st1" d="M83.3,55.2h-1.4L81.7,54h1.4L83.3,55.2z M81.9,55.9h1.4l0.4,5.3h-1.4L81.9,55.9z"/>
		<path class="st1" d="M89,56.2c0.4,0.3,0.6,0.8,0.6,1.4l0.3,3.6h-1.4L88.2,58c0-0.3-0.1-0.5-0.2-0.6c-0.2-0.3-0.4-0.4-0.8-0.4
			c-0.5,0-0.8,0.2-0.9,0.6c-0.1,0.2-0.1,0.5-0.1,0.8l0.2,2.9h-1.4l-0.4-5.3H86l0.1,0.8c0.2-0.3,0.3-0.5,0.5-0.6
			c0.3-0.2,0.6-0.3,1.1-0.3C88.1,55.7,88.6,55.9,89,56.2z"/>
		<path class="st1" d="M93.6,56c0.3,0.1,0.5,0.3,0.7,0.6L94,54h1.4l0.6,7.2h-1.4l-0.1-0.7c-0.2,0.3-0.4,0.5-0.6,0.7
			c-0.2,0.1-0.6,0.2-0.9,0.2c-0.6,0-1.2-0.3-1.6-0.8c-0.5-0.5-0.7-1.1-0.8-1.9c-0.1-0.9,0.1-1.6,0.5-2.1c0.4-0.5,0.9-0.8,1.6-0.8
			C93,55.7,93.3,55.8,93.6,56z M94.2,59.8c0.2-0.3,0.3-0.7,0.2-1.1c-0.1-0.7-0.3-1.1-0.6-1.4C93.6,57,93.4,57,93.1,57
			c-0.4,0-0.7,0.2-0.9,0.5c-0.2,0.3-0.2,0.7-0.2,1.1c0,0.5,0.2,0.9,0.4,1.2c0.2,0.3,0.5,0.4,0.9,0.4C93.8,60.2,94.1,60,94.2,59.8z"
			/>
		<path class="st1" d="M100.3,56c0.4,0.2,0.7,0.4,1,0.8c0.2,0.3,0.4,0.7,0.5,1.1c0.1,0.2,0.1,0.6,0.1,1.1h-3.9
			c0.1,0.5,0.3,0.9,0.6,1.1c0.2,0.1,0.5,0.2,0.8,0.2c0.3,0,0.6-0.1,0.8-0.2c0.1-0.1,0.2-0.2,0.3-0.4h1.4c0,0.3-0.2,0.6-0.4,1
			c-0.4,0.5-1.1,0.8-1.9,0.8c-0.7,0-1.4-0.2-1.9-0.7c-0.6-0.4-0.9-1.1-1-2.1c-0.1-0.9,0.1-1.6,0.6-2.1c0.4-0.5,1.1-0.7,1.8-0.7
			C99.5,55.7,100,55.8,100.3,56z M98.4,57.2c-0.2,0.2-0.3,0.5-0.3,0.8h2.4c-0.1-0.4-0.2-0.6-0.4-0.8c-0.2-0.2-0.5-0.3-0.8-0.3
			C98.8,56.9,98.5,57,98.4,57.2z"/>
		<path class="st1" d="M105.4,55.7c0,0,0.1,0,0.1,0l0.1,1.4c-0.1,0-0.2,0-0.2,0c-0.1,0-0.1,0-0.2,0c-0.6,0-0.9,0.2-1.1,0.5
			c-0.1,0.2-0.1,0.5-0.1,0.9l0.2,2.5h-1.4l-0.4-5.3h1.3l0.1,0.9c0.2-0.4,0.4-0.6,0.5-0.7C104.6,55.9,104.9,55.7,105.4,55.7
			C105.3,55.7,105.4,55.7,105.4,55.7z"/>
		<path class="st1" d="M108.4,53.9c0.1,0,0.2,0,0.3,0l0.1,1.1c-0.1,0-0.2,0-0.4,0c-0.2,0-0.3,0-0.4,0.1c-0.1,0.1-0.1,0.2-0.1,0.3
			s0,0.3,0,0.4h0.9l0.1,1H108l0.3,4.3H107l-0.3-4.3h-0.8l-0.1-1h0.8l0-0.3c0-0.6,0-1,0.2-1.2c0.2-0.3,0.6-0.5,1.4-0.5
			C108.2,53.9,108.3,53.9,108.4,53.9z"/>
		<path class="st1" d="M113.1,56c0.4,0.2,0.7,0.4,1,0.8c0.2,0.3,0.4,0.7,0.5,1.1c0.1,0.2,0.1,0.6,0.1,1.1h-3.9
			c0.1,0.5,0.3,0.9,0.6,1.1c0.2,0.1,0.5,0.2,0.8,0.2c0.3,0,0.6-0.1,0.8-0.2c0.1-0.1,0.2-0.2,0.3-0.4h1.4c0,0.3-0.2,0.6-0.4,1
			c-0.4,0.5-1.1,0.8-1.9,0.8c-0.7,0-1.3-0.2-1.9-0.7c-0.6-0.4-0.9-1.1-1-2.1c-0.1-0.9,0.1-1.6,0.6-2.1c0.4-0.5,1.1-0.7,1.8-0.7
			C112.3,55.7,112.7,55.8,113.1,56z M111.1,57.2c-0.2,0.2-0.3,0.5-0.3,0.8h2.4c-0.1-0.4-0.2-0.6-0.4-0.8c-0.2-0.2-0.5-0.3-0.8-0.3
			C111.6,56.9,111.3,57,111.1,57.2z"/>
		<path class="st1" d="M117.1,61.2h-1.4l-0.6-7.2h1.4L117.1,61.2z"/>
		<path class="st1" d="M29.8,68.3l-0.1-0.9c0.4,0,0.7,0,0.9-0.1c0.3-0.1,0.5-0.2,0.6-0.4c0.1-0.1,0.2-0.3,0.2-0.5c0-0.1,0-0.2,0-0.3
			h1.2l0.6,7.1h-1.4l-0.4-4.9H29.8z"/>
		<path class="st1" d="M35.6,71.8c0.2-0.5,0.6-1,1.3-1.5c0.6-0.5,1-0.8,1.2-1c0.3-0.3,0.4-0.6,0.3-1c0-0.3-0.1-0.5-0.3-0.7
			c-0.2-0.2-0.4-0.3-0.7-0.3c-0.4,0-0.7,0.2-0.8,0.5c-0.1,0.2-0.1,0.5-0.1,0.9H35c0-0.6,0-1.1,0.2-1.5c0.3-0.7,0.9-1.1,1.9-1.1
			c0.7,0,1.4,0.2,1.8,0.6c0.5,0.4,0.7,1,0.8,1.6c0,0.5-0.1,1-0.3,1.4c-0.2,0.3-0.5,0.6-0.9,0.9L38,71c-0.3,0.2-0.5,0.4-0.7,0.5
			c-0.1,0.1-0.2,0.2-0.3,0.4h3.1l0.1,1.2h-4.8C35.3,72.7,35.4,72.2,35.6,71.8z"/>
		<path class="st1" d="M41,66.8c0.4-0.5,0.9-0.7,1.6-0.7c1.1,0,1.9,0.5,2.3,1.4c0.3,0.5,0.4,1.3,0.5,2.1c0.1,0.9,0,1.6-0.1,2.1
			c-0.3,1.1-1,1.6-2.1,1.6c-0.5,0-1-0.2-1.5-0.5c-0.5-0.3-0.7-0.8-0.8-1.4h1.4c0.1,0.2,0.2,0.4,0.3,0.5c0.2,0.1,0.3,0.2,0.6,0.2
			c0.5,0,0.8-0.3,0.9-0.8c0.1-0.3,0.1-0.7,0.1-1.2c-0.1,0.2-0.2,0.3-0.4,0.4c-0.2,0.2-0.6,0.2-0.9,0.2c-0.6,0-1.1-0.2-1.5-0.6
			c-0.5-0.4-0.7-0.9-0.8-1.7C40.4,67.8,40.6,67.2,41,66.8z M43.6,69.6c0.3-0.2,0.4-0.6,0.4-1c0-0.4-0.2-0.7-0.4-1
			c-0.2-0.2-0.5-0.4-0.8-0.4c-0.2,0-0.4,0.1-0.6,0.2c-0.2,0.2-0.4,0.6-0.3,1.1c0,0.4,0.1,0.7,0.3,0.9c0.2,0.2,0.5,0.3,0.8,0.3
			C43.3,69.7,43.4,69.7,43.6,69.6z"/>
		<path class="st1" d="M55.2,72.6c-0.5,0.6-1.3,0.8-2.3,0.8c-1,0-1.8-0.3-2.4-0.8c-0.8-0.7-1.2-1.7-1.3-3c-0.1-1.3,0.2-2.3,0.8-3
			c0.5-0.6,1.3-0.8,2.3-0.8c1,0,1.8,0.3,2.4,0.8c0.8,0.7,1.2,1.7,1.3,3C56.1,70.9,55.8,71.9,55.2,72.6z M54.1,71.5
			c0.3-0.4,0.4-1.1,0.4-1.9c-0.1-0.8-0.3-1.4-0.7-1.9c-0.4-0.4-0.9-0.7-1.5-0.7s-1.1,0.2-1.4,0.7c-0.3,0.4-0.4,1.1-0.4,1.9
			c0.1,0.8,0.3,1.4,0.7,1.9c0.4,0.4,0.9,0.7,1.5,0.7S53.8,71.9,54.1,71.5z"/>
		<path class="st1" d="M58.8,73.2h-1.4L56.8,66h1.4L58.8,73.2z"/>
		<path class="st1" d="M62.5,68c0.3,0.1,0.5,0.3,0.7,0.6L62.9,66h1.4l0.6,7.2h-1.4l-0.1-0.7c-0.2,0.3-0.4,0.5-0.6,0.7
			c-0.2,0.1-0.6,0.2-0.9,0.2c-0.6,0-1.2-0.3-1.6-0.8c-0.5-0.5-0.7-1.1-0.8-1.9c-0.1-0.9,0.1-1.6,0.4-2.1c0.4-0.5,0.9-0.8,1.6-0.8
			C61.9,67.7,62.2,67.8,62.5,68z M63.2,71.8c0.2-0.3,0.3-0.7,0.2-1.1c-0.1-0.7-0.3-1.1-0.6-1.4C62.5,69,62.3,69,62,69
			c-0.4,0-0.7,0.2-0.9,0.5C61,69.7,61,70.1,61,70.6c0,0.5,0.2,0.9,0.4,1.2c0.2,0.3,0.5,0.4,0.9,0.4C62.7,72.2,63,72,63.2,71.8z"/>
		<path class="st1" d="M69.9,71.5c0.1,0.2,0.1,0.4,0.2,0.5c0.2,0.2,0.5,0.3,1,0.3c0.3,0,0.5,0,0.6-0.1c0.2-0.1,0.2-0.2,0.2-0.4
			c0-0.2-0.1-0.3-0.2-0.4c-0.1-0.1-0.6-0.2-1.5-0.4c-0.6-0.1-1.1-0.3-1.3-0.6c-0.3-0.2-0.4-0.5-0.5-1c0-0.5,0.1-0.9,0.5-1.3
			c0.4-0.4,0.9-0.5,1.6-0.5c0.7,0,1.2,0.1,1.7,0.4c0.4,0.3,0.7,0.7,0.8,1.4h-1.4c0-0.2-0.1-0.3-0.2-0.4c-0.2-0.2-0.4-0.3-0.8-0.3
			c-0.3,0-0.5,0-0.6,0.1c-0.1,0.1-0.2,0.2-0.2,0.3c0,0.2,0.1,0.3,0.2,0.3c0.1,0.1,0.6,0.2,1.5,0.4c0.6,0.1,1,0.3,1.3,0.6
			c0.3,0.3,0.5,0.6,0.5,1c0,0.5-0.1,1-0.5,1.3c-0.4,0.3-1,0.5-1.8,0.5c-0.8,0-1.5-0.2-1.9-0.5c-0.4-0.4-0.7-0.8-0.7-1.4H69.9z"/>
		<path class="st1" d="M73.6,68.9l-0.1-1h0.7l-0.1-1.5h1.4l0.1,1.5h0.9l0.1,1h-0.9l0.2,2.8c0,0.2,0.1,0.4,0.1,0.4
			c0.1,0.1,0.2,0.1,0.5,0.1c0,0,0.1,0,0.1,0c0,0,0.1,0,0.1,0l0.1,1l-0.7,0c-0.7,0-1.1-0.1-1.4-0.3c-0.2-0.2-0.3-0.4-0.3-0.7
			l-0.3-3.3H73.6z"/>
		<path class="st1" d="M32.2,83c0.1,0.3,0.2,0.6,0.3,0.7c0.3,0.3,0.7,0.4,1.3,0.4c0.4,0,0.7,0,0.9-0.1c0.4-0.1,0.6-0.4,0.6-0.8
			c0-0.2-0.1-0.4-0.4-0.6c-0.2-0.1-0.6-0.2-1-0.3l-0.8-0.2c-0.8-0.2-1.3-0.4-1.6-0.6c-0.5-0.3-0.8-0.9-0.9-1.6
			c-0.1-0.6,0.1-1.2,0.6-1.6c0.4-0.4,1.1-0.6,2-0.6c0.8,0,1.4,0.2,2,0.6c0.6,0.4,0.9,1,1,1.8h-1.4c-0.1-0.4-0.3-0.7-0.7-0.9
			c-0.3-0.1-0.6-0.2-0.9-0.2c-0.4,0-0.7,0.1-0.9,0.2c-0.2,0.2-0.3,0.4-0.3,0.7c0,0.3,0.2,0.4,0.4,0.6c0.2,0.1,0.5,0.2,1,0.3l1.3,0.3
			c0.6,0.1,1,0.3,1.3,0.5c0.5,0.3,0.7,0.8,0.8,1.5c0.1,0.7-0.1,1.2-0.6,1.6c-0.5,0.4-1.2,0.7-2.1,0.7c-0.9,0-1.7-0.2-2.3-0.6
			c-0.6-0.4-0.9-1-1-1.8H32.2z"/>
		<path class="st1" d="M42.8,79.3H39l0.1,1.5h3.5l0.1,1.2h-3.5l0.2,1.9h4l0.1,1.3H38L37.4,78h5.3L42.8,79.3z"/>
		<path class="st1" d="M44.1,80.3L44,79.4c0.4,0,0.7,0,0.9-0.1c0.3-0.1,0.5-0.2,0.6-0.4c0.1-0.1,0.2-0.3,0.2-0.5c0-0.1,0-0.2,0-0.3
			H47l0.6,7.1h-1.4l-0.4-4.9H44.1z"/>
		<path class="st1" d="M54.2,79.3c-0.2,0.2-0.4,0.6-0.8,1.1c-0.3,0.5-0.6,1.1-0.8,1.6c-0.2,0.4-0.3,1-0.4,1.6
			c-0.1,0.6-0.1,1.2-0.1,1.6h-1.4c-0.1-1.3,0.2-2.6,0.9-4c0.4-0.8,0.8-1.4,1.1-1.8h-3.5l-0.1-1.2h5L54.2,79.3z"/>
		<path class="st1" d="M62.5,79.3c-0.2,0.2-0.4,0.6-0.8,1.1c-0.3,0.5-0.6,1.1-0.8,1.6c-0.2,0.4-0.3,1-0.4,1.6
			c-0.1,0.6-0.1,1.2-0.1,1.6H59c-0.1-1.3,0.2-2.6,0.9-4c0.4-0.8,0.8-1.4,1.1-1.8h-3.5l-0.1-1.2h5L62.5,79.3z"/>
		<path class="st1" d="M68.8,79.3H65l0.1,1.5h3.5l0.1,1.2h-3.5l0.2,1.9h4l0.1,1.3h-5.4L63.5,78h5.3L68.8,79.3z"/>
		<path class="st1" d="M70.1,78h5.1l0.1,1.3h-3.6l0.1,1.7H75l0.1,1.2h-3.2l0.3,3h-1.5L70.1,78z"/>
	</g>
</g>
<g>
	<g>
		<path class="st4" d="M28,266.9l1.2-13h2.7l-0.4,4.9h5l0.4-4.9h2.7l-1.2,13h-2.7l0.5-5.8h-5l-0.5,5.8H28z"/>
		<path class="st4" d="M48.9,265.8c-0.9,1-2.2,1.5-3.8,1.5c-1.6,0-2.8-0.5-3.5-1.5c-0.7-1-1-2.2-0.9-3.6c0.1-1.4,0.6-2.6,1.5-3.6
			c0.9-1,2.2-1.5,3.8-1.5c1.6,0,2.8,0.5,3.5,1.5c0.7,1,1,2.2,0.9,3.6C50.3,263.6,49.8,264.8,48.9,265.8z M47,264.4
			c0.4-0.5,0.7-1.3,0.8-2.2c0.1-1,0-1.7-0.4-2.2c-0.3-0.5-0.9-0.8-1.6-0.8c-0.7,0-1.3,0.3-1.8,0.8c-0.4,0.5-0.7,1.3-0.8,2.2
			c-0.1,1,0,1.7,0.4,2.2c0.3,0.5,0.9,0.8,1.6,0.8C46,265.2,46.6,264.9,47,264.4z"/>
		<path class="st4" d="M57.2,257.4h2.5l0.8,6.9l2.1-6.9h2.6l-3.6,9.6h-2.6l-0.9-7l-2.1,7h-2.6l-1.8-9.6h2.7l0.9,6.9L57.2,257.4z"/>
		<path class="st4" d="M70.5,259.2l0.2-1.8H72l0.2-2.7h2.5l-0.2,2.7h1.6l-0.2,1.8h-1.6l-0.4,5.1c0,0.4,0,0.6,0.1,0.7
			c0.1,0.1,0.4,0.1,0.9,0.1c0.1,0,0.2,0,0.2,0c0.1,0,0.2,0,0.3,0l-0.2,1.9l-1.2,0c-1.2,0-2-0.2-2.4-0.6c-0.3-0.3-0.4-0.7-0.3-1.3
			l0.5-5.9H70.5z"/>
		<path class="st4" d="M84.9,265.8c-0.9,1-2.2,1.5-3.8,1.5c-1.6,0-2.8-0.5-3.6-1.5c-0.7-1-1-2.2-0.9-3.6c0.1-1.4,0.6-2.6,1.5-3.6
			c0.9-1,2.2-1.5,3.8-1.5c1.6,0,2.8,0.5,3.5,1.5c0.7,1,1,2.2,0.9,3.6C86.3,263.6,85.8,264.8,84.9,265.8z M83,264.4
			c0.4-0.5,0.7-1.3,0.8-2.2c0.1-1,0-1.7-0.4-2.2c-0.3-0.5-0.9-0.8-1.6-0.8c-0.7,0-1.3,0.3-1.8,0.8c-0.4,0.5-0.7,1.3-0.8,2.2
			c-0.1,1,0,1.7,0.4,2.2c0.4,0.5,0.9,0.8,1.6,0.8C82,265.2,82.6,264.9,83,264.4z"/>
		<path class="st4" d="M97.1,261.1c0.5-0.1,0.8-0.1,1-0.2c0.4-0.2,0.6-0.4,0.6-0.7c0-0.4-0.1-0.7-0.3-0.8c-0.3-0.1-0.7-0.2-1.2-0.2
			c-0.6,0-1,0.1-1.3,0.4c-0.2,0.2-0.3,0.5-0.4,0.9H93c0.1-0.8,0.4-1.5,0.9-2.1c0.7-0.8,1.9-1.3,3.5-1.3c1.1,0,2,0.2,2.8,0.6
			c0.8,0.4,1.1,1.2,1,2.4l-0.4,4.4c0,0.3-0.1,0.7-0.1,1.1c0,0.3,0,0.6,0.1,0.7c0.1,0.1,0.2,0.2,0.3,0.3l0,0.4h-2.7
			c-0.1-0.2-0.1-0.4-0.1-0.5s0-0.4,0-0.6c-0.4,0.4-0.8,0.7-1.3,1c-0.6,0.3-1.2,0.5-1.9,0.5c-0.9,0-1.6-0.2-2.1-0.7
			c-0.5-0.5-0.7-1.2-0.7-2.1c0.1-1.2,0.6-2,1.6-2.6c0.5-0.3,1.3-0.5,2.3-0.6L97.1,261.1z M98.6,262.3c-0.2,0.1-0.3,0.2-0.5,0.2
			c-0.2,0.1-0.4,0.1-0.7,0.2l-0.6,0.1c-0.5,0.1-0.9,0.2-1.2,0.3c-0.4,0.2-0.6,0.6-0.7,1.1c0,0.4,0.1,0.7,0.3,0.9
			c0.2,0.2,0.5,0.3,0.9,0.3c0.5,0,1.1-0.2,1.6-0.5c0.5-0.3,0.8-0.9,0.9-1.7L98.6,262.3z"/>
		<path class="st4" d="M111.6,258.4c0.7,0.8,1,2,0.9,3.6c-0.1,1.7-0.6,3-1.5,3.9c-0.8,0.9-1.9,1.3-3.1,1.3c-0.8,0-1.4-0.2-1.9-0.6
			c-0.3-0.2-0.5-0.5-0.7-0.9l-0.4,5h-2.5l1.2-13.4h2.4l-0.1,1.4c0.3-0.4,0.6-0.7,1-1c0.6-0.4,1.3-0.6,2.1-0.6
			C110,257.1,110.9,257.6,111.6,258.4z M109.6,260.2c-0.3-0.6-0.8-0.9-1.6-0.9c-0.9,0-1.6,0.4-2,1.3c-0.2,0.5-0.4,1-0.4,1.7
			c-0.1,1.1,0.1,1.9,0.7,2.3c0.3,0.3,0.7,0.4,1.2,0.4c0.7,0,1.3-0.3,1.7-0.8c0.4-0.5,0.7-1.3,0.7-2.2
			C110,261.4,109.9,260.8,109.6,260.2z"/>
		<path class="st4" d="M122.6,258.4c0.7,0.8,1,2,0.9,3.6c-0.1,1.7-0.6,3-1.5,3.9c-0.8,0.9-1.9,1.3-3.1,1.3c-0.8,0-1.4-0.2-1.9-0.6
			c-0.3-0.2-0.5-0.5-0.7-0.9l-0.4,5h-2.5l1.2-13.4h2.4l-0.1,1.4c0.3-0.4,0.6-0.7,1-1c0.6-0.4,1.3-0.6,2.1-0.6
			C121,257.1,121.9,257.6,122.6,258.4z M120.6,260.2c-0.3-0.6-0.8-0.9-1.6-0.9c-0.9,0-1.6,0.4-2,1.3c-0.2,0.5-0.4,1-0.4,1.7
			c-0.1,1.1,0.1,1.9,0.7,2.3c0.3,0.3,0.7,0.4,1.2,0.4c0.7,0,1.3-0.3,1.7-0.8c0.4-0.5,0.7-1.3,0.7-2.2
			C121,261.4,120.9,260.8,120.6,260.2z"/>
		<path class="st4" d="M131.9,257.6c0.6,0.3,1.2,0.8,1.5,1.4c0.3,0.6,0.5,1.2,0.6,2c0,0.4,0,1.1-0.1,1.9h-7c0,1,0.2,1.6,0.8,2
			c0.4,0.2,0.8,0.4,1.3,0.4c0.6,0,1-0.1,1.4-0.4c0.2-0.2,0.4-0.4,0.6-0.7h2.6c-0.1,0.6-0.5,1.1-1.1,1.7c-0.9,0.9-2.2,1.4-3.7,1.4
			c-1.3,0-2.4-0.4-3.3-1.2c-0.9-0.8-1.3-2.1-1.1-3.8c0.1-1.7,0.7-2.9,1.7-3.8c1-0.9,2.1-1.3,3.5-1.3
			C130.5,257.1,131.3,257.3,131.9,257.6z M128,259.7c-0.4,0.4-0.7,0.9-0.8,1.5h4.3c0-0.7-0.2-1.2-0.5-1.5c-0.4-0.3-0.8-0.5-1.4-0.5
			C128.9,259.2,128.3,259.4,128,259.7z"/>
		<path class="st4" d="M139.1,261.1c0.5-0.1,0.8-0.1,1-0.2c0.4-0.2,0.6-0.4,0.6-0.7c0-0.4-0.1-0.7-0.3-0.8c-0.3-0.1-0.7-0.2-1.2-0.2
			c-0.6,0-1,0.1-1.3,0.4c-0.2,0.2-0.3,0.5-0.4,0.9h-2.4c0.1-0.8,0.4-1.5,0.9-2.1c0.7-0.8,1.9-1.3,3.5-1.3c1.1,0,2,0.2,2.8,0.6
			c0.8,0.4,1.1,1.2,1,2.4l-0.4,4.4c0,0.3-0.1,0.7-0.1,1.1c0,0.3,0,0.6,0.1,0.7c0.1,0.1,0.2,0.2,0.3,0.3l0,0.4h-2.7
			c-0.1-0.2-0.1-0.4-0.1-0.5s0-0.4,0-0.6c-0.4,0.4-0.8,0.7-1.3,1c-0.6,0.3-1.2,0.5-1.9,0.5c-0.9,0-1.6-0.2-2.1-0.7
			c-0.5-0.5-0.7-1.2-0.7-2.1c0.1-1.2,0.6-2,1.6-2.6c0.5-0.3,1.3-0.5,2.3-0.6L139.1,261.1z M140.6,262.3c-0.2,0.1-0.3,0.2-0.5,0.2
			c-0.2,0.1-0.4,0.1-0.7,0.2l-0.6,0.1c-0.5,0.1-0.9,0.2-1.2,0.3c-0.4,0.2-0.6,0.6-0.7,1.1c0,0.4,0.1,0.7,0.3,0.9
			c0.2,0.2,0.5,0.3,0.9,0.3c0.5,0,1.1-0.2,1.6-0.5c0.5-0.3,0.8-0.9,0.9-1.7L140.6,262.3z"/>
		<path class="st4" d="M147.4,266.9h-2.5l1.1-13h2.5L147.4,266.9z"/>
		<path class="st1" d="M26.9,287.1l0.7,4.9l0.1,1.4l0.4-1.3l1.4-5h1.9L32,292l0.1,1.4l0.4-1.3l1.6-5H36l-3.2,8.6h-1.7l-0.6-5.1
			l-0.2-1.7l-0.5,1.7l-1.5,5.1h-1.7l-1.7-8.6H26.9z"/>
		<path class="st1" d="M40.1,289.2c0,0,0.1,0,0.1,0l-0.2,1.7c-0.1,0-0.2,0-0.3,0c-0.1,0-0.1,0-0.2,0c-0.7,0-1.1,0.2-1.4,0.7
			c-0.2,0.2-0.2,0.6-0.3,1.1l-0.3,3.1h-1.7l0.6-6.4h1.6l-0.1,1.1c0.3-0.4,0.5-0.7,0.8-0.9C39.1,289.3,39.5,289.2,40.1,289.2
			C40.1,289.2,40.1,289.2,40.1,289.2z"/>
		<path class="st1" d="M43,288.6h-1.7l0.1-1.5h1.7L43,288.6z M41.2,289.4h1.7l-0.6,6.4h-1.7L41.2,289.4z"/>
		<path class="st1" d="M43.8,290.6l0.1-1.2h0.9l0.2-1.8h1.7l-0.2,1.8h1l-0.1,1.2h-1L46,294c0,0.3,0,0.4,0.1,0.5
			c0.1,0.1,0.3,0.1,0.6,0.1c0.1,0,0.1,0,0.2,0c0.1,0,0.1,0,0.2,0l-0.1,1.2l-0.8,0c-0.8,0-1.3-0.1-1.6-0.4c-0.2-0.2-0.2-0.5-0.2-0.9
			l0.4-3.9H43.8z"/>
		<path class="st1" d="M52.7,289.5c0.4,0.2,0.8,0.5,1,0.9c0.2,0.4,0.4,0.8,0.4,1.3c0,0.3,0,0.7-0.1,1.3h-4.7c0,0.6,0.2,1.1,0.5,1.3
			c0.2,0.2,0.5,0.2,0.9,0.2c0.4,0,0.7-0.1,1-0.3c0.1-0.1,0.3-0.3,0.4-0.4h1.7c-0.1,0.4-0.3,0.8-0.7,1.2c-0.6,0.6-1.5,0.9-2.5,0.9
			c-0.9,0-1.6-0.3-2.2-0.8c-0.6-0.5-0.9-1.4-0.7-2.6c0.1-1.1,0.5-2,1.1-2.5c0.6-0.6,1.4-0.9,2.4-0.9
			C51.8,289.2,52.3,289.3,52.7,289.5z M50.1,290.9c-0.3,0.2-0.4,0.6-0.5,1h2.9c0-0.4-0.1-0.8-0.4-1c-0.2-0.2-0.6-0.3-1-0.3
			C50.7,290.6,50.3,290.7,50.1,290.9z"/>
		<path class="st1" d="M57.8,290.6l0.1-1.2h0.9l0.2-1.8h1.7l-0.2,1.8h1l-0.1,1.2h-1L60,294c0,0.3,0,0.4,0.1,0.5
			c0.1,0.1,0.3,0.1,0.6,0.1c0.1,0,0.1,0,0.2,0c0.1,0,0.1,0,0.2,0l-0.1,1.2l-0.8,0c-0.8,0-1.3-0.1-1.6-0.4c-0.2-0.2-0.2-0.5-0.2-0.9
			l0.4-3.9H57.8z"/>
		<path class="st1" d="M67.4,295c-0.6,0.7-1.4,1-2.5,1c-1.1,0-1.9-0.3-2.4-1c-0.5-0.7-0.7-1.5-0.6-2.4c0.1-0.9,0.4-1.7,1-2.4
			c0.6-0.7,1.4-1,2.5-1c1.1,0,1.9,0.3,2.4,1c0.5,0.7,0.7,1.5,0.6,2.4C68.3,293.5,68,294.3,67.4,295z M66.1,294
			c0.3-0.3,0.5-0.8,0.5-1.5c0.1-0.6,0-1.1-0.3-1.5c-0.2-0.3-0.6-0.5-1.1-0.5c-0.5,0-0.9,0.2-1.2,0.5c-0.3,0.3-0.5,0.8-0.5,1.5
			c-0.1,0.6,0,1.1,0.3,1.5c0.2,0.3,0.6,0.5,1.1,0.5C65.5,294.6,65.8,294.4,66.1,294z"/>
		<path class="st1" d="M78.6,287.3c0.6,0.2,1,0.6,1.4,1.1c0.3,0.4,0.4,0.9,0.5,1.4c0.1,0.5,0.1,1,0,1.4c-0.1,1.1-0.4,2.1-1,2.9
			c-0.7,1.1-1.7,1.6-3,1.6h-3.7l0.8-8.6h3.7C77.8,287.1,78.3,287.2,78.6,287.3z M75.2,288.6l-0.5,5.6h1.7c0.9,0,1.5-0.4,1.9-1.3
			c0.2-0.5,0.4-1,0.4-1.6c0.1-0.9,0-1.6-0.2-2c-0.2-0.5-0.8-0.7-1.6-0.7H75.2z"/>
		<path class="st1" d="M87.3,287.1h1.9l-3.7,8.6h-1.7l-2.2-8.6h1.9l1.3,6.6L87.3,287.1z"/>
		<path class="st1" d="M90.3,287.1h1.8l-0.6,7.1h4.3l-0.1,1.6h-6.1L90.3,287.1z"/>
		<path class="st1" d="M100.1,287.1h2l2.3,8.6h-2L102,294h-3.2l-0.7,1.8h-1.9L100.1,287.1z M99.5,292.5h2.2l-0.8-3.4L99.5,292.5z"/>
		<path class="st1" d="M105.2,297.1c0.3-0.1,0.6-0.2,0.8-0.5c0.2-0.2,0.3-0.5,0.4-0.9h-1l0.2-1.8h1.8l-0.1,1.5
			c0,0.3-0.1,0.5-0.2,0.8c-0.1,0.3-0.2,0.5-0.5,0.8c-0.2,0.2-0.5,0.4-0.8,0.5c-0.3,0.1-0.5,0.2-0.6,0.2L105.2,297.1z"/>
		<path class="st1" d="M118,287.3c0.6,0.2,1,0.6,1.4,1.1c0.3,0.4,0.4,0.9,0.5,1.4s0.1,1,0,1.4c-0.1,1.1-0.4,2.1-0.9,2.9
			c-0.7,1.1-1.7,1.6-3,1.6h-3.7l0.8-8.6h3.7C117.2,287.1,117.6,287.2,118,287.3z M114.6,288.6l-0.5,5.6h1.7c0.9,0,1.5-0.4,1.9-1.3
			c0.2-0.5,0.4-1,0.4-1.6c0.1-0.9,0-1.6-0.2-2c-0.2-0.5-0.8-0.7-1.6-0.7H114.6z"/>
		<path class="st1" d="M126.7,287.1h1.9l-3.7,8.6h-1.7l-2.2-8.6h1.9l1.3,6.6L126.7,287.1z"/>
		<path class="st1" d="M129.6,287.1h1.8l-0.6,7.1h4.3l-0.1,1.6h-6.1L129.6,287.1z"/>
		<path class="st1" d="M139.4,287.1h2l2.3,8.6h-2l-0.4-1.8h-3.2l-0.7,1.8h-1.9L139.4,287.1z M138.8,292.5h2.2l-0.8-3.4L138.8,292.5z
			"/>
		<path class="st1" d="M147.8,295.7l0.8-8.6h1.8l-0.3,3.3h3.4l0.3-3.3h1.8l-0.8,8.6h-1.8l0.3-3.9h-3.4l-0.3,3.9H147.8z"/>
		<path class="st1" d="M161.7,295c-0.6,0.7-1.4,1-2.5,1c-1.1,0-1.9-0.3-2.4-1c-0.5-0.7-0.7-1.5-0.6-2.4c0.1-0.9,0.4-1.7,1-2.4
			c0.6-0.7,1.4-1,2.5-1c1.1,0,1.9,0.3,2.4,1c0.5,0.7,0.7,1.5,0.6,2.4C162.6,293.5,162.3,294.3,161.7,295z M160.4,294
			c0.3-0.3,0.5-0.8,0.5-1.5c0.1-0.6,0-1.1-0.3-1.5c-0.2-0.3-0.6-0.5-1.1-0.5c-0.5,0-0.9,0.2-1.2,0.5c-0.3,0.3-0.5,0.8-0.5,1.5
			c-0.1,0.6,0,1.1,0.3,1.5c0.2,0.3,0.6,0.5,1.1,0.5S160.2,294.4,160.4,294z"/>
		<path class="st1" d="M165.9,289.4l-0.3,3.8c0,0.4,0,0.6,0.1,0.8c0.1,0.3,0.4,0.5,0.9,0.5c0.6,0,1-0.2,1.2-0.7
			c0.1-0.2,0.2-0.6,0.2-1l0.3-3.5h1.7l-0.6,6.4h-1.6l0.1-0.9c0,0-0.1,0.1-0.1,0.2c-0.1,0.1-0.2,0.2-0.2,0.3
			c-0.3,0.2-0.5,0.4-0.8,0.5c-0.3,0.1-0.5,0.1-0.9,0.1c-0.9,0-1.6-0.3-1.8-1c-0.2-0.4-0.2-0.9-0.1-1.7l0.3-3.8H165.9z"/>
		<path class="st1" d="M172.5,293.7c0,0.3,0.1,0.5,0.2,0.6c0.2,0.2,0.6,0.3,1.1,0.3c0.3,0,0.6,0,0.8-0.1c0.2-0.1,0.3-0.2,0.3-0.4
			c0-0.2,0-0.3-0.2-0.4c-0.1-0.1-0.7-0.3-1.7-0.5c-0.7-0.2-1.2-0.4-1.5-0.7c-0.3-0.3-0.4-0.6-0.3-1.1c0.1-0.6,0.3-1.1,0.8-1.5
			c0.5-0.4,1.2-0.6,2-0.6c0.8,0,1.4,0.2,1.9,0.5c0.5,0.3,0.7,0.9,0.7,1.6H175c0-0.2-0.1-0.4-0.1-0.5c-0.2-0.2-0.5-0.3-0.9-0.3
			c-0.4,0-0.6,0.1-0.8,0.2c-0.2,0.1-0.3,0.2-0.3,0.4c0,0.2,0.1,0.3,0.2,0.4c0.2,0.1,0.7,0.2,1.7,0.5c0.7,0.2,1.1,0.4,1.4,0.7
			c0.3,0.3,0.4,0.7,0.4,1.2c-0.1,0.6-0.3,1.1-0.8,1.5c-0.5,0.4-1.3,0.6-2.2,0.6c-1,0-1.7-0.2-2.2-0.6c-0.4-0.4-0.6-1-0.6-1.6H172.5z
			"/>
		<path class="st1" d="M182.4,289.5c0.4,0.2,0.8,0.5,1,0.9c0.2,0.4,0.4,0.8,0.4,1.3c0,0.3,0,0.7-0.1,1.3h-4.7c0,0.6,0.2,1.1,0.6,1.3
			c0.2,0.2,0.5,0.2,0.9,0.2c0.4,0,0.7-0.1,1-0.3c0.1-0.1,0.3-0.3,0.4-0.4h1.7c-0.1,0.4-0.3,0.8-0.7,1.2c-0.6,0.6-1.5,0.9-2.5,0.9
			c-0.9,0-1.6-0.3-2.2-0.8c-0.6-0.5-0.9-1.4-0.8-2.6c0.1-1.1,0.5-2,1.1-2.5c0.6-0.6,1.4-0.9,2.4-0.9
			C181.4,289.2,181.9,289.3,182.4,289.5z M179.7,290.9c-0.3,0.2-0.4,0.6-0.5,1h2.9c0-0.4-0.1-0.8-0.4-1c-0.2-0.2-0.6-0.3-1-0.3
			C180.3,290.6,180,290.7,179.7,290.9z"/>
		<path class="st1" d="M184.1,297.1c0.3-0.1,0.6-0.2,0.8-0.5c0.2-0.2,0.3-0.5,0.4-0.9h-1l0.2-1.8h1.8l-0.1,1.5
			c0,0.3-0.1,0.5-0.2,0.8c-0.1,0.3-0.2,0.5-0.5,0.8c-0.2,0.2-0.5,0.4-0.8,0.5c-0.3,0.1-0.5,0.2-0.6,0.2L184.1,297.1z"/>
		<path class="st1" d="M29.5,301.7c0.6,0.2,1,0.6,1.4,1.1c0.3,0.4,0.4,0.9,0.5,1.4c0.1,0.5,0.1,1,0,1.4c-0.1,1.1-0.4,2.1-1,2.9
			c-0.7,1.1-1.7,1.6-3,1.6h-3.7l0.8-8.6h3.7C28.7,301.5,29.2,301.6,29.5,301.7z M26.1,303l-0.5,5.6h1.7c0.9,0,1.5-0.4,1.9-1.3
			c0.2-0.5,0.4-1,0.4-1.6c0.1-0.9,0-1.6-0.2-2c-0.2-0.5-0.8-0.7-1.6-0.7H26.1z"/>
		<path class="st1" d="M38.2,301.5h1.9l-3.7,8.6h-1.7l-2.2-8.6h1.9l1.3,6.6L38.2,301.5z"/>
		<path class="st1" d="M41.1,301.5H43l-0.6,7.1h4.3l-0.1,1.6h-6.1L41.1,301.5z"/>
		<path class="st1" d="M51,301.5h2l2.3,8.6h-2l-0.4-1.8h-3.2l-0.7,1.8h-1.9L51,301.5z M50.4,306.9h2.2l-0.8-3.4L50.4,306.9z"/>
		<path class="st1" d="M65.6,301.7c0.3,0.1,0.6,0.3,0.8,0.6c0.2,0.2,0.3,0.5,0.4,0.7c0.1,0.3,0.1,0.6,0.1,0.9c0,0.4-0.2,0.8-0.4,1.2
			c-0.2,0.4-0.6,0.7-1.1,0.8c0.4,0.2,0.6,0.4,0.8,0.7c0.1,0.3,0.2,0.7,0.1,1.4l-0.1,0.6c0,0.4,0,0.7,0,0.8c0,0.2,0.1,0.4,0.3,0.5
			l0,0.2h-2c0-0.2-0.1-0.3-0.1-0.5c0-0.2,0-0.5,0-0.7l0.1-0.8c0-0.6,0-0.9-0.2-1.1c-0.2-0.2-0.5-0.3-1-0.3h-1.8l-0.3,3.4h-1.8
			l0.8-8.6h4.1C64.8,301.5,65.3,301.6,65.6,301.7z M61.7,303l-0.2,2.3h1.9c0.4,0,0.7,0,0.9-0.1c0.4-0.2,0.6-0.5,0.6-1
			c0-0.5-0.1-0.9-0.4-1.1c-0.2-0.1-0.5-0.2-0.8-0.2H61.7z"/>
		<path class="st1" d="M73.2,309.4c-0.6,0.7-1.4,1-2.5,1c-1.1,0-1.9-0.3-2.4-1c-0.5-0.7-0.7-1.5-0.6-2.4c0.1-0.9,0.4-1.7,1-2.4
			c0.6-0.7,1.4-1,2.5-1c1.1,0,1.9,0.3,2.4,1c0.5,0.7,0.7,1.5,0.6,2.4C74.2,307.9,73.8,308.7,73.2,309.4z M72,308.4
			c0.3-0.3,0.5-0.8,0.5-1.5c0.1-0.6,0-1.1-0.3-1.5c-0.2-0.3-0.6-0.5-1.1-0.5s-0.9,0.2-1.2,0.5c-0.3,0.3-0.5,0.8-0.5,1.5
			c-0.1,0.6,0,1.1,0.3,1.5c0.2,0.3,0.6,0.5,1.1,0.5S71.7,308.8,72,308.4z"/>
		<path class="st1" d="M78,306.3c0.3,0,0.5-0.1,0.7-0.1c0.2-0.1,0.4-0.3,0.4-0.5c0-0.3-0.1-0.4-0.2-0.5c-0.2-0.1-0.4-0.1-0.8-0.1
			c-0.4,0-0.7,0.1-0.9,0.3c-0.1,0.1-0.2,0.3-0.3,0.6h-1.6c0.1-0.6,0.3-1,0.6-1.4c0.5-0.6,1.3-0.8,2.4-0.8c0.7,0,1.3,0.1,1.8,0.4
			c0.5,0.3,0.7,0.8,0.7,1.6l-0.3,2.9c0,0.2,0,0.4-0.1,0.7c0,0.2,0,0.4,0.1,0.4c0,0.1,0.1,0.1,0.2,0.2l0,0.2h-1.8
			c0-0.1-0.1-0.2-0.1-0.4c0-0.1,0-0.2,0-0.4c-0.3,0.2-0.5,0.5-0.9,0.6c-0.4,0.2-0.8,0.3-1.3,0.3c-0.6,0-1-0.2-1.4-0.5
			c-0.4-0.3-0.5-0.8-0.4-1.4c0.1-0.8,0.4-1.4,1.1-1.7c0.4-0.2,0.9-0.3,1.5-0.4L78,306.3z M79,307c-0.1,0.1-0.2,0.1-0.3,0.2
			c-0.1,0-0.3,0.1-0.5,0.1l-0.4,0.1c-0.4,0.1-0.6,0.1-0.8,0.2c-0.3,0.2-0.4,0.4-0.5,0.7c0,0.3,0,0.5,0.2,0.6
			c0.1,0.1,0.3,0.2,0.6,0.2c0.4,0,0.7-0.1,1-0.3c0.3-0.2,0.5-0.6,0.6-1.2L79,307z"/>
		<path class="st1" d="M85.8,303.9c0.3,0.2,0.5,0.4,0.7,0.7l0.3-3h1.7l-0.8,8.6H86l0.1-0.9c-0.3,0.4-0.6,0.7-0.9,0.8
			c-0.3,0.2-0.7,0.3-1.2,0.3c-0.7,0-1.3-0.3-1.8-0.9c-0.5-0.6-0.6-1.4-0.6-2.3c0.1-1.1,0.4-1.9,1-2.6c0.6-0.6,1.3-0.9,2.1-0.9
			C85.2,303.6,85.5,303.7,85.8,303.9z M85.8,308.4c0.3-0.4,0.4-0.8,0.5-1.4c0.1-0.8-0.1-1.3-0.4-1.7c-0.2-0.2-0.5-0.3-0.8-0.3
			c-0.5,0-0.9,0.2-1.1,0.6c-0.3,0.4-0.4,0.8-0.5,1.4c-0.1,0.6,0,1.1,0.2,1.4c0.2,0.4,0.5,0.5,1,0.5
			C85.2,308.9,85.5,308.8,85.8,308.4z"/>
		<path class="st1" d="M89,311.5c0.3-0.1,0.6-0.2,0.8-0.5c0.2-0.2,0.3-0.5,0.4-0.9h-1l0.2-1.8h1.8l-0.1,1.5c0,0.3-0.1,0.5-0.2,0.8
			c-0.1,0.3-0.2,0.5-0.5,0.8c-0.2,0.2-0.5,0.4-0.8,0.5c-0.3,0.1-0.5,0.2-0.6,0.2L89,311.5z"/>
		<path class="st1" d="M103,303h-4.6l-0.2,1.8h4.2l-0.1,1.5h-4.2l-0.2,2.2h4.8l-0.1,1.6h-6.6l0.8-8.6h6.3L103,303z"/>
		<path class="st1" d="M109.6,304.1c0.4,0.3,0.5,0.9,0.5,1.7l-0.4,4.3H108l0.3-3.9c0-0.3,0-0.6-0.1-0.8c-0.1-0.3-0.4-0.5-0.9-0.5
			c-0.6,0-1,0.2-1.2,0.7c-0.1,0.3-0.2,0.6-0.2,1l-0.3,3.5h-1.7l0.6-6.4h1.6l-0.1,0.9c0.2-0.3,0.5-0.6,0.7-0.7
			c0.4-0.3,0.8-0.4,1.3-0.4C108.7,303.6,109.2,303.8,109.6,304.1z"/>
		<path class="st1" d="M114.9,303.7c0.4,0.2,0.7,0.5,0.9,0.9l0.1-0.9h1.6l-0.5,6.1c-0.1,0.8-0.3,1.4-0.6,1.9
			c-0.5,0.7-1.5,1.1-2.8,1.1c-0.8,0-1.5-0.2-2-0.5c-0.5-0.3-0.7-0.8-0.7-1.4h1.8c0,0.2,0.1,0.3,0.2,0.4c0.2,0.2,0.5,0.2,0.9,0.2
			c0.6,0,1-0.2,1.3-0.6c0.2-0.3,0.3-0.7,0.3-1.3l0-0.4c-0.2,0.3-0.4,0.5-0.6,0.6c-0.4,0.3-0.8,0.4-1.3,0.4c-0.8,0-1.5-0.3-1.9-0.9
			c-0.4-0.6-0.6-1.4-0.5-2.3c0.1-0.9,0.4-1.7,0.9-2.4c0.5-0.6,1.2-1,2.1-1C114.4,303.6,114.7,303.6,114.9,303.7z M115.1,308.3
			c0.3-0.3,0.5-0.8,0.5-1.4c0.1-0.6,0-1.1-0.3-1.4c-0.2-0.3-0.6-0.5-1-0.5c-0.6,0-1,0.3-1.3,0.8c-0.1,0.3-0.2,0.7-0.3,1.1
			c0,0.4,0,0.7,0.1,1c0.2,0.5,0.6,0.8,1.1,0.8C114.5,308.8,114.8,308.6,115.1,308.3z"/>
		<path class="st1" d="M120.3,310.1h-1.7l0.8-8.6h1.7L120.3,310.1z"/>
		<path class="st1" d="M124.8,306.3c0.3,0,0.5-0.1,0.7-0.1c0.2-0.1,0.4-0.3,0.4-0.5c0-0.3-0.1-0.4-0.2-0.5c-0.2-0.1-0.4-0.1-0.8-0.1
			c-0.4,0-0.7,0.1-0.9,0.3c-0.1,0.1-0.2,0.3-0.3,0.6H122c0.1-0.6,0.3-1,0.6-1.4c0.5-0.6,1.3-0.8,2.4-0.8c0.7,0,1.3,0.1,1.8,0.4
			c0.5,0.3,0.7,0.8,0.7,1.6l-0.3,2.9c0,0.2,0,0.4-0.1,0.7c0,0.2,0,0.4,0.1,0.4c0,0.1,0.1,0.1,0.2,0.2l0,0.2h-1.8
			c0-0.1-0.1-0.2-0.1-0.4c0-0.1,0-0.2,0-0.4c-0.3,0.2-0.5,0.5-0.9,0.6c-0.4,0.2-0.8,0.3-1.3,0.3c-0.6,0-1-0.2-1.4-0.5
			c-0.4-0.3-0.5-0.8-0.4-1.4c0.1-0.8,0.4-1.4,1.1-1.7c0.4-0.2,0.9-0.3,1.5-0.4L124.8,306.3z M125.7,307c-0.1,0.1-0.2,0.1-0.3,0.2
			c-0.1,0-0.3,0.1-0.5,0.1l-0.4,0.1c-0.4,0.1-0.6,0.1-0.8,0.2c-0.3,0.2-0.4,0.4-0.5,0.7c0,0.3,0,0.5,0.2,0.6
			c0.1,0.1,0.3,0.2,0.6,0.2c0.4,0,0.7-0.1,1-0.3c0.3-0.2,0.5-0.6,0.6-1.2L125.7,307z"/>
		<path class="st1" d="M134.3,304.1c0.4,0.3,0.5,0.9,0.5,1.7l-0.4,4.3h-1.7l0.3-3.9c0-0.3,0-0.6-0.1-0.8c-0.1-0.3-0.4-0.5-0.9-0.5
			c-0.6,0-1,0.2-1.2,0.7c-0.1,0.3-0.2,0.6-0.2,1l-0.3,3.5h-1.7l0.6-6.4h1.6l-0.1,0.9c0.2-0.3,0.5-0.6,0.7-0.7
			c0.4-0.3,0.8-0.4,1.3-0.4C133.3,303.6,133.9,303.8,134.3,304.1z"/>
		<path class="st1" d="M139.9,303.9c0.3,0.2,0.5,0.4,0.7,0.7l0.3-3h1.7l-0.8,8.6h-1.6l0.1-0.9c-0.3,0.4-0.6,0.7-0.9,0.8
			c-0.3,0.2-0.7,0.3-1.2,0.3c-0.7,0-1.3-0.3-1.8-0.9c-0.5-0.6-0.6-1.4-0.6-2.3c0.1-1.1,0.4-1.9,1-2.6c0.6-0.6,1.3-0.9,2.1-0.9
			C139.2,303.6,139.6,303.7,139.9,303.9z M139.9,308.4c0.3-0.4,0.4-0.8,0.5-1.4c0.1-0.8-0.1-1.3-0.4-1.7c-0.2-0.2-0.5-0.3-0.8-0.3
			c-0.5,0-0.9,0.2-1.1,0.6c-0.3,0.4-0.4,0.8-0.5,1.4c-0.1,0.6,0,1.1,0.2,1.4c0.2,0.4,0.5,0.5,1,0.5
			C139.2,308.9,139.6,308.8,139.9,308.4z"/>
	</g>
</g>
<g>
</g>
<g>
</g>
<g>
</g>
<g>
</g>
<g>
</g>
<g>
</g>
</svg>
