<svg id="OUTLINES" xmlns="http://www.w3.org/2000/svg" viewBox="0 0 1152 1008"><defs><style>.cls-1{fill:#fff;}.cls-2{fill:#000f7c;}</style></defs><title>v5</title><rect class="cls-1" x="256.49" y="256.5" width="648" height="432" rx="18" ry="18"/><path class="cls-1" d="M886.49,694.5h-612a24,24,0,0,1-24-24v-396a24,24,0,0,1,24-24h612a24,24,0,0,1,24,24v396A24,24,0,0,1,886.49,694.5Zm-612-432a12,12,0,0,0-12,12v396a12,12,0,0,0,12,12h612a12,12,0,0,0,12-12v-396a12,12,0,0,0-12-12Z"/><path class="cls-2" d="M922.49,955.39a5,5,0,0,1-5-5V817.15a139.61,139.61,0,0,0-41.16-99.36l-29.42-30.31a5,5,0,1,1,7.17-7l29.37,30.25a149.5,149.5,0,0,1,44,106.38V950.39A5,5,0,0,1,922.49,955.39Z"/><path class="cls-2" d="M725.08,959a5,5,0,0,1-5-5V930.49a77.91,77.91,0,0,1-40.9-68.85V831a5,5,0,0,1,10,0v30.61A68,68,0,0,0,727.3,923a5,5,0,0,1,2.78,4.48V954A5,5,0,0,1,725.08,959Z"/><path class="cls-2" d="M828,220.5H747a31.53,31.53,0,0,1-31.5-31.5V108a4.5,4.5,0,0,1,7.68-3.18l108,108A4.5,4.5,0,0,1,828,220.5ZM724.49,118.86V189A22.53,22.53,0,0,0,747,211.5h70.14Z"/><path class="cls-2" d="M328,349.93V343.1h2.42a7.25,7.25,0,0,0,4.59-1.38,4.71,4.71,0,0,0,1.76-3.93,5.09,5.09,0,0,0-1.49-3.76,5.44,5.44,0,0,0-4-1.49,5.91,5.91,0,0,0-4.39,1.63,6.37,6.37,0,0,0-1.82,4.17h-8.56a14.82,14.82,0,0,1,4.62-9.56A14.36,14.36,0,0,1,331.34,325q6.36,0,10.08,3.42a11.55,11.55,0,0,1,3.73,8.93,11,11,0,0,1-1.45,5.56,8.7,8.7,0,0,1-3.73,3.62,9.37,9.37,0,0,1,4.35,3.73,10.36,10.36,0,0,1,1.51,5.52,12.16,12.16,0,0,1-3.93,9.31q-3.93,3.66-10.56,3.66a16,16,0,0,1-11-3.8,13.78,13.78,0,0,1-4.63-10h8.7a7.36,7.36,0,0,0,2.1,4.59,6.66,6.66,0,0,0,4.8,1.69,6.32,6.32,0,0,0,4.41-1.56,5.58,5.58,0,0,0-.14-8.21,7.31,7.31,0,0,0-4.83-1.55Z"/><path class="cls-2" d="M374.61,365.53v13.93h-8.56V337.24h8.56v2.55a9,9,0,0,1,3.24-2.28,10.85,10.85,0,0,1,4.48-1,12.59,12.59,0,0,1,10.29,4.66,19.27,19.27,0,0,1,0,22.95,12.61,12.61,0,0,1-10.29,4.62,10.69,10.69,0,0,1-4.48-1A8.89,8.89,0,0,1,374.61,365.53Zm0-17.95v10.15a6.12,6.12,0,0,0,2.34,2.59,6.42,6.42,0,0,0,3.45,1,6.65,6.65,0,0,0,5.39-2.42,9.43,9.43,0,0,0,2-6.21,9.55,9.55,0,0,0-2-6.24A6.59,6.59,0,0,0,380.4,344a6.13,6.13,0,0,0-3.41,1A6.76,6.76,0,0,0,374.61,347.58Z"/><path class="cls-2" d="M430.43,352.69a16.28,16.28,0,0,1-4.21,11.59,15.48,15.48,0,0,1-21.8,0,16.23,16.23,0,0,1-4.21-11.59q0-7.17,4.21-11.66a15.48,15.48,0,0,1,21.8,0Q430.42,345.52,430.43,352.69Zm-8.49,0a10.83,10.83,0,0,0-1.76-6.45,6.06,6.06,0,0,0-9.73,0,10.83,10.83,0,0,0-1.76,6.45,10.7,10.7,0,0,0,1.76,6.38,6.06,6.06,0,0,0,9.73,0A10.7,10.7,0,0,0,421.94,352.69Z"/><path class="cls-2" d="M445.19,328.33a4.58,4.58,0,0,1-1.48,3.52,5,5,0,0,1-3.55,1.38,5.09,5.09,0,0,1-3.62-1.38,4.82,4.82,0,0,1,0-7,5.1,5.1,0,0,1,3.59-1.41,5,5,0,0,1,3.55,1.41A4.6,4.6,0,0,1,445.19,328.33Zm-.75,8.91v30.84h-8.56V337.24Z"/><path class="cls-2" d="M451.89,368.08V337.24h8.55v2.82a10.4,10.4,0,0,1,8.28-3.52q5.17,0,8,3.11a11.73,11.73,0,0,1,2.86,8.28v20.15h-8.55V349.72a5.87,5.87,0,0,0-1.28-4,4.68,4.68,0,0,0-3.76-1.49,5.84,5.84,0,0,0-3.55,1.14,5.28,5.28,0,0,0-2,3.14v19.53Z"/><path class="cls-2" d="M488.59,358.76V344.13H483.9v-6.89h4.69v-8.35h8.49v8.35h6.76v6.89h-6.76v13.53c0,2.34,1.17,3.52,3.52,3.52a6.68,6.68,0,0,0,3.73-1v7.59a12,12,0,0,1-5.52,1q-4.83,0-7.52-2.49T488.59,358.76Z"/><path class="cls-2" d="M508.26,358.9h8.49c.69,2.26,2.41,3.38,5.17,3.38s4.35-1,4.35-3a2,2,0,0,0-.73-1.63,6.34,6.34,0,0,0-2.38-1L517,355.24q-8-1.86-8-8.69a8.78,8.78,0,0,1,3.52-7.21,13.64,13.64,0,0,1,8.76-2.8q5.73,0,9,2.52a11,11,0,0,1,4.11,7H526.2q-1-3-4.83-3a5.26,5.26,0,0,0-2.87.76,2.4,2.4,0,0,0-1.2,2.14c0,1.15.92,1.95,2.76,2.41l6.35,1.45q8.21,2,8.21,9a8.7,8.7,0,0,1-3.56,7.32,14.63,14.63,0,0,1-9.07,2.69,15.81,15.81,0,0,1-9.38-2.59A10.35,10.35,0,0,1,508.26,358.9Z"/><path class="cls-2" d="M580.36,368.08h-8.21v-1.66a7.59,7.59,0,0,1-3,1.52,14.69,14.69,0,0,1-4.55.69,12.49,12.49,0,0,1-8.18-2.69,9,9,0,0,1-3.27-7.32,8.74,8.74,0,0,1,3.41-7.1,13.13,13.13,0,0,1,8.52-2.76,15.47,15.47,0,0,1,4,.55,9.68,9.68,0,0,1,3,1.24v-2.27a4.78,4.78,0,0,0-1.27-3.42,5,5,0,0,0-3.77-1.35,4.39,4.39,0,0,0-4.55,2.9h-8.14a11,11,0,0,1,4.24-7.07,13.71,13.71,0,0,1,8.73-2.8q6.14,0,9.56,3.14t3.41,8.73Zm-8.21-8.42v-2.21a4,4,0,0,0-2.1-2,8.08,8.08,0,0,0-3.49-.73,7.29,7.29,0,0,0-3.83,1,3.29,3.29,0,0,0,0,5.65,7.23,7.23,0,0,0,3.86,1,8.22,8.22,0,0,0,3.49-.72A4.07,4.07,0,0,0,572.15,359.66Z"/><path class="cls-2" d="M607.13,368.08v-2.55a8.89,8.89,0,0,1-3.24,2.27,10.69,10.69,0,0,1-4.48,1,12.54,12.54,0,0,1-10.25-4.59,19.48,19.48,0,0,1,0-23,12.52,12.52,0,0,1,10.25-4.63,10.85,10.85,0,0,1,4.48,1,9,9,0,0,1,3.24,2.28V323.23h8.63v44.85Zm0-10.35V347.58a6.22,6.22,0,0,0-2.34-2.58,6.33,6.33,0,0,0-3.45-1,6.55,6.55,0,0,0-5.38,2.45,9.5,9.5,0,0,0-2,6.24,9.38,9.38,0,0,0,2,6.21,6.61,6.61,0,0,0,5.38,2.42,6.34,6.34,0,0,0,3.48-1A6.18,6.18,0,0,0,607.13,357.73Z"/><path class="cls-2" d="M642.94,368.08v-2.55a8.89,8.89,0,0,1-3.24,2.27,10.69,10.69,0,0,1-4.48,1A12.54,12.54,0,0,1,625,364.18a19.48,19.48,0,0,1,0-23,12.52,12.52,0,0,1,10.25-4.63,10.85,10.85,0,0,1,4.48,1,9,9,0,0,1,3.24,2.28V323.23h8.63v44.85Zm0-10.35V347.58A6.16,6.16,0,0,0,640.6,345a6.33,6.33,0,0,0-3.45-1,6.55,6.55,0,0,0-5.38,2.45,9.5,9.5,0,0,0-2,6.24,9.38,9.38,0,0,0,2,6.21,6.61,6.61,0,0,0,5.38,2.42,6.32,6.32,0,0,0,3.48-1A6.18,6.18,0,0,0,642.94,357.73Z"/><path class="cls-2" d="M677.72,358h7.93a12.25,12.25,0,0,1-4.38,7.9,14.33,14.33,0,0,1-9.28,2.87,14.13,14.13,0,0,1-10.83-4.45Q657,359.87,657,352.69a16.55,16.55,0,0,1,4.17-11.56,13.82,13.82,0,0,1,10.66-4.59q6.63,0,10.32,4.18t3.69,11.14v2.63H665.3a8.5,8.5,0,0,0,2,5.41,6.06,6.06,0,0,0,4.69,2Q676.69,361.87,677.72,358Zm-5.8-14.49q-5.24,0-6.41,5.8h11.93a6.28,6.28,0,0,0-1.51-4.17A5.13,5.13,0,0,0,671.92,343.51Z"/><path class="cls-2" d="M711.39,368.08v-2.55a9,9,0,0,1-3.24,2.27,10.7,10.7,0,0,1-4.49,1,12.52,12.52,0,0,1-10.24-4.59,19.48,19.48,0,0,1,0-23,12.5,12.5,0,0,1,10.24-4.63,10.86,10.86,0,0,1,4.49,1,9.11,9.11,0,0,1,3.24,2.28V323.23H720v44.85Zm0-10.35V347.58A6.52,6.52,0,0,0,705.6,344a6.59,6.59,0,0,0-5.39,2.45,9.55,9.55,0,0,0-2,6.24,9.43,9.43,0,0,0,2,6.21,6.65,6.65,0,0,0,5.39,2.42,6.37,6.37,0,0,0,3.48-1A6.25,6.25,0,0,0,711.39,357.73Z"/><path class="cls-2" d="M320.58,438.76V424.13h-4.69v-6.89h4.69v-8.35h8.49v8.35h6.76v6.89h-6.76v13.53c0,2.34,1.17,3.52,3.52,3.52a6.67,6.67,0,0,0,3.72-1v7.59a12,12,0,0,1-5.52,1c-3.22,0-5.72-.83-7.52-2.49S320.58,442.08,320.58,438.76Z"/><path class="cls-2" d="M370.54,432.69a16.28,16.28,0,0,1-4.21,11.59,15.49,15.49,0,0,1-21.81,0,16.28,16.28,0,0,1-4.21-11.59q0-7.17,4.21-11.66a15.49,15.49,0,0,1,21.81,0Q370.53,425.52,370.54,432.69Zm-8.49,0a10.83,10.83,0,0,0-1.76-6.45,6.06,6.06,0,0,0-9.73,0,10.83,10.83,0,0,0-1.76,6.45,10.7,10.7,0,0,0,1.76,6.38,6.06,6.06,0,0,0,9.73,0A10.7,10.7,0,0,0,362.05,432.69Z"/><path class="cls-2" d="M403.52,459.46H395.1l4.48-11.24-11.79-31h9l7.11,20.49,7-20.49h8.62Z"/><path class="cls-2" d="M451.54,432.69a16.23,16.23,0,0,1-4.21,11.59,15.48,15.48,0,0,1-21.8,0,16.23,16.23,0,0,1-4.21-11.59q0-7.17,4.21-11.66a15.48,15.48,0,0,1,21.8,0Q451.54,425.52,451.54,432.69Zm-8.48,0a10.83,10.83,0,0,0-1.76-6.45,6.06,6.06,0,0,0-9.73,0,10.76,10.76,0,0,0-1.76,6.45,10.63,10.63,0,0,0,1.76,6.38,6.06,6.06,0,0,0,9.73,0A10.7,10.7,0,0,0,443.06,432.69Z"/><path class="cls-2" d="M484.32,417.24v30.84h-8.56v-2.83a10.66,10.66,0,0,1-8.28,3.52,10.31,10.31,0,0,1-8-3.11,11.73,11.73,0,0,1-2.86-8.28V417.24h8.55v18.42a6,6,0,0,0,1.25,4,4.61,4.61,0,0,0,3.72,1.45,5.71,5.71,0,0,0,3.52-1.14,5.33,5.33,0,0,0,2-3.14V417.24Z"/><path class="cls-2" d="M510.4,417.1v8.55a8.2,8.2,0,0,0-4.28-1,6.3,6.3,0,0,0-3.79,1.14,5.23,5.23,0,0,0-2.07,3.2v19.12H491.7V417.24h8.56v3a7.46,7.46,0,0,1,6.9-3.73A6.93,6.93,0,0,1,510.4,417.1Z"/><path class="cls-2" d="M539.1,403.23v44.85h-8.56V403.23Z"/><path class="cls-2" d="M555.87,408.33a4.59,4.59,0,0,1-1.49,3.52,5,5,0,0,1-3.55,1.38,5.13,5.13,0,0,1-3.62-1.38,4.84,4.84,0,0,1,0-7,5.1,5.1,0,0,1,3.59-1.41,5,5,0,0,1,3.55,1.41A4.61,4.61,0,0,1,555.87,408.33Zm-.76,8.91v30.84h-8.56V417.24Z"/><path class="cls-2" d="M560.63,432.69q0-7.17,4.14-11.66a15.24,15.24,0,0,1,19.94-1.45,12.4,12.4,0,0,1,4.28,8.07h-8.42a4.37,4.37,0,0,0-1.69-2.79,5.57,5.57,0,0,0-3.42-1,5.4,5.4,0,0,0-4.62,2.41,10.82,10.82,0,0,0-1.72,6.42,10.7,10.7,0,0,0,1.72,6.35,5.4,5.4,0,0,0,4.62,2.41,5.57,5.57,0,0,0,3.42-1,4.32,4.32,0,0,0,1.69-2.79H589a12.41,12.41,0,0,1-4.25,8.07,13.74,13.74,0,0,1-9.28,3,13.89,13.89,0,0,1-10.69-4.49A16.41,16.41,0,0,1,560.63,432.69Z"/><path class="cls-2" d="M613.07,438H621a12.25,12.25,0,0,1-4.38,7.9,14.33,14.33,0,0,1-9.28,2.87,14.13,14.13,0,0,1-10.83-4.45q-4.14-4.45-4.14-11.63a16.55,16.55,0,0,1,4.17-11.56,13.82,13.82,0,0,1,10.66-4.59q6.63,0,10.32,4.18t3.69,11.14v2.63H600.65a8.5,8.5,0,0,0,2,5.41,6,6,0,0,0,4.69,2Q612,441.87,613.07,438Zm-5.8-14.49q-5.24,0-6.41,5.8h11.93a6.24,6.24,0,0,0-1.52-4.17A5.09,5.09,0,0,0,607.27,423.51Z"/><path class="cls-2" d="M626.66,448.08V417.24h8.56v2.82a10.37,10.37,0,0,1,8.28-3.52q5.18,0,8,3.11a11.77,11.77,0,0,1,2.86,8.28v20.15h-8.56V429.72a5.87,5.87,0,0,0-1.27-4,4.71,4.71,0,0,0-3.76-1.49,5.87,5.87,0,0,0-3.56,1.14,5.31,5.31,0,0,0-2,3.14v19.53Z"/><path class="cls-2" d="M659.5,438.9H668c.69,2.26,2.42,3.38,5.18,3.38s4.34-1,4.34-3a2,2,0,0,0-.72-1.63,6.42,6.42,0,0,0-2.38-1l-6.21-1.38q-8-1.86-8-8.69a8.81,8.81,0,0,1,3.52-7.21,13.69,13.69,0,0,1,8.77-2.8c3.81,0,6.82.84,9,2.52a11,11,0,0,1,4.11,7h-8.15q-1-3-4.83-3a5.22,5.22,0,0,0-2.86.76,2.41,2.41,0,0,0-1.21,2.14c0,1.15.92,1.95,2.76,2.41l6.35,1.45q8.21,2,8.21,9a8.69,8.69,0,0,1-3.55,7.32,14.63,14.63,0,0,1-9.07,2.69,15.86,15.86,0,0,1-9.39-2.59A10.35,10.35,0,0,1,659.5,438.9Z"/><path class="cls-2" d="M710.43,438h7.93a12.25,12.25,0,0,1-4.38,7.9,14.33,14.33,0,0,1-9.28,2.87,14.13,14.13,0,0,1-10.83-4.45q-4.14-4.45-4.14-11.63a16.55,16.55,0,0,1,4.17-11.56,13.8,13.8,0,0,1,10.66-4.59q6.63,0,10.32,4.18t3.69,11.14v2.63H698a8.45,8.45,0,0,0,2,5.41,6,6,0,0,0,4.69,2Q709.4,441.87,710.43,438Zm-5.8-14.49q-5.25,0-6.42,5.8h11.94a6.29,6.29,0,0,0-1.52-4.17A5.09,5.09,0,0,0,704.63,423.51Z"/><path class="cls-2" d="M344,528.08h-8.21v-1.66a7.59,7.59,0,0,1-3,1.52,14.69,14.69,0,0,1-4.55.69,12.49,12.49,0,0,1-8.18-2.69,9,9,0,0,1-3.27-7.32,8.71,8.71,0,0,1,3.41-7.1,13.13,13.13,0,0,1,8.52-2.76,15.39,15.39,0,0,1,4,.55,9.76,9.76,0,0,1,3,1.24v-2.27a4.79,4.79,0,0,0-1.28-3.42,4.92,4.92,0,0,0-3.76-1.35,4.39,4.39,0,0,0-4.55,2.9H318.1a11,11,0,0,1,4.24-7.07,13.71,13.71,0,0,1,8.73-2.8q6.14,0,9.56,3.14t3.41,8.73Zm-8.21-8.42v-2.21a4,4,0,0,0-2.1-2,8.08,8.08,0,0,0-3.49-.73,7.29,7.29,0,0,0-3.83,1,3.29,3.29,0,0,0,0,5.65,7.21,7.21,0,0,0,3.86,1,8.22,8.22,0,0,0,3.49-.72A4.07,4.07,0,0,0,335.83,519.66Z"/><path class="cls-2" d="M369.09,483.44v7.24a5.2,5.2,0,0,0-3-.83c-2.8,0-4.21,1.43-4.21,4.28v3.11h6.42v6.89h-6.42v24h-8.42v-24h-5v-6.89h5v-3.66q0-5.18,3-8.08a10.87,10.87,0,0,1,7.94-2.89A11.68,11.68,0,0,1,369.09,483.44Z"/><path class="cls-2" d="M375.37,518.76V504.13h-4.7v-6.89h4.7v-8.35h8.48v8.35h6.76v6.89h-6.76v13.53c0,2.34,1.18,3.52,3.52,3.52a6.68,6.68,0,0,0,3.73-1v7.59a12,12,0,0,1-5.52,1q-4.83,0-7.52-2.49C376.26,524.56,375.37,522.08,375.37,518.76Z"/><path class="cls-2" d="M415.8,518h7.93a12.25,12.25,0,0,1-4.38,7.9,14.33,14.33,0,0,1-9.28,2.87,14.13,14.13,0,0,1-10.83-4.45q-4.14-4.46-4.14-11.63a16.55,16.55,0,0,1,4.17-11.56,13.82,13.82,0,0,1,10.66-4.59q6.63,0,10.32,4.18t3.69,11.14v2.63H403.38a8.5,8.5,0,0,0,2,5.41,6.06,6.06,0,0,0,4.69,2Q414.77,521.87,415.8,518ZM410,503.51q-5.24,0-6.41,5.8h11.93a6.24,6.24,0,0,0-1.52-4.17A5.09,5.09,0,0,0,410,503.51Z"/><path class="cls-2" d="M448.09,497.1v8.55a8.2,8.2,0,0,0-4.28-1,6.3,6.3,0,0,0-3.79,1.14A5.23,5.23,0,0,0,438,509v19.12h-8.56V497.24H438v3a7.46,7.46,0,0,1,6.9-3.73A6.87,6.87,0,0,1,448.09,497.1Z"/><path class="cls-2" d="M481.14,539.46h-8.42l4.49-11.24-11.8-31h9l7.1,20.49,7-20.49h8.63Z"/><path class="cls-2" d="M529.17,512.69A16.28,16.28,0,0,1,525,524.28a15.49,15.49,0,0,1-21.81,0,16.28,16.28,0,0,1-4.21-11.59q0-7.17,4.21-11.66A15.49,15.49,0,0,1,525,501Q529.16,505.52,529.17,512.69Zm-8.49,0a10.83,10.83,0,0,0-1.76-6.45,6.06,6.06,0,0,0-9.73,0,10.83,10.83,0,0,0-1.76,6.45,10.7,10.7,0,0,0,1.76,6.38,6.06,6.06,0,0,0,9.73,0A10.7,10.7,0,0,0,520.68,512.69Z"/><path class="cls-2" d="M561.94,497.24v30.84h-8.56v-2.83a10.63,10.63,0,0,1-8.28,3.52,10.31,10.31,0,0,1-8-3.11,11.73,11.73,0,0,1-2.86-8.28V497.24h8.56v18.42a6,6,0,0,0,1.24,4,4.62,4.62,0,0,0,3.72,1.45,5.69,5.69,0,0,0,3.52-1.14,5.29,5.29,0,0,0,2-3.14V497.24Z"/><path class="cls-2" d="M588,497.1v8.55a8.17,8.17,0,0,0-4.28-1,6.32,6.32,0,0,0-3.79,1.14,5.23,5.23,0,0,0-2.07,3.2v19.12h-8.56V497.24h8.56v3a7.46,7.46,0,0,1,6.9-3.73A6.87,6.87,0,0,1,588,497.1Z"/><path class="cls-2" d="M626.87,497.1v8.55a8.2,8.2,0,0,0-4.28-1,6.36,6.36,0,0,0-3.8,1.14,5.32,5.32,0,0,0-2.07,3.2v19.12h-8.55V497.24h8.55v3a7.48,7.48,0,0,1,6.9-3.73A7,7,0,0,1,626.87,497.1Z"/><path class="cls-2" d="M650.4,518h7.93a12.25,12.25,0,0,1-4.38,7.9,14.33,14.33,0,0,1-9.28,2.87,14.13,14.13,0,0,1-10.83-4.45q-4.14-4.46-4.14-11.63a16.55,16.55,0,0,1,4.17-11.56,13.8,13.8,0,0,1,10.66-4.59q6.63,0,10.32,4.18t3.69,11.14v2.63H638a8.5,8.5,0,0,0,2,5.41,6,6,0,0,0,4.69,2Q649.37,521.87,650.4,518Zm-5.8-14.49c-3.5,0-5.63,1.94-6.42,5.8h11.94a6.24,6.24,0,0,0-1.52-4.17A5.09,5.09,0,0,0,644.6,503.51Z"/><path class="cls-2" d="M662.33,512.69q0-7.17,4.14-11.66a15.26,15.26,0,0,1,19.95-1.45,12.39,12.39,0,0,1,4.27,8.07h-8.41a4.42,4.42,0,0,0-1.7-2.79,5.52,5.52,0,0,0-3.41-1,5.4,5.4,0,0,0-4.62,2.41,10.82,10.82,0,0,0-1.73,6.42,10.7,10.7,0,0,0,1.73,6.35,5.4,5.4,0,0,0,4.62,2.41,5.52,5.52,0,0,0,3.41-1,4.37,4.37,0,0,0,1.7-2.79h8.41a12.4,12.4,0,0,1-4.24,8.07,13.76,13.76,0,0,1-9.28,3,13.91,13.91,0,0,1-10.7-4.49A16.41,16.41,0,0,1,662.33,512.69Z"/><path class="cls-2" d="M714.77,518h7.94a12.25,12.25,0,0,1-4.38,7.9,14.35,14.35,0,0,1-9.28,2.87,14.14,14.14,0,0,1-10.84-4.45q-4.14-4.46-4.14-11.63a16.51,16.51,0,0,1,4.18-11.56,13.79,13.79,0,0,1,10.66-4.59q6.62,0,10.31,4.18t3.7,11.14v2.63H702.35a8.56,8.56,0,0,0,2,5.41,6.07,6.07,0,0,0,4.7,2Q713.73,521.87,714.77,518ZM709,503.51q-5.25,0-6.42,5.8H714.5a6.29,6.29,0,0,0-1.52-4.17A5.1,5.1,0,0,0,709,503.51Z"/><path class="cls-2" d="M728.37,528.08V497.24h8.55v2.82a10.4,10.4,0,0,1,8.28-3.52q5.17,0,8,3.11a11.73,11.73,0,0,1,2.86,8.28v20.15h-8.55V509.72a5.87,5.87,0,0,0-1.28-4,4.68,4.68,0,0,0-3.76-1.49,5.84,5.84,0,0,0-3.55,1.14,5.28,5.28,0,0,0-2,3.14v19.53Z"/><path class="cls-2" d="M765.07,518.76V504.13h-4.69v-6.89h4.69v-8.35h8.49v8.35h6.76v6.89h-6.76v13.53c0,2.34,1.17,3.52,3.52,3.52a6.7,6.7,0,0,0,3.73-1v7.59a12,12,0,0,1-5.52,1q-4.83,0-7.53-2.49T765.07,518.76Z"/><path class="cls-2" d="M337.42,577.1v8.55a8.2,8.2,0,0,0-4.28-1,6.36,6.36,0,0,0-3.8,1.14,5.32,5.32,0,0,0-2.07,3.2v19.12h-8.55V577.24h8.55v3a7.48,7.48,0,0,1,6.9-3.73A7,7,0,0,1,337.42,577.1Z"/><path class="cls-2" d="M369.78,592.69a16.23,16.23,0,0,1-4.21,11.59,15.48,15.48,0,0,1-21.8,0,16.23,16.23,0,0,1-4.21-11.59q0-7.17,4.21-11.66a15.48,15.48,0,0,1,21.8,0Q369.79,585.52,369.78,592.69Zm-8.49,0a10.76,10.76,0,0,0-1.76-6.45,6.06,6.06,0,0,0-9.73,0,10.83,10.83,0,0,0-1.76,6.45,10.7,10.7,0,0,0,1.76,6.38,6.06,6.06,0,0,0,9.73,0A10.63,10.63,0,0,0,361.29,592.69Z"/><path class="cls-2" d="M399.93,608.08h-8.21v-1.66a7.59,7.59,0,0,1-3,1.52,14.69,14.69,0,0,1-4.55.69,12.49,12.49,0,0,1-8.18-2.69,9,9,0,0,1-3.27-7.32,8.71,8.71,0,0,1,3.41-7.1,13.13,13.13,0,0,1,8.52-2.76,15.39,15.39,0,0,1,4,.55,9.76,9.76,0,0,1,3,1.24v-2.27a4.79,4.79,0,0,0-1.28-3.42,4.92,4.92,0,0,0-3.76-1.35,4.39,4.39,0,0,0-4.55,2.9H374a11,11,0,0,1,4.24-7.07,13.71,13.71,0,0,1,8.73-2.8q6.14,0,9.56,3.14t3.41,8.73Zm-8.21-8.42v-2.21a4,4,0,0,0-2.1-2,8.08,8.08,0,0,0-3.49-.73,7.29,7.29,0,0,0-3.83,1,3.29,3.29,0,0,0,0,5.65,7.21,7.21,0,0,0,3.86,1,8.22,8.22,0,0,0,3.49-.72A4.07,4.07,0,0,0,391.72,599.66Z"/><path class="cls-2" d="M426,608.08v-2.55a9,9,0,0,1-3.24,2.27,10.7,10.7,0,0,1-4.49,1A12.52,12.52,0,0,1,408,604.18a19.48,19.48,0,0,1,0-23,12.5,12.5,0,0,1,10.24-4.63,10.86,10.86,0,0,1,4.49,1,9.11,9.11,0,0,1,3.24,2.28V563.23h8.63v44.85Zm0-10.35V587.58a6.22,6.22,0,0,0-2.34-2.58,6.33,6.33,0,0,0-3.45-1,6.59,6.59,0,0,0-5.39,2.45,9.55,9.55,0,0,0-2,6.24,9.43,9.43,0,0,0,2,6.21,6.65,6.65,0,0,0,5.39,2.42,6.34,6.34,0,0,0,3.48-1A6.18,6.18,0,0,0,426,597.73Z"/><path class="cls-2" d="M457.13,598.76V584.13h-4.69v-6.89h4.69v-8.35h8.49v8.35h6.76v6.89h-6.76v13.53c0,2.34,1.17,3.52,3.52,3.52a6.67,6.67,0,0,0,3.72-1v7.59a12,12,0,0,1-5.52,1c-3.22,0-5.72-.83-7.52-2.49S457.13,602.08,457.13,598.76Z"/><path class="cls-2" d="M497.08,577.1v8.55a8.2,8.2,0,0,0-4.28-1,6.3,6.3,0,0,0-3.79,1.14,5.23,5.23,0,0,0-2.07,3.2v19.12h-8.56V577.24h8.56v3a7.46,7.46,0,0,1,6.9-3.73A6.87,6.87,0,0,1,497.08,577.1Z"/><path class="cls-2" d="M526.27,608.08h-8.21v-1.66a7.75,7.75,0,0,1-3,1.52,14.74,14.74,0,0,1-4.55.69,12.47,12.47,0,0,1-8.18-2.69,9,9,0,0,1-3.28-7.32,8.72,8.72,0,0,1,3.42-7.1,13.09,13.09,0,0,1,8.52-2.76,15.39,15.39,0,0,1,4,.55,9.86,9.86,0,0,1,3,1.24v-2.27a4.79,4.79,0,0,0-1.28-3.42,4.92,4.92,0,0,0-3.76-1.35,4.39,4.39,0,0,0-4.55,2.9h-8.15a11,11,0,0,1,4.25-7.07,13.71,13.71,0,0,1,8.73-2.8q6.13,0,9.55,3.14t3.42,8.73Zm-8.21-8.42v-2.21a4,4,0,0,0-2.11-2,8,8,0,0,0-3.48-.73,7.29,7.29,0,0,0-3.83,1,3.29,3.29,0,0,0,0,5.65,7.27,7.27,0,0,0,3.87,1,8.17,8.17,0,0,0,3.48-.72A4.05,4.05,0,0,0,518.06,599.66Z"/><path class="cls-2" d="M550.62,563.44v7.24a5.14,5.14,0,0,0-3-.83q-4.22,0-4.21,4.28v3.11h6.42v6.89h-6.42v24H535v-24h-5v-6.89h5v-3.66q0-5.18,3-8.08a10.87,10.87,0,0,1,7.93-2.89A11.64,11.64,0,0,1,550.62,563.44Z"/><path class="cls-2" d="M572.43,563.44v7.24a5.2,5.2,0,0,0-3-.83q-4.21,0-4.21,4.28v3.11h6.42v6.89h-6.42v24h-8.42v-24h-5v-6.89h5v-3.66q0-5.18,3-8.08a10.87,10.87,0,0,1,7.94-2.89A11.68,11.68,0,0,1,572.43,563.44Z"/><path class="cls-2" d="M585.47,568.33a4.59,4.59,0,0,1-1.49,3.52,5,5,0,0,1-3.55,1.38,5.11,5.11,0,0,1-3.62-1.38,4.84,4.84,0,0,1,0-7,5.1,5.1,0,0,1,3.59-1.41,5,5,0,0,1,3.55,1.41A4.61,4.61,0,0,1,585.47,568.33Zm-.76,8.91v30.84h-8.56V577.24Z"/><path class="cls-2" d="M589.54,592.69q0-7.17,4.14-11.66a15.24,15.24,0,0,1,19.94-1.45,12.4,12.4,0,0,1,4.28,8.07h-8.42a4.37,4.37,0,0,0-1.69-2.79,5.57,5.57,0,0,0-3.42-1,5.4,5.4,0,0,0-4.62,2.41,10.82,10.82,0,0,0-1.72,6.42,10.7,10.7,0,0,0,1.72,6.35,5.4,5.4,0,0,0,4.62,2.41,5.57,5.57,0,0,0,3.42-1,4.32,4.32,0,0,0,1.69-2.79h8.42a12.41,12.41,0,0,1-4.25,8.07,15.28,15.28,0,0,1-20-1.45A16.41,16.41,0,0,1,589.54,592.69Z"/><path class="cls-2" d="M664.68,592.69a16.28,16.28,0,0,1-4.21,11.59,15.48,15.48,0,0,1-21.8,0,16.23,16.23,0,0,1-4.21-11.59q0-7.17,4.21-11.66a15.48,15.48,0,0,1,21.8,0Q664.67,585.52,664.68,592.69Zm-8.49,0a10.83,10.83,0,0,0-1.76-6.45,6.06,6.06,0,0,0-9.73,0,10.83,10.83,0,0,0-1.76,6.45,10.7,10.7,0,0,0,1.76,6.38,6.06,6.06,0,0,0,9.73,0A10.7,10.7,0,0,0,656.19,592.69Z"/><path class="cls-2" d="M687.52,563.44v7.24a5.2,5.2,0,0,0-3-.83q-4.22,0-4.21,4.28v3.11h6.42v6.89h-6.42v24h-8.42v-24h-5v-6.89h5v-3.66q0-5.18,3-8.08a10.87,10.87,0,0,1,7.94-2.89A11.68,11.68,0,0,1,687.52,563.44Z"/><path class="cls-2" d="M709.32,563.44v7.24a5.16,5.16,0,0,0-3-.83q-4.2,0-4.2,4.28v3.11h6.41v6.89h-6.41v24h-8.42v-24h-5v-6.89h5v-3.66q0-5.18,3-8.08a10.89,10.89,0,0,1,7.94-2.89A11.64,11.64,0,0,1,709.32,563.44Z"/><path class="cls-2" d="M731.33,598h7.94a12.33,12.33,0,0,1-4.38,7.9,14.36,14.36,0,0,1-9.29,2.87,14.13,14.13,0,0,1-10.83-4.45q-4.14-4.46-4.14-11.63a16.51,16.51,0,0,1,4.18-11.56,13.79,13.79,0,0,1,10.66-4.59q6.62,0,10.31,4.18t3.69,11.14v2.63H718.91a8.56,8.56,0,0,0,2,5.41,6.06,6.06,0,0,0,4.69,2Q730.3,601.87,731.33,598Zm-5.79-14.49q-5.25,0-6.42,5.8h11.94a6.34,6.34,0,0,0-1.52-4.17A5.1,5.1,0,0,0,725.54,583.51Z"/><path class="cls-2" d="M744.23,608.08V577.24h8.56v2.82a10.37,10.37,0,0,1,8.28-3.52q5.17,0,8,3.11a11.73,11.73,0,0,1,2.86,8.28v20.15h-8.55V589.72a5.87,5.87,0,0,0-1.28-4,4.68,4.68,0,0,0-3.76-1.49,5.81,5.81,0,0,0-3.55,1.14,5.28,5.28,0,0,0-2,3.14v19.53Z"/><path class="cls-2" d="M776.46,592.69q0-7.17,4.14-11.66a15.24,15.24,0,0,1,19.94-1.45,12.45,12.45,0,0,1,4.28,8.07H796.4a4.41,4.41,0,0,0-1.69-2.79,5.57,5.57,0,0,0-3.42-1,5.4,5.4,0,0,0-4.62,2.41,10.82,10.82,0,0,0-1.73,6.42,10.7,10.7,0,0,0,1.73,6.35,5.4,5.4,0,0,0,4.62,2.41,5.57,5.57,0,0,0,3.42-1,4.36,4.36,0,0,0,1.69-2.79h8.42a12.45,12.45,0,0,1-4.25,8.07,15.28,15.28,0,0,1-20-1.45A16.41,16.41,0,0,1,776.46,592.69Z"/><path class="cls-2" d="M828.21,598h7.93a12.25,12.25,0,0,1-4.38,7.9,14.33,14.33,0,0,1-9.28,2.87,14.13,14.13,0,0,1-10.83-4.45q-4.14-4.46-4.14-11.63a16.55,16.55,0,0,1,4.17-11.56,13.8,13.8,0,0,1,10.66-4.59q6.63,0,10.32,4.18t3.69,11.14v2.63H815.79a8.45,8.45,0,0,0,2,5.41,6,6,0,0,0,4.69,2Q827.18,601.87,828.21,598Zm-5.8-14.49q-5.25,0-6.42,5.8h11.94a6.29,6.29,0,0,0-1.52-4.17A5.09,5.09,0,0,0,822.41,583.51Z"/><path class="cls-2" d="M882,690H270a24,24,0,0,1-24-24V270a24,24,0,0,1,24-24H882a24,24,0,0,1,24,24V666A24,24,0,0,1,882,690ZM270,258a12,12,0,0,0-12,12V666a12,12,0,0,0,12,12H882a12,12,0,0,0,12-12V270a12,12,0,0,0-12-12Z"/><path class="cls-2" d="M794.19,930.44a5,5,0,0,1-3.79-1.74,78.35,78.35,0,0,1-2.79-98.85l-60.29-67A38.59,38.59,0,0,1,755.58,698h.47a5,5,0,0,1,3.47,1.46L866.09,806.05a5,5,0,1,1-7.07,7.07L754,708.05a28.6,28.6,0,0,0-19.27,48.08l63.22,70.21A5,5,0,0,1,798,833a68.37,68.37,0,0,0,0,89.22,5,5,0,0,1-3.78,8.27Z"/><path class="cls-2" d="M792.63,832.45H342.18a22.52,22.52,0,0,1-22.5-22.5V684a4.5,4.5,0,0,1,4.5-4.5h504a4.49,4.49,0,0,1,4.5,4.5v91.21A4.5,4.5,0,0,1,825,778.4l-70.85-70.86a29.1,29.1,0,0,0-19.83,48.93L796,824.94a4.5,4.5,0,0,1-3.34,7.51Zm-463.95-144V810a13.51,13.51,0,0,0,13.5,13.5H782.52l-54.83-60.9a38.09,38.09,0,0,1,27.89-64H756a4.46,4.46,0,0,1,3.14,1.32l64.52,64.52V688.5Z"/><path class="cls-2" d="M828.18,256.5h-504a4.51,4.51,0,0,1-4.5-4.5V126a22.52,22.52,0,0,1,22.5-22.5H720a4.5,4.5,0,0,1,3.18,1.31l108.19,108a4.49,4.49,0,0,1,1.32,3.19v36A4.5,4.5,0,0,1,828.18,256.5Zm-499.5-9h495V217.87L718.13,112.5H342.18a13.51,13.51,0,0,0-13.5,13.5Z"/><path class="cls-2" d="M544.49,169.5H360a4.5,4.5,0,0,1,0-9h184.5a4.5,4.5,0,0,1,0,9Z"/><path class="cls-2" d="M544.49,195H360a4.5,4.5,0,0,1,0-9h184.5a4.5,4.5,0,0,1,0,9Z"/><path class="cls-2" d="M544.49,726H360a4.5,4.5,0,0,1,0-9h184.5a4.5,4.5,0,0,1,0,9Z"/><path class="cls-2" d="M544.49,751.5H360a4.5,4.5,0,0,1,0-9h184.5a4.5,4.5,0,0,1,0,9Z"/><path class="cls-2" d="M544.49,220.5H360a4.5,4.5,0,0,1,0-9h184.5a4.5,4.5,0,0,1,0,9Z"/></svg>