<svg id="OUTLINES" xmlns="http://www.w3.org/2000/svg" viewBox="0 0 1152 1008"><defs><style>.cls-1{fill:#fff;}.cls-2{fill:#000f7c;}</style></defs><title>v5</title><rect class="cls-1" x="616.49" y="445.55" width="432" height="99" rx="18" ry="18"/><path class="cls-1" d="M1030.49,550.55h-396a24,24,0,0,1-24-24v-63a24,24,0,0,1,24-24h396a24,24,0,0,1,24,24v63A24,24,0,0,1,1030.49,550.55Zm-396-99a12,12,0,0,0-12,12v63a12,12,0,0,0,12,12h396a12,12,0,0,0,12-12v-63a12,12,0,0,0-12-12Z"/><path class="cls-2" d="M1066.3,811.39a5,5,0,0,1-5-5V673.15a139.56,139.56,0,0,0-41.16-99.36l-30.25-30.25a5,5,0,1,1,7.07-7.07l30.25,30.25a149.5,149.5,0,0,1,44.09,106.43V806.39A5,5,0,0,1,1066.3,811.39Z"/><path class="cls-2" d="M868.9,815a5,5,0,0,1-5-5V786.49A77.9,77.9,0,0,1,823,717.64V687a5,5,0,0,1,10,0v30.61A68,68,0,0,0,871.11,779a5,5,0,0,1,2.79,4.48V810A5,5,0,0,1,868.9,815Z"/><path class="cls-2" d="M828,657.45a23,23,0,1,1,23-23A23,23,0,0,1,828,657.45Zm0-36a13,13,0,1,0,13,13A13,13,0,0,0,828,621.45Z"/><path class="cls-2" d="M938,786.44a5,5,0,0,1-3.79-1.74,78.35,78.35,0,0,1-2.79-98.85l-60.29-67A38.59,38.59,0,0,1,899.39,554h.48a5,5,0,0,1,3.46,1.46L1009.9,662.05a5,5,0,1,1-7.07,7.07L897.77,564.05a28.6,28.6,0,0,0-19.28,48.08l63.22,70.21a5,5,0,0,1,.07,6.61,68.37,68.37,0,0,0,0,89.22,5,5,0,0,1-3.78,8.27Z"/><path class="cls-2" d="M972,302H684a5,5,0,0,1-5-5V198a23,23,0,0,1,23-23H954a23,23,0,0,1,23,23V297A5,5,0,0,1,972,302ZM689,292H967V198a13,13,0,0,0-13-13H702a13,13,0,0,0-13,13Z"/><path class="cls-2" d="M936.44,689H702a23,23,0,0,1-23-23V540a5,5,0,0,1,5-5H972a5,5,0,0,1,5,5v91.21a5,5,0,0,1-8.53,3.54l-33.23-33.2-37.51-37.49a28.59,28.59,0,0,0-19.23,48.06l61.66,68.49a5,5,0,0,1-3.71,8.34ZM689,545V666a13,13,0,0,0,13,13H925.21l-54.08-60.06A38.59,38.59,0,0,1,899.39,554a6.34,6.34,0,0,1,1,.08,5,5,0,0,1,3,1.43c12.44,12.45,25.92,25.92,39,39L967,619.14V545Zm211,9.06Zm-.07,0h0Zm0,0h0Z"/><path class="cls-2" d="M1026,447H630a24,24,0,0,1-24-24V315a24,24,0,0,1,24-24h396a24,24,0,0,1,24,24V423A24,24,0,0,1,1026,447ZM630,303a12,12,0,0,0-12,12V423a12,12,0,0,0,12,12h396a12,12,0,0,0,12-12V315a12,12,0,0,0-12-12Z"/><path class="cls-2" d="M1026,546H630a24,24,0,0,1-24-24V459a24,24,0,0,1,24-24h396a24,24,0,0,1,24,24v63A24,24,0,0,1,1026,546ZM630,447a12,12,0,0,0-12,12v63a12,12,0,0,0,12,12h396a12,12,0,0,0,12-12V459a12,12,0,0,0-12-12Z"/><path class="cls-2" d="M685,496.12H691c.75,2.38,2.58,3.56,5.49,3.56a5.61,5.61,0,0,0,3.37-.92,3,3,0,0,0,1.26-2.55,2.54,2.54,0,0,0-.78-2,5.76,5.76,0,0,0-2.59-1.13l-5-1.12q-7-1.58-7-7.56a7.72,7.72,0,0,1,2.79-6.13,10.61,10.61,0,0,1,7.15-2.38,11.58,11.58,0,0,1,7.36,2.18,9.51,9.51,0,0,1,3.49,5.83h-5.72q-1.12-3.29-5.08-3.29a5.25,5.25,0,0,0-3.17.88,2.78,2.78,0,0,0-1.2,2.36c0,1.54,1,2.54,3.11,3l5,1.17q7.25,1.67,7.24,7.79a7.65,7.65,0,0,1-2.88,6.25,11.33,11.33,0,0,1-7.38,2.34,12.88,12.88,0,0,1-7.69-2.2A9.31,9.31,0,0,1,685,496.12Z"/><path class="cls-2" d="M710.54,504V474.75h5.58v11a7.66,7.66,0,0,1,10.65-.27,7.67,7.67,0,0,1,1.86,5.4V504h-5.58V492a3.87,3.87,0,0,0-.83-2.59,3.08,3.08,0,0,0-2.45-1,3.81,3.81,0,0,0-2.32.75,3.42,3.42,0,0,0-1.33,2V504Z"/><path class="cls-2" d="M749.78,504h-5.35v-1.08a5,5,0,0,1-1.94,1,9.62,9.62,0,0,1-3,.45,8.11,8.11,0,0,1-5.33-1.75,5.86,5.86,0,0,1-2.14-4.77,5.69,5.69,0,0,1,2.23-4.64,8.57,8.57,0,0,1,5.56-1.8,10.12,10.12,0,0,1,2.61.36,6.34,6.34,0,0,1,2,.81v-1.48a3.12,3.12,0,0,0-.83-2.23,3.23,3.23,0,0,0-2.46-.88,2.86,2.86,0,0,0-3,1.89h-5.31a7.12,7.12,0,0,1,2.77-4.61,10.19,10.19,0,0,1,11.93.22,7.38,7.38,0,0,1,2.22,5.7Zm-5.35-5.49v-1.44a2.62,2.62,0,0,0-1.37-1.28,5.29,5.29,0,0,0-2.28-.47,4.81,4.81,0,0,0-2.5.63,2.15,2.15,0,0,0,0,3.68,4.67,4.67,0,0,0,2.52.64,5.29,5.29,0,0,0,2.28-.48A2.62,2.62,0,0,0,744.43,498.51Z"/><path class="cls-2" d="M766.52,483.79v5.59a5.34,5.34,0,0,0-2.79-.68,4.15,4.15,0,0,0-2.47.74,3.44,3.44,0,0,0-1.35,2.1V504h-5.58V483.88h5.58v2a4.86,4.86,0,0,1,4.5-2.43A4.67,4.67,0,0,1,766.52,483.79Z"/><path class="cls-2" d="M781.87,497.43H787a8,8,0,0,1-2.85,5.15,9.35,9.35,0,0,1-6.06,1.87,9.21,9.21,0,0,1-7.06-2.9,11.9,11.9,0,0,1,0-15.12,9,9,0,0,1,6.95-3,8.51,8.51,0,0,1,6.73,2.72,10.59,10.59,0,0,1,2.41,7.27v1.7H773.77a5.57,5.57,0,0,0,1.3,3.54,4,4,0,0,0,3.06,1.28Q781.19,500,781.87,497.43ZM778.09,488q-3.42,0-4.19,3.78h7.79a4.09,4.09,0,0,0-1-2.72A3.31,3.31,0,0,0,778.09,488Z"/><path class="cls-2" d="M805.85,502.34v9.09h-5.58V483.88h5.58v1.67a5.89,5.89,0,0,1,2.12-1.48,7,7,0,0,1,2.92-.63,8.21,8.21,0,0,1,6.71,3,12.58,12.58,0,0,1,0,15,8.22,8.22,0,0,1-6.71,3,7,7,0,0,1-2.92-.63A5.89,5.89,0,0,1,805.85,502.34Zm0-11.71v6.62a4.07,4.07,0,0,0,1.53,1.69,4.18,4.18,0,0,0,2.25.65,4.32,4.32,0,0,0,3.51-1.57,6.17,6.17,0,0,0,1.31-4.06,6.25,6.25,0,0,0-1.31-4.07,4.31,4.31,0,0,0-3.51-1.6,4,4,0,0,0-2.23.66A4.46,4.46,0,0,0,805.85,490.63Z"/><path class="cls-2" d="M840.19,504h-5.36v-1.08a4.93,4.93,0,0,1-1.93,1,9.62,9.62,0,0,1-3,.45,8.15,8.15,0,0,1-5.34-1.75,5.85,5.85,0,0,1-2.13-4.77,5.71,5.71,0,0,1,2.22-4.64,8.57,8.57,0,0,1,5.56-1.8,10.12,10.12,0,0,1,2.61.36,6.34,6.34,0,0,1,2,.81v-1.48a3.12,3.12,0,0,0-.83-2.23,3.21,3.21,0,0,0-2.45-.88,2.86,2.86,0,0,0-3,1.89h-5.31a7.15,7.15,0,0,1,2.76-4.61,10.19,10.19,0,0,1,11.93.22,7.39,7.39,0,0,1,2.23,5.7Zm-5.36-5.49v-1.44a2.62,2.62,0,0,0-1.37-1.28,5.24,5.24,0,0,0-2.27-.47,4.79,4.79,0,0,0-2.5.63,2.14,2.14,0,0,0,0,3.68,4.67,4.67,0,0,0,2.52.64,5.24,5.24,0,0,0,2.27-.48A2.62,2.62,0,0,0,834.83,498.51Z"/><path class="cls-2" d="M843.43,498H849c.45,1.47,1.58,2.2,3.38,2.2s2.83-.66,2.83-2a1.31,1.31,0,0,0-.47-1.06,4.24,4.24,0,0,0-1.55-.65l-4-.9q-5.22-1.22-5.22-5.67a5.72,5.72,0,0,1,2.29-4.7,8.89,8.89,0,0,1,5.72-1.82,9.39,9.39,0,0,1,5.87,1.64,7.18,7.18,0,0,1,2.68,4.56h-5.31c-.42-1.31-1.47-2-3.15-2a3.43,3.43,0,0,0-1.87.49,1.56,1.56,0,0,0-.79,1.39c0,.76.6,1.28,1.8,1.58l4.14.95q5.36,1.31,5.36,5.85a5.68,5.68,0,0,1-2.32,4.77,9.55,9.55,0,0,1-5.92,1.75,10.32,10.32,0,0,1-6.12-1.69A6.73,6.73,0,0,1,843.43,498Z"/><path class="cls-2" d="M863.09,498h5.54c.45,1.47,1.57,2.2,3.37,2.2s2.84-.66,2.84-2a1.29,1.29,0,0,0-.48-1.06,4.16,4.16,0,0,0-1.55-.65l-4-.9q-5.22-1.22-5.22-5.67a5.73,5.73,0,0,1,2.3-4.7,8.86,8.86,0,0,1,5.71-1.82,9.37,9.37,0,0,1,5.87,1.64,7.14,7.14,0,0,1,2.68,4.56h-5.31c-.42-1.31-1.47-2-3.15-2a3.45,3.45,0,0,0-1.87.49,1.58,1.58,0,0,0-.79,1.39c0,.76.61,1.28,1.81,1.58l4.14.95c3.56.87,5.35,2.82,5.35,5.85A5.65,5.65,0,0,1,878,502.7a9.51,9.51,0,0,1-5.91,1.75,10.32,10.32,0,0,1-6.12-1.69A6.71,6.71,0,0,1,863.09,498Z"/><path class="cls-2" d="M898.37,483.88l3.33,12.83,3.6-12.83h5.4L904.58,504h-5.13l-3.28-12.33L892.88,504h-5.13l-6.12-20.12h5.58l3.6,12.83,3.29-12.83Z"/><path class="cls-2" d="M931.94,494a10.61,10.61,0,0,1-2.74,7.57,10.12,10.12,0,0,1-14.22,0,11.84,11.84,0,0,1,0-15.17,10.12,10.12,0,0,1,14.22,0A10.67,10.67,0,0,1,931.94,494Zm-5.53,0a7.08,7.08,0,0,0-1.15-4.2,4,4,0,0,0-6.35,0,8.25,8.25,0,0,0,0,8.37,4,4,0,0,0,6.35,0A7,7,0,0,0,926.41,494Z"/><path class="cls-2" d="M947.69,483.79v5.59a5.34,5.34,0,0,0-2.79-.68,4.15,4.15,0,0,0-2.47.74,3.44,3.44,0,0,0-1.35,2.1V504H935.5V483.88h5.58v2a4.86,4.86,0,0,1,4.5-2.43A4.67,4.67,0,0,1,947.69,483.79Z"/><path class="cls-2" d="M963.71,504v-1.66a5.84,5.84,0,0,1-2.11,1.48,7.05,7.05,0,0,1-2.93.63,8.18,8.18,0,0,1-6.68-3,12.72,12.72,0,0,1,0-15,8.14,8.14,0,0,1,6.68-3,7.05,7.05,0,0,1,2.93.63,5.84,5.84,0,0,1,2.11,1.48v-10.8h5.63V504Zm0-6.75v-6.62a4,4,0,0,0-1.53-1.68,4.1,4.1,0,0,0-2.25-.66,4.31,4.31,0,0,0-3.51,1.6,6.25,6.25,0,0,0-1.3,4.07,6.16,6.16,0,0,0,1.3,4.06,4.32,4.32,0,0,0,3.51,1.57,4.17,4.17,0,0,0,3.78-2.34Z"/><path class="cls-2" d="M658.73,351.23h5.94q.36,4,4.05,4,4.28,0,4.27-5.26v-17.6h5.76V350q0,5.13-2.7,7.79a11.38,11.38,0,0,1-14.44.13A9.81,9.81,0,0,1,658.73,351.23Z"/><path class="cls-2" d="M701.84,350a10.61,10.61,0,0,1-2.75,7.56,10.12,10.12,0,0,1-14.22,0,11.87,11.87,0,0,1,0-15.17,10.12,10.12,0,0,1,14.22,0A10.68,10.68,0,0,1,701.84,350Zm-5.54,0a7,7,0,0,0-1.15-4.21,3.94,3.94,0,0,0-6.34,0,7,7,0,0,0-1.15,4.21,6.94,6.94,0,0,0,1.15,4.16,3.94,3.94,0,0,0,6.34,0A6.94,6.94,0,0,0,696.3,350Z"/><path class="cls-2" d="M705.39,360V330.75H711v11a7.65,7.65,0,0,1,10.64-.27,7.63,7.63,0,0,1,1.87,5.4V360H717.9V348a3.87,3.87,0,0,0-.83-2.59,3.07,3.07,0,0,0-2.45-1,3.78,3.78,0,0,0-2.32.74,3.42,3.42,0,0,0-1.33,2V360Z"/><path class="cls-2" d="M728.12,360V339.89h5.58v1.84a7.65,7.65,0,0,1,10.64-.27,7.68,7.68,0,0,1,1.87,5.4V360h-5.58V348a3.82,3.82,0,0,0-.84-2.59,3.06,3.06,0,0,0-2.45-1,3.8,3.8,0,0,0-2.32.74,3.45,3.45,0,0,0-1.32,2V360Z"/><path class="cls-2" d="M775.28,339.89l3.33,12.82,3.6-12.82h5.4L781.49,360h-5.13l-3.29-12.33L769.79,360h-5.13l-6.12-20.11h5.58l3.6,12.82L771,339.89Z"/><path class="cls-2" d="M806.6,360h-5.36v-1.08a4.93,4.93,0,0,1-1.93,1,9.62,9.62,0,0,1-3,.45,8.15,8.15,0,0,1-5.34-1.75,5.85,5.85,0,0,1-2.13-4.77,5.71,5.71,0,0,1,2.22-4.64,8.57,8.57,0,0,1,5.56-1.8,10.12,10.12,0,0,1,2.61.36,6.34,6.34,0,0,1,2,.81v-1.48a3.12,3.12,0,0,0-.83-2.23A3.21,3.21,0,0,0,798,344a2.86,2.86,0,0,0-3,1.89h-5.31a7.15,7.15,0,0,1,2.76-4.61,10.19,10.19,0,0,1,11.93.22,7.39,7.39,0,0,1,2.23,5.7Zm-5.36-5.49v-1.44a2.62,2.62,0,0,0-1.37-1.28,5.24,5.24,0,0,0-2.27-.47,4.79,4.79,0,0,0-2.5.63,2,2,0,0,0-1.06,1.84,2,2,0,0,0,1,1.85,4.76,4.76,0,0,0,2.52.63,5.24,5.24,0,0,0,2.27-.48A2.62,2.62,0,0,0,801.24,354.51Z"/><path class="cls-2" d="M811.14,360V339.89h5.58v1.84a7.65,7.65,0,0,1,10.64-.27,7.63,7.63,0,0,1,1.87,5.4V360h-5.58V348a3.87,3.87,0,0,0-.83-2.59,3.07,3.07,0,0,0-2.45-1,3.76,3.76,0,0,0-2.32.74,3.42,3.42,0,0,0-1.33,2V360Z"/><path class="cls-2" d="M835.08,353.93v-9.54H832v-4.5h3.06v-5.45h5.53v5.45H845v4.5h-4.41v8.82a2,2,0,0,0,2.3,2.29,4.35,4.35,0,0,0,2.43-.67v4.95a7.89,7.89,0,0,1-3.6.63,7,7,0,0,1-4.91-1.62A6.33,6.33,0,0,1,835.08,353.93Z"/><path class="cls-2" d="M847.9,354h5.54c.45,1.47,1.57,2.2,3.37,2.2s2.84-.66,2.84-2a1.31,1.31,0,0,0-.47-1.06,4.3,4.3,0,0,0-1.56-.65l-4-.9q-5.22-1.22-5.22-5.67a5.73,5.73,0,0,1,2.3-4.7,8.86,8.86,0,0,1,5.71-1.82,9.42,9.42,0,0,1,5.88,1.64,7.17,7.17,0,0,1,2.67,4.57H859.6q-.63-2-3.15-2a3.4,3.4,0,0,0-1.86.49,1.56,1.56,0,0,0-.79,1.4c0,.75.6,1.27,1.8,1.57l4.14.95q5.35,1.31,5.35,5.85a5.67,5.67,0,0,1-2.31,4.77,9.55,9.55,0,0,1-5.92,1.75,10.32,10.32,0,0,1-6.12-1.69A6.74,6.74,0,0,1,847.9,354Z"/><path class="cls-2" d="M879.63,353.93v-9.54h-3.06v-4.5h3.06v-5.45h5.53v5.45h4.41v4.5h-4.41v8.82a2,2,0,0,0,2.3,2.29,4.35,4.35,0,0,0,2.43-.67v4.95a7.89,7.89,0,0,1-3.6.63,7,7,0,0,1-4.91-1.62A6.29,6.29,0,0,1,879.63,353.93Z"/><path class="cls-2" d="M912.21,350a10.61,10.61,0,0,1-2.75,7.56,10.12,10.12,0,0,1-14.22,0,11.87,11.87,0,0,1,0-15.17,10.12,10.12,0,0,1,14.22,0A10.68,10.68,0,0,1,912.21,350Zm-5.54,0a7.09,7.09,0,0,0-1.14-4.21,4,4,0,0,0-6.35,0A7.09,7.09,0,0,0,898,350a7,7,0,0,0,1.15,4.16,4,4,0,0,0,6.35,0A7,7,0,0,0,906.67,350Z"/><path class="cls-2" d="M930.88,339.89v20.92a7.16,7.16,0,0,1-1.8,5.22,7,7,0,0,1-5.22,1.85,7.42,7.42,0,0,1-2.16-.23V363.2a11.07,11.07,0,0,0,1.22.13c1.59,0,2.38-.85,2.38-2.56V339.89Zm.5-5.81a3,3,0,0,1-1,2.3,3.3,3.3,0,0,1-2.32.9,3.34,3.34,0,0,1-2.36-.9,3.15,3.15,0,0,1,0-4.57,3.29,3.29,0,0,1,2.34-.92,3.23,3.23,0,0,1,2.32.92A3,3,0,0,1,931.38,334.08Z"/><path class="cls-2" d="M954.1,350a10.6,10.6,0,0,1-2.74,7.56,10.12,10.12,0,0,1-14.22,0,11.84,11.84,0,0,1,0-15.17,10.12,10.12,0,0,1,14.22,0A10.67,10.67,0,0,1,954.1,350Zm-5.53,0a7,7,0,0,0-1.15-4.21,3.94,3.94,0,0,0-6.34,0,7,7,0,0,0-1.15,4.21,6.94,6.94,0,0,0,1.15,4.16,3.94,3.94,0,0,0,6.34,0A6.94,6.94,0,0,0,948.57,350Z"/><path class="cls-2" d="M963.73,334.08a3,3,0,0,1-1,2.3,3.26,3.26,0,0,1-2.31.9,3.37,3.37,0,0,1-2.37-.9,3,3,0,0,1-1-2.3,3,3,0,0,1,1-2.27,3.29,3.29,0,0,1,2.34-.92,3.19,3.19,0,0,1,2.31.92A3,3,0,0,1,963.73,334.08Zm-.49,5.81V360h-5.58V339.89Z"/><path class="cls-2" d="M968.1,360V339.89h5.58v1.84a7.65,7.65,0,0,1,10.64-.27,7.68,7.68,0,0,1,1.87,5.4V360h-5.58V348a3.82,3.82,0,0,0-.84-2.59,3.06,3.06,0,0,0-2.45-1,3.8,3.8,0,0,0-2.32.74,3.45,3.45,0,0,0-1.32,2V360Z"/><path class="cls-2" d="M667.14,412.43h-5.49l2.93-7.34-7.7-20.2h5.9l4.63,13.36L672,384.89h5.63Z"/><path class="cls-2" d="M698.46,395a10.6,10.6,0,0,1-2.74,7.56,10.12,10.12,0,0,1-14.22,0,11.84,11.84,0,0,1,0-15.17,10.12,10.12,0,0,1,14.22,0A10.67,10.67,0,0,1,698.46,395Zm-5.53,0a7.09,7.09,0,0,0-1.15-4.21,4,4,0,0,0-6.35,0,7.09,7.09,0,0,0-1.14,4.21,7,7,0,0,0,1.14,4.16,4,4,0,0,0,6.35,0A7,7,0,0,0,692.93,395Z"/><path class="cls-2" d="M719.84,384.89V405h-5.58v-1.84a6.93,6.93,0,0,1-5.4,2.29,6.71,6.71,0,0,1-5.2-2,7.63,7.63,0,0,1-1.87-5.4V384.89h5.58v12a3.88,3.88,0,0,0,.81,2.61,3,3,0,0,0,2.43.95,3.71,3.71,0,0,0,2.3-.75,3.45,3.45,0,0,0,1.3-2V384.89Z"/><path class="cls-2" d="M736.85,384.8v5.58a5.34,5.34,0,0,0-2.79-.68,4.18,4.18,0,0,0-2.48.74,3.47,3.47,0,0,0-1.35,2.1V405h-5.58V384.89h5.58v2a4.86,4.86,0,0,1,4.5-2.43A4.55,4.55,0,0,1,736.85,384.8Z"/><path class="cls-2" d="M763.26,377.37h4.5L772.53,396l4.55-18.59h5.67L775.55,405h-5.27l-4.86-18.22L760.56,405H755.3l-7.2-27.63h5.8L758.4,396Z"/><path class="cls-2" d="M791.79,379.08a3,3,0,0,1-1,2.3,3.26,3.26,0,0,1-2.31.9,3.37,3.37,0,0,1-2.37-.9,3,3,0,0,1-1-2.3,3,3,0,0,1,1-2.27,3.29,3.29,0,0,1,2.34-.92,3.19,3.19,0,0,1,2.31.92A3,3,0,0,1,791.79,379.08Zm-.49,5.81V405h-5.58V384.89Z"/><path class="cls-2" d="M795.44,395.64v-4.86h10.84v4.86Z"/><path class="cls-2" d="M816.36,405h-5.71V377.37h18.4v5H816.36v7h11.75v5H816.36Z"/><path class="cls-2" d="M839,379.08a3,3,0,0,1-1,2.3,3.28,3.28,0,0,1-2.32.9,3.34,3.34,0,0,1-2.36-.9,3,3,0,0,1-1-2.3,3,3,0,0,1,1-2.27,3.29,3.29,0,0,1,2.34-.92,3.21,3.21,0,0,1,2.32.92A3,3,0,0,1,839,379.08Zm-.5,5.81V405H833V384.89Z"/><path class="cls-2" d="M852.94,405V384.89h5.58v1.84a7.66,7.66,0,0,1,10.65-.27,7.67,7.67,0,0,1,1.86,5.4V405h-5.58V393a3.82,3.82,0,0,0-.83-2.59,3.06,3.06,0,0,0-2.45-1,3.8,3.8,0,0,0-2.32.74,3.47,3.47,0,0,0-1.33,2V405Z"/><path class="cls-2" d="M887.91,398.43h5.17a8,8,0,0,1-2.85,5.15,9.35,9.35,0,0,1-6.06,1.87,9.21,9.21,0,0,1-7.06-2.9,11.9,11.9,0,0,1,0-15.12,9,9,0,0,1,7-3,8.49,8.49,0,0,1,6.73,2.72,10.55,10.55,0,0,1,2.41,7.27v1.71H879.81a5.57,5.57,0,0,0,1.3,3.53,4,4,0,0,0,3.06,1.28Q887.23,401,887.91,398.43ZM884.13,389q-3.42,0-4.19,3.78h7.79a4.09,4.09,0,0,0-1-2.72A3.31,3.31,0,0,0,884.13,389Z"/><path class="cls-2" d="M898,398.93v-9.54h-3.06v-4.5H898v-5.45h5.53v5.45h4.41v4.5h-4.41v8.82a2,2,0,0,0,2.3,2.29,4.35,4.35,0,0,0,2.43-.67v4.95a7.89,7.89,0,0,1-3.6.63,7,7,0,0,1-4.91-1.62A6.29,6.29,0,0,1,898,398.93Z"/><path class="cls-2" d="M926.74,384.89l3.33,12.82,3.6-12.82h5.4L933,405h-5.13l-3.28-12.33L921.25,405h-5.13L910,384.89h5.58l3.6,12.82,3.29-12.82Z"/><path class="cls-2" d="M960.31,395a10.6,10.6,0,0,1-2.74,7.56,10.12,10.12,0,0,1-14.22,0,11.84,11.84,0,0,1,0-15.17,10.12,10.12,0,0,1,14.22,0A10.67,10.67,0,0,1,960.31,395Zm-5.53,0a7,7,0,0,0-1.15-4.21,3.94,3.94,0,0,0-6.34,0,7,7,0,0,0-1.15,4.21,6.94,6.94,0,0,0,1.15,4.16,3.94,3.94,0,0,0,6.34,0A6.94,6.94,0,0,0,954.78,395Z"/><path class="cls-2" d="M976.06,384.8v5.58a5.34,5.34,0,0,0-2.79-.68,4.15,4.15,0,0,0-2.47.74,3.47,3.47,0,0,0-1.35,2.1V405h-5.58V384.89h5.58v2a4.86,4.86,0,0,1,4.5-2.43A4.51,4.51,0,0,1,976.06,384.8Z"/><path class="cls-2" d="M992.76,405l-5.9-8.1-1.62,1.76V405h-5.58V375.75h5.58v16.61l6.89-7.47h6.93l-8.15,8.55L999.37,405Z"/><path class="cls-2" d="M85.49,811.39a5,5,0,0,1-5-5V673.15a149.54,149.54,0,0,1,44.09-106.43L175,516.26a5,5,0,0,1,7.07,7.07l-50.46,50.46a139.61,139.61,0,0,0-41.16,99.36V806.39A5,5,0,0,1,85.49,811.39Z"/><path class="cls-2" d="M282.9,815a5,5,0,0,1-5-5v-26.5a5,5,0,0,1,2.78-4.48,68,68,0,0,0,38.12-61.33V688.45a5,5,0,0,1,10,0v29.19a77.91,77.91,0,0,1-40.9,68.85V810A5,5,0,0,1,282.9,815Z"/><path class="cls-2" d="M521.8,447h-396a24,24,0,0,1-24-24V315a24,24,0,0,1,24-24h396a24,24,0,0,1,24,24V423A24,24,0,0,1,521.8,447Zm-396-144a12,12,0,0,0-12,12V423a12,12,0,0,0,12,12h396a12,12,0,0,0,12-12V315a12,12,0,0,0-12-12Z"/><path class="cls-2" d="M205.77,351.23h5.94q.36,4,4,4,4.28,0,4.28-5.26v-17.6h5.76V350q0,5.13-2.7,7.79a11.39,11.39,0,0,1-14.45.13A9.81,9.81,0,0,1,205.77,351.23Z"/><path class="cls-2" d="M248.88,350a10.6,10.6,0,0,1-2.74,7.56,10.12,10.12,0,0,1-14.22,0,11.84,11.84,0,0,1,0-15.17,10.12,10.12,0,0,1,14.22,0A10.67,10.67,0,0,1,248.88,350Zm-5.53,0a7.09,7.09,0,0,0-1.15-4.21,4,4,0,0,0-6.35,0,7.09,7.09,0,0,0-1.14,4.21,7,7,0,0,0,1.14,4.16,4,4,0,0,0,6.35,0A7,7,0,0,0,243.35,350Z"/><path class="cls-2" d="M258.51,334.08a3,3,0,0,1-1,2.3,3.26,3.26,0,0,1-2.31.9,3.37,3.37,0,0,1-2.37-.9,3,3,0,0,1-1-2.3,3,3,0,0,1,1-2.27,3.28,3.28,0,0,1,2.34-.92,3.19,3.19,0,0,1,2.31.92A3,3,0,0,1,258.51,334.08Zm-.49,5.81V360h-5.58V339.89Z"/><path class="cls-2" d="M262.88,360V339.89h5.58v1.84a7.65,7.65,0,0,1,10.64-.27,7.68,7.68,0,0,1,1.87,5.4V360h-5.58V348a3.82,3.82,0,0,0-.84-2.59,3.06,3.06,0,0,0-2.45-1,3.8,3.8,0,0,0-2.32.74,3.45,3.45,0,0,0-1.32,2V360Z"/><path class="cls-2" d="M291.67,334.08a3,3,0,0,1-1,2.3,3.49,3.49,0,0,1-4.68,0,3.15,3.15,0,0,1,0-4.57,3.29,3.29,0,0,1,2.34-.92,3.23,3.23,0,0,1,2.32.92A3,3,0,0,1,291.67,334.08Zm-.49,5.81V360H285.6V339.89Z"/><path class="cls-2" d="M296,360V339.89h5.58v1.84a7.65,7.65,0,0,1,10.64-.27,7.63,7.63,0,0,1,1.87,5.4V360h-5.58V348a3.87,3.87,0,0,0-.83-2.59,3.07,3.07,0,0,0-2.45-1,3.76,3.76,0,0,0-2.32.74,3.42,3.42,0,0,0-1.33,2V360Z"/><path class="cls-2" d="M331.59,358.65v-1.17a6.05,6.05,0,0,1-4.95,2.07,8.27,8.27,0,0,1-6.66-2.92,11.5,11.5,0,0,1,0-14.27,8.27,8.27,0,0,1,6.66-2.92,6.2,6.2,0,0,1,4.95,2v-1.57h5.53V357.8q0,5-2.7,7.53a10,10,0,0,1-7.15,2.55,10.32,10.32,0,0,1-6.41-1.89,7.55,7.55,0,0,1-2.95-5.27h5.4q.68,2.83,4,2.84Q331.59,363.56,331.59,358.65Zm0-5.89v-6.57a4.14,4.14,0,0,0-3.78-2.07,4.31,4.31,0,0,0-3.47,1.48,5.78,5.78,0,0,0-1.26,3.87,5.85,5.85,0,0,0,1.26,3.89,4.27,4.27,0,0,0,3.47,1.51,4.23,4.23,0,0,0,2.23-.61A4.38,4.38,0,0,0,331.59,352.76Z"/><path class="cls-2" d="M364.8,332.37h4.5L374.07,351l4.54-18.59h5.67L377.08,360h-5.26L367,341.78,362.1,360h-5.27l-7.2-27.63h5.81l4.5,18.59Z"/><path class="cls-2" d="M393.33,334.08a3,3,0,0,1-1,2.3,3.49,3.49,0,0,1-4.68,0,3.15,3.15,0,0,1,0-4.57,3.29,3.29,0,0,1,2.34-.92,3.23,3.23,0,0,1,2.32.92A3,3,0,0,1,393.33,334.08Zm-.5,5.81V360h-5.58V339.89Z"/><path class="cls-2" d="M397,350.64v-4.86h10.85v4.86Z"/><path class="cls-2" d="M417.9,360h-5.72V332.37h18.41v5H417.9v7h11.74v5H417.9Z"/><path class="cls-2" d="M440.58,334.08a3,3,0,0,1-1,2.3,3.49,3.49,0,0,1-4.68,0,3.15,3.15,0,0,1,0-4.57,3.29,3.29,0,0,1,2.34-.92,3.23,3.23,0,0,1,2.32.92A3,3,0,0,1,440.58,334.08Zm-.5,5.81V360H434.5V339.89Z"/><path class="cls-2" d="M237.36,405V384.89h5.58v1.84a7.65,7.65,0,0,1,10.64-.27,7.63,7.63,0,0,1,1.87,5.4V405h-5.58V393a3.87,3.87,0,0,0-.83-2.59,3.07,3.07,0,0,0-2.45-1,3.76,3.76,0,0,0-2.32.74,3.42,3.42,0,0,0-1.33,2V405Z"/><path class="cls-2" d="M272.32,398.43h5.18a8,8,0,0,1-2.86,5.15,10.35,10.35,0,0,1-13.12-1,11.88,11.88,0,0,1,0-15.12,9,9,0,0,1,6.95-3,8.51,8.51,0,0,1,6.73,2.72,10.59,10.59,0,0,1,2.41,7.27v1.71H264.23a5.51,5.51,0,0,0,1.3,3.53,4,4,0,0,0,3.06,1.28Q271.65,401,272.32,398.43ZM268.54,389q-3.42,0-4.18,3.78h7.79a4.15,4.15,0,0,0-1-2.72A3.31,3.31,0,0,0,268.54,389Z"/><path class="cls-2" d="M282.4,398.93v-9.54h-3.06v-4.5h3.06v-5.45h5.54v5.45h4.41v4.5h-4.41v8.82a2,2,0,0,0,2.29,2.29,4.35,4.35,0,0,0,2.43-.67v4.95a7.89,7.89,0,0,1-3.6.63,7,7,0,0,1-4.9-1.62A6.3,6.3,0,0,1,282.4,398.93Z"/><path class="cls-2" d="M311.16,384.89l3.33,12.82,3.6-12.82h5.4L317.37,405h-5.13L309,392.67,305.67,405h-5.13l-6.12-20.11H300l3.6,12.82,3.28-12.82Z"/><path class="cls-2" d="M344.73,395a10.61,10.61,0,0,1-2.75,7.56,10.12,10.12,0,0,1-14.22,0,11.87,11.87,0,0,1,0-15.17,10.12,10.12,0,0,1,14.22,0A10.68,10.68,0,0,1,344.73,395Zm-5.54,0a7.09,7.09,0,0,0-1.14-4.21,4,4,0,0,0-6.35,0,7.09,7.09,0,0,0-1.15,4.21,7,7,0,0,0,1.15,4.16,4,4,0,0,0,6.35,0A7,7,0,0,0,339.19,395Z"/><path class="cls-2" d="M360.48,384.8v5.58a5.34,5.34,0,0,0-2.79-.68,4.18,4.18,0,0,0-2.48.74,3.47,3.47,0,0,0-1.35,2.1V405h-5.58V384.89h5.58v2a4.86,4.86,0,0,1,4.5-2.43A4.55,4.55,0,0,1,360.48,384.8Z"/><path class="cls-2" d="M377.17,405l-5.89-8.1-1.62,1.76V405h-5.58V375.75h5.58v16.61l6.88-7.47h6.93l-8.14,8.55L383.79,405Z"/><path class="cls-2" d="M386.56,404.28a3.5,3.5,0,0,1-1-2.56,3.46,3.46,0,0,1,1-2.55,3.59,3.59,0,0,1,5,0,3.45,3.45,0,0,1,1,2.55,3.49,3.49,0,0,1-1,2.56,3.51,3.51,0,0,1-5,0Z"/><path class="cls-2" d="M396,404.28a3.5,3.5,0,0,1-1-2.56,3.46,3.46,0,0,1,1-2.55,3.59,3.59,0,0,1,5,0,3.45,3.45,0,0,1,1,2.55,3.49,3.49,0,0,1-1,2.56,3.51,3.51,0,0,1-5,0Z"/><path class="cls-2" d="M405.46,404.28a3.5,3.5,0,0,1-1-2.56,3.46,3.46,0,0,1,1-2.55,3.59,3.59,0,0,1,5,0,3.45,3.45,0,0,1,1,2.55,3.49,3.49,0,0,1-1,2.56,3.51,3.51,0,0,1-5,0Z"/><path class="cls-2" d="M323.8,657.45a23,23,0,1,1,23-23A23,23,0,0,1,323.8,657.45Zm0-36a13,13,0,1,0,13,13A13,13,0,0,0,323.8,621.45Z"/><path class="cls-2" d="M213.8,786.44a5,5,0,0,1-3.79-8.27A68.33,68.33,0,0,0,210,689a5,5,0,0,1,.07-6.61l63.16-70.14A28.6,28.6,0,0,0,254,564.05L149,669.12a5,5,0,1,1-7.07-7.07L248.47,555.47a5,5,0,0,1,3.46-1.46h.48a38.59,38.59,0,0,1,28.19,65l-60.22,66.89a78.35,78.35,0,0,1-2.79,98.85A5,5,0,0,1,213.8,786.44Z"/><path class="cls-2" d="M467.8,302h-288a5,5,0,0,1-5-5V198a23,23,0,0,1,23-23h252a23,23,0,0,1,23,23V297A5,5,0,0,1,467.8,302Zm-283-10h278V198a13,13,0,0,0-13-13h-252a13,13,0,0,0-13,13Z"/><path class="cls-2" d="M449.8,689H215.36a5,5,0,0,1-3.72-8.34l61.6-68.41A28.6,28.6,0,0,0,254,564.05l-70.69,70.7a5,5,0,0,1-8.54-3.54V441a5,5,0,0,1,5-5h288a5,5,0,0,1,5,5V666A23,23,0,0,1,449.8,689ZM226.59,679H449.8a13,13,0,0,0,13-13V446h-278V619.14l63.67-63.67a5,5,0,0,1,3.46-1.46h.48a38.59,38.59,0,0,1,28.19,65Z"/><path class="cls-2" d="M791.41,230.49a53.38,53.38,0,0,1,73.13,0L873,220.33a65.7,65.7,0,0,0-90,0Z"/><path class="cls-2" d="M799.85,240.64l8.44,10.16a28.74,28.74,0,0,1,39.37,0l8.44-10.16a41.07,41.07,0,0,0-56.25,0Z"/><path class="cls-2" d="M828,274.5,839.22,261a16.38,16.38,0,0,0-22.49,0Z"/><path class="cls-2" d="M287.23,230.49a53.37,53.37,0,0,1,73.12,0l8.44-10.16a65.7,65.7,0,0,0-90,0Z"/><path class="cls-2" d="M295.66,240.64l8.44,10.16a28.75,28.75,0,0,1,39.38,0l8.43-10.16a41.07,41.07,0,0,0-56.25,0Z"/><path class="cls-2" d="M323.79,274.5,335,261a16.37,16.37,0,0,0-22.48,0Z"/></svg>