<?xml version="1.0" encoding="utf-8"?>
<!-- Generator: Adobe Illustrator 22.0.1, SVG Export Plug-In . SVG Version: 6.00 Build 0)  -->
<svg version="1.1" xmlns="http://www.w3.org/2000/svg" xmlns:xlink="http://www.w3.org/1999/xlink" x="0px" y="0px"
	 viewBox="0 0 875.3 577" style="enable-background:new 0 0 875.3 577;" xml:space="preserve">
<style type="text/css">
	.st0{fill:#FF6D00;}
	.st1{fill:#FFFFFF;}
	.st2{fill:none;stroke:#000F7C;stroke-width:12;stroke-linecap:round;stroke-linejoin:round;stroke-miterlimit:10;}
	.st3{fill-rule:evenodd;clip-rule:evenodd;fill:#000F7C;}
	.st4{fill:#000F7C;}
	.st5{fill:none;stroke:#00425E;stroke-width:10;stroke-miterlimit:10;}
	.st6{fill:none;stroke:#00425E;stroke-width:12;stroke-linecap:round;stroke-linejoin:round;stroke-miterlimit:10;}
	.st7{fill:none;stroke:#000F7C;stroke-width:10;stroke-miterlimit:10;}
	.st8{fill:#FF6D00;stroke:#000F7C;stroke-width:12;stroke-linecap:round;stroke-linejoin:round;stroke-miterlimit:10;}
	.st9{fill:#000F7C;stroke:#000F7C;stroke-width:0.9029;stroke-miterlimit:10;}
	.st10{fill:#00425E;}
	.st11{fill:#FF6D00;stroke:#000F7C;stroke-width:12;stroke-miterlimit:10;}
	.st12{fill:#FF6D00;stroke:#00425E;stroke-width:12;stroke-miterlimit:10;}
	.st13{fill-rule:evenodd;clip-rule:evenodd;fill:#00425E;}
	.st14{fill:#FF6D00;stroke:#000F7C;stroke-width:10;stroke-linecap:round;stroke-linejoin:round;stroke-miterlimit:10;}
	.st15{enable-background:new    ;}
	.st16{clip-path:url(#SVGID_2_);}
	.st17{fill:#FF6D00;stroke:#000F7C;stroke-width:10;stroke-miterlimit:10;}
	.st18{clip-path:url(#SVGID_4_);}
	.st19{fill:none;stroke:#000F7C;stroke-width:10;stroke-linecap:round;stroke-linejoin:round;stroke-miterlimit:10;}
	.st20{clip-path:url(#SVGID_6_);}
	.st21{clip-path:url(#SVGID_8_);}
	.st22{fill:none;stroke:#000F7C;stroke-width:37.075;stroke-miterlimit:10;}
	.st23{clip-path:url(#SVGID_10_);}
	.st24{clip-path:url(#SVGID_12_);}
	.st25{clip-path:url(#SVGID_14_);}
	.st26{fill:#000F7C;stroke:#000F7C;stroke-width:10.0358;stroke-linecap:round;stroke-linejoin:round;stroke-miterlimit:10;}
	.st27{fill:none;stroke:#000F7C;stroke-width:10.0358;stroke-linecap:round;stroke-linejoin:round;stroke-miterlimit:10;}
	.st28{fill:none;stroke:#000F7C;stroke-width:0.7859;stroke-miterlimit:10;}
	.st29{fill:none;stroke:#FFFFFF;stroke-width:10;stroke-linecap:round;stroke-linejoin:round;stroke-miterlimit:10;}
	.st30{fill:none;stroke:#000F7C;stroke-width:12;stroke-miterlimit:10;}
	.st31{fill:none;stroke:#2E3192;stroke-width:12.7404;stroke-linecap:round;stroke-linejoin:round;stroke-miterlimit:10;}
	.st32{fill:none;stroke:#000F7C;stroke-width:12;stroke-linecap:round;stroke-miterlimit:10;}
</style>
<g id="Layer_2">
</g>
<g id="Layer_1">
	<g>
		<path class="st4" d="M646.1,28c-15.2,0-29.4,4.2-41.5,11.5c-3.1,1.9-3.8,6.1-1.6,9l0.2,0.3c1.9,2.4,5.3,3,7.9,1.4
			c10.2-6.1,22.1-9.6,34.9-9.6s24.7,3.5,34.9,9.6c2.6,1.6,6,1,7.9-1.4l0.2-0.3c2.3-2.9,1.6-7.1-1.6-9C675.4,32.2,661.2,28,646.1,28z
			 M646.1,49c-10.1,0-19.6,2.5-27.9,7c-3.3,1.8-4.2,6.2-1.9,9.2l0.2,0.2c1.8,2.3,5.1,2.9,7.7,1.5c6.5-3.4,14-5.4,21.9-5.4
			s15.4,1.9,21.9,5.4c2.6,1.4,5.8,0.8,7.7-1.5l0.2-0.2c2.4-3,1.5-7.4-1.9-9.2C665.7,51.5,656.2,49,646.1,49z M646.1,69.9
			c-4.8,0-9.4,0.9-13.7,2.5c-3.9,1.5-5.2,6.3-2.6,9.5l0.2,0.3c1.6,2,4.4,2.9,6.8,1.9c2.9-1.1,6-1.7,9.3-1.7s6.4,0.6,9.3,1.7
			c2.4,0.9,5.2,0.1,6.8-1.9l0.2-0.3c2.6-3.2,1.2-8-2.6-9.5C655.5,70.8,650.9,69.9,646.1,69.9z M646.1,90.9c0,0-0.1,0-0.1,0
			c-3.7,0-5.6,4.3-3.3,7.2v0c1.8,2.2,5.2,2.2,6.9,0v0c2.3-2.9,0.3-7.2-3.3-7.2C646.2,90.9,646.1,90.9,646.1,90.9z"/>
	</g>
	<g>
		<path class="st4" d="M229,28c-15.2,0-29.4,4.2-41.5,11.5c-3.1,1.9-3.8,6.1-1.6,9l0.2,0.3c1.9,2.4,5.3,3,7.9,1.4
			c10.2-6.1,22.1-9.6,34.9-9.6s24.7,3.5,34.9,9.6c2.6,1.6,6,1,7.9-1.4l0.2-0.3c2.3-2.9,1.6-7.1-1.6-9C258.4,32.2,244.2,28,229,28z
			 M229,49c-10.1,0-19.6,2.5-27.9,7c-3.3,1.8-4.2,6.2-1.9,9.2l0.2,0.2c1.8,2.3,5.1,2.9,7.7,1.5c6.5-3.4,14-5.4,21.9-5.4
			c7.9,0,15.4,1.9,21.9,5.4c2.6,1.4,5.8,0.8,7.7-1.5l0.2-0.2c2.4-3,1.5-7.4-1.9-9.2C248.6,51.5,239.1,49,229,49z M229,69.9
			c-4.8,0-9.4,0.9-13.7,2.5c-3.9,1.5-5.2,6.3-2.6,9.5l0.2,0.3c1.6,2,4.4,2.9,6.8,1.9c2.9-1.1,6-1.7,9.3-1.7c3.3,0,6.4,0.6,9.3,1.7
			c2.4,0.9,5.2,0.1,6.8-1.9l0.2-0.3c2.6-3.2,1.2-8-2.6-9.5C238.5,70.8,233.9,69.9,229,69.9z M229,90.9c0,0-0.1,0-0.1,0
			c-3.7,0-5.6,4.3-3.3,7.2v0c1.8,2.2,5.2,2.2,6.9,0l0,0c2.3-2.9,0.3-7.2-3.3-7.2C229.1,90.9,229.1,90.9,229,90.9z"/>
	</g>
	<g>
		<path class="st4" d="M510.3,158.5h5.3v17.8c0,1.6-0.4,3.1-1.1,4.3c-0.7,1.3-1.7,2.2-3.1,2.9c-1.3,0.7-2.8,1-4.5,1
			c-2.7,0-4.8-0.7-6.4-2.1s-2.3-3.3-2.3-5.9h5.3c0,1.3,0.3,2.2,0.8,2.8c0.5,0.6,1.4,0.9,2.5,0.9c1,0,1.8-0.3,2.4-1
			c0.6-0.7,0.9-1.7,0.9-3V158.5z"/>
		<path class="st4" d="M519,174.5c0-1.9,0.4-3.6,1.1-5.1c0.7-1.5,1.8-2.6,3.2-3.4c1.4-0.8,3-1.2,4.8-1.2c2.6,0,4.7,0.8,6.3,2.4
			c1.6,1.6,2.5,3.7,2.7,6.4l0,1.3c0,2.9-0.8,5.3-2.5,7.1c-1.6,1.8-3.8,2.7-6.6,2.7s-5-0.9-6.6-2.7c-1.6-1.8-2.5-4.2-2.5-7.2V174.5z
			 M524.1,174.9c0,1.8,0.3,3.2,1,4.2c0.7,1,1.7,1.4,2.9,1.4c1.2,0,2.2-0.5,2.9-1.4c0.7-1,1-2.5,1-4.6c0-1.8-0.3-3.2-1-4.1
			c-0.7-1-1.7-1.5-2.9-1.5c-1.2,0-2.2,0.5-2.9,1.5C524.4,171.3,524.1,172.8,524.1,174.9z"/>
		<path class="st4" d="M545.3,167.2c1.4-1.6,3.1-2.4,5.1-2.4c4.2,0,6.3,2.4,6.3,7.2v12.3h-5.1v-12.1c0-1.1-0.2-1.9-0.7-2.4
			c-0.5-0.5-1.3-0.8-2.4-0.8c-1.5,0-2.6,0.6-3.3,1.7v13.6h-5.1v-27.2h5.1V167.2z"/>
		<path class="st4" d="M565.3,165.1l0.2,2.2c1.4-1.7,3.2-2.6,5.5-2.6c2,0,3.5,0.6,4.5,1.8c1,1.2,1.5,3,1.5,5.3v12.4h-5.1V172
			c0-1.1-0.2-1.9-0.7-2.4c-0.5-0.5-1.3-0.7-2.4-0.7c-1.4,0-2.5,0.6-3.2,1.8v13.5h-5.1v-19.1H565.3z"/>
		<path class="st4" d="M606.5,177.3l2.5-12.2h4.9l-4.9,19.1h-4.3l-3.6-12l-3.6,12h-4.3l-4.9-19.1h4.9l2.5,12.2l3.5-12.2h3.7
			L606.5,177.3z"/>
		<path class="st4" d="M627.6,184.3c-0.2-0.5-0.4-1-0.5-1.7c-1.2,1.4-2.8,2.1-4.8,2.1c-1.9,0-3.4-0.5-4.7-1.6s-1.8-2.5-1.8-4.1
			c0-2,0.8-3.6,2.3-4.7s3.7-1.6,6.5-1.6h2.4v-1.1c0-0.9-0.2-1.6-0.7-2.1c-0.5-0.5-1.2-0.8-2.1-0.8c-0.9,0-1.5,0.2-2,0.6
			c-0.5,0.4-0.7,1-0.7,1.7h-5.1c0-1.1,0.3-2.1,1-3.1s1.7-1.7,2.9-2.2s2.7-0.8,4.2-0.8c2.4,0,4.2,0.6,5.6,1.8c1.4,1.2,2.1,2.9,2.1,5
			v8.3c0,1.8,0.3,3.2,0.8,4.1v0.3H627.6z M623.3,180.7c0.8,0,1.5-0.2,2.1-0.5c0.6-0.3,1.1-0.8,1.4-1.4v-3.3h-1.9
			c-2.6,0-3.9,0.9-4.1,2.7l0,0.3c0,0.6,0.2,1.2,0.7,1.6C622,180.5,622.6,180.7,623.3,180.7z"/>
		<path class="st4" d="M640.6,165.1l0.2,2.2c1.4-1.7,3.2-2.6,5.5-2.6c2,0,3.5,0.6,4.5,1.8s1.5,3,1.5,5.3v12.4h-5.1V172
			c0-1.1-0.2-1.9-0.7-2.4s-1.3-0.7-2.4-0.7c-1.4,0-2.5,0.6-3.2,1.8v13.5h-5.1v-19.1H640.6z"/>
		<path class="st4" d="M662.3,160.4v4.7h3.3v3.8h-3.3v9.6c0,0.7,0.1,1.2,0.4,1.5s0.8,0.5,1.6,0.5c0.6,0,1.1,0,1.5-0.1v3.9
			c-1,0.3-2,0.5-3.1,0.5c-3.6,0-5.4-1.8-5.5-5.4v-10.3h-2.8v-3.8h2.8v-4.7H662.3z"/>
		<path class="st4" d="M678.8,179c0-0.6-0.3-1.1-0.9-1.5c-0.6-0.4-1.6-0.7-3-1c-4.6-1-6.8-2.9-6.8-5.8c0-1.7,0.7-3.1,2.1-4.3
			c1.4-1.1,3.3-1.7,5.5-1.7c2.4,0,4.4,0.6,5.8,1.7s2.2,2.6,2.2,4.5h-5.1c0-0.7-0.2-1.3-0.7-1.8c-0.5-0.5-1.2-0.7-2.2-0.7
			c-0.9,0-1.5,0.2-2,0.6c-0.5,0.4-0.7,0.9-0.7,1.5c0,0.6,0.3,1,0.8,1.4c0.5,0.3,1.4,0.6,2.7,0.9c1.3,0.3,2.3,0.5,3.2,0.9
			c2.7,1,4.1,2.7,4.1,5.1c0,1.7-0.8,3.2-2.2,4.2c-1.5,1.1-3.4,1.6-5.8,1.6c-1.6,0-3-0.3-4.3-0.9c-1.2-0.6-2.2-1.4-2.9-2.4
			c-0.7-1-1.1-2.1-1.1-3.2h4.8c0,0.9,0.4,1.6,1,2.1s1.5,0.7,2.5,0.7c1,0,1.7-0.2,2.2-0.6C678.6,180.1,678.8,179.6,678.8,179z"/>
		<path class="st4" d="M702.2,160.4v4.7h3.3v3.8h-3.3v9.6c0,0.7,0.1,1.2,0.4,1.5s0.8,0.5,1.6,0.5c0.6,0,1.1,0,1.5-0.1v3.9
			c-1,0.3-2,0.5-3.1,0.5c-3.6,0-5.4-1.8-5.5-5.4v-10.3h-2.8v-3.8h2.8v-4.7H702.2z"/>
		<path class="st4" d="M707,174.5c0-1.9,0.4-3.6,1.1-5.1c0.7-1.5,1.8-2.6,3.2-3.4c1.4-0.8,3-1.2,4.8-1.2c2.6,0,4.7,0.8,6.3,2.4
			c1.6,1.6,2.5,3.7,2.7,6.4l0,1.3c0,2.9-0.8,5.3-2.5,7.1c-1.6,1.8-3.8,2.7-6.6,2.7s-5-0.9-6.6-2.7c-1.6-1.8-2.5-4.2-2.5-7.2V174.5z
			 M712.1,174.9c0,1.8,0.3,3.2,1,4.2c0.7,1,1.7,1.4,2.9,1.4c1.2,0,2.2-0.5,2.9-1.4c0.7-1,1-2.5,1-4.6c0-1.8-0.3-3.2-1-4.1
			c-0.7-1-1.7-1.5-2.9-1.5c-1.3,0-2.2,0.5-2.9,1.5C712.5,171.3,712.1,172.8,712.1,174.9z"/>
		<path class="st4" d="M742.7,165.1v20.2c0,2.1-0.6,3.8-1.7,4.9c-1.1,1.2-2.7,1.8-4.8,1.8c-0.9,0-1.7-0.1-2.5-0.3v-4.1
			c0.6,0.1,1.1,0.2,1.6,0.2c1.5,0,2.3-0.8,2.3-2.5v-20.2H742.7z M737.2,160.2c0-0.8,0.3-1.4,0.8-1.9c0.5-0.5,1.2-0.7,2.1-0.7
			c0.9,0,1.6,0.2,2.1,0.7c0.5,0.5,0.8,1.1,0.8,1.9c0,0.8-0.3,1.4-0.8,1.9c-0.5,0.5-1.2,0.7-2.1,0.7s-1.6-0.2-2.1-0.7
			C737.4,161.6,737.2,161,737.2,160.2z"/>
		<path class="st4" d="M745.9,174.5c0-1.9,0.4-3.6,1.1-5.1c0.7-1.5,1.8-2.6,3.2-3.4c1.4-0.8,3-1.2,4.8-1.2c2.6,0,4.7,0.8,6.3,2.4
			c1.6,1.6,2.5,3.7,2.7,6.4l0,1.3c0,2.9-0.8,5.3-2.5,7.1c-1.6,1.8-3.8,2.7-6.6,2.7s-5-0.9-6.6-2.7c-1.6-1.8-2.5-4.2-2.5-7.2V174.5z
			 M751,174.9c0,1.8,0.3,3.2,1,4.2c0.7,1,1.7,1.4,2.9,1.4c1.2,0,2.2-0.5,2.9-1.4c0.7-1,1-2.5,1-4.6c0-1.8-0.3-3.2-1-4.1
			c-0.7-1-1.7-1.5-2.9-1.5c-1.2,0-2.2,0.5-2.9,1.5C751.4,171.3,751,172.8,751,174.9z"/>
		<path class="st4" d="M767.2,160.2c0-0.8,0.3-1.4,0.8-1.9c0.5-0.5,1.2-0.7,2.1-0.7c0.9,0,1.6,0.2,2.1,0.7c0.5,0.5,0.8,1.1,0.8,1.9
			c0,0.8-0.3,1.4-0.8,1.9c-0.5,0.5-1.2,0.7-2.1,0.7s-1.6-0.2-2.1-0.7C767.4,161.6,767.2,161,767.2,160.2z M772.6,184.3h-5.1v-19.1
			h5.1V184.3z"/>
		<path class="st4" d="M781.5,165.1l0.2,2.2c1.4-1.7,3.2-2.6,5.5-2.6c2,0,3.5,0.6,4.5,1.8s1.5,3,1.5,5.3v12.4h-5.1V172
			c0-1.1-0.2-1.9-0.7-2.4s-1.3-0.7-2.4-0.7c-1.4,0-2.5,0.6-3.2,1.8v13.5h-5.1v-19.1H781.5z"/>
		<path class="st4" d="M506.6,220.5l3.5-11.9h5.5l-7.7,22.1l-0.4,1c-1.1,2.5-3,3.8-5.7,3.8c-0.7,0-1.5-0.1-2.3-0.3v-3.9l0.8,0
			c1,0,1.7-0.1,2.2-0.4c0.5-0.3,0.9-0.8,1.1-1.5l0.6-1.6l-6.7-19.2h5.5L506.6,220.5z"/>
		<path class="st4" d="M516.8,218c0-1.9,0.4-3.6,1.1-5.1c0.7-1.5,1.8-2.6,3.2-3.4c1.4-0.8,3-1.2,4.8-1.2c2.6,0,4.7,0.8,6.3,2.4
			c1.6,1.6,2.5,3.7,2.7,6.4l0,1.3c0,2.9-0.8,5.3-2.5,7.1s-3.8,2.7-6.6,2.7s-5-0.9-6.6-2.7s-2.5-4.2-2.5-7.2V218z M521.9,218.4
			c0,1.8,0.3,3.2,1,4.2c0.7,1,1.7,1.4,2.9,1.4c1.2,0,2.2-0.5,2.9-1.4s1-2.5,1-4.6c0-1.8-0.3-3.2-1-4.1c-0.7-1-1.7-1.5-2.9-1.5
			c-1.3,0-2.2,0.5-2.9,1.5C522.3,214.8,521.9,216.3,521.9,218.4z"/>
		<path class="st4" d="M549.6,225.8c-1.3,1.5-3,2.3-5.2,2.3c-2.1,0-3.6-0.6-4.7-1.8c-1.1-1.2-1.6-2.9-1.7-5.2v-12.5h5.1V221
			c0,2,0.9,3,2.7,3c1.7,0,2.9-0.6,3.6-1.8v-13.6h5.1v19.1h-4.8L549.6,225.8z"/>
		<path class="st4" d="M569.1,213.4c-0.7-0.1-1.3-0.1-1.8-0.1c-1.9,0-3.2,0.7-3.8,2v12.5h-5.1v-19.1h4.8l0.1,2.3
			c1-1.8,2.4-2.6,4.3-2.6c0.6,0,1.1,0.1,1.6,0.2L569.1,213.4z"/>
		<path class="st4" d="M601,220.3l3.5-18.3h5.3l-5.7,25.8h-5.3l-4.2-17.2l-4.2,17.2H585l-5.7-25.8h5.3l3.5,18.3l4.2-18.3h4.5
			L601,220.3z"/>
		<path class="st4" d="M612.3,203.7c0-0.8,0.3-1.4,0.8-1.9c0.5-0.5,1.2-0.7,2.1-0.7c0.9,0,1.6,0.2,2.1,0.7c0.5,0.5,0.8,1.1,0.8,1.9
			c0,0.8-0.3,1.4-0.8,1.9c-0.5,0.5-1.2,0.7-2.1,0.7s-1.6-0.2-2.1-0.7C612.5,205.1,612.3,204.4,612.3,203.7z M617.7,227.8h-5.1v-19.1
			h5.1V227.8z"/>
		<path class="st4" d="M631.9,218.8h-10v-4.1h10V218.8z"/>
		<path class="st4" d="M651.8,217.2h-10.2v10.5h-5.3V202h16.8v4.3h-11.5v6.7h10.2V217.2z"/>
		<path class="st4" d="M655.8,203.7c0-0.8,0.3-1.4,0.8-1.9c0.5-0.5,1.2-0.7,2.1-0.7c0.9,0,1.6,0.2,2.1,0.7c0.5,0.5,0.8,1.1,0.8,1.9
			c0,0.8-0.3,1.4-0.8,1.9c-0.5,0.5-1.2,0.7-2.1,0.7s-1.6-0.2-2.1-0.7C656,205.1,655.8,204.4,655.8,203.7z M661.2,227.8h-5.1v-19.1
			h5.1V227.8z"/>
		<path class="st4" d="M679.1,208.6l0.2,2.2c1.4-1.7,3.2-2.6,5.5-2.6c2,0,3.5,0.6,4.5,1.8c1,1.2,1.5,3,1.5,5.3v12.4h-5.1v-12.2
			c0-1.1-0.2-1.9-0.7-2.4c-0.5-0.5-1.3-0.7-2.4-0.7c-1.4,0-2.5,0.6-3.2,1.8v13.5h-5.1v-19.1H679.1z"/>
		<path class="st4" d="M703.5,228.1c-2.8,0-5.1-0.9-6.9-2.6c-1.8-1.7-2.6-4-2.6-6.9v-0.5c0-1.9,0.4-3.6,1.1-5.2
			c0.7-1.5,1.8-2.7,3.2-3.5c1.4-0.8,2.9-1.2,4.7-1.2c2.6,0,4.7,0.8,6.2,2.5s2.3,4,2.3,7v2.1h-12.2c0.2,1.2,0.7,2.3,1.5,3
			c0.8,0.8,1.9,1.1,3.2,1.1c2,0,3.5-0.7,4.6-2.1l2.5,2.8c-0.8,1.1-1.8,1.9-3.1,2.5C706.6,227.8,705.1,228.1,703.5,228.1z M703,212.4
			c-1,0-1.8,0.3-2.5,1s-1,1.7-1.2,2.9h7.1v-0.4c0-1.1-0.3-2-0.9-2.6S704,212.4,703,212.4z"/>
		<path class="st4" d="M720.4,203.9v4.7h3.3v3.8h-3.3v9.6c0,0.7,0.1,1.2,0.4,1.5c0.3,0.3,0.8,0.5,1.6,0.5c0.6,0,1.1,0,1.5-0.1v3.9
			c-1,0.3-2,0.5-3.1,0.5c-3.6,0-5.4-1.8-5.5-5.4v-10.3h-2.8v-3.8h2.8v-4.7H720.4z"/>
		<path class="st4" d="M743.2,220.8l2.5-12.2h4.9l-4.9,19.1h-4.3l-3.6-12l-3.6,12H730l-4.9-19.1h4.9l2.5,12.2l3.5-12.2h3.7
			L743.2,220.8z"/>
		<path class="st4" d="M752.4,218c0-1.9,0.4-3.6,1.1-5.1c0.7-1.5,1.8-2.6,3.2-3.4c1.4-0.8,3-1.2,4.8-1.2c2.6,0,4.7,0.8,6.3,2.4
			c1.6,1.6,2.5,3.7,2.7,6.4l0,1.3c0,2.9-0.8,5.3-2.5,7.1c-1.6,1.8-3.8,2.7-6.6,2.7s-5-0.9-6.6-2.7c-1.6-1.8-2.5-4.2-2.5-7.2V218z
			 M757.5,218.4c0,1.8,0.3,3.2,1,4.2c0.7,1,1.7,1.4,2.9,1.4c1.2,0,2.2-0.5,2.9-1.4c0.7-1,1-2.5,1-4.6c0-1.8-0.3-3.2-1-4.1
			c-0.7-1-1.7-1.5-2.9-1.5c-1.2,0-2.2,0.5-2.9,1.5C757.8,214.8,757.5,216.3,757.5,218.4z"/>
		<path class="st4" d="M784.4,213.4c-0.7-0.1-1.3-0.1-1.8-0.1c-1.9,0-3.2,0.7-3.8,2v12.5h-5.1v-19.1h4.8l0.1,2.3
			c1-1.8,2.4-2.6,4.3-2.6c0.6,0,1.1,0.1,1.6,0.2L784.4,213.4z"/>
		<path class="st4" d="M793.8,220.1l-1.8,1.8v5.8h-5.1v-27.2h5.1v15.1l1-1.3l4.9-5.7h6.1l-6.9,8l7.5,11.2h-5.9L793.8,220.1z"/>
	</g>
	<g>
		<path class="st4" d="M133.2,158.5h5.3v17.8c0,1.6-0.4,3.1-1.1,4.3c-0.7,1.3-1.7,2.2-3.1,2.9c-1.3,0.7-2.8,1-4.5,1
			c-2.7,0-4.8-0.7-6.4-2.1s-2.3-3.3-2.3-5.9h5.3c0,1.3,0.3,2.2,0.8,2.8c0.5,0.6,1.4,0.9,2.5,0.9c1,0,1.8-0.3,2.4-1
			c0.6-0.7,0.9-1.7,0.9-3V158.5z"/>
		<path class="st4" d="M141.9,174.5c0-1.9,0.4-3.6,1.1-5.1s1.8-2.6,3.2-3.4c1.4-0.8,3-1.2,4.8-1.2c2.6,0,4.7,0.8,6.3,2.4
			c1.6,1.6,2.5,3.7,2.7,6.4l0,1.3c0,2.9-0.8,5.3-2.5,7.1c-1.6,1.8-3.8,2.7-6.6,2.7s-5-0.9-6.6-2.7s-2.5-4.2-2.5-7.2V174.5z
			 M147,174.9c0,1.8,0.3,3.2,1,4.2c0.7,1,1.7,1.4,2.9,1.4c1.2,0,2.2-0.5,2.9-1.4c0.7-1,1-2.5,1-4.6c0-1.8-0.3-3.2-1-4.1
			c-0.7-1-1.7-1.5-2.9-1.5c-1.3,0-2.2,0.5-2.9,1.5C147.4,171.3,147,172.8,147,174.9z"/>
		<path class="st4" d="M163.2,160.2c0-0.8,0.3-1.4,0.8-1.9c0.5-0.5,1.2-0.7,2.1-0.7c0.9,0,1.6,0.2,2.1,0.7c0.5,0.5,0.8,1.1,0.8,1.9
			c0,0.8-0.3,1.4-0.8,1.9c-0.5,0.5-1.2,0.7-2.1,0.7c-0.9,0-1.6-0.2-2.1-0.7C163.4,161.6,163.2,161,163.2,160.2z M168.6,184.3h-5.1
			v-19.1h5.1V184.3z"/>
		<path class="st4" d="M177.5,165.1l0.2,2.2c1.4-1.7,3.2-2.6,5.5-2.6c2,0,3.5,0.6,4.5,1.8c1,1.2,1.5,3,1.5,5.3v12.4h-5.1V172
			c0-1.1-0.2-1.9-0.7-2.4s-1.3-0.7-2.4-0.7c-1.4,0-2.5,0.6-3.2,1.8v13.5h-5.1v-19.1H177.5z"/>
		<path class="st4" d="M193,160.2c0-0.8,0.3-1.4,0.8-1.9c0.5-0.5,1.2-0.7,2.1-0.7c0.9,0,1.6,0.2,2.1,0.7c0.5,0.5,0.8,1.1,0.8,1.9
			c0,0.8-0.3,1.4-0.8,1.9c-0.5,0.5-1.2,0.7-2.1,0.7c-0.9,0-1.6-0.2-2.1-0.7C193.3,161.6,193,161,193,160.2z M198.5,184.3h-5.1v-19.1
			h5.1V184.3z"/>
		<path class="st4" d="M207.4,165.1l0.2,2.2c1.4-1.7,3.2-2.6,5.5-2.6c2,0,3.5,0.6,4.5,1.8c1,1.2,1.5,3,1.5,5.3v12.4H214V172
			c0-1.1-0.2-1.9-0.7-2.4s-1.3-0.7-2.4-0.7c-1.4,0-2.5,0.6-3.2,1.8v13.5h-5.1v-19.1H207.4z"/>
		<path class="st4" d="M222.2,174.6c0-2.9,0.7-5.3,2.1-7.1c1.4-1.8,3.3-2.7,5.7-2.7c2.1,0,3.7,0.7,4.9,2.2l0.2-1.8h4.6v18.5
			c0,1.7-0.4,3.1-1.1,4.4c-0.8,1.2-1.8,2.2-3.2,2.8c-1.4,0.6-3,1-4.8,1c-1.4,0-2.8-0.3-4.1-0.8c-1.3-0.6-2.3-1.3-3-2.2l2.3-3.1
			c1.3,1.4,2.8,2.1,4.6,2.1c1.4,0,2.4-0.4,3.2-1.1s1.1-1.8,1.1-3.1v-1c-1.2,1.3-2.7,2-4.7,2c-2.3,0-4.2-0.9-5.6-2.7
			c-1.4-1.8-2.1-4.2-2.1-7.2V174.6z M227.3,174.9c0,1.7,0.3,3.1,1,4.1c0.7,1,1.7,1.5,2.9,1.5c1.6,0,2.7-0.6,3.3-1.8v-8.1
			c-0.7-1.2-1.8-1.8-3.3-1.8c-1.2,0-2.2,0.5-2.9,1.5C227.7,171.4,227.3,172.9,227.3,174.9z"/>
		<path class="st4" d="M273.1,176.8l3.5-18.3h5.3l-5.7,25.8h-5.3l-4.2-17.2l-4.2,17.2h-5.3l-5.7-25.8h5.3l3.5,18.3l4.2-18.3h4.5
			L273.1,176.8z"/>
		<path class="st4" d="M284.3,160.2c0-0.8,0.3-1.4,0.8-1.9c0.5-0.5,1.2-0.7,2.1-0.7c0.9,0,1.6,0.2,2.1,0.7c0.5,0.5,0.8,1.1,0.8,1.9
			c0,0.8-0.3,1.4-0.8,1.9c-0.5,0.5-1.2,0.7-2.1,0.7c-0.9,0-1.6-0.2-2.1-0.7C284.6,161.6,284.3,161,284.3,160.2z M289.8,184.3h-5.1
			v-19.1h5.1V184.3z"/>
		<path class="st4" d="M303.9,175.3h-10v-4.1h10V175.3z"/>
		<path class="st4" d="M323.9,173.7h-10.2v10.5h-5.3v-25.8h16.8v4.3h-11.5v6.7h10.2V173.7z"/>
		<path class="st4" d="M327.8,160.2c0-0.8,0.3-1.4,0.8-1.9c0.5-0.5,1.2-0.7,2.1-0.7c0.9,0,1.6,0.2,2.1,0.7c0.5,0.5,0.8,1.1,0.8,1.9
			c0,0.8-0.3,1.4-0.8,1.9c-0.5,0.5-1.2,0.7-2.1,0.7c-0.9,0-1.6-0.2-2.1-0.7C328.1,161.6,327.8,161,327.8,160.2z M333.3,184.3h-5.1
			v-19.1h5.1V184.3z"/>
		<path class="st4" d="M153,208.6l0.2,2.2c1.4-1.7,3.2-2.6,5.5-2.6c2,0,3.5,0.6,4.5,1.8c1,1.2,1.5,3,1.5,5.3v12.4h-5.1v-12.2
			c0-1.1-0.2-1.9-0.7-2.4c-0.5-0.5-1.3-0.7-2.4-0.7c-1.4,0-2.5,0.6-3.2,1.8v13.5h-5.1v-19.1H153z"/>
		<path class="st4" d="M177.4,228.1c-2.8,0-5.1-0.9-6.9-2.6c-1.8-1.7-2.6-4-2.6-6.9v-0.5c0-1.9,0.4-3.6,1.1-5.2
			c0.7-1.5,1.8-2.7,3.2-3.5c1.4-0.8,2.9-1.2,4.7-1.2c2.6,0,4.7,0.8,6.2,2.5c1.5,1.7,2.3,4,2.3,7v2.1h-12.2c0.2,1.2,0.7,2.3,1.5,3
			c0.8,0.8,1.9,1.1,3.2,1.1c2,0,3.5-0.7,4.6-2.1l2.5,2.8c-0.8,1.1-1.8,1.9-3.1,2.5C180.4,227.8,179,228.1,177.4,228.1z M176.8,212.4
			c-1,0-1.8,0.3-2.5,1s-1,1.7-1.2,2.9h7.1v-0.4c0-1.1-0.3-2-0.9-2.6S177.9,212.4,176.8,212.4z"/>
		<path class="st4" d="M194.3,203.9v4.7h3.3v3.8h-3.3v9.6c0,0.7,0.1,1.2,0.4,1.5c0.3,0.3,0.8,0.5,1.6,0.5c0.6,0,1.1,0,1.5-0.1v3.9
			c-1,0.3-2,0.5-3.1,0.5c-3.6,0-5.4-1.8-5.5-5.4v-10.3h-2.8v-3.8h2.8v-4.7H194.3z"/>
		<path class="st4" d="M217,220.8l2.5-12.2h4.9l-4.9,19.1h-4.3l-3.6-12l-3.6,12h-4.3l-4.9-19.1h4.9l2.5,12.2l3.5-12.2h3.7L217,220.8
			z"/>
		<path class="st4" d="M226.2,218c0-1.9,0.4-3.6,1.1-5.1c0.7-1.5,1.8-2.6,3.2-3.4c1.4-0.8,3-1.2,4.8-1.2c2.6,0,4.7,0.8,6.3,2.4
			c1.6,1.6,2.5,3.7,2.7,6.4l0,1.3c0,2.9-0.8,5.3-2.5,7.1c-1.6,1.8-3.8,2.7-6.6,2.7s-5-0.9-6.6-2.7c-1.6-1.8-2.5-4.2-2.5-7.2V218z
			 M231.3,218.4c0,1.8,0.3,3.2,1,4.2c0.7,1,1.7,1.4,2.9,1.4c1.2,0,2.2-0.5,2.9-1.4c0.7-1,1-2.5,1-4.6c0-1.8-0.3-3.2-1-4.1
			c-0.7-1-1.7-1.5-2.9-1.5c-1.2,0-2.2,0.5-2.9,1.5C231.7,214.8,231.3,216.3,231.3,218.4z"/>
		<path class="st4" d="M258.3,213.4c-0.7-0.1-1.3-0.1-1.8-0.1c-1.9,0-3.2,0.7-3.8,2v12.5h-5.1v-19.1h4.8l0.1,2.3
			c1-1.8,2.4-2.6,4.3-2.6c0.6,0,1.1,0.1,1.6,0.2L258.3,213.4z"/>
		<path class="st4" d="M267.7,220.1l-1.8,1.8v5.8h-5.1v-27.2h5.1v15.1l1-1.3l4.9-5.7h6.1l-6.9,8l7.5,11.2h-5.9L267.7,220.1z"/>
		<path class="st4" d="M280.3,225.2c0-0.8,0.3-1.5,0.8-2c0.5-0.5,1.2-0.8,2.1-0.8c0.8,0,1.5,0.3,2.1,0.8c0.5,0.5,0.8,1.2,0.8,2
			c0,0.8-0.3,1.5-0.8,2c-0.5,0.5-1.2,0.8-2.1,0.8c-0.8,0-1.5-0.3-2.1-0.8C280.6,226.7,280.3,226,280.3,225.2z"/>
		<path class="st4" d="M290.9,225.2c0-0.8,0.3-1.5,0.8-2c0.5-0.5,1.2-0.8,2.1-0.8c0.8,0,1.5,0.3,2.1,0.8c0.5,0.5,0.8,1.2,0.8,2
			c0,0.8-0.3,1.5-0.8,2c-0.5,0.5-1.2,0.8-2.1,0.8c-0.8,0-1.5-0.3-2.1-0.8C291.1,226.7,290.9,226,290.9,225.2z"/>
		<path class="st4" d="M301.4,225.2c0-0.8,0.3-1.5,0.8-2c0.5-0.5,1.2-0.8,2.1-0.8c0.8,0,1.5,0.3,2.1,0.8c0.5,0.5,0.8,1.2,0.8,2
			c0,0.8-0.3,1.5-0.8,2c-0.5,0.5-1.2,0.8-2.1,0.8c-0.8,0-1.5-0.3-2.1-0.8C301.7,226.7,301.4,226,301.4,225.2z"/>
	</g>
	<g>
		<path class="st4" d="M400.5,119.4h-28.6V21.1c0-11.6-9.4-21.1-21.1-21.1H107.3C95.7,0,86.2,9.4,86.2,21.1v98.4H55.6
			c-11.4,0-20.7,9.3-20.7,20.7v106.9c0,11.4,9.3,20.7,20.7,20.7h30.7v38c-0.1,0.1-0.2,0.1-0.3,0.2l-46,46
			C14.2,377.9,0,412.1,0,448.5v119.3c0,3.3,2.7,6,6,6c3.3,0,6-2.7,6-6V448.5c0-33.2,12.9-64.4,36.4-87.9l37.8-37.8v83.9l-30.8,30.8
			l8.5,8.5l93.6-93.6c12.3,1,22,11.4,22,24c0,6.1-2.3,12-6.5,16.4c0,0-0.1,0.1-0.1,0.1l-56.6,62.8c-0.8,0.9-1.3,2-1.5,3.1l-2.3,2.6
			h2.5c0.2,0.8,0.6,1.6,1.2,2.2c9.3,10.8,14.5,24.6,14.5,39c0,14.3-5.1,28.1-14.5,39c-2.2,2.5-1.9,6.3,0.6,8.5
			c1.1,1,2.5,1.5,3.9,1.5c1.7,0,3.4-0.7,4.5-2.1c11.2-13,17.4-29.6,17.4-46.8c0-14.8-4.6-29.2-13-41.2h83.6v26.9
			c0,22.9-12.8,43.4-33.3,53.6c-2,1-3.3,3.1-3.3,5.4V571c0,3.3,2.7,6,6,6s6-2.7,6-6v-20.1c22.7-12.7,36.6-36.3,36.6-62.5v-26.9
			h125.4c11.6,0,21.1-9.4,21.1-21.1V267.8h28.6c11.4,0,20.7-9.3,20.7-20.7V140.2C421.2,128.7,411.9,119.4,400.5,119.4z M96.2,21.1
			c0-6.1,5-11.1,11.1-11.1h243.5c6.1,0,11.1,5,11.1,11.1v98.4H96.2V21.1z M361.9,440.4c0,6.1-5,11.1-11.1,11.1H136.4l45.4-50.4
			c6.2-6.7,9.7-15.4,9.7-24.6c0-19.9-16.2-36.1-36.1-36.1l-0.4,0c-1.6,0-3.1,0.6-4.2,1.8l-54.6,54.6V267.8h265.6V440.4z
			 M409.2,247.1c0,4.8-3.9,8.7-8.7,8.7H55.6c-4.8,0-8.7-3.9-8.7-8.7V140.2c0-4.8,3.9-8.7,8.7-8.7h344.9c4.8,0,8.7,3.9,8.7,8.7V247.1
			z"/>
		<path class="st4" d="M228,428.9c10.7,0,19.5-8.7,19.5-19.5s-8.7-19.5-19.5-19.5s-19.5,8.7-19.5,19.5S217.2,428.9,228,428.9z
			 M228,399.9c5.2,0,9.5,4.2,9.5,9.5s-4.2,9.5-9.5,9.5c-5.2,0-9.5-4.2-9.5-9.5S222.7,399.9,228,399.9z"/>
	</g>
	<g>
		<path class="st4" d="M835.4,352.1l-46-46c-0.1-0.1-0.3-0.3-0.5-0.4v-38.1h30.8c11.4,0,20.7-9.3,20.7-20.7V140.2
			c0-11.4-9.3-20.7-20.7-20.7h-30.8V21.1c0-11.6-9.4-21.1-21.1-21.1H524.3c-11.6,0-21.1,9.4-21.1,21.1v98.4h-28.5
			c-11.4,0-20.7,9.3-20.7,20.7v106.7c0,11.4,9.3,20.7,20.7,20.7h28.5v172.8c0,11.6,9.4,21.1,21.1,21.1h125.6v26.9
			c0,26.2,13.9,49.9,36.6,62.5V571c0,3.3,2.7,6,6,6s6-2.7,6-6v-23.7c0-2.3-1.3-4.4-3.3-5.4c-20.5-10.1-33.3-30.7-33.3-53.6v-26.9
			h83.6c-8.4,12-13,26.4-13,41.2c0,17.2,6.2,33.8,17.4,46.8c1.2,1.4,2.9,2.1,4.5,2.1c1.4,0,2.8-0.5,3.9-1.5c2.5-2.2,2.8-6,0.6-8.5
			c-9.3-10.8-14.5-24.7-14.5-39s5.1-28.1,14.5-39c0.6-0.7,1-1.4,1.2-2.2h2.5l-2.3-2.6c-0.2-1.1-0.6-2.2-1.5-3.1l-56.6-62.8
			c0,0-0.1-0.1-0.1-0.1c-4.2-4.5-6.5-10.3-6.5-16.4c0-12.6,9.7-23,22-24l93.6,93.6l8.5-8.5l-31-31v-83.9l38,38
			c23.5,23.5,36.4,54.7,36.4,87.9v119.3c0,3.3,2.7,6,6,6s6-2.7,6-6V448.5C875.3,412.1,861.2,377.9,835.4,352.1z M513.3,21.1
			c0-6.1,5-11.1,11.1-11.1h243.5c6.1,0,11.1,5,11.1,11.1v98.4H513.3V21.1z M466,246.9V140.2c0-4.8,3.9-8.7,8.7-8.7h344.9
			c4.8,0,8.7,3.9,8.7,8.7v106.7c0,4.8-3.9,8.7-8.7,8.7H474.8C469.9,255.6,466,251.7,466,246.9z M724.5,342.1
			c-1.1-1.1-2.6-1.7-4.2-1.8l-0.4,0c-19.9,0-36.1,16.2-36.1,36.1c0,9.2,3.4,17.9,9.7,24.6l45.4,50.4H524.3c-6.1,0-11.1-5-11.1-11.1
			V267.6h265.6v128.9L724.5,342.1z"/>
		<path class="st4" d="M647.2,389.9c-10.7,0-19.5,8.7-19.5,19.5c0,10.7,8.7,19.5,19.5,19.5s19.5-8.7,19.5-19.5
			C666.6,398.7,657.9,389.9,647.2,389.9z M647.2,418.9c-5.2,0-9.5-4.2-9.5-9.5s4.2-9.5,9.5-9.5c5.2,0,9.5,4.2,9.5,9.5
			S652.4,418.9,647.2,418.9z"/>
	</g>
	<g>
		<path class="st1" d="M823.7,367h-351c-10.7,0-19.3-8.7-19.3-19.3v-61c0-10.7,8.7-19.3,19.3-19.3h351c10.7,0,19.3,8.7,19.3,19.3v61
			C843,358.4,834.4,367,823.7,367z"/>
	</g>
	<g>
		<path class="st4" d="M532.1,315.5c0-1-0.4-1.8-1.1-2.3c-0.7-0.5-2-1.1-3.8-1.7c-1.8-0.6-3.3-1.2-4.4-1.8c-2.9-1.6-4.4-3.7-4.4-6.4
			c0-1.4,0.4-2.6,1.2-3.7c0.8-1.1,1.9-1.9,3.4-2.6c1.5-0.6,3.1-0.9,4.9-0.9c1.8,0,3.5,0.3,4.9,1c1.4,0.7,2.6,1.6,3.4,2.8
			c0.8,1.2,1.2,2.6,1.2,4.1h-5.3c0-1.2-0.4-2.1-1.1-2.8c-0.7-0.7-1.8-1-3.1-1c-1.3,0-2.3,0.3-3,0.8c-0.7,0.5-1.1,1.3-1.1,2.2
			c0,0.8,0.4,1.5,1.3,2.1c0.8,0.6,2.1,1.1,3.7,1.6c3,0.9,5.2,2,6.6,3.4s2.1,3,2.1,5c0,2.2-0.8,4-2.5,5.2c-1.7,1.3-4,1.9-6.8,1.9
			c-2,0-3.8-0.4-5.4-1.1c-1.6-0.7-2.9-1.7-3.7-3c-0.9-1.3-1.3-2.7-1.3-4.4h5.3c0,2.8,1.7,4.3,5.1,4.3c1.3,0,2.2-0.3,3-0.8
			C531.7,317.1,532.1,316.4,532.1,315.5z"/>
		<path class="st4" d="M545.6,305.2c1.4-1.6,3.1-2.4,5.1-2.4c4.2,0,6.3,2.4,6.3,7.2v12.3H552v-12.1c0-1.1-0.2-1.9-0.7-2.4
			c-0.5-0.5-1.3-0.8-2.4-0.8c-1.5,0-2.6,0.6-3.3,1.7v13.6h-5.1v-27.2h5.1V305.2z"/>
		<path class="st4" d="M572,322.3c-0.2-0.5-0.4-1-0.5-1.7c-1.2,1.4-2.8,2.1-4.8,2.1c-1.9,0-3.4-0.5-4.7-1.6s-1.8-2.5-1.8-4.1
			c0-2,0.8-3.6,2.3-4.7s3.7-1.6,6.5-1.6h2.4v-1.1c0-0.9-0.2-1.6-0.7-2.1c-0.5-0.5-1.2-0.8-2.1-0.8c-0.9,0-1.5,0.2-2,0.6
			c-0.5,0.4-0.7,1-0.7,1.7h-5.1c0-1.1,0.3-2.1,1-3.1c0.7-0.9,1.7-1.7,2.9-2.2c1.2-0.5,2.7-0.8,4.2-0.8c2.4,0,4.2,0.6,5.6,1.8
			s2.1,2.9,2.1,5v8.3c0,1.8,0.3,3.2,0.8,4.1v0.3H572z M567.8,318.7c0.8,0,1.5-0.2,2.1-0.5s1.1-0.8,1.4-1.4v-3.3h-1.9
			c-2.6,0-3.9,0.9-4.1,2.7l0,0.3c0,0.6,0.2,1.2,0.7,1.6C566.4,318.5,567,318.7,567.8,318.7z"/>
		<path class="st4" d="M591.1,307.9c-0.7-0.1-1.3-0.1-1.8-0.1c-1.9,0-3.2,0.7-3.8,2v12.5h-5.1v-19.1h4.8l0.1,2.3
			c1-1.8,2.4-2.6,4.3-2.6c0.6,0,1.1,0.1,1.6,0.2L591.1,307.9z"/>
		<path class="st4" d="M602.4,322.6c-2.8,0-5.1-0.9-6.9-2.6c-1.8-1.7-2.6-4-2.6-6.9v-0.5c0-1.9,0.4-3.6,1.1-5.2
			c0.7-1.5,1.8-2.7,3.2-3.5s2.9-1.2,4.7-1.2c2.6,0,4.7,0.8,6.2,2.5c1.5,1.7,2.3,4,2.3,7v2.1h-12.2c0.2,1.2,0.7,2.3,1.5,3
			c0.8,0.8,1.9,1.1,3.2,1.1c2,0,3.5-0.7,4.6-2.1l2.5,2.8c-0.8,1.1-1.8,1.9-3.1,2.5C605.4,322.3,604,322.6,602.4,322.6z M601.8,306.9
			c-1,0-1.8,0.3-2.5,1c-0.6,0.7-1,1.7-1.2,2.9h7.1v-0.4c0-1.1-0.3-2-0.9-2.6C603.7,307.2,602.9,306.9,601.8,306.9z"/>
		<path class="st4" d="M639.4,312.9c0,2.9-0.7,5.3-2,7.1c-1.3,1.8-3.1,2.7-5.4,2.7c-1.9,0-3.5-0.7-4.7-2v9h-5.1v-26.5h4.7l0.2,1.9
			c1.2-1.5,2.9-2.2,4.8-2.2c2.4,0,4.2,0.9,5.5,2.6c1.3,1.7,2,4.2,2,7.2V312.9z M634.3,312.5c0-1.8-0.3-3.2-0.9-4.1s-1.5-1.5-2.8-1.5
			c-1.6,0-2.7,0.6-3.3,1.8v7.8c0.6,1.3,1.7,1.9,3.3,1.9C633.1,318.5,634.3,316.5,634.3,312.5z"/>
		<path class="st4" d="M653.7,322.3c-0.2-0.5-0.4-1-0.5-1.7c-1.2,1.4-2.8,2.1-4.8,2.1c-1.9,0-3.4-0.5-4.7-1.6s-1.8-2.5-1.8-4.1
			c0-2,0.8-3.6,2.3-4.7s3.7-1.6,6.5-1.6h2.4v-1.1c0-0.9-0.2-1.6-0.7-2.1c-0.5-0.5-1.2-0.8-2.1-0.8c-0.9,0-1.5,0.2-2,0.6
			c-0.5,0.4-0.7,1-0.7,1.7h-5.1c0-1.1,0.3-2.1,1-3.1c0.7-0.9,1.7-1.7,2.9-2.2c1.2-0.5,2.7-0.8,4.2-0.8c2.4,0,4.2,0.6,5.6,1.8
			s2.1,2.9,2.1,5v8.3c0,1.8,0.3,3.2,0.8,4.1v0.3H653.7z M649.4,318.7c0.8,0,1.5-0.2,2.1-0.5s1.1-0.8,1.4-1.4v-3.3H651
			c-2.6,0-3.9,0.9-4.1,2.7l0,0.3c0,0.6,0.2,1.2,0.7,1.6C648,318.5,648.6,318.7,649.4,318.7z"/>
		<path class="st4" d="M672.4,317c0-0.6-0.3-1.1-0.9-1.5c-0.6-0.4-1.6-0.7-3-1c-4.6-1-6.8-2.9-6.8-5.8c0-1.7,0.7-3.1,2.1-4.3
			s3.3-1.7,5.5-1.7c2.4,0,4.4,0.6,5.8,1.7c1.5,1.1,2.2,2.6,2.2,4.5h-5.1c0-0.7-0.2-1.3-0.7-1.8s-1.2-0.7-2.2-0.7
			c-0.9,0-1.5,0.2-2,0.6s-0.7,0.9-0.7,1.5c0,0.6,0.3,1,0.8,1.4c0.5,0.3,1.4,0.6,2.7,0.9s2.3,0.5,3.2,0.9c2.7,1,4.1,2.7,4.1,5.1
			c0,1.7-0.7,3.2-2.2,4.2c-1.5,1.1-3.4,1.6-5.8,1.6c-1.6,0-3-0.3-4.3-0.9c-1.2-0.6-2.2-1.4-2.9-2.4c-0.7-1-1.1-2.1-1.1-3.2h4.8
			c0,0.9,0.4,1.6,1,2.1c0.6,0.5,1.5,0.7,2.5,0.7c1,0,1.7-0.2,2.2-0.6C672.1,318.1,672.4,317.6,672.4,317z"/>
		<path class="st4" d="M691,317c0-0.6-0.3-1.1-0.9-1.5c-0.6-0.4-1.6-0.7-3-1c-4.6-1-6.8-2.9-6.8-5.8c0-1.7,0.7-3.1,2.1-4.3
			s3.3-1.7,5.5-1.7c2.4,0,4.4,0.6,5.8,1.7c1.5,1.1,2.2,2.6,2.2,4.5h-5.1c0-0.7-0.2-1.3-0.7-1.8s-1.2-0.7-2.2-0.7
			c-0.9,0-1.5,0.2-2,0.6s-0.7,0.9-0.7,1.5c0,0.6,0.3,1,0.8,1.4c0.5,0.3,1.4,0.6,2.7,0.9s2.3,0.5,3.2,0.9c2.7,1,4.1,2.7,4.1,5.1
			c0,1.7-0.7,3.2-2.2,4.2c-1.5,1.1-3.4,1.6-5.8,1.6c-1.6,0-3-0.3-4.3-0.9c-1.2-0.6-2.2-1.4-2.9-2.4c-0.7-1-1.1-2.1-1.1-3.2h4.8
			c0,0.9,0.4,1.6,1,2.1c0.6,0.5,1.5,0.7,2.5,0.7c1,0,1.7-0.2,2.2-0.6C690.7,318.1,691,317.6,691,317z"/>
		<path class="st4" d="M715.9,315.3l2.5-12.2h4.9l-4.9,19.1h-4.3l-3.6-12l-3.6,12h-4.3l-4.9-19.1h4.9l2.5,12.2l3.5-12.2h3.7
			L715.9,315.3z"/>
		<path class="st4" d="M725.1,312.5c0-1.9,0.4-3.6,1.1-5.1c0.7-1.5,1.8-2.6,3.2-3.4c1.4-0.8,3-1.2,4.8-1.2c2.6,0,4.7,0.8,6.3,2.4
			c1.6,1.6,2.5,3.7,2.7,6.4l0,1.3c0,2.9-0.8,5.3-2.5,7.1c-1.6,1.8-3.8,2.7-6.6,2.7s-5-0.9-6.6-2.7c-1.6-1.8-2.5-4.2-2.5-7.2V312.5z
			 M730.2,312.9c0,1.8,0.3,3.2,1,4.2c0.7,1,1.7,1.4,2.9,1.4c1.2,0,2.2-0.5,2.9-1.4c0.7-1,1-2.5,1-4.6c0-1.8-0.3-3.2-1-4.1
			c-0.7-1-1.7-1.5-2.9-1.5c-1.3,0-2.2,0.5-2.9,1.5C730.5,309.3,730.2,310.8,730.2,312.9z"/>
		<path class="st4" d="M757.1,307.9c-0.7-0.1-1.3-0.1-1.8-0.1c-1.9,0-3.2,0.7-3.8,2v12.5h-5.1v-19.1h4.8l0.1,2.3
			c1-1.8,2.4-2.6,4.3-2.6c0.6,0,1.1,0.1,1.6,0.2L757.1,307.9z"/>
		<path class="st4" d="M758.8,312.5c0-3,0.7-5.4,2-7.1c1.3-1.8,3.2-2.7,5.5-2.7c1.9,0,3.4,0.7,4.6,2.1v-9.8h5.1v27.2h-4.6l-0.2-2
			c-1.3,1.6-2.9,2.4-4.9,2.4c-2.3,0-4.1-0.9-5.4-2.7C759.5,318.2,758.8,315.7,758.8,312.5z M763.9,312.9c0,1.8,0.3,3.2,0.9,4.1
			c0.6,1,1.5,1.4,2.7,1.4c1.6,0,2.7-0.7,3.3-2v-7.6c-0.6-1.3-1.7-2-3.3-2C765.1,306.9,763.9,308.9,763.9,312.9z"/>
	</g>
	<g>
		<path class="st4" d="M819.7,363.3H474.8c-11.4,0-20.7-9.3-20.7-20.7v-66.3c0-11.4,9.3-20.7,20.7-20.7h344.9
			c11.4,0,20.7,9.3,20.7,20.7v66.3C840.4,354,831.1,363.3,819.7,363.3z M474.8,267.6c-4.8,0-8.7,3.9-8.7,8.7v66.3
			c0,4.8,3.9,8.7,8.7,8.7h344.9c4.8,0,8.7-3.9,8.7-8.7v-66.3c0-4.8-3.9-8.7-8.7-8.7H474.8z"/>
	</g>
</g>
</svg>
