<svg id="OUTLINES" xmlns="http://www.w3.org/2000/svg" viewBox="0 0 1152 1008"><defs><style>.cls-1{fill:#fff;}.cls-2{fill:#000f7c;}</style></defs><title>v5</title><path class="cls-1" d="M477.43,527.09H626.85a0,0,0,0,1,0,0V812.38a74.71,74.71,0,0,1-74.71,74.71h0a74.71,74.71,0,0,1-74.71-74.71V527.09A0,0,0,0,1,477.43,527.09Z" transform="translate(-279.57 370.8) rotate(-30)"/><path class="cls-1" d="M604.92,879a81.27,81.27,0,0,1-21-2.78,80.18,80.18,0,0,1-49-37.61L392.24,591.57a6,6,0,0,1,2.2-8.2l129.4-74.71a6,6,0,0,1,8.2,2.2L674.68,757.92A80.75,80.75,0,0,1,604.92,879ZM405.64,590.76,545.28,832.63a68.71,68.71,0,0,0,119-68.71L524.65,522.05Z"/><path class="cls-1" d="M627.38,306.6,674.9,393a21.61,21.61,0,0,0,18.93,11.19H875.45A21.6,21.6,0,0,0,897,382.58V209.78a21.6,21.6,0,0,0-21.6-21.6l-181.62,0a21.61,21.61,0,0,0-18.92,11.19l-47.52,86.39A21.63,21.63,0,0,0,627.38,306.6Z"/><path class="cls-1" d="M875.45,410.18H693.83a27.6,27.6,0,0,1-24.19-14.3l-47.51-86.39h0a27.47,27.47,0,0,1,0-26.6l47.51-86.39a27.6,27.6,0,0,1,24.18-14.3l181.62,0a27.6,27.6,0,0,1,27.6,27.6v172.8A27.63,27.63,0,0,1,875.45,410.18ZM632.64,303.71l47.52,86.39a15.59,15.59,0,0,0,13.67,8.08H875.45A15.61,15.61,0,0,0,891,382.58V209.78a15.59,15.59,0,0,0-15.6-15.6l-181.61,0a15.59,15.59,0,0,0-13.67,8.08l-47.52,86.39A15.53,15.53,0,0,0,632.64,303.71Z"/><path class="cls-2" d="M822,220v34.7h34.7V220Zm29.75,9.92v19.83H827V224.93h24.79Z"/><polygon class="cls-2" points="722.87 234.84 722.87 239.8 722.87 244.76 737.74 244.76 737.74 239.8 737.74 234.84 737.74 229.89 722.87 229.89 722.87 234.84"/><polygon class="cls-2" points="846.8 239.8 846.8 234.84 846.8 229.89 831.93 229.89 831.93 234.84 831.93 239.8 831.93 244.76 846.8 244.76 846.8 239.8"/><path class="cls-2" d="M747.65,249.72V220H713v34.7h34.7Zm-29.74,0V224.93H742.7v24.79Z"/><path class="cls-2" d="M713,334v29.74h34.7V329H713Zm29.75,0v24.78H717.91V334Z"/><polygon class="cls-2" points="737.74 348.86 737.74 343.9 737.74 338.94 722.87 338.94 722.87 343.9 722.87 348.86 722.87 353.82 737.74 353.82 737.74 348.86"/><polygon class="cls-2" points="757.57 224.93 767.48 224.93 767.48 229.89 772.44 229.89 772.44 219.97 752.61 219.97 752.61 229.89 757.57 229.89 757.57 224.93 757.57 224.93"/><polygon class="cls-2" points="787.31 229.89 792.27 229.89 792.27 219.97 777.4 219.97 777.4 224.93 787.31 224.93 787.31 229.89 787.31 229.89"/><polygon class="cls-2" points="807.14 224.93 807.14 219.97 797.23 219.97 797.23 224.93 802.18 224.93 802.18 229.89 807.14 229.89 807.14 224.93 807.14 224.93"/><polygon class="cls-2" points="762.53 234.84 762.53 229.89 757.57 229.89 757.57 234.84 762.53 234.84 762.53 234.84"/><polygon class="cls-2" points="782.36 229.89 777.4 229.89 777.4 234.84 782.36 234.84 782.36 229.89 782.36 229.89"/><polygon class="cls-2" points="817.05 229.89 812.1 229.89 812.1 234.84 817.05 234.84 817.05 229.89 817.05 229.89"/><polygon class="cls-2" points="772.44 249.72 772.44 254.67 777.4 254.67 777.4 249.72 782.36 249.72 782.36 254.67 787.31 254.67 787.31 244.76 777.4 244.76 777.4 234.84 767.48 234.84 767.48 244.76 772.44 244.76 772.44 249.72 772.44 249.72"/><polygon class="cls-2" points="792.27 249.72 792.27 254.67 787.31 254.67 787.31 259.63 792.27 259.63 792.27 264.59 797.23 264.59 797.23 249.72 802.18 249.72 802.18 244.76 807.14 244.76 807.14 239.8 812.1 239.8 812.1 234.84 802.18 234.84 802.18 229.89 797.23 229.89 797.23 239.8 792.27 239.8 792.27 234.84 787.31 234.84 787.31 244.76 792.27 244.76 792.27 249.72 792.27 249.72"/><polygon class="cls-2" points="727.83 264.59 727.83 259.63 712.95 259.63 712.95 269.54 722.87 269.54 722.87 264.59 727.83 264.59 727.83 264.59"/><polygon class="cls-2" points="737.74 259.63 737.74 264.59 747.65 264.59 747.65 259.63 737.74 259.63 737.74 259.63"/><polygon class="cls-2" points="836.88 264.59 836.88 259.63 817.05 259.63 817.05 244.76 812.1 244.76 812.1 254.67 807.14 254.67 807.14 249.72 802.18 249.72 802.18 259.63 812.1 259.63 812.1 264.59 802.18 264.59 802.18 269.54 807.14 269.54 807.14 284.42 802.18 284.42 802.18 299.29 807.14 299.29 807.14 294.33 817.05 294.33 817.05 284.42 812.1 284.42 812.1 274.5 817.05 274.5 817.05 264.59 822.01 264.59 822.01 269.54 831.93 269.54 831.93 264.59 836.88 264.59 836.88 264.59"/><polygon class="cls-2" points="846.8 264.59 846.8 269.54 851.76 269.54 851.76 274.5 856.71 274.5 856.71 259.63 846.8 259.63 846.8 264.59 846.8 264.59"/><polygon class="cls-2" points="797.23 274.5 802.18 274.5 802.18 269.54 797.23 269.54 797.23 274.5 797.23 274.5"/><polygon class="cls-2" points="831.93 274.5 836.88 274.5 836.88 279.46 841.84 279.46 841.84 274.5 846.8 274.5 846.8 269.54 831.93 269.54 831.93 274.5 831.93 274.5"/><polygon class="cls-2" points="747.65 284.42 747.65 279.46 742.7 279.46 742.7 284.42 747.65 284.42 747.65 284.42"/><polygon class="cls-2" points="851.76 284.42 846.8 284.42 846.8 289.37 851.76 289.37 851.76 294.33 856.71 294.33 856.71 279.46 851.76 279.46 851.76 284.42 851.76 284.42"/><polygon class="cls-2" points="722.87 289.37 722.87 279.46 712.95 279.46 712.95 294.33 717.91 294.33 717.91 289.37 722.87 289.37 722.87 289.37"/><polygon class="cls-2" points="742.7 289.37 742.7 284.42 737.74 284.42 737.74 294.33 747.65 294.33 747.65 289.37 742.7 289.37 742.7 289.37"/><polygon class="cls-2" points="757.57 294.33 762.53 294.33 762.53 289.37 757.57 289.37 757.57 294.33 757.57 294.33"/><polygon class="cls-2" points="772.44 294.33 772.44 289.37 767.48 289.37 767.48 294.33 772.44 294.33 772.44 294.33"/><polygon class="cls-2" points="722.87 294.33 717.91 294.33 717.91 299.29 722.87 299.29 722.87 294.33 722.87 294.33"/><polygon class="cls-2" points="757.57 294.33 747.65 294.33 747.65 299.29 757.57 299.29 757.57 294.33 757.57 294.33"/><path class="cls-2" d="M822,299.29v14.87h-5v-9.92h-5v-4.95h-5v9.91h-5v5h5v5h5V339h-5v9.91h5v-5h5v5h5v-5h9.92v9.92h-5v4.95h-5v5h19.83v-9.91h-5v-5h9.92v-5h-5V339h-5V329h9.92v-5h-5v-4.95H827V309.2h5v-5h-5v-4.95h5v-5h5v-5h-5v-9.91H822v9.91h5v5h-9.91v5Zm9.92,24.78V339H817.06V324.07Z"/><polygon class="cls-2" points="712.95 299.29 712.95 304.25 717.91 304.25 717.91 299.29 712.95 299.29 712.95 299.29"/><polygon class="cls-2" points="742.7 299.29 742.7 304.25 747.65 304.25 747.65 299.29 742.7 299.29 742.7 299.29"/><polygon class="cls-2" points="722.87 304.25 717.91 304.25 717.91 309.2 712.95 309.2 712.95 314.16 722.87 314.16 722.87 304.25 722.87 304.25"/><polygon class="cls-2" points="742.7 304.25 737.74 304.25 737.74 299.29 732.78 299.29 732.78 279.46 727.83 279.46 727.83 304.25 732.78 304.25 732.78 309.2 737.74 309.2 737.74 314.16 747.65 314.16 747.65 309.2 742.7 309.2 742.7 304.25 742.7 304.25"/><polygon class="cls-2" points="727.83 314.16 722.87 314.16 722.87 319.12 732.78 319.12 732.78 309.2 727.83 309.2 727.83 314.16 727.83 314.16"/><polygon class="cls-2" points="841.84 314.16 841.84 309.2 831.93 309.2 831.93 314.16 841.84 314.16 841.84 314.16"/><polygon class="cls-2" points="851.76 314.16 856.71 314.16 856.71 299.29 851.76 299.29 851.76 304.25 841.84 304.25 841.84 309.2 851.76 309.2 851.76 314.16 851.76 314.16"/><polygon class="cls-2" points="712.95 324.07 722.87 324.07 722.87 319.12 712.95 319.12 712.95 324.07 712.95 324.07"/><polygon class="cls-2" points="747.65 324.07 747.65 319.12 732.78 319.12 732.78 324.07 747.65 324.07 747.65 324.07"/><polygon class="cls-2" points="851.76 319.12 846.8 319.12 846.8 324.07 851.76 324.07 851.76 319.12 851.76 319.12"/><polygon class="cls-2" points="752.61 324.07 752.61 329.03 757.57 329.03 757.57 324.07 752.61 324.07 752.61 324.07"/><polygon class="cls-2" points="762.53 329.03 767.48 329.03 767.48 319.12 777.4 319.12 777.4 314.16 782.36 314.16 782.36 319.12 777.4 319.12 777.4 329.03 787.31 329.03 787.31 338.94 792.27 338.94 792.27 343.9 797.23 343.9 797.23 333.99 802.18 333.99 802.18 338.94 807.14 338.94 807.14 324.07 797.23 324.07 797.23 319.12 792.27 319.12 792.27 309.2 797.23 309.2 797.23 294.33 792.27 294.33 792.27 289.37 797.23 289.37 797.23 274.5 792.27 274.5 792.27 284.42 787.31 284.42 787.31 274.5 792.27 274.5 792.27 264.59 787.31 264.59 787.31 269.54 777.4 269.54 777.4 264.59 782.36 264.59 782.36 254.67 777.4 254.67 777.4 259.63 767.48 259.63 767.48 264.59 772.44 264.59 772.44 274.5 767.48 274.5 767.48 269.54 757.57 269.54 757.57 264.59 762.53 264.59 762.53 254.67 757.57 254.67 757.57 249.72 762.53 249.72 762.53 254.67 767.48 254.67 767.48 244.76 757.57 244.76 757.57 239.8 752.61 239.8 752.61 264.59 747.65 264.59 747.65 269.54 732.78 269.54 732.78 264.59 727.83 264.59 727.83 269.54 722.87 269.54 722.87 274.5 732.78 274.5 732.78 279.46 742.7 279.46 742.7 274.5 752.61 274.5 752.61 279.46 757.57 279.46 757.57 274.5 762.53 274.5 762.53 279.46 757.57 279.46 757.57 284.42 762.53 284.42 762.53 289.37 767.48 289.37 767.48 279.46 777.4 279.46 777.4 274.5 782.36 274.5 782.36 279.46 777.4 279.46 777.4 289.37 787.31 289.37 787.31 299.29 792.27 299.29 792.27 304.25 787.31 304.25 787.31 309.2 777.4 309.2 777.4 304.25 782.36 304.25 782.36 294.33 777.4 294.33 777.4 299.29 767.48 299.29 767.48 294.33 762.53 294.33 762.53 304.25 747.65 304.25 747.65 309.2 767.48 309.2 767.48 304.25 772.44 304.25 772.44 314.16 752.61 314.16 752.61 319.12 757.57 319.12 757.57 324.07 762.53 324.07 762.53 329.03 762.53 329.03"/><polygon class="cls-2" points="772.44 333.99 772.44 329.03 767.48 329.03 767.48 333.99 772.44 333.99 772.44 333.99"/><polygon class="cls-2" points="826.97 329.03 822.01 329.03 822.01 333.99 826.97 333.99 826.97 329.03 826.97 329.03"/><polygon class="cls-2" points="851.76 333.99 846.8 333.99 846.8 343.9 851.76 343.9 851.76 348.86 846.8 348.86 846.8 353.82 856.71 353.82 856.71 324.07 851.76 324.07 851.76 333.99 851.76 333.99"/><polygon class="cls-2" points="762.53 333.99 762.53 329.03 757.57 329.03 757.57 333.99 752.61 333.99 752.61 338.94 757.57 338.94 757.57 343.9 762.53 343.9 762.53 338.94 767.48 338.94 767.48 333.99 762.53 333.99 762.53 333.99"/><polygon class="cls-2" points="802.18 343.9 797.23 343.9 797.23 348.86 792.27 348.86 792.27 343.9 787.31 343.9 787.31 348.86 777.4 348.86 777.4 343.9 782.36 343.9 782.36 333.99 777.4 333.99 777.4 338.94 767.48 338.94 767.48 343.9 772.44 343.9 772.44 353.82 762.53 353.82 762.53 358.77 757.57 358.77 757.57 348.86 752.61 348.86 752.61 363.73 767.48 363.73 767.48 358.77 777.4 358.77 777.4 353.82 782.36 353.82 782.36 358.77 777.4 358.77 777.4 363.73 797.23 363.73 797.23 353.82 802.18 353.82 802.18 358.77 807.14 358.77 807.14 348.86 802.18 348.86 802.18 343.9 802.18 343.9"/><polygon class="cls-2" points="817.05 353.82 817.05 348.86 812.1 348.86 812.1 363.73 817.05 363.73 817.05 358.77 822.01 358.77 822.01 353.82 817.05 353.82 817.05 353.82"/><polygon class="cls-2" points="851.76 363.73 856.71 363.73 856.71 358.77 851.76 358.77 851.76 363.73 851.76 363.73"/><path class="cls-2" d="M871.11,405.85H689.49a27.6,27.6,0,0,1-24.18-14.3l-47.52-86.39a27.47,27.47,0,0,1,0-26.6l47.52-86.4a27.61,27.61,0,0,1,24.18-14.29l181.62,0a27.59,27.59,0,0,1,27.6,27.6v172.8A27.63,27.63,0,0,1,871.11,405.85ZM628.31,299.38l47.52,86.39a15.6,15.6,0,0,0,13.66,8.08H871.11a15.61,15.61,0,0,0,15.6-15.6V205.45a15.6,15.6,0,0,0-15.6-15.6l-181.62,0A15.58,15.58,0,0,0,675.83,198l-47.52,86.39A15.53,15.53,0,0,0,628.31,299.38Z"/><path class="cls-2" d="M659.48,312.43a20.58,20.58,0,1,1,20.58-20.58A20.61,20.61,0,0,1,659.48,312.43Zm0-31.16a10.58,10.58,0,1,0,10.58,10.58A10.59,10.59,0,0,0,659.48,281.27Z"/><path class="cls-2" d="M605.08,909.88A114.68,114.68,0,0,1,575.44,906a113.06,113.06,0,0,1-69.11-53L288.91,476.34,286.09,478a33.17,33.17,0,0,1-33.17-57.45l202.63-117,3,5.19-3-5.19A33.17,33.17,0,0,1,488.72,361L486,362.54,703.45,739.13a113.88,113.88,0,0,1-98.37,170.75Zm-314-447.73a6.28,6.28,0,0,1,1.55.2,6,6,0,0,1,3.64,2.8L516.73,846.93a101.8,101.8,0,1,0,176.33-101.8L472.63,363.34a6,6,0,0,1,2.2-8.19l7.89-4.56a21.17,21.17,0,0,0-21.17-36.66h0l-202.63,117a21.17,21.17,0,0,0,21.17,36.66l8-4.63A6,6,0,0,1,291.11,462.15Z"/><path class="cls-2" d="M269.82,423.7a6,6,0,0,1-3.81-1.37L221.2,385.46a6,6,0,0,1,.81-9.83L433.76,253.38a6,6,0,0,1,8.91,4.21l9.53,57.24a6,6,0,0,1-2.92,6.19L272.82,422.89A6,6,0,0,1,269.82,423.7Zm-34.31-42,34.91,28.72L439.68,312.7l-7.42-44.6Z"/><path class="cls-2" d="M604.32,873.83a81.28,81.28,0,0,1-21-2.79,80.17,80.17,0,0,1-49-37.6L391.64,586.37a6,6,0,0,1,2.2-8.2l129.4-74.71a6,6,0,0,1,8.2,2.2L674.08,752.73a80.77,80.77,0,0,1-69.76,121.1ZM405,585.56,544.68,827.44a68.71,68.71,0,1,0,119-68.71L524.05,516.85Z"/><path class="cls-2" d="M313.21,511.94a5,5,0,0,1-2.5-9.33L493.87,396.86l.18-.09c46.36-24.38,57.08-32.34,65.36-61.29a65.54,65.54,0,0,1,32.92-40.73c18.1-9.63,41-12.27,68-7.83a5,5,0,1,1-1.63,9.86c-24.43-4-45.74-1.66-61.63,6.8a55.78,55.78,0,0,0-28,34.65c-9.72,34-25.65,43.9-70.23,67.34L315.71,511.27A4.94,4.94,0,0,1,313.21,511.94Z"/></svg>