<?xml version="1.0" encoding="utf-8"?>
<!-- Generator: Adobe Illustrator 19.1.0, SVG Export Plug-In . SVG Version: 6.00 Build 0)  -->
<svg version="1.1" id="Layer_1" xmlns="http://www.w3.org/2000/svg" xmlns:xlink="http://www.w3.org/1999/xlink" x="0px" y="0px"
	 viewBox="0 0 841.9 560.8" style="enable-background:new 0 0 841.9 560.8;" xml:space="preserve">
<style type="text/css">
	.st0{fill:none;stroke:#010101;stroke-linecap:round;stroke-linejoin:round;}
	.st1{fill:none;}
	.st2{fill:#E4E4E4;}
	.st3{fill:none;stroke:#010101;stroke-width:0.5;stroke-linecap:round;stroke-linejoin:round;}
	.st4{fill:#FFFFFF;}
	.st5{fill:none;stroke:#010101;stroke-width:5;stroke-linecap:round;stroke-linejoin:round;}
	.st6{fill:#010101;}
</style>
<path class="st0" d="M455.6,204.2l-1.5,4.3l3,4.5l-1.8,5.5l2.2,7l-2,3.5l1.5,2.2l-7.5,11.2l-3.6-6.5l-0.9-29.5c0,0-8.8-5.2-8.5-16.8
	s10.6-13.3,15.1-11.6"/>
<line class="st0" x1="450.5" y1="203.1" x2="450.5" y2="234"/>
<line class="st1" x1="0" y1="31.1" x2="841.9" y2="31.1"/>
<path class="st2" d="M689.7,0.5c0,0-53.3,29.6-67.3,36.8c-13.9,7.2-30.4,21.9-45.1,29c-14.7,7-43.1,14.9-62.6,17.3
	c-19.5,2.4-45.1,6-50,6.7c-4.8,0.7-12.3,6.4-13.7,13.3c-1.5,6.8-6,19.4-9.7,26.2c-3.7,6.7-5.3,18.6-4.3,30.1
	c0.9,11.5-0.7,16.3,1.8,20.6c0.2,0.3,0.1,0.6,0.6,0.3c0.7-0.4,2.2-1.5,3.5-2.2c3.2-1.8,8.4-1.6,8.9-0.3c2,5.6-5.9,21.6-1.6,21.5
	c0,0,19.3-1.3,7.1-26.3c0,0,0.1-6,0.2-11.6c0,0,5.7,8.7,8.9,12.8c3.3,4.1,4.4,4.9,11.7,7c7.3,2.1,18.2,4.6,19.1,5
	c0.9,0.4,10.6-1.9,6.6-10.5c0,0,5.6,1,7.2,0.6c0,0,7.4,0.5,10.1-0.7c0,0,5.4-2.2,4.1-6.7c0,0,6.2-2.8,9.1-5.6
	c2.8-2.8,2.3-8.3-2.8-10.6c0,0,12.2-7,17.8-13.7c0,0,14.7-3.6,23.7-13.2c9-9.6,26.6-14.5,79.8-29.1C705.7,82.5,736,72.8,736,72.8"/>
<path class="st2" d="M689.7,0.5c0,0-53.3,29.6-67.3,36.8c-13.9,7.2-30.4,21.9-45.1,29c-14.7,7-43.1,14.9-62.6,17.3
	c-19.5,2.4-45.1,6-50,6.7c-4.8,0.7-12.3,6.4-13.7,13.3c-1.5,6.8-6,19.4-9.7,26.2c-3.7,6.7-5.3,18.6-4.3,30.1
	c0.9,11.5-0.1,16.4,2.3,20.7"/>
<path class="st0" d="M447.5,199c0.7,0.5,1.5,0.7,2.5,0.7c0,0,19.3-1.3,7.1-26.3c0,0,0.1-6,0.2-11.6c0,0,5.7,8.7,8.9,12.8
	c3.3,4.1,4.4,4.9,11.7,7c7.3,2.1,18.2,4.6,19.1,5c0.9,0.4,10.6-1.9,6.6-10.5c0,0,5.6,1,7.2,0.6c0,0,7.4,0.5,10.1-0.7
	c0,0,5.4-2.2,4.1-6.7c0,0,6.2-2.8,9.1-5.6c2.8-2.8,2.3-8.3-2.8-10.6c0,0,12.2-7,17.8-13.7c0,0,14.7-3.6,23.7-13.2
	c9-9.6,26.6-14.5,79.8-29.1C705.7,82.5,736,72.8,736,72.8"/>
<path class="st0" d="M447.5,199"/>
<path class="st0" d="M439.6,182.6"/>
<path class="st0" d="M439.6,182.6"/>
<path class="st0" d="M689.7,0.5c0,0-53.3,29.6-67.3,36.8c-13.9,7.2-30.4,21.9-45.1,29c-14.7,7-43.1,14.9-62.6,17.3
	c-19.5,2.4-45.1,6-50,6.7c-4.8,0.7-12.3,6.4-13.7,13.3c-1.5,6.8-6,19.4-9.7,26.2c-3.7,6.7-5.3,18.6-4.3,30.1
	c0.9,10.5,0.3,17.3,2.1,21.6"/>
<path class="st2" d="M457.4,161.7c0,0,0.7-5.2,0.4-9.3c0,0,8.5-12.1,6.1-16.3c0,0,8.9,3.1,14.1-1.2c0,0,2.7,4.6,6,6.1"/>
<path class="st0" d="M457.4,161.7c0,0,0.7-5.2,0.4-9.3c0,0,8.5-12.1,6.1-16.3c0,0,8.9,3.1,14.1-1.2c0,0,2.7,4.6,6,6.1"/>
<path class="st2" d="M455.6,151.9c-2.2,0.3-8.5,0.6-12.3-0.4"/>
<path class="st3" d="M455.6,151.9c-2.2,0.3-8.5,0.6-12.3-0.4"/>
<path class="st2" d="M484.4,183c0,0,1.6-2.9,3.8-2.7c2.2,0.2,6.6-0.3,7.2,0.4c0.7,0.7-0.7,4.6,1.1,5.6"/>
<path class="st3" d="M484.4,183c0,0,1.6-2.9,3.8-2.7c2.2,0.2,6.6-0.3,7.2,0.4c0.7,0.7-0.7,4.6,1.1,5.6"/>
<path class="st2" d="M509,176.4c0,0-1.1-3.9,1.7-4.8c2.9-0.9,3.9-1.1,4.6-0.4c0.7,0.7,5.2,5.3,5.6,4.9"/>
<path class="st3" d="M509,176.4c0,0-1.1-3.9,1.7-4.8c2.9-0.9,3.9-1.1,4.6-0.4c0.7,0.7,5.2,5.3,5.6,4.9"/>
<path class="st2" d="M525,169.4c0,0-1.6-3.5-3.3-5.6c-0.9-1.2,2.9-2.8,4-3.1c1.2-0.3,5.7,3,8.4,3.1"/>
<path class="st3" d="M525,169.4c0,0-1.6-3.5-3.3-5.6c-0.9-1.2,2.9-2.8,4-3.1c1.2-0.3,5.7,3,8.4,3.1"/>
<path class="st2" d="M577.4,117.4c-1.3-1.7-5.1-1.1-6.2-2"/>
<path class="st3" d="M577.4,117.4c-1.3-1.7-5.1-1.1-6.2-2"/>
<path class="st2" d="M573.2,121.5c0,0-5.6-1.5-7.1-1.2"/>
<path class="st3" d="M573.2,121.5c0,0-5.6-1.5-7.1-1.2"/>
<path class="st2" d="M463.8,136.2c0,0-6.7-5-10.1-10.8"/>
<path class="st3" d="M463.8,136.2c0,0-6.7-5-10.1-10.8"/>
<path class="st2" d="M478,135c0,0-4.4-3.7-12.4-17.7"/>
<path class="st0" d="M478,135c0,0-4.4-3.7-12.4-17.7"/>
<path class="st2" d="M475.2,152c-0.7,0.2-4-1.4-10.6,0.9"/>
<path class="st3" d="M475.2,152c-0.7,0.2-4-1.4-10.6,0.9"/>
<path class="st2" d="M454.4,171.4c0,0-5.1-2-10.5-1.4"/>
<path class="st3" d="M454.4,171.4c0,0-5.1-2-10.5-1.4"/>
<path class="st2" d="M549.1,139.5c0,0,4.7-5.2,8.9-12"/>
<path class="st0" d="M549.1,139.5c0,0,4.7-5.2,8.9-12"/>
<path class="st2" d="M503.6,176.1c0,0-2.6-6.6-8.8-6.8"/>
<path class="st0" d="M503.6,176.1c0,0-2.6-6.6-8.8-6.8"/>
<path class="st2" d="M525,169.4c0,0-2.5-10.4-10.9-9.8"/>
<path class="st2" d="M525,169.4c0,0-2.5-10.4-10.9-9.8"/>
<path class="st0" d="M525,169.4c0,0-2.5-10.4-10.9-9.8"/>
<path class="st2" d="M491.4,126.6c1.4-2.9-8.7,18.2-11.3,23.6c-2.7,5.5-9.2,10.9-15.5,14.6c-6.3,3.6-10.1,9.5-13.5,14.2
	c-3.3,4.6-9.9,15.4-3,21.4c6.8,6,12.6,1.5,15.6-0.3c3-1.8,16.6-11.4,22.6-18.2c6-6.8,19.1-16.9,31.5-22c10.3-4.4,11.7-5.9,13.3-6.6"
	/>
<path class="st2" d="M491.4,126.6c1.4-2.9-8.7,18.2-11.3,23.6c-2.7,5.5-9.2,10.9-15.5,14.6c-6.3,3.6-10.1,9.5-13.5,14.2
	c-3.3,4.6-9.9,15.4-3,21.4c6.8,6,12.6,1.5,15.6-0.3c3-1.8,16.6-11.4,22.6-18.2c6-6.8,19.1-16.9,31.5-22c10.3-4.4,11.7-5.9,13.3-6.6"
	/>
<path class="st0" d="M491.4,126.6c1.4-2.9-8.7,18.2-11.3,23.6c-2.7,5.5-9.2,10.9-15.5,14.6c-6.3,3.6-10.1,9.5-13.5,14.2
	c-3.3,4.6-9.9,15.4-3,21.4c6.8,6,12.6,1.5,15.6-0.3c3-1.8,16.6-11.4,22.6-18.2c6-6.8,19.1-16.9,31.5-22c10.3-4.4,11.7-5.9,13.3-6.6"
	/>
<path class="st2" d="M453.3,183.2c1.9-1.1,3.4-1.9,5.4,0.6c1.9,2.5,5.6,5.8,7.1,7.6c1.5,1.8,1.2,3.1-2.9,6.4"/>
<path class="st3" d="M446.9,188.2c0,0,4.5-3.9,6.5-5c1.9-1.1,3.4-1.9,5.4,0.6c1.9,2.5,5.6,5.8,7.1,7.6c1.5,1.8,1.2,3.1-2.9,6.4
	c-4.1,3.4-6.9,6.7-11,5.3"/>
<path class="st2" d="M467.5,170.5c0,0,7.7,4,11.1,9.9"/>
<path class="st3" d="M467.5,170.5c0,0,7.7,4,11.1,9.9"/>
<path class="st2" d="M476.7,169.9c0.4,0.4,3.6,2.3,6.1,7.4"/>
<path class="st3" d="M476.7,169.9c0.4,0.4,3.6,2.3,6.1,7.4"/>
<path class="st2" d="M466.5,177.2c0,0,3.3,3.9,5.4,5.3"/>
<path class="st3" d="M466.5,177.2c0,0,3.3,3.9,5.4,5.3"/>
<polygon class="st0" points="463.2,559.3 267.2,488.3 267.2,350.3 463.2,421.3 "/>
<polygon class="st0" points="595,481.3 399,410.3 399,272.3 595,343.3 "/>
<line class="st0" x1="595" y1="343.3" x2="463.2" y2="421.3"/>
<line class="st0" x1="595" y1="481.2" x2="463.2" y2="559.2"/>
<line class="st0" x1="399.8" y1="410.3" x2="268" y2="488.3"/>
<polygon class="st4" points="463.2,421.3 267.2,350.3 399,272.3 595,343.3 "/>
<polygon class="st0" points="463.2,421.3 267.2,350.3 399,272.3 595,343.3 "/>
<polygon class="st4" points="463.2,560.3 267.2,489.3 267.2,350.3 463.2,421.3 "/>
<polygon class="st0" points="463.2,560.3 267.2,489.3 267.2,350.3 463.2,421.3 "/>
<polygon class="st4" points="595,482.3 463.2,560.3 463.2,421.3 595,343.3 "/>
<polygon class="st0" points="595,482.3 463.2,560.3 463.2,421.3 595,343.3 "/>
<path class="st4" d="M509.3,295.5l-1.5,4.3l3,4.5l-1.8,5.5l2.2,7l-2,3.5l1.5,2.2l-7.5,11.2l-3.6-6.5l-0.9-29.5c0,0-8.8-5.2-8.5-16.8
	s12-18.2,11.5-13.4"/>
<path class="st0" d="M509.3,295.5l-1.5,4.3l3,4.5l-1.8,5.5l2.2,7l-2,3.5l1.5,2.2l-7.5,11.2l-3.6-6.5l-0.9-29.5c0,0-8.8-5.2-8.5-16.8
	c0.1-5.4,3.7-12,9.1-13.8c6.1-2,13.5,1.2,13.9,3.9"/>
<line class="st0" x1="504.2" y1="294.4" x2="504.2" y2="325.3"/>
<path class="st4" d="M499.3,280.1c-0.8,3.4-1,6.1,1.5,7.7c0,0,16.7,9.7,20.7-17.8c0,0,3.5-4.9,6.7-9.5c0,0-0.2,10.4,0.2,15.6
	c0.4,5.2,0.9,6.5,5.7,12.4c4.8,5.8,12.4,14.1,13,14.9c0.5,0.8,9.8,4.4,11.3-5c0,0,4.1,4,5.6,4.5c0,0,5.9,4.6,8.7,5.1
	c0,0,5.7,1.2,7.1-3.2c0,0,6.7,1.2,10.7,0.5c3.9-0.7,6.6-5.6,3.6-10.3c0,0,14,1.1,22.4-1.3c0,0,14.2,5.3,27,2.4
	c12.8-2.8,30.1,3,82.3,20.8c52.2,17.8,82.7,26.8,82.7,26.8"/>
<path class="st4" d="M810.9,257.8c0,0-60.8-5.5-76.4-7.4c-15.6-1.9-37.5,1-53.6-1.4c-16.1-2.4-44-11.9-61.5-20.9
	c-17.5-9-40.7-20.4-45.1-22.6c-4.4-2.2-13.8-1.6-18.8,3.2c-5,4.8-15.9,12.7-22.7,16.2c-6.8,3.5-14.8,12.4-20.5,22.5
	c-5.1,9-9.3,14.3-10.4,18.9"/>
<path class="st0" d="M498.9,285.1c0.2,1.1,0.8,2,1.9,2.7c0,0,16.7,9.7,20.7-17.8c0,0,3.5-4.9,6.7-9.5c0,0-0.2,10.4,0.2,15.6
	c0.4,5.2,0.9,6.5,5.7,12.4c4.8,5.8,12.4,14.1,13,14.9c0.5,0.8,9.8,4.4,11.3-5c0,0,4.1,4,5.6,4.5c0,0,5.9,4.6,8.7,5.1
	c0,0,5.7,1.2,7.1-3.2c0,0,6.7,1.2,10.7,0.5c3.9-0.7,6.6-5.6,3.6-10.3c0,0,14,1.1,22.4-1.3c0,0,14.2,5.3,27,2.4
	c12.8-2.8,30.1,3,82.3,20.8c52.2,17.8,82.7,26.8,82.7,26.8"/>
<path class="st0" d="M810.9,257.8c0,0-60.8-5.5-76.4-7.4c-15.6-1.9-37.5,1-53.6-1.4c-16.1-2.4-44-11.9-61.5-20.9
	c-17.5-9-40.7-20.4-45.1-22.6c-4.4-2.2-13.8-1.6-18.8,3.2c-5,4.8-15.9,12.7-22.7,16.2c-6.8,3.5-14.8,12.4-20.5,22.5
	c-5.1,9-9.3,14.3-10.4,18.9"/>
<path class="st0" d="M528.2,260.5c0,0,3.5-3.9,5.5-7.5c0,0,13.8-5.2,14.2-10c0,0,5.6,7.6,12.3,7c0,0-0.4,5.3,1.5,8.4"/>
<path class="st3" d="M532.2,251.4c-2-1-7.4-4.3-10-7.2"/>
<path class="st3" d="M538.5,293.3c0,0,3-1.5,4.7-0.1c1.7,1.4,5.6,3.4,5.8,4.4c0.2,1-3.2,3.4-2.3,5.2"/>
<path class="st3" d="M562.6,301.6c0,0,1.3-3.9,4.2-3c2.9,0.8,3.9,1.3,4.1,2.2c0.2,1,1.3,7.3,1.9,7.2"/>
<path class="st3" d="M579.8,304.8c0,0,0.6-3.8,0.4-6.5c-0.1-1.5,3.9-0.7,5.1-0.3c1.2,0.4,3.1,5.7,5.2,7.3"/>
<path class="st3" d="M652.4,291.3c-0.1-2.2-3.6-3.8-4-5.2"/>
<path class="st3" d="M646.5,292.3c0,0-3.8-4.4-5.2-5"/>
<path class="st3" d="M547.9,243c0,0-2.7-7.9-2.3-14.7"/>
<path class="st0" d="M560.2,250c0,0-1.6-5.6-0.3-21.6"/>
<path class="st3" d="M548.4,262.5c-0.7-0.3-2.6-3.4-9.3-5.2"/>
<path class="st3" d="M520.3,266.8c0,0-3.1-4.6-7.8-7.1"/>
<path class="st0" d="M616.5,293.6c0,0,6.8-1.6,14.1-5"/>
<path class="st0" d="M558.4,298.4c0,0,1.5-6.9-3.5-10.6"/>
<path class="st4" d="M579.8,304.8c0,0,3.8-9.9-3.5-14.2"/>
<path class="st0" d="M579.8,304.8c0,0,3.8-9.9-3.5-14.2"/>
<path class="st4" d="M576,250.6c2.8-1.6-17.4,10.2-22.7,13.2c-5.3,3-13.7,3.9-21,3.3c-7.3-0.5-13.7,2.2-19.1,4.1
	c-5.4,2-16.8,7.2-14.5,16c2.3,8.8,9.6,8.3,13.1,8.5c3.5,0.2,20.2-0.1,28.9-2.4c8.8-2.3,25.3-3.2,38.4-0.5c11,2.2,13,1.7,14.7,2"/>
<path class="st0" d="M576,250.6c2.8-1.6-17.4,10.2-22.7,13.2c-5.3,3-13.7,3.9-21,3.3c-7.3-0.5-13.7,2.2-19.1,4.1
	c-5.4,2-16.8,7.2-14.5,16c2.3,8.8,9.6,8.3,13.1,8.5c3.5,0.2,20.2-0.1,28.9-2.4c8.8-2.3,25.3-3.2,38.4-0.5c11,2.2,13,1.7,14.7,2"/>
<path class="st3" d="M502.9,276.6c0,0,7.6-0.8,9.9-0.7c2.2,0.1,3.9,0.4,4.1,3.5c0.2,3.1,1.4,7.9,1.6,10.3c0.2,2.3-0.8,3.2-6,3.7
	c-5.3,0.5-9.5,1.6-12.1-1.8"/>
<path class="st3" d="M531.6,273.4c0,0,4.1,7.6,3.6,14.4"/>
<path class="st3" d="M539.6,278.1c0.1,0.6,1.7,3.9,0.9,9.6"/>
<path class="st3" d="M527,278.4c0,0,0.6,5.1,1.5,7.5"/>
<path class="st4" d="M337.9,218.9l1.5,4.3l-3,4.5l1.8,5.5l-2.2,7l2,3.5l-1.5,2.2l7.5,11.2l3.6-6.5l0.9-29.5c0,0,8.8-5.2,8.5-16.8
	s-12-18.2-11.5-13.4"/>
<path class="st0" d="M337.9,218.9l1.5,4.3l-3,4.5l1.8,5.5l-2.2,7l2,3.5l-1.5,2.2l7.5,11.2l3.6-6.5l0.9-29.5c0,0,8.8-5.2,8.5-16.8
	c-0.1-5.4-3.7-12-9.1-13.8c-6.1-2-13.5,1.2-13.9,3.9"/>
<line class="st0" x1="343" y1="217.8" x2="343" y2="248.8"/>
<path class="st4" d="M347.9,203.5c0.8,3.4,1,6.1-1.5,7.7c0,0-16.7,9.7-20.7-17.8c0,0-3.5-4.9-6.7-9.5c0,0,0.2,10.4-0.2,15.6
	c-0.4,5.2-0.9,6.5-5.7,12.4c-4.8,5.8-12.4,14.1-13,14.9c-0.5,0.8-9.8,4.4-11.3-5c0,0-4.1,4-5.6,4.5c0,0-5.9,4.6-8.7,5.1
	c0,0-5.7,1.2-7.1-3.2c0,0-6.7,1.2-10.7,0.5c-3.9-0.7-6.6-5.6-3.6-10.3c0,0-14,1.1-22.4-1.3c0,0-14.2,5.3-27,2.4
	c-12.8-2.8-30.1,3-82.3,20.8C69.2,258,38.7,267,38.7,267"/>
<path class="st4" d="M36.3,181.2c0,0,60.8-5.5,76.4-7.4c15.6-1.9,37.5,1,53.6-1.4c16.1-2.4,44-11.9,61.5-20.9
	c17.5-9,40.7-20.4,45.1-22.6c4.4-2.2,13.8-1.6,18.8,3.2c5,4.8,15.9,12.7,22.7,16.2c6.8,3.5,14.8,12.4,20.5,22.5
	c5.1,9,9.3,14.3,10.4,18.9"/>
<path class="st0" d="M348.3,208.5c-0.2,1.1-0.8,2-1.9,2.7c0,0-16.7,9.7-20.7-17.8c0,0-3.5-4.9-6.7-9.5c0,0,0.2,10.4-0.2,15.6
	c-0.4,5.2-0.9,6.5-5.7,12.4c-4.8,5.8-12.4,14.1-13,14.9c-0.5,0.8-9.8,4.4-11.3-5c0,0-4.1,4-5.6,4.5c0,0-5.9,4.6-8.7,5.1
	c0,0-5.7,1.2-7.1-3.2c0,0-6.7,1.2-10.7,0.5c-3.9-0.7-6.6-5.6-3.6-10.3c0,0-14,1.1-22.4-1.3c0,0-14.2,5.3-27,2.4
	c-12.8-2.8-30.1,3-82.3,20.8C69.2,258,38.7,267,38.7,267"/>
<path class="st0" d="M36.3,181.2c0,0,60.8-5.5,76.4-7.4c15.6-1.9,37.5,1,53.6-1.4c16.1-2.4,44-11.9,61.5-20.9
	c17.5-9,40.7-20.4,45.1-22.6c4.4-2.2,13.8-1.6,18.8,3.2c5,4.8,15.9,12.7,22.7,16.2c6.8,3.5,14.8,12.4,20.5,22.5
	c5.1,9,9.3,14.3,10.4,18.9"/>
<path class="st0" d="M319,183.9c0,0-3.5-3.9-5.5-7.5c0,0-13.8-5.2-14.2-10c0,0-5.6,7.6-12.3,7c0,0,0.4,5.3-1.5,8.4"/>
<path class="st3" d="M315,174.8c2-1,7.4-4.3,10-7.2"/>
<path class="st3" d="M308.6,216.7c0,0-3-1.5-4.7-0.1c-1.7,1.4-5.6,3.4-5.8,4.4c-0.2,1,3.2,3.4,2.3,5.2"/>
<path class="st3" d="M284.6,225.1c0,0-1.3-3.9-4.2-3c-2.9,0.8-3.9,1.3-4.1,2.2c-0.2,1-1.3,7.3-1.9,7.2"/>
<path class="st3" d="M267.4,228.2c0,0-0.6-3.8-0.4-6.5c0.1-1.5-3.9-0.7-5.1-0.3c-1.2,0.4-3.1,5.7-5.2,7.3"/>
<path class="st3" d="M299.3,166.4c0,0,2.7-7.9,2.3-14.7"/>
<path class="st0" d="M287,173.4c0,0,1.6-5.6,0.3-21.6"/>
<path class="st3" d="M298.8,185.9c0.7-0.3,2.6-3.4,9.3-5.2"/>
<path class="st3" d="M326.9,190.2c0,0,3.1-4.6,7.8-7.1"/>
<path class="st0" d="M230.7,217.1c0,0-6.8-1.6-14.1-5"/>
<path class="st4" d="M271.1,174c-2.8-1.6,17.4,10.2,22.7,13.2c5.3,3,13.7,3.9,21,3.3c7.3-0.5,13.7,2.2,19.1,4.1
	c5.4,2,16.8,7.2,14.5,16c-2.3,8.8-9.6,8.3-13.1,8.5c-3.5,0.2-20.2-0.1-28.9-2.4c-8.8-2.3-25.3-3.2-38.4-0.5c-11,2.2-13,1.7-14.7,2"
	/>
<path class="st0" d="M271.1,174c-2.8-1.6,17.4,10.2,22.7,13.2c5.3,3,13.7,3.9,21,3.3c7.3-0.5,13.7,2.2,19.1,4.1
	c5.4,2,16.8,7.2,14.5,16c-2.3,8.8-9.6,8.3-13.1,8.5c-3.5,0.2-20.2-0.1-28.9-2.4c-8.8-2.3-25.3-3.2-38.4-0.5c-11,2.2-13,1.7-14.7,2"
	/>
<path class="st3" d="M344.3,200c0,0-7.6-0.8-9.9-0.7c-2.2,0.1-3.9,0.4-4.1,3.5c-0.2,3.1-1.4,7.9-1.6,10.3c-0.2,2.3,0.8,3.2,6,3.7
	c5.3,0.5,9.5,1.6,12.1-1.8"/>
<path class="st3" d="M315.6,196.9c0,0-4.1,7.6-3.6,14.4"/>
<path class="st3" d="M307.6,201.5c-0.1,0.6-1.7,3.9-0.9,9.6"/>
<path class="st3" d="M320.2,201.8c0,0-0.6,5.1-1.5,7.5"/>
<ellipse class="st0" cx="380.1" cy="325.1" rx="21.3" ry="13.3"/>
<ellipse class="st0" cx="428.1" cy="345.7" rx="21.3" ry="13.3"/>
<ellipse class="st0" cx="478.1" cy="365.7" rx="21.3" ry="13.3"/>
<line class="st5" x1="374.7" y1="327.7" x2="386" y2="320.3"/>
<path class="st6" d="M389.8,321.1c0,2-2.6,3.6-5.7,3.6c-3.1,0-5.7-1.6-5.7-3.6s2.6-3.6,5.7-3.6C387.3,317.5,389.8,319.1,389.8,321.1
	"/>
<line class="st5" x1="421.9" y1="348.7" x2="433.3" y2="341.3"/>
<path class="st6" d="M437.1,342.1c0,2-2.6,3.6-5.7,3.6c-3.1,0-5.7-1.6-5.7-3.6c0-2,2.6-3.6,5.7-3.6
	C434.5,338.5,437.1,340.1,437.1,342.1"/>
<line class="st5" x1="472.3" y1="368.9" x2="483.6" y2="361.5"/>
<path class="st6" d="M487.5,362.3c0,2-2.6,3.6-5.7,3.6c-3.1,0-5.7-1.6-5.7-3.6c0-2,2.6-3.6,5.7-3.6
	C484.9,358.7,487.5,360.3,487.5,362.3"/>
<line class="st1" x1="0" y1="31.1" x2="841.9" y2="31.1"/>
<g>
</g>
<g>
</g>
<g>
</g>
<g>
</g>
<g>
</g>
<g>
</g>
</svg>
