<svg id="OUTLINES" xmlns="http://www.w3.org/2000/svg" viewBox="0 0 1152 1008"><defs><style>.cls-1{fill:#fff;}.cls-2,.cls-3{fill:#000f7d;}.cls-3{font-size:73px;font-family:Calibre-Semibold, Calibre;font-weight:700;}.cls-4{letter-spacing:0em;}.cls-5{letter-spacing:0em;}.cls-6{letter-spacing:-0.01em;}.cls-7{letter-spacing:-0.02em;}.cls-8{letter-spacing:-0.01em;}</style></defs><title>recovery-codes</title><path class="cls-1" d="M884.25,730.5h-612a24,24,0,0,1-24-24v-396a24,24,0,0,1,24-24h612a24,24,0,0,1,24,24v396A24,24,0,0,1,884.25,730.5Z"/><path class="cls-2" d="M825.75,256.5h-81a31.53,31.53,0,0,1-31.5-31.5V144a4.5,4.5,0,0,1,7.68-3.18l108,108a4.5,4.5,0,0,1-3.18,7.68ZM722.25,154.86V225a22.52,22.52,0,0,0,22.5,22.5h70.14Z"/><text class="cls-3" transform="translate(308.25 393.24)">• do6<tspan class="cls-4" x="152.86" y="0">9</tspan><tspan class="cls-5" x="189.8" y="0">2 9</tspan><tspan class="cls-6" x="277.47" y="0">5</tspan><tspan x="312.58" y="0">71a</tspan><tspan x="0" y="88">• </tspan><tspan class="cls-7" x="42.05" y="88">7</tspan><tspan x="73.58" y="88">4de9 d6d04</tspan><tspan x="0" y="176">• 3</tspan><tspan class="cls-8" x="76.65" y="176">f</tspan><tspan x="99.94" y="176">de4 ir3bb</tspan><tspan x="0" y="264">• y19d8 6wjx3</tspan></text><path class="cls-2" d="M879.75,726h-612a24,24,0,0,1-24-24V306a24,24,0,0,1,24-24h612a24,24,0,0,1,24,24V702A24,24,0,0,1,879.75,726Zm-612-432a12,12,0,0,0-12,12V702a12,12,0,0,0,12,12h612a12,12,0,0,0,12-12V306a12,12,0,0,0-12-12Z"/><path class="cls-2" d="M807.94,868.5h0l-468,0a22.52,22.52,0,0,1-22.5-22.5V720a4.49,4.49,0,0,1,4.5-4.5h504a4.5,4.5,0,0,1,4.5,4.5V846a22.5,22.5,0,0,1-22.5,22.5Zm-481.5-144V846a13.51,13.51,0,0,0,13.5,13.5l468,0h0a13.5,13.5,0,0,0,13.5-13.5V724.5Z"/><path class="cls-2" d="M825.94,292.5h-504a4.49,4.49,0,0,1-4.5-4.5V162a22.52,22.52,0,0,1,22.5-22.5H717.75a4.47,4.47,0,0,1,3.18,1.32l108.19,108a4.51,4.51,0,0,1,1.32,3.18v36A4.5,4.5,0,0,1,825.94,292.5Zm-499.5-9h495V253.87L715.89,148.5H339.94a13.51,13.51,0,0,0-13.5,13.5Z"/></svg>