<svg id="OUTLINES" xmlns="http://www.w3.org/2000/svg" viewBox="0 0 1152 1008"><defs><style>.cls-1{fill:#fff;}.cls-2{fill:#000f7c;}</style></defs><title>v5</title><rect class="cls-1" x="256.49" y="256.5" width="648" height="432" rx="18" ry="18"/><path class="cls-1" d="M886.49,694.5h-612a24,24,0,0,1-24-24v-396a24,24,0,0,1,24-24h612a24,24,0,0,1,24,24v396A24,24,0,0,1,886.49,694.5Zm-612-432a12,12,0,0,0-12,12v396a12,12,0,0,0,12,12h612a12,12,0,0,0,12-12v-396a12,12,0,0,0-12-12Z"/><path class="cls-2" d="M922.49,955.39a5,5,0,0,1-5-5V817.15a139.61,139.61,0,0,0-41.16-99.36L846.9,687.48a5,5,0,1,1,7.18-7l29.37,30.25a149.5,149.5,0,0,1,44,106.38V950.39A5,5,0,0,1,922.49,955.39Z"/><path class="cls-2" d="M725.08,959a5,5,0,0,1-5-5V930.49a77.9,77.9,0,0,1-40.9-68.85V831a5,5,0,0,1,10,0v30.61A68,68,0,0,0,727.3,923a5,5,0,0,1,2.78,4.48V954A5,5,0,0,1,725.08,959Z"/><path class="cls-2" d="M828,220.5H747a31.53,31.53,0,0,1-31.5-31.5V108a4.5,4.5,0,0,1,7.68-3.18l108,108A4.5,4.5,0,0,1,828,220.5ZM724.49,118.86V189A22.53,22.53,0,0,0,747,211.5h70.14Z"/><path class="cls-2" d="M335,338.12a10.56,10.56,0,0,1-3.25,7.95,11.75,11.75,0,0,1-15.95,0,10.62,10.62,0,0,1-3.21-8,10.74,10.74,0,0,1,3.21-8,10.9,10.9,0,0,1,8-3.14,11,11,0,0,1,8,3.14A10.66,10.66,0,0,1,335,338.12Z"/><path class="cls-2" d="M377.43,357.24v-2.7A9.44,9.44,0,0,1,374,357a11.42,11.42,0,0,1-4.74,1,13.27,13.27,0,0,1-10.84-4.85,20.61,20.61,0,0,1,0-24.35,13.22,13.22,0,0,1,10.84-4.89,11.42,11.42,0,0,1,4.74,1,9.56,9.56,0,0,1,3.43,2.41V309.79h9.13v47.45Zm0-10.95V335.56a6.52,6.52,0,0,0-2.48-2.74,6.77,6.77,0,0,0-3.65-1.05,7,7,0,0,0-5.69,2.59,10,10,0,0,0-2.12,6.6,9.9,9.9,0,0,0,2.12,6.57,7,7,0,0,0,5.69,2.56A6.74,6.74,0,0,0,375,349,6.62,6.62,0,0,0,377.43,346.29Z"/><path class="cls-2" d="M424.3,341c0,5-1.49,9.1-4.46,12.27a16.39,16.39,0,0,1-23.06,0c-3-3.17-4.46-7.25-4.46-12.27s1.49-9.17,4.46-12.33a16.37,16.37,0,0,1,23.06,0Q424.3,333.37,424.3,341Zm-9,0a11.45,11.45,0,0,0-1.86-6.82,6.42,6.42,0,0,0-10.3,0,13.32,13.32,0,0,0,0,13.58,6.42,6.42,0,0,0,10.3,0A11.34,11.34,0,0,0,415.32,341Z"/><path class="cls-2" d="M460.72,323.73h-9.05a5.69,5.69,0,0,0-5.91-4.38q-3.87,0-6.28,3.8a16,16,0,0,0-2.41,8.76v.66a8.08,8.08,0,0,1,3.65-3.43,12.41,12.41,0,0,1,5.77-1.32,13.89,13.89,0,0,1,10.59,4.27,14.75,14.75,0,0,1,4,10.48,15.19,15.19,0,0,1-4.27,11Q452.55,358,445.25,358q-9.12,0-13.58-8.1-3.14-5.47-3.14-14.09,0-10.66,4.64-17.37a14.46,14.46,0,0,1,12.52-6.72q6.19,0,10,3.14A15.23,15.23,0,0,1,460.72,323.73Zm-22.84,19.06a7.44,7.44,0,0,0,2,5.44,7.91,7.91,0,0,0,10.69,0,7.36,7.36,0,0,0,2.09-5.44,7.75,7.75,0,0,0-2.05-5.62,7.08,7.08,0,0,0-5.33-2.12,7.16,7.16,0,0,0-5.4,2.12A7.75,7.75,0,0,0,437.88,342.79Z"/><path class="cls-2" d="M466,345.93h9a5.71,5.71,0,0,0,5.92,4.38c2.57,0,4.67-1.27,6.27-3.8a16,16,0,0,0,2.41-8.76v-.66a8,8,0,0,1-3.65,3.43,12.34,12.34,0,0,1-5.76,1.32,13.86,13.86,0,0,1-10.59-4.27,14.71,14.71,0,0,1-4-10.48,15.15,15.15,0,0,1,4.27-11q4.26-4.42,11.57-4.42a14.52,14.52,0,0,1,13.57,8.1q3.15,5.47,3.14,14.09,0,10.67-4.63,17.38A14.49,14.49,0,0,1,481,358q-6.21,0-10-3.14A15.3,15.3,0,0,1,466,345.93Zm22.85-19.06a7.42,7.42,0,0,0-2-5.43,7.26,7.26,0,0,0-5.41-2.09,7.17,7.17,0,0,0-5.29,2.09,7.33,7.33,0,0,0-2.08,5.43,7.75,7.75,0,0,0,2,5.62,7.06,7.06,0,0,0,5.33,2.12,7.16,7.16,0,0,0,5.41-2.12A7.75,7.75,0,0,0,488.83,326.87Z"/><path class="cls-2" d="M523.36,325.41a5.22,5.22,0,0,0-1.53-3.9,5.72,5.72,0,0,0-4.17-1.5,5.49,5.49,0,0,0-4.27,1.72,7,7,0,0,0-1.71,4.49H502a16.37,16.37,0,0,1,4.86-10.48,14.75,14.75,0,0,1,10.69-4.05q7,0,11,3.61a12.46,12.46,0,0,1,4,9.75,11.85,11.85,0,0,1-1.46,5.44,23.36,23.36,0,0,1-2.88,4.45q-1.42,1.65-4.57,4.93l-8.61,9.27h18v8.1h-31v-6.06l14.23-15a53.18,53.18,0,0,0,6-7.38A7.06,7.06,0,0,0,523.36,325.41Z"/><path class="cls-2" d="M553.36,345.93h9a5.7,5.7,0,0,0,5.91,4.38c2.58,0,4.68-1.27,6.28-3.8a16,16,0,0,0,2.41-8.76v-.66a8,8,0,0,1-3.65,3.43,12.36,12.36,0,0,1-5.77,1.32A13.83,13.83,0,0,1,557,337.57a14.72,14.72,0,0,1-4-10.48,15.19,15.19,0,0,1,4.27-11q4.28-4.42,11.57-4.42,9.13,0,13.58,8.1,3.14,5.47,3.14,14.09,0,10.67-4.63,17.38A14.49,14.49,0,0,1,568.4,358q-6.21,0-10-3.14A15.3,15.3,0,0,1,553.36,345.93Zm22.85-19.06a7.38,7.38,0,0,0-2.05-5.43,7.88,7.88,0,0,0-10.69,0,7.33,7.33,0,0,0-2.08,5.43,7.75,7.75,0,0,0,2,5.62,7,7,0,0,0,5.33,2.12,7.13,7.13,0,0,0,5.4-2.12A7.71,7.71,0,0,0,576.21,326.87Z"/><path class="cls-2" d="M606,335.34a8.24,8.24,0,0,0-6.42,3h-7.3V312.42h26.28v8.1H599.86v9.13a12.53,12.53,0,0,1,7.23-2,13.8,13.8,0,0,1,10.47,4.17q4,4.16,4,10.87a14.92,14.92,0,0,1-4.27,11.1A15.14,15.14,0,0,1,606.14,358q-7,0-11.39-4a15.32,15.32,0,0,1-4.89-10.62h9a7.82,7.82,0,0,0,2.23,4.86,6.93,6.93,0,0,0,5,1.79,6.18,6.18,0,0,0,4.82-2,7.73,7.73,0,0,0,1.82-5.33,7.61,7.61,0,0,0-1.82-5.25A6.32,6.32,0,0,0,606,335.34Z"/><path class="cls-2" d="M654.54,319.06l-14.68,38.18h-9.41l14.38-36.64H624.24v-8.18h30.3Z"/><path class="cls-2" d="M677.24,312.42v44.82h-9.13V323.08l-10.43,5.18v-9.12l13.65-6.72Z"/><path class="cls-2" d="M712.35,357.24h-8.69v-1.75a8.12,8.12,0,0,1-3.13,1.61,15.84,15.84,0,0,1-4.82.73,13.16,13.16,0,0,1-8.65-2.85,9.47,9.47,0,0,1-3.47-7.74,9.23,9.23,0,0,1,3.61-7.52,13.94,13.94,0,0,1,9-2.92,16.38,16.38,0,0,1,4.23.59,10.19,10.19,0,0,1,3.21,1.31v-2.41a5,5,0,0,0-1.35-3.61,5.22,5.22,0,0,0-4-1.43c-2.43,0-4,1-4.81,3.07H684.9a11.63,11.63,0,0,1,4.49-7.48,14.51,14.51,0,0,1,9.24-3q6.5,0,10.11,3.32c2.41,2.22,3.61,5.29,3.61,9.24Zm-8.69-8.9V346a4.25,4.25,0,0,0-2.22-2.08,8.67,8.67,0,0,0-3.69-.77,7.76,7.76,0,0,0-4,1,3.49,3.49,0,0,0,0,6,7.76,7.76,0,0,0,4.09,1,8.67,8.67,0,0,0,3.69-.76A4.32,4.32,0,0,0,703.66,348.34Z"/><path class="cls-2" d="M335,426.12a10.56,10.56,0,0,1-3.25,7.95,11.75,11.75,0,0,1-15.95,0,10.62,10.62,0,0,1-3.21-8,10.74,10.74,0,0,1,3.21-8,10.9,10.9,0,0,1,8-3.14,11,11,0,0,1,8,3.14A10.66,10.66,0,0,1,335,426.12Z"/><path class="cls-2" d="M384,407.06l-14.67,38.18h-9.42l14.38-36.64H353.71v-8.18H384Z"/><path class="cls-2" d="M410.21,400.42l-14.6,28.25h9.93V419.4h8.32v9.27h6.79v7.67h-6.79v8.9h-8.32v-8.9H385.61v-6.72l15.47-29.2Z"/><path class="cls-2" d="M446.93,445.24v-2.7A9.53,9.53,0,0,1,443.5,445a11.43,11.43,0,0,1-4.75,1,13.29,13.29,0,0,1-10.84-4.85,20.61,20.61,0,0,1,0-24.35,13.23,13.23,0,0,1,10.84-4.89,11.43,11.43,0,0,1,4.75,1,9.65,9.65,0,0,1,3.43,2.41V397.79h9.12v47.45Zm0-10.95V423.56a6.65,6.65,0,0,0-2.48-2.74,6.77,6.77,0,0,0-3.66-1.05,7,7,0,0,0-5.69,2.59A10.09,10.09,0,0,0,433,429a10,10,0,0,0,2.12,6.57,7,7,0,0,0,5.69,2.56,6.78,6.78,0,0,0,6.14-3.8Z"/><path class="cls-2" d="M483.72,434.58h8.39a13,13,0,0,1-4.63,8.36,15.17,15.17,0,0,1-9.82,3,14.92,14.92,0,0,1-11.46-4.71q-4.38-4.71-4.38-12.3a17.48,17.48,0,0,1,4.42-12.23,14.57,14.57,0,0,1,11.27-4.85c4.68,0,8.31,1.47,10.92,4.42s3.9,6.87,3.9,11.79v2.77H470.58a9,9,0,0,0,2.12,5.73,6.38,6.38,0,0,0,5,2.08Q482.63,438.67,483.72,434.58Zm-6.13-15.33q-5.55,0-6.79,6.14h12.63a6.69,6.69,0,0,0-1.61-4.42A5.39,5.39,0,0,0,477.59,419.25Z"/><path class="cls-2" d="M496.79,433.93h9a5.69,5.69,0,0,0,5.91,4.38q3.87,0,6.28-3.8a16,16,0,0,0,2.41-8.76v-.66a8,8,0,0,1-3.65,3.43,12.41,12.41,0,0,1-5.77,1.32,13.82,13.82,0,0,1-10.58-4.27,14.72,14.72,0,0,1-4-10.48,15.15,15.15,0,0,1,4.27-11q4.28-4.42,11.57-4.42,9.12,0,13.58,8.1,3.13,5.47,3.14,14.09,0,10.67-4.64,17.38A14.48,14.48,0,0,1,511.82,446q-6.19,0-10-3.14A15.23,15.23,0,0,1,496.79,433.93Zm22.84-19.06a7.42,7.42,0,0,0-2-5.43,7.88,7.88,0,0,0-10.69,0,7.33,7.33,0,0,0-2.08,5.43,7.75,7.75,0,0,0,2,5.62,7,7,0,0,0,5.33,2.12,7.13,7.13,0,0,0,5.4-2.12A7.75,7.75,0,0,0,519.63,414.87Z"/><path class="cls-2" d="M571.75,445.24v-2.7a9.35,9.35,0,0,1-3.43,2.41,11.38,11.38,0,0,1-4.74,1,13.27,13.27,0,0,1-10.84-4.85,20.61,20.61,0,0,1,0-24.35,13.22,13.22,0,0,1,10.84-4.89,11.38,11.38,0,0,1,4.74,1,9.47,9.47,0,0,1,3.43,2.41V397.79h9.13v47.45Zm0-10.95V423.56a6.52,6.52,0,0,0-2.48-2.74,6.74,6.74,0,0,0-3.65-1.05,7,7,0,0,0-5.69,2.59,10.09,10.09,0,0,0-2.12,6.6,10,10,0,0,0,2.12,6.57,7,7,0,0,0,5.69,2.56,6.71,6.71,0,0,0,3.69-1.06A6.55,6.55,0,0,0,571.75,434.29Z"/><path class="cls-2" d="M619.35,411.73H610.3a5.7,5.7,0,0,0-5.91-4.38c-2.58,0-4.68,1.27-6.28,3.8a16,16,0,0,0-2.41,8.76v.66a8,8,0,0,1,3.65-3.43,12.36,12.36,0,0,1,5.77-1.32,13.87,13.87,0,0,1,10.58,4.27,14.72,14.72,0,0,1,4,10.48,15.23,15.23,0,0,1-4.27,11Q611.17,446,603.88,446a14.52,14.52,0,0,1-13.58-8.1q-3.15-5.47-3.14-14.09,0-10.66,4.63-17.37a14.48,14.48,0,0,1,12.52-6.72q6.21,0,10,3.14A15.3,15.3,0,0,1,619.35,411.73ZM596.5,430.79a7.41,7.41,0,0,0,2,5.44,7.91,7.91,0,0,0,10.69,0,7.35,7.35,0,0,0,2.08-5.44,7.75,7.75,0,0,0-2-5.62,7.85,7.85,0,0,0-10.73,0A7.71,7.71,0,0,0,596.5,430.79Z"/><path class="cls-2" d="M646.87,445.24v-2.7a9.44,9.44,0,0,1-3.43,2.41,11.42,11.42,0,0,1-4.74,1,13.27,13.27,0,0,1-10.84-4.85,20.61,20.61,0,0,1,0-24.35,13.22,13.22,0,0,1,10.84-4.89,11.42,11.42,0,0,1,4.74,1,9.56,9.56,0,0,1,3.43,2.41V397.79H656v47.45Zm0-10.95V423.56a6.59,6.59,0,0,0-2.48-2.74,6.77,6.77,0,0,0-3.65-1.05,7,7,0,0,0-5.69,2.59,10,10,0,0,0-2.12,6.6,9.9,9.9,0,0,0,2.12,6.57,7,7,0,0,0,5.69,2.56,6.75,6.75,0,0,0,6.13-3.8Z"/><path class="cls-2" d="M692.64,439.55a15.92,15.92,0,0,1-25.55,0q-4.89-6.42-4.89-16.72t4.89-16.72a15.92,15.92,0,0,1,25.55,0q4.89,6.43,4.89,16.72T692.64,439.55Zm-6.35-27.45a7.09,7.09,0,0,0-12.85,0q-2.12,4.09-2.11,10.73t2.11,10.73a7.09,7.09,0,0,0,12.85,0q2.12-4.08,2.12-10.73A23.4,23.4,0,0,0,686.29,412.1Z"/><path class="cls-2" d="M726,400.42l-14.6,28.25h9.93V419.4h8.32v9.27h6.79v7.67h-6.79v8.9h-8.32v-8.9H701.4v-6.72l15.48-29.2Z"/><path class="cls-2" d="M335,514.12a10.56,10.56,0,0,1-3.25,8,11.75,11.75,0,0,1-15.95,0,10.62,10.62,0,0,1-3.21-8,10.74,10.74,0,0,1,3.21-8,10.9,10.9,0,0,1,8-3.14,11,11,0,0,1,8,3.14A10.66,10.66,0,0,1,335,514.12Z"/><path class="cls-2" d="M366.34,514v-7.22h2.55a7.68,7.68,0,0,0,4.86-1.46,5,5,0,0,0,1.86-4.17,5.4,5.4,0,0,0-1.57-4,5.76,5.76,0,0,0-4.27-1.57,6.27,6.27,0,0,0-4.64,1.71,6.81,6.81,0,0,0-1.93,4.42h-9.05A15.6,15.6,0,0,1,359,491.67a15.14,15.14,0,0,1,10.8-4q6.72,0,10.66,3.61a12.22,12.22,0,0,1,3.94,9.46,11.55,11.55,0,0,1-1.53,5.87,9.22,9.22,0,0,1-4,3.84,9.84,9.84,0,0,1,4.6,3.94,11,11,0,0,1,1.61,5.84A12.87,12.87,0,0,1,381,530.1Q376.86,534,369.84,534t-11.68-4a14.61,14.61,0,0,1-4.89-10.59h9.2a7.75,7.75,0,0,0,2.22,4.86,7,7,0,0,0,5.08,1.79,6.7,6.7,0,0,0,4.67-1.65,5.92,5.92,0,0,0-.15-8.68,7.67,7.67,0,0,0-5.11-1.65Z"/><path class="cls-2" d="M410.21,486v7.67a5.41,5.41,0,0,0-3.21-.88q-4.46,0-4.46,4.53v3.28h6.79v7.3h-6.79v25.33h-8.9V507.91h-5.33v-7.3h5.33v-3.87c0-3.65,1-6.5,3.14-8.54a11.51,11.51,0,0,1,8.39-3.07A12.52,12.52,0,0,1,410.21,486Z"/><path class="cls-2" d="M435.32,533.24v-2.7a9.44,9.44,0,0,1-3.43,2.41,11.42,11.42,0,0,1-4.74,1,13.27,13.27,0,0,1-10.84-4.85,20.61,20.61,0,0,1,0-24.35,13.22,13.22,0,0,1,10.84-4.89,11.42,11.42,0,0,1,4.74,1,9.56,9.56,0,0,1,3.43,2.41V485.79h9.13v47.45Zm0-11V511.56a6.52,6.52,0,0,0-2.48-2.74,6.77,6.77,0,0,0-3.65-1.05,7,7,0,0,0-5.69,2.59,10,10,0,0,0-2.12,6.6,9.9,9.9,0,0,0,2.12,6.57,7,7,0,0,0,5.69,2.56,6.74,6.74,0,0,0,3.69-1.06A6.62,6.62,0,0,0,435.32,522.29Z"/><path class="cls-2" d="M472.11,522.58h8.4a13,13,0,0,1-4.64,8.36,15.16,15.16,0,0,1-9.82,3,14.92,14.92,0,0,1-11.46-4.71q-4.38-4.71-4.38-12.3a17.48,17.48,0,0,1,4.42-12.23,14.58,14.58,0,0,1,11.28-4.85q7,0,10.91,4.42t3.91,11.79v2.77H459a9,9,0,0,0,2.12,5.73,6.4,6.4,0,0,0,5,2.08Q471,526.67,472.11,522.58ZM466,507.25q-5.55,0-6.79,6.14h12.63a6.68,6.68,0,0,0-1.6-4.42A5.43,5.43,0,0,0,466,507.25Z"/><path class="cls-2" d="M508.69,488.42l-14.6,28.25H504V507.4h8.33v9.27h6.78v7.67h-6.78v8.9H504v-8.9H484.08v-6.72l15.48-29.2Z"/><path class="cls-2" d="M549.78,491.19a4.87,4.87,0,0,1-1.57,3.73,5.33,5.33,0,0,1-3.76,1.46,5.45,5.45,0,0,1-3.83-1.46,4.91,4.91,0,0,1-1.57-3.73,4.84,4.84,0,0,1,1.61-3.68,5.36,5.36,0,0,1,3.79-1.5,5.24,5.24,0,0,1,3.76,1.5A4.87,4.87,0,0,1,549.78,491.19Zm-.8,9.42v32.63h-9.05V500.61Z"/><path class="cls-2" d="M576.65,500.46v9.06a8.69,8.69,0,0,0-4.53-1.1,6.62,6.62,0,0,0-4,1.21,5.55,5.55,0,0,0-2.19,3.39v20.22h-9.06V500.61h9.06v3.21a7.87,7.87,0,0,1,7.3-3.94A7.52,7.52,0,0,1,576.65,500.46Z"/><path class="cls-2" d="M592.34,514v-7.22h2.56a7.65,7.65,0,0,0,4.85-1.46,5,5,0,0,0,1.86-4.17,5.36,5.36,0,0,0-1.57-4,5.75,5.75,0,0,0-4.27-1.57,6.27,6.27,0,0,0-4.63,1.71,6.81,6.81,0,0,0-1.94,4.42h-9.05A15.69,15.69,0,0,1,585,491.67a15.17,15.17,0,0,1,10.81-4c4.47,0,8,1.2,10.65,3.61a12.23,12.23,0,0,1,4,9.46,11.56,11.56,0,0,1-1.54,5.87,9.14,9.14,0,0,1-3.94,3.84,9.84,9.84,0,0,1,4.6,3.94,11,11,0,0,1,1.61,5.84A12.84,12.84,0,0,1,607,530.1Q602.86,534,595.85,534t-11.68-4a14.61,14.61,0,0,1-4.89-10.59h9.19a7.82,7.82,0,0,0,2.23,4.86,7,7,0,0,0,5.07,1.79,6.72,6.72,0,0,0,4.68-1.65,5.92,5.92,0,0,0-.15-8.68,7.69,7.69,0,0,0-5.11-1.65Z"/><path class="cls-2" d="M626.14,530.54v2.7H617V485.79h9.12v17.52a9.56,9.56,0,0,1,3.43-2.41,11.43,11.43,0,0,1,4.75-1,13.24,13.24,0,0,1,10.84,4.89,20.61,20.61,0,0,1,0,24.35A13.3,13.3,0,0,1,634.32,534a11.43,11.43,0,0,1-4.75-1A9.44,9.44,0,0,1,626.14,530.54Zm0-19v10.73a6.78,6.78,0,0,0,6.13,3.8,7,7,0,0,0,5.7-2.56,10,10,0,0,0,2.11-6.57,10.09,10.09,0,0,0-2.11-6.6,7,7,0,0,0-5.7-2.59,6.77,6.77,0,0,0-3.65,1.05A6.59,6.59,0,0,0,626.14,511.56Z"/><path class="cls-2" d="M664,530.54v2.7H654.9V485.79H664v17.52a9.47,9.47,0,0,1,3.43-2.41,11.42,11.42,0,0,1,4.74-1A13.22,13.22,0,0,1,683,504.77a20.61,20.61,0,0,1,0,24.35A13.27,13.27,0,0,1,672.2,534a11.42,11.42,0,0,1-4.74-1A9.35,9.35,0,0,1,664,530.54Zm0-19v10.73a6.62,6.62,0,0,0,2.44,2.74,6.74,6.74,0,0,0,3.69,1.06,7,7,0,0,0,5.69-2.56A10,10,0,0,0,678,517a10.09,10.09,0,0,0-2.12-6.6,7,7,0,0,0-5.69-2.59,6.74,6.74,0,0,0-3.65,1.05A6.52,6.52,0,0,0,664,511.56Z"/><path class="cls-2" d="M335,602.12a10.56,10.56,0,0,1-3.25,8,11.75,11.75,0,0,1-15.95,0,10.62,10.62,0,0,1-3.21-8,10.74,10.74,0,0,1,3.21-8,10.9,10.9,0,0,1,8-3.14,11,11,0,0,1,8,3.14A10.66,10.66,0,0,1,335,602.12Z"/><path class="cls-2" d="M370.13,633.29h-8.9l4.74-11.9-12.48-32.78h9.56l7.52,21.68L378,588.61h9.12Z"/><path class="cls-2" d="M408.89,576.42v44.82h-9.12V587.08l-10.44,5.18v-9.12L403,576.42Z"/><path class="cls-2" d="M415.9,609.93H425a5.71,5.71,0,0,0,5.92,4.38q3.87,0,6.28-3.8a16,16,0,0,0,2.4-8.76v-.66a8,8,0,0,1-3.65,3.43,12.34,12.34,0,0,1-5.76,1.32,13.86,13.86,0,0,1-10.59-4.27,14.75,14.75,0,0,1-4-10.48,15.15,15.15,0,0,1,4.27-11q4.28-4.43,11.57-4.42,9.12,0,13.58,8.1,3.14,5.48,3.14,14.09,0,10.67-4.64,17.38A14.48,14.48,0,0,1,430.94,622q-6.21,0-10-3.14A15.3,15.3,0,0,1,415.9,609.93Zm22.85-19.06a7.42,7.42,0,0,0-2-5.43,7.25,7.25,0,0,0-5.4-2.09,7.17,7.17,0,0,0-5.3,2.09,7.37,7.37,0,0,0-2.08,5.43,7.71,7.71,0,0,0,2.05,5.62,7,7,0,0,0,5.33,2.12,7.16,7.16,0,0,0,5.4-2.12A7.75,7.75,0,0,0,438.75,590.87Z"/><path class="cls-2" d="M475.4,621.24v-2.7A9.53,9.53,0,0,1,472,621a11.43,11.43,0,0,1-4.75,1,13.29,13.29,0,0,1-10.84-4.85,20.61,20.61,0,0,1,0-24.35,13.23,13.23,0,0,1,10.84-4.89,11.43,11.43,0,0,1,4.75,1,9.65,9.65,0,0,1,3.43,2.41V573.79h9.12v47.45Zm0-11V599.56a6.65,6.65,0,0,0-2.48-2.74,6.8,6.8,0,0,0-3.66-1.05,7,7,0,0,0-5.69,2.59,10.09,10.09,0,0,0-2.12,6.6,10,10,0,0,0,2.12,6.57,7,7,0,0,0,5.69,2.56,6.78,6.78,0,0,0,6.14-3.8Z"/><path class="cls-2" d="M506.64,622a18.5,18.5,0,0,1-11.53-3.5,11.3,11.3,0,0,1-4.6-9.49,10.94,10.94,0,0,1,2.22-6.94,10.66,10.66,0,0,1,5.59-3.79,10.34,10.34,0,0,1-4.67-3.87,10.65,10.65,0,0,1-1.76-6.06,11.14,11.14,0,0,1,4.28-9.27,17.95,17.95,0,0,1,20.91,0,11.19,11.19,0,0,1,4.23,9.27,10.64,10.64,0,0,1-1.75,6.06,10.39,10.39,0,0,1-4.67,3.87,10.6,10.6,0,0,1,5.58,3.79A10.89,10.89,0,0,1,522.7,609a11.3,11.3,0,0,1-4.6,9.49A18.39,18.39,0,0,1,506.64,622Zm0-7.37a7.49,7.49,0,0,0,5.07-1.72,6.35,6.35,0,0,0,0-9.27,7.53,7.53,0,0,0-5.07-1.71,7.68,7.68,0,0,0-5.15,1.71,6.37,6.37,0,0,0,0,9.27A7.63,7.63,0,0,0,506.64,614.6Zm0-20.29a6.34,6.34,0,0,0,4.31-1.54,5.15,5.15,0,0,0,1.75-4.09,5.33,5.33,0,0,0-1.75-4.19,6.22,6.22,0,0,0-4.31-1.57,6.31,6.31,0,0,0-4.38,1.57,5.33,5.33,0,0,0-1.75,4.19,5.15,5.15,0,0,0,1.75,4.09A6.43,6.43,0,0,0,506.64,594.31Z"/><path class="cls-2" d="M574.89,587.73h-9a5.69,5.69,0,0,0-5.91-4.38q-3.87,0-6.28,3.8a16,16,0,0,0-2.41,8.76v.66a8.08,8.08,0,0,1,3.65-3.43,12.41,12.41,0,0,1,5.77-1.32,13.89,13.89,0,0,1,10.59,4.27,14.75,14.75,0,0,1,4,10.48,15.19,15.19,0,0,1-4.27,11Q566.71,622,559.42,622q-9.13,0-13.58-8.1-3.14-5.48-3.14-14.09,0-10.66,4.64-17.37a14.46,14.46,0,0,1,12.52-6.72q6.2,0,10,3.14A15.23,15.23,0,0,1,574.89,587.73Zm-22.84,19.06a7.44,7.44,0,0,0,2,5.44,7.91,7.91,0,0,0,10.69,0,7.36,7.36,0,0,0,2.09-5.44,7.75,7.75,0,0,0-2-5.62,7.08,7.08,0,0,0-5.33-2.12,7.16,7.16,0,0,0-5.4,2.12A7.75,7.75,0,0,0,552.05,606.79Z"/><path class="cls-2" d="M605.63,588.61l5.4,20.81,5.84-20.81h8.76l-9.93,32.63h-8.32l-5.33-20-5.33,20H588.4l-9.93-32.63h9l5.84,20.81,5.33-20.81Z"/><path class="cls-2" d="M639.57,588.61v33.95q0,5.48-2.92,8.46c-1.94,2-4.77,3-8.47,3a11.82,11.82,0,0,1-3.5-.37v-7.23a17.74,17.74,0,0,0,2,.22c2.58,0,3.87-1.38,3.87-4.16V588.61Zm.81-9.42a4.91,4.91,0,0,1-1.57,3.73,5.35,5.35,0,0,1-3.76,1.46,5.46,5.46,0,0,1-3.84-1.46,4.91,4.91,0,0,1-1.57-3.73,4.84,4.84,0,0,1,1.61-3.68,5.38,5.38,0,0,1,3.8-1.5,5.26,5.26,0,0,1,3.76,1.5A4.91,4.91,0,0,1,640.38,579.19Z"/><path class="cls-2" d="M676.87,588.61l-11.16,15.77,11.89,16.86h-10l-7-10.22-7.08,10.22H644l11.76-16.64-11.1-16h10l6.28,9.27,6.42-9.27Z"/><path class="cls-2" d="M692,602v-7.22h2.56a7.65,7.65,0,0,0,4.85-1.46,5,5,0,0,0,1.87-4.17,5.4,5.4,0,0,0-1.57-4,5.76,5.76,0,0,0-4.27-1.57,6.27,6.27,0,0,0-4.64,1.71,6.81,6.81,0,0,0-1.93,4.42h-9.06a15.69,15.69,0,0,1,4.89-10.11,15.19,15.19,0,0,1,10.81-4q6.72,0,10.66,3.61a12.25,12.25,0,0,1,3.94,9.46,11.55,11.55,0,0,1-1.53,5.87,9.22,9.22,0,0,1-3.95,3.84,9.84,9.84,0,0,1,4.6,3.94,11,11,0,0,1,1.61,5.84,12.87,12.87,0,0,1-4.16,9.85Q702.49,622,695.49,622q-7.15,0-11.68-4a14.61,14.61,0,0,1-4.89-10.59h9.2a7.75,7.75,0,0,0,2.22,4.86,7,7,0,0,0,5.08,1.79,6.71,6.71,0,0,0,4.67-1.65,5.49,5.49,0,0,0,1.82-4.27,5.41,5.41,0,0,0-2-4.41,7.69,7.69,0,0,0-5.11-1.65Z"/><path class="cls-2" d="M882,690H270a24,24,0,0,1-24-24V270a24,24,0,0,1,24-24H882a24,24,0,0,1,24,24V666A24,24,0,0,1,882,690ZM270,258a12,12,0,0,0-12,12V666a12,12,0,0,0,12,12H882a12,12,0,0,0,12-12V270a12,12,0,0,0-12-12Z"/><path class="cls-2" d="M794.19,930.44a5,5,0,0,1-3.79-1.74,78.35,78.35,0,0,1-2.79-98.85l-60.29-67A38.59,38.59,0,0,1,755.58,698H756a5,5,0,0,1,3.48,1.46L866.09,806.05a5,5,0,1,1-7.07,7.07L754,708.05a28.6,28.6,0,0,0-19.27,48.08l63.22,70.21A5,5,0,0,1,798,833a68.37,68.37,0,0,0,0,89.22,5,5,0,0,1-3.78,8.27Z"/><path class="cls-2" d="M792.63,832.45H342.18a22.52,22.52,0,0,1-22.5-22.5V684a4.5,4.5,0,0,1,4.5-4.5h504a4.49,4.49,0,0,1,4.5,4.5v91.21A4.5,4.5,0,0,1,825,778.4l-70.85-70.86a29.1,29.1,0,0,0-19.83,48.93L796,824.94a4.5,4.5,0,0,1-3.34,7.51Zm-463.95-144V810a13.51,13.51,0,0,0,13.5,13.5H782.52l-54.83-60.9a38.09,38.09,0,0,1,27.89-64H756a4.52,4.52,0,0,1,3.12,1.32l64.52,64.52V688.5Z"/><path class="cls-2" d="M828.18,256.5h-504a4.51,4.51,0,0,1-4.5-4.5V126a22.52,22.52,0,0,1,22.5-22.5H720a4.5,4.5,0,0,1,3.18,1.31l108.19,108a4.49,4.49,0,0,1,1.32,3.19v36A4.5,4.5,0,0,1,828.18,256.5Zm-499.5-9h495V217.86L718.13,112.5H342.18a13.51,13.51,0,0,0-13.5,13.5Z"/></svg>