<?xml version="1.0" encoding="utf-8"?>
<!-- Generator: Adobe Illustrator 19.2.1, SVG Export Plug-In . SVG Version: 6.00 Build 0)  -->
<svg version="1.1" id="Layer_1" xmlns="http://www.w3.org/2000/svg" xmlns:xlink="http://www.w3.org/1999/xlink" x="0px" y="0px"
	 viewBox="0 0 415.2 375.1" style="enable-background:new 0 0 415.2 375.1;" xml:space="preserve">
<style type="text/css">
	.st0{fill:#FFFFFF;}
	.st1{fill:none;stroke:#1D1D1B;stroke-width:2;stroke-miterlimit:10;}
	.st2{fill:#ECECEC;}
	.st3{fill:none;}
	.st4{fill:#1D1D1B;}
	.st5{fill:#000101;stroke:#000101;stroke-width:0.8322;stroke-miterlimit:10;}
	.st6{fill:#3A50A2;}
	.st7{fill:none;stroke:#1D1D1B;stroke-miterlimit:10;}
	.st8{fill:#FFFFFF;stroke:#1D1D1B;stroke-miterlimit:10;}
	.st9{fill:#DDDDDD;}
	.st10{enable-background:new    ;}
	.st11{fill:none;stroke:#DDDDDD;stroke-miterlimit:10;}
	.st12{fill:none;stroke:#1E1E1E;stroke-miterlimit:10;}
	.st13{fill:none;stroke:#1E1E1E;stroke-width:2;stroke-miterlimit:10;}
	.st14{fill:#2341C1;}
</style>
<g>
	<g>
		<path class="st0" d="M915.1,355.3c0,2.7-2.2,4.9-4.9,4.9H525.4c-2.7,0-4.9-2.2-4.9-4.9V10.5c0-2.7,2.2-4.9,4.9-4.9h384.9
			c2.7,0,4.9,2.2,4.9,4.9v344.8H915.1z"/>
		<path class="st1" d="M915.1,355.3c0,2.7-2.2,4.9-4.9,4.9H525.4c-2.7,0-4.9-2.2-4.9-4.9V10.5c0-2.7,2.2-4.9,4.9-4.9h384.9
			c2.7,0,4.9,2.2,4.9,4.9v344.8H915.1z"/>
	</g>
</g>
<rect x="546.6" y="121.6" class="st2" width="202.4" height="21.6"/>
<g>
	<rect x="546.3" y="93.4" class="st3" width="262.6" height="35.2"/>
	<path class="st4" d="M555.5,103.3h-1l-2.2-8l-2.2,8h-1l-2.5-10h1.1l1.9,8l2.2-8h1l2.2,8l1.9-8h1.1L555.5,103.3z"/>
	<path class="st4" d="M563.9,103.3V99c0-1.2-0.6-1.8-1.7-1.8s-1.7,0.6-1.7,1.8v4.3h-1v-10h1v3.8c0.5-0.6,1.2-0.8,1.9-0.8
		c1.6,0,2.5,1,2.5,2.5v4.4L563.9,103.3L563.9,103.3z"/>
	<path class="st4" d="M571.3,103.3v-0.7c-0.6,0.6-1.1,0.7-2,0.7c-1,0-1.5-0.2-1.9-0.6c-0.3-0.3-0.5-0.9-0.5-1.4c0-1.2,0.8-2,2.4-2
		h2.1v-0.7c0-1-0.5-1.5-1.8-1.5c-0.9,0-1.3,0.2-1.7,0.8l-0.7-0.6c0.6-0.8,1.3-1,2.4-1c1.8,0,2.8,0.8,2.8,2.3v4.7
		C572.4,103.3,571.3,103.3,571.3,103.3z M571.3,100.1h-1.9c-1,0-1.5,0.4-1.5,1.2s0.5,1.2,1.6,1.2c0.6,0,1.1,0,1.5-0.5
		c0.2-0.2,0.4-0.6,0.4-1.2L571.3,100.1L571.3,100.1z"/>
	<path class="st4" d="M576.7,103.3c-1.2,0-1.8-0.8-1.8-1.8v-4.2H574v-0.8h0.9v-2.2h1v2.2h1.5v0.8h-1.5v4.2c0,0.6,0.3,1,0.9,1h0.5
		v0.9L576.7,103.3L576.7,103.3z"/>
	<path class="st4" d="M582.8,94.5v-1.1h1.1v1.1H582.8z M582.9,103.3v-6.9h1v6.9H582.9z"/>
	<path class="st4" d="M588.6,103.4c-1.2,0-2.1-0.3-2.8-1l0.7-0.7c0.5,0.6,1.3,0.8,2.1,0.8c1.1,0,1.8-0.4,1.8-1.2
		c0-0.6-0.4-0.9-1.1-1l-1.1-0.1c-1.3-0.1-2.1-0.7-2.1-1.8c0-1.3,1.1-2,2.5-2c1,0,1.9,0.2,2.5,0.7l-0.7,0.7c-0.5-0.4-1.1-0.5-1.8-0.5
		c-1,0-1.5,0.4-1.5,1.1c0,0.6,0.3,0.9,1.2,1l1.1,0.1c1.2,0.1,2,0.6,2,1.9C591.4,102.6,590.2,103.4,588.6,103.4z"/>
	<path class="st4" d="M598.5,105c-0.1,0.4-0.3,0.6-0.5,0.8c-0.4,0.4-0.9,0.5-1.3,0.5h-0.4v-0.9h0.3c0.7,0,0.9-0.2,1.1-0.9l0.5-1.3
		l-2.5-6.8h1.1l1.9,5.6l1.9-5.5h1.1L598.5,105z"/>
	<path class="st4" d="M607.4,102.6c-0.5,0.5-1.1,0.8-2,0.8s-1.5-0.3-2-0.8c-0.7-0.7-0.8-1.7-0.8-2.7s0.1-2,0.8-2.7
		c0.5-0.5,1.1-0.8,2-0.8s1.5,0.3,2,0.8c0.7,0.7,0.8,1.7,0.8,2.7S608.1,101.9,607.4,102.6z M606.7,97.8c-0.3-0.3-0.8-0.5-1.3-0.5
		s-0.9,0.2-1.2,0.5c-0.5,0.5-0.6,1.4-0.6,2.1s0.1,1.6,0.6,2.1c0.3,0.3,0.8,0.5,1.2,0.5s0.9-0.2,1.3-0.5c0.5-0.5,0.5-1.4,0.5-2.1
		S607.2,98.3,606.7,97.8z"/>
	<path class="st4" d="M614.7,103.3v-0.8c-0.5,0.6-1.2,0.9-1.9,0.9s-1.4-0.2-1.8-0.6c-0.5-0.5-0.7-1.1-0.7-1.9v-4.4h1v4.2
		c0,1.2,0.6,1.8,1.7,1.8c1,0,1.7-0.6,1.7-1.8v-4.2h1v6.9L614.7,103.3L614.7,103.3z"/>
	<path class="st4" d="M622.1,97.8c-0.4-0.4-0.7-0.5-1.2-0.5c-1,0-1.7,0.8-1.7,1.8v4.2h-1v-6.9h1v0.8c0.4-0.6,1.1-0.9,1.9-0.9
		c0.7,0,1.2,0.2,1.7,0.6L622.1,97.8z"/>
	<path class="st4" d="M636.5,103.3v-4.2c0-1.2-0.7-1.8-1.7-1.8s-1.7,0.6-1.7,1.7v4.4h-1v-4.2c0-1.2-0.7-1.8-1.7-1.8
		s-1.7,0.6-1.7,1.8v4.2h-1v-6.9h1v0.8c0.5-0.6,1.2-0.8,1.9-0.8c1,0,1.7,0.4,2.1,1.1c0.5-0.8,1.3-1.1,2.3-1.1c0.7,0,1.4,0.2,1.8,0.6
		c0.5,0.5,0.7,1.1,0.7,1.9v4.4L636.5,103.3L636.5,103.3z"/>
	<path class="st4" d="M644.3,102.6c-0.5,0.5-1.1,0.8-2,0.8s-1.5-0.3-2-0.8c-0.7-0.7-0.8-1.7-0.8-2.7s0.1-2,0.8-2.7
		c0.5-0.5,1.1-0.8,2-0.8s1.5,0.3,2,0.8c0.7,0.7,0.8,1.7,0.8,2.7S645,101.9,644.3,102.6z M643.6,97.8c-0.3-0.3-0.8-0.5-1.3-0.5
		s-0.9,0.2-1.2,0.5c-0.5,0.5-0.6,1.4-0.6,2.1s0.1,1.6,0.6,2.1c0.3,0.3,0.8,0.5,1.2,0.5s0.9-0.2,1.3-0.5c0.5-0.5,0.5-1.4,0.5-2.1
		S644.1,98.3,643.6,97.8z"/>
	<path class="st4" d="M649.3,103.3c-1.2,0-1.8-0.8-1.8-1.8v-4.2h-0.9v-0.8h0.9v-2.2h1v2.2h1.5v0.8h-1.5v4.2c0,0.6,0.3,1,0.9,1h0.5
		v0.9L649.3,103.3L649.3,103.3z"/>
	<path class="st4" d="M656.4,103.3V99c0-1.2-0.6-1.8-1.7-1.8S653,97.8,653,99v4.3h-1v-10h1v3.8c0.5-0.6,1.2-0.8,1.9-0.8
		c1.6,0,2.5,1,2.5,2.5v4.4L656.4,103.3L656.4,103.3z"/>
	<path class="st4" d="M660.5,100.1c0,1.5,0.7,2.4,2,2.4c0.8,0,1.3-0.2,1.8-0.8l0.7,0.6c-0.7,0.7-1.3,1.1-2.5,1.1c-1.8,0-3-1.1-3-3.5
		c0-2.2,1.1-3.5,2.8-3.5c1.8,0,2.8,1.3,2.8,3.3v0.5L660.5,100.1L660.5,100.1z M663.9,98.2c-0.3-0.6-0.9-1-1.6-1s-1.3,0.4-1.6,1
		c-0.2,0.4-0.2,0.6-0.2,1.1h3.6C664.1,98.8,664.1,98.6,663.9,98.2z"/>
	<path class="st4" d="M671.1,97.8c-0.4-0.4-0.7-0.5-1.2-0.5c-1,0-1.7,0.8-1.7,1.8v4.2h-1v-6.9h1v0.8c0.4-0.6,1.1-0.9,1.9-0.9
		c0.7,0,1.2,0.2,1.7,0.6L671.1,97.8z"/>
	<path class="st4" d="M673.1,95.6v-2.3h1.2v1.2L673.1,95.6z"/>
	<path class="st4" d="M678.2,103.4c-1.2,0-2.1-0.3-2.8-1l0.7-0.7c0.5,0.6,1.3,0.8,2.1,0.8c1.1,0,1.8-0.4,1.8-1.2
		c0-0.6-0.4-0.9-1.1-1l-1.1-0.1c-1.3-0.1-2.1-0.7-2.1-1.8c0-1.3,1.1-2,2.5-2c1,0,1.9,0.2,2.5,0.7l-0.7,0.7c-0.5-0.4-1.1-0.5-1.8-0.5
		c-1,0-1.5,0.4-1.5,1.1c0,0.6,0.3,0.9,1.2,1l1.1,0.1c1.2,0.1,2,0.6,2,1.9C681,102.6,679.8,103.4,678.2,103.4z"/>
	<path class="st4" d="M695.3,103.3v-4.2c0-1.2-0.7-1.8-1.7-1.8s-1.7,0.6-1.7,1.7v4.4h-1v-4.2c0-1.2-0.7-1.8-1.7-1.8
		s-1.7,0.6-1.7,1.8v4.2h-1v-6.9h1v0.8c0.5-0.6,1.2-0.8,1.9-0.8c1,0,1.7,0.4,2.1,1.1c0.5-0.8,1.3-1.1,2.3-1.1c0.7,0,1.4,0.2,1.8,0.6
		c0.5,0.5,0.7,1.1,0.7,1.9v4.4L695.3,103.3L695.3,103.3z"/>
	<path class="st4" d="M702.7,103.3v-0.7c-0.6,0.6-1.1,0.7-2,0.7c-1,0-1.5-0.2-1.9-0.6c-0.3-0.3-0.5-0.9-0.5-1.4c0-1.2,0.8-2,2.4-2
		h2.1v-0.7c0-1-0.5-1.5-1.8-1.5c-0.9,0-1.3,0.2-1.7,0.8l-0.7-0.6c0.6-0.8,1.3-1,2.4-1c1.8,0,2.8,0.8,2.8,2.3v4.7
		C703.8,103.3,702.7,103.3,702.7,103.3z M702.7,100.1h-2c-1,0-1.5,0.4-1.5,1.2s0.5,1.2,1.6,1.2c0.6,0,1.1,0,1.5-0.5
		c0.2-0.2,0.4-0.6,0.4-1.2V100.1z"/>
	<path class="st4" d="M706.1,94.5v-1.1h1.1v1.1H706.1z M706.1,103.3v-6.9h1v6.9H706.1z"/>
	<path class="st4" d="M713.8,103.3v-0.8c-0.6,0.7-1.2,0.9-2,0.9c-0.7,0-1.3-0.2-1.7-0.6c-0.7-0.7-0.8-1.8-0.8-2.9s0.1-2.2,0.8-2.9
		c0.4-0.4,1-0.6,1.7-0.6c0.8,0,1.4,0.2,1.9,0.9v-3.9h1v10L713.8,103.3L713.8,103.3z M712,97.2c-1.5,0-1.7,1.3-1.7,2.6
		s0.2,2.6,1.7,2.6s1.7-1.3,1.7-2.6S713.5,97.2,712,97.2z"/>
	<path class="st4" d="M717.9,100.1c0,1.5,0.7,2.4,2,2.4c0.8,0,1.3-0.2,1.8-0.8l0.7,0.6c-0.7,0.7-1.3,1.1-2.5,1.1c-1.8,0-3-1.1-3-3.5
		c0-2.2,1.1-3.5,2.8-3.5c1.8,0,2.8,1.3,2.8,3.3v0.5L717.9,100.1L717.9,100.1z M721.3,98.2c-0.3-0.6-0.9-1-1.6-1s-1.3,0.4-1.6,1
		c-0.2,0.4-0.2,0.6-0.2,1.1h3.6C721.5,98.8,721.5,98.6,721.3,98.2z"/>
	<path class="st4" d="M729.1,103.3v-4.2c0-1.2-0.7-1.8-1.7-1.8s-1.7,0.6-1.7,1.8v4.2h-1v-6.9h1v0.8c0.5-0.6,1.2-0.8,1.9-0.8
		s1.3,0.2,1.8,0.6c0.5,0.5,0.7,1.1,0.7,1.9v4.4H729.1z"/>
	<path class="st4" d="M740.5,103.3v-4.2c0-1.2-0.7-1.8-1.7-1.8s-1.7,0.6-1.7,1.8v4.2h-1v-6.9h1v0.8c0.5-0.6,1.2-0.8,1.9-0.8
		s1.3,0.2,1.8,0.6c0.5,0.5,0.7,1.1,0.7,1.9v4.4H740.5z"/>
	<path class="st4" d="M747.8,103.3v-0.7c-0.6,0.6-1.1,0.7-2,0.7c-1,0-1.5-0.2-1.9-0.6c-0.3-0.3-0.5-0.9-0.5-1.4c0-1.2,0.8-2,2.4-2
		h2.1v-0.7c0-1-0.5-1.5-1.8-1.5c-0.9,0-1.3,0.2-1.7,0.8l-0.7-0.6c0.6-0.8,1.3-1,2.4-1c1.8,0,2.8,0.8,2.8,2.3v4.7
		C748.9,103.3,747.8,103.3,747.8,103.3z M747.8,100.1h-1.9c-1,0-1.5,0.4-1.5,1.2s0.5,1.2,1.6,1.2c0.6,0,1.1,0,1.5-0.5
		c0.2-0.2,0.4-0.6,0.4-1.2L747.8,100.1L747.8,100.1z"/>
	<path class="st4" d="M760.1,103.3v-4.2c0-1.2-0.7-1.8-1.7-1.8s-1.7,0.6-1.7,1.7v4.4h-1v-4.2c0-1.2-0.7-1.8-1.7-1.8
		s-1.7,0.6-1.7,1.8v4.2h-1v-6.9h1v0.8c0.5-0.6,1.2-0.8,1.9-0.8c1,0,1.7,0.4,2.1,1.1c0.5-0.8,1.3-1.1,2.3-1.1c0.7,0,1.4,0.2,1.8,0.6
		c0.5,0.5,0.7,1.1,0.7,1.9v4.4L760.1,103.3L760.1,103.3z"/>
	<path class="st4" d="M764.2,100.1c0,1.5,0.7,2.4,2,2.4c0.8,0,1.3-0.2,1.8-0.8l0.7,0.6c-0.7,0.7-1.3,1.1-2.5,1.1c-1.8,0-3-1.1-3-3.5
		c0-2.2,1.1-3.5,2.8-3.5c1.8,0,2.8,1.3,2.8,3.3v0.5L764.2,100.1L764.2,100.1z M767.7,98.2c-0.3-0.6-0.9-1-1.6-1
		c-0.7,0-1.3,0.4-1.6,1c-0.2,0.4-0.2,0.6-0.2,1.1h3.6C767.8,98.8,767.8,98.6,767.7,98.2z"/>
	<path class="st4" d="M775.4,97.5l-1.1,1.7c-0.2,0.3-0.3,0.6-0.3,0.8v0.5h-1V100c0-0.5,0.1-0.9,0.4-1.3l1.1-1.6
		c0.3-0.4,0.5-0.7,0.5-1.2c0-0.9-0.7-1.7-1.6-1.7c-1,0-1.6,0.8-1.6,1.7h-1c0-1.4,1.1-2.6,2.6-2.6s2.6,1.1,2.6,2.5
		C776.1,96.5,775.8,97,775.4,97.5z M772.9,103.3v-1.2h1.2v1.2H772.9z"/>
</g>
<g>
	<rect x="546.3" y="58.4" class="st3" width="33.9" height="26.6"/>
	<path class="st4" d="M551.5,73.3v-12l-3,2.6V61l3-2.6h2.7v14.9H551.5z"/>
	<path class="st4" d="M559.1,73.3v-3.1h3.1v3.1H559.1z"/>
</g>
<g>
	<rect x="546.3" y="167.4" class="st3" width="33.9" height="26.6"/>
	<path class="st4" d="M547.5,182.3v-2.5l5.6-6.5c0.5-0.7,0.8-1.1,0.8-1.8c0-1.1-0.7-1.9-1.8-1.9c-0.9,0-1.8,0.5-1.8,1.9h-2.7
		c0-2.7,2-4.4,4.6-4.4s4.5,1.7,4.5,4.3c0,1.4-0.6,2.2-1.6,3.4l-4.2,4.9h5.8v2.5h-9.2L547.5,182.3L547.5,182.3z"/>
	<path class="st4" d="M559.1,182.3v-3.1h3.1v3.1H559.1z"/>
</g>
<g>
	<polygon class="st5" points="625.1,327.7 630.3,334.4 634.9,330.8 629.7,324.1 635.5,321.6 610.3,304.6 621.2,332.7 	"/>
</g>
<rect x="549.2" y="243.9" class="st2" width="21.6" height="21.6"/>
<g>
	<path class="st6" d="M597.1,315.8c0,2.8-2.3,5.1-5.1,5.1h-38.6c-2.8,0-5.1-2.3-5.1-5.1v-18c0-2.8,2.3-5.1,5.1-5.1H592
		c2.8,0,5.1,2.3,5.1,5.1V315.8z"/>
</g>
<g>
	<path class="st0" d="M565.9,310.7l-3.9-6v6h-1.3v-8.5h1.2l3.9,6v-6h1.3v8.5H565.9z"/>
	<path class="st0" d="M570.1,308c0,1,0.6,1.7,1.5,1.7c0.7,0,1-0.2,1.5-0.6l0.8,0.7c-0.6,0.6-1.2,0.9-2.3,0.9c-1.5,0-2.7-0.8-2.7-3.1
		c0-2,1-3.1,2.6-3.1s2.6,1.2,2.6,2.9v0.5h-4L570.1,308L570.1,308z M572.7,306.3c-0.2-0.5-0.6-0.8-1.2-0.8c-0.6,0-1,0.3-1.2,0.8
		c-0.1,0.3-0.1,0.5-0.2,0.8h2.7C572.9,306.8,572.8,306.6,572.7,306.3z"/>
	<path class="st0" d="M578.9,310.7l-1.3-2.1l-1.3,2.1h-1.5l2.1-3.1l-2-3h1.5l1.2,2l1.2-2h1.5l-2,3l2.1,3.1H578.9z"/>
	<path class="st0" d="M583.5,310.7c-1.1,0-1.7-0.8-1.7-1.7v-3.3h-0.7v-0.9h0.7V303h1.2v1.8h1.2v0.9H583v3.3c0,0.4,0.2,0.7,0.7,0.7
		h0.5v1L583.5,310.7L583.5,310.7z"/>
</g>
<g>
	<rect x="546.3" y="201.3" class="st3" width="262.6" height="35.2"/>
	<path class="st4" d="M547.7,211.3v-10h6.2v1h-5.1v3.5h4.4v1h-4.4v3.6h5.1v1h-6.2V211.3z"/>
	<path class="st4" d="M560.3,211.3v-4.2c0-1.2-0.7-1.8-1.7-1.8s-1.7,0.6-1.7,1.8v4.2h-1v-6.9h1v0.8c0.5-0.6,1.2-0.8,1.9-0.8
		s1.3,0.2,1.8,0.6c0.5,0.5,0.7,1.1,0.7,1.9v4.4H560.3z"/>
	<path class="st4" d="M565.7,211.3c-1.2,0-1.8-0.8-1.8-1.8v-4.2H563v-0.8h0.9v-2.2h1v2.2h1.5v0.8h-1.5v4.2c0,0.6,0.3,1,0.9,1h0.5
		v0.9L565.7,211.3L565.7,211.3z"/>
	<path class="st4" d="M569,208.1c0,1.5,0.7,2.4,2,2.4c0.8,0,1.3-0.2,1.8-0.8l0.7,0.6c-0.7,0.7-1.3,1.1-2.5,1.1c-1.8,0-3-1.1-3-3.5
		c0-2.2,1.1-3.5,2.8-3.5c1.8,0,2.8,1.3,2.8,3.3v0.5H569V208.1z M572.4,206.2c-0.3-0.6-0.9-1-1.6-1c-0.7,0-1.3,0.4-1.6,1
		c-0.2,0.4-0.2,0.6-0.2,1.1h3.6C572.6,206.8,572.6,206.6,572.4,206.2z"/>
	<path class="st4" d="M579.6,205.7c-0.4-0.4-0.7-0.5-1.2-0.5c-1,0-1.7,0.8-1.7,1.8v4.2h-1v-6.9h1v0.8c0.4-0.6,1.1-0.9,1.9-0.9
		c0.7,0,1.2,0.2,1.7,0.6L579.6,205.7z"/>
	<path class="st4" d="M587.4,211.4c-1.6,0-2.8-0.8-2.9-2.6h1c0.1,1.2,1,1.7,1.9,1.7c1.1,0,1.9-0.7,1.9-1.9s-0.6-1.9-2-1.9h-0.2v-0.9
		h0.2c1.2,0,1.8-0.7,1.8-1.8c0-1.2-0.8-1.8-1.7-1.8c-1.1,0-1.7,0.6-1.8,1.7h-1c0.1-1.6,1.3-2.6,2.8-2.6c1.6,0,2.7,1.1,2.7,2.7
		c0,1.1-0.4,1.8-1.3,2.2c1,0.4,1.5,1.2,1.5,2.4C590.3,210.4,589,211.4,587.4,211.4z"/>
	<path class="st4" d="M596.3,205.7c-0.4-0.4-0.7-0.5-1.2-0.5c-1,0-1.7,0.8-1.7,1.8v4.2h-1v-6.9h1v0.8c0.4-0.6,1.1-0.9,1.9-0.9
		c0.7,0,1.2,0.2,1.7,0.6L596.3,205.7z"/>
	<path class="st4" d="M602,211.3v-0.8c-0.6,0.7-1.2,0.9-2,0.9c-0.7,0-1.3-0.2-1.7-0.6c-0.7-0.7-0.8-1.8-0.8-2.9s0.1-2.2,0.8-2.9
		c0.4-0.4,1-0.6,1.7-0.6c0.8,0,1.4,0.2,1.9,0.9v-3.9h1v10L602,211.3L602,211.3z M600.2,205.2c-1.5,0-1.7,1.3-1.7,2.6
		s0.2,2.6,1.7,2.6s1.7-1.3,1.7-2.6S601.7,205.2,600.2,205.2z"/>
	<path class="st4" d="M605.5,213.3v-3.2h1.2v2.1L605.5,213.3z"/>
	<path class="st4" d="M617.1,210.7c-0.5,0.5-1.1,0.7-2,0.7s-1.6-0.3-2-0.7s-0.6-1-0.7-1.7h1c0.1,1,0.6,1.6,1.7,1.6
		c0.5,0,0.9-0.2,1.2-0.5c0.5-0.5,0.5-1.3,0.5-2c0-1.2-0.2-2.4-1.7-2.4c-0.9,0-1.5,0.4-1.7,1h-0.9v-5.2h5v0.9h-4.1v3.2
		c0.4-0.4,1-0.7,1.8-0.7c0.7,0,1.3,0.2,1.7,0.6c0.7,0.7,0.8,1.7,0.8,2.7C617.9,209,617.8,210,617.1,210.7z"/>
	<path class="st4" d="M621.9,211.3c-1.2,0-1.8-0.8-1.8-1.8v-4.2h-0.9v-0.8h0.9v-2.2h1v2.2h1.5v0.8h-1.5v4.2c0,0.6,0.3,1,0.9,1h0.5
		v0.9L621.9,211.3L621.9,211.3z"/>
	<path class="st4" d="M629,211.3V207c0-1.2-0.6-1.8-1.7-1.8c-1.1,0-1.7,0.6-1.7,1.8v4.3h-1v-10h1v3.8c0.5-0.6,1.2-0.8,1.9-0.8
		c1.6,0,2.5,1,2.5,2.5v4.4h-1V211.3z"/>
	<path class="st4" d="M639.9,211.3v-0.7c-0.6,0.6-1.1,0.7-2,0.7c-1,0-1.5-0.2-1.9-0.6c-0.3-0.3-0.5-0.9-0.5-1.4c0-1.2,0.8-2,2.4-2
		h2.1v-0.7c0-1-0.5-1.5-1.8-1.5c-0.9,0-1.3,0.2-1.7,0.8l-0.7-0.6c0.6-0.8,1.3-1,2.4-1c1.8,0,2.8,0.8,2.8,2.3v4.7H639.9z
		 M639.9,208.1H638c-1,0-1.5,0.4-1.5,1.2s0.5,1.2,1.6,1.2c0.6,0,1.1,0,1.5-0.5c0.2-0.2,0.4-0.6,0.4-1.2L639.9,208.1L639.9,208.1z"/>
	<path class="st4" d="M647.8,211.3v-4.2c0-1.2-0.7-1.8-1.7-1.8s-1.7,0.6-1.7,1.8v4.2h-1v-6.9h1v0.8c0.5-0.6,1.2-0.8,1.9-0.8
		s1.3,0.2,1.8,0.6c0.5,0.5,0.7,1.1,0.7,1.9v4.4H647.8z"/>
	<path class="st4" d="M655.3,211.3v-0.8c-0.6,0.7-1.2,0.9-2,0.9c-0.7,0-1.3-0.2-1.7-0.6c-0.7-0.7-0.8-1.8-0.8-2.9s0.1-2.2,0.8-2.9
		c0.4-0.4,1-0.6,1.7-0.6c0.8,0,1.4,0.2,1.9,0.9v-3.9h1v10L655.3,211.3L655.3,211.3z M653.6,205.2c-1.5,0-1.7,1.3-1.7,2.6
		s0.2,2.6,1.7,2.6s1.7-1.3,1.7-2.6S655.1,205.2,653.6,205.2z"/>
	<path class="st4" d="M666.8,206.4l-2.5,4.9h-1l2.2-4.5c-0.3,0.1-0.7,0.2-1.1,0.2c-1.6,0-2.6-1.2-2.6-2.8c0-1.7,1.1-3,2.8-3
		s2.8,1.1,2.8,2.9C667.5,204.8,667.3,205.5,666.8,206.4z M664.7,202.2c-1.1,0-1.8,0.8-1.8,2c0,1.1,0.6,2,1.8,2c1.1,0,1.8-0.8,1.8-2
		S665.8,202.2,664.7,202.2z"/>
	<path class="st4" d="M671.6,211.3c-1.2,0-1.8-0.8-1.8-1.8v-4.2h-0.9v-0.8h0.9v-2.2h1v2.2h1.5v0.8h-1.5v4.2c0,0.6,0.3,1,0.9,1h0.5
		v0.9L671.6,211.3L671.6,211.3z"/>
	<path class="st4" d="M678.7,211.3V207c0-1.2-0.6-1.8-1.7-1.8s-1.7,0.6-1.7,1.8v4.3h-1v-10h1v3.8c0.5-0.6,1.2-0.8,1.9-0.8
		c1.6,0,2.5,1,2.5,2.5v4.4h-1V211.3z"/>
	<path class="st4" d="M688.3,211.4c-1.7,0-3.1-1.2-3.1-3.5c0-2.4,1.3-3.5,3.1-3.5c1,0,1.6,0.3,2.3,1l-0.7,0.6
		c-0.5-0.6-0.9-0.8-1.6-0.8c-0.7,0-1.2,0.3-1.6,0.8c-0.3,0.4-0.4,1-0.4,1.8s0.1,1.4,0.4,1.8c0.4,0.5,0.9,0.8,1.6,0.8
		c0.7,0,1.1-0.2,1.6-0.8l0.7,0.7C689.9,211.1,689.3,211.4,688.3,211.4z"/>
	<path class="st4" d="M696.9,211.3V207c0-1.2-0.6-1.8-1.7-1.8s-1.7,0.6-1.7,1.8v4.3h-1v-10h1v3.8c0.5-0.6,1.2-0.8,1.9-0.8
		c1.6,0,2.5,1,2.5,2.5v4.4h-1V211.3z"/>
	<path class="st4" d="M704.3,211.3v-0.7c-0.6,0.6-1.1,0.7-2,0.7c-1,0-1.5-0.2-1.9-0.6c-0.3-0.3-0.5-0.9-0.5-1.4c0-1.2,0.8-2,2.4-2
		h2.1v-0.7c0-1-0.5-1.5-1.8-1.5c-0.9,0-1.3,0.2-1.7,0.8l-0.7-0.6c0.6-0.8,1.3-1,2.4-1c1.8,0,2.8,0.8,2.8,2.3v4.7H704.3z
		 M704.3,208.1h-1.9c-1,0-1.5,0.4-1.5,1.2s0.5,1.2,1.6,1.2c0.6,0,1.1,0,1.5-0.5c0.2-0.2,0.4-0.6,0.4-1.2L704.3,208.1L704.3,208.1z"
		/>
	<path class="st4" d="M711.6,205.7c-0.4-0.4-0.7-0.5-1.2-0.5c-1,0-1.7,0.8-1.7,1.8v4.2h-1v-6.9h1v0.8c0.4-0.6,1.1-0.9,1.9-0.9
		c0.7,0,1.2,0.2,1.7,0.6L711.6,205.7z"/>
	<path class="st4" d="M717.4,211.3v-0.7c-0.6,0.6-1.1,0.7-2,0.7c-1,0-1.5-0.2-1.9-0.6c-0.3-0.3-0.5-0.9-0.5-1.4c0-1.2,0.8-2,2.4-2
		h2.1v-0.7c0-1-0.5-1.5-1.8-1.5c-0.9,0-1.3,0.2-1.7,0.8l-0.7-0.6c0.6-0.8,1.3-1,2.4-1c1.8,0,2.8,0.8,2.8,2.3v4.7H717.4z
		 M717.4,208.1h-1.9c-1,0-1.5,0.4-1.5,1.2s0.5,1.2,1.6,1.2c0.6,0,1.1,0,1.5-0.5c0.2-0.2,0.4-0.6,0.4-1.2L717.4,208.1L717.4,208.1z"
		/>
	<path class="st4" d="M723.5,211.4c-1.7,0-3.1-1.2-3.1-3.5c0-2.4,1.3-3.5,3.1-3.5c1,0,1.6,0.3,2.3,1l-0.7,0.6
		c-0.5-0.6-0.9-0.8-1.6-0.8c-0.7,0-1.2,0.3-1.6,0.8c-0.3,0.4-0.4,1-0.4,1.8s0.1,1.4,0.4,1.8c0.4,0.5,0.9,0.8,1.6,0.8
		s1.1-0.2,1.6-0.8l0.7,0.7C725.1,211.1,724.5,211.4,723.5,211.4z"/>
	<path class="st4" d="M729.6,211.3c-1.2,0-1.8-0.8-1.8-1.8v-4.2h-0.9v-0.8h0.9v-2.2h1v2.2h1.5v0.8h-1.5v4.2c0,0.6,0.3,1,0.9,1h0.5
		v0.9L729.6,211.3L729.6,211.3z"/>
	<path class="st4" d="M732.9,208.1c0,1.5,0.7,2.4,2,2.4c0.8,0,1.3-0.2,1.8-0.8l0.7,0.6c-0.7,0.7-1.3,1.1-2.5,1.1c-1.8,0-3-1.1-3-3.5
		c0-2.2,1.1-3.5,2.8-3.5c1.8,0,2.8,1.3,2.8,3.3v0.5h-4.6V208.1z M736.3,206.2c-0.3-0.6-0.9-1-1.6-1s-1.3,0.4-1.6,1
		c-0.2,0.4-0.2,0.6-0.2,1.1h3.6C736.5,206.8,736.5,206.6,736.3,206.2z"/>
	<path class="st4" d="M743.5,205.7c-0.4-0.4-0.7-0.5-1.2-0.5c-1,0-1.7,0.8-1.7,1.8v4.2h-1v-6.9h1v0.8c0.4-0.6,1.1-0.9,1.9-0.9
		c0.7,0,1.2,0.2,1.7,0.6L743.5,205.7z"/>
	<path class="st4" d="M747.6,211.4c-1.2,0-2.1-0.3-2.8-1l0.7-0.7c0.5,0.6,1.3,0.8,2.1,0.8c1.1,0,1.8-0.4,1.8-1.2
		c0-0.6-0.3-0.9-1.1-1l-1.1-0.1c-1.3-0.1-2.1-0.7-2.1-1.8c0-1.3,1.1-2,2.5-2c1,0,1.9,0.2,2.5,0.7l-0.7,0.7c-0.5-0.4-1.1-0.5-1.8-0.5
		c-1,0-1.5,0.4-1.5,1.1c0,0.6,0.3,0.9,1.2,1l1.1,0.1c1.2,0.1,2,0.6,2,1.9C750.4,210.6,749.3,211.4,747.6,211.4z"/>
	<path class="st4" d="M757.1,205.2v6.1h-1v-6.1h-0.9v-0.8h0.9v-1.3c0-1,0.6-1.8,1.8-1.8h0.7v0.9h-0.5c-0.6,0-0.9,0.4-0.9,1v1.3h1.5
		v0.8L757.1,205.2L757.1,205.2z"/>
	<path class="st4" d="M764.1,205.7c-0.4-0.4-0.7-0.5-1.2-0.5c-1,0-1.7,0.8-1.7,1.8v4.2h-1v-6.9h1v0.8c0.4-0.6,1.1-0.9,1.9-0.9
		c0.7,0,1.2,0.2,1.7,0.6L764.1,205.7z"/>
	<path class="st4" d="M770.1,210.6c-0.5,0.5-1.1,0.8-2,0.8c-0.8,0-1.5-0.3-2-0.8c-0.7-0.7-0.8-1.7-0.8-2.7s0.1-2,0.8-2.7
		c0.5-0.5,1.1-0.8,2-0.8c0.8,0,1.5,0.3,2,0.8c0.7,0.7,0.8,1.7,0.8,2.7S770.8,209.9,770.1,210.6z M769.4,205.7
		c-0.3-0.3-0.8-0.5-1.3-0.5s-0.9,0.2-1.2,0.5c-0.5,0.5-0.6,1.4-0.6,2.1s0.1,1.6,0.6,2.1c0.3,0.3,0.8,0.5,1.2,0.5s0.9-0.2,1.3-0.5
		c0.5-0.5,0.5-1.4,0.5-2.1S769.9,206.2,769.4,205.7z"/>
	<path class="st4" d="M781.9,211.3v-4.2c0-1.2-0.7-1.8-1.7-1.8s-1.7,0.6-1.7,1.7v4.4h-1v-4.2c0-1.2-0.7-1.8-1.7-1.8
		s-1.7,0.6-1.7,1.8v4.2h-1v-6.9h1v0.8c0.5-0.6,1.2-0.8,1.9-0.8c1,0,1.7,0.4,2.1,1.1c0.5-0.8,1.3-1.1,2.3-1.1c0.7,0,1.4,0.2,1.8,0.6
		c0.5,0.5,0.7,1.1,0.7,1.9v4.4L781.9,211.3L781.9,211.3z"/>
	<path class="st4" d="M549.2,229.8c-0.1,0.4-0.3,0.6-0.5,0.8c-0.4,0.3-0.9,0.5-1.3,0.5H547v-0.9h0.3c0.7,0,0.9-0.2,1.1-0.9l0.5-1.3
		l-2.5-6.8h1.1l1.9,5.5l1.9-5.5h1.1L549.2,229.8z"/>
	<path class="st4" d="M558.1,227.4c-0.5,0.5-1.1,0.8-2,0.8s-1.5-0.3-2-0.8c-0.7-0.7-0.8-1.7-0.8-2.7s0.1-2,0.8-2.7
		c0.5-0.5,1.1-0.8,2-0.8s1.5,0.3,2,0.8c0.7,0.7,0.8,1.7,0.8,2.7S558.8,226.7,558.1,227.4z M557.4,222.5c-0.3-0.3-0.8-0.5-1.3-0.5
		s-0.9,0.2-1.2,0.5c-0.5,0.5-0.6,1.4-0.6,2.1c0,0.8,0.1,1.6,0.6,2.1c0.3,0.3,0.8,0.5,1.2,0.5s0.9-0.2,1.3-0.5
		c0.5-0.5,0.5-1.4,0.5-2.1S557.9,223,557.4,222.5z"/>
	<path class="st4" d="M565.4,228.1v-0.8c-0.5,0.6-1.2,0.9-1.9,0.9s-1.4-0.2-1.8-0.6c-0.5-0.5-0.7-1.1-0.7-1.9v-4.4h1v4.2
		c0,1.2,0.6,1.8,1.7,1.8c1,0,1.7-0.6,1.7-1.8v-4.2h1v6.9L565.4,228.1L565.4,228.1z"/>
	<path class="st4" d="M572.8,222.5c-0.4-0.4-0.7-0.5-1.2-0.5c-1,0-1.7,0.8-1.7,1.8v4.2h-1v-6.9h1v0.8c0.4-0.6,1.1-0.9,1.9-0.9
		c0.7,0,1.2,0.2,1.7,0.6L572.8,222.5z"/>
	<path class="st4" d="M583,227.6c-0.4,0.4-1,0.6-1.7,0.6c-0.8,0-1.4-0.2-1.9-0.9v3.9h-1v-10h1v0.8c0.6-0.7,1.2-0.9,1.9-0.9
		s1.3,0.2,1.7,0.6c0.7,0.7,0.8,1.8,0.8,2.9C583.8,225.7,583.7,226.9,583,227.6z M581.1,222c-1.5,0-1.7,1.3-1.7,2.6s0.2,2.6,1.7,2.6
		s1.7-1.3,1.7-2.6S582.6,222,581.1,222z"/>
	<path class="st4" d="M589.9,228.1v-0.7c-0.6,0.6-1.1,0.7-2,0.7c-1,0-1.5-0.2-1.9-0.6c-0.3-0.3-0.5-0.9-0.5-1.4c0-1.2,0.8-2,2.4-2
		h2.1v-0.7c0-1-0.5-1.5-1.8-1.5c-0.9,0-1.3,0.2-1.7,0.8l-0.7-0.6c0.6-0.8,1.3-1,2.4-1c1.8,0,2.8,0.8,2.8,2.3v4.7H589.9z
		 M589.9,224.9H588c-1,0-1.5,0.4-1.5,1.2s0.5,1.2,1.6,1.2c0.6,0,1.1,0,1.5-0.5c0.2-0.2,0.4-0.6,0.4-1.2L589.9,224.9L589.9,224.9z"/>
	<path class="st4" d="M595.5,228.2c-1.2,0-2.1-0.3-2.8-1l0.7-0.7c0.5,0.6,1.3,0.8,2.1,0.8c1.1,0,1.8-0.4,1.8-1.2
		c0-0.6-0.4-0.9-1.1-1l-1.1-0.1c-1.3-0.1-2.1-0.7-2.1-1.8c0-1.3,1.1-2,2.5-2c1,0,1.9,0.2,2.5,0.7l-0.7,0.7c-0.5-0.4-1.1-0.5-1.8-0.5
		c-1,0-1.5,0.4-1.5,1.1c0,0.6,0.3,0.9,1.2,1l1.1,0.1c1.2,0.1,2,0.6,2,1.9C598.3,227.4,597.2,228.2,595.5,228.2z"/>
	<path class="st4" d="M602.2,228.2c-1.2,0-2.1-0.3-2.8-1l0.7-0.7c0.5,0.6,1.3,0.8,2.1,0.8c1.1,0,1.8-0.4,1.8-1.2
		c0-0.6-0.4-0.9-1.1-1l-1.2-0.1c-1.3-0.1-2.1-0.7-2.1-1.8c0-1.3,1.1-2,2.5-2c1,0,1.9,0.2,2.5,0.7l-0.7,0.7c-0.5-0.4-1.1-0.5-1.8-0.5
		c-1,0-1.5,0.4-1.5,1.1c0,0.6,0.3,0.9,1.2,1l1.1,0.1c1.2,0.1,2,0.6,2,1.9C605,227.4,603.9,228.2,602.2,228.2z"/>
	<path class="st4" d="M613.5,228.1h-0.9l-1.8-5.4l-1.8,5.4h-0.9l-2.2-6.9h1.1l1.6,5.5l1.8-5.5h0.9l1.8,5.5l1.6-5.5h1.1L613.5,228.1z
		"/>
	<path class="st4" d="M621.5,227.4c-0.5,0.5-1.1,0.8-2,0.8s-1.5-0.3-2-0.8c-0.7-0.7-0.8-1.7-0.8-2.7s0.1-2,0.8-2.7
		c0.5-0.5,1.1-0.8,2-0.8s1.5,0.3,2,0.8c0.7,0.7,0.8,1.7,0.8,2.7S622.2,226.7,621.5,227.4z M620.8,222.5c-0.3-0.3-0.8-0.5-1.3-0.5
		s-0.9,0.2-1.2,0.5c-0.5,0.5-0.6,1.4-0.6,2.1c0,0.8,0.1,1.6,0.6,2.1c0.3,0.3,0.8,0.5,1.2,0.5s0.9-0.2,1.3-0.5
		c0.5-0.5,0.5-1.4,0.5-2.1S621.3,223,620.8,222.5z"/>
	<path class="st4" d="M628.3,222.5c-0.4-0.4-0.7-0.5-1.2-0.5c-1,0-1.7,0.8-1.7,1.8v4.2h-1v-6.9h1v0.8c0.4-0.6,1.1-0.9,1.9-0.9
		c0.7,0,1.2,0.2,1.7,0.6L628.3,222.5z"/>
	<path class="st4" d="M634,228.1v-0.8c-0.6,0.7-1.2,0.9-2,0.9c-0.7,0-1.3-0.2-1.7-0.6c-0.7-0.7-0.8-1.8-0.8-2.9
		c0-1.1,0.1-2.2,0.8-2.9c0.4-0.4,1-0.6,1.7-0.6c0.8,0,1.4,0.2,1.9,0.9v-3.9h1v10L634,228.1L634,228.1z M632.3,222
		c-1.5,0-1.7,1.3-1.7,2.6s0.2,2.6,1.7,2.6s1.7-1.3,1.7-2.6S633.8,222,632.3,222z"/>
</g>
<rect x="585.2" y="243.9" class="st2" width="21.6" height="21.6"/>
<rect x="621.2" y="243.9" class="st2" width="21.6" height="21.6"/>
<line class="st7" x1="521.4" y1="25.5" x2="914.1" y2="25.5"/>
<circle class="st8" cx="534.9" cy="16" r="3.4"/>
<circle class="st8" cx="547.5" cy="16" r="3.4"/>
<circle class="st8" cx="559.1" cy="16" r="3.4"/>
<rect x="37.5" y="121.6" class="st9" width="202.4" height="21.6"/>
<rect x="37.1" y="93.4" class="st3" width="262.6" height="35.2"/>
<g class="st10">
	<path class="st4" d="M42.1,93.9H43l1.8,6.8l1.8-6.8h1.1l-2.3,8.6h-1l-1.8-6.7l-1.8,6.7h-1l-2.3-8.6h1.1l1.8,6.8L42.1,93.9z"/>
	<path class="st4" d="M48.8,102.5v-9.1h1V97c0.2-0.3,0.5-0.5,0.8-0.7c0.3-0.2,0.7-0.3,1.1-0.3c0.7,0,1.2,0.2,1.6,0.6
		c0.4,0.4,0.6,1,0.6,1.7v4.1h-1.1v-3.9c0-0.4-0.1-0.8-0.3-1.1c-0.2-0.3-0.6-0.4-1-0.4c-0.4,0-0.7,0.1-1,0.3
		c-0.3,0.2-0.5,0.5-0.6,0.8v4.2H48.8z"/>
	<path class="st4" d="M60.2,102.5h-1V102c-0.1,0.1-0.4,0.3-0.7,0.4c-0.3,0.1-0.6,0.2-1,0.2c-0.7,0-1.2-0.2-1.6-0.5
		c-0.4-0.4-0.7-0.8-0.7-1.4c0-0.6,0.2-1,0.7-1.4c0.5-0.4,1-0.5,1.7-0.5c0.3,0,0.6,0.1,0.9,0.2s0.5,0.2,0.7,0.3v-0.8
		c0-0.4-0.1-0.7-0.4-1c-0.2-0.2-0.6-0.4-1-0.4c-0.7,0-1.1,0.3-1.3,0.9h-1c0.1-0.5,0.4-0.9,0.8-1.3c0.4-0.3,0.9-0.5,1.5-0.5
		c0.7,0,1.3,0.2,1.7,0.6c0.4,0.4,0.6,0.9,0.6,1.6V102.5z M59.2,100.9v-0.6c-0.1-0.2-0.3-0.4-0.6-0.6c-0.3-0.1-0.6-0.2-0.9-0.2
		c-0.4,0-0.8,0.1-1,0.3c-0.3,0.2-0.4,0.5-0.4,0.8c0,0.4,0.1,0.6,0.4,0.8c0.3,0.2,0.6,0.3,1,0.3c0.3,0,0.6-0.1,0.9-0.2
		C58.9,101.3,59.1,101.2,59.2,100.9z"/>
	<path class="st4" d="M62.2,100.9v-3.8h-1v-0.9h1v-1.6h1.1v1.6h1.5v0.9h-1.5v3.6c0,0.6,0.3,0.9,0.8,0.9c0.3,0,0.6-0.1,0.8-0.3v1
		c-0.3,0.1-0.6,0.2-1,0.2c-0.5,0-0.9-0.1-1.2-0.4C62.4,101.9,62.2,101.5,62.2,100.9z"/>
	<path class="st4" d="M70.5,93.9c0.1,0.1,0.2,0.3,0.2,0.5s-0.1,0.3-0.2,0.5s-0.3,0.2-0.5,0.2c-0.2,0-0.3-0.1-0.5-0.2
		c-0.1-0.1-0.2-0.3-0.2-0.5s0.1-0.3,0.2-0.5c0.1-0.1,0.3-0.2,0.5-0.2C70.2,93.7,70.3,93.8,70.5,93.9z M70.5,96.3v6.2h-1v-6.2H70.5z"
		/>
	<path class="st4" d="M71.9,100.8H73c0.2,0.6,0.7,1,1.5,1c0.4,0,0.7-0.1,0.9-0.2c0.2-0.2,0.4-0.4,0.4-0.7c0-0.4-0.3-0.7-0.9-0.9
		l-1.2-0.3c-1-0.3-1.5-0.8-1.5-1.6c0-0.5,0.2-1,0.6-1.3s1-0.5,1.6-0.5c0.7,0,1.2,0.2,1.6,0.5c0.4,0.3,0.7,0.7,0.8,1.3h-1
		C75.4,97.3,75,97,74.3,97c-0.3,0-0.6,0.1-0.8,0.2c-0.2,0.2-0.4,0.4-0.4,0.7c0,0.2,0.1,0.4,0.2,0.5c0.1,0.1,0.4,0.2,0.7,0.3l1.2,0.3
		c1.1,0.3,1.6,0.9,1.6,1.7c0,0.6-0.2,1-0.6,1.4s-1,0.5-1.7,0.5c-0.7,0-1.3-0.2-1.7-0.5C72.2,101.8,72,101.3,71.9,100.8z"/>
	<path class="st4" d="M83.1,104.9h-1l0.9-2.3l-2.4-6.3h1.1l1.8,4.9l1.8-4.9h1.1L83.1,104.9z"/>
	<path class="st4" d="M92,97c0.5,0.6,0.8,1.4,0.8,2.3c0,1-0.3,1.7-0.8,2.3c-0.5,0.6-1.2,0.9-2.1,0.9c-0.8,0-1.5-0.3-2.1-0.9
		c-0.5-0.6-0.8-1.4-0.8-2.3c0-1,0.3-1.7,0.8-2.3c0.5-0.6,1.2-0.9,2.1-0.9C90.8,96.1,91.5,96.4,92,97z M91.2,101
		c0.3-0.4,0.5-1,0.5-1.7c0-0.7-0.2-1.2-0.5-1.7c-0.3-0.4-0.8-0.6-1.3-0.6c-0.6,0-1,0.2-1.3,0.6c-0.3,0.4-0.5,1-0.5,1.7
		c0,0.7,0.2,1.2,0.5,1.7c0.3,0.4,0.8,0.6,1.3,0.6C90.5,101.7,90.9,101.5,91.2,101z"/>
	<path class="st4" d="M99.2,96.3v6.2h-1.1v-0.8c-0.2,0.3-0.4,0.5-0.8,0.7c-0.3,0.2-0.7,0.3-1.1,0.3c-0.7,0-1.2-0.2-1.6-0.6
		c-0.4-0.4-0.6-1-0.6-1.7v-4.1h1.1v3.9c0,0.5,0.1,0.8,0.3,1.1c0.2,0.3,0.6,0.4,1,0.4c0.4,0,0.7-0.1,1-0.3s0.5-0.5,0.6-0.8v-4.2H99.2
		z"/>
	<path class="st4" d="M104.2,96.2v1.1c-0.2-0.1-0.4-0.2-0.7-0.2c-0.3,0-0.6,0.1-0.9,0.3c-0.3,0.2-0.4,0.5-0.5,0.9v4.2h-1v-6.2h1v0.8
		c0.1-0.3,0.3-0.5,0.6-0.7c0.3-0.2,0.6-0.3,0.9-0.3C103.9,96.1,104.1,96.2,104.2,96.2z"/>
	<path class="st4" d="M113,97.1c0.5-0.7,1.1-1,1.9-1c0.6,0,1.1,0.2,1.4,0.6s0.5,0.9,0.5,1.6v4.1h-1.1v-3.9c0-0.4-0.1-0.8-0.3-1.1
		c-0.2-0.3-0.5-0.4-0.9-0.4c-0.3,0-0.6,0.1-0.9,0.3c-0.3,0.2-0.4,0.5-0.5,0.8v4.3h-1v-3.9c0-0.4-0.1-0.8-0.3-1.1
		c-0.2-0.3-0.5-0.4-0.9-0.4c-0.3,0-0.6,0.1-0.9,0.3c-0.3,0.2-0.4,0.5-0.5,0.8v4.3h-1v-6.2h1V97c0.4-0.6,0.9-0.9,1.7-0.9
		C112.1,96.1,112.7,96.5,113,97.1z"/>
	<path class="st4" d="M123.1,97c0.5,0.6,0.8,1.4,0.8,2.3c0,1-0.3,1.7-0.8,2.3c-0.5,0.6-1.2,0.9-2.1,0.9c-0.8,0-1.5-0.3-2.1-0.9
		c-0.5-0.6-0.8-1.4-0.8-2.3c0-1,0.3-1.7,0.8-2.3c0.5-0.6,1.2-0.9,2.1-0.9C121.9,96.1,122.6,96.4,123.1,97z M122.4,101
		c0.3-0.4,0.5-1,0.5-1.7c0-0.7-0.2-1.2-0.5-1.7c-0.3-0.4-0.8-0.6-1.3-0.6c-0.6,0-1,0.2-1.3,0.6c-0.3,0.4-0.5,1-0.5,1.7
		c0,0.7,0.2,1.2,0.5,1.7c0.3,0.4,0.8,0.6,1.3,0.6C121.6,101.7,122.1,101.5,122.4,101z"/>
	<path class="st4" d="M125.6,100.9v-3.8h-1v-0.9h1v-1.6h1.1v1.6h1.5v0.9h-1.5v3.6c0,0.6,0.3,0.9,0.8,0.9c0.3,0,0.6-0.1,0.8-0.3v1
		c-0.3,0.1-0.6,0.2-1,0.2c-0.5,0-0.9-0.1-1.2-0.4C125.8,101.9,125.6,101.5,125.6,100.9z"/>
	<path class="st4" d="M129.8,102.5v-9.1h1V97c0.2-0.3,0.5-0.5,0.8-0.7c0.3-0.2,0.7-0.3,1.1-0.3c0.7,0,1.2,0.2,1.6,0.6
		c0.4,0.4,0.6,1,0.6,1.7v4.1h-1.1v-3.9c0-0.4-0.1-0.8-0.3-1.1c-0.2-0.3-0.6-0.4-1-0.4c-0.4,0-0.7,0.1-1,0.3
		c-0.3,0.2-0.5,0.5-0.6,0.8v4.2H129.8z"/>
	<path class="st4" d="M140.6,100.6h1c-0.1,0.6-0.4,1.1-0.8,1.4s-1,0.5-1.7,0.5c-0.8,0-1.5-0.3-2.1-0.9s-0.8-1.4-0.8-2.3
		c0-0.9,0.3-1.7,0.8-2.3c0.5-0.6,1.2-0.9,2-0.9c0.8,0,1.5,0.3,1.9,0.8c0.5,0.6,0.7,1.3,0.7,2.2v0.4h-4.4c0,0.7,0.2,1.2,0.5,1.6
		c0.3,0.4,0.8,0.6,1.3,0.6c0.4,0,0.7-0.1,1-0.3S140.5,101,140.6,100.6z M139,97c-0.5,0-0.9,0.2-1.2,0.5c-0.3,0.3-0.5,0.7-0.6,1.3
		h3.3c0-0.5-0.1-0.9-0.4-1.2C139.9,97.2,139.5,97,139,97z"/>
	<path class="st4" d="M146.2,96.2v1.1c-0.2-0.1-0.4-0.2-0.7-0.2c-0.3,0-0.6,0.1-0.9,0.3c-0.3,0.2-0.4,0.5-0.5,0.9v4.2h-1v-6.2h1v0.8
		c0.1-0.3,0.3-0.5,0.6-0.7c0.3-0.2,0.6-0.3,0.9-0.3C145.9,96.1,146.1,96.2,146.2,96.2z"/>
	<path class="st4" d="M147.3,96.6l0.9-1.4c-0.2,0-0.3-0.1-0.4-0.2c-0.1-0.1-0.2-0.3-0.2-0.5c0-0.2,0.1-0.4,0.2-0.5
		c0.1-0.1,0.3-0.2,0.5-0.2c0.2,0,0.4,0.1,0.5,0.2s0.2,0.3,0.2,0.6c0,0.2-0.1,0.5-0.3,0.9l-0.7,1.2H147.3z"/>
	<path class="st4" d="M149.3,100.8h1.1c0.2,0.6,0.7,1,1.5,1c0.4,0,0.7-0.1,0.9-0.2c0.2-0.2,0.4-0.4,0.4-0.7c0-0.4-0.3-0.7-0.9-0.9
		l-1.2-0.3c-1-0.3-1.5-0.8-1.5-1.6c0-0.5,0.2-1,0.6-1.3s1-0.5,1.6-0.5c0.7,0,1.2,0.2,1.6,0.5c0.4,0.3,0.7,0.7,0.8,1.3h-1
		c-0.2-0.6-0.6-0.9-1.4-0.9c-0.3,0-0.6,0.1-0.8,0.2c-0.2,0.2-0.4,0.4-0.4,0.7c0,0.2,0.1,0.4,0.2,0.5c0.1,0.1,0.4,0.2,0.7,0.3
		l1.2,0.3c1.1,0.3,1.6,0.9,1.6,1.7c0,0.6-0.2,1-0.6,1.4s-1,0.5-1.7,0.5c-0.7,0-1.3-0.2-1.7-0.5C149.6,101.8,149.4,101.3,149.3,100.8
		z"/>
	<path class="st4" d="M163.1,97.1c0.5-0.7,1.1-1,1.9-1c0.6,0,1.1,0.2,1.4,0.6s0.5,0.9,0.5,1.6v4.1h-1.1v-3.9c0-0.4-0.1-0.8-0.3-1.1
		c-0.2-0.3-0.5-0.4-0.9-0.4c-0.3,0-0.6,0.1-0.9,0.3c-0.3,0.2-0.4,0.5-0.5,0.8v4.3h-1v-3.9c0-0.4-0.1-0.8-0.3-1.1
		c-0.2-0.3-0.5-0.4-0.9-0.4c-0.3,0-0.6,0.1-0.9,0.3c-0.3,0.2-0.4,0.5-0.5,0.8v4.3h-1v-6.2h1V97c0.4-0.6,0.9-0.9,1.7-0.9
		C162.2,96.1,162.8,96.5,163.1,97.1z"/>
	<path class="st4" d="M173.2,102.5h-1V102c-0.1,0.1-0.4,0.3-0.7,0.4c-0.3,0.1-0.6,0.2-1,0.2c-0.7,0-1.2-0.2-1.6-0.5
		c-0.4-0.4-0.7-0.8-0.7-1.4c0-0.6,0.2-1,0.7-1.4c0.5-0.4,1-0.5,1.7-0.5c0.3,0,0.6,0.1,0.9,0.2s0.5,0.2,0.7,0.3v-0.8
		c0-0.4-0.1-0.7-0.4-1c-0.2-0.2-0.6-0.4-1-0.4c-0.7,0-1.1,0.3-1.3,0.9h-1c0.1-0.5,0.4-0.9,0.8-1.3c0.4-0.3,0.9-0.5,1.5-0.5
		c0.7,0,1.3,0.2,1.7,0.6c0.4,0.4,0.6,0.9,0.6,1.6V102.5z M172.2,100.9v-0.6c-0.1-0.2-0.3-0.4-0.6-0.6c-0.3-0.1-0.6-0.2-0.9-0.2
		c-0.4,0-0.8,0.1-1,0.3c-0.3,0.2-0.4,0.5-0.4,0.8c0,0.4,0.1,0.6,0.4,0.8c0.3,0.2,0.6,0.3,1,0.3c0.3,0,0.6-0.1,0.9-0.2
		C171.9,101.3,172.1,101.2,172.2,100.9z"/>
	<path class="st4" d="M176,93.9c0.1,0.1,0.2,0.3,0.2,0.5s-0.1,0.3-0.2,0.5s-0.3,0.2-0.5,0.2c-0.2,0-0.3-0.1-0.5-0.2
		c-0.1-0.1-0.2-0.3-0.2-0.5s0.1-0.3,0.2-0.5c0.1-0.1,0.3-0.2,0.5-0.2C175.7,93.7,175.9,93.8,176,93.9z M176.1,96.3v6.2h-1v-6.2
		H176.1z"/>
	<path class="st4" d="M182.1,102.5v-0.7c-0.2,0.2-0.4,0.4-0.7,0.6s-0.7,0.2-1,0.2c-0.9,0-1.6-0.3-2.1-0.9s-0.7-1.4-0.7-2.3
		c0-0.9,0.2-1.7,0.7-2.3c0.5-0.6,1.2-0.9,2.1-0.9c0.4,0,0.7,0.1,1,0.2s0.6,0.4,0.7,0.6v-3.6h1.1v9.1H182.1z M182.1,100.6v-2.5
		c-0.2-0.3-0.4-0.6-0.7-0.7c-0.3-0.2-0.6-0.3-0.9-0.3c-0.6,0-1,0.2-1.4,0.6s-0.5,1-0.5,1.6c0,0.7,0.2,1.2,0.5,1.6s0.8,0.6,1.4,0.6
		c0.3,0,0.6-0.1,0.9-0.3C181.7,101.2,181.9,100.9,182.1,100.6z"/>
	<path class="st4" d="M188.9,100.6h1c-0.1,0.6-0.4,1.1-0.8,1.4s-1,0.5-1.7,0.5c-0.8,0-1.5-0.3-2.1-0.9s-0.8-1.4-0.8-2.3
		c0-0.9,0.3-1.7,0.8-2.3c0.5-0.6,1.2-0.9,2-0.9c0.8,0,1.5,0.3,1.9,0.8c0.5,0.6,0.7,1.3,0.7,2.2v0.4h-4.4c0,0.7,0.2,1.2,0.5,1.6
		c0.3,0.4,0.8,0.6,1.3,0.6c0.4,0,0.7-0.1,1-0.3S188.8,101,188.9,100.6z M187.4,97c-0.5,0-0.9,0.2-1.2,0.5c-0.3,0.3-0.5,0.7-0.6,1.3
		h3.3c0-0.5-0.1-0.9-0.4-1.2C188.2,97.2,187.9,97,187.4,97z"/>
	<path class="st4" d="M191.4,102.5v-6.2h1V97c0.2-0.3,0.5-0.5,0.8-0.7c0.3-0.2,0.7-0.3,1.1-0.3c0.7,0,1.2,0.2,1.6,0.6
		c0.4,0.4,0.6,1,0.6,1.7v4.1h-1.1v-3.9c0-0.4-0.1-0.8-0.3-1.1c-0.2-0.3-0.6-0.4-1-0.4c-0.4,0-0.7,0.1-1,0.3
		c-0.3,0.2-0.5,0.5-0.6,0.8v4.2H191.4z"/>
	<path class="st4" d="M201.3,102.5v-6.2h1V97c0.2-0.3,0.5-0.5,0.8-0.7c0.3-0.2,0.7-0.3,1.1-0.3c0.7,0,1.2,0.2,1.6,0.6
		c0.4,0.4,0.6,1,0.6,1.7v4.1h-1.1v-3.9c0-0.4-0.1-0.8-0.3-1.1c-0.2-0.3-0.6-0.4-1-0.4c-0.4,0-0.7,0.1-1,0.3
		c-0.3,0.2-0.5,0.5-0.6,0.8v4.2H201.3z"/>
	<path class="st4" d="M212.7,102.5h-1V102c-0.1,0.1-0.3,0.3-0.7,0.4c-0.3,0.1-0.6,0.2-1,0.2c-0.7,0-1.2-0.2-1.6-0.5
		c-0.4-0.4-0.7-0.8-0.7-1.4c0-0.6,0.2-1,0.7-1.4c0.5-0.4,1-0.5,1.7-0.5c0.3,0,0.6,0.1,0.9,0.2s0.5,0.2,0.7,0.3v-0.8
		c0-0.4-0.1-0.7-0.4-1c-0.2-0.2-0.6-0.4-1-0.4c-0.7,0-1.1,0.3-1.3,0.9h-1c0.1-0.5,0.4-0.9,0.8-1.3c0.4-0.3,0.9-0.5,1.5-0.5
		c0.7,0,1.3,0.2,1.7,0.6c0.4,0.4,0.6,0.9,0.6,1.6V102.5z M211.7,100.9v-0.6c-0.1-0.2-0.3-0.4-0.6-0.6c-0.3-0.1-0.6-0.2-0.9-0.2
		c-0.4,0-0.8,0.1-1,0.3s-0.4,0.5-0.4,0.8c0,0.4,0.1,0.6,0.4,0.8s0.6,0.3,1,0.3c0.3,0,0.6-0.1,0.9-0.2
		C211.4,101.3,211.6,101.2,211.7,100.9z"/>
	<path class="st4" d="M218.9,97.1c0.5-0.7,1.1-1,1.9-1c0.6,0,1.1,0.2,1.4,0.6s0.5,0.9,0.5,1.6v4.1h-1.1v-3.9c0-0.4-0.1-0.8-0.3-1.1
		s-0.5-0.4-0.9-0.4c-0.3,0-0.6,0.1-0.9,0.3c-0.3,0.2-0.4,0.5-0.5,0.8v4.3h-1v-3.9c0-0.4-0.1-0.8-0.3-1.1c-0.2-0.3-0.5-0.4-0.9-0.4
		c-0.3,0-0.6,0.1-0.9,0.3c-0.3,0.2-0.4,0.5-0.5,0.8v4.3h-1v-6.2h1V97c0.4-0.6,0.9-0.9,1.7-0.9C218,96.1,218.5,96.5,218.9,97.1z"/>
	<path class="st4" d="M228.4,100.6h1c-0.1,0.6-0.4,1.1-0.8,1.4s-1,0.5-1.7,0.5c-0.8,0-1.5-0.3-2.1-0.9s-0.8-1.4-0.8-2.3
		c0-0.9,0.3-1.7,0.8-2.3s1.2-0.9,2-0.9c0.8,0,1.5,0.3,1.9,0.8c0.5,0.6,0.7,1.3,0.7,2.2v0.4h-4.4c0,0.7,0.2,1.2,0.5,1.6
		c0.3,0.4,0.8,0.6,1.3,0.6c0.4,0,0.7-0.1,1-0.3C228.2,101.2,228.3,101,228.4,100.6z M226.9,97c-0.5,0-0.9,0.2-1.2,0.5
		c-0.3,0.3-0.5,0.7-0.6,1.3h3.3c0-0.5-0.1-0.9-0.4-1.2C227.8,97.2,227.4,97,226.9,97z"/>
	<path class="st4" d="M235.2,96.2c0,0.1,0,0.2,0,0.3c0,0.1,0,0.2-0.1,0.3c0,0.1-0.1,0.2-0.1,0.3c0,0.1-0.1,0.2-0.2,0.3
		s-0.1,0.2-0.2,0.3s-0.1,0.1-0.2,0.3c-0.1,0.1-0.2,0.2-0.2,0.2s-0.1,0.1-0.2,0.3l-0.2,0.2c-0.4,0.4-0.6,0.8-0.6,1.1h-1
		c0-0.3,0.1-0.6,0.2-0.9c0.1-0.2,0.3-0.5,0.6-0.8c0-0.1,0.2-0.2,0.4-0.4c0.2-0.2,0.3-0.4,0.4-0.5s0.2-0.3,0.3-0.5
		c0.1-0.2,0.1-0.4,0.1-0.6c0-0.4-0.1-0.8-0.4-1c-0.3-0.3-0.7-0.4-1.1-0.4c-0.5,0-0.9,0.2-1.2,0.5c-0.3,0.3-0.5,0.7-0.5,1.3h-1.1
		c0.1-0.8,0.4-1.5,0.9-2c0.5-0.5,1.2-0.7,1.9-0.7c0.8,0,1.5,0.2,1.9,0.7C235,94.8,235.2,95.4,235.2,96.2z M232.1,102.3
		c-0.1-0.1-0.2-0.3-0.2-0.5s0.1-0.4,0.2-0.5c0.1-0.1,0.3-0.2,0.5-0.2c0.2,0,0.4,0.1,0.5,0.2c0.1,0.1,0.2,0.3,0.2,0.5
		s-0.1,0.4-0.2,0.5c-0.1,0.1-0.3,0.2-0.5,0.2C232.4,102.5,232.3,102.5,232.1,102.3z"/>
</g>
<rect x="37.1" y="58.4" class="st3" width="33.9" height="26.6"/>
<g class="st10">
	<path class="st4" d="M42.5,59.1V72h-1.6V61.1l-3.2,1.6v-1.7l3.8-2H42.5z"/>
	<path class="st4" d="M45,71.8c-0.2-0.2-0.3-0.5-0.3-0.8c0-0.3,0.1-0.6,0.3-0.8c0.2-0.2,0.5-0.3,0.8-0.3c0.3,0,0.6,0.1,0.8,0.3
		c0.2,0.2,0.3,0.5,0.3,0.8c0,0.3-0.1,0.6-0.3,0.8c-0.2,0.2-0.5,0.3-0.8,0.3C45.5,72.1,45.3,72,45,71.8z"/>
</g>
<rect x="37.1" y="167.4" class="st3" width="33.9" height="26.6"/>
<g class="st10">
	<path class="st4" d="M44.3,171.6c0-0.7-0.2-1.2-0.6-1.6c-0.4-0.4-1-0.6-1.7-0.6c-0.8,0-1.3,0.2-1.8,0.7c-0.4,0.5-0.7,1.1-0.7,1.9
		h-1.7c0.1-1.2,0.6-2.2,1.3-2.9c0.8-0.7,1.7-1.1,2.9-1.1c1.2,0,2.2,0.3,2.9,1c0.7,0.7,1,1.5,1,2.6c0,0.2,0,0.4-0.1,0.6
		c0,0.2-0.1,0.4-0.1,0.5c0,0.2-0.1,0.3-0.3,0.6c-0.1,0.2-0.2,0.4-0.3,0.5c-0.1,0.1-0.2,0.3-0.4,0.5s-0.4,0.4-0.4,0.5
		c-0.1,0.1-0.2,0.3-0.5,0.6c-0.3,0.3-0.4,0.5-0.5,0.5l-3.3,3.6h6.2v1.5h-8.4v-1.1l4.2-4.6c0.6-0.7,1.1-1.2,1.3-1.4s0.5-0.6,0.7-1.1
		C44.2,172.4,44.3,172,44.3,171.6z"/>
	<path class="st4" d="M48.1,180.8c-0.2-0.2-0.3-0.5-0.3-0.8c0-0.3,0.1-0.6,0.3-0.8c0.2-0.2,0.5-0.3,0.8-0.3c0.3,0,0.6,0.1,0.8,0.3
		c0.2,0.2,0.3,0.5,0.3,0.8c0,0.3-0.1,0.6-0.3,0.8c-0.2,0.2-0.5,0.3-0.8,0.3C48.6,181.1,48.3,181,48.1,180.8z"/>
</g>
<rect x="40" y="243.9" class="st9" width="21.6" height="21.6"/>
<rect x="37.1" y="201.4" class="st3" width="262.6" height="35.2"/>
<g class="st10">
	<path class="st4" d="M38.2,201.9h5.5v1h-4.4v2.7h4v1h-4v2.9h4.4v1h-5.5V201.9z"/>
	<path class="st4" d="M45.3,210.5v-6.2h1v0.8c0.2-0.3,0.5-0.5,0.8-0.7c0.3-0.2,0.7-0.3,1.1-0.3c0.7,0,1.2,0.2,1.6,0.6
		c0.4,0.4,0.6,1,0.6,1.7v4.1h-1.1v-3.9c0-0.4-0.1-0.8-0.3-1.1c-0.2-0.3-0.6-0.4-1-0.4c-0.4,0-0.7,0.1-1,0.3
		c-0.3,0.2-0.5,0.5-0.6,0.8v4.2H45.3z"/>
	<path class="st4" d="M52.4,208.9v-3.8h-1v-0.9h1v-1.6h1.1v1.6H55v0.9h-1.5v3.6c0,0.6,0.3,0.9,0.8,0.9c0.3,0,0.6-0.1,0.8-0.3v1
		c-0.3,0.1-0.6,0.2-1,0.2c-0.5,0-0.9-0.1-1.2-0.4C52.6,209.9,52.4,209.5,52.4,208.9z"/>
	<path class="st4" d="M60.4,208.6h1c-0.1,0.6-0.4,1.1-0.8,1.4s-1,0.5-1.7,0.5c-0.8,0-1.5-0.3-2.1-0.9s-0.8-1.4-0.8-2.3
		c0-0.9,0.3-1.7,0.8-2.3c0.5-0.6,1.2-0.9,2-0.9c0.8,0,1.5,0.3,1.9,0.8c0.5,0.6,0.7,1.3,0.7,2.2v0.4h-4.4c0,0.7,0.2,1.2,0.5,1.6
		c0.3,0.4,0.8,0.6,1.3,0.6c0.4,0,0.7-0.1,1-0.3S60.3,208.9,60.4,208.6z M58.9,205c-0.5,0-0.9,0.2-1.2,0.5c-0.3,0.3-0.5,0.7-0.6,1.3
		h3.3c0-0.5-0.1-0.9-0.4-1.2C59.8,205.2,59.4,205,58.9,205z"/>
	<path class="st4" d="M66.1,204.2v1.1c-0.2-0.1-0.4-0.2-0.7-0.2c-0.3,0-0.6,0.1-0.9,0.3c-0.3,0.2-0.4,0.5-0.5,0.9v4.2h-1v-6.2h1v0.8
		c0.1-0.3,0.3-0.5,0.6-0.7c0.3-0.2,0.6-0.3,0.9-0.3C65.8,204.1,66,204.2,66.1,204.2z"/>
	<path class="st4" d="M72.1,206.5v-0.9h0.6c0.5,0,0.9-0.1,1.2-0.4c0.3-0.3,0.5-0.6,0.5-1.1c0-0.4-0.1-0.8-0.4-1
		c-0.3-0.3-0.7-0.4-1.1-0.4s-0.9,0.1-1.2,0.4c-0.3,0.3-0.5,0.6-0.5,1.1H70c0.1-0.7,0.4-1.3,0.9-1.8c0.5-0.5,1.1-0.7,1.9-0.7
		c0.8,0,1.4,0.2,1.9,0.7c0.5,0.4,0.7,1,0.7,1.7c0,0.5-0.1,0.9-0.4,1.2c-0.2,0.4-0.6,0.6-1,0.7c0.5,0.1,0.8,0.4,1.1,0.7
		c0.3,0.4,0.4,0.8,0.4,1.3c0,0.7-0.2,1.3-0.7,1.8c-0.5,0.5-1.2,0.7-2,0.7c-0.8,0-1.5-0.2-2.1-0.7s-0.8-1.1-0.9-1.9h1.1
		c0.1,0.5,0.3,0.9,0.6,1.2s0.8,0.4,1.3,0.4c0.5,0,0.9-0.1,1.2-0.4c0.3-0.3,0.5-0.7,0.5-1.1c0-0.5-0.2-0.8-0.5-1.1
		c-0.3-0.3-0.7-0.4-1.3-0.4H72.1z"/>
	<path class="st4" d="M80.1,204.2v1.1c-0.2-0.1-0.4-0.2-0.7-0.2c-0.3,0-0.6,0.1-0.9,0.3c-0.3,0.2-0.4,0.5-0.5,0.9v4.2h-1v-6.2h1v0.8
		c0.1-0.3,0.3-0.5,0.6-0.7c0.3-0.2,0.6-0.3,0.9-0.3C79.8,204.1,80,204.2,80.1,204.2z"/>
	<path class="st4" d="M85.3,210.5v-0.7c-0.2,0.2-0.4,0.4-0.7,0.6s-0.7,0.2-1,0.2c-0.9,0-1.6-0.3-2.1-0.9s-0.7-1.4-0.7-2.3
		c0-0.9,0.2-1.7,0.7-2.3c0.5-0.6,1.2-0.9,2.1-0.9c0.4,0,0.7,0.1,1,0.2s0.6,0.4,0.7,0.6v-3.6h1.1v9.1H85.3z M85.3,208.6v-2.5
		c-0.2-0.3-0.4-0.6-0.7-0.7c-0.3-0.2-0.6-0.3-0.9-0.3c-0.6,0-1,0.2-1.4,0.6s-0.5,1-0.5,1.6c0,0.7,0.2,1.2,0.5,1.6s0.8,0.6,1.4,0.6
		c0.3,0,0.6-0.1,0.9-0.3C85,209.2,85.2,208.9,85.3,208.6z"/>
	<path class="st4" d="M87.5,212l0.9-1.5c-0.4-0.1-0.6-0.3-0.6-0.7c0-0.2,0.1-0.4,0.2-0.5c0.1-0.1,0.3-0.2,0.5-0.2
		c0.2,0,0.4,0.1,0.5,0.2c0.1,0.1,0.2,0.3,0.2,0.6c0,0.3-0.1,0.6-0.3,0.9l-0.7,1.2H87.5z"/>
	<path class="st4" d="M96.1,205.8c-0.6,0-1.1,0.2-1.5,0.7h-0.9v-4.7h4.7v1h-3.8v2.6c0.4-0.4,0.9-0.5,1.6-0.5c0.8,0,1.4,0.3,1.9,0.8
		c0.5,0.5,0.8,1.2,0.8,2.1c0,0.8-0.3,1.5-0.8,2c-0.5,0.5-1.2,0.8-2,0.8c-0.8,0-1.5-0.2-2-0.7c-0.5-0.5-0.8-1.1-0.9-1.9h1.1
		c0.2,1.1,0.8,1.6,1.9,1.6c0.5,0,0.9-0.2,1.3-0.5s0.5-0.8,0.5-1.4s-0.2-1-0.5-1.4S96.7,205.8,96.1,205.8z"/>
	<path class="st4" d="M100.6,208.9v-3.8h-1v-0.9h1v-1.6h1.1v1.6h1.5v0.9h-1.5v3.6c0,0.6,0.3,0.9,0.8,0.9c0.3,0,0.6-0.1,0.8-0.3v1
		c-0.3,0.1-0.6,0.2-1,0.2c-0.5,0-0.9-0.1-1.2-0.4C100.8,209.9,100.6,209.5,100.6,208.9z"/>
	<path class="st4" d="M104.8,210.5v-9.1h1v3.7c0.2-0.3,0.5-0.5,0.8-0.7c0.3-0.2,0.7-0.3,1.1-0.3c0.7,0,1.2,0.2,1.6,0.6
		c0.4,0.4,0.6,1,0.6,1.7v4.1h-1.1v-3.9c0-0.4-0.1-0.8-0.3-1.1c-0.2-0.3-0.6-0.4-1-0.4c-0.4,0-0.7,0.1-1,0.3
		c-0.3,0.2-0.5,0.5-0.6,0.8v4.2H104.8z"/>
	<path class="st4" d="M119.2,210.5h-1V210c-0.1,0.1-0.4,0.3-0.7,0.4c-0.3,0.1-0.6,0.2-1,0.2c-0.7,0-1.2-0.2-1.6-0.5
		c-0.4-0.4-0.7-0.8-0.7-1.4c0-0.6,0.2-1,0.7-1.4c0.5-0.4,1-0.5,1.7-0.5c0.3,0,0.6,0.1,0.9,0.2s0.5,0.2,0.7,0.3v-0.8
		c0-0.4-0.1-0.7-0.4-1c-0.2-0.2-0.6-0.4-1-0.4c-0.7,0-1.1,0.3-1.3,0.9h-1c0.1-0.5,0.4-0.9,0.8-1.3c0.4-0.3,0.9-0.5,1.5-0.5
		c0.7,0,1.3,0.2,1.7,0.6c0.4,0.4,0.6,0.9,0.6,1.6V210.5z M118.2,208.9v-0.6c-0.1-0.2-0.3-0.4-0.6-0.6c-0.3-0.1-0.6-0.2-0.9-0.2
		c-0.4,0-0.8,0.1-1,0.3c-0.3,0.2-0.4,0.5-0.4,0.8c0,0.4,0.1,0.6,0.4,0.8c0.3,0.2,0.6,0.3,1,0.3c0.3,0,0.6-0.1,0.9-0.2
		C117.9,209.3,118.1,209.1,118.2,208.9z"/>
	<path class="st4" d="M121,210.5v-6.2h1v0.8c0.2-0.3,0.5-0.5,0.8-0.7c0.3-0.2,0.7-0.3,1.1-0.3c0.7,0,1.2,0.2,1.6,0.6
		c0.4,0.4,0.6,1,0.6,1.7v4.1H125v-3.9c0-0.4-0.1-0.8-0.3-1.1c-0.2-0.3-0.6-0.4-1-0.4c-0.4,0-0.7,0.1-1,0.3c-0.3,0.2-0.5,0.5-0.6,0.8
		v4.2H121z"/>
	<path class="st4" d="M131.9,210.5v-0.7c-0.2,0.2-0.4,0.4-0.7,0.6s-0.7,0.2-1,0.2c-0.9,0-1.6-0.3-2.1-0.9s-0.7-1.4-0.7-2.3
		c0-0.9,0.2-1.7,0.7-2.3c0.5-0.6,1.2-0.9,2.1-0.9c0.4,0,0.7,0.1,1,0.2s0.6,0.4,0.7,0.6v-3.6h1.1v9.1H131.9z M131.9,208.6v-2.5
		c-0.2-0.3-0.4-0.6-0.7-0.7c-0.3-0.2-0.6-0.3-0.9-0.3c-0.6,0-1,0.2-1.4,0.6s-0.5,1-0.5,1.6c0,0.7,0.2,1.2,0.5,1.6s0.8,0.6,1.4,0.6
		c0.3,0,0.6-0.1,0.9-0.3C131.6,209.2,131.8,208.9,131.9,208.6z"/>
	<path class="st4" d="M137.6,208.5h1.1c0.3,0.8,0.8,1.2,1.6,1.2c0.6,0,1.1-0.3,1.6-0.9c0.4-0.6,0.6-1.4,0.6-2.3c0,0,0-0.1,0-0.2
		c0-0.1,0-0.2,0-0.2c-0.1,0.4-0.4,0.8-0.8,1.1s-0.9,0.4-1.4,0.4c-0.8,0-1.5-0.3-2-0.8c-0.5-0.6-0.8-1.2-0.8-2c0-0.8,0.3-1.5,0.8-2.1
		c0.5-0.6,1.2-0.8,2.1-0.8c1.2,0,2,0.5,2.6,1.6c0.3,0.7,0.5,1.6,0.5,2.6c0,1.4-0.3,2.5-0.9,3.3c-0.6,0.8-1.3,1.3-2.3,1.3
		C138.9,210.6,138,209.9,137.6,208.5z M142.2,204.6c0-0.6-0.2-1-0.5-1.4c-0.3-0.4-0.8-0.5-1.3-0.5c-0.5,0-1,0.2-1.3,0.5
		s-0.5,0.8-0.5,1.4s0.2,1,0.5,1.4c0.3,0.4,0.8,0.6,1.3,0.6c0.6,0,1-0.2,1.3-0.5C142.1,205.7,142.2,205.2,142.2,204.6z"/>
	<path class="st4" d="M145.3,208.9v-3.8h-1v-0.9h1v-1.6h1.1v1.6h1.5v0.9h-1.5v3.6c0,0.6,0.3,0.9,0.8,0.9c0.3,0,0.6-0.1,0.8-0.3v1
		c-0.3,0.1-0.6,0.2-1,0.2c-0.5,0-0.9-0.1-1.2-0.4C145.4,209.9,145.3,209.5,145.3,208.9z"/>
	<path class="st4" d="M149.4,210.5v-9.1h1v3.7c0.2-0.3,0.5-0.5,0.8-0.7c0.3-0.2,0.7-0.3,1.1-0.3c0.7,0,1.2,0.2,1.6,0.6
		c0.4,0.4,0.6,1,0.6,1.7v4.1h-1.1v-3.9c0-0.4-0.1-0.8-0.3-1.1c-0.2-0.3-0.6-0.4-1-0.4c-0.4,0-0.7,0.1-1,0.3
		c-0.3,0.2-0.5,0.5-0.6,0.8v4.2H149.4z"/>
	<path class="st4" d="M159.7,209.7c-0.5-0.6-0.8-1.4-0.8-2.3c0-1,0.3-1.7,0.8-2.3c0.5-0.6,1.2-0.9,2-0.9c0.7,0,1.2,0.2,1.7,0.5
		c0.4,0.4,0.7,0.8,0.8,1.5h-1.1c-0.1-0.3-0.2-0.6-0.5-0.8c-0.2-0.2-0.6-0.3-0.9-0.3c-0.5,0-1,0.2-1.3,0.6c-0.3,0.4-0.5,1-0.5,1.7
		c0,0.7,0.2,1.2,0.5,1.7c0.3,0.4,0.7,0.6,1.3,0.6c0.4,0,0.7-0.1,0.9-0.3c0.2-0.2,0.4-0.5,0.5-0.8h1.1c-0.1,0.6-0.4,1.1-0.8,1.5
		c-0.4,0.4-1,0.5-1.7,0.5C160.9,210.6,160.2,210.3,159.7,209.7z"/>
	<path class="st4" d="M165.6,210.5v-9.1h1v3.7c0.2-0.3,0.5-0.5,0.8-0.7c0.3-0.2,0.7-0.3,1.1-0.3c0.7,0,1.2,0.2,1.6,0.6
		c0.4,0.4,0.6,1,0.6,1.7v4.1h-1.1v-3.9c0-0.4-0.1-0.8-0.3-1.1c-0.2-0.3-0.6-0.4-1-0.4c-0.4,0-0.7,0.1-1,0.3
		c-0.3,0.2-0.5,0.5-0.6,0.8v4.2H165.6z"/>
	<path class="st4" d="M176.9,210.5h-1V210c-0.1,0.1-0.4,0.3-0.7,0.4c-0.3,0.1-0.6,0.2-1,0.2c-0.7,0-1.2-0.2-1.6-0.5
		c-0.4-0.4-0.7-0.8-0.7-1.4c0-0.6,0.2-1,0.7-1.4c0.5-0.4,1-0.5,1.7-0.5c0.3,0,0.6,0.1,0.9,0.2s0.5,0.2,0.7,0.3v-0.8
		c0-0.4-0.1-0.7-0.4-1c-0.2-0.2-0.6-0.4-1-0.4c-0.7,0-1.1,0.3-1.3,0.9h-1c0.1-0.5,0.4-0.9,0.8-1.3c0.4-0.3,0.9-0.5,1.5-0.5
		c0.7,0,1.3,0.2,1.7,0.6c0.4,0.4,0.6,0.9,0.6,1.6V210.5z M175.9,208.9v-0.6c-0.1-0.2-0.3-0.4-0.6-0.6c-0.3-0.1-0.6-0.2-0.9-0.2
		c-0.4,0-0.8,0.1-1,0.3c-0.3,0.2-0.4,0.5-0.4,0.8c0,0.4,0.1,0.6,0.4,0.8c0.3,0.2,0.6,0.3,1,0.3c0.3,0,0.6-0.1,0.9-0.2
		C175.7,209.3,175.8,209.1,175.9,208.9z"/>
	<path class="st4" d="M181.9,204.2v1.1c-0.2-0.1-0.4-0.2-0.7-0.2c-0.3,0-0.6,0.1-0.9,0.3c-0.3,0.2-0.4,0.5-0.5,0.9v4.2h-1v-6.2h1
		v0.8c0.1-0.3,0.3-0.5,0.6-0.7c0.3-0.2,0.6-0.3,0.9-0.3C181.6,204.1,181.8,204.2,181.9,204.2z"/>
	<path class="st4" d="M187.6,210.5h-1V210c-0.1,0.1-0.4,0.3-0.7,0.4c-0.3,0.1-0.6,0.2-1,0.2c-0.7,0-1.2-0.2-1.6-0.5
		c-0.4-0.4-0.7-0.8-0.7-1.4c0-0.6,0.2-1,0.7-1.4c0.5-0.4,1-0.5,1.7-0.5c0.3,0,0.6,0.1,0.9,0.2s0.5,0.2,0.7,0.3v-0.8
		c0-0.4-0.1-0.7-0.4-1c-0.2-0.2-0.6-0.4-1-0.4c-0.7,0-1.1,0.3-1.3,0.9h-1c0.1-0.5,0.4-0.9,0.8-1.3c0.4-0.3,0.9-0.5,1.5-0.5
		c0.7,0,1.3,0.2,1.7,0.6c0.4,0.4,0.6,0.9,0.6,1.6V210.5z M186.6,208.9v-0.6c-0.1-0.2-0.3-0.4-0.6-0.6c-0.3-0.1-0.6-0.2-0.9-0.2
		c-0.4,0-0.8,0.1-1,0.3c-0.3,0.2-0.4,0.5-0.4,0.8c0,0.4,0.1,0.6,0.4,0.8c0.3,0.2,0.6,0.3,1,0.3c0.3,0,0.6-0.1,0.9-0.2
		C186.3,209.3,186.5,209.1,186.6,208.9z"/>
	<path class="st4" d="M189.7,209.7c-0.5-0.6-0.8-1.4-0.8-2.3c0-1,0.3-1.7,0.8-2.3c0.5-0.6,1.2-0.9,2-0.9c0.7,0,1.2,0.2,1.7,0.5
		c0.4,0.4,0.7,0.8,0.8,1.5h-1.1c-0.1-0.3-0.2-0.6-0.5-0.8c-0.2-0.2-0.6-0.3-0.9-0.3c-0.5,0-1,0.2-1.3,0.6c-0.3,0.4-0.5,1-0.5,1.7
		c0,0.7,0.2,1.2,0.5,1.7c0.3,0.4,0.7,0.6,1.3,0.6c0.4,0,0.7-0.1,0.9-0.3c0.2-0.2,0.4-0.5,0.5-0.8h1.1c-0.1,0.6-0.4,1.1-0.8,1.5
		c-0.4,0.4-1,0.5-1.7,0.5C190.9,210.6,190.2,210.3,189.7,209.7z"/>
	<path class="st4" d="M195.9,208.9v-3.8h-1v-0.9h1v-1.6h1.1v1.6h1.5v0.9H197v3.6c0,0.6,0.3,0.9,0.8,0.9c0.3,0,0.6-0.1,0.8-0.3v1
		c-0.3,0.1-0.6,0.2-1,0.2c-0.5,0-0.9-0.1-1.2-0.4C196.1,209.9,195.9,209.5,195.9,208.9z"/>
	<path class="st4" d="M203.9,208.6h1c-0.1,0.6-0.4,1.1-0.8,1.4s-1,0.5-1.7,0.5c-0.8,0-1.5-0.3-2.1-0.9s-0.8-1.4-0.8-2.3
		c0-0.9,0.3-1.7,0.8-2.3c0.5-0.6,1.2-0.9,2-0.9c0.8,0,1.5,0.3,1.9,0.8c0.5,0.6,0.7,1.3,0.7,2.2v0.4h-4.4c0,0.7,0.2,1.2,0.5,1.6
		c0.3,0.4,0.8,0.6,1.3,0.6c0.4,0,0.7-0.1,1-0.3S203.8,208.9,203.9,208.6z M202.4,205c-0.5,0-0.9,0.2-1.2,0.5
		c-0.3,0.3-0.5,0.7-0.6,1.3h3.3c0-0.5-0.1-0.9-0.4-1.2C203.3,205.2,202.9,205,202.4,205z"/>
	<path class="st4" d="M209.6,204.2v1.1c-0.2-0.1-0.4-0.2-0.7-0.2c-0.3,0-0.6,0.1-0.9,0.3c-0.3,0.2-0.4,0.5-0.5,0.9v4.2h-1v-6.2h1
		v0.8c0.1-0.3,0.3-0.5,0.6-0.7c0.3-0.2,0.6-0.3,0.9-0.3C209.3,204.1,209.5,204.2,209.6,204.2z"/>
	<path class="st4" d="M210.3,208.8h1.1c0.2,0.6,0.7,1,1.5,1c0.4,0,0.7-0.1,0.9-0.2c0.2-0.2,0.4-0.4,0.4-0.7c0-0.4-0.3-0.7-0.9-0.9
		l-1.2-0.3c-1-0.3-1.5-0.8-1.5-1.6c0-0.5,0.2-1,0.6-1.3s1-0.5,1.6-0.5c0.7,0,1.2,0.2,1.6,0.5c0.4,0.3,0.7,0.7,0.8,1.3h-1
		c-0.2-0.6-0.6-0.9-1.4-0.9c-0.3,0-0.6,0.1-0.8,0.2c-0.2,0.2-0.3,0.4-0.3,0.7c0,0.2,0.1,0.4,0.2,0.5c0.1,0.1,0.4,0.2,0.7,0.3
		l1.2,0.3c1.1,0.3,1.6,0.9,1.6,1.7c0,0.6-0.2,1-0.6,1.4c-0.4,0.3-1,0.5-1.7,0.5s-1.3-0.2-1.7-0.5
		C210.7,209.8,210.4,209.3,210.3,208.8z"/>
	<path class="st4" d="M222.9,201.4v1c-0.2-0.1-0.4-0.2-0.7-0.2c-0.3,0-0.6,0.1-0.7,0.3s-0.3,0.5-0.3,0.8v1h1.4v0.9h-1.4v5.3h-1v-5.3
		h-1.1v-0.9h1.1v-1c0-0.6,0.2-1.1,0.5-1.4c0.4-0.4,0.8-0.5,1.4-0.5C222.4,201.2,222.6,201.3,222.9,201.4z"/>
	<path class="st4" d="M227,204.2v1.1c-0.2-0.1-0.4-0.2-0.7-0.2c-0.3,0-0.6,0.1-0.9,0.3c-0.3,0.2-0.4,0.5-0.5,0.9v4.2h-1v-6.2h1v0.8
		c0.1-0.3,0.3-0.5,0.6-0.7c0.3-0.2,0.6-0.3,0.9-0.3C226.7,204.1,226.9,204.2,227,204.2z"/>
	<path class="st4" d="M232.6,205c0.5,0.6,0.8,1.4,0.8,2.3c0,1-0.3,1.7-0.8,2.3c-0.5,0.6-1.2,0.9-2.1,0.9s-1.5-0.3-2.1-0.9
		c-0.5-0.6-0.8-1.4-0.8-2.3c0-1,0.3-1.7,0.8-2.3c0.5-0.6,1.2-0.9,2.1-0.9S232.1,204.4,232.6,205z M231.8,209c0.3-0.4,0.5-1,0.5-1.7
		c0-0.7-0.2-1.2-0.5-1.7c-0.3-0.4-0.8-0.6-1.3-0.6s-1,0.2-1.3,0.6c-0.3,0.4-0.5,1-0.5,1.7c0,0.7,0.2,1.2,0.5,1.7
		c0.3,0.4,0.8,0.6,1.3,0.6S231.5,209.5,231.8,209z"/>
	<path class="st4" d="M239.2,205.1c0.5-0.7,1.1-1,1.9-1c0.6,0,1.1,0.2,1.4,0.6s0.5,0.9,0.5,1.6v4.1H242v-3.9c0-0.4-0.1-0.8-0.3-1.1
		c-0.2-0.3-0.5-0.4-0.9-0.4c-0.3,0-0.6,0.1-0.9,0.3c-0.3,0.2-0.4,0.5-0.5,0.8v4.3h-1v-3.9c0-0.4-0.1-0.8-0.3-1.1s-0.5-0.4-0.9-0.4
		c-0.3,0-0.6,0.1-0.9,0.3c-0.3,0.2-0.4,0.5-0.5,0.8v4.3h-1v-6.2h1v0.7c0.4-0.6,0.9-0.9,1.7-0.9C238.3,204.1,238.9,204.5,239.2,205.1
		z"/>
	<path class="st4" d="M249.8,212.8h-1l0.9-2.3l-2.4-6.3h1.1l1.8,4.9l1.8-4.9h1.1L249.8,212.8z"/>
	<path class="st4" d="M258.7,205c0.5,0.6,0.8,1.4,0.8,2.3c0,1-0.3,1.7-0.8,2.3c-0.5,0.6-1.2,0.9-2.1,0.9c-0.8,0-1.5-0.3-2.1-0.9
		c-0.5-0.6-0.8-1.4-0.8-2.3c0-1,0.3-1.7,0.8-2.3c0.5-0.6,1.2-0.9,2.1-0.9C257.5,204.1,258.1,204.4,258.7,205z M257.9,209
		c0.3-0.4,0.5-1,0.5-1.7c0-0.7-0.2-1.2-0.5-1.7s-0.8-0.6-1.3-0.6c-0.6,0-1,0.2-1.3,0.6s-0.5,1-0.5,1.7c0,0.7,0.2,1.2,0.5,1.7
		s0.8,0.6,1.3,0.6C257.2,209.7,257.6,209.5,257.9,209z"/>
	<path class="st4" d="M265.8,204.2v6.2h-1.1v-0.8c-0.2,0.3-0.4,0.5-0.8,0.7c-0.3,0.2-0.7,0.3-1.1,0.3c-0.7,0-1.2-0.2-1.6-0.6
		c-0.4-0.4-0.6-1-0.6-1.7v-4.1h1.1v3.9c0,0.5,0.1,0.8,0.3,1.1c0.2,0.3,0.6,0.4,1,0.4c0.4,0,0.7-0.1,1-0.3c0.3-0.2,0.5-0.5,0.6-0.8
		v-4.2H265.8z"/>
	<path class="st4" d="M270.9,204.2v1.1c-0.2-0.1-0.4-0.2-0.7-0.2c-0.3,0-0.6,0.1-0.9,0.3c-0.3,0.2-0.4,0.5-0.5,0.9v4.2h-1v-6.2h1
		v0.8c0.1-0.3,0.3-0.5,0.6-0.7c0.3-0.2,0.6-0.3,0.9-0.3C270.6,204.1,270.8,204.2,270.9,204.2z"/>
</g>
<g class="st10">
	<path class="st4" d="M39.1,226.5v3.1h-1V221h1v0.7c0.2-0.2,0.4-0.4,0.7-0.6c0.3-0.2,0.7-0.2,1-0.2c0.9,0,1.6,0.3,2.1,0.9
		c0.5,0.6,0.7,1.4,0.7,2.3c0,0.9-0.2,1.7-0.7,2.3c-0.5,0.6-1.2,0.9-2.1,0.9c-0.4,0-0.7-0.1-1-0.2C39.5,227,39.3,226.8,39.1,226.5z
		 M39.1,222.9v2.5c0.2,0.3,0.4,0.6,0.7,0.7c0.3,0.2,0.6,0.3,0.9,0.3c0.6,0,1-0.2,1.4-0.6s0.5-1,0.5-1.6c0-0.7-0.2-1.2-0.5-1.6
		s-0.8-0.6-1.4-0.6c-0.3,0-0.6,0.1-0.9,0.3C39.5,222.3,39.3,222.6,39.1,222.9z"/>
	<path class="st4" d="M49.6,227.3h-1v-0.5c-0.1,0.1-0.4,0.3-0.7,0.4c-0.3,0.1-0.6,0.2-1,0.2c-0.7,0-1.2-0.2-1.6-0.5
		c-0.4-0.4-0.7-0.8-0.7-1.4c0-0.6,0.2-1,0.7-1.4c0.5-0.4,1-0.5,1.7-0.5c0.3,0,0.6,0.1,0.9,0.2s0.5,0.2,0.7,0.3v-0.8
		c0-0.4-0.1-0.7-0.4-1c-0.2-0.2-0.6-0.4-1-0.4c-0.7,0-1.1,0.3-1.3,0.9h-1c0.1-0.5,0.4-0.9,0.8-1.3c0.4-0.3,0.9-0.5,1.5-0.5
		c0.7,0,1.3,0.2,1.7,0.6c0.4,0.4,0.6,0.9,0.6,1.6V227.3z M48.6,225.7v-0.6c-0.1-0.2-0.3-0.4-0.6-0.6c-0.3-0.1-0.6-0.2-0.9-0.2
		c-0.4,0-0.8,0.1-1,0.3c-0.3,0.2-0.4,0.5-0.4,0.8c0,0.4,0.1,0.6,0.4,0.8c0.3,0.2,0.6,0.3,1,0.3c0.3,0,0.6-0.1,0.9-0.2
		C48.3,226.1,48.5,225.9,48.6,225.7z"/>
	<path class="st4" d="M50.9,225.6H52c0.2,0.6,0.7,1,1.5,1c0.4,0,0.7-0.1,0.9-0.2c0.2-0.2,0.4-0.4,0.4-0.7c0-0.4-0.3-0.7-0.9-0.9
		l-1.2-0.3c-1-0.3-1.5-0.8-1.5-1.6c0-0.5,0.2-1,0.6-1.3s1-0.5,1.6-0.5c0.7,0,1.2,0.2,1.6,0.5c0.4,0.3,0.7,0.7,0.8,1.3h-1
		c-0.2-0.6-0.6-0.9-1.4-0.9c-0.3,0-0.6,0.1-0.8,0.2c-0.2,0.2-0.4,0.4-0.4,0.7c0,0.2,0.1,0.4,0.2,0.5c0.1,0.1,0.4,0.2,0.7,0.3
		l1.2,0.3c1.1,0.3,1.6,0.9,1.6,1.7c0,0.6-0.2,1-0.6,1.4s-1,0.5-1.7,0.5c-0.7,0-1.3-0.2-1.7-0.5C51.3,226.6,51,226.1,50.9,225.6z"/>
	<path class="st4" d="M56.7,225.6h1.1c0.2,0.6,0.7,1,1.5,1c0.4,0,0.7-0.1,0.9-0.2c0.2-0.2,0.4-0.4,0.4-0.7c0-0.4-0.3-0.7-0.9-0.9
		l-1.2-0.3c-1-0.3-1.5-0.8-1.5-1.6c0-0.5,0.2-1,0.6-1.3s1-0.5,1.6-0.5c0.7,0,1.2,0.2,1.6,0.5c0.4,0.3,0.7,0.7,0.8,1.3h-1
		c-0.2-0.6-0.6-0.9-1.4-0.9c-0.3,0-0.6,0.1-0.8,0.2c-0.2,0.2-0.4,0.4-0.4,0.7c0,0.2,0.1,0.4,0.2,0.5c0.1,0.1,0.4,0.2,0.7,0.3
		l1.2,0.3c1.1,0.3,1.6,0.9,1.6,1.7c0,0.6-0.2,1-0.6,1.4s-1,0.5-1.7,0.5c-0.7,0-1.3-0.2-1.7-0.5C57.1,226.6,56.8,226.1,56.7,225.6z"
		/>
	<path class="st4" d="M66.9,221l1.3,4.7l1.4-4.7h1l-1.8,6.2h-1l-1.3-4.7l-1.3,4.7h-1l-1.8-6.2h1l1.4,4.7l1.3-4.7H66.9z"/>
	<path class="st4" d="M76.2,221.8c0.5,0.6,0.8,1.4,0.8,2.3c0,1-0.3,1.7-0.8,2.3c-0.5,0.6-1.2,0.9-2.1,0.9c-0.8,0-1.5-0.3-2.1-0.9
		c-0.5-0.6-0.8-1.4-0.8-2.3c0-1,0.3-1.7,0.8-2.3c0.5-0.6,1.2-0.9,2.1-0.9C75,220.9,75.7,221.2,76.2,221.8z M75.4,225.8
		c0.3-0.4,0.5-1,0.5-1.7c0-0.7-0.2-1.2-0.5-1.7c-0.3-0.4-0.8-0.6-1.3-0.6c-0.6,0-1,0.2-1.3,0.6c-0.3,0.4-0.5,1-0.5,1.7
		c0,0.7,0.2,1.2,0.5,1.7c0.3,0.4,0.8,0.6,1.3,0.6C74.7,226.5,75.1,226.3,75.4,225.8z"/>
	<path class="st4" d="M81.6,221v1.1c-0.2-0.1-0.4-0.2-0.7-0.2c-0.3,0-0.6,0.1-0.9,0.3c-0.3,0.2-0.4,0.5-0.5,0.9v4.2h-1V221h1v0.8
		c0.1-0.3,0.3-0.5,0.6-0.7c0.3-0.2,0.6-0.3,0.9-0.3C81.3,220.9,81.5,221,81.6,221z"/>
	<path class="st4" d="M86.8,227.3v-0.7c-0.2,0.2-0.4,0.4-0.7,0.6s-0.7,0.2-1,0.2c-0.9,0-1.6-0.3-2.1-0.9s-0.7-1.4-0.7-2.3
		c0-0.9,0.2-1.7,0.7-2.3c0.5-0.6,1.2-0.9,2.1-0.9c0.4,0,0.7,0.1,1,0.2s0.6,0.4,0.7,0.6v-3.6h1.1v9.1H86.8z M86.8,225.4v-2.5
		c-0.2-0.3-0.4-0.6-0.7-0.7c-0.3-0.2-0.6-0.3-0.9-0.3c-0.6,0-1,0.2-1.4,0.6s-0.5,1-0.5,1.6c0,0.7,0.2,1.2,0.5,1.6s0.8,0.6,1.4,0.6
		c0.3,0,0.6-0.1,0.9-0.3C86.5,226,86.7,225.7,86.8,225.4z"/>
</g>
<rect x="76" y="243.9" class="st9" width="21.6" height="21.6"/>
<rect x="112" y="243.9" class="st9" width="21.6" height="21.6"/>
<line class="st11" x1="12.3" y1="32.3" x2="405" y2="32.3"/>
<circle class="st9" cx="25.8" cy="22.8" r="3.4"/>
<circle class="st9" cx="38.3" cy="22.8" r="3.4"/>
<circle class="st9" cx="50" cy="22.8" r="3.4"/>
<rect x="12.9" y="13.1" class="st12" width="393.3" height="353.9"/>
<polyline class="st13" points="13.3,366 405.3,366 405.3,12.6 "/>
<g>
	<path class="st9" d="M134.7,331.9H57.1c-9.4,0-17.1-7.7-17.1-17.1l0,0c0-9.4,7.7-17.1,17.1-17.1h77.5c9.4,0,17.1,7.7,17.1,17.1l0,0
		C151.8,324.3,144.1,331.9,134.7,331.9z"/>
</g>
<g>
	<g class="st10">
		<path class="st14" d="M72.9,318.6c-0.7-0.8-1.1-1.9-1.1-3.2c0-1.3,0.4-2.4,1.1-3.2c0.7-0.8,1.6-1.2,2.8-1.2c0.9,0,1.6,0.2,2.2,0.7
			c0.6,0.5,1,1.1,1.1,1.9h-1.1c-0.4-1.1-1.1-1.7-2.3-1.7c-0.8,0-1.5,0.3-2,0.9s-0.8,1.5-0.8,2.5c0,1,0.3,1.8,0.8,2.5s1.2,1,2,1
			c1.1,0,1.9-0.6,2.3-1.7H79c-0.2,0.8-0.6,1.5-1.1,1.9c-0.6,0.5-1.3,0.7-2.2,0.7C74.6,319.8,73.7,319.4,72.9,318.6z"/>
		<path class="st14" d="M85,314.3c0.5,0.6,0.8,1.4,0.8,2.3c0,1-0.3,1.7-0.8,2.3c-0.5,0.6-1.2,0.9-2.1,0.9c-0.8,0-1.5-0.3-2.1-0.9
			c-0.5-0.6-0.8-1.4-0.8-2.3c0-1,0.3-1.7,0.8-2.3c0.5-0.6,1.2-0.9,2.1-0.9C83.8,313.4,84.5,313.7,85,314.3z M84.2,318.3
			c0.3-0.4,0.5-1,0.5-1.7c0-0.7-0.2-1.2-0.5-1.7c-0.3-0.4-0.8-0.6-1.3-0.6c-0.6,0-1,0.2-1.3,0.6c-0.3,0.4-0.5,1-0.5,1.7
			c0,0.7,0.2,1.2,0.5,1.7c0.3,0.4,0.8,0.6,1.3,0.6C83.5,318.9,83.9,318.7,84.2,318.3z"/>
		<path class="st14" d="M87.2,319.7v-6.2h1v0.8c0.2-0.3,0.5-0.5,0.8-0.7c0.3-0.2,0.7-0.3,1.1-0.3c0.7,0,1.2,0.2,1.6,0.6
			c0.4,0.4,0.6,1,0.6,1.7v4.1h-1.1v-3.9c0-0.4-0.1-0.8-0.3-1.1c-0.2-0.3-0.6-0.4-1-0.4c-0.4,0-0.7,0.1-1,0.3
			c-0.3,0.2-0.5,0.5-0.6,0.8v4.2H87.2z"/>
		<path class="st14" d="M94.3,318.1v-3.8h-1v-0.9h1v-1.6h1.1v1.6h1.5v0.9h-1.5v3.6c0,0.6,0.3,0.9,0.8,0.9c0.3,0,0.6-0.1,0.8-0.3v1
			c-0.3,0.1-0.6,0.2-1,0.2c-0.5,0-0.9-0.1-1.2-0.4C94.5,319.1,94.3,318.7,94.3,318.1z"/>
		<path class="st14" d="M99.5,311.1c0.1,0.1,0.2,0.3,0.2,0.5s-0.1,0.3-0.2,0.5s-0.3,0.2-0.5,0.2c-0.2,0-0.3-0.1-0.5-0.2
			c-0.1-0.1-0.2-0.3-0.2-0.5s0.1-0.3,0.2-0.5c0.1-0.1,0.3-0.2,0.5-0.2C99.2,310.9,99.3,311,99.5,311.1z M99.5,313.5v6.2h-1v-6.2
			H99.5z"/>
		<path class="st14" d="M101.4,319.7v-6.2h1v0.8c0.2-0.3,0.5-0.5,0.8-0.7c0.3-0.2,0.7-0.3,1.1-0.3c0.7,0,1.2,0.2,1.6,0.6
			c0.4,0.4,0.6,1,0.6,1.7v4.1h-1.1v-3.9c0-0.4-0.1-0.8-0.3-1.1c-0.2-0.3-0.6-0.4-1-0.4c-0.4,0-0.7,0.1-1,0.3
			c-0.3,0.2-0.5,0.5-0.6,0.8v4.2H101.4z"/>
		<path class="st14" d="M113.2,313.5v6.2h-1.1v-0.8c-0.2,0.3-0.4,0.5-0.8,0.7c-0.3,0.2-0.7,0.3-1.1,0.3c-0.7,0-1.2-0.2-1.6-0.6
			c-0.4-0.4-0.6-1-0.6-1.7v-4.1h1.1v3.9c0,0.5,0.1,0.8,0.3,1.1c0.2,0.3,0.6,0.4,1,0.4c0.4,0,0.7-0.1,1-0.3s0.5-0.5,0.6-0.8v-4.2
			H113.2z"/>
		<path class="st14" d="M119,317.8h1c-0.1,0.6-0.4,1.1-0.8,1.4s-1,0.5-1.7,0.5c-0.8,0-1.5-0.3-2.1-0.9s-0.8-1.4-0.8-2.3
			c0-0.9,0.3-1.7,0.8-2.3c0.5-0.6,1.2-0.9,2-0.9c0.8,0,1.5,0.3,1.9,0.8c0.5,0.6,0.7,1.3,0.7,2.2v0.4h-4.4c0,0.7,0.2,1.2,0.5,1.6
			c0.3,0.4,0.8,0.6,1.3,0.6c0.4,0,0.7-0.1,1-0.3S118.9,318.2,119,317.8z M117.5,314.3c-0.5,0-0.9,0.2-1.2,0.5
			c-0.3,0.3-0.5,0.7-0.6,1.3h3.3c0-0.5-0.1-0.9-0.4-1.2C118.3,314.4,118,314.3,117.5,314.3z"/>
	</g>
</g>
<circle class="st9" cx="189.1" cy="-54.7" r="25.4"/>
<circle class="st9" cx="217.9" cy="-62.3" r="3.4"/>
</svg>
