<?xml version="1.0" encoding="utf-8"?>
<!-- Generator: Adobe Illustrator 19.1.0, SVG Export Plug-In . SVG Version: 6.00 Build 0)  -->
<svg version="1.1" preserveAspectRatio="xMinYMid" id="Layer_1" xmlns="http://www.w3.org/2000/svg" xmlns:xlink="http://www.w3.org/1999/xlink" x="0px" y="0px"
	 viewBox="0 0 415.2 375.1" style="enable-background:new 0 0 415.2 375.1;" xml:space="preserve">
<style type="text/css">
	.st0{fill:#FFFFFF;}
	.st1{fill:none;stroke:#1D1D1B;stroke-width:2;stroke-miterlimit:10;}
	.st2{fill:#ECECEC;}
	.st3{fill:none;}
	.st4{fill:#1D1D1B;}
	.st5{fill:#000101;stroke:#000101;stroke-width:0.8322;stroke-miterlimit:10;}
	.st6{fill:#3A50A2;}
	.st7{fill:none;stroke:#1D1D1B;stroke-miterlimit:10;}
	.st8{fill:#FFFFFF;stroke:#1D1D1B;stroke-miterlimit:10;}
</style>
<g>
	
		<image style="overflow:visible;opacity:0.49;" width="1730" height="1563" xlink:href="D4FF71B7607F257D.png"  transform="matrix(0.24 0 0 0.24 0 0)">
	</image>
	<g>
		<path class="st0" d="M409.4,355.3c0,2.7-2.2,4.9-4.9,4.9H19.7c-2.7,0-4.9-2.2-4.9-4.9V10.5c0-2.7,2.2-4.9,4.9-4.9h384.9
			c2.7,0,4.9,2.2,4.9,4.9V355.3z"/>
		<path class="st1" d="M409.4,355.3c0,2.7-2.2,4.9-4.9,4.9H19.7c-2.7,0-4.9-2.2-4.9-4.9V10.5c0-2.7,2.2-4.9,4.9-4.9h384.9
			c2.7,0,4.9,2.2,4.9,4.9V355.3z"/>
	</g>
</g>
<rect x="40.9" y="121.6" class="st2" width="202.4" height="21.6"/>
<g>
	<rect x="40.6" y="93.4" class="st3" width="262.6" height="35.2"/>
	<path class="st4" d="M49.8,103.3h-1l-2.2-8l-2.2,8h-1l-2.5-10h1.1l1.9,8l2.2-8h1l2.2,8l1.9-8h1.1L49.8,103.3z"/>
	<path class="st4" d="M58.2,103.3v-4.3c0-1.2-0.6-1.8-1.7-1.8s-1.7,0.6-1.7,1.8v4.3h-1v-10h1v3.8c0.5-0.6,1.2-0.8,1.9-0.8
		c1.6,0,2.5,1,2.5,2.5v4.4H58.2z"/>
	<path class="st4" d="M65.6,103.3v-0.7c-0.6,0.6-1.1,0.7-2,0.7c-1,0-1.5-0.2-1.9-0.6c-0.3-0.3-0.5-0.9-0.5-1.4c0-1.2,0.8-2,2.4-2
		h2.1v-0.7c0-1-0.5-1.5-1.8-1.5c-0.9,0-1.3,0.2-1.7,0.8l-0.7-0.6c0.6-0.8,1.3-1,2.4-1c1.8,0,2.8,0.8,2.8,2.3v4.7H65.6z M65.6,100.1
		h-1.9c-1,0-1.5,0.4-1.5,1.2s0.5,1.2,1.6,1.2c0.6,0,1.1,0,1.5-0.5c0.2-0.2,0.4-0.6,0.4-1.2V100.1z"/>
	<path class="st4" d="M71,103.3c-1.2,0-1.8-0.8-1.8-1.8v-4.2h-0.9v-0.8h0.9v-2.2h1v2.2h1.5v0.8h-1.5v4.2c0,0.6,0.3,1,0.9,1h0.5v0.9
		H71z"/>
	<path class="st4" d="M77.1,94.5v-1.1h1.1v1.1H77.1z M77.2,103.3v-6.9h1v6.9H77.2z"/>
	<path class="st4" d="M82.9,103.4c-1.2,0-2.1-0.3-2.8-1l0.7-0.7c0.5,0.6,1.3,0.8,2.1,0.8c1.1,0,1.8-0.4,1.8-1.2c0-0.6-0.4-0.9-1.1-1
		l-1.1-0.1c-1.3-0.1-2.1-0.7-2.1-1.8c0-1.3,1.1-2,2.5-2c1,0,1.9,0.2,2.5,0.7l-0.7,0.7c-0.5-0.4-1.1-0.5-1.8-0.5
		c-1,0-1.5,0.4-1.5,1.1c0,0.6,0.3,0.9,1.2,1l1.1,0.1c1.2,0.1,2,0.6,2,1.9C85.7,102.6,84.5,103.4,82.9,103.4z"/>
	<path class="st4" d="M92.8,105c-0.1,0.4-0.3,0.6-0.5,0.8c-0.4,0.4-0.9,0.5-1.3,0.5h-0.4v-0.9h0.3c0.7,0,0.9-0.2,1.1-0.9l0.5-1.3
		L90,96.4h1.1L93,102l1.9-5.5H96L92.8,105z"/>
	<path class="st4" d="M101.7,102.6c-0.5,0.5-1.1,0.8-2,0.8s-1.5-0.3-2-0.8c-0.7-0.7-0.8-1.7-0.8-2.7s0.1-2,0.8-2.7
		c0.5-0.5,1.1-0.8,2-0.8s1.5,0.3,2,0.8c0.7,0.7,0.8,1.7,0.8,2.7S102.4,101.9,101.7,102.6z M101,97.8c-0.3-0.3-0.8-0.5-1.3-0.5
		s-0.9,0.2-1.2,0.5c-0.5,0.5-0.6,1.4-0.6,2.1s0.1,1.6,0.6,2.1c0.3,0.3,0.8,0.5,1.2,0.5s0.9-0.2,1.3-0.5c0.5-0.5,0.5-1.4,0.5-2.1
		S101.5,98.3,101,97.8z"/>
	<path class="st4" d="M109,103.3v-0.8c-0.5,0.6-1.2,0.9-1.9,0.9c-0.7,0-1.4-0.2-1.8-0.6c-0.5-0.5-0.7-1.1-0.7-1.9v-4.4h1v4.2
		c0,1.2,0.6,1.8,1.7,1.8c1,0,1.7-0.6,1.7-1.8v-4.2h1v6.9H109z"/>
	<path class="st4" d="M116.4,97.8c-0.4-0.4-0.7-0.5-1.2-0.5c-1,0-1.7,0.8-1.7,1.8v4.2h-1v-6.9h1v0.8c0.4-0.6,1.1-0.9,1.9-0.9
		c0.7,0,1.2,0.2,1.7,0.6L116.4,97.8z"/>
	<path class="st4" d="M130.8,103.3v-4.2c0-1.2-0.7-1.8-1.7-1.8c-1,0-1.7,0.6-1.7,1.7v4.4h-1v-4.2c0-1.2-0.7-1.8-1.7-1.8
		s-1.7,0.6-1.7,1.8v4.2h-1v-6.9h1v0.8c0.5-0.6,1.2-0.8,1.9-0.8c1,0,1.7,0.4,2.1,1.1c0.5-0.8,1.3-1.1,2.3-1.1c0.7,0,1.4,0.2,1.8,0.6
		c0.5,0.5,0.7,1.1,0.7,1.9v4.4H130.8z"/>
	<path class="st4" d="M138.6,102.6c-0.5,0.5-1.1,0.8-2,0.8s-1.5-0.3-2-0.8c-0.7-0.7-0.8-1.7-0.8-2.7s0.1-2,0.8-2.7
		c0.5-0.5,1.1-0.8,2-0.8s1.5,0.3,2,0.8c0.7,0.7,0.8,1.7,0.8,2.7S139.3,101.9,138.6,102.6z M137.9,97.8c-0.3-0.3-0.8-0.5-1.3-0.5
		s-0.9,0.2-1.2,0.5c-0.5,0.5-0.6,1.4-0.6,2.1s0.1,1.6,0.6,2.1c0.3,0.3,0.8,0.5,1.2,0.5s0.9-0.2,1.3-0.5c0.5-0.5,0.5-1.4,0.5-2.1
		S138.4,98.3,137.9,97.8z"/>
	<path class="st4" d="M143.6,103.3c-1.2,0-1.8-0.8-1.8-1.8v-4.2h-0.9v-0.8h0.9v-2.2h1v2.2h1.5v0.8h-1.5v4.2c0,0.6,0.3,1,0.9,1h0.5
		v0.9H143.6z"/>
	<path class="st4" d="M150.7,103.3v-4.3c0-1.2-0.6-1.8-1.7-1.8s-1.7,0.6-1.7,1.8v4.3h-1v-10h1v3.8c0.5-0.6,1.2-0.8,1.9-0.8
		c1.6,0,2.5,1,2.5,2.5v4.4H150.7z"/>
	<path class="st4" d="M154.8,100.1c0,1.5,0.7,2.4,2,2.4c0.8,0,1.3-0.2,1.8-0.8l0.7,0.6c-0.7,0.7-1.3,1.1-2.5,1.1c-1.8,0-3-1.1-3-3.5
		c0-2.2,1.1-3.5,2.8-3.5c1.8,0,2.8,1.3,2.8,3.3v0.5H154.8z M158.2,98.2c-0.3-0.6-0.9-1-1.6-1s-1.3,0.4-1.6,1
		c-0.2,0.4-0.2,0.6-0.2,1.1h3.6C158.4,98.8,158.4,98.6,158.2,98.2z"/>
	<path class="st4" d="M165.4,97.8c-0.4-0.4-0.7-0.5-1.2-0.5c-1,0-1.7,0.8-1.7,1.8v4.2h-1v-6.9h1v0.8c0.4-0.6,1.1-0.9,1.9-0.9
		c0.7,0,1.2,0.2,1.7,0.6L165.4,97.8z"/>
	<path class="st4" d="M167.4,95.6v-2.3h1.2v1.2L167.4,95.6z"/>
	<path class="st4" d="M172.5,103.4c-1.2,0-2.1-0.3-2.8-1l0.7-0.7c0.5,0.6,1.3,0.8,2.1,0.8c1.1,0,1.8-0.4,1.8-1.2
		c0-0.6-0.4-0.9-1.1-1l-1.1-0.1c-1.3-0.1-2.1-0.7-2.1-1.8c0-1.3,1.1-2,2.5-2c1,0,1.9,0.2,2.5,0.7l-0.7,0.7c-0.5-0.4-1.1-0.5-1.8-0.5
		c-1,0-1.5,0.4-1.5,1.1c0,0.6,0.3,0.9,1.2,1l1.1,0.1c1.2,0.1,2,0.6,2,1.9C175.3,102.6,174.1,103.4,172.5,103.4z"/>
	<path class="st4" d="M189.6,103.3v-4.2c0-1.2-0.7-1.8-1.7-1.8c-1,0-1.7,0.6-1.7,1.7v4.4h-1v-4.2c0-1.2-0.7-1.8-1.7-1.8
		s-1.7,0.6-1.7,1.8v4.2h-1v-6.9h1v0.8c0.5-0.6,1.2-0.8,1.9-0.8c1,0,1.7,0.4,2.1,1.1c0.5-0.8,1.3-1.1,2.3-1.1c0.7,0,1.4,0.2,1.8,0.6
		c0.5,0.5,0.7,1.1,0.7,1.9v4.4H189.6z"/>
	<path class="st4" d="M197,103.3v-0.7c-0.6,0.6-1.1,0.7-2,0.7c-1,0-1.5-0.2-1.9-0.6c-0.3-0.3-0.5-0.9-0.5-1.4c0-1.2,0.8-2,2.4-2h2.1
		v-0.7c0-1-0.5-1.5-1.8-1.5c-0.9,0-1.3,0.2-1.7,0.8l-0.7-0.6c0.6-0.8,1.3-1,2.4-1c1.8,0,2.8,0.8,2.8,2.3v4.7H197z M197,100.1H195
		c-1,0-1.5,0.4-1.5,1.2s0.5,1.2,1.6,1.2c0.6,0,1.1,0,1.5-0.5c0.2-0.2,0.4-0.6,0.4-1.2V100.1z"/>
	<path class="st4" d="M200.4,94.5v-1.1h1.1v1.1H200.4z M200.4,103.3v-6.9h1v6.9H200.4z"/>
	<path class="st4" d="M208.1,103.3v-0.8c-0.6,0.7-1.2,0.9-2,0.9c-0.7,0-1.3-0.2-1.7-0.6c-0.7-0.7-0.8-1.8-0.8-2.9s0.1-2.2,0.8-2.9
		c0.4-0.4,1-0.6,1.7-0.6c0.8,0,1.4,0.2,1.9,0.9v-3.9h1v10H208.1z M206.3,97.2c-1.5,0-1.7,1.3-1.7,2.6s0.2,2.6,1.7,2.6
		c1.5,0,1.7-1.3,1.7-2.6S207.8,97.2,206.3,97.2z"/>
	<path class="st4" d="M212.2,100.1c0,1.5,0.7,2.4,2,2.4c0.8,0,1.3-0.2,1.8-0.8l0.7,0.6c-0.7,0.7-1.3,1.1-2.5,1.1c-1.8,0-3-1.1-3-3.5
		c0-2.2,1.1-3.5,2.8-3.5c1.8,0,2.8,1.3,2.8,3.3v0.5H212.2z M215.6,98.2c-0.3-0.6-0.9-1-1.6-1c-0.7,0-1.3,0.4-1.6,1
		c-0.2,0.4-0.2,0.6-0.2,1.1h3.6C215.8,98.8,215.8,98.6,215.6,98.2z"/>
	<path class="st4" d="M223.4,103.3v-4.2c0-1.2-0.7-1.8-1.7-1.8s-1.7,0.6-1.7,1.8v4.2h-1v-6.9h1v0.8c0.5-0.6,1.2-0.8,1.9-0.8
		c0.7,0,1.3,0.2,1.8,0.6c0.5,0.5,0.7,1.1,0.7,1.9v4.4H223.4z"/>
	<path class="st4" d="M234.8,103.3v-4.2c0-1.2-0.7-1.8-1.7-1.8c-1,0-1.7,0.6-1.7,1.8v4.2h-1v-6.9h1v0.8c0.5-0.6,1.2-0.8,1.9-0.8
		c0.7,0,1.3,0.2,1.8,0.6c0.5,0.5,0.7,1.1,0.7,1.9v4.4H234.8z"/>
	<path class="st4" d="M242.1,103.3v-0.7c-0.6,0.6-1.1,0.7-2,0.7c-1,0-1.5-0.2-1.9-0.6c-0.3-0.3-0.5-0.9-0.5-1.4c0-1.2,0.8-2,2.4-2
		h2.1v-0.7c0-1-0.5-1.5-1.8-1.5c-0.9,0-1.3,0.2-1.7,0.8l-0.7-0.6c0.6-0.8,1.3-1,2.4-1c1.8,0,2.8,0.8,2.8,2.3v4.7H242.1z
		 M242.1,100.1h-1.9c-1,0-1.5,0.4-1.5,1.2s0.5,1.2,1.6,1.2c0.6,0,1.1,0,1.5-0.5c0.2-0.2,0.4-0.6,0.4-1.2V100.1z"/>
	<path class="st4" d="M254.4,103.3v-4.2c0-1.2-0.7-1.8-1.7-1.8c-1,0-1.7,0.6-1.7,1.7v4.4h-1v-4.2c0-1.2-0.7-1.8-1.7-1.8
		c-1,0-1.7,0.6-1.7,1.8v4.2h-1v-6.9h1v0.8c0.5-0.6,1.2-0.8,1.9-0.8c1,0,1.7,0.4,2.1,1.1c0.5-0.8,1.3-1.1,2.3-1.1
		c0.7,0,1.4,0.2,1.8,0.6c0.5,0.5,0.7,1.1,0.7,1.9v4.4H254.4z"/>
	<path class="st4" d="M258.5,100.1c0,1.5,0.7,2.4,2,2.4c0.8,0,1.3-0.2,1.8-0.8l0.7,0.6c-0.7,0.7-1.3,1.1-2.5,1.1c-1.8,0-3-1.1-3-3.5
		c0-2.2,1.1-3.5,2.8-3.5c1.8,0,2.8,1.3,2.8,3.3v0.5H258.5z M262,98.2c-0.3-0.6-0.9-1-1.6-1s-1.3,0.4-1.6,1c-0.2,0.4-0.2,0.6-0.2,1.1
		h3.6C262.1,98.8,262.1,98.6,262,98.2z"/>
	<path class="st4" d="M269.7,97.5l-1.1,1.7c-0.2,0.3-0.3,0.6-0.3,0.8v0.5h-1V100c0-0.5,0.1-0.9,0.4-1.3l1.1-1.6
		c0.3-0.4,0.5-0.7,0.5-1.2c0-0.9-0.7-1.7-1.6-1.7c-1,0-1.6,0.8-1.6,1.7h-1c0-1.4,1.1-2.6,2.6-2.6c1.5,0,2.6,1.1,2.6,2.5
		C270.4,96.5,270.1,97,269.7,97.5z M267.2,103.3v-1.2h1.2v1.2H267.2z"/>
</g>
<g>
	<rect x="40.6" y="58.4" class="st3" width="33.9" height="26.6"/>
	<path class="st4" d="M45.8,73.3v-12l-3,2.6V61l3-2.6h2.7v14.9H45.8z"/>
	<path class="st4" d="M53.4,73.3v-3.1h3.1v3.1H53.4z"/>
</g>
<g>
	<rect x="40.6" y="167.4" class="st3" width="33.9" height="26.6"/>
	<path class="st4" d="M41.8,182.3v-2.5l5.6-6.5c0.5-0.7,0.8-1.1,0.8-1.8c0-1.1-0.7-1.9-1.8-1.9c-0.9,0-1.8,0.5-1.8,1.9h-2.7
		c0-2.7,2-4.4,4.6-4.4c2.6,0,4.5,1.7,4.5,4.3c0,1.4-0.6,2.2-1.6,3.4l-4.2,4.9h5.8v2.5H41.8z"/>
	<path class="st4" d="M53.4,182.3v-3.1h3.1v3.1H53.4z"/>
</g>
<g>
	<polygon class="st5" points="119.4,327.7 124.6,334.4 129.2,330.8 124,324.1 129.8,321.6 104.6,304.6 115.5,332.7 	"/>
</g>
<rect x="43.5" y="243.9" class="st2" width="21.6" height="21.6"/>
<g>
	<path class="st6" d="M91.4,315.8c0,2.8-2.3,5.1-5.1,5.1H47.7c-2.8,0-5.1-2.3-5.1-5.1v-18c0-2.8,2.3-5.1,5.1-5.1h38.6
		c2.8,0,5.1,2.3,5.1,5.1V315.8z"/>
</g>
<g>
	<path class="st0" d="M60.2,310.7l-3.9-6v6H55v-8.5h1.2l3.9,6v-6h1.3v8.5H60.2z"/>
	<path class="st0" d="M64.4,308c0,1,0.6,1.7,1.5,1.7c0.7,0,1-0.2,1.5-0.6l0.8,0.7c-0.6,0.6-1.2,0.9-2.3,0.9c-1.5,0-2.7-0.8-2.7-3.1
		c0-2,1-3.1,2.6-3.1c1.6,0,2.6,1.2,2.6,2.9v0.5H64.4z M67,306.3c-0.2-0.5-0.6-0.8-1.2-0.8c-0.6,0-1,0.3-1.2,0.8
		c-0.1,0.3-0.1,0.5-0.2,0.8h2.7C67.2,306.8,67.1,306.6,67,306.3z"/>
	<path class="st0" d="M73.2,310.7l-1.3-2.1l-1.3,2.1h-1.5l2.1-3.1l-2-3h1.5l1.2,2l1.2-2h1.5l-2,3l2.1,3.1H73.2z"/>
	<path class="st0" d="M77.8,310.7c-1.1,0-1.7-0.8-1.7-1.7v-3.3h-0.7v-0.9h0.7v-1.8h1.2v1.8h1.2v0.9h-1.2v3.3c0,0.4,0.2,0.7,0.7,0.7
		h0.5v1H77.8z"/>
</g>
<g>
	<rect x="40.6" y="201.3" class="st3" width="262.6" height="35.2"/>
	<path class="st4" d="M42,211.3v-10h6.2v1h-5.1v3.5h4.4v1h-4.4v3.6h5.1v1H42z"/>
	<path class="st4" d="M54.6,211.3v-4.2c0-1.2-0.7-1.8-1.7-1.8s-1.7,0.6-1.7,1.8v4.2h-1v-6.9h1v0.8c0.5-0.6,1.2-0.8,1.9-0.8
		c0.7,0,1.3,0.2,1.8,0.6c0.5,0.5,0.7,1.1,0.7,1.9v4.4H54.6z"/>
	<path class="st4" d="M60,211.3c-1.2,0-1.8-0.8-1.8-1.8v-4.2h-0.9v-0.8h0.9v-2.2h1v2.2h1.5v0.8h-1.5v4.2c0,0.6,0.3,1,0.9,1h0.5v0.9
		H60z"/>
	<path class="st4" d="M63.3,208.1c0,1.5,0.7,2.4,2,2.4c0.8,0,1.3-0.2,1.8-0.8l0.7,0.6c-0.7,0.7-1.3,1.1-2.5,1.1c-1.8,0-3-1.1-3-3.5
		c0-2.2,1.1-3.5,2.8-3.5c1.8,0,2.8,1.3,2.8,3.3v0.5H63.3z M66.7,206.2c-0.3-0.6-0.9-1-1.6-1s-1.3,0.4-1.6,1
		c-0.2,0.4-0.2,0.6-0.2,1.1h3.6C66.9,206.8,66.9,206.6,66.7,206.2z"/>
	<path class="st4" d="M73.9,205.7c-0.4-0.4-0.7-0.5-1.2-0.5c-1,0-1.7,0.8-1.7,1.8v4.2h-1v-6.9h1v0.8c0.4-0.6,1.1-0.9,1.9-0.9
		c0.7,0,1.2,0.2,1.7,0.6L73.9,205.7z"/>
	<path class="st4" d="M81.7,211.4c-1.6,0-2.8-0.8-2.9-2.6h1c0.1,1.2,1,1.7,1.9,1.7c1.1,0,1.9-0.7,1.9-1.9c0-1.2-0.6-1.9-2-1.9h-0.2
		v-0.9h0.2c1.2,0,1.8-0.7,1.8-1.8c0-1.2-0.8-1.8-1.7-1.8c-1.1,0-1.7,0.6-1.8,1.7h-1c0.1-1.6,1.3-2.6,2.8-2.6c1.6,0,2.7,1.1,2.7,2.7
		c0,1.1-0.4,1.8-1.3,2.2c1,0.4,1.5,1.2,1.5,2.4C84.6,210.4,83.3,211.4,81.7,211.4z"/>
	<path class="st4" d="M90.6,205.7c-0.4-0.4-0.7-0.5-1.2-0.5c-1,0-1.7,0.8-1.7,1.8v4.2h-1v-6.9h1v0.8c0.4-0.6,1.1-0.9,1.9-0.9
		c0.7,0,1.2,0.2,1.7,0.6L90.6,205.7z"/>
	<path class="st4" d="M96.3,211.3v-0.8c-0.6,0.7-1.2,0.9-2,0.9c-0.7,0-1.3-0.2-1.7-0.6c-0.7-0.7-0.8-1.8-0.8-2.9s0.1-2.2,0.8-2.9
		c0.4-0.4,1-0.6,1.7-0.6c0.8,0,1.4,0.2,1.9,0.9v-3.9h1v10H96.3z M94.5,205.2c-1.5,0-1.7,1.3-1.7,2.6s0.2,2.6,1.7,2.6
		c1.5,0,1.7-1.3,1.7-2.6S96,205.2,94.5,205.2z"/>
	<path class="st4" d="M99.8,213.3v-3.2h1.2v2.1L99.8,213.3z"/>
	<path class="st4" d="M111.4,210.7c-0.5,0.5-1.1,0.7-2,0.7c-0.9,0-1.6-0.3-2-0.7c-0.4-0.4-0.6-1-0.7-1.7h1c0.1,1,0.6,1.6,1.7,1.6
		c0.5,0,0.9-0.2,1.2-0.5c0.5-0.5,0.5-1.3,0.5-2c0-1.2-0.2-2.4-1.7-2.4c-0.9,0-1.5,0.4-1.7,1h-0.9v-5.2h5v0.9h-4.1v3.2
		c0.4-0.4,1-0.7,1.8-0.7c0.7,0,1.3,0.2,1.7,0.6c0.7,0.7,0.8,1.7,0.8,2.7C112.2,209,112.1,210,111.4,210.7z"/>
	<path class="st4" d="M116.2,211.3c-1.2,0-1.8-0.8-1.8-1.8v-4.2h-0.9v-0.8h0.9v-2.2h1v2.2h1.5v0.8h-1.5v4.2c0,0.6,0.3,1,0.9,1h0.5
		v0.9H116.2z"/>
	<path class="st4" d="M123.3,211.3v-4.3c0-1.2-0.6-1.8-1.7-1.8s-1.7,0.6-1.7,1.8v4.3h-1v-10h1v3.8c0.5-0.6,1.2-0.8,1.9-0.8
		c1.6,0,2.5,1,2.5,2.5v4.4H123.3z"/>
	<path class="st4" d="M134.2,211.3v-0.7c-0.6,0.6-1.1,0.7-2,0.7c-1,0-1.5-0.2-1.9-0.6c-0.3-0.3-0.5-0.9-0.5-1.4c0-1.2,0.8-2,2.4-2
		h2.1v-0.7c0-1-0.5-1.5-1.8-1.5c-0.9,0-1.3,0.2-1.7,0.8l-0.7-0.6c0.6-0.8,1.3-1,2.4-1c1.8,0,2.8,0.8,2.8,2.3v4.7H134.2z
		 M134.2,208.1h-1.9c-1,0-1.5,0.4-1.5,1.2c0,0.8,0.5,1.2,1.6,1.2c0.6,0,1.1,0,1.5-0.5c0.2-0.2,0.4-0.6,0.4-1.2V208.1z"/>
	<path class="st4" d="M142.1,211.3v-4.2c0-1.2-0.7-1.8-1.7-1.8c-1,0-1.7,0.6-1.7,1.8v4.2h-1v-6.9h1v0.8c0.5-0.6,1.2-0.8,1.9-0.8
		c0.7,0,1.3,0.2,1.8,0.6c0.5,0.5,0.7,1.1,0.7,1.9v4.4H142.1z"/>
	<path class="st4" d="M149.6,211.3v-0.8c-0.6,0.7-1.2,0.9-2,0.9c-0.7,0-1.3-0.2-1.7-0.6c-0.7-0.7-0.8-1.8-0.8-2.9s0.1-2.2,0.8-2.9
		c0.4-0.4,1-0.6,1.7-0.6c0.8,0,1.4,0.2,1.9,0.9v-3.9h1v10H149.6z M147.9,205.2c-1.5,0-1.7,1.3-1.7,2.6s0.2,2.6,1.7,2.6
		c1.5,0,1.7-1.3,1.7-2.6S149.4,205.2,147.9,205.2z"/>
	<path class="st4" d="M161.1,206.4l-2.5,4.9h-1l2.2-4.5c-0.3,0.1-0.7,0.2-1.1,0.2c-1.6,0-2.6-1.2-2.6-2.8c0-1.7,1.1-3,2.8-3
		s2.8,1.1,2.8,2.9C161.8,204.8,161.6,205.5,161.1,206.4z M159,202.2c-1.1,0-1.8,0.8-1.8,2c0,1.1,0.6,2,1.8,2c1.1,0,1.8-0.8,1.8-2
		C160.8,203,160.1,202.2,159,202.2z"/>
	<path class="st4" d="M165.9,211.3c-1.2,0-1.8-0.8-1.8-1.8v-4.2h-0.9v-0.8h0.9v-2.2h1v2.2h1.5v0.8h-1.5v4.2c0,0.6,0.3,1,0.9,1h0.5
		v0.9H165.9z"/>
	<path class="st4" d="M173,211.3v-4.3c0-1.2-0.6-1.8-1.7-1.8s-1.7,0.6-1.7,1.8v4.3h-1v-10h1v3.8c0.5-0.6,1.2-0.8,1.9-0.8
		c1.6,0,2.5,1,2.5,2.5v4.4H173z"/>
	<path class="st4" d="M182.6,211.4c-1.7,0-3.1-1.2-3.1-3.5c0-2.4,1.3-3.5,3.1-3.5c1,0,1.6,0.3,2.3,1l-0.7,0.6
		c-0.5-0.6-0.9-0.8-1.6-0.8c-0.7,0-1.2,0.3-1.6,0.8c-0.3,0.4-0.4,1-0.4,1.8s0.1,1.4,0.4,1.8c0.4,0.5,0.9,0.8,1.6,0.8
		c0.7,0,1.1-0.2,1.6-0.8l0.7,0.7C184.2,211.1,183.6,211.4,182.6,211.4z"/>
	<path class="st4" d="M191.2,211.3v-4.3c0-1.2-0.6-1.8-1.7-1.8s-1.7,0.6-1.7,1.8v4.3h-1v-10h1v3.8c0.5-0.6,1.2-0.8,1.9-0.8
		c1.6,0,2.5,1,2.5,2.5v4.4H191.2z"/>
	<path class="st4" d="M198.6,211.3v-0.7c-0.6,0.6-1.1,0.7-2,0.7c-1,0-1.5-0.2-1.9-0.6c-0.3-0.3-0.5-0.9-0.5-1.4c0-1.2,0.8-2,2.4-2
		h2.1v-0.7c0-1-0.5-1.5-1.8-1.5c-0.9,0-1.3,0.2-1.7,0.8l-0.7-0.6c0.6-0.8,1.3-1,2.4-1c1.8,0,2.8,0.8,2.8,2.3v4.7H198.6z
		 M198.6,208.1h-1.9c-1,0-1.5,0.4-1.5,1.2c0,0.8,0.5,1.2,1.6,1.2c0.6,0,1.1,0,1.5-0.5c0.2-0.2,0.4-0.6,0.4-1.2V208.1z"/>
	<path class="st4" d="M205.9,205.7c-0.4-0.4-0.7-0.5-1.2-0.5c-1,0-1.7,0.8-1.7,1.8v4.2h-1v-6.9h1v0.8c0.4-0.6,1.1-0.9,1.9-0.9
		c0.7,0,1.2,0.2,1.7,0.6L205.9,205.7z"/>
	<path class="st4" d="M211.7,211.3v-0.7c-0.6,0.6-1.1,0.7-2,0.7c-1,0-1.5-0.2-1.9-0.6c-0.3-0.3-0.5-0.9-0.5-1.4c0-1.2,0.8-2,2.4-2
		h2.1v-0.7c0-1-0.5-1.5-1.8-1.5c-0.9,0-1.3,0.2-1.7,0.8l-0.7-0.6c0.6-0.8,1.3-1,2.4-1c1.8,0,2.8,0.8,2.8,2.3v4.7H211.7z
		 M211.7,208.1h-1.9c-1,0-1.5,0.4-1.5,1.2c0,0.8,0.5,1.2,1.6,1.2c0.6,0,1.1,0,1.5-0.5c0.2-0.2,0.4-0.6,0.4-1.2V208.1z"/>
	<path class="st4" d="M217.8,211.4c-1.7,0-3.1-1.2-3.1-3.5c0-2.4,1.3-3.5,3.1-3.5c1,0,1.6,0.3,2.3,1l-0.7,0.6
		c-0.5-0.6-0.9-0.8-1.6-0.8c-0.7,0-1.2,0.3-1.6,0.8c-0.3,0.4-0.4,1-0.4,1.8s0.1,1.4,0.4,1.8c0.4,0.5,0.9,0.8,1.6,0.8
		c0.7,0,1.1-0.2,1.6-0.8l0.7,0.7C219.4,211.1,218.8,211.4,217.8,211.4z"/>
	<path class="st4" d="M223.9,211.3c-1.2,0-1.8-0.8-1.8-1.8v-4.2h-0.9v-0.8h0.9v-2.2h1v2.2h1.5v0.8h-1.5v4.2c0,0.6,0.3,1,0.9,1h0.5
		v0.9H223.9z"/>
	<path class="st4" d="M227.2,208.1c0,1.5,0.7,2.4,2,2.4c0.8,0,1.3-0.2,1.8-0.8l0.7,0.6c-0.7,0.7-1.3,1.1-2.5,1.1c-1.8,0-3-1.1-3-3.5
		c0-2.2,1.1-3.5,2.8-3.5c1.8,0,2.8,1.3,2.8,3.3v0.5H227.2z M230.6,206.2c-0.3-0.6-0.9-1-1.6-1s-1.3,0.4-1.6,1
		c-0.2,0.4-0.2,0.6-0.2,1.1h3.6C230.8,206.8,230.8,206.6,230.6,206.2z"/>
	<path class="st4" d="M237.8,205.7c-0.4-0.4-0.7-0.5-1.2-0.5c-1,0-1.7,0.8-1.7,1.8v4.2h-1v-6.9h1v0.8c0.4-0.6,1.1-0.9,1.9-0.9
		c0.7,0,1.2,0.2,1.7,0.6L237.8,205.7z"/>
	<path class="st4" d="M241.9,211.4c-1.2,0-2.1-0.3-2.8-1l0.7-0.7c0.5,0.6,1.3,0.8,2.1,0.8c1.1,0,1.8-0.4,1.8-1.2
		c0-0.6-0.3-0.9-1.1-1l-1.1-0.1c-1.3-0.1-2.1-0.7-2.1-1.8c0-1.3,1.1-2,2.5-2c1,0,1.9,0.2,2.5,0.7l-0.7,0.7c-0.5-0.4-1.1-0.5-1.8-0.5
		c-1,0-1.5,0.4-1.5,1.1c0,0.6,0.3,0.9,1.2,1l1.1,0.1c1.2,0.1,2,0.6,2,1.9C244.7,210.6,243.6,211.4,241.9,211.4z"/>
	<path class="st4" d="M251.4,205.2v6.1h-1v-6.1h-0.9v-0.8h0.9v-1.3c0-1,0.6-1.8,1.8-1.8h0.7v0.9h-0.5c-0.6,0-0.9,0.4-0.9,1v1.3h1.5
		v0.8H251.4z"/>
	<path class="st4" d="M258.4,205.7c-0.4-0.4-0.7-0.5-1.2-0.5c-1,0-1.7,0.8-1.7,1.8v4.2h-1v-6.9h1v0.8c0.4-0.6,1.1-0.9,1.9-0.9
		c0.7,0,1.2,0.2,1.7,0.6L258.4,205.7z"/>
	<path class="st4" d="M264.4,210.6c-0.5,0.5-1.1,0.8-2,0.8c-0.8,0-1.5-0.3-2-0.8c-0.7-0.7-0.8-1.7-0.8-2.7s0.1-2,0.8-2.7
		c0.5-0.5,1.1-0.8,2-0.8c0.8,0,1.5,0.3,2,0.8c0.7,0.7,0.8,1.7,0.8,2.7S265.1,209.9,264.4,210.6z M263.7,205.7
		c-0.3-0.3-0.8-0.5-1.3-0.5s-0.9,0.2-1.2,0.5c-0.5,0.5-0.6,1.4-0.6,2.1s0.1,1.6,0.6,2.1c0.3,0.3,0.8,0.5,1.2,0.5s0.9-0.2,1.3-0.5
		c0.5-0.5,0.5-1.4,0.5-2.1S264.2,206.2,263.7,205.7z"/>
	<path class="st4" d="M276.2,211.3v-4.2c0-1.2-0.7-1.8-1.7-1.8c-1,0-1.7,0.6-1.7,1.7v4.4h-1v-4.2c0-1.2-0.7-1.8-1.7-1.8
		c-1,0-1.7,0.6-1.7,1.8v4.2h-1v-6.9h1v0.8c0.5-0.6,1.2-0.8,1.9-0.8c1,0,1.7,0.4,2.1,1.1c0.5-0.8,1.3-1.1,2.3-1.1
		c0.7,0,1.4,0.2,1.8,0.6c0.5,0.5,0.7,1.1,0.7,1.9v4.4H276.2z"/>
	<path class="st4" d="M43.5,229.8c-0.1,0.4-0.3,0.6-0.5,0.8c-0.4,0.3-0.9,0.5-1.3,0.5h-0.4v-0.9h0.3c0.7,0,0.9-0.2,1.1-0.9l0.5-1.3
		l-2.5-6.8h1.1l1.9,5.5l1.9-5.5h1.1L43.5,229.8z"/>
	<path class="st4" d="M52.4,227.4c-0.5,0.5-1.1,0.8-2,0.8s-1.5-0.3-2-0.8c-0.7-0.7-0.8-1.7-0.8-2.7s0.1-2,0.8-2.7
		c0.5-0.5,1.1-0.8,2-0.8s1.5,0.3,2,0.8c0.7,0.7,0.8,1.7,0.8,2.7S53.1,226.7,52.4,227.4z M51.7,222.5c-0.3-0.3-0.8-0.5-1.3-0.5
		s-0.9,0.2-1.2,0.5c-0.5,0.5-0.6,1.4-0.6,2.1c0,0.8,0.1,1.6,0.6,2.1c0.3,0.3,0.8,0.5,1.2,0.5s0.9-0.2,1.3-0.5
		c0.5-0.5,0.5-1.4,0.5-2.1C52.2,223.9,52.2,223,51.7,222.5z"/>
	<path class="st4" d="M59.7,228.1v-0.8c-0.5,0.6-1.2,0.9-1.9,0.9c-0.7,0-1.4-0.2-1.8-0.6c-0.5-0.5-0.7-1.1-0.7-1.9v-4.4h1v4.2
		c0,1.2,0.6,1.8,1.7,1.8c1,0,1.7-0.6,1.7-1.8v-4.2h1v6.9H59.7z"/>
	<path class="st4" d="M67.1,222.5c-0.4-0.4-0.7-0.5-1.2-0.5c-1,0-1.7,0.8-1.7,1.8v4.2h-1v-6.9h1v0.8c0.4-0.6,1.1-0.9,1.9-0.9
		c0.7,0,1.2,0.2,1.7,0.6L67.1,222.5z"/>
	<path class="st4" d="M77.3,227.6c-0.4,0.4-1,0.6-1.7,0.6c-0.8,0-1.4-0.2-1.9-0.9v3.9h-1v-10h1v0.8c0.6-0.7,1.2-0.9,1.9-0.9
		c0.7,0,1.3,0.2,1.7,0.6c0.7,0.7,0.8,1.8,0.8,2.9C78.1,225.7,78,226.9,77.3,227.6z M75.4,222c-1.5,0-1.7,1.3-1.7,2.6
		c0,1.3,0.2,2.6,1.7,2.6c1.5,0,1.7-1.3,1.7-2.6C77.1,223.3,76.9,222,75.4,222z"/>
	<path class="st4" d="M84.2,228.1v-0.7c-0.6,0.6-1.1,0.7-2,0.7c-1,0-1.5-0.2-1.9-0.6c-0.3-0.3-0.5-0.9-0.5-1.4c0-1.2,0.8-2,2.4-2
		h2.1v-0.7c0-1-0.5-1.5-1.8-1.5c-0.9,0-1.3,0.2-1.7,0.8l-0.7-0.6c0.6-0.8,1.3-1,2.4-1c1.8,0,2.8,0.8,2.8,2.3v4.7H84.2z M84.2,224.9
		h-1.9c-1,0-1.5,0.4-1.5,1.2s0.5,1.2,1.6,1.2c0.6,0,1.1,0,1.5-0.5c0.2-0.2,0.4-0.6,0.4-1.2V224.9z"/>
	<path class="st4" d="M89.8,228.2c-1.2,0-2.1-0.3-2.8-1l0.7-0.7c0.5,0.6,1.3,0.8,2.1,0.8c1.1,0,1.8-0.4,1.8-1.2c0-0.6-0.4-0.9-1.1-1
		l-1.1-0.1c-1.3-0.1-2.1-0.7-2.1-1.8c0-1.3,1.1-2,2.5-2c1,0,1.9,0.2,2.5,0.7l-0.7,0.7c-0.5-0.4-1.1-0.5-1.8-0.5
		c-1,0-1.5,0.4-1.5,1.1c0,0.6,0.3,0.9,1.2,1l1.1,0.1c1.2,0.1,2,0.6,2,1.9C92.6,227.4,91.5,228.2,89.8,228.2z"/>
	<path class="st4" d="M96.5,228.2c-1.2,0-2.1-0.3-2.8-1l0.7-0.7c0.5,0.6,1.3,0.8,2.1,0.8c1.1,0,1.8-0.4,1.8-1.2c0-0.6-0.4-0.9-1.1-1
		L96,225c-1.3-0.1-2.1-0.7-2.1-1.8c0-1.3,1.1-2,2.5-2c1,0,1.9,0.2,2.5,0.7l-0.7,0.7c-0.5-0.4-1.1-0.5-1.8-0.5c-1,0-1.5,0.4-1.5,1.1
		c0,0.6,0.3,0.9,1.2,1l1.1,0.1c1.2,0.1,2,0.6,2,1.9C99.3,227.4,98.2,228.2,96.5,228.2z"/>
	<path class="st4" d="M107.8,228.1h-0.9l-1.8-5.4l-1.8,5.4h-0.9l-2.2-6.9h1.1l1.6,5.5l1.8-5.5h0.9l1.8,5.5l1.6-5.5h1.1L107.8,228.1z
		"/>
	<path class="st4" d="M115.8,227.4c-0.5,0.5-1.1,0.8-2,0.8s-1.5-0.3-2-0.8c-0.7-0.7-0.8-1.7-0.8-2.7s0.1-2,0.8-2.7
		c0.5-0.5,1.1-0.8,2-0.8s1.5,0.3,2,0.8c0.7,0.7,0.8,1.7,0.8,2.7S116.5,226.7,115.8,227.4z M115.1,222.5c-0.3-0.3-0.8-0.5-1.3-0.5
		s-0.9,0.2-1.2,0.5c-0.5,0.5-0.6,1.4-0.6,2.1c0,0.8,0.1,1.6,0.6,2.1c0.3,0.3,0.8,0.5,1.2,0.5s0.9-0.2,1.3-0.5
		c0.5-0.5,0.5-1.4,0.5-2.1C115.6,223.9,115.6,223,115.1,222.5z"/>
	<path class="st4" d="M122.6,222.5c-0.4-0.4-0.7-0.5-1.2-0.5c-1,0-1.7,0.8-1.7,1.8v4.2h-1v-6.9h1v0.8c0.4-0.6,1.1-0.9,1.9-0.9
		c0.7,0,1.2,0.2,1.7,0.6L122.6,222.5z"/>
	<path class="st4" d="M128.3,228.1v-0.8c-0.6,0.7-1.2,0.9-2,0.9c-0.7,0-1.3-0.2-1.7-0.6c-0.7-0.7-0.8-1.8-0.8-2.9
		c0-1.1,0.1-2.2,0.8-2.9c0.4-0.4,1-0.6,1.7-0.6c0.8,0,1.4,0.2,1.9,0.9v-3.9h1v10H128.3z M126.6,222c-1.5,0-1.7,1.3-1.7,2.6
		c0,1.3,0.2,2.6,1.7,2.6c1.5,0,1.7-1.3,1.7-2.6C128.3,223.3,128.1,222,126.6,222z"/>
</g>
<rect x="79.5" y="243.9" class="st2" width="21.6" height="21.6"/>
<rect x="115.5" y="243.9" class="st2" width="21.6" height="21.6"/>
<line class="st7" x1="15.7" y1="25.5" x2="408.4" y2="25.5"/>
<circle class="st8" cx="29.2" cy="16" r="3.4"/>
<circle class="st8" cx="41.8" cy="16" r="3.4"/>
<circle class="st8" cx="53.4" cy="16" r="3.4"/>
<g>
</g>
<g>
</g>
<g>
</g>
<g>
</g>
<g>
</g>
<g>
</g>
</svg>
