<?xml version="1.0" encoding="utf-8"?>
<!-- Generator: Adobe Illustrator 19.1.0, SVG Export Plug-In . SVG Version: 6.00 Build 0)  -->
<svg version="1.1" preserveAspectRatio="xMinYMid" id="Layer_1" xmlns="http://www.w3.org/2000/svg" xmlns:xlink="http://www.w3.org/1999/xlink" x="0px" y="0px"
	 viewBox="0 0 409 331.2" style="enable-background:new 0 0 409 331.2;" xml:space="preserve">
<style type="text/css">
	.st0{fill:#FFFFFF;}
	.st1{fill:none;stroke:#1D1D1B;stroke-width:2;stroke-miterlimit:10;}
	.st2{fill:none;stroke:#1D1D1B;stroke-miterlimit:10;}
	.st3{fill:#FFFFFF;stroke:#1D1D1B;stroke-miterlimit:10;}
	.st4{fill:#C7C6C5;}
	.st5{fill:#FFFFFF;stroke:#FFFFFF;stroke-width:1.5587;stroke-linecap:round;stroke-miterlimit:10;}
	.st6{fill:none;stroke:#FFFFFF;stroke-width:1.5587;stroke-linecap:round;stroke-miterlimit:10;}
	.st7{fill:#3A50A2;}
	.st8{fill:none;}
	.st9{fill:#1D1D1B;}
	.st10{fill:#FFFFFF;stroke:#010101;stroke-width:0.5;stroke-miterlimit:10;}
	.st11{fill:#000101;stroke:#000101;stroke-width:0.8322;stroke-miterlimit:10;}
</style>
<g>
	
		<image style="overflow:visible;opacity:0.49;" width="1670" height="1380" xlink:href="E6BFA6D5A4EE0EBB.png"  transform="matrix(0.24 0 0 0.24 0 0)">
	</image>
	<g>
		<path class="st0" d="M395.5,312.8c0,2.5-2,4.5-4.5,4.5H18.2c-2.5,0-4.5-2-4.5-4.5V9.7c0-2.5,2-4.5,4.5-4.5h372.8
			c2.5,0,4.5,2,4.5,4.5V312.8z"/>
		<path class="st1" d="M395.5,312.8c0,2.5-2,4.5-4.5,4.5H18.2c-2.5,0-4.5-2-4.5-4.5V9.7c0-2.5,2-4.5,4.5-4.5h372.8
			c2.5,0,4.5,2,4.5,4.5V312.8z"/>
	</g>
</g>
<line class="st2" x1="13.5" y1="24.6" x2="395.2" y2="24.6"/>
<circle class="st3" cx="27" cy="15.1" r="3.4"/>
<circle class="st3" cx="39.5" cy="15.1" r="3.4"/>
<circle class="st3" cx="51.2" cy="15.1" r="3.4"/>
<g>
	<circle class="st4" cx="164.9" cy="254.1" r="14.5"/>
	<line class="st5" x1="157.8" y1="254.7" x2="174.4" y2="254.7"/>
	<polyline class="st6" points="164.5,244.9 157.6,254.6 164.3,263.7 	"/>
</g>
<g>
	<circle class="st7" cx="242.4" cy="254.1" r="14.5"/>
	<line class="st5" x1="250.5" y1="254" x2="233.9" y2="254"/>
	<polyline class="st6" points="243.8,263.7 250.7,254 243.9,244.9 	"/>
</g>
<g>
	<rect x="128.4" y="277.9" class="st8" width="73" height="16.4"/>
	<path class="st9" d="M144.3,286.9c-0.6,0.6-1.5,0.9-2.6,0.9h-3.5v-10h3.5c1,0,1.9,0.3,2.6,0.9c1.1,1.1,1,2.5,1,4
		C145.3,284.3,145.4,285.9,144.3,286.9z M143.3,279.9c-0.4-0.5-1-0.7-1.7-0.7h-1.8v7.3h1.8c0.7,0,1.3-0.2,1.7-0.7
		c0.5-0.6,0.5-1.7,0.5-3S143.8,280.5,143.3,279.9z"/>
	<path class="st9" d="M147.4,279.4v-1.5h1.5v1.5H147.4z M147.4,287.9v-7.1h1.4v7.1H147.4z"/>
	<path class="st9" d="M153.4,288c-1.2,0-2.1-0.2-3-1l0.9-0.9c0.6,0.6,1.3,0.7,2,0.7c0.9,0,1.6-0.3,1.6-1c0-0.5-0.3-0.8-1-0.8
		l-1.1-0.1c-1.3-0.1-2.1-0.7-2.1-2c0-1.4,1.2-2.2,2.7-2.2c1.1,0,2,0.2,2.6,0.8l-0.9,0.9c-0.4-0.4-1.1-0.5-1.8-0.5
		c-0.9,0-1.3,0.4-1.3,0.9c0,0.4,0.2,0.7,1,0.8l1.1,0.1c1.3,0.1,2.1,0.7,2.1,2C156.4,287.2,155.1,288,153.4,288z"/>
	<path class="st9" d="M161.9,287.9v-0.6c-0.5,0.5-1,0.7-1.9,0.7c-0.9,0-1.5-0.2-1.9-0.6c-0.4-0.4-0.6-0.9-0.6-1.5c0-1.2,0.8-2,2.5-2
		h1.9v-0.5c0-0.9-0.4-1.3-1.6-1.3c-0.8,0-1.2,0.2-1.6,0.7l-0.9-0.9c0.7-0.8,1.4-1,2.5-1c1.9,0,2.9,0.8,2.9,2.4v4.7H161.9z
		 M161.9,284.7h-1.7c-0.8,0-1.3,0.4-1.3,1c0,0.6,0.4,1,1.3,1c0.5,0,1,0,1.3-0.4c0.2-0.2,0.3-0.5,0.3-1.1V284.7z"/>
	<path class="st9" d="M167.9,290.8c-1.1,0-1.8-0.3-2.5-0.9l0.9-0.9c0.4,0.4,0.8,0.6,1.5,0.6c1.2,0,1.7-0.9,1.7-1.8v-0.9
		c-0.5,0.6-1.1,0.8-1.8,0.8c-0.7,0-1.3-0.2-1.7-0.6c-0.7-0.7-0.8-1.7-0.8-2.9s0.1-2.2,0.8-2.9c0.4-0.4,1-0.6,1.7-0.6
		c0.8,0,1.3,0.2,1.9,0.8v-0.8h1.4v7.1C170.9,289.6,169.8,290.8,167.9,290.8z M168.1,282c-1.3,0-1.5,1.1-1.5,2.2s0.2,2.2,1.5,2.2
		s1.4-1.1,1.4-2.2S169.3,282,168.1,282z"/>
	<path class="st9" d="M177.1,282.4c-0.3-0.3-0.6-0.5-1.1-0.5c-0.8,0-1.4,0.6-1.4,1.6v4.3h-1.4v-7.1h1.4v0.8c0.4-0.5,1.1-0.9,1.9-0.9
		c0.7,0,1.2,0.2,1.7,0.7L177.1,282.4z"/>
	<path class="st9" d="M180,284.7c0,1.2,0.6,2,1.8,2c0.8,0,1.2-0.2,1.7-0.7l0.9,0.9c-0.7,0.7-1.4,1.1-2.7,1.1c-1.8,0-3.2-0.9-3.2-3.6
		c0-2.3,1.2-3.6,3-3.6c1.9,0,3,1.4,3,3.4v0.6H180z M183,282.8c-0.2-0.5-0.7-0.9-1.4-0.9s-1.2,0.4-1.4,0.9c-0.1,0.3-0.2,0.5-0.2,1
		h3.2C183.1,283.3,183.1,283.1,183,282.8z"/>
	<path class="st9" d="M187.5,284.7c0,1.2,0.6,2,1.8,2c0.8,0,1.2-0.2,1.7-0.7l0.9,0.9c-0.7,0.7-1.4,1.1-2.7,1.1
		c-1.8,0-3.2-0.9-3.2-3.6c0-2.3,1.2-3.6,3-3.6c1.9,0,3,1.4,3,3.4v0.6H187.5z M190.5,282.8c-0.2-0.5-0.7-0.9-1.4-0.9
		s-1.2,0.4-1.4,0.9c-0.1,0.3-0.2,0.5-0.2,1h3.2C190.7,283.3,190.6,283.1,190.5,282.8z"/>
</g>
<g>
	<rect x="205.9" y="278.9" class="st8" width="73" height="16.4"/>
	<path class="st7" d="M230.3,288.9l-0.6-1.8h-3.5l-0.6,1.8h-2l3.6-10h1.5l3.6,10H230.3z M228,281.9l-1.3,3.6h2.5L228,281.9z"/>
	<path class="st7" d="M235.9,291.6c-1.1,0-1.9-0.2-2.6-1l1.1-1.1c0.4,0.4,0.8,0.6,1.4,0.6c1.1,0,1.5-0.8,1.5-1.5v-0.7
		c-0.5,0.5-1,0.7-1.7,0.7c-0.7,0-1.3-0.2-1.7-0.6c-0.7-0.7-0.7-1.6-0.7-2.9s0.1-2.2,0.7-2.9c0.4-0.4,1-0.6,1.8-0.6
		c0.8,0,1.3,0.2,1.8,0.8v-0.7h1.8v7C239.1,290.4,237.9,291.6,235.9,291.6z M236.1,283.1c-1.1,0-1.2,0.9-1.2,1.9s0.1,1.9,1.2,1.9
		c1.1,0,1.2-0.9,1.2-1.9S237.2,283.1,236.1,283.1z"/>
	<path class="st7" d="M245.1,283.6c-0.3-0.3-0.5-0.4-1-0.4c-0.6,0-1.2,0.4-1.2,1.3v4.4h-1.8v-7.3h1.8v0.7c0.3-0.4,1-0.8,1.8-0.8
		c0.7,0,1.2,0.2,1.7,0.7L245.1,283.6z"/>
	<path class="st7" d="M248.5,285.8c0,0.9,0.6,1.6,1.6,1.6c0.8,0,1.2-0.2,1.7-0.7l1.1,1.1c-0.7,0.7-1.5,1.1-2.8,1.1
		c-1.7,0-3.4-0.8-3.4-3.7c0-2.4,1.3-3.7,3.2-3.7c2,0,3.2,1.5,3.2,3.5v0.8H248.5z M251.1,283.8c-0.2-0.4-0.6-0.8-1.2-0.8
		s-1,0.3-1.2,0.8c-0.1,0.3-0.2,0.5-0.2,0.8h2.8C251.3,284.2,251.3,284,251.1,283.8z"/>
	<path class="st7" d="M256.2,285.8c0,0.9,0.6,1.6,1.6,1.6c0.8,0,1.2-0.2,1.7-0.7l1.1,1.1c-0.7,0.7-1.5,1.1-2.8,1.1
		c-1.7,0-3.4-0.8-3.4-3.7c0-2.4,1.3-3.7,3.2-3.7c2,0,3.2,1.5,3.2,3.5v0.8H256.2z M258.8,283.8c-0.2-0.4-0.6-0.8-1.2-0.8
		s-1,0.3-1.2,0.8c-0.1,0.3-0.2,0.5-0.2,0.8h2.8C259,284.2,258.9,284,258.8,283.8z"/>
</g>
<g>
	<rect x="45.8" y="51.6" class="st8" width="291.6" height="53.2"/>
	<path class="st9" d="M50.2,52.6v9h-1.1v-9h-2.9v-1H53v1H50.2z"/>
	<path class="st9" d="M58.1,60.9c-0.5,0.5-1.1,0.8-2,0.8s-1.5-0.3-2-0.8c-0.7-0.7-0.8-1.7-0.8-2.7s0.1-2,0.8-2.7
		c0.5-0.5,1.1-0.8,2-0.8s1.5,0.3,2,0.8c0.7,0.7,0.8,1.7,0.8,2.7S58.8,60.2,58.1,60.9z M57.4,56c-0.3-0.3-0.8-0.5-1.3-0.5
		s-0.9,0.2-1.2,0.5c-0.5,0.5-0.6,1.4-0.6,2.1s0.1,1.6,0.6,2.1c0.3,0.3,0.8,0.5,1.2,0.5s0.9-0.2,1.3-0.5c0.5-0.5,0.5-1.4,0.5-2.1
		S57.9,56.5,57.4,56z"/>
	<path class="st9" d="M67.2,61.7c-1.7,0-3.1-1.2-3.1-3.5c0-2.4,1.3-3.5,3.1-3.5c1,0,1.6,0.3,2.3,1l-0.7,0.6
		c-0.5-0.6-0.9-0.8-1.6-0.8c-0.7,0-1.2,0.3-1.6,0.8c-0.3,0.4-0.4,1-0.4,1.8c0,0.9,0.1,1.4,0.4,1.8c0.4,0.5,0.9,0.8,1.6,0.8
		c0.7,0,1.1-0.2,1.6-0.8l0.7,0.7C68.8,61.4,68.2,61.7,67.2,61.7z"/>
	<path class="st9" d="M75.6,60.9c-0.5,0.5-1.1,0.8-2,0.8s-1.5-0.3-2-0.8c-0.7-0.7-0.8-1.7-0.8-2.7s0.1-2,0.8-2.7
		c0.5-0.5,1.1-0.8,2-0.8s1.5,0.3,2,0.8c0.7,0.7,0.8,1.7,0.8,2.7S76.3,60.2,75.6,60.9z M74.9,56c-0.3-0.3-0.8-0.5-1.3-0.5
		s-0.9,0.2-1.2,0.5c-0.5,0.5-0.6,1.4-0.6,2.1s0.1,1.6,0.6,2.1c0.3,0.3,0.8,0.5,1.2,0.5s0.9-0.2,1.3-0.5c0.5-0.5,0.5-1.4,0.5-2.1
		S75.4,56.5,74.9,56z"/>
	<path class="st9" d="M83,61.6v-4.2c0-1.2-0.7-1.8-1.7-1.8s-1.7,0.6-1.7,1.8v4.2h-1v-6.9h1v0.8c0.5-0.6,1.2-0.8,1.9-0.8
		c0.7,0,1.3,0.2,1.8,0.6c0.5,0.5,0.7,1.1,0.7,1.9v4.4H83z"/>
	<path class="st9" d="M88.4,61.6c-1.2,0-1.8-0.8-1.8-1.8v-4.2h-0.9v-0.8h0.9v-2.2h1v2.2h1.5v0.8h-1.5v4.2c0,0.6,0.3,1,0.9,1h0.5v0.9
		H88.4z"/>
	<path class="st9" d="M91.1,52.8v-1.1h1.1v1.1H91.1z M91.2,61.6v-6.9h1v6.9H91.2z"/>
	<path class="st9" d="M99.1,61.6v-4.2c0-1.2-0.7-1.8-1.7-1.8s-1.7,0.6-1.7,1.8v4.2h-1v-6.9h1v0.8c0.5-0.6,1.2-0.8,1.9-0.8
		c0.7,0,1.3,0.2,1.8,0.6c0.5,0.5,0.7,1.1,0.7,1.9v4.4H99.1z"/>
	<path class="st9" d="M106.9,61.6v-0.8c-0.5,0.6-1.2,0.9-1.9,0.9c-0.7,0-1.4-0.2-1.8-0.6c-0.5-0.5-0.7-1.1-0.7-1.9v-4.4h1V59
		c0,1.2,0.6,1.8,1.7,1.8c1,0,1.7-0.6,1.7-1.8v-4.2h1v6.9H106.9z"/>
	<path class="st9" d="M111.1,58.4c0,1.5,0.7,2.4,2,2.4c0.8,0,1.3-0.2,1.8-0.8l0.7,0.6c-0.7,0.7-1.3,1.1-2.5,1.1c-1.8,0-3-1.1-3-3.5
		c0-2.2,1.1-3.5,2.8-3.5c1.8,0,2.8,1.3,2.8,3.3v0.5H111.1z M114.5,56.5c-0.3-0.6-0.9-1-1.6-1s-1.3,0.4-1.6,1
		c-0.2,0.4-0.2,0.6-0.2,1.1h3.6C114.7,57.1,114.6,56.9,114.5,56.5z"/>
	<path class="st9" d="M121.3,52.8v-1.1h1.1v1.1H121.3z M121.3,61.6v-6.9h1v6.9H121.3z"/>
	<path class="st9" d="M129.3,61.6v-4.2c0-1.2-0.7-1.8-1.7-1.8c-1,0-1.7,0.6-1.7,1.8v4.2h-1v-6.9h1v0.8c0.5-0.6,1.2-0.8,1.9-0.8
		c0.7,0,1.3,0.2,1.8,0.6c0.5,0.5,0.7,1.1,0.7,1.9v4.4H129.3z"/>
	<path class="st9" d="M134.9,61.7c-1.2,0-2.1-0.3-2.8-1l0.7-0.7c0.5,0.6,1.3,0.8,2.1,0.8c1.1,0,1.8-0.4,1.8-1.2c0-0.6-0.4-0.9-1.1-1
		l-1.1-0.1c-1.3-0.1-2.1-0.7-2.1-1.8c0-1.3,1.1-2,2.5-2c1,0,1.9,0.2,2.5,0.7l-0.7,0.7c-0.5-0.4-1.1-0.5-1.8-0.5
		c-1,0-1.5,0.4-1.5,1.1c0,0.6,0.3,0.9,1.2,1l1.1,0.1c1.2,0.1,2,0.6,2,1.9C137.7,60.9,136.6,61.7,134.9,61.7z"/>
	<path class="st9" d="M141.5,61.6c-1.2,0-1.8-0.8-1.8-1.8v-4.2h-0.9v-0.8h0.9v-2.2h1v2.2h1.5v0.8h-1.5v4.2c0,0.6,0.3,1,0.9,1h0.5
		v0.9H141.5z"/>
	<path class="st9" d="M148,61.6V61c-0.6,0.6-1.1,0.7-2,0.7c-1,0-1.5-0.2-1.9-0.6c-0.3-0.3-0.5-0.9-0.5-1.4c0-1.2,0.8-2,2.4-2h2.1V57
		c0-1-0.5-1.5-1.8-1.5c-0.9,0-1.3,0.2-1.7,0.8l-0.7-0.6c0.6-0.8,1.3-1,2.4-1c1.8,0,2.8,0.8,2.8,2.3v4.7H148z M148,58.4h-1.9
		c-1,0-1.5,0.4-1.5,1.2s0.5,1.2,1.6,1.2c0.6,0,1.1,0,1.5-0.5c0.2-0.2,0.4-0.6,0.4-1.2V58.4z"/>
	<path class="st9" d="M153.2,61.6c-1.2,0-1.8-0.8-1.8-1.8v-8.1h1v8.1c0,0.7,0.2,1,0.9,1h0.5v0.9H153.2z"/>
	<path class="st9" d="M157.3,61.6c-1.2,0-1.8-0.8-1.8-1.8v-8.1h1v8.1c0,0.7,0.2,1,0.9,1h0.5v0.9H157.3z"/>
	<path class="st9" d="M159.7,52.8v-1.1h1.1v1.1H159.7z M159.8,61.6v-6.9h1v6.9H159.8z"/>
	<path class="st9" d="M167.7,61.6v-4.2c0-1.2-0.7-1.8-1.7-1.8c-1,0-1.7,0.6-1.7,1.8v4.2h-1v-6.9h1v0.8c0.5-0.6,1.2-0.8,1.9-0.8
		c0.7,0,1.3,0.2,1.8,0.6c0.5,0.5,0.7,1.1,0.7,1.9v4.4H167.7z"/>
	<path class="st9" d="M173.4,64.8c-1,0-1.6-0.3-2.3-0.9l0.7-0.6c0.5,0.4,0.9,0.7,1.7,0.7c1.3,0,1.9-0.9,1.9-2.1v-1.1
		c-0.6,0.7-1.2,0.9-1.9,0.9c-0.7,0-1.3-0.3-1.7-0.6c-0.7-0.7-0.8-1.8-0.8-2.9s0.2-2.2,0.8-2.9c0.4-0.4,1-0.6,1.7-0.6
		c0.8,0,1.4,0.2,1.9,0.9v-0.8h1v7.1C176.3,63.5,175.2,64.8,173.4,64.8z M173.5,55.5c-1.5,0-1.7,1.3-1.7,2.6s0.2,2.6,1.7,2.6
		s1.7-1.3,1.7-2.6S175,55.5,173.5,55.5z"/>
	<path class="st9" d="M184.2,61.6c-1.2,0-1.8-0.8-1.8-1.8v-4.2h-0.9v-0.8h0.9v-2.2h1v2.2h1.5v0.8h-1.5v4.2c0,0.6,0.3,1,0.9,1h0.5
		v0.9H184.2z"/>
	<path class="st9" d="M191.3,61.6v-4.3c0-1.2-0.6-1.8-1.7-1.8s-1.7,0.6-1.7,1.8v4.3h-1v-10h1v3.8c0.5-0.6,1.2-0.8,1.9-0.8
		c1.6,0,2.5,1,2.5,2.5v4.4H191.3z"/>
	<path class="st9" d="M194.7,52.8v-1.1h1.1v1.1H194.7z M194.8,61.6v-6.9h1v6.9H194.8z"/>
	<path class="st9" d="M200.5,61.7c-1.2,0-2.1-0.3-2.8-1l0.7-0.7c0.5,0.6,1.3,0.8,2.1,0.8c1.1,0,1.8-0.4,1.8-1.2c0-0.6-0.4-0.9-1.1-1
		l-1.1-0.1c-1.3-0.1-2.1-0.7-2.1-1.8c0-1.3,1.1-2,2.5-2c1,0,1.9,0.2,2.5,0.7l-0.7,0.7c-0.5-0.4-1.1-0.5-1.8-0.5
		c-1,0-1.5,0.4-1.5,1.1c0,0.6,0.3,0.9,1.2,1l1.1,0.1c1.2,0.1,2,0.6,2,1.9C203.3,60.9,202.2,61.7,200.5,61.7z"/>
	<path class="st9" d="M210.9,61.7c-1.2,0-2.1-0.3-2.8-1l0.7-0.7c0.5,0.6,1.3,0.8,2.1,0.8c1.1,0,1.8-0.4,1.8-1.2c0-0.6-0.4-0.9-1.1-1
		l-1.1-0.1c-1.3-0.1-2.1-0.7-2.1-1.8c0-1.3,1.1-2,2.5-2c1,0,1.9,0.2,2.5,0.7l-0.7,0.7c-0.5-0.4-1.1-0.5-1.8-0.5
		c-1,0-1.5,0.4-1.5,1.1c0,0.6,0.3,0.9,1.2,1l1.1,0.1c1.2,0.1,2,0.6,2,1.9C213.7,60.9,212.6,61.7,210.9,61.7z"/>
	<path class="st9" d="M220.1,60.9c-0.5,0.5-1.1,0.8-2,0.8s-1.5-0.3-2-0.8c-0.7-0.7-0.8-1.7-0.8-2.7s0.1-2,0.8-2.7
		c0.5-0.5,1.1-0.8,2-0.8s1.5,0.3,2,0.8c0.7,0.7,0.8,1.7,0.8,2.7S220.8,60.2,220.1,60.9z M219.4,56c-0.3-0.3-0.8-0.5-1.3-0.5
		s-0.9,0.2-1.2,0.5c-0.5,0.5-0.6,1.4-0.6,2.1s0.1,1.6,0.6,2.1c0.3,0.3,0.8,0.5,1.2,0.5s0.9-0.2,1.3-0.5c0.5-0.5,0.5-1.4,0.5-2.1
		S219.9,56.5,219.4,56z"/>
	<path class="st9" d="M224.3,55.5v6.1h-1v-6.1h-0.9v-0.8h0.9v-1.3c0-1,0.6-1.8,1.8-1.8h0.7v0.9h-0.5c-0.6,0-0.9,0.4-0.9,1v1.3h1.5
		v0.8H224.3z"/>
	<path class="st9" d="M229.4,61.6c-1.2,0-1.8-0.8-1.8-1.8v-4.2h-0.9v-0.8h0.9v-2.2h1v2.2h1.5v0.8h-1.5v4.2c0,0.6,0.3,1,0.9,1h0.5
		v0.9H229.4z"/>
	<path class="st9" d="M238.7,61.6h-0.9l-1.8-5.4l-1.8,5.4h-0.9l-2.2-6.9h1.1l1.6,5.5l1.8-5.5h0.9l1.8,5.5l1.6-5.5h1.1L238.7,61.6z"
		/>
	<path class="st9" d="M246.2,61.6V61c-0.6,0.6-1.1,0.7-2,0.7c-1,0-1.5-0.2-1.9-0.6c-0.3-0.3-0.5-0.9-0.5-1.4c0-1.2,0.8-2,2.4-2h2.1
		V57c0-1-0.5-1.5-1.8-1.5c-0.9,0-1.3,0.2-1.7,0.8l-0.7-0.6c0.6-0.8,1.3-1,2.4-1c1.8,0,2.8,0.8,2.8,2.3v4.7H246.2z M246.2,58.4h-1.9
		c-1,0-1.5,0.4-1.5,1.2s0.5,1.2,1.6,1.2c0.6,0,1.1,0,1.5-0.5c0.2-0.2,0.4-0.6,0.4-1.2V58.4z"/>
	<path class="st9" d="M253.5,56c-0.4-0.4-0.7-0.5-1.2-0.5c-1,0-1.7,0.8-1.7,1.8v4.2h-1v-6.9h1v0.8c0.4-0.6,1.1-0.9,1.9-0.9
		c0.7,0,1.2,0.2,1.7,0.6L253.5,56z"/>
	<path class="st9" d="M255.7,58.4c0,1.5,0.7,2.4,2,2.4c0.8,0,1.3-0.2,1.8-0.8l0.7,0.6c-0.7,0.7-1.3,1.1-2.5,1.1c-1.8,0-3-1.1-3-3.5
		c0-2.2,1.1-3.5,2.8-3.5c1.8,0,2.8,1.3,2.8,3.3v0.5H255.7z M259.1,56.5c-0.3-0.6-0.9-1-1.6-1s-1.3,0.4-1.6,1
		c-0.2,0.4-0.2,0.6-0.2,1.1h3.6C259.3,57.1,259.3,56.9,259.1,56.5z"/>
	<path class="st9" d="M267.7,63.3c-0.1,0.4-0.3,0.6-0.5,0.8c-0.4,0.4-0.9,0.5-1.3,0.5h-0.4v-0.9h0.3c0.7,0,0.9-0.2,1.1-0.9l0.5-1.3
		l-2.5-6.8h1.1l1.9,5.5l1.9-5.5h1.1L267.7,63.3z"/>
	<path class="st9" d="M276.5,60.9c-0.5,0.5-1.1,0.8-2,0.8s-1.5-0.3-2-0.8c-0.7-0.7-0.8-1.7-0.8-2.7s0.1-2,0.8-2.7
		c0.5-0.5,1.1-0.8,2-0.8s1.5,0.3,2,0.8c0.7,0.7,0.8,1.7,0.8,2.7S277.2,60.2,276.5,60.9z M275.8,56c-0.3-0.3-0.8-0.5-1.3-0.5
		s-0.9,0.2-1.2,0.5c-0.5,0.5-0.6,1.4-0.6,2.1s0.1,1.6,0.6,2.1c0.3,0.3,0.8,0.5,1.2,0.5s0.9-0.2,1.3-0.5c0.5-0.5,0.5-1.4,0.5-2.1
		S276.3,56.5,275.8,56z"/>
	<path class="st9" d="M283.9,61.6v-0.8c-0.5,0.6-1.2,0.9-1.9,0.9c-0.7,0-1.4-0.2-1.8-0.6c-0.5-0.5-0.7-1.1-0.7-1.9v-4.4h1V59
		c0,1.2,0.6,1.8,1.7,1.8c1,0,1.7-0.6,1.7-1.8v-4.2h1v6.9H283.9z"/>
	<path class="st9" d="M299.7,61.6v-4.2c0-1.2-0.7-1.8-1.7-1.8c-1,0-1.7,0.6-1.7,1.7v4.4h-1v-4.2c0-1.2-0.7-1.8-1.7-1.8
		s-1.7,0.6-1.7,1.8v4.2h-1v-6.9h1v0.8c0.5-0.6,1.2-0.8,1.9-0.8c1,0,1.7,0.4,2.1,1.1c0.5-0.8,1.3-1.1,2.3-1.1c0.7,0,1.4,0.2,1.8,0.6
		c0.5,0.5,0.7,1.1,0.7,1.9v4.4H299.7z"/>
	<path class="st9" d="M307.5,61.6v-0.8c-0.5,0.6-1.2,0.9-1.9,0.9c-0.7,0-1.4-0.2-1.8-0.6c-0.5-0.5-0.7-1.1-0.7-1.9v-4.4h1V59
		c0,1.2,0.6,1.8,1.7,1.8c1,0,1.7-0.6,1.7-1.8v-4.2h1v6.9H307.5z"/>
	<path class="st9" d="M313.2,61.7c-1.2,0-2.1-0.3-2.8-1l0.7-0.7c0.5,0.6,1.3,0.8,2.1,0.8c1.1,0,1.8-0.4,1.8-1.2c0-0.6-0.4-0.9-1.1-1
		l-1.1-0.1c-1.3-0.1-2.1-0.7-2.1-1.8c0-1.3,1.1-2,2.5-2c1,0,1.9,0.2,2.5,0.7l-0.7,0.7c-0.5-0.4-1.1-0.5-1.8-0.5
		c-1,0-1.5,0.4-1.5,1.1c0,0.6,0.3,0.9,1.2,1l1.1,0.1c1.2,0.1,2,0.6,2,1.9C316,60.9,314.9,61.7,313.2,61.7z"/>
	<path class="st9" d="M319.8,61.6c-1.2,0-1.8-0.8-1.8-1.8v-4.2h-0.9v-0.8h0.9v-2.2h1v2.2h1.5v0.8H319v4.2c0,0.6,0.3,1,0.9,1h0.5v0.9
		H319.8z"/>
	<path class="st9" d="M51,80.6V80c-0.6,0.6-1.1,0.7-2,0.7c-1,0-1.5-0.2-1.9-0.6c-0.3-0.3-0.5-0.9-0.5-1.4c0-1.2,0.8-2,2.4-2H51V76
		c0-1-0.5-1.5-1.8-1.5c-0.9,0-1.3,0.2-1.7,0.8l-0.7-0.6c0.6-0.8,1.3-1,2.4-1c1.8,0,2.8,0.8,2.8,2.3v4.7H51z M51,77.4H49
		c-1,0-1.5,0.4-1.5,1.2s0.5,1.2,1.6,1.2c0.6,0,1.1,0,1.5-0.5c0.2-0.2,0.4-0.6,0.4-1.2V77.4z"/>
	<path class="st9" d="M56.6,83.8c-1,0-1.6-0.3-2.3-0.9l0.7-0.6c0.5,0.4,0.9,0.7,1.7,0.7c1.3,0,1.9-0.9,1.9-2.1v-1.1
		c-0.6,0.7-1.2,0.9-1.9,0.9c-0.7,0-1.3-0.3-1.7-0.6c-0.7-0.7-0.8-1.8-0.8-2.9s0.2-2.2,0.8-2.9c0.4-0.4,1-0.6,1.7-0.6
		c0.8,0,1.4,0.2,1.9,0.9v-0.8h1v7.1C59.5,82.5,58.4,83.8,56.6,83.8z M56.8,74.5c-1.5,0-1.7,1.3-1.7,2.6s0.2,2.6,1.7,2.6
		c1.5,0,1.7-1.3,1.7-2.6S58.3,74.5,56.8,74.5z"/>
	<path class="st9" d="M65.9,75c-0.4-0.4-0.7-0.5-1.2-0.5c-1,0-1.7,0.8-1.7,1.8v4.2h-1v-6.9h1v0.8c0.4-0.6,1.1-0.9,1.9-0.9
		c0.7,0,1.2,0.2,1.7,0.6L65.9,75z"/>
	<path class="st9" d="M68.1,77.4c0,1.5,0.7,2.4,2,2.4c0.8,0,1.3-0.2,1.8-0.8l0.7,0.6c-0.7,0.7-1.3,1.1-2.5,1.1c-1.8,0-3-1.1-3-3.5
		c0-2.2,1.1-3.5,2.8-3.5c1.8,0,2.8,1.3,2.8,3.3v0.5H68.1z M71.5,75.5c-0.3-0.6-0.9-1-1.6-1s-1.3,0.4-1.6,1c-0.2,0.4-0.2,0.6-0.2,1.1
		h3.6C71.7,76.1,71.7,75.9,71.5,75.5z"/>
	<path class="st9" d="M75.5,77.4c0,1.5,0.7,2.4,2,2.4c0.8,0,1.3-0.2,1.8-0.8l0.7,0.6c-0.7,0.7-1.3,1.1-2.5,1.1c-1.8,0-3-1.1-3-3.5
		c0-2.2,1.1-3.5,2.8-3.5c1.8,0,2.8,1.3,2.8,3.3v0.5H75.5z M78.9,75.5c-0.3-0.6-0.9-1-1.6-1s-1.3,0.4-1.6,1c-0.2,0.4-0.2,0.6-0.2,1.1
		h3.6C79.1,76.1,79.1,75.9,78.9,75.5z"/>
	<path class="st9" d="M87.7,80.6c-1.2,0-1.8-0.8-1.8-1.8v-4.2h-0.9v-0.8h0.9v-2.2h1v2.2h1.5v0.8h-1.5v4.2c0,0.6,0.3,1,0.9,1h0.5v0.9
		H87.7z"/>
	<path class="st9" d="M94.7,79.9c-0.5,0.5-1.1,0.8-2,0.8s-1.5-0.3-2-0.8c-0.7-0.7-0.8-1.7-0.8-2.7s0.1-2,0.8-2.7
		c0.5-0.5,1.1-0.8,2-0.8s1.5,0.3,2,0.8c0.7,0.7,0.8,1.7,0.8,2.7S95.4,79.2,94.7,79.9z M94,75c-0.3-0.3-0.8-0.5-1.3-0.5
		s-0.9,0.2-1.2,0.5c-0.5,0.5-0.6,1.4-0.6,2.1s0.1,1.6,0.6,2.1c0.3,0.3,0.8,0.5,1.2,0.5s0.9-0.2,1.3-0.5c0.5-0.5,0.5-1.4,0.5-2.1
		S94.5,75.5,94,75z"/>
	<path class="st9" d="M103.1,80.6c-1.2,0-1.8-0.8-1.8-1.8v-4.2h-0.9v-0.8h0.9v-2.2h1v2.2h1.5v0.8h-1.5v4.2c0,0.6,0.3,1,0.9,1h0.5
		v0.9H103.1z"/>
	<path class="st9" d="M110.3,80.6v-4.3c0-1.2-0.6-1.8-1.7-1.8s-1.7,0.6-1.7,1.8v4.3h-1v-10h1v3.8c0.5-0.6,1.2-0.8,1.9-0.8
		c1.6,0,2.5,1,2.5,2.5v4.4H110.3z"/>
	<path class="st9" d="M114.3,77.4c0,1.5,0.7,2.4,2,2.4c0.8,0,1.3-0.2,1.8-0.8l0.7,0.6c-0.7,0.7-1.3,1.1-2.5,1.1c-1.8,0-3-1.1-3-3.5
		c0-2.2,1.1-3.5,2.8-3.5c1.8,0,2.8,1.3,2.8,3.3v0.5H114.3z M117.8,75.5c-0.3-0.6-0.9-1-1.6-1s-1.3,0.4-1.6,1
		c-0.2,0.4-0.2,0.6-0.2,1.1h3.6C118,76.1,117.9,75.9,117.8,75.5z"/>
	<path class="st9" d="M123.3,80.7c-1.2,0-2.1-0.3-2.8-1l0.7-0.7c0.5,0.6,1.3,0.8,2.1,0.8c1.1,0,1.8-0.4,1.8-1.2c0-0.6-0.3-0.9-1.1-1
		l-1.1-0.1c-1.3-0.1-2.1-0.7-2.1-1.8c0-1.3,1.1-2,2.5-2c1,0,1.9,0.2,2.5,0.7l-0.7,0.7c-0.5-0.4-1.1-0.5-1.8-0.5
		c-1,0-1.5,0.4-1.5,1.1c0,0.6,0.3,0.9,1.2,1l1.1,0.1c1.2,0.1,2,0.6,2,1.9C126.1,79.9,125,80.7,123.3,80.7z"/>
	<path class="st9" d="M128.7,77.4c0,1.5,0.7,2.4,2,2.4c0.8,0,1.3-0.2,1.8-0.8l0.7,0.6c-0.7,0.7-1.3,1.1-2.5,1.1c-1.8,0-3-1.1-3-3.5
		c0-2.2,1.1-3.5,2.8-3.5c1.8,0,2.8,1.3,2.8,3.3v0.5H128.7z M132.1,75.5c-0.3-0.6-0.9-1-1.6-1s-1.3,0.4-1.6,1
		c-0.2,0.4-0.2,0.6-0.2,1.1h3.6C132.3,76.1,132.3,75.9,132.1,75.5z"/>
	<path class="st9" d="M140.9,80.6c-1.2,0-1.8-0.8-1.8-1.8v-4.2h-0.9v-0.8h0.9v-2.2h1v2.2h1.5v0.8h-1.5v4.2c0,0.6,0.3,1,0.9,1h0.5
		v0.9H140.9z"/>
	<path class="st9" d="M144.2,77.4c0,1.5,0.7,2.4,2,2.4c0.8,0,1.3-0.2,1.8-0.8l0.7,0.6c-0.7,0.7-1.3,1.1-2.5,1.1c-1.8,0-3-1.1-3-3.5
		c0-2.2,1.1-3.5,2.8-3.5c1.8,0,2.8,1.3,2.8,3.3v0.5H144.2z M147.6,75.5c-0.3-0.6-0.9-1-1.6-1s-1.3,0.4-1.6,1
		c-0.2,0.4-0.2,0.6-0.2,1.1h3.6C147.8,76.1,147.7,75.9,147.6,75.5z"/>
	<path class="st9" d="M154.8,75c-0.4-0.4-0.7-0.5-1.2-0.5c-1,0-1.7,0.8-1.7,1.8v4.2h-1v-6.9h1v0.8c0.4-0.6,1.1-0.9,1.9-0.9
		c0.7,0,1.2,0.2,1.7,0.6L154.8,75z"/>
	<path class="st9" d="M165.7,80.6v-4.2c0-1.2-0.7-1.8-1.7-1.8c-1,0-1.7,0.6-1.7,1.7v4.4h-1v-4.2c0-1.2-0.7-1.8-1.7-1.8
		s-1.7,0.6-1.7,1.8v4.2h-1v-6.9h1v0.8c0.5-0.6,1.2-0.8,1.9-0.8c1,0,1.7,0.4,2.1,1.1c0.5-0.8,1.3-1.1,2.3-1.1c0.7,0,1.4,0.2,1.8,0.6
		c0.5,0.5,0.7,1.1,0.7,1.9v4.4H165.7z"/>
	<path class="st9" d="M171.3,80.7c-1.2,0-2.1-0.3-2.8-1l0.7-0.7c0.5,0.6,1.3,0.8,2.1,0.8c1.1,0,1.8-0.4,1.8-1.2c0-0.6-0.4-0.9-1.1-1
		l-1.1-0.1c-1.3-0.1-2.1-0.7-2.1-1.8c0-1.3,1.1-2,2.5-2c1,0,1.9,0.2,2.5,0.7l-0.7,0.7c-0.5-0.4-1.1-0.5-1.8-0.5
		c-1,0-1.5,0.4-1.5,1.1c0,0.6,0.3,0.9,1.2,1l1.1,0.1c1.2,0.1,2,0.6,2,1.9C174.1,79.9,173,80.7,171.3,80.7z"/>
	<path class="st9" d="M183.5,80.6V80c-0.6,0.6-1.1,0.7-2,0.7c-1,0-1.5-0.2-1.9-0.6c-0.3-0.3-0.5-0.9-0.5-1.4c0-1.2,0.8-2,2.4-2h2.1
		V76c0-1-0.5-1.5-1.8-1.5c-0.9,0-1.3,0.2-1.7,0.8l-0.7-0.6c0.6-0.8,1.3-1,2.4-1c1.8,0,2.8,0.8,2.8,2.3v4.7H183.5z M183.5,77.4h-1.9
		c-1,0-1.5,0.4-1.5,1.2s0.5,1.2,1.6,1.2c0.6,0,1.1,0,1.5-0.5c0.2-0.2,0.4-0.6,0.4-1.2V77.4z"/>
	<path class="st9" d="M191.3,80.6v-4.2c0-1.2-0.7-1.8-1.7-1.8c-1,0-1.7,0.6-1.7,1.8v4.2h-1v-6.9h1v0.8c0.5-0.6,1.2-0.8,1.9-0.8
		c0.7,0,1.3,0.2,1.8,0.6c0.5,0.5,0.7,1.1,0.7,1.9v4.4H191.3z"/>
	<path class="st9" d="M198.9,80.6v-0.8c-0.6,0.7-1.2,0.9-2,0.9c-0.7,0-1.3-0.2-1.7-0.6c-0.7-0.7-0.8-1.8-0.8-2.9s0.1-2.2,0.8-2.9
		c0.4-0.4,1-0.6,1.7-0.6c0.8,0,1.4,0.2,1.9,0.9v-3.9h1v10H198.9z M197.2,74.5c-1.5,0-1.7,1.3-1.7,2.6s0.2,2.6,1.7,2.6
		c1.5,0,1.7-1.3,1.7-2.6S198.7,74.5,197.2,74.5z"/>
	<path class="st9" d="M208.6,80.7c-1.7,0-3.1-1.2-3.1-3.5c0-2.4,1.3-3.5,3.1-3.5c1,0,1.6,0.3,2.3,1l-0.7,0.6
		c-0.5-0.6-0.9-0.8-1.6-0.8c-0.7,0-1.2,0.3-1.6,0.8c-0.3,0.4-0.4,1-0.4,1.8c0,0.9,0.1,1.4,0.4,1.8c0.4,0.5,0.9,0.8,1.6,0.8
		c0.7,0,1.1-0.2,1.6-0.8l0.7,0.7C210.2,80.4,209.5,80.7,208.6,80.7z"/>
	<path class="st9" d="M217,79.9c-0.5,0.5-1.1,0.8-2,0.8s-1.5-0.3-2-0.8c-0.7-0.7-0.8-1.7-0.8-2.7s0.1-2,0.8-2.7
		c0.5-0.5,1.1-0.8,2-0.8s1.5,0.3,2,0.8c0.7,0.7,0.8,1.7,0.8,2.7S217.7,79.2,217,79.9z M216.3,75c-0.3-0.3-0.8-0.5-1.3-0.5
		s-0.9,0.2-1.2,0.5c-0.5,0.5-0.6,1.4-0.6,2.1s0.1,1.6,0.6,2.1c0.3,0.3,0.8,0.5,1.2,0.5s0.9-0.2,1.3-0.5c0.5-0.5,0.5-1.4,0.5-2.1
		S216.8,75.5,216.3,75z"/>
	<path class="st9" d="M224.4,80.6v-4.2c0-1.2-0.7-1.8-1.7-1.8c-1,0-1.7,0.6-1.7,1.8v4.2h-1v-6.9h1v0.8c0.5-0.6,1.2-0.8,1.9-0.8
		c0.7,0,1.3,0.2,1.8,0.6c0.5,0.5,0.7,1.1,0.7,1.9v4.4H224.4z"/>
	<path class="st9" d="M232,80.6v-0.8c-0.6,0.7-1.2,0.9-2,0.9c-0.7,0-1.3-0.2-1.7-0.6c-0.7-0.7-0.8-1.8-0.8-2.9s0.1-2.2,0.8-2.9
		c0.4-0.4,1-0.6,1.7-0.6c0.8,0,1.4,0.2,1.9,0.9v-3.9h1v10H232z M230.2,74.5c-1.5,0-1.7,1.3-1.7,2.6s0.2,2.6,1.7,2.6
		c1.5,0,1.7-1.3,1.7-2.6S231.7,74.5,230.2,74.5z"/>
	<path class="st9" d="M235.4,71.8v-1.1h1.1v1.1H235.4z M235.5,80.6v-6.9h1v6.9H235.5z"/>
	<path class="st9" d="M241,80.6c-1.2,0-1.8-0.8-1.8-1.8v-4.2h-0.9v-0.8h0.9v-2.2h1v2.2h1.5v0.8h-1.5v4.2c0,0.6,0.3,1,0.9,1h0.5v0.9
		H241z"/>
	<path class="st9" d="M243.6,71.8v-1.1h1.1v1.1H243.6z M243.7,80.6v-6.9h1v6.9H243.7z"/>
	<path class="st9" d="M251.6,79.9c-0.5,0.5-1.1,0.8-2,0.8s-1.5-0.3-2-0.8c-0.7-0.7-0.8-1.7-0.8-2.7s0.1-2,0.8-2.7
		c0.5-0.5,1.1-0.8,2-0.8s1.5,0.3,2,0.8c0.7,0.7,0.8,1.7,0.8,2.7S252.3,79.2,251.6,79.9z M250.9,75c-0.3-0.3-0.8-0.5-1.3-0.5
		s-0.9,0.2-1.2,0.5c-0.5,0.5-0.6,1.4-0.6,2.1s0.1,1.6,0.6,2.1c0.3,0.3,0.8,0.5,1.2,0.5s0.9-0.2,1.3-0.5c0.5-0.5,0.5-1.4,0.5-2.1
		S251.4,75.5,250.9,75z"/>
	<path class="st9" d="M259.1,80.6v-4.2c0-1.2-0.7-1.8-1.7-1.8c-1,0-1.7,0.6-1.7,1.8v4.2h-1v-6.9h1v0.8c0.5-0.6,1.2-0.8,1.9-0.8
		c0.7,0,1.3,0.2,1.8,0.6c0.5,0.5,0.7,1.1,0.7,1.9v4.4H259.1z"/>
	<path class="st9" d="M264.7,80.7c-1.2,0-2.1-0.3-2.8-1l0.7-0.7c0.5,0.6,1.3,0.8,2.1,0.8c1.1,0,1.8-0.4,1.8-1.2c0-0.6-0.4-0.9-1.1-1
		l-1.1-0.1c-1.3-0.1-2.1-0.7-2.1-1.8c0-1.3,1.1-2,2.5-2c1,0,1.9,0.2,2.5,0.7l-0.7,0.7c-0.5-0.4-1.1-0.5-1.8-0.5
		c-1,0-1.5,0.4-1.5,1.1c0,0.6,0.3,0.9,1.2,1l1.1,0.1c1.2,0.1,2,0.6,2,1.9C267.5,79.9,266.3,80.7,264.7,80.7z"/>
</g>
<rect x="47.1" y="98.2" class="st10" width="321" height="123"/>
<g>
	<rect x="57.4" y="113.7" class="st8" width="291.6" height="107.4"/>
	<path class="st9" d="M61.8,118.7h-2.3v3.5h-0.9v-8.5h3.2c1.6,0,2.6,1,2.6,2.5S63.4,118.7,61.8,118.7z M61.8,114.5h-2.2v3.4h2.2
		c1.1,0,1.8-0.6,1.8-1.7S62.8,114.5,61.8,114.5z"/>
	<path class="st9" d="M66.2,122.3v-8.5h0.9v7.7h4.4v0.8H66.2z"/>
	<path class="st9" d="M73.1,122.3v-8.5h5.3v0.8H74v3h3.7v0.8H74v3.1h4.4v0.8H73.1z"/>
	<path class="st9" d="M85.3,122.3l-0.7-1.9h-3.7l-0.7,1.9h-1l3.1-8.5h0.8l3.1,8.5H85.3z M82.7,115l-1.6,4.5h3.2L82.7,115z"/>
	<path class="st9" d="M89.8,122.3c-1.3,0-2.1-0.3-2.9-1.1l0.6-0.6c0.7,0.7,1.4,0.9,2.3,0.9c1.2,0,2-0.6,2-1.6c0-0.4-0.1-0.8-0.4-1.1
		s-0.5-0.3-1.1-0.4l-1-0.2c-0.7-0.1-1.2-0.3-1.6-0.6c-0.4-0.4-0.6-0.9-0.6-1.6c0-1.5,1-2.4,2.7-2.4c1.1,0,1.8,0.3,2.5,0.9l-0.6,0.6
		c-0.5-0.5-1.1-0.7-2-0.7c-1.1,0-1.8,0.6-1.8,1.6c0,0.4,0.1,0.8,0.4,1c0.3,0.2,0.7,0.4,1.2,0.5l0.9,0.1c0.8,0.1,1.2,0.3,1.6,0.6
		c0.5,0.4,0.7,1,0.7,1.7C92.8,121.4,91.6,122.3,89.8,122.3z"/>
	<path class="st9" d="M94.7,122.3v-8.5h5.3v0.8h-4.4v3h3.7v0.8h-3.7v3.1h4.4v0.8H94.7z"/>
	<path class="st9" d="M109.8,122.3l-1.9-3.8h-2.1v3.8h-0.9v-8.5h3.3c1.5,0,2.5,0.9,2.5,2.4c0,1.2-0.8,2.1-1.9,2.3l2,3.9H109.8z
		 M108.1,114.5h-2.3v3.1h2.3c1,0,1.7-0.5,1.7-1.6S109.1,114.5,108.1,114.5z"/>
	<path class="st9" d="M112.7,122.3v-8.5h5.3v0.8h-4.4v3h3.7v0.8h-3.7v3.1h4.4v0.8H112.7z"/>
	<path class="st9" d="M124.9,122.3l-0.7-1.9h-3.7l-0.7,1.9h-1l3.1-8.5h0.8l3.1,8.5H124.9z M122.4,115l-1.6,4.5h3.2L122.4,115z"/>
	<path class="st9" d="M132.4,121.5c-0.5,0.5-1.3,0.8-2.2,0.8h-2.9v-8.5h2.9c0.9,0,1.6,0.3,2.2,0.8c0.9,0.9,0.8,2.2,0.8,3.4
		C133.2,119.1,133.3,120.6,132.4,121.5z M131.7,115.2c-0.4-0.5-1-0.6-1.7-0.6h-1.9v6.9h1.9c0.7,0,1.2-0.2,1.7-0.6
		c0.6-0.6,0.6-1.9,0.6-2.9S132.3,115.8,131.7,115.2z"/>
	<path class="st9" d="M140.9,114.5v7.7h-0.9v-7.7h-2.5v-0.8h5.9v0.8H140.9z"/>
	<path class="st9" d="M149.9,122.3v-3.9h-4.1v3.9h-0.9v-8.5h0.9v3.8h4.1v-3.8h0.9v8.5H149.9z"/>
	<path class="st9" d="M153.3,122.3v-8.5h0.9v8.5H153.3z"/>
	<path class="st9" d="M158.8,122.3c-1.3,0-2.1-0.3-2.9-1.1l0.6-0.6c0.7,0.7,1.4,0.9,2.3,0.9c1.2,0,2-0.6,2-1.6
		c0-0.4-0.1-0.8-0.4-1.1c-0.3-0.2-0.5-0.3-1.1-0.4l-1-0.2c-0.7-0.1-1.2-0.3-1.6-0.6c-0.4-0.4-0.6-0.9-0.6-1.6c0-1.5,1-2.4,2.7-2.4
		c1.1,0,1.8,0.3,2.5,0.9l-0.6,0.6c-0.5-0.5-1.1-0.7-2-0.7c-1.1,0-1.8,0.6-1.8,1.6c0,0.4,0.1,0.8,0.4,1c0.3,0.2,0.7,0.4,1.2,0.5
		l0.9,0.1c0.8,0.1,1.2,0.3,1.6,0.6c0.5,0.4,0.7,1,0.7,1.7C161.8,121.4,160.6,122.3,158.8,122.3z"/>
	<path class="st9" d="M168.9,122.3c-1.3,0-2.1-0.3-2.9-1.1l0.6-0.6c0.7,0.7,1.4,0.9,2.3,0.9c1.2,0,2-0.6,2-1.6
		c0-0.4-0.1-0.8-0.4-1.1c-0.3-0.2-0.5-0.3-1.1-0.4l-1-0.2c-0.7-0.1-1.2-0.3-1.6-0.6c-0.4-0.4-0.6-0.9-0.6-1.6c0-1.5,1-2.4,2.7-2.4
		c1.1,0,1.8,0.3,2.5,0.9l-0.6,0.6c-0.5-0.5-1.1-0.7-2-0.7c-1.1,0-1.8,0.6-1.8,1.6c0,0.4,0.1,0.8,0.4,1c0.3,0.2,0.7,0.4,1.2,0.5
		l0.9,0.1c0.8,0.1,1.2,0.3,1.6,0.6c0.5,0.4,0.7,1,0.7,1.7C171.8,121.4,170.7,122.3,168.9,122.3z"/>
	<path class="st9" d="M178.6,121.4c-0.6,0.6-1.3,0.9-2.2,0.9s-1.6-0.3-2.2-0.9c-0.8-0.8-0.8-1.6-0.8-3.5s0-2.7,0.8-3.5
		c0.6-0.6,1.3-0.9,2.2-0.9s1.6,0.3,2.2,0.9c0.8,0.8,0.8,1.6,0.8,3.5S179.4,120.6,178.6,121.4z M177.9,115.1
		c-0.4-0.4-0.9-0.6-1.5-0.6c-0.6,0-1.1,0.2-1.5,0.6c-0.5,0.6-0.6,1.1-0.6,2.9s0.1,2.4,0.6,2.9c0.4,0.4,0.9,0.6,1.5,0.6
		c0.6,0,1.1-0.2,1.5-0.6c0.5-0.6,0.6-1.1,0.6-2.9S178.4,115.6,177.9,115.1z"/>
	<path class="st9" d="M182.5,114.5v3.1h3.7v0.8h-3.7v3.8h-0.9v-8.5h5.3v0.8H182.5z"/>
	<path class="st9" d="M191,114.5v7.7h-0.9v-7.7h-2.5v-0.8h5.9v0.8H191z"/>
	<path class="st9" d="M201.7,122.3h-0.9l-1.9-6.8l-1.9,6.8h-0.9l-2.2-8.5h1l1.7,6.9l1.9-6.9h0.8l1.9,6.9l1.7-6.9h1L201.7,122.3z"/>
	<path class="st9" d="M210.2,122.3l-0.7-1.9h-3.7l-0.7,1.9h-1l3.1-8.5h0.8l3.1,8.5H210.2z M207.7,115l-1.6,4.5h3.2L207.7,115z"/>
	<path class="st9" d="M217.4,122.3l-1.9-3.8h-2.1v3.8h-0.9v-8.5h3.3c1.5,0,2.5,0.9,2.5,2.4c0,1.2-0.8,2.1-1.9,2.3l2,3.9H217.4z
		 M215.7,114.5h-2.3v3.1h2.3c1,0,1.7-0.5,1.7-1.6S216.7,114.5,215.7,114.5z"/>
	<path class="st9" d="M220.4,122.3v-8.5h5.3v0.8h-4.4v3h3.7v0.8h-3.7v3.1h4.4v0.8H220.4z"/>
	<path class="st9" d="M230.6,122.3v-8.5h0.9v7.7h4.4v0.8H230.6z"/>
	<path class="st9" d="M237.5,122.3v-8.5h0.9v8.5H237.5z"/>
	<path class="st9" d="M243.5,122.3c-0.8,0-1.6-0.3-2.2-0.9c-0.8-0.8-0.8-1.6-0.8-3.5s0-2.7,0.8-3.5c0.6-0.6,1.3-0.9,2.2-0.9
		c1.5,0,2.7,0.9,3,2.5h-0.9c-0.2-1-1-1.7-2-1.7c-0.6,0-1.1,0.2-1.5,0.6c-0.5,0.6-0.6,1.1-0.6,2.9s0.1,2.4,0.6,2.9
		c0.4,0.4,0.9,0.6,1.5,0.6c1.1,0,1.8-0.7,2.1-1.7h0.9C246.2,121.4,245,122.3,243.5,122.3z"/>
	<path class="st9" d="M248.5,122.3v-8.5h5.3v0.8h-4.4v3h3.7v0.8h-3.7v3.1h4.4v0.8H248.5z"/>
	<path class="st9" d="M261.1,122.3l-4.5-6.8v6.8h-0.9v-8.5h0.9l4.5,6.8v-6.8h0.9v8.5H261.1z"/>
	<path class="st9" d="M266.7,122.3c-1.3,0-2.1-0.3-2.9-1.1l0.6-0.6c0.7,0.7,1.4,0.9,2.3,0.9c1.2,0,2-0.6,2-1.6
		c0-0.4-0.1-0.8-0.4-1.1c-0.3-0.2-0.5-0.3-1.1-0.4l-1-0.2c-0.7-0.1-1.2-0.3-1.6-0.6c-0.4-0.4-0.6-0.9-0.6-1.6c0-1.5,1-2.4,2.7-2.4
		c1.1,0,1.8,0.3,2.5,0.9l-0.6,0.6c-0.5-0.5-1.1-0.7-2-0.7c-1.1,0-1.8,0.6-1.8,1.6c0,0.4,0.1,0.8,0.4,1c0.3,0.2,0.7,0.4,1.2,0.5
		l0.9,0.1c0.8,0.1,1.2,0.3,1.6,0.6c0.5,0.4,0.7,1,0.7,1.7C269.6,121.4,268.5,122.3,266.7,122.3z"/>
	<path class="st9" d="M271.5,122.3v-8.5h5.3v0.8h-4.4v3h3.7v0.8h-3.7v3.1h4.4v0.8H271.5z"/>
	<path class="st9" d="M286.7,122.3l-0.7-1.9h-3.7l-0.7,1.9h-1l3.1-8.5h0.8l3.1,8.5H286.7z M284.2,115l-1.6,4.5h3.2L284.2,115z"/>
	<path class="st9" d="M293.9,121.3c-0.6,0.6-1.4,1-2.3,1c-0.8,0-1.6-0.3-2.2-0.9c-0.8-0.8-0.8-1.6-0.8-3.5s0-2.7,0.8-3.5
		c0.6-0.6,1.3-0.9,2.2-0.9c1.6,0,2.7,1.1,3,2.6h-0.9c-0.2-1.1-1-1.7-2.1-1.7c-0.6,0-1.1,0.2-1.5,0.6c-0.5,0.6-0.6,1.1-0.6,2.9
		s0.1,2.4,0.6,2.9c0.4,0.4,0.9,0.6,1.5,0.6c0.6,0,1.2-0.3,1.6-0.7c0.3-0.4,0.5-0.9,0.5-1.5v-0.6h-2.1v-0.8h3v1.4
		C294.6,120.1,294.4,120.8,293.9,121.3z"/>
	<path class="st9" d="M301.6,122.3l-1.9-3.8h-2.1v3.8h-0.9v-8.5h3.3c1.5,0,2.5,0.9,2.5,2.4c0,1.2-0.8,2.1-1.9,2.3l2,3.9H301.6z
		 M299.9,114.5h-2.3v3.1h2.3c1,0,1.7-0.5,1.7-1.6S300.9,114.5,299.9,114.5z"/>
	<path class="st9" d="M304.6,122.3v-8.5h5.3v0.8h-4.4v3h3.7v0.8h-3.7v3.1h4.4v0.8H304.6z"/>
	<path class="st9" d="M311.8,122.3v-8.5h5.3v0.8h-4.4v3h3.7v0.8h-3.7v3.1h4.4v0.8H311.8z"/>
	<path class="st9" d="M318.7,119.4v-0.8h3.3v0.8H318.7z"/>
	<path class="st9" d="M65.1,137.3v-6.5l-2.3,5.1H62l-2.4-5.1v6.5h-0.9v-8.5h0.9l2.8,6.1l2.7-6.1H66v8.5H65.1z"/>
	<path class="st9" d="M68.5,137.3v-8.5h5.3v0.8h-4.4v3h3.7v0.8h-3.7v3.1h4.4v0.8H68.5z"/>
	<path class="st9" d="M81.1,137.3l-4.5-6.8v6.8h-0.9v-8.5h0.9l4.5,6.8v-6.8H82v8.5H81.1z"/>
	<path class="st9" d="M86.9,129.5v7.7H86v-7.7h-2.5v-0.8h5.9v0.8H86.9z"/>
	<path class="st9" d="M95,138.4c-0.4-0.4-0.6-0.6-0.9-1c-0.2-0.4-0.3-0.8-0.3-1.2v-6.3c0-0.4,0-0.8,0.3-1.2c0.2-0.4,0.5-0.6,0.9-1
		l0.6,0.6c-0.3,0.3-0.5,0.5-0.6,0.8c-0.1,0.2-0.2,0.6-0.2,1v6.1c0,0.4,0.1,0.7,0.2,1c0.2,0.3,0.4,0.5,0.6,0.8L95,138.4z"/>
	<path class="st9" d="M97.4,130.7v-2h1v1L97.4,130.7z M99.4,130.7v-2h1.1v1L99.4,130.7z"/>
	<path class="st9" d="M102.8,137.3v-8.5h0.9v7.7h4.4v0.8H102.8z"/>
	<path class="st9" d="M109.7,137.3v-8.5h0.9v8.5H109.7z"/>
	<path class="st9" d="M115.7,137.3c-0.8,0-1.6-0.3-2.2-0.9c-0.8-0.8-0.8-1.6-0.8-3.5s0-2.7,0.8-3.5c0.6-0.6,1.3-0.9,2.2-0.9
		c1.5,0,2.7,0.9,3,2.5h-0.9c-0.2-1-1-1.7-2-1.7c-0.6,0-1.1,0.2-1.5,0.6c-0.5,0.6-0.6,1.1-0.6,2.9s0.1,2.4,0.6,2.9
		c0.4,0.4,0.9,0.6,1.5,0.6c1.1,0,1.8-0.7,2.1-1.7h0.9C118.4,136.4,117.2,137.3,115.7,137.3z"/>
	<path class="st9" d="M120.7,137.3v-8.5h5.3v0.8h-4.4v3h3.7v0.8h-3.7v3.1h4.4v0.8H120.7z"/>
	<path class="st9" d="M133.3,137.3l-4.5-6.8v6.8h-0.9v-8.5h0.9l4.5,6.8v-6.8h0.9v8.5H133.3z"/>
	<path class="st9" d="M138.9,137.3c-1.3,0-2.1-0.3-2.9-1.1l0.6-0.6c0.7,0.7,1.4,0.9,2.3,0.9c1.2,0,2-0.6,2-1.6
		c0-0.4-0.1-0.8-0.4-1.1c-0.3-0.2-0.5-0.3-1.1-0.4l-1-0.2c-0.7-0.1-1.2-0.3-1.6-0.6c-0.4-0.4-0.6-0.9-0.6-1.6c0-1.5,1-2.4,2.7-2.4
		c1.1,0,1.8,0.3,2.5,0.9l-0.6,0.6c-0.5-0.5-1.1-0.7-2-0.7c-1.1,0-1.8,0.6-1.8,1.6c0,0.4,0.1,0.8,0.4,1c0.3,0.2,0.7,0.4,1.2,0.5
		l0.9,0.1c0.8,0.1,1.2,0.3,1.6,0.6c0.5,0.4,0.7,1,0.7,1.7C141.8,136.4,140.6,137.3,138.9,137.3z"/>
	<path class="st9" d="M143.7,137.3v-8.5h5.3v0.8h-4.4v3h3.7v0.8h-3.7v3.1h4.4v0.8H143.7z"/>
	<path class="st9" d="M150.8,130.7v-2h1v1L150.8,130.7z M152.8,130.7v-2h1.1v1L152.8,130.7z"/>
	<path class="st9" d="M157.1,137.4c-0.2,0.4-0.5,0.6-0.9,1l-0.6-0.6c0.3-0.3,0.5-0.5,0.7-0.8c0.1-0.2,0.2-0.6,0.2-0.9v-6.1
		c0-0.4,0-0.7-0.2-0.9c-0.2-0.3-0.4-0.5-0.7-0.8l0.6-0.6c0.4,0.4,0.6,0.6,0.9,1s0.2,0.8,0.2,1.2v6.3
		C157.4,136.5,157.3,137,157.1,137.4z"/>
	<path class="st9" d="M165.4,137.3c-0.8,0-1.6-0.3-2.2-0.9c-0.8-0.8-0.8-1.6-0.8-3.5s0-2.7,0.8-3.5c0.6-0.6,1.3-0.9,2.2-0.9
		c1.5,0,2.7,0.9,3,2.5h-0.9c-0.2-1-1-1.7-2-1.7c-0.6,0-1.1,0.2-1.5,0.6c-0.5,0.6-0.6,1.1-0.6,2.9s0.1,2.4,0.6,2.9
		c0.4,0.4,0.9,0.6,1.5,0.6c1.1,0,1.8-0.7,2.1-1.7h0.9C168.1,136.4,166.9,137.3,165.4,137.3z"/>
	<path class="st9" d="M175.2,137.3l-0.7-1.9h-3.7l-0.7,1.9h-1l3.1-8.5h0.8l3.1,8.5H175.2z M172.7,130l-1.6,4.5h3.2L172.7,130z"/>
	<path class="st9" d="M182.5,137.3l-1.9-3.8h-2.1v3.8h-0.9v-8.5h3.3c1.5,0,2.5,0.9,2.5,2.4c0,1.2-0.8,2.1-1.9,2.3l2,3.9H182.5z
		 M180.7,129.5h-2.3v3.1h2.3c1,0,1.7-0.5,1.7-1.6S181.7,129.5,180.7,129.5z"/>
	<path class="st9" d="M185.4,137.3v-8.5h5.3v0.8h-4.4v3h3.7v0.8h-3.7v3.1h4.4v0.8H185.4z"/>
	<path class="st9" d="M193.5,129.5v3.1h3.7v0.8h-3.7v3.8h-0.9v-8.5h5.3v0.8H193.5z"/>
	<path class="st9" d="M202.4,137.3c-1.7,0-3-1.2-3-2.9v-5.7h0.9v5.6c0,1.3,0.8,2.1,2.1,2.1s2.1-0.9,2.1-2.1v-5.6h0.9v5.7
		C205.4,136.1,204.2,137.3,202.4,137.3z"/>
	<path class="st9" d="M207.8,137.3v-8.5h0.9v7.7h4.4v0.8H207.8z"/>
	<path class="st9" d="M214.7,137.3v-8.5h0.9v7.7h4.4v0.8H214.7z"/>
	<path class="st9" d="M222.9,133.7v3.5H222v-3.5l-2.5-5h1l2,4.1l2-4.1h1L222.9,133.7z"/>
	<path class="st9" d="M233.1,137.3h-3.3v-8.5h3.2c1.5,0,2.5,0.9,2.5,2.3c0,0.9-0.5,1.6-1.3,1.9c0.8,0.3,1.4,1,1.4,2
		C235.6,136.4,234.6,137.3,233.1,137.3z M232.9,129.5h-2.2v3h2.2c0.9,0,1.7-0.5,1.7-1.5S233.8,129.5,232.9,129.5z M233,133.3h-2.3
		v3.1h2.3c1.1,0,1.7-0.6,1.7-1.6S234,133.3,233,133.3z"/>
	<path class="st9" d="M237.8,137.3v-8.5h5.3v0.8h-4.4v3h3.7v0.8h-3.7v3.1h4.4v0.8H237.8z"/>
	<path class="st9" d="M245.9,129.5v3.1h3.7v0.8h-3.7v3.8H245v-8.5h5.3v0.8H245.9z"/>
	<path class="st9" d="M256.5,136.4c-0.6,0.6-1.3,0.9-2.2,0.9s-1.6-0.3-2.2-0.9c-0.8-0.8-0.8-1.6-0.8-3.5s0-2.7,0.8-3.5
		c0.6-0.6,1.3-0.9,2.2-0.9s1.6,0.3,2.2,0.9c0.8,0.8,0.8,1.6,0.8,3.5S257.3,135.6,256.5,136.4z M255.8,130.1
		c-0.4-0.4-0.9-0.6-1.5-0.6c-0.6,0-1.1,0.2-1.5,0.6c-0.5,0.6-0.6,1.1-0.6,2.9s0.1,2.4,0.6,2.9c0.4,0.4,0.9,0.6,1.5,0.6
		c0.6,0,1.1-0.2,1.5-0.6c0.5-0.6,0.6-1.1,0.6-2.9S256.4,130.6,255.8,130.1z"/>
	<path class="st9" d="M264.4,137.3l-1.9-3.8h-2.1v3.8h-0.9v-8.5h3.3c1.5,0,2.5,0.9,2.5,2.4c0,1.2-0.8,2.1-1.9,2.3l2,3.9H264.4z
		 M262.7,129.5h-2.3v3.1h2.3c1,0,1.7-0.5,1.7-1.6S263.7,129.5,262.7,129.5z"/>
	<path class="st9" d="M267.3,137.3v-8.5h5.3v0.8h-4.4v3h3.7v0.8h-3.7v3.1h4.4v0.8H267.3z"/>
	<path class="st9" d="M280.4,137.3c-1.7,0-3-1.2-3-2.9v-5.7h0.9v5.6c0,1.3,0.8,2.1,2.1,2.1s2.1-0.9,2.1-2.1v-5.6h0.9v5.7
		C283.4,136.1,282.1,137.3,280.4,137.3z"/>
	<path class="st9" d="M287.9,137.3c-1.3,0-2.1-0.3-2.9-1.1l0.6-0.6c0.7,0.7,1.4,0.9,2.3,0.9c1.2,0,2-0.6,2-1.6
		c0-0.4-0.1-0.8-0.4-1.1c-0.3-0.2-0.5-0.3-1.1-0.4l-1-0.2c-0.7-0.1-1.2-0.3-1.6-0.6c-0.4-0.4-0.6-0.9-0.6-1.6c0-1.5,1-2.4,2.7-2.4
		c1.1,0,1.8,0.3,2.5,0.9l-0.6,0.6c-0.5-0.5-1.1-0.7-2-0.7c-1.1,0-1.8,0.6-1.8,1.6c0,0.4,0.1,0.8,0.4,1c0.3,0.2,0.7,0.4,1.2,0.5
		l0.9,0.1c0.8,0.1,1.2,0.3,1.6,0.6c0.5,0.4,0.7,1,0.7,1.7C290.9,136.4,289.7,137.3,287.9,137.3z"/>
	<path class="st9" d="M292.8,137.3v-8.5h0.9v8.5H292.8z"/>
	<path class="st9" d="M301.6,137.3l-4.5-6.8v6.8h-0.9v-8.5h0.9l4.5,6.8v-6.8h0.9v8.5H301.6z"/>
	<path class="st9" d="M309.9,136.3c-0.6,0.6-1.4,1-2.3,1c-0.8,0-1.6-0.3-2.2-0.9c-0.8-0.8-0.8-1.6-0.8-3.5s0-2.7,0.8-3.5
		c0.6-0.6,1.3-0.9,2.2-0.9c1.6,0,2.7,1.1,3,2.6h-0.9c-0.2-1.1-1-1.7-2.1-1.7c-0.6,0-1.1,0.2-1.5,0.6c-0.5,0.6-0.6,1.1-0.6,2.9
		s0.1,2.4,0.6,2.9c0.4,0.4,0.9,0.6,1.5,0.6c0.6,0,1.2-0.3,1.6-0.7c0.3-0.4,0.5-0.9,0.5-1.5v-0.6h-2.1v-0.8h3v1.4
		C310.6,135.1,310.4,135.8,309.9,136.3z"/>
	<path class="st9" d="M318.2,129.5v7.7h-0.9v-7.7h-2.5v-0.8h5.9v0.8H318.2z"/>
	<path class="st9" d="M327.3,137.3v-3.9h-4.1v3.9h-0.9v-8.5h0.9v3.8h4.1v-3.8h0.9v8.5H327.3z"/>
	<path class="st9" d="M330.7,137.3v-8.5h5.3v0.8h-4.4v3h3.7v0.8h-3.7v3.1h4.4v0.8H330.7z"/>
	<path class="st9" d="M60.9,152.3c-1.3,0-2.1-0.3-2.9-1.1l0.6-0.6c0.7,0.7,1.4,0.9,2.3,0.9c1.2,0,2-0.6,2-1.6c0-0.4-0.1-0.8-0.4-1.1
		s-0.5-0.3-1.1-0.4l-1-0.2c-0.7-0.1-1.2-0.3-1.6-0.6c-0.4-0.4-0.6-0.9-0.6-1.6c0-1.5,1-2.4,2.7-2.4c1.1,0,1.8,0.3,2.5,0.9l-0.6,0.6
		c-0.5-0.5-1.1-0.7-2-0.7c-1.1,0-1.8,0.6-1.8,1.6c0,0.4,0.1,0.8,0.4,1c0.3,0.2,0.7,0.4,1.2,0.5l0.9,0.1c0.8,0.1,1.2,0.3,1.6,0.6
		c0.5,0.4,0.7,1,0.7,1.7C63.8,151.4,62.6,152.3,60.9,152.3z"/>
	<path class="st9" d="M70.6,151.4c-0.6,0.6-1.3,0.9-2.2,0.9s-1.6-0.3-2.2-0.9c-0.8-0.8-0.8-1.6-0.8-3.5s0-2.7,0.8-3.5
		c0.6-0.6,1.3-0.9,2.2-0.9s1.6,0.3,2.2,0.9c0.8,0.8,0.8,1.6,0.8,3.5S71.4,150.6,70.6,151.4z M69.9,145.1c-0.4-0.4-0.9-0.6-1.5-0.6
		c-0.6,0-1.1,0.2-1.5,0.6c-0.5,0.6-0.6,1.1-0.6,2.9s0.1,2.4,0.6,2.9c0.4,0.4,0.9,0.6,1.5,0.6c0.6,0,1.1-0.2,1.5-0.6
		c0.5-0.6,0.6-1.1,0.6-2.9S70.4,145.6,69.9,145.1z"/>
	<path class="st9" d="M74.4,144.5v3.1h3.7v0.8h-3.7v3.8h-0.9v-8.5h5.3v0.8H74.4z"/>
	<path class="st9" d="M83,144.5v7.7h-0.9v-7.7h-2.5v-0.8h5.9v0.8H83z"/>
	<path class="st9" d="M93.7,152.3h-0.9l-1.9-6.8l-1.9,6.8h-0.9l-2.2-8.5h1l1.7,6.9l1.9-6.9h0.8l1.9,6.9l1.7-6.9h1L93.7,152.3z"/>
	<path class="st9" d="M102.1,152.3l-0.7-1.9h-3.7l-0.7,1.9h-1l3.1-8.5h0.8l3.1,8.5H102.1z M99.6,145l-1.6,4.5h3.2L99.6,145z"/>
	<path class="st9" d="M109.4,152.3l-1.9-3.8h-2.1v3.8h-0.9v-8.5h3.3c1.5,0,2.5,0.9,2.5,2.4c0,1.2-0.8,2.1-1.9,2.3l2,3.9H109.4z
		 M107.7,144.5h-2.3v3.1h2.3c1,0,1.7-0.5,1.7-1.6S108.7,144.5,107.7,144.5z"/>
	<path class="st9" d="M112.4,152.3v-8.5h5.3v0.8h-4.4v3h3.7v0.8h-3.7v3.1h4.4v0.8H112.4z"/>
	<path class="st9" d="M119.4,152.3v-1.1h1.1v1.1H119.4z"/>
	<path class="st9" d="M129.1,152.3h-3.3v-8.5h3.2c1.5,0,2.5,0.9,2.5,2.3c0,0.9-0.5,1.6-1.3,1.9c0.8,0.3,1.4,1,1.4,2
		C131.7,151.4,130.6,152.3,129.1,152.3z M128.9,144.5h-2.2v3h2.2c0.9,0,1.7-0.5,1.7-1.5S129.9,144.5,128.9,144.5z M129,148.3h-2.3
		v3.1h2.3c1.1,0,1.7-0.6,1.7-1.6S130.1,148.3,129,148.3z"/>
	<path class="st9" d="M136.1,148.7v3.5h-0.9v-3.5l-2.5-5h1l2,4.1l2-4.1h1L136.1,148.7z"/>
	<path class="st9" d="M145.8,152.3c-1.7,0-3-1.2-3-2.9v-5.7h0.9v5.6c0,1.3,0.8,2.1,2.1,2.1s2.1-0.9,2.1-2.1v-5.6h0.9v5.7
		C148.8,151.1,147.6,152.3,145.8,152.3z"/>
	<path class="st9" d="M153.4,152.3c-1.3,0-2.1-0.3-2.9-1.1l0.6-0.6c0.7,0.7,1.4,0.9,2.3,0.9c1.2,0,2-0.6,2-1.6
		c0-0.4-0.1-0.8-0.4-1.1c-0.3-0.2-0.5-0.3-1.1-0.4l-1-0.2c-0.7-0.1-1.2-0.3-1.6-0.6c-0.4-0.4-0.6-0.9-0.6-1.6c0-1.5,1-2.4,2.7-2.4
		c1.1,0,1.8,0.3,2.5,0.9l-0.6,0.6c-0.5-0.5-1.1-0.7-2-0.7c-1.1,0-1.8,0.6-1.8,1.6c0,0.4,0.1,0.8,0.4,1c0.3,0.2,0.7,0.4,1.2,0.5
		l0.9,0.1c0.8,0.1,1.2,0.3,1.6,0.6c0.5,0.4,0.7,1,0.7,1.7C156.3,151.4,155.1,152.3,153.4,152.3z"/>
	<path class="st9" d="M158.2,152.3v-8.5h0.9v8.5H158.2z"/>
	<path class="st9" d="M167.1,152.3l-4.5-6.8v6.8h-0.9v-8.5h0.9l4.5,6.8v-6.8h0.9v8.5H167.1z"/>
	<path class="st9" d="M175.3,151.3c-0.6,0.6-1.4,1-2.3,1c-0.8,0-1.6-0.3-2.2-0.9c-0.8-0.8-0.8-1.6-0.8-3.5s0-2.7,0.8-3.5
		c0.6-0.6,1.3-0.9,2.2-0.9c1.6,0,2.7,1.1,3,2.6h-0.9c-0.2-1.1-1-1.7-2.1-1.7c-0.6,0-1.1,0.2-1.5,0.6c-0.5,0.6-0.6,1.1-0.6,2.9
		s0.1,2.4,0.6,2.9c0.4,0.4,0.9,0.6,1.5,0.6c0.6,0,1.2-0.3,1.6-0.7c0.3-0.4,0.5-0.9,0.5-1.5v-0.6h-2.1v-0.8h3v1.4
		C176.1,150.1,175.9,150.8,175.3,151.3z"/>
	<path class="st9" d="M183.7,144.5v7.7h-0.9v-7.7h-2.5v-0.8h5.9v0.8H183.7z"/>
	<path class="st9" d="M192.7,152.3v-3.9h-4.1v3.9h-0.9v-8.5h0.9v3.8h4.1v-3.8h0.9v8.5H192.7z"/>
	<path class="st9" d="M196.1,152.3v-8.5h5.3v0.8H197v3h3.7v0.8H197v3.1h4.4v0.8H196.1z"/>
	<path class="st9" d="M208.5,152.3c-1.3,0-2.1-0.3-2.9-1.1l0.6-0.6c0.7,0.7,1.4,0.9,2.3,0.9c1.2,0,2-0.6,2-1.6
		c0-0.4-0.1-0.8-0.4-1.1c-0.3-0.2-0.5-0.3-1.1-0.4l-1-0.2c-0.7-0.1-1.2-0.3-1.6-0.6c-0.4-0.4-0.6-0.9-0.6-1.6c0-1.5,1-2.4,2.7-2.4
		c1.1,0,1.8,0.3,2.5,0.9l-0.6,0.6c-0.5-0.5-1.1-0.7-2-0.7c-1.1,0-1.8,0.6-1.8,1.6c0,0.4,0.1,0.8,0.4,1c0.3,0.2,0.7,0.4,1.2,0.5
		l0.9,0.1c0.8,0.1,1.2,0.3,1.6,0.6c0.5,0.4,0.7,1,0.7,1.7C211.4,151.4,210.3,152.3,208.5,152.3z"/>
	<path class="st9" d="M218.2,151.4c-0.6,0.6-1.3,0.9-2.2,0.9s-1.6-0.3-2.2-0.9c-0.8-0.8-0.8-1.6-0.8-3.5s0-2.7,0.8-3.5
		c0.6-0.6,1.3-0.9,2.2-0.9s1.6,0.3,2.2,0.9c0.8,0.8,0.8,1.6,0.8,3.5S219,150.6,218.2,151.4z M217.5,145.1c-0.4-0.4-0.9-0.6-1.5-0.6
		c-0.6,0-1.1,0.2-1.5,0.6c-0.5,0.6-0.6,1.1-0.6,2.9s0.1,2.4,0.6,2.9c0.4,0.4,0.9,0.6,1.5,0.6c0.6,0,1.1-0.2,1.5-0.6
		c0.5-0.6,0.6-1.1,0.6-2.9S218,145.6,217.5,145.1z"/>
	<path class="st9" d="M222.1,144.5v3.1h3.7v0.8h-3.7v3.8h-0.9v-8.5h5.3v0.8H222.1z"/>
	<path class="st9" d="M230.6,144.5v7.7h-0.9v-7.7h-2.5v-0.8h5.9v0.8H230.6z"/>
	<path class="st9" d="M241.3,152.3h-0.9l-1.9-6.8l-1.9,6.8h-0.9l-2.2-8.5h1l1.7,6.9l1.9-6.9h0.8l1.9,6.9l1.7-6.9h1L241.3,152.3z"/>
	<path class="st9" d="M249.8,152.3l-0.7-1.9h-3.7l-0.7,1.9h-1l3.1-8.5h0.8l3.1,8.5H249.8z M247.3,145l-1.6,4.5h3.2L247.3,145z"/>
	<path class="st9" d="M257,152.3l-1.9-3.8h-2.1v3.8h-0.9v-8.5h3.3c1.5,0,2.5,0.9,2.5,2.4c0,1.2-0.8,2.1-1.9,2.3l2,3.9H257z
		 M255.3,144.5h-2.3v3.1h2.3c1,0,1.7-0.5,1.7-1.6S256.3,144.5,255.3,144.5z"/>
	<path class="st9" d="M260,152.3v-8.5h5.3v0.8h-4.4v3h3.7v0.8h-3.7v3.1h4.4v0.8H260z"/>
	<path class="st9" d="M267,154v-2.8h1.1v1.8L267,154z"/>
	<path class="st9" d="M275.7,148.7v3.5h-0.9v-3.5l-2.5-5h1l2,4.1l2-4.1h1L275.7,148.7z"/>
	<path class="st9" d="M284.3,151.4c-0.6,0.6-1.3,0.9-2.2,0.9s-1.6-0.3-2.2-0.9c-0.8-0.8-0.8-1.6-0.8-3.5s0-2.7,0.8-3.5
		c0.6-0.6,1.3-0.9,2.2-0.9s1.6,0.3,2.2,0.9c0.8,0.8,0.8,1.6,0.8,3.5S285.1,150.6,284.3,151.4z M283.6,145.1
		c-0.4-0.4-0.9-0.6-1.5-0.6c-0.6,0-1.1,0.2-1.5,0.6c-0.5,0.6-0.6,1.1-0.6,2.9s0.1,2.4,0.6,2.9c0.4,0.4,0.9,0.6,1.5,0.6
		c0.6,0,1.1-0.2,1.5-0.6c0.5-0.6,0.6-1.1,0.6-2.9S284.1,145.6,283.6,145.1z"/>
	<path class="st9" d="M290.1,152.3c-1.7,0-3-1.2-3-2.9v-5.7h0.9v5.6c0,1.3,0.8,2.1,2.1,2.1s2.1-0.9,2.1-2.1v-5.6h0.9v5.7
		C293.1,151.1,291.8,152.3,290.1,152.3z"/>
	<path class="st9" d="M303.4,152.3l-0.7-1.9H299l-0.7,1.9h-1l3.1-8.5h0.8l3.1,8.5H303.4z M300.8,145l-1.6,4.5h3.2L300.8,145z"/>
	<path class="st9" d="M310.6,152.3l-1.9-3.8h-2.1v3.8h-0.9v-8.5h3.3c1.5,0,2.5,0.9,2.5,2.4c0,1.2-0.8,2.1-1.9,2.3l2,3.9H310.6z
		 M308.9,144.5h-2.3v3.1h2.3c1,0,1.7-0.5,1.7-1.6S309.9,144.5,308.9,144.5z"/>
	<path class="st9" d="M313.6,152.3v-8.5h5.3v0.8h-4.4v3h3.7v0.8h-3.7v3.1h4.4v0.8H313.6z"/>
	<path class="st9" d="M63.6,167.3l-0.7-1.9h-3.7l-0.7,1.9h-1l3.1-8.5h0.8l3.1,8.5H63.6z M61.1,160l-1.6,4.5h3.2L61.1,160z"/>
	<path class="st9" d="M70.8,166.3c-0.6,0.6-1.4,1-2.3,1c-0.8,0-1.6-0.3-2.2-0.9c-0.8-0.8-0.8-1.6-0.8-3.5c0-1.8,0-2.7,0.8-3.5
		c0.6-0.6,1.3-0.9,2.2-0.9c1.6,0,2.7,1.1,3,2.6h-0.9c-0.2-1.1-1-1.7-2.1-1.7c-0.6,0-1.1,0.2-1.5,0.6c-0.5,0.6-0.6,1.1-0.6,2.9
		s0.1,2.4,0.6,2.9c0.4,0.4,0.9,0.6,1.5,0.6c0.6,0,1.2-0.3,1.6-0.7c0.3-0.4,0.5-0.9,0.5-1.5v-0.6h-2.1v-0.8h3v1.4
		C71.5,165.1,71.3,165.8,70.8,166.3z"/>
	<path class="st9" d="M78.6,167.3l-1.9-3.8h-2.1v3.8h-0.9v-8.5H77c1.5,0,2.5,0.9,2.5,2.4c0,1.2-0.8,2.1-1.9,2.3l2,3.9H78.6z
		 M76.9,159.5h-2.3v3.1h2.3c1,0,1.7-0.5,1.7-1.6S77.9,159.5,76.9,159.5z"/>
	<path class="st9" d="M81.5,167.3v-8.5h5.3v0.8h-4.4v3h3.7v0.8h-3.7v3.1h4.4v0.8H81.5z"/>
	<path class="st9" d="M88.7,167.3v-8.5H94v0.8h-4.4v3h3.7v0.8h-3.7v3.1H94v0.8H88.7z"/>
	<path class="st9" d="M95.9,167.3v-8.5h0.9v8.5H95.9z"/>
	<path class="st9" d="M104.8,167.3l-4.5-6.8v6.8h-0.9v-8.5h0.9l4.5,6.8v-6.8h0.9v8.5H104.8z"/>
	<path class="st9" d="M113.1,166.3c-0.6,0.6-1.4,1-2.3,1c-0.8,0-1.6-0.3-2.2-0.9c-0.8-0.8-0.8-1.6-0.8-3.5c0-1.8,0-2.7,0.8-3.5
		c0.6-0.6,1.3-0.9,2.2-0.9c1.6,0,2.7,1.1,3,2.6h-0.9c-0.2-1.1-1-1.7-2.1-1.7c-0.6,0-1.1,0.2-1.5,0.6c-0.5,0.6-0.6,1.1-0.6,2.9
		s0.1,2.4,0.6,2.9c0.4,0.4,0.9,0.6,1.5,0.6c0.6,0,1.2-0.3,1.6-0.7c0.3-0.4,0.5-0.9,0.5-1.5v-0.6h-2.1v-0.8h3v1.4
		C113.8,165.1,113.6,165.8,113.1,166.3z"/>
	<path class="st9" d="M121.4,159.5v7.7h-0.9v-7.7H118v-0.8h5.9v0.8H121.4z"/>
	<path class="st9" d="M130.1,166.4c-0.6,0.6-1.3,0.9-2.2,0.9s-1.6-0.3-2.2-0.9c-0.8-0.8-0.8-1.6-0.8-3.5c0-1.8,0-2.7,0.8-3.5
		c0.6-0.6,1.3-0.9,2.2-0.9s1.6,0.3,2.2,0.9c0.8,0.8,0.8,1.6,0.8,3.5C130.9,164.8,130.9,165.6,130.1,166.4z M129.4,160.1
		c-0.4-0.4-0.9-0.6-1.5-0.6c-0.6,0-1.1,0.2-1.5,0.6c-0.5,0.6-0.6,1.1-0.6,2.9s0.1,2.4,0.6,2.9c0.4,0.4,0.9,0.6,1.5,0.6
		c0.6,0,1.1-0.2,1.5-0.6c0.5-0.6,0.6-1.1,0.6-2.9S129.9,160.6,129.4,160.1z"/>
	<path class="st9" d="M139.3,167.3H136v-8.5h3.2c1.5,0,2.5,0.9,2.5,2.3c0,0.9-0.5,1.6-1.3,1.9c0.8,0.3,1.4,1,1.4,2
		C141.9,166.4,140.9,167.3,139.3,167.3z M139.2,159.5h-2.2v3h2.2c0.9,0,1.7-0.5,1.7-1.5C140.8,160,140.1,159.5,139.2,159.5z
		 M139.3,163.3h-2.3v3.1h2.3c1.1,0,1.7-0.6,1.7-1.6S140.3,163.3,139.3,163.3z"/>
	<path class="st9" d="M144,167.3v-8.5h5.3v0.8H145v3h3.7v0.8H145v3.1h4.4v0.8H144z"/>
	<path class="st9" d="M157.6,167.3h-3.3v-8.5h3.2c1.5,0,2.5,0.9,2.5,2.3c0,0.9-0.5,1.6-1.3,1.9c0.8,0.3,1.4,1,1.4,2
		C160.1,166.4,159.1,167.3,157.6,167.3z M157.4,159.5h-2.2v3h2.2c0.9,0,1.7-0.5,1.7-1.5C159.1,160,158.3,159.5,157.4,159.5z
		 M157.5,163.3h-2.3v3.1h2.3c1.1,0,1.7-0.6,1.7-1.6S158.5,163.3,157.5,163.3z"/>
	<path class="st9" d="M167.1,166.4c-0.6,0.6-1.3,0.9-2.2,0.9s-1.6-0.3-2.2-0.9c-0.8-0.8-0.8-1.6-0.8-3.5c0-1.8,0-2.7,0.8-3.5
		c0.6-0.6,1.3-0.9,2.2-0.9s1.6,0.3,2.2,0.9c0.8,0.8,0.8,1.6,0.8,3.5C167.9,164.8,167.9,165.6,167.1,166.4z M166.4,160.1
		c-0.4-0.4-0.9-0.6-1.5-0.6c-0.6,0-1.1,0.2-1.5,0.6c-0.5,0.6-0.6,1.1-0.6,2.9s0.1,2.4,0.6,2.9c0.4,0.4,0.9,0.6,1.5,0.6
		c0.6,0,1.1-0.2,1.5-0.6c0.5-0.6,0.6-1.1,0.6-2.9S166.9,160.6,166.4,160.1z"/>
	<path class="st9" d="M172.9,167.3c-1.7,0-3-1.2-3-2.9v-5.7h0.9v5.6c0,1.3,0.8,2.1,2.1,2.1s2.1-0.9,2.1-2.1v-5.6h0.9v5.7
		C175.9,166.1,174.6,167.3,172.9,167.3z"/>
	<path class="st9" d="M183.7,167.3l-4.5-6.8v6.8h-0.9v-8.5h0.9l4.5,6.8v-6.8h0.9v8.5H183.7z"/>
	<path class="st9" d="M192.1,166.5c-0.5,0.5-1.3,0.8-2.2,0.8H187v-8.5h2.9c0.9,0,1.6,0.3,2.2,0.8c0.9,0.9,0.8,2.2,0.8,3.4
		S193,165.6,192.1,166.5z M191.5,160.2c-0.4-0.5-1-0.6-1.7-0.6h-1.9v6.9h1.9c0.7,0,1.2-0.2,1.7-0.6c0.6-0.6,0.6-1.9,0.6-2.9
		C192,161.8,192.1,160.8,191.5,160.2z"/>
	<path class="st9" d="M201.4,167.3h-3.3v-8.5h3.2c1.5,0,2.5,0.9,2.5,2.3c0,0.9-0.5,1.6-1.3,1.9c0.8,0.3,1.4,1,1.4,2
		C204,166.4,202.9,167.3,201.4,167.3z M201.2,159.5H199v3h2.2c0.9,0,1.7-0.5,1.7-1.5C202.9,160,202.2,159.5,201.2,159.5z
		 M201.3,163.3H199v3.1h2.3c1.1,0,1.7-0.6,1.7-1.6S202.4,163.3,201.3,163.3z"/>
	<path class="st9" d="M208.4,163.7v3.5h-0.9v-3.5l-2.5-5h1l2,4.1l2-4.1h1L208.4,163.7z"/>
	<path class="st9" d="M217.8,159.5v7.7h-0.9v-7.7h-2.5v-0.8h5.9v0.8H217.8z"/>
	<path class="st9" d="M226.8,167.3v-3.9h-4.1v3.9h-0.9v-8.5h0.9v3.8h4.1v-3.8h0.9v8.5H226.8z"/>
	<path class="st9" d="M230.2,167.3v-8.5h5.3v0.8h-4.4v3h3.7v0.8h-3.7v3.1h4.4v0.8H230.2z"/>
	<path class="st9" d="M242.9,159.5v7.7H242v-7.7h-2.5v-0.8h5.9v0.8H242.9z"/>
	<path class="st9" d="M247,167.3v-8.5h5.3v0.8h-4.4v3h3.7v0.8h-3.7v3.1h4.4v0.8H247z"/>
	<path class="st9" d="M259.1,167.3l-1.9-3.8h-2.1v3.8h-0.9v-8.5h3.3c1.5,0,2.5,0.9,2.5,2.4c0,1.2-0.8,2.1-1.9,2.3l2,3.9H259.1z
		 M257.3,159.5h-2.3v3.1h2.3c1,0,1.7-0.5,1.7-1.6S258.3,159.5,257.3,159.5z"/>
	<path class="st9" d="M268.4,167.3v-6.5l-2.3,5.1h-0.8l-2.4-5.1v6.5H262v-8.5h0.9l2.8,6.1l2.7-6.1h0.9v8.5H268.4z"/>
	<path class="st9" d="M274,167.3c-1.3,0-2.1-0.3-2.9-1.1l0.6-0.6c0.7,0.7,1.4,0.9,2.3,0.9c1.2,0,2-0.6,2-1.6c0-0.4-0.1-0.8-0.4-1.1
		c-0.3-0.2-0.5-0.3-1.1-0.4l-1-0.2c-0.7-0.1-1.2-0.3-1.6-0.6c-0.4-0.4-0.6-0.9-0.6-1.6c0-1.5,1-2.4,2.7-2.4c1.1,0,1.8,0.3,2.5,0.9
		l-0.6,0.6c-0.5-0.5-1.1-0.7-2-0.7c-1.1,0-1.8,0.6-1.8,1.6c0,0.4,0.1,0.8,0.4,1c0.3,0.2,0.7,0.4,1.2,0.5l0.9,0.1
		c0.8,0.1,1.2,0.3,1.6,0.6c0.5,0.4,0.7,1,0.7,1.7C277,166.4,275.8,167.3,274,167.3z"/>
	<path class="st9" d="M286.7,166.4c-0.6,0.6-1.3,0.9-2.2,0.9s-1.6-0.3-2.2-0.9c-0.8-0.8-0.8-1.6-0.8-3.5c0-1.8,0-2.7,0.8-3.5
		c0.6-0.6,1.3-0.9,2.2-0.9s1.6,0.3,2.2,0.9c0.8,0.8,0.8,1.6,0.8,3.5C287.5,164.8,287.5,165.6,286.7,166.4z M286,160.1
		c-0.4-0.4-0.9-0.6-1.5-0.6c-0.6,0-1.1,0.2-1.5,0.6c-0.5,0.6-0.6,1.1-0.6,2.9s0.1,2.4,0.6,2.9c0.4,0.4,0.9,0.6,1.5,0.6
		c0.6,0,1.1-0.2,1.5-0.6c0.5-0.6,0.6-1.1,0.6-2.9S286.5,160.6,286,160.1z"/>
	<path class="st9" d="M290.6,159.5v3.1h3.7v0.8h-3.7v3.8h-0.9v-8.5h5.3v0.8H290.6z"/>
	<path class="st9" d="M302.1,159.5v7.7h-0.9v-7.7h-2.5v-0.8h5.9v0.8H302.1z"/>
	<path class="st9" d="M311.2,167.3v-3.9h-4.1v3.9h-0.9v-8.5h0.9v3.8h4.1v-3.8h0.9v8.5H311.2z"/>
	<path class="st9" d="M314.5,167.3v-8.5h0.9v8.5H314.5z"/>
	<path class="st9" d="M320.1,167.3c-1.3,0-2.1-0.3-2.9-1.1l0.6-0.6c0.7,0.7,1.4,0.9,2.3,0.9c1.2,0,2-0.6,2-1.6
		c0-0.4-0.1-0.8-0.4-1.1c-0.3-0.2-0.5-0.3-1.1-0.4l-1-0.2c-0.7-0.1-1.2-0.3-1.6-0.6c-0.4-0.4-0.6-0.9-0.6-1.6c0-1.5,1-2.4,2.7-2.4
		c1.1,0,1.8,0.3,2.5,0.9l-0.6,0.6c-0.5-0.5-1.1-0.7-2-0.7c-1.1,0-1.8,0.6-1.8,1.6c0,0.4,0.1,0.8,0.4,1c0.3,0.2,0.7,0.4,1.2,0.5
		l0.9,0.1c0.8,0.1,1.2,0.3,1.6,0.6c0.5,0.4,0.7,1,0.7,1.7C323.1,166.4,321.9,167.3,320.1,167.3z"/>
	<path class="st9" d="M58.7,182.3v-8.5h0.9v7.7h4.4v0.8H58.7z"/>
	<path class="st9" d="M65.5,182.3v-8.5h0.9v8.5H65.5z"/>
	<path class="st9" d="M71.6,182.3c-0.8,0-1.6-0.3-2.2-0.9c-0.8-0.8-0.8-1.6-0.8-3.5s0-2.7,0.8-3.5c0.6-0.6,1.3-0.9,2.2-0.9
		c1.5,0,2.7,0.9,3,2.5h-0.9c-0.2-1-1-1.7-2-1.7c-0.6,0-1.1,0.2-1.5,0.6c-0.5,0.6-0.6,1.1-0.6,2.9s0.1,2.4,0.6,2.9
		c0.4,0.4,0.9,0.6,1.5,0.6c1.1,0,1.8-0.7,2.1-1.7h0.9C74.3,181.4,73.1,182.3,71.6,182.3z"/>
	<path class="st9" d="M76.6,182.3v-8.5h5.3v0.8h-4.4v3h3.7v0.8h-3.7v3.1h4.4v0.8H76.6z"/>
	<path class="st9" d="M89.2,182.3l-4.5-6.8v6.8h-0.9v-8.5h0.9l4.5,6.8v-6.8h0.9v8.5H89.2z"/>
	<path class="st9" d="M94.7,182.3c-1.3,0-2.1-0.3-2.9-1.1l0.6-0.6c0.7,0.7,1.4,0.9,2.3,0.9c1.2,0,2-0.6,2-1.6c0-0.4-0.1-0.8-0.4-1.1
		c-0.3-0.2-0.5-0.3-1.1-0.4l-1-0.2c-0.7-0.1-1.2-0.3-1.6-0.6c-0.4-0.4-0.6-0.9-0.6-1.6c0-1.5,1-2.4,2.7-2.4c1.1,0,1.8,0.3,2.5,0.9
		l-0.6,0.6c-0.5-0.5-1.1-0.7-2-0.7c-1.1,0-1.8,0.6-1.8,1.6c0,0.4,0.1,0.8,0.4,1c0.3,0.2,0.7,0.4,1.2,0.5l0.9,0.1
		c0.8,0.1,1.2,0.3,1.6,0.6c0.5,0.4,0.7,1,0.7,1.7C97.7,181.4,96.5,182.3,94.7,182.3z"/>
	<path class="st9" d="M99.6,182.3v-8.5h5.3v0.8h-4.4v3h3.7v0.8h-3.7v3.1h4.4v0.8H99.6z"/>
	<path class="st9" d="M106.6,182.3v-1.1h1.1v1.1H106.6z"/>
	<path class="st9" d="M113,182.3v-8.5h0.9v8.5H113z"/>
	<path class="st9" d="M117.3,174.5v3.1h3.7v0.8h-3.7v3.8h-0.9v-8.5h5.3v0.8H117.3z"/>
	<path class="st9" d="M128.7,178.7v3.5h-0.9v-3.5l-2.5-5h1l2,4.1l2-4.1h1L128.7,178.7z"/>
	<path class="st9" d="M137.3,181.4c-0.6,0.6-1.3,0.9-2.2,0.9s-1.6-0.3-2.2-0.9c-0.8-0.8-0.8-1.6-0.8-3.5s0-2.7,0.8-3.5
		c0.6-0.6,1.3-0.9,2.2-0.9s1.6,0.3,2.2,0.9c0.8,0.8,0.8,1.6,0.8,3.5S138.1,180.6,137.3,181.4z M136.6,175.1
		c-0.4-0.4-0.9-0.6-1.5-0.6s-1.1,0.2-1.5,0.6c-0.5,0.6-0.6,1.1-0.6,2.9s0.1,2.4,0.6,2.9c0.4,0.4,0.9,0.6,1.5,0.6s1.1-0.2,1.5-0.6
		c0.5-0.6,0.6-1.1,0.6-2.9S137.1,175.6,136.6,175.1z"/>
	<path class="st9" d="M143.1,182.3c-1.7,0-3-1.2-3-2.9v-5.7h0.9v5.6c0,1.3,0.8,2.1,2.1,2.1s2.1-0.9,2.1-2.1v-5.6h0.9v5.7
		C146.1,181.1,144.8,182.3,143.1,182.3z"/>
	<path class="st9" d="M156.4,182.3l-0.7-1.9H152l-0.7,1.9h-1l3.1-8.5h0.8l3.1,8.5H156.4z M153.8,175l-1.6,4.5h3.2L153.8,175z"/>
	<path class="st9" d="M163.6,182.3l-1.9-3.8h-2.1v3.8h-0.9v-8.5h3.3c1.5,0,2.5,0.9,2.5,2.4c0,1.2-0.8,2.1-1.9,2.3l2,3.9H163.6z
		 M161.9,174.5h-2.3v3.1h2.3c1,0,1.7-0.5,1.7-1.6C163.6,175.1,162.9,174.5,161.9,174.5z"/>
	<path class="st9" d="M166.6,182.3v-8.5h5.3v0.8h-4.4v3h3.7v0.8h-3.7v3.1h4.4v0.8H166.6z"/>
	<path class="st9" d="M181.8,182.3l-0.7-1.9h-3.7l-0.7,1.9h-1l3.1-8.5h0.8l3.1,8.5H181.8z M179.2,175l-1.6,4.5h3.2L179.2,175z"/>
	<path class="st9" d="M186.7,182.3c-0.8,0-1.6-0.3-2.2-0.9c-0.8-0.8-0.8-1.6-0.8-3.5s0-2.7,0.8-3.5c0.6-0.6,1.3-0.9,2.2-0.9
		c1.5,0,2.7,0.9,3,2.5h-0.9c-0.2-1-1-1.7-2-1.7c-0.6,0-1.1,0.2-1.5,0.6c-0.5,0.6-0.6,1.1-0.6,2.9s0.1,2.4,0.6,2.9
		c0.4,0.4,0.9,0.6,1.5,0.6c1.1,0,1.8-0.7,2.1-1.7h0.9C189.4,181.4,188.2,182.3,186.7,182.3z"/>
	<path class="st9" d="M194.3,182.3c-0.8,0-1.6-0.3-2.2-0.9c-0.8-0.8-0.8-1.6-0.8-3.5s0-2.7,0.8-3.5c0.6-0.6,1.3-0.9,2.2-0.9
		c1.5,0,2.7,0.9,3,2.5h-0.9c-0.2-1-1-1.7-2-1.7c-0.6,0-1.1,0.2-1.5,0.6c-0.5,0.6-0.6,1.1-0.6,2.9s0.1,2.4,0.6,2.9
		c0.4,0.4,0.9,0.6,1.5,0.6c1.1,0,1.8-0.7,2.1-1.7h0.9C197,181.4,195.8,182.3,194.3,182.3z"/>
	<path class="st9" d="M199.3,182.3v-8.5h5.3v0.8h-4.4v3h3.7v0.8h-3.7v3.1h4.4v0.8H199.3z"/>
	<path class="st9" d="M208.7,182.3c-1.3,0-2.1-0.3-2.9-1.1l0.6-0.6c0.7,0.7,1.4,0.9,2.3,0.9c1.2,0,2-0.6,2-1.6
		c0-0.4-0.1-0.8-0.4-1.1c-0.3-0.2-0.5-0.3-1.1-0.4l-1-0.2c-0.7-0.1-1.2-0.3-1.6-0.6c-0.4-0.4-0.6-0.9-0.6-1.6c0-1.5,1-2.4,2.7-2.4
		c1.1,0,1.8,0.3,2.5,0.9l-0.6,0.6c-0.5-0.5-1.1-0.7-2-0.7c-1.1,0-1.8,0.6-1.8,1.6c0,0.4,0.1,0.8,0.4,1s0.7,0.4,1.2,0.5l0.9,0.1
		c0.8,0.1,1.2,0.3,1.6,0.6c0.5,0.4,0.7,1,0.7,1.7C211.6,181.4,210.5,182.3,208.7,182.3z"/>
	<path class="st9" d="M215.6,182.3c-1.3,0-2.1-0.3-2.9-1.1l0.6-0.6c0.7,0.7,1.4,0.9,2.3,0.9c1.2,0,2-0.6,2-1.6
		c0-0.4-0.1-0.8-0.4-1.1c-0.3-0.2-0.5-0.3-1.1-0.4l-1-0.2c-0.7-0.1-1.2-0.3-1.6-0.6c-0.4-0.4-0.6-0.9-0.6-1.6c0-1.5,1-2.4,2.7-2.4
		c1.1,0,1.8,0.3,2.5,0.9l-0.6,0.6c-0.5-0.5-1.1-0.7-2-0.7c-1.1,0-1.8,0.6-1.8,1.6c0,0.4,0.1,0.8,0.4,1s0.7,0.4,1.2,0.5l0.9,0.1
		c0.8,0.1,1.2,0.3,1.6,0.6c0.5,0.4,0.7,1,0.7,1.7C218.5,181.4,217.3,182.3,215.6,182.3z"/>
	<path class="st9" d="M220.4,182.3v-8.5h0.9v8.5H220.4z"/>
	<path class="st9" d="M229.2,182.3l-4.5-6.8v6.8h-0.9v-8.5h0.9l4.5,6.8v-6.8h0.9v8.5H229.2z"/>
	<path class="st9" d="M237.5,181.3c-0.6,0.6-1.4,1-2.3,1c-0.8,0-1.6-0.3-2.2-0.9c-0.8-0.8-0.8-1.6-0.8-3.5s0-2.7,0.8-3.5
		c0.6-0.6,1.3-0.9,2.2-0.9c1.6,0,2.7,1.1,3,2.6h-0.9c-0.2-1.1-1-1.7-2.1-1.7c-0.6,0-1.1,0.2-1.5,0.6c-0.5,0.6-0.6,1.1-0.6,2.9
		s0.1,2.4,0.6,2.9c0.4,0.4,0.9,0.6,1.5,0.6c0.6,0,1.2-0.3,1.6-0.7c0.3-0.4,0.5-0.9,0.5-1.5v-0.6h-2.1v-0.8h3v1.4
		C238.3,180.1,238,180.8,237.5,181.3z"/>
	<path class="st9" d="M245.9,174.5v7.7H245v-7.7h-2.5v-0.8h5.9v0.8H245.9z"/>
	<path class="st9" d="M254.9,182.3v-3.9h-4.1v3.9h-0.9v-8.5h0.9v3.8h4.1v-3.8h0.9v8.5H254.9z"/>
	<path class="st9" d="M258.3,182.3v-8.5h5.3v0.8h-4.4v3h3.7v0.8h-3.7v3.1h4.4v0.8H258.3z"/>
	<path class="st9" d="M270.7,182.3c-1.3,0-2.1-0.3-2.9-1.1l0.6-0.6c0.7,0.7,1.4,0.9,2.3,0.9c1.2,0,2-0.6,2-1.6
		c0-0.4-0.1-0.8-0.4-1.1c-0.3-0.2-0.5-0.3-1.1-0.4l-1-0.2c-0.7-0.1-1.2-0.3-1.6-0.6c-0.4-0.4-0.6-0.9-0.6-1.6c0-1.5,1-2.4,2.7-2.4
		c1.1,0,1.8,0.3,2.5,0.9l-0.6,0.6c-0.5-0.5-1.1-0.7-2-0.7c-1.1,0-1.8,0.6-1.8,1.6c0,0.4,0.1,0.8,0.4,1s0.7,0.4,1.2,0.5l0.9,0.1
		c0.8,0.1,1.2,0.3,1.6,0.6c0.5,0.4,0.7,1,0.7,1.7C273.6,181.4,272.5,182.3,270.7,182.3z"/>
	<path class="st9" d="M280.4,181.4c-0.6,0.6-1.3,0.9-2.2,0.9s-1.6-0.3-2.2-0.9c-0.8-0.8-0.8-1.6-0.8-3.5s0-2.7,0.8-3.5
		c0.6-0.6,1.3-0.9,2.2-0.9s1.6,0.3,2.2,0.9c0.8,0.8,0.8,1.6,0.8,3.5S281.2,180.6,280.4,181.4z M279.7,175.1
		c-0.4-0.4-0.9-0.6-1.5-0.6c-0.6,0-1.1,0.2-1.5,0.6c-0.5,0.6-0.6,1.1-0.6,2.9s0.1,2.4,0.6,2.9c0.4,0.4,0.9,0.6,1.5,0.6
		c0.6,0,1.1-0.2,1.5-0.6c0.5-0.6,0.6-1.1,0.6-2.9S280.2,175.6,279.7,175.1z"/>
	<path class="st9" d="M284.3,174.5v3.1h3.7v0.8h-3.7v3.8h-0.9v-8.5h5.3v0.8H284.3z"/>
	<path class="st9" d="M292.8,174.5v7.7h-0.9v-7.7h-2.5v-0.8h5.9v0.8H292.8z"/>
	<path class="st9" d="M303.5,182.3h-0.9l-1.9-6.8l-1.9,6.8H298l-2.2-8.5h1l1.7,6.9l1.9-6.9h0.8l1.9,6.9l1.7-6.9h1L303.5,182.3z"/>
	<path class="st9" d="M312,182.3l-0.7-1.9h-3.7l-0.7,1.9h-1l3.1-8.5h0.8l3.1,8.5H312z M309.4,175l-1.6,4.5h3.2L309.4,175z"/>
	<path class="st9" d="M319.2,182.3l-1.9-3.8h-2.1v3.8h-0.9v-8.5h3.3c1.5,0,2.5,0.9,2.5,2.4c0,1.2-0.8,2.1-1.9,2.3l2,3.9H319.2z
		 M317.5,174.5h-2.3v3.1h2.3c1,0,1.7-0.5,1.7-1.6C319.2,175.1,318.5,174.5,317.5,174.5z"/>
	<path class="st9" d="M322.2,182.3v-8.5h5.3v0.8h-4.4v3h3.7v0.8h-3.7v3.1h4.4v0.8H322.2z"/>
	<path class="st9" d="M58.7,197.3v-8.5H64v0.8h-4.4v3h3.7v0.8h-3.7v3.1H64v0.8H58.7z"/>
	<path class="st9" d="M65.9,197.3v-8.5h0.9v7.7h4.4v0.8H65.9z"/>
	<path class="st9" d="M72.7,197.3v-8.5H78v0.8h-4.4v3h3.7v0.8h-3.7v3.1H78v0.8H72.7z"/>
	<path class="st9" d="M82.6,197.3c-0.8,0-1.6-0.3-2.2-0.9c-0.8-0.8-0.8-1.6-0.8-3.5s0-2.7,0.8-3.5c0.6-0.6,1.3-0.9,2.2-0.9
		c1.5,0,2.7,0.9,3,2.5h-0.9c-0.2-1-1-1.7-2-1.7c-0.6,0-1.1,0.2-1.5,0.6c-0.5,0.6-0.6,1.1-0.6,2.9s0.1,2.4,0.6,2.9
		c0.4,0.4,0.9,0.6,1.5,0.6c1.1,0,1.8-0.7,2.1-1.7h0.9C85.3,196.4,84.1,197.3,82.6,197.3z"/>
	<path class="st9" d="M89.9,189.5v7.7h-0.9v-7.7h-2.5v-0.8h5.9v0.8H89.9z"/>
	<path class="st9" d="M98.8,197.3l-1.9-3.8h-2.1v3.8h-0.9v-8.5h3.3c1.5,0,2.5,0.9,2.5,2.4c0,1.2-0.8,2.1-1.9,2.3l2,3.9H98.8z
		 M97.1,189.5h-2.3v3.1h2.3c1,0,1.7-0.5,1.7-1.6C98.8,190.1,98.1,189.5,97.1,189.5z"/>
	<path class="st9" d="M106.6,196.4c-0.6,0.6-1.3,0.9-2.2,0.9s-1.6-0.3-2.2-0.9c-0.8-0.8-0.8-1.6-0.8-3.5s0-2.7,0.8-3.5
		c0.6-0.6,1.3-0.9,2.2-0.9s1.6,0.3,2.2,0.9c0.8,0.8,0.8,1.6,0.8,3.5S107.4,195.6,106.6,196.4z M105.9,190.1
		c-0.4-0.4-0.9-0.6-1.5-0.6c-0.6,0-1.1,0.2-1.5,0.6c-0.5,0.6-0.6,1.1-0.6,2.9s0.1,2.4,0.6,2.9c0.4,0.4,0.9,0.6,1.5,0.6
		c0.6,0,1.1-0.2,1.5-0.6c0.5-0.6,0.6-1.1,0.6-2.9S106.5,190.6,105.9,190.1z"/>
	<path class="st9" d="M115,197.3l-4.5-6.8v6.8h-0.9v-8.5h0.9l4.5,6.8v-6.8h0.9v8.5H115z"/>
	<path class="st9" d="M118.4,197.3v-8.5h0.9v8.5H118.4z"/>
	<path class="st9" d="M124.4,197.3c-0.8,0-1.6-0.3-2.2-0.9c-0.8-0.8-0.8-1.6-0.8-3.5s0-2.7,0.8-3.5c0.6-0.6,1.3-0.9,2.2-0.9
		c1.5,0,2.7,0.9,3,2.5h-0.9c-0.2-1-1-1.7-2-1.7c-0.6,0-1.1,0.2-1.5,0.6c-0.5,0.6-0.6,1.1-0.6,2.9s0.1,2.4,0.6,2.9
		c0.4,0.4,0.9,0.6,1.5,0.6c1.1,0,1.8-0.7,2.1-1.7h0.9C127.1,196.4,125.9,197.3,124.4,197.3z"/>
	<path class="st9" d="M134.3,197.3l-0.7-1.9h-3.7l-0.7,1.9h-1l3.1-8.5h0.8l3.1,8.5H134.3z M131.7,190l-1.6,4.5h3.2L131.7,190z"/>
	<path class="st9" d="M136.6,197.3v-8.5h0.9v7.7h4.4v0.8H136.6z"/>
	<path class="st9" d="M143.5,197.3v-8.5h0.9v7.7h4.4v0.8H143.5z"/>
	<path class="st9" d="M151.7,193.7v3.5h-0.9v-3.5l-2.5-5h1l2,4.1l2-4.1h1L151.7,193.7z"/>
	<path class="st9" d="M155.4,199v-2.8h1.1v1.8L155.4,199z"/>
	<path class="st9" d="M163.9,197.3c-1.3,0-2.1-0.3-2.9-1.1l0.6-0.6c0.7,0.7,1.4,0.9,2.3,0.9c1.2,0,2-0.6,2-1.6
		c0-0.4-0.1-0.8-0.4-1.1c-0.3-0.2-0.5-0.3-1.1-0.4l-1-0.2c-0.7-0.1-1.2-0.3-1.6-0.6c-0.4-0.4-0.6-0.9-0.6-1.6c0-1.5,1-2.4,2.7-2.4
		c1.1,0,1.8,0.3,2.5,0.9l-0.6,0.6c-0.5-0.5-1.1-0.7-2-0.7c-1.1,0-1.8,0.6-1.8,1.6c0,0.4,0.1,0.8,0.4,1s0.7,0.4,1.2,0.5l0.9,0.1
		c0.8,0.1,1.2,0.3,1.6,0.6c0.5,0.4,0.7,1,0.7,1.7C166.9,196.4,165.7,197.3,163.9,197.3z"/>
	<path class="st9" d="M168.8,197.3v-8.5h0.9v8.5H168.8z"/>
	<path class="st9" d="M177.1,196.3c-0.6,0.6-1.4,1-2.3,1c-0.8,0-1.6-0.3-2.2-0.9c-0.8-0.8-0.8-1.6-0.8-3.5s0-2.7,0.8-3.5
		c0.6-0.6,1.3-0.9,2.2-0.9c1.6,0,2.7,1.1,3,2.6h-0.9c-0.2-1.1-1-1.7-2.1-1.7c-0.6,0-1.1,0.2-1.5,0.6c-0.5,0.6-0.6,1.1-0.6,2.9
		s0.1,2.4,0.6,2.9c0.4,0.4,0.9,0.6,1.5,0.6c0.6,0,1.2-0.3,1.6-0.7c0.3-0.4,0.5-0.9,0.5-1.5v-0.6h-2.1v-0.8h3v1.4
		C177.8,195.1,177.6,195.8,177.1,196.3z"/>
	<path class="st9" d="M185.4,197.3l-4.5-6.8v6.8H180v-8.5h0.9l4.5,6.8v-6.8h0.9v8.5H185.4z"/>
	<path class="st9" d="M188.8,197.3v-8.5h0.9v8.5H188.8z"/>
	<path class="st9" d="M193.1,189.5v3.1h3.7v0.8h-3.7v3.8h-0.9v-8.5h5.3v0.8H193.1z"/>
	<path class="st9" d="M201.4,193.7v3.5h-0.9v-3.5l-2.5-5h1l2,4.1l2-4.1h1L201.4,193.7z"/>
	<path class="st9" d="M210.6,193.7v3.5h-0.9v-3.5l-2.5-5h1l2,4.1l2-4.1h1L210.6,193.7z"/>
	<path class="st9" d="M219.1,196.4c-0.6,0.6-1.3,0.9-2.2,0.9s-1.6-0.3-2.2-0.9c-0.8-0.8-0.8-1.6-0.8-3.5s0-2.7,0.8-3.5
		c0.6-0.6,1.3-0.9,2.2-0.9s1.6,0.3,2.2,0.9c0.8,0.8,0.8,1.6,0.8,3.5S220,195.6,219.1,196.4z M218.4,190.1c-0.4-0.4-0.9-0.6-1.5-0.6
		c-0.6,0-1.1,0.2-1.5,0.6c-0.5,0.6-0.6,1.1-0.6,2.9s0.1,2.4,0.6,2.9c0.4,0.4,0.9,0.6,1.5,0.6c0.6,0,1.1-0.2,1.5-0.6
		c0.5-0.6,0.6-1.1,0.6-2.9S219,190.6,218.4,190.1z"/>
	<path class="st9" d="M225,197.3c-1.7,0-3-1.2-3-2.9v-5.7h0.9v5.6c0,1.3,0.8,2.1,2.1,2.1s2.1-0.9,2.1-2.1v-5.6h0.9v5.7
		C227.9,196.1,226.7,197.3,225,197.3z"/>
	<path class="st9" d="M235.2,197.3l-1.9-3.8h-2.1v3.8h-0.9v-8.5h3.3c1.5,0,2.5,0.9,2.5,2.4c0,1.2-0.8,2.1-1.9,2.3l2,3.9H235.2z
		 M233.5,189.5h-2.3v3.1h2.3c1,0,1.7-0.5,1.7-1.6C235.2,190.1,234.5,189.5,233.5,189.5z"/>
	<path class="st9" d="M246.1,197.3l-0.7-1.9h-3.7l-0.7,1.9h-1l3.1-8.5h0.8l3.1,8.5H246.1z M243.6,190l-1.6,4.5h3.2L243.6,190z"/>
	<path class="st9" d="M253.3,196.3c-0.6,0.6-1.4,1-2.3,1c-0.8,0-1.6-0.3-2.2-0.9c-0.8-0.8-0.8-1.6-0.8-3.5s0-2.7,0.8-3.5
		c0.6-0.6,1.3-0.9,2.2-0.9c1.6,0,2.7,1.1,3,2.6h-0.9c-0.2-1.1-1-1.7-2.1-1.7c-0.6,0-1.1,0.2-1.5,0.6c-0.5,0.6-0.6,1.1-0.6,2.9
		s0.1,2.4,0.6,2.9c0.4,0.4,0.9,0.6,1.5,0.6c0.6,0,1.2-0.3,1.6-0.7c0.3-0.4,0.5-0.9,0.5-1.5v-0.6H251v-0.8h3v1.4
		C254,195.1,253.8,195.8,253.3,196.3z"/>
	<path class="st9" d="M261.1,197.3l-1.9-3.8h-2.1v3.8h-0.9v-8.5h3.3c1.5,0,2.5,0.9,2.5,2.4c0,1.2-0.8,2.1-1.9,2.3l2,3.9H261.1z
		 M259.4,189.5h-2.3v3.1h2.3c1,0,1.7-0.5,1.7-1.6C261.1,190.1,260.4,189.5,259.4,189.5z"/>
	<path class="st9" d="M264,197.3v-8.5h5.3v0.8H265v3h3.7v0.8H265v3.1h4.4v0.8H264z"/>
	<path class="st9" d="M271.2,197.3v-8.5h5.3v0.8h-4.4v3h3.7v0.8h-3.7v3.1h4.4v0.8H271.2z"/>
	<path class="st9" d="M284.8,197.3v-6.5l-2.3,5.1h-0.8l-2.4-5.1v6.5h-0.9v-8.5h0.9l2.8,6.1l2.7-6.1h0.9v8.5H284.8z"/>
	<path class="st9" d="M288.2,197.3v-8.5h5.3v0.8h-4.4v3h3.7v0.8h-3.7v3.1h4.4v0.8H288.2z"/>
	<path class="st9" d="M300.9,197.3l-4.5-6.8v6.8h-0.9v-8.5h0.9l4.5,6.8v-6.8h0.9v8.5H300.9z"/>
	<path class="st9" d="M306.7,189.5v7.7h-0.9v-7.7h-2.5v-0.8h5.9v0.8H306.7z"/>
	<path class="st9" d="M316.3,189.5v7.7h-0.9v-7.7h-2.5v-0.8h5.9v0.8H316.3z"/>
	<path class="st9" d="M325,196.4c-0.6,0.6-1.3,0.9-2.2,0.9s-1.6-0.3-2.2-0.9c-0.8-0.8-0.8-1.6-0.8-3.5s0-2.7,0.8-3.5
		c0.6-0.6,1.3-0.9,2.2-0.9s1.6,0.3,2.2,0.9c0.8,0.8,0.8,1.6,0.8,3.5S325.8,195.6,325,196.4z M324.3,190.1c-0.4-0.4-0.9-0.6-1.5-0.6
		c-0.6,0-1.1,0.2-1.5,0.6c-0.5,0.6-0.6,1.1-0.6,2.9s0.1,2.4,0.6,2.9c0.4,0.4,0.9,0.6,1.5,0.6c0.6,0,1.1-0.2,1.5-0.6
		c0.5-0.6,0.6-1.1,0.6-2.9S324.8,190.6,324.3,190.1z"/>
	<path class="st9" d="M334.2,197.3h-3.3v-8.5h3.2c1.5,0,2.5,0.9,2.5,2.3c0,0.9-0.5,1.6-1.3,1.9c0.8,0.3,1.4,1,1.4,2
		C336.8,196.4,335.7,197.3,334.2,197.3z M334.1,189.5h-2.2v3h2.2c0.9,0,1.7-0.5,1.7-1.5S335,189.5,334.1,189.5z M334.1,193.3h-2.3
		v3.1h2.3c1.1,0,1.7-0.6,1.7-1.6S335.2,193.3,334.1,193.3z"/>
	<path class="st9" d="M338.9,197.3v-8.5h5.3v0.8h-4.4v3h3.7v0.8h-3.7v3.1h4.4v0.8H338.9z"/>
	<path class="st9" d="M62,212.3h-3.3v-8.5h3.2c1.5,0,2.5,0.9,2.5,2.3c0,0.9-0.5,1.6-1.3,1.9c0.8,0.3,1.4,1,1.4,2
		C64.5,211.4,63.5,212.3,62,212.3z M61.8,204.5h-2.2v3h2.2c0.9,0,1.7-0.5,1.7-1.5S62.8,204.5,61.8,204.5z M61.9,208.3h-2.3v3.1h2.3
		c1.1,0,1.7-0.6,1.7-1.6S63,208.3,61.9,208.3z"/>
	<path class="st9" d="M71.5,211.4c-0.6,0.6-1.3,0.9-2.2,0.9s-1.6-0.3-2.2-0.9c-0.8-0.8-0.8-1.6-0.8-3.5s0-2.7,0.8-3.5
		c0.6-0.6,1.3-0.9,2.2-0.9s1.6,0.3,2.2,0.9c0.8,0.8,0.8,1.6,0.8,3.5S72.3,210.6,71.5,211.4z M70.8,205.1c-0.4-0.4-0.9-0.6-1.5-0.6
		c-0.6,0-1.1,0.2-1.5,0.6c-0.5,0.6-0.6,1.1-0.6,2.9s0.1,2.4,0.6,2.9c0.4,0.4,0.9,0.6,1.5,0.6c0.6,0,1.1-0.2,1.5-0.6
		c0.5-0.6,0.6-1.1,0.6-2.9S71.4,205.6,70.8,205.1z"/>
	<path class="st9" d="M77.3,212.3c-1.7,0-3-1.2-3-2.9v-5.7h0.9v5.6c0,1.3,0.8,2.1,2.1,2.1c1.2,0,2.1-0.9,2.1-2.1v-5.6h0.9v5.7
		C80.3,211.1,79.1,212.3,77.3,212.3z"/>
	<path class="st9" d="M88.1,212.3l-4.5-6.8v6.8h-0.9v-8.5h0.9l4.5,6.8v-6.8H89v8.5H88.1z"/>
	<path class="st9" d="M96.5,211.5c-0.5,0.5-1.3,0.8-2.2,0.8h-2.9v-8.5h2.9c0.9,0,1.6,0.3,2.2,0.8c0.9,0.9,0.8,2.2,0.8,3.4
		S97.4,210.6,96.5,211.5z M95.9,205.2c-0.4-0.5-1-0.6-1.7-0.6h-1.9v6.9h1.9c0.7,0,1.2-0.2,1.7-0.6c0.6-0.6,0.6-1.9,0.6-2.9
		C96.5,206.8,96.5,205.8,95.9,205.2z"/>
	<path class="st9" d="M105.8,212.3h-3.3v-8.5h3.2c1.5,0,2.5,0.9,2.5,2.3c0,0.9-0.5,1.6-1.3,1.9c0.8,0.3,1.4,1,1.4,2
		C108.4,211.4,107.4,212.3,105.8,212.3z M105.7,204.5h-2.2v3h2.2c0.9,0,1.7-0.5,1.7-1.5S106.6,204.5,105.7,204.5z M105.8,208.3h-2.3
		v3.1h2.3c1.1,0,1.7-0.6,1.7-1.6S106.8,208.3,105.8,208.3z"/>
	<path class="st9" d="M112.9,208.7v3.5h-0.9v-3.5l-2.5-5h1l2,4.1l2-4.1h1L112.9,208.7z"/>
	<path class="st9" d="M122.2,204.5v7.7h-0.9v-7.7h-2.5v-0.8h5.9v0.8H122.2z"/>
	<path class="st9" d="M131.2,212.3v-3.9h-4.1v3.9h-0.9v-8.5h0.9v3.8h4.1v-3.8h0.9v8.5H131.2z"/>
	<path class="st9" d="M134.6,212.3v-8.5h5.3v0.8h-4.4v3h3.7v0.8h-3.7v3.1h4.4v0.8H134.6z"/>
	<path class="st9" d="M147.3,204.5v7.7h-0.9v-7.7h-2.5v-0.8h5.9v0.8H147.3z"/>
	<path class="st9" d="M151.4,212.3v-8.5h5.3v0.8h-4.4v3h3.7v0.8h-3.7v3.1h4.4v0.8H151.4z"/>
	<path class="st9" d="M163.5,212.3l-1.9-3.8h-2.1v3.8h-0.9v-8.5h3.3c1.5,0,2.5,0.9,2.5,2.4c0,1.2-0.8,2.1-1.9,2.3l2,3.9H163.5z
		 M161.8,204.5h-2.3v3.1h2.3c1,0,1.7-0.5,1.7-1.6C163.5,205.1,162.8,204.5,161.8,204.5z"/>
	<path class="st9" d="M172.9,212.3v-6.5l-2.3,5.1h-0.8l-2.4-5.1v6.5h-0.9v-8.5h0.9l2.8,6.1l2.7-6.1h0.9v8.5H172.9z"/>
	<path class="st9" d="M178.4,212.3c-1.3,0-2.1-0.3-2.9-1.1l0.6-0.6c0.7,0.7,1.4,0.9,2.3,0.9c1.2,0,2-0.6,2-1.6
		c0-0.4-0.1-0.8-0.4-1.1c-0.3-0.2-0.5-0.3-1.1-0.4l-1-0.2c-0.7-0.1-1.2-0.3-1.6-0.6c-0.4-0.4-0.6-0.9-0.6-1.6c0-1.5,1-2.4,2.7-2.4
		c1.1,0,1.8,0.3,2.5,0.9l-0.6,0.6c-0.5-0.5-1.1-0.7-2-0.7c-1.1,0-1.8,0.6-1.8,1.6c0,0.4,0.1,0.8,0.4,1s0.7,0.4,1.2,0.5l0.9,0.1
		c0.8,0.1,1.2,0.3,1.6,0.6c0.5,0.4,0.7,1,0.7,1.7C181.4,211.4,180.2,212.3,178.4,212.3z"/>
	<path class="st9" d="M191.1,211.4c-0.6,0.6-1.3,0.9-2.2,0.9s-1.6-0.3-2.2-0.9c-0.8-0.8-0.8-1.6-0.8-3.5s0-2.7,0.8-3.5
		c0.6-0.6,1.3-0.9,2.2-0.9s1.6,0.3,2.2,0.9c0.8,0.8,0.8,1.6,0.8,3.5S191.9,210.6,191.1,211.4z M190.4,205.1
		c-0.4-0.4-0.9-0.6-1.5-0.6c-0.6,0-1.1,0.2-1.5,0.6c-0.5,0.6-0.6,1.1-0.6,2.9s0.1,2.4,0.6,2.9c0.4,0.4,0.9,0.6,1.5,0.6
		c0.6,0,1.1-0.2,1.5-0.6c0.5-0.6,0.6-1.1,0.6-2.9S191,205.6,190.4,205.1z"/>
	<path class="st9" d="M195,204.5v3.1h3.7v0.8H195v3.8h-0.9v-8.5h5.3v0.8H195z"/>
	<path class="st9" d="M206.6,204.5v7.7h-0.9v-7.7h-2.5v-0.8h5.9v0.8H206.6z"/>
	<path class="st9" d="M215.6,212.3v-3.9h-4.1v3.9h-0.9v-8.5h0.9v3.8h4.1v-3.8h0.9v8.5H215.6z"/>
	<path class="st9" d="M219,212.3v-8.5h0.9v8.5H219z"/>
	<path class="st9" d="M224.6,212.3c-1.3,0-2.1-0.3-2.9-1.1l0.6-0.6c0.7,0.7,1.4,0.9,2.3,0.9c1.2,0,2-0.6,2-1.6
		c0-0.4-0.1-0.8-0.4-1.1c-0.3-0.2-0.5-0.3-1.1-0.4l-1-0.2c-0.7-0.1-1.2-0.3-1.6-0.6c-0.4-0.4-0.6-0.9-0.6-1.6c0-1.5,1-2.4,2.7-2.4
		c1.1,0,1.8,0.3,2.5,0.9l-0.6,0.6c-0.5-0.5-1.1-0.7-2-0.7c-1.1,0-1.8,0.6-1.8,1.6c0,0.4,0.1,0.8,0.4,1s0.7,0.4,1.2,0.5l0.9,0.1
		c0.8,0.1,1.2,0.3,1.6,0.6c0.5,0.4,0.7,1,0.7,1.7C227.5,211.4,226.3,212.3,224.6,212.3z"/>
	<path class="st9" d="M232.4,212.3v-8.5h0.9v7.7h4.4v0.8H232.4z"/>
	<path class="st9" d="M239.3,212.3v-8.5h0.9v8.5H239.3z"/>
	<path class="st9" d="M245.3,212.3c-0.8,0-1.6-0.3-2.2-0.9c-0.8-0.8-0.8-1.6-0.8-3.5s0-2.7,0.8-3.5c0.6-0.6,1.3-0.9,2.2-0.9
		c1.5,0,2.7,0.9,3,2.5h-0.9c-0.2-1-1-1.7-2-1.7c-0.6,0-1.1,0.2-1.5,0.6c-0.5,0.6-0.6,1.1-0.6,2.9s0.1,2.4,0.6,2.9
		c0.4,0.4,0.9,0.6,1.5,0.6c1.1,0,1.8-0.7,2.1-1.7h0.9C248,211.4,246.8,212.3,245.3,212.3z"/>
	<path class="st9" d="M250.3,212.3v-8.5h5.3v0.8h-4.4v3h3.7v0.8h-3.7v3.1h4.4v0.8H250.3z"/>
	<path class="st9" d="M262.9,212.3l-4.5-6.8v6.8h-0.9v-8.5h0.9l4.5,6.8v-6.8h0.9v8.5H262.9z"/>
	<path class="st9" d="M268.5,212.3c-1.3,0-2.1-0.3-2.9-1.1l0.6-0.6c0.7,0.7,1.4,0.9,2.3,0.9c1.2,0,2-0.6,2-1.6
		c0-0.4-0.1-0.8-0.4-1.1c-0.3-0.2-0.5-0.3-1.1-0.4l-1-0.2c-0.7-0.1-1.2-0.3-1.6-0.6c-0.4-0.4-0.6-0.9-0.6-1.6c0-1.5,1-2.4,2.7-2.4
		c1.1,0,1.8,0.3,2.5,0.9l-0.6,0.6c-0.5-0.5-1.1-0.7-2-0.7c-1.1,0-1.8,0.6-1.8,1.6c0,0.4,0.1,0.8,0.4,1s0.7,0.4,1.2,0.5l0.9,0.1
		c0.8,0.1,1.2,0.3,1.6,0.6c0.5,0.4,0.7,1,0.7,1.7C271.4,211.4,270.3,212.3,268.5,212.3z"/>
	<path class="st9" d="M273.3,212.3v-8.5h5.3v0.8h-4.4v3h3.7v0.8h-3.7v3.1h4.4v0.8H273.3z"/>
	<path class="st9" d="M286.9,212.3h-3.3v-8.5h3.2c1.5,0,2.5,0.9,2.5,2.3c0,0.9-0.5,1.6-1.3,1.9c0.8,0.3,1.4,1,1.4,2
		C289.4,211.4,288.4,212.3,286.9,212.3z M286.7,204.5h-2.2v3h2.2c0.9,0,1.7-0.5,1.7-1.5S287.6,204.5,286.7,204.5z M286.8,208.3h-2.3
		v3.1h2.3c1.1,0,1.7-0.6,1.7-1.6S287.8,208.3,286.8,208.3z"/>
	<path class="st9" d="M293.9,208.7v3.5H293v-3.5l-2.5-5h1l2,4.1l2-4.1h1L293.9,208.7z"/>
	<path class="st9" d="M303.4,212.3c-0.8,0-1.6-0.3-2.2-0.9c-0.8-0.8-0.8-1.6-0.8-3.5s0-2.7,0.8-3.5c0.6-0.6,1.3-0.9,2.2-0.9
		c1.5,0,2.7,0.9,3,2.5h-0.9c-0.2-1-1-1.7-2-1.7c-0.6,0-1.1,0.2-1.5,0.6c-0.5,0.6-0.6,1.1-0.6,2.9s0.1,2.4,0.6,2.9
		c0.4,0.4,0.9,0.6,1.5,0.6c1.1,0,1.8-0.7,2.1-1.7h0.9C306.1,211.4,304.9,212.3,303.4,212.3z"/>
	<path class="st9" d="M308.3,212.3v-8.5h0.9v7.7h4.4v0.8H308.3z"/>
	<path class="st9" d="M315.2,212.3v-8.5h0.9v8.5H315.2z"/>
	<path class="st9" d="M321.3,212.3c-0.8,0-1.6-0.3-2.2-0.9c-0.8-0.8-0.8-1.6-0.8-3.5s0-2.7,0.8-3.5c0.6-0.6,1.3-0.9,2.2-0.9
		c1.5,0,2.7,0.9,3,2.5h-0.9c-0.2-1-1-1.7-2-1.7c-0.6,0-1.1,0.2-1.5,0.6c-0.5,0.6-0.6,1.1-0.6,2.9s0.1,2.4,0.6,2.9
		c0.4,0.4,0.9,0.6,1.5,0.6c1.1,0,1.8-0.7,2.1-1.7h0.9C324,211.4,322.8,212.3,321.3,212.3z"/>
	<path class="st9" d="M331.6,212.3l-2.6-4.5l-1.8,2.2v2.4h-0.9v-8.5h0.9v4.9l4-4.9h1.1l-2.7,3.3l3.1,5.2H331.6z"/>
	<path class="st9" d="M333.7,209.4v-0.8h3.3v0.8H333.7z"/>
</g>
<g>
	<polygon class="st11" points="397.8,262.2 403,268.8 407.6,265.2 402.4,258.6 408.2,256 383,239.1 394,267.1 	"/>
</g>
<g>
</g>
<g>
</g>
<g>
</g>
<g>
</g>
<g>
</g>
<g>
</g>
</svg>
