<?xml version="1.0" encoding="utf-8"?>
<!-- Generator: Adobe Illustrator 19.2.1, SVG Export Plug-In . SVG Version: 6.00 Build 0)  -->
<svg version="1.1" id="Layer_1" xmlns="http://www.w3.org/2000/svg" xmlns:xlink="http://www.w3.org/1999/xlink" x="0px" y="0px"
	 viewBox="0 0 409 331.2" style="enable-background:new 0 0 409 331.2;" xml:space="preserve">
<style type="text/css">
	.st0{fill:#FFFFFF;}
	.st1{fill:none;stroke:#1D1D1B;stroke-width:2;stroke-miterlimit:10;}
	.st2{fill:none;stroke:#1D1D1B;stroke-miterlimit:10;}
	.st3{fill:#FFFFFF;stroke:#1D1D1B;stroke-miterlimit:10;}
	.st4{fill:#C7C6C5;}
	.st5{fill:none;stroke:#FFFFFF;stroke-width:1.5587;stroke-linecap:round;stroke-miterlimit:10;}
	.st6{fill:#3A50A2;}
	.st7{fill:none;}
	.st8{fill:#1D1D1B;}
	.st9{fill:#FFFFFF;stroke:#010101;stroke-width:0.5;stroke-miterlimit:10;}
	.st10{fill:#000101;stroke:#000101;stroke-width:0.8322;stroke-miterlimit:10;}
	.st11{fill:none;stroke:#DDDDDD;stroke-miterlimit:10;}
	.st12{fill:#DDDDDD;}
	.st13{fill:#C1C1C1;}
	.st14{fill:#FFFFFF;stroke:#FFFFFF;stroke-linecap:round;stroke-miterlimit:10;}
	.st15{fill:none;stroke:#FFFFFF;stroke-linecap:round;stroke-miterlimit:10;}
	.st16{fill:#2341C1;}
	.st17{font-family:'Calibre-Regular';}
	.st18{font-size:14px;}
	.st19{font-size:12px;}
	.st20{fill:none;stroke:#1E1E1E;stroke-miterlimit:10;}
	.st21{fill:none;stroke:#1E1E1E;stroke-width:2;stroke-miterlimit:10;}
</style>
<g>
	<g>
		<path class="st0" d="M864.7,312.8c0,2.5-2,4.5-4.5,4.5H487.4c-2.5,0-4.5-2-4.5-4.5V9.7c0-2.5,2-4.5,4.5-4.5h372.8
			c2.5,0,4.5,2,4.5,4.5V312.8z"/>
		<path class="st1" d="M864.7,312.8c0,2.5-2,4.5-4.5,4.5H487.4c-2.5,0-4.5-2-4.5-4.5V9.7c0-2.5,2-4.5,4.5-4.5h372.8
			c2.5,0,4.5,2,4.5,4.5V312.8z"/>
	</g>
</g>
<line class="st2" x1="482.7" y1="24.6" x2="864.4" y2="24.6"/>
<circle class="st3" cx="496.2" cy="15.1" r="3.4"/>
<circle class="st3" cx="508.7" cy="15.1" r="3.4"/>
<circle class="st3" cx="520.4" cy="15.1" r="3.4"/>
<g>
	<circle class="st4" cx="634.1" cy="254.1" r="14.5"/>
	<line class="st5" x1="627" y1="254.7" x2="643.6" y2="254.7"/>
	<polyline class="st5" points="633.7,244.9 626.8,254.6 633.5,263.7 	"/>
</g>
<g>
	<circle class="st6" cx="711.6" cy="254.1" r="14.5"/>
	<line class="st5" x1="719.7" y1="254" x2="703.1" y2="254"/>
	<polyline class="st5" points="713,263.7 719.9,254 713.1,244.9 	"/>
</g>
<g>
	<rect x="597.6" y="277.9" class="st7" width="73" height="16.4"/>
	<path class="st8" d="M613.5,286.9c-0.6,0.6-1.5,0.9-2.6,0.9h-3.5v-10h3.5c1,0,1.9,0.3,2.6,0.9c1.1,1.1,1,2.5,1,4
		C614.5,284.3,614.6,285.9,613.5,286.9z M612.5,279.9c-0.4-0.5-1-0.7-1.7-0.7H609v7.3h1.8c0.7,0,1.3-0.2,1.7-0.7
		c0.5-0.6,0.5-1.7,0.5-3S613,280.5,612.5,279.9z"/>
	<path class="st8" d="M616.6,279.4v-1.5h1.5v1.5H616.6z M616.6,287.9v-7.1h1.4v7.1H616.6z"/>
	<path class="st8" d="M622.6,288c-1.2,0-2.1-0.2-3-1l0.9-0.9c0.6,0.6,1.3,0.7,2,0.7c0.9,0,1.6-0.3,1.6-1c0-0.5-0.3-0.8-1-0.8
		l-1.1-0.1c-1.3-0.1-2.1-0.7-2.1-2c0-1.4,1.2-2.2,2.7-2.2c1.1,0,2,0.2,2.6,0.8l-0.9,0.9c-0.4-0.4-1.1-0.5-1.8-0.5
		c-0.9,0-1.3,0.4-1.3,0.9c0,0.4,0.2,0.7,1,0.8l1.1,0.1c1.3,0.1,2.1,0.7,2.1,2C625.6,287.2,624.3,288,622.6,288z"/>
	<path class="st8" d="M631.1,287.9v-0.6c-0.5,0.5-1,0.7-1.9,0.7s-1.5-0.2-1.9-0.6c-0.4-0.4-0.6-0.9-0.6-1.5c0-1.2,0.8-2,2.5-2h1.9
		v-0.5c0-0.9-0.4-1.3-1.6-1.3c-0.8,0-1.2,0.2-1.6,0.7l-0.9-0.9c0.7-0.8,1.4-1,2.5-1c1.9,0,2.9,0.8,2.9,2.4v4.7h-1.3V287.9z
		 M631.1,284.7h-1.7c-0.8,0-1.3,0.4-1.3,1s0.4,1,1.3,1c0.5,0,1,0,1.3-0.4c0.2-0.2,0.3-0.5,0.3-1.1L631.1,284.7L631.1,284.7z"/>
	<path class="st8" d="M637.1,290.8c-1.1,0-1.8-0.3-2.5-0.9l0.9-0.9c0.4,0.4,0.8,0.6,1.5,0.6c1.2,0,1.7-0.9,1.7-1.8v-0.9
		c-0.5,0.6-1.1,0.8-1.8,0.8c-0.7,0-1.3-0.2-1.7-0.6c-0.7-0.7-0.8-1.7-0.8-2.9s0.1-2.2,0.8-2.9c0.4-0.4,1-0.6,1.7-0.6
		c0.8,0,1.3,0.2,1.9,0.8v-0.8h1.4v7.1C640.1,289.6,639,290.8,637.1,290.8z M637.3,282c-1.3,0-1.5,1.1-1.5,2.2s0.2,2.2,1.5,2.2
		c1.3,0,1.4-1.1,1.4-2.2S638.5,282,637.3,282z"/>
	<path class="st8" d="M646.3,282.4c-0.3-0.3-0.6-0.5-1.1-0.5c-0.8,0-1.4,0.6-1.4,1.6v4.3h-1.4v-7.1h1.4v0.8c0.4-0.5,1.1-0.9,1.9-0.9
		c0.7,0,1.2,0.2,1.7,0.7L646.3,282.4z"/>
	<path class="st8" d="M649.2,284.7c0,1.2,0.6,2,1.8,2c0.8,0,1.2-0.2,1.7-0.7l0.9,0.9c-0.7,0.7-1.4,1.1-2.7,1.1
		c-1.8,0-3.2-0.9-3.2-3.6c0-2.3,1.2-3.6,3-3.6c1.9,0,3,1.4,3,3.4v0.6L649.2,284.7L649.2,284.7z M652.2,282.8
		c-0.2-0.5-0.7-0.9-1.4-0.9c-0.7,0-1.2,0.4-1.4,0.9c-0.1,0.3-0.2,0.5-0.2,1h3.2C652.3,283.3,652.3,283.1,652.2,282.8z"/>
	<path class="st8" d="M656.7,284.7c0,1.2,0.6,2,1.8,2c0.8,0,1.2-0.2,1.7-0.7l0.9,0.9c-0.7,0.7-1.4,1.1-2.7,1.1
		c-1.8,0-3.2-0.9-3.2-3.6c0-2.3,1.2-3.6,3-3.6c1.9,0,3,1.4,3,3.4v0.6L656.7,284.7L656.7,284.7z M659.7,282.8
		c-0.2-0.5-0.7-0.9-1.4-0.9c-0.7,0-1.2,0.4-1.4,0.9c-0.1,0.3-0.2,0.5-0.2,1h3.2C659.9,283.3,659.8,283.1,659.7,282.8z"/>
</g>
<g>
	<rect x="675.1" y="278.9" class="st7" width="73" height="16.4"/>
	<path class="st6" d="M699.5,288.9l-0.6-1.8h-3.5l-0.6,1.8h-2l3.6-10h1.5l3.6,10H699.5z M697.2,281.9l-1.3,3.6h2.5L697.2,281.9z"/>
	<path class="st6" d="M705.1,291.6c-1.1,0-1.9-0.2-2.6-1l1.1-1.1c0.4,0.4,0.8,0.6,1.4,0.6c1.1,0,1.5-0.8,1.5-1.5v-0.7
		c-0.5,0.5-1,0.7-1.7,0.7s-1.3-0.2-1.7-0.6c-0.7-0.7-0.7-1.6-0.7-2.9s0.1-2.2,0.7-2.9c0.4-0.4,1-0.6,1.8-0.6c0.8,0,1.3,0.2,1.8,0.8
		v-0.7h1.8v7C708.3,290.4,707.1,291.6,705.1,291.6z M705.3,283.1c-1.1,0-1.2,0.9-1.2,1.9s0.1,1.9,1.2,1.9c1.1,0,1.2-0.9,1.2-1.9
		S706.4,283.1,705.3,283.1z"/>
	<path class="st6" d="M714.3,283.6c-0.3-0.3-0.5-0.4-1-0.4c-0.6,0-1.2,0.4-1.2,1.3v4.4h-1.8v-7.3h1.8v0.7c0.3-0.4,1-0.8,1.8-0.8
		c0.7,0,1.2,0.2,1.7,0.7L714.3,283.6z"/>
	<path class="st6" d="M717.7,285.8c0,0.9,0.6,1.6,1.6,1.6c0.8,0,1.2-0.2,1.7-0.7l1.1,1.1c-0.7,0.7-1.5,1.1-2.8,1.1
		c-1.7,0-3.4-0.8-3.4-3.7c0-2.4,1.3-3.7,3.2-3.7c2,0,3.2,1.5,3.2,3.5v0.8L717.7,285.8L717.7,285.8z M720.3,283.8
		c-0.2-0.4-0.6-0.8-1.2-0.8c-0.6,0-1,0.3-1.2,0.8c-0.1,0.3-0.2,0.5-0.2,0.8h2.8C720.5,284.2,720.5,284,720.3,283.8z"/>
	<path class="st6" d="M725.4,285.8c0,0.9,0.6,1.6,1.6,1.6c0.8,0,1.2-0.2,1.7-0.7l1.1,1.1c-0.7,0.7-1.5,1.1-2.8,1.1
		c-1.7,0-3.4-0.8-3.4-3.7c0-2.4,1.3-3.7,3.2-3.7c2,0,3.2,1.5,3.2,3.5v0.8L725.4,285.8L725.4,285.8z M728,283.8
		c-0.2-0.4-0.6-0.8-1.2-0.8s-1,0.3-1.2,0.8c-0.1,0.3-0.2,0.5-0.2,0.8h2.8C728.2,284.2,728.1,284,728,283.8z"/>
</g>
<g>
	<rect x="515" y="51.6" class="st7" width="291.6" height="53.2"/>
	<path class="st8" d="M519.4,52.6v9h-1.1v-9h-2.9v-1h6.8v1H519.4z"/>
	<path class="st8" d="M527.3,60.9c-0.5,0.5-1.1,0.8-2,0.8c-0.9,0-1.5-0.3-2-0.8c-0.7-0.7-0.8-1.7-0.8-2.7s0.1-2,0.8-2.7
		c0.5-0.5,1.1-0.8,2-0.8c0.9,0,1.5,0.3,2,0.8c0.7,0.7,0.8,1.7,0.8,2.7S528,60.2,527.3,60.9z M526.6,56c-0.3-0.3-0.8-0.5-1.3-0.5
		s-0.9,0.2-1.2,0.5c-0.5,0.5-0.6,1.4-0.6,2.1s0.1,1.6,0.6,2.1c0.3,0.3,0.8,0.5,1.2,0.5c0.4,0,0.9-0.2,1.3-0.5
		c0.5-0.5,0.5-1.4,0.5-2.1S527.1,56.5,526.6,56z"/>
	<path class="st8" d="M536.4,61.7c-1.7,0-3.1-1.2-3.1-3.5c0-2.4,1.3-3.5,3.1-3.5c1,0,1.6,0.3,2.3,1l-0.7,0.6
		c-0.5-0.6-0.9-0.8-1.6-0.8s-1.2,0.3-1.6,0.8c-0.3,0.4-0.4,1-0.4,1.8c0,0.9,0.1,1.4,0.4,1.8c0.4,0.5,0.9,0.8,1.6,0.8
		s1.1-0.2,1.6-0.8l0.7,0.7C538,61.4,537.4,61.7,536.4,61.7z"/>
	<path class="st8" d="M544.8,60.9c-0.5,0.5-1.1,0.8-2,0.8c-0.9,0-1.5-0.3-2-0.8c-0.7-0.7-0.8-1.7-0.8-2.7s0.1-2,0.8-2.7
		c0.5-0.5,1.1-0.8,2-0.8c0.9,0,1.5,0.3,2,0.8c0.7,0.7,0.8,1.7,0.8,2.7S545.5,60.2,544.8,60.9z M544.1,56c-0.3-0.3-0.8-0.5-1.3-0.5
		s-0.9,0.2-1.2,0.5c-0.5,0.5-0.6,1.4-0.6,2.1s0.1,1.6,0.6,2.1c0.3,0.3,0.8,0.5,1.2,0.5c0.4,0,0.9-0.2,1.3-0.5
		c0.5-0.5,0.5-1.4,0.5-2.1S544.6,56.5,544.1,56z"/>
	<path class="st8" d="M552.2,61.6v-4.2c0-1.2-0.7-1.8-1.7-1.8s-1.7,0.6-1.7,1.8v4.2h-1v-6.9h1v0.8c0.5-0.6,1.2-0.8,1.9-0.8
		s1.3,0.2,1.8,0.6c0.5,0.5,0.7,1.1,0.7,1.9v4.4H552.2z"/>
	<path class="st8" d="M557.6,61.6c-1.2,0-1.8-0.8-1.8-1.8v-4.2h-0.9v-0.8h0.9v-2.2h1v2.2h1.5v0.8h-1.5v4.2c0,0.6,0.3,1,0.9,1h0.5
		v0.9h-0.6V61.6z"/>
	<path class="st8" d="M560.3,52.8v-1.1h1.1v1.1H560.3z M560.4,61.6v-6.9h1v6.9H560.4z"/>
	<path class="st8" d="M568.3,61.6v-4.2c0-1.2-0.7-1.8-1.7-1.8s-1.7,0.6-1.7,1.8v4.2h-1v-6.9h1v0.8c0.5-0.6,1.2-0.8,1.9-0.8
		c0.7,0,1.3,0.2,1.8,0.6c0.5,0.5,0.7,1.1,0.7,1.9v4.4H568.3z"/>
	<path class="st8" d="M576.1,61.6v-0.8c-0.5,0.6-1.2,0.9-1.9,0.9s-1.4-0.2-1.8-0.6c-0.5-0.5-0.7-1.1-0.7-1.9v-4.4h1V59
		c0,1.2,0.6,1.8,1.7,1.8c1,0,1.7-0.6,1.7-1.8v-4.2h1v6.9h-1V61.6z"/>
	<path class="st8" d="M580.3,58.4c0,1.5,0.7,2.4,2,2.4c0.8,0,1.3-0.2,1.8-0.8l0.7,0.6c-0.7,0.7-1.3,1.1-2.5,1.1c-1.8,0-3-1.1-3-3.5
		c0-2.2,1.1-3.5,2.8-3.5c1.8,0,2.8,1.3,2.8,3.3v0.5L580.3,58.4L580.3,58.4z M583.7,56.5c-0.3-0.6-0.9-1-1.6-1c-0.7,0-1.3,0.4-1.6,1
		c-0.2,0.4-0.2,0.6-0.2,1.1h3.6C583.9,57.1,583.8,56.9,583.7,56.5z"/>
	<path class="st8" d="M590.5,52.8v-1.1h1.1v1.1H590.5z M590.5,61.6v-6.9h1v6.9H590.5z"/>
	<path class="st8" d="M598.5,61.6v-4.2c0-1.2-0.7-1.8-1.7-1.8s-1.7,0.6-1.7,1.8v4.2h-1v-6.9h1v0.8c0.5-0.6,1.2-0.8,1.9-0.8
		c0.7,0,1.3,0.2,1.8,0.6c0.5,0.5,0.7,1.1,0.7,1.9v4.4H598.5z"/>
	<path class="st8" d="M604.1,61.7c-1.2,0-2.1-0.3-2.8-1L602,60c0.5,0.6,1.3,0.8,2.1,0.8c1.1,0,1.8-0.4,1.8-1.2c0-0.6-0.4-0.9-1.1-1
		l-1.1-0.1c-1.3-0.1-2.1-0.7-2.1-1.8c0-1.3,1.1-2,2.5-2c1,0,1.9,0.2,2.5,0.7l-0.7,0.7c-0.5-0.4-1.1-0.5-1.8-0.5
		c-1,0-1.5,0.4-1.5,1.1c0,0.6,0.3,0.9,1.2,1l1.1,0.1c1.2,0.1,2,0.6,2,1.9C606.9,60.9,605.8,61.7,604.1,61.7z"/>
	<path class="st8" d="M610.7,61.6c-1.2,0-1.8-0.8-1.8-1.8v-4.2H608v-0.8h0.9v-2.2h1v2.2h1.5v0.8h-1.5v4.2c0,0.6,0.3,1,0.9,1h0.5v0.9
		h-0.6V61.6z"/>
	<path class="st8" d="M617.2,61.6V61c-0.6,0.6-1.1,0.7-2,0.7c-1,0-1.5-0.2-1.9-0.6c-0.3-0.3-0.5-0.9-0.5-1.4c0-1.2,0.8-2,2.4-2h2.1
		V57c0-1-0.5-1.5-1.8-1.5c-0.9,0-1.3,0.2-1.7,0.8l-0.7-0.6c0.6-0.8,1.3-1,2.4-1c1.8,0,2.8,0.8,2.8,2.3v4.7h-1.1V61.6z M617.2,58.4
		h-1.9c-1,0-1.5,0.4-1.5,1.2s0.5,1.2,1.6,1.2c0.6,0,1.1,0,1.5-0.5c0.2-0.2,0.4-0.6,0.4-1.2v-0.7H617.2z"/>
	<path class="st8" d="M622.4,61.6c-1.2,0-1.8-0.8-1.8-1.8v-8.1h1v8.1c0,0.7,0.2,1,0.9,1h0.5v0.9L622.4,61.6L622.4,61.6z"/>
	<path class="st8" d="M626.5,61.6c-1.2,0-1.8-0.8-1.8-1.8v-8.1h1v8.1c0,0.7,0.2,1,0.9,1h0.5v0.9L626.5,61.6L626.5,61.6z"/>
	<path class="st8" d="M628.9,52.8v-1.1h1.1v1.1H628.9z M629,61.6v-6.9h1v6.9H629z"/>
	<path class="st8" d="M636.9,61.6v-4.2c0-1.2-0.7-1.8-1.7-1.8s-1.7,0.6-1.7,1.8v4.2h-1v-6.9h1v0.8c0.5-0.6,1.2-0.8,1.9-0.8
		c0.7,0,1.3,0.2,1.8,0.6c0.5,0.5,0.7,1.1,0.7,1.9v4.4H636.9z"/>
	<path class="st8" d="M642.6,64.8c-1,0-1.6-0.3-2.3-0.9l0.7-0.6c0.5,0.4,0.9,0.7,1.7,0.7c1.3,0,1.9-0.9,1.9-2.1v-1.1
		c-0.6,0.7-1.2,0.9-1.9,0.9s-1.3-0.3-1.7-0.6c-0.7-0.7-0.8-1.8-0.8-2.9s0.2-2.2,0.8-2.9c0.4-0.4,1-0.6,1.7-0.6
		c0.8,0,1.4,0.2,1.9,0.9v-0.8h1v7.1C645.5,63.5,644.4,64.8,642.6,64.8z M642.7,55.5c-1.5,0-1.7,1.3-1.7,2.6s0.2,2.6,1.7,2.6
		s1.7-1.3,1.7-2.6S644.2,55.5,642.7,55.5z"/>
	<path class="st8" d="M653.4,61.6c-1.2,0-1.8-0.8-1.8-1.8v-4.2h-0.9v-0.8h0.9v-2.2h1v2.2h1.5v0.8h-1.5v4.2c0,0.6,0.3,1,0.9,1h0.5
		v0.9h-0.6V61.6z"/>
	<path class="st8" d="M660.5,61.6v-4.3c0-1.2-0.6-1.8-1.7-1.8c-1.1,0-1.7,0.6-1.7,1.8v4.3h-1v-10h1v3.8c0.5-0.6,1.2-0.8,1.9-0.8
		c1.6,0,2.5,1,2.5,2.5v4.4L660.5,61.6L660.5,61.6z"/>
	<path class="st8" d="M663.9,52.8v-1.1h1.1v1.1H663.9z M664,61.6v-6.9h1v6.9H664z"/>
	<path class="st8" d="M669.7,61.7c-1.2,0-2.1-0.3-2.8-1l0.7-0.7c0.5,0.6,1.3,0.8,2.1,0.8c1.1,0,1.8-0.4,1.8-1.2c0-0.6-0.4-0.9-1.1-1
		l-1.1-0.1c-1.3-0.1-2.1-0.7-2.1-1.8c0-1.3,1.1-2,2.5-2c1,0,1.9,0.2,2.5,0.7l-0.7,0.7c-0.5-0.4-1.1-0.5-1.8-0.5
		c-1,0-1.5,0.4-1.5,1.1c0,0.6,0.3,0.9,1.2,1l1.1,0.1c1.2,0.1,2,0.6,2,1.9C672.5,60.9,671.4,61.7,669.7,61.7z"/>
	<path class="st8" d="M680.1,61.7c-1.2,0-2.1-0.3-2.8-1L678,60c0.5,0.6,1.3,0.8,2.1,0.8c1.1,0,1.8-0.4,1.8-1.2c0-0.6-0.4-0.9-1.1-1
		l-1.1-0.1c-1.3-0.1-2.1-0.7-2.1-1.8c0-1.3,1.1-2,2.5-2c1,0,1.9,0.2,2.5,0.7l-0.7,0.7c-0.5-0.4-1.1-0.5-1.8-0.5
		c-1,0-1.5,0.4-1.5,1.1c0,0.6,0.3,0.9,1.2,1l1.1,0.1c1.2,0.1,2,0.6,2,1.9C682.9,60.9,681.8,61.7,680.1,61.7z"/>
	<path class="st8" d="M689.3,60.9c-0.5,0.5-1.1,0.8-2,0.8c-0.9,0-1.5-0.3-2-0.8c-0.7-0.7-0.8-1.7-0.8-2.7s0.1-2,0.8-2.7
		c0.5-0.5,1.1-0.8,2-0.8c0.9,0,1.5,0.3,2,0.8c0.7,0.7,0.8,1.7,0.8,2.7S690,60.2,689.3,60.9z M688.6,56c-0.3-0.3-0.8-0.5-1.3-0.5
		s-0.9,0.2-1.2,0.5c-0.5,0.5-0.6,1.4-0.6,2.1s0.1,1.6,0.6,2.1c0.3,0.3,0.8,0.5,1.2,0.5c0.4,0,0.9-0.2,1.3-0.5
		c0.5-0.5,0.5-1.4,0.5-2.1S689.1,56.5,688.6,56z"/>
	<path class="st8" d="M693.5,55.5v6.1h-1v-6.1h-0.9v-0.8h0.9v-1.3c0-1,0.6-1.8,1.8-1.8h0.7v0.9h-0.5c-0.6,0-0.9,0.4-0.9,1v1.3h1.5
		v0.8h-1.6V55.5z"/>
	<path class="st8" d="M698.6,61.6c-1.2,0-1.8-0.8-1.8-1.8v-4.2h-0.9v-0.8h0.9v-2.2h1v2.2h1.5v0.8h-1.5v4.2c0,0.6,0.3,1,0.9,1h0.5
		v0.9h-0.6V61.6z"/>
	<path class="st8" d="M707.9,61.6H707l-1.8-5.4l-1.8,5.4h-0.9l-2.2-6.9h1.1l1.6,5.5l1.8-5.5h0.9l1.8,5.5l1.6-5.5h1.1L707.9,61.6z"/>
	<path class="st8" d="M715.4,61.6V61c-0.6,0.6-1.1,0.7-2,0.7c-1,0-1.5-0.2-1.9-0.6c-0.3-0.3-0.5-0.9-0.5-1.4c0-1.2,0.8-2,2.4-2h2.1
		V57c0-1-0.5-1.5-1.8-1.5c-0.9,0-1.3,0.2-1.7,0.8l-0.7-0.6c0.6-0.8,1.3-1,2.4-1c1.8,0,2.8,0.8,2.8,2.3v4.7h-1.1V61.6z M715.4,58.4
		h-1.9c-1,0-1.5,0.4-1.5,1.2s0.5,1.2,1.6,1.2c0.6,0,1.1,0,1.5-0.5c0.2-0.2,0.4-0.6,0.4-1.2L715.4,58.4L715.4,58.4z"/>
	<path class="st8" d="M722.7,56c-0.4-0.4-0.7-0.5-1.2-0.5c-1,0-1.7,0.8-1.7,1.8v4.2h-1v-6.9h1v0.8c0.4-0.6,1.1-0.9,1.9-0.9
		c0.7,0,1.2,0.2,1.7,0.6L722.7,56z"/>
	<path class="st8" d="M724.9,58.4c0,1.5,0.7,2.4,2,2.4c0.8,0,1.3-0.2,1.8-0.8l0.7,0.6c-0.7,0.7-1.3,1.1-2.5,1.1c-1.8,0-3-1.1-3-3.5
		c0-2.2,1.1-3.5,2.8-3.5c1.8,0,2.8,1.3,2.8,3.3v0.5L724.9,58.4L724.9,58.4z M728.3,56.5c-0.3-0.6-0.9-1-1.6-1s-1.3,0.4-1.6,1
		c-0.2,0.4-0.2,0.6-0.2,1.1h3.6C728.5,57.1,728.5,56.9,728.3,56.5z"/>
	<path class="st8" d="M736.9,63.3c-0.1,0.4-0.3,0.6-0.5,0.8c-0.4,0.4-0.9,0.5-1.3,0.5h-0.4v-0.9h0.3c0.7,0,0.9-0.2,1.1-0.9l0.5-1.3
		l-2.5-6.8h1.1l1.9,5.5l1.9-5.5h1.1L736.9,63.3z"/>
	<path class="st8" d="M745.7,60.9c-0.5,0.5-1.1,0.8-2,0.8s-1.5-0.3-2-0.8c-0.7-0.7-0.8-1.7-0.8-2.7s0.1-2,0.8-2.7
		c0.5-0.5,1.1-0.8,2-0.8s1.5,0.3,2,0.8c0.7,0.7,0.8,1.7,0.8,2.7S746.4,60.2,745.7,60.9z M745,56c-0.3-0.3-0.8-0.5-1.3-0.5
		s-0.9,0.2-1.2,0.5c-0.5,0.5-0.6,1.4-0.6,2.1s0.1,1.6,0.6,2.1c0.3,0.3,0.8,0.5,1.2,0.5s0.9-0.2,1.3-0.5c0.5-0.5,0.5-1.4,0.5-2.1
		S745.5,56.5,745,56z"/>
	<path class="st8" d="M753.1,61.6v-0.8c-0.5,0.6-1.2,0.9-1.9,0.9s-1.4-0.2-1.8-0.6c-0.5-0.5-0.7-1.1-0.7-1.9v-4.4h1V59
		c0,1.2,0.6,1.8,1.7,1.8c1,0,1.7-0.6,1.7-1.8v-4.2h1v6.9h-1V61.6z"/>
	<path class="st8" d="M768.9,61.6v-4.2c0-1.2-0.7-1.8-1.7-1.8s-1.7,0.6-1.7,1.7v4.4h-1v-4.2c0-1.2-0.7-1.8-1.7-1.8s-1.7,0.6-1.7,1.8
		v4.2h-1v-6.9h1v0.8c0.5-0.6,1.2-0.8,1.9-0.8c1,0,1.7,0.4,2.1,1.1c0.5-0.8,1.3-1.1,2.3-1.1c0.7,0,1.4,0.2,1.8,0.6
		c0.5,0.5,0.7,1.1,0.7,1.9v4.4h-1V61.6z"/>
	<path class="st8" d="M776.7,61.6v-0.8c-0.5,0.6-1.2,0.9-1.9,0.9c-0.7,0-1.4-0.2-1.8-0.6c-0.5-0.5-0.7-1.1-0.7-1.9v-4.4h1V59
		c0,1.2,0.6,1.8,1.7,1.8c1,0,1.7-0.6,1.7-1.8v-4.2h1v6.9h-1V61.6z"/>
	<path class="st8" d="M782.4,61.7c-1.2,0-2.1-0.3-2.8-1l0.7-0.7c0.5,0.6,1.3,0.8,2.1,0.8c1.1,0,1.8-0.4,1.8-1.2c0-0.6-0.4-0.9-1.1-1
		l-1.1-0.1c-1.3-0.1-2.1-0.7-2.1-1.8c0-1.3,1.1-2,2.5-2c1,0,1.9,0.2,2.5,0.7l-0.7,0.7c-0.5-0.4-1.1-0.5-1.8-0.5
		c-1,0-1.5,0.4-1.5,1.1c0,0.6,0.3,0.9,1.2,1l1.1,0.1c1.2,0.1,2,0.6,2,1.9C785.2,60.9,784.1,61.7,782.4,61.7z"/>
	<path class="st8" d="M789,61.6c-1.2,0-1.8-0.8-1.8-1.8v-4.2h-0.9v-0.8h0.9v-2.2h1v2.2h1.5v0.8h-1.5v4.2c0,0.6,0.3,1,0.9,1h0.5v0.9
		H789V61.6z"/>
	<path class="st8" d="M520.2,80.6V80c-0.6,0.6-1.1,0.7-2,0.7c-1,0-1.5-0.2-1.9-0.6c-0.3-0.3-0.5-0.9-0.5-1.4c0-1.2,0.8-2,2.4-2h2V76
		c0-1-0.5-1.5-1.8-1.5c-0.9,0-1.3,0.2-1.7,0.8l-0.7-0.6c0.6-0.8,1.3-1,2.4-1c1.8,0,2.8,0.8,2.8,2.3v4.7h-1V80.6z M520.2,77.4h-2
		c-1,0-1.5,0.4-1.5,1.2s0.5,1.2,1.6,1.2c0.6,0,1.1,0,1.5-0.5c0.2-0.2,0.4-0.6,0.4-1.2V77.4z"/>
	<path class="st8" d="M525.8,83.8c-1,0-1.6-0.3-2.3-0.9l0.7-0.6c0.5,0.4,0.9,0.7,1.7,0.7c1.3,0,1.9-0.9,1.9-2.1v-1.1
		c-0.6,0.7-1.2,0.9-1.9,0.9s-1.3-0.3-1.7-0.6c-0.7-0.7-0.8-1.8-0.8-2.9s0.2-2.2,0.8-2.9c0.4-0.4,1-0.6,1.7-0.6
		c0.8,0,1.4,0.2,1.9,0.9v-0.8h1v7.1C528.7,82.5,527.6,83.8,525.8,83.8z M526,74.5c-1.5,0-1.7,1.3-1.7,2.6s0.2,2.6,1.7,2.6
		s1.7-1.3,1.7-2.6S527.5,74.5,526,74.5z"/>
	<path class="st8" d="M535.1,75c-0.4-0.4-0.7-0.5-1.2-0.5c-1,0-1.7,0.8-1.7,1.8v4.2h-1v-6.9h1v0.8c0.4-0.6,1.1-0.9,1.9-0.9
		c0.7,0,1.2,0.2,1.7,0.6L535.1,75z"/>
	<path class="st8" d="M537.3,77.4c0,1.5,0.7,2.4,2,2.4c0.8,0,1.3-0.2,1.8-0.8l0.7,0.6c-0.7,0.7-1.3,1.1-2.5,1.1c-1.8,0-3-1.1-3-3.5
		c0-2.2,1.1-3.5,2.8-3.5c1.8,0,2.8,1.3,2.8,3.3v0.5L537.3,77.4L537.3,77.4z M540.7,75.5c-0.3-0.6-0.9-1-1.6-1c-0.7,0-1.3,0.4-1.6,1
		c-0.2,0.4-0.2,0.6-0.2,1.1h3.6C540.9,76.1,540.9,75.9,540.7,75.5z"/>
	<path class="st8" d="M544.7,77.4c0,1.5,0.7,2.4,2,2.4c0.8,0,1.3-0.2,1.8-0.8l0.7,0.6c-0.7,0.7-1.3,1.1-2.5,1.1c-1.8,0-3-1.1-3-3.5
		c0-2.2,1.1-3.5,2.8-3.5c1.8,0,2.8,1.3,2.8,3.3v0.5L544.7,77.4L544.7,77.4z M548.1,75.5c-0.3-0.6-0.9-1-1.6-1c-0.7,0-1.3,0.4-1.6,1
		c-0.2,0.4-0.2,0.6-0.2,1.1h3.6C548.3,76.1,548.3,75.9,548.1,75.5z"/>
	<path class="st8" d="M556.9,80.6c-1.2,0-1.8-0.8-1.8-1.8v-4.2h-0.9v-0.8h0.9v-2.2h1v2.2h1.5v0.8h-1.5v4.2c0,0.6,0.3,1,0.9,1h0.5
		v0.9L556.9,80.6L556.9,80.6z"/>
	<path class="st8" d="M563.9,79.9c-0.5,0.5-1.1,0.8-2,0.8c-0.9,0-1.5-0.3-2-0.8c-0.7-0.7-0.8-1.7-0.8-2.7s0.1-2,0.8-2.7
		c0.5-0.5,1.1-0.8,2-0.8c0.9,0,1.5,0.3,2,0.8c0.7,0.7,0.8,1.7,0.8,2.7S564.6,79.2,563.9,79.9z M563.2,75c-0.3-0.3-0.8-0.5-1.3-0.5
		s-0.9,0.2-1.2,0.5c-0.5,0.5-0.6,1.4-0.6,2.1s0.1,1.6,0.6,2.1c0.3,0.3,0.8,0.5,1.2,0.5c0.4,0,0.9-0.2,1.3-0.5
		c0.5-0.5,0.5-1.4,0.5-2.1S563.7,75.5,563.2,75z"/>
	<path class="st8" d="M572.3,80.6c-1.2,0-1.8-0.8-1.8-1.8v-4.2h-0.9v-0.8h0.9v-2.2h1v2.2h1.5v0.8h-1.5v4.2c0,0.6,0.3,1,0.9,1h0.5
		v0.9L572.3,80.6L572.3,80.6z"/>
	<path class="st8" d="M579.5,80.6v-4.3c0-1.2-0.6-1.8-1.7-1.8c-1.1,0-1.7,0.6-1.7,1.8v4.3h-1v-10h1v3.8c0.5-0.6,1.2-0.8,1.9-0.8
		c1.6,0,2.5,1,2.5,2.5v4.4L579.5,80.6L579.5,80.6z"/>
	<path class="st8" d="M583.5,77.4c0,1.5,0.7,2.4,2,2.4c0.8,0,1.3-0.2,1.8-0.8l0.7,0.6c-0.7,0.7-1.3,1.1-2.5,1.1c-1.8,0-3-1.1-3-3.5
		c0-2.2,1.1-3.5,2.8-3.5c1.8,0,2.8,1.3,2.8,3.3v0.5L583.5,77.4L583.5,77.4z M587,75.5c-0.3-0.6-0.9-1-1.6-1s-1.3,0.4-1.6,1
		c-0.2,0.4-0.2,0.6-0.2,1.1h3.6C587.2,76.1,587.1,75.9,587,75.5z"/>
	<path class="st8" d="M592.5,80.7c-1.2,0-2.1-0.3-2.8-1l0.7-0.7c0.5,0.6,1.3,0.8,2.1,0.8c1.1,0,1.8-0.4,1.8-1.2c0-0.6-0.3-0.9-1.1-1
		l-1.1-0.1c-1.3-0.1-2.1-0.7-2.1-1.8c0-1.3,1.1-2,2.5-2c1,0,1.9,0.2,2.5,0.7l-0.7,0.7c-0.5-0.4-1.1-0.5-1.8-0.5
		c-1,0-1.5,0.4-1.5,1.1c0,0.6,0.3,0.9,1.2,1l1.1,0.1c1.2,0.1,2,0.6,2,1.9C595.3,79.9,594.2,80.7,592.5,80.7z"/>
	<path class="st8" d="M597.9,77.4c0,1.5,0.7,2.4,2,2.4c0.8,0,1.3-0.2,1.8-0.8l0.7,0.6c-0.7,0.7-1.3,1.1-2.5,1.1c-1.8,0-3-1.1-3-3.5
		c0-2.2,1.1-3.5,2.8-3.5c1.8,0,2.8,1.3,2.8,3.3v0.5L597.9,77.4L597.9,77.4z M601.3,75.5c-0.3-0.6-0.9-1-1.6-1s-1.3,0.4-1.6,1
		c-0.2,0.4-0.2,0.6-0.2,1.1h3.6C601.5,76.1,601.5,75.9,601.3,75.5z"/>
	<path class="st8" d="M610.1,80.6c-1.2,0-1.8-0.8-1.8-1.8v-4.2h-0.9v-0.8h0.9v-2.2h1v2.2h1.5v0.8h-1.5v4.2c0,0.6,0.3,1,0.9,1h0.5
		v0.9L610.1,80.6L610.1,80.6z"/>
	<path class="st8" d="M613.4,77.4c0,1.5,0.7,2.4,2,2.4c0.8,0,1.3-0.2,1.8-0.8l0.7,0.6c-0.7,0.7-1.3,1.1-2.5,1.1c-1.8,0-3-1.1-3-3.5
		c0-2.2,1.1-3.5,2.8-3.5c1.8,0,2.8,1.3,2.8,3.3v0.5L613.4,77.4L613.4,77.4z M616.8,75.5c-0.3-0.6-0.9-1-1.6-1s-1.3,0.4-1.6,1
		c-0.2,0.4-0.2,0.6-0.2,1.1h3.6C617,76.1,616.9,75.9,616.8,75.5z"/>
	<path class="st8" d="M624,75c-0.4-0.4-0.7-0.5-1.2-0.5c-1,0-1.7,0.8-1.7,1.8v4.2h-1v-6.9h1v0.8c0.4-0.6,1.1-0.9,1.9-0.9
		c0.7,0,1.2,0.2,1.7,0.6L624,75z"/>
	<path class="st8" d="M634.9,80.6v-4.2c0-1.2-0.7-1.8-1.7-1.8s-1.7,0.6-1.7,1.7v4.4h-1v-4.2c0-1.2-0.7-1.8-1.7-1.8s-1.7,0.6-1.7,1.8
		v4.2h-1v-6.9h1v0.8c0.5-0.6,1.2-0.8,1.9-0.8c1,0,1.7,0.4,2.1,1.1c0.5-0.8,1.3-1.1,2.3-1.1c0.7,0,1.4,0.2,1.8,0.6
		c0.5,0.5,0.7,1.1,0.7,1.9v4.4L634.9,80.6L634.9,80.6z"/>
	<path class="st8" d="M640.5,80.7c-1.2,0-2.1-0.3-2.8-1l0.7-0.7c0.5,0.6,1.3,0.8,2.1,0.8c1.1,0,1.8-0.4,1.8-1.2c0-0.6-0.4-0.9-1.1-1
		l-1.1-0.1c-1.3-0.1-2.1-0.7-2.1-1.8c0-1.3,1.1-2,2.5-2c1,0,1.9,0.2,2.5,0.7l-0.7,0.7c-0.5-0.4-1.1-0.5-1.8-0.5
		c-1,0-1.5,0.4-1.5,1.1c0,0.6,0.3,0.9,1.2,1l1.1,0.1c1.2,0.1,2,0.6,2,1.9C643.3,79.9,642.2,80.7,640.5,80.7z"/>
	<path class="st8" d="M652.7,80.6V80c-0.6,0.6-1.1,0.7-2,0.7c-1,0-1.5-0.2-1.9-0.6c-0.3-0.3-0.5-0.9-0.5-1.4c0-1.2,0.8-2,2.4-2h2.1
		V76c0-1-0.5-1.5-1.8-1.5c-0.9,0-1.3,0.2-1.7,0.8l-0.7-0.6c0.6-0.8,1.3-1,2.4-1c1.8,0,2.8,0.8,2.8,2.3v4.7h-1.1V80.6z M652.7,77.4
		h-1.9c-1,0-1.5,0.4-1.5,1.2s0.5,1.2,1.6,1.2c0.6,0,1.1,0,1.5-0.5c0.2-0.2,0.4-0.6,0.4-1.2v-0.7H652.7z"/>
	<path class="st8" d="M660.5,80.6v-4.2c0-1.2-0.7-1.8-1.7-1.8s-1.7,0.6-1.7,1.8v4.2h-1v-6.9h1v0.8c0.5-0.6,1.2-0.8,1.9-0.8
		c0.7,0,1.3,0.2,1.8,0.6c0.5,0.5,0.7,1.1,0.7,1.9v4.4H660.5z"/>
	<path class="st8" d="M668.1,80.6v-0.8c-0.6,0.7-1.2,0.9-2,0.9c-0.7,0-1.3-0.2-1.7-0.6c-0.7-0.7-0.8-1.8-0.8-2.9s0.1-2.2,0.8-2.9
		c0.4-0.4,1-0.6,1.7-0.6c0.8,0,1.4,0.2,1.9,0.9v-3.9h1v10L668.1,80.6L668.1,80.6z M666.4,74.5c-1.5,0-1.7,1.3-1.7,2.6
		s0.2,2.6,1.7,2.6s1.7-1.3,1.7-2.6S667.9,74.5,666.4,74.5z"/>
	<path class="st8" d="M677.8,80.7c-1.7,0-3.1-1.2-3.1-3.5c0-2.4,1.3-3.5,3.1-3.5c1,0,1.6,0.3,2.3,1l-0.7,0.6
		c-0.5-0.6-0.9-0.8-1.6-0.8c-0.7,0-1.2,0.3-1.6,0.8c-0.3,0.4-0.4,1-0.4,1.8c0,0.9,0.1,1.4,0.4,1.8c0.4,0.5,0.9,0.8,1.6,0.8
		c0.7,0,1.1-0.2,1.6-0.8l0.7,0.7C679.4,80.4,678.7,80.7,677.8,80.7z"/>
	<path class="st8" d="M686.2,79.9c-0.5,0.5-1.1,0.8-2,0.8s-1.5-0.3-2-0.8c-0.7-0.7-0.8-1.7-0.8-2.7s0.1-2,0.8-2.7
		c0.5-0.5,1.1-0.8,2-0.8s1.5,0.3,2,0.8c0.7,0.7,0.8,1.7,0.8,2.7S686.9,79.2,686.2,79.9z M685.5,75c-0.3-0.3-0.8-0.5-1.3-0.5
		s-0.9,0.2-1.2,0.5c-0.5,0.5-0.6,1.4-0.6,2.1s0.1,1.6,0.6,2.1c0.3,0.3,0.8,0.5,1.2,0.5s0.9-0.2,1.3-0.5c0.5-0.5,0.5-1.4,0.5-2.1
		S686,75.5,685.5,75z"/>
	<path class="st8" d="M693.6,80.6v-4.2c0-1.2-0.7-1.8-1.7-1.8s-1.7,0.6-1.7,1.8v4.2h-1v-6.9h1v0.8c0.5-0.6,1.2-0.8,1.9-0.8
		c0.7,0,1.3,0.2,1.8,0.6c0.5,0.5,0.7,1.1,0.7,1.9v4.4H693.6z"/>
	<path class="st8" d="M701.2,80.6v-0.8c-0.6,0.7-1.2,0.9-2,0.9c-0.7,0-1.3-0.2-1.7-0.6c-0.7-0.7-0.8-1.8-0.8-2.9s0.1-2.2,0.8-2.9
		c0.4-0.4,1-0.6,1.7-0.6c0.8,0,1.4,0.2,1.9,0.9v-3.9h1v10L701.2,80.6L701.2,80.6z M699.4,74.5c-1.5,0-1.7,1.3-1.7,2.6
		s0.2,2.6,1.7,2.6s1.7-1.3,1.7-2.6S700.9,74.5,699.4,74.5z"/>
	<path class="st8" d="M704.6,71.8v-1.1h1.1v1.1H704.6z M704.7,80.6v-6.9h1v6.9H704.7z"/>
	<path class="st8" d="M710.2,80.6c-1.2,0-1.8-0.8-1.8-1.8v-4.2h-0.9v-0.8h0.9v-2.2h1v2.2h1.5v0.8h-1.5v4.2c0,0.6,0.3,1,0.9,1h0.5
		v0.9L710.2,80.6L710.2,80.6z"/>
	<path class="st8" d="M712.8,71.8v-1.1h1.1v1.1H712.8z M712.9,80.6v-6.9h1v6.9H712.9z"/>
	<path class="st8" d="M720.8,79.9c-0.5,0.5-1.1,0.8-2,0.8c-0.9,0-1.5-0.3-2-0.8c-0.7-0.7-0.8-1.7-0.8-2.7s0.1-2,0.8-2.7
		c0.5-0.5,1.1-0.8,2-0.8c0.9,0,1.5,0.3,2,0.8c0.7,0.7,0.8,1.7,0.8,2.7S721.5,79.2,720.8,79.9z M720.1,75c-0.3-0.3-0.8-0.5-1.3-0.5
		s-0.9,0.2-1.2,0.5c-0.5,0.5-0.6,1.4-0.6,2.1s0.1,1.6,0.6,2.1c0.3,0.3,0.8,0.5,1.2,0.5c0.4,0,0.9-0.2,1.3-0.5
		c0.5-0.5,0.5-1.4,0.5-2.1S720.6,75.5,720.1,75z"/>
	<path class="st8" d="M728.3,80.6v-4.2c0-1.2-0.7-1.8-1.7-1.8s-1.7,0.6-1.7,1.8v4.2h-1v-6.9h1v0.8c0.5-0.6,1.2-0.8,1.9-0.8
		c0.7,0,1.3,0.2,1.8,0.6c0.5,0.5,0.7,1.1,0.7,1.9v4.4H728.3z"/>
	<path class="st8" d="M733.9,80.7c-1.2,0-2.1-0.3-2.8-1l0.7-0.7c0.5,0.6,1.3,0.8,2.1,0.8c1.1,0,1.8-0.4,1.8-1.2c0-0.6-0.4-0.9-1.1-1
		l-1.1-0.1c-1.3-0.1-2.1-0.7-2.1-1.8c0-1.3,1.1-2,2.5-2c1,0,1.9,0.2,2.5,0.7l-0.7,0.7c-0.5-0.4-1.1-0.5-1.8-0.5
		c-1,0-1.5,0.4-1.5,1.1c0,0.6,0.3,0.9,1.2,1l1.1,0.1c1.2,0.1,2,0.6,2,1.9C736.7,79.9,735.5,80.7,733.9,80.7z"/>
</g>
<rect x="516.3" y="98.2" class="st9" width="321" height="123"/>
<g>
	<rect x="526.6" y="113.7" class="st7" width="291.6" height="107.4"/>
	<path class="st8" d="M531,118.7h-2.3v3.5h-0.9v-8.5h3.2c1.6,0,2.6,1,2.6,2.5S532.6,118.7,531,118.7z M531,114.5h-2.2v3.4h2.2
		c1.1,0,1.8-0.6,1.8-1.7S532,114.5,531,114.5z"/>
	<path class="st8" d="M535.4,122.3v-8.5h0.9v7.7h4.4v0.8H535.4z"/>
	<path class="st8" d="M542.3,122.3v-8.5h5.3v0.8h-4.4v3h3.7v0.8h-3.7v3.1h4.4v0.8C547.6,122.3,542.3,122.3,542.3,122.3z"/>
	<path class="st8" d="M554.5,122.3l-0.7-1.9h-3.7l-0.7,1.9h-1l3.1-8.5h0.8l3.1,8.5H554.5z M551.9,115l-1.6,4.5h3.2L551.9,115z"/>
	<path class="st8" d="M559,122.3c-1.3,0-2.1-0.3-2.9-1.1l0.6-0.6c0.7,0.7,1.4,0.9,2.3,0.9c1.2,0,2-0.6,2-1.6c0-0.4-0.1-0.8-0.4-1.1
		c-0.3-0.3-0.5-0.3-1.1-0.4l-1-0.2c-0.7-0.1-1.2-0.3-1.6-0.6c-0.4-0.4-0.6-0.9-0.6-1.6c0-1.5,1-2.4,2.7-2.4c1.1,0,1.8,0.3,2.5,0.9
		l-0.6,0.6c-0.5-0.5-1.1-0.7-2-0.7c-1.1,0-1.8,0.6-1.8,1.6c0,0.4,0.1,0.8,0.4,1c0.3,0.2,0.7,0.4,1.2,0.5l0.9,0.1
		c0.8,0.1,1.2,0.3,1.6,0.6c0.5,0.4,0.7,1,0.7,1.7C562,121.4,560.8,122.3,559,122.3z"/>
	<path class="st8" d="M563.9,122.3v-8.5h5.3v0.8h-4.4v3h3.7v0.8h-3.7v3.1h4.4v0.8C569.2,122.3,563.9,122.3,563.9,122.3z"/>
	<path class="st8" d="M579,122.3l-1.9-3.8H575v3.8h-0.9v-8.5h3.3c1.5,0,2.5,0.9,2.5,2.4c0,1.2-0.8,2.1-1.9,2.3l2,3.9h-1V122.3z
		 M577.3,114.5H575v3.1h2.3c1,0,1.7-0.5,1.7-1.6S578.3,114.5,577.3,114.5z"/>
	<path class="st8" d="M581.9,122.3v-8.5h5.3v0.8h-4.4v3h3.7v0.8h-3.7v3.1h4.4v0.8C587.2,122.3,581.9,122.3,581.9,122.3z"/>
	<path class="st8" d="M594.1,122.3l-0.7-1.9h-3.7l-0.7,1.9h-1l3.1-8.5h0.8l3.1,8.5H594.1z M591.6,115l-1.6,4.5h3.2L591.6,115z"/>
	<path class="st8" d="M601.6,121.5c-0.5,0.5-1.3,0.8-2.2,0.8h-2.9v-8.5h2.9c0.9,0,1.6,0.3,2.2,0.8c0.9,0.9,0.8,2.2,0.8,3.4
		C602.4,119.1,602.5,120.6,601.6,121.5z M600.9,115.2c-0.4-0.5-1-0.6-1.7-0.6h-1.9v6.9h1.9c0.7,0,1.2-0.2,1.7-0.6
		c0.6-0.6,0.6-1.9,0.6-2.9S601.5,115.8,600.9,115.2z"/>
	<path class="st8" d="M610.1,114.5v7.7h-0.9v-7.7h-2.5v-0.8h5.9v0.8H610.1z"/>
	<path class="st8" d="M619.1,122.3v-3.9H615v3.9h-0.9v-8.5h0.9v3.8h4.1v-3.8h0.9v8.5H619.1z"/>
	<path class="st8" d="M622.5,122.3v-8.5h0.9v8.5H622.5z"/>
	<path class="st8" d="M628,122.3c-1.3,0-2.1-0.3-2.9-1.1l0.6-0.6c0.7,0.7,1.4,0.9,2.3,0.9c1.2,0,2-0.6,2-1.6c0-0.4-0.1-0.8-0.4-1.1
		c-0.3-0.2-0.5-0.3-1.1-0.4l-1-0.2c-0.7-0.1-1.2-0.3-1.6-0.6c-0.4-0.4-0.6-0.9-0.6-1.6c0-1.5,1-2.4,2.7-2.4c1.1,0,1.8,0.3,2.5,0.9
		l-0.6,0.6c-0.5-0.5-1.1-0.7-2-0.7c-1.1,0-1.8,0.6-1.8,1.6c0,0.4,0.1,0.8,0.4,1s0.7,0.4,1.2,0.5l0.9,0.1c0.8,0.1,1.2,0.3,1.6,0.6
		c0.5,0.4,0.7,1,0.7,1.7C631,121.4,629.8,122.3,628,122.3z"/>
	<path class="st8" d="M638.1,122.3c-1.3,0-2.1-0.3-2.9-1.1l0.6-0.6c0.7,0.7,1.4,0.9,2.3,0.9c1.2,0,2-0.6,2-1.6
		c0-0.4-0.1-0.8-0.4-1.1c-0.3-0.2-0.5-0.3-1.1-0.4l-1-0.2c-0.7-0.1-1.2-0.3-1.6-0.6c-0.4-0.4-0.6-0.9-0.6-1.6c0-1.5,1-2.4,2.7-2.4
		c1.1,0,1.8,0.3,2.5,0.9l-0.6,0.6c-0.5-0.5-1.1-0.7-2-0.7c-1.1,0-1.8,0.6-1.8,1.6c0,0.4,0.1,0.8,0.4,1c0.3,0.2,0.7,0.4,1.2,0.5
		l0.9,0.1c0.8,0.1,1.2,0.3,1.6,0.6c0.5,0.4,0.7,1,0.7,1.7C641,121.4,639.9,122.3,638.1,122.3z"/>
	<path class="st8" d="M647.8,121.4c-0.6,0.6-1.3,0.9-2.2,0.9c-0.9,0-1.6-0.3-2.2-0.9c-0.8-0.8-0.8-1.6-0.8-3.5s0-2.7,0.8-3.5
		c0.6-0.6,1.3-0.9,2.2-0.9c0.9,0,1.6,0.3,2.2,0.9c0.8,0.8,0.8,1.6,0.8,3.5S648.6,120.6,647.8,121.4z M647.1,115.1
		c-0.4-0.4-0.9-0.6-1.5-0.6c-0.6,0-1.1,0.2-1.5,0.6c-0.5,0.6-0.6,1.1-0.6,2.9s0.1,2.4,0.6,2.9c0.4,0.4,0.9,0.6,1.5,0.6
		c0.6,0,1.1-0.2,1.5-0.6c0.5-0.6,0.6-1.1,0.6-2.9S647.6,115.6,647.1,115.1z"/>
	<path class="st8" d="M651.7,114.5v3.1h3.7v0.8h-3.7v3.8h-0.9v-8.5h5.3v0.8C656.1,114.5,651.7,114.5,651.7,114.5z"/>
	<path class="st8" d="M660.2,114.5v7.7h-0.9v-7.7h-2.5v-0.8h5.9v0.8H660.2z"/>
	<path class="st8" d="M670.9,122.3H670l-1.9-6.8l-1.9,6.8h-0.9l-2.2-8.5h1l1.7,6.9l1.9-6.9h0.8l1.9,6.9l1.7-6.9h1L670.9,122.3z"/>
	<path class="st8" d="M679.4,122.3l-0.7-1.9H675l-0.7,1.9h-1l3.1-8.5h0.8l3.1,8.5H679.4z M676.9,115l-1.6,4.5h3.2L676.9,115z"/>
	<path class="st8" d="M686.6,122.3l-1.9-3.8h-2.1v3.8h-0.9v-8.5h3.3c1.5,0,2.5,0.9,2.5,2.4c0,1.2-0.8,2.1-1.9,2.3l2,3.9h-1V122.3z
		 M684.9,114.5h-2.3v3.1h2.3c1,0,1.7-0.5,1.7-1.6S685.9,114.5,684.9,114.5z"/>
	<path class="st8" d="M689.6,122.3v-8.5h5.3v0.8h-4.4v3h3.7v0.8h-3.7v3.1h4.4v0.8C694.9,122.3,689.6,122.3,689.6,122.3z"/>
	<path class="st8" d="M699.8,122.3v-8.5h0.9v7.7h4.4v0.8H699.8z"/>
	<path class="st8" d="M706.7,122.3v-8.5h0.9v8.5H706.7z"/>
	<path class="st8" d="M712.7,122.3c-0.8,0-1.6-0.3-2.2-0.9c-0.8-0.8-0.8-1.6-0.8-3.5s0-2.7,0.8-3.5c0.6-0.6,1.3-0.9,2.2-0.9
		c1.5,0,2.7,0.9,3,2.5h-0.9c-0.2-1-1-1.7-2-1.7c-0.6,0-1.1,0.2-1.5,0.6c-0.5,0.6-0.6,1.1-0.6,2.9s0.1,2.4,0.6,2.9
		c0.4,0.4,0.9,0.6,1.5,0.6c1.1,0,1.8-0.7,2.1-1.7h0.9C715.4,121.4,714.2,122.3,712.7,122.3z"/>
	<path class="st8" d="M717.7,122.3v-8.5h5.3v0.8h-4.4v3h3.7v0.8h-3.7v3.1h4.4v0.8C723,122.3,717.7,122.3,717.7,122.3z"/>
	<path class="st8" d="M730.3,122.3l-4.5-6.8v6.8h-0.9v-8.5h0.9l4.5,6.8v-6.8h0.9v8.5H730.3z"/>
	<path class="st8" d="M735.9,122.3c-1.3,0-2.1-0.3-2.9-1.1l0.6-0.6c0.7,0.7,1.4,0.9,2.3,0.9c1.2,0,2-0.6,2-1.6
		c0-0.4-0.1-0.8-0.4-1.1c-0.3-0.2-0.5-0.3-1.1-0.4l-1-0.2c-0.7-0.1-1.2-0.3-1.6-0.6c-0.4-0.4-0.6-0.9-0.6-1.6c0-1.5,1-2.4,2.7-2.4
		c1.1,0,1.8,0.3,2.5,0.9l-0.6,0.6c-0.5-0.5-1.1-0.7-2-0.7c-1.1,0-1.8,0.6-1.8,1.6c0,0.4,0.1,0.8,0.4,1s0.7,0.4,1.2,0.5l0.9,0.1
		c0.8,0.1,1.2,0.3,1.6,0.6c0.5,0.4,0.7,1,0.7,1.7C738.8,121.4,737.7,122.3,735.9,122.3z"/>
	<path class="st8" d="M740.7,122.3v-8.5h5.3v0.8h-4.4v3h3.7v0.8h-3.7v3.1h4.4v0.8C746,122.3,740.7,122.3,740.7,122.3z"/>
	<path class="st8" d="M755.9,122.3l-0.7-1.9h-3.7l-0.7,1.9h-1l3.1-8.5h0.8l3.1,8.5H755.9z M753.4,115l-1.6,4.5h3.2L753.4,115z"/>
	<path class="st8" d="M763.1,121.3c-0.6,0.6-1.4,1-2.3,1c-0.8,0-1.6-0.3-2.2-0.9c-0.8-0.8-0.8-1.6-0.8-3.5s0-2.7,0.8-3.5
		c0.6-0.6,1.3-0.9,2.2-0.9c1.6,0,2.7,1.1,3,2.6h-0.9c-0.2-1.1-1-1.7-2.1-1.7c-0.6,0-1.1,0.2-1.5,0.6c-0.5,0.6-0.6,1.1-0.6,2.9
		s0.1,2.4,0.6,2.9c0.4,0.4,0.9,0.6,1.5,0.6c0.6,0,1.2-0.3,1.6-0.7c0.3-0.4,0.5-0.9,0.5-1.5v-0.6h-2.1v-0.8h3v1.4
		C763.8,120.1,763.6,120.8,763.1,121.3z"/>
	<path class="st8" d="M770.8,122.3l-1.9-3.8h-2.1v3.8h-0.9v-8.5h3.3c1.5,0,2.5,0.9,2.5,2.4c0,1.2-0.8,2.1-1.9,2.3l2,3.9h-1V122.3z
		 M769.1,114.5h-2.3v3.1h2.3c1,0,1.7-0.5,1.7-1.6S770.1,114.5,769.1,114.5z"/>
	<path class="st8" d="M773.8,122.3v-8.5h5.3v0.8h-4.4v3h3.7v0.8h-3.7v3.1h4.4v0.8C779.1,122.3,773.8,122.3,773.8,122.3z"/>
	<path class="st8" d="M781,122.3v-8.5h5.3v0.8h-4.4v3h3.7v0.8h-3.7v3.1h4.4v0.8C786.3,122.3,781,122.3,781,122.3z"/>
	<path class="st8" d="M787.9,119.4v-0.8h3.3v0.8H787.9z"/>
	<path class="st8" d="M534.3,137.3v-6.5l-2.3,5.1h-0.8l-2.4-5.1v6.5h-0.9v-8.5h0.9l2.8,6.1l2.7-6.1h0.9v8.5H534.3z"/>
	<path class="st8" d="M537.7,137.3v-8.5h5.3v0.8h-4.4v3h3.7v0.8h-3.7v3.1h4.4v0.8L537.7,137.3L537.7,137.3z"/>
	<path class="st8" d="M550.3,137.3l-4.5-6.8v6.8h-0.9v-8.5h0.9l4.5,6.8v-6.8h0.9v8.5H550.3z"/>
	<path class="st8" d="M556.1,129.5v7.7h-0.9v-7.7h-2.5v-0.8h5.9v0.8H556.1z"/>
	<path class="st8" d="M564.2,138.4c-0.4-0.4-0.6-0.6-0.9-1c-0.2-0.4-0.3-0.8-0.3-1.2v-6.3c0-0.4,0-0.8,0.3-1.2
		c0.2-0.4,0.5-0.6,0.9-1l0.6,0.6c-0.3,0.3-0.5,0.5-0.6,0.8c-0.1,0.2-0.2,0.6-0.2,1v6.1c0,0.4,0.1,0.7,0.2,1c0.2,0.3,0.4,0.5,0.6,0.8
		L564.2,138.4z"/>
	<path class="st8" d="M566.6,130.7v-2h1v1L566.6,130.7z M568.6,130.7v-2h1.1v1L568.6,130.7z"/>
	<path class="st8" d="M572,137.3v-8.5h0.9v7.7h4.4v0.8H572z"/>
	<path class="st8" d="M578.9,137.3v-8.5h0.9v8.5H578.9z"/>
	<path class="st8" d="M584.9,137.3c-0.8,0-1.6-0.3-2.2-0.9c-0.8-0.8-0.8-1.6-0.8-3.5s0-2.7,0.8-3.5c0.6-0.6,1.3-0.9,2.2-0.9
		c1.5,0,2.7,0.9,3,2.5H587c-0.2-1-1-1.7-2-1.7c-0.6,0-1.1,0.2-1.5,0.6c-0.5,0.6-0.6,1.1-0.6,2.9s0.1,2.4,0.6,2.9
		c0.4,0.4,0.9,0.6,1.5,0.6c1.1,0,1.8-0.7,2.1-1.7h0.9C587.6,136.4,586.4,137.3,584.9,137.3z"/>
	<path class="st8" d="M589.9,137.3v-8.5h5.3v0.8h-4.4v3h3.7v0.8h-3.7v3.1h4.4v0.8L589.9,137.3L589.9,137.3z"/>
	<path class="st8" d="M602.5,137.3l-4.5-6.8v6.8h-0.9v-8.5h0.9l4.5,6.8v-6.8h0.9v8.5H602.5z"/>
	<path class="st8" d="M608.1,137.3c-1.3,0-2.1-0.3-2.9-1.1l0.6-0.6c0.7,0.7,1.4,0.9,2.3,0.9c1.2,0,2-0.6,2-1.6
		c0-0.4-0.1-0.8-0.4-1.1c-0.3-0.2-0.5-0.3-1.1-0.4l-1-0.2c-0.7-0.1-1.2-0.3-1.6-0.6c-0.4-0.4-0.6-0.9-0.6-1.6c0-1.5,1-2.4,2.7-2.4
		c1.1,0,1.8,0.3,2.5,0.9l-0.6,0.6c-0.5-0.5-1.1-0.7-2-0.7c-1.1,0-1.8,0.6-1.8,1.6c0,0.4,0.1,0.8,0.4,1c0.3,0.2,0.7,0.4,1.2,0.5
		l0.9,0.1c0.8,0.1,1.2,0.3,1.6,0.6c0.5,0.4,0.7,1,0.7,1.7C611,136.4,609.8,137.3,608.1,137.3z"/>
	<path class="st8" d="M612.9,137.3v-8.5h5.3v0.8h-4.4v3h3.7v0.8h-3.7v3.1h4.4v0.8L612.9,137.3L612.9,137.3z"/>
	<path class="st8" d="M620,130.7v-2h1v1L620,130.7z M622,130.7v-2h1.1v1L622,130.7z"/>
	<path class="st8" d="M626.3,137.4c-0.2,0.4-0.5,0.6-0.9,1l-0.6-0.6c0.3-0.3,0.5-0.5,0.7-0.8c0.1-0.2,0.2-0.6,0.2-0.9V130
		c0-0.4,0-0.7-0.2-0.9c-0.2-0.3-0.4-0.5-0.7-0.8l0.6-0.6c0.4,0.4,0.6,0.6,0.9,1c0.3,0.4,0.2,0.8,0.2,1.2v6.3
		C626.6,136.5,626.5,137,626.3,137.4z"/>
	<path class="st8" d="M634.6,137.3c-0.8,0-1.6-0.3-2.2-0.9c-0.8-0.8-0.8-1.6-0.8-3.5s0-2.7,0.8-3.5c0.6-0.6,1.3-0.9,2.2-0.9
		c1.5,0,2.7,0.9,3,2.5h-0.9c-0.2-1-1-1.7-2-1.7c-0.6,0-1.1,0.2-1.5,0.6c-0.5,0.6-0.6,1.1-0.6,2.9s0.1,2.4,0.6,2.9
		c0.4,0.4,0.9,0.6,1.5,0.6c1.1,0,1.8-0.7,2.1-1.7h0.9C637.3,136.4,636.1,137.3,634.6,137.3z"/>
	<path class="st8" d="M644.4,137.3l-0.7-1.9H640l-0.7,1.9h-1l3.1-8.5h0.8l3.1,8.5H644.4z M641.9,130l-1.6,4.5h3.2L641.9,130z"/>
	<path class="st8" d="M651.7,137.3l-1.9-3.8h-2.1v3.8h-0.9v-8.5h3.3c1.5,0,2.5,0.9,2.5,2.4c0,1.2-0.8,2.1-1.9,2.3l2,3.9L651.7,137.3
		L651.7,137.3z M649.9,129.5h-2.3v3.1h2.3c1,0,1.7-0.5,1.7-1.6S650.9,129.5,649.9,129.5z"/>
	<path class="st8" d="M654.6,137.3v-8.5h5.3v0.8h-4.4v3h3.7v0.8h-3.7v3.1h4.4v0.8L654.6,137.3L654.6,137.3z"/>
	<path class="st8" d="M662.7,129.5v3.1h3.7v0.8h-3.7v3.8h-0.9v-8.5h5.3v0.8L662.7,129.5L662.7,129.5z"/>
	<path class="st8" d="M671.6,137.3c-1.7,0-3-1.2-3-2.9v-5.7h0.9v5.6c0,1.3,0.8,2.1,2.1,2.1c1.3,0,2.1-0.9,2.1-2.1v-5.6h0.9v5.7
		C674.6,136.1,673.4,137.3,671.6,137.3z"/>
	<path class="st8" d="M677,137.3v-8.5h0.9v7.7h4.4v0.8H677z"/>
	<path class="st8" d="M683.9,137.3v-8.5h0.9v7.7h4.4v0.8H683.9z"/>
	<path class="st8" d="M692.1,133.7v3.5h-0.9v-3.5l-2.5-5h1l2,4.1l2-4.1h1L692.1,133.7z"/>
	<path class="st8" d="M702.3,137.3H699v-8.5h3.2c1.5,0,2.5,0.9,2.5,2.3c0,0.9-0.5,1.6-1.3,1.9c0.8,0.3,1.4,1,1.4,2
		C704.8,136.4,703.8,137.3,702.3,137.3z M702.1,129.5h-2.2v3h2.2c0.9,0,1.7-0.5,1.7-1.5S703,129.5,702.1,129.5z M702.2,133.3h-2.3
		v3.1h2.3c1.1,0,1.7-0.6,1.7-1.6S703.2,133.3,702.2,133.3z"/>
	<path class="st8" d="M707,137.3v-8.5h5.3v0.8h-4.4v3h3.7v0.8h-3.7v3.1h4.4v0.8L707,137.3L707,137.3z"/>
	<path class="st8" d="M715.1,129.5v3.1h3.7v0.8h-3.7v3.8h-0.9v-8.5h5.3v0.8L715.1,129.5L715.1,129.5z"/>
	<path class="st8" d="M725.7,136.4c-0.6,0.6-1.3,0.9-2.2,0.9c-0.9,0-1.6-0.3-2.2-0.9c-0.8-0.8-0.8-1.6-0.8-3.5s0-2.7,0.8-3.5
		c0.6-0.6,1.3-0.9,2.2-0.9c0.9,0,1.6,0.3,2.2,0.9c0.8,0.8,0.8,1.6,0.8,3.5S726.5,135.6,725.7,136.4z M725,130.1
		c-0.4-0.4-0.9-0.6-1.5-0.6c-0.6,0-1.1,0.2-1.5,0.6c-0.5,0.6-0.6,1.1-0.6,2.9s0.1,2.4,0.6,2.9c0.4,0.4,0.9,0.6,1.5,0.6
		c0.6,0,1.1-0.2,1.5-0.6c0.5-0.6,0.6-1.1,0.6-2.9S725.6,130.6,725,130.1z"/>
	<path class="st8" d="M733.6,137.3l-1.9-3.8h-2.1v3.8h-0.9v-8.5h3.3c1.5,0,2.5,0.9,2.5,2.4c0,1.2-0.8,2.1-1.9,2.3l2,3.9L733.6,137.3
		L733.6,137.3z M731.9,129.5h-2.3v3.1h2.3c1,0,1.7-0.5,1.7-1.6S732.9,129.5,731.9,129.5z"/>
	<path class="st8" d="M736.5,137.3v-8.5h5.3v0.8h-4.4v3h3.7v0.8h-3.7v3.1h4.4v0.8L736.5,137.3L736.5,137.3z"/>
	<path class="st8" d="M749.6,137.3c-1.7,0-3-1.2-3-2.9v-5.7h0.9v5.6c0,1.3,0.8,2.1,2.1,2.1c1.3,0,2.1-0.9,2.1-2.1v-5.6h0.9v5.7
		C752.6,136.1,751.3,137.3,749.6,137.3z"/>
	<path class="st8" d="M757.1,137.3c-1.3,0-2.1-0.3-2.9-1.1l0.6-0.6c0.7,0.7,1.4,0.9,2.3,0.9c1.2,0,2-0.6,2-1.6
		c0-0.4-0.1-0.8-0.4-1.1c-0.3-0.2-0.5-0.3-1.1-0.4l-1-0.2c-0.7-0.1-1.2-0.3-1.6-0.6c-0.4-0.4-0.6-0.9-0.6-1.6c0-1.5,1-2.4,2.7-2.4
		c1.1,0,1.8,0.3,2.5,0.9l-0.6,0.6c-0.5-0.5-1.1-0.7-2-0.7c-1.1,0-1.8,0.6-1.8,1.6c0,0.4,0.1,0.8,0.4,1c0.3,0.2,0.7,0.4,1.2,0.5
		l0.9,0.1c0.8,0.1,1.2,0.3,1.6,0.6c0.5,0.4,0.7,1,0.7,1.7C760.1,136.4,758.9,137.3,757.1,137.3z"/>
	<path class="st8" d="M762,137.3v-8.5h0.9v8.5H762z"/>
	<path class="st8" d="M770.8,137.3l-4.5-6.8v6.8h-0.9v-8.5h0.9l4.5,6.8v-6.8h0.9v8.5H770.8z"/>
	<path class="st8" d="M779.1,136.3c-0.6,0.6-1.4,1-2.3,1c-0.8,0-1.6-0.3-2.2-0.9c-0.8-0.8-0.8-1.6-0.8-3.5s0-2.7,0.8-3.5
		c0.6-0.6,1.3-0.9,2.2-0.9c1.6,0,2.7,1.1,3,2.6h-0.9c-0.2-1.1-1-1.7-2.1-1.7c-0.6,0-1.1,0.2-1.5,0.6c-0.5,0.6-0.6,1.1-0.6,2.9
		s0.1,2.4,0.6,2.9c0.4,0.4,0.9,0.6,1.5,0.6c0.6,0,1.2-0.3,1.6-0.7c0.3-0.4,0.5-0.9,0.5-1.5v-0.6h-2.1v-0.8h3v1.4
		C779.8,135.1,779.6,135.8,779.1,136.3z"/>
	<path class="st8" d="M787.4,129.5v7.7h-0.9v-7.7H784v-0.8h5.9v0.8H787.4z"/>
	<path class="st8" d="M796.5,137.3v-3.9h-4.1v3.9h-0.9v-8.5h0.9v3.8h4.1v-3.8h0.9v8.5H796.5z"/>
	<path class="st8" d="M799.9,137.3v-8.5h5.3v0.8h-4.4v3h3.7v0.8h-3.7v3.1h4.4v0.8L799.9,137.3L799.9,137.3z"/>
	<path class="st8" d="M530.1,152.3c-1.3,0-2.1-0.3-2.9-1.1l0.6-0.6c0.7,0.7,1.4,0.9,2.3,0.9c1.2,0,2-0.6,2-1.6
		c0-0.4-0.1-0.8-0.4-1.1s-0.5-0.3-1.1-0.4l-1-0.2c-0.7-0.1-1.2-0.3-1.6-0.6c-0.4-0.4-0.6-0.9-0.6-1.6c0-1.5,1-2.4,2.7-2.4
		c1.1,0,1.8,0.3,2.5,0.9l-0.6,0.6c-0.5-0.5-1.1-0.7-2-0.7c-1.1,0-1.8,0.6-1.8,1.6c0,0.4,0.1,0.8,0.4,1c0.3,0.2,0.7,0.4,1.2,0.5
		l0.9,0.1c0.8,0.1,1.2,0.3,1.6,0.6c0.5,0.4,0.7,1,0.7,1.7C533,151.4,531.8,152.3,530.1,152.3z"/>
	<path class="st8" d="M539.8,151.4c-0.6,0.6-1.3,0.9-2.2,0.9c-0.9,0-1.6-0.3-2.2-0.9c-0.8-0.8-0.8-1.6-0.8-3.5s0-2.7,0.8-3.5
		c0.6-0.6,1.3-0.9,2.2-0.9c0.9,0,1.6,0.3,2.2,0.9c0.8,0.8,0.8,1.6,0.8,3.5S540.6,150.6,539.8,151.4z M539.1,145.1
		c-0.4-0.4-0.9-0.6-1.5-0.6c-0.6,0-1.1,0.2-1.5,0.6c-0.5,0.6-0.6,1.1-0.6,2.9s0.1,2.4,0.6,2.9c0.4,0.4,0.9,0.6,1.5,0.6
		c0.6,0,1.1-0.2,1.5-0.6c0.5-0.6,0.6-1.1,0.6-2.9S539.6,145.6,539.1,145.1z"/>
	<path class="st8" d="M543.6,144.5v3.1h3.7v0.8h-3.7v3.8h-0.9v-8.5h5.3v0.8L543.6,144.5L543.6,144.5z"/>
	<path class="st8" d="M552.2,144.5v7.7h-0.9v-7.7h-2.5v-0.8h5.9v0.8H552.2z"/>
	<path class="st8" d="M562.9,152.3H562l-1.9-6.8l-1.9,6.8h-0.9l-2.2-8.5h1l1.7,6.9l1.9-6.9h0.8l1.9,6.9l1.7-6.9h1L562.9,152.3z"/>
	<path class="st8" d="M571.3,152.3l-0.7-1.9h-3.7l-0.7,1.9h-1l3.1-8.5h0.8l3.1,8.5H571.3z M568.8,145l-1.6,4.5h3.2L568.8,145z"/>
	<path class="st8" d="M578.6,152.3l-1.9-3.8h-2.1v3.8h-0.9v-8.5h3.3c1.5,0,2.5,0.9,2.5,2.4c0,1.2-0.8,2.1-1.9,2.3l2,3.9L578.6,152.3
		L578.6,152.3z M576.9,144.5h-2.3v3.1h2.3c1,0,1.7-0.5,1.7-1.6S577.9,144.5,576.9,144.5z"/>
	<path class="st8" d="M581.6,152.3v-8.5h5.3v0.8h-4.4v3h3.7v0.8h-3.7v3.1h4.4v0.8L581.6,152.3L581.6,152.3z"/>
	<path class="st8" d="M588.6,152.3v-1.1h1.1v1.1H588.6z"/>
	<path class="st8" d="M598.3,152.3H595v-8.5h3.2c1.5,0,2.5,0.9,2.5,2.3c0,0.9-0.5,1.6-1.3,1.9c0.8,0.3,1.4,1,1.4,2
		C600.9,151.4,599.8,152.3,598.3,152.3z M598.1,144.5h-2.2v3h2.2c0.9,0,1.7-0.5,1.7-1.5S599.1,144.5,598.1,144.5z M598.2,148.3h-2.3
		v3.1h2.3c1.1,0,1.7-0.6,1.7-1.6S599.3,148.3,598.2,148.3z"/>
	<path class="st8" d="M605.3,148.7v3.5h-0.9v-3.5l-2.5-5h1l2,4.1l2-4.1h1L605.3,148.7z"/>
	<path class="st8" d="M615,152.3c-1.7,0-3-1.2-3-2.9v-5.7h0.9v5.6c0,1.3,0.8,2.1,2.1,2.1c1.3,0,2.1-0.9,2.1-2.1v-5.6h0.9v5.7
		C618,151.1,616.8,152.3,615,152.3z"/>
	<path class="st8" d="M622.6,152.3c-1.3,0-2.1-0.3-2.9-1.1l0.6-0.6c0.7,0.7,1.4,0.9,2.3,0.9c1.2,0,2-0.6,2-1.6
		c0-0.4-0.1-0.8-0.4-1.1c-0.3-0.2-0.5-0.3-1.1-0.4l-1-0.2c-0.7-0.1-1.2-0.3-1.6-0.6c-0.4-0.4-0.6-0.9-0.6-1.6c0-1.5,1-2.4,2.7-2.4
		c1.1,0,1.8,0.3,2.5,0.9l-0.6,0.6c-0.5-0.5-1.1-0.7-2-0.7c-1.1,0-1.8,0.6-1.8,1.6c0,0.4,0.1,0.8,0.4,1c0.3,0.2,0.7,0.4,1.2,0.5
		l0.9,0.1c0.8,0.1,1.2,0.3,1.6,0.6c0.5,0.4,0.7,1,0.7,1.7C625.5,151.4,624.3,152.3,622.6,152.3z"/>
	<path class="st8" d="M627.4,152.3v-8.5h0.9v8.5H627.4z"/>
	<path class="st8" d="M636.3,152.3l-4.5-6.8v6.8h-0.9v-8.5h0.9l4.5,6.8v-6.8h0.9v8.5H636.3z"/>
	<path class="st8" d="M644.5,151.3c-0.6,0.6-1.4,1-2.3,1c-0.8,0-1.6-0.3-2.2-0.9c-0.8-0.8-0.8-1.6-0.8-3.5s0-2.7,0.8-3.5
		c0.6-0.6,1.3-0.9,2.2-0.9c1.6,0,2.7,1.1,3,2.6h-0.9c-0.2-1.1-1-1.7-2.1-1.7c-0.6,0-1.1,0.2-1.5,0.6c-0.5,0.6-0.6,1.1-0.6,2.9
		s0.1,2.4,0.6,2.9c0.4,0.4,0.9,0.6,1.5,0.6s1.2-0.3,1.6-0.7c0.3-0.4,0.5-0.9,0.5-1.5v-0.6h-2.1v-0.8h3v1.4
		C645.3,150.1,645.1,150.8,644.5,151.3z"/>
	<path class="st8" d="M652.9,144.5v7.7H652v-7.7h-2.5v-0.8h5.9v0.8H652.9z"/>
	<path class="st8" d="M661.9,152.3v-3.9h-4.1v3.9h-0.9v-8.5h0.9v3.8h4.1v-3.8h0.9v8.5H661.9z"/>
	<path class="st8" d="M665.3,152.3v-8.5h5.3v0.8h-4.4v3h3.7v0.8h-3.7v3.1h4.4v0.8L665.3,152.3L665.3,152.3z"/>
	<path class="st8" d="M677.7,152.3c-1.3,0-2.1-0.3-2.9-1.1l0.6-0.6c0.7,0.7,1.4,0.9,2.3,0.9c1.2,0,2-0.6,2-1.6
		c0-0.4-0.1-0.8-0.4-1.1c-0.3-0.2-0.5-0.3-1.1-0.4l-1-0.2c-0.7-0.1-1.2-0.3-1.6-0.6c-0.4-0.4-0.6-0.9-0.6-1.6c0-1.5,1-2.4,2.7-2.4
		c1.1,0,1.8,0.3,2.5,0.9l-0.6,0.6c-0.5-0.5-1.1-0.7-2-0.7c-1.1,0-1.8,0.6-1.8,1.6c0,0.4,0.1,0.8,0.4,1s0.7,0.4,1.2,0.5l0.9,0.1
		c0.8,0.1,1.2,0.3,1.6,0.6c0.5,0.4,0.7,1,0.7,1.7C680.6,151.4,679.5,152.3,677.7,152.3z"/>
	<path class="st8" d="M687.4,151.4c-0.6,0.6-1.3,0.9-2.2,0.9s-1.6-0.3-2.2-0.9c-0.8-0.8-0.8-1.6-0.8-3.5s0-2.7,0.8-3.5
		c0.6-0.6,1.3-0.9,2.2-0.9s1.6,0.3,2.2,0.9c0.8,0.8,0.8,1.6,0.8,3.5S688.2,150.6,687.4,151.4z M686.7,145.1
		c-0.4-0.4-0.9-0.6-1.5-0.6s-1.1,0.2-1.5,0.6c-0.5,0.6-0.6,1.1-0.6,2.9s0.1,2.4,0.6,2.9c0.4,0.4,0.9,0.6,1.5,0.6s1.1-0.2,1.5-0.6
		c0.5-0.6,0.6-1.1,0.6-2.9S687.2,145.6,686.7,145.1z"/>
	<path class="st8" d="M691.3,144.5v3.1h3.7v0.8h-3.7v3.8h-0.9v-8.5h5.3v0.8L691.3,144.5L691.3,144.5z"/>
	<path class="st8" d="M699.8,144.5v7.7h-0.9v-7.7h-2.5v-0.8h5.9v0.8H699.8z"/>
	<path class="st8" d="M710.5,152.3h-0.9l-1.9-6.8l-1.9,6.8h-0.9l-2.2-8.5h1l1.7,6.9l1.9-6.9h0.8l1.9,6.9l1.7-6.9h1L710.5,152.3z"/>
	<path class="st8" d="M719,152.3l-0.7-1.9h-3.7l-0.7,1.9h-1l3.1-8.5h0.8l3.1,8.5H719z M716.5,145l-1.6,4.5h3.2L716.5,145z"/>
	<path class="st8" d="M726.2,152.3l-1.9-3.8h-2.1v3.8h-0.9v-8.5h3.3c1.5,0,2.5,0.9,2.5,2.4c0,1.2-0.8,2.1-1.9,2.3l2,3.9L726.2,152.3
		L726.2,152.3z M724.5,144.5h-2.3v3.1h2.3c1,0,1.7-0.5,1.7-1.6S725.5,144.5,724.5,144.5z"/>
	<path class="st8" d="M729.2,152.3v-8.5h5.3v0.8h-4.4v3h3.7v0.8h-3.7v3.1h4.4v0.8L729.2,152.3L729.2,152.3z"/>
	<path class="st8" d="M736.2,154v-2.8h1.1v1.8L736.2,154z"/>
	<path class="st8" d="M744.9,148.7v3.5H744v-3.5l-2.5-5h1l2,4.1l2-4.1h1L744.9,148.7z"/>
	<path class="st8" d="M753.5,151.4c-0.6,0.6-1.3,0.9-2.2,0.9s-1.6-0.3-2.2-0.9c-0.8-0.8-0.8-1.6-0.8-3.5s0-2.7,0.8-3.5
		c0.6-0.6,1.3-0.9,2.2-0.9s1.6,0.3,2.2,0.9c0.8,0.8,0.8,1.6,0.8,3.5S754.3,150.6,753.5,151.4z M752.8,145.1
		c-0.4-0.4-0.9-0.6-1.5-0.6c-0.6,0-1.1,0.2-1.5,0.6c-0.5,0.6-0.6,1.1-0.6,2.9s0.1,2.4,0.6,2.9c0.4,0.4,0.9,0.6,1.5,0.6
		c0.6,0,1.1-0.2,1.5-0.6c0.5-0.6,0.6-1.1,0.6-2.9S753.3,145.6,752.8,145.1z"/>
	<path class="st8" d="M759.3,152.3c-1.7,0-3-1.2-3-2.9v-5.7h0.9v5.6c0,1.3,0.8,2.1,2.1,2.1c1.3,0,2.1-0.9,2.1-2.1v-5.6h0.9v5.7
		C762.3,151.1,761,152.3,759.3,152.3z"/>
	<path class="st8" d="M772.6,152.3l-0.7-1.9h-3.7l-0.7,1.9h-1l3.1-8.5h0.8l3.1,8.5H772.6z M770,145l-1.6,4.5h3.2L770,145z"/>
	<path class="st8" d="M779.8,152.3l-1.9-3.8h-2.1v3.8h-0.9v-8.5h3.3c1.5,0,2.5,0.9,2.5,2.4c0,1.2-0.8,2.1-1.9,2.3l2,3.9L779.8,152.3
		L779.8,152.3z M778.1,144.5h-2.3v3.1h2.3c1,0,1.7-0.5,1.7-1.6S779.1,144.5,778.1,144.5z"/>
	<path class="st8" d="M782.8,152.3v-8.5h5.3v0.8h-4.4v3h3.7v0.8h-3.7v3.1h4.4v0.8L782.8,152.3L782.8,152.3z"/>
	<path class="st8" d="M532.8,167.3l-0.7-1.9h-3.7l-0.7,1.9h-1l3.1-8.5h0.8l3.1,8.5H532.8z M530.3,160l-1.6,4.5h3.2L530.3,160z"/>
	<path class="st8" d="M540,166.3c-0.6,0.6-1.4,1-2.3,1c-0.8,0-1.6-0.3-2.2-0.9c-0.8-0.8-0.8-1.6-0.8-3.5c0-1.8,0-2.7,0.8-3.5
		c0.6-0.6,1.3-0.9,2.2-0.9c1.6,0,2.7,1.1,3,2.6h-0.9c-0.2-1.1-1-1.7-2.1-1.7c-0.6,0-1.1,0.2-1.5,0.6c-0.5,0.6-0.6,1.1-0.6,2.9
		s0.1,2.4,0.6,2.9c0.4,0.4,0.9,0.6,1.5,0.6s1.2-0.3,1.6-0.7c0.3-0.4,0.5-0.9,0.5-1.5v-0.6h-2.1v-0.8h3v1.4
		C540.7,165.1,540.5,165.8,540,166.3z"/>
	<path class="st8" d="M547.8,167.3l-1.9-3.8h-2.1v3.8h-0.9v-8.5h3.3c1.5,0,2.5,0.9,2.5,2.4c0,1.2-0.8,2.1-1.9,2.3l2,3.9L547.8,167.3
		L547.8,167.3z M546.1,159.5h-2.3v3.1h2.3c1,0,1.7-0.5,1.7-1.6S547.1,159.5,546.1,159.5z"/>
	<path class="st8" d="M550.7,167.3v-8.5h5.3v0.8h-4.4v3h3.7v0.8h-3.7v3.1h4.4v0.8L550.7,167.3L550.7,167.3z"/>
	<path class="st8" d="M557.9,167.3v-8.5h5.3v0.8h-4.4v3h3.7v0.8h-3.7v3.1h4.4v0.8L557.9,167.3L557.9,167.3z"/>
	<path class="st8" d="M565.1,167.3v-8.5h0.9v8.5H565.1z"/>
	<path class="st8" d="M574,167.3l-4.5-6.8v6.8h-0.9v-8.5h0.9l4.5,6.8v-6.8h0.9v8.5H574z"/>
	<path class="st8" d="M582.3,166.3c-0.6,0.6-1.4,1-2.3,1c-0.8,0-1.6-0.3-2.2-0.9c-0.8-0.8-0.8-1.6-0.8-3.5c0-1.8,0-2.7,0.8-3.5
		c0.6-0.6,1.3-0.9,2.2-0.9c1.6,0,2.7,1.1,3,2.6h-0.9c-0.2-1.1-1-1.7-2.1-1.7c-0.6,0-1.1,0.2-1.5,0.6c-0.5,0.6-0.6,1.1-0.6,2.9
		s0.1,2.4,0.6,2.9c0.4,0.4,0.9,0.6,1.5,0.6s1.2-0.3,1.6-0.7c0.3-0.4,0.5-0.9,0.5-1.5v-0.6H580v-0.8h3v1.4
		C583,165.1,582.8,165.8,582.3,166.3z"/>
	<path class="st8" d="M590.6,159.5v7.7h-0.9v-7.7h-2.5v-0.8h5.9v0.8H590.6z"/>
	<path class="st8" d="M599.3,166.4c-0.6,0.6-1.3,0.9-2.2,0.9c-0.9,0-1.6-0.3-2.2-0.9c-0.8-0.8-0.8-1.6-0.8-3.5c0-1.8,0-2.7,0.8-3.5
		c0.6-0.6,1.3-0.9,2.2-0.9c0.9,0,1.6,0.3,2.2,0.9c0.8,0.8,0.8,1.6,0.8,3.5C600.1,164.8,600.1,165.6,599.3,166.4z M598.6,160.1
		c-0.4-0.4-0.9-0.6-1.5-0.6c-0.6,0-1.1,0.2-1.5,0.6c-0.5,0.6-0.6,1.1-0.6,2.9s0.1,2.4,0.6,2.9c0.4,0.4,0.9,0.6,1.5,0.6
		c0.6,0,1.1-0.2,1.5-0.6c0.5-0.6,0.6-1.1,0.6-2.9S599.1,160.6,598.6,160.1z"/>
	<path class="st8" d="M608.5,167.3h-3.3v-8.5h3.2c1.5,0,2.5,0.9,2.5,2.3c0,0.9-0.5,1.6-1.3,1.9c0.8,0.3,1.4,1,1.4,2
		C611.1,166.4,610.1,167.3,608.5,167.3z M608.4,159.5h-2.2v3h2.2c0.9,0,1.7-0.5,1.7-1.5C610,160,609.3,159.5,608.4,159.5z
		 M608.5,163.3h-2.3v3.1h2.3c1.1,0,1.7-0.6,1.7-1.6S609.5,163.3,608.5,163.3z"/>
	<path class="st8" d="M613.2,167.3v-8.5h5.3v0.8h-4.3v3h3.7v0.8h-3.7v3.1h4.4v0.8L613.2,167.3L613.2,167.3z"/>
	<path class="st8" d="M626.8,167.3h-3.3v-8.5h3.2c1.5,0,2.5,0.9,2.5,2.3c0,0.9-0.5,1.6-1.3,1.9c0.8,0.3,1.4,1,1.4,2
		C629.3,166.4,628.3,167.3,626.8,167.3z M626.6,159.5h-2.2v3h2.2c0.9,0,1.7-0.5,1.7-1.5C628.3,160,627.5,159.5,626.6,159.5z
		 M626.7,163.3h-2.3v3.1h2.3c1.1,0,1.7-0.6,1.7-1.6S627.7,163.3,626.7,163.3z"/>
	<path class="st8" d="M636.3,166.4c-0.6,0.6-1.3,0.9-2.2,0.9c-0.9,0-1.6-0.3-2.2-0.9c-0.8-0.8-0.8-1.6-0.8-3.5c0-1.8,0-2.7,0.8-3.5
		c0.6-0.6,1.3-0.9,2.2-0.9c0.9,0,1.6,0.3,2.2,0.9c0.8,0.8,0.8,1.6,0.8,3.5C637.1,164.8,637.1,165.6,636.3,166.4z M635.6,160.1
		c-0.4-0.4-0.9-0.6-1.5-0.6c-0.6,0-1.1,0.2-1.5,0.6c-0.5,0.6-0.6,1.1-0.6,2.9s0.1,2.4,0.6,2.9c0.4,0.4,0.9,0.6,1.5,0.6
		c0.6,0,1.1-0.2,1.5-0.6c0.5-0.6,0.6-1.1,0.6-2.9S636.1,160.6,635.6,160.1z"/>
	<path class="st8" d="M642.1,167.3c-1.7,0-3-1.2-3-2.9v-5.7h0.9v5.6c0,1.3,0.8,2.1,2.1,2.1c1.3,0,2.1-0.9,2.1-2.1v-5.6h0.9v5.7
		C645.1,166.1,643.8,167.3,642.1,167.3z"/>
	<path class="st8" d="M652.9,167.3l-4.5-6.8v6.8h-0.9v-8.5h0.9l4.5,6.8v-6.8h0.9v8.5H652.9z"/>
	<path class="st8" d="M661.3,166.5c-0.5,0.5-1.3,0.8-2.2,0.8h-2.9v-8.5h2.9c0.9,0,1.6,0.3,2.2,0.8c0.9,0.9,0.8,2.2,0.8,3.4
		S662.2,165.6,661.3,166.5z M660.7,160.2c-0.4-0.5-1-0.6-1.7-0.6h-1.9v6.9h1.9c0.7,0,1.2-0.2,1.7-0.6c0.6-0.6,0.6-1.9,0.6-2.9
		C661.2,161.8,661.3,160.8,660.7,160.2z"/>
	<path class="st8" d="M670.6,167.3h-3.3v-8.5h3.2c1.5,0,2.5,0.9,2.5,2.3c0,0.9-0.5,1.6-1.3,1.9c0.8,0.3,1.4,1,1.4,2
		C673.2,166.4,672.1,167.3,670.6,167.3z M670.4,159.5h-2.2v3h2.2c0.9,0,1.7-0.5,1.7-1.5S671.4,159.5,670.4,159.5z M670.5,163.3h-2.3
		v3.1h2.3c1.1,0,1.7-0.6,1.7-1.6S671.6,163.3,670.5,163.3z"/>
	<path class="st8" d="M677.6,163.7v3.5h-0.9v-3.5l-2.5-5h1l2,4.1l2-4.1h1L677.6,163.7z"/>
	<path class="st8" d="M687,159.5v7.7h-0.9v-7.7h-2.5v-0.8h5.9v0.8H687z"/>
	<path class="st8" d="M696,167.3v-3.9h-4.1v3.9H691v-8.5h0.9v3.8h4.1v-3.8h0.9v8.5H696z"/>
	<path class="st8" d="M699.4,167.3v-8.5h5.3v0.8h-4.4v3h3.7v0.8h-3.7v3.1h4.4v0.8L699.4,167.3L699.4,167.3z"/>
	<path class="st8" d="M712.1,159.5v7.7h-0.9v-7.7h-2.5v-0.8h5.9v0.8H712.1z"/>
	<path class="st8" d="M716.2,167.3v-8.5h5.3v0.8h-4.4v3h3.7v0.8h-3.7v3.1h4.4v0.8L716.2,167.3L716.2,167.3z"/>
	<path class="st8" d="M728.3,167.3l-1.9-3.8h-2.1v3.8h-0.9v-8.5h3.3c1.5,0,2.5,0.9,2.5,2.4c0,1.2-0.8,2.1-1.9,2.3l2,3.9L728.3,167.3
		L728.3,167.3z M726.5,159.5h-2.3v3.1h2.3c1,0,1.7-0.5,1.7-1.6S727.5,159.5,726.5,159.5z"/>
	<path class="st8" d="M737.6,167.3v-6.5l-2.3,5.1h-0.8l-2.4-5.1v6.5h-0.9v-8.5h0.9l2.8,6.1l2.7-6.1h0.9v8.5H737.6z"/>
	<path class="st8" d="M743.2,167.3c-1.3,0-2.1-0.3-2.9-1.1l0.6-0.6c0.7,0.7,1.4,0.9,2.3,0.9c1.2,0,2-0.6,2-1.6
		c0-0.4-0.1-0.8-0.4-1.1c-0.3-0.2-0.5-0.3-1.1-0.4l-1-0.2c-0.7-0.1-1.2-0.3-1.6-0.6c-0.4-0.4-0.6-0.9-0.6-1.6c0-1.5,1-2.4,2.7-2.4
		c1.1,0,1.8,0.3,2.5,0.9l-0.6,0.6c-0.5-0.5-1.1-0.7-2-0.7c-1.1,0-1.8,0.6-1.8,1.6c0,0.4,0.1,0.8,0.4,1s0.7,0.4,1.2,0.5l0.9,0.1
		c0.8,0.1,1.2,0.3,1.6,0.6c0.5,0.4,0.7,1,0.7,1.7C746.2,166.4,745,167.3,743.2,167.3z"/>
	<path class="st8" d="M755.9,166.4c-0.6,0.6-1.3,0.9-2.2,0.9s-1.6-0.3-2.2-0.9c-0.8-0.8-0.8-1.6-0.8-3.5c0-1.8,0-2.7,0.8-3.5
		c0.6-0.6,1.3-0.9,2.2-0.9s1.6,0.3,2.2,0.9c0.8,0.8,0.8,1.6,0.8,3.5C756.7,164.8,756.7,165.6,755.9,166.4z M755.2,160.1
		c-0.4-0.4-0.9-0.6-1.5-0.6s-1.1,0.2-1.5,0.6c-0.5,0.6-0.6,1.1-0.6,2.9s0.1,2.4,0.6,2.9c0.4,0.4,0.9,0.6,1.5,0.6s1.1-0.2,1.5-0.6
		c0.5-0.6,0.6-1.1,0.6-2.9S755.7,160.6,755.2,160.1z"/>
	<path class="st8" d="M759.8,159.5v3.1h3.7v0.8h-3.7v3.8h-0.9v-8.5h5.3v0.8L759.8,159.5L759.8,159.5z"/>
	<path class="st8" d="M771.3,159.5v7.7h-0.9v-7.7h-2.5v-0.8h5.9v0.8H771.3z"/>
	<path class="st8" d="M780.4,167.3v-3.9h-4.1v3.9h-0.9v-8.5h0.9v3.8h4.1v-3.8h0.9v8.5H780.4z"/>
	<path class="st8" d="M783.7,167.3v-8.5h0.9v8.5H783.7z"/>
	<path class="st8" d="M789.3,167.3c-1.3,0-2.1-0.3-2.9-1.1l0.6-0.6c0.7,0.7,1.4,0.9,2.3,0.9c1.2,0,2-0.6,2-1.6
		c0-0.4-0.1-0.8-0.4-1.1c-0.3-0.2-0.5-0.3-1.1-0.4l-1-0.2c-0.7-0.1-1.2-0.3-1.6-0.6c-0.4-0.4-0.6-0.9-0.6-1.6c0-1.5,1-2.4,2.7-2.4
		c1.1,0,1.8,0.3,2.5,0.9l-0.6,0.6c-0.5-0.5-1.1-0.7-2-0.7c-1.1,0-1.8,0.6-1.8,1.6c0,0.4,0.1,0.8,0.4,1c0.3,0.2,0.7,0.4,1.2,0.5
		l0.9,0.1c0.8,0.1,1.2,0.3,1.6,0.6c0.5,0.4,0.7,1,0.7,1.7C792.3,166.4,791.1,167.3,789.3,167.3z"/>
	<path class="st8" d="M527.9,182.3v-8.5h0.9v7.7h4.4v0.8H527.9z"/>
	<path class="st8" d="M534.7,182.3v-8.5h0.9v8.5H534.7z"/>
	<path class="st8" d="M540.8,182.3c-0.8,0-1.6-0.3-2.2-0.9c-0.8-0.8-0.8-1.6-0.8-3.5s0-2.7,0.8-3.5c0.6-0.6,1.3-0.9,2.2-0.9
		c1.5,0,2.7,0.9,3,2.5h-0.9c-0.2-1-1-1.7-2-1.7c-0.6,0-1.1,0.2-1.5,0.6c-0.5,0.6-0.6,1.1-0.6,2.9s0.1,2.4,0.6,2.9
		c0.4,0.4,0.9,0.6,1.5,0.6c1.1,0,1.8-0.7,2.1-1.7h0.9C543.5,181.4,542.3,182.3,540.8,182.3z"/>
	<path class="st8" d="M545.8,182.3v-8.5h5.3v0.8h-4.4v3h3.7v0.8h-3.7v3.1h4.4v0.8L545.8,182.3L545.8,182.3z"/>
	<path class="st8" d="M558.4,182.3l-4.5-6.8v6.8H553v-8.5h0.9l4.5,6.8v-6.8h0.9v8.5H558.4z"/>
	<path class="st8" d="M563.9,182.3c-1.3,0-2.1-0.3-2.9-1.1l0.6-0.6c0.7,0.7,1.4,0.9,2.3,0.9c1.2,0,2-0.6,2-1.6
		c0-0.4-0.1-0.8-0.4-1.1c-0.3-0.2-0.5-0.3-1.1-0.4l-1-0.2c-0.7-0.1-1.2-0.3-1.6-0.6c-0.4-0.4-0.6-0.9-0.6-1.6c0-1.5,1-2.4,2.7-2.4
		c1.1,0,1.8,0.3,2.5,0.9l-0.6,0.6c-0.5-0.5-1.1-0.7-2-0.7c-1.1,0-1.8,0.6-1.8,1.6c0,0.4,0.1,0.8,0.4,1c0.3,0.2,0.7,0.4,1.2,0.5
		l0.9,0.1c0.8,0.1,1.2,0.3,1.6,0.6c0.5,0.4,0.7,1,0.7,1.7C566.9,181.4,565.7,182.3,563.9,182.3z"/>
	<path class="st8" d="M568.8,182.3v-8.5h5.3v0.8h-4.4v3h3.7v0.8h-3.7v3.1h4.4v0.8L568.8,182.3L568.8,182.3z"/>
	<path class="st8" d="M575.8,182.3v-1.1h1.1v1.1H575.8z"/>
	<path class="st8" d="M582.2,182.3v-8.5h0.9v8.5H582.2z"/>
	<path class="st8" d="M586.5,174.5v3.1h3.7v0.8h-3.7v3.8h-0.9v-8.5h5.3v0.8L586.5,174.5L586.5,174.5z"/>
	<path class="st8" d="M597.9,178.7v3.5H597v-3.5l-2.5-5h1l2,4.1l2-4.1h1L597.9,178.7z"/>
	<path class="st8" d="M606.5,181.4c-0.6,0.6-1.3,0.9-2.2,0.9c-0.9,0-1.6-0.3-2.2-0.9c-0.8-0.8-0.8-1.6-0.8-3.5s0-2.7,0.8-3.5
		c0.6-0.6,1.3-0.9,2.2-0.9c0.9,0,1.6,0.3,2.2,0.9c0.8,0.8,0.8,1.6,0.8,3.5S607.3,180.6,606.5,181.4z M605.8,175.1
		c-0.4-0.4-0.9-0.6-1.5-0.6c-0.6,0-1.1,0.2-1.5,0.6c-0.5,0.6-0.6,1.1-0.6,2.9s0.1,2.4,0.6,2.9c0.4,0.4,0.9,0.6,1.5,0.6
		c0.6,0,1.1-0.2,1.5-0.6c0.5-0.6,0.6-1.1,0.6-2.9S606.3,175.6,605.8,175.1z"/>
	<path class="st8" d="M612.3,182.3c-1.7,0-3-1.2-3-2.9v-5.7h0.9v5.6c0,1.3,0.8,2.1,2.1,2.1c1.3,0,2.1-0.9,2.1-2.1v-5.6h0.9v5.7
		C615.3,181.1,614,182.3,612.3,182.3z"/>
	<path class="st8" d="M625.6,182.3l-0.7-1.9h-3.7l-0.7,1.9h-1l3.1-8.5h0.8l3.1,8.5H625.6z M623,175l-1.6,4.5h3.2L623,175z"/>
	<path class="st8" d="M632.8,182.3l-1.9-3.8h-2.1v3.8h-0.9v-8.5h3.3c1.5,0,2.5,0.9,2.5,2.4c0,1.2-0.8,2.1-1.9,2.3l2,3.9L632.8,182.3
		L632.8,182.3z M631.1,174.5h-2.3v3.1h2.3c1,0,1.7-0.5,1.7-1.6C632.8,175.1,632.1,174.5,631.1,174.5z"/>
	<path class="st8" d="M635.8,182.3v-8.5h5.3v0.8h-4.4v3h3.7v0.8h-3.7v3.1h4.4v0.8L635.8,182.3L635.8,182.3z"/>
	<path class="st8" d="M651,182.3l-0.7-1.9h-3.7l-0.7,1.9h-1l3.1-8.5h0.8l3.1,8.5H651z M648.4,175l-1.6,4.5h3.2L648.4,175z"/>
	<path class="st8" d="M655.9,182.3c-0.8,0-1.6-0.3-2.2-0.9c-0.8-0.8-0.8-1.6-0.8-3.5s0-2.7,0.8-3.5c0.6-0.6,1.3-0.9,2.2-0.9
		c1.5,0,2.7,0.9,3,2.5H658c-0.2-1-1-1.7-2-1.7c-0.6,0-1.1,0.2-1.5,0.6c-0.5,0.6-0.6,1.1-0.6,2.9s0.1,2.4,0.6,2.9
		c0.4,0.4,0.9,0.6,1.5,0.6c1.1,0,1.8-0.7,2.1-1.7h0.9C658.6,181.4,657.4,182.3,655.9,182.3z"/>
	<path class="st8" d="M663.5,182.3c-0.8,0-1.6-0.3-2.2-0.9c-0.8-0.8-0.8-1.6-0.8-3.5s0-2.7,0.8-3.5c0.6-0.6,1.3-0.9,2.2-0.9
		c1.5,0,2.7,0.9,3,2.5h-0.9c-0.2-1-1-1.7-2-1.7c-0.6,0-1.1,0.2-1.5,0.6c-0.5,0.6-0.6,1.1-0.6,2.9s0.1,2.4,0.6,2.9
		c0.4,0.4,0.9,0.6,1.5,0.6c1.1,0,1.8-0.7,2.1-1.7h0.9C666.2,181.4,665,182.3,663.5,182.3z"/>
	<path class="st8" d="M668.5,182.3v-8.5h5.3v0.8h-4.4v3h3.7v0.8h-3.7v3.1h4.4v0.8L668.5,182.3L668.5,182.3z"/>
	<path class="st8" d="M677.9,182.3c-1.3,0-2.1-0.3-2.9-1.1l0.6-0.6c0.7,0.7,1.4,0.9,2.3,0.9c1.2,0,2-0.6,2-1.6
		c0-0.4-0.1-0.8-0.4-1.1c-0.3-0.2-0.5-0.3-1.1-0.4l-1-0.2c-0.7-0.1-1.2-0.3-1.6-0.6c-0.4-0.4-0.6-0.9-0.6-1.6c0-1.5,1-2.4,2.7-2.4
		c1.1,0,1.8,0.3,2.5,0.9l-0.6,0.6c-0.5-0.5-1.1-0.7-2-0.7c-1.1,0-1.8,0.6-1.8,1.6c0,0.4,0.1,0.8,0.4,1c0.3,0.2,0.7,0.4,1.2,0.5
		l0.9,0.1c0.8,0.1,1.2,0.3,1.6,0.6c0.5,0.4,0.7,1,0.7,1.7C680.8,181.4,679.7,182.3,677.9,182.3z"/>
	<path class="st8" d="M684.8,182.3c-1.3,0-2.1-0.3-2.9-1.1l0.6-0.6c0.7,0.7,1.4,0.9,2.3,0.9c1.2,0,2-0.6,2-1.6
		c0-0.4-0.1-0.8-0.4-1.1c-0.3-0.2-0.5-0.3-1.1-0.4l-1-0.2c-0.7-0.1-1.2-0.3-1.6-0.6c-0.4-0.4-0.6-0.9-0.6-1.6c0-1.5,1-2.4,2.7-2.4
		c1.1,0,1.8,0.3,2.5,0.9l-0.6,0.6c-0.5-0.5-1.1-0.7-2-0.7c-1.1,0-1.8,0.6-1.8,1.6c0,0.4,0.1,0.8,0.4,1s0.7,0.4,1.2,0.5l0.9,0.1
		c0.8,0.1,1.2,0.3,1.6,0.6c0.5,0.4,0.7,1,0.7,1.7C687.7,181.4,686.5,182.3,684.8,182.3z"/>
	<path class="st8" d="M689.6,182.3v-8.5h0.9v8.5H689.6z"/>
	<path class="st8" d="M698.4,182.3l-4.5-6.8v6.8H693v-8.5h0.9l4.5,6.8v-6.8h0.9v8.5H698.4z"/>
	<path class="st8" d="M706.7,181.3c-0.6,0.6-1.4,1-2.3,1c-0.8,0-1.6-0.3-2.2-0.9c-0.8-0.8-0.8-1.6-0.8-3.5s0-2.7,0.8-3.5
		c0.6-0.6,1.3-0.9,2.2-0.9c1.6,0,2.7,1.1,3,2.6h-0.9c-0.2-1.1-1-1.7-2.1-1.7c-0.6,0-1.1,0.2-1.5,0.6c-0.5,0.6-0.6,1.1-0.6,2.9
		s0.1,2.4,0.6,2.9c0.4,0.4,0.9,0.6,1.5,0.6c0.6,0,1.2-0.3,1.6-0.7c0.3-0.4,0.5-0.9,0.5-1.5v-0.6h-2.1v-0.8h3v1.4
		C707.5,180.1,707.2,180.8,706.7,181.3z"/>
	<path class="st8" d="M715.1,174.5v7.7h-0.9v-7.7h-2.5v-0.8h5.9v0.8H715.1z"/>
	<path class="st8" d="M724.1,182.3v-3.9H720v3.9h-0.9v-8.5h0.9v3.8h4.1v-3.8h0.9v8.5H724.1z"/>
	<path class="st8" d="M727.5,182.3v-8.5h5.3v0.8h-4.4v3h3.7v0.8h-3.7v3.1h4.4v0.8L727.5,182.3L727.5,182.3z"/>
	<path class="st8" d="M739.9,182.3c-1.3,0-2.1-0.3-2.9-1.1l0.6-0.6c0.7,0.7,1.4,0.9,2.3,0.9c1.2,0,2-0.6,2-1.6
		c0-0.4-0.1-0.8-0.4-1.1c-0.3-0.2-0.5-0.3-1.1-0.4l-1-0.2c-0.7-0.1-1.2-0.3-1.6-0.6c-0.4-0.4-0.6-0.9-0.6-1.6c0-1.5,1-2.4,2.7-2.4
		c1.1,0,1.8,0.3,2.5,0.9l-0.6,0.6c-0.5-0.5-1.1-0.7-2-0.7c-1.1,0-1.8,0.6-1.8,1.6c0,0.4,0.1,0.8,0.4,1s0.7,0.4,1.2,0.5l0.9,0.1
		c0.8,0.1,1.2,0.3,1.6,0.6c0.5,0.4,0.7,1,0.7,1.7C742.8,181.4,741.7,182.3,739.9,182.3z"/>
	<path class="st8" d="M749.6,181.4c-0.6,0.6-1.3,0.9-2.2,0.9s-1.6-0.3-2.2-0.9c-0.8-0.8-0.8-1.6-0.8-3.5s0-2.7,0.8-3.5
		c0.6-0.6,1.3-0.9,2.2-0.9s1.6,0.3,2.2,0.9c0.8,0.8,0.8,1.6,0.8,3.5S750.4,180.6,749.6,181.4z M748.9,175.1
		c-0.4-0.4-0.9-0.6-1.5-0.6s-1.1,0.2-1.5,0.6c-0.5,0.6-0.6,1.1-0.6,2.9s0.1,2.4,0.6,2.9c0.4,0.4,0.9,0.6,1.5,0.6s1.1-0.2,1.5-0.6
		c0.5-0.6,0.6-1.1,0.6-2.9S749.4,175.6,748.9,175.1z"/>
	<path class="st8" d="M753.5,174.5v3.1h3.7v0.8h-3.7v3.8h-0.9v-8.5h5.3v0.8L753.5,174.5L753.5,174.5z"/>
	<path class="st8" d="M762,174.5v7.7h-0.9v-7.7h-2.5v-0.8h5.9v0.8H762z"/>
	<path class="st8" d="M772.7,182.3h-0.9l-1.9-6.8l-1.9,6.8h-0.8l-2.2-8.5h1l1.7,6.9l1.9-6.9h0.8l1.9,6.9l1.7-6.9h1L772.7,182.3z"/>
	<path class="st8" d="M781.2,182.3l-0.7-1.9h-3.7l-0.7,1.9h-1l3.1-8.5h0.8l3.1,8.5H781.2z M778.6,175l-1.6,4.5h3.2L778.6,175z"/>
	<path class="st8" d="M788.4,182.3l-1.9-3.8h-2.1v3.8h-0.9v-8.5h3.3c1.5,0,2.5,0.9,2.5,2.4c0,1.2-0.8,2.1-1.9,2.3l2,3.9L788.4,182.3
		L788.4,182.3z M786.7,174.5h-2.3v3.1h2.3c1,0,1.7-0.5,1.7-1.6C788.4,175.1,787.7,174.5,786.7,174.5z"/>
	<path class="st8" d="M791.4,182.3v-8.5h5.3v0.8h-4.4v3h3.7v0.8h-3.7v3.1h4.4v0.8L791.4,182.3L791.4,182.3z"/>
	<path class="st8" d="M527.9,197.3v-8.5h5.3v0.8h-4.4v3h3.7v0.8h-3.7v3.1h4.4v0.8L527.9,197.3L527.9,197.3z"/>
	<path class="st8" d="M535.1,197.3v-8.5h0.9v7.7h4.4v0.8H535.1z"/>
	<path class="st8" d="M541.9,197.3v-8.5h5.3v0.8h-4.4v3h3.7v0.8h-3.7v3.1h4.4v0.8L541.9,197.3L541.9,197.3z"/>
	<path class="st8" d="M551.8,197.3c-0.8,0-1.6-0.3-2.2-0.9c-0.8-0.8-0.8-1.6-0.8-3.5s0-2.7,0.8-3.5c0.6-0.6,1.3-0.9,2.2-0.9
		c1.5,0,2.7,0.9,3,2.5h-0.9c-0.2-1-1-1.7-2-1.7c-0.6,0-1.1,0.2-1.5,0.6c-0.5,0.6-0.6,1.1-0.6,2.9s0.1,2.4,0.6,2.9
		c0.4,0.4,0.9,0.6,1.5,0.6c1.1,0,1.8-0.7,2.1-1.7h0.9C554.5,196.4,553.3,197.3,551.8,197.3z"/>
	<path class="st8" d="M559.1,189.5v7.7h-0.9v-7.7h-2.5v-0.8h5.9v0.8H559.1z"/>
	<path class="st8" d="M568,197.3l-1.9-3.8H564v3.8h-0.9v-8.5h3.3c1.5,0,2.5,0.9,2.5,2.4c0,1.2-0.8,2.1-1.9,2.3l2,3.9L568,197.3
		L568,197.3z M566.3,189.5H564v3.1h2.3c1,0,1.7-0.5,1.7-1.6C568,190.1,567.3,189.5,566.3,189.5z"/>
	<path class="st8" d="M575.8,196.4c-0.6,0.6-1.3,0.9-2.2,0.9c-0.9,0-1.6-0.3-2.2-0.9c-0.8-0.8-0.8-1.6-0.8-3.5s0-2.7,0.8-3.5
		c0.6-0.6,1.3-0.9,2.2-0.9c0.9,0,1.6,0.3,2.2,0.9c0.8,0.8,0.8,1.6,0.8,3.5S576.6,195.6,575.8,196.4z M575.1,190.1
		c-0.4-0.4-0.9-0.6-1.5-0.6c-0.6,0-1.1,0.2-1.5,0.6c-0.5,0.6-0.6,1.1-0.6,2.9s0.1,2.4,0.6,2.9c0.4,0.4,0.9,0.6,1.5,0.6
		c0.6,0,1.1-0.2,1.5-0.6c0.5-0.6,0.6-1.1,0.6-2.9S575.7,190.6,575.1,190.1z"/>
	<path class="st8" d="M584.2,197.3l-4.5-6.8v6.8h-0.9v-8.5h0.9l4.5,6.8v-6.8h0.9v8.5H584.2z"/>
	<path class="st8" d="M587.6,197.3v-8.5h0.9v8.5H587.6z"/>
	<path class="st8" d="M593.6,197.3c-0.8,0-1.6-0.3-2.2-0.9c-0.8-0.8-0.8-1.6-0.8-3.5s0-2.7,0.8-3.5c0.6-0.6,1.3-0.9,2.2-0.9
		c1.5,0,2.7,0.9,3,2.5h-0.9c-0.2-1-1-1.7-2-1.7c-0.6,0-1.1,0.2-1.5,0.6c-0.5,0.6-0.6,1.1-0.6,2.9s0.1,2.4,0.6,2.9
		c0.4,0.4,0.9,0.6,1.5,0.6c1.1,0,1.8-0.7,2.1-1.7h0.9C596.3,196.4,595.1,197.3,593.6,197.3z"/>
	<path class="st8" d="M603.5,197.3l-0.7-1.9h-3.7l-0.7,1.9h-1l3.1-8.5h0.8l3.1,8.5H603.5z M600.9,190l-1.6,4.5h3.2L600.9,190z"/>
	<path class="st8" d="M605.8,197.3v-8.5h0.9v7.7h4.4v0.8H605.8z"/>
	<path class="st8" d="M612.7,197.3v-8.5h0.9v7.7h4.4v0.8H612.7z"/>
	<path class="st8" d="M620.9,193.7v3.5H620v-3.5l-2.5-5h1l2,4.1l2-4.1h1L620.9,193.7z"/>
	<path class="st8" d="M624.6,199v-2.8h1.1v1.8L624.6,199z"/>
	<path class="st8" d="M633.1,197.3c-1.3,0-2.1-0.3-2.9-1.1l0.6-0.6c0.7,0.7,1.4,0.9,2.3,0.9c1.2,0,2-0.6,2-1.6
		c0-0.4-0.1-0.8-0.4-1.1c-0.3-0.2-0.5-0.3-1.1-0.4l-1-0.2c-0.7-0.1-1.2-0.3-1.6-0.6c-0.4-0.4-0.6-0.9-0.6-1.6c0-1.5,1-2.4,2.7-2.4
		c1.1,0,1.8,0.3,2.5,0.9l-0.6,0.6c-0.5-0.5-1.1-0.7-2-0.7c-1.1,0-1.8,0.6-1.8,1.6c0,0.4,0.1,0.8,0.4,1s0.7,0.4,1.2,0.5l0.9,0.1
		c0.8,0.1,1.2,0.3,1.6,0.6c0.5,0.4,0.7,1,0.7,1.7C636.1,196.4,634.9,197.3,633.1,197.3z"/>
	<path class="st8" d="M638,197.3v-8.5h0.9v8.5H638z"/>
	<path class="st8" d="M646.3,196.3c-0.6,0.6-1.4,1-2.3,1c-0.8,0-1.6-0.3-2.2-0.9c-0.8-0.8-0.8-1.6-0.8-3.5s0-2.7,0.8-3.5
		c0.6-0.6,1.3-0.9,2.2-0.9c1.6,0,2.7,1.1,3,2.6h-0.9c-0.2-1.1-1-1.7-2.1-1.7c-0.6,0-1.1,0.2-1.5,0.6c-0.5,0.6-0.6,1.1-0.6,2.9
		s0.1,2.4,0.6,2.9c0.4,0.4,0.9,0.6,1.5,0.6c0.6,0,1.2-0.3,1.6-0.7c0.3-0.4,0.5-0.9,0.5-1.5v-0.6H644v-0.8h3v1.4
		C647,195.1,646.8,195.8,646.3,196.3z"/>
	<path class="st8" d="M654.6,197.3l-4.5-6.8v6.8h-0.9v-8.5h0.9l4.5,6.8v-6.8h0.9v8.5H654.6z"/>
	<path class="st8" d="M658,197.3v-8.5h0.9v8.5H658z"/>
	<path class="st8" d="M662.3,189.5v3.1h3.7v0.8h-3.7v3.8h-0.9v-8.5h5.3v0.8L662.3,189.5L662.3,189.5z"/>
	<path class="st8" d="M670.6,193.7v3.5h-0.9v-3.5l-2.5-5h1l2,4.1l2-4.1h1L670.6,193.7z"/>
	<path class="st8" d="M679.8,193.7v3.5h-0.9v-3.5l-2.5-5h1l2,4.1l2-4.1h1L679.8,193.7z"/>
	<path class="st8" d="M688.3,196.4c-0.6,0.6-1.3,0.9-2.2,0.9c-0.9,0-1.6-0.3-2.2-0.9c-0.8-0.8-0.8-1.6-0.8-3.5s0-2.7,0.8-3.5
		c0.6-0.6,1.3-0.9,2.2-0.9c0.9,0,1.6,0.3,2.2,0.9c0.8,0.8,0.8,1.6,0.8,3.5S689.2,195.6,688.3,196.4z M687.6,190.1
		c-0.4-0.4-0.9-0.6-1.5-0.6c-0.6,0-1.1,0.2-1.5,0.6c-0.5,0.6-0.6,1.1-0.6,2.9s0.1,2.4,0.6,2.9c0.4,0.4,0.9,0.6,1.5,0.6
		c0.6,0,1.1-0.2,1.5-0.6c0.5-0.6,0.6-1.1,0.6-2.9S688.2,190.6,687.6,190.1z"/>
	<path class="st8" d="M694.2,197.3c-1.7,0-3-1.2-3-2.9v-5.7h0.9v5.6c0,1.3,0.8,2.1,2.1,2.1s2.1-0.9,2.1-2.1v-5.6h0.9v5.7
		C697.1,196.1,695.9,197.3,694.2,197.3z"/>
	<path class="st8" d="M704.4,197.3l-1.9-3.8h-2.1v3.8h-0.9v-8.5h3.3c1.5,0,2.5,0.9,2.5,2.4c0,1.2-0.8,2.1-1.9,2.3l2,3.9L704.4,197.3
		L704.4,197.3z M702.7,189.5h-2.3v3.1h2.3c1,0,1.7-0.5,1.7-1.6C704.4,190.1,703.7,189.5,702.7,189.5z"/>
	<path class="st8" d="M715.3,197.3l-0.7-1.9h-3.7l-0.7,1.9h-1l3.1-8.5h0.8l3.1,8.5H715.3z M712.8,190l-1.6,4.5h3.2L712.8,190z"/>
	<path class="st8" d="M722.5,196.3c-0.6,0.6-1.4,1-2.3,1c-0.8,0-1.6-0.3-2.2-0.9c-0.8-0.8-0.8-1.6-0.8-3.5s0-2.7,0.8-3.5
		c0.6-0.6,1.3-0.9,2.2-0.9c1.6,0,2.7,1.1,3,2.6h-0.9c-0.2-1.1-1-1.7-2.1-1.7c-0.6,0-1.1,0.2-1.5,0.6c-0.5,0.6-0.6,1.1-0.6,2.9
		s0.1,2.4,0.6,2.9c0.4,0.4,0.9,0.6,1.5,0.6s1.2-0.3,1.6-0.7c0.3-0.4,0.5-0.9,0.5-1.5v-0.6h-2.1v-0.8h3v1.4
		C723.2,195.1,723,195.8,722.5,196.3z"/>
	<path class="st8" d="M730.3,197.3l-1.9-3.8h-2.1v3.8h-0.9v-8.5h3.3c1.5,0,2.5,0.9,2.5,2.4c0,1.2-0.8,2.1-1.9,2.3l2,3.9L730.3,197.3
		L730.3,197.3z M728.6,189.5h-2.3v3.1h2.3c1,0,1.7-0.5,1.7-1.6C730.3,190.1,729.6,189.5,728.6,189.5z"/>
	<path class="st8" d="M733.2,197.3v-8.5h5.3v0.8h-4.3v3h3.7v0.8h-3.7v3.1h4.4v0.8L733.2,197.3L733.2,197.3z"/>
	<path class="st8" d="M740.4,197.3v-8.5h5.3v0.8h-4.4v3h3.7v0.8h-3.7v3.1h4.4v0.8L740.4,197.3L740.4,197.3z"/>
	<path class="st8" d="M754,197.3v-6.5l-2.3,5.1h-0.8l-2.4-5.1v6.5h-0.9v-8.5h0.9l2.8,6.1l2.7-6.1h0.9v8.5H754z"/>
	<path class="st8" d="M757.4,197.3v-8.5h5.3v0.8h-4.4v3h3.7v0.8h-3.7v3.1h4.4v0.8L757.4,197.3L757.4,197.3z"/>
	<path class="st8" d="M770.1,197.3l-4.5-6.8v6.8h-0.9v-8.5h0.9l4.5,6.8v-6.8h0.9v8.5H770.1z"/>
	<path class="st8" d="M775.9,189.5v7.7H775v-7.7h-2.5v-0.8h5.9v0.8H775.9z"/>
	<path class="st8" d="M785.5,189.5v7.7h-0.9v-7.7h-2.5v-0.8h5.9v0.8H785.5z"/>
	<path class="st8" d="M794.2,196.4c-0.6,0.6-1.3,0.9-2.2,0.9s-1.6-0.3-2.2-0.9c-0.8-0.8-0.8-1.6-0.8-3.5s0-2.7,0.8-3.5
		c0.6-0.6,1.3-0.9,2.2-0.9s1.6,0.3,2.2,0.9c0.8,0.8,0.8,1.6,0.8,3.5S795,195.6,794.2,196.4z M793.5,190.1c-0.4-0.4-0.9-0.6-1.5-0.6
		s-1.1,0.2-1.5,0.6c-0.5,0.6-0.6,1.1-0.6,2.9s0.1,2.4,0.6,2.9c0.4,0.4,0.9,0.6,1.5,0.6s1.1-0.2,1.5-0.6c0.5-0.6,0.6-1.1,0.6-2.9
		S794,190.6,793.5,190.1z"/>
	<path class="st8" d="M803.4,197.3h-3.3v-8.5h3.2c1.5,0,2.5,0.9,2.5,2.3c0,0.9-0.5,1.6-1.3,1.9c0.8,0.3,1.4,1,1.4,2
		C806,196.4,804.9,197.3,803.4,197.3z M803.3,189.5h-2.2v3h2.2c0.9,0,1.7-0.5,1.7-1.5S804.2,189.5,803.3,189.5z M803.3,193.3H801
		v3.1h2.3c1.1,0,1.7-0.6,1.7-1.6S804.4,193.3,803.3,193.3z"/>
	<path class="st8" d="M808.1,197.3v-8.5h5.3v0.8H809v3h3.7v0.8H809v3.1h4.4v0.8L808.1,197.3L808.1,197.3z"/>
	<path class="st8" d="M531.2,212.3h-3.3v-8.5h3.2c1.5,0,2.5,0.9,2.5,2.3c0,0.9-0.5,1.6-1.3,1.9c0.8,0.3,1.4,1,1.4,2
		C533.7,211.4,532.7,212.3,531.2,212.3z M531,204.5h-2.2v3h2.2c0.9,0,1.7-0.5,1.7-1.5S532,204.5,531,204.5z M531.1,208.3h-2.3v3.1
		h2.3c1.1,0,1.7-0.6,1.7-1.6S532.2,208.3,531.1,208.3z"/>
	<path class="st8" d="M540.7,211.4c-0.6,0.6-1.3,0.9-2.2,0.9c-0.9,0-1.6-0.3-2.2-0.9c-0.8-0.8-0.8-1.6-0.8-3.5s0-2.7,0.8-3.5
		c0.6-0.6,1.3-0.9,2.2-0.9c0.9,0,1.6,0.3,2.2,0.9c0.8,0.8,0.8,1.6,0.8,3.5S541.5,210.6,540.7,211.4z M540,205.1
		c-0.4-0.4-0.9-0.6-1.5-0.6c-0.6,0-1.1,0.2-1.5,0.6c-0.5,0.6-0.6,1.1-0.6,2.9s0.1,2.4,0.6,2.9c0.4,0.4,0.9,0.6,1.5,0.6
		c0.6,0,1.1-0.2,1.5-0.6c0.5-0.6,0.6-1.1,0.6-2.9S540.6,205.6,540,205.1z"/>
	<path class="st8" d="M546.5,212.3c-1.7,0-3-1.2-3-2.9v-5.7h0.9v5.6c0,1.3,0.8,2.1,2.1,2.1c1.2,0,2.1-0.9,2.1-2.1v-5.6h0.9v5.7
		C549.5,211.1,548.3,212.3,546.5,212.3z"/>
	<path class="st8" d="M557.3,212.3l-4.5-6.8v6.8h-0.9v-8.5h0.9l4.5,6.8v-6.8h0.9v8.5H557.3z"/>
	<path class="st8" d="M565.7,211.5c-0.5,0.5-1.3,0.8-2.2,0.8h-2.9v-8.5h2.9c0.9,0,1.6,0.3,2.2,0.8c0.9,0.9,0.8,2.2,0.8,3.4
		S566.6,210.6,565.7,211.5z M565.1,205.2c-0.4-0.5-1-0.6-1.7-0.6h-1.9v6.9h1.9c0.7,0,1.2-0.2,1.7-0.6c0.6-0.6,0.6-1.9,0.6-2.9
		C565.7,206.8,565.7,205.8,565.1,205.2z"/>
	<path class="st8" d="M575,212.3h-3.3v-8.5h3.2c1.5,0,2.5,0.9,2.5,2.3c0,0.9-0.5,1.6-1.3,1.9c0.8,0.3,1.4,1,1.4,2
		C577.6,211.4,576.6,212.3,575,212.3z M574.9,204.5h-2.2v3h2.2c0.9,0,1.7-0.5,1.7-1.5S575.8,204.5,574.9,204.5z M575,208.3h-2.3v3.1
		h2.3c1.1,0,1.7-0.6,1.7-1.6S576,208.3,575,208.3z"/>
	<path class="st8" d="M582.1,208.7v3.5h-0.9v-3.5l-2.5-5h1l2,4.1l2-4.1h1L582.1,208.7z"/>
	<path class="st8" d="M591.4,204.5v7.7h-0.9v-7.7H588v-0.8h5.9v0.8H591.4z"/>
	<path class="st8" d="M600.4,212.3v-3.9h-4.1v3.9h-0.9v-8.5h0.9v3.8h4.1v-3.8h0.9v8.5H600.4z"/>
	<path class="st8" d="M603.8,212.3v-8.5h5.3v0.8h-4.4v3h3.7v0.8h-3.7v3.1h4.4v0.8L603.8,212.3L603.8,212.3z"/>
	<path class="st8" d="M616.5,204.5v7.7h-0.9v-7.7h-2.5v-0.8h5.9v0.8H616.5z"/>
	<path class="st8" d="M620.6,212.3v-8.5h5.3v0.8h-4.4v3h3.7v0.8h-3.7v3.1h4.4v0.8L620.6,212.3L620.6,212.3z"/>
	<path class="st8" d="M632.7,212.3l-1.9-3.8h-2.1v3.8h-0.9v-8.5h3.3c1.5,0,2.5,0.9,2.5,2.4c0,1.2-0.8,2.1-1.9,2.3l2,3.9L632.7,212.3
		L632.7,212.3z M631,204.5h-2.3v3.1h2.3c1,0,1.7-0.5,1.7-1.6C632.7,205.1,632,204.5,631,204.5z"/>
	<path class="st8" d="M642.1,212.3v-6.5l-2.3,5.1H639l-2.4-5.1v6.5h-0.9v-8.5h0.9l2.8,6.1l2.7-6.1h0.9v8.5H642.1z"/>
	<path class="st8" d="M647.6,212.3c-1.3,0-2.1-0.3-2.9-1.1l0.6-0.6c0.7,0.7,1.4,0.9,2.3,0.9c1.2,0,2-0.6,2-1.6
		c0-0.4-0.1-0.8-0.4-1.1c-0.3-0.2-0.5-0.3-1.1-0.4l-1-0.2c-0.7-0.1-1.2-0.3-1.6-0.6c-0.4-0.4-0.6-0.9-0.6-1.6c0-1.5,1-2.4,2.7-2.4
		c1.1,0,1.8,0.3,2.5,0.9l-0.6,0.6c-0.5-0.5-1.1-0.7-2-0.7c-1.1,0-1.8,0.6-1.8,1.6c0,0.4,0.1,0.8,0.4,1s0.7,0.4,1.2,0.5l0.9,0.1
		c0.8,0.1,1.2,0.3,1.6,0.6c0.5,0.4,0.7,1,0.7,1.7C650.6,211.4,649.4,212.3,647.6,212.3z"/>
	<path class="st8" d="M660.3,211.4c-0.6,0.6-1.3,0.9-2.2,0.9c-0.9,0-1.6-0.3-2.2-0.9c-0.8-0.8-0.8-1.6-0.8-3.5s0-2.7,0.8-3.5
		c0.6-0.6,1.3-0.9,2.2-0.9c0.9,0,1.6,0.3,2.2,0.9c0.8,0.8,0.8,1.6,0.8,3.5S661.1,210.6,660.3,211.4z M659.6,205.1
		c-0.4-0.4-0.9-0.6-1.5-0.6c-0.6,0-1.1,0.2-1.5,0.6c-0.5,0.6-0.6,1.1-0.6,2.9s0.1,2.4,0.6,2.9c0.4,0.4,0.9,0.6,1.5,0.6
		c0.6,0,1.1-0.2,1.5-0.6c0.5-0.6,0.6-1.1,0.6-2.9S660.2,205.6,659.6,205.1z"/>
	<path class="st8" d="M664.2,204.5v3.1h3.7v0.8h-3.7v3.8h-0.9v-8.5h5.3v0.8L664.2,204.5L664.2,204.5z"/>
	<path class="st8" d="M675.8,204.5v7.7h-0.9v-7.7h-2.5v-0.8h5.9v0.8H675.8z"/>
	<path class="st8" d="M684.8,212.3v-3.9h-4.1v3.9h-0.9v-8.5h0.9v3.8h4.1v-3.8h0.9v8.5H684.8z"/>
	<path class="st8" d="M688.2,212.3v-8.5h0.9v8.5H688.2z"/>
	<path class="st8" d="M693.8,212.3c-1.3,0-2.1-0.3-2.9-1.1l0.6-0.6c0.7,0.7,1.4,0.9,2.3,0.9c1.2,0,2-0.6,2-1.6
		c0-0.4-0.1-0.8-0.4-1.1c-0.3-0.2-0.5-0.3-1.1-0.4l-1-0.2c-0.7-0.1-1.2-0.3-1.6-0.6c-0.4-0.4-0.6-0.9-0.6-1.6c0-1.5,1-2.4,2.7-2.4
		c1.1,0,1.8,0.3,2.5,0.9l-0.6,0.6c-0.5-0.5-1.1-0.7-2-0.7c-1.1,0-1.8,0.6-1.8,1.6c0,0.4,0.1,0.8,0.4,1s0.7,0.4,1.2,0.5l0.9,0.1
		c0.8,0.1,1.2,0.3,1.6,0.6c0.5,0.4,0.7,1,0.7,1.7C696.7,211.4,695.5,212.3,693.8,212.3z"/>
	<path class="st8" d="M701.6,212.3v-8.5h0.9v7.7h4.4v0.8H701.6z"/>
	<path class="st8" d="M708.5,212.3v-8.5h0.9v8.5H708.5z"/>
	<path class="st8" d="M714.5,212.3c-0.8,0-1.6-0.3-2.2-0.9c-0.8-0.8-0.8-1.6-0.8-3.5s0-2.7,0.8-3.5c0.6-0.6,1.3-0.9,2.2-0.9
		c1.5,0,2.7,0.9,3,2.5h-0.9c-0.2-1-1-1.7-2-1.7c-0.6,0-1.1,0.2-1.5,0.6c-0.5,0.6-0.6,1.1-0.6,2.9s0.1,2.4,0.6,2.9
		c0.4,0.4,0.9,0.6,1.5,0.6c1.1,0,1.8-0.7,2.1-1.7h0.9C717.2,211.4,716,212.3,714.5,212.3z"/>
	<path class="st8" d="M719.5,212.3v-8.5h5.3v0.8h-4.4v3h3.7v0.8h-3.7v3.1h4.4v0.8L719.5,212.3L719.5,212.3z"/>
	<path class="st8" d="M732.1,212.3l-4.5-6.8v6.8h-0.9v-8.5h0.9l4.5,6.8v-6.8h0.9v8.5H732.1z"/>
	<path class="st8" d="M737.7,212.3c-1.3,0-2.1-0.3-2.9-1.1l0.6-0.6c0.7,0.7,1.4,0.9,2.3,0.9c1.2,0,2-0.6,2-1.6
		c0-0.4-0.1-0.8-0.4-1.1c-0.3-0.2-0.5-0.3-1.1-0.4l-1-0.2c-0.7-0.1-1.2-0.3-1.6-0.6c-0.4-0.4-0.6-0.9-0.6-1.6c0-1.5,1-2.4,2.7-2.4
		c1.1,0,1.8,0.3,2.5,0.9l-0.6,0.6c-0.5-0.5-1.1-0.7-2-0.7c-1.1,0-1.8,0.6-1.8,1.6c0,0.4,0.1,0.8,0.4,1s0.7,0.4,1.2,0.5l0.9,0.1
		c0.8,0.1,1.2,0.3,1.6,0.6c0.5,0.4,0.7,1,0.7,1.7C740.6,211.4,739.5,212.3,737.7,212.3z"/>
	<path class="st8" d="M742.5,212.3v-8.5h5.3v0.8h-4.4v3h3.7v0.8h-3.7v3.1h4.4v0.8L742.5,212.3L742.5,212.3z"/>
	<path class="st8" d="M756.1,212.3h-3.3v-8.5h3.2c1.5,0,2.5,0.9,2.5,2.3c0,0.9-0.5,1.6-1.3,1.9c0.8,0.3,1.4,1,1.4,2
		C758.6,211.4,757.6,212.3,756.1,212.3z M755.9,204.5h-2.2v3h2.2c0.9,0,1.7-0.5,1.7-1.5S756.8,204.5,755.9,204.5z M756,208.3h-2.3
		v3.1h2.3c1.1,0,1.7-0.6,1.7-1.6S757,208.3,756,208.3z"/>
	<path class="st8" d="M763.1,208.7v3.5h-0.9v-3.5l-2.5-5h1l2,4.1l2-4.1h1L763.1,208.7z"/>
	<path class="st8" d="M772.6,212.3c-0.8,0-1.6-0.3-2.2-0.9c-0.8-0.8-0.8-1.6-0.8-3.5s0-2.7,0.8-3.5c0.6-0.6,1.3-0.9,2.2-0.9
		c1.5,0,2.7,0.9,3,2.5h-0.9c-0.2-1-1-1.7-2-1.7c-0.6,0-1.1,0.2-1.5,0.6c-0.5,0.6-0.6,1.1-0.6,2.9s0.1,2.4,0.6,2.9
		c0.4,0.4,0.9,0.6,1.5,0.6c1.1,0,1.8-0.7,2.1-1.7h0.9C775.3,211.4,774.1,212.3,772.6,212.3z"/>
	<path class="st8" d="M777.5,212.3v-8.5h0.9v7.7h4.4v0.8H777.5z"/>
	<path class="st8" d="M784.4,212.3v-8.5h0.9v8.5H784.4z"/>
	<path class="st8" d="M790.5,212.3c-0.8,0-1.6-0.3-2.2-0.9c-0.8-0.8-0.8-1.6-0.8-3.5s0-2.7,0.8-3.5c0.6-0.6,1.3-0.9,2.2-0.9
		c1.5,0,2.7,0.9,3,2.5h-0.9c-0.2-1-1-1.7-2-1.7c-0.6,0-1.1,0.2-1.5,0.6c-0.5,0.6-0.6,1.1-0.6,2.9s0.1,2.4,0.6,2.9
		c0.4,0.4,0.9,0.6,1.5,0.6c1.1,0,1.8-0.7,2.1-1.7h0.9C793.2,211.4,792,212.3,790.5,212.3z"/>
	<path class="st8" d="M800.8,212.3l-2.6-4.5l-1.8,2.2v2.4h-0.9v-8.5h0.9v4.9l4-4.9h1.1l-2.7,3.3l3.1,5.2L800.8,212.3L800.8,212.3z"
		/>
	<path class="st8" d="M802.9,209.4v-0.8h3.3v0.8H802.9z"/>
</g>
<g>
	<polygon class="st10" points="867,262.2 872.2,268.8 876.8,265.2 871.6,258.6 877.4,256 852.2,239.1 863.2,267.1 	"/>
</g>
<line class="st11" x1="14.2" y1="29.7" x2="394" y2="29.7"/>
<circle class="st12" cx="25.8" cy="20.2" r="3.4"/>
<circle class="st12" cx="38.3" cy="20.2" r="3.4"/>
<circle class="st12" cx="50" cy="20.2" r="3.4"/>
<g>
	<g>
		<circle class="st13" cx="165.3" cy="259.2" r="14.5"/>
		<line class="st14" x1="158.2" y1="259.7" x2="174.8" y2="259.7"/>
		<polyline class="st15" points="164.9,250 158,259.7 164.8,268.8 		"/>
	</g>
	<g>
		<circle class="st16" cx="242.9" cy="259.2" r="14.5"/>
		<line class="st14" x1="250.9" y1="259" x2="234.3" y2="259"/>
		<polyline class="st15" points="244.2,268.8 251.1,259.1 244.4,250 		"/>
	</g>
	<g>
		<rect x="128.8" y="283" class="st7" width="73" height="16.4"/>
		<text transform="matrix(1 0 0 1 141.434 292.0835)" class="st8 st17 st18">Disagree</text>
		<rect x="206.3" y="283" class="st7" width="73" height="16.4"/>
		<text transform="matrix(1 0 0 1 226.5365 292.0835)" class="st16 st17 st18">Agree</text>
	</g>
</g>
<rect x="44.6" y="56.7" class="st7" width="291.6" height="53.2"/>
<text transform="matrix(1 0 0 1 44.5752 65.8125)"><tspan x="0" y="0" class="st8 st17 st18">To continue installing this software you must agree to </tspan><tspan x="0" y="19" class="st8 st17 st18">these terms and conditions</tspan></text>
<rect x="45.9" y="103.3" class="st11" width="321" height="123"/>
<rect x="56.2" y="118.8" class="st7" width="291.6" height="107.4"/>
<text transform="matrix(1 0 0 1 56.2139 126.584)"><tspan x="0" y="0" class="st8 st17 st19">PLEASE READ THIS SOFTWARE LICENSE AGREEMENT </tspan><tspan x="0" y="15" class="st8 st17 st19">(LICENSE) CAREFULLY BEFORE USING THE SOFTWARE. </tspan><tspan x="0" y="30" class="st8 st17 st19">BY USING THE SOFTWARE, YOU ARE AGREEING TO BE </tspan><tspan x="0" y="45" class="st8 st17 st19">BOUND BY THE TERMS OF THIS LICENSE. IF YOU ARE </tspan><tspan x="0" y="60" class="st8 st17 st19">ACCESSING THE SOFTWARE ELECTRONICALLY, SIGNIFY </tspan><tspan x="0" y="75" class="st8 st17 st19">YOUR AGREEMENT TO BE BOUND BY THE TERMS OF THIS </tspan><tspan x="0" y="90" class="st8 st17 st19">LICENSE BY CLICKING THE AGREE/ACCEPT BUTTON. </tspan></text>
<rect x="14.2" y="10.3" class="st20" width="379.7" height="312"/>
<polyline class="st21" points="14.2,321.4 393.2,321.4 393.2,10.3 "/>
</svg>
