<svg id="OUTLINES" xmlns="http://www.w3.org/2000/svg" viewBox="0 0 1152 1008"><defs><style>.cls-1{fill:#fff;}.cls-2{fill:#000f7d;}</style></defs><title>up-front-consent</title><path class="cls-1" d="M774,530.22H378a24,24,0,0,1-24-24v-63a24,24,0,0,1,24-24H774a24,24,0,0,1,24,24v63A24,24,0,0,1,774,530.22Z"/><rect class="cls-1" x="360" y="326.22" width="432" height="99" rx="18" ry="18"/><path class="cls-1" d="M774,431.22H378a24,24,0,0,1-24-24v-63a24,24,0,0,1,24-24H774a24,24,0,0,1,24,24v63A24,24,0,0,1,774,431.22Zm-396-99a12,12,0,0,0-12,12v63a12,12,0,0,0,12,12H774a12,12,0,0,0,12-12v-63a12,12,0,0,0-12-12Z"/><path class="cls-1" d="M774,629.22H378a24,24,0,0,1-24-24v-63a24,24,0,0,1,24-24H774a24,24,0,0,1,24,24v63A24,24,0,0,1,774,629.22Z"/><path class="cls-2" d="M571.68,698a23,23,0,1,1,23-23A23,23,0,0,1,571.68,698Zm0-36a13,13,0,1,0,13,13A13,13,0,0,0,571.68,662Z"/><path class="cls-2" d="M579.78,288.13l-.29.31a12,12,0,0,1-8,3.5.68.68,0,0,1-.62-1,8.17,8.17,0,0,0,.47-5.69l0-.07a42.79,42.79,0,0,1-6.53,2l-1.29.28-10.68-10.69.28-1.29a42.45,42.45,0,0,1,2-6.53l0,0a8.17,8.17,0,0,0-5.73.46.68.68,0,0,1-1-.62,12,12,0,0,1,3.5-8l.31-.29,0-.06a7.52,7.52,0,0,1,1.5-1.14,12,12,0,0,1,8.12-1.94c6.5-8.29,17.58-16.45,36.34-18.76a3.1,3.1,0,0,1,.86,0,3.21,3.21,0,0,1,2.75,3.62c-2.29,18.76-10.45,29.83-18.74,36.34a12.05,12.05,0,0,1-2.06,8.29,7.24,7.24,0,0,1-1.07,1.34Zm-2.25-33.63a5.78,5.78,0,1,0,8.2,0,5.78,5.78,0,0,0-8.2,0ZM542.13,301a.57.57,0,0,0,.22.34.69.69,0,0,0,1-.08c2-2.32,7-3.2,9.72-3.49a7.26,7.26,0,0,0,4.85-2.57c2.78-3.43.27-7-.64-8.06l0-.05a.33.33,0,0,0-.46.05,7.16,7.16,0,0,1-5.85,2.66.52.52,0,0,1-.5-.5,7.15,7.15,0,0,1,2.72-5.85l0,0a.32.32,0,0,0,0-.46c-6.57-4.78-10.2,1.14-11.57,4.08a.69.69,0,0,0,.14.79.7.7,0,0,0,.64.2,7.56,7.56,0,0,1,3.86.3C540.29,293.05,541.41,298.54,542.13,301Z"/><path class="cls-2" d="M769.5,624.72h-396a24,24,0,0,1-24-24v-63a24,24,0,0,1,24-24h396a24,24,0,0,1,24,24v63A24,24,0,0,1,769.5,624.72Zm-396-99a12,12,0,0,0-12,12v63a12,12,0,0,0,12,12h396a12,12,0,0,0,12-12v-63a12,12,0,0,0-12-12Z"/><path class="cls-2" d="M495.45,480.19a16.3,16.3,0,0,1,0-20.56,11.94,11.94,0,0,1,9.22-4,11.54,11.54,0,0,1,7.76,2.55,11.36,11.36,0,0,1,3.81,6.81h-5.72a5.83,5.83,0,0,0-5.85-4.23,6,6,0,0,0-5.13,2.55,12.4,12.4,0,0,0,0,13.16,6,6,0,0,0,5.13,2.56q4.27,0,5.85-4.27h5.72a11.41,11.41,0,0,1-3.81,6.86,11.53,11.53,0,0,1-7.76,2.54A11.93,11.93,0,0,1,495.45,480.19Z"/><path class="cls-2" d="M538.47,473.69a10.61,10.61,0,0,1-2.75,7.56,10.12,10.12,0,0,1-14.22,0,11.87,11.87,0,0,1,0-15.17,10.12,10.12,0,0,1,14.22,0A10.68,10.68,0,0,1,538.47,473.69Zm-5.54,0a7,7,0,0,0-1.15-4.21,3.94,3.94,0,0,0-6.34,0,7,7,0,0,0-1.15,4.21,6.92,6.92,0,0,0,1.15,4.16,3.94,3.94,0,0,0,6.34,0A6.92,6.92,0,0,0,532.93,473.69Z"/><path class="cls-2" d="M542,483.72V463.61h5.58v1.84a7.65,7.65,0,0,1,10.64-.27,7.63,7.63,0,0,1,1.87,5.4v13.14h-5.58v-12a3.83,3.83,0,0,0-.83-2.58,3,3,0,0,0-2.45-1,3.84,3.84,0,0,0-2.32.74A3.45,3.45,0,0,0,547.6,471v12.73Z"/><path class="cls-2" d="M566,477.65v-9.54H562.9v-4.5H566v-5.45h5.54v5.45h4.41v4.5H571.5v8.82a2,2,0,0,0,2.29,2.29,4.35,4.35,0,0,0,2.43-.67v4.95a7.89,7.89,0,0,1-3.6.63,7,7,0,0,1-4.9-1.62A6.3,6.3,0,0,1,566,477.65Z"/><path class="cls-2" d="M596.47,483.72h-5.35v-1.08a5,5,0,0,1-1.94,1,9.62,9.62,0,0,1-3,.45,8.11,8.11,0,0,1-5.33-1.75,5.83,5.83,0,0,1-2.14-4.77,5.69,5.69,0,0,1,2.23-4.64,8.54,8.54,0,0,1,5.56-1.8,10.12,10.12,0,0,1,2.61.36,6.34,6.34,0,0,1,2,.81v-1.48a3.11,3.11,0,0,0-.84-2.23,3.23,3.23,0,0,0-2.45-.88,2.86,2.86,0,0,0-3,1.89h-5.31a7.14,7.14,0,0,1,2.77-4.61,8.94,8.94,0,0,1,5.69-1.82,8.83,8.83,0,0,1,6.23,2,7.32,7.32,0,0,1,2.23,5.69Zm-5.35-5.49v-1.44a2.64,2.64,0,0,0-1.38-1.28,5.36,5.36,0,0,0-2.27-.47,4.81,4.81,0,0,0-2.5.63,2.16,2.16,0,0,0,0,3.69,4.76,4.76,0,0,0,2.52.63,5.36,5.36,0,0,0,2.27-.47A2.65,2.65,0,0,0,591.12,478.23Z"/><path class="cls-2" d="M599.75,473.69a10.78,10.78,0,0,1,2.7-7.61,10,10,0,0,1,13-.94,8.05,8.05,0,0,1,2.79,5.26h-5.49a2.87,2.87,0,0,0-1.1-1.82,3.68,3.68,0,0,0-2.23-.65,3.53,3.53,0,0,0-3,1.57,7.07,7.07,0,0,0-1.12,4.19,7,7,0,0,0,1.12,4.14,3.53,3.53,0,0,0,3,1.57,3.62,3.62,0,0,0,2.23-.65,2.85,2.85,0,0,0,1.1-1.82h5.49a8.07,8.07,0,0,1-2.77,5.26,10,10,0,0,1-13-.94A10.71,10.71,0,0,1,599.75,473.69Z"/><path class="cls-2" d="M623.06,477.65v-9.54H620v-4.5h3.06v-5.45h5.54v5.45H633v4.5H628.6v8.82a2,2,0,0,0,2.29,2.29,4.35,4.35,0,0,0,2.43-.67v4.95a7.89,7.89,0,0,1-3.6.63,7,7,0,0,1-4.9-1.62A6.3,6.3,0,0,1,623.06,477.65Z"/><path class="cls-2" d="M635.89,477.74h5.53c.45,1.47,1.58,2.2,3.38,2.2s2.83-.66,2.83-2a1.25,1.25,0,0,0-.47-1,4,4,0,0,0-1.55-.66l-4.05-.9q-5.22-1.22-5.22-5.67a5.73,5.73,0,0,1,2.29-4.7,8.94,8.94,0,0,1,5.72-1.82,9.43,9.43,0,0,1,5.87,1.64,7.16,7.16,0,0,1,2.68,4.57h-5.31q-.63-2-3.15-2a3.45,3.45,0,0,0-1.87.49,1.58,1.58,0,0,0-.79,1.4c0,.75.6,1.27,1.8,1.57l4.14.95q5.35,1.31,5.36,5.85a5.65,5.65,0,0,1-2.32,4.77,9.53,9.53,0,0,1-5.92,1.75,10.39,10.39,0,0,1-6.12-1.68A6.77,6.77,0,0,1,635.89,477.74Z"/><path class="cls-2" d="M501.75,555.09h5.71L518,582.72h-5.85l-2.48-6.66H499.36l-2.43,6.66h-5.76Zm2.79,6.93-3.38,9.18h6.75Z"/><path class="cls-2" d="M533.79,581.37V580.2a6.05,6.05,0,0,1-4.95,2.07,8.27,8.27,0,0,1-6.66-2.92,11.5,11.5,0,0,1,0-14.27,8.27,8.27,0,0,1,6.66-2.92,6.2,6.2,0,0,1,4.95,2v-1.57h5.53v17.91q0,5-2.7,7.54a10,10,0,0,1-7.15,2.54,10.37,10.37,0,0,1-6.42-1.89,7.58,7.58,0,0,1-2.94-5.27h5.4q.68,2.84,4,2.84Q533.79,586.28,533.79,581.37Zm0-5.89v-6.57a4.14,4.14,0,0,0-3.78-2.07,4.31,4.31,0,0,0-3.47,1.48,5.78,5.78,0,0,0-1.26,3.87,5.9,5.9,0,0,0,1.26,3.9,4.29,4.29,0,0,0,3.47,1.5,4.25,4.25,0,0,0,2.22-.6A4.44,4.44,0,0,0,533.79,575.48Z"/><path class="cls-2" d="M556.42,576.15h5.18a8.07,8.07,0,0,1-2.86,5.16,9.38,9.38,0,0,1-6,1.86,9.19,9.19,0,0,1-7.07-2.9,10.67,10.67,0,0,1-2.7-7.58,10.81,10.81,0,0,1,2.72-7.54,9,9,0,0,1,7-3,8.5,8.5,0,0,1,6.72,2.72,10.56,10.56,0,0,1,2.41,7.27v1.71H548.32a5.55,5.55,0,0,0,1.31,3.53,3.93,3.93,0,0,0,3.06,1.28Q555.75,578.67,556.42,576.15Zm-3.78-9.45q-3.42,0-4.18,3.78h7.78a4.11,4.11,0,0,0-1-2.72A3.34,3.34,0,0,0,552.64,566.7Z"/><path class="cls-2" d="M509.31,384.72h-3.92l-6.84-18v18h-5.4V357.09H500l7.38,19.49,7.34-19.49h6.75v27.63H516v-18Z"/><path class="cls-2" d="M538.78,378.15H544a8.07,8.07,0,0,1-2.86,5.16,9.38,9.38,0,0,1-6.05,1.86,9.19,9.19,0,0,1-7.07-2.9,10.67,10.67,0,0,1-2.7-7.58,10.81,10.81,0,0,1,2.72-7.54,9,9,0,0,1,7-3,8.5,8.5,0,0,1,6.72,2.72,10.56,10.56,0,0,1,2.41,7.27v1.71H530.68a5.55,5.55,0,0,0,1.31,3.53,3.91,3.91,0,0,0,3.06,1.28Q538.11,380.67,538.78,378.15ZM535,368.7q-3.42,0-4.18,3.78h7.78a4.11,4.11,0,0,0-1-2.72A3.34,3.34,0,0,0,535,368.7Z"/><path class="cls-2" d="M560.74,384.72v-1.66a5.93,5.93,0,0,1-2.11,1.48,7.05,7.05,0,0,1-2.93.63,8.15,8.15,0,0,1-6.68-3,11.39,11.39,0,0,1-2.45-7.49,11.51,11.51,0,0,1,2.45-7.52,8.14,8.14,0,0,1,6.68-3,7.05,7.05,0,0,1,2.93.63,5.93,5.93,0,0,1,2.11,1.48v-10.8h5.63v29.25Zm0-6.75v-6.61a4.07,4.07,0,0,0-1.53-1.69A4.18,4.18,0,0,0,557,369a4.29,4.29,0,0,0-3.51,1.6,6.21,6.21,0,0,0-1.3,4.07,6.13,6.13,0,0,0,1.3,4.05,4.32,4.32,0,0,0,3.51,1.57,4.17,4.17,0,0,0,3.78-2.34Z"/><path class="cls-2" d="M577.26,358.8a3,3,0,0,1-1,2.3,3.49,3.49,0,0,1-4.68,0,3.15,3.15,0,0,1,0-4.57,3.34,3.34,0,0,1,2.34-.92,3.27,3.27,0,0,1,2.32.92A3,3,0,0,1,577.26,358.8Zm-.5,5.81v20.11h-5.58V364.61Z"/><path class="cls-2" d="M598.14,384.72h-5.36v-1.08a4.93,4.93,0,0,1-1.93,1,9.62,9.62,0,0,1-3,.45,8.15,8.15,0,0,1-5.34-1.75,5.85,5.85,0,0,1-2.13-4.77,5.71,5.71,0,0,1,2.22-4.64,8.57,8.57,0,0,1,5.56-1.8,10.12,10.12,0,0,1,2.61.36,6.34,6.34,0,0,1,2,.81v-1.48a3.14,3.14,0,0,0-.83-2.23,3.25,3.25,0,0,0-2.45-.88,2.86,2.86,0,0,0-3,1.89h-5.31A7.13,7.13,0,0,1,584,366a9,9,0,0,1,5.7-1.82,8.86,8.86,0,0,1,6.23,2,7.35,7.35,0,0,1,2.23,5.69Zm-5.36-5.49v-1.44a2.65,2.65,0,0,0-1.37-1.28,5.42,5.42,0,0,0-2.27-.47,4.79,4.79,0,0,0-2.5.63,2,2,0,0,0-1.06,1.84,2,2,0,0,0,1,1.85,4.76,4.76,0,0,0,2.52.63,5.42,5.42,0,0,0,2.27-.47A2.67,2.67,0,0,0,592.78,379.23Z"/><path class="cls-2" d="M624,355.61v4.72a3.36,3.36,0,0,0-2-.54,2.45,2.45,0,0,0-2.75,2.79v2h4.19v4.5h-4.19v15.61h-5.49V369.11h-3.28v-4.5h3.28v-2.39a6.61,6.61,0,0,1,7.11-7.15A7.71,7.71,0,0,1,624,355.61Z"/><path class="cls-2" d="M633,358.8a3,3,0,0,1-1,2.3,3.49,3.49,0,0,1-4.68,0,3.15,3.15,0,0,1,0-4.57,3.34,3.34,0,0,1,2.34-.92,3.27,3.27,0,0,1,2.32.92A3,3,0,0,1,633,358.8Zm-.49,5.81v20.11h-5.58V364.61Z"/><path class="cls-2" d="M642.91,355.47v29.25h-5.58V355.47Z"/><path class="cls-2" d="M660,378.15h5.17a8.06,8.06,0,0,1-2.85,5.16,9.41,9.41,0,0,1-6.06,1.86,9.17,9.17,0,0,1-7.06-2.9,10.67,10.67,0,0,1-2.7-7.58,10.81,10.81,0,0,1,2.72-7.54,9,9,0,0,1,6.95-3,8.54,8.54,0,0,1,6.73,2.72,10.61,10.61,0,0,1,2.41,7.27v1.71H651.91a5.54,5.54,0,0,0,1.3,3.53,3.93,3.93,0,0,0,3.06,1.28Q659.33,380.67,660,378.15Zm-3.78-9.45q-3.42,0-4.19,3.78h7.79a4.11,4.11,0,0,0-1-2.72A3.34,3.34,0,0,0,656.23,368.7Z"/><path class="cls-2" d="M667.61,378.74h5.54c.45,1.47,1.57,2.2,3.37,2.2s2.84-.66,2.84-2a1.28,1.28,0,0,0-.47-1,4.12,4.12,0,0,0-1.56-.66l-4.05-.9q-5.22-1.22-5.22-5.67a5.74,5.74,0,0,1,2.3-4.7,8.92,8.92,0,0,1,5.71-1.82,9.43,9.43,0,0,1,5.87,1.64,7.16,7.16,0,0,1,2.68,4.57h-5.31q-.63-2-3.15-2a3.4,3.4,0,0,0-1.86.49,1.56,1.56,0,0,0-.79,1.4c0,.75.6,1.27,1.8,1.57l4.14.95q5.35,1.31,5.35,5.85a5.65,5.65,0,0,1-2.32,4.77,9.49,9.49,0,0,1-5.91,1.75,10.39,10.39,0,0,1-6.12-1.68A6.78,6.78,0,0,1,667.61,378.74Z"/><circle class="cls-2" cx="414" cy="470.22" r="9"/><path class="cls-2" d="M441,493.22H414a23,23,0,0,1,0-46h27a23,23,0,0,1,0,46Zm-27-36a13,13,0,0,0,0,26h27a13,13,0,0,0,0-26Z"/><circle class="cls-2" cx="414" cy="569.22" r="9"/><path class="cls-2" d="M441,592.22H414a23,23,0,0,1,0-46h27a23,23,0,0,1,0,46Zm-27-36a13,13,0,0,0,0,26h27a13,13,0,0,0,0-26Z"/><path class="cls-2" d="M441,353.28H414a18,18,0,0,0,0,36h27a18,18,0,0,0,0-36Z"/><path class="cls-2" d="M441,394.28H414a23,23,0,0,1,0-46h27a23,23,0,0,1,0,46Zm-27-36a13,13,0,0,0,0,26h27a13,13,0,0,0,0-26Z"/><circle class="cls-1" cx="441" cy="371.28" r="9"/><path class="cls-2" d="M782.8,620.69a24,24,0,0,0,10.7-20v-63a24,24,0,0,0-8.15-18,23.94,23.94,0,0,0,8.15-18v-63a24,24,0,0,0-8.12-18,24,24,0,0,0,8.12-18v-63a24,24,0,0,0-24-24H720.18v-80c0-10.88-10.09-19.73-22.5-19.73h-252c-12.4,0-22.5,8.85-22.5,19.72L423,315.78H373.5a24,24,0,0,0-24,24v63a23.93,23.93,0,0,0,8.12,18,23.92,23.92,0,0,0-8.12,18v63a23.9,23.9,0,0,0,8.15,18,23.92,23.92,0,0,0-8.15,18v63a24,24,0,0,0,24,24h49.68V706.5a22.53,22.53,0,0,0,22.5,22.5h121v29.19A77.92,77.92,0,0,0,607.59,827V850.5a5,5,0,0,0,10,0V824a5,5,0,0,0-2.79-4.48,68,68,0,0,1-38.12-61.33V729h96.51a78.37,78.37,0,0,0,4.71,96.25,5,5,0,0,0,3.79,1.74,4.94,4.94,0,0,0,3.26-1.22,5,5,0,0,0,.53-7,68.35,68.35,0,0,1,0-89.23,5,5,0,0,0-.07-6.61l-63.22-70.21a28.46,28.46,0,0,1-6.42-27.95h45.81l84.94,84.95a5,5,0,1,0,7.07-7.07l-33.41-33.41V624.72H769.5a23.73,23.73,0,0,0,3.5-.26,140.49,140.49,0,0,1,32,89.24V846.94a5,5,0,0,0,10,0V713.7A150.48,150.48,0,0,0,782.8,620.69Zm-350.62-385c0-5.92,6.06-10.73,13.5-10.73h252c7.45,0,13.5,4.81,13.5,10.73v80H432Zm-70.68,167v-63a12,12,0,0,1,12-12h396a12,12,0,0,1,12,12v63a12,12,0,0,1-11.32,12l-.68,0h-396l-.68,0A12,12,0,0,1,361.5,402.78Zm0,98.94v-63a12,12,0,0,1,11.32-12l.68,0h396l.68,0a12,12,0,0,1,11.32,12v63a12,12,0,0,1-12,12h-396A12,12,0,0,1,361.5,501.72Zm0,99v-63a12,12,0,0,1,12-12h396a12,12,0,0,1,12,12v63a12,12,0,0,1-12,12h-396A12,12,0,0,1,361.5,600.72ZM432.18,706.5V624.72H605.4a38.81,38.81,0,0,0-.92,8.43,38.4,38.4,0,0,0,10.34,26.29L669.35,720H445.68A13.52,13.52,0,0,1,432.18,706.5Zm279-46.31-35.46-35.47h35.46Z"/></svg>