<?xml version="1.0" encoding="utf-8"?>
<!-- Generator: Adobe Illustrator 19.1.0, SVG Export Plug-In . SVG Version: 6.00 Build 0)  -->
<svg version="1.1" id="Layer_1" xmlns="http://www.w3.org/2000/svg" xmlns:xlink="http://www.w3.org/1999/xlink" x="0px" y="0px"
	 viewBox="0 0 202 425" style="enable-background:new 0 0 202 425;" xml:space="preserve">
<style type="text/css">
	.st0{fill:#FFFFFF;stroke:#010101;stroke-width:2;stroke-miterlimit:10;}
	.st1{fill:#F5F6F6;stroke:#1A1A1A;stroke-miterlimit:10;}
	.st2{fill:#FFFFFF;stroke:#010101;stroke-miterlimit:10;}
	.st3{fill:#010101;stroke:#FFFFFF;stroke-width:0.746;stroke-miterlimit:10;}
	.st4{fill:#010101;stroke:#FFFFFF;stroke-width:0.8525;stroke-miterlimit:10;}
	.st5{fill:none;}
	.st6{fill:#1D1D1B;}
	.st7{fill:#FFFFFF;stroke:#1D1D1B;stroke-miterlimit:10;}
	.st8{fill:#3A50A2;}
	.st9{fill:#FFFFFF;}
	.st10{fill:#ECECEC;stroke:#1D1D1B;stroke-width:0.7507;stroke-miterlimit:10;}
	.st11{fill-rule:evenodd;clip-rule:evenodd;}
	.st12{fill-rule:evenodd;clip-rule:evenodd;fill:#FFFFFF;}
</style>
<path class="st0" d="M201,394.2c0,16.5-13.4,29.8-29.8,29.8H30.8C14.4,424,1,410.6,1,394.2V30.8C1,14.4,14.4,1,30.8,1h140.3
	C187.6,1,201,14.4,201,30.8V394.2z"/>
<rect x="15.5" y="60.5" class="st1" width="172" height="303"/>
<g>
	<circle class="st2" cx="102.3" cy="393" r="17.1"/>
</g>
<circle class="st3" cx="101.8" cy="24.2" r="3.2"/>
<path class="st4" d="M124.6,35.6H79.4c-1,0-1.8-0.8-1.8-1.8l0,0c0-1,0.8-1.8,1.8-1.8h45.2c1,0,1.8,0.8,1.8,1.8l0,0
	C126.3,34.8,125.5,35.6,124.6,35.6z"/>
<g>
	<rect x="71.1" y="83.6" class="st5" width="118.9" height="38.9"/>
	<path class="st6" d="M72.5,93.6v-10h1.1v10H72.5z"/>
	<path class="st6" d="M80.7,93.6v-4.2c0-1.2-0.7-1.8-1.7-1.8s-1.7,0.6-1.7,1.8v4.2h-1v-6.9h1v0.8c0.5-0.6,1.2-0.8,1.9-0.8
		c0.7,0,1.3,0.2,1.8,0.6c0.5,0.5,0.7,1.1,0.7,1.9v4.4H80.7z"/>
	<path class="st6" d="M86.3,93.7c-1.2,0-2.1-0.3-2.8-1l0.7-0.7c0.5,0.6,1.3,0.8,2.1,0.8c1.1,0,1.8-0.4,1.8-1.2c0-0.6-0.4-0.9-1.1-1
		l-1.1-0.1c-1.3-0.1-2.1-0.7-2.1-1.8c0-1.3,1.1-2,2.5-2c1,0,1.9,0.2,2.5,0.7L88.1,88c-0.5-0.4-1.1-0.5-1.8-0.5c-1,0-1.5,0.4-1.5,1.1
		c0,0.6,0.3,0.9,1.2,1l1.1,0.1c1.2,0.1,2,0.6,2,1.9C89.1,92.9,88,93.7,86.3,93.7z"/>
	<path class="st6" d="M92.9,93.6c-1.2,0-1.8-0.8-1.8-1.8v-4.2h-0.9v-0.8h0.9v-2.2h1v2.2h1.5v0.8h-1.5v4.2c0,0.6,0.3,1,0.9,1h0.5v0.9
		H92.9z"/>
	<path class="st6" d="M99.4,93.6v-0.7c-0.6,0.6-1.1,0.7-2,0.7c-1,0-1.5-0.2-1.9-0.6c-0.3-0.3-0.5-0.9-0.5-1.4c0-1.2,0.8-2,2.4-2h2.1
		V89c0-1-0.5-1.5-1.8-1.5c-0.9,0-1.3,0.2-1.7,0.8l-0.7-0.6c0.6-0.8,1.3-1,2.4-1c1.8,0,2.8,0.8,2.8,2.3v4.7H99.4z M99.4,90.4h-1.9
		c-1,0-1.5,0.4-1.5,1.2s0.5,1.2,1.6,1.2c0.6,0,1.1,0,1.5-0.5c0.2-0.2,0.4-0.6,0.4-1.2V90.4z"/>
	<path class="st6" d="M104.6,93.6c-1.2,0-1.8-0.8-1.8-1.8v-8.1h1v8.1c0,0.7,0.2,1,0.9,1h0.5v0.9H104.6z"/>
	<path class="st6" d="M108.7,93.6c-1.2,0-1.8-0.8-1.8-1.8v-8.1h1v8.1c0,0.7,0.2,1,0.9,1h0.5v0.9H108.7z"/>
	<path class="st6" d="M75.1,110.5c-1.5,0-2.5-0.4-3.4-1.3l0.7-0.7c0.8,0.8,1.6,1.1,2.7,1.1c1.5,0,2.4-0.7,2.4-1.8
		c0-0.5-0.2-1-0.5-1.2c-0.3-0.3-0.6-0.4-1.3-0.5l-1.2-0.2c-0.8-0.1-1.4-0.4-1.8-0.8c-0.5-0.4-0.8-1.1-0.8-1.9c0-1.7,1.2-2.8,3.2-2.8
		c1.3,0,2.1,0.3,3,1.1l-0.7,0.7c-0.6-0.6-1.3-0.9-2.3-0.9c-1.3,0-2.1,0.7-2.1,1.8c0,0.5,0.1,0.9,0.4,1.1c0.3,0.3,0.8,0.5,1.3,0.5
		l1.1,0.2c0.9,0.1,1.4,0.3,1.8,0.7c0.5,0.5,0.8,1.1,0.8,2C78.5,109.4,77.1,110.5,75.1,110.5z"/>
	<path class="st6" d="M85.2,109.9c-0.4,0.4-1,0.6-1.7,0.6c-0.8,0-1.4-0.2-1.9-0.9v3.9h-1v-10h1v0.8c0.6-0.7,1.2-0.9,1.9-0.9
		c0.7,0,1.3,0.2,1.7,0.6c0.7,0.7,0.8,1.8,0.8,2.9S85.9,109.2,85.2,109.9z M83.3,104.3c-1.5,0-1.7,1.3-1.7,2.6s0.2,2.6,1.7,2.6
		c1.5,0,1.7-1.3,1.7-2.6S84.8,104.3,83.3,104.3z"/>
	<path class="st6" d="M92.1,110.4v-0.7c-0.6,0.6-1.1,0.7-2,0.7c-1,0-1.5-0.2-1.9-0.6c-0.3-0.3-0.5-0.9-0.5-1.4c0-1.2,0.8-2,2.4-2
		h2.1v-0.7c0-1-0.5-1.5-1.8-1.5c-0.9,0-1.3,0.2-1.7,0.8l-0.7-0.6c0.6-0.8,1.3-1,2.4-1c1.8,0,2.8,0.8,2.8,2.3v4.7H92.1z M92.1,107.2
		h-1.9c-1,0-1.5,0.4-1.5,1.2s0.5,1.2,1.6,1.2c0.6,0,1.1,0,1.5-0.5c0.2-0.2,0.4-0.6,0.4-1.2V107.2z"/>
	<path class="st6" d="M98.2,110.5c-1.7,0-3.1-1.2-3.1-3.5c0-2.4,1.3-3.5,3.1-3.5c1,0,1.6,0.3,2.3,1l-0.7,0.6
		c-0.5-0.6-0.9-0.8-1.6-0.8c-0.7,0-1.2,0.3-1.6,0.8c-0.3,0.4-0.4,1-0.4,1.8s0.1,1.4,0.4,1.8c0.4,0.5,0.9,0.8,1.6,0.8
		c0.7,0,1.1-0.2,1.6-0.8l0.7,0.7C99.8,110.2,99.2,110.5,98.2,110.5z"/>
	<path class="st6" d="M102.8,107.2c0,1.5,0.7,2.4,2,2.4c0.8,0,1.3-0.2,1.8-0.8l0.7,0.6c-0.7,0.7-1.3,1.1-2.5,1.1c-1.8,0-3-1.1-3-3.5
		c0-2.2,1.1-3.5,2.8-3.5c1.8,0,2.8,1.3,2.8,3.3v0.5H102.8z M106.2,105.3c-0.3-0.6-0.9-1-1.6-1s-1.3,0.4-1.6,1
		c-0.2,0.4-0.2,0.6-0.2,1.1h3.6C106.4,105.9,106.4,105.7,106.2,105.3z"/>
	<path class="st6" d="M116.9,104.8c-0.4-0.4-0.7-0.5-1.2-0.5c-1,0-1.7,0.8-1.7,1.8v4.2h-1v-6.9h1v0.8c0.4-0.6,1.1-0.9,1.9-0.9
		c0.7,0,1.2,0.2,1.7,0.6L116.9,104.8z"/>
	<path class="st6" d="M122.8,110.4v-0.7c-0.6,0.6-1.1,0.7-2,0.7c-1,0-1.5-0.2-1.9-0.6c-0.3-0.3-0.5-0.9-0.5-1.4c0-1.2,0.8-2,2.4-2
		h2.1v-0.7c0-1-0.5-1.5-1.8-1.5c-0.9,0-1.3,0.2-1.7,0.8l-0.7-0.6c0.6-0.8,1.3-1,2.4-1c1.8,0,2.8,0.8,2.8,2.3v4.7H122.8z
		 M122.8,107.2h-1.9c-1,0-1.5,0.4-1.5,1.2s0.5,1.2,1.6,1.2c0.6,0,1.1,0,1.5-0.5c0.2-0.2,0.4-0.6,0.4-1.2V107.2z"/>
	<path class="st6" d="M128.9,110.5c-1.7,0-3.1-1.2-3.1-3.5c0-2.4,1.3-3.5,3.1-3.5c1,0,1.6,0.3,2.3,1l-0.7,0.6
		c-0.5-0.6-0.9-0.8-1.6-0.8c-0.7,0-1.2,0.3-1.6,0.8c-0.3,0.4-0.4,1-0.4,1.8s0.1,1.4,0.4,1.8c0.4,0.5,0.9,0.8,1.6,0.8
		c0.7,0,1.1-0.2,1.6-0.8l0.7,0.7C130.4,110.2,129.8,110.5,128.9,110.5z"/>
	<path class="st6" d="M133.5,107.2c0,1.5,0.7,2.4,2,2.4c0.8,0,1.3-0.2,1.8-0.8l0.7,0.6c-0.7,0.7-1.3,1.1-2.5,1.1c-1.8,0-3-1.1-3-3.5
		c0-2.2,1.1-3.5,2.8-3.5c1.8,0,2.8,1.3,2.8,3.3v0.5H133.5z M136.9,105.3c-0.3-0.6-0.9-1-1.6-1s-1.3,0.4-1.6,1
		c-0.2,0.4-0.2,0.6-0.2,1.1h3.6C137.1,105.9,137.1,105.7,136.9,105.3z"/>
	<path class="st6" d="M147.7,110.4v-0.7c-0.6,0.6-1.1,0.7-2,0.7c-1,0-1.5-0.2-1.9-0.6c-0.3-0.3-0.5-0.9-0.5-1.4c0-1.2,0.8-2,2.4-2
		h2.1v-0.7c0-1-0.5-1.5-1.8-1.5c-0.9,0-1.3,0.2-1.7,0.8l-0.7-0.6c0.6-0.8,1.3-1,2.4-1c1.8,0,2.8,0.8,2.8,2.3v4.7H147.7z
		 M147.7,107.2h-1.9c-1,0-1.5,0.4-1.5,1.2s0.5,1.2,1.6,1.2c0.6,0,1.1,0,1.5-0.5c0.2-0.2,0.4-0.6,0.4-1.2V107.2z"/>
	<path class="st6" d="M155.8,109.9c-0.4,0.4-1,0.6-1.7,0.6c-0.8,0-1.4-0.2-1.9-0.9v3.9h-1v-10h1v0.8c0.6-0.7,1.2-0.9,1.9-0.9
		c0.7,0,1.3,0.2,1.7,0.6c0.7,0.7,0.8,1.8,0.8,2.9S156.5,109.2,155.8,109.9z M153.9,104.3c-1.5,0-1.7,1.3-1.7,2.6s0.2,2.6,1.7,2.6
		s1.7-1.3,1.7-2.6S155.4,104.3,153.9,104.3z"/>
	<path class="st6" d="M163.4,109.9c-0.4,0.4-1,0.6-1.7,0.6c-0.8,0-1.4-0.2-1.9-0.9v3.9h-1v-10h1v0.8c0.6-0.7,1.2-0.9,1.9-0.9
		c0.7,0,1.3,0.2,1.7,0.6c0.7,0.7,0.8,1.8,0.8,2.9S164.1,109.2,163.4,109.9z M161.5,104.3c-1.5,0-1.7,1.3-1.7,2.6s0.2,2.6,1.7,2.6
		c1.5,0,1.7-1.3,1.7-2.6S163,104.3,161.5,104.3z"/>
	<path class="st6" d="M170.8,104.6l-1.1,1.7c-0.2,0.3-0.3,0.6-0.3,0.8v0.5h-1V107c0-0.5,0.1-0.9,0.4-1.3l1.1-1.6
		c0.3-0.4,0.5-0.7,0.5-1.2c0-0.9-0.7-1.7-1.6-1.7c-1,0-1.6,0.8-1.6,1.7h-1c0-1.4,1.1-2.6,2.6-2.6c1.5,0,2.6,1.1,2.6,2.5
		C171.4,103.5,171.2,104,170.8,104.6z M168.3,110.4v-1.2h1.2v1.2H168.3z"/>
</g>
<rect x="15.9" y="136.7" class="st7" width="172" height="43.3"/>
<g>
	<rect x="26.9" y="145.3" class="st5" width="118.9" height="41.7"/>
	<path class="st6" d="M33.2,153.1c-0.5,0.5-1.3,0.8-2.2,0.8h-2.9v-8.5H31c0.9,0,1.6,0.3,2.2,0.8c0.9,0.9,0.8,2.2,0.8,3.4
		C34,150.7,34.1,152.2,33.2,153.1z M32.6,146.8c-0.4-0.5-1-0.6-1.7-0.6H29v6.9h1.9c0.7,0,1.2-0.2,1.7-0.6c0.6-0.6,0.6-1.9,0.6-2.9
		S33.1,147.4,32.6,146.8z"/>
	<path class="st6" d="M36.6,151.1c0,1.3,0.6,2,1.7,2c0.7,0,1.1-0.2,1.5-0.7l0.6,0.5c-0.6,0.6-1.2,0.9-2.2,0.9c-1.6,0-2.6-0.9-2.6-3
		c0-1.9,0.9-3,2.4-3c1.5,0,2.4,1.1,2.4,2.9v0.4H36.6z M39.5,149.5c-0.2-0.5-0.8-0.9-1.4-0.9s-1.2,0.3-1.4,0.9
		c-0.1,0.3-0.2,0.5-0.2,1h3.1C39.7,150,39.6,149.8,39.5,149.5z"/>
	<path class="st6" d="M44.2,153.9h-0.8l-2.2-5.9h0.9l1.6,4.7l1.6-4.7h0.9L44.2,153.9z"/>
	<path class="st6" d="M47.6,146.3v-1h1v1H47.6z M47.6,153.9V148h0.9v5.9H47.6z"/>
	<path class="st6" d="M53,153.9c-1.5,0-2.6-1-2.6-3c0-2,1.1-3,2.6-3c0.8,0,1.3,0.2,1.9,0.9l-0.6,0.6c-0.4-0.5-0.8-0.7-1.4-0.7
		c-0.6,0-1.1,0.2-1.4,0.7c-0.3,0.4-0.4,0.8-0.4,1.6c0,0.7,0.1,1.2,0.4,1.6c0.3,0.4,0.8,0.7,1.4,0.7c0.6,0,0.9-0.2,1.4-0.7l0.6,0.6
		C54.3,153.7,53.8,153.9,53,153.9z"/>
	<path class="st6" d="M56.9,151.1c0,1.3,0.6,2,1.7,2c0.7,0,1.1-0.2,1.5-0.7l0.6,0.5c-0.6,0.6-1.2,0.9-2.2,0.9c-1.6,0-2.6-0.9-2.6-3
		c0-1.9,0.9-3,2.4-3c1.5,0,2.4,1.1,2.4,2.9v0.4H56.9z M59.8,149.5c-0.2-0.5-0.8-0.9-1.4-0.9s-1.2,0.3-1.4,0.9
		c-0.1,0.3-0.2,0.5-0.2,1H60C60,150,60,149.8,59.8,149.5z"/>
	<path class="st6" d="M69.1,153.9v-0.6c-0.5,0.5-0.9,0.6-1.7,0.6c-0.8,0-1.3-0.2-1.7-0.5c-0.3-0.3-0.4-0.7-0.4-1.2
		c0-1,0.7-1.7,2-1.7h1.8v-0.6c0-0.9-0.4-1.3-1.5-1.3c-0.8,0-1.1,0.2-1.5,0.7l-0.6-0.5c0.5-0.7,1.1-0.9,2.1-0.9c1.6,0,2.4,0.7,2.4,2
		v4H69.1z M69.1,151.1h-1.7c-0.9,0-1.3,0.4-1.3,1s0.4,1,1.4,1c0.5,0,0.9,0,1.3-0.4c0.2-0.2,0.3-0.5,0.3-1V151.1z"/>
	<path class="st6" d="M75.8,153.9v-3.6c0-1-0.6-1.6-1.5-1.6c-0.9,0-1.5,0.5-1.5,1.6v3.6H72V148h0.9v0.6c0.4-0.5,1-0.7,1.7-0.7
		c0.6,0,1.2,0.2,1.5,0.6c0.4,0.4,0.6,1,0.6,1.6v3.8H75.8z"/>
	<path class="st6" d="M82.3,153.9v-0.7c-0.5,0.6-1,0.8-1.7,0.8c-0.6,0-1.1-0.2-1.4-0.5c-0.6-0.6-0.7-1.6-0.7-2.5
		c0-0.9,0.1-1.9,0.7-2.5c0.3-0.3,0.8-0.5,1.4-0.5c0.6,0,1.2,0.1,1.7,0.8v-3.3h0.9v8.5H82.3z M80.8,148.7c-1.3,0-1.5,1.1-1.5,2.3
		s0.2,2.3,1.5,2.3s1.5-1.1,1.5-2.3S82.1,148.7,80.8,148.7z"/>
	<path class="st6" d="M91.6,153.9v-0.6c-0.5,0.5-0.9,0.6-1.7,0.6c-0.8,0-1.3-0.2-1.7-0.5c-0.3-0.3-0.4-0.7-0.4-1.2
		c0-1,0.7-1.7,2-1.7h1.8v-0.6c0-0.9-0.4-1.3-1.5-1.3c-0.8,0-1.1,0.2-1.5,0.7l-0.6-0.5c0.5-0.7,1.1-0.9,2.1-0.9c1.6,0,2.4,0.7,2.4,2
		v4H91.6z M91.6,151.1H90c-0.9,0-1.3,0.4-1.3,1s0.4,1,1.4,1c0.5,0,0.9,0,1.3-0.4c0.2-0.2,0.3-0.5,0.3-1V151.1z"/>
	<path class="st6" d="M98.6,153.4c-0.3,0.3-0.8,0.5-1.4,0.5c-0.6,0-1.2-0.2-1.7-0.8v3.3h-0.9V148h0.9v0.7c0.5-0.6,1-0.8,1.7-0.8
		c0.6,0,1.1,0.2,1.4,0.5c0.6,0.6,0.7,1.6,0.7,2.5C99.3,151.8,99.2,152.8,98.6,153.4z M97,148.7c-1.3,0-1.5,1.1-1.5,2.3
		s0.2,2.3,1.5,2.3s1.5-1.1,1.5-2.3S98.2,148.7,97,148.7z"/>
	<path class="st6" d="M105.1,153.4c-0.3,0.3-0.8,0.5-1.4,0.5c-0.6,0-1.2-0.2-1.7-0.8v3.3h-0.9V148h0.9v0.7c0.5-0.6,1-0.8,1.7-0.8
		c0.6,0,1.1,0.2,1.4,0.5c0.6,0.6,0.7,1.6,0.7,2.5C105.8,151.8,105.7,152.8,105.1,153.4z M103.5,148.7c-1.3,0-1.5,1.1-1.5,2.3
		s0.2,2.3,1.5,2.3s1.5-1.1,1.5-2.3S104.8,148.7,103.5,148.7z"/>
	<path class="st6" d="M31.7,168.3v-3.6c0-1-0.6-1.6-1.4-1.6c-0.9,0-1.5,0.5-1.5,1.6v3.6H28v-8.5h0.9v3.3c0.4-0.5,1-0.7,1.7-0.7
		c1.3,0,2.1,0.9,2.1,2.2v3.8H31.7z"/>
	<path class="st6" d="M34.6,160.7v-1h1v1H34.6z M34.7,168.3v-5.9h0.9v5.9H34.7z"/>
	<path class="st6" d="M39.6,168.3c-1,0-1.8-0.2-2.4-0.9l0.6-0.6c0.5,0.5,1.1,0.7,1.8,0.7c1,0,1.6-0.3,1.6-1c0-0.5-0.3-0.8-1-0.9
		l-1-0.1c-1.2-0.1-1.8-0.6-1.8-1.6c0-1.1,0.9-1.7,2.2-1.7c0.8,0,1.6,0.2,2.1,0.6l-0.6,0.6c-0.4-0.3-1-0.5-1.6-0.5
		c-0.9,0-1.3,0.4-1.3,1c0,0.5,0.3,0.8,1,0.9l0.9,0.1c1,0.1,1.7,0.5,1.7,1.6C42,167.7,41,168.3,39.6,168.3z"/>
	<path class="st6" d="M45.2,168.3c-1,0-1.5-0.7-1.5-1.6v-3.6H43v-0.7h0.7v-1.8h0.9v1.8h1.3v0.7h-1.3v3.6c0,0.5,0.3,0.9,0.8,0.9h0.5
		v0.7H45.2z"/>
	<path class="st6" d="M51.2,167.7c-0.4,0.4-1,0.7-1.7,0.7s-1.3-0.3-1.7-0.7c-0.6-0.6-0.7-1.4-0.7-2.4c0-0.9,0.1-1.7,0.7-2.4
		c0.4-0.4,1-0.7,1.7-0.7s1.3,0.3,1.7,0.7c0.6,0.6,0.7,1.4,0.7,2.4C52,166.2,51.8,167.1,51.2,167.7z M50.6,163.5
		c-0.3-0.3-0.7-0.4-1.1-0.4s-0.8,0.2-1.1,0.4c-0.4,0.4-0.5,1.2-0.5,1.8s0,1.4,0.5,1.8c0.3,0.3,0.6,0.4,1.1,0.4s0.8-0.2,1.1-0.4
		c0.4-0.4,0.5-1.2,0.5-1.8S51.1,163.9,50.6,163.5z"/>
	<path class="st6" d="M57.1,163.5c-0.3-0.3-0.6-0.4-1-0.4c-0.9,0-1.4,0.7-1.4,1.6v3.6h-0.9v-5.9h0.9v0.7c0.3-0.5,1-0.8,1.7-0.8
		c0.6,0,1,0.1,1.4,0.6L57.1,163.5z"/>
	<path class="st6" d="M60.3,169.7c-0.1,0.3-0.3,0.5-0.4,0.7c-0.3,0.3-0.7,0.4-1.2,0.4h-0.4V170h0.3c0.6,0,0.8-0.2,1-0.7l0.4-1.2
		l-2.1-5.8h0.9l1.6,4.7l1.6-4.7H63L60.3,169.7z"/>
</g>
<rect x="15.9" y="179.3" class="st7" width="172" height="43.3"/>
<g>
	<rect x="26.9" y="195" class="st5" width="118.9" height="18.3"/>
	<path class="st6" d="M31.3,200H29v3.5h-0.9V195h3.2c1.6,0,2.6,1,2.6,2.5S32.8,200,31.3,200z M31.2,195.8H29v3.4h2.2
		c1.1,0,1.8-0.6,1.8-1.7S32.3,195.8,31.2,195.8z"/>
	<path class="st6" d="M39.3,203.5v-3.6c0-1-0.6-1.6-1.4-1.6c-0.9,0-1.5,0.5-1.5,1.6v3.6h-0.9V195h0.9v3.3c0.4-0.5,1-0.7,1.7-0.7
		c1.3,0,2.1,0.9,2.1,2.2v3.8H39.3z"/>
	<path class="st6" d="M46,202.9c-0.4,0.4-1,0.7-1.7,0.7s-1.3-0.3-1.7-0.7c-0.6-0.6-0.7-1.4-0.7-2.4c0-0.9,0.1-1.7,0.7-2.4
		c0.4-0.4,1-0.7,1.7-0.7s1.3,0.3,1.7,0.7c0.6,0.6,0.7,1.4,0.7,2.4C46.8,201.5,46.6,202.3,46,202.9z M45.4,198.8
		c-0.3-0.3-0.7-0.4-1.1-0.4s-0.8,0.2-1.1,0.4c-0.4,0.4-0.5,1.2-0.5,1.8s0,1.4,0.5,1.8c0.3,0.3,0.6,0.4,1.1,0.4s0.8-0.2,1.1-0.4
		c0.4-0.4,0.5-1.2,0.5-1.8S45.9,199.2,45.4,198.8z"/>
	<path class="st6" d="M50.3,203.5c-1,0-1.5-0.7-1.5-1.6v-3.6H48v-0.7h0.7v-1.8h0.9v1.8h1.3v0.7h-1.3v3.6c0,0.5,0.3,0.9,0.8,0.9h0.5
		v0.7H50.3z"/>
	<path class="st6" d="M56.3,202.9c-0.4,0.4-1,0.7-1.7,0.7s-1.3-0.3-1.7-0.7c-0.6-0.6-0.7-1.4-0.7-2.4c0-0.9,0.1-1.7,0.7-2.4
		c0.4-0.4,1-0.7,1.7-0.7s1.3,0.3,1.7,0.7c0.6,0.6,0.7,1.4,0.7,2.4C57,201.5,56.9,202.3,56.3,202.9z M55.7,198.8
		c-0.3-0.3-0.7-0.4-1.1-0.4s-0.8,0.2-1.1,0.4c-0.4,0.4-0.5,1.2-0.5,1.8s0,1.4,0.5,1.8c0.3,0.3,0.6,0.4,1.1,0.4s0.8-0.2,1.1-0.4
		c0.4-0.4,0.5-1.2,0.5-1.8S56.1,199.2,55.7,198.8z"/>
	<path class="st6" d="M61.6,204.4h-0.9l3.4-10.3H65L61.6,204.4z"/>
	<path class="st6" d="M75.7,203.5V197l-2.3,5.1h-0.8l-2.4-5.1v6.5h-0.9V195h0.9L73,201l2.7-6.1h0.9v8.5H75.7z"/>
	<path class="st6" d="M79.4,200.8c0,1.3,0.6,2,1.7,2c0.7,0,1.1-0.2,1.5-0.7l0.6,0.5c-0.6,0.6-1.2,0.9-2.2,0.9c-1.6,0-2.6-0.9-2.6-3
		c0-1.9,0.9-3,2.4-3c1.5,0,2.4,1.1,2.4,2.9v0.4H79.4z M82.4,199.2c-0.2-0.5-0.8-0.9-1.4-0.9s-1.2,0.3-1.4,0.9
		c-0.1,0.3-0.2,0.5-0.2,1h3.1C82.5,199.7,82.5,199.5,82.4,199.2z"/>
	<path class="st6" d="M88.8,203.5v-0.7c-0.5,0.6-1,0.8-1.7,0.8c-0.6,0-1.1-0.2-1.4-0.5c-0.6-0.6-0.7-1.6-0.7-2.5
		c0-0.9,0.1-1.9,0.7-2.5c0.3-0.3,0.8-0.5,1.4-0.5c0.6,0,1.2,0.1,1.7,0.8V195h0.9v8.5H88.8z M87.3,198.3c-1.3,0-1.5,1.1-1.5,2.3
		s0.2,2.3,1.5,2.3s1.5-1.1,1.5-2.3S88.6,198.3,87.3,198.3z"/>
	<path class="st6" d="M91.7,196v-1h1v1H91.7z M91.8,203.5v-5.9h0.9v5.9H91.8z"/>
	<path class="st6" d="M98.2,203.5V203c-0.5,0.5-0.9,0.6-1.7,0.6c-0.8,0-1.3-0.2-1.7-0.5c-0.3-0.3-0.4-0.7-0.4-1.2c0-1,0.7-1.7,2-1.7
		h1.8v-0.6c0-0.9-0.4-1.3-1.5-1.3c-0.8,0-1.1,0.2-1.5,0.7l-0.6-0.5c0.5-0.7,1.1-0.9,2.1-0.9c1.6,0,2.4,0.7,2.4,2v4H98.2z
		 M98.2,200.8h-1.7c-0.9,0-1.3,0.4-1.3,1s0.4,1,1.4,1c0.5,0,0.9,0,1.3-0.4c0.2-0.2,0.3-0.5,0.3-1V200.8z"/>
	<path class="st6" d="M105.2,198.3v5.2h-0.9v-5.2h-0.8v-0.7h0.8v-1.1c0-0.9,0.5-1.6,1.5-1.6h0.6v0.7H106c-0.6,0-0.8,0.3-0.8,0.9v1.1
		h1.3v0.7H105.2z M107.8,195.9V195h1v0.9H107.8z M107.8,203.5v-5.9h0.9v5.9H107.8z"/>
	<path class="st6" d="M112.3,203.5c-1,0-1.5-0.7-1.5-1.6v-7h0.9v6.9c0,0.6,0.2,0.9,0.8,0.9h0.5v0.7H112.3z"/>
	<path class="st6" d="M114.7,200.8c0,1.3,0.6,2,1.7,2c0.7,0,1.1-0.2,1.5-0.7l0.6,0.5c-0.6,0.6-1.2,0.9-2.2,0.9c-1.6,0-2.6-0.9-2.6-3
		c0-1.9,0.9-3,2.4-3c1.5,0,2.4,1.1,2.4,2.9v0.4H114.7z M117.6,199.2c-0.2-0.5-0.8-0.9-1.4-0.9c-0.6,0-1.2,0.3-1.4,0.9
		c-0.1,0.3-0.2,0.5-0.2,1h3.1C117.8,199.7,117.7,199.5,117.6,199.2z"/>
	<path class="st6" d="M122.4,203.6c-1,0-1.8-0.2-2.4-0.9l0.6-0.6c0.5,0.5,1.1,0.7,1.8,0.7c1,0,1.6-0.3,1.6-1c0-0.5-0.3-0.8-1-0.9
		l-1-0.1c-1.2-0.1-1.8-0.6-1.8-1.6c0-1.1,0.9-1.7,2.2-1.7c0.8,0,1.6,0.2,2.1,0.6l-0.6,0.6c-0.4-0.3-1-0.5-1.6-0.5
		c-0.9,0-1.3,0.4-1.3,1c0,0.5,0.3,0.8,1,0.9l0.9,0.1c1,0.1,1.7,0.5,1.7,1.6C124.8,202.9,123.8,203.6,122.4,203.6z"/>
</g>
<rect x="15.9" y="222" class="st7" width="172" height="43.3"/>
<g>
	<rect x="26.9" y="238.7" class="st5" width="118.9" height="18.3"/>
	<path class="st6" d="M28.1,247.2v-8.5H29v8.5H28.1z"/>
	<path class="st6" d="M34.9,247.2v-0.7c-0.5,0.6-1,0.8-1.7,0.8c-0.6,0-1.1-0.2-1.4-0.5c-0.6-0.6-0.7-1.6-0.7-2.5
		c0-0.9,0.1-1.9,0.7-2.5c0.3-0.3,0.8-0.5,1.4-0.5c0.6,0,1.2,0.1,1.7,0.8v-3.3h0.9v8.5H34.9z M33.4,242c-1.3,0-1.5,1.1-1.5,2.3
		s0.2,2.3,1.5,2.3s1.5-1.1,1.5-2.3S34.7,242,33.4,242z"/>
	<path class="st6" d="M38.4,244.5c0,1.3,0.6,2,1.7,2c0.7,0,1.1-0.2,1.5-0.7l0.6,0.5c-0.6,0.6-1.2,0.9-2.2,0.9c-1.6,0-2.6-0.9-2.6-3
		c0-1.9,0.9-3,2.4-3c1.5,0,2.4,1.1,2.4,2.9v0.4H38.4z M41.4,242.8c-0.2-0.5-0.8-0.9-1.4-0.9s-1.2,0.3-1.4,0.9
		c-0.1,0.3-0.2,0.5-0.2,1h3.1C41.5,243.3,41.5,243.2,41.4,242.8z"/>
	<path class="st6" d="M48,247.2v-3.6c0-1-0.6-1.6-1.5-1.6c-0.9,0-1.5,0.5-1.5,1.6v3.6h-0.9v-5.9h0.9v0.6c0.4-0.5,1-0.7,1.7-0.7
		c0.6,0,1.2,0.2,1.5,0.6c0.4,0.4,0.6,1,0.6,1.6v3.8H48z"/>
	<path class="st6" d="M52.6,247.2c-1,0-1.5-0.7-1.5-1.6V242h-0.7v-0.7h0.7v-1.8H52v1.8h1.3v0.7H52v3.6c0,0.5,0.3,0.9,0.8,0.9h0.5
		v0.7H52.6z"/>
	<path class="st6" d="M54.9,239.6v-1h1v1H54.9z M55,247.2v-5.9h0.9v5.9H55z"/>
	<path class="st6" d="M59.7,247.2c-1,0-1.5-0.7-1.5-1.6V242h-0.7v-0.7h0.7v-1.8H59v1.8h1.3v0.7H59v3.6c0,0.5,0.3,0.9,0.8,0.9h0.5
		v0.7H59.7z"/>
	<path class="st6" d="M63.4,248.6c-0.1,0.3-0.3,0.5-0.4,0.7c-0.3,0.3-0.7,0.4-1.2,0.4h-0.4V249h0.3c0.6,0,0.8-0.2,1-0.7l0.4-1.2
		l-2.1-5.8H62l1.6,4.7l1.6-4.7h0.9L63.4,248.6z"/>
</g>
<rect x="15.9" y="264.7" class="st7" width="172" height="43.3"/>
<g>
	<rect x="26.9" y="281.3" class="st5" width="142.9" height="17.3"/>
	<path class="st6" d="M30.8,289.9c-0.8,0-1.6-0.3-2.2-0.9c-0.8-0.8-0.8-1.6-0.8-3.5s0-2.7,0.8-3.5c0.6-0.6,1.3-0.9,2.2-0.9
		c1.5,0,2.7,0.9,3,2.5h-0.9c-0.2-1-1-1.7-2-1.7c-0.6,0-1.1,0.2-1.5,0.6c-0.5,0.6-0.6,1.1-0.6,2.9s0.1,2.4,0.6,2.9
		c0.4,0.4,0.9,0.6,1.5,0.6c1.1,0,1.8-0.7,2.1-1.7h0.9C33.5,289,32.3,289.9,30.8,289.9z"/>
	<path class="st6" d="M39.4,289.3c-0.4,0.4-1,0.7-1.7,0.7s-1.3-0.3-1.7-0.7c-0.6-0.6-0.7-1.4-0.7-2.4s0.1-1.7,0.7-2.4
		c0.4-0.4,1-0.7,1.7-0.7s1.3,0.3,1.7,0.7c0.6,0.6,0.7,1.4,0.7,2.4S40,288.7,39.4,289.3z M38.8,285.1c-0.3-0.3-0.7-0.4-1.1-0.4
		s-0.8,0.2-1.1,0.4c-0.4,0.4-0.5,1.2-0.5,1.8s0,1.4,0.5,1.8c0.3,0.3,0.6,0.4,1.1,0.4s0.8-0.2,1.1-0.4c0.4-0.4,0.5-1.2,0.5-1.8
		S39.2,285.5,38.8,285.1z"/>
	<path class="st6" d="M45.7,289.9v-3.6c0-1-0.6-1.6-1.5-1.6c-0.9,0-1.5,0.5-1.5,1.6v3.6H42V284h0.9v0.6c0.4-0.5,1-0.7,1.7-0.7
		c0.6,0,1.2,0.2,1.5,0.6c0.4,0.4,0.6,1,0.6,1.6v3.8H45.7z"/>
	<path class="st6" d="M50.4,289.9c-1,0-1.5-0.7-1.5-1.6v-3.6h-0.7V284h0.7v-1.8h0.9v1.8H51v0.7h-1.3v3.6c0,0.5,0.3,0.9,0.8,0.9H51
		v0.7H50.4z"/>
	<path class="st6" d="M55.9,289.9v-0.6c-0.5,0.5-0.9,0.6-1.7,0.6c-0.8,0-1.3-0.2-1.7-0.5c-0.3-0.3-0.4-0.7-0.4-1.2
		c0-1,0.7-1.7,2-1.7h1.8v-0.6c0-0.9-0.4-1.3-1.5-1.3c-0.8,0-1.1,0.2-1.5,0.7l-0.6-0.5c0.5-0.7,1.1-0.9,2.1-0.9c1.6,0,2.4,0.7,2.4,2
		v4H55.9z M55.9,287.1h-1.7c-0.9,0-1.3,0.4-1.3,1s0.4,1,1.4,1c0.5,0,0.9,0,1.3-0.4c0.2-0.2,0.3-0.5,0.3-1V287.1z"/>
	<path class="st6" d="M61.2,289.9c-1.5,0-2.6-1-2.6-3s1.1-3,2.6-3c0.8,0,1.3,0.2,1.9,0.9l-0.6,0.6c-0.4-0.5-0.8-0.7-1.4-0.7
		c-0.6,0-1.1,0.2-1.4,0.7c-0.3,0.4-0.4,0.8-0.4,1.6s0.1,1.2,0.4,1.6c0.3,0.4,0.8,0.7,1.4,0.7c0.6,0,0.9-0.2,1.4-0.7l0.6,0.6
		C62.5,289.7,62,289.9,61.2,289.9z"/>
	<path class="st6" d="M66.4,289.9c-1,0-1.5-0.7-1.5-1.6v-3.6h-0.7V284h0.7v-1.8h0.9v1.8H67v0.7h-1.3v3.6c0,0.5,0.3,0.9,0.8,0.9H67
		v0.7H66.4z"/>
	<path class="st6" d="M70.6,289.9c-1,0-1.8-0.2-2.4-0.9l0.6-0.6c0.5,0.5,1.1,0.7,1.8,0.7c1,0,1.6-0.3,1.6-1c0-0.5-0.3-0.8-1-0.9
		l-1-0.1c-1.2-0.1-1.8-0.6-1.8-1.6c0-1.1,0.9-1.7,2.2-1.7c0.8,0,1.6,0.2,2.1,0.6l-0.6,0.6c-0.4-0.3-1-0.5-1.6-0.5
		c-0.9,0-1.3,0.4-1.3,1c0,0.5,0.3,0.8,1,0.9l0.9,0.1c1,0.1,1.7,0.5,1.7,1.6C73,289.3,72.1,289.9,70.6,289.9z"/>
</g>
<g>
	<path class="st8" d="M177.4,344.9c0,3.1-2.6,5.7-5.7,5.7h-56.4c-3.1,0-5.7-2.6-5.7-5.7V328c0-3.1,2.6-5.7,5.7-5.7h56.4
		c3.1,0,5.7,2.6,5.7,5.7V344.9z"/>
</g>
<g>
	<path class="st9" d="M132.4,340.3l-0.6-1.7h-3.4l-0.6,1.7h-1.4l3.1-8.5h1l3.1,8.5H132.4z M130.1,333.7l-1.3,3.8h2.6L130.1,333.7z"
		/>
	<path class="st9" d="M137.2,340.4c-1.4,0-2.7-0.8-2.7-3.1s1.3-3.1,2.7-3.1c0.8,0,1.4,0.2,2,0.9l-0.8,0.8c-0.4-0.4-0.7-0.6-1.2-0.6
		c-0.5,0-0.9,0.2-1.1,0.5c-0.3,0.3-0.4,0.8-0.4,1.5s0.1,1.2,0.4,1.5c0.3,0.3,0.7,0.5,1.1,0.5c0.5,0,0.8-0.2,1.2-0.6l0.8,0.8
		C138.6,340.1,138.1,340.4,137.2,340.4z"/>
	<path class="st9" d="M142.8,340.4c-1.4,0-2.7-0.8-2.7-3.1s1.3-3.1,2.7-3.1c0.8,0,1.4,0.2,2,0.9l-0.8,0.8c-0.4-0.4-0.7-0.6-1.2-0.6
		c-0.5,0-0.9,0.2-1.1,0.5c-0.3,0.3-0.4,0.8-0.4,1.5s0.1,1.2,0.4,1.5c0.3,0.3,0.7,0.5,1.1,0.5c0.5,0,0.8-0.2,1.2-0.6l0.8,0.8
		C144.2,340.1,143.7,340.4,142.8,340.4z"/>
	<path class="st9" d="M146.9,337.6c0,1,0.6,1.7,1.5,1.7c0.7,0,1-0.2,1.5-0.6l0.8,0.7c-0.6,0.6-1.2,0.9-2.3,0.9
		c-1.5,0-2.7-0.8-2.7-3.1c0-2,1-3.1,2.6-3.1c1.6,0,2.6,1.2,2.6,2.9v0.5H146.9z M149.5,335.9c-0.2-0.5-0.6-0.8-1.2-0.8
		c-0.6,0-1,0.3-1.2,0.8c-0.1,0.3-0.1,0.5-0.2,0.8h2.7C149.6,336.4,149.6,336.2,149.5,335.9z"/>
	<path class="st9" d="M156.8,339.8c-0.3,0.3-0.9,0.5-1.5,0.5c-0.6,0-1.2-0.2-1.6-0.7v3.1h-1.2v-8.5h1.2v0.6c0.5-0.6,0.9-0.7,1.6-0.7
		c0.6,0,1.2,0.2,1.5,0.5c0.6,0.6,0.7,1.6,0.7,2.6S157.4,339.2,156.8,339.8z M155,335.2c-1.1,0-1.3,0.9-1.3,2s0.2,2,1.3,2
		s1.3-0.9,1.3-2S156.1,335.2,155,335.2z"/>
	<path class="st9" d="M160.9,340.3c-1.1,0-1.7-0.8-1.7-1.7v-3.3h-0.7v-0.9h0.7v-1.8h1.2v1.8h1.2v0.9h-1.2v3.3c0,0.4,0.2,0.7,0.7,0.7
		h0.5v1H160.9z"/>
</g>
<path class="st8" d="M173.2,164.4h-18.5c-4.1,0-7.4-3.3-7.4-7.4l0,0c0-4.1,3.3-7.4,7.4-7.4h18.5c4.1,0,7.4,3.3,7.4,7.4l0,0
	C180.6,161.1,177.3,164.4,173.2,164.4z"/>
<circle class="st10" cx="172.4" cy="157" r="6.3"/>
<path class="st10" d="M173.2,208.1h-18.5c-4.1,0-7.4-3.3-7.4-7.4l0,0c0-4.1,3.3-7.4,7.4-7.4h18.5c4.1,0,7.4,3.3,7.4,7.4l0,0
	C180.6,204.7,177.3,208.1,173.2,208.1z"/>
<circle class="st8" cx="154.5" cy="200.7" r="6.3"/>
<path class="st10" d="M173.2,250.7h-18.5c-4.1,0-7.4-3.3-7.4-7.4l0,0c0-4.1,3.3-7.4,7.4-7.4h18.5c4.1,0,7.4,3.3,7.4,7.4l0,0
	C180.6,247.4,177.3,250.7,173.2,250.7z"/>
<circle class="st8" cx="154.5" cy="243.3" r="6.3"/>
<path class="st10" d="M173.2,293.7h-18.5c-4.1,0-7.4-3.3-7.4-7.4l0,0c0-4.1,3.3-7.4,7.4-7.4h18.5c4.1,0,7.4,3.3,7.4,7.4l0,0
	C180.6,290.4,177.3,293.7,173.2,293.7z"/>
<circle class="st8" cx="154.5" cy="286.3" r="6.3"/>
<g id="hMBqw9_1_">
	<g>
		<path class="st11" d="M38.9,117.3c0-0.3-0.2-0.7-0.1-0.9c0.5-1.5,1-3.1,1.5-4.6c0.1-0.4,0.1-0.6-0.2-0.9c-2.1-2-4.2-3.9-6.3-5.9
			c-0.3-0.3-0.5-0.3-0.9-0.2c-1.7,0.6-3.4,1.2-5.1,1.7c-0.3,0.1-0.6-0.1-0.9-0.1c0-0.2,0-0.3,0-0.5c0.6-1.4,1.1-2.8,1.7-4.1
			c0.8-1.7,1.7-3.3,2.8-4.8c1.3-1.7,3-2.5,5.2-2.5c0.7,0,1.5,0,2.2,0.1c0.8,0.2,1.3-0.1,1.8-0.7c2.7-3.3,5.7-6.3,9.3-8.6
			c3.5-2.2,7.4-3.5,11.5-4c0.2,0,0.3-0.1,0.5-0.1c0.3,0,0.6,0,1,0c0.1,0.5,0.2,0.9,0.2,1.4c-0.4,5.8-2.7,10.8-6.4,15.2
			c-1.8,2.1-3.9,4.1-6,5.9c-0.3,0.3-0.4,0.5-0.3,0.9c0.1,1.2,0.3,2.4,0.3,3.6c0,1.5-0.6,2.7-1.6,3.7c-1.6,1.5-3.5,2.6-5.4,3.5
			c-1.2,0.6-2.5,1.1-3.8,1.6c-0.2,0.1-0.4,0.2-0.5,0.3C39.2,117.3,39.1,117.3,38.9,117.3z M49.7,105c-0.3,0.1-0.3,0.2-0.4,0.2
			c-2.5,1.9-5,3.8-7.5,5.7c-0.2,0.1-0.3,0.4-0.4,0.6c-0.5,1.4-0.9,2.7-1.3,4.1c0,0.1,0,0.3-0.1,0.5c1.3-0.5,2.4-1,3.5-1.6
			c1.8-0.9,3.6-1.8,5-3.3c0.7-0.7,1.3-1.6,1.3-2.7C49.8,107.5,49.7,106.3,49.7,105z M39.2,95.7c-0.6-0.1-1-0.1-1.5-0.1
			c-2.8-0.4-4.8,0.7-6.3,3c0,0,0,0,0,0c-1.3,2-2.3,4.2-3.1,6.5c0,0.1,0,0.2,0,0.3c0.5-0.2,1-0.3,1.4-0.5c1.2-0.4,2.5-0.6,3.5-1.3
			c1-0.7,1.6-2,2.3-3C36.7,99,37.9,97.4,39.2,95.7z"/>
		<path class="st12" d="M49.7,105c0,1.3,0.1,2.5,0.1,3.6c0,1.1-0.6,1.9-1.3,2.7c-1.4,1.4-3.2,2.4-5,3.3c-1.1,0.5-2.3,1-3.5,1.6
			c0-0.3,0.1-0.4,0.1-0.5c0.4-1.4,0.9-2.7,1.3-4.1c0.1-0.2,0.2-0.5,0.4-0.6c2.5-1.9,5-3.8,7.5-5.7C49.4,105.2,49.4,105.1,49.7,105z"
			/>
		<path class="st12" d="M39.2,95.7c-1.3,1.8-2.5,3.4-3.7,5c-0.8,1-1.4,2.3-2.3,3c-1,0.7-2.3,0.9-3.5,1.3c-0.5,0.2-0.9,0.3-1.4,0.5
			c0-0.1,0-0.2,0-0.3c0.9-2.2,1.8-4.5,3.1-6.5c0,0,0,0,0,0c1.4-2.4,3.5-3.4,6.3-3C38.2,95.6,38.6,95.6,39.2,95.7z"/>
	</g>
</g>
<circle class="st12" cx="53.9" cy="90.1" r="2.3"/>
<g>
</g>
<g>
</g>
<g>
</g>
<g>
</g>
<g>
</g>
<g>
</g>
</svg>
