<?xml version="1.0" encoding="utf-8"?>
<!-- Generator: Adobe Illustrator 16.0.0, SVG Export Plug-In . SVG Version: 6.00 Build 0)  -->
<!DOCTYPE svg PUBLIC "-//W3C//DTD SVG 1.1//EN" "http://www.w3.org/Graphics/SVG/1.1/DTD/svg11.dtd">
<svg version="1.1" id="Layer_1" xmlns="http://www.w3.org/2000/svg" xmlns:xlink="http://www.w3.org/1999/xlink" x="0px" y="0px"
	 width="841.889px" height="1190.551px" viewBox="0 0 841.889 1190.551" enable-background="new 0 0 841.889 1190.551"
	 xml:space="preserve">
<path fill="#FFFFFF" stroke="#1E1E1E" stroke-miterlimit="10" d="M699.945,1101.104c0,45.935-37.237,83.172-83.172,83.172H226.116
	c-45.936,0-83.173-37.237-83.173-83.172V88.448c0-45.935,37.237-83.172,83.173-83.172h390.655c45.935,0,83.172,37.237,83.172,83.172
	L699.945,1101.104L699.945,1101.104z"/>
<g>
	<path fill="#1E1E1E" d="M419.701,6.65c0,0,26.053-0.098,71.644-0.27c22.795-0.076,50.475-0.168,82.226-0.275
		c7.938-0.017,16.13-0.034,24.563-0.052c4.217-0.009,8.494-0.018,12.83-0.027c2.175,0.005,4.336-0.031,6.562,0.01
		c1.099,0.024,2.2,0.051,3.306,0.076c1.115,0.079,2.234,0.158,3.356,0.238c4.475,0.397,8.967,1.123,13.438,2.228
		c4.461,1.131,8.88,2.653,13.19,4.556c8.62,3.8,16.805,9.202,23.834,16.118c7.043,6.89,12.958,15.242,17.168,24.596
		c4.223,9.346,6.717,19.677,7.255,30.292c0.033,1.328,0.067,2.658,0.103,3.991c0.004,1.323,0.008,2.648,0.012,3.978
		c0.002,2.655,0.005,5.321,0.008,7.998c0.006,5.354,0.012,10.75,0.019,16.188c0.012,10.876,0.022,21.918,0.034,33.111
		c0.018,44.776,0.035,91.995,0.055,140.843c0.034,97.693,0.069,201.9,0.106,306.106c-0.036,104.207-0.071,208.414-0.105,306.108
		c-0.02,48.847-0.036,96.064-0.052,140.843c-0.014,11.193-0.024,22.234-0.036,33.111c-0.007,5.438-0.013,10.834-0.018,16.188
		c-0.043,5.354,0.138,10.652-0.358,15.982c-1.82,21.217-11.451,40.783-25.626,54.468c-7.06,6.87-15.161,12.371-23.773,16.214
		c-8.624,3.799-17.687,6.099-26.646,6.701c-4.487,0.353-8.897,0.23-13.225,0.238c-4.336-0.011-8.613-0.02-12.83-0.027
		c-8.434-0.018-16.626-0.035-24.562-0.052c-31.751-0.106-59.432-0.199-82.227-0.275c-45.591-0.172-71.643-0.27-71.643-0.27
		s26.052-0.099,71.643-0.271c22.795-0.076,50.476-0.169,82.227-0.275c7.938-0.017,16.13-0.033,24.562-0.052
		c4.217-0.009,8.494-0.018,12.83-0.026c4.342-0.026,8.736,0.074,13.128-0.276c8.813-0.611,17.719-2.896,26.189-6.646
		c8.459-3.797,16.413-9.223,23.339-15.991c13.91-13.479,23.334-32.752,25.076-53.582c0.477-5.168,0.291-10.511,0.318-15.859
		c-0.005-5.354-0.011-10.751-0.017-16.188c-0.012-10.876-0.023-21.918-0.036-33.111c-0.016-44.777-0.033-91.996-0.052-140.843
		c-0.034-97.694-0.07-201.901-0.106-306.108c0.037-104.207,0.073-208.414,0.107-306.106c0.019-48.848,0.037-96.066,0.054-140.842
		c0.012-11.194,0.023-22.236,0.035-33.112c0.006-5.438,0.012-10.834,0.018-16.188c0.003-2.677,0.006-5.343,0.009-7.998
		c-0.002-1.326-0.003-2.65-0.004-3.972c-0.029-1.31-0.061-2.618-0.091-3.922c-0.507-10.429-2.935-20.577-7.062-29.763
		c-4.114-9.194-9.905-17.41-16.812-24.194c-6.893-6.81-14.926-12.137-23.396-15.893c-4.236-1.881-8.58-3.389-12.968-4.511
		c-4.396-1.096-8.826-1.819-13.22-2.22c-1.098-0.081-2.191-0.161-3.283-0.241c-1.104-0.027-2.206-0.056-3.306-0.084
		c-2.165-0.045-4.371-0.021-6.532-0.034c-4.336-0.009-8.612-0.018-12.83-0.026c-8.434-0.019-16.626-0.035-24.562-0.052
		C541.82,7.089,514.14,6.996,491.345,6.92C445.754,6.748,419.701,6.65,419.701,6.65z"/>
</g>
<path fill="#FFFFFF" stroke="#1E1E1E" stroke-miterlimit="10" d="M142.388,88.428c0-45.936,37.236-83.172,83.171-83.172"/>
<path fill="#FFFFFF" stroke="#1E1E1E" stroke-miterlimit="10" d="M225.083,1184.192c-45.936,0-82.695-37.238-82.695-83.17"/>
<rect x="178.945" y="175.276" fill="#C1C1C1" stroke="#575756" stroke-miterlimit="10" width="480" height="844"/>
<rect x="189.445" y="276.776" fill="#FFFFFF" width="462" height="730"/>
<g>
	<path fill="#FFFFFF" stroke="#1E1E1E" stroke-miterlimit="10" d="M472.067,1095.229c0,26.275-21.304,47.582-47.585,47.582
		c-26.278,0-47.582-21.307-47.582-47.582c0-26.281,21.304-47.588,47.582-47.588C450.763,1047.641,472.067,1068.948,472.067,1095.229
		z"/>
</g>
<g>
	<g>
		<path fill="#1E1E1E" d="M424.482,1047.641c0,0,0.584,0.011,1.679,0.031c0.549,0.01,1.224,0.021,2.018,0.036
			c0.396,0.013,0.824,0.004,1.277,0.034c0.453,0.059,0.936,0.119,1.443,0.186c1.018,0.137,2.152,0.26,3.379,0.449
			c1.208,0.279,2.516,0.583,3.911,0.906c1.39,0.354,2.812,0.921,4.348,1.415c0.78,0.224,1.505,0.634,2.281,0.971
			c0.771,0.354,1.56,0.719,2.363,1.09c0.791,0.397,1.554,0.89,2.355,1.345c0.782,0.486,1.642,0.894,2.404,1.473
			c1.532,1.144,3.213,2.216,4.685,3.632c3.146,2.604,5.937,5.938,8.456,9.604c0.587,0.948,1.178,1.905,1.771,2.869
			c0.585,0.97,1.027,2.026,1.552,3.049l0.761,1.552l0.616,1.625c0.39,1.096,0.848,2.174,1.173,3.299
			c1.358,4.5,1.988,9.256,2.11,14.021l-0.185,3.548c-0.05,0.586-0.023,1.156-0.133,1.754l-0.271,1.78l-0.275,1.775l-0.138,0.886
			l-0.219,0.858c-0.297,1.145-0.594,2.283-0.889,3.419c-0.324,1.125-0.785,2.204-1.171,3.301l-0.616,1.625l-0.762,1.552
			c-0.523,1.021-0.967,2.079-1.552,3.049c-0.595,0.964-1.187,1.92-1.772,2.869c-2.521,3.667-5.31,7.002-8.455,9.604
			c-1.473,1.417-3.153,2.487-4.686,3.633c-0.764,0.578-1.622,0.985-2.405,1.473c-0.803,0.455-1.564,0.946-2.355,1.345
			c-0.806,0.371-1.593,0.734-2.363,1.089c-0.776,0.337-1.501,0.748-2.281,0.971c-1.536,0.494-2.958,1.062-4.349,1.414
			c-1.396,0.324-2.702,0.627-3.91,0.906c-1.225,0.188-2.356,0.312-3.373,0.448c-0.509,0.065-0.988,0.127-1.441,0.185
			c-0.455,0.031-0.886,0.023-1.282,0.035c-0.796,0.016-1.474,0.027-2.021,0.037c-1.094,0.021-1.678,0.03-1.678,0.03
			s0.582-0.048,1.675-0.139c0.544-0.046,1.216-0.103,2.006-0.167c0.395-0.036,0.818-0.06,1.27-0.114
			c0.446-0.079,0.921-0.163,1.423-0.253c1.001-0.186,2.114-0.359,3.312-0.604c1.179-0.334,2.451-0.693,3.812-1.079
			c1.35-0.411,2.723-1.04,4.199-1.595c0.749-0.256,1.448-0.68,2.194-1.036c0.74-0.372,1.497-0.754,2.271-1.143
			c0.758-0.415,1.485-0.922,2.252-1.392c0.746-0.502,1.565-0.923,2.289-1.514c1.451-1.166,3.062-2.229,4.453-3.646
			c2.987-2.597,5.585-5.897,7.976-9.453c2.366-3.601,4.11-7.715,5.498-11.99c0.277-1.091,0.558-2.187,0.836-3.285l0.206-0.823
			l0.124-0.834l0.251-1.671l0.254-1.672c0.104-0.551,0.076-1.155,0.121-1.73l0.167-3.447c-0.099-4.572-0.676-9.137-1.958-13.464
			c-1.386-4.276-3.132-8.391-5.498-11.991c-2.391-3.556-4.985-6.858-7.976-9.453c-1.389-1.416-3.002-2.479-4.453-3.646
			c-0.723-0.59-1.543-1.011-2.289-1.513c-0.766-0.47-1.494-0.977-2.252-1.392c-0.772-0.39-1.529-0.771-2.27-1.143
			c-0.748-0.355-1.446-0.781-2.194-1.037c-1.479-0.554-2.852-1.183-4.2-1.594c-1.36-0.386-2.634-0.745-3.811-1.078
			c-1.196-0.243-2.307-0.417-3.307-0.604c-0.502-0.089-0.976-0.173-1.422-0.252c-0.451-0.057-0.878-0.078-1.273-0.114
			c-0.791-0.065-1.464-0.121-2.01-0.166C425.064,1047.689,424.482,1047.641,424.482,1047.641z"/>
	</g>
	<path fill="#FFFFFF" stroke="#1E1E1E" stroke-miterlimit="10" d="M424.482,1142.811c-26.278,0-47.582-21.307-47.582-47.582
		c0-26.281,21.304-47.588,47.582-47.588"/>
</g>
<circle fill="#1E1E1E" stroke="#FFFFFF" stroke-miterlimit="10" cx="423.113" cy="67.163" r="8.848"/>
<path fill="#1E1E1E" stroke="#FFFFFF" stroke-miterlimit="10" d="M486.662,99.07H360.714c-2.683,0-4.877-2.195-4.877-4.877l0,0
	c0-2.684,2.194-4.877,4.877-4.877h125.948c2.685,0,4.877,2.194,4.877,4.877l0,0C491.539,96.874,489.347,99.07,486.662,99.07z"/>
<rect x="203.734" y="366.238" fill="#D9D9D9" width="354.626" height="31.981"/>
<rect x="203.734" y="430.286" fill="#D9D9D9" width="431.82" height="445.933"/>
<rect x="203.734" y="317.481" fill="#D9D9D9" width="396.218" height="31.981"/>
<rect x="203.734" y="914.008" fill="#D9D9D9" width="436.312" height="31.979"/>
<rect x="220.41" y="448.637" fill="#FFFFFF" stroke="#575756" stroke-miterlimit="10" width="394.54" height="359.062"/>
<g>
	<path fill="#1D1D1B" d="M270.349,485.338v23.958h-3.083v-23.958H270.349z"/>
	<path fill="#1D1D1B" d="M276.631,504.925v-10.457h-2.81v-2.498h2.81v-4.565h2.927v4.565h4.175v2.498h-4.175v10.145
		c0,1.613,0.768,2.419,2.302,2.419c0.807,0,1.562-0.233,2.264-0.702v2.731c-0.729,0.39-1.64,0.585-2.731,0.585
		c-1.457,0-2.614-0.396-3.473-1.19C277.06,507.662,276.631,506.486,276.631,504.925z"/>
	<path fill="#1D1D1B" d="M299.593,485.414c0.376,0.365,0.565,0.808,0.565,1.327c0,0.521-0.189,0.963-0.565,1.327
		c-0.377,0.365-0.826,0.546-1.346,0.546c-0.521,0-0.963-0.182-1.327-0.546c-0.365-0.364-0.546-0.806-0.546-1.327
		c0-0.52,0.182-0.962,0.546-1.327c0.364-0.363,0.806-0.546,1.327-0.546C298.767,484.868,299.216,485.052,299.593,485.414z
		 M299.729,491.97v17.325h-2.926V491.97H299.729z"/>
	<path fill="#1D1D1B" d="M303.514,504.534h3.043c0.546,1.77,1.912,2.653,4.097,2.653c1.066,0,1.925-0.215,2.575-0.644
		c0.65-0.43,0.976-1.073,0.976-1.932c0-1.171-0.857-1.977-2.574-2.419l-3.435-0.896c-2.783-0.702-4.175-2.225-4.175-4.565
		c0-1.508,0.585-2.738,1.756-3.688s2.653-1.425,4.448-1.425c1.873,0,3.381,0.43,4.526,1.288c1.144,0.858,1.872,2.068,2.185,3.629
		h-2.927c-0.521-1.639-1.794-2.458-3.824-2.458c-0.911,0-1.691,0.214-2.341,0.645c-0.65,0.429-0.976,1.047-0.976,1.854
		c0,0.572,0.188,1.021,0.565,1.347s0.995,0.604,1.854,0.839l3.356,0.818c2.938,0.78,4.409,2.395,4.409,4.839
		c0,1.612-0.6,2.888-1.795,3.823c-1.197,0.938-2.745,1.405-4.645,1.405c-1.898,0-3.492-0.455-4.779-1.366
		C304.548,507.369,303.774,506.121,303.514,504.534z"/>
	<path fill="#1D1D1B" d="M334.845,515.928h-2.888l2.614-6.517l-6.75-17.441h3.161l5.112,13.657l5.033-13.657h3.043L334.845,515.928z
		"/>
	<path fill="#1D1D1B" d="M359.642,494.136c1.469,1.678,2.205,3.844,2.205,6.497c0,2.652-0.735,4.818-2.205,6.497
		c-1.47,1.678-3.389,2.517-5.755,2.517c-2.368,0-4.286-0.839-5.755-2.517c-1.471-1.679-2.205-3.844-2.205-6.497
		c0-2.654,0.733-4.819,2.205-6.497c1.469-1.679,3.388-2.518,5.755-2.518S358.172,492.458,359.642,494.136z M357.534,505.296
		c0.897-1.184,1.347-2.737,1.347-4.663c0-1.925-0.449-3.479-1.347-4.663c-0.896-1.184-2.112-1.775-3.647-1.775
		s-2.751,0.592-3.648,1.775c-0.896,1.184-1.346,2.738-1.346,4.663s0.449,3.479,1.346,4.663c0.897,1.184,2.113,1.774,3.648,1.774
		S356.638,506.48,357.534,505.296z"/>
	<path fill="#1D1D1B" d="M379.639,491.97v17.325h-2.966v-2.186c-0.521,0.729-1.224,1.333-2.107,1.814
		c-0.885,0.48-1.86,0.722-2.926,0.722c-1.925,0-3.414-0.572-4.468-1.717c-1.055-1.146-1.58-2.68-1.58-4.604V491.97h2.965v10.887
		c0,1.275,0.312,2.276,0.937,3.004c0.624,0.729,1.573,1.092,2.849,1.092c0.987,0,1.879-0.298,2.673-0.896
		c0.793-0.598,1.346-1.378,1.658-2.341V491.97H379.639z"/>
	<path fill="#1D1D1B" d="M393.725,491.893v3.004c-0.468-0.312-1.119-0.468-1.951-0.468c-0.937,0-1.769,0.287-2.497,0.857
		c-0.729,0.572-1.235,1.366-1.521,2.381v11.628h-2.927V491.97h2.927v2.263c0.391-0.754,0.969-1.378,1.735-1.873
		c0.768-0.494,1.62-0.742,2.557-0.742C392.802,491.618,393.361,491.711,393.725,491.893z"/>
	<path fill="#1D1D1B" d="M414.639,483.972v2.652c-0.494-0.312-1.105-0.468-1.834-0.468c-0.885,0-1.58,0.273-2.087,0.819
		c-0.509,0.546-0.763,1.327-0.763,2.341v2.653h3.902v2.498h-3.902v14.827h-2.887v-14.827h-2.927v-2.498h2.927v-2.887
		c0-1.69,0.493-3.03,1.482-4.02c0.987-0.988,2.264-1.482,3.824-1.482C413.26,483.581,414.015,483.712,414.639,483.972z"/>
	<path fill="#1D1D1B" d="M429.447,494.136c1.47,1.678,2.204,3.844,2.204,6.497c0,2.652-0.734,4.818-2.204,6.497
		c-1.47,1.678-3.389,2.517-5.756,2.517s-4.285-0.839-5.755-2.517c-1.47-1.679-2.205-3.844-2.205-6.497
		c0-2.654,0.735-4.819,2.205-6.497c1.47-1.679,3.388-2.518,5.755-2.518S427.977,492.458,429.447,494.136z M427.339,505.296
		c0.896-1.184,1.347-2.737,1.347-4.663c0-1.925-0.449-3.479-1.347-4.663s-2.113-1.775-3.648-1.775s-2.75,0.592-3.647,1.775
		c-0.896,1.184-1.347,2.738-1.347,4.663s0.449,3.479,1.347,4.663c0.897,1.184,2.112,1.774,3.647,1.774
		S426.442,506.48,427.339,505.296z"/>
	<path fill="#1D1D1B" d="M449.444,491.97v17.325h-2.965v-2.186c-0.521,0.729-1.224,1.333-2.107,1.814
		c-0.885,0.48-1.859,0.722-2.927,0.722c-1.925,0-3.414-0.572-4.468-1.717c-1.053-1.146-1.58-2.68-1.58-4.604V491.97h2.966v10.887
		c0,1.275,0.312,2.276,0.938,3.004c0.624,0.729,1.573,1.092,2.849,1.092c0.988,0,1.879-0.298,2.673-0.896
		c0.793-0.598,1.347-1.378,1.658-2.341V491.97H449.444z"/>
	<path fill="#1D1D1B" d="M463.53,491.893v3.004c-0.469-0.312-1.119-0.468-1.951-0.468c-0.937,0-1.77,0.287-2.496,0.857
		c-0.729,0.572-1.236,1.366-1.521,2.381v11.628h-2.927V491.97h2.927v2.263c0.39-0.754,0.969-1.378,1.736-1.873
		c0.767-0.494,1.619-0.742,2.556-0.742C462.606,491.618,463.164,491.711,463.53,491.893z"/>
	<path fill="#1D1D1B" d="M467.978,504.925v-10.457h-2.81v-2.498h2.81v-4.565h2.927v4.565h4.175v2.498h-4.175v10.145
		c0,1.613,0.768,2.419,2.303,2.419c0.806,0,1.561-0.233,2.264-0.702v2.731c-0.729,0.39-1.641,0.585-2.731,0.585
		c-1.457,0-2.614-0.396-3.473-1.19C468.406,507.662,467.978,506.486,467.978,504.925z"/>
	<path fill="#1D1D1B" d="M479.527,509.295v-25.362h2.927v10.223c0.547-0.728,1.269-1.333,2.165-1.813
		c0.897-0.481,1.88-0.723,2.946-0.723c1.925,0,3.42,0.573,4.487,1.718c1.065,1.145,1.6,2.68,1.6,4.604v11.354h-2.966v-10.887
		c0-1.249-0.318-2.243-0.956-2.984c-0.638-0.742-1.594-1.112-2.867-1.112c-1.015,0-1.926,0.306-2.73,0.917
		c-0.808,0.611-1.366,1.385-1.679,2.322v11.745L479.527,509.295L479.527,509.295z"/>
	<path fill="#1D1D1B" d="M508.049,504.925v-10.457h-2.811v-2.498h2.811v-4.565h2.927v4.565h4.175v2.498h-4.175v10.145
		c0,1.613,0.767,2.419,2.302,2.419c0.807,0,1.562-0.233,2.264-0.702v2.731c-0.729,0.39-1.64,0.585-2.73,0.585
		c-1.457,0-2.614-0.396-3.473-1.19C508.479,507.662,508.049,506.486,508.049,504.925z"/>
	<path fill="#1D1D1B" d="M522.388,485.414c0.377,0.365,0.564,0.808,0.564,1.327c0,0.521-0.188,0.963-0.564,1.327
		c-0.378,0.365-0.826,0.546-1.347,0.546c-0.521,0-0.963-0.182-1.326-0.546c-0.364-0.364-0.546-0.806-0.546-1.327
		c0-0.52,0.182-0.962,0.546-1.327c0.363-0.363,0.806-0.546,1.326-0.546C521.561,484.868,522.01,485.052,522.388,485.414z
		 M522.525,491.97v17.325h-2.927V491.97H522.525z"/>
	<path fill="#1D1D1B" d="M540.044,494.39c1.301-1.847,3.057-2.771,5.268-2.771c1.742,0,3.089,0.561,4.038,1.679
		s1.425,2.628,1.425,4.525v11.473h-2.966v-11.003c0-1.249-0.272-2.23-0.819-2.946c-0.546-0.715-1.364-1.073-2.458-1.073
		c-0.885,0-1.678,0.28-2.38,0.839c-0.703,0.561-1.185,1.308-1.443,2.244v11.94h-2.927v-11.003c0-1.249-0.272-2.23-0.818-2.946
		c-0.547-0.715-1.366-1.073-2.459-1.073c-0.886,0-1.679,0.28-2.38,0.839c-0.702,0.561-1.185,1.308-1.443,2.244v11.94h-2.927V491.97
		h2.927v2.029c0.988-1.586,2.549-2.38,4.682-2.38C537.547,491.618,539.108,492.543,540.044,494.39z"/>
	<path fill="#1D1D1B" d="M566.656,504.106h2.771c-0.312,1.691-1.079,3.037-2.303,4.039c-1.223,1.002-2.783,1.502-4.683,1.502
		c-2.367,0-4.285-0.825-5.755-2.478s-2.205-3.817-2.205-6.497c0-2.627,0.729-4.793,2.186-6.497c1.456-1.703,3.355-2.557,5.696-2.557
		c2.315,0,4.11,0.774,5.385,2.322s1.912,3.609,1.912,6.186v1.053h-12.252c0.025,1.82,0.501,3.271,1.424,4.351
		c0.925,1.08,2.128,1.619,3.609,1.619c1.093,0,2.01-0.267,2.751-0.8S566.421,505.068,566.656,504.106z M562.402,494.116
		c-1.301,0-2.394,0.43-3.276,1.288c-0.886,0.858-1.432,2.042-1.64,3.551h9.209c-0.025-1.379-0.403-2.529-1.132-3.453
		S563.781,494.116,562.402,494.116z"/>
	<path fill="#1D1D1B" d="M295.165,538.793v17.324h-2.966v-2.185c-0.521,0.729-1.224,1.333-2.107,1.814
		c-0.885,0.48-1.86,0.722-2.926,0.722c-1.925,0-3.414-0.572-4.468-1.717c-1.055-1.146-1.58-2.68-1.58-4.604v-11.354h2.965v10.887
		c0,1.275,0.312,2.276,0.937,3.004c0.624,0.729,1.573,1.092,2.849,1.092c0.987,0,1.879-0.298,2.673-0.896
		c0.793-0.599,1.346-1.378,1.658-2.341v-11.745H295.165L295.165,538.793z"/>
	<path fill="#1D1D1B" d="M298.911,551.358h3.043c0.546,1.769,1.912,2.653,4.097,2.653c1.065,0,1.925-0.215,2.575-0.645
		c0.649-0.429,0.976-1.072,0.976-1.931c0-1.171-0.858-1.978-2.575-2.419l-3.434-0.897c-2.784-0.702-4.175-2.224-4.175-4.564
		c0-1.508,0.585-2.738,1.756-3.688c1.171-0.948,2.653-1.424,4.448-1.424c1.872,0,3.381,0.429,4.525,1.288
		c1.145,0.858,1.873,2.068,2.186,3.629h-2.928c-0.521-1.639-1.794-2.458-3.823-2.458c-0.911,0-1.691,0.214-2.341,0.645
		c-0.65,0.429-0.976,1.047-0.976,1.854c0,0.572,0.188,1.021,0.565,1.346c0.377,0.326,0.995,0.605,1.854,0.84l3.356,0.818
		c2.938,0.78,4.408,2.395,4.408,4.838c0,1.613-0.599,2.889-1.795,3.824c-1.196,0.938-2.745,1.405-4.644,1.405
		c-1.899,0-3.492-0.455-4.78-1.366C299.945,554.193,299.171,552.945,298.911,551.358z"/>
	<path fill="#1D1D1B" d="M319.298,532.238c0.376,0.365,0.564,0.808,0.564,1.327c0,0.521-0.188,0.963-0.564,1.327
		c-0.377,0.365-0.826,0.546-1.347,0.546s-0.963-0.182-1.326-0.546c-0.365-0.364-0.547-0.806-0.547-1.327
		c0-0.52,0.183-0.962,0.547-1.327c0.363-0.364,0.806-0.546,1.326-0.546S318.921,531.874,319.298,532.238z M319.434,538.793v17.324
		h-2.926v-17.324H319.434z"/>
	<path fill="#1D1D1B" d="M324.662,556.117v-17.325h2.927v2.186c0.546-0.729,1.269-1.333,2.166-1.814
		c0.896-0.48,1.879-0.722,2.945-0.722c1.925,0,3.42,0.573,4.487,1.717c1.066,1.146,1.6,2.681,1.6,4.604v11.354h-2.965v-10.886
		c0-1.249-0.318-2.244-0.956-2.985s-1.594-1.111-2.868-1.111c-1.014,0-1.925,0.306-2.73,0.917c-0.807,0.61-1.366,1.385-1.678,2.321
		v11.745H324.662z"/>
	<path fill="#1D1D1B" d="M355.097,554.948v-1.288c-0.468,0.65-1.138,1.203-2.009,1.658c-0.872,0.456-1.814,0.684-2.829,0.684
		c-2.419,0-4.318-0.858-5.697-2.575c-1.379-1.718-2.068-3.785-2.068-6.204c0-2.445,0.689-4.521,2.068-6.225
		c1.378-1.702,3.278-2.556,5.697-2.556c1.015,0,1.957,0.221,2.829,0.664c0.871,0.442,1.541,0.989,2.009,1.639v-1.95h2.965v15.959
		c0,2.757-0.709,4.845-2.126,6.263c-1.418,1.417-3.284,2.126-5.599,2.126c-2.082,0-3.766-0.507-5.054-1.522
		c-1.288-1.014-2.075-2.419-2.36-4.214h2.887c0.494,2.159,2.003,3.239,4.526,3.239C353.51,560.644,355.097,558.744,355.097,554.948z
		 M355.097,550.655v-6.905c-0.989-1.796-2.458-2.692-4.409-2.692c-1.613,0-2.881,0.573-3.804,1.717
		c-0.924,1.146-1.386,2.628-1.386,4.448s0.462,3.297,1.386,4.429c0.923,1.132,2.19,1.697,3.804,1.697
		C352.639,553.347,354.109,552.449,355.097,550.655z"/>
	<path fill="#1D1D1B" d="M372.734,551.747V541.29h-2.809v-2.497h2.809v-4.565h2.927v4.565h4.176v2.497h-4.176v10.146
		c0,1.613,0.768,2.419,2.303,2.419c0.806,0,1.561-0.234,2.263-0.702v2.731c-0.729,0.39-1.639,0.585-2.731,0.585
		c-1.457,0-2.613-0.396-3.473-1.19C373.162,554.486,372.734,553.308,372.734,551.747z"/>
	<path fill="#1D1D1B" d="M384.282,556.117v-25.361h2.927v10.223c0.546-0.728,1.269-1.333,2.165-1.814
		c0.897-0.48,1.88-0.722,2.946-0.722c1.925,0,3.42,0.573,4.487,1.717c1.067,1.146,1.6,2.681,1.6,4.604v11.354h-2.966v-10.886
		c0-1.249-0.319-2.244-0.956-2.985c-0.638-0.741-1.594-1.111-2.868-1.111c-1.014,0-1.925,0.306-2.73,0.917
		c-0.808,0.61-1.366,1.385-1.678,2.322v11.744L384.282,556.117L384.282,556.117z"/>
	<path fill="#1D1D1B" d="M406.154,532.238c0.377,0.365,0.565,0.808,0.565,1.327c0,0.521-0.188,0.963-0.565,1.327
		c-0.378,0.365-0.826,0.546-1.347,0.546c-0.521,0-0.962-0.182-1.326-0.546s-0.546-0.806-0.546-1.327c0-0.52,0.182-0.962,0.546-1.327
		c0.364-0.364,0.806-0.546,1.326-0.546C405.326,531.692,405.776,531.874,406.154,532.238z M406.289,538.793v17.324h-2.927v-17.324
		H406.289z"/>
	<path fill="#1D1D1B" d="M410.074,551.358h3.043c0.547,1.769,1.912,2.653,4.099,2.653c1.064,0,1.924-0.215,2.575-0.645
		c0.648-0.429,0.976-1.072,0.976-1.931c0-1.171-0.859-1.978-2.576-2.419l-3.434-0.897c-2.783-0.702-4.175-2.224-4.175-4.564
		c0-1.508,0.585-2.738,1.756-3.688c1.171-0.948,2.652-1.424,4.447-1.424c1.873,0,3.382,0.429,4.526,1.288
		c1.146,0.858,1.873,2.068,2.185,3.629h-2.926c-0.521-1.639-1.795-2.458-3.824-2.458c-0.91,0-1.69,0.214-2.341,0.645
		c-0.649,0.429-0.976,1.047-0.976,1.854c0,0.572,0.188,1.021,0.564,1.346c0.377,0.326,0.995,0.605,1.854,0.84l3.354,0.818
		c2.939,0.78,4.409,2.395,4.409,4.838c0,1.613-0.599,2.889-1.795,3.824c-1.196,0.938-2.744,1.405-4.643,1.405
		c-1.899,0-3.492-0.455-4.78-1.366C411.109,554.193,410.334,552.945,410.074,551.358z"/>
	<path fill="#1D1D1B" d="M447.299,538.793l3.55,13.228l3.824-13.228h2.849l-5.111,17.324h-2.849l-3.59-13.148l-3.629,13.148h-2.85
		l-5.11-17.324h2.927l3.824,13.228l3.55-13.228H447.299z"/>
	<path fill="#1D1D1B" d="M471.764,550.928h2.77c-0.312,1.69-1.079,3.037-2.302,4.039s-2.784,1.502-4.683,1.502
		c-2.367,0-4.285-0.825-5.756-2.479c-1.47-1.651-2.204-3.816-2.204-6.497c0-2.627,0.729-4.793,2.186-6.497
		c1.456-1.702,3.355-2.556,5.696-2.556c2.314,0,4.109,0.774,5.385,2.322c1.274,1.548,1.912,3.608,1.912,6.185V548h-12.252
		c0.025,1.821,0.501,3.272,1.424,4.352c0.924,1.08,2.127,1.619,3.609,1.619c1.093,0,2.01-0.268,2.751-0.8
		C471.041,552.638,471.53,551.891,471.764,550.928z M467.51,540.94c-1.301,0-2.395,0.429-3.277,1.288
		c-0.885,0.858-1.431,2.042-1.639,3.551h9.209c-0.026-1.379-0.404-2.529-1.132-3.454C469.943,541.402,468.889,540.94,467.51,540.94z
		"/>
	<path fill="#1D1D1B" d="M481.596,554.089v2.028h-2.966v-25.361h2.966v10.066c0.468-0.676,1.145-1.242,2.027-1.696
		c0.886-0.455,1.834-0.684,2.85-0.684c2.445,0,4.355,0.865,5.736,2.595c1.378,1.73,2.066,3.87,2.066,6.419
		c0,2.575-0.688,4.722-2.066,6.438c-1.381,1.717-3.291,2.575-5.736,2.575c-1.016,0-1.964-0.229-2.85-0.684
		C482.74,555.33,482.064,554.766,481.596,554.089z M481.596,543.944v7.023c0.44,0.884,1.06,1.58,1.854,2.087
		c0.793,0.507,1.658,0.761,2.596,0.761c1.611,0,2.894-0.591,3.843-1.775c0.949-1.183,1.425-2.712,1.425-4.584
		c0-1.873-0.476-3.4-1.425-4.585c-0.949-1.183-2.23-1.774-3.843-1.774c-0.938,0-1.803,0.254-2.596,0.761
		C482.656,542.364,482.036,543.06,481.596,543.944z"/>
	<path fill="#1D1D1B" d="M496.814,551.358h3.043c0.547,1.769,1.912,2.653,4.098,2.653c1.065,0,1.925-0.215,2.575-0.645
		c0.649-0.429,0.977-1.072,0.977-1.931c0-1.171-0.859-1.978-2.576-2.419l-3.435-0.897c-2.782-0.702-4.175-2.224-4.175-4.564
		c0-1.508,0.585-2.738,1.756-3.688c1.172-0.948,2.653-1.424,4.448-1.424c1.873,0,3.381,0.429,4.526,1.288
		c1.145,0.858,1.873,2.068,2.185,3.629h-2.926c-0.521-1.639-1.795-2.458-3.824-2.458c-0.911,0-1.69,0.214-2.341,0.645
		c-0.65,0.429-0.976,1.047-0.976,1.854c0,0.572,0.188,1.021,0.564,1.346c0.377,0.326,0.995,0.605,1.854,0.84l3.354,0.818
		c2.939,0.78,4.409,2.395,4.409,4.838c0,1.613-0.599,2.889-1.795,3.824c-1.196,0.938-2.744,1.405-4.643,1.405
		c-1.899,0-3.492-0.455-4.78-1.366C497.847,554.193,497.073,552.945,496.814,551.358z"/>
	<path fill="#1D1D1B" d="M517.199,532.238c0.377,0.365,0.565,0.808,0.565,1.327c0,0.521-0.188,0.963-0.565,1.327
		c-0.378,0.365-0.826,0.546-1.347,0.546s-0.962-0.182-1.326-0.546s-0.546-0.806-0.546-1.327c0-0.52,0.182-0.962,0.546-1.327
		c0.364-0.364,0.807-0.546,1.326-0.546S516.823,531.874,517.199,532.238z M517.337,538.793v17.324h-2.928v-17.324H517.337z"/>
	<path fill="#1D1D1B" d="M523.385,551.747V541.29h-2.811v-2.497h2.811v-4.565h2.927v4.565h4.175v2.497h-4.175v10.146
		c0,1.613,0.767,2.419,2.302,2.419c0.807,0,1.562-0.234,2.265-0.702v2.731c-0.729,0.39-1.641,0.585-2.731,0.585
		c-1.457,0-2.614-0.396-3.473-1.19C523.815,554.486,523.385,553.308,523.385,551.747z"/>
	<path fill="#1D1D1B" d="M545.664,550.928h2.771c-0.312,1.69-1.079,3.037-2.302,4.039c-1.224,1.002-2.784,1.502-4.684,1.502
		c-2.367,0-4.285-0.825-5.755-2.479c-1.47-1.651-2.205-3.816-2.205-6.497c0-2.627,0.729-4.793,2.187-6.497
		c1.456-1.702,3.354-2.556,5.695-2.556c2.315,0,4.11,0.774,5.386,2.322c1.273,1.548,1.911,3.608,1.911,6.185V548h-12.252
		c0.025,1.821,0.501,3.272,1.425,4.352c0.924,1.08,2.127,1.619,3.608,1.619c1.094,0,2.01-0.268,2.751-0.8
		C544.942,552.638,545.431,551.891,545.664,550.928z M541.41,540.94c-1.301,0-2.394,0.429-3.276,1.288
		c-0.886,0.858-1.432,2.042-1.64,3.551h9.209c-0.025-1.379-0.403-2.529-1.132-3.454C543.844,541.402,542.789,540.94,541.41,540.94z"
		/>
	<path fill="#1D1D1B" d="M551.81,555.708c-0.403-0.403-0.604-0.904-0.604-1.503c0-0.598,0.201-1.104,0.604-1.521
		s0.903-0.625,1.502-0.625c0.572,0,1.06,0.208,1.464,0.625c0.402,0.417,0.604,0.923,0.604,1.521c0,0.6-0.202,1.101-0.604,1.503
		c-0.404,0.403-0.892,0.604-1.464,0.604C552.713,556.313,552.213,556.112,551.81,555.708z"/>
	<path fill="#1D1D1B" d="M322.242,578.983h2.458l5.073,19.042l4.916-19.042h2.966l-6.359,23.958h-2.811l-5.033-18.689l-5.11,18.689
		h-2.771l-6.359-23.958h3.043l4.917,19.042L322.242,578.983z"/>
	<path fill="#1D1D1B" d="M352.503,587.781c1.469,1.678,2.204,3.844,2.204,6.497s-0.734,4.818-2.204,6.496
		c-1.471,1.679-3.39,2.519-5.756,2.519c-2.367,0-4.285-0.84-5.755-2.519c-1.47-1.678-2.205-3.843-2.205-6.496
		c0-2.652,0.734-4.818,2.205-6.497c1.47-1.678,3.389-2.517,5.755-2.517C349.114,585.265,351.031,586.104,352.503,587.781z
		 M350.395,598.942c0.896-1.184,1.346-2.738,1.346-4.663s-0.449-3.479-1.346-4.663c-0.897-1.183-2.113-1.774-3.648-1.774
		c-1.534,0-2.751,0.592-3.647,1.774c-0.897,1.185-1.346,2.738-1.346,4.663s0.448,3.479,1.346,4.663
		c0.896,1.185,2.113,1.775,3.647,1.775C348.281,600.717,349.497,600.124,350.395,598.942z"/>
	<path fill="#1D1D1B" d="M372.5,585.615v17.325h-2.967v-2.186c-0.521,0.729-1.223,1.334-2.106,1.813
		c-0.886,0.481-1.86,0.724-2.926,0.724c-1.926,0-3.414-0.572-4.469-1.718c-1.054-1.145-1.58-2.68-1.58-4.604v-11.355h2.966v10.887
		c0,1.274,0.312,2.275,0.937,3.005c0.624,0.729,1.573,1.093,2.848,1.093c0.988,0,1.88-0.299,2.674-0.896
		c0.793-0.6,1.346-1.38,1.657-2.343v-11.744L372.5,585.615L372.5,585.615z"/>
	<path fill="#1D1D1B" d="M380.615,577.577v25.362h-2.926v-25.362H380.615z"/>
	<path fill="#1D1D1B" d="M397.277,602.941v-2.029c-0.468,0.678-1.145,1.243-2.029,1.697c-0.885,0.455-1.834,0.685-2.849,0.685
		c-2.445,0-4.356-0.858-5.736-2.575c-1.379-1.719-2.067-3.863-2.067-6.438c0-2.549,0.688-4.688,2.067-6.419
		c1.379-1.729,3.291-2.595,5.736-2.595c1.015,0,1.964,0.228,2.849,0.683s1.562,1.021,2.029,1.697v-10.067h2.966v25.362H397.277
		L397.277,602.941z M397.277,597.789v-7.022c-0.441-0.884-1.06-1.581-1.854-2.088c-0.793-0.507-1.658-0.762-2.596-0.762
		c-1.612,0-2.894,0.593-3.843,1.775c-0.95,1.185-1.424,2.712-1.424,4.585s0.475,3.401,1.424,4.585
		c0.949,1.185,2.23,1.775,3.843,1.775c0.938,0,1.802-0.254,2.596-0.762C396.217,599.369,396.834,598.675,397.277,597.789z"/>
	<path fill="#1D1D1B" d="M419.164,609.573h-2.888l2.615-6.516l-6.751-17.442h3.161l5.11,13.657l5.033-13.657h3.044L419.164,609.573z
		"/>
	<path fill="#1D1D1B" d="M443.962,587.781c1.469,1.678,2.204,3.844,2.204,6.497s-0.735,4.818-2.204,6.496
		c-1.471,1.679-3.39,2.519-5.757,2.519c-2.366,0-4.284-0.84-5.755-2.519c-1.47-1.678-2.205-3.843-2.205-6.496
		c0-2.652,0.735-4.818,2.205-6.497c1.471-1.678,3.389-2.517,5.755-2.517C440.573,585.264,442.491,586.104,443.962,587.781z
		 M441.855,598.942c0.897-1.184,1.347-2.738,1.347-4.663s-0.448-3.479-1.347-4.663c-0.897-1.183-2.113-1.774-3.647-1.774
		c-1.535,0-2.75,0.592-3.647,1.774c-0.897,1.185-1.347,2.738-1.347,4.663s0.448,3.479,1.347,4.663
		c0.897,1.185,2.112,1.775,3.647,1.775C439.741,600.717,440.957,600.124,441.855,598.942z"/>
	<path fill="#1D1D1B" d="M463.959,585.615v17.325h-2.966v-2.186c-0.521,0.729-1.224,1.334-2.106,1.813
		c-0.885,0.481-1.86,0.724-2.927,0.724c-1.926,0-3.414-0.572-4.469-1.718c-1.053-1.145-1.58-2.68-1.58-4.604v-11.355h2.967v10.887
		c0,1.274,0.312,2.275,0.937,3.005c0.625,0.729,1.573,1.093,2.85,1.093c0.987,0,1.879-0.299,2.673-0.896
		c0.793-0.6,1.346-1.38,1.657-2.343v-11.744L463.959,585.615L463.959,585.615z"/>
	<path fill="#1D1D1B" d="M480.698,577.577v25.362h-2.927v-25.362H480.698z"/>
	<path fill="#1D1D1B" d="M488.717,579.061c0.377,0.365,0.564,0.807,0.564,1.327s-0.188,0.963-0.564,1.327
		c-0.378,0.364-0.826,0.546-1.348,0.546c-0.521,0-0.962-0.183-1.325-0.546c-0.364-0.364-0.546-0.807-0.546-1.327
		s0.182-0.962,0.546-1.327c0.363-0.364,0.806-0.546,1.325-0.546C487.89,578.515,488.339,578.697,488.717,579.061z M488.854,585.615
		v17.325h-2.927v-17.325H488.854z"/>
	<path fill="#1D1D1B" d="M505.476,602.941l-6.594-7.999l-1.873,1.795v6.204h-2.927v-25.362h2.927v15.726l7.921-7.688h3.861
		l-7.804,7.492l8.077,9.833L505.476,602.941L505.476,602.941z"/>
	<path fill="#1D1D1B" d="M522.606,597.751h2.771c-0.312,1.69-1.079,3.036-2.303,4.037c-1.223,1.002-2.784,1.504-4.683,1.504
		c-2.367,0-4.285-0.826-5.755-2.479c-1.47-1.651-2.205-3.816-2.205-6.496c0-2.627,0.729-4.793,2.186-6.497
		c1.456-1.703,3.355-2.556,5.696-2.556c2.315,0,4.11,0.773,5.385,2.322c1.274,1.548,1.912,3.608,1.912,6.185v1.053h-12.252
		c0.025,1.821,0.501,3.271,1.424,4.352c0.924,1.08,2.127,1.619,3.609,1.619c1.093,0,2.01-0.267,2.751-0.801
		C521.883,599.462,522.37,598.714,522.606,597.751z M518.352,587.762c-1.301,0-2.395,0.429-3.277,1.288
		c-0.885,0.857-1.431,2.042-1.639,3.551h9.209c-0.026-1.379-0.404-2.53-1.132-3.454
		C520.783,588.224,519.731,587.762,518.352,587.762z"/>
	<path fill="#1D1D1B" d="M274.25,645.394v-10.457h-2.81v-2.497h2.81v-4.565h2.927v4.565h4.175v2.497h-4.175v10.145
		c0,1.613,0.767,2.421,2.302,2.421c0.807,0,1.562-0.234,2.264-0.703v2.73c-0.729,0.392-1.64,0.586-2.731,0.586
		c-1.457,0-2.614-0.396-3.473-1.189C274.679,648.132,274.25,646.953,274.25,645.394z"/>
	<path fill="#1D1D1B" d="M298.072,634.605c1.47,1.678,2.205,3.844,2.205,6.497s-0.734,4.818-2.205,6.496
		c-1.47,1.679-3.389,2.518-5.755,2.518c-2.368,0-4.286-0.839-5.755-2.518c-1.47-1.678-2.205-3.843-2.205-6.496
		s0.734-4.819,2.205-6.497c1.469-1.678,3.389-2.517,5.755-2.517S296.601,632.927,298.072,634.605z M295.964,645.765
		c0.896-1.185,1.346-2.738,1.346-4.663s-0.449-3.479-1.346-4.663c-0.897-1.184-2.113-1.775-3.648-1.775s-2.751,0.593-3.647,1.775
		c-0.897,1.185-1.347,2.738-1.347,4.663s0.449,3.479,1.347,4.663c0.896,1.184,2.112,1.775,3.647,1.775
		C293.851,647.539,295.067,646.948,295.964,645.765z"/>
	<path fill="#1D1D1B" d="M325.443,649.764h-2.809v-1.288c-0.365,0.391-0.977,0.755-1.834,1.093c-0.858,0.338-1.77,0.508-2.731,0.508
		c-1.821,0-3.35-0.508-4.584-1.521c-1.236-1.015-1.854-2.354-1.854-4.02c0-1.586,0.637-2.888,1.912-3.901
		c1.273-1.015,2.848-1.521,4.721-1.521c0.857,0,1.703,0.145,2.536,0.431c0.832,0.285,1.443,0.61,1.834,0.976v-2.186
		c0-1.118-0.332-2.017-0.995-2.692s-1.606-1.015-2.829-1.015c-1.821,0-3.005,0.794-3.551,2.381h-2.889
		c0.286-1.457,1.021-2.642,2.205-3.552c1.185-0.91,2.608-1.365,4.272-1.365c2.055,0,3.668,0.546,4.838,1.639
		c1.171,1.093,1.756,2.589,1.756,4.487L325.443,649.764L325.443,649.764z M322.634,645.472v-1.795
		c-0.261-0.624-0.774-1.139-1.542-1.541c-0.769-0.403-1.606-0.605-2.518-0.605c-1.145,0-2.121,0.262-2.926,0.78
		c-0.807,0.521-1.21,1.263-1.21,2.225c0,0.989,0.403,1.75,1.21,2.282c0.806,0.534,1.781,0.8,2.926,0.8c0.91,0,1.749-0.2,2.518-0.604
		C321.859,646.61,322.372,646.096,322.634,645.472z"/>
	<path fill="#1D1D1B" d="M341.869,649.764v-2.029c-0.468,0.677-1.145,1.243-2.028,1.697c-0.886,0.455-1.834,0.684-2.85,0.684
		c-2.444,0-4.356-0.857-5.735-2.575s-2.068-3.862-2.068-6.438c0-2.549,0.689-4.688,2.068-6.419c1.378-1.729,3.291-2.595,5.735-2.595
		c1.016,0,1.964,0.229,2.85,0.683c0.884,0.456,1.561,1.021,2.028,1.697v-10.066h2.966v25.362L341.869,649.764L341.869,649.764z
		 M341.869,644.614v-7.022c-0.441-0.885-1.06-1.58-1.854-2.088c-0.793-0.508-1.658-0.762-2.595-0.762
		c-1.613,0-2.895,0.592-3.844,1.775s-1.424,2.712-1.424,4.585s0.476,3.401,1.424,4.585c0.949,1.184,2.23,1.775,3.844,1.775
		c0.937,0,1.801-0.254,2.595-0.763C340.81,646.194,341.427,645.497,341.869,644.614z"/>
	<path fill="#1D1D1B" d="M361.456,649.764v-2.029c-0.468,0.677-1.145,1.243-2.028,1.697c-0.885,0.455-1.834,0.684-2.85,0.684
		c-2.444,0-4.356-0.857-5.735-2.575s-2.068-3.862-2.068-6.438c0-2.549,0.689-4.688,2.068-6.419c1.378-1.729,3.291-2.595,5.735-2.595
		c1.016,0,1.965,0.229,2.85,0.683c0.884,0.456,1.561,1.021,2.028,1.697v-10.066h2.966v25.362L361.456,649.764L361.456,649.764z
		 M361.456,644.614v-7.022c-0.441-0.885-1.06-1.58-1.854-2.088c-0.793-0.508-1.658-0.762-2.595-0.762
		c-1.613,0-2.895,0.592-3.844,1.775s-1.424,2.712-1.424,4.585s0.476,3.401,1.424,4.585c0.949,1.184,2.23,1.775,3.844,1.775
		c0.937,0,1.801-0.254,2.595-0.763C360.397,646.194,361.015,645.497,361.456,644.614z"/>
	<path fill="#1D1D1B" d="M381.025,625.884c0.376,0.364,0.565,0.807,0.565,1.327c0,0.52-0.189,0.962-0.565,1.325
		c-0.377,0.364-0.826,0.547-1.346,0.547c-0.521,0-0.963-0.183-1.327-0.547c-0.365-0.363-0.546-0.806-0.546-1.325
		c0-0.521,0.182-0.962,0.546-1.327c0.364-0.364,0.806-0.546,1.327-0.546C380.198,625.338,380.648,625.52,381.025,625.884z
		 M381.16,632.44v17.324h-2.926V632.44H381.16z"/>
	<path fill="#1D1D1B" d="M387.209,645.394v-10.457h-2.81v-2.497h2.81v-4.565h2.927v4.565h4.175v2.497h-4.175v10.145
		c0,1.613,0.767,2.421,2.302,2.421c0.806,0,1.561-0.234,2.263-0.703v2.73c-0.729,0.392-1.639,0.586-2.73,0.586
		c-1.457,0-2.614-0.396-3.474-1.189C387.638,648.132,387.209,646.953,387.209,645.394z"/>
	<path fill="#1D1D1B" d="M412.492,656.397h-2.888l2.615-6.516l-6.751-17.441h3.161l5.11,13.656l5.033-13.656h3.044L412.492,656.397z
		"/>
	<path fill="#1D1D1B" d="M437.288,634.605c1.47,1.678,2.204,3.844,2.204,6.497s-0.734,4.818-2.204,6.496
		c-1.47,1.679-3.389,2.518-5.756,2.518c-2.366,0-4.285-0.839-5.755-2.518c-1.47-1.678-2.205-3.843-2.205-6.496
		s0.735-4.819,2.205-6.497s3.389-2.517,5.755-2.517C433.9,632.088,435.82,632.927,437.288,634.605z M435.182,645.765
		c0.896-1.185,1.347-2.738,1.347-4.663s-0.449-3.479-1.347-4.663s-2.113-1.775-3.648-1.775s-2.75,0.593-3.646,1.775
		c-0.897,1.185-1.348,2.738-1.348,4.663s0.449,3.479,1.348,4.663c0.897,1.184,2.111,1.775,3.646,1.775
		S434.283,646.948,435.182,645.765z"/>
	<path fill="#1D1D1B" d="M457.285,632.44v17.324h-2.965v-2.187c-0.521,0.729-1.224,1.334-2.106,1.814
		c-0.886,0.48-1.86,0.723-2.928,0.723c-1.925,0-3.413-0.571-4.468-1.717c-1.053-1.145-1.58-2.68-1.58-4.604V632.44h2.967v10.886
		c0,1.275,0.312,2.276,0.937,3.005c0.625,0.729,1.573,1.094,2.849,1.094c0.988,0,1.879-0.3,2.674-0.897
		c0.793-0.599,1.346-1.379,1.657-2.342V632.44H457.285z"/>
	<path fill="#1D1D1B" d="M471.371,632.362v3.004c-0.469-0.312-1.118-0.468-1.95-0.468c-0.938,0-1.771,0.286-2.497,0.858
		c-0.729,0.571-1.236,1.364-1.521,2.38v11.628h-2.927V632.44h2.927v2.263c0.391-0.754,0.969-1.378,1.736-1.873
		c0.767-0.492,1.619-0.74,2.556-0.74C470.448,632.088,471.008,632.18,471.371,632.362z"/>
	<path fill="#1D1D1B" d="M483.623,649.764v-25.362h2.928v10.223c0.546-0.728,1.268-1.332,2.165-1.813
		c0.896-0.48,1.879-0.722,2.945-0.722c1.926,0,3.421,0.571,4.487,1.717s1.6,2.68,1.6,4.604v11.354h-2.966v-10.888
		c0-1.247-0.317-2.242-0.956-2.983c-0.638-0.741-1.594-1.112-2.866-1.112c-1.016,0-1.927,0.307-2.731,0.917
		c-0.807,0.611-1.366,1.385-1.678,2.321v11.745H483.623L483.623,649.764z"/>
	<path fill="#1D1D1B" d="M515.171,634.605c1.469,1.678,2.204,3.844,2.204,6.497s-0.735,4.818-2.204,6.496
		c-1.471,1.679-3.39,2.518-5.757,2.518c-2.366,0-4.284-0.839-5.755-2.518c-1.47-1.678-2.205-3.843-2.205-6.496
		s0.735-4.819,2.205-6.497c1.471-1.678,3.389-2.517,5.755-2.517C511.781,632.088,513.7,632.927,515.171,634.605z M513.064,645.765
		c0.897-1.185,1.347-2.738,1.347-4.663s-0.448-3.479-1.347-4.663c-0.896-1.184-2.113-1.775-3.647-1.775
		c-1.535,0-2.75,0.593-3.647,1.775c-0.897,1.185-1.347,2.738-1.347,4.663s0.448,3.479,1.347,4.663
		c0.897,1.184,2.112,1.775,3.647,1.775C510.95,647.54,512.166,646.948,513.064,645.765z"/>
	<path fill="#1D1D1B" d="M533.647,634.859c1.301-1.847,3.057-2.771,5.268-2.771c1.742,0,3.09,0.56,4.038,1.678
		c0.949,1.119,1.426,2.628,1.426,4.526v11.472h-2.967v-11.003c0-1.249-0.271-2.23-0.818-2.946c-0.546-0.715-1.365-1.073-2.458-1.073
		c-0.885,0-1.678,0.28-2.38,0.839c-0.703,0.561-1.186,1.309-1.444,2.244v11.939h-2.926v-11.003c0-1.249-0.273-2.23-0.819-2.946
		c-0.547-0.715-1.366-1.073-2.459-1.073c-0.885,0-1.678,0.28-2.38,0.84s-1.184,1.308-1.443,2.243v11.939h-2.927V632.44h2.927v2.028
		c0.988-1.586,2.55-2.38,4.683-2.38C531.15,632.088,532.71,633.012,533.647,634.859z"/>
	<path fill="#1D1D1B" d="M560.258,644.573h2.77c-0.312,1.691-1.079,3.037-2.302,4.038c-1.223,1.002-2.784,1.503-4.683,1.503
		c-2.367,0-4.285-0.826-5.756-2.479c-1.47-1.651-2.205-3.816-2.205-6.496c0-2.627,0.729-4.793,2.187-6.497
		c1.456-1.703,3.354-2.556,5.696-2.556c2.314,0,4.109,0.773,5.385,2.32c1.273,1.549,1.912,3.609,1.912,6.186v1.054H551.01
		c0.024,1.821,0.501,3.271,1.424,4.351c0.924,1.08,2.127,1.619,3.609,1.619c1.093,0,2.01-0.266,2.751-0.8
		C559.534,646.284,560.024,645.536,560.258,644.573z M556.004,634.585c-1.302,0-2.395,0.43-3.277,1.287
		c-0.885,0.858-1.431,2.043-1.639,3.552h9.209c-0.026-1.379-0.404-2.529-1.133-3.453
		C558.437,635.047,557.383,634.585,556.004,634.585z"/>
	<path fill="#1D1D1B" d="M360.813,691.825h3.043c0.546,1.771,1.912,2.653,4.097,2.653c1.066,0,1.926-0.214,2.575-0.644
		c0.65-0.43,0.977-1.073,0.977-1.933c0-1.17-0.858-1.977-2.575-2.419l-3.435-0.896c-2.783-0.702-4.175-2.225-4.175-4.565
		c0-1.508,0.585-2.737,1.756-3.688c1.171-0.949,2.653-1.425,4.448-1.425c1.873,0,3.381,0.431,4.526,1.288
		c1.144,0.858,1.873,2.067,2.185,3.629h-2.927c-0.521-1.64-1.794-2.459-3.824-2.459c-0.911,0-1.69,0.216-2.341,0.646
		c-0.65,0.429-0.975,1.047-0.975,1.853c0,0.573,0.188,1.021,0.564,1.348s0.995,0.604,1.854,0.839l3.355,0.818
		c2.939,0.78,4.409,2.395,4.409,4.84c0,1.611-0.599,2.887-1.795,3.822c-1.197,0.938-2.745,1.405-4.645,1.405
		c-1.898,0-3.491-0.455-4.779-1.366C361.847,694.661,361.073,693.412,360.813,691.825z"/>
	<path fill="#1D1D1B" d="M379.347,694.441c-1.457-1.664-2.186-3.836-2.186-6.516s0.729-4.853,2.186-6.518
		c1.457-1.664,3.354-2.497,5.697-2.497c1.897,0,3.452,0.509,4.662,1.521c1.21,1.015,1.972,2.368,2.283,4.059h-3.004
		c-0.208-0.937-0.657-1.671-1.346-2.205c-0.689-0.531-1.556-0.8-2.595-0.8c-1.483,0-2.674,0.6-3.57,1.795
		c-0.897,1.197-1.346,2.745-1.346,4.645c0,1.898,0.448,3.446,1.346,4.644c0.896,1.197,2.087,1.795,3.57,1.795
		c1.039,0,1.904-0.267,2.595-0.801c0.688-0.532,1.138-1.269,1.346-2.204h3.004c-0.312,1.691-1.073,3.043-2.283,4.058
		c-1.209,1.016-2.764,1.522-4.662,1.522C382.701,696.939,380.803,696.106,379.347,694.441z"/>
	<path fill="#1D1D1B" d="M404.709,679.185v3.004c-0.47-0.312-1.119-0.468-1.951-0.468c-0.938,0-1.771,0.286-2.497,0.857
		c-0.729,0.572-1.236,1.365-1.521,2.38v11.629h-2.927v-17.324h2.927v2.263c0.391-0.754,0.97-1.378,1.736-1.873
		c0.767-0.493,1.619-0.741,2.556-0.741C403.784,678.91,404.345,679.003,404.709,679.185z"/>
	<path fill="#1D1D1B" d="M418.757,691.398h2.77c-0.312,1.691-1.079,3.037-2.302,4.038c-1.223,1.002-2.784,1.503-4.684,1.503
		c-2.366,0-4.284-0.826-5.755-2.479c-1.47-1.651-2.205-3.816-2.205-6.496c0-2.627,0.729-4.793,2.187-6.497
		c1.456-1.703,3.354-2.557,5.696-2.557c2.314,0,4.109,0.774,5.385,2.321c1.273,1.549,1.912,3.609,1.912,6.186v1.054h-12.252
		c0.024,1.821,0.501,3.271,1.424,4.351c0.924,1.08,2.127,1.619,3.608,1.619c1.094,0,2.011-0.266,2.752-0.8
		C418.033,693.109,418.523,692.361,418.757,691.398z M414.503,681.407c-1.302,0-2.395,0.431-3.277,1.288
		c-0.885,0.858-1.431,2.042-1.639,3.552h9.209c-0.026-1.38-0.404-2.529-1.133-3.453
		C416.936,681.869,415.882,681.407,414.503,681.407z"/>
	<path fill="#1D1D1B" d="M436.666,691.398h2.77c-0.312,1.691-1.079,3.037-2.302,4.038c-1.224,1.002-2.784,1.503-4.684,1.503
		c-2.366,0-4.285-0.826-5.755-2.479c-1.47-1.651-2.205-3.816-2.205-6.496c0-2.627,0.729-4.793,2.187-6.497
		c1.456-1.703,3.354-2.557,5.695-2.557c2.315,0,4.11,0.774,5.386,2.321c1.273,1.549,1.912,3.609,1.912,6.186v1.054h-12.252
		c0.024,1.821,0.5,3.271,1.424,4.351s2.127,1.619,3.608,1.619c1.093,0,2.011-0.266,2.751-0.8
		C435.944,693.109,436.432,692.361,436.666,691.398z M432.411,681.407c-1.301,0-2.394,0.431-3.276,1.288
		c-0.885,0.858-1.432,2.042-1.64,3.552h9.209c-0.025-1.38-0.403-2.529-1.132-3.453C434.845,681.869,433.791,681.407,432.411,681.407
		z"/>
	<path fill="#1D1D1B" d="M443.572,696.587v-17.324h2.927v2.185c0.547-0.728,1.269-1.333,2.165-1.813
		c0.897-0.48,1.88-0.723,2.946-0.723c1.925,0,3.42,0.572,4.487,1.718c1.065,1.146,1.6,2.68,1.6,4.604v11.354h-2.966v-10.888
		c0-1.248-0.318-2.243-0.956-2.983c-0.638-0.741-1.594-1.112-2.867-1.112c-1.015,0-1.926,0.306-2.73,0.917
		c-0.808,0.611-1.366,1.385-1.679,2.321v11.745H443.572z"/>
	<path fill="#1D1D1B" d="M474.785,678.99c0,0.312-0.02,0.618-0.059,0.917c-0.039,0.3-0.124,0.604-0.254,0.917
		c-0.13,0.313-0.229,0.572-0.292,0.78c-0.065,0.209-0.222,0.481-0.469,0.819c-0.247,0.339-0.403,0.571-0.469,0.701
		c-0.064,0.132-0.268,0.386-0.604,0.762c-0.338,0.378-0.526,0.593-0.565,0.645c-0.039,0.053-0.254,0.286-0.644,0.702l-0.625,0.624
		c-1.066,1.146-1.626,2.212-1.678,3.2h-2.888c0.052-0.938,0.24-1.73,0.565-2.381c0.325-0.649,0.891-1.417,1.697-2.302
		c0.13-0.156,0.475-0.527,1.033-1.112c0.56-0.585,0.956-1.027,1.19-1.326c0.233-0.299,0.474-0.723,0.722-1.269
		c0.247-0.547,0.37-1.094,0.37-1.64c0-1.223-0.39-2.197-1.17-2.927c-0.781-0.728-1.834-1.092-3.161-1.092
		c-1.379,0-2.472,0.436-3.277,1.307c-0.807,0.872-1.274,2.036-1.403,3.492h-3.161c0.234-2.263,1.06-4.084,2.478-5.463
		c1.418-1.378,3.206-2.067,5.365-2.067c2.265,0,4.045,0.604,5.347,1.814S474.785,676.935,474.785,678.99z M466.105,696.177
		c-0.404-0.402-0.604-0.903-0.604-1.502s0.2-1.105,0.604-1.521c0.402-0.416,0.891-0.624,1.463-0.624
		c0.599,0,1.099,0.208,1.502,0.624s0.605,0.924,0.605,1.521c0,0.599-0.202,1.1-0.605,1.502c-0.403,0.403-0.903,0.604-1.502,0.604
		C466.994,696.781,466.507,696.58,466.105,696.177z"/>
</g>
<line fill="none" stroke="#DDDDDD" stroke-miterlimit="10" x1="220.675" y1="728.965" x2="615.214" y2="728.965"/>
<rect x="220.41" y="448.637" fill="none" stroke="#575756" stroke-miterlimit="10" width="394.54" height="359.062"/>
<path fill="#FFFFFF" d="M617.39,225.314H281.546c-9.994,0-18.17-5.789-18.17-12.862v-4.689c0-7.074,8.176-12.86,18.17-12.86H617.39
	c9.988,0,18.164,5.786,18.164,12.86v4.689C635.554,219.525,627.378,225.314,617.39,225.314z"/>
<g>
	<path fill="#1D1D1B" d="M196.938,211.334v-2.183l8.279-4.223v1.986l-6.657,3.328l6.657,3.327v1.986L196.938,211.334z"/>
	<path fill="#1D1D1B" d="M235.701,209.153v2.183l-8.308,4.223v-1.986l6.656-3.327l-6.656-3.328v-1.986L235.701,209.153z"/>
</g>
<g>
	<path d="M292.957,207.222l2.028,7.559l2.186-7.559h1.627l-2.92,9.9h-1.628l-2.051-7.515l-2.074,7.515h-1.627l-2.921-9.9h1.672
		l2.185,7.559l2.029-7.559H292.957L292.957,207.222z"/>
	<path d="M306.981,207.222l2.029,7.559l2.185-7.559h1.627l-2.92,9.9h-1.628l-2.051-7.515l-2.074,7.515h-1.627l-2.921-9.9h1.672
		l2.186,7.559l2.028-7.559H306.981L306.981,207.222z"/>
	<path d="M321.006,207.222l2.028,7.559l2.186-7.559h1.627l-2.92,9.9h-1.628l-2.052-7.515l-2.073,7.515h-1.627l-2.921-9.9h1.672
		l2.185,7.559l2.029-7.559H321.006L321.006,207.222z"/>
	<path d="M327.639,216.888c-0.23-0.229-0.346-0.517-0.346-0.859c0-0.341,0.114-0.631,0.346-0.868
		c0.23-0.238,0.516-0.357,0.857-0.357c0.327,0,0.605,0.119,0.836,0.357c0.231,0.237,0.347,0.527,0.347,0.868
		c0,0.343-0.115,0.628-0.347,0.859c-0.23,0.231-0.509,0.345-0.836,0.345C328.155,217.234,327.868,217.119,327.639,216.888z"/>
	<path d="M337.505,207.222l2.028,7.559l2.186-7.559h1.627l-2.92,9.9h-1.628l-2.052-7.515l-2.073,7.515h-1.627l-2.921-9.9h1.672
		l2.185,7.559l2.029-7.559H337.505L337.505,207.222z"/>
	<path d="M351.485,214.156h1.583c-0.178,0.967-0.617,1.735-1.314,2.309c-0.698,0.573-1.592,0.857-2.676,0.857
		c-1.353,0-2.448-0.472-3.289-1.416c-0.84-0.943-1.26-2.181-1.26-3.712c0-1.501,0.416-2.737,1.249-3.712
		c0.833-0.973,1.917-1.46,3.255-1.46c1.323,0,2.35,0.443,3.077,1.327c0.729,0.885,1.092,2.062,1.092,3.534v0.602h-7.002
		c0.016,1.041,0.286,1.87,0.814,2.486c0.527,0.617,1.215,0.926,2.062,0.926c0.624,0,1.148-0.151,1.572-0.458
		C351.072,215.135,351.351,214.707,351.485,214.156z M349.054,208.448c-0.744,0-1.368,0.245-1.873,0.736
		c-0.505,0.49-0.817,1.167-0.938,2.029h5.263c-0.016-0.788-0.23-1.445-0.646-1.974C350.444,208.713,349.842,208.448,349.054,208.448
		z"/>
	<path d="M357.103,215.963v1.16h-1.694V202.63h1.694v5.752c0.268-0.386,0.654-0.709,1.16-0.97c0.505-0.261,1.048-0.392,1.627-0.392
		c1.396,0,2.49,0.495,3.278,1.483c0.787,0.989,1.182,2.211,1.182,3.668c0,1.471-0.395,2.698-1.182,3.679
		c-0.788,0.981-1.882,1.472-3.278,1.472c-0.58,0-1.123-0.13-1.627-0.39C357.757,216.673,357.37,216.349,357.103,215.963z
		 M357.103,210.166v4.013c0.253,0.506,0.604,0.903,1.059,1.193c0.453,0.29,0.948,0.435,1.483,0.435c0.921,0,1.653-0.338,2.196-1.015
		c0.542-0.677,0.812-1.549,0.812-2.62s-0.271-1.943-0.812-2.62c-0.543-0.676-1.275-1.014-2.196-1.014
		c-0.535,0-1.03,0.145-1.483,0.435C357.709,209.263,357.356,209.66,357.103,210.166z"/>
	<path d="M365.799,214.402h1.738c0.312,1.012,1.093,1.517,2.342,1.517c0.608,0,1.1-0.123,1.472-0.368
		c0.372-0.246,0.558-0.613,0.558-1.104c0-0.669-0.49-1.129-1.472-1.382l-1.962-0.513c-1.591-0.401-2.386-1.271-2.386-2.609
		c0-0.861,0.334-1.563,1.003-2.106c0.669-0.542,1.517-0.814,2.542-0.814c1.069,0,1.932,0.246,2.586,0.736
		c0.653,0.491,1.069,1.182,1.249,2.074h-1.672c-0.297-0.938-1.025-1.405-2.186-1.405c-0.521,0-0.966,0.123-1.337,0.368
		c-0.372,0.245-0.558,0.598-0.558,1.059c0,0.327,0.106,0.583,0.322,0.77c0.216,0.186,0.569,0.346,1.06,0.479l1.917,0.468
		c1.68,0.446,2.52,1.368,2.52,2.766c0,0.922-0.342,1.649-1.024,2.185c-0.685,0.535-1.569,0.803-2.653,0.803
		c-1.085,0-1.996-0.26-2.73-0.779C366.39,216.023,365.948,215.309,365.799,214.402z"/>
	<path d="M377.448,203.477c0.215,0.208,0.324,0.461,0.324,0.758c0,0.299-0.108,0.551-0.324,0.759
		c-0.215,0.208-0.472,0.312-0.769,0.312s-0.55-0.104-0.758-0.312s-0.312-0.461-0.312-0.759c0-0.297,0.104-0.549,0.312-0.758
		c0.208-0.208,0.461-0.312,0.758-0.312S377.233,203.269,377.448,203.477z M377.527,207.222v9.9h-1.672v-9.9H377.527z"/>
	<path d="M380.983,214.625v-5.977h-1.604v-1.427h1.604v-2.608h1.672v2.608h2.386v1.427h-2.386v5.797
		c0,0.923,0.438,1.384,1.315,1.384c0.461,0,0.892-0.135,1.293-0.401v1.561c-0.417,0.224-0.938,0.334-1.562,0.334
		c-0.833,0-1.494-0.227-1.983-0.68C381.228,216.19,380.983,215.517,380.983,214.625z"/>
	<path d="M393.714,214.156h1.583c-0.179,0.967-0.617,1.735-1.315,2.309s-1.591,0.857-2.675,0.857c-1.354,0-2.449-0.472-3.289-1.416
		c-0.84-0.943-1.26-2.181-1.26-3.712c0-1.501,0.416-2.737,1.249-3.712c0.833-0.973,1.917-1.46,3.255-1.46
		c1.323,0,2.349,0.443,3.077,1.327c0.728,0.885,1.092,2.062,1.092,3.534v0.602h-7.001c0.015,1.041,0.286,1.87,0.813,2.486
		c0.527,0.617,1.216,0.926,2.062,0.926c0.624,0,1.147-0.151,1.572-0.458C393.302,215.135,393.579,214.707,393.714,214.156z
		 M391.283,208.448c-0.744,0-1.368,0.245-1.873,0.736c-0.505,0.49-0.816,1.167-0.937,2.029h5.262
		c-0.015-0.788-0.229-1.445-0.646-1.974C392.674,208.713,392.072,208.448,391.283,208.448z"/>
	<path d="M397.226,216.888c-0.231-0.229-0.346-0.517-0.346-0.859c0-0.341,0.114-0.631,0.346-0.868
		c0.229-0.238,0.516-0.357,0.858-0.357c0.325,0,0.604,0.119,0.836,0.357c0.23,0.237,0.346,0.527,0.346,0.868
		c0,0.343-0.115,0.628-0.346,0.859c-0.231,0.231-0.511,0.345-0.836,0.345C397.74,217.234,397.454,217.119,397.226,216.888z"/>
	<path d="M401.719,215.896c-0.833-0.951-1.249-2.192-1.249-3.724s0.416-2.772,1.249-3.725c0.832-0.95,1.917-1.427,3.255-1.427
		c1.085,0,1.974,0.29,2.665,0.87c0.689,0.58,1.126,1.354,1.304,2.319h-1.717c-0.119-0.535-0.375-0.955-0.771-1.26
		c-0.394-0.305-0.888-0.457-1.481-0.457c-0.847,0-1.527,0.342-2.04,1.025c-0.513,0.685-0.771,1.568-0.771,2.653
		s0.258,1.97,0.771,2.653c0.513,0.683,1.193,1.024,2.04,1.024c0.595,0,1.089-0.152,1.481-0.457c0.396-0.305,0.65-0.725,0.771-1.26
		h1.717c-0.178,0.966-0.613,1.739-1.304,2.319c-0.691,0.579-1.58,0.869-2.665,0.869
		C403.636,217.323,402.551,216.847,401.719,215.896z"/>
	<path d="M418.205,208.46c0.841,0.958,1.261,2.195,1.261,3.712c0,1.516-0.42,2.753-1.261,3.712c-0.84,0.958-1.936,1.438-3.287,1.438
		c-1.353,0-2.449-0.479-3.289-1.438c-0.841-0.959-1.261-2.196-1.261-3.712c0-1.517,0.42-2.754,1.261-3.712
		c0.84-0.959,1.937-1.438,3.289-1.438C416.27,207.022,417.365,207.501,418.205,208.46z M417.003,214.837
		c0.513-0.676,0.769-1.564,0.769-2.664c0-1.101-0.256-1.988-0.769-2.665c-0.515-0.676-1.208-1.015-2.085-1.015
		s-1.572,0.338-2.086,1.015c-0.513,0.677-0.77,1.563-0.77,2.665c0,1.101,0.257,1.988,0.77,2.664
		c0.514,0.677,1.209,1.015,2.086,1.015S416.49,215.513,417.003,214.837z"/>
	<path d="M428.764,208.605c0.743-1.056,1.746-1.583,3.01-1.583c0.996,0,1.766,0.32,2.309,0.959c0.543,0.64,0.812,1.501,0.812,2.586
		v6.556h-1.695v-6.288c0-0.713-0.155-1.274-0.468-1.685c-0.312-0.409-0.78-0.612-1.405-0.612c-0.505,0-0.958,0.159-1.358,0.479
		c-0.401,0.32-0.677,0.747-0.825,1.282v6.823h-1.673v-6.288c0-0.713-0.155-1.274-0.468-1.685c-0.312-0.409-0.78-0.612-1.404-0.612
		c-0.506,0-0.959,0.159-1.36,0.479c-0.4,0.32-0.677,0.747-0.825,1.282v6.823h-1.672v-9.9h1.672v1.16
		c0.564-0.907,1.457-1.36,2.677-1.36C427.337,207.022,428.229,207.55,428.764,208.605z"/>
</g>
<text transform="matrix(1 0 0 1 293.0471 780.7385)" fill="#2341C1" font-family="'Calibre-Regular'" font-size="37.2933">Yes</text>
<text transform="matrix(1 0 0 1 495.6321 780.7385)" fill="#2341C1" font-family="'Calibre-Regular'" font-size="37.2933">No</text>
<line fill="none" stroke="#DDDDDD" stroke-miterlimit="10" x1="417.945" y1="807.699" x2="417.945" y2="731.776"/>
</svg>
