<svg id="OUTLINES" xmlns="http://www.w3.org/2000/svg" viewBox="0 0 1152 1008"><defs><style>.cls-1{fill:#000f7c;}.cls-2{fill:#fff;}</style></defs><title>v5</title><path class="cls-1" d="M866,786.44a5,5,0,0,1-3.79-1.74,78.35,78.35,0,0,1-2.79-98.85l-60.29-67A38.59,38.59,0,0,1,827.39,554h.48a5,5,0,0,1,3.46,1.46L937.9,662.05a5,5,0,1,1-7.07,7.07L825.77,564.05a28.59,28.59,0,0,0-19.28,48.07l63.22,70.21a5,5,0,0,1,.07,6.62,68.37,68.37,0,0,0,0,89.22,5,5,0,0,1-3.78,8.27Z"/><rect class="cls-2" x="323.99" y="328.5" width="144" height="144"/><path class="cls-1" d="M994.3,811.39a5,5,0,0,1-5-5V673.15a139.56,139.56,0,0,0-41.16-99.36l-51.4-51.4a5,5,0,0,1,7.07-7.07l51.4,51.4A149.5,149.5,0,0,1,999.3,673.15V806.39A5,5,0,0,1,994.3,811.39Z"/><path class="cls-1" d="M796.9,815a5,5,0,0,1-5-5V786.49A77.89,77.89,0,0,1,751,717.64V687a5,5,0,0,1,10,0v30.61A68,68,0,0,0,799.11,779a5,5,0,0,1,2.79,4.48V810A5,5,0,0,1,796.9,815Z"/><path class="cls-1" d="M756,657.45a23,23,0,1,1,23-23A23,23,0,0,1,756,657.45Zm0-36a13,13,0,1,0,13,13A13,13,0,0,0,756,621.45Z"/><path class="cls-1" d="M864.44,688.45H630a22.53,22.53,0,0,1-22.5-22.5V198a22.53,22.53,0,0,1,22.5-22.5H882a22.52,22.52,0,0,1,22.5,22.5V631.21a4.5,4.5,0,0,1-7.68,3.19L826,563.54a29.1,29.1,0,0,0-19.83,48.93l.06.06,61.59,68.41a4.5,4.5,0,0,1-3.34,7.51ZM630,184.45a13.52,13.52,0,0,0-13.5,13.5V666a13.51,13.51,0,0,0,13.5,13.5H854.33l-54.8-60.86a38.09,38.09,0,0,1,27.86-64.08h.45a4.52,4.52,0,0,1,3.14,1.32l64.51,64.52V198a13.51,13.51,0,0,0-13.5-13.5Z"/><path class="cls-1" d="M157.49,811.39a5,5,0,0,1-5-5V673.15a149.54,149.54,0,0,1,44.09-106.43L247,516.26a5,5,0,0,1,7.07,7.07l-50.46,50.46a139.61,139.61,0,0,0-41.16,99.36V806.39A5,5,0,0,1,157.49,811.39Z"/><path class="cls-1" d="M354.9,815h0a5,5,0,0,1-5-5v-26.5a5,5,0,0,1,2.79-4.48,68,68,0,0,0,38.11-61.33V688.45a5,5,0,0,1,10,0v29.19a77.9,77.9,0,0,1-40.9,68.85V810A5,5,0,0,1,354.9,815Z"/><path class="cls-1" d="M395.8,657.45a23,23,0,1,1,23-23A23,23,0,0,1,395.8,657.45Zm0-36a13,13,0,1,0,13,13A13,13,0,0,0,395.8,621.45Z"/><path class="cls-1" d="M521.8,688.45H287.36a4.5,4.5,0,0,1-3.35-7.51l61.6-68.41a29.09,29.09,0,0,0-19.78-49L255,634.4a4.51,4.51,0,0,1-7.69-3.19V198a22.53,22.53,0,0,1,22.5-22.5h252A22.52,22.52,0,0,1,544.3,198V666A22.52,22.52,0,0,1,521.8,688.45Zm-224.34-9H521.8A13.51,13.51,0,0,0,535.3,666V198a13.51,13.51,0,0,0-13.5-13.5h-252A13.52,13.52,0,0,0,256.3,198v422.4l64.52-64.52a4.5,4.5,0,0,1,3.13-1.32h.46a38.09,38.09,0,0,1,27.83,64.11Z"/><path class="cls-1" d="M396,519A123,123,0,1,1,519,396,123.14,123.14,0,0,1,396,519Zm0-234A111,111,0,1,0,507,396,111.13,111.13,0,0,0,396,285Z"/><path class="cls-1" d="M756,519A123,123,0,1,1,879,396,123.14,123.14,0,0,1,756,519Zm0-234A111,111,0,1,0,867,396,111.13,111.13,0,0,0,756,285Z"/><path class="cls-1" d="M433.05,324.24v34.7h34.7v-34.7Zm29.74,9.91V354H438V329.2h24.78Z"/><polygon class="cls-1" points="333.91 339.11 333.91 344.07 333.91 349.02 348.78 349.02 348.78 344.07 348.78 339.11 348.78 334.15 333.91 334.15 333.91 339.11"/><polygon class="cls-1" points="457.84 344.07 457.84 339.11 457.84 334.15 442.97 334.15 442.97 339.11 442.97 344.07 442.97 349.02 457.84 349.02 457.84 344.07"/><path class="cls-1" d="M358.69,354V324.24H324v34.7h34.7ZM329,354V329.2h24.79V354Z"/><path class="cls-1" d="M324,438.26V468h34.7V433.3H324Zm29.75,0V463H329V438.26Z"/><polygon class="cls-1" points="348.78 453.13 348.78 448.17 348.78 443.21 333.91 443.21 333.91 448.17 333.91 453.13 333.91 458.08 348.78 458.08 348.78 453.13"/><polygon class="cls-1" points="368.61 329.2 378.52 329.2 378.52 334.15 383.48 334.15 383.48 324.24 363.65 324.24 363.65 334.15 368.61 334.15 368.61 329.2 368.61 329.2"/><polygon class="cls-1" points="398.35 334.15 403.31 334.15 403.31 324.24 388.44 324.24 388.44 329.2 398.35 329.2 398.35 334.15 398.35 334.15"/><polygon class="cls-1" points="418.18 329.2 418.18 324.24 408.26 324.24 408.26 329.2 413.22 329.2 413.22 334.15 418.18 334.15 418.18 329.2 418.18 329.2"/><polygon class="cls-1" points="373.56 339.11 373.56 334.15 368.61 334.15 368.61 339.11 373.56 339.11 373.56 339.11"/><polygon class="cls-1" points="393.39 334.15 388.44 334.15 388.44 339.11 393.39 339.11 393.39 334.15 393.39 334.15"/><polygon class="cls-1" points="428.09 334.15 423.14 334.15 423.14 339.11 428.09 339.11 428.09 334.15 428.09 334.15"/><polygon class="cls-1" points="383.48 353.98 383.48 358.94 388.44 358.94 388.44 353.98 393.39 353.98 393.39 358.94 398.35 358.94 398.35 349.02 388.44 349.02 388.44 339.11 378.52 339.11 378.52 349.02 383.48 349.02 383.48 353.98 383.48 353.98"/><polygon class="cls-1" points="403.31 353.98 403.31 358.94 398.35 358.94 398.35 363.9 403.31 363.9 403.31 368.85 408.26 368.85 408.26 353.98 413.22 353.98 413.22 349.02 418.18 349.02 418.18 344.07 423.14 344.07 423.14 339.11 413.22 339.11 413.22 334.15 408.26 334.15 408.26 344.07 403.31 344.07 403.31 339.11 398.35 339.11 398.35 349.02 403.31 349.02 403.31 353.98 403.31 353.98"/><polygon class="cls-1" points="338.86 368.85 338.86 363.9 323.99 363.9 323.99 373.81 333.91 373.81 333.91 368.85 338.86 368.85 338.86 368.85"/><polygon class="cls-1" points="348.78 363.9 348.78 368.85 358.69 368.85 358.69 363.9 348.78 363.9 348.78 363.9"/><polygon class="cls-1" points="447.92 368.85 447.92 363.9 428.09 363.9 428.09 349.02 423.14 349.02 423.14 358.94 418.18 358.94 418.18 353.98 413.22 353.98 413.22 363.9 423.14 363.9 423.14 368.85 413.22 368.85 413.22 373.81 418.18 373.81 418.18 388.68 413.22 388.68 413.22 403.56 418.18 403.56 418.18 398.6 428.09 398.6 428.09 388.68 423.14 388.68 423.14 378.77 428.09 378.77 428.09 368.85 433.05 368.85 433.05 373.81 442.97 373.81 442.97 368.85 447.92 368.85 447.92 368.85"/><polygon class="cls-1" points="457.84 368.85 457.84 373.81 462.8 373.81 462.8 378.77 467.75 378.77 467.75 363.9 457.84 363.9 457.84 368.85 457.84 368.85"/><polygon class="cls-1" points="408.26 378.77 413.22 378.77 413.22 373.81 408.26 373.81 408.26 378.77 408.26 378.77"/><polygon class="cls-1" points="442.97 378.77 447.92 378.77 447.92 383.73 452.88 383.73 452.88 378.77 457.84 378.77 457.84 373.81 442.97 373.81 442.97 378.77 442.97 378.77"/><polygon class="cls-1" points="358.69 388.68 358.69 383.73 353.74 383.73 353.74 388.68 358.69 388.68 358.69 388.68"/><polygon class="cls-1" points="462.8 388.68 457.84 388.68 457.84 393.64 462.8 393.64 462.8 398.6 467.75 398.6 467.75 383.73 462.8 383.73 462.8 388.68 462.8 388.68"/><polygon class="cls-1" points="333.91 393.64 333.91 383.73 323.99 383.73 323.99 398.6 328.95 398.6 328.95 393.64 333.91 393.64 333.91 393.64"/><polygon class="cls-1" points="353.74 393.64 353.74 388.68 348.78 388.68 348.78 398.6 358.69 398.6 358.69 393.64 353.74 393.64 353.74 393.64"/><polygon class="cls-1" points="368.61 398.6 373.56 398.6 373.56 393.64 368.61 393.64 368.61 398.6 368.61 398.6"/><polygon class="cls-1" points="383.48 398.6 383.48 393.64 378.52 393.64 378.52 398.6 383.48 398.6 383.48 398.6"/><polygon class="cls-1" points="333.91 398.6 328.95 398.6 328.95 403.56 333.91 403.56 333.91 398.6 333.91 398.6"/><polygon class="cls-1" points="368.61 398.6 358.69 398.6 358.69 403.56 368.61 403.56 368.61 398.6 368.61 398.6"/><path class="cls-1" d="M433.05,403.55v14.88h-5v-9.92h-4.95v-5h-5v9.92h-5v5h5v4.95h5v19.83h-5v9.92h5v-5h4.95v5h5v-5H443v9.91h-5v5h-5v5h19.83v-9.92h-5v-4.95h9.92v-5h-5v-5h-5V433.3h9.92v-5h-5v-5H438v-9.91h5v-5h-5v-5h5V398.6h4.95v-5H443v-9.91h-9.92v9.91h5v5h-9.92v4.95ZM443,428.34v14.87H428.09V428.34Z"/><polygon class="cls-1" points="323.99 403.56 323.99 408.51 328.95 408.51 328.95 403.56 323.99 403.56 323.99 403.56"/><polygon class="cls-1" points="353.74 403.56 353.74 408.51 358.69 408.51 358.69 403.56 353.74 403.56 353.74 403.56"/><polygon class="cls-1" points="333.91 408.51 328.95 408.51 328.95 413.47 323.99 413.47 323.99 418.43 333.91 418.43 333.91 408.51 333.91 408.51"/><polygon class="cls-1" points="353.74 408.51 348.78 408.51 348.78 403.56 343.82 403.56 343.82 383.73 338.86 383.73 338.86 408.51 343.82 408.51 343.82 413.47 348.78 413.47 348.78 418.43 358.69 418.43 358.69 413.47 353.74 413.47 353.74 408.51 353.74 408.51"/><polygon class="cls-1" points="338.86 418.43 333.91 418.43 333.91 423.38 343.82 423.38 343.82 413.47 338.86 413.47 338.86 418.43 338.86 418.43"/><polygon class="cls-1" points="452.88 418.43 452.88 413.47 442.97 413.47 442.97 418.43 452.88 418.43 452.88 418.43"/><polygon class="cls-1" points="462.8 418.43 467.75 418.43 467.75 403.56 462.8 403.56 462.8 408.51 452.88 408.51 452.88 413.47 462.8 413.47 462.8 418.43 462.8 418.43"/><polygon class="cls-1" points="323.99 428.34 333.91 428.34 333.91 423.38 323.99 423.38 323.99 428.34 323.99 428.34"/><polygon class="cls-1" points="358.69 428.34 358.69 423.38 343.82 423.38 343.82 428.34 358.69 428.34 358.69 428.34"/><polygon class="cls-1" points="462.8 423.38 457.84 423.38 457.84 428.34 462.8 428.34 462.8 423.38 462.8 423.38"/><polygon class="cls-1" points="363.65 428.34 363.65 433.3 368.61 433.3 368.61 428.34 363.65 428.34 363.65 428.34"/><polygon class="cls-1" points="373.56 433.3 378.52 433.3 378.52 423.38 388.44 423.38 388.44 418.43 393.39 418.43 393.39 423.38 388.44 423.38 388.44 433.3 398.35 433.3 398.35 443.21 403.31 443.21 403.31 448.17 408.26 448.17 408.26 438.25 413.22 438.25 413.22 443.21 418.18 443.21 418.18 428.34 408.26 428.34 408.26 423.38 403.31 423.38 403.31 413.47 408.26 413.47 408.26 398.6 403.31 398.6 403.31 393.64 408.26 393.64 408.26 378.77 403.31 378.77 403.31 388.68 398.35 388.68 398.35 378.77 403.31 378.77 403.31 368.85 398.35 368.85 398.35 373.81 388.44 373.81 388.44 368.85 393.39 368.85 393.39 358.94 388.44 358.94 388.44 363.9 378.52 363.9 378.52 368.85 383.48 368.85 383.48 378.77 378.52 378.77 378.52 373.81 368.61 373.81 368.61 368.85 373.56 368.85 373.56 358.94 368.61 358.94 368.61 353.98 373.56 353.98 373.56 358.94 378.52 358.94 378.52 349.02 368.61 349.02 368.61 344.07 363.65 344.07 363.65 368.85 358.69 368.85 358.69 373.81 343.82 373.81 343.82 368.85 338.86 368.85 338.86 373.81 333.91 373.81 333.91 378.77 343.82 378.77 343.82 383.73 353.74 383.73 353.74 378.77 363.65 378.77 363.65 383.73 368.61 383.73 368.61 378.77 373.56 378.77 373.56 383.73 368.61 383.73 368.61 388.68 373.56 388.68 373.56 393.64 378.52 393.64 378.52 383.73 388.44 383.73 388.44 378.77 393.39 378.77 393.39 383.73 388.44 383.73 388.44 393.64 398.35 393.64 398.35 403.56 403.31 403.56 403.31 408.51 398.35 408.51 398.35 413.47 388.44 413.47 388.44 408.51 393.39 408.51 393.39 398.6 388.44 398.6 388.44 403.56 378.52 403.56 378.52 398.6 373.56 398.6 373.56 408.51 358.69 408.51 358.69 413.47 378.52 413.47 378.52 408.51 383.48 408.51 383.48 418.43 363.65 418.43 363.65 423.38 368.61 423.38 368.61 428.34 373.56 428.34 373.56 433.3 373.56 433.3"/><polygon class="cls-1" points="383.48 438.25 383.48 433.3 378.52 433.3 378.52 438.25 383.48 438.25 383.48 438.25"/><polygon class="cls-1" points="438.01 433.3 433.05 433.3 433.05 438.25 438.01 438.25 438.01 433.3 438.01 433.3"/><polygon class="cls-1" points="462.8 438.25 457.84 438.25 457.84 448.17 462.8 448.17 462.8 453.13 457.84 453.13 457.84 458.08 467.75 458.08 467.75 428.34 462.8 428.34 462.8 438.25 462.8 438.25"/><polygon class="cls-1" points="373.56 438.25 373.56 433.3 368.61 433.3 368.61 438.25 363.65 438.25 363.65 443.21 368.61 443.21 368.61 448.17 373.56 448.17 373.56 443.21 378.52 443.21 378.52 438.25 373.56 438.25 373.56 438.25"/><polygon class="cls-1" points="413.22 448.17 408.26 448.17 408.26 453.13 403.31 453.13 403.31 448.17 398.35 448.17 398.35 453.13 388.44 453.13 388.44 448.17 393.39 448.17 393.39 438.25 388.44 438.25 388.44 443.21 378.52 443.21 378.52 448.17 383.48 448.17 383.48 458.08 373.56 458.08 373.56 463.04 368.61 463.04 368.61 453.13 363.65 453.13 363.65 468 378.52 468 378.52 463.04 388.44 463.04 388.44 458.08 393.39 458.08 393.39 463.04 388.44 463.04 388.44 468 408.26 468 408.26 458.08 413.22 458.08 413.22 463.04 418.18 463.04 418.18 453.13 413.22 453.13 413.22 448.17 413.22 448.17"/><polygon class="cls-1" points="428.09 458.08 428.09 453.13 423.14 453.13 423.14 468 428.09 468 428.09 463.04 433.05 463.04 433.05 458.08 428.09 458.08 428.09 458.08"/><polygon class="cls-1" points="462.8 468 467.75 468 467.75 463.04 462.8 463.04 462.8 468 462.8 468"/><path class="cls-1" d="M684,356a5,5,0,0,1-5-5V324a5,5,0,0,1,5-5h27a5,5,0,0,1,0,10H689v22A5,5,0,0,1,684,356Z"/><path class="cls-1" d="M828,356a5,5,0,0,1-5-5V329H801a5,5,0,0,1,0-10h27a5,5,0,0,1,5,5v27A5,5,0,0,1,828,356Z"/><path class="cls-1" d="M828,473H801a5,5,0,0,1,0-10h22V441a5,5,0,0,1,10,0v27A5,5,0,0,1,828,473Z"/><path class="cls-1" d="M711,473H684a5,5,0,0,1-5-5V441a5,5,0,0,1,10,0v22h22a5,5,0,0,1,0,10Z"/><path class="cls-1" d="M285.8,786.44a4.94,4.94,0,0,1-3.26-1.22,5,5,0,0,1-.53-7.05A68.33,68.33,0,0,0,282,689a5,5,0,0,1,.07-6.62l63.16-70.13A28.6,28.6,0,0,0,326,564.05L221,669.12a5,5,0,1,1-7.07-7.07L320.47,555.47a5,5,0,0,1,3.46-1.46h.48a38.59,38.59,0,0,1,28.19,65l-60.22,66.89a78.35,78.35,0,0,1-2.79,98.85A5,5,0,0,1,285.8,786.44Z"/></svg>