<svg id="OUTLINES" xmlns="http://www.w3.org/2000/svg" viewBox="0 0 1152 1008"><defs><style>.cls-1{fill:#fff;}.cls-2{fill:#000f7d;}</style></defs><title>verifiable-proof-2</title><circle class="cls-1" cx="575.99" cy="468.05" r="117"/><path class="cls-1" d="M576,591a122.89,122.89,0,1,1,87-36A122.6,122.6,0,0,1,576,591Zm0-233.89a110.91,110.91,0,1,0,78.49,32.46h0A110.65,110.65,0,0,0,576,357.1Z"/><path class="cls-2" d="M117.21,589.82a5,5,0,0,1-3.53-8.54l94.21-94.21A149.54,149.54,0,0,1,314.33,443h41.39a5,5,0,0,1,0,10H314.33A139.61,139.61,0,0,0,215,494.14l-94.21,94.21A5,5,0,0,1,117.21,589.82Z"/><path class="cls-2" d="M254.28,731.92a5,5,0,0,1-3.53-8.53l18.74-18.74a5,5,0,0,1,5.14-1.2A68,68,0,0,0,344.94,687l20.65-20.64a5,5,0,1,1,7.07,7.07L352,694.11a77.92,77.92,0,0,1-77.61,19.76l-16.59,16.59A5,5,0,0,1,254.28,731.92Z"/><path class="cls-2" d="M407.31,654.74A23,23,0,0,1,391,615.48h0a23,23,0,1,1,16.27,39.26Zm-9.2-32.18a13,13,0,1,0,18.39,0,13,13,0,0,0-18.39,0Z"/><path class="cls-2" d="M225.58,662.9a5,5,0,0,1-.36-10,68.35,68.35,0,0,0,63.09-63.09,5,5,0,0,1,4.72-4.63l94.25-4.94a28.59,28.59,0,0,0,20.47-47.62H259.16a5,5,0,0,1,0-10H409.88a5,5,0,0,1,3.49,1.42l.33.33a38.6,38.6,0,0,1-26,65.87L297.83,595A78.37,78.37,0,0,1,226,662.89Z"/><path class="cls-2" d="M576.05,586.21a122.95,122.95,0,1,1,87-36A122.59,122.59,0,0,1,576.05,586.21Zm0-233.89a111,111,0,1,0,78.49,32.46A110.65,110.65,0,0,0,576.05,352.32Z"/><path class="cls-2" d="M653,438.73l-3.51,3.51-3.5,3.5-3.51,3.51-3.5,3.5-3.51,3.51-3.51,3.5-3.5,3.51L653,487.81l3.5-3.51,3.51-3.5,3.5-3.51,3.51-3.5,3.5-3.51,3.51-3.51,3.5-3.5Zm14,28-3.51,3.51-3.5,3.51-3.51,3.5L653,480.8l-17.53-17.53,3.51-3.51,3.5-3.5,3.51-3.51,3.5-3.5,3.51-3.51,17.52,17.53Z"/><polygon class="cls-2" points="572.38 379.14 568.87 382.65 565.36 386.15 575.88 396.67 579.38 393.16 582.89 389.66 586.4 386.15 575.88 375.64 572.38 379.14"/><polygon class="cls-2" points="656.5 470.28 660.01 466.77 663.51 463.27 653 452.75 649.49 456.26 645.99 459.76 642.48 463.27 653 473.79 656.5 470.28"/><path class="cls-2" d="M579.39,407.18l3.5-3.5,3.51-3.51,3.5-3.5,3.51-3.51,3.5-3.5,3.51-3.51-24.54-24.53-3.51,3.5-3.5,3.51-3.51,3.5-3.5,3.51-3.51,3.5-3.5,3.51-3.51,3.5,24.54,24.54Zm-21-21,3.51-3.5,3.5-3.51,3.51-3.5,3.5-3.51,3.51-3.5,17.53,17.52-3.51,3.51-3.5,3.5-3.51,3.51-3.5,3.5-3.51,3.51Z"/><path class="cls-2" d="M495.26,442.24l-3.51,3.5-3.5,3.51-3.51,3.5-3.5,3.51-3.51,3.5-3.5,3.51,24.53,24.54,3.51-3.51,3.5-3.5,3.51-3.51,3.5-3.5,3.51-3.51,3.51-3.51,3.5-3.5-24.54-24.54Zm21,21-3.51,3.5-3.5,3.51-3.51,3.51-3.5,3.5-3.51,3.51-17.52-17.53,3.5-3.51,3.51-3.5,3.5-3.51,3.51-3.5,3.5-3.51Z"/><polygon class="cls-2" points="502.27 470.28 505.77 466.77 509.28 463.27 498.76 452.75 495.26 456.26 491.75 459.76 488.25 463.27 498.76 473.79 502.27 470.28"/><polygon class="cls-2" points="603.92 396.67 610.93 403.68 607.43 407.19 610.93 410.69 617.94 403.68 603.92 389.66 596.91 396.67 600.42 400.17 603.92 396.67 603.92 396.67"/><polygon class="cls-2" points="621.45 421.21 624.95 424.71 631.97 417.7 621.45 407.19 617.94 410.69 624.95 417.7 621.45 421.21 621.45 421.21"/><polygon class="cls-2" points="638.98 431.72 642.48 428.22 635.47 421.21 631.97 424.71 635.47 428.22 631.97 431.72 635.47 435.23 638.98 431.72 638.98 431.72"/><polygon class="cls-2" points="600.42 407.19 603.92 403.68 600.42 400.17 596.91 403.68 600.42 407.19 600.42 407.19"/><polygon class="cls-2" points="617.94 417.7 614.44 414.19 610.93 417.7 614.44 421.21 617.94 417.7 617.94 417.7"/><polygon class="cls-2" points="642.48 442.24 638.98 438.73 635.47 442.24 638.98 445.74 642.48 442.24 642.48 442.24"/><polygon class="cls-2" points="596.91 424.71 593.41 428.22 596.91 431.72 600.42 428.22 603.92 431.72 600.42 435.23 603.92 438.73 610.93 431.72 603.92 424.71 610.93 417.7 603.92 410.69 596.91 417.7 600.42 421.21 596.91 424.71 596.91 424.71"/><polygon class="cls-2" points="610.93 438.73 607.43 442.24 603.92 438.73 600.42 442.24 603.92 445.74 600.42 449.25 603.92 452.75 614.44 442.24 617.94 445.74 621.45 442.24 624.95 445.74 628.46 442.24 631.97 445.74 635.47 442.24 628.46 435.23 631.97 431.72 628.46 428.22 621.45 435.23 617.94 431.72 621.45 428.22 617.94 424.71 610.93 431.72 614.44 435.23 610.93 438.73 610.93 438.73"/><polygon class="cls-2" points="554.85 403.68 558.35 400.17 547.84 389.66 540.83 396.67 547.84 403.68 551.34 400.17 554.85 403.68 554.85 403.68"/><polygon class="cls-2" points="565.36 407.19 561.86 410.69 568.87 417.7 572.38 414.19 565.36 407.19 565.36 407.19"/><polygon class="cls-2" points="631.97 480.8 635.47 477.29 621.45 463.27 631.97 452.75 628.46 449.25 621.45 456.26 617.94 452.75 621.45 449.25 617.94 445.74 610.93 452.75 617.94 459.76 614.44 463.27 607.43 456.26 603.92 459.76 607.43 463.27 596.91 473.79 593.41 470.28 582.89 480.8 586.4 484.3 589.9 480.8 596.91 487.81 603.92 480.8 600.42 477.29 607.43 470.28 610.93 473.79 617.94 466.77 621.45 470.28 617.94 473.79 624.95 480.8 628.46 477.29 631.97 480.8 631.97 480.8"/><polygon class="cls-2" points="638.98 487.81 635.47 491.31 638.98 494.82 635.47 498.32 638.98 501.83 649.49 491.31 642.48 484.3 638.98 487.81 638.98 487.81"/><polygon class="cls-2" points="596.91 459.76 600.42 463.27 603.92 459.76 600.42 456.26 596.91 459.76 596.91 459.76"/><polygon class="cls-2" points="621.45 484.3 624.95 487.81 621.45 491.31 624.95 494.82 628.46 491.31 631.97 494.82 635.47 491.31 624.95 480.8 621.45 484.3 621.45 484.3"/><polygon class="cls-2" points="554.85 431.72 558.35 428.22 554.85 424.71 551.34 428.22 554.85 431.72 554.85 431.72"/><polygon class="cls-2" points="628.46 505.33 624.95 501.83 621.45 505.33 624.95 508.84 621.45 512.34 624.95 515.85 635.47 505.33 631.97 501.83 628.46 505.33 628.46 505.33"/><polygon class="cls-2" points="533.82 417.7 540.83 410.69 533.82 403.68 523.3 414.19 526.81 417.7 530.31 414.19 533.82 417.7 533.82 417.7"/><polygon class="cls-2" points="547.84 431.72 551.34 428.22 547.84 424.71 540.83 431.72 547.84 438.73 551.34 435.23 547.84 431.72 547.84 431.72"/><polygon class="cls-2" points="554.85 445.74 558.35 449.25 561.86 445.74 558.35 442.24 554.85 445.74 554.85 445.74"/><polygon class="cls-2" points="565.36 456.26 568.87 452.75 565.36 449.25 561.86 452.75 565.36 456.26 565.36 456.26"/><polygon class="cls-2" points="530.31 421.21 526.81 417.7 523.3 421.21 526.81 424.71 530.31 421.21 530.31 421.21"/><polygon class="cls-2" points="554.85 445.74 547.84 438.73 544.33 442.24 551.34 449.25 554.85 445.74 554.85 445.74"/><path class="cls-2" d="M596.91,494.82,586.4,505.33l-3.51-3.5,7-7-3.5-3.51,3.5-3.5-3.5-3.51-7,7-3.51-3.5-3.51,3.5,3.51,3.51-3.51,3.5,3.51,3.51-14,14-3.51-3.51-7,7,3.51,3.51,3.5-3.51,3.51,3.51-3.51,3.5,3.51,3.51,3.5-3.51,7,7-7,7-3.5-3.51-3.51,3.51-3.5-3.51-3.51,3.51,14,14,7-7-3.5-3.51,3.5-3.5,7,7,3.5-3.51-3.5-3.5,3.5-3.51-3.5-3.5,7-7,7,7,3.5-3.51-3.5-3.51,3.5-3.5L586.4,512.34l7-7,3.5,3.51,3.51-3.51-3.51-3.5,3.51-3.51,3.5,3.51,3.51-3.51,3.5,3.51,3.51-3.51-3.51-3.5,7-7-7-7-7,7,3.51,3.5-3.51,3.51-7-7-3.5,3.5,3.5,3.51ZM586.4,519.35l-10.52,10.52-10.52-10.52,10.52-10.51,10.52,10.51Z"/><polygon class="cls-2" points="519.79 417.7 516.29 421.21 519.79 424.71 523.3 421.21 519.79 417.7 519.79 417.7"/><polygon class="cls-2" points="540.83 438.73 537.32 442.24 540.83 445.74 544.33 442.24 540.83 438.73 540.83 438.73"/><polygon class="cls-2" points="523.3 428.22 519.79 424.71 516.29 428.22 512.78 424.71 509.28 428.22 516.29 435.23 523.3 428.22 523.3 428.22"/><polygon class="cls-2" points="537.32 442.24 533.82 438.73 537.32 435.23 533.82 431.72 547.84 417.7 544.33 414.19 526.81 431.72 530.31 435.23 526.81 438.73 530.31 442.24 526.81 445.74 533.82 452.75 537.32 449.25 533.82 445.74 537.32 442.24 537.32 442.24"/><polygon class="cls-2" points="519.79 438.73 516.29 435.23 512.78 438.73 519.79 445.74 526.81 438.73 523.3 435.23 519.79 438.73 519.79 438.73"/><polygon class="cls-2" points="600.42 519.35 603.92 515.85 596.91 508.84 593.41 512.34 600.42 519.35 600.42 519.35"/><polygon class="cls-2" points="607.43 526.37 610.93 529.87 621.45 519.35 617.94 515.85 614.44 519.35 607.43 512.34 603.92 515.85 610.93 522.86 607.43 526.37 607.43 526.37"/><polygon class="cls-2" points="502.27 435.23 509.28 442.24 512.78 438.73 505.77 431.72 502.27 435.23 502.27 435.23"/><polygon class="cls-2" points="526.81 459.76 530.31 456.26 519.79 445.74 516.29 449.25 526.81 459.76 526.81 459.76"/><polygon class="cls-2" points="603.92 529.87 600.42 526.37 596.91 529.87 600.42 533.38 603.92 529.87 603.92 529.87"/><polygon class="cls-2" points="530.31 463.27 526.81 466.77 530.31 470.28 533.82 466.77 530.31 463.27 530.31 463.27"/><polygon class="cls-2" points="533.82 473.79 537.32 477.29 544.33 470.28 551.34 477.29 554.85 473.79 558.35 477.29 554.85 480.8 551.34 477.29 544.33 484.3 551.34 491.31 544.33 498.32 547.84 501.83 544.33 505.33 547.84 508.84 554.85 501.83 558.35 505.33 554.85 508.84 558.35 512.34 568.87 501.83 561.86 494.82 565.36 491.31 561.86 487.81 568.87 480.8 572.38 484.3 582.89 473.79 579.38 470.28 582.89 466.77 586.4 470.28 596.91 459.76 593.41 456.26 586.4 463.27 582.89 459.76 589.9 452.75 593.41 456.26 600.42 449.25 596.91 445.74 593.41 449.25 586.4 442.24 589.9 438.73 593.41 442.24 600.42 435.23 596.91 431.72 593.41 435.23 586.4 428.22 582.89 431.72 586.4 435.23 579.38 442.24 575.88 438.73 579.38 435.23 572.38 428.22 575.88 424.71 579.38 428.22 586.4 421.21 582.89 417.7 586.4 414.19 589.9 417.7 586.4 421.21 589.9 424.71 596.91 417.7 589.9 410.69 593.41 407.19 589.9 403.68 572.38 421.21 568.87 417.7 565.36 421.21 554.85 410.69 558.35 407.19 554.85 403.68 551.34 407.19 547.84 403.68 544.33 407.19 551.34 414.19 547.84 417.7 554.85 424.71 558.35 421.21 565.36 428.22 561.86 431.72 565.36 435.23 568.87 431.72 572.38 435.23 568.87 438.73 565.36 435.23 561.86 438.73 565.36 442.24 561.86 445.74 565.36 449.25 572.38 442.24 579.38 449.25 582.89 445.74 586.4 449.25 582.89 452.75 579.38 449.25 572.38 456.26 579.38 463.27 572.38 470.28 575.88 473.79 572.38 477.29 568.87 473.79 565.36 477.29 558.35 470.28 561.86 466.77 565.36 470.28 572.38 463.27 568.87 459.76 565.36 463.27 558.35 456.26 561.86 452.75 558.35 449.25 551.34 456.26 540.83 445.74 537.32 449.25 551.34 463.27 554.85 459.76 558.35 463.27 551.34 470.28 537.32 456.26 533.82 459.76 537.32 463.27 533.82 466.77 537.32 470.28 533.82 473.79 533.82 473.79"/><polygon class="cls-2" points="537.32 484.3 540.83 480.8 537.32 477.29 533.82 480.8 537.32 484.3 537.32 484.3"/><polygon class="cls-2" points="579.38 519.35 575.88 515.85 572.38 519.35 575.88 522.86 579.38 519.35 579.38 519.35"/><polygon class="cls-2" points="593.41 540.39 589.9 536.88 582.89 543.89 586.4 547.4 582.89 550.9 579.38 547.4 575.88 550.9 582.89 557.91 603.92 536.88 600.42 533.38 593.41 540.39 593.41 540.39"/><polygon class="cls-2" points="530.31 477.29 533.82 473.79 530.31 470.28 526.81 473.79 523.3 470.28 519.79 473.79 523.3 477.29 519.79 480.8 523.3 484.3 526.81 480.8 530.31 484.3 533.82 480.8 530.31 477.29 530.31 477.29"/><polygon class="cls-2" points="551.34 512.34 547.84 508.84 544.33 512.34 540.83 508.84 544.33 505.33 540.83 501.83 537.32 505.33 530.31 498.32 533.82 494.82 537.32 498.32 544.33 491.31 540.83 487.81 537.32 491.31 530.31 484.3 526.81 487.81 530.31 491.31 523.3 498.32 516.29 491.31 512.78 494.82 509.28 491.31 516.29 484.3 512.78 480.8 502.27 491.31 512.78 501.83 516.29 498.32 523.3 505.33 526.81 501.83 530.31 505.33 526.81 508.84 523.3 505.33 519.79 508.84 533.82 522.86 540.83 515.85 544.33 519.35 540.83 522.86 544.33 526.37 551.34 519.35 547.84 515.85 551.34 512.34 551.34 512.34"/><polygon class="cls-2" points="554.85 529.87 558.35 526.37 554.85 522.86 544.33 533.38 547.84 536.88 551.34 533.38 554.85 536.88 558.35 533.38 554.85 529.87 554.85 529.87"/><polygon class="cls-2" points="572.38 561.42 575.88 564.92 579.38 561.42 575.88 557.91 572.38 561.42 572.38 561.42"/><path class="cls-2" d="M1034.79,590a5,5,0,0,1-3.54-1.46L937,494.31a139.57,139.57,0,0,0-99.37-41.16h-72a5,5,0,0,1,0-10h72a149.53,149.53,0,0,1,106.44,44.08l94.21,94.22a5,5,0,0,1-3.53,8.53Z"/><path class="cls-2" d="M897.72,732.09a5,5,0,0,1-3.54-1.47L877.59,714A77.89,77.89,0,0,1,800,694.28l-21.64-21.65a5,5,0,0,1,7.07-7.07l21.65,21.64a68,68,0,0,0,70.31,16.41,5,5,0,0,1,5.14,1.2l18.74,18.74a5,5,0,0,1-3.53,8.54Z"/><path class="cls-2" d="M744.69,654.91A23,23,0,1,1,761,615.65h0a23,23,0,0,1-16.27,39.26Zm0-36a13,13,0,1,0,9.2,3.8A13,13,0,0,0,744.69,618.92Z"/><path class="cls-2" d="M677.87,765.78A22.35,22.35,0,0,1,662,759.19L331,428.27a22.5,22.5,0,0,1,0-31.82L509.23,218.26a22.51,22.51,0,0,1,31.82,0L847.41,524.62a4.5,4.5,0,0,1-3.18,7.68H744a29.1,29.1,0,0,0,20.57,48.62h.09l91.93,4.82a4.5,4.5,0,0,1,2.94,7.67L693.78,759.19A22.35,22.35,0,0,1,677.87,765.78ZM525.14,220.67a13.47,13.47,0,0,0-9.55,4L337.4,402.81a13.51,13.51,0,0,0,0,19.09L668.33,752.83a13.51,13.51,0,0,0,19.09,0L846.05,594.2l-81.79-4.29a38.09,38.09,0,0,1-25.61-65l.32-.32a4.51,4.51,0,0,1,3.15-1.28h91.24L534.68,224.62A13.45,13.45,0,0,0,525.14,220.67Z"/><path class="cls-2" d="M926.42,663.07l-.37,0a78.34,78.34,0,0,1-71.88-67.93l-90-4.71a38.59,38.59,0,0,1-25.89-65.86l.32-.32a5,5,0,0,1,3.5-1.43H892.84a5,5,0,0,1,0,10H744.25a28.6,28.6,0,0,0,20.37,47.62L859,585.36a5,5,0,0,1,4.72,4.63,68.35,68.35,0,0,0,63.09,63.09,5,5,0,0,1-.36,10Z"/><path class="cls-2" d="M576.08,586.3a123,123,0,1,1,87-36A122.19,122.19,0,0,1,576.08,586.3Zm0-234a111,111,0,1,0,78.49,32.51A110.3,110.3,0,0,0,576.08,352.3Z"/><path class="cls-2" d="M493.35,487.39a4.94,4.94,0,0,1-3.53-1.46l-19.1-19.09a5,5,0,0,1,0-7.07l19.1-19.09a5,5,0,0,1,7.07,7.07L481.33,463.3l15.56,15.56a5,5,0,0,1-3.54,8.53Z"/><path class="cls-2" d="M595.18,385.57a5,5,0,0,1-3.54-1.46l-15.56-15.56-15.55,15.56a5,5,0,1,1-7.07-7.07l19.09-19.1a5,5,0,0,1,7.07,0L598.71,377a5,5,0,0,1-3.53,8.53Z"/><path class="cls-2" d="M658.81,487.39a5,5,0,0,1-3.53-8.53l15.56-15.56-15.56-15.55a5,5,0,0,1,7.07-7.07l19.09,19.09a5,5,0,0,1,0,7.07l-19.09,19.09A5,5,0,0,1,658.81,487.39Z"/><path class="cls-2" d="M576.08,570.13a5,5,0,0,1-3.53-1.47l-19.09-19.09a5,5,0,0,1,7.07-7.07l15.55,15.55,15.56-15.55a5,5,0,0,1,7.07,7.07l-19.09,19.09A5,5,0,0,1,576.08,570.13Z"/><path class="cls-2" d="M797.73,451.33,791.37,445l23.23-23.23a13.51,13.51,0,0,0,0-19.09L636.41,224.45a13.52,13.52,0,0,0-19.09,0l-38,38-6.36-6.37,38-38a22.53,22.53,0,0,1,31.82,0L821,396.28a22.5,22.5,0,0,1,0,31.82Z"/><path class="cls-2" d="M474.13,765.61A22.45,22.45,0,0,1,458.22,759L292.44,593.25a4.5,4.5,0,0,1,2.94-7.68l91.93-4.82A29.09,29.09,0,0,0,408,532.13H307.77a4.49,4.49,0,0,1-3.18-7.68l64.5-64.5a4.51,4.51,0,0,1,6.36,0L579.1,663.6a4.49,4.49,0,0,1,0,6.36L490,759A22.47,22.47,0,0,1,474.13,765.61ZM306,594,464.58,752.66a13.48,13.48,0,0,0,19.09,0l85.88-85.88L372.27,469.5l-53.63,53.63h91.24a4.5,4.5,0,0,1,3.14,1.28l.33.32a38.1,38.1,0,0,1-25.66,65Z"/></svg>