<svg id="OUTLINES" xmlns="http://www.w3.org/2000/svg" viewBox="0 0 1152 1008"><defs><style>.cls-1{fill:#fff;}.cls-2{fill:#000f7c;}</style></defs><title>v5</title><circle class="cls-1" cx="395.99" cy="400.5" r="117"/><path class="cls-1" d="M396,523.5a123,123,0,1,1,123-123A123.14,123.14,0,0,1,396,523.5Zm0-234a111,111,0,1,0,111,111A111.13,111.13,0,0,0,396,289.5Z"/><circle class="cls-1" cx="755.99" cy="400.5" r="117"/><path class="cls-1" d="M756,523.5a123,123,0,1,1,123-123A123.14,123.14,0,0,1,756,523.5Zm0-234a111,111,0,1,0,111,111A111.13,111.13,0,0,0,756,289.5Z"/><path class="cls-2" d="M994.3,811.39a5,5,0,0,1-5-5V673.15a139.56,139.56,0,0,0-41.16-99.36l-51.4-51.4a5,5,0,0,1,7.07-7.07l51.4,51.4A149.5,149.5,0,0,1,999.3,673.15V806.39A5,5,0,0,1,994.3,811.39Z"/><path class="cls-2" d="M796.9,815a5,5,0,0,1-5-5V786.49A77.89,77.89,0,0,1,751,717.64V687a5,5,0,0,1,10,0v30.61A68,68,0,0,0,799.11,779a5,5,0,0,1,2.79,4.48V810A5,5,0,0,1,796.9,815Z"/><path class="cls-2" d="M756,657.45a23,23,0,1,1,23-23A23,23,0,0,1,756,657.45Zm0-36a13,13,0,1,0,13,13A13,13,0,0,0,756,621.45Z"/><path class="cls-2" d="M864.44,688.45H630a22.53,22.53,0,0,1-22.5-22.5V198a22.53,22.53,0,0,1,22.5-22.5H882a22.52,22.52,0,0,1,22.5,22.5V631.21a4.5,4.5,0,0,1-7.68,3.19L826,563.54a29.1,29.1,0,0,0-19.83,48.93l.06.06,61.59,68.41a4.5,4.5,0,0,1-3.34,7.51ZM630,184.45a13.52,13.52,0,0,0-13.5,13.5V666a13.51,13.51,0,0,0,13.5,13.5H854.33l-54.8-60.86a38.09,38.09,0,0,1,27.86-64.08h.45a4.52,4.52,0,0,1,3.14,1.32l64.51,64.52V198a13.51,13.51,0,0,0-13.5-13.5Z"/><path class="cls-2" d="M157.49,811.39a5,5,0,0,1-5-5V673.15a149.54,149.54,0,0,1,44.09-106.43L247,516.26a5,5,0,0,1,7.07,7.07l-50.46,50.46a139.61,139.61,0,0,0-41.16,99.36V806.39A5,5,0,0,1,157.49,811.39Z"/><path class="cls-2" d="M354.9,815h0a5,5,0,0,1-5-5v-26.5a5,5,0,0,1,2.79-4.48,68,68,0,0,0,38.11-61.33V688.45a5,5,0,0,1,10,0v29.19a77.9,77.9,0,0,1-40.9,68.85V810A5,5,0,0,1,354.9,815Z"/><path class="cls-2" d="M395.8,657.45a23,23,0,1,1,23-23A23,23,0,0,1,395.8,657.45Zm0-36a13,13,0,1,0,13,13A13,13,0,0,0,395.8,621.45Z"/><path class="cls-2" d="M521.8,688.45H287.36a4.5,4.5,0,0,1-3.35-7.51l61.6-68.41a29.09,29.09,0,0,0-19.78-49L255,634.4a4.51,4.51,0,0,1-7.69-3.19V198a22.53,22.53,0,0,1,22.5-22.5h252A22.52,22.52,0,0,1,544.3,198V666A22.52,22.52,0,0,1,521.8,688.45Zm-224.34-9H521.8A13.51,13.51,0,0,0,535.3,666V198a13.51,13.51,0,0,0-13.5-13.5h-252A13.52,13.52,0,0,0,256.3,198v422.4l64.52-64.52a4.5,4.5,0,0,1,3.13-1.32h.46a38.09,38.09,0,0,1,27.83,64.11Z"/><path class="cls-2" d="M396,519A123,123,0,1,1,519,396,123.14,123.14,0,0,1,396,519Zm0-234A111,111,0,1,0,507,396,111.13,111.13,0,0,0,396,285Z"/><path class="cls-2" d="M756,519A123,123,0,1,1,879,396,123.14,123.14,0,0,1,756,519Zm0-234A111,111,0,1,0,867,396,111.13,111.13,0,0,0,756,285Z"/><path class="cls-2" d="M738,442.5a6,6,0,0,1-4.24-1.76l-40.5-40.5a6,6,0,0,1,8.48-8.48L738,428l76.76-76.75a6,6,0,0,1,8.48,8.48l-81,81A6,6,0,0,1,738,442.5Z"/><path class="cls-2" d="M378,442.5a6,6,0,0,1-4.24-1.76l-40.5-40.5a6,6,0,0,1,8.48-8.48L378,428l76.76-76.75a6,6,0,0,1,8.48,8.48l-81,81A6,6,0,0,1,378,442.5Z"/><path class="cls-2" d="M866,786.44a5,5,0,0,1-3.79-1.74,78.35,78.35,0,0,1-2.79-98.85l-60.29-67A38.59,38.59,0,0,1,827.39,554h.48a5,5,0,0,1,3.46,1.46L937.9,662.05a5,5,0,1,1-7.07,7.07L825.77,564.05a28.59,28.59,0,0,0-19.28,48.07l63.22,70.21a5,5,0,0,1,.07,6.62,68.37,68.37,0,0,0,0,89.22,5,5,0,0,1-3.78,8.27Z"/><path class="cls-2" d="M285.8,786.44a4.94,4.94,0,0,1-3.26-1.22,5,5,0,0,1-.53-7.05A68.33,68.33,0,0,0,282,689a5,5,0,0,1,.07-6.62l63.16-70.13A28.6,28.6,0,0,0,326,564.05L221,669.12a5,5,0,1,1-7.07-7.07L320.47,555.47a5,5,0,0,1,3.46-1.46h.48a38.59,38.59,0,0,1,28.19,65l-60.22,66.89a78.35,78.35,0,0,1-2.79,98.85A5,5,0,0,1,285.8,786.44Z"/></svg>