<?xml version="1.0" encoding="utf-8"?>
<!-- Generator: Adobe Illustrator 22.0.1, SVG Export Plug-In . SVG Version: 6.00 Build 0)  -->
<svg version="1.1" id="Layer_1" xmlns="http://www.w3.org/2000/svg" xmlns:xlink="http://www.w3.org/1999/xlink" x="0px" y="0px"
	 viewBox="0 0 500 500" style="enable-background:new 0 0 500 500;" xml:space="preserve">
<style type="text/css">
	.st0{fill:#00425E;}
	.st1{fill:#000F7C;}
	.st2{fill:#FFFFFF;}
</style>
<g>
	<path class="st0" d="M192,377c9,0,16.4-7.3,16.4-16.4c0-9.1-7.3-16.4-16.4-16.4c-9.1,0-16.4,7.3-16.4,16.4
		C175.5,369.7,182.9,377,192,377z M192,352.6c4.4,0,8,3.5,8,8c0,4.5-3.5,8-8,8c-4.4,0-8-3.5-8-8C184,356.1,187.6,352.6,192,352.6z"
		/>
	<path class="st0" d="M145.7,308.3C145.7,308.2,145.7,308.2,145.7,308.3c-0.8-0.4-1.6-0.6-2.4-0.6h-15.6c-1,0-1.9,0.3-2.8,0.8H72.7
		v50.7l-25.8,25.1c-1.9,1.9-1.9,5.1,0,7.2c1.9,1.9,5.1,1.9,7.2,0l55.5-55.5l20.9-20.2h11.4c5.9,3.7,9.5,10.2,9.5,17.2
		c0,5.1-1.9,10.1-5.5,13.8l-0.1,0.1l-47.6,52.9c-0.7,0.8-1.1,1.7-1.3,2.6l-1.9,2.2h2.1c0.2,0.7,0.5,1.3,1,1.9
		c7.8,9.1,12.2,20.7,12.2,32.8c0,12-4.3,23.7-12.2,32.8c-1.9,2.1-1.6,5.3,0.5,7.2c0.9,0.8,2.1,1.3,3.3,1.3c1.4,0,2.9-0.6,3.8-1.8
		c9.4-10.9,14.6-24.9,14.6-39.4c0-12.5-3.9-24.6-10.9-34.7h70.4v22.5c0,19.3-10.8,36.5-28,45.1c-1.7,0.8-2.8,2.6-2.8,4.5v19.9
		c0,2.8,2.3,5.1,5.1,5.1s5.1-2.3,5.1-5.1v-16.9c19.1-10.7,30.8-30.6,30.8-52.6v-22.8h105.4c9.8,0,17.8-7.9,17.8-17.8v-80.3
		L145.7,308.3z M81.1,314.8h36.4l-26.9,26.9l-9.5,9.3V314.8z M304.7,386.7c0,5.1-4.2,9.3-9.3,9.3H115l38.2-42.4
		c5.2-5.6,8.2-13,8.2-20.7c0-6.8-2.3-12.5-6.3-17.1c-0.3-0.3-0.4-0.6-0.7-0.9h150.2L304.7,386.7L304.7,386.7z"/>
	<path class="st0" d="M46.3,309.1c-1.9-1.9-5.1-1.9-7.2,0l-5.4,3.3C12.2,334,0.2,362.9,0.2,393.6V494c0,2.8,2.3,5.1,5.1,5.1
		s5.1-2.3,5.1-5.1V393.5c0-27.9,10.9-54.2,30.6-74l5.4-5.4C48.3,312.2,48.3,311.1,46.3,309.1z"/>
	<path class="st0" d="M313.1,82.8H72.7V33.7c0-9.8,7.9-17.8,17.8-17.8h205c9.8,0,17.8,7.9,17.8,17.8v12.8l-27.3,27.3l27.3,0.1
		L313.1,82.8L313.1,82.8z M81.1,74.4h192.3l31.3-31.3v-9.3c0-5.1-4.2-9.3-9.3-9.3h-205c-5.1,0-9.3,4.2-9.3,9.3L81.1,74.4L81.1,74.4z
		"/>
	<path class="st1" d="M358.9,211.8c-9,0-16.4-7.3-16.4-16.4s7.3-16.4,16.4-16.4c9.1,0,16.4,7.3,16.4,16.4S368,211.8,358.9,211.8z
		 M358.9,187.5c-4.4,0-8,3.5-8,8c0,4.5,3.5,8,8,8c4.4,0,8-3.5,8-8C366.9,191,363.3,187.5,358.9,187.5z"/>
	<circle class="st2" cx="194.6" cy="200.1" r="97.6"/>
	<path class="st1" d="M192.9,295.1c-55.5,0-100.5-45.1-100.5-100.5S137.5,94.1,192.9,94.1s100.5,45.1,100.5,100.5
		S248.3,295.1,192.9,295.1z M192.9,104.1c-49.8,0-90.4,40.6-90.4,90.4s40.6,90.4,90.4,90.4c49.8,0,90.4-40.6,90.4-90.4
		S242.8,104.1,192.9,104.1z"/>
	<rect x="135.5" y="137.2" class="st1" width="4.6" height="32.2"/>
	<rect x="135.5" y="173.9" class="st1" width="4.6" height="9.2"/>
	<rect x="135.5" y="187.7" class="st1" width="4.6" height="9.2"/>
	<rect x="135.5" y="219.8" class="st1" width="4.6" height="32.2"/>
	<rect x="140" y="137.2" class="st1" width="4.6" height="4.6"/>
	<rect x="140" y="164.7" class="st1" width="4.6" height="4.6"/>
	<rect x="140" y="183" class="st1" width="4.6" height="9.2"/>
	<rect x="140" y="196.8" class="st1" width="4.6" height="18.4"/>
	<rect x="140" y="219.8" class="st1" width="4.6" height="4.6"/>
	<rect x="140" y="247.3" class="st1" width="4.6" height="4.6"/>
	<rect x="144.6" y="137.2" class="st1" width="4.6" height="4.6"/>
	<rect x="144.6" y="146.3" class="st1" width="4.6" height="13.8"/>
	<rect x="144.6" y="164.7" class="st1" width="4.6" height="4.6"/>
	<rect x="144.6" y="173.9" class="st1" width="4.6" height="4.6"/>
	<rect x="144.6" y="192.3" class="st1" width="4.6" height="13.8"/>
	<rect x="144.6" y="219.8" class="st1" width="4.6" height="4.6"/>
	<rect x="144.6" y="229" class="st1" width="4.6" height="13.8"/>
	<rect x="144.6" y="247.3" class="st1" width="4.6" height="4.6"/>
	<rect x="149.3" y="137.2" class="st1" width="4.6" height="4.6"/>
	<rect x="149.3" y="146.3" class="st1" width="4.6" height="13.8"/>
	<rect x="149.3" y="164.7" class="st1" width="4.6" height="4.6"/>
	<rect x="149.3" y="173.9" class="st1" width="4.6" height="4.6"/>
	<rect x="149.3" y="183" class="st1" width="4.6" height="4.6"/>
	<rect x="149.3" y="192.3" class="st1" width="4.6" height="4.6"/>
	<rect x="149.3" y="219.8" class="st1" width="4.6" height="4.6"/>
	<rect x="149.3" y="229" class="st1" width="4.6" height="13.8"/>
	<rect x="149.3" y="247.3" class="st1" width="4.6" height="4.6"/>
	<rect x="153.8" y="137.2" class="st1" width="4.6" height="4.6"/>
	<rect x="153.8" y="146.3" class="st1" width="4.6" height="13.8"/>
	<rect x="153.8" y="164.7" class="st1" width="4.6" height="4.6"/>
	<rect x="153.8" y="173.9" class="st1" width="4.6" height="9.2"/>
	<rect x="153.8" y="187.7" class="st1" width="4.6" height="4.6"/>
	<rect x="153.8" y="196.8" class="st1" width="4.6" height="9.2"/>
	<rect x="153.8" y="219.8" class="st1" width="4.6" height="4.6"/>
	<rect x="153.8" y="229" class="st1" width="4.6" height="13.8"/>
	<rect x="153.8" y="247.3" class="st1" width="4.6" height="4.6"/>
	<rect x="158.4" y="137.2" class="st1" width="4.6" height="4.6"/>
	<rect x="158.4" y="164.7" class="st1" width="4.6" height="4.6"/>
	<rect x="158.4" y="173.9" class="st1" width="4.6" height="9.2"/>
	<rect x="158.4" y="187.7" class="st1" width="4.6" height="4.6"/>
	<rect x="158.4" y="196.8" class="st1" width="4.6" height="4.6"/>
	<rect x="158.4" y="210.6" class="st1" width="4.6" height="4.6"/>
	<rect x="158.4" y="219.8" class="st1" width="4.6" height="4.6"/>
	<rect x="158.4" y="247.3" class="st1" width="4.6" height="4.6"/>
	<rect x="163" y="137.2" class="st1" width="4.6" height="32.2"/>
	<rect x="163" y="173.9" class="st1" width="4.6" height="4.6"/>
	<rect x="163" y="183" class="st1" width="4.6" height="4.6"/>
	<rect x="163" y="192.3" class="st1" width="4.6" height="4.6"/>
	<rect x="163" y="201.5" class="st1" width="4.6" height="4.6"/>
	<rect x="163" y="210.6" class="st1" width="4.6" height="4.6"/>
	<rect x="163" y="219.8" class="st1" width="4.6" height="32.2"/>
	<rect x="167.6" y="178.5" class="st1" width="4.6" height="4.6"/>
	<rect x="167.6" y="192.3" class="st1" width="4.6" height="4.6"/>
	<rect x="167.6" y="201.5" class="st1" width="4.6" height="4.6"/>
	<rect x="172.3" y="146.3" class="st1" width="4.6" height="27.5"/>
	<rect x="172.3" y="178.5" class="st1" width="4.6" height="18.4"/>
	<rect x="172.3" y="210.6" class="st1" width="4.6" height="9.2"/>
	<rect x="172.3" y="224.5" class="st1" width="4.6" height="18.4"/>
	<rect x="172.3" y="247.3" class="st1" width="4.6" height="4.6"/>
	<rect x="176.8" y="137.2" class="st1" width="4.6" height="4.6"/>
	<rect x="176.8" y="146.3" class="st1" width="4.6" height="9.2"/>
	<rect x="176.8" y="160.1" class="st1" width="4.6" height="4.6"/>
	<rect x="176.8" y="178.5" class="st1" width="4.6" height="13.8"/>
	<rect x="176.8" y="196.8" class="st1" width="4.6" height="4.6"/>
	<rect x="176.8" y="206" class="st1" width="4.6" height="4.6"/>
	<rect x="176.8" y="224.5" class="st1" width="4.6" height="9.2"/>
	<rect x="176.8" y="238.2" class="st1" width="4.6" height="13.8"/>
	<rect x="181.4" y="137.2" class="st1" width="4.6" height="9.2"/>
	<rect x="181.4" y="150.9" class="st1" width="4.6" height="4.6"/>
	<rect x="181.4" y="164.7" class="st1" width="4.6" height="18.4"/>
	<rect x="181.4" y="192.3" class="st1" width="4.6" height="4.6"/>
	<rect x="181.4" y="210.6" class="st1" width="4.6" height="4.6"/>
	<rect x="181.4" y="219.8" class="st1" width="4.6" height="13.8"/>
	<rect x="181.4" y="247.3" class="st1" width="4.6" height="4.6"/>
	<rect x="186" y="137.2" class="st1" width="4.6" height="9.2"/>
	<rect x="186" y="150.9" class="st1" width="4.6" height="9.2"/>
	<rect x="186" y="173.9" class="st1" width="4.6" height="9.2"/>
	<rect x="186" y="192.3" class="st1" width="4.6" height="4.6"/>
	<rect x="186" y="219.8" class="st1" width="4.6" height="13.8"/>
	<rect x="190.6" y="141.7" class="st1" width="4.6" height="9.2"/>
	<rect x="190.6" y="155.5" class="st1" width="4.6" height="13.8"/>
	<rect x="190.6" y="183" class="st1" width="4.6" height="4.6"/>
	<rect x="190.6" y="196.8" class="st1" width="4.6" height="4.6"/>
	<rect x="190.6" y="206" class="st1" width="4.6" height="9.2"/>
	<rect x="190.6" y="219.8" class="st1" width="4.6" height="4.6"/>
	<rect x="190.6" y="233.6" class="st1" width="4.6" height="4.6"/>
	<rect x="190.6" y="242.8" class="st1" width="4.6" height="9.2"/>
	<rect x="195.1" y="155.5" class="st1" width="4.6" height="9.2"/>
	<rect x="195.1" y="169.3" class="st1" width="4.6" height="4.6"/>
	<rect x="195.1" y="196.8" class="st1" width="4.6" height="13.8"/>
	<rect x="195.1" y="233.6" class="st1" width="4.6" height="13.8"/>
	<rect x="199.8" y="146.3" class="st1" width="4.6" height="4.6"/>
	<rect x="199.8" y="155.5" class="st1" width="4.6" height="13.8"/>
	<rect x="199.8" y="173.9" class="st1" width="4.6" height="4.6"/>
	<rect x="199.8" y="187.7" class="st1" width="4.6" height="4.6"/>
	<rect x="199.8" y="196.8" class="st1" width="4.6" height="9.2"/>
	<rect x="199.8" y="210.6" class="st1" width="4.6" height="4.6"/>
	<rect x="199.8" y="224.5" class="st1" width="4.6" height="4.6"/>
	<rect x="199.8" y="233.6" class="st1" width="4.6" height="9.2"/>
	<rect x="199.8" y="247.3" class="st1" width="4.6" height="4.6"/>
	<rect x="204.4" y="137.2" class="st1" width="4.6" height="4.6"/>
	<rect x="204.4" y="155.5" class="st1" width="4.6" height="9.2"/>
	<rect x="204.4" y="173.9" class="st1" width="4.6" height="4.6"/>
	<rect x="204.4" y="183" class="st1" width="4.6" height="4.6"/>
	<rect x="204.4" y="201.5" class="st1" width="4.6" height="4.6"/>
	<rect x="204.4" y="215.2" class="st1" width="4.6" height="4.6"/>
	<rect x="204.4" y="229" class="st1" width="4.6" height="13.8"/>
	<rect x="209" y="137.2" class="st1" width="4.6" height="4.6"/>
	<rect x="209" y="146.3" class="st1" width="4.6" height="4.6"/>
	<rect x="209" y="164.7" class="st1" width="4.6" height="9.2"/>
	<rect x="209" y="178.5" class="st1" width="4.6" height="13.8"/>
	<rect x="209" y="196.8" class="st1" width="4.6" height="41.3"/>
	<rect x="209" y="242.8" class="st1" width="4.6" height="4.6"/>
	<rect x="213.6" y="183" class="st1" width="4.6" height="9.2"/>
	<rect x="213.6" y="210.6" class="st1" width="4.6" height="4.6"/>
	<rect x="213.6" y="229" class="st1" width="4.6" height="13.8"/>
	<rect x="218.1" y="137.2" class="st1" width="4.6" height="32.2"/>
	<rect x="218.1" y="173.9" class="st1" width="4.6" height="4.6"/>
	<rect x="218.1" y="183" class="st1" width="4.6" height="13.8"/>
	<rect x="218.1" y="201.5" class="st1" width="4.6" height="13.8"/>
	<rect x="218.1" y="219.8" class="st1" width="4.6" height="4.6"/>
	<rect x="218.1" y="229" class="st1" width="4.6" height="23"/>
	<rect x="222.8" y="137.2" class="st1" width="4.6" height="4.6"/>
	<rect x="222.8" y="164.7" class="st1" width="4.6" height="4.6"/>
	<rect x="222.8" y="173.9" class="st1" width="4.6" height="9.2"/>
	<rect x="222.8" y="187.7" class="st1" width="4.6" height="4.6"/>
	<rect x="222.8" y="196.8" class="st1" width="4.6" height="4.6"/>
	<rect x="222.8" y="210.6" class="st1" width="4.6" height="4.6"/>
	<rect x="222.8" y="229" class="st1" width="4.6" height="4.6"/>
	<rect x="222.8" y="238.2" class="st1" width="4.6" height="9.2"/>
	<rect x="227.3" y="137.2" class="st1" width="4.6" height="4.6"/>
	<rect x="227.3" y="146.3" class="st1" width="4.6" height="13.8"/>
	<rect x="227.3" y="164.7" class="st1" width="4.6" height="4.6"/>
	<rect x="227.3" y="173.9" class="st1" width="4.6" height="4.6"/>
	<rect x="227.3" y="187.7" class="st1" width="4.6" height="9.2"/>
	<rect x="227.3" y="201.5" class="st1" width="4.6" height="4.6"/>
	<rect x="227.3" y="210.6" class="st1" width="4.6" height="27.5"/>
	<rect x="231.9" y="137.2" class="st1" width="4.6" height="4.6"/>
	<rect x="231.9" y="146.3" class="st1" width="4.6" height="13.8"/>
	<rect x="231.9" y="164.7" class="st1" width="4.6" height="4.6"/>
	<rect x="231.9" y="173.9" class="st1" width="4.6" height="13.8"/>
	<rect x="231.9" y="192.3" class="st1" width="4.6" height="9.2"/>
	<rect x="231.9" y="210.6" class="st1" width="4.6" height="4.6"/>
	<rect x="231.9" y="219.8" class="st1" width="4.6" height="4.6"/>
	<rect x="231.9" y="229" class="st1" width="4.6" height="9.2"/>
	<rect x="231.9" y="247.3" class="st1" width="4.6" height="4.6"/>
	<rect x="236.6" y="137.2" class="st1" width="4.6" height="4.6"/>
	<rect x="236.6" y="146.3" class="st1" width="4.6" height="13.8"/>
	<rect x="236.6" y="164.7" class="st1" width="4.6" height="4.6"/>
	<rect x="236.6" y="173.9" class="st1" width="4.6" height="4.6"/>
	<rect x="236.6" y="183" class="st1" width="4.6" height="4.6"/>
	<rect x="236.6" y="192.3" class="st1" width="4.6" height="9.2"/>
	<rect x="236.6" y="210.6" class="st1" width="4.6" height="4.6"/>
	<rect x="236.6" y="219.8" class="st1" width="4.6" height="4.6"/>
	<rect x="236.6" y="229" class="st1" width="4.6" height="9.2"/>
	<rect x="236.6" y="247.3" class="st1" width="4.6" height="4.6"/>
	<rect x="241.1" y="137.2" class="st1" width="4.6" height="4.6"/>
	<rect x="241.1" y="164.7" class="st1" width="4.6" height="4.6"/>
	<rect x="241.1" y="178.5" class="st1" width="4.6" height="18.4"/>
	<rect x="241.1" y="201.5" class="st1" width="4.6" height="4.6"/>
	<rect x="241.1" y="210.6" class="st1" width="4.6" height="13.8"/>
	<rect x="241.1" y="233.6" class="st1" width="4.6" height="4.6"/>
	<rect x="241.1" y="247.3" class="st1" width="4.6" height="4.6"/>
	<rect x="245.7" y="137.2" class="st1" width="4.6" height="32.2"/>
	<rect x="245.7" y="183" class="st1" width="4.6" height="13.8"/>
	<rect x="245.7" y="201.5" class="st1" width="4.6" height="4.6"/>
	<rect x="245.7" y="210.6" class="st1" width="4.6" height="41.3"/>
	<path class="st1" d="M275.7,83c-1.3,0-2.6-0.5-3.5-1.5c-1.9-1.9-1.9-5.1,0-7.2l38.7-38.7C332.5,13.9,361.4,2,392,2h100.4
		c2.8,0,5.1,2.3,5.1,5.1s-2.3,5.1-5.1,5.1H392c-27.9,0-54.2,10.9-74,30.6l-38.7,38.7C278.3,82.4,277.1,83,275.7,83z"/>
	<path class="st1" d="M136.6,164.3c-2.4,0-4.2-1.9-4.2-4.2v-22.5c0-2.4,1.9-4.2,4.2-4.2H159c2.4,0,4.2,1.9,4.2,4.2
		c0,2.4-1.9,4.2-4.2,4.2h-18.3v18.3C140.8,162.4,138.9,164.3,136.6,164.3z"/>
	<path class="st1" d="M250.6,164.3c-2.4,0-4.2-1.9-4.2-4.2v-18.3h-18.3c-2.4,0-4.2-1.9-4.2-4.2c0-2.4,1.9-4.2,4.2-4.2h22.5
		c2.4,0,4.2,1.9,4.2,4.2v22.5C254.8,162.4,253,164.3,250.6,164.3z"/>
	<path class="st1" d="M250.6,256.2h-22.5c-2.4,0-4.2-1.9-4.2-4.2c0-2.4,1.9-4.2,4.2-4.2h18.3v-18.3c0-2.4,1.9-4.2,4.2-4.2
		c2.4,0,4.2,1.9,4.2,4.2V252C254.8,254.3,253,256.2,250.6,256.2z"/>
	<path class="st1" d="M159,256.2h-22.5c-2.4,0-4.2-1.9-4.2-4.2v-22.5c0-2.4,1.9-4.2,4.2-4.2s4.2,1.9,4.2,4.2v18.3H159
		c2.4,0,4.2,1.9,4.2,4.2C163.2,254.3,161.4,256.2,159,256.2z"/>
	<path class="st1" d="M495.1,150.8h-19.9c-1.9,0-3.7,1.1-4.5,2.8c-8.5,17.3-25.8,28-45.1,28h-22.9v-70.5
		c10.2,7.2,22.3,11.1,34.8,11.1c14.5,0,28.5-5.2,39.4-14.6c2.1-1.9,2.4-5.1,0.5-7.2c-1.9-2.1-5.1-2.4-7.2-0.5
		c-9.1,7.8-20.8,12.2-32.8,12.2s-23.7-4.3-32.8-12.2c-1.9-1.7-4.8-1.6-6.6,0.1l-52.9,47.6l-0.1,0.1c-3.8,3.5-8.7,5.5-13.8,5.5
		c-10.6,0-19.4-8.2-20.2-18.5c34.6-34.6,78.8-78.8,78.8-78.8l-7.2-7.2c0,0-10.7,10.7-25.7,25.7H32c-9.8,0-17.8,7.9-17.8,17.8v205
		c0,9.8,7.9,17.8,17.8,17.8H385c9.8,0,17.8-7.9,17.8-17.8V191.7h22.9c22.1,0,42-11.7,52.6-30.8h16.9c2.8,0,5.1-2.3,5.1-5.1
		C500.2,153.1,497.9,150.8,495.1,150.8z M385,306.4H32c-5.1,0-9.3-4.2-9.3-9.3V92c0-5.1,4.2-9.3,9.3-9.3h316.7
		c-14.4,14.4-31.3,31.3-46.2,46.2c-0.9,0.9-1.4,2.2-1.5,3.5v0.4c0,16.8,13.6,30.4,30.4,30.4c7.7,0,15.1-2.9,20.7-8.2l42.3-38V297
		C394.3,302.1,390.1,306.4,385,306.4z"/>
</g>
</svg>
