<svg id="OUTLINES" xmlns="http://www.w3.org/2000/svg" viewBox="0 0 1152 1008"><defs><style>.cls-1{fill:#000f7d;}.cls-2{fill:#fff;}</style></defs><title>verifiable-proof-1</title><path class="cls-1" d="M866,822.49a5,5,0,0,1-3.79-1.74,78.37,78.37,0,0,1-2.79-98.86l-60.29-66.95a38.6,38.6,0,0,1,28.26-64.89h.48a5,5,0,0,1,3.46,1.46L937.9,698.1a5,5,0,0,1-7.07,7.07L825.77,600.1a28.59,28.59,0,0,0-19.28,48.07l63.22,70.21a5,5,0,0,1,.07,6.61,68.38,68.38,0,0,0,0,89.23,5,5,0,0,1-3.78,8.27Z"/><rect class="cls-2" x="323.99" y="364.55" width="144" height="144"/><path class="cls-1" d="M994.3,847.44a5,5,0,0,1-5-5V709.2a139.56,139.56,0,0,0-41.16-99.36l-51.4-51.4a5,5,0,0,1,7.07-7.08l51.4,51.4A149.54,149.54,0,0,1,999.3,709.2V842.44A5,5,0,0,1,994.3,847.44Z"/><path class="cls-1" d="M796.9,851a5,5,0,0,1-5-5V822.54A77.9,77.9,0,0,1,751,753.69V723.08a5,5,0,0,1,10,0v30.61A68,68,0,0,0,799.11,815a5,5,0,0,1,2.79,4.48V846A5,5,0,0,1,796.9,851Z"/><path class="cls-1" d="M756,693.5a23,23,0,1,1,23-23A23,23,0,0,1,756,693.5Zm0-36a13,13,0,1,0,13,13A13,13,0,0,0,756,657.5Z"/><path class="cls-1" d="M864.44,724.5H630a22.53,22.53,0,0,1-22.5-22.5V234A22.53,22.53,0,0,1,630,211.5H882a22.52,22.52,0,0,1,22.5,22.5V667.26a4.5,4.5,0,0,1-7.68,3.18L826,599.59a29.1,29.1,0,0,0-19.83,48.93l.06.06L867.78,717a4.5,4.5,0,0,1-3.34,7.51ZM630,220.5a13.52,13.52,0,0,0-13.5,13.5V702A13.52,13.52,0,0,0,630,715.5H854.33l-54.8-60.86a38.09,38.09,0,0,1,27.86-64.08h.45a4.48,4.48,0,0,1,3.14,1.32l64.51,64.52V234A13.51,13.51,0,0,0,882,220.5Z"/><path class="cls-1" d="M157.49,847.44a5,5,0,0,1-5-5V709.2a149.58,149.58,0,0,1,44.09-106.44L247,552.31a5,5,0,0,1,7.07,7.07l-50.46,50.46a139.61,139.61,0,0,0-41.16,99.36V842.44A5,5,0,0,1,157.49,847.44Z"/><path class="cls-1" d="M354.9,851h0a5,5,0,0,1-5-5V819.5a5,5,0,0,1,2.79-4.48,68,68,0,0,0,38.11-61.33V724.5a5,5,0,0,1,10,0v29.19a77.91,77.91,0,0,1-40.9,68.85V846A5,5,0,0,1,354.9,851Z"/><path class="cls-1" d="M395.8,693.5a23,23,0,1,1,23-23A23,23,0,0,1,395.8,693.5Zm0-36a13,13,0,1,0,13,13A13,13,0,0,0,395.8,657.5Z"/><path class="cls-1" d="M521.8,724.5H287.36A4.5,4.5,0,0,1,284,717l61.6-68.41a29.09,29.09,0,0,0-19.78-49L255,670.44a4.5,4.5,0,0,1-7.69-3.18V234a22.53,22.53,0,0,1,22.5-22.5h252A22.52,22.52,0,0,1,544.3,234V702A22.52,22.52,0,0,1,521.8,724.5Zm-224.34-9H521.8A13.51,13.51,0,0,0,535.3,702V234a13.51,13.51,0,0,0-13.5-13.5h-252A13.52,13.52,0,0,0,256.3,234V656.4l64.52-64.52a4.46,4.46,0,0,1,3.13-1.32h.46a38.09,38.09,0,0,1,27.83,64.11Z"/><path class="cls-1" d="M396,555.05a123,123,0,1,1,123-123A123.14,123.14,0,0,1,396,555.05Zm0-234a111,111,0,1,0,111,111A111.13,111.13,0,0,0,396,321.05Z"/><path class="cls-1" d="M756,555.05a123,123,0,1,1,123-123A123.14,123.14,0,0,1,756,555.05Zm0-234a111,111,0,1,0,111,111A111.13,111.13,0,0,0,756,321.05Z"/><path class="cls-1" d="M433.05,360.29V395h34.7v-34.7Zm29.74,9.91V390H438V365.24h24.78Z"/><polygon class="cls-1" points="333.91 375.16 333.91 380.12 333.91 385.07 348.78 385.07 348.78 380.12 348.78 375.16 348.78 370.2 333.91 370.2 333.91 375.16"/><polygon class="cls-1" points="457.84 380.12 457.84 375.16 457.84 370.2 442.97 370.2 442.97 375.16 442.97 380.12 442.97 385.07 457.84 385.07 457.84 380.12"/><path class="cls-1" d="M358.69,390V360.29H324V395h34.7ZM329,390V365.24h24.79V390Z"/><path class="cls-1" d="M324,474.3v29.75h34.7v-34.7H324Zm29.75,0v24.79H329V474.3Z"/><polygon class="cls-1" points="348.78 489.18 348.78 484.22 348.78 479.26 333.91 479.26 333.91 484.22 333.91 489.18 333.91 494.13 348.78 494.13 348.78 489.18"/><polygon class="cls-1" points="368.61 365.25 378.52 365.25 378.52 370.2 383.48 370.2 383.48 360.29 363.65 360.29 363.65 370.2 368.61 370.2 368.61 365.25 368.61 365.25"/><polygon class="cls-1" points="398.35 370.2 403.31 370.2 403.31 360.29 388.44 360.29 388.44 365.25 398.35 365.25 398.35 370.2 398.35 370.2"/><polygon class="cls-1" points="418.18 365.25 418.18 360.29 408.26 360.29 408.26 365.25 413.22 365.25 413.22 370.2 418.18 370.2 418.18 365.25 418.18 365.25"/><polygon class="cls-1" points="373.56 375.16 373.56 370.2 368.61 370.2 368.61 375.16 373.56 375.16 373.56 375.16"/><polygon class="cls-1" points="393.39 370.2 388.44 370.2 388.44 375.16 393.39 375.16 393.39 370.2 393.39 370.2"/><polygon class="cls-1" points="428.09 370.2 423.14 370.2 423.14 375.16 428.09 375.16 428.09 370.2 428.09 370.2"/><polygon class="cls-1" points="383.48 390.03 383.48 394.99 388.44 394.99 388.44 390.03 393.39 390.03 393.39 394.99 398.35 394.99 398.35 385.07 388.44 385.07 388.44 375.16 378.52 375.16 378.52 385.07 383.48 385.07 383.48 390.03 383.48 390.03"/><polygon class="cls-1" points="403.31 390.03 403.31 394.99 398.35 394.99 398.35 399.94 403.31 399.94 403.31 404.9 408.26 404.9 408.26 390.03 413.22 390.03 413.22 385.07 418.18 385.07 418.18 380.12 423.14 380.12 423.14 375.16 413.22 375.16 413.22 370.2 408.26 370.2 408.26 380.12 403.31 380.12 403.31 375.16 398.35 375.16 398.35 385.07 403.31 385.07 403.31 390.03 403.31 390.03"/><polygon class="cls-1" points="338.86 404.9 338.86 399.94 323.99 399.94 323.99 409.86 333.91 409.86 333.91 404.9 338.86 404.9 338.86 404.9"/><polygon class="cls-1" points="348.78 399.94 348.78 404.9 358.69 404.9 358.69 399.94 348.78 399.94 348.78 399.94"/><polygon class="cls-1" points="447.92 404.9 447.92 399.94 428.09 399.94 428.09 385.07 423.14 385.07 423.14 394.99 418.18 394.99 418.18 390.03 413.22 390.03 413.22 399.94 423.14 399.94 423.14 404.9 413.22 404.9 413.22 409.86 418.18 409.86 418.18 424.73 413.22 424.73 413.22 439.6 418.18 439.6 418.18 434.65 428.09 434.65 428.09 424.73 423.14 424.73 423.14 414.82 428.09 414.82 428.09 404.9 433.05 404.9 433.05 409.86 442.97 409.86 442.97 404.9 447.92 404.9 447.92 404.9"/><polygon class="cls-1" points="457.84 404.9 457.84 409.86 462.8 409.86 462.8 414.82 467.75 414.82 467.75 399.94 457.84 399.94 457.84 404.9 457.84 404.9"/><polygon class="cls-1" points="408.26 414.82 413.22 414.82 413.22 409.86 408.26 409.86 408.26 414.82 408.26 414.82"/><polygon class="cls-1" points="442.97 414.82 447.92 414.82 447.92 419.77 452.88 419.77 452.88 414.82 457.84 414.82 457.84 409.86 442.97 409.86 442.97 414.82 442.97 414.82"/><polygon class="cls-1" points="358.69 424.73 358.69 419.77 353.74 419.77 353.74 424.73 358.69 424.73 358.69 424.73"/><polygon class="cls-1" points="462.8 424.73 457.84 424.73 457.84 429.69 462.8 429.69 462.8 434.65 467.75 434.65 467.75 419.77 462.8 419.77 462.8 424.73 462.8 424.73"/><polygon class="cls-1" points="333.91 429.69 333.91 419.77 323.99 419.77 323.99 434.65 328.95 434.65 328.95 429.69 333.91 429.69 333.91 429.69"/><polygon class="cls-1" points="353.74 429.69 353.74 424.73 348.78 424.73 348.78 434.65 358.69 434.65 358.69 429.69 353.74 429.69 353.74 429.69"/><polygon class="cls-1" points="368.61 434.65 373.56 434.65 373.56 429.69 368.61 429.69 368.61 434.65 368.61 434.65"/><polygon class="cls-1" points="383.48 434.65 383.48 429.69 378.52 429.69 378.52 434.65 383.48 434.65 383.48 434.65"/><polygon class="cls-1" points="333.91 434.65 328.95 434.65 328.95 439.6 333.91 439.6 333.91 434.65 333.91 434.65"/><polygon class="cls-1" points="368.61 434.65 358.69 434.65 358.69 439.6 368.61 439.6 368.61 434.65 368.61 434.65"/><path class="cls-1" d="M433.05,439.6v14.87h-5v-9.91h-4.95v-5h-5v9.92h-5v5h5v5h5v19.83h-5v9.92h5v-5h4.95v5h5v-5H443v9.91h-5v5h-5v5h19.83v-9.92h-5v-4.95h9.92v-5h-5v-5h-5v-9.91h9.92v-5h-5v-5H438v-9.91h5v-5h-5v-5h5v-5h4.95v-5H443v-9.92h-9.92v9.92h5v5h-9.92v5ZM443,464.39v14.87H428.09V464.39Z"/><polygon class="cls-1" points="323.99 439.6 323.99 444.56 328.95 444.56 328.95 439.6 323.99 439.6 323.99 439.6"/><polygon class="cls-1" points="353.74 439.6 353.74 444.56 358.69 444.56 358.69 439.6 353.74 439.6 353.74 439.6"/><polygon class="cls-1" points="333.91 444.56 328.95 444.56 328.95 449.52 323.99 449.52 323.99 454.48 333.91 454.48 333.91 444.56 333.91 444.56"/><polygon class="cls-1" points="353.74 444.56 348.78 444.56 348.78 439.6 343.82 439.6 343.82 419.77 338.86 419.77 338.86 444.56 343.82 444.56 343.82 449.52 348.78 449.52 348.78 454.48 358.69 454.48 358.69 449.52 353.74 449.52 353.74 444.56 353.74 444.56"/><polygon class="cls-1" points="338.86 454.48 333.91 454.48 333.91 459.43 343.82 459.43 343.82 449.52 338.86 449.52 338.86 454.48 338.86 454.48"/><polygon class="cls-1" points="452.88 454.48 452.88 449.52 442.97 449.52 442.97 454.48 452.88 454.48 452.88 454.48"/><polygon class="cls-1" points="462.8 454.48 467.75 454.48 467.75 439.6 462.8 439.6 462.8 444.56 452.88 444.56 452.88 449.52 462.8 449.52 462.8 454.48 462.8 454.48"/><polygon class="cls-1" points="323.99 464.39 333.91 464.39 333.91 459.43 323.99 459.43 323.99 464.39 323.99 464.39"/><polygon class="cls-1" points="358.69 464.39 358.69 459.43 343.82 459.43 343.82 464.39 358.69 464.39 358.69 464.39"/><polygon class="cls-1" points="462.8 459.43 457.84 459.43 457.84 464.39 462.8 464.39 462.8 459.43 462.8 459.43"/><polygon class="cls-1" points="363.65 464.39 363.65 469.35 368.61 469.35 368.61 464.39 363.65 464.39 363.65 464.39"/><polygon class="cls-1" points="373.56 469.35 378.52 469.35 378.52 459.43 388.44 459.43 388.44 454.48 393.39 454.48 393.39 459.43 388.44 459.43 388.44 469.35 398.35 469.35 398.35 479.26 403.31 479.26 403.31 484.22 408.26 484.22 408.26 474.3 413.22 474.3 413.22 479.26 418.18 479.26 418.18 464.39 408.26 464.39 408.26 459.43 403.31 459.43 403.31 449.52 408.26 449.52 408.26 434.65 403.31 434.65 403.31 429.69 408.26 429.69 408.26 414.82 403.31 414.82 403.31 424.73 398.35 424.73 398.35 414.82 403.31 414.82 403.31 404.9 398.35 404.9 398.35 409.86 388.44 409.86 388.44 404.9 393.39 404.9 393.39 394.99 388.44 394.99 388.44 399.94 378.52 399.94 378.52 404.9 383.48 404.9 383.48 414.82 378.52 414.82 378.52 409.86 368.61 409.86 368.61 404.9 373.56 404.9 373.56 394.99 368.61 394.99 368.61 390.03 373.56 390.03 373.56 394.99 378.52 394.99 378.52 385.07 368.61 385.07 368.61 380.12 363.65 380.12 363.65 404.9 358.69 404.9 358.69 409.86 343.82 409.86 343.82 404.9 338.86 404.9 338.86 409.86 333.91 409.86 333.91 414.82 343.82 414.82 343.82 419.77 353.74 419.77 353.74 414.82 363.65 414.82 363.65 419.77 368.61 419.77 368.61 414.82 373.56 414.82 373.56 419.77 368.61 419.77 368.61 424.73 373.56 424.73 373.56 429.69 378.52 429.69 378.52 419.77 388.44 419.77 388.44 414.82 393.39 414.82 393.39 419.77 388.44 419.77 388.44 429.69 398.35 429.69 398.35 439.6 403.31 439.6 403.31 444.56 398.35 444.56 398.35 449.52 388.44 449.52 388.44 444.56 393.39 444.56 393.39 434.65 388.44 434.65 388.44 439.6 378.52 439.6 378.52 434.65 373.56 434.65 373.56 444.56 358.69 444.56 358.69 449.52 378.52 449.52 378.52 444.56 383.48 444.56 383.48 454.48 363.65 454.48 363.65 459.43 368.61 459.43 368.61 464.39 373.56 464.39 373.56 469.35 373.56 469.35"/><polygon class="cls-1" points="383.48 474.3 383.48 469.35 378.52 469.35 378.52 474.3 383.48 474.3 383.48 474.3"/><polygon class="cls-1" points="438.01 469.35 433.05 469.35 433.05 474.3 438.01 474.3 438.01 469.35 438.01 469.35"/><polygon class="cls-1" points="462.8 474.3 457.84 474.3 457.84 484.22 462.8 484.22 462.8 489.18 457.84 489.18 457.84 494.13 467.75 494.13 467.75 464.39 462.8 464.39 462.8 474.3 462.8 474.3"/><polygon class="cls-1" points="373.56 474.3 373.56 469.35 368.61 469.35 368.61 474.3 363.65 474.3 363.65 479.26 368.61 479.26 368.61 484.22 373.56 484.22 373.56 479.26 378.52 479.26 378.52 474.3 373.56 474.3 373.56 474.3"/><polygon class="cls-1" points="413.22 484.22 408.26 484.22 408.26 489.18 403.31 489.18 403.31 484.22 398.35 484.22 398.35 489.18 388.44 489.18 388.44 484.22 393.39 484.22 393.39 474.3 388.44 474.3 388.44 479.26 378.52 479.26 378.52 484.22 383.48 484.22 383.48 494.13 373.56 494.13 373.56 499.09 368.61 499.09 368.61 489.18 363.65 489.18 363.65 504.05 378.52 504.05 378.52 499.09 388.44 499.09 388.44 494.13 393.39 494.13 393.39 499.09 388.44 499.09 388.44 504.05 408.26 504.05 408.26 494.13 413.22 494.13 413.22 499.09 418.18 499.09 418.18 489.18 413.22 489.18 413.22 484.22 413.22 484.22"/><polygon class="cls-1" points="428.09 494.13 428.09 489.18 423.14 489.18 423.14 504.05 428.09 504.05 428.09 499.09 433.05 499.09 433.05 494.13 428.09 494.13 428.09 494.13"/><polygon class="cls-1" points="462.8 504.05 467.75 504.05 467.75 499.09 462.8 499.09 462.8 504.05 462.8 504.05"/><path class="cls-1" d="M684,392.05a5,5,0,0,1-5-5v-27a5,5,0,0,1,5-5h27a5,5,0,0,1,0,10H689v22A5,5,0,0,1,684,392.05Z"/><path class="cls-1" d="M828,392.05a5,5,0,0,1-5-5v-22H801a5,5,0,0,1,0-10h27a5,5,0,0,1,5,5v27A5,5,0,0,1,828,392.05Z"/><path class="cls-1" d="M828,509.05H801a5,5,0,0,1,0-10h22v-22a5,5,0,1,1,10,0v27A5,5,0,0,1,828,509.05Z"/><path class="cls-1" d="M711,509.05H684a5,5,0,0,1-5-5v-27a5,5,0,1,1,10,0v22h22a5,5,0,0,1,0,10Z"/><path class="cls-1" d="M285.8,822.49a4.94,4.94,0,0,1-3.26-1.22,5,5,0,0,1-.53-7A68.35,68.35,0,0,0,282,725a5,5,0,0,1,.07-6.61l63.16-70.14A28.59,28.59,0,0,0,326,600.1L221,705.17a5,5,0,0,1-7.07-7.07L320.47,591.52a5,5,0,0,1,3.46-1.46h.48a38.59,38.59,0,0,1,28.19,65l-60.22,66.88a78.37,78.37,0,0,1-2.79,98.86A5,5,0,0,1,285.8,822.49Z"/></svg>