<?xml version="1.0" encoding="utf-8"?>
<!-- Generator: Adobe Illustrator 22.0.1, SVG Export Plug-In . SVG Version: 6.00 Build 0)  -->
<svg version="1.1" id="Layer_1" xmlns="http://www.w3.org/2000/svg" xmlns:xlink="http://www.w3.org/1999/xlink" x="0px" y="0px"
	 viewBox="0 0 846.8 846.8" style="enable-background:new 0 0 846.8 846.8;" xml:space="preserve">
<style type="text/css">
	.st0{fill:#FFFFFF;}
	.st1{fill:#000F7C;}
</style>
<g>
	<g>
		<circle class="st0" cx="243.5" cy="328.6" r="117"/>
		<path class="st0" d="M243.5,451.6c-67.8,0-123-55.2-123-123s55.2-123,123-123s123,55.2,123,123S311.3,451.6,243.5,451.6z
			 M243.5,217.6c-61.2,0-111,49.8-111,111s49.8,111,111,111s111-49.8,111-111S304.7,217.6,243.5,217.6z"/>
	</g>
	<g>
		<circle class="st0" cx="603.5" cy="328.6" r="117"/>
		<path class="st0" d="M603.5,451.6c-67.8,0-123-55.2-123-123s55.2-123,123-123s123,55.2,123,123S671.3,451.6,603.5,451.6z
			 M603.5,217.6c-61.2,0-111,49.8-111,111s49.8,111,111,111s111-49.8,111-111S664.7,217.6,603.5,217.6z"/>
	</g>
	<g>
		<path class="st1" d="M841.8,739.6c-2.8,0-5-2.2-5-5V601.4c0-37.5-14.6-72.8-41.2-99.4l-51.4-51.4c-2-2-2-5.1,0-7.1s5.1-2,7.1,0
			l51.4,51.4c28.4,28.4,44.1,66.2,44.1,106.4v133.2C846.8,737.4,844.6,739.6,841.8,739.6z"/>
	</g>
	<g>
		<path class="st1" d="M644.4,743.2c-2.8,0-5-2.2-5-5v-23.5c-25.3-13.8-40.9-39.9-40.9-68.8v-30.7c0-2.8,2.2-5,5-5s5,2.2,5,5v30.6
			c0,26.2,14.6,49.7,38.1,61.3c1.7,0.8,2.8,2.6,2.8,4.5v26.6C649.4,740.9,647.2,743.2,644.4,743.2z"/>
	</g>
	<g>
		<path class="st1" d="M603.5,585.7c-12.7,0-23-10.3-23-23s10.3-23,23-23s23,10.3,23,23S616.2,585.7,603.5,585.7z M603.5,549.7
			c-7.2,0-13,5.8-13,13s5.8,13,13,13s13-5.8,13-13S610.7,549.7,603.5,549.7z"/>
	</g>
	<g>
		<path class="st1" d="M711.9,616.7H477.5c-12.4,0-22.5-10.1-22.5-22.5v-468c0-12.4,10.1-22.5,22.5-22.5h252
			c12.4,0,22.5,10.1,22.5,22.5v433.3c0,1.8-1.1,3.5-2.8,4.2s-3.6,0.3-4.9-1l-70.8-71c-15.4,0.7-27.7,13.5-27.7,29.1
			c0,7.4,2.8,14.5,7.8,19.9c0,0,0,0,0.1,0.1l61.6,68.4c1.2,1.3,1.5,3.2,0.8,4.8C715.3,615.6,713.7,616.7,711.9,616.7z M477.5,112.7
			c-7.4,0-13.5,6.1-13.5,13.5v468c0,7.4,6.1,13.5,13.5,13.5h224.3L647,546.8c-6.6-7.1-10.2-16.3-10.2-26c0-21,17.1-38.1,38.1-38.1
			h0.4c1.2,0,2.3,0.5,3.2,1.3l64.5,64.5V126.2c0-7.4-6.1-13.5-13.5-13.5H477.5z"/>
	</g>
	<g>
		<path class="st1" d="M5,739.6c-2.8,0-5-2.2-5-5V601.4c0-40.2,15.7-78,44.1-106.4l50.5-50.5c2-2,5.1-2,7.1,0s2,5.1,0,7.1L51.2,502
			C24.7,528.5,10,563.8,10,601.5v133.2C10,737.4,7.7,739.6,5,739.6z"/>
	</g>
	<g>
		<path class="st1" d="M202.4,743.2c-2.8,0-5-2.2-5-5v-26.5c0-1.9,1.1-3.6,2.8-4.5c23.5-11.6,38.1-35.1,38.1-61.3v-29.2
			c0-2.8,2.2-5,5-5s5,2.2,5,5v29.2c0,29-15.6,55.1-40.9,68.8v23.5C207.4,740.9,205.2,743.2,202.4,743.2z"/>
	</g>
	<g>
		<path class="st1" d="M243.3,585.7c-12.7,0-23-10.3-23-23s10.3-23,23-23s23,10.3,23,23S256,585.7,243.3,585.7z M243.3,549.7
			c-7.2,0-13,5.8-13,13s5.8,13,13,13s13-5.8,13-13S250.5,549.7,243.3,549.7z"/>
	</g>
	<g>
		<path class="st1" d="M369.3,616.7H134.8c-1.8,0-3.4-1-4.1-2.7c-0.7-1.6-0.4-3.5,0.8-4.8l61.6-68.4c5.1-5.5,7.9-12.5,7.9-19.9
			c0-15.6-12.3-28.3-27.7-29.1l-70.8,70.8c-1.3,1.3-3.2,1.7-4.9,1c-1.7-0.7-2.8-2.3-2.8-4.2V126.2c0-12.4,10.1-22.5,22.5-22.5h252
			c12.4,0,22.5,10.1,22.5,22.5v468C391.8,606.6,381.7,616.7,369.3,616.7z M145,607.7h224.3c7.4,0,13.5-6.1,13.5-13.5v-468
			c0-7.4-6.1-13.5-13.5-13.5h-252c-7.4,0-13.5,6.1-13.5,13.5v422.4l64.5-64.5c0.8-0.8,2-1.3,3.2-1.3h0.4c21,0,38.1,17.1,38.1,38.1
			c0,9.7-3.6,18.9-10.3,26L145,607.7z"/>
	</g>
	<g>
		<path class="st1" d="M243.5,447.1c-67.8,0-123-55.2-123-123s55.2-123,123-123s123,55.2,123,123S311.3,447.1,243.5,447.1z
			 M243.5,213.1c-61.2,0-111,49.8-111,111s49.8,111,111,111s111-49.8,111-111S304.7,213.1,243.5,213.1z"/>
	</g>
	<g>
		<path class="st1" d="M603.5,447.1c-67.8,0-123-55.2-123-123s55.2-123,123-123s123,55.2,123,123S671.3,447.1,603.5,447.1z
			 M603.5,213.1c-61.2,0-111,49.8-111,111s49.8,111,111,111s111-49.8,111-111S664.7,213.1,603.5,213.1z"/>
	</g>
	<g>
		<path class="st1" d="M585.5,370.6c-1.5,0-3.1-0.6-4.2-1.8l-40.5-40.5c-2.3-2.3-2.3-6.1,0-8.5c2.3-2.3,6.1-2.3,8.5,0l36.2,36.3
			l76.8-76.8c2.3-2.3,6.1-2.3,8.5,0c2.3,2.3,2.3,6.1,0,8.5l-81,81C588.6,370.1,587,370.6,585.5,370.6z"/>
	</g>
	<g>
		<path class="st1" d="M225.5,370.6c-1.5,0-3.1-0.6-4.2-1.8l-40.5-40.5c-2.3-2.3-2.3-6.1,0-8.5c2.3-2.3,6.1-2.3,8.5,0l36.2,36.3
			l76.8-76.8c2.3-2.3,6.1-2.3,8.5,0c2.3,2.3,2.3,6.1,0,8.5l-81,81C228.6,370.1,227,370.6,225.5,370.6z"/>
	</g>
	<g>
		<g>
			<g>
				<path class="st1" d="M133.3,714.6c-1.2,0-2.3-0.4-3.3-1.2c-2.1-1.8-2.3-5-0.5-7.1c10.7-12.4,16.6-28.2,16.6-44.6
					c0-16.4-5.9-32.2-16.6-44.6c-1.6-1.9-1.6-4.7,0.1-6.6l63.2-70.1c5-5.4,7.8-12.3,7.8-19.6c0-15.2-12-27.7-27-28.6
					c-19.2,19.2-43.4,43.4-64.3,64.4c-17.2,17.2-32.3,32.3-40.7,40.7c-2,2-5.1,2-7.1,0s-2-5.1,0-7.1c8.4-8.4,23.4-23.5,40.7-40.7
					c21.5-21.5,46.4-46.5,65.8-65.9c0.9-0.9,2.2-1.5,3.5-1.5h0.4c21.3,0,38.6,17.3,38.6,38.6c0,9.8-3.7,19.2-10.4,26.4L139.9,614
					c10.5,13.6,16.2,30.4,16.2,47.7c0,18.8-6.7,36.9-19,51.1C136.1,714.1,134.7,714.6,133.3,714.6z"/>
			</g>
		</g>
	</g>
	<g>
		<g>
			<path class="st1" d="M713.5,714.6c-1.4,0-2.8-0.6-3.8-1.7c-12.2-14.2-19-32.4-19-51.1c0-17.3,5.7-34.1,16.2-47.7l-60.3-67
				c-6.6-7.1-10.3-16.5-10.3-26.3c0-21.3,17.3-38.6,38.6-38.6h0.4c1.3,0,2.6,0.5,3.5,1.5c35.8,35.8,88.3,88.3,106.4,106.4
				c2,2,2,5.1,0,7.1s-5.1,2-7.1,0c-17.9-17.9-69.2-69.2-104.9-104.9c-15,0.8-27,13.3-27,28.6c0,7.3,2.7,14.2,7.7,19.5l63.2,70.2
				c1.7,1.9,1.7,4.7,0.1,6.6c-10.7,12.4-16.6,28.2-16.6,44.6c0,16.4,5.9,32.2,16.6,44.6c1.8,2.1,1.6,5.2-0.5,7.1
				C715.8,714.2,714.6,714.6,713.5,714.6z"/>
		</g>
	</g>
</g>
</svg>
