<svg id="OUTLINES" xmlns="http://www.w3.org/2000/svg" viewBox="0 0 1152 1008"><defs><style>.cls-1{fill:#fff;}.cls-2{fill:#000f7c;}</style></defs><title>v5</title><circle class="cls-1" cx="575.99" cy="432" r="117"/><path class="cls-1" d="M576,554.94a122.89,122.89,0,1,1,87-36A122.6,122.6,0,0,1,576,554.94Zm0-233.89a110.91,110.91,0,1,0,78.49,32.46h0A110.65,110.65,0,0,0,576,321.05Z"/><path class="cls-2" d="M117.21,553.77a5,5,0,0,1-3.53-8.54L207.89,451a149.54,149.54,0,0,1,106.44-44.09h41.39a5,5,0,0,1,0,10H314.33A139.61,139.61,0,0,0,215,458.09l-94.21,94.22A5,5,0,0,1,117.21,553.77Z"/><path class="cls-2" d="M254.28,695.87a5,5,0,0,1-3.53-8.53l18.74-18.74a5,5,0,0,1,5.14-1.2A68,68,0,0,0,344.94,651l20.65-20.64a5,5,0,0,1,7.07,7.07L352,658.06a77.92,77.92,0,0,1-77.61,19.76l-16.59,16.59A5,5,0,0,1,254.28,695.87Z"/><path class="cls-2" d="M407.31,618.69A23,23,0,0,1,391,579.44h0a23,23,0,1,1,16.27,39.25Zm-9.2-32.18a13,13,0,1,0,18.39,0,13,13,0,0,0-18.39,0Z"/><path class="cls-2" d="M225.58,626.85a5,5,0,0,1-.36-10,68.35,68.35,0,0,0,63.09-63.09,5,5,0,0,1,4.72-4.62l94.25-4.94a28.6,28.6,0,0,0,20.47-47.63H259.16a5,5,0,0,1,0-10H409.88a5,5,0,0,1,3.49,1.42l.33.33a38.6,38.6,0,0,1-26,65.87l-89.88,4.71A78.37,78.37,0,0,1,226,626.84Z"/><path class="cls-2" d="M576.05,550.16a122.94,122.94,0,1,1,87-36A122.62,122.62,0,0,1,576.05,550.16Zm0-233.89a111,111,0,1,0,78.49,32.46A110.65,110.65,0,0,0,576.05,316.27Z"/><path class="cls-2" d="M653,402.68l-3.51,3.51-3.5,3.5-3.51,3.51-3.5,3.51-3.51,3.5L632,423.72l-3.5,3.5L653,451.76l3.5-3.51,3.51-3.5,3.5-3.51,3.51-3.5,3.5-3.51,3.51-3.5,3.5-3.51Zm14,28.05-3.51,3.5-3.5,3.51-3.51,3.5-3.5,3.51-17.53-17.53,3.51-3.5,3.5-3.51,3.51-3.5,3.5-3.51,3.51-3.51,17.52,17.53Z"/><polygon class="cls-2" points="572.38 343.09 568.87 346.6 565.36 350.11 575.88 360.62 579.38 357.12 582.89 353.61 586.4 350.11 575.88 339.59 572.38 343.09"/><polygon class="cls-2" points="656.5 434.23 660.01 430.73 663.51 427.22 653 416.7 649.49 420.21 645.99 423.72 642.48 427.22 653 437.74 656.5 434.23"/><path class="cls-2" d="M579.39,371.14l3.5-3.51,3.51-3.5,3.5-3.51,3.51-3.5,3.5-3.51,3.51-3.51-24.54-24.53-3.51,3.5-3.5,3.51-3.51,3.5-3.5,3.51-3.51,3.5-3.5,3.51-3.51,3.5,24.54,24.54Zm-21-21,3.51-3.5,3.5-3.51,3.51-3.5,3.5-3.51,3.51-3.5,17.53,17.52-3.51,3.51-3.5,3.51-3.51,3.5-3.5,3.51-3.51,3.5Z"/><path class="cls-2" d="M495.26,406.19l-3.51,3.5-3.5,3.51-3.51,3.51-3.5,3.5-3.51,3.51-3.5,3.5,24.53,24.54,3.51-3.51,3.5-3.5,3.51-3.51,3.5-3.5,3.51-3.51,3.51-3.5,3.5-3.51-24.54-24.54Zm21,21-3.51,3.51-3.5,3.5-3.51,3.51-3.5,3.5-3.51,3.51-17.52-17.53,3.5-3.5,3.51-3.51,3.5-3.5,3.51-3.51,3.5-3.51Z"/><polygon class="cls-2" points="502.27 434.23 505.77 430.73 509.28 427.22 498.76 416.7 495.26 420.21 491.75 423.72 488.25 427.22 498.76 437.74 502.27 434.23"/><polygon class="cls-2" points="603.92 360.62 610.93 367.63 607.43 371.14 610.93 374.64 617.94 367.63 603.92 353.61 596.91 360.62 600.42 364.13 603.92 360.62 603.92 360.62"/><polygon class="cls-2" points="621.45 385.16 624.95 388.66 631.97 381.65 621.45 371.14 617.94 374.64 624.95 381.65 621.45 385.16 621.45 385.16"/><polygon class="cls-2" points="638.98 395.67 642.48 392.17 635.47 385.16 631.97 388.66 635.47 392.17 631.97 395.67 635.47 399.18 638.98 395.67 638.98 395.67"/><polygon class="cls-2" points="600.42 371.14 603.92 367.63 600.42 364.13 596.91 367.63 600.42 371.14 600.42 371.14"/><polygon class="cls-2" points="617.94 381.65 614.44 378.15 610.93 381.65 614.44 385.16 617.94 381.65 617.94 381.65"/><polygon class="cls-2" points="642.48 406.19 638.98 402.68 635.47 406.19 638.98 409.69 642.48 406.19 642.48 406.19"/><polygon class="cls-2" points="596.91 388.66 593.41 392.17 596.91 395.67 600.42 392.17 603.92 395.67 600.42 399.18 603.92 402.68 610.93 395.67 603.92 388.66 610.93 381.65 603.92 374.64 596.91 381.65 600.42 385.16 596.91 388.66 596.91 388.66"/><polygon class="cls-2" points="610.93 402.68 607.43 406.19 603.92 402.68 600.42 406.19 603.92 409.69 600.42 413.2 603.92 416.7 614.44 406.19 617.94 409.69 621.45 406.19 624.95 409.69 628.46 406.19 631.97 409.69 635.47 406.19 628.46 399.18 631.97 395.67 628.46 392.17 621.45 399.18 617.94 395.67 621.45 392.17 617.94 388.66 610.93 395.67 614.44 399.18 610.93 402.68 610.93 402.68"/><polygon class="cls-2" points="554.85 367.63 558.35 364.13 547.84 353.61 540.83 360.62 547.84 367.63 551.34 364.13 554.85 367.63 554.85 367.63"/><polygon class="cls-2" points="565.36 371.14 561.86 374.64 568.87 381.65 572.38 378.15 565.36 371.14 565.36 371.14"/><polygon class="cls-2" points="631.97 444.75 635.47 441.24 621.45 427.22 631.97 416.7 628.46 413.2 621.45 420.21 617.94 416.7 621.45 413.2 617.94 409.69 610.93 416.7 617.94 423.72 614.44 427.22 607.43 420.21 603.92 423.72 607.43 427.22 596.91 437.74 593.41 434.23 582.89 444.75 586.4 448.25 589.9 444.75 596.91 451.76 603.92 444.75 600.42 441.24 607.43 434.23 610.93 437.74 617.94 430.73 621.45 434.23 617.94 437.74 624.95 444.75 628.46 441.24 631.97 444.75 631.97 444.75"/><polygon class="cls-2" points="638.98 451.76 635.47 455.26 638.98 458.77 635.47 462.27 638.98 465.78 649.49 455.26 642.48 448.25 638.98 451.76 638.98 451.76"/><polygon class="cls-2" points="596.91 423.72 600.42 427.22 603.92 423.72 600.42 420.21 596.91 423.72 596.91 423.72"/><polygon class="cls-2" points="621.45 448.25 624.95 451.76 621.45 455.26 624.95 458.77 628.46 455.26 631.97 458.77 635.47 455.26 624.95 444.75 621.45 448.25 621.45 448.25"/><polygon class="cls-2" points="554.85 395.67 558.35 392.17 554.85 388.66 551.34 392.17 554.85 395.67 554.85 395.67"/><polygon class="cls-2" points="628.46 469.28 624.95 465.78 621.45 469.28 624.95 472.79 621.45 476.3 624.95 479.8 635.47 469.28 631.97 465.78 628.46 469.28 628.46 469.28"/><polygon class="cls-2" points="533.82 381.65 540.83 374.64 533.82 367.63 523.3 378.15 526.81 381.65 530.31 378.15 533.82 381.65 533.82 381.65"/><polygon class="cls-2" points="547.84 395.67 551.34 392.17 547.84 388.66 540.83 395.67 547.84 402.68 551.34 399.18 547.84 395.67 547.84 395.67"/><polygon class="cls-2" points="554.85 409.69 558.35 413.2 561.86 409.69 558.35 406.19 554.85 409.69 554.85 409.69"/><polygon class="cls-2" points="565.36 420.21 568.87 416.7 565.36 413.2 561.86 416.7 565.36 420.21 565.36 420.21"/><polygon class="cls-2" points="530.31 385.16 526.81 381.65 523.3 385.16 526.81 388.66 530.31 385.16 530.31 385.16"/><polygon class="cls-2" points="554.85 409.69 547.84 402.68 544.33 406.19 551.34 413.2 554.85 409.69 554.85 409.69"/><path class="cls-2" d="M596.91,458.77,586.4,469.28l-3.51-3.5,7-7-3.5-3.51,3.5-3.5-3.5-3.51-7,7-3.51-3.5-3.51,3.5,3.51,3.51-3.51,3.5,3.51,3.51-14,14-3.51-3.5-7,7,3.51,3.5,3.5-3.5,3.51,3.5-3.51,3.51,3.51,3.5,3.5-3.5,7,7-7,7-3.5-3.51-3.51,3.51-3.5-3.51-3.51,3.51,14,14,7-7-3.5-3.51,3.5-3.5,7,7,3.5-3.51-3.5-3.5,3.5-3.51-3.5-3.5,7-7,7,7,3.5-3.51-3.5-3.5,3.5-3.51L586.4,476.3l7-7,3.5,3.51,3.51-3.51-3.51-3.5,3.51-3.51,3.5,3.51,3.51-3.51,3.5,3.51,3.51-3.51-3.51-3.5,7-7-7-7-7,7,3.51,3.5-3.51,3.51-7-7-3.5,3.5,3.5,3.51ZM586.4,483.31l-10.52,10.51-10.52-10.51,10.52-10.52,10.52,10.52Z"/><polygon class="cls-2" points="519.79 381.65 516.29 385.16 519.79 388.66 523.3 385.16 519.79 381.65 519.79 381.65"/><polygon class="cls-2" points="540.83 402.68 537.32 406.19 540.83 409.69 544.33 406.19 540.83 402.68 540.83 402.68"/><polygon class="cls-2" points="523.3 392.17 519.79 388.66 516.29 392.17 512.78 388.66 509.28 392.17 516.29 399.18 523.3 392.17 523.3 392.17"/><polygon class="cls-2" points="537.32 406.19 533.82 402.68 537.32 399.18 533.82 395.67 547.84 381.65 544.33 378.15 526.81 395.67 530.31 399.18 526.81 402.68 530.31 406.19 526.81 409.69 533.82 416.7 537.32 413.2 533.82 409.69 537.32 406.19 537.32 406.19"/><polygon class="cls-2" points="519.79 402.68 516.29 399.18 512.78 402.68 519.79 409.69 526.81 402.68 523.3 399.18 519.79 402.68 519.79 402.68"/><polygon class="cls-2" points="600.42 483.31 603.92 479.8 596.91 472.79 593.41 476.3 600.42 483.31 600.42 483.31"/><polygon class="cls-2" points="607.43 490.32 610.93 493.82 621.45 483.31 617.94 479.8 614.44 483.31 607.43 476.3 603.92 479.8 610.93 486.81 607.43 490.32 607.43 490.32"/><polygon class="cls-2" points="502.27 399.18 509.28 406.19 512.78 402.68 505.77 395.67 502.27 399.18 502.27 399.18"/><polygon class="cls-2" points="526.81 423.72 530.31 420.21 519.79 409.69 516.29 413.2 526.81 423.72 526.81 423.72"/><polygon class="cls-2" points="603.92 493.82 600.42 490.32 596.91 493.82 600.42 497.33 603.92 493.82 603.92 493.82"/><polygon class="cls-2" points="530.31 427.22 526.81 430.73 530.31 434.23 533.82 430.73 530.31 427.22 530.31 427.22"/><polygon class="cls-2" points="533.82 437.74 537.32 441.24 544.33 434.23 551.34 441.24 554.85 437.74 558.35 441.24 554.85 444.75 551.34 441.24 544.33 448.25 551.34 455.26 544.33 462.27 547.84 465.78 544.33 469.28 547.84 472.79 554.85 465.78 558.35 469.28 554.85 472.79 558.35 476.3 568.87 465.78 561.86 458.77 565.36 455.26 561.86 451.76 568.87 444.75 572.38 448.25 582.89 437.74 579.38 434.23 582.89 430.73 586.4 434.23 596.91 423.72 593.41 420.21 586.4 427.22 582.89 423.72 589.9 416.7 593.41 420.21 600.42 413.2 596.91 409.69 593.41 413.2 586.4 406.19 589.9 402.68 593.41 406.19 600.42 399.18 596.91 395.67 593.41 399.18 586.4 392.17 582.89 395.67 586.4 399.18 579.38 406.19 575.88 402.68 579.38 399.18 572.38 392.17 575.88 388.66 579.38 392.17 586.4 385.16 582.89 381.65 586.4 378.15 589.9 381.65 586.4 385.16 589.9 388.66 596.91 381.65 589.9 374.64 593.41 371.14 589.9 367.63 572.38 385.16 568.87 381.65 565.36 385.16 554.85 374.64 558.35 371.14 554.85 367.63 551.34 371.14 547.84 367.63 544.33 371.14 551.34 378.15 547.84 381.65 554.85 388.66 558.35 385.16 565.36 392.17 561.86 395.67 565.36 399.18 568.87 395.67 572.38 399.18 568.87 402.68 565.36 399.18 561.86 402.68 565.36 406.19 561.86 409.69 565.36 413.2 572.38 406.19 579.38 413.2 582.89 409.69 586.4 413.2 582.89 416.7 579.38 413.2 572.38 420.21 579.38 427.22 572.38 434.23 575.88 437.74 572.38 441.24 568.87 437.74 565.36 441.24 558.35 434.23 561.86 430.73 565.36 434.23 572.38 427.22 568.87 423.72 565.36 427.22 558.35 420.21 561.86 416.7 558.35 413.2 551.34 420.21 540.83 409.69 537.32 413.2 551.34 427.22 554.85 423.72 558.35 427.22 551.34 434.23 537.32 420.21 533.82 423.72 537.32 427.22 533.82 430.73 537.32 434.23 533.82 437.74 533.82 437.74"/><polygon class="cls-2" points="537.32 448.25 540.83 444.75 537.32 441.24 533.82 444.75 537.32 448.25 537.32 448.25"/><polygon class="cls-2" points="579.38 483.31 575.88 479.8 572.38 483.31 575.88 486.81 579.38 483.31 579.38 483.31"/><polygon class="cls-2" points="593.41 504.34 589.9 500.83 582.89 507.84 586.4 511.35 582.89 514.85 579.38 511.35 575.88 514.85 582.89 521.86 603.92 500.83 600.42 497.33 593.41 504.34 593.41 504.34"/><polygon class="cls-2" points="530.31 441.24 533.82 437.74 530.31 434.23 526.81 437.74 523.3 434.23 519.79 437.74 523.3 441.24 519.79 444.75 523.3 448.25 526.81 444.75 530.31 448.25 533.82 444.75 530.31 441.24 530.31 441.24"/><polygon class="cls-2" points="551.34 476.3 547.84 472.79 544.33 476.3 540.83 472.79 544.33 469.28 540.83 465.78 537.32 469.28 530.31 462.27 533.82 458.77 537.32 462.27 544.33 455.26 540.83 451.76 537.32 455.26 530.31 448.25 526.81 451.76 530.31 455.26 523.3 462.27 516.29 455.26 512.78 458.77 509.28 455.26 516.29 448.25 512.78 444.75 502.27 455.26 512.78 465.78 516.29 462.27 523.3 469.28 526.81 465.78 530.31 469.28 526.81 472.79 523.3 469.28 519.79 472.79 533.82 486.81 540.83 479.8 544.33 483.31 540.83 486.81 544.33 490.32 551.34 483.31 547.84 479.8 551.34 476.3 551.34 476.3"/><polygon class="cls-2" points="554.85 493.82 558.35 490.32 554.85 486.81 544.33 497.33 547.84 500.83 551.34 497.33 554.85 500.83 558.35 497.33 554.85 493.82 554.85 493.82"/><polygon class="cls-2" points="572.38 525.37 575.88 528.87 579.38 525.37 575.88 521.86 572.38 525.37 572.38 525.37"/><path class="cls-2" d="M1034.79,553.94a5,5,0,0,1-3.54-1.47L937,458.26a139.61,139.61,0,0,0-99.37-41.16h-72a5,5,0,0,1,0-10h72a149.54,149.54,0,0,1,106.44,44.09l94.21,94.21a5,5,0,0,1-3.53,8.54Z"/><path class="cls-2" d="M897.72,696a5,5,0,0,1-3.54-1.46L877.59,678A77.92,77.92,0,0,1,800,658.23l-21.64-21.65a5,5,0,0,1,7.07-7.07l21.65,21.65a68,68,0,0,0,70.31,16.41,5,5,0,0,1,5.14,1.2l18.74,18.73a5,5,0,0,1-3.53,8.54Z"/><path class="cls-2" d="M744.69,618.87A23,23,0,1,1,761,579.6h0a23,23,0,0,1-16.27,39.27Zm0-36a13,13,0,1,0,9.2,3.8A13,13,0,0,0,744.69,582.87Z"/><path class="cls-2" d="M677.87,729.74a22.36,22.36,0,0,1-15.91-6.6L331,392.22a22.5,22.5,0,0,1,0-31.82L509.23,182.21a22.53,22.53,0,0,1,31.82,0L847.41,488.57a4.49,4.49,0,0,1-3.18,7.68H744a29.1,29.1,0,0,0,20.57,48.62h.09l91.93,4.82a4.5,4.5,0,0,1,2.94,7.68L693.78,723.15A22.39,22.39,0,0,1,677.87,729.74ZM525.14,184.62a13.47,13.47,0,0,0-9.55,3.95L337.4,366.76a13.51,13.51,0,0,0,0,19.09L668.33,716.78a13.48,13.48,0,0,0,19.09,0L846.05,558.15l-81.79-4.29a38.09,38.09,0,0,1-25.61-65l.32-.32a4.51,4.51,0,0,1,3.15-1.28h91.24L534.68,188.57A13.45,13.45,0,0,0,525.14,184.62Z"/><path class="cls-2" d="M926.42,627l-.37,0a78.34,78.34,0,0,1-71.88-67.92l-90-4.72A38.59,38.59,0,0,1,738.3,488.5l.32-.32a5,5,0,0,1,3.5-1.43H892.84a5,5,0,1,1,0,10H744.25a28.59,28.59,0,0,0,20.37,47.62L859,549.31a5,5,0,0,1,4.72,4.63A68.35,68.35,0,0,0,926.78,617a5,5,0,0,1-.36,10Z"/><path class="cls-2" d="M576.08,550.25a123,123,0,1,1,87-36A122.19,122.19,0,0,1,576.08,550.25Zm0-234a111,111,0,1,0,78.49,32.52A110.27,110.27,0,0,0,576.08,316.25Z"/><path class="cls-2" d="M493.35,451.35a5,5,0,0,1-3.53-1.47l-19.1-19.09a5,5,0,0,1,0-7.07l19.1-19.09a5,5,0,1,1,7.07,7.07l-15.56,15.55,15.56,15.56a5,5,0,0,1-3.54,8.54Z"/><path class="cls-2" d="M595.18,349.52a5,5,0,0,1-3.54-1.46L576.08,332.5l-15.55,15.56a5,5,0,0,1-7.07-7.07l19.09-19.09a5,5,0,0,1,7.07,0L598.71,341a5,5,0,0,1-3.53,8.53Z"/><path class="cls-2" d="M658.81,451.35a5,5,0,0,1-3.53-8.54l15.56-15.56L655.28,411.7a5,5,0,0,1,7.07-7.07l19.09,19.09a5,5,0,0,1,0,7.07l-19.09,19.09A5,5,0,0,1,658.81,451.35Z"/><path class="cls-2" d="M576.08,534.08a5,5,0,0,1-3.53-1.47l-19.09-19.09a5,5,0,0,1,7.07-7.07L576.08,522l15.56-15.56a5,5,0,0,1,7.07,7.07l-19.09,19.09A5,5,0,0,1,576.08,534.08Z"/><path class="cls-2" d="M797.73,415.28l-6.36-6.36,23.23-23.23a13.51,13.51,0,0,0,0-19.09L636.41,188.41a13.5,13.5,0,0,0-19.09,0l-38,38-6.36-6.36,38-38a22.53,22.53,0,0,1,31.82,0L821,360.23a22.5,22.5,0,0,1,0,31.82Z"/><path class="cls-2" d="M474.13,729.56A22.45,22.45,0,0,1,458.22,723L292.44,557.2a4.5,4.5,0,0,1,2.94-7.68l91.93-4.81A29.1,29.1,0,0,0,408,496.08H307.77a4.5,4.5,0,0,1-3.18-7.69l64.5-64.49a4.49,4.49,0,0,1,6.36,0L579.1,627.55a4.5,4.5,0,0,1,0,6.37L490,723A22.47,22.47,0,0,1,474.13,729.56ZM306,558,464.58,716.61a13.48,13.48,0,0,0,19.09,0l85.88-85.88L372.27,433.45l-53.63,53.64h91.24a4.5,4.5,0,0,1,3.14,1.28l.33.32a38.1,38.1,0,0,1-25.66,65Z"/></svg>