<?xml version="1.0" encoding="utf-8"?>
<!-- Generator: Adobe Illustrator 22.0.1, SVG Export Plug-In . SVG Version: 6.00 Build 0)  -->
<svg version="1.1" id="Layer_1" xmlns="http://www.w3.org/2000/svg" xmlns:xlink="http://www.w3.org/1999/xlink" x="0px" y="0px"
	 viewBox="0 0 1224 1224" style="enable-background:new 0 0 1224 1224;" xml:space="preserve">
<style type="text/css">
	.st0{fill:#FFFFFF;}
	.st1{fill:#000F7C;}
</style>
<g>
	<rect x="360" y="436.5" class="st0" width="144" height="144"/>
</g>
<g>
	<path class="st1" d="M1030.3,919.4c-2.8,0-5-2.2-5-5V781.2c0-37.5-14.6-72.8-41.2-99.4l-51.4-51.4c-2-2-2-5.1,0-7.1
		c2-2,5.1-2,7.1,0l51.4,51.4c28.4,28.4,44.1,66.2,44.1,106.4v133.2C1035.3,917.2,1033.1,919.4,1030.3,919.4z"/>
</g>
<g>
	<path class="st1" d="M832.9,923c-2.8,0-5-2.2-5-5l0-23.5c-25.3-13.8-40.9-39.9-40.9-68.8V795c0-2.8,2.2-5,5-5s5,2.2,5,5v30.6
		c0,26.2,14.6,49.7,38.1,61.3c1.7,0.8,2.8,2.6,2.8,4.5l0,26.5C837.9,920.7,835.7,923,832.9,923z"/>
</g>
<g>
	<path class="st1" d="M792,765.5c-12.7,0-23-10.3-23-23s10.3-23,23-23s23,10.3,23,23S804.7,765.5,792,765.5z M792,729.5
		c-7.2,0-13,5.8-13,13s5.8,13,13,13s13-5.8,13-13S799.2,729.5,792,729.5z"/>
</g>
<g>
	<path class="st1" d="M900.4,796.5H666c-12.4,0-22.5-10.1-22.5-22.5V306c0-12.4,10.1-22.5,22.5-22.5h252c12.4,0,22.5,10.1,22.5,22.5
		v433.3c0,1.8-1.1,3.5-2.8,4.2c-1.7,0.7-3.6,0.3-4.9-1L862,671.5c-15.4,0.7-27.7,13.5-27.7,29.1c0,7.4,2.8,14.5,7.8,19.9
		c0,0,0,0,0.1,0.1l61.6,68.4c1.2,1.3,1.5,3.2,0.8,4.8C903.8,795.4,902.2,796.5,900.4,796.5z M666,292.5c-7.4,0-13.5,6.1-13.5,13.5
		v468c0,7.4,6.1,13.5,13.5,13.5h224.3l-54.8-60.9c-6.6-7.1-10.2-16.3-10.2-26c0-21,17.1-38.1,38.1-38.1l0.4,0c1.2,0,2.3,0.5,3.1,1.3
		l64.5,64.5V306c0-7.4-6.1-13.5-13.5-13.5H666z"/>
</g>
<g>
	<path class="st1" d="M193.5,919.4c-2.8,0-5-2.2-5-5V781.2c0-40.2,15.7-78,44.1-106.4l50.5-50.5c2-2,5.1-2,7.1,0c2,2,2,5.1,0,7.1
		l-50.5,50.5c-26.5,26.5-41.2,61.8-41.2,99.4v133.2C198.5,917.2,196.2,919.4,193.5,919.4z"/>
</g>
<g>
	<path class="st1" d="M390.9,923L390.9,923c-2.8,0-5-2.2-5-5l0-26.5c0-1.9,1.1-3.6,2.8-4.5c23.5-11.6,38.1-35.1,38.1-61.3v-29.2
		c0-2.8,2.2-5,5-5s5,2.2,5,5v29.2c0,29-15.6,55.1-40.9,68.8l0,23.5C395.9,920.7,393.7,923,390.9,923z"/>
</g>
<g>
	<path class="st1" d="M431.8,765.5c-12.7,0-23-10.3-23-23s10.3-23,23-23s23,10.3,23,23S444.5,765.5,431.8,765.5z M431.8,729.5
		c-7.2,0-13,5.8-13,13s5.8,13,13,13s13-5.8,13-13S439,729.5,431.8,729.5z"/>
</g>
<g>
	<path class="st1" d="M557.8,796.5H323.3c-1.8,0-3.4-1-4.1-2.7c-0.7-1.6-0.4-3.5,0.8-4.8l61.6-68.4c5.1-5.5,7.9-12.5,7.9-19.9
		c0-15.6-12.3-28.3-27.7-29.1L291,742.4c-1.3,1.3-3.2,1.7-4.9,1c-1.7-0.7-2.8-2.3-2.8-4.2V306c0-12.4,10.1-22.5,22.5-22.5h252
		c12.4,0,22.5,10.1,22.5,22.5v468C580.3,786.4,570.2,796.5,557.8,796.5z M333.5,787.5h224.3c7.4,0,13.5-6.1,13.5-13.5V306
		c0-7.4-6.1-13.5-13.5-13.5h-252c-7.4,0-13.5,6.1-13.5,13.5v422.4l64.5-64.5c0.8-0.8,2-1.3,3.1-1.3l0.4,0c21,0,38.1,17.1,38.1,38.1
		c0,9.7-3.6,18.9-10.3,26L333.5,787.5z"/>
</g>
<g>
	<g>
		<path class="st1" d="M321.8,894.4c-1.2,0-2.3-0.4-3.3-1.2c-2.1-1.8-2.3-5-0.5-7.1c10.7-12.4,16.6-28.2,16.6-44.6
			c0-16.4-5.9-32.2-16.6-44.6c-1.6-1.9-1.6-4.7,0.1-6.6l63.2-70.1c5-5.4,7.8-12.3,7.8-19.6c0-15.2-12-27.7-27-28.6
			c-19.2,19.2-43.4,43.4-64.3,64.4c-17.2,17.2-32.3,32.3-40.7,40.7c-2,2-5.1,2-7.1,0c-2-2-2-5.1,0-7.1c8.4-8.4,23.4-23.5,40.7-40.7
			c21.5-21.5,46.4-46.5,65.8-65.9c0.9-0.9,2.2-1.5,3.5-1.5l0.4,0c21.3,0,38.6,17.3,38.6,38.6c0,9.8-3.7,19.2-10.4,26.4l-60.2,66.9
			c10.5,13.6,16.2,30.4,16.2,47.7c0,18.8-6.7,36.9-19,51.1C324.6,893.9,323.2,894.4,321.8,894.4z"/>
	</g>
</g>
<g>
	<path class="st1" d="M902,894.4c-1.4,0-2.8-0.6-3.8-1.7c-12.2-14.2-19-32.4-19-51.1c0-17.3,5.7-34.1,16.2-47.7l-60.3-67
		c-6.6-7.1-10.3-16.5-10.3-26.3c0-21.3,17.3-38.6,38.6-38.6l0.4,0c1.3,0,2.6,0.5,3.5,1.5c35.8,35.8,88.3,88.3,106.4,106.4
		c2,2,2,5.1,0,7.1c-2,2-5.1,2-7.1,0c-17.9-17.9-69.2-69.2-104.9-104.9c-15,0.8-27,13.3-27,28.6c0,7.3,2.7,14.2,7.7,19.5l63.2,70.2
		c1.7,1.9,1.7,4.7,0.1,6.6c-10.7,12.4-16.6,28.2-16.6,44.6c0,16.4,5.9,32.2,16.6,44.6c1.8,2.1,1.6,5.2-0.5,7.1
		C904.3,894,903.1,894.4,902,894.4z"/>
</g>
<g>
	<path class="st1" d="M432,627c-67.8,0-123-55.2-123-123s55.2-123,123-123s123,55.2,123,123S499.8,627,432,627z M432,393
		c-61.2,0-111,49.8-111,111s49.8,111,111,111s111-49.8,111-111S493.2,393,432,393z"/>
</g>
<g>
	<path class="st1" d="M792,627c-67.8,0-123-55.2-123-123s55.2-123,123-123s123,55.2,123,123S859.8,627,792,627z M792,393
		c-61.2,0-111,49.8-111,111s49.8,111,111,111s111-49.8,111-111S853.2,393,792,393z"/>
</g>
<g>
	<g>
		<path class="st1" d="M469,432.2v5v5v5v5v5v5v5h34.7v-5v-5v-5v-5v-5v-5v-5H469z M498.8,442.2v5v5v5v5H474v-5v-5v-5v-5v-5h24.8
			V442.2z"/>
	</g>
	<g>
		<polygon class="st1" points="369.9,447.1 369.9,452.1 369.9,457 384.8,457 384.8,452.1 384.8,447.1 384.8,442.2 369.9,442.2 		"/>
	</g>
	<g>
		<polygon class="st1" points="493.8,452.1 493.8,447.1 493.8,442.2 479,442.2 479,447.1 479,452.1 479,457 493.8,457 		"/>
	</g>
	<g>
		<path class="st1" d="M394.7,462v-5v-5v-5v-5v-5v-5H360v5v5v5v5v5v5v5h34.7V462z M364.9,462v-5v-5v-5v-5v-5h24.8v5v5v5v5v5H364.9z"
			/>
	</g>
	<g>
		<path class="st1" d="M360,546.3v5v5v5v5v5v5h34.7v-5v-5v-5v-5v-5v-5v-5H360V546.3z M389.7,546.3v5v5v5v5v5h-24.8v-5v-5v-5v-5v-5
			H389.7z"/>
	</g>
	<g>
		<polygon class="st1" points="384.8,561.1 384.8,556.2 384.8,551.2 369.9,551.2 369.9,556.2 369.9,561.1 369.9,566.1 384.8,566.1 
					"/>
	</g>
	<g>
		<g>
			<polygon class="st1" points="404.6,437.2 414.5,437.2 414.5,442.2 419.5,442.2 419.5,432.2 399.6,432.2 399.6,442.2 404.6,442.2 
				404.6,437.2 			"/>
		</g>
		<g>
			<polygon class="st1" points="434.3,442.2 439.3,442.2 439.3,432.2 424.4,432.2 424.4,437.2 434.3,437.2 434.3,442.2 			"/>
		</g>
		<g>
			<polygon class="st1" points="454.2,437.2 454.2,432.2 444.3,432.2 444.3,437.2 449.2,437.2 449.2,442.2 454.2,442.2 454.2,437.2 
							"/>
		</g>
		<g>
			<polygon class="st1" points="409.6,447.1 409.6,442.2 404.6,442.2 404.6,447.1 409.6,447.1 			"/>
		</g>
		<g>
			<polygon class="st1" points="429.4,442.2 424.4,442.2 424.4,447.1 429.4,447.1 429.4,442.2 			"/>
		</g>
		<g>
			<polygon class="st1" points="464.1,442.2 459.1,442.2 459.1,447.1 464.1,447.1 464.1,442.2 			"/>
		</g>
		<g>
			<polygon class="st1" points="419.5,462 419.5,466.9 424.4,466.9 424.4,462 429.4,462 429.4,466.9 434.3,466.9 434.3,457 
				424.4,457 424.4,447.1 414.5,447.1 414.5,457 419.5,457 419.5,462 			"/>
		</g>
		<g>
			<polygon class="st1" points="439.3,462 439.3,466.9 434.3,466.9 434.3,471.9 439.3,471.9 439.3,476.9 444.3,476.9 444.3,462 
				449.2,462 449.2,457 454.2,457 454.2,452.1 459.1,452.1 459.1,447.1 449.2,447.1 449.2,442.2 444.3,442.2 444.3,452.1 
				439.3,452.1 439.3,447.1 434.3,447.1 434.3,457 439.3,457 439.3,462 			"/>
		</g>
		<g>
			<polygon class="st1" points="374.9,476.9 374.9,471.9 360,471.9 360,481.8 369.9,481.8 369.9,476.9 374.9,476.9 			"/>
		</g>
		<g>
			<polygon class="st1" points="384.8,471.9 384.8,476.9 394.7,476.9 394.7,471.9 384.8,471.9 			"/>
		</g>
		<g>
			<polygon class="st1" points="483.9,476.9 483.9,471.9 464.1,471.9 464.1,457 459.1,457 459.1,466.9 454.2,466.9 454.2,462 
				449.2,462 449.2,471.9 459.1,471.9 459.1,476.9 449.2,476.9 449.2,481.8 454.2,481.8 454.2,496.7 449.2,496.7 449.2,511.6 
				454.2,511.6 454.2,506.6 464.1,506.6 464.1,496.7 459.1,496.7 459.1,486.8 464.1,486.8 464.1,476.9 469,476.9 469,481.8 
				479,481.8 479,476.9 483.9,476.9 			"/>
		</g>
		<g>
			<polygon class="st1" points="493.8,476.9 493.8,481.8 498.8,481.8 498.8,486.8 503.7,486.8 503.7,471.9 493.8,471.9 493.8,476.9 
							"/>
		</g>
		<g>
			<polygon class="st1" points="444.3,486.8 449.2,486.8 449.2,481.8 444.3,481.8 444.3,486.8 			"/>
		</g>
		<g>
			<polygon class="st1" points="479,486.8 483.9,486.8 483.9,491.7 488.9,491.7 488.9,486.8 493.8,486.8 493.8,481.8 479,481.8 
				479,486.8 			"/>
		</g>
		<g>
			<polygon class="st1" points="394.7,496.7 394.7,491.7 389.7,491.7 389.7,496.7 394.7,496.7 			"/>
		</g>
		<g>
			<polygon class="st1" points="498.8,496.7 493.8,496.7 493.8,501.6 498.8,501.6 498.8,506.6 503.7,506.6 503.7,491.7 498.8,491.7 
				498.8,496.7 			"/>
		</g>
		<g>
			<polygon class="st1" points="369.9,501.6 369.9,491.7 360,491.7 360,506.6 364.9,506.6 364.9,501.6 369.9,501.6 			"/>
		</g>
		<g>
			<polygon class="st1" points="389.7,501.6 389.7,496.7 384.8,496.7 384.8,506.6 394.7,506.6 394.7,501.6 389.7,501.6 			"/>
		</g>
		<g>
			<polygon class="st1" points="404.6,506.6 409.6,506.6 409.6,501.6 404.6,501.6 404.6,506.6 			"/>
		</g>
		<g>
			<polygon class="st1" points="419.5,506.6 419.5,501.6 414.5,501.6 414.5,506.6 419.5,506.6 			"/>
		</g>
		<g>
			<polygon class="st1" points="369.9,506.6 364.9,506.6 364.9,511.6 369.9,511.6 369.9,506.6 			"/>
		</g>
		<g>
			<polygon class="st1" points="404.6,506.6 394.7,506.6 394.7,511.6 404.6,511.6 404.6,506.6 			"/>
		</g>
		<g>
			<path class="st1" d="M469,511.6v14.9h-5v-9.9h-5v-5h-5v9.9h-5v5h5v5h5v19.8h-5v9.9h5v-5h5v5h5v-5h9.9v9.9h-5v5h-5v5h19.8v-9.9h-5
				v-5h9.9v-5h-5v-5h-5v-9.9h9.9v-5h-5v-5H474v-9.9h5v-5h-5v-5h5v-5h5v-5h-5v-9.9H469v9.9h5v5h-9.9v5H469L469,511.6z M479,536.3
				v14.9h-14.9v-14.9H479L479,536.3z"/>
		</g>
		<g>
			<polygon class="st1" points="360,511.6 360,516.5 364.9,516.5 364.9,511.6 360,511.6 			"/>
		</g>
		<g>
			<polygon class="st1" points="389.7,511.6 389.7,516.5 394.7,516.5 394.7,511.6 389.7,511.6 			"/>
		</g>
		<g>
			<polygon class="st1" points="369.9,516.5 364.9,516.5 364.9,521.5 360,521.5 360,526.4 369.9,526.4 369.9,516.5 			"/>
		</g>
		<g>
			<polygon class="st1" points="389.7,516.5 384.8,516.5 384.8,511.6 379.8,511.6 379.8,491.7 374.9,491.7 374.9,516.5 379.8,516.5 
				379.8,521.5 384.8,521.5 384.8,526.4 394.7,526.4 394.7,521.5 389.7,521.5 389.7,516.5 			"/>
		</g>
		<g>
			<polygon class="st1" points="374.9,526.4 369.9,526.4 369.9,531.4 379.8,531.4 379.8,521.5 374.9,521.5 374.9,526.4 			"/>
		</g>
		<g>
			<polygon class="st1" points="488.9,526.4 488.9,521.5 479,521.5 479,526.4 488.9,526.4 			"/>
		</g>
		<g>
			<polygon class="st1" points="498.8,526.4 503.7,526.4 503.7,511.6 498.8,511.6 498.8,516.5 488.9,516.5 488.9,521.5 498.8,521.5 
				498.8,526.4 			"/>
		</g>
		<g>
			<polygon class="st1" points="360,536.3 369.9,536.3 369.9,531.4 360,531.4 360,536.3 			"/>
		</g>
		<g>
			<polygon class="st1" points="394.7,536.3 394.7,531.4 379.8,531.4 379.8,536.3 394.7,536.3 			"/>
		</g>
		<g>
			<polygon class="st1" points="498.8,531.4 493.8,531.4 493.8,536.3 498.8,536.3 498.8,531.4 			"/>
		</g>
		<g>
			<polygon class="st1" points="399.6,536.3 399.6,541.3 404.6,541.3 404.6,536.3 399.6,536.3 			"/>
		</g>
		<g>
			<polygon class="st1" points="409.6,541.3 414.5,541.3 414.5,531.4 424.4,531.4 424.4,526.4 429.4,526.4 429.4,531.4 424.4,531.4 
				424.4,541.3 434.3,541.3 434.3,551.2 439.3,551.2 439.3,556.2 444.3,556.2 444.3,546.3 449.2,546.3 449.2,551.2 454.2,551.2 
				454.2,536.3 444.3,536.3 444.3,531.4 439.3,531.4 439.3,521.5 444.3,521.5 444.3,506.6 439.3,506.6 439.3,501.6 444.3,501.6 
				444.3,486.8 439.3,486.8 439.3,496.7 434.3,496.7 434.3,486.8 439.3,486.8 439.3,476.9 434.3,476.9 434.3,481.8 424.4,481.8 
				424.4,476.9 429.4,476.9 429.4,466.9 424.4,466.9 424.4,471.9 414.5,471.9 414.5,476.9 419.5,476.9 419.5,486.8 414.5,486.8 
				414.5,481.8 404.6,481.8 404.6,476.9 409.6,476.9 409.6,466.9 404.6,466.9 404.6,462 409.6,462 409.6,466.9 414.5,466.9 
				414.5,457 404.6,457 404.6,452.1 399.6,452.1 399.6,476.9 394.7,476.9 394.7,481.8 379.8,481.8 379.8,476.9 374.9,476.9 
				374.9,481.8 369.9,481.8 369.9,486.8 379.8,486.8 379.8,491.7 389.7,491.7 389.7,486.8 399.6,486.8 399.6,491.7 404.6,491.7 
				404.6,486.8 409.6,486.8 409.6,491.7 404.6,491.7 404.6,496.7 409.6,496.7 409.6,501.6 414.5,501.6 414.5,491.7 424.4,491.7 
				424.4,486.8 429.4,486.8 429.4,491.7 424.4,491.7 424.4,501.6 434.3,501.6 434.3,511.6 439.3,511.6 439.3,516.5 434.3,516.5 
				434.3,521.5 424.4,521.5 424.4,516.5 429.4,516.5 429.4,506.6 424.4,506.6 424.4,511.6 414.5,511.6 414.5,506.6 409.6,506.6 
				409.6,516.5 394.7,516.5 394.7,521.5 414.5,521.5 414.5,516.5 419.5,516.5 419.5,526.4 399.6,526.4 399.6,531.4 404.6,531.4 
				404.6,536.3 409.6,536.3 409.6,541.3 			"/>
		</g>
		<g>
			<polygon class="st1" points="419.5,546.3 419.5,541.3 414.5,541.3 414.5,546.3 419.5,546.3 			"/>
		</g>
		<g>
			<polygon class="st1" points="474,541.3 469,541.3 469,546.3 474,546.3 474,541.3 			"/>
		</g>
		<g>
			<polygon class="st1" points="498.8,546.3 493.8,546.3 493.8,556.2 498.8,556.2 498.8,561.1 493.8,561.1 493.8,566.1 503.7,566.1 
				503.7,536.3 498.8,536.3 498.8,546.3 			"/>
		</g>
		<g>
			<polygon class="st1" points="409.6,546.3 409.6,541.3 404.6,541.3 404.6,546.3 399.6,546.3 399.6,551.2 404.6,551.2 404.6,556.2 
				409.6,556.2 409.6,551.2 414.5,551.2 414.5,546.3 409.6,546.3 			"/>
		</g>
		<g>
			<polygon class="st1" points="449.2,556.2 444.3,556.2 444.3,561.1 439.3,561.1 439.3,556.2 434.3,556.2 434.3,561.1 424.4,561.1 
				424.4,556.2 429.4,556.2 429.4,546.3 424.4,546.3 424.4,551.2 414.5,551.2 414.5,556.2 419.5,556.2 419.5,566.1 409.6,566.1 
				409.6,571 404.6,571 404.6,561.1 399.6,561.1 399.6,576 414.5,576 414.5,571 424.4,571 424.4,566.1 429.4,566.1 429.4,571 
				424.4,571 424.4,576 444.3,576 444.3,566.1 449.2,566.1 449.2,571 454.2,571 454.2,561.1 449.2,561.1 449.2,556.2 			"/>
		</g>
		<g>
			<polygon class="st1" points="464.1,566.1 464.1,561.1 459.1,561.1 459.1,576 464.1,576 464.1,571 469,571 469,566.1 464.1,566.1 
							"/>
		</g>
		<g>
			<polygon class="st1" points="498.8,576 503.7,576 503.7,571 498.8,571 498.8,576 			"/>
		</g>
	</g>
</g>
<g>
	<path class="st1" d="M720,464c-2.8,0-5-2.2-5-5v-27c0-2.8,2.2-5,5-5h27c2.8,0,5,2.2,5,5s-2.2,5-5,5h-22v22
		C725,461.8,722.7,464,720,464z"/>
</g>
<g>
	<path class="st1" d="M864,464c-2.8,0-5-2.2-5-5v-22h-22c-2.8,0-5-2.2-5-5s2.2-5,5-5h27c2.8,0,5,2.2,5,5v27
		C869,461.8,866.7,464,864,464z"/>
</g>
<g>
	<path class="st1" d="M864,581h-27c-2.8,0-5-2.2-5-5s2.2-5,5-5h22v-22c0-2.8,2.2-5,5-5s5,2.2,5,5v27C869,578.8,866.7,581,864,581z"
		/>
</g>
<g>
	<path class="st1" d="M747,581h-27c-2.8,0-5-2.2-5-5v-27c0-2.8,2.2-5,5-5s5,2.2,5,5v22h22c2.8,0,5,2.2,5,5S749.7,581,747,581z"/>
</g>
</svg>
