<?xml version="1.0" encoding="utf-8"?>
<!-- Generator: Adobe Illustrator 22.0.1, SVG Export Plug-In . SVG Version: 6.00 Build 0)  -->
<svg version="1.1" id="Layer_1" xmlns="http://www.w3.org/2000/svg" xmlns:xlink="http://www.w3.org/1999/xlink" x="0px" y="0px"
	 viewBox="0 0 846.8 846.8" style="enable-background:new 0 0 846.8 846.8;" xml:space="preserve">
<style type="text/css">
	.st0{fill:#FFFFFF;}
	.st1{fill:#000F7C;}
</style>
<g>
	<g>
		<circle class="st0" cx="420.4" cy="401.3" r="117"/>
		<path class="st0" d="M420.4,524.1c-31.5,0-63-12-87-36c-48-48-48-126,0-173.9s126-48,173.9,0c48,48,48,126,0,173.9
			C483.4,512.1,451.9,524.1,420.4,524.1z M420.4,290.2c-28.4,0-56.8,10.8-78.5,32.5c-43.3,43.3-43.3,113.7,0,157
			c43.3,43.3,113.7,43.3,157,0s43.3-113.7,0-157C477.2,301.1,448.8,290.2,420.4,290.2z"/>
	</g>
	<g>
		<path class="st1" d="M-35.3,524.6c-1.3,0-2.6-0.5-3.5-1.5c-2-2-2-5.1,0-7.1l94.2-94.2c28.4-28.4,66.2-44.1,106.4-44.1h41.4
			c2.8,0,5,2.2,5,5s-2.2,5-5,5h-41.4c-37.5,0-72.8,14.6-99.4,41.2l-94.2,94.2C-32.7,524.1-34,524.6-35.3,524.6z"/>
	</g>
	<g>
		<path class="st1" d="M101.8,666.8c-1.3,0-2.6-0.5-3.5-1.5c-2-2-2-5.1,0-7.1l18.7-18.7c1.3-1.3,3.3-1.8,5.1-1.2
			c24.8,8.4,51.8,2.1,70.3-16.4l20.6-20.6c2-2,5.1-2,7.1,0s2,5.1,0,7.1l-20.6,20.6c-20.5,20.5-50,27.9-77.6,19.8l-16.6,16.6
			C104.3,666.2,103.1,666.8,101.8,666.8z"/>
	</g>
	<g>
		<path class="st1" d="M254.8,589.5c-5.9,0-11.8-2.2-16.3-6.7c-9-9-9-23.6,0-32.5l0,0c9-9,23.6-9,32.5,0c9,9,9,23.6,0,32.5
			C266.6,587.2,260.7,589.5,254.8,589.5z M245.6,557.3c-5.1,5.1-5.1,13.3,0,18.4c5.1,5.1,13.3,5.1,18.4,0s5.1-13.3,0-18.4
			C258.9,552.2,250.7,552.2,245.6,557.3L245.6,557.3z"/>
	</g>
	<g>
		<path class="st1" d="M73.1,597.8c-2.6,0-4.8-2-5-4.6c-0.2-2.8,1.9-5.2,4.6-5.4c16.3-1.2,31.7-8.3,43.3-19.8
			c11.6-11.6,18.6-26.9,19.8-43.3c0.2-2.5,2.2-4.5,4.7-4.6l94.3-4.9c7.4-0.2,14.2-3.2,19.3-8.4c5.4-5.4,8.4-12.6,8.4-20.2
			c0-7.1-2.6-13.8-7.3-19c-57,0-131.7,0-148.6,0c-2.8,0-5-2.2-5-5s2.2-5,5-5c17.1,0,93.5,0,150.7,0c1.3,0,2.6,0.5,3.5,1.4l0.3,0.3
			c15,15,15,39.5,0,54.6c-6.9,7-16.2,11-26,11.3l-89.9,4.7c-2.2,17.1-10.1,33-22.3,45.2c-13.3,13.3-30.9,21.4-49.6,22.7
			C73.3,597.6,73.2,597.8,73.1,597.8z"/>
	</g>
	<g>
		<path class="st1" d="M423.5,521c-31.5,0-63-12-87-36c-23.2-23.2-36-54.1-36-87s12.8-63.7,36-87c48-48,126-48,173.9,0
			c23.2,23.2,36,54.1,36,87s-12.8,63.7-36,87l0,0C486.5,509.1,455,521,423.5,521z M423.5,287.1c-28.4,0-56.8,10.8-78.5,32.5
			c-21,21-32.5,48.8-32.5,78.5s11.5,57.5,32.5,78.5c43.3,43.3,113.7,43.3,157,0l0,0c21-21,32.5-48.8,32.5-78.5S523,340.6,502,319.6
			C480.4,298,452,287.1,423.5,287.1z"/>
	</g>
	<g>
		<g>
			<path class="st1" d="M500.5,373.6l-3.5,3.5l-3.5,3.5l-3.5,3.5l-3.5,3.5l-3.5,3.5l-3.5,3.5l-3.5,3.5l24.5,24.5l3.5-3.5l3.5-3.5
				l3.5-3.5l3.5-3.5l3.5-3.5l3.5-3.5l3.5-3.5L500.5,373.6z M514.5,401.6l-3.5,3.5l-3.5,3.5l-3.5,3.5l-3.5,3.5L483,398.1l3.5-3.5
				l3.5-3.5l3.5-3.5l3.5-3.5l3.5-3.5l17.5,17.5L514.5,401.6z"/>
		</g>
		<g>
			<polygon class="st1" points="419.9,314 416.4,317.5 412.9,321 423.4,331.5 426.9,328 430.4,324.5 433.9,321 423.4,310.5 			"/>
		</g>
		<g>
			<polygon class="st1" points="504,405.1 507.5,401.6 511,398.1 500.5,387.6 497,391.1 493.5,394.6 490,398.1 500.5,408.6 			"/>
		</g>
		<g>
			<path class="st1" d="M426.9,342l3.5-3.5l3.5-3.5l3.5-3.5l3.5-3.5l3.5-3.5l3.5-3.5l-24.5-24.5l-3.5,3.5l-3.5,3.5l-3.5,3.5
				l-3.5,3.5l-3.5,3.5l-3.5,3.5l-3.5,3.5l24.5,24.5L426.9,342z M405.8,321l3.5-3.5l3.5-3.5l3.5-3.5l3.5-3.5l3.5-3.5l17.5,17.5
				l-3.5,3.5l-3.5,3.5l-3.5,3.5l-3.5,3.5l-3.5,3.5L405.8,321z"/>
		</g>
		<g>
			<path class="st1" d="M342.8,377.1l-3.5,3.5l-3.5,3.5l-3.5,3.5l-3.5,3.5l-3.5,3.5l-3.5,3.5l24.5,24.5l3.5-3.5l3.5-3.5l3.5-3.5
				l3.5-3.5l3.5-3.5l3.5-3.5l3.5-3.5l-24.5-24.5L342.8,377.1z M363.8,398.1l-3.5,3.5l-3.5,3.5l-3.5,3.5l-3.5,3.5l-3.5,3.5
				l-17.5-17.5l3.5-3.5l3.5-3.5l3.5-3.5l3.5-3.5l3.5-3.5L363.8,398.1z"/>
		</g>
		<g>
			<polygon class="st1" points="349.8,405.1 353.3,401.6 356.8,398.1 346.3,387.6 342.8,391.1 339.2,394.6 335.7,398.1 346.3,408.6 
							"/>
		</g>
		<g>
			<g>
				<polygon class="st1" points="451.4,331.5 458.4,338.5 454.9,342 458.4,345.5 465.4,338.5 451.4,324.5 444.4,331.5 447.9,335 
									"/>
			</g>
			<g>
				<polygon class="st1" points="468.9,356.1 472.4,359.6 479.5,352.6 468.9,342 465.4,345.5 472.4,352.6 				"/>
			</g>
			<g>
				<polygon class="st1" points="486.5,366.6 490,363.1 483,356.1 479.5,359.6 483,363.1 479.5,366.6 483,370.1 				"/>
			</g>
			<g>
				<polygon class="st1" points="447.9,342 451.4,338.5 447.9,335 444.4,338.5 				"/>
			</g>
			<g>
				<polygon class="st1" points="465.4,352.6 461.9,349 458.4,352.6 461.9,356.1 				"/>
			</g>
			<g>
				<polygon class="st1" points="490,377.1 486.5,373.6 483,377.1 486.5,380.6 				"/>
			</g>
			<g>
				<polygon class="st1" points="444.4,359.6 440.9,363.1 444.4,366.6 447.9,363.1 451.4,366.6 447.9,370.1 451.4,373.6 
					458.4,366.6 451.4,359.6 458.4,352.6 451.4,345.5 444.4,352.6 447.9,356.1 				"/>
			</g>
			<g>
				<polygon class="st1" points="458.4,373.6 454.9,377.1 451.4,373.6 447.9,377.1 451.4,380.6 447.9,384.1 451.4,387.6 
					461.9,377.1 465.4,380.6 468.9,377.1 472.4,380.6 476,377.1 479.5,380.6 483,377.1 476,370.1 479.5,366.6 476,363.1 
					468.9,370.1 465.4,366.6 468.9,363.1 465.4,359.6 458.4,366.6 461.9,370.1 				"/>
			</g>
			<g>
				<polygon class="st1" points="402.3,338.5 405.8,335 395.3,324.5 388.3,331.5 395.3,338.5 398.8,335 				"/>
			</g>
			<g>
				<polygon class="st1" points="412.9,342 409.4,345.5 416.4,352.6 419.9,349 				"/>
			</g>
			<g>
				<polygon class="st1" points="479.5,415.6 483,412.1 468.9,398.1 479.5,387.6 476,384.1 468.9,391.1 465.4,387.6 468.9,384.1 
					465.4,380.6 458.4,387.6 465.4,394.6 461.9,398.1 454.9,391.1 451.4,394.6 454.9,398.1 444.4,408.6 440.9,405.1 430.4,415.6 
					433.9,419.1 437.4,415.6 444.4,422.6 451.4,415.6 447.9,412.1 454.9,405.1 458.4,408.6 465.4,401.6 468.9,405.1 465.4,408.6 
					472.4,415.6 476,412.1 				"/>
			</g>
			<g>
				<polygon class="st1" points="486.5,422.6 483,426.1 486.5,429.6 483,433.1 486.5,436.6 497,426.1 490,419.1 				"/>
			</g>
			<g>
				<polygon class="st1" points="444.4,394.6 447.9,398.1 451.4,394.6 447.9,391.1 				"/>
			</g>
			<g>
				<polygon class="st1" points="468.9,419.1 472.4,422.6 468.9,426.1 472.4,429.6 476,426.1 479.5,429.6 483,426.1 472.4,415.6 
									"/>
			</g>
			<g>
				<polygon class="st1" points="402.3,366.6 405.8,363.1 402.3,359.6 398.8,363.1 				"/>
			</g>
			<g>
				<polygon class="st1" points="476,440.1 472.4,436.6 468.9,440.1 472.4,443.6 468.9,447.1 472.4,450.6 483,440.1 479.5,436.6 
									"/>
			</g>
			<g>
				<polygon class="st1" points="381.3,352.6 388.3,345.5 381.3,338.5 370.8,349 374.3,352.6 377.8,349 				"/>
			</g>
			<g>
				<polygon class="st1" points="395.3,366.6 398.8,363.1 395.3,359.6 388.3,366.6 395.3,373.6 398.8,370.1 				"/>
			</g>
			<g>
				<polygon class="st1" points="402.3,380.6 405.8,384.1 409.4,380.6 405.8,377.1 				"/>
			</g>
			<g>
				<polygon class="st1" points="412.9,391.1 416.4,387.6 412.9,384.1 409.4,387.6 				"/>
			</g>
			<g>
				<polygon class="st1" points="377.8,356.1 374.3,352.6 370.8,356.1 374.3,359.6 				"/>
			</g>
			<g>
				<polygon class="st1" points="402.3,380.6 395.3,373.6 391.8,377.1 398.8,384.1 				"/>
			</g>
			<g>
				<path class="st1" d="M444.4,429.6l-10.5,10.5l-3.5-3.5l7-7l-3.5-3.5l3.5-3.5l-3.5-3.5l-7,7l-3.5-3.5l-3.5,3.5l3.5,3.5l-3.5,3.5
					l3.5,3.5l-14,14l-3.5-3.5l-7,7l3.5,3.5l3.5-3.5l3.5,3.5l-3.5,3.5l3.5,3.5l3.5-3.5l7,7l-7,7l-3.5-3.5l-3.5,3.5l-3.5-3.5l-3.5,3.5
					l14,14l7-7l-3.5-3.5l3.5-3.5l7,7l3.5-3.5l-3.5-3.5l3.5-3.5l-3.5-3.5l7-7l7,7l3.5-3.5l-3.5-3.5l3.5-3.5l-10.5-10.5l7-7l3.5,3.5
					l3.5-3.5l-3.5-3.5l3.5-3.5l3.5,3.5l3.5-3.5l3.5,3.5l3.5-3.5l-3.5-3.5l7-7l-7-7l-7,7l3.5,3.5l-3.5,3.5l-7-7l-3.5,3.5L444.4,429.6
					L444.4,429.6z M433.9,454.1l-10.5,10.5l-10.5-10.5l10.5-10.5L433.9,454.1L433.9,454.1z"/>
			</g>
			<g>
				<polygon class="st1" points="367.3,352.6 363.8,356.1 367.3,359.6 370.8,356.1 				"/>
			</g>
			<g>
				<polygon class="st1" points="388.3,373.6 384.8,377.1 388.3,380.6 391.8,377.1 				"/>
			</g>
			<g>
				<polygon class="st1" points="370.8,363.1 367.3,359.6 363.8,363.1 360.3,359.6 356.8,363.1 363.8,370.1 				"/>
			</g>
			<g>
				<polygon class="st1" points="384.8,377.1 381.3,373.6 384.8,370.1 381.3,366.6 395.3,352.6 391.8,349 374.3,366.6 377.8,370.1 
					374.3,373.6 377.8,377.1 374.3,380.6 381.3,387.6 384.8,384.1 381.3,380.6 				"/>
			</g>
			<g>
				<polygon class="st1" points="367.3,373.6 363.8,370.1 360.3,373.6 367.3,380.6 374.3,373.6 370.8,370.1 				"/>
			</g>
			<g>
				<polygon class="st1" points="447.9,454.1 451.4,450.6 444.4,443.6 440.9,447.1 				"/>
			</g>
			<g>
				<polygon class="st1" points="454.9,461.1 458.4,464.6 468.9,454.1 465.4,450.6 461.9,454.1 454.9,447.1 451.4,450.6 
					458.4,457.6 				"/>
			</g>
			<g>
				<polygon class="st1" points="349.8,370.1 356.8,377.1 360.3,373.6 353.3,366.6 				"/>
			</g>
			<g>
				<polygon class="st1" points="374.3,394.6 377.8,391.1 367.3,380.6 363.8,384.1 				"/>
			</g>
			<g>
				<polygon class="st1" points="451.4,464.6 447.9,461.1 444.4,464.6 447.9,468.1 				"/>
			</g>
			<g>
				<polygon class="st1" points="377.8,398.1 374.3,401.6 377.8,405.1 381.3,401.6 				"/>
			</g>
			<g>
				<polygon class="st1" points="381.3,408.6 384.8,412.1 391.8,405.1 398.8,412.1 402.3,408.6 405.8,412.1 402.3,415.6 
					398.8,412.1 391.8,419.1 398.8,426.1 391.8,433.1 395.3,436.6 391.8,440.1 395.3,443.6 402.3,436.6 405.8,440.1 402.3,443.6 
					405.8,447.1 416.4,436.6 409.4,429.6 412.9,426.1 409.4,422.6 416.4,415.6 419.9,419.1 430.4,408.6 426.9,405.1 430.4,401.6 
					433.9,405.1 444.4,394.6 440.9,391.1 433.9,398.1 430.4,394.6 437.4,387.6 440.9,391.1 447.9,384.1 444.4,380.6 440.9,384.1 
					433.9,377.1 437.4,373.6 440.9,377.1 447.9,370.1 444.4,366.6 440.9,370.1 433.9,363.1 430.4,366.6 433.9,370.1 426.9,377.1 
					423.4,373.6 426.9,370.1 419.9,363.1 423.4,359.6 426.9,363.1 433.9,356.1 430.4,352.6 433.9,349 437.4,352.6 433.9,356.1 
					437.4,359.6 444.4,352.6 437.4,345.5 440.9,342 437.4,338.5 419.9,356.1 416.4,352.6 412.9,356.1 402.3,345.5 405.8,342 
					402.3,338.5 398.8,342 395.3,338.5 391.8,342 398.8,349 395.3,352.6 402.3,359.6 405.8,356.1 412.9,363.1 409.4,366.6 
					412.9,370.1 416.4,366.6 419.9,370.1 416.4,373.6 412.9,370.1 409.4,373.6 412.9,377.1 409.4,380.6 412.9,384.1 419.9,377.1 
					426.9,384.1 430.4,380.6 433.9,384.1 430.4,387.6 426.9,384.1 419.9,391.1 426.9,398.1 419.9,405.1 423.4,408.6 419.9,412.1 
					416.4,408.6 412.9,412.1 405.8,405.1 409.4,401.6 412.9,405.1 419.9,398.1 416.4,394.6 412.9,398.1 405.8,391.1 409.4,387.6 
					405.8,384.1 398.8,391.1 388.3,380.6 384.8,384.1 398.8,398.1 402.3,394.6 405.8,398.1 398.8,405.1 384.8,391.1 381.3,394.6 
					384.8,398.1 381.3,401.6 384.8,405.1 				"/>
			</g>
			<g>
				<polygon class="st1" points="384.8,419.1 388.3,415.6 384.8,412.1 381.3,415.6 				"/>
			</g>
			<g>
				<polygon class="st1" points="426.9,454.1 423.4,450.6 419.9,454.1 423.4,457.6 				"/>
			</g>
			<g>
				<polygon class="st1" points="440.9,475.1 437.4,471.6 430.4,478.6 433.9,482.1 430.4,485.8 426.9,482.1 423.4,485.8 
					430.4,492.8 451.4,471.6 447.9,468.1 				"/>
			</g>
			<g>
				<polygon class="st1" points="377.8,412.1 381.3,408.6 377.8,405.1 374.3,408.6 370.8,405.1 367.3,408.6 370.8,412.1 
					367.3,415.6 370.8,419.1 374.3,415.6 377.8,419.1 381.3,415.6 				"/>
			</g>
			<g>
				<polygon class="st1" points="398.8,447.1 395.3,443.6 391.8,447.1 388.3,443.6 391.8,440.1 388.3,436.6 384.8,440.1 
					377.8,433.1 381.3,429.6 384.8,433.1 391.8,426.1 388.3,422.6 384.8,426.1 377.8,419.1 374.3,422.6 377.8,426.1 370.8,433.1 
					363.8,426.1 360.3,429.6 356.8,426.1 363.8,419.1 360.3,415.6 349.8,426.1 360.3,436.6 363.8,433.1 370.8,440.1 374.3,436.6 
					377.8,440.1 374.3,443.6 370.8,440.1 367.3,443.6 381.3,457.6 388.3,450.6 391.8,454.1 388.3,457.6 391.8,461.1 398.8,454.1 
					395.3,450.6 				"/>
			</g>
			<g>
				<polygon class="st1" points="402.3,464.6 405.8,461.1 402.3,457.6 391.8,468.1 395.3,471.6 398.8,468.1 402.3,471.6 
					405.8,468.1 				"/>
			</g>
			<g>
				<polygon class="st1" points="419.9,496.3 423.4,499.8 426.9,496.3 423.4,492.8 				"/>
			</g>
		</g>
	</g>
	<g>
		<path class="st1" d="M882.3,524.8c-1.3,0-2.6-0.5-3.5-1.5l-94.3-94.1c-26.5-26.5-61.8-41.2-99.4-41.2h-72c-2.8,0-5-2.2-5-5
			s2.2-5,5-5h72c40.2,0,78,15.7,106.4,44.1l94.2,94.2c2,2,2,5.1,0,7.1C884.8,524.2,883.6,524.8,882.3,524.8z"/>
	</g>
	<g>
		<path class="st1" d="M745.2,666.8c-1.3,0-2.6-0.5-3.5-1.5l-16.6-16.5c-27.6,8.2-57.1,0.7-77.6-19.8l-21.6-21.6c-2-2-2-5.1,0-7.1
			s5.1-2,7.1,0l21.6,21.6c18.5,18.5,45.5,24.8,70.3,16.4c1.8-0.6,3.8-0.1,5.1,1.2l18.7,18.7c2,2,2,5.1,0,7.1
			C747.8,666.4,746.5,666.8,745.2,666.8z"/>
	</g>
	<g>
		<path class="st1" d="M592.2,589.8c-6.1,0-11.9-2.4-16.3-6.7c-4.3-4.3-6.7-10.1-6.7-16.3s2.4-11.9,6.7-16.3
			c4.3-4.3,10.1-6.7,16.3-6.7c6.1,0,11.9,2.4,16.3,6.7c4.3,4.3,6.7,10.1,6.7,16.3s-2.4,11.9-6.7,16.3
			C604.1,587.3,598.3,589.8,592.2,589.8z M592.2,553.8c-3.5,0-6.7,1.4-9.2,3.8c-2.5,2.5-3.8,5.7-3.8,9.2s1.4,6.7,3.8,9.2
			c2.5,2.5,5.7,3.8,9.2,3.8s6.7-1.4,9.2-3.8c2.5-2.5,3.8-5.7,3.8-9.2s-1.4-6.7-3.8-9.2l0,0C598.9,555,595.7,553.8,592.2,553.8z"/>
	</g>
	<g>
		<path class="st1" d="M525.4,700.5c-6,0-11.7-2.3-15.9-6.6l-331-330.9c-4.2-4.2-6.6-9.9-6.6-15.9s2.3-11.7,6.6-15.9l178.2-178.2
			c8.8-8.8,23-8.8,31.8,0l306.4,306.4c1.3,1.3,1.7,3.2,1,4.9s-2.3,2.8-4.2,2.8H591.5c-4.9,5.4-7.5,12.3-7.5,19.5
			c0,7.8,3,15.1,8.5,20.6c5.2,5.2,12.2,8.3,19.6,8.5h0.1l91.9,4.8c1.8,0.1,3.3,1.2,4,2.9s0.2,3.5-1,4.8L541.3,693.9
			C537,698.2,531.4,700.5,525.4,700.5z M372.6,155.4c-3.5,0-6.9,1.3-9.5,3.9L184.9,337.6c-2.6,2.5-4,5.9-4,9.5s1.4,7,4,9.5
			l330.9,330.9c2.5,2.5,5.9,4,9.5,4s7-1.4,9.5-4L693.5,529l-81.8-4.3c-9.7-0.3-18.8-4.3-25.6-11.1c-7.2-7.2-11.2-16.8-11.2-26.9
			s4-19.7,11.2-26.9l0.3-0.3c0.8-0.8,2-1.3,3.1-1.3l0,0h91.2L382.2,159.4C379.5,156.7,376.1,155.4,372.6,155.4z"/>
	</g>
	<g>
		<path class="st1" d="M773.9,597.8c-0.1,0-0.2,0-0.4,0c-18.7-1.4-36.3-9.5-49.6-22.7c-12.2-12.2-20-28.1-22.3-45.2l-90-4.7
			c-9.7-0.3-18.9-4.3-25.9-11.3c-15.1-15-15.1-39.5,0-54.6l0.3-0.3c0.9-0.9,2.2-1.4,3.5-1.4l0,0c33.8,0,76.7,0,109.3,0h41.4
			c2.8,0,5,2.2,5,5s-2.2,5-5,5h-41.4c-31.9,0-73.7,0-107.2,0c-4.7,5.3-7.3,12-7.3,19c0,7.6,3,14.8,8.4,20.2c5.1,5.1,12,8.1,19.2,8.4
			l94.3,4.9c2.5,0.1,4.5,2.1,4.7,4.6c1.2,16.3,8.2,31.7,19.8,43.3s26.9,18.6,43.3,19.8c2.8,0.2,4.8,2.6,4.6,5.4
			C778.7,595.8,776.5,597.8,773.9,597.8z"/>
	</g>
	<g>
		<path class="st1" d="M423.6,521.1c-32.9,0-63.7-12.8-87-36c-48-48-48-126,0-173.9c23.2-23.2,54.1-36,87-36s63.7,12.8,87,36
			c48,48,48,126,0,173.9C487.3,508.4,456.4,521.1,423.6,521.1z M423.6,287.1c-29.6,0-57.5,11.5-78.5,32.5
			c-43.3,43.3-43.3,113.7,0,157c21,21,48.8,32.5,78.5,32.5c29.6,0,57.5-11.5,78.5-32.5c43.3-43.3,43.3-113.7,0-157
			C481.1,298.6,453.2,287.1,423.6,287.1z"/>
	</g>
	<g>
		<path class="st1" d="M340.8,422.1c-1.3,0-2.6-0.5-3.5-1.5l-19.1-19.1c-2-2-2-5.1,0-7.1l19.1-19.1c2-2,5.1-2,7.1,0s2,5.1,0,7.1
			l-15.6,15.6l15.6,15.6c2,2,2,5.1,0,7.1C343.4,421.8,342.1,422.1,340.8,422.1z"/>
	</g>
	<g>
		<path class="st1" d="M442.7,320.4c-1.3,0-2.6-0.5-3.5-1.5l-15.6-15.6L408,318.9c-2,2-5.1,2-7.1,0s-2-5.1,0-7.1l19.1-19.1
			c2-2,5.1-2,7.1,0l19.1,19.1c2,2,2,5.1,0,7.1C445.2,319.9,443.9,320.4,442.7,320.4z"/>
	</g>
	<g>
		<path class="st1" d="M506.3,422.1c-1.3,0-2.6-0.5-3.5-1.5c-2-2-2-5.1,0-7.1l15.6-15.6l-15.6-15.6c-2-2-2-5.1,0-7.1s5.1-2,7.1,0
			l19.1,19.1c0.9,0.9,1.5,2.2,1.5,3.5s-0.5,2.6-1.5,3.5l-19.1,19.1C508.9,421.8,507.6,422.1,506.3,422.1z"/>
	</g>
	<g>
		<path class="st1" d="M423.6,504.9c-1.3,0-2.6-0.5-3.5-1.5L401,484.4c-2-2-2-5.1,0-7.1s5.1-2,7.1,0l15.6,15.6l15.6-15.6
			c2-2,5.1-2,7.1,0s2,5.1,0,7.1l-19.1,19.1C426.1,504.4,424.9,504.9,423.6,504.9z"/>
	</g>
	<g>
		<g>
			<path class="st1" d="M645.2,386.1l-6.4-6.4l23.2-23.2c5.3-5.3,5.3-13.8,0-19.1L483.9,159.2c-2.5-2.6-5.9-4-9.5-4s-7,1.4-9.5,4
				l-38,38l-6.4-6.4l38-38c4.2-4.2,9.9-6.6,15.9-6.6s11.7,2.3,15.9,6.6l178.2,178.2c8.8,8.8,8.8,23,0,31.8L645.2,386.1z"/>
		</g>
		<g>
			<path class="st1" d="M321.6,700.4c-6,0-11.7-2.3-15.9-6.6L139.9,528c-1.3-1.3-1.7-3.1-1-4.8c0.6-1.7,2.2-2.8,4-2.9l91.9-4.8
				c7.5-0.2,14.4-3.3,19.7-8.5c11-11,11.3-28.7,1-40.1H155.3c-1.8,0-3.5-1.1-4.2-2.8s-0.3-3.6,1-4.9l64.5-64.5
				c1.8-1.8,4.6-1.8,6.4,0l203.6,203.6c0.8,0.8,1.3,2,1.3,3.2s-0.5,2.3-1.3,3.2l-89.1,89.1C333.3,698,327.6,700.4,321.6,700.4z
				 M153.4,528.8L312,687.4c2.5,2.5,5.9,4,9.5,4c3.6,0,7-1.4,9.5-4l85.9-85.9L219.8,404.4l-53.6,53.6h91.2c1.2,0,2.3,0.5,3.1,1.3
				l0.3,0.3c7.2,7.2,11.2,16.8,11.2,26.9c0,10.2-4,19.7-11.2,26.9c-6.9,6.9-16,10.8-25.7,11.1L153.4,528.8z"/>
		</g>
	</g>
</g>
</svg>
