<?xml version="1.0" encoding="utf-8"?>
<!-- Generator: Adobe Illustrator 22.0.1, SVG Export Plug-In . SVG Version: 6.00 Build 0)  -->
<svg version="1.1" id="Layer_1" xmlns="http://www.w3.org/2000/svg" xmlns:xlink="http://www.w3.org/1999/xlink" x="0px" y="0px"
	 viewBox="0 0 846.8 846.8" style="enable-background:new 0 0 846.8 846.8;" xml:space="preserve">
<style type="text/css">
	.st0{fill:#000F7C;}
</style>
<g>
	<g>
		<path class="st0" d="M841.8,739.6c-2.8,0-5-2.2-5-5V601.4c0-37.5-14.6-72.8-41.2-99.4l-51.4-51.4c-2-2-2-5.1,0-7.1s5.1-2,7.1,0
			l51.4,51.4c28.4,28.4,44.1,66.2,44.1,106.4v133.2C846.8,737.4,844.6,739.6,841.8,739.6z"/>
	</g>
	<g>
		<path class="st0" d="M644.4,743.2c-2.8,0-5-2.2-5-5v-23.5c-25.3-13.8-40.9-39.9-40.9-68.8v-30.7c0-2.8,2.2-5,5-5s5,2.2,5,5v30.6
			c0,26.2,14.6,49.7,38.1,61.3c1.7,0.8,2.8,2.6,2.8,4.5V738C649.4,740.9,647.2,743.2,644.4,743.2z"/>
	</g>
	<g>
		<path class="st0" d="M603.5,585.7c-12.7,0-23-10.3-23-23s10.3-23,23-23s23,10.3,23,23S616.2,585.7,603.5,585.7z M603.5,549.7
			c-7.2,0-13,5.8-13,13s5.8,13,13,13s13-5.8,13-13S610.7,549.7,603.5,549.7z"/>
	</g>
	<g>
		<path class="st0" d="M711.9,616.7H477.5c-12.4,0-22.5-10.1-22.5-22.5v-468c0-12.4,10.1-22.5,22.5-22.5h252
			c12.4,0,22.5,10.1,22.5,22.5v433.3c0,1.8-1.1,3.5-2.8,4.2s-3.6,0.3-4.9-1l-70.8-71c-15.4,0.7-27.7,13.5-27.7,29.1
			c0,7.4,2.8,14.5,7.8,19.9c0,0,0,0,0.1,0.1l61.6,68.4c1.2,1.3,1.5,3.2,0.8,4.8C715.3,615.6,713.7,616.7,711.9,616.7z M477.5,112.7
			c-7.4,0-13.5,6.1-13.5,13.5v468c0,7.4,6.1,13.5,13.5,13.5h224.3L647,546.8c-6.6-7.1-10.2-16.3-10.2-26c0-21,17.1-38.1,38.1-38.1
			h0.4c1.2,0,2.3,0.5,3.1,1.3l64.5,64.5V126.2c0-7.4-6.1-13.5-13.5-13.5H477.5z"/>
	</g>
	<g>
		<path class="st0" d="M5,739.6c-2.8,0-5-2.2-5-5V601.4c0-40.2,15.7-78,44.1-106.4l50.5-50.5c2-2,5.1-2,7.1,0s2,5.1,0,7.1L51.2,502
			C24.7,528.5,10,563.8,10,601.5v133.2C10,737.4,7.7,739.6,5,739.6z"/>
	</g>
	<g>
		<path class="st0" d="M202.4,743.2L202.4,743.2c-2.8,0-5-2.2-5-5v-26.5c0-1.9,1.1-3.6,2.8-4.5c23.5-11.6,38.1-35.1,38.1-61.3v-29.2
			c0-2.8,2.2-5,5-5s5,2.2,5,5v29.2c0,29-15.6,55.1-40.9,68.8v23.5C207.4,740.9,205.2,743.2,202.4,743.2z"/>
	</g>
	<g>
		<path class="st0" d="M243.3,585.7c-12.7,0-23-10.3-23-23s10.3-23,23-23s23,10.3,23,23S256,585.7,243.3,585.7z M243.3,549.7
			c-7.2,0-13,5.8-13,13s5.8,13,13,13s13-5.8,13-13S250.5,549.7,243.3,549.7z"/>
	</g>
	<g>
		<path class="st0" d="M369.3,616.7H134.8c-1.8,0-3.4-1-4.1-2.7c-0.7-1.6-0.4-3.5,0.8-4.8l61.6-68.4c5.1-5.5,7.9-12.5,7.9-19.9
			c0-15.6-12.3-28.3-27.7-29.1l-70.8,70.8c-1.3,1.3-3.2,1.7-4.9,1c-1.7-0.7-2.8-2.3-2.8-4.2V126.2c0-12.4,10.1-22.5,22.5-22.5h252
			c12.4,0,22.5,10.1,22.5,22.5v468C391.8,606.6,381.7,616.7,369.3,616.7z M145,607.7h224.3c7.4,0,13.5-6.1,13.5-13.5v-468
			c0-7.4-6.1-13.5-13.5-13.5h-252c-7.4,0-13.5,6.1-13.5,13.5v422.4l64.5-64.5c0.8-0.8,2-1.3,3.1-1.3h0.4c21,0,38.1,17.1,38.1,38.1
			c0,9.7-3.6,18.9-10.3,26L145,607.7z"/>
	</g>
	<g>
		<g>
			<path class="st0" d="M133.3,714.6c-1.2,0-2.3-0.4-3.3-1.2c-2.1-1.8-2.3-5-0.5-7.1c10.7-12.4,16.6-28.2,16.6-44.6
				c0-16.4-5.9-32.2-16.6-44.6c-1.6-1.9-1.6-4.7,0.1-6.6l63.2-70.1c5-5.4,7.8-12.3,7.8-19.6c0-15.2-12-27.7-27-28.6
				c-19.2,19.2-43.4,43.4-64.3,64.4c-17.2,17.2-32.3,32.3-40.7,40.7c-2,2-5.1,2-7.1,0s-2-5.1,0-7.1c8.4-8.4,23.4-23.5,40.7-40.7
				c21.5-21.5,46.4-46.5,65.8-65.9c0.9-0.9,2.2-1.5,3.5-1.5h0.4c21.3,0,38.6,17.3,38.6,38.6c0,9.8-3.7,19.2-10.4,26.4L139.9,614
				c10.5,13.6,16.2,30.4,16.2,47.7c0,18.8-6.7,36.9-19,51.1C136.1,714.1,134.7,714.6,133.3,714.6z"/>
		</g>
	</g>
	<g>
		<path class="st0" d="M713.5,714.6c-1.4,0-2.8-0.6-3.8-1.7c-12.2-14.2-19-32.4-19-51.1c0-17.3,5.7-34.1,16.2-47.7l-60.3-67
			c-6.6-7.1-10.3-16.5-10.3-26.3c0-21.3,17.3-38.6,38.6-38.6h0.4c1.3,0,2.6,0.5,3.5,1.5c35.8,35.8,88.3,88.3,106.4,106.4
			c2,2,2,5.1,0,7.1s-5.1,2-7.1,0c-17.9-17.9-69.2-69.2-104.9-104.9c-15,0.8-27,13.3-27,28.6c0,7.3,2.7,14.2,7.7,19.5l63.2,70.2
			c1.7,1.9,1.7,4.7,0.1,6.6c-10.7,12.4-16.6,28.2-16.6,44.6c0,16.4,5.9,32.2,16.6,44.6c1.8,2.1,1.6,5.2-0.5,7.1
			C715.8,714.2,714.6,714.6,713.5,714.6z"/>
	</g>
	<g>
		<path class="st0" d="M243.5,447.1c-67.8,0-123-55.2-123-123s55.2-123,123-123s123,55.2,123,123S311.3,447.1,243.5,447.1z
			 M243.5,213.1c-61.2,0-111,49.8-111,111s49.8,111,111,111s111-49.8,111-111S304.7,213.1,243.5,213.1z"/>
	</g>
	<g>
		<path class="st0" d="M603.5,447.1c-67.8,0-123-55.2-123-123s55.2-123,123-123s123,55.2,123,123S671.3,447.1,603.5,447.1z
			 M603.5,213.1c-61.2,0-111,49.8-111,111s49.8,111,111,111s111-49.8,111-111S664.7,213.1,603.5,213.1z"/>
	</g>
	<g>
		<g>
			<path class="st0" d="M280.5,252.4v5v5v5v5v5v5v5h34.7v-5v-5v-5v-5v-5v-5v-5H280.5z M310.3,262.4v5v5v5v5h-24.8v-5v-5v-5v-5v-5
				h24.8V262.4z"/>
		</g>
		<g>
			<polygon class="st0" points="181.4,267.2 181.4,272.2 181.4,277.1 196.3,277.1 196.3,272.2 196.3,267.2 196.3,262.4 181.4,262.4 
							"/>
		</g>
		<g>
			<polygon class="st0" points="305.3,272.2 305.3,267.2 305.3,262.4 290.5,262.4 290.5,267.2 290.5,272.2 290.5,277.1 305.3,277.1 
							"/>
		</g>
		<g>
			<path class="st0" d="M206.2,282.1v-5v-5v-5v-5v-5v-5h-34.7v5v5v5v5v5v5v5h34.7V282.1z M176.4,282.1v-5v-5v-5v-5v-5h24.8v5v5v5v5
				v5H176.4z"/>
		</g>
		<g>
			<path class="st0" d="M171.5,366.4v5v5v5v5v5v5h34.7v-5v-5v-5v-5v-5v-5v-5h-34.7V366.4z M201.2,366.4v5v5v5v5v5h-24.8v-5v-5v-5v-5
				v-5H201.2z"/>
		</g>
		<g>
			<polygon class="st0" points="196.3,381.2 196.3,376.4 196.3,371.4 181.4,371.4 181.4,376.4 181.4,381.2 181.4,386.2 196.3,386.2 
							"/>
		</g>
		<g>
			<g>
				<polygon class="st0" points="216.1,257.4 226,257.4 226,262.4 231,262.4 231,252.4 211.1,252.4 211.1,262.4 216.1,262.4 				"/>
			</g>
			<g>
				<polygon class="st0" points="245.8,262.4 250.8,262.4 250.8,252.4 235.9,252.4 235.9,257.4 245.8,257.4 				"/>
			</g>
			<g>
				<polygon class="st0" points="265.7,257.4 265.7,252.4 255.8,252.4 255.8,257.4 260.7,257.4 260.7,262.4 265.7,262.4 				"/>
			</g>
			<g>
				<polygon class="st0" points="221.1,267.2 221.1,262.4 216.1,262.4 216.1,267.2 				"/>
			</g>
			<g>
				<polygon class="st0" points="240.9,262.4 235.9,262.4 235.9,267.2 240.9,267.2 				"/>
			</g>
			<g>
				<polygon class="st0" points="275.6,262.4 270.6,262.4 270.6,267.2 275.6,267.2 				"/>
			</g>
			<g>
				<polygon class="st0" points="231,282.1 231,287 235.9,287 235.9,282.1 240.9,282.1 240.9,287 245.8,287 245.8,277.1 
					235.9,277.1 235.9,267.2 226,267.2 226,277.1 231,277.1 				"/>
			</g>
			<g>
				<polygon class="st0" points="250.8,282.1 250.8,287 245.8,287 245.8,292 250.8,292 250.8,297 255.8,297 255.8,282.1 
					260.7,282.1 260.7,277.1 265.7,277.1 265.7,272.2 270.6,272.2 270.6,267.2 260.7,267.2 260.7,262.4 255.8,262.4 255.8,272.2 
					250.8,272.2 250.8,267.2 245.8,267.2 245.8,277.1 250.8,277.1 				"/>
			</g>
			<g>
				<polygon class="st0" points="186.4,297 186.4,292 171.5,292 171.5,301.9 181.4,301.9 181.4,297 				"/>
			</g>
			<g>
				<polygon class="st0" points="196.3,292 196.3,297 206.2,297 206.2,292 				"/>
			</g>
			<g>
				<polygon class="st0" points="295.4,297 295.4,292 275.6,292 275.6,277.1 270.6,277.1 270.6,287 265.7,287 265.7,282.1 
					260.7,282.1 260.7,292 270.6,292 270.6,297 260.7,297 260.7,301.9 265.7,301.9 265.7,316.9 260.7,316.9 260.7,331.8 
					265.7,331.8 265.7,326.8 275.6,326.8 275.6,316.9 270.6,316.9 270.6,306.9 275.6,306.9 275.6,297 280.5,297 280.5,301.9 
					290.5,301.9 290.5,297 				"/>
			</g>
			<g>
				<polygon class="st0" points="305.3,297 305.3,301.9 310.3,301.9 310.3,306.9 315.2,306.9 315.2,292 305.3,292 				"/>
			</g>
			<g>
				<polygon class="st0" points="255.8,306.9 260.7,306.9 260.7,301.9 255.8,301.9 				"/>
			</g>
			<g>
				<polygon class="st0" points="290.5,306.9 295.4,306.9 295.4,311.9 300.4,311.9 300.4,306.9 305.3,306.9 305.3,301.9 
					290.5,301.9 				"/>
			</g>
			<g>
				<polygon class="st0" points="206.2,316.9 206.2,311.9 201.2,311.9 201.2,316.9 				"/>
			</g>
			<g>
				<polygon class="st0" points="310.3,316.9 305.3,316.9 305.3,321.8 310.3,321.8 310.3,326.8 315.2,326.8 315.2,311.9 
					310.3,311.9 				"/>
			</g>
			<g>
				<polygon class="st0" points="181.4,321.8 181.4,311.9 171.5,311.9 171.5,326.8 176.4,326.8 176.4,321.8 				"/>
			</g>
			<g>
				<polygon class="st0" points="201.2,321.8 201.2,316.9 196.3,316.9 196.3,326.8 206.2,326.8 206.2,321.8 				"/>
			</g>
			<g>
				<polygon class="st0" points="216.1,326.8 221.1,326.8 221.1,321.8 216.1,321.8 				"/>
			</g>
			<g>
				<polygon class="st0" points="231,326.8 231,321.8 226,321.8 226,326.8 				"/>
			</g>
			<g>
				<polygon class="st0" points="181.4,326.8 176.4,326.8 176.4,331.8 181.4,331.8 				"/>
			</g>
			<g>
				<polygon class="st0" points="216.1,326.8 206.2,326.8 206.2,331.8 216.1,331.8 				"/>
			</g>
			<g>
				<path class="st0" d="M280.5,331.8v14.9h-5v-9.9h-5v-5h-5v9.9h-5v5h5v5h5v19.8h-5v9.9h5v-5h5v5h5v-5h9.9v9.9h-5v5h-5v5h19.8v-9.9
					h-5v-5h9.9v-5h-5v-5h-5v-9.9h9.9v-5h-5v-5h-14.5v-9.9h5v-5h-5v-5h5v-5h5v-5h-5v-9.9h-10v9.9h5v5h-9.9v5h4.9V331.8z M290.5,356.4
					v14.9h-14.9v-14.9H290.5L290.5,356.4z"/>
			</g>
			<g>
				<polygon class="st0" points="171.5,331.8 171.5,336.6 176.4,336.6 176.4,331.8 				"/>
			</g>
			<g>
				<polygon class="st0" points="201.2,331.8 201.2,336.6 206.2,336.6 206.2,331.8 				"/>
			</g>
			<g>
				<polygon class="st0" points="181.4,336.6 176.4,336.6 176.4,341.6 171.5,341.6 171.5,346.6 181.4,346.6 				"/>
			</g>
			<g>
				<polygon class="st0" points="201.2,336.6 196.3,336.6 196.3,331.8 191.3,331.8 191.3,311.9 186.4,311.9 186.4,336.6 
					191.3,336.6 191.3,341.6 196.3,341.6 196.3,346.6 206.2,346.6 206.2,341.6 201.2,341.6 				"/>
			</g>
			<g>
				<polygon class="st0" points="186.4,346.6 181.4,346.6 181.4,351.6 191.3,351.6 191.3,341.6 186.4,341.6 				"/>
			</g>
			<g>
				<polygon class="st0" points="300.4,346.6 300.4,341.6 290.5,341.6 290.5,346.6 				"/>
			</g>
			<g>
				<polygon class="st0" points="310.3,346.6 315.2,346.6 315.2,331.8 310.3,331.8 310.3,336.6 300.4,336.6 300.4,341.6 
					310.3,341.6 				"/>
			</g>
			<g>
				<polygon class="st0" points="171.5,356.4 181.4,356.4 181.4,351.6 171.5,351.6 				"/>
			</g>
			<g>
				<polygon class="st0" points="206.2,356.4 206.2,351.6 191.3,351.6 191.3,356.4 				"/>
			</g>
			<g>
				<polygon class="st0" points="310.3,351.6 305.3,351.6 305.3,356.4 310.3,356.4 				"/>
			</g>
			<g>
				<polygon class="st0" points="211.1,356.4 211.1,361.4 216.1,361.4 216.1,356.4 				"/>
			</g>
			<g>
				<polygon class="st0" points="221.1,361.4 226,361.4 226,351.6 235.9,351.6 235.9,346.6 240.9,346.6 240.9,351.6 235.9,351.6 
					235.9,361.4 245.8,361.4 245.8,371.4 250.8,371.4 250.8,376.4 255.8,376.4 255.8,366.4 260.7,366.4 260.7,371.4 265.7,371.4 
					265.7,356.4 255.8,356.4 255.8,351.6 250.8,351.6 250.8,341.6 255.8,341.6 255.8,326.8 250.8,326.8 250.8,321.8 255.8,321.8 
					255.8,306.9 250.8,306.9 250.8,316.9 245.8,316.9 245.8,306.9 250.8,306.9 250.8,297 245.8,297 245.8,301.9 235.9,301.9 
					235.9,297 240.9,297 240.9,287 235.9,287 235.9,292 226,292 226,297 231,297 231,306.9 226,306.9 226,301.9 216.1,301.9 
					216.1,297 221.1,297 221.1,287 216.1,287 216.1,282.1 221.1,282.1 221.1,287 226,287 226,277.1 216.1,277.1 216.1,272.2 
					211.1,272.2 211.1,297 206.2,297 206.2,301.9 191.3,301.9 191.3,297 186.4,297 186.4,301.9 181.4,301.9 181.4,306.9 
					191.3,306.9 191.3,311.9 201.2,311.9 201.2,306.9 211.1,306.9 211.1,311.9 216.1,311.9 216.1,306.9 221.1,306.9 221.1,311.9 
					216.1,311.9 216.1,316.9 221.1,316.9 221.1,321.8 226,321.8 226,311.9 235.9,311.9 235.9,306.9 240.9,306.9 240.9,311.9 
					235.9,311.9 235.9,321.8 245.8,321.8 245.8,331.8 250.8,331.8 250.8,336.6 245.8,336.6 245.8,341.6 235.9,341.6 235.9,336.6 
					240.9,336.6 240.9,326.8 235.9,326.8 235.9,331.8 226,331.8 226,326.8 221.1,326.8 221.1,336.6 206.2,336.6 206.2,341.6 
					226,341.6 226,336.6 231,336.6 231,346.6 211.1,346.6 211.1,351.6 216.1,351.6 216.1,356.4 221.1,356.4 				"/>
			</g>
			<g>
				<polygon class="st0" points="231,366.4 231,361.4 226,361.4 226,366.4 				"/>
			</g>
			<g>
				<polygon class="st0" points="285.5,361.4 280.5,361.4 280.5,366.4 285.5,366.4 				"/>
			</g>
			<g>
				<polygon class="st0" points="310.3,366.4 305.3,366.4 305.3,376.4 310.3,376.4 310.3,381.2 305.3,381.2 305.3,386.2 
					315.2,386.2 315.2,356.4 310.3,356.4 				"/>
			</g>
			<g>
				<polygon class="st0" points="221.1,366.4 221.1,361.4 216.1,361.4 216.1,366.4 211.1,366.4 211.1,371.4 216.1,371.4 
					216.1,376.4 221.1,376.4 221.1,371.4 226,371.4 226,366.4 				"/>
			</g>
			<g>
				<polygon class="st0" points="260.7,376.4 255.8,376.4 255.8,381.2 250.8,381.2 250.8,376.4 245.8,376.4 245.8,381.2 
					235.9,381.2 235.9,376.4 240.9,376.4 240.9,366.4 235.9,366.4 235.9,371.4 226,371.4 226,376.4 231,376.4 231,386.2 
					221.1,386.2 221.1,391.1 216.1,391.1 216.1,381.2 211.1,381.2 211.1,396.1 226,396.1 226,391.1 235.9,391.1 235.9,386.2 
					240.9,386.2 240.9,391.1 235.9,391.1 235.9,396.1 255.8,396.1 255.8,386.2 260.7,386.2 260.7,391.1 265.7,391.1 265.7,381.2 
					260.7,381.2 				"/>
			</g>
			<g>
				<polygon class="st0" points="275.6,386.2 275.6,381.2 270.6,381.2 270.6,396.1 275.6,396.1 275.6,391.1 280.5,391.1 
					280.5,386.2 				"/>
			</g>
			<g>
				<polygon class="st0" points="310.3,396.1 315.2,396.1 315.2,391.1 310.3,391.1 				"/>
			</g>
		</g>
	</g>
	<g>
		<path class="st0" d="M531.5,284.1c-2.8,0-5-2.2-5-5v-27c0-2.8,2.2-5,5-5h27c2.8,0,5,2.2,5,5s-2.2,5-5,5h-22v22
			C536.5,281.9,534.2,284.1,531.5,284.1z"/>
	</g>
	<g>
		<path class="st0" d="M675.5,284.1c-2.8,0-5-2.2-5-5v-22h-22c-2.8,0-5-2.2-5-5s2.2-5,5-5h27c2.8,0,5,2.2,5,5v27
			C680.5,281.9,678.2,284.1,675.5,284.1z"/>
	</g>
	<g>
		<path class="st0" d="M675.5,401.1h-27c-2.8,0-5-2.2-5-5s2.2-5,5-5h22v-22c0-2.8,2.2-5,5-5s5,2.2,5,5v27
			C680.5,398.9,678.2,401.1,675.5,401.1z"/>
	</g>
	<g>
		<path class="st0" d="M558.5,401.1h-27c-2.8,0-5-2.2-5-5v-27c0-2.8,2.2-5,5-5s5,2.2,5,5v22h22c2.8,0,5,2.2,5,5
			S561.2,401.1,558.5,401.1z"/>
	</g>
</g>
</svg>
