<?xml version="1.0" encoding="utf-8"?>
<!-- Generator: Adobe Illustrator 22.0.1, SVG Export Plug-In . SVG Version: 6.00 Build 0)  -->
<svg version="1.1" id="Layer_1" xmlns="http://www.w3.org/2000/svg" xmlns:xlink="http://www.w3.org/1999/xlink" x="0px" y="0px"
	 viewBox="0 0 1224 1224" style="enable-background:new 0 0 1224 1224;" xml:space="preserve">
<style type="text/css">
	.st0{fill:#FFFFFF;}
	.st1{fill:#000F7C;}
</style>
<g>
	<g>
		<circle class="st0" cx="608.9" cy="538.4" r="117"/>
		<path class="st0" d="M608.9,661.3c-31.5,0-63-12-87-36c-48-48-48-126,0-173.9s126-48,173.9,0c48,48,48,126,0,173.9
			C671.9,649.3,640.4,661.3,608.9,661.3z M608.9,427.4c-28.4,0-56.8,10.8-78.5,32.5c-43.3,43.3-43.3,113.7,0,157
			c43.3,43.3,113.7,43.3,157,0c43.3-43.3,43.3-113.7,0-157C665.7,438.3,637.3,427.4,608.9,427.4z"/>
	</g>
	<g>
		<path class="st1" d="M153.2,661.8c-1.3,0-2.6-0.5-3.5-1.5c-2-2-2-5.1,0-7.1l94.2-94.2c28.4-28.4,66.2-44.1,106.4-44.1h41.4
			c2.8,0,5,2.2,5,5s-2.2,5-5,5h-41.4c-37.5,0-72.8,14.6-99.4,41.2l-94.2,94.2C155.8,661.3,154.5,661.8,153.2,661.8z"/>
	</g>
	<g>
		<path class="st1" d="M290.3,803.9c-1.3,0-2.6-0.5-3.5-1.5c-2-2-2-5.1,0-7.1l18.7-18.7c1.3-1.3,3.3-1.8,5.1-1.2
			c24.8,8.4,51.8,2.1,70.3-16.4l20.6-20.6c2-2,5.1-2,7.1,0c2,2,2,5.1,0,7.1L388,766.1c-20.5,20.5-50,27.9-77.6,19.8l-16.6,16.6
			C292.8,803.4,291.6,803.9,290.3,803.9z"/>
	</g>
	<g>
		<path class="st1" d="M443.3,726.7c-5.9,0-11.8-2.2-16.3-6.7c-9-9-9-23.6,0-32.5c0,0,0,0,0,0c9-9,23.6-9,32.5,0c9,9,9,23.6,0,32.5
			C455.1,724.4,449.2,726.7,443.3,726.7z M434.1,694.5c-5.1,5.1-5.1,13.3,0,18.4c5.1,5.1,13.3,5.1,18.4,0c5.1-5.1,5.1-13.3,0-18.4
			C447.4,689.4,439.2,689.4,434.1,694.5L434.1,694.5z"/>
	</g>
	<g>
		<path class="st1" d="M261.6,734.9c-2.6,0-4.8-2-5-4.6c-0.2-2.8,1.9-5.2,4.6-5.4c16.3-1.2,31.7-8.3,43.3-19.8
			c11.6-11.6,18.6-26.9,19.8-43.3c0.2-2.5,2.2-4.5,4.7-4.6l94.3-4.9c7.4-0.2,14.2-3.2,19.3-8.4c5.4-5.4,8.4-12.6,8.4-20.2
			c0-7.1-2.6-13.8-7.3-19c-57,0-131.7,0-148.6,0c-2.8,0-5-2.2-5-5s2.2-5,5-5c17.1,0,93.5,0,150.7,0c1.3,0,2.6,0.5,3.5,1.4l0.3,0.3
			c15,15,15,39.5,0,54.6c-6.9,7-16.2,11-26,11.3l-89.9,4.7c-2.2,17.1-10.1,33-22.3,45.2c-13.3,13.3-30.9,21.4-49.6,22.7
			C261.8,734.8,261.7,734.9,261.6,734.9z"/>
	</g>
	<g>
		<path class="st1" d="M612,658.2c-31.5,0-63-12-87-36c-23.2-23.2-36-54.1-36-87s12.8-63.7,36-87c48-48,126-48,173.9,0
			c23.2,23.2,36,54.1,36,87s-12.8,63.7-36,87l0,0C675,646.2,643.5,658.2,612,658.2z M612,424.3c-28.4,0-56.8,10.8-78.5,32.5
			c-21,21-32.5,48.8-32.5,78.5s11.5,57.5,32.5,78.5c43.3,43.3,113.7,43.3,157,0l0,0c21-21,32.5-48.8,32.5-78.5s-11.5-57.5-32.5-78.5
			C668.9,435.1,640.5,424.3,612,424.3z"/>
	</g>
	<g>
		<g>
			<path class="st1" d="M689,510.7l-3.5,3.5l-3.5,3.5l-3.5,3.5l-3.5,3.5l-3.5,3.5l-3.5,3.5l-3.5,3.5l24.5,24.5l3.5-3.5l3.5-3.5
				l3.5-3.5l3.5-3.5l3.5-3.5l3.5-3.5l3.5-3.5L689,510.7z M703,538.7l-3.5,3.5l-3.5,3.5l-3.5,3.5l-3.5,3.5l-17.5-17.5l3.5-3.5
				l3.5-3.5l3.5-3.5l3.5-3.5l3.5-3.5l17.5,17.5L703,538.7z"/>
		</g>
		<g>
			<polygon class="st1" points="608.4,451.1 604.9,454.6 601.4,458.1 611.9,468.6 615.4,465.1 618.9,461.6 622.4,458.1 611.9,447.6 
							"/>
		</g>
		<g>
			<polygon class="st1" points="692.5,542.2 696,538.7 699.5,535.2 689,524.7 685.5,528.2 682,531.7 678.5,535.2 689,545.7 			"/>
		</g>
		<g>
			<path class="st1" d="M615.4,479.1l3.5-3.5l3.5-3.5l3.5-3.5l3.5-3.5l3.5-3.5l3.5-3.5l-24.5-24.5l-3.5,3.5l-3.5,3.5l-3.5,3.5
				l-3.5,3.5l-3.5,3.5l-3.5,3.5l-3.5,3.5l24.5,24.5L615.4,479.1z M594.3,458.1l3.5-3.5l3.5-3.5l3.5-3.5l3.5-3.5l3.5-3.5l17.5,17.5
				l-3.5,3.5l-3.5,3.5l-3.5,3.5l-3.5,3.5l-3.5,3.5L594.3,458.1z"/>
		</g>
		<g>
			<path class="st1" d="M531.3,514.2l-3.5,3.5l-3.5,3.5l-3.5,3.5l-3.5,3.5l-3.5,3.5l-3.5,3.5l24.5,24.5l3.5-3.5l3.5-3.5l3.5-3.5
				l3.5-3.5l3.5-3.5l3.5-3.5l3.5-3.5l-24.5-24.5L531.3,514.2z M552.3,535.2l-3.5,3.5l-3.5,3.5l-3.5,3.5l-3.5,3.5l-3.5,3.5
				l-17.5-17.5l3.5-3.5l3.5-3.5l3.5-3.5l3.5-3.5l3.5-3.5L552.3,535.2z"/>
		</g>
		<g>
			<polygon class="st1" points="538.3,542.2 541.8,538.7 545.3,535.2 534.8,524.7 531.3,528.2 527.7,531.7 524.2,535.2 534.8,545.7 
							"/>
		</g>
		<g>
			<g>
				<polygon class="st1" points="639.9,468.6 646.9,475.6 643.4,479.1 646.9,482.6 653.9,475.6 639.9,461.6 632.9,468.6 
					636.4,472.1 639.9,468.6 				"/>
			</g>
			<g>
				<polygon class="st1" points="657.4,493.2 660.9,496.7 668,489.7 657.4,479.1 653.9,482.6 660.9,489.7 657.4,493.2 				"/>
			</g>
			<g>
				<polygon class="st1" points="675,503.7 678.5,500.2 671.5,493.2 668,496.7 671.5,500.2 668,503.7 671.5,507.2 675,503.7 				"/>
			</g>
			<g>
				<polygon class="st1" points="636.4,479.1 639.9,475.6 636.4,472.1 632.9,475.6 636.4,479.1 				"/>
			</g>
			<g>
				<polygon class="st1" points="653.9,489.7 650.4,486.1 646.9,489.7 650.4,493.2 653.9,489.7 				"/>
			</g>
			<g>
				<polygon class="st1" points="678.5,514.2 675,510.7 671.5,514.2 675,517.7 678.5,514.2 				"/>
			</g>
			<g>
				<polygon class="st1" points="632.9,496.7 629.4,500.2 632.9,503.7 636.4,500.2 639.9,503.7 636.4,507.2 639.9,510.7 
					646.9,503.7 639.9,496.7 646.9,489.7 639.9,482.6 632.9,489.7 636.4,493.2 632.9,496.7 				"/>
			</g>
			<g>
				<polygon class="st1" points="646.9,510.7 643.4,514.2 639.9,510.7 636.4,514.2 639.9,517.7 636.4,521.2 639.9,524.7 
					650.4,514.2 653.9,517.7 657.4,514.2 660.9,517.7 664.5,514.2 668,517.7 671.5,514.2 664.5,507.2 668,503.7 664.5,500.2 
					657.4,507.2 653.9,503.7 657.4,500.2 653.9,496.7 646.9,503.7 650.4,507.2 646.9,510.7 				"/>
			</g>
			<g>
				<polygon class="st1" points="590.8,475.6 594.3,472.1 583.8,461.6 576.8,468.6 583.8,475.6 587.3,472.1 590.8,475.6 				"/>
			</g>
			<g>
				<polygon class="st1" points="601.4,479.1 597.9,482.6 604.9,489.7 608.4,486.1 601.4,479.1 				"/>
			</g>
			<g>
				<polygon class="st1" points="668,552.7 671.5,549.2 657.4,535.2 668,524.7 664.5,521.2 657.4,528.2 653.9,524.7 657.4,521.2 
					653.9,517.7 646.9,524.7 653.9,531.7 650.4,535.2 643.4,528.2 639.9,531.7 643.4,535.2 632.9,545.7 629.4,542.2 618.9,552.7 
					622.4,556.3 625.9,552.7 632.9,559.8 639.9,552.7 636.4,549.2 643.4,542.2 646.9,545.7 653.9,538.7 657.4,542.2 653.9,545.7 
					660.9,552.7 664.5,549.2 668,552.7 				"/>
			</g>
			<g>
				<polygon class="st1" points="675,559.8 671.5,563.3 675,566.8 671.5,570.3 675,573.8 685.5,563.3 678.5,556.3 675,559.8 				"/>
			</g>
			<g>
				<polygon class="st1" points="632.9,531.7 636.4,535.2 639.9,531.7 636.4,528.2 632.9,531.7 				"/>
			</g>
			<g>
				<polygon class="st1" points="657.4,556.3 660.9,559.8 657.4,563.3 660.9,566.8 664.5,563.3 668,566.8 671.5,563.3 660.9,552.7 
					657.4,556.3 				"/>
			</g>
			<g>
				<polygon class="st1" points="590.8,503.7 594.3,500.2 590.8,496.7 587.3,500.2 590.8,503.7 				"/>
			</g>
			<g>
				<polygon class="st1" points="664.5,577.3 660.9,573.8 657.4,577.3 660.9,580.8 657.4,584.3 660.9,587.8 671.5,577.3 668,573.8 
					664.5,577.3 				"/>
			</g>
			<g>
				<polygon class="st1" points="569.8,489.7 576.8,482.6 569.8,475.6 559.3,486.1 562.8,489.7 566.3,486.1 569.8,489.7 				"/>
			</g>
			<g>
				<polygon class="st1" points="583.8,503.7 587.3,500.2 583.8,496.7 576.8,503.7 583.8,510.7 587.3,507.2 583.8,503.7 				"/>
			</g>
			<g>
				<polygon class="st1" points="590.8,517.7 594.3,521.2 597.9,517.7 594.3,514.2 590.8,517.7 				"/>
			</g>
			<g>
				<polygon class="st1" points="601.4,528.2 604.9,524.7 601.4,521.2 597.9,524.7 601.4,528.2 				"/>
			</g>
			<g>
				<polygon class="st1" points="566.3,493.2 562.8,489.7 559.3,493.2 562.8,496.7 566.3,493.2 				"/>
			</g>
			<g>
				<polygon class="st1" points="590.8,517.7 583.8,510.7 580.3,514.2 587.3,521.2 590.8,517.7 				"/>
			</g>
			<g>
				<path class="st1" d="M632.9,566.8l-10.5,10.5l-3.5-3.5l7-7l-3.5-3.5l3.5-3.5l-3.5-3.5l-7,7l-3.5-3.5l-3.5,3.5l3.5,3.5l-3.5,3.5
					l3.5,3.5l-14,14l-3.5-3.5l-7,7l3.5,3.5l3.5-3.5l3.5,3.5l-3.5,3.5l3.5,3.5l3.5-3.5l7,7l-7,7l-3.5-3.5l-3.5,3.5l-3.5-3.5l-3.5,3.5
					l14,14l7-7l-3.5-3.5l3.5-3.5l7,7l3.5-3.5l-3.5-3.5l3.5-3.5l-3.5-3.5l7-7l7,7l3.5-3.5l-3.5-3.5l3.5-3.5l-10.5-10.5l7-7l3.5,3.5
					l3.5-3.5l-3.5-3.5l3.5-3.5l3.5,3.5l3.5-3.5l3.5,3.5l3.5-3.5l-3.5-3.5l7-7l-7-7l-7,7l3.5,3.5l-3.5,3.5l-7-7l-3.5,3.5L632.9,566.8
					L632.9,566.8z M622.4,591.3l-10.5,10.5l-10.5-10.5l10.5-10.5L622.4,591.3L622.4,591.3z"/>
			</g>
			<g>
				<polygon class="st1" points="555.8,489.7 552.3,493.2 555.8,496.7 559.3,493.2 555.8,489.7 				"/>
			</g>
			<g>
				<polygon class="st1" points="576.8,510.7 573.3,514.2 576.8,517.7 580.3,514.2 576.8,510.7 				"/>
			</g>
			<g>
				<polygon class="st1" points="559.3,500.2 555.8,496.7 552.3,500.2 548.8,496.7 545.3,500.2 552.3,507.2 559.3,500.2 				"/>
			</g>
			<g>
				<polygon class="st1" points="573.3,514.2 569.8,510.7 573.3,507.2 569.8,503.7 583.8,489.7 580.3,486.1 562.8,503.7 
					566.3,507.2 562.8,510.7 566.3,514.2 562.8,517.7 569.8,524.7 573.3,521.2 569.8,517.7 573.3,514.2 				"/>
			</g>
			<g>
				<polygon class="st1" points="555.8,510.7 552.3,507.2 548.8,510.7 555.8,517.7 562.8,510.7 559.3,507.2 555.8,510.7 				"/>
			</g>
			<g>
				<polygon class="st1" points="636.4,591.3 639.9,587.8 632.9,580.8 629.4,584.3 636.4,591.3 				"/>
			</g>
			<g>
				<polygon class="st1" points="643.4,598.3 646.9,601.8 657.4,591.3 653.9,587.8 650.4,591.3 643.4,584.3 639.9,587.8 
					646.9,594.8 643.4,598.3 				"/>
			</g>
			<g>
				<polygon class="st1" points="538.3,507.2 545.3,514.2 548.8,510.7 541.8,503.7 538.3,507.2 				"/>
			</g>
			<g>
				<polygon class="st1" points="562.8,531.7 566.3,528.2 555.8,517.7 552.3,521.2 562.8,531.7 				"/>
			</g>
			<g>
				<polygon class="st1" points="639.9,601.8 636.4,598.3 632.9,601.8 636.4,605.3 639.9,601.8 				"/>
			</g>
			<g>
				<polygon class="st1" points="566.3,535.2 562.8,538.7 566.3,542.2 569.8,538.7 566.3,535.2 				"/>
			</g>
			<g>
				<polygon class="st1" points="569.8,545.7 573.3,549.2 580.3,542.2 587.3,549.2 590.8,545.7 594.3,549.2 590.8,552.7 
					587.3,549.2 580.3,556.3 587.3,563.3 580.3,570.3 583.8,573.8 580.3,577.3 583.8,580.8 590.8,573.8 594.3,577.3 590.8,580.8 
					594.3,584.3 604.9,573.8 597.9,566.8 601.4,563.3 597.9,559.8 604.9,552.7 608.4,556.3 618.9,545.7 615.4,542.2 618.9,538.7 
					622.4,542.2 632.9,531.7 629.4,528.2 622.4,535.2 618.9,531.7 625.9,524.7 629.4,528.2 636.4,521.2 632.9,517.7 629.4,521.2 
					622.4,514.2 625.9,510.7 629.4,514.2 636.4,507.2 632.9,503.7 629.4,507.2 622.4,500.2 618.9,503.7 622.4,507.2 615.4,514.2 
					611.9,510.7 615.4,507.2 608.4,500.2 611.9,496.7 615.4,500.2 622.4,493.2 618.9,489.7 622.4,486.1 625.9,489.7 622.4,493.2 
					625.9,496.7 632.9,489.7 625.9,482.6 629.4,479.1 625.9,475.6 608.4,493.2 604.9,489.7 601.4,493.2 590.8,482.6 594.3,479.1 
					590.8,475.6 587.3,479.1 583.8,475.6 580.3,479.1 587.3,486.1 583.8,489.7 590.8,496.7 594.3,493.2 601.4,500.2 597.9,503.7 
					601.4,507.2 604.9,503.7 608.4,507.2 604.9,510.7 601.4,507.2 597.9,510.7 601.4,514.2 597.9,517.7 601.4,521.2 608.4,514.2 
					615.4,521.2 618.9,517.7 622.4,521.2 618.9,524.7 615.4,521.2 608.4,528.2 615.4,535.2 608.4,542.2 611.9,545.7 608.4,549.2 
					604.9,545.7 601.4,549.2 594.3,542.2 597.9,538.7 601.4,542.2 608.4,535.2 604.9,531.7 601.4,535.2 594.3,528.2 597.9,524.7 
					594.3,521.2 587.3,528.2 576.8,517.7 573.3,521.2 587.3,535.2 590.8,531.7 594.3,535.2 587.3,542.2 573.3,528.2 569.8,531.7 
					573.3,535.2 569.8,538.7 573.3,542.2 569.8,545.7 				"/>
			</g>
			<g>
				<polygon class="st1" points="573.3,556.3 576.8,552.7 573.3,549.2 569.8,552.7 573.3,556.3 				"/>
			</g>
			<g>
				<polygon class="st1" points="615.4,591.3 611.9,587.8 608.4,591.3 611.9,594.8 615.4,591.3 				"/>
			</g>
			<g>
				<polygon class="st1" points="629.4,612.3 625.9,608.8 618.9,615.8 622.4,619.3 618.9,622.9 615.4,619.3 611.9,622.9 
					618.9,629.9 639.9,608.8 636.4,605.3 629.4,612.3 				"/>
			</g>
			<g>
				<polygon class="st1" points="566.3,549.2 569.8,545.7 566.3,542.2 562.8,545.7 559.3,542.2 555.8,545.7 559.3,549.2 
					555.8,552.7 559.3,556.3 562.8,552.7 566.3,556.3 569.8,552.7 566.3,549.2 				"/>
			</g>
			<g>
				<polygon class="st1" points="587.3,584.3 583.8,580.8 580.3,584.3 576.8,580.8 580.3,577.3 576.8,573.8 573.3,577.3 
					566.3,570.3 569.8,566.8 573.3,570.3 580.3,563.3 576.8,559.8 573.3,563.3 566.3,556.3 562.8,559.8 566.3,563.3 559.3,570.3 
					552.3,563.3 548.8,566.8 545.3,563.3 552.3,556.3 548.8,552.7 538.3,563.3 548.8,573.8 552.3,570.3 559.3,577.3 562.8,573.8 
					566.3,577.3 562.8,580.8 559.3,577.3 555.8,580.8 569.8,594.8 576.8,587.8 580.3,591.3 576.8,594.8 580.3,598.3 587.3,591.3 
					583.8,587.8 587.3,584.3 				"/>
			</g>
			<g>
				<polygon class="st1" points="590.8,601.8 594.3,598.3 590.8,594.8 580.3,605.3 583.8,608.8 587.3,605.3 590.8,608.8 
					594.3,605.3 590.8,601.8 				"/>
			</g>
			<g>
				<polygon class="st1" points="608.4,633.4 611.9,636.9 615.4,633.4 611.9,629.9 608.4,633.4 				"/>
			</g>
		</g>
	</g>
	<g>
		<path class="st1" d="M1070.8,661.9c-1.3,0-2.6-0.5-3.5-1.5L973,566.3c-26.5-26.5-61.8-41.2-99.4-41.2h-72c-2.8,0-5-2.2-5-5
			s2.2-5,5-5h72c40.2,0,78,15.7,106.4,44.1l94.2,94.2c2,2,2,5.1,0,7.1C1073.3,661.4,1072.1,661.9,1070.8,661.9z"/>
	</g>
	<g>
		<path class="st1" d="M933.7,804c-1.3,0-2.6-0.5-3.5-1.5L913.6,786c-27.6,8.2-57.1,0.7-77.6-19.8l-21.6-21.6c-2-2-2-5.1,0-7.1
			c2-2,5.1-2,7.1,0l21.6,21.6c18.5,18.5,45.5,24.8,70.3,16.4c1.8-0.6,3.8-0.1,5.1,1.2l18.7,18.7c2,2,2,5.1,0,7.1
			C936.3,803.6,935,804,933.7,804z"/>
	</g>
	<g>
		<path class="st1" d="M780.7,726.9c-6.1,0-11.9-2.4-16.3-6.7c-4.3-4.3-6.7-10.1-6.7-16.3s2.4-11.9,6.7-16.3
			c4.3-4.3,10.1-6.7,16.3-6.7c6.1,0,11.9,2.4,16.3,6.7c4.3,4.3,6.7,10.1,6.7,16.3s-2.4,11.9-6.7,16.3
			C792.6,724.5,786.8,726.9,780.7,726.9z M780.7,690.9c-3.5,0-6.7,1.4-9.2,3.8c-2.5,2.5-3.8,5.7-3.8,9.2s1.4,6.7,3.8,9.2
			c2.5,2.5,5.7,3.8,9.2,3.8c3.5,0,6.7-1.4,9.2-3.8c2.5-2.5,3.8-5.7,3.8-9.2s-1.4-6.7-3.8-9.2h0C787.4,692.2,784.2,690.9,780.7,690.9
			z"/>
	</g>
	<g>
		<path class="st1" d="M713.9,837.7c-6,0-11.7-2.3-15.9-6.6L367,500.2c-4.2-4.2-6.6-9.9-6.6-15.9c0-6,2.3-11.7,6.6-15.9l178.2-178.2
			c8.8-8.8,23-8.8,31.8,0l306.4,306.4c1.3,1.3,1.7,3.2,1,4.9s-2.3,2.8-4.2,2.8l-100.2,0c-4.9,5.4-7.5,12.3-7.5,19.5
			c0,7.8,3,15.1,8.5,20.6c5.2,5.2,12.2,8.3,19.6,8.5c0,0,0.1,0,0.1,0l91.9,4.8c1.8,0.1,3.3,1.2,4,2.9s0.2,3.5-1,4.8L729.8,831.1
			C725.5,835.4,719.9,837.7,713.9,837.7z M561.1,292.6c-3.5,0-6.9,1.3-9.5,3.9L373.4,474.8c-2.6,2.5-4,5.9-4,9.5s1.4,7,4,9.5
			l330.9,330.9c2.5,2.5,5.9,4,9.5,4c3.6,0,7-1.4,9.5-4L882,666.2l-81.8-4.3c-9.7-0.3-18.8-4.3-25.6-11.1
			c-7.2-7.2-11.2-16.8-11.2-26.9s4-19.7,11.2-26.9l0.3-0.3c0.8-0.8,2-1.3,3.1-1.3l0,0l91.2,0L570.7,296.6
			C568,293.9,564.6,292.6,561.1,292.6z"/>
	</g>
	<g>
		<path class="st1" d="M962.4,735c-0.1,0-0.2,0-0.4,0c-18.7-1.4-36.3-9.5-49.6-22.7c-12.2-12.2-20-28.1-22.3-45.2l-90-4.7
			c-9.7-0.3-18.9-4.3-25.9-11.3c-15.1-15-15.1-39.5,0-54.6l0.3-0.3c0.9-0.9,2.2-1.4,3.5-1.4l0,0c33.8,0,76.7,0,109.3,0l41.4,0
			c2.8,0,5,2.2,5,5s-2.2,5-5,5l-41.4,0c-31.9,0-73.7,0-107.2,0c-4.7,5.3-7.3,12-7.3,19c0,7.6,3,14.8,8.4,20.2
			c5.1,5.1,12,8.1,19.2,8.4l94.3,4.9c2.5,0.1,4.5,2.1,4.7,4.6c1.2,16.3,8.2,31.7,19.8,43.3c11.6,11.6,26.9,18.6,43.3,19.8
			c2.8,0.2,4.8,2.6,4.6,5.4C967.2,733,965,735,962.4,735z"/>
	</g>
	<g>
		<path class="st1" d="M612.1,658.3c-32.9,0-63.7-12.8-87-36c-48-48-48-126,0-173.9c23.2-23.2,54.1-36,87-36s63.7,12.8,87,36
			c48,48,48,126,0,173.9C675.8,645.5,644.9,658.3,612.1,658.3z M612.1,424.3c-29.6,0-57.5,11.5-78.5,32.5
			c-43.3,43.3-43.3,113.7,0,157c21,21,48.8,32.5,78.5,32.5c29.6,0,57.5-11.5,78.5-32.5c43.3-43.3,43.3-113.7,0-157
			C669.6,435.8,641.7,424.3,612.1,424.3z"/>
	</g>
	<g>
		<path class="st1" d="M529.3,559.3c-1.3,0-2.6-0.5-3.5-1.5l-19.1-19.1c-2-2-2-5.1,0-7.1l19.1-19.1c2-2,5.1-2,7.1,0c2,2,2,5.1,0,7.1
			l-15.6,15.6l15.6,15.6c2,2,2,5.1,0,7.1C531.9,558.9,530.6,559.3,529.3,559.3z"/>
	</g>
	<g>
		<path class="st1" d="M631.2,457.5c-1.3,0-2.6-0.5-3.5-1.5l-15.6-15.6l-15.6,15.6c-2,2-5.1,2-7.1,0c-2-2-2-5.1,0-7.1l19.1-19.1
			c2-2,5.1-2,7.1,0l19.1,19.1c2,2,2,5.1,0,7.1C633.7,457,632.4,457.5,631.2,457.5z"/>
	</g>
	<g>
		<path class="st1" d="M694.8,559.3c-1.3,0-2.6-0.5-3.5-1.5c-2-2-2-5.1,0-7.1l15.6-15.6l-15.6-15.6c-2-2-2-5.1,0-7.1
			c2-2,5.1-2,7.1,0l19.1,19.1c0.9,0.9,1.5,2.2,1.5,3.5s-0.5,2.6-1.5,3.5l-19.1,19.1C697.4,558.9,696.1,559.3,694.8,559.3z"/>
	</g>
	<g>
		<path class="st1" d="M612.1,642.1c-1.3,0-2.6-0.5-3.5-1.5l-19.1-19.1c-2-2-2-5.1,0-7.1c2-2,5.1-2,7.1,0l15.6,15.6l15.6-15.6
			c2-2,5.1-2,7.1,0c2,2,2,5.1,0,7.1l-19.1,19.1C614.6,641.6,613.4,642.1,612.1,642.1z"/>
	</g>
	<g>
		<g>
			<path class="st1" d="M833.7,523.3l-6.4-6.4l23.2-23.2c5.3-5.3,5.3-13.8,0-19.1L672.4,296.4c-2.5-2.6-5.9-4-9.5-4
				c-3.6,0-7,1.4-9.5,4l-38,38l-6.4-6.4l38-38c4.2-4.2,9.9-6.6,15.9-6.6c6,0,11.7,2.3,15.9,6.6L857,468.2c8.8,8.8,8.8,23,0,31.8
				L833.7,523.3z"/>
		</g>
		<g>
			<path class="st1" d="M510.1,837.6c-6,0-11.7-2.3-15.9-6.6L328.4,665.2c-1.3-1.3-1.7-3.1-1-4.8c0.6-1.7,2.2-2.8,4-2.9l91.9-4.8
				c7.5-0.2,14.4-3.3,19.7-8.5c11-11,11.3-28.7,1-40.1l-100.2,0c-1.8,0-3.5-1.1-4.2-2.8c-0.7-1.7-0.3-3.6,1-4.9l64.5-64.5
				c1.8-1.8,4.6-1.8,6.4,0l203.6,203.6c0.8,0.8,1.3,2,1.3,3.2s-0.5,2.3-1.3,3.2L526,831C521.8,835.2,516.1,837.6,510.1,837.6z
				 M341.9,666l158.6,158.6c2.5,2.5,5.9,4,9.5,4c3.6,0,7-1.4,9.5-4l85.9-85.9L408.3,541.5l-53.6,53.6l91.2,0c1.2,0,2.3,0.5,3.1,1.3
				l0.3,0.3c7.2,7.2,11.2,16.8,11.2,26.9c0,10.2-4,19.7-11.2,26.9c-6.9,6.9-16,10.8-25.7,11.1L341.9,666z"/>
		</g>
	</g>
</g>
</svg>
