<svg id="OUTLINES" xmlns="http://www.w3.org/2000/svg" viewBox="0 0 1152 1008"><defs><style>.cls-1{fill:#fff;}.cls-2{fill:#000f7d;}</style></defs><title>verifiable-proof-3</title><circle class="cls-1" cx="395.99" cy="436.55" r="117"/><path class="cls-1" d="M396,559.55a123,123,0,1,1,123-123A123.14,123.14,0,0,1,396,559.55Zm0-234a111,111,0,1,0,111,111A111.13,111.13,0,0,0,396,325.55Z"/><circle class="cls-1" cx="755.99" cy="436.55" r="117"/><path class="cls-1" d="M756,559.55a123,123,0,1,1,123-123A123.14,123.14,0,0,1,756,559.55Zm0-234a111,111,0,1,0,111,111A111.13,111.13,0,0,0,756,325.55Z"/><path class="cls-2" d="M994.3,847.44a5,5,0,0,1-5-5V709.2a139.56,139.56,0,0,0-41.16-99.36l-51.4-51.4a5,5,0,0,1,7.07-7.08l51.4,51.4A149.54,149.54,0,0,1,999.3,709.2V842.44A5,5,0,0,1,994.3,847.44Z"/><path class="cls-2" d="M796.9,851a5,5,0,0,1-5-5V822.54A77.9,77.9,0,0,1,751,753.69V723.08a5,5,0,0,1,10,0v30.61A68,68,0,0,0,799.11,815a5,5,0,0,1,2.79,4.48V846A5,5,0,0,1,796.9,851Z"/><path class="cls-2" d="M756,693.5a23,23,0,1,1,23-23A23,23,0,0,1,756,693.5Zm0-36a13,13,0,1,0,13,13A13,13,0,0,0,756,657.5Z"/><path class="cls-2" d="M864.44,724.5H630a22.53,22.53,0,0,1-22.5-22.5V234A22.53,22.53,0,0,1,630,211.5H882a22.52,22.52,0,0,1,22.5,22.5V667.26a4.5,4.5,0,0,1-7.68,3.18L826,599.59a29.1,29.1,0,0,0-19.83,48.93l.06.06L867.78,717a4.5,4.5,0,0,1-3.34,7.51ZM630,220.5a13.52,13.52,0,0,0-13.5,13.5V702A13.52,13.52,0,0,0,630,715.5H854.33l-54.8-60.86a38.09,38.09,0,0,1,27.86-64.08h.45a4.48,4.48,0,0,1,3.14,1.32l64.51,64.52V234A13.51,13.51,0,0,0,882,220.5Z"/><path class="cls-2" d="M157.49,847.44a5,5,0,0,1-5-5V709.2a149.58,149.58,0,0,1,44.09-106.44L247,552.31a5,5,0,0,1,7.07,7.07l-50.46,50.46a139.61,139.61,0,0,0-41.16,99.36V842.44A5,5,0,0,1,157.49,847.44Z"/><path class="cls-2" d="M354.9,851h0a5,5,0,0,1-5-5V819.5a5,5,0,0,1,2.79-4.48,68,68,0,0,0,38.11-61.33V724.5a5,5,0,0,1,10,0v29.19a77.91,77.91,0,0,1-40.9,68.85V846A5,5,0,0,1,354.9,851Z"/><path class="cls-2" d="M395.8,693.5a23,23,0,1,1,23-23A23,23,0,0,1,395.8,693.5Zm0-36a13,13,0,1,0,13,13A13,13,0,0,0,395.8,657.5Z"/><path class="cls-2" d="M521.8,724.5H287.36A4.5,4.5,0,0,1,284,717l61.6-68.41a29.09,29.09,0,0,0-19.78-49L255,670.44a4.5,4.5,0,0,1-7.69-3.18V234a22.53,22.53,0,0,1,22.5-22.5h252A22.52,22.52,0,0,1,544.3,234V702A22.52,22.52,0,0,1,521.8,724.5Zm-224.34-9H521.8A13.51,13.51,0,0,0,535.3,702V234a13.51,13.51,0,0,0-13.5-13.5h-252A13.52,13.52,0,0,0,256.3,234V656.4l64.52-64.52a4.46,4.46,0,0,1,3.13-1.32h.46a38.09,38.09,0,0,1,27.83,64.11Z"/><path class="cls-2" d="M396,555.05a123,123,0,1,1,123-123A123.14,123.14,0,0,1,396,555.05Zm0-234a111,111,0,1,0,111,111A111.13,111.13,0,0,0,396,321.05Z"/><path class="cls-2" d="M756,555.05a123,123,0,1,1,123-123A123.14,123.14,0,0,1,756,555.05Zm0-234a111,111,0,1,0,111,111A111.13,111.13,0,0,0,756,321.05Z"/><path class="cls-2" d="M738,478.55a6,6,0,0,1-4.24-1.76l-40.5-40.5a6,6,0,0,1,8.48-8.49L738,464.06l76.76-76.76a6,6,0,0,1,8.48,8.49l-81,81A6,6,0,0,1,738,478.55Z"/><path class="cls-2" d="M378,478.55a6,6,0,0,1-4.24-1.76l-40.5-40.5a6,6,0,0,1,8.48-8.49L378,464.06l76.76-76.76a6,6,0,0,1,8.48,8.49l-81,81A6,6,0,0,1,378,478.55Z"/><path class="cls-2" d="M866,822.49a5,5,0,0,1-3.79-1.74,78.37,78.37,0,0,1-2.79-98.86l-60.29-66.95a38.6,38.6,0,0,1,28.26-64.89h.48a5,5,0,0,1,3.46,1.46L937.9,698.1a5,5,0,0,1-7.07,7.07L825.77,600.1a28.59,28.59,0,0,0-19.28,48.07l63.22,70.21a5,5,0,0,1,.07,6.61,68.38,68.38,0,0,0,0,89.23,5,5,0,0,1-3.78,8.27Z"/><path class="cls-2" d="M285.8,822.49a4.94,4.94,0,0,1-3.26-1.22,5,5,0,0,1-.53-7A68.35,68.35,0,0,0,282,725a5,5,0,0,1,.07-6.61l63.16-70.14A28.59,28.59,0,0,0,326,600.1L221,705.17a5,5,0,0,1-7.07-7.07L320.47,591.52a5,5,0,0,1,3.46-1.46h.48a38.59,38.59,0,0,1,28.19,65l-60.22,66.88a78.37,78.37,0,0,1-2.79,98.86A5,5,0,0,1,285.8,822.49Z"/></svg>