<?xml version="1.0" encoding="utf-8"?>
<!-- Generator: Adobe Illustrator 22.0.1, SVG Export Plug-In . SVG Version: 6.00 Build 0)  -->
<svg version="1.1" id="Layer_1" xmlns="http://www.w3.org/2000/svg" xmlns:xlink="http://www.w3.org/1999/xlink" x="0px" y="0px"
	 viewBox="0 0 1224 1224" style="enable-background:new 0 0 1224 1224;" xml:space="preserve">
<style type="text/css">
	.st0{fill:#FFFFFF;}
	.st1{fill:#000F7C;}
</style>
<g>
	<circle class="st0" cx="432" cy="508.5" r="117"/>
	<path class="st0" d="M432,631.5c-67.8,0-123-55.2-123-123s55.2-123,123-123s123,55.2,123,123S499.8,631.5,432,631.5z M432,397.5
		c-61.2,0-111,49.8-111,111s49.8,111,111,111s111-49.8,111-111S493.2,397.5,432,397.5z"/>
</g>
<g>
	<circle class="st0" cx="792" cy="508.5" r="117"/>
	<path class="st0" d="M792,631.5c-67.8,0-123-55.2-123-123s55.2-123,123-123s123,55.2,123,123S859.8,631.5,792,631.5z M792,397.5
		c-61.2,0-111,49.8-111,111s49.8,111,111,111s111-49.8,111-111S853.2,397.5,792,397.5z"/>
</g>
<g>
	<path class="st1" d="M1030.3,919.4c-2.8,0-5-2.2-5-5V781.2c0-37.5-14.6-72.8-41.2-99.4l-51.4-51.4c-2-2-2-5.1,0-7.1
		c2-2,5.1-2,7.1,0l51.4,51.4c28.4,28.4,44.1,66.2,44.1,106.4v133.2C1035.3,917.2,1033.1,919.4,1030.3,919.4z"/>
</g>
<g>
	<path class="st1" d="M832.9,923c-2.8,0-5-2.2-5-5v-23.5c-25.3-13.8-40.9-39.9-40.9-68.8V795c0-2.8,2.2-5,5-5s5,2.2,5,5v30.6
		c0,26.2,14.6,49.7,38.1,61.3c1.7,0.8,2.8,2.6,2.8,4.5V918C837.9,920.7,835.7,923,832.9,923z"/>
</g>
<g>
	<path class="st1" d="M792,765.5c-12.7,0-23-10.3-23-23s10.3-23,23-23s23,10.3,23,23S804.7,765.5,792,765.5z M792,729.5
		c-7.2,0-13,5.8-13,13s5.8,13,13,13s13-5.8,13-13S799.2,729.5,792,729.5z"/>
</g>
<g>
	<path class="st1" d="M900.4,796.5H666c-12.4,0-22.5-10.1-22.5-22.5V306c0-12.4,10.1-22.5,22.5-22.5h252c12.4,0,22.5,10.1,22.5,22.5
		v433.3c0,1.8-1.1,3.5-2.8,4.2c-1.7,0.7-3.6,0.3-4.9-1L862,671.5c-15.4,0.7-27.7,13.5-27.7,29.1c0,7.4,2.8,14.5,7.8,19.9
		c0,0,0,0,0.1,0.1l61.6,68.4c1.2,1.3,1.5,3.2,0.8,4.8C903.8,795.4,902.2,796.5,900.4,796.5z M666,292.5c-7.4,0-13.5,6.1-13.5,13.5
		v468c0,7.4,6.1,13.5,13.5,13.5h224.3l-54.8-60.9c-6.6-7.1-10.2-16.3-10.2-26c0-21,17.1-38.1,38.1-38.1l0.4,0c1.2,0,2.3,0.5,3.2,1.3
		l64.5,64.5V306c0-7.4-6.1-13.5-13.5-13.5H666z"/>
</g>
<g>
	<path class="st1" d="M193.5,919.4c-2.8,0-5-2.2-5-5V781.2c0-40.2,15.7-78,44.1-106.4l50.5-50.5c2-2,5.1-2,7.1,0c2,2,2,5.1,0,7.1
		l-50.5,50.5c-26.5,26.5-41.2,61.8-41.2,99.4v133.2C198.5,917.2,196.2,919.4,193.5,919.4z"/>
</g>
<g>
	<path class="st1" d="M390.9,923c-2.8,0-5-2.2-5-5v-26.5c0-1.9,1.1-3.6,2.8-4.5c23.5-11.6,38.1-35.1,38.1-61.3v-29.2
		c0-2.8,2.2-5,5-5s5,2.2,5,5v29.2c0,29-15.6,55.1-40.9,68.8V918C395.9,920.7,393.7,923,390.9,923z"/>
</g>
<g>
	<path class="st1" d="M431.8,765.5c-12.7,0-23-10.3-23-23s10.3-23,23-23s23,10.3,23,23S444.5,765.5,431.8,765.5z M431.8,729.5
		c-7.2,0-13,5.8-13,13s5.8,13,13,13s13-5.8,13-13S439,729.5,431.8,729.5z"/>
</g>
<g>
	<path class="st1" d="M557.8,796.5H323.3c-1.8,0-3.4-1-4.1-2.7c-0.7-1.6-0.4-3.5,0.8-4.8l61.6-68.4c5.1-5.5,7.9-12.5,7.9-19.9
		c0-15.6-12.3-28.3-27.7-29.1L291,742.4c-1.3,1.3-3.2,1.7-4.9,1c-1.7-0.7-2.8-2.3-2.8-4.2V306c0-12.4,10.1-22.5,22.5-22.5h252
		c12.4,0,22.5,10.1,22.5,22.5v468C580.3,786.4,570.2,796.5,557.8,796.5z M333.5,787.5h224.3c7.4,0,13.5-6.1,13.5-13.5V306
		c0-7.4-6.1-13.5-13.5-13.5h-252c-7.4,0-13.5,6.1-13.5,13.5v422.4l64.5-64.5c0.8-0.8,2-1.3,3.2-1.3l0.4,0c21,0,38.1,17.1,38.1,38.1
		c0,9.7-3.6,18.9-10.3,26L333.5,787.5z"/>
</g>
<g>
	<path class="st1" d="M432,627c-67.8,0-123-55.2-123-123s55.2-123,123-123s123,55.2,123,123S499.8,627,432,627z M432,393
		c-61.2,0-111,49.8-111,111s49.8,111,111,111s111-49.8,111-111S493.2,393,432,393z"/>
</g>
<g>
	<path class="st1" d="M792,627c-67.8,0-123-55.2-123-123s55.2-123,123-123s123,55.2,123,123S859.8,627,792,627z M792,393
		c-61.2,0-111,49.8-111,111s49.8,111,111,111s111-49.8,111-111S853.2,393,792,393z"/>
</g>
<g>
	<path class="st1" d="M774,550.5c-1.5,0-3.1-0.6-4.2-1.8l-40.5-40.5c-2.3-2.3-2.3-6.1,0-8.5c2.3-2.3,6.1-2.3,8.5,0L774,536
		l76.8-76.8c2.3-2.3,6.1-2.3,8.5,0c2.3,2.3,2.3,6.1,0,8.5l-81,81C777.1,549.9,775.5,550.5,774,550.5z"/>
</g>
<g>
	<path class="st1" d="M414,550.5c-1.5,0-3.1-0.6-4.2-1.8l-40.5-40.5c-2.3-2.3-2.3-6.1,0-8.5c2.3-2.3,6.1-2.3,8.5,0L414,536
		l76.8-76.8c2.3-2.3,6.1-2.3,8.5,0c2.3,2.3,2.3,6.1,0,8.5l-81,81C417.1,549.9,415.5,550.5,414,550.5z"/>
</g>
<g>
	<g>
		<g>
			<path class="st1" d="M321.8,894.4c-1.2,0-2.3-0.4-3.3-1.2c-2.1-1.8-2.3-5-0.5-7.1c10.7-12.4,16.6-28.2,16.6-44.6
				c0-16.4-5.9-32.2-16.6-44.6c-1.6-1.9-1.6-4.7,0.1-6.6l63.2-70.1c5-5.4,7.8-12.3,7.8-19.6c0-15.2-12-27.7-27-28.6
				c-19.2,19.2-43.4,43.4-64.3,64.4c-17.2,17.2-32.3,32.3-40.7,40.7c-2,2-5.1,2-7.1,0c-2-2-2-5.1,0-7.1c8.4-8.4,23.4-23.5,40.7-40.7
				c21.5-21.5,46.4-46.5,65.8-65.9c0.9-0.9,2.2-1.5,3.5-1.5l0.4,0c21.3,0,38.6,17.3,38.6,38.6c0,9.8-3.7,19.2-10.4,26.4l-60.2,66.9
				c10.5,13.6,16.2,30.4,16.2,47.7c0,18.8-6.7,36.9-19,51.1C324.6,893.9,323.2,894.4,321.8,894.4z"/>
		</g>
	</g>
</g>
<g>
	<g>
		<path class="st1" d="M902,894.4c-1.4,0-2.8-0.6-3.8-1.7c-12.2-14.2-19-32.4-19-51.1c0-17.3,5.7-34.1,16.2-47.7l-60.3-67
			c-6.6-7.1-10.3-16.5-10.3-26.3c0-21.3,17.3-38.6,38.6-38.6l0.4,0c1.3,0,2.6,0.5,3.5,1.5c35.8,35.8,88.3,88.3,106.4,106.4
			c2,2,2,5.1,0,7.1c-2,2-5.1,2-7.1,0c-17.9-17.9-69.2-69.2-104.9-104.9c-15,0.8-27,13.3-27,28.6c0,7.3,2.7,14.2,7.7,19.5l63.2,70.2
			c1.7,1.9,1.7,4.7,0.1,6.6c-10.7,12.4-16.6,28.2-16.6,44.6c0,16.4,5.9,32.2,16.6,44.6c1.8,2.1,1.6,5.2-0.5,7.1
			C904.3,894,903.1,894.4,902,894.4z"/>
	</g>
</g>
</svg>
