<?xml version="1.0" encoding="utf-8"?>
<!-- Generator: Adobe Illustrator 16.0.4, SVG Export Plug-In . SVG Version: 6.00 Build 0)  -->
<!DOCTYPE svg PUBLIC "-//W3C//DTD SVG 1.1//EN" "http://www.w3.org/Graphics/SVG/1.1/DTD/svg11.dtd">
<svg version="1.1" id="Ebene_1" xmlns="http://www.w3.org/2000/svg" xmlns:xlink="http://www.w3.org/1999/xlink" x="0px" y="0px"
	 width="472.779px" height="423.5px" viewBox="0 0 472.779 423.5" enable-background="new 0 0 472.779 423.5" xml:space="preserve">
<path fill="#FFFFFF" stroke="#1F1F1F" stroke-miterlimit="10" d="M442.297,0.25H301.98c-16.481,0-29.842,13.36-29.842,29.842
	v363.316c0,16.48,13.36,29.842,29.842,29.842h140.316c16.482,0,29.842-13.361,29.842-29.842V30.092
	C472.138,13.61,458.779,0.25,442.297,0.25z"/>
<rect x="286.065" y="61.62" fill="#DDDDDD" width="172" height="303"/>
<g>
	<circle fill="#FFFFFF" stroke="#1F1F1F" stroke-miterlimit="10" cx="374.216" cy="391.08" r="17.072"/>
</g>
<g>
	<g>
		<path fill="#1F1F1F" d="M374.216,374.006c0,0,0.209-0.008,0.604-0.021c0.396,0.008,0.969-0.094,1.711-0.002
			c0.375,0.031,0.787,0.064,1.238,0.104c0.443,0.085,0.924,0.178,1.436,0.273c0.514,0.111,1.037,0.299,1.605,0.459
			c0.562,0.178,1.119,0.459,1.723,0.703c0.574,0.299,1.184,0.61,1.779,0.98c0.576,0.402,1.201,0.79,1.756,1.3
			c1.178,0.937,2.242,2.144,3.188,3.493c0.938,1.361,1.688,2.918,2.227,4.575c0.514,1.671,0.756,3.438,0.807,5.209
			c-0.064,0.95-0.047,1.666-0.227,2.614c-0.107,0.914-0.354,1.754-0.578,2.596c-0.537,1.658-1.289,3.216-2.227,4.576
			c-0.947,1.353-2.01,2.56-3.188,3.495c-0.555,0.509-1.182,0.896-1.756,1.298c-0.6,0.371-1.205,0.685-1.779,0.982
			c-0.604,0.244-1.16,0.523-1.723,0.702c-0.57,0.161-1.096,0.35-1.607,0.459c-0.512,0.099-0.99,0.188-1.436,0.271
			c-0.447,0.037-0.859,0.07-1.23,0.104c-0.736,0.092-1.324-0.01-1.719-0.002c-0.395-0.017-0.604-0.022-0.604-0.022
			s0.209-0.029,0.6-0.084c0.387-0.072,0.963-0.097,1.67-0.285c0.354-0.083,0.742-0.176,1.166-0.274
			c0.412-0.137,0.857-0.282,1.334-0.438c0.475-0.164,0.949-0.405,1.461-0.621c0.508-0.229,1.01-0.537,1.545-0.817
			c1.025-0.654,2.102-1.414,3.082-2.384c1.021-0.929,1.895-2.102,2.709-3.342c0.809-1.26,1.371-2.696,1.854-4.174
			c0.188-0.754,0.398-1.519,0.477-2.27c0.148-0.691,0.129-1.663,0.182-2.384c-0.029-1.579-0.221-3.155-0.654-4.652
			c-0.479-1.477-1.045-2.913-1.854-4.173c-0.814-1.238-1.684-2.416-2.707-3.344c-0.98-0.969-2.057-1.729-3.082-2.383
			c-0.535-0.281-1.038-0.588-1.545-0.819c-0.512-0.215-0.988-0.456-1.461-0.62c-0.477-0.156-0.924-0.304-1.336-0.438
			c-0.422-0.102-0.811-0.191-1.16-0.273c-0.699-0.188-1.293-0.213-1.678-0.285C374.423,374.035,374.216,374.006,374.216,374.006z"/>
	</g>
	<path fill="#FFFFFF" stroke="#1F1F1F" stroke-miterlimit="10" d="M374.216,408.152c-9.432,0-17.072-7.646-17.072-17.072
		c0-9.43,7.643-17.074,17.072-17.074"/>
</g>
<circle fill="#1F1F1F" stroke="#FFFFFF" stroke-miterlimit="10" cx="373.724" cy="22.212" r="3.175"/>
<path fill="#1F1F1F" stroke="#FFFFFF" stroke-miterlimit="10" d="M396.526,33.66h-45.189c-0.963,0-1.75-0.788-1.75-1.75l0,0
	c0-0.963,0.787-1.75,1.75-1.75h45.189c0.963,0,1.75,0.787,1.75,1.75l0,0C398.276,32.872,397.489,33.66,396.526,33.66z"/>
<g>
	<path fill="#1E1E1C" d="M302.45,92.663v10.438h-1.345V92.663H302.45z"/>
	<path fill="#1E1E1C" d="M304.829,103.102v-7.548h1.274v0.951c0.237-0.316,0.553-0.581,0.943-0.791
		c0.391-0.209,0.816-0.313,1.281-0.313c0.842,0,1.49,0.25,1.955,0.748c0.465,0.499,0.697,1.168,0.697,2.006v4.947h-1.291v-4.743
		c0-0.544-0.139-0.979-0.416-1.301c-0.279-0.322-0.695-0.484-1.25-0.484c-0.443,0-0.84,0.134-1.19,0.399
		c-0.351,0.267-0.595,0.604-0.729,1.012v5.117H304.829z"/>
	<path fill="#1E1E1C" d="M313.55,102.167c-0.637-0.726-0.951-1.672-0.951-2.84c0-1.167,0.314-2.113,0.951-2.839
		c0.635-0.725,1.463-1.088,2.48-1.088c0.828,0,1.504,0.221,2.031,0.663c0.527,0.441,0.859,1.031,0.994,1.769h-1.311
		c-0.09-0.408-0.283-0.729-0.586-0.961c-0.301-0.231-0.678-0.349-1.131-0.349c-0.646,0-1.164,0.261-1.555,0.782
		c-0.395,0.521-0.588,1.194-0.588,2.021c0,0.828,0.193,1.502,0.588,2.023c0.391,0.521,0.908,0.781,1.555,0.781
		c0.453,0,0.83-0.115,1.131-0.349c0.303-0.233,0.496-0.553,0.586-0.961h1.311c-0.135,0.737-0.467,1.326-0.994,1.769
		c-0.527,0.441-1.203,0.663-2.031,0.663C315.012,103.255,314.184,102.892,313.55,102.167z"/>
	<path fill="#1E1E1C" d="M326.121,96.497c0.643,0.731,0.961,1.675,0.961,2.83c0,1.156-0.318,2.101-0.961,2.831
		c-0.641,0.73-1.477,1.097-2.508,1.097s-1.867-0.365-2.508-1.097c-0.641-0.73-0.961-1.675-0.961-2.831
		c0-1.155,0.32-2.099,0.961-2.83c0.641-0.73,1.477-1.097,2.508-1.097S325.481,95.766,326.121,96.497z M325.203,101.359
		c0.393-0.516,0.586-1.193,0.586-2.032c0-0.838-0.193-1.516-0.586-2.031c-0.391-0.515-0.922-0.772-1.59-0.772
		s-1.199,0.258-1.59,0.772c-0.391,0.516-0.586,1.193-0.586,2.031c0,0.839,0.195,1.518,0.586,2.032s0.922,0.772,1.59,0.772
		S324.813,101.875,325.203,101.359z"/>
	<path fill="#1E1E1C" d="M334.171,96.607c0.564-0.805,1.332-1.207,2.295-1.207c0.76,0,1.346,0.244,1.76,0.73
		c0.414,0.487,0.621,1.146,0.621,1.973v4.998h-1.293v-4.794c0-0.544-0.119-0.973-0.357-1.283c-0.234-0.312-0.594-0.468-1.068-0.468
		c-0.387,0-0.73,0.122-1.037,0.364c-0.307,0.244-0.518,0.569-0.629,0.979v5.202h-1.275v-4.794c0-0.544-0.119-0.973-0.355-1.283
		c-0.236-0.312-0.596-0.468-1.07-0.468c-0.385,0-0.73,0.122-1.037,0.364c-0.305,0.244-0.516,0.569-0.629,0.979v5.202h-1.275v-7.548
		h1.275v0.884c0.432-0.691,1.109-1.037,2.041-1.037C333.082,95.4,333.762,95.803,334.171,96.607z"/>
	<path fill="#1E1E1C" d="M342.221,92.697c0.164,0.159,0.246,0.352,0.246,0.578s-0.082,0.42-0.246,0.578
		c-0.164,0.159-0.361,0.237-0.588,0.237c-0.229,0-0.418-0.078-0.576-0.237c-0.16-0.158-0.238-0.353-0.238-0.578
		c0-0.227,0.078-0.419,0.238-0.578c0.158-0.158,0.35-0.237,0.576-0.237C341.859,92.46,342.057,92.539,342.221,92.697z
		 M342.28,95.554v7.548h-1.273v-7.548H342.28z"/>
	<path fill="#1E1E1C" d="M344.557,103.102v-7.548h1.273v0.951c0.238-0.316,0.555-0.581,0.943-0.791
		c0.391-0.209,0.818-0.313,1.283-0.313c0.84,0,1.49,0.25,1.955,0.748c0.465,0.499,0.695,1.168,0.695,2.006v4.947h-1.289v-4.743
		c0-0.544-0.141-0.979-0.416-1.301c-0.279-0.322-0.695-0.484-1.25-0.484c-0.443,0-0.842,0.134-1.191,0.399
		c-0.35,0.267-0.594,0.604-0.73,1.012v5.117H344.557z"/>
	<path fill="#1E1E1C" d="M357.817,102.592v-0.562c-0.203,0.284-0.496,0.524-0.875,0.723c-0.379,0.199-0.791,0.299-1.23,0.299
		c-1.057,0-1.883-0.374-2.482-1.122c-0.6-0.748-0.9-1.649-0.9-2.703c0-1.065,0.303-1.97,0.9-2.712
		c0.602-0.742,1.428-1.113,2.482-1.113c0.439,0,0.854,0.097,1.23,0.289c0.379,0.192,0.672,0.431,0.875,0.714v-0.85h1.293v6.952
		c0,1.201-0.309,2.11-0.928,2.729c-0.617,0.617-1.43,0.926-2.439,0.926c-0.904,0-1.641-0.221-2.201-0.662
		c-0.56-0.441-0.902-1.055-1.025-1.837h1.258c0.215,0.941,0.871,1.411,1.971,1.411C357.126,105.073,357.817,104.246,357.817,102.592
		z M357.817,100.722v-3.01c-0.43-0.781-1.07-1.173-1.92-1.173c-0.703,0-1.256,0.249-1.658,0.747c-0.4,0.499-0.604,1.146-0.604,1.938
		s0.201,1.437,0.604,1.93c0.403,0.493,0.955,0.739,1.658,0.739C356.746,101.895,357.387,101.504,357.817,100.722z"/>
	<path fill="#1E1E1C" d="M365.969,101.767c-0.893-0.991-1.334-2.286-1.334-3.885c0-1.599,0.441-2.893,1.334-3.885
		c0.891-0.991,2.004-1.486,3.34-1.486c1.078,0,1.971,0.288,2.678,0.866c0.709,0.577,1.17,1.359,1.387,2.347h-1.324
		c-0.479-1.337-1.391-2.006-2.738-2.006c-0.996,0-1.801,0.382-2.414,1.146c-0.611,0.765-0.918,1.771-0.918,3.018
		c0,1.235,0.307,2.238,0.918,3.01c0.613,0.771,1.418,1.155,2.414,1.155c1.361,0,2.271-0.675,2.738-2.022h1.324
		c-0.217,0.998-0.678,1.785-1.387,2.363c-0.707,0.577-1.6,0.866-2.678,0.866C367.973,103.255,366.86,102.76,365.969,101.767z"/>
	<path fill="#1E1E1C" d="M380.58,103.102h-1.225v-0.562c-0.158,0.17-0.424,0.328-0.799,0.477c-0.373,0.146-0.771,0.221-1.189,0.221
		c-0.793,0-1.459-0.221-1.998-0.663c-0.537-0.441-0.807-1.025-0.807-1.751c0-0.69,0.277-1.258,0.832-1.699
		c0.557-0.441,1.242-0.663,2.059-0.663c0.373,0,0.742,0.062,1.104,0.188c0.363,0.125,0.629,0.267,0.799,0.425V98.12
		c0-0.485-0.145-0.878-0.434-1.173c-0.289-0.294-0.699-0.441-1.232-0.441c-0.793,0-1.309,0.347-1.547,1.037h-1.258
		c0.125-0.635,0.443-1.149,0.961-1.548c0.516-0.396,1.137-0.595,1.859-0.595c0.896,0,1.6,0.238,2.107,0.714
		c0.512,0.477,0.766,1.128,0.766,1.955L380.58,103.102L380.58,103.102z M379.356,101.231v-0.782
		c-0.113-0.271-0.336-0.495-0.67-0.671c-0.336-0.176-0.701-0.264-1.098-0.264c-0.498,0-0.926,0.112-1.275,0.34
		c-0.351,0.227-0.525,0.55-0.525,0.969c0,0.432,0.176,0.763,0.525,0.995c0.351,0.231,0.777,0.349,1.275,0.349
		c0.396,0,0.762-0.088,1.098-0.264C379.02,101.728,379.242,101.504,379.356,101.231z"/>
	<path fill="#1E1E1C" d="M384.031,92.052v11.05h-1.273v-11.05H384.031z"/>
	<path fill="#1E1E1C" d="M387.585,92.052v11.05h-1.275v-11.05H387.585z"/>
	<path fill="#1E1E1C" d="M303.258,109.119h0.964l3.119,7.982h-1.042l-0.922-2.405h-3.289l-0.909,2.405h-1.039L303.258,109.119z
		 M303.727,110.394l-1.302,3.405h2.601L303.727,110.394z"/>
	<path fill="#1E1E1C" d="M308.485,117.102v-5.772h0.977v0.729c0.182-0.242,0.422-0.444,0.721-0.604s0.627-0.24,0.98-0.24
		c0.643,0,1.141,0.19,1.494,0.571c0.355,0.382,0.533,0.895,0.533,1.534v3.783h-0.988v-3.627c0-0.416-0.104-0.747-0.316-0.994
		s-0.531-0.371-0.955-0.371c-0.338,0-0.643,0.103-0.91,0.306c-0.27,0.204-0.455,0.462-0.559,0.773v3.913L308.485,117.102
		L308.485,117.102z"/>
	<path fill="#1E1E1C" d="M314.841,117.102v-5.772h0.975v0.729c0.184-0.242,0.424-0.444,0.723-0.604c0.301-0.16,0.625-0.24,0.98-0.24
		c0.643,0,1.141,0.19,1.496,0.571c0.354,0.382,0.533,0.895,0.533,1.534v3.783h-0.988v-3.627c0-0.416-0.107-0.747-0.318-0.994
		c-0.213-0.247-0.529-0.371-0.955-0.371c-0.34,0-0.643,0.103-0.908,0.306c-0.271,0.204-0.455,0.462-0.562,0.773v3.913
		L314.841,117.102L314.841,117.102z"/>
	<path fill="#1E1E1C" d="M325.384,117.102h-0.938v-0.43c-0.121,0.131-0.324,0.251-0.609,0.363c-0.285,0.113-0.59,0.169-0.91,0.169
		c-0.605,0-1.115-0.169-1.527-0.507c-0.41-0.338-0.617-0.784-0.617-1.339c0-0.528,0.213-0.962,0.639-1.3
		c0.426-0.338,0.947-0.507,1.572-0.507c0.285,0,0.566,0.048,0.846,0.143c0.275,0.096,0.48,0.204,0.609,0.325v-0.729
		c0-0.373-0.107-0.672-0.332-0.896c-0.221-0.227-0.535-0.338-0.939-0.338c-0.607,0-1.002,0.265-1.186,0.793h-0.961
		c0.094-0.485,0.34-0.88,0.734-1.184c0.394-0.304,0.869-0.455,1.424-0.455c0.684,0,1.221,0.183,1.611,0.546
		c0.39,0.364,0.584,0.862,0.584,1.495V117.102z M324.448,115.672v-0.599c-0.086-0.208-0.258-0.379-0.514-0.513
		c-0.256-0.136-0.535-0.202-0.838-0.202c-0.381,0-0.707,0.087-0.977,0.26c-0.27,0.174-0.402,0.421-0.402,0.741
		c0,0.33,0.135,0.583,0.402,0.761c0.269,0.178,0.596,0.268,0.977,0.268c0.303,0,0.582-0.067,0.838-0.201
		C324.19,116.052,324.362,115.88,324.448,115.672z"/>
</g>
<circle fill="none" stroke="#F5F5F5" stroke-miterlimit="10" cx="377.45" cy="311.888" r="29.388"/>
<path fill="#FFFFFF" d="M384.216,297.652c-0.072,0.037-0.146,0.076-0.221,0.119c-8.645,5.068-15.553,11.898-20.521,20.604
	c-0.969,1.697-1.379,3.711-2.074,5.658c0.379,0.816,0.564,1.697,1.092,2.254c1.307,1.386,2.668,2.752,4.188,3.887
	c1.699,1.27,2.717,1.01,3.982-0.746c1.023-1.412,1.824-2.998,2.932-4.336c1.799-2.176,2.032-4.297,0.25-6.529
	c-0.936-1.166-0.593-2.088,0.357-3.031c2.188-2.162,4.393-4.312,6.48-6.566c1.367-1.479,2.648-1.724,4.281-0.455
	c1.164,0.907,2.553,1.406,3.943,0.545c2.193-1.354,4.363-2.754,6.447-4.268c1.518-1.102,1.6-2.044,0.664-3.656
	C393.012,295.945,389.533,294.922,384.216,297.652z M394.052,303.672c-1.74,1.137-3.494,2.25-5.191,3.447
	c-1.379,0.973-2.521,0.281-3.693-0.363c-2.713-1.497-2.801-1.602-5.074,0.566c-2.764,2.632-5.348,5.449-8.016,8.182
	c-0.959,0.982-1.084,1.984-0.178,3.08c1.75,2.111,1.719,4.121-0.166,6.206c-0.938,1.036-1.602,2.325-2.34,3.528
	c-0.564,0.92-1.203,1.055-2,0.332c-1.168-1.055-2.365-2.084-3.461-3.211c-0.365-0.373-0.455-1.016-0.744-1.705
	c0.686-1.732,1.158-3.633,2.121-5.24c4.688-7.844,11.031-14.096,18.816-18.879c0.488-0.303,1.031-0.532,1.562-0.762
	c4.336-1.869,6.504-1.095,8.795,2.989C394.975,302.721,394.8,303.188,394.052,303.672z"/>
<rect x="285.795" y="176.121" fill="#FFFFFF" width="172.271" height="27"/>
<g>
	<path fill="#324C9B" d="M298.797,191.741c-0.683-0.758-1.021-1.748-1.021-2.971s0.341-2.212,1.021-2.972
		c0.681-0.758,1.531-1.137,2.554-1.137c0.823,0,1.506,0.221,2.049,0.663c0.541,0.441,0.896,1.039,1.06,1.794h-1.015
		c-0.362-1.021-1.062-1.534-2.094-1.534c-0.763,0-1.377,0.292-1.847,0.877c-0.467,0.585-0.7,1.354-0.7,2.309
		c0,0.944,0.233,1.712,0.7,2.301c0.47,0.59,1.084,0.885,1.847,0.885c1.041,0,1.737-0.516,2.094-1.547h1.015
		c-0.164,0.763-0.519,1.364-1.06,1.807c-0.543,0.442-1.226,0.663-2.049,0.663C300.329,192.879,299.477,192.5,298.797,191.741z"/>
	<path fill="#324C9B" d="M309.977,187.711c0.488,0.561,0.734,1.281,0.734,2.165c0,0.885-0.246,1.605-0.734,2.164
		c-0.49,0.561-1.129,0.839-1.918,0.839s-1.428-0.278-1.918-0.839c-0.488-0.559-0.734-1.279-0.734-2.164
		c0-0.884,0.246-1.604,0.734-2.165c0.49-0.559,1.129-0.838,1.918-0.838S309.487,187.152,309.977,187.711z M309.274,191.43
		c0.299-0.396,0.449-0.912,0.449-1.555c0-0.642-0.15-1.159-0.449-1.554s-0.703-0.592-1.215-0.592s-0.916,0.197-1.215,0.592
		s-0.449,0.912-0.449,1.554c0,0.643,0.15,1.159,0.449,1.555c0.299,0.394,0.703,0.591,1.215,0.591S308.975,191.823,309.274,191.43z"
		/>
	<path fill="#324C9B" d="M316.132,187.796c0.434-0.614,1.02-0.923,1.756-0.923c0.58,0,1.029,0.188,1.346,0.56
		c0.316,0.373,0.477,0.876,0.477,1.508v3.822h-0.988v-3.666c0-0.416-0.092-0.743-0.273-0.981c-0.181-0.238-0.455-0.357-0.816-0.357
		c-0.295,0-0.561,0.094-0.793,0.279c-0.234,0.187-0.396,0.437-0.482,0.748v3.979h-0.975v-3.666c0-0.416-0.092-0.743-0.271-0.981
		c-0.184-0.238-0.455-0.356-0.82-0.356c-0.295,0-0.559,0.093-0.793,0.278c-0.232,0.187-0.395,0.437-0.479,0.748v3.979h-0.976v-5.772
		h0.976v0.677c0.328-0.528,0.85-0.793,1.561-0.793C315.3,186.873,315.821,187.181,316.132,187.796z"/>
	<path fill="#324C9B" d="M325.451,187.796c0.436-0.614,1.021-0.923,1.756-0.923c0.58,0,1.029,0.188,1.348,0.56
		c0.314,0.373,0.475,0.876,0.475,1.508v3.822h-0.987v-3.666c0-0.416-0.093-0.743-0.272-0.981c-0.18-0.238-0.455-0.357-0.818-0.357
		c-0.295,0-0.559,0.094-0.793,0.279c-0.232,0.187-0.395,0.437-0.48,0.748v3.979h-0.977v-3.666c0-0.416-0.09-0.743-0.271-0.981
		c-0.186-0.238-0.455-0.356-0.82-0.356c-0.295,0-0.559,0.093-0.793,0.278c-0.234,0.187-0.395,0.437-0.479,0.748v3.979h-0.977v-5.772
		h0.977v0.677c0.326-0.528,0.85-0.793,1.561-0.793C324.619,186.873,325.141,187.181,325.451,187.796z"/>
	<path fill="#324C9B" d="M334.319,191.033h0.922c-0.104,0.562-0.357,1.012-0.766,1.345c-0.408,0.334-0.928,0.501-1.562,0.501
		c-0.787,0-1.428-0.274-1.918-0.825c-0.486-0.551-0.732-1.271-0.732-2.164c0-0.875,0.242-1.598,0.729-2.164
		c0.484-0.568,1.117-0.853,1.898-0.853c0.771,0,1.369,0.258,1.793,0.773c0.426,0.516,0.637,1.202,0.637,2.061v0.352h-4.082
		c0.01,0.605,0.168,1.09,0.477,1.448c0.309,0.36,0.709,0.54,1.201,0.54c0.363,0,0.672-0.089,0.916-0.267
		C334.078,191.603,334.24,191.354,334.319,191.033z M332.901,187.705c-0.434,0-0.797,0.144-1.092,0.43
		c-0.295,0.285-0.479,0.681-0.545,1.183h3.066c-0.01-0.459-0.135-0.843-0.377-1.15C333.712,187.858,333.362,187.705,332.901,187.705
		z"/>
	<path fill="#324C9B" d="M336.619,192.762v-5.771h0.977v0.729c0.182-0.242,0.422-0.444,0.721-0.604
		c0.299-0.16,0.627-0.24,0.982-0.24c0.641,0,1.139,0.19,1.493,0.571c0.354,0.382,0.532,0.894,0.532,1.534v3.783h-0.986v-3.627
		c0-0.416-0.105-0.747-0.318-0.994s-0.531-0.371-0.955-0.371c-0.338,0-0.641,0.103-0.91,0.306c-0.268,0.204-0.455,0.462-0.559,0.773
		v3.913L336.619,192.762L336.619,192.762z"/>
	<path fill="#324C9B" d="M343.287,192.047c-0.482-0.555-0.727-1.277-0.727-2.171c0-0.893,0.242-1.615,0.727-2.171
		c0.486-0.555,1.119-0.832,1.898-0.832c0.633,0,1.15,0.169,1.555,0.507c0.402,0.339,0.656,0.788,0.761,1.353h-1.003
		c-0.066-0.312-0.219-0.558-0.445-0.734c-0.23-0.178-0.52-0.267-0.865-0.267c-0.494,0-0.891,0.2-1.189,0.599
		c-0.298,0.399-0.445,0.914-0.445,1.547c0,0.634,0.146,1.148,0.445,1.547c0.301,0.399,0.695,0.599,1.189,0.599
		c0.348,0,0.635-0.089,0.865-0.268c0.229-0.177,0.379-0.422,0.445-0.733h1.003c-0.104,0.562-0.356,1.015-0.761,1.353
		c-0.403,0.338-0.922,0.507-1.555,0.507C344.406,192.879,343.774,192.602,343.287,192.047z"/>
	<path fill="#324C9B" d="M352.387,191.033h0.924c-0.104,0.562-0.359,1.012-0.768,1.345c-0.406,0.334-0.93,0.501-1.561,0.501
		c-0.789,0-1.43-0.274-1.918-0.825c-0.49-0.551-0.734-1.271-0.734-2.164c0-0.875,0.242-1.598,0.729-2.164
		c0.486-0.568,1.119-0.853,1.896-0.853c0.771,0,1.369,0.258,1.797,0.773c0.424,0.516,0.637,1.202,0.637,2.061v0.352h-4.082
		c0.008,0.605,0.166,1.09,0.475,1.448c0.309,0.36,0.709,0.54,1.203,0.54c0.363,0,0.668-0.089,0.916-0.267
		C352.147,191.603,352.309,191.354,352.387,191.033z M350.971,187.705c-0.436,0-0.797,0.144-1.092,0.43
		c-0.295,0.285-0.479,0.681-0.549,1.183h3.068c-0.008-0.459-0.135-0.843-0.377-1.15C351.781,187.86,351.43,187.705,350.971,187.705z
		"/>
	<path fill="#324C9B" d="M364.412,192.762h-1.025v-7.981h4.875v0.91h-3.85v2.69h3.613v0.91h-3.613V192.762z"/>
	<path fill="#324C9B" d="M373.61,187.711c0.49,0.561,0.734,1.281,0.734,2.165c0,0.885-0.244,1.605-0.734,2.164
		c-0.488,0.561-1.129,0.839-1.916,0.839c-0.789,0-1.43-0.278-1.918-0.839c-0.49-0.559-0.734-1.279-0.734-2.164
		c0-0.884,0.244-1.604,0.734-2.165c0.488-0.559,1.129-0.838,1.918-0.838C372.481,186.873,373.121,187.152,373.61,187.711z
		 M372.908,191.43c0.299-0.396,0.449-0.912,0.449-1.555c0-0.642-0.15-1.159-0.449-1.554s-0.705-0.592-1.215-0.592
		c-0.512,0-0.918,0.197-1.217,0.592s-0.447,0.912-0.447,1.554c0,0.643,0.148,1.159,0.447,1.555c0.299,0.394,0.705,0.591,1.217,0.591
		C372.203,192.021,372.61,191.823,372.908,191.43z"/>
	<path fill="#324C9B" d="M378.635,186.964v1.001c-0.156-0.104-0.373-0.155-0.65-0.155c-0.312,0-0.59,0.096-0.832,0.286
		c-0.242,0.189-0.412,0.454-0.508,0.793v3.874h-0.975v-5.772h0.975v0.755c0.131-0.252,0.324-0.46,0.58-0.624
		c0.254-0.165,0.539-0.247,0.852-0.247C378.326,186.873,378.514,186.903,378.635,186.964z"/>
	<path fill="#324C9B" d="M380.115,191.306v-3.484h-0.936v-0.832h0.936v-1.521h0.979v1.521h1.391v0.832h-1.391v3.381
		c0,0.537,0.256,0.807,0.766,0.807c0.271,0,0.521-0.078,0.754-0.234v0.91c-0.242,0.13-0.545,0.194-0.908,0.194
		c-0.484,0-0.869-0.132-1.156-0.396C380.26,192.219,380.115,191.826,380.115,191.306z"/>
	<path fill="#324C9B" d="M384.895,184.806c0.125,0.121,0.188,0.269,0.188,0.441s-0.062,0.32-0.188,0.441
		c-0.127,0.122-0.275,0.183-0.449,0.183s-0.32-0.061-0.439-0.183c-0.123-0.121-0.186-0.27-0.186-0.441
		c0-0.174,0.062-0.32,0.186-0.441c0.119-0.121,0.268-0.183,0.439-0.183S384.768,184.685,384.895,184.806z M384.94,186.989v5.771
		h-0.975v-5.771H384.94z"/>
	<path fill="#324C9B" d="M389.567,184.325v0.884c-0.164-0.104-0.367-0.155-0.609-0.155c-0.295,0-0.525,0.091-0.695,0.272
		c-0.168,0.182-0.252,0.441-0.252,0.779v0.884h1.299v0.832h-1.299v4.939h-0.963v-4.939h-0.977v-0.832h0.977v-0.962
		c0-0.562,0.162-1.009,0.492-1.339c0.33-0.329,0.754-0.494,1.273-0.494C389.108,184.194,389.36,184.238,389.567,184.325z"/>
	<path fill="#324C9B" d="M391.367,184.806c0.125,0.121,0.189,0.269,0.189,0.441s-0.064,0.32-0.189,0.441
		c-0.125,0.122-0.273,0.183-0.447,0.183s-0.32-0.061-0.441-0.183c-0.121-0.121-0.182-0.27-0.182-0.441
		c0-0.174,0.061-0.32,0.182-0.441c0.121-0.121,0.27-0.183,0.441-0.183C391.093,184.624,391.242,184.685,391.367,184.806z
		 M391.412,186.989v5.771h-0.975v-5.771H391.412z"/>
	<path fill="#324C9B" d="M396.796,191.033h0.922c-0.104,0.562-0.359,1.012-0.768,1.345c-0.406,0.334-0.928,0.501-1.561,0.501
		c-0.789,0-1.428-0.274-1.918-0.825c-0.488-0.551-0.734-1.271-0.734-2.164c0-0.875,0.242-1.598,0.729-2.164
		c0.482-0.568,1.116-0.853,1.896-0.853c0.771,0,1.369,0.258,1.793,0.773c0.427,0.516,0.639,1.202,0.639,2.061v0.352h-4.082
		c0.01,0.605,0.168,1.09,0.475,1.448c0.309,0.36,0.709,0.54,1.203,0.54c0.363,0,0.67-0.089,0.916-0.267
		C396.555,191.603,396.718,191.354,396.796,191.033z M395.378,187.705c-0.436,0-0.799,0.144-1.094,0.43
		c-0.295,0.285-0.477,0.681-0.545,1.183h3.068c-0.01-0.459-0.135-0.843-0.377-1.15C396.188,187.858,395.839,187.705,395.378,187.705
		z"/>
	<path fill="#324C9B" d="M402.93,192.762v-0.677c-0.154,0.227-0.381,0.414-0.676,0.565s-0.611,0.228-0.949,0.228
		c-0.814,0-1.451-0.285-1.91-0.857s-0.689-1.287-0.689-2.146c0-0.85,0.23-1.562,0.689-2.139c0.459-0.577,1.096-0.864,1.91-0.864
		c0.338,0,0.654,0.075,0.949,0.229c0.295,0.15,0.521,0.34,0.676,0.564v-3.354h0.988v8.45L402.93,192.762L402.93,192.762z
		 M402.93,191.046v-2.34c-0.146-0.295-0.354-0.525-0.617-0.695c-0.264-0.17-0.553-0.254-0.863-0.254
		c-0.539,0-0.965,0.197-1.28,0.593c-0.315,0.395-0.476,0.902-0.476,1.526s0.158,1.133,0.476,1.527
		c0.316,0.394,0.741,0.592,1.28,0.592c0.312,0,0.602-0.085,0.863-0.254C402.578,191.572,402.783,191.341,402.93,191.046z"/>
</g>
<g>
	<path fill="#1E1E1C" d="M297.185,167.575l1.771-2.898h0.84l-2.239,3.608v2.53h-0.78v-2.53l-2.22-3.608h0.859L297.185,167.575z"/>
	<path fill="#1E1E1C" d="M303.191,166.931c0.376,0.43,0.563,0.983,0.563,1.665c0,0.68-0.188,1.233-0.563,1.665
		c-0.377,0.43-0.869,0.646-1.477,0.646c-0.606,0-1.098-0.215-1.476-0.646c-0.377-0.432-0.564-0.985-0.564-1.665
		c0-0.682,0.188-1.235,0.564-1.665c0.378-0.432,0.868-0.646,1.476-0.646S302.814,166.5,303.191,166.931z M302.651,169.79
		c0.229-0.303,0.346-0.701,0.346-1.193c0-0.493-0.115-0.893-0.346-1.195c-0.229-0.304-0.542-0.455-0.937-0.455
		s-0.704,0.151-0.936,0.455c-0.229,0.304-0.345,0.702-0.345,1.195c0,0.492,0.113,0.892,0.345,1.193
		c0.229,0.305,0.541,0.455,0.936,0.455S302.42,170.094,302.651,169.79z"/>
	<path fill="#1E1E1C" d="M308.315,166.375v4.44h-0.76v-0.561c-0.134,0.188-0.313,0.342-0.54,0.466
		c-0.229,0.123-0.479,0.186-0.75,0.186c-0.493,0-0.875-0.146-1.146-0.439c-0.271-0.293-0.404-0.687-0.404-1.181v-2.91h0.761v2.79
		c0,0.327,0.08,0.584,0.239,0.771s0.402,0.279,0.729,0.279c0.254,0,0.481-0.076,0.688-0.229c0.201-0.153,0.345-0.354,0.425-0.6
		v-3.012L308.315,166.375L308.315,166.375z"/>
	<path fill="#1E1E1C" d="M311.926,166.355v0.77c-0.12-0.079-0.287-0.119-0.5-0.119c-0.24,0-0.454,0.073-0.643,0.221
		c-0.187,0.146-0.314,0.35-0.39,0.608v2.98h-0.75v-4.44h0.75v0.58c0.1-0.192,0.248-0.353,0.445-0.479
		c0.194-0.127,0.415-0.19,0.652-0.19C311.688,166.285,311.831,166.309,311.926,166.355z"/>
	<path fill="#1E1E1C" d="M314.695,169.596h0.78c0.14,0.452,0.49,0.68,1.05,0.68c0.273,0,0.493-0.055,0.66-0.165
		c0.167-0.11,0.25-0.275,0.25-0.495c0-0.3-0.22-0.507-0.66-0.62l-0.88-0.229c-0.714-0.182-1.07-0.57-1.07-1.17
		c0-0.388,0.15-0.702,0.45-0.945c0.3-0.243,0.68-0.365,1.14-0.365c0.48,0,0.867,0.11,1.16,0.33c0.294,0.22,0.48,0.53,0.562,0.931
		h-0.75c-0.134-0.421-0.46-0.631-0.98-0.631c-0.231,0-0.434,0.057-0.6,0.165c-0.167,0.11-0.25,0.27-0.25,0.477
		c0,0.146,0.048,0.262,0.145,0.345c0.099,0.083,0.255,0.155,0.478,0.215l0.857,0.21c0.754,0.2,1.132,0.613,1.132,1.24
		c0,0.413-0.153,0.74-0.462,0.979c-0.307,0.239-0.701,0.359-1.188,0.359c-0.487,0-0.896-0.116-1.226-0.35
		C314.961,170.322,314.761,170.002,314.695,169.596z"/>
	<path fill="#1E1E1C" d="M322.005,169.485h0.71c-0.08,0.434-0.276,0.778-0.592,1.035c-0.312,0.257-0.713,0.385-1.198,0.385
		c-0.606,0-1.1-0.211-1.477-0.635s-0.563-0.979-0.563-1.665c0-0.673,0.187-1.229,0.561-1.665c0.373-0.438,0.859-0.655,1.46-0.655
		c0.593,0,1.053,0.198,1.38,0.596c0.326,0.396,0.49,0.926,0.49,1.585v0.271h-3.141c0.007,0.467,0.129,0.839,0.363,1.115
		c0.236,0.275,0.547,0.415,0.927,0.415c0.278,0,0.516-0.068,0.705-0.205C321.82,169.924,321.945,169.732,322.005,169.485z
		 M320.914,166.927c-0.333,0-0.611,0.108-0.84,0.329c-0.227,0.221-0.367,0.523-0.42,0.909h2.36c-0.007-0.353-0.104-0.646-0.29-0.885
		C321.537,167.044,321.268,166.927,320.914,166.927z"/>
	<path fill="#1E1E1C" d="M324.034,170.266c-0.374-0.428-0.561-0.983-0.561-1.67c0-0.688,0.187-1.243,0.561-1.67
		c0.373-0.428,0.859-0.642,1.46-0.642c0.486,0,0.887,0.13,1.195,0.392c0.312,0.26,0.505,0.605,0.585,1.039h-0.771
		c-0.056-0.239-0.168-0.429-0.347-0.564c-0.177-0.136-0.396-0.205-0.665-0.205c-0.38,0-0.686,0.153-0.915,0.46
		c-0.229,0.307-0.345,0.703-0.345,1.19c0,0.485,0.114,0.883,0.345,1.188c0.229,0.308,0.535,0.46,0.915,0.46
		c0.269,0,0.488-0.067,0.665-0.205c0.179-0.136,0.291-0.324,0.347-0.563h0.771c-0.08,0.434-0.273,0.779-0.585,1.04
		c-0.311,0.26-0.709,0.39-1.195,0.39C324.894,170.905,324.407,170.692,324.034,170.266z"/>
	<path fill="#1E1E1C" d="M331.795,166.375v4.44h-0.762v-0.561c-0.134,0.188-0.312,0.342-0.54,0.466
		c-0.227,0.123-0.477,0.186-0.75,0.186c-0.492,0-0.875-0.146-1.146-0.439c-0.271-0.293-0.404-0.687-0.404-1.181v-2.91h0.76v2.79
		c0,0.327,0.08,0.584,0.24,0.771c0.159,0.187,0.403,0.279,0.729,0.279c0.254,0,0.479-0.076,0.686-0.229
		c0.203-0.153,0.345-0.354,0.425-0.6v-3.012L331.795,166.375L331.795,166.375z"/>
	<path fill="#1E1E1C" d="M335.405,166.355v0.77c-0.12-0.079-0.287-0.119-0.5-0.119c-0.24,0-0.454,0.073-0.641,0.221
		c-0.188,0.146-0.316,0.35-0.392,0.608v2.98h-0.75v-4.44h0.75v0.58c0.102-0.192,0.248-0.353,0.445-0.479
		c0.196-0.127,0.415-0.19,0.654-0.19C335.166,166.285,335.311,166.309,335.405,166.355z"/>
	<path fill="#1E1E1C" d="M337.05,164.695c0.097,0.094,0.146,0.207,0.146,0.34c0,0.134-0.049,0.247-0.146,0.34
		c-0.099,0.095-0.212,0.142-0.347,0.142c-0.134,0-0.247-0.047-0.34-0.142c-0.094-0.093-0.141-0.206-0.141-0.34
		c0-0.133,0.047-0.246,0.141-0.34c0.093-0.093,0.206-0.14,0.34-0.14C336.838,164.556,336.952,164.603,337.05,164.695z
		 M337.085,166.375v4.44h-0.75v-4.44H337.085z"/>
	<path fill="#1E1E1C" d="M338.635,169.695v-2.68h-0.722v-0.642h0.722v-1.17h0.75v1.17h1.068v0.642h-1.068v2.6
		c0,0.414,0.194,0.62,0.59,0.62c0.207,0,0.398-0.06,0.58-0.18v0.699c-0.188,0.101-0.42,0.149-0.7,0.149
		c-0.373,0-0.67-0.102-0.89-0.305C338.743,170.396,338.635,170.096,338.635,169.695z"/>
	<path fill="#1E1E1C" d="M342.836,172.516h-0.74l0.67-1.67l-1.73-4.472h0.812l1.31,3.5l1.29-3.5h0.78L342.836,172.516z"/>
	<path fill="#1E1E1C" d="M351.105,166.375l0.91,3.392l0.979-3.392h0.73l-1.312,4.44h-0.729l-0.92-3.37l-0.933,3.37h-0.729
		l-1.312-4.44h0.75l0.979,3.392l0.91-3.392H351.105z"/>
	<path fill="#1E1E1C" d="M357.77,166.931c0.376,0.43,0.564,0.983,0.564,1.665c0,0.68-0.188,1.233-0.564,1.665
		c-0.377,0.43-0.869,0.646-1.476,0.646c-0.607,0-1.1-0.215-1.477-0.646c-0.377-0.432-0.563-0.985-0.563-1.665
		c0-0.682,0.188-1.235,0.563-1.665c0.377-0.432,0.868-0.646,1.477-0.646C356.901,166.285,357.393,166.5,357.77,166.931z
		 M357.23,169.79c0.229-0.303,0.345-0.701,0.345-1.193c0-0.493-0.113-0.893-0.345-1.195c-0.229-0.304-0.542-0.455-0.936-0.455
		c-0.396,0-0.705,0.151-0.937,0.455c-0.229,0.304-0.345,0.702-0.345,1.195c0,0.492,0.114,0.892,0.345,1.193
		c0.229,0.305,0.541,0.455,0.937,0.455C356.688,170.245,357.001,170.094,357.23,169.79z"/>
	<path fill="#1E1E1C" d="M361.635,166.355v0.77c-0.12-0.079-0.287-0.119-0.5-0.119c-0.24,0-0.454,0.073-0.643,0.221
		c-0.187,0.146-0.314,0.35-0.39,0.608v2.98h-0.75v-4.44h0.75v0.58c0.1-0.192,0.248-0.353,0.445-0.479
		c0.194-0.127,0.415-0.19,0.652-0.19C361.397,166.285,361.54,166.309,361.635,166.355z"/>
	<path fill="#1E1E1C" d="M365.365,170.815v-0.521c-0.119,0.174-0.293,0.318-0.52,0.436c-0.229,0.117-0.47,0.175-0.73,0.175
		c-0.626,0-1.116-0.22-1.47-0.66c-0.354-0.438-0.53-0.989-0.53-1.648c0-0.653,0.177-1.202,0.53-1.646
		c0.353-0.444,0.844-0.665,1.47-0.665c0.261,0,0.504,0.06,0.73,0.175c0.227,0.117,0.398,0.263,0.52,0.437v-2.58h0.761v6.5
		L365.365,170.815L365.365,170.815z M365.365,169.495v-1.8c-0.111-0.227-0.271-0.405-0.475-0.535
		c-0.204-0.13-0.425-0.194-0.665-0.194c-0.413,0-0.741,0.151-0.985,0.455c-0.243,0.304-0.364,0.694-0.364,1.176
		c0,0.479,0.121,0.87,0.364,1.175c0.244,0.304,0.572,0.455,0.985,0.455c0.24,0,0.462-0.065,0.665-0.195
		C365.094,169.902,365.252,169.722,365.365,169.495z"/>
</g>
<g>
	<g>
		<g>
			<path fill="#DDDDDD" d="M13.251,61.62v303h172v-303H13.251z"/>
		</g>
	</g>
	<path fill="#FFFFFF" stroke="#1F1F1F" stroke-miterlimit="10" d="M0,29.842C0,13.36,13.36,0,29.842,0"/>
	<circle fill="#1F1F1F" stroke="#FFFFFF" stroke-miterlimit="10" cx="100.724" cy="22.212" r="3.175"/>
	<path fill="#1F1F1F" stroke="#FFFFFF" stroke-miterlimit="10" d="M123.525,33.66h-45.19c-0.962,0-1.75-0.788-1.75-1.75l0,0
		c0-0.963,0.788-1.75,1.75-1.75h45.189c0.963,0,1.75,0.787,1.75,1.75l0,0C125.275,32.872,124.488,33.66,123.525,33.66z"/>
	<path fill="#FFFFFF" stroke="#1F1F1F" stroke-miterlimit="10" d="M170.158,0H29.842C13.36,0,0,13.36,0,29.842v363.316
		C0,409.639,13.36,423,29.842,423h140.316C186.64,423,200,409.639,200,393.158V29.842C200,13.36,186.64,0,170.158,0z M185,364H13V61
		h172V364z"/>
	<g>
		<path fill="#1E1E1C" d="M33.016,103.102h-0.918l-3.3-7.956v7.956h-1.273V92.663h1.514l3.536,8.568l3.52-8.568h1.463v10.438h-1.275
			v-7.956L33.016,103.102z"/>
		<path fill="#1E1E1C" d="M41.149,92.697c0.164,0.159,0.246,0.352,0.246,0.578s-0.082,0.42-0.246,0.578
			c-0.164,0.159-0.359,0.237-0.587,0.237s-0.419-0.078-0.577-0.237c-0.158-0.158-0.237-0.353-0.237-0.578
			c0-0.227,0.079-0.419,0.237-0.578c0.158-0.158,0.352-0.237,0.577-0.237S40.985,92.539,41.149,92.697z M41.209,95.554v7.548h-1.274
			v-7.548H41.209z"/>
		<path fill="#1E1E1C" d="M47.362,95.52v1.309c-0.203-0.136-0.486-0.203-0.85-0.203c-0.408,0-0.771,0.124-1.089,0.374
			c-0.316,0.249-0.537,0.596-0.662,1.036v5.066h-1.275v-7.548h1.275v0.985c0.17-0.329,0.422-0.601,0.757-0.815
			c0.334-0.215,0.705-0.323,1.112-0.323C46.96,95.4,47.204,95.44,47.362,95.52z"/>
		<path fill="#1E1E1C" d="M53.907,103.102l-2.872-3.485l-0.815,0.782v2.703h-1.275v-11.05h1.275v6.851l3.45-3.349h1.684
			l-3.398,3.264l3.52,4.284H53.907z"/>
		<path fill="#1E1E1C" d="M62.042,96.497c0.642,0.731,0.961,1.675,0.961,2.83c0,1.156-0.319,2.101-0.961,2.831
			c-0.642,0.73-1.478,1.097-2.507,1.097c-1.032,0-1.868-0.365-2.509-1.097c-0.642-0.73-0.961-1.675-0.961-2.831
			c0-1.155,0.319-2.099,0.961-2.83c0.641-0.73,1.477-1.097,2.509-1.097C60.565,95.4,61.401,95.766,62.042,96.497z M61.124,101.359
			c0.393-0.516,0.587-1.193,0.587-2.032c0-0.838-0.194-1.516-0.587-2.031c-0.392-0.515-0.921-0.772-1.589-0.772
			c-0.669,0-1.199,0.258-1.591,0.772c-0.392,0.517-0.587,1.193-0.587,2.031c0,0.839,0.194,1.518,0.587,2.032
			c0.392,0.516,0.922,0.772,1.591,0.772C60.203,102.133,60.733,101.875,61.124,101.359z"/>
		<path fill="#1E1E1C" d="M26.582,115.021h1.04c0.304,0.884,0.979,1.326,2.027,1.326c0.528,0,0.955-0.124,1.28-0.37
			c0.324-0.247,0.486-0.588,0.486-1.021c0-0.32-0.101-0.583-0.299-0.787c-0.199-0.203-0.524-0.36-0.976-0.475l-1.432-0.377
			c-1.272-0.329-1.911-1.014-1.911-2.054c0-0.667,0.247-1.211,0.741-1.633c0.494-0.42,1.122-0.63,1.886-0.63
			c0.807,0,1.455,0.188,1.949,0.565s0.818,0.891,0.977,1.54h-1.026c-0.286-0.823-0.919-1.234-1.896-1.234
			c-0.486,0-0.884,0.119-1.19,0.357c-0.307,0.237-0.461,0.557-0.461,0.955c0,0.329,0.104,0.587,0.312,0.772
			c0.208,0.187,0.529,0.336,0.962,0.448l1.365,0.352c1.326,0.339,1.988,1.054,1.988,2.146c0,0.711-0.258,1.274-0.772,1.689
			c-0.515,0.416-1.177,0.624-1.981,0.624c-0.808,0-1.481-0.192-2.027-0.578C27.076,116.255,26.729,115.715,26.582,115.021z"/>
		<path fill="#1E1E1C" d="M37.476,115.373h0.923c-0.104,0.562-0.358,1.013-0.768,1.346c-0.406,0.334-0.928,0.501-1.561,0.501
			c-0.788,0-1.429-0.275-1.918-0.826c-0.488-0.55-0.733-1.271-0.733-2.164c0-0.875,0.242-1.598,0.729-2.164
			c0.484-0.568,1.118-0.853,1.897-0.853c0.771,0,1.369,0.259,1.794,0.773c0.426,0.514,0.638,1.202,0.638,2.061v0.352h-4.082
			c0.009,0.605,0.167,1.09,0.476,1.449s0.709,0.54,1.202,0.54c0.363,0,0.67-0.09,0.916-0.268
			C37.236,115.942,37.397,115.693,37.476,115.373z M36.059,112.045c-0.435,0-0.797,0.144-1.093,0.43
			c-0.295,0.286-0.478,0.681-0.546,1.183h3.067c-0.009-0.459-0.135-0.843-0.377-1.15C36.869,112.198,36.519,112.045,36.059,112.045z
			"/>
		<path fill="#1E1E1C" d="M40.114,116.387c-0.484-0.556-0.728-1.278-0.728-2.172c0-0.893,0.241-1.615,0.728-2.171
			c0.486-0.555,1.118-0.832,1.898-0.832c0.633,0,1.149,0.169,1.554,0.508c0.401,0.338,0.656,0.787,0.761,1.352h-1.001
			c-0.069-0.312-0.22-0.557-0.448-0.734c-0.229-0.177-0.519-0.267-0.863-0.267c-0.494,0-0.892,0.2-1.188,0.599
			c-0.299,0.399-0.448,0.914-0.448,1.547c0,0.634,0.148,1.148,0.448,1.548c0.299,0.398,0.694,0.598,1.188,0.598
			c0.347,0,0.635-0.089,0.863-0.267c0.229-0.178,0.379-0.423,0.448-0.734h1.001c-0.104,0.562-0.356,1.015-0.761,1.353
			c-0.402,0.339-0.921,0.508-1.554,0.508C41.232,117.219,40.6,116.941,40.114,116.387z"/>
		<path fill="#1E1E1C" d="M50.202,111.329v5.772h-0.987v-0.729c-0.174,0.242-0.407,0.443-0.701,0.604
			c-0.296,0.16-0.62,0.239-0.977,0.239c-0.642,0-1.138-0.189-1.488-0.571c-0.352-0.381-0.525-0.894-0.525-1.534v-3.783h0.988v3.628
			c0,0.424,0.104,0.758,0.312,1.001c0.208,0.242,0.524,0.363,0.949,0.363c0.329,0,0.626-0.1,0.892-0.299
			c0.265-0.199,0.447-0.459,0.553-0.78v-3.913L50.202,111.329L50.202,111.329z"/>
		<path fill="#1E1E1C" d="M54.896,111.304v1.001c-0.155-0.104-0.373-0.156-0.649-0.156c-0.312,0-0.589,0.096-0.832,0.286
			c-0.242,0.189-0.411,0.455-0.507,0.793v3.874h-0.976v-5.772h0.976v0.755c0.13-0.252,0.322-0.46,0.578-0.624
			c0.256-0.165,0.539-0.247,0.853-0.247C54.588,111.213,54.774,111.243,54.896,111.304z"/>
		<path fill="#1E1E1C" d="M59.575,115.373h0.923c-0.104,0.562-0.358,1.013-0.768,1.346c-0.406,0.334-0.929,0.501-1.561,0.501
			c-0.789,0-1.429-0.275-1.918-0.826c-0.488-0.55-0.733-1.271-0.733-2.164c0-0.875,0.241-1.598,0.729-2.164
			c0.484-0.568,1.118-0.853,1.897-0.853c0.771,0,1.369,0.259,1.794,0.773c0.425,0.514,0.638,1.202,0.638,2.061v0.352h-4.082
			c0.009,0.605,0.167,1.09,0.476,1.449c0.308,0.359,0.709,0.54,1.202,0.54c0.363,0,0.669-0.09,0.916-0.268
			C59.335,115.942,59.497,115.693,59.575,115.373z M58.158,112.045c-0.435,0-0.798,0.144-1.093,0.43
			c-0.295,0.286-0.478,0.681-0.546,1.183h3.067c-0.009-0.459-0.135-0.843-0.377-1.15C58.969,112.198,58.618,112.045,58.158,112.045z
			"/>
		<path fill="#1E1E1C" d="M65.711,117.102v-0.676c-0.154,0.226-0.381,0.413-0.676,0.564c-0.296,0.151-0.611,0.229-0.949,0.229
			c-0.813,0-1.451-0.286-1.911-0.858c-0.459-0.572-0.688-1.287-0.688-2.146c0-0.85,0.229-1.562,0.688-2.139
			c0.46-0.576,1.098-0.864,1.911-0.864c0.338,0,0.653,0.075,0.949,0.229c0.295,0.15,0.521,0.34,0.676,0.564v-3.354h0.988v8.45
			L65.711,117.102L65.711,117.102z M65.711,115.386v-2.341c-0.146-0.295-0.354-0.525-0.616-0.695
			c-0.266-0.169-0.554-0.253-0.864-0.253c-0.538,0-0.965,0.196-1.279,0.592c-0.317,0.395-0.476,0.903-0.476,1.526
			c0,0.624,0.156,1.134,0.476,1.527c0.314,0.396,0.741,0.592,1.279,0.592c0.312,0,0.601-0.085,0.864-0.254
			C65.357,115.911,65.563,115.681,65.711,115.386z"/>
		<path fill="#1E1E1C" d="M68.175,116.965c-0.134-0.134-0.2-0.301-0.2-0.5c0-0.198,0.066-0.367,0.2-0.507
			c0.136-0.139,0.303-0.208,0.501-0.208c0.19,0,0.354,0.069,0.487,0.208c0.134,0.14,0.2,0.309,0.2,0.507
			c0,0.199-0.065,0.366-0.2,0.5c-0.136,0.136-0.297,0.202-0.487,0.202C68.477,117.167,68.31,117.1,68.175,116.965z"/>
		<path fill="#1E1E1C" d="M76.046,109.119h0.963l3.119,7.982h-1.04l-0.923-2.405h-3.289l-0.909,2.405h-1.039L76.046,109.119z
			 M76.515,110.394l-1.302,3.405h2.602L76.515,110.394z"/>
		<path fill="#1E1E1C" d="M81.493,116.387c-0.485-0.556-0.729-1.278-0.729-2.172c0-0.893,0.241-1.615,0.729-2.171
			c0.485-0.555,1.117-0.832,1.897-0.832c0.633,0,1.149,0.169,1.554,0.508c0.402,0.338,0.656,0.787,0.761,1.352h-1.001
			c-0.069-0.312-0.22-0.557-0.448-0.734c-0.229-0.177-0.519-0.267-0.863-0.267c-0.494,0-0.892,0.2-1.188,0.599
			c-0.299,0.399-0.448,0.914-0.448,1.547c0,0.634,0.148,1.148,0.448,1.548c0.299,0.398,0.694,0.598,1.188,0.598
			c0.347,0,0.635-0.089,0.863-0.267c0.229-0.178,0.379-0.423,0.448-0.734h1.001c-0.104,0.562-0.356,1.015-0.761,1.353
			c-0.402,0.339-0.921,0.508-1.554,0.508C82.611,117.219,81.979,116.941,81.493,116.387z"/>
		<path fill="#1E1E1C" d="M87.291,115.646v-3.484h-0.937v-0.832h0.937v-1.521h0.977v1.521h1.392v0.832h-1.392v3.381
			c0,0.537,0.256,0.807,0.768,0.807c0.27,0,0.521-0.078,0.754-0.234v0.91c-0.242,0.13-0.546,0.195-0.909,0.195
			c-0.485,0-0.871-0.133-1.156-0.396C87.437,116.562,87.291,116.166,87.291,115.646z"/>
		<path fill="#1E1E1C" d="M92.069,109.146c0.125,0.121,0.188,0.269,0.188,0.441c0,0.174-0.062,0.32-0.188,0.441
			c-0.126,0.122-0.274,0.183-0.448,0.183s-0.32-0.061-0.44-0.183c-0.122-0.121-0.184-0.269-0.184-0.441
			c0-0.174,0.062-0.32,0.184-0.441c0.12-0.121,0.269-0.183,0.44-0.183C91.794,108.964,91.943,109.024,92.069,109.146z
			 M92.114,111.329v5.772H91.14v-5.772H92.114z"/>
		<path fill="#1E1E1C" d="M96.417,117.102h-0.962l-2.234-5.772h1.053l1.688,4.537l1.679-4.537h1.025L96.417,117.102z"/>
		<path fill="#1E1E1C" d="M103.307,115.373h0.923c-0.104,0.562-0.358,1.013-0.768,1.346c-0.406,0.334-0.928,0.501-1.561,0.501
			c-0.789,0-1.429-0.275-1.918-0.826c-0.488-0.55-0.733-1.271-0.733-2.164c0-0.875,0.242-1.598,0.729-2.164
			c0.484-0.568,1.118-0.853,1.897-0.853c0.771,0,1.369,0.259,1.794,0.773c0.426,0.514,0.638,1.202,0.638,2.061v0.352h-4.082
			c0.009,0.605,0.167,1.09,0.476,1.449c0.308,0.359,0.709,0.54,1.202,0.54c0.363,0,0.669-0.09,0.916-0.268
			C103.067,115.942,103.229,115.693,103.307,115.373z M101.89,112.045c-0.435,0-0.798,0.144-1.093,0.43
			c-0.295,0.286-0.478,0.681-0.546,1.183h3.067c-0.009-0.459-0.135-0.843-0.377-1.15C102.7,112.198,102.35,112.045,101.89,112.045z"
			/>
		<path fill="#1E1E1C" d="M105.354,116.965c-0.134-0.134-0.201-0.301-0.201-0.5c0-0.198,0.067-0.367,0.201-0.507
			c0.135-0.139,0.302-0.208,0.501-0.208c0.189,0,0.354,0.069,0.486,0.208c0.135,0.14,0.201,0.309,0.201,0.507
			c0,0.199-0.065,0.366-0.201,0.5c-0.135,0.136-0.297,0.202-0.486,0.202C105.656,117.167,105.489,117.1,105.354,116.965z"/>
	</g>
	<g>
		<circle fill="#FFFFFF" stroke="#1F1F1F" stroke-miterlimit="10" cx="101.215" cy="391.08" r="17.073"/>
	</g>
	<g>
		<g>
			<path fill="#1F1F1F" d="M101.215,374.006c0,0,0.21-0.008,0.604-0.021c0.396,0.008,0.969-0.094,1.711-0.002
				c0.374,0.031,0.787,0.064,1.238,0.104c0.442,0.085,0.923,0.178,1.436,0.273c0.512,0.111,1.036,0.299,1.604,0.459
				c0.563,0.178,1.118,0.459,1.724,0.703c0.574,0.299,1.182,0.61,1.778,0.98c0.575,0.402,1.2,0.79,1.756,1.3
				c1.179,0.937,2.242,2.144,3.188,3.493c0.938,1.361,1.688,2.918,2.229,4.575c0.514,1.671,0.755,3.438,0.807,5.209
				c-0.064,0.95-0.046,1.666-0.227,2.614c-0.107,0.914-0.354,1.754-0.579,2.596c-0.536,1.658-1.289,3.216-2.228,4.576
				c-0.945,1.353-2.008,2.56-3.188,3.495c-0.555,0.509-1.181,0.896-1.756,1.298c-0.6,0.371-1.205,0.685-1.778,0.982
				c-0.604,0.244-1.16,0.523-1.724,0.702c-0.568,0.161-1.096,0.35-1.605,0.459c-0.514,0.099-0.992,0.188-1.437,0.271
				c-0.448,0.037-0.859,0.07-1.23,0.104c-0.737,0.092-1.326-0.01-1.72-0.002c-0.395-0.017-0.604-0.022-0.604-0.022
				s0.209-0.029,0.601-0.084c0.389-0.072,0.963-0.097,1.67-0.285c0.353-0.083,0.742-0.176,1.166-0.274
				c0.412-0.137,0.857-0.282,1.335-0.438c0.473-0.164,0.949-0.405,1.461-0.621c0.508-0.229,1.01-0.537,1.546-0.817
				c1.023-0.654,2.099-1.414,3.081-2.384c1.021-0.929,1.893-2.102,2.708-3.342c0.808-1.26,1.372-2.696,1.854-4.174
				c0.188-0.754,0.399-1.519,0.477-2.27c0.147-0.691,0.129-1.663,0.181-2.384c-0.027-1.579-0.22-3.155-0.653-4.652
				c-0.478-1.477-1.046-2.913-1.854-4.173c-0.816-1.238-1.686-2.416-2.707-3.344c-0.982-0.969-2.058-1.729-3.083-2.383
				c-0.536-0.281-1.038-0.588-1.546-0.819c-0.512-0.215-0.989-0.456-1.461-0.62c-0.478-0.156-0.923-0.304-1.336-0.438
				c-0.422-0.102-0.811-0.191-1.159-0.273c-0.7-0.188-1.293-0.213-1.678-0.285C101.423,374.035,101.215,374.006,101.215,374.006z"/>
		</g>
		<path fill="#FFFFFF" stroke="#1F1F1F" stroke-miterlimit="10" d="M101.215,408.152c-9.429,0-17.071-7.646-17.071-17.072
			c0-9.43,7.645-17.074,17.071-17.074"/>
	</g>
	<circle fill="none" stroke="#F5F5F5" stroke-miterlimit="10" cx="100.888" cy="311.888" r="29.388"/>
	<path fill="#FFFFFF" d="M107.652,297.652c-0.072,0.037-0.146,0.076-0.219,0.119c-8.646,5.068-15.554,11.898-20.522,20.604
		c-0.97,1.697-1.381,3.711-2.074,5.658c0.378,0.816,0.563,1.697,1.092,2.254c1.305,1.386,2.669,2.752,4.188,3.887
		c1.699,1.27,2.718,1.01,3.984-0.746c1.021-1.412,1.823-2.998,2.93-4.336c1.8-2.176,2.032-4.297,0.25-6.529
		c-0.934-1.166-0.593-2.088,0.359-3.031c2.187-2.162,4.39-4.312,6.479-6.566c1.367-1.479,2.65-1.724,4.281-0.455
		c1.164,0.907,2.553,1.406,3.945,0.545c2.191-1.354,4.362-2.754,6.445-4.268c1.52-1.102,1.601-2.044,0.664-3.656
		C116.449,295.945,112.971,294.922,107.652,297.652z M117.488,303.672c-1.739,1.137-3.494,2.25-5.19,3.447
		c-1.38,0.973-2.522,0.281-3.693-0.363c-2.712-1.497-2.8-1.602-5.075,0.566c-2.763,2.632-5.347,5.449-8.014,8.182
		c-0.959,0.982-1.084,1.984-0.179,3.08c1.749,2.111,1.719,4.121-0.167,6.206c-0.938,1.036-1.602,2.325-2.339,3.528
		c-0.563,0.92-1.204,1.055-2.001,0.332c-1.168-1.055-2.364-2.084-3.461-3.211c-0.364-0.373-0.455-1.016-0.743-1.705
		c0.687-1.732,1.158-3.633,2.12-5.24c4.689-7.844,11.031-14.096,18.815-18.879c0.491-0.303,1.033-0.532,1.564-0.762
		c4.335-1.869,6.503-1.095,8.795,2.989C118.412,302.721,118.235,303.188,117.488,303.672z"/>
	<rect x="13.836" y="176.121" fill="#FFFFFF" width="170.164" height="27"/>
	<g>
		<path fill="#324C9B" d="M25.785,191.741c-0.682-0.758-1.021-1.748-1.021-2.971s0.34-2.212,1.021-2.972
			c0.68-0.758,1.53-1.137,2.554-1.137c0.823,0,1.507,0.221,2.049,0.663c0.542,0.441,0.896,1.039,1.06,1.794h-1.014
			c-0.364-1.021-1.062-1.534-2.095-1.534c-0.763,0-1.378,0.292-1.846,0.877c-0.469,0.585-0.702,1.354-0.702,2.309
			c0,0.944,0.233,1.712,0.702,2.301c0.468,0.59,1.083,0.885,1.846,0.885c1.04,0,1.738-0.516,2.095-1.547h1.014
			c-0.164,0.763-0.518,1.364-1.06,1.807c-0.542,0.443-1.226,0.663-2.049,0.663C27.316,192.879,26.465,192.5,25.785,191.741z"/>
		<path fill="#324C9B" d="M36.965,187.711c0.489,0.561,0.734,1.281,0.734,2.165c0,0.885-0.245,1.605-0.734,2.164
			c-0.488,0.561-1.129,0.839-1.917,0.839c-0.789,0-1.429-0.278-1.918-0.839c-0.488-0.559-0.733-1.279-0.733-2.164
			c0-0.884,0.245-1.604,0.733-2.165c0.489-0.559,1.129-0.838,1.918-0.838C35.836,186.873,36.476,187.152,36.965,187.711z
			 M36.263,191.43c0.299-0.396,0.448-0.912,0.448-1.555c0-0.642-0.149-1.159-0.448-1.554c-0.3-0.395-0.704-0.592-1.216-0.592
			s-0.917,0.197-1.216,0.592s-0.448,0.912-0.448,1.554c0,0.643,0.149,1.159,0.448,1.555c0.299,0.394,0.704,0.591,1.216,0.591
			S35.964,191.823,36.263,191.43z"/>
		<path fill="#324C9B" d="M43.12,187.796c0.435-0.614,1.02-0.923,1.755-0.923c0.581,0,1.028,0.188,1.347,0.56
			c0.315,0.373,0.475,0.876,0.475,1.508v3.822h-0.987v-3.666c0-0.416-0.091-0.743-0.271-0.981c-0.184-0.238-0.455-0.357-0.818-0.357
			c-0.296,0-0.56,0.094-0.793,0.279c-0.234,0.187-0.396,0.437-0.48,0.748v3.979H42.37v-3.666c0-0.416-0.092-0.743-0.271-0.981
			c-0.184-0.238-0.455-0.356-0.819-0.356c-0.295,0-0.56,0.093-0.793,0.278c-0.233,0.188-0.396,0.437-0.48,0.748v3.979H39.03v-5.772
			H40v0.677c0.329-0.528,0.851-0.793,1.562-0.793C42.288,186.873,42.809,187.181,43.12,187.796z"/>
		<path fill="#324C9B" d="M52.44,187.796c0.435-0.614,1.02-0.923,1.755-0.923c0.581,0,1.029,0.188,1.347,0.56
			c0.315,0.373,0.476,0.876,0.476,1.508v3.822h-0.988v-3.666c0-0.416-0.091-0.743-0.271-0.981c-0.184-0.238-0.454-0.357-0.818-0.357
			c-0.295,0-0.56,0.094-0.793,0.279c-0.233,0.187-0.396,0.437-0.48,0.748v3.979H51.69v-3.666c0-0.416-0.091-0.743-0.271-0.981
			c-0.184-0.238-0.455-0.356-0.818-0.356c-0.295,0-0.561,0.093-0.793,0.278c-0.234,0.188-0.396,0.437-0.481,0.748v3.979h-0.975
			v-5.772h0.975v0.677c0.329-0.528,0.852-0.793,1.562-0.793C51.608,186.873,52.129,187.181,52.44,187.796z"/>
		<path fill="#324C9B" d="M61.307,191.033h0.923c-0.104,0.562-0.358,1.012-0.768,1.345c-0.406,0.334-0.928,0.501-1.561,0.501
			c-0.789,0-1.429-0.274-1.918-0.825c-0.488-0.551-0.733-1.271-0.733-2.164c0-0.875,0.242-1.598,0.729-2.164
			c0.484-0.568,1.118-0.853,1.897-0.853c0.771,0,1.369,0.258,1.794,0.773c0.426,0.515,0.638,1.202,0.638,2.061v0.352h-4.082
			c0.009,0.605,0.167,1.09,0.476,1.448c0.308,0.36,0.709,0.54,1.202,0.54c0.363,0,0.669-0.089,0.916-0.267
			C61.067,191.602,61.229,191.354,61.307,191.033z M59.89,187.705c-0.435,0-0.798,0.144-1.093,0.43
			c-0.295,0.285-0.478,0.681-0.546,1.183h3.067c-0.009-0.459-0.135-0.843-0.377-1.15C60.7,187.858,60.35,187.705,59.89,187.705z"/>
		<path fill="#324C9B" d="M63.607,192.762v-5.771h0.976v0.729c0.184-0.242,0.423-0.444,0.723-0.604c0.299-0.16,0.626-0.24,0.98-0.24
			c0.643,0,1.14,0.19,1.494,0.571c0.355,0.382,0.533,0.894,0.533,1.534v3.783h-0.987v-3.627c0-0.416-0.105-0.747-0.318-0.994
			s-0.53-0.371-0.954-0.371c-0.34,0-0.643,0.103-0.91,0.306c-0.27,0.204-0.455,0.462-0.561,0.773v3.913L63.607,192.762
			L63.607,192.762z"/>
		<path fill="#324C9B" d="M70.276,192.047c-0.484-0.555-0.729-1.277-0.729-2.171c0-0.893,0.242-1.615,0.729-2.171
			c0.486-0.555,1.118-0.832,1.897-0.832c0.634,0,1.15,0.169,1.555,0.507c0.401,0.339,0.655,0.788,0.76,1.353h-1.001
			c-0.068-0.312-0.219-0.558-0.447-0.734c-0.229-0.177-0.519-0.267-0.864-0.267c-0.493,0-0.891,0.2-1.188,0.599
			s-0.447,0.914-0.447,1.547c0,0.634,0.148,1.148,0.447,1.547c0.3,0.399,0.695,0.599,1.188,0.599c0.348,0,0.636-0.089,0.864-0.268
			c0.229-0.177,0.379-0.422,0.447-0.733h1.001c-0.104,0.562-0.356,1.015-0.76,1.353c-0.402,0.338-0.921,0.507-1.555,0.507
			C71.395,192.879,70.762,192.602,70.276,192.047z"/>
		<path fill="#324C9B" d="M79.376,191.033h0.923c-0.104,0.562-0.358,1.012-0.767,1.345c-0.407,0.334-0.929,0.501-1.561,0.501
			c-0.789,0-1.43-0.274-1.918-0.825c-0.489-0.551-0.734-1.271-0.734-2.164c0-0.875,0.242-1.598,0.729-2.164
			c0.485-0.568,1.118-0.853,1.897-0.853c0.771,0,1.369,0.258,1.794,0.773c0.426,0.515,0.638,1.202,0.638,2.061v0.352h-4.082
			c0.01,0.605,0.167,1.09,0.476,1.448c0.309,0.36,0.709,0.54,1.203,0.54c0.362,0,0.669-0.089,0.916-0.267
			C79.136,191.602,79.298,191.354,79.376,191.033z M77.959,187.705c-0.435,0-0.797,0.144-1.092,0.43
			c-0.296,0.285-0.478,0.681-0.547,1.183h3.068c-0.01-0.459-0.136-0.843-0.377-1.15C78.77,187.858,78.419,187.705,77.959,187.705z"
			/>
		<path fill="#324C9B" d="M91.4,192.762h-1.025v-7.981h4.875v0.91H91.4v2.69h3.614v0.91H91.4V192.762z"/>
		<path fill="#324C9B" d="M100.599,187.711c0.488,0.561,0.733,1.281,0.733,2.165c0,0.885-0.245,1.605-0.733,2.164
			c-0.489,0.561-1.129,0.839-1.917,0.839c-0.789,0-1.43-0.278-1.918-0.839c-0.489-0.559-0.734-1.279-0.734-2.164
			c0-0.884,0.245-1.604,0.734-2.165c0.488-0.559,1.129-0.838,1.918-0.838C99.47,186.873,100.109,187.152,100.599,187.711z
			 M99.896,191.43c0.299-0.396,0.449-0.912,0.449-1.555c0-0.642-0.15-1.159-0.449-1.554s-0.704-0.592-1.215-0.592
			c-0.513,0-0.917,0.197-1.217,0.592c-0.299,0.395-0.447,0.912-0.447,1.554c0,0.643,0.148,1.159,0.447,1.555
			c0.3,0.394,0.704,0.591,1.217,0.591C99.192,192.021,99.598,191.823,99.896,191.43z"/>
		<path fill="#324C9B" d="M105.623,186.964v1.001c-0.156-0.104-0.373-0.155-0.649-0.155c-0.312,0-0.59,0.096-0.832,0.286
			c-0.242,0.189-0.411,0.454-0.508,0.793v3.874h-0.975v-5.772h0.975v0.755c0.131-0.252,0.323-0.46,0.579-0.624
			c0.255-0.165,0.539-0.247,0.853-0.247C105.315,186.873,105.502,186.903,105.623,186.964z"/>
		<path fill="#324C9B" d="M107.104,191.306v-3.484h-0.937v-0.832h0.937v-1.521h0.977v1.521h1.392v0.832h-1.392v3.381
			c0,0.537,0.256,0.807,0.768,0.807c0.27,0,0.521-0.078,0.754-0.234v0.91c-0.242,0.13-0.546,0.194-0.909,0.194
			c-0.485,0-0.871-0.132-1.156-0.396C107.249,192.22,107.104,191.826,107.104,191.306z"/>
		<path fill="#324C9B" d="M111.883,184.806c0.125,0.121,0.188,0.269,0.188,0.441s-0.062,0.32-0.188,0.441
			c-0.126,0.122-0.274,0.183-0.448,0.183c-0.173,0-0.32-0.061-0.44-0.183c-0.122-0.121-0.184-0.27-0.184-0.441
			c0-0.174,0.062-0.32,0.184-0.441c0.12-0.121,0.27-0.183,0.44-0.183C111.607,184.624,111.757,184.685,111.883,184.806z
			 M111.928,186.989v5.771h-0.976v-5.771H111.928z"/>
		<path fill="#324C9B" d="M116.556,184.325v0.884c-0.165-0.104-0.368-0.155-0.61-0.155c-0.295,0-0.526,0.091-0.695,0.272
			c-0.169,0.181-0.253,0.441-0.253,0.779v0.884h1.3v0.832h-1.3v4.939h-0.962v-4.939h-0.977v-0.832h0.977v-0.962
			c0-0.562,0.164-1.009,0.492-1.339c0.33-0.329,0.756-0.494,1.274-0.494C116.097,184.194,116.348,184.238,116.556,184.325z"/>
		<path fill="#324C9B" d="M118.356,184.806c0.125,0.121,0.188,0.269,0.188,0.441s-0.062,0.32-0.188,0.441
			c-0.126,0.122-0.274,0.183-0.448,0.183s-0.32-0.061-0.441-0.183c-0.121-0.121-0.183-0.27-0.183-0.441
			c0-0.174,0.062-0.32,0.183-0.441c0.121-0.121,0.27-0.183,0.441-0.183C118.081,184.624,118.23,184.685,118.356,184.806z
			 M118.401,186.989v5.771h-0.976v-5.771H118.401z"/>
		<path fill="#324C9B" d="M123.783,191.033h0.923c-0.104,0.562-0.358,1.012-0.768,1.345c-0.406,0.334-0.929,0.501-1.561,0.501
			c-0.789,0-1.429-0.274-1.918-0.825c-0.488-0.551-0.733-1.271-0.733-2.164c0-0.875,0.241-1.598,0.729-2.164
			c0.484-0.568,1.117-0.853,1.897-0.853c0.771,0,1.369,0.258,1.794,0.773s0.638,1.202,0.638,2.061v0.352h-4.082
			c0.009,0.605,0.167,1.09,0.475,1.448c0.309,0.36,0.71,0.54,1.203,0.54c0.363,0,0.669-0.089,0.916-0.267
			C123.543,191.602,123.705,191.354,123.783,191.033z M122.366,187.705c-0.435,0-0.798,0.144-1.093,0.43
			c-0.295,0.285-0.478,0.681-0.546,1.183h3.067c-0.009-0.459-0.135-0.843-0.377-1.15
			C123.177,187.858,122.826,187.705,122.366,187.705z"/>
		<path fill="#324C9B" d="M129.919,192.762v-0.677c-0.154,0.227-0.381,0.414-0.676,0.565s-0.611,0.228-0.949,0.228
			c-0.813,0-1.451-0.285-1.911-0.857c-0.459-0.572-0.688-1.287-0.688-2.146c0-0.85,0.229-1.562,0.688-2.139
			c0.46-0.576,1.098-0.864,1.911-0.864c0.338,0,0.654,0.075,0.949,0.229c0.295,0.15,0.521,0.34,0.676,0.564v-3.354h0.988v8.45
			L129.919,192.762L129.919,192.762z M129.919,191.046v-2.34c-0.146-0.295-0.354-0.525-0.616-0.695
			c-0.266-0.17-0.554-0.254-0.864-0.254c-0.538,0-0.965,0.197-1.279,0.593c-0.317,0.395-0.476,0.902-0.476,1.526
			s0.156,1.133,0.476,1.527c0.314,0.395,0.741,0.592,1.279,0.592c0.312,0,0.601-0.085,0.864-0.254
			C129.565,191.572,129.771,191.341,129.919,191.046z"/>
	</g>
	<g>
		<path fill="#1E1E1C" d="M63.031,234.312h0.757l1.561,5.854l1.513-5.854h0.911l-1.956,7.367h-0.862l-1.549-5.748l-1.571,5.748
			H60.98l-1.956-7.367h0.938l1.513,5.854L63.031,234.312z"/>
		<path fill="#1E1E1C" d="M72.306,241.68h-0.864v-0.396c-0.111,0.12-0.3,0.231-0.562,0.337c-0.266,0.104-0.544,0.154-0.84,0.154
			c-0.562,0-1.029-0.154-1.41-0.467c-0.38-0.313-0.569-0.726-0.569-1.236c0-0.487,0.195-0.889,0.588-1.199
			c0.393-0.312,0.876-0.469,1.452-0.469c0.264,0,0.522,0.044,0.779,0.133c0.257,0.088,0.442,0.188,0.562,0.3v-0.672
			c0-0.345-0.103-0.62-0.306-0.828c-0.204-0.208-0.494-0.312-0.87-0.312c-0.561,0-0.925,0.244-1.093,0.73h-0.888
			c0.088-0.447,0.312-0.812,0.678-1.092c0.363-0.279,0.803-0.42,1.312-0.42c0.633,0,1.128,0.168,1.488,0.504
			c0.359,0.336,0.54,0.796,0.54,1.38L72.306,241.68L72.306,241.68z M71.442,240.359v-0.553c-0.08-0.191-0.237-0.351-0.475-0.475
			c-0.236-0.124-0.493-0.188-0.773-0.188c-0.353,0-0.65,0.08-0.898,0.24c-0.248,0.159-0.372,0.389-0.372,0.684
			c0,0.306,0.124,0.539,0.372,0.703s0.549,0.246,0.898,0.246c0.28,0,0.538-0.062,0.773-0.188
			C71.204,240.71,71.362,240.552,71.442,240.359z"/>
		<path fill="#1E1E1C" d="M74.701,234.336c0.115,0.112,0.174,0.248,0.174,0.408s-0.059,0.296-0.174,0.406
			c-0.116,0.113-0.255,0.168-0.414,0.168c-0.16,0-0.296-0.055-0.408-0.168c-0.111-0.11-0.168-0.246-0.168-0.406
			s0.057-0.296,0.168-0.408c0.112-0.111,0.248-0.168,0.408-0.168S74.584,234.225,74.701,234.336z M74.743,236.352v5.328h-0.9v-5.328
			H74.743z"/>
		<path fill="#1E1E1C" d="M76.602,240.336v-3.216h-0.863v-0.769h0.863v-1.404h0.899v1.404h1.284v0.769h-1.284v3.119
			c0,0.495,0.234,0.743,0.708,0.743c0.248,0,0.479-0.07,0.695-0.215v0.84c-0.225,0.119-0.504,0.181-0.841,0.181
			c-0.446,0-0.805-0.122-1.066-0.366C76.735,241.178,76.602,240.814,76.602,240.336z"/>
		<path fill="#1E1E1C" d="M81.012,234.336c0.115,0.112,0.174,0.248,0.174,0.408s-0.059,0.296-0.174,0.406
			c-0.116,0.113-0.255,0.168-0.414,0.168c-0.16,0-0.296-0.055-0.408-0.168c-0.111-0.11-0.168-0.246-0.168-0.406
			s0.057-0.296,0.168-0.408c0.112-0.111,0.248-0.168,0.408-0.168C80.758,234.168,80.896,234.225,81.012,234.336z M81.054,236.352
			v5.328h-0.9v-5.328H81.054z"/>
		<path fill="#1E1E1C" d="M82.662,241.68v-5.328h0.899v0.672c0.168-0.225,0.391-0.408,0.666-0.559
			c0.275-0.148,0.578-0.222,0.905-0.222c0.593,0,1.053,0.176,1.381,0.526c0.327,0.354,0.491,0.824,0.491,1.416v3.492h-0.912v-3.349
			c0-0.386-0.099-0.688-0.294-0.918s-0.489-0.343-0.883-0.343c-0.312,0-0.592,0.095-0.84,0.281c-0.248,0.188-0.42,0.426-0.517,0.715
			v3.611h-0.898L82.662,241.68L82.662,241.68z"/>
		<path fill="#1E1E1C" d="M92.022,241.318v-0.396c-0.145,0.2-0.351,0.37-0.618,0.511c-0.268,0.142-0.558,0.211-0.869,0.211
			c-0.743,0-1.328-0.266-1.752-0.793c-0.425-0.527-0.637-1.164-0.637-1.908c0-0.752,0.212-1.389,0.637-1.913
			c0.424-0.523,1.009-0.785,1.752-0.785c0.312,0,0.604,0.067,0.869,0.203c0.27,0.137,0.476,0.305,0.618,0.505v-0.602h0.912v4.908
			c0,0.848-0.219,1.489-0.654,1.926c-0.436,0.438-1.01,0.653-1.722,0.653c-0.642,0-1.158-0.155-1.555-0.468
			c-0.396-0.312-0.639-0.744-0.728-1.296h0.89c0.15,0.663,0.614,0.995,1.393,0.995C91.534,243.07,92.022,242.486,92.022,241.318z
			 M92.022,240v-2.124c-0.305-0.553-0.756-0.828-1.354-0.828c-0.496,0-0.888,0.177-1.171,0.528
			c-0.283,0.354-0.427,0.809-0.427,1.367c0,0.561,0.144,1.015,0.427,1.361c0.283,0.348,0.675,0.521,1.171,0.521
			C91.266,240.828,91.718,240.552,92.022,240z"/>
		<path fill="#1E1E1C" d="M99.858,233.893v0.814c-0.15-0.098-0.34-0.145-0.562-0.145c-0.271,0-0.485,0.084-0.644,0.252
			c-0.154,0.168-0.232,0.408-0.232,0.721v0.814h1.199v0.77H98.42v4.561h-0.89v-4.561h-0.9v-0.77h0.898v-0.889
			c0-0.521,0.152-0.932,0.456-1.234c0.306-0.306,0.696-0.457,1.178-0.457C99.434,233.771,99.667,233.812,99.858,233.893z"/>
		<path fill="#1E1E1C" d="M104.412,237.018c0.451,0.517,0.679,1.183,0.679,1.998s-0.228,1.481-0.679,1.998
			c-0.452,0.517-1.042,0.773-1.771,0.773c-0.729,0-1.317-0.26-1.771-0.773c-0.453-0.516-0.679-1.183-0.679-1.998
			s0.227-1.481,0.679-1.998c0.451-0.517,1.042-0.772,1.771-0.772C103.37,236.244,103.959,236.502,104.412,237.018z M103.764,240.449
			c0.274-0.363,0.414-0.842,0.414-1.434c0-0.594-0.14-1.07-0.414-1.436c-0.276-0.364-0.65-0.546-1.122-0.546
			c-0.474,0-0.847,0.182-1.122,0.546c-0.275,0.363-0.414,0.842-0.414,1.436c0,0.592,0.139,1.068,0.414,1.434
			c0.275,0.363,0.648,0.547,1.122,0.547C103.114,240.996,103.488,240.812,103.764,240.449z"/>
		<path fill="#1E1E1C" d="M109.05,236.328v0.924c-0.145-0.097-0.344-0.145-0.6-0.145c-0.288,0-0.546,0.088-0.77,0.265
			c-0.225,0.176-0.381,0.42-0.469,0.731v3.576h-0.899v-5.328h0.899v0.694c0.12-0.231,0.298-0.424,0.534-0.575
			c0.234-0.152,0.498-0.229,0.786-0.229C108.766,236.244,108.938,236.271,109.05,236.328z"/>
		<path fill="#1E1E1C" d="M115.146,234.312h0.889l2.881,7.367h-0.96l-0.854-2.221h-3.036l-0.84,2.221h-0.96L115.146,234.312z
			 M115.579,235.486l-1.2,3.146h2.398L115.579,235.486z"/>
		<path fill="#1E1E1C" d="M119.969,241.68v-5.328h0.899v0.672c0.168-0.225,0.39-0.408,0.666-0.559
			c0.275-0.148,0.577-0.222,0.905-0.222c0.593,0,1.053,0.176,1.38,0.526c0.328,0.354,0.492,0.824,0.492,1.416v3.492H123.4v-3.349
			c0-0.386-0.1-0.688-0.294-0.918c-0.195-0.229-0.489-0.343-0.883-0.343c-0.312,0-0.593,0.095-0.841,0.281
			c-0.248,0.188-0.42,0.426-0.516,0.715v3.611h-0.899v0.004H119.969z"/>
		<path fill="#1E1E1C" d="M125.837,241.68v-5.328h0.899v0.672c0.168-0.225,0.391-0.408,0.666-0.559
			c0.276-0.148,0.578-0.222,0.906-0.222c0.592,0,1.052,0.176,1.38,0.526c0.328,0.354,0.492,0.824,0.492,1.416v3.492h-0.912v-3.349
			c0-0.386-0.1-0.688-0.294-0.918c-0.196-0.229-0.49-0.343-0.884-0.343c-0.312,0-0.592,0.095-0.84,0.281
			c-0.248,0.188-0.42,0.426-0.517,0.715v3.611h-0.898L125.837,241.68L125.837,241.68z"/>
		<path fill="#1E1E1C" d="M135.57,241.68h-0.863v-0.396c-0.111,0.12-0.301,0.231-0.562,0.337c-0.266,0.104-0.544,0.154-0.84,0.154
			c-0.562,0-1.03-0.154-1.41-0.467c-0.38-0.313-0.57-0.726-0.57-1.236c0-0.487,0.196-0.889,0.589-1.199
			c0.393-0.312,0.876-0.469,1.451-0.469c0.265,0,0.523,0.044,0.78,0.133c0.256,0.088,0.442,0.188,0.562,0.3v-0.672
			c0-0.345-0.103-0.62-0.307-0.828s-0.494-0.312-0.87-0.312c-0.56,0-0.924,0.244-1.092,0.73h-0.889
			c0.089-0.447,0.312-0.812,0.679-1.092c0.362-0.279,0.802-0.42,1.312-0.42c0.632,0,1.128,0.168,1.487,0.504
			c0.36,0.336,0.54,0.796,0.54,1.38L135.57,241.68L135.57,241.68z M134.706,240.359v-0.553c-0.08-0.191-0.238-0.351-0.475-0.475
			c-0.235-0.124-0.494-0.188-0.773-0.188c-0.353,0-0.65,0.08-0.898,0.24c-0.248,0.159-0.372,0.389-0.372,0.684
			c0,0.306,0.124,0.539,0.372,0.703s0.548,0.246,0.898,0.246c0.279,0,0.538-0.062,0.773-0.188
			C134.467,240.71,134.625,240.552,134.706,240.359z"/>
		<path fill="#1E1E1C" d="M74.856,253.336v-3.216h-0.862v-0.769h0.862v-1.404h0.899v1.404h1.284v0.769h-1.284v3.119
			c0,0.495,0.235,0.743,0.708,0.743c0.248,0,0.479-0.07,0.696-0.215v0.84c-0.226,0.119-0.505,0.181-0.842,0.181
			c-0.446,0-0.804-0.122-1.066-0.366S74.856,253.814,74.856,253.336z"/>
		<path fill="#1E1E1C" d="M82.182,250.018c0.451,0.517,0.679,1.183,0.679,1.998s-0.228,1.481-0.679,1.998
			c-0.452,0.517-1.042,0.773-1.771,0.773s-1.317-0.26-1.771-0.773c-0.453-0.516-0.679-1.183-0.679-1.998s0.227-1.481,0.679-1.998
			c0.451-0.517,1.042-0.772,1.771-0.772C81.14,249.244,81.73,249.502,82.182,250.018z M81.535,253.449
			c0.274-0.363,0.414-0.842,0.414-1.434c0-0.594-0.14-1.07-0.414-1.436c-0.276-0.364-0.65-0.546-1.122-0.546
			c-0.474,0-0.847,0.182-1.122,0.546c-0.275,0.363-0.414,0.842-0.414,1.436c0,0.592,0.139,1.068,0.414,1.434
			c0.275,0.363,0.648,0.547,1.122,0.547C80.884,253.996,81.258,253.812,81.535,253.449z"/>
		<path fill="#1E1E1C" d="M87.024,254.02c-0.447-0.513-0.672-1.181-0.672-2.004c0-0.824,0.225-1.492,0.672-2.004
			c0.448-0.513,1.032-0.769,1.752-0.769c0.584,0,1.062,0.155,1.436,0.468c0.372,0.312,0.604,0.729,0.702,1.248h-0.926
			c-0.062-0.288-0.201-0.516-0.413-0.679c-0.213-0.163-0.479-0.245-0.799-0.245c-0.456,0-0.82,0.186-1.098,0.552
			c-0.277,0.368-0.414,0.845-0.414,1.429s0.138,1.062,0.414,1.428c0.275,0.369,0.642,0.554,1.098,0.554
			c0.32,0,0.586-0.082,0.799-0.246c0.212-0.164,0.351-0.392,0.413-0.679h0.926c-0.098,0.521-0.33,0.937-0.702,1.248
			c-0.372,0.311-0.852,0.469-1.436,0.469C88.056,254.788,87.472,254.532,87.024,254.02z"/>
		<path fill="#1E1E1C" d="M95.898,250.018c0.452,0.517,0.68,1.183,0.68,1.998s-0.228,1.481-0.68,1.998s-1.042,0.773-1.771,0.773
			s-1.317-0.26-1.771-0.773c-0.453-0.516-0.678-1.183-0.678-1.998s0.226-1.481,0.678-1.998s1.042-0.772,1.771-0.772
			C94.856,249.244,95.446,249.502,95.898,250.018z M95.25,253.449c0.274-0.363,0.414-0.842,0.414-1.434
			c0-0.594-0.14-1.07-0.414-1.436c-0.275-0.364-0.649-0.546-1.122-0.546c-0.474,0-0.846,0.182-1.122,0.546
			c-0.275,0.363-0.414,0.842-0.414,1.436c0,0.592,0.139,1.068,0.414,1.434c0.276,0.365,0.648,0.547,1.122,0.547
			C94.6,253.996,94.974,253.812,95.25,253.449z"/>
		<path fill="#1E1E1C" d="M97.8,254.68v-5.328h0.9v0.672c0.168-0.225,0.39-0.408,0.666-0.559c0.275-0.148,0.577-0.222,0.905-0.222
			c0.592,0,1.053,0.176,1.38,0.526c0.328,0.354,0.492,0.824,0.492,1.416v3.492h-0.912v-3.349c0-0.386-0.1-0.688-0.294-0.918
			c-0.195-0.229-0.49-0.343-0.883-0.343c-0.312,0-0.593,0.095-0.841,0.281c-0.248,0.188-0.42,0.426-0.516,0.715v3.611H97.8V254.68z"
			/>
		<path fill="#1E1E1C" d="M106.332,246.893v0.814c-0.15-0.098-0.34-0.145-0.562-0.145c-0.271,0-0.485,0.084-0.644,0.252
			c-0.154,0.168-0.232,0.408-0.232,0.721v0.814h1.198v0.77h-1.198v4.561h-0.89v-4.561h-0.898v-0.77h0.898v-0.889
			c0-0.521,0.151-0.932,0.456-1.234c0.306-0.306,0.695-0.457,1.178-0.457C105.908,246.771,106.14,246.812,106.332,246.893z"/>
		<path fill="#1E1E1C" d="M107.994,247.336c0.115,0.112,0.174,0.248,0.174,0.408s-0.059,0.296-0.174,0.406
			c-0.116,0.113-0.254,0.168-0.414,0.168s-0.296-0.055-0.408-0.168c-0.111-0.11-0.168-0.246-0.168-0.406s0.057-0.296,0.168-0.408
			c0.112-0.111,0.248-0.168,0.408-0.168S107.877,247.225,107.994,247.336z M108.036,249.352v5.328h-0.899v-5.328H108.036z"/>
		<path fill="#1E1E1C" d="M112.38,249.328v0.924c-0.145-0.097-0.344-0.145-0.601-0.145c-0.287,0-0.545,0.088-0.77,0.265
			c-0.224,0.176-0.38,0.42-0.468,0.731v3.576h-0.899v-5.328h0.899v0.694c0.12-0.231,0.298-0.424,0.534-0.575
			c0.234-0.152,0.498-0.229,0.785-0.229C112.096,249.244,112.268,249.271,112.38,249.328z"/>
		<path fill="#1E1E1C" d="M117.276,250.096c0.399-0.568,0.939-0.853,1.62-0.853c0.536,0,0.95,0.172,1.242,0.517
			c0.292,0.344,0.438,0.809,0.438,1.393v3.527h-0.912v-3.385c0-0.384-0.084-0.688-0.252-0.904c-0.168-0.221-0.42-0.33-0.757-0.33
			c-0.271,0-0.516,0.086-0.73,0.258c-0.217,0.173-0.363,0.401-0.443,0.688v3.673h-0.899v-3.385c0-0.384-0.084-0.688-0.252-0.904
			c-0.168-0.221-0.42-0.33-0.757-0.33c-0.271,0-0.516,0.086-0.73,0.258c-0.217,0.173-0.363,0.401-0.443,0.688v3.673H113.5v-5.328
			h0.899v0.625c0.305-0.487,0.784-0.731,1.438-0.731C116.508,249.244,116.988,249.527,117.276,250.096z"/>
	</g>
	<g>
		<path fill="#1E1E1C" d="M28.196,167.575l1.771-2.898h0.841l-2.24,3.608v2.53h-0.779v-2.53l-2.221-3.608h0.859L28.196,167.575z"/>
		<path fill="#1E1E1C" d="M34.202,166.931c0.376,0.43,0.563,0.983,0.563,1.665c0,0.68-0.188,1.233-0.563,1.665
			c-0.377,0.43-0.869,0.646-1.477,0.646c-0.606,0-1.099-0.215-1.476-0.646c-0.377-0.432-0.564-0.985-0.564-1.665
			c0-0.682,0.188-1.235,0.564-1.665c0.377-0.432,0.868-0.646,1.476-0.646S33.825,166.5,34.202,166.931z M33.662,169.79
			c0.229-0.303,0.345-0.701,0.345-1.193c0-0.493-0.114-0.893-0.345-1.195c-0.229-0.304-0.542-0.455-0.937-0.455
			s-0.705,0.151-0.936,0.455c-0.229,0.304-0.346,0.702-0.346,1.195c0,0.492,0.114,0.892,0.346,1.193
			c0.229,0.305,0.541,0.455,0.936,0.455S33.431,170.094,33.662,169.79z"/>
		<path fill="#1E1E1C" d="M39.326,166.375v4.44h-0.761v-0.561c-0.134,0.188-0.312,0.342-0.54,0.466
			c-0.228,0.123-0.478,0.186-0.75,0.186c-0.492,0-0.875-0.146-1.146-0.439c-0.271-0.293-0.403-0.687-0.403-1.181v-2.91h0.76v2.79
			c0,0.327,0.08,0.584,0.24,0.771c0.158,0.187,0.402,0.279,0.729,0.279c0.254,0,0.48-0.076,0.687-0.229
			c0.202-0.153,0.345-0.354,0.425-0.6v-3.012L39.326,166.375L39.326,166.375z"/>
		<path fill="#1E1E1C" d="M42.936,166.355v0.77c-0.12-0.079-0.287-0.119-0.5-0.119c-0.24,0-0.454,0.073-0.642,0.221
			c-0.188,0.146-0.315,0.35-0.391,0.608v2.98h-0.75v-4.44h0.75v0.58c0.101-0.192,0.248-0.353,0.445-0.479
			c0.195-0.127,0.415-0.19,0.653-0.19C42.699,166.285,42.842,166.309,42.936,166.355z"/>
		<path fill="#1E1E1C" d="M45.706,169.596h0.779c0.141,0.452,0.49,0.68,1.051,0.68c0.272,0,0.492-0.055,0.659-0.165
			c0.167-0.11,0.25-0.275,0.25-0.495c0-0.3-0.22-0.507-0.659-0.62l-0.881-0.229c-0.714-0.182-1.069-0.57-1.069-1.17
			c0-0.388,0.149-0.702,0.45-0.945c0.3-0.243,0.68-0.365,1.14-0.365c0.479,0,0.867,0.11,1.16,0.33
			c0.294,0.22,0.479,0.53,0.562,0.931h-0.75c-0.134-0.421-0.46-0.631-0.979-0.631c-0.232,0-0.435,0.057-0.601,0.165
			c-0.167,0.11-0.25,0.27-0.25,0.477c0,0.146,0.049,0.262,0.146,0.345c0.098,0.083,0.255,0.155,0.477,0.215l0.858,0.21
			c0.755,0.2,1.131,0.613,1.131,1.24c0,0.413-0.153,0.74-0.461,0.979c-0.307,0.239-0.702,0.359-1.188,0.359s-0.896-0.116-1.226-0.35
			C45.971,170.322,45.772,170.002,45.706,169.596z"/>
		<path fill="#1E1E1C" d="M53.015,169.485h0.71c-0.08,0.434-0.275,0.778-0.591,1.035c-0.314,0.257-0.713,0.385-1.199,0.385
			c-0.605,0-1.099-0.211-1.476-0.635s-0.564-0.979-0.564-1.665c0-0.673,0.188-1.229,0.562-1.665c0.373-0.438,0.858-0.655,1.46-0.655
			c0.593,0,1.054,0.198,1.38,0.596c0.326,0.396,0.49,0.926,0.49,1.585v0.271h-3.142c0.007,0.467,0.129,0.839,0.364,1.115
			c0.236,0.275,0.546,0.415,0.926,0.415c0.279,0,0.517-0.068,0.705-0.205C52.831,169.924,52.956,169.732,53.015,169.485z
			 M51.925,166.927c-0.333,0-0.612,0.108-0.84,0.329c-0.228,0.221-0.367,0.523-0.42,0.909h2.359
			c-0.007-0.353-0.104-0.646-0.29-0.885C52.548,167.044,52.279,166.927,51.925,166.927z"/>
		<path fill="#1E1E1C" d="M55.045,170.266c-0.374-0.428-0.562-0.983-0.562-1.67c0-0.688,0.188-1.243,0.562-1.67
			c0.373-0.428,0.858-0.642,1.46-0.642c0.486,0,0.886,0.13,1.195,0.392c0.31,0.26,0.505,0.605,0.585,1.039h-0.771
			c-0.055-0.239-0.168-0.429-0.346-0.564c-0.177-0.135-0.397-0.205-0.665-0.205c-0.38,0-0.687,0.153-0.915,0.46
			c-0.229,0.307-0.345,0.703-0.345,1.19c0,0.485,0.113,0.883,0.345,1.188c0.229,0.308,0.535,0.46,0.915,0.46
			c0.268,0,0.488-0.067,0.665-0.205c0.178-0.136,0.291-0.324,0.346-0.563h0.771c-0.08,0.434-0.275,0.779-0.585,1.04
			c-0.312,0.26-0.709,0.39-1.195,0.39C55.905,170.905,55.418,170.692,55.045,170.266z"/>
		<path fill="#1E1E1C" d="M62.805,166.375v4.44h-0.761v-0.561c-0.134,0.188-0.312,0.342-0.54,0.466
			c-0.228,0.123-0.478,0.186-0.75,0.186c-0.492,0-0.875-0.146-1.146-0.439c-0.271-0.294-0.403-0.687-0.403-1.181v-2.91h0.76v2.79
			c0,0.327,0.08,0.584,0.24,0.771c0.158,0.187,0.402,0.279,0.729,0.279c0.254,0,0.48-0.076,0.687-0.229
			c0.202-0.153,0.345-0.354,0.425-0.6v-3.012L62.805,166.375L62.805,166.375z"/>
		<path fill="#1E1E1C" d="M66.416,166.355v0.77c-0.12-0.079-0.287-0.119-0.5-0.119c-0.24,0-0.454,0.073-0.642,0.221
			c-0.188,0.146-0.315,0.35-0.391,0.608v2.98h-0.75v-4.44h0.75v0.58c0.101-0.192,0.248-0.353,0.445-0.479
			c0.195-0.127,0.415-0.19,0.653-0.19C66.178,166.285,66.322,166.309,66.416,166.355z"/>
		<path fill="#1E1E1C" d="M68.06,164.695c0.098,0.094,0.146,0.207,0.146,0.34c0,0.134-0.049,0.247-0.146,0.34
			c-0.098,0.095-0.212,0.142-0.346,0.142s-0.247-0.047-0.34-0.142c-0.095-0.093-0.142-0.206-0.142-0.34
			c0-0.133,0.047-0.246,0.142-0.34c0.093-0.093,0.206-0.14,0.34-0.14C67.848,164.556,67.963,164.603,68.06,164.695z M68.095,166.375
			v4.44h-0.75v-4.44H68.095z"/>
		<path fill="#1E1E1C" d="M69.645,169.695v-2.68h-0.721v-0.642h0.721v-1.17h0.75v1.17h1.069v0.642h-1.069v2.6
			c0,0.414,0.195,0.62,0.59,0.62c0.207,0,0.399-0.06,0.58-0.18v0.699c-0.188,0.101-0.42,0.149-0.7,0.149
			c-0.372,0-0.67-0.102-0.89-0.305C69.755,170.395,69.645,170.096,69.645,169.695z"/>
		<path fill="#1E1E1C" d="M73.846,172.516h-0.74l0.67-1.67l-1.729-4.472h0.812l1.311,3.5l1.29-3.5h0.779L73.846,172.516z"/>
		<path fill="#1E1E1C" d="M82.116,166.375l0.909,3.392l0.979-3.392h0.729l-1.312,4.44h-0.729l-0.92-3.37l-0.932,3.37h-0.729
			l-1.312-4.44h0.75l0.98,3.392l0.909-3.392H82.116z"/>
		<path fill="#1E1E1C" d="M88.781,166.931c0.377,0.43,0.564,0.983,0.564,1.665c0,0.68-0.188,1.233-0.564,1.665
			c-0.377,0.43-0.868,0.646-1.476,0.646c-0.608,0-1.099-0.215-1.476-0.646c-0.377-0.432-0.564-0.985-0.564-1.665
			c0-0.682,0.188-1.235,0.564-1.665c0.377-0.432,0.867-0.646,1.476-0.646C87.913,166.285,88.404,166.5,88.781,166.931z
			 M88.241,169.79c0.229-0.303,0.345-0.701,0.345-1.193c0-0.493-0.114-0.893-0.345-1.195c-0.229-0.304-0.542-0.455-0.937-0.455
			s-0.705,0.151-0.936,0.455c-0.229,0.304-0.346,0.702-0.346,1.195c0,0.492,0.114,0.892,0.346,1.193
			c0.229,0.305,0.541,0.455,0.936,0.455S88.01,170.094,88.241,169.79z"/>
		<path fill="#1E1E1C" d="M92.645,166.355v0.77c-0.12-0.079-0.287-0.119-0.5-0.119c-0.24,0-0.454,0.073-0.642,0.221
			c-0.188,0.146-0.315,0.35-0.391,0.608v2.98h-0.75v-4.44h0.75v0.58c0.101-0.192,0.248-0.353,0.445-0.479
			c0.195-0.127,0.415-0.19,0.653-0.19C92.408,166.285,92.551,166.309,92.645,166.355z"/>
		<path fill="#1E1E1C" d="M96.375,170.815v-0.521c-0.119,0.174-0.293,0.318-0.521,0.436c-0.228,0.117-0.471,0.175-0.729,0.175
			c-0.626,0-1.116-0.22-1.471-0.66c-0.354-0.438-0.529-0.989-0.529-1.648c0-0.653,0.178-1.202,0.529-1.646
			c0.354-0.444,0.845-0.665,1.471-0.665c0.262,0,0.504,0.06,0.729,0.175c0.228,0.117,0.399,0.263,0.521,0.437v-2.58h0.762v6.5
			L96.375,170.815L96.375,170.815z M96.375,169.495v-1.8c-0.112-0.227-0.271-0.405-0.476-0.535c-0.205-0.13-0.425-0.194-0.665-0.194
			c-0.413,0-0.74,0.151-0.984,0.455c-0.243,0.304-0.363,0.694-0.363,1.176c0,0.479,0.12,0.87,0.363,1.175
			c0.244,0.304,0.571,0.455,0.984,0.455c0.24,0,0.462-0.065,0.665-0.195C96.102,169.902,96.262,169.722,96.375,169.495z"/>
	</g>
	<g>
		<path fill="#324C9B" d="M171.486,102.162c0-8.689-7.045-15.734-15.733-15.734s-15.733,7.046-15.733,15.735
			c0,5.641,2.978,10.571,7.435,13.351v-2.52c-0.065-0.425-0.108-0.854-0.108-1.299c0-0.445,0.043-0.855,0.108-1.252v-0.631h0.135
			c0.896-3.326,4.207-4.851,8.166-4.851c3.961,0,7.272,1.523,8.166,4.851h0.138v0.637c0.063,0.396,0.108,0.806,0.108,1.246
			s-0.045,0.869-0.108,1.292v2.524C168.511,112.732,171.486,107.802,171.486,102.162z M155.752,102.162
			c-2.219,0-4.019-1.799-4.019-4.019c0-2.221,1.8-4.02,4.019-4.02c2.222,0,4.021,1.799,4.021,4.02
			C159.772,100.363,157.973,102.162,155.752,102.162z"/>
		<circle fill="#ECECEC" cx="155.752" cy="98.144" r="4.019"/>
		<path fill="#ECECEC" d="M164.164,111.695c0-0.44-0.045-0.851-0.108-1.246v-0.637h-0.138c-0.894-3.326-4.205-4.851-8.166-4.851
			c-3.959,0-7.271,1.523-8.166,4.851h-0.135v0.631c-0.065,0.396-0.109,0.809-0.109,1.252c0,0.443,0.044,0.874,0.109,1.299v2.52
			c2.411,1.503,5.25,2.386,8.301,2.386c3.053,0,5.892-0.883,8.304-2.387v-2.524C164.119,112.564,164.164,112.136,164.164,111.695z"
			/>
	</g>
</g>
<g>
	<path fill="#324C9B" d="M447.487,102.162c0-8.689-7.045-15.734-15.732-15.734c-8.689,0-15.734,7.046-15.734,15.735
		c0,5.641,2.977,10.571,7.434,13.351v-2.52c-0.064-0.425-0.107-0.854-0.107-1.299c0-0.445,0.043-0.855,0.107-1.252v-0.631h0.137
		c0.895-3.326,4.207-4.851,8.166-4.851c3.961,0,7.271,1.523,8.166,4.851h0.137v0.637c0.062,0.396,0.109,0.806,0.109,1.246
		s-0.047,0.869-0.109,1.292v2.524C444.51,112.732,447.487,107.802,447.487,102.162z M431.753,102.162
		c-2.221,0-4.02-1.799-4.02-4.019c0-2.221,1.799-4.02,4.02-4.02s4.02,1.799,4.02,4.02
		C435.772,100.363,433.973,102.162,431.753,102.162z"/>
	<circle fill="#ECECEC" cx="431.753" cy="98.144" r="4.019"/>
	<path fill="#ECECEC" d="M440.164,111.695c0-0.44-0.045-0.851-0.107-1.246v-0.637h-0.137c-0.895-3.326-4.205-4.851-8.166-4.851
		c-3.96,0-7.271,1.523-8.166,4.851h-0.137v0.631c-0.064,0.396-0.107,0.809-0.107,1.252c0,0.443,0.043,0.874,0.107,1.299v2.52
		c2.412,1.503,5.25,2.386,8.302,2.386s5.892-0.883,8.304-2.387v-2.524C440.119,112.564,440.164,112.136,440.164,111.695z"/>
</g>
<g>
	<g>
		<path fill="#1E1E1C" d="M313.284,240.736c-0.629-0.698-0.94-1.612-0.94-2.74s0.312-2.042,0.94-2.742
			c0.627-0.699,1.414-1.05,2.357-1.05c0.76,0,1.391,0.203,1.891,0.61c0.5,0.408,0.824,0.961,0.979,1.656h-0.938
			c-0.336-0.943-0.979-1.416-1.932-1.416c-0.705,0-1.271,0.271-1.705,0.811c-0.432,0.539-0.646,1.251-0.646,2.131
			c0,0.872,0.218,1.58,0.646,2.124c0.432,0.544,1,0.815,1.705,0.815c0.959,0,1.604-0.478,1.932-1.43h0.938
			c-0.152,0.704-0.479,1.262-0.979,1.668c-0.5,0.408-1.131,0.612-1.891,0.612C314.698,241.788,313.911,241.438,313.284,240.736z"/>
		<path fill="#1E1E1C" d="M323.605,237.018c0.451,0.517,0.68,1.183,0.68,1.998s-0.229,1.481-0.68,1.998
			c-0.453,0.517-1.043,0.773-1.77,0.773c-0.73,0-1.318-0.26-1.771-0.773c-0.453-0.516-0.678-1.183-0.678-1.998
			s0.227-1.481,0.678-1.998s1.041-0.772,1.771-0.772C322.562,236.244,323.152,236.502,323.605,237.018z M322.956,240.449
			c0.275-0.363,0.414-0.842,0.414-1.434c0-0.594-0.139-1.07-0.414-1.436c-0.274-0.364-0.649-0.546-1.12-0.546
			c-0.474,0-0.847,0.182-1.123,0.546c-0.275,0.363-0.414,0.842-0.414,1.436c0,0.592,0.139,1.068,0.414,1.434
			c0.276,0.363,0.647,0.547,1.123,0.547C322.306,240.996,322.681,240.812,322.956,240.449z"/>
		<path fill="#1E1E1C" d="M325.506,241.68v-5.328h0.899v0.672c0.168-0.225,0.392-0.408,0.666-0.559
			c0.275-0.148,0.578-0.222,0.906-0.222c0.592,0,1.053,0.176,1.379,0.526c0.328,0.354,0.492,0.824,0.492,1.416v3.492h-0.912v-3.349
			c0-0.386-0.098-0.688-0.293-0.918s-0.49-0.343-0.883-0.343c-0.312,0-0.592,0.095-0.84,0.281c-0.248,0.188-0.42,0.426-0.517,0.715
			v3.611h-0.899L325.506,241.68L325.506,241.68z"/>
		<path fill="#1E1E1C" d="M334.038,233.893v0.814c-0.151-0.098-0.34-0.145-0.563-0.145c-0.271,0-0.484,0.084-0.644,0.252
			c-0.153,0.168-0.231,0.408-0.231,0.721v0.814h1.199v0.77h-1.199v4.561h-0.889v-4.561h-0.9v-0.77h0.9v-0.889
			c0-0.521,0.151-0.932,0.454-1.234c0.306-0.306,0.697-0.457,1.179-0.457C333.615,233.771,333.847,233.812,334.038,233.893z"/>
		<path fill="#1E1E1C" d="M335.7,234.336c0.115,0.112,0.174,0.248,0.174,0.408s-0.059,0.296-0.174,0.406
			c-0.117,0.113-0.254,0.168-0.414,0.168c-0.159,0-0.297-0.055-0.407-0.168c-0.113-0.11-0.168-0.246-0.168-0.406
			s0.055-0.296,0.168-0.408c0.11-0.111,0.248-0.168,0.407-0.168C335.446,234.168,335.583,234.225,335.7,234.336z M335.741,236.352
			v5.328h-0.899v-5.328H335.741z"/>
		<path fill="#1E1E1C" d="M340.086,236.328v0.924c-0.146-0.097-0.345-0.145-0.601-0.145c-0.287,0-0.545,0.088-0.77,0.265
			c-0.224,0.176-0.379,0.42-0.468,0.731v3.576h-0.899v-5.328h0.899v0.694c0.119-0.231,0.298-0.424,0.533-0.575
			c0.234-0.152,0.498-0.229,0.785-0.229C339.802,236.244,339.974,236.271,340.086,236.328z"/>
		<path fill="#1E1E1C" d="M344.982,237.096c0.4-0.568,0.941-0.853,1.621-0.853c0.535,0,0.949,0.172,1.242,0.517
			c0.291,0.344,0.438,0.809,0.438,1.393v3.527h-0.912v-3.385c0-0.384-0.084-0.688-0.252-0.904c-0.168-0.221-0.42-0.33-0.756-0.33
			c-0.271,0-0.516,0.086-0.729,0.258c-0.218,0.173-0.365,0.401-0.445,0.688v3.673h-0.898v-3.385c0-0.384-0.084-0.688-0.252-0.904
			c-0.168-0.221-0.42-0.33-0.756-0.33c-0.271,0-0.518,0.086-0.731,0.258c-0.218,0.173-0.363,0.401-0.443,0.688v3.673h-0.9v-5.328
			h0.9v0.625c0.305-0.487,0.783-0.731,1.439-0.731C344.215,236.244,344.693,236.527,344.982,237.096z"/>
		<path fill="#1E1E1C" d="M354.031,243.72h-0.889l0.805-2.005l-2.076-5.363h0.974l1.569,4.2l1.55-4.2h0.936L354.031,243.72z"/>
		<path fill="#1E1E1C" d="M361.656,237.018c0.451,0.517,0.679,1.183,0.679,1.998s-0.228,1.481-0.679,1.998
			c-0.453,0.517-1.043,0.773-1.771,0.773c-0.729,0-1.318-0.26-1.771-0.773c-0.453-0.516-0.68-1.183-0.68-1.998
			s0.227-1.481,0.68-1.998c0.451-0.517,1.041-0.772,1.771-0.772C360.613,236.244,361.202,236.502,361.656,237.018z M361.008,240.449
			c0.274-0.363,0.414-0.842,0.414-1.434c0-0.594-0.14-1.07-0.414-1.436c-0.275-0.364-0.65-0.546-1.121-0.546
			c-0.474,0-0.847,0.182-1.123,0.546c-0.275,0.363-0.414,0.842-0.414,1.436c0,0.592,0.139,1.068,0.414,1.434
			c0.276,0.363,0.649,0.547,1.123,0.547C360.357,240.996,360.732,240.812,361.008,240.449z"/>
		<path fill="#1E1E1C" d="M367.806,236.352v5.328h-0.912v-0.673c-0.16,0.226-0.377,0.41-0.646,0.56
			c-0.272,0.146-0.571,0.223-0.899,0.223c-0.592,0-1.051-0.178-1.375-0.527c-0.324-0.352-0.484-0.824-0.484-1.416v-3.492h0.91v3.349
			c0,0.394,0.098,0.7,0.289,0.925s0.484,0.336,0.875,0.336c0.307,0,0.578-0.092,0.822-0.275c0.244-0.185,0.414-0.424,0.51-0.721
			v-3.611h0.912L367.806,236.352L367.806,236.352z"/>
		<path fill="#1E1E1C" d="M372.138,236.328v0.924c-0.146-0.097-0.344-0.145-0.601-0.145c-0.289,0-0.545,0.088-0.77,0.265
			c-0.225,0.176-0.381,0.42-0.469,0.731v3.576h-0.9v-5.328h0.9v0.694c0.121-0.231,0.299-0.424,0.535-0.575
			c0.233-0.152,0.497-0.229,0.784-0.229C371.853,236.244,372.025,236.271,372.138,236.328z"/>
		<path fill="#1E1E1C" d="M376.194,241.02c-0.447-0.513-0.672-1.181-0.672-2.004c0-0.824,0.225-1.492,0.672-2.004
			c0.447-0.513,1.031-0.769,1.752-0.769c0.584,0,1.062,0.155,1.437,0.468c0.371,0.312,0.604,0.729,0.7,1.248h-0.924
			c-0.063-0.288-0.203-0.516-0.414-0.679c-0.213-0.163-0.479-0.245-0.799-0.245c-0.455,0-0.82,0.186-1.098,0.552
			c-0.277,0.368-0.414,0.845-0.414,1.429s0.139,1.062,0.414,1.428c0.274,0.369,0.643,0.554,1.098,0.554
			c0.32,0,0.586-0.082,0.799-0.246c0.211-0.164,0.351-0.392,0.414-0.679h0.924c-0.096,0.521-0.329,0.937-0.7,1.248
			c-0.373,0.312-0.853,0.469-1.437,0.469C377.225,241.788,376.641,241.532,376.194,241.02z"/>
		<path fill="#1E1E1C" d="M385.121,241.68h-0.862v-0.396c-0.113,0.12-0.302,0.231-0.562,0.337c-0.266,0.104-0.545,0.154-0.842,0.154
			c-0.561,0-1.029-0.154-1.408-0.467c-0.381-0.312-0.57-0.726-0.57-1.236c0-0.487,0.195-0.889,0.589-1.199
			c0.391-0.312,0.875-0.469,1.45-0.469c0.265,0,0.523,0.044,0.781,0.133c0.256,0.088,0.441,0.188,0.562,0.3v-0.672
			c0-0.345-0.103-0.62-0.308-0.828c-0.203-0.208-0.494-0.312-0.869-0.312c-0.561,0-0.924,0.244-1.092,0.73h-0.889
			c0.088-0.447,0.312-0.812,0.678-1.092c0.363-0.279,0.803-0.42,1.312-0.42c0.633,0,1.129,0.168,1.487,0.504
			c0.359,0.336,0.541,0.796,0.541,1.38L385.121,241.68L385.121,241.68z M384.259,240.359v-0.553
			c-0.08-0.191-0.238-0.351-0.476-0.475c-0.236-0.124-0.494-0.188-0.772-0.188c-0.353,0-0.652,0.08-0.898,0.24
			c-0.248,0.159-0.373,0.389-0.373,0.684c0,0.306,0.125,0.539,0.373,0.703s0.547,0.246,0.898,0.246c0.278,0,0.537-0.062,0.772-0.188
			C384.02,240.71,384.178,240.552,384.259,240.359z"/>
		<path fill="#1E1E1C" d="M387.557,233.88v7.802h-0.898v-7.802H387.557z"/>
		<path fill="#1E1E1C" d="M390.065,233.88v7.802h-0.898v-7.802H390.065z"/>
		<path fill="#1E1E1C" d="M394.576,240.336v-3.216h-0.862v-0.769h0.862v-1.404h0.9v1.404h1.283v0.769h-1.283v3.119
			c0,0.495,0.234,0.743,0.707,0.743c0.248,0,0.479-0.07,0.697-0.215v0.84c-0.226,0.119-0.505,0.181-0.843,0.181
			c-0.446,0-0.803-0.122-1.065-0.366S394.576,240.814,394.576,240.336z"/>
		<path fill="#1E1E1C" d="M398.13,241.68v-7.801h0.899v3.145c0.168-0.225,0.39-0.408,0.666-0.559
			c0.275-0.148,0.576-0.222,0.904-0.222c0.594,0,1.053,0.176,1.381,0.526c0.328,0.354,0.492,0.824,0.492,1.416v3.492h-0.912v-3.349
			c0-0.386-0.1-0.688-0.295-0.918s-0.488-0.343-0.883-0.343c-0.312,0-0.593,0.095-0.841,0.281c-0.247,0.188-0.42,0.426-0.516,0.715
			v3.611h-0.897L398.13,241.68L398.13,241.68z"/>
		<path fill="#1E1E1C" d="M406.733,236.328v0.924c-0.143-0.097-0.344-0.145-0.6-0.145c-0.287,0-0.545,0.088-0.769,0.265
			c-0.225,0.176-0.381,0.42-0.469,0.731v3.576h-0.9v-5.328h0.9v0.694c0.119-0.231,0.299-0.424,0.533-0.575
			c0.235-0.152,0.498-0.229,0.787-0.229C406.449,236.244,406.621,236.271,406.733,236.328z"/>
		<path fill="#1E1E1C" d="M411.528,237.018c0.451,0.517,0.68,1.183,0.68,1.998s-0.229,1.481-0.68,1.998s-1.041,0.773-1.77,0.773
			c-0.729,0-1.318-0.26-1.771-0.773c-0.453-0.516-0.678-1.183-0.678-1.998s0.227-1.481,0.678-1.998s1.043-0.772,1.771-0.772
			C410.487,236.244,411.074,236.502,411.528,237.018z M410.88,240.449c0.274-0.363,0.414-0.842,0.414-1.434
			c0-0.594-0.14-1.07-0.414-1.436c-0.275-0.364-0.65-0.546-1.121-0.546c-0.474,0-0.847,0.182-1.123,0.546
			c-0.275,0.363-0.414,0.842-0.414,1.436c0,0.592,0.139,1.068,0.414,1.434c0.276,0.363,0.649,0.547,1.123,0.547
			C410.229,240.996,410.604,240.812,410.88,240.449z"/>
		<path fill="#1E1E1C" d="M417.677,236.352v5.328h-0.912v-0.673c-0.16,0.226-0.375,0.41-0.646,0.56
			c-0.271,0.146-0.571,0.223-0.899,0.223c-0.592,0-1.049-0.178-1.373-0.527c-0.324-0.352-0.484-0.824-0.484-1.416v-3.492h0.91v3.349
			c0,0.394,0.098,0.7,0.287,0.925c0.193,0.225,0.484,0.336,0.877,0.336c0.305,0,0.578-0.092,0.822-0.275
			c0.244-0.185,0.414-0.424,0.51-0.721v-3.611h0.91L417.677,236.352L417.677,236.352z"/>
		<path fill="#1E1E1C" d="M422.766,241.318v-0.396c-0.146,0.2-0.351,0.37-0.619,0.511c-0.268,0.142-0.557,0.211-0.869,0.211
			c-0.742,0-1.328-0.266-1.752-0.793s-0.637-1.164-0.637-1.908c0-0.752,0.213-1.389,0.637-1.913c0.424-0.523,1.01-0.785,1.752-0.785
			c0.312,0,0.604,0.067,0.869,0.203c0.27,0.137,0.477,0.305,0.619,0.505v-0.602h0.912v4.908c0,0.848-0.219,1.489-0.654,1.926
			c-0.435,0.438-1.01,0.653-1.723,0.653c-0.642,0-1.158-0.155-1.554-0.468s-0.639-0.744-0.729-1.296h0.891
			c0.15,0.663,0.615,0.995,1.392,0.995C422.278,243.07,422.766,242.486,422.766,241.318z M422.766,240v-2.124
			c-0.305-0.553-0.756-0.828-1.355-0.828c-0.496,0-0.887,0.177-1.17,0.528c-0.283,0.354-0.428,0.809-0.428,1.367
			c0,0.561,0.145,1.015,0.428,1.361c0.283,0.348,0.674,0.521,1.17,0.521C422.01,240.828,422.462,240.552,422.766,240z"/>
		<path fill="#1E1E1C" d="M425.285,241.68v-7.801h0.898v3.145c0.168-0.225,0.391-0.408,0.666-0.559
			c0.277-0.148,0.578-0.222,0.906-0.222c0.592,0,1.053,0.176,1.381,0.526c0.328,0.354,0.492,0.824,0.492,1.416v3.492h-0.912v-3.349
			c0-0.386-0.101-0.688-0.295-0.918c-0.195-0.229-0.49-0.343-0.884-0.343c-0.312,0-0.592,0.095-0.84,0.281
			c-0.248,0.188-0.42,0.426-0.516,0.715v3.611h-0.898L425.285,241.68L425.285,241.68z"/>
		<path fill="#1E1E1C" d="M297.605,253.216h0.936c0.168,0.545,0.588,0.815,1.261,0.815c0.327,0,0.592-0.065,0.79-0.197
			c0.201-0.132,0.304-0.33,0.304-0.595c0-0.359-0.267-0.607-0.793-0.743l-1.058-0.275c-0.854-0.217-1.284-0.685-1.284-1.404
			c0-0.463,0.182-0.842,0.54-1.133c0.359-0.293,0.816-0.438,1.367-0.438c0.576,0,1.041,0.132,1.396,0.396
			c0.352,0.265,0.574,0.637,0.672,1.115h-0.9c-0.16-0.504-0.553-0.756-1.176-0.756c-0.281,0-0.521,0.064-0.721,0.197
			c-0.199,0.133-0.301,0.322-0.301,0.57c0,0.176,0.059,0.312,0.176,0.414c0.112,0.101,0.305,0.187,0.567,0.258l1.031,0.252
			c0.904,0.24,1.357,0.735,1.357,1.488c0,0.494-0.187,0.887-0.556,1.176c-0.366,0.287-0.844,0.433-1.428,0.433
			s-1.074-0.142-1.469-0.42C297.921,254.088,297.683,253.704,297.605,253.216z"/>
		<path fill="#1E1E1C" d="M306.902,254.68h-0.863v-0.396c-0.11,0.12-0.299,0.231-0.562,0.337c-0.267,0.104-0.545,0.154-0.84,0.154
			c-0.562,0-1.031-0.154-1.41-0.467c-0.381-0.312-0.57-0.726-0.57-1.236c0-0.487,0.197-0.889,0.588-1.199
			c0.394-0.312,0.877-0.469,1.453-0.469c0.264,0,0.521,0.044,0.779,0.133c0.256,0.088,0.442,0.188,0.562,0.3v-0.672
			c0-0.345-0.102-0.62-0.307-0.828c-0.203-0.208-0.492-0.312-0.869-0.312c-0.561,0-0.924,0.244-1.092,0.73h-0.89
			c0.089-0.447,0.314-0.812,0.679-1.092c0.362-0.279,0.803-0.42,1.313-0.42c0.631,0,1.127,0.168,1.486,0.504
			c0.361,0.336,0.541,0.796,0.541,1.38L306.902,254.68L306.902,254.68z M306.038,253.359v-0.553
			c-0.08-0.191-0.238-0.351-0.475-0.475c-0.234-0.124-0.492-0.188-0.773-0.188c-0.352,0-0.649,0.08-0.897,0.24
			c-0.248,0.159-0.373,0.389-0.373,0.684c0,0.306,0.125,0.539,0.373,0.703s0.547,0.246,0.897,0.246c0.281,0,0.539-0.062,0.773-0.188
			C305.8,253.71,305.958,253.552,306.038,253.359z"/>
		<path fill="#1E1E1C" d="M309.915,256.72h-0.889l0.805-2.005l-2.075-5.363h0.973l1.57,4.2l1.549-4.2h0.938L309.915,256.72z"/>
		<path fill="#1E1E1C" d="M314.661,247.336c0.115,0.112,0.175,0.248,0.175,0.408s-0.06,0.296-0.175,0.406
			c-0.116,0.113-0.254,0.168-0.414,0.168c-0.159,0-0.297-0.055-0.407-0.168c-0.113-0.11-0.168-0.246-0.168-0.406
			s0.055-0.296,0.168-0.408c0.11-0.111,0.248-0.168,0.407-0.168C314.407,247.168,314.545,247.225,314.661,247.336z M314.702,249.352
			v5.328h-0.899v-5.328H314.702z"/>
		<path fill="#1E1E1C" d="M316.31,254.68v-5.328h0.9v0.672c0.168-0.225,0.391-0.408,0.665-0.559
			c0.275-0.148,0.578-0.222,0.906-0.222c0.592,0,1.054,0.176,1.381,0.526c0.328,0.354,0.492,0.824,0.492,1.416v3.492h-0.912v-3.349
			c0-0.386-0.1-0.688-0.295-0.918c-0.194-0.229-0.49-0.343-0.883-0.343c-0.312,0-0.592,0.095-0.84,0.281
			c-0.248,0.188-0.42,0.426-0.516,0.715v3.611h-0.9L316.31,254.68L316.31,254.68z"/>
		<path fill="#1E1E1C" d="M325.672,254.318v-0.396c-0.146,0.2-0.351,0.37-0.619,0.511c-0.269,0.142-0.558,0.211-0.869,0.211
			c-0.744,0-1.328-0.266-1.752-0.793s-0.637-1.164-0.637-1.908c0-0.752,0.213-1.389,0.637-1.913
			c0.424-0.523,1.008-0.785,1.752-0.785c0.312,0,0.604,0.067,0.869,0.203c0.27,0.137,0.475,0.305,0.619,0.505v-0.602h0.911v4.908
			c0,0.848-0.219,1.489-0.653,1.926c-0.436,0.438-1.01,0.653-1.724,0.653c-0.641,0-1.157-0.155-1.553-0.468
			s-0.641-0.744-0.729-1.296h0.889c0.152,0.663,0.615,0.995,1.393,0.995C325.183,256.071,325.672,255.486,325.672,254.318z
			 M325.672,253v-2.124c-0.306-0.553-0.757-0.828-1.355-0.828c-0.496,0-0.887,0.177-1.172,0.528
			c-0.281,0.354-0.426,0.809-0.426,1.367c0,0.561,0.145,1.015,0.426,1.361c0.285,0.348,0.676,0.521,1.172,0.521
			C324.915,253.828,325.366,253.552,325.672,253z"/>
		<path fill="#1E1E1C" d="M331.095,253.336v-3.216h-0.863v-0.769h0.863v-1.404h0.899v1.404h1.283v0.769h-1.283v3.119
			c0,0.495,0.234,0.743,0.707,0.743c0.248,0,0.479-0.07,0.695-0.215v0.84c-0.225,0.119-0.504,0.181-0.84,0.181
			c-0.447,0-0.805-0.122-1.066-0.366C331.228,254.178,331.095,253.814,331.095,253.336z"/>
		<path fill="#1E1E1C" d="M334.646,254.68v-7.801h0.9v3.145c0.168-0.225,0.391-0.408,0.666-0.559
			c0.276-0.148,0.577-0.222,0.905-0.222c0.593,0,1.054,0.176,1.381,0.526c0.328,0.354,0.492,0.824,0.492,1.416v3.492h-0.912v-3.349
			c0-0.386-0.1-0.688-0.295-0.918c-0.194-0.229-0.489-0.343-0.883-0.343c-0.312,0-0.592,0.095-0.84,0.281
			c-0.248,0.188-0.42,0.426-0.516,0.715v3.611h-0.9L334.646,254.68L334.646,254.68z"/>
		<path fill="#1E1E1C" d="M343.874,253.084h0.853c-0.096,0.521-0.332,0.936-0.707,1.242c-0.377,0.309-0.855,0.462-1.439,0.462
			c-0.729,0-1.317-0.254-1.771-0.763c-0.451-0.508-0.678-1.174-0.678-1.998c0-0.809,0.225-1.475,0.672-1.998
			c0.449-0.523,1.033-0.785,1.752-0.785c0.713,0,1.266,0.236,1.656,0.714c0.393,0.478,0.588,1.108,0.588,1.901v0.324h-3.769
			c0.008,0.561,0.152,1.006,0.438,1.338s0.653,0.498,1.11,0.498c0.336,0,0.617-0.082,0.847-0.246
			C343.652,253.609,343.802,253.38,343.874,253.084z M342.568,250.012c-0.399,0-0.736,0.133-1.01,0.396
			c-0.271,0.265-0.438,0.629-0.504,1.093h2.832c-0.008-0.424-0.123-0.776-0.349-1.062
			C343.314,250.154,342.991,250.012,342.568,250.012z"/>
		<path fill="#1E1E1C" d="M348.206,253.216h0.937c0.168,0.545,0.588,0.815,1.26,0.815c0.328,0,0.592-0.065,0.791-0.197
			c0.201-0.132,0.303-0.33,0.303-0.595c0-0.359-0.266-0.607-0.793-0.743l-1.057-0.275c-0.855-0.217-1.283-0.685-1.283-1.404
			c0-0.463,0.181-0.842,0.539-1.133c0.359-0.293,0.816-0.438,1.367-0.438c0.576,0,1.041,0.132,1.395,0.396
			c0.353,0.265,0.574,0.637,0.673,1.115h-0.9c-0.16-0.504-0.553-0.756-1.176-0.756c-0.281,0-0.521,0.064-0.722,0.197
			c-0.198,0.133-0.301,0.322-0.301,0.57c0,0.176,0.06,0.312,0.176,0.414c0.115,0.101,0.306,0.187,0.568,0.258l1.031,0.252
			c0.903,0.24,1.356,0.735,1.356,1.488c0,0.494-0.186,0.887-0.555,1.176c-0.367,0.287-0.844,0.433-1.428,0.433
			s-1.074-0.142-1.469-0.42C348.523,254.088,348.284,253.704,348.206,253.216z"/>
		<path fill="#1E1E1C" d="M356.978,253.084h0.854c-0.098,0.521-0.331,0.936-0.709,1.242c-0.375,0.309-0.854,0.462-1.438,0.462
			c-0.729,0-1.316-0.254-1.771-0.763c-0.452-0.508-0.68-1.174-0.68-1.998c0-0.809,0.226-1.475,0.674-1.998
			c0.447-0.523,1.031-0.785,1.752-0.785c0.711,0,1.265,0.236,1.654,0.714c0.394,0.478,0.59,1.108,0.59,1.901v0.324h-3.77
			c0.008,0.561,0.153,1.006,0.438,1.338c0.283,0.332,0.652,0.498,1.109,0.498c0.336,0,0.617-0.082,0.846-0.246
			C356.758,253.609,356.906,253.38,356.978,253.084z M355.672,250.012c-0.4,0-0.736,0.133-1.011,0.396
			c-0.271,0.265-0.438,0.629-0.504,1.093h2.832c-0.008-0.424-0.123-0.776-0.348-1.062S356.095,250.012,355.672,250.012z"/>
		<path fill="#1E1E1C" d="M359.413,254.02c-0.446-0.513-0.672-1.181-0.672-2.004c0-0.824,0.226-1.492,0.672-2.004
			c0.449-0.513,1.033-0.769,1.752-0.769c0.584,0,1.062,0.155,1.437,0.468c0.371,0.312,0.604,0.729,0.701,1.248h-0.924
			c-0.064-0.288-0.203-0.516-0.414-0.679c-0.214-0.163-0.479-0.245-0.8-0.245c-0.454,0-0.819,0.186-1.098,0.552
			c-0.277,0.368-0.414,0.845-0.414,1.429s0.139,1.062,0.414,1.428c0.275,0.369,0.644,0.554,1.098,0.554
			c0.32,0,0.586-0.082,0.8-0.246c0.211-0.164,0.35-0.392,0.414-0.679h0.924c-0.097,0.521-0.33,0.937-0.701,1.248
			c-0.373,0.312-0.853,0.469-1.437,0.469C360.447,254.788,359.863,254.532,359.413,254.02z"/>
		<path fill="#1E1E1C" d="M368.726,249.352v5.328h-0.912v-0.673c-0.16,0.226-0.377,0.41-0.646,0.56
			c-0.273,0.146-0.572,0.223-0.9,0.223c-0.592,0-1.051-0.178-1.375-0.527c-0.324-0.352-0.484-0.824-0.484-1.416v-3.492h0.912v3.349
			c0,0.394,0.097,0.7,0.287,0.925c0.191,0.225,0.484,0.336,0.875,0.336c0.307,0,0.578-0.092,0.822-0.275
			c0.244-0.185,0.414-0.424,0.51-0.721v-3.611h0.912L368.726,249.352L368.726,249.352z"/>
		<path fill="#1E1E1C" d="M373.057,249.328v0.924c-0.144-0.097-0.344-0.145-0.6-0.145c-0.288,0-0.545,0.088-0.77,0.265
			c-0.225,0.176-0.381,0.42-0.469,0.731v3.576h-0.898v-5.328h0.898v0.694c0.121-0.231,0.299-0.424,0.535-0.575
			c0.233-0.152,0.498-0.229,0.784-0.229C372.774,249.244,372.946,249.271,373.057,249.328z"/>
		<path fill="#1E1E1C" d="M375.031,247.336c0.115,0.112,0.174,0.248,0.174,0.408s-0.059,0.296-0.174,0.406
			c-0.114,0.113-0.254,0.168-0.414,0.168s-0.295-0.055-0.407-0.168c-0.111-0.11-0.168-0.246-0.168-0.406s0.057-0.296,0.168-0.408
			c0.112-0.111,0.247-0.168,0.407-0.168S374.916,247.225,375.031,247.336z M375.074,249.352v5.328h-0.899v-5.328H375.074z"/>
		<path fill="#1E1E1C" d="M376.934,253.336v-3.216h-0.863v-0.769h0.863v-1.404h0.9v1.404h1.282v0.769h-1.282v3.119
			c0,0.495,0.233,0.743,0.706,0.743c0.248,0,0.479-0.07,0.697-0.215v0.84c-0.227,0.119-0.506,0.181-0.842,0.181
			c-0.447,0-0.805-0.122-1.066-0.366C377.067,254.178,376.934,253.814,376.934,253.336z"/>
		<path fill="#1E1E1C" d="M381.973,256.72h-0.887l0.803-2.005l-2.076-5.363h0.975l1.57,4.2l1.549-4.2h0.937L381.973,256.72z"/>
		<path fill="#1E1E1C" d="M391.899,249.352l1.092,4.067l1.176-4.067h0.878l-1.572,5.328h-0.877l-1.104-4.044l-1.114,4.044h-0.878
			l-1.571-5.328h0.899l1.177,4.067l1.092-4.067H391.899z"/>
		<path fill="#1E1E1C" d="M399.895,250.018c0.453,0.517,0.68,1.183,0.68,1.998s-0.227,1.481-0.68,1.998
			c-0.451,0.517-1.041,0.773-1.77,0.773c-0.729,0-1.318-0.26-1.771-0.773c-0.451-0.516-0.678-1.183-0.678-1.998
			s0.227-1.481,0.678-1.998c0.453-0.517,1.043-0.772,1.771-0.772C398.854,249.244,399.444,249.502,399.895,250.018z
			 M399.248,253.449c0.273-0.363,0.414-0.842,0.414-1.434c0-0.594-0.141-1.07-0.414-1.436c-0.276-0.364-0.649-0.546-1.122-0.546
			c-0.474,0-0.847,0.182-1.121,0.546c-0.277,0.363-0.414,0.842-0.414,1.436c0,0.592,0.137,1.068,0.414,1.434
			c0.274,0.363,0.647,0.547,1.121,0.547C398.598,253.996,398.971,253.812,399.248,253.449z"/>
		<path fill="#1E1E1C" d="M404.533,249.328v0.924c-0.145-0.097-0.346-0.145-0.602-0.145c-0.287,0-0.545,0.088-0.769,0.265
			c-0.225,0.176-0.381,0.42-0.469,0.731v3.576h-0.899v-5.328h0.899v0.694c0.119-0.231,0.299-0.424,0.533-0.575
			c0.236-0.152,0.498-0.229,0.787-0.229C404.248,249.244,404.421,249.271,404.533,249.328z"/>
		<path fill="#1E1E1C" d="M409.01,254.68v-0.623c-0.146,0.207-0.354,0.381-0.625,0.521c-0.271,0.141-0.562,0.21-0.875,0.21
			c-0.752,0-1.342-0.266-1.767-0.792c-0.424-0.527-0.637-1.188-0.637-1.979c0-0.783,0.213-1.44,0.637-1.975
			c0.425-0.532,1.015-0.798,1.767-0.798c0.312,0,0.604,0.069,0.875,0.21c0.271,0.141,0.479,0.312,0.625,0.521v-3.098h0.912v7.801
			L409.01,254.68L409.01,254.68z M409.01,253.096v-2.16c-0.138-0.271-0.326-0.485-0.57-0.643c-0.244-0.154-0.51-0.232-0.799-0.232
			c-0.496,0-0.891,0.183-1.182,0.545c-0.294,0.364-0.439,0.834-0.439,1.41s0.146,1.047,0.439,1.41
			c0.29,0.363,0.686,0.547,1.182,0.547c0.289,0,0.555-0.078,0.799-0.234S408.873,253.368,409.01,253.096z"/>
		<path fill="#1E1E1C" d="M411.074,253.216h0.937c0.168,0.545,0.588,0.815,1.26,0.815c0.328,0,0.592-0.065,0.791-0.197
			c0.201-0.132,0.303-0.33,0.303-0.595c0-0.359-0.266-0.607-0.793-0.743l-1.057-0.275c-0.855-0.217-1.285-0.685-1.285-1.404
			c0-0.463,0.182-0.842,0.541-1.133c0.359-0.293,0.816-0.438,1.367-0.438c0.576,0,1.041,0.132,1.395,0.396
			c0.353,0.265,0.574,0.637,0.672,1.115h-0.899c-0.16-0.504-0.554-0.756-1.176-0.756c-0.281,0-0.521,0.064-0.722,0.197
			c-0.199,0.133-0.301,0.322-0.301,0.57c0,0.176,0.059,0.312,0.176,0.414c0.113,0.101,0.306,0.187,0.568,0.258l1.031,0.252
			c0.903,0.24,1.356,0.735,1.356,1.488c0,0.494-0.186,0.887-0.555,1.176c-0.367,0.287-0.844,0.433-1.428,0.433
			s-1.074-0.142-1.47-0.42C411.391,254.088,411.153,253.704,411.074,253.216z"/>
	</g>
	<g>
		<path d="M423.653,254.68h-0.863v-0.396c-0.112,0.119-0.301,0.232-0.563,0.337c-0.264,0.104-0.543,0.155-0.84,0.155
			c-0.562,0-1.029-0.155-1.41-0.469c-0.379-0.312-0.57-0.724-0.57-1.235c0-0.487,0.197-0.888,0.588-1.199
			c0.394-0.312,0.877-0.47,1.453-0.47c0.265,0,0.523,0.045,0.779,0.134c0.256,0.088,0.443,0.188,0.563,0.3v-0.672
			c0-0.346-0.102-0.62-0.307-0.828c-0.203-0.208-0.494-0.312-0.869-0.312c-0.561,0-0.924,0.244-1.092,0.732h-0.889
			c0.088-0.447,0.313-0.812,0.678-1.092c0.363-0.28,0.803-0.42,1.314-0.42c0.631,0,1.127,0.168,1.487,0.504
			c0.359,0.336,0.539,0.796,0.539,1.38L423.653,254.68L423.653,254.68z M422.789,253.359v-0.553
			c-0.079-0.191-0.237-0.35-0.475-0.474s-0.494-0.187-0.773-0.187c-0.352,0-0.651,0.08-0.899,0.239
			c-0.248,0.16-0.371,0.388-0.371,0.685c0,0.305,0.123,0.537,0.371,0.701s0.549,0.246,0.899,0.246c0.279,0,0.537-0.062,0.773-0.186
			S422.71,253.552,422.789,253.359z"/>
		<path d="M426.091,254.055v0.624h-0.912v-7.8h0.912v3.096c0.143-0.207,0.352-0.382,0.623-0.521c0.271-0.142,0.563-0.21,0.877-0.21
			c0.752,0,1.34,0.266,1.764,0.798s0.635,1.188,0.635,1.974c0,0.793-0.211,1.452-0.635,1.98c-0.424,0.527-1.012,0.792-1.764,0.792
			c-0.312,0-0.605-0.07-0.877-0.21C426.442,254.438,426.233,254.264,426.091,254.055z M426.091,250.936v2.159
			c0.135,0.272,0.325,0.486,0.569,0.642c0.242,0.156,0.511,0.234,0.797,0.234c0.496,0,0.892-0.182,1.183-0.546
			c0.293-0.364,0.438-0.834,0.438-1.409c0-0.576-0.146-1.047-0.438-1.41c-0.291-0.363-0.687-0.547-1.183-0.547
			c-0.286,0-0.555,0.078-0.797,0.234C426.416,250.449,426.225,250.664,426.091,250.936z"/>
		<path d="M435.071,250.018c0.453,0.516,0.681,1.182,0.681,1.998c0,0.815-0.228,1.481-0.681,1.998
			c-0.451,0.516-1.041,0.773-1.77,0.773c-0.729,0-1.318-0.26-1.771-0.773c-0.453-0.517-0.678-1.183-0.678-1.998
			c0-0.816,0.225-1.482,0.678-1.998c0.451-0.517,1.041-0.773,1.771-0.773C434.03,249.244,434.619,249.502,435.071,250.018z
			 M434.425,253.449c0.274-0.363,0.414-0.842,0.414-1.434c0-0.593-0.14-1.07-0.414-1.435c-0.277-0.364-0.65-0.546-1.123-0.546
			c-0.474,0-0.847,0.182-1.121,0.546c-0.277,0.364-0.414,0.842-0.414,1.435c0,0.592,0.137,1.069,0.414,1.434
			c0.274,0.363,0.647,0.547,1.121,0.547C433.774,253.996,434.147,253.812,434.425,253.449z"/>
		<path d="M439.24,254.68h-0.887l-2.064-5.328h0.974l1.559,4.188l1.549-4.188h0.947L439.24,254.68z"/>
		<path d="M445.602,253.084h0.852c-0.096,0.52-0.332,0.934-0.709,1.242c-0.375,0.308-0.854,0.462-1.438,0.462
			c-0.729,0-1.318-0.254-1.771-0.763c-0.453-0.508-0.678-1.174-0.678-1.998c0-0.809,0.223-1.475,0.672-1.998
			c0.447-0.523,1.031-0.785,1.752-0.785c0.711,0,1.265,0.236,1.656,0.714c0.391,0.476,0.588,1.108,0.588,1.901v0.324h-3.768
			c0.008,0.561,0.151,1.006,0.438,1.338c0.283,0.332,0.654,0.498,1.109,0.498c0.336,0,0.619-0.082,0.846-0.246
			C445.38,253.609,445.53,253.38,445.602,253.084z M444.294,250.011c-0.4,0-0.736,0.132-1.009,0.396
			c-0.271,0.265-0.438,0.629-0.504,1.093h2.832c-0.008-0.424-0.125-0.777-0.348-1.062
			C445.041,250.154,444.718,250.011,444.294,250.011z"/>
	</g>
</g>
<rect x="286.138" y="61.62" fill="none" stroke="#1F1F1F" stroke-miterlimit="10" width="172" height="303"/>
</svg>
