<svg id="OUTLINES" xmlns="http://www.w3.org/2000/svg" viewBox="0 0 1152 1008"><defs><style>.cls-1{fill:#fff;}.cls-2{fill:#000f7c;}</style></defs><title>v5</title><rect class="cls-1" x="616.49" y="445.55" width="432" height="99" rx="18" ry="18"/><path class="cls-1" d="M1030.49,550.55h-396a24,24,0,0,1-24-24v-63a24,24,0,0,1,24-24h396a24,24,0,0,1,24,24v63A24,24,0,0,1,1030.49,550.55Zm-396-99a12,12,0,0,0-12,12v63a12,12,0,0,0,12,12h396a12,12,0,0,0,12-12v-63a12,12,0,0,0-12-12Z"/><rect class="cls-1" x="112.51" y="445.55" width="432" height="99" rx="18" ry="18"/><path class="cls-1" d="M526.51,550.55h-396a24,24,0,0,1-24-24v-63a24,24,0,0,1,24-24h396a24,24,0,0,1,24,24v63A24,24,0,0,1,526.51,550.55Zm-396-99a12,12,0,0,0-12,12v63a12,12,0,0,0,12,12h396a12,12,0,0,0,12-12v-63a12,12,0,0,0-12-12Z"/><path class="cls-2" d="M85.49,811.39a5,5,0,0,1-5-5V673.15a149.54,149.54,0,0,1,44.09-106.43l30.25-30.25a5,5,0,0,1,7.07,7.07l-30.25,30.25a139.61,139.61,0,0,0-41.16,99.36V806.39A5,5,0,0,1,85.49,811.39Z"/><path class="cls-2" d="M282.9,815h0a5,5,0,0,1-5-5v-26.5a5,5,0,0,1,2.79-4.48,68,68,0,0,0,38.11-61.33V688.45a5,5,0,0,1,10,0v29.19a77.9,77.9,0,0,1-40.9,68.85V810A5,5,0,0,1,282.9,815Z"/><path class="cls-2" d="M467.8,446h-288a5,5,0,0,1-5-5V198a23,23,0,0,1,23-23h252a23,23,0,0,1,23,23V441A5,5,0,0,1,467.8,446Zm-283-10h278V198a13,13,0,0,0-13-13h-252a13,13,0,0,0-13,13Z"/><path class="cls-2" d="M449.8,689H215.36a5,5,0,0,1-3.72-8.34l61.6-68.41A28.6,28.6,0,0,0,254,564.05l-70.69,70.7a5,5,0,0,1-8.54-3.54V540a5,5,0,0,1,5-5h288a5,5,0,0,1,5,5V666A23,23,0,0,1,449.8,689ZM226.59,679H449.8a13,13,0,0,0,13-13V545h-278v74.14l63.67-63.67A5,5,0,0,1,252,554h.46a38.59,38.59,0,0,1,28.19,65Z"/><path class="cls-2" d="M1066.3,811.39a5,5,0,0,1-5-5V673.15a139.56,139.56,0,0,0-41.16-99.36l-30.25-30.25a5,5,0,1,1,7.07-7.07l30.25,30.25a149.5,149.5,0,0,1,44.09,106.43V806.39A5,5,0,0,1,1066.3,811.39Z"/><path class="cls-2" d="M868.9,815a5,5,0,0,1-5-5V786.49A77.89,77.89,0,0,1,823,717.64V687a5,5,0,0,1,10,0v30.61A68,68,0,0,0,871.11,779a5,5,0,0,1,2.79,4.48V810A5,5,0,0,1,868.9,815Z"/><path class="cls-2" d="M828,657.45a23,23,0,1,1,23-23A23,23,0,0,1,828,657.45Zm0-36a13,13,0,1,0,13,13A13,13,0,0,0,828,621.45Z"/><path class="cls-2" d="M977,441H967V198a13,13,0,0,0-13-13H702a13,13,0,0,0-13,13V441H679V198a23,23,0,0,1,23-23H954a23,23,0,0,1,23,23Z"/><path class="cls-2" d="M936.44,689H702a23,23,0,0,1-23-23V540a5,5,0,0,1,5-5H972a5,5,0,0,1,5,5v91.21a5,5,0,0,1-8.53,3.54l-70.69-70.7a28.6,28.6,0,0,0-19.28,48.08l61.67,68.48a5,5,0,0,1-3.72,8.34ZM689,545V666a13,13,0,0,0,13,13H925.21l-54.08-60.06A38.59,38.59,0,0,1,899.39,554h.46a5,5,0,0,1,3.48,1.46L967,619.14V545Z"/><path class="cls-2" d="M1026,546H630a24,24,0,0,1-24-24V459a24,24,0,0,1,24-24h396a24,24,0,0,1,24,24v63A24,24,0,0,1,1026,546ZM630,447a12,12,0,0,0-12,12v63a12,12,0,0,0,12,12h396a12,12,0,0,0,12-12V459a12,12,0,0,0-12-12Z"/><path class="cls-2" d="M521.8,546h-396a24,24,0,0,1-24-24V459a24,24,0,0,1,24-24h396a24,24,0,0,1,24,24v63A24,24,0,0,1,521.8,546Zm-396-99a12,12,0,0,0-12,12v63a12,12,0,0,0,12,12h396a12,12,0,0,0,12-12V459a12,12,0,0,0-12-12Z"/><path class="cls-2" d="M232.34,367.25v27.63h-5.62V373.82L220.28,377v-5.62l8.42-4.14Z"/><path class="cls-2" d="M256.37,374.22h-5.58a3.51,3.51,0,0,0-3.64-2.7,4.44,4.44,0,0,0-3.87,2.34,9.86,9.86,0,0,0-1.49,5.4v.41a5,5,0,0,1,2.25-2.12,7.68,7.68,0,0,1,3.56-.81,8.54,8.54,0,0,1,6.52,2.63,9.09,9.09,0,0,1,2.48,6.46A9.36,9.36,0,0,1,254,392.6a9.47,9.47,0,0,1-7.14,2.73,9,9,0,0,1-8.37-5,17.3,17.3,0,0,1-1.93-8.68q0-6.57,2.86-10.71a8.9,8.9,0,0,1,7.71-4.14,8.68,8.68,0,0,1,9.27,7.42ZM242.29,386a4.58,4.58,0,0,0,1.26,3.35,4.48,4.48,0,0,0,3.33,1.28,4.42,4.42,0,0,0,3.26-1.28,4.51,4.51,0,0,0,1.28-3.35,4.79,4.79,0,0,0-1.26-3.47,4.35,4.35,0,0,0-3.28-1.3,4.41,4.41,0,0,0-3.33,1.3A4.79,4.79,0,0,0,242.29,386Z"/><path class="cls-2" d="M268.21,386.1h5.94q.36,4,4.05,4,4.28,0,4.27-5.27V367.25h5.76v17.64q0,5.13-2.7,7.78a11.36,11.36,0,0,1-14.44.14A9.83,9.83,0,0,1,268.21,386.1Z"/><path class="cls-2" d="M310.69,374.76v20.12h-5.58V393a6.93,6.93,0,0,1-5.4,2.3,6.72,6.72,0,0,1-5.2-2,7.63,7.63,0,0,1-1.87-5.4V374.76h5.58v12a3.88,3.88,0,0,0,.81,2.61,3,3,0,0,0,2.43.94,3.76,3.76,0,0,0,2.3-.74,3.5,3.5,0,0,0,1.3-2V374.76Z"/><path class="cls-2" d="M315.5,394.88V374.76h5.58v1.85a7.63,7.63,0,0,1,10.64-.27,7.63,7.63,0,0,1,1.87,5.4v13.14H328v-12a3.85,3.85,0,0,0-.83-2.59,3,3,0,0,0-2.45-1,3.84,3.84,0,0,0-2.32.74,3.45,3.45,0,0,0-1.33,2.05v12.74Z"/><path class="cls-2" d="M358.16,367.25v27.63h-5.62V373.82L346.1,377v-5.62l8.42-4.14Z"/><path class="cls-2" d="M362.48,387.9h5.58a3.51,3.51,0,0,0,3.65,2.7,4.47,4.47,0,0,0,3.87-2.34,9.86,9.86,0,0,0,1.48-5.4v-.4a5,5,0,0,1-2.25,2.11,7.65,7.65,0,0,1-3.56.81,8.56,8.56,0,0,1-6.52-2.63,9.09,9.09,0,0,1-2.48-6.46,9.33,9.33,0,0,1,2.64-6.77A9.43,9.43,0,0,1,372,366.8a9,9,0,0,1,8.37,5,17.34,17.34,0,0,1,1.94,8.69q0,6.57-2.86,10.71a8.93,8.93,0,0,1-7.72,4.14,8.69,8.69,0,0,1-9.27-7.43Zm14.09-11.74a4.65,4.65,0,0,0-1.26-3.36,4.89,4.89,0,0,0-6.6,0,4.58,4.58,0,0,0-1.28,3.36,4.77,4.77,0,0,0,1.26,3.46,4.36,4.36,0,0,0,3.29,1.31,4.45,4.45,0,0,0,3.33-1.31A4.81,4.81,0,0,0,376.57,376.16Z"/><path class="cls-2" d="M385.43,387.9H391a3.51,3.51,0,0,0,3.65,2.7,4.44,4.44,0,0,0,3.87-2.34,9.86,9.86,0,0,0,1.48-5.4v-.4a5,5,0,0,1-2.25,2.11,7.64,7.64,0,0,1-3.55.81,8.57,8.57,0,0,1-6.53-2.63,9.08,9.08,0,0,1-2.47-6.46,9.32,9.32,0,0,1,2.63-6.77A9.43,9.43,0,0,1,395,366.8a9,9,0,0,1,8.37,5,17.34,17.34,0,0,1,1.94,8.69q0,6.57-2.86,10.71a8.93,8.93,0,0,1-7.72,4.14,9.33,9.33,0,0,1-6.16-1.94A9.43,9.43,0,0,1,385.43,387.9Zm14.09-11.74a4.65,4.65,0,0,0-1.26-3.36,4.89,4.89,0,0,0-6.6,0,4.58,4.58,0,0,0-1.28,3.36,4.77,4.77,0,0,0,1.26,3.46,4.38,4.38,0,0,0,3.29,1.31,4.44,4.44,0,0,0,3.33-1.31A4.81,4.81,0,0,0,399.52,376.16Z"/><path class="cls-2" d="M415.26,383v-4.45h1.58a4.69,4.69,0,0,0,3-.9,3.07,3.07,0,0,0,1.15-2.57,3.29,3.29,0,0,0-1-2.45,3.53,3.53,0,0,0-2.63-1,3.86,3.86,0,0,0-2.86,1.06,4.19,4.19,0,0,0-1.19,2.72h-5.58a9.65,9.65,0,0,1,3-6.23A10.56,10.56,0,0,1,424,369a7.54,7.54,0,0,1,2.42,5.83,7.11,7.11,0,0,1-.94,3.62,5.65,5.65,0,0,1-2.43,2.37,6.08,6.08,0,0,1,2.83,2.43,6.78,6.78,0,0,1,1,3.6,7.92,7.92,0,0,1-2.57,6.07,9.72,9.72,0,0,1-6.89,2.39,10.45,10.45,0,0,1-7.2-2.48,9,9,0,0,1-3-6.52h5.67a4.81,4.81,0,0,0,1.37,3,4.36,4.36,0,0,0,3.13,1.1,4.16,4.16,0,0,0,2.88-1,3.67,3.67,0,0,0-.09-5.36,4.78,4.78,0,0,0-3.15-1Z"/><path class="cls-2" d="M323.8,657.45a23,23,0,1,1,23-23A23,23,0,0,1,323.8,657.45Zm0-36a13,13,0,1,0,13,13A13,13,0,0,0,323.8,621.45Z"/><path class="cls-2" d="M323.8,283.16a25.83,25.83,0,1,1,25.84-25.83A25.86,25.86,0,0,1,323.8,283.16Zm0-42.66a16.83,16.83,0,1,0,16.84,16.83A16.85,16.85,0,0,0,323.8,240.5Z"/><path class="cls-2" d="M362.47,315.65a4.47,4.47,0,0,1-3.36-1.51,47.24,47.24,0,0,0-70.61,0,4.5,4.5,0,1,1-6.72-6,56.25,56.25,0,0,1,84.05,0,4.51,4.51,0,0,1-3.36,7.5Z"/><path class="cls-2" d="M323.8,225a51.75,51.75,0,1,1-51.75,51.75A51.75,51.75,0,0,1,323.8,225m0-9a60.75,60.75,0,1,0,60.75,60.75A60.82,60.82,0,0,0,323.8,216Z"/><path class="cls-2" d="M828,410a97.25,97.25,0,1,1,97.25-97.25A97.36,97.36,0,0,1,828,410Zm0-184.5a87.25,87.25,0,1,0,87.25,87.25A87.35,87.35,0,0,0,828,225.5Z"/><path class="cls-2" d="M830.11,311.39a22.35,22.35,0,1,1,22.34-22.34A22.36,22.36,0,0,1,830.11,311.39Zm0-34.69a12.35,12.35,0,1,0,12.34,12.35A12.36,12.36,0,0,0,830.11,276.7Z"/><path class="cls-2" d="M830.11,358.8a28.71,28.71,0,1,1,28.7-28.71A28.73,28.73,0,0,1,830.11,358.8Zm0-47.41a18.71,18.71,0,1,0,18.7,18.7A18.72,18.72,0,0,0,830.11,311.39Z"/><path class="cls-2" d="M788.26,357.05a5,5,0,0,1-5-5v-78.6a5,5,0,0,1,10,0v78.6A5,5,0,0,1,788.26,357.05Z"/><path class="cls-2" d="M765.79,300.92a5,5,0,0,1-3.53-1.47,5,5,0,0,1,0-7.07l22.47-22.47A5,5,0,0,1,791.8,277l-22.47,22.47A5,5,0,0,1,765.79,300.92Z"/><path class="cls-2" d="M897.1,309.32H863.53a5,5,0,0,1,0-10H897.1a5,5,0,0,1,0,10Z"/><path class="cls-2" d="M880.32,326.1a5,5,0,0,1-5-5V287.53a5,5,0,1,1,10,0V321.1A5,5,0,0,1,880.32,326.1Z"/><path class="cls-2" d="M248.34,494.42H242.8V504h-5.71V476.37h11.25a10.25,10.25,0,0,1,7.09,2.36,8.55,8.55,0,0,1,2.63,6.69,8.46,8.46,0,0,1-2.63,6.66A10.29,10.29,0,0,1,248.34,494.42Zm4-9a4.06,4.06,0,0,0-1.13-3,4.47,4.47,0,0,0-3.28-1.1H242.8v8.23H248a4.44,4.44,0,0,0,3.28-1.12A4,4,0,0,0,252.39,485.42Z"/><path class="cls-2" d="M273.9,483.8v5.58a5.34,5.34,0,0,0-2.79-.68,4.18,4.18,0,0,0-2.48.74,3.47,3.47,0,0,0-1.35,2.1V504H261.7V483.89h5.58v2a4.86,4.86,0,0,1,4.5-2.43A4.55,4.55,0,0,1,273.9,483.8Z"/><path class="cls-2" d="M295.45,494a10.6,10.6,0,0,1-2.74,7.56,10.12,10.12,0,0,1-14.22,0,11.84,11.84,0,0,1,0-15.17,10.12,10.12,0,0,1,14.22,0A10.67,10.67,0,0,1,295.45,494Zm-5.53,0a7,7,0,0,0-1.15-4.21,3.94,3.94,0,0,0-6.34,0,7,7,0,0,0-1.15,4.21,6.94,6.94,0,0,0,1.15,4.16,3.94,3.94,0,0,0,6.34,0A6.94,6.94,0,0,0,289.92,494Z"/><path class="cls-2" d="M309.54,504h-5.4l-7.6-20.11h5.84L307,497.25l4.55-13.36h5.62Z"/><path class="cls-2" d="M331.81,497.43H337a8,8,0,0,1-2.86,5.15,10.35,10.35,0,0,1-13.12-1,11.88,11.88,0,0,1,0-15.12,9,9,0,0,1,6.95-3,8.51,8.51,0,0,1,6.73,2.72,10.59,10.59,0,0,1,2.4,7.27v1.71H323.71a5.57,5.57,0,0,0,1.31,3.53,4,4,0,0,0,3.06,1.28Q331.14,500,331.81,497.43ZM328,488q-3.42,0-4.18,3.78h7.78a4.09,4.09,0,0,0-1-2.72A3.31,3.31,0,0,0,328,488Z"/><path class="cls-2" d="M366.73,504h-5.35v-1.08a5,5,0,0,1-1.94,1,9.62,9.62,0,0,1-3,.45,8.13,8.13,0,0,1-5.33-1.75,5.86,5.86,0,0,1-2.14-4.77,5.72,5.72,0,0,1,2.23-4.64,8.57,8.57,0,0,1,5.56-1.8,10.12,10.12,0,0,1,2.61.36,6.34,6.34,0,0,1,2,.81v-1.48a3.12,3.12,0,0,0-.83-2.23,3.23,3.23,0,0,0-2.46-.88,2.86,2.86,0,0,0-3,1.89h-5.31a7.16,7.16,0,0,1,2.77-4.61,10.19,10.19,0,0,1,11.93.22,7.38,7.38,0,0,1,2.22,5.7Zm-5.35-5.49v-1.44a2.62,2.62,0,0,0-1.37-1.28,5.29,5.29,0,0,0-2.28-.47,4.75,4.75,0,0,0-2.49.63,2,2,0,0,0-1.06,1.84,2,2,0,0,0,1,1.85,4.76,4.76,0,0,0,2.52.63,5.29,5.29,0,0,0,2.28-.48A2.62,2.62,0,0,0,361.38,498.51Z"/><path class="cls-2" d="M384.1,502.65v-1.17a6.05,6.05,0,0,1-5,2.07,8.27,8.27,0,0,1-6.66-2.92,11.54,11.54,0,0,1,0-14.27,8.27,8.27,0,0,1,6.66-2.92,6.2,6.2,0,0,1,5,2v-1.57h5.54V501.8q0,5-2.7,7.53a10,10,0,0,1-7.16,2.55,10.34,10.34,0,0,1-6.41-1.89,7.59,7.59,0,0,1-2.95-5.27h5.4q.68,2.83,4,2.84Q384.1,507.56,384.1,502.65Zm0-5.89v-6.57a4.14,4.14,0,0,0-3.78-2.07,4.29,4.29,0,0,0-3.46,1.48,5.78,5.78,0,0,0-1.26,3.87,5.85,5.85,0,0,0,1.26,3.89,4.25,4.25,0,0,0,3.46,1.51,4.2,4.2,0,0,0,2.23-.61A4.3,4.3,0,0,0,384.1,496.76Z"/><path class="cls-2" d="M406.74,497.43h5.17a8,8,0,0,1-2.86,5.15,9.31,9.31,0,0,1-6.05,1.87,9.21,9.21,0,0,1-7.06-2.9,11.9,11.9,0,0,1,0-15.12,9,9,0,0,1,7-3,8.51,8.51,0,0,1,6.73,2.72,10.59,10.59,0,0,1,2.41,7.27v1.71H398.64a5.57,5.57,0,0,0,1.3,3.53A4,4,0,0,0,403,500Q406.06,500,406.74,497.43ZM403,488q-3.42,0-4.19,3.78h7.79a4.09,4.09,0,0,0-1-2.72A3.31,3.31,0,0,0,403,488Z"/><path class="cls-2" d="M817.49,517.51a6,6,0,0,1-4.25-1.76l-21-21a6,6,0,0,1,8.49-8.48L817.49,503l37.78-37.78a6,6,0,0,1,8.48,8.48l-42,42A6,6,0,0,1,817.49,517.51Z"/><path class="cls-2" d="M938,786.44a5,5,0,0,1-3.79-1.74,78.35,78.35,0,0,1-2.79-98.85l-60.29-67A38.59,38.59,0,0,1,899.41,554h.47a5,5,0,0,1,3.47,1.46l106.57,106.58a5,5,0,1,1-7.08,7.07L897.78,564.05a28.59,28.59,0,0,0-19.27,48.07l63.22,70.21a5,5,0,0,1,.07,6.62,68.33,68.33,0,0,0,0,89.22,5,5,0,0,1-3.79,8.27Z"/><path class="cls-2" d="M213.81,786.44a5,5,0,0,1-3.78-8.27A68.37,68.37,0,0,0,210,689a5,5,0,0,1,.07-6.62l63.15-70.13a28.6,28.6,0,0,0-19.2-48.15L149,669.12a5,5,0,1,1-7.07-7.07L248.48,555.47a5,5,0,0,1,3.46-1.46h.48a38.59,38.59,0,0,1,28.2,65l-60.23,66.89a78.35,78.35,0,0,1-2.79,98.85A5,5,0,0,1,213.81,786.44Z"/></svg>